<?xml version="1.0" encoding="UTF-8"?><svg id="GUIDES" xmlns="http://www.w3.org/2000/svg" viewBox="0 0 1250 703"><defs><style>.cls-1,.cls-2{fill:#bcd530;}.cls-2{fill-rule:evenodd;}</style></defs><path class="cls-1" d="m761.76092,458.54236c-13.38283,34.58507-36.2265,36.62224-57.00944,36.98612-4.56444.10505-9.25511-.08191-14.16232-.08191v-32.90775c7.1293,0,13.89577.20445,20.88485-1.42624,19.48154-4.54464,24.45412-15.97422,20.43782-33.47837-.55038-2.35909-1.22146-4.84979-1.99655-7.53711-1.99626-6.65835-4.74903-14.32476-8.21018-22.90308l-34.47428-85.61494c-2.40574-5.9555-4.79135-7.47973-11.20873-7.47973h-39.06521v128.81361h-37.18383v-128.81361h-32.10782v-30.68695h32.24814c.66226-17.54747,5.35153-34.62269,17.33599-47.94141,10.78172-12.01999,24.70192-18.0315,41.77617-18.0315,8.80527,0,19.55577,1.93345,32.27662,5.80506l-10.96867,28.30003c-8.18601-2.69076-14.44622-4.00828-18.80291-4.00828-7.02858,0-13.02029,3.05225-17.95095,9.10236-4.89069,6.03269-7.37666,13.44592-7.37666,22.31201,0,1.47562.04868,2.99013.16681,4.46174h60.13024c8.81838,0,15.0954,3.09623,18.35541,11.35202l39.04013,98.84436,28.28482-79.64875h-25.42833v-30.54763h74.86173c-23.28904,61.69443-56.46766,150.56067-69.85287,185.12996h0Z"/><polygon class="cls-1" points="505.97782 432.91296 505.97782 303.96004 480.17589 303.96004 480.17589 273.4124 543.63259 273.4124 543.63259 432.91296 505.97782 432.91296 505.97782 432.91296"/><path class="cls-1" d="m353.61024,422.64512l13.26702-29.62449c11.12343,8.83848,23.67378,13.26567,37.6712,13.26567,14.48955,0,21.76484-5.20119,21.76484-15.51197,0-6.06691-2.20199-11.02042-6.56204-14.89502-4.38014-3.8505-12.85781-8.4307-25.46927-13.73362-27.51082-11.36882-41.282-27.38159-41.282-47.9202,0-13.77322,5.27672-24.55162,15.81072-32.23242,10.51519-7.72073,23.98225-11.53462,40.36431-11.53462,16.56463,0,32.1716,3.70985,46.76617,11.12214l-10.71996,28.91488c-8.13061-6.94666-19.48158-10.39031-33.96675-10.39031-13.01928,0-19.52053,5.13372-19.52053,15.42473,0,4.0747,2.14022,7.80598,6.41937,11.04484,4.25492,3.30203,13.40527,7.68217,27.38495,13.15859,14.01419,5.56712,24.08194,12.20766,30.23479,20.09527,6.15314,7.82043,9.2507,17.27553,9.2507,28.40769,0,14.80673-5.47743,26.44746-16.46156,34.91306-10.98178,8.49882-25.85599,12.75945-44.78404,12.75945-10.62028,0-19.09394-.8556-25.51128-2.62998-6.39853-1.74879-14.65298-5.29417-24.65662-10.6337h0Z"/><polygon class="cls-2" points="853.7201 208.02622 897 208.02622 897 251.30616 853.7201 251.30616 853.7201 208.02622 853.7201 208.02622"/></svg>