<?xml version="1.0" encoding="UTF-8"?><svg id="LOGO" xmlns="http://www.w3.org/2000/svg" viewBox="0 0 1250 703"><defs><style>.cls-1{fill:#62ba46;}.cls-2{fill:#002a44;}</style></defs><g id="Bentley"><g><path class="cls-1" d="m990.31846,283.74959c0,7.92914-6.34862,14.23434-14.16267,14.23434-7.85536,0-14.23645-6.3052-14.23645-14.23434,0-7.85536,6.38109-14.16056,14.23645-14.16056,7.81405,0,14.16267,6.3052,14.16267,14.16056Zm-26.28319.0371c0,6.72088,5.40175,12.08342,12.12052,12.08342,6.71919,0,12.04632-5.36254,12.04632-12.08342,0-6.68425-5.32713-12.08342-12.04632-12.08342-6.71877,0-12.12052,5.39917-12.12052,12.08342Zm9.4363,8.19474h-2.64333v-16.35069h6.49702c3.137,0,4.56954,2.03793,4.56954,4.07798,0,1.92453-1.47386,3.39838-3.54889,3.77528v.07631c2.03798.22639,2.75842.86846,2.86972,4.15386.0371.71623.26349,3.24619.64207,4.26727h-2.60581c-.64249-1.13406-.48988-3.2483-.67917-5.43842-.18971-1.73734-1.70062-1.85075-2.45404-1.85075h-2.64712v7.28918Zm0-9.40299h3.40054c1.62221,0,2.37979-1.20868,2.37979-2.64333,0-1.17116-.60118-2.49282-2.37979-2.49282h-3.40054v5.13615Z"/><g><g><path class="cls-1" d="m274.65026,311.7164h-15.1795v-22.26466h15.1795v-50.80206h67.80325c19.42614,0,36.63137,11.33595,36.63137,34.00449,0,11.73772-6.07291,21.0505-15.58509,25.29922,13.15804,4.25293,22.66811,14.77776,22.66811,30.96825,0,22.6639-16.79925,36.835-39.06012,36.835h-72.45753v-54.04024Zm23.47713-22.26466h41.69333c10.32331,0,15.78661-6.67788,15.78661-14.3684,0-7.49111-5.4633-14.16478-15.78661-14.16478h-41.69333v28.53318Zm0,54.03982h46.34761c10.52694,0,18.21788-6.8794,18.21788-15.78872,0-9.10494-7.69094-15.98644-18.21788-15.98644h-46.34761v31.77516Z"/><path class="cls-1" d="m498.67795,344.50842c-11.74152,14.77186-27.932,23.67317-45.53817,23.8789-34.20432,0-54.03813-25.70267-54.03813-51.60897s19.83381-51.61107,54.03813-51.61107c20.443,0,50.79573,16.79752,50.79573,55.04866v3.84737h-81.35673c1.21672,14.97801,15.17742,25.70689,29.9535,25.70689,11.33427,0,21.0505-5.47173,28.33124-15.18164l17.81442,9.91986Zm-19.42825-37.85186c-4.45234-14.97759-15.58678-22.87005-28.94043-22.87005-13.36208,0-24.28826,8.30013-27.73049,22.87005h56.67092Z"/><path class="cls-1" d="m524.97336,267.79585h21.04628v12.34902h.40346c5.87522-9.11084,16.59563-14.97759,29.95139-14.97759,20.65126,0,38.0538,17.20313,38.0538,41.48928v59.10008h-21.04628v-54.44369c0-17.81232-9.31278-25.09938-23.27772-25.09938-13.56149,0-24.08463,8.70949-24.08463,24.69382v54.84926h-21.04628v-97.96079Z"/><path class="cls-1" d="m642.34174,287.62966h-11.94346v-19.83381h11.94346v-26.10781l21.04628-5.66317v31.77099h14.98181v19.83381h-14.98181v78.12698h-21.04628v-78.12698Z"/><path class="cls-1" d="m714.99066,238.64969v87.64085c0,11.33427,2.4292,15.38568,8.70738,19.02479l11.33427,6.47211-9.31278,16.59989c-21.65543-10.3212-31.77937-17.81021-31.77937-38.25321v-91.48442h21.0505Z"/></g><g><path class="cls-1" d="m839.66638,344.50842c-11.73355,14.77186-27.92568,23.67317-45.53399,23.8789-34.20428,0-54.04024-25.70267-54.04024-51.60897s19.83596-51.61107,54.04024-51.61107c20.44089,0,50.79573,16.79752,50.79573,55.04866v3.84737h-81.35673c1.21037,14.97801,15.17531,25.70689,29.9556,25.70689,11.33427,0,21.04628-5.47173,28.33335-15.18164l17.80603,9.91986Zm-19.42407-37.85186c-4.45019-14.97759-15.59099-22.87005-28.94254-22.87005-13.35998,0-24.29037,8.30013-27.72838,22.87005h56.67092Z"/><path class="cls-1" d="m862.51995,267.79585h21.04628v57.48204c0,16.39833,10.1239,23.27351,23.08422,23.27351,16.38989,0,24.27814-10.11551,24.27814-25.29922v-55.45633h21.04628v94.92244c0,29.95139-26.50958,43.11322-44.72746,43.11322-22.05471,0-31.97667-8.29971-41.49139-19.23052l17.81021-10.92664c6.68631,6.4802,13.35998,10.32546,22.47081,10.32546,13.96916,0,26.10191-8.50966,26.10191-25.70225v-5.266h-.39502c-8.30013,9.30856-15.99066,13.35576-29.55636,13.35576-21.85741,0-39.66762-16.38568-39.66762-43.9227v-56.66877Z"/></g></g></g><g><path class="cls-2" d="m314.77533,456.50254h-7.90469c-.57844,0-.98191-.46111-.98191-1.03749l-.40347-9.46504h-11.83027l-3.75061,9.46504c-.23055.57638-.7493,1.03749-1.32568,1.03749h-8.25258c-.51875,0-.80694-.28819-.80694-.69166,0-.17292.05764-.34583.11528-.51875l14.88716-35.77694c2.30759-5.54152,6.74986-6.40609,10.73308-6.40609,3.98116,0,8.01996.86458,8.36579,6.40609l2.30759,35.77694v.05764c0,.69166-.51875,1.15277-1.15277,1.15277Zm-10.21434-34.33187c0-.57638-.05764-.86869-.57638-.86869s-.7493.29231-.98191.86869l-6.34639,15.92465h8.59841l-.69372-15.92465Z"/><path class="cls-2" d="m355.48859,412.24453c.809,0,1.21246.28819,1.03955,1.15277l-7.15539,40.44977c-.17292.92633-.46111,1.32983-2.07704,1.67563-3.46242.80694-8.0776,1.4986-12.52193,1.4986-7.73177,0-12.05877-4.90338-12.05877-11.77057,0-.97985.05764-1.96382.23055-3.00131l.7493-4.49991c1.78885-10.61781,7.04011-14.77188,17.07948-14.77188,1.15483,0,3.05895.17292,4.67488.40347l1.78885-9.98378c.11528-.63402.51875-1.15277,1.32774-1.15277h6.92278Zm-16.03993,18.46486c-4.21377,0-5.65473,2.30965-6.46373,7.04011l-.7493,4.49991c-.17292,1.15277-.28819,2.19437-.28819,3.05895,0,2.65548,1.03749,4.0388,4.21172,4.0388,1.9041,0,3.63533-.17292,4.7881-.34583l3.17423-18.00375c-1.32774-.17292-3.2895-.28819-4.67282-.28819Z"/><path class="cls-2" d="m391.59283,424.7644l-11.88791,26.19666c-2.30759,5.13801-6.0582,6.06023-9.46298,6.06023s-6.69428-.92221-7.21303-6.06023l-2.59578-26.19666v-.11528c0-.69166.51875-1.21041,1.09513-1.21041h7.3283c.57844,0,.92427.51875.98191,1.21041l.97985,22.62308c.05764.86454.29025,1.21037.69372,1.21037s.7493-.34583,1.09513-1.21037l8.94424-22.62308c.28819-.69166.86663-1.21041,1.44302-1.21041h7.90469c.46111,0,.809.34583.809.80694,0,.17292-.05764.34583-.11528.51875Z"/><path class="cls-2" d="m421.46391,424.41857c1.32568.34583,1.67357.57638,1.4986,1.73327l-5.07629,29.19794c-.11528.63402-.40553,1.15277-1.32774,1.15277h-5.88529c-.63608,0-1.09719-.40347-.98191-1.15277l.23055-1.67563c-3.11453,2.42493-5.88529,3.34714-8.94218,3.34714-6.92484,0-9.69559-5.30684-9.69559-11.07891,0-1.09513.11528-2.13262.28819-3.23186,0,0,.75136-4.32699.92427-5.42212,1.73121-10.04139,7.96233-14.31078,17.02184-14.31078,3.92352,0,8.19494.46111,11.94555,1.44096Zm-13.15801,6.23318c-4.09644,0-5.77001,2.42493-6.57695,7.09775l-1.03955,6.06026c-.11528.63402-.17292,1.26804-.17292,1.90207,0,1.90618.69372,3.52006,3.2895,3.52006,1.96176,0,4.21172-.92221,6.11584-2.02146l2.8284-16.21284c-1.03955-.17292-2.8284-.34583-4.44433-.34583Z"/><path class="cls-2" d="m457.16054,436.07386l-3.34711,19.21827c-.11528.63402-.80694,1.21041-1.44096,1.21041h-6.98247c-.57844,0-.92427-.46111-.92427-.97985v-.23055l3.34714-19.21827c.17292-.97985.28819-1.84443.28819-2.53609,0-2.13674-1.38332-2.8284-3.11453-2.8284-2.19437,0-4.96307,1.09513-6.23318,1.84854l-3.98116,22.73421c-.11528.63402-.7493,1.21041-1.38538,1.21041h-6.98042c-.57844,0-.98191-.46111-.98191-1.03749v-.17292l5.42418-30.70065c.11528-.63402.69166-1.15277,1.32774-1.15277h6.28876c.57638,0,.98191.40347.98191.97985v.17292l-.23261,1.38744c2.59784-1.96382,5.94498-3.00131,9.00187-3.00131,4.96307,0,9.29007,2.77076,9.29007,9.58032,0,1.09513-.11528,2.2479-.34586,3.51594Z"/><path class="cls-2" d="m487.66772,423.84218c1.03955.28819,1.09719.57638.98191,1.3298l-.9243,5.13393c-.11524.63402-.23052,1.09513-1.38535.97985-2.19232-.23055-3.69297-.40347-6.98247-.40347-2.82634,0-4.90338,1.32568-5.88529,6.69428l-.86458,4.84574c-.17292,1.09513-.28819,2.02146-.28819,2.77076,0,3.11659,1.44096,3.92352,3.86589,3.92352,3.2895,0,4.90338-.17292,7.09775-.40347.86458-.11528,1.15277.34583,1.03749.97985l-.92221,5.13805c-.17292.86458-.5208,1.09513-1.44302,1.32568-1.67357.40347-4.21172.86458-7.67413.86458-6.75192,0-11.36711-4.0388-11.36711-11.19419,0-1.09513.11528-2.19026.34583-3.40478l.86458-4.84574c1.90412-10.79072,7.6165-14.59897,15.98435-14.59897,3.46242,0,6.00056.46111,7.55886.86458Z"/><path class="cls-2" d="m505.36681,424.59148l-5.42212,30.75829c-.11528.63402-.40347,1.15277-1.38744,1.15277h-7.03805c-.69372,0-1.03955-.46111-.92427-1.15277l5.42624-30.75829c.11528-.63402.69166-1.15277,1.32568-1.15277h7.04011c.63402,0,1.09513.34583.97985,1.15277Zm-8.53871-6.05614l.92221-5.3686c.11528-.63402.46111-1.15277,1.38744-1.15277h7.50122c.69166,0,1.09513.28819.92221,1.15277l-.92221,5.3686c-.11528.63402-.46111,1.15277-1.38744,1.15277h-7.50122c-.69166,0-1.03749-.46111-.92221-1.15277Z"/><path class="cls-2" d="m539.97864,436.07386l-3.34714,19.21827c-.11528.63402-.80694,1.21041-1.44096,1.21041h-6.98247c-.57638,0-.92633-.46111-.92633-.97985v-.23055l3.34714-19.21827c.17292-.97985.28819-1.84443.28819-2.53609,0-2.13674-1.38332-2.8284-3.11247-2.8284-2.19437,0-4.96513,1.09513-6.23318,1.84854l-3.98116,22.73421c-.11528.63402-.7493,1.21041-1.38744,1.21041h-6.97836c-.5805,0-.98397-.46111-.98397-1.03749v-.17292l5.42624-30.70065c.11528-.63402.69166-1.15277,1.32568-1.15277h6.29081c.57638,0,.97985.40347.97985.97985v.17292l-.23055,1.38744c2.59784-1.96382,5.94498-3.00131,8.99982-3.00131,4.96513,0,9.29212,2.77076,9.29212,9.58032,0,1.09513-.11528,2.2479-.34583,3.51594Z"/><path class="cls-2" d="m576.71485,426.03656l-5.36448,30.58126c-1.44096,8.30816-6.52137,11.54002-16.03993,11.54002-4.96513,0-8.77338-.86458-10.73308-1.55624-.63402-.23055-.92633-.51875-.92633-1.04161,0-.17292.05764-.28819.05764-.46111l.69578-3.86589c.11528-.63402.57638-1.03749,1.21041-1.03749h.11528c2.5402.23055,8.13524.69166,10.906.69166,3.98116,0,4.90338-.92221,5.5374-4.26935l.11939-.63402c-1.61799.34583-3.17423.51875-4.67694.51875-6.98247,0-12.46223-3.75061-12.46223-11.48238,0-1.03749.05764-2.13674.28819-3.34714l.69166-3.92352c1.90618-10.73308,6.92484-14.77188,17.08154-14.77188,5.24921,0,9.80675.86458,12.00113,1.44096,1.15277.28819,1.55624.63402,1.55624,1.21452,0,.11528-.05764.23055-.05764.40347Zm-14.82952,4.67282c-4.09644,0-5.71031,2.94367-6.45961,7.04011l-.69578,3.92352c-.17292,1.09513-.28819,2.02146-.28819,2.8284,0,3.52006,1.84854,4.38463,4.6193,4.38463,1.32568,0,2.88192-.17292,4.55755-.40347l3.05895-17.36973c-1.04161-.17292-2.59784-.40347-4.79222-.40347Z"/><path class="cls-2" d="m600.05838,456.50254h-3.17423c-.57638,0-1.03749-.51875-1.03749-1.15277v-40.62268c0-.57638.40347-1.09925,1.03749-1.09925h3.17423c.57638,0,1.04161.46522,1.04161,1.09925v40.62268c0,.57638-.40759,1.15277-1.04161,1.15277Z"/><path class="cls-2" d="m634.38202,456.50254h-2.77076c-.63402,0-1.15277-.51875-1.15277-1.15277v-18.9836c0-5.82971-1.96382-7.62061-6.34845-7.62061-2.42081,0-5.13393.92633-7.78941,2.25201v24.3522c0,.57638-.51875,1.15277-1.15277,1.15277h-2.8284c-.57638,0-1.09513-.51875-1.09513-1.15277v-29.42849c0-.63402.46111-1.15688,1.09513-1.15688h2.88603c.63402,0,1.09513.52286,1.09513,1.15688v1.09513c3.17423-1.78679,5.77207-2.65548,9.17685-2.65548,6.92484,0,10.03731,4.32699,10.03731,12.00524v18.9836c0,.63402-.51875,1.15277-1.15277,1.15277Z"/><path class="cls-2" d="m658.9483,416.62916h-2.77076c-2.709,0-3.52006.80694-3.52006,3.98116v4.15408h6.06026c.63402,0,1.09513.46522,1.09513,1.04161v2.2479c0,.57638-.46111.98397-1.09513.98397h-6.06026v26.31191c0,.57638-.51875,1.15277-1.09513,1.15277h-2.8284c-.63402,0-1.15277-.57638-1.15277-1.15277v-26.31191l-5.59915-.63814c-.63402-.05764-1.09513-.46111-1.09513-1.03749v-1.55624c0-.57638.46111-1.04161,1.09513-1.04161h5.59915v-4.15408c0-6.17142,3.00131-8.01996,8.0776-8.01996,1.56035,0,2.48257.17292,3.23186.34583.63402.17292,1.09513.40347,1.09513.92221v1.90618c0,.63402-.40347.86458-1.03749.86458Z"/><path class="cls-2" d="m679.53343,428.74556c-2.65136,0-5.07629.69578-7.96233,2.42493v24.17929c0,.57638-.51875,1.15277-1.15277,1.15277h-2.8284c-.57638,0-1.09513-.51875-1.09513-1.15277v-29.42849c0-.63402.46111-1.15688,1.09513-1.15688h2.71312c.63402,0,1.09513.52286,1.09513,1.15688v1.21041c2.88603-2.01734,5.54152-2.77076,8.13524-2.77076.81105,0,1.21452.34583,1.21452,1.04161v2.36317c0,.63402-.40347.97985-1.21452.97985Z"/><path class="cls-2" d="m706.75931,456.50254h-2.65548c-.63402,0-1.15277-.51875-1.15277-1.15277v-1.27216c-2.77076,1.61799-5.65679,2.8284-8.88454,2.8284-4.90749,0-9.4074-2.13262-9.4074-9.34565v-.69578c0-6.22906,3.63533-9.34565,13.90731-9.34565h4.26935v-2.30965c0-4.84574-1.67563-6.52137-6.17554-6.52137-3.75061,0-6.52137.23467-8.8269.46522h-.28819c-.51875,0-1.03749-.17292-1.03749-.92633v-2.01734c0-.63402.40347-.97985,1.21041-1.09513,2.36317-.40759,5.01865-.75342,8.94218-.75342,8.01996,0,11.25183,4.0388,11.25183,10.84836v20.14049c0,.63402-.51875,1.15277-1.15277,1.15277Zm-3.92352-15.34827h-4.26935c-6.98247,0-8.83102,1.55624-8.83102,5.65267v.69578c0,4.15408,1.96382,5.24921,5.31096,5.24921,2.65548,0,5.01865-.80694,7.78941-2.30965v-9.28801Z"/><path class="cls-2" d="m726.18755,456.90601c-2.13262,0-6.2867-.17292-9.11509-.86458-.7493-.17292-1.21041-.51875-1.21041-1.15277v-2.02146c0-.51875.46111-.86458,1.03749-.86458h.23055c2.77076.34583,6.98247.63402,9.05745.63402,3.75061,0,5.71443-.97985,5.71443-4.09644,0-1.73327-1.03749-2.8284-4.32699-4.7881l-5.82971-3.46242c-3.52006-2.13674-5.88323-4.6193-5.88323-8.25463,0-5.99851,4.49991-7.67413,10.44077-7.67413,3.23186,0,6.29081.28819,9.00393.75342.7493.11528,1.09513.51875,1.09513,1.15277v1.90207c0,.69578-.40347.98397-.97985.98397h-.17292c-2.02146-.17292-5.71443-.46522-8.94629-.46522s-5.36448.40759-5.36448,3.34714c0,1.73327,1.32568,2.8284,3.98116,4.38875l5.71443,3.40066c4.7881,2.8284,6.34434,5.31096,6.34434,8.71574,0,5.88323-4.32699,8.36579-10.79072,8.36579Z"/><path class="cls-2" d="m759.98833,456.61782c-1.15688.17292-2.65548.28819-3.75061.28819-5.31096,0-7.85117-1.38332-7.85117-7.73177v-20.13637l-5.59504-.63814c-.63402-.05764-1.09513-.40347-1.09513-1.03749v-1.55624c0-.63402.46111-1.04161,1.09513-1.04161h5.59504v-5.65267c0-.57638.40759-1.03749,1.04161-1.15277l3.00131-.46522h.17292c.46111,0,.86458.40759.86458.98397v6.2867h6.23318c.63402,0,1.15277.52286,1.15277,1.15688v1.9597c0,.63402-.51875,1.15688-1.15277,1.15688h-6.23318v20.13637c0,3.17423.80694,3.63533,3.11659,3.63533h3.23186c.80694,0,1.21041.23055,1.21041.80694v2.02146c0,.51875-.28819.86458-1.03749.97985Z"/><path class="cls-2" d="m780.57345,428.74556c-2.65548,0-5.08041.69578-7.96233,2.42493v24.17929c0,.57638-.51875,1.15277-1.15688,1.15277h-2.82428c-.5805,0-1.09925-.51875-1.09925-1.15277v-29.42849c0-.63402.46111-1.15688,1.09925-1.15688h2.709c.63814,0,1.09925.52286,1.09925,1.15688v1.21041c2.88192-2.01734,5.5374-2.77076,8.13524-2.77076.80694,0,1.21041.34583,1.21041,1.04161v2.36317c0,.63402-.40347.97985-1.21041.97985Z"/><path class="cls-2" d="m811.60346,456.50254h-2.88603c-.63402,0-1.09513-.51875-1.09513-1.15277v-1.09925c-3.17423,1.79091-5.77207,2.65548-9.17273,2.65548-6.92484,0-10.04142-4.32699-10.04142-12.00113v-18.9836c0-.63402.51875-1.15688,1.15277-1.15688h2.77076c.63402,0,1.15277.52286,1.15277,1.15688v18.9836c0,5.82559,1.96382,7.6165,6.34845,7.6165,2.42493,0,5.13389-.92221,7.78941-2.25201v-24.34808c0-.57638.51875-1.15688,1.15277-1.15688h2.8284c.57638,0,1.09513.52286,1.09513,1.15688v29.42849c0,.63402-.46111,1.15277-1.09513,1.15277Z"/><path class="cls-2" d="m840.15091,456.27199c-1.90618.34583-4.49991.63402-7.21303.63402-7.84705,0-12.28932-5.5374-12.28932-14.02259v-4.49991c0-8.48107,4.38463-14.02259,12.28932-14.02259,2.65548,0,5.30684.28819,7.21303.63402.92221.17703,1.15277.46522,1.15277,1.27216v2.07498c0,.5805-.46111.86869-.97985.86869h-.23055c-2.5402-.28819-4.32699-.40759-7.15539-.40759-4.61518,0-7.21303,3.05895-7.21303,9.58032v4.49991c0,6.46373,2.5402,9.58032,7.21303,9.58032,2.8284,0,4.61518-.11528,7.15539-.40347h.23055c.51875,0,.97985.28819.97985.86458v2.0791c0,.7493-.23055,1.09513-1.15277,1.26804Z"/><path class="cls-2" d="m864.7172,456.61782c-1.15688.17292-2.65548.28819-3.75061.28819-5.31096,0-7.85117-1.38332-7.85117-7.73177v-20.13637l-5.59504-.63814c-.63402-.05764-1.09513-.40347-1.09513-1.03749v-1.55624c0-.63402.46111-1.04161,1.09513-1.04161h5.59504v-5.65267c0-.57638.40759-1.03749,1.04161-1.15277l3.00131-.46522h.17292c.46111,0,.86458.40759.86458.98397v6.2867h6.23318c.63402,0,1.15277.52286,1.15277,1.15688v1.9597c0,.63402-.51875,1.15688-1.15277,1.15688h-6.23318v20.13637c0,3.17423.80694,3.63533,3.11659,3.63533h3.23186c.80694,0,1.21041.23055,1.21041.80694v2.02146c0,.51875-.28819.86458-1.03749.97985Z"/><path class="cls-2" d="m895.45902,456.50254h-2.88603c-.63402,0-1.09513-.51875-1.09513-1.15277v-1.09925c-3.17423,1.79091-5.77207,2.65548-9.17685,2.65548-6.92484,0-10.04142-4.32699-10.04142-12.00113v-18.9836c0-.63402.51875-1.15688,1.15688-1.15688h2.76664c.63814,0,1.15688.52286,1.15688,1.15688v18.9836c0,5.82559,1.9597,7.6165,6.34434,7.6165,2.42493,0,5.13805-.92221,7.79353-2.25201v-24.34808c0-.57638.51875-1.15688,1.15277-1.15688h2.8284c.57638,0,1.09513.52286,1.09513,1.15688v29.42849c0,.63402-.46111,1.15277-1.09513,1.15277Z"/><path class="cls-2" d="m918.58023,428.74556c-2.65548,0-5.08041.69578-7.96233,2.42493v24.17929c0,.57638-.51875,1.15277-1.15688,1.15277h-2.82428c-.5805,0-1.09925-.51875-1.09925-1.15277v-29.42849c0-.63402.46111-1.15688,1.09925-1.15688h2.709c.63814,0,1.09925.52286,1.09925,1.15688v1.21041c2.88192-2.01734,5.5374-2.77076,8.13524-2.77076.80694,0,1.21041.34583,1.21041,1.04161v2.36317c0,.63402-.40347.97985-1.21041.97985Z"/><path class="cls-2" d="m948.39985,442.2494h-19.32943v.80697c0,6.86716,2.71312,9.40737,8.01996,9.40737,3.34714,0,7.6165-.23055,10.27198-.63402h.28819c.46111,0,.92221.23055.92221.80694v1.9597c0,.75342-.23055,1.15688-1.15277,1.3298-3.2895.63402-6.46373.97985-10.32962.97985-6.63664,0-13.09626-3.11659-13.09626-13.84964v-5.1916c0-8.25052,4.55755-13.50384,12.80806-13.50384,8.42343,0,12.69279,5.31096,12.69279,13.50384v3.11659c0,.7493-.40347,1.26804-1.09513,1.26804Zm-4.0388-4.38463c0-6.52137-2.48257-9.06157-7.55886-9.06157-4.96101,0-7.73177,2.8284-7.73177,9.06157v.51875h15.29063v-.51875Z"/></g></g></svg>