<?xml version="1.0" encoding="UTF-8"?><svg id="LOGO" xmlns="http://www.w3.org/2000/svg" viewBox="0 0 1250 703"><g id="Vectorworks"><g><g><g><path d="m394.20406,404.92623h-17.30184l-23.26593-106.18989h18.34787l13.5732,80.53661,13.72504-80.53661h18.34787l-23.4178,106.18989h-.00842Z"/><path d="m427.38207,404.92623v-106.18989h44.59167v15.06634h-27.88876v30.13269h24.01673v15.06634h-24.01673v30.87504h27.88876v15.06634h-44.59164l-.00003-.01688Z"/><path d="m528.01277,399.40921c-4.77467,4.32757-10.44353,6.7149-18.34787,6.7149-10.13983,0-16.10395-3.88047-20.58335-8.95039-7.90434-8.95039-7.75251-24.31199-7.75251-45.1906s-.15184-36.5439,7.75251-45.49429c4.47941-5.06992,10.44353-8.95039,20.58335-8.95039,8.05618,0,13.72504,2.38733,18.49129,6.85831,5.22176,4.91807,8.1996,12.97427,8.50328,22.37175h-16.70288c-.15184-3.88047-.74235-7.60909-2.53074-10.29168-1.49313-2.38733-3.72864-3.88047-7.76095-3.88047s-6.41122,1.63655-7.90434,4.02388c-3.12968,5.06992-3.72864,15.80869-3.72864,35.20261s.59893,30.12426,3.72864,35.19417c1.49313,2.38733,3.88047,4.03231,7.90434,4.03231s6.41122-1.49314,7.90434-3.88047c1.78839-2.68258,2.38732-6.56305,2.53918-10.43508h16.70288c-.29526,9.54932-3.42493,17.74892-8.79854,22.667v.00843Z"/><path d="m576.94043,313.79424v91.13199h-16.70288v-91.13199h-17.74894v-15.06634h52.35262v15.06634h-17.9008Z"/><path d="m648.67848,397.16528c-4.47941,5.06991-10.44353,8.95039-20.58338,8.95039s-16.10397-3.88047-20.58338-8.95039c-7.90434-8.95039-7.75251-24.46383-7.75251-45.34244s-.15184-36.39205,7.75251-45.34244c4.47941-5.06992,10.44353-8.95039,20.58338-8.95039s16.10397,3.88047,20.58338,8.95039c7.90434,8.95039,7.75251,24.46383,7.75251,45.34244s.15184,36.39205-7.75251,45.34244Zm-12.52715-80.53661c-1.49315-2.38733-4.02389-4.02388-8.05618-4.02388s-6.41119,1.63655-7.90434,4.02388c-3.1297,5.06992-3.72861,15.80869-3.72861,35.2026s.59896,30.12426,3.72861,35.19417c1.49315,2.38733,3.88045,4.03231,7.90434,4.03231s6.56308-1.63655,8.05618-4.03231c3.1297-5.06991,3.57677-15.8087,3.57677-35.19417s-.44712-30.13269-3.57677-35.2026Z"/><path d="m709.77905,404.92623l-13.86846-43.55406h-9.3975v43.55406h-16.70288v-106.18989h26.84273c19.3939,0,27.14641,9.39748,27.14641,31.32214,0,13.12611-2.68258,22.52359-12.38375,27.73692l15.80869,47.13083h-17.45368.00844Zm-12.97427-91.13198h-10.29169v32.51159h10.29169c8.95037,0,10.29169-7.45725,10.29169-16.25579s-1.34132-16.2558-10.29169-16.2558Z"/><path d="m816.40757,404.92623h-17.45368l-15.21817-80.68846-15.06633,80.68846h-17.45368l-20.13626-106.18989h18.34787l10.43508,80.53661,14.61926-80.53661h18.49127l14.76266,80.53661,10.29169-80.53661h18.34787l-19.98442,106.18989h.01684Z"/><path d="m891.22471,397.16528c-4.47941,5.06991-10.44353,8.95039-20.58338,8.95039s-16.10397-3.88047-20.58338-8.95039c-7.90434-8.95039-7.75251-24.46383-7.75251-45.34244s-.15184-36.39205,7.75251-45.34244c4.47941-5.06992,10.44353-8.95039,20.58338-8.95039s16.10397,3.88047,20.58338,8.95039c7.90434,8.95039,7.75251,24.46383,7.75251,45.34244s.15184,36.39205-7.75251,45.34244Zm-12.52715-80.53661c-1.49315-2.38733-4.02389-4.02388-8.05618-4.02388s-6.41119,1.63655-7.90434,4.02388c-3.1297,5.06992-3.72861,15.80869-3.72861,35.2026s.59896,30.12426,3.72861,35.19417c1.49315,2.38733,3.88045,4.03231,7.90434,4.03231s6.56308-1.63655,8.05618-4.03231c3.1297-5.06991,3.57677-15.8087,3.57677-35.19417s-.44712-30.13269-3.57677-35.2026Z"/><path d="m952.31678,404.92623l-13.86846-43.55406h-9.3975v43.55406h-16.70288v-106.18989h26.85118c19.38546,0,27.14641,9.39748,27.14641,31.32214,0,13.12611-2.68258,22.52359-12.38375,27.73692l15.80869,47.13083h-17.45368Zm-12.97427-91.13198h-10.29169v32.51159h10.29169c8.95037,0,10.29169-7.45725,10.29169-16.25579s-1.34132-16.2558-10.29169-16.2558Z"/><path d="m1023.51498,404.92623l-17.14995-43.70589-8.05623,16.40763v27.29826h-16.70288v-106.18989h16.70288v49.96526l23.12257-49.96526h16.85472l-21.32574,43.99271,24.60727,62.19719h-18.05264Z"/><path d="m1092.27522,398.96211c-4.32757,4.17572-11.33767,7.01015-20.73517,7.01015s-16.11236-2.53917-20.58338-7.01015c-5.06993-5.06991-6.85831-11.63297-6.85831-22.82728h16.70293c0,5.66886.59891,9.24565,2.98631,11.93666,1.49315,1.63655,4.03234,2.83443,7.7609,2.83443s6.41119-1.04604,8.05623-2.97784c2.23551-2.53917,2.83442-6.11596,2.83442-11.78482,0-11.33772-1.78839-14.02031-9.99641-17.44524l-12.67904-5.22176c-10.73876-4.47941-14.76266-10.29168-14.76266-26.69932,0-9.54933,2.83442-17.30183,8.6467-22.52359,4.6228-4.03231,10.58697-6.41121,18.19598-6.41121,8.50325,0,14.76266,2.23549,19.09023,6.41121,5.51705,5.36517,7.45722,12.97427,7.45722,23.12254h-16.70293c0-4.77466-.30368-8.50329-2.53918-11.33772-1.49315-1.94024-3.88045-3.12968-7.45722-3.12968s-5.51705,1.18945-7.16199,2.98628c-1.94028,2.23549-2.83442,5.82071-2.83442,10.44352,0,8.6467,1.34126,11.33772,8.79859,14.31556l12.52715,5.06992c12.67904,5.06992,16.11236,11.93666,16.11236,29.82901,0,10.89062-1.49315,18.19603-6.85831,23.41778v-.00843Z"/></g><rect x="312.53706" y="256.16084" width="4.56377" height="191.33245"/><g><path d="m201.47971,426.30255c-41.06549,0-74.47971-33.40579-74.47971-74.47127s33.41422-74.47971,74.47971-74.47971,74.47971,33.41422,74.47971,74.47971-33.41422,74.47127-74.47971,74.47127Zm0-140.99601c-36.67887,0-66.51631,29.83743-66.51631,66.51631s29.83743,66.51631,66.51631,66.51631,66.51631-29.83743,66.51631-66.51631-29.83743-66.50787-66.51631-66.50787v-.00843Z"/><g><path d="m166.67358,325.23319l27.59351,66.18731c.28681.69174,1.13883,1.25694,1.88962,1.25694h12.16443c.75079,0,1.13883-.5652.86045-1.26537l-26.78367-66.88748c-.12654-.32056-.51458-.58207-.86045-.58207h-14.02031c-.75922,0-1.14727.57363-.85201,1.27381l.00844.01687Z"/><path d="m221.40508,323.94251h14.02874c.75922,0,1.14727.57363.85201,1.27381l-18.22977,43.74808c-.32056.75922-1.40035.75079-1.70403-.01688l-6.31841-15.82557c-.25308-.62425-.25308-1.65342,0-2.2861l10.52788-26.3197c.12654-.32056.51458-.58207.86045-.58207l-.01687.00844Z"/></g></g></g><path d="m1113.90463,315.70074c-4.70714,0-8.52014-3.81298-8.52014-8.52016s3.813-8.52016,8.52014-8.52016,8.52014,3.81298,8.52014,8.52016-3.813,8.52016-8.52014,8.52016Zm0-16.02803c-4.07446,0-7.4151,3.43337-7.4151,7.50787s3.34055,7.50787,7.4151,7.50787,7.4151-3.43337,7.4151-7.50787-3.34055-7.50787-7.4151-7.50787Zm2.26084,12.21504l-2.33673-3.93108h-1.55216v3.93108h-1.06292v-9.43966h3.01154c1.5606,0,2.91875,1.17258,2.91875,2.77538,0,1.39191-.89424,2.2861-2.14273,2.63197l2.37051,4.02388h-1.22315l.01689.00844Zm-2.04995-8.46955h-1.83905v3.60209h1.83905c1.13037,0,1.97395-.75079,1.97395-1.78839s-.84358-1.8137-1.97395-1.8137Z"/></g></g></svg>