<svg id="LOGO" xmlns="http://www.w3.org/2000/svg" viewBox="0 0 1250 703"><title>nvidia-partner-h2oai-logo</title><rect x="397" y="122" width="456" height="456" fill="#fff100"/><path id="ai" d="M685.76,363a7.52,7.52,0,0,0-7.57,7.41,7.57,7.57,0,1,0,15.14,0A7.52,7.52,0,0,0,685.76,363Zm81.71-49.94H756.65v9h-.27a27.5,27.5,0,0,0-21.76-10.77c-19,0-30.54,15.48-30.54,33.52,0,17.5,11.76,33.25,30.41,33.25a26.73,26.73,0,0,0,21.89-10.5h.27v8.75h10.82Zm-31.63,8.21c13.38,0,21.35,10.23,21.35,22.89s-7.29,24-21.22,24c-13.51,0-20.81-11.71-20.81-24.1C715.16,332.19,723.27,321.28,735.84,321.28Zm64.47-8.21H789.5v63.27h10.81Zm-5.41-31.5a7.77,7.77,0,0,0-7.7,7.67,7.71,7.71,0,0,0,15.41,0,7.78,7.78,0,0,0-7.71-7.67Z" fill-opacity="0.3"/><path id="path3081" d="M468.21,327.85v-32h-21.4V378.7h21.4V344.76h30.9V378.7h21.4V295.89h-21.4v32h-30.9"/><path id="path3083" d="M559.44,404.68l9.2-8.62c6.05-5.54,9.59-10.52,9.59-19.06,0-13-10.46-21.19-22.88-21.19-14,0-22.64,9.25-23.11,22.93h17a14.21,14.21,0,0,1-.24-2.53c0-4,2.28-7.28,6.45-7.28s6.76,4,6.76,7.75c0,5.46-3.3,10.84-6.76,14.63l-24.21,26.5h47.64V404.68H559.44"/><path id="path3085" d="M626.63,293.15c-23.7,0-45.53,17.57-45.53,42.61,0,26.8,19.1,45.69,45.53,45.69s45.53-18.89,45.53-45.69c0-25-21.84-42.61-45.53-42.61m0,20.86c12.77,0,23.25,10.44,23.25,21.86,0,14.28-10.48,24.71-23.25,24.71s-23.26-10.43-23.26-24.71c0-11.42,10.48-21.86,23.26-21.86"/></svg>