<svg id="LOGO" xmlns="http://www.w3.org/2000/svg" viewBox="0 0 1250 703"><title>nvidia-partner-omnisci-logo</title><rect x="364.15" y="191" width="521.7" height="318" fill="#1c4798"/><path d="M615.72,319.07V284.94a33.7,33.7,0,0,0-.37-5A12.15,12.15,0,0,0,614,275.8a7.79,7.79,0,0,0-2.66-2.78,8.15,8.15,0,0,0-4.39-1.06,8.82,8.82,0,0,0-4.51,1.12,10.11,10.11,0,0,0-3.22,3,13.08,13.08,0,0,0-1.91,4.27,19.68,19.68,0,0,0-.62,5v33.76H576.41V283.46q0-5.31-2.1-8.41c-1.41-2.05-3.63-3.09-6.68-3.09a8.58,8.58,0,0,0-7.48,3.84,16.07,16.07,0,0,0-2.66,9.39v33.88H537.1V257h19.65v8.53H557a21.67,21.67,0,0,1,2.78-3.84,17.72,17.72,0,0,1,4-3.27,22,22,0,0,1,11.62-3.15A21.93,21.93,0,0,1,586.73,258a18.65,18.65,0,0,1,7.23,7.78,23.54,23.54,0,0,1,7.91-7.66,22.71,22.71,0,0,1,11.74-2.84,22.19,22.19,0,0,1,10.57,2.28A19.67,19.67,0,0,1,631,263.5a24.37,24.37,0,0,1,3.77,8.16,34.62,34.62,0,0,1,1.18,8.83v38.58Z" fill="#fff"/><path d="M728.82,319.07V284.94a27.12,27.12,0,0,0-.43-4.94,13.56,13.56,0,0,0-1.42-4.14,7.36,7.36,0,0,0-2.78-2.84,8.83,8.83,0,0,0-4.51-1.06,10.25,10.25,0,0,0-4.76,1.06,9.52,9.52,0,0,0-3.4,2.9,13.14,13.14,0,0,0-2,4.26,18.14,18.14,0,0,0-.68,5v33.9H688.4V257h19.66v8.53h.24a20.15,20.15,0,0,1,2.91-3.9,17.27,17.27,0,0,1,4.2-3.27,26.32,26.32,0,0,1,5.25-2.23,21,21,0,0,1,6.06-.86,22.83,22.83,0,0,1,10.51,2.22,20.15,20.15,0,0,1,7,5.75,22.62,22.62,0,0,1,3.83,8.1,36.34,36.34,0,0,1,1.18,9.14v38.58Z" fill="#fff"/><path d="M801.88,319.07V257h20.27v62.06Z" fill="#fff"/><path d="M632.15,399.52a22.57,22.57,0,0,0-5.81-4,15.93,15.93,0,0,0-7.05-1.61,12.42,12.42,0,0,0-5.25,1.11,3.91,3.91,0,0,0-2.41,3.84,3.81,3.81,0,0,0,2.66,3.72,58.13,58.13,0,0,0,8.59,2.48,45.79,45.79,0,0,1,7,2.11,24.67,24.67,0,0,1,6.37,3.59,17.2,17.2,0,0,1,4.57,5.45,16.07,16.07,0,0,1,1.73,7.68,18.5,18.5,0,0,1-8.47,16.36,26,26,0,0,1-8.46,3.59,40.31,40.31,0,0,1-9.4,1.12,46.36,46.36,0,0,1-14.77-2.42,30.94,30.94,0,0,1-12-7.12l11.37-12a22.87,22.87,0,0,0,6.68,5,18.5,18.5,0,0,0,8.4,2,10.92,10.92,0,0,0,4.88-1.18,4.22,4.22,0,0,0,2.41-4.15,4.44,4.44,0,0,0-3-4.21,53.05,53.05,0,0,0-9.27-2.85,47.51,47.51,0,0,1-6.43-2,20.39,20.39,0,0,1-5.75-3.34,16.64,16.64,0,0,1-4.14-5.21A16,16,0,0,1,593,400a18.11,18.11,0,0,1,2.35-9.48,20,20,0,0,1,6.06-6.38,26.79,26.79,0,0,1,8.22-3.66,35.58,35.58,0,0,1,9-1.18,43.35,43.35,0,0,1,13.54,2.17A29.34,29.34,0,0,1,643.27,388Z" fill="#fff"/><path d="M461,255.2A32.84,32.84,0,1,0,493.85,288,32.84,32.84,0,0,0,461,255.2Zm-.11,48.66a15.83,15.83,0,0,1,0-31.65c8.74,0,15,7.09,15,15.83S469.64,303.86,460.9,303.86Z" fill="#fff"/><path d="M734.92,423.2A14.46,14.46,0,0,1,724,428a15.83,15.83,0,1,1,0-31.66,14.46,14.46,0,0,1,10.9,4.79L746.3,388a32.84,32.84,0,1,0,0,48.43L734.92,423.2Z" fill="#fff"/><circle cx="812.02" cy="350.13" r="11.94" fill="#fff"/><path d="M822.16,381.16v62.07H801.89V381.16Z" fill="#fff"/></svg>