<?xml version="1.0" encoding="utf-8"?>
<!-- Generator: Adobe Illustrator 23.0.2, SVG Export Plug-In . SVG Version: 6.00 Build 0)  -->
<svg version="1.1" id="Layer_1" xmlns="http://www.w3.org/2000/svg" xmlns:xlink="http://www.w3.org/1999/xlink" x="0px" y="0px"
	 viewBox="0 0 1250 703" style="enable-background:new 0 0 1250 703;" xml:space="preserve">
<title>nvidia-partner-boxx-logo</title>
<g id="LOGO">
	<g>
		<path d="M256.4,240.8c6.8,0.6,8.6,0,40.8,0c25.2,0,58.5-7.1,94.7,9.6c16,7.3,26.9,24.2,26.7,38.8c-0.5,42.3-56.4,56.3-56.4,56.3
			s70.2,14.7,68,61.1c-0.9,18.6-9.2,38.1-37.2,48.6c-31.4,11.8-119.7,4.3-136.7,5.3L256.4,240.8z M297,265.1
			c-0.8,13.2-0.2,56.1,0.2,69.9c23.8,1,30.4,0.7,42.3-2c19.7-4.5,37-17.1,36.8-36.3C375.8,256.4,305.7,264.1,297,265.1L297,265.1z
			 M319.4,357.7c-7.2-0.1-12-1.1-22.2-0.5c-0.4,15.7-0.8,63,0,78.1c59.8,2.9,89.2-4.7,89.2-34.8
			C386.4,382.9,351.1,358.2,319.4,357.7z"/>
		<path d="M704.2,348.7c0,68.3-52.6,119.4-137.2,119.4c-67.8,0-133.9-37.4-133.9-115.5c0-69.6,50.2-117.7,137.4-117.7
			C625,234.9,704.2,267.6,704.2,348.7z M567.6,441.9c54,0,89.4-31.4,89.4-91.5c0-58.9-38.6-89.9-88.4-89.9c-50.4,0-91,27-91,91.8
			C477.6,391.1,498.2,441.9,567.6,441.9z"/>
		<polygon points="863.8,280.4 898.2,240.9 859.9,240.9 844.6,258.4 		"/>
		<polygon points="795.7,422.4 761.3,461.8 799.6,461.8 814.9,444.3 		"/>
		<polygon points="898.2,462 804.7,348.1 819.7,331 801.3,307.9 786,325.3 716.8,240.9 669.1,240.9 761.2,353.7 666.4,462 
			705.4,462 779.9,376.5 849.8,462 		"/>
		<polygon points="993.6,462 899.8,347.6 993,240.9 954,240.9 881,324.8 812.2,240.9 764.5,240.9 856.3,353.2 842,369.6 
			860.4,392.7 875,376 945.3,462 		"/>
	</g>
</g>
</svg>
