<?xml version="1.0" encoding="UTF-8"?>
<svg id="PASTE_LOGO_HERE" data-name="PASTE LOGO HERE" xmlns="http://www.w3.org/2000/svg" xmlns:xlink="http://www.w3.org/1999/xlink" viewBox="0 0 1250 703">
  <defs>
    <style>
      .cls-1, .cls-2 {
        fill: none;
        isolation: isolate;
        stroke: #4c4b3d;
        stroke-miterlimit: 10;
        stroke-width: .17px;
      }

      .cls-1, .cls-3 {
        opacity: .2;
      }

      .cls-4 {
        fill: #900;
      }

      .cls-5 {
        fill: url(#linear-gradient-4);
      }

      .cls-6 {
        fill: url(#linear-gradient-3);
      }

      .cls-7 {
        fill: url(#linear-gradient-2);
      }

      .cls-8 {
        fill: #db0505;
      }

      .cls-9 {
        fill: url(#linear-gradient);
      }

      .cls-10 {
        fill: #efe7c5;
      }

      .cls-11 {
        fill: #510303;
      }

      .cls-2 {
        opacity: .62;
      }

      .cls-12 {
        fill: #666;
      }

      .cls-13 {
        fill: #f7f3e2;
      }

      .cls-14 {
        fill: #4c4b3d;
      }
    </style>
    <linearGradient id="linear-gradient" x1="200.33" y1="304.97" x2="200.33" y2="408.6" gradientTransform="translate(0 708) scale(1 -1)" gradientUnits="userSpaceOnUse">
      <stop offset=".21" stop-color="#a09f7d"/>
      <stop offset=".26" stop-color="#b6b595"/>
      <stop offset=".35" stop-color="#d0cfb1"/>
      <stop offset=".44" stop-color="#e5e3c7"/>
      <stop offset=".54" stop-color="#f4f2d7"/>
      <stop offset=".66" stop-color="#fcfae0"/>
      <stop offset=".82" stop-color="#fffde3"/>
    </linearGradient>
    <linearGradient id="linear-gradient-2" x1="243.62" y1="444.86" x2="355.46" y2="523.16" gradientTransform="translate(0 708) scale(1 -1)" gradientUnits="userSpaceOnUse">
      <stop offset="0" stop-color="#f6f5ec"/>
      <stop offset=".29" stop-color="#d9d9d1"/>
      <stop offset=".56" stop-color="#b9bab4"/>
    </linearGradient>
    <linearGradient id="linear-gradient-3" x1="235.8" y1="378.31" x2="305.92" y2="378.31" gradientTransform="translate(0 708) scale(1 -1)" gradientUnits="userSpaceOnUse">
      <stop offset="0" stop-color="#b9bab4"/>
      <stop offset=".1" stop-color="#cecec7"/>
      <stop offset=".22" stop-color="#e0e0d8"/>
      <stop offset=".36" stop-color="#edece3"/>
      <stop offset=".55" stop-color="#f4f3ea"/>
      <stop offset=".98" stop-color="#f6f5ec"/>
    </linearGradient>
    <linearGradient id="linear-gradient-4" x1="211.56" y1="399.87" x2="211.56" y2="341.81" gradientTransform="translate(0 708) scale(1 -1)" gradientUnits="userSpaceOnUse">
      <stop offset="0" stop-color="#fffde3"/>
      <stop offset=".07" stop-color="#efeed2"/>
      <stop offset=".23" stop-color="#d3d1b4"/>
      <stop offset=".4" stop-color="#bcbb9b"/>
      <stop offset=".57" stop-color="#acab8a"/>
      <stop offset=".77" stop-color="#a3a280"/>
      <stop offset="1" stop-color="#a09f7d"/>
    </linearGradient>
  </defs>
  <g>
    <path class="cls-12" d="M430.58,325.73l-5.36,10.97c-6.12-3.83-13.52-6.12-19.64-6.12s-9.95,2.04-9.95,6.89c0,12.5,36.48,5.87,36.23,30.61,0,14.03-12.5,20.41-26.28,20.41-9.95,0-20.67-3.32-27.55-9.44l5.36-10.46c5.87,5.36,15.31,8.42,22.96,8.42,6.38,0,11.23-2.3,11.23-7.4,0-14.03-35.97-6.12-35.97-30.87,0-13.78,11.99-19.9,25.26-19.9,8.42-.26,17.35,2.55,23.73,6.89Z"/>
    <path class="cls-12" d="M509.42,359.15h-51.53c2.3,10.46,10.46,17.09,21.18,17.09,7.4,0,14.29-2.81,19.39-7.91l7.91,8.42c-6.63,7.4-16.33,11.48-28.32,11.48-21.18,0-34.95-14.03-34.95-34.44s14.29-34.7,34.44-34.7c23.98-.26,33.68,15.31,31.89,40.05ZM496.41,348.44c-.51-10.97-7.91-17.86-19.13-17.86s-18.37,6.89-20.15,17.86h39.29Z"/>
    <path class="cls-12" d="M536.46,333.13c4.59-9.18,12.76-14.03,23.73-14.03v14.03c-13.78-.77-22.45,7.4-23.73,19.13v35.72h-14.8v-68.37h14.8v13.52Z"/>
    <path class="cls-12" d="M597.18,387.73l-26.53-68.37h15.31l19.13,53.83,18.88-53.83h14.8l-26.28,68.37h-15.31Z"/>
    <path class="cls-12" d="M709.18,359.15h-51.53c2.3,10.46,10.46,17.09,21.18,17.09,7.4,0,14.29-2.81,19.39-7.91l7.91,8.42c-6.63,7.4-16.33,11.48-28.32,11.48-21.18,0-34.95-14.03-34.95-34.44s14.29-34.7,34.44-34.7c23.98-.26,33.68,15.31,31.89,40.05ZM696.17,348.44c-.51-10.97-7.91-17.86-19.13-17.86s-18.37,6.89-20.15,17.86h39.29Z"/>
    <path class="cls-12" d="M736.73,332.88c4.59-9.18,12.76-14.03,23.73-14.03v14.03c-13.78-.77-22.45,7.4-23.73,19.13v35.72h-14.8v-68.37h14.8v13.52Z"/>
    <path class="cls-12" d="M795.41,313.74v8.16h16.58v10.97h-16.58v54.85h-14.8v-54.85h-8.93v-10.97h8.93v-6.63c0-15.82,11.74-23.47,23.47-23.47,5.61,0,10.97,1.53,15.31,4.85l-5.61,11.23c-2.81-2.04-6.38-3.32-9.44-3.32-4.85,0-8.93,2.81-8.93,9.18Z"/>
    <path class="cls-12" d="M866.33,379.31c-4.85,6.12-12.76,8.93-22.71,8.93-14.8,0-23.98-9.18-23.98-21.18s9.44-20.41,25.77-20.67h20.67v-2.04c0-8.67-5.61-13.78-16.33-13.78-6.63,0-13.27,2.3-20.15,6.89l-6.12-10.2c9.44-5.61,16.33-8.67,29.34-8.67,17.6,0,27.55,8.93,27.55,23.98l.26,44.9h-14.54v-8.16h.26ZM866.33,363.75v-6.38h-18.62c-9.69,0-14.03,2.55-14.03,9.18,0,6.12,5.1,10.2,13.27,10.2,10.46,0,18.62-5.61,19.39-13.01Z"/>
    <path class="cls-12" d="M907.92,332.88c4.59-9.18,12.76-14.03,23.73-14.03v14.03c-13.78-.77-22.45,7.4-23.73,19.13v35.72h-14.8v-68.37h14.8v13.52Z"/>
    <path class="cls-12" d="M1058.19,345.12v42.61h-14.8v-38.52c0-10.46-6.12-16.58-16.07-16.58-11.74.51-18.88,9.44-18.88,21.43v33.68h-14.8v-38.52c0-10.46-6.12-16.58-16.07-16.58-11.74.51-19.13,9.44-19.13,21.43v33.68h-14.54v-68.37h14.54v13.27c4.85-9.69,13.52-13.78,24.75-13.78,12.25,0,20.67,6.12,23.73,16.33,4.34-11.48,13.52-16.33,26.02-16.33,15.82,0,25.26,9.95,25.26,26.28Z"/>
  </g>
  <polygon class="cls-10" points="305.83 312.98 295.88 308.13 278.02 323.18 287.2 328.28 305.83 312.98"/>
  <polygon class="cls-14" points="288.99 372.42 287.2 328.28 278.79 323.18 281.34 368.59 288.99 372.42"/>
  <polygon class="cls-10" points="242.3 365.28 264.24 380.84 287.2 359.41 271.39 349.2 242.3 365.28"/>
  <polygon class="cls-14" points="264.24 380.84 254.04 374.21 257.61 416.81 264.24 419.62 264.24 380.84"/>
  <polygon class="cls-9" points="165 356.09 235.16 299.2 235.67 355.58 211.18 403.03 165 356.09"/>
  <polygon class="cls-10" points="238.73 300.99 186.18 328.03 235.92 369.61 285.67 330.32 238.73 300.99"/>
  <polygon class="cls-14" points="235.92 366.04 233.37 366.04 187.2 327.52 211.69 316.29 235.67 320.89 288.99 287.21 305.83 293.08 235.92 366.04"/>
  <polygon class="cls-13" points="287.2 328.28 305.83 312.98 305.83 369.36 264.24 419.62 264.24 380.84 287.2 359.41 287.2 328.28"/>
  <polygon class="cls-10" points="208.12 381.86 242.56 370.38 262.46 382.88 235.92 405.84 208.12 381.86"/>
  <polygon class="cls-7" points="235.92 251.24 165.26 268.33 165.26 268.33 236.18 312.47 306.08 269.1 235.92 251.24"/>
  <polygon class="cls-4" points="165 327.52 186.18 347.67 185.67 281.09 165.26 268.33 165 327.52"/>
  <polygon class="cls-8" points="235.92 395.64 235.92 369.61 261.95 349.2 285.67 330.32 285.67 356.6 235.92 400.48 235.92 395.64"/>
  <polygon class="cls-11" points="185.67 304.81 192.04 306.6 189.24 326.75 186.18 328.03 185.67 304.81"/>
  <polygon class="cls-6" points="305.83 293.08 235.92 342.83 235.92 340.53 235.92 366.3 235.92 366.3 305.83 310.43 305.83 293.08"/>
  <polygon class="cls-5" points="187.2 308.13 187.2 325.73 235.92 366.04 235.92 342.83 187.2 308.13"/>
  <polygon class="cls-14" points="235.92 400.48 232.86 401.5 210.41 381.09 212.71 380.33 235.92 400.48"/>
  <g class="cls-3">
    <line class="cls-2" x1="262.46" y1="380.07" x2="262.46" y2="394.36"/>
    <line class="cls-2" x1="261.95" y1="349.2" x2="262.46" y2="377.01"/>
    <line class="cls-2" x1="261.95" y1="322.16" x2="261.95" y2="345.63"/>
    <polyline class="cls-2" points="192.3 261.7 262.71 296.14 262.46 320.89"/>
    <line class="cls-2" x1="285.67" y1="360.68" x2="285.67" y2="393.6"/>
    <polyline class="cls-2" points="186.43 399.97 186.18 377.52 198.17 367.57"/>
    <polyline class="cls-2" points="211.69 271.14 185.67 280.83 186.18 356.86"/>
    <line class="cls-2" x1="253.53" y1="255.57" x2="233.88" y2="262.72"/>
    <line class="cls-2" x1="208.12" y1="399.97" x2="208.12" y2="423.7"/>
    <line class="cls-2" x1="208.12" y1="294.61" x2="208.12" y2="318.33"/>
    <polyline class="cls-2" points="215.51 256.08 285.67 281.6 285.67 281.6"/>
  </g>
  <polygon class="cls-10" points="187.2 308.13 192.04 306.6 235.92 337.21 300.98 291.29 305.83 293.08 235.92 342.83 187.2 308.13"/>
  <polygon class="cls-8" points="235.92 339.76 285.93 304.81 306.08 290.53 306.08 269.1 235.92 312.47 235.92 339.76"/>
  <polygon class="cls-4" points="165.26 268.33 165 338.23 235.92 400.48 235.92 369.61 186.18 328.03 185.67 304.81 235.67 339.76 235.92 312.47 165.26 268.33"/>
  <line class="cls-1" x1="185.67" y1="281.09" x2="185.67" y2="304.81"/>
  <line class="cls-1" x1="186.18" y1="356.86" x2="186.18" y2="328.03"/>
  <line class="cls-1" x1="262.71" y1="296.14" x2="261.95" y2="320.89"/>
  <line class="cls-1" x1="285.93" y1="304.81" x2="285.67" y2="281.6"/>
  <line class="cls-1" x1="285.67" y1="307.36" x2="285.67" y2="326.75"/>
  <polygon class="cls-14" points="235.67 339.76 233.37 339.76 188.22 307.62 189.49 307.36 235.67 339.76"/>
  <path class="cls-4" d="M235.92,451.51v-45.67l-26.79-23.47c-.26-.26-.77,0-.77.26v16.07c0,.26-.51.51-.77.26l-41.84-42.1c-.26-.26-.77,0-.77.26v19.39l68.37,74.24"/>
  <path class="cls-8" d="M238.22,450.74c-.77,1.02-2.3,1.02-2.3,1.02v-45.92l26.79-22.96v38.52l-24.49,29.34"/>
  <polygon class="cls-4" points="165 359.15 165 356.09 167.04 358.39 165 359.15"/>
  <polygon class="cls-4" points="208.12 383.65 208.12 381.86 209.39 382.88 208.12 383.65"/>
  <path class="cls-4" d="M235.92,451.76c-1.79,0-3.32-1.53-3.32-3.32s1.53-3.32,3.32-3.32"/>
  <path class="cls-8" d="M235.92,445.13c1.79,0,3.32,1.53,3.32,3.32s-1.53,3.32-3.32,3.32"/>
  <g>
    <path class="cls-12" d="M1068.56,322.58h-3.25v-1.16h7.91v1.16h-3.27v9.51h-1.39v-9.51Z"/>
    <path class="cls-12" d="M1083.39,327.4c-.08-1.48-.18-3.29-.17-4.61h-.04c-.37,1.24-.81,2.59-1.34,4.05l-1.89,5.18h-1.04l-1.74-5.09c-.51-1.51-.92-2.88-1.22-4.14h-.04c-.04,1.33-.11,3.11-.21,4.71l-.28,4.58h-1.31l.74-10.68h1.76l1.82,5.17c.44,1.31.8,2.48,1.08,3.6h.04c.28-1.08.66-2.26,1.13-3.6l1.91-5.17h1.76l.66,10.68h-1.36l-.26-4.69Z"/>
  </g>
</svg>