<?xml version="1.0" encoding="UTF-8"?>
<svg id="Artwork" xmlns="http://www.w3.org/2000/svg" viewBox="0 0 553.1 200">
  <g>
    <path d="M313.49,121.22h7.13c1.05,5.67,5.67,11.03,14.91,11.03,8.61,0,13.02-3.57,13.02-8.72,0-4.62-3.15-7.88-10.29-9.45l-6.93-1.47c-7.67-1.68-15.23-4.83-15.23-14.28,0-8.61,7.98-14.81,18.59-14.81,11.87,0,18.24,6.2,20.04,15.12h-6.7c-.95-3.78-4.73-9.35-13.44-9.35-7.98,0-11.76,4.1-11.76,8.3s2.2,6.72,9.24,8.19l6.93,1.47c7.56,1.78,16.7,5.67,16.7,15.76,0,8.72-6.72,15.12-20.27,15.12-11.87,0-19.32-5.1-21.93-16.91h0Z"/>
    <path d="M281.44,83.51c-15.08,0-27.31,12.23-27.31,27.31s12.23,27.31,27.31,27.31,27.31-12.23,27.31-27.31-12.23-27.31-27.31-27.31ZM281.44,131.67c-10.84,0-19.63-9.34-19.63-20.86s8.79-20.86,19.63-20.86,19.63,9.34,19.63,20.86-8.79,20.86-19.63,20.86Z"/>
    <path d="M475.79,83.51c-15.08,0-27.31,12.23-27.31,27.31s12.23,27.31,27.31,27.31,27.31-12.23,27.31-27.31-12.23-27.31-27.31-27.31ZM475.79,131.67c-10.84,0-19.63-9.34-19.63-20.86s8.79-20.86,19.63-20.86,19.63,9.34,19.63,20.86-8.79,20.86-19.63,20.86Z"/>
    <path d="M365.71,136.76v-51.77h6.72v8.82c1.47-3.36,5.98-10.29,16.38-10.29,8.3,0,14.49,4.83,16.7,12.18,1.78-5.15,6.62-12.18,17.64-12.18,11.87,0,18.48,7.25,18.48,19.22v34.03h-6.93v-32.13c0-10.5-5.46-14.81-13.13-14.81-14.07,0-14.6,14.28-14.6,21v25.94h-6.82v-31.93c0-10.71-5.46-15.02-12.92-15.02-14.28,0-14.6,14.28-14.6,22.05v24.89h-6.93,0Z"/>
    <path d="M241.26,110.5c-4.08,12.33-15.13,21.18-28.14,21.18-16.47,0-29.81-14.18-29.81-31.68s13.35-31.68,29.81-31.68c13,0,24.06,8.84,28.14,21.18h8.52c-4.56-15.95-19.24-27.62-36.66-27.62-21.06,0-38.12,17.07-38.12,38.12s17.07,38.12,38.12,38.12c17.41,0,32.1-11.68,36.66-27.62h-8.52Z"/>
  </g>
  <g>
    <path d="M129.18,100c0,3.71-.72,7.25-2.04,10.5h12.09c.93-3.34,1.42-6.86,1.42-10.5s-.5-7.16-1.42-10.5h-12.09c1.31,3.25,2.04,6.79,2.04,10.5Z"/>
    <path d="M100.56,139.65c-18.47,0-34.02-12.35-38.67-29.15h12.09c4.22,10.43,14.53,17.8,26.58,17.8s22.36-7.37,26.58-17.8h-11.86c-3.3,4.51-8.66,7.45-14.72,7.45-10.02,0-18.15-8.04-18.15-17.95s8.13-17.95,18.15-17.95c6.06,0,11.42,2.94,14.72,7.45h11.86c-4.22-10.43-14.53-17.8-26.58-17.8s-22.36,7.37-26.58,17.8h-12.09c4.65-16.8,20.2-29.15,38.67-29.15s34.02,12.35,38.67,29.15h10.77c-4.88-22.57-25.16-39.5-49.44-39.5-27.92,0-50.56,22.39-50.56,50s22.64,50,50.56,50c24.28,0,44.56-16.93,49.44-39.5h-10.77c-4.65,16.8-20.2,29.15-38.67,29.15Z"/>
  </g>
</svg>