<svg viewBox="0 0 48 48" fill="none" xmlns="http://www.w3.org/2000/svg">
<g clip-path="url(#clip0_24_450)">
<g clip-path="url(#clip1_24_450)">
<path d="M43.5 27L41.2402 18.5H32.5V10.5H5.5V33.5H4.5V34.5H9.55054C9.66707 35.332 10.0804 36.0938 10.7142 36.6451C11.3481 37.1964 12.1599 37.5 13 37.5C13.8401 37.5 14.6519 37.1964 15.2858 36.6451C15.9196 36.0938 16.3329 35.332 16.4495 34.5H17.5505C17.6671 35.332 18.0804 36.0938 18.7142 36.6451C19.3481 37.1964 20.1599 37.5 21 37.5C21.8401 37.5 22.6519 37.1964 23.2858 36.6451C23.9196 36.0938 24.3329 35.332 24.4495 34.5H34.5505C34.6671 35.332 35.0804 36.0938 35.7142 36.6451C36.3481 37.1964 37.1599 37.5 38 37.5C38.8401 37.5 39.6519 37.1964 40.2858 36.6451C40.9196 36.0938 41.3329 35.332 41.4495 34.5H43.5V27ZM42.3484 26.5H36.4917L35.1519 21.5H41.0085L42.3484 26.5ZM21 30.5C20.1606 30.5024 19.3501 30.8069 18.7167 31.3578C18.0833 31.9086 17.6694 32.669 17.5505 33.5H16.4495C16.3329 32.668 15.9196 31.9062 15.2858 31.3549C14.6519 30.8036 13.8401 30.5 13 30.5C12.1599 30.5 11.3481 30.8036 10.7142 31.3549C10.0804 31.9062 9.66707 32.668 9.55054 33.5H8.65186L9.72363 29.5H24.2764L25.3481 33.5H24.4495C24.3306 32.669 23.9167 31.9086 23.2833 31.3578C22.6499 30.8069 21.8394 30.5024 21 30.5ZM13 36.5C12.5055 36.5 12.0222 36.3534 11.6111 36.0787C11.2 35.804 10.8795 35.4135 10.6903 34.9567C10.5011 34.4999 10.4516 33.9972 10.548 33.5123C10.6445 33.0273 10.8826 32.5819 11.2322 32.2322C11.5819 31.8826 12.0273 31.6445 12.5123 31.548C12.9972 31.4516 13.4999 31.5011 13.9567 31.6903C14.4135 31.8795 14.804 32.1999 15.0787 32.6111C15.3534 33.0222 15.5 33.5055 15.5 34C15.4993 34.6628 15.2357 35.2983 14.767 35.767C14.2983 36.2357 13.6628 36.4993 13 36.5ZM21 36.5C20.5055 36.5 20.0222 36.3534 19.6111 36.0787C19.2 35.804 18.8795 35.4135 18.6903 34.9567C18.5011 34.4999 18.4516 33.9972 18.548 33.5123C18.6445 33.0273 18.8826 32.5819 19.2322 32.2322C19.5819 31.8826 20.0273 31.6445 20.5123 31.548C20.9972 31.4516 21.4999 31.5011 21.9567 31.6903C22.4135 31.8795 22.804 32.1999 23.0787 32.6111C23.3534 33.0222 23.5 33.5055 23.5 34C23.4993 34.6628 23.2357 35.2983 22.767 35.767C22.2983 36.2357 21.6628 36.4993 21 36.5ZM31.5 33.5H26.3838L25.0439 28.5H8.95605L7.61621 33.5H6.5V11.5H31.5V33.5ZM38 36.5C37.5055 36.5 37.0222 36.3534 36.6111 36.0787C36.1999 35.804 35.8795 35.4135 35.6903 34.9567C35.5011 34.4999 35.4516 33.9972 35.548 33.5123C35.6445 33.0273 35.8826 32.5819 36.2322 32.2322C36.5819 31.8826 37.0273 31.6445 37.5123 31.548C37.9972 31.4516 38.4999 31.5011 38.9567 31.6903C39.4135 31.8795 39.804 32.1999 40.0787 32.6111C40.3534 33.0222 40.5 33.5055 40.5 34C40.4993 34.6628 40.2357 35.2983 39.767 35.767C39.2983 36.2357 38.6628 36.4993 38 36.5ZM41.4495 33.5C41.3329 32.668 40.9196 31.9062 40.2858 31.3549C39.6519 30.8036 38.8401 30.5 38 30.5C37.1599 30.5 36.3481 30.8036 35.7142 31.3549C35.0804 31.9062 34.6671 32.668 34.5505 33.5H32.5V19.5H40.4727L40.7407 20.5H33.8481L35.7241 27.5H42.5V33.5H41.4495Z" fill="currentColor"/>
</g>
</g>
<defs>
<clipPath id="clip0_24_450">
<rect width="48" height="48" fill="currentColor"/>
</clipPath>
<clipPath id="clip1_24_450">
<rect width="48" height="48" fill="currentColor"/>
</clipPath>
</defs>
</svg>