<?xml version="1.0" encoding="UTF-8"?><svg id="LOGO" xmlns="http://www.w3.org/2000/svg" viewBox="0 0 1250 703"><defs><style>.cls-1{fill:#2b71b9;}.cls-1,.cls-2,.cls-3,.cls-4{stroke-width:0px;}.cls-2{fill:#4d4d4f;}.cls-3{fill:#231f20;}.cls-4{fill:#616365;}</style></defs><path class="cls-4" d="m345.42697,350.48726v44.27453h-94.12425v-94.11145h94.12425v44.26825h46.48656l.01928-62.59522c0-15.57482-12.61034-28.17888-28.17873-28.17888h-130.79778c-15.55554,0-28.1659,12.60406-28.1659,28.17888l.01288,130.75282c0,15.56187,12.64892,28.19811,28.19161,28.19811h130.71416c15.56844,0,28.18521-12.63624,28.18521-28.19811l.01928-62.58894h-46.48656Z"/><rect class="cls-1" x="256.84203" y="306.16877" width="83.04436" height="83.05066"/><path class="cls-4" d="m453.45656,333.68162c-8.65583-8.6437-12.99877-19.7587-12.98074-33.00964-.01803-13.32856,4.29489-24.47358,12.96271-33.06968,8.77582-8.72168,22.32638-12.89068,40.42386-12.89068,10.65328,0,21.28262,1.0676,31.83399,3.2991l1.27766.24603v17.17976l-2.06349-.61178c-4.99674-1.50585-9.07572-2.62763-12.2069-3.30532-3.14922-.68391-6.14846-1.22357-8.94977-1.55344-2.80127-.32987-5.59658-.50415-8.3979-.50415-10.86924.00622-18.39134,3.01755-23.02819,8.79381-4.8168,5.93845-7.21021,13.23263-7.22819,22.18241.01799,9.38179,2.75331,16.71186,8.13397,22.3684,5.33266,5.57269,13.34663,8.47602,24.35386,8.48187,9.20171,0,18.55934-2.01548,28.09696-6.10027l2.19543-.9358v16.44789l-.98976.38992c-4.33091,1.64351-8.10395,2.77738-11.37916,3.4071-3.20917.62972-6.83828,1.12765-10.91126,1.50548-4.01898.43202-8.06194.62387-11.95497.62387-17.23967.03002-30.40036-4.2349-39.18812-12.94486"/><path class="cls-4" d="m578.23718,346.3757c-9.04574,0-16.98773-1.63728-23.80802-4.9426-6.79631-3.2991-12.04499-8.13406-15.6081-14.39652-3.53909-6.22036-5.33266-13.28645-5.33266-21.09064,0-7.76209,1.79357-14.82232,5.33266-21.0727,3.56311-6.27418,8.85381-11.10914,15.68609-14.41446,6.82629-3.31118,14.76228-4.91258,23.73004-4.90672,8.92575-.00586,16.83776,1.59555,23.69402,4.90672,6.82629,3.30532,12.09895,8.14029,15.67405,14.41446,3.56311,6.25038,5.33865,13.31062,5.33865,21.0727,0,7.80419-1.77554,14.87028-5.33865,21.09064-3.5751,6.26246-8.8058,11.09743-15.60206,14.39652-6.77832,3.2991-14.72031,4.9426-23.74802,4.9426h-.01799Zm0-13.3227c7.85201-.02966,13.26865-2.68731,16.99368-8.05571,3.83304-5.56684,5.74656-11.84724,5.74656-19.07516,0-7.25245-1.93151-13.54457-5.75255-19.0693-3.75505-5.35083-9.18368-7.96601-16.98768-8.00189-7.84007.03588-13.28668,2.66315-17.03574,8.00189-3.80306,5.52473-5.73456,11.81685-5.73456,19.0693,0,7.22792,1.90153,13.50832,5.72257,19.07516,3.70105,5.3684,9.16569,8.02606,17.04773,8.05571"/><path class="cls-4" d="m635.9894,344.52899v-77.13464h34.47334c6.60433,0,12.72281.69599,16.45988,2.23735,3.66508,1.5117,6.62231,3.88123,8.77578,7.0185,2.15946,3.13727,3.2332,6.74208,3.2332,10.65918,0,4.69071-1.5836,9.16578-4.61287,13.22055-2.6993,3.6114-6.37637,6.45467-10.92325,8.5119l28.60683,35.48716h-26.67528l-21.15668-30.26228h-7.31817v30.26228h-20.86278Zm23.34616-43.56118c7.14417.00622,11.79301-1.40956,14.05443-3.70695,2.51936-2.53135,3.67707-5.18278,3.67707-8.24792-.01799-2.63935-.89374-4.45091-2.78928-5.96261-1.62561-1.38539-6.02247-2.37538-12.81279-2.35122h-4.61282v20.2687h2.48338Z"/><polygon class="cls-4" points="719.50403 344.52753 719.50403 267.39325 779.7168 267.39325 779.7168 280.7456 740.40273 280.7456 740.40273 298.17139 774.96 298.17139 774.96 311.54205 740.40273 311.54205 740.40273 330.83908 779.87881 330.83908 779.87881 344.52753 719.50403 344.52753"/><polygon class="cls-4" points="983.58759 344.52753 983.58759 267.39325 1043.8124 267.39325 1043.8124 280.7456 1004.43229 280.7456 1004.43229 298.17139 1039.00764 298.17139 1039.00764 311.54205 1004.43229 311.54205 1004.43229 330.83908 1043.93239 330.83908 1043.93239 344.52753 983.58759 344.52753"/><path class="cls-4" d="m791.29632,343.50349v-18.07309l2.1234.76775c7.55212,2.74113,13.18467,4.37292,16.71186,4.87048,3.701.55211,7.06618.82194,10.11943.82194,5.47659,0,9.37566-1.12179,11.73301-3.01719,2.51936-1.99754,3.57515-4.09101,3.60508-6.69448-.01199-2.00926-.64785-3.72489-2.00944-5.38048-1.19373-1.46374-4.94874-3.92919-10.95327-6.85045l-6.5743-3.14899c-9.4477-4.58893-15.95006-8.80003-19.53711-12.94486-3.5811-4.10895-5.42863-9.00359-5.41664-14.42618-.01199-6.84459,3.10121-12.831,8.98575-17.55759,5.99849-4.86499,14.42636-7.16238,25.09763-7.16238,7.978,0,16.89776.9779,26.78928,2.94543l1.26567.24567v17.01171l-2.03946-.65975c-9.97546-3.20903-17.83951-4.79286-23.46007-4.78664-4.70289-.00622-8.10395.90578-10.25142,2.4713-2.27341,1.68561-3.16125,3.33498-3.17919,5.39256.00595,1.54758.58185,2.96337,1.96743,4.48093,1.10376,1.3378,4.88878,3.74906,10.90531,6.66446l7.03021,3.365c10.82128,5.27284,17.77955,9.80173,21.13869,14.06665,3.08922,4.13275,4.69081,8.86557,4.66078,14.04835.03002,7.39011-3.31109,13.84442-9.69949,18.97338-6.53238,5.2604-16.53191,7.68996-29.99849,7.70204-7.98999,0-18.49934-1.206-29.01464-3.12556"/><rect class="cls-4" x="872.03128" y="267.39471" width="20.8987" height="77.12842"/><polygon class="cls-4" points="927.84838 344.52753 927.84838 280.7456 900.00935 280.7456 900.00935 267.39325 976.53807 267.39325 976.53807 280.7456 948.71111 280.7456 948.71111 344.52753 927.84838 344.52753"/><rect class="cls-2" x="440.29253" y="375.76479" width="603.8546" height="2.27352"/><path class="cls-3" d="m465.33887,410.22585h3.54669l12.5953,31.73833h-3.27387l-3.41028-8.50296h-16.00558l-3.41028,8.50296h-3.04652l13.00453-31.73833Zm1.54599,3.00105l-6.9115,17.5061h13.77753l-6.86603-17.5061Z"/><path class="cls-3" d="m485.65551,424.23073c0-1.77335,0-3.59216-.18188-5.45645h2.77369v4.13781h.09094c.95488-2.09164,2.68275-4.68345,7.50261-4.68345,5.72927,0,7.91185,3.81951,7.91185,8.9122v14.82335h-2.86463v-14.09582c0-4.36516-1.54599-7.18432-5.50192-7.18432-5.22909,0-6.86603,4.59251-6.86603,8.45749v12.82265h-2.86463v-17.73345Z"/><path class="cls-3" d="m533.57111,410.22585h3.54669l12.5953,31.73833h-3.27387l-3.41028-8.50296h-16.00558l-3.41028,8.50296h-3.04652l13.00453-31.73833Zm1.54599,3.00105l-6.9115,17.5061h13.77753l-6.86603-17.5061Z"/><path class="cls-3" d="m581.89829,441.96418v-15.41446c0-3.27387-1.2277-5.86568-4.9108-5.86568-3.13746,0-6.22944,2.68275-6.22944,8.45749v12.82265h-2.86463v-15.41446c0-3.27387-1.2277-5.86568-4.9108-5.86568-3.13746,0-6.22944,2.68275-6.22944,8.45749v12.82265h-2.86463v-17.73345c0-1.77335,0-3.59216-.18188-5.45645h2.77369v3.91045l.09094.04547c.90941-1.59146,2.27352-4.50157,7.22979-4.50157,2.04617,0,5.41098.86394,6.1385,4.9108h.09094c1.04582-2.72822,3.77404-4.9108,7.41167-4.9108,4.68345,0,7.32073,3.27387,7.32073,7.77544v15.96011h-2.86463Z"/><path class="cls-3" d="m607.30526,441.23666c-2.0007.81847-4.59251,1.27317-6.72962,1.27317-7.6845,0-10.54913-5.18362-10.54913-12.14059,0-7.09338,3.91045-12.14059,9.77613-12.14059,6.54774,0,9.23049,5.27457,9.23049,11.50401v1.45505h-15.86917c0,4.9108,2.63728,8.86673,7.63903,8.86673,2.09164,0,5.13815-.86394,6.50227-1.72787v2.9101Zm-1.40958-12.50436c0-4.04686-1.63693-8.04826-5.91115-8.04826-4.22875,0-6.82056,4.22875-6.82056,8.04826h12.73171Z"/><path class="cls-3" d="m614.4841,423.95791c0-2.54634,0-3.50122-.18188-5.18362h2.86463v4.4561h.09094c1.04582-2.59181,3.00105-5.00174,5.95662-5.00174.68206,0,1.50052.13641,2.0007.27282v3.00105c-.59112-.18188-1.36411-.27282-2.09164-.27282-4.54704,0-5.77474,5.09268-5.77474,9.27596v11.45854h-2.86463v-18.00627Z"/><path class="cls-3" d="m632.48567,412.59031h-2.86463v-3.81951h2.86463v3.81951Zm-2.86463,6.18397h2.86463v23.1899h-2.86463v-23.1899Z"/><path class="cls-3" d="m654.80771,421.86627c-1.54599-.68206-3.40871-1.18223-4.9547-1.18223-5.59443,0-8.73031,4.04686-8.73031,9.68519,0,5.27457,3.18293,9.68519,8.41045,9.68519,1.81882,0,3.50279-.40923,5.23066-1.04582l.27282,2.68275c-1.95679.68206-3.77561.81847-5.95819.81847-7.45714,0-11.09399-5.6838-11.09399-12.14059,0-7.13885,4.59329-12.14059,11.45775-12.14059,2.77526,0,4.77596.63659,5.59443.90941l-.22892,2.72822Z"/><path class="cls-3" d="m673.21851,438.23561h-.09094c-1.27317,2.77369-4.50157,4.27422-7.3662,4.27422-6.59321,0-7.63903-4.4561-7.63903-6.54774,0-7.77544,8.27561-8.1392,14.2777-8.1392h.54564v-1.18223c0-3.95592-1.40958-5.95662-5.27457-5.95662-2.40993,0-4.68345.54564-6.82056,1.90976v-2.77369c1.77335-.86394,4.77439-1.59146,6.82056-1.59146,5.72927,0,8.1392,2.59181,8.1392,8.63937v10.23084c0,1.86429,0,3.27387.22735,4.86533h-2.81916v-3.72857Zm-.27282-7.95732h-.81847c-4.95627,0-10.86742.50017-10.86742,5.59286,0,3.04652,2.18258,4.18328,4.81986,4.18328,6.72962,0,6.86603-5.86568,6.86603-8.36655v-1.40958Z"/><path class="cls-3" d="m682.62461,424.23073c0-1.77335,0-3.59216-.18188-5.45645h2.77369v4.13781h.09094c.95488-2.09164,2.68275-4.68345,7.50261-4.68345,5.72927,0,7.91185,3.81951,7.91185,8.9122v14.82335h-2.86463v-14.09582c0-4.36516-1.54599-7.18432-5.50192-7.18432-5.22909,0-6.86603,4.59251-6.86603,8.45749v12.82265h-2.86463v-17.73345Z"/><path class="cls-3" d="m726.76538,412.95408h-9.3669v-2.72822h21.87126v2.72822h-9.3669v29.01011h-3.13746v-29.01011Z"/><path class="cls-3" d="m747.26939,418.22864c7.50261,0,10.82195,5.82021,10.82195,12.14059s-3.31934,12.14059-10.82195,12.14059-10.82195-5.82021-10.82195-12.14059,3.31934-12.14059,10.82195-12.14059Zm0,21.82579c5.00174,0,7.6845-4.31969,7.6845-9.68519s-2.68275-9.68519-7.6845-9.68519-7.6845,4.31969-7.6845,9.68519,2.68275,9.68519,7.6845,9.68519Z"/><path class="cls-3" d="m787.32097,441.96418h-3.45575l-6.32038-20.05244h-.09094l-6.32038,20.05244h-3.45575l-7.45714-23.1899h3.13746l6.09303,20.05244h.09094l6.4568-20.05244h3.45575l6.1385,20.05244h.09094l6.41132-20.05244h2.86463l-7.63903,23.1899Z"/><path class="cls-3" d="m814.41191,441.23666c-2.0007.81847-4.59251,1.27317-6.72962,1.27317-7.6845,0-10.54913-5.18362-10.54913-12.14059,0-7.09338,3.91045-12.14059,9.77613-12.14059,6.54774,0,9.23049,5.27457,9.23049,11.50401v1.45505h-15.86917c0,4.9108,2.63728,8.86673,7.63903,8.86673,2.09164,0,5.13815-.86394,6.50227-1.72787v2.9101Zm-1.40958-12.50436c0-4.04686-1.63693-8.04826-5.91115-8.04826-4.22875,0-6.82056,4.22875-6.82056,8.04826h12.73171Z"/><path class="cls-3" d="m821.58996,423.95791c0-2.54634,0-3.50122-.18188-5.18362h2.86463v4.4561h.09094c1.04582-2.59181,3.00105-5.00174,5.95662-5.00174.68206,0,1.50052.13641,2.0007.27282v3.00105c-.59112-.18188-1.36411-.27282-2.09164-.27282-4.54704,0-5.77474,5.09268-5.77474,9.27596v11.45854h-2.86463v-18.00627Z"/><path class="cls-3" d="m871.4647,413.77254c-2.0007-1.04582-4.86533-1.36411-7.09338-1.36411-8.23014,0-12.86812,5.82021-12.86812,13.68659,0,8.00279,4.50157,13.68659,12.86812,13.68659,2.09164,0,5.27457-.27282,7.09338-1.36411l.18188,2.72822c-1.72787,1.04582-5.27457,1.36411-7.27526,1.36411-10.00349,0-16.00558-6.59321-16.00558-16.41481,0-9.63972,6.18397-16.41481,16.00558-16.41481,1.86429,0,5.63833.31829,7.27526,1.18223l-.18188,2.9101Z"/><path class="cls-3" d="m888.73404,418.22864c7.50261,0,10.82195,5.82021,10.82195,12.14059s-3.31934,12.14059-10.82195,12.14059-10.82195-5.82021-10.82195-12.14059,3.31934-12.14059,10.82195-12.14059Zm0,21.82579c5.00174,0,7.6845-4.31969,7.6845-9.68519s-2.68275-9.68519-7.6845-9.68519-7.6845,4.31969-7.6845,9.68519,2.68275,9.68519,7.6845,9.68519Z"/><path class="cls-3" d="m932.97046,441.96418v-15.41446c0-3.27387-1.2277-5.86568-4.9108-5.86568-3.13746,0-6.22944,2.68275-6.22944,8.45749v12.82265h-2.86463v-15.41446c0-3.27387-1.2277-5.86568-4.9108-5.86568-3.13746,0-6.22944,2.68275-6.22944,8.45749v12.82265h-2.86463v-17.73345c0-1.77335,0-3.59216-.18188-5.45645h2.77369v3.91045l.09094.04547c.90941-1.59146,2.27352-4.50157,7.22979-4.50157,2.04617,0,5.41098.86394,6.1385,4.9108h.09094c1.04582-2.72822,3.77404-4.9108,7.41167-4.9108,4.68345,0,7.32073,3.27387,7.32073,7.77544v15.96011h-2.86463Z"/><path class="cls-3" d="m942.55374,418.77429h2.86463l-.18188,4.22875h.09094c.72753-1.27317,2.50087-4.77439,7.41167-4.77439,6.82056,0,9.54878,5.09268,9.54878,12.14059,0,6.86603-3.18293,12.14059-9.54878,12.14059-3.63763,0-5.82021-1.50052-7.22979-4.50157h-.09094v13.50471h-2.86463v-32.73868Zm9.73066,1.90976c-5.09268,0-6.86603,5.45645-6.86603,9.68519s1.77335,9.68519,6.86603,9.68519c5.45645,0,6.86603-5.18362,6.86603-9.68519s-1.40958-9.68519-6.86603-9.68519Z"/><path class="cls-3" d="m981.42465,438.23561h-.09094c-1.27317,2.77369-4.50157,4.27422-7.3662,4.27422-6.59321,0-7.63903-4.4561-7.63903-6.54774,0-7.77544,8.27561-8.1392,14.2777-8.1392h.54564v-1.18223c0-3.95592-1.40958-5.95662-5.27457-5.95662-2.40993,0-4.68345.54564-6.82056,1.90976v-2.77369c1.77335-.86394,4.77439-1.59146,6.82056-1.59146,5.72927,0,8.1392,2.59181,8.1392,8.63937v10.23084c0,1.86429,0,3.27387.22735,4.86533h-2.81916v-3.72857Zm-.27282-7.95732h-.81847c-4.95627,0-10.86744.50017-10.86744,5.59286,0,3.04652,2.1826,4.18328,4.81988,4.18328,6.72962,0,6.86603-5.86568,6.86603-8.36655v-1.40958Z"/><path class="cls-3" d="m990.83075,424.23073c0-1.77335,0-3.59216-.18188-5.45645h2.77369v4.13781h.09094c.95488-2.09164,2.68275-4.68345,7.50261-4.68345,5.72927,0,7.91185,3.81951,7.91185,8.9122v14.82335h-2.86463v-14.09582c0-4.36516-1.54599-7.18432-5.50192-7.18432-5.22909,0-6.86603,4.59251-6.86603,8.45749v12.82265h-2.86463v-17.73345Z"/><path class="cls-3" d="m1022.5628,438.0992h.04547l6.68415-19.32492h3.00105l-9.27596,26.64565c-1.09129,3.18293-2.72822,6.36585-5.95662,6.36585-1.04582,0-2.13711-.13641-3.09199-.36376l.27282-2.4554c.54564.18188,1.09129.36376,2.13711.36376,2.4554,0,3.27387-2.04617,4.18328-5.04721l.59112-2.04617-8.23014-23.46272h3.13746l6.50227,19.32492Z"/></svg>