<svg id="LOGO" xmlns="http://www.w3.org/2000/svg" viewBox="0 0 1250 703"><title>nvidia-partner-ibm-logo</title><path d="M447.94,416.59H621.18c-.25,3.62-3.57,13.5-5.13,15.81H447.94Z" fill="#4080c2"/><path d="M447.94,266.88h168.4c1.45,2.6,4.72,12.45,5.13,15.81H447.94Z" fill="#4080c2"/><path d="M479.17,356.71H599.34c3.92,2.74,11.18,11.76,14.08,15.8H479.17Z" fill="#4080c2"/><path d="M572.88,402.46H623a56.91,56.91,0,0,0-2.74-15.81H572.88Z" fill="#4080c2"/><path d="M479.17,342.57H599.53c3.92-2.75,11.11-11.76,14-15.8H479.17Z" fill="#4080c2"/><path d="M572.88,296.83h49.9c0,3.66-1.37,12.63-2.6,15.8h-47.3Z" fill="#4080c2"/><path d="M447.94,446.54H604.58c-13.88,11.76-26.14,15.8-47.65,15.8h-109Z" fill="#4080c2"/><path d="M447.94,252.74H604.58c-13.88-11.76-26.14-15.8-47.65-15.8h-109Z" fill="#4080c2"/><rect x="323" y="236.94" width="109.32" height="15.8" fill="#4080c2"/><rect x="323" y="266.88" width="109.32" height="15.8" fill="#4080c2"/><rect x="323" y="416.59" width="109.32" height="15.8" fill="#4080c2"/><rect x="354.23" y="386.65" width="46.85" height="15.81" fill="#4080c2"/><rect x="354.23" y="356.71" width="46.85" height="15.81" fill="#4080c2"/><rect x="354.23" y="326.77" width="46.85" height="15.81" fill="#4080c2"/><rect x="354.23" y="296.83" width="46.85" height="15.8" fill="#4080c2"/><rect x="479.17" y="386.65" width="46.85" height="15.81" fill="#4080c2"/><rect x="479.17" y="296.83" width="46.85" height="15.8" fill="#4080c2"/><polygon points="738.62 402.46 781.96 402.46 787.46 386.65 733.12 386.65 738.62 402.46" fill="#4080c2"/><polygon points="728.2 372.51 792.38 372.51 797.88 356.71 722.7 356.71 728.2 372.51" fill="#4080c2"/><rect x="323" y="446.54" width="109.32" height="15.8" fill="#4080c2"/><polygon points="759.48 462.34 761.1 462.34 766.61 446.54 753.97 446.54 759.48 462.34" fill="#4080c2"/><rect x="666.58" y="386.65" width="46.86" height="15.81" fill="#4080c2"/><rect x="666.58" y="356.71" width="46.86" height="15.81" fill="#4080c2"/><rect x="635.35" y="446.54" width="78.08" height="15.8" fill="#4080c2"/><rect x="635.35" y="416.59" width="78.08" height="15.8" fill="#4080c2"/><polygon points="749.05 432.4 771.53 432.4 777.03 416.59 743.54 416.59 749.05 432.4" fill="#4080c2"/><rect x="807.15" y="386.65" width="46.85" height="15.81" fill="#4080c2"/><rect x="807.15" y="356.71" width="46.85" height="15.81" fill="#4080c2"/><rect x="807.14" y="446.54" width="78.09" height="15.8" fill="#4080c2"/><rect x="807.15" y="416.59" width="78.09" height="15.8" fill="#4080c2"/><polygon points="744.7 296.82 666.58 296.82 666.58 312.63 750.3 312.63 744.7 296.82" fill="#4080c2"/><polygon points="765.27 326.76 760.29 340.95 755.31 326.76 666.59 326.76 666.59 342.57 713.44 342.57 713.44 330.12 717.77 342.57 802.8 342.57 807.14 330.12 807.14 330.21 807.15 330.21 807.15 342.57 854 342.57 854 326.76 765.27 326.76" fill="#4080c2"/><polygon points="723.5 236.94 635.35 236.94 635.35 252.74 729.1 252.74 723.5 236.94" fill="#4080c2"/><polygon points="734.1 266.88 635.35 266.88 635.35 282.69 739.7 282.69 734.1 266.88" fill="#4080c2"/><polygon points="775.87 296.82 854 296.82 854 312.63 770.27 312.63 775.87 296.82" fill="#4080c2"/><polygon points="797.08 236.94 885.23 236.94 885.23 252.74 791.49 252.74 797.08 236.94" fill="#4080c2"/><polygon points="786.48 266.88 885.23 266.88 885.23 282.69 780.88 282.69 786.48 266.88" fill="#4080c2"/><path d="M902.28,450.58A12.33,12.33,0,1,1,914.63,463,12.37,12.37,0,0,1,902.28,450.58Zm22.7,0c0-6-4.37-10.72-10.35-10.72s-10.4,4.7-10.4,10.72,4.39,10.78,10.4,10.78S925,456.65,925,450.58Zm-4.2,6.92h-2l-3.94-6.37h-3.09v6.37h-1.69V443.68h6c3.65,0,4.89,1.37,4.89,3.66,0,2.71-1.89,3.72-4.33,3.79Zm-6.47-7.71c2,0,4.81.32,4.81-2.49,0-2.15-1.75-2.41-3.44-2.41h-3.94v4.9Z" fill="#4080c2"/><rect x="907.92" y="438.19" width="19.08" height="24.88" fill="none"/></svg>