<?xml version="1.0" encoding="UTF-8"?><svg id="INSTRUCTIONS" xmlns="http://www.w3.org/2000/svg" viewBox="0 0 1250 703"><defs><style>.cls-1{fill:#918c8a;}.cls-2{fill:#655d5b;}.cls-3{fill:#231815;}</style></defs><path class="cls-3" d="M502.65217,366.49094v-95.79661h40.18053v97.15819c0,15.89097,8.17319,26.56008,27.92259,26.56008,18.61506,0,27.46812-11.3499,27.46812-27.24087v-96.4774h40.18053v95.79661c0,37.45643-22.47442,60.15716-67.64864,60.15716-45.40146,0-68.10312-22.24717-68.10312-60.15716Z"/><path class="cls-3" d="M657.26092,307.46905h35.63932v15.89097h.68171c8.62578-12.48609,19.74933-19.29585,35.86655-19.29585,25.42472,0,40.40761,18.16058,40.40761,44.03895v75.59365h-37.00274v-68.10218c0-12.25793-6.12802-20.65743-18.16051-20.65743-12.25789,0-20.42919,10.21556-20.42919,24.51679v64.24283h-37.00274v-116.22772Z"/><path class="cls-3" d="M788.8845,261.38681h37.00289v29.9725h-37.00289v-29.9725Zm0,46.08225h37.00289v116.22772h-37.00289v-116.22772Z"/><path class="cls-3" d="M854.98939,393.05103v-55.59745h-15.43557v-29.98453h15.43557v-36.77472h36.09393v36.77472h21.11284v29.98453h-21.11284v47.65242c0,9.08029,4.9937,11.3499,12.93965,11.3499,3.17764,0,6.80976-.22724,8.17319-.22724v27.01456c-3.17949,.90711-10.21648,1.81606-20.20388,1.81606-21.56546,0-37.00289-7.03792-37.00289-32.00826Z"/><path class="cls-3" d="M935.1269,433.23062h12.71241c10.89635,0,15.21018-4.31291,15.21018-12.25793,0-4.9937-2.27054-11.80438-7.037-24.06323l-34.27972-89.4404h39.04618l15.66281,49.48712c3.63212,11.35083,7.26423,26.78732,7.26423,26.78732h.45448s3.17764-15.43649,6.80976-26.78732l15.21018-49.48712h37.00289l-40.18053,117.81654c-9.30753,27.24087-20.43112,36.77564-43.81264,36.77564h-24.06324v-28.83062Z"/><path class="cls-3" d="M274.51974,520.38785l136.4474-78.77816-52.33622-30.21629-53.46574,30.86885c-1.89331,1.13815-4.54587-.33631-4.47714-2.59571l.00019-73.38021c0-2.21673,1.2059-4.15183,2.99745-5.185l63.54265-36.68677c1.88997-1.14964,4.55821,.32632,4.48722,2.58981l-.00005,61.72699,52.33609,30.21636v-157.55719l-149.53165,86.33227-.0002,172.66507Z"/><path class="cls-1" d="M287.60378,182.61268v60.43252l53.46613,30.86831c1.9322,1.07062,1.98164,4.10494-.0094,5.17517l-63.5493,36.6899c-1.91966,1.10836-4.19845,1.03158-5.98907-.00338l-63.54292-36.68611c-1.94083-1.06182-1.99653-4.11075-.00094-5.181l53.45726-30.86336,.00013-60.43259-136.44794,78.77836,149.53221,86.33227,149.53165-86.33227-136.44781-78.77783Z"/><path class="cls-2" d="M243.88859,442.27006l-53.47993-30.8766-52.336,30.21623,136.44708,78.77816,.0002-172.66507-149.53221-86.33227v157.55738l.00013-.7201v.7201l52.33622-30.21623-.00013-61.74087c-.0364-2.20897,2.5653-3.76278,4.48628-2.57575l63.54911,36.69024c1.91966,1.10843,2.99255,3.12026,2.99162,5.18845l.0004,73.37288c.05082,2.19924-2.53995,3.77438-4.46276,2.60344Z"/><g><path class="cls-3" d="M1122.71937,325.53867c-1.53771-3.58357-3.65995-6.73408-6.37781-9.45152-2.71701-2.71744-5.86752-4.84011-9.45152-6.36885-3.57547-1.53685-7.42229-2.30144-11.52341-2.30144s-7.93941,.76459-11.52341,2.30144c-3.584,1.52875-6.73451,3.65141-9.45152,6.36885-2.71701,2.71744-4.84011,5.86795-6.36928,9.45152-1.53685,3.58357-2.30059,7.42187-2.30059,11.52384,0,4.10155,.76373,7.93984,2.30059,11.52341,1.52917,3.58357,3.65227,6.73408,6.36928,9.45152s5.86752,4.84053,9.45152,6.36885c3.584,1.53728,7.42229,2.30144,11.52341,2.30144s7.94795-.76416,11.52341-2.30144c3.584-1.52832,6.73451-3.65141,9.45152-6.36885,2.71787-2.71744,4.84011-5.86795,6.37781-9.45152,1.52832-3.58357,2.29291-7.42187,2.29291-11.52341,0-4.10197-.76459-7.94027-2.29291-11.52384Zm-7.85493,22.86037c-2.03008,3.41376-4.74709,6.1312-8.15189,8.15232-3.41419,2.02965-7.1936,3.04-11.34592,3.04-4.14379,0-7.93088-1.01035-11.33653-3.04-3.40565-2.02112-6.1312-4.73856-8.15189-8.15232-2.03008-3.40523-3.04043-7.18421-3.04043-11.33653,0-4.15275,1.01035-7.93173,3.04043-11.33696,2.02069-3.41376,4.74624-6.1312,8.15189-8.15232,3.40565-2.02965,7.19275-3.04,11.33653-3.04,4.15232,0,7.93173,1.01035,11.34592,3.04,3.4048,2.02112,6.12181,4.73856,8.15189,8.15232,2.02069,3.40523,3.03189,7.18421,3.03189,11.33696,0,4.15232-1.0112,7.93131-3.03189,11.33653Z"/><path class="cls-3" d="M1105.77729,336.89227c.96853-1.39264,1.45237-3.09077,1.45237-5.09483,0-1.97035-.46677-3.60917-1.39264-4.90837-.92501-1.2992-2.04629-2.25877-3.3536-2.88725-1.30816-.62848-2.52245-.94251-3.6352-.94251h-13.85813v27.34379h6.0032v-9.26464h5.95712l4.79403,9.26464h6.59797l-5.62859-10.64619c1.17589-.70101,2.21355-1.62347,3.06347-2.86464Zm-14.784-9.39179h5.70624c.72192,0,1.55477,.29696,2.50539,.89173,.95147,.59435,1.42677,1.73227,1.42677,3.40523,0,1.63029-.47531,2.85312-1.42677,3.66848-.95061,.81493-1.83467,1.22283-2.64875,1.22283h-5.56288v-9.18827Z"/></g></svg>