<?xml version="1.0" encoding="UTF-8"?><svg xmlns="http://www.w3.org/2000/svg" viewBox="0 0 1300 900"><defs><style>.cls-1,.cls-2,.cls-3,.cls-4,.cls-5{fill:#fff;}.cls-1,.cls-2,.cls-4{font-size:18px;}.cls-1,.cls-5{font-family:NVIDIASans-Bold, 'NVIDIA Sans';font-weight:700;}.cls-2,.cls-3{font-family:NVIDIASans-Regular, 'NVIDIA Sans';}.cls-3{font-size:24px;}.cls-4{font-family:NVIDIASans-Medium, 'NVIDIA Sans';font-weight:500;}.cls-5{font-size:36px;}.cls-6{letter-spacing:-.00003em;}.cls-7{letter-spacing:.00297em;}.cls-8{letter-spacing:.00003em;}.cls-9{letter-spacing:-.05298em;}.cls-10{stroke:#fff;stroke-linecap:round;}.cls-10,.cls-11,.cls-12{fill:none;stroke-miterlimit:10;}.cls-13{letter-spacing:-.02399em;}.cls-14{letter-spacing:-.02398em;}.cls-15{letter-spacing:-.01998em;}.cls-16{letter-spacing:-.01997em;}.cls-17{letter-spacing:-.01999em;}.cls-18{letter-spacing:-.01501em;}.cls-19{letter-spacing:-.01497em;}.cls-20{letter-spacing:-.01299em;}.cls-21{letter-spacing:-.04999em;}.cls-22{letter-spacing:-.04001em;}.cls-23{letter-spacing:-.03em;}.cls-24{letter-spacing:-.029em;}.cls-25{letter-spacing:-.02799em;}.cls-26{letter-spacing:-.006em;}.cls-27{letter-spacing:-.00498em;}.cls-28{letter-spacing:-.00401em;}.cls-29{letter-spacing:-.00399em;}.cls-30{fill:#76b900;}.cls-31{letter-spacing:-.01001em;}.cls-32{letter-spacing:-.00998em;}.cls-33{letter-spacing:-.00798em;}.cls-34{letter-spacing:-.00802em;}.cls-35{letter-spacing:-.00299em;}.cls-11{stroke:#d1d3d4;stroke-dasharray:10 10;stroke-width:.5px;}.cls-12{stroke:#76b900;}.cls-36{letter-spacing:.00602em;}.cls-37{letter-spacing:.01001em;}.cls-38{letter-spacing:.01em;}.cls-39{letter-spacing:.00798em;}</style></defs><g id="Layer_2"><rect x="0" width="1300" height="900"/></g><g id="Layer_1"><text class="cls-5" transform="translate(255.38757 81.55561)"><tspan x="0" y="0">NVIDIA A</tspan><tspan class="cls-17" x="159.62354" y="0">r</tspan><tspan x="173.66357" y="0">chite</tspan><tspan class="cls-38" x="260.53076" y="0">c</tspan><tspan x="279.9707" y="0">tu</tspan><tspan class="cls-15" x="317.41064" y="0">r</tspan><tspan x="331.45117" y="0">e In</tspan><tspan class="cls-31" x="393.62109" y="0">f</tspan><tspan x="408.59668" y="0">e</tspan><tspan class="cls-17" x="428.79199" y="0">r</tspan><tspan x="442.83203" y="0">ence Ene</tspan><tspan class="cls-16" x="596.72754" y="0">r</tspan><tspan class="cls-31" x="610.76855" y="0">g</tspan><tspan x="632.36816" y="0">y </tspan><tspan class="cls-23" x="660.84375" y="0">E</tspan><tspan x="681.50684" y="0">fficien</tspan><tspan class="cls-32" x="789.25293" y="0">c</tspan><tspan x="807.97363" y="0">y</tspan></text><text class="cls-3" transform="translate(310.14978 119.33677)"><tspan x="0" y="0">NVIDIA Blac</tspan><tspan class="cls-35" x="133.19824" y="0">k</tspan><tspan class="cls-13" x="146.27832" y="0">w</tspan><tspan x="164.37451" y="0">ell U</tspan><tspan class="cls-33" x="211.96533" y="0">l</tspan><tspan class="cls-7" x="217.53369" y="0">t</tspan><tspan class="cls-25" x="227.80518" y="0">r</tspan><tspan x="236.66064" y="0">a </tspan><tspan class="cls-34" x="255.88525" y="0">i</tspan><tspan x="261.45264" y="0">s 50x mo</tspan><tspan class="cls-25" x="362.97119" y="0">r</tspan><tspan x="371.82666" y="0">e </tspan><tspan class="cls-19" x="391.26709" y="0">e</tspan><tspan x="404.15576" y="0">fficie</tspan><tspan class="cls-18" x="460.00342" y="0">n</tspan><tspan x="473.99463" y="0">t </tspan><tspan class="cls-37" x="490.38525" y="0">t</tspan><tspan x="500.82471" y="0">han NVIDIA Hopper</tspan></text><text class="cls-3" transform="translate(475.48279 828.63068)"><tspan x="0" y="0">E</tspan><tspan class="cls-27" x="14.20801" y="0">s</tspan><tspan x="26.3042" y="0">tim</tspan><tspan class="cls-19" x="64.03076" y="0">a</tspan><tspan x="76.70361" y="0">ted </tspan><tspan class="cls-39" x="120.81494" y="0">B</tspan><tspan x="136.91846" y="0">ased on G</tspan><tspan class="cls-19" x="247.58252" y="0">P</tspan><tspan x="262.72705" y="0">T MoE 1.8T</tspan></text><text class="cls-1" transform="translate(98.23828 532.56934) rotate(-90)"><tspan class="cls-22" x="0" y="0">T</tspan><tspan x="10.00781" y="0">o</tspan><tspan class="cls-17" x="20.57373" y="0">k</tspan><tspan class="cls-8" x="30.74365" y="0">ens per Joule</tspan></text><text class="cls-4" transform="translate(175.69019 649.30463)"><tspan x="0" y="0">10x</tspan></text><text class="cls-4" transform="translate(186.49048 731.68359)"><tspan x="0" y="0">1x</tspan></text><text class="cls-4" transform="translate(265.771 775.95081)"><tspan x="0" y="0">2014</tspan></text><text class="cls-4" transform="translate(398.67969 775.95081)"><tspan x="0" y="0">2016</tspan></text><text class="cls-4" transform="translate(531.58813 775.95081)"><tspan x="0" y="0">2018</tspan></text><text class="cls-4" transform="translate(664.49707 775.95081)"><tspan x="0" y="0">2020</tspan></text><text class="cls-4" transform="translate(797.40576 775.95081)"><tspan x="0" y="0">2022</tspan></text><text class="cls-4" transform="translate(930.31445 775.95081)"><tspan x="0" y="0">2024</tspan></text><text class="cls-4" transform="translate(1063.22388 775.95081)"><tspan x="0" y="0">2025</tspan></text><text class="cls-4" transform="translate(164.89038 566.92624)"><tspan x="0" y="0">100x</tspan></text><text class="cls-4" transform="translate(149.77075 484.54712)"><tspan x="0" y="0">1,000x</tspan></text><text class="cls-4" transform="translate(138.97095 402.16846)"><tspan x="0" y="0">10,000x</tspan></text><text class="cls-2" transform="translate(128.62134 319.78983)"><tspan x="0" y="0">100,000x</tspan></text><text class="cls-4" transform="translate(113.05151 237.41091)"><tspan x="0" y="0">1,000,000x</tspan></text><text class="cls-4" transform="translate(293.73657 712.73761)"><tspan class="cls-20" x="0" y="0">K</tspan><tspan x="11.80811" y="0">epler</tspan></text><text class="cls-4" transform="translate(426.5752 688.99146)"><tspan class="cls-21" x="0" y="0">P</tspan><tspan x="10.81787" y="0">ascal</tspan></text><text class="cls-4" transform="translate(561.1936 596.59052)"><tspan class="cls-9" x="0" y="0">V</tspan><tspan x="10.89014" y="0">o</tspan><tspan class="cls-29" x="21.38379" y="0">l</tspan><tspan x="25.90186" y="0">ta</tspan></text><text class="cls-4" transform="translate(693.59668 533.8916)"><tspan x="0" y="0">Ampe</tspan><tspan class="cls-14" x="49.55371" y="0">r</tspan><tspan x="56.37598" y="0">e</tspan></text><text class="cls-4" transform="translate(825.32764 424.60748)"><tspan x="0" y="0">Hopper</tspan></text><text class="cls-4" transform="translate(958.15796 305.81572)"><tspan x="0" y="0">Blac</tspan><tspan class="cls-26" x="36.12549" y="0">k</tspan><tspan class="cls-24" x="46.20557" y="0">w</tspan><tspan x="60.17334" y="0">ell</tspan></text><text class="cls-4" transform="translate(1091.30054 272.12166)"><tspan x="0" y="0">Blac</tspan><tspan class="cls-26" x="36.12549" y="0">k</tspan><tspan class="cls-24" x="46.20557" y="0">w</tspan><tspan x="60.17334" y="0">ell U</tspan><tspan class="cls-28" x="96.56885" y="0">l</tspan><tspan class="cls-36" x="101.08643" y="0">t</tspan><tspan class="cls-14" x="109.04248" y="0">r</tspan><tspan class="cls-6" x="115.86475" y="0">a</tspan></text><line class="cls-10" x1="227.24019" y1="725.72952" x2="1167.78073" y2="725.72952"/><line class="cls-10" x1="227.24247" y1="725.72952" x2="227.24247" y2="224.81081"/><line class="cls-11" x1="287.37026" y1="725.72952" x2="287.37026" y2="224.81081"/><line class="cls-11" x1="420.27895" y1="725.72952" x2="420.27895" y2="224.81081"/><line class="cls-11" x1="553.18764" y1="725.72952" x2="553.18764" y2="224.81081"/><line class="cls-11" x1="686.09584" y1="725.72952" x2="686.09584" y2="224.81081"/><line class="cls-11" x1="819.00502" y1="725.72952" x2="819.00502" y2="224.81081"/><line class="cls-11" x1="951.9142" y1="725.72952" x2="951.9142" y2="224.81081"/><line class="cls-11" x1="1084.82338" y1="725.72952" x2="1084.82338" y2="224.81081"/><circle class="cls-30" cx="287.37026" cy="683.96358" r="7.5"/><circle class="cls-30" cx="420.27895" cy="660.53285" r="7.5"/><circle class="cls-30" cx="553.69404" cy="568.00922" r="7.5"/><circle class="cls-30" cx="686.09633" cy="505.13874" r="7.5"/><circle class="cls-30" cx="819.00502" cy="396.38432" r="7.5"/><circle class="cls-30" cx="951.9142" cy="277.48628" r="7.5"/><circle class="cls-30" cx="1084.82338" cy="243.89353" r="7.5"/><line class="cls-12" x1="287.37026" y1="683.96358" x2="420.27895" y2="660.53285"/><line class="cls-12" x1="553.69404" y1="568.00922" x2="420.27895" y2="660.53285"/><line class="cls-12" x1="686.09633" y1="505.13874" x2="553.69404" y2="568.00922"/><line class="cls-12" x1="819.00502" y1="396.38432" x2="686.09633" y2="505.13874"/><line class="cls-12" x1="951.9142" y1="277.48628" x2="819.00502" y2="396.38432"/><line class="cls-12" x1="1084.82338" y1="243.89353" x2="951.9142" y2="277.48628"/></g></svg>