<?xml version="1.0" encoding="UTF-8"?>
<svg id="LOGO" xmlns="http://www.w3.org/2000/svg" viewBox="0 0 1250 703">
  <defs>
    <style>
      .cls-1 {
        fill: #484643;
      }

      .cls-1, .cls-2, .cls-3, .cls-4 {
        stroke-width: 0px;
      }

      .cls-2 {
        fill: #3fa764;
      }

      .cls-3 {
        fill: #110645;
      }

      .cls-4 {
        fill: #fff;
      }
    </style>
  </defs>
  <rect class="cls-4" x="215.65" y="317.5" width="34.71" height="34.71"/>
  <path class="cls-2" d="M256.3,352.21h34.72v-34.72h-34.72v34.72ZM215.65,310.23h34.71v-34.71h-34.71v34.71ZM256.3,275.52v34.71h34.72v-34.71h-34.72Z"/>
  <path class="cls-3" d="M175,310.23h34.71v-34.71h-34.71v34.71ZM175,352.21h34.71v-34.72h-34.71v34.72ZM175,394.2h34.71v-34.72h-34.71v34.72ZM215.65,394.2h34.71v-34.72h-34.71v34.72ZM256.3,359.49v34.72h34.72v-34.72h-34.72Z"/>
  <path class="cls-1" d="M353.39,369.44c-3.74-5.23-5.6-12.33-5.6-21.3,0-9.72,1.87-17.2,5.6-22.43,3.74-5.24,9.1-7.85,16.08-7.85,6.72,0,11.96,2.62,15.7,7.85,3.48,5.23,5.23,12.71,5.24,22.43,0,9.47-1.87,16.58-5.6,21.3-3.74,5.24-9.1,7.85-16.08,7.85-6.12.19-11.91-2.78-15.33-7.85M348.16,299.36c-5.79,2.07-10.95,5.61-14.96,10.28-7.22,9.48-10.83,21.94-10.83,37.38,0,16.2,3.61,28.91,10.83,38.12,7.23,9.47,16.82,14.2,28.79,14.2,5.66.06,11.27-1.08,16.45-3.36,4.96-2.71,9.09-6.72,11.96-11.59v37c.04,7,5.71,12.67,12.71,12.71h12.71v-93.07c0-17.44-5.11-29.34-15.32-35.69-9.96-6.28-21.5-9.59-33.27-9.54-6.52,0-12.98,1.21-19.07,3.55"/>
  <path class="cls-1" d="M505.53,298.05c-3.45-.11-6.78,1.25-9.16,3.74-2.33,2.4-3.61,5.62-3.55,8.97v50.83c0,5.99-1.81,10.35-5.42,13.09-3.47,2.69-7.75,4.14-12.14,4.11-4.34.05-8.57-1.4-11.96-4.11-3.49-2.74-5.23-7.11-5.23-13.09v-63.54h-26.17v58.31c0,17.2,4.42,28.54,13.27,34.02,8.84,5.48,18.95,8.57,29.34,8.97,10.66.09,21.13-2.76,30.28-8.23,9.22-5.47,13.83-17.06,13.83-34.76v-58.31h-13.08Z"/>
  <path class="cls-1" d="M562.35,376.17c-2.31-2.4-3.52-5.65-3.36-8.97.06-2.94.97-5.79,2.61-8.23,2-1.99,5.24-3.61,9.72-4.86l8.59-1.87c5.02-1.08,9.91-2.71,14.58-4.86v9.34c0,6.98-1.99,12.47-5.98,16.45-3.99,3.99-9.48,5.98-16.45,5.98-4.24,0-7.48-1-9.72-2.99M547.77,304.4c-5.85,4.74-9.61,11.58-10.46,19.06h25.04c1.12-2.62,3.29-4.65,5.98-5.6,3-1.04,6.17-1.55,9.35-1.5,3.61.06,7.2.63,10.65,1.69,3.86,1.11,5.79,3.55,5.79,7.29,0,4.99-5.48,8.23-16.44,9.72-2.24.25-4.24.56-5.98.93-1.47.34-2.98.53-4.49.56-9.47,1.5-17.25,4.49-23.36,8.97-6.11,4.49-9.17,11.97-9.16,22.43,0,11.21,3.36,19.24,10.09,24.11,6.86,4.9,15.12,7.46,23.55,7.29,5.18-.04,10.36-.35,15.51-.94,5.81-.61,11.46-2.32,16.63-5.04,4.99-2.49,9.29-6.54,12.9-12.15,3.61-5.61,5.42-13.4,5.42-23.36v-34.02c0-8.97-3.61-15.94-10.84-20.93-6.98-4.73-17.44-7.09-31.4-7.1-12.46,0-22.06,2.87-28.78,8.6"/>
  <path class="cls-1" d="M648.13,305.15c-8.86,5.73-13.28,17.07-13.27,34.01v58.32h26.17v-63.55c0-5.98,1.73-10.34,5.23-13.08,3.39-2.71,7.62-4.16,11.96-4.11,4.39-.03,8.67,1.42,12.15,4.11,3.61,2.74,5.42,7.1,5.43,13.08v50.83c-.31,6.71,4.87,12.4,11.58,12.71.37.02.75.02,1.12,0h13.08v-58.32c0-17.44-4.61-29.02-13.83-34.76-9.07-5.69-19.57-8.67-30.27-8.6-10.45.41-20.58,3.64-29.34,9.35"/>
  <path class="cls-1" d="M737.65,268.89v109.89c0,11.47,4.8,17.57,14.4,18.32,8.89.74,17.82.86,26.72.37v-19.44h-7.85c-4.99,0-7.48-2.12-7.48-6.36v-55.32h2.62c3.34.06,6.57-1.22,8.97-3.55,2.5-2.38,3.86-5.72,3.74-9.16v-5.23h-15.32v-16.82c.05-3.38-1.31-6.63-3.74-8.97-2.23-2.37-5.34-3.72-8.59-3.74h-13.46Z"/>
  <path class="cls-1" d="M864.65,369.44c-3.74-4.73-5.61-11.83-5.6-21.3,0-10.22,1.74-17.69,5.23-22.43,3.74-5.24,8.97-7.85,15.7-7.85,6.98,0,12.33,2.62,16.07,7.85,3.74,5.23,5.61,12.71,5.61,22.43,0,8.97-1.87,16.07-5.61,21.3-3.42,5.08-9.21,8.04-15.32,7.85-6.98,0-12.33-2.62-16.07-7.85M848.95,305.34c-10.22,6.35-15.33,18.25-15.33,35.69v93.07h12.71c7-.04,12.67-5.71,12.71-12.71v-37c2.73,4.98,6.89,9.02,11.95,11.59,5.17,2.33,10.79,3.48,16.45,3.36,11.72,0,21.31-4.73,28.78-14.2,7.48-9.73,11.22-22.43,11.22-38.12,0-15.19-3.74-27.66-11.22-37.38-4.05-4.7-9.27-8.24-15.13-10.28-6.03-2.31-12.42-3.51-18.88-3.55-11.77-.06-23.31,3.25-33.27,9.54"/>
  <path class="cls-1" d="M943.53,268.89v128.58h25.42v-51.21c0-8.71,1.87-15.57,5.6-20.55,3.74-4.99,9.09-7.48,16.07-7.48,6.12-.19,11.9,2.77,15.33,7.84,2.07,2.85,3.53,6.1,4.3,9.54.65,3.39.96,6.83.94,10.28v51.59h25.04v-57.94c0-11.46-2.37-20.43-7.1-26.92-4.45-6.25-10.53-11.16-17.56-14.2-7.49-2.99-15.74-3.51-23.56-1.49-8.06,1.87-14.96,7.02-19.06,14.2v-29.53c-.03-7.01-5.7-12.68-12.71-12.71h-12.71Z"/>
  <path class="cls-1" d="M806.52,298.05h-11.68v99.43h22.71v-86.72c.07-3.29-1.09-6.48-3.24-8.97-1.9-2.36-4.76-3.74-7.79-3.74ZM794.85,268.89v22.71h22.71v-22.71h-22.71Z"/>
  <path class="cls-1" d="M1063.97,298.19h-11.68v99.43h22.7v-86.72c.07-3.29-1.08-6.49-3.24-8.98-1.89-2.36-4.76-3.73-7.78-3.74ZM1052.29,269.04v22.71h22.71v-22.71h-22.71Z"/>
</svg>