<?xml version="1.0" encoding="UTF-8"?>
<svg id="LOGO" xmlns="http://www.w3.org/2000/svg" viewBox="0 0 1250 703">
  <defs>
    <style>
      .cls-1 {
        fill: #231f20;
        stroke-width: 0px;
      }
    </style>
  </defs>
  <path class="cls-1" d="M871.31,190.59c29.64-.01,53.68,24.01,53.69,53.65.01,29.64-24.01,53.68-53.65,53.69h-1.64l10.97-30.14h15.11c2.85-.14,5.36-1.9,6.46-4.53l11.89-32.68c1.95-5.35-1.12-9.73-6.81-9.73h-20.93l-27.55,75.6c-28.84-6.89-46.63-35.85-39.75-64.69,4.53-18.95,18.96-33.96,37.72-39.22l-27.37,75.19h11.38l14.53-39.88h8.55l-14.53,39.88h11.37l13.54-37.22c1.95-5.35-1.11-9.73-6.8-9.73h-9.56l10.98-30.2c.8-.03,1.6-.06,2.41-.06M903.8,227.79h-8.55l-11.97,32.84h8.55l11.97-32.84ZM802.65,190.59h-374.66c-.77,0-1.4.63-1.4,1.4v43.17c0,.77.63,1.4,1.4,1.4h143.33c10.24,0,15.39,12.38,8.13,19.59l-253.98,253.87c-.58.51-.63,1.4-.11,1.98.29.32.7.49,1.13.47h443.66c.77-.02,1.38-.63,1.4-1.4v-43.1c0-.77-.63-1.4-1.4-1.4h-212.29c-10.24,0-15.39-12.39-8.13-19.63l253.98-253.87c.57-.52.62-1.4.1-1.98-.28-.31-.69-.48-1.11-.46"/>
</svg>