<?xml version="1.0" encoding="UTF-8"?><svg id="LOGO" xmlns="http://www.w3.org/2000/svg" viewBox="0 0 1250 703"><polygon points="615.04896 349.81595 600.24897 377.21595 588.54896 377.21595 589.24897 349.81595 588.74897 349.81595 581.14894 377.21595 568.94892 377.21595 580.34895 336.21595 600.54896 336.21595 599.14894 359.81595 599.64894 359.81595 611.34895 336.21595 632.04896 336.21595 620.74897 377.21595 607.74897 377.21595 615.64894 349.81595 615.04896 349.81595"/><path d="m667.14894,361.41596l.29999-15.5h-.5l-8.59998,15.5h8.79999Zm-6.39996-25.20001h18.70001v41h-13.40002l.29999-7.29999h-12l-3.79999,7.29999h-12.59998l22.79999-41Z"/><polygon points="763.14894 345.91596 754.14894 345.91596 756.84895 336.21595 788.24897 336.21595 785.54896 345.91596 776.54896 345.91596 767.84895 377.21595 754.44892 377.21595 763.14894 345.91596"/><polygon points="841.74897 336.21595 859.84895 336.21595 862.14894 360.71595 862.54896 360.71595 869.34895 336.21595 882.14894 336.21595 870.74897 377.21595 852.54896 377.21595 850.84895 352.21595 850.44892 352.21595 843.44892 377.21595 830.34895 377.21595 841.74897 336.21595"/><path d="m721.14894,353.31595c3.79999,0,5.5-1.89999,5.70001-4.39999.09998-2-1-3-3.70001-3h-3.29999l-2.09998,7.39999h3.39996Zm-12.09998-17.10001h19.79999c9.70001,0,12.70001,5.39999,12.29999,10.5-.5,7.70001-7.20001,10-10.5,10.60001v.60001c3.90002.5,5.5,3.29999,5.20001,6.70001-.20001,2.70001-1,5.5-1.20001,9-.09998,1.39999.09998,3.10001.09998,3.70001h-14.29999c0-.20001-.09998-1.60001,0-2.39999.20001-3.39999,1.40002-5.89999,1.59998-9.60001.09998-1.70001-.40002-3.39999-3.20001-3.39999h-3.5l-4.29999,15.39999h-13.40002l11.40009-41.10004Z"/><polygon points="805.24897 336.21595 818.64894 336.21595 807.24897 377.21595 793.84895 377.21595 805.24897 336.21595"/><polygon points="131.24894 336.21595 144.64895 336.21595 135.94895 367.51597 149.04895 367.51597 146.44895 377.21595 119.84895 377.21595 131.24894 336.21595"/><polygon points="281.64894 336.21595 295.04896 336.21595 290.14894 353.91596 290.44895 353.91596 303.54896 336.21595 317.84895 336.21595 301.64894 355.61594 307.54896 377.21595 293.34895 377.21595 289.04896 359.01597 288.64894 359.01597 283.64894 377.21595 270.24894 377.21595 281.64894 336.21595"/><polygon points="349.34895 361.81595 341.34895 361.81595 337.14894 377.21595 323.64894 377.21595 335.04896 336.21595 348.44895 336.21595 344.24894 351.61594 352.24894 351.61594 356.44895 336.21595 369.94895 336.21595 358.54896 377.21595 345.04896 377.21595 349.34895 361.81595"/><polygon points="445.44895 336.21595 473.64894 336.21595 470.94895 345.91596 456.14894 345.91596 454.44895 351.91596 467.84895 351.91596 465.14894 361.61594 451.74894 361.61594 450.14894 367.51597 465.54896 367.51597 462.84895 377.21595 434.04896 377.21595 445.44895 336.21595"/><polygon points="394.04896 336.21595 422.24894 336.21595 419.54896 345.91596 404.74894 345.91596 403.04896 351.91596 416.44895 351.91596 413.74894 361.61594 400.34895 361.61594 398.74894 367.51597 414.24894 367.51597 411.44895 377.21595 382.64894 377.21595 394.04896 336.21595"/><path d="m181.94895,367.51597c5.89999,0,9.39999-14.60001,9.7-18,.10001-1.79999-.60001-3.60001-3.2-3.60001-6.10001,0-9.5,14.89999-9.7,18-.20001,3,1.59999,3.60001,3.2,3.60001m8.59999-31.80002c10,0,15,5.60001,14.3,14.5-.7,10.79999-7.5,27.70001-25.10001,27.70001-9.7,0-15-5.39999-14.39999-14.39999,1-12,8.2-27.80002,25.2-27.80002"/><path d="m503.84895,367.51597h3.90002c5.40002,0,9.70001-7.20001,10.29999-16,.20001-3.20001-1-5.60001-5.79999-5.60001h-2.40002l-6,21.60001Zm-4.70001-31.30002h15.20001c13,0,17.79999,7.20001,17.20001,15.29999-1,15.20001-11.40002,25.70001-27.5,25.70001h-16.39999l11.49997-41Z"/><path d="m253.64894,361.81595c-3,11-11.39999,15.89999-20.89999,15.89999-9.89999,0-15-5.60001-14.3-14.39999.7-10.29999,7.2-27.70001,25.10001-27.70001,8.2,0,14.50002,3,13.7,11.79999-.10001,1.29999-.5,3.29999-.70001,4.20001h-12.5c.10001-.20001.39999-1.39999.5-2.60001.2-2.29999-1.5-3.10001-3.10001-3.10001-6.10001,0-9.5,14.79999-9.7,18.10001-.2,2.5,1.2,3.60001,3.2,3.60001s4.10001-1.60001,6-5.70001h12.70001v-.09998Z"/><path d="m1118.44892,309.51597h-91.30005l22.80005-83.2-77.20001,83.2h-360.69995l351.70001,9.60001-45.5,49.10001,53.59998-48.89999,42.90002,1.20001-6.09998,31.89999-212.40002,114.79996,210.19995-102.89999-13.29999,69.29999,19.90002-72.60001,105.39996-51.49997Zm-94.5-37.60001l-7.09998,37.70001h-34.20001l41.29999-37.70001Zm.09998,48.89999l41.09998,1.10001-48.5,26.20001c2.70007-9.90002,4.70007-17.30002,7.40002-27.30002"/></svg>