<svg width="48" height="48" viewBox="0 0 48 48" fill="none" xmlns="http://www.w3.org/2000/svg">
<g clip-path="url(#clip0_2495_929)">
<path d="M37.0051 27.5079C33.4251 27.5079 30.5051 30.4279 30.5051 34.0079C30.5051 37.5879 33.4251 40.5079 37.0051 40.5079C40.5851 40.5079 43.5051 37.5879 43.5051 34.0079C43.5051 30.4279 40.5851 27.5079 37.0051 27.5079ZM37.0051 39.5079C33.9751 39.5079 31.5051 37.0379 31.5051 34.0079C31.5051 30.9779 33.9751 28.5079 37.0051 28.5079C40.0351 28.5079 42.5051 30.9779 42.5051 34.0079C42.5051 37.0379 40.0351 39.5079 37.0051 39.5079Z" fill="white"/>
<path d="M36.0051 35.2979L34.0051 33.2979L33.3051 34.0079L36.0051 36.7179L40.7151 32.0079L40.0051 31.2979L36.0051 35.2979Z" fill="white"/>
<path d="M25.9351 22.8679C26.8051 22.8679 27.5051 22.1579 27.5051 21.2979C27.5051 20.4379 26.7951 19.7279 25.9351 19.7279C25.5051 19.7279 25.1151 19.9079 24.8251 20.1879L21.0551 18.2979C21.0551 18.2279 21.0751 18.1579 21.0751 18.0779C21.0751 17.2079 20.3651 16.5079 19.5051 16.5079C18.6451 16.5079 17.9351 17.2179 17.9351 18.0779C17.9351 18.1479 17.9451 18.2179 17.9551 18.2979L14.1451 20.1979C13.8651 19.9379 13.4851 19.7679 13.0751 19.7679C12.2051 19.7679 11.5051 20.4779 11.5051 21.3379C11.5051 22.1979 12.2151 22.9079 13.0751 22.9079C13.2251 22.9079 13.3651 22.8779 13.5051 22.8379L14.6151 24.5079L13.4751 26.2079C13.3451 26.1679 13.2051 26.1479 13.0651 26.1479C12.1951 26.1479 11.4951 26.8579 11.4951 27.7179C11.4951 28.5779 12.2051 29.2879 13.0651 29.2879C13.4951 29.2879 13.8851 29.1079 14.1751 28.8279L17.9451 30.7079C17.9451 30.7779 17.9251 30.8479 17.9251 30.9279C17.9251 31.7979 18.6351 32.4979 19.4951 32.4979C20.3551 32.4979 21.0651 31.7879 21.0651 30.9279C21.0651 30.8579 21.0551 30.7879 21.0451 30.7079L24.8151 28.8179C25.0951 29.0979 25.4951 29.2779 25.9251 29.2779C26.7951 29.2779 27.4951 28.5679 27.4951 27.7079C27.4951 26.8479 26.7851 26.1379 25.9251 26.1379C25.7851 26.1379 25.6451 26.1579 25.5151 26.1979L24.3751 24.4979L25.5151 22.7979C25.6451 22.8379 25.7751 22.8579 25.9251 22.8579L25.9351 22.8679ZM19.5251 29.3679C19.5251 29.3679 19.4951 29.3679 19.4851 29.3679C19.3551 29.3679 19.2251 29.3879 19.0951 29.4279L17.0151 26.3079L18.3951 25.6179C18.6751 25.8979 19.0751 26.0779 19.5051 26.0779C19.9351 26.0779 20.3251 25.8979 20.6151 25.6179L21.9951 26.3079L19.9151 29.4279C19.7951 29.3979 19.6651 29.3679 19.5251 29.3679ZM17.9551 24.2879C17.9551 24.3579 17.9351 24.4279 17.9351 24.5079C17.9351 24.5879 17.9451 24.6479 17.9551 24.7279L16.4651 25.4779L15.8251 24.5179L16.4651 23.5579L17.9551 24.3079V24.2879ZM18.9351 24.5079C18.9351 24.1879 19.1951 23.9379 19.5051 23.9379C19.8151 23.9379 20.0751 24.1979 20.0751 24.5079C20.0751 24.8179 19.8151 25.0779 19.5051 25.0779C19.1951 25.0779 18.9351 24.8179 18.9351 24.5079ZM23.0651 24.6979L22.5451 25.4679L21.0551 24.7179C21.0551 24.6479 21.0751 24.5779 21.0751 24.5079C21.0751 24.4379 21.0651 24.3679 21.0551 24.2879L22.5451 23.5379L23.1851 24.4979L23.0651 24.6879V24.6979ZM22.8951 22.2579L20.9751 19.3679L24.3951 21.0779C24.3951 21.1479 24.3751 21.2179 24.3751 21.2879C24.3751 21.3579 24.3851 21.4379 24.3951 21.5079L22.9051 22.2579H22.8951ZM19.9151 19.5879L21.9951 22.7079L20.6151 23.3979C20.3351 23.1179 19.9351 22.9379 19.5051 22.9379C19.0751 22.9379 18.6851 23.1179 18.3951 23.3979L17.0151 22.7079L19.0951 19.5879C19.2251 19.6279 19.3651 19.6479 19.5051 19.6479C19.6451 19.6479 19.7851 19.6279 19.9151 19.5879ZM16.1151 22.2579L14.6251 21.5179C14.6251 21.4579 14.6451 21.4079 14.6451 21.3479C14.6451 21.2579 14.6351 21.1779 14.6151 21.0879L18.0351 19.3779L16.1151 22.2679V22.2579ZM14.6251 27.5079L16.1151 26.7579L17.7251 29.1679L18.0351 29.6379L14.6151 27.9279C14.6151 27.8579 14.6351 27.7879 14.6351 27.7079C14.6351 27.6279 14.6251 27.5679 14.6151 27.4879L14.6251 27.5079ZM22.8951 26.7579L24.3851 27.5079C24.3851 27.5779 24.3651 27.6479 24.3651 27.7279C24.3651 27.8079 24.3751 27.8679 24.3851 27.9479L20.9651 29.6579L22.8851 26.7679L22.8951 26.7579ZM25.9351 20.7179C26.2451 20.7179 26.5051 20.9779 26.5051 21.2879C26.5051 21.5979 26.2451 21.8579 25.9351 21.8579C25.6251 21.8579 25.3651 21.5979 25.3651 21.2879C25.3651 20.9779 25.6251 20.7179 25.9351 20.7179ZM19.5051 17.5079C19.8151 17.5079 20.0751 17.7679 20.0751 18.0779C20.0751 18.3879 19.8151 18.6479 19.5051 18.6479C19.1951 18.6479 18.9351 18.3879 18.9351 18.0779C18.9351 17.7679 19.1951 17.5079 19.5051 17.5079ZM12.5051 21.3379C12.5051 21.0179 12.7651 20.7679 13.0751 20.7679C13.3851 20.7679 13.6451 21.0279 13.6451 21.3379C13.6451 21.6479 13.3851 21.9079 13.0751 21.9079C12.7651 21.9079 12.5051 21.6479 12.5051 21.3379ZM14.5351 22.5879L15.5551 23.0979L15.2151 23.6079L14.5351 22.5879ZM15.2151 25.4079L15.5551 25.9179L14.5351 26.4279L15.2151 25.4079ZM13.0751 28.2979C12.7651 28.2979 12.5051 28.0379 12.5051 27.7279C12.5051 27.4179 12.7651 27.1579 13.0751 27.1579C13.3851 27.1579 13.6451 27.4179 13.6451 27.7279C13.6451 28.0379 13.3851 28.2979 13.0751 28.2979ZM19.5051 31.5079C19.1951 31.5079 18.9351 31.2479 18.9351 30.9379C18.9351 30.8679 18.9551 30.8079 18.9751 30.7479L19.0051 30.6879C19.0451 30.6079 19.1151 30.5379 19.2051 30.4779C19.2551 30.4379 19.3051 30.4179 19.3551 30.3979C19.4051 30.3879 19.4551 30.3679 19.5051 30.3679C19.5551 30.3679 19.6051 30.3879 19.6551 30.3979C19.7051 30.4179 19.7451 30.4379 19.8051 30.4779C19.8951 30.5379 19.9651 30.6079 20.0051 30.6879L20.0351 30.7479C20.0551 30.8079 20.0751 30.8679 20.0751 30.9379C20.0751 31.2579 19.8151 31.5079 19.5051 31.5079ZM26.5051 27.7179C26.5051 28.0379 26.2451 28.2879 25.9351 28.2879C25.6251 28.2879 25.3651 28.0279 25.3651 27.7179C25.3651 27.4079 25.6251 27.1479 25.9351 27.1479C26.2451 27.1479 26.5051 27.4079 26.5051 27.7179ZM23.4451 25.9179L23.7851 25.4079L24.4651 26.4279L23.4451 25.9179ZM23.7951 23.6079L23.4551 23.0979L24.4751 22.5879L23.7951 23.6079Z" fill="white"/>
<path d="M5.50513 14.5079H33.5051V26.4779H34.5051V13.5079H4.50513V35.5079H28.5051V34.5079H5.50513V14.5079Z" fill="white"/>
<path d="M36.5051 24.4779H37.5051V10.6279H7.50513V11.6279H36.5051V24.4779Z" fill="white"/>
<path d="M39.5051 22.4779H40.5051V7.50787H10.5051V8.50787H39.5051V22.4779Z" fill="white"/>
</g>
<defs>
<clipPath id="clip0_2495_929">
<rect width="48" height="48" fill="white"/>
</clipPath>
</defs>
</svg>
