<?xml version="1.0" encoding="UTF-8"?>
<svg id="Layer_1" xmlns="http://www.w3.org/2000/svg" version="1.1" viewBox="0 0 48 48">
  <!-- Generator: Adobe Illustrator 29.1.0, SVG Export Plug-In . SVG Version: 2.1.0 Build 142)  -->
  <defs>
    <style>
      .st0 {
        fill: #747474;
      }
    </style>
  </defs>
  <path class="st0" d="M23.9,4.5c6.4,0,7.1,0,9.6.1,6.4.3,9.5,3.4,9.8,9.8.1,2.5.1,3.3.1,9.6s0,7.1-.1,9.6c-.3,6.4-3.3,9.5-9.8,9.8-2.5.1-3.3.1-9.6.1s-7.1,0-9.6-.1c-6.5-.3-9.5-3.4-9.8-9.8-.1-2.5-.1-3.3-.1-9.6s0-7.1.1-9.6c.3-6.4,3.3-9.5,9.8-9.8,2.5-.1,3.3-.1,9.6-.1h0ZM23.9.2c-6.5,0-7.3,0-9.8.1C5.4.8.6,5.5.2,14.2c-.1,2.5-.1,3.3-.1,9.8s0,7.3.1,9.8c.4,8.6,5.2,13.4,13.8,13.8,2.5.1,3.3.1,9.8.1s7.3,0,9.8-.1c8.6-.4,13.4-5.2,13.8-13.8.1-2.5.1-3.3.1-9.8s0-7.3-.1-9.8c-.4-8.6-5.2-13.4-13.8-13.8-2.5-.1-3.4-.1-9.8-.1ZM23.9,11.8c-6.7,0-12.2,5.5-12.2,12.2s5.5,12.2,12.2,12.2,12.2-5.5,12.2-12.2-5.5-12.2-12.2-12.2ZM23.9,31.9c-4.4,0-7.9-3.5-7.9-7.9s3.6-7.9,7.9-7.9,7.9,3.6,7.9,7.9-3.6,7.9-7.9,7.9ZM36.5,8.4c-1.6,0-2.9,1.3-2.9,2.9s1.3,2.9,2.9,2.9,2.9-1.3,2.9-2.9-1.3-2.9-2.9-2.9Z"/>
</svg>