<svg xmlns="http://www.w3.org/2000/svg" viewBox="0 0 1250 703"><defs><style>.cls-1{fill:#0076ce;}.cls-2{fill:gray;}</style></defs><g id="INSTRUCTIONS"><path class="cls-1" d="M907.79,343v33.12H800.27V209.48h37.86V343ZM410.71,376.13a83.36,83.36,0,0,0,80.66-62.36l94.29,73.67,94.22-73.62v62.31H787.39V343H717.73V209.48H679.88v62.31L589.5,342.4l-20.21-15.79,43.27-33.81L659.67,256l-26.9-21-90.38,70.61L522.17,289.8l90.39-70.61-26.9-21-94.29,73.67a83.34,83.34,0,0,0-80.66-62.36H343.15V376.13ZM381,343V242.6h29.71c25.11,0,45.47,22.48,45.47,50.2S435.82,343,410.71,343Z"/><path class="cls-2" d="M907.79,483.67c0-10-5.54-14.39-16.62-16.61s-17.71-3.32-17.71-11.07c0-5.53,4.43-8.86,12.18-8.86,10,0,13.29,4.43,13.29,10l1.1,1.1h4.43l1.11-1.1c0-11.07-8.86-15.51-19.93-15.51-12.18,0-18.82,6.65-18.82,14.4,0,8.86,6.64,13.29,17.71,15.5s16.61,3.32,16.61,12.18c0,5.54-3.32,10-14.39,10-10,0-14.4-5.54-14.4-12.19l-1.1-1.1h-4.43l-1.11,1.1c0,10,7.75,17.72,21,17.72,14.39,0,21-6.64,21-15.5M860.18,472.6l1.1-1.11v-3.32c0-15.5-8.86-26.58-24.36-26.58s-24.36,11.08-24.36,26.58v2.21c0,15.5,7.76,28.79,25.47,28.79,15.5,0,21-10,22.15-16.61l-1.11-1.11h-4.43l-1.11,1.11c-2.22,6.65-6.64,11.08-15.5,11.08-14.4,0-18.83-13.29-18.83-19.93l1.12-1.11Zm-6.65-5.54H820.32L819.2,466c0-7.76,4.43-18.83,17.72-18.83S854.64,458.2,854.64,466ZM804.81,497V443.8l-1.11-1.1h-4.42l-1.11,1.1V497l1.11,1.11h4.42Zm0-64.23v-6.64L803.7,425h-4.42l-1.11,1.1v6.64l1.11,1.12h4.42Zm-42.07,60.91c-11.07,0-17.72-7.76-17.72-23.26s6.65-23.25,17.72-23.25,17.71,7.75,17.71,23.25-6.64,23.26-17.71,23.26m17.71-3.33c0,14.4-3.32,25.47-16.61,25.47-10,0-13.28-4.43-14.39-10l-1.11-1.11h-4.43l-1.1,1.11c1.1,8.86,7.75,15.5,21,15.5,14.4,0,23.25-8.86,23.25-31V443.8l-1.1-1.1h-3.32l-1.11,1.1-1.11,6.66h-1.11c-2.21-4.43-7.75-8.87-17.71-8.87-15.5,0-23.26,12.18-23.26,28.79s7.76,28.79,23.26,28.79c10,0,15.5-4.42,17.71-8.86Zm-72-43.18c11.07,0,18.81,8.86,18.81,23.25s-7.74,23.26-18.81,23.26-18.83-8.86-18.83-23.26,7.75-23.25,18.83-23.25m0,52c14.39,0,25.46-10,25.46-28.79s-11.07-28.79-25.46-28.79S683,451.56,683,470.38s11.07,28.79,25.47,28.79M675.27,497v-75.3l-1.11-1.1h-4.43l-1.11,1.1V497l1.11,1.11h4.43Zm-39.86-49.83c11.07,0,18.82,8.86,18.82,23.25s-7.75,23.26-18.82,23.26-18.83-8.86-18.83-23.26,7.75-23.25,18.83-23.25m0,52c14.39,0,25.47-10,25.47-28.79s-11.08-28.79-25.47-28.79-25.47,10-25.47,28.79,11.07,28.79,25.47,28.79M603.3,497V463.74c0-14.4-7.75-22.15-19.93-22.15-7.75,0-14.4,3.33-17.72,8.87h-1.11l-1.1-6.66-1.11-1.1H559l-1.11,1.1V497l1.11,1.11h4.43l1.1-1.11v-29.9c0-12.18,5.54-19.93,17.72-19.93,8.86,0,14.39,5.54,14.39,16.61V497l1.11,1.11h4.43Zm-56.47,0V463.74c0-14.4-7.76-22.15-19.93-22.15-7.76,0-14.4,3.33-17.72,8.87h-1.11v-28.8l-1.1-1.1h-4.43l-1.11,1.1V497l1.11,1.11H507l1.1-1.11v-29.9c0-12.18,5.54-19.93,17.72-19.93,8.86,0,14.39,5.54,14.39,16.61V497l1.11,1.11h4.43Zm-95.22-26.58c0-15.5,7.74-23.25,18.82-23.25s15.5,6.64,16.6,13.29l1.11,1.11h4.43l1.11-1.11c-1.11-11.08-10-18.83-23.25-18.83-14.39,0-25.46,8.87-25.46,28.79s11.07,28.79,25.46,28.79c13.28,0,22.14-7.75,23.25-18.82l-1.11-1.11h-4.43L487,480.35c-1.1,6.64-5.53,13.29-16.6,13.29s-18.82-7.76-18.82-23.26m-12.18,2.22,1.11-1.11v-3.32c0-15.5-8.87-26.58-24.37-26.58s-24.36,11.08-24.36,26.58v2.21c0,15.5,7.75,28.79,25.47,28.79,15.5,0,21-10,22.15-16.61l-1.12-1.11h-4.42l-1.11,1.11c-2.21,6.65-6.64,11.08-15.5,11.08-14.39,0-18.82-13.29-18.82-19.93l1.1-1.11Zm-6.65-5.54H399.56l-1.1-1.1c0-7.76,4.43-18.83,17.71-18.83S433.89,458.2,433.89,466ZM402.94,425v-3.33l-1.1-1.1H344.26l-1.11,1.1V425l1.11,1.1h24.36l1.1,1.11V497l1.11,1.11h4.43l1.11-1.11V427.2l1.11-1.11h24.36Z"/></g></svg>