<?xml version="1.0" encoding="utf-8"?>
<!-- Generator: Adobe Illustrator 23.0.3, SVG Export Plug-In . SVG Version: 6.00 Build 0)  -->
<svg version="1.1" id="Layer_1" xmlns="http://www.w3.org/2000/svg" xmlns:xlink="http://www.w3.org/1999/xlink" x="0px" y="0px"
	 viewBox="0 0 1250 703" style="enable-background:new 0 0 1250 703;" xml:space="preserve">
<style type="text/css">
	.st0{fill:#FFFFFF;}
	.st1{fill:#003A70;}
	.st2{fill:#00953B;}
	.st3{fill:#D7282F;}
</style>
<title>nvidia-partner-supermicro-logo</title>
<g id="LOGO">
	
		<ellipse transform="matrix(0.9961 -8.771209e-02 8.771209e-02 0.9961 -27.4775 57.1491)" class="st0" cx="636.6" cy="341.2" rx="318.4" ry="159.5"/>
	<path class="st1" d="M941.8,226.6c1.6,0,3.1,0.4,4.4,1.3c1.3,0.7,2.4,1.8,3.2,3.2c0.9,1.3,1.3,2.9,1.3,4.4c0.1,1.6-0.4,3.1-1.3,4.4
		c-0.7,1.3-1.8,2.4-3.2,3.2c-1.4,0.7-2.9,1.2-4.4,1.3c-1.6,0.1-3.1-0.4-4.4-1.3c-1.3-0.7-2.4-1.8-3.2-3.2c-0.7-1.4-1.2-2.9-1.3-4.4
		c-0.1-1.6,0.4-3.1,1.3-4.4c0.8-1.4,2-2.5,3.5-3.2C938.9,227,940.3,226.5,941.8,226.6z M941.8,227.2c-1.4,0-2.8,0.4-4.1,0.9
		c-1.3,0.6-2.4,1.6-3.2,2.8c-0.6,1.3-1,2.7-0.9,4.1c0,1.4,0.3,2.8,0.9,4.1c0.6,1.2,1.6,2.2,2.8,2.8c1.3,0.6,2.7,1,4.1,0.9
		c1.4,0,2.8-0.3,4.1-0.9c1.2-0.6,2.2-1.6,2.8-2.8c0.6-1.3,1-2.7,0.9-4.1c0-1.4-0.3-2.8-0.9-4.1c-0.6-1.3-1.8-2.3-3.2-2.8
		C943.7,227.5,943.3,227.2,941.8,227.2z M937,229.7h4.7c1-0.1,2.1,0.3,2.8,0.9c0.6,0.5,0.9,1.2,0.9,1.9c0,0.6-0.2,1.1-0.6,1.6
		c-0.5,0.7-1.4,1-2.2,0.9l2.5,3.8l0.9,0.9c0.3,0,0.3,0.3,0.6,0.3v0.3h-2.2l-3.8-5.1h-0.9v4.1c0,0.2,0.1,0.5,0.3,0.6
		c0.3,0,0.6,0.3,1.3,0.3v0.3h-4.7v-0.3h0.9c0.2,0,0.3-0.1,0.3-0.3c0,0,0,0,0,0v-8.8c0-0.2-0.1-0.3-0.3-0.3c0,0,0,0,0,0h-0.9v-1.3
		L937,229.7z M939.9,235.1c0.8,0.1,1.5,0,2.2-0.3c0.3-0.3,0.9-0.3,0.9-0.9c0.3-0.3,0.3-0.6,0.3-1.3c0-0.6-0.2-1.1-0.6-1.6
		c-0.5-0.4-1.2-0.7-1.9-0.6c-0.3,0-0.7,0.1-0.9,0.3L939.9,235.1z"/>
	<path class="st2" d="M956.6,308.7c12.3,99.2-133.6,198.7-326,222.4s-356.7-37.6-369-136.8s132.7-198.7,325.1-222.4
		S944.6,209.5,956.6,308.7z M622.7,182.3c-175.3,15.5-311.2,99.2-303.3,187s156.1,146.6,331.4,131.1s311.2-99.2,303.3-187
		C946.2,225.3,798,166.8,622.7,182.3z"/>
	<circle class="st3" cx="952.5" cy="358.3" r="36.6"/>
	<path class="st1" d="M448.3,327.3h1.3c4.1,0.3,6,1.6,6.6,2.2s1.6,2.8,1.6,9.5v26.5c0,6.3-0.6,11.1-2.2,13.9
		c-2.5,5.1-7.6,7.6-15.5,7.6c-7,0-11.7-2.5-14.2-7.3c-1.3-2.8-1.9-6.6-1.9-12v-32.9c0-4.4,0.9-5.7,1.3-6c0.6-0.3,2.2-1.3,6.6-1.6
		h1.3v-4.7h-31.9v4.7h1.3c4.7,0.3,6,1.3,6.6,1.6c0.3,0.3,1.3,1.6,1.3,6v31.9c0,6.6,1.3,12,3.5,16.1c4.4,7.6,12.3,11.7,24,11.7
		s19.9-3.8,24-11.7c2.2-4.1,3.5-10.1,3.5-17.4V339c0-6.6,0.9-8.5,1.6-9.2c0.6-0.9,2.2-1.9,6.6-2.2h1.3v-4.7H448v4.4H448.3z"/>
	<path class="st1" d="M381.9,344.4l-11.1-7c-3.3-1.9-6.3-4.2-8.8-7c-1.9-1.9-2.5-4.4-2.5-7.3c0-3.2,0.9-5.7,3.2-7.3
		c2.3-1.9,5.2-2.9,8.2-2.8c4.1,0,8.2,1.6,12.6,4.4c4.1,2.8,7.3,8.5,9.2,16.1l0.3,1.3h6l-3.2-29.7h-5.4v0.9c-0.2,1-0.6,1.8-1.3,2.5
		c-0.5,0.4-1.2,0.7-1.9,0.6c0,0-1.3-0.3-6.6-1.9c-3.4-1.4-7.1-2.1-10.7-2.2c-7.3,0-13.3,2.2-18,6.6c-4.4,4.4-6.6,10.1-6.6,17.1
		c0,5.1,1.9,9.8,5.7,14.2c2.4,2.5,5,4.7,7.9,6.6l10.7,6.6c6,3.8,10.1,6.6,12,8.5c2.7,2.5,4.2,6.1,4.1,9.8c0,4.1-1.3,7.3-3.8,9.5
		c-2.6,2.3-6,3.5-9.5,3.5c-7,0-12.6-2.8-17.4-8.2c-2.8-3.2-5.1-7.6-7.3-13l-0.3-0.9h-5.7l4.1,30h5.4l0.3-1.3c0-0.9,0.4-1.8,0.9-2.5
		c0.4-0.4,1-0.6,1.6-0.6c0,0,1.3,0,7,2.2c4.1,1.4,8.3,2.2,12.6,2.2c7.4,0.2,14.5-2.3,20.2-7c5.2-4.4,8.1-10.9,7.9-17.7
		c0.1-4.9-1.5-9.7-4.4-13.6C394,352.6,389.2,348.5,381.9,344.4z"/>
	<path class="st1" d="M502.3,363.7h4.4c7.9,0,14.5-1.6,19.9-5.1c5.7-3.5,8.2-8.8,8.2-16.4c0-6-2.5-10.7-7.6-14.5
		c-4.7-3.5-11.7-5.4-20.9-5.4H478v4.7h1.3c4.4,0.3,5.7,1.3,6,1.6s1.3,1.9,1.3,6v44.2c0,5.1-0.6,6.6-0.9,7.3
		c-0.3,0.3-1.6,1.3-6.3,1.9H478v4.7h31.6V388h-1.3c-5.1-0.3-6.6-1.3-7-1.6s-1.3-1.6-1.3-6v-17.1
		C500.7,363.3,501.4,363.7,502.3,363.7z M500.1,331.1c0-1.3,0.3-1.6,0.3-1.6c0.9-0.3,1.9-0.4,2.8-0.3c3.6-0.1,7.1,0.5,10.4,1.9
		c4.6,1.9,7.5,6.4,7.3,11.4c0,6-2.2,10.1-6.6,12.3c-2.5,1.3-6,1.9-10.4,1.9h-1.6c-0.7,0-1.5-0.1-2.2-0.3V331.1z"/>
	<path class="st1" d="M587,372.8l-0.3,0.9c-2.5,5.4-5.1,8.8-8.2,10.1s-7.9,2.2-14.8,2.2c-8.2,0-10.4-0.3-11.1-0.6
		c-0.3,0-0.9-0.3-0.9-2.2v-23.7h14.2c5.1,0,6.6,0.9,7.3,1.6s1.6,2.5,2.5,7.3l0.3,1.3h5.1v-26.5h-5.1l-0.3,1.3
		c-0.9,4.4-1.9,6.3-2.5,7s-2.2,1.6-7.3,1.6h-14.2v-21.8c0-1.3,0.3-1.6,0-1.6c0.5-0.2,1-0.3,1.6-0.3h13.9c7.3,0,9.8,0.9,10.7,1.6
		s2.2,2.8,3.5,7.9l0.3,1.3h5.4l-0.3-17.7h-57.2v4.7h1.3c4.4,0.3,6,1.3,6.3,1.6s1.3,1.9,1.3,6v45.5c0,4.7-0.9,5.7-1.3,6
		c-0.6,0.3-1.9,1.3-6.6,1.6h-1.3v4.7h58.1l5.4-20.2H587L587,372.8z"/>
	<path class="st1" d="M653.3,387c-1.4-0.8-2.6-1.9-3.5-3.2l-19.6-24c4.3-0.7,8.3-2.6,11.7-5.4c3.8-3.2,5.7-7.3,5.7-13
		c0-8.2-4.1-13.9-12.3-17.1c-4.1-1.6-9.2-2.2-15.2-2.2h-30v4.7h1.3c4.4,0.3,5.7,1.3,6.3,1.6c0.3,0.3,1.3,1.9,1.3,6v44.2
		c0,5.4-0.6,6.6-0.9,7.3c-0.3,0.3-1.6,1.3-6.3,1.9h-1.3v4.7H622V388h-1.3c-4.7-0.3-6-1.3-6.6-1.6c-0.3-0.3-1.3-1.6-1.3-6v-18.6h2.2
		l25.6,31.6h18.6v-4.7h-1.3C656.5,388.2,654.9,387.7,653.3,387z M612.6,354.8v-23.7c0-1.3,0.3-1.6,0.3-1.6c1.5-0.3,2.9-0.4,4.4-0.3
		c3.3-0.1,6.7,0.5,9.8,1.6c4.4,1.9,6.3,5.4,6.3,10.7s-2.2,9.2-7.3,11.1C623.6,353.9,618.9,354.8,612.6,354.8z"/>
	<path class="st1" d="M707.7,371.2l-22.4-49h-22.7v4.7h1.6c5.1,0.3,6.6,1.3,7,1.6c0.6,0.3,1.3,1.9,1.3,6v41.7c0,6.6-0.9,8.5-1.6,9.5
		c-0.6,0.6-2.2,1.9-7.3,2.2h-1.3v4.7h27.2V388h-1.3c-4.4-0.3-5.7-1.3-6.3-1.9c-0.9-0.9-1.9-3.5-1.9-9.8v-33.5l23.4,50.5h3.5
		l23.7-52.8v38.9c0,5.4-0.9,7-1.3,7.3s-1.6,1.3-6.6,1.6h-1.3v4.7h31.6v-4.7h-1.3c-4.4-0.3-6-1.3-6.3-1.6s-1.3-1.6-1.3-6v-45.8
		c0-4.1,0.6-5.7,1.3-6c0.3-0.3,1.9-1.3,6.3-1.6h1.3v-4.7h-22.7L707.7,371.2z"/>
	<path class="st1" d="M780.3,386.7c-0.3-0.3-1.3-1.3-1.3-6v-45.8c0-4.4,0.9-5.7,1.3-6c0.6-0.6,2.2-1.3,7.3-1.6h1.6v-4.7H756v4.7h1.6
		c5.1,0.3,6.6,0.9,7.3,1.6c0.3,0.3,1.3,1.6,1.3,6v45.5c0,4.7-0.9,6-1.3,6c-0.6,0.3-2.2,1.3-7.3,1.6h-1.3v4.7h33.2V388h-1.3
		C782.5,388,780.6,387,780.3,386.7z"/>
	<path class="st1" d="M843.2,377.2c-2.4,2.5-5.2,4.6-8.2,6.3c-4.2,2.4-9,3.6-13.9,3.5c-6.5,0.2-12.8-2.6-17.1-7.6
		c-4.4-5.1-7-12-7-20.9c0-9.5,2.2-17.1,6.6-22.4c3.9-5.1,10-8,16.4-7.9c6.1-0.1,11.9,2.5,15.8,7.3c2.2,2.5,3.8,6.3,5.1,10.4l0.3,0.9
		h5.1l-0.9-25.9h-4.7l-0.3,0.9c-0.2,0.7-0.7,1.2-1.3,1.6c-0.6,0.4-1.2,0.6-1.9,0.6c-0.3,0-1.3-0.3-6.3-1.6
		c-3.8-1.1-7.7-1.7-11.7-1.6c-11.1,0-20.2,3.8-26.9,11.1c-6.6,7-9.8,15.8-9.8,26.2c0,10.1,3.2,18.6,9.5,25.3
		c6.6,7.3,15.8,11.1,27.2,11.1c6.9,0,13.7-2,19.6-5.7c3.3-2.2,6.3-4.9,8.8-7.9l0.9-0.9l-3.8-3.8L843.2,377.2z"/>
	<path class="st1" d="M915.9,388.3c-1.5-0.2-3-0.6-4.4-1.3c-1.4-0.8-2.6-1.9-3.5-3.2l-19.6-24c4.3-0.7,8.3-2.6,11.7-5.4
		c3.8-3.2,5.7-7.3,5.7-13c0-8.2-4.1-13.9-12.3-17.1c-4.1-1.6-9.2-2.2-15.2-2.2h-29.7v4.7h1.3c4.4,0.3,5.7,1.3,6.3,1.6
		c0.3,0.3,1.3,1.9,1.3,6v44.2c0,5.4-0.6,6.6-0.9,7.3c-0.3,0.3-1.6,1.3-6.3,1.9h-1.3v4.7h31.6V388h-1.3c-4.7-0.3-6-1.3-6.6-1.6
		c-0.3-0.3-1.3-1.6-1.3-6v-18.6h2.2l25.6,31.6h18.6v-4.7L915.9,388.3z M870.7,354.8v-23.7c0-1.3,0.3-1.6,0.3-1.6
		c1.5-0.3,2.9-0.4,4.4-0.3c3.3-0.1,6.7,0.5,9.8,1.6c4.4,1.9,6.3,5.4,6.3,10.7s-2.2,9.2-7.3,11.1C881.7,353.9,877,354.8,870.7,354.8z
		"/>
</g>
</svg>
