<svg id="Layer_5" data-name="Layer 5" xmlns="http://www.w3.org/2000/svg" viewBox="0 0 1250 703"><defs><style>.cls-1{fill:#e25a1c;}.cls-1,.cls-2{fill-rule:evenodd;}.cls-2,.cls-3{fill:#3c3a3e;}</style></defs><title>apache-spark-logo</title><g id="g4163"><g id="g4165"><path id="path4167" class="cls-1" d="M895.35,353c-.56-1.2-.82-1.81-1.12-2.39Q882,327.36,869.67,304.1a2.85,2.85,0,0,1,.41-3.81q19.49-22.77,38.85-45.63a4.22,4.22,0,0,0,1-2.06c-3.79,1-7.57,2-11.35,3q-23.54,6.24-47.07,12.52c-1.47.39-2.13,0-2.86-1.25q-13.37-22.32-26.82-44.6a6,6,0,0,0-2-2.17c-.72,4-1.45,7.93-2.15,11.9q-3.75,21-7.47,42c-.27,1.52-.64,3-.77,4.55s-.87,2-2.18,2.39q-27.74,8.7-55.45,17.52a6.29,6.29,0,0,0-2.48,1.38L795,318c-.56.44-.92.78-1.33,1.05-9.45,6.12-18.92,12.21-28.35,18.35a3,3,0,0,1-3.29.27c-11.29-5.08-22.62-10.07-33.92-15.12a35,35,0,0,1-13.2-9.63c-8-9.83-6.45-21,4.26-27.85a50.42,50.42,0,0,1,11.45-5.21c18.12-5.9,36.3-11.59,54.48-17.3a3.1,3.1,0,0,0,2.51-2.81q3.63-21,7.46-42c1.35-7.48,2.07-15.16,5.71-22a37.16,37.16,0,0,1,5.07-7.44c7.22-8,17.29-8.31,24.92-.68a47.89,47.89,0,0,1,6.7,8.72q12.6,20.55,24.89,41.31c1,1.63,1.85,2,3.65,1.48q30.4-8.14,60.84-16.14a28.64,28.64,0,0,1,12.72-.71c9.35,1.75,13.43,8.87,10.27,17.9A34.36,34.36,0,0,1,943.13,251q-21.23,25-42.49,49.92a2.91,2.91,0,0,0-.38,3.86q12.71,24,25.3,48c2,3.83,3.56,7.81,3.6,12.2A19.67,19.67,0,0,1,912,384.55c-5.56.82-10.73-.37-16-2q-19-5.9-38.17-11.62a2.19,2.19,0,0,1-1.84-2.09c-1.46-9-3.06-17.91-4.61-26.86a6,6,0,0,1,.07-1.06L895.35,353"/><path id="path4169" class="cls-2" d="M870.57,483.58c-11.46,0-22.92-.07-34.38,0a3.32,3.32,0,0,1-3.21-1.73q-20.36-31-40.82-61.92c-.43-.66-.89-1.29-1.66-2.4-2.94,22.29-5.8,44.08-8.68,65.92h-30c.35-2.92.66-5.75,1-8.57q4.39-33.56,8.81-67.12,4.22-32.07,8.46-64.14a2.8,2.8,0,0,1,1-1.78q15.5-10.1,31.05-20.09a4.9,4.9,0,0,1,.9-.26c-3.13,23.91-6.24,47.62-9.36,71.34l.37.26,49.13-54.45,1.3,7.51c1.17,6.8,2.28,13.6,3.53,20.38a3.23,3.23,0,0,1-1,3.17q-15.76,16.5-31.47,33.07c-.46.48-.9,1-1.42,1.55.34.54.62,1.05,1,1.53Q842.23,443.9,869.37,482a11.59,11.59,0,0,0,1.2,1.23v.4"/><path id="path4171" class="cls-2" d="M514.83,417.61a72.15,72.15,0,0,0-1.82-9c-5-15.51-20.94-24-37.41-20.18-18.07,4.21-31,18.41-32.85,36.85-1.38,13.63,6,26.77,19.62,31.7,11,4,21.59,2.31,31.42-3.58C506.82,445.6,513.89,434,514.83,417.61Zm-79.34,57.64c-.89,6.67-1.74,13-2.57,19.25-1.1,8.37-2.2,16.73-3.25,25.1-.12,1-.42,1.41-1.47,1.4q-12.36,0-24.73,0a4.13,4.13,0,0,1-.82-.23c.5-4,1-7.91,1.5-11.86q2.73-20.81,5.48-41.62c2.11-15.86,3.78-31.8,6.49-47.55,4.78-27.91,28.46-51.95,56.23-57.94,16.11-3.47,31.52-1.87,45.58,7.19s22.06,22.16,23.9,38.65c2.59,23.33-6,42.69-22.56,58.71a70.1,70.1,0,0,1-38.91,19.45c-15.47,2.34-30-.25-43.06-9.36-.48-.34-1-.63-1.81-1.15"/><path id="path4173" class="cls-2" d="M422.05,342.66l-27.11,20.18c-1.44-2.28-2.73-4.54-4.24-6.65-3.88-5.43-8.71-9.49-15.72-10a17.56,17.56,0,0,0-14.8,5.82,10.35,10.35,0,0,0-.7,13.66c3.66,4.78,7.66,9.32,11.74,13.75,6.77,7.33,13.85,14.39,20.57,21.77,6.12,6.71,11,14.25,12.51,23.42,1.79,10.91-.39,21.31-5.55,30.9-9.55,17.74-24.59,28-44.45,31.26a58.33,58.33,0,0,1-26.07-1.38c-11.35-3.34-19.25-10.79-24.34-21.3-1.79-3.71-3.17-7.63-4.8-11.61l29.4-15.74c.34.82.58,1.5.9,2.14,1.67,3.34,3,6.89,5.11,10,6.14,9.13,16.05,11.9,26.11,7.39a28.84,28.84,0,0,0,7.19-4.67c6.48-5.75,7.69-13.76,2.9-21A102.69,102.69,0,0,0,361.14,419c-8-8.91-16.37-17.53-24.2-26.6a42,42,0,0,1-10.24-21.91A37.55,37.55,0,0,1,332,345c11.82-19.12,29-29.07,51.73-28.25,13,.47,23.28,6.53,31.29,16.6,2.37,3,4.59,6.07,7,9.3"/><path id="path4175" class="cls-2" d="M641.59,445.34c-1.51,11.52-2.93,22.47-4.41,33.41a2.21,2.21,0,0,1-1,1.53c-22.37,10.36-51.83,8.92-70.2-11.95-9.87-11.21-14-24.51-13.39-39.31,1.43-34.26,29.83-64.17,63.8-68.35,19.85-2.44,37.25,2.92,50.7,18.34a51.07,51.07,0,0,1,12.77,36.88c-.41,9.15-1.85,18.25-3,27.35-1.62,12.89-3.38,25.76-5.08,38.64-.06.46-.15.91-.26,1.49H644.8c.36-3,.68-5.85,1.06-8.74,1.94-14.88,4.07-29.73,5.77-44.64,1-9.28.39-18.49-3.86-27.09-4.51-9.13-12.08-14-22-15-20.61-2.18-40.21,12.14-44.61,32.42-2.9,13.38,1.68,26.22,12.34,33.31,10.39,6.91,21.52,6.94,32.84,2.45a43,43,0,0,0,15.29-10.72"/><path id="path4177" class="cls-2" d="M754.28,363.27c-1.22,9.28-2.43,18.42-3.66,27.75-5.66,0-11.2,0-16.75,0a10.57,10.57,0,0,0-10,7.14,29.09,29.09,0,0,0-.95,5.12q-4.22,31.95-8.4,63.92c-.71,5.37-1.39,10.75-2.1,16.2H684.62c.52-4.1,1-8.06,1.53-12q2.72-20.72,5.45-41.42c1.59-11.94,3-23.92,4.87-35.82,2.5-15.95,18.37-30.12,34.47-30.82,7.68-.33,15.39-.06,23.34-.06"/><path id="path4179" class="cls-3" d="M903.41,483.41V471.65h-.06l-4.62,11.76h-1.47l-4.61-11.76h-.07v11.76h-2.33V469.33h3.59l4.21,10.7,4.13-10.7h3.56v14.08ZM883,471.21v12.2h-2.32v-12.2h-4.41v-1.88h11.14v1.88H883"/><path id="path4181" class="cls-3" d="M459.37,322.88h6.91l-1.63-10.45Zm8,6.76H455.87l-3.65,7.15h-8.14L462,303.26h7.85L476,336.79h-7.55l-1.08-7.15"/><path id="path4183" class="cls-3" d="M508.47,310h-4.09L503,317.75h4.09c2.47,0,4.44-1.62,4.44-4.68A2.8,2.8,0,0,0,508.47,310Zm-9.91-6.75h10.75c5.62,0,9.57,3.35,9.57,9.12,0,7.25-5.13,12.13-12.43,12.13h-4.63l-2.18,12.28h-7l5.92-33.53"/><path id="path4185" class="cls-3" d="M542.66,322.88h6.91l-1.63-10.45Zm8,6.76H539.16l-3.65,7.15h-8.13l17.94-33.53h7.85l6.11,33.53h-7.54l-1.09-7.15"/><path id="path4187" class="cls-3" d="M596.08,335.6a18.31,18.31,0,0,1-7.59,1.73c-8.88,0-14.45-6.66-14.45-15a19.87,19.87,0,0,1,19.63-19.63,14.68,14.68,0,0,1,7.05,1.72l-1,8.05a9.05,9.05,0,0,0-6.81-2.77c-6.11,0-11.53,5.53-11.53,11.94,0,4.88,3.05,8.68,7.89,8.68a12.6,12.6,0,0,0,7.74-2.71l-.94,8"/><path id="path4189" class="cls-3" d="M638.88,323.27h-14.6l-2.37,13.52h-7l5.92-33.53h7l-2.37,13.26h14.6l2.36-13.26h7l-5.92,33.53h-7l2.37-13.52"/><path id="path4191" class="cls-3" d="M664.56,336.79l5.91-33.53h18.59L687.88,310H676.29l-1.18,6.51h10.65l-1.18,6.75H673.92L672.74,330h11.59l-1.18,6.76H664.56"/></g></g></svg>