<?xml version="1.0" encoding="UTF-8"?><svg id="LOGO" xmlns="http://www.w3.org/2000/svg" viewBox="0 0 1250 703"><polygon points="720.734 213.921 720.734 268.798 803.051 351.115 720.734 433.431 720.734 488.309 857.928 351.115 720.734 213.921"/><polygon points="816.77 213.921 816.77 268.798 899.086 351.115 816.77 433.431 816.77 488.309 953.964 351.115 816.77 213.921"/><polygon points="912.806 213.921 912.806 268.798 995.122 351.115 912.806 433.431 912.806 488.309 1050 351.115 912.806 213.921"/><path d="M288.444,276.512h13.539l3.084,8.476h4.405l-12.386-32.378h-3.758l-12.34,32.378h4.375l3.08-8.476ZM295.208,257.896l5.495,15.102h-10.983l5.488-15.102Z"/><path d="M318.1,272.289h7.652l.716-.008.701-.038.678-.053.655-.084.633-.099.61-.13.587-.145.564-.168.541-.191.518-.221.488-.236.473-.267.45-.282.419-.305.396-.328.373-.343.351-.366.32-.389.297-.412.274-.427.251-.45.221-.473.198-.48.168-.503.145-.526.122-.541.091-.556.069-.579.038-.594.008-.617-.008-.564-.038-.556-.069-.541-.091-.526-.122-.518-.145-.503-.168-.488-.198-.48-.221-.457-.251-.457-.274-.434-.297-.419-.32-.404-.351-.381-.373-.358-.396-.343-.419-.32-.45-.305-.473-.282-.488-.267-.518-.236-.541-.221-.564-.183-.587-.168-.61-.137-.633-.114-.655-.091-.678-.061-.701-.038-.716-.015h-11.944v32.378h4.291v-12.698ZM325.752,256.123l.488.008.473.03.457.046.434.061.419.084.396.099.381.122.358.137.335.152.32.175.305.183.29.191.267.206.252.221.236.229.221.244.198.252.183.267.168.274.152.29.137.297.13.297.107.305.099.305.076.312.069.313.053.32.03.328.023.328.008.328-.008.366-.023.351-.03.343-.053.335-.069.328-.076.32-.099.312-.107.305-.13.297-.137.29-.152.282-.168.267-.183.252-.198.244-.221.229-.236.213-.252.206-.267.191-.29.175-.305.168-.32.152-.335.137-.358.122-.381.099-.396.091-.419.069-.434.061-.457.038-.473.023-.488.008h-7.652v-12.675h7.652Z"/><path d="M354.593,252.61h-2.828l-12.34,32.378h4.383l3.078-8.476h13.539l3.086,8.476h4.398l-12.386-32.378h-.93ZM348.162,272.998l5.484-15.102,5.499,15.102h-10.983Z"/><polygon points="371.194 271.756 371.24 272.404 371.301 273.044 371.377 273.669 371.476 274.279 371.59 274.881 371.727 275.468 371.88 276.039 372.048 276.603 372.238 277.144 372.444 277.678 372.665 278.189 372.894 278.684 373.145 279.164 373.412 279.629 373.694 280.079 373.991 280.521 374.304 280.94 374.624 281.337 374.967 281.725 375.317 282.091 375.683 282.434 376.064 282.762 376.453 283.074 376.857 283.372 377.276 283.646 377.711 283.905 378.153 284.141 378.61 284.362 379.075 284.568 379.563 284.751 380.051 284.911 380.554 285.048 381.072 285.163 381.59 285.262 382.124 285.338 382.673 285.391 383.221 285.422 383.785 285.429 384.555 285.414 385.294 285.376 386.003 285.307 386.697 285.208 387.36 285.079 387.993 284.926 388.602 284.743 389.189 284.538 389.746 284.294 390.279 284.035 390.79 283.737 391.278 283.425 391.735 283.09 392.177 282.731 392.589 282.358 392.977 281.961 393.343 281.55 393.686 281.115 394.006 280.658 394.304 280.186 394.578 279.69 394.829 279.187 395.058 278.669 395.271 278.143 395.454 277.602 395.622 277.045 395.767 276.474 395.889 275.894 395.988 275.3 396.064 274.69 391.796 274.69 391.72 275.14 391.628 275.574 391.537 275.994 391.43 276.405 391.316 276.801 391.186 277.183 391.057 277.548 390.912 277.907 390.759 278.25 390.592 278.585 390.416 278.897 390.233 279.202 390.028 279.492 389.807 279.759 389.57 280.018 389.319 280.262 389.044 280.483 388.762 280.696 388.465 280.894 388.145 281.07 387.81 281.237 387.451 281.382 387.07 281.512 386.666 281.626 386.247 281.725 385.797 281.801 385.325 281.862 384.837 281.908 384.326 281.931 383.785 281.939 383.358 281.931 382.947 281.908 382.543 281.862 382.154 281.801 381.773 281.718 381.407 281.619 381.049 281.504 380.706 281.375 380.371 281.222 380.051 281.054 379.738 280.864 379.441 280.658 379.151 280.445 378.877 280.216 378.61 279.972 378.358 279.721 378.115 279.446 377.878 279.164 377.657 278.867 377.451 278.562 377.253 278.242 377.063 277.907 376.88 277.564 376.712 277.213 376.552 276.855 376.407 276.481 376.27 276.1 376.141 275.704 376.026 275.308 375.912 274.888 375.82 274.469 375.737 274.042 375.668 273.608 375.599 273.173 375.546 272.731 375.508 272.282 375.47 271.824 375.447 271.359 375.432 270.895 375.424 270.422 375.424 267.152 375.432 266.641 375.447 266.138 375.477 265.651 375.516 265.163 375.569 264.69 375.63 264.225 375.698 263.768 375.782 263.326 375.874 262.892 375.98 262.465 376.102 262.045 376.224 261.642 376.362 261.245 376.514 260.864 376.674 260.498 376.842 260.14 377.025 259.797 377.215 259.462 377.413 259.142 377.627 258.837 377.855 258.539 378.092 258.257 378.343 257.991 378.602 257.739 378.869 257.495 379.144 257.267 379.433 257.061 379.73 256.855 380.043 256.672 380.363 256.504 380.698 256.344 381.041 256.207 381.4 256.085 381.758 255.978 382.139 255.887 382.52 255.811 382.916 255.75 383.32 255.712 383.74 255.689 384.166 255.681 384.662 255.689 385.134 255.712 385.584 255.757 386.026 255.818 386.438 255.902 386.834 256.001 387.215 256.116 387.573 256.245 387.916 256.398 388.236 256.565 388.541 256.756 388.831 256.954 389.105 257.167 389.365 257.404 389.616 257.648 389.845 257.907 390.066 258.181 390.272 258.478 390.462 258.783 390.637 259.103 390.797 259.431 390.95 259.782 391.095 260.132 391.224 260.506 391.346 260.887 391.461 261.283 391.56 261.695 391.644 262.114 391.727 262.549 391.796 262.998 396.064 262.998 395.988 262.366 395.889 261.748 395.767 261.146 395.622 260.559 395.454 259.988 395.271 259.431 395.058 258.89 394.829 258.372 394.578 257.861 394.304 257.366 394.014 256.893 393.701 256.436 393.366 255.994 393 255.582 392.619 255.186 392.215 254.82 391.788 254.469 391.339 254.142 390.866 253.829 390.371 253.547 389.852 253.28 389.311 253.044 388.747 252.838 388.16 252.663 387.551 252.51 386.918 252.389 386.262 252.289 385.592 252.221 384.89 252.183 384.166 252.167 383.572 252.175 382.993 252.206 382.421 252.259 381.857 252.335 381.316 252.434 380.782 252.549 380.256 252.686 379.746 252.846 379.25 253.029 378.762 253.235 378.29 253.456 377.833 253.7 377.383 253.959 376.948 254.233 376.529 254.53 376.125 254.843 375.737 255.171 375.363 255.521 374.997 255.895 374.647 256.276 374.319 256.68 374.006 257.106 373.702 257.541 373.42 257.991 373.153 258.456 372.901 258.943 372.665 259.439 372.444 259.957 372.238 260.491 372.048 261.039 371.88 261.596 371.727 262.167 371.59 262.747 371.476 263.349 371.377 263.959 371.301 264.576 371.24 265.216 371.194 265.864 371.163 266.527 371.156 267.198 371.156 270.422 371.163 271.093 371.194 271.756"/><polygon points="406.178 270.018 422.505 270.018 422.505 284.987 426.773 284.987 426.773 252.61 422.505 252.61 422.505 266.527 406.178 266.527 406.178 252.61 401.887 252.61 401.887 284.987 406.178 284.987 406.178 270.018"/><polygon points="438.671 284.987 454.943 284.987 454.943 281.497 438.671 281.497 438.671 270.018 452.68 270.018 452.68 266.527 438.671 266.527 438.671 256.123 454.722 256.123 454.722 252.61 438.671 252.61 437.802 252.61 434.379 252.61 434.379 284.987 437.802 284.987 438.671 284.987"/><path d="M359.525,397.006l-.015-.076-.008-.061-.015-.069-.015-.061-.023-.061-.023-.053-.023-.053-28.338-88.696-.091-.244-.107-.229-.122-.198-.145-.168-.16-.145-.183-.114-.198-.091-.213-.069-.236-.038-.252-.015h-20.602l-.251.015-.236.038-.213.069-.198.091-.183.114-.16.145-.145.168-.122.198-.107.229-.084.244-28.346,88.696-.046.175-.03.175-.023.168v.297l.023.145.03.13.046.13.061.114.076.107.076.076.091.069.099.061.107.046.114.046.122.038.13.023.137.023.145.008.152.008h16.669l.251-.015.236-.038.213-.069.198-.092.183-.114.16-.145.145-.168.122-.198.107-.229.084-.244,3.811-12.858.053-.099.053-.091.061-.076.061-.069.061-.061.069-.046.069-.038.076-.023.076-.015.076-.008h32.271l.076.008.076.015.076.023.069.038.069.046.061.061.061.069.061.076.053.091.053.099,3.941,12.858.084.244.107.229.13.198.137.168.168.145.175.114.198.092.221.069.229.038.259.015h16.661l.274-.015.244-.03.213-.061.191-.084.16-.107.13-.13.099-.152.076-.175.038-.206.015-.221v-.076l-.008-.076v-.069ZM331.126,369.026l-.023.099-.038.091-.069.069-.084.053-.099.038-.13.031-.145.008h-23.094l-.122-.008-.107-.031-.091-.038-.076-.053-.061-.069-.046-.091-.031-.099-.008-.122v-.13l.015-.152,11.547-38.963.03-.076.03-.069.031-.061.038-.046.038-.046.038-.038.046-.023.046-.023.046-.008.053-.008.046-.015.053-.008.046.008.046.015.038.031.038.046.038.061.03.076.031.084.023.099,11.814,38.963.038.152.023.13v.122Z"/><path d="M439.029,397.243l-.008-.069-.023-.069-.023-.076-.03-.084-.031-.084-.038-.091-.046-.099-.053-.099-17.843-37.134-.038-.122-.03-.122-.008-.114.015-.099.03-.099.046-.084.069-.084.084-.069.107-.069.122-.053,1.563-.564,1.494-.633,1.425-.709,1.357-.785,1.28-.854,1.212-.93,1.136-.998,1.067-1.075.998-1.151.93-1.227.846-1.311.762-1.357.671-1.41.579-1.463.488-1.509.404-1.563.312-1.608.221-1.662.137-1.707.038-1.761-.03-1.631-.107-1.593-.175-1.555-.252-1.517-.32-1.479-.389-1.433-.457-1.395-.533-1.364-.602-1.319-.671-1.273-.716-1.235-.77-1.174-.838-1.113-.892-1.059-.953-.998-1.014-.945-1.075-.884-1.136-.823-1.197-.77-1.25-.709-1.28-.648-1.326-.579-1.364-.518-1.402-.442-1.456-.373-1.486-.305-1.532-.244-1.578-.168-1.616-.099-1.654-.038h-37.53l-.13.008-.122.015-.13.023-.122.038-.114.046-.122.061-.114.069-.107.076-.114.091-.099.099-.076.084-.069.084-.061.091-.046.099-.046.099-.038.107-.023.114-.023.122-.015.122v88.947l.015.13.023.122.023.122.038.122.046.114.046.114.061.114.069.107.076.107.099.076.114.069.107.061.114.046.122.046.114.038.122.023.13.023.122.008.13.008h15.358l.122-.008.13-.008.114-.023.114-.023.107-.038.099-.046.099-.046.091-.061.092-.069.076-.076.099-.107.091-.107.076-.114.069-.114.061-.114.046-.122.038-.122.023-.122.015-.13.008-.13v-35.815l.008-.122.023-.114.031-.099.046-.084.061-.076.069-.053.084-.046.099-.038.114-.015.122-.008h12.203l.099.008.099.015.091.023.091.038.076.046.076.061.076.069.061.076.061.091.053.099,16.402,36.341.114.221.13.206.145.175.16.152.175.13.191.107.206.084.221.061.244.03.252.015h16.136l.274-.015.252-.03.213-.053.191-.069.152-.099.13-.114.107-.137.069-.152.046-.183.015-.198-.008-.053-.008-.061ZM419.852,335.414l-.107.991-.175.945-.251.915-.32.869-.389.838-.457.793-.534.755-.602.716-.671.671-.709.625-.739.556-.793.495-.823.427-.876.358-.915.297-.953.229-.998.168-1.037.091-1.082.038h-17.187l-.122-.008-.114-.023-.099-.031-.084-.046-.069-.061-.061-.069-.046-.084-.031-.099-.023-.114-.008-.122v-22.439l.008-.122.023-.114.031-.099.046-.084.061-.069.069-.061.084-.046.099-.038.114-.015.122-.008h17.187l1.082.03,1.037.107.998.168.953.244.915.305.876.373.823.442.793.511.739.587.709.648.671.671.602.716.534.755.457.793.389.831.32.877.251.915.175.945.107.991.031,1.029-.031,1.037Z"/><path d="M519.577,397.174l-.015-.069-.03-.076-.023-.084-.038-.084-.038-.091-.046-.099-.046-.099-17.843-37.134-.046-.122-.023-.122-.008-.114.008-.099.03-.099.053-.084.061-.084.091-.069.099-.069.122-.053,1.57-.564,1.494-.633,1.418-.709,1.357-.785,1.28-.854,1.212-.93,1.143-.998,1.067-1.075.998-1.151.93-1.227.846-1.311.755-1.357.671-1.41.579-1.463.488-1.509.404-1.563.312-1.608.221-1.662.137-1.707.046-1.761-.038-1.631-.107-1.593-.175-1.555-.252-1.517-.312-1.479-.396-1.433-.457-1.395-.533-1.364-.602-1.319-.671-1.273-.709-1.235-.777-1.174-.831-1.113-.892-1.059-.96-.998-1.014-.945-1.075-.884-1.128-.823-1.197-.77-1.258-.709-1.28-.648-1.326-.579-1.364-.518-1.402-.442-1.448-.373-1.494-.305-1.532-.244-1.57-.168-1.616-.099-1.662-.038h-37.523l-.13.008-.13.015-.122.023-.122.038-.122.046-.114.061-.114.069-.114.076-.107.091-.107.099-.076.084-.069.084-.053.091-.053.099-.046.099-.03.107-.031.114-.023.122-.008.122-.008.13v88.688l.008.13.008.13.023.122.031.122.03.122.046.114.053.114.053.114.069.107.076.107.107.076.107.069.114.061.114.046.114.046.122.038.122.023.122.023.13.008.13.008h15.351l.13-.008.122-.008.114-.023.114-.023.107-.038.107-.046.091-.046.099-.061.084-.069.084-.076.099-.107.084-.107.084-.114.069-.114.053-.114.046-.122.038-.122.03-.122.015-.13v-35.945l.008-.122.023-.114.031-.099.046-.084.061-.076.069-.053.091-.046.099-.038.107-.015.122-.008h12.203l.107.008.099.015.091.023.084.038.084.046.076.061.069.069.069.076.053.091.061.099,16.395,36.341.114.221.13.206.145.175.16.152.175.13.191.107.206.084.229.061.236.03.252.015h16.143l.274-.015.244-.03.213-.053.191-.069.16-.099.13-.114.099-.137.069-.152.046-.183.015-.198v-.053l-.008-.061-.015-.069ZM500.408,335.414l-.107.991-.175.945-.251.915-.313.869-.389.838-.465.793-.534.755-.602.716-.671.671-.701.625-.747.556-.785.495-.831.427-.869.358-.915.297-.953.229-.998.168-1.044.091-1.075.038h-17.195l-.122-.008-.107-.023-.099-.031-.091-.046-.069-.061-.061-.069-.046-.084-.031-.099-.023-.114-.008-.122v-22.439l.008-.122.023-.114.031-.099.046-.084.061-.069.069-.061.091-.046.099-.038.107-.015.122-.008h17.195l1.075.03,1.044.107.998.168.953.244.915.305.869.373.831.442.785.511.747.587.701.648.671.671.602.716.534.755.465.793.389.831.313.877.251.915.175.945.107.991.038,1.029-.038,1.037Z"/><path d="M599.332,334.652l-.221-1.829-.305-1.784-.389-1.745-.473-1.692-.564-1.654-.648-1.608-.739-1.562-.823-1.517-.899-1.463-.976-1.387-1.037-1.326-1.12-1.258-1.181-1.189-1.258-1.12-1.326-1.052-1.395-.983-1.471-.922-1.54-.846-1.57-.793-1.631-.716-1.677-.633-1.73-.541-1.784-.465-1.837-.373-1.89-.297-1.944-.213-1.997-.122-2.043-.046-2.027.046-1.974.122-1.928.213-1.883.297-1.829.373-1.791.465-1.738.541-1.692.633-1.646.716-1.601.793-1.509.846-1.448.922-1.38.983-1.311,1.052-1.235,1.12-1.174,1.189-1.105,1.258-1.037,1.326-.968,1.387-.899,1.463-.823,1.517-.739,1.562-.648,1.608-.564,1.654-.473,1.692-.396,1.745-.297,1.784-.221,1.829-.13,1.875-.038,1.921v28.079l.038,1.944.13,1.905.221,1.852.297,1.814.396,1.768.473,1.723.564,1.677.648,1.631.739,1.593.823,1.54.899,1.463.968,1.402,1.037,1.326,1.105,1.265,1.174,1.204,1.235,1.136,1.311,1.067,1.38,1.006,1.448.937,1.509.869,1.601.8,1.646.716,1.692.625,1.738.549,1.791.465,1.829.373,1.883.297,1.928.206,1.974.13,2.027.038,2.043-.038,1.997-.122,1.944-.206,1.89-.282,1.837-.366,1.784-.45,1.73-.526,1.677-.61,1.631-.694,1.57-.77,1.54-.877,1.471-.945,1.395-1.006,1.326-1.082,1.258-1.143,1.181-1.219,1.12-1.28,1.037-1.349.976-1.418.899-1.494.823-1.54.739-1.593.648-1.631.564-1.677.473-1.723.389-1.768.305-1.814.221-1.852.13-1.905.038-1.944v-28.079l-.038-1.921-.13-1.875ZM581.002,367.182l-.046,1.494-.13,1.425-.221,1.372-.313,1.311-.404,1.25-.495,1.197-.579,1.128-.663,1.067-.762,1.006-.846.953-.922.869-.976.785-1.029.686-1.082.595-1.143.511-1.197.412-1.25.32-1.303.229-1.357.137-1.418.046-1.418-.046-1.357-.137-1.311-.229-1.25-.32-1.197-.412-1.136-.511-1.082-.595-1.037-.686-.976-.785-.915-.869-.823-.953-.739-1.006-.648-1.067-.564-1.128-.473-1.197-.389-1.25-.305-1.311-.221-1.372-.13-1.425-.038-1.494v-28.864l.038-1.494.13-1.433.221-1.372.305-1.303.389-1.258.473-1.189.564-1.128.648-1.067.739-1.014.823-.945.915-.899.976-.8,1.037-.709,1.082-.617,1.136-.518,1.197-.427,1.25-.328,1.311-.236,1.357-.145,1.418-.046,1.441.046,1.38.145,1.319.236,1.258.328,1.197.427,1.136.518,1.075.617,1.021.709.953.8.899.899.846.945.762,1.014.663,1.067.579,1.128.495,1.189.404,1.258.313,1.303.221,1.372.13,1.433.046,1.494v28.864Z"/><polygon points="717.541 307.182 717.419 306.992 717.251 306.839 717.045 306.717 716.786 306.634 716.489 306.58 716.146 306.565 700.658 306.565 700.406 306.58 700.17 306.626 699.957 306.695 699.759 306.794 699.576 306.923 699.416 307.083 699.271 307.274 699.149 307.487 699.042 307.739 698.951 308.006 686.885 361.275 686.855 361.374 686.824 361.465 686.794 361.542 686.756 361.61 686.718 361.671 686.679 361.717 686.634 361.755 686.588 361.778 686.542 361.793 686.489 361.801 686.436 361.77 686.39 361.74 686.344 361.702 686.298 361.656 686.26 361.603 686.222 361.549 686.184 361.488 686.154 361.427 686.123 361.351 686.1 361.275 672.975 307.876 672.884 307.632 672.777 307.403 672.648 307.205 672.495 307.038 672.32 306.893 672.129 306.778 671.908 306.687 671.672 306.618 671.42 306.58 671.138 306.565 655.262 306.565 655.01 306.58 654.774 306.626 654.561 306.695 654.363 306.794 654.18 306.923 654.02 307.083 653.875 307.274 653.753 307.487 653.646 307.739 653.555 308.006 641.489 361.275 641.459 361.374 641.428 361.465 641.398 361.542 641.36 361.61 641.322 361.671 641.283 361.717 641.238 361.755 641.192 361.778 641.146 361.793 641.093 361.801 641.04 361.793 640.994 361.778 640.948 361.755 640.902 361.717 640.864 361.671 640.826 361.61 640.788 361.542 640.758 361.465 640.727 361.374 640.704 361.275 628.235 307.876 628.151 307.632 628.044 307.403 627.915 307.205 627.777 307.038 627.61 306.893 627.434 306.778 627.236 306.687 627.015 306.618 626.787 306.58 626.527 306.565 610.262 306.565 609.988 306.58 609.744 306.611 609.523 306.672 609.34 306.756 609.18 306.862 609.05 306.992 608.951 307.144 608.875 307.32 608.829 307.525 608.822 307.746 608.951 308.272 632.175 397.098 632.259 397.342 632.373 397.57 632.503 397.769 632.655 397.936 632.831 398.081 633.021 398.195 633.235 398.287 633.471 398.355 633.73 398.394 634.012 398.409 648.57 398.409 648.852 398.394 649.104 398.348 649.332 398.279 649.538 398.18 649.721 398.051 649.881 397.891 650.018 397.7 650.125 397.487 650.216 397.235 650.277 396.968 662.739 340.284 662.77 340.185 662.8 340.094 662.831 340.017 662.869 339.949 662.907 339.888 662.945 339.842 662.991 339.804 663.036 339.781 663.082 339.766 663.135 339.758 663.189 339.766 663.234 339.781 663.28 339.804 663.326 339.842 663.364 339.888 663.402 339.949 663.44 340.017 663.471 340.094 663.501 340.185 663.532 340.284 676.916 397.098 677 397.342 677.106 397.57 677.228 397.769 677.373 397.936 677.533 398.081 677.716 398.195 677.914 398.287 678.128 398.355 678.364 398.394 678.615 398.409 694.233 398.409 694.507 398.394 694.766 398.355 695.003 398.287 695.216 398.195 695.414 398.081 695.582 397.936 695.734 397.769 695.871 397.57 695.978 397.342 696.07 397.098 717.586 308.272 717.64 307.945 717.655 307.655 717.624 307.403 717.541 307.182"/></svg>