<?xml version="1.0" encoding="UTF-8"?><svg id="LOGO" xmlns="http://www.w3.org/2000/svg" viewBox="0 0 1250 703"><path d="M425.117,508.674c2.69-1.457,4.394-4.1,4.394-7.507,0-5.31-4.253-8.881-12.511-8.881h-16.153v34.138h17.093c8.681.012,13.216-3.407,13.216-9.316.012-4.288-2.35-7.213-6.038-8.435ZM408.459,498.242h7.601c3.736,0,5.756,1.327,5.756,3.994s-2.032,4.053-5.756,4.053h-7.601v-8.047ZM417.375,520.48h-8.928v-8.435h8.928c3.971,0,6.097,1.363,6.097,4.241s-2.126,4.194-6.097,4.194Z"/><path d="M421.088,391.081c5.721,4.699,12.335,8.188,19.442,10.244l.012-.012c13.239,3.806,27.442,2.467,39.73-3.771,27.207-13.921,37.992-47.26,24.071-74.468-5.298-10.361-13.721-18.784-24.071-24.071v.012c-12.3-6.238-26.491-7.589-39.742-3.771-6.414,1.856-12.441,4.887-17.762,8.928v-55.19h-21.921v99.302c0,.928.023,1.844.07,2.761h-.07v49.645h19.172l1.069-9.609ZM440.53,315.426c4.311-1.985,8.987-3.007,13.733-3.007,10.408,0,19.736,4.875,26.009,12.558h0c5.357,6.579,8.259,14.814,8.223,23.307.035,8.482-2.878,16.729-8.235,23.307-6.285,7.683-15.601,12.546-26.009,12.546-4.746,0-9.422-1.022-13.733-3.007-12.065-5.545-20.499-18.185-20.499-32.846s8.458-27.313,20.511-32.858Z"/><path d="M447.355,492.298l-6.825,15.8h0l-7.906,18.326h7.836l.07-.176,2.855-7.143h15.342l2.925,7.319h8.024l-14.778-34.138h-7.542v.012ZM445.851,513.126l5.228-13.075,5.239,13.075h-10.467Z"/><polygon points="495.896 513.02 480.284 493.32 479.461 492.298 473.141 492.298 473.141 526.436 480.284 526.436 480.695 526.436 480.695 505.702 497.165 526.436 503.45 526.436 503.45 492.298 495.896 492.298 495.896 513.02"/><polygon points="541.148 492.298 532.642 492.298 520.014 506.054 518.005 508.239 518.005 492.298 510.404 492.298 510.404 526.436 518.005 526.436 518.005 517.802 520.014 515.628 522.446 513.02 533.018 526.436 541.947 526.436 527.45 507.511 541.148 492.298"/><polygon points="598.558 492.298 598.558 526.436 599.451 526.436 606.206 526.436 606.206 513.995 621.501 513.995 621.501 507.652 606.206 507.652 606.206 498.63 623.533 498.63 623.533 492.298 599.451 492.298 598.558 492.298"/><path d="M574.711,491.71c-6.449,0-11.842,2.878-15.013,7.46-2.044,3.007-3.113,6.555-3.078,10.185-.035,3.63,1.034,7.19,3.078,10.185,3.172,4.593,8.564,7.46,15.013,7.46,10.385.012,18.079-7.46,18.079-17.657s-7.695-17.633-18.079-17.633ZM575.592,520.292l.012-.012c-5.909,0-10.338-4.441-10.338-10.913s4.441-10.913,10.338-10.913,10.338,4.441,10.338,10.913-4.441,10.925-10.35,10.925Z"/><path d="M606.3,353.794c.047,7.272-2.361,14.344-6.849,20.065-5.016,6.297-12.358,10.279-20.546,10.279-7.46,0-14.226-3.313-19.172-8.681l-.035-.059c-5.051-5.486-8.188-13.146-8.188-21.604v-57.927h-21.909v57.927c-.024,19.9,11.818,37.898,30.109,45.733,12.734,5.416,27.172,5.204,39.742-.599,17.563-8.165,28.782-25.774,28.758-45.146v-57.927h-21.921l.012,57.939Z"/><polygon points="639.24 498.735 649.813 498.735 649.813 526.436 657.472 526.436 657.472 498.735 668.045 498.735 668.045 492.298 639.24 492.298 639.24 498.735"/><polygon points="696.58 505.76 681.566 505.76 681.566 492.298 678.876 492.298 673.919 492.298 673.919 526.436 678.876 526.436 681.566 526.436 681.566 512.433 696.58 512.433 696.58 526.436 704.227 526.436 704.227 492.298 696.58 492.298 696.58 505.76"/><polygon points="755.341 492.298 755.341 526.436 758.348 526.436 762.989 526.436 762.989 513.995 778.296 513.995 778.296 507.652 762.989 507.652 762.989 498.63 780.316 498.63 780.316 492.298 758.348 492.298 755.341 492.298"/><path d="M718.618,297.018v.023l-.012-.012c-6.062-2.584-12.582-3.924-19.172-3.912-7.096-.012-14.121,1.527-20.57,4.511-17.551,8.165-28.77,25.786-28.746,45.146v57.927h21.909v-57.927c-.047-7.26,2.361-14.32,6.825-20.03v.012c5.016-6.32,12.382-10.314,20.57-10.314,7.46,0,14.238,3.301,19.172,8.681l.012-.012c5.063,5.51,8.212,13.181,8.212,21.651v57.927h21.909v-57.927c.035-19.912-11.818-37.909-30.109-45.745Z"/><polygon points="718.783 512.186 734.125 512.186 734.125 506.042 718.783 506.042 718.783 498.63 736.157 498.63 736.157 492.298 718.606 492.298 711.182 492.298 711.182 526.436 718.606 526.436 736.78 526.436 736.78 520.092 718.783 520.092 718.783 512.186"/><polygon points="827.823 520.092 827.823 512.186 837.774 512.186 843.166 512.186 843.166 506.042 837.774 506.042 827.823 506.042 827.823 498.63 837.774 498.63 845.198 498.63 845.198 492.298 837.774 492.298 820.211 492.298 820.211 526.436 837.774 526.436 845.809 526.436 845.809 520.092 837.774 520.092 827.823 520.092"/><path d="M814.173,504.68c0-7.659-5.521-12.382-14.356-12.382h-14.297v34.138h7.648v-9.516h4.875l.012-.012h2.15l6.379,9.504h8.212l-7.413-10.96c4.288-1.891,6.79-5.651,6.79-10.772ZM799.394,510.636h-6.226v-11.9h6.238c4.676,0,7.037,2.197,7.037,5.956-.012,3.7-2.373,5.944-7.049,5.944Z"/><path d="M877.504,295.867h-19.172l-1.057,9.61c-5.733-4.699-12.358-8.188-19.477-10.244v.023l-.012-.023c-13.251-3.806-27.454-2.455-39.742,3.783h0c-27.207,13.933-37.956,47.284-24.012,74.491,5.286,10.326,13.698,18.726,24.012,24.012v.012c12.288,6.238,26.491,7.589,39.742,3.783l.012-.024v.024c6.426-1.856,12.464-4.887,17.798-8.928v55.178h21.909v-99.29c0-.928-.023-1.844-.07-2.761h.07v-49.645h0ZM837.797,381.142h-.012c-4.3,1.974-8.975,2.996-13.709,2.996-10.408,0-19.748-4.887-26.021-12.57l-.012-.024c-5.333-6.579-8.235-14.79-8.2-23.26-.035-8.47,2.866-16.693,8.2-23.284v-.012c6.285-7.695,15.613-12.57,26.033-12.57,4.734,0,9.41,1.022,13.709,2.996h.012c12.076,5.545,20.535,18.185,20.535,32.87s-8.458,27.313-20.535,32.858Z"/><polygon points="859.495 512.186 874.849 512.186 874.849 506.042 859.495 506.042 859.495 498.63 876.881 498.63 876.881 492.298 851.894 492.298 851.894 526.436 877.492 526.436 877.492 520.092 859.495 520.092 859.495 512.186"/></svg>