<svg id="LOGO" xmlns="http://www.w3.org/2000/svg" viewBox="0 0 1250 703"><defs><style>.cls-1{fill:#d03027;}.cls-2{fill:#004977;}</style></defs><path class="cls-1" d="M737.448,408.80639a.73182.73182,0,0,1-.08784.06062c-29.35623,20.78222-64.124,42.60527-101.5268,65.51574l-1.47958.85814a1.1163,1.1163,0,0,0-.26351,1.56041,1.09234,1.09234,0,0,0,1.54721.2635l1.2433-.64866c31.72736-16.55955,68.164-36.21353,104.8237-56.38091.20248-.108.39835-.21608.59423-.32412a45.84624,45.84624,0,0,1-4.85071-10.90472M930.10322,252.84423c-46.26712-51.03-343.97579-5.12782-470.5813,22.53233l-2.95257.63505a1.122,1.122,0,1,0,.392,2.20948l2.91855-.57443c104.89793-18.67419,323.02408-44.56445,369.96006,1.97979,14.32327,14.19461,10.90472,32.49065-5.69566,54.0704,8.95875,5.74968,15.33028,14.79626,18.1946,26.11294,64.82668-43.12528,108.37751-84.23035,87.76436-106.96556"/><path class="cls-2" d="M756.16832,395.40476c.60124,17.95832,11.95833,32.66674,26.77479,32.66674,28.72118,0,40.943-35.261,40.09188-58.82008-.60825-18.00574-12.26266-32.67334-27.05892-32.67334-24.701,0-40.64569,35.1055-39.80775,58.82668m-15.1678-.95958c-1.06763-30.64612,22.94428-61.98173,57.82008-61.98173,23.32243,0,38.59168,15.546,39.43621,39.34837,1.12165,32.3154-21.30923,61.98214-57.81349,61.98214-23.32943,0-38.59167-15.50553-39.4428-39.34878"/><path class="cls-2" d="M410.65377,386.34581a33.094,33.094,0,0,1-4.85091,1.35134q-2.97959.67855-10.90452,1.932c-3.64164.57443-6.16184,1.33814-7.60081,2.36494a5.62,5.62,0,0,0-2.41875,3.71587,3.5897,3.5897,0,0,0,1.60123,3.83092c1.39175.97278,3.72948,1.47958,7.02638,1.47958a23.91575,23.91575,0,0,0,7.24287-1.14845,17.62649,17.62649,0,0,0,5.91834-3.14844,9.37678,9.37678,0,0,0,2.5404-3.70928,48.11158,48.11158,0,0,0,1.44577-6.66844m30.31561-18.85027a74.74326,74.74326,0,0,1-1.36494,9.5872l-5.128,28.78881a5.32056,5.32056,0,0,0,2.87834,5.93194l-.15546,1.12165-29.36963-.03381-.2633-7.32411a58.23619,58.23619,0,0,1-14.10719,6.03339,51.60913,51.60913,0,0,1-14.07337,1.72288c-9.48576,0-14.92451-.98639-18.66759-4.27669-3.81051-3.39175-5.655-5.63463-5.47257-10.30349a15.88058,15.88058,0,0,1,3.547-8.53977,21.60978,21.60978,0,0,1,7.8171-5.459,41.45483,41.45483,0,0,1,11.78286-3.31051c5.19566-.84453,12.43152-1.68247,22.12016-2.49319a32.25518,32.25518,0,0,0,9.64782-2.18226c2.027-.78392,2.81752-1.65526,3.11463-3.30391.54062-2.95917-.39855-4.64824-4.33071-5.42515-10.587-2.08082-30.41,1.33773-40.63229,3.89814l5.56061-14.98512a268.33112,268.33112,0,0,1,39.4092-3.22268c21.13377,0,27.90344,6.02638,27.68736,13.77564"/><path class="cls-2" d="M526.09416,412.92762l10.195-57.51617h28.11293l-10.18844,57.51617Zm11.74925-70.83986c.84453-4.72246,8.30307-8.56658,16.64038-8.56658,8.35091,0,14.44492,3.84412,13.64121,8.56658-.87835,4.72948-8.33071,8.567-16.68822,8.567-8.37771,0-14.43791-3.83751-13.59337-8.567"/><path class="cls-2" d="M664.26129,386.48973c-1.2569.42557-2.89154.89155-4.87792,1.35134-1.97278.466-5.61443,1.05361-10.92493,1.91876-3.61484.574-6.18226,1.33773-7.567,2.36453a5.87383,5.87383,0,0,0-2.43917,3.70226,3.6354,3.6354,0,0,0,1.60784,3.83092c1.419.97278,3.7703,1.44577,7.0738,1.44577a23.84021,23.84021,0,0,0,7.209-1.108,17.74177,17.74177,0,0,0,5.94556-3.14845,9.77735,9.77735,0,0,0,2.49979-3.72947,49.47891,49.47891,0,0,0,1.473-6.62762m30.30881-18.88408a68.9279,68.9279,0,0,1-1.39217,9.5806l-5.08741,28.8222a5.386,5.386,0,0,0,2.85814,5.95216l-.16907.9934-29.36283.06062-.22268-7.33731a57.85531,57.85531,0,0,1-14.11419,6.02679,50.693,50.693,0,0,1-14.1274,1.72948c-9.47874,0-14.87048-.95257-18.63377-4.26308-3.82391-3.40535-5.675-5.63463-5.46556-10.28988a15.36332,15.36332,0,0,1,3.5336-8.54678c2.0334-2.47959,4.8103-4.0536,7.8371-5.46556a43.54764,43.54764,0,0,1,11.73564-3.33772c5.22267-.81072,12.47874-1.68907,22.16037-2.49979a32.83184,32.83184,0,0,0,9.59421-2.12825c2.054-.78391,2.85772-1.67546,3.16164-3.33071.52041-2.90556-.412-4.635-4.31051-5.41855-10.6342-2.108-30.40983,1.34433-40.63208,3.88453l5.5336-14.97852a266.96575,266.96575,0,0,1,39.416-3.24288c21.12,0,27.86262,6.06019,27.68737,13.78925"/><path class="cls-2" d="M351.40132,392.25467c-9.148,1.81072-14.30306,2.5134-23.34985,2.5134-13.43812,0-24.10634-6.66844-23.53212-18.89729.41217-8.141,10.06019-25.32242,34.57189-25.32242,7.71566,0,13.749,1.35794,21.85666,5.986l3.5604-19.9781c-11.02616-4.16865-18.33645-4.79711-27.802-4.68907-32.11251.34475-62.98193,14.95173-66.806,44.64568-3.89154,30.18015,32.97065,37.76735,49.33433,37.69972,9.45194-.0268,19.26883-.412,28.43726-1.36453Z"/><path class="cls-2" d="M579.89858,355.07907l2.01979-11.70842,29.41025-6.40494-3.12824,18.11336h14.39749l-2.72948,11.5872-13.97193-.03382L597.4037,412.886s-28.31541-.18227-28.40984,0l8.45194-46.14548H566.75057l2.17566-11.66142Z"/><polygon class="cls-2" points="723.115 412.888 694.475 412.929 708.879 332.678 736.776 333.462 723.115 412.888"/><path class="cls-2" d="M488.90289,368.89554a16.18452,16.18452,0,0,0-9.98575,3.34432,15.0692,15.0692,0,0,0-5.5604,9.84411c-.885,5.02638-.36474,8.62761,1.62164,10.85729,2.0132,2.20907,4.89814,3.31711,8.68844,3.31711a16.84583,16.84583,0,0,0,7.16163-1.41855,13.99385,13.99385,0,0,0,5.49958-4.72948,19.00085,19.00085,0,0,0,3.09443-7.59421c.80412-4.5402.12165-7.94514-1.97959-10.18843-2.04721-2.30391-4.87133-3.43216-8.54-3.43216M437.704,432.78943l13.68141-77.09551h24.69418l-1.91216,9.83709c2.14865-2.939,5.574-5.34432,10.28987-7.3171a42.129,42.129,0,0,1,15.95152-3.39174c6.44555,0,10.41833.34474,15.242,2.84453a20.35742,20.35742,0,0,1,9.96575,10.91791,28.58,28.58,0,0,1,1.22969,15.661,33.98866,33.98866,0,0,1-13.8977,22.49851c-7.53339,5.49979-14.31668,6.95215-24.00511,6.986a36.73792,36.73792,0,0,1-8.68184-.939,19.63481,19.63481,0,0,1-5.59421-2.24989,25.7062,25.7062,0,0,1-4.628-4.17525l-4.60783,26.42345Z"/><path class="cls-2" d="M948.18359,375.95c-.16206-4.63463-2.49277-7.74926-7.27627-7.74926-11.53317,0-23.80242,22.58593-25.91706,31.70014,18.92409,0,33.64612-11.26926,33.19333-23.95088M950.65,411.35937l2.22928,1.5068c-5.621,11.45194-17.09317,20.67419-30.5451,20.67419-11.00575,0-20.02552-7.3237-20.50511-21.07955-.88536-24.65356,22.20779-47.55743,41.12528-47.55743,8.11421,0,15.63419,3.54721,15.97192,12.28287.69567,19.6-26.83582,25.59953-44.9698,26.00489a22.066,22.066,0,0,0-.70268,7.24287c.29732,8.12782,5.21607,14.96492,15.38389,14.96492,8.79008,0,17.57316-7.06679,22.01232-14.03956"/><path class="cls-2" d="M837.84362,375.30666c1.95216-.26309,5.1006-.60123,6.45194-.60123,2.07422,0,4.0202.39216,4.11463,2.43257.04041,1.21608-2.155,9.95173-2.62144,11.97853L841.404,408.453c-1.7703,7.91173-3.68906,16.20161-5.39174,22.7484H847.282l6.33071-30.63952c19.32944-20.12037,26.76159-26.68737,31.32859-26.68737,2.04742,0,3.45938,1.08123,3.56082,3.5336.11464,3.54721-2.08123,11.58678-2.84453,13.89069L879.192,413.64184c-1.46638,5.02679-2.55422,9.55338-2.45277,12.78967.19587,4.90514,3.16205,7.0874,7.567,7.0874,8.23586,0,14.20863-8.5872,19.4379-17.01233l-1.53361-2.76989c-2.12164,3.39834-6.993,10.79626-10.8507,10.79626-1.21608,0-2.36453-.81732-2.40535-2.85772-.11464-2.61484.9868-6.52,1.7435-9.11421l7.18184-26.167c1.91876-7.21565,2.84412-11.8507,2.79711-14.32327-.17567-4.88494-3.03381-7.17524-7.40493-7.17524-7.40494,0-17.25564,5.41854-38.0989,29.40324h-.2903L857.50419,382.59c1.419-6.39793,2.81072-13.08,4.16866-17.6944a187.71376,187.71376,0,0,1-23.92408,6.73607Z"/><path class="cls-2" d="M960.657,354.47866a10.13147,10.13147,0,1,1,10.16823,10.04658A9.97084,9.97084,0,0,1,960.657,354.47866M970.8252,362.87a8.35289,8.35289,0,1,0-8.16163-8.39133A8.08241,8.08241,0,0,0,970.8252,362.87m-2.12165-2.58763h-1.7835V348.74259h4.412c2.73608,0,4.08742,1.0066,4.08742,3.2701,0,2.08082-1.28371,2.95917-2.99959,3.18886l3.29031,5.08081h-1.9732l-3.03339-5.00658h-2Zm2.061-6.47957c1.5134,0,2.8103-.108,2.8103-1.89814,0-1.42557-1.2701-1.69608-2.51339-1.69608h-2.35794v3.59422Z"/></svg>