<?xml version="1.0" encoding="UTF-8"?><svg id="LOGO" xmlns="http://www.w3.org/2000/svg" viewBox="0 0 1250 703"><path d="M865.114,365.269c-5.622-.097-10.258,4.381-10.354,10.002,0,.058-.001.117-.001.175-.049,5.573,4.43,10.131,10.003,10.179h0c5.621.097,10.257-4.381,10.354-10.002.097-5.622-4.381-10.257-10.002-10.354Z" fill="#00122c"/><path d="M313.392,367.407c-2.729,2.033-6.074,3.069-9.475,2.934-5.097.462-10.039-1.902-12.879-6.16-3.056-4.979-4.519-10.771-4.195-16.604-.361-5.836,1.105-11.64,4.195-16.604,2.959-4.119,7.815-6.442,12.879-6.161,3.242-.11,6.399,1.047,8.801,3.227,2.371,2.083,3.947,4.923,4.459,8.038h18.423c-.46-3.754-1.624-7.387-3.433-10.708-1.494-3.253-3.747-6.101-6.571-8.302-2.967-2.256-6.248-4.064-9.739-5.369-3.974-1.354-8.155-1.989-12.351-1.878-5.037-.026-10.028.972-14.668,2.934-4.21,1.873-7.979,4.611-11.059,8.038-3.22,3.451-5.644,7.567-7.1,12.057-1.619,4.83-2.422,9.897-2.376,14.991-.209,9.957,3.365,19.623,10.004,27.048,3.077,3.547,6.96,6.303,11.323,8.038,4.678,1.982,9.74,2.893,14.815,2.669,4.382.006,8.734-.718,12.879-2.141,3.593-1.312,6.9-3.304,9.739-5.867,5.522-5.075,8.909-12.059,9.475-19.538h-18.422c-.465,3.565-2.131,6.866-4.723,9.358Z" fill="#00122c"/><path d="M404.744,317.096c-2.119-2.392-4.718-4.311-7.627-5.633-3.141-1.428-6.554-2.159-10.004-2.141-4.231-.145-8.42.869-12.115,2.934-3.505,2.202-6.505,5.122-8.801,8.566l-.41.117v-38.137h-18.951v100.945h18.951v-41.246c-.16-4.403,1.336-8.705,4.195-12.057,2.578-2.965,6.339-4.631,10.268-4.547,3.475-.176,6.849,1.199,9.211,3.755,2.215,2.714,3.345,6.153,3.169,9.652v44.444h18.951v-47.113c.095-3.742-.532-7.467-1.848-10.972-1.182-3.109-2.867-6.003-4.988-8.566Z" fill="#00122c"/><path d="M489.32,335.255c-1.467-4.91-3.78-9.527-6.836-13.641-6.302-7.895-15.953-12.362-26.05-12.057-4.887-.037-9.726.963-14.199,2.934-4.211,1.873-7.979,4.612-11.06,8.038-2.977,3.626-5.373,7.694-7.099,12.057-1.834,4.781-2.731,9.87-2.641,14.991-.026,5.093.776,10.156,2.376,14.991,1.457,4.568,3.878,8.77,7.099,12.321,3.223,3.501,7.18,6.245,11.588,8.038,5.097,2.02,10.534,3.046,16.017,3.022,4.204.094,8.393-.541,12.38-1.878,3.547-1.037,6.856-2.762,9.74-5.075,2.598-2.115,4.819-4.655,6.571-7.51,1.642-2.819,2.802-5.893,3.432-9.094h-18.687c-.894,2.528-2.555,4.712-4.753,6.248-2.623,1.672-5.692,2.511-8.801,2.406-4.706.317-9.315-1.441-12.615-4.811-3.126-3.812-5.046-8.469-5.515-13.377h51.426c.052-5.951-.748-11.878-2.376-17.602ZM440.182,339.538c.711-4.148,2.525-8.029,5.251-11.236h-.059c3.097-2.847,7.176-4.382,11.382-4.283,3.969-.185,7.819,1.381,10.532,4.283,2.738,3.118,4.314,7.088,4.459,11.236h-31.566Z" fill="#00122c"/><path d="M543.621,367.437c-2.729,2.033-6.074,3.069-9.475,2.934-5.097.462-10.039-1.902-12.879-6.161-3.056-4.978-4.519-10.771-4.195-16.604-.361-5.836,1.105-11.64,4.195-16.604,2.959-4.119,7.815-6.442,12.879-6.16,3.242-.11,6.399,1.047,8.801,3.227,2.355,2.08,3.92,4.909,4.43,8.009h18.423c-.459-3.754-1.624-7.387-3.433-10.708-1.494-3.253-3.747-6.101-6.571-8.302-2.967-2.256-6.248-4.064-9.74-5.369-3.972-1.354-8.155-1.989-12.35-1.878-5.038-.027-10.028.971-14.668,2.934-4.21,1.873-7.979,4.611-11.06,8.038-3.219,3.451-5.643,7.567-7.099,12.057-1.619,4.83-2.422,9.897-2.376,14.991-.209,9.957,3.366,19.623,10.004,27.048,3.077,3.547,6.96,6.303,11.323,8.038,4.599,1.972,9.58,2.894,14.58,2.699,4.382.006,8.734-.718,12.879-2.141,3.593-1.312,6.9-3.304,9.74-5.867,5.522-5.075,8.909-12.059,9.475-19.538h-18.159c-.465,3.566-2.131,6.867-4.723,9.358Z" fill="#00122c"/><polygon points="643.627 311.463 621.009 311.463 595.751 338.775 595.751 282.802 577.063 282.802 577.063 383.835 595.751 383.835 595.751 359.457 603.671 350.803 623.679 383.747 646.561 383.747 617.225 339.039 643.627 311.463" fill="#00122c"/><path d="M709.457,320.792c-3.336-3.435-7.325-6.168-11.734-8.038-9.617-3.931-20.393-3.931-30.011,0-4.478,1.741-8.494,4.491-11.734,8.038-3.292,3.493-5.882,7.586-7.628,12.057-3.509,9.686-3.509,20.296,0,29.981,1.811,4.438,4.393,8.52,7.628,12.057,3.336,3.435,7.326,6.168,11.734,8.038,9.617,3.931,20.393,3.931,30.011,0,4.478-1.74,8.494-4.491,11.734-8.038,3.292-3.493,5.882-7.586,7.628-12.057,3.509-9.685,3.509-20.296,0-29.981-1.811-4.438-4.393-8.52-7.628-12.057ZM696.138,364.708h.029c-.78.97-1.662,1.852-2.632,2.632-7.413,5.959-18.252,4.78-24.211-2.632-6.314-10.549-6.314-23.716,0-34.265,2.991-4.422,8.076-6.958,13.407-6.688,5.305-.148,10.334,2.361,13.407,6.688,6.308,10.55,6.308,23.714,0,34.265Z" fill="#00122c"/><path d="M774.495,353.385c.192,4.264-1.209,8.447-3.931,11.734-2.65,3.02-6.517,4.69-10.532,4.547-3.297.146-6.5-1.124-8.801-3.491-2.107-2.76-3.148-6.186-2.934-9.651v-45.06h-18.745v48.199c-.361,6.904,1.891,13.691,6.307,19.01,4.904,4.783,11.581,7.303,18.423,6.953,4.196.219,8.373-.703,12.086-2.67,3.159-2.086,5.921-4.718,8.155-7.774h.763v8.567h18.159v-72.284h-18.951v41.921Z" fill="#00122c"/><path d="M837.157,369.637c-1.889.122-3.757-.452-5.251-1.614-1.437-1.501-2.116-3.572-1.849-5.632v-38.372h12.116v-12.585h-12.145v-22.765h-18.423v22.765l-9.651.117v12.585h9.74v42.83c-.041,2.958.591,5.888,1.848,8.566,1.033,2.122,2.563,3.964,4.459,5.368,1.8,1.312,3.86,2.223,6.043,2.67,2.24.527,4.534.793,6.835.792h4.987c1.291,0,2.348-.264,3.667-.264s2.113-.264,3.169-.264v-14.463c-.59.219-1.22.309-1.848.264h-3.696Z" fill="#00122c"/><path d="M931.266,372.981c-4.006,3.627-9.266,5.552-14.668,5.368-3.656.091-7.277-.736-10.531-2.406-2.985-1.564-5.521-3.867-7.363-6.688-2.075-3.011-3.595-6.37-4.488-9.916-2.013-7.892-2.103-16.151-.264-24.085.752-3.548,2.187-6.916,4.225-9.916,1.843-2.821,4.378-5.124,7.363-6.688,3.349-1.669,7.055-2.495,10.796-2.405,4.796-.221,9.523,1.197,13.406,4.019,3.773,3.08,6.22,7.49,6.836,12.321h8.42c-.895-6.772-4.271-12.971-9.475-17.396-5.586-4.242-12.47-6.419-19.479-6.16-4.804-.065-9.564.937-13.935,2.934-3.972,1.892-7.477,4.636-10.268,8.038-2.776,3.629-4.91,7.707-6.307,12.057-1.401,4.964-2.111,10.097-2.113,15.255-.017,5.159.694,10.295,2.113,15.255,1.239,4.414,3.388,8.521,6.307,12.057,2.79,3.401,6.296,6.145,10.268,8.038,4.591,2.011,9.539,3.078,14.551,3.139,7.533.424,14.924-2.174,20.535-7.217,5.286-5.282,8.422-12.339,8.801-19.802h-8.155c-.467,5.354-2.792,10.378-6.572,14.199Z" fill="#00122c"/><path d="M1010.796,320c-2.887-3.41-6.481-6.153-10.532-8.038-8.884-3.932-19.014-3.932-27.899,0-4.093,1.815-7.701,4.569-10.531,8.038-2.961,3.549-5.194,7.646-6.571,12.057-1.618,4.922-2.421,10.074-2.376,15.255-.065,5.182.738,10.338,2.376,15.255,1.437,4.386,3.664,8.472,6.571,12.057,2.83,3.469,6.438,6.223,10.531,8.038,4.398,1.947,9.155,2.946,13.964,2.934,4.805.064,9.564-.938,13.935-2.934,4.092-1.816,7.701-4.57,10.532-8.038,2.961-3.549,5.193-7.646,6.571-12.057,1.4-4.964,2.111-10.097,2.112-15.255.148-5.167-.566-10.322-2.112-15.255-1.442-4.383-3.669-8.468-6.571-12.057ZM1008.948,359.369c-.779,3.585-2.308,6.964-4.488,9.915-1.944,2.833-4.566,5.132-7.628,6.689-6.653,3.216-14.41,3.216-21.063,0-3.012-1.629-5.619-3.915-7.628-6.689-2.146-3-3.746-6.357-4.723-9.915-2.094-7.892-2.094-16.194,0-24.085.977-3.558,2.576-6.915,4.723-9.916,2.009-2.773,4.615-5.059,7.628-6.689,3.254-1.67,6.875-2.497,10.531-2.405,3.653-.061,7.267.765,10.532,2.405,3.062,1.557,5.684,3.856,7.628,6.689,1.97,3.07,3.482,6.41,4.488,9.916,2.095,7.891,2.095,16.193,0,24.085Z" fill="#00122c"/><path d="M1124.414,321.878c-.945-2.701-2.467-5.163-4.459-7.217-1.963-1.878-4.289-3.336-6.835-4.283-2.67-1.098-5.533-1.647-8.42-1.613-4.708-.115-9.353,1.094-13.407,3.491-3.986,2.401-7.257,5.825-9.475,9.916h-.264c-1.276-4.036-3.869-7.527-7.363-9.916-3.527-2.165-7.597-3.284-11.734-3.227-4.637-.221-9.228.998-13.142,3.491-3.517,2.408-6.51,5.501-8.801,9.094h-.264v-10.972h-9.036v73.105h8.801v-46.058c-.035-2.846.503-5.669,1.584-8.302,1.02-2.515,2.548-4.792,4.488-6.689,1.955-1.761,4.171-3.206,6.571-4.283,2.307-1.069,4.821-1.619,7.363-1.614,3.798-.246,7.525,1.117,10.268,3.755,3.067,3.23,4.605,7.619,4.224,12.057v51.133h8.801v-46.586c-.142-5.583,1.973-10.987,5.867-14.991,1.755-1.694,3.802-3.056,6.043-4.019,2.356-.882,4.849-1.339,7.363-1.349,3.95-.198,7.822,1.149,10.795,3.755,3.057,3.235,4.584,7.623,4.196,12.057v51.132h8.419v-52.218c.032-3.284-.503-6.55-1.584-9.651Z" fill="#00122c"/><path d="M197.28,347.723l33.678-59.963c.792-1.223.792-2.796,0-4.019-.796-1.118-2.061-1.81-3.432-1.878h-69.439c-1.371.068-2.635.76-3.432,1.878l-35.79,61.84c-.792,1.223-.792,2.796,0,4.019l35.79,61.84c.712,1.21,2.03,1.931,3.432,1.877h69.468c1.371-.068,2.636-.76,3.432-1.877.792-1.223.792-2.797,0-4.019l-33.707-59.698ZM220.954,289.814l-28.133,49.871-27.899-49.871h56.032ZM157.735,401.554l-30.95-53.831,31.038-53.685,30.157,53.685-30.246,53.831ZM164.922,405.515l27.899-49.871,27.899,49.871h-55.797Z" fill="#00122c"/></svg>