<?xml version="1.0" encoding="UTF-8"?><svg id="LOGO" xmlns="http://www.w3.org/2000/svg" viewBox="0 0 1250 703"><path d="M577.023,360.111c0,18.221-10.466,29.213-25.177,29.213s-25.18-10.991-25.18-29.213v-64.306h-26.636v63.278c0,33.319,20.923,54.359,51.815,54.359s51.815-21.04,51.815-54.359v-63.279h-26.639v64.307ZM1074.456,366.002l-16.007-40.299-16.007,40.299h32.013ZM1119.203,410.816h-26.95l-9.324-23.476h-48.965l-9.324,23.476h-26.946l48.552-115.012h23.865l49.091,115.012ZM961.178,335.478c0-5.078-2.029-9.835-5.116-12.546-3.491-3.066-8.499-4.662-15.468-4.662h-25.463v34.535h25.546c6.834,0,11.694-1.545,15.142-4.509,3.254-2.796,5.359-7.601,5.359-12.818h0ZM958.558,372.117l32.814,38.7h-31.019l-30.551-36.318h-14.671v36.318h-26.106v-115.012h53.034c14.788,0,25.644,3.607,33.429,10.258,7.782,6.65,12.316,16.877,12.316,29.048,0,15.236-6.477,31.062-29.246,37.007h0ZM288.702,295.804h-26.64v115.012h80.593v-23.405h-53.953v-91.607ZM193.392,389.152c-19.676,0-33.935-15.528-33.935-35.855s14.259-35.815,33.935-35.815c9.469,0,17.29,3.367,24.12,9.842l17.172-17.173c-10.378-10.7-24.843-16.975-41.576-16.975-34.614,0-61.293,26.412-61.293,60.131s26.679,60.134,61.293,60.134c17.48,0,32.792-7.063,43.23-18.931l-17.085-17.084c-6.886,7.624-15.112,11.726-25.861,11.726ZM718.425,353.31c0-20.765-15.006-34.515-37.342-34.515h-17.567v69.033h17.567c22.335,0,37.342-13.751,37.342-34.518ZM746.068,353.31c0,34.396-25.358,57.507-63.106,57.507h-46.084v-115.012h44.966c37.745,0,64.223,23.11,64.223,57.506h0ZM446.248,353.486c0-20.971-13.738-36.193-33.097-36.193s-33.1,15.221-33.1,36.193c0,20.766,13.738,35.837,33.1,35.837s33.097-15.071,33.097-35.837h0ZM473.891,353.484c0,33.621-25.463,59.958-60.739,59.958s-60.742-26.337-60.742-59.958c0-33.817,25.46-60.307,60.742-60.307s60.739,26.491,60.739,60.307h0ZM758.18,410.817h99.635v-23.772h-83.872c-3.683,8.861-9.034,16.931-15.763,23.772ZM843.65,364.706v-23.541h-64.251c.594,4.112.906,8.259.933,12.414-.019,3.72-.256,7.435-.711,11.127h64.03ZM756.909,295.805h100.383v23.771h-83.795c-3.942-8.921-9.575-16.993-16.588-23.771" fill="#f2541b"/></svg>