<svg id="LOGO" xmlns="http://www.w3.org/2000/svg" xmlns:xlink="http://www.w3.org/1999/xlink" viewBox="0 0 1250 703"><defs><style>.cls-1{fill:#101011;}.cls-2{fill:url(#linear-gradient);}.cls-3{fill:url(#linear-gradient-2);}.cls-4{fill:url(#linear-gradient-3);}</style><linearGradient id="linear-gradient" x1="192.12989" y1="4040.34085" x2="311.10788" y2="4040.34085" gradientTransform="matrix(0.99049, 0.13762, 0.13762, -0.99049, -354.90056, 4320.48898)" gradientUnits="userSpaceOnUse"><stop offset="0.01" stop-color="#c7422f"/><stop offset="0.37" stop-color="#d46e43"/><stop offset="1" stop-color="#eeb575"/></linearGradient><linearGradient id="linear-gradient-2" x1="229.05256" y1="4043.4338" x2="282.66498" y2="4043.4338" gradientTransform="matrix(0.99049, 0.13762, 0.13762, -0.99049, -354.90056, 4320.48898)" gradientUnits="userSpaceOnUse"><stop offset="0.21" stop-color="#cf603b"/><stop offset="1" stop-color="#eeb575"/></linearGradient><linearGradient id="linear-gradient-3" x1="127.95333" y1="4037.36328" x2="259.60788" y2="4037.36328" xlink:href="#linear-gradient-2"/></defs><path class="cls-1" d="M542.78568,299.73068H591.709c33.51455.37946,41.04956,28.94745,41.04956,54.20872,0,53.58531-27.57869,53.04323-41.04956,53.04323H542.78566V299.73068ZM589.866,387.16935c17.53652,0,21.14141-15.80185,21.14141-33.27061,0-24.5701-8.55142-34.39543-21.14141-34.39543H564.52339v67.666Z"/><path class="cls-1" d="M674.74327,300.11014h25.01731L736.5954,406.95552H713.55669L704.78843,382.67H667.43862l-9.37812,24.23131H635.02179Zm24.63785,64.156L687.0622,327.85144,673.51,364.26615h25.8711Z"/><path class="cls-1" d="M746.58335,327.8921c0-15.82894,6.36954-28.33761,27.83619-28.33761,9.744,0,37.82414,1.53139,51.82352,4.06566v15.93736s-29.12362-1.08418-48.54392-1.08418c-7.386,0-9.36456,4.6755-9.36456,9.744v7.98224c0,8.22617,3.61845,8.3888,9.36456,8.3888h27.931c18.97306,0,25.6814,12.08854,25.6814,27.10435v10.50294c0,21.61572-12.94231,26.61648-25.6814,26.61648-8.91731,0-47.64947-1.08418-54.927-4.39091V388.87692s31.807.82668,50.33278.82668c6.64056,0,8.52433-7.88738,8.52433-7.88738v-9.48653c0-5.42087-2.11414-8.00934-8.52433-8.00934H773.75549c-19.65066,0-27.1721-8.86313-27.1721-26.84686v-9.62205Z"/><path class="cls-1" d="M847.05923,300.11014h21.08719v44.97968h11.7091l30.83121-44.97968h25.30194l-37.06522,54.35779,37.06522,52.67732H910.70026l-31.17-42.91975H868.18707v42.91975H847.05923V300.11014Z"/><path class="cls-2" d="M513.0793,332.87931q.23037-2.48005.393-4.96011a162.01647,162.01647,0,0,0-16.58788-82.55987l-9.24258-18.53939-4.28249,20.32827a147.71874,147.71874,0,0,1-87.005,105.42241l-6.356,2.71044,2.41229,6.47795a146.22816,146.22816,0,0,1,8.55142,65.457,148.315,148.315,0,0,1-7.69763,35.073l-4.933,13.891,13.93164-4.58065A162.23312,162.23312,0,0,0,513.0793,332.87931ZM418.58,449.0757l-7.4266,3.781,1.62625-8.13131a163.0987,163.0987,0,0,0,2.37164-16.26262,161.0949,161.0949,0,0,0-6.12559-62.191l-.98931-3.26608,3.04924-1.51784a162.95142,162.95142,0,0,0,76.231-80.16114l4.75681-10.84174,2.83242,11.49224A147.77108,147.77108,0,0,1,418.58,449.0757Z"/><path class="cls-3" d="M478.52124,340.848c5.59706-12.3596,11.41094-43.05529,11.045-45.3456a170.75723,170.75723,0,0,1-20.40958,30.34333c-1.15194,3.03569-2.35809,6.05783-3.7133,9.0393h0a147.54284,147.54284,0,0,1-42.852,54.84567,164.46606,164.46606,0,0,1,1.45008,16.75049A161.81313,161.81313,0,0,0,478.52124,340.848Z"/><path class="cls-4" d="M393.37289,407.71444a147.71879,147.71879,0,0,1-41.83558,12.42734l-8.23973,1.16549,4.17407-7.1962a163.62845,163.62845,0,0,0,7.50791-14.555A160.98631,160.98631,0,0,0,369.372,338.74739l.122-3.4016,3.37449-.44722A162.87023,162.87023,0,0,0,446.05021,305.802a139.30281,139.30281,0,0,0,25.23417-45.23717,147.71872,147.71872,0,0,1-109.55582,60.98481l-6.88451.47433.17618,6.91161a146.25508,146.25508,0,0,1-13.17272,64.68456A148.30162,148.30162,0,0,1,323.10484,424.343l-9.09351,11.50581,14.66346.18973a161.61,161.61,0,0,0,64.4-12.54932A141.22676,141.22676,0,0,0,393.37289,407.71444Z"/></svg>