<?xml version="1.0" encoding="UTF-8"?><svg id="LOGOS" xmlns="http://www.w3.org/2000/svg" xmlns:xlink="http://www.w3.org/1999/xlink" viewBox="0 0 1250 703"><defs><style>.cls-1{clip-path:url(#clippath);}.cls-2{fill:none;}.cls-2,.cls-3,.cls-4{stroke-width:0px;}.cls-3{fill:#000;}.cls-4{fill:#ee3d2c;}</style><clipPath id="clippath"><rect class="cls-2" x="180" y="280.9542" width="890" height="141.0916"/></clipPath></defs><g id="Layer_4"><g class="cls-1"><path class="cls-4" d="M303.48631,339.13849l-58.18442,32.83801-62.30526-35.08548-2.99663,1.6232v25.47121l65.3019,36.70909,58.18442-32.71326v13.48483l-58.18442,32.8379-62.30526-35.08536-2.99663,1.62314v4.37032l65.3019,36.70851,65.17668-36.70851v-25.47174l-2.99644-1.62314-62.18024,34.96074-58.30975-32.71326v-13.48483l58.30975,32.71326,65.17668-36.70851v-25.09708l-3.24628-1.87293-61.9304,34.83587-55.31314-30.9652,55.31314-31.09012,45.44854,25.59631,3.99584-2.24747v-3.12153l-49.44438-27.84373-65.3019,36.70881v3.99548l65.3019,36.70868,58.18442-32.83801v13.48483Z"/><path class="cls-3" d="M432.4652,401.06901v-112.12439h-17.23023v41.95288c0,.62433-.37507,1.12373-.99939,1.37347-.62375.24973-1.24809,0-1.62314-.37454-5.86825-6.86734-14.98277-10.73795-24.97145-10.73795-21.35129,0-38.0824,17.97977-38.0824,40.95395,0,11.23736,3.87061,21.60054,10.98751,29.21714,7.1169,7.61659,16.73112,11.73706,27.09489,11.73706,9.86347,0,18.97857-4.12047,24.97145-11.23736.37505-.49969,1.12403-.62433,1.62314-.49969.62431.24985.99939.74954.99939,1.37328v8.36615h17.23023ZM391.38637,387.45895c-13.73468,0-24.47233-11.11272-24.47233-25.34652s10.73765-25.34652,24.47233-25.34652,24.47234,11.11273,24.47234,25.34652-10.73766,25.34652-24.47234,25.34652Z"/><path class="cls-3" d="M524.61036,401.06901v-78.03748h-17.10558v7.86615c0,.62433-.37449,1.12374-.99883,1.37347-.62431.24973-1.24865,0-1.62312-.4994-5.74361-6.86734-14.73351-10.73796-24.97205-10.73796-21.35128,0-38.08237,17.97977-38.08237,40.95402s16.73109,40.95419,38.08237,40.95419c9.86408,0,18.9786-4.12047,24.97205-11.36258.37447-.49911,1.12343-.62434,1.62312-.49911.62434.24926.99883.74896.99883,1.37328v8.49019h17.10558v.12523ZM483.7814,387.45895c-13.73468,0-24.47234-11.11214-24.47234-25.34652s10.73766-25.34634,24.47234-25.34634,24.47234,11.11255,24.47234,25.34634-10.73766,25.34652-24.47234,25.34652Z"/><path class="cls-3" d="M671.07286,401.06901v-78.03748h-17.10558v7.86615c0,.62433-.37451,1.12374-.99881,1.37347-.62434.24973-1.24867,0-1.62314-.4994-5.74363-6.86734-14.73351-10.73796-24.97205-10.73796-21.4759,0-38.08237,17.97977-38.08237,41.07864s16.73112,40.9542,38.08237,40.9542c9.8635,0,18.9786-4.12047,24.97205-11.362.37447-.49969,1.1234-.62433,1.62314-.49969.62429.24985.99881.74896.99881,1.37328v8.49078h17.10558ZM630.24389,387.45895c-13.7347,0-24.47294-11.11214-24.47294-25.34652s10.73824-25.34634,24.47294-25.34634,24.47232,11.11255,24.47232,25.34634-10.73766,25.34652-24.47232,25.34652Z"/><path class="cls-3" d="M702.41284,391.82927c.12464,0,.37447-.12522.49911-.12522.37447,0,.87416.24985,1.12403.49969,5.86823,6.86705,14.98333,10.73766,24.97201,10.73766,21.35072,0,38.08184-17.97977,38.08184-40.9536,0-11.23736-3.87062-21.60113-10.98753-29.21737-7.11691-7.61648-16.73112-11.73683-27.09431-11.73683-9.86404,0-18.97855,4.12035-24.97201,11.23736-.37451.49946-.99881.62433-1.62314.49946-.62434-.24973-.99881-.74914-.99881-1.37347v-42.45235h-17.23081v112.12439h17.23081v-7.86645c0-.62434.37447-1.12345.99881-1.3733ZM700.66447,362.11244c0-14.23379,10.73824-25.34652,24.47294-25.34652s24.47232,11.11273,24.47232,25.34652-10.73824,25.34652-24.47232,25.34652-24.47294-11.23735-24.47294-25.34652Z"/><path class="cls-3" d="M816.90512,339.01328c1.62843,0,3.12169.12486,4.12107.37454v-17.7301c-.62317-.12486-1.74604-.24967-2.86886-.24967-8.98871,0-17.23081,4.61981-21.60467,11.9865-.37034.62433-.99351.87406-1.62256.62433-.62313-.12486-1.12282-.74914-1.12282-1.37346v-9.61422h-17.10738v78.16245h17.23081v-34.46162c0-17.10559,8.7418-27.71873,22.9744-27.71873Z"/><path class="cls-3" d="M849.37384,323.0313h-17.4836v78.16233h17.4836v-78.16233Z"/><path class="cls-3" d="M840.38513,289.06914c-5.87294,0-10.61714,4.74467-10.61714,10.61309s4.7442,10.61309,10.61714,10.61309c5.86707,0,10.61127-4.74468,10.61127-10.61309s-4.7442-10.61309-10.61127-10.61309Z"/><path class="cls-3" d="M900.56658,321.03379c-23.97383,0-41.32808,17.23064-41.32808,41.07864,0,11.61243,4.11515,21.97561,11.48722,29.46699,7.48958,7.49196,17.97741,11.61184,29.7115,11.61184,9.74123,0,17.23081-1.87241,31.46933-12.3608l-9.86466-10.36318c-6.99581,4.61957-13.486,6.86705-19.85276,6.86705-14.48539,0-25.34948-10.86288-25.34948-25.2219s10.8641-25.22148,25.34948-25.22148c6.86645,0,13.23321,2.24747,19.59997,6.86722l10.98748-10.36329c-12.85695-10.98763-24.47348-12.3611-32.21002-12.3611Z"/><path class="cls-3" d="M962.24711,366.73201c.24695-.24985.62317-.37448.99939-.37448h.12352c.37622,0,.7466.24985,1.12282.49911l27.59517,34.21177h21.22836l-35.71379-43.20166c-.49965-.62433-.49965-1.49792.12352-1.99762l32.83906-32.83813h-21.0991l-28.34177,28.46782c-.37622.37507-.99939.4997-1.62256.37507-.49974-.24985-.87596-.74955-.87596-1.37388v-61.43087h-17.35424v112.12391h17.23081v-30.46579c0-.37448.12343-.8736.49965-1.12344l3.24512-2.87181Z"/><path class="cls-3" d="M1041.40535,403.06604c14.10921,0,28.47112-8.61541,28.47112-24.97203,0-10.73766-6.74293-18.10441-20.47593-22.59935l-9.36488-3.12165c-6.37264-2.12284-9.36497-5.11927-9.36497-9.23974,0-4.74468,4.24451-7.99108,10.235-7.99108,5.74363,0,10.86401,3.7458,14.10912,10.23855l13.86226-7.49161c-5.12046-10.48822-15.73168-16.98096-27.97138-16.98096-15.4789,0-26.71921,9.98882-26.71921,23.59839,0,10.86288,6.49607,18.10499,19.85276,22.35008l9.61775,3.12165c6.7371,2.12225,9.61183,4.86943,9.61183,9.23915,0,6.61778-6.11985,8.99048-11.36375,8.99048-6.98989,0-13.23326-4.49495-16.23142-11.86169l-14.10912,7.49137c4.62072,11.86169,15.98447,19.22843,29.84081,19.22843Z"/><path class="cls-3" d="M572.55917,402.31708c5.49376,0,10.36377-.49911,13.11036-.87359v-14.98334c-2.24748.24985-6.24274.49911-8.61541.49911-6.99168,0-12.3608-1.24807-12.3608-16.35663v-32.08876c0-.874.62434-1.49827,1.49792-1.49827h16.85634v-14.10922h-16.85634c-.87358,0-1.49792-.62427-1.49792-1.49827v-22.47478h-17.23083v22.59964c0,.874-.62431,1.49827-1.4985,1.49827h-11.98633v14.10916h11.98633c.87418,0,1.4985.62433,1.4985,1.49834v36.3342c0,27.34414,18.22964,27.34414,25.09668,27.34414Z"/></g></g></svg>