<?xml version="1.0" encoding="UTF-8"?><svg id="LOGO" xmlns="http://www.w3.org/2000/svg" viewBox="0 0 1250 703"><path d="M813.138,333.058l-80.058-139.167c-3.002-5.34-7.357-9.798-12.624-12.932-5.267-3.142-11.253-4.846-17.392-4.959h-160.139c-6.128.106-12.125,1.818-17.387,4.952-5.267,3.142-9.622,7.599-12.629,12.939l-80.087,138.804c-3.047,5.301-4.644,11.293-4.644,17.404s1.597,12.108,4.644,17.404l80.058,139.966c2.985,5.42,7.306,9.968,12.573,13.213,5.256,3.251,11.265,5.074,17.443,5.318h160.139c6.179-.21,12.193-2.022,17.46-5.256,5.267-3.234,9.6-7.776,12.584-13.184l80.058-139.173c3.07-5.38,4.684-11.463,4.684-17.664s-1.614-12.278-4.684-17.664Z" fill="#4285f4" fill-rule="evenodd"/><path d="M645.858,270.013l-43.988,4.57-13.496,98.187-38.942.855-9.118,48.757,103.352,103.618h59.421c6.173-.215,12.176-2.027,17.432-5.267,5.261-3.234,9.588-7.787,12.573-13.201l54.714-95.265-141.948-142.254Z" fill="#3d7ce3" fill-rule="evenodd"/><path d="M711.525,374.877v.028c-3.176-5.498-7.725-10.071-13.206-13.273l.004-.002-59.195-34.244c2.373-1.472,4.588-3.214,6.587-5.213,5.68-5.686,9.333-13.088,10.387-21.057,1.048-7.98-.566-16.067-4.582-23.033-3.211-5.561-7.821-10.171-13.388-13.377-5.556-3.206-11.854-4.893-18.27-4.888-8.042,0-15.852,2.662-22.229,7.555-6.377,4.905-10.959,11.769-13.037,19.533-.805,3.009-1.212,6.087-1.235,9.161l-.005-.003v68.328c-2.46-1.322-5.064-2.367-7.776-3.091-4.638-1.246-9.481-1.557-14.243-.917-4.763.64-9.356,2.22-13.502,4.644-6.258,3.608-11.31,8.982-14.504,15.456-3.2,6.468-4.412,13.739-3.466,20.892.934,7.159,3.981,13.87,8.744,19.301,4.757,5.426,11.027,9.328,17.998,11.197,6.983,1.869,14.362,1.631,21.204-.685,3.166-1.072,6.148-2.571,8.878-4.434l56.711-32.674c.012.513.033,1.027.067,1.542.595,8.841,4.378,17.166,10.647,23.43,6.281,6.258,14.612,10.024,23.464,10.596,8.846.566,17.596-2.101,24.619-7.504,7.028-5.403,11.842-13.184,13.558-21.884,1.716-8.688.209-17.715-4.231-25.383ZM602.608,396.588c-.004-3.027-.387-6.03-1.129-8.946v-59.741c.05.029.097.06.147.089,2.524,1.457,5.198,2.592,7.959,3.403l52.097,30.155c-2.341,1.35-4.531,2.956-6.525,4.795l-52.549,30.245ZM606.497,284.63c2.832-3.24,6.751-5.341,11.021-5.913s8.597.43,12.182,2.82c3.585,2.39,6.179,5.998,7.3,10.16,1.121,4.157.685,8.586-1.218,12.448-1.903,3.862-5.142,6.909-9.124,8.552-3.981,1.654-8.427,1.795-12.505.413-4.078-1.388-7.51-4.202-9.662-7.934v.034c-1.552-2.701-2.379-5.754-2.379-8.858-.006-4.31,1.546-8.484,4.383-11.723ZM583.758,401.642c-.572,2.328-1.608,4.508-3.047,6.422s-3.256,3.528-5.329,4.718c-2.073,1.195-4.372,1.965-6.756,2.248-2.379.289-4.791.091-7.102-.589-2.294-.668-4.434-1.801-6.292-3.319-1.852-1.529-3.37-3.409-4.474-5.533v.028c-2.163-4.049-2.673-8.795-1.399-13.213,1.263-4.417,4.197-8.172,8.178-10.472,3.987-2.305,8.71-2.968,13.173-1.858,4.469,1.121,8.325,3.913,10.761,7.816,1.291,2.022,2.158,4.282,2.554,6.643.385,2.362.295,4.78-.266,7.108ZM696.149,397.349c-1.331,4.259-4.225,7.861-8.099,10.092-3.874,2.22-8.444,2.905-12.799,1.909s-8.172-3.602-10.693-7.295c-1.92-4.032-2.248-8.642-.912-12.907,1.336-4.259,4.231-7.867,8.104-10.087,3.874-2.231,8.438-2.911,12.794-1.914,4.361.997,8.172,3.602,10.698,7.283,1.909,4.038,2.237,8.648.906,12.918Z" fill="#fff" fill-rule="evenodd"/></svg>