<svg id="be9262c8-cea7-4e42-9a96-567bd8e9e866" data-name="Layer 4" xmlns="http://www.w3.org/2000/svg" viewBox="0 0 1250 703">
  <g>
    <path d="M312.39716,432.017H284.67273v70.67252h27.72443c24.7,0,35.5882-18.04632,35.286-35.94106-.30264-17.49169-11.09-34.73146-35.286-34.73146Zm-14.51748,12.6022h14.51748c15.324,0,21.77644,11.00584,22.07908,22.02839.30216,11.52648-6.04939,23.23846-22.07908,23.23846H297.87968V444.61921Z" fill="#38546b"/>
    <path d="M406.20256,482.22358c1.91572-20.46552-8.46852-30.74891-25.103-30.74891-16.13112,0-26.41406,10.8882-26.41406,26.01045,0,15.9293,10.1826,26.51488,27.321,26.51488,7.56156,0,16.131-2.62095,21.37336-8.06506l-7.86379-7.76289c-2.82264,2.92358-8.7711,4.63757-13.30782,4.63757-8.67026,0-14.01355-4.43628-14.82012-10.586Zm-38.61263-10.1821c1.81483-6.45239,7.25892-9.67861,13.91265-9.67861,7.05723,0,12.09783,3.22622,12.90439,9.67861Z" fill="#38546b"/>
    <path d="M417.8425,440.28381v12.804h-9.27514v10.58558h9.27514v21.47426c0,12.40043,7.05717,18.55022,17.84454,18.14668a27.47779,27.47779,0,0,0,10.1825-2.117l-3.42746-10.48519a14.05277,14.05277,0,0,1-5.94852,1.5127c-3.831,0-6.45194-2.31876-6.45194-7.0572V463.67336h13.8118V453.08778H430.142V438.97336l-12.29951,1.31045Z" fill="#38546b"/>
    <path d="M501.56624,482.22358c1.91573-20.46552-8.46856-30.74891-25.10306-30.74891-16.131,0-26.414,10.8882-26.414,26.01045,0,15.9293,10.18255,26.51488,27.32093,26.51488,7.5616,0,16.131-2.62095,21.37341-8.06506l-7.86379-7.76289c-2.82269,2.92358-8.77121,4.63757-13.30788,4.63757-8.67026,0-14.01355-4.43628-14.82-10.586Zm-38.61267-10.1821c1.81492-6.45239,7.259-9.67861,13.91265-9.67861,7.05722,0,12.09782,3.22622,12.90439,9.67861Z" fill="#38546b"/>
    <path d="M510.28255,452.98691v49.70262h12.29961V476.47728c0-9.17421,5.948-12.60217,12.40046-12.60217a12.28892,12.28892,0,0,1,8.872,3.22622l5.54454-10.68648c-2.72185-2.72229-7.662-4.73844-12.8035-4.73844-5.041,0-10.1825.90744-14.0135,7.05722l-.90746-5.74672Z" fill="#38546b"/>
    <path d="M598.64386,502.68953V476.0738c0-6.55284,4.13364-12.29957,10.78738-12.29957,6.65413,0,9.37593,5.545,9.37593,12.09828v26.817h12.29966v-26.817c0-14.921-6.95637-23.59127-21.07037-23.59127-6.45239,0-12.19907,2.01612-16.63489,9.07334-2.82269-6.85545-8.77126-9.27511-14.71927-9.27511-4.73842,0-10.48469,1.81485-13.10609,6.85543l-.90746-6.04889h-11.3921v49.80352h12.29956V476.0738c0-6.55284,3.93185-12.50133,10.58559-12.50133,6.755,0,10.18255,5.94849,10.18255,12.50133v26.61573Z" fill="#38546b"/>
    <path d="M655.14763,452.78514v49.90439H642.848V452.78514Zm-13.40882-13.81178c0,9.57775,14.51793,9.57775,14.51793,0,0-9.57727-14.51793-9.57727-14.51793,0Z" fill="#38546b"/>
    <path d="M714.37309,502.68953V476.57818c0-15.62666-9.376-24.39784-21.07077-24.39784-6.25065,0-11.2917,2.52053-16.33225,7.46073l-.80662-6.75506H665.17438v49.80352h12.19867V477.28385c0-7.56112,5.14195-13.91265,12.703-13.91265,7.86379,0,11.99743,5.74625,11.99743,13.30785v26.01048Z" fill="#38546b"/>
    <path d="M773.49736,482.22358c1.91563-20.46552-8.46867-30.74891-25.10321-30.74891-16.131,0-26.41391,10.8882-26.41391,26.01045,0,15.9293,10.18255,26.51488,27.32092,26.51488,7.56166,0,16.131-2.62095,21.37351-8.06506l-7.86389-7.76289c-2.82269,2.92358-8.77115,4.63757-13.30782,4.63757-8.67031,0-14.01355-4.43628-14.82007-10.586Zm-38.61278-10.1821c1.81483-6.45239,7.259-9.67861,13.9127-9.67861,7.05713,0,12.09783,3.22622,12.9043,9.67861Z" fill="#38546b"/>
    <path d="M806.30881,463.2703a14.18325,14.18325,0,0,1,14.41654,14.51746c0,8.97294-6.65354,14.61835-14.41654,14.61835-7.86369,0-14.11444-5.948-14.11444-14.61835,0-8.97247,6.25075-14.51746,14.11444-14.51746Zm15.2231-31.05152v27.52269c-2.92358-5.14147-11.09-7.96416-16.33235-7.96416-14.51743,0-25.30471,8.8716-25.30471,26.01045,0,16.33233,10.98907,26.011,25.6074,26.011,6.04886,0,12.19871-2.01662,16.02966-7.96466l.80657,6.85548h11.49305V432.21878Z" fill="#38546b"/>
    <path d="M923.16112,502.68953H937.679L906.02229,432.017H891.50476l-31.65635,70.67252H874.265l6.04936-13.30788h36.89865l5.94807,13.30788Zm-11.29126-25.70832H885.65759l13.10619-30.11063,13.10608,30.11063Z" fill="#f67b21"/>
    <polygon points="955.166 502.69 955.166 432.017 941.96 432.017 941.96 502.69 955.166 502.69 955.166 502.69" fill="#f67b21"/>
    <path d="M487.21893,191.79715a20.01391,20.01391,0,1,1-18.8482,21.11491,20.01439,20.01439,0,0,1,18.8482-21.11491Zm229.62166-17.29042a18.59426,18.59426,0,1,1-6.38543,35.60967l-.172.11991c-10.14066,2.38242-18.04489,8.26352-24.28253,16.74836a23.77671,23.77671,0,1,1-24.667-19.102,23.6651,23.6651,0,0,1,13.577,3.34754l.072-.0502a50.1393,50.1393,0,0,0,24.36486-16.78784l-.01862-.2683a18.59444,18.59444,0,0,1,17.51168-19.61709ZM603.922,180.60819a18.51581,18.51581,0,0,1,8.47832,1.51414l.1041-.073c9.08406-2.634,16.74976-7.45791,22.30035-15.54526a24.08441,24.08441,0,1,1,24.98409,19.33762,23.97059,23.97059,0,0,1-13.96155-3.519c-8.88321,1.621-16.455,6.511-22.29518,15.6996l.007.09814A18.59421,18.59421,0,1,1,603.922,180.60819ZM721.3067,299.13179a18.39379,18.39379,0,0,1,6.9.92042l.17572-.14549c13.37574-4.93324,22.85547-12.45211,27.76815-23.00926l.11481-.09534a14.92425,14.92425,0,1,1,12.41717,14.98928l-.03723.03067a59.71143,59.71143,0,0,0-28.00287,23.2013l-.02.01627q.09849.72107.14088,1.46064a18.44216,18.44216,0,1,1-19.45663-17.36849Zm-141.9378-7.524a21.62959,21.62959,0,1,1-19.23217,14.53049l-.02882-.07437c-3.72871-9.98406-11.43575-16.89159-21.34263-22.08464a24.07488,24.07488,0,1,1,13.8661-13.44921,44.84126,44.84126,0,0,0,21.28418,21.83545l.3142.16081a21.67844,21.67844,0,0,1,5.13914-.91853Zm111.61417,60.99945a20.88223,20.88223,0,1,1-15.7963,8.19566,73.75537,73.75537,0,0,0-12.65561-26.05187q-1.24821.19527-2.53681.26971a25.66274,25.66274,0,0,1-24.7232-36.42785,86.30892,86.30892,0,0,0-26.488-23.26906l-.24078-.23012a25.90288,25.90288,0,1,1,13.40322-14.04187l.08548.08127c5.98385,10.33044,14.48815,18.59952,24.66094,25.5098a25.68654,25.68654,0,0,1,25.3536.947,92.71292,92.71292,0,0,0,31.46947-28.0378l.01627-.01347a19.44055,19.44055,0,1,1,20.27026,16.17616,19.37075,19.37075,0,0,1-7.86279-1.17942l-.16321.13533c-12.8597,6.36451-23.6178,15.34251-33.16764,25.8259a25.68727,25.68727,0,0,1-5.95127,27.07544c2.65858,8.89532,7.56581,17.20584,14.32635,25.03519ZM522.71274,298.26381a13.28712,13.28712,0,1,1-12.51387,14.0177,13.28728,13.28728,0,0,1,12.51387-14.0177Zm-50.13356-45.54663a20.01362,20.01362,0,1,1-18.84865,21.11441,20.01384,20.01384,0,0,1,18.84865-21.11441Zm286.59309-40.63346a13.28707,13.28707,0,1,1-12.51387,14.01775,13.28653,13.28653,0,0,1,12.51387-14.01775ZM588.3461,140.58742a13.28713,13.28713,0,1,1-12.51347,14.0182,13.28738,13.28738,0,0,1,12.51347-14.0182Zm-45.94746,19.553a24.248,24.248,0,1,1-22.83625,25.58186,24.24853,24.24853,0,0,1,22.83625-25.58186Z" fill="#f67b21" fill-rule="evenodd"/>
  </g>
</svg>
