<?xml version="1.0" encoding="UTF-8"?>
<svg id="LOGO" xmlns="http://www.w3.org/2000/svg" viewBox="0 0 1250 703">
  <defs>
    <style>
      .cls-1 {
        fill: #f9ab00;
      }

      .cls-1, .cls-2 {
        stroke-width: 0px;
      }

      .cls-2 {
        fill: #e8710a;
      }
    </style>
  </defs>
  <path class="cls-2" d="M426.42,283.92l-62.54-62.81c-71.84,71.99-71.84,188.55,0,260.54l62.81-62.81c-37.26-37.22-37.38-97.56-.27-134.93Z"/>
  <path class="cls-1" d="M363.88,221.11l62.54,62.81c37.29-37.33,97.78-37.37,135.11-.08.03.03.05.05.08.08l45.51-77.98h0l-2.66-2.13h0c-73.37-54.74-175.79-47.38-240.58,17.3Z"/>
  <path class="cls-1" d="M607.39,496.82h0l-45.77-77.71c-37.29,37.33-97.78,37.37-135.11.08-.03-.03-.05-.05-.08-.08l-62.54,62.81c64.63,64.07,166.35,71.42,239.52,17.3l2.93-2.4"/>
  <path class="cls-1" d="M624.95,221.11c-71.84,71.99-71.84,188.55,0,260.54l62.81-62.81c-37.33-37.33-37.33-97.86,0-135.19,37.33-37.33,97.86-37.33,135.19,0l63.07-62.54c-71.95-72.09-188.73-72.21-260.82-.25-.08.08-.17.17-.25.25Z"/>
  <path class="cls-2" d="M886.02,221.11l-62.54,62.81c37.33,37.33,37.33,97.86,0,135.19-37.33,37.33-97.86,37.33-135.19,0h0l-63.34,62.81c72.02,72.09,188.85,72.15,260.94.13,72.09-72.02,72.15-188.85.13-260.94h0Z"/>
</svg>