<?xml version="1.0" encoding="UTF-8"?><svg id="LOGO" xmlns="http://www.w3.org/2000/svg" viewBox="0 0 1250 703"><defs><style>.cls-1{fill:rgba(255,255,255,0);}.cls-1,.cls-2,.cls-3,.cls-4{stroke-width:0px;}.cls-2{fill:#c01c2d;}.cls-3{fill:#444b59;}.cls-4{fill:#94aac4;}</style></defs><rect id="rect5474" class="cls-1" x="221.65579" y="190.42658" width="810.27482" height="310.20982"/><rect id="rect5453" class="cls-1" x="255.65248" y="192.22348" width="306.61608" height="306.61608"/><g id="g5514"><g id="g5413"><path id="path1008-3" class="cls-3" d="m654.18475,413.26992c0-6.92824-1.37315-12.37567-4.1211-16.34481-2.74967-3.96477-6.67031-5.94901-11.76692-5.94901-5.09498,0-9.04425,1.98424-11.83939,5.94901-2.79853,3.96915-4.19525,9.41658-4.19525,16.34481,0,6.92958,1.39674,12.42706,4.19525,16.49443,2.79515,4.06721,6.74442,6.10098,11.83939,6.10098,5.09664,0,9.01728-2.03377,11.76692-6.10098,2.74797-4.06738,4.1211-9.56485,4.1211-16.49443Zm22.78074,0c0,6.22869-.89803,11.92497-2.69743,17.09929-1.7977,5.17229-4.39744,9.59039-7.79237,13.25492-3.40002,3.66782-7.47229,6.50308-12.21513,8.51173-4.7462,2.00799-10.06861,3.01231-15.96386,3.01231-5.79419,0-11.06605-1.00432-15.81057-3.01231-4.74788-2.00865-8.82015-4.84392-12.2151-8.51173-3.39832-3.66453-6.04689-8.08262-7.94403-13.25492-1.89881-5.17432-2.84739-10.8706-2.84739-17.09929,0-6.226.97384-11.90037,2.9232-17.02212,1.94767-5.12158,4.64511-9.49105,8.0923-13.10621,3.44718-3.61449,7.54303-6.42481,12.28923-8.43465,4.7462-2.00799,9.91698-3.01233,15.51236-3.01233,5.69644,0,10.91607,1.00433,15.66227,3.01233,4.7462,2.00985,8.81845,4.82016,12.2168,8.43465,3.39495,3.61516,6.04354,7.98463,7.94235,13.10621,1.89712,5.12175,2.84736,10.79613,2.84736,17.02212"/><path id="path1010-4" class="cls-3" d="m717.3427,454.54466c-6.49675-.10075-11.76525-.80359-15.81056-2.10935-4.04867-1.30245-7.24649-3.1367-9.59349-5.49745-2.34866-2.35878-3.94926-5.22104-4.79505-8.5861-.85085-3.36439-1.27373-7.15529-1.27373-11.37261v-71.97304l22.33089-18.86367v86.31645c0,2.01204.14826,3.81802.44818,5.42384.30159,1.60717.87443,2.96364,1.72528,4.0667.84749,1.10559,2.07235,2.01187,3.67127,2.71276,1.59723.70292,3.74709,1.15445,6.44451,1.35444l-3.14728,18.52803"/><path id="path1012-1" class="cls-3" d="m775.8539,413.26992c0-6.92824-1.37482-12.37567-4.12112-16.34481-2.74967-3.96477-6.66859-5.94901-11.76525-5.94901-5.09496,0-9.04422,1.98424-11.84107,5.94901-2.79684,3.96915-4.19526,9.41658-4.19526,16.34481,0,6.92958,1.39842,12.42706,4.19526,16.49443,2.79684,4.06721,6.7461,6.10098,11.84107,6.10098,5.09664,0,9.01558-2.03377,11.76525-6.10098,2.7463-4.06738,4.12112-9.56485,4.12112-16.49443Zm22.78074,0c0,6.22869-.89803,11.92497-2.69576,17.09929-1.8011,5.17229-4.39911,9.59039-7.79409,13.25492-3.39832,3.66782-7.47227,6.50308-12.2151,8.51173-4.74787,2.00799-10.06861,3.01231-15.96219,3.01231-5.79586,0-11.06772-1.00432-15.81392-3.01231-4.7445-2.00865-8.81845-4.84392-12.2134-8.51173-3.39832-3.66453-6.04521-8.08262-7.94235-13.25492-1.90051-5.17432-2.84906-10.8706-2.84906-17.09929,0-6.226.97384-11.90037,2.9215-17.02212,1.94936-5.12158,4.64679-9.49105,8.09398-13.10621,3.44719-3.61449,7.54471-6.42481,12.29092-8.43465,4.7445-2.00799,9.91528-3.01233,15.51234-3.01233,5.69477,0,10.91609,1.00433,15.6623,3.01233,4.74283,2.00985,8.81678,4.82016,12.2151,8.43465,3.39665,3.61516,6.04354,7.98463,7.94402,13.10621,1.89545,5.12175,2.84569,10.79613,2.84569,17.02212"/><path id="path1014-6" class="cls-4" d="m917.24577,453.03883h-22.33089v-79.23632h22.33089v79.23632Zm2.09932-102.13365c0,4.11927-1.32595,7.35806-3.97286,9.71682-2.64856,2.36014-5.76892,3.53951-9.36771,3.53951-3.59715,0-6.71916-1.17937-9.36771-3.53951-2.64691-2.35876-3.97116-5.59755-3.97116-9.71682,0-4.11723,1.3243-7.35602,3.97116-9.71612,2.64856-2.35743,5.77056-3.5402,9.36771-3.5402,3.5988,0,6.71916,1.18276,9.36771,3.54018,2.64691,2.3601,3.97286,5.5989,3.97286,9.71612"/><path id="path1020-4" class="cls-4" d="m886.77039,345.08067h-23.28956l-25.57928,61.9988-25.59105-61.9988h-24.12018l20.74039,45.04255-.12805-.18499,28.67768,63.1006,38.86422-85.309,10.42578-22.64916"/><path id="path1022-3" class="cls-3" d="m534.48519,388.86684v-39.91895h-.0219v-3.71187l-23.35864,11.10801v96.99819h23.38054v-64.47538"/><path id="path1024-1" class="cls-3" d="m565.44247,356.34403l-.0219,32.52282h-23.87925v20.18373h23.87927v44.29165h23.38054v-108.1062l-23.35864,11.10801"/><path id="path1069" class="cls-4" d="m928.95981,446.86899c0-5.2971.45628-7.53851,2.0823-10.22576,3.1725-5.24348,14.33493-20.24874,24.2325-32.5749,4.88444-6.08287,8.88084-11.32659,8.88084-11.65259,0-.32626-7.49093-.59271-16.6466-.59271h-16.64655v-18.07344h61.83016v15.39768l-7.44173,8.2343c-13.31199,14.72985-29.65636,35.31527-29.65636,37.3516,0,.46648,8.54339.84656,19.02465.84656h19.02465v18.07346h-64.68387v-6.78418Z"/></g><g id="g5449"><g id="g5432"><path id="path992" class="cls-2" d="m259.95191,379.2875l54.78043,90.36586,7.04528-9.28195-48.20939-79.52822-13.61655-1.55566"/><path id="path994" class="cls-4" d="m280.16333,373.01641l-20.22045,6.26392,49.38596,5.65089-24.54349-2.80585,42.79672,70.59896,45.8888-60.45626.01191.00227,43.02465,105.8514.59979-21.15812-37.63439-92.58612-99.30951-11.3611Zm-20.21173,6.27054l54.78075,90.36641,7.04488-9.28142-48.20921-79.5286-13.61642-1.55639Z"/><path id="path1000" class="cls-3" d="m421.28466,329.29424l-119.95117,37.16228,84.41298,9.65756h0l31.98744,78.69506,3.55076-125.5149Z"/></g><g id="g5437"><path id="path5211" class="cls-2" d="m557.96941,311.77519l-54.78043-90.36586-7.0453,9.28183,48.20939,79.52822,13.61655,1.55566"/><path id="path5213" class="cls-4" d="m401.41203,192.94125l-.5984,21.15787,37.63323,92.58628,99.31092,11.36102,20.22045-6.26392-50.2018-5.74325,25.35931,2.89809-42.79672-70.59896-45.88781,60.45482-.01176-.00111-43.02742-105.85085Zm101.77673,28.46822l-7.04488,9.28142,48.20921,79.5286,13.61647,1.55508-54.7808-90.3651Z"/><path id="path5219" class="cls-3" d="m400.18717,236.25358l-3.55091,125.51374,119.95134-37.161-84.41299-9.65767h0l-31.98744-78.69506Z"/></g></g></g></svg>