<?xml version="1.0" encoding="UTF-8"?>
<svg id="INSTRUCTIONS" xmlns="http://www.w3.org/2000/svg" viewBox="0 0 1250 703">
  <defs>
    <style>
      .cls-1 {
        fill: #0acc9e;
      }
    </style>
  </defs>
  <g>
    <path class="cls-1" d="M142.7667,380.63956q.23149-.23149.46299-.46298c8.10233-7.87083,15.04718-17.82511,15.74166-29.63136.92598-17.36213-10.88027-27.31641-21.76053-38.19668-5.09289-5.09289-8.56532-11.34326-10.64877-18.28811-3.24093-11.57475-1.38897-24.30698,5.09289-34.26126,17.82511-26.85342,59.95721-23.61249,72.92093,6.25037,6.94485,15.97316,2.54644,33.79828-9.02831,46.0675-10.41728,10.88027-22.22352,20.60306-22.45502,37.50219,0,15.04718,9.72279,25.23295,18.98259,35.18724,9.2598,9.95429,15.27867,21.52904,14.81568,35.18724-.69448,12.73223-7.63933,24.30698-18.28811,31.25183-22.91801,14.81568-55.5588.69449-61.80917-25.69594-4.3984-16.89914,4.16692-33.10379,15.97316-44.91004Z"/>
    <circle class="cls-1" cx="254.3473" cy="349.38773" r="40.97461"/>
  </g>
  <g>
    <path d="M354.58465,405.40952v-117.59946h2.31495c13.42672,0,24.07547,10.88027,24.07547,24.07549v93.75548h-26.39042v-.23151Z"/>
    <path d="M356.8996,403.09457v-112.96956h0c12.03773,0,21.76052,9.72279,21.76052,21.76054v91.20904s-21.76052,0-21.76052-.00002Z"/>
    <path d="M464.0818,456.80142c-30.78884,0-51.85487-13.8897-59.49421-39.35415l-.92597-3.00944h26.85344l.69449,1.62046c5.78738,14.35268,21.06606,17.36213,32.87229,17.36213,24.30698,0,36.11324-12.50073,36.11324-38.19668v-5.55588c-9.02829,11.11177-23.61248,17.82511-40.04864,17.82511-28.70537,0-59.72572-18.98258-59.72572-61.11469,0-35.88173,26.62193-61.80917,63.19815-61.80917,37.50219,0,62.73516,25.23295,62.73516,62.73515v46.53049c-.00007,40.04866-22.68659,62.96667-62.27222,62.96667ZM463.61878,309.57059c-21.52904,0-36.57622,15.04718-36.57622,37.0392,0,21.52903,14.81567,35.88174,36.57622,35.88174s36.57622-14.35268,36.57622-35.88173c-.23147-21.76054-15.04718-37.03921-36.57622-37.03921Z"/>
    <path d="M502.27848,382.72302h-.23151c-7.87082,13.8897-22.91799,22.45501-42.13209,22.45501-29.39986,0-57.17926-20.14006-57.17926-58.56824,0-34.26126,25.23294-59.49422,60.8832-59.49422s60.42021,24.07549,60.42021,60.4202v46.53049c0,43.52105-26.62193,60.4202-59.9572,60.4202-27.7794,0-49.30845-11.57475-57.17926-37.73369h22.22354c5.32439,12.96372,18.5196,18.75109,34.95576,18.75109,22.91799,0,38.42819-11.11177,38.42819-40.51163l-.23158-12.26921h0ZM463.61878,307.25564c-23.38101,0-38.89117,16.43614-38.89117,39.35415s15.51016,38.19669,38.89117,38.19669,38.89117-15.27867,38.89117-38.19668c-.23147-22.91801-15.74167-39.35416-38.89117-39.35416Z"/>
    <path d="M604.13628,408.65045c-36.34471,0-58.33674-22.22352-58.33674-59.26272v-61.57767h26.39042v61.34618c0,22.22352,11.11177,34.49276,31.71481,34.49276,20.37157,0,31.71481-12.26924,31.71481-34.49276v-61.34618h26.39045v61.34618c.46295,37.27069-21.52904,59.49421-57.87375,59.49421Z"/>
    <path d="M638.16604,290.12501h21.76055v59.03123c0,37.5022-22.45501,56.94777-55.79031,56.94777s-55.79031-19.21409-55.79031-56.94777v-59.03123h21.76052v59.03123c0,24.30698,13.65819,36.80771,34.02976,36.80771s34.02976-12.50073,34.02976-36.80771v-59.03123h.00004Z"/>
    <path d="M740.02382,408.65045c-29.63133,0-59.72569-21.29753-59.72569-61.80917,0-35.88173,26.62193-61.80917,63.19811-61.80917,37.0392,0,62.73516,25.69594,62.73516,62.73515v57.64226h-24.53849v-17.59362c-8.79678,13.19523-23.61245,20.83455-41.6691,20.83455ZM743.72775,309.57059c-21.52901,0-36.57618,15.04718-36.57618,37.0392s15.04718,37.03921,36.57618,37.03921,36.57618-15.04718,36.57618-37.0392-15.27861-37.03921-36.57618-37.03921Z"/>
    <path d="M804.14796,403.09457h-19.90859v-23.61248h-.46302c-6.94485,15.97316-22.91799,26.62193-43.75254,26.62193-29.3999,0-57.1793-21.06604-57.1793-59.49422,0-34.26126,25.23294-59.49422,60.88316-59.49422s60.42021,24.30698,60.42021,60.4202l.00007,55.5588h0ZM782.61896,346.60979c0-22.918-15.51019-39.35415-38.89113-39.35415s-38.89113,16.43614-38.89113,39.35415,15.51019,39.35416,38.89113,39.35416,38.89113-16.43616,38.89113-39.35416Z"/>
    <path d="M825.44553,405.40952v-21.06604l69.4485-72.45794h-66.20759v-24.07548h103.01528v2.31495c0,12.26923-4.6299,23.61249-12.96374,32.17781l-56.48477,58.79974h71.76345v24.30698s-108.57115,0-108.57115-.00002Z"/>
    <path d="M827.99192,403.09457v-17.82511l72.22647-75.23588v-.46299h-68.98549v-19.44558h98.38538c0,11.34326-4.6299,22.45502-12.50072,30.78884l-59.72569,62.50365v.69449h74.54142v19.44558l-103.94139-.463h0Z"/>
    <path d="M954.61972,405.40952v-117.59946h2.31495c13.42668,0,24.07547,10.88027,24.07547,24.07549v93.75548h-26.39042v-.23151Z"/>
    <path d="M956.93467,403.09457v-112.96956h0c12.03777,0,21.76052,9.72279,21.76052,21.76054v91.20904s-21.76052,0-21.76052-.00002Z"/>
    <path d="M1061.80189,408.65045c-36.57618,0-63.19811-25.92743-63.19811-61.80917s26.62193-61.80917,63.19811-61.80917,63.19811,25.92744,63.19811,61.80917-26.39035,61.80917-63.19811,61.80917ZM1061.80189,309.57059c-21.52901,0-36.57618,15.04718-36.57618,37.0392s15.04718,37.03921,36.57618,37.03921,36.57618-15.04718,36.57618-37.0392-14.8156-37.03921-36.57618-37.03921Z"/>
    <path d="M1063.8854,406.3355c-35.65022,0-60.88316-25.23296-60.88316-59.49422s25.23294-59.49422,60.88316-59.49422,60.88316,25.23296,60.88316,59.49423-25.00143,59.49421-60.88316,59.49421ZM1102.77653,346.60979c0-22.918-15.51019-39.35415-38.89113-39.35415s-38.89113,16.43614-38.89113,39.35415,15.51019,39.35416,38.89113,39.35416,38.89113-16.43616,38.89113-39.35416Z"/>
    <path d="M367.31688,241.97405c4.39839,0,8.10233,1.62047,11.11177,4.6299s4.6299,6.94485,4.6299,11.11176-1.62046,8.10233-4.6299,11.11176c-3.24092,3.24093-6.71334,4.6299-11.11177,4.6299s-8.10233-1.62047-11.11177-4.6299c-3.24093-3.24093-4.6299-6.94485-4.6299-11.34325s1.62046-7.87083,4.6299-11.11176c3.00944-3.00943,6.94485-4.3984,11.11177-4.3984Z"/>
    <path d="M968.50943,241.97405c4.39839,0,8.10233,1.62047,11.11173,4.6299,3.00941,3.00943,4.6299,6.94485,4.6299,11.11176s-1.62049,8.10233-4.6299,11.11176c-3.24092,3.24093-6.71334,4.6299-11.11173,4.6299s-8.10233-1.62047-11.11173-4.6299c-3.24092-3.24093-4.6299-6.94485-4.6299-11.34325s1.62049-7.87083,4.6299-11.11176c3.00941-3.00943,6.71334-4.3984,11.11173-4.3984Z"/>
  </g>
</svg>