<?xml version="1.0" encoding="UTF-8"?><svg id="LOGO" xmlns="http://www.w3.org/2000/svg" viewBox="0 0 1250 703"><path d="M539.269,368.949l43.728,53.775h-34.529l-38.916-49.388v49.388h-28.303v-141.514h28.303v83.21l35.944-40.756h36.086l-42.313,45.284ZM426.058,320.835c-12.586.164-24.283,6.515-31.274,16.982v-14.151h-26.746v99.059h28.303v-46.275c-1.557-13.431,8.069-25.581,21.5-27.138.098-.011.196-.022.294-.032h1.698c16.416-.142,18.963,15.991,18.963,27.171v46.275h28.303v-52.502c0-31.133-10.33-49.388-40.473-49.388h-.566ZM679.368,375.459c.142,2.073.142,4.153,0,6.227h-74.295v.991c2.491,12.19,13.466,20.766,25.897,20.236,9.646.419,19.047-3.106,26.038-9.764l18.821,14.151c-12.053,12.325-28.768,18.96-45.992,18.255-27.19,1.695-50.617-18.947-52.36-46.133-.142-2.309-.142-4.625,0-6.934-.553-27.928,21.603-51.034,49.53-51.652h3.679c26.605,0,48.681,18.821,48.681,54.624ZM653.046,363.289c-.381-11.326-9.871-20.199-21.197-19.818-.057.002-.114.004-.171.006h-1.132c-12.466-1.423-23.783,7.379-25.472,19.812h47.973ZM254.827,281.211h-28.303v141.514h84.908v-28.303h-56.605v-113.211ZM764.276,281.211h28.303v141.514h-26.746v-9.906c-6.901,8.467-17.389,13.186-28.303,12.736-26.642-.694-47.677-22.854-46.983-49.496,0-.011,0-.022,0-.034-.067-.942-.067-1.888,0-2.83-2.708-26.042,16.208-49.348,42.249-52.056.068-.007.136-.014.205-.021h4.245c9.93-.451,19.623,3.12,26.888,9.906l.141-49.813ZM766.398,373.195c1.678-12.65-7.172-24.282-19.812-26.038h-3.113c-13.48.983-23.717,12.538-23.067,26.038-.73,13.554,9.528,25.197,23.067,26.18,12.661.078,22.988-10.122,23.067-22.783,0-.095,0-.189,0-.284.095-1.039.047-2.087-.142-3.113ZM339.735,278.381c-9.442.134-17.17,7.553-17.689,16.982,0,9.769,7.92,17.689,17.689,17.689s17.689-7.92,17.689-17.689c-.52-9.429-8.247-16.847-17.689-16.982ZM325.584,422.725h28.303v-99.059h-28.303v99.059ZM1019,267.06v169.816c0,7.816-6.336,14.151-14.151,14.151h-169.816c-7.816,0-14.151-6.336-14.151-14.151v-169.816c0-7.816,6.336-14.151,14.151-14.151h169.816c7.816,0,14.151,6.336,14.151,14.151ZM877.486,323.665h-28.303v99.059h28.303v-99.059ZM881.024,295.362c0-9.769-7.92-17.689-17.689-17.689s-17.689,7.92-17.689,17.689,7.92,17.689,17.689,17.689,17.689-7.92,17.689-17.689ZM990.697,370.223c0-31.133-10.33-49.388-40.473-49.388-12.78.002-24.72,6.369-31.841,16.982v-14.151h-26.746v99.059h28.303v-46.275c-1.557-13.431,8.069-25.581,21.5-27.138.098-.011.196-.022.294-.032h1.698c16.416-.142,18.963,15.991,18.963,27.171v46.275h28.303v-52.502Z" fill="#0a66c2"/></svg>