<?xml version="1.0" encoding="UTF-8"?><svg id="LOGO" xmlns="http://www.w3.org/2000/svg" xmlns:xlink="http://www.w3.org/1999/xlink" viewBox="0 0 1250 703"><defs><clipPath id="clippath"><rect x="124.362" y="242.061" width="1000.638" height="222.87" fill="none"/></clipPath><clipPath id="clippath-1"><rect x="124.362" y="242.061" width="1000.638" height="222.87" fill="none"/></clipPath></defs><g clip-path="url(#clippath)"><path d="M383.827,390.756v-110.363h15.096l58.414,86.648v-86.648h14.109v110.363h-15.096l-58.413-86.724v86.724h-14.111Z" fill="#4d4d4d"/><path d="M550.515,365.01l14.111,1.732c-2.226,8.181-6.348,14.527-12.365,19.046-6.019,4.515-13.706,6.776-23.062,6.776-11.785,0-21.128-3.601-28.03-10.804-6.904-7.2-10.356-17.302-10.356-30.301,0-13.449,3.49-23.889,10.469-31.317,6.979-7.426,16.032-11.142,27.158-11.142,10.772,0,19.572,3.641,26.401,10.916,6.827,7.278,10.241,17.516,10.241,30.716,0,.802-.026,2.007-.077,3.612h-60.081c.505,8.784,3.008,15.508,7.51,20.178,4.5,4.666,10.113,7,16.84,7,5.007,0,9.281-1.303,12.821-3.915,3.539-2.609,6.347-6.773,8.42-12.496ZM505.683,343.103h44.985c-.607-6.724-2.327-11.768-5.158-15.131-4.35-5.219-9.989-7.83-16.917-7.83-6.271,0-11.544,2.084-15.817,6.248-4.275,4.167-6.638,9.738-7.092,16.713Z" fill="#4d4d4d"/><path d="M609.565,378.635l1.972,11.971c-3.844.804-7.283,1.204-10.317,1.204-4.957,0-8.8-.778-11.531-2.333s-4.653-3.601-5.765-6.135c-1.113-2.533-1.67-7.867-1.67-15.999v-45.996h-10.013v-10.539h10.013v-19.799l13.58-8.131v27.93h13.731v10.539h-13.731v46.751c0,3.865.239,6.35.721,7.452.48,1.103,1.264,1.982,2.351,2.635,1.088.653,2.642.978,4.666.978,1.516,0,3.514-.174,5.993-.528Z" fill="#4d4d4d"/><path d="M638.875,390.756l-24.657-79.948h14.111l12.821,46.146,4.777,17.165c.203-.853,1.596-6.35,4.173-16.486l12.821-46.825h14.034l12.061,46.372,4.022,15.282,4.626-15.433,13.808-46.221h13.279l-25.189,79.948h-14.185l-12.821-47.878-3.111-13.626-16.309,61.505h-14.26Z" fill="#4d4d4d"/><path d="M730.035,350.782c0-14.804,4.144-25.771,12.441-32.897,6.927-5.922,15.372-8.884,25.337-8.884,11.077,0,20.128,3.603,27.157,10.804,7.032,7.201,10.546,17.152,10.546,29.848,0,10.288-1.555,18.381-4.666,24.278-3.108,5.897-7.635,10.476-13.578,13.738s-12.429,4.896-19.458,4.896c-11.28,0-20.395-3.59-27.348-10.766s-10.43-17.513-10.43-31.016ZM744.069,350.782c0,10.238,2.249,17.905,6.75,22.998,4.501,5.096,10.166,7.641,16.994,7.641,6.776,0,12.415-2.56,16.916-7.679,4.501-5.119,6.753-12.923,6.753-23.412,0-9.887-2.264-17.377-6.791-22.472-4.527-5.093-10.154-7.641-16.878-7.641-6.828,0-12.493,2.535-16.994,7.603-4.501,5.07-6.75,12.722-6.75,22.961Z" fill="#4d4d4d"/><path d="M821.526,390.756v-79.948h12.29v12.12c3.134-5.67,6.03-9.411,8.686-11.218s5.575-2.71,8.761-2.71c4.603,0,9.281,1.457,14.034,4.367l-4.704,12.571c-3.337-1.957-6.675-2.935-10.012-2.935-2.986,0-5.665.891-8.041,2.671-2.377,1.783-4.071,4.254-5.084,7.416-1.515,4.817-2.275,10.087-2.275,15.809v41.857h-13.654Z" fill="#4d4d4d"/><path d="M874.888,390.756v-110.363h13.657v62.935l32.317-32.521h17.676l-30.802,29.66,33.91,50.289h-16.84l-26.626-40.877-9.635,9.185v31.693h-13.657Z" fill="#4d4d4d"/><path d="M942.937,390.756l43.013-57.514-37.929-52.848h17.522l20.18,28.306c4.196,5.872,7.18,10.389,8.953,13.551,2.475-4.015,5.409-8.205,8.799-12.573l22.38-29.284h16.004l-39.067,52.02,42.102,58.343h-18.207l-27.993-39.373c-1.567-2.258-3.186-4.716-4.855-7.377-2.478,4.016-4.249,6.775-5.311,8.281l-27.917,38.469h-17.676Z" fill="#4d4d4d"/></g><g clip-path="url(#clippath-1)"><path d="M386.289,453.053v-39.415h5.392l20.861,30.947v-30.947h5.039v39.415h-5.39l-20.862-30.973v30.973h-5.039Z" fill="#4d4d4d"/><path d="M445.378,443.857l5.039.621c-.795,2.919-2.268,5.189-4.417,6.802-2.15,1.611-4.896,2.417-8.236,2.417-4.209,0-7.547-1.286-10.012-3.857s-3.699-6.178-3.699-10.822c0-4.803,1.246-8.532,3.739-11.184,2.493-2.652,5.726-3.982,9.7-3.982,3.847,0,6.989,1.3,9.429,3.9,2.438,2.6,3.658,6.257,3.658,10.97,0,.287-.01.717-.028,1.291h-21.459c.181,3.137,1.075,5.537,2.683,7.206,1.608,1.666,3.613,2.499,6.014,2.499,1.789,0,3.314-.464,4.579-1.399,1.264-.932,2.266-2.417,3.008-4.463ZM429.365,436.033h16.067c-.218-2.4-.831-4.202-1.843-5.403-1.554-1.863-3.567-2.795-6.042-2.795-2.239,0-4.122.743-5.649,2.232-1.526,1.486-2.371,3.477-2.533,5.966Z" fill="#4d4d4d"/><path d="M467.353,448.724l.704,4.275c-1.373.287-2.6.432-3.684.432-1.77,0-3.143-.279-4.118-.836-.975-.554-1.663-1.286-2.059-2.191-.398-.903-.596-2.809-.596-5.711v-16.428h-3.577v-3.764h3.577v-7.072l4.849-2.902v9.974h4.904v3.764h-4.904v16.695c0,1.381.086,2.269.258,2.664.171.392.451.708.84.94.387.232.943.348,1.666.348.541,0,1.255-.061,2.14-.189Z" fill="#4d4d4d"/><path d="M475.38,453.053l-8.806-28.553h5.039l4.579,16.48,1.706,6.129c.073-.302.569-2.266,1.49-5.885l4.579-16.724h5.012l4.308,16.562,1.436,5.459,1.653-5.514,4.93-16.507h4.742l-8.996,28.553h-5.065l-4.579-17.099-1.111-4.867-5.824,21.965h-5.093Z" fill="#4d4d4d"/><path d="M508.215,438.776c0-5.287,1.48-9.202,4.443-11.747,2.474-2.116,5.491-3.175,9.05-3.175,3.955,0,7.188,1.288,9.698,3.86s3.767,6.126,3.767,10.659c0,3.677-.556,6.567-1.667,8.671-1.11,2.107-2.726,3.744-4.849,4.907-2.123,1.167-4.439,1.747-6.949,1.747-4.029,0-7.284-1.28-9.768-3.845-2.484-2.562-3.725-6.254-3.725-11.077ZM513.226,438.776c0,3.657.804,6.396,2.412,8.216s3.63,2.728,6.07,2.728c2.419,0,4.433-.914,6.04-2.742,1.608-1.828,2.412-4.614,2.412-8.361,0-3.532-.808-6.207-2.425-8.027s-3.626-2.728-6.027-2.728c-2.439,0-4.462.905-6.07,2.716s-2.412,4.542-2.412,8.198Z" fill="#4d4d4d"/><path d="M541,453.053v-28.553h4.389v4.327c1.12-2.023,2.155-3.361,3.102-4.005.949-.644,1.992-.969,3.13-.969,1.644,0,3.314.522,5.012,1.561l-1.679,4.489c-1.193-.699-2.385-1.048-3.577-1.048-1.066,0-2.023.316-2.872.955-.85.636-1.455,1.518-1.815,2.647-.543,1.721-.814,3.604-.814,5.647v14.948h-4.877Z" fill="#4d4d4d"/><path d="M558.838,453.053v-39.415h4.877v22.476l11.543-11.614h6.312l-10.999,10.592,12.11,17.96h-6.014l-9.51-14.6-3.442,3.282v11.318h-4.877Z" fill="#4d4d4d"/><path d="M595.125,453.053l15.253-39.415h5.663l16.255,39.415h-5.987l-4.633-11.939h-16.608l-4.363,11.939h-5.581ZM606.585,436.869h13.465l-4.144-10.917c-1.265-3.314-2.204-6.039-2.818-8.172-.506,2.528-1.22,5.035-2.14,7.528l-4.363,11.562Z" fill="#4d4d4d"/><path d="M634.429,453.053v-28.553h4.391v4.06c2.113-3.137,5.166-4.707,9.156-4.707,1.735,0,3.329.311,4.782.929s2.542,1.431,3.265,2.435,1.228,2.194,1.518,3.575c.18.897.27,2.464.27,4.704v17.557h-4.875v-17.368c0-1.97-.189-3.445-.569-4.423s-1.053-1.756-2.02-2.339-2.098-.873-3.398-.873c-2.078,0-3.871.653-5.38,1.962-1.506,1.309-2.261,3.79-2.261,7.446v15.595h-4.878Z" fill="#4d4d4d"/><path d="M684.23,449.53c-1.805,1.524-3.543,2.6-5.215,3.227s-3.462.94-5.377.94c-3.16,0-5.592-.766-7.29-2.298s-2.545-3.491-2.545-5.874c0-1.399.319-2.676.961-3.831.641-1.158,1.483-2.084,2.522-2.783,1.036-.699,2.206-1.228,3.509-1.587.955-.25,2.4-.493,4.333-.725,3.938-.467,6.837-1.021,8.697-1.666.017-.665.029-1.085.029-1.265,0-1.97-.461-3.361-1.384-4.167-1.245-1.094-3.096-1.64-5.552-1.64-2.295,0-3.987.398-5.081,1.196s-1.901,2.211-2.426,4.234l-4.768-.644c.435-2.026,1.146-3.659,2.142-4.907.992-1.245,2.429-2.203,4.307-2.876,1.88-.673,4.057-1.01,6.529-1.01,2.458,0,4.455.287,5.99.862s2.664,1.294,3.387,2.165c.72.868,1.228,1.968,1.515,3.294.163.824.244,2.31.244,4.463v6.451c0,4.501.104,7.345.313,8.538.206,1.193.618,2.333,1.233,3.427h-5.096c-.505-1.004-.83-2.176-.975-3.523ZM683.824,438.723c-1.77.717-4.426,1.326-7.966,1.828-2.002.287-3.421.609-4.251.966-.833.36-1.474.885-1.924,1.573-.453.691-.679,1.457-.679,2.301,0,1.288.493,2.365,1.477,3.224.984.862,2.426,1.291,4.321,1.291,1.88,0,3.549-.406,5.015-1.225,1.463-.815,2.536-1.93,3.224-3.346.522-1.094.784-2.708.784-4.841v-1.773Z" fill="#4d4d4d"/><path d="M696.375,453.053v-39.415h4.878v39.415h-4.878Z" fill="#4d4d4d"/><path d="M707.374,464.049l-.543-4.542c1.065.284,1.997.429,2.792.429,1.082,0,1.95-.18,2.6-.54.65-.357,1.181-.859,1.599-1.503.305-.485.804-1.686,1.489-3.604.09-.267.235-.662.435-1.181l-10.92-28.608h5.255l5.99,16.536c.775,2.095,1.471,4.301,2.084,6.614.56-2.223,1.23-4.391,2.005-6.506l6.152-16.643h4.875l-10.946,29.037c-1.172,3.137-2.087,5.296-2.737,6.48-.865,1.593-1.86,2.763-2.98,3.509-1.12.743-2.455,1.114-4.008,1.114-.94,0-1.988-.197-3.143-.592Z" fill="#4d4d4d"/><path d="M734.435,444.53l4.823-.752c.27,1.918,1.024,3.387,2.264,4.408,1.236,1.021,2.966,1.532,5.186,1.532,2.24,0,3.903-.453,4.986-1.358,1.085-.905,1.625-1.965,1.625-3.186,0-1.091-.479-1.953-1.434-2.58-.67-.429-2.33-.978-4.986-1.64-3.578-.897-6.056-1.672-7.438-2.327-1.381-.653-2.429-1.558-3.143-2.713-.714-1.158-1.071-2.435-1.071-3.834,0-1.271.293-2.449.882-3.535.586-1.082,1.384-1.985,2.397-2.702.757-.554,1.793-1.024,3.102-1.41s2.713-.58,4.214-.58c2.258,0,4.24.325,5.946.969s2.966,1.518,3.778,2.62,1.373,2.577,1.68,4.423l-4.768.647c-.218-1.471-.844-2.618-1.883-3.442s-2.504-1.236-4.402-1.236c-2.24,0-3.839.366-4.794,1.103-.958.734-1.436,1.593-1.436,2.58,0,.627.197,1.193.595,1.695.398.519,1.021.949,1.869,1.288.488.18,1.924.592,4.309,1.239,3.45.914,5.856,1.66,7.22,2.243s2.435,1.431,3.21,2.542c.778,1.111,1.167,2.49,1.167,4.138,0,1.614-.476,3.134-1.422,4.559-.949,1.425-2.319,2.528-4.106,3.305-1.788.781-3.81,1.17-6.068,1.17-3.741,0-6.588-.769-8.549-2.31-1.959-1.544-3.21-3.828-3.752-6.857Z" fill="#4d4d4d"/><path d="M763.103,419.205v-5.566h4.875v5.566h-4.875ZM763.103,453.053v-28.553h4.875v28.553h-4.875Z" fill="#4d4d4d"/><path d="M772.233,444.53l4.823-.752c.27,1.918,1.024,3.387,2.264,4.408,1.236,1.021,2.966,1.532,5.186,1.532,2.24,0,3.903-.453,4.986-1.358,1.085-.905,1.625-1.965,1.625-3.186,0-1.091-.479-1.953-1.434-2.58-.67-.429-2.33-.978-4.986-1.64-3.578-.897-6.056-1.672-7.438-2.327-1.381-.653-2.429-1.558-3.143-2.713-.714-1.158-1.071-2.435-1.071-3.834,0-1.271.293-2.449.882-3.535.586-1.082,1.384-1.985,2.397-2.702.757-.554,1.793-1.024,3.102-1.41s2.713-.58,4.214-.58c2.258,0,4.24.325,5.946.969s2.966,1.518,3.778,2.62,1.373,2.577,1.68,4.423l-4.768.647c-.218-1.471-.844-2.618-1.883-3.442s-2.504-1.236-4.402-1.236c-2.24,0-3.839.366-4.794,1.103-.958.734-1.436,1.593-1.436,2.58,0,.627.197,1.193.595,1.695.398.519,1.021.949,1.869,1.288.488.18,1.924.592,4.309,1.239,3.45.914,5.856,1.66,7.22,2.243s2.435,1.431,3.21,2.542c.778,1.111,1.167,2.49,1.167,4.138,0,1.614-.476,3.134-1.422,4.559-.949,1.425-2.319,2.528-4.106,3.305-1.788.781-3.81,1.17-6.068,1.17-3.741,0-6.588-.769-8.549-2.31-1.959-1.544-3.21-3.828-3.752-6.857Z" fill="#4d4d4d"/><path d="M818.537,419.205v-5.566h4.875v5.566h-4.875ZM818.537,453.053v-28.553h4.875v28.553h-4.875Z" fill="#4d4d4d"/><path d="M829.614,453.053v-28.553h4.391v4.06c2.113-3.137,5.166-4.707,9.156-4.707,1.735,0,3.329.311,4.782.929s2.542,1.431,3.265,2.435,1.228,2.194,1.518,3.575c.18.897.27,2.464.27,4.704v17.557h-4.875v-17.368c0-1.97-.189-3.445-.569-4.423s-1.053-1.756-2.02-2.339-2.098-.873-3.398-.873c-2.078,0-3.871.653-5.38,1.962-1.506,1.309-2.261,3.79-2.261,7.446v15.595h-4.878Z" fill="#4d4d4d"/><path d="M876.792,453.053v-39.415h14.983c2.638,0,4.652.125,6.042.377,1.95.322,3.584.934,4.904,1.84,1.318.905,2.38,2.174,3.183,3.805.804,1.631,1.204,3.424,1.204,5.377,0,3.352-1.074,6.19-3.224,8.509-2.15,2.322-6.033,3.482-11.649,3.482h-10.189v16.025h-5.255ZM882.047,432.377h10.27c3.395,0,5.807-.627,7.232-1.88,1.428-1.254,2.142-3.021,2.142-5.296,0-1.648-.421-3.062-1.259-4.234-.842-1.175-1.947-1.95-3.32-2.327-.885-.232-2.519-.348-4.904-.348h-10.16v14.086Z" fill="#4d4d4d"/><path d="M911.52,464.049l-.543-4.542c1.065.284,1.997.429,2.792.429,1.082,0,1.95-.18,2.6-.54.65-.357,1.181-.859,1.599-1.503.305-.485.804-1.686,1.489-3.604.09-.267.235-.662.435-1.181l-10.92-28.608h5.255l5.99,16.536c.775,2.095,1.471,4.301,2.084,6.614.56-2.223,1.23-4.391,2.005-6.506l6.152-16.643h4.875l-10.946,29.037c-1.172,3.137-2.087,5.296-2.737,6.48-.865,1.593-1.86,2.763-2.98,3.509-1.12.743-2.455,1.114-4.008,1.114-.94,0-1.988-.197-3.143-.592Z" fill="#4d4d4d"/><path d="M949.071,448.724l.705,4.275c-1.373.287-2.6.432-3.683.432-1.773,0-3.143-.279-4.121-.836-.975-.554-1.66-1.286-2.058-2.191-.398-.903-.598-2.809-.598-5.711v-16.428h-3.575v-3.764h3.575v-7.072l4.852-2.902v9.974h4.901v3.764h-4.901v16.695c0,1.381.084,2.269.255,2.664.171.392.453.708.842.94s.943.348,1.666.348c.543,0,1.254-.061,2.139-.189Z" fill="#4d4d4d"/><path d="M953.95,453.053v-39.415h4.878v14.141c2.275-2.618,5.148-3.926,8.616-3.926,2.13,0,3.982.418,5.554,1.251,1.57.833,2.696,1.985,3.372,3.456.676,1.468,1.016,3.601,1.016,6.399v18.094h-4.875v-18.094c0-2.42-.528-4.182-1.587-5.285-1.056-1.103-2.551-1.651-4.484-1.651-1.445,0-2.803.371-4.077,1.114s-2.179,1.753-2.722,3.024c-.543,1.274-.813,3.03-.813,5.27v15.621h-4.878Z" fill="#4d4d4d"/><path d="M983.161,438.776c0-5.287,1.48-9.202,4.443-11.747,2.475-2.116,5.491-3.175,9.048-3.175,3.955,0,7.188,1.288,9.701,3.86,2.51,2.571,3.764,6.126,3.764,10.659,0,3.677-.554,6.567-1.666,8.671-1.111,2.107-2.728,3.744-4.849,4.907-2.121,1.167-4.44,1.747-6.95,1.747-4.028,0-7.284-1.28-9.765-3.845-2.484-2.562-3.726-6.254-3.726-11.077ZM988.173,438.776c0,3.657.804,6.396,2.412,8.216,1.608,1.82,3.63,2.728,6.068,2.728,2.42,0,4.434-.914,6.042-2.742s2.412-4.614,2.412-8.361c0-3.532-.807-6.207-2.423-8.027-1.619-1.82-3.627-2.728-6.03-2.728-2.438,0-4.46.905-6.068,2.716s-2.412,4.542-2.412,8.198Z" fill="#4d4d4d"/><path d="M1016.003,453.053v-28.553h4.391v4.06c2.113-3.137,5.166-4.707,9.156-4.707,1.735,0,3.329.311,4.782.929s2.542,1.431,3.265,2.435,1.228,2.194,1.518,3.575c.18.897.27,2.464.27,4.704v17.557h-4.875v-17.368c0-1.97-.189-3.445-.569-4.423s-1.053-1.756-2.02-2.339-2.098-.873-3.398-.873c-2.078,0-3.871.653-5.38,1.962-1.506,1.309-2.261,3.79-2.261,7.446v15.595h-4.878Z" fill="#4d4d4d"/><path d="M269.884,320.356c6.134,16.723-2.555,35.214-19.407,41.3-16.852,6.087-35.485-2.536-41.619-19.259-6.134-16.723,2.555-35.214,19.407-41.3,16.852-6.087,35.485,2.536,41.619,19.259" fill="#ff7f0e"/><path d="M286.871,314.766c9.471,25.824-3.945,54.375-29.968,63.774-26.02,9.398-54.794-3.915-64.266-29.738-9.471-25.824,3.947-54.376,29.968-63.774,26.022-9.399,54.794,3.915,64.266,29.738Z" fill="none" stroke="#2c7fb8" stroke-linecap="round" stroke-miterlimit="1" stroke-width="4.873"/><path d="M299.927,423.631c5.127,13.979-2.137,29.437-16.223,34.525-14.086,5.088-29.664-2.121-34.791-16.099-5.127-13.979,2.137-29.437,16.223-34.525,14.086-5.088,29.664,2.121,34.791,16.099Z" fill="none" stroke="#2c7fb8" stroke-linecap="round" stroke-miterlimit="1" stroke-width="3.484"/><path d="M168.575,357.493c3.673,10.013-1.531,21.083-11.619,24.727-10.09,3.645-21.247-1.516-24.919-11.529-3.673-10.013,1.531-21.083,11.621-24.727,10.088-3.644,21.245,1.517,24.917,11.53Z" fill="none" stroke="#2c7fb8" stroke-linecap="round" stroke-miterlimit="1" stroke-width="2.495"/><line x1="167.862" y1="357.75" x2="188.699" y2="350.224" fill="none" stroke="#2c7fb8" stroke-width="3.992"/><line x1="256.883" y1="378.48" x2="267.472" y2="407.348" fill="none" stroke="#2c7fb8" stroke-width="5.574"/><path d="M292.389,278.015c7.231,7.877,19.527,8.444,27.463,1.269,7.938-7.176,8.512-19.378,1.281-27.255-7.231-7.877-19.527-8.444-27.465-1.268-7.936,7.175-8.51,19.376-1.279,27.253Z" fill="none" stroke="#2c7fb8" stroke-linecap="round" stroke-miterlimit="1" stroke-width="2.495"/><line x1="292.95" y1="277.508" x2="276.559" y2="292.327" fill="none" stroke="#2c7fb8" stroke-width="3.992"/><ellipse cx="220.93" cy="422.526" rx="12.617" ry="12.521" fill="none" stroke="#2c7fb8" stroke-linecap="round" stroke-miterlimit="1" stroke-width="1.619"/><line x1="232.868" y1="424.628" x2="247.037" y2="427.123" fill="none" stroke="#2c7fb8" stroke-width="2.591"/><ellipse cx="140.567" cy="316.585" rx="12.617" ry="12.521" fill="none" stroke="#2c7fb8" stroke-linecap="round" stroke-miterlimit="1" stroke-width="1.619"/><line x1="142.666" y1="328.435" x2="145.157" y2="342.5" fill="none" stroke="#2c7fb8" stroke-width="2.591"/><path d="M304.448,358.43c-2.931,6.274-.183,13.718,6.14,16.626,6.321,2.908,13.821.18,16.753-6.094,2.931-6.274.183-13.718-6.138-16.625-6.323-2.909-13.823-.181-16.755,6.093Z" fill="none" stroke="#2c7fb8" stroke-linecap="round" stroke-miterlimit="1" stroke-width="1.619"/><line x1="304.895" y1="358.636" x2="291.84" y2="352.629" fill="none" stroke="#2c7fb8" stroke-width="2.591"/><path d="M289.024,427.568c2.935,8.003-1.222,16.856-9.29,19.769-8.065,2.913-16.984-1.216-19.92-9.219-2.935-8.003,1.222-16.856,9.288-19.769,8.067-2.914,16.986,1.215,19.922,9.219" fill="#ff7f0e"/><path d="M160.934,360.253c2.136,5.824-.889,12.265-6.76,14.386-5.869,2.12-12.361-.884-14.497-6.708s.891-12.266,6.76-14.386c5.871-2.121,12.361.884,14.497,6.708" fill="#ff7f0e"/><path d="M317.389,261.184c2.136,5.824-.889,12.265-6.76,14.386-5.869,2.12-12.361-.884-14.497-6.708s.891-12.266,6.76-14.386c5.871-2.121,12.361.884,14.497,6.708" fill="#ff7f0e"/><line x1="308.383" y1="376.249" x2="290.338" y2="408.293" fill="none" stroke="#2c7fb8" stroke-width="2.591"/></g></svg>