<svg id="LOGO" xmlns="http://www.w3.org/2000/svg" viewBox="0 0 1250 703"><defs><style>.cls-1{fill:#00a3e0;}</style></defs><path class="cls-1" d="M353.40449,376.24877s59.28323-43.71214,35.27418-71.98368c-27.83659-32.795-105.866,36.753-114.391,22.61723s69.24351-48.01811,77.68147-53.67242a2.89147,2.89147,0,0,0,.91339-3.13161l9.00341-1.04387-5.61081-2.82716,1.43532-5.61081-6.5242,5.08888c-2.43571-4.393-6.6112-9.13388-9.00341-10.78668-8.48146-5.61081-24.009-4.26248-46.58279,7.04614s-74.94131,46.58279-48.1486,86.11944c24.00906,35.27418,92.99161-25.35739,104.51769-15.57109,9.8733,8.48146-66.32937,60.71856-66.32937,60.71856H318.1303c-5.61081,14.13576-32.49052,55.10775-32.49052,55.10775l97.776-70.63534C373.15106,376.16179,353.40449,376.24877,353.40449,376.24877ZM326.82924,259.11763a6.32171,6.32171,0,1,1-5.87178,6.74167A6.35437,6.35437,0,0,1,326.82924,259.11763Z"/><path class="cls-1" d="M513.16041,404.99875q-12.06978-21.46461-26.14029-42.3638a421.99039,421.99039,0,0,0-29.96784-39.49317v81.90047H429.25919V279.99507h22.92168q5.937,5.937,13.17888,14.61421c4.8279,5.78479,9.69931,11.91754,14.7012,18.48524s9.96029,13.35286,14.87518,20.399,9.56883,13.78781,13.87481,20.312V279.99507H536.778V404.99875Z"/><path class="cls-1" d="M644.86226,401.78015a152.33964,152.33964,0,0,1-17.65882,3.697,146.39617,146.39617,0,0,1-22.74771,1.69629q-12.06977,0-20.09454-3.2621a30.61984,30.61984,0,0,1-12.70045-9.09039,35.29609,35.29609,0,0,1-6.65468-13.96179,75.96077,75.96077,0,0,1-2.00074-17.87631v-52.846H589.885V359.7643c0,8.65543,1.13085,14.91866,3.43609,18.7462,2.26172,3.871,6.56768,5.78479,12.78744,5.78479q2.87067,0,6.13274-.261c2.17473-.174,4.08851-.39145,5.78478-.65242v-73.245h26.87971v91.64327Z"/><path class="cls-1" d="M722.23927,354.67543c0-8.65544-1.13085-14.78819-3.34907-18.39825s-6.04577-5.39334-11.43912-5.39334q-2.54445,0-5.21936.261c-1.78327.174-3.56654.39145-5.21936.65242v73.245H670.13263V313.35548c2.2617-.60892,4.9584-1.21785,8.04652-1.91376,3.08811-.65242,6.30672-1.26134,9.74281-1.78328s6.95915-.95688,10.56923-1.26135,7.13314-.43494,10.65619-.43494c6.87218,0,12.396.86989,16.702,2.60968a38.321,38.321,0,0,1,10.56922,6.21974,45.40956,45.40956,0,0,1,13.26588-6.48071,46.30127,46.30127,0,0,1,13.78779-2.34871c7.56808,0,13.78779,1.04387,18.65922,3.17512a28.38877,28.38877,0,0,1,11.65659,8.9164,34.35312,34.35312,0,0,1,5.95875,13.70083,88.15685,88.15685,0,0,1,1.60929,17.65883v53.58544H774.47636V354.67543c0-8.65544-1.13085-14.78819-3.34907-18.39825s-6.04577-5.39334-11.43912-5.39334a23.39556,23.39556,0,0,0-6.04577,1.08737,23.15882,23.15882,0,0,0-6.3937,2.69667,40.88175,40.88175,0,0,1,1.60929,8.74243c.26095,3.08812.348,6.35023.348,9.8298v51.75866H722.32624V354.67543Z"/><path class="cls-1" d="M913.83329,357.54607a60.21089,60.21089,0,0,1-3.34907,20.573,43.40571,43.40571,0,0,1-9.65579,15.70158,42.327,42.327,0,0,1-15.52758,10.00377,58.12413,58.12413,0,0,1-20.92092,3.52307c-3.2621,0-6.65471-.13048-10.17777-.43494-3.56654-.30447-7.04611-.69592-10.4822-1.17436s-6.69819-1.04387-9.82979-1.69629-5.91526-1.34834-8.30747-2.08774V269.33888l26.87973-4.34947v47.27871a52.81088,52.81088,0,0,1,9.39484-3.08813,47.27833,47.27833,0,0,1,10.4822-1.08736,42.85044,42.85044,0,0,1,17.8763,3.52307,35.54353,35.54353,0,0,1,13.00492,10.00377,44.80553,44.80553,0,0,1,7.916,15.61459A72.41654,72.41654,0,0,1,913.83329,357.54607Zm-27.44512-.69591q0-25.96632-19.13766-25.96632a30.92777,30.92777,0,0,0-8.2205,1.08737,23.34462,23.34462,0,0,0-6.56769,2.69667v48.888c1.30484.261,3.00115.43494,5.04537.65242q3.06634.261,6.65471.261c7.35061,0,12.87441-2.52269,16.61494-7.56807C884.56141,371.81233,886.38817,365.15763,886.38817,356.85016Z"/><path class="cls-1" d="M968.68012,307.61419c7.916,0,14.57071.91339,19.83356,2.69667a30.52983,30.52983,0,0,1,12.70042,7.74205,28.71966,28.71966,0,0,1,6.78516,12.2655A61.40313,61.40313,0,0,1,1010,346.36794v55.93415c-3.871.8264-9.22085,1.82678-16.04954,2.95763a155.76376,155.76376,0,0,1-24.87893,1.69629,78.87085,78.87085,0,0,1-16.702-1.6093,36.87369,36.87369,0,0,1-12.91789-5.30636,24.455,24.455,0,0,1-8.30748-9.65582,33.40848,33.40848,0,0,1-2.87063-14.61421,27.92193,27.92193,0,0,1,3.34906-14.09227,26.25037,26.25037,0,0,1,8.91641-9.22087,40.62273,40.62273,0,0,1,12.78745-4.95839,73.348,73.348,0,0,1,14.96217-1.52232,85.23789,85.23789,0,0,1,9.30787.435,41.33967,41.33967,0,0,1,6.56769,1.17436v-2.5227a14.999,14.999,0,0,0-4.132-11.00415c-2.78367-2.78366-7.56808-4.132-14.44021-4.132a93.0013,93.0013,0,0,0-13.52683,1.00037,58.96646,58.96646,0,0,0-11.52609,2.78366L937.103,312.05062c1.56579-.47844,3.52305-1.00037,5.87178-1.52231s4.91491-1.00038,7.655-1.43533c2.78367-.43494,5.69779-.7829,8.74242-1.08736C962.46036,307.74467,965.54847,307.61419,968.68012,307.61419Zm2.13119,78.63836c2.65317,0,5.17588-.0435,7.56809-.174s4.34946-.30447,5.78481-.52194v-20.399a48.29661,48.29661,0,0,0-4.87138-.73941,49.37608,49.37608,0,0,0-5.95875-.348,52.80988,52.80988,0,0,0-7.13314.43494,19.35185,19.35185,0,0,0-5.87178,1.69629,9.86711,9.86711,0,0,0-3.958,3.43608,9.585,9.585,0,0,0-1.43535,5.39334c0,4.219,1.39181,7.13312,4.219,8.74243C962.02541,385.42615,965.89645,386.25255,970.81131,386.25255Z"/></svg>