<?xml version="1.0" encoding="UTF-8"?>
<svg id="PASTE_LOGO_HERE" data-name="PASTE LOGO HERE" xmlns="http://www.w3.org/2000/svg" xmlns:xlink="http://www.w3.org/1999/xlink" viewBox="0 0 1250 703">
  <defs>
    <style>
      .cls-1 {
        clip-path: url(#clippath);
      }

      .cls-2 {
        fill: none;
      }

      .cls-2, .cls-3, .cls-4, .cls-5 {
        stroke-width: 0px;
      }

      .cls-3 {
        fill: #003087;
      }

      .cls-4 {
        fill: #0070e0;
      }

      .cls-5 {
        fill: #001c64;
      }
    </style>
    <clipPath id="clippath">
      <rect class="cls-2" x="215" y="242.8" width="820" height="217.4"/>
    </clipPath>
  </defs>
  <g class="cls-1">
    <g>
      <path class="cls-3" d="M514.15,374.55c24.61-.02,45.54-17.97,49.31-42.28,3.85-24.54-15.32-45.95-42.48-45.95h-43.78c-1.7-.02-3.15,1.21-3.41,2.89l-19.51,123.85c-.27,1.73.92,3.36,2.65,3.63.16.02.32.04.48.04h23.17c1.69.02,3.14-1.21,3.4-2.89l5.74-36.38c.25-1.68,1.71-2.91,3.4-2.89h21.03ZM533.54,331.15c-1.43,9.07-8.44,15.75-21.86,15.75h-17.16l5.2-33h16.85c13.88.03,18.39,8.21,16.97,17.27v-.02ZM663.84,325.32h-22c-1.7-.02-3.15,1.21-3.41,2.89l-.71,4.56s-17.08-18.65-47.3-6.05c-17.34,7.22-25.66,22.13-29.19,33.05,0,0-11.25,33.19,14.18,51.46,0,0,23.57,17.57,50.11-1.09l-.46,2.91c-.27,1.73.91,3.35,2.64,3.63.16.03.33.04.49.04h21.99c1.7.02,3.15-1.21,3.41-2.89l13.38-84.84c.27-1.73-.92-3.36-2.65-3.63-.16-.02-.32-.04-.48-.04h0ZM631.5,372.21c-1.78,12.23-12.33,21.25-24.68,21.12-2.34.03-4.67-.32-6.9-1.01-9.48-3.04-14.89-12.16-13.34-22.04,1.78-12.26,12.38-21.3,24.77-21.13,2.34-.02,4.67.32,6.91,1.02,9.45,3.03,14.82,12.15,13.27,22.04,0,0-.02,0-.02,0Z"/>
      <path class="cls-4" d="M830.85,374.55c24.62,0,45.57-17.95,49.36-42.28,3.85-24.54-15.32-45.95-42.49-45.95h-43.77c-1.7-.02-3.15,1.21-3.4,2.89l-19.57,123.88c-.23,1.4.51,2.79,1.8,3.37.42.19.87.3,1.33.3h23.17c1.7.02,3.15-1.22,3.4-2.89l5.74-36.38c.25-1.68,1.71-2.92,3.4-2.89l21.02-.03ZM850.24,331.15c-1.43,9.07-8.44,15.75-21.86,15.75h-17.16l5.21-33h16.85c13.87.03,18.39,8.21,16.96,17.27v-.02ZM980.53,325.32h-21.97c-1.7-.02-3.15,1.21-3.4,2.89l-.72,4.56s-17.07-18.65-47.29-6.05c-17.33,7.22-25.66,22.13-29.2,33.05,0,0-11.24,33.19,14.18,51.46,0,0,23.57,17.57,50.12-1.09l-.46,2.91c-.23,1.4.51,2.79,1.8,3.37.41.2.87.3,1.33.3h21.99c1.7.03,3.16-1.21,3.4-2.89l13.38-84.84c.13-.92-.13-1.85-.73-2.56-.6-.71-1.49-1.12-2.42-1.11ZM948.2,372.21c-1.76,12.24-12.32,21.27-24.68,21.12-2.34.03-4.67-.31-6.91-1.01-9.49-3.04-14.9-12.16-13.35-22.04,1.78-12.23,12.32-21.26,24.68-21.13,2.35-.02,4.68.32,6.91,1.02,9.55,3.03,14.94,12.15,13.37,22.04,0,0-.02,0-.02,0Z"/>
      <path class="cls-3" d="M744.57,327.42l-26.51,44.75-13.45-44.42c-.43-1.45-1.77-2.44-3.28-2.43h-23.92c-1.41-.03-2.57,1.09-2.6,2.5,0,.31.04.61.15.9l24.11,74.82-21.8,35.26c-.76,1.19-.4,2.77.79,3.52.42.26.9.4,1.4.4h25.77c1.5,0,2.89-.78,3.66-2.06l67.34-111.4c.74-1.19.38-2.77-.81-3.51-.42-.26-.9-.39-1.39-.39h-25.76c-1.51-.02-2.91.77-3.69,2.06Z"/>
      <path class="cls-4" d="M1005.27,289.17l-19.57,123.88c-.23,1.4.51,2.79,1.8,3.37.41.2.87.3,1.33.3h23.16c1.7.02,3.15-1.21,3.4-2.89l19.58-123.88c.15-.92-.12-1.85-.72-2.55-.6-.7-1.48-1.11-2.41-1.11h-23.17c-1.7-.02-3.15,1.21-3.4,2.89h0Z"/>
      <path class="cls-5" d="M388.61,342.88c-4.97,28.33-28.08,49.74-58.41,49.74h-19.26c-3.93,0-7.88,3.64-8.51,7.66l-8.43,53.52c-.49,3.05-1.92,4.06-5,4.06h-30.97c-3.13,0-3.87-1.05-3.4-4.13l3.56-37.01-37.18-1.92c-3.13,0-4.26-1.7-3.81-4.83l25.37-160.84c.49-3.05,2.39-4.36,5.46-4.36h64.33c30.97,0,50.56,20.85,52.95,47.88,18.43,12.45,27.04,29.01,23.32,50.23h0Z"/>
      <path class="cls-4" d="M267.6,356.79l-9.42,59.93-5.96,37.6c-.43,2.79,1.49,5.39,4.28,5.82.25.04.49.06.74.06h32.71c3.08,0,5.71-2.25,6.19-5.3l8.61-54.63c.48-3.04,3.11-5.29,6.19-5.29h19.26c30.31-.04,56.09-22.15,60.74-52.1,3.33-21.28-7.37-40.64-25.69-50.21-.04,2.27-.24,4.53-.59,6.77-4.67,29.94-30.43,52.02-60.73,52.07h-30.13c-3.08,0-5.7,2.24-6.18,5.29Z"/>
      <path class="cls-3" d="M258.18,416.72h-38.09c-2.82-.01-5.1-2.31-5.09-5.14,0-.25.02-.5.06-.75l25.67-162.74c.48-3.05,3.1-5.29,6.18-5.3h65.4c30.97,0,53.48,22.54,52.95,49.84-8.24-4.25-17.4-6.43-26.67-6.36h-54.53c-3.08,0-5.71,2.24-6.19,5.29l-10.27,65.21-9.43,59.93Z"/>
    </g>
  </g>
</svg>