<?xml version="1.0" encoding="UTF-8"?>
<svg id="LOGO" xmlns="http://www.w3.org/2000/svg" xmlns:xlink="http://www.w3.org/1999/xlink" viewBox="0 0 1250 703">
  <defs>
    <style>
      .cls-1 {
        fill: url(#radial-gradient);
        fill-rule: evenodd;
        stroke-width: 0px;
      }
    </style>
    <radialGradient id="radial-gradient" cx="-3353.53" cy="4844.25" fx="-3353.53" fy="4844.25" r="1.14" gradientTransform="translate(-4045896.88 -4556765.09) rotate(157.26) scale(587.7 -1190.48)" gradientUnits="userSpaceOnUse">
      <stop offset="0" stop-color="#0075ff"/>
      <stop offset="1" stop-color="#0075ff" stop-opacity="0"/>
    </radialGradient>
  </defs>
  <path class="cls-1" d="M298.72,423.37h15.24c2.05,0,3.72,1.64,3.72,3.69v56.02c0,2.03-1.66,3.69-3.72,3.69h-15.24c-2.05,0-3.72-1.64-3.72-3.69v-56.02c0-2.03,1.66-3.69,3.72-3.69ZM333.95,349.74h11.93c2.97,0,5.36,2.39,5.36,5.32v68.31c0,2.94-2.41,5.32-5.36,5.32h-11.93c-2.97,0-5.36-2.39-5.36-5.32v-68.31c0-2.94,2.41-5.32,5.36-5.32ZM332.29,437.71h15.24c2.05,0,3.72,1.64,3.72,3.69v59.32c0,2.03-1.66,3.69-3.72,3.69h-15.24c-2.05,0-3.72-1.64-3.72-3.69v-59.32c0-2.03,1.66-3.69,3.72-3.69ZM365.88,275.42h15.24c2.05,0,3.72,1.64,3.72,3.69v111.08c0,2.03-1.66,3.69-3.72,3.69h-15.24c-2.05,0-3.72-1.64-3.72-3.69v-111.08c0-2.03,1.66-3.69,3.72-3.69ZM365.88,404.31h15.24c2.05,0,3.72,1.64,3.72,3.69v34.45c0,2.03-1.66,3.69-3.72,3.69h-15.24c-2.05,0-3.72-1.64-3.72-3.69v-34.45c0-2.03,1.66-3.69,3.72-3.69ZM367.54,474.2h11.93c2.97,0,5.36,2.39,5.36,5.32v19.54c0,2.94-2.41,5.32-5.36,5.32h-11.93c-2.97,0-5.36-2.39-5.36-5.32v-19.54c0-2.94,2.41-5.32,5.36-5.32ZM399.47,222.74h15.24c2.05,0,3.72,1.64,3.72,3.69v78.57c0,2.03-1.66,3.69-3.72,3.69h-15.24c-2.05,0-3.72-1.64-3.72-3.69v-78.59c0-2.03,1.66-3.69,3.72-3.69v.02ZM399.47,318.25h15.26c2.05,0,3.7,1.64,3.7,3.68v106.5c0,2.03-1.66,3.68-3.7,3.68h-15.26c-2.05,0-3.7-1.64-3.7-3.68v-106.5c0-2.03,1.66-3.68,3.7-3.68ZM433.06,206.53h15.25c2.05,0,3.72,1.64,3.72,3.69v52.39c0,2.03-1.66,3.69-3.72,3.69h-15.25c-2.05,0-3.72-1.64-3.72-3.69v-52.4c0-2.03,1.66-3.69,3.72-3.69h0ZM433.06,275.5h15.25c2.05,0,3.72,1.64,3.72,3.69v75.38c0,2.03-1.66,3.69-3.72,3.69h-15.25c-2.05,0-3.72-1.64-3.72-3.69v-75.38c0-2.03,1.66-3.69,3.72-3.69ZM433.06,369.11h15.25c2.05,0,3.72,1.64,3.72,3.69v67.73c0,2.03-1.66,3.69-3.72,3.69h-15.25c-2.05,0-3.72-1.64-3.72-3.69v-67.73c0-2.03,1.66-3.69,3.72-3.69ZM468.28,193.38h11.93c2.97,0,5.36,2.39,5.36,5.32v98.37c0,2.94-2.41,5.32-5.36,5.32h-11.93c-2.97,0-5.36-2.39-5.36-5.32v-98.37c0-2.94,2.41-5.32,5.36-5.32ZM468.28,313.26h11.93c2.97,0,5.36,2.39,5.36,5.32v22.83c0,2.94-2.41,5.32-5.36,5.32h-11.93c-2.97,0-5.36-2.39-5.36-5.32v-22.83c0-2.94,2.41-5.32,5.36-5.32ZM468.28,354.33h11.92c2.97,0,5.36,2.39,5.36,5.32v101.66c0,2.94-2.41,5.32-5.36,5.32h-11.92c-2.97,0-5.36-2.39-5.36-5.32v-101.66c0-2.94,2.41-5.32,5.36-5.32ZM501.87,180.24h11.93c2.97,0,5.36,2.39,5.36,5.32v19.54c0,2.94-2.41,5.32-5.36,5.32h-11.93c-2.97,0-5.36-2.39-5.36-5.32v-19.53c0-2.94,2.41-5.32,5.36-5.32h0ZM501.87,219.64h11.93c2.97,0,5.36,2.39,5.36,5.32v150.92c0,2.94-2.41,5.32-5.36,5.32h-11.93c-2.97,0-5.36-2.39-5.36-5.32v-150.91c0-2.94,2.41-5.32,5.36-5.32h0ZM501.87,392.07h11.93c2.97,0,5.36,2.39,5.36,5.32v40.89c0,2.94-2.41,5.32-5.36,5.32h-11.93c-2.97,0-5.36-2.39-5.36-5.32v-40.89c0-2.94,2.41-5.32,5.36-5.32ZM501.87,454.48h11.93c2.97,0,5.36,2.39,5.36,5.32v26.12c0,2.94-2.41,5.32-5.36,5.32h-11.93c-2.97,0-5.36-2.39-5.36-5.32v-26.12c0-2.94,2.41-5.32,5.36-5.32ZM535.46,446.26h11.93c2.97,0,5.36,2.39,5.36,5.32v47.47c0,2.94-2.41,5.32-5.36,5.32h-11.93c-2.97,0-5.36-2.39-5.36-5.32v-47.47c0-2.94,2.41-5.32,5.36-5.32ZM535.46,282.05h11.93c2.97,0,5.36,2.39,5.36,5.32v116.43c0,2.94-2.41,5.32-5.36,5.32h-11.93c-2.97,0-5.36-2.39-5.36-5.32v-116.43c0-2.94,2.41-5.32,5.36-5.32ZM535.46,178.59h11.93c2.97,0,5.36,2.39,5.36,5.32v81.94c0,2.94-2.41,5.32-5.36,5.32h-11.93c-2.97,0-5.36-2.39-5.36-5.32v-81.93c0-2.94,2.41-5.32,5.36-5.32h0ZM569.05,470.9h11.93c2.97,0,5.36,2.39,5.36,5.32v22.83c0,2.94-2.41,5.32-5.36,5.32h-11.93c-2.97,0-5.36-2.39-5.36-5.32v-22.83c0-2.94,2.41-5.32,5.36-5.32ZM569.05,180.23h11.93c2.97,0,5.36,2.39,5.36,5.32v139.42c0,2.94-2.41,5.32-5.36,5.32h-11.93c-2.97,0-5.36-2.39-5.36-5.32v-139.41c0-2.94,2.41-5.32,5.36-5.32h0ZM569.05,341.17h11.93c2.97,0,5.36,2.39,5.36,5.32v57.31c0,2.94-2.41,5.32-5.36,5.32h-11.93c-2.97,0-5.36-2.39-5.36-5.32v-57.31c0-2.94,2.41-5.32,5.36-5.32ZM602.62,186.81h11.93c2.97,0,5.36,2.39,5.36,5.32v39.25c0,2.94-2.41,5.32-5.36,5.32h-11.93c-2.97,0-5.36-2.39-5.36-5.32v-39.23c0-2.94,2.41-5.32,5.36-5.32h0ZM602.62,247.56h11.93c2.97,0,5.36,2.39,5.36,5.32v150.92c0,2.94-2.41,5.32-5.36,5.32h-11.93c-2.97,0-5.36-2.39-5.36-5.32v-150.91c0-2.94,2.41-5.32,5.36-5.32h0ZM636.2,190.09h11.93c2.97,0,5.36,2.39,5.36,5.32v86.87c0,2.94-2.41,5.32-5.36,5.32h-11.93c-2.97,0-5.36-2.39-5.36-5.32v-86.86c0-2.94,2.41-5.32,5.36-5.32h0ZM636.2,298.48h11.93c2.97,0,5.36,2.39,5.36,5.32v72.11c0,2.94-2.41,5.32-5.36,5.32h-11.93c-2.97,0-5.36-2.39-5.36-5.32v-72.11c0-2.94,2.41-5.32,5.36-5.32ZM636.2,392.07h11.93c2.97,0,5.36,2.39,5.36,5.32v32.68c0,2.94-2.41,5.32-5.36,5.32h-11.93c-2.97,0-5.36-2.39-5.36-5.32v-32.68c0-2.94,2.41-5.32,5.36-5.32ZM669.57,195.02h11.93c2.97,0,5.36,2.39,5.36,5.32v134.49c0,2.94-2.41,5.32-5.36,5.32h-11.93c-2.97,0-5.36-2.39-5.36-5.32v-134.48c0-2.94,2.41-5.32,5.36-5.32h0ZM669.57,351.03h11.93c2.97,0,5.36,2.39,5.36,5.32v106.58c0,2.94-2.41,5.32-5.36,5.32h-11.93c-2.97,0-5.36-2.39-5.36-5.32v-106.58c0-2.94,2.41-5.32,5.36-5.32ZM702.93,190.09h11.93c2.97,0,5.36,2.39,5.36,5.32v57.31c0,2.94-2.41,5.32-5.36,5.32h-11.93c-2.97,0-5.36-2.39-5.36-5.32v-57.3c0-2.94,2.41-5.32,5.36-5.32h0ZM702.93,268.92h11.93c2.97,0,5.36,2.39,5.36,5.32v167.35c0,2.94-2.41,5.32-5.36,5.32h-11.93c-2.97,0-5.36-2.39-5.36-5.32v-167.34c0-2.94,2.41-5.32,5.36-5.32h0ZM702.93,457.77h11.93c2.97,0,5.36,2.39,5.36,5.32v31.04c0,2.94-2.41,5.32-5.36,5.32h-11.93c-2.97,0-5.36-2.39-5.36-5.32v-31.04c0-2.94,2.41-5.32,5.36-5.32ZM736.51,447.92h11.93c2.97,0,5.36,2.39,5.36,5.32v45.82c0,2.94-2.41,5.32-5.36,5.32h-11.93c-2.97,0-5.36-2.39-5.36-5.32v-45.82c0-2.94,2.41-5.32,5.36-5.32ZM736.51,308.34h11.93c2.97,0,5.36,2.39,5.36,5.32v31.05c0,2.94-2.41,5.32-5.36,5.32h-11.93c-2.97,0-5.36-2.39-5.36-5.32v-31.05c0-2.94,2.41-5.32,5.36-5.32ZM736.51,188.46h11.93c2.97,0,5.36,2.39,5.36,5.32v98.37c0,2.94-2.41,5.32-5.36,5.32h-11.93c-2.97,0-5.36-2.39-5.36-5.32v-98.37c0-2.94,2.41-5.32,5.36-5.32ZM770.54,196.68h11.93c2.97,0,5.36,2.39,5.36,5.32v124.64c0,2.94-2.41,5.32-5.36,5.32h-11.93c-2.97,0-5.36-2.39-5.36-5.32v-124.64c0-2.94,2.41-5.32,5.36-5.32ZM770.54,474.2h11.93c2.97,0,5.36,2.39,5.36,5.32v19.54c0,2.94-2.41,5.32-5.36,5.32h-11.93c-2.97,0-5.36-2.39-5.36-5.32v-19.54c0-2.94,2.41-5.32,5.36-5.32ZM803.65,206.54h11.93c2.97,0,5.36,2.39,5.36,5.32v31.05c0,2.94-2.41,5.32-5.36,5.32h-11.93c-2.97,0-5.36-2.39-5.36-5.32v-31.05c0-2.94,2.41-5.32,5.36-5.32ZM803.65,259.08h11.93c2.97,0,5.36,2.39,5.36,5.32v58.96c0,2.94-2.41,5.32-5.36,5.32h-11.93c-2.97,0-5.36-2.39-5.36-5.32v-58.96c0-2.94,2.41-5.32,5.36-5.32ZM837.66,214.74h11.93c2.97,0,5.36,2.39,5.36,5.32v19.54c0,2.94-2.41,5.32-5.36,5.32h-11.93c-2.97,0-5.36-2.39-5.36-5.32v-19.54c0-2.94,2.41-5.32,5.36-5.32ZM837.66,254.15h11.93c2.97,0,5.36,2.39,5.36,5.32v17.9c0,2.94-2.41,5.32-5.36,5.32h-11.93c-2.97,0-5.36-2.39-5.36-5.32v-17.9c0-2.94,2.41-5.32,5.36-5.32ZM837.66,291.92h11.93c2.97,0,5.36,2.39,5.36,5.32v29.4c0,2.94-2.41,5.32-5.36,5.32h-11.93c-2.97,0-5.36-2.39-5.36-5.32v-29.4c0-2.94,2.41-5.32,5.36-5.32ZM871.23,224.6h11.93c2.97,0,5.36,2.39,5.36,5.32v101.66c0,2.94-2.41,5.32-5.36,5.32h-11.93c-2.97,0-5.36-2.39-5.36-5.32v-101.67c0-2.94,2.41-5.32,5.36-5.32h0ZM904.6,254.15h11.93c2.97,0,5.36,2.39,5.36,5.32v68.81c0,2.94-2.41,5.32-5.36,5.32h-11.93c-2.97,0-5.36-2.39-5.36-5.32v-68.81c0-2.94,2.41-5.32,5.36-5.32ZM937.71,291.92h11.93c2.97,0,5.36,2.39,5.36,5.32v19.54c0,2.94-2.41,5.32-5.36,5.32h-11.93c-2.97,0-5.36-2.39-5.36-5.32v-19.54c0-2.94,2.41-5.32,5.36-5.32Z"/>
</svg>