<?xml version="1.0" encoding="UTF-8"?><svg id="LOGO" xmlns="http://www.w3.org/2000/svg" viewBox="0 0 1250 703"><g id="g1"><path id="path2431" d="M598.598,493.715c-70.838-10.804-97.202-62.886-97.202-62.886,34.316,53.68,136.577,28.913,168.002,7.951,39.375-26.364,25.413-48.582,21.571-57.484,17.158,22.864,16.853,74.642-3.5,93.398-17.805,16.169-48.582,25.071-88.908,19.06h0l.038-.038Z" fill="#fff"/><path d="M623.05,497.226c-7.92,0-16.175-.636-24.723-1.911-.127-.019-.248-.052-.364-.1-16.178-2.509-31.371-7.38-45.161-14.48-11.129-5.73-21.372-12.916-30.445-21.359-15.474-14.397-22.096-27.292-22.37-27.834-.38-.75-.105-1.667.626-2.084.729-.416,1.66-.188,2.113.521,9.471,14.816,24.908,24.561,45.881,28.962,42.966,9.017,98.176-6.973,119.914-21.474,15.439-10.338,24.202-21.173,26.044-32.203,1.517-9.083-1.887-16.458-4.14-21.338-.33-.714-.641-1.389-.907-2.005-.317-.734-.035-1.59.658-1.991.693-.402,1.575-.221,2.055.418,8.424,11.225,13.146,29.628,12.632,49.228-.533,20.341-6.483,37.209-16.325,46.278-9.358,8.498-22.052,14.797-36.719,18.224-8.978,2.098-18.598,3.148-28.769,3.148ZM599.185,492.25c36.442,5.348,68.218-1.468,87.222-18.725,9.074-8.362,14.797-24.825,15.3-44.031.272-10.391-1.039-20.621-3.62-29.461.043,1.838-.074,3.758-.406,5.75-1.991,11.923-11.211,23.466-27.404,34.308-17.716,11.817-57.189,24.608-94.675,24.608-9.469,0-18.808-.816-27.641-2.67-12.345-2.591-22.859-6.98-31.466-13.118,2.372,2.64,5.074,5.421,8.119,8.248,13.919,12.923,38.095,29.483,74.224,34.994.121.019.238.051.349.095Z"/><path id="path2433" d="M753.893,347.285c9.207-22.56,2.549-39.68,1.598-42.229-2.207-4.109-4.755-7.304-7.609-9.853-51.131-40.022-177.551,3.158-225.181,53.337-34.62,36.522-32.071,63.533-21.267,81.908,9.853,15.256,25.109,24.158,42.571,28.571-36.522-39.375,31.12-98.762,92.104-120.675,66.691-23.815,103.213-9.511,117.822,8.902l-.038.038Z" fill="#343434"/><path d="M544.005,460.598c-.128,0-.258-.016-.387-.048-19.525-4.935-34.164-14.774-43.51-29.245-.012-.019-.023-.038-.035-.056-14.72-25.035-7.493-53.228,21.482-83.795,11.727-12.354,28.491-24.607,48.482-35.434,19.74-10.691,41.706-19.508,63.524-25.497,23.057-6.329,45.301-9.269,64.328-8.505,21.405.861,38.553,6.225,50.967,15.941.027.021.053.043.079.066,3.137,2.802,5.736,6.166,7.948,10.284.034.063.063.128.088.195l.042.112c2.291,6.119,6.707,22.515-1.541,42.979-.064.281-.204.548-.421.765l-.038.038c-.531.534-1.364.618-1.991.202-.26-.172-.455-.411-.573-.68-5.803-7.172-17.091-16.236-38.132-19.4-21.482-3.229-47.615.576-77.676,11.31-22.272,8.003-45.531,21.161-63.812,36.1-19.727,16.121-32.646,33.43-36.376,48.738-3.059,12.552-.128,23.748,8.71,33.276.476.513.557,1.277.201,1.879-.289.487-.81.774-1.358.774ZM502.778,429.62c8.115,12.549,20.471,21.451,36.771,26.509-6.999-9.453-9.075-20.265-6.165-32.207,4.987-20.469,23.116-38.725,37.445-50.435,18.548-15.157,42.147-28.508,64.745-36.628,30.56-10.913,57.21-14.769,79.21-11.46,20.369,3.063,32.092,11.501,38.614,18.773,6.656-18.38,2.732-32.9.655-38.448l-.005-.014c-2.014-3.729-4.365-6.771-7.182-9.296-22.709-17.738-63.698-20.235-112.472-6.846-43.988,12.075-87.382,35.649-110.551,60.059-27.877,29.409-34.965,56.324-21.067,79.993Z"/><path id="path2435" d="M740.235,369.236c28.571-33.364,15.864-62.582,15.256-64.789,0,0,13.962,22.56,7,71.789-3.804,26.973-17.158,50.827-32.071,37.473-6.658-5.707-9.511-21.913,9.853-44.473h-.038Z" fill="#fff"/><path d="M739.024,419.099c-2.753,0-6.073-1.004-9.657-4.213-4.235-3.63-6.193-9.934-5.347-17.274,1.026-8.894,6.156-18.969,14.841-29.154.049-.087.108-.171.175-.249,22.872-26.709,19.334-50.666,15.189-62.57-.124-.356-.206-.591-.256-.772-.209-.757.171-1.553.891-1.867.72-.314,1.561-.051,1.974.616.148.24,3.662,6.005,6.309,17.922,2.419,10.888,4.541,29.254.911,54.919-2.535,17.968-10.025,37.902-21.046,41.927-1.121.409-2.466.715-3.984.715ZM741.648,370.013c-.05.088-.109.173-.176.252-10.616,12.368-13.644,21.895-14.315,27.709-.714,6.188.89,11.622,4.291,14.537,3.553,3.181,7.07,4.154,10.477,2.908,8.346-3.048,16.16-19.251,19.003-39.402,3.282-23.205,1.852-40.432-.523-52.072-.007,1.145-.047,2.293-.12,3.446-.943,14.859-7.212,29.198-18.636,42.624Z"/><path id="path2437" d="M690.702,381.296c-10.462-15.218-25.718-23.511-39.071-34.277-7-5.402-52.082-35.571-60.984-47.973-20.315-20.315-30.169-53.68-10.804-73.387-13.962-2.549-26.022.647-33.669,4.755-3.5,1.902-6.658,3.804-8.902,6.353-21.267,19.707-18.413,53.984-5.098,77.191,14.304,24.767,41.924,48.924,77.191,72.397,16.207,10.804,49.533,26.669,61.289,50.827,37.169-25.718,24.158-47.327,20.011-55.886h.038Z" fill="#b4b4b4"/><path d="M670.653,438.761c-.134,0-.268-.017-.4-.052-.446-.117-.818-.422-1.019-.837-9.224-18.955-32.415-32.927-49.348-43.129-4.196-2.528-8.159-4.916-11.397-7.075-38.877-25.876-64.287-49.729-77.682-72.922-13.791-24.036-16.379-58.901,5.334-79.085,2.529-2.844,6.114-4.916,9.279-6.636,4.707-2.529,17.496-8.063,34.706-4.921.575.105,1.045.519,1.222,1.076.177.557.031,1.166-.379,1.583-10.936,11.13-10.96,25.208-9.054,35.058,2.479,12.81,9.713,25.97,19.848,36.105.061.061.116.126.166.196,6.835,9.522,35.932,30.074,51.564,41.115,4.396,3.105,7.572,5.348,9.102,6.529,3.606,2.907,7.404,5.673,11.078,8.348,10.099,7.354,20.542,14.959,28.33,26.285.109.158.186.332.231.512.137.279.282.571.433.875,4.654,9.372,15.554,31.32-21.115,56.692-.267.184-.581.28-.898.28ZM569.84,226.322c-11.257,0-19.446,3.617-22.919,5.483-2.943,1.6-6.274,3.518-8.465,6.006-.035.04-.073.078-.112.115-20.563,19.055-17.981,52.278-4.802,75.247,13.144,22.758,38.233,46.268,76.696,71.869,3.179,2.12,7.112,4.489,11.276,6.998,16.788,10.114,39.607,23.862,49.717,42.805,13.97-9.991,21.776-20.405,23.21-30.971,1.216-8.961-2.286-16.013-4.604-20.68-.213-.427-.413-.831-.596-1.209-.011-.022-.021-.044-.03-.067-7.464-10.734-17.596-18.112-27.398-25.249-3.704-2.698-7.535-5.487-11.175-8.422-1.451-1.119-4.768-3.462-8.969-6.429-15.728-11.109-44.955-31.752-52.231-41.747-10.523-10.558-18.038-24.272-20.626-37.648-2.678-13.84.122-26.378,7.891-35.657-2.396-.31-4.688-.445-6.866-.445Z"/><path id="path2439" d="M610.353,240.267c25.071,20.011,39.375,31.12,63.533,27.011,18.109-3.158,15.56-25.071-12.707-43.18-13.962-8.864-29.864-13.353-49.875-13.353s-51.778,12.402-65.435,20.315c12.707-7.304,37.816-12.06,64.484,9.207Z" fill="#fff"/><path d="M664.323,269.704c-19.622,0-33.642-11.192-54.954-28.203-24.24-19.33-48.285-17.363-62.707-9.075,0,0,0,0-.001,0-.002,0-.003.002-.005.003-.756.435-1.719.175-2.154-.58-.435-.754-.178-1.719.576-2.155,14.481-8.39,46.398-20.528,66.227-20.528,19.99,0,36.108,4.321,50.722,13.599,17.102,10.956,26.782,24.822,24.668,35.328-1.15,5.716-5.603,9.53-12.536,10.74-3.453.587-6.716.87-9.835.87ZM570.16,223.303c.913,0,1.843.022,2.794.07,13.265.659,26.18,5.928,38.384,15.66,0,0,0,0,0,0,24.011,19.165,38.508,30.734,62.283,26.689,5.556-.969,9.101-3.899,9.977-8.251.822-4.085-.691-9.262-4.259-14.576-4.077-6.071-10.65-12.111-19.011-17.467-14.08-8.939-29.659-13.104-49.024-13.104-12.804,0-30.851,5.24-45.686,11.167,1.455-.121,2.971-.188,4.542-.188Z"/></g><g id="text1" isolation="isolate"><g isolation="isolate"><path d="M747.568,459.836c3.075,0,6.077.789,9.007,2.367,2.929,1.578,5.212,3.836,6.847,6.774,1.634,2.938,2.452,6.001,2.452,9.19,0,3.156-.805,6.191-2.416,9.105s-3.869,5.175-6.774,6.786c-2.905,1.611-5.944,2.416-9.116,2.416s-6.212-.805-9.117-2.416c-2.905-1.611-5.167-3.872-6.786-6.786-1.619-2.913-2.428-5.948-2.428-9.105,0-3.188.821-6.252,2.464-9.19,1.642-2.938,3.929-5.195,6.859-6.774s5.932-2.367,9.008-2.367ZM747.568,462.871c-2.574,0-5.079.66-7.514,1.979-2.436,1.319-4.342,3.205-5.718,5.657-1.376,2.452-2.064,5.006-2.064,7.66,0,2.639.676,5.168,2.027,7.587,1.351,2.42,3.241,4.306,5.669,5.657,2.428,1.352,4.961,2.027,7.599,2.027s5.171-.676,7.599-2.027c2.428-1.351,4.313-3.237,5.657-5.657,1.343-2.419,2.015-4.949,2.015-7.587,0-2.654-.684-5.208-2.052-7.66-1.368-2.452-3.274-4.338-5.718-5.657-2.444-1.319-4.945-1.979-7.502-1.979ZM739.531,488.291v-19.714h6.774c2.315,0,3.99.182,5.026.547,1.036.364,1.861.999,2.477,1.906s.923,1.869.923,2.889c0,1.441-.514,2.695-1.542,3.763-1.028,1.068-2.391,1.667-4.091,1.797.696.292,1.254.64,1.676,1.044.793.777,1.764,2.08,2.913,3.909l2.403,3.86h-3.885l-1.748-3.107c-1.376-2.444-2.485-3.973-3.326-4.589-.583-.453-1.432-.68-2.549-.68h-1.869v8.376h-3.181ZM742.712,477.195h3.86c1.845,0,3.104-.275,3.775-.826.671-.55,1.008-1.278,1.008-2.185,0-.583-.162-1.105-.486-1.566-.324-.461-.773-.805-1.348-1.032-.575-.227-1.639-.34-3.193-.34h-3.617v5.948Z"/></g></g></svg>