<?xml version="1.0" encoding="UTF-8"?><svg id="LOGO" xmlns="http://www.w3.org/2000/svg" viewBox="0 0 1250 703"><defs><style>.cls-1{fill:#29b5e8;fill-rule:evenodd;}</style></defs><g id="logo-sno-blue"><path id="Snowflake-Logo" class="cls-1" d="m744.37576,311.00692l-.02569-.01663s-.01511-.00908-.03325-.00908c-.62607-.27522-1.3126-.41737-1.97343-.41737-1.07066.00756-2.09743.32663-2.99265.88615-.91185.57766-1.68307,1.42147-2.12615,2.47547v.02571l-20.88807,57.16574-16.09738-38.31615-.02569-.01814c-.45214-1.07064-1.26267-1.89781-2.18207-2.47397-.93004-.57766-2.00069-.89522-3.12879-.89522-1.09484,0-2.11557.34176-3.01834.90278-.88766.57615-1.68912,1.39576-2.14126,2.4664l-.00907.01814-16.13068,38.34186-20.99992-57.14154h-.01511c-.36745-1.10391-1.11298-1.96586-1.99913-2.53445-.90278-.57615-1.95681-.89523-3.04404-.90278-.69414,0-1.39578.14215-2.05813.41737h-.03174l-.02575.02571c-1.95675.91186-3.15292,2.86865-3.16047,5.00085,0,.66991.13306,1.3383.39169,1.99914h-.00761l25.83143,69.35862v.02571c.20113.51716.48545,1.0283.90429,1.53035.29943.3599.74402.66083,1.20372.91186.0847.08317.21776.19961.41738.32511.21776.13459.49447.22683.77878.27673.4597.15123,1.07066.37503,1.89025.37503,1.0434,0,2.01424-.37503,2.88377-.93606.81203-.54289,1.53943-1.35493,1.94018-2.40743l.0665-.05142,16.33327-39.04502,16.35751,38.88625h.01663c.37652,1.03736,1.03735,1.84941,1.80706,2.42556.81058.61093,1.72091.98747,2.68415,1.12811h.68507c.65322,0,1.28836-.12401,1.82218-.33268.56102-.21776,1.01317-.50205,1.38817-.78635.87859-.6699,1.55605-1.58932,1.97495-2.61006v-.0242l25.66511-69.05012c.25101-.66083.38407-1.32167.38407-1.99006-.00756-2.11557-1.25511-4.13133-3.31173-5.00992Zm-118.08021,39.59698c0-8.14471-3.12722-15.52122-8.10237-20.84871-5.00085-5.33505-11.7755-8.59686-19.13388-8.59686-7.35989,0-14.14966,3.26182-19.14295,8.59686-4.98422,5.32748-8.11144,12.704-8.11144,20.84871,0,8.13716,3.12722,15.44562,8.11144,20.73833,4.99329,5.31084,11.78306,8.52276,19.14295,8.52276,7.35838,0,14.15722-3.21192,19.13388-8.52276,4.97515-5.29271,8.10237-12.60117,8.10237-20.73833Zm-.14213-28.27362c6.90772,7.3251,11.1056,17.3767,11.12223,28.27362-.01663,10.89692-4.21451,20.93945-11.12223,28.26606-6.85633,7.31754-16.43157,11.94186-27.0775,11.94186-10.56271,0-20.15461-4.62431-27.03663-11.94186-6.89109-7.32661-11.15551-17.36914-11.15551-28.26606s4.26441-20.94852,11.15551-28.27362c6.88203-7.30998,16.47392-11.93429,27.03663-11.93429,10.64593,0,20.22117,4.62431,27.0775,11.93429Zm-108.75601-11.79214c-8.56359,0-16.38167,3.33743-22.21876,8.6634v-3.1847c-.00907-1.46381-.55195-2.82782-1.50615-3.8304-.92699-.98747-2.30007-1.6483-3.80471-1.6483-1.55605,0-2.96088.62756-3.93777,1.63922-.96175.99503-1.53943,2.37567-1.53943,3.83948v70.97364l.22532.22532.00907.03327c.059.2344.20869.49298.36748.74401.74399,1.3126,1.96434,2.30913,3.47807,2.75069l.21776.06806h1.17951c.78634,0,1.58024-.16785,2.33332-.51869.62756-.30093,1.21279-.78634,1.68156-1.40483l.01665.00756c.05746-.05746.0756-.13308.14213-.19205.02421-.00756.04991-.03327.06653-.05897.29187-.37503.53533-.76064.68656-1.11904.15878-.42795.25857-.82867.3342-1.13869l.04991-.19961v-42.61685c.15878-6.09569,2.66752-11.60766,6.68996-15.61348,3.99675-4.00431,9.47395-6.47978,15.5288-6.47978,6.15617,0,11.64849,2.47547,15.63012,6.47978,3.99675,3.9907,6.42232,9.49208,6.42232,15.55602v41.84562c0,1.53035.65174,2.94425,1.63921,3.91358,1.01166.96932,2.39079,1.53943,3.8304,1.53943,1.46232,0,2.83537-.57011,3.83796-1.53943,1.02075-.96932,1.63924-2.38323,1.63924-3.91358v-41.84562c0-18.06325-14.75152-32.94935-32.99926-32.97506Zm539.08003,32.30515c-3.1106-12.61932-14.19201-21.60935-26.83553-21.58364-12.9626,0-23.89125,8.79798-27.2786,21.58364h54.11413Zm11.98268,5.16871v.54289c0,1.51371-.67746,2.8762-1.70429,3.77142-1.02067.90279-2.35141,1.37157-3.7805,1.38821h-61.37267c1.56366,14.97683,13.5206,26.03405,27.79579,26.15048h3.62174c4.72409.01664,9.32423-1.61352,13.37237-4.31581,4.05424-2.67509,7.55949-6.41326,10.02587-10.52795.50963-.87859,1.23854-1.54698,2.03092-1.95678.81203-.44308,1.68307-.64421,2.56015-.64421.96934,0,1.93106.25102,2.7764.76064l.05895.02571.0665.04991c1.53792,1.1296,2.50126,2.852,2.50126,4.74225,0,.96176-.25101,1.94015-.77884,2.82631l-.01511.03328-.01814.01663c-3.42962,5.453-8.10388,10.42814-13.65517,14.03323-5.56187,3.61265-12.00989,5.90364-18.92517,5.90364h-3.68074c-10.76989-.07561-20.50389-4.62431-27.52055-11.90102-6.99997-7.24949-11.31429-17.21037-11.31429-28.15567,0-11.13132,4.34913-21.23282,11.40654-28.5428,7.05898-7.2994,16.86709-11.81634,27.73075-11.81634,10.36919,0,19.68435,4.12377,26.58452,10.87273,6.89865,6.74744,11.40649,16.12157,12.20951,26.66766l.02418.07561Zm-251.73915-70.64852c-1.49554,0-2.86865.62757-3.85461,1.61503-.98742.97839-1.61349,2.35752-1.61349,3.8546v102.52572c0,1.49708.62607,2.86865,1.61349,3.83949.98596.96932,2.35907,1.61352,3.85461,1.61352,3.10304,0,5.6118-2.4422,5.62843-5.453v-102.52572c-.01663-3.01835-2.52539-5.46963-5.62843-5.46963Zm-357.63555,71.28365c-4.41561-2.0823-9.42555-3.62021-14.42489-5.27759-4.60012-1.55454-9.26677-2.8762-12.59512-4.61524-1.67249-.89522-2.97753-1.84034-3.82134-2.90191-.86194-1.06156-1.27932-2.14127-1.30502-3.61265.00907-2.01577.59428-3.63836,1.58024-5.07646,1.49708-2.14884,4.00582-3.82134,6.74896-4.90105,2.70987-1.08576,5.64505-1.59688,7.74397-1.59688,6.20457.00908,10.12722,2.07474,13.13801,4.21451,1.48801,1.07971,2.74315,2.17455,3.93021,3.07733.61093.46878,1.17951.89523,1.84034,1.21278.62607.31001,1.36251.56103,2.16547.56103.50961,0,1.02075-.09225,1.48801-.29337.49298-.19961.92094-.48391,1.33074-.83625.40073-.37503.74399-.82717.98596-1.32922.21776-.51869.31757-1.054.31757-1.58025,0-.97083-.31001-1.88118-.75309-2.73558-.82718-1.50464-2.09894-2.94274-3.72001-4.38084-2.40892-2.14128-5.58608-4.18124-9.00666-5.72066-3.42968-1.53791-7.10888-2.58435-10.61265-2.58435-8.12051,0-14.90272,1.84034-19.82797,5.22768-2.56771,1.77229-4.82543,3.71245-6.42232,6.38905-1.62259,2.68416-2.52536,5.99588-2.64334,10.30263-.00756.19205-.00756.3841-.00756.57615-.01663,4.18123,1.32923,7.62754,3.44479,10.32833,3.21192,4.0648,7.97838,6.49793,12.65412,8.22033,4.66665,1.7224,9.33179,2.7522,12.27604,3.73816,4.14646,1.38064,8.55452,2.8762,11.76492,4.8587,1.5984,1.01166,2.89435,2.09894,3.77294,3.29509.85287,1.22942,1.33678,2.49967,1.35492,4.10563v.11795c-.00907,2.32426-.69409,4.14796-1.82372,5.71158-1.70574,2.32426-4.54112,4.03001-7.55193,5.10972-3.00172,1.05249-6.12138,1.49708-8.12807,1.49708-7.08316,0-11.8239-1.70728-15.26113-3.42059-1.72391-.86195-3.11969-1.71484-4.38236-2.43465-.62758-.34326-1.21279-.66083-1.83128-.91186-.60337-.24951-1.24607-.40981-1.97343-.40981-.44308,0-.9285.07561-1.37309.25102-.45063.19356-.86043.46123-1.20369.78635-.47635.46121-.89371.97839-1.18709,1.57268-.28429.5943-.42642,1.22035-.42642,1.87362,0,1.07064.40073,2.04903.97082,2.93518.89371,1.27932,2.20782,2.42556,3.84552,3.5703,1.68914,1.12962,3.7049,2.24108,6.02915,3.33744,5.15207,2.43312,11.75888,3.70489,16.77638,3.78806h.01663c7.80294,0,14.54283-1.798,20.22114-5.97924v-.00908h.00756c5.55283-4.18123,9.00669-10.39486,9.00669-17.40996,0-3.85611-.9028-7.12549-2.48304-9.8021-2.38323-4.05572-6.25598-6.7308-10.6459-8.83881Zm440.10795,1.95678c0-8.22032-3.10298-15.58776-8.06151-20.90618-4.95248-5.30178-11.74981-8.52125-19.1853-8.53788-7.37503,0-14.14818,3.23611-19.15054,8.53788-4.96603,5.31841-8.10993,12.68586-8.10993,20.90618,0,8.21276,3.1439,15.53031,8.10993,20.80637,4.97666,5.27759,11.7755,8.45472,19.15054,8.45472,7.45212,0,14.25096-3.17713,19.20193-8.43808,4.9419-5.29271,8.04488-12.60268,8.04488-20.82301Zm9.29854-38.68512c1.01166.97839,1.63924,2.3923,1.63924,3.92113v69.51891c0,1.49708-.6427,2.86865-1.60442,3.83949-.98898.96932-2.35152,1.61352-3.85613,1.61352s-2.88528-.64419-3.85613-1.61352c-.98596-.97083-1.6211-2.34241-1.6211-3.83949v-6.78222c-6.88354,7.43549-16.54952,12.23522-27.24681,12.23522-10.64439,0-20.2287-4.57441-27.0941-11.90102-6.88958-7.29184-11.10409-17.33587-11.10409-28.3069s4.21451-21.02413,11.10409-28.32352c6.8654-7.31754,16.44971-11.88439,27.0941-11.88439,10.68973,0,20.36327,4.65909,27.24681,12.0598v-6.61588c0-1.52883.62758-2.94274,1.63924-3.92113,1.01166-.96176,2.37419-1.52279,3.83799-1.52279,1.44717,0,2.82628.56102,3.82131,1.52279Zm77.21299,7.04988c1.08728-1.07971,1.68005-2.51025,1.68005-3.93021,0-1.39727-.59276-2.79454-1.68912-3.80621h.00907c-.00907-.03327-.03476-.03327-.03476-.03327-.00756-.0242-.02418-.03327-.02418-.03327h-.01668c-1.05398-1.03737-2.4089-1.60596-3.80619-1.60596-1.41241,0-2.79151.58674-3.84549,1.63923l-42.75903,41.67172v-70.03759c0-3.01835-2.52539-5.46963-5.62843-5.46963-1.49554,0-2.86709.62757-3.84549,1.61503-.97085.97839-1.62261,2.35752-1.62261,3.8546v102.52572c0,1.49708.65177,2.86865,1.62261,3.83949.9784.96932,2.34995,1.61352,3.84549,1.61352,3.10304,0,5.62843-2.4422,5.62843-5.453v-16.917l13.92437-13.90771,28.38397,34.24531c.53382.78634,1.26272,1.32923,1.98099,1.61352.81965.31,1.61505.41888,2.32426.41888.9784,0,2.35907-.20869,3.57181-1.16288l.06656-.04084.07412-.0756c1.13716-1.12055,1.78137-2.61006,1.78137-4.13133,0-1.27932-.47487-2.58435-1.35341-3.62928v-.01664l-28.89366-35.12389,28.60027-27.66269h.02569Zm-191.54596-41.36173h-1.22186c-.15881,0-.31757.01664-.48388.0242-.15125-.00756-.31001-.0242-.46882-.0242-3.15292,0-6.21363.35839-9.07473,1.31259-2.81721.93605-5.41817,2.48303-7.43398,4.83451l-.00756-.00907-.00756.00907v.00756c-2.08226,2.31669-3.45537,5.08402-4.29008,8.2294-.83627,3.1605-1.18105,6.72325-1.21279,10.76989v7.83774h-8.63921c-3.00172.01664-5.38497,2.4165-5.38497,5.31841-.01663,1.56362.59282,3.00172,1.58029,4.03909.99503,1.02074,2.35751,1.68913,3.87119,1.7723h8.57271v63.76498l-.00907.14972c0,1.49707.62753,2.8762,1.63918,3.86367,1.00264.97083,2.40895,1.54698,3.93931,1.54698,2.90946-.01664,5.30028-2.3908,5.30935-5.41065v-63.9147h9.29098c1.49705-.08317,2.87616-.71073,3.86514-1.7224,1.01014-1.01166,1.63017-2.43314,1.63017-3.97256v-.20868c-.03476-2.86865-2.43465-5.22617-5.43636-5.22617h-9.34992v-7.80447c.05895-3.45236.41889-6.03671.93603-7.91789.50208-1.89025,1.18861-3.07884,1.80712-3.81377.60183-.65327,1.38817-1.19615,2.66752-1.63167,1.28836-.41737,3.06973-.68502,5.47868-.68502h.28432c.14213,0,.29182-.02571.42488-.02571.16939,0,.32664.02571.50208.02571h1.22186c3.0849,0,5.56943-2.49211,5.56943-5.56944s-2.48453-5.56944-5.56943-5.56944Zm-550.78749,76.61718c.44308-1.39727.62756-2.83537.59429-4.25685-.05141-1.0283-.18449-2.05659-.47634-3.08489-.87859-3.19528-2.96089-6.04729-6.08056-7.84529l-44.37252-25.62274c-6.26354-3.60509-14.24947-1.4623-17.84549,4.79217-3.62928,6.2469-1.48801,14.22376,4.77553,17.83792l24.79556,14.34172-24.79556,14.29937c-6.26354,3.62173-8.39725,11.59858-4.77553,17.87119,3.59601,6.23783,11.58195,8.37155,17.84549,4.76646l44.37252-25.63937c2.99416-1.7224,5.02655-4.42471,5.96261-7.45969Zm12.04166,24.00921c-2.54957-.21775-5.20046.31757-7.58369,1.70577l-44.40578,25.6061c-6.2469,3.61265-8.38062,11.63185-4.77553,17.88783,3.62172,6.23934,11.6001,8.38817,17.83792,4.75889l24.87873-14.35078v28.67587c0,7.22529,5.84465,13.07902,13.07903,13.07902,7.19959,0,13.06239-5.85373,13.06239-13.07902v-51.26362c0-6.88203-5.33505-12.53615-12.09307-13.02006Zm45.47642-55.71251c2.54201.20868,5.18534-.3342,7.56857-1.70576l44.39672-25.6303c6.25597-3.61416,8.37911-11.6001,4.78309-17.87119-3.60358-6.2469-11.58951-8.38818-17.83792-4.77553l-24.86058,14.36742v-28.68494c0-7.20715-5.84617-13.06088-13.07903-13.06088-7.23436,0-13.06391,5.85373-13.06391,13.06088v51.26362c0,6.87447,5.31993,12.53615,12.09307,13.03669Zm-97.46589-27.33606l44.40578,25.6303c2.38323,1.37157,5.03412,1.91445,7.58369,1.70576,6.75802-.50054,12.09307-6.16222,12.09307-13.03669v-51.26362c0-7.20715-5.86281-13.06088-13.06239-13.06088-7.23437,0-13.07903,5.85373-13.07903,13.06088v28.68494l-24.87873-14.36742c-6.23783-3.61265-14.2162-1.47137-17.83792,4.77553-3.60509,6.2711-1.47137,14.25703,4.77553,17.87119Zm83.4493,55.09252c0-.74401-.45063-1.78138-.97688-2.33332l-5.34412-5.31841c-.52625-.52625-1.56361-.96176-2.30913-.96176h-.20869c-.74399,0-1.77986.43552-2.29853.96176l-5.34412,5.31841c-.53532.55194-.94512,1.58932-.94512,2.33332v.20868c0,.73645.40981,1.76474.94512,2.30006l5.34412,5.33504c.52625.52625,1.55454.96176,2.29853.96176h.20869c.74552,0,1.78288-.43552,2.30913-.96176l5.34412-5.33504c.52625-.53532.97688-1.56361.97688-2.30006v-.20868Zm14.75304,5.11728l-18.45641,18.43223c-.52777.54287-1.54698.98595-2.3167.98595h-5.42729c-.74552,0-1.78137-.44308-2.31669-.98595l-18.44734-18.43223c-.52776-.51869-.9542-1.56361-.9542-2.29855v-5.43636c0-.75307.42644-1.798.9542-2.32425l18.44734-18.43222c.53532-.54288,1.57117-.96932,2.31669-.96932h5.42729c.75307,0,1.78893.42644,2.3167.96932l18.45641,18.43222c.52625.52625.95268,1.57118.95268,2.32425v5.43636c0,.73494-.42644,1.77986-.95268,2.29855Zm51.22884,50.15064l-44.39672-25.6061c-2.38323-1.3882-5.02655-1.92352-7.56857-1.70577-6.77315.48391-12.09307,6.13803-12.09307,13.02006v51.26362c0,7.22529,5.82955,13.07902,13.06391,13.07902,7.23286,0,13.07903-5.85373,13.07903-13.07902v-28.67587l24.86058,14.35078c6.2469,3.62928,14.23435,1.48045,17.83792-4.75889,3.59602-6.25598,1.47288-14.27518-4.78309-17.88783Zm23.47389-69.50076l-24.79556,14.34172,24.79556,14.29937c6.26353,3.62173,8.40481,11.59858,4.78309,17.87119-3.61265,6.23783-11.60614,8.37155-17.84548,4.76646l-44.40579-25.63937c-2.96089-1.7224-5.01748-4.42471-5.92934-7.45969-.43399-1.39727-.63511-2.83537-.58522-4.25685.02571-1.0283.17542-2.05659.45971-3.08489.88766-3.19528,2.96996-6.04577,6.05485-7.84529l44.40579-25.62274c6.23934-3.60509,14.23284-1.4623,17.84548,4.79217,3.62173,6.2469,1.48044,14.22376-4.78309,17.83792Zm720.0933-25.57683c0,7.18859-4.81121,13.18852-12.84886,13.18852-7.98108,0-12.73572-6.05653-12.73572-13.18852,0-7.18859,4.75464-13.18852,12.73572-13.18852,8.03765,0,12.84886,5.99993,12.84886,13.18852Zm-2.54714,0c0-6.11314-4.07534-10.75459-10.30172-10.75459-6.11312,0-10.18857,4.41504-10.18857,10.75459,0,6.05653,4.07545,10.75458,10.18857,10.75458,6.22637,0,10.30172-4.64145,10.30172-10.75458Zm-15.33943-5.94332h5.49051c2.99993,0,4.98114,1.64149,4.98114,4.18863,0,1.58489-.79244,2.77355-1.98121,3.50939l2.15092,3.11317v.62264h-3.11308l-2.09435-2.99996h-2.43389v2.99996h-3.00004v-11.43382Zm5.43393,2.77355h-2.43389v2.99996h2.43389c1.13209,0,1.86785-.50942,1.86785-1.47168,0-1.01886-.67919-1.52828-1.86785-1.52828Z"/></g></svg>