<?xml version="1.0" encoding="UTF-8"?>
<svg id="LOGO" xmlns="http://www.w3.org/2000/svg" viewBox="0 0 1250 703">
  <defs>
    <style>
      .cls-1 {
        fill: #0056f0;
        stroke-width: 0px;
      }
    </style>
  </defs>
  <g id="Logo_white" data-name="Logo white">
    <g>
      <path class="cls-1" d="M262.94,296.21h-47.94v-43.76h148.5v43.76h-47.99l.02,128.23h-52.56l-.02-128.23ZM262.74,295.9"/>
      <path class="cls-1" d="M407.24,368.24c-5.77,2.85-12.27,4.49-18.74,5.89-10.58,2.35-16.11,4.95-16.15,13.34-.03,5.77,6.17,11.56,14.8,11.62,10.79.06,19.23-6.36,20.03-19.32l.06-11.52ZM452.67,396.59c-.06,9.35.36,19.92,5.58,27.87l-48.47-.29c-1.18-3.36-1.88-8.41-1.6-11.77h-.49c-10.13,11.45-24.79,14.72-40.16,14.64-23.99-.14-43.83-11.77-43.69-37.92.24-39.35,46.3-37.64,70.55-42.05,6.48-1.17,12.97-3.05,13.01-10.97.05-8.4-7.84-11.57-15.52-11.62-14.63-.07-17.57,7.34-17.83,12.62l-44.15-.25c1.64-35.02,34.77-40.59,64.3-40.43,59.5.35,58.88,25.06,58.73,49.06l-.28,51.11ZM452.67,396.59"/>
      <path class="cls-1" d="M525.9,331.75c-17.03-.1-20.96,15.96-21.05,30.58-.09,14.87,3.66,30.99,20.69,31.08,17.04.09,20.97-15.96,21.06-30.84.09-14.63-3.66-30.73-20.7-30.82M459.67,252.18h47.5l-.34,61.71h.48c7.25-10.51,20-16.68,34.17-16.61,41.73.25,52.81,35.82,52.64,65.1-.18,31.19-17.42,65.88-52.68,65.68-23.27-.14-30.42-9.06-36.38-17.02h-.48l-.09,13.4h-44.82v-172.25ZM459.67,253.14"/>
      <path class="cls-1" d="M660.77,287.03c-18-.11-20.5,17.4-20.58,30.59-.07,13.19,2.22,30.97,20.21,31.08,17.99.1,20.5-17.63,20.58-30.84.08-13.2-2.22-30.72-20.21-30.82M660.21,383.24c-46.79-.27-67.73-31.35-67.52-65.9.2-34.56,21.49-65.14,68.28-64.85,46.79.26,67.73,31.09,67.52,65.65-.21,34.54-21.49,65.38-68.28,65.11"/>
      <path class="cls-1" d="M778.66,287.03c-17.99-.11-20.49,17.4-20.57,30.6-.09,13.19,2.21,30.96,20.21,31.07,17.98.11,20.5-17.63,20.57-30.83.08-13.2-2.22-30.73-20.21-30.83M778.1,383.25c-46.78-.28-67.71-31.36-67.51-65.91.19-34.55,21.49-65.14,68.27-64.86,46.79.27,67.72,31.1,67.53,65.65-.21,34.56-21.5,65.38-68.29,65.12"/>
      <path class="cls-1" d="M851.51,252.49h46.5v171.95h-46.5v-171.95ZM851.51,252.49"/>
      <path class="cls-1" d="M984.6,367.83c-5.77,2.84-12.27,4.48-18.73,5.88-10.59,2.35-16.11,4.96-16.16,13.35-.03,5.76,6.17,11.55,14.8,11.6,10.8.06,19.24-6.36,20.03-19.32l.07-11.51ZM1030.32,396.15c-.04,9.36-.56,20.34,4.68,28.28h-47.75c-1.17-3.37-1.97-9.11-1.7-12.45h-.48c-10.14,11.44-24.78,14.72-40.14,14.64-24-.15-43.85-11.78-43.69-37.94.24-39.35,46.28-37.63,70.54-42.05,6.48-1.17,12.98-3.06,13.02-10.97.06-8.4-7.83-11.57-15.52-11.61-14.64-.07-17.56,7.34-17.82,12.61l-44.17-.24c1.65-35.03,34.8-40.6,64.31-40.41,59.5.33,58.88,25.05,58.74,49.04v51.11ZM1030.32,396.15"/>
      <path class="cls-1" d="M610.51,383.25c33.73,15.07,68.73,21.76,106.87,21.98,40.07.24,70.45-7.33,108.91-21.98l-.22,41.51c-34.43,17.07-71.76,26.28-108.96,26.06-40.54-.24-69.76-8.57-106.85-26.06l.25-41.51ZM610.51,383.25"/>
    </g>
  </g>
</svg>