<svg xmlns="http://www.w3.org/2000/svg" viewBox="0 0 1250 703"><defs><style>.a{fill:#231f20;}.b{fill:#0074bc;}.c{fill:#b6ada5;}.d{fill:#817a67;}</style></defs><path class="a" d="M319.5,279.489h33.77v12.735q0,15.8-15.088,15.778H319.5v69.344q0,11.07,6.928,17.016a19.261,19.261,0,0,0,13.413,4.849v13.014q0,9.55-8.587,11.9-7.175,2.221-14.662-1.664a41.221,41.221,0,0,1-18.143-16.048q-7.579-11.781-7.6-29.072V242.956q0-15.085,15.773-15.078H319.5Z"/><path class="a" d="M409.051,293.364q24.224,0,42.507,14.932,18.908,15.692,18.913,38.3v77.957a48.134,48.134,0,0,1-4.7,21.375,42.244,42.244,0,0,1-13.537,15.837,63.752,63.752,0,0,1-18.709,9.142,81.323,81.323,0,0,1-22.252,2.957,97.935,97.935,0,0,1-19.759-1.966c-5.92-1.342-9.836-3.518-11.733-6.562q-2.472-3.829-.743-10.757l2.467-10.116q8.63,3.822,22.49,4.314a77.036,77.036,0,0,0,22.484-2.348q18.423-5.172,18.429-21.876v-4.923a66.231,66.231,0,0,1-35.86,9.992q-24.807,0-42.615-14.824-18.907-15.538-18.9-38.317V346.591q0-22.617,18.9-38.3,18.156-14.949,42.615-14.932m26.207,34.464q-10.747-8.895-26.207-8.893-15.433,0-26.3,8.893-9.648,8.025-9.648,18.763v29.885c0,7.2,3.216,13.44,9.648,18.811q10.844,8.88,26.3,8.9,15.465,0,26.207-8.9,9.647-7.814,9.653-18.811V346.591q0-10.877-9.653-18.763"/><path class="a" d="M533.121,293.363a113.331,113.331,0,0,1,17.367,1.331,58.733,58.733,0,0,1,16.613,5.214,46.954,46.954,0,0,1,15.939,13.446,36.907,36.907,0,0,1,7.165,22.247,38.915,38.915,0,0,1-4.45,18.789A36.236,36.236,0,0,1,575,366.6a42.2,42.2,0,0,1-15.309,7.412,64.856,64.856,0,0,1-16.936,2.107H511.881a29.157,29.157,0,0,1-4.574-.237,8.394,8.394,0,0,1-4.2-1.983v10.763q0,8.985,9.136,14.447a38.638,38.638,0,0,0,17.416,5.075,53.47,53.47,0,0,0,18.552-1.374A30.676,30.676,0,0,0,560.3,397.5a16.737,16.737,0,0,0,3.221-2.963c3.948-4.514,9.017-5.273,15.191-2.219l12.351,6.055a42.972,42.972,0,0,1-9.389,14.092,54.88,54.88,0,0,1-21.752,13.1,75.381,75.381,0,0,1-25.07,4.057,82.719,82.719,0,0,1-19.888-2.09,51.182,51.182,0,0,1-18.412-7.79A39.234,39.234,0,0,1,482.216,402.7a49.764,49.764,0,0,1-4.7-22V339.054a43.352,43.352,0,0,1,4.342-18.773q6.658-13.575,21.493-20.637,13.107-6.294,29.768-6.281m12.352,57.31a24.284,24.284,0,0,0,12.368-2.952,13.78,13.78,0,0,0,6.911-10.757,13.311,13.311,0,0,0-4.563-11.749,23.424,23.424,0,0,0-8.9-4.568,52.405,52.405,0,0,0-9.89-1.718,64.151,64.151,0,0,0-19.646,1.352,31.628,31.628,0,0,0-12.842,6.168,15.564,15.564,0,0,0-5.8,12.131v12.093Z"/><path class="a" d="M598.9,342.772q0-21.985,18.492-37.5,17.244-14.48,41.3-14.479T700.1,305.269q18.52,15.717,18.5,37.5v82.946H706.9c-9.567,0-14.351-4.552-14.351-13.715V342.772q0-9.939-9.06-17.5-10.2-8.427-24.806-8.436t-24.8,8.436q-8.928,7.563-8.92,17.5v82.946H613.235c-9.545,0-14.339-4.552-14.339-13.715Z"/><path class="a" d="M724.839,287.225a13.883,13.883,0,1,1-.076,0Zm-.157,2.715a10.728,10.728,0,0,0,.157,21.445c5.9.091,10.24-4.757,10.24-10.725,0-5.894-4.342-10.72-10.316-10.72Zm-2.063,17.695h-3.1V294.271a25.837,25.837,0,0,1,5.16-.491c2.538,0,3.685.405,4.676,1.083a3.685,3.685,0,0,1,1.293,2.855,3.458,3.458,0,0,1-2.774,3.2v.172c1.314.394,2.036,1.477,2.451,3.265a9.617,9.617,0,0,0,.959,3.28h-3.324a10.41,10.41,0,0,1-1.077-3.188c-.237-1.487-1.067-2.15-2.785-2.15h-1.482Zm.081-7.552h1.476c1.735,0,3.1-.571,3.1-1.939,0-1.244-.878-2.053-2.844-2.053a8.158,8.158,0,0,0-1.735.151Z"/><path class="a" d="M876.189,382.112V342.363h-30.1v84c13.6-4.735,30.1-16.263,30.1-44.247"/><path class="b" d="M846.1,270.736v17.2h30.1v-61.48c-13.59,4.751-30.1,16.274-30.1,44.279"/><rect class="b" x="846.099" y="299.275" width="30.101" height="31.927"/><path class="b" d="M758.706,331.2h76.239V299.274H787.886s-42.663,1.438-45.669,33.058v10.03c.382-11.678,16.489-11.161,16.489-11.161"/><path class="c" d="M834.844,408.951V342.365H742.213v83.99h103.8c-12.47,0-11.172-17.4-11.172-17.4"/><path class="a" d="M944.746,299.269l-57.2.006V331.2h23.895s41.764,0,45.7-31.927V287.93c-.054,11.528-12.395,11.339-12.395,11.339"/><path class="b" d="M876.205,226.457c11.683.253,11.172,10.951,11.172,10.951v50.523h69.764V226.457Z"/><path class="d" d="M483.039,446.174h2.435l9.249,23.5-2.332.507-3.011-7.876H479.064l-2.909,7.644H473.72Zm-3.151,14.048h8.673L484.2,448.916Z"/><polygon class="d" points="515.052 469.949 501.241 450.046 501.241 469.949 499.016 469.949 499.016 446.313 501.241 446.313 514.643 465.597 514.643 446.313 516.868 446.313 516.868 469.949 515.052 469.949"/><path class="d" d="M541.739,446.174h2.43l9.254,23.5-2.327.507-3.017-7.876h-10.31l-2.914,7.644H532.42Zm-3.151,14.048h8.673L542.9,448.916Z"/><polygon class="d" points="560.081 448.47 560.081 456.9 567.687 456.9 568.032 459.023 560.081 459.023 560.081 469.947 557.716 469.947 557.716 446.315 569.573 446.315 569.573 448.47 560.081 448.47"/><polygon class="d" points="576.214 448.47 576.214 456.9 583.82 456.9 584.164 459.023 576.214 459.023 576.214 469.947 573.849 469.947 573.849 446.315 585.705 446.315 585.705 448.47 576.214 448.47"/><rect class="d" x="590.097" y="446.313" width="2.365" height="23.637"/><polygon class="d" points="598.903 469.949 598.903 446.313 601.267 446.313 601.267 467.757 610.382 467.757 610.727 469.949 598.903 469.949"/><rect class="d" x="614.952" y="446.313" width="2.359" height="23.637"/><path class="d" d="M631.006,446.174h2.429l9.26,23.5-2.332.507-3.017-7.876H627.03l-2.909,7.644h-2.434Zm-3.152,14.048h8.668l-4.347-11.306Z"/><polygon class="d" points="652.112 448.47 652.112 469.947 649.747 469.947 649.747 448.47 642.135 448.47 642.135 446.315 659.54 446.315 659.852 448.47 652.112 448.47"/><polygon class="d" points="663.958 469.949 663.958 446.313 676.288 446.313 676.288 448.472 666.317 448.472 666.317 456.52 674.198 456.52 674.543 458.643 666.317 458.643 666.317 467.795 676.633 467.795 676.633 469.949 663.958 469.949"/><path class="d" d="M701.947,470.4c-6.3,0-10.612-5-10.612-12.228,0-7.272,4.385-12.309,10.687-12.309,6.373,0,10.661,5,10.661,12.239s-4.363,12.3-10.736,12.3m.043-22.409c-4.972,0-8.231,4.105-8.231,10.111,0,6.065,3.291,10.176,8.263,10.176s8.221-4.111,8.221-10.106c0-6.076-3.292-10.181-8.253-10.181"/><polygon class="d" points="720.317 448.47 720.317 456.9 727.918 456.9 728.262 459.023 720.317 459.023 720.317 469.947 717.947 469.947 717.947 446.315 729.808 446.315 729.808 448.47 720.317 448.47"/><path class="b" d="M758.969,454.674c-.021-.969.006-1.9.065-2.731a10.314,10.314,0,0,1,.512-2.731c-1.325-1.266-2.5-2.537-3.378-3.523-.872.986-2.052,2.257-3.372,3.523a10.383,10.383,0,0,1,.5,2.731c.038.377.054.765.07,1.164a9.732,9.732,0,0,0,2.823,1.739,8.723,8.723,0,0,0,2.779-.172m-3.119-1.449a.846.846,0,0,1,1.692,0,.846.846,0,0,1-1.692,0m.781,2.812a9.392,9.392,0,0,0-.032,3.146c.383,2.855,2.57,5.753,3.545,6.927a90.3,90.3,0,0,1-1.169-10.886c-.7.274-1.509.565-2.344.813m-14.1,13.86h27.274V442.629H742.534Zm19.242-25.258a1.223,1.223,0,1,1-1.218,1.228,1.229,1.229,0,0,1,1.218-1.228m-11.016-.065a1.22,1.22,0,1,1-1.223,1.217,1.216,1.216,0,0,1,1.223-1.217m17.819,2.629a44.821,44.821,0,0,1-6.895,2.725,13.314,13.314,0,0,0-.048,4.552c.7,5.274,5.791,10.812,5.925,10.946.054.054,0,.157-.07.113a23.1,23.1,0,0,1-6.674-7.229,78.714,78.714,0,0,0-.119,9.95c.017.134-.113.107-.134.048-.054-.2-.189-.856-.356-1.8a15.2,15.2,0,0,1-4.169-4.67,48.431,48.431,0,0,0-.054,6.868c0,.086-.113.086-.118.043a51.578,51.578,0,0,1-1.067-11.323,7.284,7.284,0,0,1,.355-1.886c-.657-.63-1.265-1.265-1.777-1.831a82.754,82.754,0,0,1-1.611,14.6c-.011.059-.145.086-.129-.048a77.5,77.5,0,0,0-.119-9.95,23.176,23.176,0,0,1-6.668,7.229c-.076.044-.13-.059-.076-.113.135-.134,5.231-5.672,5.926-10.946a13.339,13.339,0,0,0-.043-4.552,45.265,45.265,0,0,1-6.9-2.725c-.075-.038-.054-.151.059-.124.733.221,4.988,1.54,7.488,1.126a15.748,15.748,0,0,0,4.546-2.882c-.592-.7-1.018-1.212-1.2-1.444-.06-.081.021-.172.1-.1.216.183.728.679,1.417,1.266.684-.587,1.207-1.083,1.422-1.266.07-.07.151.021.092.1-.178.232-.6.744-1.191,1.444a15.62,15.62,0,0,0,4.547,2.882c2.494.414,6.75-.9,7.487-1.126.1-.027.13.086.054.124"/><path class="d" d="M788.261,469.81c-7.424,0-12.433-5.72-12.433-14.188,0-8.42,5.085-14.259,12.626-14.259a13.216,13.216,0,0,1,7.714,2.354l-.441,2.774a12.3,12.3,0,0,0-7.3-2.666c-6.044,0-9.772,4.778-9.772,11.721,0,7.035,3.771,11.765,9.734,11.765a12.848,12.848,0,0,0,7.822-2.86l.4,2.618a14.272,14.272,0,0,1-8.349,2.741"/><path class="d" d="M802.708,446.005a1.907,1.907,0,1,1,0-3.813,1.907,1.907,0,0,1,0,3.813M801.4,450.5h2.581v18.8H801.4Z"/><path class="d" d="M816.85,469.61c-2.941,0-4.886-1.153-4.886-4.6V452.728h-2.9V450.5h2.9v-6.513l2.58-.436V450.5h4.331l.361,2.23h-4.692v11.845c0,1.9.754,2.737,2.78,2.737a11.138,11.138,0,0,0,1.751-.2l.4,2.187a10.358,10.358,0,0,1-2.623.312"/><path class="d" d="M830.145,471.642c-1.352,3.653-3.017,4.805-5.807,4.805a5.9,5.9,0,0,1-1.029-.123l-.355-2.3a7.475,7.475,0,0,0,1.551.167c1.551,0,2.456-.684,3.178-2.51l.878-2.262-7.116-18.682,2.543-.479,5.839,16.015,5.57-15.778h2.693Z"/><path class="d" d="M847.78,454.866c-3.819,0-6.378,2.963-6.378,7.38s2.559,7.364,6.378,7.364c3.863,0,6.464-2.957,6.464-7.364s-2.6-7.38-6.464-7.38m0,12.648c-2.408,0-3.97-2.068-3.97-5.268,0-3.264,1.519-5.284,3.97-5.284s4.019,2.074,4.019,5.284c0,3.292-1.509,5.268-4.019,5.268"/><path class="d" d="M861.476,448.176c-2.65,0-4.1,1.4-4.1,3.922v3.049h-2.085v2.144h2.085v12.023h2.4V457.291H863l-.35-2.144h-2.866v-2.9c0-1.25.555-1.826,1.81-1.826a7.432,7.432,0,0,1,1.422.075l-.538-2.235a6.637,6.637,0,0,0-1-.087"/><polygon class="d" points="889.058 469.273 889.058 456.157 873.84 456.157 873.84 469.273 871.098 469.273 871.098 441.855 873.84 441.855 873.84 453.7 889.058 453.7 889.058 441.855 891.8 441.855 891.8 469.273 889.058 469.273"/><path class="d" d="M903.91,469.666c-4.8,0-8.425-3.577-8.425-9.777,0-6.238,3.695-9.81,8.425-9.81,4.891,0,8.543,3.572,8.543,9.81,0,6.2-3.733,9.777-8.543,9.777m0-17.362c-3.728,0-5.764,3.135-5.764,7.585,0,4.331,2.069,7.552,5.764,7.552,3.814,0,5.845-3.1,5.845-7.552,0-4.326-2.069-7.585-5.845-7.585"/><path class="d" d="M923.372,469.508a12.936,12.936,0,0,1-4.891-.91v7.509l-2.624.436V450.482h2.026l.441,2.7a7.875,7.875,0,0,1,6.077-3.1c4.094,0,7.541,2.979,7.541,9.249,0,6.879-4.008,10.181-8.57,10.181m.749-17.081c-2.225,0-3.933,1.309-5.64,3.383v10.364a10.206,10.206,0,0,0,4.8,1.11c3.372,0,6-2.575,6-7.822,0-4.573-2.176-7.035-5.16-7.035"/><path class="d" d="M950.632,460.054H937.563c.076,4.611,2.22,7.353,6,7.353a10.207,10.207,0,0,0,6.631-2.785l.394,2.392a10.971,10.971,0,0,1-7.192,2.656c-4.929,0-8.463-3.34-8.463-9.815,0-6.033,3.5-9.777,8.1-9.777,5.128,0,7.6,4.218,7.6,9.421Zm-7.6-7.865c-2.936,0-4.848,2.182-5.365,5.8h10.262c-.28-3.383-1.875-5.8-4.9-5.8"/><path class="d" d="M956.329,469.651a2.707,2.707,0,0,1-2.828-2.872,2.826,2.826,0,1,1,2.828,2.872m0-5.441a2.557,2.557,0,1,0,2.419,2.569,2.357,2.357,0,0,0-2.419-2.569m.835,4.1-.964-1.368h-.307v1.32h-.55v-3.194h.965c.673,0,1.126.339,1.126.926a.873.873,0,0,1-.647.889l.921,1.3Zm-.856-2.747h-.415v.937h.393c.361,0,.587-.14.587-.463s-.2-.474-.565-.474"/></svg>