<svg id="LOGO" xmlns="http://www.w3.org/2000/svg" viewBox="0 0 1250 703"><defs><style>.cls-1{fill:#007dc6;}.cls-2{fill:#ffc220;}</style></defs><path class="cls-1" d="M256.85239,299.93407s18.31255,75.03971,21.23517,87.21978c3.41121,14.21634,9.55761,19.44864,27.27883,15.92l11.43485-46.52412c2.89815-11.55626,4.842-19.79508,6.705-31.55073h.32772c1.309,11.87113,3.17294,20.029,5.55792,31.5912,0,0,4.65478,21.12068,7.03848,32.214,2.39,11.08939,9.04139,18.07863,26.39938,14.27359L390.076,299.942H368.07779l-9.30166,44.59052c-2.50086,12.97958-4.77027,23.12142-6.51989,34.9955h-.31038c-1.59012-11.75564-3.61257-21.49575-6.15518-34.1417L336.10535,299.942H313.18529l-10.36,44.29934c-2.93506,13.46125-5.68022,24.33152-7.4259,35.80289h-.31615c-1.78773-10.80315-4.16886-24.46477-6.74731-37.49567,0,0-6.15508-31.685-8.31463-42.60657l-23.16681.003Zm209.70651,0V403.06986h20.944V299.92912h-20.944Zm294.97687,0v76.085c0,10.49026,1.97426,17.83977,6.19791,22.32981,3.69008,3.92694,9.76817,6.46975,17.05114,6.46975a49.77951,49.77951,0,0,0,15.156-2.24394l-.26989-16.3671a31.84,31.84,0,0,1-7.95614.94657c-7.13442,0-9.52719-4.56941-9.52719-13.98833V344.056h18.24048v-19.7329H782.18758V299.93436H761.53474ZM419.75346,323.84314c-13.01609,0-23.34842,3.65461-28.98047,6.90928l4.12168,14.11368a42.46108,42.46108,0,0,1,21.13253-5.93961c12.86607-.03306,14.96945,7.275,14.96945,11.96194v1.10845c-28.0349-.04208-45.74338,9.659-45.74338,29.43353,0,12.07347,9.01464,23.38792,24.68983,23.38792,9.6493,0,17.71933-3.84837,22.55584-10.01451h.47424s3.20275,13.39118,20.84727,8.27032a113.22687,113.22687,0,0,1-1.228-18.67282V356.84908c0-17.56042-7.49785-33.00562-32.83882-33.00562Zm125.285,0c-13.1059,0-18.99557,6.64179-22.5667,12.2768h-.31037V325.59217H502.1738V403.0748h21.05553V357.63444a18.18982,18.18982,0,0,1,.987-6.34252c1.74449-4.575,6.001-9.92666,12.797-9.92666,8.49566,0,12.47126,7.18269,12.47126,17.54859V403.074h21.03283V357.08388a21.5536,21.5536,0,0,1,.87715-6.28083,13.27973,13.27973,0,0,1,12.63509-9.43857c8.61293,0,12.74664,7.05773,12.74664,19.25518v42.45457H617.824V357.43942c0-24.067-12.22055-33.59587-26.0154-33.59587a28.05069,28.05069,0,0,0-15.29123,4.20844,32.60032,32.60032,0,0,0-9.81256,9.65058h-.31038c-3.3362-8.35036-11.16342-13.859-21.35953-13.859Zm115.62185,0c-13.01313,0-23.34349,3.65461-28.98048,6.90928l4.12742,14.11368a42.44244,42.44244,0,0,1,21.12858-5.93961c12.85718-.03306,14.96549,7.275,14.96549,11.96194v1.10845c-28.03094-.04208-45.74142,9.659-45.74142,29.43353,0,12.07347,9.01927,23.38792,24.70266,23.38792,9.64159,0,17.7144-3.84837,22.542-10.01451h.47617s3.20216,13.39118,20.84923,8.27032a113.0934,113.0934,0,0,1-1.22609-18.67282V356.84908c0-17.56042-7.49982-33.00562-32.84375-33.00562Zm87.43791,0c-8.06274,0-17.23569,5.20446-21.08614,16.36117h-.588V325.59118H707.46994v77.48263h21.60728v-39.676a29.43569,29.43569,0,0,1,.46846-5.71792c1.598-8.31107,7.95506-13.62411,17.07876-13.62411a39.6395,39.6395,0,0,1,6.2365.55135V324.32242a20.81952,20.81952,0,0,0-4.76166-.48ZM431.673,365.72719v9.66608a14.5904,14.5904,0,0,1-.52051,4.19492c-1.62092,5.36841-7.18229,9.90495-14.13442,9.90495-5.79609,0-10.40044-3.28951-10.40044-10.24844,0-10.64424,11.71715-13.58661,25.056-13.51751Zm240.90684,0v9.66608a14.68209,14.68209,0,0,1-.52051,4.19492c-1.62093,5.36841-7.18032,9.90495-14.13243,9.90495-5.79739,0-10.40242-3.28951-10.40242-10.24844,0-10.64424,11.71716-13.58661,25.056-13.51751Z"/><path class="cls-2" d="M913.66823,262.63482c-6.76144,0-12.13563,3.77582-12.13563,8.37246l4.1063,46.49649c.45327,2.80132,3.88478,4.96215,8.03319,4.96215,4.1566-.00543,7.57612-2.16438,8.03892-4.96215l4.12582-46.49648c0-4.59625-5.38926-8.37208-12.16034-8.37208Zm-66.91635,37.29727c-3.51018.08329-7.49774,2.74092-10.03426,7.13867-3.39229,5.856-2.79117,12.40018,1.178,14.696l42.31536,19.70625c2.64351.98321,6.23376-.89408,8.31273-4.4783v-.002c2.08866-3.60191,1.927-7.65183-.27182-9.44825l-38.21822-26.806a6.17373,6.17373,0,0,0-3.27927-.80583Zm133.83271,0a6.1567,6.1567,0,0,0-3.27541.80583l-38.2231,26.806c-2.18578,1.79631-2.3479,5.84643-.26989,9.44824l.002.002c2.08668,3.58424,5.6653,5.46149,8.30894,4.4783l42.33415-19.70527c3.98557-2.29585,4.55675-8.83973,1.18753-14.696-2.548-4.39786-6.54209-7.05536-10.052-7.13867ZM881.7918,361.27762a4.28712,4.28712,0,0,0-1.575.26411l-42.31536,19.68256c-3.969,2.30592-4.57012,8.85257-1.178,14.71479,3.382,5.84446,9.3432,8.623,13.31317,6.331l38.22117-26.78531c2.19915-1.81832,2.36139-5.86716.27182-9.46551l.01735.0079c-1.68942-2.931-4.38288-4.71786-6.75511-4.75013Zm63.77167,0c-2.36946.03227-5.05762,1.81911-6.75114,4.75013l.01542-.0079c-2.07932,3.59835-1.91829,7.64718.268,9.46551l38.2231,26.7853c3.96255,2.292,9.92961-.48642,13.327-6.331,3.36928-5.86244,2.798-12.40907-1.18753-14.71479L947.137,361.54234a4.27851,4.27851,0,0,0-1.57316-.26411Zm-31.90114,19.27c-4.14142.00493-7.5651,2.15658-8.01771,4.9506l-4.1063,46.49451c0,4.60434,5.37414,8.37247,12.13564,8.37247,6.774,0,12.15835-3.76822,12.15835-8.37247l-4.11588-46.49451c-.46286-2.794-3.88231-4.94527-8.03892-4.9506h-.01518Z"/></svg>