<?xml version="1.0" encoding="UTF-8"?>
<svg id="_图层_4" data-name="图层 4" xmlns="http://www.w3.org/2000/svg" viewBox="0 0 1250 703">
  <defs>
    <style>
      .cls-1, .cls-2 {
        stroke-width: 0px;
      }

      .cls-2 {
        fill: #706d6a;
      }
    </style>
  </defs>
  <g>
    <path class="cls-1" d="m325.27,468.98c-.4.13-.88.24-1.45.33-.57.09-1.16.13-1.78.13-1.36,0-2.55-.27-3.55-.82-1.01-.55-1.6-1.52-1.78-2.93-1.1,1.1-2.41,2.03-3.95,2.8-1.54.77-3.55,1.15-6.06,1.15-1.14,0-2.29-.13-3.46-.4-1.16-.26-2.22-.75-3.16-1.45-.94-.7-1.72-1.65-2.34-2.83-.62-1.19-.92-2.7-.92-4.54,0-2.28.58-4.15,1.74-5.6,1.16-1.45,2.6-2.59,4.31-3.42,1.71-.83,3.54-1.4,5.5-1.71,1.95-.31,3.74-.48,5.37-.53h1.38c.53,0,.99.02,1.38.07v-1c0-1.99-.47-3.51-1.42-4.55-.94-1.04-2.75-1.56-5.43-1.56-1.97,0-3.64.25-5,.76-1.36.5-2.68,1.2-3.95,2.07h-.66c-.35-.57-.65-1.18-.89-1.84-.24-.66-.36-1.18-.36-1.57,0-.56.35-1.09,1.05-1.59.7-.5,1.61-.94,2.73-1.33,1.12-.39,2.36-.69,3.72-.91,1.36-.22,2.7-.33,4.02-.33,2.24,0,4.1.24,5.6.72,1.49.48,2.7,1.21,3.62,2.17.92.97,1.57,2.17,1.94,3.62.37,1.45.56,3.12.56,5v12.97c0,1.05.04,1.88.13,2.47.09.59.25,1.03.49,1.32.24.29.57.47.99.56.42.09.95.13,1.61.13v2.63Zm-8.69-15.54h-1.91c-1.41,0-2.83.09-4.28.26-1.45.18-2.76.5-3.95.99-1.19.48-2.15,1.16-2.9,2.04-.75.88-1.12,2-1.12,3.36s.4,2.48,1.19,3.49c.79,1.01,2.26,1.51,4.41,1.51,1.14,0,2.23-.17,3.26-.49,1.03-.33,1.94-.73,2.73-1.22.79-.48,1.42-1.01,1.88-1.58.46-.57.69-1.12.69-1.65v-6.71Z"/>
    <path class="cls-1" d="m358.12,469.05h-5.6v-18.5c0-.83-.01-1.63-.03-2.4-.02-.77-.14-1.48-.36-2.14-.35-1.14-1-2.02-1.94-2.63-.94-.61-2.36-.92-4.25-.92-1.27,0-2.41.13-3.42.4-1.01.26-1.87.62-2.57,1.05-.7.44-1.25.94-1.65,1.51s-.59,1.14-.59,1.71v21.92h-5.6v-31.07c.31-.04.55-.07.72-.07h.4c1.01,0,1.92.25,2.73.76.81.5,1.31,1.37,1.48,2.6,1.01-1.01,2.38-1.91,4.11-2.7,1.73-.79,3.79-1.18,6.15-1.18,2.98,0,5.27.66,6.85,1.97s2.61,2.96,3.09,4.94c.22.88.35,1.85.4,2.93.04,1.08.07,2.12.07,3.13v18.7Z"/>
    <path class="cls-1" d="m415.85,469.05h-5.99l-4.41-11.85h-17.77l-4.28,11.85h-5.79l15.93-43.64c.31-.13.77-.26,1.38-.39.61-.13,1.23-.2,1.84-.2.83,0,1.59.19,2.27.56.68.37,1.22,1.09,1.61,2.14l15.21,41.54Zm-11.91-16.59l-7.37-21-7.44,21h14.81Z"/>
    <path class="cls-1" d="m442.71,445.88c-.75-.88-1.71-1.7-2.9-2.47-1.19-.77-2.79-1.15-4.81-1.15-1.67,0-3.09.29-4.28.86-1.18.57-2.16,1.37-2.93,2.4-.77,1.03-1.33,2.24-1.68,3.62-.35,1.38-.53,2.86-.53,4.44s.17,3.15.53,4.58c.35,1.43.91,2.67,1.68,3.72.77,1.05,1.77,1.89,3,2.5,1.23.62,2.7.92,4.41.92,1.18,0,2.25-.19,3.19-.56.94-.37,1.74-.8,2.4-1.28.88-.57,1.58-1.18,2.11-1.84.17.18.38.41.63.69.24.29.48.59.72.92.24.33.44.67.59,1.02.15.35.23.68.23.99,0,.62-.46,1.32-1.38,2.11-.83.75-2.03,1.38-3.59,1.91-1.56.53-3.46.79-5.69.79-1.41,0-2.95-.2-4.64-.59-1.69-.39-3.27-1.18-4.74-2.37-1.47-1.19-2.71-2.84-3.72-4.97-1.01-2.13-1.51-4.95-1.51-8.46,0-3.25.53-5.92,1.58-8.03s2.35-3.76,3.88-4.97c1.54-1.21,3.17-2.05,4.9-2.53,1.73-.48,3.26-.72,4.58-.72,1.58,0,3,.17,4.25.49,1.25.33,2.33.75,3.23,1.25.9.51,1.59,1.04,2.07,1.61.48.57.72,1.12.72,1.65s-.18,1.12-.53,1.78c-.35.66-.7,1.23-1.05,1.71h-.72Z"/>
    <path class="cls-1" d="m455.08,454.63c.13,3.2.98,5.78,2.53,7.73,1.56,1.95,3.96,2.93,7.21,2.93,1.23,0,2.33-.13,3.29-.4.96-.26,1.8-.58,2.5-.95.7-.37,1.28-.78,1.74-1.22.46-.44.84-.83,1.15-1.18.48.61.91,1.27,1.28,1.97.37.7.56,1.25.56,1.65,0,.35-.11.71-.33,1.09-.22.37-.59.76-1.12,1.15-1.01.75-2.3,1.37-3.88,1.88-1.58.5-3.49.76-5.73.76-2.06,0-4.01-.3-5.83-.89-1.82-.59-3.41-1.55-4.77-2.86-1.36-1.32-2.44-3.04-3.23-5.17-.79-2.13-1.19-4.73-1.19-7.8,0-2.76.41-5.16,1.22-7.18.81-2.02,1.88-3.67,3.19-4.97,1.32-1.29,2.82-2.25,4.51-2.86,1.69-.61,3.43-.92,5.23-.92,2.24,0,4.16.37,5.76,1.12,1.6.75,2.91,1.74,3.92,3,1.01,1.25,1.75,2.7,2.24,4.34.48,1.65.72,3.35.72,5.1,0,.62-.01,1.24-.03,1.88-.02.64-.08,1.24-.16,1.81h-20.8Zm15.4-4.21c0-1.19-.12-2.28-.36-3.29-.24-1.01-.65-1.9-1.22-2.67-.57-.77-1.33-1.37-2.27-1.81-.94-.44-2.1-.66-3.46-.66-2.28,0-4.16.75-5.63,2.24-1.47,1.49-2.29,3.55-2.47,6.19h15.4Z"/>
    <path class="cls-1" d="m489.38,469.05h-5.6v-31.07c.35-.04.63-.07.82-.07h.36c1.01,0,1.92.25,2.73.76.81.5,1.31,1.35,1.48,2.53.61-.92,1.54-1.79,2.76-2.6,1.23-.81,2.65-1.22,4.28-1.22.48,0,1,.04,1.55.13.55.09,1.06.23,1.55.43.48.2.88.47,1.19.82.31.35.46.81.46,1.38,0,.7-.18,1.46-.53,2.27-.35.81-.7,1.48-1.05,2.01-.57-.53-1.18-.93-1.84-1.22-.66-.29-1.49-.43-2.5-.43-.75,0-1.46.12-2.14.36-.68.24-1.28.57-1.81.99-.53.42-.94.89-1.25,1.42-.31.53-.46,1.08-.46,1.65v21.85Z"/>
    <path class="cls-1" d="m551.84,464.62c-.31.4-.87.89-1.68,1.49-.81.59-1.87,1.19-3.16,1.78-1.29.59-2.82,1.1-4.58,1.52-1.76.42-3.71.63-5.86.63-3.38,0-6.3-.57-8.76-1.71-2.46-1.14-4.49-2.74-6.09-4.81-1.6-2.06-2.79-4.51-3.55-7.34-.77-2.83-1.15-5.93-1.15-9.31s.4-6.33,1.18-9.12c.79-2.79,2-5.18,3.62-7.18,1.62-2,3.7-3.56,6.22-4.71,2.52-1.14,5.5-1.71,8.92-1.71,1.58,0,3.14.19,4.67.56,1.54.37,2.9.86,4.08,1.45,1.18.59,2.15,1.25,2.9,1.97.75.72,1.12,1.42,1.12,2.07,0,.53-.18,1.12-.53,1.78-.35.66-.75,1.25-1.19,1.78h-1.12c-.39-.48-.91-1-1.55-1.55-.64-.55-1.39-1.04-2.27-1.48-.88-.44-1.87-.8-2.96-1.09-1.1-.29-2.28-.43-3.55-.43-2.68,0-4.89.51-6.65,1.52-1.76,1.01-3.16,2.34-4.21,3.99-1.05,1.65-1.79,3.53-2.21,5.64-.42,2.11-.63,4.29-.63,6.53s.23,4.6.69,6.79c.46,2.2,1.25,4.15,2.37,5.87s2.59,3.1,4.41,4.15c1.82,1.05,4.09,1.58,6.81,1.58,1.23,0,2.36-.11,3.39-.33,1.03-.22,1.94-.49,2.73-.79.79-.31,1.44-.63,1.94-.96.5-.33.89-.63,1.15-.89v-11.64h-9.22v-4.74h14.68v18.68Z"/>
    <path class="cls-1" d="m566.33,469.05h-5.6v-31.07c.35-.04.63-.07.82-.07h.36c1.01,0,1.92.25,2.73.76.81.5,1.31,1.35,1.48,2.53.61-.92,1.54-1.79,2.76-2.6,1.23-.81,2.65-1.22,4.28-1.22.48,0,1,.04,1.55.13.55.09,1.06.23,1.55.43.48.2.88.47,1.19.82.31.35.46.81.46,1.38,0,.7-.18,1.46-.53,2.27-.35.81-.7,1.48-1.05,2.01-.57-.53-1.18-.93-1.84-1.22-.66-.29-1.49-.43-2.5-.43-.75,0-1.46.12-2.14.36-.68.24-1.28.57-1.81.99-.53.42-.94.89-1.25,1.42-.31.53-.46,1.08-.46,1.65v21.85Z"/>
    <path class="cls-1" d="m594.7,470.04c-2.59,0-4.81-.44-6.65-1.32s-3.34-2.05-4.48-3.52c-1.14-1.47-1.98-3.2-2.5-5.2-.53-2-.79-4.11-.79-6.35s.31-4.28.92-6.25c.61-1.97,1.54-3.7,2.77-5.17,1.23-1.47,2.75-2.64,4.57-3.52,1.82-.88,3.96-1.32,6.42-1.32s4.73.44,6.55,1.32c1.82.88,3.3,2.05,4.44,3.52,1.14,1.47,1.97,3.17,2.5,5.1.53,1.93.79,3.97.79,6.12s-.26,4.22-.79,6.22c-.53,2-1.37,3.76-2.53,5.3-1.16,1.54-2.67,2.76-4.51,3.69-1.84.92-4.08,1.38-6.71,1.38Zm0-4.74c1.75,0,3.2-.36,4.34-1.09,1.14-.72,2.02-1.65,2.63-2.77.61-1.12,1.04-2.38,1.28-3.78.24-1.4.36-2.79.36-4.15s-.12-2.71-.36-4.05c-.24-1.34-.67-2.54-1.28-3.62-.62-1.08-1.47-1.94-2.57-2.6-1.1-.66-2.52-.99-4.28-.99s-3.06.33-4.18.99c-1.12.66-2.01,1.53-2.67,2.6-.66,1.08-1.13,2.28-1.42,3.62-.29,1.34-.43,2.69-.43,4.05s.12,2.73.36,4.11c.24,1.38.69,2.64,1.35,3.79.66,1.14,1.54,2.07,2.63,2.8,1.1.72,2.5,1.09,4.21,1.09Z"/>
    <path class="cls-1" d="m642.88,469.05h-5.6v-2.9c-.88,1.01-2.11,1.91-3.69,2.7s-3.62,1.18-6.12,1.18-4.52-.39-5.92-1.18c-1.4-.79-2.45-1.8-3.13-3.03-.68-1.23-1.09-2.58-1.22-4.05-.13-1.47-.2-2.89-.2-4.25v-19.75c.31-.04.56-.07.76-.07h.43c1.32,0,2.38.33,3.19.99.81.66,1.22,1.82,1.22,3.49v15.34c0,1.71.12,3.07.36,4.08.24,1.01.73,1.78,1.48,2.3.66.48,1.37.81,2.14.99.77.18,1.66.26,2.67.26,1.19,0,2.27-.17,3.26-.49s1.83-.73,2.53-1.22c.7-.48,1.25-1,1.65-1.55.4-.55.59-1.04.59-1.48v-22.64c.31-.04.56-.07.76-.07h.43c1.32,0,2.38.33,3.19.99.81.66,1.22,1.82,1.22,3.49v26.86Z"/>
    <path class="cls-1" d="m658.22,483.27h-5.6v-45.29c.35-.04.63-.07.82-.07h.43c1.05,0,1.96.24,2.73.72.77.48,1.28,1.29,1.55,2.44.83-1.01,2-1.88,3.49-2.6,1.49-.72,3.36-1.09,5.6-1.09,1.71,0,3.32.29,4.84.86,1.51.57,2.85,1.48,4.02,2.73,1.16,1.25,2.08,2.88,2.76,4.87.68,2,1.02,4.44,1.02,7.34,0,3.29-.41,6.02-1.22,8.2-.81,2.17-1.87,3.9-3.16,5.17-1.29,1.27-2.73,2.17-4.31,2.7s-3.12.79-4.61.79c-2.37,0-4.24-.4-5.59-1.2-1.36-.8-2.28-1.53-2.76-2.18v16.61Zm0-21.6c.26.35.61.74,1.05,1.16s.98.8,1.61,1.16c.64.35,1.36.66,2.17.92.81.26,1.68.4,2.6.4,2.76,0,4.83-1,6.19-3,1.36-2,2.04-4.92,2.04-8.75,0-1.58-.14-3.08-.43-4.49-.29-1.41-.75-2.62-1.38-3.63-.64-1.01-1.49-1.81-2.57-2.41-1.08-.59-2.4-.89-3.98-.89-2.11,0-3.85.44-5.23,1.32-1.38.88-2.07,1.94-2.07,3.17v15.05Z"/>
    <path class="cls-1" d="m730.1,433.9c-.48-.53-1.04-1.08-1.68-1.65-.64-.57-1.37-1.07-2.21-1.51-.83-.44-1.77-.8-2.8-1.09-1.03-.29-2.21-.43-3.52-.43-2.63,0-4.82.52-6.55,1.55s-3.12,2.39-4.15,4.08c-1.03,1.69-1.77,3.6-2.21,5.73-.44,2.13-.66,4.31-.66,6.55s.23,4.5.69,6.65,1.24,4.07,2.34,5.76c1.1,1.69,2.54,3.04,4.34,4.05,1.8,1.01,4.04,1.51,6.71,1.51,1.45,0,2.76-.21,3.95-.63,1.18-.42,2.22-.91,3.09-1.48s1.59-1.12,2.14-1.65c.55-.53.93-.92,1.15-1.18.48.39,1,.95,1.55,1.68.55.72.82,1.35.82,1.88,0,.7-.31,1.36-.92,1.97-.22.22-.64.57-1.25,1.05-.62.48-1.43.97-2.44,1.45-1.01.48-2.24.91-3.69,1.28-1.45.37-3.12.56-5,.56-3.38,0-6.3-.57-8.75-1.71-2.46-1.14-4.48-2.72-6.06-4.74-1.58-2.02-2.74-4.43-3.49-7.24-.75-2.81-1.12-5.86-1.12-9.15s.38-6.35,1.15-9.18c.77-2.83,1.95-5.27,3.55-7.31,1.6-2.04,3.62-3.64,6.06-4.8s5.34-1.75,8.72-1.75c1.71,0,3.36.2,4.94.59s2.97.9,4.18,1.51c1.21.62,2.17,1.29,2.9,2.04.72.75,1.09,1.45,1.09,2.11,0,.57-.19,1.17-.56,1.81-.37.64-.76,1.2-1.15,1.68h-1.19Z"/>
    <path class="cls-1" d="m751.56,470.04c-2.59,0-4.81-.44-6.65-1.32-1.84-.88-3.34-2.05-4.48-3.52-1.14-1.47-1.97-3.2-2.5-5.2-.53-2-.79-4.11-.79-6.35s.31-4.28.92-6.25c.61-1.97,1.54-3.7,2.76-5.17s2.75-2.64,4.58-3.52c1.82-.88,3.96-1.32,6.42-1.32s4.73.44,6.55,1.32c1.82.88,3.3,2.05,4.44,3.52,1.14,1.47,1.98,3.17,2.5,5.1.53,1.93.79,3.97.79,6.12s-.26,4.22-.79,6.22c-.53,2-1.37,3.76-2.53,5.3-1.16,1.54-2.67,2.76-4.51,3.69-1.84.92-4.08,1.38-6.71,1.38Zm0-4.74c1.75,0,3.2-.36,4.34-1.09,1.14-.72,2.02-1.65,2.63-2.77.61-1.12,1.04-2.38,1.28-3.78s.36-2.79.36-4.15-.12-2.71-.36-4.05c-.24-1.34-.67-2.54-1.28-3.62-.62-1.08-1.47-1.94-2.57-2.6-1.1-.66-2.52-.99-4.28-.99s-3.06.33-4.18.99-2.01,1.53-2.67,2.6c-.66,1.08-1.13,2.28-1.42,3.62-.29,1.34-.43,2.69-.43,4.05s.12,2.73.36,4.11c.24,1.38.69,2.64,1.35,3.79.66,1.14,1.54,2.07,2.63,2.8,1.1.72,2.5,1.09,4.21,1.09Z"/>
    <path class="cls-1" d="m818.18,469.05h-5.6v-18.5c0-.83-.01-1.63-.03-2.4-.02-.77-.14-1.48-.36-2.14-.31-1.14-.92-2.02-1.84-2.63-.92-.61-2.37-.92-4.34-.92-1.45,0-2.8.31-4.05.92-1.25.62-2.18,1.29-2.8,2.04.09.75.15,1.53.2,2.34.04.81.07,1.66.07,2.53v18.76h-5.59v-18.5c0-.92-.04-1.79-.13-2.6-.09-.81-.24-1.55-.46-2.21-.75-2.19-2.72-3.29-5.92-3.29-.97,0-1.9.13-2.8.4-.9.26-1.7.62-2.4,1.05-.7.44-1.27.93-1.71,1.48-.44.55-.66,1.09-.66,1.61v22.05h-5.6v-31.07c.35-.04.63-.07.82-.07h.43c1.14,0,2.07.28,2.8.82.72.55,1.17,1.39,1.35,2.53,1.01-1.05,2.34-1.96,3.98-2.73,1.65-.77,3.59-1.15,5.83-1.15.79,0,1.6.08,2.44.23.83.15,1.65.4,2.44.72s1.51.76,2.17,1.28,1.18,1.14,1.58,1.84c1.01-1.1,2.38-2.05,4.11-2.86,1.73-.81,3.72-1.22,5.96-1.22,2.9,0,5.12.66,6.68,1.97,1.56,1.32,2.56,2.96,3,4.94.22.88.35,1.85.39,2.93.04,1.08.07,2.12.07,3.13v18.7Z"/>
    <path class="cls-1" d="m833.52,483.27h-5.6v-45.29c.35-.04.63-.07.82-.07h.43c1.05,0,1.96.24,2.73.72.77.48,1.28,1.29,1.55,2.44.83-1.01,2-1.88,3.49-2.6,1.49-.72,3.36-1.09,5.6-1.09,1.71,0,3.32.29,4.84.86,1.51.57,2.85,1.48,4.02,2.73,1.16,1.25,2.08,2.88,2.76,4.87.68,2,1.02,4.44,1.02,7.34,0,3.29-.41,6.02-1.22,8.2-.81,2.17-1.87,3.9-3.16,5.17-1.29,1.27-2.73,2.17-4.31,2.7s-3.12.79-4.61.79c-2.37,0-4.24-.4-5.59-1.2-1.36-.8-2.28-1.53-2.76-2.18v16.61Zm0-21.6c.26.35.61.74,1.05,1.16s.98.8,1.61,1.16c.64.35,1.36.66,2.17.92.81.26,1.68.4,2.6.4,2.76,0,4.83-1,6.19-3,1.36-2,2.04-4.92,2.04-8.75,0-1.58-.14-3.08-.43-4.49-.29-1.41-.75-2.62-1.38-3.63-.64-1.01-1.49-1.81-2.57-2.41-1.08-.59-2.4-.89-3.98-.89-2.11,0-3.85.44-5.23,1.32-1.38.88-2.07,1.94-2.07,3.17v15.05Z"/>
    <path class="cls-1" d="m889.73,468.98c-.39.13-.88.24-1.45.33-.57.09-1.16.13-1.78.13-1.36,0-2.55-.27-3.55-.82-1.01-.55-1.6-1.52-1.78-2.93-1.1,1.1-2.41,2.03-3.95,2.8-1.54.77-3.55,1.15-6.06,1.15-1.14,0-2.29-.13-3.46-.4-1.16-.26-2.22-.75-3.16-1.45-.94-.7-1.72-1.65-2.34-2.83-.62-1.19-.92-2.7-.92-4.54,0-2.28.58-4.15,1.74-5.6s2.6-2.59,4.31-3.42c1.71-.83,3.54-1.4,5.5-1.71,1.95-.31,3.74-.48,5.37-.53h1.38c.53,0,.99.02,1.38.07v-1c0-1.99-.47-3.51-1.42-4.55-.94-1.04-2.75-1.56-5.43-1.56-1.98,0-3.64.25-5,.76-1.36.5-2.68,1.2-3.95,2.07h-.66c-.35-.57-.65-1.18-.89-1.84-.24-.66-.36-1.18-.36-1.57,0-.56.35-1.09,1.05-1.59.7-.5,1.61-.94,2.73-1.33,1.12-.39,2.36-.69,3.72-.91,1.36-.22,2.7-.33,4.02-.33,2.24,0,4.1.24,5.59.72,1.49.48,2.7,1.21,3.62,2.17.92.97,1.57,2.17,1.94,3.62.37,1.45.56,3.12.56,5v12.97c0,1.05.04,1.88.13,2.47.09.59.25,1.03.49,1.32s.57.47.99.56c.42.09.95.13,1.61.13v2.63Zm-8.69-15.54h-1.91c-1.4,0-2.83.09-4.28.26-1.45.18-2.76.5-3.95.99-1.19.48-2.15,1.16-2.9,2.04-.75.88-1.12,2-1.12,3.36s.39,2.48,1.18,3.49c.79,1.01,2.26,1.51,4.41,1.51,1.14,0,2.23-.17,3.26-.49,1.03-.33,1.94-.73,2.73-1.22.79-.48,1.42-1.01,1.88-1.58.46-.57.69-1.12.69-1.65v-6.71Z"/>
    <path class="cls-1" d="m922.58,469.05h-5.6v-18.5c0-.83-.01-1.63-.03-2.4-.02-.77-.14-1.48-.36-2.14-.35-1.14-1-2.02-1.94-2.63-.94-.61-2.36-.92-4.25-.92-1.27,0-2.41.13-3.42.4s-1.87.62-2.57,1.05c-.7.44-1.25.94-1.65,1.51-.39.57-.59,1.14-.59,1.71v21.92h-5.6v-31.07c.31-.04.55-.07.72-.07h.39c1.01,0,1.92.25,2.73.76.81.5,1.31,1.37,1.48,2.6,1.01-1.01,2.38-1.91,4.11-2.7,1.73-.79,3.79-1.18,6.16-1.18,2.98,0,5.27.66,6.85,1.97s2.61,2.96,3.09,4.94c.22.88.35,1.85.4,2.93.04,1.08.07,2.12.07,3.13v18.7Z"/>
    <path class="cls-1" d="m944.3,473.33c-.48,1.4-1.01,2.74-1.58,4.02-.57,1.27-1.27,2.38-2.11,3.32-.83.94-1.85,1.7-3.06,2.27-1.21.57-2.67.86-4.38.86s-3.06-.24-4.18-.72c-1.12-.48-1.68-1.23-1.68-2.24,0-.62.17-1.25.49-1.91s.67-1.23,1.02-1.71c.35.31.89.67,1.61,1.09.72.42,1.63.62,2.73.62,1.54,0,2.77-.57,3.72-1.71.94-1.14,1.79-2.9,2.53-5.27l.92-2.96h-2.24l-10.66-30.54c.96-.35,1.93-.53,2.9-.53,1.14,0,2.06.35,2.76,1.05.7.7,1.23,1.6,1.58,2.7l7.24,22.45,7.24-21.85c.13-.48.31-.98.53-1.48.22-.5.52-.98.89-1.42.37-.44.82-.79,1.35-1.05.53-.26,1.16-.4,1.91-.4.88,0,1.69.2,2.44.59l-11.98,34.82Z"/>
  </g>
  <g>
    <path class="cls-2" d="m895.04,346.83v-14.67s0-14.67,0-14.67c0,0,.21-12.41-8.92-21.54-9.13-9.13-21.53-8.92-21.53-8.92h-108.61s-12.4-.21-21.53,8.92c-9.13,9.13-8.92,21.54-8.92,21.54v29.34s-.21,12.41,8.92,21.54c9.13,9.13,21.53,8.92,21.53,8.92h108.62s12.4.21,21.53-8.92c9.13-9.13,8.92-21.54,8.92-21.54Zm-27.2,9.21c-4.85,4.86-11.8,4.98-11.8,4.98h-91.52s-6.95-.12-11.81-4.98c-4.85-4.85-4.69-11.53-4.69-11.53v-24.69s-.16-6.68,4.69-11.53c4.85-4.86,11.81-4.98,11.81-4.98h91.52s6.95.12,11.8,4.98c4.85,4.85,4.7,11.53,4.7,11.53v24.69s.16,6.67-4.7,11.53Z"/>
    <path class="cls-2" d="m238.24,302.77c-11.53-16.9-29.73-15.71-29.73-15.71,0,0-18.21-1.19-29.73,15.71l-50.82,74.52h23.6l43.32-63.54s4.45-7.2,13.63-7.2,13.63,7.2,13.63,7.2l43.32,63.54h23.6l-50.82-74.52Z"/>
    <path class="cls-2" d="m393.82,361.01s-6.95-.12-11.8-4.98c-4.85-4.85-4.7-11.53-4.7-11.53v-57.47h-22.5v59.79s-.21,12.41,8.92,21.54c9.13,9.13,21.53,8.92,21.53,8.92h104.29v-16.27h-95.74Z"/>
    <path class="cls-2" d="m587.19,287.04h-71.67v16.27h61.54c1.79-5.17,4.83-10.98,10-16.15.04-.04.09-.08.13-.12Z"/>
    <path class="cls-2" d="m617.39,287.04s-12.4-.21-21.53,8.92c-9.13,9.13-8.92,21.54-8.92,21.54v59.79h22.5v-57.47s-.16-6.67,4.7-11.53c4.85-4.86,11.81-4.98,11.81-4.98h54.91v-16.27h-63.46Z"/>
    <path class="cls-2" d="m1122.41,346.83v-22.81h-139.1v-4.21s-.16-6.68,4.69-11.53c4.85-4.85,11.81-4.97,11.81-4.97h122.6v-16.27h-131.15s-12.4-.21-21.53,8.92c-9.13,9.13-8.92,21.54-8.92,21.54v22.81h139.1v4.21s.16,6.68-4.69,11.53c-4.85,4.85-11.81,4.97-11.81,4.97h-122.6v16.27h131.15s12.4.21,21.53-8.92c9.13-9.13,8.92-21.54,8.92-21.54Z"/>
  </g>
</svg>