<?xml version="1.0" encoding="UTF-8"?>
<svg id="LOGO" xmlns="http://www.w3.org/2000/svg" viewBox="0 0 1250 703">
  <defs>
    <style>
      .cls-1 {
        fill: #91d44f;
      }

      .cls-1, .cls-2 {
        stroke-width: 0px;
      }

      .cls-2 {
        fill: #006e94;
      }
    </style>
  </defs>
  <g id="layer1">
    <g id="g12132">
      <path id="path7347" class="cls-2" d="M155,278.51h45.77l28.36,85.91h.56l23.79-85.91h46.92l25.76,85.91h.58l26.07-85.91h43.49l-49.5,136.86h-42.38l-28.91-90.94h-.57l-25.79,90.94h-43.2l-50.95-136.86h0Z"/>
      <path id="path7349" class="cls-2" d="M405.39,244.22h45.77v34.29h-45.77v-34.29h0Z"/>
      <path id="path7351" class="cls-1" d="M405.39,278.52h45.77v136.86h-45.77v-136.86Z"/>
      <path id="path7363" class="cls-2" d="M548.92,318.79c-6.28-7.61-14.59-11.55-24.88-11.55-7.15,0-15.76,3.12-15.76,11.26,0,20.3,72.41,3.11,72.41,55.2,0,34.93-34.33,45.08-64.1,45.08-19.47,0-40.94-4.81-54.68-18.6l26.06-28.44c8,9.56,17.47,14.92,30.32,14.92,9.76,0,19.48-2.51,19.48-9.84,0-22-72.42-3.39-72.42-55.49,0-32.12,29.19-46.2,58.41-46.2,18.33,0,38.66,4.53,51.54,18.01l-26.37,25.66Z"/>
      <path id="path7367" class="cls-2" d="M685.86,312.32h-37.8v45.58c0,14.68,1.73,25.37,20.32,25.37,4.59,0,13.75-.56,17.48-3.91v35.18c-9.43,3.36-20.04,4.23-30.06,4.23-28.62,0-50.7-11.54-50.7-41.4v-65.06h-27.45v-33.8h27.45v-34.29h42.97v34.29h37.8v33.8s0,0,0,0Z"/>
      <path id="path7371" class="cls-2" d="M700.95,278.51h42.94v21.96h.57c9.17-16.59,21.16-25.35,40.09-25.35,4.85,0,10.29.29,14.28,1.41v38.61c-6.02-1.7-12-2.83-18.29-2.83-32.67,0-36.65,18.62-36.65,45.91v57.15h-42.94v-136.86h0Z"/>
      <path id="path7375" class="cls-2" d="M794.26,346.93c0,43.65,34.35,71.84,77.32,71.84s77.28-28.19,77.28-71.84-34.36-71.81-77.28-71.81-77.32,28.16-77.32,71.81M837.18,346.93c0-20.54,12.9-34.62,34.39-34.62s34.34,14.07,34.34,34.62-12.92,34.66-34.34,34.66-34.39-14.09-34.39-34.66"/>
      <path id="path7379" class="cls-2" d="M961.02,278.51h41.22v18.56h.6c5.72-10.67,19.73-21.95,40.61-21.95,43.53,0,51.55,28.15,51.55,64.8v75.46h-42.95v-67.03c0-15.75-.29-36.03-22.31-36.03s-25.79,17.17-25.79,34.91v68.16h-42.94v-136.86h0Z"/>
    </g>
  </g>
</svg>