<?xml version="1.0" encoding="UTF-8"?><svg id="LOGO" xmlns="http://www.w3.org/2000/svg" xmlns:xlink="http://www.w3.org/1999/xlink" viewBox="0 0 1250 703"><defs><style>.cls-1{fill:none;}.cls-2{fill:url(#linear-gradient-5);}.cls-3{fill:url(#linear-gradient-6);}.cls-4{fill:url(#linear-gradient-4);}.cls-5{fill:url(#linear-gradient-3);}.cls-6{fill:url(#linear-gradient-2);}.cls-7{fill:url(#linear-gradient);}.cls-8{letter-spacing:-.01798em;}.cls-9{fill:#6d6e71;font-family:Avenir-Medium, Avenir;font-size:132.1758px;font-weight:500;isolation:isolate;}</style><linearGradient id="linear-gradient" x1="287.39789" y1="321.8213" x2="261.08861" y2="321.8213" gradientTransform="translate(0 707.38574) scale(1 -1)" gradientUnits="userSpaceOnUse"><stop offset="0" stop-color="#778890"/><stop offset="1" stop-color="#545b60"/></linearGradient><linearGradient id="linear-gradient-2" x1="309.27174" y1="321.8213" x2="339.34224" y2="321.8213" xlink:href="#linear-gradient"/><linearGradient id="linear-gradient-3" x1="258.39197" y1="428.01346" x2="274.55985" y2="402.14479" gradientTransform="translate(0 707.38574) scale(1 -1)" gradientUnits="userSpaceOnUse"><stop offset="0" stop-color="#0093dd"/><stop offset="1" stop-color="#0a6289"/></linearGradient><linearGradient id="linear-gradient-4" x1="255.20991" y1="353.08715" x2="366.22931" y2="461.95083" gradientTransform="translate(0 707.38574) scale(1 -1)" gradientUnits="userSpaceOnUse"><stop offset="0" stop-color="#0093dd"/><stop offset="1" stop-color="#5fb8e5"/></linearGradient><linearGradient id="linear-gradient-5" x1="334.63675" y1="299.6425" x2="187.85303" y2="216.17745" gradientTransform="translate(0 707.38574) scale(1 -1)" gradientUnits="userSpaceOnUse"><stop offset="0" stop-color="#778890"/><stop offset="1" stop-color="#a9b4b8"/></linearGradient><linearGradient id="linear-gradient-6" x1="330.5698" y1="389.89467" x2="291.9343" y2="389.89467" xlink:href="#linear-gradient"/></defs><path class="cls-7" d="M263.65912,351.52776h-32.39158c0,37.55382,30.51956,68.07337,68.07337,68.07337v-32.39158c-19.68455,0-35.68179-15.99724-35.68179-35.68179Z"/><path class="cls-6" d="M335.0227,351.52776c0,19.68455-15.94052,35.68179-35.68179,35.68179v32.39158c37.55381,0,68.07338-30.51956,68.07338-68.07337h-32.39158Z"/><path class="cls-5" d="M231.26754,297.40942v54.11833h32.39158v-54.11833c0-19.68455,15.94051-35.68179,35.68179-35.68179v-32.39158c-37.55381,0-68.07337,30.57629-68.07337,68.07337Z"/><path class="cls-4" d="M231.26754,351.52776v68.07337h0c17.92599,0,32.39158-14.52232,32.39158-32.39158v-35.68179c0-19.68455,15.94051-35.68179,35.68179-35.68179v-32.39158c-37.55381,0-68.07337,30.51956-68.07337,68.07337Z"/><path class="cls-2" d="M335.0227,405.07881c0,19.74127-15.82706,36.13562-35.51161,36.19234-5.33242,0-10.43792-1.13456-14.97614-3.23349-7.1477-3.29021-15.60015-1.92874-21.15947,3.63058l-12.0263,12.0263c12.25321,12.25321,29.10137,19.85473,47.70809,19.9682,37.66727.22691,68.47046-31.2003,68.47046-68.86756v-53.26741h-32.39158v53.55105h-.11345Z"/><path class="cls-3" d="M299.34091,283.45438v32.39158c19.68455,0,35.68179,15.94052,35.68179,35.68179h32.39158c0-37.55381-30.51956-68.07337-68.07337-68.07337Z"/><text class="cls-9" transform="translate(445.59375 393.33984) scale(.94 1)"><tspan x="0" y="0">fogsphe</tspan><tspan class="cls-8" x="489.70558" y="0">r</tspan><tspan x="536.23255" y="0">e</tspan></text><rect class="cls-1" x="377.68202" y="457.21166" width="4.25459" height="1.07782"/></svg>