<?xml version="1.0" encoding="UTF-8"?><svg id="LOGO" xmlns="http://www.w3.org/2000/svg" viewBox="0 0 1250 703"><defs><style>.cls-1{fill:#e5002b;}.cls-2{fill:#081160;}</style></defs><g id="Layer_1-2"><path class="cls-1" d="M224.46499,374.19965v-1.33613c0-7.87154,3.92125-15.11859,10.23881-19.80956,8.01677-5.95448,12.85297-15.93188,11.51685-26.94042-1.59754-13.187-12.28657-23.74533-25.4881-25.19764-17.5149-1.9461-32.3285,11.70565-32.3285,28.82842,0,9.62884,4.69097,18.16845,11.92349,23.44034,6.17233,4.5167,10.06453,11.50232,10.06453,19.15602v1.23446c0,7.92963-3.95029,15.22025-10.31143,19.95479-7.9732,5.96901-12.79488,15.91737-11.45875,26.89685,1.59754,13.18701,12.28657,23.74534,25.4881,25.21219,17.5149,1.93158,32.3285-11.72017,32.3285-28.84295,0-9.62883-4.69097-18.16845-11.92349-23.44034-6.17233-4.5167-10.06453-11.50232-10.06453-19.15602h.01452v-.00002Z"/><path class="cls-1" d="M296.58688,330.65929v-1.33613c0-7.87154,3.92124-15.11858,10.23881-19.80956,8.01677-5.95449,12.85297-15.93188,11.51685-26.94042-1.59754-13.18701-12.28657-23.74533-25.48811-25.21216-17.5149-1.93158-32.3285,11.72017-32.3285,28.84295,0,9.62884,4.69097,18.16845,11.92349,23.44034,6.17233,4.5167,10.06453,11.50232,10.06453,19.15601v1.23446c0,7.92963-3.95029,15.22025-10.31142,19.95479-7.9732,5.95448-12.78036,15.90283-11.44423,26.89685,1.59754,13.18701,12.28657,23.74532,25.4881,25.19764,17.5149,1.93158,32.3285-11.72017,32.3285-28.84295,0-9.62883-4.69098-18.16845-11.92349-23.44034-6.17233-4.5167-10.06453-11.50232-10.06453-19.15601,0,0,0,.01452,0,.01452Z"/><path class="cls-1" d="M224.46499,374.19965v-1.33613c0-7.87154,3.92125-15.11859,10.23881-19.80956,8.01677-5.95448,12.85297-15.93188,11.51685-26.94042-1.59754-13.187-12.28657-23.74533-25.4881-25.19764-17.5149-1.9461-32.3285,11.70565-32.3285,28.82842,0,9.62884,4.69097,18.16845,11.92349,23.44034,6.17233,4.5167,10.06453,11.50232,10.06453,19.15602v1.23446c0,7.92963-3.95029,15.22025-10.31143,19.95479-7.9732,5.96901-12.79488,15.91737-11.45875,26.89685,1.59754,13.18701,12.28657,23.74534,25.4881,25.21219,17.5149,1.93158,32.3285-11.72017,32.3285-28.84295,0-9.62883-4.69097-18.16845-11.92349-23.44034-6.17233-4.5167-10.06453-11.50232-10.06453-19.15602h.01452v-.00002Z"/><path class="cls-2" d="M437.54844,323.23796v56.52402c0,5.19929-2.10585,9.90478-5.5188,13.31771-3.41295,3.41293-8.11843,5.5188-13.31771,5.5188v-67.83756c0-4.16814-3.36938-7.53751-7.53751-7.53751h-22.61251c-4.16813,0-7.53751,3.36937-7.53751,7.53751v67.83756c-10.39857,0-18.83651-8.43794-18.83651-18.83651v-56.52404c0-5.19929,2.10585-9.90478,5.5188-13.31771,3.41295-3.41293,8.11843-5.51879,13.31771-5.51879h37.68753c5.19929,0,9.90479,2.10586,13.31771,5.51879,3.41295,3.41293,5.5188,8.11843,5.5188,13.31771v.00002Z"/><path class="cls-2" d="M625.9861,379.77654v-56.52404c0-5.19929-2.10587-9.90478-5.51877-13.31771-3.41295-3.41293-8.11843-5.51879-13.31773-5.51879v67.83756c0,4.16814-3.36938,7.53751-7.53751,7.53751h-22.61253c-4.16813,0-7.53751-3.36937-7.53751-7.53751v-67.83756c-10.39857,0-18.83651,8.43794-18.83651,18.83651v56.52404c0,5.19929,2.10585,9.90478,5.5188,13.31771,3.41295,3.41293,8.11845,5.5188,13.31771,5.5188h37.68755c5.19926,0,9.90479-2.10585,13.31773-5.5188,3.41295-3.41293,5.51877-8.11844,5.51877-13.31771Z"/><path class="cls-2" d="M1059.79213,323.23796v56.52402c0,5.19929-2.10587,9.90478-5.51877,13.31771-3.4129,3.41293-8.11847,5.5188-13.31769,5.5188v-67.83756c0-4.16814-3.36938-7.53751-7.53751-7.53751h-3.76153c-4.16813,0-7.53751,3.36937-7.53751,7.53751v58.31039c0,5.19929-4.21174,9.42551-9.4255,9.42551h0c-5.19931,0-9.4255-4.21171-9.4255-9.42551v-58.31039c0-4.16814-3.36938-7.53751-7.53751-7.53751h-3.76153c-4.16813,0-7.53751,3.36937-7.53751,7.53751v67.83756c-10.39853,0-18.83646-8.43794-18.83646-18.83651v-56.52404c0-5.19929,2.10587-9.90478,5.51877-13.31771,3.4129-3.41293,8.11847-5.51879,13.31769-5.51879h56.52402c5.19931,0,9.90479,2.10586,13.31769,5.51879,3.4129,3.41293,5.51877,8.11843,5.51877,13.31771h.00009v.00002Z"/><path class="cls-2" d="M701.36121,304.40146h0c0,10.41309-8.43794,18.83651-18.83651,18.83651h-11.299c-4.16813,0-7.53751,3.36937-7.53751,7.53751v67.83756c-10.39857,0-18.83651-8.43794-18.83651-18.83651v-56.52404c0-5.19929,2.10587-9.90478,5.51877-13.31771,3.41295-3.41293,8.11843-5.51879,13.31773-5.51879h37.68755l-.01454-.01452Z"/><path class="cls-2" d="M779.05998,360.9255c4.16813,0,7.53751-3.36937,7.53751-7.53751v-30.15003c0-5.19929-2.10587-9.90478-5.51877-13.31771-3.41295-3.41293-8.11843-5.51879-13.31773-5.51879h-37.68755c-5.19926,0-9.91928,2.10586-13.31773,5.51879-3.41295,3.41293-5.51877,8.11843-5.51877,13.31771v56.52404c0,10.41309,8.43794,18.83651,18.83651,18.83651h37.68755c5.19926,0,9.90479-2.10585,13.31773-5.5188,3.41295-3.41293,5.51877-8.11844,5.51877-13.31771h-48.98655c-4.16813,0-7.53751-3.36937-7.53751-7.53751v-11.299s48.98655,0,48.98655.00001ZM737.61094,323.23796h22.61253c4.16813,0,7.53751,3.36937,7.53751,7.53751v11.299h-37.68755v-11.299c0-4.16814,3.36938-7.53751,7.53751-7.53751Z"/><path class="cls-2" d="M812.94244,342.08899c-4.16813,0-7.53751,3.36937-7.53751,7.53751v30.15003c0,5.19929,2.10587,9.90478,5.51877,13.31771,3.4129,3.41293,8.11843,5.5188,13.31773,5.5188h37.68755c5.19926,0,9.91928-2.10585,13.31773-5.5188,3.39845-3.41295,5.51877-8.11843,5.51877-13.31771v-56.52404c0-10.41309-8.43794-18.83651-18.83651-18.83651h-37.68755c-5.19926,0-9.90479,2.10586-13.31773,5.51879-3.41295,3.41293-5.51877,8.11843-5.51877,13.31772h48.98655c4.16813,0,7.53751,3.36937,7.53751,7.53751v11.299s-48.98655,0-48.98655,0ZM854.39148,379.77654h-22.61253c-4.16813,0-7.53751-3.36937-7.53751-7.53751v-11.299h37.68755v11.299c0,4.16814-3.36938,7.53751-7.53751,7.53751Z"/><path class="cls-2" d="M956.15515,398.61303h0c0-10.41309-8.43794-18.83651-18.83646-18.83651h-11.299c-4.16813,0-7.53751-3.36937-7.53751-7.53751v-67.83756c-10.39857,0-18.83651,8.43794-18.83651,18.83651v56.52404c0,5.19929,2.10587,9.90478,5.51877,13.31771,3.41295,3.41293,8.11843,5.5188,13.31773,5.5188h37.68751l-.01454.01453Z"/><path class="cls-2" d="M524.23704,360.9255c4.16813,0,7.53751-3.36937,7.53751-7.53751v-30.15003c0-5.19929-2.10585-9.90478-5.5188-13.31771-3.41295-3.41293-8.11843-5.51879-13.31771-5.51879h-37.68753c-5.19929,0-9.9193,2.10586-13.31771,5.51879-3.41295,3.41293-5.5188,8.11843-5.5188,13.31771v56.52404c0,10.41309,8.43794,18.83651,18.83651,18.83651h37.68753c5.19929,0,9.90479-2.10585,13.31771-5.5188,3.41295-3.41293,5.5188-8.11844,5.5188-13.31771h-48.98653c-4.16813,0-7.53751-3.36937-7.53751-7.53751v-11.299s48.98653,0,48.98653.00001ZM482.77348,323.23796h22.61253c4.16813,0,7.53751,3.36937,7.53751,7.53751v11.299h-37.68753v-11.299c0-4.16814,3.36938-7.53751,7.53751-7.53751h-.00002Z"/></g></svg>