<?xml version="1.0" encoding="UTF-8"?><svg id="LOGO" xmlns="http://www.w3.org/2000/svg" xmlns:xlink="http://www.w3.org/1999/xlink" viewBox="0 0 1250 703"><defs><style>.cls-1{fill:none;}.cls-2{clip-path:url(#clippath);}.cls-3{fill:#fff;}.cls-4{fill:#e1251b;}</style><clipPath id="clippath"><rect class="cls-1" x="274.51" y="234.16" width="701.48" height="233.84"/></clipPath></defs><g id="lenovo-logo-horizontal"><g class="cls-2"><polygon class="cls-4" points="274.46 468 975.99 468 975.99 234.16 274.46 234.16 274.46 468 274.46 468"/></g><path class="cls-3" d="M580.08,312.97c-10.36,0-22.14,4.8-29.35,14.42v-.02s0,0,0,0v-12.9s-24.71,0-24.71,0v90h24.71v-51.21c0-9.22,7.14-19.01,20.38-19.01,10.23,0,20.81,7.11,20.81,19.01v51.21h24.71v-55.79c0-20.7-14.81-35.72-36.55-35.72"/><polygon class="cls-3" points="792.28 314.48 769.94 375.79 747.6 314.48 719.37 314.48 756.4 404.45 783.48 404.45 820.51 314.48 792.28 314.48 792.28 314.48"/><path class="cls-3" d="M452.24,341.59c4.21-5.65,10.91-8.97,19.01-8.97,8.91,0,15.66,5.09,19.15,12.59l-43.18,17.91c-1.18-9.19,1.17-16.38,5.01-21.54h0Zm47.48,35.21c-10.4,7.7-16.35,9.54-25.83,9.54-8.54,0-15.22-2.65-19.93-7.3l63.18-26.21c-1.38-9.77-5.08-18.49-10.79-25.13-8.3-9.64-20.59-14.74-35.55-14.74-27.18,0-47.67,20.05-47.67,46.53s20.54,46.52,50.39,46.52c16.72,0,33.82-7.93,41.82-17.19l-15.63-12.01h0Z"/><polygon class="cls-3" points="420.78 381.79 364.61 381.79 364.61 287.56 339.57 287.56 339.57 404.48 420.78 404.48 420.78 381.79 420.78 381.79"/><path class="cls-3" d="M864.89,334.14c-13.8,0-23.82,10.46-23.82,25.34s10.62,25.34,24.15,25.34,23.82-10.75,23.82-25.34-10.61-25.34-24.15-25.34m0,71.85c-27.03,0-48.2-20.13-48.2-46.51s21.32-46.52,48.54-46.52,48.2,20.14,48.2,46.52-21.32,46.51-48.53,46.51"/><path class="cls-3" d="M674.61,334.14c-13.8,0-23.82,10.46-23.82,25.34s10.61,25.34,24.15,25.34,23.82-10.75,23.82-25.34-10.61-25.34-24.16-25.34m0,71.85c-27.03,0-48.2-20.13-48.2-46.51s21.32-46.52,48.54-46.52,48.2,20.14,48.2,46.52-21.32,46.51-48.54,46.51"/></g></svg>