<?xml version="1.0" encoding="UTF-8"?>
<svg id="PASTE_LOGO_HERE" data-name="PASTE LOGO HERE" xmlns="http://www.w3.org/2000/svg" xmlns:xlink="http://www.w3.org/1999/xlink" viewBox="0 0 1250 703">
  <defs>
    <style>
      .cls-1 {
        fill: none;
      }

      .cls-2 {
        fill: #170425;
      }

      .cls-3 {
        clip-path: url(#clippath);
      }
    </style>
    <clipPath id="clippath">
      <rect class="cls-1" x="165" y="271.34" width="920" height="160.29"/>
    </clipPath>
  </defs>
  <path class="cls-2" d="M869.78,271.37v120.98l-97.93-120.98h-25.86v160.26h26.95v-120.97l97.93,120.98h25.85v-160.27h-26.94Z"/>
  <path class="cls-2" d="M304.54,271.37l-54.12,131.08-53.86-130.74h-31.55l69.42,159.92h31.11l69.66-160.26h-30.66Z"/>
  <path class="cls-2" d="M373.97,271.37v65.66h-9.04l-10.49,24.12h19.53v70.5h128.48v-23.99h-100.62v-46.44h83.09l10.45-23.99-93.6-.2v-41.64h98.44v-24.02h-126.25Z"/>
  <path class="cls-2" d="M956.52,271.34v65.62h-9.03l-10.49,24.16h19.52v70.5h128.48v-24.06h-100.62v-46.44h83.09l10.45-23.99-93.53-.16v-41.63h98.44v-23.99h-126.3Z"/>
  <g class="cls-3">
    <path class="cls-2" d="M665.18,361.26c19.48-5.26,33.1-22.82,33.35-43,0-32.46-21.49-46.89-64.44-46.89h-76.53v65.69h-9.29l-10.75,24.13h20v70.43h27.39v-70.49h50.49l33.06,70.49h32.1l-35.39-70.36ZM638.22,337.06h-53.25v-42.47h53.25c8.55-.65,17.11,1.12,24.71,5.11,5.13,3.7,8.01,9.76,7.62,16.08v.09c.02,3.3-.66,6.57-2.01,9.59-1.24,2.64-3.18,4.89-5.6,6.51-7.59,3.99-16.15,5.76-24.71,5.11"/>
  </g>
</svg>