<?xml version="1.0" encoding="UTF-8"?><svg id="LOGO" xmlns="http://www.w3.org/2000/svg" viewBox="0 0 1250 703"><defs><style>.cls-1{fill:#67bf1b;}.cls-1,.cls-2{stroke-width:0px;}</style></defs><path class="cls-2" d="m279.69065,393.31995c-.4516-.90319-.90319-1.80638-1.80638-2.25797l-13.54784-7.22552c-1.80638-.90319-3.61275-.4516-4.96754,1.35478-3.61275,4.96754-8.1287,9.03189-13.54784,12.19306-5.41914,3.16117-11.74146,4.51595-18.06379,4.51595-5.87073,0-12.19306-.90319-17.61219-3.61275-4.96754-2.70957-9.93509-5.87073-13.99944-9.93509-4.06435-4.51595-7.22551-9.48349-9.03189-14.90262-2.25797-6.32232-3.61276-12.64465-3.61276-18.96698,0-6.77392.90319-13.09625,3.61276-19.41857,1.80638-5.41914,4.96754-10.38668,9.03189-14.90263,4.06435-4.51595,8.5803-7.67711,13.99944-9.93508,5.41914-2.25797,11.74146-3.61276,17.61219-3.61276,6.32232,0,12.64465,1.35478,18.06379,4.51595,5.41914,2.70957,9.93509,6.77392,13.54784,12.19306.90319,1.35478,3.16117,2.25797,4.51595.90319l13.54784-7.22551c.90319-.45159,1.35478-1.35478,1.80638-2.25797,0-.90319,0-2.25797-.4516-3.16116-2.70957-3.61276-5.87073-7.22551-9.03189-10.38668-3.61275-3.16116-7.22552-6.32233-11.28987-8.5803-4.51595-2.25797-9.03189-4.51595-13.54784-5.41914-5.87073-1.35479-11.28987-1.80638-16.709-1.80638-9.03189,0-18.06379,1.80638-26.64409,4.96754-16.25741,6.32233-29.35366,19.41857-36.12758,35.67598-3.61276,9.03189-5.41914,18.51538-5.41914,27.99887s1.80638,18.96698,5.41914,27.99887c3.16116,8.1287,8.1287,15.35422,14.45103,21.67655,6.32233,6.32232,13.54784,10.83827,21.67655,13.99944,8.5803,3.16117,17.61219,4.96754,26.64409,4.96754,10.38667.4516,21.22495-2.25797,30.25684-7.67711,8.1287-4.96754,14.90262-11.28987,20.32176-18.51538.90319-.90319.90319-2.25797.90319-3.16117Z"/><path class="cls-2" d="m356.91334,401.44866c-5.87073,0-12.19306-.90319-17.6122-3.61275-4.96753-2.25797-9.93509-5.41914-13.54784-9.93509-3.61275-4.51595-6.77392-9.48349-8.58031-14.90262-2.25797-6.32232-3.16117-12.64465-3.16117-18.96698,0-6.77392.90319-13.09625,3.16117-19.41857,1.80639-5.41914,4.51595-10.38668,8.58031-14.90263,3.61275-4.06435,8.58031-7.67711,13.54784-9.93508,5.41914-2.25797,11.74146-3.61276,17.6122-3.61276s12.19306.90319,17.6122,3.61276c4.96753,2.25797,9.48348,5.41914,13.09625,9.93508,3.61275,4.51595,6.77392,9.48349,8.58031,14.90263,2.25797,6.32232,3.16117,12.64465,3.16117,19.41857,0,6.32233-.90319,13.09625-3.16117,18.96698-1.80639,5.41914-4.96753,10.38667-8.58031,14.90262-3.61275,4.06435-8.1287,7.67711-13.09625,9.93509-5.41914,2.25796-11.74146,3.61275-17.6122,3.61275m47.86905-96.18968c-5.87073-6.32233-13.09625-11.28987-20.77335-14.45103-17.1606-6.77392-36.57918-6.77392-53.73976,0-8.12872,3.16116-15.35424,8.1287-21.22497,14.45103-5.87073,6.32233-10.38667,13.54784-13.54784,21.67655-3.16117,8.5803-4.96754,18.06379-4.51595,27.09568,0,9.03189,1.35478,18.51538,4.51595,27.09568,3.16117,8.1287,7.67711,15.35422,13.54784,21.67654,5.87073,6.32232,13.09625,11.28987,20.77335,14.45103,17.1606,6.77392,36.57916,6.77392,53.73978,0,7.67711-3.16117,14.90262-8.1287,20.77335-14.45103,5.87073-6.32232,10.38667-13.54784,13.54784-21.67654,3.16117-8.5803,4.96753-18.06379,4.96753-27.09568s-1.35478-18.51538-4.96753-27.09568c-2.70956-8.12871-7.6771-15.35422-13.09624-21.67655"/><path class="cls-2" d="m547.93791,287.64679h-15.80581c-1.80639,0-3.61277,1.80638-3.61277,3.61276v50.12702h-65.93282v-50.12702c0-1.80638-1.80639-3.61276-3.61277-3.61276h-15.35423c-1.80639,0-3.61275,1.80638-3.61275,3.61276h0v125.54332c0,1.80638,1.80639,3.61275,3.61275,3.61275h15.80581c1.80639,0,3.61277-1.80638,3.61277-3.61275v-54.19137h65.93282v54.19137c0,1.80638,1.80639,3.61275,3.61277,3.61275h15.80581c1.80639,0,3.61277-1.80638,3.61277-3.61275h0v-125.54332c-.45162-2.25797-1.80639-3.61276-4.06436-3.61276h0Z"/><path class="cls-2" d="m664.90095,308.87174c1.80639,0,3.61277-1.80638,3.61277-3.61276v-13.99943c0-1.80638-1.80639-3.61276-3.61277-3.61276h-88.51259c-1.80639,0-3.61277,1.80638-3.61277,3.61276v125.54332c0,1.80638,1.80639,3.61275,3.61277,3.61275h88.06097c1.80639,0,3.61277-1.80638,3.61277-3.61275v-13.99943c0-1.80638-1.80639-3.61275-3.61277-3.61275h-68.64238v-36.12758h64.57806c1.80639,0,3.61277-1.80638,3.61277-3.61275h0v-13.99944c0-1.80638-1.80639-3.61276-3.61277-3.61276h-64.57806v-32.96642h69.094Z"/><path class="cls-2" d="m822.05592,287.64679h15.80581c1.80635,0,3.61277,1.80638,3.61277,3.61276v125.54332c0,1.80638-1.80635,3.61275-3.61277,3.61275h-15.80581c-1.80635,0-3.61277-1.80638-3.61277-3.61275v-125.54332c0-2.25797,1.3548-3.61276,3.61277-3.61276Z"/><path class="cls-2" d="m963.40501,287.64679h-100.70563c-1.80635,0-3.61277,1.80638-3.61277,3.61276v13.99943c0,1.80638,1.80635,3.61276,3.61277,3.61276h38.83717v107.93113c0,1.80638,1.80635,3.61275,3.61277,3.61275h15.80581c1.80635,0,3.61277-1.80638,3.61277-3.61275v-107.93113h38.83717c1.80635,0,3.61277-1.80638,3.61277-3.61276v-13.99943c-.00007-2.25797-1.35487-3.61276-3.61284-3.61276h0Z"/><path class="cls-2" d="m1099.78667,289.45317c-.45162-1.35478-1.80635-1.80638-3.16115-1.80638h-18.06379c-1.3548,0-2.25797.45159-3.16115,1.80638l-36.12758,53.73977-36.12758-53.73977c-.45162-.90319-1.80635-1.80638-3.16115-1.80638h-18.06379c-1.3548,0-2.7096.90319-3.16115,1.80638-.90318,1.35478-.90318,2.70957,0,3.61276l48.77224,71.35197v51.93339c0,1.80638,1.3548,3.61275,3.61277,3.61275h15.80581c1.80635,0,3.61277-1.80638,3.61277-3.61275v-51.4818l48.77224-71.35196c1.35466-1.35478,1.35466-2.70957.45148-4.06435Z"/><path class="cls-1" d="m785.47672,287.64679h-52.38498c-26.64409-.45159-48.32065,20.32176-48.77224,46.96585v4.51595c2.25797,24.83771,22.57974,43.80468,47.41744,43.80468h18.06382c4.96757,0,9.03189-3.16117,9.93507-8.1287.90318-5.41914-2.25797-10.38667-7.6771-11.74146h-19.41855c-14.90264,0-27.54727-11.28987-28.90207-26.19249-.90318-15.35422,10.83828-28.45047,26.19251-29.35366h51.48177c1.80635,0,3.16115-1.35478,3.61277-2.70957l3.61277-12.64465c.90318-1.80638,0-3.61276-1.80635-4.51595-.45169,0-.90324,0-1.35487,0Z"/><path class="cls-1" d="m750.70394,325.12915h-18.06379c-4.96753,0-9.03189,3.16116-9.93507,7.67711-.90318,5.41914,2.25797,10.83827,7.6771,11.74146h19.41859c14.90264-.4516,27.5473,11.28987,28.90203,25.74089.90318,15.35422-10.38669,28.45046-25.74088,29.80525h-52.38494c-1.3548,0-2.70956.90319-3.16115,2.25797l-4.06436,13.54784c-.45159,1.80638.45159,3.61275,2.25797,4.06435h53.73978c27.09568,0,48.77224-21.67654,48.77224-48.32064-.00007-25.74089-21.22501-46.51425-47.41751-46.51425Z"/></svg>