<?xml version="1.0" encoding="UTF-8"?>
<svg id="LOGO" xmlns="http://www.w3.org/2000/svg" viewBox="0 0 1250 703">
  <defs>
    <style>
      .cls-1 {
        fill: #010101;
      }

      .cls-1, .cls-2, .cls-3 {
        stroke-width: 0px;
      }

      .cls-3 {
        fill: #feb61b;
      }
    </style>
  </defs>
  <path class="cls-1" d="M481.24983,296.86367c2.65534-2.87947,4.91908-5.90392,7.57516-8.60881,9.24376-9.41365,20.46971-15.02463,33.39259-17.33858,13.25919-2.37417,26.39647-1.88508,39.16312,2.56674,14.40777,5.02411,23.68561,15.31469,28.98694,29.39959,3.30176,8.77226,5.12118,17.90398,5.38253,27.21831,1.01084,36.02039.20949,72.05288.43922,108.07963.02236,3.50284.00298,3.50296-3.47968,3.50296-15.42357,0-30.84724-.02821-46.27048.04103-1.651.00741-1.98231-.45572-1.97985-2.03224.04921-31.97566.05918-63.95146.01508-95.92712-.00742-5.39208-.29973-10.77524-1.68536-16.04681-2.69124-10.23898-9.12767-16.87615-21.57998-17.6384-9.35596-.57271-18.03122,1.20347-25.47667,7.17082-7.43893,5.96211-11.27487,13.94903-12.61355,23.26147-.4607,3.20503-.38139,6.42218-.38172,9.63979-.00298,29.84848-.01397,59.69698.03351,89.54537.00243,1.53338-.25334,2.03899-1.93898,2.03099-15.93946-.07551-31.87954-.06897-47.81912-.00767-1.59265.00614-2.01289-.37878-2.01152-1.99815.04606-54.66844.04592-109.33695.0005-164.00539-.00135-1.59854.36255-2.02053,1.99214-2.01335,15.42324.06799,30.84703.06418,46.27034.00394,1.54743-.00604,2.06165.27284,2.03198,1.9501-.11401,6.44474-.04618,12.8927-.04618,19.33945v1.86631Z"/>
  <path class="cls-1" d="M818.06036,503.5126c2.68547-6.56436,5.30841-12.99452,7.94572-19.41883,6.73938-16.41664,13.48069-32.83252,20.24091-49.24059.35882-.87083.44295-1.62324.06759-2.53705-18.46314-44.9436-36.90368-89.89645-55.34493-134.84904-3.00378-7.32196-5.99948-14.64723-8.99853-21.97109-.18751-.45787-.37238-.9168-.63633-1.56693h1.70597c15.4871,0,30.97435.02434,46.46116-.04044,1.43205-.00599,1.99242.51905,2.49092,1.73676,13.01386,31.78888,26.06148,63.56391,39.10474,95.34078.16884.41138.35579.81533.66616,1.52359,1.66702-4.05226,3.23748-7.86124,4.80155-11.67286,11.68122-28.46758,23.36362-56.9347,35.03009-85.40831.3573-.87203.61842-1.51447,1.82873-1.51093,16.13128.04708,32.26275.03146,48.68823.03146-1.3464,3.34726-2.61831,6.56632-3.93256,9.76803-15.83207,38.56906-31.68148,77.13099-47.50367,115.70409-14.00575,34.1447-27.98999,68.29818-41.94502,102.46358-.51286,1.25561-1.12471,1.68826-2.50529,1.68326-15.48687-.05614-30.97411-.03549-46.46121-.03549h-1.70422Z"/>
  <path class="cls-3" d="M169.56328,441.59566c-10.32517,0-20.65034.00061-30.97551-.00047-2.29992-.00026-2.3107-.00746-1.4518-2.10283,11.20232-27.32932,22.4054-54.65836,33.61338-81.98539,12.81958-31.25638,25.64599-62.50995,38.46611-93.76611,8.52228-20.77777,17.05286-41.55217,25.52335-62.35099.51779-1.2714,1.20461-1.51761,2.4414-1.51556,20.77936.03434,41.55878.02417,62.33819.02508q2.18837.0001,1.3713,2.00633c-7.54306,18.39678-15.08643,36.79343-22.63163,55.18934-12.86909,31.37608-25.7416,62.75075-38.60888,94.12758-12.1101,29.53039-24.22513,59.05877-36.29041,88.60741-.54169,1.32663-1.14431,1.81691-2.62668,1.80603-10.38914-.07633-20.77911-.04042-31.16882-.04042Z"/>
  <path class="cls-1" d="M699.24412,269.63607c23.3639.17444,44.85644,6.46792,64.3135,19.53408,1.43163.96139,1.67912,1.71569,1.02677,3.30637-4.17964,10.19256-8.28114,20.41772-12.31103,30.67031-.56042,1.42572-.94887,1.36417-2.06975.60596-9.81699-6.64051-20.26733-11.97283-31.80627-14.95338-10.25328-2.64844-20.60559-3.66714-31.07366-1.37757-3.66294.80116-7.02086,2.31925-9.93034,4.78657-5.60691,4.75479-6.67523,15.88666,2.70381,20.11616,5.94607,2.6814,12.20094,4.12724,18.4715,5.65797,12.90307,3.14981,26.10057,5.17768,38.56366,10.01606,7.66353,2.97513,14.80577,6.8024,20.66751,12.70434,6.59355,6.63887,10.02214,14.75265,11.12028,23.93413,1.0419,8.71159.65514,17.30472-2.52703,25.58912-4.18058,10.88335-12.00619,18.48332-22.01311,24.06912-8.72433,4.86986-18.17059,7.45156-27.99188,8.91628-9.86218,1.47081-19.77777,1.6248-29.69001,1.08037-20.77594-1.1411-40.74667-5.43622-59.03453-15.87193-2.00443-1.14379-3.90883-2.46135-5.87866-3.66736-.78211-.47884-.94481-.95208-.585-1.87993,4.26926-11.01047,8.48732-22.04077,12.69641-33.07442.36038-.94465.63676-1.32019,1.69676-.62533,12.5208,8.20788,26.15483,13.73569,40.83619,16.6461,9.5035,1.88394,19.09375,2.82818,28.76917,1.71754,4.54408-.52164,8.93515-1.70061,12.74524-4.44498,7.61871-5.48767,7.11256-15.98344-1.08954-20.57213-4.84806-2.71227-10.26751-3.82711-15.61563-5.11315-13.29436-3.19687-26.84009-5.36705-39.86572-9.65974-7.16508-2.3613-13.89798-5.59611-19.85222-10.29311-7.34961-5.79776-11.91317-13.36564-13.72639-22.48806-2.47669-12.46038-1.58738-24.52392,5.13276-35.68233,5.29144-8.78623,12.88662-15.06638,21.89163-19.77727,9.17574-4.80022,18.95402-7.58072,29.19808-8.91247,5.05893-.65768,10.1275-.91143,15.2275-.95735Z"/>
  <path class="cls-1" d="M1096.28149,324.57557c-5.28426-3.53576-10.70465-6.81368-16.43352-9.57406-12.56788-6.05569-25.73703-9.38364-39.75871-8.72647-5.55208.26023-10.96245,1.29708-15.78801,4.29802-5.20882,3.23925-7.5766,9.03473-6.02836,14.59676.82578,2.96644,2.76021,5.02766,5.38976,6.47831,5.09717,2.81195,10.68262,4.19221,16.28519,5.55888,12.97941,3.16607,26.22323,5.29564,38.89274,9.67539,9.30682,3.21729,17.9862,7.56088,24.76802,14.96842,5.87398,6.41589,8.90447,14.09285,9.99902,22.64059,1.13445,8.85914.67377,17.56212-2.57822,25.95378-4.24179,10.94604-12.21101,18.5368-22.30655,24.08154-8.57765,4.71106-17.86103,7.25073-27.49873,8.66955-11.79561,1.73652-23.63868,1.71995-35.46501.7058-19.81436-1.69912-38.74423-6.48206-55.907-16.97322-4.46708-2.73062-4.46386-2.75305-2.64392-7.48553,3.75918-9.77576,7.54531-19.54127,11.27376-29.32869.49764-1.30607.82181-1.61196,2.18986-.71633,13.12669,8.59358,27.49391,14.18603,42.91587,16.90353,9.39011,1.65464,18.88572,2.52255,28.40818.89874,4.74549-.80919,9.14516-2.39248,12.71999-5.8451,4.69132-4.53104,4.47889-14.15371-1.93594-18.12261-4.65615-2.88079-9.87177-4.16468-15.09638-5.42094-13.05258-3.13849-26.31947-5.39212-39.186-9.29027-9.03153-2.73629-17.47825-6.64674-24.56004-13.09663-6.3651-5.79702-10.12249-13.06137-11.63036-21.39936-1.77428-9.81144-1.509-19.56337,2.43065-28.93458,4.77149-11.34969,13.20629-19.28656,23.83059-25.06191,10.5532-5.73676,21.92651-8.7305,33.86166-9.83317,23.16892-2.14052,45.07983,2.04367,65.70343,12.83184,3.75587,1.96463,7.33742,4.22589,10.81545,6.64817.6195.43139,1.18105.71521.74826,1.78017-4.40005,10.82884-8.7223,21.68922-13.07054,32.53906-.07081.17677-.1956.33199-.34516.58032Z"/>
  <path class="cls-2" d="M316.90141,207.6139c33.27178,78.11519,66.44123,155.99014,99.67072,234.00606h-5.78282c-20.77772,0-41.55548-.0229-62.33299.04375-1.65164.00529-2.3848-.42904-3.0247-1.9938-20.37259-49.81618-40.80282-99.60885-61.2555-149.3923-.45712-1.1127-.38715-2.01052.05541-3.08638,10.85643-26.39166,21.68256-52.79575,32.66987-79.57732Z"/>
</svg>