<?xml version="1.0" encoding="UTF-8"?><svg id="LOGO" xmlns="http://www.w3.org/2000/svg" viewBox="0 0 1250 703"><g id="Logo"><circle id="Ellipse_1" cx="808.235" cy="496.461" r="44.728" fill="#d80067"/><g id="Group_56"><path id="Path_504" d="m527.452,378.364h-30.658c-.199-.003-.363.157-.365.356v28.299c-.003.199.157.363.356.365h30.073c10.474,0,16.2-5.731,16.2-14.814.113-7.777-6.1-14.174-13.878-14.287-.577-.008-1.154.019-1.728.081h0Z" fill="#5300c9"/><path id="Path_505" d="m496.807,356.039h28.093c6.627.557,12.819-3.35,15.17-9.57,2.341-7.74-2.035-15.912-9.775-18.253-1.444-.437-2.946-.648-4.454-.626h-29.029c-.199-.003-.363.157-.365.356v27.737c.003.197.163.356.361.356h0Z" fill="#5300c9"/><path id="Path_506" d="m658.05,329.173h-30.434c-.199-.003-.363.157-.365.356v31.094c-.003.199.157.363.356.365h30.443c11.654,0,19.164-6.321,19.164-16.004,0-9.491-7.51-15.812-19.164-15.812Z" fill="#5300c9"/><path id="Path_507" d="m728.788,301.684c-.003-.199.157-.363.356-.365h10.516c-27.798-106.502-136.67-170.304-243.172-142.506-106.502,27.798-170.305,136.67-142.507,243.172,27.798,106.502,136.67,170.305,243.172,142.507,58.534-15.278,106.959-56.314,131.634-111.548v-131.259Zm-196.181,131.994h-68.401c-.199.003-.363-.157-.365-.356v-131.638c-.003-.199.157-.363.356-.365h68.2c24.3,0,40.102,14.421,40.102,36.151.934,13.472-8.435,25.483-21.73,27.854v.791c12.249.988,25.485,10.474,25.485,30.434,0,21.926-14.814,37.125-43.661,37.125l.014.005Zm144.21,0c-.105.001-.205-.045-.271-.126l-39.69-45.192c-.069-.078-.167-.124-.271-.126h-8.957c-.199-.003-.363.157-.365.356v44.724c.003.199-.157.363-.356.365h-31.881c-.199.003-.363-.157-.365-.356v-131.638c-.003-.199.157-.363.356-.365h66.622c28.641,0,47.608,17.38,47.608,43.263,0,21.538-13.194,37.054-34.18,41.947-.19.04-.311.226-.271.416.013.061.042.118.084.165l40.538,45.964c.132.149.118.377-.031.509-.066.059-.152.091-.24.09l-38.328.005Z" fill="#5300c9"/></g><g id="Group_57"><path id="Path_508" d="m872.876,409.809c-.055-.138-.189-.229-.337-.229h-55.216c-.149-.002-.284.09-.337.229l-6.213,16.135c22.229,10.027,47.167,12.356,70.869,6.621l-8.765-22.755Z" fill="#80f"/><path id="Path_509" d="m855.884,216.076c-51.17.013-95.546,35.37-106.991,85.243h12.131c.199-.003.362.157.365.356v80.046c5.91,9.97,13.356,18.945,22.062,26.594l44.616-106.753c.057-.136.19-.225.337-.225h32.906c.147.001.279.089.337.225l49.743,119.024c52.312-30.642,69.879-97.889,39.237-150.201-19.701-33.634-55.76-54.298-94.739-54.291l-.005-.019Z" fill="#80f"/><path id="Path_510" d="m861.41,381.524c.199.002.362-.158.364-.357,0-.048-.009-.095-.026-.139l-16.458-42.102c-.074-.187-.286-.279-.474-.205-.094.037-.168.111-.205.205l-16.27,42.102c-.073.188.021.4.21.472.041.016.084.024.127.024h32.733Z" fill="#80f"/></g></g></svg>