<?xml version="1.0" encoding="UTF-8"?><svg id="LOGO" xmlns="http://www.w3.org/2000/svg" viewBox="0 0 1250 703"><path d="M535.321,463.49v7.162h-3.192v-47.531h3.192v21.746c2.865-4.362,7.097-8.203,13.672-8.203,8.009,0,16.148,6.445,16.148,17.254v.13c0,10.809-8.139,17.386-16.148,17.386-6.64,0-10.937-3.777-13.672-7.944ZM561.691,454.178v-.13c0-8.725-6.056-14.324-13.023-14.324-6.902,0-13.542,5.795-13.542,14.259v.13c0,8.529,6.64,14.259,13.542,14.259,7.227,0,13.023-5.273,13.023-14.194Z"/><path d="M599.456,437.444h3.517l-14.391,34.38c-2.93,6.967-6.315,9.442-11.069,9.442-2.54,0-4.362-.457-6.575-1.432l1.106-2.8c1.759.845,3.192,1.236,5.665,1.236,3.452,0,5.731-2.018,8.204-7.812l-15.952-33.012h3.712l13.802,29.69,11.981-29.69Z"/><path d="M631.1,425.073h20.446c5.209,0,9.312,1.432,11.916,4.037,2.018,2.019,3.06,4.557,3.06,7.554v.13c0,5.47-3.127,8.399-6.512,10.157,5.339,1.823,9.051,4.883,9.051,11.069v.13c0,8.139-6.707,12.502-16.865,12.502h-21.096v-45.579ZM658.513,437.965c0-3.58-2.865-5.795-8.009-5.795h-11.524v12.111h10.939c5.143,0,8.594-2.018,8.594-6.185v-.132ZM651.676,451.053h-12.697v12.502h13.282c5.404,0,8.791-2.149,8.791-6.252v-.13c0-3.84-3.06-6.12-9.377-6.12Z"/><path d="M677.134,436.272h7.942v7.749c2.149-5.144,6.122-8.66,12.176-8.399v8.334h-.455c-6.902,0-11.721,4.492-11.721,13.609v13.087h-7.942v-34.38Z"/><path d="M701.03,453.658v-.13c0-9.832,7.814-17.971,18.361-17.971s18.298,8.009,18.298,17.841v.13c0,9.767-7.814,17.906-18.428,17.906-10.482,0-18.231-8.009-18.231-17.776ZM729.81,453.658v-.13c0-6.056-4.362-11.069-10.549-11.069-6.315,0-10.352,4.948-10.352,10.939v.13c0,5.99,4.362,11.004,10.482,11.004,6.382,0,10.419-4.949,10.419-10.874Z"/><path d="M743.352,460.755v-.13c0-7.424,5.86-11.069,14.259-11.069,3.842,0,6.577.585,9.246,1.432v-.847c0-4.883-2.995-7.487-8.529-7.487-3.842,0-6.707.845-9.832,2.148l-2.149-6.185c3.842-1.693,7.552-2.8,13.022-2.8,5.144,0,8.986,1.367,11.396,3.842,2.538,2.473,3.71,6.12,3.71,10.612v20.381h-7.682v-4.297c-2.345,2.8-5.926,5.014-11.199,5.014-6.447,0-12.241-3.712-12.241-10.614ZM766.988,458.28v-2.345c-2.019-.78-4.687-1.367-7.814-1.367-5.078,0-8.074,2.149-8.074,5.731v.13c0,3.32,2.932,5.208,6.707,5.208,5.209,0,9.181-2.995,9.181-7.357Z"/><path d="M782.157,453.528v-.13c0-11.396,7.749-17.841,15.953-17.841,5.665,0,9.245,2.8,11.719,6.055v-18.491h7.879v47.531h-7.879v-5.73c-2.54,3.58-6.12,6.447-11.719,6.447-8.074,0-15.953-6.447-15.953-17.841ZM809.96,453.528v-.13c0-6.642-4.687-11.004-9.962-11.004-5.404,0-9.897,4.232-9.897,11.004v.13c0,6.64,4.557,11.004,9.897,11.004,5.274,0,9.962-4.429,9.962-11.004Z"/><path d="M825.718,453.658v-.13c0-9.767,7.554-17.971,17.906-17.971,6.447,0,10.484,2.408,13.739,5.925l-4.949,5.274c-2.408-2.475-4.948-4.297-8.855-4.297-5.73,0-9.962,4.948-9.962,10.939v.13c0,6.12,4.232,11.004,10.287,11.004,3.712,0,6.382-1.694,8.921-4.232l4.752,4.687c-3.385,3.777-7.357,6.447-14.064,6.447-10.222,0-17.776-8.009-17.776-17.776Z"/><path d="M861.92,453.658v-.13c0-9.832,7.814-17.971,18.361-17.971s18.298,8.009,18.298,17.841v.13c0,9.767-7.814,17.906-18.428,17.906-10.482,0-18.231-8.009-18.231-17.776ZM890.7,453.658v-.13c0-6.056-4.362-11.069-10.549-11.069-6.315,0-10.352,4.948-10.352,10.939v.13c0,5.99,4.362,11.004,10.482,11.004,6.382,0,10.419-4.949,10.419-10.874Z"/><path d="M906.522,436.272h7.942v5.209c2.214-3.06,5.209-5.925,10.484-5.925,4.948,0,8.464,2.408,10.287,6.055,2.735-3.647,6.382-6.055,11.591-6.055,7.487,0,12.045,4.752,12.045,13.152v21.943h-7.877v-19.534c0-5.47-2.54-8.399-6.967-8.399-4.299,0-7.359,2.995-7.359,8.529v19.403h-7.877v-19.599c0-5.339-2.605-8.334-6.967-8.334s-7.359,3.255-7.359,8.529v19.403h-7.942v-34.38Z"/><path d="M680.497,265.261c-4.32,0-6.569,2.876-7.606,6.169l-27.188,77.894-26.736-77.696c-1.23-3.675-3.908-6.367-8.238-6.367h-.827c-4.101,0-6.577,2.691-7.807,6.367l-26.943,77.696-26.762-77.477c-1.23-3.894-3.914-6.586-8.032-6.586-4.717,0-8.014,3.71-8.014,7.609,0,1.44.611,3.078,1.028,4.33l32.305,89.925c1.65,4.715,4.927,7.174,8.835,7.174h.422c4.11,0,7.21-2.459,8.641-7.174l26.759-76.418,26.519,76.418c1.457,4.715,4.547,7.174,8.658,7.174h.632c3.689,0,6.973-2.459,8.643-7.174l32.511-90.126c.404-1.251,1.019-2.898,1.019-4.334,0-3.908-3.302-7.403-7.816-7.403Z"/><path d="M853.661,265.261c-11.503,0-28.857,8.369-36.691,26.1v-18.249c0-4.553-3.495-8.04-8.044-8.04-4.321,0-7.816,3.693-7.816,8.04v93.02c0,4.514,3.495,8.026,8.028,8.026s7.833-3.697,7.833-8.026v-36.138c0-30.729,16.897-46.181,37.516-48.658,4.129-.627,7.027-3.705,7.027-8.049,0-4.522-3.11-8.026-7.852-8.026Z"/><path d="M910.411,265.002c-28.892,0-50.092,24.494-50.092,54.862v.422c0,32.638,23.412,54.875,52.113,54.875,17.758,0,29.473-6.332,39.361-15.913,1.65-1.424,2.442-3.251,2.442-5.078,0-3.687-3.057-6.752-6.869-6.752-1.825,0-3.249.818-4.444,1.818-7.691,7.148-17.16,12.241-30.087,12.241-18.599,0-34.548-12.848-36.744-35.689h75.509c3.81,0,7.27-3.056,7.27-7.337,0-27.964-17.582-53.449-48.46-53.449ZM876.091,314.151c1.984-20.602,15.738-35.893,33.916-35.893,20.778,0,31.704,16.722,33.319,35.893h-67.236Z"/><path d="M736.684,265.297c-13.56,0-21.446,1.51-31.897,6.046-2.898,1.277-4.339,3.307-4.339,6.59,0,3.684,3.303,6.779,7.009,6.779.79,0,1.827-.215,2.862-.623,7.816-3.47,14.035-4.848,24.731-4.848,19.901,0,31.651,9.867,31.651,28.976v3.703c-9.484-2.67-19.127-4.528-32.688-4.528-26.925,0-45.403,11.931-45.403,34.324v.422c0,21.78,19.936,33.082,39.677,33.082,18.673,0,31.001-8.632,38.414-18.301v10.142c0,4.11,3.057,7.405,7.57,7.405,4.339,0,7.624-3.295,7.624-7.809v-58.641c0-13.556-3.707-23.826-10.908-31.019-7.799-7.821-19.303-11.701-34.303-11.701ZM766.895,333.91c0,16.836-16.036,28.761-35.55,28.761-14.385,0-26.715-7.816-26.715-21.157v-.411c0-13.349,11.118-22,31.018-22,12.927,0,23.431,2.283,31.247,4.541v10.266Z"/><path d="M487.62,263c-20.711,0-33.688,14.346-33.688,14.346-6.894-8.945-16.404-14.332-32.493-14.332-16.977,0-31.826,14.332-31.826,14.332-6.912-8.945-18.65-14.332-28.384-14.332-15.04,0-26.987,6.613-34.273,23.289l-21.538,50.76-27.623-65.127c-3.483-7.627-12.085-11.097-20.111-7.509-8.035,3.574-11,12.475-7.369,20.129l33.729,73.286c5.295,11.485,10.885,17.512,21.375,17.512,11.201,0,16.088-6.571,21.385-17.512,0,0,29.419-64.057,29.704-64.707.311-.698,1.247-2.758,4.237-2.74,2.533.026,4.664,2.042,4.664,4.742v62.652c0,9.641,5.353,17.565,15.662,17.565s15.853-7.923,15.853-17.565v-51.253c0-9.88,7.088-16.295,16.738-16.295s16.07,6.618,16.07,16.295v51.253c0,9.641,5.38,17.565,15.655,17.565s15.883-7.923,15.883-17.565v-51.253c0-9.88,7.065-16.295,16.725-16.295s16.076,6.618,16.076,16.295v51.253c0,9.641,5.36,17.565,15.658,17.565s15.869-7.923,15.869-17.565v-58.327c0-21.441-17.222-36.463-37.978-36.463Z"/><path d="M973.292,265.002c-7.325,0-13.139,6.028-13.139,13.194v.092c0,7.198,5.709,13.143,13.139,13.143,7.358,0,13.155-6.039,13.155-13.235v-.062c0-7.162-5.744-13.132-13.155-13.132ZM983.917,278.197c0,5.876-4.62,10.789-10.625,10.789-6.078,0-10.644-4.816-10.644-10.71v-.079c0-5.853,4.618-10.763,10.644-10.763,6.077,0,10.625,4.836,10.625,10.737v.026Z"/><path d="M974.064,271.593h-4.392c-.79,0-1.404.627-1.404,1.419v10.028c0,.781.614,1.401,1.404,1.401s1.405-.62,1.405-1.401v-2.767h2.231l2.722,3.456c.334.382.756.712,1.371.712.686,0,1.334-.527,1.334-1.295,0-.428-.175-.716-.438-1.067l-1.949-2.364c1.528-.641,2.546-1.862,2.546-3.881v-.041c0-1.171-.387-2.19-1.123-2.888-.792-.839-2.057-1.313-3.707-1.313ZM976.03,275.976c0,1.097-.754,1.795-2.125,1.795h-2.828v-3.65h2.793c1.353,0,2.16.638,2.16,1.815v.039Z"/></svg>