<?xml version="1.0" encoding="UTF-8"?>
<svg id="PASTE_LOGO_HERE" data-name="PASTE LOGO HERE" xmlns="http://www.w3.org/2000/svg" viewBox="0 0 1250 703">
  <defs>
    <style>
      .cls-1 {
        fill: #26eab6;
      }
    </style>
  </defs>
  <path class="cls-1" d="M625,116.5c-129.82,0-235,105.18-235,235s105.18,235,235,235,235-105.18,235-235-105.27-235-235-235Z"/>
  <g>
    <path d="M652.07,218.26c-15.27-9.08-38.37-9.08-53.64,0-7.9,4.54-14.04,10.76-18.5,18.75-8.78,15.47-8.92,38.77,0,54.22,4.46,7.99,10.59,14.21,18.5,18.75,15.27,9.08,38.37,9.08,53.64,0,7.9-4.54,14.04-10.76,18.5-18.75,8.82-15.3,8.89-38.89,0-54.22-4.46-7.99-10.59-14.21-18.5-18.75ZM656.02,283.91c-2.94,5.72-7.15,10.26-12.44,13.45-10.31,6.51-26.4,6.52-36.66,0-5.3-3.19-9.5-7.65-12.44-13.45-5.92-11.07-5.94-28.48,0-39.51,2.94-5.72,7.15-10.17,12.44-13.45,10.22-6.51,26.44-6.52,36.66,0,5.3,3.28,9.5,7.73,12.44,13.45,5.92,11.07,5.94,28.48,0,39.51Z"/>
    <path d="M625.84,382.86h-22.11v14.29h21.94c3.93,0,5.78,1.92,5.8,5.8v84.32h15.22v-83.56c.08-12.58-8.15-20.98-20.85-20.85h0Z"/>
  </g>
</svg>