<?xml version="1.0" encoding="UTF-8"?><svg id="EXAMPLES_TURN_OFF_" xmlns="http://www.w3.org/2000/svg" viewBox="0 0 1250 703"><defs><style>.cls-1{fill:#ff7023;}.cls-2{fill:#2d2a27;}</style></defs><g id="Everpure"><path class="cls-1" d="M259.59,264.41h-74.9c-7.74,0-14.9,4.13-18.77,10.84l-37.45,64.87c-3.87,6.71-3.87,14.97,0,21.68l38.07,66.13c3.87,6.71,11.3,10.66,19.04,10.66h37.29l-50.6-87.63,24.93-43.19h49.87l24.93,43.19-30.09,52.11h50.07l23.83-41.27c3.87-6.7,3.87-14.97,0-21.68l-37.45-64.87c-3.87-6.71-11.03-10.84-18.77-10.84h0Z"/><polygon class="cls-2" points="448.68 287.87 383.62 287.87 383.62 318.48 433.74 318.48 433.74 340.14 383.62 340.14 383.62 379.61 449.74 379.61 449.74 403.07 366.52 403.07 354.06 381.49 354.06 264.41 448.65 264.41 448.65 287.87 448.68 287.87"/><polygon class="cls-2" points="449.56 297.3 449.56 296.23 478.5 296.23 501.22 379.53 505.44 379.53 528.26 296.23 554.56 296.23 554.56 297.3 524.03 403.03 480.08 403.03 449.56 297.3"/><path class="cls-2" d="M619.53,319.35c-3.53-4.38-8.52-6.57-15-6.57s-11.78,2.12-15.69,6.36c-3.9,4.24-6.32,10.59-7.23,19.06h44.05c-.57-8.19-2.6-14.47-6.13-18.85ZM577.07,398.92c-7.67-4.52-13.47-11-17.38-19.44-3.9-8.43-5.86-18.45-5.86-30.06s1.95-21.59,5.86-29.95c3.9-8.37,9.69-14.77,17.33-19.22,7.64-4.45,16.88-6.67,27.73-6.67,15.7,0,27.75,4.85,36.13,14.53s12.57,23.78,12.57,42.29v5.98h-71.84c.63,9.11,2.98,16.23,7.02,21.36,4.05,5.13,9.53,7.69,16.43,7.69,5.22,0,9.54-1.56,13-4.7,3.45-3.13,5.74-7.08,6.86-11.86h27.14c-1.13,6.84-3.56,13.03-7.29,18.58-3.73,5.55-8.93,9.99-15.58,13.29-6.66,3.31-14.7,4.96-24.14,4.96-10.98,0-20.32-2.26-27.99-6.78h-.01s0,.01,0,.01Z"/><path class="cls-2" d="M664.75,296.23h17.33l9.08,16.02h4.22l9.19-16.02h25.03v23.82h-9.2c-6.97,0-12.43,1.21-16.38,3.63-3.95,2.42-6.73,6.08-8.34,11-1.63,4.91-2.44,11.43-2.44,19.55v48.8h-28.53v-106.81h.03Z"/><path class="cls-2" d="M807.78,375.9c3.66-5.98,5.49-14.74,5.49-26.27s-1.83-20.29-5.49-26.27c-3.66-5.98-8.77-8.97-15.31-8.97-4.72,0-8.85,1.44-12.42,4.33-3.56,2.89-6.3,6.98-8.24,12.28s-2.91,11.52-2.91,18.63.96,13.34,2.91,18.69c1.94,5.34,4.68,9.43,8.24,12.28,3.56,2.84,7.69,4.27,12.42,4.27,6.55,0,11.66-2.99,15.31-8.97h0s0,0,0,0ZM740.38,296.23h18.49l7.93,13.88h4.22c2.6-4.91,6.34-8.81,11.2-11.7s10.98-4.33,18.38-4.33c9.36,0,17.2,2.37,23.5,7.1,6.3,4.73,11,11.28,14.11,19.65,3.1,8.37,4.65,18.04,4.65,29s-1.59,20.81-4.75,29.1c-3.17,8.29-7.93,14.74-14.27,19.32-6.34,4.59-14.09,6.89-23.24,6.89-12.75,0-21.91-4.63-27.47-13.88h-4.22v47.31h-28.53v-142.36h-.01Z"/><path class="cls-2" d="M861.6,394.65c-6.09-7.37-9.13-17.57-9.13-30.59v-67.82h28.53v63.01c0,15.31,5.46,22.97,16.37,22.97,4.5,0,8.4-1.23,11.67-3.68,3.27-2.45,5.76-5.83,7.44-10.15,1.69-4.31,2.54-9.13,2.54-14.47v-57.67h28.53v106.8h-16.48l-9.2-16.02h-4.22c-1.9,5.7-5.28,10.24-10.14,13.62s-11.34,5.07-19.44,5.07c-11.55,0-20.37-3.68-26.46-11.06h.01,0Z"/><path class="cls-2" d="M959.37,296.23h17.33l9.08,16.02h4.22l9.19-16.02h25.03v23.82h-9.2c-6.97,0-12.43,1.21-16.38,3.63-3.95,2.42-6.73,6.08-8.34,11-1.63,4.91-2.44,11.43-2.44,19.55v48.8h-28.53v-106.81h.03Z"/><path class="cls-2" d="M1091.31,319.35c-3.53-4.38-8.52-6.57-15-6.57s-11.78,2.12-15.69,6.36c-3.9,4.24-6.32,10.59-7.23,19.06h44.05c-.57-8.19-2.6-14.47-6.13-18.85ZM1048.85,398.92c-7.67-4.52-13.47-11-17.38-19.44-3.9-8.43-5.86-18.45-5.86-30.06s1.95-21.59,5.86-29.95c3.9-8.37,9.69-14.77,17.33-19.22,7.64-4.45,16.88-6.67,27.73-6.67,15.7,0,27.75,4.85,36.13,14.53,8.39,9.68,12.57,23.78,12.57,42.29v5.98h-71.84c.63,9.11,2.98,16.23,7.02,21.36,4.05,5.13,9.52,7.69,16.43,7.69,5.21,0,9.54-1.56,13-4.7,3.45-3.13,5.74-7.08,6.86-11.86h27.14c-1.13,6.84-3.56,13.03-7.29,18.58-3.73,5.55-8.93,9.99-15.58,13.29s-14.7,4.96-24.14,4.96c-10.98,0-20.32-2.26-27.99-6.78h-.01s0,.01,0,.01Z"/><polygon class="cls-2" points="1115.11 283.52 1111.16 283.52 1111.16 282.33 1120.49 282.33 1120.49 283.52 1116.54 283.52 1116.54 294.27 1115.14 294.27 1115.14 283.52 1115.11 283.52"/><polygon class="cls-2" points="1121.9 282.33 1124.45 282.33 1127.99 293.1 1128.29 293.1 1131.87 282.33 1134.44 282.33 1134.44 294.27 1133.04 294.27 1133.04 283.56 1132.74 283.56 1129.22 294.27 1126.99 294.27 1123.48 283.56 1123.19 283.56 1123.19 294.27 1121.9 294.27 1121.9 282.33"/></g></svg>