<?xml version="1.0" encoding="utf-8"?>
<!-- Generator: Adobe Illustrator 27.1.1, SVG Export Plug-In . SVG Version: 6.00 Build 0)  -->
<svg version="1.1" id="Note" xmlns="http://www.w3.org/2000/svg" xmlns:xlink="http://www.w3.org/1999/xlink" x="0px" y="0px"
	 viewBox="0 0 48 48" style="enable-background:new 0 0 48 48;" xml:space="preserve">
<style type="text/css">
	.st0{fill:#FFFFFF;}
	.st1{fill:#FFFFFF;fill-opacity:0;}
</style>
<path class="st0" d="M34.40649,26.38965l1.46436,5.46387l-5.46436,1.46387l-1.22461-0.70703l4.78125-1.28076l-9.96289-5.75244
	l-9.96338,5.75244l4.78125,1.28076l-1.22461,0.70703l-5.46436-1.46387l1.46411-5.46387l1.22461-0.70703l-1.28101,4.78076
	l9.96338-5.75195V13.20704l-3.50024,3.5v-1.41406l4.00024-4l3.99976,4v1.41406l-3.49976-3.5v11.50439l9.96289,5.75195
	l-1.28125-4.78076C33.18187,25.68262,34.40648,26.38965,34.40649,26.38965z M40.68383,31.98633
	c0.43359,0.46973,0.53931,1.18115,0.20361,1.76318c-0.27783,0.48047-0.7832,0.74951-1.30176,0.74951
	c-0.11084,0-0.22168-0.01807-0.33154-0.04297c-3.45996,5.04102-9.12817,8.04346-15.25391,8.04346
	s-11.79346-3.00244-15.25342-8.04346c-0.10986,0.0249-0.2207,0.04297-0.33154,0.04297c-0.51855,0-1.02393-0.26904-1.30176-0.74902
	c-0.33594-0.58301-0.22998-1.29492,0.20435-1.76465C6.13256,29.50928,5.50121,26.76269,5.50121,24
	c0-9.68555,7.46802-17.69482,17.07031-18.42969c0.18628-0.61621,0.75244-1.06934,1.42871-1.06934s1.24268,0.45312,1.42896,1.06934
	C35.03197,6.30517,42.49975,14.31445,42.49975,24C42.49975,26.80273,41.88427,29.48633,40.68383,31.98633z M23.50122,6.00049
	c0,0.27539,0.22363,0.49951,0.49902,0.49951c0.2749,0,0.49805-0.22314,0.49902-0.49805l0.00024-0.00244
	c-0.00049-0.2749-0.22437-0.49854-0.49927-0.49854c-0.27539,0-0.49902,0.22412-0.49902,0.49951L23.50122,6.00049z M8.66235,33.43262
	c0.23828-0.1377,0.32031-0.44434,0.18262-0.68262c-0.06641-0.11572-0.17432-0.19824-0.30322-0.23242
	C8.49878,32.50586,8.45532,32.5,8.41187,32.5c-0.08643,0-0.17188,0.02246-0.24902,0.06738
	c-0.23877,0.1377-0.3208,0.44385-0.18311,0.68213c0.13721,0.23877,0.44336,0.32031,0.68262,0.18311L8.66235,33.43262z
	 M38.40796,33.9209c-0.36377-0.46729-0.43188-1.12695-0.11816-1.6709c0.2002-0.34668,0.52344-0.59473,0.91064-0.69873
	c0.19873-0.05322,0.4021-0.06348,0.60034-0.03516c1.12305-2.35352,1.69897-4.87842,1.69897-7.51611
	c0-9.15088-7.04688-16.71875-16.11377-17.43018C25.16113,7.11474,24.62524,7.5,24.00024,7.5s-1.16064-0.38525-1.38525-0.93018
	C13.54785,7.28125,6.50122,14.84912,6.50122,24c0,2.63867,0.57617,5.16309,1.69971,7.51611
	c0.198-0.02832,0.40137-0.01807,0.59961,0.03516c0.38721,0.104,0.71045,0.35205,0.91064,0.69873
	c0.31372,0.54395,0.24561,1.20361-0.11841,1.67139c3.27515,4.75,8.62549,7.57812,14.40747,7.57812
	S35.13281,38.6709,38.40796,33.9209z M39.84009,32.56885l-0.00488-0.00244C39.75855,32.52295,39.67457,32.5,39.58912,32.5
	c-0.04346,0-0.08691,0.00586-0.12988,0.01758c-0.12891,0.03418-0.23682,0.1167-0.30322,0.23242
	c-0.1377,0.23828-0.05566,0.54492,0.18262,0.68262c0.23828,0.13721,0.54443,0.05566,0.68262-0.18359
	c0.13721-0.2373,0.05591-0.54199-0.18115-0.68018H39.84009z"/>
<rect class="st1" width="48" height="48"/>
</svg>
