<?xml version="1.0" encoding="UTF-8"?><svg id="LOGO" xmlns="http://www.w3.org/2000/svg" viewBox="0 0 1250 703"><g id="Layer_1-2"><path d="M306.18,411.748c-10.367,0-18.772,8.406-18.772,18.772s8.406,18.866,18.772,18.866,18.772-8.406,18.772-18.866c.093-10.367-8.406-18.772-18.772-18.772Z" fill="#ff2c8b"/><path d="M394.532,387.465l-75.557-108.618c-2.148-3.082-5.23-5.043-8.592-5.977-.374-.093-.747-.187-1.121-.28h0c-.934-.187-1.961-.374-2.989-.374s-2.055.093-2.989.374h0c-.374.093-.747.187-1.121.28-3.362.934-6.444,2.895-8.592,5.977l-75.557,108.618c-4.857,7.005-3.082,16.624,3.829,21.481,7.005,4.857,16.624,3.082,21.481-3.829l54.356-78.172s7.939-11.955,17.278,0h0l54.356,78.172c4.857,7.005,14.476,8.686,21.481,3.829,6.818-4.857,8.592-14.476,3.736-21.481Z" fill="#ff2c8b"/><path d="M543.123,303.223c-9.153-8.406-20.92-12.702-34.93-12.702-18.025,0-32.688,5.977-43.709,17.745-10.554,11.488-15.877,25.87-15.877,42.775s5.324,31.287,15.877,42.775c10.927,11.768,25.217,17.745,42.495,17.745,14.756,0,26.804-4.203,36.051-12.515v10.74h25.03v-117.491h-24.936v10.927ZM534.904,377.846c-6.257,7.285-14.663,10.834-25.59,10.834s-19.426-3.549-26.151-10.927c-6.351-6.911-9.526-15.877-9.526-26.618s3.175-19.706,9.526-26.618c6.724-7.378,15.223-10.927,26.151-10.927s19.333,3.549,25.59,10.834h0c6.071,6.911,9.153,15.877,9.153,26.711s-3.082,19.706-9.153,26.711h0Z"/><path d="M638.946,294.444c-7.191,3.269-13.075,7.565-17.465,12.889v-15.037h-25.123v117.584h25.03v-52.208c0-11.581,3.362-21.668,9.9-29.886,6.911-8.499,15.504-12.702,26.431-12.702h6.164v-24.563h-5.23c-7.658,0-14.289,1.308-19.706,3.923h0Z"/><rect x="684.243" y="292.296" width="25.03" height="117.584"/><polygon points="732.342 315.458 793.889 315.458 731.875 388.306 731.501 388.866 731.501 409.88 828.165 409.88 828.165 386.438 765.497 386.438 827.698 313.59 828.165 313.123 828.165 292.296 732.342 292.296 732.342 315.458"/><path d="M696.758,242.516c-9.62,0-17.371,7.845-17.371,17.371s7.845,17.465,17.371,17.465,17.371-7.845,17.371-17.465c.093-9.526-7.752-17.371-17.371-17.371Z"/><path d="M946.123,308.266c-11.301-11.768-26.057-17.745-43.896-17.745s-32.595,5.977-43.896,17.745c-10.554,11.207-15.877,25.684-15.877,42.868s5.604,31.568,16.624,42.868c11.394,11.768,26.244,17.652,44.269,17.652,14.196,0,25.964-3.362,35.117-9.993,9.059-6.538,15.784-15.317,19.893-25.87l1.027-2.708h-27.365c-5.884,10.46-15.223,15.597-28.485,15.597-9.9,0-18.212-2.989-24.563-8.966-5.23-4.857-8.686-10.927-10.273-18.025h93.302v-10.647c0-17.091-5.324-31.568-15.877-42.775ZM869.072,338.246c1.775-6.538,5.137-12.048,9.806-16.344,6.257-5.51,14.009-8.406,23.255-8.406s16.998,2.708,23.255,8.312c4.763,4.296,8.032,9.9,9.9,16.438h-66.217Z"/></g></svg>