<?xml version="1.0" encoding="utf-8"?>
<!-- Generator: Adobe Illustrator 23.0.3, SVG Export Plug-In . SVG Version: 6.00 Build 0)  -->
<svg version="1.1" id="Layer_1" xmlns="http://www.w3.org/2000/svg" xmlns:xlink="http://www.w3.org/1999/xlink" x="0px" y="0px"
	 viewBox="0 0 1250 703" style="enable-background:new 0 0 1250 703;" xml:space="preserve">
<style type="text/css">
	.st0{fill:#002F87;}
</style>
<title>nvidia-partner-asus-logo</title>
<g id="LOGO">
	<path class="st0" d="M1015.9,286.5c-0.2-9.6,7.3-17.5,16.9-17.7s17.5,7.3,17.7,16.9c0,0.3,0,0.6,0,0.8c0,9.5-7.7,17.3-17.2,17.3
		C1023.7,303.9,1015.9,296.1,1015.9,286.5C1015.9,286.5,1015.9,286.5,1015.9,286.5z M1014.4,286.5c0,10.4,8.5,18.8,18.9,18.8
		c10.4,0,18.8-8.4,18.8-18.8c0-10.4-8.4-18.8-18.8-18.8C1022.9,267.7,1014.4,276.1,1014.4,286.5z M1026.2,297.6h2.6v-8.7h6
		c0.8-0.1,1.6,0.1,2.3,0.3c0.9,0.6,1.5,1.6,1.4,2.7l0.2,3.4c0,0.8,0,1.3,0,1.6c0.1,0.2,0.2,0.4,0.3,0.7h3.3v-0.5
		c-0.4-0.1-0.6-0.6-0.9-1.2c-0.1-0.6-0.2-1.1-0.2-1.7l-0.1-2.7c0-0.9-0.2-1.8-0.6-2.6c-0.5-0.6-1.1-1-1.8-1.3c1.9-0.8,3-2.8,2.8-4.9
		c0-2.3-0.9-4-2.7-4.8c-1.2-0.5-2.4-0.7-3.7-0.7h-9L1026.2,297.6z M1028.8,286.5v-7h6.3c0.8,0,1.5,0.1,2.2,0.4c1,0.6,1.6,1.8,1.5,3
		c0.1,1.1-0.3,2.2-1.1,2.9c-0.9,0.5-1.9,0.8-2.9,0.7L1028.8,286.5z M275.4,312.5L198,432.2h52.9l74.4-114.5L275.4,312.5z
		 M593.5,309.8v-44.4H443.1c-20.5,1.3-29.4,10.9-36.1,17.9c-7.1,7.4-11.2,22.9-11.2,22.9v-40.5H316c-6.4,0-12.5,3.1-16.1,8.5
		c-4.5,5.9-22.8,35.6-22.8,35.6H593.5z M1002.2,309.8v-44.4H841.4c-20.4,1.3-29.4,10.9-36.1,17.9c-7.2,7.4-11.2,22.9-11.2,22.9v3.6
		H1002.2z M646.2,265.6h-44.9v44.2h45L646.2,265.6z M793.8,265.6h-44.9v44.2h44.9L793.8,265.6z M793.8,325.7l-44.2-2.6v51.2
		c0,0-0.1,14.8-14.5,14.8h-75.9c0,0-12.8-1-12.8-14.6v-58.3l-44.6-3.1v78.6c7.2,37.7,41.6,40.6,41.6,40.6l4.1,0.3h102.5
		c0,0,43.9-3.5,43.9-45.2L793.8,325.7z M350.2,432.2h210.2c36.6-7.3,40.4-40.2,40.4-40.2c1-5.8,1.3-11.8,0.7-17.7
		c-1.1-6.6-13.8-35.7-41.2-38.2c-16.4-1.5-162.2-13-162.2-13c2.8,14.5,9.4,21.8,13.8,25.9c10.1,9.6,26.2,12.4,26.2,12.4
		c3.9,0.4,112.4,9.2,112.4,9.2c3.5,0.2,10,1,9.9,9.5c-0.2,4.9-4.3,8.7-9.1,8.5c0,0-0.1,0-0.1,0H393.9v-65.9l-43.7-3.2L350.2,432.2z
		 M794.1,432.6H955c40.3-2.3,46-40.2,46-40.2c0.9-6,0.9-12,0.2-18c-1.2-9-14-35.9-41.6-38.5c-16.3-1.5-163-10.1-163-10.1
		c4.3,14.9,10.2,19.4,14.6,23.6c10.2,9.7,25.4,12,25.4,12c3.8,0.3,113.5,9.4,113.5,9.4c3.5,0.2,10.6,0.5,10.6,9
		c-0.1,2.5-1.2,4.9-3,6.6c-2.3,1.2-4.9,1.9-7.5,2.1H794.2L794.1,432.6z"/>
</g>
</svg>
