<?xml version="1.0" encoding="UTF-8"?><svg id="GUIDES" xmlns="http://www.w3.org/2000/svg" viewBox="0 0 1250 703"><defs><style>.cls-1{fill:#faa61a;}.cls-2{fill:#00a5e4;}.cls-3{fill:#0073ae;}.cls-4{fill:#8dc63f;}</style></defs><rect class="cls-3" x="448.92386" y="293.51677" width="40.42044" height="40.42044"/><rect class="cls-2" x="489.31749" y="253.10527" width="40.42044" height="40.42044"/><rect class="cls-4" x="529.73793" y="293.52571" width="40.42937" height="40.42044"/><rect class="cls-1" x="529.73793" y="212.68483" width="40.42937" height="40.42044"/><path class="cls-3" d="m667.51253,387.31257c0-8.47569,6.76803-15.46723,15.25267-15.46723,4.45243,0,7.40281,1.50201,10.80024,4.45241l16.30766,14.61788c2.53913-5.93655,4.0054-12.91022,4.0054-20.32198v-.44702c0-25.40023-18.60539-46.58051-44.89074-46.58051s-44.47946,20.75113-44.47946,46.16925v.41126c0,25.42706,18.61433,46.61628,44.89074,46.61628,7.22399,0,13.76853-1.26957,19.47263-4.02328l-15.40465-13.13374c-3.43328-2.99509-5.95451-7.00048-5.95451-12.29332m-77.14843-16.72786v-.44702c0-42.13703,33.2769-76.66562,79.05275-76.66562,45.75798,0,78.56995,34.10837,78.56995,76.25436v.41126c0,15.6818-4.8458,30.31757-13.11585,42.593l7.18825,6.35677c3.39744,2.9504,5.9276,6.98261,5.9276,12.28439,0,8.44886-6.76803,15.45829-15.29735,15.45829-4.40771,0-8.22533-1.91329-10.76447-4.45241l-8.86014-8.279c-12.51685,8.05547-27.53706,12.73141-44.06821,12.73141-45.78478-.00002-78.63254-34.09945-78.63254-76.24543"/><path class="cls-3" d="m768.19257,370.58471v-.44702c0-42.1728,31.8017-76.73715,77.44348-76.73715,22.23526,0,37.25547,5.93655,49.61141,15.05597,3.35272,2.53913,6.33888,7.224,6.33888,12.93705,0,8.90484-7.2508,15.90532-16.13778,15.90532-4.47923,0-7.36703-1.69871-9.74522-3.18285-9.11938-6.79486-18.64114-10.5946-30.31755-10.5946-25.0337,0-43.04006,20.76007-43.04006,46.20502v.41126c0,25.45388,17.59512,46.67886,43.04006,46.67886,13.77746,0,22.91478-4.25572,32.23982-11.67642,2.48548-2.12787,5.90976-3.612,9.71841-3.612,8.27902,0,15.27948,6.79486,15.27948,15.07385,0,5.06931-2.5481,9.11046-5.48951,11.64959-13.36622,11.68535-29.05694,18.66796-52.80315,18.66796-43.68384-.00897-76.13825-33.74185-76.13825-76.33485"/><path class="cls-3" d="m969.07887,324.07573h-31.97154c-8.40418,0-15.35103-6.91108-15.35103-15.35101,0-8.4131,6.93791-15.34206,15.35103-15.34206h96.02199c8.42205,0,15.35997,6.92896,15.35997,15.34206,0,8.43993-6.92898,15.35101-15.35997,15.35101h-30.76461v106.08914c0,9.30716-7.31342,16.65634-16.63845,16.65634-9.28929,0-16.63845-7.34918-16.63845-16.65634v-106.08914h-.00894Z"/><path class="cls-3" d="m1028.39975,265.46117c0-.84041.57222-1.42155,1.40365-1.42155h.39337c.56329,0,.9656.25928,1.28742.71525l6.95578,10.80918,7.09882-10.80918c.29501-.45597.70633-.71525,1.207-.71525h.38444c.70633,0,1.35004.64372,1.35004,1.42155v17.38052c0,.77783-.64371,1.42156-1.40365,1.42156-.78675,0-1.3411-.64372-1.3411-1.42156v-13.38408l-5.99912,8.94954c-.33083.5275-.71526.84936-1.29636.84936-.56329,0-.9656-.32186-1.28742-.84936l-5.93657-8.94954v13.39301c0,.77783-.63477,1.42156-1.41259,1.42156-.78675,0-1.40365-.64372-1.40365-1.42156,0,0,0-17.38946-.00007-17.38946Zm-13.58975,1.34109h-5.33754c-.71526,0-1.35004-.62584-1.35004-1.34109s.63477-1.36791,1.35004-1.36791h13.46451c.77781,0,1.3411.65266,1.3411,1.36791s-.56329,1.34109-1.3411,1.34109h-5.28392v16.03943c0,.77783-.64371,1.42156-1.50201,1.42156-.75994,0-1.3411-.64372-1.3411-1.42156,0,0,0-16.03943.00007-16.03943Z"/><path class="cls-3" d="m503.6403,333.93721h-14.29601v28.26122h3.54941c15.68182,0,28.44004,12.07875,28.44004,27.75161s-12.75825,28.44897-28.44004,28.44897h-222.67451c-22.11904,0-40.10752-17.98849-40.10752-40.10752s17.99742-40.07176,40.30421-40.07176h.00894l16.75468.27716-1.77917-16.16459c-.23246-2.10998-.33974-4.08585-.33974-6.04384,0-24.42571,15.93214-45.1679,37.95283-52.4813v.05364c1.36791-.45597,2.76264-.86724,4.17526-1.21592.02682,0,.05364,0,.08941-.00894,1.25169-.32186,2.51231-.56326,3.79976-.78677.48279-.08046.97453-.16093,1.45732-.22352,1.00135-.14305,2.02057-.27716,3.0398-.3755,1.32321-.11623,2.67324-.18775,4.03221-.19669.27716-.00894.55432-.03576.82254-.03576,2.07422,0,4.13056.13411,6.15114.35762.16986.02682.33974.0447.5275.07152,6.35677.78677,12.43638,2.6643,18.03319,5.47165v-.08046c11.22939,5.59682,20.48291,14.92185,25.81151,26.68768h57.97084v-24.54194h-39.14194c-14.21555-20.73325-37.28229-34.34083-62.79876-36.32565-.11623-.01788-.23245-.02682-.34868-.03576-2.02057-.14305-4.04115-.2414-6.09749-.2414h-.1699c-.08046,0-.14305.00894-.20563.00894-2.35138.00894-4.67593.13411-6.98261.33974-.54538.0447-1.09075.08047-1.64507.13411-1.94905.20563-3.88022.50961-5.7935.84936-.89406.16093-1.76129.30398-2.65536.49173-.01788.00894-.0447.00894-.07153.01788-36.272,7.66209-63.99679,38.77537-66.40182,76.69245-31.39044,6.33888-55.1009,34.12626-55.1009,67.35845,0,37.89024,30.82718,68.72637,68.71743,68.72637h222.6745c31.46197,0,57.05889-25.59692,57.05889-57.05889-.00894-25.90986-19.98221-50.9614-46.32123-56.0039"/></svg>