<svg width="48" height="48" viewBox="0 0 48 48" fill="none" xmlns="http://www.w3.org/2000/svg">
<g clip-path="url(#clip0_2495_774)">
<path d="M42.49 33.5V10.5H5.48999V33.5H20.34L19.54 36.5H16.5V37.5H31.5V36.5H28.46L27.66 33.5H42.51H42.49ZM6.48999 11.5H41.49V32.5H6.48999V11.5ZM27.41 36.5H20.57L21.37 33.5H26.6L27.4 36.5H27.41Z" fill="black"/>
<path d="M29.99 20.5C30.82 20.5 31.49 19.83 31.49 19C31.49 18.17 30.82 17.5 29.99 17.5C29.59 17.5 29.22 17.66 28.95 17.92L25.47 16.18C25.47 16.12 25.49 16.06 25.49 16C25.49 15.17 24.82 14.5 23.99 14.5C23.16 14.5 22.49 15.17 22.49 16C22.49 16.06 22.5 16.12 22.51 16.18L19 17.94C18.73 17.7 18.38 17.54 17.99 17.54C17.16 17.54 16.49 18.21 16.49 19.04C16.49 19.87 17.16 20.54 17.99 20.54C18.13 20.54 18.25 20.52 18.38 20.48L19.39 22L18.36 23.55C18.24 23.52 18.12 23.5 17.99 23.5C17.16 23.5 16.49 24.17 16.49 25C16.49 25.83 17.16 26.5 17.99 26.5C18.39 26.5 18.76 26.34 19.03 26.08L22.51 27.82C22.51 27.88 22.49 27.94 22.49 28C22.49 28.83 23.16 29.5 23.99 29.5C24.82 29.5 25.49 28.83 25.49 28C25.49 27.94 25.48 27.88 25.47 27.82L28.95 26.08C29.22 26.34 29.59 26.5 29.99 26.5C30.82 26.5 31.49 25.83 31.49 25C31.49 24.17 30.82 23.5 29.99 23.5C29.86 23.5 29.74 23.52 29.62 23.55L28.59 22L29.62 20.45C29.74 20.48 29.86 20.5 29.98 20.5H29.99ZM24.36 26.55C24.24 26.52 24.12 26.5 23.99 26.5C23.86 26.5 23.74 26.52 23.62 26.55L21.72 23.69L22.95 23.07C23.22 23.33 23.59 23.49 23.99 23.49C24.39 23.49 24.76 23.33 25.03 23.07L26.26 23.69L24.36 26.55ZM19.47 24.82L20.81 24.15L22.52 26.72L19.46 25.19C19.46 25.13 19.48 25.07 19.48 25.01C19.48 24.95 19.47 24.89 19.46 24.83L19.47 24.82ZM26.82 22.86L25.47 22.19C25.47 22.13 25.49 22.07 25.49 22.01C25.49 21.95 25.48 21.89 25.47 21.83L26.82 21.16L27.39 22.02L27.2 22.31L26.82 22.88V22.86ZM25.45 17.29L28.51 18.82C28.51 18.88 28.49 18.94 28.49 19C28.49 19.06 28.5 19.12 28.51 19.18L27.16 19.85L25.45 17.28V17.29ZM24.36 17.45L26.26 20.31L25.03 20.93C24.76 20.67 24.4 20.51 23.99 20.51C23.58 20.51 23.22 20.67 22.95 20.93L21.72 20.31L23.62 17.45C23.74 17.48 23.86 17.5 23.99 17.5C24.12 17.5 24.24 17.48 24.36 17.45ZM24.49 22C24.49 22.28 24.27 22.5 23.99 22.5C23.71 22.5 23.49 22.28 23.49 22C23.49 21.72 23.71 21.5 23.99 21.5C24.27 21.5 24.49 21.72 24.49 22ZM20.59 22L21.16 21.14L21.83 21.48L22.51 21.82C22.51 21.88 22.49 21.94 22.49 22C22.49 22.06 22.5 22.12 22.51 22.18L21.16 22.85L20.59 21.99V22ZM20.82 19.86L19.48 19.19C19.48 19.19 19.49 19.1 19.49 19.05C19.49 18.97 19.48 18.9 19.47 18.83L22.53 17.3L20.82 19.87V19.86ZM25.85 26.12L27.17 24.15L27.84 24.49L28.52 24.83C28.52 24.89 28.5 24.95 28.5 25.01C28.5 25.07 28.51 25.13 28.52 25.19L25.46 26.72L25.85 26.13V26.12ZM29.99 18.5C30.27 18.5 30.49 18.72 30.49 19C30.49 19.28 30.27 19.5 29.99 19.5C29.71 19.5 29.49 19.28 29.49 19C29.49 18.72 29.71 18.5 29.99 18.5ZM23.99 15.5C24.27 15.5 24.49 15.72 24.49 16C24.49 16.28 24.27 16.5 23.99 16.5C23.71 16.5 23.49 16.28 23.49 16C23.49 15.72 23.71 15.5 23.99 15.5ZM17.49 19.04C17.49 18.76 17.71 18.54 17.99 18.54C18.27 18.54 18.49 18.76 18.49 19.04C18.49 19.32 18.27 19.54 17.99 19.54C17.71 19.54 17.49 19.32 17.49 19.04ZM19.45 20.29L20.26 20.69L19.99 21.09L19.45 20.28V20.29ZM20.26 23.31L19.87 23.51L19.45 23.72L19.99 22.91L20.26 23.31ZM17.99 25.5C17.71 25.5 17.49 25.28 17.49 25C17.49 24.72 17.71 24.5 17.99 24.5C18.27 24.5 18.49 24.72 18.49 25C18.49 25.28 18.27 25.5 17.99 25.5ZM23.99 28.5C23.71 28.5 23.49 28.28 23.49 28C23.49 27.94 23.5 27.89 23.52 27.84L23.55 27.78C23.59 27.71 23.64 27.65 23.72 27.6C23.82 27.54 23.89 27.51 23.97 27.51C23.97 27.51 23.97 27.51 23.98 27.51C23.99 27.51 23.98 27.51 23.99 27.51C24.07 27.51 24.15 27.54 24.24 27.6C24.32 27.65 24.38 27.72 24.41 27.78L24.44 27.84C24.46 27.89 24.47 27.94 24.47 28C24.47 28.28 24.25 28.5 23.97 28.5H23.99ZM30.49 25C30.49 25.28 30.27 25.5 29.99 25.5C29.71 25.5 29.49 25.28 29.49 25C29.49 24.72 29.71 24.5 29.99 24.5C30.27 24.5 30.49 24.72 30.49 25ZM28.53 23.71L27.72 23.31L27.99 22.91L28.53 23.72V23.71ZM27.72 20.7L28.53 20.29L27.99 21.1L27.72 20.7Z" fill="black"/>
</g>
<defs>
<clipPath id="clip0_2495_774">
<rect width="48" height="48" fill="white"/>
</clipPath>
</defs>
</svg>
