<?xml version="1.0" encoding="UTF-8"?>
<svg id="PASTE_LOGO_HERE" data-name="PASTE LOGO HERE" xmlns="http://www.w3.org/2000/svg" xmlns:xlink="http://www.w3.org/1999/xlink" viewBox="0 0 1250 703">
  <defs>
    <style>
      .cls-1 {
        fill: none;
      }

      .cls-2 {
        fill: #5d950e;
      }

      .cls-3 {
        clip-path: url(#clippath);
      }
    </style>
    <clipPath id="clippath">
      <rect class="cls-1" x="125" y="275.45" width="1000" height="152.09"/>
    </clipPath>
  </defs>
  <g class="cls-3">
    <g id="LOGO">
      <g id="Group">
        <path id="Vector" class="cls-2" d="M169.01,398.11v26.44c0,1.67,1.38,3.03,3.09,3.03h23.66v-13.27h-13.28v-12.93l20.19-19.77,20.19,19.77v12.93h-13.28v13.27h23.66c1.71,0,3.09-1.35,3.09-3.03v-26.44c0-2.26-.92-4.41-2.55-6l-31.11-30.47-31.11,30.47c-1.63,1.59-2.55,3.74-2.55,6Z"/>
        <path id="Vector_2" data-name="Vector 2" class="cls-2" d="M169,304.89v-26.41c0-1.67,1.38-3.03,3.06-3.03h23.66v13.27h-13.28v12.93l20.19,19.77,20.19-19.77v-12.93h-13.28v-13.27h23.66c1.71,0,3.09,1.35,3.09,3.03v26.44c0,2.26-.92,4.41-2.55,6l-31.11,30.47-31.11-30.47c-1.63-1.59-2.55-3.74-2.55-6l.03-.03Z"/>
        <path id="Vector_3" data-name="Vector 3" class="cls-2" d="M250.23,384.47h26.99c1.71,0,3.09-1.35,3.09-3.03v-23.17h-13.55v13.01h-13.2l-20.19-19.77,20.19-19.77h13.2v13.01h13.55v-23.17c0-1.67-1.38-3.03-3.09-3.03h-26.99c-2.3,0-4.5.9-6.12,2.5l-31.11,30.47,31.11,30.47c1.63,1.59,3.82,2.5,6.12,2.5Z"/>
        <path id="Vector_4" data-name="Vector 4" class="cls-2" d="M155.05,384.47h-26.96c-1.71,0-3.09-1.35-3.09-3.03v-23.17h13.55v13.01h13.2l20.19-19.77-20.19-19.77h-13.2v13.01h-13.55v-23.17c0-1.67,1.38-3.03,3.09-3.03h26.99c2.3,0,4.5.9,6.12,2.5l31.11,30.47-31.11,30.47c-1.63,1.59-3.82,2.5-6.12,2.5h-.03Z"/>
      </g>
      <g id="Group_2" data-name="Group 2">
        <path id="Vector_5" data-name="Vector 5" d="M379.79,302c23.41,0,42.3,12.66,45.53,36.55h-23.9c-2.41-10.27-10.98-16.14-21.65-16.14-17.61,0-24.39,14.86-24.39,29.73s8.24,27.21,24.72,27.21c11.46,0,20.03-6.48,22.11-17.7h24.07c-2.57,25.3-22.11,38.12-46.83,38.12-28.92,0-49.89-18.02-49.89-48.39s21.65-49.34,50.22-49.34l.03-.03Z"/>
        <path id="Vector_6" data-name="Vector 6" d="M440.68,350.86c0-27.53,22.11-49.5,52.66-49.5s52.33,21.98,52.33,49.5-21.65,49.18-52.49,49.18-52.49-21.34-52.49-49.18ZM519.49,350.86c0-15.82-9.86-28.48-26.15-28.48s-26.48,12.66-26.48,28.48,10.33,28.64,26.48,28.64,26.15-12.66,26.15-28.64Z"/>
        <path id="Vector_7" data-name="Vector 7" d="M588.62,303.75v74.35h43.12v20.09h-68.81v-94.44h25.69Z"/>
        <path id="Vector_8" data-name="Vector 8" d="M636.44,350.86c0-27.53,22.11-49.5,52.66-49.5s52.33,21.98,52.33,49.5-21.65,49.18-52.49,49.18-52.49-21.34-52.49-49.18ZM715.24,350.86c0-15.82-9.86-28.48-26.15-28.48s-26.48,12.66-26.48,28.48,10.32,28.64,26.48,28.64,26.15-12.66,26.15-28.64Z"/>
        <path id="Vector_9" data-name="Vector 9" d="M766.79,303.91l22.76,50.62,22.76-50.62h25.99l-47.15,96.32h-2.57l-47.81-96.32h26.02Z"/>
        <path id="Vector_10" data-name="Vector 10" d="M839.47,350.86c0-27.53,22.12-49.5,52.66-49.5s52.33,21.98,52.33,49.5-21.65,49.18-52.49,49.18-52.49-21.34-52.49-49.18ZM918.27,350.86c0-15.82-9.86-28.48-26.15-28.48s-26.48,12.66-26.48,28.48,10.33,28.64,26.48,28.64,26.15-12.66,26.15-28.64Z"/>
        <path id="Vector_11" data-name="Vector 11" d="M996.6,363.68h-9.54v34.48h-25.21v-94.25h39.57c25.04,0,36.01,14.7,36.01,29.73,0,11.86-6.61,21.98-18.08,26.89l21.65,37.64h-25.53l-18.89-34.48ZM986.76,321.93v24.84h11.46c11.3,0,14.2-6.64,14.2-12.34,0-6.16-3.39-12.34-15.18-12.34l-10.49-.16Z"/>
        <path id="Vector_12" data-name="Vector 12" d="M1122.42,303.75v20.25h-41.35v15.98h36.67v18.82h-36.67v19.3h43.93v20.09h-69.59v-94.44h67.02Z"/>
      </g>
    </g>
  </g>
</svg>