<svg xmlns="http://www.w3.org/2000/svg" viewBox="0 0 1250 703"><defs><style>.cls-1{fill:red;}</style></defs><title>equinix-logo</title><g id="Layer_7" data-name="Layer 7"><polygon class="cls-1" points="763.84 166.43 763.84 256.02 743.38 263.18 743.38 159.3 681.99 137.87 681.99 284.61 661.53 291.73 661.53 130.71 630.84 120 600.14 130.71 600.14 291.73 579.69 284.61 579.69 137.87 518.3 159.3 518.3 263.18 497.84 256.02 497.84 166.43 477.36 173.59 477.36 270.56 538.76 291.99 538.76 173.82 559.23 166.69 559.23 299.13 620.61 320.57 620.61 145.25 630.84 141.68 641.07 145.25 641.07 320.57 702.47 299.13 702.47 166.69 722.93 173.82 722.93 291.99 784.32 270.56 784.32 173.59 763.84 166.43"/><polygon points="266.63 437.11 303.05 437.11 303.05 427.22 266.63 427.22 266.63 405.86 320.94 405.86 320.94 396.01 255.62 396.01 255.62 471.36 322.86 471.36 322.86 461.63 266.63 461.63 266.63 437.11"/><path d="M554,441.33c0,13.46-8.91,22.38-22.14,22.38-12.85,0-20.89-9-20.89-22.38V396.2H500v45.64c0,20.54,14.84,31.74,31.7,31.74,24.93,0,33-17,33-31.74V396.2H554Z"/><rect x="625.43" y="396.01" width="10.82" height="75.35"/><polygon points="765.38 455.05 711.92 396.01 701.22 396.01 701.22 471.36 712.03 471.36 712.03 411.83 765.6 471.36 776.15 471.36 776.15 396.01 765.38 396.01 765.38 455.05"/><rect x="841.76" y="396.01" width="10.81" height="75.35"/><polygon points="957.72 430.46 989.1 395.92 975.76 395.92 950.86 423 926.63 395.92 912.51 395.92 942.78 430.49 904.92 471.34 918.74 471.34 949.78 437.8 979.4 471.34 994.38 471.34 957.72 430.46"/><path d="M405.08,393c-22.46.15-39.76,17.14-39.76,40.85v.3c0,23.55,17.73,40.14,40,40a41.39,41.39,0,0,0,17.58-4.16l6.14,7.07h12.57l-10.75-12.32c8.81-6.72,14.35-17.77,14.35-31.43v-.3C445.22,409.53,427.44,392.79,405.08,393ZM434,433.63c0,10.66-3.44,17.57-9.73,23.49l-5.86-6.77-12.54,0,10.28,11.79a28.31,28.31,0,0,1-10.56,2.21c-16.13.11-29-12.91-29-30.61l0-.27c0-18,12-30.76,28.25-30.85S434,415.42,434,433.32Z"/></g></svg>