<svg width="48" height="48" viewBox="0 0 48 48" fill="none" xmlns="http://www.w3.org/2000/svg">
<g clip-path="url(#clip0_1484_996)">
<path fill-rule="evenodd" clip-rule="evenodd" d="M24 24.5C19.08 24.5 16.59 20.26 16.59 11.91C16.59 7.82 19.91 4.5 24 4.5C28.09 4.5 31.41 7.82 31.41 11.91C31.41 20.62 29.12 24.5 24 24.5ZM24 5.5C20.47 5.5 17.59 8.38 17.59 11.91C17.59 19.6 19.75 23.5 24 23.5C27.17 23.5 30.41 22.12 30.41 11.91C30.41 8.38 27.53 5.5 24 5.5Z" fill="white"/>
<path d="M26.11 25.76L24 28.23L21.89 25.76L21.74 25.23L13.94 30H15.86L21.13 26.77L22.05 30H23.09L22.54 28.06L24 29.77L25.46 28.06L24.91 30H25.95L26.87 26.77L32.14 30H34.06L26.26 25.23L26.11 25.76Z" fill="white"/>
<path d="M20.5 33.5H19.5V40.5H20.5V33.5Z" fill="white"/>
<path d="M17.5 34.5H18.5V39.5H17.5V34.5Z" fill="white"/>
<path d="M16.5 35.5H15.5V38.5H16.5V35.5Z" fill="white"/>
<path d="M21.5 34.5H22.5V39.5H21.5V34.5Z" fill="white"/>
<path d="M24.5 35.5H23.5V38.5H24.5V35.5Z" fill="white"/>
<path d="M27.5 33.5H28.5V40.5H27.5V33.5Z" fill="white"/>
<path d="M26.5 34.5H25.5V39.5H26.5V34.5Z" fill="white"/>
<path d="M29.5 34.5H30.5V39.5H29.5V34.5Z" fill="white"/>
<path d="M32.5 35.5H31.5V38.5H32.5V35.5Z" fill="white"/>
<path fill-rule="evenodd" clip-rule="evenodd" d="M7.5 31V43H40.5V31H7.5ZM39.5 42H8.5V32H39.5V42Z" fill="white"/>
</g>
<defs>
<clipPath id="clip0_1484_996">
<rect width="48" height="48" fill="white"/>
</clipPath>
</defs>
</svg>
