<?xml version="1.0" encoding="UTF-8"?><svg id="LOGO" xmlns="http://www.w3.org/2000/svg" viewBox="0 0 1250 703"><defs><style>.cls-1{fill:#13343b;}.cls-2{fill:none;stroke:#20808d;stroke-miterlimit:10;stroke-width:5.58862px;}</style></defs><path class="cls-2" d="M336.66337,258.71768l-53.06398,53.11427h53.06398v-53.11427,14.5416-14.5416ZM283.5938,311.83195l-53.06957-53.11427v53.11427h53.06957ZM283.47644,250.90478v201.19044M336.66337,364.93505l-53.06398-53.11427v76.14499l53.06398,53.11427v-76.14499ZM230.52983,364.93505l53.06957-53.11427v76.14499l-53.06957,53.11427v-76.14499ZM207.75618,311.82078v75.83762h22.76805v-22.72334l53.06957-53.11427h-75.83762ZM283.5938,311.82078l53.06397,53.11427v22.72334h22.77364v-75.83762h-75.83762Z"/><path class="cls-1" d="M514.90691,323.71337c3.31405-6.19778,7.94703-10.97047,13.92127-14.32923,5.96307-3.34759,12.96002-5.02417,20.98529-5.02417s14.67014,1.64864,20.23083,4.95152c5.56628,3.30287,9.72978,7.67877,12.48499,13.12768,2.75517,5.4545,4.13557,11.42873,4.13557,17.92272v8.99769h-62.4305c.50298,7.80172,3.13522,14.00509,7.89671,18.60453,4.76151,4.60502,11.15488,6.90195,19.18574,6.90195,6.51634,0,11.51257-1.3245,14.96632-3.97351,3.46496-2.64901,5.991-6.32074,7.60053-11.02635h14.29569c-1.90574,7.29874-5.78983,13.63065-11.65786,18.97896-5.86249,5.3539-14.26776,8.02527-25.1991,8.02527-8.22645,0-15.4749-1.67658-21.74533-5.02417-6.26484-3.34759-11.11018-8.12586-14.51924-14.32923-3.40906-6.20338-5.1136-13.50212-5.1136-21.9074s1.65424-15.69844,4.96829-21.90181h-.00559l-.00002.00557ZM571.62586,338.10966c0-6.80135-1.75484-12.12172-5.26449-15.97787-3.50965-3.85056-9.02564-5.77305-16.55349-5.77305-7.01931,0-12.76442,1.87219-17.22414,5.62216-4.46531,3.74996-7.19814,9.13181-8.1985,16.12876h47.24063ZM605.42025,306.60659v12.45145c0,.70417.3521,1.05066,1.05627,1.05066.40237,0,.69858-.10059.90537-.30179s.40237-.59798.598-1.19596c2.60432-8.19851,9.07593-12.30056,19.40929-12.30056h6.61692v13.49652h-8.57856c-6.72313,0-11.7361,1.59835-15.05017,4.80063s-4.96829,8.45-4.96829,15.75433v44.25631h-13.54121v-78.01718h13.55243l-.00004.00559ZM713.51541,368.18763c-3.55996,6.24808-8.17614,10.92576-13.84301,14.02186-5.66686,3.0961-11.76407,4.64974-18.28041,4.64974-12.83705,0-21.86829-5.09683-27.08247-15.30166-.40237-.79359-.90537-1.19597-1.50332-1.19597s-.90537.30179-.90537.89976v41.8532h-13.54121v-106.50239h13.54121v13.35122c0,.59798.30179.89977.90537.89977s1.10095-.40238,1.50332-1.19596c5.21418-10.20483,14.24542-15.30165,27.08247-15.30165,6.51634,0,12.61354,1.55364,18.28036,4.64973,5.66686,3.0961,10.27746,7.77377,13.84301,14.02745,3.55996,6.24808,5.34273,13.78154,5.34273,22.57245s-1.78277,16.32437-5.34273,22.57803l.00004-.00559ZM697.86725,324.08222c-4.96829-5.15271-11.51255-7.72907-19.63284-7.72907s-14.67014,2.57636-19.63284,7.72907c-4.96829,5.15271-6.79016,12.3285-6.79016,21.52737s1.82187,16.38025,6.79016,21.52737c4.96829,5.15272,11.51255,7.72906,19.63284,7.72906s14.67014-2.57076,19.63284-7.72906c4.96829-5.15272,7.44964-12.3285,7.44964-21.52737s-2.48135-16.37467-7.44964-21.52737ZM738.50774,276.60127v108.01132h-13.54121v-108.00014h13.54121v-.01118ZM749.65706,323.70778c3.30848-6.19778,7.94701-10.97047,13.92125-14.32923,5.96307-3.34759,12.96002-5.02417,20.97968-5.02417s14.67572,1.64864,20.23642,4.95152c5.56628,3.30287,9.72978,7.67877,12.48499,13.12768,2.7608,5.4545,4.13557,11.42873,4.13557,17.92271v8.99769h-62.4305c.50296,7.80172,3.1352,14.00509,7.89674,18.60453,4.76149,4.60502,11.1549,6.90195,19.18574,6.90195,6.51634,0,11.50696-1.3245,14.96634-3.97351,3.46496-2.64901,5.991-6.32074,7.60053-11.02635h14.29569c-1.90574,7.29874-5.79542,13.63065-11.65786,18.97896-5.86249,5.3539-14.26776,8.02527-25.19912,8.02527-8.22645,0-15.47488-1.67658-21.74533-5.02417-6.26486-3.34758-11.11018-8.12586-14.51924-14.32923-3.40906-6.20338-5.1136-13.50212-5.1136-21.9074s1.65422-15.69844,4.96829-21.90181h-.00559v.00557ZM806.37601,338.10407c0-6.80135-1.75484-12.12172-5.26449-15.97787-3.50965-3.85056-9.02561-5.77305-16.55349-5.77305-7.01371,0-12.7644,1.87219-17.22414,5.62215-4.46533,3.74996-7.19257,9.13181-8.19853,16.12876,0,0,47.24065,0,47.24065,0ZM815.39045,381.61151l30.98891-38.25972-25.42262-33.74969v-3.00109h14.89369l21.21999,29.09996,22.86866-29.09996h15.18989v3.15198l-29.18379,35.85661,26.93158,36.00191v3.00109h-14.5919l-23.01956-31.35218-24.66819,31.35218h-15.19548v-3.00109h-.01117ZM914.78968,281.21189v16.88323h-15.81581v-16.88323h15.81581ZM913.96813,384.61819h-13.54684v-78.01159h13.54684v78.01159ZM918.23784,306.6066h14.73158v-21.00205h13.5468v21.00205h15.50285l3.80585,11.43432h-19.3087v37.32082c0,5.09683-.12851,8.87473-.37999,11.32814-.25148,2.4534-.37445,3.9288-.37445,4.42619,0,.70416.19562,1.25186.59795,1.64864.40242.40238.95006.59798,1.6598.59798.49741,0,1.97839-.12295,4.4374-.37443,2.45338-.25149,6.24252-.37443,11.3617-.37443h5.26449v11.99877h-10.52898c-8.62887,0-15.05012-2.09573-19.25839-6.30397-4.20827-4.20265-6.32071-10.59603-6.32071-19.20251v-41.07079h-14.72603v-11.43433h-.01117v.0056ZM966.09882,306.6066h13.80391l22.41598,65.44837c.30733.80476.7824,1.86101,2.31924,1.86101s2.01191-1.06184,2.3137-1.86101l22.41598-65.44837h12.87619v3.00109l-28.04374,84.15907c-2.4087,7.20373-5.78979,12.22791-10.14891,15.07811-4.36475,2.8502-9.43362,4.27529-17.86686,4.27529h-14.441v-11.99877h10.98725c3.50969,0,6.36548.12295,8.57293.37443,2.2019.25149,3.61023.37443,4.21381.37443,1.70449,0,2.8558-.74888,3.46492-2.24663l4.21381-11.40079c.50296-1.19597.54773-2.09573.15085-2.70489-.20117-.40238-.4471-.65387-.74889-.74888-.30179-.10059-.75443-.1509-1.35247-.1509h-9.17651l-25.95918-78.006h-.01117l.00017-.00557ZM501.33773,368.31617c-3.55996,6.24808-8.17616,10.92576-13.84303,14.02186s-11.76405,4.64974-18.28039,4.64974c-12.83707,0-21.86829-5.09683-27.08247-15.30164-.40237-.79359-.90535-1.19597-1.50335-1.19597s-.90535.30179-.90535.89976v41.8532h-13.54124v-106.5024h13.54124v13.35122c0,.59798.30179.89977.90535.89977s1.10095-.40238,1.50335-1.19596c5.20859-10.20483,14.2454-15.30165,27.08247-15.30165,6.51634,0,12.61352,1.55364,18.28039,4.64973s10.27748,7.77377,13.84303,14.02185c3.55996,6.24808,5.34273,13.78154,5.34273,22.57804s-1.78277,16.32437-5.34273,22.57245ZM485.68959,324.21076c-4.96829-5.15271-11.51257-7.72907-19.63284-7.72907s-14.67014,2.57636-19.63284,7.72907c-4.96829,5.15271-6.79018,12.3285-6.79018,21.52737s1.82189,16.38025,6.79018,21.52737c4.96829,5.15272,11.51257,7.72906,19.63284,7.72906s14.67014-2.57076,19.63284-7.72906c4.96829-5.15272,7.44964-12.3285,7.44964-21.52737s-2.48135-16.37467-7.44964-21.52737Z"/></svg>