<?xml version="1.0" encoding="UTF-8"?>
<svg id="LOGO" xmlns="http://www.w3.org/2000/svg" viewBox="0 0 1250 703">
  <defs>
    <style>
      .cls-1 {
        fill: #19e76e;
      }
    </style>
  </defs>
  <rect class="cls-1" x="137.10909" y="148.06951" width="987.89091" height="399.86098"/>
  <path d="M255.21558,298.60202h96.72568v32.92611h-63.79956c-1.13702,0-2.06237.92553-2.06237,2.06306v28.80896c0,1.13753.92535,2.06306,2.06237,2.06306h63.79956v32.92648h-30.87373c-1.13582,0-2.06135.92553-2.06135,2.06135v28.81067c0,1.13753.92553,2.06311,2.06135,2.06311h28.81067c1.13753,0,2.06311-.92553,2.06311-2.06311v-30.87202h30.87202c1.13753,0,2.06135-.92553,2.06135-2.06311v-28.81067c0-1.13582-.92382-2.06135-2.06135-2.06135h-30.87202v-32.92648h30.87202c1.13753,0,2.06135-.92553,2.06135-2.06135v-28.81136c0-1.13683-.92382-2.06223-2.06135-2.06223h-30.87202v-30.85511c0-1.13683-.92553-2.06223-2.06311-2.06223h-94.66262c-1.13683,0-2.06237.92535-2.06237,2.06223v28.81048c0,1.13683.92553,2.06223,2.06237,2.06223v-.00878.00005Z"/>
  <path d="M462.32703,338.03102h.97723c2.45087-4.15028,5.87038-7.34056,10.14479-9.48289,4.3364-2.26475,9.12266-3.41087,14.21575-3.41087,4.3364,0,8.49532.81004,12.36468,2.4147s7.3164,3.94863,10.24124,6.9631l-.01035.00859c3.01446,3.01446,5.4136,6.79591,7.10445,11.22022,1.78898,4.42431,2.69737,9.51735,2.69737,15.15851v2.80247c0,5.71867-.86349,10.86692-2.55435,15.29123-1.69252,4.43295-4.08306,8.2144-7.10612,11.22715-2.92484,3.01446-6.41503,5.35848-10.38094,6.96139-3.96582,1.50811-8.21436,2.27505-12.63871,2.27505-2.2647,0-4.60877-.29126-6.96134-.85485-2.35266-.46709-4.65358-1.23403-6.82174-2.27505-2.09757-1.13582-4.05553-2.47499-5.84451-3.98139-1.74426-1.56844-3.24193-3.41262-4.45023-5.50155h-.97723v10.64629h-11.82691v-98.9804h11.82691v39.51835-.00005ZM891.35542,325.12862c5.73771,0,10.76178,1.10135,14.9121,3.26956,4.2296,2.0717,7.72145,4.70527,10.36542,7.81624l.00859.01894c2.73184,3.11096,4.74145,6.55634,5.96684,10.24129,1.31168,3.66596,1.98208,7.11134,1.98208,10.23094v9.41397h-56.02536c.35331,6.55634,2.46815,11.90619,6.30129,15.91515,3.90549,4.09859,9.45702,6.16857,16.48904,6.16857,3.20756,0,6.0462-.36883,8.4178-1.0996,2.36125-.72389,4.38814-1.73733,6.01858-3.00587,1.72698-1.27025,3.10233-2.74218,4.09859-4.36398,1.09272-1.74426,1.97349-3.59357,2.61635-5.51532l.13267-.40504,11.21847,3.03169-.13101.43951c-1.98383,6.50465-5.71184,11.90619-11.08755,16.05822-5.28776,4.05378-12.549,6.11683-21.57354,6.11683-4.98785,0-9.66038-.86349-13.90032-2.55601-4.15023-1.79766-7.78861-4.32776-10.80308-7.53528-3.01455-3.19888-5.40334-7.06824-7.09411-11.49255-1.70111-4.42431-2.55768-9.3778-2.55768-14.73623v-3.36606c0-4.8914.86516-9.51911,2.55768-13.7573,1.78732-4.24854,4.27265-7.93173,7.38366-10.94619,3.11101-3.11096,6.78727-5.55325,10.93751-7.24577,4.23994-1.78903,8.87449-2.69562,13.76589-2.69562l.00009-.00009ZM565.91172,325.12862c4.81037,0,9.22614,1.10135,13.104,3.27815,3.91251,2.05447,7.0407,5.2878,9.30541,9.61561h.9617v-10.92896h11.82696v55.65478c0,1.27888.27403,2.24059.82903,2.85763l.01035.00688c.5464.6084,1.36509.89971,2.50261.89971h3.94688v10.98065h-7.87823c-3.27815,0-6.02726-1.08408-8.16095-3.21611-2.04416-2.13374-3.07655-4.88281-3.07655-8.16095v-.39645h-.95145c-2.2647,4.60877-5.4378,8.07309-9.44667,10.31021-3.9745,2.26646-8.08344,3.42122-12.69212,3.42122-4.61043,0-8.95552-.76699-12.91275-2.2751-3.96416-1.61149-7.50599-3.95723-10.52045-6.96998-2.93519-3.12995-5.27917-6.94586-6.97169-11.37018-1.70111-4.42431-2.55601-9.61566-2.55601-15.43083v-2.23888c0-5.72043.86349-10.86692,2.55601-15.29123,1.69252-4.42431,4.03483-8.20576,6.96134-11.22022,3.02305-3.1196,6.55805-5.50673,10.52221-7.11134,3.95723-1.60461,8.21611-2.41466,12.64047-2.41466l-.00009.00005ZM737.92425,325.12862c5.73771,0,10.76178,1.10135,14.91376,3.26956,4.2295,2.0717,7.71969,4.70527,10.36366,7.81624l.00859.01894c2.73184,3.11096,4.74145,6.54775,5.96684,10.23265,1.31335,3.66596,1.98208,7.11129,1.98208,10.23089v9.41226h-56.02361c.35155,6.5477,2.46639,11.9079,6.29954,15.91691,3.90382,4.09854,9.45702,6.16853,16.48904,6.17028,3.20922,0,6.04786-.37058,8.4178-1.10135,2.36125-.72213,4.38814-1.73733,6.01858-3.00587,1.73733-1.27884,3.11101-2.74214,4.09859-4.36398,1.1014-1.74422,1.97349-3.60392,2.6181-5.51707l.13267-.40329,11.22715,3.03169-.13267.44122c-1.98208,6.50289-5.71008,11.90619-11.08579,16.05646-5.28776,4.05378-12.55085,6.11688-21.57529,6.11688-4.98795,0-9.66047-.8652-13.89866-2.55772-4.15199-1.79766-7.78178-4.32605-10.80492-7.53528-3.01446-3.19888-5.40158-7.06824-7.09411-11.49255-1.70111-4.4226-2.55601-9.37604-2.55601-14.73282v-3.36952c0-4.88969.86349-9.51735,2.55601-13.75554,1.78898-4.24854,4.27441-7.93344,7.38533-10.94795,3.10233-3.10062,6.78561-5.5429,10.92725-7.23542,4.23819-1.78903,8.87449-2.69562,13.76589-2.69562h.00018ZM655.44439,325.12345c4.60868,0,8.71586.67044,12.20614,1.99243,3.48843,1.22544,6.45984,2.90761,8.821,4.9879,2.36985,1.99067,4.20373,4.35368,5.4378,7.01479,1.32194,2.64393,2.18543,5.33261,2.56461,7.97654l.0534.40504-11.26337,2.74043-.0534-.51019c-.4481-4.3364-2.22858-7.77314-5.29644-10.20678-2.99552-2.44052-6.99931-3.68319-11.91658-3.68319-1.92175,0-3.81587.22922-5.6394.68772-1.73733.37054-3.29709.96-4.64499,1.77009-1.33912.80316-2.41466,1.84247-3.21615,3.08514-.79281,1.14616-1.18927,2.52155-1.18927,4.09859,0,3.22645,1.30475,5.62217,3.99169,7.32333,2.8197,1.72869,8.03687,2.88174,15.49288,3.43674,8.17823.66185,14.48109,2.6715,18.73656,5.97552l.01718-.00859c4.3898,3.24369,6.62014,8.08168,6.62014,14.3657v.83767c0,3.41951-.72389,6.55634-2.15097,9.31571-1.33062,2.66116-3.26096,4.97931-5.72736,6.87348-2.3716,1.89592-5.34125,3.34023-8.84003,4.28471-3.38504,1.03067-7.15619,1.5598-11.19269,1.5598-5.44639,0-10.21537-.71354-14.16401-2.12515-3.87795-1.51499-7.17338-3.4712-9.81726-5.83245-2.5732-2.4767-4.53985-5.25334-5.86179-8.28503-1.33062-3.12824-2.09747-6.28402-2.28198-9.40362l-.02753-.37054.08962-.01899,11.14954-2.71456.04305.52053c.45854,5.18266,2.48533,9.42256,6.01858,12.59561,3.54359,3.08339,8.34712,4.65354,14.2795,4.65354,5.031,0,9.09512-.97034,12.09065-2.87315,3.06786-1.98379,4.55703-4.65358,4.55703-8.16959,0-3.78145-1.43743-6.39951-4.3898-8.01276-3.00587-1.64771-7.98513-2.71456-14.80696-3.17301-8.08168-.56359-14.38297-2.47674-18.72797-5.69285-4.39673-3.25232-6.62697-8.03858-6.62697-14.23298v-.83767c0-3.32989.72389-6.28402,2.15965-8.76764,1.42708-2.57325,3.34883-4.7432,5.72736-6.45291,2.46806-1.70975,5.2447-3.00587,8.26785-3.85213,3.01446-.84626,6.21334-1.27713,9.51052-1.27713l.00018-.00009ZM980.93114,325.13726c8.12649,0,14.69138,2.59048,19.52254,7.7008v-.00864c4.82072,5.01553,7.26984,12.66629,7.26984,22.73005v41.92506h-11.82696v-39.68622c0-7.13892-1.60466-12.5508-4.7845-16.09268-3.17301-3.52465-7.53703-5.31538-12.98343-5.31538-6.46843,0-11.62527,2.25611-15.35327,6.708-3.64873,4.38814-5.49804,10.37225-5.49804,17.79384v36.60108h-11.82862v-70.40136h11.82862v11.77522h.95145c2.16649-4.50187,5.14649-7.94896,8.87449-10.23089,3.79868-2.31815,8.44367-3.49878,13.82798-3.49878l-.00009-.00009ZM814.91816,327.09347h26.9062v10.98065h-26.9062v44.67413c0,1.27888.27237,2.24059.82903,2.85763.54631.60669,1.36499.89795,2.50261.89795h20.20854v10.98065h-24.13131c-3.27815,0-6.02902-1.08408-8.16095-3.21611-2.04407-2.14238-3.07479-4.88281-3.07479-8.16095v-48.0333h-17.00098v-10.98065h17.00098v-28.58075h11.82696v28.58075h-.00009ZM485.15359,336.39195c-3.19028,0-6.18756.64462-8.9193,1.92175v.00864c-2.74043,1.18922-5.1913,2.89897-7.28887,5.08445-2.00102,2.18543-3.62286,4.86557-4.82072,7.97654v.02758c-1.18058,2.99552-1.78039,6.38052-1.78039,10.04653v1.68217c0,3.75558.59981,7.23542,1.78907,10.34643,1.18917,3.01446,2.80242,5.65839,4.81213,7.84382,2.09757,2.18543,4.54668,3.89523,7.27852,5.07581,2.7335,1.18234,5.64291,1.78214,8.92965,1.78214s6.34601-.555,9.07785-1.64771c2.72315-1.18234,5.12921-2.83864,7.12857-4.93621,2.09757-2.10616,3.71082-4.68975,4.80353-7.69558,1.19961-3.02134,1.79766-6.45808,1.79766-10.21195v-2.80247c0-3.66596-.59805-6.99931-1.78907-9.92415-1.09272-3.0231-2.71456-5.61529-4.80353-7.70421-2.00961-2.19407-4.45882-3.90382-7.27852-5.08445-2.74218-1.18927-5.7463-1.78903-8.93658-1.78903v-.00009ZM567.31118,336.40059c-3.19028,0-6.15134.59981-8.78663,1.78043-2.64388,1.18063-4.99654,2.89038-6.99756,5.07581-1.91315,2.09752-3.43678,4.73285-4.5295,7.83518-1.10131,3.0231-1.6563,6.41674-1.6563,10.0827v2.23888c0,7.79042,2.03548,13.9503,6.0462,18.32985,4.08824,4.27436,9.44667,6.44432,15.92379,6.44432,3.19028,0,6.15301-.59981,8.78829-1.78214v-.00688c2.73184-1.18234,5.07581-2.8835,6.98721-5.06893,1.91315-2.18543,3.43854-4.82936,4.53985-7.84382,1.1014-3.11101,1.6563-6.5908,1.6563-10.35331v-1.68559c0-3.66596-.555-7.05101-1.6563-10.07411-1.09272-3.10066-2.66975-5.78935-4.67077-7.97483-1.92175-2.18543-4.27441-3.89518-6.99756-5.07581-2.65423-1.27713-5.45674-1.92175-8.64703-1.92175ZM737.91565,336.40059c-3.01271,0-5.88756.5119-8.53144,1.51675-2.54567.90659-4.85527,2.24576-6.85454,3.97275-1.91306,1.72869-3.52631,3.80903-4.80344,6.17888-1.11166,2.14238-1.87869,4.51222-2.26646,7.05101h43.82957c-.22063-2.7232-.95311-5.23436-2.15097-7.46464-1.19102-2.36989-2.79383-4.39849-4.79494-6.02892-1.91999-1.64771-4.17786-2.94383-6.73387-3.85038-2.4578-.91694-5.05003-1.37539-7.69391-1.37539v-.00005ZM891.35542,336.39195c-3.01446,0-5.88756.5119-8.52978,1.5167-2.55592.91694-4.86553,2.2544-6.86655,3.98139-1.9114,1.72869-3.5264,3.80903-4.80353,6.17888-1.1099,2.13027-1.87518,4.50705-2.26295,7.04237h43.83475c-.22063-2.7232-.95145-5.2344-2.14931-7.46464-1.18927-2.36989-2.80427-4.39849-4.79494-6.02892-1.92175-1.64771-4.17786-2.94383-6.73212-3.85038-2.45947-.91694-5.0517-1.37539-7.69558-1.37539Z"/>
</svg>