<?xml version="1.0" encoding="UTF-8"?>
<svg xmlns="http://www.w3.org/2000/svg" viewBox="0 0 1250 703">
  <!-- Original Content Bounds: x="0" y="-0.000003814697265625" width="852.8179931640625" height="213" -->
  <!-- Logo Content -->
  <g transform="translate(186.35365019998454, 241.94360002987986) scale(1.0286986281154367)">
<path fill="#FF4C00" fill-rule="evenodd" d="M182.776 106.5c0 58.815-47.633 106.5-106.385 106.5-23.734 0-45.657-7.784-63.351-20.93a100 100 0 0 0 9.364 4.622 97.3 97.3 0 0 0 38.546 7.969c24.694 0 48.465-9.356 66.565-26.144a98.12 98.12 0 0 0 31.103-64.455q.388-3.494.443-6.989c0-2.977-.24-6.416-.554-9.559l-.055-.906a10 10 0 0 0-.056-1.035l-.092.092c-.443-4.086-.905-7.23-.905-7.23H80.214l-6.003 11.242-13.778 26.071h58.327a61.3 61.3 0 0 1-9.549 17.916 60.6 60.6 0 0 1-21.35 17.584 60.45 60.45 0 0 1-26.93 6.286 60.4 60.4 0 0 1-20.944-3.772 60.8 60.8 0 0 1-28.998-22.317A61.13 61.13 0 0 1 0 106.5a61 61 0 0 1 4.636-23.352 61.4 61.4 0 0 1 13.206-19.803 60.6 60.6 0 0 1 19.78-13.22 61.3 61.3 0 0 1 23.328-4.64 60.63 60.63 0 0 1 35.924 11.722l7.997-14.995 9.53-18.028A97.7 97.7 0 0 0 60.931 8.32c-16.788 0-33.134 4.327-47.596 12.351C31.011 7.691 52.805 0 76.391 0c58.752 0 106.385 47.685 106.385 106.5" clip-rule="evenodd"/><path fill="#FF4C00" d="M471.699 130.703c-3.752 4.498-8.46 8.111-13.797 10.512-4.755 2.097-9.929 3.146-15.127 3.123a38.4 38.4 0 0 1-19.065-4.685c-.21-.116-.396-.256-.606-.396a33.23 33.23 0 0 1-12.469-12.679 38.3 38.3 0 0 1-4.685-19.065 38.4 38.4 0 0 1 4.685-19.066 33.4 33.4 0 0 1 12.469-12.679c.21-.116.396-.28.606-.396a38.33 38.33 0 0 1 19.065-4.685 37.2 37.2 0 0 1 15.15 3.077l10.838-20.37s-.163-.094-.257-.14a68.1 68.1 0 0 0-27.036-5.245c-10.255-.116-20.371 2.145-29.623 6.573-.77.373-1.585.652-2.354 1.072a56.87 56.87 0 0 0-22.352 21.21 58.55 58.55 0 0 0-8.134 30.649 58.55 58.55 0 0 0 8.134 30.648 56.97 56.97 0 0 0 22.352 21.187c.769.419 1.584.699 2.354 1.072a66.65 66.65 0 0 0 29.437 6.572 67.2 67.2 0 0 0 27.106-5.267c.116-.047.21-.116.326-.163a53.4 53.4 0 0 0 20.044-15.126l-17.084-15.779zm55.961 28.575a57.3 57.3 0 0 1-22.515-21.28 57.9 57.9 0 0 1-8.134-30.486 57.9 57.9 0 0 1 8.134-30.485 57.3 57.3 0 0 1 22.515-21.28c9.952-5.244 21.046-7.878 32.304-7.738a66.5 66.5 0 0 1 32.21 7.715 57.95 57.95 0 0 1 22.515 21.28 57.8 57.8 0 0 1 8.228 30.485 57.8 57.8 0 0 1-8.228 30.486 57.94 57.94 0 0 1-22.515 21.279 66.8 66.8 0 0 1-32.21 7.738 67.2 67.2 0 0 1-32.304-7.738zm50.693-19.648a33.63 33.63 0 0 0 12.912-13.076 38.3 38.3 0 0 0 4.685-19.065 38.4 38.4 0 0 0-4.685-19.065 33.63 33.63 0 0 0-12.912-13.076 36.6 36.6 0 0 0-18.412-4.684 36.4 36.4 0 0 0-18.413 4.685 33.63 33.63 0 0 0-12.912 13.075 38.3 38.3 0 0 0-4.685 19.065 38.4 38.4 0 0 0 4.685 19.065 33.63 33.63 0 0 0 12.912 13.076 36.34 36.34 0 0 0 18.413 4.685 36.4 36.4 0 0 0 18.412-4.685m137.909 25.405-22.188-32.048h-24.496v32.048h-26.617V49.99h49.784a63.7 63.7 0 0 1 26.547 5.104 39.46 39.46 0 0 1 17.341 14.474 39.7 39.7 0 0 1 6.083 22.189 38.96 38.96 0 0 1-6.153 22.095 39 39 0 0 1-17.504 14.217l25.801 36.989h-28.598zm-6.736-88.172A27.85 27.85 0 0 0 691.3 71.69h-21.699v40.089H691.3c6.503.442 12.982-1.399 18.226-5.268a18.35 18.35 0 0 0 4.848-6.666 18.6 18.6 0 0 0 1.422-8.11 18.1 18.1 0 0 0-1.398-8.158c-1.073-2.587-2.751-4.871-4.848-6.713zm143.292 66.822v21.373h-89.08V49.99h86.936v21.373h-60.482v24.985h53.42v20.72h-53.42v26.617zm-525.119-13.006c-3.752 4.499-8.46 8.111-13.797 10.512-4.755 2.098-9.929 3.146-15.127 3.123a38.4 38.4 0 0 1-19.065-4.685c-.21-.116-.396-.256-.606-.396a33.23 33.23 0 0 1-12.469-12.679 38.3 38.3 0 0 1-4.685-19.065 38.4 38.4 0 0 1 4.685-19.065 33.4 33.4 0 0 1 12.469-12.68c.21-.116.396-.28.606-.396a38.33 38.33 0 0 1 19.065-4.685 37.2 37.2 0 0 1 15.15 3.077l10.838-20.37s-.163-.094-.257-.14a67.65 67.65 0 0 0-27.036-5.221c-10.255-.117-20.371 2.144-29.623 6.572-.77.373-1.585.653-2.354 1.073a56.87 56.87 0 0 0-22.352 21.21 58.5 58.5 0 0 0-8.134 30.648 58.55 58.55 0 0 0 8.134 30.649 56.97 56.97 0 0 0 22.352 21.186c.769.42 1.584.699 2.354 1.072a66.7 66.7 0 0 0 29.437 6.573 67.2 67.2 0 0 0 27.106-5.267c.116-.047.21-.117.326-.164a53.35 53.35 0 0 0 20.044-15.126l-17.084-15.779z"/><path fill="#FF4C00" d="m359.63 104.203-23.261.093c.327 5.85-.675 11.7-2.936 17.108a37.3 37.3 0 0 1-8.95 12.585c-1.888 1.818-3.916 3.473-6.13 4.848 2.913 7.389 5.477 14.264 6.876 22.142 5.151-2.773 10.068-4.964 14.357-9.02 6.899-6.246 11.7-14.194 15.522-22.678.047-.116.07-.233.117-.326a53.3 53.3 0 0 0 4.382-24.729z"/><path fill="#FF4C00" d="m359.747 101.383-.117 2.82-11.397 20.487h-60.226l12.19-23.307z"/>
  </g>
</svg>