<?xml version="1.0" encoding="UTF-8"?>
<svg id="PASTE_LOGO_HERE" data-name="PASTE LOGO HERE" xmlns="http://www.w3.org/2000/svg" viewBox="0 0 1250 703">
  <defs>
    <style>
      .cls-1 {
        fill: #114b9b;
      }
    </style>
  </defs>
  <path class="cls-1" d="M414.65999,423.20578v-59.7269h-58.17955v59.7269h-22.28153v-136.47442h22.28153v56.01331h58.17958v-56.01331h22.28153v136.47442h-22.28155Z"/>
  <path class="cls-1" d="M621.38312,322.93886v18.56795h-11.45022c-14.54488,0-21.35312,9.59344-21.35312,29.70872v52.29971h-21.35312v-98.71959h19.49635l1.85681,10.8313c3.71358-5.87985,10.8313-12.6881,23.20993-12.6881s7.11772,0,9.59346.30947h0l-.00009-.30946Z"/>
  <path class="cls-1" d="M695.65491,367.50194c0-15.16382-3.09466-28.16139-19.49635-28.16139s-19.49635,12.6881-19.49635,28.16139v56.0133h-21.35312v-100.57638h19.49635l1.85681,10.8313c2.78517-5.87985,14.85437-12.6881,26.61408-12.6881s24.44778,8.97451,28.16141,14.85436c5.26091-8.97451,18.56795-14.85436,30.32766-14.85436,27.233,0,35.58857,16.40168,35.58857,46.41987v56.0133h-21.04368v-56.0133c0-14.85436-4.02306-28.47086-19.49635-28.47086s-19.49635,12.6881-19.49635,28.47086v56.0133h-21.35312l-.61892-56.0133h.30939Z"/>
  <path class="cls-1" d="M833.98611,425.06257c-29.39925,0-46.72935-21.04367-46.72935-52.29972s17.63954-52.29972,46.72935-52.29972,46.41987,21.35314,46.41987,52.29972-17.63954,52.29972-46.41987,52.29972ZM833.98611,339.03108c-15.1638,0-25.37619,12.06916-25.37619,33.73176s9.9029,34.04124,25.37619,34.04124,25.37619-12.06917,25.37619-34.04124-10.21238-33.73177-25.37619-33.73176Z"/>
  <path class="cls-1" d="M959.62924,368.7398c0-20.73421-7.11768-29.70872-22.59097-29.70872s-22.28157,9.59344-22.28157,29.70872v54.46597h-21.35312v-100.26692h19.49635l1.85677,10.8313c3.09466-6.18932,13.92596-12.6881,26.61408-12.6881,28.78028,0,39.92107,15.47329,39.92107,47.65774v54.46597h-21.04364l-.61897-54.46597h0Z"/>
  <path class="cls-1" d="M996.45566,286.73136h23.51942v23.5194h-23.51942v-23.5194ZM1018.73723,322.93886v100.26692h-21.35312v-100.26692h21.35312Z"/>
  <path class="cls-1" d="M548.03974,406.49462c-4.02306,0-5.26091-3.09466-5.26091-9.28397v-34.96963c0-27.23299-14.54488-41.46842-43.01575-41.46842s-39.61163,9.90291-41.46842,32.49391v3.09466h21.35314c.30946-12.06916,8.04611-17.63955,20.42474-17.63955,18.56795,0,21.66261,10.52184,21.66261,18.25848v6.18931h-25.68567c-26.30459,0-40.84948,14.23542-40.84948,30.01818s13.92596,31.87497,37.1359,31.87497c17.02062-.30946,27.233-9.90291,31.25606-14.85436,1.54733,8.35558,7.11772,14.23542,17.63954,14.23542s6.4988,0,12.68812-1.54733v-17.63955c-1.23784.9284-3.71358,1.23787-5.87983,1.23787h-.00005ZM521.11622,384.21309c0,10.8313-9.59343,22.90047-26.92351,22.90047s-17.94903-7.11771-17.94903-13.92596,3.40412-13.92596,21.04368-13.92596h23.51942v4.95145h.30948-.00005Z"/>
  <path class="cls-1" d="M1123.33663,387.92667h-21.66261c-3.09466,12.37863-11.45027,19.18688-22.28157,19.18688-17.02062,0-25.68562-13.92596-25.68562-34.04124s8.97449-33.73177,25.68562-33.73177,18.56795,6.49878,21.97209,19.18688h21.66261s-.30948-2.78519-.30948-3.71359c-3.09466-17.33009-17.3301-33.4223-43.6347-33.4223s-47.34823,21.04367-47.34823,52.29972,18.56795,52.29972,47.34823,52.29972,40.54004-17.02062,43.94418-33.4223v-4.02305h.30948v-.61895Z"/>
  <path class="cls-1" d="M244.14433,316.74955c-18.25849-18.25848-47.0388-18.25848-65.29728,0-8.97451,8.97451-5.87985,34.66017,12.37863,52.91865,18.25848,18.25849,43.94414,21.04367,52.91865,12.37863,18.25849-17.94901,18.25849-47.0388,0-65.29728ZM203.60431,357.90849c-9.28397-9.28397-12.99757-20.7342-8.66504-25.06673,9.28397-9.28397,24.4478-9.28397,33.73178,0,9.28397,9.28397,9.28397,24.4478,0,33.73176-9.28397,9.28397-15.78276.61893-25.06673-8.66504h0Z"/>
  <path class="cls-1" d="M211.34096,263.21196c-47.65773,0-86.34096,38.99269-86.34096,86.34096s38.37376,86.34095,86.34095,86.34095,86.34096-38.99269,86.34096-86.34096c.30946-47.65773-38.06429-86.34096-86.34095-86.34095ZM256.83243,394.73492c-12.06917,12.06917-46.72934,6.18932-71.4866-18.87741-25.06673-25.06673-31.25605-59.41743-18.87741-71.4866,25.06673-25.06673,65.60675-25.06673,90.36401,0,25.06672,24.75726,25.06672,65.60676,0,90.36401Z"/>
</svg>