<?xml version="1.0" encoding="UTF-8"?>
<svg id="PASTE_LOGO_HERE" data-name="PASTE LOGO HERE" xmlns="http://www.w3.org/2000/svg" viewBox="0 0 1250 703">
  <defs>
    <style>
      .cls-1 {
        fill: #ff671d;
        fill-rule: evenodd;
      }

      .cls-2 {
        fill: none;
      }
    </style>
  </defs>
  <path class="cls-2" d="M189.86339,229.22316h870.62624v243.77535H189.86339v-243.77535Z"/>
  <path class="cls-1" d="M430.1127,229.33199c.29123-.17828.66707-.1313.90545.11318.27425.28731.26119.74003-.02612,1.01428-10.53457,10.35175-35.51285,34.4768-49.46027,45.25515-1.92844,1.49748-15.03571,39.53079-25.3004,62.2846-8.70626,19.30178-22.3185,30.60251-57.65722,49.89558-24.43412,13.31622-40.60601,63.46866-63.55572,82.30464-.34583.27586-.84979.21913-1.12564-.1267-.18364-.23022-.22614-.54266-.11065-.81357l50.936-114.5178c-5.32823-.49191-19.45849-13.11599-35.29084-28.93526-.08792-.09287-.12094-.22493-.08706-.34825.0567-.19097.25727-.30002.44837-.24377l71.08664,23.31102c.02612.00435.05659,0,.07835-.01306.05223-.03047.074-.09577.04353-.14801l-4.84504-8.18388c-.37633-.63296-.96828-1.109-1.66725-1.34077l-76.40616-25.05227c-.43063-.14312-.82038-.38801-1.13617-.71391-2.56835-2.66411-5.11058-5.33259-7.63104-8.00105-.07725-.07574-.07847-.19977-.00273-.27702.05509-.05619.13847-.07395.21168-.04511l81.16413,26.62375c.05834.02243.12383-.00668.14626-.06503.0121-.03145.00955-.06666-.00696-.09604l-4.94951-8.44508c-.27559-.46464-.71504-.80937-1.23194-.9664l-84.725-27.78603c-.87615-.28735-1.66433-.79382-2.28975-1.47136-2.21336-2.39445-4.4175-4.79741-6.61241-7.20879-.07221-.06652-.09331-.17201-.05224-.26119.05224-.12189.19154-.17413.30907-.12189l89.16083,29.27045c.03144.01284.06715.00958.09577-.00871.05199-.03192.06932-.09931.03918-.15236l-4.94516-8.41896c-.27681-.47568-.71569-.83575-1.23629-1.01428l-91.39834-29.97566-1.58019-.54414c-.55272-.18924-1.04743-.51755-1.43653-.95334-3.34767-3.70962-6.6735-7.43888-9.97738-11.18755-.12196-.14304-.16146-.33889-.10448-.51802.09028-.27654.38765-.42754.66419-.33726.00207.00068.00413.00136.0062.00207,15.67998,5.16717,126.02315,41.58981,134.67282,44.35405,0,0-14.24344-42.66069,50.53986-42.66069,2.04598,0,39.63961-24.02928,54.34449-33.47558h-.00437ZM859.68837,306.30841c24.70403,0,38.40335,15.74092,38.40335,36.21805,0,29.79719-19.78497,50.69657-48.224,50.69657-24.73014,0-38.40767-15.74093-38.40767-36.21805,0-29.92343,19.78497-50.69657,48.22832-50.69657ZM1058.93991,308.02789c.68503-.01513,1.25261.52793,1.26776,1.21295.00226.10301-.0083.2059-.03148.3063l-2.19835,12.18876c-.08715.61479-.61535,1.07048-1.23627,1.06652h-39.68313c-.61428.02155-1.12973.46987-1.23627,1.07522l-2.97757,16.89015c-.15716.66692.25606,1.33497.92295,1.49215.11398.02687.23122.03745.34819.03145h36.04392c.68503-.01513,1.25261.52793,1.26776,1.21295.00226.10301-.0083.2059-.03148.3063l-2.15916,12.167c-.08914.61547-.6188,1.07077-1.24066,1.06652h-36.99723c-.61428.02155-1.12973.46987-1.23627,1.07522l-2.94269,17.03815c-.14925.66874.27187,1.33184.94062,1.48109.09844.02199.1992.03187.30003.02944h39.92259c.6825-.02061,1.25242.51594,1.27307,1.19841.00325.10789-.00764.21576-.03241.32083l-2.20267,12.36289c-.08715.61478-.61535,1.07046-1.23627,1.06651h-59.28092c-.6825.01875-1.25102-.51935-1.26975-1.20188-.00299-.10824.0083-.21639.03348-.32171l14.32177-81.00306c.08549-.61502.61541-1.07027,1.23627-1.06216h58.1142ZM927.84534,308.00177c.63992,0,1.17536.48755,1.23627,1.12746l8.38411,63.54266c-.1446.67714.28715,1.34327.96427,1.48784.67719.14459,1.34328-.28715,1.48789-.96429.00897-.0421.01581-.08462.02039-.12742l31.42961-64.29575c.21641-.44593.66663-.7309,1.16228-.73568h17.39944c.6831-.05311,1.27998.45762,1.33305,1.14074.02099.26947-.04663.53841-.19256.76593l-42.94798,80.96824c-.21461.42787-.65766.69268-1.13617.67908h-22.97583c-.63919.02758-1.19237-.44035-1.27115-1.07523l-14.0867-81.00306c-.14919-.66874.27194-1.33182.94069-1.48103.09698-.02164.19622-.03154.29558-.02951h17.9568ZM743.51199,307.92777c.68778,0,1.24066.55285,1.24066,1.23629l3.91779,56.70824c.08741.71594.73863,1.22548,1.45454,1.1381.44125-.05386.82485-.32851,1.01801-.72891l23.2457-57.47439c.19083-.51257.69479-.8397,1.24066-.80533h29.20516c.6825-.01875,1.25102.51935,1.26975,1.20188.00299.10825-.0083.21642-.03348.32172l-14.33054,81.00306c-.08755.61571-.6188,1.07055-1.24066,1.06216h-16.38083c-.68503.01513-1.25261-.52793-1.26776-1.21296-.00226-.10301.0083-.20588.03148-.30628l9.3505-51.93286c.20558-.68399-.18227-1.40511-.8663-1.61066-.68396-.20555-1.40506.18229-1.61064.86628l-22.94102,53.38244c-.19641.5009-.69519.81636-1.23196.77921h-20.21593c-.6835.00002-1.23827-.55279-1.24066-1.23629l-4.09195-53.38245c.03364-.70682-.51206-1.3071-1.21887-1.34076s-1.30712.51205-1.34076,1.21887h0l-9.31135,53.63058c-.08153.61849-.61249,1.0784-1.23627,1.07086h-16.346c-.71605-.02361-1.27739-.62325-1.25374-1.3393,0-.00048,0-.00098.00003-.00146l.0174-.17848,14.33051-81.00742c.08911-.61306.61678-1.06642,1.23627-1.06216h28.60024ZM521.58068,308.00177c.62451-.00531,1.15494.456,1.23627,1.07522l14.07368,80.98129c.14673.67176-.27885,1.33528-.95062,1.48201-.09379.02049-.18964.03007-.28565.02853h-17.93056c-.62611-.02674-1.14494-.49444-1.23627-1.1144l-3.06897-21.40435c-.0905-.61833-.61163-1.08259-1.23627-1.10134h-18.47032c-1.00253.00549-1.81967-.80276-1.82519-1.80529-.00156-.28601.0645-.56835.19276-.824l5.59814-11.27026c.31339-.6134.94361-.99992,1.63242-1.00122h10.20375l.13929-.01306c.70804-.10534,1.19815-.76269,1.09698-1.47136l-3.2039-22.25756c.10734-.682-.35503-1.32309-1.03604-1.43653-.68489-.10701-1.32731.3602-1.43654,1.04475l-8.44509,16.75085-.9664,1.95455-1.78042,3.5478v.06529l-18.4834,37.16703-1.23627,2.47258c-.20605.44676-.65736.72885-1.14923.71827h-17.39947c-.71644.00096-1.29802-.57903-1.29899-1.29547-.00028-.21146.05113-.4198.14977-.60685l42.96542-81.00742c.21767-.43531.67038-.6965,1.15358-.67909l22.99755.00002ZM676.54344,308.00177c.61379.02176,1.13182.47014,1.23627,1.07522l14.00839,81.00742c.15168.66326-.26304,1.32389-.92631,1.47557-.1002.02292-.20286.03321-.30561.03062h-17.94361c-.63713.00536-1.17327-.47601-1.23627-1.11005l-3.08202-21.4087c-.06928-.62886-.60362-1.10302-1.23627-1.09699h-18.54435c-1.00495-.00186-1.81811-.81803-1.81625-1.82297.00056-.29137.07104-.57835.20558-.8368l5.60249-11.2659c.30472-.60944.93156-1.00122,1.61937-1.00122h10.20375l.13929-.01306c.70804-.10534,1.19815-.76269,1.09698-1.47136l-3.2039-22.25756c.1082-.68399-.35859-1.32617-1.04258-1.43436-.68396-.10819-1.32615.35859-1.43435,1.04258h0l-6.88231,13.77331-1.71947,3.44768-2.47258,5.05834v.08706l-16.96852,34.12855-2.71636,5.46318c-.20701.45201-.6654.73531-1.16228.71827h-17.39947c-.67765.06084-1.27633-.43916-1.33717-1.11681-.02484-.27652.04447-.55331.19665-.78551l42.96107-81.00742c.22973-.41984.67064-.68039,1.14923-.67909l23.01063-.00002ZM576.21249,308.00177c.68253-.01875,1.25102.51935,1.26975,1.20188.00299.10825-.00827.21642-.03348.32172l-11.44872,64.55694c-.15892.66156.24852,1.32669.91007,1.48563.10535.02531.21355.0366.32186.03361h39.43501c.68034-.05781,1.27872.44686,1.33651,1.12721.02331.2744-.04567.54872-.19598.77946l-7.11303,13.40764c-.20382.40241-.6113.66125-1.06218.67473h-54.01361c-.68253.01817-1.25059-.52041-1.26876-1.20295-.00282-.10639.00807-.2127.03248-.31629l14.32181-81.00742c.08911-.61306.61678-1.06642,1.23627-1.06216h16.272ZM421.18878,308.00177c.68252-.01876,1.25102.51933,1.26979,1.20186.00297.10825-.00829.21642-.03349.32174l-11.32685,64.55694c-.15651.6646.25538,1.33025.91998,1.48676.1036.02439.20991.03532.31631.03248h39.43502c.67774-.05998,1.27576.4408,1.33574,1.11854.02458.27772-.04578.55557-.19957.78813l-7.11301,13.40764c-.21461.42111-.65054.683-1.12311.67473h-53.99625c-.68503.01513-1.25261-.52792-1.26774-1.21294-.00228-.10301.00829-.2059.03145-.3063l14.24779-81.00742c.08911-.61306.61681-1.06643,1.23629-1.06216h16.272-.00435ZM858.587,320.35596c-18.41373,0-27.0068,19.78498-27.0068,36.23111,0,13.31624,6.77786,22.65369,19.3758,22.65369,18.30054,0,27.01989-19.75016,27.01989-36.23111,0-13.44247-6.79087-22.6537-19.38882-22.6537h-.00007Z"/>
</svg>