<?xml version="1.0" encoding="UTF-8"?>
<svg id="LOGO" xmlns="http://www.w3.org/2000/svg" xmlns:xlink="http://www.w3.org/1999/xlink" viewBox="0 0 1250 703">
  <defs>
    <style>
      .cls-1 {
        fill: none;
      }

      .cls-2 {
        clip-path: url(#clippath);
      }

      .cls-3 {
        fill: #bd081c;
      }
    </style>
    <clipPath id="clippath">
      <rect class="cls-1" x="212.22544" y="257.98465" width="826.11267" height="209.02148"/>
    </clipPath>
  </defs>
  <g id="g10">
    <g id="g12">
      <g id="g14">
        <g class="cls-2">
          <g id="g16">
            <path id="path22" class="cls-3" d="M644.12132,357.50087c8.7478,0,11.78369,5.30667,11.78369,11.63678,0,10.72413-8.31314,17.26091-21.31812,17.26091-4.65721,0-11.13973-1.10784-14.99829-2.38488,1.61464-9.85602,7.94114-26.51267,24.53272-26.51267M832.06327,357.50101c7.9998,0,11.78903,5.30667,11.78903,11.63678,0,10.72413-8.29979,17.26091-21.29283,17.26091-4.6799,0-11.16639-1.10784-14.99963-2.38488,1.60393-9.85602,8.74509-26.51268,24.50336-26.51268M1010.23206,358.39538h20.04084c2.75058,0,4.36526-1.11144,4.96524-3.66658.89868-3.69884,2.50124-10.14135,2.96529-11.89344.58931-2.30141-.74933-4.06083-3.29061-4.06083h-19.79417c1.42262-5.65959,6.97847-24.0834,6.97847-36.0791,0-23.95274-20.34884-44.32557-49.2321-44.32557-32.58851,0-53.812,21.87146-53.812,52.66135,0,8.98778,3.35057,19.44086,7.5198,25.95535-1.73329-.12293-3.52524-.18066-5.3705-.18066-24.77536,0-40.38167,13.45033-40.38167,33.01251,0,18.35421,14.47698,25.48069,28.08999,30.23258,12.0997,4.21349,23.23672,6.18265,23.23672,15.62894,0,6.37064-6.12387,10.11335-18.11153,10.11335-14.24229,0-22.07809-6.7041-24.05409-9.24404,1.33864-1.06091,3.33592-3.59058,3.33592-7.79727,0-5.87692-4.11455-10.67266-11.78773-10.67266-6.49984,0-11.98772,5.29573-13.3703,12.25809-10.41309,8.52792-21.79145,14.06232-37.90973,14.06232-15.91829,0-24.16339-8.27833-24.16339-25.85402,3.73194,1.12917,13.43964,2.4974,19.84885,2.4974,26.9033,0,45.2322-12.22262,45.2322-36.71508,0-13.16007-11.55303-26.97932-34.41646-26.97932h-.06536c-30.06989,0-46.88952,19.04485-54.25867,39.995-2.05997-.50372-4.12255-.98491-6.19985-1.4485,1.65732-4.63935,2.84791-10.03255,2.84791-15.9796,0-10.36587-6.40915-22.56744-23.55807-22.56744-11.94505,0-23.27676,7.81074-31.12722,19.53818,1.94663-7.64768,3.23993-12.72942,3.34126-13.05847.49598-2.00515-.344-4.24216-3.45323-4.24216h-17.6049c-2.4906,0-4.27857.87611-5.00254,3.7531-.46666,1.88955-6.50785,25.60736-12.41037,48.71345-3.6879,14.40497-22.86343,32.34719-46.99082,32.34719-15.8996,0-24.11938-8.81325-24.11938-26.40467,4.15455,1.64009,13.42099,3.04846,19.80484,3.04846,28.0033,0,45.25352-12.22263,45.25352-36.71508,0-13.16007-11.55303-26.97932-34.40181-26.97932h-.06933c-33.84847,0-54.58796,26.30201-58.11987,56.11994-1.46263,12.39609-11.91969,29.40727-23.26208,29.40727-5.52385,0-8.61046-3.46031-8.61046-9.36017,0-5.08481,3.57859-17.51823,7.51316-33.13251,1.31465-5.20453,3.30526-13.16007,5.51985-21.98745h18.43421c2.72125,0,4.32789-1.11144,4.94789-3.66658.8853-3.69884,2.49326-10.14135,2.95325-11.89344.60799-2.30141-.73865-4.06084-3.30125-4.06084h-18.13288s8.33446-33.25117,8.53445-34.10582c.81333-3.38392-2.02394-5.33187-4.97722-4.70522,0,0-13.99164,2.73193-16.59825,3.28258-2.59593.51332-4.62254,1.95462-5.58121,5.72253-.11601.46666-7.41316,29.80592-7.41316,29.80592h-14.51298c-2.75459,0-4.34791,1.12971-4.95853,3.68844-.89731,3.68071-2.52259,10.13055-2.97593,11.8825-.59999,2.30207.74933,4.0499,3.30793,4.0499h14.2503c-.09733.42346-5.13988,19.61417-9.22243,36.80575-1.91463,8.28112-8.35311,27.61931-18.89686,27.61931-6.2905,0-8.94646-3.18179-8.94646-9.99362,0-10.72733,10.54909-37.58707,10.54909-49.76275,0-16.27693-8.72511-25.71669-26.61932-25.71669-11.28906,0-22.96876,7.28942-27.9313,13.68099,0,0,1.49863-5.21907,2.03328-7.24568.53332-2.12848-.61465-4.19883-3.39458-4.19883h-17.4889c-3.73858,0-4.75188,1.98328-5.29186,4.16603-.23066.88651-6.52516,25.63669-12.56635,49.39344-4.15457,16.27293-14.19831,29.86726-24.94471,29.86726-5.54519,0-7.9958-3.47445-7.9958-9.38097,0-5.08534,3.27192-17.63423,7.21448-33.2485,4.77322-18.96886,8.97178-34.5938,9.43176-36.43643.58666-2.34154-.45998-4.36136-3.46791-4.36136h-17.59689c-3.18125,0-4.34389,1.65783-5.00254,3.98843,0,0-4.95853,18.7302-10.20241,39.61768-3.79724,15.15029-8.00247,30.58724-8.00247,37.82305,0,12.95061,5.79719,22.69277,21.78079,22.69277,12.31302,0,22.07546-6.25451,29.5166-14.22365-1.08931,4.32123-1.78796,7.05342-1.86795,7.31862-.63732,2.47594.13466,4.63575,3.04792,4.63575h18.00355c3.13059,0,4.33189-1.24783,4.98655-3.9847.62266-2.599,14.07698-55.50662,14.07698-55.50662,3.56391-14.21698,12.34103-23.62741,24.73005-23.62741,5.85718,0,10.9424,3.89417,10.34108,11.42318-.65464,8.317-10.64773,38.15638-10.64773,51.24405,0,9.90229,3.66257,22.7221,22.3061,22.7221,12.72901,0,22.09945-6.09878,28.88994-13.95565,2.48262,8.35286,9.09577,13.95565,21.20214,13.95565,20.12482,0,32.26052-11.94397,39.37236-23.9234,5.93185,13.92632,19.78352,23.9234,40.103,23.9234,20.70349,0,36.72975-8.72685,48.08415-20.59416-2.04129,7.9982-3.42524,13.43566-3.54793,13.88765-.65063,2.49314.44533,4.47696,3.3839,4.47696h17.82621c2.42526,0,4.17324-1.2521,4.79988-3.83324.31067-1.2453,2.89459-11.20226,6.54251-25.34203,6.95315-27.04866,18.12621-55.11996,34.91381-55.11996,5.92785,0,8.36779,3.30085,8.36779,8.53099,0,2.45048-.71333,4.56402-1.34665,5.72959-8.1358-1.62502-14.68362,2.38114-14.68362,11.08253,0,5.66813,5.96518,10.81533,14.00365,10.81533,6.1492,0,11.23839-1.49836,15.28764-4.23536,3.77855.78545,7.83978,1.66142,11.93304,2.5994-.62134,4.06763-.93728,8.07073-.93728,11.8425,0,21.72746,16.31294,40.16033,44.0989,40.16033,21.79281,0,35.74175-7.30822,48.83745-18.18355,6.20649,10.14921,21.88214,18.34354,42.4296,18.34354,28.14461,0,44.13223-14.65163,44.13223-33.99382,0-17.52489-14.38766-23.9714-29.22329-29.33127-12.05302-4.35043-22.11143-6.72116-22.11143-15.24229,0-6.99929,5.50917-10.18095,14.92632-10.18095,6.11319,0,10.68105,1.30304,13.15703,1.99062,2.43197,6.09518,7.4558,12.82728,16.03827,12.82728,7.26382,0,10.52376-5.73319,10.52376-11.03199,0-15.07162-25.08472-16.64225-25.08472-48.9681,0-20.0835,11.35707-36.64575,34.91911-36.64575,16.35962,0,27.05531,10.36908,27.05531,27.10199,0,13.80765-8.38644,38.38037-8.38644,38.38037h-14.23168c-2.72929,0-4.34253,1.12971-4.96524,3.68844-.89731,3.68071-2.50528,10.13055-2.9759,11.88251-.58534,2.30207.73865,4.0499,3.32257,4.0499h13.88767s-14.36097,52.98801-14.36097,62.61977c0,12.95061,7.29318,22.6781,23.25411,22.6781,22.60744,0,36.72975-14.66497,42.87491-36.0271.46001-1.65716-.46268-2.98939-2.14526-2.98939h-8.61046c-1.71994,0-2.73327.96918-3.15728,2.64513-1.9493,7.58261-6.77047,15.55294-16.2716,15.55294-5.52389,0-8.61443-3.46031-8.61443-9.36017,0-5.08481,3.37322-17.00758,7.52117-33.1325,1.96792-7.66954,5.48652-21.98746,5.48652-21.98746"/>
            <path id="path24" class="cls-3" d="M421.36688,311.83667c-.63332,9.30909-8.42512,16.86358-17.4049,16.86358-8.97312,0-15.74894-7.55448-15.10761-16.86358.65199-9.29443,8.43312-16.83692,17.39156-16.83692,8.99711,0,15.7476,7.54247,15.12096,16.83692"/>
            <path id="path26" class="cls-3" d="M295.97134,257.9847c-54.70663,0-83.74591,36.70576-83.74591,76.71809,0,18.5782,9.88829,41.72429,25.72336,49.08944,2.41034,1.12184,3.68418.62958,4.23056-1.68649.42399-1.76662,2.57034-10.36214,3.52551-14.37564.31506-1.28117.15933-2.38167-.88651-3.64831-5.21187-6.32691-9.4107-18.02488-9.4107-28.91261,0-27.94863,21.16614-54.99329,57.21991-54.99329,31.15522,0,52.94135,21.20614,52.94135,51.55472,0,34.2938-17.29023,58.04122-39.83234,58.04122-12.44716,0-21.76345-10.27201-18.7782-22.91409,3.58684-15.05696,10.50387-31.33255,10.50387-42.18427,0-9.75042-5.22694-17.86622-16.04227-17.86622-12.71475,0-22.93943,13.161-22.93943,30.7939,0,11.22372,3.80044,18.8062,3.80044,18.8062,0,0-12.55595,53.12534-14.8503,63.01309-3.91457,16.78091.51199,43.96957.90264,46.34418.19866,1.27463,1.61462,1.70529,2.4146.6335,1.23464-1.64676,16.37693-24.35539,20.65949-40.77631,1.51996-5.92519,7.8758-30.13125,7.8758-30.13125,4.15456,7.8838,16.20759,14.5503,29.0526,14.5503,38.22438,0,65.78236-35.16978,65.78236-78.83803,0-41.88295-34.16982-73.21684-78.14605-73.21684"/>
          </g>
        </g>
      </g>
    </g>
  </g>
</svg>