<?xml version="1.0" encoding="UTF-8"?>
<svg id="LOGO" xmlns="http://www.w3.org/2000/svg" viewBox="0 0 1250 703">
  <path d="M456.56958,377.56369v-26.56425c0-5.22378,1.17222-6.62255,6.36716-7.79848,4.44763-1.0027,6.72895-3.50311,7.15386-7.84796.38662-3.9117,2.39742-5.70653,6.48325-5.70653,14.61771,0,29.23428-.0124,43.83847,0,3.95736,0,6.08424,1.98059,6.23979,5.63225.18034,4.65425,2.91248,7.46417,7.86172,8.09548,4.83425.6313,5.95574,2.07966,5.86555,7.66232-.06422,3.84971-1.83045,5.57038-6.16198,6.01593-3.96975.40859-7.41088,3.28039-7.51455,6.27596-.11612,3.31747,3.1458,6.63483,7.14148,7.26614,5.55559.87893,6.53505,1.98058,6.53505,7.39v16.95899c0,4.01032-2.10095,6.02788-6.25217,6.06507h-1.79099c-3.81534-.06199-5.83965-1.98036-5.85203-5.63226-.02594-8.69015,0-7.52582,0-16.21586,0-5.18659-3.06806-8.44208-8.45572-8.47927-12.90335-.09907-25.80557-.09907-38.72133,0-5.50376.03719-8.67549,3.29268-8.70029,8.55354-.02594,8.44219-.03945,7.03102.01238,15.48561.01242,2.58675-.58045,5.02586-3.26075,5.83063-2.88771.87803-6.27811,1.43596-8.75216-.75517-1.22519-1.08994-1.8947-3.29347-1.93415-5.00107-.18034-9.01138-.09016-8.18294-.09016-17.20627l-.01242-.0248ZM498.15155,343.32472c-6.2251,0-12.46375-.0248-18.69003.02479-1.35367,0-2.75807.12376-4.03397.51984-5.05291,1.58452-6.43252,7.13009-2.80994,10.83124,1.99727,2.04247,4.575,2.38906,7.26998,2.38906,12.20564,0,24.41245.0124,36.61922-.0124,1.26351,0,2.59128-.09907,3.79054-.44566,3.10638-.87882,5.32341-2.83461,5.72242-5.96645.34827-2.77273-1.26351-4.96376-3.76347-6.17688-1.53401-.74266-3.41633-1.07686-5.1431-1.11405-6.31639-.12376-12.63172-.04948-18.94811-.04948h-.01355Z"/>
  <path d="M724.8507,401.16866h-21.78402c-4.25376,0-5.878-1.39876-6.40662-5.39668-.67061-5.13744-3.04209-7.41537-8.51994-8.18182-3.2743-.45874-5.07881-2.26553-5.09123-5.43501-.03945-14.3463-.03945-18.8397,0-33.18646,0-3.24309,1.70084-4.97616,5.0394-5.44651,5.56801-.77985,7.90117-3.06984,8.59772-8.42978.46436-3.65167,2.42335-5.33515,6.30294-5.33515,14.61771-.0124,29.22186-.0124,43.83847,0,3.96971,0,6.1485,1.98059,6.29049,5.59517.19276,4.70373,2.86178,7.61274,7.7986,8.09548,2.49999.24763,4.74296.91601,5.45189,3.30507.81267,2.74805,1.22523,5.76841-.68299,8.29363-2.39742,3.18121-5.85206,2.03007-8.94602,1.38637-2.52592-.51995-3.69928-2.37667-3.89197-4.87708-.40018-5.26086-3.45465-8.05851-8.93247-8.07079-12.90335-.04959-25.8056-.04959-38.70895,0-4.85909.02469-8.36554,2.97077-8.18523,6.67192.18038,3.63938,3.06802,6.56067,6.9093,6.61015,9.21652.12375,18.41949.16095,27.63601.09907,4.40821-.0372,7.14038,2.01767,7.24405,5.84269.15444,5.81789-1.53398,7.76128-6.79317,7.77368-9.06208.0124-18.11067,0-27.17165,0-4.93682,0-7.78622,2.68606-7.83692,7.43949-.05187,4.09778-.02594-1.6588,0,2.43865,0,3.39153,2.21704,6.16426,5.6582,6.93183,1.31535.29756,2.70733.38323,4.061.38323,11.87095.02479,23.75532.03719,35.62738,0,7.05019,0,9.70572-2.3016,10.53077-8.96157.36069-2.8594,2.25536-4.57997,5.25919-4.71612,1.27586-.04959,2.56534-.07428,3.8412.03708.74731.06188,1.53405.27231,2.17872.61891,2.39742,1.25021,3.33749,4.60487,2.51354,8.66535-.50268,2.46278-2.30723,4.05992-5.23326,4.23349-3.31376.19724-6.01999,1.36157-7.56642,4.23349-.55455,1.02682-.68416,2.35119-.73486,3.54031-.18038,4.01032-2.01079,5.80471-6.25217,5.81711-7.34662.02479-14.69441,0-22.04097,0v.02479Z"/>
  <path d="M670.75083,377.07902v17.94905c0,4.30788-1.8947,6.08987-6.39306,6.12707h-1.03133c-4.84667-.0124-6.49677-1.55995-6.51029-6.17666-.01242-14.51966,0-19.17447,0-33.69445,0-3.19361.2457-6.42441-.12851-9.58093-.24456-2.07955-.88931-4.5182-2.28129-6.00353-3.63499-3.92409-9.61553-2.38906-11.30509,2.64898-.33475,1.00258-.19273,2.1909-.66951,3.10693-.82505,1.6092-1.61182,3.55271-3.02974,4.5182-2.82232,1.90631-4.07228,4.17161-4.04752,7.41469.07777,9.27152.03945,8.67741.02594,17.94849,0,4.48146-2.01079,6.31304-6.80559,6.32544-5.0394.01239-7.10202-1.76959-7.11554-6.27585-.02594-9.27119-.06425-8.67708.0259-17.94849.02594-3.35466-1.26238-5.68174-4.20193-7.58805-1.35367-.87893-2.11336-2.76044-2.84826-4.32017-.7608-1.6092-.90282-3.5031-1.79213-5.02564-1.4303-2.46333-3.98326-3.45362-6.79321-2.93369-2.79639.53223-4.65277,2.42615-5.32341,5.09992-.37307,1.49783-.43846,3.08224-.43846,4.62956-.02477,17.0576-.03832,24.26186,0,41.31902,0,2.4143-.07664,5.17465-2.70623,5.79343-2.73327.65599-5.89035.47001-8.66197-.16118-1.135-.25924-2.42332-2.68595-2.43683-4.1343-.15441-19.27298-.12851-28.69306-.07664-47.95408,0-2.93369,2.08743-4.74092,5.87796-5.50838,5.58039-1.12645,7.07609-2.58709,8.11984-7.94704.73486-3.77542,2.96545-5.09991,8.32722-4.92667,3.50648.11147,5.42709,1.95591,5.81371,5.58277.47678,4.44392,2.71975,7.20426,6.74133,7.89745,1.71436.28471,3.5189.17335,5.27158.11147,3.10638-.09907,6.26459.03708,9.29316-.49515,4.39582-.76746,6.27811-3.09464,6.87098-7.45189.54103-3.92398,2.28133-5.57038,5.99406-5.64465,5.46434-.12376,7.43681,1.16364,8.23593,5.32286.95469,4.97615,3.21005,6.98142,8.49518,7.57565,3.65976.40847,5.47782,2.30238,5.4902,5.85497.02594,9.51905,0,19.0258,0,28.54484h.01355Z"/>
  <path d="M365.50672,377.71337v-27.0594c0-4.62956,1.43032-6.28835,6.11016-7.24145,4.5626-.92841,6.90816-3.41643,7.46271-7.88516.51622-4.18389,2.30723-5.74361,6.6895-5.75601,14.52753,0,29.06747-.01228,43.59389,0,3.95736,0,6.08424,1.94351,6.29049,5.63226.27053,4.74103,2.91251,7.46429,7.82454,8.09559,4.80718.6189,5.87683,2.00527,5.78667,7.46417-.07664,4.18401-1.59827,5.78081-5.89038,6.21408-4.92327.49515-7.51455,3.10693-7.72083,7.82316-.16793,3.86211-2.17872,5.71894-6.39306,5.73122-12.82558.0248-25.65116.26003-38.4632-.07416-8.62365-.22283-11.74355-5.64466-11.45951,1.05217.32237,7.61274.07665,15.25026.07665,22.87528,0,5.12504-1.52049,6.56101-6.88224,6.57341-5.3888,0-7.02539-1.48555-7.02539-6.48662v-16.95853ZM407.0639,343.4744c-6.14846,0-12.31048-.0248-18.45896.0248-1.35255,0-2.75807.09896-4.04752.47035-5.32341,1.54732-6.93408,7.19186-2.92601,10.80645,1.3796,1.23781,3.57074,2.27758,5.41472,2.30238,13.32716.19803,26.65543.13615,39.98373.07427,1.22516,0,2.52699-.45795,3.67441-.95309,2.61608-1.12646,4.31802-3.19372,4.34282-5.90457.02594-2.72325-1.72674-4.8276-4.31802-5.91697-1.43034-.6065-3.13228-.84173-4.71702-.86642-6.31643-.09907-12.64523-.03719-18.96166-.03719h.01352Z"/>
  <path d="M555.02528,370.16409v-33.92946c0-4.46872,2.07615-6.4616,6.69063-6.48639,5.40005-.02468,7.51455,1.73307,7.52693,6.42451.02594,22.8631.02594,35.87286,0,58.74824,0,4.59305-2.03559,6.27585-7.3342,6.26345-4.85905-.01239-6.85746-1.79438-6.86984-6.20145-.01352-11.56094,0-13.25727,0-24.81889h-.01352Z"/>
  <path d="M779.38559,401.25996l1.08317-3.55271c3.84127-.20964,6.65118-.84196,8.42979-1.88117,1.77861-1.04033,3.21118-3.41632,4.29325-7.10541l13.81742-46.39458c.50268-1.53492.76197-2.85941.76197-3.97346,0-1.88151-.65829-3.09464-1.96009-3.65167-1.30187-.55702-3.41633-.86653-6.31643-.94081l1.08317-3.55259h30.14955l-1.08207,3.55259c-4.13771.07428-6.93633.69329-8.38019,1.88163-1.45624,1.18833-2.6803,3.45352-3.69811,6.79579l-14.13979,47.5455c-.29644,1.04033-.4396,1.98036-.4396,2.82232,0,1.60954.68416,2.80993,2.06376,3.6023,1.3785.80477,3.77585,1.23759,7.17869,1.31198l-1.08207,3.55271h-31.77372l.01128-.0124Z"/>
  <path d="M858.38817,402.19435c-1.95892,0-3.53128-.54553-4.73051-1.62194-1.19812-1.0764-1.79099-2.59916-1.79099-4.54345,0-2.15281.87575-5.14872,2.61604-8.98659l7.83692-17.66378c1.3018-3.62698,1.96009-6.1274,1.96009-7.52617,0-2.15382-1.08317-3.24319-3.26195-3.24319-2.82229,0-6.16088,2.33958-10.01564,7.00622-3.8401,4.66676-7.39849,10.18754-10.65921,16.56223-3.26079,6.37504-6.01999,12.73767-8.27541,19.07551h-8.37792l11.31633-36.0586c.72248-2.30238,1.08317-3.97346,1.08317-5.01324s-.50268-1.57212-1.52049-1.57212c-1.88228,0-4.39576,2.71096-7.51565,8.14507l-3.47948-1.03978c4.93682-10.17514,10.29859-15.26277,16.09878-15.26277,1.88228,0,3.35208.48286,4.40821,1.46075,1.05723.9779,1.57347,2.36427,1.57347,4.1839,0,2.01767-.58049,4.481-1.74029,7.36521-1.16091,2.8966-3.7387,8.72689-7.72196,17.50327h1.52166c5.5815-11.07887,10.44058-18.92683,14.57822-23.56879,4.13771-4.62956,8.41741-6.94435,12.838-6.94435,2.9001,0,5.15662.6685,6.74137,1.98059,1.5994,1.32448,2.39852,3.24319,2.39852,5.74361,0,2.92141-.87692,6.23877-2.61721,9.92763l-8.27535,19.02557c-1.23761,2.64875-1.85642,4.39466-1.85642,5.22423,0,1.1136.54217,1.67041,1.63772,1.67041,1.88118,0,4.46008-2.74794,7.72086-8.2562l3.48058,1.04033c-4.86019,10.23657-10.19602,15.36161-15.99731,15.36161l.02587.0248Z"/>
  <path d="M901.0398,358.63009l-12.19436,30.93367c-.43733,1.04034-.65712,1.98037-.65712,2.82232,0,1.11474.54217,1.67153,1.63772,1.67153,2.61604,0,6.23862-3.09509,10.87901-9.29655l3.37801.94115c-5.87793,11.00414-12.25978,16.51242-19.15552,16.51242-1.74029,0-3.3002-.5196-4.67871-1.57234-1.3796-1.03922-2.06266-2.57436-2.06266-4.59192,0-2.22833.72248-5.01346,2.17989-8.35539l12.29583-29.0525h-10.33801l1.52049-5.01324h10.55781l3.69921-10.02658,10.77533-.84174-5.4395,10.86833h12.19553l-1.52276,5.01324h-13.05662l-.01355-.0124Z"/>
  <path d="M952.19221,358.93498c0,4.87708-3.10634,9.24673-9.30664,13.12123-6.1992,3.8621-14.08799,5.83029-23.6652,5.90457-.50268,2.43831-.7608,4.53026-.7608,6.27618,0,6.54748,3.08041,9.82855,9.25484,9.82855,5.00108,0,9.43522-3.07029,13.27642-9.19736l3.37691.94002c-.65712,1.67153-1.48218,3.38026-2.49999,5.12505-1.01891,1.74592-2.33316,3.55271-3.96978,5.43388-1.63765,1.8823-3.63496,3.41745-5.9816,4.59304-2.3591,1.18799-4.88502,1.78199-7.56642,1.78199-4.57613,0-8.18523-1.20039-10.8272-3.6023-2.65553-2.40079-3.96971-6.17666-3.96971-11.33777,0-5.16224,1.36605-10.69543,4.08584-16.40196,2.71972-5.70642,6.56099-10.62069,11.53613-14.73043,4.96276-4.10962,10.17008-6.16448,15.62314-6.16448,7.61712,0,11.42001,2.82232,11.42001,8.46687l-.02594-.03709ZM937.27924,355.90222c-3.11989,0-6.29049,1.79495-9.52651,5.38462-3.22247,3.58979-5.71,7.86036-7.45029,12.79944,6.38068-.69319,11.45949-2.51282,15.23651-5.43422,3.77702-2.92128,5.65813-5.91685,5.65813-8.98681,0-2.51282-1.3018-3.76303-3.91784-3.76303Z"/>
  <path d="M956.86418,402.19773c-2.10098,0-3.71276-.5568-4.84663-1.67153-1.12149-1.1136-1.68842-2.64875-1.68842-4.59191,0-2.36471.79912-5.74384,2.39735-10.13851l15.89254-45.14404c.94111-2.57481,1.12149-4.45632.5421-5.64465-.58042-1.18833-1.99834-1.84443-4.24131-1.98059l-4.24028-.30939.7597-2.9214,17.7376-2.71086h2.71972l-20.89464,59.35453c-1.16097,3.28106-1.74029,5.26143-1.74029,5.95461,0,1.1136.541,1.67153,1.63655,1.67153,2.75921,0,6.6388-3.86267,11.63987-11.59927l3.48058.94115c-3.41633,6.68386-6.56106,11.49895-9.46115,14.42046-2.9012,2.92152-6.13605,4.39467-9.68088,4.39467l-.01238-.0248Z"/>
  <path d="M985.37938,402.19773c-2.10098,0-3.71166-.5568-4.84553-1.67153-1.12149-1.1136-1.68959-2.64875-1.68959-4.59191,0-2.36471.79918-5.74384,2.39859-10.13851l15.89247-45.14404c.94118-2.57481,1.12149-4.45632.541-5.64465-.57932-1.18833-1.99724-1.84443-4.24021-1.98059l-4.24028-.30939.7597-2.9214,17.7365-2.71086h2.71972l-20.89464,59.35453c-1.15987,3.28106-1.73919,5.26143-1.73919,5.95461,0,1.1136.541,1.67153,1.63662,1.67153,2.75804,0,6.63873-3.86267,11.6398-11.59927l3.47948.94115c-3.41523,6.68386-6.55989,11.49895-9.46115,14.42046-2.9001,2.92152-6.13495,4.39467-9.67978,4.39467l-.01348-.0248Z"/>
  <path d="M1048.38355,358.93498c0,4.87708-3.10641,9.24673-9.30671,13.12123-6.2003,3.8621-14.08909,5.83029-23.6663,5.90457-.50268,2.43831-.7597,4.53026-.7597,6.27618,0,6.54748,3.08048,9.82855,9.25484,9.82855,5.00108,0,9.43522-3.07029,13.27649-9.19736l3.37684.94002c-.65712,1.67153-1.48218,3.38026-2.49999,5.12505-1.01891,1.74592-2.33316,3.55271-3.97088,5.43388-1.63655,1.8823-3.63496,3.41745-5.9805,4.59304-2.3591,1.18799-4.88495,1.78199-7.56642,1.78199-4.57613,0-8.18516-1.20039-10.8272-3.6023-2.65546-2.40079-3.97081-6.17666-3.97081-11.33777,0-5.16224,1.36715-10.69543,4.08694-16.40196,2.71979-5.70642,6.56099-10.62069,11.53613-14.73043,4.96276-4.10962,10.17008-6.16448,15.62197-6.16448,7.61829,0,11.42124,2.82232,11.42124,8.46687l-.02594-.03709ZM1033.46941,355.90222c-3.11879,0-6.28939,1.79495-9.52541,5.38462-3.2224,3.58979-5.71,7.86036-7.45029,12.79944,6.38068-.69319,11.45949-2.51282,15.23541-5.43422,3.77702-2.92128,5.6593-5.91685,5.6593-8.98681,0-2.51282-1.30187-3.76303-3.91901-3.76303Z"/>
  <path d="M1060.90365,402.71508c-4.35634,0-7.82337-1.20152-10.38871-3.6023-2.57773-2.4019-3.86721-6.15186-3.86721-11.23971s1.30187-10.6952,3.91908-16.40173c2.61604-5.70643,6.32881-10.64549,11.14951-14.79231,4.8207-4.14681,9.92552-6.21396,15.28721-6.21396,3.77702,0,6.74137.90361,8.92009,2.71085s3.26079,4.03534,3.26079,6.68442c0,2.15383-.59287,3.89919-1.79209,5.22368-1.19819,1.32448-2.80998,1.98058-4.84553,1.98058-3.04216,0-4.78245-1.36168-5.22087-4.07253-.07774-.48275-.10367-1.74536-.10367-3.76303,0-2.01778-.25702-3.51551-.7597-4.49341-5.51731.07428-10.37633,3.39164-14.57829,9.97711-4.20306,6.58535-6.31643,13.1459-6.31643,19.69441,0,6.54748,2.9001,9.61777,8.70029,9.61777,4.93682,0,9.32026-3.09509,13.17392-9.29655l3.37684.94115c-.72138,1.7448-1.57236,3.46592-2.55179,5.17465-.97949,1.7076-2.26891,3.51551-3.86721,5.43388-1.59823,1.91837-3.5707,3.46591-5.9298,4.65391-2.35793,1.18912-4.88495,1.78312-7.56642,1.78312Z"/>
  <path d="M1110.40823,358.63009l-12.19442,30.93367c-.43733,1.04034-.65712,1.98037-.65712,2.82232,0,1.11474.54217,1.67153,1.63772,1.67153,2.61611,0,6.23869-3.09509,10.87908-9.29655l3.37684.94115c-5.87793,11.00414-12.25861,16.51242-19.15435,16.51242-1.74029,0-3.30027-.5196-4.67871-1.57234-1.3796-1.03922-2.06266-2.57436-2.06266-4.59192,0-2.22833.72138-5.01346,2.17872-8.35539l12.297-29.0525h-10.33801l1.52049-5.01324h10.55664l3.70038-10.02658,10.77533-.84174-5.4395,10.86833h12.19436l-1.52159,5.01324h-13.05779l-.01238-.0124Z"/>
  <path d="M266.88872,343.43698c-.22092.00756-.49369.01691-.84985.01691l-.02029-.02828c-1.00089.22677-2.24524.14517-3.51777.06154-3.77361-.24775-7.79859-.51217-6.46408,7.2064.29757,1.70016-1.76396,2.1181-3.13116,2.18888-3.88183.21257-7.77718.29756-11.66689.21968-.73601-.01218-1.48893-.63164-2.1686-1.1916-.11722-.09682-.23332-.19194-.34603-.28189-.1206-.09918.3325-1.38129.56694-1.39549,3.79392-.22148,5.17014-2.79438,6.54185-5.3596.69093-1.29079,1.38074-2.57955,2.37599-3.56601,9.01139-8.93271,18.21325-17.69534,28.73948-24.89249,1.02683-.7013,2.28131-1.3459,3.13116-.12748.65487.94126.04171,1.4745-.58723,2.02195-.27502.23951-.55342.48173-.73037.76194-.63569,1.00855-1.76396,1.75189-2.88433,2.49106-2.2024,1.45163-4.38114,2.88748-2.76146,6.28576,1.4044,2.94237.14765,3.46445-1.78423,4.26697l-.07891.03291c-.82619.34648-1.67265.66117-2.51688.97564-1.79889.66929-3.5944,1.33779-5.20395,2.31129-1.61517.97756-2.38725,2.88308.25475,4.00941,5.77314,2.45804,20.71998-1.46639,23.63811-6.87841,2.72765-5.06395,6.80334-8.82,10.87564-12.57321,2.28581-2.10604,4.57051-4.21118,6.61511-6.54602,4.40932-5.02981,9.57157-9.399,14.73607-13.77056,2.5676-2.1731,5.13631-4.34677,7.61262-6.60249,1.86314-1.70005,2.63522-3.93852,1.17673-6.38247-1.45287-2.42975-3.91789-2.7556-6.23415-2.21018-15.26582,3.59148-30.01427,8.43689-43.11262,17.48287-20.91159,14.44391-41.85813,28.83823-62.97474,42.97747-7.19716,4.8241-11.55373,2.46514-13.95507-5.88665-5.33413-18.54541-13.1547-34.71777-35.62455-37.23251-8.21011-.92086-14.23133,4.22199-13.04131,12.38251.60211,4.13689.0567,8.03303-1.93381,11.91497-.4389.85707-.88198,1.71448-1.3255,2.57278-3.065,5.93117-6.15648,11.91329-8.07474,18.22531-.1605.52795-.34434,1.08339-.53381,1.65609-1.71019,5.16777-3.88431,11.73723,6.49124,12.10073.42504.01409,1.23973,1.08374,1.14054,1.48048-.22667.94216-.68721,2.06141-1.4239,2.60682-9.94566,7.33174-18.12037,16.20742-21.63397,28.2147-1.77804,6.06394-.60211,12.36121,4.57614,17.05795,3.70487,3.35771,8.43689,5.30538,12.58798,2.47969,3.78636-2.57774,7.9414-4.30676,12.08788-6.03239,3.64986-1.51937,7.29308-3.03535,10.67243-5.12505.81457-.50382,1.80408-.96482,2.80531-1.43145,2.7689-1.2883,5.62797-2.62057,5.12854-5.02924-.78628-3.77475-4.77451-7.27448-8.09683-10.02355-3.29392-2.72652-11.68831-21.03861-10.68945-25.43768,1.39865-6.16031,4.54762-11.49388,7.69974-16.83263,2.69079-4.55754,5.38384-9.11892,6.99213-14.20158.6658-2.09679,3.21603-3.24432,5.67407-2.40844,1.66826.56525,1.38434,2.09657,1.1198,3.52318-.00721.03945-.01454.07867-.02175.1179-.99661,5.48325-1.97416,10.97292-2.95183,16.46248-.48872,2.74422-.97744,5.48832-1.46853,8.23164-.31165,1.75685.23376,3.15945,2.0543,3.5136,3.50649.68709,3.42861,2.26688,1.84894,4.97998-1.67885,2.87598-1.91262,6.38957-.03539,9.04599,1.88422,2.67062,5.03657,3.23023,8.23839,1.62927,1.99761-.99177,3.54899-.1063,3.5278,1.90552-.1276,10.74671,4.37066,8.32338,9.84647,3.63408.5036-.43168,1.1899-.67053,1.85277-.90125.12026-.04193.23985-.08352.35741-.1259.51949-.18541,1.03954-.36992,1.55949-.55443,10.30758-3.6573,20.60174-7.30976,26.42099-17.8635.44972-.82438,1.92513-1.22383,3.07367-1.53447.06537-.0177.12962-.03517.19274-.0523,6.65456-1.80848,13.44888-1.83542,20.2387-1.86246,5.09913-.02029,10.19486-.04047,15.22974-.81526,4.96613-.76509,10.37746-3.66237,10.4203-8.45807.03945-3.8665-2.92039-3.6262-5.87685-3.38612-1.27928.10392-2.55858.20773-3.5944-.02119-.20965-.04373-.43057-.03618-.78673-.02401Z"/>
  <path d="M188.66981,397.58101c-1.23262,8.20323,1.89842,15.22298,14.71307,15.13169h-.0071c10.94452-.44634,23.32747-7.07047,35.42606-15.54196,7.99021-5.59618,14.89724-11.49782,19.37419-20.21751,3.2946-6.41087,1.60054-11.55373-3.36447-16.05198-2.18888-1.9834-4.27857-2.20297-6.73008.19127-8.69917,8.51478-19.52974,13.1618-30.65143,17.83713-2.83394,1.19216-6.06192,1.78729-9.31278,2.38692-8.66163,1.59714-17.48501,3.22358-19.44745,16.26445Z"/>
</svg>