<?xml version="1.0" encoding="UTF-8"?>
<svg id="PASTE_LOGO_HERE" data-name="PASTE LOGO HERE" xmlns="http://www.w3.org/2000/svg" viewBox="0 0 1250 703">
  <defs>
    <style>
      .cls-1 {
        fill: #ff004f;
      }

      .cls-2 {
        fill: #00f2ea;
      }
    </style>
  </defs>
  <path class="cls-1" d="M363.04202,309.77758c15.95503,11.39936,35.50067,18.10651,56.61093,18.10651v-40.60163c-3.99512.00085-7.98006-.41554-11.88868-1.24323v31.95925c-21.10858,0-40.65167-6.70715-56.61093-18.10566v82.8561c0,41.44883-33.61802,75.04733-75.0855,75.04733-15.4725,0-29.85357-4.67525-41.79991-12.69346,13.63479,13.93415,32.64956,22.57822,53.68605,22.57822,41.47002,0,75.08974-33.59852,75.08974-75.04904v-82.85439h-.0017ZM377.70802,268.81553c-8.15391-8.90358-13.50758-20.40979-14.66602-33.1304v-5.22223h-11.26622c2.83586,16.16789,12.50861,29.98077,25.93224,38.35263h0ZM260.49612,413.29618c-4.55567-5.9702-7.01754-13.27354-7.00651-20.78293,0-18.9571,15.37667-34.32783,34.34733-34.32783,3.53548-.00085,7.04976.5402,10.41903,1.60874v-41.50903c-3.93745-.53936-7.91137-.76832-11.88359-.68437v32.30865c-3.37181-1.06853-6.88779-1.61127-10.42411-1.60788-18.97067,0-34.34648,15.36904-34.34648,34.32867,0,13.40582,7.68579,25.01209,18.89434,30.66599Z"/>
  <path d="M351.15333,299.89198c15.95927,11.39851,35.50236,18.10566,56.61093,18.10566v-31.95925c-11.78267-2.5085-22.21357-8.66274-30.05625-17.22285-13.42448-8.3727-23.09638-22.18558-25.93222-38.35263h-29.59321v162.16738c-.06699,18.90536-15.41737,34.21334-34.34733,34.21334-11.15512,0-21.06532-5.31467-27.34167-13.54745-11.2077-5.65388-18.89349-17.26102-18.89349-30.66514,0-18.95794,15.37582-34.32867,34.34648-34.32867,3.6347,0,7.13796.56565,10.42411,1.60788v-32.30864c-40.73901.84125-73.50306,34.11157-73.50306,75.02952,0,20.4259,8.159,38.94287,21.40115,52.4725,11.94634,8.01738,26.32741,12.69346,41.79991,12.69346,41.46833,0,75.08549-33.60021,75.08549-75.04819v-82.85692h-.00084Z"/>
  <path class="cls-2" d="M407.76427,286.03839v-8.64153c-10.6251.01611-21.04158-2.95796-30.05625-8.58217,7.98006,8.73227,18.48814,14.75336,30.05625,17.2237ZM351.7758,230.46291c-.27053-1.54513-.47829-3.10044-.62246-4.66168v-5.22223h-40.86029v162.16907c-.0653,18.90283-15.41483,34.2108-34.34648,34.2108-5.55806,0-10.80573-1.3187-15.45299-3.66183,6.27635,8.23193,16.18655,13.54574,27.34168,13.54574,18.92826,0,34.28118-15.30628,34.34733-34.21164v-162.16823h29.59321ZM286.37238,317.6016v-9.19954c-3.41421-.46642-6.85641-.70048-10.30284-.69878-41.47172-.00085-75.08974,33.59936-75.08974,75.04479,0,25.98396,13.21247,48.8836,33.28983,62.35387-13.24215-13.52879-21.40115-32.0466-21.40115-52.47165,0-40.91711,32.76319-74.18743,73.5039-75.02869Z"/>
  <path class="cls-1" d="M881.21504,423.81951c29.6721,0,53.72676-23.86047,53.72676-53.29086s-24.05466-53.29425-53.72676-53.29425h-8.09453c29.67293,0,53.72758,23.86385,53.72758,53.29425s-24.05466,53.29086-53.72758,53.29086h8.09453Z"/>
  <path class="cls-2" d="M872.38696,317.2344h-8.0937c-29.67122,0-53.73017,23.86385-53.73017,53.29425s24.0589,53.29086,53.73017,53.29086h8.0937c-29.67546,0-53.73012-23.86047-53.73012-53.29086-.00088-29.42955,24.05466-53.29425,53.73012-53.29425Z"/>
  <path d="M463.92491,293.14751v27.01263h31.64124v102.93006h31.65395v-102.20075h25.75669l8.83149-27.7411h-97.88337v-.00085ZM722.98599,293.14751v27.01263h31.64121v102.93006h31.65395v-102.20075h25.75581l8.83067-27.7411h-97.88164v-.00085ZM567.70129,308.47669c0-8.46429,6.90813-15.32918,15.44281-15.32918,8.54231,0,15.45808,6.86489,15.45808,15.32918,0,8.46514-6.91152,15.33002-15.45808,15.33002-8.53467-.00424-15.44281-6.86489-15.44281-15.33003ZM567.70129,334.76001h30.90089v88.3302h-30.90089v-88.3302ZM611.85198,293.14751v129.94184h30.91277v-33.57731l9.56846-8.76789,30.17076,43.07452h33.11597l-43.42563-62.78043,39.00732-37.96508h-37.53257l-30.9043,30.6592v-60.58486h-30.91277ZM945.23955,293.14751v129.94184h30.91698v-33.57731l9.56421-8.76789,30.17919,43.07452h33.12026l-43.42563-62.78043,39.00561-37.96508h-37.53086l-30.91279,30.6592v-60.58486h-30.91698Z"/>
  <path d="M873.11797,423.81951c29.67122,0,53.73017-23.86047,53.73017-53.29086s-24.0589-53.29425-53.73017-53.29425h-.73355c-29.67293,0-53.72758,23.86385-53.72758,53.29425s24.05466,53.29086,53.72758,53.29086h.73355ZM846.62349,370.52865c0-14.31577,11.70295-25.91187,26.13408-25.91187,14.42093,0,26.12305,11.5961,26.12305,25.91187s-11.70212,25.91866-26.12305,25.91866c-14.43113-.00255-26.13408-11.60289-26.13408-25.91866Z"/>
</svg>