<?xml version="1.0" encoding="UTF-8"?>
<svg id="LOGO" xmlns="http://www.w3.org/2000/svg" xmlns:xlink="http://www.w3.org/1999/xlink" viewBox="0 0 1250 703">
  <desc>raster-based</desc>
<metadata><?xpacket begin="﻿" id="W5M0MpCehiHzreSzNTczkc9d"?>
<x:xmpmeta xmlns:x="adobe:ns:meta/" x:xmptk="Adobe XMP Core 9.1-c002 79.a1cd12f, 2024/11/11-19:08:46        ">
   <rdf:RDF xmlns:rdf="http://www.w3.org/1999/02/22-rdf-syntax-ns#">
      <rdf:Description rdf:about=""
            xmlns:dc="http://purl.org/dc/elements/1.1/"
            xmlns:xmp="http://ns.adobe.com/xap/1.0/"
            xmlns:xmpMM="http://ns.adobe.com/xap/1.0/mm/"
            xmlns:stEvt="http://ns.adobe.com/xap/1.0/sType/ResourceEvent#">
         <dc:description>
            <rdf:Alt>
               <rdf:li xml:lang="x-default">raster-based</rdf:li>
            </rdf:Alt>
         </dc:description>
         <xmp:MetadataDate>2026-03-06T11:44:49-08:00</xmp:MetadataDate>
         <xmpMM:InstanceID>xmp.iid:0f4cea2a-0f01-5c41-a39b-7357fa03a537</xmpMM:InstanceID>
         <xmpMM:DocumentID>xmp.did:0f4cea2a-0f01-5c41-a39b-7357fa03a537</xmpMM:DocumentID>
         <xmpMM:OriginalDocumentID>xmp.did:0f4cea2a-0f01-5c41-a39b-7357fa03a537</xmpMM:OriginalDocumentID>
         <xmpMM:History>
            <rdf:Seq>
               <rdf:li>
                  <rdf:Description>
                     <stEvt:action>saved</stEvt:action>
                     <stEvt:instanceID>xmp.iid:0f4cea2a-0f01-5c41-a39b-7357fa03a537</stEvt:instanceID>
                     <stEvt:when>2026-03-06T11:44:49-08:00</stEvt:when>
                     <stEvt:softwareAgent>Adobe Bridge 2026</stEvt:softwareAgent>
                     <stEvt:changed>/metadata</stEvt:changed>
                  </rdf:Description>
               </rdf:li>
            </rdf:Seq>
         </xmpMM:History>
      </rdf:Description>
   </rdf:RDF>
</x:xmpmeta>
                                                                                                    
                                                                                                    
                                                                                                    
                                                                                                    
                                                                                                    
                                                                                                    
                                                                                                    
                                                                                                    
                                                                                                    
                                                                                                    
                                                                                                    
                                                                                                    
                                                                                                    
                                                                                                    
                                                                                                    
                                                                                                    
                                                                                                    
                                                                                                    
                                                                                                    
                                                                                                    
                           
<?xpacket end="w"?></metadata>
<defs>
    <style>
      .cls-1 {
        fill: #006eff;
      }

      .cls-2 {
        fill: #00e5e5;
      }

      .cls-3 {
        fill: none;
      }

      .cls-4 {
        clip-path: url(#clippath-1);
      }

      .cls-5 {
        fill: #4b4b4b;
      }

      .cls-6 {
        clip-path: url(#clippath);
      }
    </style>
    <clipPath id="clippath">
      <rect class="cls-3" x="61" y="238.14999" width="1106.54541" height="260.82858"/>
    </clipPath>
    <clipPath id="clippath-1">
      <rect class="cls-3" x="-510.98239" y="-286.6084" width="2277.74265" height="1281.23022"/>
    </clipPath>
  </defs>
  <g class="cls-6">
    <g id="g10">
      <g id="g12">
        <g class="cls-4">
          <g id="g14">
            <g id="g20">
              <path id="path22" class="cls-2" d="M222.8506,338.73303l-16.36534,71.06201c-.25862,1.12463.59554,2.19827,1.74983,2.19827h32.71289c1.1543,0,2.00845-1.07361,1.74864-2.19827l-16.36534-71.06201c-.4247-1.84711-3.05479-1.84711-3.48068,0"/>
            </g>
            <g id="g24">
              <path id="path26" class="cls-2" d="M132.24602,365.68839l-10.15968,44.11703c-.25862,1.1199.59198,2.18759,1.74034,2.18759h20.32767c1.14836,0,1.99777-1.06769,1.74034-2.18759l-10.16087-44.11703c-.42589-1.85184-3.0619-1.85184-3.48779,0"/>
            </g>
            <g id="g28">
              <path id="path30" class="cls-1" d="M154.57845,311.79626l-22.56863,97.99872c-.2598,1.12463.59554,2.19827,1.74864,2.19827h45.12067c1.1543,0,2.00845-1.07361,1.74864-2.19827l-22.56863-97.99872c-.4247-1.84711-3.05479-1.84711-3.48068,0"/>
            </g>
            <g id="g32">
              <path id="path34" class="cls-1" d="M192.44901,271.37784l-31.87772,138.41794c-.25862,1.12344.59554,2.19708,1.74983,2.19708h63.73647c1.1543,0,2.00845-1.07361,1.74983-2.19708l-31.87772-138.41797c-.4247-1.84711-3.05479-1.84711-3.48068,0"/>
            </g>
            <g id="g36">
              <path id="path38" class="cls-2" d="M171.36163,325.24445l-19.47234,84.55054c-.25862,1.12463.59554,2.19827,1.74983,2.19827h38.92567c1.1543,0,2.00845-1.07361,1.74983-2.19827l-19.47234-84.55054c-.4247-1.84711-3.05597-1.84711-3.48068,0"/>
            </g>
            <g id="g40">
              <path id="path42" class="cls-5" d="M292.58426,409.92056l-28.95462-85.52094h16.00351l24.6803,76.35776,25.29007-76.35776h15.76031l-29.2002,85.52094h-23.57938Z"/>
            </g>
            <g id="g44">
              <path id="path46" class="cls-5" d="M372.80643,398.07013c3.66574,0,7.02542-.93481,10.07901-2.80923,3.05478-1.8732,5.47726-4.37872,7.26981-7.513,1.79016-3.13544,2.6882-6.57697,2.6882-10.32458,0-3.66574-.89804-7.08591-2.6882-10.26288-1.79254-3.17578-4.215-5.6813-7.26978-7.51419-3.05359-1.83286-6.41327-2.74872-10.07901-2.74872-3.74759,0-7.14761.93719-10.20239,2.81039-3.05359,1.87439-5.47845,4.35855-7.26862,7.45248-1.79254,3.0975-2.6882,6.51648-2.6882,10.26288,0,3.74759.89566,7.18912,2.6882,10.32458,1.79016,3.13428,4.215,5.6398,7.26862,7.513,3.05478,1.87439,6.4548,2.80923,10.20239,2.80923M372.80643,410.89786c-6.10837,0-11.68884-1.50546-16.73785-4.5199-5.05136-3.01208-9.08368-7.0871-12.09576-12.21677-3.01443-5.13205-4.5199-10.70895-4.5199-16.73785,0-6.02652,1.50543-11.58563,4.5199-16.67734,3.01208-5.08932,7.0444-9.14182,12.09576-12.15625,5.04901-3.01208,10.62946-4.52109,16.73785-4.52109,6.02652,0,11.58563,1.509,16.67615,4.52109,5.09052,3.01443,9.12164,7.0871,12.09576,12.21796,2.97293,5.13086,4.45938,10.67099,4.45938,16.61566,0,6.0289-1.48645,11.6058-4.45938,16.73785-2.97412,5.12967-7.00525,9.20468-12.09576,12.21677-5.09052,3.01447-10.64963,4.5199-16.67615,4.5199"/>
            </g>
            <path id="path48" class="cls-5" d="M417.03287,324.39966h14.05081v85.52094h-14.05081v-85.52094Z"/>
            <g id="g50">
              <path id="path52" class="cls-5" d="M475.67545,410.89835c-6.10837,0-11.72919-1.50662-16.86005-4.52109-5.13086-3.01208-9.1442-7.08591-12.03406-12.21558-2.89227-5.13324-4.33719-10.67099-4.33719-16.61566,0-6.10956,1.48529-11.72919,4.45938-16.86005,2.97174-5.13205,7.00406-9.18216,12.09457-12.15628,5.08932-2.97293,10.64844-4.46057,16.67734-4.46057,6.92221,0,13.13379,1.93607,18.63123,5.80469,5.4986,3.86743,9.46924,8.93893,11.91306,15.20987l-12.95111,3.54236c-1.63-3.5827-3.99197-6.45361-7.08591-8.61389-3.09631-2.15555-6.59714-3.2363-10.50729-3.2363-3.74759,0-7.14761.93719-10.2012,2.80923-3.05478,1.87439-5.47964,4.3989-7.26978,7.57587-1.79254,3.17697-2.6882,6.63986-2.6882,10.38507,0,3.7464.89566,7.2081,2.6882,10.38391,1.79016,3.17578,4.23398,5.6813,7.33029,7.513,3.09512,1.83405,6.47495,2.74872,10.14069,2.74872,3.98962,0,7.513-1.07718,10.56778-3.2363,3.05478-2.15793,5.39539-4.98849,7.02542-8.4917l12.95111,3.54355c-2.52567,6.18906-6.51767,11.22025-11.97357,15.08649-5.45828,3.87097-11.64853,5.80469-18.57071,5.80469"/>
            </g>
            <g id="g54">
              <path id="path56" class="cls-5" d="M547.27008,398.19174c3.66571,0,7.06458-.93481,10.20117-2.80923,3.13428-1.87201,5.63977-4.3989,7.51416-7.57587,1.87201-3.17578,2.81042-6.59479,2.81042-10.26053s-.93835-7.0871-2.81042-10.26407c-1.87439-3.17578-4.37988-5.72046-7.51416-7.63519-3.13666-1.91354-6.53546-2.87091-10.20117-2.87091-3.74762,0-7.18915.93719-10.32458,2.80923-3.13544,1.87439-5.60065,4.3989-7.39081,7.57587-1.79254,3.17697-2.68823,6.63867-2.68823,10.38507s.89569,7.18793,2.68823,10.3222c1.79016,3.13663,4.23401,5.64215,7.33032,7.51419,3.09393,1.87439,6.5556,2.80923,10.38507,2.80923M546.04816,410.89844c-5.86401,0-11.26056-1.50662-16.1886-4.52109-4.9292-3.01208-8.83813-7.08591-11.72803-12.21558-2.89227-5.13324-4.33722-10.67099-4.33722-16.61566,0-6.10956,1.44495-11.72919,4.33722-16.86005,2.88989-5.13205,6.79883-9.18216,11.72803-12.15628,4.92798-2.97293,10.32458-4.46057,16.1886-4.46057,4.31586,0,8.2663.87668,11.85138,2.62653,3.5827,1.7522,6.5556,4.13553,8.91876,7.14761v-8.67441h14.04962v64.75195h-14.04962v-8.6756c-2.36316,3.01447-5.33612,5.37762-8.91876,7.0871-3.58508,1.71069-7.53552,2.56601-11.85138,2.56601"/>
            </g>
            <g id="g58">
              <path id="path60" class="cls-5" d="M594.30713,409.92056v-64.75195h13.92743v8.55222c2.19946-2.84955,5.02881-5.1712,8.4917-6.96371,3.46051-1.79135,7.39081-2.6882,11.78967-2.6882,4.72278,0,9.16315,1.06058,13.31769,3.17697,4.15332,2.11877,7.49164,5.17355,10.01733,9.16434,2.52448,3.99078,3.7879,8.59372,3.7879,13.80408v39.70627h-14.04962v-35.91833c0-3.42017-.71417-6.3931-2.13892-8.91879-1.42596-2.52451-3.3407-4.4772-5.74182-5.86401-2.4035-1.38443-5.07037-2.07724-8.00293-2.07724-3.3407,0-6.35278.85535-9.04095,2.56601-2.68701,1.7095-4.76428,4.03113-6.23059,6.96375s-2.19946,6.27328-2.19946,10.01733v33.23132h-13.92743v-.00003Z"/>
            </g>
            <g id="g62">
              <path id="path64" class="cls-5" d="M698.40009,398.07013c3.66571,0,7.02539-.93481,10.07904-2.80923,3.05481-1.8732,5.47723-4.37872,7.26978-7.513,1.79016-3.13544,2.68823-6.57697,2.68823-10.32458,0-3.66574-.89807-7.08591-2.68823-10.26288-1.79254-3.17578-4.21503-5.6813-7.26978-7.51419-3.05359-1.83286-6.41327-2.74872-10.07898-2.74872-3.74762,0-7.14758.93719-10.20117,2.81039-3.05481,1.87439-5.47961,4.35855-7.26978,7.45248-1.79254,3.0975-2.68823,6.51648-2.68823,10.26288,0,3.74759.89569,7.18912,2.68823,10.32458,1.79016,3.13428,4.21503,5.6398,7.26978,7.513,3.05359,1.87439,6.45361,2.80923,10.20117,2.80923M698.40009,410.89786c-6.1084,0-11.68884-1.50546-16.73785-4.5199-5.05139-3.01208-9.08368-7.0871-12.09576-12.21677-3.01447-5.13205-4.5199-10.70895-4.5199-16.73785,0-6.02652,1.50543-11.58563,4.5199-16.67734,3.01208-5.08932,7.04437-9.14182,12.09576-12.15625,5.04901-3.01208,10.62946-4.52109,16.73785-4.52109,6.02655,0,11.58563,1.509,16.67737,4.52109,5.08936,3.01443,9.12048,7.0871,12.0946,12.21796,2.9729,5.13086,4.45941,10.67099,4.45941,16.61566,0,6.0289-1.48645,11.6058-4.45941,16.73785-2.97412,5.12967-7.00525,9.20468-12.0946,12.21677-5.09167,3.01447-10.65082,4.5199-16.67737,4.5199"/>
            </g>
            <g id="g66">
              <path id="path68" class="cls-5" d="M742.99304,409.92056v-85.52094h60.84302v13.43869h-46.42682v22.72522h41.54034v13.19431h-41.54034v22.72403h46.42682v13.43869h-60.84302Z"/>
            </g>
            <g id="g70">
              <path id="path72" class="cls-5" d="M816.42029,409.92056v-64.75195h13.92743v8.55222c2.19946-2.84955,5.02881-5.1712,8.4917-6.96371,3.46051-1.79135,7.39197-2.6882,11.78967-2.6882,4.72278,0,9.16315,1.06058,13.31769,3.17697,4.15332,2.11877,7.49286,5.17355,10.01733,9.16434s3.7879,8.59372,3.7879,13.80408v39.70627h-14.04962v-35.91833c0-3.42017-.71417-6.3931-2.13892-8.91879-1.42596-2.52451-3.33948-4.4772-5.74182-5.86401-2.4035-1.38443-5.07037-2.07724-8.00177-2.07724-3.3407,0-6.35394.85535-9.04095,2.56601-2.68823,1.7095-4.76544,4.03113-6.23175,6.96375s-2.19946,6.27328-2.19946,10.01733v33.23132h-13.92743v-.00003Z"/>
            </g>
            <g id="g74">
              <path id="path76" class="cls-5" d="M921.0022,396.60336c3.66571,0,7.06458-.8945,10.20117-2.6882,3.13428-1.78897,5.63977-4.21265,7.51416-7.26862,1.87201-3.05359,2.81042-6.41327,2.81042-10.07901,0-3.66455-.91705-7.02542-2.74872-10.07901-1.83289-3.05359-4.33838-5.4559-7.51416-7.2081-3.177-1.75101-6.59717-2.62653-10.26288-2.62653-3.74762,0-7.16779.87552-10.26288,2.62653-3.09631,1.7522-5.55914,4.15451-7.39197,7.2081-1.83289,3.05359-2.74872,6.41446-2.74872,10.07901,0,3.66574.91583,7.04678,2.74872,10.1395,1.83289,3.0975,4.31702,5.52115,7.45367,7.26981,3.13428,1.7522,6.53546,2.62653,10.20117,2.62653M922.59064,438.02032c-4.80701,0-9.42889-.89685-13.86694-2.6882-4.44043-1.79135-8.26752-4.51871-11.4848-8.18445-3.21851-3.66574-5.47845-8.18445-6.78101-13.56088h14.05084c.97754,2.6882,2.40112,4.88766,4.27551,6.59595,1.87323,1.71069,3.98962,2.93378,6.35394,3.66693,2.36078.73196,4.80463,1.09973,7.33032,1.09973,3.42017,0,6.49396-.69281,9.22369-2.07843,2.72858-1.38562,4.88763-3.54236,6.47498-6.47495,1.5885-2.9314,2.3833-6.63748,2.3833-11.11823v-5.25186c-2.36316,2.76889-5.31476,4.96832-8.85828,6.59714-3.54236,1.62881-7.513,2.44263-11.91187,2.44263-6.1084,0-11.62714-1.42358-16.55518-4.2767-4.92798-2.84955-8.77643-6.75848-11.54529-11.72681-2.77008-4.96832-4.15332-10.46576-4.15332-16.49466,0-6.18787,1.4046-11.76953,4.21503-16.73785,2.8092-4.96713,6.67664-8.85709,11.60583-11.66751,4.92798-2.81039,10.40405-4.17349,16.43298-4.09283,4.31586.08185,8.2663.95737,11.85138,2.62653,3.5827,1.67035,6.5556,4.01215,8.91876,7.02542v-8.55222h14.04962v59.86548c0,6.84152-1.44733,12.76721-4.33722,17.77707-2.89227,5.00748-6.76086,8.79541-11.60699,11.36142s-10.20117,3.84726-16.06519,3.84726"/>
            </g>
            <path id="path78" class="cls-5" d="M968.40564,345.16858h14.05084v64.75195h-14.05084v-64.75195ZM975.61377,337.5939c-2.5257,0-4.68475-.83398-6.47498-2.50436-1.79254-1.66797-2.68817-3.76657-2.68817-6.29227,0-2.44266.89569-4.5199,2.68817-6.23059,1.79022-1.71069,3.94928-2.56604,6.47498-2.56604,2.52454,0,4.66229.85535,6.41443,2.56604,1.75098,1.71069,2.62653,3.78793,2.62653,6.23059,0,2.52573-.87555,4.6243-2.62653,6.29227-1.75226,1.67038-3.89001,2.50436-6.41443,2.50436"/>
            <g id="g80">
              <path id="path82" class="cls-5" d="M996.26025,409.92056v-64.75195h13.92743v8.55222c2.19946-2.84955,5.02881-5.1712,8.4917-6.96371,3.46051-1.79135,7.39081-2.6882,11.78973-2.6882,4.72278,0,9.16321,1.06058,13.31763,3.17697,4.15332,2.11877,7.4917,5.17355,10.01733,9.16434,2.52454,3.99078,3.78796,8.59372,3.78796,13.80408v39.70627h-14.04968v-35.91833c0-3.42017-.71411-6.3931-2.13892-8.91879-1.4259-2.52451-3.3407-4.4772-5.74182-5.86401-2.40344-1.38443-5.07031-2.07724-8.00293-2.07724-3.3407,0-6.35278.85535-9.04095,2.56601-2.68701,1.7095-4.76428,4.03113-6.23059,6.96375-1.46631,2.93259-2.19946,6.27328-2.19946,10.01733v33.23132h-13.92743v-.00003Z"/>
            </g>
            <g id="g84">
              <path id="path86" class="cls-5" d="M1119.53455,371.92578c-.57068-2.76889-1.73083-5.33371-3.48181-7.69687-1.7522-2.36197-3.95166-4.23517-6.59839-5.62079-2.64783-1.38443-5.63977-2.07724-8.97925-2.07724-3.3407,0-6.37415.69281-9.10144,2.07724-2.73096,1.38562-4.96948,3.25882-6.72058,5.62079-1.7522,2.36316-2.91248,4.92798-3.48181,7.69687h38.3634-.00012ZM1100.59729,410.8989c-6.1084,0-11.70898-1.50662-16.79834-4.52109-5.09167-3.01208-9.10266-7.0871-12.03528-12.21677-2.9314-5.13205-4.39771-10.6698-4.39771-16.61566,0-6.10837,1.48523-11.728,4.45935-16.86005,2.9729-5.13205,7.00403-9.18216,12.0957-12.15628,5.08936-2.97293,10.64844-4.45938,16.67615-4.45938,5.37524,0,10.38513,1.22192,15.02832,3.66455,4.64209,2.44382,8.49048,5.76434,11.54529,9.95801,3.05359,4.19604,5.02759,8.89981,5.92566,14.11014.81262,3.66574.85413,7.29114.12097,10.87503h-52.04639c.56946,3.25766,1.77234,6.06805,3.604,8.42883,1.83289,2.36316,4.11304,4.17468,6.84277,5.43692,2.72742,1.26343,5.72046,1.89456,8.97925,1.89456,3.42139,0,6.7395-.71417,9.95801-2.13895,3.21619-1.42358,5.88293-3.35968,8.00171-5.8035l12.34021,3.17697c-2.52563,5.21271-6.63989,9.38739-12.34021,12.52283-5.70154,3.13544-11.68884,4.70377-17.95972,4.70377"/>
            </g>
          </g>
        </g>
      </g>
    </g>
  </g>
</svg>