<?xml version="1.0" encoding="UTF-8"?>
<svg id="LOGO" xmlns="http://www.w3.org/2000/svg" viewBox="0 0 1250 703">
  <defs>
    <style>
      .cls-1 {
        fill: #2b2867;
        stroke-width: 0px;
      }
    </style>
  </defs>
  <g>
    <path class="cls-1" d="M302.71019,467.80445c-64.27864,0-116.57253-52.29389-116.57253-116.57177s52.29389-116.57253,116.57253-116.57253h127.49135c9.50256,0,17.20574,7.70317,17.20574,17.20574s-7.70317,17.20574-17.20574,17.20574h-127.49135c-45.30406,0-82.16106,36.857-82.16106,82.16106s36.857,82.16029,82.16106,82.16029c38.18745,0,71.04851-25.89491,79.91182-62.97263,2.20953-9.24213,11.49213-14.94122,20.73502-12.73399,9.24213,2.20953,14.94275,11.49289,12.73399,20.73502-12.58047,52.62765-59.20429,89.38307-113.38082,89.38307Z"/>
    <path class="cls-1" d="M422.6226,330.90015h-39.75466c-9.50256,0-17.20574-7.70317-17.20574-17.20574s7.70317-17.20574,17.20574-17.20574h39.75466c9.50256,0,17.20574,7.70317,17.20574,17.20574s-7.70317,17.20574-17.20574,17.20574Z"/>
    <g>
      <path class="cls-1" d="M304.93621,349.65826c8.91085-2.9279,18.50078,1.90954,21.42868,10.77792l2.03697,6.19533h18.96749c9.37782,0,16.97325-7.59544,16.97325-16.97325,0-4.6678-1.90954-8.91111-4.9646-12.05112-3.09779-3.01259-7.34111-4.92213-12.00865-4.92213h-25.45988c-9.37782,0-16.97325,7.55296-16.97325,16.97325Z"/>
      <path class="cls-1" d="M287.96296,307.22513v25.45988c0,9.33534,7.59544,16.97325,16.97325,16.97325-2.9279-8.95333,1.90954-18.50078,10.8204-21.42868l6.15286-2.07918v-18.92527c0-9.42029-7.59544-16.97325-16.97325-16.97325-4.66754,0-8.91085,1.90954-12.00865,4.92213-3.05506,3.09779-4.9646,7.34111-4.9646,12.05112Z"/>
      <path class="cls-1" d="M287.96296,373.08143v19.00996c0,9.33534,7.59544,16.97325,16.97325,16.97325,9.37782,0,16.97325-7.63791,16.97325-16.97325v-25.45988c0-9.42029-7.59544-16.97325-16.97325-16.97325,2.9279,8.86838-1.90954,18.45831-10.8204,21.3862l-6.15286,2.03697Z"/>
      <path class="cls-1" d="M245.52983,349.65826c0,4.62507,1.90954,8.86838,4.9646,11.96617,3.09779,3.05506,7.34111,5.00708,12.00865,5.00708h25.45988c9.37782,0,16.97325-7.63791,16.97325-16.97325-8.91085,2.9279-18.50078-1.95202-21.42868-10.8204l-2.03671-6.15286h-18.96774c-9.37782,0-16.97325,7.55296-16.97325,16.97325Z"/>
    </g>
  </g>
  <path class="cls-1" d="M644.22805,306.15568c-.63701-11.5994-2.92553-19.52948-7.45881-29.86898-12.40133-24.75519-37.32647-41.61991-66.59081-41.61991l-62.8055-.00664c-5.8854,0-10.77607,4.51903-11.24719,10.38515l-16.51048,210.15742c-.52361,6.56291,4.66516,12.18343,11.24784,12.18343h23.72284c5.87892,0,10.77607-4.51903,11.24719-10.38499l4.88419-65.79962,36.34765.03742c35.16691-1.15301,53.03858-12.97127,67.93904-39.8324,5.26912-11.32743,8.5002-20.75142,9.22404-33.89037.10563-1.87791.10563-9.48253,0-11.36052ZM597.5677,314.45835c-.95714,25.35632-21.21616,34.08875-42.54117,34.13071h-8.21137c-7.30815-.08372-12.33433-4.58493-11.95264-10.12079l3.97555-51.91936c.38201-5.11659,5.54596-9.54121,12.30912-9.54121h9.5522c21.70638,0,37.82578,12.09437,36.86831,37.45065Z"/>
  <path class="cls-1" d="M992.89557,467.80445c-22.7729,0-43.76293-4.46265-62.37852-13.264-6.43405-3.03708-9.18568-10.56265-6.13555-16.78144l5.31331-10.8364c2.19805-4.47815,6.81939-7.25698,12.06757-7.25698,2.26861,0,4.53993.5475,6.56973,1.58052,5.3703,2.73234,11.02825,5.02049,16.81916,6.79728,9.50047,2.92345,19.14476,4.40067,28.6615,4.40067,8.11379,0,14.10552-1.06918,17.80693-3.18687,3.39205-1.93175,5.03924-4.38518,5.03924-7.49457,0-3.23852-1.95382-5.7591-5.97273-7.71151-4.62948-2.25199-12.3715-4.94301-23.01441-8.01108-11.16664-2.8873-20.52057-5.85723-27.74972-8.80651-7.41639-3.02159-13.90742-7.56688-19.29672-13.5016-5.53041-6.08966-8.3336-14.04393-8.3336-23.6407,0-9.9325,2.97687-18.77517,8.84648-26.28007,5.81534-7.44809,14.14894-13.35697,24.76471-17.56137,10.51808-4.15791,22.6942-6.27044,36.19186-6.27044,1.3134,0,2.63766.02066,3.9782.06198,9.06086.26859,18.10272,1.57536,26.87321,3.89449,9.02286,2.38628,17.08781,5.5215,23.97233,9.32302,5.81534,3.20753,8.05138,10.37154,5.0908,16.30625l-5.16678,10.35604c-2.20891,4.4265-6.93879,7.28797-12.05129,7.28797-2.17634,0-4.33369-.53201-6.23867-1.5392-4.38796-2.31913-8.98487-4.26638-13.67134-5.79009-8.10294-2.62904-16.08919-3.96164-23.73624-3.96164-7.91298,0-13.91556,1.07951-17.84492,3.2127-3.56573,1.93692-5.29975,4.47815-5.29975,7.76316,0,3.44513,2.1085,6.15681,6.4449,8.3055,4.94969,2.44826,12.61573,5.03598,22.78918,7.68568,11.29147,3.13006,20.5857,6.19813,27.65745,9.11642,7.31056,3.03192,13.74732,7.57205,19.13661,13.50676,5.53041,6.08966,8.3336,14.04393,8.3336,23.6407,0,15.20092-6.42862,27.27694-19.11219,35.89751-12.44477,8.46561-29.38605,12.75782-50.35437,12.75782Z"/>
  <path class="cls-1" d="M899.33184,322.11726l-10.67738,135.2477c-.45638,5.78149-5.28114,10.2404-11.08061,10.2404h-22.65391c-6.47391,0-11.57793-5.5108-11.08249-11.96572l.80573-10.41069c-5.30246,7.13688-12.22768,12.64015-20.78108,16.50438-8.56426,3.87508-17.93718,5.8072-28.1242,5.8072-16.91685,0-29.80666-4.67832-38.66399-14.05667-8.86819-9.3675-13.29685-23.02255-13.29685-40.95974,0-2.03523.19538-5.50327.60786-10.39325l6.24878-81.73557c.44289-5.79314,5.2727-10.2678,11.08274-10.2678h24.09343c6.49786,0,11.61012,5.54981,11.07771,12.02582l-6.34901,77.22591c-1.62819,21.39979,6.42048,32.09698,24.15143,32.09698,9.57373,0,17.16108-3.15868,22.7729-9.47604,5.60096-6.31193,8.80849-14.97931,9.62801-25.98042l6.19299-75.68365c.47198-5.76794,5.29084-10.2086,11.07806-10.2086h23.8893c6.48349,0,11.59082,5.52639,11.08061,11.98977Z"/>
  <path class="cls-1" d="M661.43123,455.49953l16.25768-203.16017c.46314-5.77563,5.28535-10.22663,11.07952-10.22663h23.85241c6.48887,0,11.59806,5.53516,11.07954,12.00328l-16.25279,203.16017c-.46301,5.77574-5.28527,10.22689-11.07954,10.22689h-23.8573c-6.48898,0-11.5982-5.53533-11.07952-12.00354Z"/>
</svg>