<?xml version="1.0" encoding="UTF-8"?>
<svg id="LOGO" xmlns="http://www.w3.org/2000/svg" xmlns:xlink="http://www.w3.org/1999/xlink" viewBox="0 0 1250 703">
  <defs>
    <style>
      .cls-1 {
        fill: url(#GM_Brandmark_Gradient_RGB_);
        stroke-width: 0px;
      }
    </style>
    <linearGradient id="GM_Brandmark_Gradient_RGB_" data-name="GM Brandmark Gradient (RGB)" x1="625.38167" y1="578" x2="625.38167" y2="125.75603" gradientUnits="userSpaceOnUse">
      <stop offset="0" stop-color="#0b8bd2"/>
      <stop offset="1" stop-color="#4ee0fd"/>
    </linearGradient>
  </defs>
  <path class="cls-1" d="M851.50283,190.24555c0-39.10148-25.34566-64.48952-64.51026-64.48952l-323.22345.00083c-39.11392,0-64.50943,25.33778-64.50943,64.48994v323.26368c0,39.10148,25.34566,64.48952,64.51026,64.48952l323.22345-.00083c39.11392,0,64.51026-25.33737,64.51026-64.48952l-.00083-323.2641ZM783.9925,549.30406l-317.22247.00042c-25.59158,0-38.80569-13.17631-38.80569-38.79366l-.00083-317.26478c0-25.5837,13.18087-38.79366,38.80652-38.79366l317.22164-.00125c25.59241,0,38.80652,13.17631,38.80652,38.79408l.00083,317.2652c0,25.58329-13.18087,38.79366-38.80652,38.79366ZM767.71102,279.82953v119.84299h-32.95177v-115.02094c0-7.97375-5.2441-13.12979-12.99726-13.12979h-18.63351v128.15072h-32.9526v-128.15072h-31.62994v128.15072h-32.9526v-156.75195h125.19795c23.00027,0,36.91974,14.24515,36.91974,36.90896ZM580.5775,242.92057l.00498,163.12014c0,19.19017-8.56985,54.79474-64.57839,54.79474h-13.8746v-28.93272h13.8746c22.02573-.40668,31.16884-9.69021,31.54271-25.65224v-6.57798h-27.57557c-21.90941,0-36.92057-14.76857-36.92057-36.90896v-82.93403c0-22.06188,14.68049-36.90896,36.92057-36.90896h60.60627ZM547.6249,271.52179h-18.55624c-7.78556,0-13.06456,5.45845-13.06456,13.01679v73.15908c0,7.90188,5.55815,13.33707,13.43593,13.33707h18.17822l.00665-99.51295ZM605.59333,460.8446h162.11769v-28.94186h-162.11769v28.94186Z"/>
</svg>