<?xml version="1.0" encoding="UTF-8"?>
<svg id="EXAMPLES_TURN_OFF_" data-name="EXAMPLES (TURN OFF)" xmlns="http://www.w3.org/2000/svg" viewBox="0 0 1250 703">
  <defs>
    <style>
      .cls-1 {
        fill: #dd1d21;
        fill-rule: evenodd;
      }

      .cls-2 {
        fill: none;
        stroke: #fff;
        stroke-miterlimit: 40;
        stroke-width: 2.32px;
      }

      .cls-3 {
        fill: #fbce07;
      }
    </style>
  </defs>
  <path class="cls-2" d="M597.5,545.14h-120.78l-10.74-89.22-73.79-53c-3.25-15.67-4.82-31.64-4.69-47.64,0-131.16,106.33-237.49,237.49-237.49s237.49,106.33,237.49,237.49c.14,16-1.43,31.97-4.69,47.64l-73.14,53-11.42,89.22h-120.75l-6.78,5.36c-5.97,4.47-13.26,6.83-20.71,6.71-7.41-.19-14.6-2.51-20.71-6.71l-6.71-5.36h-.08Z"/>
  <path class="cls-3" d="M597.5,545.14h-120.78l-10.74-89.22-73.79-53c-3.25-15.67-4.82-31.64-4.69-47.64,0-131.16,106.33-237.49,237.49-237.49s237.49,106.33,237.49,237.49c.14,16-1.43,31.97-4.69,47.64l-73.14,53-11.42,89.22h-120.75l-6.78,5.36c-5.97,4.47-13.26,6.83-20.71,6.71-7.41-.19-14.6-2.51-20.71-6.71l-6.71-5.36h-.08Z"/>
  <path class="cls-1" d="M601.52,503.53h-87.85l-8.73-71.12-72.49-52.32c-2.15-8.33-3.28-16.9-3.37-25.5-.15-14.12,2.83-28.1,8.73-40.93l128.13,129.45-124.12-153.63c4.74-20.02,15.51-38.09,30.86-51.78l111.33,192.55-98.56-209.82c12.83-16.94,30.66-29.42,50.98-35.68l68.43,238.84-49.66-248.91c15.16-8.51,32.28-12.9,49.66-12.74,3.59-.11,7.19.11,10.74.67l10.07,258.31,10.07-258.31c3.55-.56,7.15-.78,10.74-.67,17.34.16,34.38,4.53,49.66,12.74l-49.68,249.04,68.43-239.51c20.3,6.22,38.13,18.65,50.98,35.55l-99.29,210.67,111.33-192.55c15.49,13.58,26.29,31.7,30.86,51.78l-124.12,153.63,128.13-129.45c5.9,12.83,8.88,26.81,8.73,40.93-.13,8.6-1.26,17.16-3.37,25.5l-72.49,52.32-8.73,71.12h-87.09l-13.41,9.4c-3.3,2.42-7.34,3.61-11.42,3.37-4.04-.08-7.98-1.24-11.42-3.37l-12.06-9.4v-.18ZM597.5,545.14h-120.78l-10.74-89.22-73.79-53c-3.25-15.67-4.82-31.64-4.69-47.64,0-131.16,106.33-237.49,237.49-237.49s237.49,106.33,237.49,237.49c.14,16-1.43,31.97-4.69,47.64l-73.14,53-11.42,89.22h-120.75l-6.78,5.36c-5.97,4.47-13.26,6.83-20.71,6.71-7.41-.19-14.6-2.51-20.71-6.71l-6.71-5.36h-.08Z"/>
</svg>