<?xml version="1.0" encoding="utf-8"?>
<!-- Generator: Adobe Illustrator 28.1.0, SVG Export Plug-In . SVG Version: 6.00 Build 0)  -->
<svg version="1.1" id="Layer_1" xmlns="http://www.w3.org/2000/svg" xmlns:xlink="http://www.w3.org/1999/xlink" x="0px" y="0px"
	 viewBox="0 0 1300 1080" style="enable-background:new 0 0 1300 1080;" xml:space="preserve">
<style type="text/css">
	.st0{fill:#76B800;}
	.st1{enable-background:new    ;}
	.st2{fill:#FFFFFF;}
	.st3{clip-path:url(#SVGID_00000118360198398920856320000014021775335463327395_);}
</style>
<g>
	<rect x="50.5" y="683.3" class="st0" width="1199" height="69"/>
	<path class="st0" d="M1250,752.8H50v-70h1200V752.8z M51,751.8h1198v-68H51V751.8z"/>
</g>
<g>
	<rect x="50.5" y="593.5" class="st0" width="1199" height="69"/>
	<path class="st0" d="M1250,663H50v-70h1200V663z M51,662h1198v-68H51V662z"/>
</g>
<g class="st1">
	<path class="st2" d="M619.5,727c-3,0-5.3-0.9-6.9-2.7c-1.6-1.8-2.4-4.3-2.4-7.6v-1.3c0-2.1,0.4-3.9,1.1-5.4
		c0.7-1.5,1.8-2.7,3.2-3.5c1.4-0.8,3.1-1.2,5-1.2h0.3c2,0,3.7,0.5,5.1,1.4c1.4,0.9,2.3,2.2,2.9,3.9l-3.2,1.1c-0.3-1.1-0.9-2-1.8-2.5
		c-0.8-0.5-1.8-0.8-3-0.8h-0.3c-1.8,0-3.3,0.6-4.3,1.8c-1,1.2-1.6,3-1.6,5.3v1.4c0,2.4,0.5,4.2,1.5,5.4s2.5,1.8,4.4,1.8h0.3
		c1.2,0,2.3-0.3,3.1-0.8c0.9-0.5,1.5-1.3,1.8-2.4l3.1,1.2c-0.6,1.6-1.6,2.8-3,3.7c-1.4,0.9-3.1,1.3-5.1,1.3H619.5z"/>
	<path class="st2" d="M647.9,705.6v12.8c0,2.7-0.7,4.8-2.1,6.4c-1.4,1.5-3.5,2.3-6.1,2.3h-0.3c-2.7,0-4.7-0.8-6.1-2.3
		c-1.4-1.5-2.1-3.6-2.1-6.4v-12.8h3.5v12.8c0,1.9,0.4,3.3,1.3,4.2c0.8,0.9,2,1.4,3.6,1.4h0.3c1.6,0,2.8-0.5,3.6-1.4
		c0.8-0.9,1.3-2.3,1.3-4.2v-12.8H647.9z"/>
</g>
<g class="st1">
	<path class="st2" d="M652.7,726.6v-21h8c2.1,0,3.8,0.4,5.3,1.2c1.4,0.8,2.5,1.9,3.3,3.4c0.8,1.5,1.1,3.2,1.1,5.2v1.3
		c0,3.1-0.8,5.5-2.5,7.3s-4.1,2.6-7.2,2.6H652.7z M656.1,723.6h4.5c2,0,3.6-0.6,4.7-1.7c1.1-1.1,1.6-2.9,1.6-5.1v-1.4
		c0-2.2-0.5-3.9-1.6-5.1c-1.1-1.2-2.6-1.7-4.7-1.7h-4.5V723.6z"/>
</g>
<g class="st1">
	<path class="st2" d="M671.5,726.6l8.2-21h3.1l8.3,21h-3.7l-1.8-4.7h-8.8l-1.7,4.7H671.5z M677.8,719.1h6.7l-3.4-9L677.8,719.1z"/>
</g>
<g class="st1">
	<path class="st2" d="M538.8,638.8c-3,0-5.3-0.9-6.9-2.7c-1.6-1.8-2.4-4.3-2.4-7.6v-1.3c0-2.1,0.4-3.9,1.1-5.4
		c0.7-1.5,1.8-2.7,3.2-3.5c1.4-0.8,3.1-1.2,5-1.2h0.3c2,0,3.7,0.5,5.1,1.4c1.4,0.9,2.3,2.2,2.9,3.9l-3.2,1.1c-0.3-1.1-0.9-2-1.8-2.5
		c-0.8-0.5-1.8-0.8-3-0.8h-0.3c-1.8,0-3.3,0.6-4.3,1.8c-1,1.2-1.6,3-1.6,5.3v1.4c0,2.4,0.5,4.2,1.5,5.4s2.5,1.8,4.4,1.8h0.3
		c1.2,0,2.3-0.3,3.1-0.8c0.9-0.5,1.5-1.3,1.8-2.4l3.1,1.2c-0.6,1.6-1.6,2.8-3,3.7c-1.4,0.9-3.1,1.3-5.1,1.3H538.8z"/>
	<path class="st2" d="M567.2,617.4v12.8c0,2.7-0.7,4.8-2.1,6.4c-1.4,1.5-3.5,2.3-6.1,2.3h-0.3c-2.7,0-4.7-0.8-6.1-2.3
		c-1.4-1.5-2.1-3.6-2.1-6.4v-12.8h3.5v12.8c0,1.9,0.4,3.3,1.3,4.2s2,1.4,3.6,1.4h0.3c1.6,0,2.8-0.5,3.6-1.4s1.3-2.3,1.3-4.2v-12.8
		H567.2z"/>
</g>
<g class="st1">
	<path class="st2" d="M572,638.4v-21h8c2.1,0,3.8,0.4,5.3,1.2c1.4,0.8,2.5,1.9,3.3,3.4c0.8,1.5,1.1,3.2,1.1,5.2v1.3
		c0,3.1-0.8,5.5-2.5,7.3s-4.1,2.6-7.2,2.6H572z M575.4,635.4h4.5c2,0,3.6-0.6,4.7-1.7c1.1-1.1,1.6-2.9,1.6-5.1v-1.4
		c0-2.2-0.5-3.9-1.6-5.1c-1.1-1.2-2.6-1.7-4.7-1.7h-4.5V635.4z"/>
</g>
<g class="st1">
	<path class="st2" d="M590.8,638.4l8.2-21h3.1l8.3,21h-3.7l-1.8-4.7H596l-1.7,4.7H590.8z M597.1,630.8h6.7l-3.4-9L597.1,630.8z"/>
</g>
<g class="st1">
	<path class="st2" d="M612.2,631.2v-3.1h8.8v3.1H612.2z"/>
</g>
<g class="st1">
	<path class="st2" d="M637.7,638.4l-5.5-8.1l-5.5,8.1h-4l7.4-10.7l-7.1-10.3h4l5.2,7.7l5.2-7.7h3.9l-7.1,10.3l7.4,10.7H637.7z"/>
	<path class="st2" d="M652.5,638.4v-21h3.5v18h9.6v3H652.5z"/>
	<path class="st2" d="M668.7,620.3v-3.5h3.4v3.5H668.7z M668.7,638.4V623h3.3v15.4H668.7z"/>
	<path class="st2" d="M684.3,638.8c-1.2,0-2.2-0.2-3-0.7c-0.9-0.5-1.5-1.1-2-2v2.3h-2.9v-21.9h3.3v8.3c0.5-0.7,1.1-1.2,1.9-1.6
		s1.7-0.6,2.7-0.6h0.2c1.3,0,2.4,0.3,3.4,0.9c1,0.6,1.8,1.4,2.3,2.6c0.6,1.1,0.9,2.5,0.9,4.1v1c0,1.6-0.3,3-0.9,4.2
		c-0.6,1.1-1.3,2-2.3,2.6c-1,0.6-2.1,0.9-3.4,0.9H684.3z M683.5,636h0.2c1.1,0,2.1-0.4,2.8-1.2c0.8-0.8,1.1-2,1.1-3.6v-1
		c0-1.6-0.4-2.8-1.1-3.6c-0.8-0.8-1.7-1.1-2.8-1.1h-0.2c-0.7,0-1.3,0.2-1.9,0.5c-0.6,0.3-1.1,0.8-1.5,1.5s-0.6,1.6-0.6,2.8v0.9
		c0,1.1,0.2,2,0.6,2.7c0.4,0.7,0.9,1.2,1.5,1.6C682.2,635.8,682.8,636,683.5,636z"/>
</g>
<g class="st1">
	<path class="st2" d="M694.5,638.4V623h2.9v2.9c0.4-0.9,0.9-1.7,1.6-2.2c0.7-0.6,1.7-0.8,2.9-0.8h1.6v3.1H702c-0.7,0-1.4,0.2-2,0.5
		c-0.6,0.3-1.1,0.8-1.5,1.5c-0.4,0.7-0.6,1.6-0.6,2.7v7.7H694.5z"/>
</g>
<g class="st1">
	<path class="st2" d="M710.1,638.8c-1.6,0-2.9-0.4-3.8-1.2c-0.9-0.8-1.3-1.9-1.3-3.4c0-1.3,0.4-2.3,1.2-3.1c0.8-0.8,1.9-1.3,3.5-1.5
		l5.4-0.7v-0.1c0-2.3-1-3.4-3.1-3.4h-0.3c-0.9,0-1.6,0.2-2.1,0.5c-0.6,0.3-1,0.8-1.4,1.6l-2.5-1.3c0.5-1.1,1.2-1.9,2.3-2.5
		c1-0.6,2.3-0.9,3.8-0.9h0.5c2,0,3.6,0.5,4.7,1.5c1.1,1,1.6,2.5,1.6,4.5v9.7h-2.9v-2.3c-0.5,0.8-1.1,1.5-2,2
		c-0.9,0.5-1.9,0.7-3.1,0.7H710.1z M715,631.2l-4.1,0.6c-1,0.1-1.8,0.4-2.2,0.7c-0.4,0.3-0.6,0.8-0.6,1.5c0,0.7,0.2,1.2,0.7,1.6
		c0.5,0.4,1.1,0.6,2,0.6h0.3c1.2,0,2.1-0.4,2.8-1.1s1.1-1.7,1.1-2.9V631.2z"/>
	<path class="st2" d="M722.5,638.4V623h2.9v2.9c0.4-0.9,0.9-1.7,1.6-2.2c0.7-0.6,1.7-0.8,2.9-0.8h1.6v3.1h-1.5c-0.7,0-1.4,0.2-2,0.5
		c-0.6,0.3-1.1,0.8-1.5,1.5c-0.4,0.7-0.6,1.6-0.6,2.7v7.7H722.5z"/>
	<path class="st2" d="M734.5,620.3v-3.5h3.4v3.5H734.5z M734.6,638.4V623h3.3v15.4H734.6z"/>
	<path class="st2" d="M748.5,638.8c-2.2,0-4-0.7-5.2-2c-1.2-1.3-1.9-3.2-1.9-5.6v-1c0-2.4,0.6-4.2,1.9-5.6c1.3-1.4,3-2,5.2-2h0.3
		c2.1,0,3.7,0.7,4.9,2c1.2,1.3,1.8,3,1.8,5.2v1.8h-10.9c0.1,1.5,0.4,2.6,1.1,3.4s1.6,1.1,2.8,1.1h0.5c0.9,0,1.6-0.2,2.2-0.5
		c0.6-0.3,1.1-0.8,1.4-1.4l2.4,1.6c-0.5,0.9-1.3,1.6-2.4,2.2c-1,0.5-2.3,0.8-3.7,0.8H748.5z M744.7,629.3h7.6v-0.2
		c0-1.2-0.3-2.2-0.9-2.8c-0.6-0.6-1.5-1-2.6-1h-0.2c-1.1,0-2,0.3-2.7,1S744.8,628,744.7,629.3z"/>
	<path class="st2" d="M764.5,638.8c-3.5,0-5.7-1.2-6.7-3.5l2.6-1.3c0.3,0.7,0.8,1.3,1.5,1.6c0.6,0.3,1.5,0.5,2.6,0.5h0.4
		c2.1,0,3.1-0.6,3.1-1.8v-0.1c0-1-0.7-1.7-2-1.8l-3.3-0.5c-1.4-0.2-2.5-0.7-3.3-1.4c-0.8-0.7-1.2-1.7-1.2-2.9v-0.3
		c0-1.4,0.5-2.5,1.6-3.3c1.1-0.8,2.5-1.2,4.3-1.2h0.4c1.5,0,2.8,0.3,3.8,0.9c1.1,0.6,1.8,1.4,2.2,2.5l-2.6,1.2
		c-0.5-1.2-1.7-1.8-3.4-1.8h-0.4c-0.9,0-1.6,0.2-2.1,0.5c-0.5,0.3-0.7,0.8-0.7,1.3v0.2c0,0.5,0.1,0.8,0.4,1.1
		c0.3,0.3,0.8,0.5,1.5,0.6l3.3,0.5c1.4,0.2,2.5,0.7,3.3,1.5c0.8,0.8,1.2,1.8,1.2,3v0.3c0,1.5-0.5,2.6-1.6,3.4
		c-1.1,0.8-2.6,1.2-4.7,1.2H764.5z"/>
</g>
<g>
	<rect x="50.5" y="864.3" class="st0" width="1199" height="69"/>
	<path class="st0" d="M1250,933.8H50v-70h1200V933.8z M51,932.8h1198v-68H51V932.8z"/>
</g>
<g>
	<rect x="50.5" y="773.3" class="st0" width="1199" height="69"/>
	<path class="st0" d="M1250,842.8H50v-70h1200V842.8z M51,841.8h1198v-68H51V841.8z"/>
</g>
<g class="st1">
	<path class="st2" d="M598.3,908c-4.3,0-7-1.5-8.2-4.6l2.9-1.5c0.4,1,1.1,1.8,1.9,2.3c0.9,0.5,2,0.8,3.3,0.8h0.4
		c1.4,0,2.6-0.3,3.3-0.8c0.8-0.5,1.2-1.3,1.2-2.2v-0.3c0-0.8-0.2-1.5-0.8-2c-0.5-0.5-1.3-0.9-2.3-1l-3.5-0.5
		c-3.9-0.5-5.8-2.4-5.8-5.7V892c0-1.2,0.3-2.2,0.9-3.1c0.6-0.9,1.5-1.5,2.6-2c1.1-0.5,2.4-0.7,3.9-0.7h0.4c1.9,0,3.4,0.4,4.7,1.1
		c1.3,0.8,2.2,1.8,2.8,3.3l-3,1.3c-0.7-1.8-2.2-2.7-4.6-2.7h-0.4c-1.3,0-2.3,0.3-3,0.8c-0.7,0.5-1.1,1.2-1.1,2.1v0.4
		c0,1.5,1,2.4,3,2.7l3.5,0.5c2,0.3,3.4,0.9,4.4,2c1,1.1,1.5,2.4,1.5,4.1v0.4c0,1.9-0.7,3.4-2.1,4.4c-1.4,1.1-3.3,1.6-5.8,1.6H598.3z
		"/>
</g>
<g class="st1">
	<path class="st2" d="M609.3,913.6v-2.8h1c0.9,0,1.6-0.2,2.1-0.5c0.5-0.3,0.9-1,1.2-2l0.2-0.7l-6-15.4h3.5l4.2,11.8l3.9-11.8h3.3
		l-5.8,16c-0.5,1.5-1.1,2.6-1.6,3.4c-0.6,0.8-1.2,1.3-2,1.6c-0.8,0.3-1.7,0.4-2.9,0.4H609.3z"/>
</g>
<g class="st1">
	<path class="st2" d="M630.8,908c-3.5,0-5.7-1.2-6.7-3.5l2.6-1.3c0.3,0.7,0.8,1.3,1.5,1.6c0.6,0.3,1.5,0.5,2.6,0.5h0.4
		c2.1,0,3.1-0.6,3.1-1.8v-0.1c0-1-0.7-1.7-2-1.8L629,901c-1.4-0.2-2.5-0.7-3.3-1.4s-1.2-1.7-1.2-2.9v-0.3c0-1.4,0.5-2.5,1.6-3.3
		c1.1-0.8,2.5-1.2,4.3-1.2h0.4c1.5,0,2.8,0.3,3.8,0.9c1.1,0.6,1.8,1.4,2.2,2.5l-2.6,1.2c-0.5-1.2-1.7-1.8-3.4-1.8h-0.4
		c-0.9,0-1.6,0.2-2.1,0.5c-0.5,0.3-0.7,0.8-0.7,1.3v0.2c0,0.5,0.1,0.8,0.4,1.1c0.3,0.3,0.8,0.5,1.5,0.6l3.3,0.5
		c1.4,0.2,2.5,0.7,3.3,1.5c0.8,0.8,1.2,1.8,1.2,3v0.3c0,1.5-0.5,2.6-1.6,3.4c-1.1,0.8-2.6,1.2-4.6,1.2H630.8z"/>
</g>
<g class="st1">
	<path class="st2" d="M647.6,907.8c-1.9,0-3.3-0.4-4.1-1.3c-0.8-0.9-1.2-2.1-1.2-3.7V895H639v-2.7h3.2v-4.5h3.3v4.5h5l-0.4,2.7h-4.6
		v7.6c0,0.9,0.2,1.5,0.6,1.8c0.4,0.4,1,0.6,1.8,0.6h2.6v2.8H647.6z"/>
	<path class="st2" d="M660.1,908c-2.2,0-4-0.7-5.2-2c-1.3-1.3-1.9-3.2-1.9-5.6v-1c0-2.4,0.6-4.2,1.9-5.6c1.3-1.4,3-2,5.2-2h0.3
		c2.1,0,3.7,0.7,4.9,2c1.2,1.3,1.8,3,1.8,5.2v1.8h-10.9c0.1,1.5,0.4,2.6,1.1,3.4s1.6,1.1,2.8,1.1h0.5c0.9,0,1.6-0.2,2.2-0.5
		c0.6-0.3,1.1-0.8,1.4-1.4l2.4,1.6c-0.5,0.9-1.3,1.6-2.4,2.2c-1,0.5-2.3,0.8-3.7,0.8H660.1z M656.2,898.6h7.7v-0.2
		c0-1.2-0.3-2.2-0.9-2.8c-0.6-0.6-1.5-1-2.6-1h-0.2c-1.1,0-2,0.3-2.7,1C656.7,896.2,656.3,897.2,656.2,898.6z"/>
	<path class="st2" d="M670.5,907.6v-15.4h2.9v2.3c0.5-0.8,1.1-1.5,1.8-2c0.8-0.5,1.7-0.7,2.7-0.7h0.3c2.3,0,3.9,1,4.8,2.9
		c0.5-0.9,1.1-1.6,2-2.1c0.8-0.5,1.8-0.8,2.9-0.8h0.3c1.7,0,3,0.5,4,1.6s1.5,2.6,1.5,4.7v9.5h-3.3v-9c0-1.3-0.2-2.2-0.7-2.9
		c-0.5-0.7-1.2-1-2.2-1h-0.2c-0.6,0-1.1,0.2-1.6,0.5c-0.5,0.3-1,0.8-1.3,1.5c-0.3,0.7-0.5,1.5-0.5,2.5v8.5h-3.3v-9
		c0-1.3-0.2-2.2-0.7-2.9s-1.2-1-2.2-1h-0.2c-0.6,0-1.1,0.2-1.6,0.5c-0.5,0.3-1,0.8-1.3,1.5c-0.3,0.7-0.5,1.5-0.5,2.5v8.5H670.5z"/>
	<path class="st2" d="M703.3,908c-3.5,0-5.7-1.2-6.7-3.5l2.6-1.3c0.3,0.7,0.8,1.3,1.5,1.6c0.6,0.3,1.5,0.5,2.6,0.5h0.4
		c2.1,0,3.1-0.6,3.1-1.8v-0.1c0-1-0.7-1.7-2-1.8l-3.3-0.5c-1.4-0.2-2.5-0.7-3.3-1.4c-0.8-0.7-1.2-1.7-1.2-2.9v-0.3
		c0-1.4,0.5-2.5,1.6-3.3c1.1-0.8,2.5-1.2,4.3-1.2h0.4c1.5,0,2.8,0.3,3.8,0.9c1.1,0.6,1.8,1.4,2.2,2.5l-2.6,1.2
		c-0.5-1.2-1.7-1.8-3.4-1.8h-0.4c-0.9,0-1.6,0.2-2.1,0.5c-0.5,0.3-0.7,0.8-0.7,1.3v0.2c0,0.5,0.1,0.8,0.4,1.1
		c0.3,0.3,0.8,0.5,1.5,0.6l3.3,0.5c1.4,0.2,2.5,0.7,3.3,1.5c0.8,0.8,1.2,1.8,1.2,3v0.3c0,1.5-0.5,2.6-1.6,3.4
		c-1.1,0.8-2.6,1.2-4.7,1.2H703.3z"/>
</g>
<g class="st1">
	<path class="st2" d="M462.7,817.6v-21h8c2.1,0,3.8,0.4,5.3,1.2c1.4,0.8,2.5,1.9,3.3,3.4c0.8,1.5,1.1,3.2,1.1,5.2v1.3
		c0,3.1-0.8,5.5-2.5,7.3s-4.1,2.6-7.2,2.6H462.7z M466.1,814.6h4.5c2,0,3.6-0.6,4.7-1.7c1.1-1.1,1.6-2.9,1.6-5.1v-1.4
		c0-2.2-0.5-3.9-1.6-5.1c-1.1-1.2-2.6-1.7-4.7-1.7h-4.5V814.6z"/>
</g>
<g class="st1">
	<path class="st2" d="M488.2,818c-1.6,0-2.9-0.4-3.8-1.2c-0.9-0.8-1.3-1.9-1.3-3.4c0-1.3,0.4-2.3,1.2-3.1c0.8-0.8,1.9-1.3,3.5-1.5
		l5.4-0.7V808c0-2.3-1-3.4-3.1-3.4h-0.3c-0.9,0-1.6,0.2-2.1,0.5c-0.6,0.3-1,0.8-1.4,1.6l-2.5-1.3c0.5-1.1,1.2-1.9,2.3-2.5
		c1-0.6,2.3-0.9,3.8-0.9h0.5c2,0,3.6,0.5,4.7,1.5c1.1,1,1.6,2.5,1.6,4.5v9.7h-2.9v-2.3c-0.5,0.8-1.1,1.5-2,2
		c-0.9,0.5-1.9,0.7-3.1,0.7H488.2z M493.2,810.4l-4.1,0.6c-1,0.1-1.8,0.4-2.2,0.7c-0.4,0.3-0.6,0.8-0.6,1.5c0,0.7,0.2,1.2,0.7,1.6
		c0.5,0.4,1.1,0.6,2,0.6h0.3c1.2,0,2.1-0.4,2.8-1.1s1.1-1.7,1.1-2.9V810.4z"/>
</g>
<g class="st1">
	<path class="st2" d="M507.1,817.8c-1.9,0-3.3-0.4-4.1-1.3s-1.2-2.1-1.2-3.7V805h-3.2v-2.7h3.2v-4.5h3.3v4.5h5l-0.4,2.7H505v7.6
		c0,0.9,0.2,1.5,0.6,1.8c0.4,0.4,1,0.6,1.8,0.6h2.6v2.8H507.1z"/>
	<path class="st2" d="M517.5,818c-1.6,0-2.9-0.4-3.8-1.2c-0.9-0.8-1.4-1.9-1.4-3.4c0-1.3,0.4-2.3,1.2-3.1c0.8-0.8,1.9-1.3,3.5-1.5
		l5.4-0.7V808c0-2.3-1-3.4-3.1-3.4H519c-0.9,0-1.6,0.2-2.1,0.5c-0.6,0.3-1,0.8-1.4,1.6l-2.5-1.3c0.5-1.1,1.2-1.9,2.3-2.5
		c1-0.6,2.3-0.9,3.8-0.9h0.5c2,0,3.6,0.5,4.6,1.5c1.1,1,1.6,2.5,1.6,4.5v9.7h-2.9v-2.3c-0.5,0.8-1.1,1.5-2,2
		c-0.9,0.5-1.9,0.7-3.1,0.7H517.5z M522.4,810.4l-4.1,0.6c-1,0.1-1.8,0.4-2.2,0.7c-0.4,0.3-0.6,0.8-0.6,1.5c0,0.7,0.2,1.2,0.7,1.6
		s1.1,0.6,2,0.6h0.3c1.2,0,2.1-0.4,2.8-1.1s1-1.7,1-2.9V810.4z"/>
	<path class="st2" d="M546.3,818c-3,0-5.3-0.9-6.9-2.7c-1.6-1.8-2.4-4.3-2.4-7.6v-1.3c0-2.1,0.4-3.9,1.1-5.4
		c0.7-1.5,1.8-2.7,3.2-3.5c1.4-0.8,3.1-1.2,5-1.2h0.3c2,0,3.7,0.5,5.1,1.4c1.4,0.9,2.3,2.2,2.9,3.9l-3.2,1.1c-0.3-1.1-0.9-2-1.8-2.5
		c-0.8-0.5-1.8-0.8-3-0.8h-0.3c-1.8,0-3.3,0.6-4.3,1.8s-1.6,3-1.6,5.3v1.4c0,2.4,0.5,4.2,1.5,5.4s2.5,1.8,4.4,1.8h0.3
		c1.2,0,2.3-0.3,3.1-0.8c0.9-0.5,1.5-1.3,1.8-2.4l3.1,1.2c-0.6,1.6-1.6,2.8-3,3.7s-3.1,1.3-5.1,1.3H546.3z"/>
	<path class="st2" d="M564.2,818c-2.2,0-4-0.7-5.2-2c-1.3-1.3-1.9-3.2-1.9-5.6v-1c0-2.4,0.6-4.2,1.9-5.6c1.3-1.4,3-2,5.2-2h0.3
		c2.1,0,3.7,0.7,4.9,2c1.2,1.3,1.8,3,1.8,5.2v1.8h-10.9c0.1,1.5,0.4,2.6,1.1,3.4c0.7,0.7,1.6,1.1,2.8,1.1h0.5c0.9,0,1.6-0.2,2.2-0.5
		c0.6-0.3,1.1-0.8,1.4-1.4l2.4,1.6c-0.5,0.9-1.3,1.6-2.4,2.2c-1,0.5-2.3,0.8-3.7,0.8H564.2z M560.4,808.6h7.7v-0.2
		c0-1.2-0.3-2.2-0.9-2.8c-0.6-0.6-1.5-1-2.6-1h-0.2c-1.1,0-2,0.3-2.7,1C560.9,806.2,560.5,807.2,560.4,808.6z"/>
</g>
<g class="st1">
	<path class="st2" d="M574.6,817.6v-15.4h2.9v2.3c0.5-0.8,1.1-1.5,2-2c0.8-0.5,1.8-0.7,3-0.7h0.3c1.7,0,3.1,0.5,4.2,1.6
		s1.6,2.6,1.6,4.7v9.5h-3.3v-9c0-1.3-0.3-2.2-0.8-2.9s-1.4-1-2.5-1h-0.2c-0.6,0-1.2,0.2-1.8,0.5c-0.6,0.3-1,0.8-1.4,1.5
		c-0.4,0.7-0.5,1.5-0.5,2.5v8.5H574.6z"/>
</g>
<g class="st1">
	<path class="st2" d="M599.3,817.8c-1.9,0-3.3-0.4-4.1-1.3s-1.2-2.1-1.2-3.7V805h-3.2v-2.7h3.2v-4.5h3.3v4.5h5l-0.4,2.7h-4.6v7.6
		c0,0.9,0.2,1.5,0.6,1.8c0.4,0.4,1,0.6,1.8,0.6h2.6v2.8H599.3z"/>
	<path class="st2" d="M611.8,818c-2.2,0-4-0.7-5.2-2c-1.2-1.3-1.9-3.2-1.9-5.6v-1c0-2.4,0.6-4.2,1.9-5.6c1.3-1.4,3-2,5.2-2h0.3
		c2.1,0,3.7,0.7,4.9,2c1.2,1.3,1.8,3,1.8,5.2v1.8h-10.9c0.1,1.5,0.4,2.6,1.1,3.4s1.6,1.1,2.8,1.1h0.5c0.9,0,1.6-0.2,2.2-0.5
		c0.6-0.3,1.1-0.8,1.4-1.4l2.4,1.6c-0.5,0.9-1.3,1.6-2.4,2.2c-1,0.5-2.3,0.8-3.7,0.8H611.8z M607.9,808.6h7.6v-0.2
		c0-1.2-0.3-2.2-0.9-2.8c-0.6-0.6-1.5-1-2.6-1h-0.2c-1.1,0-2,0.3-2.7,1S608.1,807.2,607.9,808.6z"/>
	<path class="st2" d="M622.2,817.6v-15.4h2.9v2.9c0.4-0.9,0.9-1.7,1.6-2.2c0.7-0.6,1.7-0.8,2.9-0.8h1.6v3.1h-1.5
		c-0.7,0-1.4,0.2-2,0.5c-0.6,0.3-1.1,0.8-1.5,1.5c-0.4,0.7-0.6,1.6-0.6,2.7v7.7H622.2z"/>
	<path class="st2" d="M642.4,817.6v-21h3.5v21H642.4z"/>
</g>
<g class="st1">
	<path class="st2" d="M650.7,817.6v-15.4h2.9v2.3c0.5-0.8,1.1-1.5,2-2c0.8-0.5,1.8-0.7,3-0.7h0.3c1.7,0,3.1,0.5,4.2,1.6
		s1.6,2.6,1.6,4.7v9.5h-3.3v-9c0-1.3-0.3-2.2-0.8-2.9s-1.4-1-2.5-1h-0.2c-0.6,0-1.2,0.2-1.8,0.5c-0.6,0.3-1,0.8-1.4,1.5
		c-0.4,0.7-0.5,1.5-0.5,2.5v8.5H650.7z"/>
</g>
<g class="st1">
	<path class="st2" d="M670.2,817.6V805H667v-2.7h3.1v-1.1c0-1.8,0.5-3.2,1.4-4.1c0.9-1,2.4-1.5,4.4-1.5h2.6v2.8H676
		c-0.9,0-1.6,0.2-2,0.7c-0.4,0.5-0.6,1.1-0.6,2v1.2h5l-0.4,2.7h-4.7v12.6H670.2z"/>
</g>
<g class="st1">
	<path class="st2" d="M681.1,817.6v-15.4h2.9v2.9c0.4-0.9,0.9-1.7,1.6-2.2c0.7-0.6,1.7-0.8,2.9-0.8h1.6v3.1h-1.5
		c-0.7,0-1.4,0.2-2,0.5c-0.6,0.3-1.1,0.8-1.5,1.5c-0.4,0.7-0.6,1.6-0.6,2.7v7.7H681.1z"/>
</g>
<g class="st1">
	<path class="st2" d="M696.7,818c-1.6,0-2.9-0.4-3.8-1.2c-0.9-0.8-1.3-1.9-1.3-3.4c0-1.3,0.4-2.3,1.2-3.1c0.8-0.8,1.9-1.3,3.5-1.5
		l5.4-0.7V808c0-2.3-1-3.4-3.1-3.4h-0.3c-0.9,0-1.6,0.2-2.1,0.5c-0.6,0.3-1,0.8-1.4,1.6l-2.5-1.3c0.5-1.1,1.2-1.9,2.3-2.5
		c1-0.6,2.3-0.9,3.8-0.9h0.5c2,0,3.6,0.5,4.7,1.5c1.1,1,1.6,2.5,1.6,4.5v9.7H702v-2.3c-0.5,0.8-1.1,1.5-2,2
		c-0.9,0.5-1.9,0.7-3.1,0.7H696.7z M701.6,810.4l-4.1,0.6c-1,0.1-1.8,0.4-2.2,0.7c-0.4,0.3-0.6,0.8-0.6,1.5c0,0.7,0.2,1.2,0.7,1.6
		c0.5,0.4,1.1,0.6,2,0.6h0.3c1.2,0,2.1-0.4,2.8-1.1s1.1-1.7,1.1-2.9V810.4z"/>
</g>
<g class="st1">
	<path class="st2" d="M714.6,818c-3.5,0-5.7-1.2-6.7-3.5l2.6-1.3c0.3,0.7,0.8,1.3,1.5,1.6c0.6,0.3,1.5,0.5,2.6,0.5h0.4
		c2.1,0,3.1-0.6,3.1-1.8v-0.1c0-1-0.7-1.7-2-1.8l-3.3-0.5c-1.4-0.2-2.5-0.7-3.3-1.4c-0.8-0.7-1.2-1.7-1.2-2.9v-0.3
		c0-1.4,0.5-2.5,1.6-3.3c1.1-0.8,2.5-1.2,4.3-1.2h0.4c1.5,0,2.8,0.3,3.8,0.9c1.1,0.6,1.8,1.4,2.2,2.5l-2.6,1.2
		c-0.5-1.2-1.7-1.8-3.4-1.8h-0.4c-0.9,0-1.6,0.2-2.1,0.5c-0.5,0.3-0.7,0.8-0.7,1.3v0.2c0,0.5,0.1,0.8,0.4,1.1
		c0.3,0.3,0.8,0.5,1.5,0.6l3.3,0.5c1.4,0.2,2.5,0.7,3.3,1.5c0.8,0.8,1.2,1.8,1.2,3v0.3c0,1.5-0.5,2.6-1.6,3.4
		c-1.1,0.8-2.6,1.2-4.7,1.2H714.6z"/>
</g>
<g class="st1">
	<path class="st2" d="M731.5,817.8c-1.9,0-3.3-0.4-4.1-1.3s-1.2-2.1-1.2-3.7V805h-3.2v-2.7h3.2v-4.5h3.3v4.5h5L734,805h-4.6v7.6
		c0,0.9,0.2,1.5,0.6,1.8c0.4,0.4,1,0.6,1.8,0.6h2.6v2.8H731.5z"/>
</g>
<g class="st1">
	<path class="st2" d="M737.8,817.6v-15.4h2.9v2.9c0.4-0.9,0.9-1.7,1.6-2.2c0.7-0.6,1.7-0.8,2.9-0.8h1.6v3.1h-1.5
		c-0.7,0-1.4,0.2-2,0.5c-0.6,0.3-1.1,0.8-1.5,1.5c-0.4,0.7-0.6,1.6-0.6,2.7v7.7H737.8z"/>
	<path class="st2" d="M755.3,818c-1.7,0-3.1-0.5-4.1-1.6s-1.5-2.6-1.5-4.7v-9.5h3.3v9c0,1.3,0.3,2.3,0.8,2.9c0.5,0.7,1.3,1,2.3,1
		h0.2c0.6,0,1.2-0.2,1.8-0.5c0.5-0.3,1-0.8,1.4-1.5c0.3-0.7,0.5-1.5,0.5-2.5v-8.5h3.3v15.4h-2.9v-2.3c-0.5,0.8-1.1,1.5-1.9,2
		c-0.8,0.5-1.8,0.7-2.9,0.7H755.3z"/>
</g>
<g class="st1">
	<path class="st2" d="M774.1,818c-2.2,0-4-0.7-5.3-2c-1.3-1.3-2-3.2-2-5.6v-1c0-1.6,0.3-3,0.9-4.1c0.6-1.1,1.5-2,2.6-2.6
		c1.1-0.6,2.4-0.9,3.8-0.9h0.3c1.4,0,2.6,0.3,3.6,1c1,0.7,1.7,1.6,2.1,2.7l-2.6,1.2c-0.3-0.6-0.7-1.1-1.2-1.5
		c-0.5-0.4-1.1-0.6-1.9-0.6h-0.3c-1.2,0-2.1,0.4-2.9,1.2c-0.8,0.8-1.1,2-1.1,3.5v1.1c0,1.6,0.4,2.8,1.1,3.6c0.7,0.8,1.7,1.1,2.9,1.1
		h0.3c0.8,0,1.5-0.2,2-0.5c0.5-0.3,1-0.8,1.3-1.4l2.6,1.3c-0.4,1-1.2,1.8-2.2,2.5c-1,0.6-2.2,1-3.7,1H774.1z"/>
</g>
<g class="st1">
	<path class="st2" d="M790.4,817.8c-1.9,0-3.3-0.4-4.1-1.3s-1.2-2.1-1.2-3.7V805h-3.2v-2.7h3.2v-4.5h3.3v4.5h5l-0.4,2.7h-4.6v7.6
		c0,0.9,0.2,1.5,0.6,1.8c0.4,0.4,1,0.6,1.8,0.6h2.6v2.8H790.4z"/>
</g>
<g class="st1">
	<path class="st2" d="M801.8,818c-1.7,0-3.1-0.5-4.1-1.6s-1.5-2.6-1.5-4.7v-9.5h3.3v9c0,1.3,0.3,2.3,0.8,2.9c0.5,0.7,1.3,1,2.3,1
		h0.2c0.6,0,1.2-0.2,1.8-0.5c0.5-0.3,1-0.8,1.4-1.5c0.3-0.7,0.5-1.5,0.5-2.5v-8.5h3.3v15.4h-2.9v-2.3c-0.5,0.8-1.1,1.5-1.9,2
		c-0.8,0.5-1.8,0.7-2.9,0.7H801.8z"/>
</g>
<g class="st1">
	<path class="st2" d="M814.1,817.6v-15.4h2.9v2.9c0.4-0.9,0.9-1.7,1.6-2.2c0.7-0.6,1.7-0.8,2.9-0.8h1.6v3.1h-1.5
		c-0.7,0-1.4,0.2-2,0.5c-0.6,0.3-1.1,0.8-1.5,1.5c-0.4,0.7-0.6,1.6-0.6,2.7v7.7H814.1z"/>
</g>
<g class="st1">
	<path class="st2" d="M831.8,818c-2.2,0-4-0.7-5.2-2c-1.3-1.3-1.9-3.2-1.9-5.6v-1c0-2.4,0.6-4.2,1.9-5.6c1.3-1.4,3-2,5.2-2h0.3
		c2.1,0,3.7,0.7,4.9,2c1.2,1.3,1.8,3,1.8,5.2v1.8h-10.9c0.1,1.5,0.4,2.6,1.1,3.4c0.7,0.7,1.6,1.1,2.8,1.1h0.5c0.9,0,1.6-0.2,2.2-0.5
		c0.6-0.3,1.1-0.8,1.4-1.4l2.4,1.6c-0.5,0.9-1.3,1.6-2.4,2.2c-1,0.5-2.3,0.8-3.7,0.8H831.8z M827.9,808.6h7.7v-0.2
		c0-1.2-0.3-2.2-0.9-2.8c-0.6-0.6-1.5-1-2.6-1h-0.2c-1.1,0-2,0.3-2.7,1C828.4,806.2,828.1,807.2,827.9,808.6z"/>
</g>
<g>
	<rect x="50.5" y="955.3" class="st0" width="1199" height="69"/>
	<path class="st0" d="M1250,1024.8H50v-70h1200V1024.8z M51,1023.8h1198v-68H51V1023.8z"/>
</g>
<g class="st1">
	<path class="st2" d="M503.8,999c-3.2,0-5.6-0.9-7.3-2.6c-1.7-1.7-2.5-4.3-2.5-7.6v-1.3c0-2.2,0.4-4,1.1-5.5s1.8-2.7,3.2-3.5
		c1.4-0.8,3.1-1.2,5-1.2h0.3c2,0,3.6,0.4,5,1.3c1.4,0.8,2.3,2.1,2.9,3.7l-3.1,1.1c-0.7-2-2.2-3-4.8-3h-0.3c-1.9,0-3.3,0.6-4.4,1.9
		s-1.5,3-1.5,5.4v1.4c0,4.7,2.1,7.1,6.3,7.1h0.3c0.9,0,1.7-0.1,2.5-0.3s1.5-0.4,2.1-0.7v-4.8h-4.9l0.4-2.9h7.8v9.4
		c-0.9,0.7-2.1,1.3-3.4,1.7c-1.3,0.4-2.8,0.6-4.4,0.6H503.8z"/>
	<path class="st2" d="M516.6,998.6v-21h7.7c2.4,0,4.3,0.6,5.6,1.7c1.4,1.2,2.1,2.7,2.1,4.8v0.6c0,2.1-0.7,3.7-2.1,4.8
		c-1.4,1.1-3.3,1.7-5.6,1.7H520v7.4H516.6z M520,988.3h4.1c1.3,0,2.4-0.3,3.2-0.8c0.8-0.6,1.2-1.4,1.2-2.6V984c0-1.2-0.4-2-1.2-2.6
		c-0.8-0.6-1.8-0.8-3.2-0.8H520V988.3z"/>
</g>
<g class="st1">
	<path class="st2" d="M552.4,977.6v12.8c0,2.7-0.7,4.8-2.1,6.4c-1.4,1.5-3.5,2.3-6.1,2.3h-0.3c-2.7,0-4.7-0.8-6.1-2.3
		c-1.4-1.5-2.1-3.6-2.1-6.4v-12.8h3.5v12.8c0,1.9,0.4,3.3,1.3,4.2s2,1.4,3.6,1.4h0.3c1.6,0,2.8-0.5,3.6-1.4s1.3-2.3,1.3-4.2v-12.8
		H552.4z"/>
</g>
<g class="st1">
	<path class="st2" d="M556.2,1003.5l-1.1-1.5l1-0.7c0.4-0.3,0.8-0.6,0.9-0.9c0.2-0.3,0.3-0.8,0.3-1.4v-0.3h-1.7v-3.8h3.6v4.2
		c0,0.7-0.1,1.3-0.2,1.7c-0.2,0.4-0.4,0.8-0.7,1.1c-0.3,0.3-0.7,0.7-1.2,1L556.2,1003.5z"/>
	<path class="st2" d="M579.7,999c-3,0-5.3-0.9-6.9-2.7c-1.6-1.8-2.4-4.3-2.4-7.6v-1.3c0-2.1,0.4-3.9,1.1-5.4
		c0.7-1.5,1.8-2.7,3.2-3.5c1.4-0.8,3.1-1.2,5-1.2h0.3c2,0,3.7,0.5,5.1,1.4c1.4,0.9,2.3,2.2,2.9,3.9l-3.2,1.1c-0.3-1.1-0.9-2-1.8-2.5
		c-0.8-0.5-1.8-0.8-3-0.8h-0.3c-1.8,0-3.3,0.6-4.3,1.8s-1.6,3-1.6,5.3v1.4c0,2.4,0.5,4.2,1.5,5.4s2.5,1.8,4.4,1.8h0.3
		c1.2,0,2.3-0.3,3.1-0.8c0.9-0.5,1.5-1.3,1.8-2.4l3.1,1.2c-0.6,1.6-1.6,2.8-3,3.7S582,999,580,999H579.7z"/>
	<path class="st2" d="M591.8,998.6v-21h7.7c2.4,0,4.3,0.6,5.6,1.7c1.4,1.2,2.1,2.7,2.1,4.8v0.6c0,2.1-0.7,3.7-2.1,4.8
		s-3.3,1.7-5.6,1.7h-4.2v7.4H591.8z M595.3,988.3h4.1c1.3,0,2.4-0.3,3.2-0.8c0.8-0.6,1.2-1.4,1.2-2.6V984c0-1.2-0.4-2-1.2-2.6
		c-0.8-0.6-1.8-0.8-3.2-0.8h-4.1V988.3z"/>
</g>
<g class="st1">
	<path class="st2" d="M627.6,977.6v12.8c0,2.7-0.7,4.8-2.1,6.4c-1.4,1.5-3.5,2.3-6.1,2.3H619c-2.7,0-4.7-0.8-6.1-2.3
		c-1.4-1.5-2.1-3.6-2.1-6.4v-12.8h3.5v12.8c0,1.9,0.4,3.3,1.3,4.2s2,1.4,3.6,1.4h0.3c1.6,0,2.8-0.5,3.6-1.4s1.3-2.3,1.3-4.2v-12.8
		H627.6z"/>
</g>
<g class="st1">
	<path class="st2" d="M631.5,1003.5l-1.1-1.5l1-0.7c0.4-0.3,0.8-0.6,0.9-0.9c0.2-0.3,0.3-0.8,0.3-1.4v-0.3h-1.7v-3.8h3.6v4.2
		c0,0.7-0.1,1.3-0.2,1.7c-0.2,0.4-0.4,0.8-0.7,1.1c-0.3,0.3-0.7,0.7-1.2,1L631.5,1003.5z"/>
	<path class="st2" d="M646.6,998.6v-21h3l10.7,15.2v-15.2h3.3v21h-3l-10.7-15.2v15.2H646.6z"/>
	<path class="st2" d="M668.9,998.6v-21h3.5v21H668.9z"/>
	<path class="st2" d="M686,999c-3,0-5.3-0.9-6.9-2.7c-1.6-1.8-2.4-4.3-2.4-7.6v-1.3c0-2.1,0.4-3.9,1.1-5.4c0.7-1.5,1.8-2.7,3.2-3.5
		c1.4-0.8,3.1-1.2,5-1.2h0.3c2,0,3.7,0.5,5.1,1.4c1.4,0.9,2.3,2.2,2.9,3.9l-3.2,1.1c-0.3-1.1-0.9-2-1.8-2.5c-0.8-0.5-1.8-0.8-3-0.8
		h-0.3c-1.8,0-3.3,0.6-4.3,1.8s-1.6,3-1.6,5.3v1.4c0,2.4,0.5,4.2,1.5,5.4s2.5,1.8,4.4,1.8h0.3c1.2,0,2.3-0.3,3.1-0.8
		c0.9-0.5,1.5-1.3,1.8-2.4l3.1,1.2c-0.6,1.6-1.6,2.8-3,3.7s-3.1,1.3-5.1,1.3H686z"/>
	<path class="st2" d="M697.9,1003.5l-1.1-1.5l1-0.7c0.4-0.3,0.8-0.6,0.9-0.9c0.2-0.3,0.3-0.8,0.3-1.4v-0.3h-1.7v-3.8h3.6v4.2
		c0,0.7-0.1,1.3-0.2,1.7c-0.2,0.4-0.4,0.8-0.7,1.1c-0.3,0.3-0.7,0.7-1.2,1L697.9,1003.5z"/>
	<path class="st2" d="M719.6,999c-4.3,0-7-1.5-8.2-4.6l2.9-1.5c0.4,1,1.1,1.8,1.9,2.3c0.9,0.5,2,0.8,3.3,0.8h0.4
		c1.4,0,2.5-0.3,3.3-0.8c0.8-0.5,1.2-1.3,1.2-2.2v-0.3c0-0.8-0.2-1.5-0.8-2c-0.5-0.5-1.3-0.9-2.3-1l-3.5-0.5
		c-3.9-0.5-5.8-2.4-5.8-5.7V983c0-1.2,0.3-2.2,0.9-3.1c0.6-0.9,1.5-1.5,2.6-2c1.1-0.5,2.4-0.7,3.9-0.7h0.4c1.9,0,3.4,0.4,4.7,1.1
		s2.2,1.8,2.8,3.3l-3,1.3c-0.7-1.8-2.2-2.7-4.6-2.7h-0.4c-1.3,0-2.3,0.3-3,0.8c-0.7,0.5-1.1,1.2-1.1,2.1v0.4c0,1.5,1,2.4,3,2.7
		l3.5,0.5c2,0.3,3.4,0.9,4.4,2c1,1.1,1.5,2.4,1.5,4.1v0.4c0,1.9-0.7,3.4-2.1,4.4c-1.4,1.1-3.3,1.6-5.8,1.6H719.6z"/>
	<path class="st2" d="M729.9,983.3h3.5l3.1,11.1l3.2-11.1h2.9l3.2,11l3.2-11h3.3l-4.9,15.4h-3l-3.3-11.2l-3.3,11.2h-3L729.9,983.3z"
		/>
</g>
<g class="st1">
	<path class="st2" d="M755.3,980.5v-3.5h3.4v3.5H755.3z M755.3,998.6v-15.4h3.3v15.4H755.3z"/>
</g>
<g class="st1">
	<path class="st2" d="M769.7,998.8c-1.9,0-3.3-0.4-4.1-1.3s-1.2-2.1-1.2-3.7V986h-3.2v-2.7h3.2v-4.5h3.3v4.5h5l-0.4,2.7h-4.6v7.6
		c0,0.9,0.2,1.5,0.6,1.8c0.4,0.4,1,0.6,1.8,0.6h2.6v2.8H769.7z"/>
	<path class="st2" d="M782.4,999c-2.2,0-4-0.7-5.3-2c-1.3-1.3-2-3.2-2-5.6v-1c0-1.6,0.3-3,0.9-4.1s1.5-2,2.6-2.6
		c1.1-0.6,2.4-0.9,3.8-0.9h0.3c1.4,0,2.6,0.3,3.6,1s1.7,1.6,2.1,2.7l-2.6,1.2c-0.3-0.6-0.7-1.1-1.2-1.5s-1.1-0.6-1.9-0.6h-0.3
		c-1.2,0-2.1,0.4-2.9,1.2c-0.8,0.8-1.1,2-1.1,3.5v1.1c0,1.6,0.4,2.8,1.1,3.6c0.7,0.8,1.7,1.1,2.9,1.1h0.3c0.8,0,1.5-0.2,2-0.5
		c0.5-0.3,1-0.8,1.3-1.4l2.6,1.3c-0.4,1-1.2,1.8-2.2,2.5c-1,0.6-2.2,1-3.7,1H782.4z"/>
	<path class="st2" d="M791.8,998.6v-21.9h3.3v8.3c0.5-0.7,1.1-1.2,1.9-1.6c0.8-0.4,1.7-0.6,2.7-0.6h0.3c1.7,0,3.1,0.5,4.2,1.6
		s1.6,2.6,1.6,4.7v9.5h-3.3v-9c0-1.3-0.3-2.2-0.8-2.9s-1.4-1-2.5-1h-0.2c-0.6,0-1.2,0.2-1.8,0.5c-0.6,0.3-1,0.8-1.4,1.5
		c-0.4,0.7-0.5,1.5-0.5,2.5v8.5H791.8z"/>
</g>
<g>
	<path class="st0" d="M1250,662.8H50v-278h1200V662.8z M51,661.8h1198v-276H51V661.8z"/>
</g>
<g>
	<path class="st0" d="M256.2,482.2H78v-70h178.2V482.2z M79,481.2h176.2v-68H79V481.2z"/>
</g>
<g>
	<path class="st0" d="M448.5,482.2H270.3v-70h178.2V482.2z M271.3,481.2h176.2v-68H271.3V481.2z"/>
</g>
<g>
	<path class="st0" d="M640.9,482.2H462.7v-70h178.2V482.2z M463.7,481.2h176.2v-68H463.7V481.2z"/>
</g>
<g>
	<path class="st0" d="M833.3,482.2H655.1v-70h178.2V482.2z M656.1,481.2h176.2v-68H656.1V481.2z"/>
</g>
<g>
	<path class="st0" d="M1026,482.2H847.8v-70H1026V482.2z M848.8,481.2H1025v-68H848.8V481.2z"/>
</g>
<g>
	<path class="st0" d="M1218,482.2h-178.2v-70H1218V482.2z M1040.8,481.2H1217v-68h-176.2V481.2z"/>
</g>
<g class="st1">
	<path d="M131,441.9v-16.1h1.7l9.1,12.9v-12.9h1.8v16.1h-1.7l-9.1-12.8v12.8H131z"/>
	<path d="M152.3,441.9l-6.2-16.1h2.1l5,13.6l5-13.6h2l-6.2,16.1H152.3z"/>
	<path d="M162.7,441.9v-16.1h1.9v16.1H162.7z"/>
	<path d="M169,441.9v-16.1h5.9c2.3,0,4.1,0.7,5.4,2c1.3,1.3,1.9,3.2,1.9,5.5v1c0,2.4-0.6,4.2-1.9,5.5c-1.3,1.3-3.1,2-5.4,2H169z
		 M170.9,440.2h3.9c1.7,0,3.1-0.5,4-1.5c0.9-1,1.4-2.4,1.4-4.3v-1.1c0-1.9-0.5-3.3-1.4-4.3c-0.9-1-2.3-1.5-4-1.5h-3.9V440.2z"/>
	<path d="M185.8,441.9v-16.1h1.9v16.1H185.8z"/>
	<path d="M190.2,441.9l6.5-16.1h1.7l6.5,16.1h-2l-1.5-4h-7.5l-1.5,4H190.2z M194.3,436.3h6.3l-3.1-8.1L194.3,436.3z"/>
</g>
<g class="st1">
	<path d="M122.7,469.5V455h-5.2v-1.6h12.3v1.6h-5.2v14.5H122.7z"/>
</g>
<g class="st1">
	<path d="M135,469.7c-1.6,0-2.9-0.5-3.8-1.5c-0.9-1-1.4-2.4-1.4-4.2v-0.9c0-1.2,0.2-2.2,0.6-3c0.4-0.9,1-1.5,1.8-2
		c0.8-0.5,1.7-0.7,2.7-0.7h0.2c1,0,1.9,0.2,2.7,0.6s1.3,1,1.7,1.8c0.4,0.8,0.6,1.7,0.6,2.8v1.4h-8.6c0,1.4,0.3,2.4,0.9,3.1
		c0.6,0.7,1.4,1,2.5,1h0.3c0.8,0,1.4-0.1,1.9-0.4c0.5-0.3,0.9-0.7,1.2-1.2l1.4,0.9c-0.4,0.7-1,1.3-1.7,1.7c-0.8,0.4-1.7,0.6-2.7,0.6
		H135z M131.7,462.7h6.8v-0.3c0-1.1-0.3-2-0.9-2.6c-0.6-0.6-1.4-0.9-2.3-0.9H135c-1,0-1.7,0.3-2.4,0.9S131.7,461.5,131.7,462.7z"/>
	<path d="M143.2,469.5v-11.7h1.7v2.1c0.3-0.7,0.8-1.3,1.5-1.7c0.7-0.4,1.5-0.7,2.5-0.7h0.2c1.3,0,2.4,0.4,3.2,1.2
		c0.8,0.8,1.2,2,1.2,3.6v7.2h-1.8v-6.9c0-1.1-0.3-2-0.8-2.6c-0.5-0.6-1.2-0.9-2.2-0.9h-0.2c-0.6,0-1.2,0.2-1.7,0.4
		c-0.5,0.3-0.9,0.7-1.3,1.3c-0.3,0.6-0.5,1.3-0.5,2.2v6.4H143.2z"/>
	<path d="M161,469.7c-2.6,0-4.2-0.9-5-2.7l1.5-0.7c0.3,0.6,0.7,1.1,1.3,1.4c0.6,0.3,1.3,0.5,2.2,0.5h0.3c1.8,0,2.8-0.6,2.8-1.8v-0.1
		c0-1-0.6-1.6-1.8-1.8l-2.6-0.4c-1-0.1-1.8-0.5-2.4-1c-0.6-0.5-0.8-1.2-0.8-2.1v-0.3c0-1,0.4-1.8,1.2-2.4c0.8-0.6,1.8-0.9,3.2-0.9
		h0.3c1.1,0,2,0.2,2.8,0.7c0.8,0.4,1.3,1,1.7,1.8l-1.5,0.7c-0.5-1.1-1.5-1.6-3-1.6h-0.3c-0.8,0-1.4,0.2-1.9,0.5
		c-0.5,0.3-0.7,0.8-0.7,1.3v0.1c0,0.5,0.1,0.8,0.4,1.1s0.7,0.4,1.4,0.5l2.6,0.4c1,0.1,1.8,0.5,2.4,1.1s0.8,1.3,0.8,2.2v0.3
		c0,1.1-0.4,1.9-1.2,2.5s-1.9,0.8-3.4,0.8H161z"/>
	<path d="M173.3,469.7c-1,0-1.9-0.2-2.7-0.7c-0.8-0.5-1.4-1.1-1.9-2c-0.5-0.9-0.7-1.9-0.7-3.1v-0.8c0-1.2,0.2-2.2,0.7-3.1
		s1.1-1.5,1.9-2c0.8-0.5,1.7-0.7,2.7-0.7h0.2c1,0,1.9,0.2,2.7,0.7c0.8,0.5,1.4,1.1,1.9,2c0.5,0.9,0.7,1.9,0.7,3.1v0.9
		c0,1.2-0.2,2.2-0.7,3.1c-0.5,0.9-1.1,1.5-1.9,2c-0.8,0.5-1.7,0.7-2.7,0.7H173.3z M173.3,468.1h0.2c1,0,1.8-0.3,2.5-1
		c0.7-0.7,1-1.7,1-3.1v-0.9c0-1.4-0.3-2.4-1-3.1c-0.7-0.7-1.5-1-2.5-1h-0.2c-1,0-1.8,0.3-2.5,1c-0.7,0.7-1,1.7-1,3.1v0.9
		c0,1.4,0.3,2.4,1,3.1C171.5,467.8,172.3,468.1,173.3,468.1z"/>
	<path d="M181.9,469.5v-11.7h1.7v2.5c0.3-0.8,0.7-1.4,1.3-1.9c0.6-0.5,1.4-0.7,2.4-0.7h1.1v1.7h-1.2c-1,0-1.8,0.3-2.5,1
		c-0.7,0.7-1,1.7-1,3.1v6H181.9z"/>
</g>
<g class="st1">
	<path d="M191.4,469.5v-16.1h5.5c1.9,0,3.3,0.4,4.3,1.2c1,0.8,1.5,1.9,1.5,3.3v0.5c0,1.1-0.3,2-0.9,2.7c-0.6,0.7-1.4,1.2-2.5,1.5
		l3.8,6.8H201l-3.6-6.5c-0.2,0-0.3,0-0.5,0h-3.5v6.5H191.4z M193.3,461.3h3.5c1.3,0,2.3-0.2,2.9-0.7s1-1.2,1-2.2v-0.6
		c0-1-0.3-1.7-1-2.1s-1.7-0.7-2.9-0.7h-3.5V461.3z"/>
</g>
<g class="st1">
	<path d="M209.4,469.5V455h-5.2v-1.6h12.3v1.6h-5.2v14.5H209.4z"/>
</g>
<g class="st1">
	<path d="M316.3,454.8c-2.2,0-3.9-0.7-5.1-2.1c-1.2-1.4-1.8-3.3-1.8-5.8v-1c0-1.6,0.3-3,0.8-4.2c0.6-1.2,1.3-2.1,2.4-2.7
		c1-0.6,2.3-1,3.7-1h0.3c1.5,0,2.7,0.3,3.7,1c1,0.7,1.7,1.6,2.1,2.9l-1.7,0.6c-0.3-0.9-0.8-1.6-1.5-2.1c-0.7-0.5-1.6-0.7-2.6-0.7
		h-0.3c-1.6,0-2.8,0.5-3.7,1.6c-0.9,1.1-1.3,2.6-1.3,4.5v1.1c0,2,0.4,3.5,1.3,4.5c0.9,1,2.1,1.6,3.7,1.6h0.3c1,0,1.9-0.2,2.6-0.7
		c0.7-0.5,1.2-1.1,1.5-2l1.7,0.7c-0.4,1.2-1.2,2.1-2.2,2.7c-1,0.6-2.3,1-3.7,1H316.3z"/>
	<path d="M337.8,438.5v9.8c0,2.1-0.5,3.7-1.6,4.8c-1.1,1.2-2.6,1.7-4.6,1.7h-0.3c-2,0-3.5-0.6-4.6-1.7c-1.1-1.2-1.6-2.8-1.6-4.8
		v-9.8h1.9v9.8c0,1.6,0.4,2.8,1.1,3.6c0.7,0.8,1.8,1.2,3.2,1.2h0.3c1.4,0,2.5-0.4,3.2-1.2c0.7-0.8,1.1-2,1.1-3.6v-9.8H337.8z"/>
	<path d="M345.2,454.6v-14.5H340v-1.6h12.3v1.6h-5.2v14.5H345.2z"/>
</g>
<g class="st1">
	<path d="M355,454.6v-16.1h1.9v14.5h7.7v1.6H355z"/>
</g>
<g class="st1">
	<path d="M366.4,454.6l6.5-16.1h1.7l6.5,16.1h-2l-1.5-4h-7.5l-1.5,4H366.4z M370.5,449h6.3l-3.1-8.1L370.5,449z"/>
</g>
<g class="st1">
	<path d="M388.5,454.8c-3.1,0-5.2-1.2-6.1-3.5l1.6-0.9c0.4,0.9,0.9,1.6,1.6,2c0.7,0.4,1.7,0.7,2.8,0.7h0.3c1.3,0,2.3-0.2,2.9-0.7
		s1-1.2,1-2v-0.3c0-0.8-0.2-1.4-0.6-1.8s-1.1-0.8-2.1-0.9l-2.9-0.5c-2.8-0.5-4.2-1.9-4.2-4.2v-0.3c0-0.8,0.2-1.6,0.7-2.2
		c0.5-0.6,1.1-1.1,1.9-1.5s1.8-0.5,2.9-0.5h0.3c1.4,0,2.6,0.3,3.5,0.9c1,0.6,1.7,1.4,2.1,2.4l-1.7,0.7c-0.6-1.5-1.9-2.3-4-2.3h-0.3
		c-1.1,0-2,0.2-2.7,0.7s-1,1.1-1,1.9v0.3c0,0.7,0.2,1.3,0.6,1.6c0.4,0.4,1.1,0.7,2,0.8l2.9,0.5c1.4,0.2,2.5,0.7,3.2,1.5
		c0.7,0.8,1.1,1.8,1.1,3v0.3c0,1.4-0.5,2.4-1.6,3.2c-1,0.8-2.4,1.2-4.2,1.2H388.5z"/>
</g>
<g class="st1">
	<path d="M402.9,454.8c-3.1,0-5.2-1.2-6.1-3.5l1.6-0.9c0.4,0.9,0.9,1.6,1.6,2c0.7,0.4,1.7,0.7,2.8,0.7h0.3c1.3,0,2.3-0.2,2.9-0.7
		s1-1.2,1-2v-0.3c0-0.8-0.2-1.4-0.6-1.8s-1.1-0.8-2.1-0.9l-2.9-0.5c-2.8-0.5-4.2-1.9-4.2-4.2v-0.3c0-0.8,0.2-1.6,0.7-2.2
		c0.5-0.6,1.1-1.1,1.9-1.5s1.8-0.5,2.9-0.5h0.3c1.4,0,2.6,0.3,3.5,0.9c1,0.6,1.7,1.4,2.1,2.4l-1.7,0.7c-0.6-1.5-1.9-2.3-4-2.3h-0.3
		c-1.1,0-2,0.2-2.7,0.7s-1,1.1-1,1.9v0.3c0,0.7,0.2,1.3,0.6,1.6c0.4,0.4,1.1,0.7,2,0.8l2.9,0.5c1.4,0.2,2.5,0.7,3.2,1.5
		c0.7,0.8,1.1,1.8,1.1,3v0.3c0,1.4-0.5,2.4-1.6,3.2c-1,0.8-2.4,1.2-4.2,1.2H402.9z"/>
</g>
<g class="st1">
	<path d="M530.4,454.8c-1.6,0-2.9-0.5-3.9-1.5c-1-1-1.5-2.4-1.5-4.2v-0.9c0-1.2,0.2-2.2,0.7-3.1c0.5-0.9,1.1-1.5,1.9-2
		c0.8-0.5,1.7-0.7,2.8-0.7h0.3c1,0,1.9,0.2,2.6,0.7c0.7,0.5,1.3,1.1,1.6,1.9l-1.5,0.7c-0.3-0.5-0.6-1-1.1-1.3
		c-0.5-0.3-1-0.5-1.7-0.5h-0.2c-1,0-1.9,0.3-2.6,1c-0.7,0.7-1,1.7-1,3.1v0.9c0,1.4,0.3,2.4,1,3.1c0.7,0.7,1.5,1,2.6,1h0.2
		c0.7,0,1.3-0.2,1.8-0.4s0.8-0.7,1.1-1.2l1.5,0.7c-0.3,0.8-0.9,1.4-1.6,1.8c-0.7,0.5-1.6,0.7-2.7,0.7H530.4z"/>
	<path d="M541.9,454.8c-1.3,0-2.3-0.4-3.1-1.2c-0.8-0.8-1.2-2-1.2-3.6v-7.2h1.8v6.9c0,1.1,0.2,2,0.7,2.6s1.2,0.9,2.1,0.9h0.2
		c0.6,0,1.1-0.2,1.6-0.4s0.9-0.7,1.2-1.3c0.3-0.6,0.4-1.3,0.4-2.2v-6.4h1.8v11.7h-1.7v-2.1c-0.3,0.7-0.8,1.3-1.4,1.7
		c-0.6,0.4-1.4,0.6-2.4,0.6H541.9z"/>
	<path d="M551.7,454.6v-16.1h5.9c2.3,0,4.1,0.7,5.4,2c1.3,1.3,1.9,3.2,1.9,5.5v1c0,2.4-0.6,4.2-1.9,5.5c-1.3,1.3-3.1,2-5.4,2H551.7z
		 M553.6,452.9h3.9c1.7,0,3.1-0.5,4-1.5c0.9-1,1.4-2.4,1.4-4.3v-1.1c0-1.9-0.5-3.3-1.4-4.3c-0.9-1-2.3-1.5-4-1.5h-3.9V452.9z"/>
	<path d="M568.4,454.6v-16.1h9.9v1.6h-8v5.8h6.5l-0.2,1.6h-6.3v7H568.4z"/>
</g>
<g class="st1">
	<path d="M705.3,454.8c-1.6,0-2.9-0.5-3.9-1.5c-1-1-1.5-2.4-1.5-4.2v-0.9c0-1.2,0.2-2.2,0.7-3.1c0.5-0.9,1.1-1.5,1.9-2
		c0.8-0.5,1.7-0.7,2.8-0.7h0.3c1,0,1.9,0.2,2.6,0.7c0.7,0.5,1.3,1.1,1.6,1.9l-1.5,0.7c-0.3-0.5-0.6-1-1.1-1.3
		c-0.5-0.3-1-0.5-1.7-0.5h-0.2c-1,0-1.9,0.3-2.6,1c-0.7,0.7-1,1.7-1,3.1v0.9c0,1.4,0.3,2.4,1,3.1c0.7,0.7,1.5,1,2.6,1h0.2
		c0.7,0,1.3-0.2,1.8-0.4c0.5-0.3,0.8-0.7,1.1-1.2l1.5,0.7c-0.3,0.8-0.9,1.4-1.6,1.8c-0.7,0.5-1.6,0.7-2.7,0.7H705.3z"/>
	<path d="M716.9,454.8c-1.3,0-2.3-0.4-3.1-1.2c-0.8-0.8-1.2-2-1.2-3.6v-7.2h1.8v6.9c0,1.1,0.2,2,0.7,2.6c0.5,0.6,1.2,0.9,2.1,0.9
		h0.2c0.6,0,1.1-0.2,1.6-0.4s0.9-0.7,1.2-1.3c0.3-0.6,0.4-1.3,0.4-2.2v-6.4h1.8v11.7h-1.7v-2.1c-0.3,0.7-0.8,1.3-1.4,1.7
		c-0.6,0.4-1.4,0.6-2.4,0.6H716.9z"/>
	<path d="M733.1,454.8c-2.4,0-4.2-0.7-5.4-2s-1.9-3.3-1.9-5.8v-1c0-1.6,0.3-3,0.8-4.2c0.6-1.2,1.4-2.1,2.4-2.7s2.3-1,3.7-1h0.3
		c1.5,0,2.7,0.3,3.7,1c1,0.6,1.7,1.6,2.2,2.8l-1.7,0.6c-0.6-1.7-2-2.6-4.1-2.6h-0.3c-1.6,0-2.8,0.5-3.7,1.6s-1.3,2.6-1.3,4.5v1.1
		c0,4,1.8,6,5.4,6h0.3c1.6,0,2.9-0.3,3.9-0.9v-4.4h-4.1l0.2-1.6h5.7v6.9c-0.7,0.5-1.5,0.9-2.5,1.3c-1,0.3-2.1,0.5-3.3,0.5H733.1z"/>
</g>
<g class="st1">
	<path d="M742.6,454.6v-11.7h1.7v2.5c0.3-0.8,0.7-1.4,1.3-1.9s1.4-0.7,2.5-0.7h1.1v1.7h-1.2c-1,0-1.8,0.3-2.5,1
		c-0.7,0.7-1,1.7-1,3.1v6H742.6z"/>
</g>
<g class="st1">
	<path d="M754.1,454.8c-1.3,0-2.2-0.3-2.9-0.9c-0.7-0.6-1-1.5-1-2.6c0-0.9,0.3-1.7,0.9-2.3c0.6-0.6,1.4-1,2.5-1.1l4.6-0.6v-0.1
		c0-2.1-0.9-3.2-2.8-3.2h-0.3c-1.5,0-2.5,0.6-3,1.7l-1.5-0.7c0.4-0.8,0.9-1.4,1.7-1.9c0.8-0.4,1.7-0.7,2.8-0.7h0.3
		c1.5,0,2.6,0.4,3.4,1.2c0.8,0.8,1.2,1.9,1.2,3.4v7.4h-1.7v-2.1c-0.4,0.7-0.9,1.3-1.6,1.7s-1.5,0.6-2.4,0.6H754.1z M758.2,448.8
		l-3.8,0.6c-0.9,0.1-1.5,0.3-1.9,0.6s-0.5,0.7-0.5,1.3c0,0.7,0.2,1.2,0.6,1.5c0.4,0.4,1,0.5,1.8,0.5h0.2c1.1,0,1.9-0.3,2.6-1
		s1-1.6,1-2.7V448.8z"/>
	<path d="M763.6,459.2v-16.3h1.7v2c0.4-0.7,0.9-1.2,1.5-1.7s1.5-0.6,2.4-0.6h0.2c1,0,1.8,0.2,2.6,0.7c0.8,0.4,1.3,1.1,1.8,1.9
		c0.4,0.9,0.7,1.9,0.7,3.1v0.9c0,1.2-0.2,2.3-0.7,3.1c-0.4,0.9-1,1.5-1.8,1.9c-0.8,0.4-1.6,0.7-2.6,0.7h-0.2c-0.9,0-1.6-0.2-2.3-0.6
		c-0.7-0.4-1.2-0.9-1.5-1.5v6.4H763.6z M768.9,453.3h0.2c1,0,1.8-0.3,2.5-1c0.7-0.7,1-1.7,1-3.1v-0.8c0-1.4-0.3-2.4-1-3.1
		s-1.5-1-2.5-1h-0.2c-0.6,0-1.2,0.1-1.7,0.4s-0.9,0.7-1.3,1.4c-0.3,0.6-0.5,1.4-0.5,2.4v0.7c0,1.5,0.3,2.5,1,3.2
		S767.9,453.3,768.9,453.3z"/>
	<path d="M777.5,454.6v-16.8h1.8v6.9c0.3-0.6,0.8-1.1,1.5-1.5c0.6-0.4,1.4-0.6,2.3-0.6h0.2c1.3,0,2.4,0.4,3.2,1.2s1.2,2,1.2,3.6v7.2
		h-1.8v-6.9c0-1.1-0.3-2-0.8-2.6c-0.5-0.6-1.2-0.9-2.2-0.9h-0.2c-0.6,0-1.2,0.2-1.7,0.4s-0.9,0.7-1.3,1.3s-0.5,1.3-0.5,2.2v6.4
		H777.5z"/>
</g>
<g class="st1">
	<path d="M910.7,454.8c-1.6,0-2.9-0.5-3.9-1.5c-1-1-1.5-2.4-1.5-4.2v-0.9c0-1.2,0.2-2.2,0.7-3.1c0.5-0.9,1.1-1.5,1.9-2
		c0.8-0.5,1.7-0.7,2.8-0.7h0.3c1,0,1.9,0.2,2.6,0.7c0.7,0.5,1.3,1.1,1.6,1.9l-1.5,0.7c-0.3-0.5-0.6-1-1.1-1.3
		c-0.5-0.3-1-0.5-1.7-0.5h-0.2c-1,0-1.9,0.3-2.6,1c-0.7,0.7-1,1.7-1,3.1v0.9c0,1.4,0.3,2.4,1,3.1c0.7,0.7,1.5,1,2.6,1h0.2
		c0.7,0,1.3-0.2,1.8-0.4s0.8-0.7,1.1-1.2l1.5,0.7c-0.3,0.8-0.9,1.4-1.6,1.8c-0.7,0.5-1.6,0.7-2.7,0.7H910.7z"/>
	<path d="M922.2,454.8c-1.3,0-2.3-0.4-3.1-1.2c-0.8-0.8-1.2-2-1.2-3.6v-7.2h1.8v6.9c0,1.1,0.2,2,0.7,2.6c0.5,0.6,1.2,0.9,2.1,0.9
		h0.2c0.6,0,1.1-0.2,1.6-0.4s0.9-0.7,1.2-1.3c0.3-0.6,0.4-1.3,0.4-2.2v-6.4h1.8v11.7h-1.7v-2.1c-0.3,0.7-0.8,1.3-1.4,1.7
		c-0.6,0.4-1.4,0.6-2.4,0.6H922.2z"/>
	<path d="M938.2,454.8c-1.5,0-2.8-0.3-3.8-1c-1.1-0.7-1.9-1.6-2.4-2.7s-0.8-2.5-0.8-4.1v-1c0-1.6,0.3-2.9,0.8-4.1
		c0.6-1.2,1.4-2.1,2.4-2.7c1-0.7,2.3-1,3.8-1h0.3c1.5,0,2.8,0.3,3.8,1c1.1,0.7,1.9,1.6,2.4,2.7c0.6,1.2,0.8,2.5,0.8,4.1v1
		c0,1.6-0.3,2.9-0.8,4.1c-0.6,1.2-1.4,2.1-2.4,2.7c-1,0.7-2.3,1-3.8,1H938.2z M938.2,453.2h0.3c1.6,0,2.9-0.5,3.8-1.6
		c0.9-1.1,1.3-2.6,1.3-4.5v-1.1c0-1.9-0.4-3.4-1.3-4.5c-0.9-1.1-2.2-1.6-3.8-1.6h-0.3c-1.6,0-2.9,0.5-3.8,1.6
		c-0.9,1.1-1.3,2.6-1.3,4.5v1.1c0,1.9,0.4,3.4,1.3,4.5C935.3,452.6,936.6,453.2,938.2,453.2z"/>
</g>
<g class="st1">
	<path d="M948.8,459.2v-16.3h1.7v2c0.4-0.7,0.9-1.2,1.5-1.7s1.5-0.6,2.4-0.6h0.2c1,0,1.8,0.2,2.6,0.7c0.8,0.4,1.3,1.1,1.8,1.9
		c0.4,0.9,0.7,1.9,0.7,3.1v0.9c0,1.2-0.2,2.3-0.7,3.1c-0.4,0.9-1,1.5-1.8,1.9c-0.8,0.4-1.6,0.7-2.6,0.7h-0.2c-0.9,0-1.6-0.2-2.3-0.6
		c-0.7-0.4-1.2-0.9-1.5-1.5v6.4H948.8z M954.1,453.3h0.2c1,0,1.8-0.3,2.5-1c0.7-0.7,1-1.7,1-3.1v-0.8c0-1.4-0.3-2.4-1-3.1
		s-1.5-1-2.5-1h-0.2c-0.6,0-1.2,0.1-1.7,0.4s-0.9,0.7-1.3,1.4c-0.3,0.6-0.5,1.4-0.5,2.4v0.7c0,1.5,0.3,2.5,1,3.2
		S953.1,453.3,954.1,453.3z"/>
</g>
<g class="st1">
	<path d="M966.8,454.7c-1.3,0-2.3-0.3-2.9-0.9s-0.9-1.5-0.9-2.6v-6.8h-2.5v-1.5h2.5v-3.5h1.8v3.5h4l-0.3,1.5h-3.8v6.6
		c0,0.7,0.2,1.3,0.5,1.6c0.3,0.3,0.9,0.5,1.6,0.5h2v1.5H966.8z"/>
</g>
<g class="st1">
	<path d="M1102.7,436.3v-0.4c0-1.3,0.3-2.3,0.8-3c0.5-0.7,1.2-1,2.2-1h0.2c0.5,0,1,0.1,1.4,0.3s0.9,0.6,1.5,1.1l0.3,0.3
		c0.4,0.4,0.8,0.7,1,0.8s0.5,0.2,0.7,0.2h0.1c0.4,0,0.8-0.2,1-0.6c0.2-0.4,0.4-1,0.4-1.7v-0.4h1.7v0.5c0,1.3-0.3,2.3-0.8,3
		c-0.5,0.7-1.2,1-2.2,1h-0.1c-0.5,0-1-0.1-1.4-0.3c-0.4-0.2-0.9-0.6-1.5-1.1l-0.3-0.3c-0.4-0.4-0.8-0.7-1-0.8s-0.5-0.2-0.8-0.2h-0.1
		c-0.4,0-0.8,0.2-1,0.6c-0.2,0.4-0.4,1-0.4,1.7v0.4H1102.7z"/>
	<path d="M1124.3,441.9v-3.6h-8.2v-1.4l8.1-10.9h1.8v10.6h2.2l-0.2,1.6h-2v3.6H1124.3z M1124.3,436.7v-8.2l-6.2,8.2H1124.3z"/>
	<path d="M1135.8,442.1c-1.9,0-3.3-0.6-4.3-1.9c-1-1.3-1.5-3-1.5-5.3v-2c0-2.3,0.5-4.1,1.5-5.3c1-1.2,2.5-1.9,4.3-1.9h0.3
		c1.9,0,3.3,0.6,4.3,1.9c1,1.2,1.5,3,1.5,5.3v2c0,2.3-0.5,4-1.5,5.3c-1,1.3-2.5,1.9-4.3,1.9H1135.8z M1135.8,440.5h0.3
		c1.3,0,2.3-0.5,3-1.4c0.7-1,1-2.3,1-4.1v-2c0-1.8-0.3-3.1-1-4.1c-0.7-1-1.7-1.4-3-1.4h-0.3c-1.3,0-2.3,0.5-3,1.4
		c-0.7,1-1,2.3-1,4.1v2c0,1.8,0.3,3.2,1,4.1C1133.5,440,1134.5,440.5,1135.8,440.5z"/>
	<path d="M1149.6,442.1c-1.9,0-3.3-0.6-4.3-1.9c-1-1.3-1.5-3-1.5-5.3v-2c0-2.3,0.5-4.1,1.5-5.3c1-1.2,2.5-1.9,4.3-1.9h0.3
		c1.9,0,3.3,0.6,4.3,1.9c1,1.2,1.5,3,1.5,5.3v2c0,2.3-0.5,4-1.5,5.3c-1,1.3-2.5,1.9-4.3,1.9H1149.6z M1149.6,440.5h0.3
		c1.3,0,2.3-0.5,3-1.4c0.7-1,1-2.3,1-4.1v-2c0-1.8-0.3-3.1-1-4.1c-0.7-1-1.7-1.4-3-1.4h-0.3c-1.3,0-2.3,0.5-3,1.4
		c-0.7,1-1,2.3-1,4.1v2c0,1.8,0.3,3.2,1,4.1C1147.3,440,1148.3,440.5,1149.6,440.5z"/>
</g>
<g class="st1">
	<path d="M1088.1,469.5v-16.1h1.9v14.5h7.7v1.6H1088.1z"/>
	<path d="M1100.4,455.3v-2.1h1.9v2.1H1100.4z M1100.4,469.5v-11.7h1.8v11.7H1100.4z"/>
	<path d="M1111.6,469.7c-1,0-1.8-0.2-2.4-0.6s-1.2-1-1.5-1.7v2h-1.7v-16.8h1.8v6.9c0.4-0.6,0.9-1.1,1.5-1.5c0.7-0.4,1.4-0.6,2.3-0.6
		h0.2c1,0,1.8,0.2,2.6,0.7c0.8,0.4,1.3,1.1,1.8,1.9c0.4,0.9,0.7,1.9,0.7,3.1v0.9c0,1.2-0.2,2.3-0.7,3.1c-0.4,0.9-1,1.5-1.8,1.9
		c-0.8,0.4-1.6,0.7-2.6,0.7H1111.6z M1111.3,468.1h0.2c1,0,1.8-0.3,2.5-1c0.7-0.7,1-1.7,1-3.1v-0.8c0-1.4-0.3-2.4-1-3.1
		s-1.5-1-2.5-1h-0.2c-0.6,0-1.2,0.1-1.7,0.4c-0.5,0.3-0.9,0.7-1.3,1.4s-0.5,1.4-0.5,2.4v0.7c0,1.5,0.3,2.5,1,3.2
		S1110.3,468.1,1111.3,468.1z"/>
</g>
<g class="st1">
	<path d="M1119.8,469.5v-11.7h1.7v2.5c0.3-0.8,0.7-1.4,1.3-1.9s1.4-0.7,2.5-0.7h1.1v1.7h-1.2c-1,0-1.8,0.3-2.5,1
		c-0.7,0.7-1,1.7-1,3.1v6H1119.8z"/>
</g>
<g class="st1">
	<path d="M1131.4,469.7c-1.3,0-2.2-0.3-2.9-0.9c-0.7-0.6-1-1.5-1-2.6c0-0.9,0.3-1.7,0.9-2.3c0.6-0.6,1.4-1,2.5-1.1l4.6-0.6v-0.1
		c0-2.1-0.9-3.2-2.8-3.2h-0.3c-1.5,0-2.5,0.6-3,1.7l-1.5-0.7c0.4-0.8,0.9-1.4,1.7-1.9c0.8-0.4,1.7-0.7,2.8-0.7h0.3
		c1.5,0,2.6,0.4,3.4,1.2c0.8,0.8,1.2,1.9,1.2,3.4v7.4h-1.7v-2.1c-0.4,0.7-0.9,1.3-1.6,1.7s-1.5,0.6-2.4,0.6H1131.4z M1135.5,463.7
		l-3.8,0.6c-0.9,0.1-1.5,0.3-1.9,0.6s-0.5,0.7-0.5,1.3c0,0.7,0.2,1.2,0.6,1.5c0.4,0.4,1,0.5,1.8,0.5h0.2c1.1,0,1.9-0.3,2.6-1
		c0.6-0.7,1-1.6,1-2.7V463.7z"/>
	<path d="M1140.8,469.5v-11.7h1.7v2.5c0.3-0.8,0.7-1.4,1.3-1.9c0.6-0.5,1.4-0.7,2.4-0.7h1.1v1.7h-1.2c-1,0-1.8,0.3-2.5,1
		c-0.7,0.7-1,1.7-1,3.1v6H1140.8z"/>
	<path d="M1149.9,455.3v-2.1h1.9v2.1H1149.9z M1149.9,469.5v-11.7h1.8v11.7H1149.9z"/>
	<path d="M1160,469.7c-1.6,0-2.9-0.5-3.8-1.5c-0.9-1-1.4-2.4-1.4-4.2v-0.9c0-1.2,0.2-2.2,0.6-3c0.4-0.9,1-1.5,1.8-2
		c0.8-0.5,1.7-0.7,2.7-0.7h0.2c1,0,1.9,0.2,2.7,0.6c0.7,0.4,1.3,1,1.7,1.8c0.4,0.8,0.6,1.7,0.6,2.8v1.4h-8.6c0,1.4,0.3,2.4,0.9,3.1
		c0.6,0.7,1.4,1,2.5,1h0.3c0.8,0,1.4-0.1,1.9-0.4c0.5-0.3,0.9-0.7,1.2-1.2l1.4,0.9c-0.4,0.7-1,1.3-1.7,1.7s-1.7,0.6-2.7,0.6H1160z
		 M1156.7,462.7h6.8v-0.3c0-1.1-0.3-2-0.9-2.6c-0.6-0.6-1.4-0.9-2.3-0.9h-0.2c-1,0-1.7,0.3-2.4,0.9S1156.7,461.5,1156.7,462.7z"/>
	<path d="M1172.3,469.7c-2.6,0-4.2-0.9-5-2.7l1.5-0.7c0.3,0.6,0.7,1.1,1.3,1.4c0.6,0.3,1.3,0.5,2.2,0.5h0.3c1.8,0,2.8-0.6,2.8-1.8
		v-0.1c0-1-0.6-1.6-1.8-1.8l-2.6-0.4c-1-0.1-1.8-0.5-2.4-1c-0.6-0.5-0.8-1.2-0.8-2.1v-0.3c0-1,0.4-1.8,1.2-2.4
		c0.8-0.6,1.8-0.9,3.2-0.9h0.3c1.1,0,2,0.2,2.8,0.7c0.8,0.4,1.3,1,1.7,1.8l-1.5,0.7c-0.5-1.1-1.5-1.6-3-1.6h-0.3
		c-0.8,0-1.4,0.2-1.9,0.5s-0.7,0.8-0.7,1.3v0.1c0,0.5,0.1,0.8,0.4,1.1c0.3,0.3,0.7,0.4,1.4,0.5l2.6,0.4c1,0.1,1.8,0.5,2.4,1.1
		s0.8,1.3,0.8,2.2v0.3c0,1.1-0.4,1.9-1.2,2.5s-1.9,0.8-3.4,0.8H1172.3z"/>
</g>
<g>
	<path class="st0" d="M256.2,566.7H78v-70h178.2V566.7z M79,565.7h176.2v-68H79V565.7z"/>
</g>
<g>
	<path class="st0" d="M448.5,566.7H270.3v-70h178.2V566.7z M271.3,565.7h176.2v-68H271.3V565.7z"/>
</g>
<g>
	<path class="st0" d="M640.9,566.7H462.7v-70h178.2V566.7z M463.7,565.7h176.2v-68H463.7V565.7z"/>
</g>
<g>
	<path class="st0" d="M833.3,566.7H655.1v-70h178.2V566.7z M656.1,565.7h176.2v-68H656.1V565.7z"/>
</g>
<g>
	<path class="st0" d="M1025.6,566.7H847.4v-70h178.2V566.7z M848.4,565.7h176.2v-68H848.4V565.7z"/>
</g>
<g>
	<path class="st0" d="M1218,566.7h-178.2v-70H1218V566.7z M1040.8,565.7H1217v-68h-176.2V565.7z"/>
</g>
<g class="st1">
	<path d="M127.6,539.3c-1.6,0-2.9-0.5-3.9-1.5c-1-1-1.5-2.4-1.5-4.2v-0.9c0-1.2,0.2-2.2,0.7-3.1c0.5-0.9,1.1-1.5,1.9-2
		c0.8-0.5,1.7-0.7,2.8-0.7h0.3c1,0,1.9,0.2,2.6,0.7c0.7,0.5,1.3,1.1,1.6,1.9l-1.5,0.7c-0.3-0.5-0.6-1-1.1-1.3
		c-0.5-0.3-1-0.5-1.7-0.5h-0.2c-1,0-1.9,0.3-2.6,1c-0.7,0.7-1,1.7-1,3.1v0.9c0,1.4,0.3,2.4,1,3.1c0.7,0.7,1.5,1,2.6,1h0.2
		c0.7,0,1.3-0.2,1.8-0.4s0.8-0.7,1.1-1.2l1.5,0.7c-0.3,0.8-0.9,1.4-1.6,1.8c-0.7,0.5-1.6,0.7-2.7,0.7H127.6z"/>
	<path d="M139.2,539.3c-1.3,0-2.3-0.4-3.1-1.2c-0.8-0.8-1.2-2-1.2-3.6v-7.2h1.8v6.9c0,1.1,0.2,2,0.7,2.6s1.2,0.9,2.1,0.9h0.2
		c0.6,0,1.1-0.2,1.6-0.4s0.9-0.7,1.2-1.3c0.3-0.6,0.4-1.3,0.4-2.2v-6.4h1.8v11.7h-1.7V537c-0.3,0.7-0.8,1.3-1.4,1.7
		c-0.6,0.4-1.4,0.6-2.4,0.6H139.2z"/>
	<path d="M153.9,539.3c-3.1,0-5.2-1.2-6.1-3.5l1.6-0.9c0.4,0.9,0.9,1.6,1.6,2c0.7,0.4,1.7,0.7,2.8,0.7h0.3c1.3,0,2.3-0.2,2.9-0.7
		s1-1.2,1-2v-0.3c0-0.8-0.2-1.4-0.6-1.8s-1.1-0.8-2.1-0.9l-2.9-0.5c-2.8-0.5-4.2-1.9-4.2-4.2v-0.3c0-0.8,0.2-1.6,0.7-2.2
		c0.5-0.6,1.1-1.1,1.9-1.5s1.8-0.5,2.9-0.5h0.3c1.4,0,2.6,0.3,3.5,0.9c1,0.6,1.7,1.4,2.1,2.4l-1.7,0.7c-0.6-1.5-1.9-2.3-4-2.3h-0.3
		c-1.1,0-2,0.2-2.7,0.7s-1,1.1-1,1.9v0.3c0,0.7,0.2,1.3,0.6,1.6c0.4,0.4,1.1,0.7,2,0.8l2.9,0.5c1.4,0.2,2.5,0.7,3.2,1.5
		c0.7,0.8,1.1,1.8,1.1,3v0.3c0,1.4-0.5,2.4-1.6,3.2c-1,0.8-2.4,1.2-4.2,1.2H153.9z"/>
	<path d="M167.5,539.3c-1,0-1.9-0.2-2.7-0.7c-0.8-0.5-1.4-1.1-1.9-2c-0.5-0.9-0.7-1.9-0.7-3.1v-0.8c0-1.2,0.2-2.2,0.7-3.1
		s1.1-1.5,1.9-2c0.8-0.5,1.7-0.7,2.7-0.7h0.2c1,0,1.9,0.2,2.7,0.7c0.8,0.5,1.4,1.1,1.9,2c0.5,0.9,0.7,1.9,0.7,3.1v0.9
		c0,1.2-0.2,2.2-0.7,3.1c-0.5,0.9-1.1,1.5-1.9,2c-0.8,0.5-1.7,0.7-2.7,0.7H167.5z M167.6,537.8h0.2c1,0,1.8-0.3,2.5-1
		c0.7-0.7,1-1.7,1-3.1v-0.9c0-1.4-0.3-2.4-1-3.1c-0.7-0.7-1.5-1-2.5-1h-0.2c-1,0-1.8,0.3-2.5,1c-0.7,0.7-1,1.7-1,3.1v0.9
		c0,1.4,0.3,2.4,1,3.1C165.8,537.4,166.6,537.8,167.6,537.8z"/>
	<path d="M176.1,539.1v-16.8h1.8v16.8H176.1z"/>
</g>
<g class="st1">
	<path d="M184.9,539.1l-4.6-11.7h1.9l3.5,9.4l3.5-9.4h1.8l-4.6,11.7H184.9z"/>
</g>
<g class="st1">
	<path d="M197.5,539.3c-1.6,0-2.9-0.5-3.8-1.5c-0.9-1-1.4-2.4-1.4-4.2v-0.9c0-1.2,0.2-2.2,0.6-3c0.4-0.9,1-1.5,1.8-2
		c0.8-0.5,1.7-0.7,2.7-0.7h0.2c1,0,1.9,0.2,2.7,0.6s1.3,1,1.7,1.8c0.4,0.8,0.6,1.7,0.6,2.8v1.4h-8.6c0,1.4,0.3,2.4,0.9,3.1
		c0.6,0.7,1.4,1,2.5,1h0.3c0.8,0,1.4-0.1,1.9-0.4c0.5-0.3,0.9-0.7,1.2-1.2l1.4,0.9c-0.4,0.7-1,1.3-1.7,1.7c-0.8,0.4-1.7,0.6-2.7,0.6
		H197.5z M194.2,532.3h6.8v-0.3c0-1.1-0.3-2-0.9-2.6c-0.6-0.6-1.4-0.9-2.3-0.9h-0.2c-1,0-1.7,0.3-2.4,0.9S194.2,531.1,194.2,532.3z"
		/>
	<path d="M205.7,539.1v-11.7h1.7v2.5c0.3-0.8,0.7-1.4,1.3-1.9c0.6-0.5,1.4-0.7,2.4-0.7h1.1v1.7h-1.2c-1,0-1.8,0.3-2.5,1
		c-0.7,0.7-1,1.7-1,3.1v6H205.7z"/>
</g>
<g class="st1">
	<path d="M296.9,539.3c-1.6,0-2.9-0.5-3.9-1.5c-1-1-1.5-2.4-1.5-4.2v-0.9c0-1.2,0.2-2.2,0.7-3.1c0.5-0.9,1.1-1.5,1.9-2
		c0.8-0.5,1.7-0.7,2.8-0.7h0.3c1,0,1.9,0.2,2.6,0.7c0.7,0.5,1.3,1.1,1.6,1.9l-1.5,0.7c-0.3-0.5-0.6-1-1.1-1.3
		c-0.5-0.3-1-0.5-1.7-0.5h-0.2c-1,0-1.9,0.3-2.6,1c-0.7,0.7-1,1.7-1,3.1v0.9c0,1.4,0.3,2.4,1,3.1c0.7,0.7,1.5,1,2.6,1h0.2
		c0.7,0,1.3-0.2,1.8-0.4s0.8-0.7,1.1-1.2l1.5,0.7c-0.3,0.8-0.9,1.4-1.6,1.8c-0.7,0.5-1.6,0.7-2.7,0.7H296.9z"/>
	<path d="M308.4,539.3c-1.3,0-2.3-0.4-3.1-1.2c-0.8-0.8-1.2-2-1.2-3.6v-7.2h1.8v6.9c0,1.1,0.2,2,0.7,2.6s1.2,0.9,2.1,0.9h0.2
		c0.6,0,1.1-0.2,1.6-0.4s0.9-0.7,1.2-1.3c0.3-0.6,0.4-1.3,0.4-2.2v-6.4h1.8v11.7h-1.7V537c-0.3,0.7-0.8,1.3-1.4,1.7
		c-0.6,0.4-1.4,0.6-2.4,0.6H308.4z"/>
</g>
<g class="st1">
	<path d="M321.7,539.1v-14.5h-5.2V523h12.3v1.6h-5.2v14.5H321.7z"/>
</g>
<g class="st1">
	<path d="M334,539.3c-1.6,0-2.9-0.5-3.8-1.5c-0.9-1-1.4-2.4-1.4-4.2v-0.9c0-1.2,0.2-2.2,0.6-3c0.4-0.9,1-1.5,1.8-2
		c0.8-0.5,1.7-0.7,2.7-0.7h0.2c1,0,1.9,0.2,2.7,0.6s1.3,1,1.7,1.8c0.4,0.8,0.6,1.7,0.6,2.8v1.4h-8.6c0,1.4,0.3,2.4,0.9,3.1
		c0.6,0.7,1.4,1,2.5,1h0.3c0.8,0,1.4-0.1,1.9-0.4c0.5-0.3,0.9-0.7,1.2-1.2l1.4,0.9c-0.4,0.7-1,1.3-1.7,1.7c-0.8,0.4-1.7,0.6-2.7,0.6
		H334z M330.7,532.3h6.8v-0.3c0-1.1-0.3-2-0.9-2.6c-0.6-0.6-1.4-0.9-2.3-0.9H334c-1,0-1.7,0.3-2.4,0.9S330.7,531.1,330.7,532.3z"/>
	<path d="M342.2,539.1v-11.7h1.7v2.1c0.3-0.7,0.8-1.3,1.5-1.7c0.7-0.4,1.5-0.7,2.5-0.7h0.2c1.3,0,2.4,0.4,3.2,1.2
		c0.8,0.8,1.2,2,1.2,3.6v7.2h-1.8v-6.9c0-1.1-0.3-2-0.8-2.6c-0.5-0.6-1.2-0.9-2.2-0.9h-0.2c-0.6,0-1.2,0.2-1.7,0.4
		c-0.5,0.3-0.9,0.7-1.3,1.3c-0.3,0.6-0.5,1.3-0.5,2.2v6.4H342.2z"/>
	<path d="M360,539.3c-2.6,0-4.2-0.9-5-2.7l1.5-0.7c0.3,0.6,0.7,1.1,1.3,1.4c0.6,0.3,1.3,0.5,2.2,0.5h0.3c1.8,0,2.8-0.6,2.8-1.8v-0.1
		c0-1-0.6-1.6-1.8-1.8l-2.6-0.4c-1-0.1-1.8-0.5-2.4-1c-0.6-0.5-0.8-1.2-0.8-2.1v-0.3c0-1,0.4-1.8,1.2-2.4c0.8-0.6,1.8-0.9,3.2-0.9
		h0.3c1.1,0,2,0.2,2.8,0.7c0.8,0.4,1.3,1,1.7,1.8l-1.5,0.7c-0.5-1.1-1.5-1.6-3-1.6h-0.3c-0.8,0-1.4,0.2-1.9,0.5
		c-0.5,0.3-0.7,0.8-0.7,1.3v0.1c0,0.5,0.1,0.8,0.4,1.1s0.7,0.4,1.4,0.5l2.6,0.4c1,0.1,1.8,0.5,2.4,1.1s0.8,1.3,0.8,2.2v0.3
		c0,1.1-0.4,1.9-1.2,2.5s-1.9,0.8-3.4,0.8H360z"/>
	<path d="M372.3,539.3c-1,0-1.9-0.2-2.7-0.7c-0.8-0.5-1.4-1.1-1.9-2c-0.5-0.9-0.7-1.9-0.7-3.1v-0.8c0-1.2,0.2-2.2,0.7-3.1
		s1.1-1.5,1.9-2c0.8-0.5,1.7-0.7,2.7-0.7h0.2c1,0,1.9,0.2,2.7,0.7c0.8,0.5,1.4,1.1,1.9,2c0.5,0.9,0.7,1.9,0.7,3.1v0.9
		c0,1.2-0.2,2.2-0.7,3.1c-0.5,0.9-1.1,1.5-1.9,2c-0.8,0.5-1.7,0.7-2.7,0.7H372.3z M372.3,537.8h0.2c1,0,1.8-0.3,2.5-1
		c0.7-0.7,1-1.7,1-3.1v-0.9c0-1.4-0.3-2.4-1-3.1c-0.7-0.7-1.5-1-2.5-1h-0.2c-1,0-1.8,0.3-2.5,1c-0.7,0.7-1,1.7-1,3.1v0.9
		c0,1.4,0.3,2.4,1,3.1C370.5,537.4,371.4,537.8,372.3,537.8z"/>
	<path d="M380.9,539.1v-11.7h1.7v2.5c0.3-0.8,0.7-1.4,1.3-1.9c0.6-0.5,1.4-0.7,2.4-0.7h1.1v1.7h-1.2c-1,0-1.8,0.3-2.5,1
		c-0.7,0.7-1,1.7-1,3.1v6H380.9z"/>
	<path d="M390.4,539.1V523h1.7l9.1,12.9V523h1.8v16.1h-1.7l-9.1-12.8v12.8H390.4z"/>
</g>
<g class="st1">
	<path d="M411.6,539.3c-1.6,0-2.9-0.5-3.8-1.5c-0.9-1-1.4-2.4-1.4-4.2v-0.9c0-1.2,0.2-2.2,0.6-3c0.4-0.9,1-1.5,1.8-2
		c0.8-0.5,1.7-0.7,2.7-0.7h0.2c1,0,1.9,0.2,2.7,0.6s1.3,1,1.7,1.8c0.4,0.8,0.6,1.7,0.6,2.8v1.4h-8.6c0,1.4,0.3,2.4,0.9,3.1
		c0.6,0.7,1.4,1,2.5,1h0.3c0.8,0,1.4-0.1,1.9-0.4c0.5-0.3,0.9-0.7,1.2-1.2l1.4,0.9c-0.4,0.7-1,1.3-1.7,1.7c-0.8,0.4-1.7,0.6-2.7,0.6
		H411.6z M408.2,532.3h6.8v-0.3c0-1.1-0.3-2-0.9-2.6c-0.6-0.6-1.4-0.9-2.3-0.9h-0.2c-1,0-1.7,0.3-2.4,0.9S408.2,531.1,408.2,532.3z"
		/>
</g>
<g class="st1">
	<path d="M424.6,539.2c-1.3,0-2.3-0.3-2.9-0.9s-0.9-1.5-0.9-2.6v-6.8h-2.5v-1.5h2.5v-3.5h1.8v3.5h4l-0.3,1.5h-3.8v6.6
		c0,0.7,0.2,1.3,0.5,1.6c0.3,0.3,0.9,0.5,1.6,0.5h2v1.5H424.6z"/>
</g>
<g class="st1">
	<path d="M496.8,539.3c-1.6,0-2.9-0.5-3.9-1.5c-1-1-1.5-2.4-1.5-4.2v-0.9c0-1.2,0.2-2.2,0.7-3.1c0.5-0.9,1.1-1.5,1.9-2
		c0.8-0.5,1.7-0.7,2.8-0.7h0.3c1,0,1.9,0.2,2.6,0.7c0.7,0.5,1.3,1.1,1.6,1.9l-1.5,0.7c-0.3-0.5-0.6-1-1.1-1.3
		c-0.5-0.3-1-0.5-1.7-0.5h-0.2c-1,0-1.9,0.3-2.6,1c-0.7,0.7-1,1.7-1,3.1v0.9c0,1.4,0.3,2.4,1,3.1c0.7,0.7,1.5,1,2.6,1h0.2
		c0.7,0,1.3-0.2,1.8-0.4s0.8-0.7,1.1-1.2l1.5,0.7c-0.3,0.8-0.9,1.4-1.6,1.8c-0.7,0.5-1.6,0.7-2.7,0.7H496.8z"/>
	<path d="M508.4,539.3c-1.3,0-2.3-0.4-3.1-1.2c-0.8-0.8-1.2-2-1.2-3.6v-7.2h1.8v6.9c0,1.1,0.2,2,0.7,2.6s1.2,0.9,2.1,0.9h0.2
		c0.6,0,1.1-0.2,1.6-0.4s0.9-0.7,1.2-1.3c0.3-0.6,0.4-1.3,0.4-2.2v-6.4h1.8v11.7h-1.7V537c-0.3,0.7-0.8,1.3-1.4,1.7
		c-0.6,0.4-1.4,0.6-2.4,0.6H508.4z"/>
	<path d="M523.1,539.3c-3.1,0-5.2-1.2-6.1-3.5l1.6-0.9c0.4,0.9,0.9,1.6,1.6,2c0.7,0.4,1.7,0.7,2.8,0.7h0.3c1.3,0,2.3-0.2,2.9-0.7
		s1-1.2,1-2v-0.3c0-0.8-0.2-1.4-0.6-1.8s-1.1-0.8-2.1-0.9l-2.9-0.5c-2.8-0.5-4.2-1.9-4.2-4.2v-0.3c0-0.8,0.2-1.6,0.7-2.2
		c0.5-0.6,1.1-1.1,1.9-1.5s1.8-0.5,2.9-0.5h0.3c1.4,0,2.6,0.3,3.5,0.9c1,0.6,1.7,1.4,2.1,2.4l-1.7,0.7c-0.6-1.5-1.9-2.3-4-2.3H523
		c-1.1,0-2,0.2-2.7,0.7s-1,1.1-1,1.9v0.3c0,0.7,0.2,1.3,0.6,1.6c0.4,0.4,1.1,0.7,2,0.8l2.9,0.5c1.4,0.2,2.5,0.7,3.2,1.5
		c0.7,0.8,1.1,1.8,1.1,3v0.3c0,1.4-0.5,2.4-1.6,3.2c-1,0.8-2.4,1.2-4.2,1.2H523.1z"/>
	<path d="M536.9,539.2c-1.3,0-2.3-0.3-2.9-0.9s-0.9-1.5-0.9-2.6v-6.8h-2.5v-1.5h2.5v-3.5h1.8v3.5h4l-0.3,1.5H535v6.6
		c0,0.7,0.2,1.3,0.5,1.6c0.3,0.3,0.9,0.5,1.6,0.5h2v1.5H536.9z"/>
</g>
<g class="st1">
	<path d="M544.9,539.3c-1.3,0-2.2-0.3-2.9-0.9c-0.7-0.6-1-1.5-1-2.6c0-0.9,0.3-1.7,0.9-2.3c0.6-0.6,1.4-1,2.5-1.1l4.6-0.6v-0.1
		c0-2.1-0.9-3.2-2.8-3.2h-0.3c-1.5,0-2.5,0.6-3,1.7l-1.5-0.7c0.4-0.8,0.9-1.4,1.7-1.9c0.8-0.4,1.7-0.7,2.8-0.7h0.3
		c1.5,0,2.6,0.4,3.4,1.2c0.8,0.8,1.2,1.9,1.2,3.4v7.4h-1.7V537c-0.4,0.7-0.9,1.3-1.6,1.7s-1.5,0.6-2.4,0.6H544.9z M549,533.3
		l-3.8,0.6c-0.9,0.1-1.5,0.3-1.9,0.6c-0.4,0.3-0.5,0.7-0.5,1.3c0,0.7,0.2,1.2,0.6,1.5c0.4,0.4,1,0.5,1.8,0.5h0.2
		c1.1,0,1.9-0.3,2.6-1s1-1.6,1-2.7V533.3z"/>
</g>
<g class="st1">
	<path d="M558.8,539.2c-1.3,0-2.3-0.3-2.9-0.9s-0.9-1.5-0.9-2.6v-6.8h-2.5v-1.5h2.5v-3.5h1.8v3.5h4l-0.3,1.5h-3.8v6.6
		c0,0.7,0.2,1.3,0.5,1.6c0.3,0.3,0.9,0.5,1.6,0.5h2v1.5H558.8z"/>
	<path d="M568.3,539.3c-1.6,0-2.9-0.5-3.8-1.5c-0.9-1-1.4-2.4-1.4-4.2v-0.9c0-1.2,0.2-2.2,0.6-3c0.4-0.9,1-1.5,1.8-2
		c0.8-0.5,1.7-0.7,2.7-0.7h0.2c1,0,1.9,0.2,2.7,0.6s1.3,1,1.7,1.8c0.4,0.8,0.6,1.7,0.6,2.8v1.4h-8.6c0,1.4,0.3,2.4,0.9,3.1
		c0.6,0.7,1.4,1,2.5,1h0.3c0.8,0,1.4-0.1,1.9-0.4c0.5-0.3,0.9-0.7,1.2-1.2l1.4,0.9c-0.4,0.7-1,1.3-1.7,1.7c-0.8,0.4-1.7,0.6-2.7,0.6
		H568.3z M564.9,532.3h6.8v-0.3c0-1.1-0.3-2-0.9-2.6c-0.6-0.6-1.4-0.9-2.3-0.9h-0.2c-1,0-1.7,0.3-2.4,0.9S565,531.1,564.9,532.3z"/>
</g>
<g class="st1">
	<path d="M581.1,539.1l-6.2-16.1h2.1l5,13.6l5-13.6h2l-6.2,16.1H581.1z"/>
</g>
<g class="st1">
	<path d="M594.7,539.3c-1.6,0-2.9-0.5-3.8-1.5c-0.9-1-1.4-2.4-1.4-4.2v-0.9c0-1.2,0.2-2.2,0.6-3c0.4-0.9,1-1.5,1.8-2
		c0.8-0.5,1.7-0.7,2.7-0.7h0.2c1,0,1.9,0.2,2.7,0.6s1.3,1,1.7,1.8c0.4,0.8,0.6,1.7,0.6,2.8v1.4h-8.6c0,1.4,0.3,2.4,0.9,3.1
		c0.6,0.7,1.4,1,2.5,1h0.3c0.8,0,1.4-0.1,1.9-0.4c0.5-0.3,0.9-0.7,1.2-1.2l1.4,0.9c-0.4,0.7-1,1.3-1.7,1.7c-0.8,0.4-1.7,0.6-2.7,0.6
		H594.7z M591.3,532.3h6.8v-0.3c0-1.1-0.3-2-0.9-2.6c-0.6-0.6-1.4-0.9-2.3-0.9h-0.2c-1,0-1.7,0.3-2.4,0.9S591.4,531.1,591.3,532.3z"
		/>
	<path d="M607.6,539.3c-1.6,0-2.9-0.5-3.9-1.5c-1-1-1.5-2.4-1.5-4.2v-0.9c0-1.2,0.2-2.2,0.7-3.1c0.5-0.9,1.1-1.5,1.9-2
		c0.8-0.5,1.7-0.7,2.8-0.7h0.3c1,0,1.9,0.2,2.6,0.7c0.7,0.5,1.3,1.1,1.6,1.9l-1.5,0.7c-0.3-0.5-0.6-1-1.1-1.3
		c-0.5-0.3-1-0.5-1.7-0.5h-0.2c-1,0-1.9,0.3-2.6,1c-0.7,0.7-1,1.7-1,3.1v0.9c0,1.4,0.3,2.4,1,3.1c0.7,0.7,1.5,1,2.6,1h0.2
		c0.7,0,1.3-0.2,1.8-0.4s0.8-0.7,1.1-1.2l1.5,0.7c-0.3,0.8-0.9,1.4-1.6,1.8c-0.7,0.5-1.6,0.7-2.7,0.7H607.6z"/>
</g>
<g class="st1">
	<path d="M715.1,539.3c-1.6,0-2.9-0.5-3.9-1.5c-1-1-1.5-2.4-1.5-4.2v-0.9c0-1.2,0.2-2.2,0.7-3.1c0.5-0.9,1.1-1.5,1.9-2
		c0.8-0.5,1.7-0.7,2.8-0.7h0.3c1,0,1.9,0.2,2.6,0.7c0.7,0.5,1.3,1.1,1.6,1.9l-1.5,0.7c-0.3-0.5-0.6-1-1.1-1.3
		c-0.5-0.3-1-0.5-1.7-0.5h-0.2c-1,0-1.9,0.3-2.6,1c-0.7,0.7-1,1.7-1,3.1v0.9c0,1.4,0.3,2.4,1,3.1c0.7,0.7,1.5,1,2.6,1h0.2
		c0.7,0,1.3-0.2,1.8-0.4c0.5-0.3,0.8-0.7,1.1-1.2l1.5,0.7c-0.3,0.8-0.9,1.4-1.6,1.8c-0.7,0.5-1.6,0.7-2.7,0.7H715.1z"/>
	<path d="M726.6,539.3c-1.3,0-2.3-0.4-3.1-1.2c-0.8-0.8-1.2-2-1.2-3.6v-7.2h1.8v6.9c0,1.1,0.2,2,0.7,2.6c0.5,0.6,1.2,0.9,2.1,0.9
		h0.2c0.6,0,1.1-0.2,1.6-0.4s0.9-0.7,1.2-1.3c0.3-0.6,0.4-1.3,0.4-2.2v-6.4h1.8v11.7h-1.7V537c-0.3,0.7-0.8,1.3-1.4,1.7
		c-0.6,0.4-1.4,0.6-2.4,0.6H726.6z"/>
	<path d="M736.3,539.1V523h5.9c2.3,0,4.1,0.7,5.4,2s1.9,3.2,1.9,5.5v1c0,2.4-0.6,4.2-1.9,5.5s-3.1,2-5.4,2H736.3z M738.3,537.4h3.9
		c1.7,0,3.1-0.5,4-1.5c0.9-1,1.4-2.4,1.4-4.3v-1.1c0-1.9-0.5-3.3-1.4-4.3c-0.9-1-2.3-1.5-4-1.5h-3.9V537.4z"/>
</g>
<g class="st1">
	<path d="M758.1,539.3c-3.1,0-5.2-1.2-6.1-3.5l1.6-0.9c0.4,0.9,0.9,1.6,1.6,2s1.7,0.7,2.8,0.7h0.3c1.3,0,2.2-0.2,2.9-0.7
		c0.7-0.5,1-1.2,1-2v-0.3c0-0.8-0.2-1.4-0.6-1.8s-1.1-0.8-2.1-0.9l-2.9-0.5c-2.8-0.5-4.2-1.9-4.2-4.2v-0.3c0-0.8,0.2-1.6,0.7-2.2
		c0.5-0.6,1.1-1.1,1.9-1.5s1.8-0.5,2.9-0.5h0.3c1.4,0,2.6,0.3,3.5,0.9c1,0.6,1.7,1.4,2.1,2.4l-1.7,0.7c-0.6-1.5-1.9-2.3-4-2.3H758
		c-1.1,0-2,0.2-2.7,0.7c-0.7,0.5-1,1.1-1,1.9v0.3c0,0.7,0.2,1.3,0.6,1.6c0.4,0.4,1.1,0.7,2,0.8l2.9,0.5c1.4,0.2,2.5,0.7,3.2,1.5
		s1.1,1.8,1.1,3v0.3c0,1.4-0.5,2.4-1.6,3.2s-2.4,1.2-4.2,1.2H758.1z"/>
</g>
<g class="st1">
	<path d="M772.5,539.3c-3.1,0-5.2-1.2-6.1-3.5l1.6-0.9c0.4,0.9,0.9,1.6,1.6,2c0.7,0.4,1.7,0.7,2.8,0.7h0.3c1.3,0,2.3-0.2,2.9-0.7
		c0.7-0.5,1-1.2,1-2v-0.3c0-0.8-0.2-1.4-0.6-1.8s-1.1-0.8-2.1-0.9l-2.9-0.5c-2.8-0.5-4.2-1.9-4.2-4.2v-0.3c0-0.8,0.2-1.6,0.7-2.2
		c0.5-0.6,1.1-1.1,1.9-1.5s1.8-0.5,2.9-0.5h0.3c1.4,0,2.6,0.3,3.5,0.9s1.7,1.4,2.1,2.4l-1.7,0.7c-0.6-1.5-1.9-2.3-4-2.3h-0.3
		c-1.1,0-2,0.2-2.7,0.7c-0.7,0.5-1,1.1-1,1.9v0.3c0,0.7,0.2,1.3,0.6,1.6c0.4,0.4,1.1,0.7,2,0.8l2.9,0.5c1.4,0.2,2.5,0.7,3.2,1.5
		c0.7,0.8,1.1,1.8,1.1,3v0.3c0,1.4-0.5,2.4-1.6,3.2c-1,0.8-2.4,1.2-4.2,1.2H772.5z"/>
</g>
<g class="st1">
	<path d="M894.6,539.1v-11.7h1.7v2.1c0.3-0.7,0.8-1.3,1.5-1.7c0.7-0.4,1.5-0.7,2.5-0.7h0.2c1.3,0,2.4,0.4,3.2,1.2
		c0.8,0.8,1.2,2,1.2,3.6v7.2H903v-6.9c0-1.1-0.3-2-0.8-2.6c-0.5-0.6-1.2-0.9-2.2-0.9h-0.2c-0.6,0-1.2,0.2-1.7,0.4
		c-0.5,0.3-0.9,0.7-1.3,1.3s-0.5,1.3-0.5,2.2v6.4H894.6z"/>
</g>
<g class="st1">
	<path d="M911.1,539.1l-4.6-11.7h1.9l3.5,9.4l3.5-9.4h1.8l-4.6,11.7H911.1z"/>
	<path d="M926.1,539.3c-2.2,0-3.9-0.7-5.1-2.1s-1.8-3.3-1.8-5.8v-1c0-1.6,0.3-3,0.8-4.2s1.3-2.1,2.4-2.7c1-0.6,2.3-1,3.7-1h0.3
		c1.5,0,2.7,0.3,3.7,1s1.7,1.6,2.1,2.9l-1.7,0.6c-0.3-0.9-0.8-1.6-1.5-2.1c-0.7-0.5-1.6-0.7-2.6-0.7h-0.3c-1.6,0-2.8,0.5-3.7,1.6
		c-0.9,1.1-1.3,2.6-1.3,4.5v1.1c0,2,0.4,3.5,1.3,4.5c0.9,1,2.1,1.6,3.7,1.6h0.3c1,0,1.9-0.2,2.6-0.7c0.7-0.5,1.2-1.1,1.5-2l1.7,0.7
		c-0.4,1.2-1.2,2.1-2.2,2.7c-1,0.6-2.3,1-3.7,1H926.1z"/>
	<path d="M939.8,539.3c-1,0-1.9-0.2-2.7-0.7c-0.8-0.5-1.4-1.1-1.9-2c-0.5-0.9-0.7-1.9-0.7-3.1v-0.8c0-1.2,0.2-2.2,0.7-3.1
		s1.1-1.5,1.9-2c0.8-0.5,1.7-0.7,2.7-0.7h0.2c1,0,1.9,0.2,2.7,0.7c0.8,0.5,1.4,1.1,1.9,2c0.5,0.9,0.7,1.9,0.7,3.1v0.9
		c0,1.2-0.2,2.2-0.7,3.1c-0.5,0.9-1.1,1.5-1.9,2c-0.8,0.5-1.7,0.7-2.7,0.7H939.8z M939.8,537.8h0.2c1,0,1.8-0.3,2.5-1
		c0.7-0.7,1-1.7,1-3.1v-0.9c0-1.4-0.3-2.4-1-3.1c-0.7-0.7-1.5-1-2.5-1h-0.2c-1,0-1.8,0.3-2.5,1c-0.7,0.7-1,1.7-1,3.1v0.9
		c0,1.4,0.3,2.4,1,3.1C938,537.4,938.8,537.8,939.8,537.8z"/>
	<path d="M948.4,539.1v-11.7h1.7v2.1c0.3-0.7,0.8-1.3,1.4-1.7c0.6-0.4,1.3-0.6,2.2-0.6h0.2c1.9,0,3.2,0.8,3.8,2.5
		c0.3-0.8,0.8-1.4,1.5-1.8c0.7-0.5,1.4-0.7,2.3-0.7h0.2c1.3,0,2.3,0.4,3,1.2s1.1,2,1.1,3.6v7.2h-1.8v-6.9c0-1.1-0.2-2-0.6-2.6
		c-0.4-0.6-1.1-0.9-2-0.9h-0.2c-0.5,0-1,0.2-1.5,0.4c-0.5,0.3-0.9,0.7-1.2,1.3s-0.4,1.3-0.4,2.2v6.4h-1.8v-6.9c0-1.1-0.2-2-0.6-2.6
		c-0.4-0.6-1.1-0.9-2-0.9h-0.2c-0.5,0-1,0.2-1.5,0.4s-0.9,0.7-1.1,1.3s-0.4,1.3-0.4,2.2v6.4H948.4z"/>
	<path d="M969.2,543.7v-16.3h1.7v2c0.4-0.7,0.9-1.2,1.5-1.7s1.5-0.6,2.4-0.6h0.2c1,0,1.8,0.2,2.6,0.7c0.8,0.4,1.3,1.1,1.8,1.9
		c0.4,0.9,0.7,1.9,0.7,3.1v0.9c0,1.2-0.2,2.3-0.7,3.1c-0.4,0.9-1,1.5-1.8,1.9c-0.8,0.4-1.6,0.7-2.6,0.7h-0.2c-0.9,0-1.6-0.2-2.3-0.6
		c-0.7-0.4-1.2-0.9-1.5-1.5v6.4H969.2z M974.5,537.8h0.2c1,0,1.8-0.3,2.5-1c0.7-0.7,1-1.7,1-3.1v-0.8c0-1.4-0.3-2.4-1-3.1
		s-1.5-1-2.5-1h-0.2c-0.6,0-1.2,0.1-1.7,0.4c-0.5,0.3-0.9,0.7-1.3,1.4s-0.5,1.4-0.5,2.4v0.7c0,1.5,0.3,2.5,1,3.2
		S973.6,537.8,974.5,537.8z"/>
</g>
<g class="st1">
	<path d="M1087.3,539.3c-2.2,0-3.9-0.7-5.1-2.1s-1.8-3.3-1.8-5.8v-1c0-1.6,0.3-3,0.8-4.2s1.3-2.1,2.4-2.7c1-0.6,2.3-1,3.7-1h0.3
		c1.5,0,2.7,0.3,3.7,1s1.7,1.6,2.1,2.9l-1.7,0.6c-0.3-0.9-0.8-1.6-1.5-2.1c-0.7-0.5-1.6-0.7-2.6-0.7h-0.3c-1.6,0-2.8,0.5-3.7,1.6
		c-0.9,1.1-1.3,2.6-1.3,4.5v1.1c0,2,0.4,3.5,1.3,4.5c0.9,1,2.1,1.6,3.7,1.6h0.3c1,0,1.9-0.2,2.6-0.7c0.7-0.5,1.2-1.1,1.5-2l1.7,0.7
		c-0.4,1.2-1.2,2.1-2.2,2.7c-1,0.6-2.3,1-3.7,1H1087.3z"/>
</g>
<g class="st1">
	<path d="M1100.9,539.1l-6.2-16.1h2.1l5,13.6l5-13.6h2l-6.2,16.1H1100.9z"/>
</g>
<g class="st1">
	<path d="M1108.7,533.2v-1.7h6.6v1.7H1108.7z"/>
	<path d="M1124.5,539.3c-2.2,0-3.9-0.7-5.1-2.1s-1.8-3.3-1.8-5.8v-1c0-1.6,0.3-3,0.8-4.2s1.3-2.1,2.4-2.7c1-0.6,2.3-1,3.7-1h0.3
		c1.5,0,2.7,0.3,3.7,1s1.7,1.6,2.1,2.9l-1.7,0.6c-0.3-0.9-0.8-1.6-1.5-2.1c-0.7-0.5-1.6-0.7-2.6-0.7h-0.3c-1.6,0-2.8,0.5-3.7,1.6
		c-0.9,1.1-1.3,2.6-1.3,4.5v1.1c0,2,0.4,3.5,1.3,4.5c0.9,1,2.1,1.6,3.7,1.6h0.3c1,0,1.9-0.2,2.6-0.7c0.7-0.5,1.2-1.1,1.5-2l1.7,0.7
		c-0.4,1.2-1.2,2.1-2.2,2.7c-1,0.6-2.3,1-3.7,1H1124.5z"/>
	<path d="M1145.9,523v9.8c0,2.1-0.5,3.7-1.6,4.8c-1.1,1.2-2.6,1.7-4.6,1.7h-0.3c-2,0-3.5-0.6-4.6-1.7c-1.1-1.2-1.6-2.8-1.6-4.8V523
		h1.9v9.8c0,1.6,0.4,2.8,1.1,3.6c0.7,0.8,1.8,1.2,3.2,1.2h0.3c1.4,0,2.5-0.4,3.2-1.2c0.7-0.8,1.1-2,1.1-3.6V523H1145.9z"/>
</g>
<g class="st1">
	<path d="M1149.8,539.1V523h5.9c2.3,0,4.1,0.7,5.4,2c1.3,1.3,1.9,3.2,1.9,5.5v1c0,2.4-0.6,4.2-1.9,5.5c-1.3,1.3-3.1,2-5.4,2H1149.8z
		 M1151.7,537.4h3.9c1.7,0,3.1-0.5,4-1.5c0.9-1,1.4-2.4,1.4-4.3v-1.1c0-1.9-0.5-3.3-1.4-4.3c-0.9-1-2.3-1.5-4-1.5h-3.9V537.4z"/>
</g>
<g class="st1">
	<path d="M1164.2,539.1l6.5-16.1h1.7l6.5,16.1h-2l-1.5-4h-7.5l-1.5,4H1164.2z M1168.3,533.5h6.3l-3.1-8.1L1168.3,533.5z"/>
</g>
<g>
	<rect x="50.5" y="283.4" class="st0" width="283.8" height="79.2"/>
	<path class="st0" d="M334.8,363.1H50v-80.2h284.8V363.1z M51,362.1h282.8v-78.2H51V362.1z"/>
</g>
<g>
	<rect x="356.9" y="283.4" class="st0" width="283.8" height="79.2"/>
	<path class="st0" d="M641.3,363.1H356.4v-80.2h284.8V363.1z M357.4,362.1h282.8v-78.2H357.4V362.1z"/>
</g>
<g>
	<rect x="659.4" y="283.4" class="st0" width="283.8" height="79.2"/>
	<path class="st0" d="M943.7,363.1H658.9v-80.2h284.8V363.1z M659.9,362.1h282.8v-78.2H659.9V362.1z"/>
</g>
<g>
	<rect x="965.7" y="283.4" class="st0" width="283.8" height="79.2"/>
	<path class="st0" d="M1250,363.1H965.2v-80.2H1250V363.1z M966.2,362.1H1249v-78.2H966.2V362.1z"/>
</g>
<g class="st1">
	<path class="st2" d="M79.3,335.4v-21h8c2.1,0,3.8,0.4,5.3,1.2s2.5,1.9,3.3,3.4c0.8,1.5,1.1,3.2,1.1,5.2v1.3c0,3.1-0.8,5.5-2.5,7.3
		s-4.1,2.6-7.2,2.6H79.3z M82.7,332.5h4.5c2,0,3.6-0.6,4.6-1.7c1.1-1.1,1.6-2.9,1.6-5.1v-1.4c0-2.2-0.5-3.9-1.6-5.1
		c-1.1-1.2-2.6-1.7-4.6-1.7h-4.5V332.5z"/>
</g>
<g class="st1">
	<path class="st2" d="M104.9,335.8c-1.6,0-2.9-0.4-3.8-1.2c-0.9-0.8-1.4-1.9-1.4-3.4c0-1.3,0.4-2.3,1.2-3.1c0.8-0.8,1.9-1.3,3.5-1.5
		l5.4-0.7v-0.1c0-2.3-1-3.4-3.1-3.4h-0.3c-0.9,0-1.6,0.2-2.1,0.5c-0.6,0.3-1,0.8-1.4,1.6l-2.5-1.3c0.5-1.1,1.2-1.9,2.3-2.5
		c1-0.6,2.3-0.9,3.8-0.9h0.5c2,0,3.6,0.5,4.6,1.5c1.1,1,1.6,2.5,1.6,4.5v9.7h-2.9v-2.3c-0.5,0.8-1.1,1.5-2,2
		c-0.9,0.5-1.9,0.7-3.1,0.7H104.9z M109.8,328.2l-4.1,0.6c-1,0.1-1.8,0.4-2.2,0.7c-0.4,0.3-0.6,0.8-0.6,1.5c0,0.7,0.2,1.2,0.7,1.6
		s1.1,0.6,2,0.6h0.3c1.2,0,2.1-0.4,2.8-1.1s1-1.7,1-2.9V328.2z"/>
</g>
<g class="st1">
	<path class="st2" d="M123.7,335.6c-1.9,0-3.3-0.4-4.1-1.3c-0.8-0.9-1.2-2.1-1.2-3.7v-7.7h-3.2v-2.7h3.2v-4.5h3.3v4.5h5l-0.4,2.7
		h-4.6v7.6c0,0.9,0.2,1.5,0.6,1.8c0.4,0.4,1,0.6,1.8,0.6h2.6v2.8H123.7z"/>
	<path class="st2" d="M134.1,335.8c-1.6,0-2.9-0.4-3.8-1.2c-0.9-0.8-1.3-1.9-1.3-3.4c0-1.3,0.4-2.3,1.2-3.1c0.8-0.8,1.9-1.3,3.5-1.5
		l5.4-0.7v-0.1c0-2.3-1-3.4-3.1-3.4h-0.3c-0.9,0-1.6,0.2-2.1,0.5c-0.6,0.3-1,0.8-1.4,1.6l-2.5-1.3c0.5-1.1,1.2-1.9,2.3-2.5
		c1-0.6,2.3-0.9,3.8-0.9h0.5c2,0,3.6,0.5,4.7,1.5c1.1,1,1.6,2.5,1.6,4.5v9.7h-2.9v-2.3c-0.5,0.8-1.1,1.5-2,2
		c-0.9,0.5-1.9,0.7-3.1,0.7H134.1z M139,328.2l-4.1,0.6c-1,0.1-1.8,0.4-2.2,0.7c-0.4,0.3-0.6,0.8-0.6,1.5c0,0.7,0.2,1.2,0.7,1.6
		c0.5,0.4,1.1,0.6,2,0.6h0.3c1.2,0,2.1-0.4,2.8-1.1s1.1-1.7,1.1-2.9V328.2z"/>
</g>
<g class="st1">
	<path class="st2" d="M154.6,335.4v-21h7.7c2.4,0,4.3,0.6,5.6,1.7c1.4,1.2,2.1,2.7,2.1,4.8v0.6c0,2.1-0.7,3.7-2.1,4.8
		c-1.4,1.1-3.3,1.7-5.6,1.7H158v7.4H154.6z M158,325.1h4.1c1.3,0,2.4-0.3,3.2-0.8c0.8-0.6,1.2-1.4,1.2-2.6v-0.8c0-1.2-0.4-2-1.2-2.6
		c-0.8-0.6-1.8-0.8-3.2-0.8H158V325.1z"/>
</g>
<g class="st1">
	<path class="st2" d="M173,335.4v-15.4h2.9v2.9c0.4-0.9,0.9-1.7,1.6-2.2c0.7-0.6,1.7-0.8,2.9-0.8h1.6v3.1h-1.5c-0.7,0-1.4,0.2-2,0.5
		c-0.6,0.3-1.1,0.8-1.5,1.5c-0.4,0.7-0.6,1.6-0.6,2.7v7.7H173z"/>
</g>
<g class="st1">
	<path class="st2" d="M190.8,335.8c-1.4,0-2.6-0.3-3.7-0.9s-2-1.5-2.6-2.6c-0.6-1.1-1-2.5-1-4.1v-1c0-1.6,0.3-3,1-4.1s1.5-2,2.6-2.6
		c1.1-0.6,2.3-0.9,3.7-0.9h0.3c1.4,0,2.6,0.3,3.7,0.9c1.1,0.6,2,1.5,2.6,2.6c0.6,1.1,0.9,2.5,0.9,4.1v1c0,1.6-0.3,3-0.9,4.1
		c-0.6,1.1-1.5,2-2.6,2.6s-2.3,0.9-3.7,0.9H190.8z M190.8,333h0.2c1.1,0,2.1-0.4,2.9-1.2c0.8-0.8,1.1-2,1.1-3.5v-1.1
		c0-1.6-0.4-2.8-1.1-3.5c-0.8-0.8-1.7-1.2-2.9-1.2h-0.2c-1.1,0-2.1,0.4-2.8,1.2c-0.8,0.8-1.1,1.9-1.1,3.5v1.1c0,1.6,0.4,2.8,1.1,3.5
		C188.7,332.6,189.7,333,190.8,333z"/>
	<path class="st2" d="M208.3,335.8c-2.2,0-4-0.7-5.3-2c-1.3-1.3-2-3.2-2-5.6v-1c0-1.6,0.3-3,0.9-4.1c0.6-1.1,1.5-2,2.6-2.6
		c1.1-0.6,2.4-0.9,3.8-0.9h0.3c1.4,0,2.6,0.3,3.6,1c1,0.7,1.7,1.6,2.1,2.7l-2.6,1.2c-0.3-0.6-0.7-1.1-1.2-1.5
		c-0.5-0.4-1.1-0.6-1.9-0.6h-0.3c-1.2,0-2.1,0.4-2.9,1.2c-0.8,0.8-1.1,2-1.1,3.5v1.1c0,1.6,0.4,2.8,1.1,3.6c0.7,0.8,1.7,1.1,2.9,1.1
		h0.3c0.8,0,1.5-0.2,2-0.5c0.5-0.3,1-0.8,1.3-1.4l2.6,1.3c-0.4,1-1.2,1.8-2.2,2.5c-1,0.6-2.2,1-3.7,1H208.3z"/>
	<path class="st2" d="M224,335.8c-2.2,0-4-0.7-5.2-2c-1.2-1.3-1.9-3.2-1.9-5.6v-1c0-2.4,0.6-4.2,1.9-5.6c1.3-1.4,3-2,5.2-2h0.3
		c2.1,0,3.7,0.7,4.9,2c1.2,1.3,1.8,3,1.8,5.2v1.8h-10.9c0.1,1.5,0.4,2.6,1.1,3.4s1.6,1.1,2.8,1.1h0.5c0.9,0,1.6-0.2,2.2-0.5
		c0.6-0.3,1.1-0.8,1.4-1.4l2.4,1.6c-0.5,0.9-1.3,1.6-2.4,2.2c-1,0.5-2.3,0.8-3.7,0.8H224z M220.2,326.4h7.6v-0.2
		c0-1.2-0.3-2.2-0.9-2.8c-0.6-0.6-1.5-1-2.6-1H224c-1.1,0-2,0.3-2.7,1S220.3,325.1,220.2,326.4z"/>
</g>
<g class="st1">
	<path class="st2" d="M240,335.8c-3.5,0-5.7-1.2-6.7-3.5l2.6-1.3c0.3,0.7,0.8,1.3,1.5,1.6s1.5,0.5,2.6,0.5h0.4
		c2.1,0,3.1-0.6,3.1-1.8v-0.1c0-1-0.7-1.7-2-1.8l-3.3-0.5c-1.4-0.2-2.5-0.7-3.3-1.4c-0.8-0.7-1.2-1.7-1.2-2.9v-0.3
		c0-1.4,0.5-2.5,1.6-3.3c1.1-0.8,2.5-1.2,4.3-1.2h0.4c1.5,0,2.8,0.3,3.8,0.9c1.1,0.6,1.8,1.4,2.2,2.5l-2.6,1.2
		c-0.5-1.2-1.7-1.8-3.5-1.8h-0.4c-0.9,0-1.6,0.2-2.1,0.5c-0.5,0.3-0.7,0.8-0.7,1.3v0.2c0,0.5,0.1,0.8,0.4,1.1
		c0.3,0.3,0.8,0.5,1.5,0.6l3.3,0.5c1.4,0.2,2.5,0.7,3.3,1.5c0.8,0.8,1.2,1.8,1.2,3v0.3c0,1.5-0.5,2.6-1.6,3.4
		c-1.1,0.8-2.6,1.2-4.6,1.2H240z"/>
</g>
<g class="st1">
	<path class="st2" d="M255.1,335.8c-3.5,0-5.7-1.2-6.7-3.5l2.6-1.3c0.3,0.7,0.8,1.3,1.5,1.6s1.5,0.5,2.6,0.5h0.4
		c2.1,0,3.1-0.6,3.1-1.8v-0.1c0-1-0.7-1.7-2-1.8l-3.3-0.5c-1.4-0.2-2.5-0.7-3.3-1.4c-0.8-0.7-1.2-1.7-1.2-2.9v-0.3
		c0-1.4,0.5-2.5,1.6-3.3c1.1-0.8,2.5-1.2,4.3-1.2h0.4c1.5,0,2.8,0.3,3.8,0.9c1.1,0.6,1.8,1.4,2.2,2.5l-2.6,1.2
		c-0.5-1.2-1.7-1.8-3.5-1.8h-0.4c-0.9,0-1.6,0.2-2.1,0.5c-0.5,0.3-0.7,0.8-0.7,1.3v0.2c0,0.5,0.1,0.8,0.4,1.1
		c0.3,0.3,0.8,0.5,1.5,0.6l3.3,0.5c1.4,0.2,2.5,0.7,3.3,1.5c0.8,0.8,1.2,1.8,1.2,3v0.3c0,1.5-0.5,2.6-1.6,3.4
		c-1.1,0.8-2.6,1.2-4.6,1.2H255.1z"/>
	<path class="st2" d="M264.9,317.3v-3.5h3.4v3.5H264.9z M265,335.4v-15.4h3.3v15.4H265z"/>
	<path class="st2" d="M272.6,335.4v-15.4h2.9v2.3c0.5-0.8,1.1-1.5,2-2s1.8-0.7,3-0.7h0.3c1.7,0,3.1,0.5,4.2,1.6
		c1,1.1,1.6,2.6,1.6,4.7v9.5h-3.3v-9c0-1.3-0.3-2.2-0.8-2.9s-1.4-1-2.5-1h-0.2c-0.6,0-1.2,0.2-1.8,0.5c-0.6,0.3-1,0.8-1.4,1.5
		c-0.4,0.7-0.5,1.5-0.5,2.5v8.5H272.6z"/>
	<path class="st2" d="M296.8,341.9c-1.5,0-2.8-0.2-3.8-0.7c-1-0.5-1.8-1.2-2.3-2.1l2.4-1.8c0.4,0.7,0.9,1.1,1.5,1.4s1.4,0.4,2.4,0.4
		h0.4c2.6,0,3.8-1.5,3.8-4.4v-1.6c-1,1.5-2.6,2.2-4.6,2.2h-0.2c-1.3,0-2.4-0.3-3.4-0.9c-1-0.6-1.7-1.5-2.3-2.6s-0.8-2.4-0.8-3.9
		v-0.8c0-1.5,0.3-2.8,0.8-3.9c0.5-1.1,1.3-2,2.3-2.6c1-0.6,2.1-0.9,3.4-0.9h0.2c2.4,0,4,0.9,5,2.7v-2.3h2.9v14.6
		c0,2.3-0.6,4.1-1.8,5.3s-3,1.9-5.2,1.9H296.8z M297.1,332.5h0.3c1.2,0,2.1-0.4,2.8-1.3c0.7-0.9,1.1-2,1.1-3.4v-0.8
		c0-1.4-0.4-2.5-1.1-3.4s-1.7-1.2-2.8-1.2h-0.3c-1.2,0-2.2,0.4-2.9,1.2c-0.7,0.8-1.1,1.9-1.1,3.3v0.8c0,1.4,0.3,2.5,1.1,3.4
		C294.9,332.1,295.8,332.5,297.1,332.5z"/>
</g>
<g class="st1">
	<path class="st2" d="M409.6,335.4v-21h3l10.7,15.2v-15.2h3.3v21h-3l-10.7-15.2v15.2H409.6z"/>
	<path class="st2" d="M437.6,335.4l-7.9-21h3.7l5.8,16.7l5.9-16.7h3.5l-8,21H437.6z"/>
	<path class="st2" d="M451.7,335.4v-21h3.5v21H451.7z"/>
	<path class="st2" d="M460.5,335.4v-21h8c2.1,0,3.8,0.4,5.3,1.2c1.4,0.8,2.5,1.9,3.3,3.4c0.8,1.5,1.1,3.2,1.1,5.2v1.3
		c0,3.1-0.8,5.5-2.5,7.3s-4.1,2.6-7.2,2.6H460.5z M463.9,332.5h4.5c2,0,3.6-0.6,4.7-1.7c1.1-1.1,1.6-2.9,1.6-5.1v-1.4
		c0-2.2-0.5-3.9-1.6-5.1c-1.1-1.2-2.6-1.7-4.7-1.7h-4.5V332.5z"/>
	<path class="st2" d="M482.5,335.4v-21h3.5v21H482.5z"/>
	<path class="st2" d="M489,335.4l8.2-21h3.1l8.3,21h-3.7l-1.8-4.7h-8.9l-1.7,4.7H489z M495.4,327.9h6.7l-3.4-9L495.4,327.9z"/>
	<path class="st2" d="M527.7,335.8c-3,0-5.3-0.9-6.9-2.7c-1.6-1.8-2.4-4.3-2.4-7.6v-1.3c0-2.1,0.4-3.9,1.1-5.4
		c0.7-1.5,1.8-2.7,3.2-3.5c1.4-0.8,3.1-1.2,5-1.2h0.3c2,0,3.7,0.5,5.1,1.4c1.4,0.9,2.3,2.2,2.9,3.9l-3.2,1.1c-0.3-1.1-0.9-2-1.8-2.5
		c-0.8-0.5-1.8-0.8-3-0.8h-0.3c-1.8,0-3.3,0.6-4.3,1.8s-1.6,3-1.6,5.3v1.4c0,2.4,0.5,4.2,1.5,5.4s2.5,1.8,4.4,1.8h0.3
		c1.2,0,2.3-0.3,3.1-0.8c0.9-0.5,1.5-1.3,1.8-2.4l3.1,1.2c-0.6,1.6-1.6,2.8-3,3.7c-1.4,0.9-3.1,1.3-5.1,1.3H527.7z"/>
	<path class="st2" d="M539.3,335.4v-21.9h3.3v21.9H539.3z"/>
	<path class="st2" d="M551.2,335.8c-1.6,0-2.9-0.4-3.8-1.2c-0.9-0.8-1.3-1.9-1.3-3.4c0-1.3,0.4-2.3,1.2-3.1c0.8-0.8,1.9-1.3,3.5-1.5
		l5.4-0.7v-0.1c0-2.3-1-3.4-3.1-3.4h-0.3c-0.9,0-1.6,0.2-2.1,0.5c-0.6,0.3-1,0.8-1.4,1.6l-2.5-1.3c0.5-1.1,1.2-1.9,2.3-2.5
		c1-0.6,2.3-0.9,3.8-0.9h0.5c2,0,3.6,0.5,4.6,1.5c1.1,1,1.6,2.5,1.6,4.5v9.7h-2.9v-2.3c-0.5,0.8-1.1,1.5-2,2
		c-0.9,0.5-1.9,0.7-3.1,0.7H551.2z M556.1,328.2l-4.1,0.6c-1,0.1-1.8,0.4-2.2,0.7c-0.4,0.3-0.6,0.8-0.6,1.5c0,0.7,0.2,1.2,0.7,1.6
		s1.1,0.6,2,0.6h0.3c1.2,0,2.1-0.4,2.8-1.1s1-1.7,1-2.9V328.2z"/>
</g>
<g class="st1">
	<path class="st2" d="M563.6,335.4v-15.4h2.9v2.9c0.4-0.9,0.9-1.7,1.6-2.2c0.7-0.6,1.7-0.8,2.9-0.8h1.6v3.1H571
		c-0.7,0-1.4,0.2-2,0.5c-0.6,0.3-1.1,0.8-1.5,1.5c-0.4,0.7-0.6,1.6-0.6,2.7v7.7H563.6z"/>
</g>
<g class="st1">
	<path class="st2" d="M579.1,335.8c-1.6,0-2.9-0.4-3.8-1.2c-0.9-0.8-1.4-1.9-1.4-3.4c0-1.3,0.4-2.3,1.2-3.1c0.8-0.8,1.9-1.3,3.5-1.5
		l5.4-0.7v-0.1c0-2.3-1-3.4-3.1-3.4h-0.3c-0.9,0-1.6,0.2-2.1,0.5c-0.6,0.3-1,0.8-1.4,1.6l-2.5-1.3c0.5-1.1,1.2-1.9,2.3-2.5
		c1-0.6,2.3-0.9,3.8-0.9h0.5c2,0,3.6,0.5,4.6,1.5c1.1,1,1.6,2.5,1.6,4.5v9.7h-2.9v-2.3c-0.5,0.8-1.1,1.5-2,2
		c-0.9,0.5-1.9,0.7-3.1,0.7H579.1z M584.1,328.2l-4.1,0.6c-1,0.1-1.8,0.4-2.2,0.7c-0.4,0.3-0.6,0.8-0.6,1.5c0,0.7,0.2,1.2,0.7,1.6
		s1.1,0.6,2,0.6h0.3c1.2,0,2.1-0.4,2.8-1.1s1-1.7,1-2.9V328.2z"/>
</g>
<g class="st1">
	<path class="st2" d="M792.3,335.4v-3.8h3.6v3.8H792.3z"/>
	<path class="st2" d="M799.5,335.4v-3.8h3.6v3.8H799.5z"/>
	<path class="st2" d="M806.7,335.4v-3.8h3.6v3.8H806.7z"/>
</g>
<g class="st1">
	<path class="st2" d="M1018.3,335.4v-21h3l10.7,15.2v-15.2h3.3v21h-3l-10.7-15.2v15.2H1018.3z"/>
	<path class="st2" d="M1046.3,335.4l-7.9-21h3.7l5.8,16.7l5.9-16.7h3.5l-8,21H1046.3z"/>
	<path class="st2" d="M1060.4,335.4v-21h3.5v21H1060.4z"/>
	<path class="st2" d="M1069.2,335.4v-21h8c2.1,0,3.8,0.4,5.3,1.2c1.4,0.8,2.5,1.9,3.3,3.4c0.8,1.5,1.1,3.2,1.1,5.2v1.3
		c0,3.1-0.8,5.5-2.5,7.3s-4.1,2.6-7.2,2.6H1069.2z M1072.6,332.5h4.5c2,0,3.6-0.6,4.7-1.7c1.1-1.1,1.6-2.9,1.6-5.1v-1.4
		c0-2.2-0.5-3.9-1.6-5.1c-1.1-1.2-2.6-1.7-4.7-1.7h-4.5V332.5z"/>
	<path class="st2" d="M1091.2,335.4v-21h3.5v21H1091.2z"/>
	<path class="st2" d="M1097.7,335.4l8.2-21h3.1l8.3,21h-3.7l-1.8-4.7h-8.9l-1.7,4.7H1097.7z M1104.1,327.9h6.7l-3.4-9L1104.1,327.9z
		"/>
	<path class="st2" d="M1128,335.4v-21h3.5v21H1128z"/>
	<path class="st2" d="M1141.9,335.8c-3.5,0-5.7-1.2-6.7-3.5l2.6-1.3c0.3,0.7,0.8,1.3,1.5,1.6c0.7,0.3,1.5,0.5,2.6,0.5h0.4
		c2.1,0,3.1-0.6,3.1-1.8v-0.1c0-1-0.6-1.7-2-1.8l-3.3-0.5c-1.4-0.2-2.5-0.7-3.3-1.4s-1.2-1.7-1.2-2.9v-0.3c0-1.4,0.5-2.5,1.6-3.3
		c1.1-0.8,2.5-1.2,4.3-1.2h0.4c1.5,0,2.8,0.3,3.8,0.9c1.1,0.6,1.8,1.4,2.2,2.5l-2.6,1.2c-0.5-1.2-1.7-1.8-3.5-1.8h-0.4
		c-0.9,0-1.6,0.2-2.1,0.5c-0.5,0.3-0.7,0.8-0.7,1.3v0.2c0,0.5,0.1,0.8,0.4,1.1c0.3,0.3,0.8,0.5,1.5,0.6l3.3,0.5
		c1.4,0.2,2.5,0.7,3.3,1.5c0.8,0.8,1.2,1.8,1.2,3v0.3c0,1.5-0.5,2.6-1.6,3.4c-1.1,0.8-2.6,1.2-4.6,1.2H1141.9z"/>
	<path class="st2" d="M1156,335.8c-1.6,0-2.9-0.4-3.8-1.2c-0.9-0.8-1.3-1.9-1.3-3.4c0-1.3,0.4-2.3,1.2-3.1c0.8-0.8,1.9-1.3,3.5-1.5
		l5.4-0.7v-0.1c0-2.3-1-3.4-3.1-3.4h-0.3c-0.9,0-1.6,0.2-2.1,0.5c-0.6,0.3-1,0.8-1.4,1.6l-2.5-1.3c0.5-1.1,1.2-1.9,2.3-2.5
		c1-0.6,2.3-0.9,3.8-0.9h0.5c2,0,3.6,0.5,4.6,1.5c1.1,1,1.6,2.5,1.6,4.5v9.7h-2.9v-2.3c-0.5,0.8-1.1,1.5-2,2
		c-0.9,0.5-1.9,0.7-3.1,0.7H1156z M1160.9,328.2l-4.1,0.6c-1,0.1-1.8,0.4-2.2,0.7c-0.4,0.3-0.6,0.8-0.6,1.5c0,0.7,0.2,1.2,0.7,1.6
		s1.1,0.6,2,0.6h0.3c1.2,0,2.1-0.4,2.8-1.1s1-1.7,1-2.9V328.2z"/>
	<path class="st2" d="M1172.6,335.8c-1.6,0-2.9-0.4-3.8-1.2c-0.9-0.8-1.3-1.9-1.3-3.4c0-1.3,0.4-2.3,1.2-3.1
		c0.8-0.8,1.9-1.3,3.5-1.5l5.4-0.7v-0.1c0-2.3-1-3.4-3.1-3.4h-0.3c-0.9,0-1.6,0.2-2.1,0.5c-0.6,0.3-1,0.8-1.4,1.6l-2.5-1.3
		c0.5-1.1,1.2-1.9,2.3-2.5c1-0.6,2.3-0.9,3.8-0.9h0.5c2,0,3.6,0.5,4.6,1.5c1.1,1,1.6,2.5,1.6,4.5v9.7h-2.9v-2.3
		c-0.5,0.8-1.1,1.5-2,2c-0.9,0.5-1.9,0.7-3.1,0.7H1172.6z M1177.5,328.2l-4.1,0.6c-1,0.1-1.8,0.4-2.2,0.7c-0.4,0.3-0.6,0.8-0.6,1.5
		c0,0.7,0.2,1.2,0.7,1.6s1.1,0.6,2,0.6h0.3c1.2,0,2.1-0.4,2.8-1.1s1-1.7,1-2.9V328.2z"/>
	<path class="st2" d="M1191.4,335.8c-2.2,0-4-0.7-5.3-2c-1.3-1.3-2-3.2-2-5.6v-1c0-1.6,0.3-3,0.9-4.1s1.5-2,2.6-2.6
		c1.1-0.6,2.4-0.9,3.8-0.9h0.3c1.4,0,2.6,0.3,3.6,1c1,0.7,1.7,1.6,2.1,2.7l-2.6,1.2c-0.3-0.6-0.7-1.1-1.2-1.5
		c-0.5-0.4-1.1-0.6-1.9-0.6h-0.3c-1.2,0-2.1,0.4-2.9,1.2c-0.8,0.8-1.1,2-1.1,3.5v1.1c0,1.6,0.4,2.8,1.1,3.6c0.7,0.8,1.7,1.1,2.9,1.1
		h0.3c0.8,0,1.5-0.2,2-0.5c0.5-0.3,1-0.8,1.3-1.4l2.6,1.3c-0.4,1-1.2,1.8-2.2,2.5c-1,0.6-2.2,1-3.7,1H1191.4z"/>
</g>
<g class="st1">
	<path d="M502.1,248.8c-3,0-5.3-0.9-6.9-2.7c-1.6-1.8-2.4-4.3-2.4-7.6v-1.3c0-2.1,0.4-3.9,1.1-5.4c0.7-1.5,1.8-2.7,3.2-3.5
		c1.4-0.8,3.1-1.2,5-1.2h0.3c2,0,3.7,0.5,5.1,1.4c1.4,0.9,2.3,2.2,2.9,3.9l-3.2,1.1c-0.3-1.1-0.9-2-1.8-2.5c-0.8-0.5-1.8-0.8-3-0.8
		h-0.3c-1.8,0-3.3,0.6-4.3,1.8c-1,1.2-1.6,3-1.6,5.3v1.4c0,2.4,0.5,4.2,1.5,5.4s2.5,1.8,4.4,1.8h0.3c1.2,0,2.3-0.3,3.1-0.8
		c0.9-0.5,1.5-1.3,1.8-2.4l3.1,1.2c-0.6,1.6-1.6,2.8-3,3.7c-1.4,0.9-3.1,1.3-5.1,1.3H502.1z"/>
	<path d="M530.6,227.4v12.8c0,2.7-0.7,4.8-2.1,6.4c-1.4,1.5-3.5,2.3-6.1,2.3h-0.3c-2.7,0-4.7-0.8-6.1-2.3c-1.4-1.5-2.1-3.6-2.1-6.4
		v-12.8h3.5v12.8c0,1.9,0.4,3.3,1.3,4.2s2,1.4,3.6,1.4h0.3c1.6,0,2.8-0.5,3.6-1.4s1.3-2.3,1.3-4.2v-12.8H530.6z"/>
</g>
<g class="st1">
	<path d="M535.3,248.4v-21h8c2.1,0,3.8,0.4,5.3,1.2c1.4,0.8,2.5,1.9,3.3,3.4c0.8,1.5,1.1,3.2,1.1,5.2v1.3c0,3.1-0.8,5.5-2.5,7.3
		s-4.1,2.6-7.2,2.6H535.3z M538.7,245.4h4.5c2,0,3.6-0.6,4.7-1.7c1.1-1.1,1.6-2.9,1.6-5.1v-1.4c0-2.2-0.5-3.9-1.6-5.1
		c-1.1-1.2-2.6-1.7-4.7-1.7h-4.5V245.4z"/>
</g>
<g class="st1">
	<path d="M554.1,248.4l8.2-21h3.1l8.3,21H570l-1.8-4.7h-8.9l-1.7,4.7H554.1z M560.4,240.8h6.7l-3.4-9L560.4,240.8z"/>
</g>
<g class="st1">
	<path d="M575.5,241.2v-3.1h8.8v3.1H575.5z"/>
</g>
<g class="st1">
	<path d="M601,248.4l-5.5-8.1l-5.5,8.1h-4l7.4-10.7l-7.1-10.3h4l5.2,7.7l5.2-7.7h3.9l-7.1,10.3l7.4,10.7H601z"/>
	<path d="M615.8,248.4v-21h4.1l7,16.4l7-16.4h4v21h-3.3v-15.3l-6.6,15.3h-2.5l-6.6-15.4v15.4H615.8z"/>
	<path d="M642.9,230.3v-3.5h3.4v3.5H642.9z M643,248.4V233h3.3v15.4H643z"/>
</g>
<g class="st1">
	<path d="M657.1,248.8c-2.2,0-4-0.7-5.3-2c-1.3-1.3-2-3.2-2-5.6v-1c0-1.6,0.3-3,0.9-4.1c0.6-1.1,1.5-2,2.6-2.6
		c1.1-0.6,2.4-0.9,3.8-0.9h0.3c1.4,0,2.6,0.3,3.6,1c1,0.7,1.7,1.6,2.1,2.7l-2.6,1.2c-0.3-0.6-0.7-1.1-1.2-1.5
		c-0.5-0.4-1.1-0.6-1.9-0.6h-0.3c-1.2,0-2.1,0.4-2.9,1.2c-0.8,0.8-1.1,2-1.1,3.5v1.1c0,1.6,0.4,2.8,1.1,3.6c0.7,0.8,1.7,1.1,2.9,1.1
		h0.3c0.8,0,1.5-0.2,2-0.5c0.5-0.3,1-0.8,1.3-1.4l2.6,1.3c-0.4,1-1.2,1.8-2.2,2.5c-1,0.6-2.2,1-3.7,1H657.1z"/>
</g>
<g class="st1">
	<path d="M666.3,248.4V233h2.9v2.9c0.4-0.9,0.9-1.7,1.6-2.2c0.7-0.6,1.7-0.8,2.9-0.8h1.6v3.1h-1.5c-0.7,0-1.4,0.2-2,0.5
		c-0.6,0.3-1.1,0.8-1.5,1.5c-0.4,0.7-0.6,1.6-0.6,2.7v7.7H666.3z"/>
</g>
<g class="st1">
	<path d="M684.1,248.8c-1.4,0-2.6-0.3-3.7-0.9c-1.1-0.6-2-1.5-2.6-2.6c-0.6-1.1-1-2.5-1-4.1v-1c0-1.6,0.3-3,1-4.1
		c0.6-1.1,1.5-2,2.6-2.6c1.1-0.6,2.3-0.9,3.7-0.9h0.3c1.4,0,2.6,0.3,3.7,0.9c1.1,0.6,2,1.5,2.6,2.6s0.9,2.5,0.9,4.1v1
		c0,1.6-0.3,3-0.9,4.1c-0.6,1.1-1.5,2-2.6,2.6c-1.1,0.6-2.3,0.9-3.7,0.9H684.1z M684.1,246h0.2c1.1,0,2.1-0.4,2.8-1.2
		c0.8-0.8,1.1-2,1.1-3.5v-1.1c0-1.6-0.4-2.8-1.1-3.5c-0.8-0.8-1.7-1.2-2.8-1.2h-0.2c-1.1,0-2.1,0.4-2.8,1.2
		c-0.8,0.8-1.1,1.9-1.1,3.5v1.1c0,1.6,0.4,2.8,1.1,3.5C682,245.6,683,246,684.1,246z"/>
	<path d="M700.7,248.8c-3.5,0-5.7-1.2-6.7-3.5l2.6-1.3c0.3,0.7,0.8,1.3,1.5,1.6s1.5,0.5,2.6,0.5h0.4c2.1,0,3.1-0.6,3.1-1.8v-0.1
		c0-1-0.7-1.7-2-1.8l-3.3-0.5c-1.4-0.2-2.5-0.7-3.3-1.4c-0.8-0.7-1.2-1.7-1.2-2.9v-0.3c0-1.4,0.5-2.5,1.6-3.3
		c1.1-0.8,2.5-1.2,4.3-1.2h0.4c1.5,0,2.8,0.3,3.8,0.9c1.1,0.6,1.8,1.4,2.2,2.5l-2.6,1.2c-0.5-1.2-1.7-1.8-3.5-1.8h-0.4
		c-0.9,0-1.6,0.2-2.1,0.5c-0.5,0.3-0.7,0.8-0.7,1.3v0.2c0,0.5,0.1,0.8,0.4,1.1c0.3,0.3,0.8,0.5,1.5,0.6l3.3,0.5
		c1.4,0.2,2.5,0.7,3.3,1.5c0.8,0.8,1.2,1.8,1.2,3v0.3c0,1.5-0.5,2.6-1.6,3.4c-1.1,0.8-2.6,1.2-4.6,1.2H700.7z"/>
	<path d="M716.9,248.8c-2.2,0-4-0.7-5.2-2c-1.2-1.3-1.9-3.2-1.9-5.6v-1c0-2.4,0.6-4.2,1.9-5.6c1.3-1.4,3-2,5.2-2h0.3
		c2.1,0,3.7,0.7,4.9,2c1.2,1.3,1.8,3,1.8,5.2v1.8H713c0.1,1.5,0.4,2.6,1.1,3.4s1.6,1.1,2.8,1.1h0.5c0.9,0,1.6-0.2,2.2-0.5
		c0.6-0.3,1.1-0.8,1.4-1.4l2.4,1.6c-0.5,0.9-1.3,1.6-2.4,2.2c-1,0.5-2.3,0.8-3.7,0.8H716.9z M713,239.3h7.6v-0.2
		c0-1.2-0.3-2.2-0.9-2.8c-0.6-0.6-1.5-1-2.6-1h-0.2c-1.1,0-2,0.3-2.7,1S713.1,238,713,239.3z"/>
</g>
<g class="st1">
	<path d="M727.3,248.4V233h2.9v2.9c0.4-0.9,0.9-1.7,1.6-2.2c0.7-0.6,1.7-0.8,2.9-0.8h1.6v3.1h-1.5c-0.7,0-1.4,0.2-2,0.5
		c-0.6,0.3-1.1,0.8-1.5,1.5c-0.4,0.7-0.6,1.6-0.6,2.7v7.7H727.3z"/>
</g>
<g class="st1">
	<path d="M744,248.4L738,233h3.5l4,11.3l4-11.3h3.3l-5.9,15.4H744z"/>
	<path d="M755.3,230.3v-3.5h3.4v3.5H755.3z M755.4,248.4V233h3.3v15.4H755.4z"/>
	<path d="M769.5,248.8c-2.2,0-4-0.7-5.3-2c-1.3-1.3-2-3.2-2-5.6v-1c0-1.6,0.3-3,0.9-4.1s1.5-2,2.6-2.6c1.1-0.6,2.4-0.9,3.8-0.9h0.3
		c1.4,0,2.6,0.3,3.6,1s1.7,1.6,2.1,2.7l-2.6,1.2c-0.3-0.6-0.7-1.1-1.2-1.5s-1.1-0.6-1.9-0.6h-0.3c-1.2,0-2.1,0.4-2.9,1.2
		c-0.8,0.8-1.1,2-1.1,3.5v1.1c0,1.6,0.4,2.8,1.1,3.6c0.7,0.8,1.7,1.1,2.9,1.1h0.3c0.8,0,1.5-0.2,2-0.5c0.5-0.3,1-0.8,1.3-1.4
		l2.6,1.3c-0.4,1-1.2,1.8-2.2,2.5c-1,0.6-2.2,1-3.7,1H769.5z"/>
	<path d="M785.2,248.8c-2.2,0-4-0.7-5.2-2c-1.3-1.3-1.9-3.2-1.9-5.6v-1c0-2.4,0.6-4.2,1.9-5.6c1.3-1.4,3-2,5.2-2h0.3
		c2.1,0,3.7,0.7,4.9,2c1.2,1.3,1.8,3,1.8,5.2v1.8h-10.9c0.1,1.5,0.4,2.6,1.1,3.4c0.7,0.7,1.6,1.1,2.8,1.1h0.5c0.9,0,1.6-0.2,2.2-0.5
		c0.6-0.3,1.1-0.8,1.4-1.4l2.4,1.6c-0.5,0.9-1.3,1.6-2.4,2.2c-1,0.5-2.3,0.8-3.7,0.8H785.2z M781.4,239.3h7.7v-0.2
		c0-1.2-0.3-2.2-0.9-2.8c-0.6-0.6-1.5-1-2.6-1h-0.2c-1.1,0-2,0.3-2.7,1C781.9,237,781.5,238,781.4,239.3z"/>
	<path d="M801.2,248.8c-3.5,0-5.7-1.2-6.7-3.5l2.6-1.3c0.3,0.7,0.8,1.3,1.5,1.6c0.6,0.3,1.5,0.5,2.6,0.5h0.4c2.1,0,3.1-0.6,3.1-1.8
		v-0.1c0-1-0.7-1.7-2-1.8l-3.3-0.5c-1.4-0.2-2.5-0.7-3.3-1.4c-0.8-0.7-1.2-1.7-1.2-2.9v-0.3c0-1.4,0.5-2.5,1.6-3.3
		c1.1-0.8,2.5-1.2,4.3-1.2h0.4c1.5,0,2.8,0.3,3.8,0.9c1.1,0.6,1.8,1.4,2.2,2.5l-2.6,1.2c-0.5-1.2-1.7-1.8-3.4-1.8H801
		c-0.9,0-1.6,0.2-2.1,0.5c-0.5,0.3-0.7,0.8-0.7,1.3v0.2c0,0.5,0.1,0.8,0.4,1.1c0.3,0.3,0.8,0.5,1.5,0.6l3.3,0.5
		c1.4,0.2,2.5,0.7,3.3,1.5c0.8,0.8,1.2,1.8,1.2,3v0.3c0,1.5-0.5,2.6-1.6,3.4c-1.1,0.8-2.6,1.2-4.7,1.2H801.2z"/>
</g>
<g>
	<path d="M644.3,209.6l-57.5-31v-15.3l57.5,31l57.5-31v15.3L644.3,209.6z M588.8,177.4l55.5,29.9l55.5-29.9v-10.8l-55.5,29.9
		l-55.5-29.9V177.4z"/>
</g>
<g>
	<path d="M644.3,187.9l-57.5-31V86.2l57.6-31l57.4,31v70.7L644.3,187.9z M588.8,155.7l55.5,29.9l55.5-29.9V87.4l-55.4-29.9
		l-55.6,29.9V155.7z"/>
</g>
<g>
	<rect x="643.3" y="168.3" width="2" height="15"/>
</g>
<g>
	<rect x="593.4" y="83" transform="matrix(0.5 -0.866 0.866 0.5 218.8126 560.0148)" width="2" height="14.9"/>
</g>
<g>
	<rect x="686.8" y="89.5" transform="matrix(0.8661 -0.4999 0.4999 0.8661 47.733 359.1937)" width="14.9" height="2"/>
</g>
<g>
	<path d="M663.5,161.6c-2.1,0-4.1-0.8-5.6-2.3l-30.4-30.4l-11.3,1.6l-12-12v-7.3l4.2-4.2l10,10l6.9-1.4l1.4-6.9l-10-10l4.2-4.2h7.3
		l12,12l-1.6,11.3l30.4,30.4c3.1,3.1,3.1,8.1,0,11.1C667.6,160.8,665.6,161.6,663.5,161.6z M628.2,126.8l31.1,31.1
		c1.1,1.1,2.6,1.7,4.2,1.7s3-0.6,4.2-1.7c2.3-2.3,2.3-6,0-8.3l-31.1-31.1l1.6-11.3l-10.7-10.7h-5.7l-2.2,2.2l9.4,9.4l-1.9,9.3
		l-9.3,1.9l-9.4-9.4l-2.2,2.2v5.7l10.7,10.7L628.2,126.8z"/>
</g>
<g>
	<defs>
		<polygon id="SVGID_1_" points="635.6,108.5 618.3,125.9 657.4,165 600.9,165 600.9,86.8 687.8,86.8 687.8,160.6 		"/>
	</defs>
	<clipPath id="SVGID_00000152235968758252297670000009142477828414065293_">
		<use xlink:href="#SVGID_1_"  style="overflow:visible;"/>
	</clipPath>
	<g style="clip-path:url(#SVGID_00000152235968758252297670000009142477828414065293_);">
		<g>
			<path d="M672.1,130.9l-5.7-5.7l-1.6-4.9l-2.4-2.4l-4.9,4.9l-9.5-9.5l8.1-8.1l-10.7-10.7h15.8l12.3,12.3l-1.6,1.6l2.4,2.4l4.9,1.6
				l5.7,5.7L672.1,130.9z M668.1,124.1l4,4l9.9-9.9l-4-4l-4.9-1.6l-4.1-4.1l1.6-1.6l-10.3-10.3h-10.1l8.7,8.7l-8.1,8.1l6.7,6.7
				l4.9-4.9l4.1,4.1L668.1,124.1z"/>
		</g>
		<g>
			<polygon points="618.2,162.1 609,152.3 626.9,134.3 628.4,135.8 611.8,152.3 618.3,159.2 635.6,141.9 637,143.3 			"/>
		</g>
		<g>
			<rect x="622.1" y="125.5" transform="matrix(0.7071 -0.7071 0.7071 0.7071 96.9146 486.9238)" width="28.3" height="2"/>
		</g>
		<g>
			<polygon points="635.6,144.7 634.2,143.3 656.1,121.4 649.4,114.7 645.5,118.6 644.1,117.2 649.4,111.9 658.9,121.4 			"/>
		</g>
	</g>
</g>
</svg>
