<?xml version="1.0" encoding="UTF-8"?><svg id="Layer_1" xmlns="http://www.w3.org/2000/svg" viewBox="0 0 350 105"><defs><style>.cls-1{fill:#76b900;}</style></defs><path class="cls-1" d="M59.1339,31.2861v-9.4723c.9201-.0648,1.8464-.1154,2.7933-.147,25.905-.811,42.8988,22.2612,42.8988,22.2612,0,0-18.3565,25.4955-38.0346,25.4955-2.8375,0-5.3684-.4537-7.6575-1.2267v-28.7236c10.0857,1.2204,12.1123,5.6752,18.1779,15.7798l13.486-11.3709s-9.8422-12.9106-26.4345-12.9106c-1.8085,0-3.5284.1281-5.22779.3067M59.1339,0v14.15c.9264-.0759,1.8607-.1344,2.7933-.166,36.0223-1.2141,59.4978,29.5472,59.4978,29.5472,0,0-26.9596,32.7816-55.043,32.7816-2.5752,0-4.9859-.2372-7.2481-.63869v8.7435c1.9365.2435,3.9442.3905,6.034.3905,26.1342,0,45.0341-13.3453,63.3391-29.1457,3.03,2.4282,15.45399,8.3405,18.00999,10.9299-17.405,14.5657-57.9576,26.3065-80.94749,26.3065-2.2179,0-4.3457-.13441-6.4356-.332v12.2912h99.3361V0H59.1339ZM59.1339,68.2031v7.4647c-24.1724-4.3078-30.883-29.4397-30.883-29.4397,0,0,11.6064-12.86,30.883-14.9436v8.1934h-.0379c-10.1173-1.214-18.0183,8.2393-18.0183,8.2393,0,0,4.4295,15.9078,18.0562,20.4907M16.1956,45.1436s14.3301-21.1435,42.932-23.3282v-7.6702C27.4447,16.6888,0,43.5201,0,43.5201c0,0,15.5379,44.9255,59.1276,49.042v-8.1555c-31.9833-4.0264-42.932-39.2693-42.932-39.2693v.0063Z"/><path d="M250.87.2311v31.5675h8.91901V.23584h-8.91901v-.00474ZM180.74001.18526v31.60864h8.99699V7.79377h6.96899c2.30801,0,3.951.57858,5.065,1.76578,1.412,1.50495,1.98601,3.92515,1.98601,8.35625v13.8781h8.715V14.3289c0-12.46481-7.94701-14.14364-15.72-14.14364h-16.01199ZM265.224.2311v31.5628h14.46201c7.70599,0,10.22-1.2789,12.93698-4.1545,1.92401-2.0155,3.16202-6.4418,3.16202-11.2839,0-4.4374-1.05002-8.39733-2.88699-10.85867-3.29901-4.40576-8.05902-5.27047-15.16202-5.27047h-12.50998v.00474h-.00201ZM274.06601,7.10294h3.832c5.56299,0,9.15399,2.49771,9.15399,8.97596s-3.59601,8.9759-9.15399,8.9759h-3.832V7.0982v.00474ZM238.017.2311l-7.44,25.0181L223.448.23742h-9.62599l10.18399,31.56278h12.849L247.116.23742h-9.09799v-.00474l-.00101-.00158ZM299.93301,31.7939h8.91397V.2311h-8.91898v31.5628h.005ZM324.92599.24216l-12.44901,31.54224h8.79102l1.96899-5.5724h14.73401l1.862,5.5724h9.543L336.83401.23742h-11.90701v.00474h-.00101ZM330.71301,5.99795l5.39798,14.77755h-10.97l5.57202-14.77755ZM238.761,45.4711h55.158v12.7873h-19.423v45.5006h-16.31v-45.5006h-19.425v-12.7873ZM231.355,45.4601v12.8869h-22.821c-4.08899,0-8.30499-.0886-11.149,2.9277-2.51399,2.6716-3.81999,6.6315-3.81999,11.8324v3.5632c0,5.291,1.257,9.1925,3.73599,11.5985,2.48801,2.4203,6.548,3.647,12.06201,3.647h.55299c2.327,0,4.56-.1565,6.64101-.46481,1.65999-.245,3.14999-.5849,4.44499-1.018v-9.2605h-12.35899v-12.8821h28.11v29.4934l-.621.4174c-3.255,2.1908-7.17401,3.8718-11.63,4.9918-4.414,1.107-9.229,1.665-14.311,1.665h-.74199c-21.369,0-32.201-9.5893-32.201-28.507v-3.0937c0-5.985,1.263-11.1906,3.74699-15.4842,2.504-4.3204,6.14101-7.6796,10.81601-9.986,4.612-2.2796,10.20999-2.3318,16.62199-2.3318h22.914l.006.0048h.002ZM328.88101,103.644c-6.41702,0-12.01001-.05199-16.62302-2.332-4.67398-2.3062-8.31-5.6655-10.81601-9.98589-2.409-4.1638-3.64697-9.20351-3.71899-14.9625v-2.4787c0-5.7337,1.31-11.9368,3.71899-16.1007,2.50403-4.3204,6.147-7.6796,10.81601-9.9861,4.61301-2.2795,10.20599-2.3317,16.62302-2.3317h21.12v12.8822l-21.02499.011c-4.884,0-8.306-.0933-11.15002,2.9214-2.51498,2.6653-3.819,6.6316-3.819,11.8325v2.88499c0,5.2009,1.302,9.1608,3.819,11.83241,2.84201,3.0163,6.26501,2.92139,11.15002,2.92139l21.02499.0111v12.88261h-21.12v-.00201Z"/></svg>