<?xml version="1.0" encoding="UTF-8"?><svg id="LOGO" xmlns="http://www.w3.org/2000/svg" xmlns:xlink="http://www.w3.org/1999/xlink" viewBox="0 0 1250 703"><defs><style>.cls-1{fill:url(#linear-gradient);}.cls-1,.cls-2,.cls-3{stroke-width:0px;}.cls-2{fill:#040000;}.cls-3{fill:#ec008c;}</style><linearGradient id="linear-gradient" x1="207.60118" y1="331.78933" x2="455.36509" y2="331.78933" gradientTransform="translate(-12.33 684.16) scale(1 -1)" gradientUnits="userSpaceOnUse"><stop offset=".02" stop-color="#fdb515"/><stop offset=".1" stop-color="#fca91d"/><stop offset=".26" stop-color="#f98932"/><stop offset=".47" stop-color="#f45454"/><stop offset=".73" stop-color="#ed0d83"/><stop offset=".77" stop-color="#ec008c"/></linearGradient></defs><g id="Amdocs"><path class="cls-1" d="m328.93986,258.93427h-109.68234l10.81876,37.36744h98.86358c10.3384,0,18.71932,8.38091,18.71932,18.7193h0v18.64814h-93.38303c-30.9562-1.1033-56.94557,23.09723-58.04888,54.05343-1.10331,30.95621,23.09724,56.94559,54.05344,58.04889,1.33139.04746,2.66405.04746,3.99544,0h74.66372c30.93188-.0391,56.00837-25.08377,56.08676-56.01557v-74.7349c-.07825-30.94339-25.14337-56.00851-56.08676-56.08674Zm18.71932,130.82164c.00008,10.29909-8.34893,18.64818-18.648,18.64826-.02377,0-.04754-.00005-.07131-.00014h-74.66372c-10.31873.63719-19.20026-7.21123-19.83747-17.52997-.63719-10.31874,7.21124-19.20028,17.52997-19.83747.76844-.04746,1.53907-.04746,2.3075,0h93.38303v18.71932Z"/><polygon class="cls-3" points="438.40866 333.66915 404.38649 333.66915 404.38649 371.03659 449.22743 371.03659 438.40866 333.66915"/><path class="cls-2" d="m574.78202,390.04059h-16.37049v-8.96817c-5.63063,7.18576-14.36562,11.23562-23.4881,10.88993-20.75533-.05533-37.53597-16.92571-37.48064-37.68104.00149-.56003.0155-1.11995.04203-1.67932-.9828-20.73211,15.02717-38.33554,35.75928-39.31836.55938-.02651,1.11929-.04052,1.67932-.04202,9.1225-.34568,17.85747,3.70417,23.4881,10.88994v-8.96819h16.37049v74.87722Zm-60.49964-37.43861c-.99057,12.46111,8.30815,23.36584,20.76926,24.35638,12.46108.99057,23.36581-8.30812,24.35638-20.76923.09489-1.19383.09489-2.39332,0-3.58715.99057-12.46111-8.30815-23.36584-20.76926-24.35638-12.46108-.99057-23.36581,8.30812-24.35638,20.76923-.09489,1.19383-.09489,2.39332,0,3.58715Z"/><path class="cls-2" d="m715.42596,342.99323v47.04739h-16.37052v-41.63802c0-12.59817-6.54819-19.64459-17.43812-19.64459-10.2497-.45487-18.92743,7.4854-19.38227,17.7351-.03036.68384-.02286,1.36882.02237,2.05184v41.49567h-16.44166v-41.63802c0-12.59817-6.47705-19.64459-17.43812-19.64459-10.2497-.45487-18.92743,7.4854-19.38227,17.7351-.03036.68384-.02286,1.36882.02237,2.05184v41.49567h-16.37052v-74.87725h16.01462v8.96819c5.27272-7.37434,13.93584-11.55839,22.9899-11.10346,10.37389-.42808,20.20078,4.66133,25.8369,13.3811,6.0404-9.05188,16.47739-14.16164,27.33159-13.3811,15.88912-.99645,29.57756,11.07645,30.57402,26.96557.06261.99863.0732,1.99985.03171,2.99956Z"/><path class="cls-2" d="m902.04965,352.60199c.51105,22.24328-17.10649,40.68929-39.34977,41.20031-22.24328.51102-40.68927-17.10646-41.20031-39.34975-.51099-22.24328,17.10649-40.68929,39.34977-41.20031.3048-.00701.60971-.01055.91463-.01063,21.48923-.74834,39.51638,16.06549,40.26473,37.55475.02096.60162.02791,1.20368.02096,1.80563Zm-64.05847,0c.27515,12.96919,11.01184,23.25976,23.98104,22.9846,12.96919-.27518,23.25978-11.01184,22.98463-23.98106-.27103-12.77302-10.70166-22.98699-23.47754-22.98987-12.65652-.17103-23.05528,9.95041-23.22628,22.6069-.00624.45995.00141.91995.02286,1.37943h-.28471Z"/><path class="cls-2" d="m980.84156,325.19921l-10.46289,11.17464c-4.7135-4.90457-11.20543-7.7015-18.00754-7.75819-12.34254.12406-22.24763,10.2302-22.12355,22.57277.00472.47168.02438.94311.05897,1.41356-.90474,12.30996,8.34106,23.02261,20.65101,23.92733.47043.03459.94189.05425,1.41356.059,6.89399-.17985,13.46053-2.97953,18.36344-7.82936l10.10699,11.24583c-7.10631,7.91326-17.34157,12.28861-27.9722,11.95758-20.81349.92464-38.43574-15.19844-39.36036-36.01193-.04958-1.1156-.04958-2.23286,0-3.34846-.92467-20.81349,15.19844-38.43573,36.01193-39.36038,1.1156-.04957,2.23283-.04957,3.34843,0,10.64367-.40089,20.90732,3.98664,27.9722,11.9576Z"/><path class="cls-2" d="m1048.24526,333.95386c-7.04213-4.06388-15.00284-6.26836-23.13223-6.40586-8.89701,0-14.23522,3.5588-14.23522,8.89701s5.48053,6.69054,12.38468,7.68703l7.68703,1.20998c16.37052,2.34882,26.05047,9.32408,26.05047,22.13576,0,14.23522-12.52695,24.4134-34.09329,24.4134-11.43698.19837-22.65344-3.15911-32.10043-9.60876l7.61584-12.24229c7.07623,5.3732,15.82472,8.07084,24.69811,7.61584,11.1747,0,17.01108-3.48764,17.01108-9.11053,0-4.19939-4.05709-7.11761-12.9541-8.25642l-7.82936-1.06765c-16.58404-2.20647-25.40986-9.89347-25.40986-21.92225,0-14.8758,11.88639-23.98633,30.96164-23.98633,10.64698-.25385,21.15169,2.48331,30.32097,7.90055l-6.97533,12.74052Z"/><path class="cls-2" d="m790.23203,324.13156v-27.40279l16.37052-5.83644v99.14827h-16.37052v-8.96817c-5.63063,7.18579-14.36565,11.23562-23.48813,10.88993-20.75386-.25183-37.37407-17.28029-37.12226-38.03417.00538-.44224.01857-.88438.03953-1.32619-.98283-20.73211,15.02717-38.33554,35.75926-39.31836.55943-.02651,1.11935-.04052,1.67938-.04202,8.99872-.23107,17.57664,3.80715,23.13223,10.88994Zm-44.12915,28.47043c-.70078,12.48074,8.84879,23.16649,21.32953,23.86724,12.48079.70078,23.16649-8.84879,23.86727-21.32955.04746-.84523.04746-1.69246,0-2.53769.70078-12.48074-8.84879-23.16649-21.32953-23.86724-12.48079-.70078-23.16649,8.84879-23.86727,21.32955-.04746.84523-.04746,1.69246,0,2.53769Z"/></g></svg>