<?xml version="1.0" encoding="UTF-8"?><svg id="LOGO" xmlns="http://www.w3.org/2000/svg" viewBox="0 0 1250 703"><defs><style>.cls-1,.cls-2{fill-rule:evenodd;}.cls-1,.cls-2,.cls-3{stroke-width:0px;}.cls-2{fill:#62d84e;}</style></defs><path class="cls-1" d="M368.76897,304.05398c-10.74329,0-19.89708,3.79571-27.25724,9.78568v-8.78789h-24.87189v96.86226h25.86642v-61.90937c3.58182-4.99436,12.53366-11.98537,23.47673-11.98537,3.89668,0,7.4633.28446,10.38174,1.55476v-24.8556c-2.47329-.43321-5.01064-.66447-7.59576-.66447"/><path class="cls-1" d="M143.26189,372.35722c6.56432,5.99105,16.71263,9.58482,26.4614,9.58482,6.96387,0,12.33606-3.39508,12.33606-8.1864,0-14.57809-46.75585-9.3883-46.75585-40.54331,0-18.57249,17.90585-30.1583,37.00817-30.1583,12.53475,0,26.26379,4.7935,32.62942,9.78676l-12.13628,18.77335c-4.97481-3.59485-11.5413-6.59038-18.50517-6.59038-7.16147,0-13.1319,2.79575-13.1319,7.78794,0,12.5836,46.75802,7.59142,46.75802,41.14263,0,18.57357-18.10562,29.95853-38.40008,29.95853-13.33276,0-27.4581-4.59481-38.79854-12.98207l12.53475-18.57357Z"/><path class="cls-1" d="M305.60015,352.58392c0-26.96192-18.90038-49.52989-45.56155-49.52989-28.65131,0-46.95671,23.56684-46.95671,50.52876,0,30.35699,21.68744,50.32898,50.53636,50.32898,14.92226,0,30.24299-6.18974,39.59655-17.37601l-14.72358-14.77895c-4.57743,4.99327-13.33167,11.18518-24.27365,11.18518-13.73013,0-24.6732-9.3883-26.06619-22.96643h66.8527c.39738-2.19752.59607-4.79567.59607-7.39165ZM239.34568,341.00135c1.19322-8.78898,9.94962-16.97646,20.69292-16.97646,10.5446,0,18.30323,8.38835,19.09907,16.97646h-39.79198Z"/><polygon class="cls-1" points="438.00918 364.16756 464.47058 305.05177 491.33258 305.05177 446.96102 401.91403 429.05517 401.91403 384.68576 305.05177 411.54779 305.05177 438.00918 364.16756"/><path class="cls-1" d="M513.05151,259.56731c9.35356,0,16.91349,7.19079,16.91349,16.57583,0,9.3883-7.55993,16.57692-16.91349,16.57692-9.3503,0-16.91129-7.18861-16.91129-16.57692,0-9.38504,7.56099-16.57583,16.91129-16.57583"/><rect class="cls-3" x="500.11939" y="305.05177" width="25.86642" height="96.86226"/><path class="cls-1" d="M632.93014,382.14181c-11.34044,15.17741-25.66553,21.76996-43.77226,21.76996-29.84561,0-51.73175-22.3682-51.73175-50.3279,0-28.16273,22.48328-50.52984,51.93043-50.52984,16.71263,0,31.63598,7.79011,40.58894,19.37375l-18.30434,16.17628c-5.17241-6.79124-12.93321-11.58473-22.28459-11.58473-14.92226,0-26.0651,11.78451-26.0651,26.56454,0,15.17632,10.94307,26.36042,26.66117,26.36042,10.54677,0,18.90146-6.3906,23.08152-12.78012l19.89599,14.97764Z"/><path class="cls-1" d="M726.87396,386.53576c-9.35247,11.18627-24.67211,17.37601-39.59546,17.37601-28.84783,0-50.53527-19.97199-50.53527-50.32898,0-26.96192,18.30434-50.52876,46.95562-50.52876,26.66117,0,45.56155,22.56797,45.56155,49.52989,0,2.59598-.1976,5.19413-.59607,7.39165h-66.85267c1.39296,13.57813,12.33711,22.96643,26.06507,22.96643,10.94307,0,19.6973-6.19191,24.27582-11.18518l14.7214,14.77895ZM702.799,341.00135c-.79584-8.58812-8.5566-16.97646-19.10015-16.97646-10.74329,0-19.4997,8.18749-20.69288,16.97646h39.79303Z"/><path class="cls-1" d="M739.54334,401.91403v-96.86226h24.86975v7.78794c7.3623-5.98997,16.51282-9.78568,27.2572-9.78568,13.33276,0,25.46795,5.98997,33.42635,15.57913,6.3678,7.58816,9.94745,17.37493,9.94745,33.95076v49.33011h-25.86424v-51.32786c0-9.58482-2.18992-14.57809-5.76848-18.17185-3.3853-3.39616-8.55663-5.39499-14.52594-5.39499-10.9431,0-19.89494,6.9921-23.47676,11.98537v62.90933h-25.86533Z"/><path class="cls-2" d="M901.64707,303.0562c-30.90529-.17915-56.46987,25.10966-56.72827,56.13221-.13354,16.42166,6.70112,31.24838,17.71476,41.67355,4.00634,3.78811,10.19826,4.15726,14.54338.76761,6.41988-5.01173,14.66382-7.99857,24.14007-7.99857,9.47516,0,17.72019,2.98793,24.14011,7.99857,4.38092,3.41788,10.59893,2.98033,14.62803-.85013,10.85625-10.31769,17.6312-24.92509,17.6312-41.11331,0-31.15175-25.07822-56.43187-56.06927-56.60993M901.31701,387.97218c-16.74086,0-28.19856-12.60532-28.19856-28.19639,0-15.59867,11.4577-28.41571,28.19856-28.41571,16.74629,0,28.19748,12.81704,28.19748,28.41571,0,15.59107-11.45119,28.19639-28.19748,28.19639"/><polygon class="cls-1" points="1008.89975 401.91403 989.63678 401.91403 951.22255 305.05177 977.0488 305.05177 998.1076 360.4066 1018.76035 305.05177 1040.34465 305.05177 1060.80956 360.4066 1082.05511 305.05177 1107.88357 305.05177 1069.47151 401.91403 1050.20415 401.91403 1029.55358 346.75898 1008.89975 401.91403"/><path class="cls-3" d="M1108.18521,390.99304h-2.18404v4.09674h-1.84872v-11.24451h4.49604c2.00755,0,3.6136,1.60604,3.6136,3.6136,0,1.4472-.91333,2.73116-2.23258,3.26062l2.55467,4.37029h-2.0252l-2.37377-4.09674ZM1106.00117,389.33846h2.64733c.97951,0,1.7693-.83391,1.7693-1.8796,0-1.05893-.78979-1.8796-1.7693-1.8796h-2.64733v3.7592Z"/><path class="cls-3" d="M1107.94143,379.24884c5.74028,0,10.41061,4.67005,10.41061,10.41061s-4.67032,10.41061-10.41061,10.41061-10.41061-4.67005-10.41061-10.41061,4.67032-10.41061,10.41061-10.41061M1107.94143,377.60088c-6.66023,0-12.05857,5.39889-12.05857,12.05857s5.39834,12.05857,12.05857,12.05857c6.65913,0,12.05857-5.39889,12.05857-12.05857s-5.39944-12.05857-12.05857-12.05857h0Z"/></svg>