<?xml version="1.0" encoding="UTF-8"?><svg id="LOGOS" xmlns="http://www.w3.org/2000/svg" viewBox="0 0 1250 703"><defs><style>.cls-1{fill:#ff323d;}.cls-1,.cls-2,.cls-3,.cls-4,.cls-5,.cls-6,.cls-7{stroke-width:0px;}.cls-2{fill:#ffd21e;}.cls-2,.cls-3,.cls-7{fill-rule:evenodd;}.cls-3{fill:#ffad03;}.cls-4{fill:#000b1b;}.cls-5{fill:#fff;}.cls-6{fill:#ff9d00;}.cls-7{fill:#32343d;}</style></defs><g id="Layer_4"><path class="cls-4" d="M437.10944,386.309v-68.8551h18.22v25.6351h20.55103v-25.6351h18.22v68.8551h-18.22v-27.33h-20.55103v27.33h-18.22ZM523.93445,387.58c-5.79099,0-9.99301-1.942-12.60599-5.82599-2.61301-3.955-3.91901-9.216-3.91901-15.78401v-32.62599h18.22v30.29599c0,3.39.42398,5.649,1.271,6.77901.918,1.13,2.26001,1.69499,4.026,1.69499,1.694,0,3.10699-.353,4.237-1.05899,1.13-.70601,2.26001-1.907,3.38998-3.60201v-34.10899h18.22v52.965h-14.83099l-1.271-6.991h-.42401c-2.11798,2.54199-4.48398,4.55499-7.09698,6.03799-2.54199,1.483-5.61401,2.224-9.216,2.224ZM588.35346,408.13101c-4.02499,0-7.733-.459-11.12302-1.377-3.38898-.84801-6.108-2.22501-8.15598-4.132-1.978-1.90601-2.966-4.44901-2.966-7.627,0-4.166,2.47098-7.556,7.41498-10.16901v-.424c-1.35397-1.00101-2.53497-2.218-3.49597-3.601-.91803-1.483-1.37701-3.32001-1.37701-5.509,0-1.836.53-3.63701,1.58899-5.40201,1.13-1.76599,2.578-3.284,4.34302-4.55499v-.424c-1.90701-1.27101-3.60101-3.07201-5.08401-5.403-1.41299-2.401-2.11899-5.12001-2.11899-8.15601,0-4.379,1.05899-7.98,3.17801-10.805,2.189-2.896,5.01398-5.014,8.474-6.356,3.461-1.412,7.133-2.119,11.017-2.119,3.10699,0,5.93198.424,8.474,1.272h19.70398v13.13499h-7.62698c.211.636.388,1.448.52899,2.436.21201.989.31799,2.013.31799,3.072,0,4.167-.953,7.557-2.85999,10.17001-1.90701,2.54199-4.48401,4.41399-7.733,5.614-3.24899,1.20099-6.85001,1.80099-10.80499,1.80099-1.76501,0-3.74301-.24699-5.93201-.742-.84799.77701-1.271,1.80101-1.271,3.07201,0,1.13.565,1.942,1.69498,2.437,1.20001.494,3.10703.741,5.72.741h7.94501c6.638,0,11.758,1.095,15.36002,3.284,3.672,2.119,5.508,5.61401,5.508,10.48701,0,3.814-1.271,7.168-3.81302,10.064-2.47198,2.895-6.00299,5.155-10.59399,6.77899-4.59,1.625-10.02798,2.43701-16.31299,2.43701ZM590.04846,358.767c1.69498,0,3.07199-.59999,4.13098-1.80099,1.06-1.2,1.58902-3.07199,1.58902-5.614,0-2.472-.52902-4.273-1.58902-5.403-1.05899-1.2-2.436-1.8-4.13098-1.8s-3.07202.60001-4.13101,1.8c-1.06,1.13-1.58899,2.931-1.58899,5.403,0,2.54201.52899,4.414,1.58899,5.614,1.05899,1.201,2.436,1.80099,4.13101,1.80099ZM591.31946,396.90201c2.966,0,5.43799-.459,7.41498-1.377,1.97803-.84801,2.966-2.013,2.966-3.496,0-1.412-.63498-2.295-1.90598-2.64799-1.20102-.35301-2.931-.53-5.19101-.53h-4.13101c-2.11899,0-3.74298-.07001-4.87299-.21201-1.05902-.07001-1.97702-.211-2.754-.423-1.271,1.271-1.90701,2.54201-1.90701,3.813,0,1.69499.953,2.931,2.86002,3.70799,1.978.77701,4.48499,1.16501,7.521,1.16501ZM646.18146,408.13101c-4.026,0-7.733-.459-11.12302-1.377-3.38998-.84801-6.10898-2.22501-8.15698-4.132-1.97702-1.90601-2.966-4.44901-2.966-7.627,0-4.166,2.47198-7.556,7.41501-10.16901v-.424c-1.354-1.00101-2.535-2.218-3.49503-3.601-.91898-1.483-1.37799-3.32001-1.37799-5.509,0-1.836.53-3.63701,1.58899-5.40201,1.13-1.76599,2.578-3.284,4.34402-4.55499v-.424c-1.90701-1.27101-3.60202-3.07201-5.08502-5.403-1.41299-2.401-2.11899-5.12001-2.11899-8.15601,0-4.379,1.06-7.98,3.17801-10.805,2.189-2.896,5.01398-5.014,8.47498-6.356,3.46002-1.412,7.13202-2.119,11.01602-2.119,3.108,0,5.93298.424,8.47501,1.272h19.70297v13.13499h-7.62701c.21204.636.388,1.448.53003,2.436.211.989.31702,2.013.31702,3.072,0,4.167-.953,7.557-2.86005,10.17001-1.90594,2.54199-4.48395,4.41399-7.73297,5.614-3.24799,1.20099-6.85001,1.80099-10.80499,1.80099-1.76501,0-3.742-.24699-5.93201-.742-.84698.77701-1.271,1.80101-1.271,3.07201,0,1.13.565,1.942,1.69501,2.437,1.20099.494,3.10699.741,5.72.741h7.94498c6.638,0,11.758,1.095,15.35999,3.284,3.672,2.119,5.508,5.61401,5.508,10.48701,0,3.814-1.271,7.168-3.81299,10.064-2.47198,2.895-6.00299,5.155-10.59296,6.77899-4.59003,1.625-10.02802,2.43701-16.31302,2.43701ZM647.87546,358.767c1.69501,0,3.07199-.59999,4.13199-1.80099,1.05899-1.2,1.58902-3.07199,1.58902-5.614,0-2.472-.53003-4.273-1.58902-5.403-1.06-1.2-2.43698-1.8-4.13199-1.8-1.694,0-3.07202.60001-4.13101,1.8-1.05899,1.13-1.58899,2.931-1.58899,5.403,0,2.54201.53,4.414,1.58899,5.614,1.05899,1.201,2.43701,1.80099,4.13101,1.80099ZM649.14746,396.90201c2.966,0,5.43698-.459,7.41498-1.377,1.97702-.84801,2.966-2.013,2.966-3.496,0-1.412-.63599-2.295-1.90698-2.64799-1.20001-.35301-2.931-.53-5.19101-.53h-4.13101c-2.11798,0-3.74298-.07001-4.87299-.21201-1.05899-.07001-1.97699-.211-2.754-.423-1.271,1.271-1.90701,2.54201-1.90701,3.813,0,1.69499.95401,2.931,2.86102,3.70799,1.97699.77701,4.48398,1.16501,7.521,1.16501ZM684.72946,386.309v-52.965h18.21997v52.965h-18.21997ZM693.83945,326.77601c-2.966,0-5.36798-.812-7.20398-2.4361-1.836-1.695-2.75403-3.92-2.75403-6.674s.91803-4.944,2.75403-6.568c1.836-1.695,4.23798-2.542,7.20398-2.542s5.367.847,7.203,2.542c1.836,1.624,2.75403,3.814,2.75403,6.568s-.91803,4.979-2.75403,6.674c-1.836,1.6241-4.237,2.4361-7.203,2.4361ZM715.24643,386.309v-52.965h14.83002l1.271,6.355h.42401c2.11798-2.048,4.52002-3.813,7.203-5.296,2.75397-1.554,5.93201-2.331,9.534-2.331,5.86102,0,10.06299,1.978,12.60602,5.933,2.61298,3.884,3.91901,9.11,3.91901,15.677v32.627h-18.22003v-30.29601c0-3.38999-.42401-5.64999-1.271-6.77999-.84802-1.13-2.18903-1.69501-4.026-1.69501-1.69397,0-3.10699.353-4.237,1.06001-1.13.706-2.401,1.695-3.81299,2.966v34.745h-18.22003ZM796.18045,408.13101c-4.02502,0-7.73297-.459-11.12299-1.377-3.38904-.84801-6.10803-2.22501-8.15601-4.132-1.97803-1.90601-2.966-4.44901-2.966-7.627,0-4.166,2.47101-7.556,7.41498-10.16901v-.424c-1.354-1.00101-2.53497-2.218-3.49597-3.601-.91803-1.483-1.37701-3.32001-1.37701-5.509,0-1.836.53003-3.63701,1.58899-5.40201,1.13-1.76599,2.578-3.284,4.34302-4.55499v-.424c-1.90698-1.27101-3.60199-3.07201-5.08502-5.403-1.41199-2.401-2.11798-5.12001-2.11798-8.15601,0-4.379,1.05902-7.98,3.17798-10.805,2.18903-2.896,5.01404-5.014,8.474-6.356,3.461-1.412,7.133-2.119,11.01703-2.119,3.10699,0,5.93201.424,8.474,1.272h19.703v13.13499h-7.62701c.21198.636.38898,1.448.53003,2.436.21198.989.31799,2.013.31799,3.072,0,4.167-.953,7.557-2.86005,10.17001-1.90698,2.54199-4.48499,4.41399-7.73297,5.614-3.24902,1.20099-6.84998,1.80099-10.80499,1.80099-1.76599,0-3.74298-.24699-5.93201-.742-.84802.77701-1.271,1.80101-1.271,3.07201,0,1.13.565,1.942,1.69501,2.437,1.20001.494,3.10699.741,5.71997.741h7.94501c6.638,0,11.758,1.095,15.35999,3.284,3.672,2.119,5.508,5.61401,5.508,10.48701,0,3.814-1.271,7.168-3.81396,10.064-2.47101,2.895-6.00201,5.155-10.59302,6.77899-4.58997,1.625-10.02802,2.43701-16.31299,2.43701ZM797.87546,358.767c1.69501,0,3.07202-.59999,4.13098-1.80099,1.06-1.2,1.58899-3.07199,1.58899-5.614,0-2.472-.52899-4.273-1.58899-5.403-1.05896-1.2-2.43597-1.8-4.13098-1.8s-3.07202.60001-4.13098,1.8c-1.06,1.13-1.58905,2.931-1.58905,5.403,0,2.54201.52905,4.414,1.58905,5.614,1.05896,1.201,2.43597,1.80099,4.13098,1.80099ZM799.14646,396.90201c2.966,0,5.43799-.459,7.41498-1.377,1.97803-.84801,2.966-2.013,2.966-3.496,0-1.412-.63501-2.295-1.90601-2.64799-1.20099-.35301-2.93097-.53-5.19098-.53h-4.13098c-2.11902,0-3.74304-.07001-4.87305-.21201-1.05896-.07001-1.97797-.211-2.75397-.423-1.27203,1.271-1.90698,2.54201-1.90698,3.813,0,1.69499.953,2.931,2.85999,3.70799,1.97699.77701,4.48401,1.16501,7.521,1.16501ZM857.41843,386.309v-68.8551h44.914v15.2541h-26.69397v13.13499h22.88098v15.254h-22.88098v25.21201h-18.22003ZM922.25748,387.58c-3.31903,0-6.17902-.741-8.58002-2.224-2.29199-1.51199-4.15399-3.592-5.40204-6.03799-1.27197-2.472-1.90698-5.15601-1.90698-8.05101,0-5.50899,2.26001-9.81599,6.77899-12.924,4.52002-3.17799,11.86499-5.296,22.034-6.356-.42395-3.672-2.896-5.508-7.41498-5.508-1.90698,0-3.91998.388-6.03802,1.165-2.11896.706-4.55499,1.801-7.31,3.284l-6.35498-11.86401c3.74298-2.25999,7.521-3.99,11.33398-5.19099,3.87701-1.19901,7.91205-1.806,11.97003-1.801,6.92096,0,12.32397,1.978,16.20801,5.933,3.88397,3.884,5.82599,10.169,5.82599,18.855v29.44901h-14.83002l-1.271-5.08501h-.42401c-2.11896,1.90701-4.37897,3.46101-6.77997,4.66101-2.33002,1.12999-4.94299,1.69499-7.83899,1.69499ZM928.61344,373.597c1.48303,0,2.71899-.31799,3.70801-.95299.98804-.70601,1.94202-1.589,2.85999-2.64801v-7.20399c-4.30798.636-7.30896,1.589-9.00397,2.86-1.62402,1.272-2.43701,2.649-2.43701,4.132,0,2.54199,1.625,3.81299,4.87299,3.81299ZM989.22043,387.58c-5.01398,0-9.534-1.095-13.55896-3.284-4.026-2.189-7.23901-5.332-9.64001-9.42799-2.33099-4.166-3.49603-9.18001-3.49603-15.04201,0-5.86099,1.30701-10.84,3.92004-14.936,2.68298-4.167,6.17902-7.344,10.487-9.534,4.30701-2.189,8.96796-3.284,13.98199-3.284,3.17798,0,6.039.495,8.58099,1.483,2.61298.989,4.90802,2.331,6.88501,4.026l-8.474,11.652c-1.13-.98801-2.15399-1.659-3.07202-2.012-.91199-.353-1.88202-.53201-2.85999-.53-3.39001,0-6.03802,1.2-7.94501,3.602-1.90698,2.33-2.85999,5.508-2.85999,9.533,0,4.026.98901,7.239,2.966,9.64,1.97699,2.33,4.37799,3.496,7.203,3.496,1.48297,0,2.93097-.31799,4.34296-.95399,1.448-.685,2.83099-1.50101,4.13202-2.436l6.99103,11.864c-2.61304,2.33099-5.508,3.955-8.68604,4.873-3.17798.847-6.14398,1.271-8.89801,1.271ZM1036.61447,387.58c-5.15601,0-9.81702-1.095-13.98303-3.284-4.09601-2.189-7.34497-5.332-9.74597-9.42799-2.401-4.166-3.60101-9.18001-3.60101-15.04201,0-5.72,1.20001-10.628,3.60101-14.724,2.47198-4.167,5.64996-7.38,9.534-9.64,3.88397-2.26,7.97998-3.39,12.28796-3.39,5.22601,0,9.534,1.166,12.92303,3.496,3.461,2.25999,6.00299,5.332,7.62701,9.216,1.69495,3.884,2.54297,8.192,2.54297,12.924,0,1.55299-.10602,3.07199-.31799,4.55499-.14099,1.412-.28302,2.436-.42401,3.07201h-30.19c.84698,3.17799,2.36603,5.40199,4.55499,6.673,2.18903,1.20099,4.76703,1.80099,7.73303,1.80099,3.39001,0,6.99097-1.05901,10.80499-3.17799l5.93201,10.80499c-2.82501,1.97701-6.00299,3.496-9.534,4.55501-3.53101,1.05899-6.77899,1.58899-9.745,1.58899ZM1026.65647,353.47h15.67798c0-2.048-.52997-3.813-1.58899-5.296-.98901-1.554-2.85999-2.331-5.61401-2.331-1.97797,0-3.74298.60101-5.297,1.801-1.55402,1.201-2.61298,3.143-3.17798,5.826Z"/><path class="cls-5" d="M397.94646,396.40001c-.537-2.02701-1.40701-3.95-2.57401-5.692.25-.918.44-1.85001.56799-2.791.828-5.976-1.243-11.44701-5.14799-15.681-2.11501-2.312-4.382-3.838-6.783-4.77501,1.576-6.743,2.37401-13.644,2.37801-20.56899,0-3.162-.179-6.26-.479-9.312-.157-1.524-.34599-3.04501-.567-4.561-.68799-4.473-1.70799-8.8886-3.052-13.21-.881-2.8393-1.89999-5.634-3.05299-8.374-1.729-4.0576-3.748-7.9858-6.041-11.754-1.505-2.5064-3.14301-4.9303-4.908-7.261-.86499-1.177-1.76599-2.3262-2.70399-3.446-2.778-3.3766-5.79601-6.5473-9.033-9.487-1.07399-.9882-2.179-1.9423-3.314-2.861-1.117-.9318-2.259-1.8338-3.424-2.705-2.345-1.7452-4.769-3.3826-7.263-4.907-13.78101-8.37-29.942-13.169-47.215-13.169-50.29091,0-91.05191,40.762-91.05191,91.051-.0013,7.012.8111,14.00001,2.421,20.824-2.16.938-4.231,2.399-6.15,4.51401-3.904,4.231-5.976,9.683-5.147,15.65799.125.95001.315,1.89001.567,2.81401-1.1663,1.743-2.036,3.66699-2.574,5.694-1.2,4.56099-.805,8.674.72,12.27699-1.657,4.711-1.243,9.72701.916,14.088,1.57,3.18501,3.817,5.64801,6.586,7.85101,3.293,2.61699,7.415,4.842,12.388,6.97499,5.932,2.53,13.172,4.907,16.465,5.77901,8.506,2.203,16.662,3.599,24.9289,3.666,11.776.11,21.918-2.66,29.18-9.74701,3.567.43701,7.157.65601,10.75101.655,3.797-.008,7.59-.248,11.35799-.71599,7.244,7.13199,17.425,9.92699,29.24501,9.814,8.265-.065,16.42099-1.461,24.905-3.66701,3.315-.87199,10.55299-3.24899,16.48799-5.778,4.97301-2.138,9.09401-4.362,12.41-6.976,2.748-2.202,4.993-4.666,6.564-7.851,2.18102-4.36099,2.57401-9.377.938-14.088,1.511-3.603,1.903-7.72501.70401-12.282ZM389.50745,408.37201c1.67101,3.17099,1.778,6.754.30301,10.091-2.23601,5.058-7.79001,9.041-18.57701,13.31799-6.707,2.661-12.84999,4.36099-12.90399,4.377-8.87199,2.30099-16.896,3.46899-23.842,3.46899-11.502,0-20.06001-3.17299-25.48801-9.44099-9.179,1.563-18.552,1.616-27.748.157-5.434,6.164-13.945,9.284-25.35,9.284-6.9469,0-14.9699-1.168-23.8419-3.46899-.055-.01601-6.194-1.716-12.904-4.377-10.787-4.27699-16.342-8.258-18.577-13.31799-1.475-3.33701-1.368-6.92001.303-10.091.155-.29401.32-.582.497-.85901-1.0016-1.504-1.6733-3.20399-1.9712-4.98599-.2978-1.782-.2149-3.608.2432-5.356.664-2.522,2.036-4.62,3.898-6.127-.8966-1.474-1.4851-3.114-1.73-4.82201-.536-3.71399.696-7.42299,3.47-10.446,2.159-2.353,5.212-3.64799,8.593-3.64799h.09c-2.5487-8.16901-3.8411-16.67799-3.833-25.235,0-46.672,37.837-84.51,84.5139-84.51s84.51401,37.835,84.51401,84.51c.006,8.58-1.29501,17.11101-3.85901,25.299.408-.03999.808-.06099,1.2-.06099,3.38,0,6.43401,1.29399,8.593,3.64699,2.772,3.02101,4.007,6.733,3.47,10.446-.245,1.70801-.83299,3.34901-1.73,4.82301,1.862,1.506,3.23399,3.60399,3.89799,6.127.457,1.748.54001,3.573.242,5.35599-.298,1.78201-.96901,3.481-1.97,4.98601.177.274.34399.562.49699.856Z"/><path class="cls-6" d="M389.01045,407.516c1.00099-1.505,1.672-3.20399,1.97-4.98601.298-1.78299.215-3.60799-.242-5.35599-.664-2.522-2.036-4.62001-3.89799-6.127.896-1.474,1.485-3.11401,1.73-4.82201.536-3.714-.696-7.423-3.47-10.446-2.159-2.353-5.213-3.64799-8.593-3.64799-.39299,0-.79199.01999-1.2.06099,2.561-8.18799,3.86-16.71899,3.85201-25.298,0-46.6711-37.83701-84.51-84.51001-84.51s-84.51399,37.8349-84.51399,84.51c-.0081,8.557,1.2843,17.066,3.833,25.23501h-.09c-3.38,0-6.433,1.295-8.592,3.64799-2.772,3.021-4.006,6.73199-3.47,10.446.2447,1.70799.8332,3.34799,1.73,4.82199-1.862,1.507-3.234,3.60501-3.897,6.12801-.4578,1.748-.5404,3.57401-.2422,5.35699.2982,1.78201.9703,3.48201,1.9722,4.98601-.179.27699-.343.565-.497.85899-1.67,3.17101-1.778,6.75401-.303,10.091,2.235,5.05701,7.79,9.04201,18.577,13.31801,6.707,2.661,12.85001,4.36099,12.904,4.377,8.872,2.30099,16.895,3.47,23.841,3.47,11.406,0,19.916-3.12001,25.35101-9.285,9.196,1.459,18.569,1.40599,27.748-.157,5.42699,6.26799,13.98599,9.442,25.48799,9.442,6.946,0,14.97-1.16901,23.842-3.47.054-.01601,6.194-1.716,12.90401-4.377,10.787-4.276,16.342-8.261,18.577-13.31801,1.47501-3.33699,1.368-6.92-.30299-10.091-.153-.297-.321-.584-.498-.85899ZM277.36345,420.696c-.46799.819-.969,1.61801-1.503,2.395-1.405,2.05701-3.253,3.62801-5.397,4.797-4.101,2.235-9.28999,3.017-14.563,3.017-8.328,0-16.866-1.94899-21.652-3.19099-.235-.061-29.334-8.28-25.65-15.276.62-1.17599,1.641-1.646,2.925-1.646,5.187,0,14.6321,7.724,18.6921,7.724.906,0,1.5459-.38699,1.8069-1.328,1.73-6.205-26.293-8.813-23.933-17.797.417-1.59,1.546-2.235,3.135-2.235,6.857-.00101,22.249,12.05901,25.468,12.05901.247,0,.424-.07201.52-.224l.042-.069c1.51-2.49501.644-4.30901-9.708-10.649l-.994-.60501c-11.39-6.89499-19.386-11.043-14.838-15.993.523-.57199,1.264-.825,2.165-.825,1.069,0,2.362.358,3.786.957,6.016,2.537,14.354,9.45599,17.837,12.474,1.027.894,1.632,1.44,1.632,1.44,0,0,4.41,4.586,7.077,4.586.61401,0,1.134-.241,1.487-.84,1.89201-3.188-17.563-17.93001-18.66-24.01201-.743-4.12199.522-6.209,2.863-6.209,1.112,0,2.47.47301,3.969,1.424,4.65,2.95201,13.628,18.38,16.915,24.38101,1.102,2.01199,2.98299,2.862,4.67799,2.862,3.36301,0,5.992-3.343.30801-7.591-8.543-6.39301-5.54501-16.841-1.468-17.48399.174-.02701.35-.041.525-.04201,3.708,0,5.34399,6.39,5.34399,6.39,0,0,4.79301,12.03799,13.02801,20.26601,7.47299,7.46899,8.51599,13.599,4.16299,21.24399ZM303.99245,422.106l-.427.05101-.72899.084c-.38301.03899-.76601.077-1.151.11299l-.37601.034-.342.02901-.487.039c-.179.013-.358.02699-.537.03799l-.536.036-.11801.007-.422.02501-.179.00899-.5.02501-.58099.024-.528.01799-.35201.01001h-.17799c-.11,0-.21901.006-.32901.00699h-.17499c-.11,0-.21901,0-.32901.00601l-.44699.00499h-.62601c-.491,0-.98-.00499-1.46899-.01399l-.396-.009c-.112,0-.22501-.006-.33701-.009l-.41901-.013-.52199-.01999-.46901-.02-.12199-.005-.44701-.024c-.12399-.007-.248-.013-.371-.021l-.289-.017c-.36299-.02299-.726-.049-1.08899-.077l-.38-.03-.48-.041-.561-.052c-.313-.02901-.62599-.061-.939-.09601h-.015c4.56999-10.19499,2.259-19.716-6.976-28.944-6.05601-6.04799-10.08601-14.981-10.92101-16.942-1.692-5.80499-6.171-12.258-13.608-12.258-.629.00101-1.256.05099-1.877.149-3.259.51199-6.107,2.388-8.139,5.20999-2.195-2.73099-4.33-4.90199-6.26-6.129-2.91-1.84399-5.813-2.78-8.643-2.78-3.53,0-6.687,1.45-8.887,4.08l-.055.067-.124-.521-.005-.022c-.4184-1.78999-.76991-3.59599-1.054-5.412,0-.013,0-.02499-.006-.037l-.062-.411c-.0335-.222-.0662-.44499-.098-.66699-.026-.18501-.052-.37001-.076-.554-.02399-.18401-.05-.369-.072-.554-.02399-.186-.046-.371-.068-.556-.0211-.17601-.0414-.35201-.061-.528l-.0059-.04501c-.0902-.812-.1675-1.625-.2321-2.439l-.035-.471c-.00999-.129-.019-.259-.027-.39,0-.03-.004-.061-.006-.089l-.0329-.522c-.012-.189-.0211-.378-.03111-.56699-.00999-.188-.02-.37701-.028-.567l-.02-.495-.006-.15-.015-.458-.01089-.388c0-.155-.0071-.311-.0101-.466l-.008-.489c-.002-.163,0-.325-.004-.48801-.005-.16399,0-.327,0-.491,0-41.8521,33.931-75.7831,75.787-75.7831s75.786,33.929,75.786,75.7831v.979c0,.16299-.004.327-.008.489,0,.136-.005.269-.009.405,0,.121-.005.241-.00999.358,0,.153-.009.305-.01401.458v.013c-.013.332-.02699.66399-.041.99599l-.006.11-.026.496-.024.393c-.056.931-.129,1.862-.218,2.791v.013c-.01599.174-.034.349-.05299.52299-.04401.40501-.089.81001-.134,1.21501l-.05099.407-.063.478c-.022.175-.04601.349-.071.52299-.02701.19501-.056.38901-.084.58301l-.07001.45799-.082.52c-.028.173-.056.345-.08899.51801-.034.172-.06.34399-.09001.517-.06.34399-.12199.687-.189,1.03-.133.683-.272,1.364-.41899,2.04399-.037.16901-.07501.339-.114.50801-2.13301-2.073-4.957-3.20201-8.07301-3.20201-2.827,0-5.733.93501-8.642,2.78001-1.931,1.226-4.064,3.39799-6.261,6.129-2.03499-2.823-4.883-4.698-8.138-5.211-.62099-.097-1.24899-.147-1.87799-.14801-7.43901,0-11.91501,6.453-13.608,12.25801-.839,1.961-4.869,10.89299-10.93201,16.95099-9.228,9.198-11.55699,18.677-7.058,28.83ZM382.23245,401.69801l-.03.08899c-.021.05701-.04201.114-.065.17-.036.08501-.07401.168-.114.25101-.097.198-.207.39-.328.57401-.16699.24899-.35001.487-.549.711-.04601.05199-.09.103-.142.15399-.07001.077-.145.15201-.21901.22701-1.347,1.33499-3.399,2.504-5.71899,3.578-.263.11899-.52901.23799-.799.35699l-.26801.119c-.179.07899-.35699.15799-.545.235-.183.078-.367.155-.55099.231l-.55801.23099c-1.30499.537-2.642,1.048-3.94699,1.554l-.55701.216-.552.216c-.366.14301-.728.286-1.08499.429l-.53101.214-.521.21399-.257.10701c-.17.07199-.338.142-.504.21399-3.838,1.64601-6.59799,3.321-6.01801,5.40001.01601.05899.03401.11499.054.16899.052.15401.123.3.21101.436.05199.082.112.159.17899.229.68201.70799,1.923.59599,3.48801.034.127-.04601.257-.095.388-.147.09-.034.179-.06999.269-.106l.13501-.05699c.35799-.15201.737-.321,1.125-.506.097-.04501.19499-.089.293-.14101,1.91299-.935,4.082-2.196,6.23399-3.343.33-.179.661-.34999.99001-.52.53799-.27899,1.08099-.54799,1.629-.80499,2.03799-.95801,3.953-1.638,5.494-1.638.722,0,1.36099.14799,1.892.48801l.08899.05899c.26901.19.50301.423.694.69101.04401.06299.09001.12799.12901.19499.04199.069.08199.14.12.21201.761,1.444.12399,2.94099-1.366,4.40799-1.431,1.408-3.657,2.789-6.188,4.06801-.187.095-.37601.19-.56599.282-7.53101,3.698-17.39101,6.483-17.52901,6.51801-2.62801.681-6.386,1.57599-10.619,2.245l-.627.097-.10201.015c-.95999.144-1.92299.271-2.888.381l-.08899.009c-1.755.2-3.55501.345-5.358.40601h-.02701c-.64799.02399-1.295.03499-1.94299.03499h-.746c-.98799-.01399-1.97499-.058-2.95999-.13399-.02301,0-.04701,0-.071-.005-.35201-.02701-.705-.06-1.05602-.099-.60399-.065-1.20699-.145-1.808-.239-.23399-.039-.48399-.08-.72499-.12201-.11-.01999-.21901-.03999-.328-.062l-.026-.005c-.347-.06599-.692-.13899-1.036-.21799-.19901-.04501-.399-.09001-.59601-.14301l-.118-.03101c-.09799-.024-.194-.05-.28999-.07599l-.05301-.01401-.30899-.089c-.112-.032-.22301-.06499-.33501-.09799l-.03999-.01201-.291-.08899c-.11-.03401-.21901-.07001-.328-.10501-.09-.03-.179-.06099-.269-.09l-.19701-.069c-.19-.06599-.37801-.136-.56599-.20799l-.17801-.069-.147-.05901c-.28299-.114-.56499-.233-.84399-.358l-.186-.089-.03099-.01399c-.06601-.03101-.131-.062-.19701-.09-.129-.062-.257-.12601-.384-.19101l-.03799-.019-.18401-.097c-.327-.17-.64799-.35199-.96199-.54599l-.172-.10501c-.089-.054-.17001-.10899-.255-.164l-.224-.149c-.08101-.05399-.162-.10899-.241-.16599l-.14401-.10201c-.15199-.10901-.30099-.22-.448-.33501-.078-.06-.155-.12199-.23199-.179-.17101-.13699-.338-.278-.50301-.42299l-.00699-.00601c-.16101-.13899-.31801-.28299-.47101-.42999l-.008-.00999c-.08-.076-.158-.15201-.23601-.231-.077-.07901-.155-.157-.23-.23601-.076-.08-.15199-.161-.226-.244-.07201-.07799-.142-.157-.21201-.237l-.024-.02699c-.36099-.41901-.69899-.858-1.01199-1.315l-.12399-.183c-.082-.121-.16301-.243-.24301-.36501l-.23599-.36299c-.116-.177-.229-.356-.339-.536-.07899-.12801-.157-.25601-.23399-.38501-.065-.11-.13-.21899-.192-.327-.035-.05901-.06801-.119-.101-.179-.033-.062-.07201-.125-.10701-.188l-.056-.099c-.019-.033-.02499-.043-.035-.065-.06799-.119-.13399-.23999-.198-.36299-.02899-.05301-.058-.10701-.08899-.16l-.09001-.172-.08899-.17101-.172-.347c-.028-.05699-.05501-.114-.082-.17101-.05901-.12299-.11501-.24399-.17101-.36499-.022-.049-.045-.09801-.065-.147-.077-.16699-.14999-.336-.21899-.507-.04701-.11299-.09001-.22499-.136-.33699-.129-.33-.25-.66301-.36101-1-.03299-.10001-.06599-.19901-.095-.29901-.07199-.22699-.13699-.45599-.19499-.687-.071-.269-.134-.541-.187-.814-.03401-.161-.06401-.323-.089-.48601-.02701-.161-.05-.32199-.069-.48199-.041-.319-.07001-.63901-.08701-.96001,0-.05299-.00499-.10699-.006-.15999-.005-.106-.008-.21201-.009-.31801-.056-4.272,2.10701-8.381,6.73001-13.002,8.23399-8.22701,13.028-20.26599,13.028-20.26599,0,0,.129-.505.39799-1.231.09-.241.18399-.481.283-.718.11299-.26801.23399-.533.364-.793l.03799-.076c.16701-.332.34801-.655.545-.97.045-.073.089-.146.14101-.218.146-.21799.30099-.429.46399-.63399.12601-.15701.26001-.30901.401-.453.47801-.492,1.02301-.894,1.64-1.10901l.078-.02499c.052-.017.103-.033.15601-.048.062-.01599.12399-.03099.186-.04399l.028-.005c.131-.026.26199-.04401.39499-.05299h.01201c.069,0,.138-.007.209-.007.177.00099.353.015.528.04199.74199.117,1.44899.55901,2.05699,1.241l.082.09601c.198.23199.37801.48.53801.74001.12.19299.23299.396.34.60899.043.09.084.172.125.25999.02.045.03999.089.05899.13501.04001.08899.07701.179.11401.27299.209.536.37099,1.089.485,1.653.12099.60899.19099,1.22701.211,1.84801.00699.27299.00699.549,0,.82899-.005.106-.01001.213-.01801.31999-.082,1.18901-.341,2.35901-.769,3.472-.043.11-.09.222-.134.334-.215.51401-.465,1.01201-.74699,1.492-.16101.274-.33501.54601-.52101.81601l-.114.16199c-.44099.61601-.933,1.194-1.47099,1.72801-.53.53099-1.09801,1.02199-1.69901,1.47099-.603.44501-1.168.939-1.69,1.476-1.50299,1.578-1.853,2.96901-1.515,4.024.04001.119.08701.23601.14101.349.125.245.287.47.481.666l.05299.05299c.05499.05301.11301.104.172.153l.06.04901c.14601.112.3.21199.461.299.04601.02499.089.05.14201.07401.22099.11.452.198.68999.265l.06601.017.08899.024.078.019.08301.01801.08299.017.07901.013c.05899.01099.11899.01999.17799.028l.058.008.103.011.06401.006.10599.008h.061l.11.005h.347l.099-.005.114-.00699.13901-.013.12999-.01601c.02901,0,.05901-.008.089-.013.45801-.067.90401-.196,1.326-.384.09-.03799.179-.08.261-.12399.17599-.088.347-.18701.511-.29601.22899-.14999.44499-.319.64799-.50301l.14101-.13399c.02199-.022.045-.043.06599-.06601.138-.138.26801-.284.38899-.437.214-.27.40401-.55701.569-.85899,1.957-3.558,4.00801-7.06401,6.151-10.513l.29401-.47101.297-.472c.149-.23799.298-.474.44701-.707l.151-.235.30099-.46899c.40401-.625.80901-1.243,1.217-1.855l.30501-.45601c.612-.90599,1.22299-1.78799,1.827-2.627l.302-.414c.657-.90799,1.342-1.795,2.05299-2.661l.283-.338c.04601-.05701.089-.112.14-.16701l.27701-.321c.04599-.05299.09-.105.138-.15599l.26799-.30301.13501-.146c.12999-.14101.26199-.28.396-.418.09-.089.173-.179.25999-.26201.507-.519,1.06601-.98399,1.66901-1.38699l.13899-.089.14101-.09c.09-.056.181-.11.274-.161,2.364-1.341,4.32199-1.44,5.448-.31401.683.68301,1.06,1.81401,1.03999,3.38701,0,.06999,0,.13899-.006.211v.078c0,.071-.006.144-.011.217,0,.089-.011.179-.02.26801-.00899.09-.013.15799-.02199.237,0,.02299-.005.04599-.00801.069-.00699.06999-.01599.14099-.02499.211,0,.022,0,.043-.009.065-.00999.095-.024.19-.041.284-.011.08701-.02499.174-.04199.261-.007.05-.017.099-.02501.149-.026.142-.06.28299-.101.42099-.077.25801-.17101.511-.282.757-.048.10699-.099.214-.151.319-.108.217-.23.439-.364.66901-.067.11299-.136.23-.21001.347l-.112.17799c-.114.179-.233.36-.35699.543-.12401.183-.257.37-.39999.55901-.18501.252-.38.509-.58601.769l-.15599.19701c-.44101.549-.89301,1.08899-1.355,1.62l-.367.41499-.187.21001c-.255.285-.511.56799-.76901.849l-.198.214c-.131.142-.26799.286-.399.429-.13399.14499-.26999.28899-.40599.433l-.412.43399-.41701.435c-.13899.145-.27899.29201-.42.43701l-.849.875c-4.05499,4.159-8.328,8.304-9.774,10.888-.09599.16899-.183.342-.26199.519-.205.47-.291.87199-.233,1.19699.019.10701.05701.21001.112.30301.082.14099.181.271.295.38699.05301.052.108.101.168.145.29701.21201.657.321,1.022.31h.114l.117-.008.118-.01401.097-.01399c.013-.00101.026-.004.039-.007l.089-.017.024-.006.09799-.02101.035-.00899.105-.02701.125-.037c.082-.02499.164-.05299.248-.084.181-.064.358-.138.53101-.22099.04399-.021.08899-.041.13199-.064l.13301-.06601c.174-.088.347-.183.521-.286.13901-.082.27701-.166.41499-.255l.134-.08899c.04401-.028.089-.05701.13301-.09001l.133-.08899.06999-.04901.192-.134c.179-.12399.34601-.25099.51601-.37999l.015-.011.26801-.20801c.36699-.28999.71599-.582,1.03099-.85699l.21001-.185.01999-.01801.10901-.097c.258-.231.48799-.44699.67999-.62599l.078-.076.189-.179.11301-.11.039-.03999.011-.011q.09599-.09601.192-.19301l.008-.008.036-.032c.011-.01201.026-.024.043-.039l.01401-.013.03799-.034.203-.179.114-.103c.056-.048.117-.10301.179-.162l.13701-.12001c.02399-.01999.04799-.043.073-.06499l.14299-.125.211-.18401.11101-.097c.435-.379.965-.836,1.57201-1.351l.24899-.21001.412-.345.42-.35199c.55-.45601,1.142-.94101,1.76801-1.44501l.411-.33c.34999-.278.70999-.56299,1.07401-.849.146-.11499.295-.23.44699-.34399.373-.28799.748-.575,1.12401-.858.85799-.64799,1.743-1.297,2.638-1.92999l.38499-.26701c.26801-.18599.536-.37099.80499-.55199l.24301-.16501c.48099-.32401.96599-.64099,1.455-.951l.243-.153.241-.14999c.241-.149.48199-.297.72-.44l.239-.142.479-.27901c.157-.09099.31299-.17999.46899-.26799l.09399-.05301.37201-.20299c.15399-.084.30901-.16501.46201-.244l.23-.118.222-.11301c.508-.255,1.02499-.491,1.55099-.707.07201-.03.14301-.05901.214-.09.14099-.05901.28099-.11301.42-.16101.13899-.047.276-.09599.411-.144.123-.041.242-.07899.358-.11499l.039-.01201c.062-.019.12401-.037.186-.05299l.01799-.005c.12601-.036.252-.069.37901-.099h.00999c.187-.045.369-.08299.547-.11299.061-.01001.121-.02.179-.028.173-.026.347-.04401.521-.05602.11-.008.22101-.01099.33101-.01099h.084c.112,0,.22.00699.327.01799.049,0,.09801.009.146.01601h.02c.048.00499.097.013.144.02299.047.01001.095.017.14101.028h.01599c.04601.01001.089.02299.13701.036.38199.10301.733.29701,1.024.565l.026.026.05099.05.05.05299c.401.42201.733.90501.983,1.431l.03899.089c.08501.2.15201.407.19901.619.13.591.095,1.207-.10201,1.77899-.08499.24901-.189.49101-.312.72301l-.082.14799c-.312.52301-.67999,1.01001-1.099,1.45201l-.09.095c-.19701.209-.40201.41199-.61301.60699-.067.063-.13599.12599-.20599.189l-.106.09601c-.22.19499-.44499.38499-.673.571-.03999.032-.08099.064-.12.09799-.159.12801-.323.25801-.493.388-.586.448-1.183.88-1.791,1.297-.358.24501-.728.492-1.11.74301-.71201.467-1.429.924-2.153,1.37199-.209.129-.41901.25999-.633.39-1.96701,1.21001-4.14801,2.504-6.474,3.911l-.60201.36601c-.659.40199-1.28101.786-1.866,1.15099l-.295.186-.558.358c-.22101.14-.436.278-.645.414-.158.101-.312.201-.463.3l-.298.196c-.145.095-.289.19-.433.287l-.14.08899c-.14801.099-.29201.196-.43201.29201l-.229.15599-.269.18701-.248.17299c-.392.27501-.77899.556-1.16299.84201l-.134.10199c-.151.11401-.297.22801-.438.339l-.18399.147c-.31.24899-.591.48799-.845.716l-.12401.114c-.071.065-.14099.12999-.207.194-.047.04399-.09.08899-.13699.133l-.065.064c-.14299.14301-.282.29001-.41699.44101l-.06601.07599c-.147.17001-.27499.33301-.388.492l-.04999.07201c-.13.19-.24501.39099-.343.59999l-.03401.07301-.021.05099-.017.04399-.02299.061c-.007.021-.02101.058-.02901.09-.041.119-.071.242-.091.367l-.00999.067-.008.061-.005.05899v.31401c0,.026,0,.05299.006.08.00101.01599.00301.032.005.04799,0,.026.007.052.00999.07901l.01901.11v.00499c.00699.035.01399.07001.02299.105.009.035.01801.07401.02899.11101.03201.11301.071.22501.11601.334,0,.008.00699.017.00999.02499.01199.02701.02299.05501.036.082.04901.114.104.22501.164.334l.063.11301.06599.114.069.114c.01201.019.02501.036.04001.05301l.02299.02399.024.022.02699.021c.01801.013.037.024.05701.035.02.009.04199.019.064.02701.024.008.048.015.07201.021.577.13,1.763-.34801,3.338-1.18001l.283-.14999.47899-.261.235-.12999c.166-.09001.33701-.19.51001-.289l.317-.179c2.08299-1.19901,4.57199-2.74001,7.144-4.244.23999-.14101.48199-.28101.724-.42101l.48599-.31c.24301-.14.485-.278.72801-.414,1.034-.588,2.082-1.153,3.14099-1.694l.47501-.241c.31599-.15601.629-.308.938-.45599.599-.28401,1.20399-.55301,1.81499-.808l.33501-.136.041-.01601c1.774-.703,3.383-1.138,4.685-1.138.282-.002.563.021.841.069h.008c.09.01601.17101.034.25301.05501h.015c.12.02899.23799.06599.35199.112.091.03299.179.07199.26401.118.373.189.692.468.92999.812.02.02901.039.05901.05701.09.088.134.164.27501.226.423.037.08501.071.173.103.26801.03201.09599.06001.18799.089.28699.21201.75801.19099,1.56001-.06,2.30602Z"/><path class="cls-2" d="M370.43546,347.384v-.49c0-41.854-33.918-75.783-75.77501-75.783s-75.7859,33.931-75.7859,75.783l-.001.164c-.001.109-.002.217,0,.326.0048.163.0065.326.005.48901l.006.36.002.13.005.178c.00201.096.005.19099.005.28699l.00999.389.01601.457.005.15.02.473v.022l.028.553v.014c.01.189.02.378.03201.56599.00999.175.021.349.033.523l.003.031c.0088.149.0188.299.03.448l.00301.039c.00999.144.021.289.033.432l.002.028.02.25c.0599.72101.1299,1.442.21,2.161l.005.04501.06.528.069.556c.0463.37.0957.739.148,1.108.0312.22299.0636.44499.097.66699l.005.02699c.0747.50201.1553,1.00401.242,1.50401.2487,1.45099.5408,2.89499.876,4.32899l.005.02299.03201.13501c.03.12799.06.256.092.38499l.055-.067c2.2-2.63,5.356-4.08,8.887-4.08,2.83,0,5.734.935,8.643,2.78,1.93,1.226,4.064,3.39801,6.26,6.129,2.032-2.823,4.8799-4.698,8.1379-5.20999.622-.09801,1.25-.14799,1.878-.149,7.437,0,11.916,6.45399,13.608,12.258.835,1.96201,4.865,10.89301,10.94099,16.935,9.235,9.22701,11.54601,18.74901,6.976,28.944h.015c.31201.03401.625.06601.93901.095.187.01801.37399.03601.56099.052l.06601.006c.13699.013.27499.02501.41299.035l.38.03101c.362.028.72501.05299,1.09.077l.28801.017.22899.013.14301.008.446.024.12199.005.47.02.52101.01999.42.01201.06999.00301c.088.00299.17801.00699.267.00699l.095.002c.59.01401,1.179.02101,1.769.02101h.62601l.448-.005c.11-.006.21899-.006.32899-.006h.17401l.151-.00301c.05899-.002.11899-.004.17799-.004h.179l.351-.00999.528-.01801.582-.02499c.16701-.007.33301-.015.5-.024l.179-.01001.265-.015.157-.009.117-.00699.537-.03601c.179-.01099.358-.02499.537-.03899l.48599-.03801.343-.02899.375-.03401c.38499-.036.769-.07399,1.151-.114.244-.02699.48599-.054.729-.08299l.42699-.05101c-4.49899-10.153-2.17-19.63199,7.028-28.823,6.06201-6.05699,10.09201-14.98999,10.93201-16.95099,1.69299-5.80501,6.168-12.25801,13.60699-12.25801.62901.00101,1.257.05,1.87801.149,3.255.51201,6.104,2.388,8.13899,5.21001,2.19701-2.731,4.33-4.903,6.26001-6.129,2.909-1.845,5.815-2.78001,8.642-2.78001,3.116,0,5.94099,1.13,8.07401,3.20201.11699-.522.23-1.04401.338-1.56801.06599-.327.131-.655.19499-.98399.078-.40401.15201-.81.22-1.216.01801-.11.037-.22.058-.33099.033-.173.06201-.34401.089-.51801l.011-.06599.071-.453.06999-.459.00101-.005c.028-.192.05701-.38499.08301-.578.021-.146.04099-.29199.06-.439l.01199-.084.062-.478.05101-.407c.03099-.26801.06099-.53601.09-.80501.013-.10699.024-.215.035-.323l.00999-.08701c.019-.179.036-.35699.052-.536l.03999-.416c.08301-.922.15001-1.84399.20201-2.768v-.006l.02699-.49001.005-.11.01999-.465c.00801-.175.01501-.352.02101-.531v-.013l.00499-.12901c.005-.10999.009-.21999.009-.32899l.002-.045c.004-.10201.00801-.208.00801-.313l.00299-.09c.00301-.105.006-.209.006-.314l.002-.089c.00301-.134.00601-.267.00601-.40099v-.48901ZM275.86445,423.091c6.001-8.802,5.576-15.408-2.659-23.638-8.235-8.23-13.028-20.26599-13.028-20.26599,0,0-1.789-6.992-5.869-6.349-4.07999.642-7.0729,11.08899,1.469,17.48399,8.542,6.395-1.699,10.731-4.987,4.73-3.2889-6.002-12.2649-21.429-16.9199-24.37999-4.654-2.951-7.927-1.29701-6.83,4.78499.545,3.01901,5.613,8.17101,10.348,12.985,4.804,4.88501,9.265,9.42,8.312,11.02501-1.89301,3.18799-8.56001-3.74501-8.56001-3.74501,0,0-20.876-18.99699-25.421-14.04599-4.189,4.56299,2.271,8.442,12.227,14.42.847.509,1.719,1.033,2.612,1.573,11.39,6.896,12.276,8.715,10.66,11.32401-.597.96399-4.41-1.32501-9.1-4.14101-7.995-4.8-18.538-11.129-20.026-5.464-1.289,4.903,6.467,7.907,13.501,10.632,5.86,2.27,11.22,4.34601,10.432,7.164-.817,2.92101-5.246.485-10.088-2.179-5.43501-2.991-11.39-6.26801-13.338-2.56999-3.684,6.98999,25.41,15.21899,25.649,15.27899,9.4,2.438,33.2719,7.604,41.6159-4.623ZM314.52846,423.091c-6.00201-8.802-5.576-15.408,2.659-23.638s13.02899-20.26599,13.02899-20.26599c0,0,1.78801-6.992,5.86801-6.349,4.07999.642,7.07399,11.08899-1.46901,17.48399s1.69901,10.731,4.98801,4.73c3.28799-6.002,12.25999-21.429,16.914-24.37999,4.65399-2.951,7.92799-1.29701,6.83099,4.78499-.545,3.01901-5.61299,8.17201-10.349,12.98601-4.80299,4.884-9.26399,9.41899-8.311,11.024,1.892,3.18799,8.565-3.74901,8.565-3.74901,0,0,20.875-18.99699,25.42-14.04599,4.18901,4.56299-2.272,8.44299-12.228,14.422-.847.508-1.718,1.03099-2.61099,1.57199-11.39101,6.895-12.276,8.71501-10.66,11.323.597.964,4.41-1.325,9.099-4.14,7.996-4.79999,18.539-11.12999,20.02699-5.465,1.289,4.903-6.467,7.908-13.502,10.633-5.86,2.27-11.21899,4.345-10.43199,7.164.817,2.92101,5.244.48401,10.084-2.17999,5.435-2.991,11.39099-6.269,13.34-2.57001,3.68401,6.99501-25.414,15.21501-25.64999,15.276-9.40001,2.44501-33.272,7.61101-41.612-4.616Z"/><path class="cls-7" d="M319.27345,326.266c1.181.418,2.06,1.691,2.896,2.901,1.13,1.637,2.18201,3.159,3.79601,2.30099,1.905-1.01199,3.466-2.56599,4.487-4.466,1.021-1.8995,1.455-4.0593,1.248-6.206-.15401-1.6051-.662-3.1562-1.48801-4.5412-.826-1.3851-1.94899-2.5697-3.287-3.4686-1.33899-.8988-2.86099-1.4894-4.455-1.7293-1.59499-.2399-3.22299-.123-4.767.34209-2.06499.6219-3.899,1.8418-5.271,3.50571-1.371,1.6638-2.21899,3.6969-2.436,5.8423-.21599,2.1459.209,4.30759,1.22101,6.212.748,1.407,2.408.744,4.16.043,1.37399-.549,2.804-1.121,3.896-.736ZM267.89746,326.267c-1.181.418-2.061,1.691-2.897,2.901-1.13,1.636-2.182,3.159-3.796,2.301-1.423-.757-2.66-1.82101-3.623-3.11401s-1.627-2.783-1.945-4.3638c-.318-1.5805-.282-3.2117.106-4.7764.389-1.5647,1.119-3.024,2.13799-4.2728,1.021-1.2481,2.305-2.2545,3.761-2.9468,1.456-.69231,3.048-1.0531,4.66-1.0567,1.612-.0035,3.205.3504,4.664,1.0362,1.459.6859,2.74799,1.6867,3.77399,2.9303,1.372,1.6638,2.22,3.6973,2.437,5.8432.216,2.1459-.209,4.3077-1.222,6.2118-.75,1.407-2.41.743-4.162.042-1.373-.549-2.803-1.121-3.895-.735ZM311.32546,373.018c8.14299-6.416,11.134-16.88899,11.134-23.341,0-5.1-3.43201-3.495-8.925-.77599l-.30901.154c-5.043,2.49699-11.755,5.821-19.123,5.821-7.369,0-14.08099-3.325-19.12199-5.822-5.67101-2.80901-9.228-4.571-9.228.624,0,6.655,3.182,17.584,11.917,23.93399,1.15201-2.34,2.774-4.41699,4.76601-6.101,1.991-1.68399,4.30899-2.93799,6.808-3.685.87199-.25999,1.77,1.241,2.69,2.77701.88699,1.48299,1.793,2.99899,2.71599,2.99899.98201,0,1.94801-1.494,2.89101-2.953.985-1.524,1.94501-3.00999,2.87399-2.713,4.67601,1.50101,8.58701,4.756,10.91101,9.082Z"/><path class="cls-1" d="M311.32245,373.017c-4.241,3.34201-9.87799,5.58301-17.218,5.58301-6.89699,0-12.29199-1.978-16.435-4.989,1.153-2.339,2.776-4.416,4.767-6.099,1.991-1.68401,4.30901-2.939,6.80701-3.687,1.713-.511,3.52699,5.776,5.405,5.776,2.011,0,3.948-6.24701,5.76599-5.666,4.67401,1.502,8.584,4.75699,10.908,9.08199Z"/><path class="cls-3" d="M248.42655,335.34c-.7738.521-1.6428.884-2.5571,1.068-.91441.184-1.8561.186-2.7712.006-.9151-.181-1.7856-.54-2.5616-1.05701-.776-.518-1.4422-1.183-1.9605-1.959-.5183-.77499-.8784-1.646-1.0597-2.56-.1813-.915-.1803-1.857.003-2.772.1833-.914.5454-1.783,1.0653-2.55801.52-.7742,1.18771-1.4383,1.96481-1.95409,1.563-1.0373,3.4735-1.4128,5.3128-1.04411,1.8393.36871,3.4575,1.4515,4.5001,3.0112,1.042,1.56001,1.424,3.469,1.061,5.30901-.36301,1.841-1.441,3.463-2.9969,4.50999ZM349.83846,335.34c-.774.521-1.64301.884-2.55701,1.068s-1.856.186-2.771.006c-.91501-.181-1.786-.54-2.562-1.05701-.776-.518-1.442-1.183-1.96001-1.959-.519-.77499-.879-1.646-1.06-2.56-.181-.915-.18001-1.857.00301-2.772.183-.914.545-1.783,1.06499-2.55801.52-.7742,1.188-1.4383,1.96501-1.95409,1.56299-1.0373,3.474-1.4128,5.31299-1.04411,1.839.36871,3.457,1.4515,4.5,3.0112,1.04201,1.56001,1.42401,3.469,1.061,5.30901-.36299,1.841-1.44099,3.463-2.99699,4.50999Z"/></g></svg>