<?xml version="1.0" encoding="UTF-8"?><svg id="LOGO" xmlns="http://www.w3.org/2000/svg" viewBox="0 0 1250 703"><defs><style>.cls-1{fill:#e20074;stroke-width:0px;}</style></defs><path class="cls-1" d="M173.46151,352.71902v-23.41058h23.40836v23.41058h-23.40836ZM257.7945,352.71902v-23.41058h23.41057v23.41058h-23.41057ZM330.14542,352.71902v-23.41058h23.41057v23.41058h-23.41057ZM402.49633,352.71902v-23.41058h23.40836v23.41058h-23.40836ZM517.24403,312.51226c-2.39598-11.84701-5.50277-20.58501-9.32262-26.21843-6.08516-8.99708-13.85324-13.49673-23.30429-13.49673-5.76187,0-10.61582,1.74716-14.56629,5.24369-4.78972,4.27378-7.1857,9.90499-7.1857,16.89583,0,7.38058,2.58864,13.20665,7.76809,17.47821,3.17322,2.65506,9.2894,5.53599,18.35289,8.64278,13.27086,4.59708,22.17273,8.57856,26.70339,11.94445,9.64591,7.12149,14.46884,17.02648,14.46884,29.71495,0,12.17031-3.94828,22.33438-11.84702,30.49221-7.24993,7.57323-16.21601,11.35985-26.89825,11.35985-5.69763,0-10.97233-1.03633-15.82848-3.10679-2.07268-.84147-5.46956-2.75028-10.19508-5.72863-1.5545-.9699-3.07581-1.45486-4.56388-1.45486-1.74716,0-3.33267.90347-4.75652,2.71928-.6466.90569-1.52128,2.36276-2.62184,4.37121h-6.11837v-48.07229h6.31323c2.32955,12.17031,5.53599,21.45969,9.61269,27.87037,6.86241,10.81067,15.89271,16.21379,27.09089,16.21379,6.53911,0,11.97546-1.90659,16.31345-5.72863,5.50277-4.92038,8.25306-11.68315,8.25306-20.29493,0-10.22829-4.27157-17.80152-12.8169-22.7219-2.71927-1.5545-10.19508-4.40221-22.43183-8.54535-8.6738-2.91193-15.47197-6.5391-20.39236-10.87489-7.24993-6.34424-10.8749-15.08445-10.8749-26.21843,0-12.04188,3.94826-21.55713,11.84701-28.55019,6.40848-5.76185,14.20982-8.64056,23.40177-8.64056,4.98462,0,9.905.9699,14.76115,2.91193,2.00625.84147,5.14626,2.55763,9.41783,5.14625,1.35963.77725,2.58864,1.16477,3.68918,1.16477,2.00845,0,4.0147-2.07267,6.02316-6.21359h5.43634v43.69664s-5.72865,0-5.72865,0ZM535.49951,309.89042h41.46455v6.11837h-3.59396c-5.37211,0-8.06039,1.45707-8.06039,4.369,0,1.16477.45395,2.94736,1.35963,5.34112l19.90519,52.04712,17.28556-48.16308c1.2312-3.36588,1.84457-5.98772,1.84457-7.86553,0-3.81983-2.91193-5.72864-8.738-5.72864h-4.37121v-6.11837h32.62687v6.11837h-2.13688c-2.07268,0-3.78663.69532-5.14626,2.08818-1.35963,1.39285-2.68605,3.77111-3.98149,7.13699l-32.91475,88.55806c-3.10679,8.22204-6.53911,14.14555-10.29249,17.77052-3.88404,3.7534-8.676,5.6312-14.37143,5.6312-4.85396,0-8.93286-1.39285-12.23452-4.17635-4.0147-3.4301-6.02093-7.70389-6.02093-12.81692,0-3.17322.90568-5.82606,2.71927-7.96296,1.94202-2.39598,4.59709-3.59396,7.96518-3.59396,3.68918,0,6.5059,1.35963,8.44569,4.07892,1.16477,1.61873,1.74716,3.46332,1.74716,5.53599,0,2.97836-1.06513,5.46956-3.20201,7.47579-1.29544,1.2312-3.00935,2.00624-5.14626,2.33176,1.48807,1.68294,3.52754,2.52662,6.11837,2.52662,3.81984,0,7.15248-1.52351,10.00242-4.56607,2.58864-2.7835,5.46956-8.64057,8.64055-17.57787l2.13688-6.21359-27.28578-73.4116c-2.13688-5.56699-3.94828-9.0303-5.43634-10.38994-1.68516-1.61872-4.24055-2.42698-7.67287-2.42698h-1.64971v-6.11616h-.00666.00007ZM690.57354,309.89042v28.93771h-6.02093c-3.23746-16.76739-10.97233-25.14888-23.20684-25.14888-4.40223,0-7.96295,1.32642-10.68002,3.98148-2.84993,2.71928-4.27376,6.05194-4.27376,10.00242,0,4.53065,1.97524,8.12461,5.92351,10.77967,1.94202,1.29321,5.47175,2.78349,10.58261,4.46643,11.00774,3.49653,18.3861,6.63654,22.14171,9.41782,7.2477,5.50277,10.87488,12.72169,10.87488,21.65235,0,9.06573-3.14001,16.47731-9.42003,22.23916-5.30791,4.78974-12.1371,7.18349-20.4898,7.18349-4.72552,0-9.09451-.84147-13.10921-2.52441-2.26312-.90569-5.2747-2.52441-9.03031-4.85396-.96991-.5846-1.74716-.87469-2.32955-.87469-1.29544,0-2.55762,2.07267-3.78883,6.2158h-5.6312v-33.69643h5.6312c2.26531,8.22205,4.72772,14.24298,7.38056,18.0606,5.24368,7.50901,12.20353,11.26462,20.8773,11.26462,4.98462,0,8.93509-1.71394,11.84922-5.14626,2.7835-3.17322,4.17635-6.86241,4.17635-11.06976,0-6.08516-2.7215-10.81289-8.15784-14.17655-2.91193-1.74716-8.77344-4.0457-17.57787-6.89341-7.89652-2.59084-13.74032-6.05194-17.52692-10.38994-3.78663-4.33578-5.67993-9.77434-5.67993-16.31344,0-7.70388,2.71927-13.91747,8.15784-18.64298,4.92038-4.27157,11.13397-6.40846,18.643-6.40846,6.66974,0,12.94979,1.78037,18.84006,5.34112,1.16477.71082,2.13688,1.06734,2.91193,1.06734,1.29544,0,2.26531-1.48807,2.91193-4.46643h6.02093v-.00441ZM729.70631,316.68861v55.05871c0,7.05728.48717,12.26553,1.45708,15.63584,1.48807,5.11304,4.62808,7.67066,9.42006,7.67066,4.4,0,7.54001-2.23432,9.4178-6.70076,1.81136-4.27378,2.7215-9.48204,2.7215-15.63363v-2.71928h6.60108v3.68918c0,19.80776-7.83228,29.71274-23.49915,29.71274-7.76809,0-13.52772-2.23211-17.28556-6.69855-2.7835-3.36588-4.46643-7.41379-5.04882-12.13709-.38753-3.56075-.58239-7.83231-.58239-12.81691v-55.06092h-14.37143v-5.6312c8.99709-2.00624,15.24609-5.6312,18.74264-10.87489,3.62495-5.76185,5.85928-14.01712,6.69853-24.76136h5.72865v34.47148h26.70559v6.79819s-26.70559-.00221-26.70559-.00222ZM838.27144,354.94892h-54.3789c.0642,12.81691,1.39062,22.29895,3.98149,28.45054,3.62495,8.676,9.83854,13.01399,18.643,13.01399,6.86241,0,12.59329-2.72149,17.18811-8.15783,2.5266-2.98058,5.04882-7.08828,7.57542-12.33418l5.92348,3.10901c-8.35047,16.76518-19.61511,25.14888-33.79384,25.14888-10.42093,0-18.96629-3.56075-25.6338-10.68224-8.28627-8.86865-12.42941-21.68556-12.42941-38.45296,0-15.40776,4.14314-27.73751,12.42941-36.99589,6.53688-7.31414,14.40242-10.97232,23.59437-10.97232,13.66061,0,23.92212,6.86241,30.7823,20.58501,3.68915,7.31636,5.72865,16.41087,6.11837,27.28799ZM819.91855,347.95586c0-8.0914-.87466-14.76115-2.62182-20.00484-3.17326-9.25617-8.15781-13.88647-14.95601-13.88647-7.63746,0-13.04498,5.69764-16.21601,17.0907-1.29324,4.59708-1.97524,10.19507-2.03944,16.7984h35.83334l-.00007.00221ZM953.14091,401.36483v-55.93338c0-11.52371-.80384-18.9685-2.42476-22.33438-2.19892-4.40222-5.6312-6.60332-10.2903-6.60332-5.56923,0-10.0733,3.14001-13.50336,9.41782-1.87779,3.43231-3.10683,7.18571-3.69138,11.26462-.45176,2.97836-.67537,8.60957-.67537,16.89804v25.05144c.0642,7.44479.87027,12.01087,2.42476,13.69382,1.29324,1.55229,3.85525,2.36055,7.6751,2.42698h2.81226v6.12059h-29.71274v-52.8266c0-9.06351-.19489-14.95381-.58462-17.67308-1.35744-9.6459-5.52713-14.46885-12.51794-14.46885-5.6312,0-10.07107,3.20423-13.30853,9.61268-1.61653,3.10679-2.71927,6.37746-3.30166,9.80755-.64659,3.49653-.96988,9.58168-.96988,18.25768v25.05144c.0642,7.44479.80823,12.01087,2.23872,13.69382,1.35967,1.55229,3.97703,2.36055,7.86107,2.42698h2.82111v6.12059h-43.02127v-6.12059h3.20421c3.68915-.06422,6.21582-.87469,7.57326-2.42698,1.61869-1.61651,2.46018-6.18259,2.5266-13.69381v-47.19318c-.0642-7.44479-.90568-11.97766-2.5266-13.59417-1.35744-1.5545-3.88404-2.33176-7.57326-2.33176h-2.23433v-6.11837l27.87259-1.35964v16.11857c1.28878-3.23744,3.10683-6.11837,5.43631-8.64278,4.98016-5.37212,10.93465-8.06039,17.86795-8.06039,7.37613,0,13.29522,2.68606,17.76165,8.06039,1.94206,2.33176,3.75341,5.6312,5.43631,9.90498,5.76406-11.97544,13.95735-17.96317,24.5731-17.96317,4.20734,0,8.09138.9234,11.65436,2.76799,3.55852,1.84459,6.37084,4.3845,8.44346,7.62194,2.33178,3.62496,3.75341,7.76809,4.27376,12.4294.45176,3.7534.68423,7.89653.68423,12.42939v35.92854c.0642,7.44479.87027,12.01087,2.42476,13.69381,1.2954,1.55229,3.85525,2.36055,7.6751,2.42698h2.22987v6.12059l-29.13454-.0022ZM1050.05831,309.89042v28.93771h-6.02093c-3.23746-16.76739-10.97675-25.14888-23.21127-25.14888-4.40223,0-7.96298,1.32642-10.68225,3.98148-2.84773,2.71928-4.27153,6.05194-4.27153,10.00242,0,4.53065,1.9797,8.12461,5.92794,10.77967,1.94206,1.29321,5.4651,2.78349,10.57818,4.46643,11.00554,3.49653,18.38614,6.63654,22.13948,9.41782,7.2499,5.50277,10.87708,12.72169,10.87708,21.65235,0,9.06573-3.13555,16.47731-9.41564,22.23916-5.30791,4.78974-12.14153,7.18349-20.49423,7.18349-4.72552,0-9.09011-.84147-13.10478-2.52441-2.26312-.90569-5.27912-2.52441-9.0347-4.85396-.96988-.5846-1.74716-.87469-2.32955-.87469-1.2954,0-2.55323,2.07267-3.78443,6.2158h-5.6312v-33.69643h5.6312c2.26535,8.22205,4.72775,14.24298,7.38059,18.0606,5.24371,7.50901,12.1991,11.26462,20.87287,11.26462,4.98462,0,8.93286-1.71394,11.84925-5.14626,2.78347-3.17322,4.18078-6.86241,4.18078-11.06976,0-6.08516-2.7215-10.81289-8.15781-14.17655-2.91193-1.74716-8.77784-4.0457-17.58007-6.89341-7.89655-2.59084-13.74252-6.05194-17.52472-10.38994-3.79329-4.33578-5.6777-9.77434-5.6777-16.31344,0-7.70388,2.71927-13.91747,8.15781-18.64298,4.92035-4.27157,11.13401-6.40846,18.643-6.40846,6.66974,0,12.94976,1.78037,18.84006,5.34112,1.16477.71082,2.13688,1.06734,2.91193,1.06734,1.2954,0,2.26535-1.48807,2.91193-4.46643h6.0187v-.00441ZM1073.1301,352.71902v-23.41058h23.40839v23.41058h-23.40839Z"/><path class="cls-1" d="M238.21483,275.32372v100.21021c0,7.24992.38309,11.71857,1.15149,13.40152,1.32864,3.94827,5.7995,5.98772,13.41037,6.11837h5.02889v6.40846h-58.98704v-6.40846h5.02889c5.51827,0,9.2916-1.00312,11.31556-3.00936,1.3995-1.2312,2.26975-3.07579,2.62184-5.53599.41631-2.52441.62889-6.18259.62889-10.97233v-100.21242h-4.40222c-6.91334,0-13.13136,1.87781-18.64741,5.6312-8.31284,5.69542-13.13357,17.1217-14.46,34.27661l-6.28667-.2923,1.1537-46.0284h105.71519l.83926,46.0284-6.39296.2923c-1.46593-10.87711-3.91062-19.32502-7.33407-25.34374-3.07358-5.37434-6.91334-9.19195-11.5237-11.45728-4.12099-2.00624-9.32702-3.04258-15.61148-3.10679,0,0-3.24851,0-3.24852,0Z"/></svg>