<?xml version="1.0" encoding="utf-8"?>
<!-- Generator: Adobe Illustrator 23.0.3, SVG Export Plug-In . SVG Version: 6.00 Build 0)  -->
<svg version="1.1" id="Layer_1" xmlns="http://www.w3.org/2000/svg" xmlns:xlink="http://www.w3.org/1999/xlink" x="0px" y="0px"
	 viewBox="0 0 1250 703" style="enable-background:new 0 0 1250 703;" xml:space="preserve">
<style type="text/css">
	.st0{fill:#252F3E;}
	.st1{fill-rule:evenodd;clip-rule:evenodd;fill:#FF9900;}
</style>
<title>nvidia-partner-aws-logo</title>
<g id="LOGO">
	<path class="st0" d="M502.9,305.1c-0.2,5.6,0.5,11.2,2.1,16.6c1.6,4.6,3.6,9.1,6,13.3c0.8,1.3,1.3,2.7,1.3,4.2
		c-0.2,2.3-1.6,4.3-3.6,5.5l-11.2,7.9c-1.5,1-3.2,1.6-4.9,1.7c-2.1-0.1-4.1-1-5.5-2.6c-2.6-2.6-4.9-5.5-6.7-8.6
		c-2.1-3.6-4-7.4-5.7-11.2c-13.3,16.6-33.5,26.1-54.7,25.8c-13.7,0.7-27.1-4.1-37.2-13.3c-9.4-9.5-14.3-22.5-13.7-35.9
		c-0.6-14.5,5.4-28.5,16.4-38.1c13-10.2,29.2-15.3,45.7-14.4c6.6,0,13.2,0.5,19.7,1.5c6.9,1,14,2.3,21.4,4v-13.7
		c1.1-10.7-2.1-21.4-8.9-29.8c-8.6-6.7-19.5-9.7-30.4-8.6c-6.8,0-13.5,0.9-20.1,2.5c-6.8,1.6-13.5,3.8-20,6.4
		c-2.1,1-4.3,1.8-6.5,2.5h-2.9c-2.6,0-3.9-1.9-3.9-5.8V206c-0.2-2.2,0.3-4.5,1.3-6.5c1.4-1.7,3.2-3.1,5.3-3.9
		c7.5-3.6,15.3-6.4,23.4-8.4c9.5-2.4,19.2-3.6,29-3.6c17.6-1.6,35.1,3.9,48.7,15.1c11.2,12.5,16.8,29.1,15.5,45.8L502.9,305.1z
		 M427.2,333.5c6.6-0.1,13.1-1.3,19.3-3.5c6.8-2.4,12.9-6.5,17.6-12c2.9-3.2,5-7.1,6.3-11.2c1.3-5.3,1.9-10.7,1.8-16.1v-7.8
		c-5.7-1.3-11.4-2.4-17.2-3.1c-5.8-0.7-11.6-1.1-17.5-1.1c-9.8-0.7-19.6,1.9-27.7,7.5c-11,11-11.8,28.5-2,40.4
		C413.1,331.3,420.1,333.8,427.2,333.5z M576.8,353.6c-2.5,0.2-5.1-0.4-7.2-1.8c-2-2-3.3-4.5-3.9-7.3l-43.6-144.1
		c-0.8-2.4-1.4-4.9-1.7-7.5c-0.4-2.2,1.1-4.2,3.3-4.6c0,0,0,0,0.1,0c0.4-0.1,0.8-0.1,1.2,0h18.3c2.6-0.3,5.1,0.4,7.3,1.8
		c1.9,2.1,3.1,4.6,3.7,7.3l31.3,123.2l29-123.2c0.4-2.7,1.7-5.2,3.7-7.2c2.2-1.4,4.9-2,7.5-1.8h15c2.6-0.2,5.3,0.4,7.5,1.8
		c1.9,2,3.2,4.5,3.6,7.3l29.2,124.8l32.3-124.8c0.6-2.7,1.9-5.2,3.8-7.3c2.1-1.4,4.7-2.1,7.3-1.8h17.3c2.2-0.3,4.2,1.1,4.6,3.3
		c0,0,0,0,0,0.1c0.1,0.4,0.1,0.8,0,1.2c0.1,1,0.1,1.9,0,2.9c-0.4,1.6-0.8,3.1-1.3,4.6l-44.8,144.1c-0.6,2.8-1.9,5.3-3.9,7.3
		c-2.1,1.4-4.6,2-7.2,1.8h-16.4c-2.6,0.3-5.3-0.4-7.5-1.9c-1.9-2.1-3.2-4.7-3.6-7.5l-29-120l-28.7,119.9c-0.4,2.8-1.7,5.4-3.6,7.5
		c-2.2,1.5-4.9,2.2-7.5,1.9H576.8z M816.1,358.6c-9.7,0-19.3-1.1-28.7-3.2c-7.5-1.5-14.7-4-21.5-7.5c-4.2-1.8-6.9-5.9-6.8-10.4V328
		c0-3.9,1.4-5.8,4.2-5.8c1.2,0,2.4,0.3,3.5,0.7l4.7,1.9c6.6,2.9,13.4,5.1,20.5,6.5c7.4,1.5,14.9,2.3,22.4,2.2
		c9.5,0.6,18.9-1.6,27.2-6.2c6.2-3.7,9.9-10.4,9.6-17.6c0.1-4.8-1.7-9.5-5-13c-5.7-4.7-12.3-8.1-19.5-9.9l-27-8.5
		c-11.4-3.2-21.5-9.7-29-18.8c-6-7.7-9.3-17.2-9.3-27c-0.2-7.2,1.6-14.4,5-20.7c3.3-6,7.9-11.2,13.3-15.4c5.7-4.3,12.2-7.6,19-9.6
		c7.6-2.2,15.5-3.3,23.4-3.2c4.2,0,8.4,0.3,12.5,0.8c4.1,0.5,8.1,1.2,12.1,2.1c3.8,0.9,7.4,1.9,10.7,2.9c2.7,0.9,5.3,1.9,7.8,3.2
		c2.1,1.1,4,2.7,5.5,4.6c1.2,1.8,1.8,4,1.7,6.2v8.9c0,3.9-1.4,5.8-4.3,5.8c-2.5-0.3-4.9-1-7.2-2.2c-11.3-4.9-23.5-7.4-35.8-7.2
		c-8.6-0.4-17.1,1.4-24.8,5.3c-5.8,3.4-9.3,9.8-8.8,16.6c-0.1,5,1.9,9.8,5.5,13.2c6,4.8,13,8.3,20.5,10.3l26.4,8
		c11.2,2.9,21.2,9.2,28.8,17.9c5.9,7.7,9,17.2,8.7,26.9c0.1,7.5-1.6,14.9-4.9,21.6c-3.3,6.4-7.9,12-13.5,16.5
		c-6.2,4.8-13.2,8.3-20.7,10.4C833.8,357.7,825,358.8,816.1,358.6L816.1,358.6z"/>
	<path class="st1" d="M851.3,450.3C790,495.6,701,519.7,625.1,519.7c-102.5,0.7-201.5-37-277.6-105.7c-5.7-5.2-0.7-12.2,6.3-8.3
		c84.4,48.3,180,73.7,277.2,73.6c72.6-0.4,144.5-15.1,211.4-43.3C852.7,431.6,861.5,442.8,851.3,450.3z"/>
	<path class="st1" d="M876.8,421.2c-7.8-10.1-51.9-4.7-71.6-2.4c-5.9,0.7-6.9-4.5-1.6-8.3c35.1-24.6,92.7-17.6,99.3-9.3
		s-1.8,66-34.6,93.6c-5,4.2-9.9,2-7.6-3.6C868.1,472.6,884.7,431.3,876.8,421.2z"/>
	<path class="st0" d="M502.9,305.1c-0.2,5.6,0.5,11.2,2.1,16.6c1.6,4.6,3.6,9.1,6,13.3c0.8,1.3,1.3,2.7,1.3,4.2
		c-0.2,2.3-1.6,4.3-3.6,5.5l-11.2,7.9c-1.5,1-3.2,1.6-4.9,1.7c-2.1-0.1-4.1-1-5.5-2.6c-2.6-2.6-4.9-5.5-6.7-8.6
		c-2.1-3.6-4-7.4-5.7-11.2c-13.3,16.6-33.5,26.1-54.7,25.8c-13.7,0.7-27.1-4.1-37.2-13.3c-9.4-9.5-14.3-22.5-13.7-35.9
		c-0.6-14.5,5.4-28.5,16.4-38.1c13-10.2,29.2-15.3,45.7-14.4c6.6,0,13.2,0.5,19.7,1.5c6.9,1,14,2.3,21.4,4v-13.7
		c1.1-10.7-2.1-21.4-8.9-29.8c-8.6-6.7-19.5-9.7-30.4-8.6c-6.8,0-13.5,0.9-20.1,2.5c-6.8,1.6-13.5,3.8-20,6.4
		c-2.1,1-4.3,1.8-6.5,2.5h-2.9c-2.6,0-3.9-1.9-3.9-5.8V206c-0.2-2.2,0.3-4.5,1.3-6.5c1.4-1.7,3.2-3.1,5.3-3.9
		c7.5-3.6,15.3-6.4,23.4-8.4c9.5-2.4,19.2-3.6,29-3.6c17.6-1.6,35.1,3.9,48.7,15.1c11.2,12.5,16.8,29.1,15.5,45.8L502.9,305.1z
		 M427.2,333.5c6.6-0.1,13.1-1.3,19.3-3.5c6.8-2.4,12.9-6.5,17.6-12c2.9-3.2,5-7.1,6.3-11.2c1.3-5.3,1.9-10.7,1.8-16.1v-7.8
		c-5.7-1.3-11.4-2.4-17.2-3.1c-5.8-0.7-11.6-1.1-17.5-1.1c-9.8-0.7-19.6,1.9-27.7,7.5c-11,11-11.8,28.5-2,40.4
		C413.1,331.3,420.1,333.8,427.2,333.5z M576.8,353.6c-2.5,0.2-5.1-0.4-7.2-1.8c-2-2-3.3-4.5-3.9-7.3l-43.6-144.1
		c-0.8-2.4-1.4-4.9-1.7-7.5c-0.4-2.2,1.1-4.2,3.3-4.6c0,0,0,0,0.1,0c0.4-0.1,0.8-0.1,1.2,0h18.3c2.6-0.3,5.1,0.4,7.3,1.8
		c1.9,2.1,3.1,4.6,3.7,7.3l31.3,123.2l29-123.2c0.4-2.7,1.7-5.2,3.7-7.2c2.2-1.4,4.9-2,7.5-1.8h15c2.6-0.2,5.3,0.4,7.5,1.8
		c1.9,2,3.2,4.5,3.6,7.3l29.2,124.8l32.3-124.8c0.6-2.7,1.9-5.2,3.8-7.3c2.1-1.4,4.7-2.1,7.3-1.8h17.3c2.2-0.3,4.2,1.1,4.6,3.3
		c0,0,0,0,0,0.1c0.1,0.4,0.1,0.8,0,1.2c0.1,1,0.1,1.9,0,2.9c-0.4,1.6-0.8,3.1-1.3,4.6l-44.8,144.1c-0.6,2.8-1.9,5.3-3.9,7.3
		c-2.1,1.4-4.6,2-7.2,1.8h-16.4c-2.6,0.3-5.3-0.4-7.5-1.9c-1.9-2.1-3.2-4.7-3.6-7.5l-29-120l-28.7,119.9c-0.4,2.8-1.7,5.4-3.6,7.5
		c-2.2,1.5-4.9,2.2-7.5,1.9H576.8z M816.1,358.6c-9.7,0-19.3-1.1-28.7-3.2c-7.5-1.5-14.7-4-21.5-7.5c-4.2-1.8-6.9-5.9-6.8-10.4V328
		c0-3.9,1.4-5.8,4.2-5.8c1.2,0,2.4,0.3,3.5,0.7l4.7,1.9c6.6,2.9,13.4,5.1,20.5,6.5c7.4,1.5,14.9,2.3,22.4,2.2
		c9.5,0.6,18.9-1.6,27.2-6.2c6.2-3.7,9.9-10.4,9.6-17.6c0.1-4.8-1.7-9.5-5-13c-5.7-4.7-12.3-8.1-19.5-9.9l-27-8.5
		c-11.4-3.2-21.5-9.7-29-18.8c-6-7.7-9.3-17.2-9.3-27c-0.2-7.2,1.6-14.4,5-20.7c3.3-6,7.9-11.2,13.3-15.4c5.7-4.3,12.2-7.6,19-9.6
		c7.6-2.2,15.5-3.3,23.4-3.2c4.2,0,8.4,0.3,12.5,0.8c4.1,0.5,8.1,1.2,12.1,2.1c3.8,0.9,7.4,1.9,10.7,2.9c2.7,0.9,5.3,1.9,7.8,3.2
		c2.1,1.1,4,2.7,5.5,4.6c1.2,1.8,1.8,4,1.7,6.2v8.9c0,3.9-1.4,5.8-4.3,5.8c-2.5-0.3-4.9-1-7.2-2.2c-11.3-4.9-23.5-7.4-35.8-7.2
		c-8.6-0.4-17.1,1.4-24.8,5.3c-5.8,3.4-9.3,9.8-8.8,16.6c-0.1,5,1.9,9.8,5.5,13.2c6,4.8,13,8.3,20.5,10.3l26.4,8
		c11.2,2.9,21.2,9.2,28.8,17.9c5.9,7.7,9,17.2,8.7,26.9c0.1,7.5-1.6,14.9-4.9,21.6c-3.3,6.4-7.9,12-13.5,16.5
		c-6.2,4.8-13.2,8.3-20.7,10.4C833.8,357.7,825,358.8,816.1,358.6L816.1,358.6z"/>
	<path class="st1" d="M851.3,450.3C790,495.6,701,519.7,625.1,519.7c-102.5,0.7-201.5-37-277.6-105.7c-5.7-5.2-0.7-12.2,6.3-8.3
		c84.4,48.3,180,73.7,277.2,73.6c72.6-0.4,144.5-15.1,211.4-43.3C852.7,431.6,861.5,442.8,851.3,450.3z"/>
	<path class="st1" d="M876.8,421.2c-7.8-10.1-51.9-4.7-71.6-2.4c-5.9,0.7-6.9-4.5-1.6-8.3c35.1-24.6,92.7-17.6,99.3-9.3
		s-1.8,66-34.6,93.6c-5,4.2-9.9,2-7.6-3.6C868.1,472.6,884.7,431.3,876.8,421.2z"/>
</g>
</svg>
