<?xml version="1.0" encoding="UTF-8"?>
<svg id="WEB_EXPORTS" data-name="WEB EXPORTS" xmlns="http://www.w3.org/2000/svg" version="1.1" viewBox="0 0 1290 528">
  <defs>
    <style>
      .cls-1 {
        fill: none;
        stroke: #95989a;
      }

      .cls-2 {
        fill: #999;
      }

      .cls-2, .cls-3, .cls-4 {
        stroke-width: 0px;
      }

      .cls-3 {
        fill: #fff;
      }

      .cls-4 {
        fill: #76b900;
      }
    </style>
  </defs>
  <g id="geforce-rtx-5050-perf-chart-outlines">
    <line id="X_axis" data-name="X axis" class="cls-1" x1="1278.5" y1="429" x2="46.5" y2="429"/>
    <path class="cls-3" d="M31.7,433.4c-1.3,0-2.2-.4-2.9-1.2-.7-.8-1-1.9-1-3.3v-1c0-1.4.3-2.6,1-3.3.7-.8,1.6-1.1,2.9-1.1h.1c1.3,0,2.2.4,2.9,1.1.7.8,1,1.9,1,3.3v1c0,1.4-.3,2.5-1,3.3-.7.8-1.6,1.2-2.9,1.2h-.1ZM31.7,431.6h.1c1.2,0,1.8-.9,1.8-2.7v-1c0-1.8-.6-2.7-1.8-2.7h-.1c-1.2,0-1.8.9-1.8,2.7v1c0,1.8.6,2.7,1.8,2.7Z"/>
    <g>
      <path class="cls-3" d="M23.1,354.4v-7.9h-1.7l.2-1.7h3.4v9.6h-2Z"/>
      <path class="cls-3" d="M34.9,354.4l-2.2-3.4-2.2,3.4h-2.4l3.4-5-3.3-4.8h2.4l2.1,3.2,2.1-3.2h2.4l-3.3,4.8,3.4,5h-2.4Z"/>
    </g>
    <g>
      <path class="cls-3" d="M23.6,39.9c-1.8,0-2.9-.6-3.4-1.9l1.6-.7c.2.6.8.9,1.7.9h0c.5,0,.9-.1,1.2-.4.3-.3.5-.6.5-1v-.2c0-.4-.2-.8-.5-1.1-.3-.3-.7-.4-1.2-.4h-.1c-.6,0-1.2.2-1.7.6l-1.2-.5.2-5.2h6v1.8h-4.3v2.1c.1-.1.4-.3.7-.3.3,0,.6-.1,1-.1h.2c.6,0,1.1.1,1.6.4.5.3.8.6,1.1,1.1.3.5.4,1,.4,1.6v.2c0,.6-.1,1.1-.4,1.6-.3.5-.7.8-1.2,1.1-.5.3-1.1.4-1.8.4h-.2Z"/>
      <path class="cls-3" d="M34.9,39.7l-2.2-3.4-2.2,3.4h-2.4l3.4-5-3.3-4.8h2.4l2.1,3.2,2.1-3.2h2.4l-3.3,4.8,3.4,5h-2.4Z"/>
    </g>
    <g>
      <path class="cls-3" d="M24.6,117.9v-1.8h-4.6v-1.5l4.6-6.3h1.8v6.2h1.3l-.2,1.6h-1v1.8h-1.8ZM24.6,114.5v-3.7l-2.7,3.7h2.7Z"/>
      <path class="cls-3" d="M34.9,117.9l-2.2-3.4-2.2,3.4h-2.4l3.4-5-3.3-4.8h2.4l2.1,3.2,2.1-3.2h2.4l-3.3,4.8,3.4,5h-2.4Z"/>
    </g>
    <g>
      <path class="cls-3" d="M23.5,197.2c-1.8,0-2.9-.6-3.4-1.8l1.6-.7c.2.5.8.8,1.7.8h0c.5,0,.9-.1,1.2-.3.3-.2.4-.5.4-.9v-.2c0-.4-.1-.7-.4-.9-.3-.2-.7-.3-1.2-.3h-1.3v-1.7h1.4c.9,0,1.4-.4,1.4-1.1h0c0-.5-.1-.7-.4-.9-.3-.2-.6-.3-1-.3h0c-.8,0-1.4.3-1.6.8l-1.6-.8c.5-1.2,1.6-1.8,3.4-1.8h.2c.6,0,1.2.1,1.6.3.5.2.8.5,1.1.9.3.4.4.9.4,1.4v.2c0,.4,0,.7-.2,1-.2.3-.4.6-.7.8.8.5,1.2,1.2,1.2,2.1v.2c0,.9-.3,1.6-.9,2.2s-1.5.8-2.5.8h-.2Z"/>
      <path class="cls-3" d="M34.9,197l-2.2-3.4-2.2,3.4h-2.4l3.4-5-3.3-4.8h2.4l2.1,3.2,2.1-3.2h2.4l-3.3,4.8,3.4,5h-2.4Z"/>
    </g>
    <g>
      <path class="cls-3" d="M20.4,276.3v-1.5c0-.7.2-1.3.5-1.8s.8-1,1.4-1.3l1.6-.9c.7-.4,1.1-.9,1.1-1.4h0c0-.4-.1-.7-.4-.9s-.6-.3-.9-.3h0c-.4,0-.8,0-1,.3-.3.2-.4.4-.6.8l-1.7-.7c.5-1.3,1.6-2,3.3-2h.2c1,0,1.7.2,2.3.7.6.5.9,1.1.9,2v.2c0,.6-.2,1.2-.5,1.6-.3.4-.9.9-1.6,1.3l-1.4.8c-.6.3-.9.8-.9,1.4h4.5v1.8h-6.6,0Z"/>
      <path class="cls-3" d="M34.9,276.3l-2.2-3.4-2.2,3.4h-2.4l3.4-5-3.3-4.8h2.4l2.1,3.2,2.1-3.2h2.4l-3.3,4.8,3.4,5h-2.4Z"/>
    </g>
    <g>
      <g>
        <rect class="cls-2" x="71.7" y="349.4" width="26" height="79.9"/>
        <rect class="cls-4" x="103.7" y="75.3" width="26" height="354"/>
      </g>
      <g>
        <path class="cls-3" d="M75.4,454.1l3.8-9.8h1.8l3.8,9.8h-2.2l-.7-2h-3.7l-.7,2s-2.1,0-2.1,0ZM78.8,450.5h2.5l-1.2-3.5s-1.3,3.5-1.3,3.5Z"/>
        <path class="cls-3" d="M87.1,454.1l-2.7-7.2h2.1l1.6,4.8,1.6-4.8h1.9l-2.7,7.2h-1.7Z"/>
        <path class="cls-3" d="M95.4,454.3c-.7,0-1.3-.1-1.8-.4-.5-.3-1-.7-1.3-1.2-.3-.5-.5-1.2-.5-2v-.4c0-.8.2-1.4.5-2,.3-.5.7-.9,1.3-1.2.5-.3,1.1-.4,1.8-.4h0c.7,0,1.3.1,1.8.4.5.3,1,.7,1.3,1.2s.5,1.2.5,2v.4c0,.8-.2,1.4-.5,2-.3.5-.7.9-1.3,1.2-.5.3-1.1.4-1.8.4h0ZM95.4,452.7h0c.5,0,.8-.1,1.1-.4s.4-.8.4-1.4v-.5c0-.7-.1-1.1-.4-1.4s-.7-.4-1.1-.4h0c-.5,0-.8.1-1.1.4s-.4.8-.4,1.4v.5c0,.7.1,1.1.4,1.4s.7.4,1.1.4Z"/>
        <path class="cls-3" d="M99.6,446.9h2.1l1.2,4.8,1.3-4.8h1.7l1.3,4.7,1.2-4.7h1.9l-2.2,7.2h-1.8l-1.4-4.8-1.4,4.8h-1.8l-2.2-7.2h0Z"/>
        <path class="cls-3" d="M114.4,454.3c-1.1,0-2-.3-2.6-.9-.6-.6-.9-1.5-.9-2.6v-.4c0-1.1.3-2,.9-2.7.6-.6,1.5-1,2.5-1h.1c1,0,1.8.3,2.4.9.6.6.9,1.5.9,2.6v.9h-4.9c0,1.1.6,1.7,1.5,1.7h.2c.7,0,1.3-.2,1.6-.7l1.4.9c-.3.4-.7.8-1.2,1s-1.1.4-1.8.4h-.2,0ZM112.9,449.8h3c0-1-.5-1.5-1.4-1.5h-.1c-.9,0-1.4.5-1.5,1.5Z"/>
        <path class="cls-3" d="M121.8,454.3c-.6,0-1.1-.1-1.6-.4-.5-.3-.8-.7-1.1-1.2-.3-.5-.4-1.2-.4-2v-.4c0-.8.1-1.4.4-2s.6-.9,1.1-1.2c.5-.3,1-.4,1.6-.4h0c.9,0,1.5.3,2,.9v-3.7h2v10.2h-1.7v-.9c-.5.7-1.3,1.1-2.3,1.1h0ZM122.3,452.7h.1c.3,0,.5,0,.7-.2s.4-.3.6-.6c.1-.3.2-.6.2-1.1v-.4c0-.5,0-.8-.2-1.1-.2-.3-.3-.5-.6-.6-.2-.1-.5-.2-.7-.2h-.1c-.4,0-.8.1-1.1.4s-.4.8-.4,1.4v.5c0,.7.1,1.1.4,1.4.3.3.7.5,1.1.5h0Z"/>
      </g>
      <g>
        <path class="cls-4" d="M61.8,496.1v-9.8h3.9c1,0,1.8.2,2.5.6s1.2.9,1.5,1.6c.4.7.5,1.5.5,2.4v.5c0,1.4-.4,2.6-1.2,3.4s-1.9,1.2-3.4,1.2h-3.9ZM63.8,494.4h1.8c.8,0,1.5-.2,1.9-.7s.7-1.2.7-2.1v-.6c0-.9-.2-1.6-.7-2.1-.4-.5-1.1-.7-1.9-.7h-1.8v6.3Z"/>
        <path class="cls-4" d="M72.1,496.1v-9.8h2v8h4.3v1.8h-6.3Z"/>
        <path class="cls-4" d="M83.4,496.3c-2,0-3.3-.7-3.9-2.2l1.7-.9c.3.9,1.1,1.3,2.2,1.3h.2c1.2,0,1.8-.4,1.8-1.1h0c0-.4-.1-.7-.3-.9-.2-.2-.5-.3-.9-.4l-1.5-.2c-.9-.1-1.6-.4-2.1-.9-.5-.5-.7-1.1-.7-1.9v-.2c0-.6.1-1.1.4-1.5s.7-.8,1.3-1c.5-.2,1.2-.3,1.9-.3h.2c.9,0,1.7.2,2.3.5.6.4,1.1.9,1.3,1.6l-1.8.8c-.3-.7-.9-1.1-1.8-1.1h-.2c-.5,0-.9,0-1.2.3-.3.2-.4.5-.4.8h0c0,.7.4,1,1.2,1.1l1.5.2c1,.1,1.7.4,2.1.9.5.5.7,1.2.7,2v.2c0,.9-.3,1.7-1,2.2-.7.5-1.6.8-2.8.8h-.2Z"/>
        <path class="cls-4" d="M92.2,496.3c-2,0-3.3-.7-3.9-2.2l1.7-.9c.3.9,1.1,1.3,2.2,1.3h.2c1.2,0,1.8-.4,1.8-1.1h0c0-.4-.1-.7-.3-.9-.2-.2-.5-.3-.9-.4l-1.5-.2c-.9-.1-1.6-.4-2.1-.9-.5-.5-.7-1.1-.7-1.9v-.2c0-.6.1-1.1.4-1.5s.7-.8,1.3-1c.5-.2,1.2-.3,1.9-.3h.2c.9,0,1.7.2,2.3.5.6.4,1.1.9,1.3,1.6l-1.8.8c-.3-.7-.9-1.1-1.8-1.1h-.2c-.5,0-.9,0-1.2.3-.3.2-.4.5-.4.8h0c0,.7.4,1,1.2,1.1l1.5.2c1,.1,1.7.4,2.1.9.5.5.7,1.2.7,2v.2c0,.9-.3,1.7-1,2.2-.7.5-1.6.8-2.8.8h-.2Z"/>
        <path class="cls-4" d="M105.2,496.1v-1.8h-4.6v-1.5l4.6-6.3h1.8v6.2h1.3l-.2,1.6h-1v1.8h-1.8ZM105.2,492.7v-3.7l-2.7,3.7h2.7Z"/>
        <path class="cls-4" d="M113,492.2v-1.7h2.3v-2.3h1.8v2.3h2.3v1.7h-2.3v2.3h-1.8v-2.3h-2.3Z"/>
        <path class="cls-4" d="M125.1,496.1v-9.8h3.7c1.1,0,2,.3,2.7.8.7.5,1,1.3,1,2.2v.3c0,.7-.2,1.2-.5,1.7-.3.5-.8.8-1.4,1l2.1,3.8h-2.2l-1.9-3.5h-1.5v3.5h-2,0ZM127.1,490.9h1.6c.5,0,.9,0,1.2-.3s.5-.5.5-.9v-.3c0-.4-.2-.7-.5-.9s-.7-.3-1.2-.3h-1.6s0,2.8,0,2.8Z"/>
        <path class="cls-4" d="M136.2,496.1v-8h-2.9v-1.8h7.9v1.8h-2.9v8h-2Z"/>
      </g>
    </g>
    <g>
      <g>
        <rect class="cls-2" x="196.9" y="349.4" width="26" height="79.9"/>
        <rect class="cls-4" x="228.9" y="95.9" width="26" height="332.9"/>
      </g>
      <g>
        <path class="cls-3" d="M176.3,454.3c-1.5,0-2.6-.4-3.3-1.3-.8-.8-1.1-2-1.1-3.6v-.5c0-1,.2-1.8.5-2.6.3-.7.8-1.3,1.5-1.7.7-.4,1.5-.6,2.4-.6h.1c1,0,1.8.2,2.5.7.7.4,1.1,1.1,1.4,1.9l-1.9.7c-.1-.5-.4-.8-.7-1.1-.4-.2-.8-.3-1.3-.3h0c-.8,0-1.4.2-1.8.7s-.6,1.2-.6,2.2v.6c0,1,.2,1.8.6,2.3.4.5,1,.7,1.8.7h0c.5,0,.9-.1,1.3-.3.4-.2.6-.6.8-1.1l1.9.7c-.3.8-.8,1.4-1.4,1.8-.7.4-1.5.6-2.5.6h-.1Z"/>
        <path class="cls-3" d="M181.5,456.9v-1.7h.5c.4,0,.7,0,.9-.2s.4-.4.5-.8v-.2c0,0-2.7-7.2-2.7-7.2h2.1l1.7,5.1,1.5-5.1h2l-2.5,7.3c-.2.6-.4,1-.6,1.4-.2.4-.4.6-.7.8-.2.2-.5.3-.9.4-.3,0-.7.1-1.2.1h-.6Z"/>
        <path class="cls-3" d="M193,454.3c-1,0-1.8-.4-2.3-1.1v.9h-1.7v-10.2h2v3.7c.5-.6,1.2-.9,2-.9h0c.6,0,1.1.1,1.6.4.5.3.8.7,1.1,1.2.3.5.4,1.2.4,2v.4c0,.8-.1,1.4-.4,2-.3.5-.6.9-1.1,1.2-.5.3-1,.4-1.6.4h0ZM192.5,452.7h.1c.4,0,.8-.2,1.1-.5.3-.3.4-.8.4-1.4v-.5c0-.7-.1-1.2-.4-1.5-.3-.3-.7-.4-1.1-.4h-.1c-.2,0-.5,0-.7.2-.2.1-.4.3-.6.6-.2.3-.2.6-.2,1.1v.4c0,.5,0,.8.2,1.1.2.3.3.5.6.6.2.1.5.2.7.2Z"/>
        <path class="cls-3" d="M200.6,454.3c-1.1,0-2-.3-2.6-.9-.6-.6-.9-1.5-.9-2.6v-.4c0-1.1.3-2,.9-2.7.6-.6,1.5-1,2.5-1h.1c1,0,1.8.3,2.4.9.6.6.9,1.5.9,2.6v.9h-4.9c0,1.1.6,1.7,1.5,1.7h.2c.7,0,1.3-.2,1.6-.7l1.4.9c-.3.4-.7.8-1.2,1s-1.1.4-1.8.4h-.2ZM199.1,449.8h3c0-1-.5-1.5-1.4-1.5h-.1c-.9,0-1.4.5-1.5,1.5Z"/>
        <path class="cls-3" d="M205.4,454.1v-7.2h1.7v1.2c.2-.4.4-.7.7-1s.7-.3,1.2-.3h.8v1.8h-.7c-.3,0-.6,0-.8.2-.3.1-.5.3-.7.6s-.3.7-.3,1.1v3.6h-2Z"/>
        <path class="cls-3" d="M210.9,456.9v-10h1.7v.9c.5-.7,1.3-1.1,2.3-1.1h0c.6,0,1.1.1,1.6.4.5.3.8.7,1.1,1.2.3.5.4,1.2.4,2v.4c0,.8-.1,1.4-.4,2-.3.5-.6.9-1.1,1.2-.5.3-1,.4-1.6.4h0c-.9,0-1.5-.3-2-.9v3.5h-2ZM214.3,452.7h.1c.4,0,.8-.1,1.1-.4.3-.3.4-.8.4-1.4v-.5c0-.7-.1-1.1-.4-1.4-.3-.3-.7-.5-1.1-.5h-.1c-.2,0-.5,0-.7.2s-.4.3-.6.6-.2.6-.2,1.1v.4c0,.5,0,.8.2,1.1.2.3.3.5.6.6.2.1.5.2.7.2Z"/>
        <path class="cls-3" d="M221.9,454.3c-.8,0-1.4-.3-1.9-.8-.5-.5-.7-1.2-.7-2.2v-4.5h2v4.2c0,.5,0,.9.3,1.1.2.3.5.4.9.4h.1c.2,0,.4,0,.6-.2.2-.1.4-.3.5-.6.1-.3.2-.6.2-1v-4h2v7.2h-1.7v-.9c-.2.4-.5.6-.9.8-.4.2-.8.3-1.2.3h-.1Z"/>
        <path class="cls-3" d="M227.7,454.1v-7.2h1.7v.9c.2-.3.6-.6.9-.8s.8-.3,1.3-.3h.1c.8,0,1.5.3,2,.8.5.5.7,1.2.7,2.2v4.5h-2v-4.2c0-.5-.1-.9-.3-1.1-.2-.3-.5-.4-.9-.4h-.1c-.2,0-.5,0-.7.2s-.4.3-.5.6-.2.6-.2,1v4h-2Z"/>
        <path class="cls-3" d="M236.1,454.1v-10.2h2v5.6l2.6-2.6h2.4l-2.9,2.7,3.1,4.5h-2.4l-2.1-3.2-.8.7v2.5h-2Z"/>
        <path class="cls-3" d="M247.8,454.1v-1.5c0-.7.2-1.3.5-1.8s.8-1,1.4-1.3l1.6-.9c.7-.4,1.1-.9,1.1-1.4h0c0-.4-.1-.7-.4-.9s-.6-.3-.9-.3h0c-.4,0-.8,0-1,.3-.3.2-.4.4-.6.8l-1.7-.7c.5-1.3,1.6-2,3.3-2h.2c1,0,1.7.2,2.3.7.6.5.9,1.1.9,2v.2c0,.6-.2,1.2-.5,1.6-.3.4-.9.9-1.6,1.3l-1.4.8c-.6.3-.9.8-.9,1.4h4.5v1.8h-6.6Z"/>
        <path class="cls-3" d="M259.5,454.3c-1.3,0-2.2-.4-2.9-1.2-.7-.8-1-1.9-1-3.3v-1c0-1.4.3-2.6,1-3.3.7-.8,1.6-1.1,2.9-1.1h.1c1.3,0,2.2.4,2.9,1.1.7.8,1,1.9,1,3.3v1c0,1.4-.3,2.5-1,3.3-.7.8-1.6,1.2-2.9,1.2h-.1ZM259.5,452.6h.1c1.2,0,1.8-.9,1.8-2.7v-1c0-1.8-.6-2.7-1.8-2.7h-.1c-1.2,0-1.8.9-1.8,2.7v1c0,1.8.6,2.7,1.8,2.7Z"/>
        <path class="cls-3" d="M266.2,454.1v-1.1c0-.5,0-.9.1-1.3s.2-.8.4-1.2c.2-.4.4-.8.7-1.3l1.7-2.9h-4.4v-1.8h6.8v1.5l-2.3,3.8c-.3.6-.6,1.1-.7,1.6-.1.5-.2,1.1-.2,1.7v1h-2Z"/>
        <path class="cls-3" d="M274.6,454.1v-1.1c0-.5,0-.9.1-1.3s.2-.8.4-1.2c.2-.4.4-.8.7-1.3l1.7-2.9h-4.4v-1.8h6.8v1.5l-2.3,3.8c-.3.6-.6,1.1-.7,1.6-.1.5-.2,1.1-.2,1.7v1h-2Z"/>
      </g>
      <g>
        <path class="cls-4" d="M186.6,496.1v-9.8h3.9c1,0,1.8.2,2.5.6s1.2.9,1.5,1.6c.4.7.5,1.5.5,2.4v.5c0,1.4-.4,2.6-1.2,3.4s-1.9,1.2-3.4,1.2h-3.9ZM188.6,494.4h1.8c.8,0,1.5-.2,1.9-.7s.7-1.2.7-2.1v-.6c0-.9-.2-1.6-.7-2.1-.4-.5-1.1-.7-1.9-.7h-1.8v6.3Z"/>
        <path class="cls-4" d="M197,496.1v-9.8h2v8h4.3v1.8h-6.3Z"/>
        <path class="cls-4" d="M208.2,496.3c-2,0-3.3-.7-3.9-2.2l1.7-.9c.3.9,1.1,1.3,2.2,1.3h.2c1.2,0,1.8-.4,1.8-1.1h0c0-.4-.1-.7-.3-.9-.2-.2-.5-.3-.9-.4l-1.5-.2c-.9-.1-1.6-.4-2.1-.9-.5-.5-.7-1.1-.7-1.9v-.2c0-.6.1-1.1.4-1.5s.7-.8,1.3-1c.5-.2,1.2-.3,1.9-.3h.2c.9,0,1.7.2,2.3.5.6.4,1.1.9,1.3,1.6l-1.8.8c-.3-.7-.9-1.1-1.8-1.1h-.2c-.5,0-.9,0-1.2.3-.3.2-.4.5-.4.8h0c0,.7.4,1,1.2,1.1l1.5.2c1,.1,1.7.4,2.1.9.5.5.7,1.2.7,2v.2c0,.9-.3,1.7-1,2.2-.7.5-1.6.8-2.8.8h-.2Z"/>
        <path class="cls-4" d="M217.1,496.3c-2,0-3.3-.7-3.9-2.2l1.7-.9c.3.9,1.1,1.3,2.2,1.3h.2c1.2,0,1.8-.4,1.8-1.1h0c0-.4-.1-.7-.3-.9-.2-.2-.5-.3-.9-.4l-1.5-.2c-.9-.1-1.6-.4-2.1-.9-.5-.5-.7-1.1-.7-1.9v-.2c0-.6.1-1.1.4-1.5s.7-.8,1.3-1c.5-.2,1.2-.3,1.9-.3h.2c.9,0,1.7.2,2.3.5.6.4,1.1.9,1.3,1.6l-1.8.8c-.3-.7-.9-1.1-1.8-1.1h-.2c-.5,0-.9,0-1.2.3-.3.2-.4.5-.4.8h0c0,.7.4,1,1.2,1.1l1.5.2c1,.1,1.7.4,2.1.9.5.5.7,1.2.7,2v.2c0,.9-.3,1.7-1,2.2-.7.5-1.6.8-2.8.8h-.2Z"/>
        <path class="cls-4" d="M230,496.1v-1.8h-4.6v-1.5l4.6-6.3h1.8v6.2h1.3l-.2,1.6h-1v1.8h-1.8ZM230,492.7v-3.7l-2.7,3.7h2.7Z"/>
        <path class="cls-4" d="M237.8,492.2v-1.7h2.3v-2.3h1.8v2.3h2.3v1.7h-2.3v2.3h-1.8v-2.3h-2.3Z"/>
        <path class="cls-4" d="M249.9,496.1v-9.8h3.7c1.1,0,2,.3,2.7.8.7.5,1,1.3,1,2.2v.3c0,.7-.2,1.2-.5,1.7-.3.5-.8.8-1.4,1l2.1,3.8h-2.2l-1.9-3.5h-1.5v3.5h-2ZM252,490.9h1.6c.5,0,.9,0,1.2-.3s.5-.5.5-.9v-.3c0-.4-.2-.7-.5-.9s-.7-.3-1.2-.3h-1.6v2.8Z"/>
        <path class="cls-4" d="M261.1,496.1v-8h-2.9v-1.8h7.9v1.8h-2.9v8h-2Z"/>
      </g>
    </g>
    <g>
      <g>
        <rect class="cls-2" x="321" y="349.4" width="26" height="79.9"/>
        <rect class="cls-4" x="353" y="134.3" width="26" height="294.6"/>
      </g>
      <g>
        <path class="cls-3" d="M313.7,454.1v-9.8h3.9c1,0,1.8.2,2.5.6s1.2.9,1.5,1.6c.4.7.5,1.5.5,2.4v.5c0,1.4-.4,2.6-1.2,3.4s-1.9,1.2-3.4,1.2h-3.9ZM315.7,452.4h1.8c.8,0,1.5-.2,1.9-.7s.7-1.2.7-2.1v-.6c0-.9-.2-1.6-.7-2.1-.4-.5-1.1-.7-1.9-.7h-1.8v6.3Z"/>
        <path class="cls-3" d="M328.1,454.3c-1,0-1.8-.2-2.4-.6-.7-.4-1.2-.9-1.6-1.7-.4-.7-.5-1.6-.5-2.6v-.6c0-1,.2-1.8.5-2.6.4-.7.9-1.3,1.6-1.7.7-.4,1.5-.6,2.4-.6h.1c1,0,1.8.2,2.4.6.7.4,1.2.9,1.6,1.7s.5,1.6.5,2.6v.6c0,1-.2,1.8-.5,2.6s-.9,1.3-1.6,1.7c-.7.4-1.5.6-2.4.6h-.1ZM328.1,452.5h.1c.8,0,1.4-.2,1.8-.7s.7-1.2.7-2.2v-.6c0-1-.2-1.7-.7-2.2s-1.1-.7-1.8-.7h-.1c-.8,0-1.4.2-1.8.7-.5.5-.7,1.2-.7,2.2v.6c0,1,.2,1.7.7,2.2.5.5,1.1.7,1.8.7Z"/>
        <path class="cls-3" d="M338.8,454.3c-1,0-1.8-.2-2.4-.6-.7-.4-1.2-.9-1.6-1.7-.4-.7-.5-1.6-.5-2.6v-.6c0-1,.2-1.8.5-2.6.4-.7.9-1.3,1.6-1.7.7-.4,1.5-.6,2.4-.6h.1c1,0,1.8.2,2.4.6.7.4,1.2.9,1.6,1.7s.5,1.6.5,2.6v.6c0,1-.2,1.8-.5,2.6s-.9,1.3-1.6,1.7c-.7.4-1.5.6-2.4.6h-.1ZM338.8,452.5h.1c.8,0,1.4-.2,1.8-.7s.7-1.2.7-2.2v-.6c0-1-.2-1.7-.7-2.2s-1.1-.7-1.8-.7h-.1c-.8,0-1.4.2-1.8.7-.5.5-.7,1.2-.7,2.2v.6c0,1,.2,1.7.7,2.2.5.5,1.1.7,1.8.7Z"/>
        <path class="cls-3" d="M345.4,454.1v-9.8h2.5l2.8,7.1,2.8-7.1h2.5v9.8h-1.9v-6.6l-2.6,6.6h-1.5l-2.6-6.6v6.6h-1.9Z"/>
        <path class="cls-3" d="M357.9,448.9v-2.1h2.1v2.1h-2.1ZM357.9,454.1v-2.1h2.1v2.1h-2.1Z"/>
        <path class="cls-3" d="M367.4,454.1v-8h-2.9v-1.8h7.9v1.8h-2.9v8h-2Z"/>
        <path class="cls-3" d="M373.5,454.1v-10.2h2v3.7c.5-.6,1.1-.9,1.9-.9h.1c.8,0,1.5.3,2,.8.5.5.7,1.2.7,2.2v4.5h-2v-4.2c0-.5-.1-.9-.3-1.1-.2-.3-.5-.4-.9-.4h-.1c-.2,0-.5,0-.7.2s-.4.3-.5.6-.2.6-.2,1v4h-2Z"/>
        <path class="cls-3" d="M385,454.3c-1.1,0-2-.3-2.6-.9-.6-.6-.9-1.5-.9-2.6v-.4c0-1.1.3-2,.9-2.7.6-.6,1.5-1,2.5-1h.1c1,0,1.8.3,2.4.9.6.6.9,1.5.9,2.6v.9h-4.9c0,1.1.6,1.7,1.5,1.7h.2c.7,0,1.3-.2,1.6-.7l1.4.9c-.3.4-.7.8-1.2,1s-1.1.4-1.8.4h-.2ZM383.5,449.8h3c0-1-.5-1.5-1.4-1.5h-.1c-.9,0-1.4.5-1.5,1.5Z"/>
        <path class="cls-3" d="M317.4,468.1v-9.8h3.9c1,0,1.8.2,2.5.6s1.2.9,1.5,1.6c.4.7.5,1.5.5,2.4v.5c0,1.4-.4,2.6-1.2,3.4s-1.9,1.2-3.4,1.2h-3.9ZM319.4,466.4h1.8c.8,0,1.5-.2,1.9-.7s.7-1.2.7-2.1v-.6c0-.9-.2-1.6-.7-2.1-.4-.5-1.1-.7-1.9-.7h-1.8v6.3Z"/>
        <path class="cls-3" d="M329.4,468.3c-.8,0-1.4-.2-1.8-.6s-.6-.9-.6-1.6.2-1.1.6-1.5c.4-.4.9-.6,1.7-.7l2.3-.3h0c0-.9-.4-1.3-1.2-1.3h-.1c-.3,0-.6,0-.9.2s-.4.3-.6.7l-1.5-.8c.2-.5.6-.9,1.1-1.2s1.1-.4,1.9-.4h.2c2,0,3.1,1,3.1,2.9v4.5h-1.7v-.9c-.2.3-.5.6-.9.8-.4.2-.8.3-1.4.3h0ZM331.5,464.9l-1.5.2c-.4,0-.7.2-.9.3-.2.1-.3.3-.3.6s0,.5.3.6c.2.1.4.2.8.2h.1c.5,0,.8-.1,1.1-.4.3-.3.4-.6.4-1.1v-.3Z"/>
        <path class="cls-3" d="M335.2,468.1v-7.2h1.7v1.2c.2-.4.4-.7.7-1s.7-.3,1.2-.3h.8v1.8h-.7c-.3,0-.6,0-.8.2-.3.1-.5.3-.7.6s-.3.7-.3,1.1v3.6h-2Z"/>
        <path class="cls-3" d="M341,468.1v-10.2h2v5.6l2.6-2.6h2.4l-2.9,2.7,3.1,4.5h-2.4l-2.1-3.2-.8.7v2.5h-2Z"/>
        <path class="cls-3" d="M351.9,468.1l3.8-9.8h1.8l3.8,9.8h-2.2l-.7-2h-3.7l-.7,2h-2.1ZM355.3,464.5h2.5l-1.2-3.5-1.3,3.5Z"/>
        <path class="cls-3" d="M365.3,471.1c-.7,0-1.3-.1-1.8-.3-.5-.2-.8-.6-1.1-1l1.4-1.1c.2.3.4.5.6.6.2.1.6.2,1,.2h.2c1,0,1.6-.6,1.6-1.8v-.4c-.5.6-1.2.9-2,.9h-.1c-.6,0-1.1-.1-1.6-.4s-.8-.7-1.1-1.2-.4-1.1-.4-1.8v-.3c0-.7.1-1.3.4-1.8s.6-.9,1.1-1.2c.5-.3,1-.4,1.6-.4h.1c1,0,1.8.4,2.3,1.1v-.9h1.7v6.7c0,1.1-.3,2-.9,2.6s-1.5.9-2.6.9h-.3ZM365.5,466.4h.1c.4,0,.8-.2,1.1-.5s.4-.8.4-1.3v-.4c0-.5-.1-1-.4-1.3s-.7-.5-1.1-.5h-.1c-.5,0-.9.2-1.1.5s-.4.8-.4,1.3v.3c0,.6.1,1,.4,1.3.3.3.7.5,1.1.5Z"/>
        <path class="cls-3" d="M374,468.3c-1.1,0-2-.3-2.6-.9-.6-.6-.9-1.5-.9-2.6v-.4c0-1.1.3-2,.9-2.7.6-.6,1.5-1,2.5-1h.1c1,0,1.8.3,2.4.9.6.6.9,1.5.9,2.6v.9h-4.9c0,1.1.6,1.7,1.5,1.7h.2c.7,0,1.3-.2,1.6-.7l1.4.9c-.3.4-.7.8-1.2,1s-1.1.4-1.8.4h-.2ZM372.5,463.8h3c0-1-.5-1.5-1.4-1.5h-.1c-.9,0-1.4.5-1.5,1.5Z"/>
        <path class="cls-3" d="M381.5,468.3c-1.7,0-2.7-.6-3.2-1.7l1.5-.8c.1.3.3.5.6.6.3.1.6.2,1.1.2h.2c.8,0,1.2-.2,1.2-.6h0c0-.4-.2-.6-.7-.7l-1.5-.2c-.7-.1-1.3-.3-1.6-.7-.4-.4-.6-.8-.6-1.4h0c0-.8.3-1.4.8-1.8.5-.4,1.2-.6,2.1-.6h.2c.7,0,1.3.1,1.8.4.5.3.9.7,1.1,1.2l-1.6.7c-.2-.5-.7-.7-1.4-.7h-.2c-.7,0-1,.2-1,.6h0c0,.2,0,.3.2.4.1,0,.3.2.5.2l1.5.2c.7,0,1.2.3,1.6.7.4.4.6.9.6,1.5h0c0,.9-.3,1.4-.8,1.8-.5.4-1.3.6-2.3.6h-.2Z"/>
      </g>
      <g>
        <path class="cls-4" d="M311.4,496.1v-9.8h3.9c1,0,1.8.2,2.5.6s1.2.9,1.5,1.6c.4.7.5,1.5.5,2.4v.5c0,1.4-.4,2.6-1.2,3.4s-1.9,1.2-3.4,1.2h-3.9ZM313.5,494.4h1.8c.8,0,1.5-.2,1.9-.7s.7-1.2.7-2.1v-.6c0-.9-.2-1.6-.7-2.1-.4-.5-1.1-.7-1.9-.7h-1.8v6.3Z"/>
        <path class="cls-4" d="M321.8,496.1v-9.8h2v8h4.3v1.8h-6.3Z"/>
        <path class="cls-4" d="M333.1,496.3c-2,0-3.3-.7-3.9-2.2l1.7-.9c.3.9,1.1,1.3,2.2,1.3h.2c1.2,0,1.8-.4,1.8-1.1h0c0-.4-.1-.7-.3-.9-.2-.2-.5-.3-.9-.4l-1.5-.2c-.9-.1-1.6-.4-2.1-.9-.5-.5-.7-1.1-.7-1.9v-.2c0-.6.1-1.1.4-1.5s.7-.8,1.3-1c.5-.2,1.2-.3,1.9-.3h.2c.9,0,1.7.2,2.3.5.6.4,1.1.9,1.3,1.6l-1.8.8c-.3-.7-.9-1.1-1.8-1.1h-.2c-.5,0-.9,0-1.2.3-.3.2-.4.5-.4.8h0c0,.7.4,1,1.2,1.1l1.5.2c1,.1,1.7.4,2.1.9.5.5.7,1.2.7,2v.2c0,.9-.3,1.7-1,2.2-.7.5-1.6.8-2.8.8h-.2Z"/>
        <path class="cls-4" d="M341.9,496.3c-2,0-3.3-.7-3.9-2.2l1.7-.9c.3.9,1.1,1.3,2.2,1.3h.2c1.2,0,1.8-.4,1.8-1.1h0c0-.4-.1-.7-.3-.9-.2-.2-.5-.3-.9-.4l-1.5-.2c-.9-.1-1.6-.4-2.1-.9-.5-.5-.7-1.1-.7-1.9v-.2c0-.6.1-1.1.4-1.5s.7-.8,1.3-1c.5-.2,1.2-.3,1.9-.3h.2c.9,0,1.7.2,2.3.5.6.4,1.1.9,1.3,1.6l-1.8.8c-.3-.7-.9-1.1-1.8-1.1h-.2c-.5,0-.9,0-1.2.3-.3.2-.4.5-.4.8h0c0,.7.4,1,1.2,1.1l1.5.2c1,.1,1.7.4,2.1.9.5.5.7,1.2.7,2v.2c0,.9-.3,1.7-1,2.2-.7.5-1.6.8-2.8.8h-.2Z"/>
        <path class="cls-4" d="M354.9,496.1v-1.8h-4.6v-1.5l4.6-6.3h1.8v6.2h1.3l-.2,1.6h-1v1.8h-1.8ZM354.9,492.7v-3.7l-2.7,3.7h2.7Z"/>
        <path class="cls-4" d="M362.7,492.2v-1.7h2.3v-2.3h1.8v2.3h2.3v1.7h-2.3v2.3h-1.8v-2.3h-2.3Z"/>
        <path class="cls-4" d="M374.8,496.1v-9.8h3.7c1.1,0,2,.3,2.7.8.7.5,1,1.3,1,2.2v.3c0,.7-.2,1.2-.5,1.7-.3.5-.8.8-1.4,1l2.1,3.8h-2.2l-1.9-3.5h-1.5v3.5h-2ZM376.8,490.9h1.6c.5,0,.9,0,1.2-.3s.5-.5.5-.9v-.3c0-.4-.2-.7-.5-.9s-.7-.3-1.2-.3h-1.6v2.8Z"/>
        <path class="cls-4" d="M385.9,496.1v-8h-2.9v-1.8h7.9v1.8h-2.9v8h-2Z"/>
      </g>
    </g>
    <g>
      <g>
        <rect class="cls-2" x="446.3" y="349.4" width="26" height="79.9"/>
        <rect class="cls-4" x="478.3" y="87.3" width="26" height="341.6"/>
      </g>
      <g>
        <path class="cls-3" d="M428.9,454.3c-2,0-3.3-.7-3.9-2.2l1.7-.9c.3.9,1.1,1.3,2.2,1.3h.2c1.2,0,1.8-.4,1.8-1.1h0c0-.4-.1-.7-.3-.9-.2-.2-.5-.3-.9-.4l-1.5-.2c-.9-.1-1.6-.4-2.1-.9-.5-.5-.7-1.1-.7-1.9v-.2c0-.6.1-1.1.4-1.5s.7-.8,1.3-1c.5-.2,1.2-.3,1.9-.3h.2c.9,0,1.7.2,2.3.5.6.4,1.1.9,1.3,1.6l-1.8.8c-.3-.7-.9-1.1-1.8-1.1h-.2c-.5,0-.9,0-1.2.3-.3.2-.4.5-.4.8h0c0,.7.4,1,1.2,1.1l1.5.2c1,.1,1.7.4,2.1.9.5.5.7,1.2.7,2v.2c0,.9-.3,1.7-1,2.2-.7.5-1.6.8-2.8.8h-.2Z"/>
        <path class="cls-3" d="M434.1,454.1v-2.1h2.1v2.1h-2.1Z"/>
        <path class="cls-3" d="M439.3,454.1v-8h-2.9v-1.8h7.9v1.8h-2.9v8h-2Z"/>
        <path class="cls-3" d="M444.6,454.1v-2.1h2.1v2.1h-2.1Z"/>
        <path class="cls-3" d="M448,454.1l3.8-9.8h1.8l3.8,9.8h-2.2l-.7-2h-3.7l-.7,2h-2.1ZM451.4,450.5h2.5l-1.2-3.5-1.3,3.5Z"/>
        <path class="cls-3" d="M458.7,454.1v-2.1h2.1v2.1h-2.1Z"/>
        <path class="cls-3" d="M462.7,454.1v-9.8h2v8h4.3v1.8h-6.3Z"/>
        <path class="cls-3" d="M470.1,454.1v-2.1h2.1v2.1h-2.1Z"/>
        <path class="cls-3" d="M474.1,454.1v-9.8h2v4.3l3.8-4.3h2.4l-3.5,3.8,3.6,6h-2.4l-2.6-4.6-1.3,1.6v3h-2Z"/>
        <path class="cls-3" d="M483.4,454.1v-2.1h2.1v2.1h-2.1Z"/>
        <path class="cls-3" d="M487.4,454.1v-9.8h6.5v1.7h-4.5v2.3h3.6l-.2,1.7h-3.4v2.3h4.5v1.7h-6.6Z"/>
        <path class="cls-3" d="M495.5,454.1v-2.1h2.1v2.1h-2.1Z"/>
        <path class="cls-3" d="M499.4,454.1v-9.8h3.7c1.1,0,2,.3,2.7.8.7.5,1,1.3,1,2.2v.3c0,.7-.2,1.2-.5,1.7-.3.5-.8.8-1.4,1l2.1,3.8h-2.2l-1.9-3.5h-1.5v3.5h-2ZM501.5,448.9h1.6c.5,0,.9,0,1.2-.3s.5-.5.5-.9v-.3c0-.4-.2-.7-.5-.9s-.7-.3-1.2-.3h-1.6v2.8Z"/>
        <path class="cls-3" d="M508.2,454.1v-2.1h2.1v2.1h-2.1Z"/>
        <path class="cls-3" d="M515.3,454.1v-1.5c0-.7.2-1.3.5-1.8s.8-1,1.4-1.3l1.6-.9c.7-.4,1.1-.9,1.1-1.4h0c0-.4-.1-.7-.4-.9s-.6-.3-.9-.3h0c-.4,0-.8,0-1,.3-.3.2-.4.4-.6.8l-1.7-.7c.5-1.3,1.6-2,3.3-2h.2c1,0,1.7.2,2.3.7.6.5.9,1.1.9,2v.2c0,.6-.2,1.2-.5,1.6-.3.4-.9.9-1.6,1.3l-1.4.8c-.6.3-.9.8-.9,1.4h4.5v1.8h-6.6Z"/>
        <path class="cls-3" d="M523.7,448.9v-2.1h2.1v2.1h-2.1ZM523.7,454.1v-2.1h2.1v2.1h-2.1Z"/>
        <path class="cls-3" d="M412.9,468.1v-9.8h2v3.9h4.2v-3.9h2v9.8h-2v-4.1h-4.2v4.1h-2Z"/>
        <path class="cls-3" d="M426.3,468.3c-1.1,0-2-.3-2.6-.9-.6-.6-.9-1.5-.9-2.6v-.4c0-1.1.3-2,.9-2.7.6-.6,1.5-1,2.5-1h.1c1,0,1.8.3,2.4.9.6.6.9,1.5.9,2.6v.9h-4.9c0,1.1.6,1.7,1.5,1.7h.2c.7,0,1.3-.2,1.6-.7l1.4.9c-.3.4-.7.8-1.2,1s-1.1.4-1.8.4h-.2ZM424.8,463.8h3c0-1-.5-1.5-1.4-1.5h-.1c-.9,0-1.4.5-1.5,1.5Z"/>
        <path class="cls-3" d="M433.2,468.3c-.8,0-1.4-.2-1.8-.6s-.6-.9-.6-1.6.2-1.1.6-1.5c.4-.4.9-.6,1.7-.7l2.3-.3h0c0-.9-.4-1.3-1.2-1.3h-.1c-.3,0-.6,0-.9.2s-.4.3-.6.7l-1.5-.8c.2-.5.6-.9,1.1-1.2s1.1-.4,1.9-.4h.2c2,0,3.1,1,3.1,2.9v4.5h-1.7v-.9c-.2.3-.5.6-.9.8-.4.2-.8.3-1.4.3h0ZM435.3,464.9l-1.5.2c-.4,0-.7.2-.9.3-.2.1-.3.3-.3.6s0,.5.3.6c.2.1.4.2.8.2h.1c.5,0,.8-.1,1.1-.4.3-.3.4-.6.4-1.1v-.3Z"/>
        <path class="cls-3" d="M439,468.1v-7.2h1.7v1.2c.2-.4.4-.7.7-1s.7-.3,1.2-.3h.8v1.8h-.7c-.3,0-.6,0-.8.2-.3.1-.5.3-.7.6s-.3.7-.3,1.1v3.6h-2Z"/>
        <path class="cls-3" d="M448.5,468.2c-1,0-1.7-.2-2.1-.6-.4-.4-.6-1.1-.6-1.9v-3.1h-1.5v-1.6h1.5v-2.1h2v2.1h2.2l-.2,1.6h-2v3c0,.3,0,.6.3.7s.4.2.7.2h1.3v1.7h-1.4Z"/>
        <path class="cls-3" d="M457.9,468.3c-.7,0-1.3-.1-1.8-.4-.5-.3-1-.7-1.3-1.2-.3-.5-.5-1.2-.5-2v-.4c0-.8.2-1.4.5-2,.3-.5.7-.9,1.3-1.2.5-.3,1.1-.4,1.8-.4h0c.7,0,1.3.1,1.8.4.5.3,1,.7,1.3,1.2s.5,1.2.5,2v.4c0,.8-.2,1.4-.5,2-.3.5-.7.9-1.3,1.2-.5.3-1.1.4-1.8.4h0ZM457.9,466.7h0c.5,0,.8-.1,1.1-.4s.4-.8.4-1.4v-.5c0-.7-.1-1.1-.4-1.4s-.7-.4-1.1-.4h0c-.5,0-.8.1-1.1.4s-.4.8-.4,1.4v.5c0,.7.1,1.1.4,1.4s.7.4,1.1.4Z"/>
        <path class="cls-3" d="M463.7,468.1v-5.6h-1.4v-1.6h1.4v-.3c0-.9.2-1.6.7-2.1.4-.5,1.2-.7,2.2-.7h1.2v1.7h-1.2c-.4,0-.6,0-.8.3s-.2.4-.2.8v.4h2.2l-.2,1.6h-2v5.6h-2Z"/>
        <path class="cls-3" d="M476.6,468.3c-1.5,0-2.6-.4-3.3-1.3-.8-.8-1.1-2-1.1-3.6v-.5c0-1,.2-1.8.5-2.6.3-.7.8-1.3,1.5-1.7.7-.4,1.5-.6,2.4-.6h.1c1,0,1.8.2,2.5.7.7.4,1.1,1.1,1.4,1.9l-1.9.7c-.1-.5-.4-.8-.7-1.1-.4-.2-.8-.3-1.3-.3h0c-.8,0-1.4.2-1.8.7s-.6,1.2-.6,2.2v.6c0,1,.2,1.8.6,2.3.4.5,1,.7,1.8.7h0c.5,0,.9-.1,1.3-.3.4-.2.6-.6.8-1.1l1.9.7c-.3.8-.8,1.4-1.4,1.8-.7.4-1.5.6-2.5.6h-.1Z"/>
        <path class="cls-3" d="M482,468.1v-10.2h2v3.7c.5-.6,1.1-.9,1.9-.9h.1c.8,0,1.5.3,2,.8.5.5.7,1.2.7,2.2v4.5h-2v-4.2c0-.5-.1-.9-.3-1.1-.2-.3-.5-.4-.9-.4h-.1c-.2,0-.5,0-.7.2s-.4.3-.5.6-.2.6-.2,1v4h-2Z"/>
        <path class="cls-3" d="M493.6,468.3c-.7,0-1.3-.1-1.8-.4-.5-.3-1-.7-1.3-1.2-.3-.5-.5-1.2-.5-2v-.4c0-.8.2-1.4.5-2,.3-.5.7-.9,1.3-1.2.5-.3,1.1-.4,1.8-.4h0c.7,0,1.3.1,1.8.4.5.3,1,.7,1.3,1.2s.5,1.2.5,2v.4c0,.8-.2,1.4-.5,2-.3.5-.7.9-1.3,1.2-.5.3-1.1.4-1.8.4h0ZM493.6,466.7h0c.5,0,.8-.1,1.1-.4s.4-.8.4-1.4v-.5c0-.7-.1-1.1-.4-1.4s-.7-.4-1.1-.4h0c-.5,0-.8.1-1.1.4s-.4.8-.4,1.4v.5c0,.7.1,1.1.4,1.4s.7.4,1.1.4Z"/>
        <path class="cls-3" d="M498.6,468.1v-7.2h1.7v1.2c.2-.4.4-.7.7-1s.7-.3,1.2-.3h.8v1.8h-.7c-.3,0-.6,0-.8.2-.3.1-.5.3-.7.6s-.3.7-.3,1.1v3.6h-2Z"/>
        <path class="cls-3" d="M504.1,468.1v-7.2h1.7v.9c.2-.3.6-.6.9-.8s.8-.3,1.3-.3h.1c.8,0,1.5.3,2,.8.5.5.7,1.2.7,2.2v4.5h-2v-4.2c0-.5-.1-.9-.3-1.1-.2-.3-.5-.4-.9-.4h-.1c-.2,0-.5,0-.7.2s-.4.3-.5.6-.2.6-.2,1v4h-2Z"/>
        <path class="cls-3" d="M515.7,468.3c-.7,0-1.3-.1-1.8-.4-.5-.3-1-.7-1.3-1.2-.3-.5-.5-1.2-.5-2v-.4c0-.8.2-1.4.5-2,.3-.5.7-.9,1.3-1.2.5-.3,1.1-.4,1.8-.4h0c.7,0,1.3.1,1.8.4.5.3,1,.7,1.3,1.2s.5,1.2.5,2v.4c0,.8-.2,1.4-.5,2-.3.5-.7.9-1.3,1.2-.5.3-1.1.4-1.8.4h0ZM515.7,466.7h0c.5,0,.8-.1,1.1-.4s.4-.8.4-1.4v-.5c0-.7-.1-1.1-.4-1.4s-.7-.4-1.1-.4h0c-.5,0-.8.1-1.1.4s-.4.8-.4,1.4v.5c0,.7.1,1.1.4,1.4s.7.4,1.1.4Z"/>
        <path class="cls-3" d="M524.7,468.3c-1,0-1.8-.4-2.3-1.1v.9h-1.7v-10.2h2v3.7c.5-.6,1.2-.9,2-.9h0c.6,0,1.1.1,1.6.4.5.3.8.7,1.1,1.2.3.5.4,1.2.4,2v.4c0,.8-.1,1.4-.4,2-.3.5-.6.9-1.1,1.2-.5.3-1,.4-1.6.4h0ZM524.2,466.7h.1c.4,0,.8-.2,1.1-.5.3-.3.4-.8.4-1.4v-.5c0-.7-.1-1.2-.4-1.5-.3-.3-.7-.4-1.1-.4h-.1c-.2,0-.5,0-.7.2-.2.1-.4.3-.6.6-.2.3-.2.6-.2,1.1v.4c0,.5,0,.8.2,1.1.2.3.3.5.6.6.2.1.5.2.7.2Z"/>
        <path class="cls-3" d="M528.9,470.9v-1.7h.5c.4,0,.7,0,.9-.2s.4-.4.5-.8v-.2c0,0-2.7-7.2-2.7-7.2h2.1l1.7,5.1,1.5-5.1h2l-2.5,7.3c-.2.6-.4,1-.6,1.4-.2.4-.4.6-.7.8-.2.2-.5.3-.9.4-.3,0-.7.1-1.2.1h-.6Z"/>
        <path class="cls-3" d="M536.5,468.1v-10.2h2v10.2h-2Z"/>
      </g>
      <g>
        <path class="cls-4" d="M452.7,496.1v-9.8h3.9c1,0,1.8.2,2.5.6s1.2.9,1.5,1.6c.4.7.5,1.5.5,2.4v.5c0,1.4-.4,2.6-1.2,3.4s-1.9,1.2-3.4,1.2h-3.9ZM454.8,494.4h1.8c.8,0,1.5-.2,1.9-.7s.7-1.2.7-2.1v-.6c0-.9-.2-1.6-.7-2.1-.4-.5-1.1-.7-1.9-.7h-1.8v6.3Z"/>
        <path class="cls-4" d="M463.1,496.1v-9.8h2v8h4.3v1.8h-6.3Z"/>
        <path class="cls-4" d="M474.3,496.3c-2,0-3.3-.7-3.9-2.2l1.7-.9c.3.9,1.1,1.3,2.2,1.3h.2c1.2,0,1.8-.4,1.8-1.1h0c0-.4-.1-.7-.3-.9-.2-.2-.5-.3-.9-.4l-1.5-.2c-.9-.1-1.6-.4-2.1-.9-.5-.5-.7-1.1-.7-1.9v-.2c0-.6.1-1.1.4-1.5s.7-.8,1.3-1c.5-.2,1.2-.3,1.9-.3h.2c.9,0,1.7.2,2.3.5.6.4,1.1.9,1.3,1.6l-1.8.8c-.3-.7-.9-1.1-1.8-1.1h-.2c-.5,0-.9,0-1.2.3-.3.2-.4.5-.4.8h0c0,.7.4,1,1.2,1.1l1.5.2c1,.1,1.7.4,2.1.9.5.5.7,1.2.7,2v.2c0,.9-.3,1.7-1,2.2-.7.5-1.6.8-2.8.8h-.2Z"/>
        <path class="cls-4" d="M483.2,496.3c-2,0-3.3-.7-3.9-2.2l1.7-.9c.3.9,1.1,1.3,2.2,1.3h.2c1.2,0,1.8-.4,1.8-1.1h0c0-.4-.1-.7-.3-.9-.2-.2-.5-.3-.9-.4l-1.5-.2c-.9-.1-1.6-.4-2.1-.9-.5-.5-.7-1.1-.7-1.9v-.2c0-.6.1-1.1.4-1.5s.7-.8,1.3-1c.5-.2,1.2-.3,1.9-.3h.2c.9,0,1.7.2,2.3.5.6.4,1.1.9,1.3,1.6l-1.8.8c-.3-.7-.9-1.1-1.8-1.1h-.2c-.5,0-.9,0-1.2.3-.3.2-.4.5-.4.8h0c0,.7.4,1,1.2,1.1l1.5.2c1,.1,1.7.4,2.1.9.5.5.7,1.2.7,2v.2c0,.9-.3,1.7-1,2.2-.7.5-1.6.8-2.8.8h-.2Z"/>
        <path class="cls-4" d="M496.1,496.1v-1.8h-4.6v-1.5l4.6-6.3h1.8v6.2h1.3l-.2,1.6h-1v1.8h-1.8ZM496.1,492.7v-3.7l-2.7,3.7h2.7Z"/>
      </g>
    </g>
    <g>
      <g>
        <rect class="cls-2" x="571.5" y="349.4" width="26" height="79.9"/>
        <rect class="cls-4" x="603.5" y="109.3" width="26" height="319.3"/>
      </g>
      <g>
        <path class="cls-3" d="M561.3,454.1v-9.8h6.5v1.7h-4.5v2.5h3.6l-.2,1.7h-3.4v3.8h-2Z"/>
        <path class="cls-3" d="M568.6,454.1v-7.2h1.7v1.2c.2-.4.4-.7.7-1s.7-.3,1.2-.3h.8v1.8h-.7c-.3,0-.6,0-.8.2-.3.1-.5.3-.7.6s-.3.7-.3,1.1v3.6h-2Z"/>
        <path class="cls-3" d="M577.2,454.3c-.7,0-1.3-.1-1.8-.4-.5-.3-1-.7-1.3-1.2-.3-.5-.5-1.2-.5-2v-.4c0-.8.2-1.4.5-2,.3-.5.7-.9,1.3-1.2.5-.3,1.1-.4,1.8-.4h0c.7,0,1.3.1,1.8.4.5.3,1,.7,1.3,1.2s.5,1.2.5,2v.4c0,.8-.2,1.4-.5,2-.3.5-.7.9-1.3,1.2-.5.3-1.1.4-1.8.4h0ZM577.2,452.7h0c.5,0,.8-.1,1.1-.4s.4-.8.4-1.4v-.5c0-.7-.1-1.1-.4-1.4s-.7-.4-1.1-.4h0c-.5,0-.8.1-1.1.4s-.4.8-.4,1.4v.5c0,.7.1,1.1.4,1.4s.7.4,1.1.4Z"/>
        <path class="cls-3" d="M585,454.3c-1.7,0-2.7-.6-3.2-1.7l1.5-.8c.1.3.3.5.6.6.3.1.6.2,1.1.2h.2c.8,0,1.2-.2,1.2-.6h0c0-.4-.2-.6-.7-.7l-1.5-.2c-.7-.1-1.3-.3-1.6-.7-.4-.4-.6-.8-.6-1.4h0c0-.8.3-1.4.8-1.8.5-.4,1.2-.6,2.1-.6h.2c.7,0,1.3.1,1.8.4.5.3.9.7,1.1,1.2l-1.6.7c-.2-.5-.7-.7-1.4-.7h-.2c-.7,0-1,.2-1,.6h0c0,.2,0,.3.2.4.1,0,.3.2.5.2l1.5.2c.7,0,1.2.3,1.6.7.4.4.6.9.6,1.5h0c0,.9-.3,1.4-.8,1.8-.5.4-1.3.6-2.3.6h-.2Z"/>
        <path class="cls-3" d="M593.2,454.2c-1,0-1.7-.2-2.1-.6-.4-.4-.6-1.1-.6-1.9v-3.1h-1.5v-1.6h1.5v-2.1h2v2.1h2.2l-.2,1.6h-2v3c0,.3,0,.6.3.7s.4.2.7.2h1.3v1.7h-1.4Z"/>
        <path class="cls-3" d="M596.1,456.9v-10h1.7v.9c.5-.7,1.3-1.1,2.3-1.1h0c.6,0,1.1.1,1.6.4.5.3.8.7,1.1,1.2.3.5.4,1.2.4,2v.4c0,.8-.1,1.4-.4,2-.3.5-.6.9-1.1,1.2-.5.3-1,.4-1.6.4h0c-.9,0-1.5-.3-2-.9v3.5h-2ZM599.6,452.7h.1c.4,0,.8-.1,1.1-.4.3-.3.4-.8.4-1.4v-.5c0-.7-.1-1.1-.4-1.4-.3-.3-.7-.5-1.1-.5h-.1c-.2,0-.5,0-.7.2s-.4.3-.6.6-.2.6-.2,1.1v.4c0,.5,0,.8.2,1.1.2.3.3.5.6.6.2.1.5.2.7.2Z"/>
        <path class="cls-3" d="M607.2,454.3c-.8,0-1.4-.3-1.9-.8-.5-.5-.7-1.2-.7-2.2v-4.5h2v4.2c0,.5,0,.9.3,1.1.2.3.5.4.9.4h.1c.2,0,.4,0,.6-.2.2-.1.4-.3.5-.6.1-.3.2-.6.2-1v-4h2v7.2h-1.7v-.9c-.2.4-.5.6-.9.8-.4.2-.8.3-1.2.3h-.1Z"/>
        <path class="cls-3" d="M612.9,454.1v-7.2h1.7v.9c.2-.3.6-.6.9-.8s.8-.3,1.3-.3h.1c.8,0,1.5.3,2,.8.5.5.7,1.2.7,2.2v4.5h-2v-4.2c0-.5-.1-.9-.3-1.1-.2-.3-.5-.4-.9-.4h-.1c-.2,0-.5,0-.7.2s-.4.3-.5.6-.2.6-.2,1v4h-2Z"/>
        <path class="cls-3" d="M621.4,454.1v-10.2h2v5.6l2.6-2.6h2.4l-2.9,2.7,3.1,4.5h-2.4l-2.1-3.2-.8.7v2.5h-2Z"/>
        <path class="cls-3" d="M633,454.1v-1.5c0-.7.2-1.3.5-1.8s.8-1,1.4-1.3l1.6-.9c.7-.4,1.1-.9,1.1-1.4h0c0-.4-.1-.7-.4-.9s-.6-.3-.9-.3h0c-.4,0-.8,0-1,.3-.3.2-.4.4-.6.8l-1.7-.7c.5-1.3,1.6-2,3.3-2h.2c1,0,1.7.2,2.3.7.6.5.9,1.1.9,2v.2c0,.6-.2,1.2-.5,1.6-.3.4-.9.9-1.6,1.3l-1.4.8c-.6.3-.9.8-.9,1.4h4.5v1.8h-6.6Z"/>
      </g>
      <g>
        <path class="cls-4" d="M577.6,496.1v-9.8h3.9c1,0,1.8.2,2.5.6s1.2.9,1.5,1.6c.4.7.5,1.5.5,2.4v.5c0,1.4-.4,2.6-1.2,3.4s-1.9,1.2-3.4,1.2h-3.9ZM579.6,494.4h1.8c.8,0,1.5-.2,1.9-.7s.7-1.2.7-2.1v-.6c0-.9-.2-1.6-.7-2.1-.4-.5-1.1-.7-1.9-.7h-1.8v6.3Z"/>
        <path class="cls-4" d="M587.9,496.1v-9.8h2v8h4.3v1.8h-6.3Z"/>
        <path class="cls-4" d="M599.2,496.3c-2,0-3.3-.7-3.9-2.2l1.7-.9c.3.9,1.1,1.3,2.2,1.3h.2c1.2,0,1.8-.4,1.8-1.1h0c0-.4-.1-.7-.3-.9-.2-.2-.5-.3-.9-.4l-1.5-.2c-.9-.1-1.6-.4-2.1-.9-.5-.5-.7-1.1-.7-1.9v-.2c0-.6.1-1.1.4-1.5s.7-.8,1.3-1c.5-.2,1.2-.3,1.9-.3h.2c.9,0,1.7.2,2.3.5.6.4,1.1.9,1.3,1.6l-1.8.8c-.3-.7-.9-1.1-1.8-1.1h-.2c-.5,0-.9,0-1.2.3-.3.2-.4.5-.4.8h0c0,.7.4,1,1.2,1.1l1.5.2c1,.1,1.7.4,2.1.9.5.5.7,1.2.7,2v.2c0,.9-.3,1.7-1,2.2-.7.5-1.6.8-2.8.8h-.2Z"/>
        <path class="cls-4" d="M608,496.3c-2,0-3.3-.7-3.9-2.2l1.7-.9c.3.9,1.1,1.3,2.2,1.3h.2c1.2,0,1.8-.4,1.8-1.1h0c0-.4-.1-.7-.3-.9-.2-.2-.5-.3-.9-.4l-1.5-.2c-.9-.1-1.6-.4-2.1-.9-.5-.5-.7-1.1-.7-1.9v-.2c0-.6.1-1.1.4-1.5s.7-.8,1.3-1c.5-.2,1.2-.3,1.9-.3h.2c.9,0,1.7.2,2.3.5.6.4,1.1.9,1.3,1.6l-1.8.8c-.3-.7-.9-1.1-1.8-1.1h-.2c-.5,0-.9,0-1.2.3-.3.2-.4.5-.4.8h0c0,.7.4,1,1.2,1.1l1.5.2c1,.1,1.7.4,2.1.9.5.5.7,1.2.7,2v.2c0,.9-.3,1.7-1,2.2-.7.5-1.6.8-2.8.8h-.2Z"/>
        <path class="cls-4" d="M621,496.1v-1.8h-4.6v-1.5l4.6-6.3h1.8v6.2h1.3l-.2,1.6h-1v1.8h-1.8ZM621,492.7v-3.7l-2.7,3.7h2.7Z"/>
      </g>
    </g>
    <g>
      <g>
        <rect class="cls-2" x="696.6" y="349.4" width="26" height="79.9"/>
        <rect class="cls-4" x="728.6" y="151.3" width="26" height="277.6"/>
      </g>
      <g>
        <path class="cls-3" d="M682.5,454.1v-9.8h2.5l2.8,7.1,2.8-7.1h2.5v9.8h-1.9v-6.6l-2.6,6.6h-1.5l-2.6-6.6v6.6h-1.9Z"/>
        <path class="cls-3" d="M697.3,454.3c-.8,0-1.4-.2-1.8-.6s-.6-.9-.6-1.6.2-1.1.6-1.5c.4-.4.9-.6,1.7-.7l2.3-.3h0c0-.9-.4-1.3-1.2-1.3h-.1c-.3,0-.6,0-.9.2s-.4.3-.6.7l-1.5-.8c.2-.5.6-.9,1.1-1.2s1.1-.4,1.9-.4h.2c2,0,3.1,1,3.1,2.9v4.5h-1.7v-.9c-.2.3-.5.6-.9.8-.4.2-.8.3-1.4.3h0ZM699.4,450.9l-1.5.2c-.4,0-.7.2-.9.3-.2.1-.3.3-.3.6s0,.5.3.6c.2.1.4.2.8.2h.1c.5,0,.8-.1,1.1-.4.3-.3.4-.6.4-1.1v-.3Z"/>
        <path class="cls-3" d="M703.1,454.1v-7.2h1.7v1.2c.2-.4.4-.7.7-1s.7-.3,1.2-.3h.8v1.8h-.7c-.3,0-.6,0-.8.2-.3.1-.5.3-.7.6s-.3.7-.3,1.1v3.6h-2Z"/>
        <path class="cls-3" d="M710.9,454.1l-2.7-7.2h2.1l1.6,4.8,1.6-4.8h1.9l-2.7,7.2h-1.7Z"/>
        <path class="cls-3" d="M719.1,454.3c-1.1,0-2-.3-2.6-.9-.6-.6-.9-1.5-.9-2.6v-.4c0-1.1.3-2,.9-2.7.6-.6,1.5-1,2.5-1h.1c1,0,1.8.3,2.4.9.6.6.9,1.5.9,2.6v.9h-4.9c0,1.1.6,1.7,1.5,1.7h.2c.7,0,1.3-.2,1.6-.7l1.4.9c-.3.4-.7.8-1.2,1s-1.1.4-1.8.4h-.2ZM717.6,449.8h3c0-1-.5-1.5-1.4-1.5h-.1c-.9,0-1.4.5-1.5,1.5Z"/>
        <path class="cls-3" d="M723.9,454.1v-10.2h2v10.2h-2Z"/>
        <path class="cls-3" d="M731.4,454.1v-9.8h3.7c1.1,0,2,.3,2.7.8.7.5,1,1.3,1,2.2v.3c0,.7-.2,1.2-.5,1.7-.3.5-.8.8-1.4,1l2.1,3.8h-2.2l-1.9-3.5h-1.5v3.5h-2ZM733.4,448.9h1.6c.5,0,.9,0,1.2-.3s.5-.5.5-.9v-.3c0-.4-.2-.7-.5-.9s-.7-.3-1.2-.3h-1.6v2.8Z"/>
        <path class="cls-3" d="M740.2,445.9v-2h2v2h-2ZM740.3,454.1v-7.2h2v7.2h-2Z"/>
        <path class="cls-3" d="M746,454.1l-2.7-7.2h2.1l1.6,4.8,1.6-4.8h1.9l-2.7,7.2h-1.7Z"/>
        <path class="cls-3" d="M753.2,454.3c-.8,0-1.4-.2-1.8-.6s-.6-.9-.6-1.6.2-1.1.6-1.5c.4-.4.9-.6,1.7-.7l2.3-.3h0c0-.9-.4-1.3-1.2-1.3h-.1c-.3,0-.6,0-.9.2s-.4.3-.6.7l-1.5-.8c.2-.5.6-.9,1.1-1.2s1.1-.4,1.9-.4h.2c2,0,3.1,1,3.1,2.9v4.5h-1.7v-.9c-.2.3-.5.6-.9.8-.4.2-.8.3-1.4.3h0ZM755.3,450.9l-1.5.2c-.4,0-.7.2-.9.3-.2.1-.3.3-.3.6s0,.5.3.6c.2.1.4.2.8.2h.1c.5,0,.8-.1,1.1-.4.3-.3.4-.6.4-1.1v-.3Z"/>
        <path class="cls-3" d="M759,454.1v-10.2h2v10.2h-2Z"/>
        <path class="cls-3" d="M765.5,454.3c-1.7,0-2.7-.6-3.2-1.7l1.5-.8c.1.3.3.5.6.6.3.1.6.2,1.1.2h.2c.8,0,1.2-.2,1.2-.6h0c0-.4-.2-.6-.7-.7l-1.5-.2c-.7-.1-1.3-.3-1.6-.7-.4-.4-.6-.8-.6-1.4h0c0-.8.3-1.4.8-1.8.5-.4,1.2-.6,2.1-.6h.2c.7,0,1.3.1,1.8.4.5.3.9.7,1.1,1.2l-1.6.7c-.2-.5-.7-.7-1.4-.7h-.2c-.7,0-1,.2-1,.6h0c0,.2,0,.3.2.4.1,0,.3.2.5.2l1.5.2c.7,0,1.2.3,1.6.7.4.4.6.9.6,1.5h0c0,.9-.3,1.4-.8,1.8-.5.4-1.3.6-2.3.6h-.2Z"/>
      </g>
      <g>
        <path class="cls-4" d="M702.4,496.1v-9.8h3.9c1,0,1.8.2,2.5.6s1.2.9,1.5,1.6c.4.7.5,1.5.5,2.4v.5c0,1.4-.4,2.6-1.2,3.4s-1.9,1.2-3.4,1.2h-3.9ZM704.5,494.4h1.8c.8,0,1.5-.2,1.9-.7s.7-1.2.7-2.1v-.6c0-.9-.2-1.6-.7-2.1-.4-.5-1.1-.7-1.9-.7h-1.8v6.3Z"/>
        <path class="cls-4" d="M712.8,496.1v-9.8h2v8h4.3v1.8h-6.3Z"/>
        <path class="cls-4" d="M724,496.3c-2,0-3.3-.7-3.9-2.2l1.7-.9c.3.9,1.1,1.3,2.2,1.3h.2c1.2,0,1.8-.4,1.8-1.1h0c0-.4-.1-.7-.3-.9-.2-.2-.5-.3-.9-.4l-1.5-.2c-.9-.1-1.6-.4-2.1-.9-.5-.5-.7-1.1-.7-1.9v-.2c0-.6.1-1.1.4-1.5s.7-.8,1.3-1c.5-.2,1.2-.3,1.9-.3h.2c.9,0,1.7.2,2.3.5.6.4,1.1.9,1.3,1.6l-1.8.8c-.3-.7-.9-1.1-1.8-1.1h-.2c-.5,0-.9,0-1.2.3-.3.2-.4.5-.4.8h0c0,.7.4,1,1.2,1.1l1.5.2c1,.1,1.7.4,2.1.9.5.5.7,1.2.7,2v.2c0,.9-.3,1.7-1,2.2-.7.5-1.6.8-2.8.8h-.2Z"/>
        <path class="cls-4" d="M732.9,496.3c-2,0-3.3-.7-3.9-2.2l1.7-.9c.3.9,1.1,1.3,2.2,1.3h.2c1.2,0,1.8-.4,1.8-1.1h0c0-.4-.1-.7-.3-.9-.2-.2-.5-.3-.9-.4l-1.5-.2c-.9-.1-1.6-.4-2.1-.9-.5-.5-.7-1.1-.7-1.9v-.2c0-.6.1-1.1.4-1.5s.7-.8,1.3-1c.5-.2,1.2-.3,1.9-.3h.2c.9,0,1.7.2,2.3.5.6.4,1.1.9,1.3,1.6l-1.8.8c-.3-.7-.9-1.1-1.8-1.1h-.2c-.5,0-.9,0-1.2.3-.3.2-.4.5-.4.8h0c0,.7.4,1,1.2,1.1l1.5.2c1,.1,1.7.4,2.1.9.5.5.7,1.2.7,2v.2c0,.9-.3,1.7-1,2.2-.7.5-1.6.8-2.8.8h-.2Z"/>
        <path class="cls-4" d="M745.8,496.1v-1.8h-4.6v-1.5l4.6-6.3h1.8v6.2h1.3l-.2,1.6h-1v1.8h-1.8ZM745.8,492.7v-3.7l-2.7,3.7h2.7Z"/>
      </g>
    </g>
    <g>
      <g>
        <rect class="cls-2" x="820.7" y="349.4" width="26" height="79.9"/>
        <rect class="cls-4" x="852.7" y="224.3" width="26" height="205"/>
      </g>
      <g>
        <path class="cls-3" d="M803.9,454.1l3.8-9.8h1.8l3.8,9.8h-2.2l-.7-2h-3.7l-.7,2h-2.1ZM807.3,450.5h2.5l-1.2-3.5-1.3,3.5Z"/>
        <path class="cls-3" d="M818.1,454.1v-9.8h3.7c.8,0,1.4.1,2,.4s1,.6,1.3,1.1c.3.5.5,1,.5,1.7v.3c0,1-.3,1.8-1,2.4-.7.6-1.6.8-2.7.8h-1.7v3.2h-2ZM820.2,449.2h1.6c.5,0,.9-.1,1.2-.3.3-.2.5-.6.5-1.1v-.3c0-.5-.2-.8-.5-1-.3-.2-.7-.3-1.2-.3h-1.6v3.1Z"/>
        <path class="cls-3" d="M826.6,454.1v-10.2h2v10.2h-2Z"/>
        <path class="cls-3" d="M832.5,454.3c-.8,0-1.4-.2-1.8-.6s-.6-.9-.6-1.6.2-1.1.6-1.5c.4-.4.9-.6,1.7-.7l2.3-.3h0c0-.9-.4-1.3-1.2-1.3h-.1c-.3,0-.6,0-.9.2s-.4.3-.6.7l-1.5-.8c.2-.5.6-.9,1.1-1.2s1.1-.4,1.9-.4h.2c2,0,3.1,1,3.1,2.9v4.5h-1.7v-.9c-.2.3-.5.6-.9.8-.4.2-.8.3-1.4.3h0ZM834.6,450.9l-1.5.2c-.4,0-.7.2-.9.3-.2.1-.3.3-.3.6s0,.5.3.6c.2.1.4.2.8.2h.1c.5,0,.8-.1,1.1-.4.3-.3.4-.6.4-1.1v-.3Z"/>
        <path class="cls-3" d="M841.2,457.1c-.7,0-1.3-.1-1.8-.3-.5-.2-.8-.6-1.1-1l1.4-1.1c.2.3.4.5.6.6.2.1.6.2,1,.2h.2c1,0,1.6-.6,1.6-1.8v-.4c-.5.6-1.2.9-2,.9h-.1c-.6,0-1.1-.1-1.6-.4s-.8-.7-1.1-1.2-.4-1.1-.4-1.8v-.3c0-.7.1-1.3.4-1.8s.6-.9,1.1-1.2c.5-.3,1-.4,1.6-.4h.1c1,0,1.8.4,2.3,1.1v-.9h1.7v6.7c0,1.1-.3,2-.9,2.6s-1.5.9-2.6.9h-.3ZM841.4,452.4h.1c.4,0,.8-.2,1.1-.5s.4-.8.4-1.3v-.4c0-.5-.1-1-.4-1.3s-.7-.5-1.1-.5h-.1c-.5,0-.9.2-1.1.5s-.4.8-.4,1.3v.3c0,.6.1,1,.4,1.3.3.3.7.5,1.1.5Z"/>
        <path class="cls-3" d="M849.3,454.3c-.8,0-1.4-.3-1.9-.8-.5-.5-.7-1.2-.7-2.2v-4.5h2v4.2c0,.5,0,.9.3,1.1.2.3.5.4.9.4h.1c.2,0,.4,0,.6-.2.2-.1.4-.3.5-.6.1-.3.2-.6.2-1v-4h2v7.2h-1.7v-.9c-.2.4-.5.6-.9.8-.4.2-.8.3-1.2.3h-.1Z"/>
        <path class="cls-3" d="M858.2,454.3c-1.1,0-2-.3-2.6-.9-.6-.6-.9-1.5-.9-2.6v-.4c0-1.1.3-2,.9-2.7.6-.6,1.5-1,2.5-1h.1c1,0,1.8.3,2.4.9.6.6.9,1.5.9,2.6v.9h-4.9c0,1.1.6,1.7,1.5,1.7h.2c.7,0,1.3-.2,1.6-.7l1.4.9c-.3.4-.7.8-1.2,1s-1.1.4-1.8.4h-.2ZM856.7,449.8h3c0-1-.5-1.5-1.4-1.5h-.1c-.9,0-1.4.5-1.5,1.5Z"/>
        <path class="cls-3" d="M868.7,454.1v-8h-2.9v-1.8h7.9v1.8h-2.9v8h-2Z"/>
        <path class="cls-3" d="M876.3,454.3c-.8,0-1.4-.2-1.8-.6s-.6-.9-.6-1.6.2-1.1.6-1.5c.4-.4.9-.6,1.7-.7l2.3-.3h0c0-.9-.4-1.3-1.2-1.3h-.1c-.3,0-.6,0-.9.2s-.4.3-.6.7l-1.5-.8c.2-.5.6-.9,1.1-1.2s1.1-.4,1.9-.4h.2c2,0,3.1,1,3.1,2.9v4.5h-1.7v-.9c-.2.3-.5.6-.9.8-.4.2-.8.3-1.4.3h0ZM878.4,450.9l-1.5.2c-.4,0-.7.2-.9.3-.2.1-.3.3-.3.6s0,.5.3.6c.2.1.4.2.8.2h.1c.5,0,.8-.1,1.1-.4.3-.3.4-.6.4-1.1v-.3Z"/>
        <path class="cls-3" d="M882.1,454.1v-10.2h2v10.2h-2Z"/>
        <path class="cls-3" d="M889,454.3c-1.1,0-2-.3-2.6-.9-.6-.6-.9-1.5-.9-2.6v-.4c0-1.1.3-2,.9-2.7.6-.6,1.5-1,2.5-1h.1c1,0,1.8.3,2.4.9.6.6.9,1.5.9,2.6v.9h-4.9c0,1.1.6,1.7,1.5,1.7h.2c.7,0,1.3-.2,1.6-.7l1.4.9c-.3.4-.7.8-1.2,1s-1.1.4-1.8.4h-.2ZM887.5,449.8h3c0-1-.5-1.5-1.4-1.5h-.1c-.9,0-1.4.5-1.5,1.5Z"/>
        <path class="cls-3" d="M893.6,448.9v-2.1h2.1v2.1h-2.1ZM893.6,454.1v-2.1h2.1v2.1h-2.1Z"/>
        <path class="cls-3" d="M822.2,468.1v-9.8h3.7c1.1,0,2,.3,2.7.8.7.5,1,1.3,1,2.2v.3c0,.7-.2,1.2-.5,1.7-.3.5-.8.8-1.4,1l2.1,3.8h-2.2l-1.9-3.5h-1.5v3.5h-2ZM824.2,462.9h1.6c.5,0,.9,0,1.2-.3s.5-.5.5-.9v-.3c0-.4-.2-.7-.5-.9s-.7-.3-1.2-.3h-1.6v2.8Z"/>
        <path class="cls-3" d="M834,468.3c-1.1,0-2-.3-2.6-.9-.6-.6-.9-1.5-.9-2.6v-.4c0-1.1.3-2,.9-2.7.6-.6,1.5-1,2.5-1h.1c1,0,1.8.3,2.4.9.6.6.9,1.5.9,2.6v.9h-4.9c0,1.1.6,1.7,1.5,1.7h.2c.7,0,1.3-.2,1.6-.7l1.4.9c-.3.4-.7.8-1.2,1s-1.1.4-1.8.4h-.2ZM832.5,463.8h3c0-1-.5-1.5-1.4-1.5h-.1c-.9,0-1.4.5-1.5,1.5Z"/>
        <path class="cls-3" d="M843.5,470.9v-3.5c-.5.6-1.2.9-2,.9h0c-.6,0-1.1-.1-1.6-.4-.5-.3-.8-.7-1.1-1.2-.3-.5-.4-1.2-.4-2v-.4c0-.8.1-1.4.4-2,.3-.5.6-.9,1.1-1.2.5-.3,1-.4,1.6-.4h0c1,0,1.8.4,2.3,1.1v-.9h1.7v10h-2ZM841.9,466.7h.1c.2,0,.5,0,.7-.2.2-.1.4-.3.6-.6.2-.3.2-.6.2-1.1v-.4c0-.5,0-.8-.2-1.1-.2-.3-.3-.5-.6-.6-.2-.1-.5-.2-.7-.2h-.1c-.4,0-.8.1-1.1.4s-.4.8-.4,1.4v.5c0,.7.1,1.2.4,1.5s.7.4,1.1.4Z"/>
        <path class="cls-3" d="M849.8,468.3c-.8,0-1.4-.3-1.9-.8-.5-.5-.7-1.2-.7-2.2v-4.5h2v4.2c0,.5,0,.9.3,1.1.2.3.5.4.9.4h.1c.2,0,.4,0,.6-.2.2-.1.4-.3.5-.6.1-.3.2-.6.2-1v-4h2v7.2h-1.7v-.9c-.2.4-.5.6-.9.8-.4.2-.8.3-1.2.3h-.1Z"/>
        <path class="cls-3" d="M855.6,459.9v-2h2v2h-2ZM855.6,468.1v-7.2h2v7.2h-2Z"/>
        <path class="cls-3" d="M862.5,468.3c-1.1,0-2-.3-2.6-.9-.6-.6-.9-1.5-.9-2.6v-.4c0-1.1.3-2,.9-2.7.6-.6,1.5-1,2.5-1h.1c1,0,1.8.3,2.4.9.6.6.9,1.5.9,2.6v.9h-4.9c0,1.1.6,1.7,1.5,1.7h.2c.7,0,1.3-.2,1.6-.7l1.4.9c-.3.4-.7.8-1.2,1s-1.1.4-1.8.4h-.2ZM861,463.8h3c0-1-.5-1.5-1.4-1.5h-.1c-.9,0-1.4.5-1.5,1.5Z"/>
        <path class="cls-3" d="M867.3,468.1v-7.2h1.7v.9c.2-.3.5-.6.9-.8.4-.2.8-.3,1.2-.3h.1c1,0,1.7.4,2.2,1.2.2-.4.6-.7.9-.9.4-.2.8-.3,1.3-.3h.1c.8,0,1.4.3,1.9.8s.7,1.2.7,2.2v4.5h-2v-4.2c0-.5,0-.9-.3-1.1-.2-.3-.5-.4-.9-.4h-.1c-.3,0-.6.1-.9.4s-.4.7-.4,1.3v4h-2v-4.2c0-.5,0-.9-.3-1.1-.2-.3-.5-.4-.9-.4h-.1c-.3,0-.6.1-.9.4s-.4.7-.4,1.3v4h-2Z"/>
      </g>
      <g>
        <path class="cls-4" d="M816.8,496.1v-9.8h3.9c1,0,1.8.2,2.5.6s1.2.9,1.5,1.6c.4.7.5,1.5.5,2.4v.5c0,1.4-.4,2.6-1.2,3.4s-1.9,1.2-3.4,1.2h-3.9ZM818.8,494.4h1.8c.8,0,1.5-.2,1.9-.7s.7-1.2.7-2.1v-.6c0-.9-.2-1.6-.7-2.1-.4-.5-1.1-.7-1.9-.7h-1.8v6.3Z"/>
        <path class="cls-4" d="M827.1,496.1v-9.8h2v8h4.3v1.8h-6.3Z"/>
        <path class="cls-4" d="M838.4,496.3c-2,0-3.3-.7-3.9-2.2l1.7-.9c.3.9,1.1,1.3,2.2,1.3h.2c1.2,0,1.8-.4,1.8-1.1h0c0-.4-.1-.7-.3-.9-.2-.2-.5-.3-.9-.4l-1.5-.2c-.9-.1-1.6-.4-2.1-.9-.5-.5-.7-1.1-.7-1.9v-.2c0-.6.1-1.1.4-1.5s.7-.8,1.3-1c.5-.2,1.2-.3,1.9-.3h.2c.9,0,1.7.2,2.3.5.6.4,1.1.9,1.3,1.6l-1.8.8c-.3-.7-.9-1.1-1.8-1.1h-.2c-.5,0-.9,0-1.2.3-.3.2-.4.5-.4.8h0c0,.7.4,1,1.2,1.1l1.5.2c1,.1,1.7.4,2.1.9.5.5.7,1.2.7,2v.2c0,.9-.3,1.7-1,2.2-.7.5-1.6.8-2.8.8h-.2Z"/>
        <path class="cls-4" d="M847.2,496.3c-2,0-3.3-.7-3.9-2.2l1.7-.9c.3.9,1.1,1.3,2.2,1.3h.2c1.2,0,1.8-.4,1.8-1.1h0c0-.4-.1-.7-.3-.9-.2-.2-.5-.3-.9-.4l-1.5-.2c-.9-.1-1.6-.4-2.1-.9-.5-.5-.7-1.1-.7-1.9v-.2c0-.6.1-1.1.4-1.5s.7-.8,1.3-1c.5-.2,1.2-.3,1.9-.3h.2c.9,0,1.7.2,2.3.5.6.4,1.1.9,1.3,1.6l-1.8.8c-.3-.7-.9-1.1-1.8-1.1h-.2c-.5,0-.9,0-1.2.3-.3.2-.4.5-.4.8h0c0,.7.4,1,1.2,1.1l1.5.2c1,.1,1.7.4,2.1.9.5.5.7,1.2.7,2v.2c0,.9-.3,1.7-1,2.2-.7.5-1.6.8-2.8.8h-.2Z"/>
        <path class="cls-4" d="M856.1,492.2v-1.7h2.3v-2.3h1.8v2.3h2.3v1.7h-2.3v2.3h-1.8v-2.3h-2.3Z"/>
        <path class="cls-4" d="M868.2,496.1v-9.8h3.7c1.1,0,2,.3,2.7.8.7.5,1,1.3,1,2.2v.3c0,.7-.2,1.2-.5,1.7-.3.5-.8.8-1.4,1l2.1,3.8h-2.2l-1.9-3.5h-1.5v3.5h-2ZM870.2,490.9h1.6c.5,0,.9,0,1.2-.3s.5-.5.5-.9v-.3c0-.4-.2-.7-.5-.9s-.7-.3-1.2-.3h-1.6v2.8Z"/>
        <path class="cls-4" d="M879.3,496.1v-8h-2.9v-1.8h7.9v1.8h-2.9v8h-2Z"/>
      </g>
    </g>
    <g>
      <g>
        <rect class="cls-2" x="945.9" y="349.4" width="26" height="79.9"/>
        <rect class="cls-4" x="977.8" y="305.3" width="26.2" height="124"/>
      </g>
      <g>
        <path class="cls-3" d="M928.3,454.1l3.8-9.8h1.8l3.8,9.8h-2.2l-.7-2h-3.7l-.7,2h-2.1ZM931.7,450.5h2.5l-1.2-3.5-1.3,3.5Z"/>
        <path class="cls-3" d="M938.8,456.9v-10h1.7v.9c.5-.7,1.3-1.1,2.3-1.1h0c.6,0,1.1.1,1.6.4.5.3.8.7,1.1,1.2.3.5.4,1.2.4,2v.4c0,.8-.1,1.4-.4,2-.3.5-.6.9-1.1,1.2-.5.3-1,.4-1.6.4h0c-.9,0-1.5-.3-2-.9v3.5h-2ZM942.2,452.7h.1c.4,0,.8-.1,1.1-.4.3-.3.4-.8.4-1.4v-.5c0-.7-.1-1.1-.4-1.4-.3-.3-.7-.5-1.1-.5h-.1c-.2,0-.5,0-.7.2-.2.1-.4.3-.6.6s-.2.6-.2,1.1v.4c0,.5,0,.8.2,1.1.2.3.3.5.6.6s.5.2.7.2Z"/>
        <path class="cls-3" d="M950.4,454.3c-1.1,0-2-.3-2.6-.9-.6-.6-.9-1.5-.9-2.6v-.4c0-1.1.3-2,.9-2.7.6-.6,1.5-1,2.5-1h.1c1,0,1.8.3,2.4.9.6.6.9,1.5.9,2.6v.9h-4.9c0,1.1.6,1.7,1.5,1.7h.2c.7,0,1.3-.2,1.6-.7l1.4.9c-.3.4-.7.8-1.2,1-.5.2-1.1.4-1.8.4h-.2ZM948.9,449.8h3c0-1-.5-1.5-1.4-1.5h-.1c-.9,0-1.4.5-1.5,1.5Z"/>
        <path class="cls-3" d="M959.4,454.1l-1.4-2.2-1.4,2.2h-2.2l2.5-3.7-2.4-3.6h2.3l1.3,2.1,1.3-2.1h2.2l-2.4,3.6,2.5,3.7h-2.3Z"/>
        <path class="cls-3" d="M966.5,454.1v-9.8h2v8h4.3v1.8h-6.3Z"/>
        <path class="cls-3" d="M977.2,454.3c-1.1,0-2-.3-2.6-.9-.6-.6-.9-1.5-.9-2.6v-.4c0-1.1.3-2,.9-2.7.6-.6,1.5-1,2.5-1h.1c1,0,1.8.3,2.4.9.6.6.9,1.5.9,2.6v.9h-4.9c0,1.1.6,1.7,1.5,1.7h.2c.7,0,1.3-.2,1.6-.7l1.4.9c-.3.4-.7.8-1.2,1-.5.2-1.1.4-1.8.4h-.2ZM975.7,449.8h3c0-1-.5-1.5-1.4-1.5h-.1c-.9,0-1.4.5-1.5,1.5Z"/>
        <path class="cls-3" d="M984.9,457.1c-.7,0-1.3-.1-1.8-.3-.5-.2-.8-.6-1.1-1l1.4-1.1c.2.3.4.5.6.6.2.1.6.2,1,.2h.2c1,0,1.6-.6,1.6-1.8v-.4c-.5.6-1.2.9-2,.9h-.1c-.6,0-1.1-.1-1.6-.4-.5-.3-.8-.7-1.1-1.2s-.4-1.1-.4-1.8v-.3c0-.7.1-1.3.4-1.8s.6-.9,1.1-1.2c.5-.3,1-.4,1.6-.4h.1c1,0,1.8.4,2.3,1.1v-.9h1.7v6.7c0,1.1-.3,2-.9,2.6-.6.6-1.5.9-2.6.9h-.3ZM985.1,452.4h.1c.4,0,.8-.2,1.1-.5.3-.3.4-.8.4-1.3v-.4c0-.5-.1-1-.4-1.3-.3-.3-.7-.5-1.1-.5h-.1c-.5,0-.9.2-1.1.5s-.4.8-.4,1.3v.3c0,.6.1,1,.4,1.3.3.3.7.5,1.1.5Z"/>
        <path class="cls-3" d="M993.6,454.3c-1.1,0-2-.3-2.6-.9-.6-.6-.9-1.5-.9-2.6v-.4c0-1.1.3-2,.9-2.7.6-.6,1.5-1,2.5-1h.1c1,0,1.8.3,2.4.9.6.6.9,1.5.9,2.6v.9h-4.9c0,1.1.6,1.7,1.5,1.7h.2c.7,0,1.3-.2,1.6-.7l1.4.9c-.3.4-.7.8-1.2,1-.5.2-1.1.4-1.8.4h-.2ZM992.1,449.8h3c0-1-.5-1.5-1.4-1.5h-.1c-.9,0-1.4.5-1.5,1.5Z"/>
        <path class="cls-3" d="M998.4,454.1v-7.2h1.7v.9c.2-.3.6-.6.9-.8s.8-.3,1.3-.3h.1c.8,0,1.5.3,2,.8s.7,1.2.7,2.2v4.5h-2v-4.2c0-.5,0-.9-.3-1.1-.2-.3-.5-.4-.9-.4h-.1c-.2,0-.5,0-.7.2-.2.1-.4.3-.5.6s-.2.6-.2,1v4h-2Z"/>
        <path class="cls-3" d="M1009.4,454.3c-.6,0-1.1-.1-1.6-.4-.5-.3-.8-.7-1.1-1.2-.3-.5-.4-1.2-.4-2v-.4c0-.8.1-1.4.4-2s.6-.9,1.1-1.2c.5-.3,1-.4,1.6-.4h0c.9,0,1.5.3,2,.9v-3.7h2v10.2h-1.7v-.9c-.5.7-1.3,1.1-2.3,1.1h0ZM1010,452.7h.1c.3,0,.5,0,.7-.2s.4-.3.6-.6c.1-.3.2-.6.2-1.1v-.4c0-.5,0-.8-.2-1.1-.2-.3-.3-.5-.6-.6s-.5-.2-.7-.2h-.1c-.4,0-.8.1-1.1.4s-.4.8-.4,1.4v.5c0,.7.1,1.1.4,1.4.3.3.7.5,1.1.5Z"/>
        <path class="cls-3" d="M1018,454.3c-1.7,0-2.7-.6-3.2-1.7l1.5-.8c.1.3.3.5.6.6.3.1.6.2,1.1.2h.2c.8,0,1.2-.2,1.2-.6h0c0-.4-.2-.6-.7-.7l-1.5-.2c-.7-.1-1.3-.3-1.6-.7-.4-.4-.6-.8-.6-1.4h0c0-.8.3-1.4.8-1.8.5-.4,1.2-.6,2.1-.6h.2c.7,0,1.3.1,1.8.4.5.3.9.7,1.1,1.2l-1.6.7c-.2-.5-.7-.7-1.4-.7h-.2c-.7,0-1,.2-1,.6h0c0,.2,0,.3.2.4s.3.2.5.2l1.5.2c.7,0,1.2.3,1.6.7.4.4.6.9.6,1.5h0c0,.9-.3,1.4-.8,1.8s-1.3.6-2.3.6h-.2Z"/>
      </g>
    </g>
    <g>
      <g>
        <rect class="cls-2" x="1071.1" y="349.4" width="26" height="79.9"/>
        <rect class="cls-4" x="1103.1" y="304.3" width="26" height="125"/>
      </g>
      <g>
        <path class="cls-3" d="M1048.3,454.3c-1.5,0-2.6-.4-3.3-1.3-.8-.8-1.1-2-1.1-3.6v-.5c0-1,.2-1.8.5-2.6.3-.7.8-1.3,1.5-1.7.7-.4,1.5-.6,2.4-.6h.1c1,0,1.8.2,2.5.7.7.4,1.1,1.1,1.4,1.9l-1.9.7c-.1-.5-.4-.8-.7-1.1-.3-.2-.8-.3-1.3-.3h0c-.8,0-1.4.2-1.8.7-.4.5-.6,1.2-.6,2.2v.6c0,1,.2,1.8.6,2.3.4.5,1,.7,1.8.7h0c.5,0,.9-.1,1.3-.3.4-.2.6-.6.8-1.1l1.9.7c-.3.8-.8,1.4-1.4,1.8-.7.4-1.5.6-2.5.6h-.1Z"/>
        <path class="cls-3" d="M1056.9,454.3c-.7,0-1.3-.1-1.8-.4-.5-.3-1-.7-1.3-1.2-.3-.5-.5-1.2-.5-2v-.4c0-.8.2-1.4.5-2s.7-.9,1.3-1.2c.5-.3,1.1-.4,1.8-.4h0c.7,0,1.3.1,1.8.4.5.3,1,.7,1.3,1.2.3.5.5,1.2.5,2v.4c0,.8-.2,1.4-.5,2-.3.5-.7.9-1.3,1.2-.5.3-1.1.4-1.8.4h0ZM1056.9,452.7h0c.5,0,.8-.1,1.1-.4s.4-.8.4-1.4v-.5c0-.7-.1-1.1-.4-1.4s-.7-.4-1.1-.4h0c-.5,0-.8.1-1.1.4s-.4.8-.4,1.4v.5c0,.7.1,1.1.4,1.4s.7.4,1.1.4Z"/>
        <path class="cls-3" d="M1064.4,454.3c-.8,0-1.4-.3-1.9-.8-.5-.5-.7-1.2-.7-2.2v-4.5h2v4.2c0,.5,0,.9.3,1.1.2.3.5.4.9.4h.1c.2,0,.4,0,.6-.2s.4-.3.5-.6c.1-.3.2-.6.2-1v-4h2v7.2h-1.7v-.9c-.2.4-.5.6-.9.8s-.8.3-1.2.3h-.1Z"/>
        <path class="cls-3" d="M1070.2,454.1v-7.2h1.7v.9c.2-.3.6-.6.9-.8s.8-.3,1.3-.3h.1c.8,0,1.5.3,2,.8s.7,1.2.7,2.2v4.5h-2v-4.2c0-.5,0-.9-.3-1.1-.2-.3-.5-.4-.9-.4h-.1c-.2,0-.5,0-.7.2-.2.1-.4.3-.5.6s-.2.6-.2,1v4h-2Z"/>
        <path class="cls-3" d="M1082.1,454.2c-1,0-1.7-.2-2.1-.6-.4-.4-.6-1.1-.6-1.9v-3.1h-1.5v-1.6h1.5v-2.1h2v2.1h2.2l-.2,1.6h-2v3c0,.3,0,.6.3.7s.4.2.7.2h1.3v1.7h-1.4Z"/>
        <path class="cls-3" d="M1088,454.3c-1.1,0-2-.3-2.6-.9-.6-.6-.9-1.5-.9-2.6v-.4c0-1.1.3-2,.9-2.7s1.5-1,2.5-1h.1c1,0,1.8.3,2.4.9.6.6.9,1.5.9,2.6v.9h-4.9c0,1.1.6,1.7,1.5,1.7h.2c.7,0,1.3-.2,1.6-.7l1.4.9c-.3.4-.7.8-1.2,1-.5.2-1.1.4-1.8.4h-.2ZM1086.5,449.8h3c0-1-.5-1.5-1.4-1.5h-.1c-.9,0-1.4.5-1.5,1.5Z"/>
        <path class="cls-3" d="M1092.8,454.1v-7.2h1.7v1.2c.2-.4.4-.7.7-1s.7-.3,1.2-.3h.8v1.8h-.7c-.3,0-.6,0-.8.2-.3.1-.5.3-.7.6-.2.3-.3.7-.3,1.1v3.6h-2Z"/>
        <path class="cls-3" d="M1098.9,451v-1.8h4.2v1.8h-4.2Z"/>
        <path class="cls-3" d="M1108.4,454.3c-2,0-3.3-.7-3.9-2.2l1.7-.9c.3.9,1.1,1.3,2.2,1.3h.2c1.2,0,1.8-.4,1.8-1.1h0c0-.4-.1-.7-.3-.9-.2-.2-.5-.3-.9-.4l-1.5-.2c-.9-.1-1.6-.4-2.1-.9-.5-.5-.7-1.1-.7-1.9v-.2c0-.6.1-1.1.4-1.5s.7-.8,1.3-1c.5-.2,1.2-.3,1.9-.3h.2c.9,0,1.7.2,2.3.5s1.1.9,1.3,1.6l-1.8.8c-.3-.7-.9-1.1-1.8-1.1h-.2c-.5,0-.9,0-1.2.3-.3.2-.4.5-.4.8h0c0,.7.4,1,1.2,1.1l1.5.2c1,.1,1.7.4,2.1.9.5.5.7,1.2.7,2v.2c0,.9-.3,1.7-1,2.2-.7.5-1.6.8-2.8.8h-.2Z"/>
        <path class="cls-3" d="M1117.1,454.2c-1,0-1.7-.2-2.1-.6-.4-.4-.6-1.1-.6-1.9v-3.1h-1.5v-1.6h1.5v-2.1h2v2.1h2.2l-.2,1.6h-2v3c0,.3,0,.6.3.7s.4.2.7.2h1.3v1.7h-1.4Z"/>
        <path class="cls-3" d="M1120.1,454.1v-7.2h1.7v1.2c.2-.4.4-.7.7-1s.7-.3,1.2-.3h.8v1.8h-.7c-.3,0-.6,0-.8.2s-.5.3-.7.6c-.2.3-.3.7-.3,1.1v3.6h-2Z"/>
        <path class="cls-3" d="M1125.8,445.9v-2h2v2h-2ZM1125.8,454.1v-7.2h2v7.2h-2Z"/>
        <path class="cls-3" d="M1129.6,454.1v-10.2h2v5.6l2.6-2.6h2.4l-2.9,2.7,3.1,4.5h-2.4l-2.1-3.2-.8.7v2.5h-2Z"/>
        <path class="cls-3" d="M1140.6,454.3c-1.1,0-2-.3-2.6-.9-.6-.6-.9-1.5-.9-2.6v-.4c0-1.1.3-2,.9-2.7s1.5-1,2.5-1h.1c1,0,1.8.3,2.4.9.6.6.9,1.5.9,2.6v.9h-4.9c0,1.1.6,1.7,1.5,1.7h.2c.7,0,1.3-.2,1.6-.7l1.4.9c-.3.4-.7.8-1.2,1-.5.2-1.1.4-1.8.4h-.2ZM1139.1,449.8h3c0-1-.5-1.5-1.4-1.5h-.1c-.9,0-1.4.5-1.5,1.5Z"/>
        <path class="cls-3" d="M1148.8,454.1v-1.5c0-.7.2-1.3.5-1.8.3-.5.8-1,1.4-1.3l1.6-.9c.7-.4,1.1-.9,1.1-1.4h0c0-.4-.1-.7-.4-.9-.2-.2-.6-.3-.9-.3h0c-.4,0-.8,0-1,.3-.3.2-.4.4-.6.8l-1.7-.7c.5-1.3,1.6-2,3.3-2h.2c1,0,1.7.2,2.3.7s.9,1.1.9,2v.2c0,.6-.2,1.2-.5,1.6-.3.4-.9.9-1.6,1.3l-1.4.8c-.6.3-.9.8-.9,1.4h4.5v1.8h-6.6Z"/>
      </g>
    </g>
    <g>
      <g>
        <rect class="cls-2" x="1195.7" y="349.4" width="26" height="79.9"/>
        <rect class="cls-4" x="1227.6" y="300.3" width="26.2" height="129"/>
      </g>
      <g>
        <path class="cls-3" d="M1187.8,454.3c-1,0-1.8-.2-2.4-.6-.7-.4-1.2-.9-1.6-1.7-.4-.7-.5-1.6-.5-2.6v-.6c0-1,.2-1.8.5-2.6.4-.7.9-1.3,1.6-1.7.7-.4,1.5-.6,2.4-.6h.1c1,0,1.8.2,2.4.6.7.4,1.2.9,1.6,1.7s.5,1.6.5,2.6v.6c0,1-.2,1.8-.5,2.6s-.9,1.3-1.6,1.7c-.7.4-1.5.6-2.4.6h-.1ZM1187.8,452.5h.1c.8,0,1.4-.2,1.8-.7s.7-1.2.7-2.2v-.6c0-1-.2-1.7-.7-2.2s-1.1-.7-1.8-.7h-.1c-.8,0-1.4.2-1.8.7-.5.5-.7,1.2-.7,2.2v.6c0,1,.2,1.7.7,2.2.5.5,1.1.7,1.8.7Z"/>
        <path class="cls-3" d="M1196,454.1l-2.7-7.2h2.1l1.6,4.8,1.6-4.8h1.9l-2.7,7.2h-1.7Z"/>
        <path class="cls-3" d="M1204.2,454.3c-1.1,0-2-.3-2.6-.9-.6-.6-.9-1.5-.9-2.6v-.4c0-1.1.3-2,.9-2.7.6-.6,1.5-1,2.5-1h.1c1,0,1.8.3,2.4.9.6.6.9,1.5.9,2.6v.9h-4.9c0,1.1.6,1.7,1.5,1.7h.2c.7,0,1.3-.2,1.6-.7l1.4.9c-.3.4-.7.8-1.2,1s-1.1.4-1.8.4h-.2ZM1202.6,449.8h3c0-1-.5-1.5-1.4-1.5h-.1c-.9,0-1.4.5-1.5,1.5Z"/>
        <path class="cls-3" d="M1208.9,454.1v-7.2h1.7v1.2c.2-.4.4-.7.7-1s.7-.3,1.2-.3h.8v1.8h-.7c-.3,0-.6,0-.8.2-.3.1-.5.3-.7.6s-.3.7-.3,1.1v3.6h-2Z"/>
        <path class="cls-3" d="M1214.2,446.9h2.1l1.2,4.8,1.3-4.8h1.7l1.3,4.7,1.2-4.7h1.9l-2.2,7.2h-1.8l-1.4-4.8-1.4,4.8h-1.8l-2.2-7.2Z"/>
        <path class="cls-3" d="M1227.9,454.3c-.8,0-1.4-.2-1.8-.6s-.6-.9-.6-1.6.2-1.1.6-1.5c.4-.4.9-.6,1.7-.7l2.3-.3h0c0-.9-.4-1.3-1.2-1.3h-.1c-.3,0-.6,0-.9.2s-.4.3-.6.7l-1.5-.8c.2-.5.6-.9,1.1-1.2s1.1-.4,1.9-.4h.2c2,0,3.1,1,3.1,2.9v4.5h-1.7v-.9c-.2.3-.5.6-.9.8-.4.2-.8.3-1.4.3h0ZM1230,450.9l-1.5.2c-.4,0-.7.2-.9.3-.2.1-.3.3-.3.6s0,.5.3.6c.2.1.4.2.8.2h.1c.5,0,.8-.1,1.1-.4.3-.3.4-.6.4-1.1v-.3Z"/>
        <path class="cls-3" d="M1237,454.2c-1,0-1.7-.2-2.1-.6-.4-.4-.6-1.1-.6-1.9v-3.1h-1.5v-1.6h1.5v-2.1h2v2.1h2.2l-.2,1.6h-2v3c0,.3,0,.6.3.7s.4.2.7.2h1.3v1.7h-1.4Z"/>
        <path class="cls-3" d="M1242.9,454.3c-1.1,0-1.9-.3-2.6-.9-.6-.6-1-1.5-1-2.7v-.4c0-.8.1-1.4.4-2,.3-.5.7-.9,1.2-1.2.5-.3,1.2-.4,1.9-.4h.1c.7,0,1.3.2,1.8.5.5.3.8.8,1,1.3l-1.6.7c-.1-.2-.3-.4-.5-.6-.2-.2-.5-.2-.7-.2h0c-.5,0-.9.2-1.2.5-.3.3-.4.8-.4,1.4v.5c0,.7.1,1.1.4,1.4s.7.4,1.2.4h0c.3,0,.6,0,.8-.2.2-.1.4-.3.5-.6l1.5.8c-.2.5-.6.9-1,1.2s-1.1.5-1.8.5h-.1Z"/>
        <path class="cls-3" d="M1247.2,454.1v-10.2h2v3.7c.5-.6,1.1-.9,1.9-.9h.1c.8,0,1.5.3,2,.8.5.5.7,1.2.7,2.2v4.5h-2v-4.2c0-.5-.1-.9-.3-1.1-.2-.3-.5-.4-.9-.4h-.1c-.2,0-.5,0-.7.2s-.4.3-.5.6-.2.6-.2,1v4h-2Z"/>
        <path class="cls-3" d="M1259.1,454.1v-1.5c0-.7.2-1.3.5-1.8s.8-1,1.4-1.3l1.6-.9c.7-.4,1.1-.9,1.1-1.4h0c0-.4-.1-.7-.4-.9s-.6-.3-.9-.3h0c-.4,0-.8,0-1,.3-.3.2-.4.4-.6.8l-1.7-.7c.5-1.3,1.6-2,3.3-2h.2c1,0,1.7.2,2.3.7.6.5.9,1.1.9,2v.2c0,.6-.2,1.2-.5,1.6-.3.4-.9.9-1.6,1.3l-1.4.8c-.6.3-.9.8-.9,1.4h4.5v1.8h-6.6Z"/>
      </g>
    </g>
  </g>
</svg>