<?xml version="1.0" encoding="utf-8"?>
<!-- Generator: Adobe Illustrator 27.1.1, SVG Export Plug-In . SVG Version: 6.00 Build 0)  -->
<svg version="1.1" id="Art_3.0" xmlns="http://www.w3.org/2000/svg" xmlns:xlink="http://www.w3.org/1999/xlink" x="0px" y="0px"
	 viewBox="0 0 48 48" style="enable-background:new 0 0 48 48;" xml:space="preserve">
<style type="text/css">
	.st0{fill:#FFFFFF;}
	.st1{fill:#FFFFFF;fill-opacity:0;}
</style>
<g>
	<path class="st0" d="M31.22754,16.51855c-1.86597-1.69727-4.33563-2.74219-7.05078-2.74219c-5.78955,0-10.5,4.71045-10.5,10.5
		s4.71045,10.5,10.5,10.5s10.5-4.71045,10.5-10.5c0-2.71533-1.0448-5.18457-2.74219-7.05078l1.0874-1.0874l3.56445,0.7124
		l5.79932-5.7998l-3.56378-0.7124l0.99152-0.99121l-0.70703-0.70752l-0.96918,0.96924l-0.70123-3.50732l-5.7998,5.79932
		l0.7019,3.50732C32.33813,15.40821,31.22754,16.51856,31.22754,16.51855z M33.67676,24.27636c0,5.23828-4.26172,9.5-9.5,9.5
		s-9.5-4.26172-9.5-9.5s4.26172-9.5,9.5-9.5c2.43951,0,4.65991,0.93213,6.34399,2.44922l-2.82703,2.82715
		c-0.95416-0.7959-2.18024-1.27637-3.51697-1.27637c-3.03271,0-5.5,2.46729-5.5,5.5s2.46729,5.5,5.5,5.5s5.5-2.46729,5.5-5.5
		c0-1.33691-0.48022-2.5625-1.276-3.5166l2.82703-2.82715C32.74456,19.6162,33.67675,21.83691,33.67676,24.27636z
		 M24.38397,24.77636l3.29309-3.29297c0.61578,0.76953,0.99969,1.73242,0.99969,2.79297c0,2.48145-2.01855,4.5-4.5,4.5
		s-4.5-2.01855-4.5-4.5s2.01855-4.5,4.5-4.5c1.06042,0,2.02325,0.38379,2.79321,1l-3.29303,3.29297v0.70703
		C23.67693,24.77636,24.38396,24.77636,24.38397,24.77636z M36.82178,8.12988l0.58936,2.94629l2.94629,0.58887l-4.1001,4.1001
		l-2.9458-0.58887l-0.58936-2.94678C32.72216,12.22949,36.82177,8.12988,36.82178,8.12988z"/>
	<path class="st0" d="M37.5932,18.79053c0.70782,1.73096,1.08356,3.5874,1.08356,5.48584c0,7.99512-6.50488,14.5-14.5,14.5
		s-14.5-6.50488-14.5-14.5s6.50488-14.5,14.5-14.5c1.88281,0,3.72217,0.36719,5.43817,1.06201l0.76184-0.76172
		c-1.94348-0.84961-4.04498-1.30029-6.20001-1.30029c-8.54688,0-15.5,6.95312-15.5,15.5s6.95312,15.5,15.5,15.5
		s15.5-6.95312,15.5-15.5c0-2.20215-0.46667-4.35449-1.35486-6.33594C38.3219,17.94043,37.5932,18.79053,37.5932,18.79053z"/>
</g>
<rect class="st1" width="48" height="48"/>
</svg>
