<svg id="LOGO" xmlns="http://www.w3.org/2000/svg" viewBox="0 0 1250 703"><defs><style>.cls-1{fill:#e4002b;}.cls-2{fill:#fff;}</style></defs><g id="Layer_2" data-name="Layer 2"><g id="Layer_1-2" data-name="Layer 1-2"><g id="f5-logo-rgb"><g id="Logo-black-and-white"><path class="cls-1" d="M825.3597,531.00342a14.03618,14.03618,0,0,1,4.30865,10.43725,14.755,14.755,0,0,1-25.20592,10.501,14.55931,14.55931,0,0,1-4.295-10.501,14.80507,14.80507,0,0,1,14.72771-14.81872A14.04977,14.04977,0,0,1,825.3597,531.00342Zm1.73347-1.70617a16.675,16.675,0,0,0-12.19346-5.00479,17.12586,17.12586,0,1,0,12.20713,5.00026l-.01367-.01366Zm-9.63648,11.31536a8.55364,8.55364,0,0,1-3.153.41857h-2.97556v-6.82471h2.83452a8.5441,8.5441,0,0,1,3.99019.71888,3.37349,3.37349,0,0,1-.69614,5.68726Zm-9.44084,10.1415h3.31227V543.347h2.62525a7.59854,7.59854,0,0,1,3.68988.61877c1.1693.70066,1.76533,2.1475,1.76533,4.31321v1.51509l.0637.56872a1.32482,1.32482,0,0,1,.05.22749.16468.16468,0,0,0,.08645.16379h3.07567l-.10919-.21838a2.01066,2.01066,0,0,1-.15923-.96c-.041-.51869-.041-.97822-.041-1.3968v-1.39679a5.24134,5.24134,0,0,0-1.02826-2.92552,4.75309,4.75309,0,0,0-3.27131-1.85633,7.73428,7.73428,0,0,0,2.72988-.91,4.10192,4.10192,0,0,0,1.84722-3.73084c0-2.3568-.93726-3.972-2.91189-4.77274a14.24745,14.24745,0,0,0-5.14127-.67792h-6.58358Z"/><path class="cls-2" d="M833.64946,406.23869c1.21934-24.26867-3.2622-50.41182-24.37786-74.06625-21.70257-23.39054-58.31483-43.22313-133.63682-47.873,3.91282-12.20712,7.33428-23.39055,10.94682-34.8151,45.04306,1.58334,85.10863,4.82734,119.20486,9.2543,2.69348-12.21622,4.154-24.15946,6.943-35.68411q-5.19135-7.59363-11.00145-14.75957c-16.22006-1.87452-32.39461-5.91475-49.80216-8.14415-23.53613-3.03927-48.17333-5.20952-74.78968-6.438-16.76146,49.925-37.7133,112.74413-59.20659,177.66984C729.973,381.07372,773.0597,411.27077,770.6392,453.87059c-2.23394,23.00836-23.2677,43.92835-50.92595,46.408-32.89963,2.2112-47.95947-11.07876-57.84621-25.6609-8.70833-13.09435-17.39389-26.216-26.6664-40.49325-2.52058-4.19946-5.8465-1.46958-8.84482,1.46049-6.78831,6.58811-13.23993,12.80771-19.94633,19.23656-4.31322,3.749-3.35321,6.9703-1.81992,10.1142,6.26507,14.76868,12.09792,28.30887,17.98992,41.749,9.80938,6.0103,55.9171,14.21813,90.40006,11.6384,23.36778-1.96551,52.58208-11.00142,76.73245-29.19153C813.56662,470.6093,830.956,445.68094,833.64946,406.23869Z"/><path class="cls-2" d="M441.78394,486.31068q6.46983,8.77656,13.74041,16.89342c38.75978,6.97031,87.09234,11.78853,137.42682,13.25359-.16834-5.22317-.31849-10.29621-.455-15.67864-30.91137-1.74258-45.12039-6.45617-47.59095-12.57111-2.06106-4.85919-2.4205-12.11613-2.86183-19.28207-2.3204-47.47719-3.08021-98.83082-2.2749-150.37557,17.28925-.30029,34.50117-.455,52.56388-.65062,8.75382-3.99017,16.989-7.93486,25.7246-11.82949,0-6.24233.04094-11.82949.04094-17.92168-26.76649.10922-52.16349.5642-77.61964,1.26941.71886-21.66616,1.56969-41.66711,2.83908-61.17666.91-12.82135,9.78663-22.19395,18.94537-22.92646,14.67767-.57328,27.85845,5.25957,40.61609,10.91952,7.034,3.40781,13.96791,6.79741,21.1748,10.4873,3.43965.91,7.52536,1.71983,9.98682-1.26939,4.27227-5.05938,8.33069-9.75933,12.5347-14.67766,2.27491-3.36231,1.29216-5.29143.35943-6.529-9.1542-7.22964-17.767-13.73132-26.48441-20.26483-5.38241-3.63984-13.88145-4.44061-22.25764-4.44061-3.33956,0-6.69276.12285-9.80482.22294-8.60824.455-19.56416,1.81992-37.504,6.19683-40.4068,10.88314-88.91681,39.05552-94.04444,85.13138-.65972,7.52083-1.21025,14.96885-1.69708,22.66257-11.41091.96-21.79811,1.78353-31.60293,2.72989-.71887,8.80842-1.20115,17.28925-1.60154,26.20231,9.92768-.58237,20.283-1.101,31.82133-1.60152a1046.16183,1046.16183,0,0,0,4.44516,141.144c.75982,6.78375,1.50144,13.50837.61878,17.85343C458.09954,484.23142,451.42043,486.38349,441.78394,486.31068Z"/><path class="cls-1" d="M812.75218,223.05449c-2.789,11.52465-4.24953,23.4679-6.943,35.68411-34.12353-4.427-74.19821-7.671-119.20486-9.2543-3.61255,11.42456-7.034,22.608-10.94683,34.81509,75.322,4.6317,111.92518,24.4825,133.63683,47.873,21.11562,23.659,25.5972,49.79759,24.37785,74.06626-2.71622,39.44225-20.10555,64.37061-43.96928,82.85191-24.15037,18.19922-53.36464,27.226-76.73245,29.19153-34.483,2.57976-80.59068-5.62807-90.4-11.63382-5.91475-13.44011-11.72484-26.98033-17.98993-41.749-1.52419-3.14391-2.48419-6.36973,1.81992-10.11421,6.70641-6.42887,13.158-12.64845,19.94634-19.23658,2.99832-2.93008,6.32422-5.66,8.84481-1.4605,9.2725,14.3,17.96261,27.42168,26.66639,40.49325,9.88671,14.58212,24.94658,27.87211,57.84621,25.66091,27.65825-2.4751,48.6829-23.39509,50.92595-46.408,2.4205-42.58615-40.66615-72.79686-152.70962-82.4743,21.50241-64.90294,42.45425-127.72208,59.21574-177.64708,26.61635,1.22845,51.25355,3.39871,74.78967,6.438,17.40756,2.21575,33.5821,6.26963,49.80217,8.14415A226.98486,226.98486,0,0,0,625,124.00981c-125.63373,0-227.49019,101.85191-227.49019,227.49019a226.41641,226.41641,0,0,0,44.27414,134.81068c9.63649.07279,16.3156-2.07926,17.039-6.23324.88266-4.34505.141-11.06968-.61878-17.85342A1043.92906,1043.92906,0,0,1,453.759,321.08c-11.5383.50049-21.89365,1.01916-31.82133,1.60153.40039-8.93127.88266-17.3939,1.60153-26.20232,9.80483-.94181,20.192-1.76532,31.60294-2.72988.48683-7.69372,1.03735-15.14175,1.70163-22.66257,5.12308-46.07131,53.63309-74.24369,94.0399-85.11773,17.93078-4.36781,28.89581-5.7464,37.504-6.19683,3.11206-.1001,6.46527-.22294,9.80482-.22294,8.37619,0,16.87522.78257,22.25765,4.44061,8.71742,6.53352,17.33021,13.03518,26.48894,20.26483.91,1.23754,1.91093,3.18486-.364,6.529-4.204,4.91834-8.26243,9.61828-12.5347,14.67766-2.46143,2.98923-6.54717,2.20211-9.98682,1.2694-7.20689-3.6899-14.14079-7.0795-21.1748-10.4873-12.73945-5.66906-25.93388-11.50191-40.61609-10.91953-9.15876.73252-18.02632,10.10511-18.94539,22.92646-1.2694,19.50956-2.12021,39.51049-2.83907,61.17667,25.45616-.71432,50.85316-1.1693,77.62876-1.2876,0,6.09219-.04094,11.67935-.04094,17.92168-8.73563,3.90373-16.97077,7.84841-25.7246,11.82949-18.06273.20929-35.25188.35033-52.56388.65062-.80077,51.54472-.04095,102.89835,2.2749,150.37557.455,7.16594.80077,14.42288,2.86183,19.28207,2.47054,6.11494,16.67958,10.82853,47.591,12.57111.12284,5.38243.273,10.46455.455,15.67863-50.33448-1.465-98.667-6.28327-137.40407-13.25358A226.76239,226.76239,0,0,0,625,578.99019c125.64285,0,227.49019-101.85646,227.49019-227.49019A226.39818,226.39818,0,0,0,812.75218,223.05449Z"/></g></g></g></g></svg>