<?xml version="1.0" encoding="utf-8"?>
<!-- Generator: Adobe Illustrator 23.0.3, SVG Export Plug-In . SVG Version: 6.00 Build 0)  -->
<svg version="1.1" id="Layer_1" xmlns="http://www.w3.org/2000/svg" xmlns:xlink="http://www.w3.org/1999/xlink" x="0px" y="0px"
	 viewBox="0 0 1250 703" style="enable-background:new 0 0 1250 703;" xml:space="preserve">
<style type="text/css">
	.st0{fill:#D0181F;}
</style>
<title>nvidia-partner-switch-logo</title>
<g id="LOGO">
	<g id="SWITCH">
		<path d="M618.9,237.9L551.5,211l-0.2,10.4c-48.5,5-85.1,27.5-85.1,54.4c0,15.7,12.5,29.9,32.5,40c0.4,0.2,0.7,0.4,1,0.5
			c0.9,0.4,1.8,0.8,2.7,1.2c9.4,4.1,19.3,7.1,29.4,8.9c-22.1-6.7-37.1-19.5-37.1-34.3c0-0.1,0-0.2,0-0.3s0-0.1,0-0.2
			c0-1.2,0.1-2.3,0.4-3.5c3.1-16.9,25.9-30.5,55.6-34.3l-0.2,8.5L618.9,237.9L618.9,237.9z"/>
		<path class="st0" d="M693.6,290.1c0-15.7-12.5-29.9-32.5-40c-0.3-0.2-0.7-0.3-1-0.5c-0.9-0.4-1.8-0.8-2.7-1.2
			c-9.4-4.1-19.2-7.1-29.3-8.9c22.1,6.7,37.1,19.5,37.1,34.3c0,0.1,0,0.2,0,0.3s0,0.2,0,0.2c0,1.2-0.1,2.3-0.4,3.5
			c-3.1,16.9-25.9,30.5-55.7,34.3l0.2-8.5L540.8,328l67.5,27l0.2-10.5C657,339.5,693.6,317.1,693.6,290.1L693.6,290.1z"/>
		<path d="M381.1,492c-18.6,0-35.4-2-50.4-17l19.3-19.3c9.8,9.8,22.5,11.1,31.6,11.1c10.2,0,20.9-3.4,20.9-12.3
			c0-5.9-3.2-10-12.5-10.9l-18.6-1.8c-21.4-2-34.5-11.4-34.5-33.2c0-24.5,21.6-37.7,45.7-37.7c18.4,0,33.8,3.2,45.2,13.9l-18.1,18.4
			c-6.8-6.1-17.3-8-27.5-8c-11.8,0-16.8,5.5-16.8,11.4c0,4.3,1.8,9.3,12.3,10.2l18.6,1.8c23.4,2.3,35.2,14.8,35.2,34.8
			C431.3,479.5,409,492,381.1,492L381.1,492z"/>
		<polygon points="565.9,490.6 541.6,490.6 516.8,416.4 492,490.6 467.8,490.6 431.4,372.3 462.8,372.3 481.8,445.4 505.9,372.3 
			527.5,372.3 551.8,445.4 570.9,372.3 602,372.3 565.9,490.6 		"/>
		<polygon points="608.3,490.6 608.3,372.3 637.8,372.3 637.8,490.6 608.3,490.6 		"/>
		<path d="M698.9,490.6c-24.1,0-34.3-17-34.3-33.9v-63h-12.5v-22.4h12.5v-15.1l29.5-10v25.1h20.9v22.5h-20.9V455
			c0,6.8,3.2,10.7,10.2,10.7h10.7l-3.9,25L698.9,490.6z"/>
		<path d="M773.4,492c-23.6,0-53-12.7-53-60.6s29.3-60.5,53-60.5c16.3,0,28.6,5,39.1,15.9l-20,20c-6.1-6.6-11.3-9.3-19.1-9.3
			c-7,0-12.5,2.5-16.8,7.7c-4.6,5.7-6.6,13.6-6.6,26.1s2,20.7,6.6,26.4c4.3,5.2,9.8,7.7,16.8,7.7c7.7,0,13-2.7,19.1-9.3l20,19.8
			C802,486.8,789.8,492,773.4,492z"/>
		<path d="M889.8,490.6v-72.2c0-15.7-10-20.9-19.3-20.9s-19.1,5.5-19.1,20.9v72.2h-29.5V328.9h29.5v54.3
			c7.4-7.8,17.7-12.3,28.4-12.3c25.9,0,39.5,18.2,39.5,43.2v76.6H889.8z"/>
	</g>
</g>
</svg>
