<svg id="LOGO" xmlns="http://www.w3.org/2000/svg" viewBox="0 0 1250 703"><title>nvidia-partner-leadtek-logo</title><path d="M764.17,407.64V328.56a16.47,16.47,0,0,1,.7,5.1v68.89a16.49,16.49,0,0,1-.7,5.09Zm0-91,15.11,15.64h22.15v93H824.1v-93h33.2v70.3c0,13.88,14.59,22.66,27.06,22.66h64.86V404.12H889.29a9.2,9.2,0,0,1-9.5-9.31V378.64h63.45V357.91H879.79V341.57a9.11,9.11,0,0,1,9.5-9.32h67.3v93h22.49V369.33l42.88,48.5a20.67,20.67,0,0,0,15.46,7.38H1055l-47.28-53.07c-2.45-2.63-2.1-5.62-.17-8.44,12.83-17.57,25.84-35,38.66-52.54H1020l-40.95,55.71V311.16H884.54c-12.83,0-26.18,7.21-27.06,19.69h-.18V311H764.17Zm0-5.62v5.62l-.7-.7V311Zm0,17.57C761.19,317.84,748.71,311,738,311H716.55v21.08h16.7a9.11,9.11,0,0,1,9.31,9.5v53.24a9,9,0,0,1-9.31,9.31h-16.7v21.09H738c10.72,0,23.2-6.85,26.18-17.57ZM716.55,311v21.08H690.72v72.05h25.83v21.09H641.69c-3.33,0-5.27-1.58-5.79-5.09L631,378.47H603.73V357.91h25.13l-1.58-17.05c-.35-5.09-3.86-9.31-9.31-9.31H603.73V309.06H619.9c12.31,0,24.78,8.78,26.72,21.43,3.67,23.72,4.75,48,7.72,71.87.35,3.17,2.3,5.1,5.27,5.1h8.61V311ZM281.81,299.92a32.76,32.76,0,0,0-10.9-1.58H268.1V274.79h6c36.73,0,63.09,30.93,65,66.43,1.23,19.68-5.44,37.6-18.62,52.54l21.61,31.45h-16a16.73,16.73,0,0,1-14.58-7.56L268.1,354.91h.18c4.39-.17,9-.17,13.53-.17,6.5.17,12.65,1.58,16.51,7.39l8.09,11.59a48.16,48.16,0,0,0,8.79-30.4c-1.23-20.38-13.89-37.6-33.39-43.4ZM268.1,421.52v3.69h2.64l-2.64-3.69ZM603.73,309.06v22.49H589.51c-5.46,0-8.79,4.22-9.32,9.31l-1.76,17.05h25.3v20.56H576.32l-5.8,46.74H478.27c-13,0-24.25-6.85-27.06-19.68h-.36v19.68h-59c-15.29,0-28.12-13.18-28.12-28.12V311H386v83.82a9.19,9.19,0,0,0,9.49,9.31h55.35V333.66c0-13.71,14.59-22.32,27.24-22.67H541v21.08H482.84a9.82,9.82,0,0,0-9.49,9.5v16.34h63.43v20.56H473.35v16.34a9.3,9.3,0,0,0,9.49,9.31h69.42l8.25-72.39c1.58-13.36,14.23-22.67,27.06-22.67ZM268.1,408.34l6.33,9.31A16.73,16.73,0,0,0,289,425.21h16l-36.9-53.42Zm0-110H218.72v86.1c0,8.62,6.15,17.92,15.46,17.92h20.21l13.71,19.16v3.69h-45A27.75,27.75,0,0,1,195,397.09V274.79h73.1v23.55Zm0,73.45-6.68-9.66c-3.86-5.81-10-7.22-16.51-7.39-4.57,0-9.14,0-13.71.17h0l36.9,53.43Z" fill="#135eab" fill-rule="evenodd"/></svg>