<?xml version="1.0" encoding="utf-8"?>
<!-- Generator: Adobe Illustrator 23.0.3, SVG Export Plug-In . SVG Version: 6.00 Build 0)  -->
<svg version="1.1" id="Layer_1" xmlns="http://www.w3.org/2000/svg" xmlns:xlink="http://www.w3.org/1999/xlink" x="0px" y="0px"
	 viewBox="0 0 1250 703" style="enable-background:new 0 0 1250 703;" xml:space="preserve">
<style type="text/css">
	.st0{fill:#5F6368;}
	.st1{fill:#EA4335;}
	.st2{fill:#4285F4;}
	.st3{fill:#34A853;}
	.st4{fill:#FBBC05;}
</style>
<title>nvidia-partner-google-cloud-logo</title>
<g id="LOGO">
	<path class="st0" d="M390.4,501.7c-10,0.1-19.7-3.8-26.8-11c-14.6-14.1-15-37.3-0.9-51.9c0.3-0.3,0.6-0.6,0.9-0.9
		c7-7.2,16.7-11.1,26.8-11c9.6-0.1,18.8,3.6,25.7,10.3l-7.2,7.2c-4.9-4.8-11.6-7.4-18.4-7.3c-7.2-0.1-14.1,2.8-19,7.9
		c-10.4,10.7-10.4,27.8,0,38.5c5,5.2,11.9,8.1,19,7.9c7.6,0,13.9-2.5,18.9-7.5c3-3,4.8-7.3,5.6-12.9h-24.5v-10.2h34.4
		c0.4,2.1,0.6,4.2,0.5,6.4c0,10-3,18-8.9,23.9C409.9,498.2,401.2,501.7,390.4,501.7z M470.4,494.9c-9.6,9.2-24.7,9.2-34.3,0
		c-9.4-9.6-9.4-24.9,0-34.4c9.6-9.2,24.7-9.2,34.3,0C479.8,470,479.8,485.3,470.4,494.9z M443.7,488.1c5,5.3,13.3,5.6,18.6,0.6
		c0.2-0.2,0.4-0.4,0.6-0.6c5.3-6,5.4-15,0-21c-5.1-5.3-13.5-5.5-18.9-0.4c-0.1,0.1-0.3,0.3-0.4,0.4
		C438.3,473.1,438.3,482.1,443.7,488.1z M523.2,494.9c-9.6,9.2-24.7,9.2-34.3,0c-9.4-9.6-9.4-24.9,0-34.4c9.6-9.2,24.7-9.2,34.3,0
		C532.6,470,532.6,485.3,523.2,494.9z M496.4,488.1c5,5.3,13.3,5.6,18.6,0.6c0.2-0.2,0.4-0.4,0.6-0.6c5.3-6,5.4-15,0-21
		c-5.1-5.3-13.5-5.5-18.9-0.4c-0.1,0.1-0.3,0.3-0.4,0.4C491.1,473.1,491.1,482.1,496.4,488.1L496.4,488.1z M557.9,523.4
		c-4.9,0.2-9.6-1.4-13.5-4.3c-3.4-2.6-6.1-6-7.9-10l9.2-3.8c1,2.4,2.6,4.4,4.6,6c2.1,1.7,4.8,2.6,7.6,2.6c4,0,7.2-1.2,9.5-3.7
		c2.3-2.4,3.4-5.9,3.4-10.5v-3.5h-0.4c-3,3.7-7.2,5.5-12.7,5.5c-6.1,0-12-2.5-16.2-7c-4.5-4.5-7-10.6-6.9-17
		c-0.1-6.4,2.4-12.6,6.9-17.1c4.2-4.5,10-7.1,16.2-7.1c2.6,0,5.1,0.5,7.4,1.6c2,0.9,3.8,2.2,5.2,3.8h0.4V455h10v43.3
		c0,8.4-2.1,14.7-6.4,18.9C570.1,521.3,564.6,523.4,557.9,523.4L557.9,523.4z M558.6,492.3c3.5,0.1,6.9-1.5,9.2-4.2
		c2.5-2.9,3.8-6.6,3.7-10.4c0.1-3.8-1.2-7.6-3.7-10.5c-2.3-2.7-5.6-4.3-9.2-4.2c-3.6,0-7.1,1.5-9.5,4.2c-2.6,2.8-4,6.6-3.9,10.5
		c-0.1,3.8,1.3,7.6,3.9,10.4C551.5,490.8,555,492.3,558.6,492.3L558.6,492.3z M598.7,429.4v70.9h-10.6v-70.9L598.7,429.4z
		 M627.7,501.8c-6.4,0.2-12.6-2.3-17.1-6.9c-4.5-4.5-7-10.7-6.8-17.2c0-7.1,2.2-12.8,6.6-17.3c4.2-4.4,10-6.9,16.1-6.8
		c2.8,0,5.6,0.5,8.1,1.6c2.3,0.9,4.4,2.3,6.2,4.1c1.5,1.5,2.8,3.1,3.9,4.9c0.9,1.5,1.7,3.1,2.4,4.7l1.1,2.7L616.1,485
		c2.5,4.9,6.4,7.3,11.7,7.3c4.9,0,8.8-2.2,11.9-6.7l8.2,5.5c-2.1,3-4.7,5.5-7.8,7.4C636.4,500.8,632.1,501.9,627.7,501.8
		L627.7,501.8z M614.3,476.9l21.5-8.9c-0.7-1.6-1.9-2.9-3.4-3.7c-1.7-1-3.6-1.4-5.6-1.4c-3.3,0.1-6.4,1.5-8.7,3.8
		C615.4,469.3,614,473.1,614.3,476.9L614.3,476.9z"/>
	<path class="st0" d="M703.9,501.7c-9.6,0-17.7-3.3-24.2-9.8c-6.5-6.5-9.8-14.6-9.8-24.4c0-9.7,3.3-17.9,9.8-24.4
		c6.5-6.5,14.6-9.8,24.2-9.8c9.9,0,17.9,3.6,24,10.7l-5.8,5.7c-4.4-5.5-10.5-8.3-18.2-8.3c-6.7-0.2-13.3,2.5-18,7.2
		c-4.9,4.8-7.4,11.1-7.3,18.9s2.5,14.1,7.3,18.9c4.8,4.8,11.3,7.4,18,7.2c7.9,0,14.5-3.2,20.1-9.5l5.8,5.8
		c-3.1,3.6-6.9,6.6-11.2,8.5C714,500.7,709,501.8,703.9,501.7z"/>
	<path class="st0" d="M745.7,500.3h-8.4v-65.4h8.4V500.3z"/>
	<path class="st0" d="M759.4,460.9c9.2-9.1,23.9-9.1,33.1,0c8.6,9.7,8.6,24.4,0,34.1c-9.2,9.1-23.9,9.1-33.1,0
		C750.8,485.2,750.8,470.6,759.4,460.9z M765.7,489.7c5.4,5.7,14.3,5.9,20,0.6c0.2-0.2,0.4-0.4,0.6-0.6c2.9-3,4.3-6.9,4.3-11.7
		s-1.4-8.8-4.3-11.7c-5.4-5.7-14.3-5.9-20-0.6c-0.2,0.2-0.4,0.4-0.6,0.6c-2.9,3-4.3,6.9-4.3,11.7
		C761.3,482.8,762.8,486.7,765.7,489.7L765.7,489.7z"/>
	<path class="st0" d="M845.4,500.3h-8v-6.2H837c-1.4,2.3-3.5,4.2-5.8,5.4c-2.5,1.5-5.4,2.2-8.3,2.2c-5.6,0-9.8-1.7-12.7-5.1
		c-2.9-3.4-4.3-8-4.3-13.7v-27.4h8.4v26c0,8.3,3.7,12.5,11,12.5c3.3,0.1,6.5-1.5,8.5-4.2c2.2-2.8,3.3-6.2,3.3-9.7v-24.7h8.4
		L845.4,500.3z"/>
	<path class="st0" d="M873.9,501.7c-5.8,0-11.2-2.5-15-6.8c-8.4-9.8-8.4-24.2,0-34c3.8-4.4,9.2-6.9,15-6.8c3.2-0.1,6.4,0.7,9.2,2.2
		c2.5,1.3,4.6,3.1,6.1,5.5h0.4l-0.4-6.2v-20.6h8.4v65.4h-8v-6.2h-0.4c-1.5,2.3-3.6,4.2-6.1,5.5C880.2,501,877.1,501.8,873.9,501.7z
		 M875.3,494.1c3.8,0.1,7.5-1.5,10.1-4.4c2.8-2.9,4.2-6.8,4.2-11.8c0-4.9-1.4-8.9-4.2-11.8c-5.1-5.5-13.8-5.9-19.4-0.7
		c-0.3,0.2-0.5,0.5-0.8,0.8c-2.8,3-4.2,6.9-4.2,11.7c0,4.9,1.4,8.8,4.2,11.7C867.8,492.5,871.4,494.1,875.3,494.1L875.3,494.1z"/>
	<g>
		<g>
			<path class="st1" d="M651.8,224.3l6.3,0.1l17.1-17.1l0.8-7.2c-31.7-28.2-80.3-25.4-108.6,6.3c-7.9,8.9-13.7,19.6-16.8,31.1
				c1.9-1.3,5.9-0.3,5.9-0.3l34.2-5.6c0,0,1.8-2.9,2.6-2.7C608.7,212,634.3,210,651.8,224.3L651.8,224.3z"/>
			<path class="st2" d="M699.3,237.4c-3.9-14.5-12-27.5-23.2-37.4l-24.2,24.2c10.1,8.1,15.9,20.3,15.9,33.3v4.3
				c11.8-0.1,21.4,9.4,21.5,21.2c0.1,11.8-9.4,21.4-21.2,21.5c-0.1,0-0.2,0-0.3,0H625l-4.3,4.3v25.7l4.3,4.3h42.8
				c30.7,0,55.6-24.9,55.6-55.5C723.4,264.9,714.4,247.8,699.3,237.4L699.3,237.4z"/>
			<path class="st3" d="M582.2,338.8H625v-34.2h-42.7c-3,0-6-0.7-8.8-1.9l-6.2,1.9l-17.1,17.1l-1.5,5.8
				C558.3,334.8,570.1,338.8,582.2,338.8z"/>
			<path class="st4" d="M582.2,227.6c-30.7,0-55.6,24.8-55.6,55.5c0,17.4,8.1,33.8,22,44.3l24.8-24.8c-10.8-4.8-15.6-17.5-10.7-28.2
				c4.8-10.8,17.5-15.6,28.2-10.7c4.8,2.1,8.6,6,10.7,10.7l24.8-24.8C616,235.7,599.6,227.6,582.2,227.6z"/>
		</g>
	</g>
</g>
</svg>
