<svg xmlns="http://www.w3.org/2000/svg" viewBox="0 0 1250 703"><title>nvidia-partner-dell-technologies-logo</title><g id="INSTRUCTIONS"><path d="M1125,368.52c0-12-6.68-17.42-20.11-20.11s-21.42-4-21.42-13.4c0-6.68,5.37-10.89,14.74-10.89,12,0,16.08,5.38,16.08,12.06l1.34,1.34H1121l1.34-1.34c0-13.4-10.71-18.77-24.1-18.77-14.74,0-22.76,8.06-22.76,17.42,0,10.89,8,16.08,21.42,18.77s20.11,4,20.11,14.74c0,6.72-4,12.05-17.43,12.05-12,0-17.42-6.68-17.42-14.74l-1.35-1.34h-5.33l-1.35,1.34c0,12.06,9.37,21.46,25.42,21.46,17.42,0,25.41-8.06,25.41-18.77m-57.54-13.21,1.34-1.35v-3.85c0-18.73-10.71-32.16-29.48-32.16s-29.47,13.43-29.47,32.16v2.69c0,18.77,9.36,34.85,30.82,34.85,18.77,0,25.41-12.05,26.79-20.11l-1.34-1.34h-5.34l-1.34,1.34a17.85,17.85,0,0,1-18.77,13.39c-17.43,0-22.8-16.08-22.8-24.1l1.34-1.34Zm-8-6.72h-40.23l-1.34-1.31c0-9.4,5.37-22.8,21.45-22.8s21.46,13.4,21.46,22.8Zm-59,36.3V320.28l-1.34-1.35h-5.38l-1.34,1.35V384.6l1.34,1.35h5.38Zm0-77.72v-8.13l-1.34-1.35h-5.38l-1.34,1.35v8l1.34,1.34h5.38Zm-50.82,73.69c-13.4,0-21.42-9.36-21.42-28.13s8-28.14,21.42-28.14S971,333.78,971,352.55s-8.06,28.13-21.45,28.13m21.45-4c0,17.43-4,30.82-20.11,30.82-12,0-16.08-5.33-17.42-12.05l-1.35-1.34h-5.33l-1.35,1.34c1.35,10.89,9.37,18.77,25.41,18.77,17.43,0,28.14-10.89,28.14-37.54V320.28l-1.34-1.35h-4l-1.34,1.35L971,328.33h-1.35c-2.68-5.37-9.4-10.89-21.45-10.89-18.73,0-28.14,14.78-28.14,34.85s9.41,34.85,28.14,34.85c12,0,18.77-5.37,21.45-10.89Zm-87.12-52.24c13.39,0,22.76,10.89,22.76,28.14s-9.37,28.13-22.76,28.13-22.8-10.71-22.8-28.13,9.4-28.14,22.8-28.14m0,63c17.42,0,30.82-12,30.82-34.85s-13.4-34.85-30.82-34.85-30.82,12.09-30.82,34.85,13.39,34.85,30.82,34.85m-40.19-2.69V293.48l-1.34-1.34h-5.52l-1.34,1.34V384.6l1.34,1.35h5.37ZM795.41,324.3c13.4,0,22.76,10.9,22.76,28.14s-9.36,28.13-22.76,28.13-22.8-10.71-22.8-28.13,9.41-28.14,22.8-28.14m0,63c17.43,0,30.82-12.05,30.82-34.85s-13.39-34.85-30.82-34.85-30.82,12.09-30.82,34.85,13.4,34.85,30.82,34.85m-38.84-2.69V344.42c0-17.43-9.4-26.83-24.14-26.83A24.29,24.29,0,0,0,711,328.48h-1.2l-1.34-8.06-1.35-1.34h-4l-1.34,1.34V384.6l1.34,1.35h5.38l1.34-1.35V348.3c0-14.74,6.68-24.1,21.42-24.1,10.89,0,17.42,6.71,17.42,20.11V384.6L750,386h5.37Zm-68.36,0V344.42c0-17.43-9.37-26.83-24.1-26.83a24.37,24.37,0,0,0-21.46,10.89h-1.34V293.63L640,292.29h-5.37l-1.34,1.34v91.12l1.34,1.34H640l1.31-1.34v-36.3c0-14.74,6.71-24.11,21.45-24.11,10.89,0,17.43,6.72,17.43,20.11V384.6l1.34,1.35h5.34ZM573,352.44c0-18.77,9.36-28.14,22.79-28.14s18.74,8.06,20.08,16.09l1.34,1.34h5.48l1.35-1.34c-1.35-13.4-12.09-22.8-28.14-22.8-17.42,0-30.82,10.89-30.82,34.85s13.4,34.85,30.82,34.85c16.05,0,26.79-9.4,28.14-22.8l-1.35-1.34h-5.37L616,364.49c-1.34,8.06-6.68,16.08-20.08,16.08s-22.79-9.36-22.79-28.13m-14.74,2.69,1.34-1.35v-3.85c0-18.73-10.89-32.16-29.48-32.16s-29.47,13.43-29.47,32.16v2.69c0,18.77,9.36,34.85,30.82,34.85,18.76,0,25.41-12.05,26.79-20.11L557,366h-5.33l-1.35,1.34a17.84,17.84,0,0,1-18.76,13.39c-17.43,0-22.77-16.08-22.77-24.1l1.31-1.34Zm-8.28-6.72H510.15l-1.31-1.31c0-9.4,5.34-22.8,21.42-22.8s21.45,13.4,21.45,22.8ZM514,297.59v-4.11l-1.34-1.34H443.1l-1.35,1.34v4l1.35,1.35h29.47l1.35,1.34v84.4l1.34,1.35h5.34l1.34-1.35V300.2l1.34-1.34h29.48Z" fill="gray"/><path d="M441.75,367.29V386H381.24V292.14h21.31v75.15ZM162,386a47,47,0,0,0,45.41-35.11l53,41.46,53-41.42V386H374V367.29h-39.2V292.14H313.5v35.07L262.67,367l-11.39-8.89,24.32-19,26.54-20.73L287,306.37,236.1,346.3l-11.36-8.85,50.82-39.75-15.14-11.84-53,41.39A47,47,0,0,0,162,292.14H124V386Zm-16.7-18.66V310.8H162c14.12,0,25.41,12.63,25.41,28.24S176,367.29,162,367.29Z" fill="#0076ce"/></g></svg>