<?xml version="1.0" encoding="UTF-8"?>
<svg id="PASTE_LOGO_HERE" data-name="PASTE LOGO HERE" xmlns="http://www.w3.org/2000/svg" viewBox="0 0 1250 703">
  <defs>
    <style>
      .cls-1 {
        fill: #f25022;
      }

      .cls-2 {
        fill: #ffb900;
      }

      .cls-3 {
        fill: #ffb900;
      }

      .cls-4 {
        fill: #00a4ef;
      }

      .cls-5 {
        fill: #00a4ef;
      }

      .cls-6 {
        fill: #7fba00;
      }

      .cls-7 {
        fill: #f25022;
      }

      .cls-8 {
        fill: #7fba00;
      }

      .cls-9 {
        fill: #737373;
      }
    </style>
  </defs>
  <g>
    <path class="cls-9" d="M860.63,310.31l31.08,82.53h-15.77l-7.31-20.49h-32.52l-7.02,20.49h-15.65l31.08-82.53h16.12ZM852.11,325.62l-12.2,34.76h24.75l-12.14-34.76h-.4Z"/>
    <path class="cls-9" d="M898.69,333.68h47.25v5.58l-31.02,42.53h31.19v11.05h-49.61v-6.62l30.56-41.5h-28.37v-11.05Z"/>
    <path class="cls-9" d="M1005.38,333.68v59.17h-14.04v-7.77h-.23c-1.84,2.69-4.31,4.79-7.4,6.3-3.09,1.51-6.55,2.27-10.39,2.27-6.87,0-12.1-1.95-15.68-5.84-3.59-3.89-5.38-9.95-5.38-18.16v-35.97h14.1v34.3c0,4.99.99,8.74,2.96,11.25,1.98,2.51,4.96,3.77,8.95,3.77s7.12-1.39,9.5-4.17c2.38-2.78,3.57-6.42,3.57-10.91v-34.25h14.04Z"/>
    <path class="cls-9" d="M1047.32,332.7c1.11,0,2.11.08,2.99.23.88.15,1.63.35,2.24.58v14.1c-.73-.54-1.79-1.04-3.19-1.53-1.4-.48-3.1-.72-5.09-.72-3.42,0-6.3,1.44-8.66,4.32-2.36,2.88-3.54,7.31-3.54,13.3v29.87h-13.93v-59.17h13.93v9.32h.23c1.27-3.22,3.18-5.75,5.76-7.57,2.57-1.82,5.66-2.73,9.27-2.73Z"/>
    <path class="cls-9" d="M1102.69,377.94v11.45c-2.3,1.46-5.32,2.64-9.04,3.54-3.72.9-7.69,1.35-11.91,1.35-9.02,0-16.03-2.67-21.03-8-5.01-5.33-7.51-12.76-7.51-22.27s2.68-16.72,8.03-22.65,12.13-8.89,20.35-8.89,14.53,2.5,19.08,7.51c4.55,5.01,6.82,11.92,6.82,20.75v6.73h-40.52c.61,5.95,2.52,10.1,5.73,12.46,3.2,2.36,7.34,3.54,12.4,3.54,3.34,0,6.52-.51,9.55-1.53,3.03-1.02,5.72-2.35,8.06-4ZM1093.76,357.28c0-4.6-1.07-8.11-3.19-10.53-2.13-2.42-5.13-3.63-9.01-3.63-3.34,0-6.33,1.2-8.98,3.6-2.65,2.4-4.41,5.92-5.29,10.56h26.47Z"/>
  </g>
  <path class="cls-9" d="M411.02,310.32v82.53h-14.33v-64.69h-.23l-25.61,64.69h-9.5l-26.24-64.69h-.17v64.69h-13.24v-82.53h20.55l23.71,61.18h.34l25.04-61.18h19.68ZM423,316.59c0-2.3.83-4.23,2.5-5.78,1.67-1.55,3.65-2.33,5.96-2.33,2.45,0,4.49.8,6.1,2.39,1.61,1.59,2.42,3.5,2.42,5.73s-.83,4.16-2.47,5.7c-1.65,1.54-3.66,2.3-6.04,2.3s-4.38-.78-6.01-2.33c-1.63-1.56-2.45-3.44-2.45-5.67ZM438.37,333.68v59.16h-13.93v-59.16h13.93ZM480.61,382.72c2.07,0,4.35-.48,6.85-1.44,2.49-.96,4.8-2.22,6.91-3.8v12.95c-2.22,1.27-4.75,2.23-7.57,2.88-2.82.65-5.92.98-9.29.98-8.71,0-15.79-2.75-21.24-8.26-5.45-5.51-8.17-12.54-8.17-21.09,0-9.52,2.78-17.35,8.35-23.51,5.56-6.16,13.45-9.24,23.65-9.24,2.61,0,5.25.34,7.91,1.01,2.67.67,4.78,1.45,6.36,2.33v13.35c-2.15-1.57-4.34-2.79-6.59-3.66-2.24-.86-4.54-1.29-6.88-1.29-5.49,0-9.92,1.78-13.29,5.35-3.38,3.57-5.07,8.38-5.07,14.45s1.62,10.65,4.86,13.99c3.24,3.34,7.65,5.01,13.21,5.01ZM534.02,332.71c1.11,0,2.11.08,2.99.23s1.63.34,2.24.58v14.1c-.73-.54-1.79-1.04-3.19-1.52-1.4-.48-3.1-.72-5.09-.72-3.42,0-6.3,1.44-8.66,4.32s-3.54,7.31-3.54,13.29v29.87h-13.93v-59.16h13.93v9.32h.23c1.27-3.22,3.18-5.74,5.76-7.57,2.57-1.82,5.66-2.73,9.27-2.73ZM540.01,364.13c0-9.78,2.76-17.53,8.29-23.25,5.53-5.72,13.2-8.58,23.02-8.58,9.25,0,16.47,2.75,21.67,8.26,5.2,5.51,7.8,12.94,7.8,22.3s-2.76,17.23-8.29,22.9c-5.53,5.68-13.05,8.52-22.56,8.52s-16.45-2.69-21.84-8.09c-5.39-5.39-8.09-12.75-8.09-22.07ZM554.51,363.67c0,6.18,1.4,10.9,4.2,14.16,2.8,3.26,6.81,4.89,12.03,4.89s8.92-1.63,11.57-4.89c2.65-3.26,3.97-8.1,3.97-14.5s-1.37-11.17-4.12-14.42c-2.74-3.24-6.59-4.86-11.54-4.86s-9.06,1.7-11.89,5.09c-2.82,3.39-4.23,8.24-4.23,14.53ZM621.5,349.22c0,2,.63,3.56,1.9,4.69,1.27,1.13,4.07,2.56,8.4,4.29,5.56,2.23,9.47,4.73,11.71,7.51,2.24,2.78,3.37,6.15,3.37,10.1,0,5.56-2.14,10.03-6.42,13.41-4.28,3.38-10.06,5.06-17.35,5.06-2.45,0-5.17-.3-8.14-.89-2.97-.59-5.5-1.35-7.57-2.27v-13.7c2.53,1.77,5.26,3.16,8.17,4.2,2.92,1.04,5.56,1.56,7.94,1.56,3.15,0,5.47-.44,6.96-1.32s2.24-2.36,2.24-4.43c0-1.92-.78-3.54-2.33-4.86s-4.5-2.85-8.83-4.58c-5.14-2.15-8.79-4.57-10.93-7.25-2.15-2.69-3.22-6.1-3.22-10.24,0-5.33,2.12-9.72,6.36-13.15,4.24-3.43,9.74-5.15,16.49-5.15,2.07,0,4.39.23,6.96.69,2.57.46,4.72,1.06,6.45,1.79v13.24c-1.84-1.23-3.99-2.28-6.45-3.17-2.46-.88-4.89-1.32-7.31-1.32-2.65,0-4.71.52-6.19,1.55-1.48,1.04-2.22,2.46-2.22,4.26ZM652.87,364.13c0-9.78,2.76-17.53,8.29-23.25,5.53-5.72,13.2-8.58,23.02-8.58,9.25,0,16.47,2.75,21.67,8.26,5.2,5.51,7.8,12.94,7.8,22.3s-2.76,17.23-8.29,22.9c-5.53,5.68-13.05,8.52-22.56,8.52s-16.45-2.69-21.84-8.09c-5.39-5.39-8.09-12.75-8.09-22.07ZM667.37,363.67c0,6.18,1.4,10.9,4.2,14.16,2.8,3.26,6.81,4.89,12.03,4.89s8.92-1.63,11.57-4.89c2.65-3.26,3.97-8.1,3.97-14.5s-1.37-11.17-4.12-14.42c-2.74-3.24-6.59-4.86-11.54-4.86s-9.06,1.7-11.89,5.09c-2.82,3.39-4.23,8.24-4.23,14.53ZM759.84,345.08h-20.74v47.77h-14.1v-47.77h-9.9v-11.39h9.9v-8.23c0-6.22,2.02-11.31,6.07-15.28,4.05-3.97,9.24-5.96,15.57-5.96,1.69,0,3.18.09,4.49.26,1.3.17,2.45.43,3.45.78v12.03c-.46-.27-1.27-.59-2.42-.98-1.15-.38-2.47-.58-3.97-.58-2.92,0-5.16.91-6.73,2.73-1.57,1.82-2.36,4.52-2.36,8.09v7.14h20.74v-13.3l13.99-4.26v17.55h14.1v11.39h-14.1v27.68c0,3.65.66,6.22,1.99,7.71,1.32,1.5,3.4,2.24,6.24,2.24.81,0,1.77-.19,2.91-.58,1.13-.38,2.12-.84,2.96-1.38v11.51c-.88.5-2.35.96-4.4,1.38-2.05.42-4.08.63-6.07.63-5.87,0-10.27-1.56-13.21-4.69-2.94-3.13-4.4-7.84-4.4-14.13v-30.39Z"/>
  <g>
    <rect class="cls-1" x="142.89" y="282.81" width="65.37" height="65.37"/>
    <rect class="cls-8" x="215.06" y="282.81" width="65.37" height="65.37"/>
    <rect class="cls-5" x="142.89" y="354.98" width="65.37" height="65.37"/>
    <rect class="cls-2" x="215.06" y="354.98" width="65.37" height="65.37"/>
  </g>
  <g>
    <rect class="cls-7" x="142.89" y="282.81" width="65.37" height="65.37"/>
    <rect class="cls-6" x="215.06" y="282.81" width="65.37" height="65.37"/>
    <rect class="cls-4" x="142.89" y="354.98" width="65.37" height="65.37"/>
    <rect class="cls-3" x="215.06" y="354.98" width="65.37" height="65.37"/>
  </g>
</svg>