<svg viewBox="0 0 48 48" fill="none" xmlns="http://www.w3.org/2000/svg">
<g clip-path="url(#clip0_24_427)">
<g clip-path="url(#clip1_24_427)">
<path d="M26.5 9.71V6.5H29.5V5.5H18.5V6.5H21.5V9.71C17.389 10.3402 13.6676 12.4996 11.0805 15.7561C8.49351 19.0127 7.23173 23.1261 7.54772 27.2731C7.86372 31.4202 9.73417 35.2949 12.7847 38.1219C15.8353 40.9489 19.841 42.5195 24 42.5195C28.1591 42.5195 32.1647 40.9489 35.2153 38.1219C38.2659 35.2949 40.1363 31.4202 40.4523 27.2731C40.7683 23.1261 39.5065 19.0127 36.9195 15.7561C34.3325 12.4996 30.6111 10.3402 26.5 9.71ZM22.5 6.5H25.5V9.57617C25.0052 9.53125 24.5064 9.5 24 9.5C23.4937 9.5 22.9949 9.53125 22.5 9.57617V6.5ZM24 41.5C20.9344 41.5 17.9377 40.5909 15.3887 38.8878C12.8397 37.1846 10.8531 34.7638 9.6799 31.9316C8.50674 29.0993 8.19979 25.9828 8.79786 22.9761C9.39593 19.9694 10.8722 17.2076 13.0399 15.0398C15.2076 12.8721 17.9694 11.3959 20.9761 10.7978C23.9828 10.1998 27.0994 10.5067 29.9316 11.6799C32.7639 12.853 35.1846 14.8397 36.8878 17.3887C38.591 19.9376 39.5 22.9344 39.5 26C39.4954 30.1094 37.8609 34.0493 34.9551 36.9551C32.0493 39.8609 28.1095 41.4954 24 41.5ZM27.7461 16.3398L24.114 24.5117C24.0757 24.5088 24.039 24.5 24 24.5C23.6487 24.4978 23.3075 24.6182 23.0354 24.8404C22.7632 25.0627 22.5772 25.373 22.5092 25.7177C22.4413 26.0625 22.4957 26.4201 22.6632 26.729C22.8306 27.038 23.1006 27.2788 23.4265 27.41C23.7525 27.5413 24.114 27.5547 24.4488 27.448C24.7836 27.3413 25.0707 27.1212 25.2606 26.8256C25.4505 26.5299 25.5313 26.1773 25.4891 25.8285C25.447 25.4796 25.2845 25.1564 25.0296 24.9146L28.6602 16.7461L27.7461 16.3398ZM24 26.5C23.8674 26.5 23.7402 26.4473 23.6465 26.3536C23.5527 26.2598 23.5 26.1326 23.5 26C23.5 25.8674 23.5527 25.7402 23.6465 25.6464C23.7402 25.5527 23.8674 25.5 24 25.5C24.066 25.5001 24.1313 25.5133 24.192 25.5391L24.1971 25.5411C24.3029 25.5864 24.3898 25.6669 24.4431 25.7689C24.4964 25.8709 24.5129 25.9882 24.4897 26.1009C24.4665 26.2137 24.4051 26.3149 24.3159 26.3876C24.2267 26.4604 24.1151 26.5 24 26.5ZM37.4728 25.4629C37.3474 22.2345 36.0624 19.1595 33.8535 16.8018L33.8735 16.7818L33.1665 16.0742L33.1439 16.0972C30.7746 13.9004 27.6926 12.6316 24.4634 12.5235V12.5H23.4634V12.5273C20.2349 12.6526 17.1597 13.9375 14.8018 16.1465L14.7818 16.1265L14.0748 16.8335L14.0973 16.8559C11.9004 19.2255 10.6316 22.3077 10.5235 25.5371H10.5V26.5371H10.5272C10.6527 29.7655 11.9376 32.8405 14.1465 35.1982L14.1265 35.2182L14.8335 35.9257L14.8562 35.9027C17.2255 38.0995 20.3074 39.3684 23.5366 39.4765V39.5H24.5366V39.4727C27.7652 39.3474 30.8403 38.0625 33.1982 35.8535L33.2182 35.8735L33.9252 35.1665L33.9028 35.1441C36.0996 32.7745 37.3685 29.6923 37.4765 26.4629H37.5V25.4629L37.4728 25.4629ZM33.1962 34.437L31.8042 33.0449L31.0972 33.7519L32.4915 35.1464C30.3216 37.1687 27.5002 38.3484 24.5366 38.4726V36.5H23.5366V38.4766C20.5726 38.3693 17.7445 37.2058 15.563 35.1963L16.9551 33.8042L16.2481 33.0972L14.8533 34.4917C12.8316 32.3216 11.652 29.5004 11.5271 26.5371H13.5V25.5371H11.5235C11.6307 22.5729 12.7942 19.7446 14.8039 17.563L16.1959 18.9551L16.9029 18.2481L15.5086 16.8536C17.6785 14.8313 20.4999 13.6516 23.4634 13.5274V15.5H24.4634V13.5234C27.4275 13.6307 30.2555 14.7942 32.437 16.8037L31.0449 18.1958L31.7519 18.9028L33.1467 17.5083C35.1684 19.6784 36.3481 22.4996 36.4729 25.4629H34.5V26.4629H36.4766C36.3694 29.4271 35.2059 32.2554 33.1962 34.437Z" fill="currentColor"/>
</g>
</g>
<defs>
<clipPath id="clip0_24_427">
<rect width="48" height="48" fill="currentColor"/>
</clipPath>
<clipPath id="clip1_24_427">
<rect width="48" height="48" fill="currentColor"/>
</clipPath>
</defs>
</svg>