<?xml version="1.0" encoding="UTF-8"?>
<svg id="PASTE_LOGO_HERE" data-name="PASTE LOGO HERE" xmlns="http://www.w3.org/2000/svg" viewBox="0 0 1250 703">
  <defs>
    <style>
      .cls-1 {
        fill: #21294f;
      }

      .cls-2 {
        fill: #70db4d;
      }
    </style>
  </defs>
  <g id="Artwork">
    <path class="cls-2" d="M207.23,311.11c0-3.02.48-6.03,1.75-8.73,3.81-8.41,11.91-10.8,14.61-11.43,3.33-.79,15.08-2.38,22.7,9.05l11.75,17.46-50.8,43.98v-50.33ZM378.21,425.73l-76.84-103.03,80.17-67.79h-48.58l-49.37,41.59-10-14.92c-6.51-9.68-15.56-16.83-26.2-20.64-9.84-3.65-20.48-4.29-30.8-1.91-10.32,2.38-19.69,7.46-26.99,14.92-7.94,8.1-13.97,21.43-14.61,29.85-.16,1.91-.16,4.6-.16,4.6l-.16,3.65v110.18c0,5.08,6.03,7.78,9.84,4.45l92.24-81.92,60.01,81.13h41.44v-.16Z"/>
    <g>
      <path class="cls-1" d="M424.41,288.72h26.99v60.33l48.9-60.33h32.55l-51.28,61.6,55.88,75.25h-32.7l-40.48-54.3-12.86,15.24v39.21h-26.99v-137.01Z"/>
      <path class="cls-1" d="M549.35,283.16h26.2v54.45c6.99-10.8,17.94-14.13,29.37-14.13,22.38,0,38.58,14.13,38.58,38.58v63.5h-26.83v-54.77c0-14.29-7.14-22.38-19.37-22.38-11.43,0-21.11,7.62-21.11,22.54v54.61h-26.83v-142.41Z"/>
      <path class="cls-1" d="M653.81,376.2c0-31.43,25.56-52.71,48.74-52.71,15.88,0,24.93,4.92,30.96,14.13v-12.22h26.2v100.18h-26.83v-10.32c-6.99,7.62-15.56,12.22-30.32,12.22-22.86,0-48.74-20-48.74-51.28ZM707,402.71c15.4,0,27.78-12.38,27.78-26.51,0-15.24-12.38-27.62-27.78-27.62s-27.62,12.38-27.62,27.78c-.16,13.81,12.38,26.35,27.62,26.35Z"/>
      <path class="cls-1" d="M771.61,401.12l48.58-52.39h-48.58v-23.34h80.33v23.65l-48.26,53.18h48.26v23.34h-80.33v-24.45Z"/>
      <path class="cls-1" d="M864.01,325.39h26.2v12.22c6.99-10.8,17.94-14.13,29.37-14.13,22.38,0,38.58,14.13,38.58,38.58v63.5h-26.83v-54.77c0-14.29-7.14-22.38-19.37-22.38-11.43,0-21.11,7.62-21.11,22.54v54.61h-26.83v-100.18h0Z"/>
      <path class="cls-1" d="M968.79,376.2c0-31.43,25.56-52.71,48.74-52.71,15.88,0,24.93,4.92,30.96,14.13v-12.22h26.2v100.18h-26.83v-10.32c-6.99,7.62-15.56,12.22-30.32,12.22-22.86,0-48.74-20-48.74-51.28ZM1021.82,402.71c15.4,0,27.78-12.38,27.78-26.51,0-15.24-12.38-27.62-27.78-27.62s-27.62,12.38-27.62,27.78c0,13.81,12.54,26.35,27.62,26.35Z"/>
    </g>
  </g>
</svg>