<svg id="LOGO" xmlns="http://www.w3.org/2000/svg" viewBox="0 0 1250 703">
  <defs>
    <style>
      .cls-1 {
        fill: #7f8385;
      }

      .cls-2 {
        fill: #293133;
      }

      .cls-3 {
        fill: #757a7b;
      }

      .cls-4 {
        fill: #d03439;
      }
    </style>
  </defs>
  <g>
    <g>
      <path class="cls-1" d="M438.59367,432.98655v5.284H417.36805V404.66814h6.10453v28.31841Z"/>
      <path class="cls-1" d="M443.24919,438.27053V404.66814H464.816v5.19046H449.35371v8.29071h13.76557v5.09226H449.35371v9.8385H465.9799v5.19046Z"/>
      <path class="cls-1" d="M494.72165,438.27053q-.6801-1.985-1.41161-3.92792c-.48612-1.2906-.95354-2.61861-1.40694-3.97467H477.71686q-.6801,2.03409-1.38825,3.99805c-.46742,1.30931-.93017,2.61394-1.38356,3.90454h-6.34759q1.886-5.37984,3.58045-9.94137,1.69674-4.55217,3.31869-8.62739,1.61962-4.07522,3.22054-7.76231,1.59858-3.68243,3.29065-7.27132h5.83342q1.69674,3.59123,3.29532,7.27132,1.59858,3.68943,3.22053,7.76231,1.62663,4.0682,3.34674,8.62739,1.71779,4.55919,3.6085,9.94137Zm-9.914-27.10263q-1.1148,2.56718-2.54277,6.25194-1.43031,3.68943-2.98215,8.00079h11.04984q-1.5495-4.3137-3.00084-8.04755Q485.87336,413.64156,484.80764,411.1679Z"/>
      <path class="cls-1" d="M534.02713,421.446a19.44062,19.44062,0,0,1-1.36019,7.5893,14.359,14.359,0,0,1-3.85156,5.38218,16.09234,16.09234,0,0,1-6.011,3.19845,27.21886,27.21886,0,0,1-7.77789,1.04277c-1.35553,0-2.89334-.05612-4.60411-.16834a31.37431,31.37431,0,0,1-4.8939-.70609V405.15445a29.0107,29.0107,0,0,1,4.94065-.678c1.74815-.0982,3.29532-.145,4.65552-.145a27.99628,27.99628,0,0,1,7.7031.99133,15.87422,15.87422,0,0,1,5.98767,3.10492,13.88481,13.88481,0,0,1,3.85156,5.33075A19.72269,19.72269,0,0,1,534.02713,421.446ZM511.633,433.2297c.35524.03274.82266.05612,1.40693.07014.57961.01871,1.37422.02338,2.37451.02338q6.15594,0,9.18483-3.12362,3.02889-3.12831,3.02889-8.75365,0-5.72353-2.9541-8.777-2.95878-3.05115-9.16146-3.05349a35.27045,35.27045,0,0,0-3.8796.145Z"/>
      <path class="cls-1" d="M540.72061,404.66814h6.10453v33.60239h-6.10453Z"/>
      <path class="cls-1" d="M577.502,438.27053q-1.64768-2.76357-3.68329-5.93864-2.03328-3.1774-4.21614-6.40157-2.18052-3.2265-4.43583-6.25661-2.25063-3.03011-4.29093-5.45232v24.04914h-6.00637V404.66814h4.99207q1.93512,2.03409,4.16472,4.82572,2.2296,2.78462,4.48725,5.79368,2.25063,3.00906,4.361,6.03683,2.11041,3.03012,3.7534,5.64872v-22.305h6.06246v33.60239Z"/>
      <path class="cls-1" d="M606.43541,409.27409q-5.18136,0-7.92279,3.2265t-2.73909,8.94536a17.86645,17.86645,0,0,0,.65439,4.97069,10.952,10.952,0,0,0,1.9398,3.8531,8.85959,8.85959,0,0,0,3.19716,2.497,10.463,10.463,0,0,0,4.48257.89781,27.50712,27.50712,0,0,0,2.76246-.12158,11.35511,11.35511,0,0,0,1.84164-.3133V421.156h6.1092v16.14655a28.426,28.426,0,0,1-4.26755,1.06615,36.69391,36.69391,0,0,1-6.92719.57983,18.24455,18.24455,0,0,1-6.64206-1.16434,13.719,13.719,0,0,1-5.1136-3.39485,15.36052,15.36052,0,0,1-3.27195-5.4757,22.09086,22.09086,0,0,1-1.16388-7.46772,20.20988,20.20988,0,0,1,1.28541-7.46772,16.18869,16.18869,0,0,1,3.515-5.50376,14.79859,14.79859,0,0,1,5.23513-3.41822,17.53869,17.53869,0,0,1,6.39432-1.16435,24.39251,24.39251,0,0,1,4.146.318,28.56384,28.56384,0,0,1,3.127.70141,12.53548,12.53548,0,0,1,2.15482.823c.56558.28992.96288.50035,1.18725.63128l-1.84164,4.99406a14.82969,14.82969,0,0,0-3.6085-1.47764A16.58711,16.58711,0,0,0,606.43541,409.27409Z"/>
      <path class="cls-1" d="M635.1351,438.27053V404.66814h21.56683v5.19046H641.23962v8.29071h13.76557v5.09226H641.23962v9.8385h16.62619v5.19046Z"/>
      <path class="cls-1" d="M692.03433,421.446a19.44061,19.44061,0,0,1-1.3602,7.5893,14.35882,14.35882,0,0,1-3.85155,5.38218,16.09231,16.09231,0,0,1-6.01105,3.19845,27.21886,27.21886,0,0,1-7.77789,1.04277c-1.35552,0-2.89334-.05612-4.6041-.16834a31.37427,31.37427,0,0,1-4.89391-.70609V405.15445a29.01084,29.01084,0,0,1,4.94065-.678c1.74816-.0982,3.29532-.145,4.65552-.145a27.9964,27.9964,0,0,1,7.70311.99133,15.8743,15.8743,0,0,1,5.98767,3.10492,13.88468,13.88468,0,0,1,3.85155,5.33075A19.72268,19.72268,0,0,1,692.03433,421.446ZM669.64016,433.2297c.35524.03274.82266.05612,1.40694.07014.5796.01871,1.37422.02338,2.3745.02338q6.15594,0,9.18483-3.12362,3.02889-3.12831,3.0289-8.75365,0-5.72353-2.95411-8.777-2.95878-3.05115-9.16146-3.05349a35.27045,35.27045,0,0,0-3.8796.145Z"/>
      <path class="cls-1" d="M714.42382,409.27409q-5.18136,0-7.9228,3.2265t-2.73909,8.94536a17.86682,17.86682,0,0,0,.65439,4.97069,10.95238,10.95238,0,0,0,1.9398,3.8531,8.85971,8.85971,0,0,0,3.19717,2.497,10.463,10.463,0,0,0,4.48257.89781,27.50712,27.50712,0,0,0,2.76246-.12158,11.35511,11.35511,0,0,0,1.84164-.3133V421.156h6.1092v16.14655a28.42623,28.42623,0,0,1-4.26756,1.06615,36.69372,36.69372,0,0,1-6.92718.57983,18.24451,18.24451,0,0,1-6.64206-1.16434,13.719,13.719,0,0,1-5.1136-3.39485,15.36037,15.36037,0,0,1-3.272-5.4757,22.09086,22.09086,0,0,1-1.16388-7.46772,20.20988,20.20988,0,0,1,1.28541-7.46772,16.18869,16.18869,0,0,1,3.515-5.50376,14.79864,14.79864,0,0,1,5.23512-3.41822,17.53879,17.53879,0,0,1,6.39433-1.16435,24.39251,24.39251,0,0,1,4.146.318,28.56384,28.56384,0,0,1,3.127.70141,12.53534,12.53534,0,0,1,2.15481.823c.56558.28992.96289.50035,1.18726.63128l-1.84165,4.99406a14.82961,14.82961,0,0,0-3.60849-1.47764A16.58711,16.58711,0,0,0,714.42382,409.27409Z"/>
      <path class="cls-1" d="M731.82593,438.27053V404.66814h21.56683v5.19046H737.93045v8.29071H751.696v5.09226H737.93045v9.8385h16.62619v5.19046Z"/>
      <path class="cls-1" d="M786.44414,439a18.63786,18.63786,0,0,1-6.78229-1.16435,13.42627,13.42627,0,0,1-5.09022-3.41822,15.2779,15.2779,0,0,1-3.19716-5.50376,22.85207,22.85207,0,0,1-1.11714-7.46772,20.20988,20.20988,0,0,1,1.28541-7.46772,16.18869,16.18869,0,0,1,3.515-5.50376,14.77992,14.77992,0,0,1,5.23045-3.41822,17.71208,17.71208,0,0,1,6.45041-1.16435,20.70324,20.70324,0,0,1,3.77677.318,27.33255,27.33255,0,0,1,2.95878.70141,12.17082,12.17082,0,0,1,2.0847.823q.82032.43488,1.16388.63128l-1.7949,4.99406a14.17137,14.17137,0,0,0-3.31869-1.37944,15.9616,15.9616,0,0,0-4.67889-.65466,10.93879,10.93879,0,0,0-4.07125.74818,8.85709,8.85709,0,0,0-3.272,2.25387,10.48821,10.48821,0,0,0-2.15481,3.783,16.35761,16.35761,0,0,0-.77592,5.284,18.73967,18.73967,0,0,0,.603,4.90054,10.84768,10.84768,0,0,0,1.86969,3.8531,8.38084,8.38084,0,0,0,3.19716,2.52041,10.98837,10.98837,0,0,0,4.65085.89781,17.58774,17.58774,0,0,0,5.28654-.65465,20.89385,20.89385,0,0,0,3.15042-1.23449l1.64532,4.99407a8.65676,8.65676,0,0,1-1.57521.77623,22.084,22.084,0,0,1-2.35113.74817,23.04222,23.04222,0,0,1-3.05226.58451A28.62382,28.62382,0,0,1,786.44414,439Z"/>
      <path class="cls-1" d="M832.77964,421.446a20.90385,20.90385,0,0,1-1.28074,7.61268,15.79536,15.79536,0,0,1-3.49163,5.50376,14.465,14.465,0,0,1-5.16034,3.32A17.71012,17.71012,0,0,1,816.54609,439a17.89458,17.89458,0,0,1-6.32422-1.11759,14.37445,14.37445,0,0,1-5.18838-3.32,16.04545,16.04545,0,0,1-3.515-5.50376,22.72641,22.72641,0,0,1,0-15.202,15.99774,15.99774,0,0,1,3.56176-5.50376,14.71757,14.71757,0,0,1,5.21175-3.34341,18.04486,18.04486,0,0,1,12.50352,0,14.25226,14.25226,0,0,1,5.165,3.34341,16.308,16.308,0,0,1,3.51034,5.50376A20.32469,20.32469,0,0,1,832.77964,421.446Zm-26.21768,0a17.32586,17.32586,0,0,0,.67776,5.01745,10.98258,10.98258,0,0,0,1.96318,3.82972,8.899,8.899,0,0,0,3.12705,2.45027,10.2549,10.2549,0,0,0,8.28738,0,8.98343,8.98343,0,0,0,3.127-2.45027,10.98273,10.98273,0,0,0,1.96317-3.82972,18.91091,18.91091,0,0,0,0-10.03489,11.04711,11.04711,0,0,0-1.96317-3.8344,8.97054,8.97054,0,0,0-3.127-2.44559,10.2549,10.2549,0,0,0-8.28738,0,8.75385,8.75385,0,0,0-3.12705,2.47365,11.32155,11.32155,0,0,0-1.96318,3.82972A17.0949,17.0949,0,0,0,806.562,421.446Z"/>
      <path class="cls-1" d="M846.81631,404.66814q1.06572,1.84471,2.3745,4.50775,1.30411,2.67238,2.6643,5.602,1.3532,2.9319,2.68768,5.96669,1.33916,3.03011,2.44929,5.59728,1.1148-2.56717,2.42592-5.59728,1.3041-3.0301,2.6643-5.96669c.90212-1.95461,1.7949-3.82037,2.6643-5.602q1.31112-2.66538,2.3745-4.50775h5.50623q.44172,3.68943.83668,7.83245.39264,4.14535.71516,8.48243.32251,4.34175.59363,8.73026.26643,4.39086.46742,8.55725h-6.011q-.19632-5.86382-.46743-12.07367-.27343-6.20751-.81331-12.02691c-.35991.74818-.77592,1.63664-1.262,2.67005s-1.00028,2.15568-1.55184,3.36679c-.54688,1.21578-1.10779,2.469-1.67337,3.75958-.56558,1.29527-1.11246,2.54379-1.64532,3.75957-.53286,1.21111-1.02833,2.34273-1.477,3.39485q-.6801,1.57116-1.16388,2.68875h-4.55736q-.48378-1.11525-1.16388-2.71681c-.4534-1.06615-.94419-2.20244-1.47706-3.41822q-.79929-1.81667-1.65-3.75491-.84837-1.94291-1.6687-3.73619c-.55156-1.19241-1.06572-2.31934-1.55184-3.36679-.48612-1.05212-.9068-1.93122-1.262-2.64667q-.53987,5.82174-.81331,12.02691-.27343,6.20751-.4721,12.07367H838.5523q.19631-4.1664.46742-8.63207.27343-4.461.59362-8.84716.31551-4.39084.71516-8.51049.39263-4.11729.83668-7.61267Z"/>
      <path class="cls-1" d="M891.815,404.33146q7.31982,0,11.22279,2.66537,3.89829,2.66537,3.89829,8.33747a11.32226,11.32226,0,0,1-1.04235,5.06888,8.69651,8.69651,0,0,1-3.02889,3.44161,14.0514,14.0514,0,0,1-4.84716,1.964,30.51894,30.51894,0,0,1-6.5439.63127h-3.05226v11.83051H882.317V405.15445a30.24336,30.24336,0,0,1,4.72563-.65465C888.7674,404.38757,890.36131,404.33146,891.815,404.33146Zm.4347,5.284c-1.54717,0-2.8279.04676-3.82818.145v11.4424h2.95877a14.99171,14.99171,0,0,0,6.78229-1.23449q2.37684-1.2415,2.3745-4.68077a5.59356,5.59356,0,0,0-.62634-2.76357,4.54131,4.54131,0,0,0-1.74816-1.74418,8.171,8.171,0,0,0-2.64093-.89781A18.99927,18.99927,0,0,0,892.24969,409.61544Z"/>
      <path class="cls-1" d="M925.45064,439a15.80547,15.80547,0,0,1-5.91288-.996,10.94818,10.94818,0,0,1-4.09461-2.78695,11.31665,11.31665,0,0,1-2.39788-4.21783,17.39229,17.39229,0,0,1-.77592-5.33542V404.66814h6.15595V425.084a13.04634,13.04634,0,0,0,.50949,3.89986,6.74125,6.74125,0,0,0,1.45368,2.642,5.70217,5.70217,0,0,0,2.2296,1.50571,8.10982,8.10982,0,0,0,2.884.48631,8.335,8.335,0,0,0,2.90736-.48631,5.74934,5.74934,0,0,0,2.253-1.50571,6.80073,6.80073,0,0,0,1.45369-2.642,13.04669,13.04669,0,0,0,.50948-3.89986V404.66814h6.156v20.99565a16.96845,16.96845,0,0,1-.79929,5.33542,11.63711,11.63711,0,0,1-2.42592,4.21783,10.83577,10.83577,0,0,1-4.14136,2.78695A16.20845,16.20845,0,0,1,925.45064,439Z"/>
      <path class="cls-1" d="M969.99592,404.66814v5.284H959.67058v28.31841h-6.15594V409.95212H943.194v-5.284Z"/>
      <path class="cls-1" d="M974.64677,404.66814h6.10452v33.60239h-6.10452Z"/>
      <path class="cls-1" d="M1011.43284,438.27053q-1.64766-2.76357-3.68328-5.93864-2.03328-3.1774-4.21614-6.40157-2.18052-3.2265-4.43583-6.25661-2.25064-3.03011-4.29093-5.45232v24.04914h-6.00637V404.66814h4.99206q1.93513,2.03409,4.16473,4.82572,2.2296,2.78462,4.48725,5.79368,2.25063,3.00906,4.361,6.03683,2.11041,3.03012,3.7534,5.64872v-22.305h6.06245v33.60239Z"/>
      <path class="cls-1" d="M1040.36624,409.27409q-5.18137,0-7.9228,3.2265t-2.73909,8.94536a17.86682,17.86682,0,0,0,.65439,4.97069,10.95238,10.95238,0,0,0,1.9398,3.8531,8.85963,8.85963,0,0,0,3.19717,2.497,10.463,10.463,0,0,0,4.48257.89781,27.50712,27.50712,0,0,0,2.76246-.12158,11.35511,11.35511,0,0,0,1.84164-.3133V421.156h6.1092v16.14655a28.42623,28.42623,0,0,1-4.26756,1.06615,36.69372,36.69372,0,0,1-6.92718.57983,18.24451,18.24451,0,0,1-6.64206-1.16434,13.719,13.719,0,0,1-5.1136-3.39485,15.36037,15.36037,0,0,1-3.272-5.4757,22.09086,22.09086,0,0,1-1.16388-7.46772,20.20988,20.20988,0,0,1,1.28541-7.46772,16.18869,16.18869,0,0,1,3.515-5.50376,14.79855,14.79855,0,0,1,5.23512-3.41822,17.53875,17.53875,0,0,1,6.39433-1.16435,24.39251,24.39251,0,0,1,4.146.318,28.56384,28.56384,0,0,1,3.12705.70141,12.53534,12.53534,0,0,1,2.15481.823c.56558.28992.96289.50035,1.18726.63128l-1.84165,4.99406a14.82961,14.82961,0,0,0-3.60849-1.47764A16.58711,16.58711,0,0,0,1040.36624,409.27409Z"/>
      <g>
        <path class="cls-2" d="M496.09066,261H468.211l-50.84292,83.45653H447.7422s30.08088-52.84429,34.41346-60.45221c4.35149,7.60088,34.60736,60.45221,34.60736,60.45221h30.15407Z"/>
        <polygon class="cls-1" points="468.102 314.522 496.399 314.522 482.148 335.085 468.102 314.522"/>
        <path class="cls-2" d="M607.24875,261H557.46159v83.45653h49.78716c48.28205,0,58.42179-22.74609,58.42179-41.83274C665.67054,283.63445,655.5308,261,607.24875,261ZM585.302,277.39633h12.87221c26.80963.43613,38.58487,2.9556,38.58487,25.22746,0,22.559-11.17635,24.986-38.6251,25.44564H585.302Z"/>
        <path class="cls-2" d="M703.45075,327.42724V261H675.42928v83.45653H766.9897V327.42724Z"/>
        <polygon class="cls-2" points="803.93 261 778.789 261 778.789 344.457 806.82 344.457 806.82 261 803.93 261"/>
        <polygon class="cls-2" points="960.577 261 935.218 261 935.218 344.457 963.465 344.457 963.465 261 960.577 261"/>
        <path class="cls-2" d="M895.35062,261v50.68475C887.199,303.21889,846.54042,261,846.54042,261H820.17121v83.45653h26.29631V293.58418c8.16078,8.50639,48.80506,50.87235,48.80506,50.87235h26.59416V261Z"/>
        <path class="cls-2" d="M997.73472,295.75756C1002.78108,292.14084,1046.22039,261,1046.22039,261H1010.2841l-44.98269,35.95213,46.727,47.5044h38.66316S1002.433,300.08539,997.73472,295.75756Z"/>
      </g>
      <rect class="cls-3" x="417.36867" y="385.58254" width="633.32516" height="2.151"/>
    </g>
    <g>
      <path class="cls-4" d="M199.30617,438.27053c52.41035-50.14935,116.12978-50.14935,168.67774,0l-34.72237-72.89059-104.28505,10.5043Z"/>
      <polygon class="cls-4" points="234.827 363.65 332.329 363.65 324.887 347.82 237.356 358.459 234.827 363.65"/>
      <polygon class="cls-4" points="243.337 345.689 323.819 345.689 316.639 330.388 245.867 340.503 243.337 345.689"/>
      <polygon class="cls-4" points="251.852 327.863 315.436 327.863 283.647 261.22 251.852 327.863"/>
    </g>
    <g>
      <path class="cls-2" d="M368.06788,426.51729a11.75348,11.75348,0,1,0,11.76416-11.744A11.76864,11.76864,0,0,0,368.06788,426.51729Zm1.85108,0a9.90653,9.90653,0,1,1,9.91308,9.91163A9.91624,9.91624,0,0,1,369.919,426.51729Z"/>
      <path class="cls-2" d="M375.07755,432.86681V420.54687H380.299a9.18272,9.18272,0,0,1,2.87139.32935,2.83406,2.83406,0,0,1,1.42441,1.171,3.56,3.56,0,0,1,.53563,1.94572,3.31162,3.31162,0,0,1-.80333,2.28721,3.92589,3.92589,0,0,1-2.43647,1.13753,5.50547,5.50547,0,0,1,1.33315,1.03827,13.82832,13.82832,0,0,1,1.41373,2.00034l1.51081,2.41049h-2.97793l-1.79647-2.683a18.17368,18.17368,0,0,0-1.312-1.81321,1.86657,1.86657,0,0,0-.74777-.51428,4.42649,4.42649,0,0,0-1.255-.14222h-.50482v5.15276Zm2.47675-7.12713H379.384a10.54463,10.54463,0,0,0,2.25056-.14222,1.38461,1.38461,0,0,0,.69921-.52374,1.74222,1.74222,0,0,0-.08543-1.91976,1.55558,1.55558,0,0,0-.93852-.47642c-.19562-.02354-.80576-.0449-1.80374-.0449h-1.9518Z"/>
    </g>
  </g>
</svg>
