<svg id="LOGO" xmlns="http://www.w3.org/2000/svg" viewBox="0 0 1250 703">
  <defs>
    <style>
      .cls-1 {
        fill: #edb111;
      }

      .cls-2 {
        fill: #00928f;
      }
    </style>
  </defs>
  <g>
    <g>
      <g>
        <path class="cls-1" d="M483.4378,330.359q6.8205,4.06892,18.97871,4.06766a62.0238,62.0238,0,0,0,17.52851-2.25868q7.6614-2.25961,18.30736-8.50969l5.88308-28.62586H511.49577l-2.86719,13.95779h14.14724l-1.30457,6.33448a46.14952,46.14952,0,0,1-8.069,3.44508,24.4889,24.4889,0,0,1-6.96281,1.00693q-7.45569,0-10.66339-4.67026-3.21177-4.6701-.969-15.57409,2.1108-10.25958,7.21746-14.99959a17.14666,17.14666,0,0,1,12.0672-4.74307q4.67034,0,7.26876,2.01148a8.319,8.319,0,0,1,3.08207,5.81044l21.04387-3.56835a22.09511,22.09511,0,0,0-3.37313-10.67982,16.53943,16.53943,0,0,0-8.03594-6.21781q-5.2009-2.00412-16.52158-2.00488-11.739,0-19.34579,3.2458A39.83379,39.83379,0,0,0,482.16962,280.705a45.71042,45.71042,0,0,0-8.53372,19.07945q-2.14026,10.42186.41668,18.46449A20.92875,20.92875,0,0,0,483.4378,330.359Z"/>
        <path class="cls-1" d="M595.78365,327.18189a30.555,30.555,0,0,0,11.33305-18.33141q2.04855-9.95073-2.65557-16.75473-5.84829-8.44135-20.69827-8.44434-12.98882,0-22.09872,7.19021A30.48425,30.48425,0,0,0,550.27,309.12918q-2.44806,11.91244,5.0712,19.26214,6.13123,5.94022,18.051,5.93692Q586.75076,334.32824,595.78365,327.18189Zm-25.80911-8.52865q-2.02647-3.10281-.69454-9.58772,1.312-6.38925,4.64639-9.52085a10.65062,10.65062,0,0,1,7.46382-3.12592,6.60918,6.60918,0,0,1,5.9061,3.08207q2.00669,3.083.716,9.38183-1.39153,6.75878-4.63809,9.81766a10.43411,10.43411,0,0,1-7.33311,3.05651A6.76612,6.76612,0,0,1,569.97454,318.65324Z"/>
        <polygon class="cls-1" points="639.75 333.239 670.72 284.741 651.595 284.741 635.348 315.473 632.036 284.741 612.312 284.741 622.939 333.239 639.75 333.239"/>
        <path class="cls-1" d="M667.19261,322.982a16.72322,16.72322,0,0,0,7.57134,8.63042q5.08711,2.71448,14.92763,2.71584,11.32983,0,18.0429-3.17384a35.72131,35.72131,0,0,0,12.5086-10.48392l-18.34715-1.6825a16.84694,16.84694,0,0,1-3.94356,3.07547,12.61686,12.61686,0,0,1-5.60522,1.37654q-4.43466,0-6.53631-3.14168-1.51521-2.18874-1.10614-6.65684h38.09625l.43328-2.10325q1.96932-9.601-.01659-15.58984a16.03542,16.03542,0,0,0-7.50022-9.14208q-5.51355-3.15488-16.1479-3.15489-13.11528,0-22.00118,7.0297a30.551,30.551,0,0,0-11.22553,18.4Q664.69836,317.07242,667.19261,322.982Zm22.93716-24.81047a10.79712,10.79712,0,0,1,7.97482-3.53431q3.92621,0,5.85328,2.34046,1.92462,2.34495,1.374,7.75572H686.58479A15.96176,15.96176,0,0,1,690.12977,298.17151Z"/>
        <path class="cls-1" d="M750.06855,316.99479q2.39346-11.63867,6.19886-15.88089a8.272,8.272,0,0,1,6.40068-3.01181,13.17825,13.17825,0,0,1,5.035,1.36656l8.60129-13.266a17.46242,17.46242,0,0,0-8.65919-2.55128,13.264,13.264,0,0,0-7.13975,1.94206q-3.12516,1.94191-6.75116,7.10827l1.63526-7.96076H737.598l-9.96886,48.49754h19.09943Z"/>
        <path class="cls-1" d="M807.76186,333.23852h19.09942l6.33448-30.82q1.97441-9.59237-1.53282-14.17858-3.50436-4.58982-11.37588-4.58848a24.25527,24.25527,0,0,0-10.30123,2.07516,35.17913,35.17913,0,0,0-9.43314,6.90575l1.62375-7.89134H784.48589L774.517,333.23852h18.99682l4.79016-23.29831q1.36152-6.62241,4.02127-9.18274a8.56558,8.56558,0,0,1,6.09639-2.55785q3.10764,0,4.438,1.89821,1.32448,1.89362.38858,6.46349Z"/>
        <path class="cls-1" d="M862.33177,308.47511q1.13857-5.52828,3.7336-7.95162a8.37554,8.37554,0,0,1,5.86327-2.4214,4.75524,4.75524,0,0,1,3.27224,1.12105,4.55172,4.55172,0,0,1,1.493,2.9456,16.55415,16.55415,0,0,1-.51743,4.33873l-5.49788,26.731H889.6754l5.16382-25.10392q1.07889-5.26818,3.60966-7.649a8.296,8.296,0,0,1,5.86649-2.38347,4.50814,4.50814,0,0,1,4.20972,2.51977q.96738,1.60614.29105,4.901l-5.69954,27.71562h18.99685l6.26182-30.45381q2.0262-9.86133-1.48153-14.49774-3.50967-4.63681-11.45528-4.63556a23.94179,23.94179,0,0,0-9.415,1.70808,37.9725,37.9725,0,0,0-9.45633,6.45181,11.50876,11.50876,0,0,0-4.38666-6.10708q-3.02586-2.0511-8.947-2.05281a24.15521,24.15521,0,0,0-9.77194,1.86925,32.81786,32.81786,0,0,0-9.00664,6.29064l1.4519-7.07032H848.21432l-9.97208,48.49754h18.99683Z"/>
        <path class="cls-1" d="M959.42269,334.32824q11.32957,0,18.04781-3.17384a35.75972,35.75972,0,0,0,12.50691-10.48392l-18.34868-1.6825a16.81915,16.81915,0,0,1-3.94524,3.07547,12.59832,12.59832,0,0,1-5.602,1.37654q-4.43211,0-6.53951-3.14168-1.5104-2.18874-1.10446-6.65684h38.09456l.43311-2.10325q1.97441-9.601-.0147-15.58984a16.04854,16.04854,0,0,0-7.50025-9.14208q-5.50872-3.15488-16.14959-3.15489-13.11045,0-21.99963,7.0297a30.57612,30.57612,0,0,0-11.22708,18.4q-1.64448,7.99134.84981,13.9009A16.725,16.725,0,0,0,944.5,331.6124Q949.582,334.32688,959.42269,334.32824Zm.43991-36.15673a10.80092,10.80092,0,0,1,7.97293-3.53431q3.92621,0,5.85517,2.34046,1.922,2.34495,1.37228,7.75572H956.31573A15.9819,15.9819,0,0,1,959.8626,298.17151Z"/>
        <path class="cls-1" d="M1020.94712,309.94021q1.35928-6.62241,4.01958-9.18274a8.5672,8.5672,0,0,1,6.09811-2.55785q3.10764,0,4.43627,1.89821,1.327,1.89362.38858,6.46349l-5.48465,26.6772h19.09771l6.33464-30.82q1.9767-9.59237-1.53113-14.17858-3.5046-4.58982-11.37774-4.58848a24.266,24.266,0,0,0-10.30122,2.07516,35.15007,35.15007,0,0,0-9.43145,6.90575l1.62205-7.89134h-17.69052l-9.96888,48.49754H1016.157Z"/>
        <path class="cls-1" d="M1090.80346,298.30036h10.40874L1104,284.741H1093.593l3.78321-18.41319-20.95632,9.52406-1.82541,8.88913h-6.9711l-2.78947,13.55938h6.97278l-3.51194,17.07813q-1.6717,8.12771-.8119,11.75955a8.21381,8.21381,0,0,0,3.84436,5.40933q2.98873,1.78088,10.05975,1.78087a67.28574,67.28574,0,0,0,13.43782-1.50641l1.24346-12.8425a23.66212,23.66212,0,0,1-6.10471,1.18386q-2.32387,0-2.93646-1.55026-.397-1.00447.23975-4.10881Z"/>
      </g>
      <g>
        <polygon class="cls-1" points="697.99 353.433 695.388 366.102 714.385 366.102 716.987 353.433 697.99 353.433"/>
        <polygon class="cls-1" points="785.423 366.102 804.422 366.102 807.023 353.433 788.026 353.433 785.423 366.102"/>
        <polygon class="cls-1" points="859.529 366.102 878.526 366.102 881.129 353.433 862.13 353.433 859.529 366.102"/>
        <g>
          <path class="cls-1" d="M452.17534,353.43343l-39.381,66.9065h21.54658l5.721-11.0833h23.873l1.13764,11.0833H487.168l-11.915-66.9065Zm-4.65773,41.37337,12.40431-24.04161,2.50673,24.04161Z"/>
          <path class="cls-1" d="M519.03071,386.80727a11.89965,11.89965,0,0,1,8.28551-3.28712,8.59985,8.59985,0,0,1,5.612,1.57414,6.29212,6.29212,0,0,1,2.09006,4.6628l18.35357-2.27679q-.88281-8.20212-6.36918-12.46238-5.49117-4.266-17.61131-4.26424a42.32172,42.32172,0,0,0-14.68449,2.23548,31.47918,31.47918,0,0,0-7.69206,4.31064,30.49579,30.49579,0,0,0-6.571,6.54612,31.61807,31.61807,0,0,0-5.17044,12.45239q-1.473,7.16033-.21655,11.49339a17.44049,17.44049,0,0,0,12.44411,12.201,47.28094,47.28094,0,0,0,12.83928,1.4385,38.44635,38.44635,0,0,0,13.9207-2.23886,30.046,30.046,0,0,0,9.99359-6.29147,32.24669,32.24669,0,0,0,6.87187-9.58349L533.54656,401.338a14.74042,14.74042,0,0,1-4.9835,5.678,12.27816,12.27816,0,0,1-6.67852,1.84538,7.85215,7.85215,0,0,1-6.761-3.08546q-2.27208-3.07794-1.04843-9.01814Q515.44432,390.09354,519.03071,386.80727Z"/>
          <path class="cls-1" d="M599.10886,379.01768q-2.75564-4.519-5.50449-6.11622a17.33788,17.33788,0,0,0-8.75012-2.14778,22.89441,22.89441,0,0,0-11.20571,2.99113,26.60254,26.60254,0,0,0-9.37354,9.06269,40.22845,40.22845,0,0,0-5.58559,14.01332q-2.44552,11.87511,2.17606,18.24117,4.61322,6.36918,13.66606,6.36917a23.69945,23.69945,0,0,0,8.35-1.46,24.42536,24.42536,0,0,0,7.30349-4.32875l-4.74884,23.11071h19.09773l13.75529-66.90988H600.58377Zm-4.79675,17.22593q-1.183,5.7617-4.20311,8.54526a9.83355,9.83355,0,0,1-6.84548,2.7861,5.55233,5.55233,0,0,1-4.97689-2.672q-1.71382-2.6736-.521-8.47583,1.3369-6.48576,4.21309-9.2496a8.8982,8.8982,0,0,1,6.28-2.76612,6.15313,6.15313,0,0,1,5.5143,2.78932Q595.60112,389.98865,594.31211,396.24361Z"/>
          <path class="cls-1" d="M658.22747,395.15407q-1.36157,6.61731-4.04278,9.17358a8.58489,8.58489,0,0,1-6.07152,2.55448q-3.11273,0-4.43458-1.91633-1.32219-1.91979-.38536-6.47992l5.47959-26.64265H629.67356l-6.34615,30.86727q-1.96172,9.54388,1.54281,14.13067,3.50688,4.59084,11.328,4.59a24.39315,24.39315,0,0,0,10.32273-2.05685,34.91221,34.91221,0,0,0,9.40656-6.90508l-1.61867,7.8707h17.73694l9.97207-48.4967H663.021Z"/>
          <polygon class="cls-1" points="684.235 420.34 703.232 420.34 713.204 371.843 694.207 371.843 684.235 420.34"/>
          <path class="cls-1" d="M740.37416,381.66986a8.89006,8.89006,0,0,1,4.89765-1.11766,8.27584,8.27584,0,0,1,5.091,1.45,4.62922,4.62922,0,0,1,1.622,3.39954l18.33547-1.68318a16.76469,16.76469,0,0,0-3.1332-7.53323,13.08732,13.08732,0,0,0-6.189-4.109q-3.946-1.32195-12.78967-1.3227a45.87431,45.87431,0,0,0-13.71736,1.71128,22.2311,22.2311,0,0,0-8.88912,5.17212,15.72456,15.72456,0,0,0-4.53718,8.25249,10.86081,10.86081,0,0,0,6.51141,12.65083q3.55187,1.43345,13.08566,3.1217,6.38414,1.14111,7.76486,1.9148a2.69276,2.69276,0,0,1,1.50961,3.10019,4.58772,4.58772,0,0,1-2.24548,2.96151,11.24031,11.24031,0,0,1-6.27166,1.59717,8.52018,8.52018,0,0,1-5.32416-1.41871,7.04206,7.04206,0,0,1-2.30491-4.719l-19.1607,1.78409q.1935,6.97695,5.17548,10.76261,4.98274,3.78983,18.552,3.78642,9.60585,0,15.65858-2.35129a23.16757,23.16757,0,0,0,9.46124-6.31788,18.24922,18.24922,0,0,0,4.26915-8.16987,11.42961,11.42961,0,0,0-.88129-7.61925,11.57176,11.57176,0,0,0-5.964-5.34075q-4.23123-1.87-13.47422-2.92-6.09642-.72433-7.76808-1.64186a2.29463,2.29463,0,0,1-1.308-2.68689A4.30976,4.30976,0,0,1,740.37416,381.66986Z"/>
          <polygon class="cls-1" points="774.271 420.34 793.268 420.34 803.24 371.843 784.243 371.843 774.271 420.34"/>
          <path class="cls-1" d="M835.352,385.40177h10.40857l2.78441-13.55854H838.13811l3.78474-18.4098-20.95463,9.52406-1.82862,8.88574h-6.9728l-2.78439,13.55854H816.355l-3.512,17.0788q-1.67166,8.12772-.81187,11.75955a8.21011,8.21011,0,0,0,3.84433,5.41187q2.9837,1.776,10.05656,1.77917a67.19027,67.19027,0,0,0,13.43613-1.50792l1.24515-12.841a23.55768,23.55768,0,0,1-6.10132,1.18386q-2.32666,0-2.93663-1.55094-.40179-1.00446.23639-4.1088Z"/>
          <polygon class="cls-1" points="848.375 420.34 867.373 420.34 877.345 371.843 858.347 371.843 848.375 420.34"/>
          <path class="cls-1" d="M915.56409,370.75368q-12.989,0-22.10209,7.19088a30.50659,30.50659,0,0,0-11.39264,18.28755q-2.45035,11.91017,5.07137,19.26468,6.1335,5.93513,18.04933,5.93437,13.35856,0,22.39314-7.14295a30.56032,30.56032,0,0,0,11.333-18.33547q2.046-9.95074-2.65217-16.75473Q930.40816,370.75511,915.56409,370.75368Zm4.24782,25.23038q-1.389,6.76107-4.63979,9.81834a10.41839,10.41839,0,0,1-7.33141,3.059,6.77332,6.77332,0,0,1-6.06679-3.10357q-2.02875-3.10789-.69437-9.59027,1.31686-6.389,4.64792-9.51747a10.63063,10.63063,0,0,1,7.46212-3.13,6.60844,6.60844,0,0,1,5.90458,3.08207Q921.10819,389.68751,919.81191,395.98406Z"/>
          <path class="cls-1" d="M988.83148,370.75368a24.26684,24.26684,0,0,0-10.30106,2.075,35.09882,35.09882,0,0,0-9.43159,6.90507l1.622-7.89049H953.032l-9.97225,48.4967h18.997l4.79017-23.29764q1.36406-6.62214,4.02277-9.18018a8.54786,8.54786,0,0,1,6.09472-2.55617q3.10789,0,4.43643,1.89482,1.32678,1.89744.38859,6.4618l-5.48468,26.67737h19.09774l6.33786-30.81936q1.9716-9.59088-1.53452-14.17858Q996.70632,370.75367,988.83148,370.75368Z"/>
          <path class="cls-1" d="M1031.766,381.66986a8.8894,8.8894,0,0,1,4.89749-1.11766,8.27943,8.27943,0,0,1,5.09118,1.45,4.63581,4.63581,0,0,1,1.62205,3.39954l18.33378-1.68318a16.78292,16.78292,0,0,0-3.13168-7.53323,13.08636,13.08636,0,0,0-6.189-4.109q-3.946-1.32195-12.78968-1.3227a45.86726,45.86726,0,0,0-13.71735,1.71128,22.22052,22.22052,0,0,0-8.88913,5.17212,15.727,15.727,0,0,0-4.5387,8.25249,10.865,10.865,0,0,0,6.51141,12.65083q3.55413,1.43345,13.08733,3.1217,6.38417,1.14111,7.76469,1.9148a2.69446,2.69446,0,0,1,1.50963,3.10019,4.58728,4.58728,0,0,1-2.24545,2.96151,11.24434,11.24434,0,0,1-6.27169,1.59717,8.51722,8.51722,0,0,1-5.32416-1.41871,7.0421,7.0421,0,0,1-2.30491-4.719l-19.16224,1.78409q.19353,6.97695,5.17533,10.76261,4.983,3.78983,18.5522,3.78642,9.60839,0,15.6601-2.35129a23.16761,23.16761,0,0,0,9.46125-6.31788,18.2685,18.2685,0,0,0,4.26932-8.16987,11.43167,11.43167,0,0,0-.8813-7.61925,11.57616,11.57616,0,0,0-5.96587-5.34075q-4.22868-1.87-13.47422-2.92-6.09642-.72433-7.76808-1.64186a2.29541,2.29541,0,0,1-1.30628-2.68689A4.30356,4.30356,0,0,1,1031.766,381.66986Z"/>
        </g>
      </g>
    </g>
    <path class="cls-2" d="M235.92866,366.65791H382.94243l40.31193-70.96418H196.20967ZM146,205.98807l41.84882,74.76651H431.74l42.4714-74.76651ZM308.8928,497.01193l65.56145-115.41318H244.29375Z"/>
  </g>
</svg>
