<?xml version="1.0" encoding="UTF-8"?>
<svg id="LOGO" xmlns="http://www.w3.org/2000/svg" viewBox="0 0 1250 703">
  <defs>
    <style>
      .cls-1 {
        fill: #3155a4;
        stroke-width: 0px;
      }
    </style>
  </defs>
  <path class="cls-1" d="m435.04121,292.02209c-15.93107-1.72228-26.12119,2.43989-36.59838,15.50049v-13.92174h-21.8155v129.17076h21.95903v-74.20142c0-10.47719,2.72693-19.94971,8.75492-27.4129,6.02799-7.4632,14.06527-9.18548,21.52846-9.18548,5.45388,0,10.6207,1.72228,15.06992,4.87979l8.0373-19.08857c-4.8798-2.43989-11.6254-5.16683-16.93575-5.74092Z"/>
  <path class="cls-1" d="m334.71859,422.77161h21.95903v-77.93303c0-18.37095-3.44454-31.86212-11.76889-40.32998s-20.09323-13.34764-38.75123-13.34764c-13.34765,0-26.69529,3.15751-41.47817,12.91708l8.89843,19.08857c12.05594-8.61138,20.38027-11.91241,33.29736-11.62537,18.37096.43057,27.84347,9.61605,27.84347,30.28337-5.5974-1.57875-11.33832-2.43989-17.22277-2.43989-17.65334,0-32.00565,5.16683-43.34396,14.20879s-16.50515,20.09323-16.50515,33.15383c-.28704,10.33366,3.7316,20.23675,11.05127,27.4129,7.31967,7.31967,16.07458,10.33367,26.12119,11.05128,16.21811,1.14819,27.69996-2.72694,39.61238-14.06527v11.62537h.28704Zm0-34.01497c-8.89843,10.90775-20.23675,19.08857-31.7186,19.08857-15.78754,0-23.96836-7.89377-23.96836-21.24142,0-8.03729,3.01398-14.78288,10.33366-20.66732,7.31967-5.88444,18.80152-8.61138,30.28337-8.61138,5.02331.14352,10.19014.71762,15.06991,1.8658v29.56575h.00002Z"/>
  <path class="cls-1" d="m534.64623,422.77161h21.95901v-77.93303c0-18.37095-3.30101-31.86212-11.76891-40.32998-8.32432-8.46786-20.09323-13.34764-38.75123-13.34764-13.34765,0-26.6953,3.15751-41.47816,12.91708l8.89843,19.08857c12.05593-8.61138,20.38027-11.91241,33.29735-11.62537,18.37094.43057,27.84347,9.61605,27.84347,30.28337-5.59739-1.57875-11.33831-2.43989-17.22277-2.43989-17.65334,0-32.00565,5.16683-43.34396,14.20879s-16.50515,20.09323-16.50515,33.15383c-.28704,10.33366,3.73161,20.23675,11.05127,27.4129,7.31969,7.31967,16.07458,10.33367,26.12119,11.05128,16.21811,1.14819,27.69996-2.72694,39.61235-14.06527l.28711,11.62537Zm0-34.01497c-8.89845,10.90775-20.23676,19.08857-31.71861,19.08857-15.78754,0-23.96835-7.89377-23.96835-21.24142,0-8.03729,3.01399-14.78288,10.33366-20.66732,7.31966-5.88444,18.80153-8.61138,30.28338-8.61138,5.02331.14352,10.19015.71762,15.06992,1.8658v29.56575Z"/>
  <path class="cls-1" d="m633.67715,291.30447c-7.03262-.14352-14.06524,1.29171-20.52378,4.30569-5.45386,2.43989-10.47717,6.02797-14.63937,10.33366v-65.303h-21.95901v182.13078h21.95901v-90.56306c3.87514-6.74559,7.46322-11.1948,13.06061-15.21345,4.73624-3.58808,10.47717-5.45388,16.36162-5.45388,7.46322-.14352,14.78286,2.87046,19.9497,8.32434,4.87978,4.73626,7.75024,13.0606,7.75024,22.67665v80.37292h21.95901v-80.37292c0-15.50049-3.87514-27.69995-11.62538-36.59838-7.89373-9.61605-19.80617-14.9264-32.29265-14.63935Z"/>
  <path class="cls-1" d="m748.35207,350.72302l-16.9357-8.18081c-8.46785-3.7316-16.36162-8.46786-16.50515-16.21811-.43055-14.49583,15.21345-16.50515,21.38493-15.93106,9.04194.86114,16.79222,5.02331,27.55645,11.33832l6.45854-19.08857c-13.49116-8.46786-25.97768-11.1948-35.30668-11.62537-11.9124-.57409-20.52378,1.72228-30.13984,9.61605-7.46322,6.31502-11.76891,15.78754-11.48185,25.54711,0,3.87512.57408,7.75025,2.00931,11.33832s3.44454,7.03263,6.02799,9.90309c2.72693,3.1575,5.88445,6.02796,9.47253,8.32434,3.58808,2.43989,10.6207,5.16683,21.09791,9.90309,13.63469,6.1715,21.81552,13.20412,21.81552,21.52846,0,11.62537-9.329,16.93573-23.39424,16.93573-7.75024,0-16.79222-2.00933-29.70929-9.329l-8.0373,19.66266c11.62538,6.60206,24.68599,10.19015,38.17715,10.33366,15.21345,0,24.39892-2.72694,33.58439-9.90309,8.0373-6.45854,11.76891-15.35696,11.76891-26.69529,0-8.75491-2.00931-15.93106-6.45854-21.67198-6.02803-6.74559-13.20418-12.19947-21.38502-15.78755Z"/>
  <path class="cls-1" d="m886.13422,308.95781c-10.19015-11.76889-24.39892-17.65334-42.76986-17.65334-17.3663,0-31.43154,6.17149-42.05224,18.37095-10.6207,12.19946-15.93107,28.41756-16.0746,48.36728,0,20.5238,5.16684,36.88542,15.35699,49.08489s24.39892,18.22743,42.76986,18.22743c17.94038,0,32.00563-6.02796,42.33931-18.0839,10.33368-12.05594,15.50047-28.41756,15.64405-49.22841-.00009-20.95438-5.0234-37.316-15.2135-49.0849Zm-16.21809,83.3869c-6.45854,8.46786-15.35699,12.63003-26.55177,12.63003-11.48185,0-20.38029-4.30569-26.83883-12.77356s-9.61606-19.94971-9.61606-34.30202c0-13.92173,3.30101-25.11654,10.04661-33.72792,6.17147-8.32434,16.0746-13.0606,26.40824-12.77356,11.48185,0,20.38029,4.16217,26.83883,12.34298,6.45854,8.18081,9.61606,19.66266,9.47253,34.30202,0,14.49584-3.15753,25.97768-9.75955,34.30202Z"/>
  <path class="cls-1" d="m935.36262,255.28018c-8.03726,9.329-11.19478,21.81551-11.19478,38.17714h-19.5191v20.09323h19.5191v109.22105h21.81552v-109.22105h25.97764v-20.09323h-25.97764c-.43055-2.29637-1.14817-18.658,5.74092-26.26472,4.44918-5.02331,10.90772-7.89377,17.65332-7.89377,4.59276.14352,9.18551,1.29171,13.20414,3.30103l7.03267-17.22277c-7.03267-3.01398-14.63937-4.59274-22.24608-4.87978-12.34304-.14352-24.11195,5.31035-32.00571,14.78288Z"/>
  <path class="cls-1" d="m1048.31529,405.11826c-8.18083,0-14.06524-1.43523-17.65332-6.02796-3.58808-4.59273-5.45386-12.19946-5.45386-22.96369v-62.57606h35.30664v-20.09323h-35.30664v-35.16315l-22.10259,8.75491v26.55177h-15.35699v20.09323h15.35699v71.61801c0,11.48185,2.87046,20.95437,9.90313,28.56109,7.03267,7.60673,15.64405,10.76424,25.83415,11.33832,10.62074.57408,21.09791-.86115,31.14452-4.44921l-3.30101-19.08857c-5.8845,2.15284-12.05597,3.30102-18.37102,3.44454Z"/>
  <path class="cls-1" d="m149.86087,358.18622c0,37.02895,30.57041,67.02528,68.31698,67.02528,10.76423-.14353,21.24141-2.58342,31.00098-7.31967l-6.1715-20.5238c-7.4632,4.73627-15.93106,7.31967-24.82949,7.31967-25.54711.43057-46.645-19.94971-47.21909-45.49681-.43056-25.69064,19.94972-46.78853,45.49683-47.2191h1.57875c8.89843,0,17.50982,2.58341,24.97302,7.31967l5.88444-20.81085c-9.61605-4.73626-20.09323-7.17615-30.85746-7.17615-37.60305,0-68.17346,29.8528-68.17346,66.88175Z"/>
  <path class="cls-1" d="m1097.11313,408.84986c-4.01863-4.01865-10.62074-4.01865-14.63937,0-4.01863,4.01865-4.01863,10.62071,0,14.63935,4.01863,4.01863,10.62074,4.01865,14.63937,0,2.00936-2.00933,3.01395-4.59273,3.01395-7.31967.14358-2.72693-1.00459-5.45387-3.01395-7.31967Zm-1.14817,13.49117c-3.44459,3.44456-8.89845,3.44456-12.34295,0-3.44459-3.44456-3.44459-8.89843,0-12.34298s8.89845-3.44456,12.34295,0c1.57872,1.57875,2.5834,3.87512,2.5834,6.1715s-1.00468,4.59273-2.5834,6.17149h0Z"/>
  <path class="cls-1" d="m1094.09919,413.58613c0-1.57875-.71762-3.44456-4.1622-3.44456h-3.73156v11.62537h2.15285v-4.59273h1.43523l2.5834,4.59273h2.43991l-2.87046-4.87979c1.29166-.43056,2.29633-1.72227,2.15285-3.30102Zm-4.44927,1.72227h-1.43523v-3.30103h1.43523c2.00936,0,2.29633.71762,2.29633,1.57875.00009.43058.00009,1.72228-2.29633,1.72228Z"/>
</svg>