<svg id="Logos" xmlns="http://www.w3.org/2000/svg" viewBox="0 0 1250 703">
  <defs>
    <style>
      .cls-1 {
        fill: #231f20;
      }
    </style>
  </defs>
  <g id="Layer_40" data-name="Layer 40">
    <g id="Layer_41" data-name="Layer 41">
      <g>
        <g>
          <path d="M77.5195,366.18263V336.097H95.58216c4.51567,0,9.46466,0,13.28076,3.03635a16.3194,16.3194,0,0,1,5.7979,12.66566,13.63183,13.63183,0,0,1-4.9698,11.03945c-3.49967,2.81479-8.344,3.34415-12.725,3.34415Zm0-37.443V302.07039H95.409c3.97461,0,7.57588,0,11.00946,1.972a11.9685,11.9685,0,0,1,5.9558,10.96784,13.73037,13.73037,0,0,1-5.00285,10.693c-4.06092,3.14407-9.4971,3.03635-14.47608,3.03635Zm19.67357,45.216c7.25885,0,13.5017-.37083,19.57747-5.09833,5.28378-4.11226,7.64138-10.04726,7.64138-16.74732,0-10.22114-6.637-18.08041-16.43646-20.15463V331.746c8.67879-2.07422,13.97726-8.83425,13.97726-17.82947a18.2798,18.2798,0,0,0-8.35318-15.60592c-5.31928-3.48131-10.16668-3.70287-16.29019-3.70287H68.04015v79.34786Z"/>
          <path d="M143.15273,344.08849c0-4.76661.70262-10.49841,2.92006-14.787a15.01949,15.01949,0,0,1,13.44234-8.48723,15.55115,15.55115,0,0,1,12.84437,7.00485c3.05716,4.83516,3.74755,10.67461,3.74755,16.26938,0,5.15831-.448,10.53757-2.91394,15.21176a15.09886,15.09886,0,0,1-26.65394,1.03068C143.957,355.68979,143.15273,349.47993,143.15273,344.08849Zm-9.93043,0c0,15.48656,7.87457,31.01163,25.47085,31.01163,17.81173,0,27.315-14.45521,27.315-30.89228,0-15.46821-8.57108-30.52451-25.81176-30.52451C142.51314,313.68333,133.2223,327.77138,133.2223,344.08849Z"/>
          <path d="M204.70423,344.08849c0-4.76661.6965-10.49841,2.89558-14.787a15.029,15.029,0,0,1,13.45764-8.48723,15.50484,15.50484,0,0,1,12.84743,7.00485c3.02717,4.83516,3.75061,10.67461,3.75061,16.26938,0,5.15831-.47556,10.53757-2.92619,15.21176-2.80316,5.38477-7.6022,8.541-13.67185,8.541a14.95788,14.95788,0,0,1-12.979-7.51034C205.517,355.68979,204.70423,349.47993,204.70423,344.08849Zm-9.93716,0c0,15.48656,7.90762,31.01163,25.48309,31.01163,17.81788,0,27.29414-14.45521,27.29414-30.89228,0-15.46821-8.55333-30.52451-25.80561-30.52451C204.04689,313.68333,194.76707,327.77138,194.76707,344.08849Z"/>
          <path d="M296.41545,320.16856,264.10378,366.8847h32.31167v7.07089H253.12676V366.8847l31.24488-44.51034H255.53821V315.1302h40.87724Z"/>
          <path d="M355.13319,399.98531h-7.40574V277.66021h7.40574Z"/>
          <path d="M443.46715,343.26345H419.03922l12.30088-38.04959Zm-6.12044-48.65572H426.53432l-25.68323,79.34786h8.344l7.06789-23.14318h29.353l8.027,23.14318h9.48547Z"/>
          <path d="M530.63578,338.566c.33479-9.229,7.13645-17.9372,16.93589-17.9372,10.466,0,16.29325,8.1708,16.2094,17.9372Zm33.34848,17.76949c-2.5308,6.96629-8.27484,11.35037-15.91071,11.35037-6.1382,0-12.725-3.55047-15.489-9.11518-2.17275-4.378-2.42981-8.71429-2.42981-13.30163h43.15711c.448-16.30236-7.45042-31.58573-25.74016-31.58573-17.55466,0-27.1503,14.70988-27.1503,30.88928,0,16.44871,9.12987,30.52751,26.971,30.52751,11.171,0,21.47849-6.4938,24.97816-17.22294Z"/>
          <path d="M594.8913,325.17753h.23931a20.28607,20.28607,0,0,1,18.29585-11.4942c7.04341,0,12.91292,3.04247,16.61273,9.13293,3.08409,4.95512,2.83315,12.85049,2.83315,18.6184v32.52093H623.8202V337.63325c0-3.49661.13159-7.87763-1.65864-10.87787-1.91264-3.32952-6.222-5.35845-10.03814-5.35845a15.89566,15.89566,0,0,0-12.13318,5.935c-3.82834,4.62338-4.61481,9.961-4.61481,15.82441v30.79925h-9.046V315.1302h8.5619Z"/>
          <path d="M1136.60167,325.17753h.25155a20.11949,20.11949,0,0,1,18.21751-11.4942c7.06483,0,13.00595,3.04247,16.688,9.13293,3.00024,4.95512,2.797,12.85049,2.797,18.6184v32.52093h-9.07295V337.63325c0-3.49661.11935-7.87763-1.614-10.87787-1.93651-3.32952-6.19206-5.35845-10.07732-5.35845a15.96917,15.96917,0,0,0-12.157,5.935c-3.75367,4.62338-4.59034,9.961-4.59034,15.82441v30.79925h-9.06132V315.1302h8.61882Z"/>
          <path d="M692.14031,399.98531h-7.31577V277.66021h7.31577Z"/>
          <path d="M794.61006,373.95559V335.82221H757.899v38.13338h-9.3955V294.60773h9.3955v33.60615h36.71106V294.60773h9.37162v79.34786Z"/>
          <path d="M856.78278,348.17389c0,10.3968-7.33964,19.8584-18.20588,19.8584-7.50734,0-12.6834-3.00031-12.6834-10.31051,0-12.12093,12.755-13.4001,23.54964-13.4001h7.33964Zm-7.44731-10.66c-7.1726,0-15.64758.33479-22.03121,3.46662A17.95252,17.95252,0,0,0,816.59348,357.283c0,11.68209,9.26452,17.81717,20.05854,17.81717,9.1568,0,16.09-3.67894,20.13076-12.15392l1.02824,11.00939h8.822c-1.136-3.80134-1.23138-8.123-1.23138-12.37854V338.75078c0-6.68775,0-14.06656-4.74585-19.2873-4.3394-5.07446-11.38036-5.78015-17.77561-5.78015-10.44761,0-23.16651,3.8314-24.7566,16.07229l8.36787,1.37466c1.57786-8.05084,8.45112-10.38212,15.67141-10.38212,10.26889,0,14.61991,3.93606,14.61991,14.22515v2.54059Z"/>
          <path d="M889.29766,315.1302v10.537h.17933c2.78541-6.50849,9.67091-11.98384,17.66789-11.98384A17.0765,17.0765,0,0,1,923.65356,326.767a20.47857,20.47857,0,0,1,19.04255-13.08362,17.65743,17.65743,0,0,1,14.79924,8.46335c2.83316,4.86576,2.73706,11.2757,2.73706,16.77187v35.037h-9.03684v-35.037c0-3.94524.25094-8.11694-1.614-11.71515a11.14528,11.14528,0,0,0-9.85025-6.16207c-4.43487,0-8.67818,2.8148-11.32037,6.62532-3.38278,4.76055-3.26343,9.03446-3.26343,14.62v31.669h-9.04908V336.70111c0-3.27873-.23931-7.02934-1.94875-9.94573a11.573,11.573,0,0,0-9.82576-5.714c-4.02848,0-8.21242,2.70769-10.63918,5.79178-3.0363,3.843-3.59821,8.60651-3.59821,13.41847v33.704h-8.9891V315.1302Z"/>
          <path d="M985.79018,373.95559h-8.91749V315.1302h8.91749Zm.46638-69.15976H976.347v-10.1881h9.90957Z"/>
          <path d="M1004.37864,373.95559V294.60773h8.77422v79.34786Z"/>
          <path d="M472.41385,373.95559V294.60773h8.79508v79.34786Z"/>
          <path d="M499.40926,373.95559V294.60773H508.216v79.34786Z"/>
          <path d="M1058.7814,374.392l-8.64268.70808c-12.83886,0-16.74738-7.492-16.74738-19.21325V321.88412h-10.38818v-7.1903h10.38818V300.10389l9.07295-.93275v15.52268h13.07756v7.1903h-13.07756V357.39c0,6.85307,1.98425,10.45122,9.42,10.45122l6.89713-.54405Z"/>
          <path d="M1073.162,344.08849c0-4.76661.71731-10.49841,2.92863-14.787a15.04549,15.04549,0,0,1,13.48463-8.48723,15.48069,15.48069,0,0,1,12.82656,7.00485c3.00024,4.83516,3.74149,10.67461,3.74149,16.26938,0,5.15831-.50188,10.53757-2.91706,15.21176a15.09183,15.09183,0,0,1-26.64537,1.03068C1074.02254,355.68979,1073.162,349.47993,1073.162,344.08849Zm-9.82638,0c0,15.48656,7.806,31.01163,25.4501,31.01163,17.77556,0,27.31489-14.45521,27.31489-30.89228,0-15.46821-8.61882-30.52451-25.8442-30.52451C1072.54078,313.68333,1063.33563,327.77138,1063.33563,344.08849Z"/>
        </g>
        <path class="cls-1" d="M1206.09658,304.08141a11.59216,11.59216,0,0,1-.94436,4.65011,12.00508,12.00508,0,0,1-6.3416,6.35355,11.48573,11.48573,0,0,1-4.63217.94436,11.64169,11.64169,0,0,1-4.65609-.94436,11.989,11.989,0,0,1-6.34757-6.35355,11.89139,11.89139,0,0,1,0-9.28826,12.03754,12.03754,0,0,1,6.34757-6.33562,11.64169,11.64169,0,0,1,4.65609-.94436,11.48573,11.48573,0,0,1,4.63217.94436,12.1177,12.1177,0,0,1,3.78344,2.55816,12.2636,12.2636,0,0,1,2.55816,3.77746A11.51424,11.51424,0,0,1,1206.09658,304.08141Zm-1.85885,0a9.84875,9.84875,0,0,0-.789-3.92689,10.0425,10.0425,0,0,0-5.34941-5.34941,10.22367,10.22367,0,0,0-7.8478,0,10.398,10.398,0,0,0-3.21563,2.15172,10.07972,10.07972,0,0,0-2.16367,3.19769,10.23866,10.23866,0,0,0,0,7.85378,10.15026,10.15026,0,0,0,5.3793,5.3793A10.02448,10.02448,0,0,0,1201.297,311.218a10.16716,10.16716,0,0,0,2.15172-3.20971A9.82781,9.82781,0,0,0,1204.23773,304.08141Zm-7.011,6.89148-4.21378-5.67217h-1.45241v5.67217h-2.38482V297.2497h4.943a6.647,6.647,0,0,1,3.92688.91448,3.45293,3.45293,0,0,1,1.21931,2.95264,3.95393,3.95393,0,0,1-.97425,2.77333,4.062,4.062,0,0,1-2.71953,1.23724l4.59631,5.8455Zm-.31678-9.7963a2.48522,2.48522,0,0,0-.2331-1.07586,1.44262,1.44262,0,0,0-.63954-.69931,3.6027,3.6027,0,0,0-.87264-.2331,8.94683,8.94683,0,0,0-1.39264-.08966h-2.21149v4.56643h2.21149Q1196.90993,303.64509,1196.90993,301.17659Z"/>
      </g>
    </g>
  </g>
</svg>
