<?xml version="1.0" encoding="UTF-8"?>
<svg id="LOGO" xmlns="http://www.w3.org/2000/svg" viewBox="0 0 1250 703">
  <defs>
    <style>
      .cls-1 {
        fill: #a6a7a9;
      }

      .cls-1, .cls-2 {
        stroke-width: 0px;
      }

      .cls-2 {
        fill: #ff6d04;
      }
    </style>
  </defs>
  <path class="cls-2" d="M253.72645,241.34004c-2.99011,1.03504-5.86522,3.22012-7.55195,5.78855-2.83677,4.25516-2.60677-2.5301-2.60677,79.00798l.03833,73.2961,6.44024,3.71847c3.5268,2.07008,6.55525,3.75681,6.67025,3.75681.15334,0,.26834-34.11795.26834-75.8262,0-72.98942.03833-75.90287.69003-76.47789,1.07337-.9967,1.7634-.80503,5.63521,1.45672,1.95507,1.15004,3.6418,2.10841,3.75681,2.10841.49835,0,12.95716-7.51362,12.95716-7.85863.07667-.53669-14.1072-8.54866-16.29228-9.20035-2.72177-.84337-7.20694-.72836-10.00538.23001Z"/>
  <path class="cls-1" d="M311.03695,241.68505c-2.56843.65169-4.83018,1.8784-25.6843,13.91553l-20.89246,12.03712-.115,75.74953-.07667,75.74953-6.82359-3.94848c-3.71847-2.14675-10.00538-5.82689-13.95386-8.12697l-7.20694-4.17849v-59.34224c0-32.6229-.115-59.30391-.23001-59.30391-.61336,0-11.53877,6.47858-12.91882,7.66696-2.14675,1.84007-4.25516,5.25186-5.02186,8.12697-.57502,2.22342-.65169,6.74692-.53669,52.28864l.115,49.83521,1.41839,2.87511c2.10841,4.21683,4.25516,6.09523,12.95716,11.19376,27.29436,15.94727,34.3863,20.01076,35.11466,20.01076.46002,0,11.4621-6.13356,24.41926-13.60885l23.61422-13.60885.115-25.87598c.115-24.49592.15334-25.95265.84337-27.60104,1.30338-3.06678,3.37346-5.82689,5.59688-7.43695,1.18838-.8817,11.30876-6.82359,22.54085-13.26383,11.19376-6.44024,20.35577-11.88378,20.3941-12.11379,0-.26834-.26834-.53669-.57502-.69003-.61336-.23001-81.53808-46.80677-82.68812-47.53513-.53669-.38335,1.53339-1.72507,12.84215-8.28031,7.43695-4.33183,13.83886-7.85863,14.26054-7.8203.42168,0,19.55074,10.88708,42.47494,24.18925l41.70824,24.18925,1.61006-.92003c4.63851-2.6451,10.23539.57502,10.23539,5.86522v1.8784l3.75681,2.18508c2.10841,1.18838,3.91015,2.18508,4.02515,2.18508.46002,0,.30668-14.41388-.15334-16.56063-.65169-3.06678-2.83677-6.97693-5.09853-9.00867-2.14675-1.91674-83.9915-49.3752-86.71327-50.2569-1.91674-.65169-7.59029-.92003-9.35369-.46002Z"/>
  <path class="cls-2" d="M301.95161,269.97612c-3.6418,2.03174-6.59358,3.87181-6.59358,4.10182,0,.19167,29.32611,17.28899,65.16913,37.95143,38.48812,22.1575,65.43747,37.95143,65.82082,38.48812.84337,1.26505.38335,1.80173-3.29679,3.98682l-3.14345,1.84007v7.85863c0,4.33183.115,7.78196.30668,7.70529,5.86522-3.33513,13.60885-7.89696,14.52888-8.62533.69003-.49835,1.91674-1.91674,2.7601-3.14345,4.21683-6.36357,3.4118-15.29558-1.84007-20.01076-1.41839-1.26505-69.80764-41.01822-125.96809-73.1811l-1.15004-.69003-6.59358,3.71847Z"/>
  <path class="cls-1" d="M591.68588,303.40405c-23.76756,2.99011-41.40156,19.55074-45.0817,42.35993-.72836,4.44683-.72836,13.18716,0,17.634,3.60347,22.27251,19.66574,37.98977,42.74328,41.86158,4.94519.80503,14.75889.80503,19.55074-.03833,1.99341-.34501,5.13686-1.03504,6.9386-1.57173,16.56063-4.71518,29.63279-17.17398,34.57797-33.00625,1.91674-6.09523,2.30009-9.20035,2.07008-17.78734-.15334-6.86193-.30668-8.31865-1.15004-11.50043-5.25186-19.43573-19.85742-32.89124-40.32819-37.18474-4.44683-.92003-14.75889-1.34172-19.32073-.7667ZM607.32647,319.88801c12.11379,2.95178,21.58248,12.11379,24.91761,24.15091,3.29679,11.80711.7667,24.76427-6.55525,33.84961-9.73703,12.11379-26.37433,16.10061-41.01822,9.85204-10.35039-4.4085-17.97901-13.80052-20.47077-25.10928-.95837-4.56184-.92003-12.42047.15334-16.7523,3.60347-14.68222,14.14553-24.38092,29.13443-26.75768,3.22012-.49835,10.15872-.115,13.83886.7667Z"/>
  <path class="cls-1" d="M454.14069,304.74577c-.7667.53669-.8817.95837-.8817,2.99011,0,2.22342,1.15004,5.25186,18.20902,48.53183,10.77207,27.3327,18.5157,46.50009,19.01405,47.03678.84337.92003.92003.92003,9.54536.92003,8.51032,0,8.702,0,9.46869-.84337.42168-.49835.95837-1.22671,1.18838-1.6484.19167-.42168,8.43365-21.50581,18.24736-46.8451,11.04042-28.44441,17.86401-46.57676,17.86401-47.38179,0-2.49176-.49835-2.6451-8.97034-2.49176-7.0536.115-7.55195.15334-8.31865.92003-.53669.53669-5.44354,13.83886-14.14553,38.18144-7.32194,20.54744-13.57051,37.72142-13.83886,38.18144-.61336.95837-1.57173,1.11171-2.18508.34501-.23001-.26834-6.67025-17.55733-14.26054-38.44978-10.23539-28.06106-14.06886-38.14311-14.75889-38.87147-.95837-.95837-1.07337-.95837-8.16531-1.07337-6.09523-.07667-7.28361,0-8.01197.49835Z"/>
  <path class="cls-1" d="M717.73064,305.05245c-.80503.53669-5.75022,7.01526-13.2255,17.32732-7.70529,10.6954-12.15213,16.52229-12.65048,16.59896-.38335.03833-.9967-.115-1.34172-.38335s-5.59688-7.39861-11.65377-15.83226c-6.0569-8.43365-11.5771-15.90893-12.30546-16.59896l-1.30338-1.22671h-7.78196c-7.09193,0-7.85863.07667-8.43365.69003-.95837,1.07337-.80503,2.68343.46002,4.25516,2.30009,2.95178,30.39948,42.35993,30.78283,43.2033.30668.61336.26834,1.15004-.15334,1.99341-.30668.61336-8.08864,11.11709-17.32732,23.34588-16.48396,21.92749-16.71396,22.23417-16.71396,23.99757v1.80173h16.79063l12.68881-17.21232c6.97693-9.43036,12.91882-17.40399,13.26383-17.67233.30668-.26834.95837-.38335,1.41839-.23001.61336.15334,4.67684,5.48187,12.76548,16.79063,7.43695,10.31206,12.42047,16.90564,13.18716,17.44233,1.26505.84337,1.61006.8817,9.77537.8817,8.932,0,9.43036-.07667,9.43036-1.68673,0-1.07337.72836,0-17.36566-25.14762-15.37225-21.35247-16.06227-22.34918-16.06227-23.99757,0-1.61006.61336-2.5301,15.29558-22.69419,8.39532-11.53877,15.56392-21.58248,15.94727-22.34918.84337-1.68673.38335-3.22012-1.07337-3.79514-.57502-.23001-3.71847-.38335-7.0536-.38335-5.67355,0-6.13356.03833-7.36028.8817Z"/>
  <path class="cls-1" d="M817.17106,304.55409c-2.14675.8817-2.03174-2.07008-1.95507,49.95022l.115,47.7268.92003.9967.92003.9967h30.70616c16.90564,0,30.89783-.15334,31.12784-.30668,1.03504-.69003,1.30338-2.14675,1.30338-7.36028,0-2.99011-.19167-5.75022-.38335-6.1719-1.03504-1.8784-1.15004-1.8784-24.07424-1.8784-20.20243,0-21.46748-.03833-22.0425-.69003s-.65169-4.25516-.72836-41.01822l-.115-40.32819-1.07337-1.03504-1.03504-1.07337-6.44024-.07667c-3.5268-.03833-6.78526.07667-7.24527.26834Z"/>
  <path class="cls-2" d="M1004.5898,304.74577c-.69003.30668-2.49176,1.7634-4.02515,3.25846-5.2902,5.25186-12.30546,9.04701-20.20243,10.92541-1.57173.38335-3.5268.9967-4.2935,1.41839-2.22342,1.07337-2.60677,2.22342-2.60677,7.59029,0,5.1752.38335,6.47858,2.22342,7.24527,2.10841.8817,8.932-.69003,15.1039-3.48847,3.22012-1.41839,3.45013-1.49506,4.33183-.92003.53669.34501,1.03504,1.15004,1.15004,1.84007s.19167,13.11049.115,27.56271c-.115,25.72264-.115,26.33599-.8817,27.17936-1.49506,1.68673-2.7601,1.91674-10.73374,1.91674-7.47528,0-7.51362,0-8.43365.95837-.92003.8817-.95837,1.11171-.95837,6.32524v5.44354l1.11171,1.11171,1.11171,1.11171h26.64267c24.8026,0,26.68101-.03833,27.4477-.69003.80503-.61336.84337-.92003.72836-6.78526q-.115-6.09523-1.07337-6.59358c-.65169-.34501-3.14345-.49835-8.12697-.49835h-7.20694l-1.22671-1.11171-1.26505-1.11171-.19167-40.48153-.19167-40.48153-1.03504-1.03504c-.92003-.92003-1.41839-1.07337-3.6418-1.15004-1.72507-.07667-3.02845.07667-3.87181.46002Z"/>
  <path class="cls-2" d="M896.56239,305.12912c-1.68673,1.15004-1.72507,1.61006-1.61006,24.95594l.115,22.27251,1.07337,1.38005c2.14675,2.79844,1.68673,2.72177,19.62741,2.99011,14.1072.15334,16.36895.26834,18.20902.8817,6.13356,2.03174,9.5837,5.21353,11.19376,10.35039.84337,2.68343.95837,7.36028.30668,9.85204-2.10841,7.74363-9.62203,12.99549-18.66904,12.99549-8.28031,0-15.06557-4.14016-18.5157-11.30876-2.14675-4.4085-2.18508-4.4085-10.04371-4.4085-7.66696,0-7.97363.115-7.97363,3.33513,0,1.72507.30668,2.79844,1.6484,5.63521,2.33842,4.94519,4.02515,7.43695,7.39861,10.96375,6.67025,6.97693,14.83556,10.50373,25.45429,11.00208,16.67563.7667,30.24614-6.01856,36.03469-18.05568,2.45343-5.06019,3.22012-8.66366,3.18179-14.79723-.03833-12.80382-5.63521-22.11917-16.36895-27.17936-6.13356-2.87511-11.76878-3.83348-24.57259-4.10182-5.48187-.115-10.42706-.38335-11.00208-.61336-1.91674-.72836-2.22342-2.14675-2.22342-10.04371,0-7.70529.26834-9.16201,1.95507-10.35039.80503-.53669,2.99011-.61336,20.47077-.61336,20.08742,0,22.0425-.15334,22.80919-1.53339.19167-.38335.38335-3.22012.38335-6.2869,0-5.4052-.03833-5.55854-.9967-6.70859l-.9967-1.18838h-28.06106c-23.95924,0-28.17606.07667-28.82775.57502Z"/>
  <path class="cls-1" d="M747.36342,305.89581c-2.5301,1.11171-2.41509-1.6484-2.30009,49.60521l.115,46.38508.80503,1.07337.80503,1.07337,27.86939.115,27.86939.07667.53669-1.34172c.69003-1.61006.7667-9.04701.15334-10.88708-.84337-2.33842-.72836-2.33842-20.85412-2.33842-11.84545,0-18.5157-.15334-19.01405-.38335-.69003-.38335-.72836-.95837-.72836-13.2255q0-12.80382.84337-13.37884c.7667-.53669,3.06678-.61336,17.48066-.61336h16.59896l.92003-.95837c.92003-.8817.95837-1.11171.95837-5.94189,0-2.7601-.19167-5.36687-.38335-5.78855-.9967-1.80173-1.57173-1.8784-18.78404-1.8784-10.38873,0-16.40729-.15334-16.90564-.38335-.69003-.38335-.72836-.95837-.72836-13.2255q0-12.80382.84337-13.37884c.7667-.53669,3.22012-.61336,18.97572-.61336,17.44233,0,18.17069-.03833,18.86071-.72836,1.03504-1.03504,1.26505-2.72177,1.11171-7.47528-.115-3.83348-.15334-4.10182-1.18838-5.09853l-1.03504-1.07337-25.79931-.07667c-21.69749-.07667-25.95265,0-27.02602.46002Z"/>
  <path class="cls-1" d="M404.57381,371.0266c0,23.9209-.03833,25.18595-.7667,27.52437-.92003,3.02845-3.22012,6.32524-5.63521,8.08864-3.60347,2.56843-73.71778,42.85828-75.0595,43.08829-2.03174.34501-3.91015-.19167-5.44354-1.53339-1.68673-1.49506-2.41509-3.14345-2.41509-5.44354,0-.95837-.115-1.72507-.23001-1.72507-.49835,0-19.70408,11.23209-19.70408,11.50043,0,.15334,2.87511,1.95507,6.44024,3.98682,7.43695,4.25516,9.8137,5.02186,14.26054,4.71518,1.57173-.115,3.75681-.53669,4.79185-.92003,1.07337-.42168,20.43244-11.42376,43.08829-24.45759,29.32611-16.90564,41.78491-24.30425,43.24163-25.60763,2.56843-2.37676,4.56184-6.2869,5.09853-10.04371.19167-1.53339.38335-12.91882.38335-26.29766v-23.65256l-3.68014-2.14675c-2.03174-1.18838-3.83348-2.14675-4.02515-2.14675s-.34501,11.00208-.34501,25.07095Z"/>
  <path class="cls-2" d="M329.24597,408.86303c-37.33808,21.54415-68.42758,39.40815-69.07927,39.75317-1.15004.53669-1.30338.53669-1.99341-.115-.69003-.57502-.80503-1.26505-.8817-5.13686l-.115-4.44683-6.32524-3.71847c-3.48847-2.07008-6.55525-3.71847-6.78526-3.75681-.38335,0-.49835,1.8784-.49835,8.12697,0,11.73044.80503,14.75889,5.06019,18.78404,2.95178,2.83677,5.52021,3.87181,9.89037,4.06349,2.87511.115,4.06349,0,5.63521-.57502,1.07337-.38335,31.54952-17.749,67.73756-38.64146l65.74415-37.95143.03833-7.78196c0-4.25516-.115-7.74363-.30668-7.74363-.15334,0-30.82116,17.59566-68.1209,39.13981Z"/>
</svg>