<?xml version="1.0" encoding="UTF-8"?>
<svg id="LOGO" xmlns="http://www.w3.org/2000/svg" viewBox="0 0 1250 703">
  <defs>
    <style>
      .cls-1 {
        fill-rule: evenodd;
      }

      .cls-1, .cls-2 {
        fill: #13171b;
      }

      .cls-1, .cls-2, .cls-3 {
        stroke-width: 0px;
      }

      .cls-3 {
        fill: #0262f2;
      }
    </style>
  </defs>
  <path class="cls-1" d="M1105.89659,284.66748c-1.94416-1.94414-4.40407-2.91621-7.38772-2.91621-2.98172,0-5.44362.97207-7.38772,2.91621-1.94416,1.94414-2.91621,4.40675-2.91621,7.38773s.97205,5.44359,2.91621,7.38772c1.9441,1.94414,4.40601,2.91621,7.38772,2.91621,2.98365,0,5.44356-.97207,7.38772-2.91621,1.9441-1.94414,2.91621-4.40675,2.91621-7.38772s-.97211-5.44359-2.91621-7.38773Z"/>
  <rect class="cls-2" x="1090.53788" y="320.0508" width="15.9439" height="99.15108"/>
  <path class="cls-1" d="M707.70422,329.77159c-7.38772-7.25818-17.10841-10.88718-29.16204-10.88718-7.77658,0-14.38665,1.62008-19.83022,4.86034-5.31364,3.24017-9.59076,7.4525-12.83135,12.63691v-53.2694h-15.9419v136.08961h15.9419v-49.57554c0-11.14606,2.65734-19.95976,7.97098-26.44019,5.44362-6.48052,12.76687-9.72069,21.96878-9.72069,8.68415,0,15.3587,2.72179,20.02462,8.16538,4.66597,5.31395,6.99893,13.0905,6.99893,23.32956v54.24147h15.9419v-55.21355c0-15.553-3.69386-26.95865-11.08159-34.21674Z"/>
  <path class="cls-1" d="M831.25923,372.73692c.25887-3.11061.3888-5.37909.3888-6.80447-.25887-9.59106-2.39743-17.95084-6.41567-25.07926-4.01818-7.12855-9.52628-12.57217-16.52515-16.33081-6.99893-3.7587-15.03432-5.63796-24.10734-5.63796-9.2019,0-17.36728,2.13856-24.49613,6.41561-7.12885,4.1475-12.70137,10.0447-16.71961,17.69166-3.88826,7.64696-5.83242,16.52509-5.83242,26.63463,0,9.97956,2.00864,18.85817,6.02688,26.63469,4.14713,7.6466,9.91508,13.609,17.3028,17.88606,7.38772,4.1472,16.00643,6.22128,25.85704,6.22128,11.27599,0,20.80227-3.17508,28.57885-9.52628,7.77652-6.48015,12.63689-14.77545,14.58105-24.88499h-16.13636c-1.68529,6.3512-5.05477,11.34046-10.10954,14.96985-4.92479,3.49946-10.95167,5.24923-18.08046,5.24923-9.20196,0-16.65513-2.91621-22.35763-8.74863-5.70244-5.83242-8.68415-13.609-8.94303-23.32968v-1.36091h76.98792ZM764.9641,340.26994c5.70244-4.92521,12.31251-7.38772,19.83016-7.38772,8.42431,0,15.3587,2.33296,20.80233,6.99887,5.57349,4.66597,8.74863,11.21115,9.52628,19.6357h-59.87951c.77765-7.90608,4.01824-14.32175,9.72074-19.24684Z"/>
  <path class="cls-1" d="M902.13697,320.0509v15.55311h-7.97098c-9.46181,0-16.26628,3.17539-20.41347,9.52628-4.01818,6.35078-6.02682,14.19211-6.02682,23.52397v50.54761h-15.94196v-99.15098h13.8034l2.13856,14.96987c2.85077-4.53639,6.5456-8.16538,11.08159-10.88717,4.53599-2.7218,10.82168-4.0827,18.85817-4.0827h4.47151Z"/>
  <path class="cls-1" d="M568.63385,334.63194h-17.88606v-14.58104h17.88606v-27.80118h15.94196v27.80118h25.07938v14.58104h-25.07938v58.51847c0,4.14716.77765,7.12884,2.33296,8.94304,1.68426,1.68524,4.53599,2.52737,8.5542,2.52737h17.30283v14.58105h-18.27488c-9.33189,0-16.0074-2.07408-20.02465-6.22125-3.88826-4.14716-5.83242-10.69276-5.83242-19.63581v-58.71288Z"/>
  <path class="cls-1" d="M541.49923,372.73692c.25887-3.11061.38886-5.37909.38886-6.80447-.2599-9.59106-2.39846-17.95084-6.41567-25.07926-4.01824-7.12855-9.52628-12.57217-16.52515-16.33081-6.99893-3.7587-15.03535-5.63796-24.10734-5.63796-9.20293,0-17.36831,2.13856-24.49613,6.41561-7.12885,4.1475-12.7024,10.0447-16.71961,17.69166-3.88826,7.64696-5.83242,16.52509-5.83242,26.63463,0,9.97956,2.00864,18.85817,6.02682,26.63469,4.1472,7.6466,9.91514,13.609,17.30286,17.88606,7.38772,4.1472,16.00637,6.22128,25.85704,6.22128,11.27599,0,20.80227-3.17508,28.57885-9.52628,7.77652-6.48015,12.63689-14.77545,14.58099-24.88499h-16.13636c-1.68523,6.3512-5.05471,11.34046-10.10948,14.96985-4.92582,3.49946-10.95263,5.24923-18.08052,5.24923-9.20293,0-16.65513-2.91621-22.35757-8.74863-5.70347-5.83242-8.68415-13.609-8.94303-23.32968v-1.36091h76.98786ZM475.2041,340.26994c5.7025-4.92521,12.31257-7.38772,19.83022-7.38772,8.42425,0,15.3587,2.33296,20.80227,6.99887,5.57258,4.66597,8.74863,11.21115,9.52628,19.6357h-59.87945c.77765-7.90608,4.01721-14.32175,9.72068-19.24684Z"/>
  <path class="cls-1" d="M413.82686,320.05086l-2.13856,17.10847c-3.24053-5.83242-7.71204-10.30394-13.41454-13.4146-5.7025-3.24023-12.57242-4.86031-20.60787-4.86031-9.07301,0-17.23839,2.13856-24.49613,6.41561-7.2578,4.27712-12.96127,10.2391-17.10847,17.88612-4.01818,7.6469-6.02682,16.46061-6.02682,26.44017,0,10.49833,2.00864,19.57134,6.02682,27.21794,4.1472,7.6466,9.78516,13.47902,16.91401,17.49726,7.2578,4.01818,15.48869,6.02682,24.69059,6.02682,15.5531,0,26.89356-6.0913,34.02241-18.27491v11.66484c0,20.86674-10.69273,31.3006-32.07825,31.3006-8.29536,0-15.09983-1.68523-20.41347-5.05471-5.31364-3.36954-8.61871-8.16544-9.91514-14.38665h-16.33075c1.29643,10.75721,5.96234,19.05257,13.9978,24.88499,8.16538,5.83242,18.66377,8.74863,31.49506,8.74863,32.79149,0,49.18672-14.96991,49.18672-44.9096v-94.29066h-13.8034ZM407.80004,388.87328c-2.72181,5.44356-6.61007,9.72068-11.66484,12.83135-4.92485,2.98063-10.56281,4.47151-16.91401,4.47151-9.8506,0-17.82158-3.36954-23.91294-10.10954-5.96234-6.86895-8.94303-15.68308-8.94303-26.44029s2.98069-19.50614,8.94303-26.24577c6.09136-6.86937,14.06233-10.30394,23.91294-10.30394,6.3512,0,11.98916,1.5553,16.91401,4.66591,5.05477,3.11067,8.94303,7.51728,11.66484,13.22015,2.72181,5.57312,4.08266,11.92366,4.08266,19.05251,0,6.99887-1.36085,13.28456-4.08266,18.85811Z"/>
  <path class="cls-1" d="M307.08771,343.18615c-4.1472-7.64702-9.97962-13.609-17.49726-17.88612-7.38772-4.27706-15.87748-6.41561-25.46824-6.41561s-18.14493,2.13856-25.66264,6.41561c-7.38772,4.27712-13.15561,10.2391-17.3028,17.88612-4.14713,7.6469-6.22122,16.46061-6.22122,26.44017s2.07408,18.79369,6.22122,26.44029c4.1472,7.6466,9.91508,13.60894,17.3028,17.88606,7.51771,4.27712,16.07188,6.41567,25.66264,6.41567s18.08052-2.13856,25.46824-6.41567c7.51765-4.27712,13.35007-10.23946,17.49726-17.88606,4.14713-7.6466,6.22122-16.46074,6.22122-26.44029s-2.07408-18.79327-6.22122-26.44017ZM292.89546,388.48449c-2.72175,5.57349-6.61007,9.91508-11.66478,13.02569-4.92485,3.11061-10.62832,4.66597-17.10847,4.66597s-12.24804-1.55536-17.3028-4.66597c-4.92485-3.11061-8.74863-7.4522-11.47044-13.02569-2.72175-5.57355-4.08266-11.85924-4.08266-18.85817s1.36091-13.28492,4.08266-18.85805c2.72181-5.57324,6.5456-9.91508,11.47044-13.02575,5.05477-3.11061,10.82271-4.66591,17.3028-4.66591s12.18362,1.5553,17.10847,4.66591c5.05471,3.11067,8.94303,7.4525,11.66478,13.02575,2.72181,5.57312,4.08272,11.85918,4.08272,18.85805s-1.36091,13.28462-4.08272,18.85817Z"/>
  <path class="cls-1" d="M159.07328,334.63194h-17.88608v-14.58104h17.88608v-27.80118h15.94193v27.80118h25.07939v14.58104h-25.07939v58.51847c0,4.14716.77766,7.12884,2.33297,8.94304,1.68495,1.68524,4.53629,2.52737,8.55421,2.52737h17.30283v14.58105h-18.27491c-9.33186,0-16.00671-2.07408-20.02463-6.22125-3.88828-4.14716-5.83241-10.69276-5.83241-19.63581v-58.71288Z"/>
  <path class="cls-1" d="M1067.58911,404.62078c-4.40704,0-6.61001-2.39743-6.61001-7.19327v-42.77105c0-11.53522-3.49953-20.34869-10.49845-26.44029-6.86889-6.22128-16.65501-9.33189-29.35644-9.33189-11.92384,0-21.64446,2.72181-29.1621,8.16538-7.38772,5.44362-11.66484,13.02575-12.83135,22.74643h15.94196c1.03647-5.05477,3.7584-9.07265,8.16532-12.05364,4.53599-3.11067,10.23946-4.66597,17.10847-4.66597,7.77664,0,13.8034,1.81454,18.08052,5.44362,4.40704,3.62908,6.61013,8.68385,6.61013,15.16425v6.80453h-29.16222c-12.96115,0-22.87635,2.65728-29.74524,7.97092-6.74005,5.3137-10.10954,12.96127-10.10954,22.94089,0,8.94303,3.30507,16.00637,9.9152,21.19106,6.73993,5.18469,15.61746,7.77658,26.63463,7.77658,14.51658,0,25.59816-5.50804,33.24476-16.52521.12992,5.05477,1.5553,8.87861,4.27712,11.47044s7.2578,3.88826,13.60894,3.88826h8.74869v-14.58105h-4.86037ZM1045.03714,378.76374c0,8.42431-2.78635,15.22878-8.35977,20.41347-5.57367,5.05477-13.22027,7.58212-22.94089,7.58212-6.61001,0-11.8593-1.49083-15.74762-4.47151-3.8882-2.98069-5.8323-6.93439-5.8323-11.85924,0-11.01711,7.38772-16.52515,22.16317-16.52515h30.71741v4.86031Z"/>
  <circle class="cls-3" cx="930.43509" cy="403.62397" r="15.17122"/>
</svg>