<?xml version="1.0" encoding="UTF-8"?>
<svg id="LOGO" xmlns="http://www.w3.org/2000/svg" viewBox="0 0 1250 703">
  <defs>
    <style>
      .cls-1 {
        fill: #231f20;
        fill-rule: evenodd;
        stroke-width: 0px;
      }
    </style>
  </defs>
  <path class="cls-1" d="m174.69546,339.85032c-13.95851-5.62807-26.24217-10.13063-26.24217-21.38705,0-12.94467,11.72537-17.44723,22.3339-17.44723,18.42535,0,28.47558,10.13063,28.47558,10.69338l1.11657,1.12578,8.37539-14.07045-.55856-.56275c-.55828-.56275-11.72509-13.50742-36.85069-13.50742-19.54219,0-41.31753,10.69338-41.31753,33.76868,0,21.9498,19.54219,29.82915,36.85069,36.58299,13.95879,5.62807,26.24245,10.69338,26.24245,21.38705,0,12.38191-11.16709,18.00998-22.3339,18.00998-21.21705,0-34.05927-14.07045-34.05927-14.07045l-1.11657-1.1255-9.49195,12.94467.55856.56275s3.90827,4.50257,11.16681,9.00513c6.70025,3.93954,17.86706,8.4421,32.94242,8.4421,24.00875,0,41.31753-14.6332,41.31753-34.33171,0-21.38677-20.10048-29.26612-37.40926-36.01996Z"/>
  <path class="cls-1" d="m294.18316,284.6946c-35.17556,0-63.09286,27.57786-63.09286,62.47233,0,35.45721,27.9173,63.59783,63.09286,63.59783s63.09314-28.14061,63.09314-63.59783c-.55828-34.89446-27.9173-62.47233-63.09314-62.47233Zm44.10951,62.47233c0,26.45208-19.54219,47.27638-44.66779,47.27638s-44.66751-20.82429-44.66751-47.27638c0-25.88961,19.54191-45.58812,44.66751-45.58812s44.66779,19.69851,44.66779,45.58812Z"/>
  <path class="cls-1" d="m434.88567,240.23197s-2.7917-.56275-7.25854-.56275c-12.28366,0-41.31753,4.50257-41.31753,45.02509v4.50257h-16.19221v15.7587h16.19221v102.99485h17.86706v-103.55761h30.15072v-15.19595h-30.15072v-4.50257c0-10.69338,3.34999-28.70364,25.1256-28.70364,3.34999,0,5.5834.56303,5.5834.56303h1.11657v-16.32173h-1.11657Z"/>
  <path class="cls-1" d="m519.19614,393.31864l-1.11685.56303s-2.23342.56275-5.02512.56275c-9.49168,0-25.68388-3.93981-25.68388-30.95493v-58.53251h29.59243v-15.7587h-30.15072v-34.89446h-17.86706v34.89446h-15.63364v15.7587h15.63364v59.65829c0,39.95978,26.80073,45.58785,42.43437,45.58785,4.46656,0,6.69997-.56275,7.25826-.56275h1.11685v-16.32173"/>
  <path class="cls-1" d="m556.04571,371.93075s12.84194,12.94467,32.38386,12.94467c8.37539,0,15.63364-3.93981,15.63364-10.69338,0-18.01026-58.06774-15.75898-58.06774-54.03022,0-22.51255,20.10048-35.45721,45.78436-35.45721,26.80045,0,40.20068,13.50742,40.20068,13.50742l-11.16681,21.9498s-11.16681-10.13063-29.03387-10.13063c-7.81682,0-15.07536,3.37678-15.07536,10.69338,0,16.88448,58.06774,14.6332,58.06774,53.46747,0,20.26126-17.3085,36.01996-45.78436,36.01996-29.59215,0-46.34265-17.44723-46.34265-17.44723l13.40051-20.82402Z"/>
  <path class="cls-1" d="m714.057,284.6946c34.61755,0,53.0429,25.32658,53.0429,56.84398,0,3.37706-.55856,11.81916-.55856,11.81916h-82.63505c1.67513,20.82429,17.86706,32.08043,35.73412,32.08043,18.98391,0,34.61755-12.94467,34.61755-12.94467l11.72509,21.38677s-18.42535,17.44723-48.01778,17.44723c-39.64239,0-64.20971-28.70337-64.20971-63.03508,0-37.7085,25.1256-63.59783,60.30144-63.59783Zm22.89218,48.40188c-.55828-16.32145-10.6088-24.76383-23.45047-24.76383-15.07536,0-25.68388,9.56788-28.47558,24.76383h51.92605Z"/>
  <path class="cls-1" d="m796.69094,287.51003h28.47586v20.82429c0,4.50257-.55856,8.4421-.55856,8.4421h.55856c5.5834-17.44723,19.54191-30.95465,37.96726-30.95465,2.7917,0,5.58368.56275,5.58368.56275v29.2664s-2.79198-.56303-7.25854-.56303c-12.84194,0-26.80073,7.3166-32.38414,25.32686-1.67513,5.62807-2.7917,12.38191-2.7917,19.69851v47.83913h-29.59243v-120.44236Z"/>
  <path class="cls-1" d="m881.56136,287.50779h31.26729l24.56703,74.29149c2.23342,7.3166,3.90855,15.19595,4.46684,15.19595h.55828s1.67513-7.87935,4.46684-15.19595l24.56731-74.29149h31.26729l-42.99266,120.44209h-35.17584l-42.99238-120.44209Z"/>
  <path class="cls-1" d="m1070.83798,284.6946c34.61727,0,53.04262,25.32658,53.04262,56.84398,0,3.37706-.55801,11.81916-.55801,11.81916h-82.07705c1.67513,20.82429,17.86706,32.08043,35.73412,32.08043,18.98391,0,34.61755-12.94467,34.61755-12.94467l11.72537,21.38677s-18.42562,17.44723-48.01806,17.44723c-39.64239,0-64.20971-28.70337-64.20971-63.03508-1.11657-37.7085,24.00903-63.59783,59.74315-63.59783Zm22.89218,48.40188c-.55856-16.32145-10.60852-24.76383-23.45047-24.76383-15.07536,0-25.68388,9.56788-28.47586,24.76383h51.92633Z"/>
</svg>