<?xml version="1.0" encoding="UTF-8"?>
<svg id="LOGO" xmlns="http://www.w3.org/2000/svg" xmlns:xlink="http://www.w3.org/1999/xlink" viewBox="0 0 1250 703">
  <defs>
    <style>
      .cls-1 {
        fill: #fff;
      }

      .cls-1, .cls-2 {
        fill-rule: evenodd;
      }

      .cls-2 {
        fill: url(#linear-gradient);
      }
    </style>
    <linearGradient id="linear-gradient" x1="626.29" y1="155.94" x2="626.29" y2="547.09" gradientUnits="userSpaceOnUse">
      <stop offset="0" stop-color="#00b8f1"/>
      <stop offset=".02" stop-color="#00b5ef"/>
      <stop offset=".31" stop-color="#0d90d8"/>
      <stop offset=".58" stop-color="#1675c8"/>
      <stop offset=".82" stop-color="#1c64be"/>
      <stop offset="1" stop-color="#1e5fbb"/>
    </linearGradient>
  </defs>
  <polyline class="cls-2" points="230.95 547.09 630.56 547.09 1021.64 155.94 230.95 155.94 230.95 547.09"/>
  <path class="cls-1" d="M700.18,229.49l-77.83-.05v185.06l-67.99-185.06h-67.41l-58.05,154.76c-6.18-39.02-46.55-52.5-78.31-62.6-20.97-6.73-43.22-16.64-43.01-27.59.17-8.99,11.93-17.33,35.24-16.08,15.67.83,29.48,2.09,56.97,15.35l27.04-47.09c-25.1-12.77-59.76-20.84-88.17-20.87h-.17c-33.13,0-60.74,10.73-77.85,28.42-11.93,12.35-18.35,28.04-18.62,45.4-.43,23.88,8.32,40.83,26.72,54.33,15.54,11.4,35.41,18.78,52.93,24.21,21.61,6.7,39.24,12.51,39.04,24.93-.16,4.51-1.87,8.73-5.12,12.15-5.38,5.56-13.66,7.64-25.09,7.86-22.04.47-38.4-2.99-64.44-18.38l-24.04,47.75c25.97,14.77,56.73,23.44,88.11,23.44l4.04-.05c27.32-.49,49.36-8.28,66.97-22.46,1.01-.8,1.92-1.62,2.85-2.45l-7.81,20.85h70.7l11.87-36.09c12.42,4.24,26.55,6.59,41.56,6.59s28.37-2.24,40.56-6.24l11.44,35.73h115.31v-74.72h25.14c60.79,0,96.74-30.96,96.74-82.84,0-57.79-34.93-84.31-109.31-84.31ZM520.3,387.84c-9.08,0-17.6-1.59-24.94-4.36l24.67-77.83h.47l24.24,78.05c-7.29,2.59-15.6,4.14-24.44,4.14ZM704.75,343.12h-17.14v-62.72h17.14c22.87,0,41.1,7.6,41.1,30.95s-18.23,31.77-41.1,31.77"/>
</svg>