<?xml version="1.0" encoding="UTF-8"?>
<svg id="LOGO" xmlns="http://www.w3.org/2000/svg" viewBox="0 0 1250 703">
  <defs>
    <style>
      .cls-1 {
        fill: #1e42ef;
      }

      .cls-1, .cls-2 {
        fill-rule: evenodd;
      }
    </style>
  </defs>
  <path class="cls-1" d="M593,353.87h-64.82c-4.18,0-8.03-2.25-10.08-5.9l-30.09-53.43c-1.99-3.52-1.99-7.82,0-11.34l30.09-53.43c2.05-3.65,5.9-5.9,10.08-5.9h36.84c4.18,0,8.03-2.25,10.08-5.9l27.29-48.47c2.18-3.85-.62-8.61-5.05-8.61h-99.27c-8.36,0-16.08,4.5-20.18,11.79l-59.04,104.84c-3.96,7.04-3.96,15.64,0,22.67l59.04,104.84c4.1,7.28,11.82,11.79,20.18,11.79h127.26c4.43,0,7.21-4.76,5.05-8.61l-27.29-48.47c-2.05-3.65-5.9-5.9-10.08-5.9l-.02.03Z"/>
  <path d="M767.45,206.64l-25.09-42.85c-2.25-3.85-7.85-3.8-10.03.08l-106.56,189.1c-1.99,3.52-2,7.83,0,11.36l27.74,49.56c2.21,3.93,7.86,3.94,10.08.03l104.06-184.26c4.04-7.15,3.96-15.92-.19-23.01h-.02Z"/>
  <path class="cls-2" d="M639.54,293.36l31.5-56.04c2-3.57,1.97-7.94-.08-11.48l-36.02-62.03c-2.25-3.86-7.84-3.83-10.05.06l-30.65,54.41c-1.97,3.49-1.99,7.74-.05,11.25l35.23,63.78c2.19,3.97,7.89,3.99,10.11.05Z"/>
  <path d="M860.99,206.64l-25.09-42.85c-2.25-3.85-7.84-3.8-10.03.08l-106.66,189.08c-1.99,3.52-2,7.83,0,11.36l27.96,49.6c2.21,3.92,7.86,3.92,10.08,0l103.95-184.26c4.04-7.15,3.96-15.92-.18-23.01h-.02Z"/>
  <path d="M664.41,455.63h6.21c1.48,0,2.58,1.37,2.27,2.81l-17.09,76.88c-.36,1.58-1.76,2.72-3.39,2.72h-8.09c-1.58,0-2.97-1.07-3.35-2.59l-14.71-56.65c-.45-1.72-2.9-1.74-3.35,0l-15.11,56.68c-.4,1.52-1.79,2.57-3.35,2.57h-8.09c-1.63,0-3.05-1.13-3.39-2.73l-16.76-76.88c-.31-1.44.78-2.81,2.27-2.81h6.91c1.66,0,3.09,1.16,3.4,2.79l11,55.47c.36,1.8,2.89,1.89,3.39.12l15.21-55.82c.4-1.5,1.79-2.56,3.36-2.56h6.27c1.57,0,2.95,1.05,3.36,2.58l15,55.84c.48,1.77,3.01,1.69,3.39-.11l11.29-55.53c.33-1.61,1.75-2.78,3.4-2.78h-.03Z"/>
  <path d="M351.96,501c0,5.48.31,9.93.93,13.38.62,3.43,1.74,6.11,3.36,8.04,1.63,1.92,3.84,3.24,6.66,3.94,2.81.7,6.43,1.04,10.84,1.04,2.22,0,11.85-.12,16.45-.2,1.48-.02,2.8.88,3.31,2.28l2.02,5.49c.54,1.51-.54,3.09-2.14,3.1-6.03.06-18.34.2-19.63.2-6.65,0-12.19-.68-16.64-2.03-4.44-1.35-8-3.49-10.66-6.42-2.66-2.93-4.54-6.78-5.62-11.51-1.09-4.75-1.62-10.52-1.62-17.3v-8.46c0-7.11.59-13.02,1.8-17.76,1.2-4.75,3.15-8.56,5.86-11.47,2.7-2.89,6.24-4.93,10.61-6.13,4.36-1.2,9.75-1.8,16.17-1.8,2.07,0,13.86.12,19.71.18,1.6.02,2.7,1.63,2.13,3.13l-2.1,5.51c-.51,1.37-1.83,2.27-3.29,2.23-4.89-.06-15.56-.2-16.7-.2-4.47,0-8.11.31-10.89.93-2.78.62-4.97,1.88-6.55,3.75-1.58,1.89-2.64,4.56-3.18,7.99-.54,3.43-.81,7.97-.81,13.61v8.46l-.02.02Z"/>
  <path d="M430.99,476.34c5.02,0,9.29.45,12.8,1.33,3.51.88,6.38,2.44,8.64,4.62,2.24,2.2,3.88,5.14,4.92,8.8,1.04,3.66,1.57,8.27,1.57,13.83v6.36c0,5.55-.53,10.16-1.57,13.83-1.04,3.66-2.69,6.59-4.92,8.8-2.24,2.2-5.11,3.74-8.64,4.62-3.53.88-7.78,1.33-12.8,1.33s-9.29-.45-12.8-1.33c-3.51-.88-6.4-2.44-8.64-4.62-2.24-2.19-3.88-5.14-4.92-8.8-1.04-3.66-1.57-8.27-1.57-13.83v-6.36c0-5.55.53-10.16,1.57-13.83,1.04-3.66,2.69-6.59,4.92-8.8,2.24-2.2,5.11-3.74,8.64-4.62,3.51-.88,7.78-1.33,12.8-1.33ZM446.53,504.94c0-4.1-.22-7.36-.64-9.77-.42-2.44-1.2-4.3-2.31-5.62-1.12-1.3-2.69-2.17-4.69-2.61-2-.42-4.63-.64-7.88-.64s-5.87.22-7.88.64c-2,.42-3.57,1.29-4.69,2.61-1.12,1.32-1.9,3.18-2.31,5.62-.42,2.44-.64,5.69-.64,9.77v6.36c0,4.1.22,7.35.64,9.77.42,2.44,1.2,4.3,2.31,5.62,1.12,1.32,2.69,2.19,4.69,2.61,2,.42,4.63.63,7.88.63s5.87-.22,7.88-.63c2-.42,3.57-1.29,4.69-2.61,1.12-1.3,1.89-3.18,2.31-5.62.42-2.44.64-5.69.64-9.77v-6.36Z"/>
  <path d="M473.29,538.03c-1.27,0-2.31-1.04-2.31-2.31v-38.66c0-3.48.54-6.42,1.62-8.86,1.09-2.44,2.61-4.39,4.58-5.9,1.97-1.5,4.35-2.61,7.13-3.3,2.78-.7,5.87-1.04,9.27-1.04,2.44,0,8.28.05,12.01.08,1.62.02,2.72,1.63,2.15,3.13l-1.8,4.7c-.53,1.35-1.83,2.23-3.28,2.22-2.81-.03-7.18-.08-7.91-.08-2.7,0-4.83.25-6.37.76-1.54.51-2.7,1.26-3.48,2.27-.78,1.01-1.26,2.23-1.44,3.71-.19,1.47-.3,3.12-.3,4.98v36c0,1.27-1.04,2.31-2.31,2.31h-7.55Z"/>
  <path d="M526.4,512.57c-1.3,0-2.36,1.09-2.31,2.39.06,2.17.23,3.99.48,5.48.34,2,1.04,3.58,2.08,4.75,1.04,1.16,2.5,1.95,4.35,2.37,1.85.42,4.33.64,7.43.64,1.75,0,14.48-.14,19.91-.2,1.47-.02,2.8.9,3.29,2.28l1.73,4.69c.54,1.51-.55,3.09-2.16,3.1-6.69.06-21.4.2-22.79.2-5.48,0-9.94-.63-13.39-1.91-3.45-1.27-6.13-3.09-8.11-5.45-1.97-2.36-3.29-5.21-3.99-8.56-.7-3.35-1.04-7.08-1.04-11.17v-6.49c0-4.39.37-8.35,1.1-11.87.73-3.5,2.08-6.48,4.05-8.91,1.97-2.42,4.71-4.3,8.23-5.62,3.51-1.3,8.09-1.97,13.73-1.97,5.17,0,9.41.6,12.69,1.8,3.28,1.2,5.87,2.82,7.77,4.86,1.9,2.05,3.18,4.39,3.88,7.06.7,2.67,1.04,5.43,1.04,8.27v1.74c0,2.78-.15,4.98-.47,6.59-.31,1.63-.81,2.87-1.51,3.75-.7.88-1.57,1.47-2.61,1.74-1.04.28-2.3.4-3.76.4h-29.64v.03ZM538.42,485.95c-3.09,0-5.56.23-7.43.7-1.85.47-3.31,1.33-4.35,2.61-1.04,1.27-1.74,3.03-2.08,5.26-.26,1.71-.43,3.82-.5,6.3-.03,1.3,1.01,2.39,2.32,2.39h24.2c1.27,0,2.32-1.04,2.32-2.31v-1.63c0-2.54-.22-4.69-.64-6.42-.42-1.74-1.2-3.1-2.32-4.11-1.12-1.01-2.61-1.72-4.46-2.14-1.85-.42-4.21-.64-7.07-.64Z"/>
  <path d="M692.2,512.57c-1.3,0-2.36,1.09-2.32,2.39.06,2.17.23,3.99.48,5.48.34,2,1.04,3.58,2.08,4.75,1.04,1.16,2.5,1.95,4.35,2.37,1.85.42,4.33.64,7.42.64,1.76,0,14.48-.14,19.91-.2,1.48-.02,2.8.9,3.29,2.28l1.72,4.69c.54,1.51-.54,3.09-2.16,3.1-6.7.06-21.41.2-22.79.2-5.48,0-9.94-.63-13.39-1.91-3.43-1.27-6.14-3.09-8.11-5.45-1.97-2.36-3.29-5.21-3.99-8.56-.7-3.35-1.04-7.08-1.04-11.17v-6.49c0-4.39.37-8.35,1.1-11.87.73-3.5,2.08-6.48,4.05-8.91,1.97-2.42,4.71-4.3,8.23-5.62,3.51-1.3,8.09-1.97,13.73-1.97,5.17,0,9.41.6,12.69,1.8,3.28,1.2,5.87,2.82,7.77,4.86,1.89,2.05,3.18,4.39,3.88,7.06.7,2.67,1.04,5.43,1.04,8.27v1.74c0,2.78-.16,4.98-.47,6.59-.31,1.63-.81,2.87-1.51,3.75-.7.88-1.57,1.47-2.61,1.74-1.04.28-2.3.4-3.76.4h-29.64v.03ZM704.22,485.95c-3.09,0-5.56.23-7.42.7-1.86.47-3.31,1.33-4.35,2.61-1.04,1.27-1.74,3.03-2.08,5.26-.27,1.71-.43,3.82-.5,6.3-.03,1.3,1.01,2.39,2.32,2.39h24.2c1.27,0,2.31-1.04,2.31-2.31v-1.63c0-2.54-.22-4.69-.64-6.42-.42-1.74-1.2-3.1-2.31-4.11-1.12-1.01-2.61-1.72-4.46-2.14-1.85-.42-4.21-.64-7.07-.64Z"/>
  <path d="M875.33,512.57c-1.3,0-2.36,1.09-2.31,2.39.06,2.17.23,3.99.48,5.48.34,2,1.04,3.58,2.08,4.75,1.04,1.16,2.5,1.95,4.35,2.37,1.85.42,4.33.64,7.42.64,1.76,0,14.48-.14,19.91-.2,1.48-.02,2.8.9,3.29,2.28l1.72,4.69c.54,1.51-.54,3.09-2.16,3.1-6.7.06-21.41.2-22.79.2-5.48,0-9.94-.63-13.39-1.91-3.43-1.27-6.14-3.09-8.11-5.45-1.97-2.36-3.29-5.21-3.99-8.56-.7-3.35-1.04-7.08-1.04-11.17v-6.49c0-4.39.37-8.35,1.1-11.87.73-3.5,2.08-6.48,4.05-8.91,1.97-2.44,4.71-4.3,8.23-5.62,3.51-1.3,8.09-1.97,13.73-1.97,5.17,0,9.41.6,12.69,1.8,3.28,1.2,5.87,2.82,7.76,4.86,1.9,2.05,3.18,4.39,3.88,7.06.7,2.65,1.04,5.43,1.04,8.27v1.74c0,2.78-.16,4.98-.47,6.59-.31,1.63-.81,2.87-1.51,3.75-.7.88-1.57,1.47-2.61,1.74-1.04.28-2.3.4-3.76.4h-29.64v.03ZM887.35,485.95c-3.09,0-5.56.23-7.42.7-1.86.47-3.31,1.33-4.35,2.61-1.04,1.27-1.74,3.03-2.08,5.26-.27,1.71-.44,3.82-.5,6.3-.03,1.3,1.01,2.39,2.31,2.39h24.2c1.27,0,2.31-1.04,2.31-2.31v-1.63c0-2.54-.22-4.69-.64-6.42-.42-1.74-1.2-3.1-2.32-4.11-1.12-1.01-2.61-1.72-4.46-2.14-1.85-.42-4.21-.64-7.07-.64Z"/>
  <path d="M791.59,528.09c0,3.71-.85,6.28-2.55,7.76-1.69,1.47-4.8,2.2-9.27,2.2h-17.38c-8.11,0-13.93-1.49-17.44-4.45-3.51-2.96-5.27-7.43-5.27-13.37v-2.54c0-6.49,1.91-11.11,5.73-13.89,3.82-2.78,9.78-4.17,17.91-4.17,4.63,0,8.26.37,10.89,1.1,1.31.37,2.45.74,3.42,1.15,1.13.47,2.38-.39,2.38-1.61v-.62c0-1.92-.14-3.6-.4-5.04-.28-1.43-.93-2.62-1.97-3.59-1.04-.96-2.55-1.69-4.52-2.2-1.97-.5-4.66-.76-8.05-.76-2.52,0-14.1.14-19.23.2-1.48.02-2.8-.9-3.31-2.28l-1.73-4.69c-.54-1.5.54-3.09,2.14-3.1,6.29-.06,19.63-.2,22.11-.2,9.35,0,16.11,1.65,20.29,4.92,4.18,3.27,6.26,8.13,6.26,14.52v30.67ZM751.02,520.1c0,2.7.81,4.73,2.44,6.08,1.62,1.35,4.6,2.03,8.92,2.03h15.3c1.27,0,2.32-1.04,2.32-2.31v-8.33c0-1.46-.16-2.75-.47-3.82-.31-1.07-.93-1.94-1.85-2.61-.93-.65-2.28-1.13-4.05-1.44-1.77-.31-4.13-.47-7.07-.47h-2.66c-2.55,0-4.66.14-6.32.4-1.66.28-2.98.73-3.95,1.4-.96.65-1.65,1.52-2.03,2.61-.39,1.09-.58,2.44-.58,4.05v2.44-.03Z"/>
  <path d="M810.82,480.52l13.9,39.72c.54,1.54,2.72,1.55,3.28,0l14.32-39.75c.5-1.38,1.8-2.3,3.26-2.3h6.82c1.63,0,2.75,1.63,2.16,3.15l-21.09,54.47c-.51,1.33-1.8,2.22-3.23,2.22h-8.11c-1.43,0-2.72-.88-3.23-2.22l-21.09-54.47c-.59-1.52.53-3.15,2.16-3.15h7.6c1.48,0,2.8.93,3.28,2.33h-.02Z"/>
</svg>