<?xml version="1.0" encoding="UTF-8"?><svg id="LOGO" xmlns="http://www.w3.org/2000/svg" viewBox="0 0 1250 703"><g id="Digital_Realty"><path d="M949.76521,421.02077v1.16321h-3.32346v7.78642h-1.25817v-7.78642h-3.32346v-1.16321h7.90508Zm3.01484,0l3.56086,7.38286,3.58462-7.38286h1.75667v8.94963h-1.18695v-7.52529l-3.65584,7.52529h-1.02076l-3.58462-7.52529v7.52529h-1.16319v-8.94963h1.70922Z"/><path d="M904.35233,358.32586l16.07133,29.38898,16.90222-29.38899h17.09217l-26.30287,45.03304v26.61151h-15.35919v-26.61151l-26.30291-45.03305h17.92302l-.02376,.00002Zm-19.79839,0v13.19893h-20.67676v58.44562h-15.35919v-58.44563h-20.67676v-13.19893h56.71271Zm-74.8256,0h-15.35919v71.6683h45.86389v-13.19893h-30.50474v-58.44563l.00004-.02374Zm-64.59406,0h18.42152l25.99429,71.6683h-16.47493l-5.53121-15.66779h-27.22873l-5.53121,15.66779h-15.85769l26.20793-71.6683h.00004Zm18.2316,43.6087l-9.51936-27.22873-9.42442,27.22873h18.94378Zm-49.68589-43.6087v13.19893h-32.75994v16.07136h26.61153v12.58172h-26.61153v16.59361h33.87568v13.19893h-49.23487v-71.6683h48.11913v.02374Zm-69.76917,2.91991c3.98815,1.9466,7.07424,4.72408,9.25823,8.33241,2.18399,3.60834,3.27601,7.81016,3.27601,12.58171s-1.09201,8.61729-3.27601,12.13066c-2.18399,3.51339-5.19887,6.1959-8.9971,8.04755l14.12475,27.63229h-16.99719l-11.98824-24.04769h-13.00901v24.04769h-15.35919v-71.6683h29.17532c5.1751,0,9.78049,.9733,13.76868,2.91991l.02376,.02376Zm-15.00312,31.8816c3.60835,0,6.50452-.99704,8.64103-2.96739,2.16027-1.97035,3.22852-4.65286,3.22852-7.97633s-1.06825-6.10094-3.22852-8.09503c-2.16027-1.97035-5.03267-2.96739-8.64103-2.96739h-12.58172v22.00613h12.58172Zm302.29353-63.35962v-58.46937h-15.35919v71.6683h45.86393v-13.19893s-30.50474,0-30.50474,0Zm-64.59403-58.44563h18.42152l25.99429,71.6683h-16.47493l-5.53121-15.66779h-27.22873l-5.53121,15.66779h-15.85769l26.20793-71.6683h.00004Zm18.2316,43.6087l-9.51936-27.22873-9.42442,27.22873h18.94378Zm-35.41871-43.6087v13.19893h-20.67676v58.44562h-15.35919v-58.44563h-20.67676v-13.19893h56.71271Zm-62.95606,0v71.6683h-15.35919v-71.69204h15.35919v.02374Zm-76.41612,3.89321c5.36502-2.99113,11.6559-4.51043,18.89633-4.51043,5.67364,0,10.7538,1.092,15.26421,3.27599,4.51041,2.184,8.14249,5.24634,10.89623,9.21076,2.75374,3.96443,4.46296,8.49859,5.05644,13.62623h-15.14555c-.94955-4.03565-2.87245-7.21668-5.74485-9.56685-2.87245-2.35017-6.45703-3.53712-10.7538-3.53712-3.96442,0-7.40658,.99704-10.35024,2.96739-2.94366,1.97034-5.1751,4.74782-6.76565,8.28494-1.59055,3.53712-2.35018,7.62024-2.35018,12.17815,0,7.02677,1.73294,12.70041,5.1751,16.99718,3.44216,4.29678,8.21374,6.45703,14.29094,6.45703,4.4392,0,8.35617-1.21069,11.7746-3.63208,3.41843-2.42139,5.46-5.98225,6.14841-10.70633v-.92582h-17.80431v-12.17815h32.04776v39.81045h-10.6351l-1.638-8.90216c-2.11278,2.80121-4.93773,5.08016-8.4986,6.86059-3.56086,1.78043-7.66771,2.65877-12.3918,2.65877-6.76565,0-12.70042-1.49556-17.87553-4.51043-5.15138-2.99112-9.13956-7.26416-11.98824-12.79536-2.82496-5.5312-4.24928-11.91702-4.24928-19.13371s1.42436-13.69745,4.29677-19.20492c2.87241-5.50747,6.9793-9.73303,12.34432-12.74789l.00004,.02375Zm-24.61742-3.89321v71.6683h-15.35919v-71.69204h15.35919v.02374Zm-59.58512,0c7.16921,0,13.48378,1.5193,18.99127,4.5579,5.48372,3.0386,9.73304,7.26416,12.70042,12.70041,2.96739,5.43625,4.46296,11.60841,4.46296,18.5877s-1.49557,13.15145-4.46296,18.5877c-2.96739,5.43625-7.19294,9.66181-12.70042,12.70041-5.48372,3.0386-11.82205,4.5579-18.99127,4.5579h-24.87855v-71.71577h24.87855v.02374Zm15.09806,52.55833c3.58459-4.20182,5.36502-9.7805,5.36502-16.73605s-1.78043-12.53424-5.36502-16.73605c-3.58459-4.20182-8.6173-6.29086-15.09806-6.29086h-9.51936v46.07757h9.51936c6.48076,0,11.51347-2.08904,15.09806-6.29086v-.02374Z"/><path d="M447.35126,469.56721v-29.72134c27.32369,0,49.54348-22.21978,49.54348-49.54348h29.72134c0,43.70364-35.56114,79.28854-79.28854,79.28854l.02373-.02373Zm0-237.84189v29.72133c27.32369,0,49.54348,22.21978,49.54348,49.54347h29.72134c.02373-43.70365-35.53743-79.2648-79.26482-79.2648Zm-79.2648,208.09682h-49.56721v-49.54348h-29.72133v79.28854h79.28854v-29.74507Zm-49.56721-178.37549h49.54347v-29.72133h-79.2648v79.28854h29.72133v-49.56721Z"/></g></svg>