<?xml version="1.0" encoding="UTF-8"?><svg id="LOGOS" xmlns="http://www.w3.org/2000/svg" viewBox="0 0 1250 703"><defs><style>.cls-1{fill:gray;}.cls-1,.cls-2{stroke-width:0px;}.cls-2{fill:#0076ce;}</style></defs><g id="Layer_4"><path class="cls-2" d="m891.46716,335.70709v31.26164h-101.47589v-157.30015h35.72756v126.03851h65.74833Zm-469.17084,31.26147c36.60106,0,67.36186-25.00157,76.13806-58.85791l88.98983,69.52651,88.93392-69.48284v58.81441h101.47589v-31.26164h-65.74833v-126.03851h-35.72756v58.81427l-85.3071,66.64929-19.07842-14.90577,40.84021-31.90771,44.46688-34.74142-25.38845-19.83582-85.30726,66.64929-19.07843-14.90577,85.30726-66.64929-25.38862-19.83566-88.98983,69.52652c-8.77604-33.85634-39.537-58.85794-76.13806-58.85794h-63.76349v157.29999h63.76349Zm-28.03608-31.26147v-94.77701h28.03608c23.70562,0,42.92266,21.21662,42.92266,47.38842s-19.21704,47.38859-42.92266,47.38859h-28.03608Z"/><path class="cls-1" d="m891.46651,468.46861c0-9.40474-5.22895-13.58534-15.68219-15.67771-10.44877-2.0879-16.71711-3.1364-16.71711-10.44877,0-5.22447,4.18027-8.36087,11.49712-8.36087,9.40491,0,12.5413,4.18044,12.5413,9.40491l1.04403,1.04387h4.18044l1.0485-1.04387c0-10.44894-8.3655-14.63384-18.81427-14.63384-11.49712,0-17.76563,6.27297-17.76563,13.58981,0,8.36087,6.2685,12.54114,16.71728,14.62921,10.45325,2.09253,15.67755,3.1364,15.67755,11.49727,0,5.22447-3.13177,9.40474-13.58518,9.40474-9.40474,0-13.58518-5.22877-13.58518-11.49711l-1.04403-1.04403h-4.18044l-1.04403,1.04403c0,9.40474,7.31254,16.72158,19.85368,16.72158,13.58518,0,19.85816-6.26834,19.85816-14.62921m-44.93615-10.44877l1.03941-1.0485v-3.13194c0-14.63368-8.36088-25.08708-22.9901-25.08708s-22.98992,10.45341-22.98992,25.08708v2.08807c0,14.62921,7.31668,27.17035,24.03842,27.17035,14.62921,0,19.85368-9.40474,20.90218-15.67771l-1.0485-1.04387h-4.18044l-1.04403,1.04387c-2.09237,6.27297-6.2728,10.45324-14.62921,10.45324-13.58964,0-17.77008-12.54114-17.77008-18.80948l1.04835-1.04403h37.62391Zm-6.27297-5.22894h-31.35094l-1.04835-1.04403c0-7.31684,4.18044-17.76561,16.72158-17.76561s16.72174,10.44877,16.72174,17.76561l-1.04403,1.04403Zm-45.98463,28.21902v-50.16954l-1.04387-1.04403h-4.18044l-1.04403,1.04403v50.16954l1.04403,1.04403h4.18044l1.04387-1.04403Zm0-60.61848v-6.26834l-1.04387-1.04403h-4.18044l-1.04403,1.04403v6.26834l1.04403,1.0485h4.18044l1.04387-1.0485Zm-39.7072,57.48191c-10.45324,0-16.72621-7.31667-16.72621-21.94588,0-14.63384,6.27297-21.94622,16.72621-21.94622,10.44431,0,16.71711,7.31237,16.71711,21.94622,0,14.62921-6.2728,21.94588-16.71711,21.94588m16.71711-3.1364c0,13.58534-3.1364,24.03858-15.67771,24.03858-9.40474,0-12.54131-4.18027-13.58518-9.40474l-1.04403-1.0485h-4.18044l-1.04387,1.0485c1.04387,8.36087,7.31221,14.62921,19.85352,14.62921,13.58981,0,21.94621-8.36087,21.94621-29.26305v-43.89657l-1.04403-1.04403h-3.1364l-1.04403,1.04403-1.04403,6.27727h-1.0485c-2.0879-4.18044-7.31221-8.36534-16.72158-8.36534-14.62921,0-21.94621,11.49744-21.94621,27.17515,0,15.67308,7.317,27.17035,21.94621,27.17035,9.40937,0,14.63368-4.17597,16.72158-8.36087h1.0485Zm-67.92621-40.7557c10.44877,0,17.76115,8.36087,17.76115,21.94622s-7.31237,21.94588-17.76115,21.94588c-10.45323,0-17.77008-8.36071-17.77008-21.94588s7.31685-21.94622,17.77008-21.94622m0,49.11657c13.58518,0,24.03412-9.40474,24.03412-27.17035s-10.44894-27.17515-24.03412-27.17515c-13.58981,0-24.03858,9.40937-24.03858,27.17515s10.44877,27.17035,24.03858,27.17035m-31.35541-2.0879v-71.06708l-1.04404-1.04403h-4.18027l-1.04867,1.04403v71.06708l1.04867,1.04403h4.18027l1.04404-1.04403Zm-37.6193-47.02867c10.44877,0,17.76579,8.36087,17.76579,21.94622s-7.31701,21.94588-17.76579,21.94588c-10.45324,0-17.77024-8.36071-17.77024-21.94588s7.317-21.94622,17.77024-21.94622m0,49.11657c13.58534,0,24.03858-9.40474,24.03858-27.17035s-10.45324-27.17515-24.03858-27.17515-24.03858,9.40937-24.03858,27.17515,10.45323,27.17035,24.03858,27.17035m-30.30692-2.0879v-31.35542c0-13.58534-7.31237-20.90218-18.80965-20.90218-7.31684,0-13.58981,3.14103-16.72174,8.36534h-1.0485l-1.0394-6.27727-1.0485-1.04403h-3.1364l-1.04403,1.04403v50.16954l1.04403,1.04403h4.1849l1.0394-1.04403v-28.21902c0-11.49727,5.22894-18.80965,16.72174-18.80965,8.36087,0,13.58518,5.22447,13.58518,15.67325v31.35542l1.04867,1.04403h4.18027l1.04403-1.04403Zm-53.30147,0v-31.35542c0-13.58534-7.317-20.90218-18.80965-20.90218-7.317,0-13.58534,3.14103-16.72174,8.36534h-1.04403v-27.17482l-1.04387-1.04403h-4.18044l-1.0485,1.04403v71.06708l1.0485,1.04403h4.18044l1.04387-1.04403v-28.21902c0-11.49727,5.22894-18.80965,16.72174-18.80965,8.36087,0,13.58518,5.22447,13.58518,15.67325v31.35542l1.04403,1.04403h4.1849l1.03957-1.04403Zm-89.87243-25.08245c0-14.63384,7.31237-21.94622,17.76578-21.94622,10.44877,0,14.62921,6.2685,15.67308,12.53684l1.04403,1.0485h4.1849l1.04403-1.0485c-1.04403-10.44894-9.40937-17.76578-21.94605-17.76578-13.58534,0-24.03412,8.36534-24.03412,27.17515s10.44877,27.17035,24.03412,27.17035c12.53668,0,20.90202-7.31684,21.94605-17.76561l-1.04403-1.04387h-4.1849l-1.04403,1.04387c-1.04387,6.26834-5.2243,12.54114-15.67308,12.54114-10.45341,0-17.76578-7.31667-17.76578-21.94588m-11.49727,2.09237l1.0485-1.0485v-3.13194c0-14.63368-8.36534-25.08708-22.99902-25.08708-14.62475,0-22.99008,10.45341-22.99008,25.08708v2.08807c0,14.62921,7.31684,27.17035,24.03858,27.17035,14.62921,0,19.85352-9.40474,20.90202-15.67771l-1.0485-1.04387h-4.1758l-1.0485,1.04387c-2.08807,6.27297-6.2685,10.45324-14.62921,10.45324-13.58534,0-17.76578-12.54114-17.76578-18.80948l1.04403-1.04403h37.62376Zm-6.2728-5.22894h-31.35096l-1.04403-1.04403c0-7.31684,4.18044-17.76561,16.71728-17.76561,12.54577,0,16.72621,10.44877,16.72621,17.76561l-1.0485,1.04403Zm-28.15997-39.71183v-3.13624l-1.04403-1.04403h-54.3455l-1.04851,1.04403v3.13624l1.04851,1.04403h22.99007l1.04403,1.04403v65.84278l1.0485,1.04403h4.18027l1.04403-1.04403v-65.84278l1.04403-1.04403h22.99455l1.04403-1.04403Z"/></g></svg>