<svg id="LOGO" xmlns="http://www.w3.org/2000/svg" viewBox="0 0 1250 703"><defs><style>.cls-1{fill:#005386;fill-rule:evenodd;}</style></defs><title>dassault-systems-logo</title><path class="cls-1" d="M295.79,186c23.9-1.13,52.17,4,57.43,20.82,8.62,27.62-35.12,67.89-73.25,87.67-9.34,4.86-15,6.16-17.34,5.84s-2.6-2.57-1.89-4.09c1.37-2.92,7.53-8.82,15.73-15.24,42.93-33.52,56.87-58.13,48.76-68.09-5.18-6.39-26.91-10.83-49.51-10.83-6.16,0-22.27,1.43-23.92-4.21-1.3-4.7,20.29-10.8,44-11.9M245.28,312.66c20.49-1.2,45.36,2.4,59.33,13.1a25.09,25.09,0,0,1,9,26.26c-8.11,31.81-38.2,70.29-105,99.86-21.31,9.4-38,13-41.51,10.47-3.79-2.69,7.17-23.66,10.48-30.64,10.7-22.56,24-44.54,37-64.65,4.8-7.39,12.19-20.23,18.87-19.22,6,.94-1,14.59-5.64,23.24-7.78,14.56-29.11,55-22.05,57.39,15.57,5.38,88.71-50.25,77.92-81.25-5-14.4-36.77-15.76-56.74-15.76-9.08,0-29,2.14-30.09-4.83-1.17-6.42,30.18-12.87,48.44-13.94"/><path class="cls-1" d="M403.47,278.58c12.29,2.24,22.31,3.95,24.61,9.14,2.6,5.87-10.83,6.23-17.57,6.39-32.33.62-51.85,1.26-52.82,12.26-1.26,14.13,13.85,28.37,28.73,48.31,13.62,18.25,29.08,36.25,24.64,53C405.48,428.6,379.87,433,355.49,433a299.72,299.72,0,0,1-54.8-5.58c-11.57-2.26-9.86-8-6.78-9.85,3.47-2,23.15-2.11,36.84-2.92,11.25-.65,44-.65,49.05-9,6.26-10.25-9.08-27.82-23.11-46.21-17.51-22.92-36.81-46.62-26.59-63.9,13.19-22.38,51.78-20.85,73.37-17m504.06,62.74c25.93,0,36-8.89,40.07-29.41l6.16-32c.42-2.14-.87-2.79-2.49-2.79H938.72l-3.47,18.42-2,9.79-1.65,8.49c-2.3,11.61-9.83,16.83-22.54,16.83-14,0-17.73-5.09-15.56-16.83l.75-3.79,2.88-14.49,3.47-18.42H888.07a3.26,3.26,0,0,0-3.56,2.79l-6.17,32c-4.21,22.53,7,29.41,29.19,29.41ZM466.34,376c-1.88,8.85,5,13.1,19.07,21.82,15.36,9.53,18.87,10.25,17.44,15.27-1.1,4.06-5.16,4.22-12.06,4.22H463.46c-3.12,0-4.93,1.3-5.48,4.05L456.91,427h34.46c15.79,0,25.68-1,29.28-10.63A13.14,13.14,0,0,0,518.12,402a38,38,0,0,0-9.79-7.07c-19.71-11.15-24.87-12.45-23.6-17.83.68-3.05,2.78-3.14,10.21-3.14h23.12c3.11,0,4.92-1.3,5.44-4.06l1.14-5.83H495.39c-16.57,0-26.52.06-29.05,12Zm152.07,0c-1.85,8.85,5.05,13.1,19.09,21.82,15.37,9.53,18.87,10.25,17.45,15.27-1.14,4.06-5.19,4.22-12.06,4.22H615.52c-3.11,0-4.89,1.3-5.45,4.05L609,427h34.5c15.79,0,25.68-1,29.25-10.63a13.09,13.09,0,0,0-2.5-14.37,37.9,37.9,0,0,0-9.82-7.07c-19.69-11.15-24.84-12.45-23.61-17.83.71-3.05,2.79-3.14,10.21-3.14h23.15c3.08,0,4.9-1.3,5.45-4.06l1.14-5.83H647.49c-16.6,0-26.52.06-29,12Zm385.45,0c-1.88,8.85,5,13.1,19.06,21.82,15.37,9.53,18.87,10.25,17.44,15.27-1.13,4.06-5.15,4.22-12.06,4.22h-27.36c-3.08,0-4.9,1.3-5.45,4.05L994.42,427h34.47c15.79,0,25.68-1,29.27-10.63a13.12,13.12,0,0,0-2.52-14.37,38,38,0,0,0-9.83-7.07c-19.68-11.15-24.83-12.45-23.57-17.83.65-3.05,2.79-3.14,10.21-3.14h23.12c3.11,0,4.9-1.3,5.45-4.06l1.13-5.83h-29.24c-16.57,0-26.53.06-29.05,12ZM776.24,329.32a13.09,13.09,0,0,0-2.49-14.39,38,38,0,0,0-9.83-7.14c-19.68-11.12-24.83-12.38-23.6-17.77.71-3,2.82-3.17,10.24-3.17h23.12c3.11,0,4.9-1.27,5.45-4l1.13-5.9H751c-16.57,0-26.52.09-29.09,12-1.84,8.85,5.06,13.13,19.1,21.86,15.37,9.53,18.87,10.24,17.45,15.27-1.14,4.05-5.16,4.21-12.07,4.21H719.08c-3.14,0-4.93,1.3-5.48,4.06l-1.07,5.6H747c15.79,0,25.68-1,29.28-10.63Zm-73.44,0a13.11,13.11,0,0,0-2.52-14.39,38.29,38.29,0,0,0-9.8-7.14c-19.74-11.12-24.86-12.38-23.6-17.77.65-3,2.76-3.17,10.21-3.17h23.09c3.14,0,4.93-1.27,5.48-4l1.13-5.9H677.55c-16.6,0-26.53.09-29,12-1.88,8.85,5,13.13,19.06,21.86C682.9,320.31,686.43,321,685,326.05c-1.1,4.05-5.15,4.21-12.06,4.21H645.61c-3.15,0-4.93,1.3-5.51,4.06l-1.07,5.6h34.5c15.79,0,25.68-1,29.27-10.63Zm320.74-52.2c-3.12,0-4.87,1.07-5.32,3.4l-1.23,6.36h24.7l-10.31,53h11.09c3.11,0,4.93-1.29,5.55-4.47l9.46-48.57h20.63c2.91,0,4-1.3,4.47-3.86l1.13-5.9ZM484.79,294.6a2.85,2.85,0,0,0-2.92,2.1l-8.43,43.22h37.19c20.85,0,35.28-7.74,39.79-31.77,3.37-17.93-4.41-31-25.62-31h-45l-.2.81c-1,4.22-.48,8.88,6.65,8.88h32.68c15.76,0,18,7.88,14.85,21.73-3.08,13.62-8.46,20.62-20.3,21.69H491.11L498,294.56Zm529.93,39.46c.55-2.76-.42-3.83-2.92-3.83H978.08l9.92-51a1.83,1.83,0,0,0-1.94-2.14H972.63l-12.19,62.8h53.14ZM914.4,364.21H900.2l-27.56,24.48-18-24.48h-14.2c-2.33,0-3.6,1.46-4.09,4L824.88,427H837a4,4,0,0,0,4.38-3.6l8.56-44,13.88,19.77a3.68,3.68,0,0,0,3.3,1.95h6.26a5.78,5.78,0,0,0,4-1.95L899,379.42l-8.56,44c-.46,2.34.45,3.6,3,3.6h12.07l11.41-58.75C917.42,365.67,916.77,364.21,914.4,364.21Zm-150.44,4L752.54,427h58l1.2-6.29c.52-2.56-.13-3.4-3-3.4H770.18l3.28-16.86h34.07a1.83,1.83,0,0,0,1.85-1.5l1.3-6.67a1.17,1.17,0,0,0-1.27-1.5h-34l3.24-16.82H815.8c1.75,0,3.5,0,4-2.34l1.43-7.39h-52.4c-2.72,0-4.35,1.26-4.86,4Zm172.29,0L924.81,427h58l1.23-6.29c.48-2.56-.13-3.4-3.05-3.4H942.48l3.27-16.86h34.08a1.83,1.83,0,0,0,1.85-1.5l1.3-6.67a1.19,1.19,0,0,0-1.27-1.5H947.63l3.25-16.82H988.1c1.75,0,3.5,0,3.95-2.34l1.43-7.39H941.12c-2.73,0-4.32,1.26-4.87,4Zm-348-1.91-5.54,28.59c-9.73,3-35,8.43-31-11.77l3.69-18.93H542.08a2.9,2.9,0,0,0-2.92,2.11l-3.37,17.25c-6.35,32.78,24.68,28.3,44.78,22.14L576.42,427h11.09c3.14,0,4.93-1.3,5.57-4.44l11.32-58.36H591a2.89,2.89,0,0,0-2.76,2.14ZM754,370.08l1.14-5.87H695c-3.11,0-4.86,1-5.35,3.4l-1.23,6.33h24.71l-10.28,53H714c3.11,0,4.89-1.3,5.54-4.44l9.44-48.64h20.65c2.92,0,4-1.26,4.44-3.82ZM581,303.51c2.36-12.22,9.5-16.66,22.21-16.66,13.45,0,17,5.06,14.78,16.66l-.71,3.8c-.29,1.29-.88,4.67-4.38,4.67H579.3l1.63-8.43Zm-19,36.41h11.9l3.44-18.25h37l-3.44,18.25h11.87a3.2,3.2,0,0,0,3.47-2.75l6.16-31.71c4.54-24.06-9-29.18-27.36-29.18-21.92,0-34.47,5.51-39.24,29.18l-6.16,31.71c-.42,2.11.81,2.75,2.37,2.75Zm249.72-36.41c2.37-12.22,9.5-16.66,22.21-16.66,13.46,0,17,5.06,14.82,16.66l-.74,3.8c-.3,1.29-.88,4.67-4.35,4.67H810.06l1.65-8.43Zm-18.93,36.41h11.87l3.47-18.25h37l-3.44,18.25h11.87a3.21,3.21,0,0,0,3.47-2.75l6.16-31.71c4.54-24.06-9-29.18-27.37-29.18-21.92,0-34.43,5.51-39.23,29.18l-6.16,31.71c-.42,2.11.81,2.75,2.4,2.75Z"/></svg>