<?xml version="1.0" encoding="utf-8"?>
<!-- Generator: Adobe Illustrator 27.4.0, SVG Export Plug-In . SVG Version: 6.00 Build 0)  -->
<svg version="1.1" id="Art_3.0" xmlns="http://www.w3.org/2000/svg" xmlns:xlink="http://www.w3.org/1999/xlink" x="0px" y="0px"
	 viewBox="0 0 48 48" style="enable-background:new 0 0 48 48;" xml:space="preserve">
<style type="text/css">
	.st0{fill:#FFFFFF;}
	.st1{fill:#FFFFFF;fill-opacity:0;}
</style>
<g>
	<polygon class="st0" points="30.5,33.5 14.79248,33.5 10.2583,38.03418 9.04346,33.5 5.49951,33.5 5.49951,16.5 15.5,16.5 
		15.5,15.5 4.49951,15.5 4.49951,34.5 8.27588,34.5 9.74072,39.96582 15.20654,34.5 31.5,34.5 31.5,28.5 30.5,28.5 	"/>
	<path class="st0" d="M16.5,8.5v19h16.29297l5.46582,5.46582L39.72363,27.5H43.5v-19H16.5z M42.5,26.5h-3.54395l-1.21484,4.53418
		L33.20703,26.5H17.5v-17h25V26.5z"/>
	<path class="st0" d="M37,20.5c1.37842,0,2.5-1.12158,2.5-2.5s-1.12158-2.5-2.5-2.5s-2.49951,1.12158-2.49951,2.5
		S35.62158,20.5,37,20.5z M37,16.5c0.82715,0,1.5,0.67285,1.5,1.5s-0.67285,1.5-1.5,1.5c-0.82666,0-1.49951-0.67285-1.49951-1.5
		S36.17334,16.5,37,16.5z"/>
	<path class="st0" d="M30.00049,20.5c1.37842,0,2.5-1.12158,2.5-2.5s-1.12158-2.5-2.5-2.5s-2.5,1.12158-2.5,2.5
		S28.62207,20.5,30.00049,20.5z M30.00049,16.5c0.82715,0,1.5,0.67285,1.5,1.5s-0.67285,1.5-1.5,1.5s-1.5-0.67285-1.5-1.5
		S29.17334,16.5,30.00049,16.5z"/>
	<path class="st0" d="M23.00098,20.5c1.37842,0,2.5-1.12158,2.5-2.5s-1.12158-2.5-2.5-2.5s-2.5,1.12158-2.5,2.5
		S21.62256,20.5,23.00098,20.5z M23.00098,16.5c0.82715,0,1.5,0.67285,1.5,1.5s-0.67285,1.5-1.5,1.5s-1.5-0.67285-1.5-1.5
		S22.17383,16.5,23.00098,16.5z"/>
</g>
<rect class="st1" width="48" height="48"/>
</svg>
