<?xml version="1.0" encoding="utf-8"?>
<!-- Generator: Adobe Illustrator 27.1.1, SVG Export Plug-In . SVG Version: 6.00 Build 0)  -->
<svg version="1.1" id="Note" xmlns="http://www.w3.org/2000/svg" xmlns:xlink="http://www.w3.org/1999/xlink" x="0px" y="0px"
	 viewBox="0 0 48 48" style="enable-background:new 0 0 48 48;" xml:space="preserve">
<style type="text/css">
	.st0{fill:#FFFFFF;}
	.st1{fill:#FFFFFF;fill-opacity:0;}
</style>
<path class="st0" d="M23.99951,18.5c-1.92969,0-3.5,1.56982-3.5,3.5s1.57031,3.5,3.5,3.5C25.92969,25.5,27.5,23.93018,27.5,22
	S25.92969,18.5,23.99951,18.5z M23.99951,24.5c-1.37842,0-2.5-1.12109-2.5-2.5s1.12158-2.5,2.5-2.5
	C25.37842,19.5,26.5,20.62109,26.5,22S25.37842,24.5,23.99951,24.5z M30.5,30.80322V16c0-6.19629-5.96875-10.24658-6.22266-10.41602
	L24,5.39892l-0.27734,0.18506C23.46875,5.75341,17.5,9.80371,17.5,16v14.80322l-4.40137,4.0332l1.51758,5.66357H16.5v-3.19092
	l1.61816-0.80908h1.49805l0.80371,3H23.5v1h1v-1h3.07812l0.80811-3h1.49561L31.5,37.30907v3.19092h1.88379l1.51758-5.66357
	C34.90137,34.83642,30.5,30.80322,30.5,30.80322z M24,6.61621c1.11377,0.83545,5.19287,4.21387,5.4729,8.88379H18.5271
	C18.80713,10.83008,22.88623,7.45166,24,6.61621z M15.5,36.69092V39.5h-0.11621l-1.16211-4.33643L17.5,32.15966v3.53125l-2,1
	V36.69092z M21.1875,38.5l-0.53589-2H23.5v2H21.1875z M26.81152,38.5H24.5v-2h2.85034L26.81152,38.5z M27.61963,35.5H24.5v-5h-1v5
	h-5v-19h11v19H27.61963z M32.61621,39.5H32.5v-2.80908l-2-1v-3.53125l3.27832,3.00391l-1.16211,4.33643V39.5z"/>
<rect class="st1" width="48" height="48"/>
</svg>
