<svg viewBox="0 0 48 48" fill="none" xmlns="http://www.w3.org/2000/svg">
<g clip-path="url(#clip0_141_2048)">
<path d="M42.5 33.5V10.5H5.5V33.5H20.347L19.547 36.5H16.5V37.5H31.5V36.5H28.456L27.651 33.5H42.5ZM6.5 11.5H41.5V32.5H6.5V11.5ZM27.42 36.5H20.579L21.379 33.5H26.613L27.42 36.5ZM7.5 31.5H40.5V12.5H7.5V31.5ZM8.5 13.5H39.5V30.5H8.5V13.5ZM30 23.5C29.4057 23.5026 28.8322 23.7187 28.384 24.109L26.355 22.809C26.5343 22.3299 26.5477 21.8046 26.393 21.317L28.357 19.353C28.6792 19.5082 29.0458 19.5443 29.3921 19.455C29.7383 19.3657 30.0418 19.1568 30.2487 18.8651C30.4557 18.5735 30.5527 18.2181 30.5227 17.8618C30.4926 17.5055 30.3374 17.1713 30.0846 16.9184C29.8317 16.6656 29.4975 16.5104 29.1412 16.4803C28.7849 16.4503 28.4295 16.5473 28.1379 16.7543C27.8462 16.9612 27.6373 17.2647 27.548 17.6109C27.4587 17.9572 27.4948 18.3238 27.65 18.646L25.9 20.394C25.6837 20.1367 25.4172 19.9262 25.1168 19.7753C24.8165 19.6243 24.4885 19.5361 24.153 19.516L23.779 17.276C24.0823 17.0937 24.3113 16.8101 24.4257 16.4752C24.5401 16.1404 24.5324 15.7759 24.404 15.4462C24.2757 15.1165 24.0349 14.8427 23.7242 14.6734C23.4135 14.504 23.053 14.4499 22.7063 14.5207C22.3596 14.5914 22.0491 14.7825 21.8296 15.06C21.6101 15.3376 21.4959 15.6838 21.507 16.0374C21.5181 16.3911 21.6538 16.7294 21.8902 16.9927C22.1267 17.2559 22.4486 17.4271 22.799 17.476L23.163 19.652C22.5958 19.8566 22.1217 20.2594 21.828 20.786L18.484 19.825C18.4427 19.4737 18.2785 19.1482 18.0205 18.9062C17.7625 18.6642 17.4273 18.5211 17.074 18.5023C16.7207 18.4835 16.3722 18.5902 16.09 18.8035C15.8077 19.0167 15.6099 19.3229 15.5316 19.6678C15.4532 20.0128 15.4992 20.3744 15.6616 20.6887C15.824 21.003 16.0922 21.2498 16.4189 21.3855C16.7456 21.5212 17.1097 21.537 17.447 21.4303C17.7842 21.3235 18.0729 21.101 18.262 20.802L21.527 21.74C21.5133 21.8261 21.5043 21.9129 21.5 22C21.5016 22.4636 21.6332 22.9175 21.88 23.31L20.39 24.924C19.8725 24.5733 19.2432 24.4273 18.6242 24.5144C18.0052 24.6016 17.4406 24.9156 17.0401 25.3955C16.6395 25.8754 16.4316 26.487 16.4566 27.1117C16.4816 27.7363 16.7378 28.3293 17.1754 28.7757C17.613 29.2221 18.2009 29.49 18.8249 29.5273C19.4489 29.5647 20.0645 29.3689 20.5523 28.9779C21.04 28.587 21.3652 28.0287 21.4645 27.4115C21.5639 26.7944 21.4304 26.1623 21.09 25.638L22.563 24.038C23.0596 24.3921 23.6697 24.5501 24.2758 24.4814C24.8819 24.4127 25.4412 24.1223 25.846 23.666L27.766 24.9C27.5932 25.2411 27.5022 25.6177 27.5 26C27.5 26.4945 27.6466 26.9778 27.9213 27.3889C28.196 27.8 28.5865 28.1205 29.0433 28.3097C29.5001 28.4989 30.0028 28.5484 30.4877 28.452C30.9727 28.3555 31.4181 28.1174 31.7678 27.7678C32.1174 27.4181 32.3555 26.9727 32.452 26.4877C32.5484 26.0028 32.4989 25.5001 32.3097 25.0433C32.1205 24.5865 31.8 24.196 31.3889 23.9213C30.9778 23.6466 30.4945 23.5 30 23.5ZM29 17.5C29.0989 17.5 29.1956 17.5293 29.2778 17.5843C29.36 17.6392 29.4241 17.7173 29.4619 17.8087C29.4998 17.9 29.5097 18.0006 29.4904 18.0975C29.4711 18.1945 29.4235 18.2836 29.3536 18.3536C29.2836 18.4235 29.1945 18.4711 29.0975 18.4904C29.0006 18.5097 28.9 18.4998 28.8087 18.4619C28.7173 18.4241 28.6392 18.36 28.5843 18.2778C28.5293 18.1956 28.5 18.0989 28.5 18C28.5 17.8674 28.5527 17.7402 28.6464 17.6464C28.7402 17.5527 28.8674 17.5 29 17.5ZM17 20.5C16.9011 20.5 16.8044 20.4707 16.7222 20.4157C16.64 20.3608 16.5759 20.2827 16.5381 20.1913C16.5002 20.1 16.4903 19.9994 16.5096 19.9025C16.5289 19.8055 16.5765 19.7164 16.6464 19.6464C16.7164 19.5765 16.8055 19.5289 16.9025 19.5096C16.9994 19.4903 17.1 19.5002 17.1913 19.5381C17.2827 19.5759 17.3608 19.64 17.4157 19.7222C17.4707 19.8044 17.5 19.9011 17.5 20C17.5 20.1326 17.4473 20.2598 17.3536 20.3536C17.2598 20.4473 17.1326 20.5 17 20.5ZM23 15.5C23.0989 15.5 23.1956 15.5293 23.2778 15.5843C23.36 15.6392 23.4241 15.7173 23.4619 15.8087C23.4998 15.9 23.5097 16.0006 23.4904 16.0975C23.4711 16.1945 23.4235 16.2836 23.3536 16.3536C23.2836 16.4235 23.1945 16.4711 23.0975 16.4904C23.0006 16.5097 22.9 16.4998 22.8087 16.4619C22.7173 16.4241 22.6392 16.36 22.5843 16.2778C22.5293 16.1956 22.5 16.0989 22.5 16C22.5 15.8674 22.5527 15.7402 22.6464 15.6464C22.7402 15.5527 22.8674 15.5 23 15.5ZM19 28.5C18.7033 28.5 18.4133 28.412 18.1666 28.2472C17.92 28.0824 17.7277 27.8481 17.6142 27.574C17.5007 27.2999 17.4709 26.9983 17.5288 26.7074C17.5867 26.4164 17.7296 26.1491 17.9393 25.9393C18.1491 25.7296 18.4164 25.5867 18.7074 25.5288C18.9983 25.4709 19.2999 25.5007 19.574 25.6142C19.8481 25.7277 20.0824 25.92 20.2472 26.1666C20.412 26.4133 20.5 26.7033 20.5 27C20.5 27.3978 20.342 27.7794 20.0607 28.0607C19.7794 28.342 19.3978 28.5 19 28.5ZM22.5 22C22.5002 21.6567 22.6182 21.3239 22.8342 21.0571C23.0503 20.7903 23.3513 20.6056 23.687 20.534L23.722 20.528C24.0099 20.4748 24.3071 20.5069 24.5769 20.6205C24.8467 20.7342 25.0774 20.9243 25.2405 21.1674C25.4036 21.4106 25.492 21.6961 25.4947 21.9889C25.4975 22.2817 25.4145 22.5688 25.256 22.815L25.233 22.85C25.0512 23.1125 24.7903 23.31 24.4885 23.414C24.1866 23.518 23.8594 23.5229 23.5545 23.4281C23.2496 23.3333 22.983 23.1437 22.7933 22.8868C22.6037 22.63 22.5009 22.3193 22.5 22ZM30 27.5C29.7033 27.5 29.4133 27.412 29.1666 27.2472C28.92 27.0824 28.7277 26.8481 28.6142 26.574C28.5007 26.2999 28.4709 25.9983 28.5288 25.7074C28.5867 25.4164 28.7296 25.1491 28.9393 24.9393C29.1491 24.7296 29.4164 24.5867 29.7074 24.5288C29.9983 24.4709 30.2999 24.5007 30.574 24.6142C30.8481 24.7277 31.0824 24.92 31.2472 25.1666C31.412 25.4133 31.5 25.7033 31.5 26C31.5 26.3978 31.342 26.7794 31.0607 27.0607C30.7794 27.342 30.3978 27.5 30 27.5Z" fill="currentColor"/>
</g>
<defs>
<clipPath id="clip0_141_2048">
<rect width="48" height="48" fill="currentColor"/>
</clipPath>
</defs>
</svg>