<svg width="48" height="48" viewBox="0 0 48 48" fill="none" xmlns="http://www.w3.org/2000/svg">
<g clip-path="url(#clip0_2495_783)">
<path d="M29.92 19.57C30.12 19.64 30.33 19.68 30.55 19.68C31.63 19.68 32.5 18.8 32.5 17.73C32.5 16.66 31.62 15.78 30.55 15.78C29.97 15.78 29.45 16.04 29.09 16.45L25.92 14.86C25.95 14.73 25.96 14.6 25.96 14.46C25.96 13.38 25.08 12.51 24.01 12.51C22.94 12.51 22.06 13.39 22.06 14.46C22.06 14.6 22.07 14.73 22.1 14.86L18.9 16.46C18.54 16.07 18.04 15.83 17.47 15.83C16.39 15.83 15.52 16.71 15.52 17.78C15.52 18.85 16.4 19.74 17.47 19.74C17.7 19.74 17.92 19.69 18.12 19.62L19.05 21.01L18.1 22.44C17.9 22.37 17.69 22.33 17.47 22.33C16.39 22.33 15.52 23.21 15.52 24.29C15.52 25.37 16.4 26.24 17.47 26.24C18.05 26.24 18.57 25.98 18.93 25.57L22.1 27.16C22.07 27.29 22.06 27.42 22.06 27.56C22.06 28.64 22.94 29.52 24.01 29.52C25.08 29.52 25.96 28.64 25.96 27.56C25.96 27.42 25.95 27.29 25.92 27.16L29.09 25.57C29.45 25.97 29.97 26.24 30.55 26.24C31.63 26.24 32.5 25.36 32.5 24.29C32.5 23.22 31.62 22.33 30.55 22.33C30.33 22.33 30.12 22.37 29.92 22.44L28.97 21.01L29.92 19.58V19.57ZM24.63 25.7C24.63 25.7 24.59 25.7 24.56 25.69C24.38 25.63 24.19 25.6 23.99 25.6C23.79 25.6 23.6 25.64 23.42 25.69C23.4 25.69 23.37 25.69 23.35 25.7L21.88 23.49L21.44 22.83L22.52 22.29C22.52 22.29 22.54 22.3 22.54 22.31C22.9 22.7 23.41 22.95 23.98 22.95C24.55 22.95 25.06 22.7 25.42 22.31C25.42 22.31 25.44 22.3 25.44 22.29L26.52 22.83L26.08 23.49L24.61 25.7H24.63ZM25.91 21.4C25.94 21.27 25.95 21.14 25.95 21C25.95 20.86 25.94 20.73 25.91 20.6L27.1 20.01L27.76 21L27.1 21.99L25.91 21.4ZM24.95 21C24.95 21.13 24.92 21.25 24.88 21.36L24.86 21.4C24.83 21.46 24.79 21.5 24.76 21.55C24.4 22.03 23.59 22.03 23.23 21.54C23.2 21.49 23.16 21.45 23.14 21.4L23.12 21.36C23.08 21.25 23.05 21.13 23.05 21C23.05 20.47 23.48 20.04 24 20.04C24.52 20.04 24.95 20.47 24.95 21ZM20.9 21.99L20.24 21L20.9 20.01L22.09 20.6C22.06 20.73 22.05 20.86 22.05 21C22.05 21.14 22.06 21.27 22.09 21.4L21.76 21.57L20.9 22V21.99ZM28 19.56L29.08 19.02L28.36 20.1L28 19.56ZM24.63 16.3L26.55 19.17L25.47 19.71C25.11 19.3 24.59 19.04 24.01 19.04C23.43 19.04 22.91 19.3 22.55 19.71L21.47 19.17L23.39 16.3C23.59 16.37 23.8 16.41 24.02 16.41C24.24 16.41 24.45 16.37 24.65 16.3H24.63ZM18.94 19.03L20 19.56L19.64 20.1L18.93 19.04C18.93 19.04 18.93 19.04 18.93 19.03H18.94ZM30.55 16.77C31.08 16.77 31.5 17.2 31.5 17.72C31.5 18.24 31.07 18.67 30.55 18.67C30.03 18.67 29.6 18.24 29.6 17.72C29.6 17.2 30.03 16.77 30.55 16.77ZM28.63 18.12L27.44 18.71L25.46 15.74L28.63 17.33C28.6 17.46 28.59 17.59 28.59 17.73C28.59 17.87 28.6 18 28.63 18.13V18.12ZM24 13.5C24.53 13.5 24.95 13.93 24.95 14.45C24.95 14.97 24.52 15.4 24 15.4C23.48 15.4 23.05 14.97 23.05 14.45C23.05 13.93 23.48 13.5 24 13.5ZM22.54 15.74L20.56 18.71L19.38 18.12C19.4 18 19.42 17.89 19.42 17.77C19.42 17.62 19.4 17.47 19.37 17.33L22.55 15.74H22.54ZM16.5 17.77C16.5 17.24 16.93 16.82 17.45 16.82C17.97 16.82 18.4 17.25 18.4 17.77C18.4 18.29 17.97 18.73 17.45 18.73C16.93 18.73 16.5 18.3 16.5 17.77ZM19.64 21.9L20 22.44L18.92 22.98L19.64 21.9ZM16.5 24.27C16.5 23.74 16.93 23.31 17.45 23.31C17.83 23.31 18.15 23.53 18.3 23.85C18.37 23.99 18.4 24.12 18.4 24.26C18.4 24.4 18.36 24.54 18.3 24.67C18.14 24.99 17.83 25.21 17.45 25.21C16.92 25.21 16.5 24.78 16.5 24.26V24.27ZM19.41 24.27C19.41 24.13 19.4 24 19.37 23.87L20.56 23.28L22.54 26.25L19.37 24.67C19.4 24.54 19.41 24.41 19.41 24.27ZM24 28.5C23.47 28.5 23.05 28.07 23.05 27.54C23.05 27.41 23.08 27.29 23.12 27.18L23.14 27.15C23.18 27.05 23.24 26.97 23.31 26.89C23.33 26.87 23.35 26.85 23.37 26.83C23.43 26.78 23.5 26.73 23.57 26.7C23.6 26.68 23.64 26.66 23.67 26.65C23.75 26.62 23.84 26.6 23.94 26.6C23.98 26.6 24.02 26.6 24.05 26.6C24.14 26.6 24.23 26.62 24.32 26.65C24.36 26.66 24.39 26.68 24.42 26.7C24.49 26.74 24.56 26.78 24.62 26.83C24.64 26.85 24.66 26.87 24.68 26.89C24.75 26.97 24.81 27.05 24.85 27.15L24.87 27.18C24.92 27.29 24.94 27.41 24.94 27.54C24.94 28.07 24.51 28.5 23.99 28.5H24ZM25.46 26.25L27.44 23.28L28.63 23.87C28.6 24 28.59 24.13 28.59 24.27C28.59 24.41 28.6 24.54 28.63 24.67L25.46 26.25ZM31.5 24.27C31.5 24.8 31.07 25.22 30.55 25.22C30.17 25.22 29.85 25 29.7 24.68C29.63 24.54 29.6 24.41 29.6 24.27C29.6 24.13 29.64 23.99 29.7 23.86C29.86 23.54 30.17 23.32 30.55 23.32C31.08 23.32 31.5 23.75 31.5 24.28V24.27ZM28 22.44L28.36 21.9L29.08 22.98L28 22.44Z" fill="black"/>
<path d="M10.5 30.16V34.3L24 41.57L37.5 34.3V30.16L24 37.43L10.5 30.16ZM36.5 33.7L24 40.43L11.5 33.7V31.84L24 38.57L36.5 31.84V33.7Z" fill="black"/>
<path d="M24.03 5.42999L10.5 12.7V29.3L24 36.57L37.5 29.3V12.7L24.03 5.42999ZM24.5 35.16V31.5H23.5V35.16L11.5 28.7V13.85L13.75 15.15L14.25 14.28L12.04 13L24.03 6.55999L35.96 13L33.75 14.28L34.25 15.15L36.5 13.85V28.7L24.5 35.16Z" fill="black"/>
</g>
<defs>
<clipPath id="clip0_2495_783">
<rect width="48" height="48" fill="white"/>
</clipPath>
</defs>
</svg>
