<svg viewBox="0 0 48 48" fill="none" xmlns="http://www.w3.org/2000/svg">
<g clip-path="url(#clip0_24_160)">
<g clip-path="url(#clip1_24_160)">
<path d="M16.4995 28.4995L16.5015 30.4995L15.5015 30.5005L15.4996 28.5005L16.4995 28.4995ZM18.4995 28.5005L18.5015 30.5005L19.5015 30.4995L19.4995 28.4995L18.4995 28.5005ZM21.4985 28.5005L21.5005 30.5005L22.5005 30.4995L22.4985 28.4995L21.4985 28.5005ZM24.4975 28.5L24.4995 30.5005L25.4995 30.4995L25.4975 28.499L24.4975 28.5ZM15.4995 32.501L15.5015 34.501L16.5015 34.5L16.4995 32.5L15.4995 32.501ZM18.4995 32.501L18.5015 34.501L19.5015 34.5L19.4995 32.5L18.4995 32.501ZM21.4985 32.5005L21.5005 34.501L22.5005 34.5L22.4985 32.4995L21.4985 32.5005ZM24.4975 32.5005L24.4995 34.5005L25.4995 34.4995L25.4975 32.4995L24.4975 32.5005ZM43.5 36.5V37.5H4.5V36.5H5.91736L12.8843 10.5H16.5V19.398L18.8843 10.5H22.5V25.5H23.5V23.5H28.5V25.5H31.6165L32.0186 24H33.0537L32.6516 25.5H34.6165L35.0186 24H36.0537L35.6516 25.5H37.6165L38.0186 24H39.0537L38.6516 25.5H41.5V36.5H43.5ZM24.5 25.5H27.5V24.5H24.5V25.5ZM21.5 25.5V14.5H18.8479L15.9002 25.5H21.5ZM19.6519 11.5L19.116 13.5H21.5V11.5H19.6519ZM13.6519 11.5L13.116 13.5H15.5V11.5H13.6519ZM12.5 36.5V25.5H14.865L15.5349 23H15.5V14.5H12.848L6.9531 36.5H12.5ZM37.5 36.5V29.5H28.5V36.5H37.5ZM40.5 36.5V26.5H13.5V36.5H27.5V28.5H38.5V36.5H40.5ZM29.5 31.5H36.5V30.5H29.5V31.5ZM29.5 33.5H36.5V32.5H29.5V33.5ZM29.5 35.5H36.5V34.5H29.5V35.5Z" fill="currentColor"/>
</g>
</g>
<defs>
<clipPath id="clip0_24_160">
<rect width="48" height="48" fill="currentColor"/>
</clipPath>
<clipPath id="clip1_24_160">
<rect width="48" height="48" fill="currentColor"/>
</clipPath>
</defs>
</svg>