<svg viewBox="0 0 48 48" fill="none" xmlns="http://www.w3.org/2000/svg">
<g clip-path="url(#clip0_144_3162)">
<path d="M21.962 22.079C22.1388 22.2497 22.3548 22.3744 22.591 22.442C22.8273 22.5097 23.0765 22.5183 23.3168 22.467C23.5572 22.4158 23.7812 22.3062 23.9693 22.1481C24.1574 21.99 24.3038 21.788 24.3955 21.5601C24.4873 21.3321 24.5216 21.0851 24.4955 20.8407C24.4694 20.5964 24.3837 20.3622 24.2459 20.1587C24.1081 19.9553 23.9224 19.7888 23.7051 19.6739C23.4879 19.5591 23.2457 19.4993 23 19.5C22.8764 19.5018 22.7535 19.5186 22.634 19.55L21.6 18L22.634 16.448C22.7533 16.4807 22.8763 16.4982 23 16.5C23.2458 16.5007 23.488 16.4409 23.7053 16.326C23.9226 16.2111 24.1083 16.0445 24.2461 15.841C24.3839 15.6375 24.4696 15.4032 24.4956 15.1588C24.5216 14.9143 24.4872 14.6673 24.3953 14.4393C24.3034 14.2113 24.1569 14.0094 23.9687 13.8513C23.7804 13.6933 23.5563 13.5839 23.3158 13.5328C23.0754 13.4817 22.8261 13.4905 22.5898 13.5583C22.3536 13.6262 22.1376 13.7511 21.961 13.922L18.482 12.182C18.4916 12.1217 18.4976 12.061 18.5 12C18.5 11.6022 18.342 11.2206 18.0607 10.9393C17.7794 10.658 17.3978 10.5 17 10.5C16.6022 10.5 16.2206 10.658 15.9393 10.9393C15.658 11.2206 15.5 11.6022 15.5 12C15.5025 12.061 15.5085 12.1217 15.518 12.182L12.006 13.938C11.7329 13.6829 11.3737 13.5401 11 13.538C10.6022 13.538 10.2206 13.696 9.93934 13.9773C9.65804 14.2586 9.5 14.6402 9.5 15.038C9.5 15.4358 9.65804 15.8174 9.93934 16.0987C10.2206 16.38 10.6022 16.538 11 16.538C11.1316 16.5364 11.2625 16.5173 11.389 16.481L12.4 18L11.367 19.55C11.2472 19.5185 11.1239 19.5017 11 19.5C10.7543 19.4993 10.5121 19.5591 10.2949 19.6739C10.0776 19.7888 9.89195 19.9553 9.75413 20.1587C9.61631 20.3622 9.53058 20.5964 9.50449 20.8407C9.4784 21.0851 9.51273 21.3321 9.60449 21.5601C9.69624 21.788 9.84259 21.99 10.0307 22.1481C10.2188 22.3062 10.4428 22.4158 10.6832 22.467C10.9235 22.5183 11.1727 22.5097 11.409 22.442C11.6452 22.3744 11.8612 22.2497 12.038 22.079L15.518 23.818C15.5084 23.8783 15.5024 23.939 15.5 24C15.5 24.3978 15.658 24.7794 15.9393 25.0607C16.2206 25.342 16.6022 25.5 17 25.5C17.3978 25.5 17.7794 25.342 18.0607 25.0607C18.342 24.7794 18.5 24.3978 18.5 24C18.4976 23.939 18.4916 23.8783 18.482 23.818L21.962 22.079ZM14.171 17.145L15.518 17.818C15.5084 17.8783 15.5024 17.939 15.5 18C15.5024 18.061 15.5084 18.1217 15.518 18.182L14.171 18.855L13.6 18L14.171 17.145ZM15.962 19.079C16.2399 19.3492 16.6123 19.5004 17 19.5004C17.3877 19.5004 17.7601 19.3492 18.038 19.079L19.27 19.695L17.37 22.552C17.1307 22.484 16.8773 22.484 16.638 22.552L14.738 19.695L15.962 19.079ZM16.5 18C16.5 17.9011 16.5293 17.8044 16.5843 17.7222C16.6392 17.64 16.7173 17.5759 16.8087 17.5381C16.9 17.5002 17.0006 17.4903 17.0975 17.5096C17.1945 17.5289 17.2836 17.5765 17.3536 17.6464C17.4235 17.7164 17.4711 17.8055 17.4904 17.9025C17.5097 17.9994 17.4998 18.1 17.4619 18.1913C17.4241 18.2827 17.36 18.3608 17.2778 18.4157C17.1956 18.4707 17.0989 18.5 17 18.5C16.8674 18.5 16.7402 18.4473 16.6464 18.3536C16.5527 18.2598 16.5 18.1326 16.5 18ZM19.829 17.145L20.4 18L19.83 18.855L19.393 18.637L18.483 18.182C18.507 18.0619 18.507 17.9381 18.483 17.818L19.561 17.279L19.829 17.145ZM20.171 20.145L21.518 20.818C21.5084 20.8783 21.5024 20.939 21.5 21C21.5024 21.0613 21.5084 21.1224 21.518 21.183L18.461 22.71L20.171 20.145ZM21.519 15.182L20.171 15.855L18.461 13.289L21.518 14.818C21.5084 14.8783 21.5024 14.939 21.5 15C21.5024 15.061 21.5087 15.1218 21.519 15.182ZM17.366 13.449L19.266 16.306L18.034 16.921C17.7559 16.651 17.3836 16.5 16.996 16.5C16.6084 16.5 16.2361 16.651 15.958 16.921L14.726 16.306L16.626 13.449C16.8653 13.517 17.1187 13.517 17.358 13.449H17.366ZM13.829 15.855L12.486 15.184C12.486 15.136 12.5 15.091 12.5 15.042C12.4983 14.9676 12.4909 14.8933 12.478 14.82L15.539 13.29L13.829 15.855ZM12.482 20.818L13.829 20.145L15.539 22.71L12.482 21.183C12.4916 21.1224 12.4976 21.0613 12.5 21C12.4976 20.939 12.4916 20.8783 12.482 20.818ZM23.5 21C23.5 21.0989 23.4707 21.1956 23.4157 21.2778C23.3608 21.36 23.2827 21.4241 23.1913 21.4619C23.1 21.4998 22.9994 21.5097 22.9025 21.4904C22.8055 21.4711 22.7164 21.4235 22.6464 21.3536C22.5765 21.2836 22.5289 21.1945 22.5096 21.0975C22.4903 21.0006 22.5002 20.9 22.5381 20.8087C22.5759 20.7173 22.64 20.6392 22.7222 20.5843C22.8044 20.5293 22.9011 20.5 23 20.5C23.1326 20.5 23.2598 20.5527 23.3536 20.6464C23.4473 20.7402 23.5 20.8674 23.5 21ZM21.539 19.71L20.73 19.31L21 18.9L21.539 19.71ZM20.73 16.694L20.84 16.639L21.54 16.29L21 17.1L20.73 16.694ZM23 14.5C23.0989 14.5 23.1956 14.5293 23.2778 14.5843C23.36 14.6392 23.4241 14.7173 23.4619 14.8087C23.4998 14.9 23.5097 15.0006 23.4904 15.0975C23.4711 15.1945 23.4235 15.2836 23.3536 15.3536C23.2836 15.4235 23.1945 15.4711 23.0975 15.4904C23.0006 15.5097 22.9 15.4998 22.8087 15.4619C22.7173 15.4241 22.6392 15.36 22.5843 15.2778C22.5293 15.1956 22.5 15.0989 22.5 15C22.5 14.8674 22.5527 14.7402 22.6464 14.6464C22.7402 14.5527 22.8674 14.5 23 14.5ZM17 11.5C17.0989 11.5 17.1956 11.5293 17.2778 11.5843C17.36 11.6392 17.4241 11.7173 17.4619 11.8087C17.4998 11.9 17.5097 12.0006 17.4904 12.0975C17.4711 12.1945 17.4235 12.2836 17.3536 12.3536C17.2836 12.4235 17.1945 12.4711 17.0975 12.4904C17.0006 12.5097 16.9 12.4998 16.8087 12.4619C16.7173 12.4241 16.6392 12.36 16.5843 12.2778C16.5293 12.1956 16.5 12.0989 16.5 12C16.5 11.8674 16.5527 11.7402 16.6464 11.6464C16.7402 11.5527 16.8674 11.5 17 11.5ZM10.5 15.042C10.5 14.9431 10.5293 14.8464 10.5843 14.7642C10.6392 14.682 10.7173 14.6179 10.8087 14.5801C10.9 14.5422 11.0006 14.5323 11.0975 14.5516C11.1945 14.5709 11.2836 14.6185 11.3536 14.6884C11.4235 14.7584 11.4711 14.8475 11.4904 14.9445C11.5097 15.0414 11.4998 15.142 11.4619 15.2333C11.4241 15.3247 11.36 15.4028 11.2778 15.4577C11.1956 15.5127 11.0989 15.542 11 15.542C10.8674 15.542 10.7402 15.4893 10.6464 15.3956C10.5527 15.3018 10.5 15.1746 10.5 15.042ZM12.461 16.29L13.161 16.639L13.271 16.694L13 17.1L12.461 16.29ZM13.27 19.306L13.209 19.336L12.461 19.71L13 18.9L13.27 19.306ZM11 21.5C10.9011 21.5 10.8044 21.4707 10.7222 21.4157C10.64 21.3608 10.5759 21.2827 10.5381 21.1913C10.5002 21.1 10.4903 20.9994 10.5096 20.9025C10.5289 20.8055 10.5765 20.7164 10.6464 20.6464C10.7164 20.5765 10.8055 20.5289 10.9025 20.5096C10.9994 20.4903 11.1 20.5002 11.1913 20.5381C11.2827 20.5759 11.3608 20.64 11.4157 20.7222C11.4707 20.8044 11.5 20.9011 11.5 21C11.5 21.1326 11.4473 21.2598 11.3536 21.3536C11.2598 21.4473 11.1326 21.5 11 21.5ZM17 24.5C16.92 24.5025 16.8406 24.4852 16.769 24.4497C16.6973 24.4141 16.6355 24.3613 16.5892 24.2961C16.5429 24.2308 16.5134 24.1551 16.5034 24.0757C16.4934 23.9963 16.5032 23.9157 16.532 23.841L16.563 23.78C16.6032 23.7064 16.6618 23.6444 16.733 23.6C16.8062 23.5428 16.8944 23.508 16.987 23.5H17H17.013C17.1056 23.508 17.1938 23.5428 17.267 23.6C17.3382 23.6447 17.397 23.7066 17.438 23.78L17.468 23.841C17.4968 23.9157 17.5066 23.9963 17.4966 24.0757C17.4866 24.1551 17.4571 24.2308 17.4108 24.2961C17.3645 24.3613 17.3027 24.4141 17.231 24.4497C17.1594 24.4852 17.08 24.5025 17 24.5ZM16.707 35L18.707 37L16.707 39H15.293L16.793 37.5H10.5V29.5H11.5V36.5H16.794L15.294 35H16.707ZM36.5 13.4H28.5V12.4H37.5V17.793L39 16.293V17.707L37 19.707L35 17.707V16.293L36.5 17.793V13.4ZM32.014 29.293L32.721 30L30.014 32.707L28.307 31L29.014 30.293L30.014 31.293L32.014 29.293ZM30.534 26.007C29.5453 26.0017 28.5774 26.2899 27.7527 26.8353C26.9281 27.3807 26.2839 28.1586 25.9019 29.0705C25.5198 29.9823 25.4171 30.9871 25.6067 31.9574C25.7963 32.9277 26.2697 33.8199 26.9669 34.5209C27.6641 35.2219 28.5537 35.7001 29.5229 35.895C30.4922 36.0898 31.4975 35.9926 32.4114 35.6155C33.3254 35.2384 34.1068 34.5984 34.6566 33.7767C35.2065 32.9551 35.5 31.9887 35.5 31C35.5019 29.6799 34.9801 28.4129 34.0492 27.4769C33.1182 26.5409 31.8541 26.0123 30.534 26.007ZM30.534 34.993C29.7431 34.9983 28.9685 34.7687 28.3083 34.3332C27.6481 33.8977 27.1321 33.276 26.8258 32.5469C26.5194 31.8177 26.4365 31.014 26.5875 30.2377C26.7385 29.4613 27.1166 28.7473 27.674 28.1862C28.2313 27.6251 28.9427 27.2421 29.718 27.0858C30.4933 26.9295 31.2976 27.007 32.0288 27.3084C32.76 27.6098 33.3852 28.1216 33.8251 28.7788C34.2651 29.436 34.5 30.2091 34.5 31C34.5021 32.055 34.0858 33.0678 33.3424 33.8163C32.5989 34.5648 31.589 34.988 30.534 34.993ZM38.188 31.867C38.2238 31.5794 38.2422 31.2898 38.243 31C38.2428 30.7326 38.2271 30.4655 38.196 30.2L40.646 27.65L38.461 23.843L35.087 24.752C34.6459 24.4254 34.1712 24.1468 33.671 23.921L32.7 20.5H28.322L27.411 23.916C27.0963 24.0598 26.7919 24.2252 26.5 24.411V8.5H7.5V27.5H20.466L20.376 27.656L22.876 30.17C22.8426 30.4454 22.8252 30.7226 22.824 31C22.8251 31.2546 22.8395 31.5089 22.867 31.762L20.38 34.349L22.565 38.157L25.965 37.24C26.3954 37.5613 26.8587 37.8362 27.347 38.06L28.324 41.5H32.7L33.605 38.1C34.1065 37.8789 34.5831 37.6054 35.027 37.284L38.46 38.148L40.646 34.34L38.188 31.867ZM8.5 26.5V9.5H25.5V24.587L22.563 23.848L21.04 26.5H8.5ZM37.974 37L34.809 36.2L34.616 36.349C34.123 36.7307 33.579 37.0417 33 37.273L32.767 37.366L31.937 40.5H29.084L28.184 37.328L27.962 37.235C27.3978 36.9974 26.8688 36.6835 26.39 36.302L26.19 36.145L23.05 36.991L21.62 34.5L23.92 32.11L23.89 31.872C23.8493 31.583 23.8273 31.2918 23.824 31C23.8269 30.6854 23.8513 30.3713 23.897 30.06L23.932 29.814L21.624 27.493L23.053 25L26.253 25.8L26.445 25.651C26.9273 25.2755 27.4586 24.9673 28.024 24.735L28.254 24.641L29.09 21.5H31.942L32.842 24.657L33.066 24.749C33.6405 24.9871 34.179 25.3042 34.666 25.691L34.866 25.847L37.976 25.009L39.406 27.5L37.144 29.855L37.176 30.093C37.2186 30.3942 37.241 30.6978 37.243 31.002C37.2408 31.3281 37.2147 31.6537 37.165 31.976L37.13 32.223L39.4 34.507L37.974 37Z" fill="currentColor"/>
</g>
<defs>
<clipPath id="clip0_144_3162">
<rect width="48" height="48" fill="currentColor"/>
</clipPath>
</defs>
</svg>