<svg viewBox="0 0 48 48" fill="none" xmlns="http://www.w3.org/2000/svg">
<g clip-path="url(#clip0_141_2005)">
<path d="M42.5 33.5V10.5H5.5V33.5H20.42L19.62 36.5H16.5V37.5H31.5V36.5H28.384L27.584 33.5H42.5ZM6.5 11.5H41.5V32.5H6.5V11.5ZM27.348 36.5H20.648L21.448 33.5H26.536L27.348 36.5ZM7.5 31.5H40.5V12.5H7.5V31.5ZM8.5 13.5H39.5V30.5H8.5V13.5ZM25.5 17.5H37.5V18.5H25.5V17.5ZM25.5 21.5H37.5V22.5H25.5V21.5ZM25.5 25.5H37.5V26.5H25.5V25.5ZM17 19.5C16.5055 19.5 16.0222 19.6466 15.6111 19.9213C15.2 20.196 14.8795 20.5865 14.6903 21.0433C14.5011 21.5001 14.4516 22.0028 14.548 22.4877C14.6445 22.9727 14.8826 23.4181 15.2322 23.7678C15.5819 24.1174 16.0273 24.3555 16.5123 24.452C16.9972 24.5484 17.4999 24.4989 17.9567 24.3097C18.4135 24.1205 18.804 23.8 19.0787 23.3889C19.3534 22.9778 19.5 22.4945 19.5 22C19.5 21.337 19.2366 20.7011 18.7678 20.2322C18.2989 19.7634 17.663 19.5 17 19.5ZM17 23.5C16.7033 23.5 16.4133 23.412 16.1666 23.2472C15.92 23.0824 15.7277 22.8481 15.6142 22.574C15.5006 22.2999 15.4709 21.9983 15.5288 21.7074C15.5867 21.4164 15.7296 21.1491 15.9393 20.9393C16.1491 20.7296 16.4164 20.5867 16.7074 20.5288C16.9983 20.4709 17.2999 20.5007 17.574 20.6142C17.8481 20.7277 18.0824 20.92 18.2472 21.1666C18.412 21.4133 18.5 21.7033 18.5 22C18.5 22.3978 18.342 22.7794 18.0607 23.0607C17.7794 23.342 17.3978 23.5 17 23.5ZM21.5 22C21.4996 21.9218 21.4946 21.8436 21.485 21.766L23.33 19.921L21.946 17.521L19.405 18.203C19.29 18.13 19.173 18.062 19.055 18.003L18.384 15.503H15.616L14.945 18C14.8108 18.0702 14.6803 18.1473 14.554 18.231L12.082 17.568L10.698 19.968L12.514 21.784C12.5047 21.8556 12.5 21.9278 12.5 22C12.5008 22.0916 12.5071 22.1831 12.519 22.274L10.726 24.066L12.109 26.466L14.6 25.8C14.7353 25.8877 14.8751 25.9682 15.019 26.041L15.675 28.491H18.443L19.121 25.961C19.242 25.896 19.36 25.825 19.476 25.748L21.976 26.418L23.359 24.018L21.494 22.152C21.5 22.1 21.5 22.052 21.5 22ZM22.107 24.184L21.491 25.251L19.271 24.656L19.078 24.8C18.8906 24.9398 18.6896 25.0604 18.478 25.16L18.268 25.26L17.668 27.489H16.439L15.857 25.319L15.633 25.219C15.4016 25.118 15.1819 24.9919 14.978 24.843L14.786 24.706L12.592 25.295L11.976 24.226L13.57 22.632L13.525 22.257C13.5108 22.172 13.5024 22.0861 13.5 22C13.5015 21.933 13.5079 21.8661 13.519 21.8L13.561 21.414L11.948 19.801L12.564 18.733L14.75 19.319L14.943 19.178C15.1395 19.0322 15.351 18.9078 15.574 18.807L15.791 18.707L16.384 16.494H17.616L18.209 18.708L18.427 18.808C18.6378 18.9027 18.8388 19.0179 19.027 19.152L19.219 19.289L21.466 18.689L22.083 19.757L20.437 21.4L20.479 21.786C20.4911 21.8567 20.4981 21.9283 20.5 22C20.4984 22.0469 20.4937 22.0937 20.486 22.14L20.449 22.524L22.107 24.184Z" fill="currentColor"/>
</g>
<defs>
<clipPath id="clip0_141_2005">
<rect width="48" height="48" fill="currentColor"/>
</clipPath>
</defs>
</svg>