<?xml version="1.0" encoding="utf-8"?>
<!-- Generator: Adobe Illustrator 30.0.0, SVG Export Plug-In . SVG Version: 9.03 Build 0)  -->
<svg version="1.1" id="Layer_1" xmlns="http://www.w3.org/2000/svg" xmlns:xlink="http://www.w3.org/1999/xlink" x="0px" y="0px"
	 viewBox="0 0 48 48" style="enable-background:new 0 0 48 48;" xml:space="preserve" preserveAspectRatio="xMidYMid meet">
<style type="text/css">
	.st0{fill:none;stroke:#000000;stroke-linecap:square;stroke-miterlimit:10;}
	.st1{fill:none;}
	.st2{clip-path:url(#SVGID_00000054248402103419620400000014233482802976557700_);}
	
		.st3{clip-path:url(#SVGID_00000090996188526683515430000005175616667302679984_);fill:none;stroke:#000000;stroke-linecap:square;stroke-miterlimit:10;}
</style>
<g>
	<polygon class="st0" points="28.57143,39.3019 8,32.11216 8,10.38289 28.57143,17.57262 	"/>
	<polygon class="st1" points="7.5,32.46058 29.07129,40 7.5,32.46058 	"/>
	<polygon class="st1" points="16.78564,12.93008 7.5,9.68479 16.78564,12.93008 	"/>
	<g>
		<defs>
			<polygon id="SVGID_1_" points="40.5,13.07462 26.92871,8 26.92871,11.24625 35.78564,14.3075 35.78564,26.57465 40.5,28.33749 
							"/>
		</defs>
		<clipPath id="SVGID_00000082344420296146890880000008189295234548908976_">
			<use xlink:href="#SVGID_1_"  style="overflow:visible;"/>
		</clipPath>
		<g style="clip-path:url(#SVGID_00000082344420296146890880000008189295234548908976_);">
			<polygon class="st0" points="40,27.62307 27.42857,22.92209 27.42857,8.71448 40,13.41546 			"/>
		</g>
	</g>
	<rect x="17.28564" y="12.57526" width="0" height="1.05941"/>
	<rect x="22.35718" y="10.0348" width="0" height="9.68529"/>
	
		<rect x="27.99988" y="15.71465" transform="matrix(0.32987 -0.94402 0.94402 0.32987 2.85716 37.72397)" width="0.00024" height="2.2697"/>
	<g>
		<defs>
			<polygon id="SVGID_00000038396727393962541210000007268411951083166629_" points="26.92871,12.29172 17.78564,9.13123 
				17.78564,12.23294 26.92871,15.42861 30.07129,16.52659 30.07129,24.43794 30.07129,31.13809 34.78564,32.76796 
				34.78564,26.20078 34.78564,15.00753 			"/>
		</defs>
		<clipPath id="SVGID_00000109732420911976879610000011139662653206784396_">
			<use xlink:href="#SVGID_00000038396727393962541210000007268411951083166629_"  style="overflow:visible;"/>
		</clipPath>
		
			<polygon style="clip-path:url(#SVGID_00000109732420911976879610000011139662653206784396_);fill:none;stroke:#000000;stroke-linecap:square;stroke-miterlimit:10;" points="
			34.28571,32.07214 18.28572,26.54158 18.28572,9.82675 34.28571,15.35732 		"/>
	</g>
	<polygon class="st0" points="13.71429,28.26188 13.71429,18.16878 22.85714,21.4229 22.85714,31.51601 	"/>
</g>
<g>
</g>
<g>
</g>
<g>
</g>
<g>
</g>
<g>
</g>
<g>
</g>
<g>
</g>
<g>
</g>
<g>
</g>
<g>
</g>
<g>
</g>
<g>
</g>
<g>
</g>
<g>
</g>
<g>
</g>
</svg>
