<svg viewBox="0 0 48 48" fill="none" xmlns="http://www.w3.org/2000/svg">
<g clip-path="url(#clip0_1531_1259)">
<path d="M31.6265 35.3335L32.3335 34.626L34 36.293L37.3335 32.9595L38.0405 33.6665L34 37.707L31.6265 35.3335ZM12 14.293L10.3335 12.626L9.62647 13.3335L12 15.707L16.0405 11.6665L15.3335 10.9595L12 14.293ZM23 26.707L27.0405 22.6665L26.3335 21.9595L23 25.293L21.3335 23.626L20.6265 24.3335L23 26.707ZM8.5 24.5V34.5H29.5253C29.7791 31.7012 32.136 29.5 35 29.5C38.0327 29.5 40.5 31.9673 40.5 35C40.5 38.0327 38.0327 40.5 35 40.5C32.136 40.5 29.7791 38.2988 29.5253 35.5H7.5V23.5H18.5253C18.7791 20.7012 21.1361 18.5 24 18.5C26.864 18.5 29.2209 20.7012 29.4747 23.5H39.5V13.5H18.4747C18.2209 16.2988 15.8639 18.5 13 18.5C9.96729 18.5 7.5 16.0327 7.5 13C7.5 9.96729 9.96729 7.5 13 7.5C15.8639 7.5 18.2209 9.70117 18.4747 12.5H40.5V24.5H29.4747C29.2209 27.2988 26.864 29.5 24 29.5C21.1361 29.5 18.7791 27.2988 18.5253 24.5H8.5ZM17.5 13C17.5 10.5185 15.4815 8.5 13 8.5C10.5185 8.5 8.5 10.5185 8.5 13C8.5 15.4815 10.5185 17.5 13 17.5C15.4815 17.5 17.5 15.4815 17.5 13ZM19.5 24C19.5 26.4814 21.5185 28.5 24 28.5C26.4814 28.5 28.5 26.4814 28.5 24C28.5 21.5185 26.4814 19.5 24 19.5C21.5185 19.5 19.5 21.5185 19.5 24ZM30.5 35C30.5 37.4814 32.5186 39.5 35 39.5C37.4814 39.5 39.5 37.4814 39.5 35C39.5 32.5186 37.4814 30.5 35 30.5C32.5186 30.5 30.5 32.5186 30.5 35Z" fill="currentColor"/>
</g>
<defs>
<clipPath id="clip0_1531_1259">
<rect width="48" height="48" fill="currentColor"/>
</clipPath>
</defs>
</svg>