<svg viewBox="0 0 48 48" fill="none" xmlns="http://www.w3.org/2000/svg">
<g clip-path="url(#clip0_24_186)">
<g clip-path="url(#clip1_24_186)">
<path d="M29.9204 7.5H7.5V40.5H40.5V7.5H29.9204ZM38.5 18.6162V29.3843L39.5 29.6523V39.5H29.6519L29.3838 38.5H18.6157L18.3477 39.5H8.5V29.6514L9.5 29.3838V18.6157L8.5 18.3477V8.5H18.3481L18.6162 9.5H29.3843L29.6523 8.5H39.5V18.3486L38.5 18.6162ZM12.5 12.5H14.5V14.5H12.5V12.5ZM17.5 14.5H15.5V12.5H17.5V14.5ZM18.5 12.5H20.5V14.5H18.5V12.5ZM23.5 14.5H21.5V12.5H23.5V14.5ZM26.5 14.5H24.5V12.5H26.5V14.5ZM29.5 14.5H27.5V12.5H29.5V14.5ZM30.5 12.5H32.5V14.5H30.5V12.5ZM33.5 12.5H35.5V14.5H33.5V12.5ZM12.5 15.5H14.5V17.5H12.5V15.5ZM17.5 17.5H15.5V15.5H17.5V17.5ZM18.5 15.5H20.5V17.5H18.5V15.5ZM23.5 17.5H21.5V15.5H23.5V17.5ZM26.5 17.5H24.5V15.5H26.5V17.5ZM29.5 17.5H27.5V15.5H29.5V17.5ZM30.5 15.5H32.5V17.5H30.5V15.5ZM33.5 15.5H35.5V17.5H33.5V15.5ZM12.5 18.5H14.5V20.5H12.5V18.5ZM33.5 18.5H35.5V20.5H33.5V18.5ZM12.5 21.5H14.5V23.5H12.5V21.5ZM33.5 21.5H35.5V23.5H33.5V21.5ZM12.5 24.5H14.5V26.5H12.5V24.5ZM33.5 24.5H35.5V26.5H33.5V24.5ZM12.5 27.5H14.5V29.5H12.5V27.5ZM33.5 27.5H35.5V29.5H33.5V27.5ZM12.5 30.5H14.5V32.5H12.5V30.5ZM15.5 30.5H17.5V32.5H15.5V30.5ZM18.5 30.5H20.5V32.5H18.5V30.5ZM21.5 30.5H23.5V32.5H21.5V30.5ZM24.5 30.5H26.5V32.5H24.5V30.5ZM27.5 30.5H29.5V32.5H27.5V30.5ZM30.5 30.5H32.5V32.5H30.5V30.5ZM33.5 30.5H35.5V32.5H33.5V30.5ZM12.5 33.5H14.5V35.5H12.5V33.5ZM15.5 33.5H17.5V35.5H15.5V33.5ZM18.5 33.5H20.5V35.5H18.5V33.5ZM21.5 33.5H23.5V35.5H21.5V33.5ZM24.5 33.5H26.5V35.5H24.5V33.5ZM27.5 33.5H29.5V35.5H27.5V33.5ZM30.5 33.5H32.5V35.5H30.5V33.5ZM33.5 33.5H35.5V35.5H33.5V33.5ZM19.8364 26.6963C19.3529 27.1851 18.6965 27.464 18.0091 27.473C17.3216 27.4819 16.6582 27.2201 16.1621 26.7441C15.4902 26.0728 15.5 25.3144 15.5 24C15.5 22.686 15.4902 21.9277 16.1621 21.2563C16.3956 21.019 16.6752 20.8318 16.9837 20.7065C17.2922 20.5811 17.6231 20.5201 17.9561 20.5273C18.5613 20.5021 19.1536 20.7066 19.6144 21.0998C20.0752 21.493 20.3704 22.0458 20.4407 22.6475H19.395C19.3446 22.3064 19.1697 21.9961 18.9039 21.7764C18.6382 21.5567 18.3005 21.4433 17.956 21.458C17.7682 21.4557 17.5818 21.4919 17.4086 21.5644C17.2353 21.637 17.0788 21.7444 16.9487 21.8799C16.6127 22.2446 16.5358 22.6284 16.5358 24C16.5358 25.3721 16.6127 25.7656 16.9487 26.1299C17.0792 26.2642 17.2361 26.3701 17.4094 26.4411C17.5827 26.5121 17.7688 26.5466 17.956 26.5425C18.1651 26.5477 18.3729 26.5076 18.565 26.4248C18.7571 26.342 18.929 26.2186 19.0688 26.063C19.3154 25.7612 19.4388 25.3773 19.414 24.9883V24.6045H17.956V23.7222H20.4504V24.7676C20.4845 25.1139 20.4477 25.4636 20.3421 25.7952C20.2366 26.1268 20.0645 26.4334 19.8364 26.6963ZM24.3716 20.585H21.7812V27.4156H22.8174V24.7296H24.3716C24.6531 24.7448 24.9348 24.7025 25.1995 24.6052C25.4641 24.5079 25.7062 24.3578 25.9109 24.1638C26.1156 23.9699 26.2786 23.7363 26.39 23.4773C26.5014 23.2183 26.5589 22.9393 26.5589 22.6573C26.5589 22.3753 26.5014 22.0963 26.39 21.8373C26.2786 21.5783 26.1156 21.3447 25.9109 21.1508C25.7062 20.9568 25.4641 20.8067 25.1995 20.7094C24.9348 20.6121 24.6531 20.5698 24.3716 20.585V20.585ZM24.3142 23.7891H22.8174V21.5156H24.3142C24.4694 21.5061 24.6248 21.5284 24.771 21.5812C24.9172 21.634 25.0511 21.7162 25.1643 21.8227C25.2776 21.9292 25.3678 22.0577 25.4295 22.2004C25.4912 22.3431 25.523 22.4969 25.523 22.6523C25.523 22.8078 25.4912 22.9616 25.4295 23.1043C25.3678 23.247 25.2776 23.3755 25.1643 23.482C25.0511 23.5885 24.9172 23.6707 24.771 23.7235C24.6248 23.7763 24.4694 23.7986 24.3142 23.7891V23.7891ZM31.4639 20.585H32.5V25.1133C32.4759 25.7473 32.207 26.3473 31.7499 26.7874C31.2929 27.2274 30.6831 27.4732 30.0486 27.4732C29.4141 27.4732 28.8043 27.2274 28.3472 26.7874C27.8901 26.3473 27.6213 25.7473 27.5972 25.1133V20.585H28.6335V25.0655C28.6254 25.2564 28.6559 25.447 28.7234 25.6258C28.7908 25.8047 28.8937 25.968 29.0259 26.106C29.1581 26.244 29.3169 26.3538 29.4927 26.4288C29.6685 26.5038 29.8576 26.5425 30.0487 26.5425C30.2398 26.5425 30.4289 26.5038 30.6047 26.4288C30.7805 26.3538 30.9393 26.244 31.0715 26.106C31.2037 25.968 31.3066 25.8047 31.3741 25.6258C31.4415 25.447 31.472 25.2564 31.4639 25.0655V20.585Z" fill="currentColor"/>
</g>
</g>
<defs>
<clipPath id="clip0_24_186">
<rect width="48" height="48" fill="currentColor"/>
</clipPath>
<clipPath id="clip1_24_186">
<rect width="48" height="48" fill="currentColor"/>
</clipPath>
</defs>
</svg>