<svg viewBox="0 0 48 48" fill="none" xmlns="http://www.w3.org/2000/svg">
<g clip-path="url(#clip0_141_2039)">
<path d="M24 7.5C17.551 7.5 12.5 9.987 12.5 13.161V33.807C12.5 37.56 17.551 40.5 24 40.5C30.449 40.5 35.5 37.56 35.5 33.807V13.161C35.5 9.987 30.449 7.5 24 7.5ZM24 8.5C29.691 8.5 34.5 10.635 34.5 13.161C34.5 15.687 29.691 17.823 24 17.823C18.309 17.823 13.5 15.688 13.5 13.161C13.5 10.634 18.309 8.5 24 8.5ZM34.5 33.807C34.5 36.946 29.79 39.5 24 39.5C18.21 39.5 13.5 36.946 13.5 33.807V29.345C15.277 31.68 19.256 33.274 24 33.274C28.744 33.274 32.723 31.68 34.5 29.345V33.807ZM34.5 26.064V26.581C34.5 29.72 29.79 32.274 24 32.274C18.21 32.274 13.5 29.72 13.5 26.581V22.119C15.277 24.455 19.256 26.048 24 26.048C28.744 26.048 32.723 24.455 34.5 22.119V26.064ZM34.5 19.355C34.5 22.494 29.79 25.048 24 25.048C18.21 25.048 13.5 22.494 13.5 19.355V15.5C15.277 17.476 19.256 18.824 24 18.824C28.744 18.824 32.723 17.476 34.5 15.5V19.355Z" fill="currentColor"/>
</g>
<defs>
<clipPath id="clip0_141_2039">
<rect width="48" height="48" fill="currentColor"/>
</clipPath>
</defs>
</svg>