<svg viewBox="0 0 48 48" fill="none" xmlns="http://www.w3.org/2000/svg">
<g clip-path="url(#clip0_141_2063)">
<path d="M19.293 37L24 41.707L28.707 37L24 32.293L19.293 37ZM24 40.293L20.707 37L24 33.707L27.293 37L24 40.293ZM6.49996 40.883L12.972 37L6.49996 33.117V40.883ZM7.49996 34.883L11.028 37L7.49996 39.117V34.883ZM28.5 22C28.5 21.11 28.236 20.24 27.7416 19.4999C27.2471 18.7599 26.5443 18.1831 25.722 17.8425C24.8998 17.5019 23.995 17.4128 23.1221 17.5865C22.2491 17.7601 21.4473 18.1887 20.818 18.818C20.1886 19.4474 19.7601 20.2492 19.5864 21.1221C19.4128 21.995 19.5019 22.8998 19.8425 23.7221C20.1831 24.5443 20.7599 25.2471 21.4999 25.7416C22.2399 26.2361 23.1099 26.5 24 26.5C25.193 26.4987 26.3368 26.0241 27.1805 25.1805C28.0241 24.3369 28.4986 23.1931 28.5 22ZM24 25.5C23.3077 25.5 22.631 25.2947 22.0555 24.9101C21.4799 24.5256 21.0313 23.9789 20.7664 23.3394C20.5015 22.6999 20.4322 21.9961 20.5672 21.3172C20.7023 20.6383 21.0356 20.0146 21.5251 19.5251C22.0146 19.0356 22.6382 18.7023 23.3171 18.5673C23.9961 18.4322 24.6998 18.5015 25.3393 18.7664C25.9789 19.0313 26.5255 19.4799 26.9101 20.0555C27.2947 20.6311 27.5 21.3078 27.5 22C27.5 22.9283 27.1312 23.8185 26.4748 24.4749C25.8185 25.1313 24.9282 25.5 24 25.5ZM8.49996 33.5V27.5H9.49996V33.5H8.49996ZM13.5 36.5H18.5V37.5H13.5V36.5ZM13.519 22L12.233 17.5H5.68796L4.48096 22L5.76696 26.5H12.312L13.519 22ZM6.51896 25.5L5.51896 22L6.45596 18.5H11.479L12.479 22L11.542 25.5H6.51896ZM39.492 9.5H33.5V8.5H40.494V32.5H39.494L39.492 9.5ZM29.5 36.5H34.5V37.5H29.5V36.5ZM23.5 27.5H24.5V31.5H23.5V27.5ZM24.5 16.5H23.5V12.5H24.5V16.5ZM32.5 6.5H13.5V11.5H32.5V6.5ZM31.5 10.5H14.5V7.5H31.5V10.5ZM35.5 33.5V40.5H42.5V33.5H35.5ZM41.5 39.5H36.5V34.5H41.5V39.5ZM37.5 32.5V22.5H29.5V21.5H38.5V32.5H37.5ZM14.5 21.5H18.5V22.5H14.5V21.5ZM9.49996 16.5H8.49996V8.5H12.5V9.5H9.49996V16.5Z" fill="currentColor"/>
</g>
<defs>
<clipPath id="clip0_141_2063">
<rect width="48" height="48" fill="currentColor"/>
</clipPath>
</defs>
</svg>