<svg viewBox="0 0 48 48" fill="none" xmlns="http://www.w3.org/2000/svg">
<g clip-path="url(#clip0_144_3436)">
<path d="M24 6C20.4399 6 16.9598 7.05568 13.9997 9.03355C11.0397 11.0114 8.73255 13.8226 7.37018 17.1117C6.0078 20.4008 5.65134 24.02 6.34587 27.5116C7.04041 31.0033 8.75474 34.2106 11.2721 36.7279C13.7894 39.2453 16.9967 40.9596 20.4884 41.6541C23.98 42.3487 27.5992 41.9922 30.8883 40.6298C34.1774 39.2675 36.9886 36.9603 38.9665 34.0003C40.9443 31.0402 42 27.5601 42 24C41.9944 19.2278 40.0962 14.6527 36.7218 11.2782C33.3473 7.90377 28.7722 6.00556 24 6ZM24 41C20.6377 41 17.351 40.003 14.5553 38.135C11.7597 36.267 9.58075 33.612 8.29406 30.5056C7.00737 27.3993 6.67071 23.9811 7.32666 20.6835C7.98261 17.3858 9.6017 14.3567 11.9792 11.9792C14.3567 9.60169 17.3858 7.9826 20.6835 7.32665C23.9811 6.6707 27.3993 7.00736 30.5056 8.29405C33.612 9.58074 36.267 11.7597 38.135 14.5553C40.003 17.3509 41 20.6377 41 24C40.995 28.5071 39.2023 32.8282 36.0153 36.0153C32.8282 39.2023 28.5071 40.995 24 41ZM23.165 19.586L22.458 18.879L25.993 15.343L26.7 16.05L23.165 19.586ZM20.879 18.456L19.913 18.715L18.619 13.885L19.585 13.626L20.879 18.456ZM18.499 20.836L13.67 19.542L13.928 18.576L18.758 19.87L18.499 20.836ZM18.922 22.414L19.629 23.121L16.094 26.657L15.386 25.95L18.922 22.414ZM20.305 20.262L24.422 34.262L26.793 30.287L30.236 33.73L33.771 30.194L30.335 26.758L34.3 24.377L20.305 20.262ZM32.357 30.192L30.236 32.313L26.592 28.67L24.736 31.782L21.781 21.738L31.829 24.693L28.722 26.558L32.357 30.192Z" fill="currentColor"/>
</g>
<defs>
<clipPath id="clip0_144_3436">
<rect width="48" height="48" fill="currentColor"/>
</clipPath>
</defs>
</svg>