<svg viewBox="0 0 48 48" fill="none" xmlns="http://www.w3.org/2000/svg">
<g clip-path="url(#clip0_141_2034)">
<path d="M34.688 33.5L33.616 37.5H14.384L13.312 33.5H8.47302L10.616 41.5H37.377L39.663 33.5H34.688ZM36.623 40.5H11.384L9.77602 34.5H12.544L13.616 38.5H34.384L35.456 34.5H38.337L36.623 40.5ZM37.087 19.5H30.5V14.5H17.5V19.5H10.913L24 34.769L37.087 19.5ZM18.5 20.5V15.5H29.5V20.5H34.913L24 33.231L13.087 20.5H18.5ZM30.5 6.5H17.5V12.5H30.5V6.5ZM29.5 11.5H18.5V7.5H29.5V11.5Z" fill="currentColor"/>
</g>
<defs>
<clipPath id="clip0_141_2034">
<rect width="48" height="48" fill="currentColor"/>
</clipPath>
</defs>
</svg>