<svg viewBox="0 0 48 48" fill="none" xmlns="http://www.w3.org/2000/svg">
<g clip-path="url(#clip0_141_2070)">
<path d="M33.7069 15L32.9999 14.293L24.6859 22.607C24.4746 22.4949 24.2392 22.4355 23.9999 22.434C23.7033 22.434 23.4133 22.522 23.1666 22.6868C22.9199 22.8516 22.7277 23.0859 22.6141 23.36C22.5006 23.6341 22.4709 23.9357 22.5288 24.2266C22.5866 24.5176 22.7295 24.7849 22.9393 24.9947C23.1491 25.2045 23.4163 25.3473 23.7073 25.4052C23.9983 25.4631 24.2999 25.4334 24.574 25.3198C24.8481 25.2063 25.0823 25.014 25.2471 24.7674C25.412 24.5207 25.4999 24.2307 25.4999 23.934C25.4999 23.7273 25.4566 23.523 25.3729 23.334L33.7069 15ZM23.9999 24.434C23.8673 24.434 23.7402 24.3813 23.6464 24.2876C23.5526 24.1938 23.4999 24.0666 23.4999 23.934C23.4999 23.8014 23.5526 23.6742 23.6464 23.5805C23.7402 23.4867 23.8673 23.434 23.9999 23.434C24.1272 23.4343 24.2493 23.4837 24.3409 23.572L24.3619 23.592C24.4285 23.663 24.4729 23.7518 24.4897 23.8477C24.5065 23.9435 24.495 24.0421 24.4566 24.1315C24.4181 24.2209 24.3545 24.2971 24.2734 24.3508C24.1923 24.4046 24.0972 24.4335 23.9999 24.434ZM20.4999 24C20.4998 24.3059 20.5395 24.6104 20.6179 24.906L20.7479 25.389L19.7809 25.647L19.6519 25.165C19.4732 24.4982 19.4503 23.7991 19.585 23.122C19.7197 22.4449 20.0084 21.8078 20.4288 21.2602C20.8491 20.7125 21.3898 20.2689 22.0091 19.9637C22.6284 19.6584 23.3096 19.4998 23.9999 19.5H24.4999V20.5H23.9999C23.0717 20.5 22.1814 20.8688 21.5251 21.5251C20.8687 22.1815 20.4999 23.0718 20.4999 24ZM16.4999 24C16.4985 25.3161 16.8434 26.6094 17.4999 27.75L17.7509 28.183L16.8859 28.683L16.6349 28.25C15.7933 26.7938 15.4027 25.1206 15.5125 23.4422C15.6222 21.7638 16.2274 20.1558 17.2515 18.8215C18.2756 17.4873 19.6725 16.4868 21.2654 15.9468C22.8583 15.4069 24.5756 15.3516 26.1999 15.788L26.6839 15.917L26.4249 16.883L25.9419 16.754C24.8306 16.4573 23.666 16.42 22.538 16.645C21.41 16.8699 20.3487 17.3511 19.4362 18.0514C18.5237 18.7517 17.7844 19.6523 17.2752 20.6837C16.7661 21.7151 16.5009 22.8498 16.4999 24ZM15.8829 32.146L16.2369 32.499L15.5309 33.207L15.1769 32.855C13.0248 30.7136 11.7256 27.8621 11.5219 24.8329C11.3181 21.8038 12.2238 18.804 14.0698 16.3937C15.9158 13.9834 18.576 12.3273 21.5536 11.7346C24.5312 11.142 27.6227 11.6532 30.2509 13.173L30.6839 13.424L30.1839 14.289L29.7509 14.039C27.333 12.6413 24.4891 12.1712 21.7499 12.7165C19.0108 13.2619 16.5638 14.7854 14.8656 17.0027C13.1674 19.2199 12.3342 21.9794 12.5214 24.766C12.7086 27.5526 13.9034 30.1758 15.8829 32.146ZM41.0179 28.046H41.0329L40.7739 29.012H40.7579C39.9694 31.6262 38.5796 34.0194 36.6999 36L36.7249 36.025L36.0179 36.732L35.9909 36.705C35.1382 37.5115 34.2073 38.231 33.2119 38.853L32.9279 37.858C33.771 37.3112 34.5628 36.6893 35.2939 36L34.6059 35.313L35.3129 34.605L36.0009 35.293C37.755 33.435 39.0532 31.1947 39.7929 28.749L38.8419 28.494L39.1009 27.528L40.0529 27.783C40.6517 25.2962 40.6489 22.7025 40.0449 20.217L39.1009 20.47L38.8419 19.504L39.7959 19.249C39.054 16.8046 37.7545 14.5658 35.9999 12.709L35.3139 13.394L34.6069 12.686L35.2909 12C33.4346 10.2435 31.1953 8.94257 28.7499 8.20001L28.4949 9.15301L27.5289 8.90001L27.7819 7.95701C23.9789 7.05549 19.9792 7.53521 16.4972 9.31048C13.0153 11.0858 10.2777 14.041 8.77351 17.6484C7.26931 21.2557 7.09641 25.2804 8.28571 29.0035C9.475 32.7266 11.949 35.9057 15.2659 37.973L14.9809 38.973C11.3879 36.8332 8.68179 33.4753 7.35437 29.5096C6.02696 25.5438 6.16633 21.2335 7.74718 17.3618C9.32803 13.4902 12.2454 10.3141 15.9692 8.41084C19.693 6.50759 23.976 6.00344 28.0399 6.99001L28.0459 6.96701L29.0119 7.22601V7.23901C31.6265 8.02822 34.0198 9.41906 35.9999 11.3L36.0229 11.277L36.7299 11.985L36.7049 12C38.5842 13.9809 39.9733 16.3745 40.7609 18.989H40.7739L41.0329 19.955L41.0099 19.961C41.6606 22.6154 41.6633 25.3873 41.0179 28.043V28.046Z" fill="currentColor"/>
</g>
<defs>
<clipPath id="clip0_141_2070">
<rect width="48" height="48" fill="currentColor"/>
</clipPath>
</defs>
</svg>