<svg viewBox="0 0 48 48" fill="none" xmlns="http://www.w3.org/2000/svg">
<g clip-path="url(#clip0_24_245)">
<g clip-path="url(#clip1_24_245)">
<path d="M32.5 26.5V7.5H15.5V26.5H9.85352L24 41.7349L38.1465 26.5H32.5ZM12.1465 27.5H16.5V8.5H31.5V27.5H35.8535L24 40.2651L12.1465 27.5ZM24.5 11.5H23.5V13.5H22.5C21.7043 13.5 20.9413 13.8161 20.3787 14.3787C19.8161 14.9413 19.5 15.7044 19.5 16.5C19.5 17.2956 19.8161 18.0587 20.3787 18.6213C20.9413 19.1839 21.7043 19.5 22.5 19.5H23.5V23.5H19.5V24.5H23.5V26.5H24.5V24.5H25.5C26.2956 24.5 27.0587 24.1839 27.6213 23.6213C28.1839 23.0587 28.5 22.2956 28.5 21.5C28.5 20.7044 28.1839 19.9413 27.6213 19.3787C27.0587 18.8161 26.2956 18.5 25.5 18.5H24.5V14.5H28.5V13.5H24.5V11.5ZM25.5 19.5C26.0304 19.5 26.5391 19.7107 26.9142 20.0858C27.2893 20.4609 27.5 20.9696 27.5 21.5C27.5 22.0304 27.2893 22.5391 26.9142 22.9142C26.5391 23.2893 26.0304 23.5 25.5 23.5H24.5V19.5H25.5ZM23.5 18.5H22.5C21.9696 18.5 21.4609 18.2893 21.0858 17.9142C20.7107 17.5391 20.5 17.0304 20.5 16.5C20.5 15.9696 20.7107 15.4609 21.0858 15.0858C21.4609 14.7107 21.9696 14.5 22.5 14.5H23.5V18.5Z" fill="currentColor"/>
</g>
</g>
<defs>
<clipPath id="clip0_24_245">
<rect width="48" height="48" fill="currentColor"/>
</clipPath>
<clipPath id="clip1_24_245">
<rect width="48" height="48" fill="currentColor"/>
</clipPath>
</defs>
</svg>