<svg viewBox="0 0 48 48" fill="none" xmlns="http://www.w3.org/2000/svg">
<g clip-path="url(#clip0_24_171)">
<g clip-path="url(#clip1_24_171)">
<path d="M34.5 40.5H40.5V23.5H34.5V40.5ZM35.5 24.5H39.5V39.5H35.5V24.5ZM25.5 40.5H31.5V26.4766H25.5V40.5ZM26.5 27.4766H30.5V39.5H26.5V27.4766ZM16.5 40.5234H22.5V31.4531H16.5V40.5234ZM17.5 32.4531H21.5V39.5234H17.5V32.4531ZM7.5 40.5H13.5V26.5H7.5V40.5ZM8.5 27.5H12.5V39.5H8.5V27.5ZM35 18.5552C36.2511 18.5567 37.4655 18.1321 38.4431 17.3513C39.4207 16.5705 40.1032 15.4801 40.3784 14.2596C40.6535 13.0391 40.5048 11.7612 39.9568 10.6365C39.4088 9.5118 38.4941 8.60723 37.3633 8.07177C36.2325 7.53631 34.9532 7.40187 33.7358 7.6906C32.5184 7.97933 31.4357 8.67401 30.6658 9.66026C29.896 10.6465 29.4849 11.8655 29.5004 13.1165C29.5158 14.3676 29.9568 15.5761 30.7508 16.543L24.2642 22.9732L19.311 18.0195L13.2929 23.9975L13.9975 24.707L19.309 19.4316L24.2612 24.3843L31.4545 17.2534C32.4445 18.0943 33.7012 18.5557 35 18.5552ZM35 8.55518C35.89 8.55518 36.76 8.8191 37.5001 9.31357C38.2401 9.80803 38.8169 10.5108 39.1575 11.3331C39.4981 12.1554 39.5872 13.0602 39.4135 13.9331C39.2399 14.806 38.8113 15.6078 38.182 16.2372C37.5526 16.8665 36.7508 17.2951 35.8779 17.4687C35.005 17.6423 34.1002 17.5532 33.2779 17.2126C32.4557 16.872 31.7529 16.2953 31.2584 15.5552C30.7639 14.8152 30.5 13.9452 30.5 13.0552C30.5014 11.8621 30.9759 10.7183 31.8195 9.87473C32.6632 9.03112 33.807 8.55656 35 8.55518ZM34.5 16.2788H35.5V15.188H36.6694C37.0179 15.187 37.3518 15.0479 37.5979 14.8012C37.844 14.5544 37.9822 14.2201 37.9822 13.8716C37.9822 13.5231 37.844 13.1888 37.5979 12.942C37.3518 12.6953 37.0179 12.5562 36.6694 12.5552H35.5V11.8906H37.9854V10.8906H35.5V9.85254H34.5V10.8906H33.3037C32.9531 10.8947 32.6181 11.0369 32.3716 11.2863C32.1251 11.5357 31.9868 11.8722 31.9868 12.2229C31.9868 12.5736 32.1251 12.9101 32.3716 13.1595C32.6181 13.4089 32.9531 13.5511 33.3037 13.5552H34.5V14.188H31.9873V15.188H34.5V16.2788ZM33.3037 12.5552C33.2597 12.5541 33.2164 12.5442 33.1764 12.5259C33.1364 12.5076 33.1005 12.4814 33.071 12.4489C33.0414 12.4163 33.0187 12.3781 33.0043 12.3365C32.9899 12.295 32.9842 12.2509 32.9873 12.207C32.9875 12.1232 33.0208 12.0428 33.0801 11.9835C33.1395 11.9242 33.2198 11.8908 33.3037 11.8906H34.5V12.5552H33.3037ZM35.5 13.5552H36.6694C36.753 13.5557 36.8331 13.5892 36.892 13.6485C36.951 13.7078 36.9841 13.788 36.9841 13.8716C36.9841 13.9552 36.951 14.0354 36.892 14.0947C36.8331 14.154 36.753 14.1875 36.6694 14.188H35.5V13.5552Z" fill="currentColor"/>
</g>
</g>
<defs>
<clipPath id="clip0_24_171">
<rect width="48" height="48" fill="currentColor"/>
</clipPath>
<clipPath id="clip1_24_171">
<rect width="48" height="48" fill="currentColor"/>
</clipPath>
</defs>
</svg>