<svg viewBox="0 0 48 48" fill="none" xmlns="http://www.w3.org/2000/svg">
<g clip-path="url(#clip0_144_2457)">
<path d="M43.5 36.5H41.668L37.652 21.5H38.5V20.5H36.5V19.5H37.5V18.5H34.5V19.5H35.5V20.5H33.5V21.5H34.348L30.329 36.5H26.456L25.384 32.5H24.5V21.46C24.6687 21.4253 24.8332 21.373 24.991 21.304L31.4 25L31.88 23.105C31.9623 22.7775 31.9346 22.432 31.8012 22.1218C31.6679 21.8115 31.4362 21.5537 31.142 21.388L26.474 18.7C26.4329 18.3682 26.3256 18.048 26.1582 17.7585C25.9909 17.4691 25.767 17.2162 25.5 17.015V9.6L23.618 10.131C23.2929 10.2238 23.0074 10.4209 22.8053 10.6919C22.6033 10.963 22.496 11.293 22.5 11.631V17.017C22.233 17.2182 22.0091 17.4711 21.8418 17.7605C21.6744 18.05 21.5671 18.3702 21.526 18.702L15.1 22.4L16.5 23.764C16.788 24.0434 17.1737 24.1995 17.575 24.199C17.8501 24.1993 18.1201 24.1246 18.356 23.983L23.009 21.3C23.1668 21.369 23.3313 21.4213 23.5 21.456V32.5H22.616L21.544 36.5H15.5V35.511H17.384L19.256 28.511H8.222L6.35 35.511H8.5V36.5H4.5V37.5H35.5V37.511H36.5V37.5H43.5V36.5ZM30.905 22.861L30.75 23.475L25.869 20.657C26.0928 20.4049 26.2629 20.1099 26.369 19.79L30.646 22.259C30.7494 22.3168 30.8309 22.4072 30.8777 22.516C30.9246 22.6249 30.9342 22.7461 30.905 22.861ZM23.5 11.617C23.4984 11.4983 23.5357 11.3824 23.6064 11.287C23.677 11.1916 23.777 11.1221 23.891 11.089L24.5 10.917V16.551C24.1701 16.483 23.8299 16.483 23.5 16.551V11.617ZM24 17.5C24.2981 17.499 24.5897 17.5866 24.838 17.7516C25.0863 17.9165 25.2799 18.1515 25.3945 18.4267C25.509 18.702 25.5392 19.005 25.4813 19.2974C25.4234 19.5898 25.28 19.8584 25.0692 20.0692C24.8584 20.28 24.5898 20.4234 24.2974 20.4813C24.005 20.5392 23.702 20.509 23.4267 20.3945C23.1515 20.2799 22.9165 20.0863 22.7516 19.838C22.5866 19.5897 22.499 19.2981 22.5 19C22.5018 18.6027 22.6605 18.2223 22.9414 17.9414C23.2223 17.6605 23.6027 17.5018 24 17.5ZM17.856 23.125C17.7542 23.1858 17.6351 23.2115 17.5173 23.1979C17.3995 23.1844 17.2894 23.1324 17.204 23.05L16.75 22.608L21.633 19.79C21.7391 20.1099 21.9092 20.4049 22.133 20.657L17.856 23.125ZM14.5 35.511V36.5H9.5V35.511H14.5ZM12.648 34.511L13.184 32.511H17.15L16.615 34.511H12.648ZM17.417 31.511H13.453L13.989 29.511H17.954L17.417 31.511ZM12.952 29.511L12.416 31.511H8.455L8.99 29.511H12.952ZM8.186 32.511H12.148L11.613 34.511H7.652L8.186 32.511ZM22.58 36.5L23.38 33.5H24.612L25.412 36.5H22.58ZM35.5 28.825L33.981 27.935L35.5 26.635V28.825ZM36.5 26.633L38.017 27.933L36.5 28.82V26.633ZM36.5 30.57L38.929 31.994L36.5 33.308V30.57ZM35.5 33.302L33.071 31.984L35.5 30.563V33.302ZM36.985 29.695L38.564 28.772L39.15 30.964L36.985 29.695ZM36.772 25.549L37.528 24.904L37.977 26.582L36.772 25.549ZM34.021 26.584L34.474 24.896L35.234 25.548L34.021 26.584ZM33.435 28.774L35.005 29.694L32.85 30.954L33.435 28.774ZM32.371 32.742L34.956 34.142L31.494 36.016L32.371 32.742ZM39.629 32.751L40.503 36.017L37.054 34.145L39.629 32.751ZM36.616 21.5L37.241 23.834L36.5 24.467V21.5H36.616ZM35.5 21.5V24.459L34.761 23.825L35.384 21.5H35.5ZM32.7 36.5L35.5 34.986V36.5H32.7ZM36.5 34.982L39.3 36.5H36.5V34.982Z" fill="currentColor"/>
</g>
<defs>
<clipPath id="clip0_144_2457">
<rect width="48" height="48" fill="currentColor"/>
</clipPath>
</defs>
</svg>