<svg viewBox="0 0 48 48" fill="none" xmlns="http://www.w3.org/2000/svg">
<path d="M26.5 29.5H36.5V18.5H26.5V29.5ZM27.5 19.5H35.5V28.5H27.5V19.5Z" fill="currentColor"/>
<path d="M28 27H35V21H28V27ZM29 22H34V26H29V22Z" fill="currentColor"/>
<path d="M43.5 20.5V10.5H23.5V11.5H14.5V10.5H4.5V37.5H14.5V36.5H23.5V37.5H43.5V27.5H42.5V26.5H43.5V21.5H42.5V20.5H43.5ZM42.5 22.5V25.5H41.5V28.5H42.5V36.5H24.5V35.5H13.5V36.5H5.5V11.5H13.5V12.5H24.5V11.5H42.5V19.5H41.5V22.5H42.5Z" fill="currentColor"/>
<path d="M11.5 30.5H25.5V17.5H11.5V30.5ZM12.5 18.5H24.5V29.5H12.5V18.5Z" fill="currentColor"/>
<path d="M15 27H22V21H15V27ZM16 22H21V26H16V22Z" fill="currentColor"/>
<path d="M12.5 34.5H25.5V31.5H12.5V34.5ZM22.5 32.5H24.5V33.5H22.5V32.5ZM19.5 32.5H21.5V33.5H19.5V32.5ZM16.5 32.5H18.5V33.5H16.5V32.5ZM13.5 32.5H15.5V33.5H13.5V32.5Z" fill="currentColor"/>
<path d="M12.5 16.5H25.5V13.5H12.5V16.5ZM22.5 14.5H24.5V15.5H22.5V14.5ZM19.5 14.5H21.5V15.5H19.5V14.5ZM16.5 14.5H18.5V15.5H16.5V14.5ZM13.5 14.5H15.5V15.5H13.5V14.5Z" fill="currentColor"/>
</svg>