<svg viewBox="0 0 48 48" fill="none" xmlns="http://www.w3.org/2000/svg">
<g clip-path="url(#clip0_144_2664)">
<path d="M8 11.5C7.70333 11.5 7.41332 11.588 7.16664 11.7528C6.91997 11.9176 6.72771 12.1519 6.61418 12.426C6.50065 12.7001 6.47094 13.0017 6.52882 13.2926C6.5867 13.5836 6.72956 13.8509 6.93934 14.0607C7.14912 14.2704 7.41639 14.4133 7.70736 14.4712C7.99834 14.5291 8.29994 14.4994 8.57403 14.3858C8.84811 14.2723 9.08238 14.08 9.2472 13.8334C9.41203 13.5867 9.5 13.2967 9.5 13C9.5 12.6022 9.34196 12.2206 9.06066 11.9393C8.77936 11.658 8.39782 11.5 8 11.5ZM8 13.5C7.90111 13.5 7.80444 13.4707 7.72221 13.4157C7.63999 13.3608 7.5759 13.2827 7.53806 13.1913C7.50022 13.1 7.49031 12.9994 7.50961 12.9025C7.5289 12.8055 7.57652 12.7164 7.64645 12.6464C7.71637 12.5765 7.80546 12.5289 7.90245 12.5096C7.99945 12.4903 8.09998 12.5002 8.19134 12.5381C8.2827 12.5759 8.36079 12.64 8.41574 12.7222C8.47068 12.8044 8.5 12.9011 8.5 13C8.5 13.1326 8.44732 13.2598 8.35355 13.3536C8.25979 13.4473 8.13261 13.5 8 13.5ZM15.5 12.5V13.5H10.5V12.5H15.5ZM8 19.5C7.70333 19.5 7.41332 19.588 7.16664 19.7528C6.91997 19.9176 6.72771 20.1519 6.61418 20.426C6.50065 20.7001 6.47094 21.0017 6.52882 21.2926C6.5867 21.5836 6.72956 21.8509 6.93934 22.0607C7.14912 22.2704 7.41639 22.4133 7.70736 22.4712C7.99834 22.5291 8.29994 22.4993 8.57403 22.3858C8.84811 22.2723 9.08238 22.08 9.2472 21.8334C9.41203 21.5867 9.5 21.2967 9.5 21C9.5 20.6022 9.34196 20.2206 9.06066 19.9393C8.77936 19.658 8.39782 19.5 8 19.5ZM8 21.5C7.90111 21.5 7.80444 21.4707 7.72221 21.4157C7.63999 21.3608 7.5759 21.2827 7.53806 21.1913C7.50022 21.1 7.49031 20.9994 7.50961 20.9025C7.5289 20.8055 7.57652 20.7164 7.64645 20.6464C7.71637 20.5765 7.80546 20.5289 7.90245 20.5096C7.99945 20.4903 8.09998 20.5002 8.19134 20.5381C8.2827 20.5759 8.36079 20.64 8.41574 20.7222C8.47068 20.8044 8.5 20.9011 8.5 21C8.5 21.1326 8.44732 21.2598 8.35355 21.3536C8.25979 21.4473 8.13261 21.5 8 21.5ZM15.5 20.5V21.5H10.5V20.5H15.5ZM8 27.5C7.70333 27.5 7.41332 27.588 7.16664 27.7528C6.91997 27.9176 6.72771 28.1519 6.61418 28.426C6.50065 28.7001 6.47094 29.0017 6.52882 29.2926C6.5867 29.5836 6.72956 29.8509 6.93934 30.0607C7.14912 30.2704 7.41639 30.4133 7.70736 30.4712C7.99834 30.5291 8.29994 30.4993 8.57403 30.3858C8.84811 30.2723 9.08238 30.08 9.2472 29.8334C9.41203 29.5867 9.5 29.2967 9.5 29C9.5 28.6022 9.34196 28.2206 9.06066 27.9393C8.77936 27.658 8.39782 27.5 8 27.5ZM8 29.5C7.90111 29.5 7.80444 29.4707 7.72221 29.4157C7.63999 29.3608 7.5759 29.2827 7.53806 29.1913C7.50022 29.1 7.49031 28.9994 7.50961 28.9025C7.5289 28.8055 7.57652 28.7164 7.64645 28.6464C7.71637 28.5765 7.80546 28.5289 7.90245 28.5096C7.99945 28.4903 8.09998 28.5002 8.19134 28.5381C8.2827 28.5759 8.36079 28.64 8.41574 28.7222C8.47068 28.8044 8.5 28.9011 8.5 29C8.5 29.1326 8.44732 29.2598 8.35355 29.3536C8.25979 29.4473 8.13261 29.5 8 29.5ZM15.5 29.5H10.5V28.5H15.5V29.5ZM26.5 8.5V35.5H27.5V33.5H34.5V36.5H33.5V37.5H14.5V36.5H13.5V33.5H20.5V35.5H21.5V8.5H4.5V35.5H5.5V33.5H12.5V36.5H11.5V37.5H7.5V38.5H11.5V39.5H14.5V38.5H33.5V39.5H36.5V38.5H40.5V37.5H36.5V36.5H35.5V33.5H42.5V35.5H43.5V8.5H26.5ZM5.5 9.5H20.5V16.5H5.5V9.5ZM5.5 17.5H20.5V24.5H5.5V17.5ZM5.5 32.5V25.5H20.5V32.5H5.5ZM12.5 38.5V37.5H13.5V38.5H12.5ZM35.5 38.5H34.5V37.5H35.5V38.5ZM42.5 32.5H27.5V25.5H42.5V32.5ZM42.5 24.5H27.5V17.5H42.5V24.5ZM27.5 16.5V9.5H42.5V16.5H27.5ZM30 11.5C29.7033 11.5 29.4133 11.588 29.1666 11.7528C28.92 11.9176 28.7277 12.1519 28.6142 12.426C28.5007 12.7001 28.4709 13.0017 28.5288 13.2926C28.5867 13.5836 28.7296 13.8509 28.9393 14.0607C29.1491 14.2704 29.4164 14.4133 29.7074 14.4712C29.9983 14.5291 30.2999 14.4994 30.574 14.3858C30.8481 14.2723 31.0824 14.08 31.2472 13.8334C31.412 13.5867 31.5 13.2967 31.5 13C31.5 12.6022 31.342 12.2206 31.0607 11.9393C30.7794 11.658 30.3978 11.5 30 11.5ZM30 13.5C29.9011 13.5 29.8044 13.4707 29.7222 13.4157C29.64 13.3608 29.5759 13.2827 29.5381 13.1913C29.5002 13.1 29.4903 12.9994 29.5096 12.9025C29.5289 12.8055 29.5765 12.7164 29.6464 12.6464C29.7164 12.5765 29.8055 12.5289 29.9025 12.5096C29.9994 12.4903 30.1 12.5002 30.1913 12.5381C30.2827 12.5759 30.3608 12.64 30.4157 12.7222C30.4707 12.8044 30.5 12.9011 30.5 13C30.5 13.1326 30.4473 13.2598 30.3536 13.3536C30.2598 13.4473 30.1326 13.5 30 13.5ZM37.5 12.5V13.5H32.5V12.5H37.5ZM30 22.5C30.2967 22.5 30.5867 22.412 30.8334 22.2472C31.08 22.0824 31.2723 21.8481 31.3858 21.574C31.4993 21.2999 31.5291 20.9983 31.4712 20.7074C31.4133 20.4164 31.2704 20.1491 31.0607 19.9393C30.8509 19.7296 30.5836 19.5867 30.2926 19.5288C30.0017 19.4709 29.7001 19.5007 29.426 19.6142C29.1519 19.7277 28.9176 19.92 28.7528 20.1666C28.588 20.4133 28.5 20.7033 28.5 21C28.5 21.3978 28.658 21.7794 28.9393 22.0607C29.2206 22.342 29.6022 22.5 30 22.5ZM30 20.5C30.0989 20.5 30.1956 20.5293 30.2778 20.5843C30.36 20.6392 30.4241 20.7173 30.4619 20.8087C30.4998 20.9 30.5097 21.0006 30.4904 21.0975C30.4711 21.1945 30.4235 21.2836 30.3536 21.3536C30.2836 21.4235 30.1945 21.4711 30.0975 21.4904C30.0006 21.5097 29.9 21.4998 29.8087 21.4619C29.7173 21.4241 29.6392 21.36 29.5843 21.2778C29.5293 21.1956 29.5 21.0989 29.5 21C29.5 20.8674 29.5527 20.7402 29.6464 20.6464C29.7402 20.5527 29.8674 20.5 30 20.5ZM37.5 21.5H32.5V20.5H37.5V21.5ZM30 30.5C30.2967 30.5 30.5867 30.412 30.8334 30.2472C31.08 30.0824 31.2723 29.8481 31.3858 29.574C31.4993 29.2999 31.5291 28.9983 31.4712 28.7074C31.4133 28.4164 31.2704 28.1491 31.0607 27.9393C30.8509 27.7296 30.5836 27.5867 30.2926 27.5288C30.0017 27.4709 29.7001 27.5007 29.426 27.6142C29.1519 27.7277 28.9176 27.92 28.7528 28.1666C28.588 28.4133 28.5 28.7033 28.5 29C28.5 29.3978 28.658 29.7794 28.9393 30.0607C29.2206 30.342 29.6022 30.5 30 30.5ZM30 28.5C30.0989 28.5 30.1956 28.5293 30.2778 28.5843C30.36 28.6392 30.4241 28.7173 30.4619 28.8087C30.4998 28.9 30.5097 29.0006 30.4904 29.0975C30.4711 29.1945 30.4235 29.2836 30.3536 29.3536C30.2836 29.4235 30.1945 29.4711 30.0975 29.4904C30.0006 29.5097 29.9 29.4998 29.8087 29.4619C29.7173 29.4241 29.6392 29.36 29.5843 29.2778C29.5293 29.1956 29.5 29.0989 29.5 29C29.5 28.8674 29.5527 28.7402 29.6464 28.6464C29.7402 28.5527 29.8674 28.5 30 28.5ZM37.5 29.5H32.5V28.5H37.5V29.5Z" fill="currentColor"/>
</g>
<defs>
<clipPath id="clip0_144_2664">
<rect width="48" height="48" fill="currentColor"/>
</clipPath>
</defs>
</svg>