<svg viewBox="0 0 48 48" fill="none" xmlns="http://www.w3.org/2000/svg">
<g clip-path="url(#clip0_1531_1270)">
<path d="M30.5454 19.6807C31.6231 19.6807 32.5 18.8037 32.5 17.7261C32.5 16.6484 31.6231 15.7715 30.5454 15.7715C29.9627 15.7715 29.4448 16.0332 29.0862 16.439L25.9136 14.8525C25.9402 14.7236 25.9546 14.5908 25.9546 14.4546C25.9546 13.3769 25.0776 12.5 24 12.5C22.9224 12.5 22.0454 13.3769 22.0454 14.4546C22.0454 14.5908 22.0598 14.7236 22.0864 14.8525L18.8857 16.4526C18.5283 16.0659 18.0215 15.8193 17.4546 15.8193C16.377 15.8193 15.5 16.6963 15.5 17.7739C15.5 18.8516 16.377 19.7285 17.4546 19.7285C17.6846 19.7285 17.9023 19.6812 18.1077 19.6079L19.0352 21L18.0816 22.4307C17.8836 22.3628 17.6751 22.3184 17.4546 22.3184C16.377 22.3184 15.5 23.1948 15.5 24.2725C15.5 25.3506 16.377 26.2275 17.4546 26.2275C18.0366 26.2275 18.5544 25.9663 18.9128 25.561L22.0867 27.1475C22.0598 27.2759 22.0454 27.4092 22.0454 27.5454C22.0454 28.623 22.9224 29.5 24 29.5C25.0776 29.5 25.9546 28.6231 25.9546 27.5454C25.9546 27.4092 25.9402 27.2759 25.9133 27.1475L29.0872 25.561C29.4456 25.9663 29.9634 26.2275 30.5454 26.2275C31.6231 26.2275 32.5 25.3506 32.5 24.2724C32.5 23.1948 31.6231 22.3183 30.5454 22.3183C30.3249 22.3183 30.1165 22.3628 29.9185 22.4306L28.9648 21L29.9192 19.5684C30.1169 19.6357 30.3252 19.6807 30.5454 19.6807ZM23.2368 21.5435C23.2017 21.4946 23.1616 21.4497 23.1362 21.3945L23.1179 21.3579C23.0728 21.2471 23.0454 21.1269 23.0454 21C23.0454 20.4736 23.4736 20.0454 24 20.0454C24.5264 20.0454 24.9546 20.4736 24.9546 21C24.9546 21.1269 24.9272 21.2471 24.8821 21.3579L24.8643 21.3935C24.8372 21.4526 24.7949 21.501 24.7568 21.5527C24.3916 22.0288 23.5972 22.0259 23.2368 21.5435ZM24.6269 16.2969L26.5425 19.1699L25.4583 19.7119C25.207 19.4277 24.877 19.2188 24.5 19.1182V16.3359C24.543 16.3247 24.585 16.311 24.6269 16.2969ZM23.5 19.1182C23.123 19.2187 22.793 19.4277 22.5417 19.7119L21.4575 19.1699L23.3731 16.2969C23.415 16.311 23.457 16.3247 23.5 16.3359V19.1182ZM20.8984 21.9917L20.2373 21L20.8984 20.0083L22.0864 20.602C22.0598 20.731 22.0454 20.8638 22.0454 21C22.0454 21.1362 22.0598 21.269 22.0864 21.3975L21.2175 21.8325L20.8984 21.9917ZM25.9136 21.3975C25.9402 21.269 25.9546 21.1362 25.9546 21C25.9546 20.8638 25.9402 20.731 25.9136 20.602L27.1016 20.0083L27.7627 21L27.1016 21.9917L25.9136 21.3975ZM21.4573 22.8301L21.6365 22.7407L22.5376 22.29C22.5442 22.2978 22.5527 22.3027 22.5593 22.3096C22.8086 22.5835 23.1321 22.7837 23.5 22.8818V25.6641C23.4766 25.6699 23.4544 25.6782 23.4314 25.6851C23.4107 25.6914 23.3882 25.689 23.3677 25.6958L21.4573 22.8301ZM24.6323 25.6958C24.6118 25.689 24.5893 25.6914 24.5686 25.6851C24.5456 25.6782 24.5234 25.6699 24.5 25.6641V22.8818C24.8677 22.7837 25.1912 22.584 25.4402 22.31C25.447 22.3027 25.4556 22.2978 25.4624 22.2905L26.5427 22.8301L24.6323 25.6958ZM30.5454 16.7715C31.0718 16.7715 31.5 17.1997 31.5 17.7261C31.5 18.2524 31.0718 18.6807 30.5454 18.6807C30.019 18.6807 29.5908 18.2524 29.5908 17.7261C29.5908 17.1997 30.019 16.7715 30.5454 16.7715ZM28.6323 18.125L27.4443 18.7187L25.4604 15.7441L28.6316 17.3296C28.605 17.4575 28.5908 17.5903 28.5908 17.7261C28.5908 17.8628 28.6055 17.9961 28.6323 18.125ZM24 13.5C24.5264 13.5 24.9546 13.9282 24.9546 14.4546C24.9546 14.981 24.5264 15.4092 24 15.4092C23.4736 15.4092 23.0454 14.981 23.0454 14.4546C23.0454 13.9282 23.4736 13.5 24 13.5ZM22.5396 15.7441L20.5557 18.7187L19.3735 18.1279C19.3945 18.0127 19.4092 17.895 19.4092 17.7739C19.4092 17.623 19.3882 17.4775 19.3555 17.3359L22.5396 15.7441ZM16.5 17.7739C16.5 17.2476 16.9282 16.8193 17.4546 16.8193C17.981 16.8193 18.4092 17.2476 18.4092 17.7739C18.4092 18.3003 17.981 18.7285 17.4546 18.7285C16.9282 18.7285 16.5 18.3003 16.5 17.7739ZM18.9312 19.04C18.9341 19.0366 18.937 19.0327 18.9402 19.0293L19.9966 19.5576L19.6362 20.0986L18.9312 19.04ZM19.6362 21.9014L19.9968 22.4424L18.9146 22.9834L19.6362 21.9014ZM16.5 24.2725C16.5 23.7461 16.9282 23.3184 17.4546 23.3184C17.8313 23.3184 18.1509 23.5425 18.3062 23.8599C18.3726 23.9961 18.4089 24.1348 18.4092 24.272C18.4092 24.4101 18.3728 24.5498 18.3057 24.6856C18.1506 25.0034 17.831 25.2275 17.4546 25.2275C16.9282 25.2275 16.5 24.7988 16.5 24.2725ZM19.4092 24.2725L19.4089 24.2705C19.4087 24.1348 19.3945 24.0029 19.3682 23.875L20.5557 23.2812L22.5376 26.2539L22.5371 26.2549L19.3679 24.6709C19.3945 24.542 19.4092 24.4092 19.4092 24.2725ZM24 28.5C23.4736 28.5 23.0454 28.0718 23.0454 27.5454C23.0454 27.4185 23.0728 27.2983 23.1179 27.1875L23.1362 27.1514C23.1794 27.0566 23.238 26.9712 23.3083 26.896C23.3281 26.8745 23.3516 26.8584 23.3728 26.8389C23.4329 26.7856 23.5002 26.7412 23.5725 26.7041C23.606 26.6875 23.6387 26.6694 23.6736 26.6572C23.7605 26.625 23.8533 26.6064 23.9499 26.6011C23.9836 26.5996 24.0164 26.5996 24.0501 26.6011C24.1467 26.6064 24.2395 26.625 24.3264 26.6572C24.3613 26.6694 24.3941 26.6875 24.4275 26.7041C24.4998 26.7412 24.5671 26.7856 24.6272 26.8389C24.6484 26.8584 24.6719 26.8745 24.6917 26.896C24.762 26.9712 24.8206 27.0566 24.8638 27.1514L24.8821 27.1875C24.9272 27.2983 24.9546 27.4185 24.9546 27.5454C24.9546 28.0718 24.5264 28.5 24 28.5ZM25.4629 26.2549L25.4624 26.2539L27.4443 23.2812L28.6321 23.875C28.6055 24.0024 28.5913 24.1348 28.591 24.2705L28.5908 24.2724C28.5908 24.4092 28.6055 24.542 28.6321 24.6709L25.4629 26.2549ZM31.5 24.2725C31.5 24.7988 31.0718 25.2275 30.5454 25.2275C30.169 25.2275 29.8494 25.0034 29.6943 24.6856C29.6272 24.5498 29.5908 24.4107 29.5908 24.2725C29.5911 24.1348 29.6272 23.9956 29.6943 23.8594C29.8496 23.542 30.169 23.3183 30.5454 23.3183C31.0718 23.3184 31.5 23.7461 31.5 24.2725ZM29.0854 22.9834L28.0032 22.4424L28.3638 21.9014L29.0854 22.9834ZM28.0034 19.5576L29.085 19.0166L28.3638 20.0986L28.0034 19.5576Z" fill="currentColor"/>
<path d="M10.5 30.1631V34.2988L24 41.5679L37.5 34.2988V30.1631L24 37.4321L10.5 30.1631ZM36.5 33.7012L24 40.4321L11.5 33.7012V31.8369L24 38.5679L36.5 31.8369V33.7012Z" fill="currentColor"/>
<path d="M24.0322 5.43213L10.5 12.7012V29.2988L24 36.5679L37.5 29.2988V12.7017L24.0322 5.43213ZM24.5 35.1631V31.5H23.5V35.1631L11.5 28.7012V13.854L13.75 15.1528L14.25 14.2871L12.0381 13.0098L24.0312 6.56788L35.9639 13.0088L33.75 14.2871L34.25 15.1528L36.5 13.854V28.7012L24.5 35.1631Z" fill="currentColor"/>
</g>
<defs>
<clipPath id="clip0_1531_1270">
<rect width="48" height="48" fill="currentColor"/>
</clipPath>
</defs>
</svg>