<svg viewBox="0 0 48 48" fill="none" xmlns="http://www.w3.org/2000/svg">
<g clip-path="url(#clip0_141_1030)">
<path d="M8.5 11.5V34.5H12.276L13.741 39.966L19.207 34.5H39.5V11.5H8.5ZM38.5 33.5H18.793L14.259 38.034L13.044 33.5H9.5V12.5H38.5V33.5ZM23.5 26.5H24.5V28.5H23.5V26.5ZM24 31.5C25.6811 31.5 27.3245 31.0015 28.7223 30.0675C30.1202 29.1335 31.2096 27.806 31.853 26.2528C32.4963 24.6996 32.6646 22.9906 32.3367 21.3417C32.0087 19.6929 31.1992 18.1783 30.0104 16.9896C28.8217 15.8008 27.3071 14.9913 25.6583 14.6633C24.0094 14.3354 22.3004 14.5037 20.7472 15.147C19.194 15.7904 17.8665 16.8798 16.9325 18.2777C15.9985 19.6755 15.5 21.3189 15.5 23C15.5026 25.2535 16.399 27.414 17.9925 29.0075C19.586 30.601 21.7465 31.4974 24 31.5ZM24 15.5C25.4834 15.5 26.9334 15.9399 28.1668 16.764C29.4001 17.5881 30.3614 18.7594 30.9291 20.1299C31.4968 21.5003 31.6453 23.0083 31.3559 24.4632C31.0665 25.918 30.3522 27.2544 29.3033 28.3033C28.2544 29.3522 26.918 30.0665 25.4632 30.3559C24.0083 30.6453 22.5003 30.4968 21.1299 29.9291C19.7594 29.3614 18.5881 28.4001 17.764 27.1668C16.9399 25.9334 16.5 24.4834 16.5 23C16.5021 21.0115 17.293 19.1051 18.699 17.699C20.1051 16.293 22.0115 15.5021 24 15.5ZM21.5 21.5H20.5V21C20.5 20.0717 20.8687 19.1815 21.5251 18.5251C22.1815 17.8687 23.0717 17.5 24 17.5C24.9283 17.5 25.8185 17.8687 26.4749 18.5251C27.1313 19.1815 27.5 20.0717 27.5 21C27.4516 21.5189 27.2666 22.0158 26.964 22.4401C26.6614 22.8645 26.2519 23.2012 25.777 23.416C24.985 23.944 24.5 24.3 24.5 25V25.5H23.5V25C23.5484 24.4811 23.7334 23.9842 24.036 23.5599C24.3386 23.1355 24.7481 22.7988 25.223 22.584C26.015 22.056 26.5 21.7 26.5 21C26.5 20.337 26.2366 19.7011 25.7678 19.2322C25.2989 18.7634 24.663 18.5 24 18.5C23.337 18.5 22.7011 18.7634 22.2322 19.2322C21.7634 19.7011 21.5 20.337 21.5 21V21.5Z" fill="currentColor"/>
</g>
<defs>
<clipPath id="clip0_141_1030">
<rect width="48" height="48" fill="currentColor"/>
</clipPath>
</defs>
</svg>