<svg viewBox="0 0 48 48" fill="none" xmlns="http://www.w3.org/2000/svg">
<g clip-path="url(#clip0_24_240)">
<g clip-path="url(#clip1_24_240)">
<path d="M40.5 7.5H13.5V10.5H10.5V13.5H7.5V40.5H34.5V37.5H37.5V34.5H40.5V7.5ZM33.5 39.5H8.5V14.5H33.5V39.5ZM36.5 36.5H34.5V13.5H11.5V11.5H36.5V36.5ZM39.5 33.5H37.5V10.5H14.5V8.5H39.5V33.5ZM26.3906 35.5L27.5 31.0606L27.4795 25.5H25.5V23C25.5 21.8065 25.0259 20.6619 24.182 19.818C23.3381 18.9741 22.1935 18.5 21 18.5C19.8065 18.5 18.6619 18.9741 17.818 19.818C16.9741 20.6619 16.5 21.8065 16.5 23V25.5H14.5205L14.5 30.9981L15.6094 35.5H26.3906ZM17.5 23C17.5 22.0717 17.8687 21.1815 18.5251 20.5251C19.1815 19.8687 20.0717 19.5 21 19.5C21.9283 19.5 22.8185 19.8687 23.4749 20.5251C24.1313 21.1815 24.5 22.0717 24.5 23V25.5H17.5V23ZM15.5166 26.5H26.4834L26.5 30.9394L25.6094 34.5H16.3906L15.5 30.9394L15.5166 26.5ZM21.5 32.5H20.5V28.5H21.5V32.5Z" fill="currentColor"/>
</g>
</g>
<defs>
<clipPath id="clip0_24_240">
<rect width="48" height="48" fill="currentColor"/>
</clipPath>
<clipPath id="clip1_24_240">
<rect width="48" height="48" fill="currentColor"/>
</clipPath>
</defs>
</svg>