<svg viewBox="0 0 48 48" fill="none" xmlns="http://www.w3.org/2000/svg">
<g clip-path="url(#clip0_1438_728)">
<path d="M28.5 25.9707H27.5V39.5H8.5V20.5H22.0293V19.5H8.5V17.5H7.5V40.5H30.5V39.5H28.5V25.9707Z" fill="currentColor"/>
<path d="M8.5 12.5H7.5V15.5H8.5V12.5Z" fill="currentColor"/>
<path d="M8.5 8.5H10.5V7.5H7.5V10.5H8.5V8.5Z" fill="currentColor"/>
<path d="M15.5 7.5H12.5V8.5H15.5V7.5Z" fill="currentColor"/>
<path d="M20.5 7.5H17.5V8.5H20.5V7.5Z" fill="currentColor"/>
<path d="M25.5 7.5H22.5V8.5H25.5V7.5Z" fill="currentColor"/>
<path d="M30.5 7.5H27.5V8.5H30.5V7.5Z" fill="currentColor"/>
<path d="M35.5 7.5H32.5V8.5H35.5V7.5Z" fill="currentColor"/>
<path d="M40.5 12.5H39.5V15.5H40.5V12.5Z" fill="currentColor"/>
<path d="M40.5 17.5H39.5V20.5H40.5V17.5Z" fill="currentColor"/>
<path d="M40.5 22.5H39.5V25.5H40.5V22.5Z" fill="currentColor"/>
<path d="M40.5 27.5H39.5V30.5H40.5V27.5Z" fill="currentColor"/>
<path d="M40.5 32.5H39.5V35.5H40.5V32.5Z" fill="currentColor"/>
<path d="M35.5 39.5H32.5V40.5H35.5V39.5Z" fill="currentColor"/>
<path d="M39.5 39.5H37.5V40.5H40.5V37.5H39.5V39.5Z" fill="currentColor"/>
<path d="M37.5 7.5V8.5H39.5V10.5H40.5V7.5H37.5Z" fill="currentColor"/>
<path d="M26.5 13.5H33.7929L24.793 22.5L25.5 23.207L34.5 14.207V21.5H35.5V12.5H26.5V13.5Z" fill="currentColor"/>
<path d="M24 28.4985C24.8272 28.4985 25.5 27.8257 25.5 26.9985C25.5 26.1714 24.8272 25.4985 24 25.4985C23.5962 25.4985 23.2307 25.6607 22.9607 25.9209L19.4817 24.1816C19.489 24.1211 19.5 24.062 19.5 23.9995C19.5 23.1724 18.8272 22.4995 18 22.4995C17.1728 22.4995 16.5 23.1724 16.5 23.9995C16.5 24.062 16.511 24.1211 16.5183 24.1816L13.0061 25.9375C12.7395 25.6948 12.3884 25.5425 12 25.5425C11.1729 25.5425 10.5 26.2153 10.5 27.0425C10.5 27.8696 11.1729 28.5425 12 28.5425C12.1355 28.5425 12.2642 28.5185 12.389 28.4849L13.3989 30L12.3655 31.5503C12.2478 31.5205 12.1267 31.5 12 31.5C11.1729 31.5 10.5 32.1728 10.5 33C10.5 33.8272 11.1729 34.5 12 34.5C12.4033 34.5 12.7683 34.3384 13.0381 34.0786L16.5183 35.8184C16.511 35.8789 16.5 35.938 16.5 36.0005C16.5 36.8276 17.1728 37.5005 18 37.5005C18.8272 37.5005 19.5 36.8276 19.5 36.0005C19.5 35.938 19.489 35.8789 19.4816 35.8184L22.9619 34.0786C23.2317 34.3384 23.5967 34.5 24 34.5C24.8272 34.5 25.5 33.8272 25.5 33C25.5 32.1728 24.8272 31.5 24 31.5C23.8733 31.5 23.7522 31.5205 23.6345 31.5503L22.6011 30L23.6348 28.4482C23.7524 28.478 23.8733 28.4985 24 28.4985ZM12 27.5425C11.7241 27.5425 11.5 27.3184 11.5 27.0425C11.5 26.7666 11.7241 26.5425 12 26.5425C12.2759 26.5425 12.5 26.7666 12.5 27.0425C12.5 27.3184 12.2759 27.5425 12 27.5425ZM12 33.5C11.7241 33.5 11.5 33.2759 11.5 33C11.5 32.7246 11.7241 32.5 12 32.5C12.2759 32.5 12.5 32.7246 12.5 33C12.5 33.2759 12.2759 33.5 12 33.5ZM24 32.5C24.2759 32.5 24.5 32.7246 24.5 33C24.5 33.2759 24.2759 33.5 24 33.5C23.7241 33.5 23.5 33.2759 23.5 33C23.5 32.7246 23.7241 32.5 24 32.5ZM22.5183 26.8179C22.511 26.8779 22.5 26.9365 22.5 26.9985C22.5 27.0615 22.511 27.1211 22.5186 27.1817L21.1714 27.8555L19.4604 25.2891L22.5183 26.8179ZM22.5391 28.2891L22 29.0986L21.7302 28.6938L22.5391 28.2891ZM19.4817 29.8179L20.8286 29.1445L21.3989 30L20.8286 30.8555L19.4817 30.1821C19.489 30.1216 19.5 30.0625 19.5 30C19.5 29.9375 19.489 29.8784 19.4817 29.8179ZM18 23.4995C18.2759 23.4995 18.5 23.7236 18.5 23.9995C18.5 24.2754 18.2759 24.4995 18 24.4995C17.7241 24.4995 17.5 24.2754 17.5 23.9995C17.5 23.7236 17.7241 23.4995 18 23.4995ZM17.6345 25.4492C17.7522 25.479 17.8733 25.4995 18 25.4995C18.1267 25.4995 18.2478 25.479 18.3655 25.4492L20.2696 28.3062L19.0382 28.9219C18.7683 28.6616 18.4033 28.5 18 28.5C17.5967 28.5 17.2317 28.6616 16.9618 28.9219L15.7303 28.3062L17.6345 25.4492ZM18.5 30C18.5 30.2759 18.2759 30.5 18 30.5C17.7241 30.5 17.5 30.2759 17.5 30C17.5 29.7241 17.7241 29.5 18 29.5C18.2759 29.5 18.5 29.7241 18.5 30ZM16.5183 30.1821L15.1714 30.8555L14.6011 30L15.1714 29.1445L16.5183 29.8179C16.511 29.8784 16.5 29.9375 16.5 30C16.5 30.0625 16.511 30.1216 16.5183 30.1821ZM16.5396 25.2891L14.8286 27.8555L13.4857 27.1836C13.4902 27.1367 13.5 27.0908 13.5 27.0425C13.5 26.9663 13.4885 26.8931 13.4775 26.8203L16.5396 25.2891ZM14.2697 28.6938L13.9999 29.0986L13.4604 28.2891L14.2697 28.6938ZM13.9999 30.9014L14.2697 31.3062L13.4607 31.711L13.9999 30.9014ZM13.4817 33.1821C13.489 33.1221 13.5 33.0625 13.5 33C13.5 32.938 13.489 32.8789 13.4817 32.8184L14.8286 32.1445L16.5396 34.7109L13.4817 33.1821ZM18 36.5005C17.7241 36.5005 17.5 36.2764 17.5 36.0005C17.5 35.9434 17.5149 35.8906 17.5325 35.8399L17.5615 35.7817C17.5957 35.7144 17.6533 35.6528 17.7338 35.5991C17.7776 35.5698 17.8062 35.5527 17.8379 35.5332C17.8894 35.5156 17.9425 35.5005 18 35.5005C18.0575 35.5005 18.1106 35.5156 18.1621 35.5332C18.1938 35.5527 18.2224 35.5698 18.2662 35.5991C18.3472 35.6533 18.4038 35.7134 18.439 35.7832L18.4675 35.8394C18.4851 35.8906 18.5 35.9433 18.5 36.0005C18.5 36.2764 18.2759 36.5005 18 36.5005ZM18.3652 34.5508C18.2476 34.521 18.1267 34.5005 18 34.5005C17.8733 34.5005 17.7524 34.521 17.6348 34.5508L15.7305 31.6938L16.9618 31.0781C17.2317 31.3384 17.5967 31.5 18 31.5C18.4033 31.5 18.7683 31.3384 19.0382 31.0781L20.2695 31.6938L18.3652 34.5508ZM22.5183 33.1821L19.4604 34.7109L21.1714 32.1445L22.5183 32.8184C22.511 32.8789 22.5 32.938 22.5 33C22.5 33.0625 22.511 33.1221 22.5183 33.1821ZM21.7304 31.3062L22.0001 30.9014L22.5393 31.7109L21.7304 31.3062ZM24 26.4985C24.2759 26.4985 24.5 26.7227 24.5 26.9985C24.5 27.2744 24.2759 27.4985 24 27.4985C23.7241 27.4985 23.5 27.2744 23.5 26.9985C23.5 26.7227 23.7241 26.4985 24 26.4985Z" fill="currentColor"/>
</g>
<defs>
<clipPath id="clip0_1438_728">
<rect width="48" height="48" fill="currentColor"/>
</clipPath>
</defs>
</svg>