<svg viewBox="0 0 48 48" fill="none" xmlns="http://www.w3.org/2000/svg">
<g clip-path="url(#clip0_144_3154)">
<path d="M43.505 10.505H10.505V13.505H7.505V16.505H4.505V37.505H37.505V34.505H40.505V31.505H43.505V10.505ZM5.505 17.505H36.505V20.505H5.505V17.505ZM36.505 36.505H5.505V21.505H36.505V33.505H36.5V34.505H36.505V36.505ZM39.505 33.505H37.505V16.505H8.505V14.505H39.505V30.505H39.5V31.505H39.505V33.505ZM42.505 30.505H40.505V13.505H11.505V11.505H42.505V30.505ZM33.5 18.5H35.5V19.5H33.5V18.5ZM30.5 18.5H32.5V19.5H30.5V18.5ZM27.5 18.5H29.5V19.5H27.5V18.5Z" fill="currentColor"/>
</g>
<defs>
<clipPath id="clip0_144_3154">
<rect width="48" height="48" fill="currentColor"/>
</clipPath>
</defs>
</svg>