<svg viewBox="0 0 48 48" fill="none" xmlns="http://www.w3.org/2000/svg">
<g clip-path="url(#clip0_24_48)">
<g clip-path="url(#clip1_24_48)">
<path d="M35.2788 27.2017L33.1826 21.9893L37.9419 19.0049L33.1826 16.021L35.2793 10.8086L29.6729 11.1948L28.3101 5.74219L24.0005 9.35254L19.6909 5.74219L18.3281 11.1943L12.7217 10.8081L14.8184 16.021L10.0591 19.0049L14.8179 21.9893L12.7217 27.2012L14.4329 27.0835L11.1196 39.4482L16.3398 37.353L19.813 41.7778L23.1345 29.3828L24.0005 28.6572L24.8975 29.4092L28.2115 41.7779L31.6847 37.3531L36.9049 39.4483L33.592 27.0854L35.2788 27.2017ZM19.3648 39.5869L16.6631 36.1455L12.603 37.7754L15.4875 27.0107L18.3281 26.8154L19.6909 32.2681L21.7995 30.5015L19.3648 39.5869ZM20.2739 30.4751L19.0947 25.7602L14.2451 26.0942L16.0581 21.5859L11.9419 19.0049L16.0586 16.4238L14.2451 11.9155L19.0947 12.25L20.2739 7.53468L24.0005 10.6572L27.7271 7.53468L28.9063 12.25L33.7559 11.916L31.9424 16.4238L36.0591 19.0049L31.9424 21.5864L33.7554 26.0942L28.9063 25.7602L27.7271 30.4756L24.0005 27.3526L20.2739 30.4751ZM35.4214 37.7754L31.3613 36.1455L28.6597 39.5869L26.2324 30.5278L28.3091 32.2681L29.6729 26.8154L32.5376 27.0127L35.4214 37.7754ZM31.5049 19.0049C31.5048 17.5206 31.0646 16.0697 30.24 14.8356C29.4153 13.6015 28.2432 12.6396 26.8719 12.0716C25.5006 11.5037 23.9917 11.3551 22.5359 11.6447C21.0802 11.9344 19.743 12.6491 18.6935 13.6987C17.644 14.7483 16.9293 16.0855 16.6398 17.5413C16.3502 18.9971 16.4989 20.506 17.067 21.8773C17.635 23.2485 18.5969 24.4206 19.8311 25.2451C21.0653 26.0697 22.5162 26.5098 24.0005 26.5098C25.9902 26.5075 27.8977 25.7161 29.3046 24.3091C30.7115 22.9022 31.5028 20.9946 31.5049 19.0049ZM24.0005 25.5098C22.714 25.5098 21.4564 25.1284 20.3867 24.4137C19.317 23.699 18.4832 22.6831 17.9908 21.4946C17.4985 20.306 17.3696 18.9982 17.6205 17.7364C17.8715 16.4746 18.4909 15.3156 19.4006 14.4058C20.3102 13.4961 21.4692 12.8766 22.731 12.6255C23.9928 12.3745 25.3006 12.5033 26.4892 12.9955C27.6778 13.4878 28.6937 14.3215 29.4085 15.3911C30.1233 16.4608 30.5048 17.7184 30.5049 19.0049C30.503 20.7294 29.8171 22.3828 28.5977 23.6022C27.3783 24.8217 25.725 25.5077 24.0005 25.5098Z" fill="currentColor"/>
</g>
</g>
<defs>
<clipPath id="clip0_24_48">
<rect width="48" height="48" fill="currentColor"/>
</clipPath>
<clipPath id="clip1_24_48">
<rect width="48" height="48" fill="currentColor"/>
</clipPath>
</defs>
</svg>