<svg viewBox="0 0 48 48" fill="none" xmlns="http://www.w3.org/2000/svg">
<g clip-path="url(#clip0_141_2061)">
<path d="M19.5 20.5V40.5H20.5V39.5H35.5V40.5H36.5V14.5H19.5V20.5ZM35.5 38.5H20.5V33.5H35.5V38.5ZM35.5 32.5H20.5V27.5H35.5V32.5ZM35.5 26.5H20.5V21.5H35.5V26.5ZM35.5 15.5V20.5H20.5V15.5H35.5ZM22.5 30.5V29.5H24.5V30.5H22.5ZM22.5 24.5V23.5H24.5V24.5H22.5ZM24.5 18.5H22.5V17.5H24.5V18.5ZM22.5 36.5V35.5H24.5V36.5H22.5ZM27.5 30.5H25.5V29.5H27.5V30.5ZM27.5 24.5H25.5V23.5H27.5V24.5ZM27.5 18.5H25.5V17.5H27.5V18.5ZM27.5 36.5H25.5V35.5H27.5V36.5ZM30.5 30.5H28.5V29.5H30.5V30.5ZM30.5 24.5H28.5V23.5H30.5V24.5ZM30.5 18.5H28.5V17.5H30.5V18.5ZM30.5 36.5H28.5V35.5H30.5V36.5ZM13.5 17C13.501 17.3216 13.5369 17.6421 13.607 17.956L13.759 18.656L13.049 18.556C12.8676 18.5244 12.6841 18.5057 12.5 18.5C11.4391 18.5 10.4217 18.9214 9.67157 19.6716C8.92143 20.4217 8.5 21.4391 8.5 22.5C8.5 23.5609 8.92143 24.5783 9.67157 25.3284C10.4217 26.0786 11.4391 26.5 12.5 26.5H18V27.5H12.5C11.1739 27.5 9.90215 26.9732 8.96447 26.0356C8.02678 25.0979 7.5 23.8261 7.5 22.5C7.5 21.1739 8.02678 19.9022 8.96447 18.9645C9.90215 18.0268 11.1739 17.5 12.5 17.5H12.524C12.508 17.331 12.5 17.164 12.5 17C12.5004 16.0473 12.7483 15.111 13.2194 14.2829C13.6904 13.4548 14.3685 12.7632 15.1872 12.276C16.0059 11.7888 16.9372 11.5225 17.8897 11.5034C18.8423 11.4843 19.7834 11.713 20.621 12.167C21.434 10.685 22.6482 9.46219 24.1245 8.63879C25.6007 7.81539 27.2792 7.42476 28.9673 7.51173C30.6554 7.59869 32.2848 8.15972 33.6686 9.13045C35.0524 10.1012 36.1346 11.4423 36.791 13H35.682C35.0239 11.6439 33.9954 10.5018 32.7154 9.70573C31.4354 8.90965 29.9563 8.49213 28.4489 8.50144C26.9416 8.51075 25.4677 8.94651 24.1977 9.75834C22.9276 10.5702 21.9133 11.7249 21.272 13.089L21.021 13.619L20.537 13.288C19.8612 12.8267 19.0723 12.5584 18.2553 12.5119C17.4384 12.4655 16.6242 12.6427 15.9005 13.0245C15.1767 13.4063 14.5707 13.9782 14.1478 14.6787C13.7248 15.3792 13.5008 16.1817 13.5 17Z" fill="currentColor"/>
</g>
<defs>
<clipPath id="clip0_141_2061">
<rect width="48" height="48" fill="currentColor"/>
</clipPath>
</defs>
</svg>