<?xml version="1.0" encoding="utf-8"?>
<!-- Generator: Adobe Illustrator 27.1.1, SVG Export Plug-In . SVG Version: 6.00 Build 0)  -->
<svg version="1.1" id="Note" xmlns="http://www.w3.org/2000/svg" xmlns:xlink="http://www.w3.org/1999/xlink" x="0px" y="0px"
	 viewBox="0 0 48 48" style="enable-background:new 0 0 48 48;" xml:space="preserve">
<style type="text/css">
	.st0{fill:#FFFFFF;}
	.st1{fill:#FFFFFF;fill-opacity:0;}
</style>
<path class="st0" d="M40.49979,32.5v-21h-33v21H4.34793l1.07227,4h37.15967l1.07129-4H40.49979z M8.49979,12.5h31v20h-31V12.5z
	 M41.81229,35.5H6.18778l-0.53613-2h12.96143l0.25977,1h10.25l0.25977-1h12.96582l-0.53613,2H41.81229z M38.49979,13.5h-29v18h29
	V13.5z M37.49979,30.5h-27v-16h27V30.5z M23.99979,26.5c3.03271,0,5.5-2.46729,5.5-5.5s-2.46729-5.5-5.5-5.5s-5.5,2.46729-5.5,5.5
	S20.96708,26.5,23.99979,26.5z M23.99979,16.5c2.48145,0,4.5,2.01855,4.5,4.5s-2.01855,4.5-4.5,4.5s-4.5-2.01855-4.5-4.5
	S21.51834,16.5,23.99979,16.5z M14.49979,28.5h-2v-1h2v-1h1v1h20v1h-20v1h-1V28.5z M22.49979,18.06592v5.86816L26.90116,21
	L22.49979,18.06592z M23.49979,19.93408L25.09842,21l-1.59863,1.06592V19.93408z"/>
<rect class="st1" width="48" height="48"/>
</svg>
