<svg viewBox="0 0 48 48" fill="none" xmlns="http://www.w3.org/2000/svg">
<g clip-path="url(#clip0_141_2054)">
<path d="M7.505 8.5V29.5H16.505V28.5H8.505V13.5H39.505V28.5H31.5V29.5H40.505V8.5H7.505ZM8.505 9.5H39.505V12.495H8.505V9.5ZM36.5 10.495H38.5V11.495H36.5V10.495ZM33.5 10.495H35.5V11.495H33.5V10.495ZM30.5 10.495H32.5V11.495H30.5V10.495ZM27.5 27C27.5 26.0717 27.1313 25.1815 26.4749 24.5251C25.8185 23.8687 24.9283 23.5 24 23.5C23.0717 23.5 22.1815 23.8687 21.5251 24.5251C20.8688 25.1815 20.5 26.0717 20.5 27H19.5C19.5 25.8065 19.9741 24.6619 20.818 23.818C21.6619 22.9741 22.8065 22.5 24 22.5C25.1935 22.5 26.3381 22.9741 27.182 23.818C28.0259 24.6619 28.5 25.8065 28.5 27H27.5ZM15.523 27C15.5242 26.6891 15.5439 26.3786 15.582 26.07L12.826 23.314L15.206 19.191L19.024 20.146C19.5127 19.7909 20.038 19.4892 20.591 19.246L21.591 15.504H26.352L27.424 19.253C27.9899 19.5045 28.5264 19.8174 29.024 20.186L32.742 19.186L35.122 23.309L32.422 26.103C32.4567 26.4018 32.4747 26.7022 32.476 27.003H31.476C31.4737 26.6663 31.4483 26.3302 31.4 25.997L31.368 25.757L33.881 23.157L32.261 20.357L28.806 21.282L28.606 21.128C28.0616 20.6983 27.4598 20.3469 26.818 20.084L26.593 19.992L25.593 16.506H22.361L21.429 19.984L21.198 20.077C20.5682 20.3333 19.9764 20.6745 19.439 21.091L19.247 21.239L15.695 20.351L14.076 23.151L16.639 25.715L16.604 25.961C16.5529 26.305 16.5259 26.6522 16.523 27H15.523ZM24.5 36.594V28.5H23.5V36.591C23.1664 36.7089 22.8852 36.941 22.7062 37.2462C22.5272 37.5514 22.4618 37.9101 22.5216 38.2589C22.5814 38.6076 22.7626 38.924 23.0332 39.1521C23.3037 39.3801 23.6462 39.5052 24 39.5052C24.3538 39.5052 24.6963 39.3801 24.9668 39.1521C25.2374 38.924 25.4186 38.6076 25.4784 38.2589C25.5382 37.9101 25.4729 37.5514 25.2938 37.2462C25.1148 36.941 24.8336 36.7089 24.5 36.591V36.594ZM24 38.5C23.9011 38.5 23.8044 38.4707 23.7222 38.4157C23.64 38.3608 23.5759 38.2827 23.5381 38.1913C23.5002 38.1 23.4903 37.9994 23.5096 37.9025C23.5289 37.8055 23.5765 37.7164 23.6465 37.6464C23.7164 37.5765 23.8055 37.5289 23.9025 37.5096C23.9994 37.4903 24.1 37.5002 24.1913 37.5381C24.2827 37.5759 24.3608 37.64 24.4157 37.7222C24.4707 37.8044 24.5 37.9011 24.5 38C24.5 38.1326 24.4473 38.2598 24.3536 38.3536C24.2598 38.4473 24.1326 38.5 24 38.5ZM19.5 32.793L15.643 36.65C15.3209 36.4948 14.9542 36.4587 14.6079 36.548C14.2617 36.6373 13.9582 36.8462 13.7513 37.1379C13.5443 37.4295 13.4473 37.7849 13.4773 38.1412C13.5074 38.4975 13.6626 38.8317 13.9154 39.0846C14.1683 39.3374 14.5025 39.4926 14.8588 39.5227C15.2151 39.5527 15.5705 39.4557 15.8622 39.2487C16.1538 39.0418 16.3627 38.7383 16.452 38.3921C16.5413 38.0458 16.5052 37.6792 16.35 37.357L20.5 33.207V28.5H19.5V32.793ZM15 38.5C14.9011 38.5 14.8044 38.4707 14.7222 38.4157C14.64 38.3608 14.5759 38.2827 14.5381 38.1913C14.5002 38.1 14.4903 37.9994 14.5096 37.9025C14.5289 37.8055 14.5765 37.7164 14.6465 37.6464C14.7164 37.5765 14.8055 37.5289 14.9025 37.5096C14.9994 37.4903 15.1 37.5002 15.1913 37.5381C15.2827 37.5759 15.3608 37.64 15.4157 37.7222C15.4707 37.8044 15.5 37.9011 15.5 38C15.5 38.1326 15.4473 38.2598 15.3536 38.3536C15.2598 38.4473 15.1326 38.5 15 38.5ZM33 36.5C32.7772 36.5014 32.5575 36.5526 32.357 36.65L28.5 32.793V28.5H27.5V33.207L31.65 37.357C31.5106 37.6509 31.4704 37.9821 31.5357 38.3007C31.6009 38.6194 31.7679 38.9082 32.0115 39.1236C32.2552 39.3391 32.5622 39.4695 32.8865 39.4953C33.2107 39.521 33.5345 39.4407 33.8091 39.2664C34.0837 39.0921 34.2942 38.8332 34.4089 38.5288C34.5236 38.2245 34.5362 37.8911 34.4449 37.5789C34.3536 37.2667 34.1633 36.9927 33.9027 36.7981C33.6421 36.6035 33.3253 36.4989 33 36.5ZM33 38.5C32.9011 38.5 32.8044 38.4707 32.7222 38.4157C32.64 38.3608 32.5759 38.2827 32.5381 38.1913C32.5002 38.1 32.4903 37.9994 32.5096 37.9025C32.5289 37.8055 32.5765 37.7164 32.6465 37.6464C32.7164 37.5765 32.8055 37.5289 32.9025 37.5096C32.9994 37.4903 33.1 37.5002 33.1913 37.5381C33.2827 37.5759 33.3608 37.64 33.4157 37.7222C33.4707 37.8044 33.5 37.9011 33.5 38C33.5 38.1326 33.4473 38.2598 33.3536 38.3536C33.2598 38.4473 33.1326 38.5 33 38.5Z" fill="currentColor"/>
</g>
<defs>
<clipPath id="clip0_141_2054">
<rect width="48" height="48" fill="currentColor"/>
</clipPath>
</defs>
</svg>