<svg viewBox="0 0 48 48" fill="none" xmlns="http://www.w3.org/2000/svg">
<g clip-path="url(#clip0_141_2052)">
<path d="M42.5 33.5V10.5H5.5V33.5H20.347L19.547 36.5H16.5V37.5H31.5V36.5H28.456L27.651 33.5H42.5ZM6.5 11.5H41.5V32.5H6.5V11.5ZM27.42 36.5H20.579L21.379 33.5H26.613L27.42 36.5ZM7.5 31.5H40.5V12.5H7.5V31.5ZM8.5 13.5H39.5V30.5H8.5V13.5ZM23.635 25.9C23.9276 25.4405 24.1494 24.9395 24.293 24.414L24.423 23.932L19.408 22.588L18.064 17.573L17.582 17.702C16.757 17.9192 15.9941 18.3257 15.3537 18.8893C14.7133 19.4529 14.2132 20.158 13.893 20.9487C13.5728 21.7394 13.4414 22.5939 13.5092 23.4442C13.5769 24.2946 13.8421 25.1174 14.2835 25.8474C14.7249 26.5774 15.3304 27.1944 16.052 27.6495C16.7736 28.1045 17.5913 28.385 18.4402 28.4687C19.2892 28.5525 20.146 28.4371 20.9425 28.1318C21.7391 27.8265 22.4535 27.3397 23.029 26.71L24.791 28.5H34.5V27.5H25.209L23.635 25.9ZM19 27.5C17.952 27.5027 16.9362 27.1385 16.1285 26.4706C15.3209 25.8028 14.7725 24.8734 14.5783 23.8435C14.3842 22.8137 14.5565 21.7484 15.0655 20.8323C15.5745 19.9162 16.388 19.2071 17.365 18.828L18.592 23.408L23.171 24.636C22.844 25.4772 22.2712 26.2004 21.5272 26.7113C20.7832 27.2221 19.9025 27.497 19 27.5ZM26.5 25.5H34.5V26.5H26.5V25.5ZM25.86 18.433C25.3932 17.5484 24.694 16.8079 23.8376 16.2911C22.9813 15.7743 22.0002 15.5008 21 15.5C20.5202 15.5049 20.0433 15.5742 19.582 15.706L19.099 15.835L20.592 21.408L26.164 22.9L26.293 22.417C26.425 21.956 26.4946 21.4795 26.5 21C26.4991 20.4706 26.4216 19.9442 26.27 19.437L28.207 17.5H34.5V16.5H27.793L25.86 18.433ZM25.438 21.671L21.408 20.592L20.329 16.562C20.5504 16.5216 20.7749 16.5008 21 16.5C22.1931 16.5013 23.3369 16.9759 24.1805 17.8195C25.0241 18.6631 25.4987 19.8069 25.5 21C25.4987 21.225 25.4779 21.4495 25.438 21.671ZM28.5 18.5H34.5V19.5H28.5V18.5Z" fill="currentColor"/>
</g>
<defs>
<clipPath id="clip0_141_2052">
<rect width="48" height="48" fill="currentColor"/>
</clipPath>
</defs>
</svg>