<svg viewBox="0 0 48 48" fill="none" xmlns="http://www.w3.org/2000/svg">
<g clip-path="url(#clip0_24_102)">
<g clip-path="url(#clip1_24_102)">
<path d="M42.5005 36.5V11.5H34.3154L32.9758 16.5H31.5005V14.5H27.5V16.5H26.5005V14.5H22.5V16.5H18.6521L19.3218 14H18.2866L17.6169 16.5H15.6521L16.3218 14H15.2866L14.6169 16.5H12.6521L13.3218 14H12.2866L11.6169 16.5H9.6521L10.3218 14H9.28662L8.61694 16.5H5.50049V36.5H4.5V37.5H43.5V36.5H42.5005ZM28.5 15.5H30.5005V16.5H28.5V15.5ZM23.5 15.5H25.5005V16.5H23.5V15.5ZM9.5 36.5V31.5H12.5005V36.5H9.5ZM13.5005 36.5V31.5H16.5V36.5H13.5005ZM17.5 36.5V30.5H8.5V36.5H6.50049V17.5H32.7078L27.6172 36.5H17.5ZM28.6519 36.5L35.083 12.5H41.5005V36.5H28.6519ZM38 13.5C37.5055 13.5 37.0222 13.6466 36.6111 13.9213C36.1999 14.196 35.8795 14.5865 35.6903 15.0433C35.5011 15.5001 35.4516 16.0028 35.548 16.4877C35.6445 16.9727 35.8826 17.4181 36.2322 17.7678C36.5819 18.1174 37.0273 18.3555 37.5123 18.452C37.9972 18.5484 38.4999 18.4989 38.9567 18.3097C39.4135 18.1205 39.804 17.8 40.0787 17.3889C40.3534 16.9778 40.5 16.4945 40.5 16C40.4992 15.3372 40.2356 14.7018 39.7669 14.2331C39.2982 13.7644 38.6628 13.5008 38 13.5ZM38 17.5C37.7033 17.5 37.4133 17.412 37.1666 17.2472C36.92 17.0824 36.7277 16.8481 36.6142 16.574C36.5006 16.2999 36.4709 15.9983 36.5288 15.7074C36.5867 15.4164 36.7296 15.1491 36.9393 14.9393C37.1491 14.7296 37.4164 14.5867 37.7074 14.5288C37.9983 14.4709 38.2999 14.5006 38.574 14.6142C38.8481 14.7277 39.0824 14.92 39.2472 15.1666C39.412 15.4133 39.5 15.7033 39.5 16C39.4996 16.3977 39.3414 16.779 39.0602 17.0602C38.779 17.3414 38.3977 17.4996 38 17.5ZM19.5005 30.5H20.5005V33.5H19.5005V30.5ZM22.5005 30.5H23.5005V33.5H22.5005V30.5ZM25.5005 30.5H26.5005V33.5H25.5005V30.5Z" fill="currentColor"/>
</g>
</g>
<defs>
<clipPath id="clip0_24_102">
<rect width="48" height="48" fill="currentColor"/>
</clipPath>
<clipPath id="clip1_24_102">
<rect width="48" height="48" fill="currentColor"/>
</clipPath>
</defs>
</svg>