<?xml version="1.0" encoding="utf-8"?>
<!-- Generator: Adobe Illustrator 27.1.1, SVG Export Plug-In . SVG Version: 6.00 Build 0)  -->
<svg version="1.1" id="Art_3.0" xmlns="http://www.w3.org/2000/svg" xmlns:xlink="http://www.w3.org/1999/xlink" x="0px" y="0px"
	 viewBox="0 0 48 48" style="enable-background:new 0 0 48 48;" xml:space="preserve">
<style type="text/css">
	.st0{fill:#FFFFFF;}
	.st1{fill:#FFFFFF;fill-opacity:0;}
</style>
<g>
	<path class="st0" d="M37.08154,10.91836C33.5874,7.42422,28.9414,5.4999,23.99951,5.4999
		c-4.94141,0-9.5874,1.92432-13.08154,5.41846S5.49951,19.0585,5.49951,23.99941c0,4.94189,1.92432,9.5874,5.41846,13.08203
		c3.49414,3.49414,8.14014,5.41846,13.08154,5.41846c4.94189,0,9.58789-1.92432,13.08203-5.41846
		C40.57568,33.58681,42.5,28.9413,42.5,23.99941C42.5,19.05849,40.57568,14.4125,37.08154,10.91836z M36.37451,36.37441
		c-3.30518,3.30518-7.7002,5.12549-12.375,5.12549c-4.67432,0-9.06934-1.82031-12.37451-5.12549
		c-3.30518-3.30566-5.12549-7.7002-5.12549-12.375c0-4.67383,1.82031-9.06836,5.12549-12.37402
		c3.30566-3.30566,7.7002-5.12549,12.37451-5.12549c4.6748,0,9.06934,1.81982,12.375,5.12549
		C39.67969,14.93105,41.5,19.32559,41.5,23.99941C41.5,28.67421,39.67969,33.06875,36.37451,36.37441z"/>
	<path class="st0" d="M23.99951,7.49941c-9.09814,0-16.5,7.40234-16.5,16.50049s7.40186,16.5,16.5,16.5
		c9.09863,0,16.50049-7.40186,16.50049-16.5S33.09814,7.49941,23.99951,7.49941z M23.99951,39.4999
		c-8.54688,0-15.5-6.95312-15.5-15.5s6.95312-15.50049,15.5-15.50049S39.5,15.45302,39.5,23.9999S32.54639,39.4999,23.99951,39.4999
		z"/>
	<rect x="22.42529" y="31.17471" class="st0" width="1.8999" height="2.1001"/>
	<path class="st0" d="M26.93799,15.2499c-0.74219-0.3501-1.62109-0.5249-2.6377-0.5249h-0.2749
		c-2.6001,0-4.3667,1.1084-5.30029,3.32471l1.30029,0.5752c0.33301-0.8833,0.82471-1.5332,1.4751-1.94971
		c0.6499-0.4165,1.49121-0.625,2.5249-0.625h0.2251c1.09961,0,1.95801,0.2749,2.57471,0.82471s0.92529,1.31689,0.92529,2.2998v0.375
		c0,0.63379-0.1377,1.2168-0.4126,1.75c-0.2749,0.53369-0.6875,0.9917-1.23779,1.375l-1.47461,1.0249
		c-0.76709,0.51709-1.2876,1.02148-1.5625,1.5127c-0.27539,0.4917-0.4126,1.1543-0.4126,1.9873V28.85h1.4751v-1.6001
		c0-0.6001,0.0874-1.0625,0.26221-1.3877c0.17529-0.32471,0.521-0.67041,1.0376-1.0376l1.5249-1.07471
		c1.55029-1.0835,2.3252-2.4751,2.3252-4.17529v-0.4248c0-0.93311-0.20459-1.729-0.61279-2.38721s-0.9834-1.1626-1.72461-1.5127
		L26.93799,15.2499z"/>
</g>
<rect y="0.01504" class="st1" width="48" height="48"/>
</svg>
