<svg viewBox="0 0 48 48" fill="none" xmlns="http://www.w3.org/2000/svg">
<g clip-path="url(#clip0_141_2011)">
<path d="M7.505 9.505V38.505H40.505V9.505H7.505ZM39.505 37.505H8.505V14.505H39.505V37.505ZM8.505 13.505V10.505H39.505V13.505H8.505ZM17.3 30L13.3 26L17.3 22H18.714L14.714 26L18.714 30H17.3ZM29.3 30L33.3 26L29.3 22H30.714L34.714 26L30.714 30H29.3ZM20.143 33H18.994L26.869 19H28.016L20.143 33ZM30.468 11.5H32.468V12.5H30.468V11.5ZM33.495 11.5H35.495V12.5H33.495V11.5ZM36.504 11.5H38.504V12.5H36.504V11.5Z" fill="currentColor"/>
</g>
<defs>
<clipPath id="clip0_141_2011">
<rect width="48" height="48" fill="currentColor"/>
</clipPath>
</defs>
</svg>