<svg viewBox="0 0 48 48" fill="none" xmlns="http://www.w3.org/2000/svg">
<g clip-path="url(#clip0_141_2004)">
<path d="M16.707 34L18.707 36L16.707 38H15.293L16.793 36.5H11.5V24.5H12.5V35.5H16.793L15.293 34H16.707ZM31.707 14L30.107 12.4H34.5V22.5H35.5V11.4H30.307L31.707 10H30.293L28.293 12L30.293 14H31.707ZM26.5 22.5H7.5V5.5H26.5V22.5ZM8.5 9.5H25.5V6.5H8.5V9.5ZM25.5 21.5V10.5H8.5V21.5H25.5ZM22.5 7.5V8.5H24.5V7.5H22.5ZM19.5 8.5H21.5V7.5H19.5V8.5ZM20.293 14L22.293 16L20.293 18H21.707L23.707 16L21.707 14H20.293ZM12.293 14L10.293 16L12.293 18H13.707L11.707 16L13.707 14H12.293ZM14.441 20H15.559L19.559 12H18.441L14.441 20ZM40.5 24.5V41.5H21.5V24.5H40.5ZM39.5 29.5H22.5V40.5H39.5V29.5ZM39.5 28.5V25.5H22.5V28.5H39.5ZM36.5 26.5V27.5H38.5V26.5H36.5ZM33.5 27.5H35.5V26.5H33.5V27.5ZM30 37.707L34.707 33L34 32.293L30 36.293L28 34.293L27.293 35L30 37.707Z" fill="currentColor"/>
</g>
<defs>
<clipPath id="clip0_141_2004">
<rect width="48" height="48" fill="currentColor"/>
</clipPath>
</defs>
</svg>