<svg viewBox="0 0 48 48" fill="none" xmlns="http://www.w3.org/2000/svg">
<g clip-path="url(#clip0_144_3437)">
<path d="M33.5 25.778V5.5H13.5V35.5H19.191L21.236 39.59C21.4092 39.9373 21.4996 40.3199 21.5 40.708V42.5H22.5V40.708C22.4994 40.1647 22.3728 39.629 22.13 39.143L19.765 34.41C19.5909 34.0627 19.5002 33.6795 19.5 33.291V31.8L20.384 28.5H21.5V33H22.5V20.5C22.5 20.2348 22.6054 19.9804 22.7929 19.7929C22.9804 19.6054 23.2348 19.5 23.5 19.5C23.7652 19.5 24.0196 19.6054 24.2071 19.7929C24.3946 19.9804 24.5 20.2348 24.5 20.5V31H25.5V26.5C25.5 26.2348 25.6054 25.9804 25.7929 25.7929C25.9804 25.6054 26.2348 25.5 26.5 25.5C26.7652 25.5 27.0196 25.6054 27.2071 25.7929C27.3946 25.9804 27.5 26.2348 27.5 26.5V31H28.5V26.5C28.5 26.2348 28.6054 25.9804 28.7929 25.7929C28.9804 25.6054 29.2348 25.5 29.5 25.5C29.7652 25.5 30.0196 25.6054 30.2071 25.7929C30.3946 25.9804 30.5 26.2348 30.5 26.5V31H31.5V27.5C31.5 27.2348 31.6054 26.9804 31.7929 26.7929C31.9804 26.6054 32.2348 26.5 32.5 26.5C32.7652 26.5 33.0196 26.6054 33.2071 26.7929C33.3946 26.9804 33.5 27.2348 33.5 27.5V31.58C33.4988 31.8125 33.4651 32.0438 33.4 32.267L31.63 38.459C31.5412 38.7716 31.4961 39.095 31.496 39.42V42.5H32.496V39.42C32.4972 39.1875 32.5309 38.9562 32.596 38.733L34.366 32.541C34.4549 32.2284 34.4999 31.905 34.5 31.58V27.5C34.4989 27.1505 34.406 26.8074 34.2305 26.5052C34.055 26.2029 33.803 25.9521 33.5 25.778ZM25.908 6.5L25.64 7.5H20.4L20.115 6.5H25.908ZM29.5 24.5C29.2161 24.5002 28.9355 24.5609 28.6769 24.678C28.4183 24.7951 28.1875 24.9658 28 25.179C27.6947 24.8326 27.2789 24.6024 26.8232 24.5277C26.3675 24.453 25.9 24.5382 25.5 24.769V20.5C25.5 19.9696 25.2893 19.4609 24.9142 19.0858C24.5391 18.7107 24.0304 18.5 23.5 18.5C22.9696 18.5 22.4609 18.7107 22.0858 19.0858C21.7107 19.4609 21.5 19.9696 21.5 20.5V27.5H19.616L18.545 31.5H16.5V10.5H30.5V24.792C30.1991 24.6062 29.8536 24.5053 29.5 24.5ZM31.5 25.785V9.5H15.5V32.5H18.508L18.5 33.291C18.5081 33.705 18.5894 34.1143 18.74 34.5H14.5V6.5H19.075L19.646 8.5H26.407L26.943 6.5H32.5V25.5C32.1471 25.5034 31.8017 25.6019 31.5 25.785ZM29.5 18.5V19.5H26.5V18.5H29.5ZM26.933 14.054L25.433 16.654L24.567 16.154L26.067 13.554L26.933 14.054ZM20.933 13.554L22.433 16.154L21.567 16.654L20.067 14.054L20.933 13.554ZM17.5 18.5H20.5V19.5H17.5V18.5Z" fill="currentColor"/>
</g>
<defs>
<clipPath id="clip0_144_3437">
<rect width="48" height="48" fill="currentColor"/>
</clipPath>
</defs>
</svg>