<svg viewBox="0 0 48 48" fill="none" xmlns="http://www.w3.org/2000/svg">
<g clip-path="url(#clip0_141_2126)">
<path d="M24.5 29.5H25.5V40.5H7.5V22.5H18.5V23.5H8.5V39.5H24.5V29.5ZM8.5 17.5H7.5V20.5H8.5V17.5ZM8.5 12.5H7.5V15.5H8.5V12.5ZM27.5 40.5H30.5V39.5H27.5V40.5ZM32.5 40.5H35.5V39.5H32.5V40.5ZM8.5 8.5H10.5V7.5H7.5V10.5H8.5V8.5ZM39.5 30.5H40.5V27.5H39.5V30.5ZM39.5 35.5H40.5V32.5H39.5V35.5ZM39.5 20.5H40.5V17.5H39.5V20.5ZM39.5 25.5H40.5V22.5H39.5V25.5ZM20.5 7.5H17.5V8.5H20.5V7.5ZM15.5 7.5H12.5V8.5H15.5V7.5ZM27.5 8.5H30.5V7.5H27.5V8.5ZM25.5 7.5H22.5V8.5H25.5V7.5ZM39.5 39.5H37.5V40.5H40.5V37.5H39.5V39.5ZM39.5 15.5H40.5V12.5H39.5V15.5ZM32.5 8.5H35.5V7.5H32.5V8.5ZM37.5 7.5V8.5H39.5V10.5H40.5V7.5H37.5ZM21.5 18.5H28.793L19.293 28L20 28.707L29.5 19.207V26.5H30.5V17.5H21.5V18.5Z" fill="currentColor"/>
</g>
<defs>
<clipPath id="clip0_141_2126">
<rect width="48" height="48" fill="currentColor"/>
</clipPath>
</defs>
</svg>