<svg viewBox="0 0 48 48" fill="none" xmlns="http://www.w3.org/2000/svg">
<g clip-path="url(#clip0_141_2065)">
<path d="M34.364 16H33.354C33.0388 14.3416 32.2065 12.8257 30.9766 11.6695C29.7468 10.5133 28.1824 9.77622 26.5077 9.56392C24.8331 9.35162 23.1343 9.67502 21.6548 10.4877C20.1753 11.3005 18.9911 12.5608 18.272 14.088L18.021 14.618L17.537 14.287C16.7946 13.7746 15.915 13.4978 15.0129 13.4927C14.1108 13.4877 13.2282 13.7546 12.4801 14.2586C11.7319 14.7627 11.1531 15.4805 10.8189 16.3184C10.4848 17.1563 10.411 18.0755 10.607 18.956L10.759 19.656L10.049 19.556C9.86756 19.5243 9.6841 19.5056 9.5 19.5C8.43913 19.5 7.42172 19.9214 6.67157 20.6715C5.92143 21.4217 5.5 22.4391 5.5 23.5C5.5 24.5608 5.92143 25.5783 6.67157 26.3284C7.42172 27.0785 8.43913 27.5 9.5 27.5H14V28.5H9.5C8.17392 28.5 6.90215 27.9732 5.96447 27.0355C5.02678 26.0978 4.5 24.8261 4.5 23.5C4.5 22.1739 5.02678 20.9021 5.96447 19.9644C6.90215 19.0268 8.17392 18.5 9.5 18.5H9.524C9.508 18.331 9.5 18.164 9.5 18C9.5004 17.0472 9.74828 16.111 10.2194 15.2828C10.6904 14.4547 11.3685 13.7632 12.1872 13.2759C13.0059 12.7887 13.9372 12.5225 14.8897 12.5034C15.8423 12.4843 16.7834 12.713 17.621 13.167C18.5185 11.529 19.9041 10.2114 21.5852 9.39732C23.2662 8.58329 25.1591 8.3133 27.0007 8.62491C28.8423 8.93652 30.541 9.81422 31.8607 11.136C33.1803 12.4578 34.0553 14.1579 34.364 16ZM43.5 36.5H32.848L33.384 38.5H35.5V39.5H23.5V38.5H25.616L26.152 36.5H15.5V17.5H43.5V36.5ZM31.813 36.5H27.187L26.652 38.5H32.352L31.813 36.5ZM42.5 18.5H16.5V35.5H42.5V18.5Z" fill="currentColor"/>
</g>
<defs>
<clipPath id="clip0_141_2065">
<rect width="48" height="48" fill="currentColor"/>
</clipPath>
</defs>
</svg>