<svg width="48" height="48" viewBox="0 0 48 48" fill="none" xmlns="http://www.w3.org/2000/svg">
<g clip-path="url(#clip0_2495_777)">
<path d="M42.5 8.49658H5.5V12.4966H7.5V34.4966H9.5V33.4966H8.5V12.4966H39.49V33.4966H24.49V34.4966H40.49V12.4966H42.49V8.49658H42.5ZM41.5 11.4966H6.5V9.49658H41.5V11.4966Z" fill="black"/>
<path d="M12.6 29.4966L10.22 39.4966H23.62L21.4 29.4966H12.6ZM11.49 38.4966L13.4 30.4966H20.6L22.38 38.4966H11.49Z" fill="black"/>
<path d="M13.5 24.9966C13.5 26.9266 15.07 28.4966 17 28.4966C18.93 28.4966 20.5 26.9266 20.5 24.9966C20.5 23.0666 18.93 21.4966 17 21.4966C15.07 21.4966 13.5 23.0666 13.5 24.9966ZM19.5 24.9966C19.5 26.3766 18.38 27.4966 17 27.4966C15.62 27.4966 14.5 26.3766 14.5 24.9966C14.5 23.6166 15.62 22.4966 17 22.4966C18.38 22.4966 19.5 23.6166 19.5 24.9966Z" fill="black"/>
<path d="M28.52 29.7966C28.52 29.8566 28.5 29.9166 28.5 29.9766C28.5 30.8066 29.17 31.4766 30 31.4766C30.83 31.4766 31.5 30.8066 31.5 29.9766C31.5 29.9166 31.49 29.8566 31.48 29.7966L34.96 28.0566C35.23 28.3166 35.59 28.4766 36 28.4766C36.83 28.4766 37.5 27.8066 37.5 26.9766C37.5 26.1466 36.83 25.4766 36 25.4766C35.87 25.4766 35.75 25.4966 35.63 25.5266L34.6 23.9766L35.63 22.4266C35.75 22.4566 35.87 22.4766 36 22.4766C36.83 22.4766 37.5 21.8066 37.5 20.9766C37.5 20.1466 36.83 19.4766 36 19.4766C35.6 19.4766 35.23 19.6366 34.96 19.8966L31.48 18.1566C31.48 18.0966 31.5 18.0366 31.5 17.9766C31.5 17.1466 30.83 16.4766 30 16.4766C29.17 16.4766 28.5 17.1466 28.5 17.9766C28.5 18.0366 28.51 18.0966 28.52 18.1566L25.01 19.9166C24.74 19.6766 24.39 19.5166 24 19.5166C23.17 19.5166 22.5 20.1866 22.5 21.0166C22.5 21.8466 23.17 22.5166 24 22.5166C24.14 22.5166 24.26 22.4966 24.39 22.4566L25.4 23.9666L24.37 25.5166C24.25 25.4866 24.13 25.4666 24 25.4666C23.17 25.4666 22.5 26.1366 22.5 26.9666C22.5 27.7966 23.17 28.4666 24 28.4666C24.4 28.4666 24.77 28.3066 25.04 28.0466L28.52 29.7866V29.7966ZM26.06 26.4966L26.83 26.1166L28.54 28.6866L25.48 27.1566C25.48 27.0966 25.5 27.0366 25.5 26.9766C25.5 26.9166 25.49 26.8566 25.48 26.7966L26.06 26.5066V26.4966ZM30 25.4766C30.4 25.4766 30.77 25.3166 31.04 25.0566L32.27 25.6766L30.37 28.5366C30.26 28.5066 30.14 28.4866 30.02 28.4866H30C29.88 28.4866 29.76 28.5066 29.65 28.5366L27.75 25.6766L28.98 25.0566C29.25 25.3166 29.61 25.4766 30.02 25.4766H30ZM29.5 23.9766C29.5 23.6966 29.72 23.4766 30 23.4766C30.28 23.4766 30.5 23.6966 30.5 23.9766C30.5 24.2566 30.28 24.4766 30 24.4766C29.72 24.4766 29.5 24.2566 29.5 23.9766ZM31.76 24.2966L31.48 24.1566C31.48 24.0966 31.5 24.0366 31.5 23.9766C31.5 23.9166 31.49 23.8566 31.48 23.7966L32.83 23.1266L33.4 23.9866L32.83 24.8466L31.77 24.3166L31.76 24.2966ZM27.17 23.1166L28.52 23.7866C28.52 23.8466 28.5 23.9066 28.5 23.9666C28.5 24.0266 28.51 24.0866 28.52 24.1466L27.84 24.4866L27.17 24.8266L26.6 23.9666L27.17 23.1066V23.1166ZM33.17 26.1166L34.52 26.7866C34.52 26.8466 34.5 26.9066 34.5 26.9666C34.5 27.0266 34.51 27.0866 34.52 27.1466L31.46 28.6766L33.17 26.1066V26.1166ZM34.52 21.1566L33.17 21.8266L31.46 19.2566L34.52 20.7866C34.52 20.8466 34.5 20.9066 34.5 20.9666C34.5 21.0266 34.51 21.0866 34.52 21.1466V21.1566ZM30.37 19.4266L32.27 22.2866L31.04 22.9066C30.77 22.6466 30.41 22.4866 30 22.4866C29.59 22.4866 29.23 22.6466 28.96 22.9066L27.73 22.2866L29.63 19.4266C29.75 19.4566 29.87 19.4766 30 19.4766C30.13 19.4766 30.25 19.4566 30.37 19.4266ZM26.83 21.8266L25.49 21.1566C25.49 21.1566 25.5 21.0666 25.5 21.0166C25.5 20.9366 25.49 20.8666 25.48 20.7966L28.54 19.2666L26.83 21.8366V21.8266ZM30 30.4766C29.72 30.4766 29.5 30.2566 29.5 29.9766C29.5 29.9166 29.51 29.8666 29.53 29.8166L29.56 29.7566C29.59 29.6866 29.65 29.6266 29.73 29.5766H29.74C29.74 29.5766 29.8 29.5266 29.83 29.5066C29.88 29.4866 29.94 29.4766 29.99 29.4766C30.04 29.4766 30.1 29.4866 30.15 29.5066C30.18 29.5266 30.2 29.5366 30.24 29.5666H30.25C30.33 29.6266 30.39 29.6866 30.42 29.7566L30.45 29.8166C30.47 29.8666 30.48 29.9166 30.48 29.9766C30.48 30.2566 30.26 30.4766 29.98 30.4766H30ZM36.5 26.9766C36.5 27.2566 36.28 27.4766 36 27.4766C35.72 27.4766 35.5 27.2566 35.5 26.9766C35.5 26.6966 35.72 26.4766 36 26.4766C36.28 26.4766 36.5 26.6966 36.5 26.9766ZM34.54 25.6866L33.73 25.2766L34 24.8766L34.54 25.6866ZM33.73 22.6666L34.54 22.2666L34 23.0766L33.73 22.6766V22.6666ZM36 20.4766C36.28 20.4766 36.5 20.6966 36.5 20.9766C36.5 21.2566 36.28 21.4766 36 21.4766C35.72 21.4766 35.5 21.2566 35.5 20.9766C35.5 20.6966 35.72 20.4766 36 20.4766ZM30 17.4766C30.28 17.4766 30.5 17.6966 30.5 17.9766C30.5 18.2566 30.28 18.4766 30 18.4766C29.72 18.4766 29.5 18.2566 29.5 17.9766C29.5 17.6966 29.72 17.4766 30 17.4766ZM23.5 21.0166C23.5 20.7366 23.72 20.5166 24 20.5166C24.28 20.5166 24.5 20.7366 24.5 21.0166C24.5 21.2966 24.28 21.5166 24 21.5166C23.72 21.5166 23.5 21.2966 23.5 21.0166ZM25.46 22.2666L26.27 22.6666L26 23.0666L25.46 22.2566V22.2666ZM26.27 25.2766L25.46 25.6866L26 24.8766L26.27 25.2766ZM24 27.4766C23.72 27.4766 23.5 27.2566 23.5 26.9766C23.5 26.6966 23.72 26.4766 24 26.4766C24.28 26.4766 24.5 26.6966 24.5 26.9766C24.5 27.2566 24.28 27.4766 24 27.4766Z" fill="black"/>
<path d="M37.5 14.4766H10.54V15.4766H37.5V14.4766Z" fill="black"/>
</g>
<defs>
<clipPath id="clip0_2495_777">
<rect width="48" height="48" fill="white"/>
</clipPath>
</defs>
</svg>
