<svg viewBox="0 0 48 48" fill="none" xmlns="http://www.w3.org/2000/svg">
<g clip-path="url(#clip0_144_3164)">
<path d="M36.624 20.083C37.0313 20.3552 37.5102 20.5004 38 20.5C38.4476 20.5018 38.8874 20.3834 39.2736 20.1573C39.6598 19.9311 39.9782 19.6053 40.1955 19.2141C40.4129 18.8229 40.5212 18.3804 40.5092 17.933C40.4972 17.4856 40.3653 17.0497 40.1274 16.6706C39.8894 16.2916 39.554 15.9834 39.1562 15.7782C38.7585 15.573 38.3129 15.4784 37.8661 15.5042C37.4193 15.53 36.9876 15.6752 36.6161 15.9248C36.2445 16.1744 35.9468 16.5191 35.754 16.923L33.1 16.258L37.192 9.35801C37.7137 9.53657 38.2799 9.53727 38.802 9.36C39.3242 9.18273 39.7729 8.83748 40.0781 8.3782C40.3832 7.91892 40.5276 7.37148 40.4887 6.82143C40.4498 6.27139 40.2298 5.74973 39.863 5.33796C39.4963 4.9262 39.0035 4.64753 38.4616 4.54552C37.9197 4.4435 37.3592 4.52387 36.8678 4.77408C36.3765 5.02429 35.9818 5.43024 35.7455 5.92848C35.5093 6.42673 35.4448 6.9892 35.562 7.52801L24.044 12.568C23.7639 12.1686 23.3727 11.86 22.9191 11.6805C22.4654 11.5011 21.969 11.4586 21.4914 11.5583C21.0138 11.658 20.5759 11.8955 20.2319 12.2415C19.8879 12.5876 19.6529 13.0268 19.556 13.505H12.456C12.3596 12.9966 12.1095 12.53 11.7396 12.1682C11.3696 11.8065 10.8976 11.5668 10.3872 11.4818C9.87675 11.3967 9.35252 11.4702 8.88521 11.6924C8.4179 11.9147 8.03001 12.2749 7.77388 12.7245C7.51774 13.1741 7.40569 13.6915 7.45285 14.2068C7.5 14.7221 7.70409 15.2105 8.03758 15.6062C8.37106 16.0019 8.81789 16.2857 9.31777 16.4194C9.81765 16.5532 10.3465 16.5303 10.833 16.354L13.358 20.562L11.558 22.062C11.1188 21.7011 10.5685 21.5026 10 21.5C9.33697 21.5 8.70109 21.7634 8.23225 22.2322C7.76341 22.7011 7.50002 23.337 7.50002 24C7.50002 24.6631 7.76341 25.2989 8.23225 25.7678C8.70109 26.2366 9.33697 26.5 10 26.5C10.5657 26.4977 11.1135 26.3015 11.552 25.944L13.352 27.444L10.827 31.652C10.3476 31.4845 9.82851 31.4673 9.33909 31.6028C8.84967 31.7382 8.41327 32.0199 8.08822 32.41C7.76316 32.8002 7.56496 33.2803 7.5201 33.7861C7.47524 34.2919 7.58586 34.7994 7.83717 35.2407C8.08848 35.6819 8.46852 36.036 8.92646 36.2555C9.3844 36.4749 9.89842 36.5494 10.3998 36.4689C10.9012 36.3883 11.3661 36.1567 11.7323 35.8048C12.0985 35.453 12.3485 34.9978 12.449 34.5H19.549C19.6478 34.9768 19.8837 35.4144 20.2277 35.7591C20.5717 36.1037 21.0089 36.3404 21.4856 36.44C21.9622 36.5396 22.4576 36.4979 22.9109 36.3199C23.3641 36.1419 23.7555 35.8354 24.037 35.438L35.555 40.477C35.4281 41.0285 35.4883 41.6066 35.7262 42.1202C35.9641 42.6337 36.3662 43.0534 36.869 43.3132C37.3718 43.573 37.9467 43.6581 38.5032 43.5551C39.0597 43.452 39.5661 43.1667 39.9425 42.7441C40.3189 42.3214 40.544 41.7856 40.5823 41.2209C40.6205 40.6563 40.4697 40.0949 40.1537 39.6254C39.8377 39.1559 39.3745 38.8049 38.8369 38.6278C38.2994 38.4506 37.7183 38.4574 37.185 38.647L33.093 31.747L35.752 31.082C35.9719 31.5416 36.3269 31.9231 36.7696 32.1753C37.2122 32.4275 37.7214 32.5385 38.2289 32.4933C38.7364 32.4481 39.2179 32.249 39.6091 31.9226C40.0002 31.5961 40.2823 31.158 40.4176 30.6667C40.5528 30.1755 40.5347 29.6547 40.3658 29.1741C40.1968 28.6934 39.885 28.2759 39.4722 27.9773C39.0594 27.6788 38.5652 27.5135 38.0558 27.5036C37.5464 27.4937 37.0461 27.6397 36.622 27.922L32.707 24L36.624 20.083ZM38 16.5C38.2967 16.5 38.5867 16.588 38.8334 16.7528C39.08 16.9176 39.2723 17.1519 39.3858 17.426C39.4994 17.7001 39.5291 18.0017 39.4712 18.2926C39.4133 18.5836 39.2705 18.8509 39.0607 19.0607C38.8509 19.2704 38.5836 19.4133 38.2927 19.4712C38.0017 19.5291 37.7001 19.4994 37.426 19.3858C37.1519 19.2723 36.9176 19.08 36.7528 18.8334C36.588 18.5867 36.5 18.2967 36.5 18C36.5 17.6022 36.658 17.2207 36.9394 16.9394C37.2207 16.658 37.6022 16.5 38 16.5ZM35.511 17.893C35.511 17.929 35.5 17.963 35.5 18C35.5028 18.1305 35.5159 18.2606 35.539 18.389L30.773 20.176L32.563 17.156L35.511 17.893ZM12.192 32.824L16 29.651L19.808 32.824C19.6893 33.0353 19.6027 33.2632 19.551 33.5H12.451C12.3987 33.2631 12.3115 33.0352 12.192 32.824ZM19.808 15.176L16 18.349L12.192 15.176C12.3108 14.9647 12.3974 14.7368 12.449 14.5H19.549C19.6013 14.737 19.6886 14.9648 19.808 15.176ZM27.926 23.019L27.583 22.44L28.465 22.11L27.926 23.019ZM28.465 25.89L27.583 25.56L27.926 24.981L28.465 25.89ZM19.551 23.5H16.883L18.128 21.425L19.807 22.825C19.6891 23.0363 19.6029 23.2637 19.551 23.5ZM19.551 24.5C19.6028 24.7367 19.689 24.9644 19.807 25.176L18.128 26.576L16.883 24.5H19.551ZM20.5 24C20.5 23.7033 20.588 23.4133 20.7528 23.1667C20.9176 22.92 21.1519 22.7277 21.426 22.6142C21.7001 22.5007 22.0017 22.471 22.2927 22.5288C22.5836 22.5867 22.8509 22.7296 23.0607 22.9394C23.2705 23.1491 23.4133 23.4164 23.4712 23.7074C23.5291 23.9983 23.4994 24.2999 23.3858 24.574C23.2723 24.8481 23.08 25.0824 22.8334 25.2472C22.5867 25.412 22.2967 25.5 22 25.5C21.6022 25.5 21.2207 25.342 20.9394 25.0607C20.6581 24.7794 20.5 24.3978 20.5 24ZM27.345 24L26.632 25.2L24.461 24.386C24.513 24.1293 24.513 23.8647 24.461 23.608L26.632 22.794L27.345 24ZM26.258 20.2L26.858 19.561L28.369 21.072L27.064 21.561L26.258 20.2ZM25.728 19.3L24.455 17.152L26.155 18.852L25.728 19.3ZM26.114 21.913L24.114 22.664C24.09 22.627 24.068 22.589 24.042 22.553L25.548 20.953L26.114 21.913ZM24.114 25.313L26.114 26.064L25.545 27.024L24.039 25.424C24.065 25.4 24.087 25.363 24.111 25.326L24.114 25.313ZM26.155 29.128L24.455 30.828L25.728 28.68L26.155 29.128ZM26.261 27.782L27.068 26.421L28.373 26.91L26.862 28.421L26.261 27.782ZM29.343 20.62L27.543 18.82L29.78 16.443L31.548 16.885L29.343 20.62ZM26.843 18.12L24.088 15.366C24.1496 15.2701 24.2041 15.1699 24.251 15.066L28.675 16.172L26.843 18.12ZM22.818 16.343L25.018 20.057L23.318 21.87C22.8833 21.5943 22.3727 21.4629 21.859 21.4945C21.3453 21.5261 20.8546 21.7191 20.457 22.046L18.657 20.546L21.182 16.338C21.7103 16.5367 22.2927 16.5367 22.821 16.338L22.818 16.343ZM17.877 19.899L16.781 19L20.053 16.274L17.877 19.899ZM17.356 20.767L16 23.028L14.649 20.777L16 19.651L17.356 20.767ZM16 24.972L17.351 27.223L16 28.349L14.649 27.223L16 24.972ZM17.872 28.091L20.053 31.726L16.781 29L17.872 28.091ZM21.172 31.651L18.647 27.443L20.447 25.943C20.8446 26.2699 21.3353 26.4629 21.849 26.4945C22.3627 26.5261 22.8733 26.3947 23.308 26.119L25.008 27.932L22.808 31.646C22.2797 31.4473 21.6973 31.4473 21.169 31.646L21.172 31.651ZM24.081 32.624L26.836 29.87L28.668 31.817L24.244 32.923C24.1977 32.8196 24.1439 32.7196 24.083 32.624H24.081ZM27.543 29.162L29.343 27.362L31.553 31.092L29.785 31.534L27.543 29.162ZM29.543 25.749L28.507 24L29.544 22.251L31.293 24L29.543 25.749ZM32.082 16L30.568 15.621L35.263 10.633L32.082 16ZM38 5.50001C38.2967 5.50001 38.5867 5.58798 38.8334 5.7528C39.08 5.91763 39.2723 6.15189 39.3858 6.42598C39.4994 6.70007 39.5291 7.00167 39.4712 7.29264C39.4133 7.58362 39.2705 7.85089 39.0607 8.06067C38.8509 8.27045 38.5836 8.41331 38.2927 8.47119C38.0017 8.52907 37.7001 8.49936 37.426 8.38583C37.1519 8.2723 36.9176 8.08004 36.7528 7.83336C36.588 7.58669 36.5 7.29668 36.5 7.00001C36.5 6.60218 36.658 6.22065 36.9394 5.93935C37.2207 5.65804 37.6022 5.50001 38 5.50001ZM35.959 8.43801L29.459 15.349L24.492 14.107C24.492 14.071 24.503 14.037 24.503 14C24.5025 13.8242 24.4834 13.6489 24.446 13.477L35.959 8.43801ZM22 12.5C22.2967 12.5 22.5867 12.588 22.8334 12.7528C23.08 12.9176 23.2723 13.1519 23.3858 13.426C23.4994 13.7001 23.5291 14.0017 23.4712 14.2926C23.4133 14.5836 23.2705 14.8509 23.0607 15.0607C22.8509 15.2704 22.5836 15.4133 22.2927 15.4712C22.0017 15.5291 21.7001 15.4994 21.426 15.3858C21.1519 15.2723 20.9176 15.08 20.7528 14.8334C20.588 14.5867 20.5 14.2967 20.5 14C20.5 13.6022 20.6581 13.2207 20.9394 12.9393C21.2207 12.658 21.6022 12.5 22 12.5ZM8.50002 14C8.50002 13.7033 8.58799 13.4133 8.75281 13.1667C8.91763 12.92 9.1519 12.7277 9.42599 12.6142C9.70008 12.5007 10.0017 12.471 10.2927 12.5288C10.5836 12.5867 10.8509 12.7296 11.0607 12.9393C11.2705 13.1491 11.4133 13.4164 11.4712 13.7074C11.5291 13.9983 11.4994 14.2999 11.3858 14.574C11.2723 14.8481 11.08 15.0824 10.8334 15.2472C10.5867 15.412 10.2967 15.5 10 15.5C9.60219 15.5 9.22066 15.342 8.93935 15.0607C8.65805 14.7794 8.50002 14.3978 8.50002 14ZM11.947 16.274L15.219 19L14.128 19.909L11.947 16.274ZM13.872 21.425L15.117 23.5H12.449C12.3973 23.2633 12.311 23.0356 12.193 22.824L13.872 21.425ZM10 25.5C9.70334 25.5 9.41333 25.412 9.16666 25.2472C8.91999 25.0824 8.72773 24.8481 8.6142 24.574C8.50066 24.2999 8.47096 23.9983 8.52884 23.7074C8.58671 23.4164 8.72958 23.1491 8.93935 22.9394C9.14913 22.7296 9.41641 22.5867 9.70738 22.5288C9.99835 22.471 10.3 22.5007 10.574 22.6142C10.8481 22.7277 11.0824 22.92 11.2472 23.1667C11.412 23.4133 11.5 23.7033 11.5 24C11.5 24.3978 11.342 24.7794 11.0607 25.0607C10.7794 25.342 10.3978 25.5 10 25.5ZM12.193 25.176C12.311 24.9644 12.3973 24.7367 12.449 24.5H15.117L13.872 26.575L12.193 25.176ZM14.128 28.091L15.219 29L11.947 31.726L14.128 28.091ZM10 35.5C9.70334 35.5 9.41333 35.412 9.16666 35.2472C8.91999 35.0824 8.72773 34.8481 8.6142 34.574C8.50066 34.2999 8.47096 33.9983 8.52884 33.7074C8.58671 33.4164 8.72958 33.1491 8.93935 32.9393C9.14913 32.7296 9.41641 32.5867 9.70738 32.5288C9.99835 32.471 10.3 32.5007 10.574 32.6142C10.8481 32.7277 11.0824 32.92 11.2472 33.1667C11.412 33.4133 11.5 33.7033 11.5 34C11.5 34.3978 11.342 34.7794 11.0607 35.0607C10.7794 35.342 10.3978 35.5 10 35.5ZM22 35.5C21.7033 35.5 21.4133 35.412 21.1667 35.2472C20.92 35.0824 20.7277 34.8481 20.6142 34.574C20.5007 34.2999 20.471 33.9983 20.5288 33.7074C20.5867 33.4164 20.7296 33.1491 20.9394 32.9393C21.1491 32.7296 21.4164 32.5867 21.7074 32.5288C21.9984 32.471 22.3 32.5007 22.574 32.6142C22.8481 32.7277 23.0824 32.92 23.2472 33.1667C23.412 33.4133 23.5 33.7033 23.5 34C23.5 34.3978 23.342 34.7794 23.0607 35.0607C22.7794 35.342 22.3978 35.5 22 35.5ZM24.489 33.893L29.456 32.651L35.956 39.562L24.443 34.523C24.4804 34.3512 24.4995 34.1759 24.5 34C24.5 33.963 24.491 33.929 24.489 33.893ZM39.5 41C39.5 41.2967 39.412 41.5867 39.2472 41.8334C39.0824 42.08 38.8481 42.2723 38.574 42.3858C38.2999 42.4994 37.9984 42.5291 37.7074 42.4712C37.4164 42.4133 37.1491 42.2704 36.9394 42.0607C36.7296 41.8509 36.5867 41.5836 36.5288 41.2926C36.471 41.0017 36.5007 40.7001 36.6142 40.426C36.7277 40.1519 36.92 39.9176 37.1667 39.7528C37.4133 39.588 37.7033 39.5 38 39.5C38.3978 39.5 38.7794 39.658 39.0607 39.9393C39.342 40.2206 39.5 40.6022 39.5 41ZM35.263 37.362L30.568 32.374L32.082 32L35.263 37.362ZM32.563 30.844L30.773 27.824L35.539 29.611C35.5159 29.7395 35.5028 29.8695 35.5 30C35.5 30.037 35.509 30.071 35.511 30.107L32.563 30.844ZM39.5 30C39.5 30.2967 39.412 30.5867 39.2472 30.8334C39.0824 31.08 38.8481 31.2723 38.574 31.3858C38.2999 31.4994 37.9984 31.5291 37.7074 31.4712C37.4164 31.4133 37.1491 31.2704 36.9394 31.0607C36.7296 30.8509 36.5867 30.5836 36.5288 30.2926C36.471 30.0017 36.5007 29.7001 36.6142 29.426C36.7277 29.1519 36.92 28.9176 37.1667 28.7528C37.4133 28.588 37.7033 28.5 38 28.5C38.3978 28.5 38.7794 28.658 39.0607 28.9394C39.342 29.2207 39.5 29.6022 39.5 30ZM35.917 28.624C35.906 28.64 35.899 28.658 35.889 28.674L30.175 26.532L32 24.707L35.917 28.624ZM30.175 21.468L35.889 19.326C35.899 19.342 35.906 19.36 35.917 19.376L32 23.293L30.175 21.468Z" fill="currentColor"/>
</g>
<defs>
<clipPath id="clip0_144_3164">
<rect width="48" height="48" fill="currentColor"/>
</clipPath>
</defs>
</svg>