<?xml version="1.0" encoding="utf-8"?>
<!-- Generator: Adobe Illustrator 27.1.1, SVG Export Plug-In . SVG Version: 6.00 Build 0)  -->
<svg version="1.1" id="Art_3.0" xmlns="http://www.w3.org/2000/svg" xmlns:xlink="http://www.w3.org/1999/xlink" x="0px" y="0px"
	 viewBox="0 0 48 48" style="enable-background:new 0 0 48 48;" xml:space="preserve">
<style type="text/css">
	.st0{fill:#FFFFFF;}
	.st1{fill:#FFFFFF;fill-opacity:0;}
</style>
<g>
	<path class="st0" d="M40.5,32.5v-21h-33v21H4.34863l1.07129,4h37.16016l1.07129-4C43.65137,32.5,40.5,32.5,40.5,32.5z M8.5,12.5h31
		v20h-31V12.5z M41.8125,35.5H6.1875l-0.53613-2h12.96191l0.25928,1h10.25049l0.25928-1h12.96631l-0.53613,2H41.8125z"/>
	<path class="st0" d="M25.5,20.5c0.55127,0,1-0.44873,1-1s-0.44873-1-1-1s-1,0.44873-1,1S24.94873,20.5,25.5,20.5z M26,19.5
		h-0.49951C25.5,19.5,25.5,19.49951,25.5,19.49902L26,19.5z"/>
	<path class="st0" d="M27.5,23.11328c0.55127,0,1-0.44824,1-1c0-0.55127-0.44873-1-1-1s-1,0.44873-1,1
		C26.5,22.66504,26.94873,23.11328,27.5,23.11328z M28,22.11328l-0.49951,0.00049C27.5,22.11377,27.5,22.11328,27.5,22.11279
		L28,22.11328z"/>
	<path class="st0" d="M26.5,24.5c-0.55127,0-1,0.44873-1,1s0.44873,1,1,1s1-0.44873,1-1S27.05127,24.5,26.5,24.5z M26.50049,25.5
		C26.5,25.5,26.5,25.49951,26.5,25.49902L27,25.5H26.50049z"/>
	<path class="st0" d="M22.5,26.5c0,0.55127,0.44873,1,1,1s1-0.44873,1-1s-0.44873-1-1-1S22.5,25.94873,22.5,26.5z M24,26.5h-0.49951
		C23.5,26.5,23.5,26.49951,23.5,26.49902L24,26.5z"/>
	<path class="st0" d="M21.41699,24.12402c-0.09247,0.07715-0.17859,0.16162-0.2915,0.21533
		c-0.8623,0.41064-1.40674,1.26123-1.42139,2.2207c-0.01465,0.94287,0.49316,1.79443,1.3252,2.22314
		c0.91162,0.46875,1.93896,0.7168,2.9707,0.7168c1.85059,0,3.61865-0.79248,4.85156-2.17432
		c1.23193-1.38037,1.81689-3.23584,1.60449-5.08984c-0.33105-2.89502-2.6626-5.28076-5.54492-5.67383
		c-0.72363-0.09814-1.44775-0.07959-2.15088,0.05615c-0.72803,0.14062-1.35156,0.59277-1.71045,1.24121
		c-0.35791,0.64648-0.41064,1.41211-0.14453,2.10059l0.96631,2.50488l0,0c0.09625,0.24951,0.09656,0.50684,0.05695,0.75684
		l-2.37158-2.37207c0.09491-0.19873,0.15009-0.41553,0.15009-0.64258c0-0.40039-0.15576-0.77734-0.43945-1.06055l0,0
		c-0.45215-0.45215-1.81836-0.7417-2.38477-0.8457l-0.71191-0.12988l0.13037,0.71191
		c0.10352,0.56641,0.39307,1.93311,0.84521,2.38477c0.2832,0.2832,0.66016,0.43945,1.06055,0.43945
		c0.22705,0,0.44397-0.05518,0.64294-0.1499l2.56702,2.56689L21.41699,24.12402z M21.83789,19.60009
		c-0.15869-0.41211-0.12744-0.86963,0.08691-1.25635c0.21484-0.38818,0.58887-0.65918,1.0249-0.74365
		c0.59717-0.11523,1.21191-0.13086,1.82666-0.04688c2.43555,0.33154,4.40674,2.34863,4.68652,4.7959
		c0.18213,1.59473-0.2998,3.12549-1.35742,4.31104c-1.6333,1.83057-4.45557,2.34668-6.61816,1.2334
		c-0.49951-0.25684-0.79199-0.74951-0.7832-1.31836c0.00879-0.58496,0.32715-1.0835,0.85107-1.33301
		c1.16553-0.55518,1.71387-1.93359,1.24902-3.1377l0,0C22.80419,22.10448,21.83788,19.60009,21.83789,19.60009z M17.854,20.56103
		c-0.10547-0.11084-0.26611-0.56592-0.40576-1.11279c0.54639,0.13965,1.00098,0.30029,1.1123,0.40527
		c0.09424,0.09473,0.14648,0.22021,0.14648,0.35352c0,0.13379-0.05225,0.25928-0.14648,0.35352
		C18.37255,20.74903,18.04199,20.74951,17.854,20.56103z"/>
</g>
<rect class="st1" width="48" height="48"/>
</svg>
