<svg viewBox="0 0 48 48" fill="none" xmlns="http://www.w3.org/2000/svg">
<g clip-path="url(#clip0_144_3151)">
<path d="M7.5 8.5V29.5H16.5V28.5H8.5V13.5H39.5V28.5H31.5V29.5H40.5V8.5H7.5ZM8.5 9.5H39.5V12.495H8.5V9.5ZM36.495 10.495H38.495V11.495H36.495V10.495ZM33.495 10.495H35.495V11.495H33.495V10.495ZM30.495 10.495H32.495V11.495H30.495V10.495ZM24.495 36.595V28.5H23.495V36.591C23.1614 36.7089 22.8802 36.941 22.7012 37.2462C22.5221 37.5514 22.4568 37.9101 22.5166 38.2589C22.5764 38.6076 22.7576 38.924 23.0282 39.1521C23.2987 39.3801 23.6412 39.5052 23.995 39.5052C24.3488 39.5052 24.6913 39.3801 24.9618 39.1521C25.2324 38.924 25.4136 38.6076 25.4734 38.2589C25.5332 37.9101 25.4679 37.5514 25.2888 37.2462C25.1098 36.941 24.8286 36.7089 24.495 36.591V36.595ZM24 38.5C23.9011 38.5 23.8044 38.4707 23.7222 38.4157C23.64 38.3608 23.5759 38.2827 23.5381 38.1913C23.5002 38.1 23.4903 37.9994 23.5096 37.9025C23.5289 37.8055 23.5765 37.7164 23.6464 37.6464C23.7164 37.5765 23.8055 37.5289 23.9025 37.5096C23.9994 37.4903 24.1 37.5002 24.1913 37.5381C24.2827 37.5759 24.3608 37.64 24.4157 37.7222C24.4707 37.8044 24.5 37.9011 24.5 38C24.5 38.1326 24.4473 38.2598 24.3536 38.3536C24.2598 38.4473 24.1326 38.5 24 38.5ZM19.5 32.793L15.638 36.65C15.3158 36.4948 14.9492 36.4587 14.6029 36.548C14.2567 36.6373 13.9532 36.8462 13.7463 37.1379C13.5393 37.4295 13.4423 37.7849 13.4723 38.1412C13.5024 38.4975 13.6576 38.8317 13.9104 39.0846C14.1633 39.3374 14.4975 39.4926 14.8538 39.5227C15.2101 39.5527 15.5655 39.4557 15.8571 39.2487C16.1488 39.0418 16.3577 38.7383 16.447 38.3921C16.5363 38.0458 16.5002 37.6792 16.345 37.357L20.495 33.207V28.5H19.495L19.5 32.793ZM15 38.5C14.9011 38.5 14.8044 38.4707 14.7222 38.4157C14.64 38.3608 14.5759 38.2827 14.5381 38.1913C14.5002 38.1 14.4903 37.9994 14.5096 37.9025C14.5289 37.8055 14.5765 37.7164 14.6464 37.6464C14.7164 37.5765 14.8055 37.5289 14.9025 37.5096C14.9994 37.4903 15.1 37.5002 15.1913 37.5381C15.2827 37.5759 15.3608 37.64 15.4157 37.7222C15.4707 37.8044 15.5 37.9011 15.5 38C15.5 38.0661 15.4869 38.1315 15.4615 38.1925C15.436 38.2535 15.3988 38.3088 15.3518 38.3553C15.3048 38.4018 15.2491 38.4386 15.1879 38.4634C15.1266 38.4882 15.0611 38.5007 14.995 38.5H15ZM33 36.5C32.7775 36.5013 32.5581 36.5525 32.358 36.65L28.5 32.793V28.5H27.5V33.207L31.65 37.357C31.5106 37.6509 31.4704 37.9821 31.5357 38.3007C31.6009 38.6194 31.7679 38.9082 32.0115 39.1236C32.2552 39.3391 32.5622 39.4695 32.8865 39.4953C33.2107 39.521 33.5345 39.4407 33.8091 39.2664C34.0837 39.0921 34.2942 38.8332 34.4089 38.5288C34.5236 38.2245 34.5362 37.8911 34.4449 37.5789C34.3536 37.2667 34.1633 36.9927 33.9027 36.7981C33.6421 36.6035 33.3253 36.4989 33 36.5ZM33 38.5C32.9011 38.5 32.8044 38.4707 32.7222 38.4157C32.64 38.3608 32.5759 38.2827 32.5381 38.1913C32.5002 38.1 32.4903 37.9994 32.5096 37.9025C32.5289 37.8055 32.5765 37.7164 32.6464 37.6464C32.7164 37.5765 32.8055 37.5289 32.9025 37.5096C32.9994 37.4903 33.1 37.5002 33.1913 37.5381C33.2827 37.5759 33.3608 37.64 33.4157 37.7222C33.4707 37.8044 33.5 37.9011 33.5 38C33.5 38.0661 33.4869 38.1315 33.4615 38.1925C33.436 38.2535 33.3988 38.3088 33.3518 38.3553C33.3048 38.4018 33.2491 38.4386 33.1879 38.4634C33.1266 38.4882 33.0611 38.5007 32.995 38.5H33ZM24 18.47C23.4994 18.469 23.0098 18.6166 22.593 18.8939C22.1763 19.1713 21.8513 19.5661 21.659 20.0283C21.4668 20.4906 21.4159 20.9994 21.513 21.4905C21.6101 21.9816 21.8506 22.4329 22.2043 22.7872C22.5579 23.1415 23.0087 23.383 23.4996 23.481C23.9905 23.579 24.4994 23.5292 24.962 23.3379C25.4246 23.1465 25.82 22.8223 26.0983 22.4061C26.3765 21.9899 26.525 21.5006 26.525 21C26.5242 20.3301 26.2581 19.6878 25.7849 19.2137C25.3117 18.7395 24.6699 18.4721 24 18.47ZM24 22.53C23.6972 22.531 23.4009 22.4421 23.1486 22.2746C22.8964 22.1071 22.6995 21.8685 22.5829 21.589C22.4663 21.3095 22.4353 21.0017 22.4938 20.7046C22.5523 20.4075 22.6976 20.1344 22.9114 19.9199C23.1251 19.7054 23.3977 19.5592 23.6947 19.4998C23.9916 19.4403 24.2995 19.4703 24.5793 19.586C24.8592 19.7016 25.0985 19.8977 25.2668 20.1495C25.4351 20.4012 25.525 20.6972 25.525 21C25.5247 21.4048 25.3641 21.7931 25.0784 22.0798C24.7926 22.3665 24.4048 22.5284 24 22.53ZM16.633 21C16.6302 21.9672 16.8193 22.9254 17.1894 23.819C17.5595 24.7127 18.1032 25.524 18.789 26.206L18.082 26.913C16.514 25.3447 15.6331 23.2177 15.6331 21C15.6331 18.7823 16.514 16.6553 18.082 15.087L18.789 15.794C18.1032 16.476 17.5595 17.2874 17.1894 18.181C16.8193 19.0746 16.6302 20.0328 16.633 21ZM31.357 21C31.3597 20.0327 31.1704 19.0745 30.8002 18.1809C30.4299 17.2872 29.886 16.4759 29.2 15.794L29.907 15.087C31.475 16.6553 32.3559 18.7823 32.3559 21C32.3559 23.2177 31.475 25.3447 29.907 26.913L29.2 26.206C29.886 25.5241 30.4299 24.7128 30.8002 23.8191C31.1704 22.9255 31.3597 21.9673 31.357 21ZM20.949 17.955C20.1415 18.7628 19.6879 19.8583 19.6879 21.0005C19.6879 22.1427 20.1415 23.2382 20.949 24.046L20.242 24.753C19.2471 23.7576 18.6881 22.4079 18.6881 21.0005C18.6881 19.5931 19.2471 18.2434 20.242 17.248L20.949 17.955ZM27.04 24.046C27.4401 23.6461 27.7574 23.1713 27.9739 22.6488C28.1905 22.1262 28.3019 21.5661 28.3019 21.0005C28.3019 20.4349 28.1905 19.8748 27.9739 19.3522C27.7574 18.8297 27.4401 18.3549 27.04 17.955L27.747 17.248C28.24 17.7407 28.6311 18.3256 28.8979 18.9695C29.1648 19.6134 29.3021 20.3035 29.3021 21.0005C29.3021 21.6975 29.1648 22.3876 28.8979 23.0315C28.6311 23.6754 28.24 24.2603 27.747 24.753L27.04 24.046Z" fill="currentColor"/>
</g>
<defs>
<clipPath id="clip0_144_3151">
<rect width="48" height="48" fill="currentColor"/>
</clipPath>
</defs>
</svg>