<svg viewBox="0 0 48 48" fill="none" xmlns="http://www.w3.org/2000/svg">
<g clip-path="url(#clip0_144_3614)">
<path d="M41.059 23.5L39.059 19.5H37.259C36.6781 16.4085 35.0352 13.6172 32.6142 11.6088C30.1933 9.60036 27.1466 8.5011 24.001 8.5011C20.8554 8.5011 17.8087 9.60036 15.3878 11.6088C12.9668 13.6172 11.3239 16.4085 10.743 19.5H8.94299L6.94299 23.5L8.94299 27.5H11.5V22C11.5 18.6848 12.817 15.5054 15.1612 13.1612C17.5054 10.817 20.6848 9.50001 24 9.50001C27.3152 9.50001 30.4946 10.817 32.8388 13.1612C35.183 15.5054 36.5 18.6848 36.5 22V31.776L31.12 37.156L30.792 36.5H26.192L25.442 38L26.192 39.5H30.792L31.392 38.3L37.5 32.19V27.5H39.059L41.059 23.5ZM10.5 26.5H9.55899L8.05899 23.5L9.55899 20.5H10.5V26.5ZM30.174 38.5H26.809L26.559 38L26.809 37.5H30.174L30.424 38L30.174 38.5ZM37.5 26.5V20.5H38.441L39.941 23.5L38.441 26.5H37.5ZM35.7 22.8C35.7 20.486 35.0138 18.2239 33.7282 16.2998C32.4426 14.3758 30.6153 12.8762 28.4774 11.9906C26.3395 11.1051 23.987 10.8734 21.7174 11.3248C19.4479 11.7763 17.3631 12.8906 15.7268 14.5269C14.0906 16.1631 12.9763 18.2479 12.5248 20.5175C12.0734 22.787 12.3051 25.1395 13.1906 27.2774C14.0761 29.4153 15.5758 31.2426 17.4998 32.5282C19.4239 33.8138 21.686 34.5 24 34.5C27.1016 34.4955 30.075 33.2614 32.2682 31.0682C34.4614 28.875 35.6955 25.9017 35.7 22.8ZM24 33.5C21.8837 33.5 19.815 32.8725 18.0554 31.6967C16.2958 30.521 14.9243 28.8499 14.1145 26.8947C13.3046 24.9396 13.0927 22.7881 13.5056 20.7125C13.9185 18.6369 14.9375 16.7304 16.434 15.234C17.9304 13.7375 19.8369 12.7185 21.9125 12.3056C23.9881 11.8927 26.1395 12.1046 28.0947 12.9145C30.0499 13.7244 31.721 15.0958 32.8967 16.8554C34.0724 18.615 34.7 20.6837 34.7 22.8C34.6958 25.6365 33.5671 28.3557 31.5614 30.3614C29.5556 32.3671 26.8365 33.4958 24 33.5ZM29.573 28H30.839C30.0577 29.0833 29.0303 29.9656 27.8412 30.574C26.6522 31.1825 25.3357 31.4998 24 31.4998C22.6643 31.4998 21.3478 31.1825 20.1588 30.574C18.9697 29.9656 17.9423 29.0833 17.161 28H18.427C19.127 28.7862 19.9855 29.4154 20.946 29.8463C21.9065 30.2771 22.9473 30.4998 24 30.4998C25.0527 30.4998 26.0935 30.2771 27.054 29.8463C28.0145 29.4154 28.873 28.7862 29.573 28Z" fill="currentColor"/>
</g>
<defs>
<clipPath id="clip0_144_3614">
<rect width="48" height="48" fill="currentColor"/>
</clipPath>
</defs>
</svg>