<svg viewBox="0 0 48 48" fill="none" xmlns="http://www.w3.org/2000/svg">
<g clip-path="url(#clip0_1531_1252)">
<path d="M7.49951 23.4995H9.49951V24.4995H7.49951V23.4995ZM7.49951 18.4995H9.49951V17.4995H7.49951V18.4995ZM7.49951 12.4995H9.49951V11.4995H7.49951V12.4995ZM7.49951 30.4995H9.49951V29.4995H7.49951V30.4995ZM10.4995 24.4995H12.4995V23.4995H10.4995V24.4995ZM10.4995 18.4995H12.4995V17.4995H10.4995V18.4995ZM10.4995 12.4995H12.4995V11.4995H10.4995V12.4995ZM10.4995 30.4995H12.4995V29.4995H10.4995V30.4995ZM13.4995 23.4995V24.4995H15.4995V23.4995H13.4995ZM13.4995 17.4995V18.4995H15.4995V17.4995H13.4995ZM13.4995 11.4995V12.4995H15.4995V11.4995H13.4995ZM13.4995 29.4995V30.4995H15.4995V29.4995H13.4995ZM43.4995 8.5V34.5H42.4995V33.4995H35.5V36.5H36.5V37.5H40.499V38.5H36.5V39.5H33.5V38.5H14.5V39.5H11.5V38.5H7.5V37.5H11.5V36.5H12.5V33.4995H5.49951V34.5H4.49951V8.5H21.4995V34.5H20.4995V33.4995H13.5V36.5H14.5V37.5H33.5V36.5H34.5V33.4995H27.4995V34.5H26.4995V8.5H43.4995ZM5.49951 14.4995H20.4995V9.5H5.49951V14.4995ZM5.49951 20.4995H20.4995V15.4995H5.49951V20.4995ZM5.49951 26.4995H20.4995V21.4995H5.49951V26.4995ZM5.49951 32.4995H20.4995V27.4995H5.49951V32.4995ZM13.5 38.5V37.5H12.5V38.5H13.5ZM35.4995 38.5V37.5H34.5V38.5H35.4995ZM42.4995 27.4995H27.4995V32.4995H42.4995V27.4995ZM42.4995 21.4995H27.4995V26.4995H42.4995V21.4995ZM42.4995 15.4995H27.4995V20.4995H42.4995V15.4995ZM42.4995 14.4995V9.5H27.4995V14.4995H42.4995ZM31.4995 24.4995V23.4995H29.4995V24.4995H31.4995ZM31.4995 18.4995V17.4995H29.4995V18.4995H31.4995ZM29.4995 12.4995H31.4995V11.4995H29.4995V12.4995ZM31.4995 30.4995V29.4995H29.4995V30.4995H31.4995ZM34.4995 23.4995H32.4995V24.4995H34.4995V23.4995ZM34.4995 17.4995H32.4995V18.4995H34.4995V17.4995ZM32.4995 12.4995H34.4995V11.4995H32.4995V12.4995ZM34.4995 29.4995H32.4995V30.4995H34.4995V29.4995ZM37.4995 23.4995H35.4995V24.4995H37.4995V23.4995ZM37.4995 17.4995H35.4995V18.4995H37.4995V17.4995ZM35.4995 11.4995V12.4995H37.4995V11.4995H35.4995ZM37.4995 29.4995H35.4995V30.4995H37.4995V29.4995Z" fill="currentColor"/>
</g>
<defs>
<clipPath id="clip0_1531_1252">
<rect width="48" height="48" fill="currentColor"/>
</clipPath>
</defs>
</svg>