<svg viewBox="0 0 48 48" fill="none" xmlns="http://www.w3.org/2000/svg">
<g clip-path="url(#clip0_24_184)">
<g clip-path="url(#clip1_24_184)">
<path d="M24 4.50342C20.1439 4.50342 16.3745 5.64687 13.1683 7.78918C9.96209 9.9315 7.46317 12.9764 5.98752 16.539C4.51187 20.1015 4.12577 24.0216 4.87805 27.8036C5.63033 31.5856 7.4872 35.0595 10.2138 37.7862C12.9405 40.5128 16.4144 42.3697 20.1964 43.122C23.9784 43.8742 27.8985 43.4881 31.461 42.0125C35.0236 40.5368 38.0685 38.0379 40.2108 34.8317C42.3531 31.6255 43.4966 27.8561 43.4966 24C43.4908 18.831 41.4348 13.8753 37.7797 10.2203C34.1247 6.56522 29.169 4.50925 24 4.50342ZM5.52882 24.5H12.4812C12.5061 27.9131 13.1205 31.2962 14.2974 34.5H8.79054C6.75204 31.5557 5.61834 28.08 5.52882 24.5ZM24.5 12.499V5.54785C27.6279 5.80762 30.4014 8.45898 32.2351 12.499L24.5 12.499ZM32.6611 13.499C33.8704 16.6956 34.4997 20.0823 34.5193 23.5H24.5V13.499H32.6611ZM23.5 12.499H15.7651C17.5986 8.459 20.3721 5.8076 23.5 5.54783V12.499ZM23.5 13.499V23.5H13.4807C13.5003 20.0823 14.1295 16.6956 15.3389 13.499H23.5ZM12.4812 23.5H5.52882C5.61836 19.9194 6.75242 16.4431 8.79151 13.4985H14.2979C13.1207 16.7028 12.5061 20.0864 12.4812 23.5ZM13.4807 24.5H23.5V34.5H15.3384C14.1295 31.3036 13.5005 27.9173 13.4807 24.5ZM23.5 35.5V42.4521C20.3716 42.1924 17.5981 39.5405 15.7644 35.5H23.5ZM24.5 35.5H32.2356C30.4019 39.5405 27.6284 42.1924 24.5 42.4521V35.5ZM24.5 34.5V24.5H34.5193C34.4995 27.9173 33.8705 31.3036 32.6616 34.5H24.5ZM35.5188 24.5H42.4712C42.3817 28.08 41.248 31.5557 39.2095 34.5H33.7026C34.8795 31.2962 35.494 27.9131 35.5188 24.5ZM35.5188 23.5C35.494 20.0866 34.8795 16.7031 33.7024 13.499H39.209C41.2478 16.4435 42.3816 19.9197 42.4712 23.5H35.5188ZM38.4607 12.499H33.2922C32.2999 9.98641 30.6662 7.7779 28.554 6.09375C32.4663 7.09161 35.9451 9.34091 38.4607 12.499ZM19.446 6.09375C17.3339 7.77792 15.7002 9.98643 14.708 12.499L9.53979 12.4985C12.0553 9.34073 15.534 7.09163 19.446 6.09375ZM9.53858 35.5H14.7073C15.6996 38.013 17.3335 40.2218 19.446 41.9062C15.5333 40.9083 12.0542 38.6586 9.53858 35.5ZM28.554 41.9062C30.6665 40.2218 32.3004 38.013 33.2927 35.5H38.4614C35.9459 38.6586 32.4667 40.9083 28.554 41.9062Z" fill="currentColor"/>
</g>
</g>
<defs>
<clipPath id="clip0_24_184">
<rect width="48" height="48" fill="currentColor"/>
</clipPath>
<clipPath id="clip1_24_184">
<rect width="48" height="48" fill="currentColor"/>
</clipPath>
</defs>
</svg>