<svg viewBox="0 0 48 48" fill="none" xmlns="http://www.w3.org/2000/svg">
<g clip-path="url(#clip0_1201_785)">
<path d="M23.5 29.4999V25.4999H24.5V29.4999H23.5Z" fill="currentColor"/>
<path fill-rule="evenodd" clip-rule="evenodd" d="M28.5 22.4999V19.9999C28.5 17.5199 26.48 15.4999 24 15.4999C21.52 15.4999 19.5 17.5199 19.5 19.9999V22.4999H17.52L17.5 27.9999L18.61 32.4999H29.39L30.5 28.0599L30.48 22.4999H28.5ZM20.5 19.9999C20.5 18.0699 22.07 16.4999 24 16.4999C25.93 16.4999 27.5 18.0699 27.5 19.9999V22.4999H20.5V19.9999ZM19.39 31.4999L18.5 27.9399L18.52 23.4999H29.49L29.51 27.9399L28.62 31.4999H19.39Z" fill="currentColor"/>
<path fill-rule="evenodd" clip-rule="evenodd" d="M40.59 15.3699L40.5 15.2199V14.7099L24 5.42993L7.5 14.7099V34.2899L24 43.5699L40.5 34.2899V15.4199L40.59 15.3699ZM39.5 33.7099L24.49 42.1499L24.52 37.4999H23.52L23.49 42.1399L8.5 33.7099V15.8099L11.42 17.4999L11.92 16.6299L9.06 14.9799L24 6.57993L39.11 15.0799L36.42 16.6399L36.92 17.5099L39.51 16.0199V33.7299L39.5 33.7099Z" fill="currentColor"/>
</g>
<defs>
<clipPath id="clip0_1201_785">
<rect width="48" height="48" fill="currentColor"/>
</clipPath>
</defs>
</svg>