<svg viewBox="0 0 48 48" fill="none" xmlns="http://www.w3.org/2000/svg">
<g clip-path="url(#clip0_144_3597)">
<path d="M12.762 31.5L10.351 40.5H23.651L21.24 31.5H12.762ZM11.654 39.5L13.53 32.5H20.47L22.346 39.5H11.654ZM17 30.5C17.89 30.5 18.76 30.2361 19.5 29.7416C20.24 29.2471 20.8168 28.5443 21.1574 27.7221C21.498 26.8998 21.5871 25.995 21.4135 25.1221C21.2399 24.2492 20.8113 23.4474 20.1819 22.818C19.5526 22.1887 18.7508 21.7601 17.8779 21.5865C17.0049 21.4128 16.1001 21.5019 15.2779 21.8425C14.4556 22.1831 13.7528 22.7599 13.2583 23.4999C12.7639 24.24 12.5 25.11 12.5 26C12.5 27.1935 12.9741 28.3381 13.818 29.182C14.6619 30.0259 15.8065 30.5 17 30.5ZM17 22.5C17.6922 22.5 18.3689 22.7053 18.9444 23.0899C19.52 23.4744 19.9686 24.0211 20.2335 24.6606C20.4984 25.3001 20.5677 26.0039 20.4327 26.6828C20.2977 27.3617 19.9643 27.9854 19.4748 28.4749C18.9853 28.9644 18.3617 29.2977 17.6828 29.4327C17.0038 29.5678 16.3001 29.4985 15.6606 29.2336C15.021 28.9687 14.4744 28.5201 14.0898 27.9445C13.7052 27.3689 13.5 26.6922 13.5 26C13.5 25.0717 13.8687 24.1815 14.5251 23.5251C15.1815 22.8687 16.0717 22.5 17 22.5ZM27.5 16.5H28.5V18.5H27.5V16.5ZM26.5 12.5H25.5V12C25.5 11.337 25.7633 10.7011 26.2322 10.2322C26.701 9.76339 27.3369 9.5 28 9.5C28.663 9.5 29.2989 9.76339 29.7677 10.2322C30.2366 10.7011 30.5 11.337 30.5 12C30.4712 12.3744 30.3425 12.7342 30.1274 13.042C29.9123 13.3498 29.6186 13.5943 29.277 13.75C28.777 14.08 28.5 14.286 28.5 14.667V15.5H27.5V14.667C27.5287 14.2926 27.6574 13.9328 27.8725 13.625C28.0876 13.3172 28.3813 13.0727 28.723 12.917C29.223 12.586 29.5 12.381 29.5 12C29.5 11.6022 29.3419 11.2206 29.0606 10.9393C28.7793 10.658 28.3978 10.5 28 10.5C27.6021 10.5 27.2206 10.658 26.9393 10.9393C26.658 11.2206 26.5 11.6022 26.5 12V12.5ZM18.433 7.5V20.5H22.609L23.77 25.141L27.25 20.5H37.5V7.5H18.433ZM36.5 19.5H26.75L24.23 22.859L23.391 19.5H19.433V8.5H36.5V19.5Z" fill="currentColor"/>
</g>
<defs>
<clipPath id="clip0_144_3597">
<rect width="48" height="48" fill="currentColor"/>
</clipPath>
</defs>
</svg>