<svg viewBox="0 0 48 48" fill="none" xmlns="http://www.w3.org/2000/svg">
<g clip-path="url(#clip0_144_3605)">
<path d="M35.505 7.505H16.505V20.505H20.549L21.788 25.127L25.255 20.5H35.505V7.505ZM34.505 19.505H24.755L22.222 22.883L21.317 19.5H17.5V8.5H34.5L34.505 19.505ZM31.005 15.505C31.3017 15.505 31.5917 15.417 31.8383 15.2522C32.085 15.0874 32.2773 14.8531 32.3908 14.579C32.5043 14.3049 32.534 14.0033 32.4762 13.7124C32.4183 13.4214 32.2754 13.1541 32.0656 12.9443C31.8559 12.7346 31.5886 12.5917 31.2976 12.5338C31.0066 12.4759 30.705 12.5057 30.431 12.6192C30.1569 12.7327 29.9226 12.925 29.7578 13.1716C29.593 13.4183 29.505 13.7083 29.505 14.005C29.505 14.402 29.6623 14.7827 29.9426 15.0639C30.2228 15.3451 30.603 15.5037 31 15.505H31.005ZM31.005 13.505C31.1039 13.505 31.2005 13.5343 31.2828 13.5893C31.365 13.6442 31.4291 13.7223 31.4669 13.8137C31.5048 13.905 31.5147 14.0056 31.4954 14.1025C31.4761 14.1995 31.4285 14.2886 31.3585 14.3586C31.2886 14.4285 31.1995 14.4761 31.1025 14.4954C31.0055 14.5147 30.905 14.5048 30.8136 14.4669C30.7223 14.4291 30.6442 14.365 30.5892 14.2828C30.5343 14.2006 30.505 14.1039 30.505 14.005C30.505 13.8733 30.557 13.7468 30.6497 13.6532C30.7423 13.5596 30.8682 13.5063 31 13.505H31.005ZM26.005 15.505C26.3017 15.505 26.5917 15.417 26.8383 15.2522C27.085 15.0874 27.2773 14.8531 27.3908 14.579C27.5043 14.3049 27.534 14.0033 27.4762 13.7124C27.4183 13.4214 27.2754 13.1541 27.0656 12.9443C26.8559 12.7346 26.5886 12.5917 26.2976 12.5338C26.0066 12.4759 25.705 12.5057 25.431 12.6192C25.1569 12.7327 24.9226 12.925 24.7578 13.1716C24.593 13.4183 24.505 13.7083 24.505 14.005C24.505 14.402 24.6623 14.7827 24.9426 15.0639C25.2228 15.3451 25.603 15.5037 26 15.505H26.005ZM26.005 13.505C26.1039 13.505 26.2005 13.5343 26.2828 13.5893C26.365 13.6442 26.4291 13.7223 26.4669 13.8137C26.5048 13.905 26.5147 14.0056 26.4954 14.1025C26.4761 14.1995 26.4285 14.2886 26.3585 14.3586C26.2886 14.4285 26.1995 14.4761 26.1025 14.4954C26.0055 14.5147 25.905 14.5048 25.8136 14.4669C25.7223 14.4291 25.6442 14.365 25.5892 14.2828C25.5343 14.2006 25.505 14.1039 25.505 14.005C25.505 13.8733 25.557 13.7468 25.6497 13.6532C25.7423 13.5596 25.8682 13.5063 26 13.505H26.005ZM21.005 15.505C21.3017 15.505 21.5917 15.417 21.8383 15.2522C22.085 15.0874 22.2773 14.8531 22.3908 14.579C22.5043 14.3049 22.534 14.0033 22.4762 13.7124C22.4183 13.4214 22.2754 13.1541 22.0656 12.9443C21.8559 12.7346 21.5886 12.5917 21.2976 12.5338C21.0066 12.4759 20.705 12.5057 20.431 12.6192C20.1569 12.7327 19.9226 12.925 19.7578 13.1716C19.593 13.4183 19.505 13.7083 19.505 14.005C19.505 14.402 19.6623 14.7827 19.9426 15.0639C20.2228 15.3451 20.603 15.5037 21 15.505H21.005ZM21.005 13.505C21.1039 13.505 21.2005 13.5343 21.2828 13.5893C21.365 13.6442 21.4291 13.7223 21.4669 13.8137C21.5048 13.905 21.5147 14.0056 21.4954 14.1025C21.4761 14.1995 21.4285 14.2886 21.3585 14.3586C21.2886 14.4285 21.1995 14.4761 21.1025 14.4954C21.0055 14.5147 20.905 14.5048 20.8136 14.4669C20.7223 14.4291 20.6442 14.365 20.5892 14.2828C20.5343 14.2006 20.505 14.1039 20.505 14.005C20.505 13.8733 20.557 13.7468 20.6497 13.6532C20.7423 13.5596 20.8682 13.5063 21 13.505H21.005ZM10.767 31.5L8.35498 40.5H21.655L19.244 31.5H10.767ZM9.65898 39.5L11.535 32.5H18.475L20.351 39.5H9.65898ZM15.007 30.5C15.897 30.5 16.767 30.2361 17.507 29.7416C18.2471 29.2472 18.8238 28.5443 19.1644 27.7221C19.505 26.8998 19.5941 25.995 19.4205 25.1221C19.2469 24.2492 18.8183 23.4474 18.189 22.818C17.5596 22.1887 16.7578 21.7601 15.8849 21.5865C15.012 21.4128 14.1072 21.502 13.2849 21.8425C12.4626 22.1831 11.7598 22.7599 11.2654 23.4999C10.7709 24.24 10.507 25.11 10.507 26C10.507 27.1935 10.9811 28.3381 11.825 29.182C12.2429 29.5998 12.7389 29.9313 13.2849 30.1575C13.8309 30.3836 14.416 30.5 15.007 30.5ZM15.007 22.5C15.6992 22.5 16.3759 22.7053 16.9515 23.0899C17.527 23.4744 17.9757 24.0211 18.2406 24.6606C18.5055 25.3002 18.5748 26.0039 18.4397 26.6828C18.3047 27.3618 17.9713 27.9854 17.4819 28.4749C16.9924 28.9644 16.3687 29.2977 15.6898 29.4328C15.0109 29.5678 14.3071 29.4985 13.6676 29.2336C13.028 28.9687 12.4814 28.5201 12.0968 27.9445C11.7123 27.3689 11.507 26.6922 11.507 26C11.507 25.0717 11.8757 24.1815 12.5321 23.5251C13.1885 22.8688 14.0787 22.5 15.007 22.5ZM37.243 31.5H28.767L26.355 40.5H39.655L37.243 31.5ZM29.535 32.5H36.475L38.351 39.5H27.659L29.535 32.5ZM28.507 26C28.507 26.89 28.7709 27.7601 29.2654 28.5001C29.7598 29.2401 30.4626 29.8169 31.2849 30.1575C32.1072 30.4981 33.012 30.5872 33.8849 30.4135C34.7578 30.2399 35.5596 29.8113 36.189 29.182C36.8183 28.5526 37.2469 27.7508 37.4205 26.8779C37.5941 26.005 37.505 25.1002 37.1644 24.2779C36.8238 23.4557 36.2471 22.7529 35.507 22.2584C34.767 21.7639 33.897 21.5 33.007 21.5C31.8139 21.5013 30.6701 21.9759 29.8265 22.8195C28.9828 23.6631 28.5083 24.8069 28.507 26ZM36.507 26C36.507 26.6922 36.3017 27.3689 35.9171 27.9445C35.5325 28.5201 34.9859 28.9687 34.3464 29.2336C33.7068 29.4985 33.0031 29.5678 32.3242 29.4328C31.6452 29.2977 31.0216 28.9644 30.5321 28.4749C30.0426 27.9854 29.7093 27.3618 29.5742 26.6828C29.4392 26.0039 29.5085 25.3002 29.7734 24.6606C30.0383 24.0211 30.4869 23.4744 31.0625 23.0899C31.6381 22.7053 32.3147 22.5 33.007 22.5C33.9352 22.5 34.8255 22.8688 35.4819 23.5251C36.1382 24.1815 36.507 25.0717 36.507 26Z" fill="currentColor"/>
</g>
<defs>
<clipPath id="clip0_144_3605">
<rect width="48" height="48" fill="currentColor"/>
</clipPath>
</defs>
</svg>