<?xml version="1.0" encoding="utf-8"?>
<!-- Generator: Adobe Illustrator 27.1.1, SVG Export Plug-In . SVG Version: 6.00 Build 0)  -->
<svg version="1.1" id="Art_3.0" xmlns="http://www.w3.org/2000/svg" xmlns:xlink="http://www.w3.org/1999/xlink" x="0px" y="0px"
	 viewBox="0 0 48 48" style="enable-background:new 0 0 48 48;" xml:space="preserve">
<style type="text/css">
	.st0{fill:#FFFFFF;}
	.st1{fill:#FFFFFF;fill-opacity:0;}
</style>
<g>
	<path class="st0" d="M8.5,11.4999v23h3.77637l1.46484,5.46631l5.46582-5.46631H39.5v-23H8.5z M38.5,33.4999H18.79297
		l-4.53418,4.53418l-1.21484-4.53418H9.5v-21h29V33.4999z"/>
	<path class="st0" d="M23.9209,31.49648c4.68701,0,8.5-3.81348,8.5-8.5c0-4.68701-3.81299-8.5-8.5-8.5s-8.5,3.81299-8.5,8.5
		C15.4209,27.683,19.23389,31.49648,23.9209,31.49648z M23.9209,15.49648c4.13574,0,7.5,3.36426,7.5,7.5
		c0,4.13525-3.36426,7.5-7.5,7.5s-7.5-3.36475-7.5-7.5C16.4209,18.86074,19.78516,15.49648,23.9209,15.49648z"/>
	<rect x="23.09619" y="26.56094" class="st0" width="1.18311" height="1.27393"/>
	<path class="st0" d="M22.771,19.35879c0.31201-0.20801,0.71973-0.31152,1.22217-0.31152h0.11719
		c0.52002,0,0.9292,0.13184,1.22852,0.39648c0.29883,0.26416,0.44824,0.63037,0.44824,1.09814v0.18213
		c0,0.31201-0.06934,0.5957-0.20801,0.85156s-0.35107,0.4873-0.63672,0.69531l-0.75439,0.5459
		c-0.38135,0.26025-0.64111,0.52002-0.77979,0.78027c-0.13867,0.25977-0.20801,0.60254-0.20801,1.02686v0.83203h0.98779V24.6498
		c0-0.28564,0.0459-0.51318,0.13672-0.68262c0.09082-0.16895,0.25781-0.34424,0.50049-0.52637l0.80615-0.58496
		c0.771-0.55469,1.15674-1.26514,1.15674-2.13184v-0.22119c0-0.48486-0.1084-0.90088-0.32471-1.24756
		c-0.2168-0.34668-0.52246-0.61133-0.9165-0.79297c-0.39453-0.18213-0.86035-0.27344-1.39746-0.27344h-0.14307
		c-1.39551,0-2.32715,0.58496-2.79492,1.75488l0.84473,0.37695c0.16455-0.43311,0.40332-0.75391,0.71484-0.96191L22.771,19.35879z"
		/>
</g>
<rect class="st1" width="48" height="48"/>
</svg>
