<?xml version="1.0" encoding="utf-8"?>
<!-- Generator: Adobe Illustrator 27.1.1, SVG Export Plug-In . SVG Version: 6.00 Build 0)  -->
<svg version="1.1" id="Note" xmlns="http://www.w3.org/2000/svg" xmlns:xlink="http://www.w3.org/1999/xlink" x="0px" y="0px"
	 viewBox="0 0 48 48" style="enable-background:new 0 0 48 48;" xml:space="preserve">
<style type="text/css">
	.st0{fill:#FFFFFF;}
	.st1{fill:#FFFFFF;fill-opacity:0;}
</style>
<path class="st0" d="M24,6.44092L7.40527,14.73828l6.17432,21.61035L24,41.55908l10.42041-5.21045l6.17432-21.61035L24,6.44092z
	 M33.57959,35.65137L24,40.44092l-9.57959-4.78955L8.59473,15.26172L24,7.55908l15.40527,7.70264L33.57959,35.65137z M27.5,20.5V20
	c0-1.92969-1.57031-3.5-3.5-3.5s-3.5,1.57031-3.5,3.5v2.5h-2V27l0.91992,3.5h9.16016l0.90283-3.37061L29.5,22.5h-8V20
	c0-1.37842,1.12158-2.5,2.5-2.5s2.5,1.12158,2.5,2.5v0.5H27.5z M28.5,23.5v3.43408L27.8125,29.5h-7.625L19.5,26.93408V23.5H28.5z
	 M24.5,27.5h-1v-2h1V27.5z M24,37.44092l7-3.5v1.11816l-7,3.5l-7-3.5v-1.11816L24,37.44092z M34,14.44092v1.11816l-10-5l-10,5
	v-1.11816l10-5L34,14.44092z"/>
<rect class="st1" width="48" height="48"/>
</svg>
