<?xml version="1.0" encoding="utf-8"?>
<!-- Generator: Adobe Illustrator 27.1.1, SVG Export Plug-In . SVG Version: 6.00 Build 0)  -->
<svg version="1.1" id="Art_3.0" xmlns="http://www.w3.org/2000/svg" xmlns:xlink="http://www.w3.org/1999/xlink" x="0px" y="0px"
	 viewBox="0 0 48 48" style="enable-background:new 0 0 48 48;" xml:space="preserve">
<style type="text/css">
	.st0{fill:#FFFFFF;}
	.st1{fill:#FFFFFF;fill-opacity:0;}
</style>
<path class="st0" d="M30.5,18.55078v-8.28906L14.90381,16.5H4.5v11h4.11816l2.72705,10h7.03662l-2.63477-9.6626l14.75293,5.90088
	v-8.28906c1.69165-0.24512,3-1.69043,3-3.44922S32.19164,18.7959,30.5,18.55078z M5.5,17.5h9v9h-9V17.5z M12.10889,36.5l-2.4541-9
	h4.96362l2.45386,9C17.07227,36.5,12.10889,36.5,12.10889,36.5z M29.5,32.26172l-14-5.6001v-9.32324l14-5.6001V32.26172z
	 M30.5,24.44922v-4.89844c1.13965,0.23193,2,1.2417,2,2.44922S31.63965,24.21729,30.5,24.44922z M43.5,22
	c0,3.64551-1.43799,7.05518-4.04932,9.60059l-0.69824-0.71631C41.16894,28.52881,42.5,25.37403,42.5,22
	c0-3.37354-1.33105-6.52881-3.74756-8.88428l0.69824-0.71631C42.06201,14.94482,43.5,18.35449,43.5,22z M35.95605,15.98584
	c1.63574,1.59424,2.53662,3.72998,2.53662,6.01416c0,2.28369-0.90088,4.41992-2.53662,6.01416l-0.69824-0.71582
	c1.44141-1.40479,2.23486-3.28662,2.23486-5.29834s-0.79346-3.89355-2.23486-5.29834L35.95605,15.98584z"/>
<rect class="st1" width="48" height="48"/>
</svg>
