<svg viewBox="0 0 48 48" fill="none" xmlns="http://www.w3.org/2000/svg">
<g clip-path="url(#clip0_24_51)">
<g clip-path="url(#clip1_24_51)">
<path d="M43.5 28.583C43.4977 27.1576 43.0279 25.7723 42.1627 24.6395C41.2974 23.5067 40.0846 22.6889 38.71 22.3115L32.2193 20.5415L26.3653 16.3057C25.5987 15.7483 24.6749 15.4489 23.7271 15.4507H23.7085L11.814 15.501L4.5 21.77V27.3945C4.49932 27.8882 4.64549 28.3709 4.91992 28.7813L6.73242 31.5H8.85107C9.1319 32.098 9.57717 32.6036 10.1348 32.9578C10.6924 33.3119 11.3394 33.5 12 33.5C12.6606 33.5 13.3076 33.3119 13.8652 32.9578C14.4228 32.6036 14.8681 32.098 15.1489 31.5H31.8511C32.1319 32.098 32.5772 32.6036 33.1348 32.9578C33.6924 33.3119 34.3394 33.5 35 33.5C35.6606 33.5 36.3076 33.3119 36.8652 32.9578C37.4228 32.6036 37.8681 32.098 38.1489 31.5H43.5V28.583ZM23.7124 16.4507C24.4542 16.4488 25.1776 16.6814 25.7793 17.1153L30.4563 20.5H26.5V18.5H25.5V20.5H20.7041L19.6238 16.4678L23.7124 16.4507ZM19.669 20.5H13.3838L12.3117 16.4986L18.5898 16.4722L19.669 20.5ZM12 32.5C11.5055 32.5 11.0222 32.3534 10.6111 32.0787C10.2 31.804 9.87952 31.4135 9.6903 30.9567C9.50108 30.4999 9.45158 29.9972 9.54804 29.5123C9.6445 29.0273 9.8826 28.5819 10.2322 28.2323C10.5819 27.8826 11.0273 27.6445 11.5123 27.5481C11.9972 27.4516 12.4999 27.5011 12.9567 27.6903C13.4135 27.8795 13.804 28.2 14.0787 28.6111C14.3534 29.0222 14.5 29.5056 14.5 30C14.4992 30.6628 14.2356 31.2983 13.7669 31.7669C13.2982 32.2356 12.6628 32.4992 12 32.5ZM12 26.5C11.0721 26.5011 10.1825 26.8703 9.52637 27.5264C8.87023 28.1825 8.50112 29.0721 8.5 30C8.50464 30.1677 8.52153 30.3348 8.55054 30.5H7.26754L5.752 28.2266C5.58732 27.9804 5.49962 27.6908 5.50005 27.3946V24.5H7.50005V23.5H5.50005V22.23L11.4463 17.1333L12.6162 21.5H19.937L21.5447 27.5H17.5V28.5H21.8125L22.3484 30.5H15.4495C15.4785 30.3348 15.4954 30.1677 15.5 30C15.4989 29.0721 15.1298 28.1825 14.4736 27.5264C13.8175 26.8703 12.9279 26.5011 12 26.5ZM35 32.5C34.5055 32.5 34.0222 32.3534 33.6111 32.0787C33.2 31.804 32.8795 31.4135 32.6903 30.9567C32.5011 30.4999 32.4516 29.9972 32.548 29.5123C32.6445 29.0273 32.8826 28.5819 33.2322 28.2323C33.5819 27.8826 34.0273 27.6445 34.5123 27.5481C34.9972 27.4516 35.4999 27.5011 35.9567 27.6903C36.4135 27.8795 36.804 28.2 37.0787 28.6111C37.3534 29.0222 37.5 29.5056 37.5 30C37.4992 30.6628 37.2356 31.2983 36.7669 31.7669C36.2982 32.2356 35.6628 32.4992 35 32.5ZM42.5 30.5H38.4495C38.4785 30.3348 38.4954 30.1677 38.5 30C38.5 29.0718 38.1313 28.1815 37.4749 27.5251C36.8185 26.8688 35.9283 26.5 35 26.5C34.0717 26.5 33.1815 26.8688 32.5251 27.5251C31.8688 28.1815 31.5 29.0718 31.5 30C31.5046 30.1677 31.5215 30.3348 31.5505 30.5H23.3835L22.8477 28.5H29.5V27.5H22.5798L20.9722 21.5H32V21.4864L38.4473 23.2764C39.708 23.6256 40.8022 24.4144 41.5321 25.5H39.5V26.5H42.0704C42.3492 27.1594 42.4952 27.8672 42.5 28.583V30.5Z" fill="currentColor"/>
</g>
</g>
<defs>
<clipPath id="clip0_24_51">
<rect width="48" height="48" fill="currentColor"/>
</clipPath>
<clipPath id="clip1_24_51">
<rect width="48" height="48" fill="currentColor"/>
</clipPath>
</defs>
</svg>