<svg viewBox="0 0 48 48" fill="none" xmlns="http://www.w3.org/2000/svg">
<g clip-path="url(#clip0_141_2077)">
<path d="M34.657 11.745L34.294 11.401L34.982 10.675L35.345 11.019C36.9546 12.5328 38.2404 14.3573 39.1248 16.3823C40.0091 18.4072 40.4735 20.5905 40.49 22.8L42 21.293V22.707L40 24.707L38 22.707V21.293L39.489 22.782C39.4696 20.7115 39.0315 18.6664 38.2011 16.7696C37.3707 14.8729 36.1651 13.1637 34.657 11.745ZM8.5 24.007C8.55267 20.0494 10.1256 16.2637 12.893 13.434V15.541L13.893 14.541V11.712H11.065L10.065 12.712H12.2C9.23951 15.7271 7.55601 19.7678 7.5 23.993L7.493 24.493L8.493 24.507L8.5 24.007ZM30.537 38.726C28.6259 39.5228 26.5733 39.9248 24.5028 39.9076C22.4323 39.8904 20.3866 39.4544 18.489 38.626L20.456 37.875L19.166 37.297L16.523 38.306L17.531 40.948L18.823 41.526L18.061 39.526C20.0841 40.4171 22.2673 40.8871 24.4779 40.9074C26.6884 40.9276 28.8799 40.4978 30.919 39.644L31.381 39.453L31 38.535L30.537 38.726ZM42.5 35.5H37.527L37.86 36.5H39V37.5H33V36.5H34.14L34.473 35.5H29.5V26.5H42.5V35.5ZM36.473 35.5H35.527L35.194 36.5H36.806L36.473 35.5ZM41.5 27.5H30.5V34.5H41.5V27.5ZM13.86 36.5H15V37.5H9V36.5H10.14L10.473 35.5H5.5V26.5H18.5V35.5H13.527L13.86 36.5ZM6.5 34.5H17.5V27.5H6.5V34.5ZM12.806 36.5L12.473 35.5H11.527L11.194 36.5H12.806ZM22.473 14.5H17.5V5.5H30.5V14.5H25.527L25.86 15.5H27V16.5H21V15.5H22.14L22.473 14.5ZM24.473 14.5H23.527L23.194 15.5H24.806L24.473 14.5ZM18.5 13.5H29.5V6.5H18.5V13.5Z" fill="currentColor"/>
</g>
<defs>
<clipPath id="clip0_141_2077">
<rect width="48" height="48" fill="currentColor"/>
</clipPath>
</defs>
</svg>