<svg viewBox="0 0 48 48" fill="none" xmlns="http://www.w3.org/2000/svg">
<g clip-path="url(#clip0_24_253)">
<g clip-path="url(#clip1_24_253)">
<path d="M24.0014 7.5C20.6879 7.50371 17.5111 8.82165 15.1681 11.1647C12.8251 13.5077 11.5071 16.6845 11.5034 19.998C11.5034 26.7382 23.1343 39.7817 23.6294 40.3339L24.0015 40.7489L24.3736 40.3339C24.8687 39.7817 36.4996 26.7382 36.4996 19.998C36.4959 16.6844 35.1779 13.5077 32.8348 11.1646C30.4918 8.82159 27.315 7.50367 24.0014 7.5ZM24.0014 39.2422C21.9877 36.9258 12.5034 25.7114 12.5034 19.9981C12.5034 16.9486 13.7148 14.024 15.8711 11.8677C18.0274 9.7114 20.952 8.5 24.0015 8.5C27.0509 8.5 29.9755 9.7114 32.1318 11.8677C34.2881 14.024 35.4995 16.9486 35.4995 19.9981C35.4995 25.7114 26.0151 36.9258 24.0014 39.2422ZM24.0014 12.4995C22.5183 12.4995 21.0686 12.9393 19.8355 13.7632C18.6023 14.5872 17.6412 15.7583 17.0737 17.1285C16.5061 18.4987 16.3576 20.0064 16.647 21.4609C16.9363 22.9155 17.6505 24.2516 18.6992 25.3003C19.7478 26.349 21.084 27.0632 22.5385 27.3525C23.9931 27.6418 25.5008 27.4933 26.871 26.9258C28.2412 26.3583 29.4123 25.3971 30.2362 24.164C31.0602 22.9309 31.5 21.4811 31.5 19.9981C31.4977 18.01 30.707 16.104 29.3012 14.6983C27.8955 13.2925 25.9895 12.5017 24.0014 12.4995ZM24.0014 26.4966C22.7161 26.4966 21.4597 26.1154 20.391 25.4014C19.3223 24.6873 18.4894 23.6724 17.9975 22.4849C17.5057 21.2975 17.377 19.9908 17.6277 18.7302C17.8785 17.4696 18.4974 16.3117 19.4063 15.4029C20.3151 14.494 21.473 13.8751 22.7336 13.6244C23.9942 13.3736 25.3009 13.5023 26.4883 13.9942C27.6758 14.486 28.6907 15.319 29.4048 16.3877C30.1188 17.4563 30.5 18.7128 30.5 19.9981C30.498 21.721 29.8127 23.3727 28.5944 24.591C27.3761 25.8093 25.7243 26.4946 24.0014 26.4966Z" fill="currentColor"/>
</g>
</g>
<defs>
<clipPath id="clip0_24_253">
<rect width="48" height="48" fill="currentColor"/>
</clipPath>
<clipPath id="clip1_24_253">
<rect width="48" height="48" fill="currentColor"/>
</clipPath>
</defs>
</svg>