<svg viewBox="0 0 48 48" fill="none" xmlns="http://www.w3.org/2000/svg">
<g clip-path="url(#clip0_141_2079)">
<path d="M7.5 9.5V38.5H40.5V9.5H7.5ZM39.5 37.5H8.5V14.495H39.5V37.5ZM39.5 13.495H8.5V10.5H39.5V13.495ZM36 20.495H17V19.495H36V20.495ZM36 26.495H17V25.495H36V26.495ZM36 32.495H17V31.495H36V32.495ZM12 27.495H15V24.495H12V27.495ZM13 25.495H14V26.495H13V25.495ZM12 33.495H15V30.495H12V33.495ZM13 31.495H14V32.495H13V31.495ZM13.5 21.702L11.793 20L12.5 19.293L13.5 20.293L15.5 18.293L16.207 19L13.5 21.702ZM32.475 12.5H30.475V11.5H32.475V12.5ZM35.502 12.5H33.502V11.5H35.502V12.5ZM38.511 12.5H36.511V11.5H38.511V12.5Z" fill="currentColor"/>
</g>
<defs>
<clipPath id="clip0_141_2079">
<rect width="48" height="48" fill="currentColor"/>
</clipPath>
</defs>
</svg>