<svg width="48" height="48" viewBox="0 0 48 48" fill="none" xmlns="http://www.w3.org/2000/svg">
<g clip-path="url(#clip0_2838_870)">
<path d="M19.5 11C19.5 10.463 19.0512 9.84249 18.0186 9.32617C17.0158 8.82489 15.5959 8.5 14 8.5C12.4041 8.5 10.9842 8.82489 9.98145 9.32617C8.94881 9.84249 8.5 10.463 8.5 11C8.5 11.537 8.94881 12.1575 9.98145 12.6738C10.9842 13.1751 12.4041 13.5 14 13.5C15.5959 13.5 17.0158 13.1751 18.0186 12.6738C19.0512 12.1575 19.5 11.537 19.5 11ZM20.5 11C20.5 12.1198 19.6048 12.9989 18.4658 13.5684C17.297 14.1527 15.7175 14.5 14 14.5C12.2825 14.5 10.703 14.1527 9.53418 13.5684C8.39524 12.9989 7.5 12.1198 7.5 11C7.5 9.88016 8.39524 9.00111 9.53418 8.43164C10.703 7.8473 12.2825 7.5 14 7.5C15.7175 7.5 17.297 7.8473 18.4658 8.43164C19.6048 9.00111 20.5 9.88016 20.5 11Z" fill="black"/>
<path d="M8.5 15C8.5 15.537 8.94881 16.1575 9.98145 16.6738C10.9842 17.1751 12.4041 17.5 14 17.5C15.5959 17.5 17.0158 17.1751 18.0186 16.6738C19.0512 16.1575 19.5 15.537 19.5 15H20.5C20.5 16.1198 19.6048 16.9989 18.4658 17.5684C17.297 18.1527 15.7175 18.5 14 18.5C12.2825 18.5 10.703 18.1527 9.53418 17.5684C8.39524 16.9989 7.5 16.1198 7.5 15H8.5Z" fill="black"/>
<path d="M8.5 19C8.5 19.537 8.94881 20.1575 9.98145 20.6738C10.9842 21.1751 12.4041 21.5 14 21.5C15.5959 21.5 17.0158 21.1751 18.0186 20.6738C19.0512 20.1575 19.5 19.537 19.5 19H20.5C20.5 20.1198 19.6048 20.9989 18.4658 21.5684C17.297 22.1527 15.7175 22.5 14 22.5C12.2825 22.5 10.703 22.1527 9.53418 21.5684C8.39524 20.9989 7.5 20.1198 7.5 19H8.5Z" fill="black"/>
<path d="M7.5 23V11H8.5V23C8.5 23.537 8.94881 24.1575 9.98145 24.6738C10.9842 25.1751 12.4041 25.5 14 25.5C15.5959 25.5 17.0158 25.1751 18.0186 24.6738C19.0512 24.1575 19.5 23.537 19.5 23V11H20.5V23C20.5 24.1198 19.6048 24.9989 18.4658 25.5684C17.297 26.1527 15.7175 26.5 14 26.5C12.2825 26.5 10.703 26.1527 9.53418 25.5684C8.39524 24.9989 7.5 24.1198 7.5 23Z" fill="black"/>
<path d="M34.5 7.5V19H33.5V8.5H23V7.5H34.5Z" fill="black"/>
<path d="M14.5 29V39.5H24V40.5H13.5V29H14.5Z" fill="black"/>
<path d="M16 30.293V31.707L14 29.707L12 31.707V30.293L14 28.293L16 30.293Z" fill="black"/>
<path d="M36 17.707L34 19.707L32 17.707V16.293L34 18.293L36 16.293V17.707Z" fill="black"/>
<path d="M40.4795 30.5L40.5 35.998V36.0605L40.4854 36.1211L39.3906 40.5H28.6094L27.5146 36.1211L27.5 36.0605V35.998L27.5205 30.5H40.4795ZM28.5 35.9375L29.3906 39.5H38.6094L39.499 35.9375L39.4834 31.5H28.5166L28.5 35.9375Z" fill="black"/>
<path d="M33.5 33.5H34.5V37.5H33.5V33.5Z" fill="black"/>
<path d="M37.5 28C37.5 26.067 35.933 24.5 34 24.5C32.067 24.5 30.5 26.067 30.5 28V31H29.5V28C29.5 25.5147 31.5147 23.5 34 23.5C36.4853 23.5 38.5 25.5147 38.5 28V31H37.5V28Z" fill="black"/>
</g>
<defs>
<clipPath id="clip0_2838_870">
<rect width="48" height="48" fill="white"/>
</clipPath>
</defs>
</svg>
