<svg viewBox="0 0 48 48" fill="none" xmlns="http://www.w3.org/2000/svg">
<g clip-path="url(#clip0_24_329)">
<g clip-path="url(#clip1_24_329)">
<path d="M24 43.5C20.34 43.5 16.8299 42.0461 14.2419 39.4581C11.6539 36.8701 10.2 33.36 10.2 29.7C10.2 26.04 11.6539 22.5299 14.2419 19.9419C16.8299 17.3539 20.34 15.9 24 15.9V16.9H23.9941C22.1111 16.9008 20.3055 17.6496 18.9745 18.9816C17.6436 20.3137 16.8963 22.1199 16.8971 24.0029C16.8978 25.886 17.6466 27.6916 18.9787 29.0225C20.3107 30.3535 22.117 31.1008 24 31.1C27.3948 31.1 30.6505 29.7514 33.051 27.351C35.4514 24.9505 36.8 21.6948 36.8 18.3C36.8 14.9052 35.4514 11.6495 33.051 9.24903C30.6505 6.84857 27.3948 5.5 24 5.5V4.5C29.1717 4.5 34.1316 6.55446 37.7886 10.2114C41.4455 13.8684 43.5 18.8283 43.5 24C43.5 29.1717 41.4455 34.1316 37.7886 37.7886C34.1316 41.4455 29.1717 43.5 24 43.5ZM18.3198 18.2307C15.7321 19.5121 13.6537 21.6308 12.4223 24.2426C11.191 26.8545 10.8789 29.806 11.537 32.6176C12.195 35.4292 13.7845 37.9356 16.0471 39.7297C18.3097 41.5238 21.1124 42.5001 24 42.5C28.099 42.5005 32.082 41.1395 35.3236 38.6308C38.5651 36.122 40.8816 32.6077 41.9093 28.6396C42.9369 24.6715 42.6174 20.4745 41.001 16.7077C39.3847 12.9409 36.5629 9.81768 32.979 7.82849C35.1203 9.66262 36.6482 12.1088 37.3569 14.8377C38.0656 17.5667 37.9211 20.4472 36.9429 23.0915C35.9647 25.7358 34.1997 28.0168 31.8856 29.6275C29.5715 31.2381 26.8194 32.101 24 32.1C22.3926 32.1008 20.8213 31.623 19.4863 30.7277C18.1513 29.8323 17.1131 28.5598 16.5039 27.0722C15.8947 25.5847 15.742 23.9495 16.0654 22.375C16.3888 20.8004 17.1736 19.3577 18.3198 18.2307V18.2307ZM24 43.5C18.8283 43.5 13.8684 41.4455 10.2114 37.7886C6.55446 34.1316 4.5 29.1717 4.5 24C4.5 18.8283 6.55446 13.8684 10.2114 10.2114C13.8684 6.55446 18.8283 4.5 24 4.5C27.66 4.5 31.1701 5.95392 33.7581 8.54193C36.3461 11.1299 37.8 14.64 37.8 18.3C37.8 21.96 36.3461 25.4701 33.7581 28.0581C31.1701 30.6461 27.66 32.1 24 32.1V31.1H24.0059C25.8889 31.0992 27.6945 30.3504 29.0255 29.0184C30.3564 27.6863 31.1037 25.8801 31.1029 23.9971C31.1022 22.114 30.3534 20.3084 29.0213 18.9775C27.6893 17.6465 25.883 16.8992 24 16.9C20.6052 16.9 17.3495 18.2486 14.949 20.649C12.5486 23.0495 11.2 26.3052 11.2 29.7C11.2 33.0948 12.5486 36.3505 14.949 38.751C17.3495 41.1514 20.6052 42.5 24 42.5V43.5ZM24 5.5C19.901 5.49952 15.918 6.86052 12.6764 9.36925C9.43486 11.878 7.11836 15.3923 6.09074 19.3604C5.06312 23.3285 5.38258 27.5255 6.99895 31.2923C8.61533 35.0591 11.4371 38.1823 15.021 40.1715C12.8797 38.3374 11.3518 35.8912 10.6431 33.1623C9.93439 30.4333 10.0789 27.5528 11.0571 24.9085C12.0353 22.2642 13.8003 19.9832 16.1144 18.3725C18.4285 16.7619 21.1806 15.899 24 15.9C25.6074 15.8992 27.1787 16.377 28.5137 17.2723C29.8487 18.1677 30.8869 19.4402 31.4961 20.9278C32.1053 22.4153 32.258 24.0505 31.9346 25.625C31.6112 27.1996 30.8264 28.6423 29.6802 29.7693C32.2679 28.4879 34.3463 26.3692 35.5776 23.7573C36.809 21.1455 37.121 18.194 36.463 15.3824C35.8049 12.5708 34.2155 10.0644 31.9529 8.27028C29.6903 6.47618 26.8876 5.49988 24 5.5Z" fill="currentColor"/>
</g>
</g>
<defs>
<clipPath id="clip0_24_329">
<rect width="48" height="48" fill="currentColor"/>
</clipPath>
<clipPath id="clip1_24_329">
<rect width="48" height="48" fill="currentColor"/>
</clipPath>
</defs>
</svg>