<svg viewBox="0 0 48 48" fill="none" xmlns="http://www.w3.org/2000/svg">
<g clip-path="url(#clip0_141_2060)">
<path d="M42.0941 30.042L41.5281 31.342L39.5071 32.134L39.4881 32.174L39.4511 32.156L38.8951 32.374L38.6551 31.764L38.5911 31.732L38.6201 31.673L37.8631 29.741L38.4291 28.441L39.1911 30.385C40.0789 28.2991 40.5243 26.0516 40.4991 23.7847C40.474 21.5178 39.9789 19.2808 39.0451 17.215L38.8391 16.76L39.7511 16.348L39.9571 16.804C40.9518 19.0045 41.477 21.3881 41.4994 23.8028C41.5218 26.2176 41.0408 28.6105 40.0871 30.829L42.0941 30.042ZM9.34011 20.4L9.83111 19.073L8.64911 16.5L6.07911 17.682L5.58911 19.008L7.52611 18.117C5.99607 22.3833 6.18324 27.0771 8.04811 31.208L8.25411 31.663L9.16511 31.251L8.95911 30.795C7.20549 26.9093 7.02627 22.4951 8.45911 18.48L9.34011 20.4ZM9.50011 32.117L15.9721 36L9.50011 39.883V32.117ZM10.5001 38.117L14.0281 36L10.5001 33.883V38.117ZM36.0001 32.293L39.7071 36L36.0001 39.707L32.2931 36L36.0001 32.293ZM38.2931 36L36.0001 33.707L33.7071 36L36.0001 38.293L38.2931 36ZM32.5001 12C32.5001 11.3078 32.7054 10.6311 33.09 10.0555C33.4746 9.47996 34.0212 9.03136 34.6607 8.76645C35.3003 8.50154 36.004 8.43223 36.6829 8.56728C37.3619 8.70233 37.9855 9.03567 38.475 9.52515C38.9645 10.0146 39.2978 10.6383 39.4329 11.3172C39.5679 11.9961 39.4986 12.6999 39.2337 13.3394C38.9688 13.979 38.5202 14.5256 37.9446 14.9102C37.369 15.2948 36.6923 15.5 36.0001 15.5C35.0719 15.5 34.1816 15.1313 33.5252 14.4749C32.8689 13.8185 32.5001 12.9283 32.5001 12ZM33.5001 12C33.5001 12.4945 33.6467 12.9778 33.9214 13.389C34.1961 13.8001 34.5866 14.1205 35.0434 14.3097C35.5002 14.4989 36.0029 14.5485 36.4878 14.452C36.9728 14.3555 37.4182 14.1174 37.7679 13.7678C38.1175 13.4182 38.3556 12.9727 38.4521 12.4878C38.5485 12.0028 38.499 11.5001 38.3098 11.0433C38.1206 10.5865 37.8002 10.1961 37.389 9.92135C36.9779 9.64665 36.4946 9.50003 36.0001 9.50003C35.3371 9.50003 34.7012 9.76342 34.2323 10.2323C33.7635 10.7011 33.5001 11.337 33.5001 12ZM9.48111 15.5L8.48111 12L9.42011 8.50003H14.5201L15.5201 12L14.5811 15.5H9.48111ZM9.51911 12L10.2351 14.5H13.8131L14.4811 12L13.7651 9.50003H10.1881L9.51911 12ZM34.5001 30.5H26.0271L26.3601 31.5H27.5001V32.5H20.5001V31.5H21.6401L21.9731 30.5H13.5001V17.5H34.5001V30.5ZM24.9731 30.5H23.0271L22.6941 31.5H25.3061L24.9731 30.5ZM33.5001 18.5H14.5001V29.5H33.5001V18.5ZM17.2061 8.95903C19.2606 8.04187 21.48 7.55174 23.7297 7.51839C25.9794 7.48504 28.2123 7.90917 30.2931 8.76503L28.3461 9.54203L29.6461 10.1L32.2721 9.05103L31.2231 6.42403L29.9231 5.86603L30.7231 7.85903C28.5109 6.94254 26.135 6.48663 23.7406 6.51912C21.3463 6.55162 18.9837 7.07184 16.7971 8.04803L16.3421 8.25403L16.7541 9.16503L17.2061 8.95903ZM31.4151 38.744C29.381 39.7683 27.1564 40.359 24.8821 40.4786C22.6078 40.5982 20.3334 40.2442 18.2031 39.439L20.1321 38.594L18.8141 38.079L16.2241 39.214L17.3591 41.805L18.6771 42.319L17.8201 40.363C19.6608 41.0643 21.607 41.4488 23.5761 41.5C23.7171 41.5 23.8571 41.505 23.9981 41.505C26.7298 41.5049 29.4238 40.8666 31.8651 39.641L32.3111 39.416L31.8611 38.524L31.4151 38.744Z" fill="currentColor"/>
</g>
<defs>
<clipPath id="clip0_141_2060">
<rect width="48" height="48" fill="currentColor"/>
</clipPath>
</defs>
</svg>