<?xml version="1.0" encoding="utf-8"?>
<!-- Generator: Adobe Illustrator 27.1.1, SVG Export Plug-In . SVG Version: 6.00 Build 0)  -->
<svg version="1.1" id="Artwork_Layer" xmlns="http://www.w3.org/2000/svg" xmlns:xlink="http://www.w3.org/1999/xlink" x="0px"
	 y="0px" viewBox="0 0 48 48" style="enable-background:new 0 0 48 48;" xml:space="preserve">
<style type="text/css">
	.st0{fill:#FFFFFF;}
</style>
<path class="st0" d="M24,42.5C13.79883,42.5,5.5,34.20093,5.5,24S13.79883,5.5,24,5.5S42.5,13.79907,42.5,24S34.20117,42.5,24,42.5z
	 M24,6.5C14.35059,6.5,6.5,14.35046,6.5,24S14.35059,41.5,24,41.5S41.5,33.64954,41.5,24S33.64941,6.5,24,6.5z M24,40.5
	c-9.09814,0-16.5-7.40186-16.5-16.5S14.90186,7.5,24,7.5S40.5,14.90186,40.5,24S33.09814,40.5,24,40.5z M24,8.5
	C15.45312,8.5,8.5,15.45325,8.5,24S15.45312,39.5,24,39.5S39.5,32.54675,39.5,24S32.54688,8.5,24,8.5z M27.68994,17.5h-6.0166
	l0.90918-5h6.0166L27.68994,17.5z M22.87158,16.5h3.9834l0.5459-3h-3.9834L22.87158,16.5z M24.41748,35.5h-6.0166l3.09082-17h6.0166
	L24.41748,35.5z M19.59912,34.5h3.9834l2.72754-15h-3.9834L19.59912,34.5z"/>
</svg>
