<svg viewBox="0 0 48 48" fill="none" xmlns="http://www.w3.org/2000/svg">
<g clip-path="url(#clip0_144_2679)">
<path d="M9.5 39.5H38.5V30.5H9.5V39.5ZM10.5 31.5H37.5V38.5H10.5V31.5ZM14 33.5C13.7033 33.5 13.4133 33.588 13.1666 33.7528C12.92 33.9176 12.7277 34.1519 12.6142 34.426C12.5006 34.7001 12.4709 35.0017 12.5288 35.2926C12.5867 35.5836 12.7296 35.8509 12.9393 36.0607C13.1491 36.2704 13.4164 36.4133 13.7074 36.4712C13.9983 36.5291 14.2999 36.4993 14.574 36.3858C14.8481 36.2723 15.0824 36.08 15.2472 35.8334C15.412 35.5867 15.5 35.2967 15.5 35C15.5 34.6022 15.342 34.2206 15.0607 33.9393C14.7794 33.658 14.3978 33.5 14 33.5ZM14 35.5C13.9011 35.5 13.8044 35.4707 13.7222 35.4157C13.64 35.3608 13.5759 35.2827 13.5381 35.1913C13.5002 35.1 13.4903 34.9994 13.5096 34.9025C13.5289 34.8055 13.5765 34.7164 13.6464 34.6464C13.7164 34.5765 13.8055 34.5289 13.9025 34.5096C13.9994 34.4903 14.1 34.5002 14.1913 34.5381C14.2827 34.5759 14.3608 34.64 14.4157 34.7222C14.4707 34.8044 14.5 34.9011 14.5 35C14.5 35.1326 14.4473 35.2598 14.3536 35.3536C14.2598 35.4473 14.1326 35.5 14 35.5ZM16.5 34.5H21.5V35.5H16.5V34.5ZM9.5 28.5H38.5V19.5H9.5V28.5ZM10.5 20.5H37.5V27.5H10.5V20.5ZM14 22.5C13.7033 22.5 13.4133 22.588 13.1666 22.7528C12.92 22.9176 12.7277 23.1519 12.6142 23.426C12.5006 23.7001 12.4709 24.0017 12.5288 24.2926C12.5867 24.5836 12.7296 24.8509 12.9393 25.0607C13.1491 25.2704 13.4164 25.4133 13.7074 25.4712C13.9983 25.5291 14.2999 25.4993 14.574 25.3858C14.8481 25.2723 15.0824 25.08 15.2472 24.8334C15.412 24.5867 15.5 24.2967 15.5 24C15.5 23.6022 15.342 23.2206 15.0607 22.9393C14.7794 22.658 14.3978 22.5 14 22.5ZM14 24.5C13.9011 24.5 13.8044 24.4707 13.7222 24.4157C13.64 24.3608 13.5759 24.2827 13.5381 24.1913C13.5002 24.1 13.4903 23.9994 13.5096 23.9025C13.5289 23.8055 13.5765 23.7164 13.6464 23.6464C13.7164 23.5765 13.8055 23.5289 13.9025 23.5096C13.9994 23.4903 14.1 23.5002 14.1913 23.5381C14.2827 23.5759 14.3608 23.64 14.4157 23.7222C14.4707 23.8044 14.5 23.9011 14.5 24C14.5 24.1326 14.4473 24.2598 14.3536 24.3536C14.2598 24.4473 14.1326 24.5 14 24.5ZM16.5 23.5H21.5V24.5H16.5V23.5ZM9.5 8.5V17.5H38.5V8.5H9.5ZM37.5 16.5H10.5V9.5H37.5V16.5ZM14 14.5C14.2967 14.5 14.5867 14.412 14.8334 14.2472C15.08 14.0824 15.2723 13.8481 15.3858 13.574C15.4994 13.2999 15.5291 12.9983 15.4712 12.7074C15.4133 12.4164 15.2704 12.1491 15.0607 11.9393C14.8509 11.7296 14.5836 11.5867 14.2926 11.5288C14.0017 11.4709 13.7001 11.5006 13.426 11.6142C13.1519 11.7277 12.9176 11.92 12.7528 12.1666C12.588 12.4133 12.5 12.7033 12.5 13C12.5 13.3978 12.658 13.7794 12.9393 14.0607C13.2206 14.342 13.6022 14.5 14 14.5ZM14 12.5C14.0989 12.5 14.1956 12.5293 14.2778 12.5843C14.36 12.6392 14.4241 12.7173 14.4619 12.8087C14.4998 12.9 14.5097 13.0006 14.4904 13.0975C14.4711 13.1945 14.4235 13.2836 14.3536 13.3536C14.2836 13.4235 14.1945 13.4711 14.0975 13.4904C14.0006 13.5097 13.9 13.4998 13.8087 13.4619C13.7173 13.4241 13.6392 13.36 13.5843 13.2778C13.5293 13.1956 13.5 13.0989 13.5 13C13.5 12.8674 13.5527 12.7402 13.6464 12.6464C13.7402 12.5527 13.8674 12.5 14 12.5ZM21.5 13.5H16.5V12.5H21.5V13.5Z" fill="currentColor"/>
</g>
<defs>
<clipPath id="clip0_144_2679">
<rect width="48" height="48" fill="currentColor"/>
</clipPath>
</defs>
</svg>