<svg viewBox="0 0 48 48" fill="none" xmlns="http://www.w3.org/2000/svg">
<g clip-path="url(#clip0_24_8)">
<g clip-path="url(#clip1_24_8)">
<path d="M19 19.5001C19.2967 19.5001 19.5867 19.4121 19.8334 19.2473C20.08 19.0825 20.2723 18.8482 20.3858 18.5741C20.4994 18.3001 20.5291 17.9985 20.4712 17.7075C20.4133 17.4165 20.2704 17.1492 20.0607 16.9395C19.8509 16.7297 19.5836 16.5868 19.2926 16.5289C19.0017 16.4711 18.7001 16.5008 18.426 16.6143C18.1519 16.7278 17.9176 16.9201 17.7528 17.1668C17.588 17.4134 17.5 17.7034 17.5 18.0001C17.5004 18.3978 17.6586 18.7791 17.9398 19.0603C18.221 19.3415 18.6023 19.4997 19 19.5001ZM19 17.5001C19.0989 17.5001 19.1956 17.5294 19.2778 17.5844C19.36 17.6393 19.4241 17.7174 19.4619 17.8088C19.4998 17.9001 19.5097 18.0007 19.4904 18.0977C19.4711 18.1947 19.4235 18.2837 19.3536 18.3537C19.2836 18.4236 19.1945 18.4712 19.0975 18.4905C19.0006 18.5098 18.9 18.4999 18.8087 18.4621C18.7173 18.4242 18.6392 18.3601 18.5843 18.2779C18.5293 18.1957 18.5 18.099 18.5 18.0001C18.5001 17.8675 18.5528 17.7404 18.6465 17.6467C18.7403 17.5529 18.8674 17.5002 19 17.5001ZM26.5 18.5001H21.5V17.5001H26.5V18.5001ZM19 25.5001C19.2967 25.5001 19.5867 25.4121 19.8334 25.2473C20.08 25.0825 20.2723 24.8482 20.3858 24.5741C20.4994 24.3001 20.5291 23.9985 20.4712 23.7075C20.4133 23.4165 20.2704 23.1492 20.0607 22.9395C19.8509 22.7297 19.5836 22.5868 19.2926 22.5289C19.0017 22.4711 18.7001 22.5008 18.426 22.6143C18.1519 22.7278 17.9176 22.9201 17.7528 23.1668C17.588 23.4134 17.5 23.7034 17.5 24.0001C17.5004 24.3978 17.6586 24.7791 17.9398 25.0603C18.221 25.3415 18.6023 25.4997 19 25.5001ZM19 23.5001C19.0989 23.5001 19.1956 23.5294 19.2778 23.5844C19.36 23.6393 19.4241 23.7174 19.4619 23.8088C19.4998 23.9001 19.5097 24.0007 19.4904 24.0977C19.4711 24.1947 19.4235 24.2837 19.3536 24.3537C19.2836 24.4236 19.1945 24.4712 19.0975 24.4905C19.0006 24.5098 18.9 24.4999 18.8087 24.4621C18.7173 24.4242 18.6392 24.3601 18.5843 24.2779C18.5293 24.1957 18.5 24.099 18.5 24.0001C18.5001 23.8675 18.5528 23.7404 18.6465 23.6467C18.7403 23.5529 18.8674 23.5002 19 23.5001ZM26.5 24.5001H21.5V23.5001H26.5V24.5001ZM19 28.5001C18.7033 28.5001 18.4133 28.5881 18.1666 28.7529C17.92 28.9177 17.7277 29.152 17.6142 29.4261C17.5007 29.7002 17.4709 30.0018 17.5288 30.2928C17.5867 30.5837 17.7296 30.851 17.9393 31.0608C18.1491 31.2706 18.4164 31.4134 18.7074 31.4713C18.9983 31.5292 19.2999 31.4995 19.574 31.3859C19.8481 31.2724 20.0824 31.0801 20.2472 30.8335C20.412 30.5868 20.5 30.2968 20.5 30.0001C20.4996 29.6024 20.3414 29.2211 20.0602 28.9399C19.779 28.6587 19.3977 28.5006 19 28.5001ZM19 30.5001C18.9011 30.5001 18.8044 30.4708 18.7222 30.4159C18.64 30.3609 18.5759 30.2828 18.5381 30.1915C18.5002 30.1001 18.4903 29.9996 18.5096 29.9026C18.5289 29.8056 18.5765 29.7165 18.6464 29.6466C18.7164 29.5766 18.8055 29.529 18.9025 29.5097C18.9994 29.4904 19.1 29.5003 19.1913 29.5382C19.2827 29.576 19.3608 29.6401 19.4157 29.7223C19.4707 29.8046 19.5 29.9012 19.5 30.0001C19.4999 30.1327 19.4472 30.2598 19.3535 30.3536C19.2597 30.4473 19.1326 30.5 19 30.5001ZM26.5 29.5001V30.5001H21.5V29.5001H26.5ZM40 12.5001C40.2967 12.5001 40.5867 12.4121 40.8334 12.2473C41.08 12.0825 41.2723 11.8482 41.3858 11.5741C41.4994 11.3001 41.5291 10.9985 41.4712 10.7075C41.4133 10.4165 41.2704 10.1492 41.0607 9.93946C40.8509 9.72968 40.5836 9.58682 40.2926 9.52894C40.0017 9.47106 39.7001 9.50077 39.426 9.6143C39.1519 9.72783 38.9176 9.92009 38.7528 10.1668C38.588 10.4134 38.5 10.7034 38.5 11.0001C38.5004 11.3978 38.6586 11.7791 38.9398 12.0603C39.221 12.3415 39.6023 12.4997 40 12.5001ZM40 10.5001C40.0989 10.5001 40.1956 10.5294 40.2778 10.5844C40.36 10.6393 40.4241 10.7174 40.4619 10.8088C40.4998 10.9001 40.5097 11.0007 40.4904 11.0977C40.4711 11.1947 40.4235 11.2837 40.3536 11.3537C40.2836 11.4236 40.1945 11.4712 40.0975 11.4905C40.0006 11.5098 39.9 11.4999 39.8087 11.4621C39.7173 11.4242 39.6392 11.3601 39.5843 11.2779C39.5293 11.1957 39.5 11.099 39.5 11.0001C39.5001 10.8675 39.5528 10.7404 39.6465 10.6467C39.7403 10.5529 39.8674 10.5002 40 10.5001ZM8 35.5001C7.70333 35.5001 7.41332 35.5881 7.16665 35.7529C6.91997 35.9177 6.72771 36.152 6.61418 36.4261C6.50065 36.7002 6.47094 37.0018 6.52882 37.2928C6.5867 37.5837 6.72956 37.851 6.93934 38.0608C7.14912 38.2706 7.41639 38.4134 7.70737 38.4713C7.99834 38.5292 8.29994 38.4995 8.57403 38.3859C8.84811 38.2724 9.08238 38.0801 9.24721 37.8335C9.41203 37.5868 9.5 37.2968 9.5 37.0001C9.49957 36.6024 9.34139 36.2211 9.06018 35.9399C8.77897 35.6587 8.39769 35.5006 8 35.5001ZM8 37.5001C7.90111 37.5001 7.80444 37.4708 7.72222 37.4159C7.63999 37.3609 7.5759 37.2828 7.53806 37.1915C7.50022 37.1001 7.49032 36.9996 7.50961 36.9026C7.5289 36.8056 7.57652 36.7165 7.64645 36.6466C7.71637 36.5766 7.80547 36.529 7.90246 36.5097C7.99945 36.4904 8.09998 36.5003 8.19134 36.5382C8.28271 36.576 8.3608 36.6401 8.41574 36.7223C8.47068 36.8046 8.5 36.9012 8.5 37.0001C8.49991 37.1327 8.4472 37.2598 8.35345 37.3536C8.25971 37.4473 8.13258 37.5 8 37.5001ZM40.5734 37.0758C41.0356 35.1705 40.6514 32.6598 39.4407 29.7599C40.236 27.6595 40.59 25.4177 40.4806 23.1743C40.3712 20.931 39.8006 18.7343 38.8046 16.7213C39.2129 16.3102 39.4641 15.7688 39.5145 15.1916C39.5649 14.6143 39.4113 14.0376 39.0804 13.5619C38.7495 13.0862 38.2622 12.7416 37.7034 12.5881C37.1447 12.4346 36.5498 12.4819 36.0223 12.7218C33.8071 10.3401 30.9327 8.67221 27.7657 7.93092C24.5987 7.18963 21.2826 7.40853 18.2405 8.55969C15.3434 7.35022 12.8341 6.96448 10.9269 7.4259C10.8771 7.35881 10.8239 7.29427 10.7676 7.23254C10.2915 6.77772 9.65842 6.52393 9 6.52393C8.34158 6.52393 7.7085 6.77772 7.23242 7.23254C7.00022 7.46462 6.81603 7.74017 6.69036 8.04346C6.56469 8.34675 6.5 8.67183 6.5 9.00012C6.5 9.32841 6.56469 9.65349 6.69036 9.95678C6.81603 10.2601 7.00022 10.5356 7.23242 10.7677C7.29414 10.8241 7.35874 10.8772 7.42596 10.9269C6.96472 12.8312 7.34996 15.3424 8.55933 18.2409C7.76391 20.3411 7.40991 22.5828 7.51941 24.826C7.62892 27.0692 8.19959 29.2657 9.1958 31.2785C8.79662 31.6945 8.55388 32.236 8.50888 32.8108C8.46387 33.3857 8.61937 33.9583 8.94893 34.4314C9.27849 34.9045 9.76176 35.2489 10.3165 35.4059C10.8713 35.5629 11.4634 35.5229 11.992 35.2926C14.2079 37.6697 17.0812 39.3334 20.2458 40.0719C23.4105 40.8104 26.7234 40.5903 29.7625 39.4396C31.5359 40.2442 33.4486 40.6973 35.3945 40.7736C35.9585 40.7724 36.5204 40.7034 37.0679 40.5681C37.1192 40.6375 37.1741 40.7041 37.2324 40.7678C37.4644 41.0006 37.74 41.1854 38.0434 41.3116C38.3469 41.4378 38.6723 41.5029 39.0009 41.5033C39.3296 41.5036 39.6551 41.4391 39.9588 41.3134C40.2625 41.1878 40.5385 41.0035 40.7709 40.7711C41.0033 40.5387 41.1876 40.2627 41.3132 39.959C41.4388 39.6553 41.5033 39.3298 41.503 39.0012C41.5027 38.6725 41.4376 38.3471 41.3114 38.0437C41.1852 37.7402 41.0004 37.4646 40.7676 37.2326C40.7057 37.1769 40.6409 37.1245 40.5734 37.0758ZM29.776 38.3605C26.9778 37.0847 24.3571 35.4509 21.9797 33.5001H32.5V20.7809C34.8823 23.4772 36.8566 26.5081 38.3599 29.777C37.5792 31.7111 36.4168 33.4679 34.9419 34.9427C33.4671 36.4175 31.7101 37.5799 29.776 38.3605ZM18.224 9.63977C21.0222 10.9156 23.6429 12.5494 26.0204 14.5001H15.5V27.2189C13.1179 24.5228 11.1436 21.4922 9.64008 18.2238C10.4207 16.2896 11.5831 14.5326 13.058 13.0577C14.5328 11.5828 16.2898 10.4204 18.224 9.63977ZM31.5 20.5001H16.5V15.5001H31.5V20.5001ZM31.5 21.5001V26.5001H16.5V21.5001H31.5ZM16.5 27.5001H31.5V32.5001H16.5V27.5001ZM38.5 15.0001C38.5001 15.2969 38.4121 15.587 38.2473 15.8338C38.0825 16.0806 37.8481 16.273 37.574 16.3866C37.2998 16.5002 36.9981 16.53 36.707 16.4721C36.4159 16.4142 36.1485 16.2713 35.9387 16.0614C35.7288 15.8516 35.5859 15.5842 35.528 15.2931C35.4701 15.002 35.4999 14.7003 35.6135 14.4262C35.7271 14.152 35.9195 13.9177 36.1663 13.7528C36.4131 13.588 36.7032 13.5 37 13.5001C37.3977 13.5006 37.779 13.6587 38.0602 13.9399C38.3414 14.2211 38.4996 14.6024 38.5 15.0001ZM24 8.50012C26.0911 8.50432 28.1598 8.93125 30.0817 9.75524C32.0036 10.5792 33.7391 11.7833 35.1839 13.295C34.7909 13.7121 34.5535 14.2517 34.5116 14.8232C34.4696 15.3947 34.6258 15.9632 34.9537 16.4331C35.2816 16.903 35.7613 17.2457 36.3121 17.4036C36.863 17.5615 37.4514 17.5248 37.9784 17.2999C38.9794 19.3917 39.4993 21.6811 39.5 24.0001C39.4993 25.4999 39.2784 26.9914 38.8442 28.4269C37.165 25.0926 35.0297 22.0083 32.5 19.2628V14.5001H27.5876C25.1462 12.3959 22.4544 10.6011 19.5732 9.15637C21.0087 8.72186 22.5002 8.50074 24 8.50012ZM7.93945 7.93957C8.07872 7.8003 8.24407 7.68982 8.42604 7.61444C8.60801 7.53907 8.80304 7.50028 9 7.50028C9.19696 7.50028 9.392 7.53907 9.57397 7.61444C9.75594 7.68982 9.92128 7.8003 10.0606 7.93957C10.1998 8.07884 10.3103 8.24419 10.3857 8.42615C10.4611 8.60812 10.4998 8.80316 10.4998 9.00012C10.4998 9.19708 10.4611 9.39212 10.3857 9.57408C10.3103 9.75605 10.1998 9.9214 10.0606 10.0607C9.7749 10.3336 9.39505 10.4858 9 10.4858C8.60495 10.4858 8.2251 10.3336 7.93945 10.0607C7.80013 9.92142 7.68962 9.75609 7.61421 9.57412C7.53881 9.39214 7.5 9.1971 7.5 9.00012C7.5 8.80314 7.53881 8.6081 7.61421 8.42612C7.68962 8.24415 7.80013 8.07882 7.93945 7.93957ZM8.33606 11.4C8.76136 11.5252 9.21254 11.5335 9.64216 11.4241C10.0718 11.3146 10.464 11.0914 10.7775 10.7779C11.091 10.4644 11.3142 10.0723 11.4238 9.64265C11.5333 9.21304 11.525 8.76186 11.3998 8.33655C13.2758 8.10448 15.1798 8.37162 16.9194 9.11096C13.4992 10.7429 10.7427 13.4993 9.11084 16.9195C8.37148 15.1799 8.10422 13.276 8.33606 11.4ZM9.5 33.0001C9.5 32.7034 9.58797 32.4134 9.7528 32.1668C9.91762 31.9201 10.1519 31.7278 10.426 31.6143C10.7001 31.5008 11.0017 31.4711 11.2926 31.5289C11.5836 31.5868 11.8509 31.7297 12.0607 31.9395C12.2704 32.1492 12.4133 32.4165 12.4712 32.7075C12.5291 32.9985 12.4994 33.3001 12.3858 33.5741C12.2723 33.8482 12.08 34.0825 11.8334 34.2473C11.5867 34.4121 11.2967 34.5001 11 34.5001C10.6023 34.4997 10.221 34.3415 9.93982 34.0603C9.65861 33.7791 9.50043 33.3978 9.5 33.0001ZM24 39.5001C21.9091 39.4959 19.8407 39.0691 17.919 38.2453C15.9973 37.4214 14.2619 36.2176 12.8173 34.7061C13.2096 34.289 13.4466 33.7497 13.4886 33.1787C13.5305 32.6076 13.3747 32.0394 13.0475 31.5695C12.7202 31.0996 12.2414 30.7566 11.6912 30.5979C11.141 30.4391 10.553 30.4744 10.0257 30.6978C9.02411 28.6069 8.50283 26.3185 8.5 24.0001C8.50066 22.5005 8.72161 21.0092 9.15576 19.5739C10.8352 22.9079 12.9704 25.992 15.5 28.7374V33.5001H20.4126C22.854 35.6043 25.5457 37.3991 28.4268 38.8439C26.9913 39.2784 25.4998 39.4995 24 39.5001ZM31.0806 38.8898C34.5008 37.2577 37.2573 34.5011 38.8892 31.0807C39.6324 32.8259 39.8988 34.7373 39.6609 36.6193C39.2376 36.5031 38.7914 36.4985 38.3659 36.606C37.9403 36.7135 37.5498 36.9293 37.2324 37.2325C36.9155 37.5421 36.6892 37.9324 36.5779 38.3612C36.4666 38.79 36.4745 39.241 36.6008 39.6656C34.7245 39.8969 32.8204 39.6293 31.0806 38.8898ZM40.0606 40.0607C39.7749 40.3336 39.3951 40.4858 39 40.4858C38.605 40.4858 38.2251 40.3336 37.9395 40.0607C37.7297 39.8509 37.5868 39.5836 37.5289 39.2926C37.471 39.0017 37.5006 38.7001 37.6142 38.4259C37.7277 38.1518 37.92 37.9176 38.1666 37.7527C38.4133 37.5879 38.7033 37.4999 39 37.4999C39.2967 37.4999 39.5867 37.5879 39.8334 37.7527C40.0801 37.9176 40.2723 38.1518 40.3859 38.4259C40.4994 38.7001 40.5291 39.0017 40.4712 39.2926C40.4133 39.5836 40.2704 39.8509 40.0606 40.0607Z" fill="currentColor"/>
</g>
</g>
<defs>
<clipPath id="clip0_24_8">
<rect width="48" height="48" fill="currentColor"/>
</clipPath>
<clipPath id="clip1_24_8">
<rect width="48" height="48" fill="currentColor"/>
</clipPath>
</defs>
</svg>