<svg viewBox="0 0 48 48" fill="none" xmlns="http://www.w3.org/2000/svg">
<g clip-path="url(#clip0_144_3465)">
<path d="M24 30.5C22.7144 30.5 21.4577 30.1188 20.3888 29.4046C19.3199 28.6903 18.4868 27.6752 17.9948 26.4874C17.5028 25.2997 17.3741 23.9928 17.6249 22.7319C17.8757 21.471 18.4948 20.3128 19.4038 19.4038C20.3129 18.4948 21.471 17.8757 22.7319 17.6249C23.9928 17.3741 25.2997 17.5028 26.4874 17.9948C27.6752 18.4868 28.6903 19.3199 29.4046 20.3888C30.1188 21.4577 30.5 22.7144 30.5 24C30.4979 25.7233 29.8124 27.3753 28.5939 28.5939C27.3753 29.8124 25.7233 30.4979 24 30.5ZM24 18.5C22.9122 18.5 21.8488 18.8226 20.9444 19.4269C20.0399 20.0313 19.335 20.8902 18.9187 21.8952C18.5024 22.9002 18.3935 24.0061 18.6057 25.073C18.8179 26.1399 19.3417 27.1199 20.1109 27.8891C20.8801 28.6583 21.8601 29.1821 22.927 29.3943C23.9939 29.6065 25.0998 29.4976 26.1048 29.0813C27.1098 28.6651 27.9687 27.9601 28.5731 27.0556C29.1774 26.1512 29.5 25.0878 29.5 24C29.4984 22.5418 28.9184 21.1438 27.8873 20.1127C26.8562 19.0816 25.4582 18.5016 24 18.5ZM27.384 41.5H20.623L18.88 35.4C18.0747 35.0341 17.3105 34.5839 16.6 34.057L10.54 35.68L7.16001 29.825L11.575 25.261C11.4753 24.3815 11.4806 23.4932 11.591 22.615L7.15201 18.18L10.533 12.325L16.7 13.868C17.4177 13.3475 18.1887 12.9047 19 12.547L20.616 6.5H27.377L29.12 12.6C29.9253 12.9658 30.6896 13.416 31.4 13.943L37.46 12.32L40.84 18.175L36.425 22.739C36.5248 23.6185 36.5194 24.5068 36.409 25.385L40.844 29.82L37.463 35.675L31.3 34.132C30.5823 34.6525 29.8113 35.0953 29 35.453L27.384 41.5ZM21.377 40.5H26.616L28.165 34.721L28.393 34.627C29.2833 34.2547 30.1232 33.7719 30.893 33.19L31.083 33.047L36.983 34.522L39.603 29.984L35.363 25.745L35.396 25.501C35.535 24.5461 35.5411 23.5766 35.414 22.62L35.386 22.384L39.606 18.022L36.986 13.484L31.194 15.036L30.994 14.886C30.2308 14.2943 29.3958 13.8014 28.509 13.419L28.29 13.326L26.623 7.5H21.384L19.835 13.279L19.607 13.373C18.7168 13.7453 17.8768 14.2281 17.107 14.81L16.917 14.953L11.017 13.478L8.40001 18.016L12.64 22.255L12.607 22.499C12.468 23.4539 12.4619 24.4234 12.589 25.38L12.617 25.616L8.40001 29.978L11.02 34.516L16.812 32.964L17.012 33.114C17.7756 33.7057 18.6109 34.1986 19.498 34.581L19.717 34.675L21.377 40.5Z" fill="currentColor"/>
</g>
<defs>
<clipPath id="clip0_144_3465">
<rect width="48" height="48" fill="currentColor"/>
</clipPath>
</defs>
</svg>