<svg viewBox="0 0 48 48" fill="none" xmlns="http://www.w3.org/2000/svg">
<g clip-path="url(#clip0_141_2059)">
<path d="M20.293 39L24 42.707L27.707 39L24 35.293L20.293 39ZM24 41.293L21.707 39L24 36.707L26.293 39L24 41.293ZM8.49996 43L13.833 39L8.49996 35V43ZM9.49996 37L12.167 39L9.49996 41V37ZM27.5 26C27.5 25.3078 27.2947 24.6311 26.9101 24.0555C26.5255 23.4799 25.9789 23.0313 25.3393 22.7664C24.6998 22.5015 23.9961 22.4322 23.3171 22.5673C22.6382 22.7023 22.0146 23.0356 21.5251 23.5251C21.0356 24.0146 20.7023 24.6383 20.5672 25.3172C20.4322 25.9961 20.5015 26.6999 20.7664 27.3394C21.0313 27.9789 21.4799 28.5256 22.0555 28.9101C22.631 29.2947 23.3077 29.5 24 29.5C24.4596 29.5 24.9147 29.4095 25.3393 29.2336C25.764 29.0577 26.1498 28.7999 26.4748 28.4749C26.7998 28.1499 27.0576 27.764 27.2335 27.3394C27.4094 26.9148 27.5 26.4596 27.5 26ZM24 28.5C23.5055 28.5 23.0222 28.3534 22.611 28.0787C22.1999 27.804 21.8795 27.4135 21.6903 26.9567C21.501 26.4999 21.4515 25.9972 21.548 25.5123C21.6445 25.0273 21.8826 24.5819 22.2322 24.2322C22.5818 23.8826 23.0273 23.6445 23.5122 23.548C23.9972 23.4516 24.4998 23.5011 24.9567 23.6903C25.4135 23.8795 25.8039 24.2 26.0786 24.6111C26.3533 25.0222 26.5 25.5055 26.5 26C26.5 26.663 26.2366 27.2989 25.7677 27.7678C25.2989 28.2366 24.663 28.5 24 28.5ZM10.5 34.5V30.5H11.5V34.5H10.5ZM14.5 38.5H19.5V39.5H14.5V38.5ZM14.519 26L13.519 22.5H8.41996L7.48096 26L8.48096 29.5H13.581L14.519 26ZM12.813 28.5H9.23496L8.51896 26L9.18796 23.5H12.765L13.481 26L12.813 28.5ZM28.5 38.5H32.5V39.5H28.5V38.5ZM23.5 30.5H24.5V34.5H23.5V30.5ZM24.5 21.5H23.5V17.5H24.5V21.5ZM33.5 35.5V42.5H40.5V35.5H33.5ZM39.5 41.5H34.5V36.5H39.5V41.5ZM15.5 25.5H19.5V26.5H15.5V25.5ZM22.14 14.5H21V15.5H27V14.5H25.86L25.527 13.5H31.5V4.5H16.5V13.5H22.473L22.14 14.5ZM24.806 14.5H23.194L23.527 13.5H24.473L24.806 14.5ZM17.5 5.5H30.5V12.5H17.5V5.5ZM35.5 34.5V26.5H28.5V25.5H36.5V34.5H35.5ZM11.5 21.5H10.5V18.5H20.616L20.884 17.5H21.92L21.384 19.5H11.5V21.5ZM37.5 34.5V19.469H26.618L26.082 17.5H27.118L27.382 18.469H38.5V34.5H37.5Z" fill="currentColor"/>
</g>
<defs>
<clipPath id="clip0_141_2059">
<rect width="48" height="48" fill="currentColor"/>
</clipPath>
</defs>
</svg>