<svg viewBox="0 0 48 48" fill="none" xmlns="http://www.w3.org/2000/svg">
<g clip-path="url(#clip0_24_40)">
<g clip-path="url(#clip1_24_40)">
<path d="M12.5 20.499H13.5V23.499H12.5V20.499ZM21.5 20.499H20.5V23.499H21.5V20.499ZM35.5 25.499H34.5V28.499H35.5V25.499ZM27.5 25.499H26.5V28.499H27.5V25.499ZM35.5 20.499H34.5V23.499H35.5V20.499ZM27.5 20.499H26.5V23.499H27.5V20.499ZM31.5 25.499H30.5V28.499H31.5V25.499ZM35.5 30.499H34.5V33.499H35.5V30.499ZM27.5 30.499H26.5V33.499H27.5V30.499ZM31.5 30.499H30.5V33.499H31.5V30.499ZM31.5 20.499H30.5V23.499H31.5V20.499ZM12.5 18.499H13.5V15.499H12.5V18.499ZM21.5 15.499H20.5V18.499H21.5V15.499ZM12.5 10.5V13.5H13.5V10.5H12.5ZM21.5 10.5H20.5V13.5H21.5V10.5ZM17.5 20.499H16.5V23.499H17.5V20.499ZM12.5 28.499H13.5V25.499H12.5V28.499ZM21.5 25.499H20.5V28.499H21.5V25.499ZM17.5 25.499H16.5V28.499H17.5V25.499ZM12.5 33.499H13.5V30.499H12.5V33.499ZM21.5 30.499H20.5V33.499H21.5V30.499ZM17.5 30.499H16.5V33.499H17.5V30.499ZM17.5 15.499H16.5V18.499H17.5V15.499ZM17.5 10.5H16.5V13.5H17.5V10.5ZM40.5 39.5V40.5H7.5V39.5H9.5V7.5L24.5 7.50586V17.5034L28.5 17.5024V15.5H31.5V14.5H36.5V17.5005L38.502 17.5V39.5H40.5ZM18.5049 36.5H15.4985V39.498H18.5049V36.5ZM32.5 15.5V17.5H35.5V15.5H32.5ZM29.5 17.5H31.5V16.5H29.5V17.5ZM24.5 18.5034L24.501 39.4995H37.502V18.5L24.5 18.5034ZM10.5 39.4981H14.4985V35.5H19.5049V39.498H23.5V8.50537L10.5 8.5V39.4981Z" fill="currentColor"/>
</g>
</g>
<defs>
<clipPath id="clip0_24_40">
<rect width="48" height="48" fill="currentColor"/>
</clipPath>
<clipPath id="clip1_24_40">
<rect width="48" height="48" fill="currentColor"/>
</clipPath>
</defs>
</svg>