<svg viewBox="0 0 48 48" fill="none" xmlns="http://www.w3.org/2000/svg">
<g clip-path="url(#clip0_141_2050)">
<path d="M42.5 33.5V10.5H5.5V33.5H20.347L19.547 36.5H16.5V37.5H31.5V36.5H28.456L27.651 33.5H42.5ZM6.5 11.5H41.5V32.5H6.5V11.5ZM27.42 36.5H20.579L21.379 33.5H26.613L27.42 36.5ZM7.5 31.5H40.5V12.5H7.5V31.5ZM8.5 13.5H39.5V30.5H8.5V13.5ZM10.5 27.5H37.5V28.5H10.5V27.5ZM13 25.707L12.293 25L15.953 21.34L19.953 24.34L25.922 18.37L30.922 21.37L34.793 17.5H32.672L33.672 16.5H36.5V19.329L35.5 20.329V18.207L31.078 22.63L26.078 19.63L20.047 25.66L16.047 22.66L13 25.707Z" fill="currentColor"/>
</g>
<defs>
<clipPath id="clip0_141_2050">
<rect width="48" height="48" fill="currentColor"/>
</clipPath>
</defs>
</svg>