<svg viewBox="0 0 48 48" fill="none" xmlns="http://www.w3.org/2000/svg">
<g clip-path="url(#clip0_1103_752)">
<path d="M8.00011 28.293L7.29307 29.0001L9.00011 30.7071L9.70715 30.0001L8.00011 28.293Z" fill="currentColor"/>
<path d="M13.0001 28.293L11.2931 30L12.0001 30.7071L13.7072 29L13.0001 28.293Z" fill="currentColor"/>
<path d="M9.00014 32.293L7.2931 34.0001L8.00013 34.7071L9.70718 33.0001L9.00014 32.293Z" fill="currentColor"/>
<path d="M12.0001 32.293L11.2931 33.0001L13.0001 34.7071L13.7072 34.0001L12.0001 32.293Z" fill="currentColor"/>
<path d="M33.5 14.5H14.5V25.5H18.5V29.5H29.5V25.5H33.5V14.5ZM23.5 28.5H19.5V24.5H15.5V15.5H23.5V28.5ZM32.5 24.5H28.5V28.5H24.5V15.5H32.5V24.5Z" fill="currentColor"/>
<path d="M38.5434 25.5972L35.3019 13.5H36.5V11.5H35.5V12.5H12.5V11.5H11.5V13.5H12.6468L9.40314 25.605C6.61731 26.1226 4.5 28.5664 4.5 31.5C4.5 34.8086 7.19141 37.5 10.5 37.5C13.1065 37.5 15.3237 35.8267 16.15 33.5H31.85C32.6763 35.8267 34.8935 37.5 37.5 37.5C40.8086 37.5 43.5 34.8086 43.5 31.5C43.5 28.5478 41.3554 26.0928 38.5434 25.5972ZM10.5 36.5C7.74316 36.5 5.5 34.2568 5.5 31.5C5.5 28.7432 7.74316 26.5 10.5 26.5C13.2568 26.5 15.5 28.7432 15.5 31.5C15.5 34.2568 13.2568 36.5 10.5 36.5ZM31.5903 32.5H16.4097C16.4647 32.1738 16.5 31.8413 16.5 31.5C16.5 28.1914 13.8086 25.5 10.5 25.5C10.4885 25.5 10.4775 25.5015 10.4661 25.5019L13.6819 13.5H34.2668L37.4825 25.501C34.182 25.5108 31.5 28.1978 31.5 31.5C31.5 31.8413 31.5353 32.1738 31.5903 32.5ZM37.5 36.5C34.7432 36.5 32.5 34.2568 32.5 31.5C32.5 28.7432 34.7432 26.5 37.5 26.5C40.2568 26.5 42.5 28.7432 42.5 31.5C42.5 34.2568 40.2568 36.5 37.5 36.5Z" fill="currentColor"/>
<path d="M35.0002 28.293L34.2932 29L36.0002 30.707L36.7072 30L35.0002 28.293Z" fill="currentColor"/>
<path d="M40.0002 28.2929L38.2932 30L39.0002 30.707L40.7073 29L40.0002 28.2929Z" fill="currentColor"/>
<path d="M36.0002 32.293L34.2932 34L35.0002 34.707L36.7073 33L36.0002 32.293Z" fill="currentColor"/>
<path d="M39.0002 32.2929L38.2932 33L40.0002 34.707L40.7073 34L39.0002 32.2929Z" fill="currentColor"/>
</g>
<defs>
<clipPath id="clip0_1103_752">
<rect width="48" height="48" fill="currentColor"/>
</clipPath>
</defs>
</svg>