<?xml version="1.0" encoding="utf-8"?>
<!-- Generator: Adobe Illustrator 27.1.1, SVG Export Plug-In . SVG Version: 6.00 Build 0)  -->
<svg version="1.1" id="Art_3.0" xmlns="http://www.w3.org/2000/svg" xmlns:xlink="http://www.w3.org/1999/xlink" x="0px" y="0px"
	 viewBox="0 0 48 48" style="enable-background:new 0 0 48 48;" xml:space="preserve">
<style type="text/css">
	.st0{fill:#FFFFFF;}
	.st1{fill:#FFFFFF;fill-opacity:0;}
</style>
<g>
	<rect x="16.5" y="19.5" class="st0" width="19" height="1"/>
	<rect x="16.5" y="25.5" class="st0" width="19" height="1"/>
	<rect x="16.5" y="31.5" class="st0" width="19" height="1"/>
	<path class="st0" d="M11.5,27.5h3v-3h-3V27.5z M12.5,25.5h1v1h-1V25.5z"/>
	<path class="st0" d="M11.5,33.5h3v-3h-3V33.5z M12.5,31.5h1v1h-1V31.5z"/>
	<polygon class="st0" points="15.70703,19 15,18.29297 13,20.29297 12,19.29297 11.29297,20 13,21.70703 	"/>
	<path class="st0" d="M7.5,9.5v29h33v-29H7.5z M39.5,37.5h-31V14.49854h31V37.5z M8.5,13.49854V10.5h31v2.99854H8.5z"/>
	<rect x="30.4624" y="11.49414" class="st0" width="1.99609" height="1"/>
	<rect x="33.49023" y="11.49414" class="st0" width="1.99609" height="1"/>
	<rect x="36.49902" y="11.49414" class="st0" width="1.99609" height="1"/>
</g>
<rect class="st1" width="48" height="48"/>
</svg>
