<svg viewBox="0 0 48 48" fill="none" xmlns="http://www.w3.org/2000/svg">
<g clip-path="url(#clip0_141_2014)">
<path d="M34.406 26.39L35.871 31.854L30.406 33.317L29.182 32.61L33.963 31.33L24 25.577L14.037 31.33L18.818 32.61L17.594 33.317L12.129 31.854L13.593 26.39L14.818 25.683L13.537 30.463L23.5 24.711V13.211L20 16.711V15.293L24 11.293L28 15.293V16.707L24.5 13.207V24.707L34.463 30.459L33.182 25.679L34.406 26.39ZM40.684 31.99C40.9064 32.2225 41.0474 32.521 41.0857 32.8405C41.124 33.1601 41.0576 33.4834 40.8963 33.7619C40.7351 34.0404 40.4878 34.2591 40.1916 34.385C39.8954 34.5109 39.5664 34.5372 39.254 34.46C37.5568 36.9397 35.2807 38.9683 32.6228 40.37C29.9649 41.7717 27.0053 42.5042 24.0005 42.5042C20.9956 42.5042 18.036 41.7717 15.3781 40.37C12.7202 38.9683 10.4441 36.9397 8.74696 34.46C8.43532 34.5333 8.10839 34.5042 7.81453 34.3773C7.52066 34.2503 7.27546 34.0321 7.1152 33.755C6.95494 33.4779 6.88813 33.1565 6.92464 32.8385C6.96116 32.5205 7.09906 32.2226 7.31796 31.989C6.01772 29.2796 5.39796 26.2938 5.51243 23.2907C5.6269 20.2876 6.47214 17.3577 7.97487 14.7551C9.47759 12.1525 11.5924 9.95564 14.1361 8.35508C16.6797 6.75453 19.5754 5.79855 22.572 5.57003C22.6627 5.26149 22.8509 4.99063 23.1084 4.79796C23.3659 4.60528 23.6789 4.50116 24.0005 4.50116C24.3221 4.50116 24.635 4.60528 24.8925 4.79796C25.15 4.99063 25.3382 5.26149 25.429 5.57003C30.0728 5.92654 34.411 8.02286 37.576 11.4398C40.741 14.8568 42.4995 19.3425 42.5 24C42.5057 26.765 41.8848 29.4954 40.684 31.986V31.99ZM23.5 6.00003C23.5 6.13264 23.5526 6.25982 23.6464 6.35358C23.7402 6.44735 23.8673 6.50003 24 6.50003C24.1326 6.50003 24.2597 6.44735 24.3535 6.35358C24.4473 6.25982 24.5 6.13264 24.5 6.00003C24.5 5.86742 24.4473 5.74024 24.3535 5.64648C24.2597 5.55271 24.1326 5.50003 24 5.50003C23.8673 5.50003 23.7402 5.55271 23.6464 5.64648C23.5526 5.74024 23.5 5.86742 23.5 6.00003ZM8.66196 33.433C8.7768 33.3667 8.86059 33.2575 8.89491 33.1294C8.92923 33.0013 8.91126 32.8649 8.84496 32.75C8.77866 32.6355 8.66963 32.5519 8.54179 32.5176C8.41394 32.4833 8.27771 32.501 8.16296 32.567C8.04906 32.6338 7.96619 32.7429 7.93244 32.8706C7.89869 32.9982 7.9168 33.134 7.98282 33.2484C8.04884 33.3627 8.15741 33.4463 8.28483 33.4809C8.41225 33.5155 8.54818 33.4983 8.66296 33.433H8.66196ZM38.408 33.921C38.2252 33.6853 38.1168 33.4005 38.0966 33.1029C38.0765 32.8053 38.1456 32.5085 38.295 32.2503C38.4444 31.9922 38.6674 31.7844 38.9355 31.6536C39.2035 31.5228 39.5045 31.4749 39.8 31.516C40.9243 29.1703 41.5054 26.6013 41.5 24C41.4997 19.6003 39.8407 15.3623 36.8539 12.1316C33.8671 8.90094 29.7722 6.91502 25.386 6.57003C25.2723 6.84392 25.0801 7.078 24.8335 7.24267C24.5869 7.40735 24.297 7.49523 24.0005 7.49523C23.7039 7.49523 23.4141 7.40735 23.1674 7.24267C22.9208 7.078 22.7286 6.84392 22.615 6.57003C18.2285 6.91478 14.1334 8.90059 11.1464 12.1313C8.15942 15.362 6.50027 19.6001 6.49996 24C6.49398 26.6014 7.07507 29.1705 8.19996 31.516C8.40028 31.4872 8.60435 31.4991 8.79996 31.551C9.03875 31.6155 9.25788 31.7381 9.43783 31.9078C9.61779 32.0775 9.75298 32.2891 9.83138 32.5237C9.90978 32.7583 9.92895 33.0086 9.88717 33.2524C9.8454 33.4962 9.74398 33.7259 9.59196 33.921C11.1987 36.2581 13.3498 38.1692 15.8598 39.4895C18.3699 40.8098 21.1634 41.4998 23.9995 41.4998C26.8355 41.4998 29.6291 40.8098 32.1391 39.4895C34.6491 38.1692 36.8002 36.2581 38.407 33.921H38.408ZM39.84 32.569H39.835C39.76 32.5262 39.6753 32.5034 39.589 32.503C39.5013 32.5037 39.4154 32.5271 39.3395 32.5709C39.2636 32.6148 39.2004 32.6775 39.156 32.753C39.1063 32.8385 39.0831 32.9368 39.0893 33.0355C39.0955 33.1342 39.1309 33.2288 39.1908 33.3074C39.2508 33.386 39.3327 33.445 39.4262 33.4771C39.5198 33.5092 39.6207 33.5128 39.7163 33.4875C39.8118 33.4622 39.8978 33.4091 39.9632 33.335C40.0286 33.2609 40.0706 33.169 40.0838 33.0711C40.0971 32.9731 40.081 32.8734 40.0376 32.7846C39.9942 32.6957 39.9254 32.6218 39.84 32.572V32.569Z" fill="currentColor"/>
</g>
<defs>
<clipPath id="clip0_141_2014">
<rect width="48" height="48" fill="currentColor"/>
</clipPath>
</defs>
</svg>