<?xml version="1.0" encoding="utf-8"?>
<!-- Generator: Adobe Illustrator 27.1.1, SVG Export Plug-In . SVG Version: 6.00 Build 0)  -->
<svg version="1.1" id="Art_3.0" xmlns="http://www.w3.org/2000/svg" xmlns:xlink="http://www.w3.org/1999/xlink" x="0px" y="0px"
	 viewBox="0 0 48 48" style="enable-background:new 0 0 48 48;" xml:space="preserve">
<style type="text/css">
	.st0{fill:#FFFFFF;}
	.st1{fill:#FFFFFF;fill-opacity:0;}
</style>
<path class="st0" d="M16.70703,34l2,2l-2,2h-1.41406l1.5-1.5H11.5v-12h1v11h4.29297l-1.5-1.5H16.70703z M31.70703,14
	l-1.60046-1.60059H34.5V22.5h1V11.39941h-5.1925L31.70704,10h-1.41406l-2,2l2,2C30.29298,14,31.70704,14,31.70703,14z M26.5,22.5
	h-19v-17h19V22.5z M8.5,9.5h17v-3h-17V9.5z M25.5,21.5v-11h-17v11H25.5z M22.5,7.5v1h2v-1H22.5z M19.5,8.5h2v-1h-2V8.5z
	 M20.29297,14l2,2l-2,2h1.41406l2-2l-2-2H20.29297z M12.29297,14l-2,2l2,2h1.41406l-2-2l2-2H12.29297z M14.44092,20h1.11816l4-8
	h-1.11816C18.44092,12,14.44092,20,14.44092,20z M40.5,24.5v17h-19v-17H40.5z M39.5,29.5h-17v11h17V29.5z M39.5,28.5v-3h-17v3H39.5z
	 M36.5,26.5v1h2v-1H36.5z M33.5,27.5h2v-1h-2V27.5z M30,37.70703L34.70703,33L34,32.29297l-4,4l-2-2L27.29297,35L30,37.70703z"/>
<rect class="st1" width="48" height="48"/>
</svg>
