<svg width="48" height="48" viewBox="0 0 48 48" fill="none" xmlns="http://www.w3.org/2000/svg">
<g clip-path="url(#clip0_2495_786)">
<path d="M28.5 11.4951C32.91 11.4951 36.5 15.0851 36.5 19.4951C36.5 19.6551 36.49 19.8251 36.48 19.9951H37.48C37.48 19.8251 37.5 19.6651 37.5 19.4951C37.5 14.5351 33.46 10.4951 28.5 10.4951C25.23 10.4951 22.19 12.3051 20.62 15.1651C19.82 14.7251 18.92 14.4951 18 14.4951C14.97 14.4951 12.5 16.9651 12.5 19.9951C12.5 20.1651 12.5 20.3251 12.52 20.4951H12.5C9.74 20.4951 7.5 22.7351 7.5 25.4951C7.5 28.2551 9.74 30.4951 12.5 30.4951H20V29.4951H12.5C10.29 29.4951 8.5 27.7051 8.5 25.4951C8.5 23.2851 10.29 21.4951 12.5 21.4951C12.66 21.4951 12.81 21.5151 13.05 21.5551L13.76 21.6551L13.61 20.9551C13.54 20.6251 13.5 20.3151 13.5 19.9951C13.5 17.5151 15.52 15.4951 18 15.4951C18.91 15.4951 19.79 15.7651 20.54 16.2851L21.02 16.6151L21.27 16.0851C22.59 13.2951 25.43 11.4951 28.5 11.4951Z" fill="black"/>
<path d="M38.36 30.5451C38.1 30.5451 37.86 30.5951 37.63 30.6851L36.51 29.0051L37.63 27.3251C37.86 27.4051 38.1 27.4651 38.36 27.4651C39.54 27.4651 40.5 26.5051 40.5 25.3251C40.5 24.1451 39.54 23.1851 38.36 23.1851C37.71 23.1851 37.13 23.4851 36.73 23.9551L33.07 22.1251C33.11 21.9751 33.13 21.8151 33.13 21.6451C33.13 20.9851 32.82 20.4051 32.35 20.0051C31.98 19.6951 31.51 19.5051 30.99 19.5051C30.47 19.5051 30 19.6951 29.63 20.0051C29.16 20.3951 28.85 20.9851 28.85 21.6451C28.85 21.8151 28.87 21.9751 28.91 22.1251L25.22 23.9751C24.83 23.5351 24.26 23.2451 23.63 23.2451C22.45 23.2451 21.49 24.2051 21.49 25.3851C21.49 26.5651 22.45 27.5251 23.63 27.5251C23.9 27.5251 24.15 27.4651 24.39 27.3751L25.48 29.0151L24.36 30.6951C24.13 30.6151 23.89 30.5551 23.63 30.5551C22.45 30.5551 21.49 31.5151 21.49 32.6951C21.49 33.8751 22.45 34.8351 23.63 34.8351C24.28 34.8351 24.86 34.5351 25.25 34.0751L28.91 35.9051C28.87 36.0551 28.85 36.2151 28.85 36.3851C28.85 37.5651 29.81 38.5251 30.99 38.5251C32.17 38.5251 33.13 37.5651 33.13 36.3851C33.13 36.2151 33.11 36.0551 33.07 35.9051L36.73 34.0751C37.12 34.5351 37.7 34.8351 38.35 34.8351C39.53 34.8351 40.49 33.8751 40.49 32.6951C40.49 31.5151 39.53 30.5551 38.35 30.5551L38.36 30.5451ZM38.36 24.1751C38.99 24.1751 39.5 24.6851 39.5 25.3151C39.5 25.9451 38.99 26.4551 38.36 26.4551C37.73 26.4551 37.22 25.9451 37.22 25.3151C37.22 24.6851 37.73 24.1751 38.36 24.1751ZM36.74 26.6851C36.74 26.6851 36.78 26.7351 36.8 26.7551L35.91 28.0951L35.41 27.3451L36.74 26.6851ZM32.62 23.0051L36.28 24.8351C36.24 24.9851 36.22 25.1451 36.22 25.3151C36.22 25.4851 36.24 25.6451 36.28 25.7951L34.85 26.5151L32.56 23.0851C32.56 23.0851 32.6 23.0351 32.62 23.0151V23.0051ZM33.08 28.5151L34.51 27.7951L35.31 28.9951L34.51 30.1951L33.08 29.4751C33.12 29.3251 33.14 29.1651 33.14 28.9951C33.14 28.8251 33.12 28.6651 33.08 28.5151ZM31 20.4951C31.63 20.4951 32.14 21.0051 32.14 21.6351C32.14 22.2651 31.63 22.7751 31 22.7751C30.37 22.7751 29.86 22.2651 29.86 21.6351C29.86 21.0051 30.37 20.4951 31 20.4951ZM30.27 23.6351C30.5 23.7151 30.74 23.7751 31 23.7751C31.26 23.7751 31.5 23.7251 31.73 23.6351L33.95 26.9651L32.62 27.6251C32.23 27.1651 31.65 26.8651 31 26.8651C30.35 26.8651 29.77 27.1651 29.38 27.6251L28.05 26.9651L30.27 23.6351ZM32.14 28.9951C32.14 29.1451 32.11 29.2851 32.05 29.4251L32.03 29.4651C31.98 29.5751 31.91 29.6851 31.82 29.7751C31.79 29.8051 31.76 29.8251 31.72 29.8551C31.65 29.9151 31.57 29.9651 31.49 30.0051C31.45 30.0251 31.42 30.0351 31.38 30.0551C31.26 30.1051 31.13 30.1351 30.99 30.1351C30.85 30.1351 30.72 30.1051 30.6 30.0551C30.56 30.0451 30.53 30.0251 30.49 30.0051C30.41 29.9651 30.33 29.9151 30.26 29.8551C30.23 29.8251 30.19 29.8051 30.16 29.7751C30.08 29.6851 30.01 29.5851 29.95 29.4651C29.95 29.4451 29.93 29.4351 29.93 29.4251C29.88 29.2951 29.84 29.1551 29.84 28.9951C29.84 28.3651 30.35 27.8551 30.98 27.8551C31.61 27.8551 32.12 28.3651 32.12 28.9951H32.14ZM28.92 29.4751L27.49 30.1951L26.69 28.9951L27.49 27.7951L28.92 28.5151C28.88 28.6651 28.86 28.8251 28.86 28.9951C28.86 29.1651 28.88 29.3151 28.92 29.4751ZM29.38 23.0051C29.38 23.0051 29.42 23.0551 29.44 23.0751L27.15 26.5051L25.73 25.7951C25.76 25.6551 25.77 25.5051 25.77 25.3651C25.77 25.1851 25.74 25.0051 25.7 24.8451L29.38 23.0051ZM23.64 26.5051C23.01 26.5051 22.5 25.9951 22.5 25.3651C22.5 24.7351 23.01 24.2251 23.64 24.2251C24.27 24.2251 24.78 24.7351 24.78 25.3651C24.78 25.9951 24.27 26.5051 23.64 26.5051ZM25.22 26.7851C25.22 26.7851 25.27 26.7251 25.29 26.6951L25.55 26.8251L26.58 27.3451L26.08 28.0951L25.21 26.7851H25.22ZM24.7 33.0451C24.7 33.0451 24.68 33.1251 24.66 33.1551C24.48 33.5351 24.09 33.8051 23.64 33.8051C23.01 33.8051 22.5 33.2951 22.5 32.6651C22.5 32.0351 23.01 31.5251 23.64 31.5251C24.09 31.5251 24.48 31.7951 24.66 32.1751C24.68 32.2151 24.69 32.2551 24.7 32.2951C24.74 32.4151 24.77 32.5351 24.77 32.6651C24.77 32.7951 24.74 32.9151 24.7 33.0351V33.0451ZM25.26 31.3051C25.26 31.3051 25.22 31.2551 25.2 31.2351L26.09 29.8951L26.59 30.6351L25.63 31.1151L25.26 31.2951V31.3051ZM29.37 34.9851L25.72 33.1551C25.72 33.1551 25.72 33.1551 25.72 33.1451C25.75 32.9951 25.78 32.8351 25.78 32.6751C25.78 32.5151 25.76 32.3551 25.72 32.2051L27.15 31.4851L29.44 34.9151C29.44 34.9151 29.4 34.9651 29.38 34.9851H29.37ZM31 37.4951C30.37 37.4951 29.86 36.9851 29.86 36.3551C29.86 36.2051 29.89 36.0651 29.95 35.9251L29.97 35.8851C30.02 35.7751 30.09 35.6651 30.18 35.5851C30.2 35.5551 30.23 35.5351 30.26 35.5151C30.33 35.4551 30.41 35.4051 30.49 35.3551C30.53 35.3351 30.57 35.3151 30.62 35.2951C30.72 35.2551 30.83 35.2351 30.94 35.2351C30.98 35.2351 31.03 35.2351 31.07 35.2351C31.18 35.2351 31.29 35.2651 31.39 35.2951C31.43 35.3151 31.47 35.3351 31.52 35.3551C31.6 35.3951 31.68 35.4551 31.75 35.5151C31.78 35.5351 31.8 35.5551 31.83 35.5851C31.91 35.6751 31.98 35.7751 32.04 35.8851L32.06 35.9251C32.11 36.0551 32.15 36.2051 32.15 36.3551C32.15 36.9851 31.64 37.4951 31.01 37.4951H31ZM31.74 34.3551C31.68 34.3351 31.61 34.3151 31.55 34.3051C31.5 34.2951 31.46 34.2751 31.41 34.2651C31.28 34.2351 31.14 34.2251 31.01 34.2251C30.88 34.2251 30.74 34.2451 30.61 34.2651C30.56 34.2651 30.52 34.2851 30.47 34.3051C30.4 34.3251 30.34 34.3351 30.27 34.3551L28.05 31.0351L29.37 30.3751C29.37 30.3751 29.39 30.3951 29.4 30.4051C29.47 30.4851 29.55 30.5651 29.64 30.6351C29.67 30.6651 29.71 30.6951 29.74 30.7151C29.82 30.7751 29.91 30.8251 29.99 30.8751C30.03 30.8951 30.08 30.9251 30.12 30.9451C30.21 30.9851 30.31 31.0151 30.41 31.0451C30.45 31.0551 30.5 31.0751 30.54 31.0851C30.69 31.1151 30.84 31.1351 30.99 31.1351C31.14 31.1351 31.29 31.1151 31.44 31.0851C31.48 31.0851 31.53 31.0551 31.57 31.0451C31.67 31.0151 31.77 30.9851 31.86 30.9451C31.91 30.9251 31.95 30.8951 31.99 30.8751C32.08 30.8251 32.16 30.7751 32.24 30.7151C32.28 30.6851 32.31 30.6551 32.34 30.6351C32.42 30.5651 32.5 30.4851 32.58 30.4051C32.59 30.3951 32.6 30.3851 32.61 30.3751L33.93 31.0351L32.54 33.1251L31.72 34.3551H31.74ZM36.28 33.1451C36.28 33.1451 36.28 33.1451 36.28 33.1551L32.63 34.9851C32.63 34.9851 32.59 34.9351 32.57 34.9151L34.86 31.4851L36.29 32.2051C36.26 32.3551 36.23 32.5151 36.23 32.6751C36.23 32.8351 36.25 32.9951 36.29 33.1451H36.28ZM36.74 31.3051L36.37 31.1251L35.41 30.6451L35.91 29.9051L36.8 31.2451C36.8 31.2451 36.76 31.2951 36.74 31.3151V31.3051ZM38.36 33.8151C37.91 33.8151 37.52 33.5451 37.34 33.1651C37.32 33.1251 37.31 33.0851 37.3 33.0551C37.26 32.9351 37.23 32.8151 37.23 32.6851C37.23 32.5551 37.26 32.4351 37.3 32.3151C37.31 32.2751 37.33 32.2351 37.34 32.1951C37.52 31.8151 37.91 31.5451 38.36 31.5451C38.99 31.5451 39.5 32.0551 39.5 32.6851C39.5 33.3151 38.99 33.8251 38.36 33.8251V33.8151Z" fill="black"/>
</g>
<defs>
<clipPath id="clip0_2495_786">
<rect width="48" height="48" fill="white"/>
</clipPath>
</defs>
</svg>
