<svg viewBox="0 0 48 48" fill="none" xmlns="http://www.w3.org/2000/svg">
<g clip-path="url(#clip0_144_2379)">
<path d="M29.116 7.5L29.652 5.5H18.352L18.888 7.5H11.5V40.5H36.5V7.5H29.116ZM28.348 6.5L27.548 9.5H27.5V9.666L27.276 10.5H20.724L20.5 9.666V9.5H20.456L19.656 6.5H28.348ZM19.956 11.5H28.044L28.312 10.5H33.5V37.5H14.5V10.5H19.688L19.956 11.5ZM35.5 39.5H12.5V8.5H19.152L19.42 9.5H13.5V38.5H34.5V9.5H28.58L28.848 8.5H35.5V39.5ZM18 17.707L16.293 16L17 15.293L18 16.293L20 14.293L20.707 15L18 17.707ZM18 22.707L16.293 21L17 20.293L18 21.293L20 19.293L20.707 20L18 22.707ZM18 27.707L16.293 26L17 25.293L18 26.293L20 24.293L20.707 25L18 27.707ZM31.5 16.5H22.5V15.5H31.5V16.5ZM31.5 21.5H22.5V20.5H31.5V21.5ZM31.5 26.5H22.5V25.5H31.5V26.5ZM31.5 31.5H22.5V30.5H31.5V31.5Z" fill="currentColor"/>
</g>
<defs>
<clipPath id="clip0_144_2379">
<rect width="48" height="48" fill="currentColor"/>
</clipPath>
</defs>
</svg>