<svg viewBox="0 0 48 48" fill="none" xmlns="http://www.w3.org/2000/svg">
<g clip-path="url(#clip0_144_3607)">
<path d="M34.005 24.4999C33.0461 24.5019 32.0954 24.6774 31.199 25.0179L29.153 21.6089C30.4087 20.5526 31.3091 19.1357 31.7323 17.5503C32.1555 15.9649 32.081 14.2878 31.5188 12.7462C30.9566 11.2046 29.934 9.87316 28.5895 8.9324C27.2451 7.99164 25.6439 7.48706 24.003 7.48706C22.3621 7.48706 20.7609 7.99164 19.4164 8.9324C18.072 9.87316 17.0493 11.2046 16.4872 12.7462C15.925 14.2878 15.8504 15.9649 16.2736 17.5503C16.6968 19.1357 17.5973 20.5526 18.853 21.6089L16.9 24.8739C15.3325 24.3796 13.6507 24.3801 12.0835 24.8753C10.5162 25.3705 9.13958 26.3365 8.14071 27.6418C7.14185 28.947 6.56926 30.5283 6.50084 32.1705C6.43241 33.8127 6.87145 35.4361 7.75827 36.8199C8.64508 38.2038 9.93661 39.2809 11.4572 39.9048C12.9778 40.5287 14.6537 40.6691 16.2569 40.3069C17.8601 39.9447 19.3128 39.0974 20.4175 37.8804C21.5222 36.6634 22.2252 35.1356 22.431 33.5049H26.074C26.2665 35.0327 26.8958 36.4725 27.8864 37.6514C28.8769 38.8303 30.1867 39.6983 31.6585 40.1512C33.1302 40.604 34.7014 40.6225 36.1834 40.2044C37.6654 39.7863 38.9952 38.9494 40.0133 37.7941C41.0314 36.6388 41.6944 35.2143 41.9228 33.6915C42.1511 32.1686 41.9352 30.6123 41.3008 29.2092C40.6664 27.8061 39.6406 26.6159 38.3464 25.7814C37.0523 24.947 35.5448 24.5037 34.005 24.5049V24.4999ZM17.005 15.4999C17.0028 14.3029 17.3075 13.1254 17.8902 12.0797C18.4728 11.0341 19.3139 10.1553 20.333 9.52741C21.3521 8.89949 22.5152 8.5434 23.7111 8.49316C24.9071 8.44291 26.096 8.7002 27.1641 9.24042C28.2323 9.78065 29.1441 10.5858 29.8124 11.5788C30.4807 12.5719 30.8832 13.7198 30.9814 14.9128C31.0796 16.1058 30.8702 17.304 30.3733 18.393C29.8763 19.482 29.1084 20.4253 28.143 21.1329L27.816 21.3329L27.832 21.3579C26.6956 22.1055 25.3652 22.504 24.005 22.504C22.6448 22.504 21.3143 22.1055 20.178 21.3579L20.194 21.3319L19.856 21.1319C18.9713 20.4833 18.2517 19.6354 17.7555 18.6569C17.2594 17.6785 17.0005 16.597 17 15.4999H17.005ZM14.5 39.5049C13.1155 39.5049 11.7621 39.0944 10.611 38.3252C9.45984 37.5561 8.56263 36.4628 8.03282 35.1837C7.50301 33.9046 7.36438 32.4972 7.63448 31.1393C7.90458 29.7815 8.57126 28.5342 9.55023 27.5552C10.5292 26.5762 11.7765 25.9095 13.1343 25.6395C14.4922 25.3694 15.8997 25.508 17.1788 26.0378C18.4578 26.5676 19.5511 27.4648 20.3203 28.616C21.0894 29.7671 21.5 31.1205 21.5 32.5049C21.4979 34.3608 20.7597 36.1401 19.4474 37.4524C18.1351 38.7647 16.3558 39.5028 14.5 39.5049ZM22.5 32.5049C22.4981 30.9767 22.0584 29.481 21.2331 28.1947C20.4078 26.9085 19.2314 25.8856 17.843 25.2469L19.665 22.2109C20.956 23.0525 22.4639 23.5005 24.005 23.5005C25.5461 23.5005 27.0539 23.0525 28.345 22.2109L30.278 25.4329C28.9887 26.1106 27.9088 27.1274 27.1549 28.3737C26.401 29.62 26.0017 31.0484 26 32.5049H22.5ZM34.005 39.5049C32.2083 39.5027 30.4814 38.8097 29.1815 37.5694C27.8817 36.3291 27.1085 34.6365 27.022 32.8419V32.5049H27C27 31.1205 27.4105 29.7671 28.1797 28.616C28.9489 27.4648 30.0421 26.5676 31.3212 26.0378C32.6003 25.508 34.0077 25.3694 35.3656 25.6395C36.7235 25.9095 37.9708 26.5762 38.9497 27.5552C39.9287 28.5342 40.5954 29.7815 40.8655 31.1393C41.1356 32.4972 40.9969 33.9046 40.4671 35.1837C39.9373 36.4628 39.0401 37.5561 37.889 38.3252C36.7378 39.0944 35.3844 39.5049 34 39.5049H34.005ZM31.695 32.4999L30.353 37.5049H37.653L36.314 32.5049L31.695 32.4999ZM31.657 36.5049L32.457 33.4999H35.545L36.35 36.4999L31.657 36.5049ZM34.005 31.4999C34.4994 31.4999 34.9828 31.3533 35.3939 31.0786C35.805 30.8039 36.1255 30.4135 36.3147 29.9567C36.5039 29.4998 36.5534 28.9972 36.4569 28.5122C36.3605 28.0273 36.1224 27.5818 35.7727 27.2322C35.4231 26.8826 34.9777 26.6444 34.4927 26.548C34.0077 26.4515 33.5051 26.501 33.0483 26.6903C32.5915 26.8795 32.201 27.1999 31.9263 27.611C31.6516 28.0221 31.505 28.5055 31.505 28.9999C31.505 29.663 31.7684 30.2989 32.2372 30.7677C32.7061 31.2366 33.3419 31.4999 34.005 31.4999ZM34.005 27.4999C34.3017 27.4999 34.5917 27.5879 34.8383 27.7527C35.085 27.9176 35.2773 28.1518 35.3908 28.4259C35.5043 28.7 35.534 29.0016 35.4762 29.2926C35.4183 29.5836 35.2754 29.8508 35.0656 30.0606C34.8559 30.2704 34.5886 30.4132 34.2976 30.4711C34.0066 30.529 33.705 30.4993 33.431 30.3858C33.1569 30.2722 32.9226 30.08 32.7578 29.8333C32.593 29.5866 32.505 29.2966 32.505 28.9999C32.505 28.6021 32.663 28.2206 32.9443 27.9393C33.2256 27.658 33.6072 27.4999 34.005 27.4999ZM12.19 32.4999L10.848 37.5049H18.148L16.809 32.5049L12.19 32.4999ZM12.152 36.5049L12.952 33.4999H16.039L16.844 36.4999L12.152 36.5049ZM14.5 31.4999C14.9944 31.4999 15.4778 31.3533 15.8889 31.0786C16.3 30.8039 16.6205 30.4135 16.8097 29.9567C16.9989 29.4998 17.0484 28.9972 16.9519 28.5122C16.8555 28.0273 16.6174 27.5818 16.2677 27.2322C15.9181 26.8826 15.4727 26.6444 14.9877 26.548C14.5027 26.4515 14.0001 26.501 13.5433 26.6903C13.0865 26.8795 12.696 27.1999 12.4213 27.611C12.1466 28.0221 12 28.5055 12 28.9999C12 29.663 12.2634 30.2989 12.7322 30.7677C13.2011 31.2366 13.8369 31.4999 14.5 31.4999ZM14.5 27.4999C14.7966 27.4999 15.0867 27.5879 15.3333 27.7527C15.58 27.9176 15.7723 28.1518 15.8858 28.4259C15.9993 28.7 16.029 29.0016 15.9712 29.2926C15.9133 29.5836 15.7704 29.8508 15.5606 30.0606C15.3509 30.2704 15.0836 30.4132 14.7926 30.4711C14.5016 30.529 14.2 30.4993 13.926 30.3858C13.6519 30.2722 13.4176 30.08 13.2528 29.8333C13.0879 29.5866 13 29.2966 13 28.9999C13 28.6021 13.158 28.2206 13.4393 27.9393C13.7206 27.658 14.1022 27.4999 14.5 27.4999ZM26.317 15.4999L21.695 15.4949L20.353 20.4999H27.653L26.317 15.4999ZM22.461 16.4999H25.549L26.354 19.4999H21.654L22.461 16.4999ZM24.005 14.4999C24.4994 14.4999 24.9828 14.3533 25.3939 14.0786C25.805 13.8039 26.1255 13.4135 26.3147 12.9567C26.5039 12.4998 26.5534 11.9972 26.4569 11.5122C26.3605 11.0273 26.1224 10.5818 25.7727 10.2322C25.4231 9.88255 24.9777 9.64445 24.4927 9.54798C24.0077 9.45152 23.5051 9.50103 23.0483 9.69025C22.5915 9.87947 22.201 10.1999 21.9263 10.611C21.6516 11.0221 21.505 11.5055 21.505 11.9999C21.5063 12.6613 21.7696 13.2951 22.2372 13.7627C22.7048 14.2303 23.3387 14.4936 24 14.4949L24.005 14.4999ZM24 10.4999C24.2966 10.4999 24.5867 10.5879 24.8333 10.7527C25.08 10.9176 25.2723 11.1518 25.3858 11.4259C25.4993 11.7 25.529 12.0016 25.4712 12.2926C25.4133 12.5836 25.2704 12.8508 25.0606 13.0606C24.8509 13.2704 24.5836 13.4132 24.2926 13.4711C24.0016 13.529 23.7 13.4993 23.426 13.3858C23.1519 13.2722 22.9176 13.08 22.7528 12.8333C22.588 12.5866 22.5 12.2966 22.5 11.9999C22.5 11.6021 22.658 11.2206 22.9393 10.9393C23.2206 10.658 23.6022 10.4999 24 10.4999Z" fill="currentColor"/>
</g>
<defs>
<clipPath id="clip0_144_3607">
<rect width="48" height="48" fill="currentColor"/>
</clipPath>
</defs>
</svg>