<svg viewBox="0 0 48 48" fill="none" xmlns="http://www.w3.org/2000/svg">
<g clip-path="url(#clip0_144_2377)">
<path d="M36.4999 31.32V7.505H18.7929L11.5049 14.8V40.505H27.3249C27.9227 41.1307 28.6396 41.6305 29.4334 41.9752C30.2272 42.3198 31.0819 42.5023 31.9473 42.5119C32.8126 42.5215 33.6711 42.358 34.4724 42.0311C35.2736 41.7041 36.0014 41.2203 36.613 40.608C37.2246 39.9958 37.7077 39.2674 38.0337 38.4658C38.3598 37.6642 38.5224 36.8055 38.5118 35.9402C38.5013 35.0749 38.3179 34.2204 37.9723 33.427C37.6268 32.6335 37.1262 31.9172 36.4999 31.32ZM18.4999 9.208V14.508H13.2109L18.4999 9.208ZM12.4999 39.508V15.508H19.4999V8.50801H35.4999V30.532C34.2532 29.7299 32.7694 29.3788 31.2954 29.5372C29.8214 29.6956 28.4461 30.354 27.3983 31.4027C26.3505 32.4514 25.6934 33.8273 25.5363 35.3014C25.3792 36.7755 25.7316 38.259 26.5349 39.505L12.4999 39.508ZM31.9999 41.5C30.9121 41.5 29.8487 41.1774 28.9442 40.5731C28.0398 39.9687 27.3348 39.1098 26.9185 38.1048C26.5023 37.0998 26.3933 35.9939 26.6056 34.927C26.8178 33.8601 27.3416 32.8801 28.1108 32.1109C28.88 31.3417 29.86 30.8179 30.9269 30.6057C31.9938 30.3935 33.0996 30.5024 34.1046 30.9187C35.1096 31.3349 35.9686 32.0399 36.573 32.9444C37.1773 33.8488 37.4999 34.9122 37.4999 36C37.4983 37.4582 36.9183 38.8562 35.8872 39.8873C34.8561 40.9184 33.4581 41.4984 31.9999 41.5ZM35.0099 33.3L35.7169 34.007L31.0099 38.712L28.2999 36.005L29.0069 35.298L31.0069 37.298L35.0099 33.3ZM32.4999 19.5H15.5049V18.5H32.4999V19.5ZM32.4999 22.5H15.5049V21.5H32.4999V22.5ZM32.4999 25.5H15.5049V24.5H32.4999V25.5ZM27.4999 28.5H15.5049V27.5H27.4999V28.5Z" fill="currentColor"/>
</g>
<defs>
<clipPath id="clip0_144_2377">
<rect width="48" height="48" fill="currentColor"/>
</clipPath>
</defs>
</svg>