<?xml version="1.0" encoding="utf-8"?>
<!-- Generator: Adobe Illustrator 27.1.1, SVG Export Plug-In . SVG Version: 6.00 Build 0)  -->
<svg version="1.1" id="Note" xmlns="http://www.w3.org/2000/svg" xmlns:xlink="http://www.w3.org/1999/xlink" x="0px" y="0px"
	 viewBox="0 0 48 48" style="enable-background:new 0 0 48 48;" xml:space="preserve">
<style type="text/css">
	.st0{fill:#FFFFFF;}
	.st1{fill:#FFFFFF;fill-opacity:0;}
</style>
<path class="st0" d="M28,20.5c-1.6543,0-3,1.3457-3,3s1.3457,3,3,3s3-1.3457,3-3S29.6543,20.5,28,20.5z M28,25.5
	c-1.10303,0-2-0.89746-2-2s0.89697-2,2-2s2,0.89746,2,2S29.10303,25.5,28,25.5z M33,15.74219c0.82715,0,1.5-0.67285,1.5-1.5
	s-0.67285-1.5-1.5-1.5s-1.5,0.67285-1.5,1.5S32.17285,15.74219,33,15.74219z M33,13.74219c0.27588,0,0.5,0.22461,0.5,0.5
	c0,0.27588-0.22412,0.5-0.5,0.5s-0.5-0.22412-0.5-0.5C32.5,13.9668,32.72412,13.74219,33,13.74219z M33,18
	c-0.82715,0-1.5,0.67285-1.5,1.5S32.17285,21,33,21s1.5-0.67285,1.5-1.5S33.82715,18,33,18z M33,20c-0.27588,0-0.5-0.22412-0.5-0.5
	S32.72412,19,33,19s0.5,0.22412,0.5,0.5S33.27588,20,33,20z M30.5,18.5c0.82715,0,1.5-0.67285,1.5-1.5s-0.67285-1.5-1.5-1.5
	S29,16.17285,29,17S29.67285,18.5,30.5,18.5z M30.5,16.5c0.27588,0,0.5,0.22412,0.5,0.5s-0.22412,0.5-0.5,0.5S30,17.27588,30,17
	S30.22412,16.5,30.5,16.5z M35.5,15.5c-0.82715,0-1.5,0.67285-1.5,1.5s0.67285,1.5,1.5,1.5S37,17.82715,37,17
	S36.32715,15.5,35.5,15.5z M35.5,17.5c-0.27588,0-0.5-0.22412-0.5-0.5s0.22412-0.5,0.5-0.5S36,16.72412,36,17
	S35.77588,17.5,35.5,17.5z M18,20.5c-1.6543,0-3,1.3457-3,3s1.3457,3,3,3s3-1.3457,3-3S19.6543,20.5,18,20.5z M18,25.5
	c-1.10303,0-2-0.89746-2-2s0.89697-2,2-2s2,0.89746,2,2S19.10303,25.5,18,25.5z M38.78467,13.06836
	c-0.23291-0.86816-0.91797-1.54785-1.78809-1.77295l-6.17139-1.59814c-0.56445-0.14648-1.16504-0.08984-1.69189,0.1582
	L27.76367,10.5h-7.52734L18.8667,9.85547c-0.52686-0.24805-1.12793-0.3042-1.69189-0.1582l-6.17139,1.59814
	c-0.87012,0.2251-1.55518,0.90479-1.78809,1.77295L5.48241,27l2.48828,9.28809l3.63623,1.3877
	c0.65967,0.25244,1.39941,0.21289,2.02881-0.10889c0.62891-0.32129,1.09473-0.89697,1.27734-1.5791l1.521-5.67627l2.71729-1.81152
	h9.69727l2.71729,1.81152l1.521,5.67578c0.18262,0.68262,0.64844,1.2583,1.27734,1.57959
	c0.35547,0.18164,0.74609,0.27344,1.1377,0.27344c0.30176,0,0.604-0.05469,0.89111-0.16406l3.63623-1.38818l2.48828-9.28809
	l-3.73291-13.93164L38.78467,13.06836z M27.22388,11.5l-1.87573,7h-2.69629l-1.87573-7C20.77612,11.5,27.22388,11.5,27.22388,11.5z
	 M39.19532,35.53613l-3.15869,1.20605c-0.40332,0.15332-0.83447,0.12988-1.21729-0.06543
	c-0.3833-0.1958-0.65527-0.53223-0.7666-0.94775l-1.61865-6.04053l-3.28271-2.18848H18.84864l-3.28271,2.18848L13.94728,35.729
	c-0.11133,0.41553-0.3833,0.75195-0.7666,0.94775c-0.38281,0.19531-0.81445,0.21875-1.21729,0.06494L8.8047,35.53613L6.51759,27
	l3.66357-13.67285c0.13965-0.52051,0.55078-0.92871,1.07324-1.06348l6.17139-1.59863c0.3374-0.0874,0.69824-0.05371,1.01514,0.09521
	l1.26074,0.59326l2.18262,8.14648h4.23145l2.18262-8.14648l1.26074-0.59326c0.31641-0.14893,0.67773-0.18262,1.01514-0.09521
	l6.17139,1.59863c0.52246,0.13477,0.93359,0.54297,1.07324,1.06348L41.48244,27l-2.28711,8.53613L39.19532,35.53613z M14.5,19.5v-2
	h-2v-1h2v-2h1v2h2v1h-2v2H14.5z"/>
<rect class="st1" width="48" height="48"/>
</svg>
