<svg viewBox="0 0 48 48" fill="none" xmlns="http://www.w3.org/2000/svg">
<g clip-path="url(#clip0_141_2032)">
<path d="M18.0001 21.5C17.7034 21.5 17.4134 21.588 17.1667 21.7528C16.92 21.9176 16.7278 22.1519 16.6142 22.426C16.5007 22.7001 16.471 23.0017 16.5289 23.2926C16.5868 23.5836 16.7296 23.8509 16.9394 24.0606C17.1492 24.2704 17.4164 24.4133 17.7074 24.4712C17.9984 24.529 18.3 24.4993 18.5741 24.3858C18.8482 24.2723 19.0824 24.08 19.2473 23.8333C19.4121 23.5867 19.5001 23.2967 19.5001 23C19.5001 22.6022 19.342 22.2206 19.0607 21.9393C18.7794 21.658 18.3979 21.5 18.0001 21.5ZM18.0001 23.5C17.9012 23.5 17.8045 23.4707 17.7223 23.4157C17.64 23.3608 17.576 23.2827 17.5381 23.1913C17.5003 23.1 17.4904 22.9994 17.5097 22.9024C17.529 22.8055 17.5766 22.7164 17.6465 22.6464C17.7164 22.5765 17.8055 22.5289 17.9025 22.5096C17.9995 22.4903 18.1 22.5002 18.1914 22.538C18.2828 22.5759 18.3608 22.64 18.4158 22.7222C18.4707 22.8044 18.5001 22.9011 18.5001 23C18.5001 23.1326 18.4474 23.2598 18.3536 23.3535C18.2598 23.4473 18.1327 23.5 18.0001 23.5ZM20.5001 22.5H24.5001V23.5H20.5001V22.5ZM33.5001 26.5V19.5H14.5001V32.5H33.5001V26.5ZM15.5001 20.5H32.5001V25.5H15.5001V20.5ZM32.5001 31.5H15.5001V26.5H32.5001V31.5ZM18.0001 30.5C18.2967 30.5 18.5867 30.412 18.8334 30.2472C19.0801 30.0824 19.2723 29.8481 19.3859 29.574C19.4994 29.2999 19.5291 28.9983 19.4712 28.7074C19.4134 28.4164 19.2705 28.1491 19.0607 27.9393C18.8509 27.7296 18.5837 27.5867 18.2927 27.5288C18.0017 27.4709 17.7001 27.5006 17.426 27.6142C17.1519 27.7277 16.9177 27.92 16.7528 28.1666C16.588 28.4133 16.5001 28.7033 16.5001 29C16.5001 29.3978 16.6581 29.7793 16.9394 30.0606C17.2207 30.342 17.6022 30.5 18.0001 30.5ZM18.0001 28.5C18.0989 28.5 18.1956 28.5293 18.2778 28.5843C18.3601 28.6392 18.4241 28.7173 18.462 28.8086C18.4998 28.9 18.5097 29.0005 18.4904 29.0975C18.4712 29.1945 18.4235 29.2836 18.3536 29.3535C18.2837 29.4235 18.1946 29.4711 18.0976 29.4904C18.0006 29.5097 17.9001 29.4998 17.8087 29.4619C17.7173 29.4241 17.6393 29.36 17.5843 29.2778C17.5294 29.1955 17.5001 29.0989 17.5001 29C17.5001 28.8674 17.5527 28.7402 17.6465 28.6464C17.7403 28.5527 17.8674 28.5 18.0001 28.5ZM24.5001 29.5H20.5001V28.5H24.5001V29.5ZM24.5001 38.594V33.5H23.5001V38.591C23.1664 38.7089 22.8853 38.941 22.7062 39.2462C22.5272 39.5514 22.4618 39.9101 22.5217 40.2589C22.5815 40.6076 22.7627 40.924 23.0332 41.152C23.3038 41.3801 23.6462 41.5052 24.0001 41.5052C24.3539 41.5052 24.6963 41.3801 24.9669 41.152C25.2374 40.924 25.4186 40.6076 25.4784 40.2589C25.5383 39.9101 25.4729 39.5514 25.2939 39.2462C25.1148 38.941 24.8337 38.7089 24.5001 38.591V38.594ZM24.0001 40.5C23.8674 40.5 23.7403 40.4473 23.6465 40.3535C23.5527 40.2598 23.5001 40.1326 23.5001 40C23.5001 39.8674 23.5527 39.7402 23.6465 39.6464C23.7403 39.5527 23.8674 39.5 24.0001 39.5C24.1327 39.5 24.2598 39.5527 24.3536 39.6464C24.4474 39.7402 24.5001 39.8674 24.5001 40C24.5001 40.1326 24.4474 40.2598 24.3536 40.3535C24.2598 40.4473 24.1327 40.5 24.0001 40.5ZM19.5001 35.75L15.6371 38.65C15.3147 38.4964 14.9484 38.4618 14.6029 38.5522C14.2574 38.6426 13.955 38.8521 13.7491 39.1439C13.5432 39.4356 13.447 39.7908 13.4776 40.1466C13.5082 40.5023 13.6636 40.8359 13.9163 41.0882C14.1689 41.3405 14.5027 41.4954 14.8585 41.5255C15.2143 41.5556 15.5693 41.4589 15.8608 41.2526C16.1523 41.0463 16.3614 40.7436 16.4513 40.398C16.5412 40.0524 16.506 39.6862 16.352 39.364L20.5001 36.25V33.5H19.5001V35.75ZM15.0001 40.5C14.9012 40.5 14.8045 40.4707 14.7223 40.4157C14.64 40.3608 14.576 40.2827 14.5381 40.1913C14.5003 40.1 14.4904 39.9994 14.5097 39.9024C14.529 39.8055 14.5766 39.7164 14.6465 39.6464C14.7164 39.5765 14.8055 39.5289 14.9025 39.5096C14.9995 39.4903 15.1 39.5002 15.1914 39.538C15.2828 39.5759 15.3608 39.64 15.4158 39.7222C15.4707 39.8044 15.5001 39.9011 15.5001 40C15.5001 40.1326 15.4474 40.2598 15.3536 40.3535C15.2598 40.4473 15.1327 40.5 15.0001 40.5ZM33.0001 38.5C32.7795 38.5013 32.5619 38.5515 32.3631 38.647L28.5001 35.75V33.5H27.5001V36.25L31.6481 39.361C31.5096 39.6551 31.4704 39.9862 31.5364 40.3045C31.6024 40.6228 31.77 40.911 32.0139 41.1258C32.2579 41.3406 32.565 41.4703 32.8891 41.4955C33.2132 41.5206 33.5367 41.4398 33.8109 41.2652C34.0851 41.0906 34.2951 40.8316 34.4094 40.5273C34.5237 40.223 34.536 39.8898 34.4445 39.5779C34.3531 39.266 34.1628 38.9922 33.9022 38.7978C33.6417 38.6034 33.3251 38.4989 33.0001 38.5ZM33.0001 40.5C32.9012 40.5 32.8045 40.4707 32.7223 40.4157C32.64 40.3608 32.576 40.2827 32.5381 40.1913C32.5003 40.1 32.4904 39.9994 32.5097 39.9024C32.529 39.8055 32.5766 39.7164 32.6465 39.6464C32.7164 39.5765 32.8055 39.5289 32.9025 39.5096C32.9995 39.4903 33.1 39.5002 33.1914 39.538C33.2828 39.5759 33.3608 39.64 33.4158 39.7222C33.4707 39.8044 33.5001 39.9011 33.5001 40C33.5001 40.1326 33.4474 40.2598 33.3536 40.3535C33.2598 40.4473 33.1327 40.5 33.0001 40.5ZM40.5 20C40.4982 21.5493 39.9431 23.047 38.9347 24.2231C37.9263 25.3993 36.5309 26.1766 35.0001 26.415V25.4C36.3396 25.1412 37.5351 24.3939 38.3544 23.3031C39.1738 22.2123 39.5585 20.8559 39.4339 19.4973C39.3093 18.1388 38.6842 16.875 37.68 15.9515C36.6758 15.028 35.3643 14.5107 34.0001 14.5H33.5001V14C33.5 12.3925 32.9043 10.8419 31.828 9.64793C30.7517 8.45391 29.2711 7.70109 27.6722 7.53487C26.0732 7.36865 24.4694 7.80082 23.1705 8.74791C21.8716 9.69501 20.9697 11.0898 20.6391 12.663L20.4171 13.722L19.7541 12.867C19.4309 12.4428 19.0144 12.0988 18.5368 11.8617C18.0591 11.6246 17.5333 11.5009 17.0001 11.5C16.0718 11.5 15.1816 11.8687 14.5252 12.5251C13.8688 13.1815 13.5001 14.0717 13.5001 15C13.5042 15.3 13.5476 15.5982 13.6291 15.887L13.8001 16.534L13.0001 16.502C11.8066 16.502 10.662 16.9761 9.81807 17.82C8.97416 18.6639 8.50005 19.8085 8.50005 21.002C8.50005 22.1955 8.97416 23.3401 9.81807 24.184C10.662 25.0279 11.8066 25.502 13.0001 25.502V26.502C11.5824 26.5008 10.2199 25.9522 9.19688 24.9707C8.17389 23.9892 7.5694 22.6506 7.50955 21.2342C7.44969 19.8178 7.93909 18.4329 8.87563 17.3686C9.81217 16.3043 11.1235 15.6428 12.5361 15.522C12.5123 15.349 12.5003 15.1746 12.5001 15C12.5014 13.8069 12.9759 12.6631 13.8195 11.8195C14.6632 10.9758 15.807 10.5013 17.0001 10.5C18.0646 10.4997 19.0937 10.8819 19.9001 11.577C20.4602 9.93481 21.5724 8.53765 23.0472 7.62354C24.522 6.70944 26.2681 6.33495 27.988 6.56387C29.7079 6.79279 31.2952 7.61096 32.4796 8.87899C33.6639 10.147 34.3719 11.7865 34.4831 13.518C36.118 13.6419 37.646 14.3784 38.7615 15.5801C39.8771 16.7818 40.4979 18.3603 40.5 20Z" fill="currentColor"/>
</g>
<defs>
<clipPath id="clip0_141_2032">
<rect width="48" height="48" fill="currentColor"/>
</clipPath>
</defs>
</svg>