<svg width="48" height="48" viewBox="0 0 48 48" fill="none" xmlns="http://www.w3.org/2000/svg">
<g clip-path="url(#clip0_2495_780)">
<path d="M22.5098 34.5087H5.50977V13.5087H22.5098V15.5087H23.5098V12.5087H4.50977V35.5087H23.5098V32.5087H22.5098V34.5087Z" fill="black"/>
<path d="M22.9898 21.4887C21.6098 21.4887 20.4898 22.6087 20.4898 23.9887C20.4898 25.3687 21.6098 26.4887 22.9898 26.4887C24.3698 26.4887 25.4898 25.3687 25.4898 23.9887C25.4898 22.6087 24.3698 21.4887 22.9898 21.4887ZM22.9898 25.4887C22.1598 25.4887 21.4898 24.8187 21.4898 23.9887C21.4898 23.1587 22.1598 22.4887 22.9898 22.4887C23.8198 22.4887 24.4898 23.1587 24.4898 23.9887C24.4898 24.8187 23.8198 25.4887 22.9898 25.4887Z" fill="black"/>
<path d="M27.7598 24.2687C27.7598 24.1687 27.7698 24.0787 27.7698 23.9787C27.7698 23.8987 27.7698 23.8187 27.7698 23.7287L29.3898 22.0587L27.8498 19.3887L25.6298 19.9887C25.4798 19.8887 25.3298 19.7987 25.1698 19.7187L24.5298 17.4787H21.4498L20.8598 19.6987C20.6998 19.7787 20.5498 19.8687 20.3998 19.9687L18.1398 19.4087L16.5998 22.0787L18.2298 23.7087C18.2298 23.8087 18.2198 23.8987 18.2198 23.9987C18.2198 24.0787 18.2198 24.1587 18.2198 24.2487L16.5998 25.9187L18.1398 28.5887L20.3598 27.9887C20.5098 28.0887 20.6598 28.1787 20.8198 28.2587L21.4598 30.4987H24.5398L25.1398 28.2787C25.2998 28.1987 25.4498 28.1087 25.5998 28.0087L27.8598 28.5787L29.3998 25.9087L27.7598 24.2687ZM25.3898 26.9187L25.1998 27.0587C24.9798 27.2187 24.7498 27.3487 24.4998 27.4587L24.2798 27.5587L23.7598 29.4887H22.1998L21.6398 27.5387L21.4298 27.4387C21.1898 27.3287 20.9598 27.1987 20.7398 27.0287L20.5498 26.8887L18.6098 27.4087L17.8298 26.0587L19.2398 24.5987L19.2198 24.3687C19.2098 24.2287 19.1998 24.1087 19.1998 23.9887C19.1998 23.8587 19.1998 23.7287 19.2298 23.5687L19.2598 23.3287L17.8398 21.9087L18.6198 20.5587L20.5898 21.0487L20.7798 20.9087C20.9998 20.7487 21.2398 20.6187 21.4798 20.5087L21.6998 20.4087L22.2198 18.4787H23.7798L24.3398 20.4287L24.5498 20.5287C24.7898 20.6387 25.0198 20.7787 25.2398 20.9387L25.4298 21.0787L27.3698 20.5587L28.1498 21.9087L26.7398 23.3687L26.7598 23.5987C26.7698 23.7387 26.7798 23.8587 26.7798 23.9787C26.7798 24.1087 26.7798 24.2387 26.7498 24.3987L26.7198 24.6387L28.1398 26.0587L27.3598 27.4087L25.3798 26.9087L25.3898 26.9187Z" fill="black"/>
<path d="M41.0098 25.4887C40.7698 25.4887 40.5398 25.5287 40.3298 25.5987L39.2598 23.9887L40.3298 22.3887C40.5398 22.4487 40.7598 22.4887 40.9798 22.4887C42.3598 22.4887 43.4798 21.3687 43.4798 19.9887C43.4798 18.6087 42.3598 17.4887 40.9798 17.4887C40.4598 17.4887 39.9898 17.6487 39.5898 17.9187L35.3798 15.6387C35.4398 15.4287 35.4698 15.2187 35.4698 14.9987C35.4698 13.6187 34.3498 12.4987 32.9698 12.4987C31.5898 12.4987 30.4698 13.6187 30.4698 14.9987C30.4698 15.2387 30.5098 15.4587 30.5698 15.6787L27.3098 17.8887L27.8698 18.7187L30.4398 16.9787L29.3398 19.2587L30.2398 19.6987L31.5198 17.0487C31.9298 17.3387 32.4198 17.5187 32.9598 17.5187C33.1998 17.5187 33.4198 17.4787 33.6398 17.4087L36.4998 21.6987L34.9398 22.4787C34.4798 21.8987 33.7798 21.5187 32.9798 21.5187H32.9398C31.5598 21.5387 30.4598 22.6887 30.4798 24.0587C30.4898 24.7287 30.7598 25.3487 31.2398 25.8087C31.7098 26.2587 32.3198 26.5087 32.9698 26.5087H33.0198C33.7998 26.4987 34.4798 26.1187 34.9298 25.5487L36.4898 26.3287L33.6198 30.6287C33.4098 30.5687 33.1898 30.5287 32.9698 30.5287C32.4298 30.5287 31.9298 30.7087 31.5198 30.9987L30.2198 28.3587L29.3198 28.7987L30.4298 31.0487L27.8498 29.3287L27.2998 30.1587L30.5798 32.3387C30.5198 32.5587 30.4698 32.7787 30.4698 33.0187C30.4698 34.3987 31.5898 35.5187 32.9698 35.5187C34.3498 35.5187 35.4698 34.3987 35.4698 33.0187C35.4698 32.7787 35.4298 32.5587 35.3598 32.3387L39.1998 29.7387C39.6498 30.2087 40.2898 30.5087 40.9898 30.5087C42.3698 30.5087 43.4898 29.3887 43.4898 28.0087C43.4898 26.6287 42.3698 25.5087 40.9898 25.5087L41.0098 25.4887ZM39.4398 26.0587C39.2998 26.1787 39.1698 26.3087 39.0498 26.4587L37.9698 25.9187L38.6598 24.8887L39.4398 26.0587ZM38.6498 23.0887L37.9598 22.0587L39.0098 21.5287C39.1298 21.6787 39.2598 21.8087 39.4098 21.9287L38.6398 23.0787L38.6498 23.0887ZM42.4698 19.9887C42.4698 20.8187 41.7998 21.4887 40.9698 21.4887C40.1398 21.4887 39.4698 20.8187 39.4698 19.9887C39.4698 19.1587 40.1398 18.4887 40.9698 18.4887C41.7998 18.4887 42.4698 19.1587 42.4698 19.9887ZM31.4698 14.9887C31.4698 14.1587 32.1398 13.4887 32.9698 13.4887C33.7998 13.4887 34.4698 14.1587 34.4698 14.9887C34.4698 15.8187 33.7998 16.4887 32.9698 16.4887C32.1398 16.4887 31.4698 15.8187 31.4698 14.9887ZM34.5398 16.9187C34.6798 16.7987 34.8098 16.6687 34.9298 16.5287L38.8698 18.6687C38.6298 19.0587 38.4798 19.5087 38.4798 19.9987C38.4798 20.2287 38.5198 20.4387 38.5798 20.6487L37.4198 21.2287L34.5498 16.9287L34.5398 16.9187ZM33.0098 25.4887H32.9798C32.1698 25.4887 31.4998 24.8287 31.4798 24.0187C31.4698 23.1887 32.1298 22.5087 32.9498 22.4887H32.9798C33.7998 22.4887 34.4698 23.1487 34.4798 23.9587C34.4898 24.7887 33.8298 25.4687 33.0098 25.4887ZM35.3898 24.6287C35.4498 24.4087 35.4898 24.1787 35.4898 23.9387C35.4898 23.7287 35.4498 23.5287 35.3998 23.3387L37.0698 22.4987L38.0598 23.9787L37.0698 25.4587L35.3998 24.6187L35.3898 24.6287ZM32.9898 34.5087C32.1598 34.5087 31.4898 33.8387 31.4898 33.0087C31.4898 32.1787 32.1598 31.5087 32.9898 31.5087C33.8198 31.5087 34.4898 32.1787 34.4898 33.0087C34.4898 33.8387 33.8198 34.5087 32.9898 34.5087ZM34.9098 31.4387C34.7998 31.2987 34.6698 31.1787 34.5298 31.0687L37.3998 26.7687L38.5898 27.3687C38.5398 27.5687 38.4998 27.7787 38.4998 27.9987C38.4998 28.3087 38.5598 28.6087 38.6698 28.8887L34.8998 31.4487L34.9098 31.4387ZM41.0098 29.4887C40.1798 29.4887 39.5098 28.8187 39.5098 27.9887C39.5098 27.1587 40.1798 26.4887 41.0098 26.4887C41.8398 26.4887 42.5098 27.1587 42.5098 27.9887C42.5098 28.8187 41.8398 29.4887 41.0098 29.4887Z" fill="black"/>
<path d="M15.0098 24.2987L14.0598 25.2487L11.0198 21.1887L5.96977 27.5087H15.5098V26.5087H14.2198L15.7198 25.0087L15.0098 24.2987ZM8.04977 26.5087L10.9998 22.8287L13.7598 26.5087H8.04977Z" fill="black"/>
</g>
<defs>
<clipPath id="clip0_2495_780">
<rect width="48" height="48" fill="white"/>
</clipPath>
</defs>
</svg>
