<svg viewBox="0 0 48 48" fill="none" xmlns="http://www.w3.org/2000/svg">
<g clip-path="url(#clip0_24_363)">
<g clip-path="url(#clip1_24_363)">
<path d="M19.2181 41.8506C15.2837 40.8026 11.8058 38.4841 9.32503 35.2556C6.84425 32.0272 5.49955 28.0695 5.5 23.998C5.50045 19.9265 6.846 15.9691 9.3275 12.7412C11.809 9.51328 15.2874 7.19559 19.222 6.14844L19.4803 7.11328C15.7584 8.10382 12.4679 10.2962 10.1206 13.3497C7.77319 16.4032 6.50035 20.1466 6.49992 23.9981C6.4995 27.8495 7.77151 31.5933 10.1182 34.6473C12.4649 37.7012 15.7548 39.8944 19.4765 40.8857L19.2181 41.8506ZM10.4999 24C10.5052 26.9696 11.4886 29.8547 13.2981 32.2093C15.1076 34.5639 17.6423 36.2568 20.5104 37.0264L20.7689 36.0615C18.1105 35.3534 15.7606 33.7868 14.0843 31.6054C12.4081 29.4239 11.4995 26.7498 11.4998 23.9987C11.5001 21.2476 12.4093 18.5737 14.086 16.3927C15.7627 14.2116 18.1131 12.6455 20.7716 11.938L20.5134 10.9731C17.6446 11.7421 15.109 13.4348 13.299 15.7896C11.4889 18.1444 10.5052 21.0299 10.4999 24ZM15.4999 24C15.5034 25.8697 16.1226 27.6862 17.2619 29.1687C18.4012 30.6511 19.997 31.7171 21.8028 32.2017L22.0613 31.2368C20.4663 30.8119 19.0563 29.872 18.0506 28.5631C17.0449 27.2543 16.4997 25.6498 16.4999 23.9991C16.5001 22.3485 17.0456 20.7442 18.0516 19.4355C19.0576 18.1269 20.4678 17.1872 22.0629 16.7627L21.8047 15.7978C19.9984 16.2821 18.4021 17.3479 17.2624 18.8306C16.1228 20.3132 15.5033 22.13 15.4999 24ZM42.4999 24C42.4927 19.93 41.1446 15.9757 38.6642 12.7488C36.1837 9.52191 32.7092 7.20219 28.7779 6.14844L28.5196 7.11328C32.2415 8.10382 35.5319 10.2962 37.8793 13.3497C40.2267 16.4032 41.4995 20.1466 41.5 23.9981C41.5004 27.8495 40.2284 31.5933 37.8817 34.6473C35.535 37.7012 32.2451 39.8944 28.5234 40.8857L28.7818 41.8506C32.7122 40.7961 36.1857 38.4762 38.6654 35.2496C41.145 32.023 42.4927 28.0694 42.4999 24ZM37.4999 24C37.4947 21.0299 36.5109 18.1444 34.7009 15.7896C32.8908 13.4348 30.3553 11.7421 27.4865 10.9731L27.2283 11.938C29.8868 12.6455 32.2371 14.2116 33.9138 16.3926C35.5905 18.5737 36.4997 21.2476 36.5 23.9987C36.5003 26.7498 35.5917 29.4239 33.9155 31.6054C32.2393 33.7868 29.8893 35.3534 27.2309 36.0615L27.4894 37.0264C30.3575 36.2568 32.8923 34.5639 34.7017 32.2093C36.5112 29.8547 37.4946 26.9696 37.4999 24ZM32.4999 24C32.4965 22.13 31.8771 20.3132 30.7374 18.8306C29.5978 17.3479 28.0014 16.2821 26.1952 15.7978L25.9369 16.7627C27.532 17.1872 28.9422 18.1269 29.9482 19.4355C30.9543 20.7442 31.4998 22.3485 31.4999 23.9991C31.5001 25.6498 30.955 27.2543 29.9492 28.5631C28.9435 29.872 27.5335 30.8119 25.9385 31.2368L26.197 32.2017C28.0028 31.7171 29.5987 30.6511 30.738 29.1687C31.8773 27.6862 32.4965 25.8697 32.4999 24ZM27.4999 23.9998C27.4999 23.3075 27.2946 22.6308 26.9101 22.0553C26.5255 21.4797 25.9789 21.0311 25.3393 20.7662C24.6998 20.5013 23.996 20.432 23.3171 20.567C22.6382 20.7021 22.0145 21.0354 21.525 21.5249C21.0356 22.0144 20.7022 22.638 20.5672 23.3169C20.4321 23.9959 20.5014 24.6996 20.7663 25.3391C21.0313 25.9787 21.4799 26.5253 22.0554 26.9099C22.631 27.2945 23.3077 27.4998 23.9999 27.4998C24.9278 27.4987 25.8175 27.1296 26.4736 26.4734C27.1297 25.8173 27.4988 24.9277 27.4999 23.9998ZM26.4999 23.9998C26.4999 24.4942 26.3533 24.9776 26.0786 25.3887C25.8039 25.7998 25.4134 26.1202 24.9566 26.3095C24.4998 26.4987 23.9971 26.5482 23.5122 26.4517C23.0272 26.3553 22.5818 26.1172 22.2322 25.7675C21.8825 25.4179 21.6444 24.9724 21.548 24.4875C21.4515 24.0025 21.501 23.4999 21.6902 23.043C21.8794 22.5862 22.1999 22.1958 22.611 21.9211C23.0221 21.6464 23.5055 21.4998 23.9999 21.4998C24.6628 21.5004 25.2982 21.764 25.7669 22.2327C26.2356 22.7014 26.4992 23.3369 26.4999 23.9998ZM33.2236 33.7947C34.5723 32.5444 35.6484 31.0291 36.3842 29.3436C37.1201 27.6582 37.4999 25.8389 37.4999 23.9998C37.4999 22.1606 37.1201 20.3414 36.3842 18.6559C35.6484 16.9704 34.5723 15.4551 33.2236 14.2048L32.8573 13.8647L32.1767 14.598L32.5439 14.938C33.7916 16.0947 34.7871 17.4966 35.4678 19.056C36.1485 20.6153 36.4999 22.2984 36.4999 23.9998C36.4999 25.7012 36.1485 27.3843 35.4678 28.9436C34.7871 30.5029 33.7916 31.9048 32.5439 33.0615L32.1767 33.4015L32.8573 34.1348L33.2236 33.7947Z" fill="currentColor"/>
</g>
</g>
<defs>
<clipPath id="clip0_24_363">
<rect width="48" height="48" fill="currentColor"/>
</clipPath>
<clipPath id="clip1_24_363">
<rect width="48" height="48" fill="currentColor"/>
</clipPath>
</defs>
</svg>