<svg viewBox="0 0 48 48" fill="none" xmlns="http://www.w3.org/2000/svg">
<g clip-path="url(#clip0_24_156)">
<g clip-path="url(#clip1_24_156)">
<path d="M41.1196 23.1807C41.8671 22.4908 42.4643 21.6543 42.8739 20.7232C43.2834 19.7922 43.4966 18.7867 43.5 17.7695C43.5 13.7046 40.7656 9.5 36.1904 9.5C34.9739 9.54246 33.784 9.86754 32.7148 10.4495C31.6457 11.0315 30.7268 11.8544 30.0307 12.853C29.3321 11.8427 28.4041 11.0122 27.3228 10.4294C26.2415 9.8466 25.0376 9.52812 23.8096 9.5C22.6295 9.50178 21.4697 9.80694 20.4416 10.3862C19.4135 10.9654 18.5515 11.7992 17.9386 12.8076C16.5656 11.0396 15.5041 9.8169 15.3764 9.67091L15 9.24023L14.6235 9.67091C14.2305 10.1206 4.99999 20.7432 4.99999 26.2515C4.97487 28.8474 5.94584 31.3541 7.71305 33.2557C9.48026 35.1574 11.9092 36.3092 14.5 36.4741V38.5H10.5V39.5H37.5V38.5H30.5V32.231L41.1196 23.1807ZM23.8096 10.5C24.9863 10.5379 26.1337 10.8768 27.1422 11.4844C28.1507 12.0919 28.9867 12.9477 29.5703 13.9702L29.9556 14.6167L30.4023 14.0112C31.5141 12.5039 33.3242 10.5 36.1904 10.5C40.1401 10.5 42.5 14.1963 42.5 17.7695C42.4969 18.6463 42.3134 19.513 41.9612 20.3159C41.6089 21.1188 41.0952 21.8406 40.4521 22.4365L30 31.3433L24.9606 27.0488C24.9805 26.7852 25 26.521 25 26.2515C25 22.8052 21.3862 17.3565 18.5847 13.6499C19.0912 12.703 19.844 11.9104 20.7637 11.356C21.6833 10.8015 22.7357 10.5058 23.8096 10.5ZM5.99999 26.2515C5.99999 21.7139 13.2495 12.8452 15 10.77C16.7505 12.8447 24 21.7119 24 26.2514C24.0251 28.5823 23.1593 30.8349 21.5795 32.549C19.9998 34.2631 17.8252 35.3093 15.5 35.4741V32.707L20.3535 27.8535L19.6465 27.1465L15.5 31.293V25.229L19.3755 21.3535L18.6685 20.6465L15.5 23.8149V17H14.5V23.771L11.3755 20.6465L10.6685 21.3535L14.5 25.1851V31.293L10.3535 27.1465L9.64651 27.8535L14.5 32.707V35.4741C12.1748 35.3093 10.0002 34.263 8.42044 32.549C6.84067 30.8349 5.97491 28.5824 5.99999 26.2515ZM15.5 38.5V36.4741C17.7489 36.3372 19.8873 35.4514 21.5744 33.9579C23.2614 32.4644 24.3999 30.4492 24.8086 28.2334L29.5 32.231V38.5H15.5Z" fill="currentColor"/>
</g>
</g>
<defs>
<clipPath id="clip0_24_156">
<rect width="48" height="48" fill="currentColor"/>
</clipPath>
<clipPath id="clip1_24_156">
<rect width="48" height="48" fill="currentColor"/>
</clipPath>
</defs>
</svg>