<svg viewBox="0 0 48 48" fill="none" xmlns="http://www.w3.org/2000/svg">
<g clip-path="url(#clip0_141_2003)">
<path d="M24.5 27.065V43H23.5V27.065L21 29.565V28.151L24 25.151L27 28.151V29.566L24.5 27.065ZM17.757 23L18.757 24H23V19.758L22 18.758V22.293L11 11.293L10.293 12L21.293 23H17.757ZM26 18.758L25 19.758V24H29.243L30.243 23H26.707L37.707 12L37 11.293L26 22.293V18.758ZM26 31.221V32.252C27.2305 31.9581 28.3794 31.3922 29.3625 30.5959C30.3455 29.7996 31.1376 28.7931 31.6805 27.6504C32.2235 26.5078 32.5034 25.258 32.4999 23.9929C32.4963 22.7278 32.2093 21.4796 31.66 20.34L30.912 21.088C31.3259 22.0702 31.5255 23.1293 31.4975 24.1947C31.4695 25.2601 31.2146 26.3073 30.7496 27.2664C30.2847 28.2254 29.6206 29.0743 28.8015 29.7562C27.9825 30.4382 27.0274 30.9375 26 31.221ZM37.482 14.521L36.768 15.233C38.2728 17.4175 39.1908 19.9521 39.4337 22.5936C39.6766 25.2351 39.2363 27.8947 38.155 30.317C37.0738 32.7392 35.3879 34.8428 33.2593 36.4257C31.1308 38.0086 28.631 39.0177 26 39.356V40.366C28.8305 40.0259 31.5242 38.9566 33.8173 37.2629C36.1105 35.5691 37.9245 33.3089 39.0819 30.7036C40.2393 28.0982 40.7003 25.237 40.4199 22.3999C40.1394 19.5629 39.1271 16.8473 37.482 14.519V14.521ZM16.5 24C16.4992 22.9998 16.6991 22.0096 17.088 21.088L16.34 20.34C15.7906 21.4796 15.5036 22.7278 15.5001 23.9929C15.4965 25.258 15.7765 26.5078 16.3195 27.6504C16.8624 28.7931 17.6545 29.7996 18.6375 30.5959C19.6205 31.3922 20.7695 31.9581 22 32.252V31.221C20.4206 30.7828 19.0281 29.8398 18.035 28.5359C17.0419 27.2321 16.5028 25.639 16.5 24ZM8.49999 24C8.49795 20.8672 9.45098 17.8083 11.232 15.231L10.518 14.519C8.87289 16.8473 7.86057 19.5629 7.58011 22.3999C7.29966 25.237 7.76068 28.0982 8.91806 30.7036C10.0754 33.3089 11.8895 35.5691 14.1827 37.2629C16.4758 38.9566 19.1695 40.0259 22 40.366V39.356C18.2705 38.8682 14.8453 37.0419 12.3619 34.217C9.87849 31.3922 8.50604 27.7613 8.49999 24ZM28.919 17.081C27.4848 16.0529 25.7646 15.5001 24 15.5001C22.2354 15.5001 20.5152 16.0529 19.081 17.081L19.794 17.794C21.0346 16.9509 22.5 16.5001 24 16.5001C25.5 16.5001 26.9654 16.9509 28.206 17.794L28.919 17.081ZM24 8.50001C27.6218 8.4973 31.129 9.76927 33.907 12.093L34.614 11.386C31.6466 8.87674 27.8861 7.49994 24 7.49994C20.1139 7.49994 16.3534 8.87674 13.386 11.386L14.093 12.093C16.871 9.76927 20.3782 8.4973 24 8.50001Z" fill="currentColor"/>
</g>
<defs>
<clipPath id="clip0_141_2003">
<rect width="48" height="48" fill="currentColor"/>
</clipPath>
</defs>
</svg>