<svg width="48" height="48" viewBox="0 0 48 48" fill="none" xmlns="http://www.w3.org/2000/svg">
<g clip-path="url(#clip0_2221_979)">
<path d="M35.5 13.5H29.5V6.5H26.5V13.5H21.5V6.5H18.5V13.5H12.5V16.5H14.5V24L16.2231 30.5H23.5V37C23.5 38.9297 21.9297 40.5 20 40.5H11V41.5H20C22.4815 41.5 24.5 39.4815 24.5 37V30.5H31.7759L33.4829 24.1294L33.4981 16.5H35.5V13.5ZM27.5 7.5H28.5V13.5H27.5V7.5ZM19.5 7.5H20.5V13.5H19.5V7.5ZM32.5 23.9341L31.0083 29.5H16.9907L15.5 23.9341V16.5H32.5V23.9341ZM34.5 15.5H13.5V14.5H34.5V15.5ZM23.5 27.8052L27.8833 20.5H24.8477L25.6514 17.5H21.6162L20.0083 23.5H23.5V27.8052ZM21.312 22.5L22.3838 18.5H24.3486L23.5449 21.5H26.1167L24.5 24.1948V22.5H21.312Z" fill="black"/>
</g>
<defs>
<clipPath id="clip0_2221_979">
<rect width="48" height="48" fill="white"/>
</clipPath>
</defs>
</svg>
