<svg viewBox="0 0 48 48" fill="none" xmlns="http://www.w3.org/2000/svg">
<g clip-path="url(#clip0_144_3971)">
<path d="M41.305 24.362L6.362 36.695L6.695 37.638L22.752 31.971L19.066 37.5H28.934L24.773 31.257L41.638 25.305L41.305 24.362ZM20.934 36.5L24 31.9L27.066 36.5H20.934ZM11 33.5C12.2856 33.5 13.5423 33.1188 14.6112 32.4046C15.6801 31.6903 16.5132 30.6752 17.0052 29.4874C17.4972 28.2997 17.6259 26.9928 17.3751 25.7319C17.1243 24.471 16.5052 23.3128 15.5962 22.4038C14.6872 21.4948 13.529 20.8757 12.2681 20.6249C11.0072 20.3741 9.70028 20.5028 8.51256 20.9948C7.32484 21.4868 6.30968 22.3199 5.59545 23.3888C4.88122 24.4577 4.5 25.7144 4.5 27C4.50212 28.7233 5.18762 30.3753 6.40614 31.5939C7.62467 32.8124 9.27674 33.4979 11 33.5ZM11 21.5C12.0878 21.5 13.1512 21.8226 14.0556 22.4269C14.9601 23.0313 15.6651 23.8902 16.0813 24.8952C16.4976 25.9002 16.6065 27.0061 16.3943 28.073C16.1821 29.1399 15.6583 30.1199 14.8891 30.8891C14.1199 31.6583 13.1399 32.1821 12.073 32.3943C11.0061 32.6065 9.90023 32.4976 8.89524 32.0813C7.89025 31.6651 7.03126 30.9601 6.42692 30.0556C5.82257 29.1512 5.5 28.0878 5.5 27C5.50159 25.5418 6.08156 24.1438 7.11267 23.1127C8.14377 22.0816 9.5418 21.5016 11 21.5ZM38 15.5C38.89 15.5 39.76 15.2361 40.5001 14.7416C41.2401 14.2471 41.8169 13.5443 42.1575 12.7221C42.4981 11.8998 42.5872 10.995 42.4135 10.1221C42.2399 9.24918 41.8113 8.44736 41.182 7.81802C40.5526 7.18868 39.7508 6.7601 38.8779 6.58647C38.005 6.41283 37.1002 6.50195 36.2779 6.84254C35.4557 7.18314 34.7529 7.75991 34.2584 8.49994C33.7639 9.23996 33.5 10.11 33.5 11C33.5013 12.1931 33.9759 13.3369 34.8195 14.1805C35.6631 15.0241 36.8069 15.4987 38 15.5ZM38 7.5C38.6922 7.5 39.3689 7.70527 39.9445 8.08986C40.5201 8.47444 40.9687 9.02107 41.2336 9.66061C41.4985 10.3002 41.5678 11.0039 41.4327 11.6828C41.2977 12.3618 40.9644 12.9854 40.4749 13.4749C39.9854 13.9644 39.3617 14.2977 38.6828 14.4328C38.0039 14.5678 37.3001 14.4985 36.6606 14.2336C36.0211 13.9687 35.4744 13.5201 35.0899 12.9445C34.7053 12.3689 34.5 11.6922 34.5 11C34.5 10.0717 34.8687 9.18151 35.5251 8.52513C36.1815 7.86875 37.0717 7.5 38 7.5ZM36.5 23.5V16.5H37.5V23.5H36.5ZM38.5 21.5V17.5H39.5V21.5H38.5Z" fill="currentColor"/>
</g>
<defs>
<clipPath id="clip0_144_3971">
<rect width="48" height="48" fill="currentColor"/>
</clipPath>
</defs>
</svg>