<svg viewBox="0 0 48 48" fill="none" xmlns="http://www.w3.org/2000/svg">
<g clip-path="url(#clip0_24_37)">
<g clip-path="url(#clip1_24_37)">
<path d="M5.56885 11.5V38.5H8.56885V36.5H16.5688V38.5H35.5688V36.5H42.5688V11.5H5.56885ZM6.56885 15.5H10.5688V18.5H6.56885V15.5ZM10.5688 19.5V22.5H6.56885V19.5H10.5688ZM6.56885 25.5H13.5688V28.5H6.56885V25.5ZM13.5688 29.5V32.5H6.56885V29.5H13.5688ZM34.5688 37.5H17.5688V36.5H34.5688V37.5ZM41.5688 18.5H39.5688V15.5H41.5688V18.5ZM39.5678 14.5H37.5678V15.5H38.5688V16.5H37.5678V17.5H38.5688V18.5H37.5678V19.5H41.5688V35.5H7.56885V37.5H6.56885V33.5H14.5688V24.5H6.56885V23.5H11.5688V14.5H6.56885V12.5H41.5688V14.5H39.5678ZM24.5688 14.5H18.5688V19.5H28.5688V14.5H24.5688ZM21.5688 18.5H19.5688V15.5H21.5688V18.5ZM24.5688 18.5H22.5688V15.5H24.5688V18.5ZM27.5688 15.5V18.5H25.5688V15.5H27.5688ZM29.5688 23.5V27.5H34.5688V20.5H29.5688V23.5ZM33.5688 26.5H30.5688V24.5H33.5688V26.5ZM30.5688 21.5H33.5688V23.5H30.5688V21.5ZM19.5688 29.5H26.5688V22.5H19.5688V29.5ZM20.5688 23.5H25.5688V28.5H20.5688V23.5ZM17.5688 31.5H28.5688V20.5H17.5688V31.5ZM18.5688 21.5H27.5688V30.5H18.5688V21.5Z" fill="currentColor"/>
</g>
</g>
<defs>
<clipPath id="clip0_24_37">
<rect width="48" height="48" fill="currentColor"/>
</clipPath>
<clipPath id="clip1_24_37">
<rect width="48" height="48" fill="currentColor"/>
</clipPath>
</defs>
</svg>