<svg viewBox="0 0 48 48" fill="none" xmlns="http://www.w3.org/2000/svg">
<g clip-path="url(#clip0_24_412)">
<g clip-path="url(#clip1_24_412)">
<path d="M19 21.5C19.6922 21.5 20.3689 21.2947 20.9445 20.9101C21.5201 20.5256 21.9687 19.9789 22.2336 19.3394C22.4985 18.6999 22.5678 17.9961 22.4327 17.3172C22.2977 16.6383 21.9644 16.0146 21.4749 15.5251C20.9854 15.0356 20.3617 14.7023 19.6828 14.5673C19.0039 14.4322 18.3001 14.5015 17.6606 14.7664C17.0211 15.0313 16.4744 15.4799 16.0899 16.0555C15.7053 16.6311 15.5 17.3078 15.5 18C15.5011 18.9279 15.8702 19.8175 16.5264 20.4736C17.1825 21.1298 18.0721 21.4989 19 21.5ZM19 15.5C19.4945 15.5 19.9778 15.6466 20.3889 15.9213C20.8 16.196 21.1205 16.5865 21.3097 17.0433C21.4989 17.5001 21.5484 18.0028 21.452 18.4877C21.3555 18.9727 21.1174 19.4181 20.7678 19.7678C20.4181 20.1174 19.9727 20.3555 19.4877 20.452C19.0028 20.5484 18.5001 20.4989 18.0433 20.3097C17.5865 20.1205 17.196 19.8 16.9213 19.3889C16.6466 18.9778 16.5 18.4945 16.5 18C16.5008 17.3372 16.7644 16.7018 17.2331 16.2331C17.7018 15.7644 18.3372 15.5008 19 15.5ZM27.5854 22.0972L25.7378 21.332L26.1206 20.4082L27.9683 21.1733L27.5854 22.0972ZM24.814 20.9492L22.9664 20.1841L23.3492 19.2603L25.1968 20.0254L24.814 20.9492ZM28.4622 25.02L31.5515 23.7402L28.5093 22.48L28.8921 21.5562L31.9346 22.8164L30.6546 19.7271L31.9612 20.2681L33.5117 24.0107L29.769 25.561L28.4622 25.02ZM19.5 27.793L21 26.293V27.707L19 29.707L17 27.707V26.293L18.5 27.793V22.5H19.5V27.793ZM19.5 18.5H18.5V17.5H19.5V18.5ZM42.5 33.5V10.5H5.5V33.5H20.3472L19.5435 36.5H16.5V37.5H31.499V36.5H28.4556L27.6514 33.5H42.5ZM6.5 11.5H41.5V32.5H6.5V11.5ZM27.4199 36.5H20.5789L21.3823 33.5H26.6162L27.4199 36.5ZM7.5 31.5H40.5V12.5H7.5V31.5ZM8.5 13.5H39.5V30.5H8.5V13.5ZM17.5 22.9912L13.9004 21.5H9.5V20.5205L14.1914 20.5381L17.5 21.9087V22.9912ZM20.5 23.1514L35.8271 29.5H33.2141L20.5 24.2334V23.1514Z" fill="currentColor"/>
</g>
</g>
<defs>
<clipPath id="clip0_24_412">
<rect width="48" height="48" fill="currentColor"/>
</clipPath>
<clipPath id="clip1_24_412">
<rect width="48" height="48" fill="currentColor"/>
</clipPath>
</defs>
</svg>