<svg viewBox="0 0 48 48" fill="none" xmlns="http://www.w3.org/2000/svg">
<g clip-path="url(#clip0_141_1014)">
<path d="M24.023 19.5C23.133 19.5 22.263 19.7639 21.5229 20.2584C20.7829 20.7529 20.2061 21.4557 19.8655 22.2779C19.5249 23.1002 19.4358 24.005 19.6095 24.8779C19.7831 25.7508 20.2117 26.5527 20.841 27.182C21.4704 27.8113 22.2722 28.2399 23.1451 28.4136C24.018 28.5872 24.9228 28.4981 25.7451 28.1575C26.5673 27.8169 27.2701 27.2401 27.7646 26.5001C28.2591 25.7601 28.523 24.89 28.523 24C28.5217 22.807 28.0471 21.6631 27.2035 20.8195C26.3599 19.9759 25.2161 19.5013 24.023 19.5ZM24.023 27.5C23.3308 27.5 22.6541 27.2948 22.0785 26.9102C21.5029 26.5256 21.0543 25.979 20.7894 25.3394C20.5245 24.6999 20.4552 23.9961 20.5903 23.3172C20.7253 22.6383 21.0586 22.0146 21.5481 21.5251C22.0376 21.0357 22.6612 20.7023 23.3402 20.5673C24.0191 20.4322 24.7229 20.5015 25.3624 20.7664C26.0019 21.0314 26.5486 21.48 26.9331 22.0555C27.3177 22.6311 27.523 23.3078 27.523 24C27.523 24.9283 27.1543 25.8185 26.4979 26.4749C25.8415 27.1313 24.9513 27.5 24.023 27.5ZM35.314 34.606L36.021 35.313L35.667 35.667C33.3723 37.9628 30.4512 39.5304 27.2696 40.1736C24.088 40.8167 20.7874 40.5067 17.7812 39.2824C14.7749 38.0581 12.1968 35.974 10.3697 33.2911C8.54267 30.6081 7.54789 27.4458 7.51 24.2L5 26.707V25.293L8 22.293L11 25.293V26.707L8.512 24.219C8.55341 27.2652 9.49202 30.2315 11.2104 32.7471C12.9289 35.2626 15.3508 37.2157 18.1734 38.3619C20.9959 39.5082 24.0938 39.7969 27.0796 39.1918C30.0653 38.5867 32.8064 37.1148 34.96 34.96L35.314 34.606ZM32.768 16.186L29.05 17.186C28.5522 16.8177 28.0157 16.5048 27.45 16.253L26.377 12.5H21.616L20.616 16.242C20.0633 16.4857 19.538 16.7874 19.049 17.142L15.232 16.187L12.852 20.31L15.6 23.07C15.5619 23.3786 15.5422 23.6891 15.541 24C15.5424 24.2857 15.5591 24.5711 15.591 24.855L12.848 27.691L15.228 31.814L18.979 30.814C19.4654 31.1757 19.9891 31.4844 20.541 31.735L21.623 35.5H26.384L27.384 31.778C27.9511 31.5322 28.4897 31.225 28.99 30.862L32.774 31.809L35.154 27.686L32.439 24.971C32.5212 24.3513 32.5242 23.7236 32.448 23.103L35.148 20.309L32.768 16.186ZM31.392 22.754L31.424 22.994C31.5289 23.6847 31.5252 24.3875 31.413 25.077L31.377 25.326L33.9 27.851L32.281 30.651L28.764 29.771L28.572 29.919C28.0228 30.3425 27.4169 30.6868 26.772 30.942L26.538 31.035L25.616 34.5H22.377L21.377 31L21.155 30.907C20.5252 30.6434 19.9347 30.2945 19.4 29.87L19.2 29.715L15.711 30.649L14.091 27.849L16.642 25.211L16.612 24.972C16.5682 24.6499 16.5458 24.3251 16.545 24C16.5478 23.6516 16.5748 23.3037 16.626 22.959L16.661 22.713L14.1 20.149L15.719 17.349L19.271 18.237L19.462 18.089C19.9999 17.6727 20.592 17.3316 21.222 17.075L21.453 16.982L22.385 13.504H25.624L26.624 16.99L26.849 17.082C27.4906 17.3452 28.0924 17.6966 28.637 18.126L28.837 18.28L32.292 17.355L33.912 20.155L31.392 22.754ZM43 21.293V22.707L40 25.707L37 22.707V21.293L39.489 23.782C39.4475 20.7351 38.5084 17.768 36.7892 15.252C35.07 12.7361 32.647 10.783 29.8234 9.6371C26.9998 8.49122 23.9009 8.20346 20.9146 8.8098C17.9283 9.41614 15.1871 10.8897 13.034 13.046L12.681 13.399L11.973 12.693L12.327 12.339C14.621 10.0415 17.5421 8.47223 20.7241 7.82774C23.9062 7.18325 27.2077 7.49226 30.2149 8.71605C33.2221 9.93984 35.8012 12.024 37.6291 14.7072C39.4569 17.3905 40.4521 20.5536 40.49 23.8L43 21.293Z" fill="currentColor"/>
</g>
<defs>
<clipPath id="clip0_141_1014">
<rect width="48" height="48" fill="currentColor"/>
</clipPath>
</defs>
</svg>