<?xml version="1.0" encoding="utf-8"?>
<!-- Generator: Adobe Illustrator 27.4.0, SVG Export Plug-In . SVG Version: 6.00 Build 0)  -->
<svg version="1.1" id="Art_3.0" xmlns="http://www.w3.org/2000/svg" xmlns:xlink="http://www.w3.org/1999/xlink" x="0px" y="0px"
	 viewBox="0 0 48 48" style="enable-background:new 0 0 48 48;" xml:space="preserve">
<style type="text/css">
	.st0{fill:#FFFFFF;fill-opacity:0;}
	.st1{fill:#FFFFFF;}
</style>
<rect class="st0" width="48" height="48"/>
<g>
	<polygon class="st1" points="43.5,8.5 32.5,8.5 32.5,12.5 33.5,12.5 33.5,9.5 42.5,9.5 42.5,34.5 32.5,34.5 32.5,35.5 
		36.19098,35.5 35.69092,36.5 33.5,36.5 33.5,37.5 36.30908,37.5 37.30908,35.5 38.69092,35.5 39.69092,37.5 42.5,37.5 42.5,36.5 
		40.30908,36.5 39.80902,35.5 43.5,35.5 	"/>
	<rect x="36.5" y="15.5" class="st1" width="5" height="1"/>
	<rect x="36.5" y="17.5" class="st1" width="5" height="1"/>
	<path class="st1" d="M36.5,30.5h4v-3h-4V30.5z M37.5,28.5h2v1h-2V28.5z"/>
	<path class="st1" d="M24.40967,36.5l-0.79987-4H35.5v-19h-31v19h11.8902l-0.79987,4H12.5v1h15v-1H24.40967z M5.5,14.5h29v17h-29
		V14.5z M16.60968,36.5l0.80017-4h5.1803l0.80017,4C23.39032,36.5,16.60968,36.5,16.60968,36.5z"/>
	<path class="st1" d="M6.5,30.5h27v-15h-27V30.5z M7.5,16.5h25v13h-25V16.5z"/>
</g>
</svg>
