<svg viewBox="0 0 48 48" fill="none" xmlns="http://www.w3.org/2000/svg">
<g clip-path="url(#clip0_144_3196)">
<path d="M30 19.494C30.2459 19.4948 30.4882 19.4352 30.7057 19.3203C30.9231 19.2055 31.109 19.0389 31.2469 18.8353C31.3848 18.6318 31.4706 18.3974 31.4966 18.1529C31.5227 17.9083 31.4882 17.6612 31.3962 17.4331C31.3043 17.205 31.1577 17.0031 30.9693 16.845C30.7809 16.6869 30.5566 16.5776 30.316 16.5266C30.0755 16.4756 29.8261 16.4846 29.5898 16.5526C29.3535 16.6207 29.1376 16.7458 28.961 16.917L25.482 15.177C25.4915 15.1167 25.4975 15.056 25.5 14.995C25.5 14.5972 25.342 14.2156 25.0607 13.9343C24.7794 13.653 24.3978 13.495 24 13.495C23.6022 13.495 23.2206 13.653 22.9393 13.9343C22.658 14.2156 22.5 14.5972 22.5 14.995C22.5025 15.056 22.5085 15.1167 22.518 15.177L19.006 16.933C18.8139 16.7525 18.5777 16.6255 18.3212 16.5648C18.0646 16.504 17.7966 16.5117 17.544 16.5869C17.2913 16.6622 17.0628 16.8024 16.8812 16.9936C16.6997 17.1848 16.5715 17.4202 16.5094 17.6764C16.4474 17.9327 16.4536 18.2007 16.5275 18.4538C16.6014 18.7068 16.7404 18.9361 16.9307 19.1186C17.1209 19.3012 17.3557 19.4306 17.6116 19.494C17.8675 19.5574 18.1355 19.5526 18.389 19.48L19.4 21L18.366 22.55C18.1591 22.4952 17.9428 22.4854 17.7317 22.5212C17.5207 22.5569 17.3197 22.6375 17.1424 22.7573C16.965 22.8772 16.8154 23.0336 16.7035 23.2161C16.5916 23.3986 16.5201 23.603 16.4937 23.8154C16.4674 24.0279 16.4868 24.2435 16.5507 24.4478C16.6146 24.6521 16.7215 24.8403 16.8641 24.9999C17.0068 25.1595 17.182 25.2867 17.3779 25.3729C17.5738 25.4592 17.786 25.5025 18 25.5C18.3877 25.4994 18.7599 25.3481 19.038 25.078L22.518 26.818C22.5084 26.8783 22.5024 26.939 22.5 27C22.5 27.3978 22.658 27.7794 22.9393 28.0607C23.2206 28.342 23.6022 28.5 24 28.5C24.3978 28.5 24.7794 28.342 25.0607 28.0607C25.342 27.7794 25.5 27.3978 25.5 27C25.4976 26.939 25.4916 26.8783 25.482 26.818L28.962 25.078C29.1387 25.2489 29.3547 25.3738 29.591 25.4417C29.8272 25.5096 30.0766 25.5183 30.3171 25.4672C30.5575 25.416 30.7817 25.3066 30.97 25.1484C31.1582 24.9903 31.3046 24.7883 31.3965 24.5602C31.4883 24.3322 31.5227 24.0851 31.4965 23.8406C31.4704 23.5962 31.3846 23.3619 31.2467 23.1584C31.1087 22.9549 30.9229 22.7884 30.7055 22.6736C30.4881 22.5588 30.2458 22.4992 30 22.5C29.8767 22.5017 29.7542 22.5185 29.635 22.55L28.6 21L29.634 19.449C29.7537 19.4788 29.8766 19.4939 30 19.494ZM24 25.494C23.8767 25.4957 23.7542 25.5125 23.635 25.544L21.73 22.689L22.962 22.073C23.2398 22.3435 23.6123 22.4948 24 22.4948C24.3877 22.4948 24.7602 22.3435 25.038 22.073L26.27 22.688L24.365 25.544C24.2456 25.5145 24.123 25.4997 24 25.5V25.494ZM22.518 20.812C22.494 20.9321 22.494 21.0559 22.518 21.176L21.171 21.849L20.6 21L21.17 20.145L22.518 20.812ZM23.5 21C23.5 20.9011 23.5293 20.8044 23.5843 20.7222C23.6392 20.64 23.7173 20.5759 23.8087 20.5381C23.9 20.5002 24.0006 20.4903 24.0975 20.5096C24.1945 20.5289 24.2836 20.5765 24.3536 20.6464C24.4235 20.7164 24.4711 20.8055 24.4904 20.9025C24.5097 20.9994 24.4998 21.1 24.4619 21.1913C24.4241 21.2827 24.36 21.3608 24.2778 21.4157C24.1956 21.4707 24.0989 21.5 24 21.5C23.8674 21.5 23.7402 21.4473 23.6464 21.3536C23.5527 21.2598 23.5 21.1326 23.5 21ZM25.46 16.289L28.518 17.818C28.5084 17.8779 28.5024 17.9384 28.5 17.999C28.5024 18.0603 28.5084 18.1214 28.518 18.182L27.171 18.855L25.46 16.289ZM24.365 16.45L26.27 19.3L25.038 19.916C24.7602 19.6455 24.3877 19.4942 24 19.4942C23.6123 19.4942 23.2398 19.6455 22.962 19.916L21.73 19.3L23.635 16.444C23.8738 16.5107 24.1262 16.5107 24.365 16.444V16.45ZM20.829 18.85L19.486 18.179C19.486 18.131 19.5 18.086 19.5 18.038C19.4983 17.9632 19.4909 17.8887 19.478 17.815L22.539 16.285L20.829 18.85ZM19.482 23.813L20.829 23.14L21.544 24.213L22.539 25.706L19.482 24.177C19.4914 24.1184 19.4974 24.0593 19.5 24C19.4977 23.9374 19.4917 23.8749 19.482 23.813ZM27.171 23.14L28.518 23.813C28.494 23.9331 28.494 24.0569 28.518 24.177L25.46 25.706L27.171 23.14ZM27.4 21L26.83 21.855L25.483 21.182C25.4922 21.1217 25.4979 21.0609 25.5 21C25.4976 20.939 25.4916 20.8783 25.482 20.818L26.829 20.145L26.846 20.171L27.4 21ZM30 17.5C30.0989 17.5 30.1956 17.5293 30.2778 17.5843C30.36 17.6392 30.4241 17.7173 30.4619 17.8087C30.4998 17.9 30.5097 18.0006 30.4904 18.0975C30.4711 18.1945 30.4235 18.2836 30.3536 18.3536C30.2836 18.4235 30.1945 18.4711 30.0975 18.4904C30.0006 18.5097 29.9 18.4998 29.8087 18.4619C29.7173 18.4241 29.6392 18.36 29.5843 18.2778C29.5293 18.1956 29.5 18.0989 29.5 18C29.4992 17.9338 29.5116 17.8682 29.5363 17.8068C29.5611 17.7455 29.5978 17.6896 29.6443 17.6426C29.6908 17.5955 29.7462 17.5581 29.8073 17.5326C29.8683 17.5071 29.9338 17.494 30 17.494V17.5ZM24 14.5C24.0989 14.5 24.1956 14.5293 24.2778 14.5843C24.36 14.6392 24.4241 14.7173 24.4619 14.8087C24.4998 14.9 24.5097 15.0006 24.4904 15.0975C24.4711 15.1945 24.4235 15.2836 24.3536 15.3536C24.2836 15.4235 24.1945 15.4711 24.0975 15.4904C24.0006 15.5097 23.9 15.4998 23.8087 15.4619C23.7173 15.4241 23.6392 15.36 23.5843 15.2778C23.5293 15.1956 23.5 15.0989 23.5 15C23.4993 14.9339 23.5118 14.8684 23.5366 14.8071C23.5614 14.7459 23.5982 14.6902 23.6447 14.6432C23.6912 14.5962 23.7465 14.559 23.8075 14.5335C23.8685 14.5081 23.9339 14.495 24 14.495V14.5ZM17.5 18.043C17.5 17.9441 17.5293 17.8474 17.5843 17.7652C17.6392 17.683 17.7173 17.6189 17.8087 17.5811C17.9 17.5432 18.0006 17.5333 18.0975 17.5526C18.1945 17.5719 18.2836 17.6195 18.3536 17.6894C18.4235 17.7594 18.4711 17.8485 18.4904 17.9455C18.5097 18.0424 18.4998 18.143 18.4619 18.2343C18.4241 18.3257 18.36 18.4038 18.2778 18.4587C18.1956 18.5137 18.0989 18.543 18 18.543C17.9339 18.543 17.8685 18.5299 17.8075 18.5045C17.7465 18.479 17.6912 18.4417 17.6447 18.3948C17.5982 18.3478 17.5614 18.2921 17.5366 18.2309C17.5118 18.1696 17.4993 18.1041 17.5 18.038V18.043ZM19.461 19.289L20.27 19.689L20 20.089L19.461 19.289ZM20.27 22.3L19.461 22.7L20 21.9L20.27 22.3ZM18 24.5C17.9011 24.5 17.8044 24.4707 17.7222 24.4157C17.64 24.3608 17.5759 24.2827 17.5381 24.1913C17.5002 24.1 17.4903 23.9994 17.5096 23.9025C17.5289 23.8055 17.5765 23.7164 17.6464 23.6464C17.7164 23.5765 17.8055 23.5289 17.9025 23.5096C17.9994 23.4903 18.1 23.5002 18.1913 23.5381C18.2827 23.5759 18.3608 23.64 18.4157 23.7222C18.4707 23.8044 18.5 23.9011 18.5 24C18.5 24.1326 18.4473 24.2598 18.3536 24.3536C18.2598 24.4473 18.1326 24.5 18 24.5ZM24 27.5C23.9011 27.5 23.8044 27.4707 23.7222 27.4157C23.64 27.3608 23.5759 27.2827 23.5381 27.1913C23.5002 27.1 23.4903 26.9994 23.5096 26.9025C23.5289 26.8055 23.5765 26.7164 23.6464 26.6464C23.7164 26.5765 23.8055 26.5289 23.9025 26.5096C23.9994 26.4903 24.1 26.5002 24.1913 26.5381C24.2827 26.5759 24.3608 26.64 24.4157 26.7222C24.4707 26.8044 24.5 26.9011 24.5 27C24.5 27.1326 24.4473 27.2598 24.3536 27.3536C24.2598 27.4473 24.1326 27.5 24 27.5ZM30.5 24C30.5 24.0989 30.4707 24.1956 30.4157 24.2778C30.3608 24.36 30.2827 24.4241 30.1913 24.4619C30.1 24.4998 29.9994 24.5097 29.9025 24.4904C29.8055 24.4711 29.7164 24.4235 29.6464 24.3536C29.5765 24.2836 29.5289 24.1945 29.5096 24.0975C29.4903 24.0006 29.5002 23.9 29.5381 23.8087C29.5759 23.7173 29.64 23.6392 29.7222 23.5843C29.8044 23.5293 29.9011 23.5 30 23.5C30.1326 23.5 30.2598 23.5527 30.3536 23.6464C30.4473 23.7402 30.5 23.8674 30.5 24ZM28.539 22.711L28.283 22.582L27.73 22.3L27.768 22.244L28 21.9L28.539 22.711ZM27.82 19.829L27.73 19.694L28.276 19.421L28.539 19.289L28 20.093L27.82 19.829ZM42.505 37.5V22.64L33.505 19.64V13.67L24 9.448L14.5 13.67V19.64L5.5 22.64V37.5H4.5V38.5H43.5V37.5H42.505ZM6.505 37.5V23.36L14.505 20.694V37.5H6.505ZM21.505 37.495V34C21.505 33.337 21.7684 32.7011 22.2372 32.2322C22.7061 31.7634 23.342 31.5 24.005 31.5C24.668 31.5 25.3039 31.7634 25.7728 32.2322C26.2416 32.7011 26.505 33.337 26.505 34V37.495H21.505ZM27.505 37.5V34C27.505 33.0717 27.1363 32.1815 26.4799 31.5251C25.8235 30.8687 24.9333 30.5 24.005 30.5C23.0767 30.5 22.1865 30.8687 21.5301 31.5251C20.8737 32.1815 20.505 33.0717 20.505 34V37.5H15.505V14.32L24 10.542L32.5 14.32V37.5H27.505ZM33.505 37.5V20.694L41.505 23.36V37.5H33.505ZM35.505 29.5H36.505V31.5H35.505V29.5ZM38.505 29.5H39.505V31.5H38.505V29.5ZM35.505 25.5H36.505V27.5H35.505V25.5ZM38.505 25.5H39.505V27.5H38.505V25.5ZM35.505 33.5H36.505V35.5H35.505V33.5ZM38.505 33.5H39.505V35.5H38.505V33.5ZM8.505 29.5H9.505V31.5H8.505V29.5ZM11.505 29.5H12.505V31.5H11.505V29.5ZM8.505 25.5H9.505V27.5H8.505V25.5ZM11.505 25.5H12.505V27.5H11.505V25.5ZM8.505 33.5H9.505V35.5H8.505V33.5ZM11.505 33.5H12.505V35.5H11.505V33.5Z" fill="currentColor"/>
</g>
<defs>
<clipPath id="clip0_144_3196">
<rect width="48" height="48" fill="currentColor"/>
</clipPath>
</defs>
</svg>