<svg viewBox="0 0 48 48" fill="none" xmlns="http://www.w3.org/2000/svg">
<g clip-path="url(#clip0_141_1055)">
<path d="M16.5 9.5V15.5H4.5V34.5H8.276L9.741 39.966L15.207 34.5H31.5V28H32.793L38.259 33.466L39.724 28H43.5V9.5H16.5ZM30.5 33.5H14.792L10.258 38.034L9.043 33.5H5.5V16.5H16.5V28H30.5V33.5ZM42.5 27H38.956L37.741 31.535L33.207 27H17.5V10.5H42.5V27ZM37 21.5C37.4945 21.5 37.9778 21.3534 38.3889 21.0787C38.8 20.804 39.1205 20.4135 39.3097 19.9567C39.4989 19.4999 39.5484 18.9972 39.452 18.5123C39.3555 18.0273 39.1174 17.5819 38.7678 17.2322C38.4181 16.8826 37.9727 16.6445 37.4877 16.548C37.0028 16.4516 36.5001 16.5011 36.0433 16.6903C35.5865 16.8795 35.196 17.2 34.9213 17.6111C34.6466 18.0222 34.5 18.5055 34.5 19C34.5 19.663 34.7634 20.2989 35.2322 20.7678C35.7011 21.2366 36.337 21.5 37 21.5ZM37 17.5C37.2967 17.5 37.5867 17.588 37.8334 17.7528C38.08 17.9176 38.2723 18.1519 38.3858 18.426C38.4994 18.7001 38.5291 19.0017 38.4712 19.2926C38.4133 19.5836 38.2704 19.8509 38.0607 20.0607C37.8509 20.2704 37.5836 20.4133 37.2926 20.4712C37.0017 20.5291 36.7001 20.4993 36.426 20.3858C36.1519 20.2723 35.9176 20.08 35.7528 19.8334C35.588 19.5867 35.5 19.2967 35.5 19C35.5 18.6022 35.658 18.2206 35.9393 17.9393C36.2206 17.658 36.6022 17.5 37 17.5ZM30 21.5C30.4945 21.5 30.9778 21.3534 31.3889 21.0787C31.8 20.804 32.1205 20.4135 32.3097 19.9567C32.4989 19.4999 32.5484 18.9972 32.452 18.5123C32.3555 18.0273 32.1174 17.5819 31.7678 17.2322C31.4181 16.8826 30.9727 16.6445 30.4877 16.548C30.0028 16.4516 29.5001 16.5011 29.0433 16.6903C28.5865 16.8795 28.196 17.2 27.9213 17.6111C27.6466 18.0222 27.5 18.5055 27.5 19C27.5 19.663 27.7634 20.2989 28.2322 20.7678C28.7011 21.2366 29.337 21.5 30 21.5ZM30 17.5C30.2967 17.5 30.5867 17.588 30.8334 17.7528C31.08 17.9176 31.2723 18.1519 31.3858 18.426C31.4993 18.7001 31.5291 19.0017 31.4712 19.2926C31.4133 19.5836 31.2704 19.8509 31.0607 20.0607C30.8509 20.2704 30.5836 20.4133 30.2926 20.4712C30.0017 20.5291 29.7001 20.4993 29.426 20.3858C29.1519 20.2723 28.9176 20.08 28.7528 19.8334C28.588 19.5867 28.5 19.2967 28.5 19C28.5 18.6022 28.658 18.2206 28.9393 17.9393C29.2206 17.658 29.6022 17.5 30 17.5ZM23 21.5C23.4945 21.5 23.9778 21.3534 24.3889 21.0787C24.8 20.804 25.1205 20.4135 25.3097 19.9567C25.4989 19.4999 25.5484 18.9972 25.452 18.5123C25.3555 18.0273 25.1174 17.5819 24.7678 17.2322C24.4181 16.8826 23.9727 16.6445 23.4877 16.548C23.0028 16.4516 22.5001 16.5011 22.0433 16.6903C21.5865 16.8795 21.196 17.2 20.9213 17.6111C20.6466 18.0222 20.5 18.5055 20.5 19C20.5 19.663 20.7634 20.2989 21.2322 20.7678C21.7011 21.2366 22.337 21.5 23 21.5ZM23 17.5C23.2967 17.5 23.5867 17.588 23.8334 17.7528C24.08 17.9176 24.2723 18.1519 24.3858 18.426C24.4993 18.7001 24.5291 19.0017 24.4712 19.2926C24.4133 19.5836 24.2704 19.8509 24.0607 20.0607C23.8509 20.2704 23.5836 20.4133 23.2926 20.4712C23.0017 20.5291 22.7001 20.4993 22.426 20.3858C22.1519 20.2723 21.9176 20.08 21.7528 19.8334C21.588 19.5867 21.5 19.2967 21.5 19C21.5 18.6022 21.658 18.2206 21.9393 17.9393C22.2206 17.658 22.6022 17.5 23 17.5Z" fill="currentColor"/>
</g>
<defs>
<clipPath id="clip0_141_1055">
<rect width="48" height="48" fill="currentColor"/>
</clipPath>
</defs>
</svg>