<svg viewBox="0 0 48 48" fill="none" xmlns="http://www.w3.org/2000/svg">
<g clip-path="url(#clip0_1169_822)">
<path d="M10.5 10.5049V9.50488H43.5V30.5049H42.5V10.5049H10.5Z" fill="currentColor"/>
<path d="M39.5 13.5049H7.5V12.5049H40.5V33.5049H39.5V13.5049Z" fill="currentColor"/>
<path d="M33.4951 17.5H35.4951V18.5H33.4951V17.5Z" fill="currentColor"/>
<path d="M32.4951 17.5H30.4951V18.5H32.4951V17.5Z" fill="currentColor"/>
<path d="M27.4951 17.5H29.4951V18.5H27.4951V17.5Z" fill="currentColor"/>
<path fill-rule="evenodd" clip-rule="evenodd" d="M4.5 26.5H5.5V20.5049H36.5V35.5049H18.5V36.5049H37.5V15.5049H4.5V26.5ZM5.5 16.5049H36.5V19.5H5.5V16.5049Z" fill="currentColor"/>
<path fill-rule="evenodd" clip-rule="evenodd" d="M16.0234 30.9639C16.8374 30.9639 17.5 30.3018 17.5 29.4873C17.5 28.6729 16.8374 28.0108 16.0234 28.0108C15.6289 28.0108 15.272 28.1685 15.0068 28.4209L12.4592 27.1475L12.4624 27.1225L12.4654 27.1004C12.471 27.0597 12.4766 27.0189 12.4766 26.9766C12.4766 26.1626 11.814 25.5 11 25.5C10.186 25.5 9.52344 26.1626 9.52344 26.9766C9.52344 27.0189 9.52904 27.0597 9.53464 27.1004L9.53802 27.1254L9.54077 27.1475L6.96533 28.4351C6.70312 28.1968 6.35815 28.0474 5.97656 28.0474C5.1626 28.0474 4.5 28.71 4.5 29.5244C4.5 30.3384 5.1626 31.001 5.97656 31.001C6.10595 31.001 6.22925 30.979 6.34887 30.9473L7.05029 32L6.32885 33.082C6.21532 33.0542 6.09863 33.0352 5.97656 33.0352C5.1626 33.0352 4.5 33.6973 4.5 34.5117C4.5 35.3262 5.1626 35.9883 5.97656 35.9883C6.3706 35.9883 6.72705 35.831 6.99218 35.5786L9.54076 36.8525C9.53893 36.8683 9.53678 36.8839 9.53463 36.8996C9.52903 36.9403 9.52343 36.9811 9.52343 37.0234C9.52343 37.8374 10.186 38.5 11 38.5C11.814 38.5 12.4766 37.8374 12.4766 37.0234C12.4766 36.9811 12.4709 36.9403 12.4654 36.8996C12.4632 36.8839 12.4611 36.8683 12.4592 36.8525L15.0078 35.5786C15.2729 35.831 15.6294 35.9883 16.0234 35.9883C16.8374 35.9883 17.5 35.3262 17.5 34.5117C17.5 33.6973 16.8374 33.0352 16.0234 33.0352C15.9014 33.0352 15.7846 33.0542 15.6711 33.082L14.9497 32L15.6714 30.917C15.7849 30.9453 15.9016 30.9639 16.0234 30.9639ZM14.5637 29.6592L13.6831 30.0996L12.4604 28.2661L14.5635 29.3179C14.5616 29.3341 14.5594 29.3502 14.5572 29.3663C14.5518 29.406 14.5464 29.446 14.5464 29.4873C14.5464 29.5299 14.552 29.5707 14.5575 29.6116L14.5617 29.6427L14.5637 29.6592ZM12.4626 32.1441L12.4654 32.1231C12.471 32.0827 12.4766 32.0422 12.4766 32C12.4766 31.9577 12.471 31.9169 12.4654 31.8761C12.4632 31.8605 12.4611 31.8448 12.4592 31.8291L13.3403 31.3887L13.7476 32L13.3403 32.6108L12.4592 32.1704L12.4626 32.1441ZM11.3518 28.4063L12.7812 30.5503L12.0154 30.9331C11.7502 30.6807 11.394 30.5234 11 30.5234C10.606 30.5234 10.2498 30.6807 9.98462 30.9331L9.21875 30.5503L10.6482 28.4063C10.7615 28.4346 10.8782 28.4536 11 28.4536C11.1218 28.4536 11.2385 28.4346 11.3518 28.4063ZM11.4766 32C11.4766 32.2627 11.2627 32.4766 11 32.4766C10.7373 32.4766 10.5234 32.2627 10.5234 32C10.5234 31.7373 10.7373 31.5234 11 31.5234C11.2627 31.5234 11.4766 31.7373 11.4766 32ZM9.54078 31.8291C9.53895 31.8448 9.5368 31.8605 9.53465 31.8762C9.52905 31.9169 9.52345 31.9577 9.52345 32C9.52345 32.0422 9.52902 32.0826 9.5346 32.1231L9.53736 32.1433L9.54078 32.1704L8.65968 32.6108L8.25245 32L8.65968 31.3887L9.54078 31.8291ZM8.3169 30.0996L7.4397 29.6611C7.44125 29.645 7.44343 29.629 7.44562 29.6131C7.44963 29.5839 7.45362 29.5548 7.45362 29.5244C7.45362 29.4631 7.44508 29.404 7.43658 29.3452L7.43287 29.3193L9.53956 28.2661L8.3169 30.0996ZM7.43628 34.3408L8.31714 33.9004L9.5398 35.7339L7.43628 34.6826C7.43811 34.6669 7.44026 34.6512 7.44241 34.6356C7.44801 34.5948 7.45361 34.5541 7.45361 34.5117C7.45361 34.4694 7.44801 34.4286 7.44241 34.3879C7.44026 34.3722 7.43811 34.3566 7.43628 34.3408ZM9.21875 33.4497L9.98462 33.0669C10.2498 33.3193 10.606 33.4766 11 33.4766C11.394 33.4766 11.7502 33.3193 12.0154 33.0669L12.7812 33.4497L11.3518 35.5938C11.2383 35.5654 11.1218 35.5464 11 35.5464C10.8782 35.5464 10.7615 35.5654 10.6482 35.5938L9.21875 33.4497ZM13.6831 33.9004L14.5637 34.3408C14.5619 34.3566 14.5598 34.3722 14.5576 34.3879C14.552 34.4286 14.5464 34.4694 14.5464 34.5117C14.5464 34.5541 14.552 34.5948 14.5576 34.6356C14.5598 34.6512 14.5619 34.6669 14.5637 34.6826L12.4602 35.7339L13.6831 33.9004ZM16.0234 29.0107C16.2861 29.0107 16.5 29.2246 16.5 29.4873C16.5 29.75 16.2861 29.9639 16.0234 29.9639C15.7603 29.9639 15.5464 29.75 15.5464 29.4873C15.5464 29.2246 15.7603 29.0107 16.0234 29.0107ZM11 26.5C11.2627 26.5 11.4766 26.7139 11.4766 26.9766C11.4766 27.2397 11.2627 27.4536 11 27.4536C10.7373 27.4536 10.5234 27.2397 10.5234 26.9766C10.5234 26.7139 10.7373 26.5 11 26.5ZM5.5 29.5244C5.5 29.2612 5.71387 29.0474 5.97656 29.0474C6.23974 29.0474 6.45361 29.2612 6.45361 29.5244C6.45361 29.7871 6.23974 30.001 5.97656 30.001C5.71386 30.001 5.5 29.7871 5.5 29.5244ZM7.4375 30.7778L7.60303 30.8604L7.75782 30.938L7.65137 31.0982L7.4375 30.7778ZM7.75781 33.0615L7.43774 33.2222L7.65112 32.9014C7.65112 32.9014 7.75781 33.0615 7.75781 33.0615ZM5.97656 34.9883C5.71386 34.9883 5.5 34.7744 5.5 34.5117C5.5 34.249 5.71387 34.0352 5.97656 34.0352C6.23974 34.0352 6.45361 34.249 6.45361 34.5117C6.45361 34.7744 6.23974 34.9883 5.97656 34.9883ZM11 37.5C10.7915 37.5 10.6189 37.3633 10.5544 37.1768L10.7051 36.8779C10.728 36.8325 10.7661 36.7925 10.8223 36.7549L10.9429 36.6748C10.9878 36.647 11.0122 36.647 11.0571 36.6748L11.1777 36.7549C11.2339 36.7925 11.272 36.8325 11.2949 36.8779L11.4456 37.1768C11.3811 37.3633 11.2085 37.5 11 37.5ZM16.5 34.5117C16.5 34.7744 16.2861 34.9883 16.0234 34.9883C15.7603 34.9883 15.5464 34.7744 15.5464 34.5117C15.5464 34.249 15.7603 34.0352 16.0234 34.0352C16.2861 34.0352 16.5 34.249 16.5 34.5117ZM14.5625 33.2222L14.2422 33.062L14.3489 32.9014L14.5625 33.2222ZM14.2422 30.938L14.397 30.8604L14.5625 30.7778L14.3486 31.0981L14.2422 30.938Z" fill="currentColor"/>
<path d="M19.4673 28L22.3467 25H23.7329L20.853 28L23.7329 31H22.3467L19.4673 28Z" fill="currentColor"/>
<path d="M31.6533 31L34.5327 28L31.6533 25H30.2671L33.147 28L30.2671 31H31.6533Z" fill="currentColor"/>
<path d="M24.0156 33L28.8774 23H29.9893L25.1274 33H24.0156Z" fill="currentColor"/>
</g>
<defs>
<clipPath id="clip0_1169_822">
<rect width="48" height="48" fill="currentColor"/>
</clipPath>
</defs>
</svg>