<?xml version="1.0" encoding="utf-8"?>
<!-- Generator: Adobe Illustrator 27.1.1, SVG Export Plug-In . SVG Version: 6.00 Build 0)  -->
<svg version="1.1" id="Art_3.0" xmlns="http://www.w3.org/2000/svg" xmlns:xlink="http://www.w3.org/1999/xlink" x="0px" y="0px"
	 viewBox="0 0 48 48" style="enable-background:new 0 0 48 48;" xml:space="preserve">
<style type="text/css">
	.st0{fill:#FFFFFF;}
	.st1{fill:#FFFFFF;fill-opacity:0;}
</style>
<g>
	<path class="st0" d="M25.79297,9.5L24,11.29297L22.20703,9.5H6.5v27h15.2915l2.18359,2.20703L26.20556,36.5h15.29443v-27
		C41.49999,9.5,25.79296,9.5,25.79297,9.5z M7.5,35.5v-25h14.29297L23.5,12.20703v24.59766L22.2085,35.5H7.5z M40.5,35.5H25.79443
		L24.5,36.78125V12.20703L26.20703,10.5H40.5V35.5z"/>
	<path class="st0" d="M31.00977,18.7583c0.1167-0.30078,0.2915-0.52588,0.51904-0.66846
		c0.22998-0.14404,0.53955-0.21729,0.91992-0.21729h0.07861c0.36963,0,0.67139,0.09229,0.89648,0.2749
		c0.22217,0.17969,0.33008,0.41406,0.33008,0.71582v0.12793c0,0.51172-0.30859,0.91943-0.94385,1.24609l-1.31641,0.68799
		c-0.45166,0.23584-0.79395,0.53955-1.01758,0.90186c-0.22412,0.36328-0.3374,0.80713-0.3374,1.31982v0.91553h4.63037v-0.8877
		h-3.625c0.00439-0.3584,0.07031-0.66064,0.19531-0.89941c0.12842-0.24414,0.33691-0.43945,0.62012-0.58105l1.27686-0.6582
		c0.53467-0.27393,0.92041-0.5708,1.14697-0.88184c0.22998-0.31592,0.34619-0.7041,0.34619-1.15332v-0.16699
		c0-0.37012-0.09229-0.6958-0.27539-0.96875c-0.18262-0.27148-0.43945-0.48535-0.76416-0.63574
		c-0.32178-0.14941-0.70312-0.22461-1.1333-0.22461h-0.10791c-1.15527,0-1.92725,0.46875-2.29395,1.39307l-0.03223,0.08154
		l0.85352,0.36572l0.03369-0.08691L31.00977,18.7583z"/>
	<path class="st0" d="M10.5,26.5h10v-12h-10V26.5z M11.5,15.5h8v10h-8V15.5z"/>
	<rect x="10.479" y="31.5" class="st0" width="10" height="1"/>
	<rect x="10.479" y="28.5" class="st0" width="10" height="1"/>
	<path class="st0" d="M37.5,14.5h-10v12h10V14.5z M36.5,25.5h-8v-10h8V25.5z"/>
	<rect x="27.47754" y="31.5" class="st0" width="10" height="1"/>
	<rect x="27.47754" y="28.5" class="st0" width="10" height="1"/>
	<polygon class="st0" points="13.91846,18 15.0127,18 15.0127,24.0625 16.00781,24.0625 16.00781,17.12256 14.04199,17.12256 	"/>
</g>
<rect class="st1" width="48" height="48"/>
</svg>
