<?xml version="1.0" encoding="utf-8"?>
<!-- Generator: Adobe Illustrator 27.1.1, SVG Export Plug-In . SVG Version: 6.00 Build 0)  -->
<svg version="1.1" id="Note" xmlns="http://www.w3.org/2000/svg" xmlns:xlink="http://www.w3.org/1999/xlink" x="0px" y="0px"
	 viewBox="0 0 48 48" style="enable-background:new 0 0 48 48;" xml:space="preserve">
<style type="text/css">
	.st0{fill:#FFFFFF;}
	.st1{fill:#FFFFFF;fill-opacity:0;}
</style>
<path class="st0" d="M23.99951,7.49951c-9.09814,0-16.5,7.40186-16.5,16.50049c0,9.09814,7.40186,16.5,16.5,16.5
	C33.09814,40.5,40.5,33.09814,40.5,24C40.5,14.90137,33.09814,7.49951,23.99951,7.49951z M23.99951,39.5
	c-8.54688,0-15.5-6.95312-15.5-15.5s6.95312-15.50049,15.5-15.50049S39.5,15.45312,39.5,24S32.54639,39.5,23.99951,39.5z
	 M37.08154,10.91797C33.5874,7.42383,28.9414,5.5,23.99951,5.5c-4.94141,0-9.5874,1.92383-13.08154,5.41797
	c-3.49414,3.49512-5.41846,8.14062-5.41846,13.08154c0,4.94189,1.92432,9.5874,5.41846,13.08154
	C14.41211,40.57568,19.05811,42.5,23.99951,42.5c4.94189,0,9.58789-1.92432,13.08203-5.41895
	C40.57568,33.58691,42.5,28.9414,42.5,23.99951C42.5,19.05859,40.57568,14.41308,37.08154,10.91797z M36.37451,36.37402
	C33.06933,39.67968,28.67431,41.5,23.99951,41.5c-4.67432,0-9.06934-1.82031-12.37451-5.12598
	c-3.30518-3.30518-5.12549-7.7002-5.12549-12.37451c0-4.67383,1.82031-9.06836,5.12549-12.37451
	C14.93066,8.31982,19.3252,6.5,23.99951,6.5c4.6748,0,9.06934,1.81982,12.375,5.125C39.67969,14.93115,41.5,19.32568,41.5,23.99951
	C41.5,28.67383,39.67969,33.06886,36.37451,36.37402z M32.99951,16.29297l-12,12l-6-6L12.29248,25l8.70703,8.70703L35.70654,19
	C35.70654,19,32.99951,16.29297,32.99951,16.29297z M13.70654,25l1.29297-1.29297l6,6l12-12L34.29248,19L20.99951,32.29297
	C20.99951,32.29297,13.70654,25,13.70654,25z"/>
<rect class="st1" width="48" height="48"/>
</svg>
