<svg viewBox="0 0 48 48" fill="none" xmlns="http://www.w3.org/2000/svg">
<g clip-path="url(#clip0_141_2071)">
<path d="M38.5 20.293V12.71L31 8.42401L27.5 10.424L24 8.42401L9.5 16.715V31.29L24 39.576L38.5 31.293V23.713L35.508 22L38.5 20.293ZM33.492 22L31.5 23.139V21.3L31.524 21.286L31.5 21.244V17.29L37.5 13.866V19.713L33.492 22ZM24.5 31.139V25.29L30.5 21.866V27.711L24.5 31.139ZM10.5 17.866L16.5 21.292V27.137L10.5 23.709V17.866ZM24 24.424L18.01 21L24 17.578L30 21.004L24 24.424ZM30.5 17.29V20.143L24.5 16.714V13.866L30.5 17.29ZM17 20.428L11.008 17L17 13.58L22.989 17L17 20.428ZM17.5 21.864L23.5 25.291V31.136L17.5 27.708V21.864ZM36.995 13L31 16.424L25.008 13L27.5 11.578L31 9.57801L36.995 13ZM26.495 11L23.5 12.714V16.143L18.006 13L24 9.57601L26.495 11ZM10.5 24.861L23.5 32.287V38.139L10.5 30.71V24.861ZM24.5 38.139V32.29L37.5 24.864V30.713L24.5 38.139ZM36.992 24L31.5 27.14V24.291L34.5 22.578L36.992 24Z" fill="currentColor"/>
</g>
<defs>
<clipPath id="clip0_141_2071">
<rect width="48" height="48" fill="currentColor"/>
</clipPath>
</defs>
</svg>