<svg viewBox="0 0 48 48" fill="none" xmlns="http://www.w3.org/2000/svg">
<g clip-path="url(#clip0_141_2018)">
<path d="M39.4999 27.5H40.4999V28C40.4983 29.4582 39.9183 30.8562 38.8872 31.8873C37.8561 32.9184 36.4581 33.4984 34.9999 33.5H28.4999V32.5H34.9999C36.193 32.4987 37.3368 32.0242 38.1804 31.1805C39.024 30.3369 39.4986 29.1931 39.4999 28V27.5ZM43.4999 29C43.4978 30.9885 42.7069 32.8949 41.3009 34.301C39.8948 35.707 37.9884 36.4979 35.9999 36.5H9.99989C9.25298 36.5043 8.51303 36.3564 7.82516 36.0653C7.13729 35.7742 6.51592 35.3461 5.99893 34.807C5.48194 34.2679 5.08017 33.6292 4.81812 32.9297C4.55607 32.2303 4.43923 31.4848 4.47472 30.7387C4.51022 29.9927 4.6973 29.2616 5.02457 28.5902C5.35184 27.9188 5.81244 27.3211 6.37827 26.8335C6.9441 26.346 7.60332 25.9788 8.31572 25.7543C9.02811 25.5299 9.77876 25.4529 10.5219 25.528C10.5069 25.351 10.4999 25.174 10.4999 25C10.502 23.2768 11.1875 21.6247 12.406 20.4062C13.6246 19.1876 15.2766 18.5021 16.9999 18.5C17.7704 18.4993 18.5347 18.6378 19.2559 18.909C20.2142 16.3982 22.0216 14.3023 24.3643 12.9853C26.707 11.6683 29.4369 11.2134 32.08 11.6995C34.7232 12.1856 37.1126 13.5821 38.8334 15.6464C40.5542 17.7107 41.4976 20.3125 41.4999 23C41.4999 23.291 41.4869 23.578 41.4649 23.863C42.7766 25.2512 43.5051 27.0901 43.4999 29ZM42.4999 29C42.5022 28.1453 42.335 27.2986 42.0078 26.509C41.6806 25.7194 41.2001 25.0026 40.5939 24.4L40.4269 24.234L40.4499 24C40.4809 23.67 40.4999 23.337 40.4999 23C40.4969 20.5044 39.6051 18.0914 37.9843 16.1936C36.3636 14.2959 34.1199 13.0375 31.6554 12.644C29.191 12.2505 26.667 12.7477 24.5359 14.0464C22.4047 15.3451 20.8059 17.3604 20.0259 19.731L19.8499 20.269L19.3369 20.027C18.4192 19.5915 17.3987 19.4194 16.389 19.5296C15.3792 19.6399 14.4199 20.0282 13.6178 20.6515C12.8158 21.2747 12.2024 22.1084 11.8462 23.0596C11.4899 24.0108 11.4046 25.0422 11.5999 26.039L11.7429 26.791L10.9999 26.621C10.3805 26.4745 9.7371 26.461 9.11214 26.5815C8.48718 26.702 7.89489 26.9537 7.37437 27.32C6.85385 27.6862 6.41695 28.1587 6.09251 28.7063C5.76808 29.2539 5.56349 29.8641 5.49226 30.4965C5.42102 31.129 5.48477 31.7694 5.67928 32.3754C5.87379 32.9814 6.19465 33.5393 6.62066 34.0122C7.04667 34.485 7.56814 34.8622 8.15065 35.1186C8.73316 35.3751 9.36344 35.5051 9.99989 35.5H35.9999C37.7231 35.4979 39.3752 34.8124 40.5938 33.5939C41.8123 32.3753 42.4978 30.7233 42.4999 29Z" fill="currentColor"/>
</g>
<defs>
<clipPath id="clip0_141_2018">
<rect width="48" height="48" fill="currentColor"/>
</clipPath>
</defs>
</svg>