<svg viewBox="0 0 48 48" fill="none" xmlns="http://www.w3.org/2000/svg">
<g clip-path="url(#clip0_144_3613)">
<path d="M24 28.5C24.9097 28.5509 25.8192 28.3978 26.662 28.0517C27.5049 27.7057 28.2596 27.1755 28.871 26.5H32.5V21.5H33.36L34.527 18L33.36 14.5H31.272C30.9207 12.6919 29.9086 11.0796 28.433 9.97731C26.9574 8.87504 25.1241 8.3619 23.2907 8.53798C21.4573 8.71405 19.7552 9.5667 18.5164 10.9297C17.2775 12.2926 16.5908 14.0681 16.59 15.91C16.59 24.264 19.083 28.5 24 28.5ZM25.5 26C25.5 25.8674 25.5527 25.7402 25.6464 25.6464C25.7402 25.5527 25.8674 25.5 26 25.5H27C27.1326 25.5 27.2598 25.5527 27.3536 25.6464C27.4473 25.7402 27.5 25.8674 27.5 26C27.5 26.1326 27.4473 26.2598 27.3536 26.3535C27.2598 26.4473 27.1326 26.5 27 26.5H26C25.8674 26.5 25.7402 26.4473 25.6464 26.3535C25.5527 26.2598 25.5 26.1326 25.5 26ZM31.5 25.5H29.607C30.3146 24.2198 30.7864 22.823 31 21.376V21.5H31.5V25.5ZM32.64 15.5L33.473 18L32.64 20.5H31.14C31.3341 18.9778 31.4259 17.4444 31.415 15.91C31.415 15.772 31.402 15.637 31.394 15.5H32.64ZM24 9.49998C25.6995 9.50184 27.3288 10.1778 28.5305 11.3795C29.7322 12.5812 30.4081 14.2105 30.41 15.91C30.41 20.983 29.61 23.873 28.416 25.5H28.408C28.305 25.2085 28.1144 24.956 27.8624 24.777C27.6103 24.598 27.3091 24.5013 27 24.5H26C25.6552 24.5006 25.3211 24.6201 25.054 24.8382C24.7869 25.0564 24.6031 25.3599 24.5336 25.6977C24.4641 26.0354 24.5131 26.3868 24.6724 26.6927C24.8317 26.9986 25.0914 27.2402 25.408 27.377C24.9433 27.4604 24.4721 27.5016 24 27.5C19.747 27.5 17.59 23.6 17.59 15.91C17.5919 14.2105 18.2678 12.5812 19.4695 11.3795C20.6712 10.1778 22.3005 9.50184 24 9.49998ZM36.188 35.3L26.264 29.225L26.114 29.754L24 32.23L21.886 29.758L21.736 29.229L11.813 35.3L9.75 43H10.786L12.675 35.949L21.134 30.771L24 40.846L26.866 30.771L35.325 35.949L37.214 43H38.25L36.188 35.3ZM24 37.19L22.542 32.064L24 33.77L25.458 32.064L24 37.19Z" fill="currentColor"/>
</g>
<defs>
<clipPath id="clip0_144_3613">
<rect width="48" height="48" fill="currentColor"/>
</clipPath>
</defs>
</svg>