<svg viewBox="0 0 48 48" fill="none" xmlns="http://www.w3.org/2000/svg">
<g clip-path="url(#clip0_24_151)">
<g clip-path="url(#clip1_24_151)">
<path d="M40.499 24.2515C40.499 18.7432 31.268 8.12061 30.875 7.6709L30.4985 7.24023L30.1221 7.6709C27.5099 10.7119 25.1437 13.9559 23.0459 17.3721C21.4428 15.0483 19.7172 12.8114 17.8764 10.6709L17.5 10.2402L17.1235 10.6709C16.7305 11.1206 7.49999 21.7432 7.49999 27.2515C7.47487 29.8473 8.44584 32.3541 10.2131 34.2557C11.9803 36.1574 14.4092 37.3092 17 37.4741V39.5H11V40.5H37V39.5H30.999V34.4741C33.5897 34.3091 36.0186 33.1572 37.7858 31.2556C39.553 29.354 40.524 26.8473 40.499 24.2515ZM30.4985 8.77C32.249 10.8447 39.499 19.7139 39.499 24.2515C39.524 26.5824 38.6582 28.8349 37.0785 30.5489C35.4987 32.263 33.3242 33.3093 30.999 33.4741V30.707L35.8525 25.8535L35.1455 25.1465L30.999 29.293V23.2285L34.874 19.3535L34.167 18.6465L30.999 21.8145V15H29.999V21.7715L26.874 18.6465L26.167 19.3535L29.999 23.1855V29.293L27.476 26.77C27.266 24.3838 25.5751 21.2026 23.6667 18.2959C25.6773 14.9376 27.9624 11.7514 30.4985 8.77ZM27.4551 28.1631L29.999 30.707V33.4643C28.6528 33.3886 27.3422 33.0031 26.1694 32.3379C26.8902 31.0537 27.3286 29.6303 27.4551 28.1631ZM8.49999 27.2515C8.49999 22.7139 15.7495 13.8452 17.5 11.77C19.2505 13.8447 26.5 22.7119 26.5 27.2515C26.5251 29.5824 25.6593 31.8349 24.0796 33.549C22.4998 35.2631 20.3252 36.3094 18 36.4741V33.707L22.8535 28.8535L22.1465 28.1465L18 32.293V26.229L21.8755 22.3535L21.1685 21.6465L18 24.8149V18H17V24.771L13.8755 21.6465L13.1685 22.3535L17 26.1851V32.293L12.8535 28.1465L12.1465 28.8535L17 33.707V36.4741C14.6748 36.3093 12.5002 35.2631 10.9204 33.549C9.34064 31.8349 8.47488 29.5824 8.49999 27.2515ZM18 39.5V37.4741C19.5165 37.3913 20.9937 36.9615 22.318 36.2179C23.6423 35.4743 24.7782 34.4367 25.6384 33.1851C26.9712 33.9484 28.4651 34.3867 29.999 34.4644V39.5H18Z" fill="currentColor"/>
</g>
</g>
<defs>
<clipPath id="clip0_24_151">
<rect width="48" height="48" fill="currentColor"/>
</clipPath>
<clipPath id="clip1_24_151">
<rect width="48" height="48" fill="currentColor"/>
</clipPath>
</defs>
</svg>