<svg viewBox="0 0 48 48" fill="none" xmlns="http://www.w3.org/2000/svg">
<g clip-path="url(#clip0_141_2008)">
<path d="M22.14 19.5H21V20.5H27V19.5H25.86L25.527 18.5H31.5V9.5H16.5V18.5H22.473L22.14 19.5ZM24.806 19.5H23.194L23.527 18.5H24.473L24.806 19.5ZM17.5 10.5H30.5V17.5H17.5V10.5ZM26.722 26.5H21.622L19.336 34.5H23.5V39.883L28.862 30.5H25.222L26.722 26.5ZM27.138 31.5L24.5 36.117V33.5H20.663L22.377 27.5H25.277L23.777 31.5H27.138ZM16.646 31L18.646 33L16.646 35H15.232L16.732 33.5H13.5V32.5H16.732L15.232 31H16.646ZM32.707 31L34.707 33L32.707 35H31.293L32.793 33.5H29.561V32.5H32.793L31.293 31H32.707ZM39 29.5C38.3078 29.5 37.6311 29.7053 37.0555 30.0899C36.4799 30.4744 36.0313 31.0211 35.7664 31.6606C35.5015 32.3001 35.4322 33.0039 35.5673 33.6828C35.7023 34.3617 36.0356 34.9854 36.5251 35.4749C37.0146 35.9644 37.6383 36.2977 38.3172 36.4327C38.9961 36.5678 39.6999 36.4985 40.3394 36.2336C40.9789 35.9687 41.5256 35.5201 41.9101 34.9445C42.2947 34.3689 42.5 33.6922 42.5 33C42.5 32.0717 42.1312 31.1815 41.4749 30.5251C40.8185 29.8687 39.9283 29.5 39 29.5ZM39 35.5C38.5055 35.5 38.0222 35.3534 37.6111 35.0787C37.1999 34.804 36.8795 34.4135 36.6903 33.9567C36.5011 33.4999 36.4516 32.9972 36.548 32.5123C36.6445 32.0273 36.8826 31.5819 37.2322 31.2322C37.5819 30.8826 38.0273 30.6445 38.5123 30.548C38.9972 30.4516 39.4999 30.5011 39.9567 30.6903C40.4135 30.8795 40.804 31.2 41.0787 31.6111C41.3534 32.0222 41.5 32.5055 41.5 33C41.5 33.663 41.2366 34.2989 40.7678 34.7678C40.2989 35.2366 39.663 35.5 39 35.5ZM5.5 36.5H12.5V29.5H5.5V36.5ZM6.5 30.5H11.5V35.5H6.5V30.5ZM9.5 28.5H8.5V23.5H20.616L21.016 22H22.052L21.382 24.5H9.5V28.5ZM38.562 28.5V24.5H26.678L26.008 22H27.043L27.443 23.5H39.562V28.5H38.562Z" fill="currentColor"/>
</g>
<defs>
<clipPath id="clip0_141_2008">
<rect width="48" height="48" fill="currentColor"/>
</clipPath>
</defs>
</svg>