<?xml version="1.0" encoding="UTF-8"?><svg id="LOGO" xmlns="http://www.w3.org/2000/svg" viewBox="0 0 1250 703"><defs><style>.cls-1{fill:#0c0c0c;}</style></defs><polygon class="cls-1" points="195.079 339.055 147.077 339.055 147.077 298.61 127.904 298.61 127.904 398.533 147.077 398.533 147.077 355.43 195.079 355.43 195.079 398.533 214.252 398.533 214.252 298.61 195.079 298.61 195.079 339.055"/><path class="cls-1" d="M242.102,296.372c-6.438,0-10.776,4.057-10.776,9.936,0,5.737,4.338,9.936,10.776,9.936s10.776-4.059,10.776-9.936-4.339-9.936-10.776-9.936Z"/><rect class="cls-1" x="232.864" y="325.899" width="18.333" height="72.494"/><path class="cls-1" d="M290.523,304.349l-18.193,5.318v16.513l-10.775,1.821v13.154h10.775v35.127c0,16.373,9.656,23.79,23.791,23.79,4.898,0,9.516-.979,13.015-2.238v-15.115c-2.379,1.121-5.737,1.959-8.817,1.959-6.018,0-9.656-3.078-9.656-10.496v-33.027h18.473v-15.256h-18.613v-21.551Z"/><path class="cls-1" d="M381.35,380.761v-27.431c0-19.313-12.315-28.828-31.768-28.828-10.077,0-19.173,2.518-26.31,6.017v14.835c7.418-4.059,16.234-6.577,24.351-6.577,9.797,0,15.115,3.777,15.395,14.133l-17.914,2.8c-16.934,2.798-27.709,9.095-27.709,22.81v.28c0,13.016,9.376,21.693,24.77,21.693,4.338,0,8.678-.7,12.596-2.1l8.677-8.256h1.819c2.519,6.717,7.418,10.356,16.234,10.356,3.359,0,7.137-.56,10.776-1.819v-12.035c-1.819.42-3.499.841-5.178.841-4.198,0-5.737-2.38-5.737-6.717ZM363.156,381.738c-4.758,2.66-10.076,4.199-15.534,4.199-7.697,0-11.755-3.219-11.755-9.095s4.198-8.538,12.315-10.076l14.974-2.522v17.493Z"/><path class="cls-1" d="M397.583,362.287v.14c0,21.552,15.674,37.785,39.745,37.785,7.557,0,14.274-1.539,20.432-4.339v-15.953c-4.758,2.798-10.915,4.758-17.913,4.758-14.415,0-23.511-8.397-23.511-22.391s9.096-22.393,23.511-22.393c6.997,0,13.155,2.101,17.913,4.759v-15.954c-6.158-2.8-13.015-4.337-20.432-4.337-24.071,0-39.745,16.093-39.745,37.925Z"/><path class="cls-1" d="M511.08,324.222c-4.898,0-9.236.979-13.015,2.098l-7.417,7.137h-1.4v-34.847h-18.333v99.783h18.333v-54.3c4.059-2.238,9.797-4.339,16.094-4.339,9.097,0,14.554,4.199,14.554,15.115v43.523h18.333v-46.602c0-17.634-11.056-27.569-27.15-27.569Z"/><path class="cls-1" d="M563.001,296.372c-6.438,0-10.776,4.057-10.776,9.936,0,5.737,4.338,9.936,10.776,9.936s10.776-4.059,10.776-9.936-4.338-9.936-10.776-9.936Z"/><rect class="cls-1" x="553.765" y="325.899" width="18.333" height="72.494"/><polygon class="cls-1" points="695.252 298.61 667.962 376.702 666.842 376.702 640.112 298.61 619.12 298.61 655.787 398.533 678.598 398.533 715.544 298.61 695.252 298.61"/><path class="cls-1" d="M776.561,380.761v-27.431c0-19.313-12.315-28.828-31.768-28.828-10.076,0-19.173,2.518-26.31,6.017v14.835c7.418-4.059,16.234-6.577,24.351-6.577,9.797,0,15.115,3.777,15.395,14.133l-17.914,2.8c-16.933,2.798-27.709,9.095-27.709,22.81v.28c0,13.016,9.376,21.693,24.771,21.693,4.338,0,8.677-.7,12.595-2.1l8.677-8.256h1.819c2.519,6.717,7.418,10.356,16.234,10.356,3.359,0,7.137-.56,10.775-1.819v-12.035c-1.819.42-3.499.841-5.178.841-4.198,0-5.737-2.38-5.737-6.717ZM758.368,381.738c-4.759,2.66-10.077,4.199-15.535,4.199-7.697,0-11.755-3.219-11.755-9.095s4.198-8.538,12.315-10.076l14.974-2.522v17.493Z"/><path class="cls-1" d="M837.718,324.222c-5.038,0-9.376.979-13.015,2.098l-8.677,8.258h-1.679l-1.679-8.678h-14.835v72.494h18.333v-54.44c4.059-2.098,9.797-4.199,15.954-4.199,9.237,0,14.694,4.339,14.694,15.115v43.523h18.333v-46.602c0-17.634-11.056-27.569-27.429-27.569Z"/><path class="cls-1" d="M902.794,304.349l-18.193,5.318v16.513l-10.775,1.821v13.154h10.775v35.127c0,16.373,9.656,23.79,23.791,23.79,4.898,0,9.516-.979,13.015-2.238v-15.115c-2.379,1.121-5.737,1.959-8.817,1.959-6.018,0-9.656-3.078-9.656-10.496v-33.027h18.473v-15.256h-18.613v-21.551Z"/><path class="cls-1" d="M993.62,380.761v-27.431c0-19.313-12.315-28.828-31.768-28.828-10.077,0-19.173,2.518-26.31,6.017v14.835c7.418-4.059,16.234-6.577,24.351-6.577,9.797,0,15.115,3.777,15.395,14.133l-17.914,2.8c-16.934,2.798-27.709,9.095-27.709,22.81v.28c0,13.016,9.376,21.693,24.77,21.693,4.338,0,8.678-.7,12.596-2.1l8.677-8.256h1.819c2.519,6.717,7.418,10.356,16.234,10.356,3.359,0,7.137-.56,10.776-1.819v-12.035c-1.819.42-3.499.841-5.178.841-4.198,0-5.737-2.38-5.737-6.717ZM975.426,381.738c-4.758,2.66-10.076,4.199-15.534,4.199-7.697,0-11.755-3.219-11.755-9.095s4.198-8.538,12.315-10.076l14.974-2.522v17.493Z"/><path class="cls-1" d="M1032.945,334.578h-1.539l-1.68-8.678h-14.834v72.494h18.334v-54.02c7.417-2.098,15.254-3.359,23.93-3.639v-16.513c-4.898.14-11.336.979-15.534,2.378l-8.677,7.978Z"/><path class="cls-1" d="M1130.348,387.478c-4.198,0-5.737-2.38-5.737-6.717v-27.431c0-19.313-12.315-28.828-31.768-28.828-10.076,0-19.173,2.518-26.31,6.017v14.835c7.418-4.059,16.234-6.577,24.352-6.577,9.796,0,15.114,3.777,15.394,14.133l-17.914,2.8c-16.933,2.798-27.709,9.095-27.709,22.81v.28c0,13.016,9.376,21.693,24.771,21.693,4.338,0,8.677-.7,12.595-2.1l8.678-8.256h1.819c2.52,6.717,7.418,10.356,16.234,10.356,3.359,0,7.137-.56,10.776-1.819v-12.035c-1.819.42-3.499.841-5.179.841ZM1106.418,381.738c-4.759,2.66-10.077,4.199-15.535,4.199-7.697,0-11.755-3.219-11.755-9.095s4.198-8.538,12.315-10.076l14.974-2.522v17.493Z"/></svg>