<svg id="LOGOS" xmlns="http://www.w3.org/2000/svg" viewBox="0 0 1250 703">
  <defs>
    <style>
      .cls-1 {
        fill: #487358;
        fill-rule: evenodd;
      }
    </style>
  </defs>
  <g id="Layer_4" data-name="Layer 4">
    <g>
      <path class="cls-1" d="M176,270.8807l.05493,122.49575c0,34.04954,26.98588,38.74285,56.15454,38.74285l57.90085-.01792V404.303l-51.65429-.01814c-13.447,0-20.24791-6.70647-20.21182-21.8099l-.05057-111.59426Z"/>
      <path class="cls-1" d="M318.63267,311.94744s5.51361,10.53812,10.99367,19.11779a11.12441,11.12441,0,0,0,9.76356,4.91672h58.10288c12.538,0,11.90177,5.66071,11.90177,9.0375,0,.42544.03355,12.02956.03355,12.02956H344.53324c-57.885,0-57.03665,74.8301,1.92146,74.8301l101.65993.009-.02919-89.82253c0-19.54736-10.34276-30.15053-36.97285-30.15053-.05493-.0046-92.47992.03241-92.47992.03241m36.63176,69.38063,53.99865.02229v26.57745H355.23961c-25.66591,0-25.99711-26.59974.02482-26.59974"/>
      <path class="cls-1" d="M474.912,311.95318V431.95543h41.29244l-.04826-97.34723,38.73272.01563c12.51773.09446,21.26242,6.83128,21.74486,16.7656l-.00667,80.566h41.4138v-85.8709c.08529-21.82139-17.42664-33.95853-49.48276-34.17731l-93.64613.046"/>
      <path class="cls-1" d="M646.32861,311.95318V432.03174h41.29015l.03381-97.42354,38.64835.01563c12.44372.09446,21.1344,6.83128,21.62373,16.7656l-.01356,80.566h41.53955l-.03588-85.8732c.09193-20.2355-19.77881-33.97092-49.44921-34.175l-93.63694.046"/>
      <path class="cls-1" d="M881.26952,311.13611h.03355c-48.468,0-73.8156,29.41458-73.8156,58.46878,0,24.90284,21.35436,62.11266,84.95522,62.11266l65.65474.07171.03812-24.2655-60.26107-.04712c-35.26144,0-51.31872-19.88638-51.31872-38.36108,0-17.50294,14.16292-35.21664,41.2297-35.21664h26.55929L873.178,384.30425H909.38c6.39228,0,9.2901-3.38254,12.35155-6.96251L949.649,342.26759c11.53011-14.51641,14.90806-31.24135-14.31553-31.36822-33.28853-.13813-53.8506.23237-54.06392.23674"/>
      <path class="cls-1" d="M1019.476,350.12349c0-8.8973,10.35859-15.29763,18.54867-15.29763h15.22478a10.94188,10.94188,0,0,0,9.76587-5.05692c5.37111-8.639,10.9847-17.8192,10.9847-17.8192s-50.81606-.03471-50.86548-.03471c-29.91494,0-45.46264,16.93271-45.46264,35.32421v84.64655l41.8041-.00668Z"/>
    </g>
  </g>
</svg>
