<?xml version="1.0" encoding="UTF-8"?>
<svg id="PASTE_LOGO_HERE" data-name="PASTE LOGO HERE" xmlns="http://www.w3.org/2000/svg" viewBox="0 0 1250 703">
  <defs>
    <style>
      .cls-1 {
        fill: #fd1a16;
      }

      .cls-2 {
        fill: #0f298f;
      }
    </style>
  </defs>
  <g>
    <path class="cls-1" d="M176.63,320.76c0,13.57-10.04,21.94-26.26,21.94h-13.92v17.8h-11.45v-61.68h25.37c16.21,0,26.26,8.28,26.26,21.94ZM165.09,320.76c0-7.75-5.2-12.25-15.24-12.25h-13.39v24.5h13.39c10.05,0,15.24-4.49,15.24-12.25Z"/>
    <path class="cls-1" d="M210.53,312.92v10.48c-.97-.17-1.76-.26-2.56-.26-8.37,0-13.66,4.93-13.66,14.54v22.82h-11.01v-47.05h10.48v6.87c3.17-4.93,8.9-7.4,16.74-7.4Z"/>
    <path class="cls-1" d="M214.53,299.08c0-3.7,3-6.61,7.05-6.61s7.05,2.73,7.05,6.34c0,3.88-2.91,6.87-7.05,6.87s-7.05-2.91-7.05-6.61ZM216.03,313.45h11.01v47.05h-11.01v-47.05Z"/>
    <path class="cls-1" d="M284,333.53v26.96h-11.01v-25.55c0-8.37-4.14-12.42-11.19-12.42-7.84,0-13.13,4.76-13.13,14.18v23.79h-11.01v-47.05h10.48v6.08c3.61-4.32,9.34-6.61,16.21-6.61,11.28,0,19.65,6.43,19.65,20.62Z"/>
    <path class="cls-1" d="M290.8,336.97c0-14.1,10.57-24.05,25.46-24.05,9.16,0,16.48,3.79,20.09,10.93l-8.46,4.93c-2.82-4.49-7.05-6.52-11.72-6.52-8.11,0-14.27,5.64-14.27,14.71s6.17,14.71,14.27,14.71c4.67,0,8.9-2.03,11.72-6.52l8.46,4.93c-3.61,7.05-10.93,11.01-20.09,11.01-14.89,0-25.46-10.05-25.46-24.14Z"/>
    <path class="cls-1" d="M377.69,346.66l5.82,6.78c-4.14,5.02-10.75,7.67-18.85,7.67-15.77,0-25.99-10.13-25.99-24.14s10.22-24.05,24.23-24.05c13.13,0,23.7,8.81,23.79,23.52l-36.04,7.05c2.29,5.38,7.4,8.28,14.27,8.28,5.29,0,9.34-1.67,12.78-5.11ZM349.32,336.35v.09l26.61-5.11c-1.5-5.73-6.43-9.6-13.04-9.6-8.02,0-13.57,5.64-13.57,14.62Z"/>
    <path class="cls-1" d="M419.91,357.94c-2.64,2.11-6.61,3.17-10.57,3.17-10.31,0-16.21-5.46-16.21-15.86v-42.2h11.01v10.75h12.6v8.81h-12.6v22.38c0,4.58,2.38,7.05,6.52,7.05,2.29,0,4.49-.62,6.17-1.94l3.08,7.84Z"/>
    <path class="cls-1" d="M420.13,336.97c0-14.1,10.57-24.05,25.02-24.05s25.11,9.95,25.11,24.05-10.49,24.14-25.11,24.14-25.02-10.05-25.02-24.14ZM459.16,336.97c0-8.99-5.99-14.71-14.01-14.71s-13.92,5.73-13.92,14.71,5.99,14.71,13.92,14.71,14.01-5.73,14.01-14.71Z"/>
    <path class="cls-1" d="M523.97,333.53v26.96h-11.01v-25.55c0-8.37-4.14-12.42-11.19-12.42-7.84,0-13.13,4.76-13.13,14.18v23.79h-11.01v-47.05h10.48v6.08c3.61-4.32,9.34-6.61,16.21-6.61,11.28,0,19.65,6.43,19.65,20.62Z"/>
    <path class="cls-1" d="M559.82,298.82h26.96c20,0,33.66,12.34,33.66,30.84s-13.66,30.84-33.66,30.84h-26.96v-61.68ZM586.25,350.8c13.74,0,22.64-8.37,22.64-21.15s-8.9-21.15-22.64-21.15h-14.98v42.29h14.98Z"/>
    <path class="cls-1" d="M627.29,299.08c0-3.7,3-6.61,7.05-6.61s7.05,2.73,7.05,6.34c0,3.88-2.91,6.87-7.05,6.87s-7.05-2.91-7.05-6.61ZM628.79,313.45h11.01v47.05h-11.01v-47.05Z"/>
    <path class="cls-1" d="M697.26,313.45v39.91c0,17.09-8.9,24.85-25.38,24.85-8.81,0-17.53-2.29-22.91-6.69l4.93-8.28c4.14,3.44,10.84,5.64,17.36,5.64,10.4,0,14.98-4.76,14.98-14.27v-2.47c-3.88,4.23-9.43,6.26-15.77,6.26-13.48,0-23.79-9.16-23.79-22.82s10.31-22.64,23.79-22.64c6.61,0,12.42,2.11,16.3,6.78v-6.26h10.49ZM686.43,335.56c0-7.93-5.99-13.3-14.27-13.3s-14.36,5.37-14.36,13.3,5.99,13.48,14.36,13.48,14.27-5.46,14.27-13.48Z"/>
    <path class="cls-1" d="M706.47,299.08c0-3.7,3-6.61,7.05-6.61s7.05,2.73,7.05,6.34c0,3.88-2.91,6.87-7.05,6.87s-7.05-2.91-7.05-6.61ZM707.97,313.45h11.01v47.05h-11.01v-47.05Z"/>
    <path class="cls-1" d="M755.95,357.94c-2.64,2.11-6.61,3.17-10.57,3.17-10.31,0-16.21-5.46-16.21-15.86v-42.2h11.01v10.75h12.6v8.81h-12.6v22.38c0,4.58,2.38,7.05,6.52,7.05,2.29,0,4.49-.62,6.17-1.94l3.08,7.84Z"/>
    <path class="cls-1" d="M806.35,313.45v47.05h-10.48v-6.08c-3.7,4.49-9.16,6.7-15.6,6.7-13.74,0-23.79-9.52-23.79-24.14s10.05-24.05,23.79-24.05c5.99,0,11.28,2.03,15.07,6.26v-5.73h11.01ZM795.52,336.97c0-8.99-5.99-14.71-14.01-14.71s-13.92,5.73-13.92,14.71,5.99,14.71,13.92,14.71,14.01-5.73,14.01-14.71Z"/>
    <path class="cls-1" d="M816.98,345.78v-50.66h11.01v49.87c0,4.58,2.2,7.05,6.61,7.05,1.5,0,3.08-.44,3.96-.88l.53,8.81c-2.11.79-4.41,1.15-6.61,1.15-9.78,0-15.51-5.55-15.51-15.33Z"/>
    <path class="cls-1" d="M910.54,328.95h10.84v31.54h-9.43v-3.61c-4.4,3-10.13,4.49-16.56,4.49-16.74,0-31.37-11.1-31.37-31.28,0-18.85,14.1-32.16,33.39-32.16,10.31,0,18.94,3.44,24.76,10.04l-7.22,7.05c-4.84-4.85-10.4-7.05-17-7.05-13.13,0-22.38,8.9-22.38,22.03,0,14.19,9.96,21.59,20.88,21.59,5.11,0,10.22-1.59,14.1-4.84v-17.8Z"/>
    <path class="cls-1" d="M959.48,312.92v10.48c-.97-.17-1.76-.26-2.56-.26-8.37,0-13.66,4.93-13.66,14.54v22.82h-11.01v-47.05h10.48v6.87c3.17-4.93,8.9-7.4,16.74-7.4Z"/>
    <path class="cls-1" d="M961.47,336.97c0-14.1,10.57-24.05,25.02-24.05s25.11,9.95,25.11,24.05-10.49,24.14-25.11,24.14-25.02-10.05-25.02-24.14ZM1000.5,336.97c0-8.99-5.99-14.71-14.01-14.71s-13.92,5.73-13.92,14.71,5.99,14.71,13.92,14.71,14.01-5.73,14.01-14.71Z"/>
    <path class="cls-1" d="M1064.34,313.45v47.05h-10.48v-5.99c-3.53,4.32-9.08,6.61-15.16,6.61-12.07,0-20.26-6.61-20.26-20.79v-26.87h11.01v25.37c0,8.55,4.05,12.6,11.01,12.6,7.67,0,12.86-4.76,12.86-14.19v-23.79h11.01Z"/>
    <path class="cls-1" d="M1125,336.97c0,14.62-10.13,24.14-23.88,24.14-5.99,0-11.28-2.03-15.07-6.34v22.82h-11.01v-64.14h10.48v6.17c3.7-4.49,9.16-6.7,15.6-6.7,13.74,0,23.88,9.51,23.88,24.05ZM1113.81,336.97c0-8.99-5.99-14.71-13.92-14.71s-14.01,5.73-14.01,14.71,6.08,14.71,14.01,14.71,13.92-5.73,13.92-14.71Z"/>
  </g>
  <rect class="cls-2" x="125" y="403.01" width="999.97" height="7.52"/>
</svg>