<svg id="Layer_1" data-name="Layer 1" xmlns="http://www.w3.org/2000/svg" viewBox="0 0 100 100"><defs><style>.cls-1{fill:none;}</style></defs><g id="m48-people-speech"><path d="M73.96851,15.63517H34.38517V42.71851h8.42591l2.58077,9.63033,7.22249-9.63033H73.96851Zm-2.08334,25H51.57267l-5.2775,7.03736-1.885-7.03736H36.46851V17.71851H71.88517Zm-7.29166-8.33333a3.125,3.125,0,1,0-3.125-3.125A3.12842,3.12842,0,0,0,64.59351,32.30184Zm0-4.16667a1.04167,1.04167,0,1,1-1.04167,1.04167A1.043,1.043,0,0,1,64.59351,28.13517ZM54.17684,32.30184a3.125,3.125,0,1,0-3.125-3.125A3.12841,3.12841,0,0,0,54.17684,32.30184Zm0-4.16667a1.04167,1.04167,0,1,1-1.04167,1.04167A1.043,1.043,0,0,1,54.17684,28.13517ZM43.76017,32.30184a3.125,3.125,0,1,0-3.125-3.125A3.12841,3.12841,0,0,0,43.76017,32.30184Zm0-4.16667a1.04167,1.04167,0,1,1-1.04166,1.04167A1.043,1.043,0,0,1,43.76017,28.13517ZM22.43144,65.625l-5.02421,18.75H45.11312l-5.02421-18.75ZM20.12227,82.29167l3.90829-14.58334H38.48979l3.90828,14.58334Zm11.143-18.75a9.375,9.375,0,1,0-9.375-9.375A9.38525,9.38525,0,0,0,31.26526,63.54167Zm0-16.66667a7.29167,7.29167,0,1,1-7.29167,7.29167A7.30051,7.30051,0,0,1,31.26526,46.875Zm46.32365,18.75H59.93144l-5.02421,18.75H82.61312ZM61.53056,67.70833H75.98979l3.90828,14.58334H57.62227Zm-2.1403-13.54166a9.375,9.375,0,1,0,9.375-9.375A9.38525,9.38525,0,0,0,59.39026,54.16667Zm16.66667,0A7.29167,7.29167,0,1,1,68.76526,46.875,7.30051,7.30051,0,0,1,76.05693,54.16667Z"/><rect class="cls-1" width="100" height="100"/></g></svg>