<svg id="Layer_1" data-name="Layer 1" xmlns="http://www.w3.org/2000/svg" viewBox="0 0 100 100"><defs><style>.cls-1{fill:none;}</style></defs><g id="m48-document-quick-start-guide"><path d="M53.73535,19.79161,50,23.527l-3.73535-3.73535h-32.723v56.25H45.399l4.54915,4.598,4.64681-4.598h31.8634v-56.25ZM15.625,73.95828V21.87494H45.402l3.55631,3.55632V76.67637L46.2677,73.95828Zm68.75,0H53.7384l-2.69673,2.66927V25.43126L54.598,21.87494H84.375ZM31.97428,35.42373h2.08741V49.99994H31.97428V37.69627L29.128,40.19363V37.88039ZM71.97367,49.943H63.49792V48.07937l5.60914-6.81763a2.81851,2.81851,0,0,0,.77819-1.945,2.14128,2.14128,0,1,0-4.27856.0417H63.51827a3.97709,3.97709,0,0,1,4.23787-4.11478,3.912,3.912,0,0,1,4.21753,4.09342,4.54276,4.54276,0,0,1-1.37227,3.15348L66.036,48.07937h5.9377ZM21.875,55.20828H42.70833v-25H21.875Zm2.08333-22.91667H40.625V53.12494H23.95833ZM21.83126,65.62494H42.66459v2.08334H21.83126Zm0-6.25H42.66459v2.08334H21.83126ZM78.125,30.20828H57.29167v25H78.125ZM76.04167,53.12494H59.375V32.29161H76.04167Zm2.03654,14.58334H57.24487V65.62494H78.07821Zm0-6.25H57.24487V59.37494H78.07821Z"/><rect class="cls-1" width="100" height="100"/></g></svg>