<svg id="Layer_1" data-name="Layer 1" xmlns="http://www.w3.org/2000/svg" viewBox="0 0 100 100"><defs><style>.cls-1{fill:none;}</style></defs><g id="m48-misc-question-faq"><path d="M17.70833,23.95833V71.875h7.86743l3.05176,11.38713L40.01465,71.875h42.277V23.95833Zm62.5,45.83334H39.152l-9.44621,9.4462-2.53092-9.4462H19.79167v-43.75H80.20833Zm-31.25-14.58334h2.08334V59.375H48.95833ZM50,65.625A17.70834,17.70834,0,1,0,32.29167,47.91667,17.72813,17.72813,0,0,0,50,65.625Zm0-33.33333a15.625,15.625,0,1,1-15.625,15.625A15.64208,15.64208,0,0,1,50,32.29167Zm-5.20833,12.5H42.70833V43.75a7.29167,7.29167,0,0,1,14.58334,0c0,2.64079-1.98975,3.96729-3.58887,5.03337-1.65,1.09965-2.66113,1.84733-2.66113,3.3V53.125H48.95833V52.08333c0-2.64078,1.98975-3.96728,3.58887-5.03336,1.65-1.09965,2.66113-1.84733,2.66113-3.3a5.20833,5.20833,0,0,0-10.41666,0Z"/><rect class="cls-1" width="100" height="100"/></g></svg>