<svg id="Layer_1" data-name="Layer 1" xmlns="http://www.w3.org/2000/svg" viewBox="0 0 100 100"><defs><style>.cls-1{fill:none;}</style></defs><g id="m48-information"><path d="M17.70833,23.95833V71.875h7.86743l3.05176,11.38713L40.01465,71.875h42.277V23.95833Zm62.5,45.83334H39.152l-9.44621,9.4462-2.53092-9.4462H19.79167v-43.75H80.20833Zm-29.16666-12.5H48.95833v-12.5h2.08334Zm0-14.58334H48.95833V38.54167h2.08334ZM50,65.625A17.70834,17.70834,0,1,0,32.29167,47.91667,17.72813,17.72813,0,0,0,50,65.625Zm0-33.33333a15.625,15.625,0,1,1-15.625,15.625A15.64208,15.64208,0,0,1,50,32.29167Z"/><rect class="cls-1" width="100" height="100"/></g></svg>