<svg id="Layer_1" data-name="Layer 1" xmlns="http://www.w3.org/2000/svg" viewBox="0 0 100 100"><defs><style>.cls-1{fill:none;}</style></defs><g id="m48-notes"><path d="M69.79167,17.70833V71.18022l7.29166,9.7229,7.29167-9.7229V17.70833Zm3.125,54.16667H81.25l-4.16667,5.55522Zm9.375-2.08333H71.875v-37.5H82.29167Zm0-39.58334H71.875V26.04167H82.29167Zm0-6.25H71.875V19.79167H82.29167v4.16666ZM21.89535,32.29167H59.375V34.375H21.89535Zm0,6.25H59.375V40.625H21.89535Zm0,6.25H59.375V46.875H21.89535ZM47.57589,53.125H21.89535V51.04167H47.57589ZM21.89535,57.29167H53.125V59.375H21.89535Zm0,6.25h14.563V65.625h-14.563ZM65.625,17.70833h-50v8.33334h.01017v56.25H65.65348V17.71851H65.625ZM17.71851,19.80184H63.54167v4.15649H17.71851Zm0,60.40649V26.04167H63.57015V80.20833Z"/><rect class="cls-1" width="100" height="100"/></g></svg>