<svg id="LOGO" xmlns="http://www.w3.org/2000/svg" viewBox="0 0 1250 703"><defs><style>.cls-1{fill:#fff;}.cls-2{fill:#004a98;}.cls-3{fill:#bb1a31;}.cls-4{fill:#003e77;}</style></defs><path class="cls-1" d="M679.95371,436.72616a15.23152,15.23152,0,0,0,10.71443-4.43,15.06052,15.06052,0,0,0-14.86973-25.22359,9.66038,9.66038,0,0,0-4.84212-1.3393H624.28666c-.206,0-.4121,0-.61814.01716a24.80234,24.80234,0,0,0-7.74392,1.71706,9.60347,9.60347,0,0,0-5.46023-1.68271H597.44906c-5.35721,0-89.11533-.05151-89.32137-.05151a25.07136,25.07136,0,0,0-7.76111,1.68271,9.69993,9.69993,0,0,0-5.35721-1.614H471.89778a15.2738,15.2738,0,0,0-12.38,6.25009c-1.44233,1.90593-5.49458,8.44792-7.16013,11.16088a1.29605,1.29605,0,0,1-.103.22322c-.08586.13737-.22323.22323-.30906.3606l-22.44194,34.73607a9.71514,9.71514,0,0,0,8.156,14.97275h15.3505a9.72286,9.72286,0,0,0,8.13887-4.41285l10.972-16.913v11.62449a9.70228,9.70228,0,0,0,9.70137,9.70137h60.98991a8.70441,8.70441,0,0,0,1.88878-.18888,25.06884,25.06884,0,0,0,10.0448-4.29264,24.13659,24.13659,0,0,0,11.45277,4.43l1.04741.06867c.25755.01716.54947.03435.807.03435h29.70506a5.81717,5.81717,0,0,0,.77267-.03435,24.76407,24.76407,0,0,0,6.66219-1.54534,9.62548,9.62548,0,0,0,5.39156,1.6312h46.65249c.18886,0,.36057,0,.54948-.01716,15.47071-.89288,21.41171-13.41022,22.39045-19.935a29.59387,29.59387,0,0,0,.103-7.89848,22.19781,22.19781,0,0,0-3.94921-9.42666.74864.74864,0,0,0,.1202-.103A12.69426,12.69426,0,0,0,679.95371,436.72616Zm309.431,7.05711h-3.53713a33.70205,33.70205,0,0,0,.498-3.6745,19.93233,19.93233,0,0,0-5.8895-16.19185c-4.10379-4.01791-9.667-6.06121-16.53528-6.06121a31.50508,31.50508,0,0,0-16.5009,4.58454,9.58112,9.58112,0,0,0-3.77755-2.43822,36.3879,36.3879,0,0,0-11.76186-2.14632,32.11172,32.11172,0,0,0-16.67262,4.91079,38.451,38.451,0,0,0-12.80924,12.67189,35.90544,35.90544,0,0,0-5.59762,16.65546c-.03432.51513-.01719.97874-.01719,1.47667a9.64233,9.64233,0,0,0-9.68418-9.77006H878.8234a9.7393,9.7393,0,0,0,3.726-5.35721l1.80289-6.76522a9.68747,9.68747,0,0,0-6.23293-11.676,36.262,36.262,0,0,0-11.76186-2.12916,32.00847,32.00847,0,0,0-16.65549,4.91079,36.10993,36.10993,0,0,0-4.37847,3.12506,20.68675,20.68675,0,0,0-1.73425-1.97461c-4.12093-4.0351-9.68423-6.07837-16.55247-6.07837a31.59754,31.59754,0,0,0-16.67261,4.6704c-.18886.103-.34344.25754-.5151.36059a9.63252,9.63252,0,0,0-4.46436-3.0392,42.25585,42.25585,0,0,0-13.084-1.99179,27.252,27.252,0,0,0-14.32026,3.57148,9.284,9.284,0,0,0-2.90183-1.56253,42.25578,42.25578,0,0,0-13.084-1.99179,27.26717,27.26717,0,0,0-14.13141,3.45127,9.68113,9.68113,0,0,0-6.57631-2.64425h-8.32774c-.82421-.206-1.68274-.3606-2.5584-.51513a26.93261,26.93261,0,0,0-3.77755-.29189,29.31905,29.31905,0,0,0-16.08883,5.16833,44.1224,44.1224,0,0,0-13.04965,13.95969c-3.86338,6.23293-6.02689,12.36282-6.439,18.23515a19.13728,19.13728,0,0,0,3.14219,11.8992,15.51682,15.51682,0,0,0,13.44455,7.246,20.20585,20.20585,0,0,0,9.255-2.3352,9.75755,9.75755,0,0,0,5.21987,1.52818h9.58121a9.61087,9.61087,0,0,0,5.3744-1.66555,44.442,44.442,0,0,0,14.097,2.47257,29.02009,29.02009,0,0,0,14.04553-3.27959c.22322.103.41207.22323.65249.30906a45.40343,45.40343,0,0,0,15.62524,2.95334c6.748,0,12.41435-1.68271,16.82715-4.97945.22322-.17172.41207-.34341.6353-.51513,4.05223,3.60583,9.2721,5.49458,15.608,5.49458a31.83287,31.83287,0,0,0,17.05038-4.73907,34.12734,34.12734,0,0,0,3.9664-2.919,20.58871,20.58871,0,0,0,17.11907,7.67525,46.20551,46.20551,0,0,0,15.2818-2.86748,9.6538,9.6538,0,0,0,5.92388,2.06046h10.40536a9.73774,9.73774,0,0,0,9.37513-7.17729l2.79881-10.38821a9.1917,9.1917,0,0,0,.30906-2.0433,19.71188,19.71188,0,0,0,5.941,14.57783,21.89611,21.89611,0,0,0,15.47072,5.85518,48.13189,48.13189,0,0,0,18.04629-3.86338,9.35845,9.35845,0,0,0,.91-.49794,23.32128,23.32128,0,0,0,14.26875,4.36132,31.80589,31.80589,0,0,0,16.98173-4.70475.37564.37564,0,0,0,.05151.08586,9.68641,9.68641,0,0,0,7.70958,3.79471h10.40536a9.68286,9.68286,0,0,0,9.358-7.17729l2.79881-10.38821a9.69436,9.69436,0,0,0-9.3408-12.2255Zm-558.765-8.46511c.44643-6.45613-1.99179-10.45688-4.0866-12.65471a15.50537,15.50537,0,0,0-11.40127-4.82493,21.22384,21.22384,0,0,0-9.42665,2.28369,9.72069,9.72069,0,0,0-5.134-1.47667H390.99a9.60851,9.60851,0,0,0-4.51586,1.11608,9.83789,9.83789,0,0,0-4.48152-1.11608H373.6649c-.84136-.206-1.68273-.37775-2.55842-.51512a26.931,26.931,0,0,0-3.77752-.2919,29.3869,29.3869,0,0,0-16.106,5.18553,44.15638,44.15638,0,0,0-13.0153,13.9425c-3.86338,6.23293-6.044,12.38-6.45615,18.28666a19.49324,19.49324,0,0,0,3.15938,11.91639,15.53688,15.53688,0,0,0,13.4274,7.21163,20.54557,20.54557,0,0,0,9.27212-2.3352,9.75748,9.75748,0,0,0,5.21985,1.52818h9.58119a9.7471,9.7471,0,0,0,4.4987-1.11607,9.62557,9.62557,0,0,0,4.48152,1.11607h9.58119a9.62391,9.62391,0,0,0,6.40463-2.421,9.71366,9.71366,0,0,0,6.4218,2.421h9.58118a9.72235,9.72235,0,0,0,9.37514-7.16012l6.76521-25.01753A30.14537,30.14537,0,0,0,430.61971,435.31816Zm574.6135-187.98352A29.53455,29.53455,0,0,0,993.231,235.48693a31.39595,31.39595,0,0,0-30.5808-.01716,29.47651,29.47651,0,0,0-7.8126,6.14707,9.83794,9.83794,0,0,0-1.9746-6.21575,9.70262,9.70262,0,0,0-7.70958-3.81187H901.35124a9.72013,9.72013,0,0,0-9.255,6.76521l-5.51175,17.411c-.34343,1.08175-1.63122,5.18551-1.99179,6.31877l-7.04,22.20157-9.58116-22.99141c-.46359-1.11609-2.18065-5.237-2.6271-6.31878l-7.246-17.411a9.7115,9.7115,0,0,0-8.96305-5.97536H806.93023a9.71982,9.71982,0,0,0-9.39231,7.246l-4.55019,17.411c-.27474,1.06457-1.37363,5.18552-1.66555,6.31877l-5.20268,19.88354A73.512,73.512,0,0,0,777.62,260.07522c-.807-1.37364-4.12093-6.16423-5.08248-7.38334-12.24263-15.53938-30.203-24.09033-50.58452-24.09033-18.14931,0-36.62482,6.98843-52.57631,19.64314l1.25347-4.0866a9.70577,9.70577,0,0,0-9.2721-12.56886H541.09533a9.72566,9.72566,0,0,0-9.3408,7.05711L506.6168,327.2122l-5.28854-86.5054a9.70371,9.70371,0,0,0-9.68421-9.11757H444.69969a9.68714,9.68714,0,0,0-8.2247,4.5502l-35.33706,56.49122-3.19373-51.941a9.70072,9.70072,0,0,0-9.6842-9.10041H341.33269a9.68717,9.68717,0,0,0-8.22471,4.55021L242.37863,381.19651a9.70617,9.70617,0,0,0,8.22471,14.85255h46.41208a9.69737,9.69737,0,0,0,8.53378-5.08249l6.25009-11.53863a8.56042,8.56042,0,0,0,.48078-1.25346h28.21126l-.22321,7.93281a9.70653,9.70653,0,0,0,9.70138,9.97611h46.94438c.103,0,.22321-.03434.32624-.03434h3.15938a9.73121,9.73121,0,0,0,8.53379-5.08249l6.25009-11.53863a7.87531,7.87531,0,0,0,.48077-1.25346H443.8754l-.22322,7.79545a9.70579,9.70579,0,0,0,9.70139,9.95893h46.9272c.13737,0,.2919-.03434.42927-.03434H619.25575a9.69458,9.69458,0,0,0,9.32361-7.0056l3.27959-11.38409c.30906-1.06458,1.511-5.15117,1.85442-6.28444l2.215-7.50355a67.86284,67.86284,0,0,0,5.735,10.25084c.92723,1.35648,4.77342,6.19858,5.90669,7.41769,12.0881,13.084,28.88093,20.27847,47.32212,20.27847,17.84026,0,36.38446-6.81673,52.23293-19.21389,1.49383-1.18477,6.67938-5.68346,8.03582-6.98842a106.4138,106.4138,0,0,0,9.3408-10.31953l-.22323.87571c-.27473,1.06458-1.37362,5.21986-1.66555,6.35311l-2.97052,11.4356a9.71853,9.71853,0,0,0,9.40949,12.1396H813.352a9.70575,9.70575,0,0,0,9.28929-6.88541l11.65884-38.44493,14.30307,39.02872a9.6921,9.6921,0,0,0,9.08326,6.3016h48.00893a9.68407,9.68407,0,0,0,9.37512-7.21163l32.31505-118.66589a33.00356,33.00356,0,0,0,3.22807,8.39641,29.92882,29.92882,0,0,0,11.83056,11.83053,31.52256,31.52256,0,0,0,31.04444,0,29.97186,29.97186,0,0,0,11.83056-11.8477,31.48111,31.48111,0,0,0-.08594-31.11308Z"/><path class="cls-2" d="M362.84742,463.87285l3.98358-14.76671a45.557,45.557,0,0,1-8.99738,11.0922q-5.09967,4.48154-9.47816,4.48153a5.9524,5.9524,0,0,1-5.3057-2.816,9.54127,9.54127,0,0,1-1.614-5.95819c.2919-4.30981,1.97462-8.91154,5.01381-13.80514a34.56606,34.56606,0,0,1,10.09629-10.95484,19.75663,19.75663,0,0,1,10.78313-3.60583,16.60565,16.60565,0,0,1,2.3352.18888,21.67545,21.67545,0,0,1,2.73011.61814h9.59835l-9.58119,35.52594Zm6.26726-23.249,1.59686-5.88949a9.42169,9.42169,0,0,0-2.215-.91,9.08424,9.08424,0,0,0-2.24934-.2919,9.46469,9.46469,0,0,0-5.95819,2.48973q-3.03919,2.49833-5.82083,8.20754-2.78163,5.7178-3.022,9.23778a3.55278,3.55278,0,0,0,.30907,1.78573,1.40033,1.40033,0,0,0,1.408.84137q2.60136,0,7.62375-5.42591A102.27984,102.27984,0,0,0,369.11468,440.62386Z"/><path class="cls-2" d="M381.40882,463.87285,390.99,428.34691h9.58118l-3.9664,14.74952a47.474,47.474,0,0,1,9.13475-11.34975c3.19373-2.79882,6.336-4.20679,9.37514-4.20679a5.72091,5.72091,0,0,1,4.34415,1.78573q1.69991,1.77715,1.44233,5.3057a22.16458,22.16458,0,0,1-.75551,4.24114l-6.78238,25.00036h-9.58119l6.57634-24.36506a6.94416,6.94416,0,0,0,.25756-1.35646q.12879-1.80291-1.23628-1.80292-2.26651,0-6.95409,5.3057a117.06622,117.06622,0,0,0-8.25905,10.43972l-3.19373,11.779h-9.564Z"/><path class="cls-2" d="M722.09033,463.87285l3.98359-14.76671a45.16355,45.16355,0,0,1-8.99737,11.0922q-5.09969,4.48154-9.47814,4.48153a5.95235,5.95235,0,0,1-5.3057-2.816,9.5414,9.5414,0,0,1-1.614-5.95819q.46359-6.46472,5.01383-13.80514a34.566,34.566,0,0,1,10.09631-10.95484,19.75652,19.75652,0,0,1,10.78312-3.60583,16.6048,16.6048,0,0,1,2.33518.18888,21.67623,21.67623,0,0,1,2.73011.61814h9.59835l-9.54689,35.52594Zm6.28444-23.249,1.59685-5.88949a9.42211,9.42211,0,0,0-2.215-.91,9.08412,9.08412,0,0,0-2.24934-.2919,9.46462,9.46462,0,0,0-5.95819,2.48973q-3.03918,2.49833-5.82086,8.20754-2.78158,5.7178-3.022,9.23778a3.553,3.553,0,0,0,.309,1.78573,1.40035,1.40035,0,0,0,1.408.84137q2.60137,0,7.62375-5.42591A104.79143,104.79143,0,0,0,728.37477,440.62386Z"/><path class="cls-2" d="M738.90035,462.32748l1.83726-6.85107q6.5935,3.21948,11.24671,3.22808a5.7567,5.7567,0,0,0,3.53714-1.11608,3.78354,3.78354,0,0,0,1.614-2.86749,3.89631,3.89631,0,0,0-.32624-1.88877,15.19739,15.19739,0,0,0-2.54127-3.12506l-2.23215-2.36955c-2.33517-2.45538-3.77755-4.3098-4.30983-5.5976a8.41535,8.41535,0,0,1-.66968-3.84622q.25758-3.76036,4.00072-7.05711,3.73464-3.29675,10.93765-3.29675a32.369,32.369,0,0,1,10.07913,1.52818l-1.78576,6.5935a20.866,20.866,0,0,0-8.49946-2.12916,6.06041,6.06041,0,0,0-3.8977,1.08176,3.67454,3.67454,0,0,0-1.42514,2.6786,3.4407,3.4407,0,0,0,.46359,2.02612,16.23756,16.23756,0,0,0,2.48976,2.83313l2.57558,2.55843a20.38387,20.38387,0,0,1,3.67453,4.55019,8.28973,8.28973,0,0,1,.96155,4.63605,10.26413,10.26413,0,0,1-4.39566,7.74393q-4.09518,3.065-11.02354,3.05636A36.05834,36.05834,0,0,1,738.90035,462.32748Z"/><path class="cls-2" d="M769.20641,462.32748l1.83727-6.85107q6.59349,3.21948,11.22957,3.22808a5.7567,5.7567,0,0,0,3.53714-1.11608,3.78358,3.78358,0,0,0,1.614-2.86749,3.89631,3.89631,0,0,0-.32625-1.88877,15.19758,15.19758,0,0,0-2.54126-3.12506l-2.23216-2.36955c-2.35236-2.45538-3.77755-4.3098-4.30983-5.5976a8.178,8.178,0,0,1-.65249-3.84622q.25756-3.76036,4.00072-7.05711,3.73464-3.29675,10.93765-3.29675a32.369,32.369,0,0,1,10.07913,1.52818l-1.78576,6.5935a20.87343,20.87343,0,0,0-8.51659-2.12916,6.008,6.008,0,0,0-3.88057,1.08176,3.67454,3.67454,0,0,0-1.42514,2.6786,3.44063,3.44063,0,0,0,.46359,2.02612,16.23711,16.23711,0,0,0,2.48976,2.83313l2.57558,2.55843a20.38415,20.38415,0,0,1,3.67453,4.55019,8.28973,8.28973,0,0,1,.96155,4.63605,10.26419,10.26419,0,0,1-4.39566,7.74393q-4.06939,3.065-11.02354,3.05636A36.135,36.135,0,0,1,769.20641,462.32748Z"/><path class="cls-2" d="M814.53674,464.67987c-4.06942,0-7.2288-1.09892-9.51252-3.27959a10.29229,10.29229,0,0,1-3.05636-8.58529,27.55823,27.55823,0,0,1,4.24113-12.483,27.902,27.902,0,0,1,9.16909-9.51249,21.90583,21.90583,0,0,1,11.62446-3.2624q6.38749,0,9.75288,3.29675a10.3918,10.3918,0,0,1,3.00485,8.56813,30.44393,30.44393,0,0,1-13.3072,21.97832A22.11356,22.11356,0,0,1,814.53674,464.67987Zm2.47256-6.21577a8.66684,8.66684,0,0,0,5.8895-2.318,18.70668,18.70668,0,0,0,4.49868-6.50764,24.75,24.75,0,0,0,2.18065-8.55094c.17172-2.42106-.17172-4.24114-1.03025-5.47742a4.467,4.467,0,0,0-3.93207-1.87159,8.52,8.52,0,0,0-5.68346,2.30085,18.29581,18.29581,0,0,0-4.53306,6.49048,25.35566,25.35566,0,0,0-2.215,8.654,8.35467,8.35467,0,0,0,1.04738,5.40872A4.29375,4.29375,0,0,0,817.0093,458.4641Z"/><path class="cls-2" d="M867.07873,461.53765a38.35867,38.35867,0,0,1-14.389,3.14222,12.2107,12.2107,0,0,1-8.77414-3.17657q-3.32253-3.168-2.93616-8.757a26.3994,26.3994,0,0,1,4.15531-12.17393,28.61581,28.61581,0,0,1,9.58116-9.49533,22.43054,22.43054,0,0,1,11.65884-3.52,26.92512,26.92512,0,0,1,8.60248,1.614l-1.80289,6.76521c-3.17657-1.59685-5.78648-2.38671-7.847-2.38671a10.5829,10.5829,0,0,0-6.30163,2.18067,17.78568,17.78568,0,0,0-5.237,6.61069,23.20373,23.20373,0,0,0-2.5069,8.73982c-.15452,2.318.29193,4.01791,1.39082,5.06532a5.95036,5.95036,0,0,0,4.29264,1.56252,15.34228,15.34228,0,0,0,3.27959-.42926,41.40639,41.40639,0,0,0,4.17244-1.18477,28.58532,28.58532,0,0,0,4.65321-2.09482Z"/><path class="cls-2" d="M873.89545,463.87285l2.79881-10.38821h10.40537l-2.79881,10.38821Z"/><path class="cls-2" d="M932.58448,461.53765a38.28959,38.28959,0,0,1-14.389,3.14222,12.21068,12.21068,0,0,1-8.77414-3.17657q-3.32253-3.168-2.93616-8.757a26.20375,26.20375,0,0,1,4.15531-12.17393,28.61572,28.61572,0,0,1,9.58116-9.49533,22.43054,22.43054,0,0,1,11.65884-3.52,26.925,26.925,0,0,1,8.60247,1.614l-1.80289,6.76521c-3.17656-1.59685-5.78647-2.38671-7.847-2.38671a10.5829,10.5829,0,0,0-6.30163,2.18067,17.58952,17.58952,0,0,0-5.21987,6.61069,23.20371,23.20371,0,0,0-2.50689,8.73982c-.15453,2.318.30906,4.01791,1.39081,5.06532a5.92262,5.92262,0,0,0,4.29265,1.56252,15.072,15.072,0,0,0,3.2624-.42926,41.4055,41.4055,0,0,0,4.17243-1.18477,28.585,28.585,0,0,0,4.65322-2.09482Z"/><path class="cls-2" d="M951.42061,464.67987c-4.06942,0-7.2288-1.09892-9.51251-3.27959a10.34487,10.34487,0,0,1-3.05636-8.58529,27.5919,27.5919,0,0,1,4.25832-12.483,27.90193,27.90193,0,0,1,9.16908-9.51249,21.90587,21.90587,0,0,1,11.62447-3.2624q6.38748,0,9.75288,3.29675a10.39183,10.39183,0,0,1,3.00485,8.56813,27.66724,27.66724,0,0,1-4.22395,12.46583,28.01326,28.01326,0,0,1-9.08325,9.51249A22.17277,22.17277,0,0,1,951.42061,464.67987Zm2.48976-6.21577a8.63572,8.63572,0,0,0,5.8895-2.318,18.937,18.937,0,0,0,4.49868-6.50764,25.14021,25.14021,0,0,0,2.18064-8.55094c.17172-2.42106-.17171-4.24114-1.03024-5.47742a4.447,4.447,0,0,0-3.93208-1.87159,8.52006,8.52006,0,0,0-5.68346,2.30085,18.29606,18.29606,0,0,0-4.53306,6.49048,25.35588,25.35588,0,0,0-2.215,8.654,8.46381,8.46381,0,0,0,1.04739,5.40872A4.25432,4.25432,0,0,0,953.91037,458.4641Z"/><path class="cls-2" d="M976.18062,463.87285l2.79881-10.38821H989.3848L986.586,463.87285Z"/><path class="cls-2" d="M674.90556,421.56454a5.02242,5.02242,0,1,1,10.0448,0,5.01238,5.01238,0,0,1-4.99665,5.01381A5.01618,5.01618,0,0,1,674.90556,421.56454Zm-.41208,0a5.45165,5.45165,0,1,0,10.90328,0,5.452,5.452,0,0,0-5.443-5.46024A5.474,5.474,0,0,0,674.49348,421.56454Z"/><path class="cls-2" d="M677.91041,424.77543h.75551v-2.54124h1.73424a1.39991,1.39991,0,0,1,.66968.103.828.828,0,0,1,.39494.78985l.0687.9959v.46361a.87611.87611,0,0,1,.0687.18888h.96154v-.13737c-.1202-.03434-.18885-.15452-.25754-.36059a2.75629,2.75629,0,0,1-.05151-.49794l-.03433-.78985a1.292,1.292,0,0,0-.17171-.73833,1.2469,1.2469,0,0,0-.53229-.37775,1.72591,1.72591,0,0,0,.61812-.54947,1.86344,1.86344,0,0,0,.206-.85853,1.4541,1.4541,0,0,0-.78983-1.408,2.4625,2.4625,0,0,0-1.06457-.18888h-2.60991v5.90669Zm.75551-3.21089v-2.02612h1.8544a1.30813,1.30813,0,0,1,.6353.12021.92791.92791,0,0,1,.42926.85852.95268.95268,0,0,1-.32624.82419,1.33852,1.33852,0,0,1-.82421.206h-1.76851Z"/><polygon class="cls-2" points="460.084 429.085 437.66 463.821 452.993 463.821 474.559 430.613 460.084 429.085"/><path class="cls-2" d="M460.61672,428.2954s5.28854-8.6368,6.61068-10.3367a5.61477,5.61477,0,0,1,4.6704-2.45538h23.14594v11.76186s1.18478-4.51587,3.24524-6.645c1.94028-2.02611,4.55019-4.80776,10.47406-5.18552h43.61327v12.87794H460.61672Z"/><path class="cls-2" d="M670.95634,428.31256v-12.8951H624.28671c-5.90668.37776-8.51662,3.17657-10.47406,5.18553-2.07765,2.14632-3.24524,6.645-3.24524,6.645v1.03025Z"/><rect class="cls-2" x="554.65998" y="415.48613" width="13.03247" height="12.80927"/><rect class="cls-2" x="597.46625" y="415.48613" width="13.03247" height="12.80927"/><path class="cls-2" d="M610.49871,432.93145l-12.80926-.75551v14.86973s-.03435,4.29265-4.224,4.29265H571.4528a4.102,4.102,0,0,1-3.726-4.24114V430.167l-12.94661-.9272v22.80253a14.05417,14.05417,0,0,0,12.07092,11.779s1.01306.06867,1.18477.08586h29.72228s12.7234-1.01306,12.7234-13.10117C610.49871,438.70077,610.49871,432.93145,610.49871,432.93145Z"/><path class="cls-2" d="M481.80521,463.8385h60.98991a14.17791,14.17791,0,0,0,11.72751-11.64165,19.05426,19.05426,0,0,0,.206-5.134c-.30906-1.90593-3.98359-10.35386-11.96789-11.0922-4.75626-.42927-47.06457-3.76037-47.06457-3.76037A13.212,13.212,0,0,0,499.697,439.731c2.93618,2.78162,7.60656,3.58864,7.60656,3.58864,1.13326.103,32.60694,2.67861,32.60694,2.67861.9959.05151,2.90183.30906,2.88465,2.76446a2.57088,2.57088,0,0,1-2.6958,2.47257H494.47706v-19.128l-12.68906-.91V463.8385Z"/><path class="cls-2" d="M610.61892,451.14944h45.296a5.2718,5.2718,0,0,0,2.16351-.61814,2.72044,2.72044,0,0,0,.85853-1.9231c0-2.45538-2.04331-2.55843-3.07355-2.60993,0,0-31.83428-2.6271-32.93317-2.713a15.35884,15.35884,0,0,1-7.349-3.46846,12.43722,12.43722,0,0,1-4.224-6.83389s42.54873,2.47257,47.27064,2.919c7.98431.75551,11.72748,8.56813,12.05373,11.178a20.347,20.347,0,0,1-.0687,5.237s-1.64836,10.98916-13.34152,11.65881H610.60176Z"/><path class="cls-2" d="M674.90556,421.56454a5.02242,5.02242,0,1,1,10.0448,0,5.01238,5.01238,0,0,1-4.99665,5.01381A5.01618,5.01618,0,0,1,674.90556,421.56454Zm-.41208,0a5.45165,5.45165,0,1,0,10.90328,0,5.452,5.452,0,0,0-5.443-5.46024A5.474,5.474,0,0,0,674.49348,421.56454Z"/><path class="cls-2" d="M677.91041,424.77543h.75551v-2.54124h1.73424a1.39991,1.39991,0,0,1,.66968.103.828.828,0,0,1,.39494.78985l.0687.9959v.46361a.87611.87611,0,0,1,.0687.18888h.96154v-.13737c-.1202-.03434-.18885-.15452-.25754-.36059a2.75629,2.75629,0,0,1-.05151-.49794l-.03433-.78985a1.292,1.292,0,0,0-.17171-.73833,1.2469,1.2469,0,0,0-.53229-.37775,1.72591,1.72591,0,0,0,.61812-.54947,1.86344,1.86344,0,0,0,.206-.85853,1.4541,1.4541,0,0,0-.78983-1.408,2.4625,2.4625,0,0,0-1.06457-.18888h-2.60991v5.90669Zm.75551-3.21089v-2.02612h1.8544a1.30813,1.30813,0,0,1,.6353.12021.92791.92791,0,0,1,.42926.85852.95268.95268,0,0,1-.32624.82419,1.33852,1.33852,0,0,1-.82421.206h-1.76851Z"/><polygon class="cls-2" points="460.084 429.085 437.66 463.821 452.993 463.821 474.559 430.613 460.084 429.085"/><path class="cls-2" d="M460.61672,428.2954s5.28854-8.6368,6.61068-10.3367a5.61477,5.61477,0,0,1,4.6704-2.45538h23.14594v11.76186s1.18478-4.51587,3.24524-6.645c1.94028-2.02611,4.55019-4.80776,10.47406-5.18552h43.61327v12.87794H460.61672Z"/><path class="cls-2" d="M670.95634,428.31256v-12.8951H624.28671c-5.90668.37776-8.51662,3.17657-10.47406,5.18553-2.07765,2.14632-3.24524,6.645-3.24524,6.645v1.03025Z"/><rect class="cls-2" x="554.65998" y="415.48613" width="13.03247" height="12.80927"/><rect class="cls-2" x="597.46625" y="415.48613" width="13.03247" height="12.80927"/><path class="cls-2" d="M610.49871,432.93145l-12.80926-.75551v14.86973s-.03435,4.29265-4.224,4.29265H571.4528a4.102,4.102,0,0,1-3.726-4.24114V430.167l-12.94661-.9272v22.80253a14.05417,14.05417,0,0,0,12.07092,11.779s1.01306.06867,1.18477.08586h29.72228s12.7234-1.01306,12.7234-13.10117C610.49871,438.70077,610.49871,432.93145,610.49871,432.93145Z"/><path class="cls-2" d="M481.80521,463.8385h60.98991a14.17791,14.17791,0,0,0,11.72751-11.64165,19.05426,19.05426,0,0,0,.206-5.134c-.30906-1.90593-3.98359-10.35386-11.96789-11.0922-4.75626-.42927-47.06457-3.76037-47.06457-3.76037A13.212,13.212,0,0,0,499.697,439.731c2.93618,2.78162,7.60656,3.58864,7.60656,3.58864,1.13326.103,32.60694,2.67861,32.60694,2.67861.9959.05151,2.90183.30906,2.88465,2.76446a2.57088,2.57088,0,0,1-2.6958,2.47257H494.47706v-19.128l-12.68906-.91V463.8385Z"/><path class="cls-2" d="M610.61892,451.14944h45.296a5.2718,5.2718,0,0,0,2.16351-.61814,2.72044,2.72044,0,0,0,.85853-1.9231c0-2.45538-2.04331-2.55843-3.07355-2.60993,0,0-31.83428-2.6271-32.93317-2.713a15.35884,15.35884,0,0,1-7.349-3.46846,12.43722,12.43722,0,0,1-4.224-6.83389s42.54873,2.47257,47.27064,2.919c7.98431.75551,11.72748,8.56813,12.05373,11.178a20.347,20.347,0,0,1-.0687,5.237s-1.64836,10.98916-13.34152,11.65881H610.60176Z"/><polygon class="cls-3" points="491.661 241.291 444.717 241.291 433.831 258.702 492.726 258.702 491.661 241.291"/><polygon class="cls-3" points="453.68 288.115 453.68 312.634 496.022 312.634 493.121 265.038 429.881 265.038 400.09 312.634 439.978 312.634 453.68 288.115"/><polygon class="cls-3" points="453.371 386.227 500.298 386.227 499.851 374.809 453.68 374.809 453.371 386.227"/><polygon class="cls-4" points="945.136 241.291 901.351 241.291 895.839 258.702 940.397 258.702 945.136 241.291"/><polygon class="cls-4" points="849.135 241.291 806.93 241.291 802.38 258.702 856.381 258.702 849.135 241.291"/><polygon class="cls-4" points="938.68 265.038 893.83 265.038 878.789 312.514 859.009 265.038 800.714 265.038 788.249 312.634 925.665 312.634 938.68 265.038"/><polygon class="cls-4" points="388.277 241.291 341.333 241.291 330.447 258.702 389.359 258.702 388.277 241.291"/><polygon class="cls-4" points="350.313 288.115 350.313 312.634 392.656 312.634 389.737 265.038 326.497 265.038 296.724 312.634 336.611 312.634 350.313 288.115"/><polygon class="cls-3" points="496.417 318.97 453.68 318.97 453.68 341.91 423.614 341.91 436.441 318.97 396.141 318.97 393.325 323.486 396.09 368.473 499.474 368.473 496.417 318.97"/><polygon class="cls-4" points="393.033 318.97 350.313 318.97 350.313 341.91 320.247 341.91 333.056 318.97 292.774 318.97 261.781 368.473 365.183 368.473 396.09 368.473 393.325 323.486 393.033 318.97"/><polygon class="cls-3" points="406.65 374.809 396.467 374.809 396.931 386.348 400.417 386.348 406.65 374.809"/><polygon class="cls-4" points="361.216 374.809 350.313 374.809 349.987 386.382 396.931 386.382 396.931 386.348 396.467 374.809 361.216 374.809"/><polygon class="cls-4" points="250.621 386.348 297.033 386.348 303.283 374.809 257.832 374.809 250.621 386.348"/><polygon class="cls-4" points="661.375 241.291 541.112 241.291 536.167 258.702 655.984 258.702 661.375 241.291"/><polygon class="cls-4" points="631.43 297.198 572.878 297.198 577.634 275.065 650.935 275.065 654.043 265.038 534.382 265.038 520.868 312.634 627.154 312.634 631.43 297.198"/><polygon class="cls-4" points="500.075 386.193 619.273 386.193 622.552 374.809 503.234 374.809 500.075 386.193"/><polygon class="cls-4" points="628.785 353.655 557.579 353.655 563.915 331.488 621.934 331.488 625.403 318.97 519.083 318.97 505.037 368.473 624.424 368.473 628.785 353.655"/><path class="cls-4" d="M721.97013,238.32008c-17.96042,0-35.64615,7.72676-50.12094,20.39865H764.9309C754.93766,246.04684,739.94773,238.32008,721.97013,238.32008Z"/><path class="cls-4" d="M714.29487,276.90238c15.71107,0,26.11644,15.77976,24.056,35.732h39.02876c2.6786-18.16648-.498-34.73608-8.10452-47.59685H665.27288a98.73662,98.73662,0,0,0-24.91453,47.59685H679.2669C683.33632,292.68214,698.56661,276.90238,714.29487,276.90238Z"/><path class="cls-4" d="M776.29787,318.9703H737.355c-4.44717,19.3169-19.40273,34.40984-34.75324,34.40984-15.36769,0-25.72155-15.09294-24.24485-34.40984H639.22509c-2.54127,19.19671,1.54534,36.55617,10.43969,49.50279h98.748A99.06993,99.06993,0,0,0,776.29787,318.9703Z"/><path class="cls-4" d="M694.89214,391.97962c16.38075,0,32.5554-6.439,46.24036-17.17058H654.71293C664.62039,385.52348,678.51139,391.97962,694.89214,391.97962Z"/><polygon class="cls-4" points="857.652 386.245 905.661 386.245 908.7 374.809 853.377 374.809 857.652 386.245"/><polygon class="cls-4" points="769.018 386.245 813.318 386.245 816.786 374.809 771.971 374.809 769.018 386.245"/><polygon class="cls-4" points="833.442 319.88 851.076 368.473 910.452 368.473 923.93 318.97 786.6 318.97 773.636 368.473 818.709 368.473 833.442 319.88"/><path class="cls-4" d="M977.94918,241.20474a22.08543,22.08543,0,0,1,10.68011,2.816,20.03871,20.03871,0,0,1,8.13884,8.03584,21.85411,21.85411,0,0,1,.03432,21.70361,20.36759,20.36759,0,0,1-8.03582,8.053,21.83791,21.83791,0,0,1-21.63489,0,20.14986,20.14986,0,0,1-8.03582-8.053,21.74195,21.74195,0,0,1,.03437-21.70361,19.93535,19.93535,0,0,1,8.13884-8.03584A22.03609,22.03609,0,0,1,977.94918,241.20474Zm0,3.60583a18.49971,18.49971,0,0,0-8.91153,2.35236,16.79268,16.79268,0,0,0-6.7824,6.7137,18.03425,18.03425,0,0,0-.05151,18.08062,17.17065,17.17065,0,0,0,6.7137,6.7137,18.10424,18.10424,0,0,0,18.02911,0,17.17065,17.17065,0,0,0,6.7137-6.7137,18.14512,18.14512,0,0,0-.05151-18.08062,16.68916,16.68916,0,0,0-6.7824-6.7137A18.23143,18.23143,0,0,0,977.94918,244.81057Zm-9.5297,30.15153V251.57577h8.03582a19.28417,19.28417,0,0,1,5.97538.65249,5.74121,5.74121,0,0,1,2.93615,2.26651,6.06125,6.06125,0,0,1,1.08176,3.43412,6.21456,6.21456,0,0,1-1.82008,4.46435,7.21082,7.21082,0,0,1-4.85925,2.12915,6.37135,6.37135,0,0,1,1.99179,1.23629,26.6894,26.6894,0,0,1,3.45131,4.636l2.85032,4.58455H983.461l-2.09487-3.69168c-1.63122-2.90183-2.95334-4.72191-3.94921-5.44307a4.76745,4.76745,0,0,0-3.022-.807h-2.215v9.94177h-3.76036Zm3.76036-13.16983h4.58457q3.271,0,4.4815-.97872a3.18787,3.18787,0,0,0,1.18477-2.59276,3.09269,3.09269,0,0,0-.58379-1.85442,3.47417,3.47417,0,0,0-1.59686-1.21911,11.59475,11.59475,0,0,0-3.77754-.4121h-4.29265Z"/></svg>