<?xml version="1.0" encoding="UTF-8"?><svg id="LOGO" xmlns="http://www.w3.org/2000/svg" viewBox="0 0 1250 703"><g id="Symbol"><path d="M938.2077,409.7647h44.6135l-73.5947-106.0875c-5.0936-7.3647-12.295-13.1514-23.1849-13.1514-11.2411,0-18.4424,6.3127-23.5362,13.1514l-75.1754,106.0875h42.8571l27.4645-38.7706,26.5269,38.7706h44.6133l-48.3324-70.9675,4.8796-6.8884,52.8687,77.8559Z" fill="#e5e6e8"/></g><g id="_"><path d="M785.431,294.1806v-.0413c.4124-.1237.7011-.4124.7011-.7836,0-.33-.1443-.598-.3299-.7424-.2475-.1443-.5362-.2474-1.1755-.2474-.5568,0-.9898.0413-1.2991.1031v3.382h.7836v-1.361h.3712c.4331,0,.6393.165.7012.5361.1031.3918.1649.7012.2681.8249h.8455c-.0825-.1237-.1443-.33-.2474-.8455-.1031-.4536-.2887-.7011-.6187-.8248ZM784.5031,293.9331h-.3712v-.9692c.0825-.0206.2268-.0413.433-.0413.4949,0,.7217.2062.7217.5156,0,.3505-.3506.4949-.7836.4949ZM784.6474,290.6956c-1.9384,0-3.485,1.5054-3.485,3.3819,0,1.9178,1.5467,3.4232,3.485,3.4232,1.959,0,3.4644-1.5054,3.4644-3.4232,0-1.8765-1.5054-3.3819-3.4644-3.3819ZM784.668,296.7789c-1.526,0-2.6395-1.196-2.6395-2.7015,0-1.4847,1.1135-2.7014,2.6189-2.7014s2.5983,1.2167,2.5983,2.722c0,1.4848-1.093,2.6808-2.5777,2.6808Z" fill="#e5e6e8"/></g><g id="THE_FINALS"><path d="M458.4965,410.0044h28.8403v-47.8056h13.9113v-27.2905h-13.9113v-16.2677h18.6614v-27.2905h-47.5016v118.6543ZM508.1714,410.0044h28.8401v-118.6543h-28.8401v118.6543ZM579.8062,318.1321c0,8.4753.1697,16.7811.3394,25.9344-1.0178-8.9838-2.375-17.6287-3.5625-25.9344l-3.5626-26.782h-33.9298v118.6543h24.7687v-32.8842c0-8.6448-.1697-16.7811-.3392-26.1039,1.0178,9.1533,2.2054,17.4592,3.7322,26.1039l5.9377,32.8842h31.3849v-118.6543h-24.7687v26.782ZM702.0231,291.3501h-28.8403v118.6543h45.1265v-27.2905h-16.2862v-91.3638ZM754.0826,331.3535h26.9771v-12.035c0-22.3749-5.2591-28.4828-25.6169-28.4828h-10.6879c-20.3578,0-25.6169,6.1079-25.6169,28.4828v2.8817c0,17.1576-.6145,19.337,18.2696,34.8867,16.4933,13.4082,15.6609,10.8481,15.6609,19.4929l-.0161,2.4051c0,3.3901-.0149,4.5092-2.3781,4.5766h-1.8479c-3.0048-.0526-2.7144-1.1865-2.7144-4.5766v-12.374h-26.9741v15.425c0,22.3749,5.259,28.483,25.6169,28.483h10.6879c20.3578,0,25.6169-6.1081,25.6169-28.483v-5.2547c0-17.9589-.1017-19.8434-20.4939-36.3548-15.2167-12.3096-13.7568-9.9048-13.7568-18.3956v-.3391c-.0275-3.565.4471-3.8755,2.7144-3.8987h1.8449c2.6333.0331,2.7316.8357,2.7144,4.5767v8.9838ZM270.3414,318.7732h12.3843v91.5333h28.8403v-91.5333h12.3843v-27.1211h-53.6089v27.1211ZM360.9854,335.1814h-6.1074v-43.5293h-28.8403v118.6544h28.8403v-47.8346h6.1074v47.8346h28.8403v-118.6544h-28.8403v43.5293ZM392.0637,410.3065h48.689v-27.2905h-19.8489v-20.5441h15.0988v-27.2905h-15.0988v-16.2387h19.8489v-27.2906h-48.689v118.6544ZM619.0159,291.3424l-13.9212,118.7393h27.6247l1.0187-13.9094h10.6955l1.0187,13.9094h27.3807l-13.9211-118.7393h-39.8959ZM635.6055,371.5763c1.528-22.2213,2.5465-41.3892,3.3954-59.709.6791,18.3198,1.8674,37.4877,3.5652,59.709h-6.9606Z" fill="#e5e6e8"/></g></svg>