<?xml version="1.0" encoding="UTF-8"?>
<svg id="PASTE_LOGO_HERE" data-name="PASTE LOGO HERE" xmlns="http://www.w3.org/2000/svg" viewBox="0 0 1250 703">
  <defs>
    <style>
      .cls-1 {
        fill: #ef4230;
      }

      .cls-2 {
        fill: #59595b;
      }
    </style>
  </defs>
  <g>
    <path class="cls-2" d="M354.16,401.21v-6.59h28.55v4.24c0,18.43-10.01,30.36-27.13,30.36-18.43,0-29.87-13.97-29.87-31.68s11.84-31.78,30.26-31.78c14.77,0,21.47,7.99,21.47,7.99l-4.15,5.36s-6.18-6.68-17.31-6.68c-14.28,0-22.98,11.33-22.98,25.11s8.4,25,22.57,25c11.95,0,20.05-8.4,20.05-20.95v-.41h-21.47l.02.02Z"/>
    <path class="cls-2" d="M398.5,366.59v61.24h-6.98v-61.24h6.98Z"/>
    <path class="cls-2" d="M428.08,428.84c-11.84,0-21.36-8.51-21.36-22.07s9.52-22.48,21.36-22.48,21.45,8.91,21.45,22.48-9.71,22.07-21.45,22.07ZM442.55,406.68c0-10.23-6.68-16.71-14.47-16.71s-14.47,6.48-14.47,16.71,6.68,16.5,14.47,16.5,14.47-6.18,14.47-16.5Z"/>
    <path class="cls-2" d="M464.66,366.59v25.11h.3s3.23-7.39,15.18-7.39c10.94,0,19.64,9,19.64,22.27s-8.7,22.27-19.83,22.27c-12.45,0-16.09-8.4-16.09-8.4h-.3l-.82,7.39h-5.06v-61.24h6.98ZM478.63,422.98c7.99,0,14.06-6.78,14.06-16.41s-6.07-16.39-14.06-16.39-14.36,6.07-14.36,16.39,6.59,16.41,14.36,16.41Z"/>
    <path class="cls-2" d="M543.9,385.32h4.87v42.51h-4.87l-1.01-6.78h-.3s-3.94,7.79-16,7.79c-11.24,0-20.05-8.81-20.05-22.27s8.7-22.27,19.74-22.27c12.36,0,16.3,7.79,16.3,7.79h.3l1.01-6.78ZM527.81,390.19c-7.99,0-14.17,6.68-14.17,16.39s6.18,16.41,14.17,16.41,14.47-6.07,14.47-16.41-6.59-16.39-14.47-16.39Z"/>
    <path class="cls-2" d="M566.56,366.59v61.24h-6.98v-61.24h6.98Z"/>
    <path class="cls-2" d="M617.48,427.83h-20.24v-60.72h20.24c18.43,0,30.88,11.74,30.88,30.36s-12.45,30.36-30.88,30.36ZM604.31,421.26h12.75c13.67,0,24.09-8.81,24.09-23.79s-10.42-23.79-24.09-23.79h-12.75v47.59Z"/>
    <path class="cls-2" d="M691.81,385.32h4.87v42.51h-4.87l-1.01-6.78h-.3s-3.94,7.79-16,7.79c-11.24,0-20.05-8.81-20.05-22.27s8.7-22.27,19.74-22.27c12.34,0,16.3,7.79,16.3,7.79h.3l1.01-6.78h0ZM675.7,390.19c-7.99,0-14.17,6.68-14.17,16.39s6.18,16.41,14.17,16.41,14.47-6.07,14.47-16.41-6.59-16.39-14.47-16.39Z"/>
    <path class="cls-2" d="M710.27,372.36h6.98v12.96h12.66v5.66h-12.66v25c0,4.46,2.02,6.89,6.27,6.89,3.14,0,6.29-1.92,6.29-1.92l2.33,5.06s-3.64,2.84-9.22,2.84c-8.7,0-12.66-4.95-12.66-12.96v-24.89h-7.99v-5.66h7.99v-12.96l.02-.02Z"/>
    <path class="cls-2" d="M771.19,385.32h4.87v42.51h-4.87l-1.01-6.78h-.3s-3.94,7.79-16,7.79c-11.24,0-20.05-8.81-20.05-22.27s8.7-22.27,19.74-22.27c12.36,0,16.3,7.79,16.3,7.79h.3l1.01-6.78h0ZM755.11,390.19c-7.99,0-14.17,6.68-14.17,16.39s6.18,16.41,14.17,16.41,14.47-6.07,14.47-16.41-6.57-16.39-14.47-16.39Z"/>
    <path class="cls-2" d="M830.41,429.25c-18.02,0-30.27-13.97-30.27-31.68s12.25-31.78,30.27-31.78c13.67,0,20.14,7.79,20.14,7.79l-4.05,5.47s-6.07-6.59-16-6.59c-13.67,0-23.08,11.33-23.08,25.11s9.41,25,23.08,25c9.93,0,16-6.59,16-6.59l4.05,5.47s-6.48,7.79-20.14,7.79Z"/>
    <path class="cls-2" d="M875.19,428.95c-13.26,0-21.47-9-21.47-22.27s7.79-22.37,19.94-22.37,18.73,9.3,18.73,21.15v1.72h-31.68c.2,10.42,6.59,15.78,14.88,15.78,7.79,0,12.04-4.05,12.04-4.05l2.63,5.06s-4.46,4.95-15.07,4.95v.02ZM861.12,401.51h24.09c-1.01-7.39-4.95-11.24-11.65-11.24s-11.13,3.64-12.45,11.24Z"/>
    <path class="cls-2" d="M905.09,385.32l.6,6.27h.51c2.84-4.56,7.19-7.28,14.88-7.28,11.13,0,17.61,7.99,17.61,19.53v23.99h-6.98v-23.17c0-8.2-4.15-14.47-12.14-14.47-8.61,0-12.25,7.19-12.45,12.14v25.52h-6.98v-42.51h4.95l-.02-.02Z"/>
    <path class="cls-2" d="M950.67,372.36h6.98v12.96h12.66v5.66h-12.66v25c0,4.46,2.02,6.89,6.27,6.89,3.14,0,6.29-1.92,6.29-1.92l2.33,5.06s-3.64,2.84-9.22,2.84c-8.7,0-12.66-4.95-12.66-12.96v-24.89h-7.99v-5.66h7.99v-12.96l.02-.02Z"/>
    <path class="cls-2" d="M996.9,390.88c-6.18,0-11.43,5.06-11.43,11.84v25.11h-6.98v-42.51h4.95l.6,7.49h.41c2.02-4.87,6.78-7.6,12.36-7.6h2.43v5.66h-2.34Z"/>
    <path class="cls-2" d="M1023.32,428.95c-13.26,0-21.47-9-21.47-22.27s7.79-22.37,19.94-22.37,18.73,9.3,18.73,21.15v1.72h-31.68c.2,10.42,6.59,15.78,14.88,15.78,7.79,0,12.04-4.05,12.04-4.05l2.63,5.06s-4.46,4.95-15.07,4.95v.02ZM1009.26,401.51h24.09c-1.01-7.39-4.95-11.24-11.65-11.24s-11.13,3.64-12.45,11.24Z"/>
    <path class="cls-2" d="M1063.81,422.87c6.98,0,9.71-2.63,9.71-6.29,0-9.52-27.33-4.95-27.33-20.24,0-6.68,4.87-12.04,15.7-12.04s16.8,3.44,16.8,3.44l-2.84,5.97s-5.26-3.44-13.35-3.44c-6.59,0-9.82,1.92-9.82,5.88,0,9.11,27.33,3.85,27.33,20.14,0,6.59-4.46,12.55-16.41,12.55s-17.4-5.26-17.4-5.26l3.14-4.87s5.77,4.15,14.47,4.15Z"/>
  </g>
  <g>
    <path class="cls-1" d="M232.73,291.3s-4.01-25.76-4.05-37.43c1.35-.09,2.7-.12,4.05-.12s2.72.04,4.03.12c0,11.67-4.03,37.43-4.03,37.43"/>
    <path class="cls-1" d="M239.18,292.33c.07-11.24-1.74-26.92-.98-38.35,2.72.23,5.36.64,7.97,1.21-.75,7.83-2.98,23.46-7.01,37.15"/>
    <path class="cls-1" d="M226.29,292.33c-4.01-13.67-6.25-29.3-7.01-37.15,2.61-.57,5.27-.98,7.99-1.21.76,11.43-1.05,27.1-.98,38.35"/>
    <path class="cls-1" d="M232.73,341.66s4.03,25.76,4.05,37.41c-1.35.09-2.7.12-4.05.12s-2.7-.04-4.05-.12c.04-11.65,4.05-37.41,4.05-37.41"/>
    <path class="cls-1" d="M226.29,340.63c-.07,11.26,1.74,26.9.98,38.33-2.72-.23-5.36-.64-7.99-1.21.76-7.83,2.98-23.46,7.01-37.13"/>
    <path class="cls-1" d="M239.18,340.63c4.03,13.67,6.27,29.3,7.01,37.13-2.61.57-5.27.98-7.97,1.21-.76-11.43,1.05-27.08.98-38.33"/>
    <path class="cls-1" d="M214.9,298.66s-21.06-15.38-29.3-23.6c.89-.99,1.81-1.99,2.77-2.95.96-.98,1.95-1.88,2.95-2.77,8.22,8.26,23.58,29.31,23.58,29.31"/>
    <path class="cls-1" d="M220.21,294.82c-7.88-7.99-20.26-17.79-27.79-26.42,2.08-1.76,4.26-3.34,6.5-4.78,4.99,6.07,14.47,18.71,21.29,31.2"/>
    <path class="cls-1" d="M211.07,303.96c-12.48-6.85-25.12-16.32-31.18-21.32,1.44-2.24,3.02-4.4,4.78-6.5,8.61,7.55,18.41,19.9,26.4,27.82"/>
    <path class="cls-1" d="M250.56,334.29s21.04,15.36,29.3,23.6c-.87.99-1.79,1.97-2.77,2.95-.96.96-1.94,1.88-2.95,2.77-8.22-8.26-23.58-29.31-23.58-29.31"/>
    <path class="cls-1" d="M245.23,338.13c7.9,8.01,20.26,17.79,27.82,26.42-2.08,1.74-4.26,3.34-6.5,4.78-4.99-6.07-14.47-18.7-21.32-31.2"/>
    <path class="cls-1" d="M254.39,328.98c12.48,6.84,25.12,16.3,31.2,21.31-1.44,2.25-3.04,4.4-4.79,6.48-8.61-7.53-18.41-19.9-26.39-27.81"/>
    <path class="cls-1" d="M207.54,316.48s-25.75,4.03-37.39,4.03c-.09-1.33-.14-2.68-.14-4.03s.05-2.72.14-4.03c11.65,0,37.41,4.03,37.41,4.03"/>
    <path class="cls-1" d="M208.58,310.02c-11.24-.07-26.92,1.74-38.33.98.23-2.7.64-5.36,1.21-7.99,7.83.76,23.46,2.98,37.13,7.01"/>
    <path class="cls-1" d="M208.58,322.93c-13.67,4.01-29.3,6.25-37.13,6.98-.57-2.59-.98-5.26-1.21-7.95,11.43-.76,27.1,1.05,38.33.98"/>
    <path class="cls-1" d="M257.91,316.48s25.76-4.03,37.41-4.05c.09,1.33.12,2.68.12,4.05s-.04,2.72-.12,4.03c-11.65,0-37.41-4.03-37.41-4.03"/>
    <path class="cls-1" d="M256.88,322.93c11.24.07,26.92-1.74,38.35-.98-.23,2.72-.64,5.38-1.21,7.95-7.83-.75-23.46-2.97-37.15-6.98"/>
    <path class="cls-1" d="M256.88,310.02c13.67-4.01,29.31-6.23,37.15-7.01.57,2.61.98,5.29,1.21,7.99-11.43.76-27.11-1.05-38.35-.98"/>
    <path class="cls-1" d="M214.9,334.29s-15.36,21.06-23.58,29.31c-.99-.89-1.99-1.81-2.95-2.77s-1.88-1.95-2.77-2.95c8.26-8.22,29.3-23.6,29.3-23.6"/>
    <path class="cls-1" d="M211.07,328.98c-7.99,7.9-17.79,20.28-26.4,27.81-1.76-2.08-3.34-4.24-4.78-6.48,6.05-5.01,18.7-14.47,31.18-21.31"/>
    <path class="cls-1" d="M220.21,338.13c-6.82,12.5-16.3,25.12-21.29,31.2-2.24-1.44-4.42-3.04-6.5-4.78,7.53-8.63,19.9-18.41,27.79-26.42"/>
    <path class="cls-1" d="M250.56,298.66s15.36-21.06,23.58-29.31c1.01.89,1.99,1.81,2.95,2.77.98.94,1.9,1.94,2.77,2.95-8.26,8.22-29.3,23.6-29.3,23.6"/>
    <path class="cls-1" d="M254.39,303.96c7.99-7.9,17.77-20.26,26.39-27.82,1.78,2.08,3.36,4.26,4.79,6.5-6.07,4.99-18.71,14.47-31.2,21.32"/>
    <path class="cls-1" d="M245.23,294.82c6.85-12.48,16.32-25.12,21.32-31.2,2.24,1.46,4.42,3.04,6.5,4.78-7.56,8.61-19.92,18.43-27.82,26.42"/>
    <path class="cls-1" d="M792.87,292.51c0-3.71,3.02-6.64,6.66-6.64s6.75,2.93,6.75,6.64-3.04,6.75-6.75,6.75-6.66-3.02-6.66-6.75"/>
    <path class="cls-2" d="M326.82,338.18l7.1-10.1c4.28,4.46,10.92,8.29,19.3,8.29,7.21,0,10.56-3.2,10.56-6.75,0-10.55-34.96-3.2-34.96-26.03,0-10.1,8.74-18.48,23.03-18.48,9.64,0,17.65,2.91,23.67,8.47l-7.21,9.64c-4.92-4.55-11.47-6.66-17.65-6.66-5.47,0-8.56,2.36-8.56,6,0,9.55,34.85,3.09,34.85,25.76,0,11.12-8.03,19.5-24.31,19.5-11.74,0-20.12-3.92-25.85-9.66"/>
    <polygon class="cls-2" points="398.45 346.76 398.45 297.41 380.71 297.41 380.71 286.03 429.13 286.03 429.13 297.41 411.48 297.41 411.48 346.76 398.45 346.76"/>
    <polygon class="cls-2" points="453.93 346.74 453.93 297.27 436.14 297.27 436.14 285.85 484.7 285.85 484.7 297.27 467 297.27 467 346.74 453.93 346.74"/>
    <path class="cls-2" d="M480.96,324.65c0-12.78,9.5-23.08,22.82-23.08s22.11,9.85,22.11,24.18v2.73h-32.78c.82,5.38,5.22,9.85,12.7,9.85,3.73,0,8.86-1.54,11.68-4.28l5.2,7.67c-4.39,4.03-11.31,6.13-18.16,6.13-13.42,0-23.56-9.06-23.56-23.21M503.77,311.05c-7.19,0-10.32,5.02-10.78,9.39h21.73c-.37-4.19-3.28-9.39-10.96-9.39"/>
    <path class="cls-2" d="M534.28,335.69v-49.84h11.59v46.73c0,2.82,1.46,4.94,4.01,4.94,1.74,0,3.37-.64,4.01-1.37l2.47,8.84c-1.72,1.54-4.92,2.84-9.68,2.84-8.11,0-12.41-4.21-12.41-12.14"/>
    <path class="cls-2" d="M558.66,324.65c0-12.78,9.48-23.08,22.82-23.08s22.09,9.85,22.09,24.18v2.73h-32.76c.82,5.38,5.2,9.85,12.7,9.85,3.73,0,8.84-1.54,11.68-4.28l5.22,7.67c-4.39,4.03-11.33,6.13-18.18,6.13-13.41,0-23.54-9.06-23.54-23.21M581.45,311.05c-7.21,0-10.32,5.02-10.76,9.39h21.72c-.36-4.19-3.27-9.39-10.96-9.39"/>
    <path class="cls-2" d="M666.63,346.74v-27.84c0-4.12-1.83-7.03-6.57-7.03-4.12,0-7.48,2.73-9.13,5.11v29.76h-11.68v-27.84c0-4.12-1.83-7.03-6.57-7.03-4.01,0-7.39,2.73-9.13,5.11v29.76h-11.59v-44.09h11.59v5.66c1.92-2.56,7.67-6.75,14.44-6.75s10.67,3.02,12.22,7.94c2.57-3.91,8.42-7.94,15.16-7.94,8.11,0,12.96,4.3,12.96,13.32v31.85h-11.7,0Z"/>
    <path class="cls-2" d="M686.98,324.65c0-12.78,9.5-23.08,22.83-23.08s22.09,9.85,22.09,24.18v2.73h-32.76c.83,5.38,5.2,9.85,12.68,9.85,3.75,0,8.86-1.54,11.68-4.28l5.2,7.67c-4.37,4.03-11.31,6.13-18.15,6.13-13.42,0-23.56-9.06-23.56-23.21M709.81,311.05c-7.21,0-10.33,5.02-10.78,9.39h21.73c-.36-4.19-3.28-9.39-10.96-9.39"/>
    <path class="cls-2" d="M770.61,346.74v-5.66c-3.46,4.39-8.22,6.78-13.6,6.78-11.04,0-19.53-8.42-19.53-23.21s8.29-23.08,19.53-23.08c5.2,0,10.14,2.18,13.6,6.75v-22.46h11.68v60.88s-11.68,0-11.68,0ZM770.61,332.5v-15.61c-1.9-2.91-6.13-5.02-9.94-5.02-6.68,0-11.24,5.2-11.24,12.78s4.56,12.87,11.24,12.87c3.82,0,8.03-2.1,9.94-5.02"/>
    <path class="cls-2" d="M847.17,346.74v-5.66c-3.46,4.39-8.2,6.78-13.6,6.78-11.04,0-19.53-8.42-19.53-23.21s8.29-23.08,19.53-23.08c5.22,0,10.05,2.18,13.6,6.75v-5.66h11.68v44.09h-11.68ZM847.17,332.5v-15.52c-1.9-2.93-6.09-5.11-9.94-5.11-6.68,0-11.24,5.2-11.24,12.78s4.56,12.87,11.24,12.87c3.84,0,8.03-2.1,9.94-5.02"/>
    <rect class="cls-2" x="793.94" y="303.88" width="11.26" height="42.86"/>
  </g>
</svg>