<?xml version="1.0" encoding="UTF-8"?><svg id="c" xmlns="http://www.w3.org/2000/svg" viewBox="0 0 1250 703"><defs><style>.e{fill:#85bc22;}</style></defs><g id="d"><path class="e" d="M1035.8119,412.1024c0-13.23524,10.75099-23.97796,23.97763-23.97796,13.24292,0,23.9751,10.74272,23.9751,23.97796,0,13.23843-10.73218,23.97477-23.9751,23.97477-13.22664,0-23.97757-10.73634-23.97757-23.97477"/><path d="M316.44182,347.0147c0,27.66676-7.44495,48.99325-22.32076,63.95812-14.87613,14.97734-35.78962,22.46122-62.74237,22.46122h-52.38489v-165.81601h56.04114c25.99103,0,46.05838,6.81072,60.20041,20.41651,14.13405,13.61187,21.2065,33.26489,21.2065,58.98016M271.03173,348.59494c0-15.18926-2.93328-26.45706-8.8056-33.79761-5.87232-7.33131-14.77942-10.99999-26.75038-10.99999h-12.73283v92.88696h9.74529c13.29268,0,23.03798-3.94606,29.23778-11.85382,6.20107-7.89561,9.30577-19.9802,9.30577-36.23553"/><rect x="461.53747" y="266.92283" width="41.68239" height="166.51118"/><path d="M640.00713,371.32427c0,20.2234-5.30196,36.00477-15.93426,47.31629-10.61948,11.3179-25.49408,16.9754-44.60766,16.9754-18.33739,0-32.92174-5.78517-43.75672-17.35875-10.8439-11.57038-16.26298-27.2116-16.26298-46.93294,0-20.16406,5.3099-35.83305,15.93908-47.00443,10.62586-11.16852,25.53458-16.75421,44.72289-16.75421,11.8602,0,22.34888,2.58408,31.44143,7.75518,9.09861,5.1682,16.11487,12.57103,21.05555,22.21831,4.93711,9.63133,7.40279,20.89943,7.40279,33.78518M561.7701,371.32427c0,10.61984,1.38395,18.71783,4.15479,24.28148,2.77436,5.56717,7.4248,8.35044,13.96136,8.35044,6.4708,0,11.03733-2.78327,13.70218-8.35044,2.66517-5.56368,3.99301-13.66165,3.99301-24.28148,0-10.56046-1.34665-18.5244-4.04594-23.90423-2.70248-5.3894-7.31855-8.08872-13.86149-8.08872-6.39606,0-10.97476,2.6837-13.74912,8.02937-2.77084,5.34887-4.15479,13.33449-4.15479,23.9636"/><rect x="656.55841" y="309.75075" width="41.68395" height="123.68326"/><rect x="656.55841" y="266.92283" width="41.68395" height="27.86943"/><path d="M782.70416,401.88665c5.62306,0,12.33098-1.42771,20.15162-4.26394v31.1203c-5.62306,2.4625-10.96552,4.23588-16.04338,5.2863-5.07754,1.06002-11.03733,1.58666-17.86049,1.58666-13.99515,0-24.08805-3.51611-30.27864-10.53878-6.17171-7.01945-9.26365-17.80752-9.26365-32.35777v-50.98497h-14.60038v-31.97732h14.60038v-31.57864l42.00154-7.3093v38.88795h26.59749v31.97732h-26.59749v48.14232c0,8.00447,3.76859,12.00988,11.293,12.00988"/><path d="M879.18542,401.88665c5.62306,0,12.32779-1.42771,20.1513-4.26394v31.1203c-5.61382,2.4625-10.96552,4.23588-16.04306,5.2863-5.08718,1.06002-11.02815,1.58666-17.86055,1.58666-13.99554,0-24.08838-3.51611-30.2694-10.53878-6.18128-7.01945-9.27322-17.80752-9.27322-32.35777v-50.98497h-14.60962v-31.97732h14.60962v-32.0587l42.00186-6.82924v38.88795h26.60674v31.97732h-26.60674v48.14232c0,8.00447,3.7654,12.00988,11.293,12.00988"/><path d="M1010.72024,322.14397c-9.90585-9.71561-23.96357-14.57515-42.15128-14.57515-19.11677,0-33.826,5.5825-44.14007,16.7571-10.29877,11.16819-15.45417,27.19595-15.45417,48.08327,0,20.22917,5.56687,35.82696,16.68207,46.77685,11.12802,10.95022,26.74398,16.42991,46.85824,16.42991,9.66262,0,17.97572-.66069,24.93931-1.97001,6.92277-1.29971,13.63069-3.64378,20.13274-7.03192l-6.40537-27.86943c-4.7287,1.92944-9.2266,3.41334-13.4689,4.39194-6.13727,1.42133-12.87006,2.13534-20.1918,2.13534-8.03575,0-14.37889-1.96392-19.02966-5.89436-4.64732-3.93073-7.12544-9.35747-7.40885-16.27099h74.51227v-18.98561c0-18.26906-4.96237-32.26427-14.8746-41.97699M951.93638,356.25663c.57039-6.77019,2.50306-11.73253,5.80718-14.90553,3.31343-3.16375,7.41204-4.74719,12.31217-4.74719,5.3364,0,9.58475,1.78296,12.736,5.35492,3.17339,3.56272,4.82219,8.32876,4.95306,14.2978h-35.80847.00007Z"/><path d="M430.55123,322.14397c-9.91031-9.71561-23.96679-14.57515-42.16212-14.57515-19.11677,0-33.82603,5.5825-44.12763,16.7571-10.30512,11.16819-15.46055,27.19595-15.46055,48.08327,0,20.22917,5.56082,35.82696,16.68689,46.77685,11.12001,10.95022,26.73793,16.42991,46.85059,16.42991,9.66102,0,17.97732-.66069,24.94224-1.97001,6.92143-1.29971,13.62909-3.64378,20.13274-7.03192l-6.40537-27.86943c-4.72838,1.92944-9.22341,3.41334-13.46408,4.39194-6.14521,1.42133-12.87614,2.13534-20.19661,2.13534-8.02937,0-14.37882-1.96392-19.02933-5.89436-4.6537-3.93073-7.12385-9.35747-7.40921-16.27099h74.50904v-18.98561c0-18.26906-4.95117-32.26427-14.86656-41.97699M371.76127,356.25663c.56883-6.77019,2.50589-11.73253,5.81008-14.90553,3.30705-3.16375,7.40598-4.74719,12.31536-4.74719,5.32559,0,9.57391,1.78296,12.73444,5.35492,3.16405,3.56272,4.81425,8.32876,4.95631,14.2978h-35.81619Z"/></g></svg>