<?xml version="1.0" encoding="UTF-8"?>
<svg id="Layer_2" data-name="Layer 2" xmlns="http://www.w3.org/2000/svg" viewBox="0 0 1173.94957 466.13216">
  <defs>
    <style>
      .cls-1 {
        fill: none;
        stroke: #999;
        stroke-miterlimit: 10;
      }

      .cls-2 {
        fill: #76b900;
      }

      .cls-3 {
        fill: #4b4b4b;
      }

      .cls-4 {
        fill: #898989;
      }

      .cls-5 {
        fill: #ccc;
      }

      .cls-6 {
        fill: #eee;
      }
    </style>
  </defs>
  <g id="WEB_EXPORTS" data-name="WEB EXPORTS">
    <g id="_5060_Ti" data-name="5060 Ti">
      <g id="GAMES">
        <g>
          <path class="cls-6" d="m186.15039,395.16309v-7.7002h3.13477c.84375,0,1.50879.19238,1.99609.57812.48828.38477.73242.90332.73242,1.55566v.1875c0,.29297-.07617.55566-.22656.78613-.15039.23145-.36035.42383-.63184.57812.38184.15332.6748.37012.87988.64844.20508.2793.30859.6123.30859,1.00098v.1875c0,.68164-.24023,1.21484-.7207,1.60059-.48047.38477-1.15039.57715-2.00781.57715h-3.46484Zm1.60547-4.56543h1.48535c.77734,0,1.16602-.26367,1.16602-.79199v-.18652c0-.24902-.10059-.44336-.30176-.58301-.20312-.13965-.49023-.20898-.86426-.20898h-1.48535v1.77051Zm0,3.20117h1.81543c.77734,0,1.16602-.27051,1.16602-.81348v-.20898c0-.26465-.10059-.46973-.30273-.61621s-.48926-.21973-.86328-.21973h-1.81543v1.8584Z"/>
          <path class="cls-6" d="m193.39844,395.16309v-8.03027h1.54102v8.03027h-1.54102Z"/>
          <path class="cls-6" d="m198.00781,395.31738c-.60938,0-1.08008-.15039-1.41406-.45117-.33301-.30078-.5-.72266-.5-1.26465,0-.49902.15234-.89844.45703-1.19922.30371-.30078.74609-.48828,1.3252-.56152l1.78223-.23047v-.04395c0-.66797-.30469-1.00098-.91406-1.00098h-.10938c-.27148,0-.49805.04883-.68164.14844-.18359.09863-.33789.27344-.46289.52246l-1.17578-.61621c.16797-.38867.45215-.7002.85156-.93457.40039-.23535.88574-.35254,1.45801-.35254h.16504c1.60547,0,2.4082.75195,2.4082,2.25488v3.5752h-1.3418v-.71484c-.17578.27148-.41992.4834-.73047.6377-.3125.1543-.66602.23145-1.0625.23145h-.05469Zm1.65039-2.67285l-1.17773.16504c-.33691.05078-.57227.12207-.70312.21387-.13281.0918-.19922.24023-.19922.44531,0,.19824.07617.35449.22656.46777.15039.11426.34961.1709.59961.1709h.08789c.36621,0,.65234-.10645.85742-.31934s.30859-.50195.30859-.86914v-.27441Z"/>
          <path class="cls-6" d="m205.04785,395.31738c-.85059,0-1.52734-.24219-2.03027-.72656-.50195-.4834-.75293-1.18359-.75293-2.10059v-.33008c0-.60156.11621-1.1123.34668-1.53418s.55469-.74316.97266-.96289.90625-.33008,1.46387-.33008h.08789c.5498,0,1.01367.13184,1.3916.39648.37695.26367.64648.6123.80859,1.04492l-1.24316.52734c-.08789-.19043-.21094-.3457-.36816-.4668-.1582-.12109-.35449-.18164-.58887-.18164h-.07715c-.37402,0-.67578.11914-.90723.35742s-.34668.61035-.34668,1.11621v.39648c0,.52051.11133.89648.33594,1.12695.22266.23145.5293.34668.91797.34668h.07715c.25684,0,.46973-.05469.6377-.16504.16895-.11035.30078-.25977.39648-.45117l1.19922.62695c-.16211.37402-.4375.68652-.82617.93555s-.85742.37402-1.40723.37402h-.08789Z"/>
          <path class="cls-6" d="m208.3916,395.16309v-8.03027h1.54004v4.36719l2.0459-2.0127h1.8916l-2.24316,2.14453,2.40918,3.53125h-1.84863l-1.66113-2.55176-.59375.57129v1.98047h-1.54004Z"/>
          <path class="cls-6" d="m217.77539,395.16309v-7.7002h2.00195l2.19922,5.57715,2.2002-5.57715h1.94727v7.7002h-1.5293v-5.19238l-2.06738,5.19238h-1.15625l-2.06738-5.19238v5.19238h-1.52832Z"/>
          <path class="cls-6" d="m227.80664,397.36328v-1.29785h.39648c.32227,0,.5625-.05176.7207-.1543.15625-.10254.2832-.30469.37891-.60547l.04395-.15332-2.18848-5.66504h1.66016l1.32031,4.00391,1.17676-4.00391h1.55176l-2.00195,5.75293c-.1543.44727-.31055.81055-.46875,1.08887-.15723.27832-.33301.49316-.52734.64355s-.42188.25293-.68164.30762c-.26074.05566-.57422.08301-.94141.08301h-.43945Z"/>
          <path class="cls-6" d="m236.65039,395.22949c-.78516,0-1.34082-.16895-1.66699-.50684-.32617-.33691-.48926-.83887-.48926-1.50684v-2.44141h-1.1875v-1.28711h1.1875v-1.61719h1.54004v1.61719h1.74902l-.1875,1.28711h-1.56152v2.38672c0,.27148.06738.46777.20312.58887.13574.12012.32129.18066.55566.18066h.99023v1.29883h-1.13281Z"/>
          <path class="cls-6" d="m239.28906,395.16309v-8.03027h1.54102v2.87109c.38867-.44727.89844-.6709,1.5293-.6709h.10938c.64453,0,1.15625.2002,1.53516.59961.37695.39941.56641.96973.56641,1.71094v3.51953h-1.54102v-3.31055c0-.38184-.07812-.67676-.23633-.88574s-.40527-.31348-.74219-.31348h-.08789c-.18359,0-.36133.04785-.5332.14258-.17285.0957-.31641.24219-.42969.44043s-.16992.45801-.16992.78027v3.14648h-1.54102Z"/>
          <path class="cls-6" d="m245.8125,391.08203v-1.67188h1.61719v1.67188h-1.61719Zm0,4.08105v-1.67188h1.61719v1.67188h-1.61719Z"/>
          <path class="cls-6" d="m250.99414,387.46289h1.7373l1.41895,5.37891,1.39648-5.37891h1.47461l1.39648,5.37891,1.41992-5.37891h1.64941l-2.36426,7.7002h-1.50781l-1.375-5.16992-1.375,5.16992h-1.50684l-2.36426-7.7002Z"/>
          <path class="cls-6" d="m263.95117,395.31738c-.62305,0-1.11816-.2002-1.48438-.59961-.36719-.39941-.55078-.96973-.55078-1.71094v-3.51953h1.54102v3.31055c0,.38184.07227.67676.21973.88574.14648.20898.37793.31348.69238.31348h.08789c.17676,0,.3457-.04785.50586-.14258.16211-.0957.2959-.24414.40234-.44629.10547-.20117.15918-.45996.15918-.77539v-3.14551h1.54004v5.67578h-1.3418v-.7041c-.18359.2793-.41797.49121-.7041.6377-.28613.14746-.60449.2207-.95703.2207h-.11035Z"/>
          <path class="cls-6" d="m268.49414,395.16309v-8.03027h1.54004v4.36719l2.0459-2.0127h1.89258l-2.24414,2.14453,2.4082,3.53125h-1.84766l-1.66016-2.55176-.59473.57129v1.98047h-1.54004Z"/>
          <path class="cls-6" d="m277.18457,395.31738c-.52832,0-1.00098-.11035-1.41895-.33008-.41797-.2207-.74805-.54102-.99023-.96289s-.36328-.93262-.36328-1.53418v-.33008c0-.6084.12109-1.12207.36328-1.54004s.57227-.7373.99023-.95703.89062-.33008,1.41895-.33008h.07715c.52734,0,1.00098.11035,1.41895.33008s.74805.53906.98926.95703c.24219.41797.36328.93164.36328,1.54004v.33008c0,.60156-.12109,1.1123-.36328,1.53418-.24121.42188-.57129.74219-.98926.96289-.41797.21973-.8916.33008-1.41895.33008h-.07715Zm0-1.32031h.07715c.35938,0,.6543-.11719.88477-.35156.23145-.23535.34766-.60938.34766-1.12207v-.39648c0-.5127-.11621-.88672-.34766-1.12207-.23047-.23438-.52539-.35156-.88477-.35156h-.07715c-.35938,0-.6543.11719-.88574.35156-.23047.23535-.3457.60938-.3457,1.12207v.39648c0,.5127.11523.88672.3457,1.12207.23145.23438.52637.35156.88574.35156Z"/>
          <path class="cls-6" d="m281.16602,395.16309v-5.67578h1.34277v.7041c.19043-.27148.43457-.48242.73145-.63281s.62891-.22559.99609-.22559h.10938c.64453,0,1.15625.2002,1.53516.59961.37695.39941.56641.96973.56641,1.71094v3.51953h-1.54102v-3.31055c0-.38184-.07812-.67676-.23633-.88574s-.40527-.31348-.74219-.31348h-.08789c-.18359,0-.36133.04785-.5332.14258-.17285.0957-.31641.24219-.42969.44043s-.16992.45801-.16992.78027v3.14648h-1.54102Z"/>
          <path class="cls-6" d="m290.12109,397.5166c-.55762,0-1.02148-.08789-1.39258-.26367-.36914-.17578-.66113-.43945-.87402-.79199l1.07812-.8252c.14648.2207.31348.37598.50098.46777.18652.0918.4375.1377.75293.1377h.13184c.82227,0,1.23242-.48438,1.23242-1.45215v-.35156c-.38086.4541-.91016.68164-1.58398.68164h-.08789c-.46973,0-.88281-.11523-1.23828-.34668-.35547-.23047-.63184-.55371-.83008-.96777-.19727-.41406-.29688-.89648-.29688-1.44629v-.26465c0-.5498.09961-1.03223.29688-1.44629.19824-.41406.47461-.7373.83008-.96777.35547-.23145.76855-.34668,1.23828-.34668h.08789c.80664,0,1.40039.28613,1.78125.8584v-.69336h1.34277v5.23633c0,.89453-.23535,1.58203-.7041,2.0625-.46875.47949-1.14062.71973-2.01367.71973h-.25195Zm.1543-3.71777h.09766c.35254,0,.64062-.13184.86426-.39551.22363-.26465.33496-.6084.33496-1.03418v-.28613c0-.4248-.11133-.76953-.33496-1.03418-.22363-.26367-.51172-.39551-.86426-.39551h-.09766c-.38184,0-.68164.12598-.89648.37891-.2168.25293-.3252.60352-.3252,1.05078v.27539c0,.44727.1084.79883.3252,1.05566.21484.25684.51465.38477.89648.38477Z"/>
          <path class="cls-2" d="m198.11816,434.7627v-7.7002h3.06934c.77734,0,1.43164.15039,1.96289.45117s.93555.72266,1.20996,1.26465c.27539.54297.41309,1.18164.41309,1.91406v.42969c0,1.12891-.30859,2.01855-.92383,2.66699-.61719.64941-1.50391.97363-2.66211.97363h-3.06934Zm1.60645-1.38574h1.41797c.65332,0,1.1543-.18164,1.50195-.54492s.52246-.92188.52246-1.67773v-.49414c0-.72656-.1748-1.27637-.52246-1.65039s-.84863-.56152-1.50195-.56152h-1.41797v4.92871Z"/>
          <path class="cls-2" d="m206.25781,434.7627v-7.7002h1.60547v6.31445h3.35547v1.38574h-4.96094Z"/>
          <path class="cls-2" d="m215.10156,434.91699c-1.60547,0-2.62891-.56836-3.06836-1.70508l1.35254-.69336c.25684.68262.8291,1.02344,1.71582,1.02344h.14258c.93164,0,1.39746-.30078,1.39746-.90234v-.11035c0-.23438-.08105-.43555-.24219-.60449s-.3916-.27148-.69238-.30859l-1.19922-.14258c-.7334-.08789-1.29102-.31738-1.67188-.6875-.38184-.37012-.57227-.87402-.57227-1.5127v-.13184c0-.4541.11719-.84863.35156-1.18262.23438-.33301.56641-.5918.99609-.77539.42871-.18359.93359-.27441,1.51172-.27441h.16602c.70312,0,1.29688.14062,1.78125.42285s.83203.69141,1.04492,1.22656l-1.4082.59375c-.19727-.5791-.67383-.86816-1.42969-.86816h-.14258c-.39648,0-.70605.07617-.92969.23047s-.33594.35938-.33594.61621v.10938c0,.44824.30859.71191.92383.79199l1.19922.14355c.74805.08789,1.31055.33398,1.68945.7373.37695.40332.56641.92773.56641,1.57227v.13281c0,.7334-.25781,1.2998-.77051,1.69922s-1.25098.59961-2.21094.59961h-.16504Z"/>
          <path class="cls-2" d="m222.05273,434.91699c-1.60547,0-2.62891-.56836-3.06836-1.70508l1.35352-.69336c.25586.68262.82812,1.02344,1.71484,1.02344h.14355c.93066,0,1.39746-.30078,1.39746-.90234v-.11035c0-.23438-.08105-.43555-.24219-.60449-.16211-.16895-.39258-.27148-.69336-.30859l-1.19922-.14258c-.73242-.08789-1.29102-.31738-1.67188-.6875s-.57227-.87402-.57227-1.5127v-.13184c0-.4541.11719-.84863.35254-1.18262.23438-.33301.56641-.5918.99512-.77539.42969-.18359.93359-.27441,1.5127-.27441h.16504c.7041,0,1.29785.14062,1.78223.42285.4834.28223.83203.69141,1.04492,1.22656l-1.4082.59375c-.19824-.5791-.6748-.86816-1.42969-.86816h-.14355c-.39551,0-.70508.07617-.92969.23047-.22266.1543-.33496.35938-.33496.61621v.10938c0,.44824.30762.71191.92383.79199l1.19922.14355c.74805.08789,1.31055.33398,1.68848.7373.37695.40332.56641.92773.56641,1.57227v.13281c0,.7334-.25684,1.2998-.76953,1.69922-.51367.39941-1.25098.59961-2.21094.59961h-.16602Z"/>
          <path class="cls-2" d="m232.22852,434.7627v-1.39746h-3.65234v-1.1875l3.64062-4.9834h1.45215v4.88477h.99023l-.18652,1.28613h-.80371v1.39746h-1.44043Zm0-2.68359v-2.9043l-2.12305,2.9043h2.12305Z"/>
          <path class="cls-2" d="m238.38867,431.69336v-1.31934h1.81445v-1.82617h1.42969v1.82617h1.81543v1.31934h-1.81543v1.82617h-1.42969v-1.82617h-1.81445Z"/>
          <path class="cls-2" d="m247.88086,434.7627v-7.7002h5.11523v1.36426h-3.50879v1.96875h2.82715l-.1875,1.36426h-2.63965v3.00293h-1.60645Z"/>
          <path class="cls-2" d="m255.58203,434.91699c-.62402,0-1.11914-.2002-1.48535-.59961-.36719-.39941-.5498-.96973-.5498-1.71094v-3.51953h1.53906v3.31055c0,.38184.07422.67676.2207.88574s.37695.31348.69336.31348h.08789c.17578,0,.34375-.04785.50586-.14258.16113-.0957.29492-.24414.40137-.44629.10645-.20117.15918-.45996.15918-.77539v-3.14551h1.54004v5.67578h-1.3418v-.7041c-.18359.2793-.41797.49121-.7041.6377-.28613.14746-.60547.2207-.95703.2207h-.10938Z"/>
          <path class="cls-2" d="m260.12402,434.7627v-8.03027h1.54004v8.03027h-1.54004Z"/>
          <path class="cls-2" d="m263.09375,434.7627v-8.03027h1.54004v8.03027h-1.54004Z"/>
          <path class="cls-2" d="m269.01172,434.7627v-7.7002h2.91504c.89453,0,1.60449.20898,2.12793.62695.52539.41797.78711.99805.78711,1.73828v.20898c0,.52051-.12695.96094-.37988,1.32031s-.60645.63086-1.06152.81348l1.68359,2.99219h-1.75l-1.51758-2.75h-1.19922v2.75h-1.60547Zm1.60547-4.13574h1.26562c.38867,0,.71094-.07324.96777-.2207.25684-.14648.38574-.3916.38574-.73633v-.27539c0-.33008-.12891-.57031-.38574-.7207-.25684-.14941-.5791-.22559-.96777-.22559h-1.26562v2.17871Z"/>
          <path class="cls-2" d="m277.75684,434.7627v-6.31445h-2.30957v-1.38574h6.22559v1.38574h-2.30957v6.31445h-1.60645Z"/>
        </g>
        <g>
          <path class="cls-6" d="m64.75,395.16309l2.96973-7.7002h1.44043l2.98145,7.7002h-1.7373l-.55078-1.55078h-2.91504l-.5498,1.55078h-1.63867Zm2.66211-2.87109h1.96875l-.97852-2.76074-.99023,2.76074Z"/>
          <path class="cls-6" d="m72.98828,395.16309v-8.03027h1.54004v8.03027h-1.54004Z"/>
          <path class="cls-6" d="m77.59766,395.31738c-.60938,0-1.08008-.15039-1.41406-.45117s-.5-.72266-.5-1.26465c0-.49902.15234-.89844.45605-1.19922s.74609-.48828,1.3252-.56152l1.78223-.23047v-.04395c0-.66797-.30371-1.00098-.91309-1.00098h-.10938c-.27148,0-.49902.04883-.68262.14844-.18262.09863-.33691.27344-.46191.52246l-1.17676-.61621c.16895-.38867.45215-.7002.85254-.93457.39941-.23535.88477-.35254,1.45703-.35254h.16504c1.60645,0,2.40918.75195,2.40918,2.25488v3.5752h-1.3418v-.71484c-.17578.27148-.41992.4834-.73145.6377s-.66504.23145-1.06152.23145h-.05469Zm1.64941-2.67285l-1.17676.16504c-.33789.05078-.57227.12207-.7041.21387s-.19824.24023-.19824.44531c0,.19824.0752.35449.22559.46777.15039.11426.35059.1709.59961.1709h.08789c.36621,0,.65332-.10645.8584-.31934s.30762-.50195.30762-.86914v-.27441Z"/>
          <path class="cls-6" d="m82.15039,395.16309v-5.67578h1.34277v.7041c.19043-.27148.43457-.48242.73145-.63281s.62891-.22559.99609-.22559h.10938c.64453,0,1.15625.2002,1.53516.59961.37695.39941.56641.96973.56641,1.71094v3.51953h-1.54102v-3.31055c0-.38184-.07812-.67676-.23633-.88574s-.40527-.31348-.74219-.31348h-.08789c-.18359,0-.36133.04785-.5332.14258-.17285.0957-.31641.24219-.42969.44043s-.16992.45801-.16992.78027v3.14648h-1.54102Z"/>
          <path class="cls-6" d="m91.05078,387.46289h1.7373l1.41895,5.37891,1.39648-5.37891h1.47461l1.39648,5.37891,1.41992-5.37891h1.64941l-2.36426,7.7002h-1.50781l-1.375-5.16992-1.375,5.16992h-1.50684l-2.36426-7.7002Z"/>
          <path class="cls-6" d="m103.45801,395.31738c-.6084,0-1.08008-.15039-1.41309-.45117-.33398-.30078-.50098-.72266-.50098-1.26465,0-.49902.15234-.89844.45605-1.19922.30469-.30078.74609-.48828,1.32617-.56152l1.78125-.23047v-.04395c0-.66797-.30371-1.00098-.91211-1.00098h-.11035c-.27148,0-.49902.04883-.68262.14844-.18262.09863-.33691.27344-.46094.52246l-1.17773-.61621c.16895-.38867.45312-.7002.85352-.93457.39844-.23535.88477-.35254,1.45703-.35254h.16406c1.60742,0,2.41016.75195,2.41016,2.25488v3.5752h-1.3418v-.71484c-.17676.27148-.41992.4834-.73242.6377-.31152.1543-.66504.23145-1.06055.23145h-.05566Zm1.64941-2.67285l-1.17578.16504c-.33789.05078-.57227.12207-.70508.21387-.13086.0918-.19727.24023-.19727.44531,0,.19824.07422.35449.22461.46777.15039.11426.35059.1709.59961.1709h.08789c.36719,0,.65332-.10645.8584-.31934.20605-.21289.30762-.50195.30762-.86914v-.27441Z"/>
          <path class="cls-6" d="m108.01172,395.16309v-8.03027h1.54004v4.36719l2.0459-2.0127h1.89258l-2.24414,2.14453,2.4082,3.53125h-1.84766l-1.66016-2.55176-.59473.57129v1.98047h-1.54004Z"/>
          <path class="cls-6" d="m116.6582,395.31738c-.86523,0-1.53711-.24609-2.01367-.7373s-.71484-1.18457-.71484-2.0791v-.33008c0-.89453.24219-1.59082.72656-2.08984s1.15137-.74805,2.00195-.74805h.08789c.80664,0,1.43555.24414,1.88672.73145.45117.48828.67578,1.16016.67578,2.01855v.69336h-3.86035c.05176.87207.4541,1.30859,1.20996,1.30859h.1543c.5791,0,.98633-.19434,1.2207-.58301l1.11133.7373c-.20508.33691-.51172.60156-.91895.79199s-.87402.28613-1.40234.28613h-.16504Zm-1.19922-3.5752h2.35352v-.0332c0-.7627-.35547-1.14355-1.06641-1.14355h-.08789c-.7041,0-1.10352.3916-1.19922,1.17676Z"/>
          <path class="cls-6" d="m123.09375,395.16309v-1.16602c0-.52832.12695-1.00488.38477-1.42969.25586-.42578.61914-.7627,1.08789-1.0127l1.28711-.69238c.58789-.30859.88086-.68555.88086-1.13281v-.11035c0-.23438-.0957-.42871-.28613-.58301s-.43262-.23145-.72559-.23145h-.05566c-.34473,0-.61816.06641-.81934.19824s-.34961.34082-.44531.62695l-1.32031-.58301c.35938-1.05566,1.22461-1.58398,2.5957-1.58398h.12109c.7627,0,1.36719.19141,1.81543.57227.44727.38086.6709.89453.6709,1.54004v.17578c0,.49902-.12695.92285-.37891,1.27051-.25391.34863-.68457.6875-1.29297,1.01758l-1.13281.61621c-.44043.24219-.67578.61621-.70508,1.12207h3.53125v1.38574h-5.21289Z"/>
          <path class="cls-2" d="m55.42188,434.7627v-7.7002h3.06836c.77734,0,1.43164.15039,1.96387.45117s.93457.72266,1.20996,1.26465c.27539.54297.41211,1.18164.41211,1.91406v.42969c0,1.12891-.30762,2.01855-.92383,2.66699-.61523.64941-1.50293.97363-2.66211.97363h-3.06836Zm1.60547-1.38574h1.41992c.65234,0,1.15234-.18164,1.50098-.54492s.52246-.92188.52246-1.67773v-.49414c0-.72656-.17383-1.27637-.52246-1.65039s-.84863-.56152-1.50098-.56152h-1.41992v4.92871Z"/>
          <path class="cls-2" d="m63.56152,434.7627v-7.7002h1.60645v6.31445h3.35449v1.38574h-4.96094Z"/>
          <path class="cls-2" d="m72.40527,434.91699c-1.60645,0-2.62891-.56836-3.06934-1.70508l1.35352-.69336c.25586.68262.82812,1.02344,1.71582,1.02344h.14355c.93066,0,1.39648-.30078,1.39648-.90234v-.11035c0-.23438-.08008-.43555-.24219-.60449-.16113-.16895-.39258-.27148-.69336-.30859l-1.19824-.14258c-.7334-.08789-1.29102-.31738-1.67285-.6875-.38086-.37012-.57129-.87402-.57129-1.5127v-.13184c0-.4541.11719-.84863.35254-1.18262.23438-.33301.56641-.5918.99512-.77539s.93262-.27441,1.5127-.27441h.16406c.70508,0,1.29883.14062,1.7832.42285.4834.28223.83203.69141,1.04492,1.22656l-1.4082.59375c-.19824-.5791-.67578-.86816-1.42969-.86816h-.14355c-.39551,0-.70605.07617-.92969.23047s-.33496.35938-.33496.61621v.10938c0,.44824.30762.71191.92383.79199l1.19922.14355c.74805.08789,1.31055.33398,1.6875.7373.37793.40332.56641.92773.56641,1.57227v.13281c0,.7334-.25586,1.2998-.76953,1.69922s-1.25.59961-2.21094.59961h-.16504Z"/>
          <path class="cls-2" d="m79.35742,434.91699c-1.60645,0-2.62891-.56836-3.06934-1.70508l1.35254-.69336c.25684.68262.8291,1.02344,1.7168,1.02344h.14258c.93164,0,1.39648-.30078,1.39648-.90234v-.11035c0-.23438-.08008-.43555-.24219-.60449-.16016-.16895-.3916-.27148-.69238-.30859l-1.19824-.14258c-.73438-.08789-1.29102-.31738-1.67285-.6875s-.57129-.87402-.57129-1.5127v-.13184c0-.4541.11719-.84863.35156-1.18262.23438-.33301.56641-.5918.99609-.77539.42773-.18359.93262-.27441,1.51172-.27441h.16504c.7041,0,1.29785.14062,1.78223.42285s.83203.69141,1.04492,1.22656l-1.4082.59375c-.19727-.5791-.6748-.86816-1.42969-.86816h-.14258c-.39648,0-.70703.07617-.92969.23047-.22461.1543-.33594.35938-.33594.61621v.10938c0,.44824.30859.71191.92383.79199l1.19922.14355c.74805.08789,1.31055.33398,1.68848.7373s.56641.92773.56641,1.57227v.13281c0,.7334-.25684,1.2998-.77051,1.69922-.5127.39941-1.25.59961-2.21094.59961h-.16406Z"/>
          <path class="cls-2" d="m89.53125,434.7627v-1.39746h-3.65137v-1.1875l3.6416-4.9834h1.45117v4.88477h.99023l-.1875,1.28613h-.80273v1.39746h-1.44141Zm0-2.68359v-2.9043l-2.12305,2.9043h2.12305Z"/>
          <path class="cls-2" d="m95.69141,431.69336v-1.31934h1.81543v-1.82617h1.43066v1.82617h1.81445v1.31934h-1.81445v1.82617h-1.43066v-1.82617h-1.81543Z"/>
          <path class="cls-2" d="m105.18555,434.7627v-7.7002h5.11426v1.36426h-3.50879v1.96875h2.82715l-.18652,1.36426h-2.64062v3.00293h-1.60547Z"/>
          <path class="cls-2" d="m112.88477,434.91699c-.62305,0-1.11816-.2002-1.48438-.59961-.36719-.39941-.55078-.96973-.55078-1.71094v-3.51953h1.54102v3.31055c0,.38184.07227.67676.21973.88574.14648.20898.37793.31348.69238.31348h.08789c.17676,0,.3457-.04785.50586-.14258.16211-.0957.2959-.24414.40234-.44629.10547-.20117.15918-.45996.15918-.77539v-3.14551h1.54004v5.67578h-1.3418v-.7041c-.18359.2793-.41797.49121-.7041.6377-.28613.14746-.60449.2207-.95703.2207h-.11035Z"/>
          <path class="cls-2" d="m117.42773,434.7627v-8.03027h1.54004v8.03027h-1.54004Z"/>
          <path class="cls-2" d="m120.39746,434.7627v-8.03027h1.54004v8.03027h-1.54004Z"/>
          <path class="cls-2" d="m126.31543,434.7627v-7.7002h2.91504c.89453,0,1.60352.20898,2.12891.62695.52344.41797.78613.99805.78613,1.73828v.20898c0,.52051-.12598.96094-.37988,1.32031-.25293.35938-.60645.63086-1.06152.81348l1.68262,2.99219h-1.74805l-1.51855-2.75h-1.19824v2.75h-1.60645Zm1.60645-4.13574h1.26465c.38867,0,.71094-.07324.96777-.2207.25684-.14648.38477-.3916.38477-.73633v-.27539c0-.33008-.12793-.57031-.38477-.7207-.25684-.14941-.5791-.22559-.96777-.22559h-1.26465v2.17871Z"/>
          <path class="cls-2" d="m135.06055,434.7627v-6.31445h-2.31055v-1.38574h6.22656v1.38574h-2.31055v6.31445h-1.60547Z"/>
        </g>
        <g>
          <path class="cls-6" d="m346.17773,395.31738c-1.14453,0-2.01367-.33398-2.60742-1.00098-.59375-.66797-.89062-1.59863-.89062-2.79395v-.42969c0-.77734.13477-1.44824.40625-2.0127s.66797-1.00098,1.18848-1.30859c.52051-.30859,1.15527-.46191,1.90332-.46191h.08789c.78418,0,1.4375.17188,1.95801.5166s.8877.83203,1.09961,1.46289l-1.49512.52832c-.10352-.38184-.29199-.66016-.56738-.83594-.27441-.17676-.60645-.26465-.99512-.26465h-.06641c-.60156,0-1.07031.19434-1.4082.58301-.33691.38867-.50586.97559-.50586,1.76074v.49414c0,.81445.16406,1.41016.49023,1.78809s.80078.56641,1.42383.56641h.06641c.39648,0,.73633-.08594,1.02344-.25879.28516-.17188.48633-.44922.60449-.83008l1.46289.57129c-.21973.60938-.59473,1.08203-1.12207,1.41992-.52734.33691-1.18457.50586-1.96875.50586h-.08789Z"/>
          <path class="cls-6" d="m350.23633,397.36328v-1.29785h.39648c.32227,0,.5625-.05176.7207-.1543.15723-.10254.2832-.30469.37891-.60547l.04492-.15332-2.18945-5.66504h1.66113l1.31934,4.00391,1.17773-4.00391h1.55078l-2.00195,5.75293c-.1543.44727-.31055.81055-.46777,1.08887s-.33301.49316-.52832.64355c-.19336.15039-.42188.25293-.68164.30762-.25977.05566-.57422.08301-.94043.08301h-.44043Z"/>
          <path class="cls-6" d="m359.26758,395.31738c-.80664,0-1.4043-.28613-1.79297-.8584v.7041h-1.3418v-8.03027h1.53906v2.88184c.38184-.4541.91406-.68164,1.5957-.68164h.07617c.46289,0,.87109.1084,1.22656.32422.35645.2168.63477.53613.83594.95703.20215.42188.30273.9375.30273,1.5459v.33008c0,.6084-.10059,1.12402-.30273,1.54492-.20117.42188-.47949.74121-.83594.95703-.35547.2168-.76367.3252-1.22656.3252h-.07617Zm-.41797-1.32031h.08789c.35156,0,.64453-.11914.87988-.35742s.35254-.61426.35254-1.12793v-.3623c0-.52832-.11719-.90918-.35254-1.14453-.23535-.23438-.52832-.35156-.87988-.35156h-.08789c-.18359,0-.36914.04883-.55566.14844-.18652.09863-.34082.25684-.46191.47266-.12109.2168-.18164.50781-.18164.875v.35156c0,.35938.06055.64941.18164.86914s.27539.37988.46191.47852.37207.14844.55566.14844Z"/>
          <path class="cls-6" d="m365.27344,395.31738c-.86523,0-1.53711-.24609-2.01367-.7373s-.71484-1.18457-.71484-2.0791v-.33008c0-.89453.24219-1.59082.72656-2.08984s1.15137-.74805,2.00195-.74805h.08789c.80664,0,1.43555.24414,1.88672.73145.45117.48828.67578,1.16016.67578,2.01855v.69336h-3.86035c.05176.87207.4541,1.30859,1.20996,1.30859h.1543c.5791,0,.98633-.19434,1.2207-.58301l1.11133.7373c-.20508.33691-.51172.60156-.91895.79199s-.87402.28613-1.40234.28613h-.16504Zm-1.19922-3.5752h2.35352v-.0332c0-.7627-.35547-1.14355-1.06641-1.14355h-.08789c-.7041,0-1.10352.3916-1.19922,1.17676Z"/>
          <path class="cls-6" d="m369.01367,395.16309v-5.67578h1.3418v.96777c.1543-.33008.34766-.58496.58301-.76465.23438-.17969.55371-.26953.95703-.26953h.60449v1.41895h-.5498c-.21973,0-.43652.04395-.64941.13184-.21289.08887-.39062.24023-.5332.45703-.14258.21582-.21484.51562-.21484.89648v2.83789h-1.53906Z"/>
          <path class="cls-6" d="m373.30273,397.36328v-7.87598h1.3418v.7041c.38867-.57227.98633-.8584,1.79297-.8584h.07715c.46191,0,.87109.1084,1.22656.32422.35645.2168.63379.53613.83594.95703.20215.42188.30273.94043.30273,1.55664v.33008c0,.60156-.10059,1.11328-.30273,1.53418-.20215.42188-.47949.74121-.83594.95703-.35547.2168-.76465.3252-1.22656.3252h-.07715c-.68164,0-1.21289-.22754-1.59473-.68262v2.72852h-1.54004Zm2.7168-3.36621h.08789c.35254,0,.64551-.11719.88086-.35156.23438-.23535.35156-.6123.35156-1.13379v-.3623c0-.52051-.11719-.90039-.35156-1.13867-.23535-.23828-.52832-.35742-.88086-.35742h-.08789c-.19043,0-.37891.04883-.56641.14844-.18652.09863-.33887.25684-.45605.47266-.11816.2168-.17676.50781-.17676.875v.35156c0,.35938.06055.64941.18164.86914s.27539.37988.46289.47852c.18652.09863.37109.14844.55469.14844Z"/>
          <path class="cls-6" d="m381.98242,395.31738c-.62402,0-1.11914-.2002-1.48535-.59961-.36719-.39941-.5498-.96973-.5498-1.71094v-3.51953h1.53906v3.31055c0,.38184.07422.67676.2207.88574s.37695.31348.69336.31348h.08789c.17578,0,.34375-.04785.50586-.14258.16113-.0957.29492-.24414.40137-.44629.10645-.20117.15918-.45996.15918-.77539v-3.14551h1.54004v5.67578h-1.3418v-.7041c-.18359.2793-.41797.49121-.7041.6377-.28613.14746-.60547.2207-.95703.2207h-.10938Z"/>
          <path class="cls-6" d="m386.52441,395.16309v-5.67578h1.34277v.7041c.18945-.27148.43359-.48242.73047-.63281s.62891-.22559.99609-.22559h.10938c.64551,0,1.15723.2002,1.53516.59961.37695.39941.56641.96973.56641,1.71094v3.51953h-1.54004v-3.31055c0-.38184-.0791-.67676-.2373-.88574-.15723-.20898-.4043-.31348-.74219-.31348h-.08789c-.18359,0-.36133.04785-.5332.14258-.17188.0957-.31543.24219-.42969.44043-.11328.19824-.16992.45801-.16992.78027v3.14648h-1.54004Z"/>
          <path class="cls-6" d="m393.16797,395.16309v-8.03027h1.54102v4.36719l2.04492-2.0127h1.89258l-2.24414,2.14453,2.40918,3.53125h-1.84863l-1.66016-2.55176-.59375.57129v1.98047h-1.54102Z"/>
          <path class="cls-6" d="m402.29883,395.16309v-1.16602c0-.52832.12793-1.00488.38477-1.42969.25684-.42578.61914-.7627,1.08887-1.0127l1.28711-.69238c.58691-.30859.87988-.68555.87988-1.13281v-.11035c0-.23438-.0957-.42871-.28516-.58301-.19141-.1543-.43359-.23145-.72656-.23145h-.05469c-.3457,0-.61816.06641-.82031.19824-.20117.13184-.34961.34082-.44531.62695l-1.32031-.58301c.35938-1.05566,1.22461-1.58398,2.59668-1.58398h.12109c.7627,0,1.36719.19141,1.81543.57227.44727.38086.66992.89453.66992,1.54004v.17578c0,.49902-.12598.92285-.37891,1.27051-.25293.34863-.68359.6875-1.29297,1.01758l-1.13281.61621c-.43945.24219-.6748.61621-.7041,1.12207h3.53125v1.38574h-5.21387Z"/>
          <path class="cls-6" d="m411.49414,395.29492c-.98926,0-1.74121-.30273-2.25391-.90723-.51367-.60547-.77051-1.47266-.77051-2.60156v-.81445c0-1.13574.25684-2.00488.77051-2.60645.5127-.60156,1.26465-.90234,2.25391-.90234h.09961c.99023,0,1.74219.30078,2.25488.90234s.77051,1.4707.77051,2.60645v.81445c0,1.12891-.25781,1.99609-.77051,2.60156-.5127.60449-1.26465.90723-2.25488.90723h-.09961Zm0-1.375h.09961c.96875,0,1.45215-.71875,1.45215-2.15625v-.76953c0-1.4375-.4834-2.15625-1.45215-2.15625h-.09961c-.9668,0-1.45117.71875-1.45117,2.15625v.76953c0,1.4375.48438,2.15625,1.45117,2.15625Z"/>
          <path class="cls-6" d="m416.75293,395.16309v-.84668c0-.38184.02734-.73145.08301-1.05078.05469-.31934.14648-.6377.27441-.95703s.29883-.66504.51172-1.03906l1.30859-2.28809h-3.44238v-1.38672h5.35645v1.19922l-1.77051,2.98145c-.26367.43945-.45508.86328-.57227,1.27051-.11719.40625-.17578.84473-.17578,1.31445v.80273h-1.57324Z"/>
          <path class="cls-6" d="m423.35352,395.16309v-.84668c0-.38184.02734-.73145.08203-1.05078s.14648-.6377.27539-.95703c.12793-.31934.29883-.66504.51172-1.03906l1.30859-2.28809h-3.44336v-1.38672h5.35742v1.19922l-1.77148,2.98145c-.26367.43945-.45508.86328-.57227,1.27051-.11719.40625-.17578.84473-.17578,1.31445v.80273h-1.57227Z"/>
          <path class="cls-2" d="m343.66992,434.7627v-7.7002h3.06836c.77734,0,1.43164.15039,1.96289.45117.53223.30078.93555.72266,1.21094,1.26465.27539.54297.41211,1.18164.41211,1.91406v.42969c0,1.12891-.30859,2.01855-.92383,2.66699-.61621.64941-1.50391.97363-2.66211.97363h-3.06836Zm1.60547-1.38574h1.41895c.65332,0,1.15332-.18164,1.50098-.54492.34863-.36328.52344-.92188.52344-1.67773v-.49414c0-.72656-.1748-1.27637-.52344-1.65039-.34766-.37402-.84766-.56152-1.50098-.56152h-1.41895v4.92871Z"/>
          <path class="cls-2" d="m351.80957,434.7627v-7.7002h1.60645v6.31445h3.35449v1.38574h-4.96094Z"/>
          <path class="cls-2" d="m360.65332,434.91699c-1.60645,0-2.62891-.56836-3.06934-1.70508l1.35352-.69336c.25586.68262.82812,1.02344,1.71582,1.02344h.14355c.93066,0,1.39648-.30078,1.39648-.90234v-.11035c0-.23438-.08008-.43555-.24219-.60449-.16113-.16895-.39258-.27148-.69336-.30859l-1.19824-.14258c-.7334-.08789-1.29102-.31738-1.67285-.6875-.38086-.37012-.57129-.87402-.57129-1.5127v-.13184c0-.4541.11719-.84863.35254-1.18262.23438-.33301.56641-.5918.99512-.77539s.93262-.27441,1.5127-.27441h.16406c.70508,0,1.29883.14062,1.7832.42285.4834.28223.83203.69141,1.04492,1.22656l-1.4082.59375c-.19824-.5791-.67578-.86816-1.42969-.86816h-.14355c-.39551,0-.70605.07617-.92969.23047s-.33496.35938-.33496.61621v.10938c0,.44824.30762.71191.92383.79199l1.19922.14355c.74805.08789,1.31055.33398,1.6875.7373.37793.40332.56641.92773.56641,1.57227v.13281c0,.7334-.25586,1.2998-.76953,1.69922s-1.25.59961-2.21094.59961h-.16504Z"/>
          <path class="cls-2" d="m367.60547,434.91699c-1.60645,0-2.62891-.56836-3.06934-1.70508l1.35254-.69336c.25684.68262.8291,1.02344,1.7168,1.02344h.14258c.93164,0,1.39648-.30078,1.39648-.90234v-.11035c0-.23438-.08008-.43555-.24219-.60449-.16016-.16895-.3916-.27148-.69238-.30859l-1.19824-.14258c-.73438-.08789-1.29102-.31738-1.67285-.6875s-.57129-.87402-.57129-1.5127v-.13184c0-.4541.11719-.84863.35156-1.18262.23438-.33301.56641-.5918.99609-.77539.42773-.18359.93262-.27441,1.51172-.27441h.16504c.7041,0,1.29785.14062,1.78223.42285s.83203.69141,1.04492,1.22656l-1.4082.59375c-.19727-.5791-.6748-.86816-1.42969-.86816h-.14258c-.39648,0-.70703.07617-.92969.23047-.22461.1543-.33594.35938-.33594.61621v.10938c0,.44824.30859.71191.92383.79199l1.19922.14355c.74805.08789,1.31055.33398,1.68848.7373s.56641.92773.56641,1.57227v.13281c0,.7334-.25684,1.2998-.77051,1.69922-.5127.39941-1.25.59961-2.21094.59961h-.16406Z"/>
          <path class="cls-2" d="m377.7793,434.7627v-1.39746h-3.65137v-1.1875l3.6416-4.9834h1.45117v4.88477h.99023l-.1875,1.28613h-.80273v1.39746h-1.44141Zm0-2.68359v-2.9043l-2.12305,2.9043h2.12305Z"/>
          <path class="cls-2" d="m383.93945,431.69336v-1.31934h1.81543v-1.82617h1.43066v1.82617h1.81445v1.31934h-1.81445v1.82617h-1.43066v-1.82617h-1.81543Z"/>
          <path class="cls-2" d="m393.43359,434.7627v-7.7002h5.11426v1.36426h-3.50879v1.96875h2.82715l-.18652,1.36426h-2.64062v3.00293h-1.60547Z"/>
          <path class="cls-2" d="m401.13281,434.91699c-.62305,0-1.11816-.2002-1.48438-.59961-.36719-.39941-.55078-.96973-.55078-1.71094v-3.51953h1.54102v3.31055c0,.38184.07227.67676.21973.88574.14648.20898.37793.31348.69238.31348h.08789c.17676,0,.3457-.04785.50586-.14258.16211-.0957.2959-.24414.40234-.44629.10547-.20117.15918-.45996.15918-.77539v-3.14551h1.54004v5.67578h-1.3418v-.7041c-.18359.2793-.41797.49121-.7041.6377-.28613.14746-.60449.2207-.95703.2207h-.11035Z"/>
          <path class="cls-2" d="m405.67578,434.7627v-8.03027h1.54004v8.03027h-1.54004Z"/>
          <path class="cls-2" d="m408.64551,434.7627v-8.03027h1.54004v8.03027h-1.54004Z"/>
          <path class="cls-2" d="m414.56348,434.7627v-7.7002h2.91504c.89453,0,1.60352.20898,2.12891.62695.52344.41797.78613.99805.78613,1.73828v.20898c0,.52051-.12598.96094-.37988,1.32031-.25293.35938-.60645.63086-1.06152.81348l1.68262,2.99219h-1.74805l-1.51855-2.75h-1.19824v2.75h-1.60645Zm1.60645-4.13574h1.26465c.38867,0,.71094-.07324.96777-.2207.25684-.14648.38477-.3916.38477-.73633v-.27539c0-.33008-.12793-.57031-.38477-.7207-.25684-.14941-.5791-.22559-.96777-.22559h-1.26465v2.17871Z"/>
          <path class="cls-2" d="m423.30859,434.7627v-6.31445h-2.31055v-1.38574h6.22656v1.38574h-2.31055v6.31445h-1.60547Z"/>
        </g>
        <g>
          <path class="cls-6" d="m482.94531,395.16309v-7.7002h1.60547v3.09082h3.27832v-3.09082h1.60645v7.7002h-1.60645v-3.22266h-3.27832v3.22266h-1.60547Z"/>
          <path class="cls-6" d="m493.53809,395.31738c-.52832,0-1.00098-.11035-1.41895-.33008-.41797-.2207-.74805-.54102-.99023-.96289s-.36328-.93262-.36328-1.53418v-.33008c0-.6084.12109-1.12207.36328-1.54004s.57227-.7373.99023-.95703.89062-.33008,1.41895-.33008h.07715c.52734,0,1.00098.11035,1.41895.33008s.74805.53906.98926.95703c.24219.41797.36328.93164.36328,1.54004v.33008c0,.60156-.12109,1.1123-.36328,1.53418-.24121.42188-.57129.74219-.98926.96289-.41797.21973-.8916.33008-1.41895.33008h-.07715Zm0-1.32031h.07715c.35938,0,.6543-.11719.88477-.35156.23145-.23535.34766-.60938.34766-1.12207v-.39648c0-.5127-.11621-.88672-.34766-1.12207-.23047-.23438-.52539-.35156-.88477-.35156h-.07715c-.35938,0-.6543.11719-.88574.35156-.23047.23535-.3457.60938-.3457,1.12207v.39648c0,.5127.11523.88672.3457,1.12207.23145.23438.52637.35156.88574.35156Z"/>
          <path class="cls-6" d="m499.83008,397.5166c-.55664,0-1.02148-.08789-1.3916-.26367s-.66113-.43945-.87402-.79199l1.07812-.8252c.14648.2207.3125.37598.5.46777s.4375.1377.75391.1377h.13184c.82129,0,1.23145-.48438,1.23145-1.45215v-.35156c-.38086.4541-.90918.68164-1.58398.68164h-.08789c-.46875,0-.88184-.11523-1.2373-.34668-.35547-.23047-.63184-.55371-.83105-.96777-.19727-.41406-.29688-.89648-.29688-1.44629v-.26465c0-.5498.09961-1.03223.29688-1.44629.19922-.41406.47559-.7373.83105-.96777.35547-.23145.76855-.34668,1.2373-.34668h.08789c.80664,0,1.40039.28613,1.78223.8584v-.69336h1.34277v5.23633c0,.89453-.23535,1.58203-.70508,2.0625-.46875.47949-1.14062.71973-2.0127.71973h-.25293Zm.1543-3.71777h.09863c.35254,0,.63965-.13184.86426-.39551.22266-.26465.33496-.6084.33496-1.03418v-.28613c0-.4248-.1123-.76953-.33496-1.03418-.22461-.26367-.51172-.39551-.86426-.39551h-.09863c-.38086,0-.68066.12598-.89648.37891-.2168.25293-.32422.60352-.32422,1.05078v.27539c0,.44727.10742.79883.32422,1.05566.21582.25684.51562.38477.89648.38477Z"/>
          <path class="cls-6" d="m503.86719,389.4873h1.62793l.94629,3.75098,1.0332-3.75098h1.36523l1.01172,3.66309.94531-3.66309h1.5293l-1.73828,5.67578h-1.39648l-1.08984-3.79492-1.09961,3.79492h-1.39648l-1.73828-5.67578Z"/>
          <path class="cls-6" d="m514.64746,395.31738c-.6084,0-1.08008-.15039-1.41309-.45117-.33398-.30078-.50098-.72266-.50098-1.26465,0-.49902.15234-.89844.45605-1.19922.30469-.30078.74609-.48828,1.32617-.56152l1.78125-.23047v-.04395c0-.66797-.30371-1.00098-.91211-1.00098h-.11035c-.27148,0-.49902.04883-.68262.14844-.18262.09863-.33691.27344-.46094.52246l-1.17773-.61621c.16895-.38867.45312-.7002.85352-.93457.39844-.23535.88477-.35254,1.45703-.35254h.16406c1.60742,0,2.41016.75195,2.41016,2.25488v3.5752h-1.3418v-.71484c-.17676.27148-.41992.4834-.73242.6377-.31152.1543-.66504.23145-1.06055.23145h-.05566Zm1.64941-2.67285l-1.17578.16504c-.33789.05078-.57227.12207-.70508.21387-.13086.0918-.19727.24023-.19727.44531,0,.19824.07422.35449.22461.46777.15039.11426.35059.1709.59961.1709h.08789c.36719,0,.65332-.10645.8584-.31934.20605-.21289.30762-.50195.30762-.86914v-.27441Z"/>
          <path class="cls-6" d="m519.20117,395.16309v-5.67578h1.3418v.96777c.1543-.33008.34863-.58496.58398-.76465.23438-.17969.55273-.26953.95703-.26953h.60449v1.41895h-.5498c-.2207,0-.43652.04395-.64941.13184-.21289.08887-.39062.24023-.5332.45703-.14355.21582-.21484.51562-.21484.89648v2.83789h-1.54004Z"/>
          <path class="cls-6" d="m526.6582,395.22949c-.78418,0-1.33984-.16895-1.66602-.50684-.32617-.33691-.48926-.83887-.48926-1.50684v-2.44141h-1.18848v-1.28711h1.18848v-1.61719h1.54004v1.61719h1.74902l-.18652,1.28711h-1.5625v2.38672c0,.27148.06738.46777.20312.58887.13574.12012.32031.18066.55566.18066h.99023v1.29883h-1.13379Z"/>
          <path class="cls-6" d="m530.9707,395.31738c-1.32031,0-2.15234-.43262-2.49609-1.29785l1.19824-.60547c.10254.21973.25684.38379.46191.48926.20508.10645.48828.16016.84766.16016h.14258c.63086,0,.94531-.16504.94531-.49512v-.04395c0-.2793-.18262-.44434-.54883-.49512l-1.14453-.1543c-.55664-.08008-.98438-.26172-1.28125-.54395s-.44531-.66211-.44531-1.13867v-.11035c0-.54297.20703-.96973.62109-1.28125s.9668-.46777,1.65625-.46777h.16406c.57227,0,1.05664.1123,1.45215.33594s.68262.54102.8584.95117l-1.2207.53906c-.17676-.38086-.54297-.57227-1.10059-.57227h-.14355c-.53516,0-.80273.1582-.80273.47363v.04395c0,.11719.04102.21094.12109.28027s.21289.11914.39648.14844l1.1875.16504c.55078.07324.97363.26562,1.27051.57715.29785.31152.44629.70605.44629,1.18262v.11035c0,.5791-.20605,1.01562-.61719,1.30859-.41016.29297-1.01172.44043-1.80273.44043h-.16602Z"/>
          <path class="cls-6" d="m537.51562,395.16309v-7.7002h1.60645v6.31445h3.35449v1.38574h-4.96094Z"/>
          <path class="cls-6" d="m545.90918,395.31738c-.86523,0-1.53613-.24609-2.0127-.7373s-.71484-1.18457-.71484-2.0791v-.33008c0-.89453.24219-1.59082.72559-2.08984s1.15137-.74805,2.00195-.74805h.08789c.80664,0,1.43555.24414,1.88672.73145.4502.48828.67676,1.16016.67676,2.01855v.69336h-3.86133c.05078.87207.45508,1.30859,1.20996,1.30859h.15332c.58008,0,.98633-.19434,1.22168-.58301l1.11035.7373c-.20508.33691-.51074.60156-.91797.79199-.40625.19043-.875.28613-1.40234.28613h-.16504Zm-1.19922-3.5752h2.35449v-.0332c0-.7627-.35547-1.14355-1.06738-1.14355h-.08789c-.7041,0-1.10449.3916-1.19922,1.17676Z"/>
          <path class="cls-6" d="m551.95898,397.5166c-.55664,0-1.02148-.08789-1.3916-.26367s-.66113-.43945-.87402-.79199l1.07812-.8252c.14648.2207.3125.37598.5.46777s.4375.1377.75391.1377h.13184c.82129,0,1.23145-.48438,1.23145-1.45215v-.35156c-.38086.4541-.90918.68164-1.58398.68164h-.08789c-.46875,0-.88184-.11523-1.2373-.34668-.35547-.23047-.63184-.55371-.83105-.96777-.19727-.41406-.29688-.89648-.29688-1.44629v-.26465c0-.5498.09961-1.03223.29688-1.44629.19922-.41406.47559-.7373.83105-.96777.35547-.23145.76855-.34668,1.2373-.34668h.08789c.80664,0,1.40039.28613,1.78223.8584v-.69336h1.34277v5.23633c0,.89453-.23535,1.58203-.70508,2.0625-.46875.47949-1.14062.71973-2.0127.71973h-.25293Zm.1543-3.71777h.09863c.35254,0,.63965-.13184.86426-.39551.22266-.26465.33496-.6084.33496-1.03418v-.28613c0-.4248-.1123-.76953-.33496-1.03418-.22461-.26367-.51172-.39551-.86426-.39551h-.09863c-.38086,0-.68066.12598-.89648.37891-.2168.25293-.32422.60352-.32422,1.05078v.27539c0,.44727.10742.79883.32422,1.05566.21582.25684.51562.38477.89648.38477Z"/>
          <path class="cls-6" d="m557.99805,395.31738c-.60938,0-1.08008-.15039-1.41406-.45117-.33301-.30078-.5-.72266-.5-1.26465,0-.49902.15234-.89844.45703-1.19922.30371-.30078.74609-.48828,1.3252-.56152l1.78223-.23047v-.04395c0-.66797-.30469-1.00098-.91406-1.00098h-.10938c-.27148,0-.49805.04883-.68164.14844-.18359.09863-.33789.27344-.46289.52246l-1.17578-.61621c.16797-.38867.45215-.7002.85156-.93457.40039-.23535.88574-.35254,1.45801-.35254h.16504c1.60547,0,2.4082.75195,2.4082,2.25488v3.5752h-1.3418v-.71484c-.17578.27148-.41992.4834-.73047.6377-.3125.1543-.66602.23145-1.0625.23145h-.05469Zm1.65039-2.67285l-1.17773.16504c-.33691.05078-.57227.12207-.70312.21387-.13281.0918-.19922.24023-.19922.44531,0,.19824.07617.35449.22656.46777.15039.11426.34961.1709.59961.1709h.08789c.36621,0,.65234-.10645.85742-.31934s.30859-.50195.30859-.86914v-.27441Z"/>
          <path class="cls-6" d="m565.03809,395.31738c-.85059,0-1.52734-.24219-2.03027-.72656-.50195-.4834-.75293-1.18359-.75293-2.10059v-.33008c0-.60156.11621-1.1123.34668-1.53418s.55469-.74316.97266-.96289.90625-.33008,1.46387-.33008h.08789c.5498,0,1.01367.13184,1.3916.39648.37695.26367.64648.6123.80859,1.04492l-1.24316.52734c-.08789-.19043-.21094-.3457-.36816-.4668-.1582-.12109-.35449-.18164-.58887-.18164h-.07715c-.37402,0-.67578.11914-.90723.35742s-.34668.61035-.34668,1.11621v.39648c0,.52051.11133.89648.33594,1.12695.22266.23145.5293.34668.91797.34668h.07715c.25684,0,.46973-.05469.6377-.16504.16895-.11035.30078-.25977.39648-.45117l1.19922.62695c-.16211.37402-.4375.68652-.82617.93555s-.85742.37402-1.40723.37402h-.08789Z"/>
          <path class="cls-6" d="m568.32715,397.36328v-1.29785h.39551c.32324,0,.5625-.05176.7207-.1543s.28418-.30469.37988-.60547l.04395-.15332-2.18945-5.66504h1.66211l1.31934,4.00391,1.17676-4.00391h1.55078l-2.00195,5.75293c-.1543.44727-.30957.81055-.4668,1.08887-.1582.27832-.33398.49316-.52832.64355s-.42188.25293-.68262.30762c-.25977.05566-.57324.08301-.93945.08301h-.44043Z"/>
          <path class="cls-2" d="m496.93164,434.7627v-7.7002h3.06836c.77734,0,1.43164.15039,1.96387.45117s.93457.72266,1.20996,1.26465c.27539.54297.41211,1.18164.41211,1.91406v.42969c0,1.12891-.30762,2.01855-.92383,2.66699-.61523.64941-1.50293.97363-2.66211.97363h-3.06836Zm1.60547-1.38574h1.41992c.65234,0,1.15234-.18164,1.50098-.54492s.52246-.92188.52246-1.67773v-.49414c0-.72656-.17383-1.27637-.52246-1.65039s-.84863-.56152-1.50098-.56152h-1.41992v4.92871Z"/>
          <path class="cls-2" d="m505.07227,434.7627v-7.7002h1.60547v6.31445h3.35547v1.38574h-4.96094Z"/>
          <path class="cls-2" d="m513.91602,434.91699c-1.60645,0-2.62891-.56836-3.06934-1.70508l1.35254-.69336c.25684.68262.8291,1.02344,1.7168,1.02344h.14258c.93164,0,1.39648-.30078,1.39648-.90234v-.11035c0-.23438-.08008-.43555-.24219-.60449-.16016-.16895-.3916-.27148-.69238-.30859l-1.19824-.14258c-.73438-.08789-1.29102-.31738-1.67285-.6875s-.57129-.87402-.57129-1.5127v-.13184c0-.4541.11719-.84863.35156-1.18262.23438-.33301.56641-.5918.99609-.77539.42773-.18359.93262-.27441,1.51172-.27441h.16504c.7041,0,1.29785.14062,1.78223.42285s.83203.69141,1.04492,1.22656l-1.4082.59375c-.19727-.5791-.6748-.86816-1.42969-.86816h-.14258c-.39648,0-.70703.07617-.92969.23047-.22461.1543-.33594.35938-.33594.61621v.10938c0,.44824.30859.71191.92383.79199l1.19922.14355c.74805.08789,1.31055.33398,1.68848.7373s.56641.92773.56641,1.57227v.13281c0,.7334-.25684,1.2998-.77051,1.69922-.5127.39941-1.25.59961-2.21094.59961h-.16406Z"/>
          <path class="cls-2" d="m520.86719,434.91699c-1.60547,0-2.62891-.56836-3.06836-1.70508l1.35254-.69336c.25684.68262.8291,1.02344,1.71582,1.02344h.14258c.93164,0,1.39746-.30078,1.39746-.90234v-.11035c0-.23438-.08105-.43555-.24219-.60449s-.3916-.27148-.69238-.30859l-1.19922-.14258c-.7334-.08789-1.29102-.31738-1.67188-.6875-.38184-.37012-.57227-.87402-.57227-1.5127v-.13184c0-.4541.11719-.84863.35156-1.18262.23438-.33301.56641-.5918.99609-.77539.42871-.18359.93359-.27441,1.51172-.27441h.16602c.70312,0,1.29688.14062,1.78125.42285s.83203.69141,1.04492,1.22656l-1.4082.59375c-.19727-.5791-.67383-.86816-1.42969-.86816h-.14258c-.39648,0-.70605.07617-.92969.23047s-.33594.35938-.33594.61621v.10938c0,.44824.30859.71191.92383.79199l1.19922.14355c.74805.08789,1.31055.33398,1.68945.7373.37695.40332.56641.92773.56641,1.57227v.13281c0,.7334-.25781,1.2998-.77051,1.69922s-1.25098.59961-2.21094.59961h-.16504Z"/>
          <path class="cls-2" d="m531.04199,434.7627v-1.39746h-3.65137v-1.1875l3.64062-4.9834h1.45117v4.88477h.99023l-.18652,1.28613h-.80371v1.39746h-1.44043Zm0-2.68359v-2.9043l-2.12305,2.9043h2.12305Z"/>
          <path class="cls-2" d="m537.20215,431.69336v-1.31934h1.81543v-1.82617h1.42969v1.82617h1.81445v1.31934h-1.81445v1.82617h-1.42969v-1.82617h-1.81543Z"/>
          <path class="cls-2" d="m546.69531,434.7627v-7.7002h2.91504c.89453,0,1.60449.20898,2.12793.62695.52539.41797.78711.99805.78711,1.73828v.20898c0,.52051-.12695.96094-.37988,1.32031s-.60645.63086-1.06152.81348l1.68359,2.99219h-1.75l-1.51758-2.75h-1.19922v2.75h-1.60547Zm1.60547-4.13574h1.26562c.38867,0,.71094-.07324.96777-.2207.25684-.14648.38574-.3916.38574-.73633v-.27539c0-.33008-.12891-.57031-.38574-.7207-.25684-.14941-.5791-.22559-.96777-.22559h-1.26562v2.17871Z"/>
          <path class="cls-2" d="m555.44043,434.7627v-6.31445h-2.30957v-1.38574h6.22559v1.38574h-2.30957v6.31445h-1.60645Z"/>
        </g>
        <g>
          <path class="cls-6" d="m650.35352,395.16309l2.96973-7.7002h1.44043l2.98145,7.7002h-1.7373l-.55078-1.55078h-2.91504l-.5498,1.55078h-1.63867Zm2.66211-2.87109h1.96875l-.97852-2.76074-.99023,2.76074Z"/>
          <path class="cls-6" d="m659.58203,395.16309l-2.13379-5.67578h1.62793l1.2207,3.79492,1.25391-3.79492h1.5293l-2.13379,5.67578h-1.36426Z"/>
          <path class="cls-6" d="m666.06055,395.31738c-.52734,0-1-.11035-1.41797-.33008-.41797-.2207-.74805-.54102-.99023-.96289s-.36328-.93262-.36328-1.53418v-.33008c0-.6084.12109-1.12207.36328-1.54004s.57227-.7373.99023-.95703.89062-.33008,1.41797-.33008h.07812c.52734,0,1,.11035,1.41797.33008s.74805.53906.99023.95703.36328.93164.36328,1.54004v.33008c0,.60156-.12109,1.1123-.36328,1.53418s-.57227.74219-.99023.96289c-.41797.21973-.89062.33008-1.41797.33008h-.07812Zm0-1.32031h.07812c.3584,0,.6543-.11719.88477-.35156.23047-.23535.34668-.60938.34668-1.12207v-.39648c0-.5127-.11621-.88672-.34668-1.12207-.23047-.23438-.52637-.35156-.88477-.35156h-.07812c-.35938,0-.6543.11719-.88477.35156-.23047.23535-.34668.60938-.34668,1.12207v.39648c0,.5127.11621.88672.34668,1.12207.23047.23438.52539.35156.88477.35156Z"/>
          <path class="cls-6" d="m669.40527,389.4873h1.62793l.94531,3.75098,1.03516-3.75098h1.36328l1.01172,3.66309.94727-3.66309h1.52832l-1.7373,5.67578h-1.39844l-1.08789-3.79492-1.10059,3.79492h-1.39746l-1.7373-5.67578Z"/>
          <path class="cls-6" d="m680.97754,395.31738c-.86523,0-1.53613-.24609-2.0127-.7373s-.71484-1.18457-.71484-2.0791v-.33008c0-.89453.24219-1.59082.72559-2.08984s1.15137-.74805,2.00195-.74805h.08789c.80664,0,1.43555.24414,1.88672.73145.4502.48828.67676,1.16016.67676,2.01855v.69336h-3.86133c.05078.87207.45508,1.30859,1.20996,1.30859h.15332c.58008,0,.98633-.19434,1.22168-.58301l1.11035.7373c-.20508.33691-.51074.60156-.91797.79199-.40625.19043-.875.28613-1.40234.28613h-.16504Zm-1.19922-3.5752h2.35449v-.0332c0-.7627-.35547-1.14355-1.06738-1.14355h-.08789c-.7041,0-1.10449.3916-1.19922,1.17676Z"/>
          <path class="cls-6" d="m686.78516,395.31738c-.45508,0-.86133-.1084-1.2207-.3252-.35938-.21582-.64062-.53711-.8418-.96191-.20117-.42578-.30273-.94238-.30273-1.55078v-.33008c0-.60938.10156-1.12207.30273-1.54004s.48242-.73535.8418-.95215c.35938-.21582.76562-.32422,1.2207-.32422h.07715c.68262,0,1.21387.22754,1.59473.68164v-2.88184h1.54102v8.03027h-1.34277v-.7041c-.38867.57227-.98633.8584-1.79297.8584h-.07715Zm.40723-1.32031h.08789c.19824,0,.38867-.0498.57227-.14844.18262-.09863.33301-.25879.4502-.47852.11816-.21973.17676-.50977.17676-.86914v-.35156c0-.35938-.06055-.64941-.18164-.86914s-.27246-.37988-.45605-.47852c-.18359-.09961-.37109-.14844-.56152-.14844h-.08789c-.35254,0-.64551.11719-.87988.35156-.23438.23535-.35156.6123-.35156,1.13281v.36328c0,.52051.11719.90039.35156,1.13867s.52734.35742.87988.35742Z"/>
          <path class="cls-2" d="m639.62891,434.7627v-7.7002h3.06836c.77734,0,1.43164.15039,1.96387.45117s.93457.72266,1.20996,1.26465c.27539.54297.41211,1.18164.41211,1.91406v.42969c0,1.12891-.30762,2.01855-.92383,2.66699-.61523.64941-1.50293.97363-2.66211.97363h-3.06836Zm1.60547-1.38574h1.41992c.65234,0,1.15234-.18164,1.50098-.54492s.52246-.92188.52246-1.67773v-.49414c0-.72656-.17383-1.27637-.52246-1.65039s-.84863-.56152-1.50098-.56152h-1.41992v4.92871Z"/>
          <path class="cls-2" d="m647.76855,434.7627v-7.7002h1.60645v6.31445h3.35449v1.38574h-4.96094Z"/>
          <path class="cls-2" d="m656.6123,434.91699c-1.60645,0-2.62891-.56836-3.06934-1.70508l1.35352-.69336c.25586.68262.82812,1.02344,1.71582,1.02344h.14355c.93066,0,1.39648-.30078,1.39648-.90234v-.11035c0-.23438-.08008-.43555-.24219-.60449-.16113-.16895-.39258-.27148-.69336-.30859l-1.19824-.14258c-.7334-.08789-1.29102-.31738-1.67285-.6875-.38086-.37012-.57129-.87402-.57129-1.5127v-.13184c0-.4541.11719-.84863.35254-1.18262.23438-.33301.56641-.5918.99512-.77539s.93262-.27441,1.5127-.27441h.16406c.70508,0,1.29883.14062,1.7832.42285.4834.28223.83203.69141,1.04492,1.22656l-1.4082.59375c-.19824-.5791-.67578-.86816-1.42969-.86816h-.14355c-.39551,0-.70605.07617-.92969.23047s-.33496.35938-.33496.61621v.10938c0,.44824.30762.71191.92383.79199l1.19922.14355c.74805.08789,1.31055.33398,1.6875.7373.37793.40332.56641.92773.56641,1.57227v.13281c0,.7334-.25586,1.2998-.76953,1.69922s-1.25.59961-2.21094.59961h-.16504Z"/>
          <path class="cls-2" d="m663.56445,434.91699c-1.60645,0-2.62891-.56836-3.06934-1.70508l1.35254-.69336c.25684.68262.8291,1.02344,1.7168,1.02344h.14258c.93164,0,1.39648-.30078,1.39648-.90234v-.11035c0-.23438-.08008-.43555-.24219-.60449-.16016-.16895-.3916-.27148-.69238-.30859l-1.19824-.14258c-.73438-.08789-1.29102-.31738-1.67285-.6875s-.57129-.87402-.57129-1.5127v-.13184c0-.4541.11719-.84863.35156-1.18262.23438-.33301.56641-.5918.99609-.77539.42773-.18359.93262-.27441,1.51172-.27441h.16504c.7041,0,1.29785.14062,1.78223.42285s.83203.69141,1.04492,1.22656l-1.4082.59375c-.19727-.5791-.6748-.86816-1.42969-.86816h-.14258c-.39648,0-.70703.07617-.92969.23047-.22461.1543-.33594.35938-.33594.61621v.10938c0,.44824.30859.71191.92383.79199l1.19922.14355c.74805.08789,1.31055.33398,1.68848.7373s.56641.92773.56641,1.57227v.13281c0,.7334-.25684,1.2998-.77051,1.69922-.5127.39941-1.25.59961-2.21094.59961h-.16406Z"/>
          <path class="cls-2" d="m673.73828,434.7627v-1.39746h-3.65137v-1.1875l3.6416-4.9834h1.45117v4.88477h.99023l-.1875,1.28613h-.80273v1.39746h-1.44141Zm0-2.68359v-2.9043l-2.12305,2.9043h2.12305Z"/>
          <path class="cls-2" d="m679.89844,431.69336v-1.31934h1.81543v-1.82617h1.43066v1.82617h1.81445v1.31934h-1.81445v1.82617h-1.43066v-1.82617h-1.81543Z"/>
          <path class="cls-2" d="m689.39258,434.7627v-7.7002h2.91406c.89453,0,1.60449.20898,2.12891.62695s.78711.99805.78711,1.73828v.20898c0,.52051-.12695.96094-.38086,1.32031-.25195.35938-.60547.63086-1.06055.81348l1.68262,2.99219h-1.74902l-1.51758-2.75h-1.19922v2.75h-1.60547Zm1.60547-4.13574h1.26562c.38867,0,.71094-.07324.9668-.2207.25781-.14648.38574-.3916.38574-.73633v-.27539c0-.33008-.12793-.57031-.38574-.7207-.25586-.14941-.57812-.22559-.9668-.22559h-1.26562v2.17871Z"/>
          <path class="cls-2" d="m698.13672,434.7627v-6.31445h-2.30957v-1.38574h6.22559v1.38574h-2.30957v6.31445h-1.60645Z"/>
        </g>
        <g>
          <path class="cls-6" d="m130.20508,12.06738c-1.7832,0-2.92188-.62012-3.41602-1.8623l1.6377-.72754c.24219.58789.79785.88184,1.66602.88184h.09766c.4668,0,.85156-.12598,1.15527-.37793.30273-.25195.45508-.56934.45508-.95215v-.16797c0-.43848-.15918-.7959-.47656-1.07129-.31641-.27441-.72754-.41309-1.23145-.41309h-.12598c-.5791,0-1.1582.20605-1.73633.61621l-1.2041-.53223.23828-5.19336h5.97754v1.76367h-4.32617l-.09766,2.14258c.21484-.14062.47363-.25195.77734-.33594.30273-.08496.62305-.12695.95898-.12695h.1543c.59668,0,1.12695.13379,1.58789.39941.46289.26562.82422.62988,1.08594,1.0918.26074.46191.3916.99219.3916,1.58887v.23828c0,.60645-.1416,1.13867-.42676,1.5957-.28516.45801-.68164.8125-1.18945,1.06445-.50977.25195-1.09961.37793-1.77148.37793h-.18164Z"/>
          <path class="cls-6" d="m135.25781,11.89941v-2.12793h2.05859v2.12793h-2.05859Z"/>
          <path class="cls-6" d="m142.17383,12.06738c-1.14746,0-2.03711-.24707-2.66602-.74219-.63086-.49414-.94531-1.18945-.94531-2.08594v-.19629c0-.47559.10547-.90234.31445-1.28027.21094-.37793.52051-.68359.93164-.91699-.66309-.4668-.99414-1.10645-.99414-1.91797v-.18262c0-.80273.30469-1.44434.91699-1.9248.61035-.48047,1.43066-.7207,2.45703-.7207h.15332c1.02734,0,1.8457.24023,2.45703.7207s.91797,1.12207.91797,1.9248v.18262c0,.81152-.33203,1.45117-.99414,1.91797.41016.2334.7207.53906.93066.91699s.31543.80469.31543,1.28027v.19629c0,.90527-.31543,1.60352-.94531,2.09277-.63086.49023-1.51953.73535-2.66699.73535h-.18262Zm.04297-1.70801h.09766c.52246,0,.93066-.10742,1.22461-.32227.29492-.21387.44141-.51758.44141-.91016v-.15332c0-.38281-.14648-.68359-.44141-.90332-.29395-.21875-.70215-.3291-1.22461-.3291h-.09766c-.51367,0-.91992.11035-1.21875.3291-.29883.21973-.44727.52051-.44727.90332v.15332c0,.39258.14648.69629.44043.91016.29395.21484.70215.32227,1.22559.32227Zm.01367-4.21387h.07031c.44727,0,.7998-.09766,1.05664-.29395.25586-.19629.38477-.4668.38477-.8125v-.15332c0-.3457-.12891-.61621-.38477-.8125-.25684-.19629-.60938-.29395-1.05664-.29395h-.07031c-.44824,0-.80078.09766-1.05664.29395-.25781.19629-.38574.4668-.38574.8125v.15332c0,.3457.12793.61621.38574.8125.25586.19629.6084.29395,1.05664.29395Z"/>
          <path class="cls-6" d="m153.44434,11.89941l-2.22559-3.40234-2.22656,3.40234h-2.36621l3.37402-4.96973-3.26172-4.83008h2.42188l2.11328,3.2334,2.11523-3.2334h2.36523l-3.26172,4.83008,3.37402,4.96973h-2.42188Z"/>
        </g>
        <g>
          <path class="cls-6" d="m272.83105,12.06738c-1.78223,0-2.9209-.62012-3.41602-1.8623l1.6377-.72754c.24219.58789.79883.88184,1.66602.88184h.09766c.4668,0,.85156-.12598,1.15625-.37793.30273-.25195.45508-.56934.45508-.95215v-.16797c0-.43848-.16016-.7959-.47656-1.07129-.31738-.27441-.72852-.41309-1.23242-.41309h-.12598c-.5791,0-1.15723.20605-1.73535.61621l-1.20508-.53223.23828-5.19336h5.97852v1.76367h-4.32617l-.09766,2.14258c.21484-.14062.47266-.25195.77734-.33594.30273-.08496.62305-.12695.95898-.12695h.15332c.59668,0,1.12695.13379,1.58887.39941.46289.26562.82422.62988,1.08496,1.0918s.3916.99219.3916,1.58887v.23828c0,.60645-.1416,1.13867-.42578,1.5957-.28516.45801-.68164.8125-1.19043,1.06445s-1.09863.37793-1.77051.37793h-.18262Z"/>
          <path class="cls-6" d="m277.88477,11.89941v-2.12793h2.05859v2.12793h-2.05859Z"/>
          <path class="cls-6" d="m283.13477,11.89941v-1.07812c0-.48535.03516-.93066.10547-1.33691.06934-.40625.18555-.81152.34961-1.21777.16309-.40625.37988-.84766.65039-1.32324l1.66602-2.91211h-4.38086v-1.76367h6.81738v1.52539l-2.25391,3.79492c-.33594.55957-.5791,1.09863-.72754,1.61621-.15039.51855-.22461,1.07617-.22461,1.67285v1.02246h-2.00195Z"/>
          <path class="cls-6" d="m296.07031,11.89941l-2.22559-3.40234-2.22559,3.40234h-2.36719l3.375-4.96973-3.26172-4.83008h2.42188l2.11328,3.2334,2.11426-3.2334h2.36621l-3.26172,4.83008,3.37305,4.96973h-2.42188Z"/>
        </g>
        <g>
          <path class="cls-6" d="m779.58105,395.16309v-7.7002h2.00195l2.2002,5.57715,2.19922-5.57715h1.94727v7.7002h-1.5293v-5.19238l-2.06738,5.19238h-1.15527l-2.06836-5.19238v5.19238h-1.52832Z"/>
          <path class="cls-6" d="m791.19727,395.31738c-.60938,0-1.08008-.15039-1.41406-.45117s-.5-.72266-.5-1.26465c0-.49902.15234-.89844.45605-1.19922s.74609-.48828,1.3252-.56152l1.78223-.23047v-.04395c0-.66797-.30371-1.00098-.91309-1.00098h-.10938c-.27148,0-.49902.04883-.68262.14844-.18262.09863-.33691.27344-.46191.52246l-1.17676-.61621c.16895-.38867.45215-.7002.85254-.93457.39941-.23535.88477-.35254,1.45703-.35254h.16504c1.60645,0,2.40918.75195,2.40918,2.25488v3.5752h-1.3418v-.71484c-.17578.27148-.41992.4834-.73145.6377s-.66504.23145-1.06152.23145h-.05469Zm1.64941-2.67285l-1.17676.16504c-.33789.05078-.57227.12207-.7041.21387s-.19824.24023-.19824.44531c0,.19824.0752.35449.22559.46777.15039.11426.35059.1709.59961.1709h.08789c.36621,0,.65332-.10645.8584-.31934s.30762-.50195.30762-.86914v-.27441Z"/>
          <path class="cls-6" d="m795.75,395.16309v-5.67578h1.34277v.96777c.15332-.33008.34863-.58496.58301-.76465s.55371-.26953.95703-.26953h.60547v1.41895h-.55078c-.21973,0-.43555.04395-.64844.13184-.21289.08887-.39062.24023-.5332.45703-.14355.21582-.21484.51562-.21484.89648v2.83789h-1.54102Z"/>
          <path class="cls-6" d="m801.91016,395.16309l-2.13379-5.67578h1.62793l1.2207,3.79492,1.25391-3.79492h1.5293l-2.13379,5.67578h-1.36426Z"/>
          <path class="cls-6" d="m808.3457,395.31738c-.86523,0-1.53711-.24609-2.01367-.7373s-.71484-1.18457-.71484-2.0791v-.33008c0-.89453.24219-1.59082.72656-2.08984.4834-.49902,1.15039-.74805,2.00195-.74805h.08789c.80664,0,1.43555.24414,1.88672.73145.4502.48828.67578,1.16016.67578,2.01855v.69336h-3.86133c.05176.87207.45508,1.30859,1.21094,1.30859h.15332c.5791,0,.98633-.19434,1.22168-.58301l1.11035.7373c-.20508.33691-.51074.60156-.91895.79199-.40625.19043-.87402.28613-1.40234.28613h-.16406Zm-1.19922-3.5752h2.35352v-.0332c0-.7627-.35547-1.14355-1.06641-1.14355h-.08789c-.70508,0-1.10449.3916-1.19922,1.17676Z"/>
          <path class="cls-6" d="m812.08496,395.16309v-8.03027h1.54004v8.03027h-1.54004Z"/>
          <path class="cls-6" d="m818.00293,395.16309v-7.7002h2.91504c.89453,0,1.60352.20898,2.12891.62695.52344.41797.78613.99805.78613,1.73828v.20898c0,.52051-.12598.96094-.37988,1.32031-.25293.35938-.60645.63086-1.06152.81348l1.68262,2.99219h-1.74805l-1.51855-2.75h-1.19824v2.75h-1.60645Zm1.60645-4.13574h1.26465c.38867,0,.71094-.07324.96777-.2207.25684-.14648.38477-.3916.38477-.73633v-.27539c0-.33008-.12793-.57031-.38477-.7207-.25684-.14941-.5791-.22559-.96777-.22559h-1.26465v2.17871Z"/>
          <path class="cls-6" d="m824.96582,388.68457v-1.54004h1.58398v1.54004h-1.58398Zm.02246,6.47852v-5.67578h1.53906v5.67578h-1.53906Z"/>
          <path class="cls-6" d="m829.49805,395.16309l-2.13477-5.67578h1.62891l1.2207,3.79492,1.25391-3.79492h1.5293l-2.13477,5.67578h-1.36328Z"/>
          <path class="cls-6" d="m835.14062,395.31738c-.6084,0-1.08008-.15039-1.41309-.45117s-.50098-.72266-.50098-1.26465c0-.49902.15234-.89844.45703-1.19922s.74609-.48828,1.32617-.56152l1.78125-.23047v-.04395c0-.66797-.30469-1.00098-.91309-1.00098h-.11035c-.27148,0-.49805.04883-.68164.14844-.18359.09863-.33789.27344-.46191.52246l-1.17676-.61621c.16797-.38867.45312-.7002.85254-.93457.39941-.23535.88574-.35254,1.45801-.35254h.16406c1.60645,0,2.40918.75195,2.40918,2.25488v3.5752h-1.3418v-.71484c-.17676.27148-.41992.4834-.73145.6377-.3125.1543-.66602.23145-1.06152.23145h-.05566Zm1.65039-2.67285l-1.17676.16504c-.33691.05078-.57227.12207-.7041.21387s-.19824.24023-.19824.44531c0,.19824.0752.35449.22559.46777.15039.11426.34961.1709.59961.1709h.08789c.36719,0,.65234-.10645.85742-.31934.20605-.21289.30859-.50195.30859-.86914v-.27441Z"/>
          <path class="cls-6" d="m839.69531,395.16309v-8.03027h1.53906v8.03027h-1.53906Z"/>
          <path class="cls-6" d="m844.77734,395.31738c-1.32031,0-2.15234-.43262-2.49805-1.29785l1.19922-.60547c.10352.21973.25684.38379.46289.48926.20508.10645.48633.16016.8457.16016h.14355c.63086,0,.94629-.16504.94629-.49512v-.04395c0-.2793-.18359-.44434-.55078-.49512l-1.14355-.1543c-.55762-.08008-.98438-.26172-1.28125-.54395-.29785-.28223-.44629-.66211-.44629-1.13867v-.11035c0-.54297.20703-.96973.62207-1.28125.41406-.31152.96582-.46777,1.65527-.46777h.16602c.57129,0,1.05469.1123,1.45117.33594s.68164.54102.85742.95117l-1.2207.53906c-.17578-.38086-.54297-.57227-1.09961-.57227h-.14258c-.53516,0-.80273.1582-.80273.47363v.04395c0,.11719.03906.21094.12012.28027s.21289.11914.39551.14844l1.18848.16504c.5498.07324.97363.26562,1.27051.57715s.44531.70605.44531,1.18262v.11035c0,.5791-.20508,1.01562-.61523,1.30859-.41113.29297-1.01172.44043-1.80469.44043h-.16406Z"/>
          <path class="cls-2" d="m795.24512,434.7627v-7.7002h3.06934c.77734,0,1.43164.15039,1.96289.45117s.93555.72266,1.20996,1.26465c.27539.54297.41309,1.18164.41309,1.91406v.42969c0,1.12891-.30859,2.01855-.92383,2.66699-.61719.64941-1.50391.97363-2.66211.97363h-3.06934Zm1.60645-1.38574h1.41797c.65332,0,1.1543-.18164,1.50195-.54492s.52246-.92188.52246-1.67773v-.49414c0-.72656-.1748-1.27637-.52246-1.65039s-.84863-.56152-1.50195-.56152h-1.41797v4.92871Z"/>
          <path class="cls-2" d="m803.38477,434.7627v-7.7002h1.60547v6.31445h3.35547v1.38574h-4.96094Z"/>
          <path class="cls-2" d="m812.22852,434.91699c-1.60547,0-2.62891-.56836-3.06836-1.70508l1.35254-.69336c.25684.68262.8291,1.02344,1.71582,1.02344h.14258c.93164,0,1.39746-.30078,1.39746-.90234v-.11035c0-.23438-.08105-.43555-.24219-.60449s-.3916-.27148-.69238-.30859l-1.19922-.14258c-.7334-.08789-1.29102-.31738-1.67188-.6875-.38184-.37012-.57227-.87402-.57227-1.5127v-.13184c0-.4541.11719-.84863.35156-1.18262.23438-.33301.56641-.5918.99609-.77539.42871-.18359.93359-.27441,1.51172-.27441h.16602c.70312,0,1.29688.14062,1.78125.42285s.83203.69141,1.04492,1.22656l-1.4082.59375c-.19727-.5791-.67383-.86816-1.42969-.86816h-.14258c-.39648,0-.70605.07617-.92969.23047s-.33594.35938-.33594.61621v.10938c0,.44824.30859.71191.92383.79199l1.19922.14355c.74805.08789,1.31055.33398,1.68945.7373.37695.40332.56641.92773.56641,1.57227v.13281c0,.7334-.25781,1.2998-.77051,1.69922s-1.25098.59961-2.21094.59961h-.16504Z"/>
          <path class="cls-2" d="m819.17969,434.91699c-1.60547,0-2.62891-.56836-3.06836-1.70508l1.35352-.69336c.25586.68262.82812,1.02344,1.71484,1.02344h.14355c.93066,0,1.39746-.30078,1.39746-.90234v-.11035c0-.23438-.08105-.43555-.24219-.60449-.16211-.16895-.39258-.27148-.69336-.30859l-1.19922-.14258c-.73242-.08789-1.29102-.31738-1.67188-.6875s-.57227-.87402-.57227-1.5127v-.13184c0-.4541.11719-.84863.35254-1.18262.23438-.33301.56641-.5918.99512-.77539.42969-.18359.93359-.27441,1.5127-.27441h.16504c.7041,0,1.29785.14062,1.78223.42285.4834.28223.83203.69141,1.04492,1.22656l-1.4082.59375c-.19824-.5791-.6748-.86816-1.42969-.86816h-.14355c-.39551,0-.70508.07617-.92969.23047-.22266.1543-.33496.35938-.33496.61621v.10938c0,.44824.30762.71191.92383.79199l1.19922.14355c.74805.08789,1.31055.33398,1.68848.7373.37695.40332.56641.92773.56641,1.57227v.13281c0,.7334-.25684,1.2998-.76953,1.69922-.51367.39941-1.25098.59961-2.21094.59961h-.16602Z"/>
          <path class="cls-2" d="m829.35547,434.7627v-1.39746h-3.65234v-1.1875l3.64062-4.9834h1.45215v4.88477h.99023l-.18652,1.28613h-.80371v1.39746h-1.44043Zm0-2.68359v-2.9043l-2.12305,2.9043h2.12305Z"/>
        </g>
        <g>
          <path class="cls-6" d="m919.21875,395.31738c-1.60547,0-2.62891-.56836-3.06836-1.70508l1.35352-.69336c.25586.68262.82812,1.02344,1.71484,1.02344h.14355c.93066,0,1.39746-.30078,1.39746-.90234v-.11035c0-.23438-.08105-.43555-.24219-.60449-.16211-.16895-.39258-.27148-.69336-.30859l-1.19922-.14258c-.73242-.08789-1.29102-.31738-1.67188-.6875s-.57227-.87402-.57227-1.5127v-.13184c0-.4541.11719-.84863.35254-1.18262.23438-.33301.56641-.5918.99512-.77539.42969-.18359.93359-.27441,1.5127-.27441h.16504c.7041,0,1.29785.14062,1.78223.42285.4834.28223.83203.69141,1.04492,1.22656l-1.4082.59375c-.19824-.5791-.6748-.86816-1.42969-.86816h-.14355c-.39551,0-.70508.07617-.92969.23047-.22266.1543-.33496.35938-.33496.61621v.10938c0,.44824.30762.71191.92383.79199l1.19922.14355c.74805.08789,1.31055.33398,1.68848.7373.37695.40332.56641.92773.56641,1.57227v.13281c0,.7334-.25684,1.2998-.76953,1.69922-.51367.39941-1.25098.59961-2.21094.59961h-.16602Z"/>
          <path class="cls-6" d="m923.27832,395.16309v-1.67188h1.61621v1.67188h-1.61621Z"/>
          <path class="cls-6" d="m927.41406,395.16309v-6.31445h-2.31055v-1.38574h6.22656v1.38574h-2.31055v6.31445h-1.60547Z"/>
          <path class="cls-6" d="m931.53906,395.16309v-1.67188h1.61719v1.67188h-1.61719Z"/>
          <path class="cls-6" d="m934.21191,395.16309l2.96973-7.7002h1.44141l2.98047,7.7002h-1.7373l-.5498-1.55078h-2.91602l-.54883,1.55078h-1.63965Zm2.66211-2.87109h1.96973l-.97949-2.76074-.99023,2.76074Z"/>
          <path class="cls-6" d="m942.66016,395.16309v-1.67188h1.61621v1.67188h-1.61621Z"/>
          <path class="cls-6" d="m945.7832,395.16309v-7.7002h1.60547v6.31445h3.35547v1.38574h-4.96094Z"/>
          <path class="cls-6" d="m951.625,395.16309v-1.67188h1.61621v1.67188h-1.61621Z"/>
          <path class="cls-6" d="m954.74805,395.16309v-7.7002h1.60547v3.36621l2.94824-3.36621h1.91406l-2.7168,3.01465,2.82715,4.68555h-1.84766l-2.06836-3.58594-1.05664,1.2207v2.36523h-1.60547Z"/>
          <path class="cls-6" d="m962.07422,395.16309v-1.67188h1.61719v1.67188h-1.61719Z"/>
          <path class="cls-6" d="m965.19824,395.16309v-7.7002h5.11426v1.36426h-3.50781v1.77051h2.84863l-.18652,1.36426h-2.66211v1.83691h3.57422v1.36426h-5.18066Z"/>
          <path class="cls-6" d="m971.52344,395.16309v-1.67188h1.61719v1.67188h-1.61719Z"/>
          <path class="cls-6" d="m974.64648,395.16309v-7.7002h2.91602c.89453,0,1.60352.20898,2.12793.62695s.78613.99805.78613,1.73828v.20898c0,.52051-.12598.96094-.37891,1.32031-.25391.35938-.60742.63086-1.0625.81348l1.68359,2.99219h-1.74902l-1.51855-2.75h-1.19824v2.75h-1.60645Zm1.60645-4.13574h1.26465c.38867,0,.71094-.07324.96875-.2207.25586-.14648.38477-.3916.38477-.73633v-.27539c0-.33008-.12891-.57031-.38477-.7207-.25781-.14941-.58008-.22559-.96875-.22559h-1.26465v2.17871Z"/>
          <path class="cls-6" d="m981.51172,395.16309v-1.67188h1.61621v1.67188h-1.61621Z"/>
          <path class="cls-6" d="m987.13184,395.16309v-1.16602c0-.52832.12793-1.00488.38477-1.42969.25684-.42578.62012-.7627,1.08887-1.0127l1.28711-.69238c.58691-.30859.87988-.68555.87988-1.13281v-.11035c0-.23438-.09473-.42871-.28613-.58301-.19043-.1543-.43262-.23145-.72559-.23145h-.05566c-.34375,0-.61719.06641-.81836.19824-.20215.13184-.35059.34082-.44531.62695l-1.32031-.58301c.35938-1.05566,1.22461-1.58398,2.5957-1.58398h.12109c.76172,0,1.36719.19141,1.81445.57227s.67188.89453.67188,1.54004v.17578c0,.49902-.12695.92285-.37988,1.27051-.25293.34863-.68457.6875-1.29199,1.01758l-1.13379.61621c-.44043.24219-.6748.61621-.7041,1.12207h3.53125v1.38574h-5.21387Z"/>
          <path class="cls-6" d="m993.66602,391.08203v-1.67188h1.61719v1.67188h-1.61719Zm0,4.08105v-1.67188h1.61719v1.67188h-1.61719Z"/>
          <path class="cls-6" d="m906.65234,408.3623v-7.7002h1.60547v3.09082h3.27832v-3.09082h1.60645v7.7002h-1.60645v-3.22266h-3.27832v3.22266h-1.60547Z"/>
          <path class="cls-6" d="m917.20117,408.5166c-.86523,0-1.53711-.24609-2.01367-.7373s-.71484-1.18457-.71484-2.0791v-.33008c0-.89453.24219-1.59082.72656-2.08984s1.15137-.74805,2.00195-.74805h.08789c.80664,0,1.43555.24414,1.88672.73145.45117.48828.67578,1.16016.67578,2.01855v.69336h-3.86035c.05176.87207.4541,1.30859,1.20996,1.30859h.1543c.5791,0,.98633-.19434,1.2207-.58301l1.11133.7373c-.20508.33691-.51172.60156-.91895.79199s-.87402.28613-1.40234.28613h-.16504Zm-1.19922-3.5752h2.35352v-.0332c0-.7627-.35547-1.14355-1.06641-1.14355h-.08789c-.7041,0-1.10352.3916-1.19922,1.17676Z"/>
          <path class="cls-6" d="m922.58008,408.5166c-.60938,0-1.08008-.15039-1.41406-.45117-.33301-.30078-.5-.72266-.5-1.26465,0-.49902.15234-.89844.45703-1.19922.30371-.30078.74609-.48828,1.3252-.56152l1.78223-.23047v-.04395c0-.66797-.30469-1.00098-.91406-1.00098h-.10938c-.27148,0-.49805.04883-.68164.14844-.18359.09863-.33789.27344-.46289.52246l-1.17578-.61621c.16797-.38867.45215-.7002.85156-.93457.40039-.23535.88574-.35254,1.45801-.35254h.16504c1.60547,0,2.4082.75195,2.4082,2.25488v3.5752h-1.3418v-.71484c-.17578.27148-.41992.4834-.73047.6377-.3125.1543-.66602.23145-1.0625.23145h-.05469Zm1.65039-2.67285l-1.17773.16504c-.33691.05078-.57227.12207-.70312.21387-.13281.0918-.19922.24023-.19922.44531,0,.19824.07617.35449.22656.46777.15039.11426.34961.1709.59961.1709h.08789c.36621,0,.65234-.10645.85742-.31934s.30859-.50195.30859-.86914v-.27441Z"/>
          <path class="cls-6" d="m927.13379,408.3623v-5.67578h1.34277v.96777c.15332-.33008.34766-.58496.58203-.76465s.55469-.26953.95703-.26953h.60547v1.41895h-.55078c-.21875,0-.43555.04395-.64844.13184-.21289.08887-.39062.24023-.5332.45703-.14258.21582-.21484.51562-.21484.89648v2.83789h-1.54004Z"/>
          <path class="cls-6" d="m934.5918,408.42871c-.78516,0-1.34082-.16895-1.66699-.50684-.32617-.33691-.48926-.83887-.48926-1.50684v-2.44141h-1.1875v-1.28711h1.1875v-1.61719h1.54004v1.61719h1.74902l-.1875,1.28711h-1.56152v2.38672c0,.27148.06738.46777.20312.58887.13574.12012.32129.18066.55566.18066h.99023v1.29883h-1.13281Z"/>
          <path class="cls-6" d="m942.0166,408.5166c-.52832,0-1.00098-.11035-1.41895-.33008-.41797-.2207-.74805-.54102-.99023-.96289s-.36328-.93262-.36328-1.53418v-.33008c0-.6084.12109-1.12207.36328-1.54004s.57227-.7373.99023-.95703.89062-.33008,1.41895-.33008h.07715c.52734,0,1.00098.11035,1.41895.33008s.74805.53906.98926.95703c.24219.41797.36328.93164.36328,1.54004v.33008c0,.60156-.12109,1.1123-.36328,1.53418-.24121.42188-.57129.74219-.98926.96289-.41797.21973-.8916.33008-1.41895.33008h-.07715Zm0-1.32031h.07715c.35938,0,.6543-.11719.88477-.35156.23145-.23535.34766-.60938.34766-1.12207v-.39648c0-.5127-.11621-.88672-.34766-1.12207-.23047-.23438-.52539-.35156-.88477-.35156h-.07715c-.35938,0-.6543.11719-.88574.35156-.23047.23535-.3457.60938-.3457,1.12207v.39648c0,.5127.11523.88672.3457,1.12207.23145.23438.52637.35156.88574.35156Z"/>
          <path class="cls-6" d="m946.52734,408.3623v-4.38867h-1.13281v-1.28711h1.13281v-.24219c0-.7041.17578-1.24316.52734-1.61719s.93945-.56055,1.75977-.56055h.97949v1.29785h-.9248c-.28516,0-.49023.07129-.61523.21387-.125.14355-.1875.34668-.1875.61133v.29688h1.72754l-.18652,1.28711h-1.54102v4.38867h-1.53906Z"/>
          <path class="cls-6" d="m956.67969,408.5166c-1.14453,0-2.0127-.33398-2.60742-1.00098-.59375-.66797-.89062-1.59863-.89062-2.79395v-.42969c0-.77734.13574-1.44824.40723-2.0127.27051-.56445.66699-1.00098,1.18848-1.30859.51953-.30859,1.1543-.46191,1.90234-.46191h.08789c.78516,0,1.4375.17188,1.95898.5166.51953.34473.88672.83203,1.09961,1.46289l-1.49609.52832c-.10352-.38184-.29102-.66016-.56641-.83594-.27539-.17676-.60742-.26465-.99609-.26465h-.06641c-.60059,0-1.07031.19434-1.40723.58301s-.50586.97559-.50586,1.76074v.49414c0,.81445.16309,1.41016.48926,1.78809s.80078.56641,1.42383.56641h.06641c.39648,0,.7373-.08594,1.02344-.25879.28516-.17188.4873-.44922.60547-.83008l1.46289.57129c-.2207.60938-.59473,1.08203-1.12305,1.41992-.52734.33691-1.18359.50586-1.96875.50586h-.08789Z"/>
          <path class="cls-6" d="m960.9043,408.3623v-8.03027h1.53906v2.87109c.38867-.44727.89844-.6709,1.5293-.6709h.11035c.64551,0,1.15723.2002,1.53418.59961.37793.39941.56641.96973.56641,1.71094v3.51953h-1.53906v-3.31055c0-.38184-.08008-.67676-.2373-.88574s-.40527-.31348-.74219-.31348h-.08789c-.18359,0-.36133.04785-.53418.14258-.17188.0957-.31445.24219-.42871.44043s-.1709.45801-.1709.78027v3.14648h-1.53906Z"/>
          <path class="cls-6" d="m970.02344,408.5166c-.52832,0-1.00195-.11035-1.41992-.33008-.41797-.2207-.74805-.54102-.99023-.96289-.24121-.42188-.3623-.93262-.3623-1.53418v-.33008c0-.6084.12109-1.12207.3623-1.54004.24219-.41797.57227-.7373.99023-.95703s.8916-.33008,1.41992-.33008h.07617c.52832,0,1.00195.11035,1.41992.33008s.74805.53906.98926.95703c.24219.41797.36328.93164.36328,1.54004v.33008c0,.60156-.12109,1.1123-.36328,1.53418-.24121.42188-.57129.74219-.98926.96289-.41797.21973-.8916.33008-1.41992.33008h-.07617Zm0-1.32031h.07617c.35938,0,.6543-.11719.88574-.35156.23145-.23535.34668-.60938.34668-1.12207v-.39648c0-.5127-.11523-.88672-.34668-1.12207-.23145-.23438-.52637-.35156-.88574-.35156h-.07617c-.35938,0-.6543.11719-.88574.35156-.23145.23535-.34668.60938-.34668,1.12207v.39648c0,.5127.11523.88672.34668,1.12207.23145.23438.52637.35156.88574.35156Z"/>
          <path class="cls-6" d="m974.00488,408.3623v-5.67578h1.34277v.96777c.15332-.33008.34766-.58496.58203-.76465s.55469-.26953.95703-.26953h.60547v1.41895h-.55078c-.21875,0-.43555.04395-.64844.13184-.21289.08887-.39062.24023-.5332.45703-.14258.21582-.21484.51562-.21484.89648v2.83789h-1.54004Z"/>
          <path class="cls-6" d="m978.29492,408.3623v-5.67578h1.3418v.7041c.19141-.27148.43555-.48242.73242-.63281s.62793-.22559.99512-.22559h.11035c.64453,0,1.15625.2002,1.53418.59961s.56641.96973.56641,1.71094v3.51953h-1.54004v-3.31055c0-.38184-.0791-.67676-.23633-.88574-.1582-.20898-.40625-.31348-.74219-.31348h-.08789c-.18359,0-.36133.04785-.53418.14258-.17285.0957-.31543.24219-.42871.44043-.11426.19824-.1709.45801-.1709.78027v3.14648h-1.54004Z"/>
          <path class="cls-6" d="m987.41406,408.5166c-.52734,0-1.00098-.11035-1.41895-.33008-.41797-.2207-.74805-.54102-.99023-.96289-.24121-.42188-.3623-.93262-.3623-1.53418v-.33008c0-.6084.12109-1.12207.3623-1.54004.24219-.41797.57227-.7373.99023-.95703s.8916-.33008,1.41895-.33008h.07715c.52832,0,1.00098.11035,1.41895.33008s.74805.53906.99023.95703.36328.93164.36328,1.54004v.33008c0,.60156-.12109,1.1123-.36328,1.53418s-.57227.74219-.99023.96289c-.41797.21973-.89062.33008-1.41895.33008h-.07715Zm0-1.32031h.07715c.3584,0,.6543-.11719.88574-.35156.23047-.23535.3457-.60938.3457-1.12207v-.39648c0-.5127-.11523-.88672-.3457-1.12207-.23145-.23438-.52734-.35156-.88574-.35156h-.07715c-.35938,0-.6543.11719-.88477.35156-.23145.23535-.34766.60938-.34766,1.12207v.39648c0,.5127.11621.88672.34766,1.12207.23047.23438.52539.35156.88477.35156Z"/>
          <path class="cls-6" d="m994.53125,408.5166c-.80664,0-1.4043-.28613-1.79297-.8584v.7041h-1.3418v-8.03027h1.53906v2.88184c.38184-.4541.91406-.68164,1.5957-.68164h.07617c.46289,0,.87109.1084,1.22656.32422.35645.2168.63477.53613.83594.95703.20215.42188.30273.9375.30273,1.5459v.33008c0,.6084-.10059,1.12402-.30273,1.54492-.20117.42188-.47949.74121-.83594.95703-.35547.2168-.76367.3252-1.22656.3252h-.07617Zm-.41797-1.32031h.08789c.35156,0,.64453-.11914.87988-.35742s.35254-.61426.35254-1.12793v-.3623c0-.52832-.11719-.90918-.35254-1.14453-.23535-.23438-.52832-.35156-.87988-.35156h-.08789c-.18359,0-.36914.04883-.55566.14844-.18652.09863-.34082.25684-.46191.47266-.12109.2168-.18164.50781-.18164.875v.35156c0,.35938.06055.64941.18164.86914s.27539.37988.46191.47852.37207.14844.55566.14844Z"/>
          <path class="cls-6" d="m997.83105,410.5625v-1.29785h.39551c.32324,0,.5625-.05176.7207-.1543s.28418-.30469.37988-.60547l.04395-.15332-2.18945-5.66504h1.66211l1.31934,4.00391,1.17676-4.00391h1.55078l-2.00195,5.75293c-.1543.44727-.30957.81055-.4668,1.08887-.1582.27832-.33398.49316-.52832.64355s-.42188.25293-.68262.30762c-.25977.05566-.57324.08301-.93945.08301h-.44043Z"/>
          <path class="cls-6" d="m1003.72656,408.3623v-8.03027h1.54004v8.03027h-1.54004Z"/>
          <path class="cls-2" d="m937.94141,434.7627v-7.7002h3.06836c.77734,0,1.43164.15039,1.96387.45117s.93457.72266,1.20996,1.26465c.27539.54297.41211,1.18164.41211,1.91406v.42969c0,1.12891-.30762,2.01855-.92383,2.66699-.61523.64941-1.50293.97363-2.66211.97363h-3.06836Zm1.60547-1.38574h1.41992c.65234,0,1.15234-.18164,1.50098-.54492s.52246-.92188.52246-1.67773v-.49414c0-.72656-.17383-1.27637-.52246-1.65039s-.84863-.56152-1.50098-.56152h-1.41992v4.92871Z"/>
          <path class="cls-2" d="m946.08203,434.7627v-7.7002h1.60547v6.31445h3.35547v1.38574h-4.96094Z"/>
          <path class="cls-2" d="m954.92578,434.91699c-1.60645,0-2.62891-.56836-3.06934-1.70508l1.35254-.69336c.25684.68262.8291,1.02344,1.7168,1.02344h.14258c.93164,0,1.39648-.30078,1.39648-.90234v-.11035c0-.23438-.08008-.43555-.24219-.60449-.16016-.16895-.3916-.27148-.69238-.30859l-1.19824-.14258c-.73438-.08789-1.29102-.31738-1.67285-.6875s-.57129-.87402-.57129-1.5127v-.13184c0-.4541.11719-.84863.35156-1.18262.23438-.33301.56641-.5918.99609-.77539.42773-.18359.93262-.27441,1.51172-.27441h.16504c.7041,0,1.29785.14062,1.78223.42285s.83203.69141,1.04492,1.22656l-1.4082.59375c-.19727-.5791-.6748-.86816-1.42969-.86816h-.14258c-.39648,0-.70703.07617-.92969.23047-.22461.1543-.33594.35938-.33594.61621v.10938c0,.44824.30859.71191.92383.79199l1.19922.14355c.74805.08789,1.31055.33398,1.68848.7373s.56641.92773.56641,1.57227v.13281c0,.7334-.25684,1.2998-.77051,1.69922-.5127.39941-1.25.59961-2.21094.59961h-.16406Z"/>
          <path class="cls-2" d="m961.87695,434.91699c-1.60547,0-2.62891-.56836-3.06836-1.70508l1.35254-.69336c.25684.68262.8291,1.02344,1.71582,1.02344h.14258c.93164,0,1.39746-.30078,1.39746-.90234v-.11035c0-.23438-.08105-.43555-.24219-.60449s-.3916-.27148-.69238-.30859l-1.19922-.14258c-.7334-.08789-1.29102-.31738-1.67188-.6875-.38184-.37012-.57227-.87402-.57227-1.5127v-.13184c0-.4541.11719-.84863.35156-1.18262.23438-.33301.56641-.5918.99609-.77539.42871-.18359.93359-.27441,1.51172-.27441h.16602c.70312,0,1.29688.14062,1.78125.42285s.83203.69141,1.04492,1.22656l-1.4082.59375c-.19727-.5791-.67383-.86816-1.42969-.86816h-.14258c-.39648,0-.70605.07617-.92969.23047s-.33594.35938-.33594.61621v.10938c0,.44824.30859.71191.92383.79199l1.19922.14355c.74805.08789,1.31055.33398,1.68945.7373.37695.40332.56641.92773.56641,1.57227v.13281c0,.7334-.25781,1.2998-.77051,1.69922s-1.25098.59961-2.21094.59961h-.16504Z"/>
          <path class="cls-2" d="m972.05176,434.7627v-1.39746h-3.65137v-1.1875l3.64062-4.9834h1.45117v4.88477h.99023l-.18652,1.28613h-.80371v1.39746h-1.44043Zm0-2.68359v-2.9043l-2.12305,2.9043h2.12305Z"/>
        </g>
        <g>
          <path class="cls-6" d="m1061.14062,395.16309v-7.7002h2.91602c.89453,0,1.60352.20898,2.12793.62695s.78613.99805.78613,1.73828v.20898c0,.52051-.12598.96094-.37891,1.32031-.25391.35938-.60742.63086-1.0625.81348l1.68359,2.99219h-1.74902l-1.51855-2.75h-1.19824v2.75h-1.60645Zm1.60645-4.13574h1.26465c.38867,0,.71094-.07324.96875-.2207.25586-.14648.38477-.3916.38477-.73633v-.27539c0-.33008-.12891-.57031-.38477-.7207-.25781-.14941-.58008-.22559-.96875-.22559h-1.26465v2.17871Z"/>
          <path class="cls-6" d="m1070.44727,395.31738c-.86523,0-1.53711-.24609-2.01367-.7373s-.71484-1.18457-.71484-2.0791v-.33008c0-.89453.24219-1.59082.72656-2.08984s1.15137-.74805,2.00195-.74805h.08789c.80664,0,1.43555.24414,1.88672.73145.45117.48828.67578,1.16016.67578,2.01855v.69336h-3.86035c.05176.87207.4541,1.30859,1.20996,1.30859h.1543c.5791,0,.98633-.19434,1.2207-.58301l1.11133.7373c-.20508.33691-.51172.60156-.91895.79199s-.87402.28613-1.40234.28613h-.16504Zm-1.19922-3.5752h2.35352v-.0332c0-.7627-.35547-1.14355-1.06641-1.14355h-.08789c-.7041,0-1.10352.3916-1.19922,1.17676Z"/>
          <path class="cls-6" d="m1076.29883,395.31738c-1.32031,0-2.15234-.43262-2.49609-1.29785l1.19824-.60547c.10254.21973.25684.38379.46191.48926.20508.10645.48828.16016.84766.16016h.14258c.63086,0,.94531-.16504.94531-.49512v-.04395c0-.2793-.18262-.44434-.54883-.49512l-1.14453-.1543c-.55664-.08008-.98438-.26172-1.28125-.54395s-.44531-.66211-.44531-1.13867v-.11035c0-.54297.20703-.96973.62109-1.28125s.9668-.46777,1.65625-.46777h.16406c.57227,0,1.05664.1123,1.45215.33594s.68262.54102.8584.95117l-1.2207.53906c-.17676-.38086-.54297-.57227-1.10059-.57227h-.14355c-.53516,0-.80273.1582-.80273.47363v.04395c0,.11719.04102.21094.12109.28027s.21289.11914.39648.14844l1.1875.16504c.55078.07324.97363.26562,1.27051.57715.29785.31152.44629.70605.44629,1.18262v.11035c0,.5791-.20605,1.01562-.61719,1.30859-.41016.29297-1.01172.44043-1.80273.44043h-.16602Z"/>
          <path class="cls-6" d="m1079.87402,388.68457v-1.54004h1.58398v1.54004h-1.58398Zm.02246,6.47852v-5.67578h1.53906v5.67578h-1.53906Z"/>
          <path class="cls-6" d="m1084.93359,395.31738c-.45508,0-.86133-.1084-1.2207-.3252-.35938-.21582-.64062-.53711-.8418-.96191-.20117-.42578-.30273-.94238-.30273-1.55078v-.33008c0-.60938.10156-1.12207.30273-1.54004s.48242-.73535.8418-.95215c.35938-.21582.76562-.32422,1.2207-.32422h.07715c.68262,0,1.21387.22754,1.59473.68164v-2.88184h1.54102v8.03027h-1.34277v-.7041c-.38867.57227-.98633.8584-1.79297.8584h-.07715Zm.40723-1.32031h.08789c.19824,0,.38867-.0498.57227-.14844.18262-.09863.33301-.25879.4502-.47852.11816-.21973.17676-.50977.17676-.86914v-.35156c0-.35938-.06055-.64941-.18164-.86914s-.27246-.37988-.45605-.47852c-.18359-.09961-.37109-.14844-.56152-.14844h-.08789c-.35254,0-.64551.11719-.87988.35156-.23438.23535-.35156.6123-.35156,1.13281v.36328c0,.52051.11719.90039.35156,1.13867s.52734.35742.87988.35742Z"/>
          <path class="cls-6" d="m1092.00684,395.31738c-.86523,0-1.53613-.24609-2.0127-.7373s-.71484-1.18457-.71484-2.0791v-.33008c0-.89453.24219-1.59082.72559-2.08984s1.15137-.74805,2.00195-.74805h.08789c.80664,0,1.43555.24414,1.88672.73145.4502.48828.67676,1.16016.67676,2.01855v.69336h-3.86133c.05078.87207.45508,1.30859,1.20996,1.30859h.15332c.58008,0,.98633-.19434,1.22168-.58301l1.11035.7373c-.20508.33691-.51074.60156-.91797.79199-.40625.19043-.875.28613-1.40234.28613h-.16504Zm-1.19922-3.5752h2.35449v-.0332c0-.7627-.35547-1.14355-1.06738-1.14355h-.08789c-.7041,0-1.10449.3916-1.19922,1.17676Z"/>
          <path class="cls-6" d="m1095.74609,395.16309v-5.67578h1.34277v.7041c.19043-.27148.43457-.48242.73145-.63281s.62891-.22559.99609-.22559h.10938c.64453,0,1.15625.2002,1.53516.59961.37695.39941.56641.96973.56641,1.71094v3.51953h-1.54102v-3.31055c0-.38184-.07812-.67676-.23633-.88574s-.40527-.31348-.74219-.31348h-.08789c-.18359,0-.36133.04785-.5332.14258-.17285.0957-.31641.24219-.42969.44043s-.16992.45801-.16992.78027v3.14648h-1.54102Z"/>
          <path class="cls-6" d="m1105.11914,395.22949c-.78516,0-1.34082-.16895-1.66699-.50684-.32617-.33691-.48926-.83887-.48926-1.50684v-2.44141h-1.1875v-1.28711h1.1875v-1.61719h1.54004v1.61719h1.74902l-.1875,1.28711h-1.56152v2.38672c0,.27148.06738.46777.20312.58887.13574.12012.32129.18066.55566.18066h.99023v1.29883h-1.13281Z"/>
          <path class="cls-6" d="m1110.26758,395.16309v-7.7002h5.11426v1.36426h-3.50879v1.77051h2.84961l-.1875,1.36426h-2.66211v1.83691h3.5752v1.36426h-5.18066Z"/>
          <path class="cls-6" d="m1117.97852,395.16309l-2.13477-5.67578h1.62891l1.2207,3.79492,1.25391-3.79492h1.5293l-2.13477,5.67578h-1.36328Z"/>
          <path class="cls-6" d="m1122.29004,388.68457v-1.54004h1.58398v1.54004h-1.58398Zm.02246,6.47852v-5.67578h1.53906v5.67578h-1.53906Z"/>
          <path class="cls-6" d="m1125.28125,395.16309v-8.03027h1.54102v8.03027h-1.54102Z"/>
          <path class="cls-6" d="m1134.24609,395.16309v-1.39746h-3.65137v-1.1875l3.6416-4.9834h1.45117v4.88477h.99023l-.1875,1.28613h-.80273v1.39746h-1.44141Zm0-2.68359v-2.9043l-2.12305,2.9043h2.12305Z"/>
          <path class="cls-2" d="m1092.60059,434.7627v-7.7002h2.91504c.89453,0,1.60352.20898,2.12891.62695.52344.41797.78613.99805.78613,1.73828v.20898c0,.52051-.12598.96094-.37988,1.32031-.25293.35938-.60645.63086-1.06152.81348l1.68262,2.99219h-1.74805l-1.51855-2.75h-1.19824v2.75h-1.60645Zm1.60645-4.13574h1.26465c.38867,0,.71094-.07324.96777-.2207.25684-.14648.38477-.3916.38477-.73633v-.27539c0-.33008-.12793-.57031-.38477-.7207-.25684-.14941-.5791-.22559-.96777-.22559h-1.26465v2.17871Z"/>
          <path class="cls-2" d="m1101.3457,434.7627v-6.31445h-2.31055v-1.38574h6.22656v1.38574h-2.31055v6.31445h-1.60547Z"/>
        </g>
      </g>
      <line id="X-AXIS" class="cls-1" x1="24.90208" y1="370.57606" x2="1173.94957" y2="370.57606"/>
      <g id="Y-AXIS">
        <path class="cls-6" d="m14.19336,375.5127c-1.25977,0-2.2168-.38477-2.87012-1.15527-.65332-.76953-.97949-1.87305-.97949-3.31055v-1.03613c0-1.44629.32617-2.55273.97949-3.31836.65332-.76465,1.61035-1.14746,2.87012-1.14746h.12598c1.25977,0,2.2168.38281,2.87012,1.14746.65234.76562.98047,1.87207.98047,3.31836v1.03613c0,1.4375-.32812,2.54102-.98047,3.31055-.65332.77051-1.61035,1.15527-2.87012,1.15527h-.12598Zm0-1.75h.12598c1.23145,0,1.84863-.91504,1.84863-2.74414v-.97949c0-1.8291-.61719-2.74414-1.84863-2.74414h-.12598c-1.23242,0-1.84766.91504-1.84766,2.74414v.97949c0,1.8291.61523,2.74414,1.84766,2.74414Z"/>
        <g>
          <path class="cls-6" d="m4.09961,310.14648v-7.91016h-1.67969l.2373-1.72168h3.44434v9.63184h-2.00195Z"/>
          <path class="cls-6" d="m15.87305,310.14648l-2.22559-3.40234-2.22559,3.40234h-2.36719l3.375-4.96973-3.26172-4.83008h2.42188l2.11328,3.2334,2.11426-3.2334h2.36621l-3.26172,4.83008,3.37305,4.96973h-2.42188Z"/>
        </g>
        <g>
          <path class="cls-6" d="m1.3418,245.13867v-1.4834c0-.67188.16309-1.2793.49023-1.82031.32617-.54102.78809-.9707,1.38477-1.28809l1.63867-.88184c.74609-.39258,1.12012-.87305,1.12012-1.44238v-.13965c0-.29883-.12207-.5459-.36426-.74219s-.55078-.29395-.92383-.29395h-.07031c-.43848,0-.78613.08398-1.04297.25195-.25586.16797-.44531.43457-.56641.79785l-1.67969-.74219c.45703-1.34375,1.55859-2.01562,3.30273-2.01562h.1543c.9707,0,1.74023.24316,2.31055.72852.56836.48535.85352,1.13867.85352,1.95996v.22363c0,.63477-.16016,1.17383-.48242,1.61719s-.87109.875-1.64551,1.29492l-1.44238.78418c-.55957.30762-.8584.7832-.89551,1.42773h4.49414v1.76367H1.3418Z"/>
          <path class="cls-6" d="m15.87305,245.13867l-2.22559-3.40137-2.22559,3.40137h-2.36719l3.375-4.96973-3.26172-4.83008h2.42188l2.11328,3.23438,2.11426-3.23438h2.36621l-3.26172,4.83008,3.37305,4.96973h-2.42188Z"/>
        </g>
        <g>
          <path class="cls-6" d="m4.46289,180.375c-1.79102,0-2.92969-.58789-3.41602-1.76367l1.63867-.72852c.22461.52344.78906.78418,1.69336.78418h.09863c.5127,0,.91504-.11133,1.2041-.33594.28906-.22363.43359-.52734.43359-.91016v-.15332c0-.38281-.14941-.68164-.44727-.89648-.29883-.21484-.71484-.32227-1.24609-.32227h-1.30273v-1.65137h1.40039c.90527,0,1.35742-.36426,1.35742-1.0918v-.14062c0-.32617-.125-.58301-.37695-.76953s-.60254-.28027-1.05078-.28027h-.07031c-.83984,0-1.36719.28027-1.58203.83984l-1.63672-.75586c.48438-1.19434,1.61328-1.79199,3.38672-1.79199h.1543c.625,0,1.17383.1123,1.64551.33594s.83984.53711,1.10645.93848c.26562.40137.39844.87207.39844,1.41406v.18164c0,.37305-.08203.7207-.24512,1.04297s-.40332.59961-.72168.83301c.8125.49512,1.21875,1.19043,1.21875,2.08594v.19629c0,.92383-.30273,1.64453-.91016,2.16309-.60742.51758-1.45605.77637-2.54785.77637h-.18262Z"/>
          <path class="cls-6" d="m15.87305,180.20703l-2.22559-3.40137-2.22559,3.40137h-2.36719l3.375-4.96973-3.26172-4.83008h2.42188l2.11328,3.23438,2.11426-3.23438h2.36621l-3.26172,4.83008,3.37305,4.96973h-2.42188Z"/>
        </g>
        <g>
          <path class="cls-6" d="m5.54102,114.83789v-1.77734H.89355v-1.5127l4.63379-6.3418h1.84766v6.21582h1.25977l-.2373,1.63867h-1.02246v1.77734h-1.83398Zm0-3.41602v-3.69531l-2.70117,3.69531h2.70117Z"/>
          <path class="cls-6" d="m15.87305,114.83789l-2.22559-3.40137-2.22559,3.40137h-2.36719l3.375-4.96973-3.26172-4.83008h2.42188l2.11328,3.23438,2.11426-3.23438h2.36621l-3.26172,4.83008,3.37305,4.96973h-2.42188Z"/>
        </g>
        <g>
          <path class="cls-6" d="m4.10156,49.58301c-1.7832,0-2.92188-.62109-3.41602-1.8623l1.63867-.72754c.24219.58789.79688.88184,1.66602.88184h.09766c.4668,0,.85156-.12598,1.1543-.37793.30371-.25195.45508-.56934.45508-.95215v-.16797c0-.43848-.1582-.7959-.47559-1.07129s-.72754-.41309-1.23145-.41309h-.12695c-.57812,0-1.15723.20605-1.73633.61621l-1.20312-.53223.23828-5.19336h5.97754v1.76367H2.81348l-.09863,2.1416c.21484-.13965.47461-.25195.77734-.33594.30371-.08398.62305-.12598.95898-.12598h.1543c.59766,0,1.12695.13281,1.58887.39941.46191.26562.82324.62988,1.08496,1.0918s.39258.99219.39258,1.58887v.23828c0,.60645-.14258,1.13867-.42773,1.5957-.28516.45801-.68164.8125-1.18945,1.06445-.50879.25195-1.09961.37793-1.77148.37793h-.18164Z"/>
          <path class="cls-6" d="m15.37109,49.41504l-2.22559-3.40234-2.22559,3.40234h-2.36719l3.375-4.9707-3.26172-4.8291h2.42188l2.11328,3.2334,2.11426-3.2334h2.36621l-3.26172,4.8291,3.37305,4.9707h-2.42188Z"/>
        </g>
      </g>
      <g>
        <polygon class="cls-2" points="128.21823 41.55332 153.90367 31.55332 153.90367 370.03488 128.21823 370.03488 128.21823 41.55332"/>
        <polygon class="cls-2" points="270.91513 41.89408 296.60057 31.56746 296.60057 370.03488 270.91513 370.03488 270.91513 41.89408"/>
        <rect class="cls-2" x="413.61202" y="96.2119" width="25.68544" height="273.82297"/>
        <rect class="cls-2" x="556.30892" y="44.05515" width="25.68544" height="325.97973"/>
        <rect class="cls-2" x="699.00581" y="96.2119" width="25.68544" height="273.82297"/>
        <rect class="cls-2" x="841.70271" y="174.44704" width="25.68544" height="195.58784"/>
        <rect class="cls-2" x="984.39961" y="141.84907" width="25.68544" height="228.18581"/>
        <rect class="cls-2" x="1127.0965" y="285.28015" width="25.68544" height="84.75473"/>
      </g>
      <g>
        <rect class="cls-5" x="99.67885" y="187.48623" width="25.68544" height="182.54865"/>
        <rect class="cls-5" x="242.37575" y="200.52542" width="25.68544" height="169.50946"/>
        <rect class="cls-5" x="385.07264" y="239.64299" width="25.68544" height="130.39189"/>
        <rect class="cls-5" x="527.76954" y="207.04501" width="25.68544" height="162.98987"/>
        <rect class="cls-5" x="670.46644" y="246.16258" width="25.68544" height="123.8723"/>
        <rect class="cls-5" x="813.16333" y="265.72136" width="25.68544" height="104.31351"/>
        <rect class="cls-5" x="955.86023" y="259.20177" width="25.68544" height="110.83311"/>
        <rect class="cls-5" x="1098.55712" y="298.31934" width="25.68544" height="71.71554"/>
      </g>
      <g>
        <rect class="cls-3" x="71.13947" y="304.83893" width="25.68544" height="65.19595"/>
        <rect class="cls-3" x="213.83637" y="304.83893" width="25.68544" height="65.19595"/>
        <rect class="cls-3" x="356.53327" y="304.83893" width="25.68544" height="65.19595"/>
        <rect class="cls-3" x="499.23016" y="304.83893" width="25.68544" height="65.19595"/>
        <rect class="cls-3" x="641.92706" y="304.83893" width="25.68544" height="65.19595"/>
        <rect class="cls-3" x="784.62395" y="304.83893" width="25.68544" height="65.19595"/>
        <rect class="cls-3" x="927.32085" y="304.83893" width="25.68544" height="65.19595"/>
        <rect class="cls-3" x="1070.01774" y="304.83893" width="25.68544" height="65.19595"/>
      </g>
      <g>
        <rect class="cls-4" x="42.6001" y="332.87319" width="25.68544" height="37.16169"/>
        <rect class="cls-4" x="185.29699" y="330.26535" width="25.68544" height="39.76953"/>
        <rect class="cls-4" x="327.99389" y="336.78495" width="25.68544" height="33.24993"/>
        <rect class="cls-4" x="470.69078" y="331.56927" width="25.68544" height="38.46561"/>
        <rect class="cls-4" x="613.38768" y="323.74576" width="25.68544" height="46.28912"/>
        <rect class="cls-4" x="756.08457" y="321.78988" width="25.68544" height="48.245"/>
        <rect class="cls-4" x="898.78147" y="323.0938" width="25.68544" height="46.94108"/>
        <rect class="cls-4" x="1041.47836" y="325.70164" width="25.68544" height="44.33324"/>
      </g>
      <polygon class="cls-2" points="128.21823 16.87995 153.90367 16.87995 153.90367 26.55332 128.21823 36.87995 128.21823 16.87995"/>
      <polygon class="cls-2" points="270.91513 16.89408 296.60057 16.89408 296.60057 26.56746 270.91513 36.89408 270.91513 16.89408"/>
    </g>
  </g>
</svg>