<?xml version="1.0" encoding="UTF-8"?>
<svg id="Layer_2" data-name="Layer 2" xmlns="http://www.w3.org/2000/svg" viewBox="0 0 1173.44856 465.40337">
  <defs>
    <style>
      .cls-1 {
        fill: none;
        stroke: #999;
        stroke-miterlimit: 10;
      }

      .cls-2 {
        fill: #76b900;
      }

      .cls-3 {
        fill: #4b4b4b;
      }

      .cls-4 {
        fill: #898989;
      }

      .cls-5 {
        fill: #ccc;
      }

      .cls-6 {
        fill: #eee;
      }
    </style>
  </defs>
  <g id="WEB_EXPORTS" data-name="WEB EXPORTS">
    <g id="_5060" data-name="5060">
      <g id="GAMES">
        <g>
          <path class="cls-6" d="m185.64941,394.43359v-7.7002h3.13477c.84277,0,1.50879.19238,1.99707.57812.4873.38477.73047.90332.73047,1.55566v.1875c0,.29297-.07422.55566-.22461.78613-.15039.23145-.36133.42383-.63281.57812.38086.15332.6748.37012.87988.64844.20605.2793.30762.6123.30762,1.00098v.1875c0,.68164-.24023,1.21484-.71973,1.60059-.48047.38477-1.14941.57715-2.00781.57715h-3.46484Zm1.60645-4.56543h1.48438c.77734,0,1.16602-.26367,1.16602-.79199v-.18652c0-.24902-.10059-.44336-.30273-.58301-.20117-.13965-.48926-.20898-.86328-.20898h-1.48438v1.77051Zm0,3.20117h1.81445c.77734,0,1.16602-.27051,1.16602-.81348v-.20898c0-.26465-.10156-.46973-.30273-.61621s-.48926-.21973-.86328-.21973h-1.81445v1.8584Z"/>
          <path class="cls-6" d="m192.89844,394.43359v-8.03027h1.53906v8.03027h-1.53906Z"/>
          <path class="cls-6" d="m197.50684,394.58789c-.6084,0-1.08008-.15039-1.41309-.45117-.33398-.30078-.50098-.72266-.50098-1.26465,0-.49902.15234-.89844.45605-1.19922.30469-.30078.74609-.48828,1.32617-.56152l1.78125-.23047v-.04395c0-.66797-.30371-1.00098-.91211-1.00098h-.11035c-.27148,0-.49902.04883-.68262.14844-.18262.09863-.33691.27344-.46094.52246l-1.17773-.61621c.16895-.38867.45312-.7002.85352-.93457.39844-.23535.88477-.35254,1.45703-.35254h.16406c1.60742,0,2.41016.75195,2.41016,2.25488v3.5752h-1.3418v-.71484c-.17676.27148-.41992.4834-.73242.6377-.31152.1543-.66504.23145-1.06055.23145h-.05566Zm1.64941-2.67285l-1.17578.16504c-.33789.05078-.57227.12207-.70508.21387-.13086.0918-.19727.24023-.19727.44531,0,.19824.07422.35449.22461.46777.15039.11426.35059.1709.59961.1709h.08789c.36719,0,.65332-.10645.8584-.31934.20605-.21289.30762-.50195.30762-.86914v-.27441Z"/>
          <path class="cls-6" d="m204.54688,394.58789c-.85156,0-1.52734-.24219-2.0293-.72656-.50293-.4834-.75391-1.18359-.75391-2.10059v-.33008c0-.60156.11523-1.1123.34668-1.53418s.55566-.74316.97363-.96289.90527-.33008,1.46289-.33008h.08789c.5498,0,1.01367.13184,1.3916.39648.37793.26367.64746.6123.80762,1.04492l-1.24219.52734c-.08789-.19043-.21094-.3457-.36914-.4668-.15723-.12109-.35352-.18164-.58789-.18164h-.07715c-.37402,0-.67676.11914-.90723.35742s-.34668.61035-.34668,1.11621v.39648c0,.52051.1123.89648.33496,1.12695.22461.23145.53027.34668.91895.34668h.07715c.25586,0,.46875-.05469.6377-.16504s.30078-.25977.39648-.45117l1.19824.62695c-.16016.37402-.43555.68652-.82422.93555s-.8584.37402-1.4082.37402h-.08789Z"/>
          <path class="cls-6" d="m207.89062,394.43359v-8.03027h1.54004v4.36719l2.0459-2.0127h1.89258l-2.24414,2.14453,2.4082,3.53125h-1.84766l-1.66016-2.55176-.59473.57129v1.98047h-1.54004Z"/>
          <path class="cls-6" d="m217.27344,394.43359v-7.7002h2.00195l2.20117,5.57715,2.19922-5.57715h1.94727v7.7002h-1.5293v-5.19238l-2.06836,5.19238h-1.1543l-2.06836-5.19238v5.19238h-1.5293Z"/>
          <path class="cls-6" d="m227.30566,396.63379v-1.29785h.39551c.32324,0,.5625-.05176.7207-.1543s.28418-.30469.37988-.60547l.04395-.15332-2.18945-5.66504h1.66211l1.31934,4.00391,1.17676-4.00391h1.55078l-2.00195,5.75293c-.1543.44727-.30957.81055-.4668,1.08887-.1582.27832-.33398.49316-.52832.64355s-.42188.25293-.68262.30762c-.25977.05566-.57324.08301-.93945.08301h-.44043Z"/>
          <path class="cls-6" d="m236.14844,394.5c-.78418,0-1.33984-.16895-1.66602-.50684-.32617-.33691-.48926-.83887-.48926-1.50684v-2.44141h-1.18848v-1.28711h1.18848v-1.61719h1.54004v1.61719h1.74902l-.18652,1.28711h-1.5625v2.38672c0,.27148.06738.46777.20312.58887.13574.12012.32031.18066.55566.18066h.99023v1.29883h-1.13379Z"/>
          <path class="cls-6" d="m238.78906,394.43359v-8.03027h1.53906v2.87109c.38867-.44727.89844-.6709,1.5293-.6709h.11035c.64551,0,1.15723.2002,1.53418.59961.37793.39941.56641.96973.56641,1.71094v3.51953h-1.53906v-3.31055c0-.38184-.08008-.67676-.2373-.88574s-.40527-.31348-.74219-.31348h-.08789c-.18359,0-.36133.04785-.53418.14258-.17188.0957-.31445.24219-.42871.44043s-.1709.45801-.1709.78027v3.14648h-1.53906Z"/>
          <path class="cls-6" d="m245.3125,390.35254v-1.67188h1.61621v1.67188h-1.61621Zm0,4.08105v-1.67188h1.61621v1.67188h-1.61621Z"/>
          <path class="cls-6" d="m250.49219,386.7334h1.73828l1.41895,5.37891,1.39746-5.37891h1.47363l1.39746,5.37891,1.41797-5.37891h1.65039l-2.36523,7.7002h-1.50684l-1.375-5.16992-1.375,5.16992h-1.50684l-2.36523-7.7002Z"/>
          <path class="cls-6" d="m263.45117,394.58789c-.62402,0-1.11914-.2002-1.48535-.59961-.36719-.39941-.5498-.96973-.5498-1.71094v-3.51953h1.53906v3.31055c0,.38184.07422.67676.2207.88574s.37695.31348.69336.31348h.08789c.17578,0,.34375-.04785.50586-.14258.16113-.0957.29492-.24414.40137-.44629.10645-.20117.15918-.45996.15918-.77539v-3.14551h1.54004v5.67578h-1.3418v-.7041c-.18359.2793-.41797.49121-.7041.6377-.28613.14746-.60547.2207-.95703.2207h-.10938Z"/>
          <path class="cls-6" d="m267.99316,394.43359v-8.03027h1.54004v4.36719l2.0459-2.0127h1.8916l-2.24316,2.14453,2.40918,3.53125h-1.84863l-1.66113-2.55176-.59375.57129v1.98047h-1.54004Z"/>
          <path class="cls-6" d="m276.68359,394.58789c-.52734,0-1.00098-.11035-1.41895-.33008-.41797-.2207-.74805-.54102-.99023-.96289-.24121-.42188-.3623-.93262-.3623-1.53418v-.33008c0-.6084.12109-1.12207.3623-1.54004.24219-.41797.57227-.7373.99023-.95703s.8916-.33008,1.41895-.33008h.07715c.52832,0,1.00098.11035,1.41895.33008s.74805.53906.99023.95703.36328.93164.36328,1.54004v.33008c0,.60156-.12109,1.1123-.36328,1.53418s-.57227.74219-.99023.96289c-.41797.21973-.89062.33008-1.41895.33008h-.07715Zm0-1.32031h.07715c.3584,0,.6543-.11719.88574-.35156.23047-.23535.3457-.60938.3457-1.12207v-.39648c0-.5127-.11523-.88672-.3457-1.12207-.23145-.23438-.52734-.35156-.88574-.35156h-.07715c-.35938,0-.6543.11719-.88477.35156-.23145.23535-.34766.60938-.34766,1.12207v.39648c0,.5127.11621.88672.34766,1.12207.23047.23438.52539.35156.88477.35156Z"/>
          <path class="cls-6" d="m280.66602,394.43359v-5.67578h1.3418v.7041c.19043-.27148.43457-.48242.73145-.63281s.62793-.22559.99512-.22559h.11035c.64551,0,1.15723.2002,1.53418.59961.37793.39941.56641.96973.56641,1.71094v3.51953h-1.53906v-3.31055c0-.38184-.08008-.67676-.2373-.88574s-.40527-.31348-.74219-.31348h-.08789c-.18359,0-.36133.04785-.53418.14258-.17188.0957-.31445.24219-.42871.44043s-.1709.45801-.1709.78027v3.14648h-1.53906Z"/>
          <path class="cls-6" d="m289.61914,396.78711c-.55664,0-1.02051-.08789-1.39062-.26367-.37109-.17578-.66211-.43945-.875-.79199l1.07812-.8252c.14648.2207.31348.37598.5.46777.1875.0918.43848.1377.75391.1377h.13281c.82031,0,1.23145-.48438,1.23145-1.45215v-.35156c-.38184.4541-.90918.68164-1.58398.68164h-.08789c-.46973,0-.88184-.11523-1.2373-.34668-.35547-.23047-.63281-.55371-.83105-.96777s-.29688-.89648-.29688-1.44629v-.26465c0-.5498.09863-1.03223.29688-1.44629s.47559-.7373.83105-.96777c.35547-.23145.76758-.34668,1.2373-.34668h.08789c.80664,0,1.40039.28613,1.78223.8584v-.69336h1.3418v5.23633c0,.89453-.23438,1.58203-.7041,2.0625-.46973.47949-1.14062.71973-2.0127.71973h-.25391Zm.1543-3.71777h.09961c.35156,0,.63867-.13184.86328-.39551.22363-.26465.33594-.6084.33594-1.03418v-.28613c0-.4248-.1123-.76953-.33594-1.03418-.22461-.26367-.51172-.39551-.86328-.39551h-.09961c-.38086,0-.67969.12598-.89648.37891s-.32422.60352-.32422,1.05078v.27539c0,.44727.10742.79883.32422,1.05566s.51562.38477.89648.38477Z"/>
          <path class="cls-2" d="m197.61719,434.0332v-7.7002h3.06836c.77734,0,1.43164.15039,1.96387.45117s.93457.72266,1.20996,1.26465c.27539.54297.41211,1.18164.41211,1.91406v.42969c0,1.12891-.30762,2.01855-.92383,2.66699-.61523.64941-1.50293.97363-2.66211.97363h-3.06836Zm1.60547-1.38574h1.41992c.65234,0,1.15234-.18164,1.50098-.54492s.52246-.92188.52246-1.67773v-.49414c0-.72656-.17383-1.27637-.52246-1.65039s-.84863-.56152-1.50098-.56152h-1.41992v4.92871Z"/>
          <path class="cls-2" d="m205.75684,434.0332v-7.7002h1.60645v6.31445h3.35449v1.38574h-4.96094Z"/>
          <path class="cls-2" d="m214.60059,434.1875c-1.60645,0-2.62891-.56836-3.06934-1.70508l1.35352-.69336c.25586.68262.82812,1.02344,1.71582,1.02344h.14355c.93066,0,1.39648-.30078,1.39648-.90234v-.11035c0-.23438-.08008-.43555-.24219-.60449-.16113-.16895-.39258-.27148-.69336-.30859l-1.19824-.14258c-.7334-.08789-1.29102-.31738-1.67285-.6875-.38086-.37012-.57129-.87402-.57129-1.5127v-.13184c0-.4541.11719-.84863.35254-1.18262.23438-.33301.56641-.5918.99512-.77539s.93262-.27441,1.5127-.27441h.16406c.70508,0,1.29883.14062,1.7832.42285.4834.28223.83203.69141,1.04492,1.22656l-1.4082.59375c-.19824-.5791-.67578-.86816-1.42969-.86816h-.14355c-.39551,0-.70605.07617-.92969.23047s-.33496.35938-.33496.61621v.10938c0,.44824.30762.71191.92383.79199l1.19922.14355c.74805.08789,1.31055.33398,1.6875.7373.37793.40332.56641.92773.56641,1.57227v.13281c0,.7334-.25586,1.2998-.76953,1.69922s-1.25.59961-2.21094.59961h-.16504Z"/>
          <path class="cls-2" d="m221.55273,434.1875c-1.60645,0-2.62891-.56836-3.06934-1.70508l1.35254-.69336c.25684.68262.8291,1.02344,1.7168,1.02344h.14258c.93164,0,1.39648-.30078,1.39648-.90234v-.11035c0-.23438-.08008-.43555-.24219-.60449-.16016-.16895-.3916-.27148-.69238-.30859l-1.19824-.14258c-.73438-.08789-1.29102-.31738-1.67285-.6875s-.57129-.87402-.57129-1.5127v-.13184c0-.4541.11719-.84863.35156-1.18262.23438-.33301.56641-.5918.99609-.77539.42773-.18359.93262-.27441,1.51172-.27441h.16504c.7041,0,1.29785.14062,1.78223.42285s.83203.69141,1.04492,1.22656l-1.4082.59375c-.19727-.5791-.6748-.86816-1.42969-.86816h-.14258c-.39648,0-.70703.07617-.92969.23047-.22461.1543-.33594.35938-.33594.61621v.10938c0,.44824.30859.71191.92383.79199l1.19922.14355c.74805.08789,1.31055.33398,1.68848.7373s.56641.92773.56641,1.57227v.13281c0,.7334-.25684,1.2998-.77051,1.69922-.5127.39941-1.25.59961-2.21094.59961h-.16406Z"/>
          <path class="cls-2" d="m231.72656,434.0332v-1.39746h-3.65137v-1.1875l3.6416-4.9834h1.45117v4.88477h.99023l-.1875,1.28613h-.80273v1.39746h-1.44141Zm0-2.68359v-2.9043l-2.12305,2.9043h2.12305Z"/>
          <path class="cls-2" d="m237.88672,430.96387v-1.31934h1.81543v-1.82617h1.43066v1.82617h1.81445v1.31934h-1.81445v1.82617h-1.43066v-1.82617h-1.81543Z"/>
          <path class="cls-2" d="m247.38086,434.0332v-7.7002h5.11426v1.36426h-3.50879v1.96875h2.82715l-.18652,1.36426h-2.64062v3.00293h-1.60547Z"/>
          <path class="cls-2" d="m255.08008,434.1875c-.62305,0-1.11816-.2002-1.48438-.59961-.36719-.39941-.55078-.96973-.55078-1.71094v-3.51953h1.54102v3.31055c0,.38184.07227.67676.21973.88574.14648.20898.37793.31348.69238.31348h.08789c.17676,0,.3457-.04785.50586-.14258.16211-.0957.2959-.24414.40234-.44629.10547-.20117.15918-.45996.15918-.77539v-3.14551h1.54004v5.67578h-1.3418v-.7041c-.18359.2793-.41797.49121-.7041.6377-.28613.14746-.60449.2207-.95703.2207h-.11035Z"/>
          <path class="cls-2" d="m259.62305,434.0332v-8.03027h1.54004v8.03027h-1.54004Z"/>
          <path class="cls-2" d="m262.59277,434.0332v-8.03027h1.54004v8.03027h-1.54004Z"/>
          <path class="cls-2" d="m268.51074,434.0332v-7.7002h2.91504c.89453,0,1.60352.20898,2.12891.62695.52344.41797.78613.99805.78613,1.73828v.20898c0,.52051-.12598.96094-.37988,1.32031-.25293.35938-.60645.63086-1.06152.81348l1.68262,2.99219h-1.74805l-1.51855-2.75h-1.19824v2.75h-1.60645Zm1.60645-4.13574h1.26465c.38867,0,.71094-.07324.96777-.2207.25684-.14648.38477-.3916.38477-.73633v-.27539c0-.33008-.12793-.57031-.38477-.7207-.25684-.14941-.5791-.22559-.96777-.22559h-1.26465v2.17871Z"/>
          <path class="cls-2" d="m277.25586,434.0332v-6.31445h-2.31055v-1.38574h6.22656v1.38574h-2.31055v6.31445h-1.60547Z"/>
        </g>
        <g>
          <path class="cls-6" d="m64.24805,394.43359l2.9707-7.7002h1.44141l2.98047,7.7002h-1.73828l-.5498-1.55078h-2.91504l-.5498,1.55078h-1.63965Zm2.66211-2.87109h1.96973l-.97949-2.76074-.99023,2.76074Z"/>
          <path class="cls-6" d="m72.4873,394.43359v-8.03027h1.54004v8.03027h-1.54004Z"/>
          <path class="cls-6" d="m77.0957,394.58789c-.6084,0-1.08008-.15039-1.41309-.45117s-.50098-.72266-.50098-1.26465c0-.49902.15234-.89844.45703-1.19922s.74609-.48828,1.32617-.56152l1.78125-.23047v-.04395c0-.66797-.30469-1.00098-.91309-1.00098h-.11035c-.27148,0-.49805.04883-.68164.14844-.18359.09863-.33789.27344-.46191.52246l-1.17676-.61621c.16797-.38867.45312-.7002.85254-.93457.39941-.23535.88574-.35254,1.45801-.35254h.16406c1.60645,0,2.40918.75195,2.40918,2.25488v3.5752h-1.3418v-.71484c-.17676.27148-.41992.4834-.73145.6377-.3125.1543-.66602.23145-1.06152.23145h-.05566Zm1.65039-2.67285l-1.17676.16504c-.33691.05078-.57227.12207-.7041.21387s-.19824.24023-.19824.44531c0,.19824.0752.35449.22559.46777.15039.11426.34961.1709.59961.1709h.08789c.36719,0,.65234-.10645.85742-.31934.20605-.21289.30859-.50195.30859-.86914v-.27441Z"/>
          <path class="cls-6" d="m81.65039,394.43359v-5.67578h1.3418v.7041c.19043-.27148.43457-.48242.73145-.63281s.62793-.22559.99512-.22559h.11035c.64551,0,1.15723.2002,1.53418.59961.37793.39941.56641.96973.56641,1.71094v3.51953h-1.53906v-3.31055c0-.38184-.08008-.67676-.2373-.88574s-.40527-.31348-.74219-.31348h-.08789c-.18359,0-.36133.04785-.53418.14258-.17188.0957-.31445.24219-.42871.44043s-.1709.45801-.1709.78027v3.14648h-1.53906Z"/>
          <path class="cls-6" d="m90.54883,386.7334h1.73828l1.41895,5.37891,1.39746-5.37891h1.47363l1.39746,5.37891,1.41797-5.37891h1.65039l-2.36523,7.7002h-1.50684l-1.375-5.16992-1.375,5.16992h-1.50684l-2.36523-7.7002Z"/>
          <path class="cls-6" d="m102.95703,394.58789c-.60938,0-1.08008-.15039-1.41406-.45117-.33301-.30078-.5-.72266-.5-1.26465,0-.49902.15234-.89844.45703-1.19922.30371-.30078.74609-.48828,1.3252-.56152l1.78223-.23047v-.04395c0-.66797-.30469-1.00098-.91406-1.00098h-.10938c-.27148,0-.49805.04883-.68164.14844-.18359.09863-.33789.27344-.46289.52246l-1.17578-.61621c.16797-.38867.45215-.7002.85156-.93457.40039-.23535.88574-.35254,1.45801-.35254h.16504c1.60547,0,2.4082.75195,2.4082,2.25488v3.5752h-1.3418v-.71484c-.17578.27148-.41992.4834-.73047.6377-.3125.1543-.66602.23145-1.0625.23145h-.05469Zm1.65039-2.67285l-1.17773.16504c-.33691.05078-.57227.12207-.70312.21387-.13281.0918-.19922.24023-.19922.44531,0,.19824.07617.35449.22656.46777.15039.11426.34961.1709.59961.1709h.08789c.36621,0,.65234-.10645.85742-.31934s.30859-.50195.30859-.86914v-.27441Z"/>
          <path class="cls-6" d="m107.51074,394.43359v-8.03027h1.54004v4.36719l2.0459-2.0127h1.8916l-2.24316,2.14453,2.40918,3.53125h-1.84863l-1.66113-2.55176-.59375.57129v1.98047h-1.54004Z"/>
          <path class="cls-6" d="m116.15723,394.58789c-.86523,0-1.53613-.24609-2.0127-.7373s-.71484-1.18457-.71484-2.0791v-.33008c0-.89453.24219-1.59082.72559-2.08984s1.15137-.74805,2.00195-.74805h.08789c.80664,0,1.43555.24414,1.88672.73145.4502.48828.67676,1.16016.67676,2.01855v.69336h-3.86133c.05078.87207.45508,1.30859,1.20996,1.30859h.15332c.58008,0,.98633-.19434,1.22168-.58301l1.11035.7373c-.20508.33691-.51074.60156-.91797.79199-.40625.19043-.875.28613-1.40234.28613h-.16504Zm-1.19922-3.5752h2.35449v-.0332c0-.7627-.35547-1.14355-1.06738-1.14355h-.08789c-.7041,0-1.10449.3916-1.19922,1.17676Z"/>
          <path class="cls-6" d="m122.5918,394.43359v-1.16602c0-.52832.12891-1.00488.38477-1.42969.25781-.42578.62012-.7627,1.08984-1.0127l1.28711-.69238c.58594-.30859.87891-.68555.87891-1.13281v-.11035c0-.23438-.09473-.42871-.28516-.58301-.19141-.1543-.43359-.23145-.72656-.23145h-.05469c-.34473,0-.61719.06641-.81934.19824s-.35059.34082-.44531.62695l-1.32031-.58301c.35938-1.05566,1.22461-1.58398,2.59668-1.58398h.12109c.76172,0,1.36719.19141,1.81445.57227s.6709.89453.6709,1.54004v.17578c0,.49902-.12598.92285-.37988,1.27051-.25195.34863-.68359.6875-1.29199,1.01758l-1.13379.61621c-.43945.24219-.67383.61621-.70312,1.12207h3.53125v1.38574h-5.21484Z"/>
          <path class="cls-2" d="m54.9209,434.0332v-7.7002h3.06934c.77734,0,1.43164.15039,1.96289.45117s.93555.72266,1.20996,1.26465c.27539.54297.41309,1.18164.41309,1.91406v.42969c0,1.12891-.30859,2.01855-.92383,2.66699-.61719.64941-1.50391.97363-2.66211.97363h-3.06934Zm1.60645-1.38574h1.41797c.65332,0,1.1543-.18164,1.50195-.54492s.52246-.92188.52246-1.67773v-.49414c0-.72656-.1748-1.27637-.52246-1.65039s-.84863-.56152-1.50195-.56152h-1.41797v4.92871Z"/>
          <path class="cls-2" d="m63.06055,434.0332v-7.7002h1.60547v6.31445h3.35547v1.38574h-4.96094Z"/>
          <path class="cls-2" d="m71.9043,434.1875c-1.60547,0-2.62891-.56836-3.06836-1.70508l1.35254-.69336c.25684.68262.8291,1.02344,1.71582,1.02344h.14258c.93164,0,1.39746-.30078,1.39746-.90234v-.11035c0-.23438-.08105-.43555-.24219-.60449s-.3916-.27148-.69238-.30859l-1.19922-.14258c-.7334-.08789-1.29102-.31738-1.67188-.6875-.38184-.37012-.57227-.87402-.57227-1.5127v-.13184c0-.4541.11719-.84863.35156-1.18262.23438-.33301.56641-.5918.99609-.77539.42871-.18359.93359-.27441,1.51172-.27441h.16602c.70312,0,1.29688.14062,1.78125.42285s.83203.69141,1.04492,1.22656l-1.4082.59375c-.19727-.5791-.67383-.86816-1.42969-.86816h-.14258c-.39648,0-.70605.07617-.92969.23047s-.33594.35938-.33594.61621v.10938c0,.44824.30859.71191.92383.79199l1.19922.14355c.74805.08789,1.31055.33398,1.68945.7373.37695.40332.56641.92773.56641,1.57227v.13281c0,.7334-.25781,1.2998-.77051,1.69922s-1.25098.59961-2.21094.59961h-.16504Z"/>
          <path class="cls-2" d="m78.85547,434.1875c-1.60547,0-2.62891-.56836-3.06836-1.70508l1.35352-.69336c.25586.68262.82812,1.02344,1.71484,1.02344h.14355c.93066,0,1.39746-.30078,1.39746-.90234v-.11035c0-.23438-.08105-.43555-.24219-.60449-.16211-.16895-.39258-.27148-.69336-.30859l-1.19922-.14258c-.73242-.08789-1.29102-.31738-1.67188-.6875s-.57227-.87402-.57227-1.5127v-.13184c0-.4541.11719-.84863.35254-1.18262.23438-.33301.56641-.5918.99512-.77539.42969-.18359.93359-.27441,1.5127-.27441h.16504c.7041,0,1.29785.14062,1.78223.42285.4834.28223.83203.69141,1.04492,1.22656l-1.4082.59375c-.19824-.5791-.6748-.86816-1.42969-.86816h-.14355c-.39551,0-.70508.07617-.92969.23047-.22266.1543-.33496.35938-.33496.61621v.10938c0,.44824.30762.71191.92383.79199l1.19922.14355c.74805.08789,1.31055.33398,1.68848.7373.37695.40332.56641.92773.56641,1.57227v.13281c0,.7334-.25684,1.2998-.76953,1.69922-.51367.39941-1.25098.59961-2.21094.59961h-.16602Z"/>
          <path class="cls-2" d="m89.03125,434.0332v-1.39746h-3.65234v-1.1875l3.64062-4.9834h1.45215v4.88477h.99023l-.18652,1.28613h-.80371v1.39746h-1.44043Zm0-2.68359v-2.9043l-2.12305,2.9043h2.12305Z"/>
          <path class="cls-2" d="m95.19141,430.96387v-1.31934h1.81445v-1.82617h1.42969v1.82617h1.81543v1.31934h-1.81543v1.82617h-1.42969v-1.82617h-1.81445Z"/>
          <path class="cls-2" d="m104.68359,434.0332v-7.7002h5.11523v1.36426h-3.50879v1.96875h2.82715l-.1875,1.36426h-2.63965v3.00293h-1.60645Z"/>
          <path class="cls-2" d="m112.38477,434.1875c-.62402,0-1.11914-.2002-1.48535-.59961-.36719-.39941-.5498-.96973-.5498-1.71094v-3.51953h1.53906v3.31055c0,.38184.07422.67676.2207.88574s.37695.31348.69336.31348h.08789c.17578,0,.34375-.04785.50586-.14258.16113-.0957.29492-.24414.40137-.44629.10645-.20117.15918-.45996.15918-.77539v-3.14551h1.54004v5.67578h-1.3418v-.7041c-.18359.2793-.41797.49121-.7041.6377-.28613.14746-.60547.2207-.95703.2207h-.10938Z"/>
          <path class="cls-2" d="m116.92676,434.0332v-8.03027h1.54004v8.03027h-1.54004Z"/>
          <path class="cls-2" d="m119.89648,434.0332v-8.03027h1.54004v8.03027h-1.54004Z"/>
          <path class="cls-2" d="m125.81445,434.0332v-7.7002h2.91504c.89453,0,1.60449.20898,2.12793.62695.52539.41797.78711.99805.78711,1.73828v.20898c0,.52051-.12695.96094-.37988,1.32031s-.60645.63086-1.06152.81348l1.68359,2.99219h-1.75l-1.51758-2.75h-1.19922v2.75h-1.60547Zm1.60547-4.13574h1.26562c.38867,0,.71094-.07324.96777-.2207.25684-.14648.38574-.3916.38574-.73633v-.27539c0-.33008-.12891-.57031-.38574-.7207-.25684-.14941-.5791-.22559-.96777-.22559h-1.26562v2.17871Z"/>
          <path class="cls-2" d="m134.55957,434.0332v-6.31445h-2.30957v-1.38574h6.22559v1.38574h-2.30957v6.31445h-1.60645Z"/>
        </g>
        <g>
          <path class="cls-6" d="m345.67578,394.58789c-1.14355,0-2.01172-.33398-2.60645-1.00098-.59375-.66797-.8916-1.59863-.8916-2.79395v-.42969c0-.77734.13672-1.44824.4082-2.0127.27051-.56445.66602-1.00098,1.1875-1.30859.52051-.30859,1.1543-.46191,1.90234-.46191h.08887c.78418,0,1.43652.17188,1.95801.5166.52051.34473.88672.83203,1.09961,1.46289l-1.49609.52832c-.10254-.38184-.29102-.66016-.56641-.83594-.27539-.17676-.60742-.26465-.99512-.26465h-.06641c-.60059,0-1.07129.19434-1.40723.58301-.33789.38867-.50586.97559-.50586,1.76074v.49414c0,.81445.16211,1.41016.48828,1.78809s.80176.56641,1.4248.56641h.06641c.39551,0,.7373-.08594,1.02246-.25879.28613-.17188.48828-.44922.60547-.83008l1.46289.57129c-.2207.60938-.59375,1.08203-1.12207,1.41992-.52832.33691-1.18457.50586-1.96875.50586h-.08887Z"/>
          <path class="cls-6" d="m349.73633,396.63379v-1.29785h.39551c.32324,0,.5625-.05176.7207-.1543.15723-.10254.28418-.30469.37988-.60547l.04297-.15332-2.18848-5.66504h1.66113l1.32031,4.00391,1.17578-4.00391h1.55176l-2.00195,5.75293c-.1543.44727-.30957.81055-.46777,1.08887s-.33398.49316-.52734.64355c-.19531.15039-.42188.25293-.68262.30762-.26074.05566-.57324.08301-.94043.08301h-.43945Z"/>
          <path class="cls-6" d="m358.7666,394.58789c-.80664,0-1.4043-.28613-1.79297-.8584v.7041h-1.34277v-8.03027h1.54102v2.88184c.38086-.4541.91211-.68164,1.59473-.68164h.07715c.46191,0,.87109.1084,1.22656.32422.35547.2168.63379.53613.83594.95703.20117.42188.30273.9375.30273,1.5459v.33008c0,.6084-.10156,1.12402-.30273,1.54492-.20215.42188-.48047.74121-.83594.95703-.35547.2168-.76465.3252-1.22656.3252h-.07715Zm-.41797-1.32031h.08789c.35254,0,.64551-.11914.87988-.35742s.35156-.61426.35156-1.12793v-.3623c0-.52832-.11719-.90918-.35156-1.14453-.23438-.23438-.52734-.35156-.87988-.35156h-.08789c-.18359,0-.36816.04883-.55566.14844-.1875.09863-.34082.25684-.46191.47266-.12109.2168-.18164.50781-.18164.875v.35156c0,.35938.06055.64941.18164.86914s.27441.37988.46191.47852.37207.14844.55566.14844Z"/>
          <path class="cls-6" d="m364.77246,394.58789c-.86523,0-1.53613-.24609-2.0127-.7373s-.71484-1.18457-.71484-2.0791v-.33008c0-.89453.24219-1.59082.72559-2.08984s1.15137-.74805,2.00195-.74805h.08789c.80664,0,1.43555.24414,1.88672.73145.4502.48828.67676,1.16016.67676,2.01855v.69336h-3.86133c.05078.87207.45508,1.30859,1.20996,1.30859h.15332c.58008,0,.98633-.19434,1.22168-.58301l1.11035.7373c-.20508.33691-.51074.60156-.91797.79199-.40625.19043-.875.28613-1.40234.28613h-.16504Zm-1.19922-3.5752h2.35449v-.0332c0-.7627-.35547-1.14355-1.06738-1.14355h-.08789c-.7041,0-1.10449.3916-1.19922,1.17676Z"/>
          <path class="cls-6" d="m368.51172,394.43359v-5.67578h1.34277v.96777c.15332-.33008.34863-.58496.58301-.76465s.55371-.26953.95703-.26953h.60547v1.41895h-.55078c-.21973,0-.43555.04395-.64844.13184-.21289.08887-.39062.24023-.5332.45703-.14355.21582-.21484.51562-.21484.89648v2.83789h-1.54102Z"/>
          <path class="cls-6" d="m372.80176,396.63379v-7.87598h1.34277v.7041c.38867-.57227.98633-.8584,1.79297-.8584h.07617c.46289,0,.87109.1084,1.22656.32422.35547.2168.63477.53613.83594.95703.20117.42188.30273.94043.30273,1.55664v.33008c0,.60156-.10156,1.11328-.30273,1.53418-.20117.42188-.48047.74121-.83594.95703-.35547.2168-.76367.3252-1.22656.3252h-.07617c-.68262,0-1.21484-.22754-1.5957-.68262v2.72852h-1.54004Zm2.71777-3.36621h.08789c.35156,0,.64453-.11719.87891-.35156.23535-.23535.35254-.6123.35254-1.13379v-.3623c0-.52051-.11719-.90039-.35254-1.13867-.23438-.23828-.52734-.35742-.87891-.35742h-.08789c-.19141,0-.37988.04883-.56641.14844-.1875.09863-.33984.25684-.45703.47266-.11719.2168-.17578.50781-.17578.875v.35156c0,.35938.06055.64941.18164.86914s.27441.37988.46094.47852c.1875.09863.37305.14844.55664.14844Z"/>
          <path class="cls-6" d="m381.48047,394.58789c-.62305,0-1.11816-.2002-1.48438-.59961-.36719-.39941-.55078-.96973-.55078-1.71094v-3.51953h1.54102v3.31055c0,.38184.07227.67676.21973.88574.14648.20898.37793.31348.69238.31348h.08789c.17676,0,.3457-.04785.50586-.14258.16211-.0957.2959-.24414.40234-.44629.10547-.20117.15918-.45996.15918-.77539v-3.14551h1.54004v5.67578h-1.3418v-.7041c-.18359.2793-.41797.49121-.7041.6377-.28613.14746-.60449.2207-.95703.2207h-.11035Z"/>
          <path class="cls-6" d="m386.02344,394.43359v-5.67578h1.3418v.7041c.19141-.27148.43555-.48242.73242-.63281s.62793-.22559.99512-.22559h.11035c.64453,0,1.15625.2002,1.53418.59961s.56641.96973.56641,1.71094v3.51953h-1.54004v-3.31055c0-.38184-.0791-.67676-.23633-.88574-.1582-.20898-.40625-.31348-.74219-.31348h-.08789c-.18359,0-.36133.04785-.53418.14258-.17285.0957-.31543.24219-.42871.44043-.11426.19824-.1709.45801-.1709.78027v3.14648h-1.54004Z"/>
          <path class="cls-6" d="m392.66797,394.43359v-8.03027h1.53906v4.36719l2.04688-2.0127h1.8916l-2.24316,2.14453,2.4082,3.53125h-1.84766l-1.66113-2.55176-.59473.57129v1.98047h-1.53906Z"/>
          <path class="cls-6" d="m401.79785,394.43359v-1.16602c0-.52832.12793-1.00488.38477-1.42969.25684-.42578.62012-.7627,1.08887-1.0127l1.28711-.69238c.58691-.30859.87988-.68555.87988-1.13281v-.11035c0-.23438-.09473-.42871-.28613-.58301-.19043-.1543-.43262-.23145-.72559-.23145h-.05566c-.34375,0-.61719.06641-.81836.19824-.20215.13184-.35059.34082-.44531.62695l-1.32031-.58301c.35938-1.05566,1.22461-1.58398,2.5957-1.58398h.12109c.76172,0,1.36719.19141,1.81445.57227s.67188.89453.67188,1.54004v.17578c0,.49902-.12695.92285-.37988,1.27051-.25293.34863-.68457.6875-1.29199,1.01758l-1.13379.61621c-.44043.24219-.6748.61621-.7041,1.12207h3.53125v1.38574h-5.21387Z"/>
          <path class="cls-6" d="m410.99414,394.56543c-.99023,0-1.74219-.30273-2.25586-.90723-.5127-.60547-.76953-1.47266-.76953-2.60156v-.81445c0-1.13574.25684-2.00488.76953-2.60645.51367-.60156,1.26562-.90234,2.25586-.90234h.09863c.99023,0,1.74121.30078,2.25488.90234s.76953,1.4707.76953,2.60645v.81445c0,1.12891-.25586,1.99609-.76953,2.60156-.51367.60449-1.26465.90723-2.25488.90723h-.09863Zm0-1.375h.09863c.96777,0,1.45215-.71875,1.45215-2.15625v-.76953c0-1.4375-.48438-2.15625-1.45215-2.15625h-.09863c-.96875,0-1.45215.71875-1.45215,2.15625v.76953c0,1.4375.4834,2.15625,1.45215,2.15625Z"/>
          <path class="cls-6" d="m416.25195,394.43359v-.84668c0-.38184.02734-.73145.08203-1.05078s.14648-.6377.27539-.95703.29883-.66504.51172-1.03906l1.30859-2.28809h-3.44336v-1.38672h5.35742v1.19922l-1.77148,2.98145c-.26367.43945-.4541.86328-.57129,1.27051-.11816.40625-.17676.84473-.17676,1.31445v.80273h-1.57227Z"/>
          <path class="cls-6" d="m422.85156,394.43359v-.84668c0-.38184.02734-.73145.08301-1.05078.05469-.31934.14648-.6377.27441-.95703.12891-.31934.29883-.66504.51172-1.03906l1.30859-2.28809h-3.44238v-1.38672h5.35645v1.19922l-1.77051,2.98145c-.26367.43945-.4541.86328-.57129,1.27051-.11816.40625-.17676.84473-.17676,1.31445v.80273h-1.57324Z"/>
          <path class="cls-2" d="m343.16797,434.0332v-7.7002h3.06934c.77734,0,1.43164.15039,1.96387.45117.53125.30078.93457.72266,1.20898,1.26465.27539.54297.41309,1.18164.41309,1.91406v.42969c0,1.12891-.30762,2.01855-.92383,2.66699-.61621.64941-1.50293.97363-2.66211.97363h-3.06934Zm1.60645-1.38574h1.41895c.65234,0,1.15332-.18164,1.50195-.54492.34766-.36328.52148-.92188.52148-1.67773v-.49414c0-.72656-.17383-1.27637-.52148-1.65039-.34863-.37402-.84961-.56152-1.50195-.56152h-1.41895v4.92871Z"/>
          <path class="cls-2" d="m351.30859,434.0332v-7.7002h1.60547v6.31445h3.35547v1.38574h-4.96094Z"/>
          <path class="cls-2" d="m360.15234,434.1875c-1.60547,0-2.62891-.56836-3.06836-1.70508l1.35254-.69336c.25684.68262.8291,1.02344,1.71582,1.02344h.14258c.93164,0,1.39746-.30078,1.39746-.90234v-.11035c0-.23438-.08105-.43555-.24219-.60449s-.3916-.27148-.69238-.30859l-1.19922-.14258c-.7334-.08789-1.29102-.31738-1.67188-.6875-.38184-.37012-.57227-.87402-.57227-1.5127v-.13184c0-.4541.11719-.84863.35156-1.18262.23438-.33301.56641-.5918.99609-.77539.42871-.18359.93359-.27441,1.51172-.27441h.16602c.70312,0,1.29688.14062,1.78125.42285s.83203.69141,1.04492,1.22656l-1.4082.59375c-.19727-.5791-.67383-.86816-1.42969-.86816h-.14258c-.39648,0-.70605.07617-.92969.23047s-.33594.35938-.33594.61621v.10938c0,.44824.30859.71191.92383.79199l1.19922.14355c.74805.08789,1.31055.33398,1.68945.7373.37695.40332.56641.92773.56641,1.57227v.13281c0,.7334-.25781,1.2998-.77051,1.69922s-1.25098.59961-2.21094.59961h-.16504Z"/>
          <path class="cls-2" d="m367.10352,434.1875c-1.60547,0-2.62891-.56836-3.06836-1.70508l1.35352-.69336c.25586.68262.82812,1.02344,1.71484,1.02344h.14355c.93066,0,1.39746-.30078,1.39746-.90234v-.11035c0-.23438-.08105-.43555-.24219-.60449-.16211-.16895-.39258-.27148-.69336-.30859l-1.19922-.14258c-.73242-.08789-1.29102-.31738-1.67188-.6875s-.57227-.87402-.57227-1.5127v-.13184c0-.4541.11719-.84863.35254-1.18262.23438-.33301.56641-.5918.99512-.77539.42969-.18359.93359-.27441,1.5127-.27441h.16504c.7041,0,1.29785.14062,1.78223.42285.4834.28223.83203.69141,1.04492,1.22656l-1.4082.59375c-.19824-.5791-.6748-.86816-1.42969-.86816h-.14355c-.39551,0-.70508.07617-.92969.23047-.22266.1543-.33496.35938-.33496.61621v.10938c0,.44824.30762.71191.92383.79199l1.19922.14355c.74805.08789,1.31055.33398,1.68848.7373.37695.40332.56641.92773.56641,1.57227v.13281c0,.7334-.25684,1.2998-.76953,1.69922-.51367.39941-1.25098.59961-2.21094.59961h-.16602Z"/>
          <path class="cls-2" d="m377.2793,434.0332v-1.39746h-3.65234v-1.1875l3.64062-4.9834h1.45215v4.88477h.99023l-.18652,1.28613h-.80371v1.39746h-1.44043Zm0-2.68359v-2.9043l-2.12305,2.9043h2.12305Z"/>
          <path class="cls-2" d="m383.43945,430.96387v-1.31934h1.81445v-1.82617h1.42969v1.82617h1.81543v1.31934h-1.81543v1.82617h-1.42969v-1.82617h-1.81445Z"/>
          <path class="cls-2" d="m392.93164,434.0332v-7.7002h5.11523v1.36426h-3.50879v1.96875h2.82715l-.1875,1.36426h-2.63965v3.00293h-1.60645Z"/>
          <path class="cls-2" d="m400.63281,434.1875c-.62402,0-1.11914-.2002-1.48535-.59961-.36719-.39941-.5498-.96973-.5498-1.71094v-3.51953h1.53906v3.31055c0,.38184.07422.67676.2207.88574s.37695.31348.69336.31348h.08789c.17578,0,.34375-.04785.50586-.14258.16113-.0957.29492-.24414.40137-.44629.10645-.20117.15918-.45996.15918-.77539v-3.14551h1.54004v5.67578h-1.3418v-.7041c-.18359.2793-.41797.49121-.7041.6377-.28613.14746-.60547.2207-.95703.2207h-.10938Z"/>
          <path class="cls-2" d="m405.1748,434.0332v-8.03027h1.54004v8.03027h-1.54004Z"/>
          <path class="cls-2" d="m408.14453,434.0332v-8.03027h1.54004v8.03027h-1.54004Z"/>
          <path class="cls-2" d="m414.0625,434.0332v-7.7002h2.91504c.89453,0,1.60449.20898,2.12793.62695.52539.41797.78711.99805.78711,1.73828v.20898c0,.52051-.12695.96094-.37988,1.32031s-.60645.63086-1.06152.81348l1.68359,2.99219h-1.75l-1.51758-2.75h-1.19922v2.75h-1.60547Zm1.60547-4.13574h1.26562c.38867,0,.71094-.07324.96777-.2207.25684-.14648.38574-.3916.38574-.73633v-.27539c0-.33008-.12891-.57031-.38574-.7207-.25684-.14941-.5791-.22559-.96777-.22559h-1.26562v2.17871Z"/>
          <path class="cls-2" d="m422.80762,434.0332v-6.31445h-2.30957v-1.38574h6.22559v1.38574h-2.30957v6.31445h-1.60645Z"/>
        </g>
        <g>
          <path class="cls-6" d="m482.44434,394.43359v-7.7002h1.60645v3.09082h3.27734v-3.09082h1.60547v7.7002h-1.60547v-3.22266h-3.27734v3.22266h-1.60645Z"/>
          <path class="cls-6" d="m493.03711,394.58789c-.52734,0-1.00098-.11035-1.41895-.33008-.41797-.2207-.74805-.54102-.99023-.96289-.24121-.42188-.3623-.93262-.3623-1.53418v-.33008c0-.6084.12109-1.12207.3623-1.54004.24219-.41797.57227-.7373.99023-.95703s.8916-.33008,1.41895-.33008h.07715c.52832,0,1.00098.11035,1.41895.33008s.74805.53906.99023.95703.36328.93164.36328,1.54004v.33008c0,.60156-.12109,1.1123-.36328,1.53418s-.57227.74219-.99023.96289c-.41797.21973-.89062.33008-1.41895.33008h-.07715Zm0-1.32031h.07715c.3584,0,.6543-.11719.88574-.35156.23047-.23535.3457-.60938.3457-1.12207v-.39648c0-.5127-.11523-.88672-.3457-1.12207-.23145-.23438-.52734-.35156-.88574-.35156h-.07715c-.35938,0-.6543.11719-.88477.35156-.23145.23535-.34766.60938-.34766,1.12207v.39648c0,.5127.11621.88672.34766,1.12207.23047.23438.52539.35156.88477.35156Z"/>
          <path class="cls-6" d="m499.3291,396.78711c-.55762,0-1.02051-.08789-1.3916-.26367-.37012-.17578-.66211-.43945-.875-.79199l1.07812-.8252c.14648.2207.31445.37598.50098.46777s.43848.1377.75293.1377h.13281c.82129,0,1.23242-.48438,1.23242-1.45215v-.35156c-.38184.4541-.91016.68164-1.58398.68164h-.08789c-.4707,0-.88281-.11523-1.23828-.34668-.35547-.23047-.63281-.55371-.83008-.96777-.19824-.41406-.29688-.89648-.29688-1.44629v-.26465c0-.5498.09863-1.03223.29688-1.44629.19727-.41406.47461-.7373.83008-.96777.35547-.23145.76758-.34668,1.23828-.34668h.08789c.80664,0,1.40039.28613,1.78125.8584v-.69336h1.3418v5.23633c0,.89453-.23438,1.58203-.70312,2.0625-.46973.47949-1.14062.71973-2.01367.71973h-.25293Zm.1543-3.71777h.09863c.35156,0,.63965-.13184.86328-.39551.22461-.26465.33594-.6084.33594-1.03418v-.28613c0-.4248-.11133-.76953-.33594-1.03418-.22363-.26367-.51172-.39551-.86328-.39551h-.09863c-.38184,0-.68066.12598-.89648.37891-.2168.25293-.3252.60352-.3252,1.05078v.27539c0,.44727.1084.79883.3252,1.05566.21582.25684.51465.38477.89648.38477Z"/>
          <path class="cls-6" d="m503.36621,388.75781h1.62793l.94531,3.75098,1.03516-3.75098h1.36328l1.01172,3.66309.94727-3.66309h1.52832l-1.7373,5.67578h-1.39844l-1.08789-3.79492-1.10059,3.79492h-1.39746l-1.7373-5.67578Z"/>
          <path class="cls-6" d="m514.14648,394.58789c-.60938,0-1.08008-.15039-1.41406-.45117-.33301-.30078-.5-.72266-.5-1.26465,0-.49902.15234-.89844.45703-1.19922.30371-.30078.74609-.48828,1.3252-.56152l1.78223-.23047v-.04395c0-.66797-.30469-1.00098-.91406-1.00098h-.10938c-.27148,0-.49805.04883-.68164.14844-.18359.09863-.33789.27344-.46289.52246l-1.17578-.61621c.16797-.38867.45215-.7002.85156-.93457.40039-.23535.88574-.35254,1.45801-.35254h.16504c1.60547,0,2.4082.75195,2.4082,2.25488v3.5752h-1.3418v-.71484c-.17578.27148-.41992.4834-.73047.6377-.3125.1543-.66602.23145-1.0625.23145h-.05469Zm1.65039-2.67285l-1.17773.16504c-.33691.05078-.57227.12207-.70312.21387-.13281.0918-.19922.24023-.19922.44531,0,.19824.07617.35449.22656.46777.15039.11426.34961.1709.59961.1709h.08789c.36621,0,.65234-.10645.85742-.31934s.30859-.50195.30859-.86914v-.27441Z"/>
          <path class="cls-6" d="m518.7002,394.43359v-5.67578h1.34277v.96777c.15332-.33008.34766-.58496.58203-.76465s.55469-.26953.95703-.26953h.60547v1.41895h-.55078c-.21875,0-.43555.04395-.64844.13184-.21289.08887-.39062.24023-.5332.45703-.14258.21582-.21484.51562-.21484.89648v2.83789h-1.54004Z"/>
          <path class="cls-6" d="m526.1582,394.5c-.78516,0-1.34082-.16895-1.66699-.50684-.32617-.33691-.48926-.83887-.48926-1.50684v-2.44141h-1.1875v-1.28711h1.1875v-1.61719h1.54004v1.61719h1.74902l-.1875,1.28711h-1.56152v2.38672c0,.27148.06738.46777.20312.58887.13574.12012.32129.18066.55566.18066h.99023v1.29883h-1.13281Z"/>
          <path class="cls-6" d="m530.4707,394.58789c-1.32031,0-2.15234-.43262-2.49805-1.29785l1.19922-.60547c.10352.21973.25684.38379.46289.48926.20508.10645.48633.16016.8457.16016h.14355c.63086,0,.94629-.16504.94629-.49512v-.04395c0-.2793-.18359-.44434-.55078-.49512l-1.14355-.1543c-.55762-.08008-.98438-.26172-1.28125-.54395-.29785-.28223-.44629-.66211-.44629-1.13867v-.11035c0-.54297.20703-.96973.62207-1.28125.41406-.31152.96582-.46777,1.65527-.46777h.16602c.57129,0,1.05469.1123,1.45117.33594s.68164.54102.85742.95117l-1.2207.53906c-.17578-.38086-.54297-.57227-1.09961-.57227h-.14258c-.53516,0-.80273.1582-.80273.47363v.04395c0,.11719.03906.21094.12012.28027s.21289.11914.39551.14844l1.18848.16504c.5498.07324.97363.26562,1.27051.57715s.44531.70605.44531,1.18262v.11035c0,.5791-.20508,1.01562-.61523,1.30859-.41113.29297-1.01172.44043-1.80469.44043h-.16406Z"/>
          <path class="cls-6" d="m537.01562,394.43359v-7.7002h1.60547v6.31445h3.35547v1.38574h-4.96094Z"/>
          <path class="cls-6" d="m545.4082,394.58789c-.86523,0-1.53711-.24609-2.01367-.7373s-.71484-1.18457-.71484-2.0791v-.33008c0-.89453.24219-1.59082.72656-2.08984s1.15137-.74805,2.00195-.74805h.08789c.80664,0,1.43555.24414,1.88672.73145.45117.48828.67578,1.16016.67578,2.01855v.69336h-3.86035c.05176.87207.4541,1.30859,1.20996,1.30859h.1543c.5791,0,.98633-.19434,1.2207-.58301l1.11133.7373c-.20508.33691-.51172.60156-.91895.79199s-.87402.28613-1.40234.28613h-.16504Zm-1.19922-3.5752h2.35352v-.0332c0-.7627-.35547-1.14355-1.06641-1.14355h-.08789c-.7041,0-1.10352.3916-1.19922,1.17676Z"/>
          <path class="cls-6" d="m551.45801,396.78711c-.55762,0-1.02051-.08789-1.3916-.26367-.37012-.17578-.66211-.43945-.875-.79199l1.07812-.8252c.14648.2207.31445.37598.50098.46777s.43848.1377.75293.1377h.13281c.82129,0,1.23242-.48438,1.23242-1.45215v-.35156c-.38184.4541-.91016.68164-1.58398.68164h-.08789c-.4707,0-.88281-.11523-1.23828-.34668-.35547-.23047-.63281-.55371-.83008-.96777-.19824-.41406-.29688-.89648-.29688-1.44629v-.26465c0-.5498.09863-1.03223.29688-1.44629.19727-.41406.47461-.7373.83008-.96777.35547-.23145.76758-.34668,1.23828-.34668h.08789c.80664,0,1.40039.28613,1.78125.8584v-.69336h1.3418v5.23633c0,.89453-.23438,1.58203-.70312,2.0625-.46973.47949-1.14062.71973-2.01367.71973h-.25293Zm.1543-3.71777h.09863c.35156,0,.63965-.13184.86328-.39551.22461-.26465.33594-.6084.33594-1.03418v-.28613c0-.4248-.11133-.76953-.33594-1.03418-.22363-.26367-.51172-.39551-.86328-.39551h-.09863c-.38184,0-.68066.12598-.89648.37891-.2168.25293-.3252.60352-.3252,1.05078v.27539c0,.44727.1084.79883.3252,1.05566.21582.25684.51465.38477.89648.38477Z"/>
          <path class="cls-6" d="m557.49707,394.58789c-.6084,0-1.08008-.15039-1.41309-.45117-.33398-.30078-.50098-.72266-.50098-1.26465,0-.49902.15234-.89844.45605-1.19922.30469-.30078.74609-.48828,1.32617-.56152l1.78125-.23047v-.04395c0-.66797-.30371-1.00098-.91211-1.00098h-.11035c-.27148,0-.49902.04883-.68262.14844-.18262.09863-.33691.27344-.46094.52246l-1.17773-.61621c.16895-.38867.45312-.7002.85352-.93457.39844-.23535.88477-.35254,1.45703-.35254h.16406c1.60742,0,2.41016.75195,2.41016,2.25488v3.5752h-1.3418v-.71484c-.17676.27148-.41992.4834-.73242.6377-.31152.1543-.66504.23145-1.06055.23145h-.05566Zm1.64941-2.67285l-1.17578.16504c-.33789.05078-.57227.12207-.70508.21387-.13086.0918-.19727.24023-.19727.44531,0,.19824.07422.35449.22461.46777.15039.11426.35059.1709.59961.1709h.08789c.36719,0,.65332-.10645.8584-.31934.20605-.21289.30762-.50195.30762-.86914v-.27441Z"/>
          <path class="cls-6" d="m564.53711,394.58789c-.85156,0-1.52734-.24219-2.0293-.72656-.50293-.4834-.75391-1.18359-.75391-2.10059v-.33008c0-.60156.11523-1.1123.34668-1.53418s.55566-.74316.97363-.96289.90527-.33008,1.46289-.33008h.08789c.5498,0,1.01367.13184,1.3916.39648.37793.26367.64746.6123.80762,1.04492l-1.24219.52734c-.08789-.19043-.21094-.3457-.36914-.4668-.15723-.12109-.35352-.18164-.58789-.18164h-.07715c-.37402,0-.67676.11914-.90723.35742s-.34668.61035-.34668,1.11621v.39648c0,.52051.1123.89648.33496,1.12695.22461.23145.53027.34668.91895.34668h.07715c.25586,0,.46875-.05469.6377-.16504s.30078-.25977.39648-.45117l1.19824.62695c-.16016.37402-.43555.68652-.82422.93555s-.8584.37402-1.4082.37402h-.08789Z"/>
          <path class="cls-6" d="m567.82617,396.63379v-1.29785h.39648c.32227,0,.5625-.05176.7207-.1543.15625-.10254.2832-.30469.37891-.60547l.04395-.15332-2.18848-5.66504h1.66016l1.32031,4.00391,1.17676-4.00391h1.55176l-2.00195,5.75293c-.1543.44727-.31055.81055-.46875,1.08887-.15723.27832-.33301.49316-.52734.64355s-.42188.25293-.68164.30762c-.26074.05566-.57422.08301-.94141.08301h-.43945Z"/>
          <path class="cls-2" d="m496.43066,434.0332v-7.7002h3.06934c.77734,0,1.43164.15039,1.96289.45117s.93555.72266,1.20996,1.26465c.27539.54297.41309,1.18164.41309,1.91406v.42969c0,1.12891-.30859,2.01855-.92383,2.66699-.61719.64941-1.50391.97363-2.66211.97363h-3.06934Zm1.60645-1.38574h1.41797c.65332,0,1.1543-.18164,1.50195-.54492s.52246-.92188.52246-1.67773v-.49414c0-.72656-.1748-1.27637-.52246-1.65039s-.84863-.56152-1.50195-.56152h-1.41797v4.92871Z"/>
          <path class="cls-2" d="m504.57031,434.0332v-7.7002h1.60645v6.31445h3.35449v1.38574h-4.96094Z"/>
          <path class="cls-2" d="m513.41406,434.1875c-1.60547,0-2.62891-.56836-3.06836-1.70508l1.35352-.69336c.25586.68262.82812,1.02344,1.71484,1.02344h.14355c.93066,0,1.39746-.30078,1.39746-.90234v-.11035c0-.23438-.08105-.43555-.24219-.60449-.16211-.16895-.39258-.27148-.69336-.30859l-1.19922-.14258c-.73242-.08789-1.29102-.31738-1.67188-.6875s-.57227-.87402-.57227-1.5127v-.13184c0-.4541.11719-.84863.35254-1.18262.23438-.33301.56641-.5918.99512-.77539.42969-.18359.93359-.27441,1.5127-.27441h.16504c.7041,0,1.29785.14062,1.78223.42285.4834.28223.83203.69141,1.04492,1.22656l-1.4082.59375c-.19824-.5791-.6748-.86816-1.42969-.86816h-.14355c-.39551,0-.70508.07617-.92969.23047-.22266.1543-.33496.35938-.33496.61621v.10938c0,.44824.30762.71191.92383.79199l1.19922.14355c.74805.08789,1.31055.33398,1.68848.7373.37695.40332.56641.92773.56641,1.57227v.13281c0,.7334-.25684,1.2998-.76953,1.69922-.51367.39941-1.25098.59961-2.21094.59961h-.16602Z"/>
          <path class="cls-2" d="m520.36621,434.1875c-1.60645,0-2.62891-.56836-3.06934-1.70508l1.35352-.69336c.25586.68262.82812,1.02344,1.71582,1.02344h.14355c.93066,0,1.39648-.30078,1.39648-.90234v-.11035c0-.23438-.08008-.43555-.24219-.60449-.16113-.16895-.39258-.27148-.69336-.30859l-1.19824-.14258c-.7334-.08789-1.29102-.31738-1.67285-.6875-.38086-.37012-.57129-.87402-.57129-1.5127v-.13184c0-.4541.11719-.84863.35254-1.18262.23438-.33301.56641-.5918.99512-.77539s.93262-.27441,1.5127-.27441h.16406c.70508,0,1.29883.14062,1.7832.42285.4834.28223.83203.69141,1.04492,1.22656l-1.4082.59375c-.19824-.5791-.67578-.86816-1.42969-.86816h-.14355c-.39551,0-.70605.07617-.92969.23047s-.33496.35938-.33496.61621v.10938c0,.44824.30762.71191.92383.79199l1.19922.14355c.74805.08789,1.31055.33398,1.6875.7373.37793.40332.56641.92773.56641,1.57227v.13281c0,.7334-.25586,1.2998-.76953,1.69922s-1.25.59961-2.21094.59961h-.16504Z"/>
          <path class="cls-2" d="m530.54102,434.0332v-1.39746h-3.65234v-1.1875l3.6416-4.9834h1.45215v4.88477h.99023l-.1875,1.28613h-.80273v1.39746h-1.44141Zm0-2.68359v-2.9043l-2.12305,2.9043h2.12305Z"/>
          <path class="cls-2" d="m536.70117,430.96387v-1.31934h1.81445v-1.82617h1.43066v1.82617h1.81543v1.31934h-1.81543v1.82617h-1.43066v-1.82617h-1.81445Z"/>
          <path class="cls-2" d="m546.19434,434.0332v-7.7002h2.91504c.89453,0,1.60352.20898,2.12891.62695.52344.41797.78613.99805.78613,1.73828v.20898c0,.52051-.12598.96094-.37988,1.32031-.25293.35938-.60645.63086-1.06152.81348l1.68262,2.99219h-1.74805l-1.51855-2.75h-1.19824v2.75h-1.60645Zm1.60645-4.13574h1.26465c.38867,0,.71094-.07324.96777-.2207.25684-.14648.38477-.3916.38477-.73633v-.27539c0-.33008-.12793-.57031-.38477-.7207-.25684-.14941-.5791-.22559-.96777-.22559h-1.26465v2.17871Z"/>
          <path class="cls-2" d="m554.93945,434.0332v-6.31445h-2.31055v-1.38574h6.22656v1.38574h-2.31055v6.31445h-1.60547Z"/>
        </g>
        <g>
          <path class="cls-6" d="m649.85156,394.43359l2.9707-7.7002h1.44141l2.98047,7.7002h-1.73828l-.5498-1.55078h-2.91504l-.5498,1.55078h-1.63965Zm2.66211-2.87109h1.96973l-.97949-2.76074-.99023,2.76074Z"/>
          <path class="cls-6" d="m659.08105,394.43359l-2.13379-5.67578h1.62793l1.22168,3.79492,1.25391-3.79492h1.52832l-2.13379,5.67578h-1.36426Z"/>
          <path class="cls-6" d="m665.56055,394.58789c-.52832,0-1.00195-.11035-1.41992-.33008-.41797-.2207-.74805-.54102-.99023-.96289-.24121-.42188-.3623-.93262-.3623-1.53418v-.33008c0-.6084.12109-1.12207.3623-1.54004.24219-.41797.57227-.7373.99023-.95703s.8916-.33008,1.41992-.33008h.07617c.52832,0,1.00195.11035,1.41992.33008s.74805.53906.98926.95703c.24219.41797.36328.93164.36328,1.54004v.33008c0,.60156-.12109,1.1123-.36328,1.53418-.24121.42188-.57129.74219-.98926.96289-.41797.21973-.8916.33008-1.41992.33008h-.07617Zm0-1.32031h.07617c.35938,0,.6543-.11719.88574-.35156.23145-.23535.34668-.60938.34668-1.12207v-.39648c0-.5127-.11523-.88672-.34668-1.12207-.23145-.23438-.52637-.35156-.88574-.35156h-.07617c-.35938,0-.6543.11719-.88574.35156-.23145.23535-.34668.60938-.34668,1.12207v.39648c0,.5127.11523.88672.34668,1.12207.23145.23438.52637.35156.88574.35156Z"/>
          <path class="cls-6" d="m668.9043,388.75781h1.62793l.94629,3.75098,1.0332-3.75098h1.36523l1.01172,3.66309.94531-3.66309h1.5293l-1.73828,5.67578h-1.39648l-1.08984-3.79492-1.09961,3.79492h-1.39648l-1.73828-5.67578Z"/>
          <path class="cls-6" d="m680.47656,394.58789c-.86523,0-1.53711-.24609-2.01367-.7373s-.71484-1.18457-.71484-2.0791v-.33008c0-.89453.24219-1.59082.72656-2.08984s1.15137-.74805,2.00195-.74805h.08789c.80664,0,1.43555.24414,1.88672.73145.45117.48828.67578,1.16016.67578,2.01855v.69336h-3.86035c.05176.87207.4541,1.30859,1.20996,1.30859h.1543c.5791,0,.98633-.19434,1.2207-.58301l1.11133.7373c-.20508.33691-.51172.60156-.91895.79199s-.87402.28613-1.40234.28613h-.16504Zm-1.19922-3.5752h2.35352v-.0332c0-.7627-.35547-1.14355-1.06641-1.14355h-.08789c-.7041,0-1.10352.3916-1.19922,1.17676Z"/>
          <path class="cls-6" d="m686.28516,394.58789c-.45508,0-.8623-.1084-1.22168-.3252-.35938-.21582-.63965-.53711-.84082-.96191-.20312-.42578-.30273-.94238-.30273-1.55078v-.33008c0-.60938.09961-1.12207.30273-1.54004.20117-.41797.48145-.73535.84082-.95215.35938-.21582.7666-.32422,1.22168-.32422h.07617c.68164,0,1.21387.22754,1.5957.68164v-2.88184h1.53906v8.03027h-1.3418v-.7041c-.38867.57227-.98633.8584-1.79297.8584h-.07617Zm.40625-1.32031h.08789c.19824,0,.38867-.0498.57227-.14844s.33398-.25879.45117-.47852.17578-.50977.17578-.86914v-.35156c0-.35938-.06055-.64941-.18164-.86914s-.27344-.37988-.45703-.47852c-.18262-.09961-.36914-.14844-.56055-.14844h-.08789c-.35156,0-.64551.11719-.87988.35156-.23535.23535-.35254.6123-.35254,1.13281v.36328c0,.52051.11719.90039.35254,1.13867.23438.23828.52832.35742.87988.35742Z"/>
          <path class="cls-2" d="m639.12793,434.0332v-7.7002h3.06934c.77734,0,1.43164.15039,1.96289.45117s.93555.72266,1.20996,1.26465c.27539.54297.41309,1.18164.41309,1.91406v.42969c0,1.12891-.30859,2.01855-.92383,2.66699-.61719.64941-1.50391.97363-2.66211.97363h-3.06934Zm1.60645-1.38574h1.41797c.65332,0,1.1543-.18164,1.50195-.54492s.52246-.92188.52246-1.67773v-.49414c0-.72656-.1748-1.27637-.52246-1.65039s-.84863-.56152-1.50195-.56152h-1.41797v4.92871Z"/>
          <path class="cls-2" d="m647.26758,434.0332v-7.7002h1.60547v6.31445h3.35547v1.38574h-4.96094Z"/>
          <path class="cls-2" d="m656.11133,434.1875c-1.60547,0-2.62891-.56836-3.06836-1.70508l1.35254-.69336c.25684.68262.8291,1.02344,1.71582,1.02344h.14258c.93164,0,1.39746-.30078,1.39746-.90234v-.11035c0-.23438-.08105-.43555-.24219-.60449s-.3916-.27148-.69238-.30859l-1.19922-.14258c-.7334-.08789-1.29102-.31738-1.67188-.6875-.38184-.37012-.57227-.87402-.57227-1.5127v-.13184c0-.4541.11719-.84863.35156-1.18262.23438-.33301.56641-.5918.99609-.77539.42871-.18359.93359-.27441,1.51172-.27441h.16602c.70312,0,1.29688.14062,1.78125.42285s.83203.69141,1.04492,1.22656l-1.4082.59375c-.19727-.5791-.67383-.86816-1.42969-.86816h-.14258c-.39648,0-.70605.07617-.92969.23047s-.33594.35938-.33594.61621v.10938c0,.44824.30859.71191.92383.79199l1.19922.14355c.74805.08789,1.31055.33398,1.68945.7373.37695.40332.56641.92773.56641,1.57227v.13281c0,.7334-.25781,1.2998-.77051,1.69922s-1.25098.59961-2.21094.59961h-.16504Z"/>
          <path class="cls-2" d="m663.0625,434.1875c-1.60547,0-2.62891-.56836-3.06836-1.70508l1.35352-.69336c.25586.68262.82812,1.02344,1.71484,1.02344h.14355c.93066,0,1.39746-.30078,1.39746-.90234v-.11035c0-.23438-.08105-.43555-.24219-.60449-.16211-.16895-.39258-.27148-.69336-.30859l-1.19922-.14258c-.73242-.08789-1.29102-.31738-1.67188-.6875s-.57227-.87402-.57227-1.5127v-.13184c0-.4541.11719-.84863.35254-1.18262.23438-.33301.56641-.5918.99512-.77539.42969-.18359.93359-.27441,1.5127-.27441h.16504c.7041,0,1.29785.14062,1.78223.42285.4834.28223.83203.69141,1.04492,1.22656l-1.4082.59375c-.19824-.5791-.6748-.86816-1.42969-.86816h-.14355c-.39551,0-.70508.07617-.92969.23047-.22266.1543-.33496.35938-.33496.61621v.10938c0,.44824.30762.71191.92383.79199l1.19922.14355c.74805.08789,1.31055.33398,1.68848.7373.37695.40332.56641.92773.56641,1.57227v.13281c0,.7334-.25684,1.2998-.76953,1.69922-.51367.39941-1.25098.59961-2.21094.59961h-.16602Z"/>
          <path class="cls-2" d="m673.23828,434.0332v-1.39746h-3.65234v-1.1875l3.64062-4.9834h1.45215v4.88477h.99023l-.18652,1.28613h-.80371v1.39746h-1.44043Zm0-2.68359v-2.9043l-2.12305,2.9043h2.12305Z"/>
          <path class="cls-2" d="m679.39844,430.96387v-1.31934h1.81445v-1.82617h1.42969v1.82617h1.81543v1.31934h-1.81543v1.82617h-1.42969v-1.82617h-1.81445Z"/>
          <path class="cls-2" d="m688.89062,434.0332v-7.7002h2.91602c.89453,0,1.60352.20898,2.12793.62695s.78613.99805.78613,1.73828v.20898c0,.52051-.12598.96094-.37891,1.32031-.25391.35938-.60742.63086-1.0625.81348l1.68359,2.99219h-1.74902l-1.51855-2.75h-1.19824v2.75h-1.60645Zm1.60645-4.13574h1.26465c.38867,0,.71094-.07324.96875-.2207.25586-.14648.38477-.3916.38477-.73633v-.27539c0-.33008-.12891-.57031-.38477-.7207-.25781-.14941-.58008-.22559-.96875-.22559h-1.26465v2.17871Z"/>
          <path class="cls-2" d="m697.63672,434.0332v-6.31445h-2.31055v-1.38574h6.22656v1.38574h-2.31055v6.31445h-1.60547Z"/>
        </g>
        <g>
          <path class="cls-6" d="m129.73633,12.06738c-2.51074,0-3.76562-1.46484-3.76562-4.39551v-1.09277c0-1.46484.31641-2.57812.95117-3.33887s1.56445-1.14062,2.78711-1.14062h.11133c1.55859,0,2.5625.5791,3.00977,1.73535l-1.69336.67285c-.19629-.4668-.64844-.7002-1.3584-.7002h-.08398c-1.17578,0-1.76367.86328-1.76367,2.58984v.13965c.24219-.30762.55566-.54785.93848-.7207.38184-.17285.80664-.25879,1.27344-.25879h.09766c.57812,0,1.09375.13281,1.54688.39844.45312.2666.81055.62988,1.07129,1.09277.26074.46191.3916.98633.3916,1.57422v.22461c0,.625-.14453,1.18066-.43359,1.66602s-.69141.86523-1.2041,1.14062-1.10059.41309-1.76367.41309h-.1123Zm-.16797-1.67969h.08398c.47656,0,.86523-.1377,1.16895-.41309s.45508-.63281.45508-1.07129v-.19629c0-.43848-.15137-.79492-.45508-1.07031s-.69238-.41309-1.16895-.41309h-.08398c-.47656,0-.86523.1377-1.16895.41309s-.45508.63184-.45508,1.07031v.19629c0,.43848.15137.7959.45508,1.07129s.69238.41309,1.16895.41309Z"/>
          <path class="cls-6" d="m134.50977,11.89941v-2.12793h2.05859v2.12793h-2.05859Z"/>
          <path class="cls-6" d="m141.28613,12.06738c-1.79199,0-2.93066-.58789-3.41602-1.76367l1.6377-.72852c.22461.52344.78906.78418,1.69434.78418h.09863c.5127,0,.91406-.1123,1.20312-.33594s.43359-.52734.43359-.91016v-.1543c0-.38184-.14844-.68066-.44727-.89551s-.71387-.32227-1.24609-.32227h-1.30176v-1.65137h1.39941c.90625,0,1.3584-.36426,1.3584-1.09277v-.13965c0-.32617-.12598-.58301-.37793-.76953-.25195-.1875-.60156-.28027-1.0498-.28027h-.07031c-.83984,0-1.36719.28027-1.58203.83984l-1.6377-.75586c.48438-1.19434,1.61426-1.79199,3.3877-1.79199h.1543c.625,0,1.17285.11133,1.64551.33594.4707.22363.83984.53711,1.10547.9375.26562.40137.39844.87305.39844,1.41406v.18262c0,.37305-.08203.7207-.24414,1.04297-.16406.32129-.4043.59961-.72168.83301.81152.49414,1.21777,1.18945,1.21777,2.08594v.19531c0,.9248-.30273,1.64551-.91016,2.16309-.60645.51855-1.45508.77734-2.54688.77734h-.18262Z"/>
          <path class="cls-6" d="m152.69629,11.89941l-2.22559-3.40234-2.22656,3.40234h-2.36621l3.37402-4.96973-3.26172-4.83008h2.42188l2.11328,3.2334,2.11523-3.2334h2.36523l-3.26172,4.83008,3.37402,4.96973h-2.42188Z"/>
        </g>
        <g>
          <path class="cls-6" d="m272.51172,12.06738c-2.50977,0-3.76562-1.46484-3.76562-4.39551v-1.09277c0-1.46484.31738-2.57812.95215-3.33887s1.56348-1.14062,2.78613-1.14062h.11133c1.55859,0,2.5625.5791,3.01074,1.73535l-1.69434.67285c-.19531-.4668-.64844-.7002-1.35742-.7002h-.08398c-1.17578,0-1.76367.86328-1.76367,2.58984v.13965c.24219-.30762.55469-.54785.9375-.7207s.80664-.25879,1.27344-.25879h.09863c.57812,0,1.09375.13281,1.54688.39844.45215.2666.80957.62988,1.07129,1.09277.26074.46191.3916.98633.3916,1.57422v.22461c0,.625-.14551,1.18066-.43457,1.66602s-.69043.86523-1.20312,1.14062c-.51367.27539-1.10156.41309-1.76367.41309h-.11328Zm-.16797-1.67969h.08398c.47656,0,.86621-.1377,1.16992-.41309.30273-.27539.45508-.63281.45508-1.07129v-.19629c0-.43848-.15234-.79492-.45508-1.07031-.30371-.27539-.69336-.41309-1.16992-.41309h-.08398c-.47559,0-.86523.1377-1.16797.41309-.30371.27539-.45508.63184-.45508,1.07031v.19629c0,.43848.15137.7959.45508,1.07129.30273.27539.69238.41309,1.16797.41309Z"/>
          <path class="cls-6" d="m277.28613,11.89941v-2.12793h2.05762v2.12793h-2.05762Z"/>
          <path class="cls-6" d="m280.93945,11.89941v-1.48438c0-.67188.16406-1.27832.49023-1.81934.32715-.54102.78906-.9707,1.38672-1.28809l1.6377-.88184c.74707-.39258,1.12012-.87305,1.12012-1.44238v-.13965c0-.29883-.12109-.5459-.36426-.74219s-.55078-.29395-.92383-.29395h-.06934c-.43945,0-.78711.08398-1.04297.25195-.25781.16797-.44727.43359-.56836.79785l-1.67969-.74219c.45703-1.34375,1.55859-2.01562,3.30469-2.01562h.1543c.96973,0,1.74023.24219,2.30957.72754s.85449,1.13867.85449,1.95996v.22461c0,.63477-.16211,1.17383-.48438,1.61621-.32129.44434-.86914.875-1.64453,1.2959l-1.44141.7832c-.56055.30859-.85938.78418-.89648,1.42871h4.49414v1.76367h-6.63672Z"/>
          <path class="cls-6" d="m295.47266,11.89941l-2.22656-3.40234-2.22656,3.40234h-2.36523l3.37305-4.96973-3.26172-4.83008h2.42188l2.11426,3.2334,2.11426-3.2334h2.36621l-3.2627,4.83008,3.375,4.96973h-2.42188Z"/>
        </g>
        <g>
          <path class="cls-6" d="m557.57031,12.06738c-1.7832,0-2.92188-.62012-3.41602-1.8623l1.6377-.72754c.24219.58789.79785.88184,1.66602.88184h.09766c.4668,0,.85156-.12598,1.15527-.37793.30273-.25195.45508-.56934.45508-.95215v-.16797c0-.43848-.15918-.7959-.47656-1.07129-.31641-.27441-.72754-.41309-1.23145-.41309h-.12598c-.5791,0-1.1582.20605-1.73633.61621l-1.2041-.53223.23828-5.19336h5.97754v1.76367h-4.32617l-.09766,2.14258c.21484-.14062.47363-.25195.77734-.33594.30273-.08496.62305-.12695.95898-.12695h.1543c.59668,0,1.12695.13379,1.58789.39941.46289.26562.82422.62988,1.08594,1.0918.26074.46191.3916.99219.3916,1.58887v.23828c0,.60645-.1416,1.13867-.42676,1.5957-.28516.45801-.68164.8125-1.18945,1.06445-.50977.25195-1.09961.37793-1.77148.37793h-.18164Z"/>
          <path class="cls-6" d="m562.62305,11.89941v-2.12793h2.05859v2.12793h-2.05859Z"/>
          <path class="cls-6" d="m569.81934,12.06738c-2.51074,0-3.76562-1.46484-3.76562-4.39551v-1.09277c0-1.46484.31738-2.57812.95215-3.33887s1.5625-1.14062,2.78516-1.14062h.1123c1.55859,0,2.56152.5791,3.01074,1.73535l-1.69434.67285c-.19629-.4668-.64941-.7002-1.3584-.7002h-.08398c-1.17578,0-1.76367.86328-1.76367,2.58984v.13965c.24219-.30762.55469-.54785.9375-.7207s.80762-.25879,1.27441-.25879h.09863c.57812,0,1.09375.13281,1.54688.39844.45215.2666.80859.62988,1.07031,1.09277.26172.46191.39258.98633.39258,1.57422v.22461c0,.625-.14551,1.18066-.43457,1.66602-.29004.48535-.69043.86523-1.2041,1.14062s-1.10156.41309-1.76367.41309h-.1123Zm-.16797-1.67969h.08398c.47559,0,.86621-.1377,1.16895-.41309s.45508-.63281.45508-1.07129v-.19629c0-.43848-.15234-.79492-.45508-1.07031s-.69336-.41309-1.16895-.41309h-.08398c-.47559,0-.86621.1377-1.16895.41309s-.45508.63184-.45508,1.07031v.19629c0,.43848.15234.7959.45508,1.07129s.69336.41309,1.16895.41309Z"/>
          <path class="cls-6" d="m580.80957,11.89941l-2.22559-3.40234-2.22656,3.40234h-2.36621l3.37402-4.96973-3.26172-4.83008h2.42188l2.11328,3.2334,2.11523-3.2334h2.36523l-3.26172,4.83008,3.37402,4.96973h-2.42188Z"/>
        </g>
        <g>
          <path class="cls-6" d="m779.08008,394.43359v-7.7002h2.00195l2.2002,5.57715,2.2002-5.57715h1.94727v7.7002h-1.5293v-5.19238l-2.06836,5.19238h-1.15527l-2.06738-5.19238v5.19238h-1.5293Z"/>
          <path class="cls-6" d="m790.69531,394.58789c-.6084,0-1.08008-.15039-1.41309-.45117s-.50098-.72266-.50098-1.26465c0-.49902.15234-.89844.45703-1.19922s.74609-.48828,1.32617-.56152l1.78125-.23047v-.04395c0-.66797-.30469-1.00098-.91309-1.00098h-.11035c-.27148,0-.49805.04883-.68164.14844-.18359.09863-.33789.27344-.46191.52246l-1.17676-.61621c.16797-.38867.45312-.7002.85254-.93457.39941-.23535.88574-.35254,1.45801-.35254h.16406c1.60645,0,2.40918.75195,2.40918,2.25488v3.5752h-1.3418v-.71484c-.17676.27148-.41992.4834-.73145.6377-.3125.1543-.66602.23145-1.06152.23145h-.05566Zm1.65039-2.67285l-1.17676.16504c-.33691.05078-.57227.12207-.7041.21387s-.19824.24023-.19824.44531c0,.19824.0752.35449.22559.46777.15039.11426.34961.1709.59961.1709h.08789c.36719,0,.65234-.10645.85742-.31934.20605-.21289.30859-.50195.30859-.86914v-.27441Z"/>
          <path class="cls-6" d="m795.25,394.43359v-5.67578h1.3418v.96777c.1543-.33008.34766-.58496.58301-.76465.23438-.17969.55371-.26953.95703-.26953h.60449v1.41895h-.5498c-.21973,0-.43652.04395-.64941.13184-.21289.08887-.39062.24023-.5332.45703-.14258.21582-.21484.51562-.21484.89648v2.83789h-1.53906Z"/>
          <path class="cls-6" d="m801.40918,394.43359l-2.13379-5.67578h1.62793l1.22168,3.79492,1.25391-3.79492h1.52832l-2.13379,5.67578h-1.36426Z"/>
          <path class="cls-6" d="m807.84375,394.58789c-.86523,0-1.53613-.24609-2.0127-.7373s-.71484-1.18457-.71484-2.0791v-.33008c0-.89453.24219-1.59082.72559-2.08984.48438-.49902,1.15234-.74805,2.00195-.74805h.08789c.80664,0,1.43555.24414,1.88672.73145.45117.48828.67676,1.16016.67676,2.01855v.69336h-3.86035c.05078.87207.4541,1.30859,1.20898,1.30859h.1543c.58008,0,.98633-.19434,1.2207-.58301l1.11133.7373c-.20508.33691-.51172.60156-.91797.79199-.40723.19043-.875.28613-1.40234.28613h-.16602Zm-1.19922-3.5752h2.35449v-.0332c0-.7627-.35547-1.14355-1.06738-1.14355h-.08789c-.70312,0-1.10352.3916-1.19922,1.17676Z"/>
          <path class="cls-6" d="m811.58398,394.43359v-8.03027h1.54004v8.03027h-1.54004Z"/>
          <path class="cls-6" d="m817.50195,394.43359v-7.7002h2.91504c.89453,0,1.60449.20898,2.12793.62695.52539.41797.78711.99805.78711,1.73828v.20898c0,.52051-.12695.96094-.37988,1.32031s-.60645.63086-1.06152.81348l1.68359,2.99219h-1.75l-1.51758-2.75h-1.19922v2.75h-1.60547Zm1.60547-4.13574h1.26562c.38867,0,.71094-.07324.96777-.2207.25684-.14648.38574-.3916.38574-.73633v-.27539c0-.33008-.12891-.57031-.38574-.7207-.25684-.14941-.5791-.22559-.96777-.22559h-1.26562v2.17871Z"/>
          <path class="cls-6" d="m824.46484,387.95508v-1.54004h1.58398v1.54004h-1.58398Zm.02148,6.47852v-5.67578h1.54102v5.67578h-1.54102Z"/>
          <path class="cls-6" d="m828.99609,394.43359l-2.13281-5.67578h1.62695l1.22168,3.79492,1.25391-3.79492h1.52832l-2.13281,5.67578h-1.36523Z"/>
          <path class="cls-6" d="m834.64062,394.58789c-.60938,0-1.08008-.15039-1.41406-.45117s-.5-.72266-.5-1.26465c0-.49902.15234-.89844.45605-1.19922s.74609-.48828,1.3252-.56152l1.78223-.23047v-.04395c0-.66797-.30371-1.00098-.91309-1.00098h-.10938c-.27148,0-.49902.04883-.68262.14844-.18262.09863-.33691.27344-.46191.52246l-1.17676-.61621c.16895-.38867.45215-.7002.85254-.93457.39941-.23535.88477-.35254,1.45703-.35254h.16504c1.60645,0,2.40918.75195,2.40918,2.25488v3.5752h-1.3418v-.71484c-.17578.27148-.41992.4834-.73145.6377s-.66504.23145-1.06152.23145h-.05469Zm1.64941-2.67285l-1.17676.16504c-.33789.05078-.57227.12207-.7041.21387s-.19824.24023-.19824.44531c0,.19824.0752.35449.22559.46777.15039.11426.35059.1709.59961.1709h.08789c.36621,0,.65332-.10645.8584-.31934s.30762-.50195.30762-.86914v-.27441Z"/>
          <path class="cls-6" d="m839.19336,394.43359v-8.03027h1.54102v8.03027h-1.54102Z"/>
          <path class="cls-6" d="m844.27539,394.58789c-1.32031,0-2.15234-.43262-2.49609-1.29785l1.19824-.60547c.10254.21973.25684.38379.46191.48926.20508.10645.48828.16016.84766.16016h.14258c.63086,0,.94531-.16504.94531-.49512v-.04395c0-.2793-.18262-.44434-.54883-.49512l-1.14453-.1543c-.55664-.08008-.98438-.26172-1.28125-.54395s-.44531-.66211-.44531-1.13867v-.11035c0-.54297.20703-.96973.62109-1.28125s.9668-.46777,1.65625-.46777h.16406c.57227,0,1.05664.1123,1.45215.33594s.68262.54102.8584.95117l-1.2207.53906c-.17676-.38086-.54297-.57227-1.10059-.57227h-.14355c-.53516,0-.80273.1582-.80273.47363v.04395c0,.11719.04102.21094.12109.28027s.21289.11914.39648.14844l1.1875.16504c.55078.07324.97363.26562,1.27051.57715.29785.31152.44629.70605.44629,1.18262v.11035c0,.5791-.20605,1.01562-.61719,1.30859-.41016.29297-1.01172.44043-1.80273.44043h-.16602Z"/>
          <path class="cls-2" d="m794.74414,434.0332v-7.7002h3.06836c.77734,0,1.43164.15039,1.96387.45117s.93457.72266,1.20996,1.26465c.27539.54297.41211,1.18164.41211,1.91406v.42969c0,1.12891-.30762,2.01855-.92383,2.66699-.61523.64941-1.50293.97363-2.66211.97363h-3.06836Zm1.60547-1.38574h1.41992c.65234,0,1.15234-.18164,1.50098-.54492s.52246-.92188.52246-1.67773v-.49414c0-.72656-.17383-1.27637-.52246-1.65039s-.84863-.56152-1.50098-.56152h-1.41992v4.92871Z"/>
          <path class="cls-2" d="m802.88379,434.0332v-7.7002h1.60645v6.31445h3.35449v1.38574h-4.96094Z"/>
          <path class="cls-2" d="m811.72754,434.1875c-1.60645,0-2.62891-.56836-3.06934-1.70508l1.35352-.69336c.25586.68262.82812,1.02344,1.71582,1.02344h.14355c.93066,0,1.39648-.30078,1.39648-.90234v-.11035c0-.23438-.08008-.43555-.24219-.60449-.16113-.16895-.39258-.27148-.69336-.30859l-1.19824-.14258c-.7334-.08789-1.29102-.31738-1.67285-.6875-.38086-.37012-.57129-.87402-.57129-1.5127v-.13184c0-.4541.11719-.84863.35254-1.18262.23438-.33301.56641-.5918.99512-.77539s.93262-.27441,1.5127-.27441h.16406c.70508,0,1.29883.14062,1.7832.42285.4834.28223.83203.69141,1.04492,1.22656l-1.4082.59375c-.19824-.5791-.67578-.86816-1.42969-.86816h-.14355c-.39551,0-.70605.07617-.92969.23047s-.33496.35938-.33496.61621v.10938c0,.44824.30762.71191.92383.79199l1.19922.14355c.74805.08789,1.31055.33398,1.6875.7373.37793.40332.56641.92773.56641,1.57227v.13281c0,.7334-.25586,1.2998-.76953,1.69922s-1.25.59961-2.21094.59961h-.16504Z"/>
          <path class="cls-2" d="m818.67969,434.1875c-1.60645,0-2.62891-.56836-3.06934-1.70508l1.35254-.69336c.25684.68262.8291,1.02344,1.7168,1.02344h.14258c.93164,0,1.39648-.30078,1.39648-.90234v-.11035c0-.23438-.08008-.43555-.24219-.60449-.16016-.16895-.3916-.27148-.69238-.30859l-1.19824-.14258c-.73438-.08789-1.29102-.31738-1.67285-.6875s-.57129-.87402-.57129-1.5127v-.13184c0-.4541.11719-.84863.35156-1.18262.23438-.33301.56641-.5918.99609-.77539.42773-.18359.93262-.27441,1.51172-.27441h.16504c.7041,0,1.29785.14062,1.78223.42285s.83203.69141,1.04492,1.22656l-1.4082.59375c-.19727-.5791-.6748-.86816-1.42969-.86816h-.14258c-.39648,0-.70703.07617-.92969.23047-.22461.1543-.33594.35938-.33594.61621v.10938c0,.44824.30859.71191.92383.79199l1.19922.14355c.74805.08789,1.31055.33398,1.68848.7373s.56641.92773.56641,1.57227v.13281c0,.7334-.25684,1.2998-.77051,1.69922-.5127.39941-1.25.59961-2.21094.59961h-.16406Z"/>
          <path class="cls-2" d="m828.85352,434.0332v-1.39746h-3.65137v-1.1875l3.6416-4.9834h1.45117v4.88477h.99023l-.1875,1.28613h-.80273v1.39746h-1.44141Zm0-2.68359v-2.9043l-2.12305,2.9043h2.12305Z"/>
        </g>
        <g>
          <path class="cls-6" d="m918.71875,394.58789c-1.60645,0-2.62891-.56836-3.06934-1.70508l1.35254-.69336c.25684.68262.8291,1.02344,1.7168,1.02344h.14258c.93164,0,1.39648-.30078,1.39648-.90234v-.11035c0-.23438-.08008-.43555-.24219-.60449-.16016-.16895-.3916-.27148-.69238-.30859l-1.19824-.14258c-.73438-.08789-1.29102-.31738-1.67285-.6875s-.57129-.87402-.57129-1.5127v-.13184c0-.4541.11719-.84863.35156-1.18262.23438-.33301.56641-.5918.99609-.77539.42773-.18359.93262-.27441,1.51172-.27441h.16504c.7041,0,1.29785.14062,1.78223.42285s.83203.69141,1.04492,1.22656l-1.4082.59375c-.19727-.5791-.6748-.86816-1.42969-.86816h-.14258c-.39648,0-.70703.07617-.92969.23047-.22461.1543-.33594.35938-.33594.61621v.10938c0,.44824.30859.71191.92383.79199l1.19922.14355c.74805.08789,1.31055.33398,1.68848.7373s.56641.92773.56641,1.57227v.13281c0,.7334-.25684,1.2998-.77051,1.69922-.5127.39941-1.25.59961-2.21094.59961h-.16406Z"/>
          <path class="cls-6" d="m922.77734,394.43359v-1.67188h1.61719v1.67188h-1.61719Z"/>
          <path class="cls-6" d="m926.91309,394.43359v-6.31445h-2.30957v-1.38574h6.22559v1.38574h-2.30957v6.31445h-1.60645Z"/>
          <path class="cls-6" d="m931.03906,394.43359v-1.67188h1.61621v1.67188h-1.61621Z"/>
          <path class="cls-6" d="m933.71094,394.43359l2.9707-7.7002h1.44043l2.98145,7.7002h-1.73828l-.55078-1.55078h-2.91406l-.55078,1.55078h-1.63867Zm2.66211-2.87109h1.96875l-.97852-2.76074-.99023,2.76074Z"/>
          <path class="cls-6" d="m942.1582,394.43359v-1.67188h1.61719v1.67188h-1.61719Z"/>
          <path class="cls-6" d="m945.28223,394.43359v-7.7002h1.60645v6.31445h3.35449v1.38574h-4.96094Z"/>
          <path class="cls-6" d="m951.12305,394.43359v-1.67188h1.61719v1.67188h-1.61719Z"/>
          <path class="cls-6" d="m954.24707,394.43359v-7.7002h1.60645v3.36621l2.94727-3.36621h1.91406l-2.7168,3.01465,2.82715,4.68555h-1.84863l-2.06738-3.58594-1.05566,1.2207v2.36523h-1.60645Z"/>
          <path class="cls-6" d="m961.57422,394.43359v-1.67188h1.61621v1.67188h-1.61621Z"/>
          <path class="cls-6" d="m964.69727,394.43359v-7.7002h5.11523v1.36426h-3.50977v1.77051h2.84961l-.1875,1.36426h-2.66211v1.83691h3.57617v1.36426h-5.18164Z"/>
          <path class="cls-6" d="m971.02246,394.43359v-1.67188h1.61621v1.67188h-1.61621Z"/>
          <path class="cls-6" d="m974.14648,394.43359v-7.7002h2.91406c.89453,0,1.60449.20898,2.12891.62695s.78711.99805.78711,1.73828v.20898c0,.52051-.12695.96094-.38086,1.32031-.25195.35938-.60547.63086-1.06055.81348l1.68262,2.99219h-1.74902l-1.51758-2.75h-1.19922v2.75h-1.60547Zm1.60547-4.13574h1.26562c.38867,0,.71094-.07324.9668-.2207.25781-.14648.38574-.3916.38574-.73633v-.27539c0-.33008-.12793-.57031-.38574-.7207-.25586-.14941-.57812-.22559-.9668-.22559h-1.26562v2.17871Z"/>
          <path class="cls-6" d="m981.00977,394.43359v-1.67188h1.61719v1.67188h-1.61719Z"/>
          <path class="cls-6" d="m986.63086,394.43359v-1.16602c0-.52832.12793-1.00488.38477-1.42969.25684-.42578.61914-.7627,1.08887-1.0127l1.28711-.69238c.58691-.30859.87988-.68555.87988-1.13281v-.11035c0-.23438-.0957-.42871-.28516-.58301-.19141-.1543-.43359-.23145-.72656-.23145h-.05469c-.3457,0-.61816.06641-.82031.19824-.20117.13184-.34961.34082-.44531.62695l-1.32031-.58301c.35938-1.05566,1.22461-1.58398,2.59668-1.58398h.12109c.7627,0,1.36719.19141,1.81543.57227.44727.38086.66992.89453.66992,1.54004v.17578c0,.49902-.12598.92285-.37891,1.27051-.25293.34863-.68359.6875-1.29297,1.01758l-1.13281.61621c-.43945.24219-.6748.61621-.7041,1.12207h3.53125v1.38574h-5.21387Z"/>
          <path class="cls-6" d="m993.16504,390.35254v-1.67188h1.61621v1.67188h-1.61621Zm0,4.08105v-1.67188h1.61621v1.67188h-1.61621Z"/>
          <path class="cls-6" d="m906.15137,407.63281v-7.7002h1.60645v3.09082h3.27734v-3.09082h1.60547v7.7002h-1.60547v-3.22266h-3.27734v3.22266h-1.60645Z"/>
          <path class="cls-6" d="m916.7002,407.78711c-.86523,0-1.53613-.24609-2.0127-.7373s-.71484-1.18457-.71484-2.0791v-.33008c0-.89453.24219-1.59082.72559-2.08984s1.15137-.74805,2.00195-.74805h.08789c.80664,0,1.43555.24414,1.88672.73145.4502.48828.67676,1.16016.67676,2.01855v.69336h-3.86133c.05078.87207.45508,1.30859,1.20996,1.30859h.15332c.58008,0,.98633-.19434,1.22168-.58301l1.11035.7373c-.20508.33691-.51074.60156-.91797.79199-.40625.19043-.875.28613-1.40234.28613h-.16504Zm-1.19922-3.5752h2.35449v-.0332c0-.7627-.35547-1.14355-1.06738-1.14355h-.08789c-.7041,0-1.10449.3916-1.19922,1.17676Z"/>
          <path class="cls-6" d="m922.0791,407.78711c-.6084,0-1.08008-.15039-1.41309-.45117-.33398-.30078-.50098-.72266-.50098-1.26465,0-.49902.15234-.89844.45605-1.19922.30469-.30078.74609-.48828,1.32617-.56152l1.78125-.23047v-.04395c0-.66797-.30371-1.00098-.91211-1.00098h-.11035c-.27148,0-.49902.04883-.68262.14844-.18262.09863-.33691.27344-.46094.52246l-1.17773-.61621c.16895-.38867.45312-.7002.85352-.93457.39844-.23535.88477-.35254,1.45703-.35254h.16406c1.60742,0,2.41016.75195,2.41016,2.25488v3.5752h-1.3418v-.71484c-.17676.27148-.41992.4834-.73242.6377-.31152.1543-.66504.23145-1.06055.23145h-.05566Zm1.64941-2.67285l-1.17578.16504c-.33789.05078-.57227.12207-.70508.21387-.13086.0918-.19727.24023-.19727.44531,0,.19824.07422.35449.22461.46777.15039.11426.35059.1709.59961.1709h.08789c.36719,0,.65332-.10645.8584-.31934.20605-.21289.30762-.50195.30762-.86914v-.27441Z"/>
          <path class="cls-6" d="m926.63281,407.63281v-5.67578h1.3418v.96777c.1543-.33008.34863-.58496.58398-.76465.23438-.17969.55273-.26953.95703-.26953h.60449v1.41895h-.5498c-.2207,0-.43652.04395-.64941.13184-.21289.08887-.39062.24023-.5332.45703-.14355.21582-.21484.51562-.21484.89648v2.83789h-1.54004Z"/>
          <path class="cls-6" d="m934.08984,407.69922c-.78418,0-1.33984-.16895-1.66602-.50684-.32617-.33691-.48926-.83887-.48926-1.50684v-2.44141h-1.18848v-1.28711h1.18848v-1.61719h1.54004v1.61719h1.74902l-.18652,1.28711h-1.5625v2.38672c0,.27148.06738.46777.20312.58887.13574.12012.32031.18066.55566.18066h.99023v1.29883h-1.13379Z"/>
          <path class="cls-6" d="m941.51562,407.78711c-.52734,0-1.00098-.11035-1.41895-.33008-.41797-.2207-.74805-.54102-.99023-.96289-.24121-.42188-.3623-.93262-.3623-1.53418v-.33008c0-.6084.12109-1.12207.3623-1.54004.24219-.41797.57227-.7373.99023-.95703s.8916-.33008,1.41895-.33008h.07715c.52832,0,1.00098.11035,1.41895.33008s.74805.53906.99023.95703.36328.93164.36328,1.54004v.33008c0,.60156-.12109,1.1123-.36328,1.53418s-.57227.74219-.99023.96289c-.41797.21973-.89062.33008-1.41895.33008h-.07715Zm0-1.32031h.07715c.3584,0,.6543-.11719.88574-.35156.23047-.23535.3457-.60938.3457-1.12207v-.39648c0-.5127-.11523-.88672-.3457-1.12207-.23145-.23438-.52734-.35156-.88574-.35156h-.07715c-.35938,0-.6543.11719-.88477.35156-.23145.23535-.34766.60938-.34766,1.12207v.39648c0,.5127.11621.88672.34766,1.12207.23047.23438.52539.35156.88477.35156Z"/>
          <path class="cls-6" d="m946.02539,407.63281v-4.38867h-1.13281v-1.28711h1.13281v-.24219c0-.7041.17578-1.24316.52832-1.61719s.93848-.56055,1.76074-.56055h.97852v1.29785h-.92383c-.28613,0-.49219.07129-.61621.21387-.125.14355-.18652.34668-.18652.61133v.29688h1.72656l-.1875,1.28711h-1.53906v4.38867h-1.54102Z"/>
          <path class="cls-6" d="m956.17871,407.78711c-1.14355,0-2.0127-.33398-2.60645-1.00098-.59375-.66797-.8916-1.59863-.8916-2.79395v-.42969c0-.77734.13574-1.44824.40723-2.0127s.66699-1.00098,1.1875-1.30859c.52148-.30859,1.15527-.46191,1.90332-.46191h.08887c.7832,0,1.43652.17188,1.95703.5166.52148.34473.8877.83203,1.09961,1.46289l-1.49512.52832c-.10254-.38184-.29199-.66016-.56738-.83594-.27441-.17676-.60645-.26465-.99414-.26465h-.06641c-.60156,0-1.07129.19434-1.4082.58301-.33789.38867-.50586.97559-.50586,1.76074v.49414c0,.81445.16309,1.41016.48926,1.78809s.80176.56641,1.4248.56641h.06641c.39551,0,.73633-.08594,1.02246-.25879.28613-.17188.4873-.44922.60449-.83008l1.46289.57129c-.21973.60938-.59375,1.08203-1.12109,1.41992-.52832.33691-1.18555.50586-1.96875.50586h-.08887Z"/>
          <path class="cls-6" d="m960.40234,407.63281v-8.03027h1.54102v2.87109c.38867-.44727.89844-.6709,1.5293-.6709h.10938c.64453,0,1.15625.2002,1.53516.59961.37695.39941.56641.96973.56641,1.71094v3.51953h-1.54102v-3.31055c0-.38184-.07812-.67676-.23633-.88574s-.40527-.31348-.74219-.31348h-.08789c-.18359,0-.36133.04785-.5332.14258-.17285.0957-.31641.24219-.42969.44043s-.16992.45801-.16992.78027v3.14648h-1.54102Z"/>
          <path class="cls-6" d="m969.52148,407.78711c-.52734,0-1-.11035-1.41797-.33008-.41797-.2207-.74805-.54102-.99023-.96289s-.36328-.93262-.36328-1.53418v-.33008c0-.6084.12109-1.12207.36328-1.54004s.57227-.7373.99023-.95703.89062-.33008,1.41797-.33008h.07812c.52734,0,1,.11035,1.41797.33008s.74805.53906.99023.95703.36328.93164.36328,1.54004v.33008c0,.60156-.12109,1.1123-.36328,1.53418s-.57227.74219-.99023.96289c-.41797.21973-.89062.33008-1.41797.33008h-.07812Zm0-1.32031h.07812c.3584,0,.6543-.11719.88477-.35156.23047-.23535.34668-.60938.34668-1.12207v-.39648c0-.5127-.11621-.88672-.34668-1.12207-.23047-.23438-.52637-.35156-.88477-.35156h-.07812c-.35938,0-.6543.11719-.88477.35156-.23047.23535-.34668.60938-.34668,1.12207v.39648c0,.5127.11621.88672.34668,1.12207.23047.23438.52539.35156.88477.35156Z"/>
          <path class="cls-6" d="m973.50391,407.63281v-5.67578h1.3418v.96777c.1543-.33008.34863-.58496.58398-.76465.23438-.17969.55273-.26953.95703-.26953h.60449v1.41895h-.5498c-.2207,0-.43652.04395-.64941.13184-.21289.08887-.39062.24023-.5332.45703-.14355.21582-.21484.51562-.21484.89648v2.83789h-1.54004Z"/>
          <path class="cls-6" d="m977.79395,407.63281v-5.67578h1.34277v.7041c.18945-.27148.43359-.48242.73047-.63281s.62891-.22559.99609-.22559h.10938c.64551,0,1.15723.2002,1.53516.59961.37695.39941.56641.96973.56641,1.71094v3.51953h-1.54004v-3.31055c0-.38184-.0791-.67676-.2373-.88574-.15723-.20898-.4043-.31348-.74219-.31348h-.08789c-.18359,0-.36133.04785-.5332.14258-.17188.0957-.31543.24219-.42969.44043-.11328.19824-.16992.45801-.16992.78027v3.14648h-1.54004Z"/>
          <path class="cls-6" d="m986.91309,407.78711c-.52832,0-1.00098-.11035-1.41895-.33008-.41797-.2207-.74805-.54102-.99023-.96289s-.36328-.93262-.36328-1.53418v-.33008c0-.6084.12109-1.12207.36328-1.54004s.57227-.7373.99023-.95703.89062-.33008,1.41895-.33008h.07715c.52734,0,1.00098.11035,1.41895.33008s.74805.53906.98926.95703c.24219.41797.36328.93164.36328,1.54004v.33008c0,.60156-.12109,1.1123-.36328,1.53418-.24121.42188-.57129.74219-.98926.96289-.41797.21973-.8916.33008-1.41895.33008h-.07715Zm0-1.32031h.07715c.35938,0,.6543-.11719.88477-.35156.23145-.23535.34766-.60938.34766-1.12207v-.39648c0-.5127-.11621-.88672-.34766-1.12207-.23047-.23438-.52539-.35156-.88477-.35156h-.07715c-.35938,0-.6543.11719-.88574.35156-.23047.23535-.3457.60938-.3457,1.12207v.39648c0,.5127.11523.88672.3457,1.12207.23145.23438.52637.35156.88574.35156Z"/>
          <path class="cls-6" d="m994.03027,407.78711c-.80664,0-1.4043-.28613-1.79297-.8584v.7041h-1.34277v-8.03027h1.54102v2.88184c.38086-.4541.91211-.68164,1.59473-.68164h.07715c.46191,0,.87109.1084,1.22656.32422.35547.2168.63379.53613.83594.95703.20117.42188.30273.9375.30273,1.5459v.33008c0,.6084-.10156,1.12402-.30273,1.54492-.20215.42188-.48047.74121-.83594.95703-.35547.2168-.76465.3252-1.22656.3252h-.07715Zm-.41797-1.32031h.08789c.35254,0,.64551-.11914.87988-.35742s.35156-.61426.35156-1.12793v-.3623c0-.52832-.11719-.90918-.35156-1.14453-.23438-.23438-.52734-.35156-.87988-.35156h-.08789c-.18359,0-.36816.04883-.55566.14844-.1875.09863-.34082.25684-.46191.47266-.12109.2168-.18164.50781-.18164.875v.35156c0,.35938.06055.64941.18164.86914s.27441.37988.46191.47852.37207.14844.55566.14844Z"/>
          <path class="cls-6" d="m997.33008,409.83301v-1.29785h.39648c.32227,0,.5625-.05176.7207-.1543.15625-.10254.2832-.30469.37891-.60547l.04395-.15332-2.18848-5.66504h1.66016l1.32031,4.00391,1.17676-4.00391h1.55176l-2.00195,5.75293c-.1543.44727-.31055.81055-.46875,1.08887-.15723.27832-.33301.49316-.52734.64355s-.42188.25293-.68164.30762c-.26074.05566-.57422.08301-.94141.08301h-.43945Z"/>
          <path class="cls-6" d="m1003.22559,407.63281v-8.03027h1.54004v8.03027h-1.54004Z"/>
          <path class="cls-2" d="m937.44043,434.0332v-7.7002h3.06934c.77734,0,1.43164.15039,1.96289.45117s.93555.72266,1.20996,1.26465c.27539.54297.41309,1.18164.41309,1.91406v.42969c0,1.12891-.30859,2.01855-.92383,2.66699-.61719.64941-1.50391.97363-2.66211.97363h-3.06934Zm1.60645-1.38574h1.41797c.65332,0,1.1543-.18164,1.50195-.54492s.52246-.92188.52246-1.67773v-.49414c0-.72656-.1748-1.27637-.52246-1.65039s-.84863-.56152-1.50195-.56152h-1.41797v4.92871Z"/>
          <path class="cls-2" d="m945.58008,434.0332v-7.7002h1.60645v6.31445h3.35449v1.38574h-4.96094Z"/>
          <path class="cls-2" d="m954.42383,434.1875c-1.60547,0-2.62891-.56836-3.06836-1.70508l1.35352-.69336c.25586.68262.82812,1.02344,1.71484,1.02344h.14355c.93066,0,1.39746-.30078,1.39746-.90234v-.11035c0-.23438-.08105-.43555-.24219-.60449-.16211-.16895-.39258-.27148-.69336-.30859l-1.19922-.14258c-.73242-.08789-1.29102-.31738-1.67188-.6875s-.57227-.87402-.57227-1.5127v-.13184c0-.4541.11719-.84863.35254-1.18262.23438-.33301.56641-.5918.99512-.77539.42969-.18359.93359-.27441,1.5127-.27441h.16504c.7041,0,1.29785.14062,1.78223.42285.4834.28223.83203.69141,1.04492,1.22656l-1.4082.59375c-.19824-.5791-.6748-.86816-1.42969-.86816h-.14355c-.39551,0-.70508.07617-.92969.23047-.22266.1543-.33496.35938-.33496.61621v.10938c0,.44824.30762.71191.92383.79199l1.19922.14355c.74805.08789,1.31055.33398,1.68848.7373.37695.40332.56641.92773.56641,1.57227v.13281c0,.7334-.25684,1.2998-.76953,1.69922-.51367.39941-1.25098.59961-2.21094.59961h-.16602Z"/>
          <path class="cls-2" d="m961.37598,434.1875c-1.60645,0-2.62891-.56836-3.06934-1.70508l1.35352-.69336c.25586.68262.82812,1.02344,1.71582,1.02344h.14355c.93066,0,1.39648-.30078,1.39648-.90234v-.11035c0-.23438-.08008-.43555-.24219-.60449-.16113-.16895-.39258-.27148-.69336-.30859l-1.19824-.14258c-.7334-.08789-1.29102-.31738-1.67285-.6875-.38086-.37012-.57129-.87402-.57129-1.5127v-.13184c0-.4541.11719-.84863.35254-1.18262.23438-.33301.56641-.5918.99512-.77539s.93262-.27441,1.5127-.27441h.16406c.70508,0,1.29883.14062,1.7832.42285.4834.28223.83203.69141,1.04492,1.22656l-1.4082.59375c-.19824-.5791-.67578-.86816-1.42969-.86816h-.14355c-.39551,0-.70605.07617-.92969.23047s-.33496.35938-.33496.61621v.10938c0,.44824.30762.71191.92383.79199l1.19922.14355c.74805.08789,1.31055.33398,1.6875.7373.37793.40332.56641.92773.56641,1.57227v.13281c0,.7334-.25586,1.2998-.76953,1.69922s-1.25.59961-2.21094.59961h-.16504Z"/>
          <path class="cls-2" d="m971.55078,434.0332v-1.39746h-3.65234v-1.1875l3.6416-4.9834h1.45215v4.88477h.99023l-.1875,1.28613h-.80273v1.39746h-1.44141Zm0-2.68359v-2.9043l-2.12305,2.9043h2.12305Z"/>
        </g>
        <g>
          <path class="cls-6" d="m1060.64062,394.43359v-7.7002h2.91406c.89453,0,1.60449.20898,2.12891.62695s.78711.99805.78711,1.73828v.20898c0,.52051-.12695.96094-.38086,1.32031-.25195.35938-.60547.63086-1.06055.81348l1.68262,2.99219h-1.74902l-1.51758-2.75h-1.19922v2.75h-1.60547Zm1.60547-4.13574h1.26562c.38867,0,.71094-.07324.9668-.2207.25781-.14648.38574-.3916.38574-.73633v-.27539c0-.33008-.12793-.57031-.38574-.7207-.25586-.14941-.57812-.22559-.9668-.22559h-1.26562v2.17871Z"/>
          <path class="cls-6" d="m1069.94629,394.58789c-.86523,0-1.53613-.24609-2.0127-.7373s-.71484-1.18457-.71484-2.0791v-.33008c0-.89453.24219-1.59082.72559-2.08984s1.15137-.74805,2.00195-.74805h.08789c.80664,0,1.43555.24414,1.88672.73145.4502.48828.67676,1.16016.67676,2.01855v.69336h-3.86133c.05078.87207.45508,1.30859,1.20996,1.30859h.15332c.58008,0,.98633-.19434,1.22168-.58301l1.11035.7373c-.20508.33691-.51074.60156-.91797.79199-.40625.19043-.875.28613-1.40234.28613h-.16504Zm-1.19922-3.5752h2.35449v-.0332c0-.7627-.35547-1.14355-1.06738-1.14355h-.08789c-.7041,0-1.10449.3916-1.19922,1.17676Z"/>
          <path class="cls-6" d="m1075.79883,394.58789c-1.32031,0-2.15234-.43262-2.49805-1.29785l1.19922-.60547c.10352.21973.25684.38379.46289.48926.20508.10645.48633.16016.8457.16016h.14355c.63086,0,.94629-.16504.94629-.49512v-.04395c0-.2793-.18359-.44434-.55078-.49512l-1.14355-.1543c-.55762-.08008-.98438-.26172-1.28125-.54395-.29785-.28223-.44629-.66211-.44629-1.13867v-.11035c0-.54297.20703-.96973.62207-1.28125.41406-.31152.96582-.46777,1.65527-.46777h.16602c.57129,0,1.05469.1123,1.45117.33594s.68164.54102.85742.95117l-1.2207.53906c-.17578-.38086-.54297-.57227-1.09961-.57227h-.14258c-.53516,0-.80273.1582-.80273.47363v.04395c0,.11719.03906.21094.12012.28027s.21289.11914.39551.14844l1.18848.16504c.5498.07324.97363.26562,1.27051.57715s.44531.70605.44531,1.18262v.11035c0,.5791-.20508,1.01562-.61523,1.30859-.41113.29297-1.01172.44043-1.80469.44043h-.16406Z"/>
          <path class="cls-6" d="m1079.37305,387.95508v-1.54004h1.58398v1.54004h-1.58398Zm.02148,6.47852v-5.67578h1.54102v5.67578h-1.54102Z"/>
          <path class="cls-6" d="m1084.43359,394.58789c-.45508,0-.8623-.1084-1.22168-.3252-.35938-.21582-.63965-.53711-.84082-.96191-.20312-.42578-.30273-.94238-.30273-1.55078v-.33008c0-.60938.09961-1.12207.30273-1.54004.20117-.41797.48145-.73535.84082-.95215.35938-.21582.7666-.32422,1.22168-.32422h.07617c.68164,0,1.21387.22754,1.5957.68164v-2.88184h1.53906v8.03027h-1.3418v-.7041c-.38867.57227-.98633.8584-1.79297.8584h-.07617Zm.40625-1.32031h.08789c.19824,0,.38867-.0498.57227-.14844s.33398-.25879.45117-.47852.17578-.50977.17578-.86914v-.35156c0-.35938-.06055-.64941-.18164-.86914s-.27344-.37988-.45703-.47852c-.18262-.09961-.36914-.14844-.56055-.14844h-.08789c-.35156,0-.64551.11719-.87988.35156-.23535.23535-.35254.6123-.35254,1.13281v.36328c0,.52051.11719.90039.35254,1.13867.23438.23828.52832.35742.87988.35742Z"/>
          <path class="cls-6" d="m1091.50586,394.58789c-.86523,0-1.53711-.24609-2.01367-.7373s-.71484-1.18457-.71484-2.0791v-.33008c0-.89453.24219-1.59082.72656-2.08984s1.15137-.74805,2.00195-.74805h.08789c.80664,0,1.43555.24414,1.88672.73145.45117.48828.67578,1.16016.67578,2.01855v.69336h-3.86035c.05176.87207.4541,1.30859,1.20996,1.30859h.1543c.5791,0,.98633-.19434,1.2207-.58301l1.11133.7373c-.20508.33691-.51172.60156-.91895.79199s-.87402.28613-1.40234.28613h-.16504Zm-1.19922-3.5752h2.35352v-.0332c0-.7627-.35547-1.14355-1.06641-1.14355h-.08789c-.7041,0-1.10352.3916-1.19922,1.17676Z"/>
          <path class="cls-6" d="m1095.24609,394.43359v-5.67578h1.3418v.7041c.19043-.27148.43457-.48242.73145-.63281s.62793-.22559.99512-.22559h.11035c.64551,0,1.15723.2002,1.53418.59961.37793.39941.56641.96973.56641,1.71094v3.51953h-1.53906v-3.31055c0-.38184-.08008-.67676-.2373-.88574s-.40527-.31348-.74219-.31348h-.08789c-.18359,0-.36133.04785-.53418.14258-.17188.0957-.31445.24219-.42871.44043s-.1709.45801-.1709.78027v3.14648h-1.53906Z"/>
          <path class="cls-6" d="m1104.61719,394.5c-.78418,0-1.33984-.16895-1.66602-.50684-.32617-.33691-.48926-.83887-.48926-1.50684v-2.44141h-1.18848v-1.28711h1.18848v-1.61719h1.54004v1.61719h1.74902l-.18652,1.28711h-1.5625v2.38672c0,.27148.06738.46777.20312.58887.13574.12012.32031.18066.55566.18066h.99023v1.29883h-1.13379Z"/>
          <path class="cls-6" d="m1109.76562,394.43359v-7.7002h5.11523v1.36426h-3.50879v1.77051h2.84863l-.18652,1.36426h-2.66211v1.83691h3.5752v1.36426h-5.18164Z"/>
          <path class="cls-6" d="m1117.47656,394.43359l-2.13281-5.67578h1.62695l1.22168,3.79492,1.25391-3.79492h1.52832l-2.13281,5.67578h-1.36523Z"/>
          <path class="cls-6" d="m1121.78906,387.95508v-1.54004h1.58398v1.54004h-1.58398Zm.02148,6.47852v-5.67578h1.54102v5.67578h-1.54102Z"/>
          <path class="cls-6" d="m1124.78125,394.43359v-8.03027h1.53906v8.03027h-1.53906Z"/>
          <path class="cls-6" d="m1133.74609,394.43359v-1.39746h-3.65234v-1.1875l3.64062-4.9834h1.45215v4.88477h.99023l-.18652,1.28613h-.80371v1.39746h-1.44043Zm0-2.68359v-2.9043l-2.12305,2.9043h2.12305Z"/>
          <path class="cls-2" d="m1092.09961,434.0332v-7.7002h2.91504c.89453,0,1.60449.20898,2.12793.62695.52539.41797.78711.99805.78711,1.73828v.20898c0,.52051-.12695.96094-.37988,1.32031s-.60645.63086-1.06152.81348l1.68359,2.99219h-1.75l-1.51758-2.75h-1.19922v2.75h-1.60547Zm1.60547-4.13574h1.26562c.38867,0,.71094-.07324.96777-.2207.25684-.14648.38574-.3916.38574-.73633v-.27539c0-.33008-.12891-.57031-.38574-.7207-.25684-.14941-.5791-.22559-.96777-.22559h-1.26562v2.17871Z"/>
          <path class="cls-2" d="m1100.84473,434.0332v-6.31445h-2.30957v-1.38574h6.22559v1.38574h-2.30957v6.31445h-1.60645Z"/>
        </g>
      </g>
      <line id="X-AXIS" class="cls-1" x1="24.40107" y1="370.6488" x2="1173.44856" y2="370.6488"/>
      <g id="Y-AXIS">
        <path class="cls-6" d="m13.69238,374.81934c-1.26074,0-2.2168-.38477-2.87012-1.15527-.65332-.76953-.98047-1.87305-.98047-3.31055v-1.03613c0-1.44629.32715-2.55273.98047-3.31836.65332-.76465,1.60938-1.14746,2.87012-1.14746h.12598c1.25977,0,2.2168.38281,2.87012,1.14746.65332.76562.97949,1.87207.97949,3.31836v1.03613c0,1.4375-.32617,2.54102-.97949,3.31055-.65332.77051-1.61035,1.15527-2.87012,1.15527h-.12598Zm0-1.75h.12598c1.23242,0,1.84766-.91504,1.84766-2.74414v-.97949c0-1.8291-.61523-2.74414-1.84766-2.74414h-.12598c-1.23145,0-1.84863.91504-1.84863,2.74414v.97949c0,1.8291.61719,2.74414,1.84863,2.74414Z"/>
        <g>
          <path class="cls-6" d="m3.59863,309.94922v-7.91016h-1.68066l.23828-1.72168h3.44434v9.63184h-2.00195Z"/>
          <path class="cls-6" d="m15.37305,309.94922l-2.22656-3.40234-2.22656,3.40234h-2.36523l3.37305-4.96973-3.26172-4.83008h2.42188l2.11426,3.2334,2.11426-3.2334h2.36621l-3.2627,4.83008,3.375,4.96973h-2.42188Z"/>
        </g>
        <g>
          <path class="cls-6" d="m.83984,244.58984v-1.4834c0-.67188.16406-1.27832.49023-1.82031.32715-.54102.78906-.96973,1.38672-1.28809l1.6377-.88184c.74707-.3916,1.12012-.87207,1.12012-1.44238v-.13965c0-.29785-.12109-.5459-.36426-.74121-.24316-.19727-.55078-.29492-.92383-.29492h-.06934c-.43945,0-.78711.08398-1.04297.25195-.25781.16797-.44727.43457-.56836.79883l-1.67969-.74219c.45703-1.34375,1.55859-2.01562,3.30469-2.01562h.1543c.96973,0,1.74023.24219,2.30957.72754s.85449,1.13867.85449,1.95996v.22363c0,.63477-.16211,1.17383-.48438,1.61719-.32129.44336-.86914.875-1.64453,1.29492l-1.44141.78418c-.56055.30859-.85938.7832-.89648,1.42773h4.49414v1.76367H.83984Z"/>
          <path class="cls-6" d="m15.37305,244.58984l-2.22656-3.40137-2.22656,3.40137h-2.36523l3.37305-4.96973-3.26172-4.8291h2.42188l2.11426,3.2334,2.11426-3.2334h2.36621l-3.2627,4.8291,3.375,4.96973h-2.42188Z"/>
        </g>
        <g>
          <path class="cls-6" d="m3.96289,180.20801c-1.79297,0-2.93164-.58789-3.41602-1.76367l1.6377-.72852c.22363.52344.78809.78418,1.69434.78418h.09766c.51367,0,.91406-.11133,1.2041-.33594.28906-.22363.43359-.52734.43359-.91016v-.15332c0-.38281-.14941-.68164-.44824-.89648s-.71289-.32227-1.24609-.32227h-1.30078v-1.65137h1.39941c.90527,0,1.3584-.36426,1.3584-1.0918v-.14062c0-.32617-.12695-.58301-.37891-.76953s-.60156-.28027-1.04883-.28027h-.07031c-.83984,0-1.36719.28027-1.58203.83984l-1.63867-.75586c.48535-1.19434,1.61523-1.79199,3.38867-1.79199h.1543c.625,0,1.17285.1123,1.64453.33594.4707.22363.83984.53711,1.10547.93848s.39941.87207.39941,1.41406v.18164c0,.37305-.08203.7207-.24512,1.04297-.16406.32227-.4043.59961-.7207.83301.81152.49512,1.21777,1.19043,1.21777,2.08594v.19629c0,.92383-.30371,1.64453-.91016,2.16309-.60645.51758-1.45605.77637-2.54785.77637h-.18164Z"/>
          <path class="cls-6" d="m15.37305,180.04004l-2.22656-3.40137-2.22656,3.40137h-2.36523l3.37305-4.96973-3.26172-4.83008h2.42188l2.11426,3.23438,2.11426-3.23438h2.36621l-3.2627,4.83008,3.375,4.96973h-2.42188Z"/>
        </g>
        <g>
          <path class="cls-6" d="m5.04102,114.69531v-1.77734H.39258v-1.5127l4.63379-6.3418h1.84863v6.21582h1.25977l-.23828,1.63867h-1.02148v1.77734h-1.83398Zm0-3.41602v-3.69531l-2.70312,3.69531h2.70312Z"/>
          <path class="cls-6" d="m15.37305,114.69531l-2.22656-3.40137-2.22656,3.40137h-2.36523l3.37305-4.96973-3.26172-4.83008h2.42188l2.11426,3.23438,2.11426-3.23438h2.36621l-3.2627,4.83008,3.375,4.96973h-2.42188Z"/>
        </g>
        <g>
          <path class="cls-6" d="m4.10254,49.26172c-1.78223,0-2.9209-.62012-3.41602-1.86133l1.6377-.72852c.24219.58789.79883.88184,1.66602.88184h.09766c.4668,0,.85156-.12598,1.15625-.37793.30273-.25195.45508-.56934.45508-.95215v-.16797c0-.43848-.16016-.79492-.47656-1.07031-.31738-.27539-.72852-.41309-1.23242-.41309h-.12598c-.5791,0-1.15723.20508-1.73535.61621l-1.20508-.53223.23828-5.19434h5.97852v1.76367H2.81445l-.09766,2.14258c.21484-.14062.47266-.25195.77734-.33594.30273-.08398.62305-.12598.95898-.12598h.15332c.59668,0,1.12695.13281,1.58887.39844.46289.2666.82422.62988,1.08496,1.09277.26074.46191.3916.99121.3916,1.58887v.2373c0,.60742-.1416,1.13965-.42578,1.59668-.28516.45703-.68164.81152-1.19043,1.06348s-1.09863.37793-1.77051.37793h-.18262Z"/>
          <path class="cls-6" d="m15.37305,49.09375l-2.22656-3.40137-2.22656,3.40137h-2.36523l3.37305-4.96973-3.26172-4.83008h2.42188l2.11426,3.23438,2.11426-3.23438h2.36621l-3.2627,4.83008,3.375,4.96973h-2.42188Z"/>
        </g>
      </g>
      <g>
        <polygon class="cls-2" points="127.71722 41.46775 153.40266 31.14112 153.40266 370.10467 127.71722 370.10467 127.71722 41.46775"/>
        <polygon class="cls-2" points="270.41412 41.39708 296.09956 31.10733 296.09956 370.10467 270.41412 370.10467 270.41412 41.39708"/>
        <rect class="cls-2" x="413.11101" y="58.23994" width="25.68544" height="311.86473"/>
        <polygon class="cls-2" points="555.80791 41.39708 581.49335 31.07045 581.49335 370.10467 555.80791 370.10467 555.80791 41.39708"/>
        <rect class="cls-2" x="698.50481" y="58.2817" width="25.68544" height="311.82297"/>
        <rect class="cls-2" x="841.2017" y="149.55887" width="25.68544" height="220.54581"/>
        <rect class="cls-2" x="983.8986" y="97.37662" width="25.68544" height="272.72805"/>
        <rect class="cls-2" x="1126.59549" y="273.49169" width="25.68544" height="96.61298"/>
      </g>
      <g>
        <rect class="cls-5" x="99.17784" y="187.55602" width="25.68544" height="182.54865"/>
        <rect class="cls-5" x="241.87474" y="195.21833" width="25.68544" height="174.88635"/>
        <rect class="cls-5" x="384.57164" y="227.83223" width="25.68544" height="142.27244"/>
        <rect class="cls-5" x="527.26853" y="195.21833" width="25.68544" height="174.88635"/>
        <rect class="cls-5" x="669.96543" y="240.71278" width="25.68544" height="129.39189"/>
        <rect class="cls-5" x="812.66232" y="260.44613" width="25.68544" height="109.65854"/>
        <rect class="cls-5" x="955.35922" y="240.87779" width="25.68544" height="129.22688"/>
        <rect class="cls-5" x="1098.05611" y="293.06003" width="25.68544" height="77.04464"/>
      </g>
      <g>
        <rect class="cls-3" x="70.63847" y="304.90873" width="25.68544" height="65.19595"/>
        <rect class="cls-3" x="213.33536" y="304.90873" width="25.68544" height="65.19595"/>
        <rect class="cls-3" x="356.03226" y="304.90873" width="25.68544" height="65.19595"/>
        <rect class="cls-3" x="498.72915" y="304.90873" width="25.68544" height="65.19595"/>
        <rect class="cls-3" x="641.42605" y="304.90873" width="25.68544" height="65.19595"/>
        <rect class="cls-3" x="784.12294" y="304.90873" width="25.68544" height="65.19595"/>
        <rect class="cls-3" x="926.81984" y="304.90873" width="25.68544" height="65.19595"/>
        <rect class="cls-3" x="1069.51673" y="304.90873" width="25.68544" height="65.19595"/>
      </g>
      <g>
        <rect class="cls-4" x="42.09909" y="329.5876" width="25.68544" height="40.51707"/>
        <rect class="cls-4" x="184.79598" y="330.33514" width="25.68544" height="39.76953"/>
        <rect class="cls-4" x="327.49288" y="331.54443" width="25.68544" height="38.56024"/>
        <rect class="cls-4" x="470.18977" y="328.28304" width="25.68544" height="41.82163"/>
        <rect class="cls-4" x="612.88667" y="320.45571" width="25.68544" height="49.64897"/>
        <rect class="cls-4" x="755.58356" y="317.84659" width="25.68544" height="52.25808"/>
        <rect class="cls-4" x="898.28046" y="336.11038" width="25.68544" height="33.99429"/>
        <rect class="cls-4" x="1040.97735" y="333.1992" width="25.68544" height="36.90547"/>
      </g>
      <polygon class="cls-2" points="127.71722 16.7045 153.40266 16.7045 153.40266 26.37787 127.71722 36.7045 127.71722 16.7045"/>
      <polygon class="cls-2" points="270.41412 16.63383 296.09956 16.63383 296.09956 26.3072 270.41412 36.63383 270.41412 16.63383"/>
      <polygon class="cls-2" points="555.80791 16.63383 581.49335 16.63383 581.49335 26.3072 555.80791 36.63383 555.80791 16.63383"/>
    </g>
  </g>
</svg>