<?xml version="1.0" encoding="UTF-8"?><svg id="Artwork" xmlns="http://www.w3.org/2000/svg" viewBox="0 0 418.21 216"><defs><style>.cls-1{fill:#fff;}.cls-2{fill:#76b900;}</style></defs><g id="G-Sync"><g id="NVIDIA_Logo"><path id="Eye_Mark" class="cls-2" d="M69.86,59.78v-4.18c.41-.03,.81-.05,1.23-.06,11.42-.36,18.91,9.81,18.91,9.81,0,0-8.09,11.24-16.77,11.24-1.25,0-2.37-.2-3.38-.54v-12.66c4.45,.54,5.34,2.5,8.01,6.96l5.94-5.01s-4.34-5.69-11.65-5.69c-.8,0-1.56,.06-2.3,.14m0-13.79v6.24c.41-.03,.82-.06,1.23-.07,15.88-.54,26.23,13.02,26.23,13.02,0,0-11.88,14.45-24.27,14.45-1.13,0-2.2-.1-3.19-.28v3.86c.85,.11,1.74,.17,2.66,.17,11.52,0,19.85-5.88,27.92-12.85,1.34,1.07,6.81,3.68,7.94,4.82-7.67,6.42-25.55,11.6-35.69,11.6-.98,0-1.92-.06-2.84-.15v5.42h43.79V45.98h-43.79Zm0,30.07v3.29c-10.66-1.9-13.61-12.98-13.61-12.98,0,0,5.12-5.67,13.61-6.59v3.61h-.02c-4.46-.54-7.94,3.63-7.94,3.63,0,0,1.95,7.01,7.96,9.03m-18.93-10.17s6.32-9.32,18.93-10.28v-3.38c-13.97,1.12-26.06,12.95-26.06,12.95,0,0,6.85,19.81,26.06,21.62v-3.59c-14.1-1.77-18.93-17.31-18.93-17.31Z"/><path id="NVIDIA" class="cls-1" d="M192.53,54.72v30.34h8.57v-30.34h-8.57Zm-67.41-.04v30.38h8.65v-23.07h6.7c2.22,0,3.8,.55,4.87,1.7,1.36,1.44,1.91,3.77,1.91,8.03v13.34h8.38v-16.79c0-11.98-7.64-13.6-15.11-13.6h-15.39m81.21,.04v30.34h13.9c7.41,0,9.82-1.23,12.44-3.99,1.85-1.94,3.04-6.19,3.04-10.84,0-4.26-1.01-8.07-2.77-10.44-3.17-4.24-7.75-5.07-14.58-5.07h-12.03Zm8.5,6.61h3.68c5.35,0,8.8,2.4,8.8,8.63s-3.46,8.63-8.8,8.63h-3.68v-17.26Zm-34.65-6.61l-7.15,24.05-6.85-24.05h-9.25l9.79,30.34h12.35l9.86-30.34h-8.75Zm59.52,30.34h8.57v-30.34h-8.57v30.34Zm24.02-30.33l-11.97,30.32h8.45l1.89-5.36h14.16l1.79,5.36h9.17l-12.06-30.32h-11.45Zm5.56,5.53l5.19,14.2h-10.55l5.35-14.2Z"/></g><path class="cls-1" d="M90.08,135.87h22.46v26.96c-2.71,2.13-5.99,3.79-9.85,4.97-3.86,1.18-8.09,1.77-12.7,1.77h-.86c-9.22,0-16.2-2.49-20.95-7.47-4.75-4.98-7.13-12.28-7.13-21.9v-3.63c0-6.22,1.08-11.55,3.24-15.98,2.16-4.43,5.26-7.83,9.29-10.2,4.03-2.36,8.81-3.54,14.34-3.54h.95c5.64,0,10.42,1.21,14.34,3.63,3.92,2.42,6.71,5.93,8.38,10.54l-9.07,3.2c-1.9-5.82-6.48-8.73-13.74-8.73h-.78c-5.41,0-9.61,1.81-12.57,5.44-2.97,3.63-4.45,8.78-4.45,15.47v4.06c0,13.65,6.02,20.48,18.06,20.48h.78c2.59,0,5.02-.24,7.3-.73,2.27-.49,4.25-1.2,5.92-2.12v-13.91h-14.08l1.12-8.29Zm31.79,11.75h25.4v-8.9h-25.4v8.9Zm62.81-13.82l-10.2-1.47c-5.82-.92-8.73-3.51-8.73-7.78v-1.04c0-2.48,1.07-4.46,3.2-5.96,2.13-1.5,5.04-2.25,8.73-2.25h1.04c6.8,0,11.17,2.62,13.13,7.86l8.64-3.72c-1.61-4.09-4.29-7.21-8.04-9.37-3.75-2.16-8.29-3.24-13.65-3.24h-1.21c-4.32,0-8.11,.69-11.36,2.07-3.25,1.38-5.79,3.33-7.6,5.83-1.81,2.51-2.72,5.46-2.72,8.86v1.04c0,9.5,5.56,15,16.68,16.5l10.19,1.55c3.05,.4,5.3,1.37,6.74,2.89,1.44,1.53,2.16,3.47,2.16,5.83v.95c0,2.82-1.12,4.97-3.37,6.44s-5.44,2.2-9.59,2.2h-1.04c-3.92,0-7.11-.75-9.59-2.25-2.48-1.5-4.35-3.74-5.62-6.74l-8.29,4.32c3.46,8.81,11.32,13.22,23.59,13.22h1.21c7.14,0,12.69-1.53,16.63-4.58,3.94-3.05,5.92-7.31,5.92-12.79v-1.04c0-4.78-1.4-8.68-4.19-11.71-2.79-3.02-7.01-4.91-12.66-5.66Zm44.67,1.38l-15.21-27.22h-11.15l21.17,36.29v24.19h9.85v-24.19l21.25-36.29h-10.8l-15.12,27.22Zm73.09,16.59l-30.76-43.8h-8.73v60.48h9.42v-43.89l30.76,43.89h8.73v-60.48h-9.42v43.8Zm62.98-.17c-.98,3.11-2.71,5.44-5.18,7-2.48,1.56-5.47,2.33-8.99,2.33h-.78c-5.47,0-9.66-1.73-12.57-5.18-2.91-3.46-4.36-8.64-4.36-15.55v-4.06c0-6.74,1.5-11.87,4.49-15.38,2.99-3.51,7.14-5.27,12.44-5.27h.78c3.4,0,6.29,.79,8.68,2.38,2.39,1.58,4.07,3.99,5.05,7.21l9.16-3.2c-1.61-4.78-4.38-8.48-8.29-11.1-3.92-2.62-8.78-3.93-14.6-3.93h-.86c-5.59,0-10.38,1.2-14.39,3.59-4,2.39-7.07,5.79-9.2,10.19-2.13,4.41-3.2,9.63-3.2,15.68v3.63c0,9.39,2.29,16.68,6.87,21.86,4.58,5.18,11.22,7.78,19.92,7.78h.86c5.76,0,10.64-1.27,14.65-3.8,4-2.53,6.84-6.1,8.51-10.71l-8.99-3.46Z"/></g></svg>