<?xml version="1.0" encoding="UTF-8"?><svg id="LOGO" xmlns="http://www.w3.org/2000/svg" xmlns:xlink="http://www.w3.org/1999/xlink" viewBox="0 0 1250 703"><defs><radialGradient id="radial-gradient" cx="1654.901" cy="2223.455" fx="1654.901" fy="2223.455" r=".26" gradientTransform="translate(-2997672.481 207931.464) rotate(56.695) scale(889.83 -1178.15)" gradientUnits="userSpaceOnUse"><stop offset="0" stop-color="#ffaf27"/><stop offset=".564" stop-color="#de00b2"/><stop offset="1" stop-color="#2f21fa"/></radialGradient><radialGradient id="radial-gradient-2" r=".26" xlink:href="#radial-gradient"/><radialGradient id="radial-gradient-3" cx="1654.901" cy="2223.455" fx="1654.901" fy="2223.455" r=".26" xlink:href="#radial-gradient"/><radialGradient id="radial-gradient-4" cx="1654.901" cy="2223.455" fx="1654.901" fy="2223.455" r=".26" xlink:href="#radial-gradient"/><radialGradient id="radial-gradient-5" cx="1654.901" fx="1654.901" r=".26" xlink:href="#radial-gradient"/><radialGradient id="radial-gradient-6" cy="2223.455" fy="2223.455" r=".26" xlink:href="#radial-gradient"/><radialGradient id="radial-gradient-7" cx="1654.901" cy="2223.455" fx="1654.901" fy="2223.455" r=".26" xlink:href="#radial-gradient"/><radialGradient id="radial-gradient-8" cx="1654.901" cy="2223.455" fx="1654.901" fy="2223.455" r=".26" xlink:href="#radial-gradient"/><radialGradient id="radial-gradient-9" cx="1654.901" cy="2223.455" fx="1654.901" fy="2223.455" r=".26" xlink:href="#radial-gradient"/><radialGradient id="radial-gradient-10" cx="1654.901" fx="1654.901" r=".26" xlink:href="#radial-gradient"/><radialGradient id="radial-gradient-11" cx="1654.901" cy="2223.455" fx="1654.901" fy="2223.455" r=".26" xlink:href="#radial-gradient"/><radialGradient id="radial-gradient-12" cx="1654.901" fx="1654.901" r=".26" xlink:href="#radial-gradient"/><radialGradient id="radial-gradient-13" cx="1654.901" cy="2223.455" fx="1654.901" fy="2223.455" r=".26" xlink:href="#radial-gradient"/><radialGradient id="radial-gradient-14" cx="1654.901" cy="2223.455" fx="1654.901" fy="2223.455" r=".26" xlink:href="#radial-gradient"/><radialGradient id="radial-gradient-15" cx="1654.901" fx="1654.901" r=".26" xlink:href="#radial-gradient"/><radialGradient id="radial-gradient-16" r=".26" xlink:href="#radial-gradient"/><radialGradient id="radial-gradient-17" cx="1654.901" cy="2223.455" fx="1654.901" fy="2223.455" r=".26" xlink:href="#radial-gradient"/><radialGradient id="radial-gradient-18" cx="1654.901" cy="2223.455" fx="1654.901" fy="2223.455" r=".26" xlink:href="#radial-gradient"/><radialGradient id="radial-gradient-19" cx="1654.901" fx="1654.901" r=".26" xlink:href="#radial-gradient"/><radialGradient id="radial-gradient-20" cy="2223.455" fy="2223.455" r=".26" xlink:href="#radial-gradient"/><radialGradient id="radial-gradient-21" cx="1654.901" cy="2223.455" fx="1654.901" fy="2223.455" r=".26" xlink:href="#radial-gradient"/><radialGradient id="radial-gradient-22" cx="1654.901" cy="2223.455" fx="1654.901" fy="2223.455" r=".26" xlink:href="#radial-gradient"/><radialGradient id="radial-gradient-23" cx="1654.901" cy="2223.455" fx="1654.901" fy="2223.455" r=".26" xlink:href="#radial-gradient"/><radialGradient id="radial-gradient-24" cx="1654.901" fx="1654.901" r=".26" xlink:href="#radial-gradient"/><radialGradient id="radial-gradient-25" cx="1654.901" cy="2223.455" fx="1654.901" fy="2223.455" r=".26" xlink:href="#radial-gradient"/><radialGradient id="radial-gradient-26" cx="1654.901" fx="1654.901" r=".26" xlink:href="#radial-gradient"/><radialGradient id="radial-gradient-27" cx="1654.901" cy="2223.455" fx="1654.901" fy="2223.455" r=".26" xlink:href="#radial-gradient"/><radialGradient id="radial-gradient-28" cx="1654.901" cy="2223.455" fx="1654.901" fy="2223.455" r=".26" xlink:href="#radial-gradient"/><radialGradient id="radial-gradient-29" cx="1654.901" fx="1654.901" r=".26" xlink:href="#radial-gradient"/></defs><path d="M352.651,393.216l11.375-.651c21.449-1.302,26.162-8.14,21.612-28.816,0,0-14.3,11.559-19.825,15.629-11.375,8.628-18.85,7-28.437-5.861l-17.062-23.932,6.5,28.653c4.225,16.117,8.287,14.978,25.837,14.978Z" fill="url(#radial-gradient)"/><path d="M328.114,411.613l10.725,4.07c20.15,7.652,27.137,3.256,31.524-17.583,0,0-17.712,4.721-24.374,6.186-13.975,3.256-20.15-1.302-23.562-16.931l-5.85-28.816-5.687,28.653c-3.087,16.769.975,17.257,17.225,24.42Z" fill="url(#radial-gradient-2)"/><path d="M298.052,418.451l8.125,8.14c15.275,15.141,23.399,14.001,35.912-3.256,0,0-18.037-2.93-24.862-4.233-13.975-2.605-17.875-9.443-14.625-25.072l6.337-28.653-16.899,23.932c-9.425,13.838-6.012,16.117,6.012,29.141Z" fill="url(#radial-gradient-3)"/><path d="M267.828,412.427l4.062,10.582c7.8,20.187,15.762,22.304,34.124,11.722,0,0-15.275-10.094-20.962-14.001-11.7-8.14-12.512-15.792-3.25-28.979l17.387-23.606-25.187,14.978c-14.137,9.117-11.862,12.536-6.175,29.304Z" fill="url(#radial-gradient-4)"/><path d="M242.64,394.682l-.65,11.396c-.975,21.653,5.362,26.862,26.487,24.583,0,0-9.912-15.466-13.487-21.327-7.475-12.21-4.875-19.536,8.775-27.676l25.512-14.489-29.087,3.419c-16.574,2.442-15.925,6.512-17.549,24.095Z" fill="url(#radial-gradient-5)"/><path d="M226.716,368.145l-5.2,10.257c-9.75,19.373-6.012,26.699,14.137,33.212,0,0-2.762-18.071-3.737-24.909-1.787-14.164,3.412-19.862,19.337-21.816l29.249-2.768-27.949-8.628c-15.925-4.721-17.062-.651-25.837,14.652Z" fill="url(#radial-gradient-6)"/><path d="M223.141,337.538l-8.775,7.163c-16.737,13.676-16.412,21.978-.65,36.142,0,0,4.875-17.745,6.825-24.257,4.062-13.676,11.212-16.769,26.487-12.047l27.787,9.28-21.937-19.373c-13-10.745-15.437-7.489-29.737,3.093Z" fill="url(#radial-gradient-7)"/><path d="M232.241,307.908l-11.05,2.93c-20.8,5.698-23.887,13.35-15.275,32.723,0,0,11.537-14.164,16.087-19.374,9.262-10.908,17.062-10.745,29.087-.163l21.612,19.862-12.187-26.537c-7.312-15.141-11.05-13.187-28.274-9.443Z" fill="url(#radial-gradient-8)"/><path d="M252.553,284.79l-11.212-1.791c-21.287-3.256-27.137,2.442-27.137,23.769,0,0,16.412-8.303,22.587-11.233,12.837-6.186,19.987-2.931,26.649,11.722l11.7,26.862-.325-29.304c-.813-16.769-5.037-16.443-22.262-20.025Z" fill="url(#radial-gradient-9)"/><path d="M280.502,271.766l-9.587-6.187c-18.2-11.722-25.837-8.791-34.449,10.582,0,0,18.362-.814,25.187-.977,14.3-.326,19.337,5.535,19.662,21.49l-.325,29.304,11.537-26.862c6.175-15.629,2.275-16.931-12.025-27.351Z" fill="url(#radial-gradient-10)"/><path d="M311.377,271.441l-6.175-9.605c-11.862-18.071-19.987-18.559-35.749-4.396,0,0,17.062,6.675,23.399,9.28,13.162,5.535,15.437,12.861,9.1,27.676l-12.187,26.7,21.45-19.862c12.025-11.722,9.1-14.652.163-29.793Z" fill="url(#radial-gradient-11)"/><path d="M339.651,283.488l-1.787-11.233c-3.575-21.327-10.725-25.072-30.874-18.559,0,0,12.837,13.024,17.549,18.071,9.75,10.419,8.937,18.071-2.762,28.979l-21.937,19.374,27.625-9.443c15.762-5.698,14.137-9.605,12.187-27.188Z" fill="url(#radial-gradient-12)"/><path d="M360.614,306.28l2.925-11.071c5.525-20.839.325-27.351-20.8-29.63,0,0,6.5,17.094,8.775,23.606,4.712,13.512.812,20.187-14.3,25.397l-27.949,8.791,29.087,2.768c16.737,1.14,16.9-3.093,22.262-19.862Z" fill="url(#radial-gradient-13)"/><path d="M370.526,335.422l7.15-8.954c13.487-16.931,11.375-24.909-6.987-35.491,0,0-.975,18.397-1.625,25.235-1.138,14.326-7.475,18.722-23.4,17.257l-29.087-3.419,25.512,14.327c14.95,7.977,16.737,4.233,28.437-8.954Z" fill="url(#radial-gradient-14)"/><path d="M367.763,366.191l10.075-5.21c19.175-9.931,20.475-18.071,8.125-35.165,0,0-8.45,16.28-11.7,22.304-6.825,12.536-14.462,14.001-28.437,6.186l-25.187-14.978,17.55,23.443c10.237,13.35,13.487,10.745,29.574,3.419Z" fill="url(#radial-gradient-15)"/><path d="M352.651,393.216l11.375-.651c21.449-1.302,26.162-8.14,21.612-28.816,0,0-14.3,11.559-19.825,15.629-11.375,8.628-18.85,7-28.437-5.861l-17.062-23.932,6.5,28.653c4.225,16.117,8.287,14.978,25.837,14.978Z" fill="url(#radial-gradient)"/><path d="M328.114,411.613l10.725,4.07c20.15,7.652,27.137,3.256,31.524-17.583,0,0-17.712,4.721-24.374,6.186-13.975,3.256-20.15-1.302-23.562-16.931l-5.85-28.816-5.687,28.653c-3.087,16.769.975,17.257,17.225,24.42Z" fill="url(#radial-gradient-16)"/><path d="M298.052,418.451l8.125,8.14c15.275,15.141,23.399,14.001,35.912-3.256,0,0-18.037-2.93-24.862-4.233-13.975-2.605-17.875-9.443-14.625-25.072l6.337-28.653-16.899,23.932c-9.425,13.838-6.012,16.117,6.012,29.141Z" fill="url(#radial-gradient-17)"/><path d="M267.828,412.427l4.062,10.582c7.8,20.187,15.762,22.304,34.124,11.722,0,0-15.275-10.094-20.962-14.001-11.7-8.14-12.512-15.792-3.25-28.979l17.387-23.606-25.187,14.978c-14.137,9.117-11.862,12.536-6.175,29.304Z" fill="url(#radial-gradient-18)"/><path d="M242.64,394.682l-.65,11.396c-.975,21.653,5.362,26.862,26.487,24.583,0,0-9.912-15.466-13.487-21.327-7.475-12.21-4.875-19.536,8.775-27.676l25.512-14.489-29.087,3.419c-16.574,2.442-15.925,6.512-17.549,24.095Z" fill="url(#radial-gradient-19)"/><path d="M226.716,368.145l-5.2,10.257c-9.75,19.373-6.012,26.699,14.137,33.212,0,0-2.762-18.071-3.737-24.909-1.787-14.164,3.412-19.862,19.337-21.816l29.249-2.768-27.949-8.628c-15.925-4.721-17.062-.651-25.837,14.652Z" fill="url(#radial-gradient-20)"/><path d="M223.141,337.538l-8.775,7.163c-16.737,13.676-16.412,21.978-.65,36.142,0,0,4.875-17.745,6.825-24.257,4.062-13.676,11.212-16.769,26.487-12.047l27.787,9.28-21.937-19.373c-13-10.745-15.437-7.489-29.737,3.093Z" fill="url(#radial-gradient-21)"/><path d="M232.241,307.908l-11.05,2.93c-20.8,5.698-23.887,13.35-15.275,32.723,0,0,11.537-14.164,16.087-19.374,9.262-10.908,17.062-10.745,29.087-.163l21.612,19.862-12.187-26.537c-7.312-15.141-11.05-13.187-28.274-9.443Z" fill="url(#radial-gradient-22)"/><path d="M252.553,284.79l-11.212-1.791c-21.287-3.256-27.137,2.442-27.137,23.769,0,0,16.412-8.303,22.587-11.233,12.837-6.186,19.987-2.931,26.649,11.722l11.7,26.862-.325-29.304c-.813-16.769-5.037-16.443-22.262-20.025Z" fill="url(#radial-gradient-23)"/><path d="M280.502,271.766l-9.587-6.187c-18.2-11.722-25.837-8.791-34.449,10.582,0,0,18.362-.814,25.187-.977,14.3-.326,19.337,5.535,19.662,21.49l-.325,29.304,11.537-26.862c6.175-15.629,2.275-16.931-12.025-27.351Z" fill="url(#radial-gradient-24)"/><path d="M311.377,271.441l-6.175-9.605c-11.862-18.071-19.987-18.559-35.749-4.396,0,0,17.062,6.675,23.399,9.28,13.162,5.535,15.437,12.861,9.1,27.676l-12.187,26.7,21.45-19.862c12.025-11.722,9.1-14.652.163-29.793Z" fill="url(#radial-gradient-25)"/><path d="M339.651,283.488l-1.787-11.233c-3.575-21.327-10.725-25.072-30.874-18.559,0,0,12.837,13.024,17.549,18.071,9.75,10.419,8.937,18.071-2.762,28.979l-21.937,19.374,27.625-9.443c15.762-5.698,14.137-9.605,12.187-27.188Z" fill="url(#radial-gradient-26)"/><path d="M360.614,306.28l2.925-11.071c5.525-20.839.325-27.351-20.8-29.63,0,0,6.5,17.094,8.775,23.606,4.712,13.512.812,20.187-14.3,25.397l-27.949,8.791,29.087,2.768c16.737,1.14,16.9-3.093,22.262-19.862Z" fill="url(#radial-gradient-27)"/><path d="M370.526,335.422l7.15-8.954c13.487-16.931,11.375-24.909-6.987-35.491,0,0-.975,18.397-1.625,25.235-1.138,14.326-7.475,18.722-23.4,17.257l-29.087-3.419,25.512,14.327c14.95,7.977,16.737,4.233,28.437-8.954Z" fill="url(#radial-gradient-28)"/><path d="M367.763,366.191l10.075-5.21c19.175-9.931,20.475-18.071,8.125-35.165,0,0-8.45,16.28-11.7,22.304-6.825,12.536-14.462,14.001-28.437,6.186l-25.187-14.978,17.55,23.443c10.237,13.35,13.487,10.745,29.574,3.419Z" fill="url(#radial-gradient-29)"/><path d="M530.304,418.84c-10.156,0-19.558-1.886-28.585-5.66-9.027-3.773-16.55-9.055-23.318-15.847-6.771-6.791-12.038-14.715-15.798-23.77-3.761-9.055-5.642-18.488-5.642-29.053s1.881-19.997,5.642-29.052c3.76-9.055,9.027-16.601,15.798-23.393,6.768-6.791,14.669-12.074,23.693-15.847,9.027-3.773,18.806-5.66,29.337-5.66,11.66,0,22.566,2.264,32.723,6.792,9.779,4.528,18.054,10.565,24.448,18.865l-18.806,18.865c-4.512-6.037-10.154-10.187-16.55-13.583-6.768-3.019-13.914-4.528-21.814-4.528-9.027,0-17.299,1.886-24.07,6.037-7.146,4.15-12.412,9.433-16.55,16.601-3.76,7.169-6.016,15.469-6.016,24.902s1.879,18.111,5.642,25.28c3.76,7.169,9.027,12.828,15.795,16.979,6.771,4.15,14.294,6.037,22.944,6.037,9.027,0,16.55-1.509,22.944-4.905,6.394-3.396,11.283-8.3,14.669-14.714,3.385-6.414,5.264-14.338,5.264-23.77l18.054,12.451-62.434-.755v-24.147h72.966v3.773c0,16.979-3.008,31.316-9.027,43.012-6.016,11.319-14.669,19.997-25.2,26.034-9.779,6.037-22.189,9.055-36.105,9.055Z" fill="#070707"/><path d="M659.339,418.84c-8.972,0-16.823-2.267-23.925-6.801-7.104-4.534-12.712-10.58-16.823-18.514-4.111-7.935-5.982-16.625-5.982-26.071,0-9.824,1.871-18.514,5.982-26.449,4.111-7.935,9.719-13.98,16.823-18.514,7.101-4.534,15.327-6.801,23.925-6.801,7.104,0,13.459,1.511,18.692,4.156,5.608,3.023,10.094,6.801,13.084,12.091,3.365,5.29,5.233,10.958,5.233,17.381v35.517c-.372,6.423-2.243,12.469-5.233,17.381-3.365,4.912-7.851,9.068-13.084,12.091-5.233,3.023-11.588,4.534-18.692,4.534ZM664.2,394.281c7.476,0,13.456-2.645,17.942-7.557,4.486-4.912,6.729-11.335,6.729-19.27,0-5.29-1.122-9.824-2.99-13.98-2.243-4.156-4.861-7.179-8.598-9.446-3.739-2.267-8.226-3.401-13.084-3.401s-8.972,1.134-12.712,3.401c-3.739,2.267-6.729,5.29-8.598,9.446-2.243,4.156-2.99,8.691-2.99,13.98s1.122,9.824,2.99,13.98c2.243,4.156,4.858,7.179,8.598,9.446,3.739,2.267,7.851,3.401,12.712,3.401ZM687.75,416.951v-26.449l4.111-24.182-4.111-23.804v-24.182h26.17v98.617h-26.17Z" fill="#070707"/><path d="M735.102,416.998v-147.359h26.709v147.359h-26.709Z" fill="#070707"/><path d="M796.347,302.394c-4.559,0-7.978-1.508-11.018-4.524-3.039-3.016-4.179-6.409-4.179-10.933,0-4.147,1.52-7.917,4.179-10.933,3.039-3.016,6.459-4.524,11.018-4.524s8.358,1.508,11.018,4.524c2.659,3.016,4.179,6.786,4.179,10.933,0,4.524-1.52,7.917-4.179,10.933-3.039,3.016-6.459,4.524-11.018,4.524ZM782.67,416.998v-98.394h26.974v98.394h-26.974Z" fill="#070707"/><path d="M830.883,416.998v-147.359h26.709v147.359h-26.709Z" fill="#070707"/><path d="M926.095,418.84c-10.151,0-19.55-2.267-27.445-6.801-7.898-4.534-14.289-10.579-19.176-18.136-4.512-7.935-7.146-16.625-7.146-26.449s2.256-18.514,6.768-26.449c4.512-7.557,10.903-13.98,18.801-18.514,7.895-4.534,16.542-6.801,26.319-6.801,9.399,0,18.046,2.267,25.189,6.424,7.146,4.156,12.785,10.202,16.919,17.758,4.138,7.557,6.394,15.869,6.394,25.315,0,1.889,0,3.401-.377,5.29-.375,1.889-.752,3.779-1.127,6.424l-82.719.378v-20.026l70.311-.378-10.906,8.312c-.375-6.045-1.504-10.579-3.005-14.735-1.881-3.779-4.512-6.801-7.898-9.068-3.383-2.267-7.518-3.023-12.782-3.023s-9.776,1.134-13.911,3.401c-3.76,2.267-6.768,5.667-9.024,10.201-2.256,4.156-3.008,9.446-3.008,15.114,0,6.045,1.127,11.336,3.383,15.492,2.256,4.534,5.642,7.935,9.776,10.202,4.135,2.267,9.024,3.401,14.663,3.401,4.887,0,9.399-.756,13.537-2.645,4.135-1.889,7.52-4.156,10.526-7.557l15.793,15.87c-4.887,5.668-10.528,9.824-17.297,12.847-7.143,2.645-14.663,4.156-22.558,4.156Z" fill="#070707"/><path d="M1033.691,418.84c-9.784,0-18.814-2.267-26.717-6.801-7.903-4.534-14.302-10.958-18.816-18.514-4.517-7.935-7.151-16.625-7.151-26.449s2.259-18.514,6.773-26.071c4.517-7.557,10.914-13.98,18.816-18.514,7.903-4.534,16.935-6.801,26.719-6.801,10.159,0,19.191,2.267,27.094,6.801s14.302,10.58,18.816,18.514c4.515,7.557,6.774,16.247,6.774,26.071s-2.259,18.514-6.774,26.449c-4.515,7.935-10.914,13.98-18.816,18.514-7.903,4.534-16.935,6.801-26.719,6.801ZM1033.316,393.903c4.892,0,9.407-1.134,13.17-3.401,3.763-2.267,6.774-5.29,9.032-9.446,2.259-4.156,3.011-8.691,3.011-13.981s-1.129-9.824-3.388-13.602c-2.256-3.778-5.267-7.179-9.03-9.446-3.763-2.267-8.28-3.401-13.172-3.401s-9.407,1.134-13.17,3.401c-3.765,2.267-6.776,5.29-9.032,9.446-2.259,3.778-3.388,8.69-3.388,13.602,0,5.29,1.129,9.824,3.388,13.981,2.256,4.156,5.267,7.179,9.032,9.446,4.515,2.267,8.655,3.401,13.547,3.401Z" fill="#070707"/></svg>