<svg id="Layer_5" data-name="Layer 5" xmlns="http://www.w3.org/2000/svg" viewBox="0 0 1250 703"><defs><style>.cls-1{fill:#031737;}</style></defs><title>flexential-logo</title><polygon class="cls-1" points="227.99 378.44 242.21 378.44 242.21 353.89 280.38 353.89 280.38 343.39 242.21 343.39 242.21 331.66 300.86 331.66 300.86 321.16 227.99 321.16 227.99 378.44"/><polygon class="cls-1" points="324.15 321.16 309.92 321.16 309.92 378.44 377.83 378.44 377.83 367.93 324.15 367.93 324.15 321.16"/><polygon class="cls-1" points="403.28 353.89 444.07 353.89 444.07 343.39 403.28 343.39 403.28 331.66 461.93 331.66 461.93 321.15 389.05 321.15 389.05 378.44 464.53 378.44 464.53 367.93 403.28 367.93 403.28 353.89"/><polygon class="cls-1" points="587.49 353.89 628.28 353.89 628.28 343.39 587.49 343.39 587.49 331.66 646.14 331.66 646.14 321.15 573.26 321.15 573.26 378.44 648.74 378.44 648.74 367.93 587.49 367.93 587.49 353.89"/><polygon class="cls-1" points="727.42 368.02 680.74 321.25 680.63 321.15 659.95 321.15 659.95 378.43 674.17 378.43 674.17 331.59 720.83 378.34 720.92 378.43 741.64 378.43 741.64 321.15 727.42 321.15 727.42 368.02"/><polygon class="cls-1" points="750.76 331.66 783.98 331.66 783.98 378.44 798.2 378.44 798.2 331.66 831.43 331.66 831.43 321.16 750.76 321.16 750.76 331.66"/><rect class="cls-1" x="841.17" y="321.16" width="14.22" height="57.28"/><path class="cls-1" d="M922,321.15H904.73l-38.22,57.28h15.68l8-12.17H936.5l8,12.17h15.68L922.05,321.3Zm7.41,34.61h-32l16.09-24.31Z"/><polygon class="cls-1" points="980.96 367.93 980.96 321.16 966.74 321.16 966.74 378.44 1034.64 378.44 1034.64 367.93 980.96 367.93"/><path class="cls-1" d="M1016,327.58a6.83,6.83,0,0,1,1.3-4,8.86,8.86,0,0,1,3.57-2.92,11.66,11.66,0,0,1,9.78,0,8.8,8.8,0,0,1,3.59,2.91,6.76,6.76,0,0,1,0,7.93,8.9,8.9,0,0,1-3.53,2.95,11.8,11.8,0,0,1-9.95,0,8.82,8.82,0,0,1-3.54-2.93A6.79,6.79,0,0,1,1016,327.58Zm1.21,0a5.89,5.89,0,0,0,1.15,3.5,7.91,7.91,0,0,0,3.12,2.55,10.26,10.26,0,0,0,8.58,0,8,8,0,0,0,3.13-2.55,5.91,5.91,0,0,0,0-6.95,7.9,7.9,0,0,0-3.11-2.58,10.16,10.16,0,0,0-8.62,0,7.92,7.92,0,0,0-3.14,2.57A6,6,0,0,0,1017.25,327.58Zm12-2a2.36,2.36,0,0,1-.5,1.48,3.2,3.2,0,0,1-1.44,1l3.08,4.17h-1.57l-2.73-3.82H1024v3.82h-1.31v-9.34h2.74a5.33,5.33,0,0,1,2.89.65A2.24,2.24,0,0,1,1029.3,325.59Zm-5.35,2h1.46a3.09,3.09,0,0,0,1.86-.5,1.68,1.68,0,0,0,.68-1.44c0-1.21-.86-1.82-2.57-1.82H1024Z"/><polygon class="cls-1" points="527.75 349.17 562.51 321.27 562.86 321 544.62 321 518.59 341.86 492.62 321.04 492.56 321 474.27 321 509.45 349.17 473.07 378.32 472.72 378.6 491.06 378.6 518.59 356.53 546.02 378.47 546.17 378.6 564.46 378.6 527.75 349.17"/><polygon class="cls-1" points="418.86 421.8 183.78 421.8 183.78 281.18 424.55 281.18 449.64 301.27 468 301.27 430.26 271.01 171.01 271.01 171.01 431.99 424.55 431.99 462.25 401.73 443.89 401.73 418.86 421.8"/><polygon class="cls-1" points="606.98 271.01 569.23 301.27 587.43 301.27 612.47 281.18 1066.23 281.18 1066.23 421.8 618.35 421.8 593.32 401.73 575.09 401.73 612.88 431.99 618.76 431.99 631.06 431.99 1078.99 431.99 1078.99 271.01 606.98 271.01"/></svg>