<svg viewBox="0 0 48 48" fill="none" xmlns="http://www.w3.org/2000/svg">
<g clip-path="url(#clip0_24_141)">
<g clip-path="url(#clip1_24_141)">
<path d="M42.5 18.5V5.5H24.5V17.5254C24.3328 17.5186 24.1687 17.5 24 17.5C23.8313 17.5 23.6672 17.5186 23.5 17.5254V5.5H5.5V18.5H19.1056C18.4573 18.7799 17.834 19.1144 17.2424 19.5H5.5V32.5H11.752C12.3284 35.323 13.8623 37.8603 16.0941 39.6825C18.326 41.5047 21.1188 42.5 24 42.5C26.8813 42.5 29.6741 41.5047 31.906 39.6825C34.1378 37.8603 35.6717 35.323 36.2481 32.5H42.5V19.5H30.7576C30.166 19.1144 29.5428 18.7799 28.8946 18.5H42.5ZM25.5 6.5H41.5V17.5H25.5V6.5ZM6.5 6.5H22.5V17.5H6.5V6.5ZM6.5 31.5V20.5H15.8971C14.3176 21.8276 13.0965 23.5302 12.3456 25.452C11.5947 27.3738 11.3379 29.4533 11.5989 31.5H6.5ZM24 41.5C21.7255 41.5 19.5021 40.8255 17.6109 39.5619C15.7198 38.2983 14.2458 36.5022 13.3754 34.4009C12.505 32.2995 12.2772 29.9872 12.721 27.7565C13.1647 25.5257 14.26 23.4766 15.8683 21.8683C17.4766 20.26 19.5257 19.1647 21.7565 18.721C23.9872 18.2772 26.2995 18.505 28.4009 19.3754C30.5022 20.2458 32.2983 21.7198 33.5619 23.6109C34.8255 25.5021 35.5 27.7255 35.5 30C35.4965 33.0489 34.2838 35.972 32.1279 38.1279C29.972 40.2838 27.0489 41.4965 24 41.5ZM41.5 20.5V31.5H36.4011C36.6621 29.4533 36.4053 27.3738 35.6544 25.452C34.9035 23.5302 33.6824 21.8276 32.1029 20.5H41.5ZM24 19.5C21.9233 19.5 19.8932 20.1158 18.1665 21.2696C16.4398 22.4233 15.094 24.0632 14.2993 25.9818C13.5045 27.9004 13.2966 30.0116 13.7018 32.0484C14.1069 34.0852 15.1069 35.9562 16.5754 37.4246C18.0438 38.8931 19.9148 39.8931 21.9516 40.2982C23.9884 40.7034 26.0996 40.4955 28.0182 39.7007C29.9368 38.906 31.5767 37.5602 32.7304 35.8335C33.8842 34.1068 34.5 32.0767 34.5 30C34.4968 27.2162 33.3895 24.5474 31.4211 22.5789C29.4526 20.6105 26.7838 19.5032 24 19.5ZM33.0967 27.2734L27.0312 25.4448C26.5299 25.2943 26.0181 25.1812 25.5 25.1064V20.6211C27.2624 20.9066 28.9092 21.6816 30.2524 22.8578C31.5955 24.034 32.5811 25.5641 33.0967 27.2734ZM24.5 20.5205V25.0327C24.1661 25.0166 23.8339 25.0171 23.5 25.0327V20.5205C23.6663 20.5122 23.8315 20.5 24 20.5C24.1685 20.5 24.3337 20.5122 24.5 20.5205ZM22.5 20.6211V25.1064C21.9819 25.1808 21.47 25.2937 20.9688 25.4443L14.9033 27.2734C15.4189 25.5641 16.4045 24.0341 17.7477 22.8578C19.0909 21.6816 20.7376 20.9066 22.5 20.6211ZM14.9121 32.7607L19.894 34.1694C20.1437 34.2408 20.3707 34.3754 20.5531 34.5603C20.7355 34.7451 20.867 34.974 20.935 35.2246L22.0315 39.292C20.3704 38.9366 18.8345 38.1437 17.5828 36.9954C16.3311 35.8471 15.409 34.3851 14.9121 32.7607ZM25.9757 39.29L27.0649 35.2256C27.1329 34.9747 27.2645 34.7456 27.4471 34.5606C27.6297 34.3757 27.857 34.2411 28.1069 34.1699L33.0867 32.7656C32.5895 34.3876 31.6682 35.8475 30.4182 36.9945C29.1681 38.1415 27.6345 38.9339 25.9757 39.29ZM27.8354 33.2075C27.4189 33.3261 27.04 33.5504 26.7358 33.8587C26.4315 34.1669 26.2122 34.5487 26.0991 34.9668L24.8964 39.4546C24.601 39.4824 24.3025 39.5 24 39.5C23.6973 39.5 23.3989 39.4824 23.1033 39.4546L21.9009 34.9658C21.7878 34.5481 21.5687 34.1666 21.2648 33.8585C20.961 33.5503 20.5826 33.3259 20.1665 33.207L14.6531 31.6484C14.4513 30.5737 14.449 29.471 14.6462 28.3955L21.2578 26.4018C23.0459 25.8607 24.9542 25.8609 26.7422 26.4023L33.3538 28.3955C33.5521 29.4788 33.5487 30.5894 33.3435 31.6714L27.8354 33.2075ZM24 27.999C23.5053 27.9988 23.0217 28.1453 22.6102 28.42C22.1988 28.6947 21.8781 29.0852 21.6887 29.5422C21.4992 29.9992 21.4495 30.5021 21.5459 30.9873C21.6423 31.4725 21.8804 31.9182 22.2302 32.2681C22.5799 32.618 23.0255 32.8563 23.5107 32.9529C23.9959 33.0495 24.4988 33 24.9559 32.8107C25.4129 32.6215 25.8036 32.3009 26.0784 31.8896C26.3533 31.4783 26.5 30.9947 26.5 30.5C26.4993 29.8371 26.2358 29.2015 25.7671 28.7326C25.2984 28.2637 24.6629 27.9999 24 27.999ZM24 32.001C23.7031 32.0012 23.4128 31.9133 23.1658 31.7485C22.9188 31.5837 22.7263 31.3494 22.6125 31.0751C22.4988 30.8008 22.4689 30.499 22.5267 30.2078C22.5845 29.9166 22.7274 29.649 22.9373 29.439C23.1472 29.229 23.4146 29.0859 23.7058 29.0279C23.997 28.9699 24.2988 28.9996 24.5732 29.1132C24.8475 29.2267 25.082 29.4191 25.247 29.666C25.4119 29.9128 25.5 30.2031 25.5 30.5C25.4997 30.8978 25.3416 31.2793 25.0604 31.5607C24.7792 31.8421 24.3978 32.0004 24 32.001Z" fill="currentColor"/>
</g>
</g>
<defs>
<clipPath id="clip0_24_141">
<rect width="48" height="48" fill="currentColor"/>
</clipPath>
<clipPath id="clip1_24_141">
<rect width="48" height="48" fill="currentColor"/>
</clipPath>
</defs>
</svg>