<?xml version="1.0" encoding="utf-8"?>
<!-- Generator: Adobe Illustrator 23.0.2, SVG Export Plug-In . SVG Version: 6.00 Build 0)  -->
<svg version="1.1" id="Layer_1" xmlns="http://www.w3.org/2000/svg" xmlns:xlink="http://www.w3.org/1999/xlink" x="0px" y="0px"
	 viewBox="0 0 1250 703" style="enable-background:new 0 0 1250 703;" xml:space="preserve">
<style type="text/css">
	.st0{fill:#0089D6;}
</style>
<title>nvidia-partner-azure-logo</title>
<g id="svg8">
	<g id="layer1">
		<g id="layer1-1">
			<path id="path21" class="st0" d="M345.1,456.3c40.4-7.1,73.7-13,74.1-13.1l0.7-0.1l-38.1-45.3c-21-24.9-38.1-45.4-38.1-45.5
				c0-0.2,39.3-108.6,39.6-108.9c0.1-0.1,26.8,46.1,64.9,112c35.6,61.7,65,112.6,65.3,113.1l0.5,0.9l-121.1,0l-121.1,0L345.1,456.3z
				 M809.4,445.3c-18.4-1.2-29.1-11.7-32-31.3c-0.8-5.2-0.8-5.4-0.8-39.3l-0.1-32.8h16.3l0.1,31.8c0.1,28.6,0.1,32,0.4,34
				c1.1,8.2,3.3,13.7,7.1,17.6c3.1,3.2,7.1,5.3,11.4,6c3.6,0.5,7.3,0.5,11,0c4.7-1,9-3.3,12.4-6.7c4.2-4.5,7.1-10,8.4-16l0.5-2.2
				l0.1-32l0.1-32h16.7v100.7h-16.5v-8c0-5.4-0.1-8-0.2-7.9c-0.4,0.4-0.7,0.9-0.9,1.4c-3,5.3-7.4,9.8-12.8,12.8
				C824.1,444.6,817.9,445.8,809.4,445.3L809.4,445.3z M996.5,445.2c-6.7-0.6-13.2-2.7-19-6.2c-11.8-7.3-18.8-19.3-20.8-35.9
				c-0.7-6.1-0.8-12.2-0.2-18.3c1.3-10.9,5.6-21.6,11.7-29.2c2.2-2.5,4.5-4.9,7.1-7.1c5.3-4.2,11.4-7.1,18-8.6
				c4.8-0.9,9.7-1.2,14.6-0.9c10,0.9,19.3,5.6,25.9,13.3c6.4,7.7,10,18.4,10.4,31.6c0.1,2.1,0.1,5.7,0,8.1l-0.1,4.3l-35.7,0l-35.7,0
				v1.6c0.1,5.2,1.2,10.3,3.2,15.1c1.8,4.1,4.8,8.5,7.3,10.6c5.1,4.4,11.4,7.1,18.1,7.7c3.9,0.2,7.9,0,11.8-0.5
				c8.1-1.2,15.7-4.4,22.3-9.2c0.7-0.6,1.4-1.1,1.6-1.2c0.2-0.1,0.2,1.3,0.2,7.4l0,7.6l-1.7,1c-7.3,4.5-15.4,7.3-23.9,8.3
				C1006.5,445.3,1001.5,445.4,996.5,445.2L996.5,445.2z M1027.5,381.3c0-8.1-3.4-17.1-8.3-21.8c-3.5-3.3-7.9-5.5-12.6-6.1
				c-3.3-0.3-6.5-0.2-9.8,0.3c-5.1,1-9.7,3.4-13.4,7.1c-4,4-7,8.8-8.8,14.1c-0.8,2.3-1.3,4.6-1.7,7l-0.1,0.9h54.7L1027.5,381.3z
				 M543.3,442.7c0-0.1,12.2-32,26.9-70.8l26.9-70.5h17.3l0.7,1.8c2.2,5.6,53.8,139.5,53.8,139.6c0,0-4.1,0.1-9.2,0.1h-9.2
				l-7.4-19.8l-7.4-19.8h-59.9l-0.3,0.7c-0.1,0.4-3.3,9.3-7.1,19.8l-6.8,19.1h-9.2C545.1,442.9,543.2,442.9,543.3,442.7L543.3,442.7
				z M630.1,388.2c0,0-5-13.6-11.1-30.1c-11.4-31-12.1-32.8-13-37.8c-0.4-2.3-0.6-2.4-0.9-0.3c-0.4,2.3-0.9,4.6-1.6,6.8
				c-0.3,0.9-5.5,15.1-11.5,31.4s-10.9,29.8-10.9,29.9s11,0.2,24.5,0.2S630.1,388.2,630.1,388.2L630.1,388.2z M674.4,440.3v-2.6
				l29.8-41l29.8-41l-27-0.1l-27-0.1l0-6.9l0-6.9h78.1v4.6l-29.8,41.2c-16.4,22.7-29.8,41.3-29.8,41.3s13.3,0.1,29.5,0.1h29.5v13.8
				h-83V440.3z M893.3,442.8c-0.1-0.1-0.1-22.8-0.1-50.5v-50.4h16.3v10.4c0,5.7,0.1,10.4,0.2,10.4c0.4-0.7,0.7-1.4,0.9-2.1
				c1.9-5.3,5-10.1,9.1-14c3.5-3.4,8-5.7,12.9-6.4c1.8-0.2,3.6-0.3,5.4-0.2c2.5-0.1,5.1,0.3,7.5,1l0.7,0.2v16.9l-1.9-1
				c-3.3-1.7-7.1-2.4-10.8-2.2c-2.2,0.1-4.4,0.5-6.5,1.3c-4.3,1.6-7.9,4.5-10.3,8.4c-3.7,6-6,12.7-6.8,19.6
				c-0.1,1.2-0.2,11-0.2,30.2l0,28.4h-8C897,442.9,893.3,442.9,893.3,442.8L893.3,442.8z M199.8,442.4c0-0.1,18-31.2,39.9-69.2
				l39.9-69.1l46.5-39c25.6-21.5,46.6-39,46.6-39.1c-0.2,0.7-0.4,1.3-0.7,1.9c-0.5,1.1-23.2,49.8-50.5,108.3l-49.6,106.3l-36.1,0
				C216,442.5,199.8,442.5,199.8,442.4L199.8,442.4z"/>
		</g>
	</g>
</g>
</svg>
