<?xml version="1.0" encoding="utf-8"?>
<!-- Generator: Adobe Illustrator 27.1.1, SVG Export Plug-In . SVG Version: 6.00 Build 0)  -->
<svg version="1.1" id="Note" xmlns="http://www.w3.org/2000/svg" xmlns:xlink="http://www.w3.org/1999/xlink" x="0px" y="0px"
	 viewBox="0 0 48 48" style="enable-background:new 0 0 48 48;" xml:space="preserve">
<style type="text/css">
	.st0{fill:#FFFFFF;}
	.st1{fill:#FFFFFF;fill-opacity:0;}
</style>
<path class="st0" d="M34.68799,33.5l-1.07178,4H14.38379l-1.07178-4H8.47314l2.14307,8h26.76074l2.28613-8h-4.9751H34.68799z
	 M36.62305,40.5H11.38379l-1.60791-6h2.76855l1.07178,4h20.76758l1.07178-4h2.88135C38.33692,34.5,36.62305,40.5,36.62305,40.5z
	 M37.08692,19.5h-6.58691v-5h-13v5H10.9131l13.08691,15.26855L37.08692,19.5z M18.50001,20.5v-5h11v5h5.41309L24.00001,33.23145
	L13.08692,20.5H18.50001z M30.50001,6.5h-13v6h13V6.5z M29.50001,11.5h-11v-4h11V11.5z"/>
<rect class="st1" width="48" height="48"/>
</svg>
