<svg id="Layer_1" data-name="Layer 1" xmlns="http://www.w3.org/2000/svg" viewBox="0 0 1250 703"><defs><style>.cls-1{fill:#76b900;}</style></defs><path class="cls-1" d="M704.46967,445.27263a23.74555,23.74555,0,0,0,16.67386-6.84391l31.62,8.73468a31.72142,31.72142,0,0,0-.61206,6.0562,31.37333,31.37333,0,0,0,3.54864,14.2845l-16.92131,9.84155a32.17108,32.17108,0,1,0,6.79353,14.435l20.80737-12.10289a31.55677,31.55677,0,0,0,40.50218-4.57093l25.27469,12.55a31.49252,31.49252,0,0,0-.53543,5.29754,32.18521,32.18521,0,1,0,7.103-19.77617l-24.13477-11.98405a28.6236,28.6236,0,0,0-.44346-17.37208L838.72572,427.652a24.31046,24.31046,0,1,0-12.17746-11.00863L805.8251,430.27606a31.59967,31.59967,0,0,0-21.35845-8.79094l-2.43-12.70817a23.83073,23.83073,0,1,0-15.30806,4.58364l2.28874,11.967a31.80015,31.80015,0,0,0-9.10531,7.32026l-31.84508-8.79777a23.39962,23.39962,0,0,0,.24365-2.41837,23.84091,23.84091,0,1,0-23.84091,23.8409Zm9.88715,68.06149a15.89393,15.89393,0,1,1,14.32727-22.54589l.3395.583a15.84811,15.84811,0,0,1-14.66677,21.96293ZM879.303,492.95444a15.89395,15.89395,0,1,1-30.54622-6.13969l.05736-.11538a15.88408,15.88408,0,0,1,30.48886,6.25507ZM768.04541,453.2196a15.89393,15.89393,0,0,1,31.78787,0,15.71618,15.71618,0,0,1-1.166,5.76615l-.54816,1.10493a15.80064,15.80064,0,0,1-30.07373-6.87108Zm79.46968-55.62877a7.947,7.947,0,1,1-7.947,7.947A7.947,7.947,0,0,1,847.51509,397.59083Zm-87.50977-7.947a7.947,7.947,0,1,1,7.947,7.947A7.947,7.947,0,0,1,760.00532,389.64386Zm-55.53565,23.8409a7.90992,7.90992,0,0,1,7.84414,7.44058l-1.32126,4.77581a7.823,7.823,0,0,1-6.52288,3.67755,7.947,7.947,0,0,1,0-15.89394Z"/><path class="cls-1" d="M775.99238,238.82218v80.0517h15.89394V222.92825H458.11368V445.44334H577.23l-5.29778,15.894H553.47729v15.89394h49.622V461.3373h-14.4107l5.30253-15.89393h9.10817V429.54943H584.298l9.13139-36.81671a27.27858,27.27858,0,0,0-6.73633-27.7524L562.7417,345.37289l29.213-3.89194a25.7733,25.7733,0,0,0,19.23168-20.81422l20.21883-81.84455Zm-270.36951,0-11.98068,48.28721a27.22363,27.22363,0,0,0,6.73632,27.73681l23.94658,19.60343-29.20845,3.88814a25.78445,25.78445,0,0,0-19.23166,20.822l-1.87736,7.61714V238.82218Zm71.0119,138.45111a10.70665,10.70665,0,0,1,1.90631,7.786L507.26951,364.3129l-4.439,15.27311,72.26671,21.03626-7.17581,28.92695H474.90007l6.74507-27.35553L534.355,417.48905l4.439-15.273-53.3383-15.47783,5.85835-23.76032c1.47447-5.96023,4.78058-8.73865,5.91366-8.87834l43.9488-5.85452Zm31.02638-108.60914-68.85251-20.05577-4.43919,15.25816,69.47779,20.2379-8.09,32.75214c-1.47463,5.95244-4.76517,8.72307-5.89823,8.87056l-43.96725,5.85245L510.43651,302.5532a13.16147,13.16147,0,0,1-1.36591-11.62561l1.299-5.23259L579.181,305.74282l4.439-15.25816-69.42043-20.22535,7.80233-31.43822h93.03149Z"/><path class="cls-1" d="M950.82567,334.01509H616.1838l-.76052,222.51509h135.7679l-6.3509,19.07589H726.386V591.5H844.67467V575.60607H826.21976l-6.35026-19.07589H950.82567Zm-141.35655,241.591H761.59135l6.3576-19.07589h35.16372Zm125.46261-34.96983H631.37933l.63578-190.72722H934.93173Z"/><path class="cls-1" d="M450.22886,190.318l19.96056-5.347-4.11319-15.35069-15.97166,4.27547-2.28157-.56645V160.08966l2.34372-.62844,15.90983,4.26052,4.11319-15.35068-20.023-5.36261L431.92906,147.89V159.1818H409.0766a23.74554,23.74554,0,0,0-44.51144-1.47814l-.40259-.06692-.48508,2.92194a23.62337,23.62337,0,0,0-.76291,4.58953l-16.11184,97.00658a39.563,39.563,0,0,0-15.84054,31.54344v23.8409H315.06827V127.39393H617.053v79.46968H632.947V111.5H299.17433V333.43307H418.29445l-5.30158,15.90172H394.53794v15.89394h49.622V349.33479H429.75017l5.3065-15.90172h7.16308V317.53913H410.43188v-23.8409a39.55621,39.55621,0,0,0-15.74548-31.46489l14.474-87.1576h22.769v10.671ZM386.591,158.83213a7.92568,7.92568,0,0,1,7.88688,7.65008l-.55009,3.30991a7.90342,7.90342,0,0,1-15.22369-2.71516l.54817-3.29736A7.94208,7.94208,0,0,1,386.591,158.83213Zm-39.73484,158.707v-23.8409a23.8409,23.8409,0,1,1,47.6818,0v23.8409Zm23.8409-63.57574a39.4269,39.4269,0,0,0-6.53447.66054l11.12575-66.98355a22.033,22.033,0,0,0,15.24689,2.58133l-10.77466,64.8816A39.40006,39.40006,0,0,0,370.697,253.96339Z"/></svg>