<svg id="Layer_1" data-name="Layer 1" xmlns="http://www.w3.org/2000/svg" viewBox="0 0 1250 703"><defs><style>.cls-1{fill:#76b900;}</style></defs><path class="cls-1" d="M625.3267,286.04543a65.45438,65.45438,0,1,0,65.45438,65.45438h0A65.526,65.526,0,0,0,625.3267,286.04543Zm0,116.36333a50.909,50.909,0,1,1,50.909-50.90895A50.90895,50.90895,0,0,1,625.3267,402.40876Z"/><path class="cls-1" d="M747.71269,365.6119a116.38685,116.38685,0,0,0,.92335-14.11209,115.18535,115.18535,0,0,0-.79551-13.04723l39.30388-40.64629-34.61633-59.96436L698.4514,252.33048A122.54834,122.54834,0,0,0,675.156,238.751l-15.58157-54.52351H590.32679l-14.588,54.43171a123.42385,123.42385,0,0,0-22.78394,13.1463l-55.52554-13.88491-34.6306,59.96478,40.08513,40.08512a113.70924,113.70924,0,0,0-.85221,13.5293A112.29372,112.29372,0,0,0,502.756,363.943L462.8413,405.1929l34.63061,59.95723,54.55986-14.60229a123.1435,123.1435,0,0,0,22.713,13.39488l15.68155,54.82938h69.24695L674.176,464.63871a123.67834,123.67834,0,0,0,23.36633-13.3236l55.02838,13.75007L787.20134,405.108Zm-2.2442,82.69157-51.16467-12.79823-2.78413,2.14488a108.89326,108.89326,0,0,1-26.12212,14.88635l-3.39477,1.34938-13.49434,50.34083H601.3928l-14.57452-50.95157-3.22442-1.34937a108.344,108.344,0,0,1-25.48358-15.04258l-2.86937-2.2586-50.75274,13.59372-23.55034-40.80953L518.04,369.05613l-.44029-3.48013a109.53471,109.53471,0,0,1-1.02269-14.07619,107.39447,107.39447,0,0,1,1.17891-15.13494l.49716-3.58661-37.27263-37.2799L504.53152,254.696l51.6761,12.91894,2.784-2.15911a108.80541,108.80541,0,0,1,25.58229-14.74411l3.36653-1.35651,13.5511-50.58228h47.11638l14.48854,50.71012,3.2813,1.33512a108.66346,108.66346,0,0,1,26.02263,15.17757l2.85511,2.2515,50.25555-13.473,23.56517,40.80237L732.5281,333.36781l.45455,3.48712a97.72118,97.72118,0,0,1-.15623,30.34086l-.51141,3.59374,36.7045,36.70448Z"/><path class="cls-1" d="M789.55929,505.775l-5.14154,5.14253c-87.98622,88.024-230.67067,88.05452-318.69461.0683a225.35116,225.35116,0,0,1-66.0171-156.314l36.20354,36.20238V370.307l-43.63625-43.63625L348.63708,370.307v20.56724l36.509-36.509c1.52854,132.48542,110.16834,238.647,242.65379,237.11844a239.902,239.902,0,0,0,166.9015-70.28252l5.14209-5.142Z"/><path class="cls-1" d="M864.85394,348.63435c-1.52881-132.48552-110.16894-238.64688-242.65445-237.118a239.90225,239.90225,0,0,0-166.98595,70.3675l-5.1421,5.14908,10.2836,10.27692,5.14211-5.142c87.93918-88.07094,230.62358-88.17774,318.69455-.23855a225.35119,225.35119,0,0,1,66.10223,156.39842l-36.20351-36.20238v20.56724l43.63625,43.63625,43.63625-43.63625V312.12535Z"/></svg>