<svg id="Layer_1" data-name="Layer 1" xmlns="http://www.w3.org/2000/svg" viewBox="0 0 1250 703"><defs><style>.cls-1{fill:#76b900;}</style></defs><path class="cls-1" d="M971.66667,111.5H385v53.33333H331.66667v53.33334H278.33333V591.5H865V538.16667h53.33333V484.83333h53.33334ZM296.11111,235.94444H847.22222v88.88889H296.11111ZM847.22222,573.72222H296.11111V342.61111H847.22222V520.38889h-.08674v17.77778h.08674Zm53.33334-53.33333H865V218.16667H349.44444V182.61111H900.55556V467.05556h-.08674v17.77777h.08674Zm53.33333-53.33333H918.33333V164.83333H402.77778V129.27778H953.88889Z"/><path class="cls-1" d="M340.55556,253.72222a26.66667,26.66667,0,1,0,26.66666,26.66667A26.66668,26.66668,0,0,0,340.55556,253.72222Zm0,35.55556a8.88889,8.88889,0,1,1,8.88888-8.88889A8.88889,8.88889,0,0,1,340.55556,289.27778Z"/><path class="cls-1" d="M411.66667,253.72222a26.66667,26.66667,0,1,0,26.66666,26.66667A26.66668,26.66668,0,0,0,411.66667,253.72222Zm0,35.55556a8.88889,8.88889,0,1,1,8.88889-8.88889A8.88889,8.88889,0,0,1,411.66667,289.27778Z"/><path class="cls-1" d="M482.77778,253.72222a26.66667,26.66667,0,1,0,26.66666,26.66667A26.66668,26.66668,0,0,0,482.77778,253.72222Zm0,35.55556a8.88889,8.88889,0,1,1,8.88889-8.88889A8.88889,8.88889,0,0,1,482.77778,289.27778Z"/></svg>