<svg id="Layer_1" data-name="Layer 1" xmlns="http://www.w3.org/2000/svg" viewBox="0 0 1250 703"><defs><style>.cls-1{fill:#76b900;}</style></defs><path class="cls-1" d="M817.05084,413.21429a33.95538,33.95538,0,0,0-12.19582,2.34513L764.088,351.4989l40.76445-64.05942a34.27307,34.27307,0,1,0-13.42874-54.48055L657.47745,156.41951a33.82429,33.82429,0,0,0,1.8591-10.6338,34.28572,34.28572,0,0,0-68.57143,0,33.81572,33.81572,0,0,0,1.8591,10.63228L458.678,232.95893a34.31754,34.31754,0,1,0-13.43519,54.483l40.76694,64.06052-40.7631,64.057A34.27254,34.27254,0,1,0,458.678,470.04436l133.94278,76.54353a33.85043,33.85043,0,0,0-1.8557,10.6264,34.28571,34.28571,0,0,0,68.57143,0,33.8278,33.8278,0,0,0-1.85747-10.63064L791.4236,470.04421a34.22208,34.22208,0,1,0,25.62724-56.82992ZM793.266,422.89656a34.52683,34.52683,0,0,0-3.052,3.52457l-55.98719-27.99606,21.7325-34.1509ZM612.85334,525.27373,535.60408,403.88585l62.61-31.30575a34.19911,34.19911,0,0,0,19.97965,12.51248V523.6217A33.80637,33.80637,0,0,0,612.85334,525.27373ZM637.2442,177.72629l77.24748,121.38514-62.61,31.305A34.19129,34.19129,0,0,0,631.908,317.90823V179.37749A33.666,33.666,0,0,0,637.2442,177.72629ZM625.05084,372.07143a20.57145,20.57145,0,0,1-18.95315-28.56864l.00589-.01167a20.57006,20.57006,0,0,1,37.895,0l.00588.01167a20.57141,20.57141,0,0,1-18.95366,28.56864Zm-6.85715-192.69394V317.90823a34.19123,34.19123,0,0,0-19.97377,12.50893l-62.61161-31.30573,77.24587-121.38514A33.79429,33.79429,0,0,0,618.19369,179.37749Zm-26.13119,163.296a30.68812,30.68812,0,0,0-.00081,17.65356l-63.85879,31.9285-25.93371-40.75282L528.20607,310.745ZM631.908,523.6217V385.09258a34.19874,34.19874,0,0,0,19.97885-12.51306l62.60488,31.30905L637.24749,525.27368A33.791,33.791,0,0,0,631.908,523.6217ZM658.04,360.32762a30.68418,30.68418,0,0,0-.00081-17.6544l63.85536-31.92768,25.93456,40.75281-25.93618,40.75886Zm97.91847-21.60357-21.72905-34.146,55.99049-27.99525a34.44246,34.44246,0,0,0,3.04457,3.51648Zm61.09236-103.79548a20.57143,20.57143,0,1,1-11.4103,37.67l-.12341-.07871a20.69637,20.69637,0,0,1-7.413-9.01028l-.00591-.01167a20.57142,20.57142,0,0,1,18.95262-28.56932Zm-32.42662,9.93915a31.03278,31.03278,0,0,0-.56229,19.45906l-57.23684,28.618L648.8332,170.38914c.6646-.64292,1.23306-1.36609,1.84484-2.06085ZM625.05084,125.21429A20.55991,20.55991,0,0,1,636.608,162.78622l-.192.12343a20.56321,20.56321,0,1,1-11.36517-37.69536Zm-25.62721,43.11249c.611.6938,1.17766,1.41709,1.84238,2.05989L523.27438,292.94481l-57.2352-28.618a31.03264,31.03264,0,0,0-.56229-19.45906ZM412.47941,255.5a20.57143,20.57143,0,1,1,39.52457,7.99721l-.0059.01167A20.57142,20.57142,0,0,1,412.47941,255.5Zm44.353,24.60344a34.52726,34.52726,0,0,0,3.04937-3.52073l55.98966,27.99455-21.73234,34.15009Zm37.30669,84.174,21.72905,34.14433-55.98638,27.99183a34.46625,34.46625,0,0,0-3.04608-3.5173ZM412.47941,447.5a20.56087,20.56087,0,0,1,32.05413-17.0592l.0159.01015a20.5684,20.5684,0,1,1-32.07,17.04905Zm53.00146,10.62556a31.05135,31.05135,0,0,0,.55831-19.45564l57.231-28.61719L601.26423,532.6125c-.6654.64458-1.23428,1.36936-1.84648,2.065Zm159.57,119.66015A20.55648,20.55648,0,0,1,613.45843,540.243l.29966-.19074a20.40681,20.40681,0,0,1,22.58551,0l.29967.19074a20.55648,20.55648,0,0,1-11.59243,37.54274Zm25.6231-43.12086c-.60946-.69136-1.17449-1.41258-1.83773-2.0533l77.98917-122.55636,57.23435,28.62172a31.04906,31.04906,0,0,0,.56077,19.44684Zm166.3769-66.59342a20.567,20.567,0,0,1-18.95848-28.55109l.05278-.10628a20.69212,20.69212,0,0,1,7.40709-8.96311l.01591-.01015a20.56828,20.56828,0,1,1,11.4827,37.63063Z"/></svg>