<?xml version="1.0" encoding="UTF-8"?><svg id="LOGO" xmlns="http://www.w3.org/2000/svg" viewBox="0 0 1250 703"><defs><style>.cls-1{fill:#aaafb4;}.cls-2{fill:#3b3b3c;}</style></defs><rect class="cls-1" x="181.45436" y="286.57159" width="176.1388" height="43.28707"/><rect class="cls-1" x="181.45436" y="373.13529" width="176.1388" height="43.29312"/><path class="cls-2" d="M481.42326,317.58111c-3.70406-18.14927-7.57501-24.31037-28.36889-24.31037-8.81385,0-16.03458,2.46123-20.961,6.68685-4.23376,3.51645-6.17737,7.92946-6.17737,13.3858,0,4.93455,2.65673,10.94502,6.01026,14.10703,4.56799,4.40484,11.2588,8.27996,22.35862,13.91155,13.74861,7.04131,24.14742,11.11192,31.71449,19.72611,3.70404,4.24398,7.41205,12.17156,7.41205,20.80411,0,9.16643-3.18246,17.44034-9.88141,23.43036-7.39578,6.68873-19.01718,11.10587-34.70124,11.10587-10.22379,0-22.72937-2.29414-32.945-5.99816-1.58916-10.92457-3.51671-18.32243-5.81896-26.07268l6.16923-1.59123c5.64371,21.66575,15.50069,26.96312,34.17154,26.96312,8.10492,0,15.68012-2.29018,21.15252-6.51973,5.45217-4.23793,8.99327-10.40111,8.99327-18.33474,0-7.03714-1.94382-11.28112-5.64784-15.67594-5.63954-6.69081-15.15417-10.91852-25.36981-16.02415-10.74536-5.46448-25.54922-13.40624-30.65089-20.6228-3.17848-4.58426-5.28505-10.38675-5.28505-16.91876,0-7.55872,3.15785-15.13788,10.57824-20.78575,6.32404-4.94686,16.01414-8.27599,29.76253-8.27599,11.27507,0,20.43128,1.4141,29.42434,4.93059,1.04733,7.21656,2.63648,16.73537,4.23795,24.66501l-6.17758,1.41393Z"/><path class="cls-2" d="M520.33802,374.13568c0-13.56501,2.46521-22.37489,7.21656-28.54412,4.21728-4.92245,10.05249-7.39181,17.0938-7.39181,7.39995,0,13.37766,2.46936,17.44034,7.39181,4.7593,6.16923,7.21656,14.97911,7.21656,28.54412,0,14.27224-2.99908,23.25114-7.39578,28.89463-4.04641,4.58632-9.6901,7.39995-17.09401,7.39995-7.39578,0-13.04364-2.81363-17.07753-7.39995-4.40505-5.64348-7.39995-14.62238-7.39995-28.89463ZM507.64884,373.95855c0,16.03041,4.22562,26.60865,11.08772,33.12025,7.06989,6.17341,15.51697,8.81781,26.07893,8.81781,11.09586,0,19.73842-2.82988,26.79204-9.16226,6.69895-6.52578,10.7412-16.91667,10.7412-32.7758,0-13.91968-3.86701-24.66713-10.7412-31.54136-6.8742-6.51973-14.9914-9.68986-26.79204-9.68986-11.27507,0-19.37581,3.17012-26.24605,9.52278-7.04945,6.86624-10.92061,17.78875-10.92061,31.70844Z"/><path class="cls-2" d="M605.91367,340.31464h-13.03947v-5.63952h13.03947v-11.10796c0-10.74536,2.64042-18.85841,8.46332-24.84843,4.20935-4.03806,10.19937-6.8621,17.96194-6.8621,7.21842,0,11.44613,1.93568,14.97492,4.22559,5.10772,3.34961,7.57708,7.74631,7.57708,10.91667,0,3.53276-1.76627,5.47658-4.93852,5.47658-4.2256,0-5.80872-3.71218-7.75045-7.58334-1.94361-3.87929-4.23167-7.56706-9.68778-7.56706-3.52694,0-6.34471,1.22258-8.81408,3.87116-3.52066,4.22145-5.62721,10.57011-5.62721,23.09217v10.38672h22.37281v5.63952h-22.37281v57.60399c0,10.58012.70499,11.62954,13.92156,11.62954v4.40066h-39.29968v-4.40066c12.33052,0,13.21889-1.22863,13.21889-11.98609v-57.24743Z"/><path class="cls-2" d="M648.04114,336.25613c11.10399-1.0555,18.71174-5.28923,20.97729-23.78065h4.40085v22.19964h18.67085v5.63952h-18.67085v56.90716c0,8.27182,2.46123,12.50767,8.62024,12.50767,4.06685,0,7.40811-1.40993,10.93292-4.05642l2.81778,3.87512c-4.57404,4.0462-10.04665,6.34845-17.26926,6.34845-8.97074,0-17.25278-4.23167-17.25278-17.97798v-57.60399h-13.22703v-4.05851Z"/><path class="cls-2" d="M732.91182,301.88889c0-4.7472.70911-6.15692,5.28106-6.15692h16.74351c12.34264,0,20.25394,2.81569,25.19663,6.87417,3.88534,3.17019,6.8742,10.04042,6.8742,16.03858,0,8.44311-2.98885,14.62048-8.10074,18.84193-6.35677,5.28923-16.21985,7.57916-28.37096,7.57916h-17.6237v-43.17691ZM719.88464,395.45928c0,12.49765-1.07383,13.37975-14.27415,13.37975v5.1098h57.4327c18.32243,0,28.72149-4.21936,35.59983-10.91852,7.0434-6.68873,9.86305-15.50466,9.86305-24.31037,0-9.69406-4.92642-16.74354-11.28926-21.66784-7.56289-5.82499-17.78062-8.812-29.23282-9.1704v-.35864c11.10191-1.58518,18.4956-5.10587,23.78068-9.857,6.51973-5.8108,8.80986-13.57336,8.80986-20.2723,0-8.98513-4.57612-16.01831-11.27111-20.60236-9.51464-6.35265-20.09914-7.75859-36.30271-7.75859h-47.39022v5.1098c13.20032,0,14.27415.87625,14.27415,13.56918v87.74748ZM732.91182,351.76079h21.85537c14.43709,0,24.13929,2.46728,30.31269,7.23492,6.32425,4.74929,9.68801,11.60721,9.68801,19.35745,0,9.17248-2.65272,15.69824-6.88651,20.10331-5.98793,6.16506-14.08471,8.81173-26.6026,8.81173h-21.84515c-5.46638,0-6.52182-1.24487-6.52182-8.63648v-46.87094Z"/><path class="cls-2" d="M867.10419,400.04354c-4.41506,4.38856-10.39879,9.15621-19.03762,9.15621-5.28505,0-8.97887-1.76046-11.63162-4.24398-2.63439-2.62625-3.86907-6.49929-3.86907-11.09982,0-8.10492,4.93267-12.67687,11.79665-16.37674,6.51788-4.04015,15.16667-6.52787,22.74167-8.62232v31.18665ZM879.26365,357.21901c0-7.74419-1.24908-12.50767-5.82103-17.61747-4.40484-4.92642-10.57616-6.8742-21.14626-6.8742-9.33542,0-15.50484,2.28994-20.091,4.93872-5.62929,3.34123-9.14596,8.10471-9.14596,12.33033,0,2.65275,1.56074,5.10792,4.91429,5.10792,3.71427,0,5.29319-1.75438,6.16318-4.22771,1.59332-3.87929,3.18643-6.8742,5.48263-8.62649,3.16202-2.48146,6.6808-4.05037,11.9719-4.05037,5.81894,0,10.04853,1.76043,12.67689,5.28109,2.29408,2.99908,2.8359,8.27996,2.8359,12.32633v7.58316l-10.39879,2.46936c-11.27927,2.46936-20.08287,5.98397-26.07894,10.04248-7.74839,5.10375-10.92063,11.44615-10.92063,19.55711,0,6.69102,2.81152,11.80893,7.04736,15.1504,4.58217,3.70401,10.57011,5.28693,16.20775,5.28693,11.63559,0,18.67898-4.04829,24.65482-9.69385h.52972c1.59522,5.80851,5.29715,8.98075,11.46242,8.98075,4.58614,0,7.75024-1.04924,10.74536-2.45705l-1.05544-4.05434c-1.40787.87604-3.01121,1.22237-4.74097,1.22237-3.53505,0-5.29319-3.52483-5.29319-11.43801v-41.23747Z"/><path class="cls-2" d="M968.93036,398.26892c0,9.86511.7089,11.27924,8.63648,11.27924v4.40066h-29.78089v-4.40066c8.46355,0,8.98513-1.04942,8.98513-11.62954v-39.2876c0-6.87023-.88019-12.50975-4.22374-16.0344-2.28994-2.28198-5.46844-3.52062-10.21355-3.52062-7.40183,0-15.33358,6.69478-22.38511,16.38276v42.45988c0,10.58012.17525,11.62954,8.45333,11.62954v4.40066h-30.82196v-4.40066c9.50233,0,10.20938-1.04942,10.20938-11.62954v-42.81431c0-10.21355-.88022-11.44824-10.20938-11.27319v-3.87095c7.74211-1.23885,13.73609-3.00721,19.54898-7.23284l1.7644,1.06339.69871,13.56105h.35655c7.05154-8.98075,16.03044-14.62444,25.72447-14.62444,7.58125,0,13.03738,1.94778,16.90648,5.64369,4.06682,3.87909,6.35074,10.22774,6.35074,19.55294v40.34495Z"/><path class="cls-2" d="M1010.22271,370.60292l25.18638-24.48165c4.75951-4.39673,5.99628-7.04528-2.46519-7.04528v-4.40087h26.08102v4.40087c-5.10167.17921-7.92758,1.39762-11.97399,5.29319l-18.50373,17.60721,26.95706,40.88492c3.87512,6.16923,7.75629,6.86815,13.04138,6.68685v4.40066h-20.095l-28.70519-44.39511-9.87742,9.70199v18.66292c0,10.2154.35467,11.62954,10.0487,11.62954v4.40066h-32.76996v-4.40066c10.19728,0,10.55386-1.41413,10.55386-11.62954v-83.51998c0-10.21564-1.05529-11.44201-10.55386-11.44201v-3.8753c8.61627-1.23468,14.6186-3.17019,21.13625-7.2247l1.58501,1.05129v77.69499h.35467Z"/></svg>