<svg id="LOGO" xmlns="http://www.w3.org/2000/svg" viewBox="0 0 1250 703"><title>nvidia-partner-exxact-logo</title><path d="M339.86,441.87c-1-2.08-2-4.19-3-6.23Q307.4,379.78,278,323.94c-2.85-5.42-5.74-10.83-8.53-16.28a2.81,2.81,0,0,0-2.94-1.76c-5.53.09-11.08,0-16.62,0-.64,0-1.29.05-2.3.09,1.25,2.43,2.34,4.61,3.48,6.76,6.15,11.67,12.28,23.35,18.5,35a3.26,3.26,0,0,1-.05,3.49q-10.68,20.12-21.29,40.27c-.39.74-.76,1.5-1.31,2.59,1,.08,1.59.17,2.21.17,5.54,0,11.09,0,16.62,0a2.85,2.85,0,0,0,3-1.76c3.7-7.16,7.49-14.27,11.26-21.39.24-.47.52-.92,1-1.7.88,1.62,1.65,3,2.41,4.46,3.56,6.71,7.05,13.45,10.7,20.11a4.05,4.05,0,0,1,0,4.4c-3.16,5.79-6.27,11.6-9.26,17.47a3.13,3.13,0,0,1-3.27,1.92q-34.63-.06-69.28,0H206l6-11.41q14.55-27.57,29.13-55.12a3.45,3.45,0,0,0,0-3.68q-17-31.92-33.85-63.9c-.19-.35-.34-.72-.66-1.38.84-.05,1.51-.13,2.19-.13q36.75,0,73.49,0a2.68,2.68,0,0,1,2.74,1.72q20.13,38.17,40.35,76.29,14.77,27.91,29.52,55.83a3.22,3.22,0,0,0,3.39,2c5.41-.1,10.81,0,16.22-.05.65,0,1.31-.05,2.34-.1-1-2.05-1.93-3.88-2.88-5.68q-16.21-30.65-32.47-61.26a2.53,2.53,0,0,1-.08-2.72q14.55-27.35,29-54.73c1.95-3.69,3.88-7.39,6-11.4-1-.07-1.6-.15-2.22-.15-5.61,0-11.22,0-16.82,0a2.67,2.67,0,0,0-2.77,1.68Q342.85,305.93,331,328.26l-.65,1.15c-.78-1.42-1.47-2.64-2.13-3.88-3.75-7.06-7.44-14.15-11.26-21.17a3.28,3.28,0,0,1,0-3.5q10.78-20.28,21.47-40.63a3.39,3.39,0,0,1,3.54-2.1q36.56.11,73.09.05h2.3c-1.85,3.53-3.55,6.82-5.28,10.09q-20.44,38.67-40.95,77.33c-1.44,2.69-1.64,4.75-.1,7.62,11.45,21.29,22.68,42.71,34,64.08l13,24.57Z" fill="#266eb6"/><path d="M1044,319.3l-34-.06a3.21,3.21,0,0,0-.77.26v77.67H987.68V319.31H952.89V302.48H1044Z" fill="#43545c"/><path d="M428.15,397.22V302.66h81.16v16.56H449.76c-.05.77-.14,1.41-.14,2,0,5.74.05,11.48,0,17.22,0,1.67.52,2.14,2.17,2.14,12-.07,24,0,36,0,.65,0,1.3,0,2.06.08v15.7H449.8c-.07.81-.17,1.38-.17,2,0,6.74,0,13.48-.05,20.22,0,1.71.57,2.12,2.2,2.12q27.42-.07,54.86,0h2.71v16.58Z" fill="#43545c"/><path d="M740.94,397.31l6.32-13q19.53-40.07,39-80.14a2.57,2.57,0,0,1,2.73-1.71c5.2.08,10.41.09,15.62,0a2.72,2.72,0,0,1,2.9,1.76q14.21,29.1,28.52,58.14,8,16.34,16,32.65c.32.66.61,1.32,1,2.19a12.22,12.22,0,0,1-1.24.13c-6.87,0-13.75,0-20.62,0a1.92,1.92,0,0,1-2-1.39c-2-4.42-4.19-8.78-6.19-13.21a2.54,2.54,0,0,0-2.69-1.78q-23.43.07-46.85,0a2.49,2.49,0,0,0-2.68,1.78q-2.84,6.6-5.92,13.11a2.59,2.59,0,0,1-1.73,1.4C755.89,397.34,748.61,397.31,740.94,397.31Zm74.42-31.16c-6.16-13.31-12.18-26.3-18.46-39.85-6.22,13.59-12.19,26.6-18.26,39.85Z" fill="#43545c"/><path d="M558.78,348.52l-38.68-45.9c1-.07,1.54-.14,2.11-.14,7.27,0,14.55,0,21.82,0a3.59,3.59,0,0,1,3.16,1.58q11.1,14.07,22.29,28.06c.49.62,1,1.22,1.68,2,2.32-2.87,4.54-5.59,6.73-8.32q8.88-11.1,17.78-22.18a2.78,2.78,0,0,1,1.72-1.09c8.07-.07,16.14,0,24.49,0a11.8,11.8,0,0,1-.81,1.26q-18,21.47-36.05,42.9c-1.25,1.47-1.21,2.3,0,3.77q19.07,22.56,38,45.24c.37.44.69.91,1.27,1.66H618c-5.67,0-11.35-.06-17,0a4.24,4.24,0,0,1-3.84-1.83c-8.17-10.38-16.44-20.68-24.68-31-.37-.46-.77-.9-1.36-1.58-1.78,2.2-3.49,4.29-5.18,6.39q-10.77,13.43-21.56,26.84a2.77,2.77,0,0,1-1.69,1.1c-8.12.07-16.25.05-24.8.05Z" fill="#43545c"/><path d="M632.19,302.48c8.61,0,16.75,0,24.88.06a3,3,0,0,1,1.84,1.2q11.46,14.29,22.84,28.63c.41.52.84,1,1.43,1.74.6-.71,1.1-1.28,1.58-1.87,7.51-9.38,15-18.73,22.49-28.14a3.74,3.74,0,0,1,3.32-1.66c7.67.08,15.33,0,23.45,0-.6.8-.95,1.32-1.35,1.79Q714.73,325.65,696.75,347c-1.1,1.31-.8,2.06.14,3.18q18.95,22.5,37.82,45.06c.47.56.91,1.13,1.54,1.92-.67.06-1.09.13-1.51.14-7.47,0-15,0-22.42-.06A3.87,3.87,0,0,1,709.7,396c-8.26-10.22-16.43-20.51-24.63-30.78-.57-.72-1.16-1.41-1.89-2.29-1.59,2-3.07,3.74-4.52,5.55q-10.9,13.57-21.77,27.18a4,4,0,0,1-3.51,1.7c-7.66-.09-15.32,0-23.41,0,2.07-2.5,3.91-4.74,5.77-7q16.77-20,33.6-40c1.16-1.37,1.28-2.17,0-3.61q-18-21.19-35.89-42.52C633.13,303.79,632.81,303.31,632.19,302.48Z" fill="#43545c"/><path d="M944.67,317.22l-15,11.57c-3.08-2.2-5.88-4.64-9.06-6.39-10.65-5.87-21.67-6.23-32.56-.82-7.13,3.55-11,9.93-12.82,17.51-2.46,10.05-2,19.89,2.94,29.15,4.19,7.91,11.12,12,19.83,13.21,11.82,1.67,22-1.72,30.57-10,.39-.37.79-.73,1.19-1.08a3.21,3.21,0,0,1,.56-.24c4.91,3.68,9.9,7.44,15.06,11.33-6.87,6.48-13.89,12.44-23.09,14.77-14.79,3.74-29.53,3.6-43.69-2.53-15-6.5-23.16-18.51-25.92-34.37a54.55,54.55,0,0,1,2.16-27.61c4.63-13.31,13.69-22.5,27-27a67.23,67.23,0,0,1,43.41-.12C932.71,307.05,938.9,311.67,944.67,317.22Z" fill="#43545c"/></svg>