<?xml version="1.0" encoding="UTF-8"?>
<svg id="LOGO" xmlns="http://www.w3.org/2000/svg" viewBox="0 0 1250 703">
  <defs>
    <style>
      .cls-1 {
        fill: none;
      }

      .cls-1, .cls-2 {
        stroke-width: 0px;
      }

      .cls-2 {
        fill: #410088;
      }
    </style>
  </defs>
  <rect class="cls-1" x="149.52297" y="117.34623" width="951.95406" height="470.30754"/>
  <path class="cls-2" d="M518.03661,242.46238c3.48392-3.31001,7.94677-4.95232,12.40181-4.95232,4.76376,0,9.51776,1.87874,13.05834,5.60495l46.38689,48.83072c12.77404,13.51606,13.0515,34.33432,1.19387,48.15862,0,0-1.11223,1.17535-1.87407,1.97697-.1838.1934-.46619.2806-.6866.2806s-.50043-.08356-.71589-.30945c-7.74431-8.11948-70.41698-74.13189-70.41698-74.13189-6.84864-7.21013-6.5575-18.60858.65262-25.4582ZM966.43745,237.53368c-9.93827,0-17.99419,8.05593-17.99419,17.99419v10.73198c0,.54837-.44451.99246-.99246.99246-.28209,0-1.02665-.59838-1.20446-.76294-8.06704-7.47037-37.97843-32.02966-82.59634-32.02966-66.85291,0-121.04835,54.11978-121.04835,120.97269s54.19543,121.04749,121.04835,121.04749c9.41453-.00693,18.82906-1.0791,28.0375-3.24726,6.69954-1.57744,24.03454-7.85376,31.81312-17.00833,7.79888-9.17845,7.75369-24.65295-2.52052-34.92631-.4505-.45092-.8309-.80653-1.12154-1.06897-.19832-.17951-.4428-.25047-.65309-.25047-.25559,0-.52487.14874-.63599.24363-15.79557,13.4264-35.35581,20.19752-54.91947,20.24966-46.89176-.00085-85.0403-38.14983-85.0403-85.03859s38.14769-84.97405,85.0403-84.97405c45.08379,0,84.79325,32.14977,84.79325,72.37683v17.9288l.00342,109.70004c0,.54795.44451.99246.99246.99246h33.99748c.54795,0,.99246-.44451.99246-.99246l.00342-214.937c0-9.93827-8.05678-17.99419-17.99505-17.99419ZM732.92574,468.6591c-3.48392,3.31001-7.94677,4.95232-12.40181,4.95232-4.76376,0-9.51776-1.87874-13.05834-5.60495l-46.38689-48.83072c-12.77404-13.51606-13.0515-34.33432-1.19387-48.15862,0,0,1.11223-1.17535,1.87407-1.97697.1838-.1934.46619-.2806.6866-.2806s.50043.08356.71589.30945c7.74431,8.11948,70.41698,74.13189,70.41698,74.13189,6.84864,7.21013,6.5575,18.60858-.65262,25.4582ZM733.5786,267.92061l-193.50297,203.68657h-47.37986c-.54709,0-.9916-.44451-.9916-.99246,0-.25474.11198-.47657.27013-.65224l-.00513-.00983.01539-.01539c.01197-.01197.01881-.0218.03077-.03334l215.4499-226.78923c6.85489-7.21093,18.25064-7.49901,25.46029-.65224,7.2105,6.84933,7.502,18.24808.65309,25.45815ZM387.61841,270.39313c46.89218.00085,85.04073,38.14983,85.04073,85.03859,0,46.88876-38.14812,85.03773-85.0403,85.03859-46.89133-.00085-85.03859-38.14812-85.0403-85.03602h.00214c0-19.00814,6.35807-36.501,16.94814-50.66633.08831-.11812.20917-.4874.14777-.75133s-.3137-.52883-.3137-.52883l-27.09768-20.6218s-.21282-.22066-.62591-.22066-.7168.27896-.80764.39998c-15.16064,20.19663-24.26074,45.18788-24.26074,72.38725,0,66.85291,54.195,121.04749,121.04792,121.04749,66.85291,0,121.04792-54.19458,121.04792-121.04749,0-66.85291-54.19532-121.04749-121.04824-121.04749-9.41453.00693-18.82917,1.0791-28.0376,3.24726-6.69954,1.57744-24.03454,7.85376-31.81312,17.00833-7.79888,9.17845-7.75369,24.65295,2.52052,34.92631.4505.45092.8309.80653,1.12154,1.06897.19832.17951.4428.25047.65309.25047.25559,0,.52487-.14874.63599-.24363,15.79557-13.4264,35.35581-20.19752,54.91947-20.24966Z"/>
</svg>