<?xml version="1.0" encoding="utf-8"?>
<!-- Generator: Adobe Illustrator 23.0.3, SVG Export Plug-In . SVG Version: 6.00 Build 0)  -->
<svg version="1.1" id="LOGO" xmlns="http://www.w3.org/2000/svg" xmlns:xlink="http://www.w3.org/1999/xlink" x="0px" y="0px"
	 viewBox="0 0 1250 703" style="enable-background:new 0 0 1250 703;" xml:space="preserve">
<style type="text/css">
	.st0{fill:#004280;}
	.st1{fill:#FFFFFF;}
</style>
<title>advantech-logo</title>
<rect x="195.7" y="264.2" class="st0" width="858.5" height="174.6"/>
<path class="st1" d="M389.6,321.5V413h20c31.5,0,50.1-19.3,50.1-45.1s-17.2-46.5-54.4-46.5L389.6,321.5z M409.7,394.4v-55.1
	c20-1.4,29.3,12.9,29.3,29.3C439,383.7,429.7,395.9,409.7,394.4z"/>
<polygon class="st1" points="667.9,321.5 647.2,321.5 647.2,372.2 590.7,320 590.7,413 611.4,413 611.4,365.1 667.9,417.3 "/>
<polygon class="st1" points="677.2,339.3 702.3,339.3 702.3,413 724.4,413 724.4,339.3 749.5,339.3 749.5,321.5 677.2,321.5 "/>
<polygon class="st1" points="757.4,413 757.4,321.5 811.7,321.5 811.7,338.6 778.1,338.6 778.1,358.7 808.2,358.7 808.2,375.8 
	778.1,375.8 778.1,395.9 811.7,395.9 811.7,413 "/>
<polygon class="st1" points="955.5,321.5 955.5,358.7 919.8,358.7 919.8,321.5 899,321.5 899,413 919.8,413 919.8,375.8 
	955.5,375.8 955.5,413 976.3,413 976.3,321.5 "/>
<polygon class="st1" points="449.7,321.5 496.2,415.9 507.7,391.6 473.3,321.5 "/>
<polygon class="st1" points="543.4,318.6 532,342.2 541.3,366.5 519.8,366.5 512.7,381.5 547,381.5 560.6,413 584.2,413 "/>
<path class="st1" d="M816,367.2c0,30,22.9,46.5,50.8,46.5c10.7,0,17.2-2.9,21.5-5.7v-21.5c-4.3,5.7-12.9,9.3-21.5,9.3
	c-16.5,0-30-11.5-30-29.3s15-28.6,30-28.6c8.6,0,17.2,3.6,21.5,9.3v-20c-3.6-3.6-10.7-6.4-22.2-6.4C838.2,320.7,816,340.8,816,367.2
	z"/>
<path class="st1" d="M318.1,377.3l12.9-32.2l12.9,32.2H318.1z M384.6,413l-52.9-114.5l-53,114.5h25.8l7.2-19.3h37.9l7.9,19.3H384.6z
	"/>
</svg>
