<?xml version="1.0" encoding="UTF-8"?>
<svg id="PASTE_LOGO_HERE" data-name="PASTE LOGO HERE" xmlns="http://www.w3.org/2000/svg" viewBox="0 0 1250 703">
  <defs>
    <style>
      .cls-1 {
        fill: #231f20;
      }
    </style>
  </defs>
  <polygon class="cls-1" points="724.17 320.84 724.17 304.63 646.79 304.63 625.77 320.84 625.77 343.1 646.79 359.31 714.23 359.31 714.23 382.16 629.95 382.16 629.95 398.37 709.42 398.37 730.44 382.16 730.44 359.31 709.42 343.1 641.98 343.1 641.98 320.84 724.17 320.84"/>
  <polygon class="cls-1" points="319.1 304.63 304.34 304.63 250.19 398.37 268.9 398.37 311.75 324.23 354.53 398.37 373.25 398.37 319.1 304.63"/>
  <polygon class="cls-1" points="480.05 304.63 375.39 304.63 375.39 320.84 419.62 320.84 419.62 398.37 435.82 398.37 435.82 320.84 480.05 320.84 480.05 304.63"/>
  <polygon class="cls-1" points="861.12 304.63 756.45 304.63 756.45 320.84 800.68 320.84 800.68 398.37 816.89 398.37 816.89 320.84 861.12 320.84 861.12 304.63"/>
  <path class="cls-1" d="M208.65,304.63h-83.65v93.74h83.65l21.01-16.21v-61.33l-21.01-16.21ZM141.21,382.16v-61.33h72.25v61.33h-72.25Z"/>
  <polygon class="cls-1" points="1052.56 351.5 1043.19 335.29 1043.19 335.29 1025.47 304.63 1006.76 304.63 1033.83 351.5 1006.76 398.37 1025.47 398.37 1043.19 367.71 1043.19 367.71 1052.56 351.5"/>
  <polygon class="cls-1" points="1079.2 351.5 1088.56 335.29 1088.56 335.29 1106.29 304.63 1125 304.63 1097.93 351.5 1125 398.37 1106.29 398.37 1088.56 367.71 1088.56 367.71 1079.2 351.5"/>
  <polygon class="cls-1" points="536.34 304.63 551.1 304.63 605.25 398.37 586.53 398.37 543.69 324.23 500.91 398.37 482.19 398.37 536.34 304.63"/>
  <polygon class="cls-1" points="917.41 304.63 932.17 304.63 986.32 398.37 967.6 398.37 924.76 324.23 881.97 398.37 863.26 398.37 917.41 304.63"/>
</svg>