<?xml version="1.0" encoding="UTF-8"?><svg id="LOGO" xmlns="http://www.w3.org/2000/svg" viewBox="0 0 1250 703"><defs><style>.cls-1{fill:#c00;}</style></defs><g id="Bain_logo"><g id="Bain_logo_970x250_"><path class="cls-1" d="M380.19396,438.76897c0,14.89127,11.35458,25.74947,25.74946,25.74947s25.68741-11.47867,25.68741-25.74947c0-15.32558-10.9823-25.87356-25.68741-25.87356s-25.74946,11.54073-25.74946,25.87356M389.74919,438.76897c0-9.24499,6.57697-17.74542,16.19424-17.74542s16.19424,7.01129,16.19424,17.74542c0,9.43113-6.63902,17.55928-16.19424,17.55928s-16.19424-7.50767-16.19424-17.55928Z"/><path class="cls-1" d="M323.91742,438.64487c0,15.01536,10.67207,25.62538,25.74946,25.62538,8.37633,0,15.20149-3.35054,19.79296-9.67932l.24819-.37229-7.07334-5.89446-.24819.49639c-2.73007,4.90171-6.94926,7.44563-12.71962,7.44563-9.80341,0-16.19424-7.69383-16.19424-17.62132s7.07335-17.55927,16.19424-17.55927c5.46013,0,10.29979,3.0403,12.65757,7.13539l.24819.43433,7.25949-5.70832-.31023-.37228c-4.90171-6.01854-12.09915-9.49318-19.85501-9.49318-13.96055,0-25.74947,10.67206-25.74947,25.62536v-.06204Z"/><polygon class="cls-1" points="685.21651 442.61587 685.21651 463.33953 694.52354 463.33953 694.52354 442.61587 712.51715 414.13634 702.27941 414.13634 689.87003 433.86726 677.83291 414.13634 667.28496 414.13634 685.21651 442.61587"/><path class="cls-1" d="M518.6206,414.13634v49.20319h9.245v-18.30384c.62046.06204,1.48914.1241,2.29573.1241,11.85096,0,20.35138-5.27398,20.35138-15.51172s-7.07334-15.51172-20.35138-15.51172h-11.54073ZM527.92763,421.51992h2.29573c7.56973,0,10.79617,2.9162,10.79617,8.06609s-3.47463,7.94201-10.79617,7.94201c-1.05479,0-1.67527-.06204-2.29573-.1241v-15.884Z"/><polygon class="cls-1" points="456.63573 436.72141 471.89929 464.58047 486.97666 436.72141 493.11932 463.33953 502.79864 463.33953 489.89288 413.26769 472.02336 446.46277 453.90568 413.26769 441.6204 463.33953 450.74129 463.33953 456.63573 436.72141"/><polygon class="cls-1" points="684.09966 329.44233 598.90927 250.76686 598.90927 381.74786 622.48709 381.74786 622.48709 306.23679 707.61544 384.78816 707.61544 253.00055 684.09966 253.06259 684.09966 329.44233"/><path class="cls-1" d="M518.68263,253.06259v128.62322h24.44647v-128.62322h-24.44647Z"/><path class="cls-1" d="M487.34895,381.68581l-62.60532-130.91896-62.72942,130.91896h24.63261l12.28528-27.36268h49.63752l11.913,27.36268h26.86632ZM408.30121,333.59947l16.38038-37.04199,15.26354,37.04199h-31.64392Z"/><path class="cls-1" d="M318.95368,313.12399c10.0516-4.52943,17.49722-14.33284,17.49722-26.68017,0-22.27484-17.62132-33.44328-48.58272-33.38123h-30.89936v128.62322h36.48358c32.9469,0,50.32004-13.27803,50.32004-36.97995,0-15.69786-9.86546-26.55608-24.75671-31.58187M291.90123,327.14659c16.9388,0,26.8663,4.15714,26.8663,17.86951,0,11.913-9.05885,17.18699-26.92835,17.31109h-10.67207v-35.11854h10.73411v-.06205ZM281.16711,307.53977v-35.0565h4.34328c17.86951,0,26.68017,4.83966,26.68017,17.74541s-8.9968,17.31108-25.81151,17.31108h-5.21194Z"/><path class="cls-1" d="M287.12362,463.33953h9.43113s-8.00405-9.05884-9.24499-10.67207c1.17889-1.42708,8.50042-12.65757,8.50042-12.65757h-7.75586l-4.96375,7.69383-8.62452-9.67932c6.82516-3.47462,11.60277-8.43838,11.60277-13.58827,0-6.94926-6.57697-11.41663-14.08465-11.41663-8.50043,0-14.58102,5.0258-14.58102,12.09915,0,5.0258,3.53667,9.05885,5.70832,11.54073-5.21194,2.85416-10.36183,7.07335-10.36183,14.27079,0,7.69383,6.82516,13.65032,15.884,13.65032,5.39808,0,10.42388-2.35779,14.14669-6.26673l4.46738,5.08784-.12409-.06206ZM264.91083,425.24274c0-3.971,3.10234-6.45288,7.13539-6.45288s6.63902,2.48187,6.63902,5.9565c0,4.09509-4.77761,6.76311-8.56247,8.74861-3.0403-2.73007-5.21194-5.33604-5.21194-8.25223ZM278.375,453.41204c-1.61322,2.41983-5.52217,4.46738-8.81066,4.46738-5.58422,0-8.93475-3.22644-8.93475-7.8179,0-3.47463,3.28849-7.32154,6.82516-8.99681.06205,0,.18614-.06204.24819-.1241,0,0,10.67207,12.47142,10.67207,12.47142Z"/><polygon class="cls-1" points="647.24381 443.29839 614.73123 413.26769 614.73123 463.33953 623.72803 463.33953 623.72803 434.42568 656.24062 464.45638 656.24062 414.13634 647.24381 414.13634 647.24381 443.29839"/><path class="cls-1" d="M602.75618,463.33953l-23.95011-50.07185-23.95011,50.07185h9.43113l4.71555-10.48592h18.98636l4.52942,10.48592h10.29978-.06204ZM572.53934,444.9116l6.26673-14.1467,5.8324,14.1467s-12.09915,0-12.09913,0Z"/><path class="cls-1" d="M924.2832,356.24658l-20.41344-91.51918-56.89699,73.64967s77.31043,17.86951,77.31043,17.8695ZM997.25037,350.84851c0,62.10895-50.3821,112.42899-112.61513,112.42899s-112.67714-50.32004-112.67714-112.49102,50.44411-112.36695,112.67714-112.36695c6.08062,0,12.09913.49638,17.93155,1.42708l-9.61729,12.40938c-2.66802-.24819-5.33604-.37228-8.06612-.37228-52.3676,0-94.86971,41.44733-94.86971,92.57397s42.50212,92.57398,94.86971,92.57398,94.86971-41.44733,94.86971-92.57397c0-39.33773-25.12901-72.90511-60.61985-86.30723l-3.4126-15.38763c47.09357,13.46418,81.52962,56.77291,81.52962,108.0857h.00009Z"/></g></g></svg>