<?xml version="1.0" encoding="UTF-8"?><svg id="LOGO" xmlns="http://www.w3.org/2000/svg" viewBox="0 0 1250 703"><defs><style>.cls-1{fill:#197a56;}</style></defs><path class="cls-1" d="M949.01183,351.4998c0-3.76936-.18356-7.4473-.49825-11.08562-.3147-3.63812-.76043-7.23063-1.2979-10.82334h-101.6582l-15.44497,24.24949-15.44507,24.24269h78.30689c-4.66764,15.80548-13.56359,29.4545-25.68493,39.15669-12.12785,9.69579-27.48119,15.44497-45.08302,15.44497-22.09242,0-41.93635-9.24986-56.26038-24.07204-14.32402-14.80937-23.12164-35.19727-23.12164-57.46675,0-21.91557,8.88935-42.02818,23.34451-56.6669,14.46177-14.63852,34.48265-23.80335,56.75863-23.80335,9.69579,0,18.67707,1.53407,26.93702,4.32013,8.26675,2.77946,15.80558,6.82451,22.63009,11.84606l13.64221-21.72551,13.66202-21.73831c-10.41692-7.36187-22.18435-13.11125-35.02672-17.01185-12.84257-3.90701-26.76017-5.97865-41.48411-5.97865-19.58155,0-37.36054,3.59231-53.16602,10.10212-15.80568,6.51641-29.63805,15.94332-41.31356,27.61873-27.8352,27.8354-35.64951,55.95248-41.22183,81.80767-5.56572,25.86199-8.88945,49.48849-27.74987,68.34231-7.89964,7.90624-16.61203,13.9243-26.13087,17.96255-9.51864,4.03825-19.84383,6.10989-30.98187,6.10989-22.80704,0-43.372-9.34189-58.23349-24.16406-14.86169-14.81578-24.02642-35.10524-24.02642-57.02081,0-21.55506,9.16473-41.67407,24.02642-56.44383,14.86149-14.77656,35.42644-24.20348,58.23349-24.38053,9.51884.17705,18.41489,1.6193,26.58321,4.26792,8.17472,2.64182,15.62863,6.50961,22.26928,11.53776l13.83247-21.73851,13.82577-21.72531c-10.41032-7.36187-22.17765-12.9342-35.02012-16.65775-12.84247-3.72375-26.75997-5.61814-41.49062-5.61814-22.62989,0-43.73241,5.48049-62.14079,15.04505-18.41459,9.56475-34.12194,23.21357-45.9811,39.56322-4.66764-14.37644-14.27801-26.67484-27.43527-35.38733-13.15056-8.71249-29.86082-13.82587-48.71485-13.82587h-117.46378v251.44106h129.67695c16.34315,0,30.89004-3.86119,43.01809-10.54786,12.12124-6.69347,21.81694-16.21221,28.46439-27.5205,12.02952,13.2881,26.76017,24.15086,43.46392,31.69639,16.70356,7.54553,35.38063,11.76083,55.31629,11.76083,23.53467,0,44.9912-5.47409,63.58304-15.26812,18.58514-9.78762,34.3055-23.88218,46.34171-41.1235,11.49195,17.05787,27.21241,31.15902,45.93519,40.99246,18.72288,9.83344,40.4547,15.39916,63.98296,15.39916,36.10175,0,68.15875-14.72415,91.19527-38.48169,23.03642-23.75094,37.04584-56.52906,37.04584-92.63101h0ZM355.59004,327.44077v-54.96238h62.14089c7.89944,0,14.9074,2.87149,19.93556,7.71598,5.02825,4.8575,8.0831,11.68221,8.0831,19.58165,0,7.90604-3.05484,14.82238-8.0831,19.7521-5.02815,4.94293-12.03612,7.91264-19.93556,7.91264h-62.14089ZM355.59004,430.52781v-57.11244h74.35397c8.26005,0,15.72046,3.05494,21.10252,8.12231,5.38876,5.08057,8.71249,12.17396,8.71249,20.25045,0,8.0895-3.32373,15.26792-8.71249,20.44051-5.38206,5.15919-12.84247,8.29916-21.10252,8.29916h-74.35397Z"/></svg>