<?xml version="1.0" encoding="UTF-8"?>
<svg id="LOGO" xmlns="http://www.w3.org/2000/svg" viewBox="0 0 1250 703">
  <defs>
    <style>
      .cls-1 {
        fill: #fff;
      }

      .cls-2 {
        fill: #5658dd;
      }
    </style>
  </defs>
  <g id="hq">
    <path d="m543.40494,350.20811v1.19817c-.05609,3.8771-.61446,7.73061-1.66109,11.4642-2.28489,7.96417-6.61251,15.19249-12.55344,20.96777-5.80297,5.94508-13.04486,10.28834-21.02224,12.60789-3.71628,1.04418-7.55032,1.61147-11.40974,1.6883-4.06253.06976-8.11454-.43442-12.03604-1.49771-7.53752-2.01441-14.43005-5.93423-20.01471-11.38251l73.16935-73.16937-.87141-.89862c-6.98173-7.13151-15.74451-12.26503-25.3792-14.86806-4.85918-1.2724-9.8741-1.85-14.89529-1.71554-4.60809.12931-9.18194.83368-13.61544,2.09677-9.72527,2.87577-18.54867,8.20169-25.62427,15.46714-7.26806,7.0809-12.57001,15.93-15.38545,25.67872-1.25893,4.43356-1.95425,9.00805-2.06955,13.61544-.14042,5.05904.44651,10.11204,1.74277,15.00422,5.42978,19.40692,20.59526,34.5724,40.00216,40.00216,4.44417,1.16958,9.01998,1.76442,13.61544,1.76999h1.36154c4.60718-.11759,9.1814-.81286,13.61544-2.06953,9.7487-2.81541,18.59782-8.11737,25.67874-15.38545,7.24309-7.08854,12.55742-15.90822,15.4399-25.62424,1.272-4.43237,1.98556-9.00625,2.12401-13.61544v-1.27985l-10.2115-.05443Zm-19.98745-36.92506l-64.86393,64.86395c-3.20703-4.42186-5.57033-9.3977-6.9711-14.67744-1.06327-3.92152-1.56749-7.97354-1.49771-12.03604.06351-3.86055.63108-7.69625,1.68832-11.40974,4.89606-16.077,17.49072-28.65124,33.57566-33.5212,3.73361-1.04665,7.58709-1.60499,11.46422-1.66109h.51735c3.86034.01352,7.70331.51679,11.43696,1.49771,5.27004,1.39086,10.23709,3.74514,14.65023,6.94386Z"/>
    <polygon points="653.03644 296.69945 653.03644 387.26933 582.12725 296.69945 573.71292 296.69945 573.71292 406.19478 583.97897 406.19478 583.97897 315.65214 655.05154 406.19478 663.32975 406.19478 663.32975 296.69945 653.03644 296.69945"/>
    <path d="m771.87202,384.81855c-8.51393,8.33636-20.05917,12.84037-31.96906,12.47173-8.33152.09307-16.54666-1.96075-23.85423-5.96357-6.99682-3.79695-12.81055-9.45051-16.80145-16.33853-8.13158-14.57294-8.13158-32.31863,0-46.89157,4.00315-6.87846,9.81385-12.52907,16.80145-16.33853,7.30966-3.99451,15.52496-6.03896,23.85423-5.93633,11.88567-.40888,23.42638,4.03438,31.96906,12.30835l.89862.89862,6.61708-6.80772-.81693-.87139c-4.72726-5.15596-10.57897-9.15338-17.10099-11.68201-6.96769-2.59391-14.35006-3.89505-21.7847-3.83956-10.11526-.13394-20.09424,2.34204-28.97365,7.18895-8.45206,4.66653-15.48166,11.53614-20.34147,19.87855-9.90963,17.67674-9.90963,39.2358,0,56.91254,4.85985,8.34241,11.88941,15.21202,20.34147,19.87853,8.86782,4.88827,18.84829,7.40219,28.97365,7.2979,7.44208.05742,14.82973-1.27238,21.7847-3.92125,6.53469-2.46123,12.42097-6.38232,17.20993-11.4642l.81693-.87139-6.58987-6.80772-1.03479.8986Z"/>
    <path d="m891.33387,323.00447c-4.8908-8.34644-11.94758-15.21505-20.42316-19.87855-8.91211-4.83872-18.91519-7.31371-29.05538-7.18895-10.14219-.12949-20.14435,2.37574-29.02812,7.27064-8.47857,4.68392-15.53468,11.57073-20.42316,19.933-9.9474,17.56011-9.9474,39.05289,0,56.613,4.88092,8.36817,11.93894,15.25677,20.42316,19.933,8.88003,4.90427,18.88477,7.41013,29.02812,7.27064,10.14202.14065,20.14909-2.33533,29.05538-7.18895,8.48206-4.65467,15.541-11.52534,20.42316-19.87855,9.87826-17.67522,9.87826-39.21008,0-56.88528Zm-3.02267,28.40181c.09374,8.21073-2.0124,16.29683-6.09969,23.41855-3.98757,6.84352-9.74413,12.4872-16.66528,16.33853-14.82266,7.94919-32.64074,7.94919-47.4634,0-6.95606-3.833-12.74345-9.47924-16.74697-16.33853-8.13158-14.57294-8.13158-32.31863,0-46.89157,4.00893-6.85507,9.79499-12.50004,16.74697-16.33853,14.82266-7.94919,32.64074-7.94919,47.4634,0,6.92273,3.84914,12.67979,9.49335,16.66528,16.33853,4.08314,7.14324,6.18861,15.24565,6.09969,23.47302Z"/>
    <path d="m977.95528,368.1805c6.95921-2.11146,13.08841-6.33717,17.53669-12.09052,4.63568-6.40989,7.01115-14.17794,6.75329-22.08424.49504-10.50595-3.89832-20.6499-11.89988-27.47594-7.86976-6.53541-18.76211-9.83035-32.45924-9.83035h-39.62098v109.49533h10.32053v-34.99167h29.30045c3.2881-.01288,6.57179-.24029,9.83031-.68077l25.46089,35.67244h11.92714l-27.14919-38.01428Zm13.83325-34.14752c.46147,7.79298-2.70472,15.36174-8.57771,20.50485-5.74568,4.84709-14.26895,7.27064-25.32468,7.27064h-29.32771v-55.57821h29.32762c11.05573,0,19.57901,2.45078,25.32468,7.27064,5.87058,5.15648,9.03535,12.73188,8.57779,20.53208Z"/>
    <path d="m1117.64965,323.22232c-4.91274-8.2893-12.04265-15.04201-20.58654-19.4973-9.32505-4.79139-19.68937-7.20474-30.17177-7.02557h-43.5694v109.49533h43.5694c10.48374.19163,20.85105-2.2224,30.17177-7.02557,8.54389-4.45531,15.67379-11.20801,20.58654-19.49732,9.80047-17.54039,9.80047-38.90921,0-56.44958Zm-84.0617-16.99206h32.67705c8.86225-.17823,17.63575,1.79324,25.56983,5.74572,7.05744,3.58737,12.93633,9.12598,16.93761,15.9573,7.91597,14.67657,7.91597,32.35117,0,47.02774-3.97926,6.84885-9.86396,12.39299-16.93761,15.9573-7.93408,3.95248-16.70758,5.92393-25.56983,5.74572h-32.67705v-90.43376Z"/>
    <circle class="cls-2" cx="287.97933" cy="351.40627" r="116.05799"/>
    <polygon class="cls-1" points="377.67782 354.07491 369.94427 361.8357 366.34979 358.24123 343.06738 381.52361 360.08668 398.54291 383.34185 375.26052 379.77461 371.66605 387.50817 363.90523 377.67782 354.07491"/>
    <path class="cls-1" d="m343.91155,388.24964l-9.55804,9.44912c-12.8928,12.80029-30.50491,19.69926-48.66158,19.06161-14.7023-.46226-28.81353-5.89555-40.02939-15.41269l54.62514-54.65237c15.44576-15.87993,15.09378-41.27444-.78615-56.72018-11.89142-11.56631-29.67592-14.61923-44.74388-7.68083-38.17897,18.36287-54.2431,64.19909-35.88023,102.37806,2.9366,6.10559,6.66911,11.79523,11.10014,16.92043l-27.88441,27.85718c1.25262,1.36154,2.50524,2.72309,3.81233,4.03016s2.72309,2.72309,4.03017,3.81231l26.22334-26.22335-3.32217-6.48096s5.09217,5.03773,7.78803,7.16173c12.76081,10.09183,28.42506,15.81914,44.68586,16.33853,21.22474.67878,41.78479-7.45259,56.80361-22.46543l9.50357-9.50359c-2.43092-2.75477-5.00316-5.38154-7.70632-7.86972Zm-105.51966-79.81369c5.88365-6.76999,13.08222-12.27315,21.15839-16.17515,4.03871-2.00851,8.47886-3.07899,12.98913-3.13155,9.25037.21388,17.82903,4.8784,23.03733,12.5262,8.54347,11.47151,7.21288,27.50856-3.10432,37.41522l-54.65238,54.65239c-20.79228-24.70734-20.54987-60.8608.57185-85.28711Z"/>
  </g>
</svg>