<svg id="LOGO" xmlns="http://www.w3.org/2000/svg" viewBox="0 0 1250 703"><defs><style>.cls-1{fill:#29b8ff;}</style></defs><g id="Layer_4" data-name="Layer 4"><path d="M577.48661,261.25053a8.77861,8.77861,0,0,1-12.23169-2.8041l-56.56556-93.164a15.16566,15.16566,0,0,1,8.26728-22.38449,2.60178,2.60178,0,0,1,1.06363-.19339h59.32131c4.883,0,8.94413,4.39955,8.94413,9.37925v10.92634a8.90363,8.90363,0,0,1-8.84743,8.94413H546.68982l42.64172,71.06954a9.01684,9.01684,0,0,1-2.75576,12.3284Z"/><path class="cls-1" d="M618.77465,172.00265a8.76956,8.76956,0,0,1-8.70239-8.75074l-.04834-9.66932c0-7.54208,6.0433-10.39453,13.537-10.39453l108.05472-.09669c8.75073-.04835,16.09942,7.97719,13.68209,18.85518a4.58933,4.58933,0,0,1-.43513,1.01528l-29.68484,49.507a8.61846,8.61846,0,0,1-11.99,2.75576l-9.9594-5.7049a8.85142,8.85142,0,0,1-2.7074-12.135L705.70189,172.051Z"/><path d="M669.49025,232.581a8.74759,8.74759,0,0,1,11.99-2.94915l8.31562,4.93136c6.5268,3.86773,5.84993,10.49121,2.03057,16.92132l-54.39,90.69829c-4.4479,7.49373-13.53706,9.37924-21.65929,1.74048a2.8701,2.8701,0,0,1-.6285-.87023l-29.73318-50.13547A8.60569,8.60569,0,0,1,589.2832,281.266l10.00776-5.60821a8.8264,8.8264,0,0,1,11.79659,3.86773l15.03579,25.14025Z"/><path d="M452.22049,411.6569l-6.47845-3.0942a7.55277,7.55277,0,0,0-10.15279,3.67434l-1.83717,3.43259-28.42782,60.86843-28.42782-60.91673-1.83717-3.4326a7.55274,7.55274,0,0,0-10.1528-3.67433l-6.47844,3.09419a8.20785,8.20785,0,0,0-3.86773,10.53953l1.59543,3.19087L394.833,508.10843a11.39642,11.39642,0,0,0,10.29783,6.57513h.33843a11.39642,11.39642,0,0,0,10.29783-6.57513L454.44444,425.339l1.59544-3.19087A8.02474,8.02474,0,0,0,452.22049,411.6569Z"/><path d="M513.18559,510.81586l6.47845,3.0942a7.55277,7.55277,0,0,0,10.15279-3.67434l1.83717-3.4326,28.42781-60.86842,28.42782,60.86842,1.83716,3.4326a7.55276,7.55276,0,0,0,10.15281,3.67434l6.47846-3.0942a8.10559,8.10559,0,0,0,3.86773-10.49123l-1.59543-3.19086-38.67731-82.76944a11.39639,11.39639,0,0,0-10.29782-6.57513h-.33844a11.39638,11.39638,0,0,0-10.29782,6.57513l-38.67731,82.76944-1.59543,3.19086A8.05648,8.05648,0,0,0,513.18559,510.81586Z"/><path d="M743.84736,430.60879a7.57189,7.57189,0,0,0,7.9772-7.30033l.24173-7.1553a8.131,8.131,0,0,0-7.49373-8.31563l-3.91606-.04833H695.9842a4.4254,4.4254,0,0,0-.77354.04833c-11.79659.77354-29.39474,9.28256-29.39474,29.49145,0,20.54732,17.35645,29.73318,26.68734,31.76374l23.30309,5.6082a7.509,7.509,0,0,0,1.01526.1934c1.257.1934,7.397,1.4504,7.397,8.364,0,4.1578-2.0789,6.62349-6.23673,7.30033h-43.8504l-2.99749.04833a7.57189,7.57189,0,0,0-7.9772,7.30033l-.24173,7.1553a8.131,8.131,0,0,0,7.49373,8.31563l3.72269.04833h44.6723a7.83581,7.83581,0,0,0,1.06363-.04833c10.92633-1.01527,27.21915-9.86273,27.21915-30.12,0-20.93409-16.92132-29.298-26.34891-30.89351l-23.013-5.51153a.61337.61337,0,0,0-.29006-.04833c-.33844-.0967-8.75073-1.93387-8.75073-9.4276,0-4.97969,4.78633-6.33339,7.83216-6.67183h44.09213Z"/><path d="M898.31485,415.33126a7.59478,7.59478,0,0,0-7.73546-7.54206H811.72605a7.62508,7.62508,0,0,0-7.73547,7.54206v7.252a8.19689,8.19689,0,0,0,7.7838,8.07389h27.99271v71.31128h0v3.67433a7.62507,7.62507,0,0,0,7.54206,7.73546h7.252a8.19685,8.19685,0,0,0,8.07386-7.78379V501.9201h0v-71.263h27.99271a8.1298,8.1298,0,0,0,7.7838-8.07389Z"/></g></svg>