<?xml version="1.0" encoding="UTF-8"?><svg id="LOGO" xmlns="http://www.w3.org/2000/svg" viewBox="0 0 1250 703"><path d="M440.955,394.714c11.267-10.06,16.988-24.596,16.988-43.179s-5.546-32.808-16.988-43.062c-11.383-10.177-26.405-15.334-44.658-15.334h-33.411v116.753h33.411c18.68,0,33.294-4.962,44.658-15.159v-.02ZM379.641,308.22h16.988c28.079,0,44.191,15.781,44.191,43.315s-15.82,43.024-43.451,43.316v.038h-17.727v-86.669Z" fill="#0b0b0b"/><path d="M583.472,412.325c4.379,0,8.309-.603,11.695-1.79l-1.362-13.096c-2.043.545-3.833.798-5.604.798-8.134,0-12.24-4.397-12.24-13.056v-45.184h18.739v-12.356h-18.739v-22.65h-15.742v22.65h-13.543v12.395h13.543v48.219c0,16.19,7.608,24.07,23.273,24.07h-.019Z" fill="#0b0b0b"/><path d="M737.078,360.452l27.358,49.483h19.401l-29.266-51.118.934-.253c17.221-4.475,27.495-16.715,27.495-32.749,0-9.768-3.444-17.493-10.547-23.603-7.141-6.13-16.559-9.107-28.76-9.107h-48.103v116.811h16.793v-49.873h24.498l.214.39h-.019v.02ZM712.385,307.523h30.161c15.761,0,23.739,6.441,23.739,19.147s-7.978,19.011-23.739,19.011h-30.161v-38.159Z" fill="#0b0b0b"/><path d="M863.485,337.355c-8.368-8.095-19.751-12.551-31.193-12.181-11.85,0-22.261,3.931-30.978,11.656-8.835,7.803-13.115,18.233-13.115,31.912s3.892,23.078,11.889,30.764v-.039l1.226,1.09c8.717,7.745,19.128,11.656,30.94,11.656,11.539.35,22.863-4.067,31.212-12.181,5.857-5.682,12.842-15.723,12.842-31.348s-6.985-25.685-12.842-31.348l.02.02ZM852.082,389.719c-5.429,5.41-12.162,8.153-19.985,8.153s-14.361-2.743-19.789-8.153c-5.293-5.293-7.978-12.356-7.978-20.957s2.685-15.684,7.978-20.957c5.429-5.41,12.103-8.153,19.789-8.153s14.536,2.744,19.985,8.153c5.409,5.41,8.153,12.473,8.153,20.957s-2.744,15.547-8.153,20.957Z" fill="#0b0b0b"/><path d="M932.333,412.249c11.19,0,20.625-4.009,28.017-11.928,7.513-8.173,11.311-18.797,11.311-31.601s-3.738-23.545-11.13-31.446c-7.303-8.134-16.249-12.084-27.319-12.084-11.889,0-22.591,5.507-28.625,14.73l-1.366,2.082v-48.88h-15.739v116.734h15.739v-14.127l1.366,2.16c5.607,8.853,16.249,14.361,27.77,14.361h-.023ZM902.116,368.759c0-8.445,2.627-15.451,7.798-20.782,5.239-5.604,11.423-8.348,18.936-8.348s13.967,2.822,18.989,8.367c5.156,5.293,7.783,12.279,7.783,20.763s-2.544,15.353-7.783,20.938c-4.999,5.351-11.573,8.173-18.989,8.173s-13.682-2.744-18.936-8.173c-5.171-5.507-7.798-12.551-7.798-20.957v.02Z" fill="#0b0b0b"/><path d="M1058.077,337.355c-8.368-8.095-19.754-12.551-31.192-12.181-11.851,0-22.261,3.931-30.982,11.656-8.834,7.803-13.112,18.233-13.112,31.912s3.888,23.078,11.888,30.764v-.039l1.223,1.09c8.721,7.745,19.131,11.656,30.937,11.656,11.521.35,22.869-4.067,31.215-12.181,5.854-5.682,12.842-15.723,12.842-31.348s-6.987-25.685-12.842-31.348l.023.02ZM1046.654,389.719c-5.434,5.41-12.166,8.153-19.987,8.153s-14.358-2.743-19.792-8.153c-5.291-5.293-7.978-12.356-7.978-20.957s2.687-15.684,7.978-20.957c5.434-5.41,12.106-8.153,19.792-8.153s14.538,2.744,19.987,8.153c5.404,5.41,8.151,12.473,8.151,20.957s-2.747,15.567-8.151,20.957Z" fill="#0b0b0b"/><path d="M1110.307,412.325c4.376,0,8.308-.603,11.693-1.79l-1.366-13.096c-2.041.545-3.828.798-5.599.798-8.136,0-12.241-4.397-12.241-13.056v-45.184h18.741v-12.356h-18.741v-22.65h-15.739v22.65h-13.547v12.395h13.547v48.219c0,16.19,7.603,24.07,23.267,24.07h-.015Z" fill="#0b0b0b"/><path d="M244.749,293.122h-38.917v16.676h38.917v-16.676Z" fill="#0b0b0b"/><path d="M205.835,276.447h-77.835v16.676h77.835v-16.676Z" fill="#0b0b0b"/><path d="M205.835,309.798h-77.835v16.676h77.835v-16.676Z" fill="#0b0b0b"/><path d="M283.672,326.495h-38.917v16.676h38.917v-16.676Z" fill="#0b0b0b"/><path d="M244.753,343.171h-116.753v16.676h116.753v-16.676Z" fill="#0b0b0b"/><path d="M283.672,359.849h-38.917v16.676h38.917v-16.676Z" fill="#0b0b0b"/><path d="M205.835,376.524h-77.835v16.676h77.835v-16.676Z" fill="#0b0b0b"/><path d="M205.835,409.877h-77.835v16.676h77.835v-16.676Z" fill="#0b0b0b"/><path d="M244.749,393.202h-38.917v16.676h38.917v-16.676Z" fill="#0b0b0b"/><path d="M504.334,325.29h-1.751c-9.262.253-16.579,2.549-22.3,7.025-5.196,4.086-8.095,8.737-8.835,14.224,0,0-.408,3.289-.467,5.04h14.75c.019-1.829.681-5.02.681-5.02,1.109-6.168,7.9-9.982,17.921-9.982,11.987,0,18.311,5.293,18.311,15.275v4.203l-27.145,4.32c-18.388,2.86-28.935,12.628-28.935,26.814,0,15.022,11.188,25.121,27.826,25.121,12.628,0,21.774-5.604,27.203-16.637l1.401-2.861v17.144h15.411v.059l.02-57.073c0-18.077-11.773-27.651-34.073-27.651h-.019ZM522.665,370.785c-.136,16.871-10.605,28.624-25.569,28.624-8.814,0-14.749-5.312-14.749-13.233s5.663-12.979,16.852-14.924l23.525-4.048-.059,3.581Z" fill="#0b0b0b"/><path d="M641.67,325.29h-1.752c-9.262.253-16.579,2.549-22.3,7.025-5.195,4.086-8.095,8.737-8.834,14.224,0,0-.409,3.289-.468,5.04h14.75c.02-1.829.681-5.02.681-5.02,1.109-6.168,7.9-9.982,17.922-9.982,11.986,0,18.311,5.293,18.311,15.275v4.203l-27.145,4.32c-18.389,2.86-28.935,12.628-28.935,26.814,0,15.022,11.189,25.121,27.826,25.121,12.629,0,21.774-5.604,27.203-16.637l1.401-2.861v17.144h15.411v.059l.02-57.073c0-18.077-11.773-27.651-34.073-27.651h-.019ZM660,370.785c-.136,16.871-10.605,28.624-25.568,28.624-8.815,0-14.75-5.312-14.75-13.233s5.663-12.979,16.852-14.924l23.525-4.048-.059,3.581Z" fill="#0b0b0b"/></svg>