<?xml version="1.0" encoding="UTF-8"?>
<svg id="Layer_1" data-name="Layer 1" xmlns="http://www.w3.org/2000/svg" viewBox="0 0 48 48">
  <defs>
    <style>
      .cls-1 {
        fill: none;
      }
    </style>
  </defs>
  <g id="m48-workflow-complex">
    <g>
      <path d="M19.30596,37.16883l4.70703,4.70703,4.70703-4.70703-4.70703-4.70703-4.70703,4.70703Zm4.70703,3.29297l-3.29297-3.29297,3.29297-3.29297,3.29297,3.29297-3.29297,3.29297Zm-17.96104,.58984l6.47168-3.88281-6.47168-3.88281v7.76562Zm1-6l3.52832,2.11719-3.52832,2.11719v-4.23438Zm21.46104-12.88281c0-2.48145-2.01855-4.5-4.5-4.5s-4.5,2.01855-4.5,4.5,2.01855,4.5,4.5,4.5,4.5-2.01855,4.5-4.5Zm-4.5,3.5c-1.92969,0-3.5-1.57031-3.5-3.5s1.57031-3.5,3.5-3.5,3.5,1.57031,3.5,3.5-1.57031,3.5-3.5,3.5Zm-15.96104,8.5v-6h1v6h-1Zm5,3h5v1h-5v-1Zm.48008-14.50439l-1.28564-4.49561H5.70098l-1.20703,4.50439,1.28564,4.49561h6.54541l1.20703-4.50439Zm-6.99854,3.50439l-1.00195-3.50439,.93701-3.49561h5.02393l1.00195,3.50439-.93701,3.49561H6.53349ZM39.05195,10.16883h-6v-1h7v24h-1V10.16883Zm-10,27h5v1h-5v-1Zm-6-9h1v4h-1v-4Zm1-11h-1v-4h1v4Zm8-10H13.05195v5h19V7.16883Zm-1,4H14.05195v-3H31.05195v3Zm4,23v7h7v-7h-7Zm6,6h-5v-5h5v5Zm-4-7v-10h-8v-1h9v11h-1ZM14.05195,22.16883h4v1h-4v-1Zm-5-5h-1V9.16883h4v1h-3v7Z"/>
      <rect class="cls-1" width="48" height="48"/>
    </g>
  </g>
</svg>