<?xml version="1.0" encoding="UTF-8"?>
<svg id="Layer_1" data-name="Layer 1" xmlns="http://www.w3.org/2000/svg" viewBox="0 0 48 48">
  <defs>
    <style>
      .cls-1 {
        fill: none;
      }
    </style>
  </defs>
  <g id="m48-data-2">
    <g>
      <path d="M12.81818,35.44156h-1v-5h1v5Zm4-13h-1v13h1v-13Zm4,4h-1v9h1v-9Zm8,9v-6h-1v6h1Zm-4-4h-1v4h1v-4Zm8,4v-3h-1v3h1ZM40.81818,7.44156V40.44156H7.81818V7.44156H40.81818Zm-1,1H8.81818v31h31V8.44156Zm-6,28H10.81818v1h23v-1Zm-10.30519-17.27273c0-2.47314,1.67822-4.65039,4.08154-5.29395l.48291-.12939,1.34375,5.01514,5.01465,1.34375-.12939,.48291c-.64355,2.40332-2.8208,4.08154-5.29346,4.08154-3.03271,0-5.5-2.46729-5.5-5.5Zm1,0c0,2.48145,2.01855,4.5,4.5,4.5,1.854,0,3.50439-1.15527,4.17139-2.86426l-4.57959-1.22754-1.22705-4.58008c-1.70947,.66699-2.86475,2.31787-2.86475,4.17188Zm6.0918-1.5918l-1.49316-5.57275,.48291-.12939c.52441-.14062,.9751-.20605,1.41846-.20605,3.03223,0,5.49951,2.46729,5.49951,5.5,0,.44336-.06543,.89404-.20605,1.41846l-.12939,.48291-5.57227-1.49316Zm-.26318-4.84619l1.07959,4.02979,4.0293,1.07959c.04199-.2373,.06201-.45703,.06201-.67139,0-2.48145-2.01855-4.5-4.49951-4.5-.21436,0-.43408,.02002-.67139,.06201Z"/>
      <rect class="cls-1" width="48" height="48"/>
    </g>
  </g>
</svg>