<?xml version="1.0" encoding="UTF-8"?>
<svg id="Layer_1" data-name="Layer 1" xmlns="http://www.w3.org/2000/svg" viewBox="0 0 48 48">
  <defs>
    <style>
      .cls-1 {
        fill: none;
      }
    </style>
  </defs>
  <g id="m48-3d-manipulation">
    <g>
      <path d="M34.91948,26.55848l1.46436,5.46387-5.46436,1.46387-1.22461-.70703,4.78125-1.28076-9.96289-5.75244-9.96338,5.75244,4.78125,1.28076-1.22461,.70703-5.46436-1.46387,1.46411-5.46387,1.22461-.70703-1.28101,4.78076,9.96338-5.75195V13.37586l-4.00024,3.5v-1.41406l4.00024-4,3.99976,4v1.41406l-2.99976-3.5v11.50439l9.96289,5.75195-1.28125-4.78076,1.22461,.70703Zm5.77734,5.59668c.43359,.46973,.53931,1.18115,.20361,1.76318-.27783,.48047-.7832,.74951-1.30176,.74951-.11084,0-.22168-.01807-.33154-.04297-3.45996,5.04102-9.12817,8.04346-15.25391,8.04346s-11.79346-3.00244-15.25342-8.04346c-.10986,.0249-.2207,.04297-.33154,.04297-.51855,0-1.02393-.26904-1.30176-.74902-.33594-.58301-.22998-1.29492,.20435-1.76465-1.1853-2.47607-1.81665-5.22266-1.81665-7.98535C5.51421,14.48328,12.98223,6.47401,22.58452,5.73914c.18628-.61621,.75244-1.06934,1.42871-1.06934s1.24268,.45312,1.42896,1.06934c9.60278,.73486,17.07056,8.74414,17.07056,18.42969,0,2.80273-.61548,5.48633-1.81592,7.98633ZM23.51421,6.16932c0,.27539,.22363,.49951,.49902,.49951,.2749,0,.49805-.22314,.49902-.49805l.00024-.00244c-.00049-.2749-.22437-.49854-.49927-.49854-.27539,0-.49902,.22412-.49902,.49951Zm-14.83887,27.43213c.23828-.1377,.32031-.44434,.18262-.68262-.06641-.11572-.17432-.19824-.30322-.23242-.04297-.01172-.08643-.01758-.12988-.01758-.08643,0-.17188,.02246-.24902,.06738-.23877,.1377-.3208,.44385-.18311,.68213,.13721,.23877,.44336,.32031,.68262,.18311Zm29.74561,.48828c-.36377-.46729-.43188-1.12695-.11816-1.6709,.2002-.34668,.52344-.59473,.91064-.69873,.19873-.05322,.4021-.06348,.60034-.03516,1.12305-2.35352,1.69897-4.87842,1.69897-7.51611,0-9.15088-7.04688-16.71875-16.11377-17.43018-.22485,.54492-.76074,.93018-1.38574,.93018s-1.16064-.38525-1.38525-.93018C13.56084,7.45008,6.51421,15.01795,6.51421,24.16883c0,2.63867,.57617,5.16309,1.69971,7.51611,.198-.02832,.40137-.01807,.59961,.03516,.38721,.104,.71045,.35205,.91064,.69873,.31372,.54395,.24561,1.20361-.11841,1.67139,3.27515,4.75,8.62549,7.57812,14.40747,7.57812s11.13257-2.82861,14.40771-7.57861Zm1.43213-1.35205l-.00488-.00244c-.07666-.04346-.16064-.06641-.24609-.06641-.04346,0-.08691,.00586-.12988,.01758-.12891,.03418-.23682,.1167-.30322,.23242-.1377,.23828-.05566,.54492,.18262,.68262,.23828,.13721,.54443,.05566,.68262-.18359,.13721-.2373,.05591-.54199-.18115-.68018Z"/>
      <rect class="cls-1" x="0" width="48" height="48"/>
    </g>
  </g>
</svg>