<?xml version="1.0" encoding="UTF-8"?>
<svg id="Layer_1" data-name="Layer 1" xmlns="http://www.w3.org/2000/svg" xmlns:xlink="http://www.w3.org/1999/xlink" viewBox="0 0 48 48">
  <defs>
    <style>
      .cls-1 {
        clip-path: url(#clippath-1);
      }

      .cls-2 {
        clip-path: url(#clippath);
      }

      .cls-3 {
        fill: none;
      }
    </style>
    <clipPath id="clippath">
      <rect class="cls-3" width="48" height="48"/>
    </clipPath>
    <clipPath id="clippath-1">
      <rect class="cls-3" width="48" height="48"/>
    </clipPath>
  </defs>
  <g id="m48-wind-farm">
    <g class="cls-2">
      <g class="cls-1">
        <path d="M42.5,36.5v-5h-2v-2h-2v-1h1.5v-1h-1.5v-1h1.5v-1h-1.5v-1.5h-1v1.5h-1.5v1h1.5v1h-1.5v1h1.5v1h-2v2h-2v-2h-2v-1h1.5v-1h-1.5v-1h1.5v-1h-1.5v-1.5h-1v1.5h-1.5v1h1.5v1h-1.5v1h1.5v1h-2v2h-1.293l-2.207-2.207-2.5,2.5v4.707h-5.044l-1.072-4h-.884v-9.051c.064-.012,.123-.039,.186-.056l6.376,6.376,.942-1.632c.339-.586,.241-1.331-.238-1.811l-5.272-5.27c.001-.019,.006-.037,.006-.056,0-.706-.297-1.341-.769-1.796l2.332-8.704h-1.884c-.678,0-1.274,.457-1.449,1.112l-1.932,7.209c-.599,.332-1.047,.897-1.216,1.577l-8.707,2.333,.942,1.632c.272,.472,.774,.75,1.3,.75,.129,0,.259-.016,.387-.051l7.207-1.931c.241,.146,.504,.26,.789,.318v9.051h-.884l-1.072,4H4.5v1H43.5v-1h-1Zm-20.441-9.467c.159,.16,.192,.408,.079,.604l-.291,.503-5.241-5.241c.241-.203,.439-.449,.589-.729l4.864,4.863Zm-5.363-15.162c.058-.219,.257-.371,.483-.371h.581l-1.917,7.156c-.265-.095-.546-.156-.843-.156-.028,0-.055,.007-.083,.008l1.779-6.637Zm-2.074,7.683l.014,.004,.003-.009c.116-.029,.236-.049,.361-.049,.827,0,1.5,.673,1.5,1.5s-.673,1.5-1.5,1.5-1.5-.673-1.5-1.5c0-.696,.479-1.277,1.122-1.446m-8.376,4.542c-.222,.059-.45-.037-.562-.233l-.291-.503,7.152-1.917c.057,.317,.175,.611,.339,.874l-6.638,1.779Zm7.334,12.404l.804-3h1.232l.804,3h-2.84Zm22.92-6h3v1h-3v-1Zm-7,0h3v1h-3v-1Zm-4,6v-2.5h-1v2.5h-1v-4.293l1.5-1.5,1.5,1.5v4.293h-1Zm2,0v-4h14v4h-14Zm2-3h2v1h-2v-1Zm4,0h2v1h-2v-1Zm4,0h2v1h-2v-1Z"/>
      </g>
    </g>
  </g>
</svg>