<?xml version="1.0" encoding="utf-8"?>
<!-- Generator: Adobe Illustrator 27.0.0, SVG Export Plug-In . SVG Version: 6.00 Build 0)  -->
<svg version="1.1" id="Layer_1" xmlns="http://www.w3.org/2000/svg" xmlns:xlink="http://www.w3.org/1999/xlink" x="0px" y="0px"
	 width="285px" height="160px" viewBox="0 0 285 160" style="enable-background:new 0 0 285 160;" xml:space="preserve">
<style type="text/css">
	.st0{fill:none;}
	.st1{fill-rule:evenodd;clip-rule:evenodd;fill:#293748;}
	.st2{fill:#092241;}
	.st3{fill:#293748;}
</style>
<rect class="st0" width="285" height="160"/>
<g>
	<g id="Teraco_Logo_Lockup_00000019647639086787506710000001390778847861618339_">
		<path class="st1" d="M15,63.5h13.6v23.8h9.7V63.5H52v-7.9H15V63.5 M55.3,87.3h35.4v-7.6H65v-5.1h21.3V68H65v-5.1h25.6v-7.3H55.3
			V87.3z M104.9,63.5h15.2c3.1,0,4.5,0.5,4.5,3.3v1c0,2.3-1,3.3-3.6,3.3h-16.1V63.5z M95.2,87.3h9.7V79h15.3c3,0,4,1.1,4,4.4v3.8
			h9.7v-5.4c0-5.2-2.4-6.5-5.3-7c4.5-1.1,5.4-3.6,5.4-7.9v-2c0-5.7-2-9.4-9.5-9.4H95.2V87.3z M136.1,87.3H147l2.8-5.6h19.7l3,5.6
			h10.8l-17.4-31.7h-12.6L136.1,87.3z M159.6,62.9l6.3,11.9h-12.4L159.6,62.9z"/>
		<path class="st1" d="M183.8,75.6c0,7.8,2.6,11.5,11,11.5h15.8c8.6,0,10.4-3,10.4-8.6v-2.1H217v1.9c0,4.2-1.6,5.4-7.2,5.4h-14.6
			c-4,0-7.2-1.2-7.2-6.6V65.6c0-5.4,3.2-6.6,7.2-6.6h14.5c3.8,0,7.1,0.3,7.1,5.5v1.4h3.7v-2.6c0-4.1-2.1-7.7-9.7-7.7h-16
			c-8.3,0-11,3.7-11,11.5V75.6 M232.9,73.9c0,4.6,1.6,6.8,6.5,6.8h10.5c4.9,0,6.5-2.2,6.5-6.8v-5c0-4.6-1.6-6.8-6.5-6.8h-10.5
			c-4.9,0-6.5,2.2-6.5,6.8V73.9z M253,74.5c0,2.9-1.7,3.5-3.8,3.5h-9c-2.1,0-3.8-0.6-3.8-3.5v-6.2c0-2.9,1.7-3.5,3.8-3.5h9
			c2.1,0,3.8,0.6,3.8,3.5V74.5z M260.3,77.2c0,5.4-3.2,6.6-7.2,6.6h-16.9c-4,0-7.2-1.2-7.2-6.6V65.6c0-5.4,3.2-6.6,7.2-6.6h16.9
			c4,0,7.2,1.2,7.2,6.6V77.2z M224.7,75.6c0,7.8,2.6,11.5,11,11.5h17.8c8.3,0,11-3.7,11-11.5v-8.4c0-7.8-2.6-11.5-11-11.5h-17.8
			c-8.3,0-11,3.7-11,11.5V75.6z"/>
	</g>
	<g>
		<path class="st2" d="M32.4,98.1h1.6l4.2,9.6h-1.8l-1-2.3h-4.5l-1,2.3h-1.7L32.4,98.1z M34.8,103.9l-1.7-3.8l-1.6,3.8H34.8z"/>
		<path class="st2" d="M46.3,98.2h3.6c3,0,5.1,2.1,5.1,4.8v0c0,2.7-2.1,4.8-5.1,4.8h-3.6V98.2z M49.9,106.2c2,0,3.3-1.4,3.3-3.2v0
			c0-1.9-1.3-3.2-3.3-3.2H48v6.5H49.9z"/>
		<path class="st2" d="M58.3,98.2H60v9.6h-1.7V98.2z"/>
		<path class="st2" d="M63.3,103L63.3,103c0-2.7,2-5,4.9-5c1.7,0,2.7,0.5,3.7,1.3l-1.1,1.3c-0.7-0.6-1.5-1-2.7-1
			c-1.8,0-3.1,1.5-3.1,3.4v0c0,2,1.3,3.4,3.3,3.4c0.9,0,1.7-0.3,2.3-0.7v-1.8h-2.4v-1.5h4.1v4c-0.9,0.8-2.3,1.5-4,1.5
			C65.3,107.9,63.3,105.7,63.3,103z"/>
		<path class="st2" d="M75.8,98.2h1.7v9.6h-1.7V98.2z"/>
		<path class="st2" d="M83.6,99.7h-3v-1.6h7.8v1.6h-3v8h-1.7V99.7z"/>
		<path class="st2" d="M93.4,98.1H95l4.2,9.6h-1.8l-1-2.3h-4.5l-1,2.3h-1.7L93.4,98.1z M95.8,103.9l-1.7-3.8l-1.6,3.8H95.8z"/>
		<path class="st2" d="M102,98.2h1.7v8h5v1.5H102V98.2z"/>
		<path class="st2" d="M117.1,98.2h4.3c1.2,0,2.1,0.4,2.8,1c0.5,0.5,0.8,1.2,0.8,2.1v0c0,1.6-0.9,2.5-2.3,2.9l2.6,3.6h-2l-2.3-3.3
			h-2.1v3.3h-1.7V98.2z M121.2,102.9c1.2,0,2-0.6,2-1.6v0c0-1-0.7-1.6-2-1.6h-2.4v3.2H121.2z"/>
		<path class="st2" d="M128.2,98.2h7.1v1.5h-5.4v2.5h4.8v1.5h-4.8v2.6h5.5v1.5h-7.2V98.2z"/>
		<path class="st2" d="M141.9,98.1h1.6l4.2,9.6h-1.8l-1-2.3h-4.5l-1,2.3h-1.7L141.9,98.1z M144.3,103.9l-1.7-3.8l-1.6,3.8H144.3z"/>
		<path class="st2" d="M150.5,98.2h1.7v8h5v1.5h-6.7V98.2z"/>
		<path class="st2" d="M161.2,99.7h-3v-1.6h7.8v1.6h-3v8h-1.7V99.7z"/>
		<path class="st2" d="M171.7,103.9l-3.8-5.8h2l2.7,4.2l2.7-4.2h1.9l-3.8,5.7v3.8h-1.7V103.9z"/>
		<path class="st2" d="M184.6,103L184.6,103c0-2.7,2-5,4.9-5c1.8,0,2.8,0.6,3.7,1.5l-1.1,1.2c-0.8-0.7-1.6-1.2-2.7-1.2
			c-1.8,0-3.2,1.5-3.2,3.4v0c0,1.9,1.3,3.4,3.2,3.4c1.2,0,1.9-0.5,2.7-1.2l1.1,1.1c-1,1-2.1,1.7-3.9,1.7
			C186.7,107.9,184.6,105.7,184.6,103z"/>
		<path class="st2" d="M195.6,103L195.6,103c0-2.7,2.1-5,5-5c2.9,0,5,2.2,5,4.9v0c0,2.7-2.1,4.9-5,4.9
			C197.7,107.9,195.6,105.6,195.6,103z M203.9,103L203.9,103c0-1.9-1.4-3.4-3.3-3.4c-1.9,0-3.2,1.5-3.2,3.4v0c0,1.9,1.4,3.4,3.2,3.4
			C202.6,106.3,203.9,104.8,203.9,103z"/>
		<path class="st2" d="M208.9,98.2h1.8l2.9,4.5l2.9-4.5h1.8v9.6h-1.7v-6.9l-3,4.5h-0.1l-3-4.5v6.8h-1.7V98.2z"/>
		<path class="st2" d="M222,98.2h3.8c2.2,0,3.6,1.3,3.6,3.2v0c0,2.1-1.7,3.3-3.8,3.3h-1.9v3.1H222V98.2z M225.6,103.1
			c1.3,0,2.1-0.7,2.1-1.7v0c0-1.1-0.8-1.7-2.1-1.7h-2v3.4H225.6z"/>
		<path class="st2" d="M234.7,98.1h1.6l4.2,9.6h-1.8l-1-2.3h-4.5l-1,2.3h-1.7L234.7,98.1z M237.1,103.9l-1.7-3.8l-1.6,3.8H237.1z"/>
		<path class="st2" d="M243.3,98.2h1.6l5.1,6.6v-6.6h1.7v9.6h-1.4l-5.3-6.8v6.8h-1.7V98.2z"/>
		<path class="st2" d="M258.2,103.9l-3.8-5.8h2l2.7,4.2l2.7-4.2h1.9l-3.8,5.7v3.8h-1.7V103.9z"/>
	</g>
	<g id="Teraco_Logo_00000149339476321327176310000012957125149317843351_">
		<g>
			<path class="st3" d="M267.1,52.1c0.4,0,0.8,0.1,1.1,0.2c0.3,0.1,0.7,0.4,0.9,0.6c0.3,0.3,0.5,0.6,0.6,0.9
				c0.1,0.3,0.2,0.7,0.2,1.1c0,0.4-0.1,0.8-0.2,1.1c-0.1,0.3-0.4,0.7-0.6,0.9c-0.3,0.3-0.6,0.5-0.9,0.6c-0.3,0.1-0.7,0.2-1.1,0.2
				c-0.4,0-0.7-0.1-1.1-0.2c-0.3-0.1-0.7-0.4-0.9-0.6c-0.3-0.3-0.5-0.6-0.6-0.9c-0.1-0.3-0.2-0.7-0.2-1.1c0-0.3,0-0.5,0.1-0.8
				c0.1-0.2,0.2-0.5,0.3-0.7c0.3-0.4,0.6-0.8,1-1C266.2,52.2,266.6,52.1,267.1,52.1z M267.1,52.6c-0.3,0-0.6,0.1-0.9,0.2
				c-0.3,0.1-0.5,0.3-0.8,0.5c-0.2,0.2-0.4,0.5-0.5,0.8c-0.1,0.3-0.2,0.6-0.2,0.9c0,0.3,0.1,0.6,0.2,0.9c0.1,0.3,0.3,0.5,0.5,0.8
				c0.2,0.2,0.5,0.4,0.8,0.5c0.3,0.1,0.6,0.2,0.9,0.2c0.3,0,0.6-0.1,0.9-0.2c0.3-0.1,0.6-0.3,0.8-0.5c0.2-0.2,0.4-0.5,0.5-0.7
				c0.1-0.3,0.2-0.6,0.2-0.9c0-0.3-0.1-0.7-0.2-0.9c-0.1-0.3-0.3-0.5-0.5-0.8c-0.2-0.2-0.5-0.4-0.8-0.5
				C267.8,52.7,267.5,52.6,267.1,52.6z M266,53.3h1.2c0.4,0,0.8,0.1,1,0.2c0.2,0.2,0.3,0.4,0.3,0.7c0,0.2-0.1,0.4-0.2,0.5
				c-0.1,0.1-0.3,0.2-0.5,0.3l0.7,1.4h-0.9l-0.6-1.3h-0.4v1.3H266V53.3z M266.7,53.8v0.9h0.4c0.2,0,0.4,0,0.5-0.1
				c0.1-0.1,0.2-0.2,0.2-0.3c0-0.2-0.1-0.3-0.2-0.4c-0.1-0.1-0.3-0.1-0.5-0.1H266.7z"/>
		</g>
	</g>
</g>
</svg>
