<svg xmlns="http://www.w3.org/2000/svg" viewBox="0 0 974.7 179.71"><title>NVIDIA_logo</title><path d="M1063.84,351.27v-2.69h1.73c0.94,0,2.23.07,2.23,1.22s-0.66,1.47-1.78,1.47h-2.18m0,1.89H1065l2.68,4.71h2.94l-3-4.9a2.66,2.66,0,0,0,2.79-2.91c0-2.56-1.77-3.39-4.76-3.39h-4.33v11.19h2.49v-4.71m12.59-.88c0-6.57-5.11-10.39-10.8-10.39s-10.83,3.81-10.83,10.39,5.1,10.4,10.83,10.4,10.8-3.83,10.8-10.4m-3.12,0a7.67,7.67,0,0,1-7.68,8v0A8,8,0,1,1,1073.32,352.29Z" transform="translate(-101.73 -207.14)" style="fill:#fff"/><path d="M680,241.1v118H713.3v-118H680Zm-262.06-.16V359.06h33.61V267.37l26.22,0.09c8.63,0,14.59,2.07,18.74,6.5,5.27,5.62,7.42,14.67,7.42,31.23v53.87h32.56V293.8c0-46.58-29.69-52.86-58.73-52.86H417.92Zm315.7,0.16v118h54c28.79,0,38.18-4.79,48.35-15.52,7.18-7.54,11.82-24.08,11.82-42.16,0-16.58-3.93-31.37-10.78-40.58-12.34-16.47-30.12-19.69-56.67-19.69H733.62Zm33,25.68H781c20.78,0,34.22,9.33,34.22,33.54S801.77,333.88,781,333.88H766.66V266.79ZM631.95,241.11l-27.8,93.48L577.5,241.11h-36l38,118h48l38.35-118h-34Zm231.37,118h33.32V241.11H863.31v118Zm93.39-117.91L910.19,359H943l7.36-20.83h55.05l7,20.83h35.66l-46.87-117.88h-44.5Zm21.63,21.5,20.18,55.22h-41Z" transform="translate(-101.73 -207.14)" style="fill:#fff"/><path d="M203.06,260.77V244.53c1.58-.11,3.17-0.2,4.79-0.25,44.4-1.4,73.53,38.15,73.53,38.15s-31.46,43.7-65.19,43.7a40.91,40.91,0,0,1-13.13-2.1V274.81c17.29,2.09,20.76,9.72,31.15,27l23.11-19.49S240.46,260.24,212,260.24a83.81,83.81,0,0,0-9,.53m0-53.63v24.25c1.59-.13,3.19-0.23,4.79-0.29,61.74-2.08,102,50.64,102,50.64s-46.2,56.18-94.34,56.18a71,71,0,0,1-12.42-1.09v15a81.75,81.75,0,0,0,10.34.67c44.79,0,77.19-22.87,108.56-49.95,5.2,4.16,26.49,14.29,30.87,18.73-29.83,25-99.33,45.09-138.74,45.09-3.8,0-7.45-.23-11-0.57v21.06H373.32V207.14H203.06Zm0,116.89v12.8c-41.43-7.39-52.93-50.45-52.93-50.45s19.89-22,52.93-25.61v14H203c-17.34-2.08-30.88,14.12-30.88,14.12s7.59,27.27,30.95,35.12m-73.58-39.52s24.55-36.23,73.58-40V231.39c-54.3,4.36-101.33,50.35-101.33,50.35s26.63,77,101.33,84.05v-14C148.25,344.92,129.48,284.51,129.48,284.51Z" transform="translate(-101.73 -207.14)" style="fill:#76b900"/></svg>