<svg xmlns="http://www.w3.org/2000/svg" xmlns:xlink="http://www.w3.org/1999/xlink" viewBox="0 0 1250 703"><defs><style>.cls-1{isolation:isolate;}.cls-2,.cls-7{fill:none;}.cls-2{stroke:#000;stroke-width:1.2457px;}.cls-3{fill:url(#radial-gradient);}.cls-4{fill:#004987;}.cls-5{fill:#fff;}.cls-6{opacity:0.87;mix-blend-mode:multiply;}.cls-7{stroke:#231f20;stroke-width:0.1557px;}</style><radialGradient id="radial-gradient" cx="785.96896" cy="277.91355" r="182.60308" gradientUnits="userSpaceOnUse"><stop offset="0" stop-color="#fff"/><stop offset="0.82023" stop-color="#004987"/></radialGradient></defs><g class="cls-1"><g id="LOGO"><polyline class="cls-2" points="427.807 405.359 248.221 405.359 295.367 279.03 723.57 279.03"/><path d="M436.4888,405.22819a7.49024,7.49024,0,1,1-7.48886-7.48951A7.48846,7.48846,0,0,1,436.4888,405.22819Z"/><path class="cls-3" d="M699.78218,351.16407a151.47061,151.47061,0,1,1,151.4711,151.47331A151.47263,151.47263,0,0,1,699.78218,351.16407Z"/><path d="M920.13863,239.49193h5.12474v2.27565c2.36367-.54688,1.91232-.21163,2.56557-2.27565q1.27958.3798,2.56668.75962c-.88645,3.22645-3.3862,4.19715-4.276,7.592h.85526q2.56065-1.89823,5.12794-3.79922v-.75962h3.41324c.28394-.50486.57121-1.00962.85515-1.51714h4.27168c.28185.76172.569,1.51714.854,2.27676h.85526V246.321c-4.65281,2.47114-9.2603,13.71718-10.24938,19.73754q.84868,3.41282,1.706,6.82863h-3.41321V275.923h1.70721q.42261,3.03533.85294,6.06845h-.85294c-.19869.86489,1.75354,1.42747.85294,3.03959-.85294.25321-1.706.50376-2.56015.75807.27963.75963.56148,1.51759.85419,2.27832h-.85419c-.97833.86488-.00542.30241-1.71363.757.284,1.51814.57121,3.03316.85516,4.55452-.85516-.25586-1.70821-.50365-2.56226-.75962v.75962c2.26,1.24724,2.5753,2.74592,2.56226,6.07166h-2.56226a6.72462,6.72462,0,0,0-.85526-3.03682h-.85626c-.28182,2.4581-.77533,2.23242-1.70611,3.79379.91788-.28284,3.61843-.93941,5.12473,0v.76073q-1.70715,1.14108-3.41862,2.27941v.75907h-1.70611c-.28505.50376-.569,1.01128-.85405,1.516q-2.564.37831-5.12473.75973-1.28439,1.51593-2.56447,3.03305h-.853v1.52034c-.56911.25058-1.14353.50323-1.70929.76184-2.59479,2.37928-3.207,2.98509-7.69033,3.79281.04436,5.85406-2.18654,7.61247-2.56237,12.90074q-3.84835-1.13944-7.687-2.27666-.85847-2.27571-1.71252-4.55242h-.84982V319.1817h-.85628v-1.516h-.85626v-3.03583H889.384v-1.5177h-.85626v-6.82962c.9707-.64363.12307.095.85626-.75973h2.5656V301.729c-2.05918.38866-2.63581.97833-4.2717,1.51869V302.486h-.85836q.42906-2.27653.85836-4.55352c1.13489.25431,2.27731.50752,3.41542.75907v-1.516H889.384v-1.51871c-.85626.25321-1.7061.50752-2.56446.757v-.757c-.56911-.257-1.14143-.50584-1.70722-.75962,2.2309-5.46483-2.22866-13.27875-4.26836-17.45534q-1.28456-.38148-2.56568-.75918V275.923c-5.57929-1.79357-9.77424,4.744-10.25478-3.03583h-1.706c.5366-2.14607,1.5052-1.79136,1.706-3.03473h-.85305c-.285-.76183-.569-1.51869-.85294-2.27787-2.50089-.51824-2.801-.84431-3.41653-3.03737.9686-.86124.33912-.00168.85626-1.515q4.69227-1.90221,9.39312-3.79656V257.708h.85414v-3.79655h-3.41863c.40491-3.7771,2.52886-4.26892,3.41863-7.59046H877.42v-1.51648h.85836c-.28713-1.26559-.569-2.52942-.85836-3.795h.85836c2.10349-2.30905,5.7175-3.64264,10.24946-3.797a4.9872,4.9872,0,0,0,2.56558,2.27942v-.76018h.85628v-2.27842h.84982v-.7542a6.74378,6.74378,0,0,1,3.41863.7542v-.7542h.85626v-3.7928q.84869-.3871,1.706-.76283c1.18458-1.56844-.38323-1.07386,1.71153-2.27676v-.757q2.13308-.3813,4.26947-.76172v-.75962q1.71046-.37749,3.41862-.75807v-.758h2.56237v-.76183q5.97663.38376,11.96088.76183a24.75094,24.75094,0,0,0,9.39962,9.10584v.76293h-.853a14.25873,14.25873,0,0,1-5.13018,3.03473q-2.564-.379-5.12573-.76338v.76338C920.021,238.83967,920.6527,237.97589,920.13863,239.49193Z"/><path d="M865.46881,256.18977c-2.34322.49027-1.95224.994-4.2792,1.51824q-.84885,4.55292-1.70722,9.10694h-2.56126v2.27566c-.57231.25431-1.14131.50752-1.71252.76183-.56579,1.92039,1.26339,1.48475,1.71252,2.27776-.285.757-.57231,1.515-.85626,2.27566A18.94629,18.94629,0,0,1,851.79,275.923v-1.51714c-1.93068.71108-7.538,1.53826-9.39642,0-.9707-.8692-.3358-.00376-.85294-1.51869a11.384,11.384,0,0,0,3.41865-2.27776h-.85639v-3.03484h1.70931V266.815c-.75365-.44759-2.34089-.69106-1.70931-2.27775h.85639c1.00951-3.37175,2.47378-2.4453,2.56223-7.58726-2.93587-1.543-1.9414-1.69306-1.70931-5.31361,1.42216.25268,2.84963.50323,4.27168.75688.28406-.5042.57121-1.01172.853-1.5176h2.56016v-.75806q1.28442-.3798,2.56778-.758v-1.516h-.85626c-1.84211,1.495-8.98929,1.57054-12.815,1.516-.28394-.75962-.56786-1.516-.85294-2.27787-2.205-2.02676-.00542-5.21109.85294-6.83017h2.56571v-2.27566c3.26635-.79047,5.43234-3.49525,7.6902-5.31635.284-.50376.56587-1.01128.84761-1.516q3.42409-.37815,6.83946-.75862v.75862h.85306v-.75862H862.901v-.75907h5.12252c1.34653,1.37028,1.7039.64739,3.41863,1.51769v.76283h1.70823c.28293.50111.56908,1.00752.85414,1.51228a19.78178,19.78178,0,0,0,5.12683,3.03472v1.52256c-1.71141,1.26435-3.41531,2.5272-5.12683,3.79169v3.03694c-1.14021.76338-2.27829,1.51648-3.41863,2.2772V248.6q-1.27958.76128-2.56237,1.51758v1.51878h-.85305C866.60149,253.15336,866.03028,254.67218,865.46881,256.18977Z"/><path d="M836.4159,245.5679q1.28439.37251,2.56236.7531.43074,2.28384.85306,4.55461c1.42205.2532,2.85272.50588,4.27157.76072v4.55344c2.56029.58857,2.24923.467,2.56568,3.03583a8.46238,8.46238,0,0,0-4.275,6.07332h-4.26836c-.28936-.50476-.57121-1.01228-.85305-1.52245h-.85626c-.28726-1.26449-.57121-2.52566-.85624-3.7928h.85624V257.708h-.85624v-2.27786h-.85529C833.47991,251.81128,836.02934,248.51406,836.4159,245.5679Z"/><path d="M828.72349,255.43015v-1.51869c.9707.64086.12517-.09775.85626.76072h.85516C829.462,255.536,830.42949,254.97238,828.72349,255.43015Z"/><path d="M821.88944,261.50136c-2.35615-.547-1.908-.21063-2.56015-2.27576.96849-.64463.11986.09664.85084-.758q3.42078.75713,6.83405,1.516a39.36635,39.36635,0,0,1,1.70931,6.07487c.9707-.64352.12517.09509.85626-.75962h.85516v-3.79756h.85305c1.35515,2.08824,2.111,1.36589,2.5656,4.55718-.97294.64031-.12851-.09929-.85308.75641q-2.56878.38227-5.13336.75962-.84869-1.13943-1.70389-2.27565h-2.559C821.62054,264.62565,822.05353,263.79372,821.88944,261.50136Z"/><path d="M815.91066,263.77647v1.52245h-5.12473v-1.52245C813.95942,263.32777,812.73817,263.33914,815.91066,263.77647Z"/><path d="M809.07772,266.815v1.5188c-.974-.642-.12848.09554-.85957-.75918-.9675-.64188-.122.09509-.84764-.75962Z"/><path d="M815.05542,266.815v2.27566h-.85628v.76183h-3.41321c-.28616-.76183-.568-1.51869-.85847-2.27787h1.70931V266.815Z"/><path d="M833.00048,267.57457a14.088,14.088,0,0,1,5.12473.75918v.75686h-.85305v.76183h-2.56779v-.76183c-1.326-.955-1.70931.819-2.56015-.75686C833.08905,267.66688,832.90329,268.64412,833.00048,267.57457Z"/><path d="M822.74792,271.36737H821.0386v-3.03362h.85084v1.51869C822.86556,270.71357,822.23177,269.85244,822.74792,271.36737Z"/><path d="M805.6612,275.16282c-.85516-.2532-1.71142-.50365-2.56768-.757v.757c-2.79125,2.03108-.33149,2.21363-5.97778,2.279-.28506-.75918-.569-1.5209-.85624-2.279h.85624c1.258-2.12063,7.27456-6.68709,9.39851-5.31038h.85626C806.7993,271.62279,806.22489,273.393,805.6612,275.16282Z"/><path d="M833.00048,272.1302c1.69859.3056,7.00355,2.097,7.6871,3.03262.82707,1.13756-.3002,2.279.853,3.03583h1.7071v.76073q4.27444-.37982,8.54226-.76073v.76073c.85949.25166,1.7071.50586,2.56338.75807-.28286,1.26436-.5636,2.531-.85628,3.79754q-2.56065-.379-5.12252-.76016v1.516c-4.08913-.0199-6.12131-.92747-9.39631-1.516-2.25674-5.97712,1.06248-5.82708-5.97778-8.349Z"/><path d="M816.76692,275.923c1.1349.2532,2.27831.50752,3.41321.75962v4.5535c-4.78782-.08744-6.523.76562-8.54336,3.03475-1.71462-.43731-.7385.09122-1.70931-.75588-.9707-.86487-.339-.00485-.84974-1.52354h1.70821v-.75533c-.9707-.64084-.12528.09235-.85847-.75962-.56579.25157-1.137.50531-1.70931.75962v.75533c-.84764-.25055-1.7039-.50475-2.557-.75533q-.43405-1.13943-.85516-2.27674c2.65624-2.15038.2008-3.228,5.12142-3.79656.97612.86334.00332.30341,1.70931.76018.28729,1.01283.56911,2.02355.85847,3.03638h2.56018c-.18244-3.228-.78284-3.066,0-5.31414.97081.64087.12525-.09774.85524.76062C816.87915,275.26972,816.25078,274.407,816.76692,275.923Z"/><path d="M830.43491,274.40586v6.07064c-.97292.64089-.12528-.09606-.85516.75962h-2.56557v-1.51867c-3.8409-1.26992-5.0124-1.386-5.12474-6.07221h.85848a5.42862,5.42862,0,0,0,2.56015,2.27776c.66519-2.27511.52366-1.99437,3.41542-2.27776C829.69961,274.5101,828.7288,273.9492,830.43491,274.40586Z"/><path d="M835.55966,278.95938v3.79545h-.85529c-.9739-.86809,0-.30451-1.70389-.76338v-2.274h.85308C834.82423,278.85246,833.85356,279.41449,835.55966,278.95938Z"/><path d="M807.37051,288.82439H805.6612q-1.28274,1.52007-2.56768,3.03316h-.85305c-2.37993,3.18755.5356,4.23919-5.12473,5.31792-.25045-1.75244-.18034-1.92415-.85624-3.03738h-.84976c-.86168-2.00633,1.53649-5.02809,1.706-6.07066a15.20463,15.20463,0,0,1-.85624-3.03639q1.70712-.379,3.4186-.76017V283.515c.85306.24836,1.70722.50267,2.56237.75588v.76017h3.42073C806.59309,286.60756,807.03692,286.37536,807.37051,288.82439Z"/><path d="M836.4159,291.10326q-.43089,2.274-.85624,4.5535c.569.25321,1.14018.50752,1.7125.757v1.51869h.85305v1.51813h.853c-.28723,1.01394-.5691,2.02146-.853,3.03539h.853q.8535,1.14258,1.70932,2.27776,1.27957-.75961,2.56015-1.516a13.5917,13.5917,0,0,0,.85516,6.06789q.85366-.3773,1.70931-.75795c.72347-.85957-.11223-.10968.85637-.75807V301.729h3.41531v1.51869c2.35936.548,1.91232.21108,2.5656,2.27511h-1.71255c.32608,2.68654,1.05927,2.30429,1.71255,4.55518a8.01243,8.01243,0,0,0-3.41865,3.03417c-1.54191-.71484-1.34432-1.05385-3.41863-1.51439-.13279,3.83162-1.71462,4.73056-2.56447,7.58395h-2.56015v2.28052c-2.883.74017-1.6359.91617-3.41542,2.27721v.75807h-1.7125q-.42281,3.41431-.85529,6.82963c.85529.25055,1.71153.50752,2.56779.757v3.03749c5.331-.068,3.86456.82818,6.83073,2.27621,1.1381.25374,2.28054.50531,3.41862.75795v.7624c1.03882.45677,2.85505-.1328,3.41542.75905v3.79436h1.71255c-.19872,1.05828-.03994-.03394-.85949.75918q.85847,1.133,1.7071,2.27665c.97291-.63755.12749.094.85628-.76061,1.47068-.85306,1.16086-.48,1.7115-2.27522h-.85626c-.284-1.26979-.5691-2.531-.85524-3.79436,2.65091-1.27741,3.423-2.30372,3.423-6.07164h-.85527v-1.52146h-.85626q.42593-2.274.85626-4.55242h-.85626q.42593-1.89573.85626-3.79224h-.85626v-.758h.85626v-.76239h.85527v.76239H862.901v.758c1.66509,1.02366,1.95768,1.705,4.26947,2.27521v3.7938c1.81845.9216,1.86057,1.70666,4.27168,2.27565.9341-1.576,1.37461-1.34111,1.70823-3.79279H874.863c.57121,2.67844,2.2989,4.10969,3.41531,6.07221v.75807H877.42c-.203,1.79788.41784,1.96086.85836,3.03416,2.46849,1.20079,3.90668,3.09909,6.834,3.79978V344.986q-1.27957.38379-2.56778.76073c-.96528.86643,0,.30551-1.70058.76061v1.516q-4.702.37831-9.40183.76073-1.28439,1.51443-2.56237,3.03749h.85306c1.73529-1.806,2.11643-1.35947,4.27168-.75963-.71261,1.03716-1.96739.40436-1.70711,1.51759h.853a11.163,11.163,0,0,1,.85414,3.03483,28.22031,28.22031,0,0,0,5.98309-.75809c-.62086,2.09753-.23972,1.6975-2.56767,2.27678v.75642H874.863v.76183q-1.2877.37815-2.56558.75686c.49127-1.854.893-1.67263,1.70711-3.03583h-1.70711a10.5095,10.5095,0,0,1-5.97988,3.03583c-.28727.76072-.57232,1.51769-.84874,2.27941h.84874v.757c-3.02453.28837-2.59156.94162-5.12794,1.51825v2.2772h-1.70722q.42759,1.13463.85416,2.27522h-.85416a3.25042,3.25042,0,0,0-1.706-1.51339v1.51339c1.16177.88434,1.30219,1.38689,1.706,3.04113-3.248,1.47445-7.19141,4.45578-7.6924,8.34522h.85949q.426,2.65635.84761,5.31259c-2.35394-.55075-1.91011-.21384-2.56016-2.27512h-.853v-3.03747h-.85305v-.757c-1.99647.541-1.77942.865-4.27155,0v-.76338h-4.2717v.76338c.9707.865.34122,0,.853,1.516h-2.56237c-.28723-.50752-.5691-1.01283-.853-1.516a20.69823,20.69823,0,0,1-3.42084.757c-.92105,1.29357-1.81941,1.60669-3.41641,2.27732.17813,6.06513-3.45965,12.16488,7.6903,12.14221a14.452,14.452,0,0,0,1.70932-3.79434h4.2717q-1.28459,3.41265-2.56571,6.83181h6.83726v6.07168a6.58477,6.58477,0,0,1,1.7061,1.516h3.41644v.75907c-.97072.86707-.33682.0032-.85628,1.516h-.84761c-1.15969-1.1996-1.85286-1.31513-4.27491-1.516v-1.51814h-1.706c-.54533-2.08516-1.62837-2.80529-2.56568-4.55131a17.87305,17.87305,0,0,1-7.687-1.516v-.7613h-5.981v-.757c-3.91421-1.56568-6.03816-1.69637-8.54547-4.55673h-.85084q-.43089-1.90153-.85847-3.79324c-1.42426-1.01294-2.842-2.02466-4.26947-3.03749V383.695h-.85524q-.85353-1.13382-1.70934-2.27512c-.56579-.25275-1.1402-.50863-1.70931-.75916-1.34111-1.9717.9027-1.41453-1.70931-3.03849-.71694-.86.11234-.11012-.84974-.757v3.03638a9.658,9.658,0,0,1,4.26836,6.83073h-.85084v-1.51814c-1.82375-1.3044-.48806-1.54522-3.41752-2.27512a4.99915,4.99915,0,0,0-1.70721-3.79444h-.85626v-1.52245c-1.48474-2.44682-2.35073-3.90513-5.98309-4.54976-.62307-2.67625-2.30109-4.10483-3.41542-6.07056v-1.52145h-.85624v-7.5909h.85624q-.8535-3.41266-1.706-6.82753h.84976c.96639,1.3022.541,1.02577,2.56555,1.51759v-2.27831h-.85626v-.758h-2.559v-.75918h-.85635c.284.75918.56588,1.51714.85635,2.27786h-.85635c-1.13813-1.22779-2.4349-1.57331-3.41533-3.03859h2.559v-.75907H791.9878c-1.19959-.68786-.07232-1.87229-.84974-3.03362q-1.70715-1.13877-3.42084-2.27521.42924-1.14507.85306-2.27833H786.8632a6.77716,6.77716,0,0,0-.8585-3.03849h-.853c.1015,2.3993,1.6726,1.42318-.85305,2.27944q-.42759-2.28053-.85306-4.55463h-.85626v1.51714c-1.01283.58746-.76227-.46053-.85305-.75907h-.84863v-2.27565c-.85847-.50376-1.71153-1.01128-2.56779-1.5188v-.75907h-1.71152c-.28173-.50531-.57121-1.01394-.85294-1.516-1.99337-.257-3.98453-.50641-5.97779-.76072v-.75963h-1.70931v-.758c-.85626-.25431-1.70708-.50586-2.56016-.75907v.75907h-.85626V329.052q-1.71363.37584-3.41752.75642V329.052h-.85847v-.76072h.85847c.34443-1.4863-.29589-.96695-.85847-1.51759-3.29667,5.664-7.43765,11.43821-15.37519,12.90348v-.75905h.85305c2.98021-2.96573,6.4507-2.517,7.68809-7.591h-2.56015v.757a26.40677,26.40677,0,0,0-3.4186-.757V329.052q-1.28443.37584-2.56239.75642V329.052c-2.0062-1.49007-2.544-3.49693-2.56237-6.83294a20.60243,20.60243,0,0,1,5.981-2.27776v-3.03483c-3.44671.53129-3.12926.30672-6.83935,0-.49027-1.85505-.88766-1.67415-1.70611-3.03738q2.13643-1.13545,4.27168-2.27136v.75532q1.28274.37733,2.56126.75907c-.55506-4.98-3.87219-4.43687-5.12683-8.34842h1.70931c.75686-.88324,2.23077-1.07276,2.56447-1.516v-2.27941q3.84835-1.89674,7.68809-3.7928v-.76172h2.56458c1.62827,2.09531,2.53638,1.23518,5.12794,2.27776v.75906h3.41752v.757h3.41642v.76073h5.12683v.76072h1.70721v.757h1.706v.76172h1.71152v.75907c.85626.25056,1.70932.50376,2.56779.757v-.757c.96849-.86488.33691-.00641.84863-1.52079h4.26847c.28727-.50542.57121-1.01393.8585-1.51769h1.70708v-.76073c.85515.257,1.71152.50641,2.56778.76073v-1.5177c.56579.25321,1.137.50642,1.706.757.28187.76073.5712,1.52145.853,2.27842.85628-.25376,1.71263-.50542,2.56239-.757.38333.62836-.81637,1.983.85624,1.51869.25265-.07176,1.393-2.4425,2.56236-2.27941v.76072a9.91106,9.91106,0,0,1,3.41542,1.51869v.75907q2.99155.37584,5.9842.757-.43086,1.51692-.85957,3.03583c2.85825.3682,2.68333.75265,5.981,0v-.75907a22.8887,22.8887,0,0,0,3.42084.75907v-.75907c-.97292-.86488-.33912-.00267-.85306-1.51769q2.13312-.37981,4.27168-.75907c.28176.50586.5669,1.01128.85084,1.5188a11.49634,11.49634,0,0,0,6.834,2.2751,14.615,14.615,0,0,0,1.71142-3.7939h-1.71142c.284-1.01018.57442-2.02356.85626-3.03473,2.74691.55828,3.1098,1.028,3.42073,3.7938h-.85626v3.03483h1.70934q.84864-3.03532,1.7061-6.07166c-2.4004-1.15215-3.28265-1.98906-3.41544-5.31049,3.3765-2.41654,1.87882-5.99935,1.70934-11.38636q1.70546-.38146,3.4186-.75807v.75807c2.557.58846,2.24381.4675,2.55916,3.03528-.97291.86487-.34122.00376-.85306,1.51814Q837.69869,290.72085,836.4159,291.10326Z"/><path d="M831.288,285.78911q.42757,4.55292.85626,9.108c-1.14242.25378-2.28262.50267-3.42073.75962v-.75962c-1.2029-.53337-1.0442-1.09165-1.70931-1.51823h-1.70611c-.934-.72556-.66088-1.55164-.85413-3.03638,3.46294-1.52789,1.93927-.231,1.70929-3.79379C827.86712,286.29553,829.57975,286.04387,831.288,285.78911Z"/><path d="M851.79,286.54874v1.51869c2.23729-1.05275,1.449-1.34543,5.13114-1.51869.80551,1.36586,1.17913,1.19372,1.70821,3.03472h-.85294v.75907c-1.40381.82873-4.70468-.38059-5.12692-.75907v3.03583h1.70389q.42921-.75879.85524-1.516,2.98989.3798,5.981.75429v3.03959c3.87749.54856,6.80488,2.083,7.69019,5.3104h.85306v3.04014h.85305v.75907h-.85305v2.27577h.85305v.758h3.41863c.28726.50586.5691,1.00962.85847,1.51714,2.01382,1.6882,2.51051,1.59322,2.55695,5.31149-1.53661.71915-1.339,1.05274-3.41542,1.52145a7.99483,7.99483,0,0,0-3.41863-3.03749v2.27677c2.70058,1.34642,3.42614,2.99149,3.41863,6.83238a16.17874,16.17874,0,0,1-4.27168-1.5209v.76073a10.53857,10.53857,0,0,1,2.56457,3.03738h-1.71152c-1.31734-1.39618-1.69848-.6527-3.41542-1.52035v-.75686h-1.70168c-.86058-1.01338-1.71153-2.02842-2.56779-3.0397h-1.71141v-.75685q-2.56083.3798-5.12474.75685v-3.032c.9675-.64363.12207.095.85626-.76072,2.98243.48806,2.35074.84542,5.12474,0-.86389-2.67847-.7991-1.49392.85515-3.79393h.85626v-3.03636c-1.96517-1.4571-1.096-2.27676-4.27489-3.03583V302.486a5.41586,5.41586,0,0,1-2.56126-2.27842q-1.28439.75962-2.56776,1.52145v.757c-1.45336-.07342-1.41444-1.42537-1.70389-1.51769H845.8122q-.85681-1.1411-1.70931-2.27676h-.85516v-1.516c-.56369-.25431-1.1381-.50752-1.7071-.76172v-7.58936c2.41111-1.17315,2.90138-2.10239,6.83394-2.27565v.758c-2.43167,1.34388-2.63789,3.21728-2.56237,6.83139h.85637C846.58752,289.7805,847.95243,287.37315,851.79,286.54874Z"/><path d="M827.01418,301.729h-1.70611c-.58525,2.22058-.95234,2.48563-3.41863,3.03473q-.85362-1.13545-1.70931-2.27776c-.85084.2542-1.70611.50741-2.56015.76172v.75907h-1.70932v.757c-1.71152.25431-3.41542.50586-5.12473.75907-.63059-2.442-1.163-2.76582-4.27168-3.03683v-2.27842h4.27168v-1.516H805.6612c-.81414-1.36589-1.18665-1.19264-1.71142-3.03475h-.85626q.42757-2.278.85626-4.5535,1.28439-.383,2.56447-.76073v-.75907h1.7039v-.75907c2.17149-.43189,1.65535,1.01714,2.56778,1.51814.5669-.25266,1.13813-.50476,1.70931-.75907v.75907c1.7039.25221,3.41542.50542,5.12474.76073.51935-2.66918.91884-3.485,4.26946-3.79656v.76073h.85848c-1.94693,3.83171-1.0669,4.11732-.85848,9.108.14364.06535,5.12474,3.03207,5.12474,3.03207Z"/><path d="M860.33655,306.28252v3.03305q-1.28124.3798-2.56015.7624v-3.03749Q859.05581,306.66233,860.33655,306.28252Z"/><path d="M797.96879,313.86911v2.27831h1.70931v-.75686q.85682.37732,1.70722.75686v-.75686c.975-.865.34332-.00276.85515-1.52145.85305-.25166,1.70931-.5021,2.56557-.757v-.75907q-1.28439-.37748-2.56557-.75532v-.76184h.85305c-.96-.80117.00863-.34065-1.7082-.75794-1.84,1.82265-2.82907.61433-4.26958,1.51978v.75532h3.41542v.75907h-.85306C798.70519,313.977,799.67268,313.414,797.96879,313.86911Z"/><path d="M938.93359,312.35307q.43089,2.65951.85626,5.3126c-.97291.64186-.122-.09509-.85626.75685-1.41885.25432-2.84631.50752-4.27168.75918v.75962c-1.70614-.25055-3.4121-.50752-5.12476-.75962v-2.27521h-1.70821c.28618-.75907.568-1.51593.85305-2.27665h-1.7071c.28174-.76073.569-1.5177.85405-2.27677,3.50609.82066.947.81414,2.56668,2.27677a3.27074,3.27074,0,0,0,1.70721-1.5177Q935.51553,312.73067,938.93359,312.35307Z"/><path d="M846.66857,313.86911q3.41265,2.28218,6.82852,4.55341c-.718.86389.11444.11234-.84761.75918v.75962c-1.42747-.25055-2.84955-.50752-4.27491-.75962q-.43074.75963-.85306,1.52035c-1.14341.35471-.12848-.32508-.85294-.76073-.57121-.25055-1.14032-.50752-1.70929-.75962Q845.81274,316.52867,846.66857,313.86911Z"/><path d="M808.21815,322.98147c-.27643,2.45113-.772,2.22811-1.7039,3.79224h3.41321v-1.51826c2.34642-.4843,3.15525-1.443,5.128-2.274v-.76239h-2.56018C810.59044,324.06285,810.88522,323.27835,808.21815,322.98147Z"/><path d="M815.05542,329.80844c-.28187.50807-.569,1.01227-.85628,1.51869.85628-.25586,1.71152-.50642,2.56778-.75907v-.75962Z"/><path d="M824.45394,333.60555v2.2751h.85413v-2.2751Z"/><path d="M743.28923,339.67719h1.71142v.75588C743.28381,339.99687,744.25993,340.5254,743.28923,339.67719Z"/><path d="M785.15165,341.19214h1.71155v1.52256h-1.71155Z"/><path d="M828.72349,341.95552v1.516h-1.70931c.92315,1.78329,1.95975,2.46573,2.56557,4.55187h.85516c-.65757-2.43974-1.28926-1.63313-1.71142-4.55187h.85626v.75918c1.37672,1.00476,1.76869,2.16067,3.42073,3.03362v-1.51758c-1.16719-.88435-1.30761-1.38269-1.71252-3.03207C830.43491,342.46038,829.57975,342.20176,828.72349,341.95552Z"/><path d="M885.96542,346.50738v1.516h-.85306c.28505.76073.56579,1.51991.85306,2.27787H889.384q-.42591,2.28053-.85626,4.555h-.84984v-1.51867c-.57232.25431-1.14021.50642-1.71252.75905-.28727-.50474-.568-1.0096-.85306-1.51712H880.844c-.405-1.51217.89728-.39032,1.70058-.758q.43089-2.28053.85847-4.55729h.85626C885.23012,346.39891,884.25931,346.9615,885.96542,346.50738Z"/><path d="M874.863,349.54333h1.706v.758C874.85007,349.86564,875.8305,350.3914,874.863,349.54333Z"/><path d="M848.37457,354.85634v-1.51867c-2.33559-1.2029-2.08935-2.08238-5.981-2.27566-.85294,1.01016-1.706,2.02511-2.56225,3.03471h4.27157v.75962Z"/><path d="M875.71606,354.85634v-1.51867c.96318.63811.12307-.09664.85294.75905h.851C876.44914,354.95786,877.42,354.39959,875.71606,354.85634Z"/><path d="M844.95928,355.61443a31.257,31.257,0,0,0-.85639,6.83018h.85639v-.757h.85292v-4.55452q1.28456-.38229,2.56237-.76072v.76072c1.381,1.007,1.76659,2.16288,3.41542,3.03583v-3.03583h.85949c.49235.3169.122,1.24072,1.70389.75642v-.75642a3.2338,3.2338,0,0,1-1.70389-1.51869Z"/><path d="M858.62934,360.169v-1.51758a9.14678,9.14678,0,0,0-3.42073.75686v.76072Z"/><path d="M851.79,360.92592c-.97291.86489,0,.3023-1.70611.76172v.757h3.41321c.72567-.86278-.10471-.11013.85628-.757v-.76172Z"/><path d="M850.93693,388.25171h1.71255v.75686C850.93152,388.57458,851.90763,389.09935,850.93693,388.25171Z"/><path d="M852.64948,389.00857h2.55913v.76128h-2.55913Z"/><path d="M856.06487,389.76985c1.42747.50431,2.84632,1.00741,4.27168,1.516v.75907h-3.41542C856.63608,391.28588,856.34882,390.52682,856.06487,389.76985Z"/><path d="M862.901,392.04495h4.26947q.85682,1.13546,1.70931,2.27621a9.71141,9.71141,0,0,0-4.27157.75907v-.75907C863.13864,393.4649,863.44636,393.84073,862.901,392.04495Z"/><path d="M899.6334,417.09619v1.51272c.61875-.18786,5.04479-.82165,6.83946,0,.85306,1.01294,1.7071,2.02035,2.56016,3.03539,1.2364.69107,2.73508-.33912,3.41865.75586v3.0407c-1.42208,1.51272-2.84744,3.03738-4.27171,4.55341h-.854v6.82863h-.85306c-1.177,2.327-1.16074,3.99735-3.4186,5.31259v.75907H899.6334v.76018c-2.5386,1.10029-2.61741.02808-4.27168,2.28052H894.512v4.5502c-.57231.25277-1.14031.50653-1.71252.757v1.51825c-.56911.25374-1.14031.50851-1.7061.75684q-.4309,1.13878-.85626,2.28054H889.384c-.28394.75475-.57121,1.51935-.85626,2.27621h-5.9832v.76128c2.11864,1.72225,1.11975,1.65425.85847,4.55352a38.07917,38.07917,0,0,1-6.83405.75686v3.0397a9.13335,9.13335,0,0,0-3.4186.75686q.85362,1.13875,1.71261,2.27842c-.57121.24723-1.14353.5032-1.71261.75586-.92539,1.652.86387.84332-.853,2.27831-.97291.86057-.00221.30241-1.71152.757v2.28052c.2343.51614,2.39286.23,1.71152,2.2751q-1.28289.75963-2.56457,1.516v2.27509q-.8535.384-1.70932.76018a48.86493,48.86493,0,0,1,.85626,5.3126q2.13639,1.14357,4.2706,2.2751v.75907h-3.41754v1.51935c-3.05043-.48807-5.49283-1.75144-6.83184-3.79114,2.79028.1328,1.814,1.17913,3.41653-.76238h-.84874v.76238c-.86058-.25376-1.71153-.50652-2.56779-.76238-.93078-3.11091-1.043-.866-2.56447-2.27511.122-.96318,1.53108-1.35738.85306-3.03749h-.85306q-.42757-1.89823-.85416-3.79434c.56911-.25055,1.14132-.50642,1.70722-.757.69969-2.03218-2.205-1.68554-1.70722-3.03749.56911-.25475,1.14132-.50531,1.70722-.75907V472.496H862.901c.28185-1.2688.56369-2.53109.85626-3.79435-.57441-.25276-1.14562-.50862-1.71141-.75917,0,0,1.17149-3.14762.85515-4.55342-.03881-.15878-1.137-.26349-.85515-1.52145h.85515c.28185-1.516.56369-3.03207.85626-4.55021h.851v-7.591h.86058v-2.27831h.84874c1.24392-3.4392.05174-7.24869,0-10.62519q-3.42079-1.89822-6.83516-3.79435-.8568-2.27736-1.706-4.55031h-.85527q-.42757-1.51925-.85626-3.03738h-.85626c-1.75033-1.95989-2.45765-2.37993-2.55913-6.07277h.84761c.66519-1.07441-1.27842-1.54733,0-3.79877h.85628V414.0555c.85524-.50863,1.7115-1.01183,2.56776-1.51825v-1.52134h.85527c.20079-1.054-.6652.30228-.85527-.75487v-3.79656h1.70821a12.48491,12.48491,0,0,1,1.70721-3.79324c3.02445-.28726,2.59576-.94482,5.13226-1.516-.29158.50321-.57442,1.00962-.86058,1.516h.86058v-.75906c1.49-.61876,2.73187.44051,3.411.75906v.75907h4.2706v.757h.85414a2.41115,2.41115,0,0,1,2.56446-.757v.757h1.70932c.853,1.01493,1.70931,2.02245,2.56568,3.03417h1.70058c.28726.50642.57452,1.01825.85847,1.51924h3.41653v.75587c3.33439,1.19538,4.02325-.487,5.13006,3.04069h.84982q-.42607,1.89839-.84982,3.79114h.84982v-.75907C894.024,415.05,897.70817,416.84784,899.6334,417.09619Z"/><path d="M864.60823,403.43031v1.516h.86058v-1.516Z"/><polygon class="cls-4" points="309.223 381.226 285.146 381.226 313.904 295.648 373.584 295.621 367.877 309.861 334.785 309.861 327.371 330.414 359.318 330.414 352.706 346.88 321.435 346.88 309.223 381.226"/><path class="cls-4" d="M383.518,369.73917h8.96331a4.95024,4.95024,0,0,0,1.58625-.23,3.41339,3.41339,0,0,0,2.38523-2.1277l22.05212-54.60569h17.51418l-24.18624,62.859q-2.16873,5.592-7.30154,5.59169H364.8165c-.76228,0-1.55817-.54745-2.39817-1.65316a5.65454,5.65454,0,0,1-1.25531-3.478,3.4266,3.4266,0,0,1,.23-1.26172l21.45172-62.05783h18.65992l-19.73213,54.13055a5.60853,5.60853,0,0,0-.40977,1.58669Q381.36275,369.73781,383.518,369.73917Z"/><polygon class="cls-4" points="446.545 312.761 494.243 312.776 489.673 324.174 474.727 324.057 454.53 381.226 439.581 381.226 458.982 324.057 442.778 324.057 446.545 312.761"/><path class="cls-4" d="M507.09651,369.73917h8.9633a4.93689,4.93689,0,0,0,1.58625-.23,3.41354,3.41354,0,0,0,2.38523-2.1277l22.04936-54.60569h17.5196l-24.1889,62.859q-2.17287,5.592-7.30375,5.59169H488.395c-.76183,0-1.56037-.54745-2.39828-1.65316a5.65769,5.65769,0,0,1-1.2552-3.478,3.43854,3.43854,0,0,1,.23-1.26172l21.45172-62.05783h18.65981l-19.73212,54.13055a5.51913,5.51913,0,0,0-.40978,1.58669Q504.94115,369.73781,507.09651,369.73917Z"/><path class="cls-4" d="M599.86083,324.1033H586.86835l-5.89674,16.50038h12.06015a.99865.99865,0,0,0,.45677.11234q1.59288,0,4.2144-3.524l3.41321-10.2456A3.32384,3.32384,0,0,0,599.86083,324.1033Zm-23.65982,29.649-9.76936,27.47418H547.14059l23.04869-68.4507h49.29687q2.857.341,2.8544,3.7625a5.06367,5.06367,0,0,1-.91842,2.85073l-11.86745,30.68659a32.04764,32.04764,0,0,1-5.58946,3.65083h-8.56116l1.902,27.5H581.12539l-1.90743-27.5Z"/><polygon class="cls-4" points="634.321 312.761 682.017 312.776 677.451 324.103 650.979 324.103 645.047 340.447 670.604 340.447 665.356 353.717 640.252 353.717 634.432 369.739 661.362 369.739 656.798 381.226 611.269 381.226 634.321 312.761"/><path d="M447.62039,395.41714a35.87122,35.87122,0,0,1,5.17217-.38656c3.47811,0,5.95456.77533,7.59588,2.30651a8.618,8.618,0,0,1,2.67194,6.75842,10.0373,10.0373,0,0,1-2.70058,7.2886c-1.78006,1.75354-4.67117,2.69724-8.31658,2.69724a33.80522,33.80522,0,0,1-4.42283-.22134Zm2.44792,16.60618a15.29074,15.29074,0,0,0,2.44738.11444c5.17427.02587,7.98232-2.896,7.98232-7.95811.02864-4.47789-2.4738-7.23354-7.59367-7.23354a13.61917,13.61917,0,0,0-2.836.25277Z"/><path d="M467.64519,407.60259c.05717,3.3085,2.14231,4.67117,4.58958,4.67117a9.32991,9.32991,0,0,0,3.7291-.66829l.44384,1.72767a11.04951,11.04951,0,0,1-4.50709.86057c-4.11456,0-6.61965-2.75564-6.61965-6.78972,0-4.086,2.42139-7.28538,6.34322-7.28538,4.3942,0,5.53506,3.86776,5.53506,6.34156a6.37926,6.37926,0,0,1-.0837,1.1684Zm7.14929-1.75354c.02921-1.529-.64142-3.979-3.36578-3.979-2.50232,0-3.55894,2.28262-3.75763,3.979Z"/><path d="M480.19122,394.16459h2.44737v19.75048h-2.44737Z"/><path d="M487.86538,397.97951a1.57416,1.57416,0,0,1,.05716-3.14762,1.50553,1.50553,0,0,1,1.55817,1.56036,1.53534,1.53534,0,0,1-1.58669,1.58726Zm-1.16619,15.93556V400.45331h2.44737v13.46176Z"/><path d="M494.15409,400.45331l2.64065,7.538c.44593,1.25044.80873,2.36146,1.0878,3.4759h.0837c.303-1.11444.69383-2.22546,1.14031-3.4759l2.612-7.538h2.56236l-5.28672,13.46176h-2.335l-5.11989-13.46176Z"/><path d="M507.66772,407.60259c.05771,3.3085,2.1423,4.67117,4.59012,4.67117a9.32974,9.32974,0,0,0,3.72913-.66829l.44326,1.72767a11.03053,11.03053,0,0,1-4.506.86057c-4.11788,0-6.62021-2.75564-6.62021-6.78972,0-4.086,2.42139-7.28538,6.34046-7.28538,4.39431,0,5.53716,3.86776,5.53716,6.34156a6.39,6.39,0,0,1-.083,1.1684Zm7.14707-1.75354c.02919-1.529-.63656-3.979-3.36565-3.979-2.50245,0-3.55907,2.28262-3.75234,3.979Z"/><path d="M520.24293,404.65367c0-1.58614-.02919-2.94782-.11234-4.20036h2.13965l.11234,2.64009h.08039a4.07869,4.07869,0,0,1,3.75774-2.9456,2.57343,2.57343,0,0,1,.66564.08094v2.28052a8.4441,8.4441,0,0,0-.85845-.053,3.42587,3.42587,0,0,0-3.28309,3.11633,7.43736,7.43736,0,0,0-.0858,1.16619v7.17626h-2.44527Z"/><path d="M530.58627,397.97951a1.57415,1.57415,0,0,1,.05506-3.14762,1.50666,1.50666,0,0,1,1.55761,1.56036,1.536,1.536,0,0,1-1.584,1.58726Zm-1.16885,15.93556V400.45331h2.44517v13.46176Z"/><path d="M535.92529,404.09551c0-1.41885-.02643-2.53108-.10958-3.6422h2.1682l.141,2.19626h.05507a4.97948,4.97948,0,0,1,4.4487-2.50177c1.86588,0,4.7571,1.11433,4.7571,5.72712v8.04015H544.9378v-7.7604c0-2.1683-.80606-4.00611-3.11522-4.00611a3.53489,3.53489,0,0,0-3.2825,2.50511,3.65629,3.65629,0,0,0-.16742,1.1381v8.1233h-2.44737Z"/><path d="M562.88011,411.93906c0,3.11633-.64186,4.97889-1.91762,6.17427a7.40024,7.40024,0,0,1-4.92659,1.61323,8.66061,8.66061,0,0,1-4.4779-1.11223l.61334-1.88965a7.31419,7.31419,0,0,0,3.9477,1.08635c2.50511,0,4.33969-1.30982,4.33969-4.73165v-1.47391h-.05507A4.77036,4.77036,0,0,1,556.119,413.86c-3.33713,0-5.72988-2.83658-5.72988-6.591,0-4.56215,2.97479-7.1212,6.09267-7.1212a4.48563,4.48563,0,0,1,4.19881,2.30849h.05451l.08636-2.003h2.16829c-.08315.94372-.10969,2.03007-.10969,3.67349Zm-2.44726-6.199a3.391,3.391,0,0,0-.141-1.08636,3.49218,3.49218,0,0,0-3.42128-2.61633c-2.335,0-4.00763,1.975-4.00763,5.11611,0,2.61743,1.36433,4.84388,3.979,4.84388a3.52288,3.52288,0,0,0,3.39485-2.531,4.05374,4.05374,0,0,0,.196-1.31093Z"/><path d="M575.75508,397.22475v3.22856h3.5072V402.316h-3.5072v7.25941c0,1.67051.47723,2.61423,1.83669,2.61423a4.47839,4.47839,0,0,0,1.41995-.1663l.11234,1.86267a6.61872,6.61872,0,0,1-2.1715.33358,3.477,3.477,0,0,1-2.64063-1.028,5.25676,5.25676,0,0,1-.94427-3.53309V402.316h-2.08782v-1.86267h2.08782v-2.4738Z"/><path d="M587.32288,414.21957c-3.61411,0-6.45335-2.66918-6.45335-6.9247,0-4.50377,2.97745-7.14707,6.67472-7.14707,3.87,0,6.48409,2.8096,6.48409,6.89663,0,5.00476-3.478,7.17514-6.67737,7.17514Zm.08581-1.83347c2.335,0,4.08868-2.19737,4.08868-5.25854,0-2.2784-1.14241-5.14528-4.03627-5.14528-2.86522,0-4.11511,2.67139-4.11511,5.22944,0,2.94782,1.66995,5.17438,4.03141,5.17438Z"/><path d="M597.11282,404.09551c0-1.41885-.05186-2.53108-.10956-3.6422h2.14229l.11013,2.17039h.08315a4.6464,4.6464,0,0,1,4.25863-2.4759,3.97447,3.97447,0,0,1,3.781,2.69514h.05451a5.40257,5.40257,0,0,1,1.52952-1.75365,4.54107,4.54107,0,0,1,2.94837-.94149c1.80861,0,4.452,1.16608,4.452,5.83725v7.93H613.97V406.295c0-2.61631-.9707-4.1464-2.92028-4.1464A3.21816,3.21816,0,0,0,608.13,404.346a4.30763,4.30763,0,0,0-.19606,1.22667v8.34245h-2.3901v-8.066c0-2.1704-.94693-3.70049-2.81281-3.70049a3.37871,3.37871,0,0,0-3.03205,2.44794,3.464,3.464,0,0,0-.1933,1.19527v8.1233h-2.39286Z"/><path d="M625.79045,414.21957c-3.614,0-6.4507-2.66918-6.4507-6.9247,0-4.50377,2.97491-7.14707,6.67538-7.14707,3.86887,0,6.482,2.8096,6.482,6.89663,0,5.00476-3.47911,7.17514-6.67859,7.17514Zm.08315-1.83347c2.341,0,4.09134-2.19737,4.09134-5.25854,0-2.2784-1.14242-5.14528-4.03407-5.14528-2.86466,0-4.11721,2.67139-4.11721,5.22944,0,2.94782,1.66984,5.17438,4.03406,5.17438Z"/><path d="M635.61223,404.65367c0-1.58614-.02908-2.94782-.11013-4.20036h2.14021l.109,2.64009h.08425a4.073,4.073,0,0,1,3.75764-2.9456,2.5978,2.5978,0,0,1,.66729.08094v2.28052a8.47986,8.47986,0,0,0-.866-.053,3.42189,3.42189,0,0,0-3.27709,3.11633,7.43194,7.43194,0,0,0-.08647,1.16619v7.17626h-2.44781Z"/><path d="M644.80994,404.65367c0-1.58614-.02808-2.94782-.109-4.20036h2.14231l.109,2.64009h.08428a4.0712,4.0712,0,0,1,3.75441-2.9456,2.62494,2.62494,0,0,1,.66842.08094v2.28052a8.51544,8.51544,0,0,0-.8617-.053,3.42956,3.42956,0,0,0-3.28262,3.11633,7.72429,7.72429,0,0,0-.08315,1.16619v7.17626h-2.45Z"/><path d="M659.19067,414.21957c-3.61622,0-6.45291-2.66918-6.45291-6.9247,0-4.50377,2.977-7.14707,6.67748-7.14707,3.86455,0,6.482,2.8096,6.482,6.89663,0,5.00476-3.4791,7.17514-6.67747,7.17514Zm.08315-1.83347c2.33879,0,4.08912-2.19737,4.08912-5.25854,0-2.2784-1.1402-5.14528-4.03085-5.14528-2.86578,0-4.11832,2.67139-4.11832,5.22944,0,2.94782,1.66718,5.17438,4.03406,5.17438Z"/><path d="M669.75858,400.45331l1.8086,6.81569c.35958,1.5031.72568,2.91973.97291,4.31049h.08426c.30772-1.36157.75155-2.80739,1.19427-4.28462l2.20058-6.84156h2.05806l2.08295,6.73143c.50319,1.58736.89516,3.03318,1.19748,4.39475h.08313a41.47516,41.47516,0,0,1,1.03118-4.36777l1.91774-6.75841h2.421L682.472,413.91507h-2.22645l-2.05817-6.42692c-.47291-1.529-.86167-2.86577-1.19527-4.4487h-.05725a40.00048,40.00048,0,0,1-1.22128,4.48l-2.17138,6.39563h-2.22336l-4.06215-13.46176Z"/><path d="M691.038,394.66559l-.44593,6.67427H689.089l-.44383-6.67427Z"/><path d="M694.15435,411.43807a6.85572,6.85572,0,0,0,3.25333.948c1.75365,0,2.58614-.86378,2.58614-2.00188,0-1.1684-.69428-1.81082-2.4738-2.476-2.45-.88975-3.59035-2.19957-3.59035-3.81268,0-2.1704,1.78174-3.94771,4.64751-3.94771a6.259,6.259,0,0,1,3.28254.83249l-.58417,1.75354a5.52085,5.52085,0,0,0-2.75564-.77743c-1.44583,0-2.22325.8347-2.22325,1.83349,0,1.14131.77742,1.64231,2.531,2.30971,2.3065.86168,3.52986,2.03,3.52986,4.05994,0,2.39286-1.86047,4.06-5.00488,4.06a7.66394,7.66394,0,0,1-3.78349-.94371Z"/><path class="cls-5" d="M726.13774,397.22475v3.22856h3.504V402.316h-3.504v7.25941c0,1.67051.47189,2.61423,1.83457,2.61423a4.495,4.495,0,0,0,1.41884-.1663l.11015,1.86267a6.60363,6.60363,0,0,1-2.1682.33358,3.46779,3.46779,0,0,1-2.64121-1.028,5.24207,5.24207,0,0,1-.9469-3.53309V402.316h-2.08517v-1.86267H723.745v-2.4738Z"/><path class="cls-5" d="M733.6186,407.60259c.05507,3.3085,2.1401,4.67117,4.59015,4.67117a9.29871,9.29871,0,0,0,3.72311-.66829l.447,1.72767a11.01937,11.01937,0,0,1-4.50487.86057c-4.11721,0-6.62239-2.75564-6.62239-6.78972,0-4.086,2.422-7.28538,6.34375-7.28538,4.39377,0,5.534,3.86776,5.534,6.34156a6.15068,6.15068,0,0,1-.08313,1.1684Zm7.14707-1.75354c.026-1.529-.6392-3.979-3.36566-3.979-2.503,0-3.56,2.28262-3.7523,3.979Z"/><path class="cls-5" d="M755.75973,413.44216a9.47826,9.47826,0,0,1-3.86785.77741c-4.06,0-6.70338-2.75231-6.70338-6.89871a6.86156,6.86156,0,0,1,7.23354-7.17306,7.67476,7.67476,0,0,1,3.39165.72236l-.55493,1.86367a6.00025,6.00025,0,0,0-2.83672-.63921c-3.08713,0-4.75752,2.3086-4.75752,5.1171,0,3.11522,2.00188,5.03617,4.67117,5.03617a6.98234,6.98234,0,0,0,3.00608-.64242Z"/><path class="cls-5" d="M758.6244,394.16459h2.44793v8.40193h.05716a4.30848,4.30848,0,0,1,1.75034-1.72445,4.75807,4.75807,0,0,1,2.503-.69427c1.81081,0,4.70246,1.11433,4.70246,5.75852v8.00875h-2.44782v-7.73232c0-2.19638-.80882-4.005-3.11632-4.005a3.545,3.545,0,0,0-3.28252,2.44461,2.9982,2.9982,0,0,0-.16629,1.16939v8.1233H758.6244Z"/><path class="cls-5" d="M774.06218,404.09551c0-1.41885-.02919-2.53108-.11013-3.6422h2.16818l.13821,2.19626h.05728a4.98119,4.98119,0,0,1,4.4466-2.50177c1.86909,0,4.75974,1.11433,4.75974,5.72712v8.04015h-2.44792v-7.7604c0-2.1683-.80872-4.00611-3.11522-4.00611a3.53273,3.53273,0,0,0-3.28252,2.50511,3.66014,3.66014,0,0,0-.1674,1.1381v8.1233h-2.44682Z"/><path class="cls-5" d="M794.97885,414.21957c-3.614,0-6.4507-2.66918-6.4507-6.9247,0-4.50377,2.9749-7.14707,6.67208-7.14707,3.86454,0,6.482,2.8096,6.482,6.89663,0,5.00476-3.47579,7.17514-6.67206,7.17514Zm.08317-1.83347c2.33556,0,4.0891-2.19737,4.0891-5.25854,0-2.2784-1.14018-5.14528-4.03185-5.14528-2.86478,0-4.11942,2.67139-4.11942,5.22944,0,2.94782,1.66928,5.17438,4.03627,5.17438Z"/><path class="cls-5" d="M804.76933,394.16459h2.44682v19.75048h-2.44682Z"/><path class="cls-5" d="M816.75932,414.21957c-3.614,0-6.45282-2.66918-6.45282-6.9247,0-4.50377,2.97479-7.14707,6.67416-7.14707,3.86787,0,6.482,2.8096,6.482,6.89663,0,5.00476-3.47577,7.17514-6.67527,7.17514Zm.08312-1.83347c2.33559,0,4.08924-2.19737,4.08924-5.25854,0-2.2784-1.14242-5.14528-4.03415-5.14528-2.86469,0-4.11724,2.67139-4.11724,5.22944,0,2.94782,1.6694,5.17438,4.03418,5.17438Z"/><path class="cls-5" d="M838.08308,411.93906c0,3.11633-.64142,4.97889-1.91984,6.17427a7.39013,7.39013,0,0,1-4.92382,1.61323,8.68538,8.68538,0,0,1-4.48119-1.11223l.61652-1.88965a7.30562,7.30562,0,0,0,3.94771,1.08635c2.5052,0,4.33979-1.30982,4.33979-4.73165v-1.47391h-.05518a4.77485,4.77485,0,0,1-4.28461,2.25454c-3.33758,0-5.73044-2.83658-5.73044-6.591,0-4.56215,2.977-7.1212,6.09-7.1212a4.49513,4.49513,0,0,1,4.20479,2.30849h.05185l.083-2.003h2.1715c-.08425.94372-.11013,2.03007-.11013,3.67349Zm-2.44682-6.199a3.37856,3.37856,0,0,0-.14142-1.08636,3.489,3.489,0,0,0-3.41862-2.61633c-2.3399,0-4.005,1.975-4.005,5.11611,0,2.61743,1.3595,4.84388,3.9737,4.84388a3.52247,3.52247,0,0,0,3.39485-2.531,4.06939,4.06939,0,0,0,.19648-1.31093Z"/><path class="cls-5" d="M842.97564,400.45331l2.923,7.95269c.33149.893.66508,1.94682.88755,2.75564h.05727c.25045-.80882.52909-1.83669.86268-2.8096l2.67039-7.89873h2.58282l-3.66918,9.594c-1.75033,4.61931-2.94781,6.983-4.6182,8.45687a6.94975,6.94975,0,0,1-3.00289,1.55819l-.61123-2.05916a5.60075,5.60075,0,0,0,2.14021-1.19428,7.7055,7.7055,0,0,0,2.058-2.72758,1.53441,1.53441,0,0,0,.19648-.58633,1.44315,1.44315,0,0,0-.19648-.60792l-4.95189-12.43379Z"/><path class="cls-5" d="M864.03371,397.22475v3.22856h3.50177V402.316h-3.50177v7.25941c0,1.67051.4697,2.61423,1.83459,2.61423a4.45819,4.45819,0,0,0,1.41674-.1663l.11444,1.86267a6.60841,6.60841,0,0,1-2.17037.33358,3.48246,3.48246,0,0,1-2.64333-1.028,5.2533,5.2533,0,0,1-.947-3.53309V402.316h-2.085v-1.86267h2.085v-2.4738Z"/><path class="cls-5" d="M875.60151,414.21957c-3.61721,0-6.456-2.66918-6.456-6.9247,0-4.50377,2.98019-7.14707,6.67737-7.14707,3.86674,0,6.482,2.8096,6.482,6.89663,0,5.00476-3.47579,7.17514-6.67527,7.17514Zm.08105-1.83347c2.33768,0,4.09134-2.19737,4.09134-5.25854,0-2.2784-1.14029-5.14528-4.03418-5.14528-2.86574,0-4.115,2.67139-4.115,5.22944,0,2.94782,1.66721,5.17438,4.03086,5.17438Z"/><path class="cls-5" d="M897.04516,394.16459V410.436c0,1.19859.02919,2.56027.11237,3.47911h-2.19962l-.11234-2.33558h-.05506a4.9335,4.9335,0,0,1-4.561,2.64008c-3.2533,0-5.7844-2.75231-5.7844-6.84155-.02919-4.50919,2.78152-7.23022,6.03495-7.23022a4.48,4.48,0,0,1,4.06325,2.03h.05186v-8.01318Zm-2.45,11.76761a4.49489,4.49489,0,0,0-.1101-1.05606,3.60043,3.60043,0,0,0-3.53309-2.81071c-2.53108,0-4.031,2.22335-4.031,5.17228,0,2.75553,1.36168,5.01018,3.97911,5.01018a3.70433,3.70433,0,0,0,3.585-2.92294,4.22593,4.22593,0,0,0,.1101-1.05717Z"/><path class="cls-5" d="M910.59118,410.68652a23.2549,23.2549,0,0,0,.19217,3.22855h-2.19416l-.22457-1.69958h-.08315a4.95935,4.95935,0,0,1-4.11511,2.00408,3.835,3.835,0,0,1-4.11722-3.86675c0-3.25123,2.89386-5.03285,8.09411-5.00477v-.27864c0-1.11212-.30561-3.1443-3.05794-3.113a6.46455,6.46455,0,0,0-3.53307,1.001l-.55937-1.64352a8.73977,8.73977,0,0,1,4.452-1.16608c4.14419,0,5.14629,2.8096,5.14629,5.508Zm-2.39065-3.64209c-2.67471-.05729-5.70457.41785-5.70457,3.032a2.1464,2.1464,0,0,0,2.28163,2.3378,3.4004,3.4004,0,0,0,3.3106-2.25465,2.52327,2.52327,0,0,0,.11234-.77744Z"/><path class="cls-5" d="M915.095,400.45331l2.92194,7.95269c.33152.893.66519,1.94682.88755,2.75564h.05728c.24834-.80882.527-1.83669.8606-2.8096l2.67028-7.89873h2.585l-3.668,9.594c-1.75365,4.61931-2.94892,6.983-4.61942,8.45687a6.96026,6.96026,0,0,1-3.00285,1.55819l-.61337-2.05916a5.6292,5.6292,0,0,0,2.14452-1.19428,7.72736,7.72736,0,0,0,2.05374-2.72758,1.48056,1.48056,0,0,0,.19649-.58633,1.4432,1.4432,0,0,0-.19649-.60792l-4.94981-12.43379Z"/><path class="cls-5" d="M928.44449,414.21957a1.72762,1.72762,0,0,1,.02587-3.4488,1.7264,1.7264,0,0,1,0,3.4488Zm-.919-5.67215-.38545-13.38072h2.66918l-.392,13.38072Z"/><g class="cls-6"><polygon points="730.758 297.311 790.444 297.285 784.737 311.571 766.022 311.461 740.802 382.892 722.091 382.892 746.394 311.461 726.083 311.461 730.758 297.311"/><polygon class="cls-7" points="730.758 297.311 790.444 297.285 784.737 311.571 766.022 311.461 740.802 382.892 722.091 382.892 746.394 311.461 726.083 311.461 730.758 297.311"/></g><polygon class="cls-5" points="727.431 295.648 787.114 295.621 781.41 309.907 762.695 309.796 737.476 381.226 718.764 381.226 743.067 309.796 722.753 309.796 727.431 295.648"/><polygon class="cls-7" points="727.431 295.648 787.114 295.621 781.41 309.907 762.695 309.796 737.476 381.226 718.764 381.226 743.067 309.796 722.753 309.796 727.431 295.648"/><g class="cls-6"><polygon points="799.472 314.425 847.17 314.44 842.605 325.767 816.135 325.767 810.196 342.112 835.758 342.112 830.508 355.381 805.409 355.381 799.586 371.403 826.516 371.403 821.949 382.892 776.42 382.892 799.472 314.425"/><polygon class="cls-7" points="799.472 314.425 847.17 314.44 842.605 325.767 816.135 325.767 810.196 342.112 835.758 342.112 830.508 355.381 805.409 355.381 799.586 371.403 826.516 371.403 821.949 382.892 776.42 382.892 799.472 314.425"/></g><polygon class="cls-5" points="796.143 312.761 843.84 312.776 839.278 324.103 812.806 324.103 806.867 340.447 832.431 340.447 827.181 353.717 802.078 353.717 796.257 369.739 823.186 369.739 818.62 381.226 773.094 381.226 796.143 312.761"/><polygon class="cls-7" points="796.143 312.761 843.84 312.776 839.278 324.103 812.806 324.103 806.867 340.447 832.431 340.447 827.181 353.717 802.078 353.717 796.257 369.739 823.186 369.739 818.62 381.226 773.094 381.226 796.143 312.761"/><g class="cls-6"><path d="M890.66578,371.47924,886.216,382.89156q0-.22671-44.9626,0-.11341-.1101-2.05054-2.395a4.43971,4.43971,0,0,1-1.59918-2.971,2.27735,2.27735,0,0,1,.22678-1.02586l19.743-57.28129a8.20838,8.20838,0,0,1,3.65293-3.76792,17.41664,17.41664,0,0,1,2.62273-1.02532l48.61011.01515-4.22192,11.2822H876.74183a4.87451,4.87451,0,0,0-3.65083,2.39662l-14.72183,38.91139a3.48434,3.48434,0,0,0-.79578,2.16929,2.91571,2.91571,0,0,0,1.02466,2.27942Z"/><path class="cls-7" d="M890.66578,371.47924,886.216,382.89156q0-.22671-44.9626,0-.11341-.1101-2.05054-2.395a4.43971,4.43971,0,0,1-1.59918-2.971,2.27735,2.27735,0,0,1,.22678-1.02586l19.743-57.28129a8.20838,8.20838,0,0,1,3.65293-3.76792,17.41664,17.41664,0,0,1,2.62273-1.02532l48.61011.01515-4.22192,11.2822H876.74183a4.87451,4.87451,0,0,0-3.65083,2.39662l-14.72183,38.91139a3.48434,3.48434,0,0,0-.79578,2.16929,2.91571,2.91571,0,0,0,1.02466,2.27942Z"/></g><path class="cls-5" d="M887.33561,369.81581l-4.45191,11.41068q0-.22673-44.95718,0c-.07774-.07231-.75907-.8713-2.05375-2.39651a4.42861,4.42861,0,0,1-1.59708-2.96783,2.22819,2.22819,0,0,1,.2301-1.02853l19.73743-57.28029a8.20994,8.20994,0,0,1,3.65083-3.76628,17.603,17.603,0,0,1,2.62716-1.02586l48.60789.0146-4.22192,11.28164H873.415a4.87718,4.87718,0,0,0-3.65082,2.39828l-14.72183,38.90863a3.48882,3.48882,0,0,0-.7991,2.16984,2.92249,2.92249,0,0,0,1.028,2.28163Z"/><path class="cls-7" d="M887.33561,369.81581l-4.45191,11.41068q0-.22673-44.95718,0c-.07774-.07231-.75907-.8713-2.05375-2.39651a4.42861,4.42861,0,0,1-1.59708-2.96783,2.22819,2.22819,0,0,1,.2301-1.02853l19.73743-57.28029a8.20994,8.20994,0,0,1,3.65083-3.76628,17.603,17.603,0,0,1,2.62716-1.02586l48.60789.0146-4.22192,11.28164H873.415a4.87718,4.87718,0,0,0-3.65082,2.39828l-14.72183,38.90863a3.48882,3.48882,0,0,0-.7991,2.16984,2.92249,2.92249,0,0,0,1.028,2.28163Z"/><g class="cls-6"><polygon points="946.631 348.909 961.001 314.44 977.368 314.44 950.212 382.892 934.005 382.892 942.337 360.237 925.287 360.237 916.587 382.892 899.999 382.892 923.392 314.44 941.689 314.44 929.224 348.909 946.631 348.909"/><polygon class="cls-7" points="946.631 348.909 961.001 314.44 977.368 314.44 950.212 382.892 934.005 382.892 942.337 360.237 925.287 360.237 916.587 382.892 899.999 382.892 923.392 314.44 941.689 314.44 929.224 348.909 946.631 348.909"/></g><polygon class="cls-5" points="943.302 347.244 957.674 312.776 974.041 312.776 946.882 381.226 930.675 381.226 939.007 358.572 921.957 358.572 913.257 381.226 896.673 381.226 920.063 312.776 938.36 312.776 925.897 347.244 943.302 347.244"/><polygon class="cls-7" points="943.302 347.244 957.674 312.776 974.041 312.776 946.882 381.226 930.675 381.226 939.007 358.572 921.957 358.572 913.257 381.226 896.673 381.226 920.063 312.776 938.36 312.776 925.897 347.244 943.302 347.244"/></g></g></svg>