<svg width="48" height="48" viewBox="0 0 48 48" fill="none" xmlns="http://www.w3.org/2000/svg">
<g clip-path="url(#clip0_2221_1160)">
<path d="M24 21.5C18.2105 21.5 13.5 26.2104 13.5 32C13.5 37.7895 18.2105 42.5 24 42.5C29.7895 42.5 34.5 37.7895 34.5 32C34.5 26.2104 29.7895 21.5 24 21.5ZM24 22.5C26.2516 22.5 28.3198 23.291 29.9496 24.605C30.1876 25.081 30.4025 25.5698 30.5609 26.0859L32.1174 27.0903C32.355 27.4814 32.5742 27.8852 32.7541 28.3105L30.7814 27.0381C30.867 27.4624 30.9217 27.8955 30.9513 28.3379L33.2354 29.8115C33.3068 30.1128 33.3632 30.4194 33.4051 30.7309L30.9912 29.1733C30.9846 29.5576 30.9536 29.9355 30.9048 30.3076L33.4991 31.9814C33.4991 31.9878 33.5 31.9936 33.5 32C33.5 32.2588 33.4816 32.5132 33.4611 32.7671L30.7896 31.0434C30.7178 31.3891 30.6257 31.7275 30.5192 32.0591L33.3143 33.8623C33.267 34.0986 33.2043 34.3296 33.1398 34.5595L30.2794 32.7143C30.1535 33.0283 30.0136 33.3349 29.8577 33.6323L32.8099 35.5371C32.7239 35.7505 32.6267 35.958 32.5259 36.1636L29.5164 34.2221C29.3412 34.5068 29.153 34.7822 28.951 35.0473L32.0387 37.0391C31.9175 37.2319 31.7895 37.4189 31.6553 37.602L28.5188 35.5786C28.2945 35.8345 28.0572 36.0781 27.8082 36.3101L31.0177 38.3809C30.8617 38.5522 30.7017 38.7187 30.5338 38.8784L27.2785 36.7783C27 37.0034 26.7073 37.2104 26.4054 37.4048L29.7368 39.5542C29.5424 39.7021 29.3444 39.8452 29.1386 39.978L25.7579 37.7974C25.4117 37.9849 25.0496 38.1455 24.6802 38.292L28.1518 40.5312C27.9076 40.6509 27.6588 40.7607 27.4034 40.8589L23.8677 38.5776C23.4207 38.7114 22.9585 38.8071 22.4877 38.8774L26.1559 41.2436C25.8339 41.3188 25.5065 41.3784 25.173 41.4199L21.3916 38.9805C21.2606 38.9853 21.1322 39 21 39C20.4345 39 19.8846 38.9409 19.3452 38.8501L23.4062 41.4697C22.8463 41.435 22.3003 41.353 21.7707 41.2251L17.0037 38.1494C16.8718 38.0913 16.7446 38.0254 16.6152 37.9634C15.2948 36.3315 14.5 34.2578 14.5 32C14.5 26.7617 18.7617 22.5 24 22.5ZM42.707 9L38 4.29297L34.293 8L35.1559 8.86279L33.1558 9.86328L37.1372 13.8442L38.137 11.8442L39 12.707L42.707 9ZM38 5.70703L41.293 9L39 11.293L35.707 8L38 5.70703ZM36.8628 12.1558L34.8442 10.1367L35.9014 9.6084L37.3915 11.0986L36.8628 12.1558ZM31.5 12.5H34.5V15.5H33.5V14.207L27.0308 20.6763L14.2959 10.064L14.936 9.2959L26.9692 19.3237L32.7929 13.5H31.5V12.5ZM31.5 17.5H34.5V20.5H33.5V19.207L31 21.707L30.293 21L32.7929 18.5H31.5V17.5ZM9 4.5C7.07031 4.5 5.5 6.07031 5.5 8C5.5 9.39111 6.32184 10.585 7.5 11.1489V13.5H8.5V14H9.5V13.5H10.5V11.1489C11.6782 10.585 12.5 9.39112 12.5 8C12.5 6.07031 10.9297 4.5 9 4.5ZM9.5 11.5V12.5H8.5V11.5H9.5ZM9.89539 10.3271L10.6709 8.77637L9.77637 8.3291L9 9.88183L8.22363 8.3291L7.3291 8.77637L8.10461 10.3271C7.16851 9.96533 6.5 9.06201 6.5 8C6.5 6.62158 7.62158 5.5 9 5.5C10.3784 5.5 11.5 6.62158 11.5 8C11.5 9.06201 10.8315 9.96533 9.89539 10.3271Z" fill="white"/>
</g>
<defs>
<clipPath id="clip0_2221_1160">
<rect width="48" height="48" fill="white"/>
</clipPath>
</defs>
</svg>
