<?xml version="1.0" encoding="UTF-8"?>
<svg id="LOGO" xmlns="http://www.w3.org/2000/svg" viewBox="0 0 1250 703">
  <defs>
    <style>
      .cls-1 {
        fill: gray;
      }

      .cls-1, .cls-2 {
        stroke-width: 0px;
      }

      .cls-2 {
        fill: #0076ce;
      }
    </style>
  </defs>
  <path class="cls-1" d="M1125,370.07c0-12.05-6.7-17.4-20.09-20.08-13.38-2.67-21.41-4.02-21.41-13.38,0-6.69,5.35-10.71,14.73-10.71,12.05,0,16.06,5.35,16.06,12.05l1.34,1.34h5.35l1.34-1.34c0-13.38-10.71-18.74-24.1-18.74-14.73,0-22.75,8.03-22.75,17.41,0,10.71,8.03,16.06,21.41,18.74,13.39,2.68,20.08,4.02,20.08,14.73,0,6.69-4.01,12.05-17.4,12.05-12.05,0-17.4-6.7-17.4-14.73l-1.34-1.34h-5.35l-1.34,1.34c0,12.05,9.37,21.42,25.43,21.42,17.4,0,25.43-8.03,25.43-18.74M1067.45,356.69l1.33-1.34v-4.01c0-18.74-10.71-32.13-29.44-32.13s-29.44,13.39-29.44,32.13v2.67c0,18.74,9.37,34.8,30.79,34.8,18.74,0,25.43-12.05,26.77-20.08l-1.34-1.34h-5.35l-1.34,1.34c-2.68,8.03-8.03,13.39-18.74,13.39-17.41,0-22.76-16.06-22.76-24.09l1.34-1.34h48.19ZM1059.41,349.99h-40.15l-1.34-1.34c0-9.37,5.35-22.75,21.42-22.75s21.42,13.38,21.42,22.75l-1.34,1.34ZM1000.52,386.13v-64.26l-1.34-1.34h-5.35l-1.34,1.34v64.26l1.34,1.34h5.35l1.34-1.34ZM1000.52,308.5v-8.03l-1.34-1.34h-5.35l-1.34,1.34v8.03l1.34,1.34h5.35l1.34-1.34ZM949.66,382.12c-13.39,0-21.42-9.37-21.42-28.11s8.03-28.11,21.42-28.11,21.41,9.37,21.41,28.11-8.03,28.11-21.41,28.11M971.07,378.1c0,17.4-4.02,30.79-20.08,30.79-12.05,0-16.06-5.35-17.4-12.05l-1.34-1.34h-5.35l-1.34,1.34c1.34,10.71,9.37,18.74,25.43,18.74,17.41,0,28.11-10.71,28.11-37.48v-56.22l-1.34-1.34h-4.02l-1.34,1.34-1.34,8.04h-1.34c-2.67-5.35-9.37-10.71-21.42-10.71-18.74,0-28.11,14.73-28.11,34.8s9.37,34.8,28.11,34.8c12.05,0,18.74-5.35,21.42-10.71h1.34ZM884.08,325.9c13.38,0,22.75,10.71,22.75,28.11s-9.37,28.11-22.75,28.11-22.76-10.71-22.76-28.11,9.37-28.11,22.76-28.11M884.08,388.81c17.4,0,30.78-12.05,30.78-34.8s-13.38-34.8-30.78-34.8-30.79,12.05-30.79,34.8,13.38,34.8,30.79,34.8M843.92,386.13v-91.02l-1.34-1.34h-5.35l-1.34,1.34v91.02l1.34,1.34h5.35l1.34-1.34ZM795.74,325.9c13.38,0,22.75,10.71,22.75,28.11s-9.37,28.11-22.75,28.11-22.76-10.71-22.76-28.11,9.37-28.11,22.76-28.11M795.74,388.81c17.4,0,30.79-12.05,30.79-34.8s-13.39-34.8-30.79-34.8-30.79,12.05-30.79,34.8,13.39,34.8,30.79,34.8M756.92,386.13v-40.16c0-17.4-9.37-26.77-24.09-26.77-9.37,0-17.41,4.02-21.42,10.71h-1.34l-1.33-8.04-1.34-1.34h-4.02l-1.34,1.34v64.26l1.34,1.34h5.36l1.33-1.34v-36.14c0-14.73,6.7-24.09,21.42-24.09,10.71,0,17.4,6.69,17.4,20.07v40.16l1.34,1.34h5.35l1.34-1.34ZM688.65,386.13v-40.16c0-17.4-9.37-26.77-24.09-26.77-9.37,0-17.4,4.02-21.42,10.71h-1.34v-34.8l-1.34-1.34h-5.35l-1.34,1.34v91.02l1.34,1.34h5.35l1.34-1.34v-36.14c0-14.73,6.7-24.09,21.42-24.09,10.71,0,17.4,6.69,17.4,20.07v40.16l1.34,1.34h5.36l1.33-1.34ZM573.55,354.01c0-18.74,9.37-28.11,22.75-28.11s18.74,8.03,20.07,16.06l1.34,1.34h5.36l1.34-1.34c-1.34-13.38-12.05-22.75-28.11-22.75-17.4,0-30.78,10.71-30.78,34.8s13.38,34.8,30.78,34.8c16.06,0,26.77-9.37,28.11-22.75l-1.34-1.34h-5.36l-1.34,1.34c-1.34,8.03-6.69,16.06-20.07,16.06s-22.75-9.37-22.75-28.11M558.82,356.69l1.34-1.34v-4.01c0-18.74-10.71-32.13-29.46-32.13s-29.44,13.39-29.44,32.13v2.67c0,18.74,9.37,34.8,30.79,34.8,18.74,0,25.43-12.05,26.77-20.08l-1.34-1.34h-5.35l-1.34,1.34c-2.67,8.03-8.03,13.39-18.74,13.39-17.4,0-22.75-16.06-22.75-24.09l1.34-1.34h48.19ZM550.79,349.99h-40.15l-1.34-1.34c0-9.37,5.35-22.75,21.41-22.75s21.42,13.38,21.42,22.75l-1.34,1.34ZM514.72,299.13v-4.02l-1.34-1.34h-69.6l-1.34,1.34v4.02l1.34,1.34h29.44l1.34,1.34v84.33l1.34,1.34h5.35l1.34-1.34v-84.33l1.34-1.34h29.45l1.34-1.34Z"/>
  <path class="cls-2" d="M442.44,368.85v18.62h-60.44v-93.69h21.28v75.07h39.16ZM162.98,387.47c21.8,0,40.12-14.89,45.35-35.06l53.01,41.41,52.97-41.39v35.03h60.44v-18.62h-39.16v-75.07h-21.28v35.03l-50.81,39.7-11.36-8.88,24.33-19.01,26.49-20.69-15.12-11.82-50.81,39.7-11.36-8.88,50.81-39.7-15.12-11.81-53.01,41.41c-5.23-20.17-23.55-35.06-45.35-35.06h-37.98v93.69h37.98ZM146.28,368.85v-56.45h16.7c14.12,0,25.57,12.64,25.57,28.23s-11.45,28.23-25.57,28.23h-16.7Z"/>
</svg>