<?xml version="1.0" encoding="UTF-8"?><svg id="LOGO" xmlns="http://www.w3.org/2000/svg" viewBox="0 0 1250 703"><polygon points="462.007 315.727 429.736 411.004 415.904 411.004 454.323 302.051 470.302 302.051 508.874 411.004 494.738 411.004 462.007 315.727 462.007 315.727" fill="#1bb5e9" stroke-width="0"/><polygon points="519.312 411.004 519.312 302.051 533.298 302.051 533.298 411.004 519.312 411.004 519.312 411.004" fill="#1bb5e9" stroke-width="0"/><path d="M600.599,314.651h-29.044v38.266h29.044c12.907,0,22.128-5.226,22.128-19.057s-9.221-19.21-22.128-19.21h0ZM622.266,411.004l-20.593-45.331h-30.119v45.331h-13.676v-108.953h42.721c12.754,0,21.667,3.536,27.66,9.681,5.227,5.534,8.605,12.602,8.605,22.129s-3.073,15.982-8.298,21.513c-3.226,3.383-7.838,5.996-13.061,7.685l21.821,47.946h-15.059Z" fill="#1bb5e9" stroke-width="0"/><polygon points="695.709 320.493 695.709 411.004 675.883 411.004 675.883 320.493 643.615 320.493 643.615 302.051 727.978 302.051 727.978 320.493 695.709 320.493 695.709 320.493" fill="#111820" stroke-width="0"/><path d="M783.415,319.418h-26.125v32.577h26.432c11.217,0,17.672-5.839,17.672-16.135,0-8.758-6.761-16.442-17.979-16.442h0ZM799.704,411.004l-18.134-41.183h-24.126v41.183h-19.977v-108.953h45.949c25.97,0,37.801,16.29,37.801,33.808,0,14.599-7.989,26.123-19.977,30.58l19.977,44.565h-21.512Z" fill="#111820" stroke-width="0"/><path d="M874.192,413c-28.122,0-42.721-17.822-42.721-43.796v-67.152h19.824v66.845c0,15.523,7.068,26.125,22.897,26.125s22.897-10.603,22.897-26.125v-66.845h19.824v67.152c0,25.974-14.599,43.796-42.721,43.796h0Z" fill="#111820" stroke-width="0"/><polygon points="998.777 411.004 951.601 336.168 951.601 411.004 932.086 411.004 932.086 302.051 953.139 302.051 999.7 375.813 999.7 302.051 1019.217 302.051 1019.217 411.004 998.777 411.004 998.777 411.004" fill="#111820" stroke-width="0"/><polygon points="1104.552 411.004 1075.049 359.525 1056.3 381.499 1056.3 411.004 1036.476 411.004 1036.476 302.051 1056.3 302.051 1056.3 352.302 1099.789 302.051 1123.914 302.051 1088.879 343.235 1127.911 411.004 1104.552 411.004 1104.552 411.004" fill="#111820" stroke-width="0"/><path d="M281.325,374.216c.169-.121.336-.246.506-.369.053.123.104.246.159.369h-.665ZM361.398,363.129c.277-1.944.423-3.929.423-5.95,0-23.046-18.681-41.728-41.727-41.728-6.915,0-13.436,1.685-19.179,4.662.433,3.963.358,8.031-.283,12.119-.33-3.706-1.1-7.286-2.254-10.69-.006.004-.01.007-.016.01-6.209-18.231-23.476-31.344-43.808-31.344s-37.452,13.005-43.726,31.116c2.014,2.042,3.769,4.321,5.224,6.779-6.372-6.775-15.413-11.014-25.449-11.031-3.638-.006-7.147.544-10.447,1.569-14.219,4.452-24.537,17.729-24.537,33.415,0,4.031.684,7.902,1.938,11.506-1.469-.28-2.983-.434-4.533-.434-13.221,0-23.939,10.718-23.939,23.939,0,13.116,10.549,23.761,23.623,23.932v.008h208.875v-.008c13.084-.16,23.642-10.81,23.642-23.932s-10.659-23.876-23.827-23.935h0Z" fill="#1bb5e9" stroke-width="0"/></svg>