<?xml version="1.0" encoding="UTF-8"?>
<svg height="703" width="1250" xmlns="http://www.w3.org/2000/svg" xmlns:xlink="http://www.w3.org/1999/xlink" viewBox="-39.8936 -11.7903 1329.7872 747.8723">
  <!-- Original Content Bounds: x="0" y="0.4" width="1947.9200000000005" height="464.9700000000001" -->
  <!-- Logo Content -->
  <g transform="translate(138.01999999999987, 235.05749999999998) scale(0.5)">
<defs>
    <style>
      .cls-1 {
        fill: url(#linear-gradient);
      }

      .cls-2 {
        fill: url(#New_Gradient_Swatch_1);
      }
    </style>
    <linearGradient id="linear-gradient" x1="0" y1="303.53" x2="608.41" y2="303.53" gradientUnits="userSpaceOnUse">
      <stop offset="0" stop-color="#008578"/>
      <stop offset="1" stop-color="#39b54a"/>
    </linearGradient>
    <linearGradient id="New_Gradient_Swatch_1" data-name="New Gradient Swatch 1" x1="73.78" y1="159.49" x2="682.19" y2="159.49" gradientUnits="userSpaceOnUse">
      <stop offset="0" stop-color="#39b54a"/>
      <stop offset="1" stop-color="#008578"/>
    </linearGradient>
  </defs>
  <g id="Layer_1" data-name="Layer 1">
    <g>
      <path d="M730.09,2.76h102.99c46.45,0,74.04,20.53,74.04,61.93,0,21.54-9.42,39.38-33.99,50.82v.34c27.6,7.4,41.4,30.96,41.4,57.89,0,45.1-36.02,69-75.73,69h-108.71V2.76ZM827.69,101.37c22.55,0,35.67-11.44,35.67-30.97,0-20.87-15.14-29.62-37.69-29.62h-50.82v60.58h52.84ZM831.06,204.7c23.89,0,39.04-11.78,39.04-33.66s-13.8-31.97-38.71-31.97h-56.54v65.63h56.21ZM938.63,179.12v-39.38c0-46.78,39.71-72.36,77.75-72.36,41.73,0,79.09,27.6,79.09,71.69v35.34c0,46.78-39.71,72.36-77.75,72.36-41.73,0-79.09-23.56-79.09-67.65ZM1053.73,178.11v-42.74c0-20.87-16.16-32.98-37.36-32.98-17.17,0-36.02,9.09-36.02,33.99v42.41c0,20.87,16.16,33.32,37.36,33.32,17.17,0,36.02-9.09,36.02-33.99ZM1123.03,70.41h40.05v28.61h.67c10.09-18.18,35.67-31.97,56.2-31.97,4.38,0,9.43,0,13.8,1.01v37.7c-5.39-1.01-9.76-1.01-15.48-1.01-30.97,0-54.19,17.84-54.19,49.81v88.18h-41.06V70.41ZM1248.84,176.43v-33.66c0-48.46,36.35-75.39,79.1-75.39,37.36,0,74.38,21.88,74.38,67.65v33.32h-110.73v9.43c0,21.88,17.84,34.67,39.72,34.67,13.8,0,28.27-9.09,37.36-22.21l31.64,18.18c-13.46,26.93-40.72,38.37-71.02,38.37-42.41,0-80.44-23.22-80.44-70.34ZM1361.26,139.74v-4.71c0-23.56-16.49-32.98-33.32-32.98s-36.35,9.43-36.35,35.34v2.35h69.67ZM1421.95,193.93c0-33.32,30.29-53.18,63.61-53.18h45.77v-15.82c0-18.18-12.12-25.92-32.99-25.92-17.84,0-30.97,6.06-30.97,17.17v6.06h-37.02v-4.71c0-37.69,36.01-50.48,68.32-50.48,38.37,0,73.71,12.79,73.71,54.86v83.8c0,7.74,1.01,33.32,3.03,37.02h-40.72c-.67-2.69-1.35-13.13-1.69-15.82h-.67c-15.14,15.82-28.27,19.18-50.49,19.18-35.67,0-59.9-19.52-59.9-52.17ZM1531.33,179.12v-8.41h-40.39c-17.5,0-28.94,6.06-28.94,21.2s11.78,21.88,30.96,21.88c32.99,0,38.37-16.15,38.37-34.67ZM1604.94,196.62V2.76h41.06v193.53c0,7.74,3.71,14.14,14.81,14.14,7.41,0,11.44-.67,18.85-1.35v31.3c-8.75,2.36-22.21,4.71-32.98,4.71-40.73,0-41.74-32.98-41.74-48.47ZM1701.9.4h41.06v43.76h-41.06V.4ZM1701.9,70.41h41.06v172.32h-41.06V70.41ZM1766.86,213.11l28.94-21.88c10.77,14.14,27.94,22.55,47.46,22.55,16.82,0,33.99-5.72,33.99-21.2,0-13.46-9.09-16.49-32.31-20.53l-22.55-4.04c-28.27-5.05-47.12-18.85-47.12-44.76,0-36.01,31.64-56.54,68.32-56.54,30.96,0,53.17,7.74,67.65,28.27l-29.62,20.19c-10.1-11.78-21.54-16.83-38.37-16.83s-27.94,6.06-27.94,19.19c0,12.12,14.81,13.8,32.64,17.17l25.92,5.05c29.28,5.72,46.11,22.21,46.11,48.13,0,39.71-40.72,58.56-76.06,58.56-30.97,0-59.91-8.08-77.07-33.32ZM730.09,340.91h51.17c27.3,0,49.96,14.6,49.96,43.1v34.51c0,30.39-24.04,44.81-49.79,44.81h-51.34v-122.42ZM779.54,438.26c11.16,0,20.95-7.04,20.95-19.57v-33.65c0-11.85-9.62-19.06-21.81-19.06h-17.86v72.29h18.72ZM883.28,340.74h32.79l42.93,122.59h-31.25l-7.38-22.83h-43.78l-7.55,22.83h-29.19l43.44-122.59ZM912.81,416.45l-14.08-44.3h-.52l-14.25,44.3h28.85ZM988.88,365.46h-34.68v-24.55h100.1v24.55h-34.68v97.87h-30.74v-97.87ZM1092.74,340.74h32.79l42.93,122.59h-31.25l-7.38-22.83h-43.78l-7.55,22.83h-29.19l43.44-122.59ZM1122.27,416.45l-14.08-44.3h-.51l-14.25,44.3h28.85ZM1229.59,421.26v-37.43c0-30.05,24.38-44.99,51.51-44.99,23.69,0,49.62,12.02,49.62,40.35v5.66h-28.85v-2.75c0-12.88-10.82-18.2-20.26-18.2-10.82,0-21.29,5.67-21.29,19.57v37.09c0,12.53,9.1,19.74,21.63,19.74,9.45,0,19.92-5.49,19.92-18.2v-2.92h28.85v6.01c0,28.16-25.24,40.18-48.94,40.18-26.96,0-52.2-13.57-52.2-44.13ZM1349.66,340.91h90.14v24.9h-59.41v23.35h49.97v24.72h-49.97v24.38h59.75v25.07h-90.49v-122.42ZM1460.49,340.91h29.7l46.7,69.2h.34v-69.2h28.33v122.42h-28.5l-47.9-71.94h-.34v71.94h-28.33v-122.42ZM1617.77,365.46h-34.68v-24.55h100.1v24.55h-34.68v97.87h-30.74v-97.87ZM1700.61,340.91h90.14v24.9h-59.41v23.35h49.97v24.72h-49.97v24.38h59.75v25.07h-90.49v-122.42ZM1811.44,340.91h53.57c27.81,0,43.78,15.97,43.78,38.63,0,14.94-7.21,29.53-23.01,36.06l27.99,47.73h-33.48l-24.21-43.27h-13.91v43.27h-30.73v-122.42ZM1861.07,397.4c11.16,0,17.86-6.35,17.86-16.31,0-10.47-6.87-16.14-17.86-16.14h-18.89v32.45h18.89Z"/>
      <g>
        <path class="cls-1" d="M322.52,161.66c119.5-18.14,220.82-20.76,285.89-14.67C344.93,232.35,63.51,408,0,463.01v-221.08c24.74-8.72,49.37-16.73,73.78-24.1v101.16c33.6-29.11,128.13-91.95,248.74-157.32Z"/>
        <path class="cls-2" d="M73.78,97.9v221.08c33.6-29.11,128.13-91.95,248.74-157.32C429.94,103.41,558.05,43.16,682.19,2.96c-118.75-11.15-358.12,6.8-608.41,94.94Z"/>
      </g>
    </g>
  </g>
  </g>
</svg>