<svg id="Layer_2" data-name="Layer 2" xmlns="http://www.w3.org/2000/svg" width="100" height="100" viewBox="0 0 100 100"><title>feature-cost-efficiency-green-100x100</title><path d="M46.9,92.9A42.9,42.9,0,1,1,89.81,50v3.64h-3.6V50A39.31,39.31,0,1,0,46.9,89.31Z" fill="#76ba43"/><path d="M66.92,33.37,63.64,30.1,58.46,33l-.07-.07L51,29.84h-.11l-1.54-5.72H44.67l-1.58,5.72H43L35.57,32.9l-.08.08-5.14-3L27.07,33.3,30,38.48l-.07.07L26.82,46v.11L21.1,47.62v4.65l5.72,1.58V54l3.06,7.41.07.08L27,66.59l3.28,3.28L35.46,67l.07.07L43,70.12h.1l1.55,5.72h4.64l1.59-5.72h.11l7.41-3.06.07-.07,5.15,3,3.27-3.27-2.91-5.19.07-.07L67.1,54v-.11l5.72-1.55V47.7L67.1,46.11V46L64,38.59,64,38.52Zm-9.61,4.21a16.2,16.2,0,1,1-20.74-.07A16.22,16.22,0,0,1,57.31,37.58Z" fill="#76ba43" fill-rule="evenodd"/><g style="isolation:isolate"><path d="M48.08,59.24v2.82H45.53V59.34A8,8,0,0,1,39.59,57l2.26-2.26a5.8,5.8,0,0,0,4,1.51V51.66l-.81-.1A6,6,0,0,1,41.58,50a4.66,4.66,0,0,1-1.29-3.5c0-2.9,2-5,5.24-5.39V38.88h2.55v2.24a7.38,7.38,0,0,1,5,2.07l-2.22,2.19a5.08,5.08,0,0,0-3.1-1.21v4.39l1,.15a6.08,6.08,0,0,1,3.43,1.41,5,5,0,0,1,1.38,3.78C53.49,57,51.23,58.86,48.08,59.24Zm-2.22-15a2.23,2.23,0,0,0-2.19,2.22,1.71,1.71,0,0,0,.53,1.28,2.92,2.92,0,0,0,1.66.71Zm3.65,8.29a3,3,0,0,0-1.79-.66v4.34c1.52-.18,2.35-.93,2.35-2.17A2,2,0,0,0,49.51,52.49Z" fill="#76ba43"/></g><path d="M87.69,55.29h0a1.64,1.64,0,0,1-1.15-.47l-6.69-6.7a1.62,1.62,0,0,1,1.78-2.63L88,48.22l5.71-2.71a1.62,1.62,0,0,1,1.84,2.61l-6.7,6.7A1.63,1.63,0,0,1,87.69,55.29Z" fill="#76ba43"/></svg>