<svg xmlns="http://www.w3.org/2000/svg" width="100" height="100" viewBox="0 0 100 100"><title>feature-clock-icon-green-100x100</title><g id="Layer_1" data-name="Layer 1"><path d="M23.2,48.4H15.7v3.3h7.5c0-.6-.1-1.2-.1-1.7A9.15,9.15,0,0,0,23.2,48.4Z" fill="#76b943"/><path d="M29.8,67.7,24.6,73,27,75.4l5.3-5.3A18.78,18.78,0,0,1,29.8,67.7Z" fill="#76b943"/><path d="M70.1,32.2l5.1-5.1-2.4-2.4-5.1,5.1A27.15,27.15,0,0,1,70.1,32.2Z" fill="#76b943"/><path d="M51.6,23.2V15.9H48.3v7.3c.6,0,1.2-.1,1.8-.1A6.62,6.62,0,0,0,51.6,23.2Z" fill="#76b943"/><path d="M48.2,76.8v7.4h3.3V76.8H48.2Z" fill="#76b943"/><path d="M32.1,30l-5.2-5.2-2.4,2.4,5.2,5.2A27.15,27.15,0,0,1,32.1,30Z" fill="#76b943"/><path d="M76.8,48.4V50a9.15,9.15,0,0,1-.1,1.7H84V48.4Z" fill="#76b943"/><path d="M67.7,70.2l5.2,5.2L75.3,73,70,67.9A25,25,0,0,1,67.7,70.2Z" fill="#76b943"/><path d="M79.7,35.2a1.56,1.56,0,0,0-2.2-.7l-4.2,2.1L58.4,44l-4.1,2a4.43,4.43,0,0,0-1.5-1.2,3.58,3.58,0,0,0-1.1-.4V31.3a1.27,1.27,0,0,0-.1-.6A1.76,1.76,0,0,0,50,29.6a1.69,1.69,0,0,0-1.7,1.7V44.5h-.1a5.36,5.36,0,0,0-1.1.5,5.89,5.89,0,0,0-2.3,2.4,4.18,4.18,0,0,0-.4,1,7.77,7.77,0,0,0-.2,1.6,4.67,4.67,0,0,0,.3,1.7c.1.3.3.7.4,1a5.89,5.89,0,0,0,2.3,2.4,4.18,4.18,0,0,0,1,.4,5.66,5.66,0,0,0,1.8.3,7.77,7.77,0,0,0,1.6-.2c.4-.1.7-.3,1.1-.4a5.34,5.34,0,0,0,2.4-2.3,4.33,4.33,0,0,0,.5-1.2,5.08,5.08,0,0,0,.3-1.7,3.4,3.4,0,0,0-.1-1l1.2-.6,17.8-8.9L79,37.3A1.5,1.5,0,0,0,79.7,35.2Z" fill="#76b943"/><path d="M50,7.5A42.5,42.5,0,1,0,92.5,50,42.59,42.59,0,0,0,50,7.5Zm0,81.7A39.2,39.2,0,1,1,89.2,50,39.26,39.26,0,0,1,50,89.2Z" fill="#76b943"/></g></svg>