<?xml version="1.0" encoding="UTF-8"?>
<svg id="PASTE_LOGO_HERE" data-name="PASTE LOGO HERE" xmlns="http://www.w3.org/2000/svg" viewBox="0 0 1250 703">
  <defs>
    <style>
      .cls-1 {
        fill: #192958;
      }

      .cls-2 {
        fill: #a1a1a4;
      }
    </style>
  </defs>
  <path class="cls-2" d="M344.71,342.49c0-13.33-49.18-24.14-109.85-24.14-20.96-.11-41.91,1.33-62.66,4.31.28-.86.56-1.72.87-2.57,10.33-28.13,40-48.44,74.98-48.44,9.68-.02,19.29,1.57,28.45,4.71-11.31-4.88-23.5-7.38-35.82-7.35-37.54,0-69.15,22.52-78.81,53.24-.43,1.37-.81,2.75-1.16,4.15-1.77,7.24-2.3,14.72-1.55,22.14,3.15,1.01,6.73,1.95,10.69,2.83-.46-3.1-.7-6.22-.71-9.35,0-5.04.6-10.07,1.8-14.96,22.41-3.76,45.11-5.55,67.84-5.34,55.39,0,100.31,9.07,100.31,20.25s-44.91,20.25-100.31,20.25-100.31-9.07-100.31-20.25c0-3.9,5.47-7.55,14.95-10.62.28-1.65.6-3.28,1-4.89.03-.15.08-.29.11-.43-18.32,4.3-29.54,10.09-29.54,16.45,0,7.14,14.09,13.54,36.48,17.96,9.16,31.39,41.15,54.56,79.21,54.56,12.32.03,24.51-2.47,35.82-7.35-9.16,3.14-18.77,4.73-28.45,4.71-35.64,0-65.76-21.08-75.54-50.02,20.65,2.94,41.48,4.36,62.33,4.25,60.67,0,109.85-10.81,109.85-24.14"/>
  <path class="cls-1" d="M744.34,384.02c3.06,3.39,6.81,6.08,10.99,7.91,4.18,1.83,8.71,2.74,13.27,2.69,11.36,0,20.8-5.97,20.8-17.91,0-24.27-51.04-10.21-51.04-44.11,0-17.71,15.41-28.12,31.97-28.12,11.74,0,19.64,4.82,28.89,11.36l-6.37,8.85c-6.5-5.47-14.62-8.65-23.11-9.05-10.98,0-20.22,5.38-20.22,16.37,0,24.27,51.05,8.28,51.05,44.11,0,20.21-15.61,29.64-34.49,29.64-5.8-.09-11.51-1.44-16.73-3.97-5.22-2.53-9.83-6.16-13.5-10.66l8.49-7.13Z"/>
  <path class="cls-1" d="M873.14,280.22c15.07.21,29.46,6.32,40.07,17.01,10.62,10.69,16.63,25.12,16.74,40.19,0,15.07-5.99,29.52-16.64,40.17-10.65,10.65-25.1,16.64-40.17,16.64s-29.52-5.99-40.17-16.64c-10.66-10.66-16.64-25.11-16.64-40.17.11-15.07,6.12-29.5,16.74-40.19,10.62-10.69,25.01-16.8,40.08-17.01ZM873.14,268.27c-18.41-.01-36.09,7.24-49.18,20.19-13.09,12.95-20.55,30.54-20.74,48.95.23,18.39,7.69,35.96,20.78,48.88,13.09,12.93,30.74,20.18,49.14,20.18s36.05-7.25,49.14-20.18c13.09-12.93,20.55-30.49,20.78-48.88-.19-18.41-7.64-36.01-20.74-48.95-13.09-12.95-30.77-20.21-49.18-20.19Z"/>
  <path class="cls-1" d="M1048.34,362.07c-.55-2.6-.81-5.24-.78-7.9-.07-5.15.9-10.25,2.85-15.01,1.96-4.76,4.86-9.07,8.54-12.67,3.68-3.6,8.04-6.42,12.84-8.28,4.8-1.86,9.92-2.73,15.07-2.55,3.83-.07,7.64.64,11.18,2.1,3.55,1.46,6.76,3.62,9.43,6.37l-59.13,37.95ZM1125,327.01c-3.83-6.76-9.37-12.4-16.06-16.36-6.69-3.95-14.31-6.08-22.08-6.17-28.88,0-50.46,20.22-50.46,49.51s20.22,51.79,50.08,51.79c11.94,0,27.35-5.2,35.82-13.67v-13.47c-10.4,8.67-22.52,15.98-36.59,15.98-7.23-.25-14.26-2.48-20.3-6.46-6.05-3.97-10.88-9.54-13.98-16.08l73.58-45.07Z"/>
  <path class="cls-1" d="M458.52,394.62c-15.07-.21-29.45-6.32-40.07-17.01-10.62-10.69-16.63-25.12-16.74-40.19.11-15.07,6.12-29.5,16.74-40.19,10.62-10.69,25.01-16.8,40.08-17.01,14.52.09,28.45,5.79,38.87,15.9v-16.02c-10.47-7.01-22.64-11.07-35.22-11.73-12.58-.66-25.11,2.09-36.26,7.96-11.15,5.87-20.5,14.65-27.07,25.41-6.57,10.75-10.1,23.08-10.24,35.68.14,12.6,3.68,24.93,10.24,35.68,6.57,10.75,15.92,19.53,27.07,25.4,11.15,5.87,23.67,8.62,36.26,7.96,12.58-.66,24.75-4.71,35.22-11.73v-16c-10.43,10.11-24.35,15.79-38.87,15.89Z"/>
  <path class="cls-1" d="M717.22,350.32c0,38.89-11.56,45.46-29.67,45.46-16.56,0-23.49-9.82-23.49-27.16v-64h-11.17v65.35c0,21.96,9.24,35.82,33.71,35.82,14.83,0,26.39-8.08,30.24-16.74h.39v17.09h11.17v-101.51h-11.17v45.71Z"/>
  <path class="cls-1" d="M963.82,320.47h-.39v-15.86h-11.18v101.51h11.17v-65.24c0-18.68,18.1-26.39,28.69-26.39,15.41,0,24.44,7.52,24.44,21.58v70.05h11.18v-67.56c0-24.83-14.91-32.92-31.97-33.96h-6.56c-5.15.55-10.11,2.27-14.51,5.02-4.4,2.75-8.11,6.45-10.87,10.84Z"/>
  <path class="cls-1" d="M642.16,304.61c-15.34.82-25.1,6.28-31.45,21.44h-.38v-21.44h-11.17v101.52h11.17v-51.19c0-24.27,14.83-39.29,26.96-39.29h9.23v-11.17c-1.52,0-2.96.05-4.37.12"/>
  <path class="cls-1" d="M989.2,304.61h6.6c-1.34-.09-2.68-.12-4.04-.12-.86,0-1.72.05-2.56.12"/>
  <path class="cls-1" d="M548.5,374.98l-38.47-70.37h-12.58l44.71,82.11-22.98,48.01h11.93l63.04-130.12h-11.78l-33.86,70.37Z"/>
</svg>