<?xml version="1.0" encoding="UTF-8"?><svg id="LOGOS" xmlns="http://www.w3.org/2000/svg" xmlns:xlink="http://www.w3.org/1999/xlink" viewBox="0 0 1250 703"><defs><style>.cls-1{clip-path:url(#clippath);}.cls-2{fill:none;}.cls-2,.cls-3{stroke-width:0px;}.cls-3{fill:#000;}</style><clipPath id="clippath"><rect class="cls-2" x="227" y="265.53888" width="796" height="171.92225"/></clipPath></defs><g id="Layer_4"><g class="cls-1"><path class="cls-3" d="M608.84102,359.52258c0-19.47208-8.93825-35.7031-36.68476-35.7031-15.12916,0-26.52932,4.07078-32.30591,7.28589l8.26431,14.72703c5.38802-2.51488,12.59157-4.38178,19.45642-4.38178,12.74632,0,15.12916,6.24868,15.12916,10.65643v5.0301c-26.91786,0-48.80872,6.30043-48.80872,27.79484,0,13.19744,10.02651,25.38364,26.89207,25.38364,9.87008,0,18.36818-3.55209,23.80781-10.13792h.51921l1.52838,8.29715h22.20204v-48.95228ZM583.58221,372.33096v5.98943c0,1.52975-.18224,3.03356-.51921,4.38178-1.6831,5.23761-6.968,9.48976-13.44604,9.48976-5.77659,0-11.86436-1.81499-11.91593-8.42659.07736-10.50084,11.55318-11.46034,25.85539-11.46034l.02579.02596Z"/><path class="cls-3" d="M842.60714,365.56479c.18222-25.35767-14.19733-41.77023-33.78271-41.77023-11.37437,0-19.89656,4.56333-24.76713,11.66768h-.33694v-44.25932h-25.38949v117.14335h20.88167l1.00919-11.51208h.33694c5.85568,9.80077,15.0518,13.35286,24.58659,13.35286,18.73096,0,37.46187-14.88262,37.46187-44.64822v.02596ZM799.13486,389.88543c-7.35827,0-13.21222-5.23761-14.89702-12.16041-.33699-1.34821-.49172-2.87797-.49172-4.56333v-12.16023c0-1.68536.15472-3.21511.49172-4.74488,1.6848-7.44131,8.0322-12.67875,14.89702-12.67875,11.86609,0,17.56531,10.13774,17.56531,22.99821,0,14.88262-6.68434,23.33535-17.56531,23.33535v-.02596Z"/><path class="cls-3" d="M1023,359.52258c0-19.47208-8.96401-35.7031-36.68479-35.7031-15.13087,0-26.52932,4.07078-32.30762,7.28589l8.26431,14.72703c5.38978-2.51488,12.59159-4.38178,19.45642-4.38178,12.74805,0,15.13092,6.24868,15.13092,10.65643v5.0301c-26.91789,0-48.81048,6.30043-48.81048,27.79484,0,13.19744,10.05232,25.38364,26.89207,25.38364,9.87178,0,18.36821-3.55209,23.80951-10.13792h.51753l1.52835,8.29715h22.20377v-48.95228ZM997.76524,378.32039c0,1.52975-.18048,3.03356-.51748,4.38178-1.71062,5.23761-6.9697,9.48976-13.44601,9.48976-5.77835,0-11.86609-1.81499-11.8919-8.42659.05157-10.50084,11.55491-11.46034,25.82963-11.46034v6.0154h.02576Z"/><path class="cls-3" d="M911.8815,291.17781v41.92582h-.33699c-3.73068-5.75613-11.70963-9.30821-21.86678-9.30821-19.81917,0-37.2796,16.10138-37.12488,44.02585,0,25.72077,15.75149,42.4703,35.41599,42.4703,10.67289,0,20.67364-4.74489,25.93272-14.0531h.33699l1.19141,12.1862h22.17796v-117.24685h-25.72643ZM911.85569,371.5549c0,2.20387-.18222,4.07077-.67393,5.9375-1.52835,7.28589-7.46142,12.34179-14.92284,12.34179-10.67463,0-17.61689-8.78953-17.61689-22.84262,0-13.04185,6.11355-23.51673,17.79743-23.51673,7.95481,0,13.55089,5.75596,15.07929,12.70471.18048,1.34821.33694,3.21511.33694,4.56333v10.83797-.02596Z"/><path class="cls-3" d="M717.34116,323.81948c-6.11529,0-11.19216,1.34822-15.75149,4.07078-3.91295,2.38542-7.61787,5.75596-10.67468,9.98232h-.33694c-3.54852-8.63411-12.02081-14.0531-22.69549-14.0531-14.24891,0-21.52808,7.77845-25.07828,13.04185h-.5175l-1.19141-11.17495h-21.01061v82.76252h25.07828v-48.22625c0-2.02249.18051-4.38196,1.00919-6.43024,1.53011-4.22637,5.41554-9.30821,12.02252-9.30821,8.13365,0,11.86438,7.10434,11.86438,17.60518v46.38548h25.07826v-48.4078c0-2.02249.33699-4.74488,1.01092-6.58583,1.68486-4.9003,5.93302-8.97108,11.86609-8.97108,8.29008,0,12.2013,6.94876,12.2013,18.95339v45.01131h25.08004v-48.74495c0-24.70952-12.02254-35.88447-27.95457-35.88447v-.02596Z"/><path class="cls-3" d="M479.14805,386.74699h45.41669v21.67596h-71.34944v-114.08365h25.93275v92.40769Z"/><path class="cls-3" d="M271.63101,295.48808l29.91447,52.41909-33.28415,60.70575,21.42151-.0172,22.17797-41.41606,23.62211,41.43326h21.83413l-63.85193-113.14203-21.83413.01719Z"/><path class="cls-3" d="M227,265.53888v171.92225h171.92225v-171.92225h-171.92225ZM383.74151,422.32578h-141.56077v-141.65161h141.56077v141.65161Z"/></g></g></svg>