<?xml version="1.0" encoding="UTF-8"?>
<svg id="Layer_1" xmlns="http://www.w3.org/2000/svg" version="1.1" viewBox="0 0 1250 703">
  <!-- Generator: Adobe Illustrator 30.2.1, SVG Export Plug-In . SVG Version: 2.1.1 Build 1)  -->
  <defs>
    <style>
      .st0 {
        fill-rule: evenodd;
      }
    </style>
  </defs>
  <g id="Layer_14">
    <g id="Page-1">
      <g id="nutanix-seeklogo.com">
        <path id="Fill-1" class="st0" d="M975.7,413.5c-.5.4-1.2.7-1.8.7h-36c-1.1,0-2.2-.6-2.7-1.6-.5-1.2-.2-2.6.8-3.4l65.6-55.3c1.3-1.1,1.5-3.1.4-4.4-.1-.1-.2-.3-.4-.4l-65.5-55.6c-.8-.7-1.2-1.7-1.1-2.8.2-1.4,1.4-2.4,2.8-2.4h34.6c.7,0,1.3.2,1.8.7l71.4,60.1.6.6c1,.9,1.1,2.4.3,3.4,0,0-.1.2-.2.2l-.7.6-70,59.6"/>
        <path id="Fill-2" class="st0" d="M274.4,289.3h-21.9c-2.6,0-4.8,2.1-4.8,4.8v70.9c0,1.1-1,1.9-2.1,1.9-.4,0-.8-.2-1.1-.4l-81.2-70.7c-5.5-4.8-11.6-7.3-17.9-7.3s-15,2.3-15,17.6v102.6c0,2.6,2.1,4.8,4.8,4.8h21.9c2.6,0,4.8-2.1,4.8-4.8v-71.2c0-1.1.9-1.9,1.9-1.9.5,0,.9.2,1.3.5l82.1,71.8c5.1,4.5,10.6,6.8,16.4,6.8s15.6-2.4,15.6-18.4v-102.1c0-2.6-2.1-4.8-4.8-4.8"/>
        <path id="Fill-3" class="st0" d="M434.9,289.3h-25.5c-1.6,0-2.8,1.3-2.8,2.8v83.1c0,6.8-8.5,10.3-25.3,10.3h-34.7c-17.1,0-25.8-3.5-25.8-10.3v-83.1c0-1.6-1.3-2.8-2.9-2.8h-25.8c-1.6,0-2.8,1.3-2.9,2.8v84.4c-.1,5.2.9,10.3,2.9,15,1.8,4,4.5,7.5,7.7,10.4,3.2,2.8,7,5,11,6.5,4.1,1.5,8.3,2.7,12.6,3.4,4.4.8,8.9,1.3,13.4,1.4,4.4.2,8.6.2,12.5.2h28.2c20.7,0,35.5-2.9,45.1-8.8,10-6.1,15-15.6,15-28.3v-84.3c0-1.6-1.3-2.8-2.9-2.8"/>
        <path id="Fill-4" class="st0" d="M584,311.2v-16.3c0-3.2-2.6-5.7-5.7-5.7h-124.8c-3.2,0-5.7,2.6-5.7,5.7h0v16.4c0,3.2,2.6,5.7,5.7,5.7h43.7c1.6,0,2.9,1.3,2.9,2.9h0v87.9c0,3.2,2.6,5.7,5.7,5.7h20.1c3.2,0,5.7-2.6,5.7-5.7v-87.9c0-1.6,1.3-2.9,2.9-2.9,0,0,0,0,0,0h43.8c3.2,0,5.7-2.6,5.7-5.7h0"/>
        <path id="Fill-5" class="st0" d="M616.8,351.1l16-23c.6-.8,1.8-1,2.6-.4.2.1.3.3.4.4l16.2,22.8c.5.7.3,1.7-.4,2.2-.3.2-.6.3-.9.3h-32.6c-.8,0-1.5-.7-1.5-1.5,0-.3,0-.6.3-.8ZM651.9,297.7c-4.3-6-10-9-16.9-9s-12.5,3.1-16.8,9.2l-77,111.1c-.8,1.1-.7,2.5.2,3.5.6.7,1.4,1,2.3,1h30.2c1,0,1.9-.5,2.4-1.3l19.3-29.7c.4-.7,1.1-1,1.9-1h74.2c.8,0,1.5.4,1.9,1l19.8,29.8c.5.8,1.4,1.3,2.4,1.3h29c1.6,0,2.8-1.3,2.8-2.9,0-.6-.2-1.1-.5-1.6l-75.4-111.4Z"/>
        <path id="Fill-6" class="st0" d="M878.9,289.3h-22.5c-2.5,0-4.5,2-4.5,4.5v71.9c0,.9-.7,1.6-1.6,1.6-.4,0-.8-.1-1.1-.4l-81.7-71.2c-5.5-4.8-11.6-7.3-17.9-7.3s-15,2.3-15,17.6v102.9c0,2.5,2,4.5,4.5,4.5h22.5c2.5,0,4.4-2,4.4-4.5v-72.2c0-.9.7-1.6,1.6-1.6.4,0,.8.1,1.1.4l82.6,72.2c5.1,4.5,10.6,6.8,16.5,6.8s15.6-2.4,15.6-18.4v-102.4c0-2.5-2-4.5-4.5-4.5"/>
        <path id="Fill-7" class="st0" d="M922.1,289.3h-25.8c-1.6,0-2.8,1.3-2.8,2.8h0v118.5c0,1.6,1.3,2.8,2.8,2.8,0,0,0,0,0,0h25.8c1.6,0,2.8-1.3,2.8-2.8h0v-118.5c0-1.6-1.3-2.8-2.8-2.8h0"/>
        <path id="Fill-8" class="st0" d="M1056.7,341.1c1.1,1,2.9,1,4,0l57.3-47.6c.8-.7,1.2-1.7,1.1-2.8-.2-1.4-1.4-2.4-2.8-2.4h-34.6c-.7,0-1.3.2-1.8.7l-40.2,32.8c-1.3,1.1-1.5,3-.4,4.3.1.1.2.2.4.4l17.2,14.6"/>
        <path id="Fill-9" class="st0" d="M1056.5,362c1.2-1,2.8-1,4,0l58.1,47.5c.8.7,1.2,1.7,1.1,2.7-.2,1.4-1.4,2.4-2.8,2.4h-34.6c-.7,0-1.3-.2-1.8-.7l-40-33.3c-1.3-1.1-1.5-3-.4-4.3.1-.1.2-.2.4-.4l16-14"/>
      </g>
    </g>
  </g>
</svg>