<?xml version="1.0" encoding="UTF-8"?><svg id="Layer_1" xmlns="http://www.w3.org/2000/svg" viewBox="0 0 512 512"><defs><style>.cls-1{fill:#747474;fill-rule:evenodd;}</style></defs><path class="cls-1" d="M235.81989,267.2865c-7.36511,4.87512-11.31885,11.08466-11.31885,19.47906h-.00311c0,14.40973,15.28802,25.18622,30.08911,25.18622,16.51147,0,27.8642-4.65631,34.05524-13.96906s9.28809-20.52991,9.28809-33.64539c-16.96136-4.31122-46.47113-7.4021-62.11047,2.94916Z"/><path class="cls-1" d="M375.58154,48h-239.16309c-48.63141,0-88.41846,39.78705-88.41846,88.41846v239.16309c0,48.63141,39.78705,88.41846,88.41846,88.41846h239.16309c48.63141,0,88.41846-39.78705,88.41846-88.41846v-239.16309c0-48.63141-39.78705-88.41846-88.41846-88.41846ZM167.07458,340.44775c17.03223,27.71625,52.42493,45.24469,85.60187,45.24469,31.07526,0,56.07965-5.40216,75.36456-23.49139,26.26178-24.6377,31.73474-63.92554-1.74109-87.87915-10.31122,88.00244-129.64465,82.98242-129.64465,13.03534,0-14.5238,5.64862-27.19855,16.94287-38.0213,22.43121-21.49445,56.1814-15.14319,84.3291-15.56842-2.96765-13.28497-14.26184-32.5329-35.94122-32.5329-16.70557,0-31.09991,4.20026-38.83789,17.13696l-23.31879-15.12775c9.87665-18.54529,29.79022-30.72394,60.34161-30.72394s60.45874,19.9906,65.41711,57.90094l1.53156,11.70715c17.26947,6.96759,29.70087,19.96594,38.33252,33.06293,24.26794,36.82562,10.88745,84.06409-23.76868,113.43213-18.90894,16.02454-47.01044,24.03986-84.28601,24.03986l-.00305.00311c-31.67926,0-46.24615-3.90448-70.44629-16.93359-20.96747-11.28809-39.04437-26.3974-48.72076-48.08289-34.67151-77.67896-24.13849-193.85681,49.95648-232.46667,37.62378-19.60229,97.30591-21.75641,135.53058-2.32355,36.66534,18.64087,54.40637,47.72229,69.08118,85.03479l-29.95355,8.55774c-13.8335-50.25543-47.16455-78.09802-101.26581-78.09802-21.38043,0-40.78247,2.14789-57.0874,10.23102-39.00128,19.32501-54.98267,64.659-56.55432,110.57855-1.14325,33.36798,4.24963,67.05035,19.14008,91.28436Z"/></svg>