<?xml version="1.0" encoding="UTF-8"?><svg id="LOGO" xmlns="http://www.w3.org/2000/svg" viewBox="0 0 1250 703"><defs><style>.cls-1{fill:#0061fe;}.cls-1,.cls-2{stroke-width:0px;}.cls-2{fill:#1e1919;}</style></defs><g id="Dropbox"><path class="cls-1" d="m210.87766,258.76206l-55.55438,34.89666,55.55438,34.89666,55.56412-34.89666,55.55438,34.89666,55.55394-34.89666-55.55394-34.89666-55.55438,34.89666-55.56412-34.89666Z"/><path class="cls-1" d="m210.87766,398.34936l-55.55438-34.89666,55.55438-34.89732,55.56412,34.89732-55.56412,34.89666Z"/><path class="cls-1" d="m266.44178,363.4527l55.55438-34.89732,55.55394,34.89732-55.55394,34.89666-55.55438-34.89666Z"/><path class="cls-1" d="m266.44178,444.87759l-55.56412-34.89666,55.56412-34.89666,55.55438,34.89666-55.55438,34.89666Z"/><path class="cls-2" d="m416.99108,293.16551h44.20909c28.27182,0,51.36124,16.40564,51.36124,53.62321v7.95334c0,37.35605-21.78658,54.26044-50.69434,54.26044h-44.87599v-115.83698Zm24.69575,20.9781v73.6036h19.01481c15.91066,0,26.80285-10.5583,26.80285-33.78109v-6.01352c0-23.22279-11.19795-33.78108-27.63373-33.78108h-18.18393v-.02792Zm84.01347,1.13642h19.65067l3.07757,21.78172c3.74224-14.93688,13.33163-22.58556,30.71126-22.58556h6.01555v24.85795h-10.06132c-20.15144,0-25.03035,6.98333-25.03035,26.79753v42.89853h-24.36338v-93.75016Zm64.66626,48.88414v-2.60496c0-31.50869,20.14924-48.41308,47.45283-48.41308,27.93949,0,47.28666,17.20926,47.28666,48.41308v2.60496c0,30.87124-19.01484,47.27687-47.28666,47.27687-30.21276,0-47.45283-16.40563-47.45283-47.27687Zm70.04148-.33257v-2.27239c0-17.54183-8.78509-27.76755-22.58865-27.76755-13.63739,0-22.75708,9.58849-22.75708,27.76755v2.27239c0,16.90437,8.62115,26.32648,22.59091,26.32648,13.9963,0,22.75481-9.2557,22.75481-26.32648Zm37.53111-48.55157h20.48154l2.43947,17.87418c5.04501-12.02705,15.4387-19.98039,30.87746-19.98039,23.89368,0,39.49858,17.20926,39.49858,48.74564v2.60496c0,30.87124-17.37963,46.94432-39.49858,46.94432-14.938,0-24.86195-6.65075-29.90703-17.54161v47.27689h-23.89145v-125.924Zm68.57251,48.71795v-2.10621c0-18.67802-9.58939-27.93394-22.42255-27.93394-13.63739,0-22.75705,10.39212-22.75705,27.76778v1.8011c0,16.57204,8.78732,26.96393,22.25858,26.96393,13.9963,0,22.92102-9.2557,22.92102-26.49266Zm60.61822,27.96143l-1.9387,17.07078h-21.12187v-125.12038h23.89368v48.08051c5.21121-12.19323,15.6049-18.8442,30.37893-18.8442,22.25635.16618,38.83168,15.6018,38.83168,46.77814v2.77113c0,31.20381-15.6049,48.74564-39.49858,48.74564-15.4387,0-25.50005-7.45458-30.54513-19.48163Zm45.51416-29.26401v-2.27239c0-17.20926-9.42548-26.63135-22.42471-26.63135-13.49783,0-22.75488,10.89086-22.75488,26.96392v1.93982c0,17.54183,8.92472,27.62908,22.42248,27.62908,14.13593,0,22.75711-9.08953,22.75711-27.62908Zm35.42177,1.46877v-2.60496c0-31.50869,19.98524-48.41308,47.28659-48.41308,27.93952,0,47.4528,17.20926,47.4528,48.41308v2.60496c0,30.87124-19.17871,47.27687-47.4528,47.27687-30.2393,0-47.28659-16.40563-47.28659-47.27687Zm70.01707-.33257v-2.27239c0-17.54183-8.78732-27.76755-22.59084-27.76755-13.63739,0-22.75711,9.58849-22.75711,27.76755v2.27239c0,16.90437,8.62119,26.32648,22.59091,26.32648,14.1625,0,22.75705-9.2557,22.75705-26.32648Zm56.57029-3.40859l-32.81617-45.1709h28.10566l19.01257,28.10012,19.18101-28.10012h27.93945l-33.31687,45.00473,35.0916,48.74566h-27.63369l-21.62041-31.03765-20.95574,31.03765h-28.60419l35.61678-48.57949Z"/></g></svg>