<?xml version="1.0" encoding="UTF-8"?><svg id="PASTE_LOGO_HERE" xmlns="http://www.w3.org/2000/svg" viewBox="0 0 1250 703"><defs><style>.cls-1{stroke-width:0px;}</style></defs><path class="cls-1" d="m248.33861,391.16173h-14.31739c-3.53913,0-6.54203-1.23333-9.06231-3.75362-2.52028-2.52029-3.75362-5.52318-3.75362-9.06231v-23.96954c0-3.53913,1.23333-6.54202,3.69999-9.06231s5.52318-3.75362,9.11593-3.75362h12.2797c3.64637,0,6.64927,1.23333,9.11593,3.69999,2.46667,2.46667,3.69999,5.52319,3.69999,9.11593v1.66232h14.21013v-1.66232c0-4.87971-1.17972-9.43768-3.59276-13.56666s-5.68406-7.45361-9.81303-9.81304c-4.12899-2.41304-8.68696-3.59275-13.56665-3.59275h-12.2797c-4.87971,0-9.38405,1.17971-13.51304,3.59275s-7.39999,5.68406-9.81303,9.81304c-2.41304,4.12898-3.69999,8.68695-3.69999,13.56666v23.96954c0,4.87971,1.23333,9.43768,3.69999,13.56665s5.73768,7.45361,9.81303,9.92028c4.12899,2.46667,8.63333,3.69999,13.51304,3.69999h18.49998l22.14635-14.96085-7.98985-11.79709-18.39273,12.38695Z"/><path class="cls-1" d="m336.76319,330.99656c-4.12899-2.41304-8.68696-3.59275-13.56665-3.59275h-12.2797c-4.87971,0-9.43768,1.17971-13.56665,3.59275-4.12899,2.41304-7.45361,5.68406-9.81303,9.81304-2.41304,4.12898-3.59276,8.68695-3.59276,13.56666v24.23766c0,4.87971,1.17972,9.38405,3.59276,13.51304s5.68406,7.34638,9.81303,9.75942c4.12899,2.41304,8.68696,3.59276,13.56665,3.59276h17.10578l22.14635-14.96085h0v-36.142c0-4.87971-1.17972-9.43768-3.59276-13.56666s-5.68404-7.45361-9.81303-9.81304v-.00002Zm-34.9623,56.57242c-2.46667-2.41304-3.69999-5.36231-3.69999-8.90145v-24.23766c0-3.64638,1.23333-6.64927,3.69999-9.11593s5.52318-3.69999,9.11593-3.69999h12.2797c3.64637,0,6.64927,1.23333,9.11593,3.69999,2.46667,2.46667,3.69999,5.52319,3.69999,9.11593v28.58114l-12.33332,8.31159h-12.70869c-3.59276-.10725-6.64927-1.34058-9.11593-3.75362h-.05361Z"/><polygon class="cls-1" points="129.99234 298.28645 129.99234 405.53274 196.32417 405.53274 196.32417 391.32261 144.20248 391.32261 144.20248 356.25307 190.15751 356.25307 190.15751 342.09655 144.20248 342.09655 144.20248 312.49658 196.32417 312.49658 196.32417 298.28645 129.99234 298.28645"/><path class="cls-1" d="m413.65876,301.8792c-4.12899-2.41304-8.63331-3.59275-13.51304-3.59275h-39.25215v107.24629h44.13184l22.14635-14.96085v-65.25936c0-4.93333-1.23333-9.43768-3.70001-13.56666-2.46665-4.12898-5.73768-7.4-9.86667-9.81304l.05368-.05363Zm-38.60866,10.61738h25.09562c3.64637,0,6.64928,1.23333,9.11593,3.75362,2.46665,2.46667,3.70001,5.52319,3.70001,9.06231v57.6985l-12.11882,8.20433h-25.73911v-78.66515l-.05364-.05361Z"/><path class="cls-1" d="m489.91087,336.30526l-13.13767-8.90145h-11.90434c-4.87969,0-9.38405,1.17971-13.51304,3.59275s-7.39999,5.68406-9.81303,9.81304c-2.46665,4.12898-3.70001,8.68695-3.70001,13.56666v24.0768c0,4.87971,1.23333,9.38405,3.70001,13.51304,2.46665,4.12899,5.73768,7.39999,9.81303,9.81303,4.12899,2.46667,8.63331,3.69999,13.51304,3.69999h11.90434l13.13767-8.90145v8.90145h14.21013v-78.12892h-14.21013v8.95506Zm-17.58838,55.01735h-7.50724c-3.53911,0-6.54203-1.23333-9.06232-3.75362s-3.75362-5.52318-3.75362-9.06231v-24.07679c0-3.53913,1.23333-6.54202,3.75362-9.06231s5.52318-3.75362,9.06232-3.75362h7.50724l17.58838,11.85072v26.06085l-17.58838,11.85072v-.05364Z"/><path class="cls-1" d="m643.80933,336.30526l-13.13767-8.90145h-11.90431c-4.87969,0-9.38405,1.17971-13.51304,3.59275s-7.39999,5.68406-9.81303,9.81304c-2.46665,4.12898-3.70001,8.68695-3.70001,13.56666v24.0768c0,4.87971,1.23333,9.38405,3.70001,13.51304,2.46665,4.12899,5.73768,7.39999,9.81303,9.81303,4.12899,2.46667,8.63335,3.69999,13.51304,3.69999h11.90431l13.13767-8.90145v8.90145h14.21013v-78.12892h-14.21013v8.95506Zm-17.58842,55.01735h-7.50724c-3.53911,0-6.54203-1.23333-9.06232-3.75362-2.52029-2.52029-3.75362-5.52318-3.75362-9.06231v-24.07679c0-3.53913,1.23333-6.54202,3.75362-9.06231s5.52321-3.75362,9.06232-3.75362h7.50724l17.58842,11.85072v26.06085l-17.58842,11.85072v-.05364Z"/><path class="cls-1" d="m555.92098,391.32261h-14.10288c-3.64637,0-6.64928-1.23333-9.11593-3.69999s-3.70001-5.52318-3.70001-9.11593v-36.89272h44.13184v-14.21013h-44.13184v-19.62607h-14.21013v70.72892c0,4.87971,1.17972,9.43768,3.59276,13.56665,2.41304,4.12899,5.68404,7.45361,9.81303,9.81303,4.12899,2.41304,8.68696,3.59276,13.56665,3.59276h18.49998l22.14635-14.96085-7.98986-11.79709-18.60724,12.54781.10729.05363Z"/><path class="cls-1" d="m940.66703,391.32261h-14.10291c-3.6464,0-6.64928-1.23333-9.11593-3.69999s-3.70001-5.52318-3.70001-9.11593v-36.89272h44.13187v-14.21013h-44.13187v-19.62607h-14.21013v70.72892c0,4.87971,1.17968,9.43768,3.59272,13.56665,2.41304,4.12899,5.68404,7.45361,9.81306,9.81303,4.12896,2.41304,8.68692,3.59276,13.56668,3.59276h18.49998l22.14638-14.96085-7.98986-11.79709-18.6072,12.54781.10722.05363Z"/><path class="cls-1" d="m710.03391,391.16173h-14.31735c-3.4855,0-6.48839-1.28695-9.00871-3.80725-2.52026-2.52029-3.80723-5.52318-3.80723-9.00868v-53.03329c0-3.53913,1.23336-6.59565,3.70001-9.06231,2.46665-2.46667,5.52321-3.75362,9.11593-3.75362h12.27971c3.6464,0,6.64928,1.23333,9.11593,3.69999,2.46665,2.46667,3.70001,5.52319,3.70001,9.11593v8.41883h14.21013v-8.41883c0-4.87971-1.17968-9.38405-3.59272-13.56666-2.41304-4.18261-5.68404-7.45361-9.86667-9.86666s-8.68692-3.59275-13.56668-3.59275h-12.27971c-4.87969,0-9.38405,1.17971-13.51301,3.59275s-7.40002,5.68406-9.86667,9.81304c-2.46665,4.12898-3.70001,8.68695-3.70001,13.56666v53.03329c0,4.87971,1.23336,9.38405,3.6464,13.56665,2.46665,4.1826,5.73765,7.50724,9.86667,9.92028,4.12896,2.46667,8.63331,3.64637,13.51301,3.64637h18.49998l22.14638-14.96085-7.98986-11.79709-18.39276,12.38695.10722.10724Z"/><path class="cls-1" d="m875.35402,330.99656c-4.12896-2.41304-8.63331-3.59275-13.51301-3.59275h-11.90431l-13.13767,8.90145v-8.90145h-14.21013v78.12893h14.21013v-52.06808l17.58842-11.85072h7.50724c3.53911,0,6.542,1.23333,9.06232,3.75362,2.52026,2.52029,3.75362,5.52319,3.75362,9.06231v51.10287h14.21013v-51.10286c0-4.87971-1.23336-9.43768-3.70001-13.56666s-5.73765-7.45361-9.81306-9.81304l-.05368-.05363Z"/><path class="cls-1" d="m1116.01471,340.86323c-2.46665-4.12898-5.73765-7.45361-9.81306-9.81304-4.12896-2.41304-8.63331-3.59275-13.51301-3.59275h-6.11305l-18.98261,12.76231v-12.76231h-14.21013v78.12891h14.21013v-48.26083l23.37968-15.65796h1.71591c3.53911,0,6.542,1.23333,9.06232,3.75362,2.52026,2.52029,3.75362,5.52319,3.75362,9.06231v6.00579h14.21013v-6.00579c0-4.87971-1.23336-9.43768-3.70001-13.56666l.00007-.05361Z"/><path class="cls-1" d="m813.31207,390.57187l-7.98986-11.79709-18.39276,12.38695h-14.31735c-3.4855,0-6.48839-1.28695-9.00871-3.80725s-3.80723-5.52318-3.80723-9.00868v-8.95507h52.06806v-15.01448c0-4.87971-1.17968-9.38405-3.59272-13.56666s-5.68404-7.45361-9.86667-9.86666c-4.18263-2.41304-8.68692-3.59275-13.56668-3.59275h-12.27971c-4.87969,0-9.38405,1.17971-13.51301,3.59275-4.12896,2.41304-7.40002,5.68406-9.86667,9.81304s-3.70001,8.68695-3.70001,13.56666v23.96954c0,4.87971,1.23336,9.38405,3.6464,13.56665,2.46665,4.1826,5.73765,7.50724,9.86667,9.92028,4.12896,2.46667,8.63331,3.64637,13.51301,3.64637h18.49998l22.14638-14.96085.1609.10725Zm-49.81591-45.2043c2.46665-2.46667,5.52321-3.75362,9.11593-3.75362h12.27971c3.6464,0,6.64928,1.23333,9.11593,3.69999,2.46665,2.46667,3.70001,5.52319,3.70001,9.11593v3.59276h-37.91154v-3.59275c0-3.53913,1.23336-6.59565,3.70001-9.06231h-.00007Z"/><path class="cls-1" d="m1044.1597,390.57187l-7.98986-11.79709-18.39276,12.38695h-14.31735c-3.4855,0-6.48839-1.28695-9.00871-3.80725s-3.80723-5.52318-3.80723-9.00868v-8.95507h52.06806v-15.01448c0-4.87971-1.17968-9.38405-3.59272-13.56666s-5.68404-7.45361-9.86667-9.86666c-4.18263-2.41304-8.68692-3.59275-13.56668-3.59275h-12.27971c-4.87969,0-9.38405,1.17971-13.51301,3.59275s-7.40002,5.68406-9.86667,9.81304c-2.46665,4.12898-3.70001,8.68695-3.70001,13.56666v23.96954c0,4.87971,1.23336,9.38405,3.6464,13.56665,2.46665,4.1826,5.73765,7.50724,9.86667,9.92028,4.12896,2.46667,8.63331,3.64637,13.51301,3.64637h18.49998l22.14638-14.96085.1609.10725Zm-49.81591-45.2043c2.46665-2.46667,5.52321-3.75362,9.11593-3.75362h12.27971c3.6464,0,6.64928,1.23333,9.11593,3.69999,2.46665,2.46667,3.70001,5.52319,3.70001,9.11593v3.59276h-37.91154v-3.59275c0-3.53913,1.23336-6.59565,3.70001-9.06231h-.00007Z"/></svg>