<?xml version="1.0" encoding="UTF-8"?>
<svg id="Layer_1" data-name="Layer 1" xmlns="http://www.w3.org/2000/svg" version="1.1" viewBox="0 0 850 378">
  <defs>
    <style>
      .cls-1 {
        fill: #76b900;
      }

      .cls-1, .cls-2, .cls-3 {
        stroke-width: 0px;
      }

      .cls-2 {
        fill: gray;
      }

      .cls-3 {
        fill: #fff;
      }
    </style>
  </defs>
  <rect class="cls-1" x="76.2" y="173.9" width="697.6" height="108.2"/>
  <path class="cls-3" d="M298.6,209.3c-3.4,0-5.6-1.2-6.6-3.7l2.3-1.2c.4.8.9,1.5,1.6,1.9.7.4,1.6.6,2.7.6h.3c1.2,0,2-.2,2.7-.6s.9-1,.9-1.8v-.3c0-.7-.2-1.2-.6-1.6-.4-.4-1-.7-1.9-.8l-2.8-.4c-3.1-.4-4.6-1.9-4.6-4.6v-.3c0-.9.3-1.8.8-2.5.5-.7,1.2-1.2,2.1-1.6s2-.6,3.2-.6h.3c1.5,0,2.8.3,3.8.9,1,.6,1.8,1.5,2.2,2.6l-2.4,1c-.5-1.5-1.8-2.2-3.7-2.2h-.3c-1,0-1.8.2-2.4.6-.6.4-.9,1-.9,1.7v.3c0,1.2.8,1.9,2.4,2.2l2.8.4c1.6.2,2.7.7,3.5,1.6.8.8,1.2,1.9,1.2,3.3v.3c0,1.5-.5,2.7-1.6,3.6-1.1.8-2.6,1.3-4.6,1.3h-.3Z"/>
  <path class="cls-3" d="M307.4,213.8v-2.2h.8c.7,0,1.3-.1,1.6-.4.4-.3.7-.8,1-1.6l.2-.5-4.8-12.3h2.8l3.4,9.5,3.1-9.5h2.7l-4.7,12.8c-.4,1.2-.8,2.1-1.3,2.7-.4.6-1,1.1-1.6,1.3-.6.2-1.4.3-2.3.3h-.9Z"/>
  <path class="cls-3" d="M324.5,209.3c-2.8,0-4.6-.9-5.3-2.8l2.1-1.1c.3.6.7,1,1.2,1.3s1.2.4,2.1.4h.3c1.6,0,2.5-.5,2.5-1.5h0c0-.9-.5-1.4-1.6-1.6l-2.6-.4c-1.1-.2-2-.5-2.6-1.1-.6-.6-.9-1.4-.9-2.3v-.3c0-1.1.4-2,1.3-2.7.9-.7,2-1,3.5-1h.3c1.2,0,2.2.2,3.1.7.8.5,1.4,1.1,1.8,2l-2.1.9c-.4-1-1.4-1.5-2.8-1.5h-.3c-.7,0-1.3.1-1.6.4-.4.3-.6.6-.6,1.1h0c0,.5.1.8.3,1,.2.2.6.4,1.2.4l2.7.4c1.1.2,2,.6,2.6,1.2.6.6.9,1.4.9,2.4v.3c0,1.2-.4,2.1-1.3,2.7-.8.6-2.1.9-3.7.9h-.3Z"/>
  <path class="cls-3" d="M338,209.1c-1.6,0-2.7-.3-3.3-1-.7-.7-1-1.7-1-3v-6.2h-2.6v-2.2h2.6v-3.6h2.6v3.6h4l-.3,2.2h-3.7v6.1c0,.7.2,1.2.5,1.5.3.3.8.4,1.4.4h2.1v2.2h-2.4Z"/>
  <path class="cls-3" d="M348,209.3c-1.8,0-3.2-.5-4.2-1.6-1-1-1.5-2.5-1.5-4.5v-.8c0-1.9.5-3.4,1.5-4.5,1-1.1,2.4-1.6,4.2-1.6h.2c1.7,0,3,.5,4,1.6s1.5,2.4,1.5,4.2v1.5h-8.7c0,1.2.3,2.1.9,2.7.5.6,1.3.9,2.2.9h.4c.7,0,1.3-.1,1.8-.4.5-.2.9-.6,1.1-1.1l1.9,1.2c-.4.7-1.1,1.3-1.9,1.7-.8.4-1.8.6-3,.6h-.4ZM344.9,201.8h6.1v-.2c0-1-.3-1.7-.8-2.3-.5-.5-1.2-.8-2.1-.8h-.2c-.9,0-1.6.3-2.1.8-.5.5-.9,1.3-.9,2.4Z"/>
  <path class="cls-3" d="M356.4,209v-12.3h2.3v1.8c.4-.7.9-1.2,1.5-1.6.6-.4,1.3-.6,2.2-.6h.2c1.9,0,3.1.8,3.8,2.3.4-.7.9-1.3,1.6-1.7.7-.4,1.4-.6,2.3-.6h.2c1.3,0,2.4.4,3.2,1.3.8.9,1.2,2.1,1.2,3.7v7.6h-2.6v-7.2c0-1-.2-1.8-.6-2.3-.4-.5-1-.8-1.8-.8h-.2c-.4,0-.9.1-1.3.4-.4.3-.8.6-1,1.2-.3.5-.4,1.2-.4,2v6.8h-2.6v-7.2c0-1-.2-1.8-.6-2.3-.4-.5-1-.8-1.8-.8h-.2c-.4,0-.9.1-1.3.4-.4.3-.8.6-1,1.2s-.4,1.2-.4,2v6.8h-2.6Z"/>
  <path class="cls-3" d="M378.6,203.2v-2.5h7.1v2.5h-7.1Z"/>
  <path class="cls-3" d="M389.1,209v-16.8h2.8v14.4h7.7v2.4h-10.5Z"/>
  <path class="cls-3" d="M407,209.3c-1.8,0-3.2-.5-4.2-1.6-1-1-1.5-2.5-1.5-4.5v-.8c0-1.9.5-3.4,1.5-4.5,1-1.1,2.4-1.6,4.2-1.6h.2c1.7,0,3,.5,4,1.6s1.5,2.4,1.5,4.2v1.5h-8.7c0,1.2.3,2.1.9,2.7.5.6,1.3.9,2.2.9h.4c.7,0,1.3-.1,1.8-.4.5-.2.9-.6,1.1-1.1l1.9,1.2c-.4.7-1.1,1.3-1.9,1.7-.8.4-1.8.6-3,.6h-.4ZM403.9,201.8h6.1v-.2c0-1-.3-1.7-.8-2.3-.5-.5-1.2-.8-2.1-.8h-.2c-.9,0-1.6.3-2.1.8-.5.5-.9,1.3-.9,2.4Z"/>
  <path class="cls-3" d="M418.5,209l-4.8-12.3h2.8l3.2,9.1,3.2-9.1h2.6l-4.7,12.3h-2.3Z"/>
  <path class="cls-3" d="M432.1,209.3c-1.8,0-3.2-.5-4.2-1.6-1-1-1.5-2.5-1.5-4.5v-.8c0-1.9.5-3.4,1.5-4.5,1-1.1,2.4-1.6,4.2-1.6h.2c1.7,0,3,.5,4,1.6,1,1,1.5,2.4,1.5,4.2v1.5h-8.7c0,1.2.3,2.1.9,2.7.5.6,1.3.9,2.2.9h.4c.7,0,1.3-.1,1.8-.4s.9-.6,1.1-1.1l1.9,1.2c-.4.7-1.1,1.3-1.9,1.7s-1.8.6-3,.6h-.4ZM429.1,201.8h6.1v-.2c0-1-.3-1.7-.8-2.3-.5-.5-1.2-.8-2.1-.8h-.2c-.9,0-1.6.3-2.1.8-.5.5-.9,1.3-.9,2.4Z"/>
  <path class="cls-3" d="M440.5,209v-17.5h2.6v17.5h-2.6Z"/>
  <path class="cls-3" d="M456.7,209v-14.4h-5.2v-2.4h13.2v2.4h-5.2v14.4h-2.8Z"/>
  <path class="cls-3" d="M470.7,209.3c-1.1,0-2.1-.2-3-.7-.9-.5-1.6-1.2-2.1-2.1s-.8-2-.8-3.3v-.8c0-1.3.3-2.4.8-3.3.5-.9,1.2-1.6,2.1-2.1s1.9-.7,3-.7h.2c1.1,0,2.1.2,3,.7s1.6,1.2,2.1,2.1c.5.9.8,2,.8,3.3v.8c0,1.3-.3,2.4-.8,3.3-.5.9-1.2,1.6-2.1,2.1-.9.5-1.9.7-3,.7h-.2ZM470.7,207.1h.2c.9,0,1.7-.3,2.3-.9s.9-1.6.9-2.8v-.9c0-1.3-.3-2.2-.9-2.8-.6-.6-1.4-.9-2.3-.9h-.2c-.9,0-1.6.3-2.3.9-.6.6-.9,1.6-.9,2.8v.9c0,1.3.3,2.2.9,2.8s1.4.9,2.3.9Z"/>
  <path class="cls-3" d="M484.7,209.3c-1.1,0-2.1-.2-3-.7-.9-.5-1.6-1.2-2.1-2.1s-.8-2-.8-3.3v-.8c0-1.3.3-2.4.8-3.3.5-.9,1.2-1.6,2.1-2.1s1.9-.7,3-.7h.2c1.1,0,2.1.2,3,.7s1.6,1.2,2.1,2.1c.5.9.8,2,.8,3.3v.8c0,1.3-.3,2.4-.8,3.3-.5.9-1.2,1.6-2.1,2.1-.9.5-1.9.7-3,.7h-.2ZM484.7,207.1h.2c.9,0,1.7-.3,2.3-.9s.9-1.6.9-2.8v-.9c0-1.3-.3-2.2-.9-2.8-.6-.6-1.4-.9-2.3-.9h-.2c-.9,0-1.6.3-2.3.9-.6.6-.9,1.6-.9,2.8v.9c0,1.3.3,2.2.9,2.8s1.4.9,2.3.9Z"/>
  <path class="cls-3" d="M493.5,209v-17.5h2.6v17.5h-2.6Z"/>
  <path class="cls-3" d="M504.8,209.3c-1.8,0-3.2-.5-4.3-1.6-1-1-1.6-2.5-1.6-4.5v-.8c0-1.3.2-2.4.7-3.3.5-.9,1.2-1.6,2.1-2.1s1.9-.7,3.1-.7h.2c1.1,0,2.1.3,2.9.8.8.5,1.4,1.3,1.7,2.2l-2.1.9c-.2-.5-.6-.9-1-1.2-.4-.3-.9-.4-1.5-.4h-.2c-.9,0-1.7.3-2.3.9-.6.6-.9,1.6-.9,2.8v.9c0,1.3.3,2.2.9,2.9.6.6,1.4.9,2.3.9h.2c.6,0,1.2-.1,1.6-.4.4-.3.8-.7,1-1.1l2.1,1.1c-.4.8-.9,1.5-1.8,2-.8.5-1.8.8-2.9.8h-.2Z"/>
  <path class="cls-3" d="M512.4,209v-17.5h2.6v6.7c.4-.5.9-1,1.5-1.3.6-.3,1.3-.5,2.1-.5h.2c1.4,0,2.5.4,3.3,1.3.8.9,1.2,2.1,1.2,3.7v7.6h-2.6v-7.2c0-1-.2-1.8-.6-2.3-.4-.5-1.1-.8-2-.8h-.2c-.5,0-1,.1-1.5.4-.5.3-.8.6-1.1,1.2s-.4,1.2-.4,2v6.8h-2.6Z"/>
  <path class="cls-3" d="M530.2,209.3c-1.3,0-2.3-.3-3.1-1-.7-.6-1.1-1.6-1.1-2.7s.3-1.8.9-2.5c.6-.6,1.6-1,2.8-1.2l4.3-.6h0c0-1.9-.8-2.8-2.5-2.8h-.3c-.7,0-1.3.1-1.7.4-.5.2-.8.7-1.1,1.3l-2-1.1c.4-.8,1-1.5,1.8-2,.8-.5,1.9-.7,3.1-.7h.4c1.6,0,2.9.4,3.7,1.2.8.8,1.3,2,1.3,3.6v7.8h-2.3v-1.9c-.4.7-.9,1.2-1.6,1.6-.7.4-1.5.6-2.5.6h-.2ZM534.1,203.2l-3.3.5c-.8.1-1.4.3-1.7.6-.3.3-.5.7-.5,1.2s.2,1,.6,1.3.9.5,1.6.5h.2c.9,0,1.7-.3,2.3-.9.6-.6.8-1.4.8-2.3v-.8Z"/>
  <path class="cls-3" d="M540,194.5v-2.8h2.7v2.8h-2.7ZM540.1,209v-12.3h2.6v12.3h-2.6Z"/>
  <path class="cls-3" d="M546.2,209v-12.3h2.3v1.9c.4-.7.9-1.2,1.6-1.6.7-.4,1.5-.6,2.4-.6h.2c1.4,0,2.5.4,3.3,1.3.8.9,1.2,2.1,1.2,3.7v7.6h-2.6v-7.2c0-1-.2-1.8-.6-2.3-.4-.5-1.1-.8-2-.8h-.2c-.5,0-1,.1-1.5.4-.5.3-.8.6-1.1,1.2s-.4,1.2-.4,2v6.8h-2.6Z"/>
  <path class="cls-3" d="M745,263.7H105v-40.7h639.9v40.7ZM106,262.7h637.9v-38.7H106v38.7Z"/>
  <path class="cls-3" d="M393.4,251.4v-14h2l7.1,10.2v-10.2h2.2v14h-2l-7.1-10.2v10.2h-2.2Z"/>
  <path class="cls-3" d="M412.1,251.4l-5.3-14h2.5l3.9,11.1,3.9-11.1h2.4l-5.3,14h-2Z"/>
  <path class="cls-3" d="M426.6,251.6c-1.3,0-2.5-.3-3.4-.8s-1.7-1.4-2.2-2.4-.8-2.2-.8-3.6v-.8c0-1.4.3-2.6.8-3.6.5-1,1.2-1.8,2.2-2.4s2.1-.8,3.4-.8h.2c1.3,0,2.5.3,3.4.8.9.6,1.7,1.4,2.2,2.4.5,1,.7,2.2.7,3.6v.8c0,2.1-.5,3.8-1.6,5l1.8,1.9-1.5,1.3-1.9-2.1c-.9.4-1.9.7-3.1.7h-.2ZM426.7,249.6h.2c.6,0,1.1,0,1.6-.3l-1.9-2,1.5-1.4,2,2.2c.6-.8.9-1.9.9-3.3v-1c0-1.5-.4-2.7-1.1-3.5-.7-.8-1.7-1.2-3-1.2h-.2c-1.3,0-2.2.4-3,1.2-.7.8-1.1,2-1.1,3.5v1c0,1.5.4,2.7,1.1,3.5.7.8,1.7,1.2,3,1.2Z"/>
  <path class="cls-3" d="M435.9,245.5v-1.9h3.5v-3.5h2v3.5h3.5v1.9h-3.5v3.5h-2v-3.5h-3.5Z"/>
  <path class="cls-3" d="M447.9,245.5v-1.9h3.5v-3.5h2v3.5h3.5v1.9h-3.5v3.5h-2v-3.5h-3.5Z"/>
  <rect class="cls-1" x="76.2" y="87.5" width="697.6" height="70.6"/>
  <path class="cls-3" d="M386.8,124c-2.4,0-4.3-.7-5.5-2.2-1.3-1.4-1.9-3.5-1.9-6.1v-1c0-1.7.3-3.1.9-4.4.6-1.2,1.4-2.2,2.6-2.8,1.1-.7,2.4-1,4-1h.2c1.6,0,3,.4,4.1,1.1,1.1.7,1.9,1.8,2.3,3.1l-2.5.9c-.3-.9-.7-1.6-1.4-2-.7-.4-1.5-.7-2.4-.7h-.2c-1.5,0-2.6.5-3.5,1.5-.8,1-1.2,2.4-1.2,4.3v1.1c0,1.9.4,3.4,1.2,4.3s2,1.4,3.5,1.4h.2c1,0,1.8-.2,2.5-.6.7-.4,1.2-1.1,1.4-1.9l2.5,1c-.5,1.3-1.3,2.3-2.4,3-1.1.7-2.5,1.1-4.1,1.1h-.2Z"/>
  <path class="cls-3" d="M409.5,106.9v10.2c0,2.2-.6,3.9-1.7,5.1-1.1,1.2-2.8,1.8-4.9,1.8h-.3c-2.1,0-3.8-.6-4.9-1.8-1.1-1.2-1.7-2.9-1.7-5.1v-10.2h2.8v10.3c0,1.5.3,2.6,1,3.4.7.7,1.6,1.1,2.9,1.1h.2c1.2,0,2.2-.4,2.9-1.1.7-.7,1-1.8,1-3.4v-10.3s2.7,0,2.7,0Z"/>
  <path class="cls-3" d="M413.3,123.7v-16.8h6.4c1.7,0,3.1.3,4.2,1,1.1.6,2,1.5,2.6,2.7.6,1.2.9,2.6.9,4.2v1c0,2.5-.7,4.4-2,5.8-1.3,1.4-3.2,2.1-5.7,2.1,0,0-6.4,0-6.4,0ZM416.1,121.3h3.6c1.6,0,2.9-.5,3.7-1.4.9-.9,1.3-2.3,1.3-4.1v-1.1c0-1.8-.4-3.1-1.3-4.1-.9-.9-2.1-1.4-3.7-1.4h-3.6s0,12.1,0,12.1Z"/>
  <path class="cls-3" d="M428.4,123.7l6.6-16.8h2.5l6.6,16.8h-3l-1.4-3.8h-7.1l-1.4,3.8h-2.8ZM433.5,117.6h5.4l-2.7-7.2-2.7,7.2Z"/>
  <path class="cls-3" d="M445.5,117.9v-2.5h7.1v2.5h-7.1Z"/>
  <path class="cls-3" d="M462.8,124c-1.6,0-2.9-.3-4.1-1-1.1-.7-2-1.6-2.6-2.9-.6-1.2-.9-2.7-.9-4.3v-1c0-1.7.3-3.1.9-4.3s1.5-2.2,2.6-2.9c1.1-.7,2.5-1,4.1-1h.3c1.6,0,3,.3,4.1,1,1.1.7,2,1.6,2.6,2.9s.9,2.7.9,4.3v1c0,2.5-.7,4.5-2,6l2.1,2.3-1.8,1.6-2.3-2.5c-1.1.5-2.3.8-3.7.8,0,0-.3,0-.3,0ZM462.8,121.6h.2c.7,0,1.3-.1,1.9-.3l-2.3-2.5,1.8-1.6,2.4,2.6c.7-1,1-2.3,1-3.9v-1.2c0-1.8-.4-3.3-1.3-4.3-.9-1-2-1.5-3.5-1.5h-.2c-1.5,0-2.7.5-3.5,1.5-.9,1-1.3,2.4-1.3,4.3v1.2c0,1.8.4,3.3,1.3,4.3.9,1,2,1.5,3.5,1.5Z"/>
  <path class="cls-3" d="M241.1,144v-9.2h-3.3v-1h7.8v1h-3.3v9.2h-1.2Z"/>
  <path class="cls-3" d="M247.1,144v-10.7h1.2v4.4c.2-.4.5-.7.9-1,.4-.2.9-.4,1.5-.4h.1c.9,0,1.5.3,2,.8.5.5.8,1.3.8,2.3v4.6h-1.2v-4.4c0-.7-.2-1.3-.5-1.7-.3-.4-.8-.6-1.4-.6h-.1c-.4,0-.8,0-1.1.3-.3.2-.6.5-.8.9-.2.4-.3.8-.3,1.4v4.1h-1.2Z"/>
  <path class="cls-3" d="M258.8,144.1c-1,0-1.8-.3-2.4-1-.6-.6-.9-1.5-.9-2.7v-.5c0-.8.1-1.4.4-1.9.3-.5.7-1,1.2-1.3.5-.3,1.1-.4,1.8-.4h.1c.7,0,1.2.1,1.7.4s.8.7,1.1,1.2c.3.5.4,1.1.4,1.8v.9h-5.5c0,.9.2,1.5.6,2,.4.4.9.6,1.6.6h.2c.5,0,.9,0,1.2-.3.3-.2.6-.4.7-.8l.9.5c-.3.5-.6.8-1.1,1.1s-1.1.4-1.7.4h-.2ZM256.6,139.7h4.3v-.2c0-.7-.2-1.3-.6-1.6-.4-.4-.9-.6-1.5-.6h-.1c-.6,0-1.1.2-1.5.6s-.6,1-.7,1.8Z"/>
  <path class="cls-3" d="M268,144v-10.3h3.6c1.2,0,2.1.3,2.7.8.6.5,1,1.3,1,2.2v.4c0,1-.3,1.7-1,2.2-.7.5-1.5.8-2.7.8h-2.4v3.9h-1.2ZM269.2,139h2.4c.8,0,1.4-.2,1.8-.5.4-.3.6-.8.6-1.5v-.4c0-.7-.2-1.1-.6-1.5-.4-.3-1-.5-1.8-.5h-2.4v4.3Z"/>
  <path class="cls-3" d="M276.8,144v-10.7h1.2v10.7h-1.2Z"/>
  <path class="cls-3" d="M282.3,144.1c-.8,0-1.4-.2-1.8-.6s-.6-.9-.6-1.6.2-1.1.6-1.4c.4-.4.9-.6,1.6-.7l2.9-.4h0c0-1.4-.6-2.1-1.8-2.1h-.2c-.9,0-1.6.4-1.9,1.1l-.9-.5c.2-.5.6-.9,1.1-1.2.5-.3,1.1-.4,1.8-.4h.2c.9,0,1.7.2,2.2.7s.7,1.2.7,2.2v4.7h-1.1v-1.3c-.2.5-.6.8-1,1.1s-1,.4-1.6.4h-.1ZM284.9,140.3l-2.4.4c-.6,0-1,.2-1.2.4-.2.2-.3.5-.3.9s.1.7.4,1c.3.2.7.3,1.2.3h.1c.7,0,1.2-.2,1.6-.6.4-.4.6-1,.6-1.7v-.5Z"/>
  <path class="cls-3" d="M291.2,144c-.9,0-1.5-.2-1.8-.6-.4-.4-.5-.9-.5-1.6v-4.3h-1.6v-1h1.6v-2.3h1.2v2.3h2.6l-.2,1h-2.4v4.2c0,.5.1.8.3,1,.2.2.5.3,1,.3h1.3v1h-1.4Z"/>
  <path class="cls-3" d="M295.1,144v-6.5h-1.6v-1h1.6v-.7c0-.8.2-1.4.6-1.9.4-.5,1.1-.7,2-.7h1.2v1h-1.2c-.5,0-.8.1-1.1.4-.2.3-.3.6-.3,1.1v.8h2.6v1h-2.6v6.5h-1.2Z"/>
  <path class="cls-3" d="M303.1,144.1c-.6,0-1.2-.1-1.7-.4-.5-.3-.9-.7-1.2-1.3-.3-.5-.4-1.2-.4-2v-.5c0-.8.1-1.4.4-2,.3-.5.7-1,1.2-1.3.5-.3,1.1-.4,1.7-.4h.1c.7,0,1.2.1,1.8.4s.9.7,1.2,1.2c.3.5.4,1.2.4,2v.5c0,.8-.1,1.4-.4,2-.3.5-.7,1-1.2,1.2s-1.1.4-1.8.4h-.1ZM303.1,143.1h.1c.6,0,1.2-.2,1.6-.7s.7-1.1.7-2v-.5c0-.9-.2-1.5-.7-2s-1-.7-1.6-.7h-.1c-.6,0-1.2.2-1.6.7s-.7,1.1-.7,2v.5c0,.9.2,1.5.7,2s1,.7,1.6.7Z"/>
  <path class="cls-3" d="M308.6,144v-7.5h1.1v1.6c.2-.5.4-.9.8-1.2.4-.3.9-.4,1.6-.4h.7v1.1h-.7c-.6,0-1.2.2-1.6.7s-.6,1.1-.6,2v3.8h-1.2Z"/>
  <path class="cls-3" d="M314.3,144v-7.5h1.1v1.3c.2-.5.5-.8.9-1.1s.8-.4,1.4-.4h.1c1.2,0,2,.5,2.4,1.6.2-.5.5-.9.9-1.2s.9-.4,1.5-.4h.1c.8,0,1.5.3,1.9.8.5.5.7,1.3.7,2.3v4.6h-1.2v-4.4c0-.7-.1-1.3-.4-1.7-.3-.4-.7-.6-1.3-.6h-.1c-.3,0-.7,0-1,.3s-.5.5-.7.9c-.2.4-.3.8-.3,1.4v4.1h-1.2v-4.4c0-.7-.1-1.3-.4-1.7-.3-.4-.7-.6-1.3-.6h-.1c-.3,0-.6,0-.9.3-.3.2-.5.5-.7.9-.2.4-.3.8-.3,1.4v4.1h-1.2Z"/>
  <path class="cls-3" d="M332.3,144v-6.5h-1.6v-1h1.6v-.7c0-.8.2-1.4.6-1.9.4-.5,1.1-.7,2-.7h1.2v1h-1.2c-.5,0-.8.1-1.1.4-.2.3-.3.6-.3,1.1v.8h2.6v1h-2.6v6.5h-1.2Z"/>
  <path class="cls-3" d="M340.3,144.1c-.6,0-1.2-.1-1.7-.4-.5-.3-.9-.7-1.2-1.3-.3-.5-.4-1.2-.4-2v-.5c0-.8.1-1.4.4-2,.3-.5.7-1,1.2-1.3.5-.3,1.1-.4,1.7-.4h.1c.7,0,1.2.1,1.8.4s.9.7,1.2,1.2c.3.5.4,1.2.4,2v.5c0,.8-.1,1.4-.4,2-.3.5-.7,1-1.2,1.2s-1.1.4-1.8.4h-.1ZM340.3,143.1h.1c.6,0,1.2-.2,1.6-.7s.7-1.1.7-2v-.5c0-.9-.2-1.5-.7-2s-1-.7-1.6-.7h-.1c-.6,0-1.2.2-1.6.7s-.7,1.1-.7,2v.5c0,.9.2,1.5.7,2s1,.7,1.6.7Z"/>
  <path class="cls-3" d="M345.8,144v-7.5h1.1v1.6c.2-.5.4-.9.8-1.2.4-.3.9-.4,1.6-.4h.7v1.1h-.7c-.6,0-1.2.2-1.6.7s-.6,1.1-.6,2v3.8h-1.2Z"/>
  <path class="cls-3" d="M355.6,144v-10.3h1.2v4.5h5.7v-4.5h1.2v10.3h-1.2v-4.7h-5.7v4.7h-1.2Z"/>
  <path class="cls-3" d="M366,146.9v-1h.4c.5,0,.8-.1,1-.3s.5-.6.7-1.2l.2-.4-3-7.5h1.2l2.3,6.2,2.2-6.2h1.2l-3,8c-.2.6-.5,1.1-.7,1.5s-.5.6-.9.7c-.3.1-.7.2-1.2.2h-.5Z"/>
  <path class="cls-3" d="M377.4,144.1c-.6,0-1.1-.1-1.5-.4s-.8-.6-1-1.1v1.3h-1.1v-10.7h1.2v4.4c.2-.4.5-.7,1-1,.4-.2.9-.4,1.5-.4h.1c.6,0,1.2.1,1.7.4.5.3.9.7,1.1,1.2.3.5.4,1.2.4,2v.5c0,.8-.1,1.4-.4,2-.3.5-.7,1-1.1,1.2s-1,.4-1.7.4h-.1ZM377.2,143.1h.1c.6,0,1.2-.2,1.6-.6s.6-1.1.6-2v-.5c0-.9-.2-1.6-.6-2s-1-.6-1.6-.6h-.1c-.4,0-.8,0-1.1.3-.3.2-.6.5-.8.9s-.3.9-.3,1.5v.5c0,.9.2,1.6.6,2s.9.6,1.6.6Z"/>
  <path class="cls-3" d="M382.6,144v-7.5h1.1v1.6c.2-.5.4-.9.8-1.2.4-.3.9-.4,1.6-.4h.7v1.1h-.7c-.6,0-1.2.2-1.6.7s-.6,1.1-.6,2v3.8h-1.2Z"/>
  <path class="cls-3" d="M388.4,134.9v-1.3h1.2v1.3h-1.2ZM388.5,144v-7.5h1.2v7.5h-1.2Z"/>
  <path class="cls-3" d="M394.8,144.1c-.6,0-1.2-.1-1.7-.4s-.9-.7-1.1-1.2c-.3-.5-.4-1.2-.4-2v-.5c0-.8.1-1.4.4-2,.3-.5.7-1,1.1-1.2.5-.3,1-.4,1.7-.4h0c.6,0,1.1.1,1.5.4.4.2.7.6,1,1v-4.4h1.2v10.7h-1.1v-1.3c-.2.4-.6.8-1,1.1s-.9.4-1.6.4h0ZM395,143.1h.1c.4,0,.8,0,1.1-.3.3-.2.6-.5.8-.9.2-.4.3-.9.3-1.5v-.5c0-.6-.1-1.1-.3-1.5-.2-.4-.5-.7-.8-.9-.3-.2-.7-.3-1.1-.3h-.1c-.6,0-1.2.2-1.6.6s-.6,1.1-.6,2v.5c0,.9.2,1.6.6,2s1,.6,1.6.6Z"/>
  <path class="cls-3" d="M408.9,144.1c-.9,0-1.8-.2-2.4-.6s-1.2-1-1.5-1.7c-.4-.7-.5-1.6-.5-2.6v-.6c0-1,.2-1.9.5-2.6.4-.7.9-1.3,1.5-1.8s1.5-.6,2.4-.6h.2c.9,0,1.8.2,2.4.6s1.2,1,1.5,1.8c.4.7.5,1.6.5,2.6v.6c0,1.6-.4,2.9-1.3,3.8l1.3,1.4-.8.7-1.4-1.5c-.7.4-1.5.6-2.3.6h-.2ZM408.9,143.1h.2c.6,0,1.1-.1,1.6-.4l-1.6-1.7.8-.7,1.6,1.8c.6-.7.9-1.7.9-2.9v-.7c0-1.2-.3-2.2-.9-2.8-.6-.7-1.4-1-2.4-1h-.2c-1,0-1.8.3-2.4,1-.6.7-.9,1.6-.9,2.8v.7c0,1.2.3,2.2.9,2.8.6.7,1.4,1,2.4,1Z"/>
  <path class="cls-3" d="M418.3,144.1c-.8,0-1.5-.3-2-.8-.5-.5-.7-1.3-.7-2.3v-4.6h1.2v4.4c0,.7.2,1.3.5,1.7.3.4.8.6,1.3.6h.1c.4,0,.7,0,1-.3.3-.2.6-.5.8-.9.2-.4.3-.8.3-1.4v-4.1h1.2v7.5h-1.1v-1.3c-.2.5-.5.8-.9,1.1s-.9.4-1.5.4h-.1Z"/>
  <path class="cls-3" d="M426.2,144.1c-.8,0-1.4-.2-1.9-.6s-.6-.9-.6-1.6.2-1.1.6-1.4c.4-.4.9-.6,1.6-.7l2.9-.4h0c0-1.4-.6-2.1-1.8-2.1h-.2c-.9,0-1.6.4-1.9,1.1l-.9-.5c.2-.5.6-.9,1.1-1.2.5-.3,1.1-.4,1.8-.4h.2c.9,0,1.7.2,2.2.7s.7,1.2.7,2.2v4.7h-1.1v-1.3c-.2.5-.6.8-1,1.1-.5.3-1,.4-1.6.4h-.1ZM428.8,140.3l-2.4.4c-.6,0-1,.2-1.2.4-.2.2-.3.5-.3.9s.1.7.4,1c.3.2.7.3,1.2.3h.1c.7,0,1.2-.2,1.6-.6.4-.4.6-1,.6-1.7v-.5Z"/>
  <path class="cls-3" d="M432.2,144v-7.5h1.1v1.3c.2-.5.5-.8.9-1.1.4-.3.9-.4,1.6-.4h.1c.9,0,1.5.3,2,.8.5.5.8,1.3.8,2.3v4.6h-1.2v-4.4c0-.7-.2-1.3-.5-1.7-.3-.4-.8-.6-1.4-.6h-.1c-.4,0-.8,0-1.1.3s-.6.5-.8.9c-.2.4-.3.8-.3,1.4v4.1h-1.2Z"/>
  <path class="cls-3" d="M443.9,144c-.9,0-1.5-.2-1.8-.6-.4-.4-.5-.9-.5-1.6v-4.3h-1.6v-1h1.6v-2.3h1.2v2.3h2.6l-.2,1h-2.4v4.2c0,.5.1.8.3,1,.2.2.5.3,1,.3h1.3v1h-1.4Z"/>
  <path class="cls-3" d="M449.5,144.1c-.8,0-1.5-.3-2-.8-.5-.5-.7-1.3-.7-2.3v-4.6h1.2v4.4c0,.7.2,1.3.5,1.7.3.4.8.6,1.3.6h.1c.4,0,.7,0,1-.3.3-.2.6-.5.8-.9.2-.4.3-.8.3-1.4v-4.1h1.2v7.5h-1.1v-1.3c-.2.5-.5.8-.9,1.1-.4.3-.9.4-1.5.4h-.1Z"/>
  <path class="cls-3" d="M455.5,144v-7.5h1.1v1.3c.2-.5.5-.8.9-1.1s.8-.4,1.4-.4h.1c1.2,0,2,.5,2.4,1.6.2-.5.5-.9.9-1.2s.9-.4,1.5-.4h.1c.8,0,1.5.3,1.9.8.5.5.7,1.3.7,2.3v4.6h-1.2v-4.4c0-.7-.1-1.3-.4-1.7-.3-.4-.7-.6-1.3-.6h-.1c-.3,0-.7,0-1,.3s-.5.5-.7.9c-.2.4-.3.8-.3,1.4v4.1h-1.2v-4.4c0-.7-.1-1.3-.4-1.7-.3-.4-.7-.6-1.3-.6h-.1c-.3,0-.6,0-.9.3s-.5.5-.7.9c-.2.4-.3.8-.3,1.4v4.1h-1.2Z"/>
  <path class="cls-3" d="M468.6,140.2v-1.1h4.2v1.1h-4.2Z"/>
  <path class="cls-3" d="M478.7,144.1c-1.4,0-2.5-.4-3.3-1.3s-1.1-2.1-1.1-3.7v-.7c0-1,.2-1.9.5-2.7.4-.7.9-1.3,1.5-1.7.7-.4,1.4-.6,2.4-.6h.2c.9,0,1.7.2,2.3.6.6.4,1.1,1,1.4,1.8l-1.1.4c-.2-.6-.5-1-1-1.3-.5-.3-1-.5-1.6-.5h-.2c-1,0-1.8.3-2.4,1-.6.7-.8,1.6-.8,2.9v.7c0,1.3.3,2.2.8,2.9.5.7,1.3,1,2.4,1h.2c.7,0,1.2-.1,1.7-.4s.8-.7,1-1.3l1.1.4c-.3.7-.7,1.3-1.4,1.7-.7.4-1.4.6-2.4.6h-.2Z"/>
  <path class="cls-3" d="M484.5,144v-10.7h1.2v10.7h-1.2Z"/>
  <path class="cls-3" d="M489.9,144.1c-.8,0-1.4-.2-1.8-.6s-.6-.9-.6-1.6.2-1.1.6-1.4.9-.6,1.6-.7l2.9-.4h0c0-1.4-.6-2.1-1.8-2.1h-.2c-.9,0-1.6.4-1.9,1.1l-.9-.5c.2-.5.6-.9,1.1-1.2.5-.3,1.1-.4,1.8-.4h.2c.9,0,1.7.2,2.2.7s.7,1.2.7,2.2v4.7h-1.1v-1.3c-.2.5-.6.8-1,1.1s-1,.4-1.6.4h-.1ZM492.6,140.3l-2.4.4c-.6,0-1,.2-1.2.4-.2.2-.3.5-.3.9s.1.7.4,1c.3.2.7.3,1.2.3h.1c.7,0,1.2-.2,1.6-.6.4-.4.6-1,.6-1.7v-.5Z"/>
  <path class="cls-3" d="M498.6,144.1c-1.6,0-2.7-.6-3.2-1.7l.9-.5c.2.4.5.7.8.9s.8.3,1.4.3h.2c1.2,0,1.8-.4,1.8-1.1h0c0-.7-.4-1.1-1.2-1.2l-1.7-.2c-.7,0-1.2-.3-1.5-.6-.4-.3-.5-.8-.5-1.4v-.2c0-.6.3-1.1.8-1.5.5-.4,1.2-.6,2-.6h.2c.7,0,1.3.1,1.8.4.5.3.9.7,1.1,1.2l-.9.4c-.3-.7-.9-1-1.9-1h-.2c-.5,0-.9.1-1.2.3s-.4.5-.4.8h0c0,.4,0,.6.3.8.2.2.5.3.9.3l1.7.2c.6,0,1.1.3,1.5.7s.5.8.5,1.4v.2c0,.7-.2,1.2-.7,1.6-.5.4-1.2.5-2.1.5h-.2Z"/>
  <path class="cls-3" d="M505.9,144.1c-1.6,0-2.7-.6-3.2-1.7l.9-.5c.2.4.5.7.8.9s.8.3,1.4.3h.2c1.2,0,1.8-.4,1.8-1.1h0c0-.7-.4-1.1-1.2-1.2l-1.7-.2c-.7,0-1.2-.3-1.5-.6-.4-.3-.5-.8-.5-1.4v-.2c0-.6.3-1.1.8-1.5.5-.4,1.2-.6,2-.6h.2c.7,0,1.3.1,1.8.4.5.3.9.7,1.1,1.2l-.9.4c-.3-.7-.9-1-1.9-1h-.2c-.5,0-.9.1-1.2.3s-.4.5-.4.8h0c0,.4,0,.6.3.8.2.2.5.3.9.3l1.7.2c.6,0,1.1.3,1.5.7s.5.8.5,1.4v.2c0,.7-.2,1.2-.7,1.6-.5.4-1.2.5-2.1.5h-.2Z"/>
  <path class="cls-3" d="M510.7,134.9v-1.3h1.2v1.3h-1.2ZM510.8,144v-7.5h1.2v7.5h-1.2Z"/>
  <path class="cls-3" d="M517.3,144.1c-1,0-1.9-.3-2.5-1-.6-.6-.9-1.5-.9-2.7v-.5c0-.8.1-1.4.4-2,.3-.5.7-1,1.2-1.2.5-.3,1.1-.4,1.8-.4h.2c.7,0,1.2.2,1.7.5.5.3.8.7,1,1.2l-.9.4c-.2-.3-.4-.6-.7-.8-.3-.2-.7-.3-1.1-.3h-.1c-.7,0-1.2.2-1.6.7s-.6,1.1-.6,2v.5c0,.9.2,1.5.6,2s1,.7,1.7.7h.1c.5,0,.8,0,1.1-.3s.5-.4.7-.8l.9.5c-.2.5-.6.9-1,1.2-.5.3-1,.4-1.7.4h-.2Z"/>
  <path class="cls-3" d="M524,144.1c-.8,0-1.4-.2-1.8-.6s-.6-.9-.6-1.6.2-1.1.6-1.4.9-.6,1.6-.7l2.9-.4h0c0-1.4-.6-2.1-1.8-2.1h-.2c-.9,0-1.6.4-1.9,1.1l-.9-.5c.2-.5.6-.9,1.1-1.2.5-.3,1.1-.4,1.8-.4h.2c.9,0,1.7.2,2.2.7s.7,1.2.7,2.2v4.7h-1.1v-1.3c-.2.5-.6.8-1,1.1s-1,.4-1.6.4h-.1ZM526.6,140.3l-2.4.4c-.6,0-1,.2-1.2.4-.2.2-.3.5-.3.9s.1.7.4,1c.3.2.7.3,1.2.3h.1c.7,0,1.2-.2,1.6-.6.4-.4.6-1,.6-1.7v-.5Z"/>
  <path class="cls-3" d="M530,144v-10.7h1.2v10.7h-1.2Z"/>
  <path class="cls-3" d="M541.5,144.1c-1.4,0-2.5-.4-3.3-1.3s-1.1-2.1-1.1-3.7v-.7c0-1,.2-1.9.5-2.7.4-.7.9-1.3,1.5-1.7.7-.4,1.4-.6,2.4-.6h.2c.9,0,1.7.2,2.3.6.6.4,1.1,1,1.4,1.8l-1.1.4c-.2-.6-.5-1-1-1.3-.5-.3-1-.5-1.6-.5h-.2c-1,0-1.8.3-2.4,1-.6.7-.8,1.6-.8,2.9v.7c0,1.3.3,2.2.8,2.9.5.7,1.3,1,2.4,1h.2c.7,0,1.2-.1,1.7-.4s.8-.7,1-1.3l1.1.4c-.3.7-.7,1.3-1.4,1.7-.7.4-1.4.6-2.4.6h-.2Z"/>
  <path class="cls-3" d="M550.3,144.1c-.6,0-1.2-.1-1.7-.4s-.9-.7-1.2-1.3c-.3-.5-.4-1.2-.4-2v-.5c0-.8.1-1.4.4-2,.3-.5.7-1,1.2-1.3s1.1-.4,1.7-.4h.1c.7,0,1.2.1,1.8.4.5.3.9.7,1.2,1.2.3.5.4,1.2.4,2v.5c0,.8-.1,1.4-.4,2-.3.5-.7,1-1.2,1.2-.5.3-1.1.4-1.8.4h-.1ZM550.3,143.1h.1c.6,0,1.2-.2,1.6-.7s.7-1.1.7-2v-.5c0-.9-.2-1.5-.7-2s-1-.7-1.6-.7h-.1c-.6,0-1.2.2-1.6.7s-.7,1.1-.7,2v.5c0,.9.2,1.5.7,2s1,.7,1.6.7Z"/>
  <path class="cls-3" d="M555.8,144v-7.5h1.1v1.3c.2-.5.5-.8.9-1.1s.8-.4,1.4-.4h.1c1.2,0,2,.5,2.4,1.6.2-.5.5-.9.9-1.2s.9-.4,1.5-.4h.1c.8,0,1.5.3,1.9.8.5.5.7,1.3.7,2.3v4.6h-1.2v-4.4c0-.7-.1-1.3-.4-1.7-.3-.4-.7-.6-1.3-.6h-.1c-.3,0-.7,0-1,.3s-.5.5-.7.9c-.2.4-.3.8-.3,1.4v4.1h-1.2v-4.4c0-.7-.1-1.3-.4-1.7-.3-.4-.7-.6-1.3-.6h-.1c-.3,0-.6,0-.9.3s-.5.5-.7.9c-.2.4-.3.8-.3,1.4v4.1h-1.2Z"/>
  <path class="cls-3" d="M569.1,146.9v-10.4h1.1v1.3c.2-.4.6-.8,1-1.1.4-.3.9-.4,1.5-.4h.1c.6,0,1.2.1,1.7.4.5.3.9.7,1.1,1.2.3.5.4,1.2.4,2v.5c0,.8-.1,1.4-.4,2-.3.5-.7,1-1.1,1.2s-1,.4-1.7.4h-.1c-.6,0-1-.1-1.5-.4s-.7-.6-1-1v4.1h-1.2ZM572.5,143.1h.1c.6,0,1.2-.2,1.6-.6s.6-1.1.6-2v-.5c0-.9-.2-1.6-.6-2s-1-.6-1.6-.6h-.1c-.4,0-.8,0-1.1.3-.3.2-.6.5-.8.9-.2.4-.3.9-.3,1.5v.5c0,.9.2,1.6.6,2s.9.6,1.6.6Z"/>
  <path class="cls-3" d="M580.6,144.1c-.8,0-1.5-.3-2-.8-.5-.5-.7-1.3-.7-2.3v-4.6h1.2v4.4c0,.7.2,1.3.5,1.7.3.4.8.6,1.3.6h.1c.4,0,.7,0,1-.3.3-.2.6-.5.8-.9.2-.4.3-.8.3-1.4v-4.1h1.2v7.5h-1.1v-1.3c-.2.5-.5.8-.9,1.1-.4.3-.9.4-1.5.4h-.1Z"/>
  <path class="cls-3" d="M589.5,144c-.9,0-1.5-.2-1.8-.6-.4-.4-.5-.9-.5-1.6v-4.3h-1.6v-1h1.6v-2.3h1.2v2.3h2.6l-.2,1h-2.4v4.2c0,.5.1.8.3,1,.2.2.5.3,1,.3h1.3v1h-1.4Z"/>
  <path class="cls-3" d="M592.6,134.9v-1.3h1.2v1.3h-1.2ZM592.6,144v-7.5h1.2v7.5h-1.2Z"/>
  <path class="cls-3" d="M596.1,144v-7.5h1.1v1.3c.2-.5.5-.8.9-1.1.4-.3.9-.4,1.6-.4h.1c.9,0,1.5.3,2,.8.5.5.8,1.3.8,2.3v4.6h-1.2v-4.4c0-.7-.2-1.3-.5-1.7-.3-.4-.8-.6-1.4-.6h-.1c-.4,0-.8,0-1.1.3s-.6.5-.8.9c-.2.4-.3.8-.3,1.4v4.1h-1.2Z"/>
  <path class="cls-3" d="M607.9,147.1c-1.4,0-2.4-.5-2.9-1.4l.9-.6c.2.4.5.6.8.8.3.2.8.2,1.3.2h.2c1.4,0,2.1-.8,2.1-2.3v-1.1c-.5.9-1.3,1.3-2.4,1.3h0c-.6,0-1.2-.1-1.7-.4s-.9-.7-1.1-1.3c-.3-.5-.4-1.2-.4-1.9v-.5c0-.7.1-1.3.4-1.9.3-.5.6-.9,1.1-1.2s1-.4,1.7-.4h0c1.2,0,2.1.5,2.5,1.5v-1.3h1.1v7.3c0,1.1-.3,1.9-.9,2.5-.6.6-1.4.9-2.4.9h-.3ZM607.9,142.9h.1c.7,0,1.2-.2,1.6-.7.4-.5.6-1.1.6-1.9v-.4c0-.8-.2-1.5-.6-1.9-.4-.5-.9-.7-1.6-.7h-.1c-.7,0-1.2.2-1.6.7s-.6,1.1-.6,1.9v.5c0,.8.2,1.4.6,1.9s.9.7,1.6.7Z"/>
  <rect class="cls-2" x="76.2" y=".4" width="697.6" height="70.6"/>
  <path class="cls-3" d="M315.6,36.3v-16.8h2.8v7.1h8.2v-7.1h2.8v16.8h-2.8v-7.4h-8.2v7.4h-2.8Z"/>
  <path class="cls-3" d="M333,41.1v-2.2h.8c.7,0,1.3-.1,1.6-.4.4-.3.7-.8,1-1.6l.2-.5-4.8-12.3h2.8l3.4,9.5,3.1-9.5h2.7l-4.7,12.8c-.4,1.2-.8,2.1-1.3,2.7-.4.6-1,1.1-1.6,1.3-.6.2-1.4.3-2.3.3,0,0-.9,0-.9,0Z"/>
  <path class="cls-3" d="M352.2,36.6c-.9,0-1.8-.2-2.4-.6-.7-.4-1.2-.9-1.6-1.6v1.8h-2.3v-17.5h2.6v6.7c.4-.6.9-1,1.5-1.3s1.4-.5,2.2-.5h.1c1,0,1.9.2,2.7.7.8.5,1.4,1.2,1.9,2.1s.7,2,.7,3.3v.8c0,1.3-.2,2.4-.7,3.3-.5.9-1.1,1.6-1.9,2.1s-1.7.7-2.7.7h-.1ZM351.5,34.3h.2c.9,0,1.7-.3,2.3-.9.6-.6.9-1.6.9-2.9v-.8c0-1.3-.3-2.3-.9-2.9-.6-.6-1.4-.9-2.3-.9h-.2c-.5,0-1,.1-1.5.4-.5.3-.9.7-1.2,1.2-.3.6-.4,1.3-.4,2.2v.7c0,.9.1,1.6.4,2.2.3.6.7,1,1.2,1.2s1,.4,1.5.4Z"/>
  <path class="cls-3" d="M360.4,36.3v-12.3h2.3v2.3c.3-.8.7-1.4,1.3-1.8.6-.4,1.3-.7,2.3-.7h1.2v2.5h-1.2c-.6,0-1.1.1-1.6.4-.5.3-.9.7-1.2,1.2-.3.6-.5,1.3-.5,2.2v6.2h-2.6Z"/>
  <path class="cls-3" d="M370,21.8v-2.8h2.7v2.8h-2.7ZM370.1,36.3v-12.3h2.6v12.3h-2.6Z"/>
  <path class="cls-3" d="M380.7,36.6c-1,0-1.9-.2-2.7-.7s-1.4-1.1-1.8-2.1c-.4-.9-.7-2-.7-3.3v-.8c0-1.3.2-2.4.7-3.3.4-.9,1.1-1.6,1.8-2.1.8-.5,1.7-.7,2.7-.7h.2c.8,0,1.5.2,2.2.5.6.3,1.1.8,1.5,1.3v-6.7h2.6v17.5h-2.3v-1.8c-.4.7-.9,1.2-1.6,1.6-.7.4-1.5.6-2.4.6h-.2s0,0,0,0ZM381.3,34.3h.2c.5,0,1.1-.1,1.5-.4.5-.3.9-.7,1.2-1.2.3-.6.4-1.3.4-2.2v-.7c0-.9-.1-1.6-.4-2.2-.3-.6-.7-1-1.2-1.2-.5-.3-1-.4-1.5-.4h-.2c-.9,0-1.7.3-2.3.9s-.9,1.6-.9,2.9v.8c0,1.3.3,2.3.9,2.9.6.6,1.4.9,2.3.9h0s0,0,0,0Z"/>
  <path class="cls-3" d="M395.4,36.3l6.6-16.8h2.5l6.6,16.8h-3l-1.4-3.8h-7.1l-1.4,3.8h-2.8ZM400.5,30.2h5.4l-2.7-7.2s-2.7,7.2-2.7,7.2Z"/>
  <path class="cls-3" d="M413.2,41.1v-17.1h2.3v1.8c.4-.7.9-1.2,1.6-1.6.7-.4,1.5-.6,2.4-.6h.1c1,0,1.9.2,2.7.7.8.5,1.4,1.2,1.9,2.1s.7,2,.7,3.3v.8c0,1.3-.2,2.4-.7,3.3-.5.9-1.1,1.6-1.9,2.1s-1.7.7-2.7.7h-.1c-.8,0-1.5-.2-2.2-.5s-1.1-.7-1.5-1.3v6.2h-2.6ZM418.9,34.3h.2c.9,0,1.7-.3,2.3-.9.6-.6.9-1.6.9-2.9v-.8c0-1.3-.3-2.3-.9-2.9-.6-.6-1.4-.9-2.3-.9h-.2c-.5,0-1.1.1-1.5.4-.5.3-.9.7-1.2,1.2-.3.6-.4,1.3-.4,2.2v.7c0,.9.1,1.6.4,2.2.3.6.7,1,1.2,1.2s1,.4,1.5.4Z"/>
  <path class="cls-3" d="M427.8,41.1v-17.1h2.3v1.8c.4-.7.9-1.2,1.6-1.6.7-.4,1.5-.6,2.4-.6h.1c1,0,1.9.2,2.7.7.8.5,1.4,1.2,1.9,2.1.5.9.7,2,.7,3.3v.8c0,1.3-.2,2.4-.7,3.3-.5.9-1.1,1.6-1.9,2.1-.8.5-1.7.7-2.7.7h-.1c-.8,0-1.5-.2-2.2-.5-.6-.3-1.1-.7-1.5-1.3v6.2h-2.6ZM433.5,34.3h.2c.9,0,1.7-.3,2.3-.9.6-.6.9-1.6.9-2.9v-.8c0-1.3-.3-2.3-.9-2.9-.6-.6-1.4-.9-2.3-.9h-.2c-.5,0-1.1.1-1.5.4-.5.3-.9.7-1.2,1.2-.3.6-.4,1.3-.4,2.2v.7c0,.9.1,1.6.4,2.2.3.6.7,1,1.2,1.2s1,.4,1.5.4Z"/>
  <path class="cls-3" d="M442.3,36.3v-17.5h2.6v17.5h-2.6Z"/>
  <path class="cls-3" d="M448.4,21.8v-2.8h2.7v2.8h-2.7ZM448.5,36.3v-12.3h2.6v12.3h-2.6Z"/>
  <path class="cls-3" d="M459.7,36.6c-1.8,0-3.2-.5-4.3-1.6-1-1-1.6-2.6-1.6-4.5v-.8c0-1.3.2-2.4.7-3.3s1.2-1.6,2.1-2.1,1.9-.7,3.1-.7h.2c1.1,0,2.1.3,2.9.8.8.5,1.4,1.3,1.7,2.2l-2.1.9c-.2-.5-.6-.9-1-1.2-.4-.3-.9-.4-1.5-.4h-.2c-.9,0-1.7.3-2.3.9s-.9,1.6-.9,2.8v.9c0,1.3.3,2.3.9,2.9.6.6,1.4.9,2.3.9h.2c.6,0,1.2-.1,1.6-.4.4-.3.8-.7,1-1.1l2.1,1.1c-.4.8-.9,1.5-1.8,2-.8.5-1.8.8-2.9.8h-.2Z"/>
  <path class="cls-3" d="M470.7,36.6c-1.3,0-2.3-.3-3.1-1-.7-.6-1.1-1.6-1.1-2.7s.3-1.8.9-2.5,1.6-1,2.8-1.2l4.3-.6h0c0-1.9-.8-2.8-2.5-2.8h-.3c-.7,0-1.3.1-1.7.4-.5.2-.8.7-1.1,1.3l-2-1.1c.4-.8,1-1.5,1.8-2,.8-.5,1.9-.7,3.1-.7h.4c1.6,0,2.9.4,3.7,1.2.8.8,1.3,2,1.3,3.6v7.8h-2.3v-1.9c-.4.7-.9,1.2-1.6,1.6-.7.4-1.5.6-2.5.6h-.2ZM474.6,30.5l-3.3.5c-.8.1-1.4.3-1.7.6-.3.3-.5.7-.5,1.2s.2,1,.6,1.3c.4.3.9.5,1.6.5h.2c.9,0,1.7-.3,2.3-.9.6-.6.8-1.4.8-2.3v-.8h0s0,0,0,0Z"/>
  <path class="cls-3" d="M485.7,36.4c-1.6,0-2.7-.3-3.3-1-.7-.7-1-1.7-1-3v-6.2h-2.6v-2.2h2.6v-3.6h2.6v3.6h4l-.3,2.2h-3.7v6.1c0,.7.2,1.2.5,1.5s.8.4,1.4.4h2.1v2.2s-2.4,0-2.4,0Z"/>
  <path class="cls-3" d="M490.6,21.8v-2.8h2.7v2.8h-2.7ZM490.7,36.3v-12.3h2.6v12.3h-2.6Z"/>
  <path class="cls-3" d="M502,36.6c-1.1,0-2.1-.2-3-.7s-1.6-1.2-2.1-2.1c-.5-.9-.8-2-.8-3.3v-.8c0-1.3.3-2.4.8-3.3s1.2-1.6,2.1-2.1,1.9-.7,3-.7h.2c1.1,0,2.1.2,3,.7s1.6,1.2,2.1,2.1c.5.9.8,2,.8,3.3v.8c0,1.3-.3,2.4-.8,3.3-.5.9-1.2,1.6-2.1,2.1s-1.9.7-3,.7h-.2ZM502,34.3h.2c.9,0,1.7-.3,2.3-.9s.9-1.6.9-2.8v-.9c0-1.3-.3-2.2-.9-2.8-.6-.6-1.4-.9-2.3-.9h-.2c-.9,0-1.6.3-2.3.9-.6.6-.9,1.6-.9,2.8v.9c0,1.3.3,2.2.9,2.8s1.4.9,2.3.9Z"/>
  <path class="cls-3" d="M510.8,36.3v-12.3h2.3v1.8c.4-.7.9-1.2,1.6-1.6.7-.4,1.5-.6,2.4-.6h.2c1.4,0,2.5.4,3.3,1.3.8.9,1.2,2.1,1.2,3.7v7.6h-2.6v-7.2c0-1-.2-1.8-.6-2.3-.4-.5-1.1-.8-2-.8h-.2c-.5,0-1,.1-1.5.4-.5.3-.8.6-1.1,1.2-.3.5-.4,1.2-.4,2v6.8h-2.6Z"/>
  <path class="cls-3" d="M529.7,36.6c-2.8,0-4.6-.9-5.3-2.8l2.1-1.1c.3.6.7,1,1.2,1.3s1.2.4,2.1.4h.3c1.6,0,2.5-.5,2.5-1.5h0c0-.9-.5-1.4-1.6-1.6l-2.6-.4c-1.1-.2-2-.5-2.6-1.1-.6-.6-.9-1.4-.9-2.3v-.3c0-1.1.4-2,1.3-2.7.9-.7,2-1,3.5-1h.3c1.2,0,2.2.2,3.1.7.8.5,1.4,1.1,1.8,2l-2.1.9c-.4-1-1.4-1.5-2.8-1.5h-.3c-.7,0-1.3.1-1.6.4-.4.3-.6.6-.6,1.1h0c0,.5.1.8.3,1,.2.2.6.4,1.2.4l2.7.4c1.1.2,2,.6,2.6,1.2.6.6.9,1.4.9,2.4v.3c0,1.2-.4,2.1-1.3,2.7-.8.6-2.1.9-3.7.9h-.3Z"/>
  <path class="cls-3" d="M228.8,56.5v-10.3h3.6c1.2,0,2.1.3,2.7.8.6.5,1,1.3,1,2.2v.4c0,1-.3,1.7-1,2.2-.7.5-1.5.8-2.7.8h-2.4v3.9h-1.2ZM230,51.6h2.4c.8,0,1.4-.2,1.8-.5.4-.3.6-.8.6-1.5v-.4c0-.7-.2-1.1-.6-1.5-.4-.3-1-.5-1.8-.5h-2.4v4.3h0Z"/>
  <path class="cls-3" d="M237.7,56.5v-10.7h1.2v4.4c.2-.4.5-.7.9-1,.4-.2.9-.4,1.5-.4h.1c.9,0,1.5.3,2,.8.5.5.8,1.3.8,2.3v4.6h-1.2v-4.4c0-.7-.2-1.3-.5-1.7-.3-.4-.8-.6-1.4-.6h-.1c-.4,0-.8,0-1.1.3-.3.2-.6.5-.8.9-.2.4-.3.8-.3,1.4v4.1h-1.2Z"/>
  <path class="cls-3" d="M248.4,56.7c-.8,0-1.4-.2-1.8-.6s-.6-.9-.6-1.6.2-1.1.6-1.4c.4-.4.9-.6,1.6-.7l2.9-.4h0c0-1.4-.6-2.1-1.8-2.1h-.2c-.9,0-1.6.4-1.9,1.1l-.9-.5c.2-.5.6-.9,1.1-1.2.5-.3,1.1-.4,1.8-.4h.2c.9,0,1.7.2,2.2.7s.7,1.2.7,2.2v4.7h-1.1v-1.3c-.2.5-.6.8-1,1.1s-1,.4-1.6.4h-.1s0,0,0,0ZM251,52.8l-2.4.4c-.6,0-1,.2-1.2.4-.2.2-.3.5-.3.9s.1.7.4,1c.3.2.7.3,1.2.3h.1c.7,0,1.2-.2,1.6-.6.4-.4.6-1,.6-1.7,0,0,0-.5,0-.5Z"/>
  <path class="cls-3" d="M254.4,56.5v-7.5h1.1v1.6c.2-.5.4-.9.8-1.2.4-.3.9-.4,1.6-.4h.7v1.1h-.7c-.6,0-1.2.2-1.6.7s-.6,1.1-.6,2v3.8h-1.2Z"/>
  <path class="cls-3" d="M260.2,56.5v-7.5h1.1v1.3c.2-.5.5-.8.9-1.1s.8-.4,1.4-.4h.1c1.2,0,2,.5,2.4,1.6.2-.5.5-.9.9-1.2s.9-.4,1.5-.4h.1c.8,0,1.5.3,1.9.8.5.5.7,1.3.7,2.3v4.6h-1.2v-4.4c0-.7-.1-1.3-.4-1.7-.3-.4-.7-.6-1.3-.6h-.1c-.3,0-.7,0-1,.3s-.5.5-.7.9c-.2.4-.3.8-.3,1.4v4.1h-1.2v-4.4c0-.7-.1-1.3-.4-1.7-.3-.4-.7-.6-1.3-.6h-.1c-.3,0-.6,0-.9.3-.3.2-.5.5-.7.9-.2.4-.3.8-.3,1.4v4.1h-1.2Z"/>
  <path class="cls-3" d="M275.4,56.7c-.8,0-1.4-.2-1.8-.6s-.6-.9-.6-1.6.2-1.1.6-1.4c.4-.4.9-.6,1.6-.7l2.9-.4h0c0-1.4-.6-2.1-1.8-2.1h-.2c-.9,0-1.6.4-1.9,1.1l-.9-.5c.2-.5.6-.9,1.1-1.2.5-.3,1.1-.4,1.8-.4h.2c.9,0,1.7.2,2.2.7s.7,1.2.7,2.2v4.7h-1.1v-1.3c-.2.5-.6.8-1,1.1s-1,.4-1.6.4h-.1s0,0,0,0ZM278,52.8l-2.4.4c-.6,0-1,.2-1.2.4-.2.2-.3.5-.3.9s.1.7.4,1c.3.2.7.3,1.2.3h.1c.7,0,1.2-.2,1.6-.6.4-.4.6-1,.6-1.7,0,0,0-.5,0-.5Z"/>
  <path class="cls-3" d="M281.4,58.6l-.4-.6.4-.3c.2-.1.3-.3.4-.4,0-.1.1-.3.1-.5v-.3h-.6v-1.5h1.4v1.7c0,.3,0,.5,0,.7s-.1.3-.3.4c-.1.1-.3.3-.5.4l-.3.2Z"/>
  <path class="cls-3" d="M292.7,56.7c-1.4,0-2.5-.4-3.3-1.3-.8-.9-1.1-2.1-1.1-3.7v-.7c0-1,.2-1.9.5-2.7.4-.7.9-1.3,1.5-1.7.7-.4,1.4-.6,2.4-.6h.2c.9,0,1.7.2,2.3.6s1.1,1,1.4,1.8l-1.1.4c-.2-.6-.5-1-1-1.3s-1-.5-1.6-.5h-.2c-1,0-1.8.3-2.4,1-.6.7-.8,1.6-.8,2.9v.7c0,1.3.3,2.2.8,2.9.5.7,1.3,1,2.4,1h.2c.7,0,1.2-.1,1.7-.4s.8-.7,1-1.3l1.1.4c-.3.7-.7,1.3-1.4,1.7s-1.4.6-2.4.6h-.2s0,0,0,0Z"/>
  <path class="cls-3" d="M298.5,56.5v-10.7h1.2v4.4c.2-.4.5-.7.9-1,.4-.2.9-.4,1.5-.4h.1c.9,0,1.5.3,2,.8.5.5.8,1.3.8,2.3v4.6h-1.2v-4.4c0-.7-.2-1.3-.5-1.7-.3-.4-.8-.6-1.4-.6h-.1c-.4,0-.8,0-1.1.3-.3.2-.6.5-.8.9-.2.4-.3.8-.3,1.4v4.1h-1.2Z"/>
  <path class="cls-3" d="M310.2,56.7c-1,0-1.8-.3-2.4-1-.6-.6-.9-1.5-.9-2.7v-.5c0-.8.1-1.4.4-1.9.3-.5.7-1,1.2-1.3.5-.3,1.1-.4,1.8-.4h.1c.7,0,1.2.1,1.7.4s.8.7,1.1,1.2c.3.5.4,1.1.4,1.8v.9h-5.5c0,.9.2,1.5.6,2,.4.4.9.6,1.6.6h.2c.5,0,.9,0,1.2-.3.3-.2.6-.4.7-.8l.9.5c-.3.5-.6.8-1.1,1.1s-1.1.4-1.7.4h-.2ZM308,52.2h4.3v-.2c0-.7-.2-1.3-.6-1.6-.4-.4-.9-.6-1.5-.6h-.1c-.6,0-1.1.2-1.5.6s-.6,1-.7,1.8h0Z"/>
  <path class="cls-3" d="M315.4,56.5v-7.5h1.1v1.3c.2-.5.5-.8.9-1.1s.8-.4,1.4-.4h.1c1.2,0,2,.5,2.4,1.6.2-.5.5-.9.9-1.2s.9-.4,1.5-.4h.1c.8,0,1.5.3,1.9.8.5.5.7,1.3.7,2.3v4.6h-1.2v-4.4c0-.7-.1-1.3-.4-1.7-.3-.4-.7-.6-1.3-.6h-.1c-.3,0-.7,0-1,.3s-.5.5-.7.9c-.2.4-.3.8-.3,1.4v4.1h-1.2v-4.4c0-.7-.1-1.3-.4-1.7-.3-.4-.7-.6-1.3-.6h-.1c-.3,0-.6,0-.9.3-.3.2-.5.5-.7.9-.2.4-.3.8-.3,1.4v4.1h-1.2Z"/>
  <path class="cls-3" d="M328.6,47.5v-1.3h1.2v1.3h-1.2ZM328.7,56.5v-7.5h1.2v7.5h-1.2Z"/>
  <path class="cls-3" d="M334.7,56.7c-1.6,0-2.7-.6-3.2-1.7l.9-.5c.2.4.5.7.8.9s.8.3,1.4.3h.2c1.2,0,1.8-.4,1.8-1.1h0c0-.7-.4-1.1-1.2-1.2l-1.7-.2c-.7,0-1.2-.3-1.5-.6-.4-.3-.5-.8-.5-1.4v-.2c0-.6.3-1.1.8-1.5.5-.4,1.2-.6,2-.6h.2c.7,0,1.3.1,1.8.4.5.3.9.7,1.1,1.2l-.9.4c-.3-.7-.9-1-1.9-1h-.2c-.5,0-.9.1-1.2.3s-.4.5-.4.8h0c0,.4,0,.6.3.8s.5.3.9.3l1.7.2c.6,0,1.1.3,1.5.7s.5.8.5,1.4v.2c0,.7-.2,1.2-.7,1.6-.5.4-1.2.5-2.1.5h-.2Z"/>
  <path class="cls-3" d="M342.6,56.6c-.9,0-1.5-.2-1.8-.6-.4-.4-.5-.9-.5-1.6v-4.3h-1.6v-1h1.6v-2.3h1.2v2.3h2.6l-.2,1h-2.4v4.2c0,.5.1.8.3,1,.2.2.5.3,1,.3h1.3v1h-1.4s0,0,0,0Z"/>
  <path class="cls-3" d="M345.8,56.5v-7.5h1.1v1.6c.2-.5.4-.9.8-1.2.4-.3.9-.4,1.6-.4h.7v1.1h-.7c-.6,0-1.2.2-1.6.7s-.6,1.1-.6,2v3.8h-1.2Z"/>
  <path class="cls-3" d="M351.6,59.5v-1h.4c.5,0,.8-.1,1-.3s.5-.6.7-1.2l.2-.4-3-7.5h1.2l2.3,6.2,2.2-6.2h1.2l-3,8c-.2.6-.5,1.1-.7,1.5s-.5.6-.9.7c-.3.1-.7.2-1.2.2,0,0-.5,0-.5,0Z"/>
  <path class="cls-3" d="M358.3,58.6l-.4-.6.4-.3c.2-.1.3-.3.4-.4,0-.1.1-.3.1-.5v-.3h-.6v-1.5h1.4v1.7c0,.3,0,.5,0,.7s-.1.3-.3.4c-.1.1-.3.3-.5.4l-.3.2Z"/>
  <path class="cls-3" d="M364.8,46.3h1.3l2.5,8.5,2.4-8.5h1.2l2.4,8.5,2.5-8.5h1.2l-3.2,10.3h-1.1l-2.4-8.5-2.5,8.5h-1.1l-3.2-10.3Z"/>
  <path class="cls-3" d="M382.1,56.7c-1,0-1.8-.3-2.4-1-.6-.6-.9-1.5-.9-2.7v-.5c0-.8.1-1.4.4-1.9.3-.5.7-1,1.2-1.3.5-.3,1.1-.4,1.8-.4h.1c.7,0,1.2.1,1.7.4s.8.7,1.1,1.2c.3.5.4,1.1.4,1.8v.9h-5.5c0,.9.2,1.5.6,2,.4.4.9.6,1.6.6h.2c.5,0,.9,0,1.2-.3.3-.2.6-.4.7-.8l.9.5c-.3.5-.6.8-1.1,1.1s-1.1.4-1.7.4h-.2ZM379.9,52.2h4.3v-.2c0-.7-.2-1.3-.6-1.6-.4-.4-.9-.6-1.5-.6h-.1c-.6,0-1.1.2-1.5.6s-.6,1-.7,1.8h0Z"/>
  <path class="cls-3" d="M389.2,56.7c-.8,0-1.4-.2-1.8-.6s-.6-.9-.6-1.6.2-1.1.6-1.4c.4-.4.9-.6,1.6-.7l2.9-.4h0c0-1.4-.6-2.1-1.8-2.1h-.2c-.9,0-1.6.4-1.9,1.1l-.9-.5c.2-.5.6-.9,1.1-1.2.5-.3,1.1-.4,1.8-.4h.2c.9,0,1.7.2,2.2.7s.7,1.2.7,2.2v4.7h-1.1v-1.3c-.2.5-.6.8-1,1.1s-1,.4-1.6.4h-.1s0,0,0,0ZM391.8,52.8l-2.4.4c-.6,0-1,.2-1.2.4-.2.2-.3.5-.3.9s.1.7.4,1c.3.2.7.3,1.2.3h.1c.7,0,1.2-.2,1.6-.6.4-.4.6-1,.6-1.7,0,0,0-.5,0-.5Z"/>
  <path class="cls-3" d="M398.1,56.6c-.9,0-1.5-.2-1.8-.6-.4-.4-.5-.9-.5-1.6v-4.3h-1.6v-1h1.6v-2.3h1.2v2.3h2.6l-.2,1h-2.4v4.2c0,.5.1.8.3,1,.2.2.5.3,1,.3h1.3v1h-1.4s0,0,0,0Z"/>
  <path class="cls-3" d="M401.4,56.5v-10.7h1.2v4.4c.2-.4.5-.7.9-1,.4-.2.9-.4,1.5-.4h.1c.9,0,1.5.3,2,.8.5.5.8,1.3.8,2.3v4.6h-1.2v-4.4c0-.7-.2-1.3-.5-1.7-.3-.4-.8-.6-1.4-.6h-.1c-.4,0-.8,0-1.1.3-.3.2-.6.5-.8.9-.2.4-.3.8-.3,1.4v4.1h-1.2Z"/>
  <path class="cls-3" d="M413.1,56.7c-1,0-1.8-.3-2.4-1-.6-.6-.9-1.5-.9-2.7v-.5c0-.8.1-1.4.4-1.9.3-.5.7-1,1.2-1.3.5-.3,1.1-.4,1.8-.4h.1c.7,0,1.2.1,1.7.4s.8.7,1.1,1.2c.3.5.4,1.1.4,1.8v.9h-5.5c0,.9.2,1.5.6,2,.4.4.9.6,1.6.6h.2c.5,0,.9,0,1.2-.3.3-.2.6-.4.7-.8l.9.5c-.3.5-.6.8-1.1,1.1s-1.1.4-1.7.4h-.2ZM410.9,52.2h4.3v-.2c0-.7-.2-1.3-.6-1.6-.4-.4-.9-.6-1.5-.6h-.1c-.6,0-1.1.2-1.5.6s-.6,1-.7,1.8h0Z"/>
  <path class="cls-3" d="M418.3,56.5v-7.5h1.1v1.6c.2-.5.4-.9.8-1.2.4-.3.9-.4,1.6-.4h.7v1.1h-.7c-.6,0-1.2.2-1.6.7s-.6,1.1-.6,2v3.8h-1.2Z"/>
  <path class="cls-3" d="M423.1,58.6l-.4-.6.4-.3c.2-.1.3-.3.4-.4,0-.1.1-.3.1-.5v-.3h-.6v-1.5h1.4v1.7c0,.3,0,.5,0,.7s-.1.3-.3.4c-.1.1-.3.3-.5.4l-.3.2Z"/>
  <path class="cls-3" d="M430.4,56.5v-10.3h6.3v1h-5.1v3.7h4.2v1h-4.2v4.5h-1.2Z"/>
  <path class="cls-3" d="M438.2,47.5v-1.3h1.2v1.3h-1.2ZM438.2,56.5v-7.5h1.2v7.5h-1.2Z"/>
  <path class="cls-3" d="M441.7,56.5v-7.5h1.1v1.3c.2-.5.5-.8.9-1.1.4-.3.9-.4,1.6-.4h.1c.9,0,1.5.3,2,.8.5.5.8,1.3.8,2.3v4.6h-1.2v-4.4c0-.7-.2-1.3-.5-1.7-.3-.4-.8-.6-1.4-.6h-.1c-.4,0-.8,0-1.1.3s-.6.5-.8.9c-.2.4-.3.8-.3,1.4v4.1h-1.2Z"/>
  <path class="cls-3" d="M452.4,56.7c-.8,0-1.4-.2-1.8-.6s-.6-.9-.6-1.6.2-1.1.6-1.4.9-.6,1.6-.7l2.9-.4h0c0-1.4-.6-2.1-1.8-2.1h-.2c-.9,0-1.6.4-1.9,1.1l-.9-.5c.2-.5.6-.9,1.1-1.2.5-.3,1.1-.4,1.8-.4h.2c.9,0,1.7.2,2.2.7s.7,1.2.7,2.2v4.7h-1.1v-1.3c-.2.5-.6.8-1,1.1s-1,.4-1.6.4h-.1s0,0,0,0ZM455.1,52.8l-2.4.4c-.6,0-1,.2-1.2.4-.2.2-.3.5-.3.9s.1.7.4,1c.3.2.7.3,1.2.3h.1c.7,0,1.2-.2,1.6-.6.4-.4.6-1,.6-1.7,0,0,0-.5,0-.5Z"/>
  <path class="cls-3" d="M458.5,56.5v-7.5h1.1v1.3c.2-.5.5-.8.9-1.1.4-.3.9-.4,1.6-.4h.1c.9,0,1.5.3,2,.8.5.5.8,1.3.8,2.3v4.6h-1.2v-4.4c0-.7-.2-1.3-.5-1.7-.3-.4-.8-.6-1.4-.6h-.1c-.4,0-.8,0-1.1.3s-.6.5-.8.9c-.2.4-.3.8-.3,1.4v4.1h-1.2Z"/>
  <path class="cls-3" d="M470.3,56.7c-1,0-1.9-.3-2.5-1-.6-.6-.9-1.5-.9-2.7v-.5c0-.8.1-1.4.4-2,.3-.5.7-1,1.2-1.2.5-.3,1.1-.4,1.8-.4h.2c.7,0,1.2.2,1.7.5.5.3.8.7,1,1.2l-.9.4c-.2-.3-.4-.6-.7-.8-.3-.2-.7-.3-1.1-.3h-.1c-.7,0-1.2.2-1.6.7s-.6,1.1-.6,2v.5c0,.9.2,1.5.6,2s1,.7,1.7.7h.1c.5,0,.8,0,1.1-.3s.5-.4.7-.8l.9.5c-.2.5-.6.9-1,1.2-.5.3-1,.4-1.7.4h-.2s0,0,0,0Z"/>
  <path class="cls-3" d="M477.9,56.7c-1,0-1.8-.3-2.4-1-.6-.6-.9-1.5-.9-2.7v-.5c0-.8.1-1.4.4-1.9.3-.5.7-1,1.2-1.3.5-.3,1.1-.4,1.8-.4h.1c.7,0,1.2.1,1.7.4s.8.7,1.1,1.2c.3.5.4,1.1.4,1.8v.9h-5.5c0,.9.2,1.5.6,2,.4.4.9.6,1.6.6h.2c.5,0,.9,0,1.2-.3.3-.2.6-.4.7-.8l.9.5c-.3.5-.6.8-1.1,1.1-.5.3-1.1.4-1.7.4h-.2ZM475.8,52.2h4.3v-.2c0-.7-.2-1.3-.5-1.6s-.9-.6-1.5-.6h-.1c-.6,0-1.1.2-1.5.6-.4.4-.6,1-.7,1.8h0Z"/>
  <path class="cls-3" d="M482.8,58.6l-.4-.6.4-.3c.2-.1.3-.3.4-.4,0-.1.1-.3.1-.5v-.3h-.6v-1.5h1.4v1.7c0,.3,0,.5,0,.7s-.1.3-.3.4c-.1.1-.3.3-.5.4l-.3.2Z"/>
  <path class="cls-3" d="M490.2,56.5v-10.3h1.2v9.2h4.9v1h-6.1Z"/>
  <path class="cls-3" d="M500.9,56.7c-.6,0-1.2-.1-1.7-.4s-.9-.7-1.2-1.3c-.3-.5-.4-1.2-.4-2v-.5c0-.8.1-1.4.4-2,.3-.5.7-1,1.2-1.3s1.1-.4,1.7-.4h.1c.7,0,1.2.1,1.8.4.5.3.9.7,1.2,1.2.3.5.4,1.2.4,2v.5c0,.8-.1,1.4-.4,2-.3.5-.7,1-1.2,1.2-.5.3-1.1.4-1.8.4h-.1ZM500.9,55.7h.1c.6,0,1.2-.2,1.6-.7s.7-1.1.7-2v-.5c0-.9-.2-1.5-.7-2s-1-.7-1.6-.7h-.1c-.6,0-1.2.2-1.6.7s-.7,1.1-.7,2v.5c0,.9.2,1.5.7,2s1,.7,1.6.7Z"/>
  <path class="cls-3" d="M509.4,59.7c-1.4,0-2.4-.5-2.9-1.4l.9-.6c.2.4.5.6.8.8.3.2.8.2,1.3.2h.2c1.4,0,2.1-.8,2.1-2.3v-1.1c-.5.9-1.3,1.3-2.4,1.3h0c-.6,0-1.2-.1-1.7-.4s-.9-.7-1.1-1.3c-.3-.5-.4-1.2-.4-1.9v-.5c0-.7.1-1.3.4-1.9.3-.5.6-.9,1.1-1.2s1-.4,1.7-.4h0c1.2,0,2.1.5,2.5,1.5v-1.3h1.1v7.3c0,1.1-.3,1.9-.9,2.5-.6.6-1.4.9-2.4.9h-.3s0,0,0,0ZM509.4,55.5h.1c.7,0,1.2-.2,1.6-.7.4-.5.6-1.1.6-1.9v-.4c0-.8-.2-1.5-.6-1.9-.4-.5-.9-.7-1.6-.7h-.1c-.7,0-1.2.2-1.6.7s-.6,1.1-.6,1.9v.5c0,.8.2,1.4.6,1.9s.9.7,1.6.7Z"/>
  <path class="cls-3" d="M515.3,47.5v-1.3h1.2v1.3h-1.2ZM515.3,56.5v-7.5h1.2v7.5h-1.2Z"/>
  <path class="cls-3" d="M521.3,56.7c-1.6,0-2.7-.6-3.2-1.7l.9-.5c.2.4.5.7.8.9s.8.3,1.4.3h.2c1.2,0,1.8-.4,1.8-1.1h0c0-.7-.4-1.1-1.2-1.2l-1.7-.2c-.7,0-1.2-.3-1.5-.6-.4-.3-.5-.8-.5-1.4v-.2c0-.6.3-1.1.8-1.5.5-.4,1.2-.6,2-.6h.2c.7,0,1.3.1,1.8.4.5.3.9.7,1.1,1.2l-.9.4c-.3-.7-.9-1-1.9-1h-.2c-.5,0-.9.1-1.2.3s-.4.5-.4.8h0c0,.4,0,.6.3.8.2.2.5.3.9.3l1.7.2c.6,0,1.1.3,1.5.7s.5.8.5,1.4v.2c0,.7-.2,1.2-.7,1.6-.5.4-1.2.5-2.1.5h-.2Z"/>
  <path class="cls-3" d="M529.2,56.6c-.9,0-1.5-.2-1.8-.6-.4-.4-.5-.9-.5-1.6v-4.3h-1.6v-1h1.6v-2.3h1.2v2.3h2.6l-.2,1h-2.4v4.2c0,.5.1.8.3,1,.2.2.5.3,1,.3h1.3v1h-1.4s0,0,0,0Z"/>
  <path class="cls-3" d="M532.3,47.5v-1.3h1.2v1.3h-1.2ZM532.3,56.5v-7.5h1.2v7.5h-1.2Z"/>
  <path class="cls-3" d="M538.9,56.7c-1,0-1.9-.3-2.5-1-.6-.6-.9-1.5-.9-2.7v-.5c0-.8.1-1.4.4-2,.3-.5.7-1,1.2-1.2.5-.3,1.1-.4,1.8-.4h.2c.7,0,1.2.2,1.7.5.5.3.8.7,1,1.2l-.9.4c-.2-.3-.4-.6-.7-.8-.3-.2-.7-.3-1.1-.3h-.1c-.7,0-1.2.2-1.6.7s-.6,1.1-.6,2v.5c0,.9.2,1.5.6,2s1,.7,1.7.7h.1c.5,0,.8,0,1.1-.3s.5-.4.7-.8l.9.5c-.2.5-.6.9-1,1.2-.5.3-1,.4-1.7.4h-.2s0,0,0,0Z"/>
  <path class="cls-3" d="M546.3,56.7c-1.6,0-2.7-.6-3.2-1.7l.9-.5c.2.4.5.7.8.9s.8.3,1.4.3h.2c1.2,0,1.8-.4,1.8-1.1h0c0-.7-.4-1.1-1.2-1.2l-1.7-.2c-.7,0-1.2-.3-1.5-.6-.4-.3-.5-.8-.5-1.4v-.2c0-.6.3-1.1.8-1.5.5-.4,1.2-.6,2-.6h.2c.7,0,1.3.1,1.8.4.5.3.9.7,1.1,1.2l-.9.4c-.3-.7-.9-1-1.9-1h-.2c-.5,0-.9.1-1.2.3s-.4.5-.4.8h0c0,.4,0,.6.3.8.2.2.5.3.9.3l1.7.2c.6,0,1.1.3,1.5.7s.5.8.5,1.4v.2c0,.7-.2,1.2-.7,1.6-.5.4-1.2.5-2.1.5h-.2Z"/>
  <path class="cls-3" d="M551.1,58.6l-.4-.6.4-.3c.2-.1.3-.3.4-.4,0-.1.1-.3.1-.5v-.3h-.6v-1.5h1.4v1.7c0,.3,0,.5,0,.7s-.1.3-.3.4c-.1.1-.3.3-.5.4l-.3.2Z"/>
  <path class="cls-3" d="M560.1,56.7c-.8,0-1.4-.2-1.8-.6s-.6-.9-.6-1.6.2-1.1.6-1.4.9-.6,1.6-.7l2.9-.4h0c0-1.4-.6-2.1-1.8-2.1h-.2c-.9,0-1.6.4-1.9,1.1l-.9-.5c.2-.5.6-.9,1.1-1.2.5-.3,1.1-.4,1.8-.4h.2c.9,0,1.7.2,2.2.7s.7,1.2.7,2.2v4.7h-1.1v-1.3c-.2.5-.6.8-1,1.1s-1,.4-1.6.4h-.1s0,0,0,0ZM562.8,52.8l-2.4.4c-.6,0-1,.2-1.2.4-.2.2-.3.5-.3.9s.1.7.4,1c.3.2.7.3,1.2.3h.1c.7,0,1.2-.2,1.6-.6.4-.4.6-1,.6-1.7,0,0,0-.5,0-.5Z"/>
  <path class="cls-3" d="M566.2,56.5v-7.5h1.1v1.3c.2-.5.5-.8.9-1.1.4-.3.9-.4,1.6-.4h.1c.9,0,1.5.3,2,.8.5.5.8,1.3.8,2.3v4.6h-1.2v-4.4c0-.7-.2-1.3-.5-1.7-.3-.4-.8-.6-1.4-.6h-.1c-.4,0-.8,0-1.1.3s-.6.5-.8.9c-.2.4-.3.8-.3,1.4v4.1h-1.2Z"/>
  <path class="cls-3" d="M577.8,56.7c-.6,0-1.2-.1-1.7-.4s-.9-.7-1.1-1.2c-.3-.5-.4-1.2-.4-2v-.5c0-.8.1-1.4.4-2,.3-.5.7-1,1.1-1.2.5-.3,1-.4,1.7-.4h0c.6,0,1.1.1,1.5.4.4.2.7.6,1,1v-4.4h1.2v10.7h-1.1v-1.3c-.2.4-.6.8-1,1.1-.4.3-.9.4-1.6.4h0ZM578,55.7h.1c.4,0,.8,0,1.1-.3.3-.2.6-.5.8-.9.2-.4.3-.9.3-1.5v-.5c0-.6-.1-1.1-.3-1.5-.2-.4-.5-.7-.8-.9-.3-.2-.7-.3-1.1-.3h-.1c-.6,0-1.2.2-1.6.6s-.6,1.1-.6,2v.5c0,.9.2,1.6.6,2s1,.6,1.6.6Z"/>
  <path class="cls-3" d="M587.8,56.5v-10.3h1.4l4,8.6,3.9-8.6h1.4v10.3h-1.2v-8.1l-3.7,8.1h-.9l-3.7-8.1v8.1h-1.2Z"/>
  <path class="cls-3" d="M604,56.7c-.6,0-1.2-.1-1.7-.4s-.9-.7-1.2-1.3c-.3-.5-.4-1.2-.4-2v-.5c0-.8.1-1.4.4-2,.3-.5.7-1,1.2-1.3s1.1-.4,1.7-.4h.1c.7,0,1.2.1,1.8.4.5.3.9.7,1.2,1.2.3.5.4,1.2.4,2v.5c0,.8-.1,1.4-.4,2-.3.5-.7,1-1.2,1.2-.5.3-1.1.4-1.8.4h-.1ZM604,55.7h.1c.6,0,1.2-.2,1.6-.7s.7-1.1.7-2v-.5c0-.9-.2-1.5-.7-2s-1-.7-1.6-.7h-.1c-.6,0-1.2.2-1.6.7s-.7,1.1-.7,2v.5c0,.9.2,1.5.7,2s1,.7,1.6.7Z"/>
  <path class="cls-3" d="M609.5,56.5v-7.5h1.1v1.6c.2-.5.4-.9.8-1.2.4-.3.9-.4,1.6-.4h.7v1.1h-.7c-.6,0-1.2.2-1.6.7s-.6,1.1-.6,2v3.8h-1.2Z"/>
  <path class="cls-3" d="M617.9,56.7c-1,0-1.8-.3-2.4-1-.6-.6-.9-1.5-.9-2.7v-.5c0-.8.1-1.4.4-1.9.3-.5.7-1,1.2-1.3.5-.3,1.1-.4,1.8-.4h.1c.7,0,1.2.1,1.7.4s.8.7,1.1,1.2c.3.5.4,1.1.4,1.8v.9h-5.5c0,.9.2,1.5.6,2,.4.4.9.6,1.6.6h.2c.5,0,.9,0,1.2-.3.3-.2.6-.4.7-.8l.9.5c-.3.5-.6.8-1.1,1.1-.5.3-1.1.4-1.7.4h-.2ZM615.7,52.2h4.3v-.2c0-.7-.2-1.3-.5-1.6s-.9-.6-1.5-.6h-.1c-.6,0-1.1.2-1.5.6-.4.4-.6,1-.7,1.8h0Z"/>
  <rect class="cls-1" x="76.2" y="298.7" width="214.5" height="70.6"/>
  <path class="cls-3" d="M110.7,341.7v-16.8h2.4l8.6,12.2v-12.2h2.6v16.8h-2.4l-8.6-12.2v12.2h-2.6Z"/>
  <path class="cls-3" d="M133.1,341.7l-6.3-16.8h3l4.7,13.4,4.7-13.4h2.8l-6.4,16.8h-2.4Z"/>
  <path class="cls-3" d="M144.3,341.7v-16.8h2.8v16.8h-2.8Z"/>
  <path class="cls-3" d="M151.4,341.7v-16.8h6.4c1.7,0,3.1.3,4.2,1,1.1.6,2,1.5,2.6,2.7.6,1.2.9,2.6.9,4.2v1c0,2.5-.7,4.4-2,5.8-1.3,1.4-3.2,2.1-5.7,2.1h-6.4ZM154.1,339.4h3.6c1.6,0,2.9-.5,3.7-1.4s1.3-2.3,1.3-4.1v-1.1c0-1.8-.4-3.1-1.3-4.1s-2.1-1.4-3.7-1.4h-3.6v12.1Z"/>
  <path class="cls-3" d="M169,341.7v-16.8h2.8v16.8h-2.8Z"/>
  <path class="cls-3" d="M174.3,341.7l6.6-16.8h2.5l6.6,16.8h-3l-1.4-3.8h-7.1l-1.4,3.8h-2.8ZM179.3,335.7h5.4l-2.7-7.2-2.7,7.2Z"/>
  <path class="cls-3" d="M205.6,342.1c-2.6,0-4.5-.7-5.8-2.1s-2-3.4-2-6.1v-1c0-1.7.3-3.2.9-4.4s1.5-2.2,2.6-2.8c1.1-.7,2.5-1,4-1h.3c1.6,0,2.9.3,4,1,1.1.7,1.9,1.6,2.3,2.9l-2.5.9c-.5-1.6-1.8-2.4-3.8-2.4h-.2c-1.5,0-2.7.5-3.5,1.5-.8,1-1.2,2.4-1.2,4.3v1.1c0,3.8,1.7,5.7,5,5.7h.2c.7,0,1.4,0,2-.2.6-.1,1.2-.3,1.6-.6v-3.9h-3.9l.3-2.3h6.2v7.5c-.8.6-1.7,1.1-2.7,1.4-1.1.3-2.3.5-3.5.5h-.2Z"/>
  <path class="cls-3" d="M215.8,341.7v-16.8h6.2c1.9,0,3.4.5,4.5,1.4,1.1.9,1.7,2.2,1.7,3.8v.5c0,1.7-.6,3-1.7,3.9-1.1.9-2.6,1.4-4.5,1.4h-3.4v5.9h-2.8ZM218.5,333.5h3.3c1.1,0,1.9-.2,2.5-.7.6-.4.9-1.2.9-2.1v-.6c0-.9-.3-1.6-.9-2.1-.6-.4-1.5-.7-2.5-.7h-3.3v6.2Z"/>
  <path class="cls-3" d="M244.5,324.9v10.2c0,2.2-.6,3.9-1.7,5.1-1.1,1.2-2.8,1.8-4.9,1.8h-.3c-2.1,0-3.8-.6-4.9-1.8-1.1-1.2-1.7-2.9-1.7-5.1v-10.2h2.8v10.3c0,1.5.3,2.6,1,3.4.7.7,1.6,1.1,2.9,1.1h.2c1.2,0,2.2-.4,2.9-1.1.7-.7,1-1.8,1-3.4v-10.3h2.7Z"/>
  <path class="cls-3" d="M252.2,342.1c-2.8,0-4.6-.9-5.3-2.8l2.1-1.1c.3.6.7,1,1.2,1.3s1.2.4,2.1.4h.3c1.6,0,2.5-.5,2.5-1.5h0c0-.9-.5-1.4-1.6-1.6l-2.6-.4c-1.1-.2-2-.5-2.6-1.1-.6-.6-.9-1.4-.9-2.3v-.3c0-1.1.4-2,1.3-2.7.9-.7,2-1,3.5-1h.3c1.2,0,2.2.2,3.1.7.8.5,1.4,1.1,1.8,2l-2.1.9c-.4-1-1.4-1.5-2.8-1.5h-.3c-.7,0-1.3.1-1.6.4-.4.3-.6.6-.6,1.1h0c0,.5.1.8.3,1,.2.2.6.4,1.2.4l2.7.4c1.1.2,2,.6,2.6,1.2.6.6.9,1.4.9,2.4v.3c0,1.2-.4,2.1-1.3,2.7-.8.6-2.1.9-3.7.9h-.3Z"/>
  <rect class="cls-1" x="304.4" y="298.7" width="469.4" height="70.6"/>
  <path class="cls-3" d="M439.6,334.3c-1.6,0-2.9-.3-4.1-1-1.1-.7-2-1.6-2.6-2.9s-.9-2.7-.9-4.3v-1c0-1.7.3-3.1.9-4.3.6-1.2,1.5-2.2,2.6-2.9,1.1-.7,2.5-1,4.1-1h.3c1.6,0,3,.3,4.1,1,1.1.7,2,1.6,2.6,2.9.6,1.2.9,2.7.9,4.3v1c0,2.5-.7,4.5-2,6l2.1,2.3-1.8,1.6-2.3-2.5c-1.1.5-2.3.8-3.7.8h-.3ZM439.7,331.9h.2c.7,0,1.3-.1,1.9-.3l-2.3-2.5,1.8-1.6,2.4,2.6c.7-1,1-2.3,1-3.9v-1.2c0-1.8-.4-3.3-1.3-4.3-.9-1-2-1.5-3.5-1.5h-.2c-1.5,0-2.7.5-3.5,1.5-.9,1-1.3,2.4-1.3,4.3v1.2c0,1.8.4,3.3,1.3,4.3.9,1,2,1.5,3.5,1.5Z"/>
  <path class="cls-3" d="M454.9,334.3c-1.4,0-2.4-.4-3.3-1.3-.8-.9-1.2-2.1-1.2-3.7v-7.6h2.6v7.2c0,1,.2,1.8.6,2.3.4.5,1,.8,1.9.8h.2c.5,0,1-.1,1.4-.4s.8-.7,1.1-1.2c.3-.5.4-1.2.4-2v-6.8h2.6v12.3h-2.4v-1.8c-.4.7-.9,1.2-1.5,1.6-.6.4-1.4.6-2.3.6h-.2Z"/>
  <path class="cls-3" d="M468.1,334.3c-1.3,0-2.3-.3-3.1-1-.7-.6-1.1-1.6-1.1-2.7s.3-1.8.9-2.5c.6-.6,1.6-1,2.8-1.2l4.3-.6h0c0-1.9-.8-2.8-2.5-2.8h-.3c-.7,0-1.3.1-1.7.4-.5.2-.8.7-1.1,1.3l-2-1.1c.4-.8,1-1.5,1.8-2,.8-.5,1.9-.7,3.1-.7h.4c1.6,0,2.9.4,3.7,1.2.8.8,1.3,2,1.3,3.6v7.8h-2.3v-1.9c-.4.7-.9,1.2-1.6,1.6-.7.4-1.5.6-2.5.6h-.2ZM472.1,328.2l-3.3.5c-.8.1-1.4.3-1.7.6-.3.3-.5.7-.5,1.2s.2,1,.6,1.3.9.5,1.6.5h.2c.9,0,1.7-.3,2.3-.9.6-.6.8-1.4.8-2.3v-.8Z"/>
  <path class="cls-3" d="M478,334v-12.3h2.3v1.9c.4-.7.9-1.2,1.6-1.6.7-.4,1.5-.6,2.4-.6h.2c1.4,0,2.5.4,3.3,1.3.8.9,1.2,2.1,1.2,3.7v7.6h-2.6v-7.2c0-1-.2-1.8-.6-2.3-.4-.5-1.1-.8-2-.8h-.2c-.5,0-1,.1-1.5.4-.5.3-.8.6-1.1,1.2s-.4,1.2-.4,2v6.8h-2.6Z"/>
  <path class="cls-3" d="M497.8,334.1c-1.6,0-2.7-.3-3.3-1-.7-.7-1-1.7-1-3v-6.2h-2.6v-2.2h2.6v-3.6h2.6v3.6h4l-.3,2.2h-3.7v6.1c0,.7.2,1.2.5,1.5.3.3.8.4,1.4.4h2.1v2.2h-2.4Z"/>
  <path class="cls-3" d="M507,334.3c-1.4,0-2.4-.4-3.3-1.3-.8-.9-1.2-2.1-1.2-3.7v-7.6h2.6v7.2c0,1,.2,1.8.6,2.3.4.5,1,.8,1.9.8h.2c.5,0,1-.1,1.4-.4s.8-.7,1.1-1.2c.3-.5.4-1.2.4-2v-6.8h2.6v12.3h-2.4v-1.8c-.4.7-.9,1.2-1.5,1.6-.6.4-1.4.6-2.3.6h-.2Z"/>
  <path class="cls-3" d="M516.8,334v-12.3h2.3v1.8c.4-.7.9-1.2,1.5-1.6.6-.4,1.3-.6,2.2-.6h.2c1.9,0,3.1.8,3.8,2.3.4-.7.9-1.3,1.6-1.7.7-.4,1.4-.6,2.3-.6h.2c1.3,0,2.4.4,3.2,1.3.8.9,1.2,2.1,1.2,3.7v7.6h-2.6v-7.2c0-1-.2-1.8-.6-2.3-.4-.5-1-.8-1.8-.8h-.2c-.4,0-.9.1-1.3.4-.4.3-.8.6-1,1.2-.3.5-.4,1.2-.4,2v6.8h-2.6v-7.2c0-1-.2-1.8-.6-2.3-.4-.5-1-.8-1.8-.8h-.2c-.4,0-.9.1-1.3.4-.4.3-.8.6-1,1.2s-.4,1.2-.4,2v6.8h-2.6Z"/>
  <path class="cls-3" d="M545.1,334v-16.8h6c2,0,3.5.4,4.6,1.3,1.1.9,1.7,2.1,1.7,3.7v.5c0,1.1-.3,2.1-.9,2.9-.6.8-1.4,1.3-2.5,1.7l3.8,6.8h-3l-3.6-6.4h-3.4v6.4h-2.8ZM547.9,325.2h3.2c1.1,0,2-.2,2.6-.6.6-.4.9-1.1.9-1.9v-.6c0-.9-.3-1.5-.9-1.9-.6-.4-1.5-.6-2.6-.6h-3.2v5.7Z"/>
  <path class="cls-3" d="M565.2,334.3c-1.8,0-3.2-.5-4.2-1.6-1-1-1.5-2.5-1.5-4.5v-.8c0-1.9.5-3.4,1.5-4.5,1-1.1,2.4-1.6,4.2-1.6h.2c1.7,0,3,.5,4,1.6,1,1,1.5,2.4,1.5,4.2v1.5h-8.7c0,1.2.3,2.1.9,2.7.5.6,1.3.9,2.2.9h.4c.7,0,1.3-.1,1.8-.4s.9-.6,1.1-1.1l1.9,1.2c-.4.7-1.1,1.3-1.9,1.7s-1.8.6-3,.6h-.4ZM562.1,326.7h6.1v-.2c0-1-.3-1.7-.8-2.3-.5-.5-1.2-.8-2.1-.8h-.2c-.9,0-1.6.3-2.1.8-.5.5-.9,1.3-.9,2.4Z"/>
  <path class="cls-3" d="M578,334.3c-2.8,0-4.6-.9-5.3-2.8l2.1-1.1c.3.6.7,1,1.2,1.3s1.2.4,2.1.4h.3c1.6,0,2.5-.5,2.5-1.5h0c0-.9-.5-1.4-1.6-1.6l-2.6-.4c-1.1-.2-2-.5-2.6-1.1-.6-.6-.9-1.4-.9-2.3v-.3c0-1.1.4-2,1.3-2.7.9-.7,2-1,3.5-1h.3c1.2,0,2.2.2,3.1.7.8.5,1.4,1.1,1.8,2l-2.1.9c-.4-1-1.4-1.5-2.8-1.5h-.3c-.7,0-1.3.1-1.6.4-.4.3-.6.6-.6,1.1h0c0,.5.1.8.3,1,.2.2.6.4,1.2.4l2.7.4c1.1.2,2,.6,2.6,1.2.6.6.9,1.4.9,2.4v.3c0,1.2-.4,2.1-1.3,2.7-.8.6-2.1.9-3.7.9h-.3Z"/>
  <path class="cls-3" d="M591,334.3c-1.1,0-2.1-.2-3-.7-.9-.5-1.6-1.2-2.1-2.1s-.8-2-.8-3.3v-.8c0-1.3.3-2.4.8-3.3.5-.9,1.2-1.6,2.1-2.1s1.9-.7,3-.7h.2c1.1,0,2.1.2,3,.7s1.6,1.2,2.1,2.1c.5.9.8,2,.8,3.3v.8c0,1.3-.3,2.4-.8,3.3-.5.9-1.2,1.6-2.1,2.1-.9.5-1.9.7-3,.7h-.2ZM591,332h.2c.9,0,1.7-.3,2.3-.9s.9-1.6.9-2.8v-.9c0-1.3-.3-2.2-.9-2.8-.6-.6-1.4-.9-2.3-.9h-.2c-.9,0-1.6.3-2.3.9-.6.6-.9,1.6-.9,2.8v.9c0,1.3.3,2.2.9,2.8s1.4.9,2.3.9Z"/>
  <path class="cls-3" d="M604.2,334.3c-1.4,0-2.4-.4-3.3-1.3-.8-.9-1.2-2.1-1.2-3.7v-7.6h2.6v7.2c0,1,.2,1.8.6,2.3.4.5,1,.8,1.9.8h.2c.5,0,1-.1,1.4-.4s.8-.7,1.1-1.2c.3-.5.4-1.2.4-2v-6.8h2.6v12.3h-2.4v-1.8c-.4.7-.9,1.2-1.5,1.6-.6.4-1.4.6-2.3.6h-.2Z"/>
  <path class="cls-3" d="M614,334v-12.3h2.3v2.3c.3-.8.7-1.4,1.3-1.8s1.3-.7,2.3-.7h1.2v2.5h-1.2c-.6,0-1.1.1-1.6.4-.5.3-.9.7-1.2,1.2s-.5,1.3-.5,2.2v6.2h-2.6Z"/>
  <path class="cls-3" d="M628.3,334.3c-1.8,0-3.2-.5-4.3-1.6-1-1-1.6-2.5-1.6-4.5v-.8c0-1.3.2-2.4.7-3.3.5-.9,1.2-1.6,2.1-2.1s1.9-.7,3.1-.7h.2c1.1,0,2.1.3,2.9.8.8.5,1.4,1.3,1.7,2.2l-2.1.9c-.2-.5-.6-.9-1-1.2-.4-.3-.9-.4-1.5-.4h-.2c-.9,0-1.7.3-2.3.9-.6.6-.9,1.6-.9,2.8v.9c0,1.3.3,2.2.9,2.9.6.6,1.4.9,2.3.9h.2c.6,0,1.2-.1,1.6-.4.4-.3.8-.7,1-1.1l2.1,1.1c-.4.8-.9,1.5-1.8,2-.8.5-1.8.8-2.9.8h-.2Z"/>
  <path class="cls-3" d="M640.9,334.3c-1.8,0-3.2-.5-4.2-1.6-1-1-1.5-2.5-1.5-4.5v-.8c0-1.9.5-3.4,1.5-4.5,1-1.1,2.4-1.6,4.2-1.6h.2c1.7,0,3,.5,4,1.6,1,1,1.5,2.4,1.5,4.2v1.5h-8.7c0,1.2.3,2.1.9,2.7.5.6,1.3.9,2.2.9h.4c.7,0,1.3-.1,1.8-.4s.9-.6,1.1-1.1l1.9,1.2c-.4.7-1.1,1.3-1.9,1.7s-1.8.6-3,.6h-.4ZM637.8,326.7h6.1v-.2c0-1-.3-1.7-.8-2.3-.5-.5-1.2-.8-2.1-.8h-.2c-.9,0-1.6.3-2.1.8-.5.5-.9,1.3-.9,2.4Z"/>
  <path class="cls-3" d="M420,354.3v-10.3h1.1l5.8,8.2v-8.2h1.2v10.3h-1.1l-5.8-8.2v8.2h-1.2Z"/>
  <path class="cls-3" d="M433.6,354.3l-3.9-10.3h1.3l3.2,8.7,3.2-8.7h1.2l-3.9,10.3h-1.1Z"/>
  <path class="cls-3" d="M440.2,354.3v-10.3h1.2v10.3h-1.2Z"/>
  <path class="cls-3" d="M444.2,354.3v-10.3h3.7c1.5,0,2.6.4,3.4,1.3s1.2,2,1.2,3.5v.7c0,1.5-.4,2.7-1.2,3.5s-2,1.3-3.4,1.3h-3.7ZM445.4,353.2h2.5c1.1,0,2-.3,2.6-1,.6-.6.9-1.6.9-2.8v-.7c0-1.2-.3-2.1-.9-2.8-.6-.6-1.4-.9-2.6-.9h-2.5v8.2Z"/>
  <path class="cls-3" d="M454.9,354.3v-10.3h1.2v10.3h-1.2Z"/>
  <path class="cls-3" d="M457.7,354.3l4.1-10.3h1.1l4.1,10.3h-1.3l-1-2.5h-4.8l-1,2.5h-1.2ZM460.4,350.7h4l-2-5.2-2,5.2Z"/>
  <path class="cls-3" d="M475.3,354.4c-1,0-1.9-.3-2.5-1-.6-.6-.9-1.5-.9-2.7v-.5c0-.8.1-1.4.4-2,.3-.5.7-1,1.2-1.2.5-.3,1.1-.4,1.8-.4h.2c.7,0,1.2.2,1.7.5s.8.7,1,1.2l-.9.4c-.2-.3-.4-.6-.7-.8-.3-.2-.7-.3-1.1-.3h-.1c-.7,0-1.2.2-1.6.7s-.6,1.1-.6,2v.5c0,.9.2,1.5.6,2s1,.7,1.7.7h.1c.5,0,.8,0,1.1-.3.3-.2.5-.4.7-.8l.9.5c-.2.5-.6.9-1,1.2-.5.3-1,.4-1.7.4h-.2Z"/>
  <path class="cls-3" d="M482.6,354.4c-.8,0-1.5-.3-2-.8-.5-.5-.7-1.3-.7-2.3v-4.6h1.2v4.4c0,.7.2,1.3.5,1.7.3.4.8.6,1.3.6h.1c.4,0,.7,0,1-.3.3-.2.6-.5.8-.9.2-.4.3-.8.3-1.4v-4.1h1.2v7.5h-1.1v-1.3c-.2.5-.5.8-.9,1.1-.4.3-.9.4-1.5.4h-.1Z"/>
  <path class="cls-3" d="M492.9,354.4c-1,0-1.8-.2-2.4-.6-.7-.4-1.2-1-1.5-1.7-.4-.7-.5-1.6-.5-2.6v-.6c0-1,.2-1.9.5-2.6.4-.7.9-1.3,1.5-1.8.7-.4,1.5-.6,2.4-.6h.2c.9,0,1.8.2,2.4.6.7.4,1.2,1,1.5,1.8s.5,1.6.5,2.6v.6c0,1.6-.4,2.9-1.3,3.8l1.3,1.4-.8.7-1.4-1.5c-.7.4-1.5.6-2.3.6h-.2ZM492.9,353.4h.2c.6,0,1.1-.1,1.6-.4l-1.6-1.7.8-.7,1.6,1.8c.6-.7.9-1.7.9-2.9v-.7c0-1.2-.3-2.2-.9-2.8-.6-.7-1.4-1-2.4-1h-.2c-1,0-1.8.3-2.4,1-.6.7-.9,1.6-.9,2.8v.7c0,1.2.3,2.2.9,2.8.6.7,1.4,1,2.4,1Z"/>
  <path class="cls-3" d="M502.2,354.4c-.8,0-1.5-.3-2-.8-.5-.5-.7-1.3-.7-2.3v-4.6h1.2v4.4c0,.7.2,1.3.5,1.7.3.4.8.6,1.3.6h.1c.4,0,.7,0,1-.3.3-.2.6-.5.8-.9.2-.4.3-.8.3-1.4v-4.1h1.2v7.5h-1.1v-1.3c-.2.5-.5.8-.9,1.1-.4.3-.9.4-1.5.4h-.1Z"/>
  <path class="cls-3" d="M510.2,354.4c-.8,0-1.4-.2-1.8-.6s-.6-.9-.6-1.6.2-1.1.6-1.4c.4-.4.9-.6,1.6-.7l2.9-.4h0c0-1.4-.6-2.1-1.8-2.1h-.2c-.9,0-1.6.4-1.9,1.1l-.9-.5c.2-.5.6-.9,1.1-1.2.5-.3,1.1-.4,1.8-.4h.2c.9,0,1.7.2,2.2.7s.7,1.2.7,2.2v4.7h-1.1v-1.3c-.2.5-.6.8-1,1.1s-1,.4-1.6.4h-.1ZM512.8,350.6l-2.4.4c-.6,0-1,.2-1.2.4-.2.2-.3.5-.3.9s.1.7.4,1c.3.2.7.3,1.2.3h.1c.7,0,1.2-.2,1.6-.6s.6-1,.6-1.7v-.5Z"/>
  <path class="cls-3" d="M516.2,354.3v-7.5h1.1v1.3c.2-.5.5-.8.9-1.1.4-.3.9-.4,1.6-.4h.1c.9,0,1.5.3,2,.8.5.5.8,1.3.8,2.3v4.6h-1.2v-4.4c0-.7-.2-1.3-.5-1.7-.3-.4-.8-.6-1.4-.6h-.1c-.4,0-.8,0-1.1.3-.3.2-.6.5-.8.9-.2.4-.3.8-.3,1.4v4.1h-1.2Z"/>
  <path class="cls-3" d="M527.8,354.3c-.9,0-1.5-.2-1.8-.6-.4-.4-.5-.9-.5-1.6v-4.3h-1.6v-1h1.6v-2.3h1.2v2.3h2.6l-.2,1h-2.4v4.2c0,.5.1.8.3,1,.2.2.5.3,1,.3h1.3v1h-1.4Z"/>
  <path class="cls-3" d="M533.5,354.4c-.8,0-1.5-.3-2-.8-.5-.5-.7-1.3-.7-2.3v-4.6h1.2v4.4c0,.7.2,1.3.5,1.7.3.4.8.6,1.3.6h.1c.4,0,.7,0,1-.3.3-.2.6-.5.8-.9.2-.4.3-.8.3-1.4v-4.1h1.2v7.5h-1.1v-1.3c-.2.5-.5.8-.9,1.1-.4.3-.9.4-1.5.4h-.1Z"/>
  <path class="cls-3" d="M539.5,354.3v-7.5h1.1v1.3c.2-.5.5-.8.9-1.1.4-.3.8-.4,1.4-.4h.1c1.2,0,2,.5,2.4,1.6.2-.5.5-.9.9-1.2s.9-.4,1.5-.4h.1c.8,0,1.5.3,1.9.8s.7,1.3.7,2.3v4.6h-1.2v-4.4c0-.7-.1-1.3-.4-1.7-.3-.4-.7-.6-1.3-.6h-.1c-.3,0-.7,0-1,.3-.3.2-.5.5-.7.9-.2.4-.3.8-.3,1.4v4.1h-1.2v-4.4c0-.7-.1-1.3-.4-1.7-.3-.4-.7-.6-1.3-.6h-.1c-.3,0-.6,0-.9.3-.3.2-.5.5-.7.9-.2.4-.3.8-.3,1.4v4.1h-1.2Z"/>
  <path class="cls-3" d="M559.6,354.4c-.6,0-1.2-.1-1.7-.4-.5-.3-.9-.7-1.2-1.3-.3-.5-.4-1.2-.4-2v-.5c0-.8.1-1.4.4-2,.3-.5.7-1,1.2-1.3s1.1-.4,1.7-.4h.1c.7,0,1.2.1,1.8.4.5.3.9.7,1.2,1.2.3.5.4,1.2.4,2v.5c0,.8-.1,1.4-.4,2s-.7,1-1.2,1.2c-.5.3-1.1.4-1.8.4h-.1ZM559.6,353.4h.1c.6,0,1.2-.2,1.6-.7s.7-1.1.7-2v-.5c0-.9-.2-1.5-.7-2s-1-.7-1.6-.7h-.1c-.6,0-1.2.2-1.6.7s-.7,1.1-.7,2v.5c0,.9.2,1.5.7,2s1,.7,1.6.7Z"/>
  <path class="cls-3" d="M565.1,354.3v-7.5h1.1v1.6c.2-.5.4-.9.8-1.2.4-.3.9-.4,1.6-.4h.7v1.1h-.7c-.6,0-1.2.2-1.6.7s-.6,1.1-.6,2v3.8h-1.2Z"/>
  <path class="cls-3" d="M574.9,354.3v-10.3h3.6c1.2,0,2.1.3,2.7.8.6.5,1,1.3,1,2.2v.4c0,1-.3,1.7-1,2.2-.7.5-1.5.8-2.7.8h-2.4v3.9h-1.2ZM576.1,349.3h2.4c.8,0,1.4-.2,1.8-.5.4-.3.6-.8.6-1.5v-.4c0-.7-.2-1.1-.6-1.5s-1-.5-1.8-.5h-2.4v4.3Z"/>
  <path class="cls-3" d="M585.4,354.4c-.8,0-1.4-.2-1.8-.6s-.6-.9-.6-1.6.2-1.1.6-1.4c.4-.4.9-.6,1.6-.7l2.9-.4h0c0-1.4-.6-2.1-1.8-2.1h-.2c-.9,0-1.6.4-1.9,1.1l-.9-.5c.2-.5.6-.9,1.1-1.2.5-.3,1.1-.4,1.8-.4h.2c.9,0,1.7.2,2.2.7s.7,1.2.7,2.2v4.7h-1.1v-1.3c-.2.5-.6.8-1,1.1s-1,.4-1.6.4h-.1ZM588,350.6l-2.4.4c-.6,0-1,.2-1.2.4-.2.2-.3.5-.3.9s.1.7.4,1c.3.2.7.3,1.2.3h.1c.7,0,1.2-.2,1.6-.6s.6-1,.6-1.7v-.5Z"/>
  <path class="cls-3" d="M591.4,354.3v-7.5h1.1v1.6c.2-.5.4-.9.8-1.2.4-.3.9-.4,1.6-.4h.7v1.1h-.7c-.6,0-1.2.2-1.6.7s-.6,1.1-.6,2v3.8h-1.2Z"/>
  <path class="cls-3" d="M600.4,354.3c-.9,0-1.5-.2-1.8-.6-.4-.4-.5-.9-.5-1.6v-4.3h-1.6v-1h1.6v-2.3h1.2v2.3h2.6l-.2,1h-2.4v4.2c0,.5.1.8.3,1,.2.2.5.3,1,.3h1.3v1h-1.4Z"/>
  <path class="cls-3" d="M603.6,354.3v-7.5h1.1v1.3c.2-.5.5-.8.9-1.1.4-.3.9-.4,1.6-.4h.1c.9,0,1.5.3,2,.8.5.5.8,1.3.8,2.3v4.6h-1.2v-4.4c0-.7-.2-1.3-.5-1.7-.3-.4-.8-.6-1.4-.6h-.1c-.4,0-.8,0-1.1.3-.3.2-.6.5-.8.9-.2.4-.3.8-.3,1.4v4.1h-1.2Z"/>
  <path class="cls-3" d="M615.3,354.4c-1,0-1.8-.3-2.4-1-.6-.6-.9-1.5-.9-2.7v-.5c0-.8.1-1.4.4-1.9.3-.5.7-1,1.2-1.3.5-.3,1.1-.4,1.8-.4h.1c.7,0,1.2.1,1.7.4.5.3.8.7,1.1,1.2.3.5.4,1.1.4,1.8v.9h-5.5c0,.9.2,1.5.6,2s.9.6,1.6.6h.2c.5,0,.9,0,1.2-.3.3-.2.6-.4.7-.8l.9.5c-.3.5-.6.8-1.1,1.1-.5.3-1.1.4-1.7.4h-.2ZM613.1,349.9h4.3v-.2c0-.7-.2-1.3-.5-1.6s-.9-.6-1.5-.6h-.1c-.6,0-1.1.2-1.5.6-.4.4-.6,1-.7,1.8Z"/>
  <path class="cls-3" d="M620.5,354.3v-7.5h1.1v1.6c.2-.5.4-.9.8-1.2.4-.3.9-.4,1.6-.4h.7v1.1h-.7c-.6,0-1.2.2-1.6.7s-.6,1.1-.6,2v3.8h-1.2Z"/>
  <path class="cls-3" d="M634.3,354.4c-1,0-1.8-.2-2.4-.6-.7-.4-1.2-1-1.5-1.7-.4-.7-.5-1.6-.5-2.6v-.6c0-1,.2-1.9.5-2.6.4-.7.9-1.3,1.5-1.8.7-.4,1.5-.6,2.4-.6h.2c.9,0,1.8.2,2.4.6.7.4,1.2,1,1.5,1.8s.5,1.6.5,2.6v.6c0,1.6-.4,2.9-1.3,3.8l1.3,1.4-.8.7-1.4-1.5c-.7.4-1.5.6-2.3.6h-.2ZM634.3,353.4h.2c.6,0,1.1-.1,1.6-.4l-1.6-1.7.8-.7,1.6,1.8c.6-.7.9-1.7.9-2.9v-.7c0-1.2-.3-2.2-.9-2.8-.6-.7-1.4-1-2.4-1h-.2c-1,0-1.8.3-2.4,1-.6.7-.9,1.6-.9,2.8v.7c0,1.2.3,2.2.9,2.8.6.7,1.4,1,2.4,1Z"/>
  <path class="cls-3" d="M641.3,354.3v-10.3h3.6c1.2,0,2.1.3,2.7.8.6.5,1,1.3,1,2.2v.4c0,1-.3,1.7-1,2.2-.7.5-1.5.8-2.7.8h-2.4v3.9h-1.2ZM642.5,349.3h2.4c.8,0,1.4-.2,1.8-.5.4-.3.6-.8.6-1.5v-.4c0-.7-.2-1.1-.6-1.5s-1-.5-1.8-.5h-2.4v4.3Z"/>
  <path class="cls-3" d="M658.5,344v6.3c0,1.3-.3,2.4-1,3.1-.7.7-1.6,1.1-2.9,1.1h-.2c-1.3,0-2.2-.4-2.9-1.1-.7-.7-1-1.8-1-3.1v-6.3h1.2v6.3c0,1,.2,1.8.7,2.3s1.1.8,2,.8h.2c.9,0,1.6-.3,2-.8.5-.5.7-1.3.7-2.3v-6.3h1.2Z"/>
</svg>