<?xml version="1.0" encoding="UTF-8"?>
<svg id="Layer_1" data-name="Layer 1" xmlns="http://www.w3.org/2000/svg" version="1.1" viewBox="0 0 1920 869.6">
  <defs>
    <style>
      .cls-1 {
        fill: #8c8c8c;
      }

      .cls-1, .cls-2, .cls-3, .cls-4 {
        stroke-width: 0px;
      }

      .cls-2 {
        fill: #76b900;
      }

      .cls-3 {
        fill: #fff;
      }

      .cls-4 {
        fill: #231f20;
      }
    </style>
  </defs>
  <g id="Layer_1-2" data-name="Layer 1">
    <rect class="cls-4" x="110.8" y="-2.4" width="1700" height="192"/>
    <rect class="cls-2" x="110.8" y="441.6" width="1700" height="192"/>
    <rect class="cls-2" x="110.8" y="663.6" width="1700" height="192"/>
    <rect class="cls-1" x="110.8" y="219.6" width="1700" height="192"/>
  </g>
  <g id="Layer_3" data-name="Layer 3">
    <path class="cls-3" d="M432.8,112.5c-4.1,0-7.6-.8-10.5-2.5-2.9-1.7-5.1-4.1-6.7-7.1-1.5-3.1-2.3-6.7-2.3-11v-2.4c0-4.2.8-7.9,2.3-11,1.5-3.1,3.8-5.5,6.7-7.1,2.9-1.7,6.4-2.5,10.5-2.5h.6c4.1,0,7.6.8,10.5,2.5,2.9,1.7,5.1,4.1,6.7,7.1,1.5,3.1,2.3,6.7,2.3,11v2.4c0,6-1.5,10.8-4.6,14.5l5.5,5.9-5.6,5.2-6-6.5c-2.6,1.1-5.5,1.6-8.7,1.6h-.6ZM432.8,104.8h.5c1,0,2,0,2.9-.3l-4.7-5.2,5.6-5.2,5.2,5.7c1.1-2,1.7-4.6,1.7-7.8v-2.8c0-4.3-1-7.5-2.9-9.6-1.9-2.1-4.6-3.2-7.8-3.2h-.5c-3.3,0-5.9,1.1-7.8,3.2-1.9,2.1-2.9,5.3-2.9,9.6v2.8c0,4.3,1,7.5,2.9,9.6,1.9,2.1,4.5,3.2,7.8,3.2h0Z"/>
    <path class="cls-3" d="M470.6,112.5c-3.4,0-6.1-1.1-8.1-3.3-2-2.2-3-5.3-3-9.3v-19.2h8.4v18.1c0,2.1.4,3.7,1.2,4.8.8,1.1,2.1,1.7,3.8,1.7h.5c1,0,1.9-.3,2.8-.8.9-.5,1.6-1.3,2.2-2.4.6-1.1.9-2.5.9-4.2v-17.2h8.4v31h-7.3v-3.8c-1,1.5-2.3,2.7-3.8,3.5-1.6.8-3.3,1.2-5.2,1.2h-.6Z"/>
    <path class="cls-3" d="M504.3,112.5c-3.3,0-5.9-.8-7.7-2.5-1.8-1.6-2.7-3.9-2.7-6.9s.8-4.9,2.5-6.5c1.7-1.6,4.1-2.7,7.2-3.1l9.7-1.3v-.2c0-3.6-1.7-5.5-5-5.5h-.6c-1.5,0-2.7.3-3.7.8-1,.5-1.8,1.5-2.5,2.9l-6.4-3.4c.9-2.1,2.5-3.8,4.6-5.1,2.2-1.3,4.8-1.9,8-1.9h.9c8.8,0,13.1,4.1,13.1,12.3v19.5h-7.3v-3.9c-1,1.5-2.3,2.6-4,3.5-1.7.8-3.6,1.3-5.8,1.3h-.3ZM513.3,97.9l-6.4.9c-1.8.3-3.1.7-3.8,1.2-.7.5-1.1,1.3-1.1,2.4s.4,1.9,1.2,2.6c.8.6,1.9.9,3.3.9h.5c2,0,3.6-.6,4.7-1.7,1.1-1.2,1.7-2.7,1.7-4.7v-1.5h0Z"/>
    <path class="cls-3" d="M529.1,111.7v-31h7.3v3.8c1-1.5,2.4-2.6,4-3.4,1.6-.8,3.4-1.2,5.4-1.2h.6c3.5,0,6.3,1.1,8.4,3.3,2.1,2.2,3.1,5.3,3.1,9.3v19.2h-8.4v-18.1c0-2.1-.4-3.7-1.3-4.8-.9-1.1-2.2-1.7-4-1.7h-.5c-1,0-2,.3-2.9.8-.9.5-1.7,1.3-2.3,2.4-.6,1.1-.9,2.5-.9,4.3v17.2h-8.4Z"/>
    <path class="cls-3" d="M580.2,112c-4.3,0-7.3-.9-9.1-2.8-1.8-1.8-2.7-4.6-2.7-8.2v-13.3h-6.5v-7h6.5v-8.8h8.4v8.8h9.5l-1,7h-8.5v13c0,1.5.4,2.5,1.1,3.2.7.7,1.7,1,3,1h5.4v7.1s-6.2,0-6.2,0Z"/>
    <path class="cls-3" d="M603,112.5c-3.4,0-6.1-1.1-8.1-3.3-2-2.2-3-5.3-3-9.3v-19.2h8.4v18.1c0,2.1.4,3.7,1.2,4.8.8,1.1,2.1,1.7,3.8,1.7h.5c1,0,1.9-.3,2.8-.8.9-.5,1.6-1.3,2.2-2.4.6-1.1.9-2.5.9-4.2v-17.2h8.4v31h-7.3v-3.8c-1,1.5-2.3,2.7-3.8,3.5-1.6.8-3.3,1.2-5.2,1.2h-.6Z"/>
    <path class="cls-3" d="M627.8,111.7v-31h7.3v3.8c1-1.5,2.3-2.6,3.8-3.4,1.5-.8,3.2-1.2,5.2-1.2h.6c4.3,0,7.4,1.7,9.3,5,1-1.6,2.4-2.8,4-3.7,1.6-.9,3.5-1.3,5.6-1.3h.6c3.4,0,6,1.1,8,3.3,2,2.2,3,5.3,3,9.3v19.2h-8.4v-18.1c0-2.1-.4-3.7-1.2-4.8-.8-1.1-2-1.7-3.7-1.7h-.5c-1.4,0-2.7.6-3.9,1.8-1.2,1.2-1.8,3.1-1.8,5.7v17.2h-8.4v-18.1c0-2.1-.4-3.7-1.2-4.8-.8-1.1-2-1.7-3.7-1.7h-.5c-1.4,0-2.7.6-3.9,1.8-1.2,1.2-1.8,3.1-1.8,5.7v17.2h-8.4Z"/>
    <path class="cls-3" d="M694.3,111.7l16.2-42h7.9l16.3,42h-9.5l-3-8.5h-15.9l-3,8.5h-8.9ZM708.8,96h10.7l-5.3-15.1-5.4,15.1Z"/>
    <path class="cls-3" d="M739.2,111.7v-43.8h8.4v43.8h-8.4Z"/>
    <path class="cls-3" d="M768,124.5c-3,0-5.6-.5-7.6-1.4-2-1-3.6-2.4-4.8-4.3l5.9-4.5c.8,1.2,1.7,2,2.7,2.5,1,.5,2.4.8,4.1.8h.7c4.5,0,6.7-2.6,6.7-7.9v-1.9c-2.1,2.5-5,3.7-8.6,3.7h-.5c-2.6,0-4.8-.6-6.8-1.9-1.9-1.3-3.5-3-4.5-5.3-1.1-2.3-1.6-4.9-1.6-7.9v-1.4c0-3,.5-5.6,1.6-7.9,1.1-2.3,2.6-4,4.5-5.3,1.9-1.3,4.2-1.9,6.8-1.9h.5c4.4,0,7.6,1.6,9.7,4.7v-3.8h7.3v28.6c0,4.9-1.3,8.6-3.8,11.2-2.6,2.6-6.2,3.9-11,3.9,0,0-1.4,0-1.4,0ZM768.9,104.2h.5c1.9,0,3.5-.7,4.7-2.2,1.2-1.4,1.8-3.3,1.8-5.6v-1.6c0-2.3-.6-4.2-1.8-5.6-1.2-1.4-2.8-2.2-4.7-2.2h-.5c-2.1,0-3.7.7-4.9,2.1-1.2,1.4-1.8,3.3-1.8,5.7v1.5c0,2.4.6,4.4,1.8,5.8,1.2,1.4,2.8,2.1,4.9,2.1Z"/>
    <path class="cls-3" d="M805.5,112.5c-2.9,0-5.5-.6-7.7-1.8-2.3-1.2-4.1-2.9-5.4-5.2-1.3-2.3-2-5.1-2-8.4v-1.8c0-3.3.7-6.1,2-8.4,1.3-2.3,3.1-4,5.4-5.2,2.3-1.2,4.9-1.8,7.7-1.8h.4c2.9,0,5.5.6,7.7,1.8,2.3,1.2,4.1,2.9,5.4,5.2,1.3,2.3,2,5.1,2,8.4v1.8c0,3.3-.7,6.1-2,8.4-1.3,2.3-3.1,4-5.4,5.2-2.3,1.2-4.9,1.8-7.7,1.8h-.4ZM805.5,105.3h.4c2,0,3.6-.6,4.8-1.9,1.3-1.3,1.9-3.3,1.9-6.1v-2.2c0-2.8-.6-4.8-1.9-6.1-1.3-1.3-2.9-1.9-4.8-1.9h-.4c-2,0-3.6.6-4.8,1.9-1.3,1.3-1.9,3.3-1.9,6.1v2.2c0,2.8.6,4.8,1.9,6.1,1.3,1.3,2.9,1.9,4.8,1.9Z"/>
    <path class="cls-3" d="M827.3,111.7v-31h7.3v5.3c.8-1.8,1.9-3.2,3.2-4.2,1.3-1,3-1.5,5.2-1.5h3.3v7.7h-3c-1.2,0-2.4.2-3.5.7-1.2.5-2.1,1.3-2.9,2.5-.8,1.2-1.2,2.8-1.2,4.9v15.5h-8.4Z"/>
    <path class="cls-3" d="M851.7,76.3v-8.4h8.6v8.4h-8.6ZM851.9,111.7v-31h8.4v31h-8.4Z"/>
    <path class="cls-3" d="M882.9,112c-4.3,0-7.3-.9-9.1-2.8-1.8-1.8-2.7-4.6-2.7-8.2v-13.3h-6.5v-7h6.5v-8.8h8.4v8.8h9.5l-1,7h-8.5v13c0,1.5.4,2.5,1.1,3.2.7.7,1.7,1,3,1h5.4v7.1s-6.2,0-6.2,0Z"/>
    <path class="cls-3" d="M897.3,111.7v-43.8h8.4v15.7c2.1-2.4,4.9-3.7,8.3-3.7h.6c3.5,0,6.3,1.1,8.4,3.3,2.1,2.2,3.1,5.3,3.1,9.3v19.2h-8.4v-18.1c0-2.1-.4-3.7-1.3-4.8-.9-1.1-2.2-1.7-4-1.7h-.5c-1,0-2,.3-2.9.8-.9.5-1.7,1.3-2.3,2.4-.6,1.1-.9,2.5-.9,4.3v17.2h-8.4Z"/>
    <path class="cls-3" d="M933.6,111.7v-31h7.3v3.8c1-1.5,2.3-2.6,3.8-3.4,1.5-.8,3.2-1.2,5.2-1.2h.6c4.3,0,7.4,1.7,9.3,5,1-1.6,2.4-2.8,4-3.7,1.6-.9,3.5-1.3,5.5-1.3h.6c3.4,0,6,1.1,8,3.3,2,2.2,3,5.3,3,9.3v19.2h-8.4v-18.1c0-2.1-.4-3.7-1.2-4.8-.8-1.1-2-1.7-3.7-1.7h-.5c-1.4,0-2.7.6-3.9,1.8-1.2,1.2-1.8,3.1-1.8,5.7v17.2h-8.4v-18.1c0-2.1-.4-3.7-1.2-4.8-.8-1.1-2-1.7-3.7-1.7h-.5c-1.4,0-2.7.6-3.9,1.8-1.2,1.2-1.8,3.1-1.8,5.7v17.2h-8.4Z"/>
    <path class="cls-3" d="M999.8,112.5c-7.2,0-11.7-2.4-13.6-7.1l6.5-3.3c.6,1.2,1.4,2.1,2.5,2.7,1.1.6,2.7.9,4.6.9h.8c3.4,0,5.2-.9,5.2-2.7v-.2c0-1.5-1-2.4-3-2.7l-6.2-.8c-3-.4-5.4-1.4-7-3-1.6-1.5-2.4-3.6-2.4-6.2v-.6c0-3,1.1-5.3,3.4-7,2.3-1.7,5.3-2.5,9-2.5h.9c3.1,0,5.8.6,7.9,1.8,2.2,1.2,3.7,3,4.7,5.2l-6.7,2.9c-1-2.1-3-3.1-6-3.1h-.8c-2.9,0-4.4.9-4.4,2.6v.2c0,.6.2,1.2.7,1.5.4.4,1.2.7,2.2.8l6.5.9c3,.4,5.3,1.5,6.9,3.1,1.6,1.7,2.4,3.9,2.4,6.5v.6c0,3.2-1.1,5.5-3.4,7.1-2.2,1.6-5.5,2.4-9.8,2.4h-.9Z"/>
    <path class="cls-3" d="M1043.4,112.5c-3.3,0-5.9-.8-7.7-2.5s-2.7-3.9-2.7-6.9.8-4.9,2.5-6.5c1.7-1.6,4.1-2.7,7.2-3.1l9.7-1.3v-.2c0-3.6-1.7-5.5-5-5.5h-.6c-1.5,0-2.7.3-3.7.8s-1.8,1.5-2.5,2.9l-6.4-3.4c.9-2.1,2.5-3.8,4.7-5.1,2.2-1.3,4.8-1.9,7.9-1.9h.9c8.8,0,13.1,4.1,13.1,12.3v19.5h-7.3v-3.9c-1,1.5-2.3,2.6-4,3.5-1.7.8-3.6,1.3-5.8,1.3h-.3ZM1052.4,97.9l-6.4.9c-1.8.3-3.1.7-3.8,1.2-.7.5-1.1,1.3-1.1,2.4s.4,1.9,1.2,2.6c.8.6,1.9.9,3.3.9h.5c2,0,3.6-.6,4.7-1.7,1.1-1.2,1.7-2.7,1.7-4.7v-1.5h0Z"/>
    <path class="cls-3" d="M1068.2,111.7v-31h7.3v3.8c1-1.5,2.4-2.6,4-3.4,1.6-.8,3.4-1.2,5.4-1.2h.6c3.5,0,6.3,1.1,8.4,3.3,2.1,2.2,3.1,5.3,3.1,9.3v19.2h-8.4v-18.1c0-2.1-.4-3.7-1.3-4.8-.9-1.1-2.2-1.7-4.1-1.7h-.5c-1,0-2,.3-2.9.8-.9.5-1.7,1.3-2.3,2.4s-.9,2.5-.9,4.3v17.2h-8.4Z"/>
    <path class="cls-3" d="M1115.7,112.5c-2.5,0-4.7-.6-6.7-1.8-2-1.2-3.5-2.9-4.6-5.2-1.1-2.3-1.6-5.1-1.6-8.5v-1.8c0-3.3.5-6.1,1.6-8.4,1.1-2.3,2.6-4,4.6-5.2,2-1.2,4.2-1.8,6.7-1.8h.4c3.7,0,6.6,1.2,8.7,3.7v-15.7h8.4v43.8h-7.3v-3.8c-2.1,3.1-5.4,4.7-9.8,4.7h-.4ZM1118,105.3h.5c1.1,0,2.1-.3,3.1-.8,1-.5,1.8-1.4,2.5-2.6.6-1.2,1-2.8,1-4.7v-1.9c0-2-.3-3.5-1-4.7-.7-1.2-1.5-2.1-2.5-2.6-1-.5-2-.8-3.1-.8h-.5c-1.9,0-3.5.6-4.8,1.9-1.3,1.3-1.9,3.3-1.9,6.2v2c0,2.8.6,4.9,1.9,6.2,1.3,1.3,2.9,2,4.8,2h0Z"/>
    <path class="cls-3" d="M1152.9,111.7l16.2-42h7.9l16.3,42h-9.5l-3-8.5h-15.9l-3,8.5h-8.9ZM1167.4,96h10.7l-5.3-15.1-5.4,15.1Z"/>
    <path class="cls-3" d="M1197.8,123.7v-43h7.3v3.8c2.1-3.1,5.4-4.7,9.8-4.7h.4c2.5,0,4.7.6,6.7,1.8,1.9,1.2,3.5,2.9,4.6,5.2,1.1,2.3,1.7,5.1,1.7,8.5v1.8c0,3.3-.6,6.1-1.7,8.4-1.1,2.3-2.6,4-4.6,5.2-1.9,1.2-4.2,1.8-6.7,1.8h-.4c-3.7,0-6.6-1.2-8.7-3.7v14.9h-8.4ZM1212.6,105.3h.5c1.9,0,3.5-.6,4.8-1.9,1.3-1.3,1.9-3.3,1.9-6.2v-2c0-2.8-.6-4.9-1.9-6.2-1.3-1.3-2.9-2-4.8-2h-.5c-1,0-2.1.3-3.1.8-1,.5-1.9,1.4-2.5,2.6-.6,1.2-1,2.8-1,4.8v1.9c0,2,.3,3.5,1,4.7.7,1.2,1.5,2.1,2.5,2.6,1,.5,2,.8,3,.8h0Z"/>
    <path class="cls-3" d="M1234.4,123.7v-43h7.3v3.8c2.1-3.1,5.4-4.7,9.8-4.7h.4c2.5,0,4.7.6,6.7,1.8,1.9,1.2,3.5,2.9,4.6,5.2,1.1,2.3,1.7,5.1,1.7,8.5v1.8c0,3.3-.6,6.1-1.7,8.4-1.1,2.3-2.6,4-4.6,5.2-1.9,1.2-4.2,1.8-6.7,1.8h-.4c-3.7,0-6.6-1.2-8.7-3.7v14.9h-8.4ZM1249.2,105.3h.5c1.9,0,3.5-.6,4.8-1.9,1.3-1.3,1.9-3.3,1.9-6.2v-2c0-2.8-.6-4.9-1.9-6.2-1.3-1.3-2.9-2-4.8-2h-.5c-1,0-2.1.3-3.1.8-1,.5-1.9,1.4-2.5,2.6-.6,1.2-1,2.8-1,4.8v1.9c0,2,.3,3.5,1,4.7.7,1.2,1.5,2.1,2.5,2.6,1,.5,2,.8,3,.8h0Z"/>
    <path class="cls-3" d="M1271,111.7v-43.8h8.4v43.8h-8.4Z"/>
    <path class="cls-3" d="M1287.1,76.3v-8.4h8.6v8.4h-8.6ZM1287.2,111.7v-31h8.4v31h-8.4Z"/>
    <path class="cls-3" d="M1317,112.5c-4.6,0-8.3-1.3-11.1-4-2.7-2.6-4.1-6.5-4.1-11.5v-1.8c0-3.3.6-6.1,1.9-8.4,1.3-2.3,3-4,5.3-5.2,2.3-1.2,4.9-1.8,8-1.8h.5c3,0,5.5.7,7.6,2.2,2.1,1.4,3.5,3.3,4.4,5.7l-6.8,2.9c-.5-1-1.2-1.9-2-2.5-.9-.7-1.9-1-3.2-1h-.4c-2,0-3.7.7-4.9,2-1.3,1.3-1.9,3.3-1.9,6.1v2.2c0,2.8.6,4.9,1.8,6.1,1.2,1.3,2.9,1.9,5,1.9h.4c1.4,0,2.6-.3,3.5-.9.9-.6,1.6-1.4,2.2-2.5l6.5,3.4c-.9,2-2.4,3.7-4.5,5.1-2.1,1.4-4.7,2-7.7,2h-.5Z"/>
    <path class="cls-3" d="M1344.1,112.5c-3.3,0-5.9-.8-7.7-2.5-1.8-1.6-2.7-3.9-2.7-6.9s.8-4.9,2.5-6.5c1.7-1.6,4.1-2.7,7.2-3.1l9.7-1.3v-.2c0-3.6-1.7-5.5-5-5.5h-.6c-1.5,0-2.7.3-3.7.8-1,.5-1.8,1.5-2.5,2.9l-6.4-3.4c.9-2.1,2.5-3.8,4.7-5.1,2.2-1.3,4.8-1.9,8-1.9h.9c8.8,0,13.1,4.1,13.1,12.3v19.5h-7.3v-3.9c-1,1.5-2.3,2.6-4,3.5s-3.6,1.3-5.8,1.3h-.3ZM1353.1,97.9l-6.4.9c-1.8.3-3.1.7-3.8,1.2-.7.5-1.1,1.3-1.1,2.4s.4,1.9,1.2,2.6c.8.6,1.9.9,3.3.9h.5c2,0,3.6-.6,4.7-1.7,1.1-1.2,1.7-2.7,1.7-4.7v-1.5h0Z"/>
    <path class="cls-3" d="M1383,112c-4.3,0-7.3-.9-9.1-2.8-1.8-1.8-2.7-4.6-2.7-8.2v-13.3h-6.5v-7h6.5v-8.8h8.4v8.8h9.5l-1,7h-8.5v13c0,1.5.4,2.5,1.1,3.2.7.7,1.7,1,3,1h5.4v7.1s-6.2,0-6.2,0Z"/>
    <path class="cls-3" d="M1394.8,76.3v-8.4h8.6v8.4h-8.6ZM1395,111.7v-31h8.4v31h-8.4Z"/>
    <path class="cls-3" d="M1424.7,112.5c-2.9,0-5.5-.6-7.7-1.8s-4.1-2.9-5.4-5.2c-1.3-2.3-2-5.1-2-8.4v-1.8c0-3.3.7-6.1,2-8.4,1.3-2.3,3.1-4,5.4-5.2s4.9-1.8,7.7-1.8h.4c2.9,0,5.5.6,7.7,1.8,2.3,1.2,4.1,2.9,5.4,5.2,1.3,2.3,2,5.1,2,8.4v1.8c0,3.3-.7,6.1-2,8.4-1.3,2.3-3.1,4-5.4,5.2-2.3,1.2-4.9,1.8-7.7,1.8h-.4ZM1424.7,105.3h.4c2,0,3.6-.6,4.8-1.9,1.3-1.3,1.9-3.3,1.9-6.1v-2.2c0-2.8-.6-4.8-1.9-6.1-1.3-1.3-2.9-1.9-4.8-1.9h-.4c-2,0-3.6.6-4.8,1.9-1.3,1.3-1.9,3.3-1.9,6.1v2.2c0,2.8.6,4.8,1.9,6.1,1.3,1.3,2.9,1.9,4.8,1.9Z"/>
    <path class="cls-3" d="M1446.4,111.7v-31h7.3v3.8c1-1.5,2.4-2.6,4-3.4,1.6-.8,3.4-1.2,5.4-1.2h.6c3.5,0,6.3,1.1,8.4,3.3,2.1,2.2,3.1,5.3,3.1,9.3v19.2h-8.4v-18.1c0-2.1-.4-3.7-1.3-4.8-.9-1.1-2.2-1.7-4-1.7h-.5c-1,0-2,.3-2.9.8-.9.5-1.7,1.3-2.3,2.4-.6,1.1-.9,2.5-.9,4.3v17.2h-8.4Z"/>
    <path class="cls-3" d="M1494.1,112.5c-7.2,0-11.7-2.4-13.6-7.1l6.5-3.3c.6,1.2,1.4,2.1,2.5,2.7,1.1.6,2.7.9,4.6.9h.8c3.4,0,5.2-.9,5.2-2.7v-.2c0-1.5-1-2.4-3-2.7l-6.2-.8c-3-.4-5.4-1.4-7-3-1.6-1.5-2.4-3.6-2.4-6.2v-.6c0-3,1.1-5.3,3.4-7,2.3-1.7,5.3-2.5,9-2.5h.9c3.1,0,5.8.6,7.9,1.8,2.2,1.2,3.7,3,4.7,5.2l-6.7,2.9c-1-2.1-3-3.1-6-3.1h-.8c-2.9,0-4.4.9-4.4,2.6v.2c0,.6.2,1.2.7,1.5.4.4,1.2.7,2.2.8l6.5.9c3,.4,5.3,1.5,6.9,3.1,1.6,1.7,2.4,3.9,2.4,6.5v.6c0,3.2-1.1,5.5-3.4,7.1-2.2,1.6-5.5,2.4-9.8,2.4h-.9Z"/>
    <path class="cls-3" d="M481.4,307.5c-4.1,0-7.6-.8-10.5-2.5-2.9-1.7-5.1-4.1-6.7-7.1-1.5-3.1-2.3-6.7-2.3-11v-2.4c0-4.2.8-7.9,2.3-11,1.5-3.1,3.8-5.5,6.7-7.1,2.9-1.7,6.4-2.5,10.5-2.5h.6c4.1,0,7.6.8,10.5,2.5,2.9,1.7,5.1,4.1,6.7,7.1,1.5,3.1,2.3,6.7,2.3,11v2.4c0,6-1.5,10.8-4.6,14.5l5.5,5.9-5.6,5.2-6-6.5c-2.6,1.1-5.5,1.6-8.7,1.6h-.6ZM481.4,299.8h.5c1,0,2,0,2.9-.3l-4.7-5.2,5.6-5.2,5.2,5.7c1.1-2,1.7-4.6,1.7-7.8v-2.8c0-4.3-1-7.5-2.9-9.6-1.9-2.1-4.6-3.2-7.8-3.2h-.5c-3.3,0-5.9,1.1-7.8,3.2-1.9,2.1-2.9,5.3-2.9,9.6v2.8c0,4.3,1,7.5,2.9,9.6,1.9,2.1,4.5,3.2,7.8,3.2Z"/>
    <path class="cls-3" d="M519.2,307.5c-3.4,0-6.1-1.1-8.1-3.3-2-2.2-3-5.3-3-9.3v-19.2h8.4v18.1c0,2.1.4,3.7,1.2,4.8.8,1.1,2.1,1.7,3.8,1.7h.5c1,0,1.9-.3,2.8-.8.9-.5,1.6-1.3,2.2-2.4.6-1.1.9-2.5.9-4.2v-17.2h8.4v31h-7.3v-3.8c-1,1.5-2.3,2.7-3.8,3.5-1.6.8-3.3,1.2-5.2,1.2h-.6Z"/>
    <path class="cls-3" d="M552.9,307.5c-3.3,0-5.9-.8-7.7-2.5-1.8-1.6-2.7-3.9-2.7-6.9s.8-4.9,2.5-6.5c1.7-1.6,4.1-2.7,7.2-3.1l9.7-1.3v-.2c0-3.6-1.7-5.5-5-5.5h-.6c-1.5,0-2.7.3-3.7.8-1,.5-1.8,1.5-2.5,2.9l-6.4-3.4c.9-2.1,2.5-3.8,4.6-5.1,2.2-1.3,4.8-1.9,8-1.9h.9c8.8,0,13.1,4.1,13.1,12.3v19.5h-7.3v-3.9c-1,1.5-2.3,2.6-4,3.5-1.7.8-3.6,1.3-5.8,1.3h-.3ZM561.9,292.9l-6.4.9c-1.8.3-3.1.7-3.8,1.2-.7.5-1.1,1.3-1.1,2.4s.4,1.9,1.2,2.6c.8.6,1.9.9,3.3.9h.5c2,0,3.6-.6,4.7-1.7,1.1-1.2,1.7-2.7,1.7-4.7v-1.5Z"/>
    <path class="cls-3" d="M577.7,306.7v-31h7.3v3.8c1-1.5,2.4-2.6,4-3.4,1.6-.8,3.4-1.2,5.4-1.2h.6c3.5,0,6.3,1.1,8.4,3.3,2.1,2.2,3.1,5.3,3.1,9.3v19.2h-8.4v-18.1c0-2.1-.4-3.7-1.3-4.8-.9-1.1-2.2-1.7-4-1.7h-.5c-1,0-2,.3-2.9.8-.9.5-1.7,1.3-2.3,2.4-.6,1.1-.9,2.5-.9,4.3v17.2h-8.4Z"/>
    <path class="cls-3" d="M628.8,307c-4.3,0-7.3-.9-9.1-2.8-1.8-1.8-2.7-4.6-2.7-8.2v-13.3h-6.5v-7h6.5v-8.8h8.4v8.8h9.5l-1,7h-8.5v13c0,1.5.4,2.5,1.1,3.2.7.7,1.7,1,3,1h5.4v7.1h-6.2Z"/>
    <path class="cls-3" d="M651.6,307.5c-3.4,0-6.1-1.1-8.1-3.3-2-2.2-3-5.3-3-9.3v-19.2h8.4v18.1c0,2.1.4,3.7,1.2,4.8.8,1.1,2.1,1.7,3.8,1.7h.5c1,0,1.9-.3,2.8-.8.9-.5,1.6-1.3,2.2-2.4.6-1.1.9-2.5.9-4.2v-17.2h8.4v31h-7.3v-3.8c-1,1.5-2.3,2.7-3.8,3.5-1.6.8-3.3,1.2-5.2,1.2h-.6Z"/>
    <path class="cls-3" d="M676.4,306.7v-31h7.3v3.8c1-1.5,2.3-2.6,3.8-3.4,1.5-.8,3.2-1.2,5.2-1.2h.6c4.3,0,7.4,1.7,9.3,5,1-1.6,2.4-2.8,4-3.7,1.6-.9,3.5-1.3,5.6-1.3h.6c3.4,0,6,1.1,8,3.3,2,2.2,3,5.3,3,9.3v19.2h-8.4v-18.1c0-2.1-.4-3.7-1.2-4.8-.8-1.1-2-1.7-3.7-1.7h-.5c-1.4,0-2.7.6-3.9,1.8-1.2,1.2-1.8,3.1-1.8,5.7v17.2h-8.4v-18.1c0-2.1-.4-3.7-1.2-4.8-.8-1.1-2-1.7-3.7-1.7h-.5c-1.4,0-2.7.6-3.9,1.8-1.2,1.2-1.8,3.1-1.8,5.7v17.2h-8.4Z"/>
    <path class="cls-3" d="M764.4,307.5c-6.2,0-11-1.8-14.2-5.5-3.2-3.6-4.9-8.7-4.9-15.2v-2.3c0-4.2.7-7.9,2.2-11,1.5-3.1,3.6-5.5,6.5-7.1,2.8-1.7,6.3-2.5,10.4-2.5h.5c4.3,0,7.8.9,10.7,2.8,2.8,1.9,4.8,4.5,6,8l-8.2,2.9c-.6-2.1-1.6-3.6-3.1-4.6-1.5-1-3.3-1.4-5.4-1.4h-.4c-3.3,0-5.8,1.1-7.7,3.2-1.8,2.1-2.8,5.3-2.8,9.6v2.7c0,4.4.9,7.7,2.7,9.8,1.8,2.1,4.4,3.1,7.8,3.1h.4c2.2,0,4-.5,5.6-1.4,1.6-.9,2.7-2.4,3.3-4.5l8,3.1c-1.2,3.3-3.2,5.9-6.1,7.7-2.9,1.8-6.5,2.8-10.7,2.8h-.5Z"/>
    <path class="cls-3" d="M800.9,307.5c-2.9,0-5.5-.6-7.7-1.8-2.3-1.2-4.1-2.9-5.4-5.2-1.3-2.3-2-5.1-2-8.4v-1.8c0-3.3.7-6.1,2-8.4,1.3-2.3,3.1-4,5.4-5.2,2.3-1.2,4.9-1.8,7.7-1.8h.4c2.9,0,5.5.6,7.7,1.8,2.3,1.2,4.1,2.9,5.4,5.2,1.3,2.3,2,5.1,2,8.4v1.8c0,3.3-.7,6.1-2,8.4-1.3,2.3-3.1,4-5.4,5.2-2.3,1.2-4.9,1.8-7.7,1.8h-.4ZM800.9,300.3h.4c2,0,3.6-.6,4.8-1.9,1.3-1.3,1.9-3.3,1.9-6.1v-2.2c0-2.8-.6-4.8-1.9-6.1-1.3-1.3-2.9-1.9-4.8-1.9h-.4c-2,0-3.6.6-4.8,1.9-1.3,1.3-1.9,3.3-1.9,6.1v2.2c0,2.8.6,4.8,1.9,6.1,1.3,1.3,2.9,1.9,4.8,1.9Z"/>
    <path class="cls-3" d="M822.6,306.7v-31h7.3v3.8c1-1.5,2.3-2.6,3.8-3.4,1.5-.8,3.2-1.2,5.2-1.2h.6c4.3,0,7.4,1.7,9.3,5,1-1.6,2.4-2.8,4-3.7,1.6-.9,3.5-1.3,5.6-1.3h.6c3.4,0,6,1.1,8,3.3,2,2.2,3,5.3,3,9.3v19.2h-8.4v-18.1c0-2.1-.4-3.7-1.2-4.8-.8-1.1-2-1.7-3.7-1.7h-.5c-1.4,0-2.7.6-3.9,1.8-1.2,1.2-1.8,3.1-1.8,5.7v17.2h-8.4v-18.1c0-2.1-.4-3.7-1.2-4.8-.8-1.1-2-1.7-3.7-1.7h-.5c-1.4,0-2.7.6-3.9,1.8-1.2,1.2-1.8,3.1-1.8,5.7v17.2h-8.4Z"/>
    <path class="cls-3" d="M877.4,318.7v-43h7.3v3.8c2.1-3.1,5.4-4.7,9.8-4.7h.4c2.5,0,4.7.6,6.7,1.8,1.9,1.2,3.5,2.9,4.6,5.2,1.1,2.3,1.6,5.1,1.6,8.5v1.8c0,3.3-.6,6.1-1.6,8.4-1.1,2.3-2.6,4-4.6,5.2-1.9,1.2-4.2,1.8-6.7,1.8h-.4c-3.7,0-6.6-1.2-8.7-3.7v14.9h-8.4ZM892.2,300.3h.5c1.9,0,3.5-.6,4.8-1.9,1.3-1.3,1.9-3.3,1.9-6.2v-2c0-2.8-.6-4.9-1.9-6.2-1.3-1.3-2.9-2-4.8-2h-.5c-1,0-2.1.3-3.1.8s-1.9,1.4-2.5,2.6c-.6,1.2-1,2.8-1,4.8v1.9c0,2,.3,3.5,1,4.7.7,1.2,1.5,2.1,2.5,2.6s2,.8,3,.8Z"/>
    <path class="cls-3" d="M924.7,307.5c-3.4,0-6.1-1.1-8.1-3.3-2-2.2-3-5.3-3-9.3v-19.2h8.4v18.1c0,2.1.4,3.7,1.2,4.8.8,1.1,2.1,1.7,3.8,1.7h.5c1,0,1.9-.3,2.8-.8.9-.5,1.6-1.3,2.2-2.4.6-1.1.9-2.5.9-4.2v-17.2h8.4v31h-7.3v-3.8c-1,1.5-2.3,2.7-3.8,3.5-1.6.8-3.3,1.2-5.2,1.2h-.6Z"/>
    <path class="cls-3" d="M963.8,307c-4.3,0-7.3-.9-9.1-2.8-1.8-1.8-2.7-4.6-2.7-8.2v-13.3h-6.5v-7h6.5v-8.8h8.4v8.8h9.5l-1,7h-8.5v13c0,1.5.4,2.5,1.1,3.2.7.7,1.7,1,3,1h5.4v7.1h-6.2Z"/>
    <path class="cls-3" d="M975.6,271.3v-8.4h8.6v8.4h-8.6ZM975.8,306.7v-31h8.4v31h-8.4Z"/>
    <path class="cls-3" d="M992,306.7v-31h7.3v3.8c1-1.5,2.4-2.6,4-3.4,1.6-.8,3.4-1.2,5.4-1.2h.6c3.5,0,6.3,1.1,8.4,3.3,2.1,2.2,3.1,5.3,3.1,9.3v19.2h-8.4v-18.1c0-2.1-.4-3.7-1.3-4.8-.9-1.1-2.2-1.7-4.1-1.7h-.5c-1,0-2,.3-2.9.8-.9.5-1.7,1.3-2.3,2.4s-.9,2.5-.9,4.3v17.2h-8.4Z"/>
    <path class="cls-3" d="M1040.8,319.5c-3,0-5.6-.5-7.6-1.4s-3.6-2.4-4.8-4.3l5.9-4.5c.8,1.2,1.7,2,2.7,2.5,1,.5,2.4.8,4.1.8h.7c4.5,0,6.7-2.6,6.7-7.9v-1.9c-2.1,2.5-5,3.7-8.6,3.7h-.5c-2.6,0-4.8-.6-6.8-1.9-1.9-1.3-3.5-3-4.5-5.3-1.1-2.3-1.6-4.9-1.6-7.9v-1.4c0-3,.5-5.6,1.6-7.9,1.1-2.3,2.6-4,4.5-5.3,1.9-1.3,4.2-1.9,6.8-1.9h.5c4.4,0,7.6,1.6,9.7,4.7v-3.8h7.3v28.6c0,4.9-1.3,8.6-3.8,11.2-2.6,2.6-6.2,3.9-11,3.9h-1.4ZM1041.6,299.2h.5c1.9,0,3.5-.7,4.7-2.2s1.8-3.3,1.8-5.6v-1.6c0-2.3-.6-4.2-1.8-5.6s-2.8-2.2-4.7-2.2h-.5c-2.1,0-3.7.7-4.9,2.1-1.2,1.4-1.8,3.3-1.8,5.7v1.5c0,2.4.6,4.4,1.8,5.8,1.2,1.4,2.8,2.1,4.9,2.1Z"/>
    <path class="cls-3" d="M1080.9,306.7v-42h27.9v7.4h-19.1v10.7h15.4l-1,7.4h-14.4v16.4h-8.8Z"/>
    <path class="cls-3" d="M1112.1,306.7v-31h7.3v5.3c.8-1.8,1.9-3.2,3.2-4.2,1.3-1,3-1.5,5.2-1.5h3.3v7.7h-3c-1.2,0-2.4.2-3.5.7s-2.1,1.3-2.9,2.5c-.8,1.2-1.2,2.8-1.2,4.9v15.5h-8.4Z"/>
    <path class="cls-3" d="M1144.5,307.5c-3.3,0-5.9-.8-7.7-2.5-1.8-1.6-2.7-3.9-2.7-6.9s.8-4.9,2.5-6.5c1.7-1.6,4.1-2.7,7.2-3.1l9.7-1.3v-.2c0-3.6-1.7-5.5-5-5.5h-.6c-1.5,0-2.7.3-3.7.8-1,.5-1.8,1.5-2.5,2.9l-6.4-3.4c.9-2.1,2.5-3.8,4.7-5.1,2.2-1.3,4.8-1.9,8-1.9h.9c8.8,0,13.1,4.1,13.1,12.3v19.5h-7.3v-3.9c-1,1.5-2.3,2.6-4,3.5s-3.6,1.3-5.8,1.3h-.3ZM1153.5,292.9l-6.4.9c-1.8.3-3.1.7-3.8,1.2-.7.5-1.1,1.3-1.1,2.4s.4,1.9,1.2,2.6c.8.6,1.9.9,3.3.9h.5c2,0,3.6-.6,4.7-1.7,1.1-1.2,1.7-2.7,1.7-4.7v-1.5Z"/>
    <path class="cls-3" d="M1169.3,306.7v-31h7.3v3.8c1-1.5,2.3-2.6,3.8-3.4,1.5-.8,3.2-1.2,5.2-1.2h.6c4.3,0,7.4,1.7,9.3,5,1-1.6,2.4-2.8,4-3.7,1.6-.9,3.5-1.3,5.5-1.3h.6c3.4,0,6,1.1,8,3.3,2,2.2,3,5.3,3,9.3v19.2h-8.4v-18.1c0-2.1-.4-3.7-1.2-4.8-.8-1.1-2-1.7-3.7-1.7h-.5c-1.4,0-2.7.6-3.9,1.8-1.2,1.2-1.8,3.1-1.8,5.7v17.2h-8.4v-18.1c0-2.1-.4-3.7-1.2-4.8-.8-1.1-2-1.7-3.7-1.7h-.5c-1.4,0-2.7.6-3.9,1.8-1.2,1.2-1.8,3.1-1.8,5.7v17.2h-8.4Z"/>
    <path class="cls-3" d="M1237.3,307.5c-4.7,0-8.4-1.3-11-4-2.6-2.7-3.9-6.5-3.9-11.3v-1.8c0-4.9,1.3-8.7,4-11.4,2.6-2.7,6.3-4.1,10.9-4.1h.5c4.4,0,7.8,1.3,10.3,4,2.5,2.7,3.7,6.3,3.7,11v3.8h-21.1c.3,4.8,2.5,7.1,6.6,7.1h.8c3.2,0,5.4-1.1,6.7-3.2l6.1,4c-1.1,1.8-2.8,3.3-5,4.3-2.2,1-4.8,1.6-7.7,1.6h-.9ZM1230.7,288h12.8v-.2c0-4.2-1.9-6.2-5.8-6.2h-.5c-3.8,0-6,2.1-6.5,6.4Z"/>
    <path class="cls-3" d="M1269.2,307.5c-7.2,0-11.7-2.4-13.6-7.1l6.5-3.3c.6,1.2,1.4,2.1,2.5,2.7,1.1.6,2.7.9,4.6.9h.8c3.4,0,5.2-.9,5.2-2.7v-.2c0-1.5-1-2.4-3-2.7l-6.2-.8c-3-.4-5.4-1.4-7-3-1.6-1.5-2.4-3.6-2.4-6.2v-.6c0-3,1.1-5.3,3.4-7,2.3-1.7,5.3-2.5,9-2.5h.9c3.1,0,5.8.6,7.9,1.8,2.2,1.2,3.7,3,4.7,5.2l-6.7,2.9c-1-2.1-3-3.1-6-3.1h-.8c-2.9,0-4.4.9-4.4,2.6v.2c0,.6.2,1.2.7,1.5.4.4,1.2.7,2.2.8l6.5.9c3,.4,5.3,1.5,6.9,3.1,1.6,1.7,2.4,3.9,2.4,6.5v.6c0,3.2-1.1,5.5-3.4,7.1-2.2,1.6-5.5,2.4-9.8,2.4h-.9Z"/>
    <path class="cls-3" d="M1284.4,275.7h8.9l5.2,20.5,5.6-20.5h7.4l5.5,20,5.2-20h8.3l-9.5,31h-7.6l-5.9-20.7-6,20.7h-7.6l-9.5-31Z"/>
    <path class="cls-3" d="M1347.8,307.5c-2.9,0-5.5-.6-7.7-1.8s-4.1-2.9-5.4-5.2c-1.3-2.3-2-5.1-2-8.4v-1.8c0-3.3.7-6.1,2-8.4,1.3-2.3,3.1-4,5.4-5.2s4.9-1.8,7.7-1.8h.4c2.9,0,5.5.6,7.7,1.8,2.3,1.2,4.1,2.9,5.4,5.2,1.3,2.3,2,5.1,2,8.4v1.8c0,3.3-.7,6.1-2,8.4-1.3,2.3-3.1,4-5.4,5.2-2.3,1.2-4.9,1.8-7.7,1.8h-.4ZM1347.8,300.3h.4c2,0,3.6-.6,4.8-1.9,1.3-1.3,1.9-3.3,1.9-6.1v-2.2c0-2.8-.6-4.8-1.9-6.1-1.3-1.3-2.9-1.9-4.8-1.9h-.4c-2,0-3.6.6-4.8,1.9-1.3,1.3-1.9,3.3-1.9,6.1v2.2c0,2.8.6,4.8,1.9,6.1,1.3,1.3,2.9,1.9,4.8,1.9Z"/>
    <path class="cls-3" d="M1369.5,306.7v-31h7.3v5.3c.8-1.8,1.9-3.2,3.2-4.2,1.3-1,3-1.5,5.2-1.5h3.3v7.7h-3c-1.2,0-2.4.2-3.5.7s-2.1,1.3-2.9,2.5c-.8,1.2-1.2,2.8-1.2,4.9v15.5h-8.4Z"/>
    <path class="cls-3" d="M1394.1,306.7v-43.8h8.4v23.8l11.2-11h10.3l-12.2,11.7,13.1,19.3h-10.1l-9.1-13.9-3.2,3.1v10.8h-8.4Z"/>
    <path class="cls-3" d="M1439.5,307.5c-7.2,0-11.7-2.4-13.6-7.1l6.5-3.3c.6,1.2,1.4,2.1,2.5,2.7,1.1.6,2.7.9,4.6.9h.8c3.4,0,5.2-.9,5.2-2.7v-.2c0-1.5-1-2.4-3-2.7l-6.2-.8c-3-.4-5.4-1.4-7-3-1.6-1.5-2.4-3.6-2.4-6.2v-.6c0-3,1.1-5.3,3.4-7,2.3-1.7,5.3-2.5,9-2.5h.9c3.1,0,5.8.6,7.9,1.8,2.2,1.2,3.7,3,4.7,5.2l-6.7,2.9c-1-2.1-3-3.1-6-3.1h-.8c-2.9,0-4.4.9-4.4,2.6v.2c0,.6.2,1.2.7,1.5.4.4,1.2.7,2.2.8l6.5.9c3,.4,5.3,1.5,6.9,3.1,1.6,1.7,2.4,3.9,2.4,6.5v.6c0,3.2-1.1,5.5-3.4,7.1-2.2,1.6-5.5,2.4-9.8,2.4h-.9Z"/>
    <path class="cls-3" d="M686.6,365.2c-4.4,0-7.9-1.4-10.2-4.1-2.4-2.7-3.6-6.6-3.6-11.5v-2.1c0-3.2.6-6,1.7-8.3,1.1-2.3,2.7-4.2,4.8-5.4,2.1-1.3,4.5-1.9,7.4-1.9h.6c2.9,0,5.4.7,7.4,2,2,1.3,3.4,3.3,4.2,5.8l-3.5,1.2c-.6-1.8-1.6-3.2-3-4.1-1.4-1-3.1-1.4-5.1-1.4h-.6c-3.2,0-5.6,1.1-7.4,3.2-1.8,2.1-2.6,5.1-2.6,9v2.3c0,4,.9,7,2.6,9.1,1.7,2.1,4.2,3.1,7.5,3.1h.6c2.1,0,3.8-.5,5.3-1.4,1.5-.9,2.5-2.2,3.1-4l3.4,1.3c-.9,2.3-2.3,4.1-4.3,5.4-2,1.3-4.5,1.9-7.4,1.9h-.6Z"/>
    <path class="cls-3" d="M704.6,336.3v-4.2h3.9v4.2h-3.9ZM704.7,364.7v-23.4h3.7v23.4h-3.7Z"/>
    <path class="cls-3" d="M715.7,364.7v-23.4h3.4v4.9c.6-1.5,1.4-2.8,2.5-3.7,1.1-.9,2.8-1.4,4.9-1.4h2.2v3.4h-2.3c-2,0-3.6.7-4.9,2-1.3,1.4-2,3.5-2,6.3v11.9h-3.7Z"/>
    <path class="cls-3" d="M749.4,373.9v-12.7c-.7,1.3-1.7,2.3-3,3-1.3.7-2.8,1.1-4.6,1.1h-.3c-1.9,0-3.7-.4-5.2-1.3s-2.7-2.2-3.6-3.9-1.3-3.8-1.3-6.2v-1.7c0-2.5.4-4.6,1.3-6.3s2.1-3,3.6-3.9,3.2-1.3,5.2-1.3h.3c1.9,0,3.6.4,4.9,1.3,1.3.8,2.4,2,3.1,3.3v-4h3.4v32.6h-3.7ZM742.1,362h.4c1.3,0,2.4-.3,3.5-.9,1-.6,1.9-1.5,2.5-2.7.6-1.2.9-2.8.9-4.7v-1.5c0-2-.3-3.6-.9-4.8-.6-1.2-1.5-2.1-2.5-2.7-1-.6-2.2-.9-3.5-.9h-.4c-2,0-3.7.7-5,2-1.3,1.4-2,3.4-2,6.3v1.7c0,2.8.7,4.9,2,6.2,1.3,1.3,3,2,5,2Z"/>
    <path class="cls-3" d="M760.4,371.1l-1.4-1.8,1.3-1c.6-.4,1-.8,1.2-1.2.2-.3.3-.9.3-1.7v-.8h-2v-4.6h4.3v5.5c0,.9,0,1.6-.3,2.1-.2.5-.4,1-.8,1.4-.4.4-.9.9-1.6,1.4l-1.1.8Z"/>
    <path class="cls-3" d="M796,365.2c-3,0-5.5-.7-7.6-2-2.1-1.3-3.7-3.1-4.8-5.5s-1.7-5.1-1.7-8.2v-2c0-3.1.6-5.9,1.7-8.2,1.1-2.3,2.7-4.2,4.8-5.5,2.1-1.3,4.6-2,7.6-2h.6c3,0,5.5.7,7.6,2,2.1,1.3,3.7,3.2,4.8,5.5,1.1,2.3,1.7,5.1,1.7,8.2v2c0,5.1-1.4,9-4.1,11.8l4,4.4-2.4,2.2-4.2-4.6c-2.1,1.2-4.6,1.8-7.4,1.8h-.6ZM796,361.9h.6c1.8,0,3.5-.4,4.9-1.1l-4.9-5.3,2.4-2.3,5.1,5.6c1.8-2.2,2.8-5.2,2.8-9.1v-2.3c0-3.8-.9-6.7-2.7-8.9-1.8-2.2-4.3-3.2-7.6-3.2h-.6c-3.3,0-5.8,1.1-7.6,3.2-1.8,2.2-2.7,5.1-2.7,8.9v2.3c0,3.8.9,6.7,2.7,8.9,1.8,2.2,4.3,3.3,7.6,3.3Z"/>
    <path class="cls-3" d="M817,336.3v-4.2h3.9v4.2h-3.9ZM817.1,364.7v-23.4h3.7v23.4h-3.7Z"/>
    <path class="cls-3" d="M836,365.2c-5.1,0-8.5-1.8-10-5.4l2.9-1.5c.6,1.3,1.5,2.2,2.6,2.9,1.1.6,2.6.9,4.5.9h.5c3.7,0,5.5-1.2,5.5-3.5v-.2c0-2.1-1.2-3.2-3.6-3.5l-5.2-.7c-2.1-.3-3.6-.9-4.8-2-1.1-1-1.7-2.5-1.7-4.2v-.5c0-2,.8-3.6,2.4-4.8,1.6-1.2,3.7-1.8,6.3-1.8h.6c2.1,0,4,.4,5.6,1.3,1.6.9,2.7,2.1,3.3,3.7l-2.9,1.3c-1-2.1-3-3.2-6-3.2h-.6c-1.6,0-2.9.3-3.8,1-.9.6-1.4,1.5-1.4,2.6v.3c0,1,.3,1.7.9,2.2.6.5,1.5.9,2.8,1l5.3.7c2,.3,3.6,1,4.7,2.1,1.1,1.1,1.7,2.6,1.7,4.4v.5c0,2.2-.8,3.8-2.3,4.9-1.5,1.1-3.8,1.7-6.7,1.7h-.6Z"/>
    <path class="cls-3" d="M851.2,364.7v-33.6h3.7v20.7l11.6-10.6h4.8l-9.8,8.9,10.5,14.5h-4.5l-8.8-12.3-3.9,3.5v8.7h-3.7Z"/>
    <path class="cls-3" d="M876.7,336.3v-4.2h3.9v4.2h-3.9ZM876.8,364.7v-23.4h3.7v23.4h-3.7Z"/>
    <path class="cls-3" d="M897.2,364.8c-2.7,0-4.6-.6-5.8-1.9-1.1-1.3-1.7-3-1.7-5.2v-13.5h-5v-3h5v-7.1h3.7v7.1h8.1l-.5,3h-7.6v13.3c0,1.5.3,2.5,1,3.2.7.7,1.7,1,3.1,1h4v3.1h-4.3Z"/>
    <path class="cls-3" d="M907,371.1l-1.4-1.8,1.3-1c.6-.4,1-.8,1.2-1.2.2-.3.3-.9.3-1.7v-.8h-2v-4.6h4.3v5.5c0,.9,0,1.6-.3,2.1-.2.5-.4,1-.8,1.4-.4.4-.9.9-1.6,1.4l-1.1.8Z"/>
    <path class="cls-3" d="M930,364.7v-32.2h11.3c3.6,0,6.5.8,8.5,2.5,2,1.6,3,4,3,7v1.1c0,3-1,5.3-3.1,7-2,1.7-4.9,2.5-8.4,2.5h-7.5v12.2h-3.8ZM933.8,349.2h7.5c2.5,0,4.4-.5,5.7-1.5,1.3-1,2-2.5,2-4.6v-1.2c0-2.1-.7-3.6-2-4.6-1.4-1-3.3-1.5-5.7-1.5h-7.5v13.5Z"/>
    <path class="cls-3" d="M965.9,365.2c-3.2,0-5.8-1-7.6-3-1.9-2-2.8-4.8-2.8-8.4v-1.7c0-2.4.4-4.4,1.3-6.1.9-1.7,2.1-3,3.7-3.9,1.6-.9,3.4-1.4,5.5-1.4h.4c2.1,0,3.8.4,5.3,1.3,1.5.9,2.6,2.1,3.5,3.7.8,1.6,1.2,3.4,1.2,5.5v2.8h-17.2c0,2.7.7,4.8,1.9,6.1,1.2,1.4,2.9,2,4.9,2h.7c1.5,0,2.8-.3,3.8-.8,1-.6,1.7-1.3,2.3-2.4l2.8,1.7c-.8,1.4-2,2.5-3.5,3.4-1.5.8-3.3,1.2-5.4,1.2h-.7ZM959.1,351.2h13.5v-.5c0-2.3-.6-4-1.7-5.2-1.2-1.2-2.7-1.7-4.7-1.7h-.4c-1.9,0-3.5.6-4.7,1.9-1.2,1.3-1.9,3.1-2,5.5Z"/>
    <path class="cls-3" d="M982.1,364.7v-23.4h3.4v4.2c.6-1.4,1.6-2.6,2.9-3.4s3-1.3,4.9-1.3h.4c2.7,0,4.8.8,6.4,2.4s2.4,4,2.4,7.1v14.4h-3.7v-13.8c0-2.3-.5-4-1.5-5.2-1-1.2-2.5-1.8-4.4-1.8h-.3c-1.2,0-2.4.3-3.4.9-1,.6-1.9,1.5-2.5,2.7-.6,1.2-1,2.7-1,4.4v12.8h-3.7Z"/>
    <path class="cls-3" d="M1009.6,364.7v-23.4h3.4v4.2c.6-1.4,1.6-2.6,2.9-3.4s3-1.3,4.9-1.3h.4c2.7,0,4.8.8,6.4,2.4s2.4,4,2.4,7.1v14.4h-3.7v-13.8c0-2.3-.5-4-1.5-5.2-1-1.2-2.5-1.8-4.4-1.8h-.3c-1.2,0-2.4.3-3.4.9-1,.6-1.9,1.5-2.5,2.7-.6,1.2-1,2.7-1,4.4v12.8h-3.7Z"/>
    <path class="cls-3" d="M1035.4,373.9v-3.1h1.3c1.4,0,2.5-.3,3.3-1s1.5-1.9,2.1-3.7l.5-1.4-9.2-23.5h3.9l7.3,19.6,6.9-19.6h3.7l-9.5,25c-.7,2-1.5,3.5-2.3,4.7-.8,1.1-1.7,1.9-2.7,2.3-1,.4-2.3.6-3.8.6h-1.7Z"/>
    <path class="cls-3" d="M1059.8,364.7v-33.6h3.7v33.6h-3.7Z"/>
    <path class="cls-3" d="M1076.9,365.2c-2.5,0-4.4-.6-5.8-1.8-1.3-1.2-2-2.9-2-5.2s.6-3.4,1.7-4.5c1.2-1.2,2.8-1.9,5.1-2.2l9.2-1.2v-.2c0-4.2-1.9-6.3-5.6-6.3h-.5c-2.9,0-5,1.1-6,3.4l-2.9-1.4c.7-1.6,1.8-2.8,3.4-3.7,1.5-.9,3.4-1.3,5.6-1.3h.7c3,0,5.2.8,6.8,2.3,1.5,1.6,2.3,3.8,2.3,6.8v14.8h-3.4v-4.2c-.7,1.5-1.8,2.6-3.2,3.5-1.4.8-3.1,1.3-4.9,1.3h-.4ZM1085.1,353.1l-7.6,1.1c-1.8.2-3,.7-3.7,1.2-.7.6-1.1,1.5-1.1,2.7s.4,2.3,1.3,3c.8.7,2.1,1.1,3.7,1.1h.5c2.1,0,3.8-.7,5.1-2,1.3-1.3,1.9-3.1,1.9-5.4v-1.7Z"/>
    <path class="cls-3" d="M1095.8,364.7v-23.4h3.4v4.2c.6-1.4,1.6-2.6,2.9-3.4,1.3-.9,3-1.3,4.9-1.3h.4c2.7,0,4.8.8,6.4,2.4,1.6,1.6,2.4,4,2.4,7.1v14.4h-3.7v-13.8c0-2.3-.5-4-1.5-5.2-1-1.2-2.5-1.8-4.4-1.8h-.3c-1.2,0-2.4.3-3.4.9-1,.6-1.9,1.5-2.5,2.7-.6,1.2-1,2.7-1,4.4v12.8h-3.7Z"/>
    <path class="cls-3" d="M1132.5,365.2c-3.2,0-5.8-1-7.6-3-1.9-2-2.8-4.8-2.8-8.4v-1.7c0-2.4.4-4.4,1.3-6.1.9-1.7,2.1-3,3.7-3.9,1.6-.9,3.4-1.4,5.5-1.4h.4c2.1,0,3.8.4,5.3,1.3,1.5.9,2.6,2.1,3.5,3.7.8,1.6,1.2,3.4,1.2,5.5v2.8h-17.2c0,2.7.7,4.8,1.9,6.1,1.2,1.4,2.9,2,4.9,2h.7c1.5,0,2.8-.3,3.7-.8,1-.6,1.7-1.3,2.3-2.4l2.8,1.7c-.8,1.4-2,2.5-3.5,3.4-1.5.8-3.3,1.2-5.4,1.2h-.7ZM1125.7,351.2h13.5v-.5c0-2.3-.6-4-1.7-5.2-1.2-1.2-2.7-1.7-4.7-1.7h-.4c-1.9,0-3.5.6-4.7,1.9-1.2,1.3-1.9,3.1-2,5.5Z"/>
    <path class="cls-3" d="M1147.7,371.1l-1.4-1.8,1.3-1c.6-.4,1-.8,1.2-1.2.2-.3.3-.9.3-1.7v-.8h-2v-4.6h4.3v5.5c0,.9,0,1.6-.3,2.1-.2.5-.4,1-.8,1.4-.4.4-.9.9-1.6,1.4l-1.1.8Z"/>
    <path class="cls-3" d="M1179.2,365.2c-3.2,0-5.8-1-7.6-3-1.9-2-2.8-4.8-2.8-8.4v-1.7c0-2.4.4-4.4,1.3-6.1.9-1.7,2.1-3,3.7-3.9,1.6-.9,3.4-1.4,5.5-1.4h.4c2.1,0,3.8.4,5.3,1.3,1.5.9,2.6,2.1,3.5,3.7.8,1.6,1.2,3.4,1.2,5.5v2.8h-17.2c0,2.7.7,4.8,1.9,6.1,1.2,1.4,2.9,2,4.9,2h.7c1.5,0,2.8-.3,3.7-.8,1-.6,1.7-1.3,2.3-2.4l2.8,1.7c-.8,1.4-2,2.5-3.5,3.4-1.5.8-3.3,1.2-5.4,1.2h-.7ZM1172.4,351.2h13.5v-.5c0-2.3-.6-4-1.7-5.2-1.2-1.2-2.7-1.7-4.7-1.7h-.4c-1.9,0-3.5.6-4.7,1.9-1.2,1.3-1.9,3.1-2,5.5Z"/>
    <path class="cls-3" d="M1205.3,364.8c-2.7,0-4.6-.6-5.8-1.9-1.1-1.3-1.7-3-1.7-5.2v-13.5h-5v-3h5v-7.1h3.7v7.1h8.1l-.5,3h-7.6v13.3c0,1.5.3,2.5,1,3.2.7.7,1.7,1,3.1,1h4v3.1h-4.3Z"/>
    <path class="cls-3" d="M1224.6,365.2c-3.3,0-5.9-1-7.8-3-1.9-2-2.9-4.8-2.9-8.4v-1.7c0-2.4.5-4.4,1.4-6.1.9-1.7,2.2-3,3.8-3.9,1.6-.9,3.5-1.4,5.6-1.4h.5c2.1,0,3.8.5,5.3,1.4,1.5,1,2.5,2.2,3.2,3.8l-2.9,1.4c-.5-1.1-1.2-1.9-2.2-2.6-.9-.6-2.1-.9-3.4-.9h-.5c-2.1,0-3.8.7-5.1,2.1-1.3,1.4-2,3.4-2,6.2v1.7c0,2.8.7,4.8,2,6.2,1.3,1.4,3,2,5.2,2h.5c1.4,0,2.6-.3,3.5-.9s1.6-1.4,2.1-2.4l2.9,1.4c-.7,1.5-1.8,2.7-3.2,3.7-1.5.9-3.3,1.4-5.4,1.4h-.5Z"/>
    <path class="cls-3" d="M1238.8,364.7v-4.6h4.3v4.6h-4.3Z"/>
    <path class="cls-3" d="M806.6,531.5c-4.6,0-8.3-1.3-11.1-4-2.7-2.6-4.1-6.5-4.1-11.5v-1.8c0-3.3.6-6.1,1.9-8.4,1.3-2.3,3-4,5.3-5.2s4.9-1.8,8-1.8h.5c3,0,5.5.7,7.6,2.2,2.1,1.4,3.5,3.3,4.4,5.7l-6.8,2.9c-.5-1-1.2-1.9-2-2.5-.9-.7-1.9-1-3.2-1h-.4c-2,0-3.7.7-5,2-1.3,1.3-1.9,3.3-1.9,6.1v2.2c0,2.8.6,4.9,1.8,6.1,1.2,1.3,2.9,1.9,5,1.9h.4c1.4,0,2.6-.3,3.5-.9.9-.6,1.6-1.4,2.2-2.5l6.5,3.4c-.9,2-2.4,3.7-4.5,5.1-2.1,1.4-4.7,2-7.7,2h-.5Z"/>
    <path class="cls-3" d="M835.6,531.5c-3.4,0-6.1-1.1-8.1-3.3-2-2.2-3-5.3-3-9.3v-19.2h8.4v18.1c0,2.1.4,3.7,1.2,4.8.8,1.1,2.1,1.7,3.8,1.7h.5c1,0,1.9-.3,2.8-.8.9-.5,1.6-1.3,2.2-2.4.6-1.1.9-2.5.9-4.2v-17.2h8.4v31h-7.3v-3.8c-1,1.5-2.3,2.7-3.8,3.5-1.6.8-3.3,1.2-5.2,1.2h-.6Z"/>
    <path class="cls-3" d="M879.1,531.5c-4.1,0-7.6-.8-10.5-2.5-2.9-1.7-5.1-4.1-6.7-7.1-1.5-3.1-2.3-6.7-2.3-11v-2.4c0-4.2.8-7.9,2.3-11,1.5-3.1,3.8-5.5,6.7-7.1,2.9-1.7,6.4-2.5,10.5-2.5h.6c4.1,0,7.6.8,10.5,2.5,2.9,1.7,5.1,4.1,6.7,7.1,1.5,3.1,2.3,6.7,2.3,11v2.4c0,6-1.5,10.8-4.6,14.5l5.5,5.9-5.6,5.2-6-6.5c-2.6,1.1-5.5,1.6-8.7,1.6h-.6ZM879.1,523.8h.5c1,0,2,0,2.9-.3l-4.7-5.2,5.6-5.2,5.2,5.7c1.1-2,1.7-4.6,1.7-7.8v-2.8c0-4.3-1-7.5-2.9-9.6-1.9-2.1-4.6-3.2-7.8-3.2h-.5c-3.3,0-5.9,1.1-7.8,3.2-1.9,2.1-2.9,5.3-2.9,9.6v2.8c0,4.3,1,7.5,2.9,9.6,1.9,2.1,4.5,3.2,7.8,3.2Z"/>
    <path class="cls-3" d="M916.9,531.5c-3.4,0-6.1-1.1-8.1-3.3-2-2.2-3-5.3-3-9.3v-19.2h8.4v18.1c0,2.1.4,3.7,1.2,4.8.8,1.1,2.1,1.7,3.8,1.7h.5c1,0,1.9-.3,2.8-.8.9-.5,1.6-1.3,2.2-2.4.6-1.1.9-2.5.9-4.2v-17.2h8.4v31h-7.3v-3.8c-1,1.5-2.3,2.7-3.8,3.5-1.6.8-3.3,1.2-5.2,1.2h-.6Z"/>
    <path class="cls-3" d="M950.6,531.5c-3.3,0-5.9-.8-7.7-2.5-1.8-1.6-2.7-3.9-2.7-6.9s.8-4.9,2.5-6.5c1.7-1.6,4.1-2.7,7.2-3.1l9.7-1.3v-.2c0-3.6-1.7-5.5-5-5.5h-.6c-1.5,0-2.7.3-3.7.8-1,.5-1.8,1.5-2.5,2.9l-6.4-3.4c.9-2.1,2.5-3.8,4.6-5.1,2.2-1.3,4.8-1.9,8-1.9h.9c8.8,0,13.1,4.1,13.1,12.3v19.5h-7.3v-3.9c-1,1.5-2.3,2.6-4,3.5-1.7.8-3.6,1.3-5.8,1.3h-.3ZM959.6,516.9l-6.4.9c-1.8.3-3.1.7-3.8,1.2-.7.5-1.1,1.3-1.1,2.4s.4,1.9,1.2,2.6c.8.6,1.9.9,3.3.9h.5c2,0,3.6-.6,4.7-1.7,1.1-1.2,1.7-2.7,1.7-4.7v-1.5Z"/>
    <path class="cls-3" d="M975.4,530.7v-31h7.3v3.8c1-1.5,2.4-2.6,4-3.4,1.6-.8,3.4-1.2,5.4-1.2h.6c3.5,0,6.3,1.1,8.4,3.3,2.1,2.2,3.1,5.3,3.1,9.3v19.2h-8.4v-18.1c0-2.1-.4-3.7-1.3-4.8-.9-1.1-2.2-1.7-4-1.7h-.5c-1,0-2,.3-2.9.8-.9.5-1.7,1.3-2.3,2.4-.6,1.1-.9,2.5-.9,4.3v17.2h-8.4Z"/>
    <path class="cls-3" d="M1026.5,531c-4.3,0-7.3-.9-9.1-2.8-1.8-1.8-2.7-4.6-2.7-8.2v-13.3h-6.5v-7h6.5v-8.8h8.4v8.8h9.5l-1,7h-8.5v13c0,1.5.4,2.5,1.1,3.2.7.7,1.7,1,3,1h5.4v7.1h-6.2Z"/>
    <path class="cls-3" d="M1049.3,531.5c-3.4,0-6.1-1.1-8.1-3.3-2-2.2-3-5.3-3-9.3v-19.2h8.4v18.1c0,2.1.4,3.7,1.2,4.8.8,1.1,2.1,1.7,3.8,1.7h.5c1,0,1.9-.3,2.8-.8.9-.5,1.6-1.3,2.2-2.4.6-1.1.9-2.5.9-4.2v-17.2h8.4v31h-7.3v-3.8c-1,1.5-2.3,2.7-3.8,3.5-1.6.8-3.3,1.2-5.2,1.2h-.6Z"/>
    <path class="cls-3" d="M1074.1,530.7v-31h7.3v3.8c1-1.5,2.3-2.6,3.8-3.4,1.5-.8,3.2-1.2,5.2-1.2h.6c4.3,0,7.4,1.7,9.3,5,1-1.6,2.4-2.8,4-3.7,1.6-.9,3.5-1.3,5.5-1.3h.6c3.4,0,6,1.1,8,3.3,2,2.2,3,5.3,3,9.3v19.2h-8.4v-18.1c0-2.1-.4-3.7-1.2-4.8-.8-1.1-2-1.7-3.7-1.7h-.5c-1.4,0-2.7.6-3.9,1.8-1.2,1.2-1.8,3.1-1.8,5.7v17.2h-8.4v-18.1c0-2.1-.4-3.7-1.2-4.8-.8-1.1-2-1.7-3.7-1.7h-.5c-1.4,0-2.7.6-3.9,1.8-1.2,1.2-1.8,3.1-1.8,5.7v17.2h-8.4Z"/>
    <path class="cls-3" d="M699.8,589.2c-3.3,0-5.9-1-7.8-3-1.9-2-2.9-4.8-2.9-8.4v-1.7c0-2.4.5-4.4,1.4-6.1.9-1.7,2.2-3,3.8-3.9,1.6-.9,3.5-1.4,5.6-1.4h.5c2.1,0,3.8.5,5.3,1.4,1.5,1,2.5,2.2,3.2,3.8l-2.9,1.4c-.5-1.1-1.2-1.9-2.2-2.6-.9-.6-2.1-.9-3.4-.9h-.5c-2.1,0-3.8.7-5.1,2.1-1.3,1.4-2,3.4-2,6.2v1.7c0,2.8.7,4.8,2,6.2,1.3,1.4,3,2,5.2,2h.5c1.4,0,2.6-.3,3.5-.9.9-.6,1.6-1.4,2.1-2.4l2.9,1.4c-.7,1.5-1.8,2.7-3.2,3.7-1.5.9-3.3,1.4-5.4,1.4h-.5Z"/>
    <path class="cls-3" d="M722.9,589.2c-2.6,0-4.6-.8-6.2-2.4-1.6-1.6-2.3-4-2.3-7.1v-14.4h3.7v13.8c0,2.3.5,4,1.4,5.2,1,1.2,2.4,1.8,4.2,1.8h.4c1.2,0,2.3-.3,3.3-.9,1-.6,1.8-1.5,2.4-2.7.6-1.2.9-2.7.9-4.4v-12.8h3.7v23.4h-3.4v-4.1c-.6,1.4-1.6,2.5-2.9,3.4-1.3.9-2.8,1.3-4.7,1.3h-.4Z"/>
    <path class="cls-3" d="M752.3,589.2c-6.3,0-10.4-2.3-12.3-6.9l3.3-1.7c.7,1.8,1.8,3.1,3.3,4,1.5.9,3.4,1.3,5.7,1.3h.5c2.5,0,4.5-.5,5.9-1.4,1.4-1,2-2.3,2-4.1v-.5c0-1.5-.4-2.7-1.3-3.6-.9-.9-2.3-1.5-4.2-1.9l-5.9-1c-5.6-.9-8.3-3.7-8.3-8.4v-.6c0-1.7.5-3.2,1.4-4.5.9-1.3,2.2-2.3,3.9-3,1.7-.7,3.6-1.1,5.8-1.1h.6c2.8,0,5.1.6,7.1,1.7,1.9,1.1,3.4,2.8,4.2,4.9l-3.4,1.4c-1.2-3.1-3.8-4.6-8-4.6h-.6c-2.3,0-4.1.5-5.4,1.4-1.3.9-2,2.2-2,3.8v.6c0,1.4.4,2.5,1.3,3.3.9.8,2.2,1.3,4.1,1.7l5.9,1c2.8.5,4.9,1.4,6.3,3s2.1,3.5,2.1,6v.6c0,2.7-1,4.9-3.1,6.5-2.1,1.6-4.9,2.4-8.5,2.4h-.6Z"/>
    <path class="cls-3" d="M779.9,588.8c-2.7,0-4.6-.6-5.8-1.9-1.1-1.3-1.7-3-1.7-5.2v-13.5h-5v-3h5v-7.1h3.7v7.1h8.1l-.5,3h-7.6v13.3c0,1.5.3,2.5,1,3.2.7.7,1.7,1,3.1,1h4v3.1h-4.3Z"/>
    <path class="cls-3" d="M795.9,589.2c-2.5,0-4.4-.6-5.8-1.8-1.4-1.2-2-2.9-2-5.2s.6-3.3,1.7-4.5c1.1-1.2,2.8-1.9,5.1-2.2l9.2-1.2v-.2c0-4.2-1.9-6.3-5.6-6.3h-.5c-2.9,0-5,1.1-6,3.4l-2.9-1.4c.7-1.6,1.8-2.8,3.4-3.7,1.5-.9,3.4-1.3,5.6-1.3h.7c3,0,5.2.8,6.8,2.3,1.5,1.6,2.3,3.8,2.3,6.8v14.8h-3.4v-4.2c-.7,1.5-1.8,2.6-3.2,3.5-1.4.8-3.1,1.3-4.9,1.3h-.4ZM804,577.1l-7.6,1.1c-1.8.2-3,.7-3.7,1.2-.7.6-1.1,1.5-1.1,2.7s.4,2.3,1.3,3c.8.7,2.1,1.1,3.7,1.1h.5c2.1,0,3.8-.7,5.1-2,1.3-1.3,1.9-3.1,1.9-5.4v-1.7Z"/>
    <path class="cls-3" d="M823.8,588.8c-2.7,0-4.6-.6-5.8-1.9-1.1-1.3-1.7-3-1.7-5.2v-13.5h-5v-3h5v-7.1h3.7v7.1h8.1l-.5,3h-7.6v13.3c0,1.5.3,2.5,1,3.2.7.7,1.7,1,3.1,1h4v3.1h-4.3Z"/>
    <path class="cls-3" d="M842.8,589.2c-3.2,0-5.8-1-7.6-3-1.9-2-2.8-4.8-2.8-8.4v-1.7c0-2.4.4-4.4,1.3-6.1.9-1.7,2.1-3,3.7-3.9,1.6-.9,3.4-1.4,5.5-1.4h.4c2.1,0,3.8.4,5.3,1.3,1.5.9,2.6,2.1,3.5,3.7.8,1.6,1.2,3.4,1.2,5.5v2.8h-17.2c0,2.7.7,4.8,1.9,6.1,1.2,1.4,2.9,2,4.9,2h.7c1.5,0,2.8-.3,3.7-.8,1-.6,1.7-1.3,2.3-2.4l2.8,1.7c-.8,1.4-2,2.5-3.5,3.4-1.5.8-3.3,1.2-5.4,1.2h-.7ZM836,575.2h13.5v-.5c0-2.3-.6-4-1.7-5.2-1.1-1.2-2.7-1.7-4.7-1.7h-.4c-1.9,0-3.5.6-4.7,1.9-1.2,1.3-1.9,3.1-2,5.5Z"/>
    <path class="cls-3" d="M868.4,588.7l-12.4-32.2h4.1l10,27.2,10-27.2h3.9l-12.4,32.2h-3.3Z"/>
    <path class="cls-3" d="M895.5,589.2c-3.2,0-5.8-1-7.6-3-1.9-2-2.8-4.8-2.8-8.4v-1.7c0-2.4.4-4.4,1.3-6.1.9-1.7,2.1-3,3.7-3.9,1.6-.9,3.4-1.4,5.5-1.4h.4c2.1,0,3.8.4,5.3,1.3,1.5.9,2.6,2.1,3.5,3.7.8,1.6,1.2,3.4,1.2,5.5v2.8h-17.2c0,2.7.7,4.8,1.9,6.1,1.2,1.4,2.9,2,4.9,2h.7c1.5,0,2.8-.3,3.7-.8,1-.6,1.7-1.3,2.3-2.4l2.8,1.7c-.8,1.4-2,2.5-3.5,3.4-1.5.8-3.3,1.2-5.4,1.2h-.7ZM888.8,575.2h13.5v-.5c0-2.3-.6-4-1.7-5.2-1.1-1.2-2.7-1.7-4.7-1.7h-.4c-1.9,0-3.5.6-4.7,1.9-1.2,1.3-1.9,3.1-2,5.5Z"/>
    <path class="cls-3" d="M921.3,589.2c-3.3,0-5.9-1-7.8-3-1.9-2-2.9-4.8-2.9-8.4v-1.7c0-2.4.5-4.4,1.4-6.1.9-1.7,2.2-3,3.8-3.9,1.6-.9,3.5-1.4,5.6-1.4h.5c2.1,0,3.8.5,5.3,1.4,1.5,1,2.5,2.2,3.2,3.8l-2.9,1.4c-.5-1.1-1.2-1.9-2.2-2.6-.9-.6-2.1-.9-3.4-.9h-.5c-2.1,0-3.8.7-5.1,2.1-1.3,1.4-2,3.4-2,6.2v1.7c0,2.8.7,4.8,2,6.2,1.3,1.4,3,2,5.2,2h.5c1.4,0,2.6-.3,3.5-.9.9-.6,1.6-1.4,2.1-2.4l2.9,1.4c-.7,1.5-1.8,2.7-3.2,3.7-1.5.9-3.3,1.4-5.4,1.4h-.5Z"/>
    <path class="cls-3" d="M936.1,595.1l-1.4-1.8,1.3-1c.6-.4,1-.8,1.2-1.2.2-.3.3-.9.3-1.7v-.8h-2v-4.6h4.3v5.5c0,.9,0,1.6-.3,2.1-.2.5-.4,1-.8,1.4-.4.4-.9.9-1.6,1.4l-1.1.8Z"/>
    <path class="cls-3" d="M967.9,589.2c-3.3,0-5.9-1-7.8-3-1.9-2-2.9-4.8-2.9-8.4v-1.7c0-2.4.5-4.4,1.4-6.1.9-1.7,2.2-3,3.8-3.9,1.6-.9,3.5-1.4,5.6-1.4h.5c2.1,0,3.8.5,5.3,1.4,1.5,1,2.5,2.2,3.2,3.8l-2.9,1.4c-.5-1.1-1.2-1.9-2.2-2.6-.9-.6-2.1-.9-3.4-.9h-.5c-2.1,0-3.8.7-5.1,2.1-1.3,1.4-2,3.4-2,6.2v1.7c0,2.8.7,4.8,2,6.2s3,2,5.2,2h.5c1.4,0,2.6-.3,3.5-.9.9-.6,1.6-1.4,2.1-2.4l2.9,1.4c-.7,1.5-1.8,2.7-3.2,3.7-1.5.9-3.3,1.4-5.4,1.4h-.5Z"/>
    <path class="cls-3" d="M990.9,589.2c-2.6,0-4.6-.8-6.2-2.4-1.6-1.6-2.3-4-2.3-7.1v-14.4h3.7v13.8c0,2.3.5,4,1.4,5.2,1,1.2,2.4,1.8,4.2,1.8h.4c1.2,0,2.3-.3,3.3-.9,1-.6,1.8-1.5,2.4-2.7.6-1.2.9-2.7.9-4.4v-12.8h3.7v23.4h-3.4v-4.1c-.6,1.4-1.6,2.5-2.9,3.4-1.3.9-2.8,1.3-4.7,1.3h-.4Z"/>
    <path class="cls-3" d="M1017.4,588.7v-28.9h-10.4v-3.3h24.5v3.3h-10.4v28.9h-3.8Z"/>
    <path class="cls-3" d="M1042.1,589.2c-3.2,0-5.8-1-7.6-3-1.9-2-2.8-4.8-2.8-8.4v-1.7c0-2.4.4-4.4,1.3-6.1.9-1.7,2.1-3,3.7-3.9s3.4-1.4,5.5-1.4h.4c2.1,0,3.8.4,5.3,1.3,1.5.9,2.6,2.1,3.5,3.7.8,1.6,1.2,3.4,1.2,5.5v2.8h-17.2c0,2.7.7,4.8,1.9,6.1,1.2,1.4,2.9,2,4.9,2h.7c1.5,0,2.8-.3,3.8-.8,1-.6,1.7-1.3,2.3-2.4l2.8,1.7c-.8,1.4-2,2.5-3.5,3.4-1.5.8-3.3,1.2-5.4,1.2h-.7ZM1035.4,575.2h13.5v-.5c0-2.3-.6-4-1.7-5.2-1.2-1.2-2.7-1.7-4.7-1.7h-.4c-1.9,0-3.5.6-4.7,1.9-1.2,1.3-1.9,3.1-2,5.5Z"/>
    <path class="cls-3" d="M1058.4,588.7v-23.4h3.4v4.2c.6-1.4,1.6-2.6,2.9-3.4,1.3-.9,3-1.3,4.9-1.3h.4c2.7,0,4.8.8,6.4,2.4,1.6,1.6,2.4,4,2.4,7.1v14.4h-3.7v-13.8c0-2.3-.5-4-1.5-5.2-1-1.2-2.5-1.8-4.4-1.8h-.3c-1.2,0-2.4.3-3.4.9-1,.6-1.9,1.5-2.5,2.7s-1,2.7-1,4.4v12.8h-3.7Z"/>
    <path class="cls-3" d="M1094.1,589.2c-5.1,0-8.5-1.8-10-5.4l2.9-1.5c.6,1.3,1.5,2.2,2.6,2.9,1.2.6,2.6.9,4.5.9h.5c3.7,0,5.5-1.2,5.5-3.5v-.2c0-2.1-1.2-3.2-3.6-3.5l-5.2-.7c-2.1-.3-3.6-.9-4.8-2-1.1-1-1.7-2.5-1.7-4.2v-.5c0-2,.8-3.6,2.4-4.8,1.6-1.2,3.7-1.8,6.3-1.8h.6c2.1,0,4,.4,5.6,1.3,1.6.9,2.7,2.1,3.3,3.7l-2.9,1.3c-1-2.1-3-3.2-6-3.2h-.6c-1.6,0-2.9.3-3.8,1-.9.6-1.4,1.5-1.4,2.6v.3c0,1,.3,1.7.9,2.2s1.5.9,2.8,1l5.3.7c2,.3,3.6,1,4.7,2.1s1.7,2.6,1.7,4.4v.5c0,2.2-.8,3.8-2.3,4.9s-3.8,1.7-6.7,1.7h-.6Z"/>
    <path class="cls-3" d="M1118.7,589.2c-2,0-3.8-.5-5.5-1.4-1.6-.9-2.9-2.2-3.8-3.9-.9-1.7-1.4-3.8-1.4-6.2v-1.6c0-2.4.5-4.4,1.4-6.2.9-1.7,2.2-3,3.8-3.9,1.6-.9,3.4-1.4,5.5-1.4h.5c2.1,0,3.9.5,5.5,1.4,1.6.9,2.9,2.2,3.8,3.9.9,1.7,1.4,3.7,1.4,6.1v1.7c0,2.4-.5,4.4-1.4,6.1-.9,1.7-2.2,3-3.8,3.9-1.6.9-3.4,1.4-5.5,1.4h-.5ZM1118.7,586h.4c2,0,3.7-.7,5-2.1,1.4-1.4,2-3.4,2-6.2v-1.7c0-2.7-.7-4.8-2-6.2-1.4-1.4-3-2.1-5-2.1h-.4c-2,0-3.6.7-5,2.1-1.4,1.4-2,3.4-2,6.2v1.7c0,2.7.7,4.8,2,6.2,1.4,1.4,3,2.1,5,2.1Z"/>
    <path class="cls-3" d="M1135.9,588.7v-23.4h3.4v4.9c.6-1.5,1.4-2.8,2.5-3.7,1.1-.9,2.8-1.4,4.9-1.4h2.2v3.4h-2.3c-2,0-3.6.7-4.9,2-1.3,1.4-2,3.5-2,6.3v11.9h-3.7Z"/>
    <path class="cls-3" d="M1154.8,588.7v-32.2h3.3l18.2,25.7v-25.7h3.6v32.2h-3.3l-18.1-25.7v25.7h-3.7Z"/>
    <path class="cls-3" d="M1197.2,589.2c-3.2,0-5.8-1-7.6-3-1.9-2-2.8-4.8-2.8-8.4v-1.7c0-2.4.4-4.4,1.3-6.1.9-1.7,2.1-3,3.7-3.9,1.6-.9,3.4-1.4,5.5-1.4h.4c2.1,0,3.8.4,5.3,1.3s2.6,2.1,3.5,3.7c.8,1.6,1.2,3.4,1.2,5.5v2.8h-17.2c0,2.7.7,4.8,1.9,6.1,1.2,1.4,2.9,2,4.9,2h.7c1.5,0,2.8-.3,3.7-.8,1-.6,1.7-1.3,2.3-2.4l2.8,1.7c-.8,1.4-2,2.5-3.5,3.4-1.5.8-3.3,1.2-5.4,1.2h-.7ZM1190.4,575.2h13.5v-.5c0-2.3-.6-4-1.7-5.2-1.2-1.2-2.7-1.7-4.7-1.7h-.4c-1.9,0-3.5.6-4.7,1.9-1.2,1.3-1.9,3.1-2,5.5Z"/>
    <path class="cls-3" d="M1223.2,588.8c-2.7,0-4.6-.6-5.8-1.9-1.1-1.3-1.7-3-1.7-5.2v-13.5h-5v-3h5v-7.1h3.7v7.1h8.1l-.5,3h-7.6v13.3c0,1.5.3,2.5,1,3.2.7.7,1.7,1,3.1,1h4v3.1h-4.3Z"/>
    <path class="cls-3" d="M672.1,745.5c-13.3,0-20-6.8-20-20.5v-2.3c0-4.4.8-8.1,2.3-11.2,1.5-3.1,3.8-5.5,6.6-7.1s6.3-2.5,10.4-2.5h.5c4,0,7.4.9,10.2,2.6,2.8,1.7,4.8,4.2,6,7.5l-8,2.8c-1.1-3.5-3.9-5.2-8.3-5.2h-.4c-3.4,0-6.1,1.1-7.9,3.3-1.8,2.2-2.7,5.5-2.7,9.7v2.7c0,4.3.9,7.5,2.7,9.5,1.8,2,4.6,3.1,8.5,3.1h.4c1.6,0,3-.1,4.4-.4,1.4-.2,2.6-.6,3.7-1.1v-7.7h-9l1-7.3h16.4v19.3c-2,1.6-4.5,2.8-7.3,3.6-2.8.8-5.8,1.2-9.1,1.2h-.5Z"/>
    <path class="cls-3" d="M697.4,744.7v-42h15.9c3.2,0,6,.6,8.4,1.7,2.4,1.1,4.2,2.7,5.5,4.7,1.3,2,1.9,4.5,1.9,7.3v1.1c0,4.4-1.4,7.7-4.3,10.1s-6.7,3.6-11.6,3.6h-7.1v13.6h-8.8ZM706.2,723.5h6.9c2.1,0,3.8-.5,5.2-1.4,1.4-.9,2.1-2.4,2.1-4.6v-1.5c0-2-.7-3.5-2.1-4.5-1.4-.9-3.2-1.4-5.2-1.4h-6.9v13.3Z"/>
    <path class="cls-3" d="M770.5,702.7v25.5c0,5.5-1.5,9.7-4.4,12.8-3,3-7.2,4.6-12.7,4.6h-.6c-5.4,0-9.7-1.5-12.6-4.6-3-3-4.5-7.3-4.5-12.8v-25.5h8.8v25.7c0,3.3.7,5.7,2.2,7.2,1.5,1.5,3.5,2.2,6.2,2.2h.5c2.6,0,4.7-.8,6.2-2.2,1.5-1.5,2.2-3.9,2.2-7.2v-25.7h8.8Z"/>
    <path class="cls-3" d="M807.8,745.5c-8.8,0-14.3-3.1-16.7-9.3l7.4-3.8c1.4,3.7,4.5,5.6,9.4,5.6h.8c5.1,0,7.6-1.6,7.6-4.9v-.6c0-1.3-.4-2.4-1.3-3.3-.9-.9-2.1-1.5-3.8-1.7l-6.5-.8c-4-.5-7-1.7-9.1-3.8-2.1-2-3.1-4.8-3.1-8.2v-.7c0-2.5.6-4.6,1.9-6.4,1.3-1.8,3.1-3.2,5.4-4.2s5.1-1.5,8.2-1.5h.9c3.8,0,7.1.8,9.7,2.3,2.6,1.5,4.5,3.8,5.7,6.7l-7.7,3.2c-1.1-3.2-3.7-4.7-7.8-4.7h-.8c-2.2,0-3.9.4-5.1,1.3-1.2.8-1.8,2-1.8,3.4v.6c0,2.4,1.7,3.9,5,4.3l6.5.8c4.1.5,7.1,1.8,9.2,4,2.1,2.2,3.1,5.1,3.1,8.6v.7c0,4-1.4,7.1-4.2,9.3-2.8,2.2-6.8,3.3-12.1,3.3h-.9Z"/>
    <path class="cls-3" d="M841.3,745.5c-3.4,0-6.1-1.1-8.1-3.3-2-2.2-3-5.3-3-9.3v-19.2h8.4v18.1c0,2.1.4,3.7,1.2,4.8.8,1.1,2.1,1.7,3.8,1.7h.5c1,0,1.9-.3,2.8-.8.9-.5,1.6-1.3,2.2-2.4.6-1.1.9-2.5.9-4.2v-17.2h8.4v31h-7.3v-3.8c-1,1.5-2.3,2.7-3.8,3.5-1.6.8-3.3,1.2-5.2,1.2h-.6Z"/>
    <path class="cls-3" d="M866.1,756.7v-43h7.3v3.8c2.1-3.1,5.4-4.7,9.8-4.7h.4c2.5,0,4.7.6,6.7,1.8,1.9,1.2,3.5,2.9,4.6,5.2,1.1,2.3,1.6,5.1,1.6,8.5v1.8c0,3.3-.6,6.1-1.6,8.4-1.1,2.3-2.6,4-4.6,5.2-1.9,1.2-4.2,1.8-6.7,1.8h-.4c-3.7,0-6.6-1.2-8.7-3.7v14.9h-8.4ZM880.9,738.3h.5c1.9,0,3.5-.6,4.8-1.9,1.3-1.3,1.9-3.3,1.9-6.2v-2c0-2.8-.6-4.9-1.9-6.2-1.3-1.3-2.9-1.9-4.8-1.9h-.5c-1,0-2.1.3-3.1.8s-1.9,1.4-2.5,2.6c-.6,1.2-1,2.8-1,4.8v1.9c0,2,.3,3.5,1,4.7.7,1.2,1.5,2.1,2.5,2.6s2,.8,3,.8Z"/>
    <path class="cls-3" d="M916,745.5c-4.7,0-8.4-1.3-11-4-2.6-2.7-3.9-6.5-3.9-11.3v-1.8c0-4.9,1.3-8.7,4-11.4,2.6-2.7,6.3-4.1,10.9-4.1h.5c4.4,0,7.8,1.3,10.3,4,2.5,2.7,3.7,6.3,3.7,11v3.8h-21.1c.3,4.8,2.5,7.1,6.6,7.1h.8c3.2,0,5.4-1.1,6.7-3.2l6.1,4c-1.1,1.8-2.8,3.3-5,4.3-2.2,1-4.8,1.6-7.6,1.6h-.9ZM909.4,726h12.8v-.2c0-4.2-1.9-6.2-5.8-6.2h-.5c-3.8,0-6,2.1-6.5,6.4Z"/>
    <path class="cls-3" d="M936.4,744.7v-31h7.3v5.3c.8-1.8,1.9-3.2,3.2-4.2,1.3-1,3-1.5,5.2-1.5h3.3v7.7h-3c-1.2,0-2.4.2-3.5.7-1.2.5-2.1,1.3-2.9,2.5-.8,1.2-1.2,2.8-1.2,4.9v15.5h-8.4Z"/>
    <path class="cls-3" d="M973.3,745.5c-4.6,0-8.3-1.3-11.1-4-2.7-2.6-4.1-6.5-4.1-11.5v-1.8c0-3.3.6-6.1,1.9-8.4,1.3-2.3,3-4,5.3-5.2,2.3-1.2,4.9-1.8,8-1.8h.5c3,0,5.5.7,7.6,2.2,2.1,1.4,3.5,3.3,4.4,5.7l-6.8,2.9c-.5-1-1.2-1.9-2-2.5-.9-.7-1.9-1-3.2-1h-.4c-2,0-3.7.7-5,1.9-1.3,1.3-1.9,3.3-1.9,6.1v2.2c0,2.8.6,4.9,1.8,6.2s2.9,1.9,5,1.9h.4c1.4,0,2.6-.3,3.5-.9.9-.6,1.6-1.4,2.2-2.5l6.5,3.4c-.9,2-2.4,3.7-4.5,5.1-2.1,1.4-4.7,2-7.7,2h-.5Z"/>
    <path class="cls-3" d="M1005.1,745.5c-2.9,0-5.5-.6-7.7-1.8-2.3-1.2-4.1-2.9-5.4-5.2-1.3-2.3-2-5.1-2-8.4v-1.8c0-3.3.7-6.1,2-8.4,1.3-2.3,3.1-4,5.4-5.2,2.3-1.2,4.9-1.8,7.7-1.8h.4c2.9,0,5.5.6,7.7,1.8,2.3,1.2,4.1,2.9,5.4,5.2,1.3,2.3,2,5.1,2,8.4v1.8c0,3.3-.7,6.1-2,8.4-1.3,2.3-3.1,4-5.4,5.2-2.3,1.2-4.9,1.8-7.7,1.8h-.4ZM1005.1,738.3h.4c2,0,3.6-.6,4.8-1.9,1.3-1.3,1.9-3.3,1.9-6.1v-2.2c0-2.8-.6-4.8-1.9-6.1-1.3-1.3-2.9-1.9-4.8-1.9h-.4c-2,0-3.6.6-4.8,1.9-1.3,1.3-1.9,3.3-1.9,6.1v2.2c0,2.8.6,4.8,1.9,6.1,1.3,1.3,2.9,1.9,4.8,1.9Z"/>
    <path class="cls-3" d="M1026.8,744.7v-31h7.3v3.8c1-1.5,2.3-2.6,3.8-3.4s3.2-1.2,5.2-1.2h.6c4.3,0,7.4,1.7,9.3,5,1-1.6,2.4-2.8,4-3.7,1.6-.9,3.5-1.3,5.5-1.3h.6c3.4,0,6,1.1,8,3.3,2,2.2,3,5.3,3,9.3v19.2h-8.4v-18.1c0-2.1-.4-3.7-1.2-4.8-.8-1.1-2-1.7-3.7-1.7h-.5c-1.4,0-2.7.6-3.9,1.8-1.2,1.2-1.8,3.1-1.8,5.7v17.2h-8.4v-18.1c0-2.1-.4-3.7-1.2-4.8-.8-1.1-2-1.7-3.7-1.7h-.5c-1.4,0-2.7.6-3.9,1.8-1.2,1.2-1.8,3.1-1.8,5.7v17.2h-8.4Z"/>
    <path class="cls-3" d="M1081.5,756.7v-43h7.3v3.8c2.1-3.1,5.4-4.7,9.8-4.7h.4c2.5,0,4.7.6,6.7,1.8,1.9,1.2,3.5,2.9,4.6,5.2,1.1,2.3,1.7,5.1,1.7,8.5v1.8c0,3.3-.6,6.1-1.7,8.4-1.1,2.3-2.6,4-4.6,5.2-1.9,1.2-4.2,1.8-6.7,1.8h-.4c-3.7,0-6.6-1.2-8.7-3.7v14.9h-8.4ZM1096.3,738.3h.5c1.9,0,3.5-.6,4.8-1.9,1.3-1.3,1.9-3.3,1.9-6.2v-2c0-2.8-.6-4.9-1.9-6.2-1.3-1.3-2.9-1.9-4.8-1.9h-.5c-1,0-2.1.3-3.1.8-1,.5-1.9,1.4-2.5,2.6-.6,1.2-1,2.8-1,4.8v1.9c0,2,.3,3.5,1,4.7.7,1.2,1.5,2.1,2.5,2.6,1,.5,2,.8,3,.8Z"/>
    <path class="cls-3" d="M1128.8,745.5c-3.4,0-6.1-1.1-8.1-3.3-2-2.2-3-5.3-3-9.3v-19.2h8.4v18.1c0,2.1.4,3.7,1.2,4.8.8,1.1,2.1,1.7,3.8,1.7h.5c1,0,1.9-.3,2.8-.8.9-.5,1.6-1.3,2.2-2.4.6-1.1.9-2.5.9-4.2v-17.2h8.4v31h-7.3v-3.8c-1,1.5-2.3,2.7-3.8,3.5-1.6.8-3.3,1.2-5.2,1.2h-.6Z"/>
    <path class="cls-3" d="M1167.9,745c-4.3,0-7.3-.9-9.1-2.8-1.8-1.8-2.7-4.6-2.7-8.2v-13.3h-6.5v-7h6.5v-8.8h8.4v8.8h9.5l-1,7h-8.5v13c0,1.5.4,2.5,1.1,3.2.7.7,1.7,1,3,1h5.4v7.1h-6.2Z"/>
    <path class="cls-3" d="M1179.8,709.3v-8.4h8.6v8.4h-8.6ZM1179.9,744.7v-31h8.4v31h-8.4Z"/>
    <path class="cls-3" d="M1196.1,744.7v-31h7.3v3.8c1-1.5,2.4-2.6,4-3.5,1.6-.8,3.4-1.2,5.4-1.2h.6c3.5,0,6.3,1.1,8.4,3.3,2.1,2.2,3.1,5.3,3.1,9.3v19.2h-8.4v-18.1c0-2.1-.4-3.7-1.3-4.8-.9-1.1-2.2-1.7-4-1.7h-.5c-1,0-2,.3-2.9.8-.9.5-1.7,1.3-2.3,2.4-.6,1.1-.9,2.5-.9,4.3v17.2h-8.4Z"/>
    <path class="cls-3" d="M1244.9,757.5c-3,0-5.6-.5-7.6-1.4-2-1-3.6-2.4-4.8-4.3l5.9-4.5c.8,1.2,1.7,2,2.7,2.5,1,.5,2.4.8,4.1.8h.7c4.5,0,6.7-2.6,6.7-7.9v-1.9c-2.1,2.5-5,3.7-8.6,3.7h-.5c-2.6,0-4.8-.6-6.8-1.9-1.9-1.3-3.4-3-4.5-5.3s-1.6-4.9-1.6-7.9v-1.4c0-3,.5-5.6,1.6-7.9,1.1-2.3,2.6-4,4.5-5.3s4.2-1.9,6.8-1.9h.5c4.4,0,7.6,1.6,9.7,4.7v-3.8h7.3v28.6c0,4.9-1.3,8.6-3.8,11.2-2.6,2.6-6.2,3.9-11,3.9h-1.4ZM1245.8,737.2h.5c1.9,0,3.5-.7,4.7-2.2,1.2-1.4,1.8-3.3,1.8-5.6v-1.6c0-2.3-.6-4.2-1.8-5.6-1.2-1.4-2.8-2.2-4.7-2.2h-.5c-2.1,0-3.7.7-4.9,2.1-1.2,1.4-1.8,3.3-1.8,5.7v1.5c0,2.4.6,4.4,1.8,5.8,1.2,1.4,2.8,2.1,4.9,2.1Z"/>
    <path class="cls-3" d="M629.9,802.7v-32.2h4.3l12.4,27,12.4-27h4.2v32.2h-3.7v-25.3l-11.6,25.3h-2.7l-11.6-25.3v25.3h-3.7Z"/>
    <path class="cls-3" d="M679.6,803.2c-2.6,0-4.6-.8-6.2-2.4-1.6-1.6-2.3-4-2.3-7.1v-14.4h3.7v13.8c0,2.3.5,4,1.4,5.2,1,1.2,2.4,1.8,4.2,1.8h.4c1.2,0,2.3-.3,3.3-.9,1-.6,1.8-1.5,2.4-2.7.6-1.2.9-2.7.9-4.4v-12.8h3.7v23.4h-3.4v-4.1c-.6,1.4-1.6,2.5-2.9,3.4-1.3.9-2.8,1.3-4.7,1.3h-.4Z"/>
    <path class="cls-3" d="M698.3,802.7v-33.6h3.7v33.6h-3.7Z"/>
    <path class="cls-3" d="M718.7,802.8c-2.7,0-4.6-.6-5.8-1.9-1.1-1.3-1.7-3-1.7-5.2v-13.5h-5v-3h5v-7.1h3.7v7.1h8.1l-.5,3h-7.6v13.3c0,1.5.3,2.5,1,3.2.7.7,1.7,1,3.1,1h4v3.1h-4.3Z"/>
    <path class="cls-3" d="M728.4,774.3v-4.2h3.9v4.2h-3.9ZM728.5,802.7v-23.4h3.7v23.4h-3.7Z"/>
    <path class="cls-3" d="M739.5,790.9v-3.5h13.2v3.5h-13.2Z"/>
    <path class="cls-3" d="M771.8,803.2c-4.8,0-8.4-1.3-10.8-4-2.5-2.7-3.7-6.5-3.7-11.5v-2.1c0-3.2.6-6,1.7-8.4,1.1-2.3,2.7-4.2,4.8-5.4,2.1-1.3,4.5-1.9,7.3-1.9h.6c2.9,0,5.4.6,7.4,1.9,2,1.3,3.5,3.1,4.4,5.5l-3.5,1.2c-1.2-3.5-4-5.2-8.3-5.2h-.6c-3.2,0-5.6,1.1-7.4,3.2s-2.6,5.2-2.6,9.1v2.3c0,8,3.6,12.1,10.7,12.1h.6c3.2,0,5.8-.6,7.9-1.8v-8.9h-8.2l.5-3.2h11.4v13.8c-1.4,1-3,1.9-4.9,2.5-1.9.6-4.1.9-6.6.9h-.6Z"/>
    <path class="cls-3" d="M791.5,802.7v-32.2h11.3c3.6,0,6.5.8,8.5,2.5,2,1.6,3,4,3,7v1.1c0,3-1,5.3-3.1,7-2,1.7-4.9,2.5-8.4,2.5h-7.5v12.2h-3.8ZM795.3,787.2h7.5c2.5,0,4.4-.5,5.7-1.5,1.3-1,2-2.5,2-4.6v-1.2c0-2.1-.7-3.6-2-4.6-1.4-1-3.3-1.5-5.7-1.5h-7.5v13.5Z"/>
    <path class="cls-3" d="M845.4,770.5v19.6c0,4.1-1.1,7.4-3.2,9.7-2.1,2.3-5.2,3.5-9.1,3.5h-.6c-4,0-7-1.2-9.1-3.5-2.1-2.3-3.2-5.5-3.2-9.7v-19.6h3.8v19.7c0,3.2.7,5.6,2.2,7.2,1.4,1.6,3.6,2.5,6.3,2.5h.5c2.8,0,4.9-.8,6.3-2.5,1.4-1.6,2.2-4.1,2.2-7.2v-19.7h3.8Z"/>
    <path class="cls-3" d="M865,802.7v-32.2h4.3l12.4,27,12.4-27h4.2v32.2h-3.7v-25.3l-11.6,25.3h-2.7l-11.6-25.3v25.3h-3.7Z"/>
    <path class="cls-3" d="M914.6,803.2c-2.6,0-4.6-.8-6.2-2.4-1.6-1.6-2.3-4-2.3-7.1v-14.4h3.7v13.8c0,2.3.5,4,1.4,5.2,1,1.2,2.4,1.8,4.2,1.8h.4c1.2,0,2.3-.3,3.3-.9,1-.6,1.8-1.5,2.4-2.7.6-1.2.9-2.7.9-4.4v-12.8h3.7v23.4h-3.4v-4.1c-.6,1.4-1.6,2.5-2.9,3.4-1.3.9-2.8,1.3-4.7,1.3h-.4Z"/>
    <path class="cls-3" d="M933.3,802.7v-33.6h3.7v33.6h-3.7Z"/>
    <path class="cls-3" d="M953.7,802.8c-2.7,0-4.6-.6-5.8-1.9-1.1-1.3-1.7-3-1.7-5.2v-13.5h-5v-3h5v-7.1h3.7v7.1h8.1l-.5,3h-7.6v13.3c0,1.5.3,2.5,1,3.2.7.7,1.7,1,3.1,1h4v3.1h-4.3Z"/>
    <path class="cls-3" d="M963.4,774.3v-4.2h3.9v4.2h-3.9ZM963.5,802.7v-23.4h3.7v23.4h-3.7Z"/>
    <path class="cls-3" d="M974.5,790.9v-3.5h13.2v3.5h-13.2Z"/>
    <path class="cls-3" d="M993.8,802.7v-32.2h3.3l18.2,25.7v-25.7h3.6v32.2h-3.3l-18.1-25.7v25.7h-3.7Z"/>
    <path class="cls-3" d="M1036.3,803.2c-2,0-3.8-.5-5.5-1.4s-2.9-2.2-3.8-3.9c-.9-1.7-1.4-3.8-1.4-6.2v-1.6c0-2.4.5-4.4,1.4-6.2.9-1.7,2.2-3,3.8-3.9,1.6-.9,3.4-1.4,5.5-1.4h.5c2.1,0,3.9.5,5.5,1.4,1.6.9,2.9,2.2,3.8,3.9.9,1.7,1.4,3.7,1.4,6.1v1.7c0,2.4-.5,4.4-1.4,6.1-.9,1.7-2.2,3-3.8,3.9s-3.4,1.4-5.5,1.4h-.5ZM1036.3,800h.4c2,0,3.7-.7,5-2.1,1.4-1.4,2-3.4,2-6.2v-1.7c0-2.7-.7-4.8-2-6.2-1.4-1.4-3-2.1-5-2.1h-.4c-2,0-3.6.7-5,2.1-1.4,1.4-2,3.4-2,6.2v1.7c0,2.7.7,4.8,2,6.2,1.4,1.4,3,2.1,5,2.1Z"/>
    <path class="cls-3" d="M1062.3,803.2c-1.9,0-3.7-.4-5.2-1.3s-2.7-2.2-3.6-3.9c-.9-1.7-1.3-3.8-1.3-6.3v-1.7c0-2.5.4-4.5,1.3-6.2s2.1-3,3.6-3.9c1.5-.9,3.2-1.3,5.2-1.3h.3c1.8,0,3.3.4,4.6,1.1s2.3,1.8,3,3v-13.8h3.7v33.6h-3.4v-4c-.7,1.4-1.7,2.5-3.1,3.3-1.3.8-3,1.3-4.9,1.3h-.3ZM1062.9,800h.4c1.3,0,2.5-.3,3.5-.9,1-.6,1.9-1.5,2.5-2.7.6-1.2.9-2.8.9-4.8v-1.4c0-2-.3-3.6-.9-4.8-.6-1.2-1.5-2.1-2.5-2.7-1-.6-2.2-.9-3.5-.9h-.4c-2,0-3.7.7-5,2s-2,3.4-2,6.2v1.7c0,2.8.7,4.9,2,6.3,1.3,1.3,3,2,5,2Z"/>
    <path class="cls-3" d="M1090.4,803.2c-3.2,0-5.8-1-7.6-3-1.9-2-2.8-4.8-2.8-8.4v-1.7c0-2.4.4-4.4,1.3-6.1.9-1.7,2.1-3,3.7-3.9,1.6-.9,3.4-1.4,5.5-1.4h.4c2.1,0,3.8.4,5.3,1.3s2.6,2.1,3.5,3.7c.8,1.6,1.2,3.4,1.2,5.5v2.8h-17.2c0,2.7.7,4.8,1.9,6.1,1.2,1.4,2.9,2,4.9,2h.7c1.5,0,2.8-.3,3.7-.8,1-.6,1.7-1.3,2.3-2.4l2.8,1.7c-.8,1.4-2,2.5-3.5,3.4-1.5.8-3.3,1.2-5.4,1.2h-.7ZM1083.6,789.2h13.5v-.5c0-2.3-.6-4-1.7-5.2-1.2-1.2-2.7-1.7-4.7-1.7h-.4c-1.9,0-3.5.6-4.7,1.9-1.2,1.3-1.9,3.1-2,5.5Z"/>
    <path class="cls-3" d="M1129.2,803.2c-6.3,0-10.3-2.3-12.3-6.9l3.3-1.7c.7,1.8,1.8,3.1,3.3,4,1.5.9,3.3,1.3,5.7,1.3h.5c2.5,0,4.5-.5,5.9-1.4s2-2.3,2-4.1v-.5c0-1.5-.4-2.7-1.3-3.6s-2.3-1.5-4.2-1.9l-5.9-1c-5.6-.9-8.3-3.7-8.3-8.4v-.6c0-1.7.5-3.2,1.4-4.5.9-1.3,2.2-2.3,3.9-3s3.6-1.1,5.8-1.1h.6c2.8,0,5.1.6,7.1,1.7,1.9,1.1,3.3,2.8,4.2,4.9l-3.4,1.4c-1.2-3.1-3.8-4.6-8-4.6h-.6c-2.3,0-4.1.5-5.4,1.4s-2,2.2-2,3.8v.6c0,1.4.4,2.5,1.3,3.3.9.8,2.2,1.3,4.1,1.7l5.9,1c2.8.5,4.9,1.4,6.3,3,1.4,1.5,2.1,3.5,2.1,6v.6c0,2.7-1,4.9-3.1,6.5-2.1,1.6-4.9,2.4-8.5,2.4h-.6Z"/>
    <path class="cls-3" d="M1155.3,803.2c-2.6,0-4.6-.8-6.2-2.4-1.6-1.6-2.3-4-2.3-7.1v-14.4h3.7v13.8c0,2.3.5,4,1.4,5.2s2.4,1.8,4.2,1.8h.4c1.2,0,2.3-.3,3.3-.9,1-.6,1.8-1.5,2.4-2.7.6-1.2.9-2.7.9-4.4v-12.8h3.7v23.4h-3.4v-4.1c-.6,1.4-1.6,2.5-2.9,3.4-1.3.9-2.8,1.3-4.7,1.3h-.4Z"/>
    <path class="cls-3" d="M1174.1,811.9v-32.6h3.4v4c.7-1.4,1.7-2.5,3.1-3.3,1.3-.8,3-1.2,4.9-1.2h.3c2,0,3.7.4,5.2,1.3,1.5.9,2.7,2.2,3.6,3.9s1.3,3.8,1.3,6.2v1.7c0,2.5-.4,4.5-1.3,6.2s-2.1,3-3.6,3.9-3.2,1.3-5.2,1.3h-.3c-1.7,0-3.3-.4-4.6-1.1-1.3-.7-2.3-1.7-3-3v12.7h-3.7ZM1184.6,800h.4c2,0,3.7-.7,5-2,1.3-1.3,2-3.4,2-6.3v-1.7c0-2.8-.7-4.9-2-6.2s-3-2-5-2h-.4c-1.3,0-2.4.3-3.5.9-1.1.6-1.9,1.5-2.5,2.7-.6,1.2-.9,2.8-.9,4.8v1.4c0,2.9.7,5,2,6.4s3,2,4.9,2Z"/>
    <path class="cls-3" d="M1201.8,811.9v-32.6h3.4v4c.7-1.4,1.7-2.5,3.1-3.3,1.3-.8,3-1.2,4.9-1.2h.3c2,0,3.7.4,5.2,1.3,1.5.9,2.7,2.2,3.6,3.9s1.3,3.8,1.3,6.2v1.7c0,2.5-.4,4.5-1.3,6.2s-2.1,3-3.6,3.9-3.2,1.3-5.2,1.3h-.3c-1.7,0-3.3-.4-4.6-1.1-1.3-.7-2.3-1.7-3-3v12.7h-3.7ZM1212.4,800h.4c2,0,3.7-.7,5-2,1.3-1.3,2-3.4,2-6.3v-1.7c0-2.8-.7-4.9-2-6.2s-3-2-5-2h-.4c-1.3,0-2.4.3-3.5.9-1.1.6-1.9,1.5-2.5,2.7-.6,1.2-.9,2.8-.9,4.8v1.4c0,2.9.7,5,2,6.4s3,2,4.9,2Z"/>
    <path class="cls-3" d="M1238.9,803.2c-2,0-3.8-.5-5.5-1.4-1.6-.9-2.9-2.2-3.8-3.9-.9-1.7-1.4-3.8-1.4-6.2v-1.6c0-2.4.5-4.4,1.4-6.2.9-1.7,2.2-3,3.8-3.9,1.6-.9,3.4-1.4,5.5-1.4h.5c2.1,0,3.9.5,5.5,1.4,1.6.9,2.9,2.2,3.8,3.9.9,1.7,1.4,3.7,1.4,6.1v1.7c0,2.4-.5,4.4-1.4,6.1-.9,1.7-2.2,3-3.8,3.9-1.6.9-3.4,1.4-5.5,1.4h-.5ZM1239,800h.4c2,0,3.7-.7,5-2.1,1.4-1.4,2-3.4,2-6.2v-1.7c0-2.7-.7-4.8-2-6.2-1.4-1.4-3-2.1-5-2.1h-.4c-2,0-3.6.7-5,2.1-1.4,1.4-2,3.4-2,6.2v1.7c0,2.7.7,4.8,2,6.2,1.4,1.4,3,2.1,5,2.1Z"/>
    <path class="cls-3" d="M1256.1,802.7v-23.4h3.4v4.9c.6-1.5,1.4-2.8,2.5-3.7,1.1-.9,2.8-1.4,4.9-1.4h2.2v3.4h-2.3c-2,0-3.6.7-4.9,2-1.3,1.4-2,3.5-2,6.3v11.9h-3.7Z"/>
    <path class="cls-3" d="M1284.3,802.8c-2.7,0-4.6-.6-5.8-1.9-1.1-1.3-1.7-3-1.7-5.2v-13.5h-5v-3h5v-7.1h3.7v7.1h8.1l-.5,3h-7.6v13.3c0,1.5.3,2.5,1,3.2.7.7,1.7,1,3.1,1h4v3.1h-4.3Z"/>
  </g>
</svg>