<?xml version="1.0" encoding="UTF-8"?>
<svg id="art" xmlns="http://www.w3.org/2000/svg" version="1.1" viewBox="0 0 1920 883.7">
  <defs>
    <style>
      .cls-1 {
        fill: #bcbec0;
      }

      .cls-1, .cls-2, .cls-3, .cls-4 {
        stroke-width: 0px;
      }

      .cls-2 {
        fill: #76b900;
      }

      .cls-3 {
        fill: #fff;
      }

      .cls-4 {
        fill: #231f20;
      }
    </style>
  </defs>
  <rect class="cls-4" x="116.5" y="1.8" width="1700" height="192"/>
  <rect class="cls-2" x="116.5" y="445.8" width="1700" height="192"/>
  <rect class="cls-2" x="116.5" y="667.8" width="1700" height="192"/>
  <rect class="cls-1" x="116.5" y="223.8" width="1700" height="192"/>
  <path class="cls-3" d="M399.6,86.6v-44.1h16.7c3.4,0,6.4.6,8.9,1.7,2.5,1.2,4.4,2.8,5.8,4.9,1.4,2.1,2,4.7,2,7.7v1.2c0,4.6-1.5,8.1-4.5,10.6-3,2.5-7.1,3.7-12.2,3.7h-7.5v14.2h-9.2ZM408.8,64.5h7.2c2.2,0,4-.5,5.5-1.4,1.5-1,2.2-2.6,2.2-4.8v-1.6c0-2.1-.7-3.7-2.2-4.7-1.5-1-3.3-1.5-5.5-1.5h-7.2v14Z"/>
  <path class="cls-3" d="M450.8,87.5c-3,0-5.7-.6-8.1-1.9-2.4-1.3-4.3-3.1-5.7-5.5-1.4-2.4-2.1-5.3-2.1-8.8v-1.9c0-3.5.7-6.4,2.1-8.8,1.4-2.4,3.3-4.2,5.7-5.5s5.1-1.9,8.1-1.9h.4c3,0,5.7.6,8.1,1.9s4.3,3.1,5.7,5.5c1.4,2.4,2.1,5.3,2.1,8.8v1.9c0,3.4-.7,6.4-2.1,8.8-1.4,2.4-3.3,4.3-5.7,5.5-2.4,1.3-5.1,1.9-8.1,1.9,0,0-.4,0-.4,0ZM450.8,80h.4c2.1,0,3.7-.7,5.1-2,1.3-1.3,2-3.5,2-6.4v-2.3c0-2.9-.7-5.1-2-6.4-1.3-1.3-3-2-5.1-2h-.4c-2.1,0-3.7.7-5.1,2-1.3,1.3-2,3.5-2,6.4v2.3c0,2.9.7,5.1,2,6.4,1.3,1.3,3,2,5.1,2Z"/>
  <path class="cls-3" d="M485.7,87.5c-7.6,0-12.3-2.5-14.3-7.4l6.9-3.5c.6,1.3,1.5,2.2,2.6,2.8,1.2.6,2.8.9,4.9.9h.8c3.6,0,5.4-.9,5.4-2.8v-.3c0-1.6-1.1-2.5-3.2-2.8l-6.6-.9c-3.2-.5-5.6-1.5-7.3-3.1-1.7-1.6-2.6-3.8-2.6-6.5v-.6c0-3.1,1.2-5.6,3.6-7.3,2.4-1.8,5.5-2.7,9.5-2.7h.9c3.3,0,6,.6,8.3,1.9,2.3,1.3,3.9,3.1,4.9,5.4l-7,3.1c-1-2.2-3.1-3.3-6.3-3.3h-.8c-3.1,0-4.6.9-4.6,2.7v.3c0,.7.2,1.2.7,1.6.5.4,1.2.7,2.3.9l6.8.9c3.1.4,5.6,1.5,7.3,3.3,1.7,1.8,2.6,4,2.6,6.8v.6c0,3.3-1.2,5.8-3.5,7.5-2.4,1.7-5.8,2.5-10.3,2.5h-.9Z"/>
  <path class="cls-3" d="M522.5,87c-4.5,0-7.7-1-9.5-2.9-1.9-1.9-2.8-4.8-2.8-8.6v-14h-6.8v-7.4h6.8v-9.3h8.8v9.3h10l-1.1,7.4h-8.9v13.7c0,1.6.4,2.7,1.2,3.4.8.7,1.8,1,3.2,1h5.7v7.4h-6.5Z"/>
  <path class="cls-3" d="M570.5,87.5c-4.3,0-7.9-.9-11-2.6-3-1.8-5.4-4.3-7-7.5-1.6-3.2-2.4-7.1-2.4-11.5v-2.5c0-4.5.8-8.3,2.4-11.5,1.6-3.2,3.9-5.7,7-7.5,3-1.8,6.7-2.6,11-2.6h.6c4.3,0,7.9.9,11,2.6,3,1.8,5.4,4.3,7,7.5,1.6,3.2,2.4,7.1,2.4,11.5v2.5c0,6.3-1.6,11.4-4.8,15.2l5.7,6.2-5.9,5.4-6.3-6.9c-2.7,1.1-5.7,1.7-9.1,1.7h-.6ZM570.5,79.5h.5c1.1,0,2.1-.1,3.1-.3l-5-5.5,5.9-5.4,5.5,6c1.2-2.1,1.8-4.9,1.8-8.2v-2.9c0-4.5-1-7.9-3.1-10.1-2-2.2-4.8-3.3-8.2-3.3h-.5c-3.4,0-6.2,1.1-8.2,3.3-2,2.2-3.1,5.6-3.1,10.1v2.9c0,4.5,1,7.9,3.1,10.1,2,2.2,4.8,3.3,8.2,3.3Z"/>
  <path class="cls-3" d="M610.2,87.5c-3.6,0-6.4-1.1-8.5-3.4-2.1-2.3-3.2-5.6-3.2-9.8v-20.2h8.8v19c0,2.2.4,3.9,1.3,5.1.8,1.2,2.2,1.8,4,1.8h.5c1,0,2-.3,2.9-.8.9-.5,1.7-1.4,2.3-2.6.6-1.2.9-2.6.9-4.4v-18h8.8v32.5h-7.7v-4c-1.1,1.6-2.4,2.8-4,3.7-1.6.8-3.5,1.3-5.5,1.3,0,0-.6,0-.6,0Z"/>
  <path class="cls-3" d="M645.6,87.5c-3.5,0-6.2-.9-8.1-2.6-1.9-1.7-2.9-4.1-2.9-7.2s.9-5.1,2.6-6.9c1.7-1.7,4.3-2.8,7.6-3.2l10.2-1.3v-.3c0-3.8-1.7-5.7-5.2-5.7h-.6c-1.6,0-2.9.3-3.9.9-1.1.6-1.9,1.6-2.6,3l-6.7-3.5c1-2.2,2.6-4,4.9-5.4,2.3-1.3,5.1-2,8.3-2h.9c9.2,0,13.8,4.3,13.8,12.9v20.5h-7.7v-4.1c-1,1.6-2.4,2.8-4.2,3.7-1.8.9-3.8,1.3-6.1,1.3h-.3ZM655,72.2l-6.7.9c-1.9.3-3.3.7-4,1.2-.8.5-1.1,1.4-1.1,2.6s.4,2,1.3,2.7c.9.7,2,1,3.4,1h.5c2.1,0,3.7-.6,4.9-1.8,1.2-1.2,1.8-2.9,1.8-5,0,0,0-1.6,0-1.6Z"/>
  <path class="cls-3" d="M671.7,86.6v-32.5h7.7v4c1.1-1.6,2.5-2.8,4.2-3.6,1.7-.9,3.6-1.3,5.7-1.3h.6c3.7,0,6.6,1.1,8.8,3.4,2.2,2.3,3.2,5.6,3.2,9.8v20.2h-8.8v-19c0-2.2-.5-3.9-1.4-5.1-.9-1.2-2.3-1.8-4.3-1.8h-.5c-1.1,0-2.1.3-3.1.8-1,.5-1.8,1.4-2.5,2.5-.7,1.1-1,2.6-1,4.5v18s-8.8,0-8.8,0Z"/>
  <path class="cls-3" d="M725.3,87c-4.5,0-7.7-1-9.5-2.9-1.9-1.9-2.8-4.8-2.8-8.6v-14h-6.8v-7.4h6.8v-9.3h8.8v9.3h10l-1.1,7.4h-8.9v13.7c0,1.6.4,2.7,1.2,3.4.8.7,1.8,1,3.2,1h5.7v7.4h-6.5Z"/>
  <path class="cls-3" d="M749.2,87.5c-3.6,0-6.4-1.1-8.5-3.4-2.1-2.3-3.2-5.6-3.2-9.8v-20.2h8.8v19c0,2.2.4,3.9,1.3,5.1.8,1.2,2.2,1.8,4,1.8h.5c1,0,2-.3,2.9-.8.9-.5,1.7-1.4,2.3-2.6.6-1.2.9-2.6.9-4.4v-18h8.8v32.5h-7.7v-4c-1.1,1.6-2.4,2.8-4,3.7-1.6.8-3.5,1.3-5.5,1.3,0,0-.6,0-.6,0Z"/>
  <path class="cls-3" d="M775.2,86.6v-32.5h7.7v4c1-1.6,2.4-2.8,4-3.6,1.6-.8,3.4-1.3,5.4-1.3h.6c4.5,0,7.8,1.8,9.8,5.3,1.1-1.7,2.5-3,4.2-3.9,1.7-.9,3.6-1.4,5.8-1.4h.6c3.5,0,6.3,1.1,8.4,3.4,2.1,2.3,3.1,5.6,3.1,9.8v20.2h-8.8v-19c0-2.2-.4-3.9-1.2-5.1-.8-1.2-2.1-1.8-3.9-1.8h-.5c-1.4,0-2.8.6-4.1,1.9-1.3,1.2-1.9,3.2-1.9,6v18h-8.8v-19c0-2.2-.4-3.9-1.2-5.1-.8-1.2-2.1-1.8-3.9-1.8h-.5c-1.4,0-2.8.6-4.1,1.9-1.3,1.2-1.9,3.2-1.9,6v18s-8.8,0-8.8,0Z"/>
  <path class="cls-3" d="M849.6,86.6v-44.1h29.3v7.8h-20.1v10.1h16.3l-1.1,7.8h-15.2v10.5h20.5v7.8s-29.7,0-29.7,0Z"/>
  <path class="cls-3" d="M886.5,86.6v-32.5h7.7v4c1.1-1.6,2.5-2.8,4.2-3.6,1.7-.9,3.6-1.3,5.7-1.3h.6c3.7,0,6.6,1.1,8.8,3.4,2.2,2.3,3.2,5.6,3.2,9.8v20.2h-8.8v-19c0-2.2-.5-3.9-1.4-5.1-.9-1.2-2.3-1.8-4.3-1.8h-.5c-1.1,0-2.1.3-3.1.8-1,.5-1.8,1.4-2.5,2.5-.7,1.1-1,2.6-1,4.5v18s-8.8,0-8.8,0Z"/>
  <path class="cls-3" d="M938.8,87.5c-4.9,0-8.7-1.4-11.6-4.2-2.9-2.8-4.3-6.8-4.3-12v-1.9c0-3.4.7-6.4,2-8.8,1.3-2.4,3.2-4.3,5.6-5.5s5.2-1.9,8.4-1.9h.5c3.1,0,5.8.8,8,2.3,2.2,1.5,3.7,3.5,4.6,6l-7.1,3c-.5-1.1-1.2-2-2.1-2.7-.9-.7-2-1-3.4-1h-.4c-2.1,0-3.9.7-5.2,2-1.3,1.4-2,3.5-2,6.4v2.3c0,3,.6,5.1,1.9,6.5,1.3,1.3,3,2,5.3,2h.4c1.5,0,2.7-.3,3.7-.9,1-.6,1.7-1.5,2.3-2.6l6.9,3.6c-.9,2.1-2.5,3.9-4.7,5.4-2.2,1.4-4.9,2.1-8.1,2.1,0,0-.5,0-.5,0Z"/>
  <path class="cls-3" d="M957.3,86.6v-32.5h7.7v5.5c.9-1.9,2-3.3,3.3-4.4,1.3-1,3.2-1.5,5.5-1.5h3.5v8.1h-3.2c-1.3,0-2.5.3-3.7.8-1.2.5-2.2,1.4-3.1,2.6-.8,1.2-1.2,3-1.2,5.1v16.3h-8.8Z"/>
  <path class="cls-3" d="M984.1,99.2v-7.4h2.3c1.8,0,3.2-.3,4.1-.9.9-.6,1.6-1.7,2.2-3.5l.3-.9-12.5-32.4h9.5l7.6,22.9,6.7-22.9h8.9l-11.5,32.9c-.9,2.6-1.8,4.6-2.7,6.2-.9,1.6-1.9,2.8-3,3.7-1.1.9-2.4,1.4-3.9,1.8-1.5.3-3.3.5-5.4.5h-2.5Z"/>
  <path class="cls-3" d="M1017.2,99.2v-45.1h7.7v4c2.2-3.3,5.6-4.9,10.3-4.9h.4c2.6,0,5,.6,7,1.9,2,1.2,3.6,3.1,4.8,5.5,1.2,2.4,1.7,5.4,1.7,8.9v1.9c0,3.4-.6,6.4-1.7,8.8-1.2,2.4-2.8,4.2-4.8,5.5-2,1.2-4.4,1.9-7,1.9h-.4c-3.9,0-7-1.3-9.1-3.9v15.6h-8.8ZM1032.8,80h.5c2,0,3.7-.7,5-2,1.3-1.3,2-3.5,2-6.5v-2.1c0-3-.7-5.2-2-6.5-1.3-1.4-3-2-5-2h-.5c-1.1,0-2.2.3-3.2.9s-1.9,1.5-2.6,2.7c-.7,1.2-1,2.9-1,5v2c0,2.1.3,3.7,1,5,.7,1.3,1.6,2.2,2.6,2.7,1.1.6,2.1.9,3.2.9Z"/>
  <path class="cls-3" d="M1071.3,87c-4.5,0-7.7-1-9.5-2.9-1.9-1.9-2.8-4.8-2.8-8.6v-14h-6.8v-7.4h6.8v-9.3h8.8v9.3h10l-1.1,7.4h-8.9v13.7c0,1.6.4,2.7,1.2,3.4.8.7,1.8,1,3.2,1h5.7v7.4h-6.5Z"/>
  <path class="cls-3" d="M1083.7,49.5v-8.8h9.1v8.8h-9.1ZM1083.9,86.6v-32.5h8.8v32.5h-8.8Z"/>
  <path class="cls-3" d="M1115,87.5c-3,0-5.7-.6-8.1-1.9-2.4-1.3-4.3-3.1-5.7-5.5-1.4-2.4-2.1-5.3-2.1-8.8v-1.9c0-3.5.7-6.4,2.1-8.8s3.3-4.2,5.7-5.5c2.4-1.3,5.1-1.9,8.1-1.9h.4c3,0,5.7.6,8.1,1.9,2.4,1.3,4.3,3.1,5.7,5.5s2.1,5.3,2.1,8.8v1.9c0,3.4-.7,6.4-2.1,8.8-1.4,2.4-3.3,4.3-5.7,5.5-2.4,1.3-5.1,1.9-8.1,1.9,0,0-.4,0-.4,0ZM1115,80h.4c2.1,0,3.7-.7,5.1-2,1.3-1.3,2-3.5,2-6.4v-2.3c0-2.9-.7-5.1-2-6.4-1.3-1.3-3-2-5.1-2h-.4c-2.1,0-3.7.7-5.1,2-1.3,1.3-2,3.5-2,6.4v2.3c0,2.9.7,5.1,2,6.4,1.3,1.3,3,2,5.1,2Z"/>
  <path class="cls-3" d="M1137.8,86.6v-32.5h7.7v4c1.1-1.6,2.5-2.8,4.2-3.6,1.7-.9,3.6-1.3,5.7-1.3h.6c3.7,0,6.6,1.1,8.8,3.4,2.2,2.3,3.2,5.6,3.2,9.8v20.2h-8.8v-19c0-2.2-.5-3.9-1.4-5.1-.9-1.2-2.3-1.8-4.3-1.8h-.5c-1,0-2.1.3-3.1.8-1,.5-1.8,1.4-2.5,2.5-.7,1.1-1,2.6-1,4.5v18s-8.8,0-8.8,0Z"/>
  <path class="cls-3" d="M1188.3,86.6l17-44.1h8.3l17.1,44.1h-10l-3.2-8.9h-16.7l-3.1,8.9h-9.4ZM1203.6,70.2h11.3l-5.6-15.8-5.7,15.8Z"/>
  <path class="cls-3" d="M1235.5,86.6v-46h8.8v46h-8.8Z"/>
  <path class="cls-3" d="M1265.7,100.1c-3.2,0-5.8-.5-8-1.5-2.1-1-3.8-2.5-5-4.5l6.2-4.7c.8,1.3,1.8,2.2,2.9,2.7,1.1.5,2.5.8,4.3.8h.8c4.7,0,7.1-2.8,7.1-8.3v-2c-2.2,2.6-5.2,3.9-9.1,3.9h-.5c-2.7,0-5.1-.7-7.1-2-2-1.3-3.6-3.2-4.8-5.5-1.1-2.4-1.7-5.1-1.7-8.3v-1.5c0-3.1.6-5.9,1.7-8.3,1.1-2.4,2.7-4.2,4.8-5.5,2-1.3,4.4-2,7.1-2h.5c4.6,0,8,1.6,10.2,4.9v-4h7.7v30c0,5.1-1.3,9.1-4,11.8-2.7,2.8-6.5,4.1-11.5,4.1h-1.4ZM1266.6,78.8h.6c2,0,3.7-.8,4.9-2.3,1.3-1.5,1.9-3.5,1.9-5.9v-1.6c0-2.4-.6-4.4-1.9-5.9-1.3-1.5-2.9-2.3-4.9-2.3h-.6c-2.2,0-3.9.7-5.1,2.2-1.2,1.4-1.9,3.5-1.9,6v1.6c0,2.6.6,4.6,1.9,6,1.2,1.5,3,2.2,5.1,2.2Z"/>
  <path class="cls-3" d="M1305.1,87.5c-3,0-5.7-.6-8.1-1.9-2.4-1.3-4.3-3.1-5.7-5.5-1.4-2.4-2.1-5.3-2.1-8.8v-1.9c0-3.5.7-6.4,2.1-8.8,1.4-2.4,3.3-4.2,5.7-5.5,2.4-1.3,5.1-1.9,8.1-1.9h.4c3,0,5.7.6,8.1,1.9,2.4,1.3,4.3,3.1,5.7,5.5,1.4,2.4,2.1,5.3,2.1,8.8v1.9c0,3.4-.7,6.4-2.1,8.8-1.4,2.4-3.3,4.3-5.7,5.5-2.4,1.3-5.1,1.9-8.1,1.9,0,0-.4,0-.4,0ZM1305.1,80h.4c2.1,0,3.7-.7,5.1-2,1.3-1.3,2-3.5,2-6.4v-2.3c0-2.9-.7-5.1-2-6.4-1.3-1.3-3-2-5.1-2h-.4c-2.1,0-3.7.7-5.1,2-1.3,1.3-2,3.5-2,6.4v2.3c0,2.9.7,5.1,2,6.4,1.3,1.3,3,2,5.1,2Z"/>
  <path class="cls-3" d="M1327.9,86.6v-32.5h7.7v5.5c.9-1.9,2-3.3,3.3-4.4,1.3-1,3.2-1.5,5.5-1.5h3.5v8.1h-3.2c-1.3,0-2.5.3-3.7.8-1.2.5-2.2,1.4-3.1,2.6-.8,1.2-1.2,3-1.2,5.1v16.3h-8.8Z"/>
  <path class="cls-3" d="M1353.6,49.5v-8.8h9.1v8.8h-9.1ZM1353.7,86.6v-32.5h8.8v32.5h-8.8Z"/>
  <path class="cls-3" d="M1386.4,87c-4.5,0-7.7-1-9.5-2.9-1.9-1.9-2.8-4.8-2.8-8.6v-14h-6.8v-7.4h6.8v-9.3h8.8v9.3h10l-1.1,7.4h-8.9v13.7c0,1.6.4,2.7,1.2,3.4.8.7,1.8,1,3.2,1h5.7v7.4h-6.5Z"/>
  <path class="cls-3" d="M1401.5,86.6v-46h8.8v16.4c2.2-2.6,5.1-3.8,8.8-3.8h.6c3.7,0,6.6,1.1,8.8,3.4,2.2,2.3,3.2,5.6,3.2,9.8v20.2h-8.8v-19c0-2.2-.5-3.9-1.4-5.1-.9-1.2-2.3-1.8-4.3-1.8h-.5c-1.1,0-2.1.3-3.1.8-1,.5-1.8,1.4-2.5,2.5-.7,1.1-1,2.6-1,4.5v18s-8.8,0-8.8,0Z"/>
  <path class="cls-3" d="M1439.5,86.6v-32.5h7.7v4c1-1.6,2.4-2.8,4-3.6,1.6-.8,3.4-1.3,5.4-1.3h.6c4.5,0,7.8,1.8,9.8,5.3,1.1-1.7,2.5-3,4.2-3.9,1.7-.9,3.6-1.4,5.8-1.4h.6c3.5,0,6.3,1.1,8.4,3.4,2.1,2.3,3.1,5.6,3.1,9.8v20.2h-8.8v-19c0-2.2-.4-3.9-1.2-5.1-.8-1.2-2.1-1.8-3.9-1.8h-.5c-1.4,0-2.8.6-4.1,1.9-1.3,1.2-1.9,3.2-1.9,6v18h-8.8v-19c0-2.2-.4-3.9-1.2-5.1-.8-1.2-2.1-1.8-3.9-1.8h-.5c-1.4,0-2.8.6-4.1,1.9-1.3,1.2-1.9,3.2-1.9,6v18s-8.8,0-8.8,0Z"/>
  <path class="cls-3" d="M1509.1,87.5c-7.6,0-12.3-2.5-14.3-7.4l6.9-3.5c.6,1.3,1.5,2.2,2.6,2.8,1.2.6,2.8.9,4.9.9h.8c3.6,0,5.4-.9,5.4-2.8v-.3c0-1.6-1.1-2.5-3.2-2.8l-6.6-.9c-3.2-.5-5.6-1.5-7.3-3.1-1.7-1.6-2.6-3.8-2.6-6.5v-.6c0-3.1,1.2-5.6,3.6-7.3,2.4-1.8,5.5-2.7,9.5-2.7h.9c3.3,0,6,.6,8.3,1.9,2.3,1.3,3.9,3.1,4.9,5.4l-7,3.1c-1-2.2-3.1-3.3-6.3-3.3h-.8c-3.1,0-4.6.9-4.6,2.7v.3c0,.7.2,1.2.7,1.6.5.4,1.2.7,2.3.9l6.8.9c3.2.4,5.6,1.5,7.3,3.3,1.7,1.8,2.6,4,2.6,6.8v.6c0,3.3-1.2,5.8-3.5,7.5-2.4,1.7-5.8,2.5-10.3,2.5h-.9Z"/>
  <path class="cls-3" d="M420.2,162.2v-44.1h7.2v20.9l19.2-20.9h8.8l-16.4,17.5,17.1,26.6h-8.4l-13.7-21.7-6.7,7.3v14.4h-7.2Z"/>
  <path class="cls-3" d="M459.2,174.8v-5.9h2c1.9,0,3.3-.4,4.3-1.1,1-.7,1.8-2.2,2.6-4.3l.5-1.4-12.7-32.3h7.4l8.8,24.8,8.1-24.8h7l-12.2,33.5c-1.1,3.1-2.2,5.4-3.4,7.1-1.2,1.6-2.5,2.8-4.1,3.4-1.6.6-3.6.9-6,.9h-2.4Z"/>
  <path class="cls-3" d="M509.5,163.1c-2.5,0-4.6-.5-6.4-1.5-1.8-1-3.2-2.4-4.2-4.1v4.8h-6.1v-46h6.9v17.5c1-1.5,2.4-2.6,4.1-3.4,1.7-.8,3.6-1.2,5.7-1.2h.4c2.6,0,5,.6,7.1,1.9,2.1,1.2,3.7,3,4.9,5.4,1.2,2.4,1.8,5.3,1.8,8.7v2.1c0,3.4-.6,6.4-1.8,8.7-1.2,2.4-2.8,4.2-4.9,5.4-2.1,1.2-4.4,1.8-7.1,1.8h-.4ZM507.8,157.1h.5c2.4,0,4.4-.8,6-2.4,1.6-1.6,2.4-4.1,2.4-7.5v-2.1c0-3.4-.8-6-2.4-7.6-1.6-1.6-3.6-2.4-6-2.4h-.5c-1.4,0-2.7.3-4,1-1.3.7-2.3,1.7-3.1,3.2-.8,1.5-1.2,3.4-1.2,5.8v2c0,2.4.4,4.3,1.2,5.8.8,1.5,1.8,2.6,3.1,3.3,1.3.7,2.6,1,4,1Z"/>
  <path class="cls-3" d="M544.1,163.1c-4.7,0-8.4-1.4-11-4.1-2.6-2.8-3.9-6.7-3.9-11.7v-2.1c0-5,1.3-8.9,4-11.7,2.7-2.8,6.3-4.3,10.9-4.3h.6c4.4,0,7.8,1.4,10.4,4.1,2.5,2.7,3.8,6.4,3.8,11v3.8h-22.9c.1,3.1.9,5.5,2.3,7.1,1.4,1.6,3.3,2.3,5.8,2.3h.9c1.9,0,3.5-.3,4.7-1,1.2-.7,2.2-1.6,3-2.9l5,3.3c-1.1,1.9-2.8,3.5-5,4.6-2.2,1.1-4.8,1.7-7.7,1.7h-.9ZM536.1,143.2h16.1v-.4c0-2.6-.7-4.6-2-6-1.3-1.4-3.2-2-5.5-2h-.5c-2.3,0-4.2.7-5.6,2.1-1.4,1.4-2.2,3.5-2.5,6.3Z"/>
  <path class="cls-3" d="M566.1,162.2v-32.3h6.1v6.1c.8-2,1.9-3.5,3.4-4.7,1.4-1.2,3.5-1.8,6.1-1.8h3.3v6.4h-3.2c-1.5,0-2.9.3-4.3,1-1.3.7-2.4,1.7-3.2,3.2-.8,1.4-1.2,3.4-1.2,5.8v16.3h-6.9Z"/>
  <path class="cls-3" d="M587.6,172.4l-2.3-3.2,2.1-1.5c.9-.6,1.6-1.2,2-1.8.4-.6.6-1.6.6-3v-.7h-3.5v-8h7.6v8.8c0,1.5-.2,2.7-.5,3.6-.3.9-.8,1.7-1.5,2.4-.7.7-1.5,1.4-2.6,2.1l-1.8,1.3Z"/>
  <path class="cls-3" d="M619.4,162.2v-44.1h16.8c4.4,0,8.1.8,11.1,2.5,3,1.7,5.3,4.1,6.9,7.2,1.6,3.1,2.4,6.8,2.4,11v2.6c0,6.5-1.8,11.6-5.3,15.2-3.5,3.7-8.5,5.5-15,5.5h-16.8ZM626.6,156h9.4c4.2,0,7.5-1.2,9.8-3.6s3.4-6,3.4-10.8v-3c0-4.7-1.1-8.2-3.4-10.6-2.3-2.4-5.5-3.7-9.8-3.7h-9.4v31.6Z"/>
  <path class="cls-3" d="M664.5,124.2v-7.2h7.2v7.2h-7.2ZM664.7,162.2v-32.3h6.9v32.3h-6.9Z"/>
  <path class="cls-3" d="M680.7,162.2v-46h6.9v46h-6.9Z"/>
  <path class="cls-3" d="M696.7,124.2v-7.2h7.2v7.2h-7.2ZM696.8,162.2v-32.3h6.9v32.3h-6.9Z"/>
  <path class="cls-3" d="M727,162.6c-4.1,0-7-.9-8.7-2.7-1.7-1.8-2.6-4.4-2.6-7.8v-16.3h-6.8v-5.7h6.8v-9.5h6.9v9.5h10.5l-.8,5.7h-9.7v15.9c0,1.8.4,3.1,1.3,3.9.8.8,2.1,1.2,3.8,1.2h5.5v5.9h-6.2Z"/>
  <path class="cls-3" d="M741.6,162.2v-46h6.9v17.5c1-1.4,2.3-2.6,3.9-3.4,1.6-.8,3.5-1.3,5.6-1.3h.6c3.7,0,6.6,1.1,8.8,3.4,2.2,2.3,3.3,5.5,3.3,9.8v19.9h-6.9v-19c0-2.6-.6-4.7-1.7-6.1-1.1-1.4-2.9-2.1-5.2-2.1h-.4c-1.3,0-2.6.3-3.8,1-1.2.7-2.2,1.7-3,3.1-.8,1.4-1.1,3.1-1.1,5.3v17.8h-6.9Z"/>
  <path class="cls-3" d="M779.4,124.2v-7.2h7.2v7.2h-7.2ZM779.5,162.2v-32.3h6.9v32.3h-6.9Z"/>
  <path class="cls-3" d="M806.6,163.1c-3.6,0-6.4-1.1-8.5-3.4-2.1-2.2-3.2-5.5-3.2-9.8v-19.9h6.9v18.9c0,2.7.5,4.7,1.6,6.1,1.1,1.4,2.7,2.1,4.9,2.1h.4c1.3,0,2.5-.3,3.7-1,1.2-.7,2.1-1.7,2.8-3.1.7-1.4,1.1-3.2,1.1-5.3v-17.8h6.9v32.3h-6.2v-4.8c-1,1.7-2.3,3.1-4,4.1-1.7,1-3.7,1.5-6,1.5h-.6Z"/>
  <path class="cls-3" d="M832.4,162.2v-32.3h6.1v4.8c1-1.8,2.3-3.2,3.9-4.2,1.6-1,3.5-1.5,5.7-1.5h.6c4.9,0,8.2,2,10.1,6,1-1.8,2.4-3.3,4.1-4.4,1.7-1.1,3.8-1.6,6.1-1.6h.6c3.5,0,6.3,1.1,8.3,3.4,2,2.3,3.1,5.5,3.1,9.8v19.9h-6.9v-19c0-2.6-.5-4.7-1.5-6.1-1-1.4-2.6-2.1-4.7-2.1h-.5c-1.2,0-2.3.3-3.4,1-1.1.7-2,1.7-2.7,3.1-.7,1.4-1,3.1-1,5.3v17.8h-6.9v-19c0-2.6-.5-4.7-1.5-6.1-1-1.4-2.6-2.1-4.7-2.1h-.5c-1.2,0-2.3.3-3.4,1-1.1.7-2,1.7-2.7,3.1-.7,1.4-1,3.1-1,5.3v17.8h-6.9Z"/>
  <path class="cls-3" d="M890.1,172.4l-2.3-3.2,2.1-1.5c.9-.6,1.6-1.2,2-1.8.4-.6.6-1.6.6-3v-.7h-3.5v-8h7.6v8.8c0,1.5-.2,2.7-.5,3.6-.3.9-.8,1.7-1.5,2.4-.7.7-1.5,1.4-2.6,2.1l-1.8,1.3Z"/>
  <path class="cls-3" d="M921.8,162.2v-44.1h28.3v6.1h-21v13.6h16.9l-.8,6.2h-16.1v18.2h-7.2Z"/>
  <path class="cls-3" d="M948.2,162.2l17.3-44.1h6.4l17.4,44.1h-7.8l-3.7-9.9h-18.6l-3.7,9.9h-7.4ZM961.5,146.4h14.1l-7.1-19-7.1,19Z"/>
  <path class="cls-3" d="M995.8,162.2v-44.1h7.2v37.9h20.2v6.2h-27.4Z"/>
  <path class="cls-3" d="M1048.6,163.1c-6.3,0-11.2-1.9-14.5-5.7-3.3-3.8-5-9.1-5-15.9v-2.6c0-4.4.8-8.2,2.3-11.4,1.6-3.2,3.8-5.7,6.7-7.4,2.9-1.7,6.4-2.6,10.5-2.6h.6c4.2,0,7.8,1,10.6,2.9,2.9,1.9,4.9,4.6,6,8.1l-6.7,2.3c-.7-2.4-1.9-4.1-3.7-5.3-1.7-1.2-3.9-1.7-6.3-1.7h-.6c-3.9,0-6.9,1.3-9.1,3.8-2.2,2.6-3.3,6.3-3.3,11.2v3c0,5,1.1,8.8,3.2,11.3,2.1,2.5,5.2,3.8,9.2,3.8h.6c2.6,0,4.7-.6,6.6-1.7,1.8-1.1,3.1-2.8,3.8-5.1l6.6,2.5c-1.2,3.4-3.3,6-6.2,7.8-2.9,1.8-6.5,2.8-10.7,2.8h-.6Z"/>
  <path class="cls-3" d="M1091.9,163.1c-4.2,0-7.7-.9-10.7-2.6-3-1.8-5.2-4.3-6.8-7.5-1.6-3.2-2.4-7-2.4-11.4v-2.6c0-4.4.8-8.2,2.4-11.4,1.6-3.2,3.8-5.7,6.8-7.5s6.5-2.6,10.7-2.6h.7c4.2,0,7.8.9,10.7,2.6s5.2,4.3,6.8,7.5c1.6,3.2,2.3,7,2.3,11.4v2.6c0,4.4-.8,8.2-2.3,11.4-1.6,3.2-3.8,5.7-6.8,7.5-3,1.8-6.5,2.6-10.7,2.6h-.7ZM1091.9,156.8h.6c3.9,0,7-1.3,9.3-3.9,2.2-2.6,3.4-6.3,3.4-11.2v-3c0-4.8-1.1-8.5-3.4-11.2-2.2-2.6-5.3-3.9-9.3-3.9h-.6c-3.9,0-7,1.3-9.3,3.9-2.2,2.6-3.4,6.3-3.4,11.2v3c0,4.8,1.1,8.5,3.4,11.2,2.2,2.6,5.3,3.9,9.3,3.9Z"/>
  <path class="cls-3" d="M1121.7,162.2v-44.1h6.4l22.4,31.9v-31.9h6.9v44.1h-6.4l-22.4-32v32h-6.9Z"/>
  <path class="cls-3" d="M1167.9,172.4l-2.3-3.2,2.1-1.5c.9-.6,1.6-1.2,2-1.8.4-.6.6-1.6.6-3v-.7h-3.5v-8h7.6v8.8c0,1.5-.2,2.7-.5,3.6-.3.9-.8,1.7-1.5,2.4-.7.7-1.5,1.4-2.6,2.1l-1.8,1.3Z"/>
  <path class="cls-3" d="M1213.6,163.1c-8.9,0-14.7-3.2-17.2-9.6l6-3.2c.9,2.2,2.3,3.8,4.1,4.9,1.8,1.1,4.1,1.6,7,1.6h.8c3,0,5.4-.5,7-1.6,1.6-1.1,2.5-2.6,2.5-4.7v-.7c0-1.7-.5-3.1-1.6-4.3-1-1.1-2.7-1.8-4.9-2.1l-7.4-1.1c-8.1-1.1-12.2-5.1-12.2-12v-.8c0-2.5.7-4.6,2-6.5,1.3-1.8,3.2-3.2,5.5-4.3,2.4-1,5.1-1.5,8.3-1.5h.9c3.9,0,7.2.8,10,2.4,2.7,1.6,4.7,3.9,5.9,6.8l-6.3,2.7c-1.4-3.8-4.6-5.7-9.6-5.7h-.8c-2.7,0-4.8.5-6.4,1.6-1.6,1.1-2.3,2.5-2.3,4.3v.8c0,3.1,2.1,5,6.4,5.7l7.4,1.1c4.1.5,7.2,1.9,9.2,4.1,2,2.2,3.1,5.1,3.1,8.5v.8c0,4-1.4,7.1-4.3,9.3-2.9,2.2-6.9,3.3-12.1,3.3h-.9Z"/>
  <path class="cls-3" d="M1238.8,162.2v-44.1h16.1c5,0,8.9,1.2,11.8,3.6,2.9,2.4,4.3,5.7,4.3,10v1.3c0,4.4-1.4,7.7-4.3,10.1-2.9,2.4-6.8,3.6-11.8,3.6h-8.9v15.5h-7.2ZM1246.1,140.6h8.7c2.8,0,5-.6,6.6-1.8,1.7-1.2,2.5-3,2.5-5.5v-1.6c0-2.5-.8-4.3-2.5-5.5-1.7-1.2-3.9-1.8-6.6-1.8h-8.7v16.2Z"/>
  <path class="cls-3" d="M1278.6,162.2v-44.1h7.2v18.6h21.5v-18.6h7.2v44.1h-7.2v-19.3h-21.5v19.3h-7.2Z"/>
  <path class="cls-3" d="M1325.8,162.2v-44.1h7.2v44.1h-7.2Z"/>
  <path class="cls-3" d="M1344.2,162.2v-44.1h6.4l22.4,31.9v-31.9h6.9v44.1h-6.4l-22.4-32v32h-6.9Z"/>
  <path class="cls-3" d="M1408.6,163.1c-6.3,0-11.2-1.9-14.5-5.7-3.3-3.8-5-9.1-5-15.9v-2.6c0-4.4.8-8.2,2.3-11.4,1.6-3.2,3.8-5.7,6.7-7.4,2.9-1.7,6.4-2.6,10.5-2.6h.6c4.2,0,7.8,1,10.6,2.9,2.9,1.9,4.9,4.6,6,8.1l-6.7,2.3c-.7-2.4-1.9-4.1-3.7-5.3-1.7-1.2-3.9-1.7-6.3-1.7h-.6c-3.9,0-6.9,1.3-9.1,3.8-2.2,2.6-3.3,6.3-3.3,11.2v3c0,5,1.1,8.8,3.2,11.3,2.1,2.5,5.2,3.8,9.2,3.8h.6c2.6,0,4.7-.6,6.6-1.7,1.8-1.1,3.1-2.8,3.8-5.1l6.6,2.5c-1.2,3.4-3.3,6-6.2,7.8-2.9,1.8-6.5,2.8-10.7,2.8h-.6Z"/>
  <path class="cls-3" d="M1448,163.1c-8.9,0-14.7-3.2-17.2-9.6l6-3.2c.9,2.2,2.3,3.8,4.1,4.9,1.8,1.1,4.1,1.6,7,1.6h.8c3,0,5.4-.5,7-1.6,1.6-1.1,2.5-2.6,2.5-4.7v-.7c0-1.7-.5-3.1-1.6-4.3-1-1.1-2.7-1.8-4.9-2.1l-7.4-1.1c-8.1-1.1-12.2-5.1-12.2-12v-.8c0-2.5.7-4.6,2-6.5,1.3-1.8,3.2-3.2,5.5-4.3,2.4-1,5.1-1.5,8.3-1.5h.9c3.9,0,7.2.8,10,2.4,2.7,1.6,4.7,3.9,5.9,6.8l-6.3,2.7c-1.4-3.8-4.6-5.7-9.6-5.7h-.8c-2.7,0-4.8.5-6.4,1.6-1.6,1.1-2.3,2.5-2.3,4.3v.8c0,3.1,2.1,5,6.4,5.7l7.4,1.1c4.1.5,7.2,1.9,9.2,4.1,2,2.2,3.1,5.1,3.1,8.5v.8c0,4-1.4,7.1-4.3,9.3-2.9,2.2-6.9,3.3-12.1,3.3h-.9Z"/>
  <path class="cls-3" d="M1472.4,143.8v-5.9h10.9v-11h6.4v11h10.9v5.9h-10.9v11h-6.4v-11h-10.9Z"/>
  <path class="cls-4" d="M758.8,316.8v-44.1h16.7c3.4,0,6.4.6,8.9,1.7,2.5,1.2,4.4,2.8,5.8,4.9,1.4,2.1,2,4.7,2,7.7v1.2c0,4.6-1.5,8.1-4.5,10.6-3,2.5-7.1,3.7-12.2,3.7h-7.5v14.2h-9.2ZM767.9,294.7h7.2c2.2,0,4-.5,5.5-1.4,1.5-1,2.2-2.6,2.2-4.8v-1.6c0-2.1-.7-3.7-2.2-4.7-1.5-1-3.3-1.5-5.5-1.5h-7.2v14Z"/>
  <path class="cls-4" d="M817.8,317.7c-4.3,0-7.9-.9-11-2.6-3-1.8-5.4-4.3-7-7.5-1.6-3.2-2.4-7.1-2.4-11.5v-2.5c0-4.5.8-8.3,2.4-11.5,1.6-3.2,3.9-5.7,7-7.5,3-1.8,6.7-2.6,11-2.6h.6c4.3,0,7.9.9,11,2.6,3,1.8,5.4,4.3,7,7.5,1.6,3.2,2.4,7.1,2.4,11.5v2.5c0,6.3-1.6,11.4-4.8,15.2l5.7,6.2-5.9,5.4-6.3-6.9c-2.7,1.1-5.7,1.7-9.1,1.7h-.6ZM817.9,309.6h.5c1.1,0,2.1-.1,3.1-.3l-5-5.5,5.9-5.4,5.5,6c1.2-2.1,1.8-4.9,1.8-8.2v-2.9c0-4.5-1-7.9-3.1-10.1-2-2.2-4.8-3.3-8.2-3.3h-.5c-3.4,0-6.2,1.1-8.2,3.3-2,2.2-3.1,5.6-3.1,10.1v2.9c0,4.5,1,7.9,3.1,10.1,2,2.2,4.8,3.3,8.2,3.3Z"/>
  <path class="cls-4" d="M865.5,317.7c-6.6,0-11.5-1.9-14.9-5.7-3.4-3.8-5.1-9.2-5.1-16v-2.5c0-4.5.8-8.3,2.3-11.5,1.6-3.2,3.8-5.7,6.8-7.5,3-1.8,6.6-2.6,10.9-2.6h.5c4.5,0,8.2,1,11.2,3,3,2,5.1,4.8,6.3,8.4l-8.6,3c-.6-2.2-1.7-3.8-3.2-4.8-1.6-1-3.5-1.5-5.7-1.5h-.4c-3.4,0-6.1,1.1-8.1,3.3-1.9,2.2-2.9,5.6-2.9,10.1v2.8c0,4.7.9,8.1,2.8,10.2,1.9,2.2,4.6,3.2,8.2,3.2h.4c2.3,0,4.2-.5,5.9-1.5,1.6-1,2.8-2.6,3.5-4.8l8.4,3.3c-1.3,3.5-3.4,6.2-6.4,8.1-3,1.9-6.8,2.9-11.3,2.9h-.5Z"/>
  <path class="cls-4" d="M920.7,317.7c-9.2,0-15.1-3.3-17.6-9.8l7.7-4c1.5,3.9,4.7,5.9,9.8,5.9h.8c5.3,0,8-1.7,8-5.2v-.6c0-1.3-.5-2.5-1.4-3.5-.9-1-2.2-1.6-4-1.8l-6.9-.8c-4.2-.5-7.4-1.8-9.6-3.9-2.2-2.1-3.3-5-3.3-8.7v-.8c0-2.6.7-4.9,2-6.8,1.3-1.9,3.2-3.4,5.7-4.4,2.5-1,5.3-1.6,8.7-1.6h.9c4,0,7.4.8,10.2,2.4,2.8,1.6,4.8,4,6,7l-8.1,3.4c-1.1-3.3-3.9-5-8.2-5h-.8c-2.3,0-4,.4-5.3,1.3-1.3.9-1.9,2.1-1.9,3.5v.6c0,2.6,1.8,4.1,5.3,4.5l6.9.8c4.3.5,7.5,1.9,9.7,4.2,2.2,2.3,3.2,5.3,3.2,9v.8c0,4.2-1.5,7.4-4.4,9.7-2.9,2.3-7.2,3.4-12.7,3.4h-.9Z"/>
  <path class="cls-4" d="M958.8,317.7c-3,0-5.7-.6-8.1-1.9-2.4-1.3-4.3-3.1-5.7-5.5-1.4-2.4-2.1-5.3-2.1-8.8v-1.9c0-3.5.7-6.4,2.1-8.8,1.4-2.4,3.3-4.2,5.7-5.5s5.1-1.9,8.1-1.9h.4c3,0,5.7.6,8.1,1.9,2.4,1.3,4.3,3.1,5.7,5.5s2.1,5.3,2.1,8.8v1.9c0,3.4-.7,6.4-2.1,8.8-1.4,2.4-3.3,4.3-5.7,5.5-2.4,1.3-5.1,1.9-8.1,1.9h-.4ZM958.8,310.1h.4c2.1,0,3.7-.7,5.1-2,1.3-1.3,2-3.5,2-6.4v-2.3c0-2.9-.7-5.1-2-6.4-1.3-1.3-3-2-5.1-2h-.4c-2.1,0-3.7.7-5.1,2-1.3,1.3-2,3.5-2,6.4v2.3c0,2.9.7,5.1,2,6.4,1.3,1.3,3,2,5.1,2Z"/>
  <path class="cls-4" d="M984.6,316.8v-25.1h-6.5v-7.4h6.5v-1.4c0-4,1-7.1,3-9.3,2-2.1,5.4-3.2,10.1-3.2h5.6v7.4h-5.3c-1.6,0-2.8.4-3.5,1.2-.7.8-1.1,2-1.1,3.5v1.7h9.9l-1.1,7.4h-8.8v25.1h-8.8Z"/>
  <path class="cls-4" d="M1025.3,317.2c-4.5,0-7.7-1-9.5-2.9-1.9-1.9-2.8-4.8-2.8-8.6v-14h-6.8v-7.4h6.8v-9.3h8.8v9.3h10l-1.1,7.4h-8.9v13.7c0,1.6.4,2.7,1.2,3.4.8.7,1.8,1,3.2,1h5.7v7.4h-6.5Z"/>
  <path class="cls-4" d="M1035.8,284.3h9.3l5.4,21.5,5.9-21.5h7.8l5.8,21,5.4-21h8.8l-10,32.5h-8l-6.2-21.7-6.3,21.7h-8l-10-32.5Z"/>
  <path class="cls-4" d="M1097.6,317.7c-3.5,0-6.2-.9-8.1-2.6-1.9-1.7-2.9-4.1-2.9-7.2s.9-5.1,2.6-6.9c1.7-1.7,4.3-2.8,7.6-3.2l10.2-1.3v-.3c0-3.8-1.7-5.7-5.2-5.7h-.6c-1.6,0-2.9.3-3.9.9-1.1.6-1.9,1.6-2.6,3l-6.7-3.5c1-2.2,2.6-4,4.9-5.4,2.3-1.3,5.1-2,8.3-2h.9c9.2,0,13.8,4.3,13.8,12.9v20.5h-7.7v-4.1c-1,1.6-2.4,2.8-4.2,3.7-1.8.9-3.8,1.3-6.1,1.3h-.3ZM1107,302.4l-6.7.9c-1.9.3-3.3.7-4,1.2-.8.5-1.1,1.4-1.1,2.6s.4,2,1.3,2.7c.9.7,2,1,3.4,1h.5c2.1,0,3.7-.6,4.9-1.8,1.2-1.2,1.8-2.9,1.8-5v-1.6Z"/>
  <path class="cls-4" d="M1123.6,316.8v-32.5h7.7v5.5c.9-1.9,2-3.3,3.3-4.4,1.3-1,3.2-1.5,5.5-1.5h3.5v8.1h-3.2c-1.3,0-2.5.3-3.7.8-1.2.5-2.2,1.4-3.1,2.6-.8,1.2-1.2,3-1.2,5.1v16.3h-8.8Z"/>
  <path class="cls-4" d="M1162.1,317.7c-5,0-8.8-1.4-11.5-4.2-2.7-2.8-4.1-6.8-4.1-11.9v-1.9c0-5.1,1.4-9.1,4.2-12,2.8-2.9,6.6-4.3,11.5-4.3h.5c4.6,0,8.2,1.4,10.8,4.2,2.6,2.8,3.9,6.6,3.9,11.6v4h-22.1c.3,5,2.6,7.5,6.9,7.5h.9c3.3,0,5.6-1.1,7-3.3l6.4,4.2c-1.2,1.9-2.9,3.4-5.3,4.5-2.3,1.1-5,1.6-8,1.6h-.9ZM1155.3,297.2h13.5v-.2c0-4.4-2-6.6-6.1-6.6h-.5c-4,0-6.3,2.2-6.9,6.7Z"/>
  <path class="cls-4" d="M894.7,376.8v-40.1h4.4v40.1h-4.4Z"/>
  <path class="cls-4" d="M907.8,342.9v-5h4.6v5h-4.6ZM907.9,376.8v-28h4.4v28h-4.4Z"/>
  <path class="cls-4" d="M934.6,377.5c-2.3,0-4.2-.5-5.8-1.5-1.6-1-2.8-2.3-3.7-4v4.8h-4v-40.1h4.4v16.4c.8-1.5,2-2.7,3.6-3.6,1.6-.9,3.4-1.3,5.5-1.3h.4c2.3,0,4.4.5,6.2,1.6,1.8,1,3.2,2.6,4.3,4.6,1,2,1.6,4.5,1.6,7.5v2c0,2.9-.5,5.4-1.6,7.5-1,2-2.5,3.6-4.3,4.6-1.8,1-3.9,1.6-6.2,1.6h-.4ZM933.8,373.7h.5c2.4,0,4.4-.8,6-2.4,1.6-1.6,2.4-4.1,2.4-7.5v-2c0-3.4-.8-5.9-2.4-7.5s-3.6-2.4-6-2.4h-.5c-1.5,0-2.9.3-4.2,1-1.3.7-2.3,1.8-3,3.2-.7,1.5-1.1,3.4-1.1,5.7v1.7c0,3.5.8,6,2.4,7.6,1.6,1.6,3.6,2.4,5.8,2.4Z"/>
  <path class="cls-4" d="M965.5,377.5c-2.4,0-4.6-.5-6.5-1.6s-3.4-2.6-4.6-4.7c-1.1-2.1-1.7-4.5-1.7-7.4v-1.9c0-2.9.6-5.3,1.7-7.4,1.1-2.1,2.6-3.6,4.6-4.7,1.9-1.1,4.1-1.6,6.5-1.6h.5c2.5,0,4.6.5,6.6,1.6,1.9,1.1,3.4,2.6,4.6,4.7,1.1,2,1.7,4.5,1.7,7.3v2c0,2.9-.6,5.3-1.7,7.3-1.1,2-2.6,3.6-4.6,4.7s-4.1,1.6-6.6,1.6h-.5ZM965.6,373.7h.4c2.4,0,4.4-.8,6-2.5,1.6-1.6,2.4-4.1,2.4-7.4v-2c0-3.3-.8-5.7-2.4-7.4-1.6-1.7-3.6-2.5-6-2.5h-.4c-2.3,0-4.3.8-6,2.5-1.6,1.6-2.4,4.1-2.4,7.4v2c0,3.3.8,5.7,2.4,7.4,1.6,1.6,3.6,2.5,6,2.5Z"/>
  <path class="cls-4" d="M1006,387.8v-15.2c-.9,1.5-2.1,2.7-3.6,3.6-1.5.9-3.4,1.3-5.5,1.3h-.3c-2.3,0-4.4-.5-6.2-1.6-1.8-1-3.2-2.6-4.3-4.6-1-2-1.6-4.5-1.6-7.5v-2c0-3,.5-5.5,1.6-7.5,1-2,2.5-3.6,4.3-4.6,1.8-1,3.9-1.6,6.2-1.6h.3c2.3,0,4.3.5,5.9,1.5,1.6,1,2.8,2.3,3.7,4v-4.8h4v39h-4.4ZM997.3,373.7h.5c1.5,0,2.9-.3,4.1-1,1.2-.7,2.2-1.8,3-3.2.8-1.5,1.1-3.4,1.1-5.7v-1.8c0-2.3-.4-4.3-1.1-5.7-.8-1.5-1.8-2.5-3-3.2-1.2-.7-2.6-1-4.1-1h-.5c-2.4,0-4.4.8-6,2.4-1.6,1.6-2.4,4.1-2.4,7.5v2c0,3.3.8,5.8,2.4,7.4,1.6,1.6,3.6,2.4,6,2.4Z"/>
  <path class="cls-4" d="M1028.9,377.5c-6.1,0-10.1-2.1-12-6.4l3.5-1.8c.7,1.5,1.8,2.7,3.2,3.4,1.4.7,3.2,1.1,5.4,1.1h.6c4.4,0,6.6-1.4,6.6-4.2v-.3c0-2.5-1.4-3.9-4.3-4.2l-6.3-.9c-2.5-.3-4.4-1.1-5.7-2.4-1.3-1.2-2-2.9-2-5.1v-.6c0-2.4,1-4.3,2.9-5.8,1.9-1.5,4.4-2.2,7.5-2.2h.7c2.6,0,4.8.5,6.7,1.6s3.2,2.5,4,4.4l-3.5,1.6c-1.2-2.6-3.6-3.9-7.2-3.9h-.7c-1.9,0-3.4.4-4.5,1.2-1.1.8-1.7,1.8-1.7,3.1v.3c0,1.1.3,2,1,2.6s1.8,1,3.3,1.2l6.3.9c2.4.3,4.3,1.2,5.6,2.5,1.3,1.4,2,3.1,2,5.3v.6c0,2.6-.9,4.6-2.8,5.9-1.8,1.3-4.5,2-8,2h-.7Z"/>
  <path class="cls-4" d="M896.7,562.5c-4.9,0-8.7-1.4-11.6-4.2-2.9-2.8-4.3-6.8-4.3-12v-1.9c0-3.4.7-6.4,2-8.8,1.3-2.4,3.2-4.3,5.6-5.5s5.2-1.9,8.4-1.9h.5c3.1,0,5.8.8,8,2.3,2.2,1.5,3.7,3.5,4.6,6l-7.1,3c-.5-1.1-1.2-2-2.1-2.7-.9-.7-2-1-3.4-1h-.4c-2.1,0-3.9.7-5.2,2-1.3,1.4-2,3.5-2,6.4v2.3c0,3,.6,5.1,1.9,6.5,1.3,1.3,3,2,5.3,2h.4c1.5,0,2.7-.3,3.7-.9,1-.6,1.7-1.5,2.3-2.6l6.9,3.6c-.9,2.1-2.5,3.9-4.7,5.4-2.2,1.4-4.9,2.1-8.1,2.1h-.5Z"/>
  <path class="cls-4" d="M927.1,562.5c-3.6,0-6.4-1.1-8.5-3.4-2.1-2.3-3.2-5.6-3.2-9.8v-20.2h8.8v19c0,2.2.4,3.9,1.3,5.1.8,1.2,2.2,1.8,4,1.8h.5c1,0,2-.3,2.9-.8.9-.5,1.7-1.4,2.3-2.6.6-1.2.9-2.6.9-4.4v-18h8.8v32.5h-7.7v-4c-1.1,1.6-2.4,2.8-4,3.7-1.6.8-3.5,1.3-5.5,1.3h-.6Z"/>
  <path class="cls-4" d="M954.2,561.6v-44.1h16.7c3.4,0,6.4.6,8.9,1.7,2.5,1.2,4.4,2.8,5.8,4.9,1.4,2.1,2,4.7,2,7.7v1.2c0,4.6-1.5,8.1-4.5,10.6-3,2.5-7.1,3.7-12.2,3.7h-7.5v14.2h-9.2ZM963.4,539.5h7.2c2.2,0,4-.5,5.5-1.4,1.5-1,2.2-2.6,2.2-4.8v-1.6c0-2.1-.7-3.7-2.2-4.7-1.5-1-3.3-1.5-5.5-1.5h-7.2v14Z"/>
  <path class="cls-4" d="M1013.3,562.5c-4.3,0-7.9-.9-11-2.6-3-1.8-5.4-4.3-7-7.5-1.6-3.2-2.4-7.1-2.4-11.5v-2.5c0-4.5.8-8.3,2.4-11.5,1.6-3.2,3.9-5.7,7-7.5,3-1.8,6.7-2.6,11-2.6h.6c4.3,0,7.9.9,11,2.6,3,1.8,5.4,4.3,7,7.5,1.6,3.2,2.4,7.1,2.4,11.5v2.5c0,6.3-1.6,11.4-4.8,15.2l5.7,6.2-5.9,5.4-6.3-6.9c-2.7,1.1-5.7,1.7-9.1,1.7h-.6ZM1013.4,554.4h.5c1.1,0,2.1-.1,3.1-.3l-5-5.5,5.9-5.4,5.5,6c1.2-2.1,1.8-4.9,1.8-8.2v-2.9c0-4.5-1-7.9-3.1-10.1-2-2.2-4.8-3.3-8.2-3.3h-.5c-3.4,0-6.2,1.1-8.2,3.3-2,2.2-3.1,5.6-3.1,10.1v2.9c0,4.5,1,7.9,3.1,10.1,2,2.2,4.8,3.3,8.2,3.3Z"/>
  <path class="cls-4" d="M1061,562.5c-6.6,0-11.5-1.9-14.9-5.7-3.4-3.8-5.1-9.2-5.1-16v-2.5c0-4.5.8-8.3,2.3-11.5,1.6-3.2,3.8-5.7,6.8-7.5,3-1.8,6.6-2.6,10.9-2.6h.5c4.5,0,8.2,1,11.2,3,3,2,5.1,4.8,6.3,8.4l-8.6,3c-.6-2.2-1.7-3.8-3.2-4.8s-3.5-1.5-5.7-1.5h-.4c-3.4,0-6.1,1.1-8.1,3.3-1.9,2.2-2.9,5.6-2.9,10.1v2.8c0,4.7.9,8.1,2.8,10.2,1.9,2.2,4.6,3.2,8.2,3.2h.4c2.3,0,4.2-.5,5.9-1.5,1.6-1,2.8-2.6,3.5-4.8l8.4,3.3c-1.3,3.5-3.4,6.2-6.4,8.1-3,1.9-6.8,2.9-11.3,2.9h-.5Z"/>
  <path class="cls-4" d="M525.4,749.5v-44.1h8.2l20,28.8v-28.8h8.8v44.1h-8.2l-20-28.8v28.8h-8.8Z"/>
  <path class="cls-4" d="M584.7,749.5l-16.4-44.1h10l10.8,32.5,10.8-32.5h9.5l-16.4,44.1h-8.3Z"/>
  <path class="cls-4" d="M615.4,749.5v-44.1h9.2v44.1h-9.2Z"/>
  <path class="cls-4" d="M635,749.5v-44.1h17.6c4.5,0,8.2.9,11.2,2.6,3,1.7,5.4,4.1,6.9,7.2,1.6,3.1,2.4,6.8,2.4,11v2.5c0,6.5-1.8,11.6-5.3,15.3-3.5,3.7-8.6,5.6-15.2,5.6h-17.6ZM644.2,741.5h8.1c3.7,0,6.6-1,8.6-3.1,2-2.1,3-5.3,3-9.6v-2.8c0-4.2-1-7.3-3-9.5-2-2.1-4.9-3.2-8.6-3.2h-8.1v28.2Z"/>
  <path class="cls-4" d="M681.7,749.5v-44.1h9.2v44.1h-9.2Z"/>
  <path class="cls-4" d="M696.8,749.5l17-44.1h8.3l17.1,44.1h-10l-3.2-8.9h-16.7l-3.1,8.9h-9.4ZM712.1,733h11.3l-5.6-15.8-5.7,15.8Z"/>
  <path class="cls-4" d="M743.7,735.2v-8.3h19v8.3h-19Z"/>
  <path class="cls-4" d="M767.1,749.5l17-44.1h8.3l17.1,44.1h-10l-3.2-8.9h-16.7l-3.1,8.9h-9.4ZM782.4,733h11.3l-5.6-15.8-5.7,15.8Z"/>
  <path class="cls-4" d="M828.6,750.3c-4.9,0-8.7-1.4-11.6-4.2-2.9-2.8-4.3-6.8-4.3-12v-1.9c0-3.4.7-6.4,2-8.8,1.3-2.4,3.2-4.3,5.6-5.5s5.2-1.9,8.4-1.9h.5c3.1,0,5.8.8,8,2.3,2.2,1.5,3.7,3.5,4.6,6l-7.1,3c-.5-1.1-1.2-2-2.1-2.7-.9-.7-2-1-3.4-1h-.4c-2.1,0-3.9.7-5.2,2-1.3,1.4-2,3.5-2,6.4v2.3c0,3,.6,5.1,1.9,6.5,1.3,1.3,3,2,5.3,2h.4c1.5,0,2.7-.3,3.7-.9,1-.6,1.7-1.5,2.3-2.6l6.9,3.6c-.9,2.1-2.5,3.9-4.7,5.4-2.2,1.4-4.9,2.1-8.1,2.1h-.5Z"/>
  <path class="cls-4" d="M862,750.3c-4.9,0-8.7-1.4-11.6-4.2-2.9-2.8-4.3-6.8-4.3-12v-1.9c0-3.4.7-6.4,2-8.8,1.3-2.4,3.2-4.3,5.6-5.5s5.2-1.9,8.4-1.9h.5c3.1,0,5.8.8,8,2.3,2.2,1.5,3.7,3.5,4.6,6l-7.1,3c-.5-1.1-1.2-2-2.1-2.7-.9-.7-2-1-3.4-1h-.4c-2.1,0-3.9.7-5.2,2-1.3,1.4-2,3.5-2,6.4v2.3c0,3,.6,5.1,1.9,6.5,1.3,1.3,3,2,5.3,2h.4c1.5,0,2.7-.3,3.7-.9,1-.6,1.7-1.5,2.3-2.6l6.9,3.6c-.9,2.1-2.5,3.9-4.7,5.4-2.2,1.4-4.9,2.1-8.1,2.1h-.5Z"/>
  <path class="cls-4" d="M895,750.3c-5,0-8.8-1.4-11.5-4.2-2.7-2.8-4.1-6.8-4.1-11.9v-1.9c0-5.1,1.4-9.1,4.2-12,2.8-2.9,6.6-4.3,11.5-4.3h.5c4.6,0,8.2,1.4,10.8,4.2,2.6,2.8,3.9,6.6,3.9,11.6v4h-22.1c.3,5,2.6,7.5,6.9,7.5h.9c3.3,0,5.6-1.1,7-3.3l6.4,4.2c-1.2,1.9-2.9,3.4-5.3,4.5s-5,1.6-8,1.6h-.9ZM888.2,729.9h13.5v-.2c0-4.4-2-6.6-6.1-6.6h-.5c-4,0-6.3,2.2-6.9,6.7Z"/>
  <path class="cls-4" d="M916.5,749.5v-46h8.8v46h-8.8Z"/>
  <path class="cls-4" d="M947.4,750.3c-5,0-8.8-1.4-11.5-4.2-2.7-2.8-4.1-6.8-4.1-11.9v-1.9c0-5.1,1.4-9.1,4.2-12,2.8-2.9,6.6-4.3,11.5-4.3h.5c4.6,0,8.2,1.4,10.8,4.2,2.6,2.8,3.9,6.6,3.9,11.6v4h-22.1c.3,5,2.6,7.5,6.9,7.5h.9c3.3,0,5.6-1.1,7-3.3l6.4,4.2c-1.2,1.9-2.9,3.4-5.3,4.5s-5,1.6-8,1.6h-.9ZM940.5,729.9h13.5v-.2c0-4.4-2-6.6-6.1-6.6h-.5c-4,0-6.3,2.2-6.9,6.7Z"/>
  <path class="cls-4" d="M968.8,749.5v-32.5h7.7v5.5c.9-1.9,2-3.3,3.3-4.4,1.3-1,3.2-1.5,5.5-1.5h3.5v8.1h-3.1c-1.3,0-2.5.3-3.7.8-1.2.5-2.2,1.4-3.1,2.6-.8,1.2-1.2,3-1.2,5.1v16.3h-8.8Z"/>
  <path class="cls-4" d="M1002.8,750.3c-3.5,0-6.2-.9-8.1-2.6-1.9-1.7-2.9-4.1-2.9-7.2s.9-5.1,2.6-6.9,4.3-2.8,7.6-3.2l10.2-1.3v-.3c0-3.8-1.7-5.7-5.2-5.7h-.6c-1.6,0-2.9.3-3.9.9-1.1.6-1.9,1.6-2.6,3l-6.7-3.5c1-2.2,2.6-4,4.9-5.4,2.3-1.3,5.1-2,8.3-2h.9c9.2,0,13.8,4.3,13.8,12.9v20.5h-7.7v-4.1c-1,1.6-2.4,2.8-4.2,3.7-1.8.9-3.8,1.3-6.1,1.3h-.3ZM1012.2,735l-6.7.9c-1.9.3-3.3.7-4,1.2-.8.5-1.1,1.4-1.1,2.6s.4,2,1.3,2.7c.9.7,2,1,3.4,1h.5c2.1,0,3.7-.6,4.9-1.8,1.2-1.2,1.8-2.9,1.8-5v-1.6Z"/>
  <path class="cls-4" d="M1043.5,749.8c-4.5,0-7.7-1-9.5-2.9-1.9-1.9-2.8-4.8-2.8-8.6v-14h-6.8v-7.4h6.8v-9.3h8.8v9.3h10l-1.1,7.4h-8.9v13.7c0,1.6.4,2.7,1.2,3.4s1.8,1,3.2,1h5.7v7.4h-6.5Z"/>
  <path class="cls-4" d="M1070,750.3c-5,0-8.8-1.4-11.5-4.2s-4.1-6.8-4.1-11.9v-1.9c0-5.1,1.4-9.1,4.2-12,2.8-2.9,6.6-4.3,11.5-4.3h.5c4.6,0,8.2,1.4,10.8,4.2,2.6,2.8,3.9,6.6,3.9,11.6v4h-22.1c.3,5,2.6,7.5,6.9,7.5h.9c3.3,0,5.6-1.1,7-3.3l6.4,4.2c-1.2,1.9-2.9,3.4-5.3,4.5s-5,1.6-8,1.6h-.9ZM1063.2,729.9h13.5v-.2c0-4.4-2-6.6-6.1-6.6h-.5c-4,0-6.3,2.2-6.9,6.7Z"/>
  <path class="cls-4" d="M1103.3,750.3c-2.6,0-4.9-.6-7-1.9-2.1-1.2-3.7-3.1-4.8-5.5-1.2-2.4-1.7-5.4-1.7-8.9v-1.9c0-3.5.6-6.4,1.7-8.8,1.2-2.4,2.8-4.2,4.8-5.4,2.1-1.2,4.4-1.9,7-1.9h.4c3.9,0,7,1.3,9.1,3.9v-16.5h8.8v46h-7.7v-4c-2.2,3.3-5.6,4.9-10.3,4.9h-.4ZM1105.6,742.8h.5c1.1,0,2.2-.3,3.3-.9s1.9-1.5,2.6-2.7c.7-1.3,1-2.9,1-5v-2c0-2.1-.3-3.7-1-5-.7-1.3-1.6-2.2-2.6-2.7-1.1-.6-2.1-.9-3.2-.9h-.5c-2,0-3.7.7-5,2-1.3,1.3-2,3.5-2,6.5v2.1c0,3,.7,5.2,2,6.5,1.3,1.4,3,2,5,2Z"/>
  <path class="cls-4" d="M1164.9,750.3c-6.6,0-11.5-1.9-14.9-5.7-3.4-3.8-5.1-9.2-5.1-16v-2.5c0-4.5.8-8.3,2.3-11.5,1.6-3.2,3.8-5.7,6.8-7.5,3-1.8,6.6-2.6,10.9-2.6h.5c4.5,0,8.2,1,11.2,3,3,2,5.1,4.8,6.3,8.4l-8.6,3c-.6-2.2-1.7-3.8-3.2-4.8-1.6-1-3.5-1.5-5.7-1.5h-.4c-3.4,0-6.1,1.1-8.1,3.3-1.9,2.2-2.9,5.6-2.9,10.1v2.8c0,4.7.9,8.1,2.8,10.2,1.9,2.2,4.6,3.2,8.2,3.2h.4c2.3,0,4.2-.5,5.9-1.5s2.8-2.6,3.5-4.8l8.4,3.3c-1.3,3.5-3.4,6.2-6.4,8.1s-6.8,2.9-11.3,2.9h-.5Z"/>
  <path class="cls-4" d="M1203.2,750.3c-3,0-5.7-.6-8.1-1.9-2.4-1.3-4.3-3.1-5.7-5.5-1.4-2.4-2.1-5.3-2.1-8.8v-1.9c0-3.5.7-6.4,2.1-8.8,1.4-2.4,3.3-4.2,5.7-5.5,2.4-1.3,5.1-1.9,8.1-1.9h.4c3,0,5.7.6,8.1,1.9,2.4,1.3,4.3,3.1,5.7,5.5,1.4,2.4,2.1,5.3,2.1,8.8v1.9c0,3.4-.7,6.4-2.1,8.8-1.4,2.4-3.3,4.3-5.7,5.5-2.4,1.3-5.1,1.9-8.1,1.9h-.4ZM1203.2,742.8h.4c2.1,0,3.7-.7,5.1-2,1.3-1.3,2-3.5,2-6.4v-2.3c0-2.9-.7-5.1-2-6.4-1.3-1.3-3-2-5.1-2h-.4c-2.1,0-3.7.7-5.1,2-1.3,1.3-2,3.5-2,6.4v2.3c0,2.9.7,5.1,2,6.4,1.3,1.3,3,2,5.1,2Z"/>
  <path class="cls-4" d="M1226,749.5v-32.5h7.7v4c1-1.6,2.4-2.8,4-3.6,1.6-.8,3.4-1.3,5.4-1.3h.6c4.5,0,7.8,1.8,9.8,5.3,1.1-1.7,2.5-3,4.2-3.9s3.6-1.4,5.8-1.4h.6c3.5,0,6.3,1.1,8.4,3.4,2.1,2.3,3.1,5.6,3.1,9.8v20.2h-8.8v-19c0-2.2-.4-3.9-1.2-5.1-.8-1.2-2.1-1.8-3.9-1.8h-.5c-1.4,0-2.8.6-4.1,1.9-1.3,1.2-1.9,3.2-1.9,6v18h-8.8v-19c0-2.2-.4-3.9-1.2-5.1-.8-1.2-2.1-1.8-3.9-1.8h-.5c-1.4,0-2.8.6-4.1,1.9-1.3,1.2-1.9,3.2-1.9,6v18h-8.8Z"/>
  <path class="cls-4" d="M1283.5,762.1v-45.1h7.7v4c2.2-3.3,5.6-4.9,10.3-4.9h.4c2.6,0,5,.6,7,1.9,2,1.2,3.6,3.1,4.8,5.5,1.2,2.4,1.7,5.4,1.7,8.9v1.9c0,3.4-.6,6.4-1.7,8.8-1.2,2.4-2.8,4.2-4.8,5.5s-4.4,1.9-7,1.9h-.4c-3.9,0-7-1.3-9.1-3.9v15.6h-8.8ZM1299.1,742.8h.5c2,0,3.7-.7,5-2,1.3-1.3,2-3.5,2-6.5v-2.1c0-3-.7-5.2-2-6.5-1.3-1.4-3-2-5-2h-.5c-1.1,0-2.2.3-3.2.9-1.1.6-1.9,1.5-2.6,2.7-.7,1.2-1,2.9-1,5v2c0,2.1.3,3.7,1,5,.7,1.3,1.6,2.2,2.6,2.7s2.1.9,3.2.9Z"/>
  <path class="cls-4" d="M1333.2,750.3c-3.6,0-6.4-1.1-8.5-3.4-2.1-2.3-3.2-5.6-3.2-9.8v-20.2h8.8v19c0,2.2.4,3.9,1.3,5.1.8,1.2,2.2,1.8,4,1.8h.5c1,0,2-.3,2.9-.8.9-.5,1.7-1.4,2.3-2.6.6-1.2.9-2.6.9-4.4v-18h8.8v32.5h-7.7v-4c-1,1.6-2.4,2.8-4,3.7-1.6.8-3.5,1.3-5.5,1.3h-.6Z"/>
  <path class="cls-4" d="M1374.2,749.8c-4.5,0-7.7-1-9.5-2.9s-2.8-4.8-2.8-8.6v-14h-6.8v-7.4h6.8v-9.3h8.8v9.3h10l-1.1,7.4h-8.9v13.7c0,1.6.4,2.7,1.2,3.4.8.7,1.8,1,3.2,1h5.7v7.4h-6.5Z"/>
  <path class="cls-4" d="M1386.7,712.4v-8.8h9.1v8.8h-9.1ZM1386.8,749.5v-32.5h8.8v32.5h-8.8Z"/>
  <path class="cls-4" d="M1403.8,749.5v-32.5h7.7v4c1.1-1.6,2.5-2.8,4.2-3.6,1.7-.9,3.6-1.3,5.7-1.3h.6c3.7,0,6.6,1.1,8.8,3.4,2.2,2.3,3.2,5.6,3.2,9.8v20.2h-8.8v-19c0-2.2-.5-3.9-1.4-5.1-.9-1.2-2.3-1.8-4.3-1.8h-.5c-1.1,0-2.1.3-3.1.8-1,.5-1.8,1.4-2.5,2.5-.7,1.1-1,2.6-1,4.5v18h-8.8Z"/>
  <path class="cls-4" d="M1455.1,762.9c-3.2,0-5.8-.5-8-1.5-2.1-1-3.8-2.5-5-4.5l6.2-4.7c.8,1.3,1.8,2.2,2.9,2.7,1.1.5,2.5.8,4.3.8h.8c4.7,0,7.1-2.8,7.1-8.3v-2c-2.2,2.6-5.2,3.9-9.1,3.9h-.5c-2.7,0-5.1-.7-7.1-2-2-1.3-3.6-3.2-4.8-5.5-1.1-2.4-1.7-5.1-1.7-8.3v-1.5c0-3.1.6-5.9,1.7-8.3s2.7-4.2,4.8-5.5c2-1.3,4.4-2,7.1-2h.5c4.6,0,8,1.6,10.2,4.9v-4h7.7v30c0,5.1-1.3,9.1-4,11.8-2.7,2.8-6.5,4.1-11.5,4.1h-1.4ZM1456,741.7h.6c2,0,3.7-.8,4.9-2.3,1.3-1.5,1.9-3.5,1.9-5.9v-1.6c0-2.4-.6-4.4-1.9-5.9-1.3-1.5-2.9-2.3-4.9-2.3h-.6c-2.2,0-3.9.7-5.1,2.2-1.2,1.4-1.9,3.5-1.9,6v1.6c0,2.6.6,4.6,1.9,6,1.2,1.5,3,2.2,5.1,2.2Z"/>
  <path class="cls-4" d="M780.6,810.1c-5.7,0-10-1.6-13-4.8-3-3.2-4.4-7.8-4.4-13.8v-2.5c0-3.9.7-7.2,2-10,1.3-2.8,3.2-5,5.7-6.5,2.5-1.5,5.4-2.3,8.8-2.3h.7c3.5,0,6.4.8,8.9,2.3,2.4,1.5,4.2,3.7,5.2,6.6l-4.2,1.4c-1.5-4.2-4.8-6.3-9.9-6.3h-.7c-3.8,0-6.7,1.3-8.8,3.8s-3.1,6.2-3.1,10.8v2.7c0,9.6,4.3,14.4,12.8,14.4h.7c3.8,0,6.9-.7,9.4-2.2v-10.6h-9.8l.5-3.8h13.6v16.6c-1.6,1.2-3.6,2.2-5.9,3-2.3.8-4.9,1.1-7.8,1.1h-.7Z"/>
  <path class="cls-4" d="M804.1,809.5v-38.5h13.5c4.4,0,7.7,1,10.1,2.9,2.4,2,3.6,4.7,3.6,8.3v1.3c0,3.6-1.2,6.4-3.7,8.4-2.4,2-5.8,3-10.1,3h-9v14.6h-4.6ZM808.7,791h8.9c2.9,0,5.2-.6,6.8-1.8,1.6-1.2,2.4-3,2.4-5.5v-1.5c0-2.5-.8-4.3-2.4-5.5-1.6-1.2-3.9-1.8-6.8-1.8h-8.9v16.1Z"/>
  <path class="cls-4" d="M868.5,771v23.4c0,5-1.3,8.8-3.8,11.6-2.5,2.8-6.2,4.2-10.9,4.2h-.7c-4.7,0-8.4-1.4-10.9-4.2-2.5-2.8-3.8-6.6-3.8-11.6v-23.4h4.6v23.5c0,3.8.9,6.7,2.6,8.7,1.7,2,4.3,2.9,7.6,2.9h.6c3.3,0,5.9-1,7.6-2.9,1.7-2,2.6-4.8,2.6-8.7v-23.5h4.6Z"/>
  <path class="cls-4" d="M905.3,817.9v-48.6h4.3v48.6h-4.3Z"/>
  <path class="cls-4" d="M962.3,810.1c-5.3,0-9.4-1.6-12.2-4.9-2.8-3.3-4.3-7.9-4.3-13.8v-2.5c0-3.8.7-7.1,2-9.9,1.3-2.8,3.2-5,5.7-6.5,2.5-1.5,5.4-2.3,8.8-2.3h.7c3.5,0,6.4.8,8.8,2.4,2.4,1.6,4.1,3.9,5.1,6.9l-4.2,1.4c-.7-2.2-1.9-3.8-3.6-4.9s-3.7-1.7-6.1-1.7h-.7c-3.8,0-6.7,1.3-8.8,3.8-2.1,2.5-3.2,6.1-3.2,10.7v2.7c0,4.8,1,8.4,3.1,10.9,2.1,2.5,5,3.7,8.9,3.7h.7c2.5,0,4.6-.5,6.3-1.6,1.7-1.1,3-2.7,3.7-4.8l4.1,1.6c-1,2.8-2.8,5-5.2,6.5-2.4,1.5-5.4,2.3-8.8,2.3h-.7Z"/>
  <path class="cls-4" d="M984.7,809.5v-38.5h13.5c4.4,0,7.7,1,10.1,2.9,2.4,2,3.6,4.7,3.6,8.3v1.3c0,3.6-1.2,6.4-3.7,8.4s-5.8,3-10.1,3h-9v14.6h-4.6ZM989.3,791h8.9c2.9,0,5.2-.6,6.8-1.8,1.6-1.2,2.4-3,2.4-5.5v-1.5c0-2.5-.8-4.3-2.4-5.5-1.6-1.2-3.9-1.8-6.8-1.8h-8.9v16.1Z"/>
  <path class="cls-4" d="M1049.1,771v23.4c0,5-1.3,8.8-3.8,11.6s-6.2,4.2-10.9,4.2h-.7c-4.7,0-8.4-1.4-10.9-4.2s-3.8-6.6-3.8-11.6v-23.4h4.6v23.5c0,3.8.9,6.7,2.6,8.7,1.7,2,4.3,2.9,7.6,2.9h.6c3.3,0,5.9-1,7.6-2.9,1.7-2,2.6-4.8,2.6-8.7v-23.5h4.6Z"/>
  <path class="cls-4" d="M1085.8,817.9v-48.6h4.3v48.6h-4.3Z"/>
  <path class="cls-4" d="M1128.1,809.5v-38.5h14c5.6,0,9.9,1.6,12.9,4.8,3,3.2,4.5,7.6,4.5,13.2v2.5c0,5.6-1.5,10.1-4.5,13.3-3,3.2-7.3,4.8-12.9,4.8h-14ZM1132.6,805.5h9.4c4.1,0,7.3-1.2,9.6-3.6,2.2-2.4,3.4-5.8,3.4-10.4v-2.7c0-4.5-1.1-8-3.4-10.4-2.2-2.4-5.4-3.5-9.6-3.5h-9.4v30.6Z"/>
  <path class="cls-4" d="M1168.2,809.5v-38.5h13.5c4.4,0,7.7,1,10.1,2.9,2.4,2,3.6,4.7,3.6,8.3v1.3c0,3.6-1.2,6.4-3.7,8.4-2.4,2-5.8,3-10.1,3h-9v14.6h-4.6ZM1172.8,791h8.9c2.9,0,5.2-.6,6.8-1.8s2.4-3,2.4-5.5v-1.5c0-2.5-.8-4.3-2.4-5.5-1.6-1.2-3.9-1.8-6.8-1.8h-8.9v16.1Z"/>
  <path class="cls-4" d="M1232.6,771v23.4c0,5-1.3,8.8-3.8,11.6-2.5,2.8-6.2,4.2-10.9,4.2h-.7c-4.7,0-8.4-1.4-10.9-4.2-2.5-2.8-3.8-6.6-3.8-11.6v-23.4h4.6v23.5c0,3.8.9,6.7,2.6,8.7,1.7,2,4.3,2.9,7.6,2.9h.6c3.3,0,5.9-1,7.6-2.9,1.7-2,2.6-4.8,2.6-8.7v-23.5h4.6Z"/>
</svg>