<svg width="1920" height="1080" viewBox="0 0 1920 1080" fill="none" xmlns="http://www.w3.org/2000/svg">
<rect width="1920" height="1080" fill="white"/>
<path d="M285.366 123L303.35 78.2H307.958L326.006 123H320.31L316.022 111.928H295.094L290.806 123H285.366ZM296.822 107.448H314.23L305.526 84.984L296.822 107.448Z" fill="black"/>
<path d="M338.235 123L325.371 90.424H330.683L340.539 116.6L350.331 90.424H355.451L342.587 123H338.235Z" fill="black"/>
<path d="M373.512 123.768C369.032 123.768 365.491 122.381 362.888 119.608C360.286 116.835 358.984 112.931 358.984 107.896V105.528C358.984 102.243 359.582 99.4267 360.776 97.08C361.971 94.6907 363.656 92.856 365.832 91.576C368.051 90.296 370.611 89.656 373.512 89.656H374.024C376.883 89.656 379.336 90.2534 381.384 91.448C383.475 92.6427 385.096 94.3494 386.248 96.568C387.4 98.744 387.976 101.304 387.976 104.248V108.152H364.04C364.083 111.949 364.936 114.787 366.6 116.664C368.307 118.541 370.611 119.48 373.512 119.48H374.472C376.606 119.48 378.334 119.096 379.656 118.328C381.022 117.56 382.11 116.451 382.92 115L386.824 117.368C385.715 119.331 384.094 120.888 381.96 122.04C379.87 123.192 377.374 123.768 374.472 123.768H373.512ZM364.104 104.248H382.92V103.544C382.92 100.387 382.11 97.9974 380.488 96.376C378.91 94.7547 376.755 93.944 374.024 93.944H373.512C370.867 93.944 368.67 94.8187 366.92 96.568C365.214 98.3174 364.275 100.877 364.104 104.248Z" fill="black"/>
<path d="M396.089 123V90.424H400.761V97.272C401.529 95.1387 402.681 93.432 404.217 92.152C405.795 90.8294 408.078 90.168 411.065 90.168H414.073V94.84H410.809C408.035 94.84 405.731 95.8 403.897 97.72C402.105 99.5974 401.209 102.499 401.209 106.424V123H396.089Z" fill="black"/>
<path d="M428.162 123.768C424.663 123.768 421.975 122.936 420.098 121.272C418.22 119.608 417.282 117.219 417.282 114.104C417.282 111.544 418.071 109.453 419.65 107.832C421.271 106.168 423.639 105.123 426.754 104.696L439.554 102.968V102.712C439.554 96.8667 436.951 93.944 431.746 93.944H431.042C426.946 93.944 424.151 95.5227 422.658 98.68L418.562 96.696C419.543 94.4774 421.1 92.7494 423.234 91.512C425.41 90.2747 428.012 89.656 431.042 89.656H432.002C436.14 89.656 439.276 90.744 441.41 92.92C443.586 95.096 444.674 98.2534 444.674 102.392V123H440.002V117.176C439.02 119.224 437.527 120.845 435.522 122.04C433.516 123.192 431.255 123.768 428.738 123.768H428.162ZM439.554 106.872L428.93 108.408C426.455 108.749 424.727 109.325 423.746 110.136C422.764 110.947 422.274 112.184 422.274 113.848C422.274 115.683 422.85 117.091 424.002 118.072C425.196 119.053 426.903 119.544 429.122 119.544H429.762C432.706 119.544 435.074 118.605 436.866 116.728C438.658 114.851 439.554 112.355 439.554 109.24V106.872Z" fill="black"/>
<path d="M467.392 136.696C461.077 136.696 456.81 134.669 454.592 130.616L458.304 127.928C459.242 129.464 460.416 130.573 461.824 131.256C463.232 131.981 465.109 132.344 467.456 132.344H468.416C474.517 132.344 477.568 128.973 477.568 122.232V117.304C475.477 121.016 471.978 122.872 467.072 122.872H466.688C463.872 122.872 461.418 122.232 459.328 120.952C457.237 119.629 455.594 117.795 454.4 115.448C453.248 113.101 452.672 110.371 452.672 107.256V105.208C452.672 102.093 453.248 99.384 454.4 97.08C455.594 94.7334 457.237 92.92 459.328 91.64C461.418 90.3174 463.872 89.656 466.688 89.656H467.072C472.448 89.656 476.138 91.7894 478.144 96.056V90.488H482.816V122.168C482.816 126.819 481.578 130.403 479.104 132.92C476.629 135.437 473.109 136.696 468.544 136.696H467.392ZM467.52 118.456H468.096C471.082 118.456 473.429 117.432 475.136 115.384C476.842 113.336 477.696 110.541 477.696 107V105.464C477.696 101.923 476.842 99.1494 475.136 97.144C473.429 95.096 471.082 94.072 468.096 94.072H467.52C464.533 94.072 462.165 95.096 460.416 97.144C458.666 99.1494 457.792 101.859 457.792 105.272V107.256C457.792 110.669 458.666 113.4 460.416 115.448C462.165 117.453 464.533 118.456 467.52 118.456Z" fill="black"/>
<path d="M505.262 123.768C500.782 123.768 497.241 122.381 494.638 119.608C492.036 116.835 490.734 112.931 490.734 107.896V105.528C490.734 102.243 491.332 99.4267 492.526 97.08C493.721 94.6907 495.406 92.856 497.582 91.576C499.801 90.296 502.361 89.656 505.262 89.656H505.774C508.633 89.656 511.086 90.2534 513.134 91.448C515.225 92.6427 516.846 94.3494 517.998 96.568C519.15 98.744 519.726 101.304 519.726 104.248V108.152H495.79C495.833 111.949 496.686 114.787 498.35 116.664C500.057 118.541 502.361 119.48 505.262 119.48H506.222C508.356 119.48 510.084 119.096 511.406 118.328C512.772 117.56 513.86 116.451 514.67 115L518.574 117.368C517.465 119.331 515.844 120.888 513.71 122.04C511.62 123.192 509.124 123.768 506.222 123.768H505.262ZM495.854 104.248H514.67V103.544C514.67 100.387 513.86 97.9974 512.238 96.376C510.66 94.7547 508.505 93.944 505.774 93.944H505.262C502.617 93.944 500.42 94.8187 498.67 96.568C496.964 98.3174 496.025 100.877 495.854 104.248Z" fill="black"/>
<path d="M545.299 123V78.2H561.619C568.104 78.2 573.096 80.056 576.595 83.768C580.136 87.48 581.907 92.6 581.907 99.128V102.008C581.907 108.579 580.136 113.72 576.595 117.432C573.096 121.144 568.104 123 561.619 123H545.299ZM550.611 118.392H561.555C566.376 118.392 570.088 117.005 572.691 114.232C575.293 111.459 576.595 107.427 576.595 102.136V99C576.595 93.7094 575.293 89.6987 572.691 86.968C570.088 84.1947 566.376 82.808 561.555 82.808H550.611V118.392Z" fill="black"/>
<path d="M603.637 123.768C599.157 123.768 595.616 122.381 593.013 119.608C590.411 116.835 589.109 112.931 589.109 107.896V105.528C589.109 102.243 589.707 99.4267 590.901 97.08C592.096 94.6907 593.781 92.856 595.957 91.576C598.176 90.296 600.736 89.656 603.637 89.656H604.149C607.008 89.656 609.461 90.2534 611.509 91.448C613.6 92.6427 615.221 94.3494 616.373 96.568C617.525 98.744 618.101 101.304 618.101 104.248V108.152H594.165C594.208 111.949 595.061 114.787 596.725 116.664C598.432 118.541 600.736 119.48 603.637 119.48H604.597C606.731 119.48 608.459 119.096 609.781 118.328C611.147 117.56 612.235 116.451 613.045 115L616.949 117.368C615.84 119.331 614.219 120.888 612.085 122.04C609.995 123.192 607.499 123.768 604.597 123.768H603.637ZM594.229 104.248H613.045V103.544C613.045 100.387 612.235 97.9974 610.613 96.376C609.035 94.7547 606.88 93.944 604.149 93.944H603.637C600.992 93.944 598.795 94.8187 597.045 96.568C595.339 98.3174 594.4 100.877 594.229 104.248Z" fill="black"/>
<path d="M639.398 123.768C634.832 123.768 631.184 122.381 628.454 119.608C625.766 116.835 624.422 112.931 624.422 107.896V105.528C624.422 102.2 625.04 99.3627 626.278 97.016C627.558 94.6267 629.328 92.8134 631.59 91.576C633.851 90.296 636.454 89.656 639.398 89.656H640.102C642.96 89.656 645.414 90.3387 647.462 91.704C649.51 93.0267 651.003 94.7974 651.942 97.016L647.846 98.936C647.12 97.4427 646.118 96.2694 644.838 95.416C643.558 94.52 641.979 94.072 640.102 94.072H639.462C636.56 94.072 634.171 95.032 632.294 96.952C630.459 98.872 629.542 101.731 629.542 105.528V107.896C629.542 111.736 630.438 114.616 632.23 116.536C634.064 118.413 636.475 119.352 639.462 119.352H640.102C642.064 119.352 643.686 118.947 644.966 118.136C646.288 117.283 647.291 116.152 647.974 114.744L652.07 116.728C651.131 118.819 649.616 120.525 647.526 121.848C645.478 123.128 643.003 123.768 640.102 123.768H639.398Z" fill="black"/>
<path d="M673.145 123.768C670.329 123.768 667.79 123.149 665.529 121.912C663.31 120.632 661.539 118.797 660.217 116.408C658.937 114.019 658.297 111.16 658.297 107.832V105.592C658.297 102.264 658.937 99.4054 660.217 97.016C661.539 94.6267 663.31 92.8134 665.529 91.576C667.79 90.296 670.329 89.656 673.145 89.656H673.785C676.643 89.656 679.182 90.296 681.401 91.576C683.662 92.8134 685.433 94.6267 686.713 97.016C688.035 99.3627 688.697 102.2 688.697 105.528V107.896C688.697 111.224 688.035 114.083 686.713 116.472C685.433 118.819 683.662 120.632 681.401 121.912C679.182 123.149 676.643 123.768 673.785 123.768H673.145ZM673.209 119.352H673.721C676.494 119.352 678.819 118.392 680.697 116.472C682.617 114.552 683.577 111.693 683.577 107.896V105.528C683.577 101.731 682.617 98.872 680.697 96.952C678.819 95.032 676.494 94.072 673.721 94.072H673.209C670.478 94.072 668.153 95.032 666.233 96.952C664.355 98.872 663.417 101.731 663.417 105.528V107.896C663.417 111.693 664.355 114.552 666.233 116.472C668.153 118.392 670.478 119.352 673.209 119.352Z" fill="black"/>
<path d="M709.313 123.768C706.625 123.768 704.214 123.171 702.081 121.976C699.99 120.739 698.326 118.925 697.089 116.536C695.894 114.147 695.297 111.245 695.297 107.832V105.528C695.297 102.115 695.894 99.2347 697.089 96.888C698.326 94.4987 699.99 92.7067 702.081 91.512C704.214 90.2747 706.625 89.656 709.313 89.656H709.697C712.171 89.656 714.305 90.1894 716.097 91.256C717.889 92.28 719.297 93.6667 720.321 95.416V76.28H725.441V123H720.769V117.368C719.787 119.288 718.358 120.845 716.481 122.04C714.646 123.192 712.385 123.768 709.697 123.768H709.313ZM710.145 119.352H710.721C712.513 119.352 714.134 118.947 715.585 118.136C717.035 117.325 718.187 116.067 719.041 114.36C719.894 112.653 720.321 110.435 720.321 107.704V105.72C720.321 102.989 719.873 100.771 718.977 99.064C718.123 97.3574 716.971 96.0987 715.521 95.288C714.07 94.4774 712.47 94.072 710.721 94.072H710.145C707.371 94.072 705.046 95.0107 703.169 96.888C701.334 98.7227 700.417 101.603 700.417 105.528V107.832C700.417 111.757 701.334 114.659 703.169 116.536C705.046 118.413 707.371 119.352 710.145 119.352Z" fill="black"/>
<path d="M735.651 123V90.424H740.771V123H735.651ZM735.523 83.576V77.752H740.899V83.576H735.523Z" fill="black"/>
<path d="M751.026 123V90.424H755.698V96.248C756.594 94.2854 757.96 92.7067 759.794 91.512C761.629 90.2747 763.912 89.656 766.642 89.656H767.218C770.93 89.656 773.896 90.7867 776.114 93.048C778.376 95.3094 779.506 98.616 779.506 102.968V123H774.386V103.8C774.386 100.6 773.682 98.1894 772.274 96.568C770.866 94.904 768.84 94.072 766.194 94.072H765.746C764.04 94.072 762.461 94.4987 761.01 95.352C759.56 96.1627 758.386 97.4 757.49 99.064C756.594 100.685 756.146 102.733 756.146 105.208V123H751.026Z" fill="black"/>
<path d="M802.204 136.696C795.89 136.696 791.623 134.669 789.404 130.616L793.116 127.928C794.055 129.464 795.228 130.573 796.636 131.256C798.044 131.981 799.922 132.344 802.268 132.344H803.228C809.33 132.344 812.38 128.973 812.38 122.232V117.304C810.29 121.016 806.791 122.872 801.884 122.872H801.5C798.684 122.872 796.231 122.232 794.14 120.952C792.05 119.629 790.407 117.795 789.212 115.448C788.06 113.101 787.484 110.371 787.484 107.256V105.208C787.484 102.093 788.06 99.384 789.212 97.08C790.407 94.7334 792.05 92.92 794.14 91.64C796.231 90.3174 798.684 89.656 801.5 89.656H801.884C807.26 89.656 810.951 91.7894 812.956 96.056V90.488H817.628V122.168C817.628 126.819 816.391 130.403 813.916 132.92C811.442 135.437 807.922 136.696 803.356 136.696H802.204ZM802.332 118.456H802.908C805.895 118.456 808.242 117.432 809.948 115.384C811.655 113.336 812.508 110.541 812.508 107V105.464C812.508 101.923 811.655 99.1494 809.948 97.144C808.242 95.096 805.895 94.072 802.908 94.072H802.332C799.346 94.072 796.978 95.096 795.228 97.144C793.479 99.1494 792.604 101.859 792.604 105.272V107.256C792.604 110.669 793.479 113.4 795.228 115.448C796.978 117.453 799.346 118.456 802.332 118.456Z" fill="black"/>
<path d="M845.299 123V78.2H850.611V118.456H872.051V123H845.299Z" fill="black"/>
<path d="M887.537 123.768C884.038 123.768 881.35 122.936 879.473 121.272C877.595 119.608 876.657 117.219 876.657 114.104C876.657 111.544 877.446 109.453 879.025 107.832C880.646 106.168 883.014 105.123 886.129 104.696L898.929 102.968V102.712C898.929 96.8667 896.326 93.944 891.121 93.944H890.417C886.321 93.944 883.526 95.5227 882.033 98.68L877.937 96.696C878.918 94.4774 880.475 92.7494 882.609 91.512C884.785 90.2747 887.387 89.656 890.417 89.656H891.377C895.515 89.656 898.651 90.744 900.785 92.92C902.961 95.096 904.049 98.2534 904.049 102.392V123H899.377V117.176C898.395 119.224 896.902 120.845 894.897 122.04C892.891 123.192 890.63 123.768 888.113 123.768H887.537ZM898.929 106.872L888.305 108.408C885.83 108.749 884.102 109.325 883.121 110.136C882.139 110.947 881.649 112.184 881.649 113.848C881.649 115.683 882.225 117.091 883.377 118.072C884.571 119.053 886.278 119.544 888.497 119.544H889.137C892.081 119.544 894.449 118.605 896.241 116.728C898.033 114.851 898.929 112.355 898.929 109.24V106.872Z" fill="black"/>
<path d="M926.405 123.256C922.651 123.256 919.984 122.381 918.405 120.632C916.827 118.883 916.037 116.493 916.037 113.464V94.648H909.061V90.424H916.037V80.568H921.157V90.424H932.421L931.717 94.648H921.157V113.144C921.157 115.192 921.627 116.685 922.565 117.624C923.504 118.52 924.955 118.968 926.917 118.968H932.421V123.256H926.405Z" fill="black"/>
<path d="M952.825 123.768C948.345 123.768 944.803 122.381 942.201 119.608C939.598 116.835 938.297 112.931 938.297 107.896V105.528C938.297 102.243 938.894 99.4267 940.089 97.08C941.283 94.6907 942.969 92.856 945.145 91.576C947.363 90.296 949.923 89.656 952.825 89.656H953.337C956.195 89.656 958.649 90.2534 960.697 91.448C962.787 92.6427 964.409 94.3494 965.561 96.568C966.713 98.744 967.289 101.304 967.289 104.248V108.152H943.353C943.395 111.949 944.249 114.787 945.913 116.664C947.619 118.541 949.923 119.48 952.825 119.48H953.785C955.918 119.48 957.646 119.096 958.969 118.328C960.334 117.56 961.422 116.451 962.233 115L966.137 117.368C965.027 119.331 963.406 120.888 961.273 122.04C959.182 123.192 956.686 123.768 953.785 123.768H952.825ZM943.417 104.248H962.233V103.544C962.233 100.387 961.422 97.9974 959.801 96.376C958.222 94.7547 956.067 93.944 953.337 93.944H952.825C950.179 93.944 947.982 94.8187 946.233 96.568C944.526 98.3174 943.587 100.877 943.417 104.248Z" fill="black"/>
<path d="M975.401 123V90.424H980.073V96.248C980.969 94.2854 982.335 92.7067 984.169 91.512C986.004 90.2747 988.287 89.656 991.017 89.656H991.593C995.305 89.656 998.271 90.7867 1000.49 93.048C1002.75 95.3094 1003.88 98.616 1003.88 102.968V123H998.761V103.8C998.761 100.6 998.057 98.1894 996.649 96.568C995.241 94.904 993.215 94.072 990.569 94.072H990.121C988.415 94.072 986.836 94.4987 985.385 95.352C983.935 96.1627 982.761 97.4 981.865 99.064C980.969 100.685 980.521 102.733 980.521 105.208V123H975.401Z" fill="black"/>
<path d="M1026.84 123.768C1022.27 123.768 1018.62 122.381 1015.89 119.608C1013.2 116.835 1011.86 112.931 1011.86 107.896V105.528C1011.86 102.2 1012.48 99.3627 1013.72 97.016C1015 94.6267 1016.77 92.8134 1019.03 91.576C1021.29 90.296 1023.89 89.656 1026.84 89.656H1027.54C1030.4 89.656 1032.85 90.3387 1034.9 91.704C1036.95 93.0267 1038.44 94.7974 1039.38 97.016L1035.28 98.936C1034.56 97.4427 1033.56 96.2694 1032.28 95.416C1031 94.52 1029.42 94.072 1027.54 94.072H1026.9C1024 94.072 1021.61 95.032 1019.73 96.952C1017.9 98.872 1016.98 101.731 1016.98 105.528V107.896C1016.98 111.736 1017.88 114.616 1019.67 116.536C1021.5 118.413 1023.91 119.352 1026.9 119.352H1027.54C1029.5 119.352 1031.12 118.947 1032.4 118.136C1033.73 117.283 1034.73 116.152 1035.41 114.744L1039.51 116.728C1038.57 118.819 1037.05 120.525 1034.96 121.848C1032.92 123.128 1030.44 123.768 1027.54 123.768H1026.84Z" fill="black"/>
<path d="M1046.19 135.8V131.512H1047.98C1049.98 131.512 1051.5 131.064 1052.52 130.168C1053.59 129.272 1054.59 127.544 1055.53 124.984L1056.23 123.064L1043.37 90.424H1048.81L1058.92 117.624L1068.59 90.424H1073.77L1060.59 125.176C1059.56 127.949 1058.52 130.104 1057.45 131.64C1056.38 133.219 1055.15 134.307 1053.74 134.904C1052.33 135.501 1050.58 135.8 1048.49 135.8H1046.19Z" fill="black"/>
<path d="M1075.46 132.024L1073.54 129.528L1075.33 128.12C1076.14 127.523 1076.7 126.989 1077 126.52C1077.3 126.051 1077.45 125.261 1077.45 124.152V123H1074.63V116.536H1080.65V124.152C1080.65 125.347 1080.52 126.307 1080.26 127.032C1080.05 127.8 1079.66 128.461 1079.11 129.016C1078.6 129.571 1077.87 130.211 1076.93 130.936L1075.46 132.024Z" fill="black"/>
<path d="M1121.31 123.768C1112.61 123.768 1106.91 120.547 1104.22 114.104L1108.77 111.736C1109.79 114.211 1111.31 116.067 1113.31 117.304C1115.36 118.541 1118.01 119.16 1121.25 119.16H1121.95C1125.49 119.16 1128.2 118.499 1130.08 117.176C1132 115.811 1132.96 113.912 1132.96 111.48V110.776C1132.96 108.685 1132.36 107 1131.17 105.72C1129.97 104.44 1128.03 103.565 1125.34 103.096L1117.15 101.752C1109.43 100.472 1105.57 96.5894 1105.57 90.104V89.272C1105.57 86.9254 1106.21 84.856 1107.49 83.064C1108.81 81.272 1110.62 79.8854 1112.93 78.904C1115.23 77.88 1117.9 77.368 1120.93 77.368H1121.82C1125.66 77.368 1128.93 78.1574 1131.62 79.736C1134.35 81.3147 1136.31 83.576 1137.5 86.52L1132.83 88.504C1131.21 84.1947 1127.52 82.04 1121.76 82.04H1120.99C1117.83 82.04 1115.34 82.7014 1113.5 84.024C1111.71 85.304 1110.82 87.0534 1110.82 89.272V90.04C1110.82 92.0027 1111.41 93.5387 1112.61 94.648C1113.8 95.7147 1115.7 96.4827 1118.3 96.952L1126.5 98.296C1130.42 98.936 1133.37 100.323 1135.33 102.456C1137.29 104.547 1138.27 107.299 1138.27 110.712V111.48C1138.27 115.277 1136.82 118.285 1133.92 120.504C1131.06 122.68 1127.14 123.768 1122.14 123.768H1121.31Z" fill="black"/>
<path d="M1146.28 123V90.424H1151.4V123H1146.28ZM1146.15 83.576V77.752H1151.52V83.576H1146.15Z" fill="black"/>
<path d="M1161.65 123V90.424H1166.32V96.248C1167.22 94.2854 1168.58 92.7067 1170.42 91.512C1172.25 90.2747 1174.54 89.656 1177.27 89.656H1177.84C1181.56 89.656 1184.52 90.7867 1186.74 93.048C1189 95.3094 1190.13 98.616 1190.13 102.968V123H1185.01V103.8C1185.01 100.6 1184.31 98.1894 1182.9 96.568C1181.49 94.904 1179.46 94.072 1176.82 94.072H1176.37C1174.66 94.072 1173.09 94.4987 1171.64 95.352C1170.18 96.1627 1169.01 97.4 1168.12 99.064C1167.22 100.685 1166.77 102.733 1166.77 105.208V123H1161.65Z" fill="black"/>
<path d="M1212.83 136.696C1206.51 136.696 1202.25 134.669 1200.03 130.616L1203.74 127.928C1204.68 129.464 1205.85 130.573 1207.26 131.256C1208.67 131.981 1210.55 132.344 1212.89 132.344H1213.85C1219.95 132.344 1223.01 128.973 1223.01 122.232V117.304C1220.91 121.016 1217.42 122.872 1212.51 122.872H1212.13C1209.31 122.872 1206.86 122.232 1204.77 120.952C1202.67 119.629 1201.03 117.795 1199.84 115.448C1198.69 113.101 1198.11 110.371 1198.11 107.256V105.208C1198.11 102.093 1198.69 99.384 1199.84 97.08C1201.03 94.7334 1202.67 92.92 1204.77 91.64C1206.86 90.3174 1209.31 89.656 1212.13 89.656H1212.51C1217.89 89.656 1221.58 91.7894 1223.58 96.056V90.488H1228.25V122.168C1228.25 126.819 1227.02 130.403 1224.54 132.92C1222.07 135.437 1218.55 136.696 1213.98 136.696H1212.83ZM1212.96 118.456H1213.53C1216.52 118.456 1218.87 117.432 1220.57 115.384C1222.28 113.336 1223.13 110.541 1223.13 107V105.464C1223.13 101.923 1222.28 99.1494 1220.57 97.144C1218.87 95.096 1216.52 94.072 1213.53 94.072H1212.96C1209.97 94.072 1207.6 95.096 1205.85 97.144C1204.1 99.1494 1203.23 101.859 1203.23 105.272V107.256C1203.23 110.669 1204.1 113.4 1205.85 115.448C1207.6 117.453 1209.97 118.456 1212.96 118.456Z" fill="black"/>
<path d="M1238.46 123V76.28H1243.58V123H1238.46Z" fill="black"/>
<path d="M1266.57 123.768C1262.09 123.768 1258.55 122.381 1255.95 119.608C1253.35 116.835 1252.05 112.931 1252.05 107.896V105.528C1252.05 102.243 1252.64 99.4267 1253.84 97.08C1255.03 94.6907 1256.72 92.856 1258.89 91.576C1261.11 90.296 1263.67 89.656 1266.57 89.656H1267.09C1269.95 89.656 1272.4 90.2534 1274.45 91.448C1276.54 92.6427 1278.16 94.3494 1279.31 96.568C1280.46 98.744 1281.04 101.304 1281.04 104.248V108.152H1257.1C1257.15 111.949 1258 114.787 1259.66 116.664C1261.37 118.541 1263.67 119.48 1266.57 119.48H1267.53C1269.67 119.48 1271.4 119.096 1272.72 118.328C1274.08 117.56 1275.17 116.451 1275.98 115L1279.89 117.368C1278.78 119.331 1277.16 120.888 1275.02 122.04C1272.93 123.192 1270.44 123.768 1267.53 123.768H1266.57ZM1257.17 104.248H1275.98V103.544C1275.98 100.387 1275.17 97.9974 1273.55 96.376C1271.97 94.7547 1269.82 93.944 1267.09 93.944H1266.57C1263.93 93.944 1261.73 94.8187 1259.98 96.568C1258.28 98.3174 1257.34 100.877 1257.17 104.248Z" fill="black"/>
<path d="M1320.5 123.768C1311.8 123.768 1306.1 120.547 1303.41 114.104L1307.96 111.736C1308.98 114.211 1310.49 116.067 1312.5 117.304C1314.55 118.541 1317.19 119.16 1320.44 119.16H1321.14C1324.68 119.16 1327.39 118.499 1329.27 117.176C1331.19 115.811 1332.15 113.912 1332.15 111.48V110.776C1332.15 108.685 1331.55 107 1330.36 105.72C1329.16 104.44 1327.22 103.565 1324.53 103.096L1316.34 101.752C1308.62 100.472 1304.76 96.5894 1304.76 90.104V89.272C1304.76 86.9254 1305.4 84.856 1306.68 83.064C1308 81.272 1309.81 79.8854 1312.12 78.904C1314.42 77.88 1317.09 77.368 1320.12 77.368H1321.01C1324.85 77.368 1328.12 78.1574 1330.8 79.736C1333.53 81.3147 1335.5 83.576 1336.69 86.52L1332.02 88.504C1330.4 84.1947 1326.71 82.04 1320.95 82.04H1320.18C1317.02 82.04 1314.53 82.7014 1312.69 84.024C1310.9 85.304 1310 87.0534 1310 89.272V90.04C1310 92.0027 1310.6 93.5387 1311.8 94.648C1312.99 95.7147 1314.89 96.4827 1317.49 96.952L1325.68 98.296C1329.61 98.936 1332.55 100.323 1334.52 102.456C1336.48 104.547 1337.46 107.299 1337.46 110.712V111.48C1337.46 115.277 1336.01 118.285 1333.11 120.504C1330.25 122.68 1326.32 123.768 1321.33 123.768H1320.5Z" fill="black"/>
<path d="M1343.69 135.8V131.512H1345.48C1347.48 131.512 1349 131.064 1350.02 130.168C1351.09 129.272 1352.09 127.544 1353.03 124.984L1353.73 123.064L1340.87 90.424H1346.31L1356.42 117.624L1366.09 90.424H1371.27L1358.09 125.176C1357.06 127.949 1356.02 130.104 1354.95 131.64C1353.88 133.219 1352.65 134.307 1351.24 134.904C1349.83 135.501 1348.08 135.8 1345.99 135.8H1343.69Z" fill="black"/>
<path d="M1377.34 123V90.424H1382.01V96.248C1382.91 94.2854 1384.27 92.7067 1386.11 91.512C1387.94 90.2747 1390.22 89.656 1392.95 89.656H1393.53C1397.24 89.656 1400.21 90.7867 1402.43 93.048C1404.69 95.3094 1405.82 98.616 1405.82 102.968V123H1400.7V103.8C1400.7 100.6 1399.99 98.1894 1398.59 96.568C1397.18 94.904 1395.15 94.072 1392.51 94.072H1392.06C1390.35 94.072 1388.77 94.4987 1387.32 95.352C1385.87 96.1627 1384.7 97.4 1383.8 99.064C1382.91 100.685 1382.46 102.733 1382.46 105.208V123H1377.34Z" fill="black"/>
<path d="M1427.81 123.768C1425.12 123.768 1422.71 123.171 1420.58 121.976C1418.49 120.739 1416.83 118.925 1415.59 116.536C1414.39 114.147 1413.8 111.245 1413.8 107.832V105.528C1413.8 102.115 1414.39 99.2347 1415.59 96.888C1416.83 94.4987 1418.49 92.7067 1420.58 91.512C1422.71 90.2747 1425.12 89.656 1427.81 89.656H1428.2C1430.67 89.656 1432.8 90.1894 1434.6 91.256C1436.39 92.28 1437.8 93.6667 1438.82 95.416V76.28H1443.94V123H1439.27V117.368C1438.29 119.288 1436.86 120.845 1434.98 122.04C1433.15 123.192 1430.88 123.768 1428.2 123.768H1427.81ZM1428.64 119.352H1429.22C1431.01 119.352 1432.63 118.947 1434.08 118.136C1435.54 117.325 1436.69 116.067 1437.54 114.36C1438.39 112.653 1438.82 110.435 1438.82 107.704V105.72C1438.82 102.989 1438.37 100.771 1437.48 99.064C1436.62 97.3574 1435.47 96.0987 1434.02 95.288C1432.57 94.4774 1430.97 94.072 1429.22 94.072H1428.64C1425.87 94.072 1423.55 95.0107 1421.67 96.888C1419.83 98.7227 1418.92 101.603 1418.92 105.528V107.832C1418.92 111.757 1419.83 114.659 1421.67 116.536C1423.55 118.413 1425.87 119.352 1428.64 119.352Z" fill="black"/>
<path d="M1454.15 123V90.424H1458.82V97.272C1459.59 95.1387 1460.74 93.432 1462.28 92.152C1463.86 90.8294 1466.14 90.168 1469.13 90.168H1472.14V94.84H1468.87C1466.1 94.84 1463.79 95.8 1461.96 97.72C1460.17 99.5974 1459.27 102.499 1459.27 106.424V123H1454.15Z" fill="black"/>
<path d="M1490.83 123.768C1488.02 123.768 1485.48 123.149 1483.22 121.912C1481 120.632 1479.23 118.797 1477.9 116.408C1476.62 114.019 1475.98 111.16 1475.98 107.832V105.592C1475.98 102.264 1476.62 99.4054 1477.9 97.016C1479.23 94.6267 1481 92.8134 1483.22 91.576C1485.48 90.296 1488.02 89.656 1490.83 89.656H1491.47C1494.33 89.656 1496.87 90.296 1499.09 91.576C1501.35 92.8134 1503.12 94.6267 1504.4 97.016C1505.72 99.3627 1506.38 102.2 1506.38 105.528V107.896C1506.38 111.224 1505.72 114.083 1504.4 116.472C1503.12 118.819 1501.35 120.632 1499.09 121.912C1496.87 123.149 1494.33 123.768 1491.47 123.768H1490.83ZM1490.9 119.352H1491.41C1494.18 119.352 1496.51 118.392 1498.38 116.472C1500.3 114.552 1501.26 111.693 1501.26 107.896V105.528C1501.26 101.731 1500.3 98.872 1498.38 96.952C1496.51 95.032 1494.18 94.072 1491.41 94.072H1490.9C1488.17 94.072 1485.84 95.032 1483.92 96.952C1482.04 98.872 1481.1 101.731 1481.1 105.528V107.896C1481.1 111.693 1482.04 114.552 1483.92 116.472C1485.84 118.392 1488.17 119.352 1490.9 119.352Z" fill="black"/>
<path d="M1514.78 123V90.424H1519.45V96.248C1520.34 94.2427 1521.62 92.6427 1523.29 91.448C1524.99 90.2534 1527.02 89.656 1529.37 89.656H1529.94C1535.28 89.656 1538.78 91.96 1540.44 96.568C1541.38 94.4774 1542.74 92.8134 1544.54 91.576C1546.37 90.296 1548.5 89.656 1550.94 89.656H1551.51C1555.1 89.656 1557.91 90.7867 1559.96 93.048C1562.01 95.3094 1563.03 98.616 1563.03 102.968V123H1557.91V103.8C1557.91 100.6 1557.31 98.1894 1556.12 96.568C1554.93 94.904 1553.05 94.072 1550.49 94.072H1550.04C1548.59 94.072 1547.2 94.4987 1545.88 95.352C1544.56 96.1627 1543.49 97.4 1542.68 99.064C1541.87 100.685 1541.46 102.733 1541.46 105.208V123H1536.34V103.8C1536.34 100.6 1535.75 98.1894 1534.55 96.568C1533.36 94.904 1531.48 94.072 1528.92 94.072H1528.47C1527.02 94.072 1525.63 94.4987 1524.31 95.352C1523.03 96.1627 1521.97 97.4 1521.11 99.064C1520.3 100.685 1519.9 102.733 1519.9 105.208V123H1514.78Z" fill="black"/>
<path d="M1585.57 123.768C1581.09 123.768 1577.55 122.381 1574.95 119.608C1572.35 116.835 1571.05 112.931 1571.05 107.896V105.528C1571.05 102.243 1571.64 99.4267 1572.84 97.08C1574.03 94.6907 1575.72 92.856 1577.89 91.576C1580.11 90.296 1582.67 89.656 1585.57 89.656H1586.09C1588.95 89.656 1591.4 90.2534 1593.45 91.448C1595.54 92.6427 1597.16 94.3494 1598.31 96.568C1599.46 98.744 1600.04 101.304 1600.04 104.248V108.152H1576.1C1576.15 111.949 1577 114.787 1578.66 116.664C1580.37 118.541 1582.67 119.48 1585.57 119.48H1586.53C1588.67 119.48 1590.4 119.096 1591.72 118.328C1593.08 117.56 1594.17 116.451 1594.98 115L1598.89 117.368C1597.78 119.331 1596.16 120.888 1594.02 122.04C1591.93 123.192 1589.44 123.768 1586.53 123.768H1585.57ZM1576.17 104.248H1594.98V103.544C1594.98 100.387 1594.17 97.9974 1592.55 96.376C1590.97 94.7547 1588.82 93.944 1586.09 93.944H1585.57C1582.93 93.944 1580.73 94.8187 1578.98 96.568C1577.28 98.3174 1576.34 100.877 1576.17 104.248Z" fill="black"/>
<path d="M1619.61 123.768C1612.48 123.768 1607.83 121.272 1605.66 116.28L1609.75 114.232C1610.6 116.024 1611.82 117.347 1613.4 118.2C1615.02 119.053 1617.11 119.48 1619.67 119.48H1620.38C1625.5 119.48 1628.06 117.837 1628.06 114.552V114.232C1628.06 111.373 1626.37 109.731 1623 109.304L1615.7 108.28C1612.84 107.896 1610.63 106.979 1609.05 105.528C1607.51 104.077 1606.74 102.115 1606.74 99.64V98.936C1606.74 96.1627 1607.85 93.9227 1610.07 92.216C1612.29 90.5094 1615.21 89.656 1618.84 89.656H1619.67C1622.66 89.656 1625.26 90.2747 1627.48 91.512C1629.7 92.7067 1631.23 94.392 1632.09 96.568L1627.99 98.424C1626.63 95.4374 1623.85 93.944 1619.67 93.944H1618.9C1616.68 93.944 1614.91 94.392 1613.59 95.288C1612.31 96.184 1611.67 97.3787 1611.67 98.872V99.256C1611.67 100.579 1612.06 101.603 1612.82 102.328C1613.63 103.011 1614.94 103.48 1616.73 103.736L1624.09 104.76C1626.9 105.144 1629.08 106.125 1630.62 107.704C1632.19 109.283 1632.98 111.331 1632.98 113.848V114.552C1632.98 117.581 1631.92 119.885 1629.78 121.464C1627.65 123 1624.54 123.768 1620.44 123.768H1619.61Z" fill="black"/>
<path d="M836.625 860V826.4H849.345C851.937 826.4 854.177 826.848 856.065 827.744C857.985 828.608 859.457 829.856 860.481 831.488C861.537 833.088 862.065 835.024 862.065 837.296V838.208C862.065 841.696 860.913 844.4 858.609 846.32C856.305 848.208 853.217 849.152 849.345 849.152H843.633V860H836.625ZM843.633 843.104H849.153C850.817 843.104 852.209 842.736 853.329 842C854.481 841.264 855.057 840.048 855.057 838.352V837.152C855.057 835.52 854.481 834.336 853.329 833.6C852.209 832.832 850.817 832.448 849.153 832.448H843.633V843.104Z" fill="black"/>
<path d="M865.761 860V824.96H872.481V837.488C874.177 835.536 876.401 834.56 879.153 834.56H879.633C882.449 834.56 884.673 835.44 886.305 837.2C887.969 838.928 888.801 841.408 888.801 844.64V860H882.081V845.552C882.081 843.888 881.729 842.608 881.025 841.712C880.353 840.784 879.281 840.32 877.809 840.32H877.425C876.625 840.32 875.841 840.528 875.073 840.944C874.337 841.36 873.713 842 873.201 842.864C872.721 843.728 872.481 844.864 872.481 846.272V860H865.761Z" fill="black"/>
<path d="M894.501 869.6V863.936H896.229C897.637 863.936 898.677 863.712 899.349 863.264C900.053 862.816 900.613 861.936 901.029 860.624L901.221 859.952L891.669 835.232H898.917L904.677 852.704L909.813 835.232H916.581L907.845 860.336C907.173 862.288 906.485 863.872 905.781 865.088C905.109 866.304 904.341 867.232 903.477 867.872C902.645 868.544 901.653 868.992 900.501 869.216C899.381 869.472 898.021 869.6 896.421 869.6H894.501Z" fill="black"/>
<path d="M929.445 860.672C923.685 860.672 920.053 858.784 918.549 855.008L923.781 852.368C924.229 853.328 924.901 854.048 925.797 854.528C926.693 854.976 927.925 855.2 929.493 855.2H930.117C932.869 855.2 934.245 854.48 934.245 853.04V852.848C934.245 851.632 933.445 850.912 931.845 850.688L926.853 850.016C924.421 849.664 922.549 848.88 921.237 847.664C919.957 846.416 919.317 844.752 919.317 842.672V842.192C919.317 839.824 920.213 837.968 922.005 836.624C923.829 835.248 926.245 834.56 929.253 834.56H929.973C932.469 834.56 934.581 835.056 936.309 836.048C938.037 837.008 939.285 838.384 940.053 840.176L934.725 842.528C933.957 840.864 932.357 840.032 929.925 840.032H929.301C926.965 840.032 925.797 840.72 925.797 842.096V842.288C925.797 842.8 925.973 843.216 926.325 843.536C926.677 843.824 927.253 844.032 928.053 844.16L933.237 844.88C935.637 845.2 937.477 846.048 938.757 847.424C940.069 848.768 940.725 850.48 940.725 852.56V853.04C940.725 855.568 939.829 857.472 938.037 858.752C936.245 860.032 933.621 860.672 930.165 860.672H929.445Z" fill="black"/>
<path d="M945.12 860V835.232H951.84V860H945.12ZM945.024 831.728V825.008H951.936V831.728H945.024Z" fill="black"/>
<path d="M968.906 860.672C965.194 860.672 962.234 859.616 960.026 857.504C957.85 855.392 956.762 852.336 956.762 848.336V846.896C956.762 844.272 957.258 842.048 958.25 840.224C959.274 838.368 960.698 836.96 962.522 836C964.346 835.04 966.474 834.56 968.906 834.56H969.29C971.69 834.56 973.706 835.136 975.338 836.288C977.002 837.44 978.186 838.96 978.89 840.848L973.466 843.152C973.082 842.32 972.538 841.648 971.834 841.136C971.162 840.592 970.314 840.32 969.29 840.32H968.954C967.322 840.32 965.994 840.848 964.97 841.904C963.978 842.928 963.482 844.544 963.482 846.752V848.48C963.482 850.752 963.962 852.4 964.922 853.424C965.914 854.416 967.258 854.912 968.954 854.912H969.29C970.41 854.912 971.338 854.672 972.074 854.192C972.81 853.712 973.386 853.056 973.802 852.224L979.034 854.96C978.33 856.592 977.13 857.952 975.434 859.04C973.738 860.128 971.69 860.672 969.29 860.672H968.906Z" fill="black"/>
<path d="M990.663 860.672C988.007 860.672 985.943 860.016 984.471 858.704C983.031 857.392 982.311 855.552 982.311 853.184C982.311 851.008 982.967 849.264 984.279 847.952C985.623 846.64 987.559 845.824 990.087 845.504L997.863 844.496V844.304C997.863 841.392 996.535 839.936 993.879 839.936H993.399C992.215 839.936 991.223 840.16 990.423 840.608C989.623 841.024 988.951 841.776 988.407 842.864L983.271 840.176C984.007 838.48 985.239 837.12 986.967 836.096C988.727 835.072 990.855 834.56 993.351 834.56H994.071C1001.08 834.56 1004.58 837.84 1004.58 844.4V860H998.727V856.88C997.959 858.064 996.887 858.992 995.511 859.664C994.167 860.336 992.631 860.672 990.903 860.672H990.663ZM997.863 849.008L992.727 849.728C991.255 849.952 990.231 850.272 989.655 850.688C989.079 851.072 988.791 851.712 988.791 852.608C988.791 853.472 989.111 854.16 989.751 854.672C990.423 855.152 991.303 855.392 992.391 855.392H992.775C994.375 855.392 995.623 854.928 996.519 854C997.415 853.072 997.863 851.808 997.863 850.208V849.008Z" fill="black"/>
<path d="M1010.56 860V824.96H1017.28V860H1010.56Z" fill="black"/>
<path d="M1036.36 860V826.4H1058.68V832.352H1043.37V840.08H1055.8L1054.98 846.032H1043.37V854.048H1058.97V860H1036.36Z" fill="black"/>
<path d="M1064.46 860V835.232H1070.32V839.456C1070.99 838.016 1071.84 836.912 1072.86 836.144C1073.89 835.344 1075.28 834.944 1077.04 834.944H1079.68V841.136H1077.28C1076.32 841.136 1075.38 841.328 1074.45 841.712C1073.52 842.096 1072.74 842.768 1072.1 843.728C1071.49 844.656 1071.18 845.952 1071.18 847.616V860H1064.46Z" fill="black"/>
<path d="M1083.21 860V835.232H1089.07V839.456C1089.74 838.016 1090.59 836.912 1091.61 836.144C1092.64 835.344 1094.03 834.944 1095.79 834.944H1098.43V841.136H1096.03C1095.07 841.136 1094.13 841.328 1093.2 841.712C1092.27 842.096 1091.49 842.768 1090.85 843.728C1090.24 844.656 1089.93 845.952 1089.93 847.616V860H1083.21Z" fill="black"/>
<path d="M1112.76 860.672C1110.46 860.672 1108.4 860.192 1106.57 859.232C1104.75 858.272 1103.31 856.88 1102.25 855.056C1101.2 853.2 1100.67 850.96 1100.67 848.336V846.896C1100.67 844.24 1101.2 842 1102.25 840.176C1103.31 838.352 1104.75 836.96 1106.57 836C1108.4 835.04 1110.46 834.56 1112.76 834.56H1113.1C1115.4 834.56 1117.47 835.04 1119.29 836C1121.12 836.96 1122.56 838.352 1123.61 840.176C1124.67 842 1125.2 844.24 1125.2 846.896V848.336C1125.2 850.96 1124.67 853.2 1123.61 855.056C1122.56 856.88 1121.12 858.272 1119.29 859.232C1117.47 860.192 1115.4 860.672 1113.1 860.672H1112.76ZM1112.76 854.912H1113.1C1114.67 854.912 1115.95 854.4 1116.94 853.376C1117.96 852.352 1118.48 850.72 1118.48 848.48V846.752C1118.48 844.512 1117.96 842.88 1116.94 841.856C1115.95 840.832 1114.67 840.32 1113.1 840.32H1112.76C1111.2 840.32 1109.9 840.832 1108.88 841.856C1107.88 842.88 1107.39 844.512 1107.39 846.752V848.48C1107.39 850.72 1107.88 852.352 1108.88 853.376C1109.9 854.4 1111.2 854.912 1112.76 854.912Z" fill="black"/>
<path d="M1130.14 860V835.232H1135.99V839.456C1136.66 838.016 1137.51 836.912 1138.54 836.144C1139.56 835.344 1140.95 834.944 1142.71 834.944H1145.35V841.136H1142.95C1141.99 841.136 1141.05 841.328 1140.12 841.712C1139.19 842.096 1138.41 842.768 1137.77 843.728C1137.16 844.656 1136.86 845.952 1136.86 847.616V860H1130.14Z" fill="black"/>
<path d="M1162.69 860V826.4H1175.41C1179.31 826.4 1182.4 827.312 1184.67 829.136C1186.98 830.96 1188.13 833.488 1188.13 836.72V837.632C1188.13 839.904 1187.57 841.824 1186.45 843.392C1185.36 844.96 1183.82 846.144 1181.84 846.944L1189.18 860H1181.55L1174.93 848H1169.7V860H1162.69ZM1169.7 841.952H1175.22C1176.91 841.952 1178.32 841.632 1179.44 840.992C1180.56 840.352 1181.12 839.28 1181.12 837.776V836.576C1181.12 835.136 1180.56 834.096 1179.44 833.456C1178.32 832.784 1176.91 832.448 1175.22 832.448H1169.7V841.952Z" fill="black"/>
<path d="M1199.87 860.672C1197.21 860.672 1195.15 860.016 1193.67 858.704C1192.23 857.392 1191.51 855.552 1191.51 853.184C1191.51 851.008 1192.17 849.264 1193.48 847.952C1194.83 846.64 1196.76 845.824 1199.29 845.504L1207.07 844.496V844.304C1207.07 841.392 1205.74 839.936 1203.08 839.936H1202.6C1201.42 839.936 1200.43 840.16 1199.63 840.608C1198.83 841.024 1198.15 841.776 1197.61 842.864L1192.47 840.176C1193.21 838.48 1194.44 837.12 1196.17 836.096C1197.93 835.072 1200.06 834.56 1202.55 834.56H1203.27C1210.28 834.56 1213.79 837.84 1213.79 844.4V860H1207.93V856.88C1207.16 858.064 1206.09 858.992 1204.71 859.664C1203.37 860.336 1201.83 860.672 1200.11 860.672H1199.87ZM1207.07 849.008L1201.93 849.728C1200.46 849.952 1199.43 850.272 1198.86 850.688C1198.28 851.072 1197.99 851.712 1197.99 852.608C1197.99 853.472 1198.31 854.16 1198.95 854.672C1199.63 855.152 1200.51 855.392 1201.59 855.392H1201.98C1203.58 855.392 1204.83 854.928 1205.72 854C1206.62 853.072 1207.07 851.808 1207.07 850.208V849.008Z" fill="black"/>
<path d="M1230.96 860.288C1227.54 860.288 1225.11 859.552 1223.67 858.08C1222.26 856.608 1221.55 854.416 1221.55 851.504V840.848H1216.37V835.232H1221.55V828.176H1228.27V835.232H1235.91L1235.09 840.848H1228.27V851.264C1228.27 852.448 1228.56 853.312 1229.14 853.856C1229.75 854.368 1230.56 854.624 1231.59 854.624H1235.91V860.288H1230.96Z" fill="black"/>
<path d="M1251.18 860.672C1247.41 860.672 1244.48 859.6 1242.4 857.456C1240.32 855.312 1239.28 852.288 1239.28 848.384V846.944C1239.28 843.04 1240.33 840 1242.45 837.824C1244.56 835.648 1247.47 834.56 1251.18 834.56H1251.57C1255.09 834.56 1257.82 835.632 1259.77 837.776C1261.76 839.888 1262.75 842.816 1262.75 846.56V849.584H1245.9C1246.13 853.392 1247.89 855.296 1251.18 855.296H1251.85C1254.38 855.296 1256.16 854.448 1257.18 852.752L1262.03 855.968C1261.13 857.44 1259.79 858.592 1258 859.424C1256.24 860.256 1254.21 860.672 1251.9 860.672H1251.18ZM1245.95 845.072H1256.22V844.928C1256.22 841.6 1254.67 839.936 1251.57 839.936H1251.18C1248.11 839.936 1246.37 841.648 1245.95 845.072Z" fill="black"/>
<rect x="603" y="954" width="48" height="48" fill="#CCCCCC"/>
<path d="M670.787 995V961.4H674.771V995H670.787Z" fill="black"/>
<path d="M683.192 995V970.568H686.696V974.936C687.368 973.464 688.392 972.28 689.768 971.384C691.144 970.456 692.856 969.992 694.904 969.992H695.336C698.12 969.992 700.344 970.84 702.008 972.536C703.704 974.232 704.552 976.712 704.552 979.976V995H700.712V980.6C700.712 978.2 700.184 976.392 699.128 975.176C698.072 973.928 696.552 973.304 694.568 973.304H694.232C692.952 973.304 691.768 973.624 690.68 974.264C689.592 974.872 688.712 975.8 688.04 977.048C687.368 978.264 687.032 979.8 687.032 981.656V995H683.192Z" fill="black"/>
<path d="M721.047 995.576C719.031 995.576 717.223 995.128 715.623 994.232C714.055 993.304 712.807 991.944 711.879 990.152C710.983 988.36 710.535 986.184 710.535 983.624V981.896C710.535 979.336 710.983 977.176 711.879 975.416C712.807 973.624 714.055 972.28 715.623 971.384C717.223 970.456 719.031 969.992 721.047 969.992H721.335C723.191 969.992 724.791 970.392 726.135 971.192C727.479 971.96 728.535 973 729.303 974.312V959.96H733.143V995H729.639V990.776C728.903 992.216 727.831 993.384 726.423 994.28C725.047 995.144 723.351 995.576 721.335 995.576H721.047ZM721.671 992.264H722.103C723.447 992.264 724.663 991.96 725.751 991.352C726.839 990.744 727.703 989.8 728.343 988.52C728.983 987.24 729.303 985.576 729.303 983.528V982.04C729.303 979.992 728.967 978.328 728.295 977.048C727.655 975.768 726.791 974.824 725.703 974.216C724.615 973.608 723.415 973.304 722.103 973.304H721.671C719.591 973.304 717.847 974.008 716.439 975.416C715.063 976.792 714.375 978.952 714.375 981.896V983.624C714.375 986.568 715.063 988.744 716.439 990.152C717.847 991.56 719.591 992.264 721.671 992.264Z" fill="black"/>
<path d="M749.393 995.576C746.705 995.576 744.545 994.728 742.913 993.032C741.281 991.336 740.465 988.856 740.465 985.592V970.568H744.305V985.016C744.305 987.384 744.801 989.192 745.793 990.44C746.817 991.656 748.273 992.264 750.161 992.264H750.545C751.793 992.264 752.929 991.96 753.953 991.352C755.009 990.712 755.841 989.784 756.449 988.568C757.089 987.32 757.409 985.768 757.409 983.912V970.568H761.249V995H757.745V990.68C757.073 992.152 756.081 993.336 754.769 994.232C753.457 995.128 751.809 995.576 749.825 995.576H749.393Z" fill="black"/>
<path d="M777.049 995.576C771.705 995.576 768.217 993.704 766.585 989.96L769.657 988.424C770.297 989.768 771.209 990.76 772.393 991.4C773.609 992.04 775.177 992.36 777.097 992.36H777.625C781.465 992.36 783.385 991.128 783.385 988.664V988.424C783.385 986.28 782.121 985.048 779.593 984.728L774.121 983.96C771.977 983.672 770.313 982.984 769.129 981.896C767.977 980.808 767.401 979.336 767.401 977.48V976.952C767.401 974.872 768.233 973.192 769.897 971.912C771.561 970.632 773.753 969.992 776.473 969.992H777.097C779.337 969.992 781.289 970.456 782.953 971.384C784.617 972.28 785.769 973.544 786.409 975.176L783.337 976.568C782.313 974.328 780.233 973.208 777.097 973.208H776.521C774.857 973.208 773.529 973.544 772.537 974.216C771.577 974.888 771.097 975.784 771.097 976.904V977.192C771.097 978.184 771.385 978.952 771.961 979.496C772.569 980.008 773.545 980.36 774.889 980.552L780.409 981.32C782.521 981.608 784.153 982.344 785.305 983.528C786.489 984.712 787.081 986.248 787.081 988.136V988.664C787.081 990.936 786.281 992.664 784.681 993.848C783.081 995 780.745 995.576 777.673 995.576H777.049Z" fill="black"/>
<path d="M802.773 995.192C799.957 995.192 797.957 994.536 796.773 993.224C795.589 991.912 794.997 990.12 794.997 987.848V973.736H789.765V970.568H794.997V963.176H798.837V970.568H807.285L806.757 973.736H798.837V987.608C798.837 989.144 799.189 990.264 799.893 990.968C800.597 991.64 801.685 991.976 803.157 991.976H807.285V995.192H802.773Z" fill="black"/>
<path d="M813.176 995V970.568H816.68V975.704C817.256 974.104 818.12 972.824 819.272 971.864C820.456 970.872 822.168 970.376 824.408 970.376H826.664V973.88H824.216C822.136 973.88 820.408 974.6 819.032 976.04C817.688 977.448 817.016 979.624 817.016 982.568V995H813.176Z" fill="black"/>
<path d="M832.234 1004.6V1001.38H833.578C835.082 1001.38 836.218 1001.05 836.986 1000.38C837.786 999.704 838.538 998.408 839.242 996.488L839.77 995.048L830.122 970.568H834.202L841.786 990.968L849.034 970.568H852.922L843.034 996.632C842.266 998.712 841.482 1000.33 840.682 1001.48C839.882 1002.66 838.954 1003.48 837.898 1003.93C836.842 1004.38 835.53 1004.6 833.962 1004.6H832.234Z" fill="black"/>
<path d="M881.124 995.576C874.596 995.576 870.324 993.16 868.308 988.328L871.716 986.552C872.484 988.408 873.62 989.8 875.124 990.728C876.66 991.656 878.644 992.12 881.076 992.12H881.604C884.26 992.12 886.292 991.624 887.7 990.632C889.14 989.608 889.86 988.184 889.86 986.36V985.832C889.86 984.264 889.412 983 888.516 982.04C887.62 981.08 886.164 980.424 884.148 980.072L878.004 979.064C872.212 978.104 869.316 975.192 869.316 970.328V969.704C869.316 967.944 869.796 966.392 870.756 965.048C871.748 963.704 873.108 962.664 874.836 961.928C876.564 961.16 878.564 960.776 880.836 960.776H881.508C884.388 960.776 886.836 961.368 888.852 962.552C890.9 963.736 892.372 965.432 893.268 967.64L889.764 969.128C888.548 965.896 885.78 964.28 881.46 964.28H880.884C878.516 964.28 876.644 964.776 875.268 965.768C873.924 966.728 873.252 968.04 873.252 969.704V970.28C873.252 971.752 873.7 972.904 874.596 973.736C875.492 974.536 876.916 975.112 878.868 975.464L885.012 976.472C887.956 976.952 890.164 977.992 891.636 979.592C893.108 981.16 893.844 983.224 893.844 985.784V986.36C893.844 989.208 892.756 991.464 890.58 993.128C888.436 994.76 885.492 995.576 881.748 995.576H881.124Z" fill="black"/>
<path d="M909.976 995.192C907.16 995.192 905.16 994.536 903.976 993.224C902.792 991.912 902.2 990.12 902.2 987.848V973.736H896.968V970.568H902.2V963.176H906.04V970.568H914.488L913.96 973.736H906.04V987.608C906.04 989.144 906.392 990.264 907.096 990.968C907.8 991.64 908.888 991.976 910.36 991.976H914.488V995.192H909.976Z" fill="black"/>
<path d="M926.574 995.576C923.95 995.576 921.934 994.952 920.526 993.704C919.118 992.456 918.414 990.664 918.414 988.328C918.414 986.408 919.006 984.84 920.19 983.624C921.406 982.376 923.182 981.592 925.518 981.272L935.118 979.976V979.784C935.118 975.4 933.166 973.208 929.262 973.208H928.734C925.662 973.208 923.566 974.392 922.446 976.76L919.374 975.272C920.11 973.608 921.278 972.312 922.878 971.384C924.51 970.456 926.462 969.992 928.734 969.992H929.454C932.558 969.992 934.91 970.808 936.51 972.44C938.142 974.072 938.958 976.44 938.958 979.544V995H935.454V990.632C934.718 992.168 933.598 993.384 932.094 994.28C930.59 995.144 928.894 995.576 927.006 995.576H926.574ZM935.118 982.904L927.15 984.056C925.294 984.312 923.998 984.744 923.262 985.352C922.526 985.96 922.158 986.888 922.158 988.136C922.158 989.512 922.59 990.568 923.454 991.304C924.35 992.04 925.63 992.408 927.294 992.408H927.774C929.982 992.408 931.758 991.704 933.102 990.296C934.446 988.888 935.118 987.016 935.118 984.68V982.904Z" fill="black"/>
<path d="M946.301 995V970.568H949.805V974.936C950.477 973.464 951.501 972.28 952.877 971.384C954.253 970.456 955.965 969.992 958.013 969.992H958.445C961.229 969.992 963.453 970.84 965.117 972.536C966.813 974.232 967.661 976.712 967.661 979.976V995H963.821V980.6C963.821 978.2 963.293 976.392 962.237 975.176C961.181 973.928 959.661 973.304 957.677 973.304H957.341C956.061 973.304 954.877 973.624 953.789 974.264C952.701 974.872 951.821 975.8 951.149 977.048C950.477 978.264 950.141 979.8 950.141 981.656V995H946.301Z" fill="black"/>
<path d="M984.156 995.576C982.14 995.576 980.332 995.128 978.732 994.232C977.164 993.304 975.916 991.944 974.988 990.152C974.092 988.36 973.644 986.184 973.644 983.624V981.896C973.644 979.336 974.092 977.176 974.988 975.416C975.916 973.624 977.164 972.28 978.732 971.384C980.332 970.456 982.14 969.992 984.156 969.992H984.444C986.3 969.992 987.9 970.392 989.244 971.192C990.588 971.96 991.644 973 992.412 974.312V959.96H996.252V995H992.748V990.776C992.012 992.216 990.94 993.384 989.532 994.28C988.156 995.144 986.46 995.576 984.444 995.576H984.156ZM984.78 992.264H985.212C986.556 992.264 987.772 991.96 988.86 991.352C989.948 990.744 990.812 989.8 991.452 988.52C992.092 987.24 992.412 985.576 992.412 983.528V982.04C992.412 979.992 992.076 978.328 991.404 977.048C990.764 975.768 989.9 974.824 988.812 974.216C987.724 973.608 986.524 973.304 985.212 973.304H984.78C982.7 973.304 980.956 974.008 979.548 975.416C978.172 976.792 977.484 978.952 977.484 981.896V983.624C977.484 986.568 978.172 988.744 979.548 990.152C980.956 991.56 982.7 992.264 984.78 992.264Z" fill="black"/>
<path d="M1010.25 995.576C1007.62 995.576 1005.61 994.952 1004.2 993.704C1002.79 992.456 1002.09 990.664 1002.09 988.328C1002.09 986.408 1002.68 984.84 1003.86 983.624C1005.08 982.376 1006.85 981.592 1009.19 981.272L1018.79 979.976V979.784C1018.79 975.4 1016.84 973.208 1012.93 973.208H1012.41C1009.33 973.208 1007.24 974.392 1006.12 976.76L1003.05 975.272C1003.78 973.608 1004.95 972.312 1006.55 971.384C1008.18 970.456 1010.13 969.992 1012.41 969.992H1013.13C1016.23 969.992 1018.58 970.808 1020.18 972.44C1021.81 974.072 1022.63 976.44 1022.63 979.544V995H1019.13V990.632C1018.39 992.168 1017.27 993.384 1015.77 994.28C1014.26 995.144 1012.57 995.576 1010.68 995.576H1010.25ZM1018.79 982.904L1010.82 984.056C1008.97 984.312 1007.67 984.744 1006.93 985.352C1006.2 985.96 1005.83 986.888 1005.83 988.136C1005.83 989.512 1006.26 990.568 1007.13 991.304C1008.02 992.04 1009.3 992.408 1010.97 992.408H1011.45C1013.65 992.408 1015.43 991.704 1016.77 990.296C1018.12 988.888 1018.79 987.016 1018.79 984.68V982.904Z" fill="black"/>
<path d="M1029.97 995V970.568H1033.48V975.704C1034.05 974.104 1034.92 972.824 1036.07 971.864C1037.25 970.872 1038.96 970.376 1041.2 970.376H1043.46V973.88H1041.01C1038.93 973.88 1037.2 974.6 1035.83 976.04C1034.48 977.448 1033.81 979.624 1033.81 982.568V995H1029.97Z" fill="black"/>
<path d="M1056.86 995.576C1054.84 995.576 1053.04 995.128 1051.44 994.232C1049.87 993.304 1048.62 991.944 1047.69 990.152C1046.8 988.36 1046.35 986.184 1046.35 983.624V981.896C1046.35 979.336 1046.8 977.176 1047.69 975.416C1048.62 973.624 1049.87 972.28 1051.44 971.384C1053.04 970.456 1054.84 969.992 1056.86 969.992H1057.15C1059 969.992 1060.6 970.392 1061.95 971.192C1063.29 971.96 1064.35 973 1065.12 974.312V959.96H1068.96V995H1065.45V990.776C1064.72 992.216 1063.64 993.384 1062.24 994.28C1060.86 995.144 1059.16 995.576 1057.15 995.576H1056.86ZM1057.48 992.264H1057.92C1059.26 992.264 1060.48 991.96 1061.56 991.352C1062.65 990.744 1063.52 989.8 1064.16 988.52C1064.8 987.24 1065.12 985.576 1065.12 983.528V982.04C1065.12 979.992 1064.78 978.328 1064.11 977.048C1063.47 975.768 1062.6 974.824 1061.52 974.216C1060.43 973.608 1059.23 973.304 1057.92 973.304H1057.48C1055.4 973.304 1053.66 974.008 1052.25 975.416C1050.88 976.792 1050.19 978.952 1050.19 981.896V983.624C1050.19 986.568 1050.88 988.744 1052.25 990.152C1053.66 991.56 1055.4 992.264 1057.48 992.264Z" fill="black"/>
<rect x="1138" y="954" width="48" height="48" fill="#337A00"/>
<path d="M1218.63 995.576C1213.99 995.576 1210.42 994.152 1207.92 991.304C1205.46 988.424 1204.23 984.408 1204.23 979.256V977.096C1204.23 973.768 1204.8 970.888 1205.96 968.456C1207.11 965.992 1208.76 964.104 1210.9 962.792C1213.08 961.448 1215.65 960.776 1218.63 960.776H1219.25C1222.29 960.776 1224.85 961.48 1226.93 962.888C1229.01 964.296 1230.48 966.296 1231.35 968.888L1227.7 970.136C1227.09 968.248 1226.05 966.808 1224.58 965.816C1223.11 964.824 1221.33 964.328 1219.25 964.328H1218.68C1215.38 964.328 1212.8 965.432 1210.95 967.64C1209.12 969.848 1208.21 972.968 1208.21 977V979.352C1208.21 983.512 1209.11 986.68 1210.9 988.856C1212.69 991 1215.28 992.072 1218.68 992.072H1219.25C1221.4 992.072 1223.22 991.608 1224.72 990.68C1226.26 989.72 1227.33 988.328 1227.94 986.504L1231.49 987.896C1230.6 990.328 1229.08 992.216 1226.93 993.56C1224.82 994.904 1222.26 995.576 1219.25 995.576H1218.63Z" fill="black"/>
<path d="M1263.4 961.4V981.848C1263.4 986.168 1262.3 989.544 1260.09 991.976C1257.88 994.376 1254.71 995.576 1250.58 995.576H1249.96C1245.83 995.576 1242.66 994.376 1240.46 991.976C1238.25 989.544 1237.14 986.168 1237.14 981.848V961.4H1241.13V981.944C1241.13 985.272 1241.88 987.8 1243.38 989.528C1244.89 991.224 1247.1 992.072 1250.01 992.072H1250.54C1253.45 992.072 1255.66 991.224 1257.16 989.528C1258.66 987.8 1259.42 985.272 1259.42 981.944V961.4H1263.4Z" fill="black"/>
<path d="M1271.48 995V961.4H1283.72C1288.59 961.4 1292.33 962.792 1294.95 965.576C1297.61 968.36 1298.94 972.2 1298.94 977.096V979.256C1298.94 984.184 1297.61 988.04 1294.95 990.824C1292.33 993.608 1288.59 995 1283.72 995H1271.48ZM1275.47 991.544H1283.67C1287.29 991.544 1290.07 990.504 1292.03 988.424C1293.98 986.344 1294.95 983.32 1294.95 979.352V977C1294.95 973.032 1293.98 970.024 1292.03 967.976C1290.07 965.896 1287.29 964.856 1283.67 964.856H1275.47V991.544Z" fill="black"/>
<path d="M1301.49 995L1314.97 961.4H1318.43L1331.97 995H1327.69L1324.48 986.696H1308.78L1305.57 995H1301.49ZM1310.08 983.336H1323.13L1316.61 966.488L1310.08 983.336Z" fill="black"/>
<path d="M1334.27 982.712V979.112H1348.05V982.712H1334.27Z" fill="black"/>
<path d="M1367.51 995.576C1364.4 995.576 1361.75 994.904 1359.54 993.56C1357.36 992.184 1355.7 990.28 1354.55 987.848C1353.4 985.384 1352.82 982.52 1352.82 979.256V977.144C1352.82 973.88 1353.4 971.032 1354.55 968.6C1355.7 966.136 1357.36 964.216 1359.54 962.84C1361.75 961.464 1364.4 960.776 1367.51 960.776H1368.08C1371.19 960.776 1373.83 961.464 1376 962.84C1378.21 964.216 1379.89 966.136 1381.04 968.6C1382.2 971.032 1382.77 973.88 1382.77 977.144V979.256C1382.77 984.536 1381.33 988.648 1378.45 991.592L1382.68 996.2L1380.18 998.504L1375.76 993.704C1373.56 994.952 1371 995.576 1368.08 995.576H1367.51ZM1367.51 992.072H1368.08C1370 992.072 1371.72 991.688 1373.22 990.92L1368.08 985.352L1370.58 983L1375.91 988.808C1377.83 986.536 1378.79 983.384 1378.79 979.352V977C1378.79 973.064 1377.86 969.976 1376 967.736C1374.15 965.464 1371.51 964.328 1368.08 964.328H1367.51C1364.12 964.328 1361.48 965.464 1359.59 967.736C1357.73 969.976 1356.8 973.064 1356.8 977V979.352C1356.8 983.288 1357.73 986.392 1359.59 988.664C1361.48 990.936 1364.12 992.072 1367.51 992.072Z" fill="black"/>
<path d="M1415.84 995.576C1412.73 995.576 1410.08 994.904 1407.87 993.56C1405.69 992.184 1404.03 990.28 1402.88 987.848C1401.72 985.384 1401.15 982.52 1401.15 979.256V977.144C1401.15 973.88 1401.72 971.032 1402.88 968.6C1404.03 966.136 1405.69 964.216 1407.87 962.84C1410.08 961.464 1412.73 960.776 1415.84 960.776H1416.41C1419.52 960.776 1422.16 961.464 1424.33 962.84C1426.54 964.216 1428.22 966.136 1429.37 968.6C1430.52 971.032 1431.1 973.88 1431.1 977.144V979.256C1431.1 984.536 1429.66 988.648 1426.78 991.592L1431 996.2L1428.51 998.504L1424.09 993.704C1421.88 994.952 1419.32 995.576 1416.41 995.576H1415.84ZM1415.84 992.072H1416.41C1418.33 992.072 1420.04 991.688 1421.55 990.92L1416.41 985.352L1418.91 983L1424.24 988.808C1426.16 986.536 1427.12 983.384 1427.12 979.352V977C1427.12 973.064 1426.19 969.976 1424.33 967.736C1422.48 965.464 1419.84 964.328 1416.41 964.328H1415.84C1412.44 964.328 1409.8 965.464 1407.92 967.736C1406.06 969.976 1405.13 973.064 1405.13 977V979.352C1405.13 983.288 1406.06 986.392 1407.92 988.664C1409.8 990.936 1412.44 992.072 1415.84 992.072Z" fill="black"/>
<path d="M1438.64 995V961.4H1459.47V964.808H1442.62V976.28H1456.3L1455.87 979.64H1442.62V991.592H1459.66V995H1438.64Z" fill="black"/>
<path d="M1478.78 995.576C1474.14 995.576 1470.58 994.152 1468.08 991.304C1465.62 988.424 1464.38 984.408 1464.38 979.256V977.096C1464.38 973.768 1464.96 970.888 1466.11 968.456C1467.26 965.992 1468.91 964.104 1471.06 962.792C1473.23 961.448 1475.81 960.776 1478.78 960.776H1479.41C1482.45 960.776 1485.01 961.48 1487.09 962.888C1489.17 964.296 1490.64 966.296 1491.5 968.888L1487.86 970.136C1487.25 968.248 1486.21 966.808 1484.74 965.816C1483.26 964.824 1481.49 964.328 1479.41 964.328H1478.83C1475.54 964.328 1472.96 965.432 1471.1 967.64C1469.28 969.848 1468.37 972.968 1468.37 977V979.352C1468.37 983.512 1469.26 986.68 1471.06 988.856C1472.85 991 1475.44 992.072 1478.83 992.072H1479.41C1481.55 992.072 1483.38 991.608 1484.88 990.68C1486.42 989.72 1487.49 988.328 1488.1 986.504L1491.65 987.896C1490.75 990.328 1489.23 992.216 1487.09 993.56C1484.98 994.904 1482.42 995.576 1479.41 995.576H1478.78Z" fill="black"/>
<path d="M145 692.7H117.448V702.78H111.4L111.4 675.612H117.448L117.448 685.692H145V692.7Z" fill="black"/>
<path d="M145 669.864L120.232 669.865V663.145L145 663.144V669.864ZM116.728 669.96H110.008L110.008 663.048H116.728V669.96Z" fill="black"/>
<path d="M145 656.927L120.232 656.927V651.071H123.256C122.072 650.271 121.16 649.263 120.52 648.047C119.88 646.831 119.56 645.455 119.56 643.919V643.439C119.56 639.983 120.904 637.503 123.592 635.999C122.312 635.167 121.32 634.111 120.616 632.831C119.912 631.519 119.56 630.031 119.56 628.367V627.887C119.56 625.199 120.44 623.071 122.2 621.503C123.928 619.903 126.408 619.103 129.64 619.103H145V625.823H130.552C128.888 625.823 127.608 626.143 126.712 626.783C125.784 627.391 125.32 628.367 125.32 629.711V630.095C125.32 631.183 125.8 632.223 126.76 633.215C127.688 634.175 129.192 634.655 131.272 634.655H145V641.375L130.552 641.375C128.888 641.375 127.608 641.695 126.712 642.335C125.784 642.943 125.32 643.919 125.32 645.263V645.647C125.32 646.735 125.8 647.775 126.76 648.767C127.688 649.727 129.192 650.207 131.272 650.207L145 650.207V656.927Z" fill="black"/>
<path d="M145.672 602.538C145.672 606.314 144.6 609.242 142.456 611.322C140.312 613.402 137.288 614.442 133.384 614.442H131.944C128.04 614.442 125 613.386 122.824 611.274C120.648 609.162 119.56 606.25 119.56 602.538V602.154C119.56 598.634 120.632 595.898 122.776 593.946C124.888 591.962 127.816 590.97 131.56 590.97H134.584L134.584 607.818C138.392 607.594 140.296 605.834 140.296 602.538V601.866C140.296 599.338 139.448 597.562 137.752 596.538L140.968 591.69C142.44 592.586 143.592 593.93 144.424 595.722C145.256 597.482 145.672 599.514 145.672 601.818V602.538ZM130.072 607.77V597.498H129.928C126.6 597.498 124.936 599.05 124.936 602.154V602.538C124.936 605.61 126.648 607.354 130.072 607.77Z" fill="black"/>
<path d="M151.24 567.807C144.808 572.095 138.056 574.239 130.984 574.239H128.2C124.712 574.239 121.288 573.695 117.928 572.607C114.536 571.519 111.24 569.919 108.04 567.807L108.04 561.184C111.24 563.136 114.552 564.623 117.976 565.647C121.4 566.671 124.808 567.183 128.2 567.183H130.984C134.376 567.183 137.816 566.671 141.304 565.647C144.76 564.623 148.072 563.135 151.24 561.183V567.807Z" fill="black"/>
<path d="M145 556.661L120.232 556.661L120.232 549.941L145 549.941V556.661ZM116.728 556.757H110.008L110.008 549.845H116.728L116.728 556.757Z" fill="black"/>
<path d="M145 543.724L120.232 543.724V537.868H123.304C122.12 537.036 121.208 535.98 120.568 534.7C119.896 533.388 119.56 531.932 119.56 530.332V529.852C119.56 527.036 120.44 524.812 122.2 523.18C123.928 521.516 126.408 520.684 129.64 520.684H145V527.404H130.552C128.888 527.404 127.608 527.756 126.712 528.46C125.784 529.132 125.32 530.204 125.32 531.676V532.06C125.32 532.86 125.528 533.644 125.944 534.412C126.36 535.148 127 535.772 127.864 536.284C128.728 536.764 129.864 537.004 131.272 537.004L145 537.004L145 543.724Z" fill="black"/>
<path d="M145 502.755L120.232 502.755V496.899H123.256C122.072 496.099 121.16 495.091 120.52 493.875C119.88 492.659 119.56 491.283 119.56 489.747V489.267C119.56 485.811 120.904 483.331 123.592 481.827C122.312 480.995 121.32 479.939 120.616 478.659C119.912 477.347 119.56 475.859 119.56 474.195V473.715C119.56 471.027 120.44 468.899 122.2 467.331C123.928 465.731 126.408 464.931 129.64 464.931H145V471.651H130.552C128.888 471.651 127.608 471.971 126.712 472.611C125.784 473.219 125.32 474.195 125.32 475.539V475.923C125.32 477.011 125.8 478.051 126.76 479.043C127.688 480.003 129.192 480.483 131.272 480.483H145V487.203L130.552 487.203C128.888 487.203 127.608 487.523 126.712 488.163C125.784 488.771 125.32 489.747 125.32 491.091V491.475C125.32 492.563 125.8 493.603 126.76 494.595C127.688 495.555 129.192 496.035 131.272 496.035L145 496.035V502.755Z" fill="black"/>
<path d="M145 458.974H120.232V452.254H145L145 458.974ZM116.728 459.07L110.008 459.07L110.008 452.158H116.728V459.07Z" fill="black"/>
<path d="M145 446.036H109.96L109.96 439.316H145V446.036Z" fill="black"/>
<path d="M145 433.099H109.96L109.96 426.379H145V433.099Z" fill="black"/>
<path d="M145 420.161H120.232V413.441H145V420.161ZM116.728 420.257L110.008 420.257L110.008 413.345H116.728V420.257Z" fill="black"/>
<path d="M145.672 398.008C145.672 403.768 143.784 407.4 140.008 408.904L137.368 403.672C138.328 403.224 139.048 402.552 139.528 401.656C139.976 400.76 140.2 399.528 140.2 397.96V397.336C140.2 394.584 139.48 393.208 138.04 393.208H137.848C136.632 393.208 135.912 394.008 135.688 395.608L135.016 400.6C134.664 403.032 133.88 404.904 132.664 406.216C131.416 407.496 129.752 408.136 127.672 408.136H127.192C124.824 408.136 122.968 407.24 121.624 405.448C120.248 403.624 119.56 401.208 119.56 398.2V397.48C119.56 394.984 120.056 392.872 121.048 391.144C122.008 389.416 123.384 388.168 125.176 387.4L127.528 392.728C125.864 393.496 125.032 395.096 125.032 397.528V398.152C125.032 400.488 125.72 401.656 127.096 401.656H127.288C127.8 401.656 128.216 401.48 128.536 401.128C128.824 400.776 129.032 400.2 129.16 399.4L129.88 394.216C130.2 391.816 131.048 389.976 132.424 388.696C133.768 387.384 135.48 386.728 137.56 386.728H138.04C140.568 386.728 142.472 387.624 143.752 389.416C145.032 391.208 145.672 393.832 145.672 397.288V398.008Z" fill="black"/>
<path d="M145.672 371.725C145.672 375.501 144.6 378.429 142.456 380.509C140.312 382.589 137.288 383.629 133.384 383.629H131.944C128.04 383.629 125 382.573 122.824 380.461C120.648 378.349 119.56 375.437 119.56 371.725V371.341C119.56 367.821 120.632 365.085 122.776 363.133C124.888 361.149 127.816 360.157 131.56 360.157H134.584V377.005C138.392 376.781 140.296 375.021 140.296 371.725V371.053C140.296 368.525 139.448 366.749 137.752 365.725L140.968 360.877C142.44 361.773 143.592 363.117 144.424 364.909C145.256 366.669 145.672 368.701 145.672 371.005V371.725ZM130.072 376.957V366.685H129.928C126.6 366.685 124.936 368.237 124.936 371.341V371.725C124.936 374.797 126.648 376.541 130.072 376.957Z" fill="black"/>
<path d="M145.672 344.579C145.672 348.291 144.616 351.251 142.504 353.459C140.392 355.635 137.336 356.723 133.336 356.723H131.896C129.272 356.723 127.048 356.227 125.224 355.235C123.368 354.211 121.96 352.787 121 350.963C120.04 349.139 119.56 347.011 119.56 344.579V344.195C119.56 341.795 120.136 339.779 121.288 338.147C122.44 336.483 123.96 335.299 125.848 334.595L128.152 340.019C127.32 340.403 126.648 340.947 126.136 341.651C125.592 342.323 125.32 343.171 125.32 344.195V344.531C125.32 346.163 125.848 347.491 126.904 348.515C127.928 349.507 129.544 350.003 131.752 350.003H133.48C135.752 350.003 137.4 349.523 138.424 348.563C139.416 347.571 139.912 346.227 139.912 344.531V344.195C139.912 343.075 139.672 342.147 139.192 341.411C138.712 340.675 138.056 340.099 137.224 339.683L139.96 334.451C141.592 335.155 142.952 336.355 144.04 338.051C145.128 339.747 145.672 341.795 145.672 344.195V344.579Z" fill="black"/>
<path d="M145.672 319.174C145.672 321.478 145.192 323.542 144.232 325.366C143.272 327.19 141.88 328.63 140.056 329.686C138.2 330.742 135.96 331.27 133.336 331.27H131.896C129.24 331.27 127 330.742 125.176 329.686C123.352 328.63 121.96 327.19 121 325.366C120.04 323.542 119.56 321.478 119.56 319.174V318.838C119.56 316.534 120.04 314.47 121 312.646C121.96 310.822 123.352 309.382 125.176 308.326C127 307.27 129.24 306.742 131.896 306.742H133.336C135.96 306.742 138.2 307.27 140.056 308.326C141.88 309.382 143.272 310.822 144.232 312.646C145.192 314.47 145.672 316.534 145.672 318.838V319.174ZM139.912 319.174V318.838C139.912 317.27 139.4 315.99 138.376 314.998C137.352 313.974 135.72 313.462 133.48 313.462H131.752C129.512 313.462 127.88 313.974 126.856 314.998C125.832 315.99 125.32 317.27 125.32 318.838V319.174C125.32 320.742 125.832 322.038 126.856 323.062C127.88 324.054 129.512 324.55 131.752 324.55H133.48C135.72 324.55 137.352 324.054 138.376 323.062C139.4 322.038 139.912 320.742 139.912 319.174Z" fill="black"/>
<path d="M145 301.802H120.232V295.946H123.304C122.12 295.114 121.208 294.058 120.568 292.778C119.896 291.466 119.56 290.01 119.56 288.41V287.93C119.56 285.114 120.44 282.89 122.2 281.258C123.928 279.594 126.408 278.762 129.64 278.762H145L145 285.482H130.552C128.888 285.482 127.608 285.834 126.712 286.538C125.784 287.21 125.32 288.282 125.32 289.754V290.138C125.32 290.938 125.528 291.722 125.944 292.49C126.36 293.226 127 293.85 127.864 294.362C128.728 294.842 129.864 295.082 131.272 295.082H145V301.802Z" fill="black"/>
<path d="M145.672 263.809C145.672 265.793 145.208 267.569 144.28 269.137C143.32 270.705 141.912 271.937 140.056 272.833C138.2 273.697 135.944 274.129 133.288 274.129H131.848C129.192 274.129 126.952 273.697 125.128 272.833C123.304 271.937 121.928 270.705 121 269.137C120.04 267.569 119.56 265.793 119.56 263.809V263.473C119.56 260.497 120.552 258.177 122.536 256.513H109.96L109.96 249.793H145V255.649H141.928C144.424 257.345 145.672 259.953 145.672 263.473V263.809ZM139.912 262.033V261.649C139.912 260.785 139.704 259.953 139.288 259.153C138.84 258.353 138.136 257.697 137.176 257.185C136.216 256.673 134.952 256.417 133.384 256.417H131.848C130.28 256.417 129.016 256.689 128.056 257.233C127.096 257.745 126.408 258.401 125.992 259.201C125.544 260.001 125.32 260.817 125.32 261.649V262.033C125.32 263.569 125.832 264.849 126.856 265.873C127.88 266.897 129.528 267.409 131.8 267.409H133.384C135.656 267.409 137.32 266.897 138.376 265.873C139.4 264.849 139.912 263.569 139.912 262.033Z" fill="black"/>
<path d="M145.672 234.32C145.672 240.08 143.784 243.712 140.008 245.216L137.368 239.984C138.328 239.536 139.048 238.864 139.528 237.968C139.976 237.072 140.2 235.84 140.2 234.272V233.648C140.2 230.896 139.48 229.52 138.04 229.52H137.848C136.632 229.52 135.912 230.32 135.688 231.92L135.016 236.912C134.664 239.344 133.88 241.216 132.664 242.528C131.416 243.808 129.752 244.448 127.672 244.448H127.192C124.824 244.448 122.968 243.552 121.624 241.76C120.248 239.936 119.56 237.52 119.56 234.512V233.792C119.56 231.296 120.056 229.184 121.048 227.456C122.008 225.728 123.384 224.48 125.176 223.712L127.528 229.04C125.864 229.808 125.032 231.408 125.032 233.84V234.464C125.032 236.8 125.72 237.968 127.096 237.968H127.288C127.8 237.968 128.216 237.792 128.536 237.44C128.824 237.088 129.032 236.512 129.16 235.712L129.88 230.528C130.2 228.128 131.048 226.288 132.424 225.008C133.768 223.696 135.48 223.04 137.56 223.04H138.04C140.568 223.04 142.472 223.936 143.752 225.728C145.032 227.52 145.672 230.144 145.672 233.6V234.32Z" fill="black"/>
<path d="M151.24 221.286C148.072 219.334 144.76 217.846 141.304 216.822C137.816 215.798 134.376 215.286 130.984 215.286L128.2 215.286C124.808 215.286 121.4 215.798 117.976 216.822C114.552 217.814 111.24 219.302 108.04 221.286L108.04 214.662C111.24 212.55 114.536 210.95 117.928 209.862C121.288 208.774 124.712 208.23 128.2 208.23L130.984 208.23C138.056 208.23 144.808 210.374 151.24 214.662L151.24 221.286Z" fill="black"/>
<path d="M202.192 247.576C196.304 247.576 192.592 245.768 191.056 242.152L194.272 240.616C194.848 241.832 195.76 242.744 197.008 243.352C198.256 243.928 199.952 244.216 202.096 244.216H202.528C204.864 244.216 206.72 243.672 208.096 242.584C209.472 241.496 210.16 240.04 210.16 238.216V237.4C210.16 235.576 209.52 234.12 208.24 233.032C206.96 231.944 205.232 231.4 203.056 231.4H197.968V228.088H203.008C204.992 228.088 206.544 227.624 207.664 226.696C208.784 225.736 209.344 224.44 209.344 222.808V222.136C209.344 220.472 208.72 219.16 207.472 218.2C206.224 217.24 204.544 216.76 202.432 216.76H202.048C198.144 216.76 195.68 218.056 194.656 220.648L191.44 219.16C192.208 217.304 193.52 215.88 195.376 214.888C197.232 213.896 199.504 213.4 202.192 213.4H202.72C204.832 213.4 206.672 213.768 208.24 214.504C209.808 215.208 211.024 216.216 211.888 217.528C212.752 218.808 213.184 220.328 213.184 222.088V222.856C213.184 224.296 212.8 225.624 212.032 226.84C211.264 228.024 210.208 228.936 208.864 229.576C210.432 230.248 211.68 231.272 212.608 232.648C213.568 233.992 214.048 235.544 214.048 237.304V238.216C214.048 241.096 213.024 243.384 210.976 245.08C208.96 246.744 206.208 247.576 202.72 247.576H202.192Z" fill="black"/>
<path d="M231.213 247.576C228.493 247.576 226.173 247.08 224.253 246.088C222.333 245.064 221.005 243.624 220.269 241.768L223.485 240.232C224.605 242.888 227.149 244.216 231.117 244.216H231.549C233.917 244.216 235.789 243.624 237.165 242.44C238.573 241.224 239.277 239.624 239.277 237.64V236.776C239.277 234.696 238.541 233.048 237.069 231.832C235.597 230.584 233.581 229.96 231.021 229.96H230.637C228.045 229.96 225.725 230.616 223.677 231.928L221.421 230.824L222.189 213.976H241.341V217.432H225.453L225.069 228.088C226.957 227.128 229.117 226.648 231.549 226.648H232.029C234.269 226.648 236.221 227.064 237.885 227.896C239.549 228.728 240.845 229.896 241.773 231.4C242.701 232.904 243.165 234.664 243.165 236.68V237.64C243.165 240.68 242.141 243.096 240.093 244.888C238.045 246.68 235.277 247.576 231.789 247.576H231.213Z" fill="black"/>
<path d="M260.331 247.576C256.427 247.576 253.403 246.264 251.259 243.64C249.115 241.016 248.043 237.336 248.043 232.6V228.376C248.043 223.608 249.115 219.928 251.259 217.336C253.403 214.712 256.427 213.4 260.331 213.4H260.907C264.811 213.4 267.819 214.712 269.931 217.336C272.075 219.928 273.147 223.608 273.147 228.376V232.6C273.147 237.336 272.075 241.016 269.931 243.64C267.819 246.264 264.811 247.576 260.907 247.576H260.331ZM260.331 244.072H260.907C263.595 244.072 265.643 243.08 267.051 241.096C268.491 239.112 269.211 236.248 269.211 232.504V228.424C269.211 224.712 268.491 221.864 267.051 219.88C265.643 217.864 263.595 216.856 260.907 216.856H260.331C257.643 216.856 255.579 217.864 254.139 219.88C252.731 221.864 252.027 224.712 252.027 228.424V232.504C252.027 236.248 252.731 239.112 254.139 241.096C255.579 243.08 257.643 244.072 260.331 244.072Z" fill="black"/>
<path d="M202.192 311.576C196.304 311.576 192.592 309.768 191.056 306.152L194.272 304.616C194.848 305.832 195.76 306.744 197.008 307.352C198.256 307.928 199.952 308.216 202.096 308.216H202.528C204.864 308.216 206.72 307.672 208.096 306.584C209.472 305.496 210.16 304.04 210.16 302.216V301.4C210.16 299.576 209.52 298.12 208.24 297.032C206.96 295.944 205.232 295.4 203.056 295.4H197.968V292.088H203.008C204.992 292.088 206.544 291.624 207.664 290.696C208.784 289.736 209.344 288.44 209.344 286.808V286.136C209.344 284.472 208.72 283.16 207.472 282.2C206.224 281.24 204.544 280.76 202.432 280.76H202.048C198.144 280.76 195.68 282.056 194.656 284.648L191.44 283.16C192.208 281.304 193.52 279.88 195.376 278.888C197.232 277.896 199.504 277.4 202.192 277.4H202.72C204.832 277.4 206.672 277.768 208.24 278.504C209.808 279.208 211.024 280.216 211.888 281.528C212.752 282.808 213.184 284.328 213.184 286.088V286.856C213.184 288.296 212.8 289.624 212.032 290.84C211.264 292.024 210.208 292.936 208.864 293.576C210.432 294.248 211.68 295.272 212.608 296.648C213.568 297.992 214.048 299.544 214.048 301.304V302.216C214.048 305.096 213.024 307.384 210.976 309.08C208.96 310.744 206.208 311.576 202.72 311.576H202.192Z" fill="black"/>
<path d="M231.549 311.576C227.645 311.576 224.621 310.264 222.477 307.64C220.333 305.016 219.261 301.336 219.261 296.6V292.376C219.261 287.608 220.333 283.928 222.477 281.336C224.621 278.712 227.645 277.4 231.549 277.4H232.125C236.029 277.4 239.037 278.712 241.149 281.336C243.293 283.928 244.365 287.608 244.365 292.376V296.6C244.365 301.336 243.293 305.016 241.149 307.64C239.037 310.264 236.029 311.576 232.125 311.576H231.549ZM231.549 308.072H232.125C234.813 308.072 236.861 307.08 238.269 305.096C239.709 303.112 240.429 300.248 240.429 296.504V292.424C240.429 288.712 239.709 285.864 238.269 283.88C236.861 281.864 234.813 280.856 232.125 280.856H231.549C228.861 280.856 226.797 281.864 225.357 283.88C223.949 285.864 223.245 288.712 223.245 292.424V296.504C223.245 300.248 223.949 303.112 225.357 305.096C226.797 307.08 228.861 308.072 231.549 308.072Z" fill="black"/>
<path d="M260.331 311.576C256.427 311.576 253.403 310.264 251.259 307.64C249.115 305.016 248.043 301.336 248.043 296.6V292.376C248.043 287.608 249.115 283.928 251.259 281.336C253.403 278.712 256.427 277.4 260.331 277.4H260.907C264.811 277.4 267.819 278.712 269.931 281.336C272.075 283.928 273.147 287.608 273.147 292.376V296.6C273.147 301.336 272.075 305.016 269.931 307.64C267.819 310.264 264.811 311.576 260.907 311.576H260.331ZM260.331 308.072H260.907C263.595 308.072 265.643 307.08 267.051 305.096C268.491 303.112 269.211 300.248 269.211 296.504V292.424C269.211 288.712 268.491 285.864 267.051 283.88C265.643 281.864 263.595 280.856 260.907 280.856H260.331C257.643 280.856 255.579 281.864 254.139 283.88C252.731 285.864 252.027 288.712 252.027 292.424V296.504C252.027 300.248 252.731 303.112 254.139 305.096C255.579 307.08 257.643 308.072 260.331 308.072Z" fill="black"/>
<path d="M192.064 375V370.968C192.064 366.2 194.192 362.712 198.448 360.504L204.88 357.144C208.112 355.48 209.728 353.32 209.728 350.664V349.992C209.728 348.424 209.136 347.16 207.952 346.2C206.768 345.24 205.216 344.76 203.296 344.76H202.912C200.96 344.76 199.392 345.128 198.208 345.864C197.024 346.6 196.112 347.768 195.472 349.368L192.16 347.928C193.824 343.576 197.408 341.4 202.912 341.4H203.44C205.488 341.4 207.264 341.752 208.768 342.456C210.304 343.16 211.488 344.152 212.32 345.432C213.184 346.68 213.616 348.168 213.616 349.896V350.712C213.616 352.824 213.072 354.616 211.984 356.088C210.928 357.56 209.12 358.952 206.56 360.264L200.32 363.48C198.848 364.216 197.776 365.224 197.104 366.504C196.432 367.784 196.096 369.384 196.096 371.304V371.544H213.808V375H192.064Z" fill="black"/>
<path d="M231.213 375.576C228.493 375.576 226.173 375.08 224.253 374.088C222.333 373.064 221.005 371.624 220.269 369.768L223.485 368.232C224.605 370.888 227.149 372.216 231.117 372.216H231.549C233.917 372.216 235.789 371.624 237.165 370.44C238.573 369.224 239.277 367.624 239.277 365.64V364.776C239.277 362.696 238.541 361.048 237.069 359.832C235.597 358.584 233.581 357.96 231.021 357.96H230.637C228.045 357.96 225.725 358.616 223.677 359.928L221.421 358.824L222.189 341.976H241.341V345.432H225.453L225.069 356.088C226.957 355.128 229.117 354.648 231.549 354.648H232.029C234.269 354.648 236.221 355.064 237.885 355.896C239.549 356.728 240.845 357.896 241.773 359.4C242.701 360.904 243.165 362.664 243.165 364.68V365.64C243.165 368.68 242.141 371.096 240.093 372.888C238.045 374.68 235.277 375.576 231.789 375.576H231.213Z" fill="black"/>
<path d="M260.331 375.576C256.427 375.576 253.403 374.264 251.259 371.64C249.115 369.016 248.043 365.336 248.043 360.6V356.376C248.043 351.608 249.115 347.928 251.259 345.336C253.403 342.712 256.427 341.4 260.331 341.4H260.907C264.811 341.4 267.819 342.712 269.931 345.336C272.075 347.928 273.147 351.608 273.147 356.376V360.6C273.147 365.336 272.075 369.016 269.931 371.64C267.819 374.264 264.811 375.576 260.907 375.576H260.331ZM260.331 372.072H260.907C263.595 372.072 265.643 371.08 267.051 369.096C268.491 367.112 269.211 364.248 269.211 360.504V356.424C269.211 352.712 268.491 349.864 267.051 347.88C265.643 345.864 263.595 344.856 260.907 344.856H260.331C257.643 344.856 255.579 345.864 254.139 347.88C252.731 349.864 252.027 352.712 252.027 356.424V360.504C252.027 364.248 252.731 367.112 254.139 369.096C255.579 371.08 257.643 372.072 260.331 372.072Z" fill="black"/>
<path d="M192.064 439V434.968C192.064 430.2 194.192 426.712 198.448 424.504L204.88 421.144C208.112 419.48 209.728 417.32 209.728 414.664V413.992C209.728 412.424 209.136 411.16 207.952 410.2C206.768 409.24 205.216 408.76 203.296 408.76H202.912C200.96 408.76 199.392 409.128 198.208 409.864C197.024 410.6 196.112 411.768 195.472 413.368L192.16 411.928C193.824 407.576 197.408 405.4 202.912 405.4H203.44C205.488 405.4 207.264 405.752 208.768 406.456C210.304 407.16 211.488 408.152 212.32 409.432C213.184 410.68 213.616 412.168 213.616 413.896V414.712C213.616 416.824 213.072 418.616 211.984 420.088C210.928 421.56 209.12 422.952 206.56 424.264L200.32 427.48C198.848 428.216 197.776 429.224 197.104 430.504C196.432 431.784 196.096 433.384 196.096 435.304V435.544H213.808V439H192.064Z" fill="black"/>
<path d="M231.549 439.576C227.645 439.576 224.621 438.264 222.477 435.64C220.333 433.016 219.261 429.336 219.261 424.6V420.376C219.261 415.608 220.333 411.928 222.477 409.336C224.621 406.712 227.645 405.4 231.549 405.4H232.125C236.029 405.4 239.037 406.712 241.149 409.336C243.293 411.928 244.365 415.608 244.365 420.376V424.6C244.365 429.336 243.293 433.016 241.149 435.64C239.037 438.264 236.029 439.576 232.125 439.576H231.549ZM231.549 436.072H232.125C234.813 436.072 236.861 435.08 238.269 433.096C239.709 431.112 240.429 428.248 240.429 424.504V420.424C240.429 416.712 239.709 413.864 238.269 411.88C236.861 409.864 234.813 408.856 232.125 408.856H231.549C228.861 408.856 226.797 409.864 225.357 411.88C223.949 413.864 223.245 416.712 223.245 420.424V424.504C223.245 428.248 223.949 431.112 225.357 433.096C226.797 435.08 228.861 436.072 231.549 436.072Z" fill="black"/>
<path d="M260.331 439.576C256.427 439.576 253.403 438.264 251.259 435.64C249.115 433.016 248.043 429.336 248.043 424.6V420.376C248.043 415.608 249.115 411.928 251.259 409.336C253.403 406.712 256.427 405.4 260.331 405.4H260.907C264.811 405.4 267.819 406.712 269.931 409.336C272.075 411.928 273.147 415.608 273.147 420.376V424.6C273.147 429.336 272.075 433.016 269.931 435.64C267.819 438.264 264.811 439.576 260.907 439.576H260.331ZM260.331 436.072H260.907C263.595 436.072 265.643 435.08 267.051 433.096C268.491 431.112 269.211 428.248 269.211 424.504V420.424C269.211 416.712 268.491 413.864 267.051 411.88C265.643 409.864 263.595 408.856 260.907 408.856H260.331C257.643 408.856 255.579 409.864 254.139 411.88C252.731 413.864 252.027 416.712 252.027 420.424V424.504C252.027 428.248 252.731 431.112 254.139 433.096C255.579 435.08 257.643 436.072 260.331 436.072Z" fill="black"/>
<path d="M202.528 503V473.336H197.2L197.68 469.976H206.464V503H202.528Z" fill="black"/>
<path d="M231.213 503.576C228.493 503.576 226.173 503.08 224.253 502.088C222.333 501.064 221.005 499.624 220.269 497.768L223.485 496.232C224.605 498.888 227.149 500.216 231.117 500.216H231.549C233.917 500.216 235.789 499.624 237.165 498.44C238.573 497.224 239.277 495.624 239.277 493.64V492.776C239.277 490.696 238.541 489.048 237.069 487.832C235.597 486.584 233.581 485.96 231.021 485.96H230.637C228.045 485.96 225.725 486.616 223.677 487.928L221.421 486.824L222.189 469.976H241.341V473.432H225.453L225.069 484.088C226.957 483.128 229.117 482.648 231.549 482.648H232.029C234.269 482.648 236.221 483.064 237.885 483.896C239.549 484.728 240.845 485.896 241.773 487.4C242.701 488.904 243.165 490.664 243.165 492.68V493.64C243.165 496.68 242.141 499.096 240.093 500.888C238.045 502.68 235.277 503.576 231.789 503.576H231.213Z" fill="black"/>
<path d="M260.331 503.576C256.427 503.576 253.403 502.264 251.259 499.64C249.115 497.016 248.043 493.336 248.043 488.6V484.376C248.043 479.608 249.115 475.928 251.259 473.336C253.403 470.712 256.427 469.4 260.331 469.4H260.907C264.811 469.4 267.819 470.712 269.931 473.336C272.075 475.928 273.147 479.608 273.147 484.376V488.6C273.147 493.336 272.075 497.016 269.931 499.64C267.819 502.264 264.811 503.576 260.907 503.576H260.331ZM260.331 500.072H260.907C263.595 500.072 265.643 499.08 267.051 497.096C268.491 495.112 269.211 492.248 269.211 488.504V484.424C269.211 480.712 268.491 477.864 267.051 475.88C265.643 473.864 263.595 472.856 260.907 472.856H260.331C257.643 472.856 255.579 473.864 254.139 475.88C252.731 477.864 252.027 480.712 252.027 484.424V488.504C252.027 492.248 252.731 495.112 254.139 497.096C255.579 499.08 257.643 500.072 260.331 500.072Z" fill="black"/>
<path d="M202.528 567V537.336H197.2L197.68 533.976H206.464V567H202.528Z" fill="black"/>
<path d="M231.549 567.576C227.645 567.576 224.621 566.264 222.477 563.64C220.333 561.016 219.261 557.336 219.261 552.6V548.376C219.261 543.608 220.333 539.928 222.477 537.336C224.621 534.712 227.645 533.4 231.549 533.4H232.125C236.029 533.4 239.037 534.712 241.149 537.336C243.293 539.928 244.365 543.608 244.365 548.376V552.6C244.365 557.336 243.293 561.016 241.149 563.64C239.037 566.264 236.029 567.576 232.125 567.576H231.549ZM231.549 564.072H232.125C234.813 564.072 236.861 563.08 238.269 561.096C239.709 559.112 240.429 556.248 240.429 552.504V548.424C240.429 544.712 239.709 541.864 238.269 539.88C236.861 537.864 234.813 536.856 232.125 536.856H231.549C228.861 536.856 226.797 537.864 225.357 539.88C223.949 541.864 223.245 544.712 223.245 548.424V552.504C223.245 556.248 223.949 559.112 225.357 561.096C226.797 563.08 228.861 564.072 231.549 564.072Z" fill="black"/>
<path d="M260.331 567.576C256.427 567.576 253.403 566.264 251.259 563.64C249.115 561.016 248.043 557.336 248.043 552.6V548.376C248.043 543.608 249.115 539.928 251.259 537.336C253.403 534.712 256.427 533.4 260.331 533.4H260.907C264.811 533.4 267.819 534.712 269.931 537.336C272.075 539.928 273.147 543.608 273.147 548.376V552.6C273.147 557.336 272.075 561.016 269.931 563.64C267.819 566.264 264.811 567.576 260.907 567.576H260.331ZM260.331 564.072H260.907C263.595 564.072 265.643 563.08 267.051 561.096C268.491 559.112 269.211 556.248 269.211 552.504V548.424C269.211 544.712 268.491 541.864 267.051 539.88C265.643 537.864 263.595 536.856 260.907 536.856H260.331C257.643 536.856 255.579 537.864 254.139 539.88C252.731 541.864 252.027 544.712 252.027 548.424V552.504C252.027 556.248 252.731 559.112 254.139 561.096C255.579 563.08 257.643 564.072 260.331 564.072Z" fill="black"/>
<path d="M231.213 631.576C228.493 631.576 226.173 631.08 224.253 630.088C222.333 629.064 221.005 627.624 220.269 625.768L223.485 624.232C224.605 626.888 227.149 628.216 231.117 628.216H231.549C233.917 628.216 235.789 627.624 237.165 626.44C238.573 625.224 239.277 623.624 239.277 621.64V620.776C239.277 618.696 238.541 617.048 237.069 615.832C235.597 614.584 233.581 613.96 231.021 613.96H230.637C228.045 613.96 225.725 614.616 223.677 615.928L221.421 614.824L222.189 597.976H241.341V601.432H225.453L225.069 612.088C226.957 611.128 229.117 610.648 231.549 610.648H232.029C234.269 610.648 236.221 611.064 237.885 611.896C239.549 612.728 240.845 613.896 241.773 615.4C242.701 616.904 243.165 618.664 243.165 620.68V621.64C243.165 624.68 242.141 627.096 240.093 628.888C238.045 630.68 235.277 631.576 231.789 631.576H231.213Z" fill="black"/>
<path d="M260.331 631.576C256.427 631.576 253.403 630.264 251.259 627.64C249.115 625.016 248.043 621.336 248.043 616.6V612.376C248.043 607.608 249.115 603.928 251.259 601.336C253.403 598.712 256.427 597.4 260.331 597.4H260.907C264.811 597.4 267.819 598.712 269.931 601.336C272.075 603.928 273.147 607.608 273.147 612.376V616.6C273.147 621.336 272.075 625.016 269.931 627.64C267.819 630.264 264.811 631.576 260.907 631.576H260.331ZM260.331 628.072H260.907C263.595 628.072 265.643 627.08 267.051 625.096C268.491 623.112 269.211 620.248 269.211 616.504V612.424C269.211 608.712 268.491 605.864 267.051 603.88C265.643 601.864 263.595 600.856 260.907 600.856H260.331C257.643 600.856 255.579 601.864 254.139 603.88C252.731 605.864 252.027 608.712 252.027 612.424V616.504C252.027 620.248 252.731 623.112 254.139 625.096C255.579 627.08 257.643 628.072 260.331 628.072Z" fill="black"/>
<path d="M260.331 695.576C256.427 695.576 253.403 694.264 251.259 691.64C249.115 689.016 248.043 685.336 248.043 680.6V676.376C248.043 671.608 249.115 667.928 251.259 665.336C253.403 662.712 256.427 661.4 260.331 661.4H260.907C264.811 661.4 267.819 662.712 269.931 665.336C272.075 667.928 273.147 671.608 273.147 676.376V680.6C273.147 685.336 272.075 689.016 269.931 691.64C267.819 694.264 264.811 695.576 260.907 695.576H260.331ZM260.331 692.072H260.907C263.595 692.072 265.643 691.08 267.051 689.096C268.491 687.112 269.211 684.248 269.211 680.504V676.424C269.211 672.712 268.491 669.864 267.051 667.88C265.643 665.864 263.595 664.856 260.907 664.856H260.331C257.643 664.856 255.579 665.864 254.139 667.88C252.731 669.864 252.027 672.712 252.027 676.424V680.504C252.027 684.248 252.731 687.112 254.139 689.096C255.579 691.08 257.643 692.072 260.331 692.072Z" fill="black"/>
<path d="M329 694H1769" stroke="#999999" stroke-width="3" stroke-miterlimit="10"/>
<path d="M700 660H524V693H700V660Z" fill="#CCCCCC"/>
<path d="M907 683H731V693H907V683Z" fill="#337A00"/>
<path d="M1366 271H1190V693H1366V271Z" fill="#CCCCCC"/>
<path d="M1573 679H1397V693H1573V679Z" fill="#337A00"/>
<path d="M1461.48 658.48C1456.36 658.48 1453.1 656.8 1451.72 653.44L1456.4 651.36C1457.04 652.853 1458.65 653.6 1461.24 653.6H1461.52C1462.98 653.6 1464.13 653.28 1464.96 652.64C1465.78 652 1466.2 651.133 1466.2 650.04V649.6C1466.2 648.507 1465.77 647.653 1464.92 647.04C1464.06 646.427 1462.88 646.12 1461.36 646.12H1457.64V641.4H1461.64C1464.22 641.4 1465.52 640.36 1465.52 638.28V637.88C1465.52 636.947 1465.16 636.213 1464.44 635.68C1463.72 635.147 1462.72 634.88 1461.44 634.88H1461.24C1458.84 634.88 1457.33 635.68 1456.72 637.28L1452.04 635.12C1453.42 631.707 1456.65 630 1461.72 630H1462.16C1463.94 630 1465.5 630.32 1466.84 630.96C1468.2 631.6 1469.25 632.493 1470 633.64C1470.77 634.787 1471.16 636.133 1471.16 637.68V638.2C1471.16 639.267 1470.92 640.267 1470.44 641.2C1469.98 642.107 1469.3 642.893 1468.4 643.56C1470.72 644.973 1471.88 646.96 1471.88 649.52V650.08C1471.88 652.72 1471.01 654.787 1469.28 656.28C1467.54 657.747 1465.12 658.48 1462 658.48H1461.48Z" fill="black"/>
<path d="M1485.86 658.48C1480.77 658.48 1477.51 656.707 1476.1 653.16L1480.78 651.08C1481.47 652.76 1483.06 653.6 1485.54 653.6H1485.82C1487.15 653.6 1488.25 653.24 1489.1 652.52C1489.98 651.8 1490.42 650.893 1490.42 649.8V649.32C1490.42 648.067 1489.97 647.053 1489.06 646.28C1488.15 645.48 1486.98 645.08 1485.54 645.08H1485.18C1483.53 645.08 1481.87 645.667 1480.22 646.84L1476.78 645.32L1477.46 630.48H1494.54V635.52H1482.18L1481.9 641.64C1482.51 641.24 1483.25 640.92 1484.1 640.68C1484.98 640.44 1485.9 640.32 1486.86 640.32H1487.3C1489.01 640.32 1490.51 640.707 1491.82 641.48C1493.15 642.227 1494.19 643.267 1494.94 644.6C1495.69 645.907 1496.06 647.413 1496.06 649.12V649.8C1496.06 651.533 1495.65 653.053 1494.82 654.36C1494.02 655.667 1492.89 656.68 1491.42 657.4C1489.98 658.12 1488.3 658.48 1486.38 658.48H1485.86Z" fill="black"/>
<path d="M1512.76 658L1508.84 651.6L1504.88 658H1498.56L1505.6 647.52L1498.8 637.36H1505.44L1509.16 643.44L1512.88 637.36H1519.17L1512.36 647.52L1519.4 658H1512.76Z" fill="black"/>
<path d="M786.556 662V657.76C786.556 655.84 787.023 654.107 787.956 652.56C788.89 651.013 790.21 649.787 791.916 648.88L796.596 646.36C798.73 645.24 799.796 643.867 799.796 642.24V641.84C799.796 640.987 799.45 640.28 798.756 639.72C798.063 639.16 797.183 638.88 796.116 638.88H795.916C794.663 638.88 793.663 639.12 792.916 639.6C792.196 640.08 791.663 640.84 791.316 641.88L786.516 639.76C787.823 635.92 790.97 634 795.956 634H796.396C799.17 634 801.37 634.693 802.996 636.08C804.623 637.467 805.436 639.333 805.436 641.68V642.32C805.436 644.133 804.97 645.68 804.036 646.96C803.13 648.213 801.57 649.44 799.356 650.64L795.236 652.88C793.636 653.76 792.783 655.12 792.676 656.96H805.516V662H786.556Z" fill="black"/>
<path d="M819.381 662.48C814.927 662.48 812.061 660.827 810.781 657.52L815.621 655.6C816.181 656.933 817.474 657.6 819.501 657.6H819.741C823.101 657.6 824.781 655.133 824.781 650.2V649.8C824.087 650.68 823.194 651.373 822.101 651.88C821.007 652.36 819.794 652.6 818.461 652.6H818.181C816.554 652.6 815.087 652.227 813.781 651.48C812.474 650.707 811.447 649.667 810.701 648.36C809.954 647.027 809.581 645.52 809.581 643.84V643.2C809.581 641.387 809.994 639.8 810.821 638.44C811.647 637.053 812.794 635.973 814.261 635.2C815.727 634.4 817.407 634 819.301 634H819.621C826.794 634 830.381 638.187 830.381 646.56V649.68C830.381 653.867 829.474 657.053 827.661 659.24C825.847 661.4 823.194 662.48 819.701 662.48H819.381ZM819.861 647.84H820.101C821.461 647.84 822.567 647.44 823.421 646.64C824.301 645.84 824.741 644.827 824.741 643.6V643.04C824.741 641.787 824.301 640.773 823.421 640C822.567 639.2 821.461 638.8 820.101 638.8H819.861C818.501 638.8 817.381 639.2 816.501 640C815.647 640.773 815.221 641.787 815.221 643.04V643.6C815.221 644.827 815.647 645.84 816.501 646.64C817.381 647.44 818.501 647.84 819.861 647.84Z" fill="black"/>
<path d="M846.765 662L842.845 655.6L838.885 662H832.565L839.605 651.52L832.805 641.36H839.445L843.165 647.44L846.885 641.36H853.165L846.365 651.52L853.405 662H846.765Z" fill="black"/>
<path d="M661.409 772.576C657.505 772.576 654.481 771.264 652.337 768.64C650.193 766.016 649.121 762.336 649.121 757.6V753.376C649.121 748.608 650.193 744.928 652.337 742.336C654.481 739.712 657.505 738.4 661.409 738.4H661.985C665.889 738.4 668.897 739.712 671.009 742.336C673.153 744.928 674.225 748.608 674.225 753.376V757.6C674.225 762.336 673.153 766.016 671.009 768.64C668.897 771.264 665.889 772.576 661.985 772.576H661.409ZM661.409 769.072H661.985C664.673 769.072 666.721 768.08 668.129 766.096C669.569 764.112 670.289 761.248 670.289 757.504V753.424C670.289 749.712 669.569 746.864 668.129 744.88C666.721 742.864 664.673 741.856 661.985 741.856H661.409C658.721 741.856 656.657 742.864 655.217 744.88C653.809 746.864 653.105 749.712 653.105 753.424V757.504C653.105 761.248 653.809 764.112 655.217 766.096C656.657 768.08 658.721 769.072 661.409 769.072Z" fill="black"/>
<path d="M679.246 772V767.152H683.758V772H679.246Z" fill="black"/>
<path d="M700.778 772V742.336H695.45L695.93 738.976H704.714V772H700.778Z" fill="black"/>
<path d="M729.8 772.576C725.896 772.576 722.872 771.264 720.728 768.64C718.584 766.016 717.512 762.336 717.512 757.6V753.376C717.512 748.608 718.584 744.928 720.728 742.336C722.872 739.712 725.896 738.4 729.8 738.4H730.376C734.28 738.4 737.288 739.712 739.4 742.336C741.544 744.928 742.616 748.608 742.616 753.376V757.6C742.616 762.336 741.544 766.016 739.4 768.64C737.288 771.264 734.28 772.576 730.376 772.576H729.8ZM729.8 769.072H730.376C733.064 769.072 735.112 768.08 736.52 766.096C737.96 764.112 738.68 761.248 738.68 757.504V753.424C738.68 749.712 737.96 746.864 736.52 744.88C735.112 742.864 733.064 741.856 730.376 741.856H729.8C727.112 741.856 725.048 742.864 723.608 744.88C722.2 746.864 721.496 749.712 721.496 753.424V757.504C721.496 761.248 722.2 764.112 723.608 766.096C725.048 768.08 727.112 769.072 729.8 769.072Z" fill="black"/>
<path d="M749.845 772L774.517 738.976H778.597L753.973 772H749.845ZM774.373 772.576C772.229 772.576 770.485 771.84 769.141 770.368C767.797 768.896 767.125 766.912 767.125 764.416V762.208C767.125 759.68 767.797 757.68 769.141 756.208C770.485 754.736 772.229 754 774.373 754H774.709C776.885 754 778.629 754.736 779.941 756.208C781.285 757.68 781.957 759.68 781.957 762.208V764.416C781.957 766.912 781.285 768.896 779.941 770.368C778.629 771.84 776.885 772.576 774.709 772.576H774.373ZM774.373 769.84H774.709C777.301 769.84 778.597 767.952 778.597 764.176V762.4C778.597 758.624 777.301 756.736 774.709 756.736H774.373C771.781 756.736 770.485 758.624 770.485 762.4V764.176C770.485 767.952 771.781 769.84 774.373 769.84ZM753.445 756.976C751.301 756.976 749.557 756.24 748.213 754.768C746.869 753.296 746.197 751.312 746.197 748.816V746.608C746.197 744.08 746.869 742.08 748.213 740.608C749.557 739.136 751.301 738.4 753.445 738.4H753.781C755.957 738.4 757.701 739.136 759.013 740.608C760.357 742.08 761.029 744.08 761.029 746.608V748.816C761.029 751.312 760.357 753.296 759.013 754.768C757.701 756.24 755.957 756.976 753.781 756.976H753.445ZM753.445 754.24H753.781C756.373 754.24 757.669 752.352 757.669 748.576V746.8C757.669 743.024 756.373 741.136 753.781 741.136H753.445C750.853 741.136 749.557 743.024 749.557 746.8V748.576C749.557 752.352 750.853 754.24 753.445 754.24Z" fill="black"/>
<path d="M1327.41 772.576C1323.5 772.576 1320.48 771.264 1318.34 768.64C1316.19 766.016 1315.12 762.336 1315.12 757.6V753.376C1315.12 748.608 1316.19 744.928 1318.34 742.336C1320.48 739.712 1323.5 738.4 1327.41 738.4H1327.98C1331.89 738.4 1334.9 739.712 1337.01 742.336C1339.15 744.928 1340.22 748.608 1340.22 753.376V757.6C1340.22 762.336 1339.15 766.016 1337.01 768.64C1334.9 771.264 1331.89 772.576 1327.98 772.576H1327.41ZM1327.41 769.072H1327.98C1330.67 769.072 1332.72 768.08 1334.13 766.096C1335.57 764.112 1336.29 761.248 1336.29 757.504V753.424C1336.29 749.712 1335.57 746.864 1334.13 744.88C1332.72 742.864 1330.67 741.856 1327.98 741.856H1327.41C1324.72 741.856 1322.66 742.864 1321.22 744.88C1319.81 746.864 1319.1 749.712 1319.1 753.424V757.504C1319.1 761.248 1319.81 764.112 1321.22 766.096C1322.66 768.08 1324.72 769.072 1327.41 769.072Z" fill="black"/>
<path d="M1345.25 772V767.152H1349.76V772H1345.25Z" fill="black"/>
<path d="M1366.68 772.576C1363.96 772.576 1361.64 772.08 1359.72 771.088C1357.8 770.064 1356.47 768.624 1355.74 766.768L1358.95 765.232C1360.07 767.888 1362.62 769.216 1366.59 769.216H1367.02C1369.39 769.216 1371.26 768.624 1372.63 767.44C1374.04 766.224 1374.75 764.624 1374.75 762.64V761.776C1374.75 759.696 1374.01 758.048 1372.54 756.832C1371.07 755.584 1369.05 754.96 1366.49 754.96H1366.11C1363.51 754.96 1361.19 755.616 1359.15 756.928L1356.89 755.824L1357.66 738.976H1376.81V742.432H1360.92L1360.54 753.088C1362.43 752.128 1364.59 751.648 1367.02 751.648H1367.5C1369.74 751.648 1371.69 752.064 1373.35 752.896C1375.02 753.728 1376.31 754.896 1377.24 756.4C1378.17 757.904 1378.63 759.664 1378.63 761.68V762.64C1378.63 765.68 1377.61 768.096 1375.56 769.888C1373.51 771.68 1370.75 772.576 1367.26 772.576H1366.68Z" fill="black"/>
<path d="M1395.8 772.576C1391.9 772.576 1388.87 771.264 1386.73 768.64C1384.58 766.016 1383.51 762.336 1383.51 757.6V753.376C1383.51 748.608 1384.58 744.928 1386.73 742.336C1388.87 739.712 1391.9 738.4 1395.8 738.4H1396.38C1400.28 738.4 1403.29 739.712 1405.4 742.336C1407.54 744.928 1408.62 748.608 1408.62 753.376V757.6C1408.62 762.336 1407.54 766.016 1405.4 768.64C1403.29 771.264 1400.28 772.576 1396.38 772.576H1395.8ZM1395.8 769.072H1396.38C1399.06 769.072 1401.11 768.08 1402.52 766.096C1403.96 764.112 1404.68 761.248 1404.68 757.504V753.424C1404.68 749.712 1403.96 746.864 1402.52 744.88C1401.11 742.864 1399.06 741.856 1396.38 741.856H1395.8C1393.11 741.856 1391.05 742.864 1389.61 744.88C1388.2 746.864 1387.5 749.712 1387.5 753.424V757.504C1387.5 761.248 1388.2 764.112 1389.61 766.096C1391.05 768.08 1393.11 769.072 1395.8 769.072Z" fill="black"/>
<path d="M1415.84 772L1440.52 738.976H1444.6L1419.97 772H1415.84ZM1440.37 772.576C1438.23 772.576 1436.48 771.84 1435.14 770.368C1433.8 768.896 1433.12 766.912 1433.12 764.416V762.208C1433.12 759.68 1433.8 757.68 1435.14 756.208C1436.48 754.736 1438.23 754 1440.37 754H1440.71C1442.88 754 1444.63 754.736 1445.94 756.208C1447.28 757.68 1447.96 759.68 1447.96 762.208V764.416C1447.96 766.912 1447.28 768.896 1445.94 770.368C1444.63 771.84 1442.88 772.576 1440.71 772.576H1440.37ZM1440.37 769.84H1440.71C1443.3 769.84 1444.6 767.952 1444.6 764.176V762.4C1444.6 758.624 1443.3 756.736 1440.71 756.736H1440.37C1437.78 756.736 1436.48 758.624 1436.48 762.4V764.176C1436.48 767.952 1437.78 769.84 1440.37 769.84ZM1419.44 756.976C1417.3 756.976 1415.56 756.24 1414.21 754.768C1412.87 753.296 1412.2 751.312 1412.2 748.816V746.608C1412.2 744.08 1412.87 742.08 1414.21 740.608C1415.56 739.136 1417.3 738.4 1419.44 738.4H1419.78C1421.96 738.4 1423.7 739.136 1425.01 740.608C1426.36 742.08 1427.03 744.08 1427.03 746.608V748.816C1427.03 751.312 1426.36 753.296 1425.01 754.768C1423.7 756.24 1421.96 756.976 1419.78 756.976H1419.44ZM1419.44 754.24H1419.78C1422.37 754.24 1423.67 752.352 1423.67 748.576V746.8C1423.67 743.024 1422.37 741.136 1419.78 741.136H1419.44C1416.85 741.136 1415.56 743.024 1415.56 746.8V748.576C1415.56 752.352 1416.85 754.24 1419.44 754.24Z" fill="black"/>
</svg>
