<svg id="LOGO" xmlns="http://www.w3.org/2000/svg" viewBox="0 0 1250 703">
  <defs>
    <style>
      .cls-1 {
        fill: #bc00ff;
      }
    </style>
  </defs>
  <title>gtc20-partner-logo-accenture-1250x703</title>
  <g>
    <polygon class="cls-1" points="707.298 227.767 764.487 206.508 707.298 184.161 707.298 154.573 805.245 194.017 805.245 218.558 707.298 258.222 707.298 227.767"/>
    <path d="M165.99367,416.427c-20.59905,0-37.69045-10.51624-37.69045-33.74329v-1.31369c0-28.26814,24.54013-37.47069,54.122-37.47069h14.24365v-5.47514c0-11.3965-5.0411-18.41118-16.87154-18.41118-10.7361,0-16.43161,6.135-17.31126,14.90354H131.81026c2.18787-25.41978,22.34678-37.91024,49.52109-37.91024,27.60815,0,47.333,11.83605,47.333,40.31847v76.69459H197.32872V400.86909C191.84749,409.19807,181.33135,416.427,165.99367,416.427Zm30.67516-40.53824V364.93855H183.95864c-15.77771,0-23.88024,4.38121-23.88024,14.67769v1.0939c0,7.88889,4.82134,13.37011,15.558,13.37011C186.59272,394.08025,196.66883,387.94522,196.66883,375.8888ZM301.2036,416.427c-31.76909,0-54.77576-19.7194-54.77576-58.50378v-1.53345c0-38.78438,24.54013-59.38346,54.99552-59.38346,26.07419,0,47.5535,13.15035,50.18088,43.16562H320.92848c-1.97359-11.17-7.66849-18.4051-18.84523-18.4051-13.58984,0-23.00667,10.73661-23.00667,33.30924v3.507c0,23.227,8.3229,33.74328,23.227,33.74328,10.95637,0,19.0589-8.10861,20.81283-20.59905h29.14768C350.07079,397.80157,332.31889,416.427,301.2036,416.427Zm119.21855,0c-31.7697,0-54.77637-19.7194-54.77637-58.50378v-1.53345c0-38.78438,24.54073-59.38346,54.99613-59.38346,26.07419,0,47.553,13.15035,50.18088,43.16562H440.147c-1.97359-11.17-7.66849-18.4051-18.84523-18.4051-13.58984,0-23.00667,10.73661-23.00667,33.30924v3.507c0,23.227,8.3229,33.74328,23.227,33.74328,10.95637,0,19.0589-8.10861,20.81283-20.59905h29.14768C469.28873,397.80157,451.53744,416.427,420.42215,416.427Zm120.0982,0c-33.08887,0-55.656-19.7194-55.656-57.84389v-2.19334c0-38.34425,23.88084-59.38346,54.556-59.38346,28.4879,0,52.37483,15.9975,52.37483,53.90223v13.81021H517.29392c1.31369,20.593,10.07672,28.48181,23.88023,28.48181,12.27078,0,18.84534-6.56907,21.03918-14.89805h29.58183C588.28752,399.9955,570.5417,416.427,540.52035,416.427ZM517.728,343.45985h42.95131c-.65978-16.87164-8.32838-24.1006-21.03857-24.1006C529.564,319.35925,520.36143,324.83439,517.728,343.45985Zm93.79828-44.03976h31.98934v17.0914c5.701-10.74208,17.0914-19.50514,34.62293-19.50514,20.81881,0,34.62294,12.49046,34.62294,40.31847v76.69459H680.766V342.14552c0-13.364-5.47525-19.28471-17.09151-19.28471-11.17065,0-20.15892,6.79492-20.15892,21.25893v69.89967H611.52624Zm161.07044-34.623v34.623h21.91263v23.88024H772.59668v54.34233c0,8.54874,3.941,12.49043,11.3959,12.49043a27.59125,27.59125,0,0,0,11.17065-1.96811v24.98026a65.37782,65.37782,0,0,1-17.96569,2.40762c-24.98026,0-36.8108-11.39589-36.8108-34.62293v-57.6296H727.01666V299.42009h13.37008V277.9414ZM915.04155,414.01941H883.046V397.14777c-5.47514,10.95634-16.21175,19.27927-33.30923,19.27927-20.59285,0-35.71687-12.49044-35.71687-39.43819V299.42009h32.21531v72.74742c0,13.14424,5.25538,19.27927,16.652,19.27927,11.176,0,20.15879-7.0092,20.15879-21.25285V299.42009h31.99555Zm23.23861-114.59932H970.269v21.03309c6.79492-15.33822,17.53153-22.56715,34.40329-22.56715V329.436c-21.6931,0-34.40329,6.57455-34.40329,25.64014v58.9433H938.28016ZM1070.42257,416.427c-33.08948,0-55.656-19.7194-55.656-57.84389v-2.19334c0-38.34425,23.88085-59.38346,54.556-59.38346,28.4879,0,52.37423,15.9975,52.37423,53.90223v13.81021h-74.50064c1.31369,20.593,10.07611,28.48181,23.88024,28.48181,12.27006,0,18.84522-6.56907,21.03917-14.89805h29.58123C1118.18974,399.9955,1100.44393,416.427,1070.42257,416.427Zm-22.793-72.96719h42.95192c-.65989-16.87164-8.329-24.1006-21.03857-24.1006C1059.46633,319.35925,1050.26366,324.83439,1047.62957,343.45985Z"/>
  </g>
</svg>
