<?xml version="1.0" encoding="UTF-8"?><svg id="LOGOS" xmlns="http://www.w3.org/2000/svg" viewBox="0 0 1250 703"><defs><style>.cls-1{fill:#7f8385;}.cls-1,.cls-2,.cls-3{stroke-width:0px;}.cls-2{fill:#293133;}.cls-3{fill:#cc3232;}</style></defs><g id="Layer_4"><path class="cls-2" d="M492.49886,308.86075h-28.52818l-52.02554,85.28122h31.08066s30.78057-53.99967,35.21393-61.77393c4.45271,7.76706,35.41234,61.77393,35.41234,61.77393h30.85547l-52.00868-85.28122Z"/><polygon class="cls-1" points="463.85933 363.55286 492.81484 363.55286 478.23229 384.56545 463.85933 363.55286"/><path class="cls-2" d="M606.24253,308.86075h-50.94523v85.28122h50.94523c49.40511,0,59.7807-23.24341,59.7807-42.74738,0-19.40452-10.3756-42.53384-59.7807-42.53384ZM583.7853,325.61557h13.17162c27.43323.44567,39.48237,3.02022,39.48237,25.77903,0,23.0522-11.43632,25.53226-39.52354,26.00198h-13.13045v-51.78101Z"/><path class="cls-2" d="M704.68222,376.74035v-67.8796h-28.67326v85.28122h93.69014v-17.40162h-65.01688Z"/><polygon class="cls-2" points="807.49848 308.86075 781.77253 308.86075 781.77253 394.14197 810.45547 394.14197 810.45547 308.86075 807.49848 308.86075"/><polygon class="cls-2" points="967.78948 308.86075 941.84082 308.86075 941.84082 394.14197 970.74423 394.14197 970.74423 308.86075 967.78948 308.86075"/><path class="cls-2" d="M901.88129,309.08594v51.56772c-8.3412-8.65096-49.72005-51.56772-49.72005-51.56772l-1.25692-.22519h-25.95114v85.28122h26.90797v-51.98462c8.3506,8.69238,49.94028,51.98462,49.94028,51.98462h27.21275v-85.05603h-27.13289Z"/><path class="cls-2" d="M1005.81135,344.37824c5.16374-3.69579,49.61346-35.51749,49.61346-35.51749h-36.77219l-46.029,36.73818,47.8139,48.54304h39.56248s-49.38105-45.34128-54.18865-49.76373Z"/><path class="cls-3" d="M190,441.96058c53.55624-51.24581,118.66883-51.24581,172.36569,0l-35.48153-74.48426-106.56513,10.73397-30.31903,63.75029Z"/><polygon class="cls-3" points="226.29747 365.70828 325.93133 365.70828 318.32645 349.53231 228.8817 360.40442 226.29747 365.70828"/><polygon class="cls-3" points="234.99357 347.35482 317.23522 347.35482 309.89795 331.71901 237.57904 342.05566 234.99357 347.35482"/><polygon class="cls-3" points="243.69438 329.13949 308.66883 329.13949 276.1847 261.03942 243.69438 329.13949"/><path class="cls-2" d="M367.29903,429.95037c0,6.61904,5.38398,12.01021,12.02137,12.01021,6.61061,0,11.99954-5.39116,11.99954-12.01021,0-6.61681-5.38893-12.00078-11.99954-12.00078-6.63738,0-12.02137,5.38397-12.02137,12.00078ZM369.19058,429.95037c0-5.57047,4.53406-10.11643,10.12982-10.11643,5.57419,0,10.11643,4.54596,10.11643,10.11643,0,5.58014-4.54224,10.12833-10.11643,10.12833-5.59576,0-10.12982-4.54819-10.12982-10.12833Z"/><path class="cls-2" d="M374.46195,436.43872v-12.5893h5.33561c1.34047,0,2.32382.11632,2.93416.33654.60414.22544,1.0947.62746,1.45555,1.19663.37052.58604.54735,1.2497.54735,1.98827,0,.94218-.27479,1.72687-.8209,2.33721-.55479.61282-1.39156,1.00517-2.48974,1.16241.54958.31497,1.01112.67582,1.3623,1.06097.36432.38019.83057,1.0632,1.44464,2.04407l1.54384,2.4632h-3.04304l-1.83574-2.74171c-.66243-.98087-1.09842-1.60088-1.34071-1.85286-.23487-.25173-.49652-.436-.76412-.52553-.27479-.08482-.69392-.14533-1.28244-.14533h-.51585v5.26542h-2.53091ZM376.99286,429.15576h1.86972c1.22689,0,1.99447-.05307,2.29977-.14533.31001-.10639.53147-.28322.71449-.5352.17683-.24701.25297-.5595.25297-.93002,0-.43104-.11731-.75791-.34026-1.03171-.22643-.24949-.54016-.41888-.95904-.48684-.19989-.02406-.82338-.04588-1.84317-.04588h-1.99448v3.17498Z"/></g></svg>