<?xml version="1.0" encoding="UTF-8"?>
<svg id="PASTE_LOGO_HERE" data-name="PASTE LOGO HERE" xmlns="http://www.w3.org/2000/svg" width="1250" height="703" viewBox="0 0 1250 703">
  <defs>
    <style>
      .cls-1 {
        fill: #fff;
      }

      .cls-1, .cls-2 {
        stroke-width: 0px;
      }

      .cls-2 {
        fill: #eb1000;
      }
    </style>
  </defs>
  <path class="cls-2" d="M210.48072,449.74782c.24406-.46404.52476-.91273.72698-1.39429,24.9501-59.41749,49.89425-118.83744,74.83938-178.257,1.47139-3.50487,2.96526-7.00049,4.40676-10.51756.25723-.62761.57216-.86243,1.25737-.86179,18.19556.01724,36.39116.01921,54.58669-.00564.76572-.00105,1.05231.31482,1.31496.94611,9.29841,22.34865,18.60974,44.69192,27.92212,67.03477,16.92816,40.61519,33.85814,81.22964,50.78691,121.84458.18948.4546.37259.91185.61601,1.50844-.50803.02371-.88479.05661-1.26156.05666-19.09458.0025-38.18915-.00484-57.28368.02425-.90049.00137-1.30161-.28063-1.62719-1.10466-12.89981-32.64923-25.82282-65.28932-38.74382-97.93018-3.53714-8.93545-7.07723-17.86974-10.61752-26.80395-.13089-.33031-.27818-.65414-.55138-1.29358-11.09517,27.89966-22.09034,55.54788-33.17995,83.43357h1.50131c12.26224.00001,24.52451.01254,36.78663-.02425.95987-.00288,1.33073.29472,1.64964,1.18751,4.93298,13.80971,9.9119,27.60303,14.87936,41.40046.10809.30021.20682.60377.38068,1.11305h-1.53427c-41.7851,0-83.57021-.00026-125.35531.00309-.50004.00004-1.00008.04662-1.50012.07149,0-.1437,0-.28738,0-.43108Z"/>
  <path class="cls-2" d="M793.47232,452.98093c-2.1786-.15107-4.3583-.2883-6.53568-.45545-15.13538-1.16187-30.00796-3.61699-44.26597-9.05249-1.33219-.50787-3.03222-.8474-3.78038-1.84796-.6436-.8607-.18942-2.5543-.18953-3.8796-.00306-61.06812-.00263-122.13624-.00263-183.20436v-1.47162h49.74843v46.99293c2.39989-.36848,4.65223-.76649,6.91859-1.05423,22.55556-2.86374,43.29261,1.52304,61.30924,15.89948,11.98707,9.56515,19.34303,22.18175,23.05967,36.97277,1.54495,6.14837,2.29912,12.40199,2.47996,18.73961.33186,11.63206-1.11284,22.9874-5.23947,33.917-6.37544,16.8859-17.71406,29.4236-33.59745,37.89771-9.97103,5.3197-20.6552,8.37608-31.85428,9.67893-2.78074.32352-5.58224.4684-8.37341.70403-.27955.0236-.554.1074-.83081.16323h-8.84628ZM788.48022,375.47252c0,11.1307.01881,22.26146-.03055,33.39195-.00464,1.05022.35188,1.42295,1.28673,1.67785,4.27628,1.16604,8.6184,1.58455,13.0181,1.11371,12.75936-1.36546,21.70767-7.98756,26.56929-19.81975,3.66086-8.90993,4.06647-18.20695,2.2082-27.59544-1.37322-6.93804-4.3682-13.12341-9.81606-17.75844-9.64754-8.20814-20.62064-9.70091-32.50699-5.82343-.7449.24299-.73547.71535-.735,1.31376.00848,11.16659.00627,22.33319.00627,33.49979Z"/>
  <path class="cls-2" d="M496.58245,452.98093c-1.63906-.14099-3.27706-.29574-4.91733-.42075-11.71167-.89268-22.99485-3.5188-33.5818-8.67256-21.26988-10.35423-34.39289-27.10562-38.7065-50.3956-3.12917-16.89492-1.99802-33.60259,4.42301-49.62775,9.09066-22.68776,25.91773-36.82726,49.45962-43.00272,12.18463-3.19626,24.50933-3.2504,36.84701-.73121.34982.07143.70465.11826,1.18712.19804v-47.26196h49.79858v1.1673c0,62.06829-.00213,124.13658.02157,186.20485.00034.86823-.28158,1.23849-1.06138,1.56076-8.02748,3.31754-16.37444,5.54179-24.85849,7.291-9.51509,1.96178-19.12318,3.19326-28.8397,3.52982-.23815.00825-.47317.10519-.70966.16077h-9.06205ZM511.32895,375.27796c0-11.16786-.01072-22.33575.02102-33.50353.00245-.86087-.2479-1.2634-1.06314-1.55238-4.72313-1.6742-9.58612-2.26396-14.53535-1.65094-10.7866,1.33601-18.81134,6.86105-23.62486,16.57482-5.25406,10.60265-5.75159,21.80758-3.01094,33.16434,1.88845,7.82552,6.07105,14.24544,12.99074,18.58814,8.7556,5.49491,18.21604,5.98994,28.02527,3.59767.9216-.22475,1.22615-.6276,1.22267-1.60702-.03993-11.20358-.02539-22.40737-.02542-33.6111Z"/>
  <path class="cls-2" d="M1039.0106,377.11058c-.13928,1.78096-.26728,3.5629-.42052,5.34265-.20618,2.39417-.432,4.78667-.66067,7.3044h-93.79237c1.09135,2.38085,1.93686,4.58504,3.06846,6.63135,4.81342,8.70417,12.36781,13.86007,21.80049,16.49334,6.41252,1.79016,12.96585,2.01612,19.56227,1.64179,13.30013-.75473,25.82239-4.54547,37.9815-9.74456.39581-.16922.79673-.32699,1.19871-.48105.05937-.02276.13801.00503.34261.01794.01833.35746.0542.73111.05431,1.10476.0029,11.85385-.00838,23.70773.02471,35.56149.00237.85506-.27808,1.26482-1.02219,1.62644-8.72607,4.24045-17.94188,6.86255-27.49245,8.40984-7.21721,1.16927-14.49136,1.68869-21.78906,1.64797-14.67799-.08192-28.89602-2.55972-42.20647-8.99072-21.96121-10.61065-35.71947-27.77138-40.31649-51.799-3.40743-17.81004-1.94497-35.30808,5.64123-51.92265,9.6024-21.03034,25.95582-34.2223,48.42035-39.48424,17.37414-4.0696,34.45592-2.56105,50.76246,4.86927,18.39422,8.38164,30.17358,22.57699,35.76756,41.92895,1.64951,5.70636,2.55908,11.54926,2.86839,17.48366.02386.45762.13606.91063.20718,1.36578v10.99258ZM992.37577,358.58821c-.68869-4.29783-1.96989-8.21968-4.1832-11.81945-7.77231-12.64115-25.98917-14.82939-36.25024-4.31885-4.18404,4.28573-6.49122,9.57822-7.94146,15.29702-.06553.25826-.08544.52806-.13417.84129h48.50906Z"/>
  <path class="cls-2" d="M648.26596,298.41905c14.48243-.01869,26.93616,2.47275,38.56524,8.33268,19.6998,9.92682,31.96553,25.83309,37.34227,47.12208,1.60553,6.35699,2.32667,12.83406,2.47548,19.39021.23478,10.34831-.95503,20.49479-4.3445,30.30157-7.56651,21.89189-22.4777,36.56772-44.19349,44.40102-8.54766,3.08332-17.4236,4.47562-26.51135,4.64558-13.51102.25271-26.46889-2.14578-38.59476-8.20976-19.25176-9.62751-31.40724-25.07757-36.99192-45.75596-2.65603-9.83439-3.28335-19.8661-2.62079-30.00197.65214-9.97584,2.81061-19.59571,7.05971-28.6687,8.71707-18.61339,23.09657-30.87961,42.49103-37.39201,8.68883-2.9176,17.65335-4.21031,25.32307-4.16474ZM677.34927,375.52876c-.19432-2.57453-.2923-5.16072-.60257-7.72124-.68896-5.68619-2.29849-11.08558-5.37111-15.98277-7.83985-12.495-24.52184-15.90568-36.24407-7.37732-5.56151,4.04622-8.74267,9.70156-10.60858,16.17031-1.96554,6.81425-2.309,13.78368-1.67127,20.80635.51336,5.65283,1.83104,11.10373,4.53879,16.15293,5.3714,10.01616,15.39073,15.14223,26.53139,13.34074,9.22766-1.49214,15.48005-6.96813,19.38106-15.26444,2.99124-6.36149,3.93504-13.15051,4.04635-20.12455Z"/>
  <path class="cls-1" d="M788.48022,375.47252c0-11.1666.00221-22.3332-.00627-33.49979-.00047-.59841-.0099-1.07077.735-1.31376,11.88635-3.87748,22.85945-2.38472,32.50699,5.82343,5.44786,4.63503,8.44283,10.8204,9.81606,17.75844,1.85827,9.38849,1.45266,18.68551-2.2082,27.59544-4.86162,11.83219-13.80994,18.4543-26.56929,19.81975-4.3997.47084-8.74183.05233-13.0181-1.11371-.93485-.2549-1.29136-.62763-1.28673-1.67785.04936-11.13049.03055-22.26125.03055-33.39195Z"/>
  <path class="cls-1" d="M511.32897,375.27796c0,11.20373-.01454,22.40752.02539,33.6111.00348.97942-.30107,1.38227-1.22267,1.60702-9.80924,2.39227-19.26967,1.89724-28.02527-3.59767-6.91969-4.3427-11.10229-10.76262-12.99074-18.58814-2.74065-11.35675-2.24312-22.56169,3.01094-33.16434,4.81353-9.71377,12.83827-15.23881,23.62486-16.57482,4.94922-.61302,9.81221-.02326,14.53535,1.65094.81525.28898,1.06559.6915,1.06314,1.55238-.03174,11.16777-.02102,22.33566-.02099,33.50353Z"/>
  <path class="cls-1" d="M992.37577,358.58821h-48.50906c.04873-.31323.06864-.58302.13417-.84129,1.45024-5.7188,3.75742-11.01129,7.94146-15.29702,10.26107-10.51053,28.47792-8.3223,36.25024,4.31885,2.21331,3.59977,3.49451,7.52162,4.1832,11.81945Z"/>
  <path class="cls-1" d="M677.34927,375.52876c-.11131,6.97404-1.05511,13.76306-4.04635,20.12455-3.90101,8.29631-10.1534,13.7723-19.38106,15.26444-11.14066,1.80148-21.16-3.32458-26.53139-13.34074-2.70776-5.0492-4.02543-10.5001-4.53879-16.15293-.63773-7.02266-.29428-13.9921,1.67127-20.80635,1.86591-6.46874,5.04707-12.12408,10.60858-16.17031,11.72224-8.52836,28.40423-5.11769,36.24407,7.37732,3.07262,4.8972,4.68215,10.29658,5.37111,15.98277.31026,2.56052.40824,5.14671.60257,7.72124Z"/>
</svg>