<svg id="LOGO" xmlns="http://www.w3.org/2000/svg" viewBox="0 0 1250 703"><defs><style>.cls-1{fill:#a5cd39;}</style></defs><g id="Layer_4" data-name="Layer 4"><path class="cls-1" d="M340.15714,346.82673a84.07953,84.07953,0,1,0-51.49257,77.60584V386.55591a51.43382,51.43382,0,1,1,18.75495-39.72918c0,.17462-.0176.34971-.0176.52424h-.00879v83.65326L340.13954,410.624V347.42078C340.13954,347.22856,340.15714,347.03644,340.15714,346.82673Z"/><path class="cls-1" d="M1078.18953,346.82673a84.08009,84.08009,0,1,0-51.493,77.60584V386.55591a51.43821,51.43821,0,1,1,18.7471-39.72918v.52424h-.01845v83.65326l32.73847-20.38028V347.42078C1078.17288,347.22856,1078.18953,347.03644,1078.18953,346.82673Z"/><path class="cls-1" d="M517.4621,346.82673a84.15467,84.15467,0,1,0-4.4309,26.96962H477.10329a51.44417,51.44417,0,1,1,4.77182-43.83676h-75.4908v26.86473H516.85007A85.73019,85.73019,0,0,0,517.4621,346.82673Z"/><path class="cls-1" d="M662.57071,328.6663V295.9458h-85.244V253.61243h-32.7376V295.9458H526.42871v32.7205h18.16044v17.23387h.0171c0,.31462-.0171.62915-.0171.92656a84.16592,84.16592,0,0,0,79.73779,84.05557v.03509h37.35241v-32.8429H624.32694a51.43016,51.43016,0,0,1-47.009-51.24776c0-.332.02642-.68175.02642-1.03137h-.01762V328.6663Z"/><path class="cls-1" d="M900.87672,346.82673a84.1692,84.1692,0,0,0-168.33839,0c0,.20971.00833.38433.00833.57645h.02582V430.934h32.721V346.82673h-.0175a51.43574,51.43574,0,0,1,102.87147,0h-.061V430.934h32.72012V347.40318h.05165C900.85818,347.21106,900.87672,347.03644,900.87672,346.82673Z"/><path class="cls-1" d="M723.56293,252.00413a26.00841,26.00841,0,1,1-26.01716-26.00836A26.01144,26.01144,0,0,1,723.56293,252.00413Z"/><rect class="cls-1" x="678.19733" y="289.32135" width="38.71532" height="141.61269"/></g></svg>