<?xml version="1.0" encoding="UTF-8"?>
<svg id="EXAMPLES_TURN_OFF_" data-name="EXAMPLES (TURN OFF)" xmlns="http://www.w3.org/2000/svg" viewBox="0 0 1250 703">
  <defs>
    <style>
      .cls-1 {
        fill: #353949;
      }
    </style>
  </defs>
  <path class="cls-1" d="M213.62,298.63c-6.37,0-12.12-3.87-14.5-9.81l-8.63-21.44h75.12c25.87,0,46.87,21,46.87,46.87s-21,46.87-46.87,46.87l25.06,62.5h-37.62l-21.13-52.69c-2.38-5.94-8.12-9.81-14.5-9.81h-45.62c-8.63,0-15.62,7-15.62,15.62s7,15.62,15.62,15.62h29.69c3.19,0,6.06,1.94,7.25,4.87l10.62,26.38h-47.5c-25.87,0-46.87-21-46.87-46.87s21-46.87,46.87-46.87h93.75c8.62,0,15.62-7,15.62-15.62s-7-15.62-15.62-15.62h-52ZM385.12,329.88l25.06,62.5h-12.69c-3.31,0-6.25-2.06-7.37-5.19l-1.75-4.94h-23.31l-1.75,4.94c-1.12,3.12-4.06,5.19-7.37,5.19h-12.19l24.56-62.5h16.81ZM369.81,368.75h13.75l-6.87-19.37-6.87,19.37ZM504.87,384.56c0,4.31,3.5,7.81,7.81,7.81h9.63v-62.5h-17.44v54.69ZM566.31,376.62v-46.75h-17.44v54.69c0,4.31,3.5,7.81,7.81,7.81h34.75v-15.75h-25.12ZM630.69,376.62v-8.37h19.44v-14.25h-19.44v-9.19h25.37v-14.94h-42.56v54.69c0,4.31,3.5,7.81,7.81,7.81h34.75v-15.75h-25.37ZM737.44,351.75c0-4-2.87-7-7.81-7h-10v14h10c5,0,7.81-3,7.81-7ZM757.62,392.37h-14.5c-2.87,0-5.56-1.63-6.87-4.13l-7.94-15h-8.62v11.31c0,4.31-3.5,7.81-7.81,7.81h-9.44v-62.5h29.44c13.5,0,23.25,9.06,23.25,22.12,0,7.69-3.75,13.94-9.94,17.62l12.44,22.75ZM820.25,361.12c0-9.81-6.81-16.87-16.19-16.87s-16.31,7.12-16.31,16.87,6.87,16.87,16.31,16.87,16.19-7.06,16.19-16.87ZM837.81,361.12c0,19.13-14.06,32.81-33.81,32.81s-33.87-13.75-33.87-32.81,14.12-32.81,33.87-32.81,33.81,13.69,33.81,32.81ZM975.87,361.12c0-9.81-6.81-16.87-16.19-16.87s-16.31,7.12-16.31,16.87,6.87,16.87,16.31,16.87h0c9.37,0,16.19-7.06,16.19-16.87ZM993.44,361.12c0,19.13-14.06,32.81-33.81,32.81s-33.87-13.75-33.87-32.81,14.12-32.81,33.87-32.81,33.81,13.69,33.81,32.81ZM892.06,372.56c0-3.31-2.44-5.69-6.19-5.69h-12.75v11.37h12.75c3.75,0,6.19-2.37,6.19-5.69ZM873.12,354.19h12.13c3.63,0,5.81-2.19,5.81-5.44s-2.25-5.44-5.81-5.44h-12.13v10.87ZM909.06,374.56c0,10.12-8.75,17.81-20.25,17.81h-24.44c-4.31,0-7.81-3.5-7.81-7.81v-54.69h31.62c11.06,0,19.19,6.75,19.19,16,0,5.56-3.12,10.62-7.87,13.5,5.88,2.75,9.56,8.37,9.56,15.19ZM1058.31,329.88h-50.56v7.69c0,4.31,3.5,7.81,7.81,7.81h8.87v39.19c0,4.31,3.5,7.81,7.81,7.81h9.5v-47h16.56v-15.5h0ZM479.44,340.19c-6.25-7.25-15.69-11.94-26.25-11.94-18.81,0-34.06,14.69-34.06,32.81s15.25,32.81,34.06,32.81c10.44,0,19.31-3.63,26.69-11,.88-.87,1.38-2.12,1.38-3.37v-22h-26.62v10.62h11v5.56c-3.06,2.62-7.13,4.19-11.56,4.19-9.69,0-17.5-7.56-17.5-16.87s7.81-16.87,17.5-16.87c3.44,0,6.62.94,9.37,2.62,2.87,1.75,6.5,1.44,9.06-.75l6.94-5.81ZM1101,377.75c-3.63,0-6.5-1.19-8.56-2.38-2.44-1.5-5.5-1.5-7.94-.06l-9.75,5.69c4.75,8.75,14.19,13,25.25,13,14.5,0,25-7.06,25-20.75s-12.06-17.38-21.25-19.75c-5.88-1.5-10.62-2.62-10.62-6.19,0-2.94,2.94-4.25,6-4.25,2.81,0,5.19,1,7.25,2.5,2.5,1.81,5.81,2,8.5.44l8.75-5.06c-2.81-3.87-6.44-7.25-10.81-9.5-3.38-1.75-8.19-2.94-13.5-2.94-14.75,0-23.75,7.06-23.75,19.37,0,14.25,11.5,17,20.56,19.25,5.94,1.44,10.81,2.56,10.81,6.5.06,2.75-2.88,4.13-5.94,4.13Z"/>
</svg>