<?xml version="1.0" encoding="UTF-8"?><svg id="LOGO" xmlns="http://www.w3.org/2000/svg" viewBox="0 0 1250 703"><defs><style>.cls-1{fill:#009fdc;}.cls-1,.cls-2{stroke-width:0px;}.cls-2{fill:#123960;}</style></defs><path class="cls-2" d="m338.58769,419.27493l-56.20999-146.32001c-2.10999-5.35999-7.35999-8.57999-12.85999-8.47-5.5-.12-10.75,3.10999-12.85999,8.47l-56.20999,146.32001c-2.7,6.85001.74001,14.56,7.67999,17.23001h0c6.94,2.67001,14.75999-.73001,17.45999-7.57999l9.73-25.32999h68.40999l9.73001,25.32999c2.70001,6.85001,10.51999,10.23999,17.45999,7.57999h0c6.94-2.67001,10.38-10.38,7.67999-17.23001h-.01001Zm-94.55-38.39999l25.48-66.33002,25.48001,66.33002h-50.96001Z"/><path class="cls-2" d="m490.51768,361.72494h-81.07001v61.25c0,7.79999-6.32001,14.12-14.12,14.12h-.01999c-7.79999,0-14.12-6.32001-14.12-14.12v-144.07001c0-7.79999,6.32001-14.12,14.12-14.12h.01999c7.79999,0,14.12,6.32001,14.12,14.12v59.76001h81.07001v-59.76001c0-7.79999,6.32001-14.12,14.12-14.12h.01999c7.80002,0,14.12003,6.32001,14.12003,14.12v144.07001c0,7.79999-6.32001,14.12-14.12,14.12h-.01999c-7.79999,0-14.12-6.32001-14.12-14.12v-61.25h-.00003Z"/><path class="cls-2" d="m1049.52769,351.56494c0,53.06-36.20001,85.53-91.47998,85.53h-39.75c-9.13,0-16.53003-7.39999-16.53003-16.53v-139.25c0-9.13,7.40002-16.53,16.53003-16.53h39.75c55.28998,0,91.47998,33.47,91.47998,86.76999v.01001Zm-91.47998,62.48001c40.65997,0,62.47998-23.29999,62.47998-62.48001s-21.82001-63.72-62.47998-63.72h-28.01001v126.19h28.01001v.01001Z"/><path class="cls-1" d="m701.93766,278.67496c-.53998,6.45999-5.96002,11.54001-12.53998,11.54001h-110.83997c-7.51001,0-13.59003-6.14999-12.96002-13.64001.53998-6.45999,5.96002-11.54001,12.53998-11.54001h110.83997c7.51001,0,13.59003,6.16,12.96002,13.64001Zm-123.37994,84.32999h66.03998c6.59003,0,12-5.07999,12.53998-11.54001.62-7.48999-5.45001-13.64001-12.96002-13.64001h-66.03998c-6.59003,0-12.01001,5.07999-12.53998,11.54001-.62,7.48999,5.45001,13.64001,12.96002,13.64001Zm82.34998,49.14999h-82.76001c-6.59003,0-12.01001,5.07999-12.53998,11.54001-.62,7.48999,5.45001,13.64001,12.96002,13.64001h82.76001c6.58002,0,12.01001-5.07999,12.53998-11.54001.62-7.48999-5.45001-13.64001-12.96002-13.64001Z"/><path class="cls-2" d="m859.0377,419.27493l-56.21002-146.32001c-2.10999-5.35999-7.35999-8.57999-12.85999-8.47-5.5-.12-10.75,3.10999-12.85999,8.47l-56.21002,146.32001c-2.70001,6.85001.73999,14.56,7.67999,17.23001h0c6.94,2.67001,14.76001-.73001,17.46002-7.57999l9.72998-25.32999h68.41003l9.72998,25.32999c2.70001,6.85001,10.52002,10.23999,17.46002,7.57999h0c6.94-2.67001,10.38-10.38,7.67999-17.23001h-.01001Zm-94.54999-38.39999l25.47998-66.33002,25.47998,66.33002h-50.96002.00006Z"/></svg>