<?xml version="1.0" encoding="UTF-8"?><svg id="LOGOS" xmlns="http://www.w3.org/2000/svg" xmlns:xlink="http://www.w3.org/1999/xlink" viewBox="0 0 1250 703"><defs><style>.cls-1{clip-path:url(#clippath);}.cls-2{fill:none;}.cls-2,.cls-3{stroke-width:0px;}.cls-3{fill:#ff6a00;}</style><clipPath id="clippath"><rect class="cls-2" x="168" y="293.92257" width="914" height="115.15485"/></clipPath></defs><g id="Layer_4"><g class="cls-1"><path class="cls-3" d="m321.92674,293.93172h-40.7187l9.82549,13.90193,29.68673,9.09431c5.36214,1.70159,8.99247,6.6952,8.95719,12.32073h0v44.44782h0c.04611,5.62692-3.5892,10.62363-8.95719,12.31158l-29.68673,9.14-9.8255,13.89281h40.71869c16.98108,0,30.74697-13.76587,30.74697-30.74695h0v-53.60615c0-16.98255-13.76442-30.75105-30.74697-30.75609"/><path class="cls-3" d="m198.74696,293.93172h40.70955l-9.8255,13.90193-29.64101,9.09431c-5.37126,1.68893-9.00735,6.69043-8.9572,12.32073h0v44.44782h0c-.04611,5.62695,3.58921,10.62363,8.9572,12.31158l29.67758,9.14,9.8255,13.89281h-40.74612c-16.96682,0-30.72681-13.74361-30.74696-30.71043v-53.64266c0-16.98255,13.76441-30.75105,30.74696-30.75609"/><path class="cls-3" d="m851.15101,374.3363c-.71334,10.07054-9.45541,17.65603-19.52593,16.94269-9.07752-.64302-16.2997-7.86518-16.94269-16.94269v-44.02739c.71334-10.07054,9.45541-17.65603,19.52593-16.94269,9.07752.64302,16.2997,7.86518,16.94269,16.94269v.54841h13.9568v-.54841c-.00028-17.77865-14.41296-32.19083-32.19161-32.19055-17.7782.00031-32.19027,14.41232-32.19055,32.19055v43.98168c-.01261,17.77865,14.38959,32.20132,32.16824,32.21393s32.20132-14.38959,32.21393-32.16824v-.58497h-13.9568v.585Z"/><path class="cls-3" d="m923.67695,326.93625c-14.71365-.08368-26.89572,11.41019-27.6668,26.10384v26.963c.83328,15.27742,13.89359,26.98671,29.17102,26.15346,14.113-.76976,25.38369-12.04043,26.15343-26.15346v-26.99954c-.78519-14.67778-12.95912-26.15167-27.65765-26.06727m13.71,51.50391c.47865,7.55668-5.25924,14.0706-12.81592,14.54922-7.55668.47865-14.0706-5.25924-14.54925-12.81592-.03654-.57719-.03654-1.15611,0-1.7333v-23.82801c-.47865-7.55668,5.25924-14.0706,12.81592-14.54922,7.55668-.47865,14.0706,5.25924,14.54925,12.81592.03654.57719.03654,1.15611,0,1.7333v23.82801Z"/><rect class="cls-3" x="872.04504" y="298.50172" width="13.91105" height="105.87776"/><rect class="cls-3" x="488.62207" y="326.93625" width="13.91108" height="77.44323"/><rect class="cls-3" x="460.82732" y="298.50172" width="13.91108" height="105.87776"/><path class="cls-3" d="m425.748,298.49257h-17.1375l-28.12377,105.74066v.14624h13.89281l7.46739-28.09635,30.73782.09141,7.42168,27.91357v.09141h13.88366l-28.1421-105.80468v-.08226Zm3.12589,63.98h-23.39841l11.69007-43.96341,11.70834,43.96341Z"/><path class="cls-3" d="m1002.7471,379.89341c0,7.57182-6.13815,13.71-13.71,13.71s-13.71-6.13818-13.71-13.71v-52.95716h-13.9751v55.23301c.01975,13.23554,10.76533,23.94901,24.00087,23.92927,2.39908-.0036,4.78411-.36741,7.07513-1.07927,1.33396-.38791,2.62128-.92125,3.83876-1.59035,2.12489-1.09405,4.07484-2.49877,5.78558-4.16784l.59412-.58497v5.68508h14.02988v-77.42493h-13.96595l.03671,52.95716Z"/><rect class="cls-3" x="488.62207" y="298.50172" width="13.91108" height="13.91108"/><path class="cls-3" d="m547.68472,326.87226c-6.25898-.0166-12.2734,2.42924-16.74443,6.80931l-.60322.57582v-35.75568h-13.91114v105.87776h13.91108v-5.68508l.60322.58497c9.43779,9.25785,24.59354,9.11197,33.85142-.32582,4.39505-4.48052,6.85467-10.50796,6.84903-16.78426v-31.34107c-.0101-13.22633-10.72963-23.94586-23.95596-23.95593m10.21851,26.506v26.25008c0,7.59456-6.15661,13.75114-13.75111,13.75114s-13.75117-6.15659-13.75117-13.75114h0v-26.25923c0-7.59456,6.15661-13.75114,13.75111-13.75114s13.75117,6.15659,13.75117,13.75114"/><path class="cls-3" d="m677.26251,326.86314c-6.26367-.01754-12.28232,2.43194-16.75364,6.81843l-.58497.57582v-35.76482h-13.9019v105.87776h13.9202v-5.68508l.58497.58497c9.45475,9.24775,24.61608,9.07995,33.8638-.3748,4.3834-4.48147,6.83464-10.50308,6.8275-16.77185v-31.35019c-.01512-13.22276-10.7332-23.93674-23.95596-23.94681m10.21851,26.506v26.25008c0,7.59707-6.15862,13.75569-13.75569,13.75569s-13.75569-6.15862-13.75569-13.75569v-26.22266c.00971-7.59707,6.17619-13.74782,13.77326-13.73812,7.58334.00971,13.72841,6.15477,13.73812,13.73812"/><path class="cls-3" d="m1068.0798,298.49257v35.79224l-.60327-.57582c-9.43779-9.25782-24.59354-9.11197-33.85136.32582-4.39293,4.47826-6.85232,10.50199-6.84909,16.77511v31.44159c.04563,13.22539,10.80388,23.90969,24.02921,23.86408,6.23968-.02153,12.22442-2.4776,16.68039-6.8454l.60327-.57582v5.67593h13.91105v-105.87773h-13.9202Zm-.06393,54.84v26.25008c0,7.59453-6.15656,13.75111-13.75117,13.75111s-13.75106-6.15659-13.75106-13.75111v-26.22266c0-7.59453,6.15656-13.75111,13.75106-13.75111s13.75117,6.15659,13.75117,13.75111"/><path class="cls-3" d="m636.02284,353.13149c-.0468-.9183-.14142-1.83352-.28334-2.742l-.07314-.38389c-.68918-4.17395-2.31747-8.1368-4.76196-11.58951-4.7633-6.79238-12.36594-11.03966-20.64728-11.53468-.21935,0-1.11505-.05484-1.6178-.05484-13.37082-.03409-24.8554,9.49282-27.29203,22.63977v.12797h13.62772v-.08226c1.5156-7.41861,8.75814-12.20394,16.17675-10.68834,6.1468,1.25575,10.65699,6.52366,10.95076,12.79053v6.49853h-19.74232c-13.22042.00918-23.93019,10.73389-23.92104,23.95429.00759,10.88449,7.35741,20.39363,17.88866,23.14413l.35647.09141c.4387.10968.914.21023,1.33446.29249s1.07851.18281,1.66349.25592h.34732c1.21391.13606,2.43451.2032,3.656.20108,2.83561.05752,5.66123-.35321,8.36312-1.21561,3.57472-1.12783,6.83196-3.08531,9.50562-5.7125l.60322-.57582v5.68508h13.91105v-51.184l-.04574.08226Zm-31.076,15.538h16.95469v9.79808c-.02973,7.4337-5.3206,13.80495-12.62234,15.19982-1.0167.23162-2.05572.35117-3.09847.35647-2.47713-.01883-4.90405-.70051-7.02866-1.97424-.62246-.32621-1.21569-.70539-1.77316-1.13335-.80371-.62865-1.53077-1.34955-2.16618-2.14791l-.13712-.18281c-1.65897-2.13976-2.56215-4.76896-2.56834-7.47651.0101-6.86451,5.57499-12.42536,12.43953-12.43041"/><path class="cls-3" d="m765.756,353.2046c-.03872-.91852-.13026-1.83402-.27419-2.742l-.06399-.37474c-.69822-4.1757-2.32902-8.14023-4.77105-11.59866-4.76531-6.79338-12.37264-11.03801-20.65638-11.52553-.2102,0-1.1242-.05484-1.60865-.05484-13.3716-.03113-24.85719,9.49338-27.30118,22.63977v.12797h13.61862v-.09141c1.5156-7.41861,8.75814-12.20394,16.17675-10.68834,6.1468,1.25575,10.65699,6.52366,10.95076,12.79053v6.50768h-19.74238c-13.22042.00918-23.93019,10.73389-23.92104,23.95429.00759,10.88449,7.35741,20.39362,17.88866,23.14413l.35647.08226c.4387.10968.914.21023,1.32531.30161s1.08766.18281,1.66349.24677l.34732.04569c1.21391.13553,2.43451.20267,3.656.20108,2.83533.05305,5.66023-.35756,8.36312-1.21561,3.57528-1.13254,6.83441-3.08927,9.51472-5.7125l.59412-.58497v5.69423h13.88349v-51.184.0366Zm-31.076,15.538h16.96384v9.78893c-.03414,7.43024-5.32401,13.79647-12.62234,15.19068-3.44429.84123-7.08155.28596-10.11799-1.54463-.62631-.31954-1.22015-.69908-1.77316-1.13335-.80064-.62559-1.52464-1.34347-2.15703-2.13876l-.14622-.18281c-1.65266-2.14261-2.55222-4.77061-2.55919-7.47651-.0101-6.86808,5.54403-12.44678,12.41208-12.46697"/></g></g></svg>