<svg id="Layer_5" data-name="Layer 5" xmlns="http://www.w3.org/2000/svg" viewBox="0 0 1250 703"><defs><style>.cls-1{fill:#002;}</style></defs><title>allegro-logo</title><polygon class="cls-1" points="460.08 253.12 468.08 221.11 500.09 213.11 468.08 205.1 460.08 173.09 452.08 205.1 420.07 213.11 452.08 221.11 460.08 253.12 460.08 253.12"/><path class="cls-1" d="M1035.19,332.77l4.93-14.49,4.93,14.49Zm.06-25.33-15.7,42.8h9.74l3.22-9.5h15.22l3.22,9.5h10.35l-15.46-42.8Z"/><polygon class="cls-1" points="1093.63 312.19 1093.63 307.44 1073.12 307.44 1073.12 312.19 1078.42 312.19 1078.42 345.49 1073.12 345.49 1073.12 350.24 1093.63 350.24 1093.63 345.49 1088.34 345.49 1088.34 312.19 1093.63 312.19 1093.63 312.19"/><polygon class="cls-1" points="391.13 442.04 421.33 442.04 421.33 263.3 391.13 263.3 391.13 442.04 391.13 442.04"/><polygon class="cls-1" points="329.3 442.04 359.5 442.04 359.5 263.3 329.3 263.3 329.3 442.04 329.3 442.04"/><path class="cls-1" d="M271,376.64l0,0-.16.22a8.46,8.46,0,0,1-.88,1.18l-.05.05-13.08,17.35C250.23,407.18,238.33,415,224.71,415c-20.87,0-37.79-18.32-37.79-40.93s16.92-40.93,37.79-40.93c12.87,0,24.23,7,31,17.64l14.43,19.15a5.34,5.34,0,0,1,.84,6.7Zm-3.56-52.17C256,310.84,240.85,304,222.46,304c-39.53,0-66.09,28.44-66.09,70.77,0,48.38,33.19,70,66.09,70,18.87,0,33.67-7.16,45-21.83V442h30.2V307.15h-30.2v17.32Z"/><path class="cls-1" d="M848.85,306.81a41.63,41.63,0,0,0-14-2.13c-18.33,0-31.66,11.47-40.58,23.45v-21H764.1V442h30.19v-72c9.33-24.39,23.38-38.37,38.61-38.37a30.66,30.66,0,0,1,9.9,1.81l3.05,1.08,5.27-27-2.27-.8Z"/><path class="cls-1" d="M922.32,417.76c-19.37,0-40.08-11.5-40.08-43.78,0-29.73,20.26-43,40.33-43s40.58,13.61,40.58,44c0,26-16,42.8-40.83,42.8ZM922.08,304c-35.42,0-71.27,24.39-71.27,71,0,21.68,7.55,39.8,21.82,52.4,12.7,11.22,30.09,17.39,49,17.39,19.48,0,37.5-6.39,50.73-18,14.72-12.92,22.5-31.26,22.5-53,0-45.81-36.59-69.78-72.74-69.78Z"/><path class="cls-1" d="M702.26,373.94c-5.13,25-21.11,39.87-42.79,39.87-22.9,0-37.12-15.73-37.12-41.06,0-26.42,13.44-41.56,36.88-41.56,20.41,0,37.68,17,43,42.34v.41Zm0-49.3C690.77,310.9,675.58,304,657,304c-40,0-65.85,27.19-65.85,69.29,0,41.2,25.85,67.82,65.85,67.82,19.24,0,34.13-6.64,45.25-20.23v15.23c0,23.95-21.85,32.45-40.57,32.45-15,0-37.4-4.89-53.63-15.8l-3.51-2.35-5.29,28.33,1.46,1c14.18,10,38.59,16.77,60.72,16.77,41.16,0,71-24.48,71-58.21V307.15h-30.2v17.49Z"/><path class="cls-1" d="M477,362.33c3.63-20.88,15.58-31.88,34.7-31.88,18.92,0,30.4,11,33.33,31.88ZM512.16,304c-39.64,0-67.33,29.5-67.33,71.75,0,43.39,26.46,69.3,70.78,69.3,20.65,0,40.16-5.11,53.52-14l1.64-1.09-6-23.87-3.15,1.73c-14,7.63-26.41,10.74-43,10.74-25,0-38.8-10.75-41.95-32.86h98.81l.53-2.11a43.09,43.09,0,0,0,.83-9c0-52-33.38-70.52-64.62-70.52Z"/></svg>