<?xml version="1.0" encoding="utf-8"?>
<!-- Generator: Adobe Illustrator 24.1.2, SVG Export Plug-In . SVG Version: 6.00 Build 0)  -->
<svg version="1.1" id="LOGO" xmlns="http://www.w3.org/2000/svg" xmlns:xlink="http://www.w3.org/1999/xlink" x="0px" y="0px"
	 viewBox="0 0 1250 703" style="enable-background:new 0 0 1250 703;" xml:space="preserve">
<style type="text/css">
	.st0{fill:#FA4616;}
	.st1{fill:#005776;}
</style>
<g transform="translate(-0.002)">
	<path class="st0" d="M412,389.5c-30.2-31.9-52.4-70.5-64.5-112.7c-0.9-3.4-4-5.8-7.5-5.8h-33.4c-3.5,0-6.6,2.4-7.5,5.8
		c-12.2,42.2-34.3,80.9-64.5,112.7c-2.4,2.6-2.9,6.4-1.2,9.5l16.7,29.1c1.8,3,5.3,4.6,8.7,3.7c21.1-5.2,42.8-7.9,64.5-7.9
		c21.8,0,43.4,2.6,64.5,7.9c3.4,0.9,7-0.6,8.7-3.7l16.7-29.1C414.9,395.9,414.4,392.1,412,389.5z M375.1,413.9l-117.4-25.2
		c-0.6-0.1-0.9-0.7-0.8-1.3c0-0.1,0.1-0.3,0.2-0.4l80.3-90.1c0.4-0.4,1-0.4,1.4-0.1c0.1,0.1,0.2,0.2,0.3,0.4l37.2,115.3
		c0.1,0.6-0.2,1.2-0.8,1.3C375.4,413.9,375.2,413.9,375.1,413.9z"/>
	<g transform="translate(93.475 10.862)">
		<path class="st1" d="M420.7,287.4l-46.5,106.3h21.7l10.6-24.8h46.7l10.5,24.8h22.2l-46.5-106.3H420.7z M414.2,350l15.5-36l15.7,36
			H414.2z"/>
		<path class="st1" d="M522.6,288.2h-21v105.6h75v-19.3h-54.1V288.2z"/>
		<path class="st1" d="M699.9,287.4l-46.5,106.3H675l10.6-24.8h46.7l10.5,24.8h22.2l-46.5-106.3H699.9z M693.4,350l15.5-36l15.7,36
			H693.4z"/>
		<rect x="782.5" y="288.2" class="st1" width="20.8" height="105.6"/>
		<path class="st1" d="M896,354.2c15.1-4.9,23.6-16.4,23.6-32c0-21-15.2-34-39.6-34h-47.2v105.6h20.8v-35.9H874l25.4,35.9h24.8
			L896,354.2z M853.6,307.5h24.8c12.8,0,19.9,5.6,19.9,15.8c0,9.7-7.5,15.9-19.8,15.9h-25L853.6,307.5z"/>
		<path class="st1" d="M570.3,288.2v20.1h32.5v85.5h21.4v-85.5h32.5v-20.1H570.3z"/>
	</g>
</g>
</svg>
