<svg xmlns="http://www.w3.org/2000/svg" xmlns:xlink="http://www.w3.org/1999/xlink" viewBox="0 0 1250 703"><defs><style>.cls-1{fill:none;}.cls-2{clip-path:url(#clip-path);}.cls-3{fill:#f90;}.cls-3,.cls-4{fill-rule:evenodd;}.cls-4{fill:#232f3e;}</style><clipPath id="clip-path"><rect class="cls-1" x="-1396.78" y="-180.11" width="1503.55" height="1063.23"/></clipPath></defs><title>amazon-logo</title><g id="Layer_14" data-name="Layer 14"><path class="cls-3" d="M715.29,415.41c-43.69,32.24-107,49.39-161.57,49.39-76.44,0-145.27-28.26-197.36-75.29-4.09-3.7-.44-8.74,4.48-5.88C417,416.33,486.53,436,558.31,436A392.81,392.81,0,0,0,708.94,405.2C716.32,402.07,722.52,410.07,715.29,415.41Z"/><path class="cls-3" d="M733.47,394.65c-5.59-7.15-36.94-3.39-51-1.7-4.27.51-4.93-3.21-1.09-5.91,25-17.57,66-12.5,70.75-6.62s-1.26,47-24.69,66.62c-3.61,3-7,1.41-5.44-2.57C727.26,431.3,739.06,401.81,733.47,394.65Z"/><path class="cls-4" d="M683.67,263V245.89a4.23,4.23,0,0,1,4.33-4.33h76.5a4.26,4.26,0,0,1,4.41,4.3V260.5c0,2.46-2.09,5.66-5.76,10.75l-39.63,56.57c14.71-.34,30.27,1.86,43.63,9.37a7.77,7.77,0,0,1,4.06,6.66v18.21c0,2.51-2.75,5.42-5.63,3.9-23.54-12.33-54.79-13.68-80.83.16-2.66,1.41-5.44-1.45-5.44-4V344.85c0-2.78.05-7.51,2.85-11.73l45.91-65.86h-40A4.26,4.26,0,0,1,683.67,263Z"/><path class="cls-4" d="M404.64,369.55H381.37a4.38,4.38,0,0,1-4.17-3.93l0-119.44a4.39,4.39,0,0,1,4.49-4.3h21.68a4.38,4.38,0,0,1,4.22,4v15.59h.44c5.65-15.08,16.3-22.12,30.63-22.12,14.55,0,23.68,7,30.2,22.12,5.65-15.08,18.46-22.12,32.15-22.12,9.77,0,20.42,4,26.94,13.07,7.38,10.05,5.86,24.63,5.86,37.45l0,75.37a4.38,4.38,0,0,1-4.49,4.3H506.08a4.36,4.36,0,0,1-4.17-4.29V301.94c0-5,.43-17.59-.66-22.36-1.73-8.05-6.95-10.31-13.68-10.31a15.45,15.45,0,0,0-13.91,9.8c-2.38,6-2.17,16.08-2.17,22.87v63.31a4.38,4.38,0,0,1-4.48,4.3H443.75a4.37,4.37,0,0,1-4.18-4.29l0-63.32c0-13.32,2.17-32.92-14.34-32.92-16.73,0-16.07,19.1-16.07,32.92v63.31A4.39,4.39,0,0,1,404.64,369.55Z"/><path class="cls-4" d="M834.76,239.36C869.3,239.36,888,269,888,306.72c0,36.44-20.63,65.35-53.22,65.35-33.89,0-52.36-29.67-52.36-66.61C782.4,268.26,801.09,239.36,834.76,239.36Zm.21,24.38c-17.16,0-18.24,23.37-18.24,37.95s-.22,45.74,18,45.74c18,0,18.9-25.13,18.9-40.46,0-10.05-.44-22.12-3.48-31.67C847.57,267,842.36,263.74,835,263.74Z"/><path class="cls-4" d="M932.78,369.55H909.59a4.37,4.37,0,0,1-4.18-4.29l0-119.48a4.39,4.39,0,0,1,4.47-3.9h21.58a4.44,4.44,0,0,1,4.14,3.35v18.27H936c6.52-16.34,15.63-24.13,31.71-24.13,10.43,0,20.64,3.77,27.16,14.07,6.08,9.55,6.08,25.64,6.08,37.2v75.16a4.41,4.41,0,0,1-4.46,3.76H973.17a4.38,4.38,0,0,1-4.14-3.76V300.94c0-13.07,1.52-32.17-14.56-32.17-5.65,0-10.86,3.77-13.47,9.54-3.26,7.3-3.69,14.58-3.69,22.63v64.31A4.45,4.45,0,0,1,932.78,369.55Z"/><path class="cls-4" d="M622.7,312.51c0,9.07.21,16.63-4.36,24.69-3.7,6.55-9.58,10.58-16.11,10.58-8.93,0-14.15-6.8-14.15-16.88,0-19.82,17.78-23.42,34.62-23.42Zm23.45,56.74a4.79,4.79,0,0,1-5.49.55c-7.73-6.43-9.11-9.4-13.34-15.51-12.78,13-21.82,16.92-38.37,16.92-19.59,0-34.83-12.1-34.83-36.28,0-18.89,10.23-31.74,24.82-38,12.62-5.55,30.26-6.55,43.76-8.07v-3c0-5.54.43-12.09-2.84-16.88-2.83-4.28-8.27-6-13.06-6-8.88,0-16.76,4.55-18.7,14-.41,2.1-1.94,4.18-4.05,4.28L561.5,278.7c-1.91-.43-4-2-3.48-4.87,5.19-27.36,29.9-35.63,52.05-35.63,11.32,0,26.12,3,35,11.59,11.32,10.58,10.23,24.69,10.23,40.06V326.1c0,10.91,4.53,15.69,8.78,21.56,1.49,2.13,1.82,4.64-.07,6.19-4.75,4-13.2,11.32-17.85,15.46Z"/><path class="cls-4" d="M317.62,312.51c0,9.07.21,16.63-4.36,24.69-3.7,6.55-9.58,10.58-16.11,10.58-8.92,0-14.15-6.8-14.15-16.88,0-19.82,17.78-23.42,34.62-23.42Zm23.46,56.74a4.81,4.81,0,0,1-5.5.55c-7.73-6.43-9.12-9.4-13.34-15.51-12.78,13-21.82,16.92-38.37,16.92-19.59,0-34.83-12.1-34.83-36.28,0-18.89,10.23-31.74,24.82-38,12.62-5.55,30.26-6.55,43.76-8.07v-3c0-5.54.43-12.09-2.83-16.88-2.83-4.28-8.28-6-13.06-6-8.88,0-16.78,4.55-18.71,14-.4,2.1-1.93,4.18-4,4.28l-22.56-2.44c-1.9-.43-4-2-3.47-4.87,5.18-27.36,29.89-35.63,52-35.63,11.32,0,26.13,3,35.05,11.59,11.32,10.58,10.23,24.69,10.23,40.06V326.1c0,10.91,4.53,15.69,8.78,21.56,1.49,2.13,1.83,4.64-.07,6.19-4.75,4-13.2,11.32-17.85,15.46Z"/></g></svg>