<?xml version="1.0" encoding="UTF-8"?>
<svg id="PASTE_LOGO_HERE" data-name="PASTE LOGO HERE" xmlns="http://www.w3.org/2000/svg" viewBox="0 0 1250 703">
  <defs>
    <style>
      .cls-1 {
        fill: #18182d;
      }

      .cls-2 {
        fill: #4343fe;
      }
    </style>
  </defs>
  <path class="cls-1" d="M633.02,401.28h-7.49c0-13.48.15-26.8,0-40.13,0-3.44-.3-7.19-1.05-10.63-1.95-9.13-7.64-14.67-15.72-15.72-9.43-1.2-17.97,2.4-21.71,10.78-2.55,5.69-4.04,12.13-4.34,18.42-.75,12.13-.3,24.4-.3,37.13h-7.64v-6.44c-.15-13.33.3-26.8-.6-39.98-.6-11.38-7.19-18.57-16.77-19.76-10.93-1.35-19.91,4.19-23.21,15.42-1.65,5.39-2.25,11.38-2.55,17.07-.3,10.78,0,21.56,0,32.34,0,.3-.3.75-.45,1.5h-6.59v-72.47h6.14c.45,4.04.75,7.94,1.35,13.33,5.99-10.48,14.07-15.12,24.7-14.52,10.93.45,18.42,6.14,22.61,16.62.9-1.2,1.65-2.1,2.4-3.14,7.04-10.93,17.52-15.42,30.69-12.88,10.63,2.1,17.97,9.88,19.91,22.61,1.2,7.94.9,16.17,1.05,24.11.15,8.23,0,16.62,0,24.85,0,.15-.3.6-.45,1.5ZM656.97,341.69c15.27-17.52,38.48-19.46,53-3.89,13.33,14.22,12.43,42.37-1.65,55.7-13.77,13.03-39.53,11.98-49.41-4.04-.3-.45-.45-1.05-.75-1.5-.3.15-.75.3-1.2.45-.45,4.19-.9,8.23-1.5,12.73h-6.14v-100.17h7.19c.45,13.77.45,27.4.45,40.72ZM657.12,366.24c0,.6,0,2.55.3,4.34,1.65,13.77,11.53,23.81,25,25,12.43,1.2,24.26-6.74,27.85-19.46,1.35-4.94,1.95-10.48,1.5-15.57-1.8-19.46-19.31-30.99-36.68-24.55-11.38,4.19-17.97,14.82-17.97,30.24ZM513.54,401.28h-8.68c-2.1-4.94-4.04-10.03-5.99-15.12-1.95-4.94-3.89-9.73-5.84-14.82h-46.56c-3.89,9.58-7.94,19.76-11.98,29.94h-8.38c13.03-33.69,25.9-67.08,38.78-100.31h9.73c13.03,33.24,25.9,66.48,38.93,100.31ZM490.33,363.1c-6.89-17.82-13.48-34.89-20.66-53.15-7.19,18.42-13.77,35.48-20.51,53,13.92.15,26.95.15,41.17.15ZM1055.54,395.29v5.39c-10.48,2.25-14.07,0-17.22-11.38-9.43,12.58-22.16,14.97-36.38,11.98-10.03-2.1-16.32-9.43-16.62-18.72-.45-10.63,4.64-17.97,15.12-20.96,4.04-1.2,8.53-1.65,12.88-1.95,8.23-.3,16.62-.15,24.7-.15,2.7-11.38-1.5-20.36-10.93-23.66-13.33-4.79-25.6.3-31.74,13.03h-6.74c.15-6.74,3.44-11.68,8.53-15.57,9.58-7.34,28.45-8.23,38.78-1.65,7.79,4.94,10.63,12.43,10.78,21.26.3,10.33.15,20.66.15,31.14-.3,8.68.3,9.43,8.68,11.23ZM1038.47,366.24c-8.83,0-17.22-.15-25.75.15-2.99.15-5.99.45-8.98,1.2-6.74,1.95-10.48,6.44-10.63,12.88-.3,6.44,3.59,11.68,10.03,13.92,19.91,6.89,37.43-6.74,35.33-28.15ZM823.76,365.35h-58.39c-2.4,11.98,5.69,25,17.52,28.75,13.92,4.49,25.45-1.65,32.94-17.07h6.59c-1.35,15.87-16.17,24.55-28,25.45-22.31,1.5-39.53-16.02-37.88-39.08.3-4.79,1.2-9.73,2.7-14.22,5.84-16.62,22.16-24.85,40.13-20.81,15.87,3.59,26.5,19.31,24.4,36.98ZM815.98,358.46c-1.65-15.12-11.83-24.55-25.9-24.11-13.33.3-23.81,10.48-24.55,24.11h50.46ZM839.19,328.51h5.99c.45,4.04.9,8.09,1.65,13.62,7.49-11.98,17.82-15.72,30.09-14.37,12.88,1.35,22.61,9.13,23.66,22.61,1.35,16.77.3,33.84.3,50.91h-6.74v-5.99c-.3-13.18.15-26.35-.75-39.53-.75-12.43-7.79-19.91-18.42-20.96-12.43-1.35-22.16,4.34-26.05,16.17-1.65,4.94-2.25,10.33-2.4,15.42-.3,11.38-.15,22.91-.15,34.74h-7.34c.15-24.11.15-48.21.15-72.62ZM951.33,394.69v6.59c-5.54,0-10.93.45-16.32-.15-7.94-.9-11.98-5.99-11.98-15.12-.15-14.67,0-29.35,0-44.02v-6.74h-13.48v-6.89h13.33v-20.06h7.79v19.91h19.46v7.19h-18.87c-.15,2.1-.45,3.59-.45,5.24v43.42c0,8.09,2.4,10.48,10.33,10.78,3.14-.15,6.29-.15,10.18-.15ZM733.63,402.03v-73.36h7.94v73.36h-7.94ZM1065.72,328.51h7.94v72.62h-7.94v-72.62ZM737.52,312.34c2.84,0,5.24-2.4,5.24-5.24s-2.4-5.24-5.24-5.24-5.24,2.4-5.24,5.24,2.4,5.24,5.24,5.24ZM1069.76,312.34c2.84,0,5.24-2.4,5.24-5.24s-2.4-5.24-5.24-5.24-5.24,2.4-5.24,5.24,2.4,5.24,5.24,5.24ZM966.75,402.03c2.84,0,5.24-2.4,5.24-5.24s-2.4-5.24-5.24-5.24-5.24,2.4-5.24,5.24,2.25,5.24,5.24,5.24Z"/>
  <path class="cls-2" d="M276.27,234.15l-101.27,58.78v117.94l101.27,57.98,101.27-57.98v-117.94l-101.27-58.78ZM299.48,421.11l-71.58-14.29-23.41-69.96,48.4-54.97,71.74,14.77,23.41,69.96-48.56,54.49Z"/>
</svg>