<?xml version="1.0" encoding="UTF-8"?><svg id="LOGO" xmlns="http://www.w3.org/2000/svg" viewBox="0 0 1250 703"><defs><style>.cls-1{fill:#016fd0;}.cls-1,.cls-2{stroke-width:0px;}.cls-2{fill:#fff;}</style></defs><g id="amex"><path id="path3078" class="cls-1" d="m446.99841,173.56421h355.87164v192.11012l-17.61469,27.52294,17.61469,24.49542v111.7431h-355.87162v-181.10095l11.00915-12.66049-11.00918-12.11012v-150.00001Z"/><path id="path3082" class="cls-2" d="m516.08099,421.5459v-55.87157h59.15763l6.34697,8.27406,6.55685-8.27406h214.72762v52.0184s-5.61549,3.79734-12.11009,3.85322h-118.89909l-7.15597-8.80736v8.80736h-23.44956v-15.03442s-3.20324,2.09861-10.12844,2.09861h-7.98164v12.93577h-35.50459l-6.3379-8.45152-6.43522,8.45152h-58.78655Z"/><path id="path3080" class="cls-2" d="m446.99841,323.56422l13.34028-31.10092h23.07062l7.57076,17.42146v-17.42146h28.67891l4.50688,12.59173,4.36927-12.59173h128.73857v6.33027s6.76768-6.33027,17.88992-6.33027l41.77094.14598,7.44006,17.19347v-17.33945h24l6.6055,9.87624v-9.87624h24.22019v55.87153h-24.22019l-6.33027-9.90825v9.90825h-35.26131l-3.54602-8.80736h-9.47944l-3.48832,8.80736h-23.91301c-9.57033,0-15.68808-6.20101-15.68808-6.20101v6.20101h-36.05505l-7.15597-8.80736v8.80736h-134.07113l-3.54358-8.80736h-9.44921l-3.51854,8.80736h-16.4818v-24.77061Z"/><path id="path3046" class="cls-1" d="m465.06034,299.35109l-17.99312,41.83483h11.71445l3.31996-8.37723h19.30046l3.30276,8.37723h11.97248l-17.97592-41.83487h-13.64105v.00004Zm6.65711,9.73623l5.88303,14.63882h-11.78326l5.90023-14.63882Z"/><path id="path3048" class="cls-1" d="m497.91586,341.17891v-41.83487l16.64689.06184,9.68239,26.97247,9.45055-27.03431h16.51376v41.83487h-10.45872v-30.82569l-11.08646,30.82569h-9.17232l-11.11737-30.82569v30.82569h-10.45872Z"/><path id="path3050" class="cls-1" d="m557.36541,341.17891v-41.83487h34.12845v9.35783h-23.55964v7.15597h23.00918v8.80736h-23.00918v7.4312h23.55964v9.0826l-34.12845-.00009Z"/><path id="path3052" class="cls-1" d="m597.5489,299.35109v41.83483h10.45872v-14.86236h4.40367l12.54014,14.86236h12.78097l-13.76147-15.41282c5.64778-.47661,11.47362-5.32401,11.47362-12.84976,0-8.80353-6.90978-13.57229-14.62157-13.57229h-23.27408v.00004Zm10.45872,9.35779h11.95529c2.86791,0,4.95413,2.24337,4.95413,4.40368,0,2.77933-2.70305,4.40368-4.79931,4.40368h-12.11009v-8.80736h-.00001Z"/><path id="path3054" class="cls-1" d="m650.39295,341.17891h-10.6789v-41.83487h10.6789v41.83487Z"/><path id="path3056" class="cls-1" d="m675.71406,341.17891h-2.30505c-11.15285,0-17.92432-8.78663-17.92432-20.74542,0-12.25418,6.69565-21.08946,20.77982-21.08946h11.55963v9.90825h-11.98225c-5.7174,0-9.76086,4.46186-9.76086,11.28442,0,8.10182,4.62354,11.50456,11.28442,11.50456h2.75229l-4.40366,9.13764Z"/><path id="path3058" class="cls-1" d="m698.47208,299.35109l-17.99311,41.83483h11.71445l3.31995-8.37723h19.30046l3.30275,8.37723h11.97248l-17.97593-41.83487h-13.64105v.00004Zm6.65711,9.73623l5.88304,14.63882h-11.78325l5.90024-14.63882h-.00002Z"/><path id="path3060" class="cls-1" d="m731.31038,341.17891v-41.83487h13.29701l16.97821,26.28443v-26.28443h10.45872v41.83487h-12.86698l-17.40826-26.97247v26.97247h-10.4587Z"/><path id="path3062" class="cls-1" d="m523.23696,414.38993v-41.83487h34.12844v9.35783h-23.55964v7.15597h23.00917v8.80736h-23.00917v7.4312h23.55964v9.0826l-34.12844-.00009Z"/><path id="path3064" class="cls-1" d="m690.46635,414.38993v-41.83487h34.12844v9.35783h-23.55963v7.15597h22.89909v8.80736h-22.89909v7.4312h23.55963v9.0826l-34.12844-.00009Z"/><path id="path3066" class="cls-1" d="m558.68994,414.38993l16.61698-20.65945-17.01261-21.17547h13.17661l10.13188,13.09059,10.16628-13.09059h12.66055l-16.789,20.91744,16.64757,20.91744h-13.17452l-9.83772-12.88421-9.59863,12.88421-12.98739.00004Z"/><path id="path3068" class="cls-1" d="m605.53056,372.56212v41.83487h10.73395v-13.211h11.00918c9.31533,0,16.37616-4.94195,16.37616-14.55276,0-7.96155-5.53784-14.07111-15.0172-14.07111h-23.1021Zm10.73395,9.461h11.59403c3.00942,0,5.16055,1.84445,5.16055,4.81653,0,2.79205-2.14028,4.81653-5.19495,4.81653h-11.55963v-9.63306Z"/><path id="path3072" class="cls-1" d="m648.19111,372.55506v41.83487h10.45872v-14.8624h4.40366l12.54014,14.8624h12.78097l-13.76147-15.41287c5.64778-.47665,11.47362-5.32401,11.47362-12.8498,0-8.80349-6.90978-13.57225-14.62157-13.57225h-23.2741l.00002.00004Zm10.45872,9.35783h11.95527c2.86791,0,4.95413,2.24332,4.95413,4.40364,0,2.77937-2.70305,4.40368-4.79931,4.40368h-12.11009v-8.80732Z"/><path id="path3074" class="cls-1" d="m729.43884,414.38993v-9.0826h20.9312c3.09707,0,4.43806-1.67361,4.43806-3.50918,0-1.75866-1.33677-3.5367-4.43806-3.5367h-9.45856c-8.22173,0-12.80061-5.00919-12.80061-12.5298,0-6.70784,4.19314-13.17664,16.41056-13.17664h20.36697l-4.40368,9.41283h-17.61469c-3.36716,0-4.40368,1.76689-4.40368,3.45417,0,1.73427,1.28088,3.64679,3.85322,3.64679h9.90825c9.16521,0,13.14219,5.19881,13.14219,12.0069,0,7.31936-4.43168,13.31422-13.64114,13.31422h-22.29003Z"/><path id="path3076" class="cls-1" d="m767.82475,414.38993v-9.0826h20.93118c3.09709,0,4.43809-1.67361,4.43809-3.50918,0-1.75866-1.3368-3.5367-4.43811-3.5367h-9.45856c-8.22173,0-12.80061-5.00919-12.80061-12.5298,0-6.70784,4.19314-13.17664,16.41056-13.17664h20.36699l-4.40368,9.41283h-17.61469c-3.36714,0-4.40366,1.76689-4.40366,3.45417,0,1.73427,1.28088,3.64679,3.85322,3.64679h9.90827c9.16521,0,13.14219,5.19881,13.14219,12.0069,0,7.31936-4.43168,13.31422-13.64116,13.31422h-22.29003Z"/></g></svg>