<svg xmlns="http://www.w3.org/2000/svg" viewBox="0 0 1250 703"><defs><style>.cls-1{fill:#ffb71b;}</style></defs><title>ansys-logo</title><g id="Layer_6" data-name="Layer 6"><polygon class="cls-1" points="351.34 223 295.21 223 211.36 427.65 267.49 427.65 351.34 223"/><polygon points="364.18 229.46 336 298.24 389.02 427.65 448.52 427.65 364.18 229.46"/><path d="M550,282a59.12,59.12,0,0,0-27.11,6.09,49.71,49.71,0,0,0-19.57,17.68V285.45H460.66V427.81h43.78V348.07q0-14.49,8.27-23.2t21.89-8.7c7.55,0,13.09,2.22,16.68,6.67s5.36,11.51,5.36,21.17V427.8h43.78V342q0-30.15-12.47-45.09T550,282Z"/><path d="M705.24,344l-24.06-5.51q-8.7-2.31-12.18-4.93a8.59,8.59,0,0,1-3.47-7.25,10.92,10.92,0,0,1,5.79-9.85q5.79-3.48,15.95-3.48,22,0,44.65,15.65l11.6-29a91.82,91.82,0,0,0-26.09-13.05A97.76,97.76,0,0,0,687.57,282q-18,0-32,5.8t-21.74,15.94a37.82,37.82,0,0,0-7.68,23.49q0,16.83,9.71,26.53t30.31,14.35l23.2,5.23c7.15,1.54,12,3.29,14.65,5.21a9.55,9.55,0,0,1,3.91,8.12q0,5.82-5.65,9.13c-3.76,2.23-9,3.33-15.8,3.33a93.82,93.82,0,0,1-28.13-4.34,97.78,97.78,0,0,1-25.52-12.17l-11.58,30.15a89.31,89.31,0,0,0,28.26,12.91,136.46,136.46,0,0,0,36.1,4.49q28.7,0,45.08-11.75T747,386.07Q747,369,737,359T705.24,344Z"/><path d="M1028.62,359q-10-10-31.74-14.93l-24.07-5.51c-5.79-1.54-9.86-3.18-12.18-4.93a8.57,8.57,0,0,1-3.48-7.25q0-6.36,5.8-9.85t16-3.48q22,0,44.65,15.65l11.59-29a91.75,91.75,0,0,0-26.1-13.05A97.71,97.71,0,0,0,979.19,282q-18,0-32,5.8t-21.75,15.94a37.88,37.88,0,0,0-7.68,23.49q0,16.83,9.71,26.53t30.3,14.35l23.2,5.23c7.15,1.54,12,3.29,14.64,5.21a9.51,9.51,0,0,1,3.92,8.12q0,5.82-5.65,9.13t-15.8,3.33a93.82,93.82,0,0,1-28.13-4.34A97.32,97.32,0,0,1,924.4,382.6l-11.6,30.15a89.53,89.53,0,0,0,28.28,12.91,136.39,136.39,0,0,0,36.09,4.49q28.71,0,45.09-11.75t16.38-32.33Q1038.59,369,1028.62,359Z"/><polygon points="867.75 285.63 833.53 369.16 799.29 285.63 756.99 285.63 812.37 420.79 788.11 480 830.4 480 910.04 285.63 867.75 285.63"/></g></svg>