<svg id="LOGO" xmlns="http://www.w3.org/2000/svg" viewBox="0 0 1250 703"><defs><style>.cls-1{fill:#8c0b42;}.cls-2{fill:#ffca38;}</style></defs><title>nvidia-partner-arizona-state-university-logo</title><path class="cls-1" d="M587.31,274.81,609,333.61H593.31l-2.92-9.41H568.74l-2.92,9.41H550.16L572,274.81Zm-7.91,14c-.75,3-1.58,6.08-2.42,9.08-1.25,4.42-3.5,11.33-4.83,15.74h14.91Z"/><path class="cls-1" d="M624.73,294.63c2.83-2.41,5.91-4.33,12.57-5V301l-4.24.67c-6.17,1.08-8,2-8,7.49v24.49H612.23V290.05h12.5Z"/><path class="cls-1" d="M641.72,274.73h12.66v9.91H641.72Zm0,15.32h12.66v43.56H641.72Z"/><path class="cls-1" d="M662.21,290.14h37.22V300l-23.15,23.66h23.15v10H659.71V324l23.49-24h-21Z"/><path class="cls-1" d="M748.49,311.79c0,11-6.33,23.07-23.32,23.07-12.24,0-23.4-7-23.4-23.07,0-13.33,8.41-23.9,25.07-23C744.58,289.8,748.49,303.88,748.49,311.79Zm-31.65-8.58a15.81,15.81,0,0,0-2.16,8.5c0,6.91,3.33,13,10.49,13,6.91,0,10.33-5.58,10.33-12.41,0-4.83-1.17-8.58-3.58-10.91a9.34,9.34,0,0,0-7.5-2.42C720.76,299.21,718.59,300.46,716.84,303.21Z"/><path class="cls-1" d="M765.74,294.05a12.39,12.39,0,0,1,4.33-3.41,21,21,0,0,1,7.91-1.59,16.49,16.49,0,0,1,7.74,1.75c4.58,2.42,5.75,6.33,5.75,13.08v29.73H778.73V309.12c0-3.91-.09-5.33-.59-6.49-1-2.33-3.24-3.33-5.74-3.33-6.75,0-6.75,5.41-6.75,10.82v23.49H752.83V290.22h12.91Z"/><path class="cls-1" d="M797.8,302.46c.25-3,.67-6.58,4.58-9.66s9.16-3.83,14.24-3.83c5.33,0,18.24,1.25,18.24,12.49v25.32c0,4.66.25,5.33,1.25,6.83H823.54v-4c-3.25,2.42-6.92,5.17-13.33,5.17-10,0-14.24-7.17-14.24-13.25,0-7,5.58-11,9.16-12.49s11.74-3,17.16-4v-2.33c-.17-2-.34-5.33-4.92-5.33-5.66,0-6.41,3.5-6.74,5.08ZM814,315.54c-2.16.83-5.49,2.08-5.49,5.41a4.65,4.65,0,0,0,4.83,4.41,8.41,8.41,0,0,0,4.41-1.41c4.25-2.67,4.41-6.66,4.5-11.16Z"/><path class="cls-1" d="M863.27,316a18.59,18.59,0,0,0,5.66,4.59,24.23,24.23,0,0,0,11.33,2.83c5.83,0,10.82-2.75,10.82-6.83,0-4.67-5.91-5.42-10.24-6-3.25-.42-6.49-.83-9.66-1.5-3.58-.75-15.83-3.33-15.83-16,0-15.16,13.5-19.65,23.66-19.65,13.57,0,20.9,6.58,26,11.16l-10.82,7.74a27.47,27.47,0,0,0-5.83-4.75,21.24,21.24,0,0,0-9.58-2.58c-5.83,0-8.75,3.33-8.75,6.17,0,4.49,5,5.16,7.5,5.49,6.24.75,14.66,2.33,18,3.5,6.74,2.5,10.16,7.75,10.16,14.41A19.56,19.56,0,0,1,901,327c-5.33,6.16-13.83,7.91-22.07,7.91-16.58,0-23.16-7.66-26.82-11.91Z"/><path class="cls-1" d="M912,277.56h12.74v13.58h8.41V299h-8.49v19.58c-.08,2.66-.08,4.91,3.33,4.91l4.58-.17v10a41.5,41.5,0,0,1-6.74.66c-4.42,0-9.25-.25-12-4.24-1.74-2.59-1.83-5.67-1.83-9.83v-21h-6.33v-7.83H912Z"/><path class="cls-1" d="M937.06,302.46c.25-3,.67-6.58,4.58-9.66S950.8,289,955.88,289c5.33,0,18.24,1.25,18.24,12.49v25.32c0,4.66.25,5.33,1.25,6.83H962.8v-4c-3.25,2.42-6.92,5.17-13.33,5.17-10,0-14.24-7.17-14.24-13.25,0-7,5.58-11,9.16-12.49s11.74-3,17.16-4v-2.33c-.17-2-.34-5.33-4.92-5.33-5.66,0-6.41,3.5-6.74,5.08Zm16.24,13.08c-2.16.83-5.49,2.08-5.49,5.41a4.65,4.65,0,0,0,4.83,4.41,8.41,8.41,0,0,0,4.41-1.41c4.25-2.67,4.41-6.66,4.5-11.16Z"/><path class="cls-1" d="M983,277.56h12.74v13.58h8.41V299H995.7v19.58c-.09,2.66-.09,4.91,3.33,4.91l4.58-.17v10a41.72,41.72,0,0,1-6.75.66c-4.41,0-9.24-.25-12-4.24-1.75-2.59-1.83-5.67-1.83-9.83v-21h-6.33v-7.83H983Z"/><path class="cls-1" d="M1049.5,322.53a33.81,33.81,0,0,1-5.25,6.5,23.87,23.87,0,0,1-16.4,6.16c-12.91,0-22-8.24-22-22.48,0-10.5,5.16-24,22.32-24,2.58,0,10.08.25,15.66,6.25s6,14.57,6.16,19.49h-31.07c-.08,5.41,3,10.82,9.91,10.82s9.42-4.58,11-7.66Zm-12.74-16.07c-.25-1.83-.59-4.25-2.42-6.16a9,9,0,0,0-6.25-2.42,8.82,8.82,0,0,0-6.49,2.83,11.33,11.33,0,0,0-2.58,5.75Z"/><path class="cls-1" d="M602.3,352.9v32.81c-.08,5.66-.17,11.33-3.41,16.66C592.56,412.53,579.48,413,577,413a31.19,31.19,0,0,1-13.66-3.17C552,404,552,393.71,552.08,385.71V352.9h14.83v36.64c0,3,.08,5.5,1.08,7.33,1.83,3.08,5.83,4,9.49,4,10,0,10-6.83,10.08-11.41V352.9Z"/><path class="cls-1" d="M621.88,372.14a12.39,12.39,0,0,1,4.33-3.42,21.2,21.2,0,0,1,7.91-1.58,16.46,16.46,0,0,1,7.74,1.75c4.58,2.41,5.75,6.33,5.75,13.07V411.7H634.87V387.21c0-3.91-.09-5.33-.58-6.5-1-2.33-3.25-3.33-5.75-3.33-6.75,0-6.75,5.42-6.75,10.83V411.7H609V368.3h12.91Z"/><path class="cls-1" d="M654.28,352.81h12.66v9.92H654.28Zm0,15.33h12.66V411.7H654.28Z"/><path class="cls-1" d="M670.68,368.22h13.49c5.34,19.32,6.25,23.32,7.67,31.65,1.75-9.66,2-10.75,4.58-21l2.66-10.66h13.16L698.17,411.7H684.76Z"/><path class="cls-1" d="M755.72,400.62a34.12,34.12,0,0,1-5.25,6.5,23.89,23.89,0,0,1-16.4,6.16c-12.91,0-22-8.25-22-22.49,0-10.49,5.16-24,22.32-24,2.58,0,10.08.24,15.66,6.24s6,14.58,6.16,19.49H725.15c-.08,5.41,3,10.83,9.92,10.83s9.41-4.58,11-7.66ZM743,384.54a10.37,10.37,0,0,0-2.42-6.16,9,9,0,0,0-6.24-2.41,8.82,8.82,0,0,0-6.5,2.83,11.26,11.26,0,0,0-2.58,5.74Z"/><path class="cls-1" d="M773.88,372.72c2.83-2.42,5.91-4.33,12.57-5v11.33l-4.24.67c-6.17,1.08-8,2-8,7.49V411.7H761.39V368.14h12.49Z"/><path class="cls-1" d="M794.2,397c3.5,3.41,7.83,6,12.66,6,3.08,0,7.75-1,7.75-4.24a2.65,2.65,0,0,0-1.67-2.5c-1.91-1-4.91-1.25-7.41-1.67a48.5,48.5,0,0,1-5.83-1.33,16.31,16.31,0,0,1-7.25-3.75,11.72,11.72,0,0,1-3.24-8.16c0-7.16,6.16-14.57,18.32-14.57a31.87,31.87,0,0,1,19.4,6.49L819,380.63c-4.08-3.16-7.91-4.33-10.91-4.33-5,0-6.16,2-6.16,3.25,0,2.5,2.75,3,6.91,3.75,8.75,1.58,18.91,3.91,18.91,14.24s-10.33,15.24-20.58,15.24c-12.07,0-18.32-5.83-21.07-8.41Z"/><path class="cls-1" d="M831.77,352.81h12.66v9.92H831.77Zm0,15.33h12.66V411.7H831.77Z"/><path class="cls-1" d="M855.25,355.64H868v13.58h8.41v7.83h-8.5v19.57c-.08,2.67-.08,4.91,3.33,4.91l4.58-.16v10a40.49,40.49,0,0,1-6.74.67c-4.42,0-9.25-.25-12-4.25-1.74-2.58-1.83-5.66-1.83-9.83V377h-6.33v-7.82h6.33Z"/><path class="cls-1" d="M921.05,368.22l-15.32,47c-1,2.84-1.92,5.5-4.09,7.92-3,3.24-5.91,3.41-9.24,3.49h-9.25V416.44h4.5c2.09-.08,5.33-.08,5.33-3.16a11.78,11.78,0,0,0-.58-3.08l-13-42h13.66l7.16,31.15,7.16-31.15Z"/><path class="cls-1" d="M521.74,410.54s-2.25-2.5-6-6.53a15.24,15.24,0,0,1-4.36-10.22v-119h-45V370c-.56,9-9.36,11.3-14.22,11.14-7-.21-11-4.15-11-10.87V274.8H397.24s-18.32,0-30.91,0c-24,0-46.66,3.69-54.33,23.67l-4.52-17.69a9.22,9.22,0,0,0-8.65-6H220.44c-1.14,0-1.57.37-1,1.17,0,0,2.13,2,6,6.46,5.36,6.13,3.27,14.31,3.27,14.31L200,411.67h41.8l6-25.23h40.35l6.28,25.23h55c22.6,0,41-2.3,50-16.4,6.78,12.87,21.36,18.9,47.09,16.68,9-.76,17.73-4.95,21.49-11.63l1.78,5.54a9.43,9.43,0,0,0,8.93,5.82h42C522,411.68,522.32,411.34,521.74,410.54Zm-267.66-49L268,305.31l14,56.19Z"/><path class="cls-1" d="M523.07,285.39a5.06,5.06,0,1,1,5-5A5,5,0,0,1,523.07,285.39Zm0-10.78a5.73,5.73,0,1,0,5.74,5.76A5.67,5.67,0,0,0,523.05,274.61ZM521,277.1h2a2.84,2.84,0,0,1,2,.46,1.92,1.92,0,0,1,.7,1.56,1.74,1.74,0,0,1-1.25,1.75l1.42,2.58h-1.36l-1.26-2.36h-1.06v2.36H521Zm1.18,1v2h1.19a1,1,0,0,0,1.12-1,.91.91,0,0,0-.51-.85,2.86,2.86,0,0,0-1.26-.13Z"/><path class="cls-2" d="M310.88,303.89c-.25,1.23-.55,2.89-.72,4.06l-7.85-7.28a.86.86,0,0,1,1-1.36Z"/><path class="cls-2" d="M309.78,314.61c0,1.69.08,4,.26,5.69l-15.19-9.89a.84.84,0,0,1,.77-1.49Z"/><path class="cls-2" d="M313.29,331.61a32.17,32.17,0,0,1-2.56-7.31l-20.84-4.7a.82.82,0,0,0-.51,1.56Z"/><path class="cls-2" d="M313.93,332.79c7,12.87,21.9,18,34.95,22.53,12.71,4.37,23.64,8.15,23.64,17.95a9,9,0,0,1-3.14,6.82c-4,3.67-11.39,5.45-19.48,4.68a31.42,31.42,0,0,1-9.36-2.8l-16.87,20.92a.89.89,0,0,1-1.49-1l11.56-23.24a.29.29,0,0,0-.44-.34L312.79,396.2a.88.88,0,0,1-1.28-1.18l15.9-21.12a.26.26,0,0,0-.34-.39L303.31,388a.86.86,0,0,1-1-1.36l19.84-18.41a.24.24,0,0,0-.25-.41l-26.25,10.54a.84.84,0,0,1-.77-1.48l23.1-15a.24.24,0,0,0-.19-.44l-27.87,6.29a.82.82,0,0,1-.51-1.56l25.8-11.27a.23.23,0,0,0-.11-.43l-28.68,1.84a.82.82,0,0,1-.26-1.62l27.58-7.07a.22.22,0,0,0,0-.44l-28.61-2.67a.81.81,0,0,1,0-1.62l28.68-2.67a.21.21,0,0,0,0-.42l-27.64-7.08a.82.82,0,0,1,.26-1.62Z"/><path class="cls-2" d="M402.14,390.56s.94-2.3,1.43-3.93l6.34,8.41a.88.88,0,0,1-1.27,1.19Z"/><path class="cls-2" d="M405.05,380s.53-3.81.62-5.91l13.44,12.47a.85.85,0,0,1-1,1.36Z"/><path class="cls-2" d="M405.82,370.31a47,47,0,0,0-.47-7.28l21.16,13.79a.84.84,0,0,1-.77,1.49Z"/><path class="cls-2" d="M405.11,361.69h0s-1.07-11.82-14.74-21.24c-7.14-4.93-15.85-8.22-23.51-11.14-5.88-2.21-11.42-4.34-15.42-6.84-4.47-2.83-6.56-5.87-6.56-9.57a9,9,0,0,1,2.68-6.71c3.07-3,8.68-4.37,16.25-4.3,8.12.06,16.74,3.72,16.74,3.72l17.18-21.25a.89.89,0,0,1,1.49,1l-11.68,23.49a.23.23,0,0,0,.35.27L408.64,291a.87.87,0,0,1,1.27,1.18l-16,21.31a.23.23,0,0,0,.3.33L418,299.33a.86.86,0,0,1,1,1.37L399.2,319.13a.22.22,0,0,0,.24.37l26.3-10.56a.84.84,0,0,1,.77,1.49L403.36,325.5a.23.23,0,0,0,.17.41l28-6.31a.82.82,0,0,1,.51,1.56l-25.8,11.27a.23.23,0,0,0,.11.43L435,331a.83.83,0,0,1,.26,1.63l-27.54,7.06a.22.22,0,0,0,0,.44l28.57,2.66a.82.82,0,0,1,0,1.63l-28.57,2.66a.22.22,0,0,0,0,.44l27.54,7.06a.82.82,0,0,1-.26,1.62l-28.64-1.83a.23.23,0,0,0-.11.43L432,366.09a.82.82,0,0,1-.51,1.56Z"/></svg>