<?xml version="1.0" encoding="UTF-8"?><svg id="LOGOS" xmlns="http://www.w3.org/2000/svg" viewBox="0 0 1250 703"><defs><style>.cls-1{fill:#48206e;}.cls-1,.cls-2{stroke-width:0px;}.cls-2{fill:#231f20;}</style></defs><g id="Layer_4"><path class="cls-1" d="M401.98777,209.71329c1.69441-2.06046,3.38882-3.09068,6.21283-3.09068s3.95362.51512,6.21283,3.09068l66.92909,90.14529h-29.4262c-7.34244,0-12.42566,2.5755-16.37928,7.72706l-62.35419,83.9641h-106.18285l134.98777-181.83645Z"/><path class="cls-2" d="M542.56766,456.40373h-12.08677c-2.59809,0-4.74434-1.90564-4.74434-4.27555v-93.28728c0-2.36991,2.08976-4.32695,4.68785-4.32695h46.08788c5.36563,0,10.67478.82405,15.70152,2.52411,4.46192,1.75088,8.52851,4.17219,12.08677,7.26279,1.6944,1.5453,3.27584,3.29674,4.57491,5.15099,1.35551,1.90621,2.48512,3.91522,3.38881,5.97561,1.86384,4.53311,2.76752,9.37515,2.76752,14.2172,0,7.88126-2.08976,14.62953-6.26929,20.19283-3.21937,4.42973-7.56835,8.08682-12.65158,10.61094-1.01665.4637-1.80737,1.28773-2.14626,2.31851-.2824,1.0302,0,2.11178.73425,2.83304,3.78419,4.6359,7.34243,9.01425,10.73125,13.18701,3.38881,4.12079,6.94707,8.49914,10.61827,13.18701.79074.87544,1.01665,2.00899.67778,3.03919-.33889.97881-1.41201,1.6481-2.54162,1.54531h-15.4191c-1.41201,0-2.82401-.36091-4.12306-.97881-1.29904-.5665-2.42865-1.33914-3.33234-2.36934-1.7509-2.11236-3.4453-4.22415-5.1397-6.33595l-5.1397-6.33595-10.0535-12.92946c-.90368-1.08217-2.03329-1.90622-3.38881-2.5241-1.29904-.61846-2.65458-.92743-4.12306-.97881h-11.7479c-2.59809,0-4.68785,1.85425-4.74434,4.22359v23.90187c0,1.13301-.45183,2.2146-1.29904,3.03921-.84719.82405-2.03329,1.23635-3.27584,1.23635l.16943-.10335ZM551.88691,406.69491h24.73833c2.03329,0,4.06658-.41176,5.93042-1.13299,2.08978-.66987,4.06658-1.75146,5.64802-3.19397,1.63793-1.54529,2.99347-3.34815,3.95362-5.30575,1.12961-2.36934,1.63793-4.94484,1.52497-7.52035,0-1.8034-.22593-3.5543-.62129-5.30575-.16943-1.0302-.50832-2.009-.90368-2.9878s-.84719-1.90621-1.35551-2.83305c-1.29904-1.90621-3.04994-3.5543-5.19619-4.73926-2.76752-1.39054-5.87395-2.0604-8.98036-1.9576h-24.73833c-2.59811,0-4.68787,1.85481-4.74434,4.22416v26.42541c0,2.36992,2.03327,4.27555,4.63138,4.32696h.11296Z"/><path class="cls-2" d="M845.30119,439.5585l6.38225-8.6539c.62129-.97881,1.69442-1.6481,2.937-1.80286,1.24257-.20615,2.48514.05141,3.50179.66987,4.34896,2.47213,8.8109,4.68729,13.44228,6.6963,5.87395,2.62689,12.31269,3.96659,18.80793,3.91521,3.10639.05139,6.21282-.36091,9.20626-1.23637,2.42865-.66985,4.68787-1.70005,6.72116-3.09059,1.69438-1.13355,3.10639-2.62745,4.12303-4.3275.9037-1.44195,1.35556-3.09062,1.35556-4.7387,0-1.9576-.73427-3.81185-2.14628-5.30575-1.58144-1.44251-3.4453-2.62691-5.47859-3.50291-1.18608-.4637-2.42865-.9274-3.67118-1.23635-1.29906-.36035-2.82401-.72126-4.46194-1.13299-1.52499-.36091-3.10643-.66987-4.63138-.97881-1.52499-.30894-3.21937-.5665-4.97029-.82405l-3.67122-.61846c-1.29902-.20615-2.71103-.51509-4.12303-.77264-5.76101-1.18496-13.66821-3.45094-18.41257-5.61469-3.04994-1.39055-5.81746-3.24536-8.24611-5.40855-2.54159-2.21516-4.57489-4.84205-5.93044-7.77846-1.46846-3.34815-2.20273-7.00582-2.14623-10.6115,0-5.87226,1.29906-10.8171,3.9536-14.8865,2.54164-3.76046,5.98693-6.95441,10.05352-9.32376,4.29247-2.21516,8.92385-3.81185,13.7247-4.73926,4.80081-.9274,9.71457-1.39055,14.68485-1.39055,4.17953,0,8.35905.25755,12.53862.82405,1.75087.25754,3.50175.61789,5.25266,1.0302,2.88046.72126,7.34241,2.16319,9.71457,3.19396,1.52499.72069,2.99349,1.44194,4.4055,2.16319,1.01665.5665,4.74432,2.5755,5.9304,3.29675s1.75092,1.64866,1.9768,2.78165c.22593,1.13299-.11294,2.31795-.90366,3.19396l-6.43874,8.34439c-.73427.9788-1.86386,1.59727-3.10643,1.80341-1.24257.20559-2.54159-.05196-3.55824-.66986-3.55828-2.11179-7.34245-3.91465-11.29605-5.30575-4.9138-1.80284-10.10997-2.67885-15.41912-2.62689-.90366,0-1.92031,0-2.99345.15419-1.07314.15476-2.14623.20616-3.27586.41231-2.31567.4637-4.57489,1.13299-6.72112,2.11179-.9602.4637-1.92035.9788-2.82401,1.54531-.84721.56706-1.63793,1.23635-2.3722,1.9576-1.29902,1.4939-2.03325,3.34815-1.9768,5.30575,0,1.9576.84721,3.81185,2.42865,5.15099,1.80737,1.4939,3.95364,2.67886,6.26931,3.50291,1.29906.4637,2.65458.87602,4.06658,1.23635,1.35551.36035,2.82401.72126,4.34896,1.13299,1.52499.41232,3.04994.66987,4.46194.97881s14.74135,2.83304,16.32279,3.14256c1.58148.30894,3.04994.72126,4.57493,1.18438.79072.20617,1.63793.41232,2.54159.66987l2.54159.82405c1.24257.4637,2.59813,1.08158,4.17957,1.80284,1.41201.66985,2.76752,1.39111,4.06658,2.21516.79072.4637,1.52495.9274,2.20273,1.44249.67774.51511,1.29902,1.0302,1.92031,1.6481,2.54164,2.31795,4.51844,5.0482,5.81746,8.08741,1.63793,3.70906,2.3722,7.67509,2.31571,11.69311.11294,4.73926-.96015,9.42655-3.04994,13.80545-1.9768,3.81185-4.97025,7.10862-8.69796,9.63271-4.01009,2.72969-8.58498,4.7387-13.44228,5.87225-5.64802,1.33914-11.40903,1.95704-17.22649,1.95704-5.19617.10335-10.44884-.25755-15.53207-1.13299-4.12303-.66985-8.18962-1.75146-12.08677-3.24536-1.80737-.6179-3.61473-1.33914-5.36561-2.16319-1.75092-.82461-3.4453-1.64866-5.02674-2.57607-1.01665-.5665-2.03329-1.13299-3.04994-1.7509-1.01665-.61846-2.08978-1.28831-3.21937-2.00899-1.07314-.56708-1.80737-1.54531-1.97684-2.62747-.16943-1.13299.11298-2.26654.79076-3.19339l-.11298-.10335Z"/><path class="cls-2" d="M953.96916,444.70838c0-1.23637.16948-2.42074.50834-3.6057.33887-1.13299.79072-2.21516,1.4685-3.19397.62124-.97823,1.35551-1.90564,2.25918-2.72969.84721-.82461,1.86386-1.54529,2.937-2.11236,1.0731-.61788,2.25922-1.0302,3.4453-1.33914,1.24257-.30894,2.54159-.4637,3.84066-.4637s2.59809.15476,3.89711.4637c2.42865.6179,4.68787,1.80284,6.43874,3.4515.9037.82405,1.63793,1.75146,2.25922,2.72969.62129,1.03022,1.12963,2.11236,1.4685,3.19397.33887,1.18496.5083,2.36934.5083,3.6057,0,1.80284-.39536,3.60568-1.12959,5.25434-1.4685,3.24536-4.23602,5.82086-7.73781,7.21141-1.80737.72124-3.72767,1.08214-5.70447,1.08214-1.29906,0-2.59809-.15474-3.84066-.51509-1.18608-.30952-2.3722-.77264-3.4453-1.33972-1.07314-.5665-2.08978-1.28773-2.937-2.11178-.90366-.82405-1.63793-1.75146-2.25918-2.73027-.67778-.97879-1.12963-2.11178-1.4685-3.19339-.33887-1.18496-.56479-2.36992-.56479-3.60626l.05645-.05139ZM957.52744,444.70838c0,1.39111.28238,2.83304.84721,4.12079.5083,1.23635,1.29902,2.36992,2.31567,3.34871.96015.92684,2.14623,1.69949,3.4453,2.26654,1.35551.56652,2.76752.82405,4.23602.82405s2.99345-.25753,4.34896-.82405c2.71107-1.08214,4.80085-3.09115,5.8175-5.61525,1.12959-2.62689,1.12959-5.56275,0-8.24161-.50834-1.23635-1.35556-2.36934-2.31571-3.34815-1.01665-.9274-2.20273-1.70005-3.50179-2.21514-1.35551-.56652-2.82401-.82405-4.34896-.82405-1.4685,0-2.93695.25753-4.23602.82405-1.29906.51509-2.48514,1.28773-3.4453,2.21514-.96015.97881-1.75087,2.1118-2.31567,3.34815-.56484,1.28775-.84721,2.67886-.84721,4.12081ZM963.3449,437.85732h6.15633c.67778,0,1.35556.10335,1.97684.30894.56479.20615,1.0731.51511,1.52495.87602.45185.36035.79072.82405,1.01665,1.33914.22593.5665.33887,1.13355.33887,1.75146,0,.4637-.05645.97881-.28238,1.39111-.16943.36035-.39536.7207-.67778,1.0302-.22593.25755-.5083.51511-.84721.66929-.28238.15476-.56479.25755-.84721.36091v.10279l.16948.25755s.16943.25755.22588.41229l2.71107,4.94487h-3.84066l-2.48514-4.94487h-1.9768v4.94487h-3.4453l.22593-13.49597.05649.05141ZM968.767,444.14188c.56479,0,1.18608-.15476,1.58144-.5665.39536-.41232.62129-.9274.62129-1.49392s-.16943-1.08158-.56479-1.4939c-.39536-.36033-.96015-.5665-1.52499-.51509h-1.9768v4.018h1.92035l-.05649.05141Z"/><path class="cls-2" d="M434.74688,440.38368c-1.41201,0-2.76753.41229-3.89714,1.13299-1.18608.66985-2.14624,1.54587-2.82401,2.67886l-4.5749,8.34496c-1.41201,2.62689-4.34898,3.91465-6.72115,3.91465h-13.95062c-2.5981,0-3.4453-1.85425-2.37217-3.75991l52.97846-96.48179c.62129-1.133,1.92033-1.6995,3.04994-1.6995s2.42865.5665,3.04994,1.6995l52.97845,96.48179c1.07314,1.90566.22593,3.75991-2.37216,3.75991h-13.95063c-2.37216,0-5.30913-1.28775-6.72114-3.91465l-4.57491-8.34496c-.67776-1.08161-1.63791-2.00901-2.82401-2.67886-1.12961-.7207-2.48512-1.08161-3.89713-1.13299h-43.37683ZM454.402,396.54711l-11.91732,22.97446c-.50832.82403-.5648,1.85425-.05648,2.73025.5648.82405,1.63792,1.28775,2.71105,1.1844h22.5921c1.07312.10335,2.14626-.36035,2.71105-1.1844.45185-.876.45185-1.85481-.05647-2.73025l-11.91733-22.97446c-.50832-1.13301-1.18608-1.6481-1.97682-1.6481s-1.46848.5665-1.9768,1.6481h-.11296Z"/><path class="cls-2" d="M756.96609,356.72627v95.39964c0,1.13357-.45185,2.21516-1.35551,3.03921-.79072.82461-1.9768,1.28775-3.21937,1.28775h-12.08677c-1.24257,0-2.48514-.46314-3.33236-1.28775-.90366-.77264-1.41201-1.90564-1.41201-3.03921v-42.85777c0-1.23579-.28238-1.95702-.79072-2.16319-.5083-.20615-1.29906,0-2.08978,1.18496l-28.80491,31.57642c-.67774.9274-1.80737,1.44249-2.99345,1.44249s-2.31567-.56706-2.99345-1.44249l-29.03084-31.67977c-.79072-.92684-1.52499-1.28775-2.08978-1.13299-.56479.15418-.96015.87544-.96015,2.11178v42.85777c0,1.13299-.45185,2.21516-1.35551,3.03921-.84721.87544-2.08978,1.33914-3.38885,1.28775h-11.91729c-2.59813,0-4.68787-1.9576-4.74436-4.32696v-95.29684c-.05649-.5151.11294-1.0302.45185-1.39055.33887-.41231.84721-.66985,1.41201-.72125,1.18608-.15476,2.31567.25754,3.04994,1.13355l48.17764,54.44753c.79072.77264,1.92031,1.23635,3.04994,1.23635s2.25922-.4637,3.04994-1.23635l48.34707-54.29334c.67778-.87544,1.86386-1.33914,3.04994-1.13299,1.0731.10279,1.86386.9788,1.80737,1.95704h.16943Z"/><path class="cls-2" d="M808.41904,456.40146h-12.08677c-1.24257,0-2.42865-.41229-3.27586-1.28831-.84721-.82403-1.35551-1.90564-1.29906-3.03919v-93.1331c0-1.13299.39536-2.26654,1.29906-3.09059.84721-.82405,2.03329-1.28775,3.27586-1.23636h12.08677c1.24257,0,2.42865.41231,3.33231,1.23636.9037.82405,1.41201,1.90621,1.41201,3.09059v93.1331c0,1.13355-.5083,2.21516-1.41201,3.03919-.84721.82461-2.08974,1.28831-3.33231,1.28831Z"/></g></svg>