<svg id="LOGO" xmlns="http://www.w3.org/2000/svg" viewBox="0 0 1250 703"><title>nvidia-partner-arrow-logo</title><path d="M229.26,436.47a13.87,13.87,0,0,1-3.34-.41,14.28,14.28,0,0,1-10.54-17.21L249.77,276A14.29,14.29,0,0,1,263.65,265h39A14.26,14.26,0,0,1,316.48,276l31.14,129.29h22.49V279.32A14.3,14.3,0,0,1,384.4,265h71.42a14.31,14.31,0,0,1,14.3,14.28v65.16l33.13,60.79h13.6V279.32A14.28,14.28,0,0,1,531.13,265h71.41a14.28,14.28,0,0,1,14.28,14.28v65.16L650,405.27h98v-83.1a14.28,14.28,0,1,1,28.55,0v97.38a14.29,14.29,0,0,1-14.28,14.29H641.49A14.32,14.32,0,0,1,629,426.39L590,355a14.07,14.07,0,0,1-1.74-6.83V293.61H545.43V419.55a14.3,14.3,0,0,1-14.3,14.29H494.76a14.34,14.34,0,0,1-12.55-7.45L443.28,355a14.3,14.3,0,0,1-1.74-6.83V293.61H398.7V419.55a14.3,14.3,0,0,1-14.3,14.29h-48a14.26,14.26,0,0,1-13.88-11L291.36,293.61H274.9L243.16,425.53A14.31,14.31,0,0,1,229.26,436.47Z" fill="#231f20"/><path d="M983,433.84H951.81a14.28,14.28,0,0,1-14-11.56l-25-128.67h-3.71L884,422.28a14.28,14.28,0,0,1-14,11.56H838.83a14.27,14.27,0,0,1-14-11.56l-25-128.67H689.53v83.11a14.29,14.29,0,0,1-28.57,0v-97.4A14.29,14.29,0,0,1,675.24,265H811.58a14.28,14.28,0,0,1,14,11.56l25,128.67h7.62l25-128.67a14.3,14.3,0,0,1,14-11.56h27.27a14.3,14.3,0,0,1,14,11.56l25,128.67h7.63L996.72,274a14.28,14.28,0,1,1,28,5.46L997,422.28A14.25,14.25,0,0,1,983,433.84Z" fill="#231f20"/></svg>