<?xml version="1.0" encoding="utf-8"?>
<!-- Generator: Adobe Illustrator 26.3.1, SVG Export Plug-In . SVG Version: 6.00 Build 0)  -->
<svg version="1.1" id="Layer_1" xmlns="http://www.w3.org/2000/svg" xmlns:xlink="http://www.w3.org/1999/xlink" x="0px" y="0px"
	 viewBox="0 0 1250 703" style="enable-background:new 0 0 1250 703;" xml:space="preserve">
<style type="text/css">
	.st0{fill:#061D25;}
	.st1{fill:#9FCEEE;}
	.st2{fill:url(#SVGID_1_);}
</style>
<g id="Layer_1_00000168838103417341724770000009581445770154447753_">
</g>
<g id="Layer_2_00000137121779028993706000000010576183586504015800_">
	<g>
		<g>
			<path class="st0" d="M527.5,336.8c6.1,3.4,10.1,7.7,12.1,13.3c2,5.5,3.1,12.6,3.1,21.1V427h-26.1v-8.1c-4,3.7-8,6.3-11.9,7.9
				c-3.9,1.6-8.2,2.3-13,2.3c-10.3,0-18.6-2.9-24.7-8.6c-6.1-5.7-9.2-13.5-9.2-23.5c0-10.2,3.2-18.2,9.4-23.6
				c6.2-5.5,14.9-8.2,26-8.2c8.9,0,16.7,1.7,23.3,5.1c-0.1-3.7-0.6-6.6-1.5-8.9c-1-2.2-2.6-3.9-5.3-5.1c-2.6-1.2-6.5-1.8-11.7-1.8
				h-17.5v-22.7h20.1C512.4,331.8,521.3,333.5,527.5,336.8z M519.7,400.1v-11.9c-5.8-2.9-11.6-4.2-17.3-4.2c-4.5,0-8.1,1.1-10.8,3.1
				s-4,5.2-4,9.6c0,7.9,4.2,11.9,12.7,11.9C506.5,408.5,513,405.7,519.7,400.1z"/>
			<path class="st0" d="M713.5,339.3c6.1,6.3,9.2,16.6,9.2,30.5v57.1h-26.1v-57.1c0-5.6-1.3-9.8-3.7-12.6c-2.5-2.7-6.8-4.1-12.9-4.1
				c-7.2,0-14.5,3-21.6,9V427h-26.1v-95.2h26.1v8.2c8.3-6.9,17.4-10.3,27.2-10.3C698,329.8,707.3,333,713.5,339.3z"/>
			<path class="st0" d="M760,423.5c-7.6-4.4-13.2-10.4-17-18c-3.8-7.6-5.7-16.3-5.7-25.8s1.9-18.1,5.7-25.6
				c3.8-7.6,9.4-13.6,17-18.1c7.6-4.4,16.7-6.6,27.4-6.6c10.7,0,19.7,2.2,27.2,6.6c7.4,4.4,13.1,10.5,16.8,18.1
				c3.8,7.6,5.7,16.1,5.7,25.6c0,9.6-1.9,18.2-5.7,25.8c-3.8,7.6-9.4,13.6-16.8,18c-7.4,4.4-16.5,6.5-27.2,6.5
				C776.7,430,767.5,427.8,760,423.5z M804.1,400.3c3.8-4.9,5.7-11.8,5.7-20.7c0-8.8-1.9-15.6-5.7-20.6c-3.8-4.9-9.4-7.4-16.8-7.4
				c-7.4,0-13.1,2.4-17,7.4c-3.9,4.9-5.8,11.7-5.8,20.6c0,8.8,1.9,15.6,5.8,20.6c3.9,5,9.6,7.4,17,7.4
				C794.6,407.7,800.2,405.2,804.1,400.3z"/>
			<path class="st0" d="M908.1,329.8v23.3h-3.9c-8.9,0-17.7,3.3-26.6,9.8V427h-26.1v-95.2h26.1v9.1c8.7-7.4,17.5-11.2,26.6-11.2h3.9
				V329.8z"/>
		</g>
		<path class="st0" d="M1078.9,339.3c-6.1-6.3-15.4-9.6-27.9-9.6c-9.8,0-18.9,3.5-27.2,10.3v-56.2L997.7,310V427h26.1v-64.9
			c7.2-6,14.5-9,21.6-9c6.1,0,10.3,1.4,12.9,4.1c2.4,2.7,3.7,7,3.7,12.6v57.1h26.1v-57.1C1088.2,355.9,1085.1,345.8,1078.9,339.3z"
			/>
		<polygon class="st1" points="159.9,427.8 347.7,240 378.4,338.4 406.6,366.6 406.6,427.8 		"/>
		
			<linearGradient id="SVGID_1_" gradientUnits="userSpaceOnUse" x1="256.7446" y1="308.4903" x2="379.9807" y2="431.7264" gradientTransform="matrix(1 0 0 -1 0 704)">
			<stop  offset="0" style="stop-color:#0067B4"/>
			<stop  offset="0.9581" style="stop-color:#9EB1D9"/>
		</linearGradient>
		<polygon class="st2" points="378.4,338.4 289,427.8 347.7,240 		"/>
		<path class="st0" d="M596.2,357.9h21.6v-23.1h-21.6v-32.1h-0.1l-25.9,25.8v6.3h-12.9v23.1h12.9v46.5c0,8.2,2.3,14.5,6.9,18.6
			c4.5,4.2,11.7,6.2,21.4,6.2c4.9,0,10.6-0.7,17.1-2.2v-22.3c-3.3,1-6.8,1.4-10.3,1.4c-3.4,0-5.7-0.7-7-2.3
			c-1.3-1.6-1.9-4.3-1.9-8.2v-31v-6.6H596.2z"/>
		<path class="st0" d="M961.6,358h21.6v-23.1h-21.6v-32.1h-0.1l-25.9,25.8v6.3h-12.9V358h12.9v46.5c0,8.2,2.3,14.5,6.9,18.6
			c4.5,4.2,11.7,6.2,21.4,6.2c4.9,0,10.6-0.7,17.1-2.2v-22.3c-3.3,1-6.8,1.4-10.3,1.4c-3.4,0-5.7-0.7-7-2.3
			c-1.3-1.6-1.9-4.3-1.9-8.2v-31.1V358H961.6z"/>
	</g>
</g>
</svg>
