<?xml version="1.0" encoding="utf-8"?>
<!-- Generator: Adobe Illustrator 23.0.3, SVG Export Plug-In . SVG Version: 6.00 Build 0)  -->
<svg version="1.1" id="Layer_1" xmlns="http://www.w3.org/2000/svg" xmlns:xlink="http://www.w3.org/1999/xlink" x="0px" y="0px"
	 viewBox="0 0 1250 703" style="enable-background:new 0 0 1250 703;" xml:space="preserve">
<style type="text/css">
	.st0{clip-path:url(#SVGID_2_);}
	.st1{clip-path:url(#SVGID_4_);}
	.st2{clip-path:url(#SVGID_6_);}
	.st3{fill:#00AAAA;}
	.st4{clip-path:url(#SVGID_8_);}
	.st5{fill:url(#SVGID_9_);}
	.st6{clip-path:url(#SVGID_11_);}
	.st7{opacity:0.5;}
	.st8{clip-path:url(#SVGID_13_);}
	.st9{clip-path:url(#SVGID_15_);}
	.st10{fill:url(#SVGID_16_);}
	.st11{opacity:0.1;}
	.st12{clip-path:url(#SVGID_18_);}
	.st13{clip-path:url(#SVGID_20_);}
	.st14{fill:url(#SVGID_21_);}
	.st15{clip-path:url(#SVGID_23_);}
	.st16{fill:url(#SVGID_24_);}
	.st17{clip-path:url(#SVGID_26_);}
	.st18{fill:url(#SVGID_27_);}
	.st19{clip-path:url(#SVGID_29_);}
	.st20{fill:url(#SVGID_30_);}
	.st21{clip-path:url(#SVGID_32_);}
	.st22{fill:#7AC6CE;}
</style>
<title>nvidia-partner-autodesk-arnold-logo</title>
<g>
	<g id="LOGO">
		<g>
			<defs>
				<rect id="SVGID_1_" x="206" y="255.9" width="194.2" height="190.7"/>
			</defs>
			<clipPath id="SVGID_2_">
				<use xlink:href="#SVGID_1_"  style="overflow:visible;"/>
			</clipPath>
			<g class="st0">
				<g>
					<defs>
						<rect id="SVGID_3_" x="176.6" y="226.9" width="257.1" height="257.1"/>
					</defs>
					<clipPath id="SVGID_4_">
						<use xlink:href="#SVGID_3_"  style="overflow:visible;"/>
					</clipPath>
					<g class="st1">
						<g>
							<defs>
								<rect id="SVGID_5_" x="176.6" y="226.9" width="257.1" height="257.1"/>
							</defs>
							<clipPath id="SVGID_6_">
								<use xlink:href="#SVGID_5_"  style="overflow:visible;"/>
							</clipPath>
							<g class="st2">
								<path class="st3" d="M252.3,445.9c-6.2-0.1-43.2-7.2-45-7.8c-0.2-0.2,0-0.8,0-0.8l0,0l71.3-178.8c1.1-0.1,2.2-0.3,3.4-0.4
									l2.4-0.3c6.3-0.7,12.7-1.1,19-1.1c14.6,0,22.6,2.2,24.3,2.7l71.6,178.9c-1.4,0.9-2.9,1.7-4.4,2.4l0,0
									c-5.8-0.2-48.9-3.4-50-3.6c-1.2-0.2-1.7-2.4-1.7-2.4v0l-0.3-1.2c-2.8-10.7-7.4-28.6-14.4-43.9
									c-8.5-18.7-18.2-28.4-28.8-28.7h-0.3c-8.5,0-16.1,10.5-22.4,31.2c-5,16.1-7.8,33.7-8.7,40.5c-0.2,1.4-0.4,2.7-0.8,4.1
									c-0.3,0.9-0.7,2.1-1.2,3.3c-1.2,3-3.7,5.8-13.3,5.8L252.3,445.9"/>
							</g>
						</g>
						<g>
							<defs>
								<path id="SVGID_7_" d="M281.9,257.3c-33,75.9-35.5,138.4-29.3,189.3c9.4,0.1,12.8-2.4,14.4-6.3c0.5-1.2,0.9-2.4,1.2-3.4
									c0.4-1.4,0.6-2.8,0.8-4.2c1.9-13.1,11.3-71.7,30.7-71.1c24.5,0.8,37.4,52.6,42.8,73.3c0,0,0.5,2.6,2.3,3
									c1.3,0.2,44.9,3.4,50.1,3.6c-2.7-7.4-10.8-29.2-19-50.9c-0.6-0.6-1.3-1.2-1.9-1.8c-27.4-25.9-91.1-47.3-93.1-48.4
									c-18.5-9.8-17.4-20.6-14.6-33c0.6-2.8,10-31.5,18.1-50.5L281.9,257.3"/>
							</defs>
							<clipPath id="SVGID_8_">
								<use xlink:href="#SVGID_7_"  style="overflow:visible;"/>
							</clipPath>
							<g class="st4">
								
									<radialGradient id="SVGID_9_" cx="-16.2653" cy="936.1293" r="0.25" gradientTransform="matrix(374.1819 -96.8397 215.2441 831.6884 -195092.125 -779774.5625)" gradientUnits="userSpaceOnUse">
									<stop  offset="0" style="stop-color:#1F6470"/>
									<stop  offset="0.36" style="stop-color:#1F6470"/>
									<stop  offset="0.92" style="stop-color:#00AAAA"/>
									<stop  offset="1" style="stop-color:#00AAAA"/>
								</radialGradient>
								<polygon class="st5" points="200.4,269 385.5,221.1 440.8,434.8 255.7,482.7 								"/>
							</g>
						</g>
						<g>
							<defs>
								<rect id="SVGID_10_" x="176.6" y="226.9" width="257.1" height="257.1"/>
							</defs>
							<clipPath id="SVGID_11_">
								<use xlink:href="#SVGID_10_"  style="overflow:visible;"/>
							</clipPath>
							<g class="st6">
								<g class="st7">
									<g>
										<defs>
											<rect id="SVGID_12_" x="249.9" y="257" width="144.9" height="189.6"/>
										</defs>
										<clipPath id="SVGID_13_">
											<use xlink:href="#SVGID_12_"  style="overflow:visible;"/>
										</clipPath>
										<g class="st8">
											<g>
												<defs>
													<path id="SVGID_14_" d="M373.9,388.9c-27.4-25.9-91.1-47.3-93.1-48.4c-18.5-9.8-17.4-20.6-14.6-33
														c0.6-2.8,10-31.5,18.1-50.5l-2.4,0.3c-33,76-35.5,138.5-29.3,189.3c9.4,0.1,12.8-2.4,14.4-6.3c0.5-1.2,0.9-2.4,1.2-3.4
														c0.4-1.4,0.6-2.8,0.8-4.2c1.9-13.1,11.3-71.7,30.7-71.1c24.5,0.8,37.4,52.6,42.8,73.3c0,0,0.5,2.6,2.3,3
														c1.3,0.2,44.9,3.4,50.1,3.6c-2.7-7.4-10.8-29.2-19-50.9C375.2,390.1,374.6,389.5,373.9,388.9"/>
												</defs>
												<clipPath id="SVGID_15_">
													<use xlink:href="#SVGID_14_"  style="overflow:visible;"/>
												</clipPath>
												<g class="st9">
													<g>
														
															<radialGradient id="SVGID_16_" cx="-17.1829" cy="935.1544" r="0.25" gradientTransform="matrix(80.0164 -393.9969 229.9458 46.6994 -213371.2031 -50009.9922)" gradientUnits="userSpaceOnUse">
															<stop  offset="0" style="stop-color:#1F6470"/>
															<stop  offset="0.36" style="stop-color:#1F6470"/>
															<stop  offset="0.49" style="stop-color:#538891"/>
															<stop  offset="0.92" style="stop-color:#FFFFFF"/>
															<stop  offset="1" style="stop-color:#FFFFFF"/>
														</radialGradient>
														<polygon class="st10" points="209.4,439.2 252.3,228.1 431.8,264.6 389,475.7 														"/>
													</g>
												</g>
											</g>
										</g>
									</g>
								</g>
								<g class="st11">
									<g>
										<defs>
											<rect id="SVGID_17_" x="249.9" y="257" width="144.9" height="189.6"/>
										</defs>
										<clipPath id="SVGID_18_">
											<use xlink:href="#SVGID_17_"  style="overflow:visible;"/>
										</clipPath>
										<g class="st12">
											<g>
												<defs>
													<path id="SVGID_19_" d="M373.9,388.9c-27.4-25.9-91.1-47.3-93.1-48.4c-18.5-9.8-17.4-20.6-14.6-33
														c0.6-2.8,10-31.5,18.1-50.5l-2.4,0.3c-33,76-35.5,138.5-29.3,189.3c9.4,0.1,12.8-2.4,14.4-6.3c0.5-1.2,0.9-2.4,1.2-3.4
														c0.4-1.4,0.6-2.8,0.8-4.2c1.9-13.1,11.3-71.7,30.7-71.1c24.5,0.8,37.4,52.6,42.8,73.3c0,0,0.5,2.6,2.3,3
														c1.3,0.2,44.9,3.4,50.1,3.6c-2.7-7.4-10.8-29.2-19-50.9C375.2,390.1,374.6,389.5,373.9,388.9"/>
												</defs>
												<clipPath id="SVGID_20_">
													<use xlink:href="#SVGID_19_"  style="overflow:visible;"/>
												</clipPath>
												<g class="st13">
													<g>
														
															<radialGradient id="SVGID_21_" cx="-23.2888" cy="935.4373" r="0.25" gradientTransform="matrix(60.6531 -119.0385 535.4236 272.812 -499113.4688 -257618.6562)" gradientUnits="userSpaceOnUse">
															<stop  offset="0" style="stop-color:#1F6470"/>
															<stop  offset="0.36" style="stop-color:#1F6470"/>
															<stop  offset="0.49" style="stop-color:#538891"/>
															<stop  offset="0.92" style="stop-color:#FFFFFF"/>
															<stop  offset="1" style="stop-color:#FFFFFF"/>
														</radialGradient>
														<polygon class="st14" points="169.7,407.6 277,197 471.5,296.1 364.2,506.7 														"/>
													</g>
												</g>
											</g>
										</g>
									</g>
								</g>
							</g>
						</g>
						<g>
							<defs>
								<path id="SVGID_22_" d="M278,257.8L206.6,437c0,0-0.6,1.2,0.3,1.8s39.1,7.8,45.3,7.9h0.3c-6.2-50.8-3.7-113.3,29.3-189.3
									L278,257.8"/>
							</defs>
							<clipPath id="SVGID_23_">
								<use xlink:href="#SVGID_22_"  style="overflow:visible;"/>
							</clipPath>
							<g class="st15">
								
									<radialGradient id="SVGID_24_" cx="-14.6982" cy="936.91" r="0.25" gradientTransform="matrix(223.89 0 0 587.49 3508.666 -550074.0625)" gradientUnits="userSpaceOnUse">
									<stop  offset="0" style="stop-color:#00AAAA"/>
									<stop  offset="0.78" style="stop-color:#1F6470"/>
									<stop  offset="1" style="stop-color:#1F6470"/>
								</radialGradient>
								<rect x="206" y="257.3" class="st16" width="75.9" height="189.3"/>
							</g>
						</g>
						<g>
							<defs>
								<path id="SVGID_25_" d="M394.8,441.5h0.2c0,0,4.2-1.9,5.2-2.9L384,398c-2.7-2.4-5.4-4.8-8.1-7.4
									C384,412.3,392.1,434.1,394.8,441.5"/>
							</defs>
							<clipPath id="SVGID_26_">
								<use xlink:href="#SVGID_25_"  style="overflow:visible;"/>
							</clipPath>
							<g class="st17">
								
									<radialGradient id="SVGID_27_" cx="-16.7256" cy="932.7642" r="0.25" gradientTransform="matrix(-169.977 -284.0109 284.0109 -169.977 -267401.5 154231.1562)" gradientUnits="userSpaceOnUse">
									<stop  offset="0" style="stop-color:#1F6470"/>
									<stop  offset="0.36" style="stop-color:#1F6470"/>
									<stop  offset="0.92" style="stop-color:#00AAAA"/>
									<stop  offset="1" style="stop-color:#00AAAA"/>
								</radialGradient>
								<polygon class="st18" points="353.4,404.1 393.8,379.9 422.6,428.1 382.2,452.3 								"/>
							</g>
						</g>
						<g>
							<defs>
								<path id="SVGID_28_" d="M284.3,257c-8.2,18.9-17.5,47.7-18.1,50.5c-2.7,12.4-3.9,23.1,14.6,33c2,1.1,65.8,22.5,93.1,48.4
									c0.6,0.6,1.3,1.2,1.9,1.8c2.7,2.5,5.4,5,8.1,7.4l-25.2-63.1l-30.5-76.1c0,0-8-2.9-24.9-2.9C297,256,290.6,256.4,284.3,257"
									/>
							</defs>
							<clipPath id="SVGID_29_">
								<use xlink:href="#SVGID_28_"  style="overflow:visible;"/>
							</clipPath>
							<g class="st19">
								
									<radialGradient id="SVGID_30_" cx="-13.7213" cy="935.8767" r="0.25" gradientTransform="matrix(283.9695 803.2416 -513.3068 181.4691 484556.2812 -158482.2812)" gradientUnits="userSpaceOnUse">
									<stop  offset="0" style="stop-color:#93C7CD"/>
									<stop  offset="7.000000e-02" style="stop-color:#93C7CD"/>
									<stop  offset="0.69" style="stop-color:#2C797B"/>
									<stop  offset="0.88" style="stop-color:#307C7F"/>
									<stop  offset="1" style="stop-color:#378184"/>
								</radialGradient>
								<polygon class="st20" points="217.7,271.7 370.5,217.7 428.6,382.2 275.8,436.2 								"/>
							</g>
						</g>
						<g>
							<defs>
								<rect id="SVGID_31_" x="176.6" y="226.9" width="257.1" height="257.1"/>
							</defs>
							<clipPath id="SVGID_32_">
								<use xlink:href="#SVGID_31_"  style="overflow:visible;"/>
							</clipPath>
							<g class="st21">
								<path class="st22" d="M269.6,288.8l-1.5,4.8l-1.5,4.8c-0.2,0.8-0.5,1.6-0.7,2.4l-0.7,2.4l-1.4,4.8l-0.7,2.4l-0.3,1.2
									l-0.3,1.2l-1.2,4.9l-1.2,4.9c-0.4,1.6-0.7,3.2-1.1,4.9c-2.9,13-5.1,26.2-6.6,39.4l-0.5,5l-0.2,2.5c-0.1,0.8-0.1,1.7-0.2,2.5
									l-0.4,5l-0.2,2.5l-0.1,2.5l-0.2,5c0,0.8-0.1,1.7-0.1,2.5l-0.1,2.5c0,3.3-0.2,6.7-0.1,10v5c0,1.7,0.1,3.3,0.1,5
									s0.1,3.3,0.2,5l0.3,5c0.1,3.3,0.4,6.7,0.7,10c0.1,1.7,0.3,3.3,0.5,5l0.5,5l-0.6-5c-0.2-1.6-0.4-3.3-0.6-5
									c-0.3-3.3-0.7-6.6-0.9-10l-0.4-5c-0.1-1.7-0.2-3.3-0.2-5s-0.2-3.3-0.2-5l-0.1-5l-0.1-2.5c0-0.4,0-0.8,0-1.2v-1.3l0.1-5v-2.5
									c0-0.8,0.1-1.7,0.1-2.5l0.2-5c0-0.8,0.1-1.7,0.1-2.5l0.2-2.5l0.4-5c0.1-0.8,0.1-1.7,0.2-2.5l0.3-2.5l0.5-5
									c0.1-0.8,0.2-1.7,0.3-2.5l0.3-2.5l0.7-5l0.3-2.5l0.4-2.5l0.8-4.9l0.4-2.5c0.1-0.8,0.3-1.6,0.5-2.5l1-4.9l0.5-2.5l0.2-1.2
									l0.3-1.2l1.1-4.9c0.4-1.6,0.8-3.2,1.1-4.9l1.3-4.8l1.3-4.8l0.3-1.2l0.4-1.2l0.7-2.4l1.5-4.8l0.7-2.4
									c0.2-0.8,0.5-1.6,0.8-2.4l1.6-4.7L269.6,288.8z"/>
								<path class="st22" d="M266.1,307.5c-0.3,1.6-0.6,3.2-0.9,4.9c-0.3,1.6-0.4,3.3-0.5,4.9c-0.2,3.3,0.4,6.6,1.8,9.6
									c0.7,1.5,1.6,2.9,2.6,4.2c1,1.3,2.2,2.4,3.4,3.5c1.3,1.1,2.6,2,4,2.9l1,0.7c0.4,0.2,0.7,0.4,1.1,0.6
									c0.7,0.4,1.4,0.8,2.1,1.2c0.2,0.1,0.4,0.2,0.5,0.2l0.6,0.2l1.2,0.4l2.3,0.9l4.7,1.7c3.1,1.2,6.2,2.4,9.3,3.6
									c6.2,2.4,12.3,5,18.4,7.7s12.1,5.5,18,8.5c5.9,3,11.8,6.2,17.4,9.7l2.1,1.3c0.7,0.4,1.4,0.9,2.1,1.4s1.4,0.9,2.1,1.4l2,1.4
									l1,0.7l1,0.7l2,1.5c0.7,0.5,1.3,1,2,1.5s1.3,1,1.9,1.6l1.9,1.6c0.6,0.5,1.2,1.1,1.8,1.7c1.2,1.1,2.4,2.3,3.6,3.4l3.7,3.4
									l3.7,3.4l-3.7-3.3l-3.7-3.3c-1.3-1.1-2.5-2.2-3.7-3.3c-0.6-0.5-1.2-1.1-1.9-1.6l-2-1.6c-0.3-0.2-0.6-0.5-1-0.8l-1-0.8
									l-2-1.5l-2-1.5l-1-0.7l-1-0.7l-2-1.4c-0.7-0.5-1.4-0.9-2.1-1.3s-1.4-0.9-2.1-1.3l-2.1-1.3l-1.1-0.6l-1.1-0.6l-2.1-1.2
									c-1.4-0.8-2.9-1.6-4.3-2.4c-2.9-1.6-5.8-3.1-8.8-4.6c-5.9-3-11.9-5.8-18-8.5c-6.1-2.7-12.2-5.2-18.3-7.7
									c-3.1-1.2-6.1-2.4-9.2-3.6l-4.6-1.8l-2.3-0.9l-1.2-0.5L281,341c-0.2-0.1-0.4-0.2-0.6-0.3c-0.7-0.4-1.5-0.8-2.2-1.2
									c-0.4-0.2-0.7-0.4-1.1-0.6l-1-0.7c-1.4-0.9-2.7-1.9-4-3c-1.3-1.1-2.4-2.3-3.5-3.6c-1-1.3-1.9-2.8-2.6-4.3
									c-1.3-3.1-1.8-6.5-1.6-9.8C264.7,314.1,265.3,310.8,266.1,307.5"/>
								<polygon class="st22" points="394.4,441.7 375.8,390.6 395.3,441.3 								"/>
							</g>
						</g>
					</g>
				</g>
			</g>
		</g>
		<path d="M511.9,309.2h-30l-7.5,23.7H466l25.1-76.9h11.3l25.9,76.9h-8.6L511.9,309.2z M484.1,302.4h25.6l-12.9-40.3L484.1,302.4z"
			/>
		<path d="M597.5,256.1v76.9h-7.4l-0.5-9.5c-5.8,7-14.5,11-23.6,10.9c-16.8,0-24-11.6-24-26v-52.2h8.2v52.5c0,10.5,4.5,19,17.5,19
			c11.4,0,17.8-6.5,21.6-12.5v-59L597.5,256.1z"/>
		<path d="M668.8,262.9h-22.9v70h-8.2v-70h-22.8v-6.8h54L668.8,262.9z"/>
		<path d="M740.1,286.2v16.9c0,17.2-9.2,31.1-29.9,31.1s-29.9-13.8-29.9-31.1v-16.9c0-18.1,9.3-31.5,29.9-31.5
			C730.9,254.8,740.1,268.5,740.1,286.2z M688.6,286.1v17.2c0,13.5,6.4,24.1,21.6,24.1s21.6-10.6,21.6-24.1v-17.2
			c0-14.2-6.4-24.7-21.6-24.7C695.2,261.4,688.6,271.8,688.6,286.1z"/>
		<path d="M814.4,286.8v13.4c0,20.1-11.8,32.7-33.8,32.7h-19.1v-76.8h21.8C804,256.1,814.4,268.4,814.4,286.8z M806.2,286.6
			c0-14.7-7.8-23.8-23.3-23.8h-13.2v63.5h10.9c16.8,0,25.6-9,25.6-25.8L806.2,286.6z"/>
		<path d="M843.7,262.8V290h31v6.8h-31v29.4h33.4v6.7h-41.6v-76.9h41.6v6.7H843.7z"/>
		<path d="M891.9,311.7h7.9c0.5,8.5,5.6,15.7,20.4,15.7s18.5-7.4,18.5-13.1v-2.5c0-7.8-4.6-10.7-16.1-14.4l-11.1-3.6
			c-11.8-4-16.7-8.9-16.7-18.2v-2.4c0-8.2,7-18.4,25.7-18.4c17.5,0,25.9,9.4,26.5,21.6h-7.9c-0.5-7.5-4.9-14.9-18.5-14.9
			c-13.3,0-17.3,6.7-17.3,11.8v2.2c0,5.7,3.4,9,13.9,12.4l11.1,3.5c12.4,4,18.8,9.1,18.8,20v2.7c0,10.3-7.6,20.2-26.8,20.2
			C902.2,334.2,892.8,325.1,891.9,311.7z"/>
		<path d="M1023.6,327.1l-0.1,5.7c-1.4,0.6-3,0.9-4.5,0.9c-5,0-8-1.8-11.8-7.1L986.4,296l-10.9,13.6v23.3h-7.9v-76.9h7.9v42.4
			l33.7-42.4h9l-26.8,34l23,33.1c2.2,3.1,3.8,4.2,6.9,4.1C1022.1,327.3,1022.8,327.2,1023.6,327.1z"/>
		<path d="M1044,264.2v2.8c0,4.6-3.6,7.9-9.1,7.9c-5.1,0-9.1-3.3-9.1-7.9v-2.7c0-4.1,4-7.7,9.1-7.7
			C1040.4,256.5,1044,260.1,1044,264.2z M1042.7,264.2c0-3.5-3-6.5-7.8-6.5c-4.4,0-7.7,3-7.7,6.5v2.8c0,4,3.3,6.8,7.7,6.8
			c4.8,0,7.8-2.7,7.8-6.8V264.2z M1039.3,270.1h0.2v1c-0.3,0.1-0.5,0.1-0.8,0.1c-0.7,0-1.3-0.4-1.6-1l-1.8-3.4c-0.1,0-0.3,0-0.4,0
			h-1.5v4.2h-1.4v-10.6h3c2.2,0,3.7,1.1,3.7,2.8v0.8c0,1.2-0.8,2.3-2,2.6l1.6,3C1038.5,269.9,1038.9,270.1,1039.3,270.1
			L1039.3,270.1z M1037.3,263.9v-0.6c0-1.1-1-1.7-2.3-1.7h-1.6v4.1h1.4C1036.3,265.6,1037.3,265,1037.3,263.9L1037.3,263.9z"/>
		<path d="M510.4,426.6h-26.6l-5.8,20.2h-13.9l23.5-76.8h18.8l24.7,76.9h-14.3L510.4,426.6z M487,415.5h20.2L497,379.6L487,415.5z"
			/>
		<path d="M602.5,437.8l-0.1,9c-1.9,0.8-3.9,1.2-5.9,1.1c-5.7,0-10.1-2.2-13.5-8.8l-11.3-21.9h-12.5v29.5h-13.8V370h25.9
			c16.1,0,26.9,7.7,26.9,20.4v6.4c0,8-5.3,14.4-13.4,17.8l10.2,19.5c1.2,2.4,3.8,3.9,6.5,3.7H602.5z M559.2,407h11.5
			c8.2,0,13.6-3.7,13.6-10.5V391c0-6.8-5.5-10.5-13.6-10.5h-11.5V407z"/>
		<path d="M676.8,370v76.9h-16l-30.2-59.5v59.5h-12.2V370H635l29.5,57.6V370H676.8z"/>
		<path d="M757.9,399.8v17.2c0,17.9-10.4,31.2-31.6,31.2c-21,0-31.5-13.3-31.5-31.2v-17.2c0-18.1,10.4-31.3,31.5-31.3
			S757.9,381.7,757.9,399.8z M708.6,399.7v17.6c0,12.1,5.6,20.3,17.7,20.3s17.7-8.2,17.7-20.3v-17.6c0-12.4-5.7-20.5-17.7-20.5
			S708.6,387.3,708.6,399.7z"/>
		<path d="M820.8,435.6v11.2h-45V370h13.8v65.6L820.8,435.6z"/>
		<path d="M891.2,400.7v13.6c0,20-11.9,32.5-34,32.5h-22.4V370h25.1C880.7,370,891.2,382.3,891.2,400.7z M877.3,400.4
			c0-12.5-5.9-19.8-18.1-19.8h-10.6v55.6h8.7c13.4,0,20.1-7,20.1-21.6L877.3,400.4z"/>
	</g>
</g>
</svg>
