<svg id="LOGO" xmlns="http://www.w3.org/2000/svg" xmlns:xlink="http://www.w3.org/1999/xlink" viewBox="0 0 1250 703"><defs><style>.cls-1{fill:none;}.cls-2{clip-path:url(#clip-path);}.cls-3{clip-path:url(#clip-path-2);}.cls-4{fill:url(#linear-gradient);}.cls-5{clip-path:url(#clip-path-3);}.cls-6{fill:url(#linear-gradient-2);}.cls-7{clip-path:url(#clip-path-4);}.cls-8{fill:url(#radial-gradient);}.cls-9{clip-path:url(#clip-path-5);}.cls-10{fill:url(#radial-gradient-2);}.cls-11{clip-path:url(#clip-path-6);}.cls-12{fill:url(#linear-gradient-3);}.cls-13{clip-path:url(#clip-path-7);}.cls-14{fill:#bb7a14;}.cls-15{clip-path:url(#clip-path-8);}.cls-16{fill:url(#linear-gradient-4);}.cls-17{clip-path:url(#clip-path-9);}.cls-18{fill:url(#linear-gradient-5);}.cls-19{clip-path:url(#clip-path-10);}.cls-20{fill:url(#linear-gradient-6);}.cls-21{clip-path:url(#clip-path-11);}.cls-22{fill:url(#linear-gradient-7);}.cls-23{clip-path:url(#clip-path-12);}.cls-24{fill:url(#radial-gradient-3);}.cls-25{clip-path:url(#clip-path-13);}.cls-26{fill:url(#radial-gradient-4);}.cls-27{clip-path:url(#clip-path-14);}.cls-28{fill:url(#linear-gradient-8);}.cls-29{fill:#fcc776;}</style><clipPath id="clip-path"><rect class="cls-1" x="211.95183" y="256.1694" width="193.38187" height="187.76156"/></clipPath><clipPath id="clip-path-2"><path class="cls-1" d="M339.79068,442.85978h-.00025l-.002.00461-.00154.00461c-.00305.00717-.00152.00615.002-.00154l.00307-.00614.00229-.00717-.00357.00563"/></clipPath><linearGradient id="linear-gradient" x1="-297.63949" y1="-45.25089" x2="-297.38439" y2="-45.25089" gradientTransform="matrix(291.17166, 0, 0, -291.17166, 86966.83154, -12732.91086)" gradientUnits="userSpaceOnUse"><stop offset="0" stop-color="#5b3d00"/><stop offset="0.00421" stop-color="#5b3d00"/><stop offset="0.18239" stop-color="#7a5107"/><stop offset="0.38506" stop-color="#97630c"/><stop offset="0.5882" stop-color="#ab7011"/><stop offset="0.79023" stop-color="#b77713"/><stop offset="0.98991" stop-color="#bb7a14"/><stop offset="1" stop-color="#bb7a14"/></linearGradient><clipPath id="clip-path-3"><path class="cls-1" d="M350.15163,257.268c-.58749.77329-1.56758,4.86771-2.361,8.18194-.54719,2.285-1.16735,4.87513-1.8533,7.38635-24.28824,88.88013-36.11143,107.65454-38.27189,110.55868l.115.20773-.52577.40419a.81437.81437,0,0,1-.5023.18212l-.71479-.00333-.04183-.58606c-.63368-1.50175-7.06-16.79956-10.815-28.30339-8.54973-26.19228-19.48212-70.3949-23.59793-87.03566-.79821-3.22815-1.32576-5.361-1.42627-5.69506a36.96669,36.96669,0,0,0-1.70025-4.75628c-7.32576-.11246-40.9951-.6191-52.09228-.6191-1.64285,0-2.49413.01127-2.93494.02331a75.18659,75.18659,0,0,0,2.22754,10.43624l.00128.0046c.27143.97488,6.74259,24.20693,15.11452,53.06,4.277,14.73865,11.71554,39.66175,18.90916,63.76417,7.49183,25.1006,14.57472,48.83135,17.2584,58.29118.01938.0023.7329.09093.7329.09093v.08837c1.10434.09989,2.91275.20773,4.837.20773l.13163-.00052c2.36633-.0064,44.43949-.6944,60.27849-.95335,3.75765-.06148,5.58291-.09119,6.36529-.10374.47271-1.11652,1.3995-3.41334,1.48673-3.62927.92322-2.62417,62.45936-177.51206,63.17415-179.58169.39413-1.40237.19619-1.85087.152-1.92669l-.015-.0228c-8.85152.04687-50.66064.27023-53.93156.3294"/></clipPath><linearGradient id="linear-gradient-2" x1="-297.62749" y1="-43.00015" x2="-297.37239" y2="-43.00015" gradientTransform="matrix(5982179, 0, 0, -5982179, 1779698100.5, -257234271.8936)" xlink:href="#linear-gradient"/><clipPath id="clip-path-4"><path class="cls-1" d="M212.83372,256.48292c-.88189.29532,2.0852,11.3714,2.0852,11.3714s6.56351,23.59014,15.11886,53.07487c8.82091,30.3976,31.28108,104.7545,36.292,122.49487a1.71685,1.71685,0,0,0,.57781.11577c2.02679-9.42063,12.31937-38.12284,10.88748-65.445-1.764-33.6506-6.626-105.02268-7.53136-111.60195-.52984-3.84647-1.26071-7.00009-1.36837-9.44547-1.27065-.01921-40.41346-.62575-52.53257-.626-2.11046,0-3.40025.01845-3.52908.06149"/></clipPath><radialGradient id="radial-gradient" cx="-276.25928" cy="-39.38103" r="4.07413" gradientTransform="matrix(22.70876, -11.37419, -21.59039, -43.45775, 5623.42955, -4473.74455)" gradientUnits="userSpaceOnUse"><stop offset="0" stop-color="#5b3d00"/><stop offset="0.00421" stop-color="#5b3d00"/><stop offset="0.43063" stop-color="#ae7b26"/><stop offset="0.75189" stop-color="#e5a53f"/><stop offset="0.9065" stop-color="#fbb549"/><stop offset="1" stop-color="#fbb549"/></radialGradient><clipPath id="clip-path-5"><path class="cls-1" d="M346.55471,276.75141c-3.67321,12.8245-15.42473,63.44884-25.06119,82.23171-9.88749,19.27133-14.33111,24.67976-14.71937,24.38622l33.01653,59.49044c6.18315-16.45531,24.09257-67.0274,20.15124-117.57927-1.3852-17.77444-8.40968-50.36641-10.08824-67.301a111.27852,111.27852,0,0,1-3.299,18.77187"/></clipPath><radialGradient id="radial-gradient-2" cx="-289.38151" cy="-51.4887" r="4.07413" gradientTransform="matrix(20.23538, -55.23962, -36.2995, -13.40587, 4275.65283, -16239.65978)" gradientUnits="userSpaceOnUse"><stop offset="0" stop-color="#7d510e"/><stop offset="0.06625" stop-color="#986d2d"/><stop offset="0.18648" stop-color="#c39c60"/><stop offset="0.29153" stop-color="#e3be85"/><stop offset="0.37617" stop-color="#f6d29c"/><stop offset="0.42979" stop-color="#fddaa4"/><stop offset="0.53062" stop-color="#fdd89e"/><stop offset="0.66335" stop-color="#fdd18e"/><stop offset="0.81383" stop-color="#fcc672"/><stop offset="0.97635" stop-color="#fbb64d"/><stop offset="0.99043" stop-color="#fbb549"/><stop offset="1" stop-color="#fbb549"/></radialGradient><clipPath id="clip-path-6"><path class="cls-1" d="M339.79043,442.85978c-.002.00487-.00383.00973.00025,0h-.00025m.00025-.00026v.00026l.00231-.00589-.00231.00563m-38.59229-56.07786c20.05482,48.56677,38.48439,56.08708,38.592,56.07812l.00025-.00026-33.01653-59.38823a.07123.07123,0,0,1-.02423-.0543s-6.87372-16.20353-10.84183-28.36c-10.32651-31.63477-24.40558-90.67594-25.01884-92.7138a28.02947,28.02947,0,0,0-1.95816-5.29548c2.97142,10.39833,13.387,84.01037,32.2673,129.734"/></clipPath><linearGradient id="linear-gradient-3" x1="-296.54761" y1="-42.92158" x2="-296.29145" y2="-42.92158" gradientTransform="matrix(0.12721, 825.98691, 825.98691, -0.12721, 35794.73119, 245195.50763)" gradientUnits="userSpaceOnUse"><stop offset="0" stop-color="#5b3d00"/><stop offset="0.00421" stop-color="#5b3d00"/><stop offset="0.13566" stop-color="#5f4001"/><stop offset="0.27" stop-color="#6b4703"/><stop offset="0.40565" stop-color="#805408"/><stop offset="0.54133" stop-color="#9c660e"/><stop offset="0.65785" stop-color="#bb7a14"/><stop offset="0.996" stop-color="#fbb549"/><stop offset="1" stop-color="#fbb549"/></linearGradient><clipPath id="clip-path-7"><rect class="cls-1" x="176.19806" y="223.99852" width="261.22412" height="262.28906"/></clipPath><clipPath id="clip-path-8"><path class="cls-1" d="M339.78685,442.869c-.00305.00717-.00152.00615.002-.00154l-.002.00154"/></clipPath><linearGradient id="linear-gradient-4" x1="-297.65656" y1="-48.46703" x2="-297.40145" y2="-48.46703" gradientTransform="matrix(119.87771, 0, 0, -119.87771, 36006.88054, -5367.24477)" xlink:href="#linear-gradient"/><clipPath id="clip-path-9"><path class="cls-1" d="M339.79068,442.85978l.00128.00154.00229-.00717-.00357.00563"/></clipPath><linearGradient id="linear-gradient-5" x1="-297.65764" y1="-48.64553" x2="-297.40254" y2="-48.64553" gradientTransform="matrix(116.09396, 0, 0, -116.09396, 34881.23607, -5204.59402)" xlink:href="#linear-gradient"/><clipPath id="clip-path-10"><polyline class="cls-1" points="339.789 442.867 339.792 442.861 339.789 442.867"/></clipPath><linearGradient id="linear-gradient-6" x1="-297.66421" y1="-49.88705" x2="-297.40911" y2="-49.88705" gradientTransform="matrix(95.16299, 0, 0, -95.16299, 28654.26585, -4304.53623)" xlink:href="#linear-gradient"/><clipPath id="clip-path-11"><path class="cls-1" d="M339.78685,442.869l.002-.00154.00307-.00614-.00128-.00154-.00383.00922"/></clipPath><linearGradient id="linear-gradient-7" x1="-297.64873" y1="-46.98608" x2="-297.39363" y2="-46.98608" gradientTransform="matrix(164.42068, 0, 0, -164.42068, 49258.4223, -7282.61824)" xlink:href="#linear-gradient"/><clipPath id="clip-path-12"><path class="cls-1" d="M339.78992,442.85978h0M270.26374,266.59487c.90535,6.579,5.76734,77.95108,7.53136,111.60169,1.43189,27.32187-8.86069,56.02484-10.88748,65.445a53.60514,53.60514,0,0,0,5.73622.283c2.96633-.0082,66.83281-1.06222,67.14608-1.06478-.16428-.01383-18.65738-7.80284-38.59153-56.07812-18.88033-45.72359-29.29588-119.33563-32.2673-129.734l-.03572-.00025c.10766,2.44538.83853,5.70068,1.36837,9.54742"/></clipPath><radialGradient id="radial-gradient-3" cx="-292.28858" cy="-58.52152" r="4.07413" gradientTransform="matrix(-8.86275, -48.31807, -33.1773, 6.13527, -4267.25292, -13339.66797)" gradientUnits="userSpaceOnUse"><stop offset="0" stop-color="#5b3d00"/><stop offset="0.02372" stop-color="#5b3d00"/><stop offset="0.5232" stop-color="#bb7a14"/><stop offset="0.59399" stop-color="#b67713"/><stop offset="0.68169" stop-color="#a66d10"/><stop offset="0.77833" stop-color="#8d5d0a"/><stop offset="0.88072" stop-color="#6a4703"/><stop offset="0.91996" stop-color="#5b3d00"/><stop offset="1" stop-color="#5b3d00"/></radialGradient><clipPath id="clip-path-13"><path class="cls-1" d="M350.05164,256.50135c-.04643.001-.08163.00232-.10357.00308a.38709.38709,0,0,0-.23291.11014l.00689.05994c.04362.42314.08724.86012.13163,1.305,1.67856,16.93456,8.703,49.52653,10.08824,67.301,4.22372,54.18037-18.16349,111.97489-20.15124,117.57927.35664-.79071,1.69745-4.11824,1.69745-4.11824s63.13358-179.427,63.18893-179.62473c.65665-2.31833-.00892-2.83958-.44591-2.94741-7.18188.0379-51.58206.27433-54.17951.332"/></clipPath><radialGradient id="radial-gradient-4" cx="-286.77148" cy="-75.01094" r="4.07413" gradientTransform="matrix(0, -34.88835, -16.74105, 0.00355, -910.5923, -9626.97529)" gradientUnits="userSpaceOnUse"><stop offset="0" stop-color="#5b3d00"/><stop offset="0.00421" stop-color="#5b3d00"/><stop offset="0.18643" stop-color="#744d05"/><stop offset="0.57295" stop-color="#b57613"/><stop offset="0.60576" stop-color="#bb7a14"/><stop offset="0.6908" stop-color="#c07f18"/><stop offset="0.79449" stop-color="#cf8d25"/><stop offset="0.90743" stop-color="#e8a339"/><stop offset="0.97849" stop-color="#fbb549"/><stop offset="1" stop-color="#fbb549"/></radialGradient><clipPath id="clip-path-14"><path class="cls-1" d="M339.78685,442.869l.00383-.00922c-.00535.00768-.0051.00922-.00383.00922"/></clipPath><linearGradient id="linear-gradient-8" x1="-297.65187" y1="-47.5794" x2="-297.39677" y2="-47.5794" gradientTransform="matrix(143.11766, 0, 0, -143.11766, 42920.77029, -6366.58817)" xlink:href="#linear-gradient"/></defs><g class="cls-2"><g class="cls-3"><rect class="cls-4" x="339.7838" y="442.85415" width="0.01096" height="0.02202"/></g><g class="cls-5"><rect class="cls-6" x="213.4429" y="256.93859" width="190.87983" height="186.21806"/></g><g class="cls-7"><polygon class="cls-8" points="137.512 293.706 265.822 229.439 353.666 406.255 225.357 470.522 137.512 293.706"/></g><g class="cls-9"><polygon class="cls-10" points="247.119 420.828 313.58 239.402 423.538 280.011 357.078 461.438 247.119 420.828"/></g><g class="cls-11"><rect class="cls-12" x="265.44487" y="255.76515" width="77.83432" height="188.38696" transform="translate(-13.00903 11.75322) rotate(-2.16598)"/></g><g class="cls-13"><path class="cls-14" d="M321.49341,358.98317c10.12345-19.84176,21.38823-69.40721,25.06119-82.23171a111.31444,111.31444,0,0,0,3.29922-18.77185c-.04439-.44492-.08826-.88216-.13189-1.305l-.00688-.05994c-1.14693,1.001-2.52346,8.72675-4.5158,16.01834-26.72981,97.81614-38.44919,110.68188-38.44919,110.68188l.024.0543c.38826.294,4.54361-4.44252,14.71937-24.386"/></g><g class="cls-15"><rect class="cls-16" x="339.7838" y="442.86747" width="0.00508" height="0.00871"/></g><g class="cls-17"><rect class="cls-18" x="339.79067" y="442.85415" width="0.00409" height="0.00717"/></g><g class="cls-19"><rect class="cls-20" x="339.78888" y="442.86132" width="0.00332" height="0.00614"/></g><g class="cls-21"><rect class="cls-22" x="339.78684" y="442.85978" width="0.00537" height="0.00923"/></g><g class="cls-23"><polygon class="cls-24" points="269.299 456.967 233.753 263.179 337.4 244.012 372.945 437.8 269.299 456.967"/></g><g class="cls-25"><rect class="cls-26" x="337.37659" y="255.34307" width="70.37117" height="188.34306" transform="translate(-8.95476 9.79728) rotate(-1.48873)"/></g><g class="cls-27"><rect class="cls-28" x="339.78533" y="442.85978" width="0.00536" height="0.00922"/></g><g class="cls-13"><path class="cls-29" d="M349.85378,257.97968s.09157.72977.26326,2.09781q.06428.51292.14362,1.14444.09069.629.19744,1.37163c.15025.98821.29593,2.12649.5018,3.39671.39106,2.543.8931,5.62666,1.5102,9.1568.62473,3.52912,1.32984,7.51084,2.09871,11.85424.773,4.34339,1.612,9.04923,2.46862,14.03323.85179,4.98478,1.72449,10.24848,2.44924,15.72582.19719,1.36651.34106,2.75378.51224,4.14694.08928.69593.15357,1.39827.22015,2.10291q.101,1.05659.20255,2.12008.142,2.12778.28546,4.27962c.02194.35835.05128.71566.06555,1.07606l.03776,1.084q.03789,1.08539.07577,2.17516c.17194,5.80954.07883,11.708-.24438,17.59692-.32781,5.88818-.92577,11.7569-1.66761,17.51035-.74209,5.75422-1.68443,11.38653-2.71759,16.81135-1.02654,5.42687-2.20408,10.635-3.411,15.54881-1.20739,4.9141-2.45408,9.53284-3.67448,13.77531q-.91531,3.18167-1.80689,6.07056-.45422,1.4385-.8847,2.80168-.44081,1.359-.85637,2.63877c-1.1199,3.40616-2.14464,6.359-3.01071,8.78232-.862,2.42491-1.58367,4.31369-2.07194,5.60259-.489,1.28865-.74973,1.97589-.74973,1.97589s.24208-.69415.6959-1.99561c.45716-1.30044,1.11226-3.21252,1.93139-5.65075.81606-2.43922,1.78036-5.41,2.82958-8.83457,1.04923-3.42488,2.17883-7.3049,3.35025-11.55353,2.3352-8.499,4.74081-18.50547,6.7431-29.33539,1.00358-5.41432,1.88088-11.03714,2.61965-16.76909.72755-5.7327,1.30867-11.57862,1.62525-17.4394.33393-5.85821.43852-11.73358.27984-17.50087q-.03519-1.0808-.07041-2.15672l-.03494-1.07477c-.01378-.35808-.04184-.71719-.061-1.075q-.12935-2.14428-.25739-4.26578-.09414-1.05618-.18776-2.10548c-.06174-.69977-.12092-1.39725-.20536-2.09089-.162-1.38751-.29592-2.76734-.48418-4.13156-.70128-5.46016-1.49388-10.72926-2.28545-15.71966-.79491-4.99042-1.57577-9.70522-2.29516-14.05809-.72245-4.35261-1.36454-8.34612-1.90076-11.89188-.54617-3.54372-.98623-6.63893-1.32628-9.19114-.18214-1.274-.30306-2.41848-.42373-3.41078q-.08685-.745-.16045-1.377-.062-.63241-.11249-1.14777c-.1347-1.3724-.20663-2.10422-.20663-2.10422"/><path class="cls-29" d="M270.26369,266.59482s.0852.69211.24489,1.98971c.13036,1.30044.34516,3.20843.5574,5.63973.22755,2.43078.47984,5.38385.7727,8.77107.14286,1.69386.2949,3.49659.45536,5.39664q.22461,2.85163.4722,5.98552c.3176,4.172.66173,8.69191,1.02576,13.47254.35918,4.78114.73622,9.823,1.09285,15.04115.35408,5.21812.7199,10.61041,1.09158,16.08979.34745,5.48092.70051,11.04867,1.05332,16.61668.33163,5.56928.65281,11.1396.95255,16.62385q.10944,2.05707.21785,4.09622c.0324.68543.07373,1.34474.099,2.04657q.02336,1.01469.04694,2.02377.02334,1.00895.04643,2.01174c.00587.33426.01939.66724.01913,1.00126q-.01224.50331-.02449,1.00432l-.09795,3.9784c-.27169,5.24475-.839,10.28767-1.5648,15.03756-.19056,1.18594-.40025,2.35189-.59464,3.50223q-.15.86215-.29771,1.71076-.1672.84491-.33188,1.67594c-.22348,1.1073-.42653,2.199-.65561,3.26428q-.35319,1.59561-.69261,3.13031c-.21786,1.0243-.46964,2.01813-.702,2.99275-.23954.97308-.45383,1.92823-.70051,2.84984-.48572,1.84524-.93495,3.59827-1.39592,5.235-.89541,3.28066-1.73061,6.12382-2.4051,8.46881-.338,1.1721-.63979,2.21869-.90255,3.129-.25485.91263-.47143,1.68875-.64719,2.31808-.32016,1.26739-.49107,1.94309-.49107,1.94309s.15153-.68083.43546-1.95717c.15765-.63446.352-1.41724.58086-2.3373.24031-.917.51659-1.97076.826-3.1513.62423-2.35882,1.39847-5.21889,2.2227-8.51441.83546-3.2927,1.71505-7.02239,2.5977-11.10579q.31836-1.53376.64974-3.13031c.21454-1.065.40281-2.15569.611-3.262q.15344-.83027.30918-1.67413.13584-.8472.274-1.708c.17884-1.148.37246-2.31194.54669-3.49479.66071-4.73734,1.149-9.758,1.3972-14.962q.03519-1.948.07065-3.92717.00919-.49449.01812-.99076c-.002-.33195-.0176-.66647-.026-1.00023q-.02985-1.00242-.06-2.01122t-.06046-2.02353c-.02781-.65034-.07475-1.34576-.11148-2.01916q-.11288-2.03747-.227-4.09365-.23916-4.1107-.48137-8.27594-.25256-4.15948-.50639-8.34049c-.68673-11.135-1.37321-22.27022-2.01683-32.70928-.65229-10.4388-1.26122-20.18191-1.7829-28.53315-.26633-4.17511-.51021-8.00265-.72653-11.395-.22093-3.3921-.4102-6.34977-.586-8.78361-.17652-2.43386-.3153-4.34622-.40994-5.65-.1227-1.30195-.18826-1.99637-.18826-1.99637"/><path class="cls-29" d="M339.79073,442.85955a4.13773,4.13773,0,0,1-.5273-.23975c-.173-.08375-.38852-.189-.63036-.335-.24336-.144-.53393-.2979-.84745-.4964a41.20343,41.20343,0,0,1-5.11785-3.901q-.75957-.71195-1.59948-1.49945c-.275-.26716-.5773-.52023-.84822-.81607q-.4167-.43416-.85153-.887-.43469-.45338-.887-.92441c-.2977-.31762-.61913-.6255-.90688-.97411q-.88814-1.0247-1.83878-2.12239-.23762-.27434-.47907-.553l-.24235-.27971-.23061-.293q-.46226-.589-.938-1.19592c-.6324-.81069-1.29209-1.63828-1.95306-2.49969q-.94134-1.32937-1.92985-2.7256-.49361-.69888-.998-1.41339c-.17246-.23565-.33138-.4818-.48878-.73077q-.23877-.3723-.48009-.74819c-1.27679-2.01122-2.66685-4.07112-3.92143-6.31441q-.97117-1.6644-1.97423-3.38414l-.25078-.43058-.23469-.44184q-.23494-.44261-.47168-.88856-.47334-.89175-.95356-1.79632-.96046-1.80924-1.94643-3.66641-.91491-1.89184-1.85153-3.82829-.9325-1.93836-1.88443-3.91692-.8759-2.0125-1.7676-4.06164-.89158-2.04863-1.79745-4.13028c-.59082-1.40263-1.13826-2.81321-1.7153-4.23351-.56377-1.42389-1.0949-2.87724-1.64847-4.32674-.549-1.45207-1.05229-2.9254-1.58444-4.39719-2.07142-5.90432-3.98647-11.96617-5.77141-18.06439-1.76378-6.10463-3.39235-12.24638-4.9074-18.31285-1.51708-6.0662-2.90433-12.06145-4.19437-17.87382-1.2972-5.81109-2.452-11.44978-3.51506-16.80212-1.06428-5.35207-2.02269-10.42137-2.89335-15.10262-.87577-4.68073-1.63648-8.97854-2.30663-12.78865-.6773-3.808-1.26786-7.12816-1.75434-9.86222-.49668-2.732-.89974-4.87616-1.20714-6.3313q-.11709-.54519-.20637-.96208c-.062-.27662-.12322-.50715-.16787-.69388l-.13928-.56581.15357.562c.04923.18572.11633.41495.18521.69031q.09987.4134.23086.95668c.3398,1.44874.81225,3.58061,1.35332,6.30494,1.0727,5.44967,2.60484,13.23457,4.44361,22.57683.924,4.66921,1.93979,9.72443,3.06479,15.06011,1.12347,5.33594,2.35485,10.95236,3.65459,16.75575,1.31046,5.80085,2.71862,11.78279,4.25612,17.83335,1.53469,6.0511,3.18673,12.17366,4.96453,18.258,1.75765,6.09,3.64463,12.14239,5.687,18.03442.52423,1.46744,1.02117,2.9405,1.56148,4.38566.54541,1.44387,1.06556,2.88595,1.62347,4.30984.56938,1.41749,1.11811,2.846,1.69463,4.2289q.89464,2.07705,1.77577,4.1226.88086,2.04516,1.74642,4.05472.93138,1.97793,1.8449,3.91692.91071,1.9395,1.80126,3.836.96046,1.86,1.897,3.67307.468.90674.92959,1.80042.23075.44721.45969.89086l.22882.44287.2449.43159q.97882,1.72281,1.92729,3.39209c1.22449,2.24969,2.58418,4.31445,3.83316,6.33259q.2361.3773.46939.75075c.15409.25.3097.49691.47857.73308q.494.71694.977,1.418.96429,1.40352,1.88342,2.741c.64158.86934,1.28239,1.70488,1.89719,2.52377q.46263.6132.91173,1.20873l.22424.2961.236.28278q.23495.282.46632.55915.926,1.11,1.79132,2.14775c.28062.353.59414.66469.8847.9864q.44157.47759.86607.937.42435.45914.83162.89957c.2648.30045.56022.55711.82935.82836q.82154.79955,1.56555,1.52379a43.39517,43.39517,0,0,0,5.011,4.00529c.30791.20593.59338.36653.83291.51638.239.1524.44847.26152.61837.34937.1699.08761.29617.16137.388.1957l.13521.05814"/><path class="cls-29" d="M350.59618,257.356s.84132-.04251,2.31351-.1168c1.47244-.06658,3.57577-.15393,6.09974-.22923,1.26224-.03945,2.62933-.082,4.0755-.11194,1.44618-.0333,2.97117-.07378,4.549-.09452,1.5778-.02176,3.20791-.05968,4.86454-.07018,1.65662-.01435,3.33979-.02921,5.02269-.04381,1.6829-.00256,3.36582-.00486,5.0227-.00716,1.65664-.00821,3.28724.0151,4.865.02048,1.57781.00513,3.10306.029,4.54975.04842,1.44617.01562,2.81376.04381,4.07627.07121,2.52473.04968,4.62881.11653,6.10178.16853,1.473.05994,2.31453.094,2.31453.094s-.84133.04277-2.31352.11756c-1.47219.06687-3.5755.15471-6.09974.23-1.262.04-2.62933.08172-4.07549.11194-1.44618.03406-2.97118.07326-4.549.09425-1.57756.02153-3.20791.061-4.86455.06968-1.65661.01409-3.33952.02869-5.02243.043-1.68315.00232-3.36607.00462-5.023.00693-1.65662.00614-3.287-.01537-4.865-.02151-1.5778-.00461-3.103-.03-4.54948-.04842-1.44643-.01562-2.814-.04432-4.07653-.07094-2.52474-.05-4.62881-.1163-6.10176-.168-1.473-.05943-2.31454-.09351-2.31454-.09351"/><path class="cls-29" d="M213.83153,257.53519s.84719-.03816,2.33009-.105c1.48266-.05943,3.60076-.13627,6.1426-.19877,1.27091-.033,2.648-.06865,4.10407-.09144,1.45638-.02587,2.99209-.05866,4.58061-.07146,1.58877-.01384,3.23035-.04354,4.89846-.04585,1.66811-.00615,3.3625-.01229,5.05714-.01845,1.69464.00589,3.389.012,5.05713.01793,1.66811.00027,3.30969.03152,4.89846.04509,1.58852.01307,3.12424.04457,4.58061.07121,1.45612.023,2.83316.05787,4.10408.09169,2.54183.0625,4.65994.13986,6.14259.19928,1.48291.06737,2.3301.10578,2.3301.10578s-.84719.03843-2.3301.10579c-1.48265.05943-3.60076.13678-6.14259.19928-1.27092.03382-2.648.06865-4.10408.0917-1.45637.02663-2.99209.05814-4.58061.07121-1.58877.01357-3.23035.04482-4.89846.04508-1.66811.00588-3.36249.012-5.05713.01794-1.69464-.00616-3.389-.01231-5.05714-.01845-1.66811-.002-3.30969-.032-4.89846-.04586-1.58852-.0128-3.12423-.04558-4.58061-.07146-1.45612-.02279-2.83316-.0584-4.10407-.09144-2.54184-.0625-4.65994-.13934-6.1426-.19876l-2.33009-.105"/></g></g><path d="M514.66789,308.56046H485.18814l-7.34257,23.3228h-8.31536L494.25746,256.297h11.12229l25.48519,75.58622h-8.42278Zm-27.32133-6.696h25.16093l-12.7416-39.63124Z"/><path d="M598.86986,256.297v75.58622H591.6347l-.5391-9.39357a29.31938,29.31938,0,0,1-23.21736,10.69061c-16.52131,0-23.64706-11.44655-23.64706-25.5946V256.297h8.09853V307.912c0,10.36436,4.42624,18.67972,17.16783,18.67972,11.23171,0,17.49409-6.36981,21.2738-12.30992V256.297Z"/><path d="M669.02126,262.98911H646.45242v68.89415h-8.09853V262.98911H615.89248V256.297h53.12878Z"/><path d="M739.103,285.98963v16.63072c0,16.953-9.0713,30.56-29.37232,30.56s-29.37033-13.607-29.37033-30.56V285.98963c0-17.81635,9.17873-30.98963,29.37033-30.98963C730.13915,255,739.103,268.49555,739.103,285.98963Zm-50.64412-.10742v16.953c0,13.2807,6.26238,23.75647,21.2718,23.75647s21.2738-10.47577,21.2738-23.75647v-16.953c0-13.92922-6.26437-24.29756-21.2738-24.29756C694.93812,261.58465,688.45891,271.73814,688.45891,285.88221Z"/><path d="M812.22647,286.53073V299.704c0,19.76191-11.66139,32.17925-33.25746,32.17925H760.17988V256.297h21.48864C801.96755,256.297,812.22647,268.38813,812.22647,286.53073Zm-8.09852-.21485c0-14.47031-7.66684-23.43419-22.8931-23.43419H768.2784v62.41294H778.969c16.52131,0,25.15894-8.85248,25.15894-25.37577Z"/><path d="M841.06764,262.88169v26.78023h30.45053V296.358H841.06764v28.93666h32.82578v6.58863h-40.9243V256.297h40.9243v6.58465Z"/><path d="M888.49105,311.04314h7.77427c.54109,8.31536,5.50842,15.4411,20.08616,15.4411s18.248-7.23317,18.248-12.851v-2.48267c0-7.66684-4.53565-10.47576-15.87279-14.14407l-10.90744-3.56486c-11.6614-3.88713-16.41189-8.745-16.41189-17.92378V273.1426c0-8.10051,6.91089-18.1426,25.26834-18.1426,17.16784,0,25.4832,9.28615,26.02231,21.27379h-7.77427c-.5391-7.34457-4.85991-14.68914-18.248-14.68914-13.06585,0-17.0624,6.58863-17.0624,11.558V275.299c0,5.61784,3.348,8.85645,13.71438,12.20249l10.90545,3.45744c12.20249,3.88713,18.46488,8.9599,18.46488,19.6505v2.7015c0,10.14952-7.45,19.86934-26.34657,19.86934C898.53314,333.1803,889.35442,324.21642,888.49105,311.04314Z"/><path d="M1017.97393,326.162l-.10742,5.61386a10.05681,10.05681,0,0,1-4.42823.86337c-4.96733,0-7.88169-1.72673-11.554-7.01832L981.36845,295.602l-10.69061,13.38813v22.8931h-7.77427V256.297h7.77427v41.68024l33.15-41.68024h8.85447l-26.34656,33.4723,22.56685,32.61292c2.1604,3.02377,3.77971,4.102,6.80348,3.99456A12.46973,12.46973,0,0,0,1017.97393,326.162Z"/><path d="M1038.04817,264.31v2.69354c0,4.5635-3.51314,7.80211-8.948,7.80211-5.06083,0-8.90022-3.23861-8.90022-7.80211V264.31c0-4.06219,3.915-7.55146,8.948-7.55146C1034.535,256.75856,1038.04817,260.24783,1038.04817,264.31Zm-1.297-.02387c0-3.44153-2.94022-6.38174-7.62706-6.38174-4.285,0-7.60318,2.94021-7.60318,6.38174v2.74128c0,3.93886,3.24259,6.6324,7.60318,6.6324,4.68684,0,7.62706-2.69354,7.62706-6.6324Zm-3.362,5.75709c.04774,0,.14721-.02387.2228-.02387v.99864a2.311,2.311,0,0,1-.79971.12334,1.65733,1.65733,0,0,1-1.56758-1.02251l-1.74662-3.29034a2.50019,2.50019,0,0,1-.42174.02387h-1.4721V271.018h-1.3965V260.54623h3.01581c2.19621,0,3.58873,1.122,3.58873,2.74128v.748a2.57937,2.57937,0,0,1-1.94157,2.54633l1.59543,2.96409A.88237.88237,0,0,0,1033.38918,270.04324Zm-1.96943-6.07936v-.62465c0-1.122-.94692-1.64716-2.244-1.64716h-1.57157v3.99058h1.42038C1030.445,265.68265,1031.41975,265.10973,1031.41975,263.96388Z"/><path d="M467.69407,368.33557h14.14605l19.006,64.35451L518.555,368.33557h13.92923l-22.46142,75.58622h-18.5723Z"/><path d="M602.8107,435.06533l-.10742,8.85646A14.0176,14.0176,0,0,1,596.87258,445c-5.61585,0-9.93466-2.15642-13.28269-8.63763L572.4676,414.87373H560.15768v29.04806h-13.605V368.33557h25.4832c15.87278,0,26.456,7.55544,26.456,20.08418v6.26238c0,7.88169-5.18417,14.14407-13.17328,17.49408L595.3607,431.397a6.6037,6.6037,0,0,0,6.3698,3.6683Zm-42.653-30.34111h11.33913c8.09852,0,13.38813-3.67229,13.38813-10.36834v-5.399c0-6.69207-5.399-10.36436-13.38813-10.36436H560.15768Z"/><path d="M632.008,378.80735V400.296h28.1827v10.47576H632.008V433.3386H662.5679v10.58319H618.403V368.33557h44.1649v10.47178Z"/><path d="M734.816,398.56926v13.38813c0,19.65448-11.66139,31.9644-33.47429,31.9644H679.314V368.33557h24.72726C724.55712,368.33557,734.816,380.42666,734.816,398.56926Zm-13.605-.32227c0-12.31389-5.83269-19.43964-17.81834-19.43964H692.919V433.446h8.53021c13.17527,0,19.76191-6.9109,19.76191-21.26982Z"/><path d="M759.73228,376.34855v2.69354c0,4.5635-3.51513,7.80211-8.94995,7.80211-5.06083,0-8.90022-3.23861-8.90022-7.80211v-2.69354c0-4.06219,3.915-7.55146,8.94995-7.55146C756.21715,368.79709,759.73228,372.28636,759.73228,376.34855Zm-1.297-.02387c0-3.44153-2.94221-6.38174-7.62905-6.38174-4.287,0-7.60318,2.94021-7.60318,6.38174V379.066c0,3.93886,3.2406,6.6324,7.60318,6.6324,4.68684,0,7.62905-2.69354,7.62905-6.6324Zm-3.36593,5.75709c.04973,0,.14919-.02387.22479-.02387v.99864a2.30694,2.30694,0,0,1-.79772.12334,1.65994,1.65994,0,0,1-1.56957-1.02251l-1.74663-3.29034a2.52357,2.52357,0,0,1-.42372.02387h-1.47011v4.16564h-1.3965V372.58476h3.01581c2.19422,0,3.59072,1.122,3.59072,2.74128v.748a2.58113,2.58113,0,0,1-1.94359,2.54633l1.59546,2.96409A.87963.87963,0,0,0,755.06932,382.08177Zm-1.96943-6.07936v-.62465c0-1.122-.94692-1.64716-2.244-1.64716h-1.56957v3.99058h1.42038C752.1291,377.72118,753.09989,377.14826,753.09989,376.00241Z"/></svg>