<svg id="LOGOS" xmlns="http://www.w3.org/2000/svg" viewBox="0 0 1250 703"><g id="Layer_4" data-name="Layer 4"><polygon points="1122 303.177 1092.572 303.177 1057.324 342.538 1057.324 303.177 1032.616 303.177 1032.739 400.068 1057.324 400.068 1057.324 363.249 1090.755 400.068 1122 400.068 1076.949 352.23 1122 303.177"/><path d="M992.777,343.02264l-22.52852-2.54137c-13.20407-1.45484-16.46975-4.72669-16.46975-9.20785,0-4.9661,6.78315-9.44726,19.98107-9.44726,12.7191,0,19.37943,4.7267,20.58878,11.872h24.22277c-1.22771-20.47212-18.41571-33.1851-43.47945-33.1851-29.79049,0-44.81155,11.86586-44.81155,32.81679,0,17.0775,9.93223,25.07605,30.52094,27.25524l22.89075,2.4186c8.72288.9699,12.71909,4.36452,12.71909,8.72291,0,4.9661-5.8132,9.44726-19.8644,9.44726-16.23034,0-22.76793-4.119-23.86061-12.35694H928.94823c1.09268,22.28914,15.62263,33.67,46.75136,33.67,28.45839,0,44.32658-12.47358,44.32658-31.24531C1020.02609,354.88849,1010.57883,345.07905,992.777,343.02264Z"/><polygon points="840.049 400.068 918.046 400.068 918.046 379.117 864.757 379.117 864.757 361.555 907.629 361.555 907.629 340.481 864.757 340.481 864.757 324.128 918.046 324.128 918.046 303.177 840.049 303.177 840.049 400.068"/><path d="M781.91715,303.17719H736.62063v96.89116h45.29652c34.76272,0,44.32658-12.95852,44.32658-49.17607C826.24373,316.86006,817.042,303.17719,781.91715,303.17719Zm-.99445,75.94637H761.27928V324.12813H780.9227c15.506,0,20.10382,4.24175,20.10382,26.76416C801.05109,371.481,795.8456,379.12356,780.9227,379.12356Z"/><path d="M669.52612,300.51305c-35.24765,0-53.53447,21.67529-53.53447,50.86418,0,29.31167,18.28678,51.10972,53.53447,51.10972,35.36428,0,53.6511-21.798,53.6511-51.10973C723.17722,322.18834,704.8904,300.51305,669.52612,300.51305Zm0,80.17585c-18.28678,0-28.34176-11.1415-28.34176-29.31167,0-17.80185,10.055-29.06612,28.34176-29.06612,18.4157,0,28.34176,11.26427,28.34176,29.06612C697.86788,369.54739,687.93568,380.6889,669.52612,380.6889Z"/><polygon points="524.914 324.128 556.159 324.128 556.159 400.068 580.867 400.068 580.867 324.128 611.995 324.128 611.995 303.177 524.914 303.177 524.914 324.128"/><path d="M488.94782,363.00368c0,12.59635-7.753,17.68522-20.95708,17.68522-12.83573,0-21.19035-5.32829-21.19035-17.68522V303.17719h-24.7077v62.6134c0,27.97959,24.94715,36.69636,45.89809,36.69636,20.8343,0,45.65867-8.71677,45.65867-36.69636v-62.6134H488.94782Z"/><path d="M349.78648,303.17719l-37.18131,96.89116H338.16l6.48847-18.17017h41.509l6.38411,18.17017h26.39584l-37.63556-96.89116Zm2.216,58.13224,13.57238-37.97932,13.34524,37.9916Z"/><path d="M128.76118,400.0745l86.76253-53.9703h45.008a2.62731,2.62731,0,0,1,2.62731,2.6273v.00614a2.28354,2.28354,0,0,1-1.22772,2.20989l-42.61394,25.54872c-2.76849,1.65741-3.73838,4.98452-3.73838,7.47677l-.043,16.10147h54.15444V306.49816a3.321,3.321,0,0,0-3.3118-3.3301q-.07519-.00021-.15036.003H214.55382L128,356.90808V400.0745Z"/></g></svg>