<?xml version="1.0" encoding="UTF-8"?><svg id="c" xmlns="http://www.w3.org/2000/svg" viewBox="0 0 1250 703"><defs><style>.d,.e{fill:#252f3e;}.e{fill-rule:evenodd;}</style></defs><path class="d" d="M502.66304,305.11095c-.17812,5.61114.54126,11.21471,2.13094,16.5989,1.63844,4.61178,3.66447,9.07654,6.05636,13.34642.81483,1.27792,1.27899,2.74777,1.34586,4.26188-.23965,2.30359-1.57609,4.35001-3.58895,5.49558l-11.21548,7.85083c-1.45111,1.01937-3.16321,1.60304-4.93481,1.68232-2.10674-.07544-4.09153-1.00707-5.49558-2.57955-2.60504-2.57736-4.8668-5.47994-6.72929-8.63592-1.86925-3.14034-3.77587-6.87883-5.7199-11.21548-13.31122,16.61354-33.55796,26.13654-54.84368,25.7956-13.70322.75093-27.12936-4.06145-37.23538-13.34641-9.36874-9.53003-14.32926-22.54124-13.68288-35.88952-.60219-14.53547,5.42001-28.55978,16.37459-38.13263,12.98624-10.2266,29.25425-15.37017,45.75915-14.46797,6.60592.01922,13.20218.50644,19.73924,1.45801,6.87882.97201,14.01935,2.31787,21.42156,4.03757v-13.68289c1.08915-10.72303-2.09458-21.44296-8.86023-29.83317-8.65581-6.65624-19.53137-9.74634-30.39394-8.63592-6.76538.03428-13.50337.86241-20.0757,2.46741-6.83967,1.63556-13.54969,3.77227-20.0757,6.39282-2.10967.96949-4.28304,1.79388-6.50498,2.46741h-2.91602c-2.61694,0-3.92542-1.94402-3.92542-5.83205v-8.86023c-.16039-2.25098.30543-4.50244,1.34586-6.50498,1.40569-1.72398,3.21679-3.07267,5.27127-3.92542,7.50613-3.59594,15.36047-6.41448,23.44034-8.41161,9.48885-2.43638,19.25158-3.64259,29.04808-3.58895,17.62038-1.56163,35.14706,3.87768,48.78732,15.14089,11.20595,12.53578,16.79788,29.10898,15.47736,45.8713v60.67574ZM426.95857,333.4861c6.57712-.09573,13.09394-1.27028,19.29062-3.4768,6.83075-2.36597,12.90837-6.50803,17.6083-12.00056,2.89562-3.22915,5.04049-7.05927,6.28066-11.21548,1.29125-5.28367,1.89441-10.71204,1.79447-16.15029v-7.85083c-5.65892-1.35623-11.38722-2.40454-17.15968-3.14033-5.80256-.74234-11.64628-1.11694-17.49614-1.12155-9.82166-.73656-19.59906,1.91561-27.70223,7.51437-5.92721,5.22908-9.182,12.85106-8.86023,20.74864-.5359,7.24123,1.93929,14.38279,6.84144,19.73924,5.28886,4.80034,12.26877,7.30181,19.40278,6.95359ZM576.68519,353.67396c-2.52674.23099-5.05713-.40161-7.1779-1.79447-1.98546-1.99963-3.34891-4.53176-3.92542-7.29006l-43.62821-144.23105c-.8465-2.43216-1.41096-4.95345-1.68232-7.51437-.33502-2.20458,1.18056-4.26333,3.38514-4.59835.4021-.0611.81111-.0611,1.21322,0h18.28122c2.564-.25708,5.13834.3766,7.29006,1.79448,1.85581,2.06056,3.13279,4.57585,3.70111,7.29006l31.29119,123.37025,29.04809-123.37025c.44844-2.72222,1.7435-5.23384,3.70109-7.1779,2.24807-1.38723,4.88206-2.01624,7.51437-1.79448h15.02874c2.63231-.22177,5.2663.40725,7.51437,1.79448,1.9375,1.98909,3.19408,4.54152,3.58895,7.29006l29.2724,124.94042,32.30059-124.94042c.59538-2.72763,1.91234-5.24533,3.81326-7.29006,2.15172-1.41788,4.72605-2.05157,7.29008-1.79448h17.27185c2.2046-.33502,4.26335,1.18057,4.59834,3.38514.0611.40209.0611.81111,0,1.2132.09314.96978.09314,1.94625,0,2.91602-.35818,1.55781-.80758,3.09323-1.34585,4.59835l-44.86191,144.23103c-.57651,2.75829-1.93996,5.29042-3.92542,7.29006-2.12076,1.39286-4.65116,2.02546-7.1779,1.79447h-16.37465c-2.65179.27788-5.31585-.39808-7.51437-1.90663-1.92394-2.08745-3.17455-4.70596-3.58895-7.51437l-29.04809-120.11774-28.71162,120.00561c-.4144,2.80842-1.66501,5.42692-3.58895,7.51437-2.19852,1.50855-4.86258,2.18451-7.51437,1.90663h-16.03814ZM816.24781,358.60877c-9.66337.01595-19.29671-1.07533-28.71164-3.25249-7.48799-1.50741-14.73353-4.03581-21.5337-7.51437-4.18193-1.77098-6.88308-5.88912-6.84145-10.4304v-9.421c0-3.88804,1.42063-5.83205,4.26189-5.83205,1.18956.01767,2.36658.24548,3.47681.67293l4.71048,1.90663c6.58282,2.91283,13.46547,5.09422,20.52434,6.50498,7.38009,1.51608,14.8968,2.26775,22.43095,2.24309,9.48505.5621,18.93506-1.57679,27.25361-6.16851,6.18284-3.67398,9.8781-10.42,9.64532-17.6083.12908-4.83775-1.68923-9.52485-5.04697-13.00995-5.66122-4.74417-12.33868-8.12126-19.51499-9.86961l-27.0293-8.52377c-11.38165-3.16248-21.51996-9.73869-29.04809-18.842-6.01213-7.72947-9.28649-17.23698-9.30887-27.0293-.15642-7.23805,1.58351-14.39109,5.04697-20.74863,3.35146-5.98039,7.89384-11.20987,13.3464-15.3652,5.71671-4.34672,12.17768-7.61522,19.06632-9.64531,7.61797-2.19827,15.51164-3.29357,23.44035-3.25249,4.19947-.0037,8.39497.25852,12.56132.78508,4.26185.52339,8.29943,1.2337,12.11274,2.13094,3.81326.89724,7.36482,1.86925,10.65471,2.91602,2.70816.84938,5.33546,1.93783,7.85084,3.25249,2.12412,1.14515,3.99373,2.70951,5.4956,4.59835,1.18579,1.83245,1.77364,3.98777,1.68234,6.16851v8.86023c.00004,3.88803-1.42063,5.83205-4.26189,5.83205-2.51427-.28081-4.95114-1.04232-7.1779-2.2431-11.31709-4.91609-23.55219-7.36311-35.88954-7.17791-8.58129-.44609-17.12908,1.37176-24.78619,5.27127-5.84994,3.41687-9.27691,9.83702-8.86024,16.5989-.11308,4.9884,1.88218,9.7933,5.4956,13.23426,6.04546,4.83553,13.03716,8.35049,20.52434,10.31824l26.46845,7.96299c11.20838,2.91319,21.26288,9.1728,28.82377,17.94477,5.92981,7.69668,9.01999,17.20489,8.7481,26.91714.09887,7.50496-1.59284,14.92535-4.93479,21.64587-3.2661,6.42016-7.89812,12.04747-13.57072,16.48675-6.18314,4.77549-13.22742,8.31666-20.74862,10.4304-8.58338,2.34584-17.46026,3.44128-26.3564,3.25248Z"/><path class="e" d="M851.46436,450.46352c-61.34863,45.31054-150.39953,69.42381-226.44047,69.42381-102.59425.67562-201.73044-37.05053-277.91952-105.76195-5.71989-5.15911-.67293-12.22487,6.28067-8.29945,84.51913,48.34728,180.21296,73.74962,277.58307,73.68568,72.7152-.39064,144.63712-15.1409,211.63606-43.40388,10.31822-4.37405,19.06628,6.84143,8.86019,14.3558Z"/><path class="e" d="M877.03568,421.30327c-7.85084-10.09393-51.92767-4.7105-71.66689-2.35524-5.94419.67292-6.95358-4.48619-1.57016-8.29945,35.10446-24.67406,92.752-17.6083,99.36913-9.30885,6.61713,8.29945-1.79447,66.05915-34.65583,93.64924-5.04697,4.26187-9.86963,2.01879-7.62653-3.58895,7.40217-18.61771,24.00107-60.00281,16.15027-70.09675Z"/></svg>