<?xml version="1.0" encoding="UTF-8"?><svg id="LOGOS" xmlns="http://www.w3.org/2000/svg" viewBox="0 0 1250 703"><defs><style>.cls-1{fill:#00d263;}.cls-2{fill:#0062ff;}.cls-3{fill:#ff502e;}.cls-4{fill:#282828;}</style></defs><g id="Layer_4"><g><path class="cls-1" d="M689.69327,172.27593c.00763-.0062,.01717-.01249,.02499-.02022l-64.26425-37.12977-10.83911,6.22655c-.56248,.26875-1.12028,.55466-1.6656,.8687l-68.93765,39.68916,30.63447,17.6907c2.32497,1.3422,5.1922,1.34535,7.52031,.00467l15.40006-8.86566,20.06249-11.5516c4.69848-2.70463,10.48281-2.70463,15.18129,0l15.78125,9.08596,19.42811,11.18443c2.32354,1.33906,5.18285,1.33906,7.50944,.00315l30.71563-17.65789-16.55144-9.52818Z"/><path class="cls-3" d="M684.91192,214.53067c-2.33288,1.34383-3.77046,3.8313-3.77046,6.52353v40.66105c0,5.41717-2.89841,10.42187-7.60004,13.12965l-35.94845,20.69697c-2.33431,1.34373-3.77341,3.8312-3.77341,6.52496v35.29538l69.4533-39.98594c.09689-.05474,.18597-.11721,.28114-.17347l12.00164-6.91253v-93.40489l-30.64372,17.6453Z"/><path class="cls-2" d="M611.77113,295.54024l-34.87357-20.07813c-4.70315-2.70777-7.60004-7.71248-7.60004-13.12974v-40.68441c0-2.69223-1.439-5.1797-3.77189-6.52343l-30.62971-17.63911-.01411-.05789v.05007l.00162,79.32042v14.03449l10.75471,6.20462c.48905,.33131,.99058,.65003,1.50624,.94691l68.39854,39.37978v-35.29852c0-2.69375-1.43748-5.18123-3.77179-6.52505"/><path class="cls-4" d="M304.53289,421.93123c1.09692-1.07498,2.0422-2.27032,2.81716-3.5719,1.6985-2.85469,2.55938-6.01717,2.55938-9.40001,0-6.10782-2.17963-10.90157-6.47966-14.24068-4.06877-3.16249-9.94065-4.76876-17.44847-4.76876h-18.97978l-.00153,71.35331,24.08291,.00157c6.98587,0,12.80311-2.0516,17.29063-6.09375,4.58594-4.12503,6.91253-9.38909,6.91253-15.65007,0-4.67969-1.4-8.79843-4.16251-12.24378-1.71099-2.1328-3.9219-3.93907-6.59067-5.38594m-17.46096-19.64693c10.13911,0,10.13911,4.50784,10.13911,6.67502,0,2.87815-.90008,4.80472-2.83127,6.06252-1.19067,.77343-2.89069,1.39685-4.53282,1.73283l-10.42187,.10467v-14.57504h7.64686Zm15.32663,38.90476c-.19064,1.07813-.67196,2.15002-1.45321,3.25313-1.0828,1.53127-2.43903,2.62814-4.15307,3.3547-1.25943,.53597-3.87193,1.17502-9.17189,1.17502h-8.19532v-19.12975l10.24525,.09847c1.96257,.1359,3.82815,.38905,4.74845,.6484,1.76564,.49691,3.28751,1.23754,4.52195,2.20471,.45309,.35625,.82188,.74845,1.19057,1.14064,.11721,.12498,.27189,.23594,.37975,.36407,.44842,.53125,.81873,1.09215,1.11399,1.67656,.57659,1.15466,.87033,2.54531,.87033,4.1328,0,.36249-.03281,.72189-.0968,1.08123"/><rect class="cls-4" x="393.00737" y="389.77173" width="12.23519" height="71.5111"/><path class="cls-4" d="M348.67982,390.02641l-30.66099,71.25642h13.48594l7.51411-17.64378h24.7563l7.48598,17.64378h13.20317l-30.28133-71.25642h-5.50319Zm-4.42649,41.32509l1.11714-2.62027,6.05318-14.21255,7.14065,16.83282h-14.31097Z"/><path class="cls-4" d="M592.17269,389.828l-30.73137,71.41578h13.51722l7.5328-17.6844,24.81104,.00157,7.50162,17.68283h13.23436l-30.35009-71.41578h-5.51559Zm-4.43593,41.41726l1.11866-2.62657,6.06729-14.24378,7.1562,16.87035h-14.34215Z"/><rect class="cls-4" x="637.77121" y="389.86548" width="12.31244" height="71.37673"/><polygon class="cls-4" points="756.86528 389.7436 744.89168 389.7436 744.89168 461.28283 791.50587 461.28283 791.50587 449.35467 756.86528 449.35467 756.86528 389.7436"/><path class="cls-4" d="M436.34262,389.87172h-18.13912l-.00162,71.41111h18.14074c19.68903,0,35.70632-16.01719,35.70632-35.70632,.00153-19.68755-16.01728-35.70479-35.70632-35.70479m0,58.98451h-5.71252v-46.55791h5.71252c12.83744,0,23.2781,10.44223,23.2781,23.27819,0,12.83753-10.44066,23.27972-23.2781,23.27972"/><path class="cls-4" d="M958.61726,389.85928h-18.16887l-.00153,71.51892h18.16887c19.71879,0,35.76096-16.0407,35.76096-35.75948,0-19.71721-16.04217-35.75791-35.75944-35.75944m-.00153,59.07354h-5.72206l.00172-46.6282h5.72187c12.85461,0,23.31243,10.4594,23.31243,23.3141,0,12.85627-10.45783,23.3141-23.31396,23.3141"/><path class="cls-4" d="M522.41622,389.80301v45.13918c0,7.77346-6.32354,14.09534-14.09543,14.09534s-14.09686-6.32187-14.09686-14.09534v-45.13918h-12.0828v45.13918c0,14.43599,11.74376,26.18133,26.17966,26.18133s26.17823-11.74534,26.17823-26.18133v-45.13918h-12.0828Z"/><path class="cls-4" d="M915.28754,389.80301l.00153,45.38918c0,7.77346-6.32345,14.09534-14.09706,14.09534-7.77189,0-14.09534-6.32187-14.09534-14.09534l-.00153-45.38918h-12.07965v45.38918c0,14.43599,11.74224,26.18133,26.17651,26.18133,14.43599,0,26.17976-11.74534,26.17976-26.18133v-45.38918h-12.08423Z"/><path class="cls-4" d="M714.49019,401.68272c3.93907,0,7.80146,1.10002,11.16564,3.1766l2.42329,1.49374,6.4953-10.07502-2.52019-1.55783c-5.28756-3.25938-11.35943-4.98439-17.56405-4.98439-20.13287,0-36.51112,16.05629-36.51112,35.79229,0,19.73443,16.37653,35.79072,36.50941,35.79072,6.23132,0,12.30472-1.70937,17.561-4.94848l2.5219-1.54686-6.4829-10.08594-2.42653,1.4906c-3.33901,2.05627-7.20159,3.14222-11.17346,3.14222-13.46877,0-24.42976-10.69534-24.42976-23.84225s10.96099-23.84539,24.43148-23.84539"/><path class="cls-4" d="M829.64663,389.01709c-19.75178,0-35.81895,16.37815-35.81895,36.51103s16.06716,36.51255,35.81895,36.51255,35.82028-16.37973,35.82028-36.51255-16.06869-36.51103-35.82028-36.51103m0,60.94074c-12.93758,0-23.46426-10.95936-23.46426-24.42971,0-13.47192,10.52516-24.43133,23.46426-24.43133,12.93738,0,23.46407,10.95941,23.46407,24.43133,0,13.47035-10.52668,24.42971-23.46407,24.42971"/></g></g></svg>