<?xml version="1.0" encoding="UTF-8"?><svg id="LOGOS" xmlns="http://www.w3.org/2000/svg" viewBox="0 0 1250 703"><defs><style>.cls-1{fill:#075033;}.cls-1,.cls-2,.cls-3{stroke-width:0px;}.cls-2{fill:#23a96a;}.cls-3{fill:#fff;}</style></defs><g id="Logo"><path class="cls-1" d="M961.3472,361.81003c1.89993-9.55564,9.38795-15.84224,18.94362-15.84224s16.76427,6.45424,18.13333,15.84224h-37.07695ZM981.35257,414.42191c15.3114,0,28.27573-6.37042,34.95354-17.51867l-18.18926-10.00269c-3.79986,5.30869-9.77916,7.73951-16.45697,7.73951-10.92473,0-18.3569-6.67777-20.31268-15.92606h58.89844c.44706-2.51465.75436-5.75574.75436-9.10858,0-25.17435-17.351-43.27976-41.15632-43.27976s-41.68715,17.74219-41.68715,43.89446,16.23344,44.2018,43.22384,44.2018M899.54297,412.15873h23.2744v-121.31745h-23.2744v121.31745ZM887.80795,410.20289l-6.76158-19.55832c-2.79405,1.28526-5.97926,1.98377-9.10857,1.98377-7.29246,0-12.12615-3.7999-12.12615-12.65702v-30.09187h20.25683l7.51599-21.23475h-22.07294l-5.69983,16.06576v-37.21668h-23.2744v76.86419c0,18.35688,10.75709,30.09187,30.25952,30.09187,7.6557,0,15.17165-1.50879,21.01123-4.24695M794.9339,366.2805v45.87823h23.2744v-49.95752c0-24.33613-14.24965-35.87554-32.83003-35.87554-9.02475,0-17.12751,3.04551-24.02881,9.16447v-44.64885h-23.2744v121.31745h23.2744v-56.94264c4.77784-4.16313,10.75709-6.51013,17.82602-6.51013,10.08651,0,15.75841,5.92337,15.75841,17.60248M702.81422,414.42191c8.04686,0,15.70252-1.98377,22.07294-5.61603l-8.41006-20.53623c-3.63227,2.73816-8.18653,4.16313-13.04819,4.16313-12.29378,0-21.45825-9.16447-21.45825-22.07296s8.80123-22.07296,21.23476-22.07296c5.00132,0,9.38799,1.50879,12.96437,4.16313l8.57774-20.53623c-6.45424-3.63226-14.02612-5.69985-22.07294-5.69985-25.17433,0-44.20182,19.19509-44.20182,44.11798s19.19508,44.0621,44.34149,44.0621M587.16869,361.81003c1.89993-9.55564,9.38799-15.84224,18.94362-15.84224s16.76427,6.45424,18.13337,15.84224h-37.07699ZM607.20199,414.42191c15.31136,0,28.27573-6.37042,34.95349-17.51867l-18.18922-10.00269c-3.7999,5.30869-9.77916,7.73951-16.45693,7.73951-10.92473,0-18.3569-6.67777-20.31272-15.92606h58.89848c.44706-2.51465.7544-5.75574.7544-9.10858,0-25.17435-17.35104-43.27976-41.15628-43.27976s-41.68715,17.74219-41.68715,43.89446,16.2334,44.2018,43.22389,44.2018M488.84622,384.63739v-28.58308c4.91753-4.86164,11.23205-7.51598,18.7201-7.51598,12.74084,0,20.62005,7.73951,20.62005,21.76561s-7.87921,21.84943-20.62005,21.84943c-7.51599,0-13.80259-2.65435-18.7201-7.51598M514.16027,414.36603c22.91116,0,37.52403-18.66422,37.52403-44.0621s-14.64079-43.97827-37.52403-43.97827c-9.69534,0-18.18924,3.32492-25.31404,10.08651v-45.57088h-23.2744v121.31745h17.43484l3.49256-10.22621c7.57186,8.32625,16.90398,12.4335,27.66105,12.4335"/><path class="cls-2" d="M307.84796,272.65204c-4.58223,0-9.05271.41911-13.38347,1.14556l-15.50695,45.06795h78.3171c.89409,0,1.50879.78233,1.20144,1.62055l-37.41227,108.71631c37.27257-6.2866,65.66007-38.66959,65.66007-77.73034-.02796-43.53122-35.34469-78.82002-78.87592-78.82002"/><path class="cls-3" d="M278.92959,318.89349l-21.90532,63.59247c-.27941.83821.33529,1.70437,1.22938,1.70437h78.28916l21.93325-63.6763c.2794-.83821-.33528-1.62055-1.20144-1.62055h-78.34503Z"/><path class="cls-1" d="M257.02427,382.48597l37.41227-108.68837c-37.04904,6.45424-65.43654,38.78135-65.43654,77.7024,0,43.53123,35.28879,78.84796,78.84796,78.84796,4.49841,0,8.91301-.39116,13.18789-1.11762l15.50695-45.04001h-78.28915c-.89409,0-1.50878-.86616-1.22938-1.70437"/></g></svg>