<?xml version="1.0" encoding="utf-8"?>
<!-- Generator: Adobe Illustrator 23.0.2, SVG Export Plug-In . SVG Version: 6.00 Build 0)  -->
<svg version="1.1" id="LOGO" xmlns="http://www.w3.org/2000/svg" xmlns:xlink="http://www.w3.org/1999/xlink" x="0px" y="0px"
	 viewBox="0 0 1250 703" style="enable-background:new 0 0 1250 703;" xml:space="preserve">
<style type="text/css">
	.st0{fill:#77C6B6;}
	.st1{fill:#6BAF9F;}
	.st2{fill:url(#SVGID_1_);}
	.st3{fill:url(#SVGID_2_);}
</style>
<title>nvidia-partner-blazingdb-logo</title>
<path class="st0" d="M439.8,342.9c8.4-4,12.2-12,12.2-25.1v-6c0-20.1-9.2-29.5-29-29.5h-29.9v129.7h30.6c19.9,0,30.4-10.8,30.4-31.1
	v-10.7C454.2,356,449.5,347,439.8,342.9z M410.2,336.1v-38.1h12.5c9,0,12.5,4.3,12.5,15.3v7.4c0,12.9-5.7,15.5-15.6,15.5H410.2z
	 M437.4,380.4c0,11.1-4.1,15.8-13.6,15.8h-13.6v-44.5h10.9c11.9,0,16.4,4.7,16.4,17.4V380.4z"/>
<polygon class="st0" points="482.9,282.2 466,282.2 466,411.9 519.2,411.9 519.2,396.2 482.9,396.2 "/>
<path class="st0" d="M572.4,282.2h-22.8l-24.5,128l-0.3,1.7h15.9l4.9-25.6h29.7l4.9,25.6h17l-24.6-128.5L572.4,282.2z M572.8,371.4
	H548l12.2-64.4L572.8,371.4z"/>
<polygon class="st0" points="606.9,297.9 647.7,297.9 605,397.3 604.9,411.9 665.4,411.9 665.4,396.2 622.8,396.2 665.6,296.9 
	665.7,282.2 606.9,282.2 "/>
<rect x="677.3" y="282.2" class="st0" width="17" height="129.7"/>
<polygon class="st0" points="754.7,366.3 727.8,282.2 707.4,282.2 707.4,411.9 722.9,411.9 722.9,317.1 752.6,410.9 752.9,411.9 
	770.1,411.9 770.1,282.2 754.7,282.2 "/>
<path class="st0" d="M812.2,281c-19,0-29.9,12.1-29.9,33.3v65.6c0,21.2,10.9,33.3,29.9,33.3s30-12.1,30-33.3v-38.8H813v15.5h13v24
	c0,11.4-4.4,16.9-13.5,16.9s-13.5-5.7-13.5-16.9v-67.1c0-11.2,4.5-16.9,13.5-16.9s13.5,5.5,13.5,16.9v13h16.2v-12.3
	C842.2,293.1,831.3,281,812.2,281z"/>
<path class="st1" d="M885.7,282.2h-31.1v129.7h31.1c19.5,0,30.2-11.6,30.2-32.8v-64C915.9,293.9,905.2,282.2,885.7,282.2z
	 M871.5,297.9h13.8c9.3,0,13.8,5.4,13.8,16.5v65.2c0,11.1-4.5,16.5-13.6,16.5h-14V297.9z"/>
<path class="st1" d="M974.6,342.9c8.4-4,12.2-12,12.2-25.1v-6c0-20.1-9.2-29.5-29-29.5H928v129.7h30.6c19.9,0,30.4-10.8,30.4-31.1
	v-10.7C989,356,984.3,347,974.6,342.9z M970,320.6c0,12.9-5.7,15.5-15.6,15.5H945v-38.1h12.5c9,0,12.5,4.3,12.5,15.3L970,320.6z
	 M972.2,369.2v11.2c0,11.1-4.1,15.8-13.6,15.8H945v-44.5h10.9C967.8,351.8,972.2,356.5,972.2,369.2z"/>
<radialGradient id="SVGID_1_" cx="445.0567" cy="725.3342" r="127.7" gradientTransform="matrix(0.96 0 0 -0.77 -122.56 938.4)" gradientUnits="userSpaceOnUse">
	<stop  offset="0" style="stop-color:#77C6B6"/>
	<stop  offset="1" style="stop-color:#6BAF9F"/>
</radialGradient>
<path class="st2" d="M370,248.6c-1.8,52.4-79.9,55.5-79.8,109.5c0.1,37.2,17.4,55.5,17.4,55.5c-0.1-36.3,34.4-48.9,37-81.4
	c0,0-14.8,21-33.4,25.6c-0.1-21.7,70.8-48.9,70.8-81.9c-0.1-4.6-0.7-9.3-1.8-13.8c-2,19.3-18.6,31.2-25.5,37.2
	C360,293.9,376,275.8,370,248.6"/>
<radialGradient id="SVGID_2_" cx="401.13" cy="806.6" r="129.96" gradientTransform="matrix(1 0 0 -1 0 704)" gradientUnits="userSpaceOnUse">
	<stop  offset="0" style="stop-color:#77C6B6"/>
	<stop  offset="1" style="stop-color:#6BAF9F"/>
</radialGradient>
<path class="st3" d="M340.8,228.4c-1.8,52.5-79.9,55.5-79.8,109.5c0.1,37.2,26.2,56.7,26.2,56.7c-3.5-10.3-19-51.8,7.3-78
	c31.6-30.2,53.8-31.5,59.5-59.5c1.9-9.1-1.4-20.7-1.4-20.7c-2.1,19.3-10.1,31-24.3,39.4C334,270,348.1,258.3,340.8,228.4"/>
</svg>
