<?xml version="1.0" encoding="UTF-8"?><svg id="LOGOS" xmlns="http://www.w3.org/2000/svg" viewBox="0 0 1250 703"><defs><style>.cls-1{fill:#37699f;}.cls-1,.cls-2{fill-rule:evenodd;stroke-width:0px;}.cls-2{fill:#db933d;}</style></defs><g id="Layer_4"><path class="cls-1" d="M595.70178,406.25159h20.11473q.09706,0,.09706-.09706v-84.34939q0-.09706-.09706-.09706h-20.11473q-.09706,0-.09706.09706v84.34939q0,.09706.09706.09706ZM754.29046,337.74249c-12.62497,0-19.62105,3.69213-28.56654,11.08061,0,0-.09706-.09706-.09706,0,0-.68358.28693-5.15211-.58652-5.15211-5.53607,0-13.79801-.19409-19.7223,0v62.28944c7.6712.09706,20.3046,0,20.3046,0,.09706-12.04691.09706-25.65505.09706-38.48258.77639-5.43904,6.21544-13.60392,20.20757-13.60392,9.91601-.78061,12.24522,6.99605,12.24522,15.73905v36.34324h20.21601c0-5.43904,2.13509-38.28424-.78486-50.72358-3.48539-15.54492-18.84041-17.29605-23.31318-17.49014ZM509.40717,316.07072l20.79409,5.63735v23.32162c6.77328-4.28248,14.62878-6.54133,22.64225-6.51081,21.08946,0,38.28846,15.35505,38.28846,34.10686,0,18.75603-17.19902,34.11108-38.28846,34.11108-8.45181,0-16.22851-2.33343-22.64225-6.418v5.73441h-20.79409v-89.98252ZM549.73369,354.26215c10.88231,0,19.62527,8.35478,19.62527,18.85309,0,10.3-8.74296,18.85309-19.62527,18.85309-10.6924,0-19.4354-8.54887-19.4354-18.85309,0-10.49831,8.74718-18.85309,19.4354-18.85309ZM864.78018,316.07072l-20.99243,5.63735-.08859,23.41868c-6.7245-4.32549-14.55387-6.61981-22.54941-6.60787-21.08946,0-38.28849,15.35505-38.28849,34.10686,0,18.75603,17.19902,34.11108,38.28849,34.11108,8.25772,0,16.03017-2.33343,22.3511-6.31672l-.09703,5.63735h21.37637v-89.98674ZM824.25957,354.26215c-10.68822,0-19.43115,8.35478-19.43115,18.85309,0,10.3,8.743,18.85309,19.43115,18.85309,10.88652,0,19.62945-8.54887,19.62945-18.85309,0-10.49831-8.743-18.85309-19.62945-18.85309ZM947.57256,376.9044c-.18987-24.09801-9.61645-40.71473-41.39832-39.55013-25.0685.5823-37.89181,13.50686-37.4066,37.11963,2.03381,23.12753,14.86556,29.93371,36.1449,33.03932,18.37207.68358,31.2924-5.63314,35.66812-14.38032-4.7639-3.40098-10.69665-6.41375-15.36352-9.7177-5.15208,7.19017-9.71767,10.98355-17.49018,9.81473-13.60817-2.04228-15.84029-8.54887-16.32557-16.22851,18.17794,0,38.09861-.09706,56.17103-.09706l.00013.00003ZM892.28342,363.59163c1.16879-6.99605,5.05086-12.82753,16.13569-13.60392,9.9076,0,16.12726,6.02557,16.12726,13.60392h-32.26295ZM699.7735,376.9044c-.18987-24.09801-9.61642-40.71473-41.39828-39.55013-25.06853.5823-37.89606,13.50686-37.41078,37.11963,2.03806,23.12753,14.86981,29.93371,36.14915,33.03932,18.37207.68358,31.2924-5.63314,35.65969-14.38032-4.9538-3.20689-10.48988-6.60365-15.35505-9.7177-5.14368,7.19017-9.7177,10.98355-17.49014,9.81473-13.60814-2.04228-15.84029-8.54887-16.32557-16.22851,18.17794,0,38.09437-.09706,56.17103-.09706l-.00003.00003ZM644.48014,363.59163c1.16883-6.99605,5.05083-12.82753,16.12723-13.60392,9.91601,0,16.13566,6.02557,16.13566,13.60392h-32.26289ZM955.15513,406.05747h19.24552c.38818,0,.58655,0,.58655-.19409v-38.19143c4.56559-9.04255,12.23676-10.98355,23.61274-10.49409l-.09703-17.39733c-13.30858.48524-17.19902,1.64985-23.51152,8.54887v-4.66265c0-.19409-.19831-.19409-.58655-.19409h-19.24552c-.38818,0-.58655,0-.58655.19409v62.19238c-.00425.19831.19412.19831.5823.19831l.00006.00003Z"/><path class="cls-2" d="M402.80371,296.82945h-98.831c-17.78553,1.3587-14.96685,25.06853-1.84817,24.87866,12.14817-.19409,32.55406,0,47.03144,0-20.79831,19.62949-67.24744,49.36485-87.55628,68.70319-7.87374,7.48133-7.38426,29.25012,15.4521,24.19508,8.65014-4.7639,47.71501-36.63861,53.06121-42.07765,2.72163,67.7327,78.90614,99.51035,136.14474,59.76192,30.41472-21.18649,40.91306-74.82581,17.10618-101.25726-18.75603-20.9924-52.96416-41.98059-93.8772-76.09167-6.50659-5.34198-26.03903-2.62459-19.43538,13.31277,0,.00422,17.39733,17.40155,32.75238,28.57501l-.00002-.00003ZM412.81256,320.64053c28.18258,0,51.31009,20.79409,51.31009,46.06515,0,25.45671-23.12751,46.06093-51.31009,46.06093-28.37667,0-51.31009-20.60422-51.31009-46.06093,0-25.27106,22.93342-46.06515,51.31009-46.06515Z"/><path class="cls-1" d="M414.61009,335.50612c17.52813,0,31.82407,13.46469,31.82407,29.97588s-14.29594,29.97591-31.82407,29.97591-31.82407-13.46469-31.82407-29.97591,14.29594-29.97591,31.82407-29.97591v.00003Z"/></g></svg>