<svg id="LOGO" xmlns="http://www.w3.org/2000/svg" viewBox="0 0 1250 703"><defs><style>.cls-1{fill:#00a8a0;}</style></defs><path class="cls-1" d="M370.36737,303.178h59.15635l49.818,83.14767-49.818,83.14768H370.36737l49.818-83.14768Zm560.39225,0H871.60327l-49.818,83.14767,49.818,83.14768h59.15635l-49.818-83.14768ZM370.36737,229.49774h-51.127V469.47341h51.127Zm227.50538,216.736v23.23967H647.0463V303.178H597.87275v87.59115c0,30.67592-8.04769,43.07059-28.90951,43.07059-23.84152,0-24.438-19.52085-24.438-43.38V303.178H495.3517v99.98582c0,45.23973,12.81414,70.33846,55.43183,70.33846C575.52042,473.5023,588.037,462.65731,597.87275,446.23374Zm223.91254-216.736h-51.127V469.47337h51.127ZM729.09817,410.60006V229.4977H677.97134V422.6846c0,39.04175,14.25334,46.78871,55.1548,46.78871h14.6552V429.1418C733.41259,428.70665,729.09817,425.03432,729.09817,410.60006Zm231.6141-104.20275V318.114h3.81823V306.39731h4.82893V303.178H955.88334v3.21929ZM979.51094,318.114h3.48132l3.63106-10.66857V318.114h3.81822V303.178h-5.8022l-3.33159,10.21937L978.08846,303.178h-6.10167v14.936h3.85565V307.48288Z"/></svg>