<svg id="LOGO" xmlns="http://www.w3.org/2000/svg" viewBox="0 0 1250 703"><defs><style>.cls-1,.cls-3{fill:#231f20;}.cls-1,.cls-2{fill-rule:evenodd;}.cls-2{fill:#ed1c24;}</style></defs><path class="cls-1" d="M494.23639,395.56709c-12.08712,0-18.07241,1.88352-23.76321-4.65476-11.3604-13.05959-10.36886-55.39733-1.59325-68.30861,7.98533-11.7566,25.10645-8.16331,25.35222,17.70163.18221,18.38174.02966,36.87153.00424,55.26174Zm-.02543-88.487a4.44936,4.44936,0,0,1-.32416-.3517c-.06991-.08475-.23093-.25213-.30933-.34959l-1.45553-2.13987c-9.27562-14.31809-30.52394-12.51933-42.25088,2.24793-10.36038,13.04688-14.19521,34.81428-13.23756,55.60284,1,21.61062,7.12091,39.81863,20.44322,48.56033,8.36246,5.4874,19.1148,4.19289,30.07054,4.20136q17.155.02225,34.31.02754c.17373-4.81789-1.10172-12.69941-1.3263-18.1741-.26695-6.5298-.22458-13.04265-.22458-19.5788l-.01271-78.241c-.00424-6.20351.38348-35.21047-.23518-38.87156l-25.4073.108-.04026,46.9586Z"/><path class="cls-1" d="M737.733,317.03792c26.07045,0,29.4201-2.50429,29.4201,34.77615,0,9.53409-1.14833,57.74907.37712,62.98859l25.23993-.1356c.61018-4.46619.1589-42.30172.1589-50.20019,0-26.04927,5.28825-67.78954-31.94557-68.14336-16.65289-.1589-33.39053.00424-50.05612.00424.54238,19.86694,1.053,38.969,1.053,58.93978,0,7.62092-.52755,56.2893.34959,59.53513l25.39247-.12288.0106-97.64186Z"/><path class="cls-1" d="M355.475,354.18064l.05932,41.45c-11.246-.00423-30.17435,4.142-28.062-20.73983,1.25-14.71853,12.63374-20.2928,28.0027-20.71018ZM312.92331,320.3113c4.28822-1.35385,7.37939-3.50643,13.01934-4.87934,18.29063-4.44077,28.88831.21187,28.92856,21.59367-16.477.30085-29.68282,4.54458-39.24234,12.97484-22.29707,19.65719-14.87954,63.04368,15.01515,64.72592,16.34567.91527,35.33547.06144,51.97565.06144-1.61444-16.64229-1.7119-31.18921-1.7119-48.01583,0-28.78873,5.337-64.89117-27.86287-71.28961-15.51091-2.99159-27.615.81782-40.11523,7.479l-.00636,17.34994Z"/><path class="cls-1" d="M983.6533,344.44951c1.66953-38.86733,31.55574-41.967,31.87354.05085l-31.87354-.05085Zm55.11131,18.25885c2.44073-27.62769-2.60175-54.98843-21.86909-64.30006-11.5299-5.57851-25.59164-3.37931-34.92446,2.85387-8.19932,5.46622-14.16554,13.28841-18.53,25.20391-8.01288,21.8797-6.62514,54.30621,5.32,71.84683A39.81917,39.81917,0,0,0,995.47558,415.29c14.70793,2.6187,24.74628-.58476,37.17026-4.51069l-.14831-18.55335c-10.52987,3.03608-25.79926,6.89421-36.15329.928-8.58916-4.95773-13.12951-16.86264-12.72484-30.33961l55.14521-.10594Z"/><path class="cls-1" d="M600.48223,344.49612c.51484-12.3011,4.79459-29.51756,16.12957-30.03452,12.81806-.57628,15.619,17.59358,15.71643,30.03452Zm55.07529,18.136c2.5615-26.85225-2.76276-55.23-21.7674-64.24286-11.57651-5.49164-25.598-3.40473-34.99013,2.84328-28.61288,19.02582-28.99424,74.01-13.21637,97.12489a39.906,39.906,0,0,0,26.77386,16.958c14.70157,2.53819,24.64034-.54662,37.11094-4.55518l-.13136-18.55335c-10.95786,3.18863-25.25476,6.84548-36.113.93434-8.71416-4.73738-13.22485-16.9156-12.78628-30.32054l55.11978-.18856Z"/><path class="cls-1" d="M912.87006,392.47169c-13.7058,3.94076-23.10853,4.11873-30.87141-5.2035-12.01719-14.42614-11.44091-48.34.56569-62.86147,7.64423-9.25019,16.51941-8.75018,30.31631-5.30943l-.1589-20.21229c-12.1761-9.59765-64.68143-4.09754-65.09669,57.52874-.5,74.01636,63.69624,60.9716,65.245,55.23207V392.47169Z"/><path class="cls-1" d="M256.01535,392.52677c-14.11046,3.8433-22.081,4.35815-30.64682-5.02976-12.29051-13.47062-11.54049-49.51374.30085-63.014,8.30314-9.47053,15.8372-8.89,30.346-5.43655V299.46129c-1.5-5.09757-44.72126-12.77993-60.48007,29.39679-7.19294,19.24828-6.49377,49.59637,4.50645,67.28741a49.49076,49.49076,0,0,0,3.28609,4.77341c1.26274,1.6102,2.67166,2.70132,3.97042,4.087,4.79671,5.13146,12.48755,9.1379,21.63392,10.5892,6.248.98943,23.95177,1.2246,27.08319-3.94924v-19.119Z"/><polygon class="cls-2" points="312.559 248.161 381.054 248.161 381.054 266.823 312.559 266.823 312.559 248.161 312.559 248.161"/><path class="cls-3" d="M1039.31124,292.41453V273.38024h-6.77981V269.5094h18.16987v3.87084h-6.75014v19.03429Zm14.32656,0V269.5094h6.9493l4.106,15.62532,4.0594-15.62532h6.962v22.90513h-4.2861l-.01907-18.03-4.51705,18.03h-4.45771l-4.49162-18.03-.02119,18.03Z"/></svg>