<?xml version="1.0" encoding="UTF-8"?><svg id="LOGO" xmlns="http://www.w3.org/2000/svg" viewBox="0 0 1250 703"><defs><style>.cls-1,.cls-2,.cls-3,.cls-4{stroke-width:0px;}.cls-2{fill:none;}.cls-3{fill:#e95420;}.cls-4{fill:#fff;}</style></defs><path class="cls-1" d="m477.25875,434.99915c-6.14812,0-11.85475-1.10099-17.13079-3.30298s-9.85988-5.4123-13.75695-9.63097c-3.89707-4.21865-6.97114-9.42385-9.21673-15.61556-2.25104-6.19171-3.36838-13.27731-3.36838-21.25679s1.21546-15.06507,3.64636-21.25679,5.66303-11.39691,9.70181-15.61556c4.03334-4.21866,8.71528-7.40717,14.03493-9.56011,5.31965-2.15293,10.86822-3.23212,16.6457-3.23212,3.5755,0,6.82942.22892,9.76723.68675,2.93235.45784,5.50497,1.03014,7.70696,1.72235,2.20199.68675,4.08239,1.37352,5.64123,2.06572,1.55882.68675,2.75247,1.30811,3.5755,1.85861l-3.025,8.11573c-2.29464-1.37352-5.20518-2.72523-8.73708-4.06059-3.5319-1.32991-7.90862-1.99487-13.14106-1.99487-5.9628,0-11.16798,1.00834-15.61556,3.02501-4.44758,2.01667-8.18658,4.86181-11.2116,8.52996-3.025,3.66816-5.29785,8.02852-6.81307,13.0702-1.51523,5.04712-2.27285,10.6393-2.27285,16.78741s.75762,12.04006,2.27285,17.13079,3.73901,9.42385,6.67136,13.0048c2.93235,3.5755,6.53509,6.32797,10.80281,8.25744,4.2677,1.92401,9.15132,2.88874,14.65084,2.88874,6.05545,0,11.11893-.57229,15.20132-1.72235,4.08239-1.1446,7.17826-2.31644,9.28759-3.5101l2.61621,7.97948c-.64315.45784-1.74415.98653-3.30298,1.58063-1.55882.59955-3.5319,1.21546-5.91375,1.85861-2.3873.64315-5.13978,1.17185-8.25744,1.58063-3.11766.41424-6.60595.62136-10.45943.62136l-.00002-.00544Z"/><path class="cls-1" d="m540.92011,360.15345c4.67649,0,8.64444.66496,11.9038,1.99487,3.25391,1.32991,5.89194,3.16672,7.90862,5.50497,2.01668,2.33824,3.48285,5.11253,4.40398,8.32285.91567,3.21032,1.37353,6.69862,1.37353,10.45398v44.85183c-.91567.27252-2.25104.57229-3.98974.89388-1.74415.32158-3.76083.66496-6.05545,1.03014-2.29465.36519-4.84001.66496-7.6361.89388-2.80154.22893-5.66303.34338-8.60082.34338-3.76081,0-7.22186-.41424-10.38857-1.23725-3.16672-.82302-5.91375-2.13113-8.25744-3.91888-2.33825-1.78775-4.17505-4.08239-5.50497-6.87848s-1.99487-6.21352-1.99487-10.25231.73582-7.15645,2.20199-9.90349c1.46617-2.75247,3.5319-5.01987,6.19171-6.81307,2.65983-1.78775,5.82654-3.09586,9.49471-3.91888s7.65789-1.23725,11.96922-1.23725c1.28084,0,2.63804.07086,4.0606.20712s2.79609.32158,4.126.5505,2.4745.45784,3.43924.68676,1.62968.43603,1.99485.62136v-4.40396c0-2.47451-.18533-4.88361-.5505-7.22186-.36517-2.33824-1.17186-4.44758-2.40909-6.32798-1.23726-1.88041-2.98138-3.39019-5.227-4.54023-2.25104-1.1446-5.20518-1.72235-8.87335-1.72235-5.22699,0-9.12952.36518-11.69668,1.10099s-4.44758,1.32991-5.64123,1.78775l-1.23725-7.84321c1.55882-.73036,3.96793-1.42257,7.22186-2.06572,3.25392-.6377,7.17826-.96473,11.76208-.96473l.01088.00538Zm.82302,66.31573c3.48283,0,6.53511-.11445,9.15132-.34338s4.83455-.5287,6.67136-.89388v-25.03941c-1.00832-.45784-2.61621-.93748-4.81822-1.44437-2.20197-.50145-5.227-.75762-9.08045-.75762-2.20199,0-4.49663.16351-6.87848.47964-2.3873.32158-4.58929,1.00834-6.60595,2.06573-2.01668,1.05739-3.66816,2.50176-4.95446,4.33312-1.2863,1.8368-1.92401,4.2677-1.92401,7.29272,0,2.65983.43603,4.90541,1.30811,6.74221s2.10932,3.30298,3.71722,4.40396c1.60244,1.10099,3.5319,1.90766,5.77749,2.40911,2.24559.50689,4.79096.75762,7.6361.75762l-.00002-.00546Z"/><path class="cls-1" d="m585.82643,364.27945c2.65983-.73036,6.23533-1.55883,10.73195-2.4745,4.49117-.91567,9.99616-1.37352,16.50943-1.37352,5.4123,0,9.9253.77941,13.54983,2.33824,3.62457,1.55883,6.5133,3.78262,8.66624,6.67136s3.68997,6.35524,4.6111,10.38857c.91567,4.03879,1.37353,8.48637,1.37353,13.34817v39.76108h-8.94419v-36.87235c0-5.04167-.34338-9.30938-1.03014-12.79768-.68676-3.48284-1.8368-6.32798-3.43924-8.52996-1.60789-2.20198-3.71722-3.78262-6.32797-4.74735-2.61621-.96473-5.89194-1.44437-9.83807-1.44437-4.21865,0-7.86501.22892-10.93907.68675s-5.06892.87208-5.98459,1.23726v62.46225h-8.94419v-68.65397l.00539.00002Z"/><path class="cls-1" d="m721.54285,397.44003c0,5.59761-.8012,10.68836-2.40909,15.27218-1.60789,4.58929-3.85348,8.48637-6.74221,11.69668-2.88874,3.21033-6.30618,5.71209-10.25231,7.49984-3.94613,1.78775-8.30104,2.68163-13.07019,2.68163s-9.12952-.89388-13.07019-2.68163c-3.94613-1.78775-7.35812-4.28405-10.25231-7.49984-2.88874-3.21033-5.13978-7.1074-6.74221-11.69668-1.60789-4.58384-2.40909-9.67456-2.40909-15.27218s.8012-10.6829,2.40909-15.27218c1.60244-4.58384,3.85348-8.50817,6.74221-11.76209,2.88874-3.25392,6.30618-5.77749,10.25231-7.56524,3.94067-1.78775,8.30104-2.68162,13.07019-2.68162s9.12406.89387,13.07019,2.68162c3.94067,1.78775,7.35812,4.31131,10.25231,7.56524,2.88874,3.25937,5.13432,7.17825,6.74221,11.76209,1.60244,4.58929,2.40909,9.68002,2.40909,15.27218Zm-9.49469,0c0-8.89515-2.06571-15.98075-6.19171-21.25679s-9.72363-7.90861-16.78741-7.90861-12.65595,2.63802-16.78741,7.90861c-4.126,5.27604-6.19171,12.36164-6.19171,21.25679s2.06571,15.95894,6.19171,21.19139c4.126,5.22699,9.72363,7.84322,16.78741,7.84322s12.65595-2.61621,16.78741-7.84322c4.126-5.22699,6.19171-12.29078,6.19171-21.19139Z"/><path class="cls-1" d="m737.64895,364.27945c2.65983-.73036,6.23533-1.55883,10.73195-2.4745,4.49117-.91567,9.99616-1.37352,16.50943-1.37352,5.4123,0,9.9253.77941,13.54983,2.33824,3.62457,1.55883,6.5133,3.78262,8.66624,6.67136s3.68997,6.35524,4.6111,10.38857c.91567,4.03879,1.37353,8.48637,1.37353,13.34817v39.76108h-8.94419v-36.87235c0-5.04167-.34338-9.30938-1.03014-12.79768-.68676-3.48284-1.8368-6.32798-3.43924-8.52996-1.60789-2.20198-3.71722-3.78262-6.32797-4.74735-2.61621-.96473-5.89194-1.44437-9.83807-1.44437-4.21865,0-7.86501.22892-10.93907.68675s-5.06892.87208-5.98459,1.23726v62.46225h-8.94419v-68.65397l.00539.00002Z"/><path class="cls-1" d="m823.04673,340.34103c0,2.10932-.64318,3.78262-1.92403,5.01988-1.2863,1.23726-2.84512,1.85861-4.6765,1.85861s-3.39562-.62135-4.6765-1.85861c-1.2863-1.23726-1.92403-2.91054-1.92403-5.01988s.64315-3.78262,1.92403-5.01988c1.28084-1.23726,2.8397-1.85861,4.6765-1.85861s3.39017.62135,4.6765,1.85861c1.2863,1.23726,1.92403,2.91054,1.92403,5.01988Zm-2.06571,92.59784h-8.94419v-71.13393h8.94419v71.13393Z"/><path class="cls-1" d="m870.39486,434.44864c-5.50495,0-10.36678-.87208-14.58543-2.61621-4.21865-1.74415-7.72878-4.24046-10.52487-7.49984-2.80154-3.25392-4.93269-7.15645-6.39883-11.69668-1.46614-4.54022-2.20201-9.56011-2.20201-15.06506s.75762-10.6829,2.27287-15.27218c1.51524-4.58384,3.68997-8.52996,6.53509-11.83294,2.83967-3.30298,6.28439-5.84834,10.31775-7.63609s8.57356-2.68162,13.62069-2.68162c3.85344,0,7.4508.32158,10.80278.96473,3.34659.64315,5.93556,1.46617,7.77236,2.4745l-2.33827,7.70695c-1.8368-.91567-3.89709-1.65149-6.19171-2.20198s-5.36323-.82302-9.21674-.82302c-7.8868,0-13.87685,2.54536-17.95378,7.63609-4.08239,5.09073-6.12085,12.31258-6.12085,21.67103,0,4.21865.45782,8.09393,1.37353,11.62582.91571,3.5319,2.40913,6.5569,4.46935,9.08047,2.06575,2.52356,4.72557,4.49663,7.97948,5.91375,3.25391,1.42256,7.22186,2.13113,11.89833,2.13113,3.85344,0,7.0856-.43603,9.70184-1.30811s4.51845-1.62968,5.71207-2.27285l1.92403,7.70696c-1.6515.91567-4.24593,1.815-7.77236,2.68163-3.53189.87208-7.22186,1.30811-11.0753,1.30811v.00541Z"/><path class="cls-1" d="m924.22904,360.15345c4.67647,0,8.64442.66496,11.89833,1.99487,3.25391,1.32991,5.89198,3.16672,7.91408,5.50497,2.01664,2.33824,3.48285,5.11253,4.40395,8.32285.91571,3.21032,1.37353,6.69862,1.37353,10.45398v44.85183c-.91571.27252-2.25104.57229-3.98971.89388-1.74412.32158-3.76083.66496-6.05545,1.03014s-4.84001.66496-7.6361.89388-5.66303.34338-8.60084.34338c-3.76083,0-7.22186-.41424-10.38861-1.23725-3.16675-.82302-5.91373-2.13113-8.25746-3.91888-2.33827-1.78775-4.17507-4.08239-5.50495-6.87848-1.32988-2.79609-1.99489-6.21352-1.99489-10.25231s.73034-7.15645,2.20201-9.90349c1.46614-2.75247,3.53189-5.01987,6.19171-6.81307,2.65983-1.78775,5.82651-3.09586,9.49472-3.91888,3.66815-.82302,7.65792-1.23725,11.96919-1.23725,1.28084,0,2.63255.07086,4.06056.20712,1.42256.13626,2.79609.32158,4.12597.5505s2.47453.45784,3.43927.68676,1.62968.43603,1.99489.62136v-4.40396c0-2.47451-.1853-4.88361-.5505-7.22186-.3652-2.33824-1.17186-4.44758-2.40913-6.32798s-2.98138-3.39019-5.22697-4.54023c-2.25104-1.1446-5.20521-1.72235-8.87336-1.72235-5.22697,0-9.12952.36518-11.69666,1.10099-2.56714.73582-4.45305,1.32991-5.64121,1.78775l-1.23726-7.84321c1.55882-.73036,3.96795-1.42257,7.22186-2.06572,3.25391-.6377,7.17828-.96473,11.76207-.96473l.01098.00538Zm.82302,66.31573c3.48285,0,6.53509-.11445,9.15134-.34338s4.83455-.5287,6.67136-.89388v-25.03941c-1.00832-.45784-2.61625-.93748-4.81273-1.44437-2.20201-.50145-5.22697-.75762-9.08048-.75762-2.20201,0-4.49663.16351-6.87848.47964-2.3873.32158-4.58931,1.00834-6.60595,2.06573s-3.66815,2.50176-4.95445,4.33312c-1.2863,1.8368-1.92403,4.2677-1.92403,7.29272,0,2.65983.43606,4.90541,1.30812,6.74221s2.10932,3.30298,3.71718,4.40396c1.6024,1.10099,3.53189,1.90766,5.77747,2.40911,2.24559.50689,4.79097.75762,7.6361.75762l-.00546-.00546Z"/><path class="cls-1" d="m986.98018,434.17612c-3.02503-.09267-5.66303-.47964-7.90862-1.17185-2.25104-.68676-4.12597-1.74415-5.64121-3.16672-1.51524-1.42256-2.65983-3.25392-3.43927-5.50497-.77944-2.24559-1.17186-5.06892-1.17186-8.45911v-88.05761l8.94422-1.65149v89.43113c0,2.20199.20712,3.96793.62136,5.29785s1.03014,2.3873,1.85862,3.16672c.82302.77941,1.9022,1.35716,3.23215,1.72235,1.32988.36519,2.91053.68676,4.74733.96473l-1.23726,7.42898-.00546-.00002Z"/><rect class="cls-3" x="263.84606" y="241.88395" width="137.58592" height="218.01834"/><rect class="cls-2" x="280.22468" y="333.60971" width="104.82867" height="104.82867"/><circle class="cls-4" cx="295.3061" cy="380.47276" r="14.24205"/><circle class="cls-4" cx="354.62889" cy="349.24163" r="14.24205"/><path class="cls-4" d="m327.43111,417.13254c-10.25776-2.19653-18.83678-8.75343-23.65499-18.04102-3.79897,1.7278-8.06668,2.2565-12.17632,1.49888,5.83199,14.3238,18.20453,24.72873,33.38406,27.98265,3.33023.71401,6.73132,1.06285,10.11605,1.04104-2.61622-3.43924-4.07149-7.58705-4.1696-11.90926-1.17185-.13081-2.3437-.32158-3.49374-.56685l-.00545-.00544Z"/><circle class="cls-4" cx="351.41857" cy="417.2143" r="14.24205"/><path class="cls-4" d="m371.23644,411.98185c4.43123-5.58126,7.54889-12.18178,9.05321-19.20197,2.62167-12.23083.17442-25.06666-6.71496-35.47703-1.64059,3.86437-4.42577,7.13465-8.01217,9.38023,3.84257,7.24366,5.01442,15.60467,3.29207,23.64955-.84482,3.93523-2.3328,7.64699-4.43123,11.03718,3.35203,2.74704,5.71753,6.44789,6.81852,10.61204h-.00545Z"/><path class="cls-4" d="m294.20511,360.04989c.35973-.0218.72491-.02725,1.08464-.02725,1.43892,0,2.87784.15261,4.30041.45784,2.3219.49599,4.50753,1.37897,6.5024,2.61622,6.41519-9.22217,16.76016-14.75984,27.97175-14.96151.05996-1.07374.20166-2.15293.43058-3.20487.65405-3.05226,1.98941-5.90285,3.89163-8.34465-17.91021-1.41712-35.31897,7.82686-44.18141,23.46423Z"/></svg>