<?xml version="1.0" encoding="UTF-8"?><svg id="LOGOS" xmlns="http://www.w3.org/2000/svg" viewBox="0 0 1250 703"><g id="Layer_4"><g><path d="M796.01787,428.9539c-14.6748-25.40265-29.2555-50.86055-44.07764-76.17521-2.79092-4.76748-4.0411-9.29556-3.61346-14.96332,1.64509-21.83624-3.30655-42.47142-12.9888-61.98737-12.76783-25.74025-32.7155-44.1206-58.44757-56.46487-1.54688-.7407-2.84002-1.61644-3.74237-3.18786-14.51113-25.25328-29.06932-50.47996-43.61725-75.71277-1.40364-2.43489-2.8257-4.86159-4.35416-7.48882-.49516,.79594-.83482,1.31361-1.14583,1.84765-15.62214,27.0375-31.25044,54.075-46.84191,81.13296-.84505,1.46707-1.90085,2.45535-3.44772,3.18172-14.35561,6.73789-27.29327,15.54646-38.07635,27.22779-25.22872,27.33215-36.42717,59.60568-33.46643,96.72239,.14323,1.78831-.23121,3.2697-1.10082,4.7736-15.5219,26.85335-31.0254,53.71898-46.51047,80.59483-.36421,.6302-.99646,1.19288-.87165,2.18527h2.28757c31.03359,0,62.06716,.00819,93.09871-.02046,1.6901-.00205,3.09579,.42151,4.4933,1.39749,22.83475,15.98433,48.08599,23.89671,76.05858,22.79794,24.37344-.9576,46.58619-8.28066,66.50317-22.40917,1.7433-1.23587,3.49477-1.80467,5.64116-1.8006,30.82283,.04911,61.64567,.03479,92.4685,.0307,.91052,0,1.82106-.04501,2.73157-.06751v-.42151c-.65682-.12071-.72436-.75299-.98013-1.19288Zm-90.73951-3.50501c1.20927-1.12742,2.27939-2.14229,3.36996-3.1367,6.45554-5.88261,12.11715-12.46091,17.25292-19.51799,.9535-1.30953,.60974-1.75557-.61998-2.42261-2.95257-1.60006-5.8683-3.2738-8.71854-5.04985-1.22563-.7632-1.8231-.54837-2.67427,.56268-8.11289,10.60711-17.50666,19.89652-28.6212,27.36283-14.52544,9.75796-30.52206,15.40119-47.93663,17.11175-20.73543,2.03793-40.67902-.71819-59.56065-9.80095-16.04368-7.71593-29.06316-19.15582-40.0836-32.99992q-2.44512-3.07124-5.92354-1.06193c-2.36327,1.36682-4.68154,2.81957-7.09801,4.08406-1.16425,.60974-1.07013,1.02511-.39286,1.98883,5.92967,8.41162,12.8599,15.90453,20.82751,22.84295h-82.9622c13.79907-23.91102,27.52857-47.70337,41.477-71.87425,1.81082,9.15641,4.27436,17.64169,7.74459,25.81597,.60156,1.41593,1.30338,2.79092,1.87016,4.22116,.33557,.8471,.68545,1.01897,1.50186,.53404,3.24925-1.93153,6.50668-3.85284,9.81526-5.67595,1.03125-.56678,.86756-1.0865,.50335-1.96018-4.40531-10.5846-7.56453-21.52116-8.98249-32.91602-2.35713-18.94916,.32942-37.21083,8.0781-54.63359,10.39022-23.36266,26.07582-42.04992,48.93513-54.17731,12.37906-6.56806,25.62362-10.45161,39.46771-12.36883,2.86253-.39695,2.86867-.34375,2.86867-3.16127,0-3.02008-.09616-6.04426,.03888-9.05819,.07161-1.56938-.46652-1.83333-1.88449-1.70033-9.24644,.87369-18.26781,2.79092-27.09684,5.66367-.83482,.27213-1.62258,.82254-2.75409,.59951,13.78679-23.89056,27.52243-47.69313,41.42789-71.78831,13.88091,24.0522,27.60633,47.83636,41.40539,71.74738-1.09672,.31101-1.86607-.28032-2.65996-.54018-8.82289-2.88708-17.84835-4.76338-27.08661-5.68823-1.59599-.1596-2.05432,.24554-1.98268,1.87016,.13915,3.08351,.21281,6.19158-.02046,9.26281-.15756,2.08295,.68954,2.5597,2.49421,2.77046,7.18189,.84095,14.20421,2.4533,21.10784,4.60173,27.34852,8.50779,47.70746,25.61953,61.88915,50.32036,9.38762,16.34855,14.64411,33.87565,14.72391,52.81049,.06751,15.85133-3.44362,30.99675-9.48993,45.57539-.7366,1.77807-.42763,2.5147,1.18676,3.34951,2.85843,1.47525,5.63299,3.12034,8.37071,4.81249,1.16221,.71819,1.60211,.58109,2.19139-.6875,4.31527-9.30782,7.32719-19.02282,9.38148-29.62993,13.96071,24.18724,27.68818,47.96935,41.52406,71.93971-27.66563,.00205-55.13076,.00205-82.90487,.00205Z"/><path d="M796.64605,494.53221c-4.34187-5.23808-9.30577-9.88687-13.98526-14.80371-.57088-.59953-1.35658-.63429-2.15048-.63225-6.66627,.01229-13.33256,.02455-19.99883-.01024-1.14787-.00614-1.99497,.39287-2.77046,1.20927-4.2539,4.47283-8.52826,8.92315-12.81079,13.36938-.66294,.6875-1.0333,1.42205-1.03126,2.42056,.02455,10.6726,.0266,21.34312-.0041,32.01572-.00205,1.00465,.27622,1.32998,1.29928,1.31769,4.35211-.04911,8.70423-.06344,13.05429,.00614,1.21539,.01841,1.36682-.50948,1.34227-1.51004-.0532-2.17503,.04501-4.35416-.04091-6.52714-.04911-1.23177,.24757-1.72489,1.60211-1.71056,6.17522,.06751,12.35246,.0573,18.5297,.00614,1.20517-.01024,1.52845,.37853,1.54891,1.5571,.04501,2.64565-.32942,5.30561,.19642,7.93898,.56678,.63839,1.31157,.29873,1.96223,.30897,4.53627,.06751,9.07251,.08595,13.61083,.12071v-34.9785c-.08999-.14324-.20868-.17392-.35395-.09821Zm-15.46665,10.77488c.01024,1.07217-.8778,.67523-1.40159,.68135-3.15104,.03479-6.30412,.01841-9.45514,.01841s-6.30412-.04911-9.45514,.0266c-1.11106,.0266-1.23382-.36217-1.41798-1.38933-.9842-5.52659,3.2779-7.82438,6.59261-10.43934,2.11978-1.67169,8.72673-.27008,10.7483,1.64919,.81231,.77139,1.4998,1.70441,2.39805,2.351,2.58833,1.86404,1.96632,4.56494,1.99088,7.10212Z"/><path d="M653.57278,509.17632c1.5264-1.34022,2.93618-2.81547,4.42372-4.2007,.82664-.76935,1.18881-1.67169,1.17857-2.80113-.0307-3.29835-.0225-6.59875-.0041-9.89711,.00614-1.19493-.42559-2.12798-1.27883-2.97303-2.84207-2.81342-5.65345-5.65959-8.43617-8.53028-.7407-.76525-1.56939-1.11106-2.60676-1.11106-13.26297,.0041-26.52597,.00614-39.79099-.00205-1.36886,0-2.04408,.31102-2.01748,2.00726,.12073,7.57886,.0532,15.16178,.0532,22.74269,0,7.72207,.00614,15.44415-.00818,23.16418-.00205,1.02921-.12891,1.89267,1.44047,1.85582,4.34802-.09821,8.70218-.06751,13.05223-.01024,1.12332,.01431,1.43843-.35398,1.41183-1.44458-.06957-2.66611,.10026-5.34243-.06548-7.9983-.11253-1.8272,.54836-2.22209,2.23846-2.13614,4.19865,.21892,8.40139,.22302,12.60824,.00205,2.3735-.12481,4.23957,.94941,5.88875,2.71112,2.04203,2.18322,1.27678,4.74293,1.31567,7.18804,.02046,1.25018,.29056,1.71261,1.6369,1.68601,4.27846-.08595,8.56303-.08799,12.84148,0,1.37704,.02865,1.64714-.48288,1.59804-1.71056-.09821-2.44716-.35602-4.90251-.01636-7.34764,.37036-2.65587-.42354-4.76543-2.59857-6.41869-1.05171-.80004-1.85992-1.91107-2.86048-2.78682-.83491-.73046-.86356-1.23379-.00417-1.98883Zm-10.95701-9.47764c-.81231,2.31213-3.29016,4.17205-5.74346,4.19046-4.8309,.03479-9.65976-.01636-14.49066,.0307-1.0558,.01024-1.48549-.22507-1.44252-1.38113,.08798-2.3776,.0798-4.76134,.0041-7.14098-.03683-1.13151,.38058-1.44253,1.45274-1.42,2.7991,.0573,5.60024,.01841,8.39935,.01841,2.5904,0,5.18078-.02455,7.76913,.00614,3.28197,.03886,5.12348,2.64767,4.05131,5.69641Z"/><path d="M581.78652,511.95495c0-5.19307-.0266-10.38818,.01842-15.58125,.01023-1.26247-.28441-2.22823-1.2154-3.17354-4.18228-4.24776-8.28476-8.57122-12.39543-12.88854-.83277-.8737-1.77808-1.22768-2.9853-1.22358-6.5251,.01229-13.04815-.01024-19.57323-.06956-1.20925-.01024-2.1382,.33147-2.97916,1.21539-4.20479,4.42167-8.43822,8.81675-12.68188,13.2016-.82255,.84915-1.28292,1.78012-1.28292,2.98529,.01637,10.52935,.0266,21.05668-.01432,31.58604-.0041,1.14173,.3949,1.42205,1.45479,1.40978,4.35006-.04501,8.70013-.04911,13.05019,.00205,1.11514,.01229,1.44661-.36831,1.40978-1.45684-.07366-2.24459,.03478-4.49328-.04501-6.73585-.04297-1.16016,.27214-1.55915,1.49777-1.54688,6.24478,.05935,12.48954,.0573,18.73432,0,1.14787-.01024,1.40364,.37443,1.36886,1.43434-.07161,2.24459,.03273,4.49328-.04501,6.73585-.03888,1.12947,.20666,1.60006,1.47116,1.57755,4.20888-.07775,8.42185-.08595,12.62868,.0041,1.35453,.02865,1.62462-.42763,1.6103-1.68191-.06549-5.26465-.02661-10.52933-.02661-15.79403Zm-15.63444-6.86883c-.02046,1.21336-.7939,.90644-1.42411,.91052l-9.46538,.00819c-3.15512,0-6.31229-.0532-9.46538,.02865-1.1356,.02865-1.22972-.40308-1.41183-1.40569-1.00669-5.54295,3.2697-7.81619,6.60489-10.43729,2.0277-1.59394,8.68376-.26396,10.58052,1.53459,.71205,.67523,1.30133,1.52028,2.10342,2.05432,2.74386,1.82513,2.52492,4.55468,2.47787,7.30671Z"/><path d="M477.80857,494.20481c2.24665,0,4.51784,.22302,6.73175-.04501,4.82886-.58929,8.83517,.48083,11.53606,4.8309,.65271,1.05171,1.16016,.76115,1.90494-.02455,3.28403-3.46,6.61103-6.87907,9.98919-10.24699,.80004-.79799,.72637-1.23177-.04911-1.94177-2.2712-2.08499-4.50557-4.21092-6.69901-6.37778-.76321-.75299-1.58575-1.00465-2.62722-1.03126-10.09967-.24962-20.19935-.14527-30.30107,0-1.16425,.01636-1.97451,.50948-2.74385,1.29314-3.59095,3.65233-7.15735,7.33535-10.84037,10.89152-1.18266,1.14173-1.5571,2.33259-1.51618,3.904,.08594,3.36791,.00614,6.7379,.03274,10.10786,.0266,3.50092-.72842,7.29444,.38058,10.41888,1.11719,3.14694,4.59355,5.16032,7.07755,7.62796,2.07886,2.06453,3.90605,4.40941,6.38596,6.05243,.02865,.11867,.04502,.23941,.05115,.36217h32.43927c.09822-.09207,.12277-.20256,.07366-.32738,3.35155-2.14024,5.57364-5.46929,8.48528-8.07195,.55859-.49924,.15141-.84915-.20666-1.20517-3.67894-3.65438-7.35377-7.3108-11.06954-11.00612-1.0026,1.10696-2.08091,2.12388-2.94642,3.2963-1.29519,1.75352-2.90959,2.35304-5.07235,2.25279-3.36178-.15756-6.73994-.14936-10.10377-.01431-6.11587,.24348-9.00295-2.46149-9.005-8.63874,0-1.19288,.01637-2.38784-.02865-3.57867-.2087-5.40587,2.75204-8.52826,8.12108-8.52826Z"/><path d="M722.77478,514.03587c-7.364,.1064-14.73005-.03886-22.09201,.10026-1.95611,.03684-2.25483-.57904-2.2405-2.34076,.08595-10.03216,0-20.06634,.0839-30.0985,.01431-1.60825-.41947-1.97452-1.96632-1.92951-3.99404,.11662-7.99625,.11255-11.99234,.00205-1.54074-.04296-2.01952,.31716-1.99907,1.94177,.09411,7.57681,.04296,15.15359,.04296,22.73245,0,7.71798,.00819,15.43596-.01024,23.15396-.00205,1.05171-.0839,1.84151,1.46094,1.83537,13.11566-.05935,26.23336-.04911,39.34902-.01024,1.23587,.0041,1.51823-.43173,1.4998-1.58165-.06344-3.85694-.11255-7.72003,.01636-11.57492,.05732-1.70851-.35395-2.25688-2.1525-2.23028Z"/><path d="M705.36021,311.16255c-3.25539-12.2788-8.77379-23.38926-17.09539-33.10222-6.93227-8.08834-15.00628-14.66458-24.3714-19.71033-8.69808-4.68767-17.98545-7.59726-27.71681-8.97022-4.92094-.69569-9.91961-.69977-14.92239-.55859-6.87498,.19643-13.60264,1.25223-20.11341,3.24515-10.18562,3.11829-19.49344,7.98807-27.90096,14.67072-7.54611,5.99924-13.78884,13.09111-18.73637,21.25925-7.37628,12.18467-11.74067,25.37809-12.08237,39.74803-.0041,2.38578-.00818,4.77157-.01228,7.15531h0c.21484,2.36736,.21484,4.74088,.54836,7.10824,1.05989,7.54406,2.85843,14.87532,5.99514,21.84034,11.00815,24.43689,29.37008,40.38028,55.16968,47.69518,4.55877,1.29314,9.25054,2.22004,13.93616,2.52082,4.56286,.29261,9.18506,.14322,13.80521-.19847,7.55635-.55859,14.80371-2.16684,21.87104-4.747,10.79331-3.93674,20.36099-9.9094,28.58846-17.90155,7.73641-7.51541,13.8666-16.18485,18.31487-26.08605,4.1516-9.23826,6.39619-18.87346,7.12053-28.91993,.58724-3.25948,.58724-6.521,0-9.78048-.34581-5.15829-1.07424-10.27565-2.39808-15.2682Zm-2.67837,27.63498c-.90644,9.77025-3.39247,19.05557-7.94305,27.6452-12.63073,23.83941-32.21828,38.31574-59.06346,42.22794-41.27853,6.01561-80.10171-22.80815-87.3143-63.42169-1.46912-8.27657-1.84766-16.59817-.58111-24.80927,2.5597-16.58999,9.65771-31.10315,21.34723-43.3042,4.90456-5.11941,10.47002-9.33442,16.48972-13.00517,7.83666-4.77975,16.34035-7.82233,25.3167-9.50425,3.40476-.63839,6.90567-.77548,10.36158-1.14174h7.62182c10.86287,.54426,21.18559,3.26766,30.89854,8.08833,9.85415,4.89024,18.1696,11.76112,25.27579,20.18708,8.01875,9.5063,13.26297,20.36509,16.0764,32.38403,1.89881,8.09446,2.28755,16.30761,1.51414,24.65376Z"/><path d="M689.65825,340.99301c-11.09204,.11867-22.18615,.08595-33.27819,.02046-1.43024-.00819-2.03181,.42968-2.5413,1.76581-5.5982,14.6789-21.96105,22.64038-37.33974,18.24531-14.96946-4.27846-24.53713-19.81262-21.648-35.14425,2.51265-13.32437,13.55558-23.75961,26.55257-25.09164,14.37811-1.47116,27.20324,6.19976,32.43722,19.49752,.50539,1.28497,1.13766,1.59393,2.43285,1.57552,5.6166-.07775,11.23323-.03273,16.84984-.03273,5.68619,0,11.3744-.04706,17.06059,.03478,1.36068,.01842,1.73716-.35807,1.45684-1.64713-.37238-1.71056-.58109-3.45999-.99646-5.16032-8.46277-34.59794-43.26736-56.82295-78.24179-49.98274-36.74636,7.18804-60.70241,42.49393-53.4673,79.1605,9.77843,49.54898,66.41724,70.23325,105.65783,41.98446,14.66049-10.55391,23.65525-24.99343,27.02319-42.84382,.32738-1.73923,.11252-2.40422-1.95816-2.38172Z"/></g></g></svg>