<?xml version="1.0" encoding="UTF-8"?><svg id="LOGO" xmlns="http://www.w3.org/2000/svg" viewBox="0 0 1250 703"><defs><style>.cls-1{fill:#c41230;stroke-width:0px;}</style></defs><g id="carnegie_mellon"><polygon class="cls-1" points="769.43027 273.9733 769.43027 223.36445 746.02818 223.36445 746.02818 226.95373 752.63244 226.95373 752.63244 273.9733 744.16173 273.9733 744.16173 277.27544 777.90098 277.27544 777.90098 273.9733 769.43027 273.9733"/><path class="cls-1" d="m436.5604,190.702h-3.015c-.14357,2.58428-1.5075,3.73285-4.09178,3.73285-5.24035,0-12.77784-6.31713-21.75104-6.31713-25.41211,0-40.77423,25.05318-40.77423,47.09136s14.64426,44.07636,39.12316,44.07636c14.85962,0,20.45889-7.03499,24.40711-7.03499,2.58428,0,3.08678,2.29714,3.08678,5.09678h3.37393v-30.36532h-3.37393l-.71786,4.23535c-1.72285,10.04998-9.54749,24.83782-25.48389,24.83782-14.14177,0-19.59747-12.20355-19.59747-42.35351,0-31.58566,7.39392-42.20993,19.9564-42.20993,14.14176,0,23.83282,15.86462,25.84282,28.4271h3.015v-29.21674Z"/><path class="cls-1" d="m479.9907,262.77475c-.21535,6.4607-3.87642,11.77284-9.61927,11.77284-8.32713,0-8.68606-7.03499-8.68606-12.34713,0-6.4607.71786-10.76784,8.68606-11.62927l9.61927-1.005v13.20855Zm22.32533,4.02c0,3.15856-2.08179,6.81963-3.44571,6.81963-2.22535,0-2.72785-2.29714-2.72785-6.10178v-28.06817c0-13.92641-13.06498-17.37212-25.62746-17.37212s-21.17675,5.95821-21.17675,12.84962c0,4.30714,2.44071,7.9682,7.9682,7.9682,4.66606,0,7.4657-3.08678,7.4657-7.32213,0-6.24535-6.4607-6.31713-6.4607-6.46071,0-2.79964,7.17856-3.66106,11.34213-3.66106,9.18856,0,10.40891,3.37392,10.40891,10.69605v10.26534l-11.9882,1.005c-11.12677.86143-23.18675,3.80464-23.18675,16.51069,0,10.62427,9.54749,14.93141,18.9514,14.93141,4.73785,0,13.20855-1.79464,16.36712-7.68106,2.22535,5.09678,6.74785,7.68106,12.20356,7.68106,7.96821,0,13.06498-4.73785,13.06498-11.9882h-3.08678l-.0718-.07179Z"/><polygon class="cls-1" points="782.56705 484.01801 782.56705 433.40913 757.29851 433.40913 757.29851 436.99841 765.69742 436.99841 765.69742 484.01801 757.29851 484.01801 757.29851 487.32014 790.96596 487.32014 790.96596 484.01801 782.56705 484.01801"/><path class="cls-1" d="m465.34643,301.03648v-3.44571h-27.85282l-20.24354,57.93098-19.66926-58.00277h-30.65246v3.51749h8.25534v69.77562c0,5.24035-1.29214,9.33212-8.25534,9.33212v3.37392h21.10497v-3.37392h-.35893c-6.60428,0-9.18856-.5025-9.18856-10.40892v-69.34489h.21536l29.21674,83.05594h3.30214l28.49889-81.62024h.21535v78.24631h-8.18356v3.37392h33.52388v-3.37392h-7.9682v-79.03594h8.03999Z"/><path class="cls-1" d="m484.87212,350.64033v-8.18356c0-8.18356,3.51749-10.76784,7.68106-10.76784,5.88642,0,7.68106,4.01999,7.68106,10.76784v8.18356h-15.36212Zm0,3.30213h33.73924c-.14357-13.20855-12.34712-25.91461-25.19675-25.62746-14.42891,0-26.84782,12.49069-26.84782,28.92961s11.62927,27.70925,27.27853,27.70925,22.4689-9.26034,25.19675-21.39211h-3.30213c-2.65607,11.34213-8.61428,17.80283-18.16176,17.80283-11.34213,0-12.56248-8.90141-12.56248-17.22854v-10.26534l-.14357.07177Z"/><path class="cls-1" d="m625.28478,454.44232v-8.18356c0-8.18356,3.51751-10.76784,7.68106-10.76784,5.88642,0,7.68106,4.02,7.68106,10.76784v8.18356h-15.36212Zm0,3.30213h33.73924c-.14357-13.20855-12.34713-25.91461-25.19674-25.62746-14.4289,0-26.84783,12.49071-26.84783,28.92959s11.62926,27.70925,27.27853,27.70925,22.4689-9.26035,25.19674-21.39211h-3.30213c-2.65606,11.34214-8.61428,17.80283-18.16175,17.80283-11.34214,0-12.56248-8.90143-12.56248-17.22856v-10.26534l-.14357.0718Z"/><polygon class="cls-1" points="518.82671 297.66256 518.82671 300.74933 527.29741 300.74933 527.29741 380.00065 518.82671 380.00065 518.82671 383.51814 552.56595 383.51814 552.56595 380.00065 544.09525 380.00065 544.09525 297.66256 518.82671 297.66256"/><polygon class="cls-1" points="554.93488 297.66256 554.93488 300.74933 563.33379 300.74933 563.33379 380.00065 554.93488 380.00065 554.93488 383.51814 588.60232 383.51814 588.60232 380.00065 580.2034 380.00065 580.2034 297.66256 554.93488 297.66256"/><path class="cls-1" d="m627.36654,368.65852c0,9.18856-3.80463,12.9214-10.05,12.9214s-10.05-3.80464-10.05-12.9214v-24.04818c0-9.18856,3.80463-12.9214,10.05-12.9214s10.05,3.80464,10.05,12.9214v24.04818Zm19.0232-12.05998c0-16.72605-12.9214-28.35532-29.07317-28.35532s-29.07317,11.62927-29.07317,28.35532,12.9214,28.35532,29.07317,28.35532,29.07317-11.62927,29.07317-28.35532"/><path class="cls-1" d="m366.92836,404.47954h8.54249v54.26993c0,18.9514,13.06498,30.43711,33.02138,30.43711,22.4689,0,32.23174-11.84464,32.23174-29.79104v-46.3735c0-7.10677,1.93821-8.4707,6.38892-8.4707h2.44071v-3.30213h-21.4639v3.30213h1.5075c6.24535,0,7.10677,1.86643,7.10677,8.9732v47.16314c0,16.65426-10.33712,24.19174-20.74604,24.19174-17.80283,0-21.39211-11.98818-22.4689-27.63745v-52.69064h8.03999v-3.30213h-34.60066v3.30213-.0718Z"/><path class="cls-1" d="m578.62412,488.68405h3.30213l18.08996-42.78422c3.66105-7.96821,5.59927-8.9732,8.3989-9.11678h1.0768v-3.37393h-19.09497v3.37393h2.29714c3.51749,0,5.16857-.21535,5.16857,2.94321,0,1.93821-.64607,3.87643-2.08179,7.39391l-8.32713,19.52569-13.28034-29.93461h6.74785v-3.37393h-30.65246v3.37393h5.74284l22.4689,51.82922.14359.14357Z"/><path class="cls-1" d="m714.72965,488.68405h2.87144c.5743-1.93821,1.86641-2.94321,4.30713-2.94321,3.15856,0,6.96321,2.94321,13.78282,2.94321,11.62926,0,19.52569-10.05,19.52569-20.02819,0-14.93139-10.26534-16.00819-23.33032-17.87463-6.81964-1.00499-10.69607-1.93821-10.69607-7.32214,0-5.74284,5.025-8.18356,11.62926-8.18356,9.18855,0,12.70606,6.10177,15.79284,13.9982h2.87144v-17.3721h-2.79963c0,1.43572-1.29214,2.65606-3.58928,2.65606-3.9482,0-7.10679-2.65606-12.70606-2.65606-12.20356,0-18.23355,10.40892-18.23355,18.23355,0,15.79284,11.98818,17.08498,21.24853,18.23355,8.82963,1.0768,11.98818,1.65107,11.98818,7.25033,0,6.46072-5.38392,9.40392-11.98818,9.40392-9.26035,0-15.64927-8.03998-17.87463-16.94141h-2.87144v20.53069l.07183.07177Z"/><polygon class="cls-1" points="545.88989 484.01801 545.88989 433.40913 520.62135 433.40913 520.62135 436.99841 529.09205 436.99841 529.09205 484.01801 520.62135 484.01801 520.62135 487.32014 554.36059 487.32014 554.36059 484.01801 545.88989 484.01801"/><path class="cls-1" d="m529.09205,416.53952c0,4.66608,3.73285,8.3989,8.39892,8.3989s8.39892-3.73285,8.39892-8.39892-3.73285-8.39892-8.39892-8.39892-8.39892,3.73285-8.39892,8.39892"/><path class="cls-1" d="m765.69742,416.53952c0,4.66608,3.73285,8.3989,8.3989,8.3989s8.3989-3.73285,8.3989-8.39892-3.73285-8.39892-8.3989-8.39892-8.3989,3.73285-8.3989,8.39892"/><path class="cls-1" d="m649.26118,244.39763v-8.18356c0-8.18356,3.51751-10.76784,7.68106-10.76784,5.88642,0,7.68106,4.01999,7.68106,10.76784v8.18356h-15.36212Zm0,3.30214h33.73924c-.14357-13.20855-12.34713-25.9146-25.19674-25.62746-14.4289,0-26.84783,12.49069-26.84783,28.9296s11.62926,27.70924,27.27853,27.70924,22.4689-9.26034,25.19674-21.39212h-3.30213c-2.65606,11.34213-8.61428,17.80283-18.16175,17.80283-11.34214,0-12.56248-8.90141-12.56248-17.22854v-10.26534l-.14357.07179Z"/><path class="cls-1" d="m796.7806,244.39763v-8.18356c0-8.18356,3.51751-10.76784,7.68106-10.76784,4.37893,0,7.68106,2.5125,7.68106,10.76784v8.18356h-15.36212Zm0,3.30214h33.73924c-.14355-13.20855-12.34713-25.9146-25.19674-25.62746-14.4289,0-26.84783,12.49069-26.84783,28.9296s11.62926,27.70924,27.27853,27.70924,22.4689-9.26034,25.19674-21.39212h-3.30213c-2.65606,11.34213-8.61428,17.80283-18.16175,17.80283-11.34214,0-12.56248-8.90141-12.56248-17.22854v-10.26534l-.14357.07179Z"/><path class="cls-1" d="m509.78172,484.01801v-33.02137c0-13.20855-5.59928-19.38212-17.22854-19.38212-8.18356,0-16.51069,4.66608-19.81283,11.77284h0v-9.90642h-25.26854v3.30213h8.39892v47.16314h-8.39892v3.30213h32.51889v-3.30213h-7.17856v-32.23172c1.07678-4.5225,6.81963-15.00319,13.49569-15.00319,4.45071,0,6.67606,1.50749,6.67606,9.76285v37.54387h-6.9632v3.30213h32.23174v-3.30213h-8.4707Z"/><path class="cls-1" d="m708.69965,380.21601v-33.02138c0-13.20855-5.59927-19.38212-17.22856-19.38212-8.18356,0-16.51068,4.66606-19.81282,11.77284h0v-9.90641h-25.26854v3.30213h8.3989v47.16314h-8.3989v3.30213h32.51887v-3.30213h-7.17856v-32.23174c1.0768-4.52249,6.81964-15.00319,13.4957-15.00319,4.4507,0,6.67606,1.50749,6.67606,9.76285v37.54387h-6.96321v3.30213h32.23175v-3.30213h-8.4707Z"/><path class="cls-1" d="m622.41335,273.9733v-32.9496c0-13.20855-5.59927-19.38211-17.22856-19.38211-8.18356,0-16.51068,4.66607-19.81283,11.77284h0v-9.90641h-25.26854v3.30214h8.39892v47.16315h-8.39892v3.30214h32.51889v-3.30214h-7.17856v-32.23174c1.07678-4.52249,6.81964-15.00319,13.4957-15.00319,4.4507,0,6.67606,1.5075,6.67606,9.76284v37.54387h-6.96321v3.30214h32.23172v-3.30214h-8.3989l-.07177-.07179Z"/><path class="cls-1" d="m752.63244,206.71019c0,4.66606,3.73285,8.39892,8.3989,8.39892s8.3989-3.73285,8.3989-8.39892-3.73285-8.39892-8.3989-8.39892-8.3989,3.73285-8.3989,8.39892"/><path class="cls-1" d="m864.54621,433.40913v3.51751c5.24037,0,7.46571.5025,7.46571,2.79963,0,1.93821-.64604,3.87643-2.08179,7.39391l-8.32716,19.52569-13.28033-29.79104h6.96321v-3.51751h-42.13815v-26.20174h-2.22536c0,12.92142-8.82963,26.27355-21.10496,26.27355v3.51751h6.46072v37.83102c0,11.62926,9.9782,13.9264,13.4239,13.9264,7.46571,0,12.49071-3.01498,16.22354-9.40392l-2.58429-1.43572c-1.43572,2.22536-3.44571,5.09677-6.46072,5.09677-2.44071,0-3.73285-1.72287-3.73285-5.74284v-40.27173h17.01321l22.32533,51.47027-7.75286,18.23355h0s-.5025.5743-.93319.5743-.78965-.28715-.93319-.71785h0c-1.00499-3.51751-4.16358-6.10177-8.04001-6.10177-4.66608,0-8.3989,3.73285-8.3989,8.3989,0,3.30213,1.86644,6.10177,4.59427,7.46571h0c.0718,0,.14355.07177.28715.14357.14355.07177.35895.14357.5025.21535.93319.35892,1.93819.64607,3.08678.64607,7.10676.5743,10.69604-4.66608,13.20853-9.9782.5743-1.22034,1.0768-2.44071,1.57929-3.58928,1.0768-2.58429,2.94324-7.03499,5.16857-12.20356h0l2.15359-4.9532h0l17.15676-40.63065c3.66108-7.96821,5.09677-8.9732,9.5475-8.9732h0v-3.51751h-19.1668Z"/><path class="cls-1" d="m547.75632,221.49802c-7.82463,0-13.78284,5.38392-16.15176,11.4857h-.21536v-9.33213h-25.05318v3.44571h8.39892v47.01957h-8.39892v3.37393h36.53888v-3.37393h-11.27034v-26.34532c0-7.82463,2.08179-15.93641,7.25035-20.31533.28715-.21536.71786-.28714,1.07678-.07179.43071.21536.57428.64607.57428,1.005h0c-.35892.93321-.57428,2.08178-.64607,3.5175-.14357,4.45071,3.51749,7.9682,8.32713,7.9682,5.88642,0,9.26035-4.30714,9.26035-8.90142,0-5.88642-3.87643-9.40391-9.61927-9.40391l-.07179-.07178Z"/><path class="cls-1" d="m731.67105,225.51802s.5743-.21536.71785,0,.21535.43071,0,.64607h0c-.71785,1.29214-1.00499,2.79964-.43072,4.52249s2.00999,2.94321,3.66105,3.30214c3.51751.78964,6.53249-1.79464,6.53249-5.09678,0-2.15357-1.36392-3.80464-2.87144-4.73785s-3.37393-1.43571-5.38392-1.43571c-3.23036,0-6.60426,1.72285-8.9732,3.80464h0c-.5743-.43071-1.14857-.78964-1.72287-1.14857-3.37393-1.93821-7.75286-3.23035-13.56748-3.23035-10.26534,0-21.24853,6.74785-21.24853,17.80283,0,6.74785,3.66105,11.98819,10.12177,14.93141v.21535c-4.73785.57428-12.20356,3.87642-12.20356,14.06998,0,6.10178,2.79963,10.76784,7.96821,12.20355v.21535c-4.88142,1.36392-10.48069,6.24535-10.48069,12.13177,0,9.04499,10.62427,16.00819,24.19174,16.00819,17.01318,0,28.06817-11.4857,28.06817-26.41711,0-11.84462-5.88642-17.22854-17.80283-17.01319h-20.31534c-3.08678,0-5.09677-.14357-5.09677-3.44571,0-3.015,4.66608-6.31713,9.33212-6.31713.78965,0,2.15356.64607,2.51249.71786,1.50749.5025,3.08678.71786,5.025.71786,10.48069,0,21.75103-5.95821,21.75103-17.58747,0-3.58928-1.57929-8.4707-4.4507-11.55748-.14357-.21536-.14357-.5025,0-.64607,1.14857-.93321,2.51249-1.72285,3.15856-2.08178.5025-.28714.93322-.5025,1.43572-.64607h0l.07186.07178Zm-16.22354,56.20813c12.20356,0,15.43392.5025,15.43392,7.9682,0,8.90141-10.91142,17.08497-23.25855,17.08497-10.98319,0-16.29534-6.74784-16.51068-12.63427,0-5.38392,2.65606-8.90141,5.95822-12.49069h18.37713l-.00003.07179Zm2.08179-41.70744c0,14.21355-3.30213,14.64427-7.68106,14.64427-4.88142,0-7.46571-.93321-7.46571-15.07498,0-9.90641,1.0768-14.14176,7.46571-14.14176,5.74284,0,7.60928.35893,7.68106,14.42891h0v.14356Z"/><path class="cls-1" d="m701.80824,431.25557c-7.82463,0-13.78282,5.38392-16.15176,11.48569h-.21535v-9.33212h-25.05319v3.44571h8.3989v47.01957h-8.3989v3.37393h36.53888v-3.37393h-11.27034v-26.34531c0-7.82463,2.08179-15.86461,7.17856-20.31534.28715-.21535.71785-.28715,1.0768-.07177.43072.21535.5743.64607.5743,1.00499h0c-.35892,1.00499-.5743,2.08179-.64607,3.51751-.14357,4.4507,3.51751,7.96821,8.32713,7.96821,5.88642,0,9.26035-4.30713,9.26035-8.90143,0-5.88642-3.87643-9.40392-9.61927-9.40392l-.00003-.07177Z"/></g></svg>