<?xml version="1.0" encoding="UTF-8"?><svg id="LOGOS" xmlns="http://www.w3.org/2000/svg" viewBox="0 0 1250 703"><defs><style>.cls-1{fill:#cd128a;}.cls-1,.cls-2{stroke-width:0px;}.cls-2{fill:#000;}</style></defs><path class="cls-1" d="M407.76506,271.7c-.89999-1.7-3-2.39999-4.8-1.60001l-33.90001,14.89999c-.3.10001-.60001.10001-.89999,0l-33.89999-14.89999c-1.8-.8-3.89999,0-4.8,1.60001s-.39999,3.8,1.2,4.89999l32.89999,20.5s2.5,1.7,5,1.60001c2.7,0,5.10001-1.60001,5.10001-1.60001l32.89999-20.5c1.60001-1.10001,2.10001-3.2,1.2-4.89999h.00002Z"/><path class="cls-1" d="M317.16507,290.7l45.4,37.60001s2.89999,2.60001,5.89999,2.60001h.39999c2.89999,0,5.89999-2.60001,5.89999-2.60001l45.40001-37.60001c1.89999-1.3,2.5-3.7,1.39999-5.7s-3.5-2.8-5.60001-1.89999l-42.89999,28.5-3.7,2.3c-.39999.2-.8.2-1.2,0l-3.7-2.3-42.9-28.5c-2.1-.89999-4.5-.10001-5.6,1.89999s-.5,4.5,1.4,5.7h-.2Z"/><path class="cls-1" d="M448.36507,390.7c1.70001-.89999,2.39999-3,1.60001-4.8l-14.89999-33.90001c-.10001-.3-.10001-.60001,0-.89999l14.89999-33.89999c.79999-1.8,0-3.89999-1.60001-4.8s-3.8-.39999-4.89999,1.2l-20.5,32.89999s-1.7,2.5-1.60001,5c0,2.7,1.60001,5.10001,1.60001,5.10001l20.5,32.89999c1.10001,1.60001,3.2,2.10001,4.89999,1.2v.00002Z"/><path class="cls-1" d="M429.36507,300l-37.60001,45.40001s-2.60001,2.89999-2.60001,5.89999v.39999c0,2.89999,2.60001,5.89999,2.60001,5.89999l37.60001,45.39999c1.3,1.89999,3.7,2.5,5.7,1.39999s2.8-3.5,1.89999-5.60001l-28.5-42.89999-2.3-3.7c-.2-.39999-.2-.8,0-1.2l2.3-3.7,28.5-42.90001c.89999-2.10001.10001-4.5-1.89999-5.60001s-4.5-.5-5.7,1.39999v-.19997Z"/><path class="cls-1" d="M329.36507,431.3c.89999,1.70001,3,2.39999,4.8,1.60001l33.90001-14.89999c.3-.10001.60001-.10001.89999,0l33.89999,14.89999c1.8.79999,3.89999,0,4.8-1.60001.89999-1.70001.39999-3.79999-1.2-4.89999l-32.89999-20.5s-2.5-1.70001-5-1.60001c-2.7,0-5.10001,1.60001-5.10001,1.60001l-32.89999,20.5c-1.60001,1.10001-2.10001,3.20001-1.2,4.89999h-.00002Z"/><path class="cls-1" d="M420.06507,412.3l-45.40001-37.60001s-2.89999-2.60001-5.89999-2.60001h-.39999c-2.89999,0-5.89999,2.60001-5.89999,2.60001l-45.4,37.60001c-1.9,1.29999-2.5,3.70001-1.4,5.70001s3.5,2.79999,5.6,1.89999l42.9-28.5,3.7-2.3c.39999-.2.8-.2,1.2,0l3.7,2.3,42.89999,28.5c2.10001.89999,4.5.10001,5.60001-1.89999s.5-4.5-1.39999-5.70001h.2Z"/><path class="cls-1" d="M288.86506,312.3c-1.7.89999-2.4,3-1.6,4.8l14.9,33.90001c.1.3.1.60001,0,.89999l-14.9,33.89999c-.8,1.8,0,3.89999,1.6,4.8,1.7.90001,3.8.39999,4.9-1.2l20.5-32.89999s1.7-2.5,1.7-5c0-2.7-1.7-5.10001-1.7-5.10001l-20.5-32.89999c-1.1-1.60001-3.2-2.10001-4.9-1.2v-.00002Z"/><path class="cls-1" d="M307.86506,402.90001l37.6-45.39999s2.60001-2.89999,2.60001-5.89999v-.39999c0-2.89999-2.60001-5.89999-2.60001-5.89999l-37.6-45.39999c-1.3-1.89999-3.7-2.5-5.7-1.39999s-2.8,3.5-1.9,5.60001l28.5,42.89999,2.3,3.7c.2.39999.2.8,0,1.2l-2.3,3.7-28.5,42.90001c-.9,2.10001-.1,4.5,1.9,5.60001s4.5.5,5.7-1.39999v.19995Z"/><path class="cls-2" d="M524.06505,325.7c4.60001,0,8.39999,1.10001,11.5,3.10001,3,2.10001,5.29999,5,6.60001,8.8h17c-2.10001-8-6.20001-14.2-12.20001-18.5s-13.70001-6.5-22.89999-6.5-13.70001,1.60001-19.39999,4.8c-5.60001,3.2-10,7.7-13.20001,13.60001s-4.79999,12.7-4.79999,20.39999,1.60001,14.60001,4.79999,20.39999,7.60001,10.39999,13.20001,13.7c5.60001,3.2,12.10001,4.89999,19.39999,4.89999s16.60001-2.3,22.70001-6.8,10.20001-10.60001,12.5-18.3h-17c-3,7.89999-9,11.89999-18.10001,11.89999s-11.60001-2.3-15.39999-6.8-5.70001-10.89999-5.70001-19,1.89999-14.39999,5.70001-18.89999c3.79999-4.5,9-6.8,15.39999-6.8l-.10001.00002Z"/><path class="cls-2" d="M622.36507,317.2c-5.60001-3.10001-12-4.60001-19.20001-4.60001s-14.10001,1.60001-19.89999,4.8-10.20001,7.7-13.39999,13.60001-4.79999,12.7-4.79999,20.39999,1.60001,14.60001,4.89999,20.39999,7.79999,10.39999,13.60001,13.7c5.79999,3.2,12.29999,4.89999,19.60001,4.89999s16.39999-2.2,22.5-6.60001c6-4.39999,10.20001-10.10001,12.5-17h-17c-3.5,7-9.5,10.5-18,10.5s-10.89999-1.8-14.89999-5.5-6.29999-8.5-6.79999-14.5h58.29999c.39999-2.3.60001-4.8.60001-7.7,0-7.3-1.60001-13.8-4.70001-19.39999-3.10001-5.60001-7.5-10-13.10001-13.10001l-.20001.10002ZM581.46508,344.7c.70001-5.8,3-10.5,6.89999-13.89999s8.5-5.10001,14-5.10001,11,1.7,15.10001,5.2,6.10001,8.10001,6.20001,13.8h-42.20001Z"/><path class="cls-2" d="M705.56505,316.2c-4.79999-2.5-10.10001-3.7-16.10001-3.7s-8.79999.89999-12.79999,2.60001c-4,1.7-7.29999,4.10001-9.89999,7.2v-8.60001h-15.79999v75.39999h15.79999v-42.10001c0-6.8,1.70001-11.89999,5.20001-15.5s8.10001-5.39999,14-5.39999,10.60001,1.8,14,5.39999c3.39999,3.60001,5.10001,8.8,5.10001,15.5v42.10001h15.60001v-44.5c0-6.8-1.29999-12.7-4-17.5s-6.40002-8.5-11.10001-11l-.00003.10001Z"/><path class="cls-2" d="M750.46508,295h-15.70001v18.7h-8.90002v12.7h8.90002v41.7c0,7.39999,1.90002,12.7,5.59998,16,3.70001,3.3,9.09998,4.89999,16.09998,4.89999h12.29999v-13h-9.59998c-3.20001,0-5.5-.60001-6.79999-1.89999s-2-3.3-2-6.10001v-41.7h18.29999v-12.7h-18.29999v-18.7l.10004.10001Z"/><path class="cls-2" d="M790.96508,283.8c-2.79999,0-5.20001,1-7.09998,2.89999-1.90002,1.89999-2.90002,4.3-2.90002,7.10001s1,5.2,2.90002,7.10001,4.29999,2.89999,7.09998,2.89999,5.09998-1,7-2.89999,2.90002-4.3,2.90002-7.10001-1-5.2-2.90002-7.10001c-1.90002-1.89999-4.20001-2.89999-7-2.89999Z"/><rect class="cls-2" x="783.06505" y="313.7" width="15.59998" height="75.39999"/><path class="cls-2" d="M869.26506,283.8c-2.79999,0-5.20001,1-7.09998,2.89999-1.90002,1.89999-2.90002,4.3-2.90002,7.10001s1,5.2,2.90002,7.10001c1.90002,1.89999,4.29999,2.89999,7.09998,2.89999s5.09998-1,7-2.89999,2.90002-4.3,2.90002-7.10001-1-5.2-2.90002-7.10001c-1.90002-1.89999-4.20001-2.89999-7-2.89999Z"/><path class="cls-2" d="M928.26506,377.2c-6.40002,0-11.5-2.3-15.20001-6.8-3.79999-4.60001-5.70001-10.89999-5.70001-19s1.90002-14.39999,5.70001-18.89999,8.90002-6.8,15.20001-6.8,8.29999,1.10001,11.40002,3.10001c3,2.10001,5.20001,5,6.59998,8.8h16.79999c-2.09998-8-6.09998-14.2-12.09998-18.5s-13.5-6.5-22.59998-6.5-13.59998,1.60001-19.20001,4.8c-5.59998,3.2-9.90002,7.7-13.09998,13.60001s-4.70001,12.7-4.70001,20.39999,1.59998,14.60001,4.70001,20.39999c3.20001,5.89999,7.5,10.39999,13.09998,13.7,5.59998,3.2,12,4.89999,19.20001,4.89999s16.40002-2.3,22.40002-6.8,10.09998-10.60001,12.29999-18.3h-16.79999c-2.90002,7.89999-8.90002,11.89999-17.90002,11.89999l-.10004.00002Z"/><path class="cls-2" d="M876.96508,313.7h-39.29999v-5.3c0-4.39999,1-7.5,2.90002-9.2,1.79999-1.60001,4.79999-2.5,9-2.60001v-13c-9.29999.10001-16.20001,2.10001-20.70001,5.89999-4.59998,4-6.90002,10.3-6.90002,18.89999v5.3h-8.90002v12.7h8.90002v62.7h15.70001v-62.7h23.70001v62.7h15.59998v-75.40001h0v.00003Z"/></svg>