<svg id="e64d4381-eb9e-450a-ae72-3c86c8a962dc" data-name="Layer 5" xmlns="http://www.w3.org/2000/svg" viewBox="0 0 1250 703">
  <path d="M850.47273,126.12727H399.6V577H850.47273Z" fill="#e1161c"/>
  <path d="M795.99629,344.42482c-8.82962-.93932-16.15627-4.32086-16.15627-7.32669,0-4.50871,4.88445-5.26018,7.89026-5.26018,2.81795,0,9.20532.56359,9.20532,6.57523a.85949.85949,0,0,0,.75147.93932h18.97422a.85951.85951,0,0,0,.75146-.93932c0-14.4655-12.399-24.42227-30.05818-24.42227-17.47134,0-30.05819,9.95677-30.05819,23.67081,0,11.83542,14.8412,20.10141,28.74312,21.60432,6.19951.75146,9.95679,3.75727,9.95679,6.01164,0,3.75727-4.50874,5.82378-8.64172,5.82378-1.69078,0-9.95679-.37573-9.95679-6.57523a.85947.85947,0,0,0-.75146-.93931H757.48424a.85947.85947,0,0,0-.75146.93931c0,16.15627,15.5927,24.42228,30.80964,24.42228s30.80965-8.45387,30.80965-24.42228C818.53992,352.3151,807.2681,345.73987,795.99629,344.42482Z" fill="#fff"/>
  <path d="M549.69954,313.99091a24.34367,24.34367,0,0,0-15.217,5.07232V281.11477a.88745.88745,0,0,0-.93932-.93932h-18.5985a.88745.88745,0,0,0-.93931.93932V386.13055a.88744.88744,0,0,0,.93931.93932h18.5985a.88744.88744,0,0,0,.93932-.93932V351.37578c0-9.01747,4.69659-18.22278,15.217-18.22278s15.21694,9.20531,15.21694,18.22278v34.5669a.88745.88745,0,0,0,.93932.93932h18.59851a.88745.88745,0,0,0,.93932-.93932v-34.379C585.39363,330.14717,569.98881,313.99091,549.69954,313.99091Z" fill="#fff"/>
  <path d="M648.32946,351.56364a17.8864,17.8864,0,0,1-17.65919,18.22277c-9.76892,0-17.65917-8.266-17.65917-18.22277s7.89025-18.22278,17.65917-18.22278A17.8864,17.8864,0,0,1,648.32946,351.56364Zm-18.03492-37.57273a37.57319,37.57319,0,1,0,0,75.14545c6.951,0,13.71406-3.56941,18.5985-9.581v6.57522a.88745.88745,0,0,0,.93932.93932h17.47132a.88744.88744,0,0,0,.93931-.93932V351.56364A38.00706,38.00706,0,0,0,630.29454,313.99091Z" fill="#fff"/>
  <path d="M730.61372,351.56364c0,10.14464-7.89025,18.22277-17.47131,18.22277s-17.47131-8.266-17.47131-18.22277,7.89025-18.22278,17.47131-18.22278S730.61372,341.419,730.61372,351.56364Zm-17.47131-37.57273c-20.85287,0-37.94846,16.90773-37.94846,37.57273s17.09559,37.57272,37.94846,37.57272,37.94846-16.90772,37.94846-37.57272S733.99529,313.99091,713.14241,313.99091Z" fill="#fff"/>
  <path d="M476.44074,368.47136A18.39854,18.39854,0,0,1,451.8306,357.951a18.63924,18.63924,0,0,1,9.39318-22.91937,18.2186,18.2186,0,0,1,18.78636,1.87864,1.826,1.826,0,0,0,1.69077.18785l15.78056-6.76308a1.69115,1.69115,0,0,0,.56358-2.6301,37.37364,37.37364,0,1,0,8.45387,19.1621,1.66765,1.66765,0,0,0-2.25437-1.315L488.464,352.3151a1.4127,1.4127,0,0,0-.93932,1.315A18.80814,18.80814,0,0,1,476.44074,368.47136Z" fill="#fff"/>
</svg>
