<?xml version="1.0" encoding="UTF-8"?><svg id="LOGOS" xmlns="http://www.w3.org/2000/svg" viewBox="0 0 1250 703"><defs><style>.cls-1{fill:#0096d6;stroke-width:0px;}</style></defs><g id="Layer_4"><path class="cls-1" d="m487.0971,396.48461h28.37886v110.85488h-28.37886v-110.85488Zm253.63597,31.92619c-.88683-.88684-9.75522-6.20788-23.94466-6.20788-17.73678,0-31.03937,12.41574-31.03937,29.26568s12.41576,29.26568,31.03937,29.26568c13.30259,0,22.17098-5.32102,23.94466-6.20788v30.15254c-3.54737.88683-13.30259,3.54737-25.71835,3.54737-31.92619,0-59.41822-21.28415-59.41822-57.64454,0-32.81305,24.83149-57.64454,59.41822-57.64454,13.30259,0,23.0578,3.54735,25.71835,3.54735v31.92621Zm-292.65689,0c-.88684-.88684-9.75523-6.20788-23.94465-6.20788-17.73678,0-31.03937,12.41574-31.03937,29.26568s12.41574,29.26568,31.03937,29.26568c13.30259,0,22.17097-5.32102,23.94465-6.20788v30.15254c-3.54735.88683-13.30259,3.54737-25.71833,3.54737-31.03937,0-59.41821-21.28415-59.41821-57.64454,0-32.81305,24.8315-57.64454,59.41821-57.64454,13.30259,0,23.05782,3.54735,25.71833,3.54735v31.92621Zm438.98533,23.94466c0,31.92619-24.83149,57.64454-58.53136,57.64454s-58.53136-25.71835-58.53136-57.64454,24.83149-57.64454,58.53136-57.64454c34.58674,0,58.53136,25.71833,58.53136,57.64454Zm-58.53136-29.26568c-16.84996,0-29.26568,13.30259-29.26568,29.26568s12.41576,29.26568,29.26568,29.26568,29.26568-13.30259,29.26568-29.26568-12.41576-29.26568-29.26568-29.26568Zm-207.52035-.88684s-12.41576-3.54735-22.17098-3.54735c-11.5289,0-17.73678,3.54735-17.73678,8.86839,0,7.09471,7.98156,8.86839,12.41576,10.64208l7.98156,2.66051c17.73678,6.20788,26.60517,18.62361,26.60517,31.92619,0,27.492-24.83149,37.24725-46.11564,37.24725-15.07627,0-29.26568-2.66051-30.15252-2.66051v-25.71835c2.66051.88683,14.18943,4.4342,26.60517,4.4342,14.18943,0,20.39731-4.4342,20.39731-10.64208,0-5.32102-5.32102-8.86839-12.41576-10.64208-1.77368-.88683-4.4342-1.77368-6.20788-1.77368-15.9631-5.32102-28.37886-14.18941-28.37886-32.81305,0-20.39729,15.9631-34.58672,41.68144-34.58672,13.30259,0,26.60517,3.54735,27.492,3.54735v23.05785Z"/><path id="A" class="cls-1" d="m333.67395,277.64817c.09859-7.73802-6.09439-14.09084-13.83241-14.18943-.119-.00151-.23801-.00151-.35701,0-7.73802-.09858-14.09084,6.0944-14.18943,13.83242-.00152.119-.00152.23801,0,.35701v29.26569c-.09859,7.73802,6.09439,14.09085,13.83241,14.18943.119.00152.23801.00152.35701,0,7.73802.09858,14.09084-6.0944,14.18942-13.83242.00152-.119.00152-.23801,0-.35701v-29.26569Z"/><path class="cls-1" d="m409.94211,239.51409c.09858-7.73802-6.0944-14.09084-13.83242-14.18942-.119-.00152-.23801-.00152-.35701,0-7.98155,0-13.30259,6.20787-13.30259,14.18942v67.39977c-.09859,7.73802,6.0944,14.09085,13.83241,14.18943.11901.00152.23802.00152.35702,0,7.73802.09858,14.09084-6.0944,14.18943-13.83242.00151-.119.00151-.23801,0-.35701v-67.39977h-.88684Zm77.155-52.3235c.09858-7.73802-6.0944-14.09084-13.83242-14.18942-.119-.00152-.23801-.00152-.35701,0-7.73802-.09859-14.09085,6.09439-14.18943,13.83241-.00152.119-.00152.23801,0,.35701v147.21529c-.09858,7.73802,6.0944,14.09085,13.83242,14.18943.119.00152.23801.00152.35701,0,7.73802.09858,14.09085-6.0944,14.18943-13.83242.00152-.119.00152-.23801,0-.35701v-147.21529Zm76.26816,52.3235c.09858-7.73802-6.0944-14.09084-13.83242-14.18942-.119-.00152-.23801-.00152-.35701,0-7.73802-.09859-14.09085,6.0944-14.18943,13.83241-.00152.119-.00152.23801,0,.35701v67.39977c-.09858,7.73802,6.0944,14.09085,13.83242,14.18943.119.00152.23801.00152.35701,0,7.73802.09858,14.09085-6.0944,14.18943-13.83242.00152-.119.00152-.23801,0-.35701v-67.39977Z"/><path id="A-2" class="cls-1" d="m639.63342,277.64817c.09859-7.73802-6.09439-14.09084-13.83241-14.18943-.119-.00151-.23801-.00151-.35701,0-7.73802-.09858-14.09084,6.0944-14.18943,13.83242-.00152.119-.00152.23801,0,.35701v29.26569c-.09859,7.73802,6.09439,14.09085,13.83241,14.18943.119.00152.23801.00152.35701,0,7.73802.09858,14.09084-6.0944,14.18942-13.83242.00152-.119.00152-.23801,0-.35701v-29.26569Z"/><path class="cls-1" d="m715.90159,239.51409c0-7.83661-6.35281-14.18943-14.18945-14.18943s-14.18941,6.35282-14.18941,14.18943v67.39977c0,7.8366,6.35281,14.18943,14.18941,14.18943s14.18945-6.35283,14.18945-14.18943v-67.39977Zm76.26818-52.3235c0-7.8366-6.35281-14.18943-14.18941-14.18943s-14.18945,6.35282-14.18945,14.18943v147.21529c0,7.8366,6.35281,14.18943,14.18945,14.18943s14.18941-6.35283,14.18941-14.18943v-147.21529Zm76.26814,52.3235c0-7.83661-6.35281-14.18943-14.18941-14.18943s-14.18945,6.35282-14.18945,14.18943v67.39977c0,7.8366,6.35281,14.18943,14.18945,14.18943s14.18941-6.35283,14.18941-14.18943v-67.39977Zm76.26814,38.13408c0-7.83659-6.35284-14.18941-14.18941-14.18941s-14.18941,6.35282-14.18941,14.18941v29.26569c0,7.8366,6.35284,14.18941,14.18941,14.18941s14.18941-6.35281,14.18941-14.18941v-29.26569Z"/></g></svg>