<svg id="Layer_5" data-name="Layer 5" xmlns="http://www.w3.org/2000/svg" viewBox="0 0 1250 703"><title>citrix-logo</title><path d="M230.72,380.35c0-55.29,37-94,89.84-94,35.6,0,64.62,18,76.37,45.62a15.74,15.74,0,0,1,1.73,7.94,10.4,10.4,0,0,1-10.37,10.37h-.69A11.53,11.53,0,0,1,376.54,342c-9-22.46-29.71-35.25-55.63-35.25-39.39,0-67.38,30.06-67.38,73.6,0,43.2,27.3,73.26,67,73.26,25.92,0,45.62-12.44,56-38.7a11.42,11.42,0,0,1,10.72-8.29,10.9,10.9,0,0,1,11.05,11.05V418a18,18,0,0,1-1.38,7.26C386.22,455,357.54,474,320.56,474,267.35,474,230.72,435.64,230.72,380.35Z"/><path d="M531,458.8c0,7.6-4.15,12.44-11.4,12.44s-11.06-4.84-11.06-12.44v-217c0-7.95,4.14-12.79,11.4-12.79S531,233.49,531,241.79V291.2h39c6.91,0,11.05,3.8,11.05,10s-4.14,10-11.05,10H531Z"/><path d="M706.21,303.29A10.48,10.48,0,0,1,695.84,314h-1a16.65,16.65,0,0,1-8.29-2.42,36.33,36.33,0,0,0-18.32-3.8c-24.18,0-39.73,21.08-39.73,47.68V458.8c0,7.94-3.81,12.44-11.06,12.44S606,466.74,606,458.8V301.91c0-8,4.15-12.78,11.41-12.78s11.06,4.49,11.06,12.78v4.49a51.92,51.92,0,0,1,42.5-20,57.71,57.71,0,0,1,29.37,6.91A11.22,11.22,0,0,1,706.21,303.29Z"/><path d="M729.36,301.91c0-8,4.14-12.78,11.4-12.78s11.06,4.49,11.06,12.78V458.8c0,7.6-4.15,12.44-11.4,12.44s-11.06-4.84-11.06-12.44Z"/><path d="M438.74,301.91c0-8,4.15-12.78,11.41-12.78s11.06,4.49,11.06,12.78V458.8c0,7.6-4.15,12.44-11.41,12.44s-11.06-4.84-11.06-12.44Z"/><circle cx="450.15" cy="246.97" r="17.97"/><path d="M870.35,394.18l-61.86,72.56a11.45,11.45,0,0,1-9,4.5,10.48,10.48,0,0,1-10.72-10.37h0a11,11,0,0,1,3.11-7.95l64.62-73.26-62.2-71.53a11,11,0,0,1-3.8-8.29,10.36,10.36,0,0,1,11.06-10.37h.35a10.8,10.8,0,0,1,8.63,4.49l60.13,70.84L930.82,294a10.81,10.81,0,0,1,8.64-4.49,10.28,10.28,0,0,1,11,10v.35a11,11,0,0,1-3.8,8.29l-62.2,71.53,64.62,73.26a11.49,11.49,0,0,1,3.11,7.95,10.27,10.27,0,0,1-10.71,10.37h0a11.43,11.43,0,0,1-9-4.5Z"/><path d="M995.78,452.23h-6.56v17.28h-2.77V452.23h-6.56v-2.07h15.89Zm23.5-2.07v19.35h-2.42V457.07l.35-3.8h0l-.35,1.38-6.22,14.51h-2.07l-6.22-14.51-.69-1.38h0l.34,3.8v12.44h-2.42V450.16h3.11l5.88,13.82,1,2.42h0l.69-2.42,5.87-13.82Z"/><circle cx="870.35" cy="246.97" r="17.97"/></svg>