<?xml version="1.0" encoding="utf-8"?>
<!-- Generator: Adobe Illustrator 23.0.3, SVG Export Plug-In . SVG Version: 6.00 Build 0)  -->
<svg version="1.1" id="Layer_1" xmlns="http://www.w3.org/2000/svg" xmlns:xlink="http://www.w3.org/1999/xlink" x="0px" y="0px"
	 viewBox="0 0 1250 703" style="enable-background:new 0 0 1250 703;" xml:space="preserve">
<style type="text/css">
	.st0{clip-path:url(#SVGID_2_);}
	.st1{clip-path:url(#SVGID_4_);}
	.st2{fill:#F3702D;}
</style>
<title>nvidia-partner-clarisse-logo</title>
<g id="LOGO">
	<g>
		<defs>
			<rect id="SVGID_1_" x="196" y="262.6" width="858" height="177.8"/>
		</defs>
		<clipPath id="SVGID_2_">
			<use xlink:href="#SVGID_1_"  style="overflow:visible;"/>
		</clipPath>
		<g class="st0">
			<polygon points="500.6,408.1 500.6,262.6 470.8,262.6 470.8,408.1 500.6,408.1 			"/>
		</g>
	</g>
	<path d="M584.1,363L584.1,363c0,8.1-2.3,13.9-5.8,17.8l0,0c-3.6,4.1-8.7,6.4-14.1,6.4l0,0c-3.6,0.1-7.1-1.1-9.8-3.5l0,0
		c-2.7-2.3-4.2-5.6-4.2-10l0,0c0-5.4,1.6-8.9,5-11.2l0,0c3.3-2.5,7.4-3.5,12-3.5l0,0c4,0,8,0.3,12,0.8l0,0c3.3,0.4,4.9,0.6,4.9,0.6
		L584.1,363L584.1,363z M565.1,302.9L565.1,302.9c-10,0.4-18.3,1.1-25.5,2.9l0,0c-7.2,1.6-11.1,2.9-11.4,3.1v20.3l0,0
		c0-0.3,3.3-1.4,9.7-2.9l0,0c6.4-1.9,14.7-2.7,25-3l0,0c7.5,0,12.8,1.9,16.2,5.5l0,0c3.3,3.5,4.9,8.1,4.9,13.6l0,0
		c0,0-2.3-0.5-6.2-1.6l0,0c-4.9-1.3-9.9-1.9-15-1.9l0,0c-12,0-21.9,3.4-30.2,9.5l0,0c-8.3,6.2-12.8,14.5-13.1,25.3l0,0
		c0.3,12,3.5,20.6,10.3,25.9l0,0c6.7,5.2,15.3,8.1,25.5,8.1l0,0c6,0.1,11.9-1.2,17.2-3.9l0,0c4.9-3,8.9-7.4,11.3-12.7l0,0
		c0,3.4,0.4,6.9,1.2,10.2l0,0c0.1,1.5,0.5,3,1,4.5h27.3v-58.2l0,0c0-12.8-3.9-23-11.3-31.5l0,0C594.3,307.4,582.1,303.1,565.1,302.9
		L565.1,302.9z"/>
	<polygon points="749.9,408.1 749.9,307.2 720.3,307.2 720.3,408.1 749.9,408.1 	"/>
	<path d="M769.5,331.9L769.5,331.9c0,9.1,2.3,16.1,6.7,20.8l0,0c4.1,4.8,10.6,9.2,19.2,12.5l0,0c6.7,2.9,12,5.6,15,8l0,0
		c3.4,2.3,5,4.7,5,7.4l0,0c0,1.6-1.1,3.1-3.1,4.5l0,0c-1.9,1.4-4.8,2.2-8.9,2.2l0,0c-7.7-0.1-15.4-0.8-23-1.9l0,0
		c-6.2-1.1-9.3-1.9-9.7-1.9v20.3l0,0c0.3,0,3.3,0.6,9.2,1.9l0,0c5.8,1.1,13.9,1.6,23.6,1.9l0,0c14.7-0.2,25.7-2.9,32.4-7.8l0,0
		c7-5.4,10.3-12.2,10-21.1l0,0c0-9-3-16-9.1-21.2l0,0c-6.4-5.5-16.3-10.8-29.1-16.1l0,0c-2.2-0.8-4.2-2.1-5.8-3.9l0,0
		c-1.1-1.6-1.7-3.5-1.6-5.5l0,0c0-3.1,1.4-5.4,3.9-6.4l0,0c2.9-1.7,5.8-2.3,10-2.3l0,0c6.1-0.1,12.2,0.4,18.2,1.6l0,0
		c4.8,0.8,7.2,1.4,7.4,1.6v-20.8l0,0c-0.3,0-2.3-0.6-6.4-1.4l0,0c-4.2-0.9-9.8-1.1-17.1-1.5l0,0c-16.1,0.4-28.1,3.4-35.6,9.2l0,0
		c-7.6,6-11.4,12.4-11.4,19.7H769.5z"/>
	<path d="M860.6,331.9L860.6,331.9c0,9.1,2.3,16.1,6.7,20.8l0,0c4.2,4.8,10.6,9.2,18.9,12.5l0,0c7,2.9,12.2,5.6,15.3,8l0,0
		c3.3,2.3,5,4.7,5,7.4l0,0c0,1.6-1.1,3.1-3.1,4.5l0,0c-1.9,1.4-4.8,2.2-8.9,2.2l0,0c-7.7-0.1-15.4-0.8-23-1.9l0,0
		c-6.2-1.1-9.5-1.9-9.7-1.9v20.3l0,0c0.3,0,3.3,0.6,9.2,1.9l0,0c5.8,1.1,13.9,1.6,23.6,1.9l0,0c14.7-0.2,25.5-2.9,32.3-7.8l0,0
		c6.6-4.9,10.3-12.9,9.7-21.1l0,0c0-9-3-16-8.8-21.2l0,0c-6.4-5.5-16.2-10.8-29-16.1l0,0c-2.2-0.8-4.2-2.1-5.8-3.9l0,0
		c-1.1-1.6-1.7-3.5-1.6-5.5l0,0c0-3.1,1.4-5.4,3.9-6.4l0,0c2.5-1.7,5.8-2.3,10-2.3l0,0c6.1-0.1,12.2,0.4,18.1,1.6l0,0
		c4.8,0.8,7.2,1.4,7.2,1.6v-20.8l0,0c0,0-1.9-0.6-6.2-1.4l0,0c-4.2-0.9-9.7-1.1-17-1.5l0,0c-16.1,0.4-28,3.4-35.6,9.2l0,0
		C864.2,318.2,860.6,324.6,860.6,331.9L860.6,331.9z"/>
	<path d="M1003.3,323.2L1003.3,323.2c7,0,12.5,1.6,16.4,4.9l0,0c4.2,3.6,6.4,8.3,6.4,15.3h-46.4c1.1-5.8,3.3-10.6,7-14.5l0,0
		C990,325.5,995.6,323.2,1003.3,323.2L1003.3,323.2z M978.7,361.9h74.6c0.2-1.2,0.4-2.4,0.3-3.5l0,0c0.3-2.3,0.4-4.6,0.3-7l0,0
		c0-14.5-4.4-26.1-13.3-34.7l0,0c-8.9-8.9-21.4-13.3-37.3-13.7l0,0c-14.5,0.3-26.9,5-37.1,14.5l0,0c-10.3,9.2-15.5,21.7-15.8,37.9
		l0,0c0.3,18.4,6.2,32,17.6,40.1l0,0c11.1,8.3,24.2,12.2,39.5,12.2l0,0c11.4-0.2,20-1,26.3-2.5l0,0c6.2-1.4,9.5-1.9,9.5-2.3v-20.5
		c-0.3,0.3-4.2,1.1-11.2,2.5l0,0c-7.4,1.4-14.9,2.3-22.5,2.5l0,0c-9.5,0-16.7-1.9-22-6.1l0,0C982.7,377.6,979.6,371.1,978.7,361.9
		L978.7,361.9z"/>
	<path d="M447.6,383.9c-1.5,0.4-3.6,0.8-6.3,1.4c-5.5,1-11,1.7-16.5,1.9c-11.3-0.2-19.7-3.4-25.5-9.5c-6-5.9-8.8-13.3-8.8-22.6
		s2.7-16.6,8.8-22.5c5.8-6.2,14.1-9.1,25.5-9.4c5.6,0.2,11.1,0.9,16.5,1.9c2.7,0.5,4.8,0.9,6.3,1.2v-20.3c-1.7-0.4-4.2-0.9-7.7-1.7
		c-6.4-1.1-12.9-1.6-19.4-1.7c-23.8,0-49.7,10-57.5,34.6c-1.9,5.7-2.9,11.7-3,17.7v1.5c0.6,14.6,6.2,28.6,17.8,37.8
		c11.1,8.7,25.4,13.1,42.6,13.1c6.5-0.1,13-0.8,19.4-1.9c3.5-0.8,6-1.3,7.7-1.6L447.6,383.9L447.6,383.9z"/>
	<path d="M680,311.1c-6.2,3.4-10.7,9.1-12.8,15.9c0,0,0.5-13.6-1.9-19.7h-27.6v100.9h29.5v-40.6c-0.6-14.3,1.6-24.3,6.4-30.3
		c4.9-5.8,15.3-8.7,31.7-8.3v-23.4C694.7,305.5,686.4,307.2,680,311.1L680,311.1z"/>
	<path d="M752,283.1c0-8.8-7.6-15.9-16.9-15.9s-16.9,7.1-16.9,15.9s7.6,15.9,16.9,15.9S752,291.9,752,283.1z"/>
	<g>
		<defs>
			<rect id="SVGID_3_" x="196" y="262.6" width="858" height="177.8"/>
		</defs>
		<clipPath id="SVGID_4_">
			<use xlink:href="#SVGID_3_"  style="overflow:visible;"/>
		</clipPath>
		<g class="st1">
			<path class="st2" d="M196,418l29.8,0.3c-8.4-7.7-14.5-17.5-17.8-28.4c-0.2,0.2-0.4,0.5-0.6,0.6c-3.6,4.3-8.1,7.3-11.4,11.7
				L196,418L196,418z"/>
			<path class="st2" d="M338.7,412.8c-46.9,12.4-94.5,14.5-142.7,13.4v14.1c47.7,0.3,96-1.1,142.7-12.3V412.8z"/>
			<path class="st2" d="M338.7,396.5c-11.2,1.2-58.2,0.5-58.2-38.2c0-33.3,48.7-38.9,58.2-37.5v-17.4c-43.2,12.8-82.3,34.9-113.2,68
				c2.3,19,14.5,36.8,31.7,46.3c27.4-0.5,54.8-5.2,81.5-12.4L338.7,396.5L338.7,396.5z"/>
			<path class="st2" d="M338.7,262.6c-42.8,12.9-85,33.9-117.7,65c-9.2,8.8-17.6,18.6-25,29v33.5c23.4-24.3,45.6-51,75.9-67.8
				c21.1-11.8,43.5-21,66.7-27.4V262.6z"/>
		</g>
	</g>
</g>
</svg>
