<svg id="LOGO" xmlns="http://www.w3.org/2000/svg" viewBox="0 0 1250 703"><defs><style>.cls-1{fill:#333e48;}.cls-2{fill:#c0d32f;}.cls-3{fill:#92979d;}</style></defs><title>cloudian-logo</title><polyline class="cls-1" points="211.08 257.876 130.002 304.692 159.461 321.698 211.08 291.897"/><polyline class="cls-1" points="234.141 338.19 211.088 324.88 188.028 338.19 211.088 351.5"/><polyline class="cls-2" points="211.08 378.12 234.141 364.81 234.141 338.19 211.08 351.5"/><polyline class="cls-2" points="262.707 321.698 262.707 381.302 211.088 411.103 211.088 445.124 292.174 398.308 292.174 304.692"/><polyline class="cls-3" points="211.08 378.12 211.08 351.5 188.028 338.19 188.028 364.81"/><polyline class="cls-3" points="159.469 381.301 159.469 321.698 130.002 304.692 130.002 398.316 211.088 445.124 211.088 411.103"/><path class="cls-1" d="M391.982,372.666h-44.9v-42.64h44.9V340.1h16.792v-6.518c0-12.924-4.357-16.149-17.924-16.149H348.219c-13.568,0-17.77,3.388-17.77,16.149V369.6c0,12.6,4.039,16.149,17.77,16.149H390.85c13.567,0,17.924-3.388,17.924-16.149V361.62H391.982"/><polyline class="cls-1" points="448.952 317.436 432.16 317.436 432.16 385.753 502.569 385.753 502.569 373 448.952 373"/><path class="cls-1" d="M591.854,317.436h-52.8c-13.412,0-17.769,3.07-17.769,16.149V369.6c0,12.915,4.2,16.149,17.769,16.149h52.8c13.4,0,17.761-3.234,17.761-16.149V333.585c0-13.079-4.357-16.149-17.761-16.149m1.132,55.23H537.919V330.034h55.067Z"/><path class="cls-1" d="M697.853,372.991H650.376V317.445H633.748V369.6c0,12.752,4.193,16.149,17.76,16.149h45.213c13.567,0,17.924-3.4,17.924-16.149V317.445H697.853"/><path class="cls-1" d="M785.646,317.445H739.618v68.308h41.825c30.042,0,45.222-11.3,45.222-34.4,0-21.157-14.048-33.909-41.019-33.909m-7.753,55.546H756.419V329.708h29.389c15.823,0,23.739,6.63,23.739,20.84,0,17.761-10.5,22.443-31.654,22.443"/><rect class="cls-1" x="849.031" y="317.435" width="16.637" height="68.317"/><path class="cls-1" d="M926.035,317.445,885.5,385.753h16.629l8.559-15.017h45.221l8.559,15.017H983.2l-41.173-68.308M917.8,358.3l15.342-28.421L949.13,358.3Z"/><polyline class="cls-1" points="1071.38 317.436 1071.38 362.82 1013.407 317.436 1001.941 317.436 1001.941 385.753 1017.12 385.753 1017.12 339.725 1074.931 385.753 1086.397 385.753 1086.397 317.436"/><path class="cls-1" d="M1114.458,318.114a8.746,8.746,0,0,1,2.941,2,9.045,9.045,0,0,1,1.921,2.9,9.124,9.124,0,0,1,0,6.9,8.629,8.629,0,0,1-1.947,2.847,9.736,9.736,0,0,1-2.993,1.99,8.856,8.856,0,0,1-6.835,0,9.082,9.082,0,0,1-2.924-2.015,9.381,9.381,0,0,1-1.955-2.9,8.953,8.953,0,0,1,.025-6.852,9.8,9.8,0,0,1,2.033-3,8.31,8.31,0,0,1,2.83-1.912,9.184,9.184,0,0,1,3.413-.635,8.976,8.976,0,0,1,3.491.678m3.773,5.334a7.3,7.3,0,0,0-1.664-2.513,7.687,7.687,0,0,0-2.538-1.741,7.88,7.88,0,0,0-3.036-.583,8.047,8.047,0,0,0-2.976.558,7.174,7.174,0,0,0-2.47,1.663,8.47,8.47,0,0,0-1.766,2.616,7.686,7.686,0,0,0-.026,5.935,8.144,8.144,0,0,0,4.253,4.253,7.343,7.343,0,0,0,2.916.6,7.728,7.728,0,0,0,3.01-.592,8.382,8.382,0,0,0,2.59-1.707,7.351,7.351,0,0,0,1.7-2.461,7.768,7.768,0,0,0,.575-2.967,8.174,8.174,0,0,0-.566-3.062m-2.761.515-.6,1.809-1.724.935,2.273,4.657h-2.144l-2.075-4.357h-1.9v4.357h-1.93V321.158h3.859q4.247,0,4.246,2.805m-6.175-1.553v3.379h1.629a4.054,4.054,0,0,0,1.947-.368l.626-1.261-.643-1.347a3.811,3.811,0,0,0-1.981-.4Z"/></svg>