<svg id="LOGO" xmlns="http://www.w3.org/2000/svg" viewBox="0 0 1250 703"><defs><style>.cls-1{fill:#404041;}.cls-2{fill:#fff;}.cls-3{fill:#f38020;}.cls-4{fill:#faae40;}</style></defs><path class="cls-1" d="M1018.43982,408.20121a6.75017,6.75017,0,0,1-6.794-6.794,6.794,6.794,0,1,1,13.588,0,6.89468,6.89468,0,0,1-6.794,6.794m0-12.25149a5.45748,5.45748,0,1,0,5.45751,5.45748,5.46636,5.46636,0,0,0-5.45751-5.45748m3.45273,9.02156h-1.5593l-1.33654-2.56166h-1.782v2.56166h-1.44789V397.509h3.56408a2.36928,2.36928,0,0,1,2.56166,2.45031,2.31228,2.31228,0,0,1-1.5593,2.22754Zm-2.67308-3.8982a1.049,1.049,0,0,0,1.11378-1.11377c0-.891-.44554-1.11377-1.11378-1.11377h-2.22754v2.22754Z"/><polygon class="cls-1" points="310.638 393.945 328.013 393.945 328.013 441.28 358.196 441.28 358.196 456.428 310.638 456.428 310.638 393.945"/><path class="cls-1" d="M376.12775,425.35329v-.22277c0-17.93173,14.479-32.52215,33.74729-32.52215s33.52451,14.36765,33.52451,32.29938v.22277c0,17.93173-14.479,32.52214-33.74728,32.52214s-33.52452-14.36764-33.52452-32.29937m49.67423,0v-.22277c0-9.02156-6.45988-16.818-16.03831-16.818-9.46706,0-15.81555,7.685-15.81555,16.70657v.22277c0,9.02156,6.45988,16.818,15.92693,16.818,9.57843,0,15.92693-7.685,15.92693-16.70657"/><path class="cls-1" d="M464.6726,429.02875V393.945h17.59758v34.74969c0,9.02155,4.56647,13.25387,11.47183,13.25387s11.47183-4.121,11.47183-12.80837V393.945h17.59758v34.6383c0,20.15927-11.47183,28.95806-29.29218,28.95806-17.70893,0-28.84664-8.91017-28.84664-28.51256"/><path class="cls-1" d="M549.31924,393.945h24.05747c22.27544,0,35.30658,12.80837,35.30658,30.85148v.22277c0,18.04312-13.14249,31.40838-35.64069,31.40838H549.31927l0-62.48263Zm24.39159,47.11252c10.35806,0,17.26346-5.68024,17.26346-15.81557v-.22277c0-10.02394-6.9054-15.81557-17.26346-15.81557h-7.01675v31.7425h7.01675Z"/><polygon class="cls-1" points="633.854 393.945 683.863 393.945 683.863 409.092 651.118 409.092 651.118 419.784 680.744 419.784 680.744 434.152 651.118 434.152 651.118 456.428 633.854 456.428 633.854 393.945"/><polygon class="cls-1" points="707.92 393.945 725.184 393.945 725.184 441.28 755.478 441.28 755.478 456.428 707.92 456.428 707.92 393.945"/><path class="cls-1" d="M800.69747,393.49945h16.70658l26.61916,62.92809h-18.6l-4.56643-11.13771H796.79934l-4.45509,11.13771H774.18979Zm15.25869,38.31373-6.9054-17.709-7.01675,17.709Z"/><path class="cls-1" d="M866.29865,393.945h29.51494c9.57841,0,16.14969,2.45031,20.382,6.794,3.67543,3.56408,5.56886,8.35329,5.56886,14.59042v.22276c0,9.57845-5.12332,15.92692-12.80837,19.15689L923.88065,456.539H903.83276l-12.5856-18.93412h-7.57364V456.539H866.29865V393.945Zm28.73529,29.96045c5.903,0,9.24429-2.89582,9.24429-7.3509v-.22277c0-4.90059-3.56408-7.3509-9.35571-7.3509H883.562V423.9054Z"/><polygon class="cls-1" points="946.713 393.945 996.944 393.945 996.944 408.647 963.865 408.647 963.865 418.114 993.825 418.114 993.825 431.813 963.865 431.813 963.865 441.726 997.39 441.726 997.39 456.428 946.713 456.428 946.713 393.945"/><path class="cls-1" d="M272.76975,432.70419a15.36205,15.36205,0,0,1-14.25628,9.35567c-9.467,0-15.92693-7.90778-15.92693-16.818v-.22273c0-9.02156,6.34849-16.70658,15.81555-16.70658a15.52008,15.52008,0,0,1,14.81317,10.35807h18.26585c-2.89581-14.92454-16.03831-25.95087-32.96764-25.95087-19.26824,0-33.74727,14.59042-33.74727,32.52215v.22276c0,17.93173,14.25628,32.29938,33.52452,32.29938,16.48383,0,29.40358-10.69221,32.74489-24.94848l-18.26586-.11141Z"/><polygon class="cls-2" points="976.451 294.262 928.67 266.864 920.428 263.3 724.961 264.636 724.961 363.873 976.451 363.873 976.451 294.262"/><path class="cls-3" d="M889.46508,354.74017c2.3389-8.01915,1.44789-15.37-2.45031-20.82752-3.56408-5.012-9.57841-7.90779-16.81792-8.24191l-137.10526-1.782a2.53463,2.53463,0,0,1-2.11619-1.11377,3.07024,3.07024,0,0,1-.33412-2.45029,3.75971,3.75971,0,0,1,3.23-2.4503l138.33045-1.782c16.37246-.77963,34.1928-14.03353,40.4299-30.29458l7.90775-20.60478a4.4249,4.4249,0,0,0,.22276-2.673,90.06879,90.06879,0,0,0-173.19148-9.24429,40.48963,40.48963,0,0,0-64.59875,28.28979,42.52341,42.52341,0,0,0,1.00238,14.1449,57.54175,57.54175,0,0,0-55.91134,57.582,70.14,70.14,0,0,0,.55688,8.35329,2.74384,2.74384,0,0,0,2.673,2.33893H884.34176a3.44352,3.44352,0,0,0,3.23-2.4503Z"/><path class="cls-4" d="M933.12494,266.64085c-1.22512,0-2.56166,0-3.78685.11138a2.2514,2.2514,0,0,0-2.00477,1.55928l-5.34609,18.6c-2.3389,8.01915-1.44789,15.37,2.45031,20.82753,3.56408,5.012,9.57841,7.90778,16.81792,8.2419l29.18083,1.782a2.53461,2.53461,0,0,1,2.11619,1.11377,3.137,3.137,0,0,1,.33412,2.4503,3.75969,3.75969,0,0,1-3.23,2.45029l-30.406,1.782c-16.48381.77964-34.19281,14.03353-40.4299,30.29459l-2.22754,5.68024a1.604,1.604,0,0,0,1.5593,2.22754h104.47177a2.74092,2.74092,0,0,0,2.67308-2.00479,76.12866,76.12866,0,0,0,2.78443-20.27064,75.03169,75.03169,0,0,0-74.95689-74.84545"/></svg>