<?xml version="1.0" encoding="UTF-8"?><svg id="LOGOS" xmlns="http://www.w3.org/2000/svg" xmlns:xlink="http://www.w3.org/1999/xlink" viewBox="0 0 1250 703"><defs><style>.cls-1{fill:url(#linear-gradient);}.cls-2{fill:#3308dc;}.cls-3{fill:#222;}.cls-4{fill:#2acce8;}</style><linearGradient id="linear-gradient" x1="251.5459" y1="388.89748" x2="251.5459" y2="265.32439" gradientUnits="userSpaceOnUse"><stop offset="0" stop-color="#1e5af0"/><stop offset="1" stop-color="#16bcea"/></linearGradient></defs><g id="Layer_4"><g><g id="cluster"><path class="cls-3" d="M408.09131,352.78223c-2.27051,.85107-4.7312,1.27686-7.37842,1.27686-5.67554,0-9.98096-1.67822-12.91187-5.03711-2.93311-3.35645-4.39844-7.96777-4.39844-13.83398,0-6.05273,1.48975-10.73486,4.46948-14.04736,2.97949-3.30957,7.16528-4.96582,12.55713-4.96582,2.1748,0,4.729,.521,7.66211,1.56055,1.13501,.19092,2.00854-.02197,2.62476-.63867,.61426-.61377,.92236-1.81982,.92236-3.61816v-2.41211c0-2.0791-.33252-3.52246-.99316-4.32715-.66284-.80273-1.7981-1.29932-3.40552-1.49023-3.02832-.94434-6.05469-1.41895-9.08081-1.41895-9.17627,0-16.45923,2.69629-21.85083,8.08789-5.39185,5.3916-8.08789,13.14941-8.08789,23.27002,0,10.02734,2.71826,17.71387,8.15869,23.05664,5.43848,5.34521,13.07593,8.01709,22.91504,8.01709,3.21484,0,6.0061-.42578,8.37158-1.27734,1.51196-.18848,2.57617-.63818,3.19238-1.34766,.61426-.70947,.92236-2.05762,.92236-4.04395v-2.97949c0-1.60742-.30811-2.69629-.92236-3.26367-.61621-.56738-1.53857-.75586-2.7666-.56738Zm35.18652,.42529c-.19092,0-.35498,.02441-.49658,.07129-.14209,.04834-.28394,.09521-.42578,.1416-.14185,.04883-.33252,.09521-.56763,.14209-.2373,.04883-.49658,.0708-.78052,.0708-2.08154,0-3.12134-1.89111-3.12134-5.67529v-77.0459c0-2.1748-.35474-3.61816-1.06421-4.32764s-2.1062-1.06445-4.18579-1.06445h-3.83081c-2.08203,0-3.45435,.35498-4.11499,1.06445-.66284,.70947-.99316,2.15283-.99316,4.32764v79.31592c0,5.771,1.01538,9.79053,3.05054,12.06055,2.0332,2.27002,5.27197,3.40527,9.71948,3.40527,2.1748,0,4.16138-.28369,5.95923-.85107,1.13525-.28418,1.89111-.70947,2.27026-1.27734,.37695-.56738,.56763-1.51172,.56763-2.8374v-4.54053c0-1.22852-.16626-2.05762-.49658-2.4834-.33252-.42529-.8291-.58936-1.48975-.49658Zm59.44922-47.9585h-3.9729c-2.08179,0-3.4541,.35498-4.11475,1.06445-.66284,.70947-.99316,2.15234-.99316,4.32764v27.24268c0,10.7832-4.11475,16.17529-12.34448,16.17529s-12.34424-5.39209-12.34424-16.17529v-27.24268c0-2.17529-.33252-3.61816-.99316-4.32764-.66309-.70947-2.03516-1.06445-4.11475-1.06445h-3.83105c-2.08179,0-3.47632,.37939-4.18579,1.13525-.70947,.7583-1.06421,2.17725-1.06421,4.25684v26.5332c0,9.74365,2.34131,17.02686,7.02344,21.85107,4.68237,4.82422,11.18506,7.23633,19.50977,7.23633,8.41821,0,14.94507-2.3877,19.58081-7.16553,4.63354-4.77539,6.95264-12.08301,6.95264-21.92188v-26.5332c0-2.17529-.33276-3.61816-.99341-4.32764-.66284-.70947-2.03516-1.06445-4.11475-1.06445Zm98.04346,47.81689c-1.23047,.28369-2.41211,.42529-3.54712,.42529-2.74463,0-4.82446-.85107-6.24316-2.55371-1.41895-1.70264-2.12842-5.10791-2.12842-10.21582v-24.26318h8.08765c1.70264,0,2.85986-.33057,3.47632-.99316,.61426-.66064,.92236-1.84473,.92236-3.54736v-2.12842c0-1.7959-.30811-3.00195-.92236-3.61816-.61646-.61377-1.77368-.92236-3.47632-.92236h-8.08765v-10.92529c0-2.07959-.40356-3.49854-1.20605-4.25684-.80469-.75586-2.38989-1.13525-4.75317-1.13525h-3.12158c-1.98633,0-3.33447,.37939-4.04395,1.13525-.70947,.7583-1.06421,2.17725-1.06421,4.25684v44.41113c0,9.36475,1.60742,16.17529,4.82446,20.43213,3.2146,4.25684,8.37134,6.38525,15.46582,6.38525,2.4585,0,4.34985-.2373,5.67554-.70947,1.79565-.56787,2.6958-1.89111,2.6958-3.97314v-4.82422c0-2.1748-.85132-3.16797-2.55396-2.97949Zm-41.89502-19.24854c-1.80908-1.23926-3.54712-2.1792-5.21436-2.82227-1.66724-.64258-3.73779-1.19238-6.21216-1.65381-.65161-.146-1.48975-.33691-2.51392-.56738-1.02441-.23047-1.81592-.40771-2.37451-.53418s-1.25708-.28369-2.09521-.47461c-.83789-.18848-1.51196-.34131-2.02393-.45654-.51221-.11523-1.06885-.32812-1.66943-.63867-.60083-.31055-1.06201-.62061-1.38574-.93115-.32373-.31006-.64746-.64502-.97095-1.00635-.32373-.36133-.55444-.80029-.69165-1.31934-.13989-.5166-.2085-1.08398-.2085-1.70459,0-2.45898,.89795-4.09033,2.6958-4.89551,1.7959-.80225,4.34985-1.20605,7.66211-1.20605,5.67554,0,10.49976,.521,14.47266,1.56104,1.41895,.28369,2.3877,.26172,2.90869-.07129,.5188-.33008,.78027-1.25244,.78027-2.7666v-5.25c0-1.70264-1.04199-2.88428-3.12134-3.54688-3.59619-1.13525-8.7041-1.70312-15.32422-1.70312-3.31226,0-6.17212,.21289-8.58423,.63867s-4.84863,1.23047-7.30713,2.41211c-2.46094,1.18408-4.32764,3.05078-5.60474,5.60449-1.2771,2.5542-1.91553,5.771-1.91553,9.64844,0,5.67578,1.44116,9.76855,4.32764,12.27344,2.88428,2.50781,6.78638,4.23438,11.70581,5.1792,.65186,.13721,1.60742,.33936,2.8667,.60303,1.25928,.26611,2.26123,.47656,3.00635,.63623,.74487,.15967,1.65601,.3501,2.729,.57617,1.073,.22656,1.91553,.48145,2.53174,.76514,.61646,.28369,1.25488,.66064,1.91797,1.13281,.66284,.47217,1.13721,1.0376,1.4209,1.69824,.28394,.66064,.42578,1.4165,.42578,2.26562,0,4.625-4.11475,6.9375-12.34448,6.9375-5.86621,0-10.97412-.61426-15.32397-1.84473-.94678-.18848-1.68042-.23486-2.19922-.14209-.521,.09521-.90015,.37939-1.13525,.85156-.23706,.47412-.35449,1.32568-.35449,2.5542v4.54004c0,1.32568,.25928,2.27051,.78027,2.83789,.5188,.56738,1.53638,1.04199,3.05078,1.41895,5.01245,1.32373,10.6416,1.98633,16.88477,1.98633,7.37793,0,13.19556-1.37207,17.45215-4.11475,4.25684-2.74268,6.38501-7.75488,6.38501-15.04004,0-3.21484-.45215-5.94629-1.35669-8.19629-.90454-2.24805-2.26367-3.99316-4.07275-5.23486Zm98.22388,17.12012c-6.90601,2.36572-12.29761,3.54736-16.17529,3.54736-9.17627,0-14.75659-4.06592-16.74292-12.20264h10.35791c17.31055,0,25.96582-6.43164,25.96582-19.29688,0-6.81055-2.24805-11.70605-6.73975-14.68555-4.49414-2.97949-10.052-4.46973-16.67212-4.46973-9.17627,0-16.01123,2.81592-20.50293,8.44238-4.4939,5.62939-6.73975,13.17383-6.73975,22.63184,0,10.02734,2.50513,17.76025,7.52026,23.19873,5.0127,5.44043,12.48608,8.15869,22.41846,8.15869,6.61987,0,12.72119-1.18408,18.30371-3.54736,1.4187-.47217,2.34106-1.04004,2.76685-1.70264,.42554-.66064,.63843-1.70264,.63843-3.12158v-3.83105c0-3.02637-1.46777-4.06592-4.39868-3.12158Zm-29.58374-31.99609c2.60059-3.07275,6.03027-4.61133,10.28687-4.61133,6.24316,0,9.36475,2.88672,9.36475,8.65527,0,6.43359-4.7312,9.64844-14.18896,9.64844h-9.64844c.18848-6.05273,1.58301-10.61719,4.18579-13.69238Zm73.00098-15.11133h-1.98633c-17.12207,0-25.68213,9.27197-25.68213,27.81055v27.95215c0,2.08154,.33057,3.47607,.99341,4.18555,.66064,.70947,2.03296,1.06445,4.11475,1.06445h3.83105c2.1748,0,3.59375-.33057,4.25659-.99316,.66064-.66113,.99316-2.07959,.99316-4.25684v-27.81055c0-4.82422,1.04004-8.53516,3.12158-11.13818,2.07959-2.60059,4.87085-3.90186,8.37158-3.90186,.28369,0,.63843,.02441,1.06421,.0708,.42554,.04883,.73145,.07129,.92212,.07129,1.41895,0,2.41211-.25977,2.97974-.78076,.56763-.51855,.85132-1.48975,.85132-2.90869v-4.96582c0-2.74268-1.2771-4.20801-3.83105-4.39893Z"/></g><g id="power"><path class="cls-4" d="M747.16968,303.83008c-9.83911,0-17.45239,2.76709-22.84399,8.30078-5.39185,5.53369-8.08789,13.36182-8.08789,23.48242v47.10742c0,2.64697,.42578,4.4209,1.2771,5.3208,.85132,.89795,2.55396,1.34814,5.10791,1.34814h3.68921c2.64722,0,4.39844-.4502,5.25-1.34814,.85107-.8999,1.27686-2.67383,1.27686-5.3208v-23.27002c3.49854,4.54053,8.9856,6.81104,16.45923,6.81104,8.7019,0,15.55908-2.90918,20.57397-8.72656,5.0127-5.81738,7.52002-13.35938,7.52002-22.63086,0-9.64893-2.76685-17.23975-8.30054-22.77344s-12.84106-8.30078-21.92188-8.30078Zm8.72632,42.92188c-2.22363,2.97949-5.27441,4.46924-9.15186,4.46924-3.87988,0-6.95264-1.48975-9.2229-4.46924-2.27026-2.97998-3.40527-6.88184-3.40527-11.70605s1.13501-8.72607,3.40527-11.70605c2.27026-2.97949,5.34302-4.46924,9.2229-4.46924,3.87744,0,6.92822,1.48975,9.15186,4.46924,2.22144,2.97998,3.33423,6.88184,3.33423,11.70605s-1.11279,8.72607-3.33423,11.70605Zm60.23071-42.92188c-9.36475,0-16.79175,2.8623-22.27661,8.58447-5.48706,5.72412-8.22949,13.22021-8.22949,22.48975,0,9.27148,2.76685,16.81348,8.30029,22.63086,5.53369,5.81738,12.93408,8.72656,22.20581,8.72656,9.36475,0,16.83594-2.90918,22.41846-8.72656,5.58032-5.81738,8.37134-13.35938,8.37134-22.63086,0-9.26953-2.7666-16.76562-8.30029-22.48975-5.53369-5.72217-13.03174-8.58447-22.4895-8.58447Zm9.2229,42.70898c-2.27026,2.83789-5.34521,4.25635-9.2229,4.25635-3.78442,0-6.81079-1.44092-9.08081-4.32764-2.27026-2.88428-3.40552-6.69092-3.40552-11.42188,0-4.82422,1.13525-8.65527,3.40552-11.49316,2.27002-2.83789,5.29639-4.25635,9.08081-4.25635,3.87769,0,6.95264,1.41846,9.2229,4.25635,2.27002,2.83789,3.40527,6.66895,3.40527,11.49316s-1.13525,8.65527-3.40527,11.49316Zm107.55176-41.29004h-4.82422c-2.5542,0-4.25684,.4502-5.10815,1.34814-.85132,.8999-1.2771,2.67383-1.2771,5.3208v27.95215c0,7.28516-2.46069,10.92529-7.37817,10.92529-4.91943,0-7.37817-3.64014-7.37817-10.92529v-27.95215c0-2.64697-.42578-4.4209-1.27686-5.3208-.85156-.89795-2.5542-1.34814-5.10815-1.34814h-4.82422c-2.55396,0-4.25659,.4502-5.10791,1.34814-.85156,.8999-1.2771,2.67383-1.2771,5.3208v27.95215c0,7.28516-2.41211,10.92529-7.23633,10.92529-4.91943,0-7.37842-3.64014-7.37842-10.92529v-27.95215c0-2.74268-.40332-4.54053-1.20605-5.3916-.80469-.85156-2.53174-1.27734-5.17871-1.27734h-4.68237c-2.5542,0-4.28101,.4502-5.17896,1.34814-.90015,.8999-1.34814,2.67383-1.34814,5.3208v26.95898c0,10.02734,1.98657,17.09766,5.95947,21.2124s9.45776,6.17236,16.45898,6.17236c5.29663,0,9.29395-.97119,11.98975-2.90918,2.6958-1.9375,4.94189-4.84619,6.73975-8.72607,2.93091,7.75732,9.2229,11.63525,18.87134,11.63525,14.75635,0,22.13452-9.12793,22.13452-27.38477v-26.95898c0-2.64697-.42554-4.4209-1.27686-5.3208-.85132-.89795-2.55396-1.34814-5.10791-1.34814Zm65.28223,43.17188c-.45239,.13965-1.62744,.50146-3.52295,1.08203-1.89771,.58105-3.22803,.98877-3.99512,1.22412-.76709,.23486-1.95532,.49414-3.56274,.77783-1.60962,.28418-3.2168,.42578-4.82422,.42578-7.66187,0-12.53491-2.97949-14.6145-8.93896h8.79712c17.31055,0,25.96558-6.52686,25.96558-19.58057,0-7.09473-2.37646-12.13184-7.12744-15.11133-4.75342-2.97949-10.58203-4.46973-17.48584-4.46973-9.45996,0-16.50781,2.7915-21.14136,8.37158-4.63599,5.58252-6.95264,13.14941-6.95264,22.70264,0,9.83887,2.55396,17.52295,7.66187,23.05664,5.10815,5.53369,12.91211,8.30078,23.41187,8.30078,6.43164,0,12.62817-1.2041,18.5874-3.61182,1.70728-.55176,2.82007-1.22363,3.34106-2.01514,.5188-.78906,.78052-2.02441,.78052-3.7002v-4.74463c0-3.64697-1.77368-4.90381-5.3186-3.76904Zm-27.89453-28.34424c2.31665-2.31689,5.13013-3.47656,8.44238-3.47656,4.91724,0,7.37817,2.31934,7.37817,6.95264,0,5.20361-3.9729,7.8042-11.9187,7.8042h-7.80396c.28394-5.20117,1.58301-8.96143,3.9021-11.28027Zm71.86621-16.24658h-.99316c-18.25708,0-27.38452,9.45996-27.38452,28.37793v26.10791c0,2.64893,.44775,4.39844,1.3479,5.24951,.89795,.85156,2.625,1.27734,5.17896,1.27734h4.68237c2.64697,0,4.37402-.42578,5.17896-1.27734,.80249-.85107,1.20605-2.60059,1.20605-5.24951v-25.82373c0-4.06641,.92212-7.18799,2.76685-9.36523,1.84448-2.1748,4.18555-3.26318,7.02344-3.26318h.99316c1.7959,0,3.00195-.33057,3.61816-.99316,.61426-.66064,.92236-1.84473,.92236-3.54736v-6.24316c0-3.40527-1.51416-5.1543-4.54053-5.25Z"/></g><g id="Shape_3"><path class="cls-2" d="M310.23535,284.83691l-21.22314,29.45312c2.02832,3.7959,3.19189,8.12354,3.19189,12.73047,0,4.73877-1.22729,9.18359-3.36475,13.05615l21.14624,29.3999c10.46851-11.07617,16.90552-26.00635,16.90552-42.45605,0-16.31738-6.33594-31.13623-16.65576-42.18359Zm-106.91724,82.00781v70.83105c19.67407,0,35.77124-15.08594,35.77124-33.52393v-8.27588c-14.7793-5.66895-27.27856-15.92383-35.77124-29.03125Z"/></g><g id="Shape_4"><path class="cls-1" d="M264.81763,354.21045c-12.27808,0-22.63306-8.24121-25.90039-19.51416-.698-2.40771-1.0791-4.95117-1.0791-7.58545,0-1.31738,.09863-2.61133,.27954-3.87842,1.87378-13.12842,13.11133-23.2207,26.69995-23.2207,5.45093,0,10.52075,1.62891,14.76343,4.4209l20.20654-28.14355c-9.93091-6.90723-21.97607-10.96484-34.96997-10.96484-23.29883,0-43.56958,13.01318-54.00903,32.1958-4.78271,8.78809-7.50439,18.86963-7.50439,29.59082,0,24.82715,14.58545,46.22119,35.61304,56.04248,7.87378,3.67773,16.64478,5.74414,25.90039,5.74414,12.86157,0,24.79688-3.9707,34.66919-10.74951l-20.19189-28.1748c-4.18384,2.67871-9.14795,4.2373-14.47729,4.2373Z"/></g></g></g></svg>