<svg xmlns="http://www.w3.org/2000/svg" xmlns:xlink="http://www.w3.org/1999/xlink" viewBox="0 0 1250 703"><defs><style>.cls-1,.cls-2{fill:none;}.cls-2{clip-path:url(#clip-path);}.cls-3{clip-path:url(#clip-path-2);}.cls-4{fill:#0d0d0d;}</style><clipPath id="clip-path"><rect class="cls-1" x="-109.13" y="-123" width="1468.26" height="949"/></clipPath><clipPath id="clip-path-2"><path class="cls-2" d="M732.56,289.06c5.41,2.51,9.4,6.75,12.69,11.68.57.83.72,2,2.12,2.39.82-4.1,1.71-8.12,2.4-12.16.32-1.91.89-2.84,3.1-2.8,8.2.16,16.36.12,24.56,0,2.15,0,2.47.73,2.47,2.64-.13,40.35-.13,80.66-.35,121A60.73,60.73,0,0,1,774.23,436c-6.11,13.82-17.56,20.57-31.58,23.15-19.77,3.66-39.36,1.75-58.66-3.63-1.78-.51-2.38-1.37-2.35-3.25.1-8.21.1-16.46,0-24.68,0-2.29.26-3.05,2.63-1.78a74.62,74.62,0,0,0,40.38,8.57c13.38-.83,21.93-9.27,22.24-22.81.13-5.22,0-10.44,0-16.55-13.13,23.69-53.85,22.83-68.41-3.92-8.1-14.9-10.47-30.92-9.52-47.58.69-12.45,3.32-24.45,9-35.66,11.89-23.47,35.94-27.48,54.55-18.82ZM830.65,377c11.42,0,19.71,8.5,19.87,20.54.19,11.53-8.57,20.7-19.81,20.8-10.82.09-19.68-9.11-19.71-20.51,0-11.85,8.39-20.76,19.65-20.83Zm-574-83.81a4,4,0,0,1,2.66,4.33c-.16,8.79-.06,17.58-.06,27.23-7.28-6-14.56-10.07-23-11.82a43.16,43.16,0,0,0-21.42.57c-10.47,3.12-16.64,10.61-19.62,20.77a57.48,57.48,0,0,0,0,33.47c5.35,17.41,18.64,23.37,35.6,21.84a47.07,47.07,0,0,0,27.72-12.2c1.11.9.63,1.92.63,2.77,0,8.13,0,16.25.07,24.33a3.71,3.71,0,0,1-2.28,3.89,73.43,73.43,0,0,1-36.23,8.44c-10.86-.19-21.46-1.94-31.17-7.2-13.54-7.29-22.28-18.6-26.42-33.37-5.16-18.38-5.13-36.75,1.42-54.74,7.88-21.72,24.08-33.18,46.52-36a79.52,79.52,0,0,1,45.53,7.71Zm768.63-6.75c17.12-3.06,33.51-1.18,47.85,9.84a52,52,0,0,1,18.29,27.38c5.85,20.35,5.88,40.73-2.54,60.41-8.51,19.84-23.89,30.64-45.43,32.39-11.4.92-22.38-.42-32.72-5.64-14.24-7.16-22.63-19.11-27.31-33.95-2.66-8.34-3.36-17-3.61-25.44.32-13.34,2.15-26.08,8.48-37.8,8.07-15,20.41-24.23,37-27.19Zm-107.2,1.72c2.59,0,2.47,1.24,2.47,3.05,0,12.87,0,25.77,0,38.63h.1c0,12.52,0,25,0,37.58a32.66,32.66,0,0,0,2.22,11.84c2.37,6.12,7,9.37,13.48,10,9,.86,18,.35,27,.35,2.53,0,3.16.67,3.1,3.19-.19,6.56-.13,13.12,0,19.68,0,2.06-.63,2.57-2.6,2.54-12.21-.09-24.42.1-36.64-.16a45.07,45.07,0,0,1-20.47-5c-10.79-5.79-15.09-15.86-17.37-27.19-1.49-7.29-1.62-14.68-1.62-22.07,0-14.68-.06-29.33.07-44,0-2.48-.6-3.28-3.14-3.22-6.86.2-13.76,0-20.63.13-2.24.07-2.75-.63-2.72-2.8.13-6.69.1-13.34,0-20,0-1.82.38-2.45,2.31-2.45,18.13.06,36.3.09,54.43,0ZM388.82,313.8a97.91,97.91,0,0,1,1.78,19.9c.06,25.54,0,51.08.09,76.62,0,2.71-.66,3.35-3.29,3.31-8.67-.19-17.31-.19-26,0-2.63.07-3.32-.57-3.29-3.28.13-23.63.09-47.25.06-70.88A65.38,65.38,0,0,0,357,325.23c-1.84-8.31-5.22-12-12-13.12s-13.61,2.52-17.28,8.89c-4.15,7.19-4.65,15.12-4.65,23.15-.06,21.94-.1,43.91.06,65.85,0,3.06-.82,3.7-3.7,3.63-8.67-.22-17.31-.16-26,0-2.34,0-2.91-.63-2.91-3q.09-59.81,0-119.57c0-2.39.7-2.93,2.94-2.9q11.91.19,23.86,0c2,0,2.66.63,2.94,2.45.73,5,1.65,10.06,2.66,16,2.85-7.39,6.81-12.9,13-16.5,22.33-13.12,47.68-1.78,52.93,23.63Zm261.34-23a2,2,0,0,1,1.39,2.1c0,9.75,0,19.49,0,29.84-9.49-8-20.19-10-31.74-9.62-18.16.67-30.56,12.65-30.85,30.92-.35,21.95-.28,43.89-.22,65.86,0,3.06-.82,3.73-3.73,3.66-8.89-.19-17.79-.13-26.68,0-2,0-2.53-.54-2.53-2.58q.09-60.14,0-120.25c0-2,.54-2.57,2.56-2.57,8.2.09,16.36.16,24.56,0,2.37-.06,2.75,1.15,3,2.87.8,5.16,1.62,10.29,2.6,16.5,4.37-8.73,10.16-14.72,18.13-18.19,14.68-6.37,29.24-5.32,43.54,1.53Zm-210.61-2.71c2.24,0,2.94.74,3.51,2.84q12.29,45.52,24.74,91c.23.92.54,1.81,1.08,3.41,8.67-31.88,17.15-62.9,25.5-93.95.7-2.58,1.74-3.28,4.31-3.24,9.84.16,19.68.06,29.84.06-3.26,10.41-6.43,20.6-9.62,30.73Q504.44,364.73,490,410.51c-.7,2.26-1.56,3.09-4.09,3.06-11.51-.16-23-.13-34.52,0-2.15,0-3-.64-3.64-2.74Q429,351,410.06,291.35c-.76-2.36-.89-3.28,2.08-3.22,9.15.16,18.26.16,27.41,0Zm598.3,23.76c-8.74-.06-14.91,4.33-19.21,11.88-4.62,8.15-5.89,17.07-6,26.14-.1,9.78,1,19.46,6,28.25,4.24,7.39,10.16,11.75,18.86,11.81s14.74-4.33,18.92-11.68c4.78-8.41,6.08-17.65,6-26.75.07-10-1.17-19.17-5.82-27.68-4.11-7.45-10.19-11.91-18.76-12Zm-313.33,0c-8.26-.1-13.92,4.59-17.28,11.69-8,16.91-8,34,.13,50.88,3.26,6.82,8.64,11.28,16.71,11.34s13.22-4.46,17-11c4.62-8,6.14-16.87,5.95-25.44.06-9.43-1.33-17.9-5.54-25.8-3.7-6.84-8.92-11.55-17-11.65Zm166.12-76.78c9.05,0,18.1,0,27.15.07,2.31.38,2.63,2.16,2.66,4,0,10,0,20,0,30,0,3-1.42,4.23-4.39,4.2-8.07-.06-16.11-.06-24.18,0-3,0-4.27-1.21-4.24-4.26.06-10,0-20,0-30,0-2.07.38-3.86,2.94-4Z"/></clipPath></defs><title>cnvrg-io-logo</title><g id="Layer_4" data-name="Layer 4"><g class="cls-3"><rect class="cls-4" x="69.92" y="145.58" width="1115.12" height="405"/></g></g></svg>