<svg xmlns="http://www.w3.org/2000/svg" viewBox="0 0 1250 703"><title>nvidia-partner-colfax-logo</title><g id="LOGO"><path d="M519.24,385.62a36.2,36.2,0,0,1-14.51-3A36.72,36.72,0,0,1,492.42,374,42,42,0,0,1,484,360.23a50.3,50.3,0,0,1-3.16-18.31,52.68,52.68,0,0,1,3.1-18.5,43.32,43.32,0,0,1,8.58-14.3,38,38,0,0,1,12.82-9.18,39.07,39.07,0,0,1,15.8-3.23,38.19,38.19,0,0,1,11.31,1.55,41.29,41.29,0,0,1,9.66,4.36l2.45-4.07h4.77l.49,30.29h-4.89a73.25,73.25,0,0,0-2.86-9.59,36.79,36.79,0,0,0-4.46-8.74,21.72,21.72,0,0,0-6.77-6.36,17.55,17.55,0,0,0-9-2.29,23,23,0,0,0-10.74,2.58,24.33,24.33,0,0,0-8.58,7.6,37.65,37.65,0,0,0-5.43,12.36,66.39,66.39,0,0,0-1.95,16.72,51.39,51.39,0,0,0,2.06,14.94A38.33,38.33,0,0,0,503,368a28.19,28.19,0,0,0,9,8,23.53,23.53,0,0,0,11.62,2.88,24.75,24.75,0,0,0,8.84-1.53,23.9,23.9,0,0,0,7-4,32.17,32.17,0,0,0,5.21-6,33.64,33.64,0,0,0,3.69-7.31l4.53,2.14q-5.15,12.66-13.6,18.07c-5.62,3.62-12.35,5.42-20.12,5.42Zm115.87-77a41.55,41.55,0,0,1,8.79,14.16,51.48,51.48,0,0,1,3.16,18.37,50.54,50.54,0,0,1-3.22,18.42,40.8,40.8,0,0,1-9,14.08A38.32,38.32,0,0,1,622,382.49a41.15,41.15,0,0,1-32-.21A37.74,37.74,0,0,1,577.12,373a42.18,42.18,0,0,1-8.44-14.13,50.57,50.57,0,0,1-3.08-17.78,50,50,0,0,1,3.22-18.49,42.88,42.88,0,0,1,8.91-14,38,38,0,0,1,13-9,39.73,39.73,0,0,1,15.55-3.12,40.44,40.44,0,0,1,15.88,3.16,38.08,38.08,0,0,1,12.9,9Zm-8.89,60.35a39.76,39.76,0,0,0,4.88-12.39,77.25,77.25,0,0,0-.19-31.51,39.68,39.68,0,0,0-5-12.49,23.93,23.93,0,0,0-8.26-7.95,22.36,22.36,0,0,0-11.35-2.86,21.59,21.59,0,0,0-12.19,3.31,25.42,25.42,0,0,0-8.19,8.83,42.75,42.75,0,0,0-4.45,12.36A73.2,73.2,0,0,0,580,341.12a71.68,71.68,0,0,0,1.55,15.62,39.37,39.37,0,0,0,4.92,12.38,24.13,24.13,0,0,0,8.11,8.26,22.23,22.23,0,0,0,11.72,3,22.49,22.49,0,0,0,11.54-3,23.35,23.35,0,0,0,8.35-8.4ZM732,358.27l-1.79,25.26H664.1v-4.29c1-.08,2.33-.23,4.12-.41A13.24,13.24,0,0,0,672,378a5,5,0,0,0,2.59-2.27,8.08,8.08,0,0,0,.8-3.82V311.16a9,9,0,0,0-.68-3.6,5.36,5.36,0,0,0-2.71-2.51,19.85,19.85,0,0,0-3.81-1.39,20.85,20.85,0,0,0-4.06-.82v-4.29h35.72v4.29a30.4,30.4,0,0,0-4.35.59,33.54,33.54,0,0,0-3.87,1,4.5,4.5,0,0,0-2.77,2.45,9.1,9.1,0,0,0-.75,3.72v57a37.47,37.47,0,0,0,.38,6.15,5.47,5.47,0,0,0,1.82,3.37,8.17,8.17,0,0,0,4.07,1.41,64.94,64.94,0,0,0,7.61.33c1.46,0,3,0,4.58-.12a44.39,44.39,0,0,0,4.53-.47,22.75,22.75,0,0,0,3.85-1,6,6,0,0,0,2.59-1.58,53.12,53.12,0,0,0,5.69-8.36,60.4,60.4,0,0,0,4.5-9.07Zm77.75-38.51h-4.52a30.82,30.82,0,0,0-5.2-10.05c-2.65-3.58-5.18-5.54-7.58-5.91-1.25-.14-2.69-.26-4.38-.34s-3.59-.13-5.73-.13H768.15v34.09h9.72a19.44,19.44,0,0,0,6.85-.94,10.32,10.32,0,0,0,4.18-2.84,12.11,12.11,0,0,0,2.18-4.11,24.55,24.55,0,0,0,1.29-6h4.52V357h-4.52a26.64,26.64,0,0,0-1.23-6,15.19,15.19,0,0,0-2.24-4.86,8.86,8.86,0,0,0-4.5-3,22.24,22.24,0,0,0-6.53-.82h-9.72v29.2a7.58,7.58,0,0,0,.8,3.52,5.55,5.55,0,0,0,2.77,2.51,20.77,20.77,0,0,0,3.93,1,33.93,33.93,0,0,0,4.61.66v4.29H743.32v-4.29c1.2-.08,2.8-.21,4.79-.39a14.14,14.14,0,0,0,3.89-.69,5.13,5.13,0,0,0,2.62-2.29,7.69,7.69,0,0,0,.81-3.68V310.91a8.94,8.94,0,0,0-.65-3.49,5.2,5.2,0,0,0-2.78-2.49,21.29,21.29,0,0,0-4.34-1.37,34.06,34.06,0,0,0-4.34-.72v-4.29h66.41v21.21Zm92.88,63.77H867.39v-4.29a35.75,35.75,0,0,0,7.74-1.21c2-.59,3.06-1.33,3.06-2.2a8.28,8.28,0,0,0-.1-1.31,6.38,6.38,0,0,0-.37-1.39l-7-19H841c-1.12,2.8-2,5.23-2.74,7.3s-1.32,4-1.87,5.74-.87,3.13-1.08,4.19A15.32,15.32,0,0,0,835,374c0,1.6,1.27,2.85,3.78,3.73a30.54,30.54,0,0,0,8.47,1.55v4.29H815.28v-4.29a24.49,24.49,0,0,0,3.9-.7A12.11,12.11,0,0,0,823,377a15.07,15.07,0,0,0,3.71-3.39,22.24,22.24,0,0,0,2.57-4.89q6.39-16,14.08-35.92t13.74-35.51h4.79l28.25,73.29a14.81,14.81,0,0,0,2,3.79,14,14,0,0,0,3.18,2.8,12.4,12.4,0,0,0,3.57,1.41,18.48,18.48,0,0,0,3.71.63v4.29Zm-34.06-34.7-12.86-33-12.66,33ZM993,383.53H953.37v-4.29a35.09,35.09,0,0,0,7.87-.92c2-.55,3-1.37,3-2.49a11.53,11.53,0,0,0-1.39-3.7,68.08,68.08,0,0,0-3.51-6.3c-1.61-2.55-3.48-5.54-5.68-9s-4.37-6.75-6.5-9.91c-3.51,4.64-7.51,10.2-11.95,16.72s-6.71,10.36-6.71,11.52a3.06,3.06,0,0,0,1.84,2.9c1.22.62,3.93,1,8.09,1.17v4.29H906.77v-4.29c1-.08,2.37-.23,4-.45a13.38,13.38,0,0,0,4-1.1,20.88,20.88,0,0,0,5-3.62,41,41,0,0,0,3.79-4.58c2.55-3.51,5.81-7.87,9.78-13.12s7.48-10,10.54-14.31c-2.3-3.39-5.28-7.68-8.87-12.89s-7.43-10.82-11.51-16.76a46.44,46.44,0,0,0-4-5.32,12.23,12.23,0,0,0-3.87-2.69,15.88,15.88,0,0,0-3.94-1c-1.67-.26-3-.43-4-.51v-4.29h39.26v4.29a46.31,46.31,0,0,0-7.28.86c-2.5.51-3.75,1.27-3.75,2.31a10.65,10.65,0,0,0,1.49,4c1,1.88,2.18,3.92,3.53,6.07s3,4.72,4.68,7.44,3.82,5.86,6.3,9.42q6.76-9.17,11.66-16.56c3.29-4.9,4.92-8.11,4.92-9.58a3,3,0,0,0-2.24-2.8,25.1,25.1,0,0,0-7.57-1.15v-4.29h31.56v4.29a34.36,34.36,0,0,0-3.92.45,16.94,16.94,0,0,0-4,1.11,14.32,14.32,0,0,0-4.63,3.23c-1,1.16-2.39,2.84-4.1,5q-4.77,6.19-8.82,11.61c-2.7,3.62-5.92,8-9.71,13.22q4.77,6.81,10.67,15.48t11.27,16.53a38.31,38.31,0,0,0,4.24,5.11,23.55,23.55,0,0,0,3.87,3.33,9.4,9.4,0,0,0,3.85,1c1.61.15,3,.23,4.1.27v4.29Z" fill="#29ae89"/><path d="M918.28,457.25a2.74,2.74,0,0,0,.69,1.94,3.25,3.25,0,0,0,2.16.62,4.37,4.37,0,0,0,2.94-1.39c2.4-2.28,4.24-6.18,5.47-9.19s2.67-7,2.56-10.27a2.89,2.89,0,0,0-.7-1.91,1.89,1.89,0,0,0-1.4-.68,5.79,5.79,0,0,0-3.87,2.11,30.06,30.06,0,0,0-6,10.2,24.16,24.16,0,0,0-1.87,8.57Zm-106.15,0a2.71,2.71,0,0,0,.7,1.94,3.21,3.21,0,0,0,2.15.62,4.37,4.37,0,0,0,2.94-1.39c2.4-2.28,4.24-6.18,5.48-9.19s2.66-7,2.55-10.27a2.84,2.84,0,0,0-.7-1.91,1.89,1.89,0,0,0-1.4-.68,5.79,5.79,0,0,0-3.87,2.11,30.06,30.06,0,0,0-6,10.2,24.16,24.16,0,0,0-1.87,8.57Zm-67.5-18.58a12.27,12.27,0,0,0-3.43,2.78,30.86,30.86,0,0,0-3.11,4.62,41.73,41.73,0,0,0-3.09,6.07,11.21,11.21,0,0,0-.93,3.8,2.85,2.85,0,0,0,.69,1.9,2,2,0,0,0,1.56.66,5.32,5.32,0,0,0,2.81-1.12,25.82,25.82,0,0,0,5.72-5.71,22.15,22.15,0,0,0,3.64-7.08,25.54,25.54,0,0,0,1-4.16,2.74,2.74,0,0,0-.8-1.74c-.3-.32-.81-.81-1.29-.81a6.66,6.66,0,0,0-2.75.79Zm-29.39,8.6a13.83,13.83,0,0,0,2.8-.76,17.14,17.14,0,0,0,3.21-1.73,8.31,8.31,0,0,0,1.73-1.67,8.78,8.78,0,0,0,1.47-2.46,6.8,6.8,0,0,0,.43-2.6,1.85,1.85,0,0,0-.54-1.3,1.47,1.47,0,0,0-1.06-.51,3.41,3.41,0,0,0-1.93.91,19.65,19.65,0,0,0-4.16,5.68,26,26,0,0,0-2,4.44Zm-115.6,10a2.74,2.74,0,0,0,.69,1.94,3.23,3.23,0,0,0,2.16.62,4.39,4.39,0,0,0,2.94-1.39c2.4-2.28,4.24-6.18,5.47-9.19s2.66-7,2.55-10.27a2.83,2.83,0,0,0-.69-1.91,1.89,1.89,0,0,0-1.41-.68,5.75,5.75,0,0,0-3.86,2.11,29.74,29.74,0,0,0-6,10.2,23.94,23.94,0,0,0-1.87,8.57ZM969.52,455c1.57,0,2.56,1.36,3.17,2.65a4.37,4.37,0,0,0,1,1.48,1.6,1.6,0,0,0,1.06.33,3.54,3.54,0,0,0,2.5-1.19,3.5,3.5,0,0,0,.82-2.69,15.91,15.91,0,0,0-1.28-4.51,23.21,23.21,0,0,1-1.9-7.1,10.81,10.81,0,0,1,2-6.75c1.61-2.28,4.17-3,6.85-3a5.1,5.1,0,0,1,3.35,1.07,3.56,3.56,0,0,1,1.36,2.67,2.53,2.53,0,0,1-.59,1.81,2,2,0,0,1-1.51.71,4,4,0,0,1-3-1.48,10,10,0,0,0-1.55-1.5,2.88,2.88,0,0,0-1.13-.17,1.86,1.86,0,0,0-1.42.66,2.16,2.16,0,0,0-.58,1.61,24.4,24.4,0,0,0,1.92,7.08,22.35,22.35,0,0,1,1.84,7.31,6.46,6.46,0,0,1-1,3.52,8.39,8.39,0,0,1-3.37,3,10,10,0,0,1-4.75,1.22,7.34,7.34,0,0,1-4.52-1.22,3.92,3.92,0,0,1-1.63-3,2.43,2.43,0,0,1,.63-1.8,2.29,2.29,0,0,1,1.75-.7Zm-21.59-7.5a88.68,88.68,0,0,1,5.7-7.11,27.24,27.24,0,0,1,6-5.39,6.59,6.59,0,0,1,3.38-1,3,3,0,0,1,2,.69,2.33,2.33,0,0,1,.82,1.78,5.31,5.31,0,0,1-.09,1.2,21.83,21.83,0,0,1-1,3.45c-.41,1.16-.91,2.33-1.39,3.46-.86,2-1.75,4-2.64,6l-3.18,7.37-.1.33s0,.08.07.14c1.71-.61,4.23-4.22,5.11-5.5l.1-.16,2.17,0-.28.5a33,33,0,0,1-3.37,4.67,14.53,14.53,0,0,1-4,3.41,5.5,5.5,0,0,1-2.72.72,2.43,2.43,0,0,1-1.45-.39,1.26,1.26,0,0,1-.56-1c0-1.61.94-4,1.6-5.4l4.6-10.14,1.76-4.26a13.4,13.4,0,0,0,.71-1.88,5,5,0,0,0,.08-1,.66.66,0,0,0-.15-.45.5.5,0,0,0-.38-.15,2.29,2.29,0,0,0-1.07.37,21.61,21.61,0,0,0-5.29,4.76,70.8,70.8,0,0,0-5.51,7.06A83.59,83.59,0,0,0,943,460.43a3.59,3.59,0,0,1-1,1.47l-.07.06h-.1a8.47,8.47,0,0,1-1.13.1,8.35,8.35,0,0,1-1.42-.17l-.16,0-.08-.14a1.26,1.26,0,0,1-.2-.59,5.24,5.24,0,0,1,.31-1.27c1-2.93,2.24-5.93,3.39-8.8l.73-1.72,3.93-10.73,0-.06a.13.13,0,0,0-.08,0c-1.55,0-4.29,4-5,5.13l-.09.13-.17,0-.57,0c-.23,0-.47,0-.7,0l-.52,0,.23-.47a22.51,22.51,0,0,1,2.26-3.45,17.85,17.85,0,0,1,3.4-3.49,16,16,0,0,1,3.47-2.07,2.86,2.86,0,0,1,1.11-.26l.54,0,.12,0,.08.07a2,2,0,0,1,.77,1.42,4,4,0,0,1-.07.85,10.47,10.47,0,0,1-.33,1.22c-.43,1.3-.89,2.6-1.38,3.88l-1.79,4.72c-.16.42-.32.84-.47,1.27Zm-12.44-4.91A20,20,0,0,1,931.08,456c-2.47,3.12-5.79,5.9-10,5.9a6.19,6.19,0,0,1-4.78-2.05c-1.5-1.65-1.92-4.14-2-6.29a19.29,19.29,0,0,1,1.13-6.55,18.36,18.36,0,0,1,3.3-6.16c.35-.42.69-.86,1-1.3A16.06,16.06,0,0,1,924,435.8a9.68,9.68,0,0,1,5.19-1.56,5.64,5.64,0,0,1,4.34,2c1.47,1.64,1.85,4.27,1.92,6.38Zm-32-4.93a3.19,3.19,0,0,0-.7.08,13.79,13.79,0,0,0-2.21,1.33,17.08,17.08,0,0,0-2.73,2.58l-.08.09-3,.63.55-.74a20.58,20.58,0,0,1,5.75-5.33c1.41-.85,3.47-1.95,5.16-1.95a2,2,0,0,1,1.42.46,1.64,1.64,0,0,1,.53,1.18c.05,1.55-1.1,4-1.77,5.42-.37.72-.71,1.53-1,2.28a83.25,83.25,0,0,1-4.12,8c-.54.93-1,1.9-1.53,2.86-.26.51-.52,1-.82,1.53a6,6,0,0,0-.92,2.31.26.26,0,0,0,.09.17.29.29,0,0,0,.23.09,2.83,2.83,0,0,0,1-.35,15.29,15.29,0,0,0,2.92-2.07,16.64,16.64,0,0,0,2.94-3.33l.11-.15h2.27l-.29.51a25.63,25.63,0,0,1-3,4,16,16,0,0,1-4.55,3.64,7.68,7.68,0,0,1-3.55,1.06,3.05,3.05,0,0,1-1.89-.51,1.76,1.76,0,0,1-.71-1.4c-.08-2.48,2.43-7.31,3.57-9.47l5.16-9.73a18.61,18.61,0,0,0,1.08-2.31,3.38,3.38,0,0,0,.17-.6,1.11,1.11,0,0,0-.08-.24Zm1.4-14.78a3,3,0,0,1,.95-2.25,3.27,3.27,0,0,1,2.36-1,3.22,3.22,0,0,1,2.23.85,2.81,2.81,0,0,1,1,2,3,3,0,0,1-3.51,3.28,3,3,0,0,1-2.1-.79,2.87,2.87,0,0,1-.92-2.12Zm-18.91,14.94h-1.59l-.94,0-2.23.07h-.81l0-.37a4.48,4.48,0,0,1,.56-1.77l.09-.19h.21c1.83,0,3.83,0,5.66-.18.3-.77.62-1.53,1-2.29.73-1.59,1.33-3.25,1.9-4.9a13.82,13.82,0,0,1,.69-1.75l.08-.18h.2c.6-.05,1.2-.07,1.79-.07a9.34,9.34,0,0,1,1.67.14l.24,0,.12.78v0c0,.83-2.43,6.33-2.81,7.21a8.36,8.36,0,0,0-.4,1.09,6.08,6.08,0,0,0,.68.06h.71l1.11,0,3.52-.07v.34a3.89,3.89,0,0,1-.33,1.87l-.08.17-.19,0c-1.17.11-2.37.13-3.54.13-.42,0-.91,0-1.33,0a13.61,13.61,0,0,0-1.74.24l-5.11,12.43c-1,2.2-2,4.51-2.88,6.75l0,.08.29,0a3.82,3.82,0,0,0,2-1,35.94,35.94,0,0,0,5.36-5.53l.18-.22.25.13a5.28,5.28,0,0,1,1.09.72l.26.22-.22.26a56.46,56.46,0,0,1-4.6,5.16,24.21,24.21,0,0,1-3.42,2.62,18,18,0,0,1-2.55,1.52,4.54,4.54,0,0,1-1.67.31,2.28,2.28,0,0,1-1.48-.42,1.59,1.59,0,0,1-.55-1.23c0-1,1.08-3.52,1.51-4.48l1.33-3,4.64-11.38c.46-1.12.89-2.26,1.28-3.41Zm-19,20.27c.24-.16.55-.43.66-.52a20,20,0,0,0,3.1-3.34,11.65,11.65,0,0,1,1-1.29l.13-.13,1.74.27-.23.43a25,25,0,0,1-5.34,6.45c-.85.78-2.29,2-3.51,2a4.82,4.82,0,0,1-1.26-.21l-.08,0-.07-.06a2.06,2.06,0,0,1-.75-1.39,13.09,13.09,0,0,1,1.26-4.8l3.92-9.33-1.26,1.4a104.08,104.08,0,0,1-8.16,8.51,41.08,41.08,0,0,1-7.46,5.35,4.58,4.58,0,0,1-2.08.55,1.44,1.44,0,0,1-1.05-.43,1.68,1.68,0,0,1-.45-1.15,4.82,4.82,0,0,1,.21-1.41,24.11,24.11,0,0,1,1.82-4.21L854.58,444l2.22-4.78,0,0a3.13,3.13,0,0,0,.54-1.21.43.43,0,0,0-.05-.15,13.59,13.59,0,0,0-2.69,2.26v0h0a24.5,24.5,0,0,0-2.38,2.17c-.36.4-.73.81-1.13,1.18l-.13.12-1.72-.34.21-.41a28.49,28.49,0,0,1,8.42-7.85,5.43,5.43,0,0,1,2.57-.77,2,2,0,0,1,1.38.54,1.72,1.72,0,0,1,.61,1.21,4.85,4.85,0,0,1-.56,2c-.17.31-.32.73-.46,1.06-1.62,3.83-3.63,7.7-5.54,11.39a72.14,72.14,0,0,0-3.47,7.42,7.45,7.45,0,0,0,1.77-1.17,63.15,63.15,0,0,0,6.49-6l1.5-1.53a55.11,55.11,0,0,0,6.12-7.19,57.68,57.68,0,0,0,4.06-7.45l.08-.17.18,0a13,13,0,0,1,1.65-.13,1.8,1.8,0,0,1,1.5.71l.11.15-.06.17c-.71,2.2-1.62,4.43-2.47,6.58l-5.81,14.8a7.81,7.81,0,0,0-.55,1.46Zm-29.69,0,.05.17a6.63,6.63,0,0,0,2.26-1.32,19.8,19.8,0,0,0,4.17-4.77l.07-.12.15,0a5.31,5.31,0,0,1,1.08-.14l.89.08-.23.45a16,16,0,0,1-2.68,3.89,29.45,29.45,0,0,1-3.16,3,18.87,18.87,0,0,1-3.77,2.18,6.21,6.21,0,0,1-2.37.5,1.63,1.63,0,0,1-1.14-.38,1.31,1.31,0,0,1-.42-1c-.06-1.82,4.23-11.52,5-13.38,1.15-2.66,2.21-5.38,3.19-8.11,1.37-3.78,2.8-7.78,4.5-11.42a33.74,33.74,0,0,0,2.24-6,1.57,1.57,0,0,0,.05-.37.86.86,0,0,0-.36-.6,9.32,9.32,0,0,0-2.76-.9l-.3-.07.12-1.51.3,0c2.07-.17,4.21-.33,6.3-.33h1.83l0,.79-1,3.2v0c-.22.48-.42,1.08-.61,1.58-.56,1.43-1.11,2.87-1.66,4.29l-4.22,11.27c-1.17,3.29-2.48,6.56-3.76,9.8l-1,2.78a21.73,21.73,0,0,1-1.81,4.16,6,6,0,0,0-1,2.35Zm-7.94-15.54A20,20,0,0,1,824.93,456c-2.47,3.12-5.8,5.9-10,5.9a6.19,6.19,0,0,1-4.78-2.05c-1.5-1.65-1.91-4.14-2-6.29a19,19,0,0,1,1.12-6.55,18.54,18.54,0,0,1,3.3-6.16c.35-.42.69-.86,1-1.3a16.06,16.06,0,0,1,4.26-3.79,9.71,9.71,0,0,1,5.19-1.56,5.64,5.64,0,0,1,4.34,2c1.47,1.64,1.85,4.27,1.92,6.38Zm-49.72,16.48a8.55,8.55,0,0,0,3.7,1.14l1.27,0a12.12,12.12,0,0,0,4.18-.58,7.44,7.44,0,0,0,3-1.53,12.16,12.16,0,0,0,2.27-3.51,6,6,0,0,0,.39-2.63,8.56,8.56,0,0,0-.19-1.68,21.52,21.52,0,0,0-1.09-3c-.61-1.38-1.31-2.73-2-4l-3.48-6.44a32.47,32.47,0,0,1-1.94-4.5,10.77,10.77,0,0,1-.54-3.23,9.17,9.17,0,0,1,1-4.69,10.6,10.6,0,0,1,3.21-3.58,13.45,13.45,0,0,1,3.74-2,16.8,16.8,0,0,1,4.83-.65,27.32,27.32,0,0,1,9.75,1.9l.23.09v.24a15.84,15.84,0,0,1-.4,3.37,31.18,31.18,0,0,1-1.07,3.53l-.09.22h-.23a5.86,5.86,0,0,1-1.19-.11l-.26-.05,0-.27a14.54,14.54,0,0,0-.93-4,4.47,4.47,0,0,0-1.88-2.19,6,6,0,0,0-3.35-.94,8,8,0,0,0-5.79,2,7.07,7.07,0,0,0-2,5.51,12.35,12.35,0,0,0,.73,3.75A25.41,25.41,0,0,0,792.7,434c.81,1.56,1.66,3.11,2.53,4.64a48.69,48.69,0,0,1,2.38,4.59,29,29,0,0,1,1.08,2.72,20.15,20.15,0,0,1,1,2.9,10.86,10.86,0,0,1,.25,2.12,8.74,8.74,0,0,1-3.33,7.51c-3.5,2.81-8,3.7-12.37,3.7a35,35,0,0,1-9.86-1.46l-.24-.07v-.44a12.39,12.39,0,0,1,.29-2.41c.21-1.19.28-2.66.38-3.87.05-.55.12-1.1.18-1.65l0-.3h.31a5.35,5.35,0,0,1,1.26.14l.24.06,0,.24a10.77,10.77,0,0,0,2.79,6.71Zm-19.39-39.85,0,.21-2.56,8-3,10.25a39.82,39.82,0,0,0-1.08,3.84,32,32,0,0,1-.92,3.49l-4.23,13.22c1.45-.83,4.76-4.41,5.47-5.18l.16-.17.22.09a2.45,2.45,0,0,1,1,.68l.16.2-.15.21a25.26,25.26,0,0,1-6.2,6.59c-1,.71-2.67,1.84-3.93,1.84a3.45,3.45,0,0,1-.84-.15l-.11,0-.07-.09a1.26,1.26,0,0,1-.3-.71,21,21,0,0,1,1-4.57c.38-1.27.76-2.56,1.11-3.85-.55.57-1.09,1.18-1.6,1.76a34,34,0,0,1-6.76,5.92,9.24,9.24,0,0,1-4.84,1.72,2.5,2.5,0,0,1-2.1-1,6.87,6.87,0,0,1-1.26-4.08,16.36,16.36,0,0,1,1.27-6.54,39.85,39.85,0,0,1,2.71-5.23,28,28,0,0,1,4.34-5.58,17.5,17.5,0,0,1,4.7-3.45,9.92,9.92,0,0,1,4.16-1.08,5.46,5.46,0,0,1,2.71.68,5,5,0,0,1,1.31,1.17l3.1-10.4c.24-.75.42-1.53.61-2.28,0-.17.07-.36.12-.54a11.76,11.76,0,0,0,.61-2.56.76.76,0,0,0-.33-.5,9.25,9.25,0,0,0-3-1.09l-1.06-.28.39-1.51h.27c1.93,0,5.74,0,7.55-.7h0l.5,0a5.21,5.21,0,0,1,1,.1l.34.07-.08.34c-.09.43-.18.89-.29,1.31Zm-45.72,30.33a15.4,15.4,0,0,0-.84,5.56,5,5,0,0,0,1.13,3.25,2.07,2.07,0,0,0,1.71.77,2.58,2.58,0,0,0,1.16-.25,8.5,8.5,0,0,0,2.05-1.36,14.71,14.71,0,0,0,1.77-2.09,11.16,11.16,0,0,0,1.46-2.88l.08-.23h.72a7.73,7.73,0,0,1,1,.06l.39.05-.1.38a14.82,14.82,0,0,1-4.91,7.16,8.09,8.09,0,0,1-5.36,2.21,4.33,4.33,0,0,1-3.38-1.66,9.17,9.17,0,0,1-1.94-5.78,17.07,17.07,0,0,1,.37-3.76,20.28,20.28,0,0,1,1.05-3.65,34.51,34.51,0,0,1,2.17-4.29l2.51-3.61,0,0,1.93-2a11.5,11.5,0,0,1,.86-.85,9.79,9.79,0,0,1,2.44-1.52,6.72,6.72,0,0,1,2.62-.51,4.39,4.39,0,0,1,3.21,1.41,5.09,5.09,0,0,1,1.47,3.53,7.33,7.33,0,0,1-.9,3.66,7.68,7.68,0,0,1-2.13,2.64l-2.8,1.75a20,20,0,0,1-2.58.84c-1.68.48-3.42.85-5.14,1.17ZM703.3,442l-2.9.1c-2.81,0-5.66-1.34-8-2.8a8.22,8.22,0,0,0-4.15-1.46,4.05,4.05,0,0,0-2.89,1.06,3.17,3.17,0,0,0-1,2.53,3.84,3.84,0,0,0,.51,1.64h.1a1.2,1.2,0,0,0,.22-.4,2.92,2.92,0,0,1,1-1.5,2.45,2.45,0,0,1,1.52-.49,2.26,2.26,0,0,1,1.67.73,4.2,4.2,0,0,1,.89,2.32v.07l0,.07a3.26,3.26,0,0,1-1.31,1.84,3.94,3.94,0,0,1-2.24.65,4,4,0,0,1-2.91-1.28,4.8,4.8,0,0,1-1.32-3.31,6.63,6.63,0,0,1,2.56-5.19,9.11,9.11,0,0,1,6.24-2.32,12.62,12.62,0,0,1,7,2.59c1,.67,1.93,1.35,2.92,2a11.72,11.72,0,0,0,1.44.87,3.36,3.36,0,0,0,1.11.32,1.44,1.44,0,0,0,.9-.36l.2-.44a7.45,7.45,0,0,1,.86-3,2.32,2.32,0,0,1,1.83-.82,2.65,2.65,0,0,1,1.73.66,2.12,2.12,0,0,1,.8,1.51,3.76,3.76,0,0,1-.63,2.28,19.45,19.45,0,0,1-3.62,3.4c-1,.8-1.89,1.74-2.78,2.6s-1.77,1.66-2.69,2.47L696.83,451q-3.06,2.94-6.37,5.58l.15.08,2.31,1.15a7.44,7.44,0,0,1,1,.57,10.59,10.59,0,0,1,1.86,2.35,25.07,25.07,0,0,1,2.22,5.06l1.87,5.44a21.26,21.26,0,0,0,1.06,2.07c.31.35.61.72.89,1.1a5.18,5.18,0,0,0,3.92,1.52,5.45,5.45,0,0,0,2.43-.41.47.47,0,0,0,.31-.47,1.59,1.59,0,0,0-.1-.46,5.39,5.39,0,0,0-1-.37,3.19,3.19,0,0,1-1.31-.66,2.32,2.32,0,0,1-.53-1.34,2.06,2.06,0,0,1,.76-1.6,2.87,2.87,0,0,1,1.89-.66,2.48,2.48,0,0,1,.84.18,2.93,2.93,0,0,1,1.5,1.09,3.69,3.69,0,0,1,.69,2.15,3.83,3.83,0,0,1-1.43,3.21,7.31,7.31,0,0,1-4.59,1.21,11.84,11.84,0,0,1-3.7-.44,10.9,10.9,0,0,1-3.59-2.37,15.81,15.81,0,0,1-2.87-3.82,34.55,34.55,0,0,1-1.74-4.72c-.49-1.47-1-3.27-1.66-4.66a9.28,9.28,0,0,0-2-2.9,1.9,1.9,0,0,0-1.2-.43c-.53,0-1.42.84-1.77,1.18a5.86,5.86,0,0,1-3.86,2,2.55,2.55,0,0,1-1.73-.7,2.31,2.31,0,0,1-.8-1.65,2.8,2.8,0,0,1,1.29-2.26,6.6,6.6,0,0,1,3.93-1,8.24,8.24,0,0,0,1.66-.1,19.09,19.09,0,0,0,3.61-2.7l9.79-8.55A23.89,23.89,0,0,0,703.3,442Zm-31.23-4.29a3.06,3.06,0,0,0-.7.08,13.79,13.79,0,0,0-2.21,1.33,16.73,16.73,0,0,0-2.74,2.58l-.08.09-3,.63.56-.74a20.54,20.54,0,0,1,5.74-5.33c1.41-.85,3.47-1.95,5.16-1.95a2,2,0,0,1,1.42.46,1.65,1.65,0,0,1,.54,1.18c.05,1.55-1.1,4-1.77,5.42-.38.72-.72,1.53-1,2.28a85.61,85.61,0,0,1-4.12,8c-.55.93-1.05,1.9-1.53,2.86-.26.51-.53,1-.82,1.53a5.86,5.86,0,0,0-.93,2.31.26.26,0,0,0,.09.17.3.3,0,0,0,.24.09,2.9,2.9,0,0,0,1-.35,15.55,15.55,0,0,0,2.91-2.07,17,17,0,0,0,3-3.33l.1-.15h2.27l-.29.51a25,25,0,0,1-2.95,4,15.89,15.89,0,0,1-4.55,3.64,7.68,7.68,0,0,1-3.54,1.06,3.08,3.08,0,0,1-1.9-.51,1.79,1.79,0,0,1-.71-1.4c-.08-2.48,2.43-7.31,3.57-9.47l5.16-9.73a18.68,18.68,0,0,0,1.09-2.31,2.67,2.67,0,0,0,.16-.6.69.69,0,0,0-.07-.24Zm1.39-14.78a3,3,0,0,1,1-2.25,3.25,3.25,0,0,1,2.36-1,3.22,3.22,0,0,1,2.23.85,2.76,2.76,0,0,1,1,2,3.46,3.46,0,0,1-1,2.58,3.52,3.52,0,0,1-2.47.7,3,3,0,0,1-2.1-.79,2.87,2.87,0,0,1-.92-2.12ZM630,438.06l-.17-.05a4.57,4.57,0,0,0-1.63.86,20.27,20.27,0,0,0-3.9,3.67c-.22.28-.45.54-.69.8l-.12.13-.16,0c-.45-.05-.89-.1-1.33-.17l-.51-.08.27-.44a15.26,15.26,0,0,1,2.07-2.72,32.42,32.42,0,0,1,3.35-3.07,16.89,16.89,0,0,1,3.58-2.1,4.88,4.88,0,0,1,1.81-.37A2.33,2.33,0,0,1,634,435a1.58,1.58,0,0,1,.65,1.15c0,1.3-3.1,7.38-3.74,8.63l-.5,1c1.09-1.17,2.15-2.37,3.19-3.57a55.35,55.35,0,0,1,5.44-5.28,10.13,10.13,0,0,1,3.15-1.78,9.44,9.44,0,0,1,2.95-.63,2.84,2.84,0,0,1,1.85.65,1.85,1.85,0,0,1,.6,1.36c.09,2.7-2.38,7.43-3.63,9.74l-.5.94,1.63-1.89c.69-.74,1.39-1.51,2.11-2.25a15.17,15.17,0,0,0,1.49-1.51,23.21,23.21,0,0,1,5.9-5.1,11.3,11.3,0,0,1,5-1.81,2.29,2.29,0,0,1,1.58.65,2.52,2.52,0,0,1,.74,1.76,5.2,5.2,0,0,1-.11,1.3,18.43,18.43,0,0,1-1,2.9,15.72,15.72,0,0,1-.75,1.4c-.68,1.26-1.37,2.52-2.06,3.77-.78,1.42-1.58,2.86-2.43,4.25l-1.61,2.51a14.34,14.34,0,0,1-1.87,2.73c-.6.58-1.77,1.8-1.77,2.68a10.88,10.88,0,0,0,1-.55,35.5,35.5,0,0,0,5.26-4l.14-.12,1.69.42-.24.4a16,16,0,0,1-5.27,5,13.13,13.13,0,0,1-6.78,2.36,2,2,0,0,1-1.48-.62l-.1-.1v-.13a1.78,1.78,0,0,1,.14-.83,15.48,15.48,0,0,1,1-1.79L651,450c1.16-1.88,2.33-3.77,3.45-5.69a30.32,30.32,0,0,0,1.68-3.13,19.79,19.79,0,0,0,1.16-3.09.49.49,0,0,0-.15-.36.47.47,0,0,0-.35-.14,2.64,2.64,0,0,0-1.06.34,18.69,18.69,0,0,0-4.37,3.56c-2.59,2.68-5.2,5.41-7.61,8.23a59.36,59.36,0,0,0-7,10.08,7.81,7.81,0,0,1-1.62,2.12l-.08.08H635a10.84,10.84,0,0,1-1.51.1,7.27,7.27,0,0,1-1.91-.21l-.29-.08,0-.3a6.65,6.65,0,0,1,.94-2c1.75-2.8,3.37-5.77,4.95-8.66s3.1-5.6,4.45-8.43a18.86,18.86,0,0,0,1.29-3.24,1.73,1.73,0,0,0,.07-.6,1,1,0,0,0-.29-.7.33.33,0,0,0-.25-.15,3.89,3.89,0,0,0-1.43.53,19.29,19.29,0,0,0-4.17,3.54q-1.86,1.9-3.69,3.84c-.53.54-1.14,1.15-1.61,1.74a92.36,92.36,0,0,0-5.93,8.1,22.11,22.11,0,0,1-1.24,2.15c-.51.86-1,1.76-1.51,2.65v0a6.83,6.83,0,0,1-1.35,1.49l-.08.07h-.11a13,13,0,0,1-1.53.1,3.91,3.91,0,0,1-1-.13l-.18-.05-.23-.68V461a2.94,2.94,0,0,1,.52-1.49c.49-.78,1-1.83,1.41-2.65l3.86-7.35,5.71-11.15a1.5,1.5,0,0,0,.06-.33Zm-13.12,4.55a20,20,0,0,1-4.4,13.43c-2.48,3.12-5.8,5.9-10,5.9a6.18,6.18,0,0,1-4.78-2.05c-1.5-1.65-1.92-4.14-2-6.29a19.29,19.29,0,0,1,1.13-6.55,18.52,18.52,0,0,1,3.29-6.16c.36-.42.7-.85,1-1.3a16.19,16.19,0,0,1,4.25-3.79,9.72,9.72,0,0,1,5.2-1.56,5.62,5.62,0,0,1,4.33,2c1.48,1.64,1.85,4.27,1.92,6.38Zm-30.5-4.77h-1.59l-.93,0-2.24.07h-.8l0-.37a4.82,4.82,0,0,1,.56-1.77l.1-.19h.2c1.83,0,3.83,0,5.66-.18.31-.77.63-1.53,1-2.29.73-1.59,1.33-3.26,1.9-4.9a13.82,13.82,0,0,1,.69-1.75l.09-.18h.19c.6-.05,1.2-.07,1.8-.07a9.3,9.3,0,0,1,1.66.14l.25,0,.11.78v0c0,.83-2.42,6.33-2.81,7.21-.15.35-.28.72-.4,1.09a6.24,6.24,0,0,0,.69.06h.7l1.12,0,3.51-.07v.34a3.88,3.88,0,0,1-.32,1.87l-.09.17-.19,0c-1.16.11-2.36.13-3.53.13-.43,0-.92,0-1.34,0a13.47,13.47,0,0,0-1.73.24l-5.12,12.43c-1,2.2-2,4.51-2.87,6.75l0,.08.28,0a3.89,3.89,0,0,0,2-1A36.89,36.89,0,0,0,590.3,451l.17-.22.26.13a5.21,5.21,0,0,1,1.08.72l.26.22-.22.26a56.36,56.36,0,0,1-4.59,5.16,24.89,24.89,0,0,1-3.43,2.62,17.4,17.4,0,0,1-2.54,1.52,4.59,4.59,0,0,1-1.68.31,2.29,2.29,0,0,1-1.48-.42,1.63,1.63,0,0,1-.55-1.23c0-1,1.08-3.52,1.51-4.48l1.34-3,4.63-11.38c.46-1.12.89-2.26,1.28-3.41ZM571.27,454a6.37,6.37,0,0,1-1,3.52,8.39,8.39,0,0,1-3.37,3,10,10,0,0,1-4.76,1.22,7.31,7.31,0,0,1-4.51-1.22,3.89,3.89,0,0,1-1.63-3,2.47,2.47,0,0,1,.62-1.8,2.31,2.31,0,0,1,1.76-.7c1.56,0,2.55,1.36,3.17,2.65a4.37,4.37,0,0,0,1,1.48,1.59,1.59,0,0,0,1,.33A3.46,3.46,0,0,0,567,455.6a15.91,15.91,0,0,0-1.28-4.51,22.93,22.93,0,0,1-1.9-7.1,10.81,10.81,0,0,1,2-6.75c1.6-2.28,4.17-3,6.85-3a5.07,5.07,0,0,1,3.34,1.07,3.57,3.57,0,0,1,1.37,2.67,2.49,2.49,0,0,1-.6,1.81,2,2,0,0,1-1.51.71,4,4,0,0,1-3-1.48,10,10,0,0,0-1.55-1.5,2.93,2.93,0,0,0-1.14-.17,1.85,1.85,0,0,0-1.41.66,2.12,2.12,0,0,0-.58,1.61,24.7,24.7,0,0,0,1.91,7.08,22.1,22.1,0,0,1,1.84,7.31Zm-38.77,3.86a7.73,7.73,0,0,0,1.78-1.17,63,63,0,0,0,6.48-6l1.51-1.53a56.7,56.7,0,0,0,6.12-7.19,57.61,57.61,0,0,0,4.05-7.45l.08-.17.18,0a13,13,0,0,1,1.65-.13,1.78,1.78,0,0,1,1.5.71l.11.14-.06.18c-.71,2.2-1.62,4.43-2.47,6.58l-5.81,14.8a8.58,8.58,0,0,0-.55,1.46,7.3,7.3,0,0,0,.66-.52,20,20,0,0,0,3.1-3.34,11.73,11.73,0,0,1,1-1.29l.12-.13,1.74.27-.22.43a25.29,25.29,0,0,1-5.35,6.45c-.84.78-2.29,2-3.51,2a5,5,0,0,1-1.26-.21l-.08,0-.06-.06a2,2,0,0,1-.75-1.39,13.08,13.08,0,0,1,1.25-4.8l3.92-9.33c-.42.46-.84.93-1.25,1.4a104.21,104.21,0,0,1-8.17,8.51,40.67,40.67,0,0,1-7.45,5.35,4.58,4.58,0,0,1-2.08.55,1.46,1.46,0,0,1-1.06-.43,1.62,1.62,0,0,1-.44-1.15,4.5,4.5,0,0,1,.2-1.41,24.89,24.89,0,0,1,1.82-4.21L534.68,444l2.23-4.78v0a3.16,3.16,0,0,0,.55-1.21,1.14,1.14,0,0,0-.06-.15,13.53,13.53,0,0,0-2.68,2.26l0,0h0a24.39,24.39,0,0,0-2.37,2.17c-.36.4-.74.81-1.13,1.18l-.13.12-1.73-.34.22-.41a22,22,0,0,1,3.1-3.68A22.8,22.8,0,0,1,538,435a5.49,5.49,0,0,1,2.57-.77,2,2,0,0,1,1.38.54,1.73,1.73,0,0,1,.62,1.21,4.87,4.87,0,0,1-.57,2c-.16.31-.32.73-.45,1.06-1.62,3.83-3.64,7.7-5.55,11.39a74.31,74.31,0,0,0-3.47,7.42Zm-38.4-20.65-1.33,3.41a20.25,20.25,0,0,0-.64,3.19A20.56,20.56,0,0,0,492,447a15.46,15.46,0,0,0,.63,4,7.77,7.77,0,0,0,1.38,2.81,20.85,20.85,0,0,0,3.89,3.44,16.44,16.44,0,0,0,4.63,2.11,22,22,0,0,0,6,.75,15.21,15.21,0,0,0,5.72-.93,11.49,11.49,0,0,0,3.85-2.65,12.48,12.48,0,0,0,1-1.37c.7-1,1.38-2.05,2.05-3.09l.14-.21,1.72.48-1.76,5.77c-.21.67-.43,1.41-.7,2.06l-.06.14-.14.06a24.92,24.92,0,0,1-4.58,1.13,57.31,57.31,0,0,1-8.78.68,33.27,33.27,0,0,1-9.74-1.13,21.05,21.05,0,0,1-6.82-4,13.68,13.68,0,0,1-3.72-5.17,16.19,16.19,0,0,1-1.41-5.79,16,16,0,0,1,1.09-6.89,31,31,0,0,1,6-9.46,37.3,37.3,0,0,1,8.2-6.21,53.12,53.12,0,0,1,8-3.66,27.65,27.65,0,0,1,9.57-1.69l6-.07a20.06,20.06,0,0,1,4.7.61l.29.07,0,.29a31.63,31.63,0,0,1-.61,3.61c-.26,1.22-.53,2.48-.9,3.68l-.08.26-1.56-.11,0-1.13c0-.95-.15-3.32-.85-4.06s-2.28-.75-3.15-.75l-1.64,0h-1.28l-1.17,0a18.64,18.64,0,0,0-5.29.86,32.09,32.09,0,0,0-7,3.27,38.63,38.63,0,0,0-5.57,4.5,17.31,17.31,0,0,0-1.92,2.18c-1,1.29-2,2.63-2.95,4l-1.08,1.88Z" fill="#29ae89" fill-rule="evenodd"/><path d="M257,400.4h63.16v63.16H257V400.4Zm73.3,0h63.16v63.16H330.3V400.4Zm73.31,0h63.15v63.16H403.61V400.4ZM257,222.19h63.16v63.16H257V222.19Zm73.3,0h63.16v63.16H330.3V222.19Zm73.31,0h63.15v63.16H403.61V222.19ZM257,295.46h63.16V390H257V295.46Zm90.06,32.6H376.7V357.7H347.06V328.06Z" fill="#29ae89" fill-rule="evenodd"/></g><g id="BOUNDING_RECT_1250x703_" data-name="BOUNDING RECT (1250x703)"><rect width="1250" height="703" fill="none"/></g></svg>