<?xml version="1.0" encoding="UTF-8"?><svg id="LOGOS" xmlns="http://www.w3.org/2000/svg" viewBox="0 0 1250 703"><defs><style>.cls-1{fill:#76bc21;}</style></defs><g id="Layer_4"><g id="_圖層_2"><g id="Layer_1"><polygon class="cls-1" points="1028.16298 402.27474 1028.16298 272.58188 993.47127 272.58188 993.47127 430.39911 1080 430.39911 1080 402.27474 1028.16298 402.27474"/><path class="cls-1" d="m876.91313,272.58188l-60.7105,157.81723h36.79726l11.48032-28.92648h65.1723l10.82865,28.92648h36.99784l-59.25662-157.81723h-41.30924Zm-4.21111,104.32581l24.26413-71.13807,23.66256,71.13807h-47.92669Z"/><path class="cls-1" d="m398.49834,267.0673c-24.18937-.09829-47.44303,9.34006-64.7211,26.26945-14.83368,14.49916-23.13918,34.40339-23.01083,55.14579-.43334,23.3757,8.46031,45.96161,24.71534,62.76594,16.951,16.30586,39.70224,25.18263,63.21713,24.66521,51.63651,0,87.73194-35.99516,87.73194-87.5314.12421-20.73165-8.16004-40.62833-22.96071-55.14579-17.36517-16.94003-40.71308-26.34405-64.97176-26.16919Zm38.80257,120.71914c-19.69121,19.57795-51.497,19.57795-71.1882,0-10.20411-10.45389-15.81599-24.54675-15.5912-39.15351,0-26.11905,23.46203-48.17736,51.23546-48.17736,13.88321.08155,27.17546,5.62899,36.9978,15.44082,8.91513,8.5769,14.0246,20.36657,14.18752,32.73655.23385,14.61807-5.39981,28.72023-15.64136,39.15351Z"/><path class="cls-1" d="m193.30587,293.78794c-15.02946,15.51519-23.38032,36.30234-23.2615,57.90307-.76924,22.66042,8.49392,44.5068,25.31693,59.70786,16.23115,14.96936,37.47751,23.32126,59.55745,23.41188,11.57515-.40197,23.0135-2.6355,33.8896-6.61749v-38.70231c-9.37944,7.5337-21.00809,11.71578-33.03734,11.88142-13.06941.32991-25.72012-4.62195-35.09277-13.73631-9.19908-9.57314-14.19763-22.42141-13.88671-35.69437,0-29.17713,20.40394-50.13254,48.57843-50.13254,12.28516-.06776,24.20562,4.17181,33.68906,11.98168v-38.50179c-11.14238-4.57008-23.05034-6.9857-35.09277-7.11882-22.82078.14001-44.64732,9.35766-60.66037,25.61773Z"/><path class="cls-1" d="m814.49814,287.12031c-9.57533-9.52518-24.21402-14.38804-43.4649-14.38804h-61.91371v157.66683h34.69171v-55.14579h28.77606c36.74716,0,54.59437-17.09519,54.59437-52.2381.7681-13.18332-3.80339-26.1208-12.68353-35.8949Zm-30.07952,55.14579c-7.01856,7.01855-18.34853,7.01855-29.32753,7.01855h-11.5305v-50.13254h11.5305c10.92889,0,22.20871,0,29.17713,6.96842,4.486,5.07336,6.72834,11.74603,6.21642,18.49891.45519,6.29611-1.64046,12.5108-5.81539,17.24559l-.25064.40106Z"/><polygon class="cls-1" points="634.12126 272.58188 595.41893 368.88648 558.87231 272.58188 522.7769 272.58188 496.00611 430.39911 530.29678 430.39911 545.888 321.51123 589.3529 430.39911 600.83326 430.39911 646.40371 323.06534 659.93952 430.39911 694.48083 430.39911 670.61774 272.58188 634.12126 272.58188"/></g></g></g></svg>