<svg id="LOGO" xmlns="http://www.w3.org/2000/svg" viewBox="0 0 1250 703"><defs><style>.cls-1{fill:#0071ce;}.cls-2{fill:#fff;}.cls-3{fill:#1c1c1a;}</style></defs><title>connect-tech-logo</title><polygon class="cls-1" points="321.461 277.18 323.368 277.375 327.154 277.927 329.019 278.298 330.884 278.694 332.717 279.13 334.563 279.598 336.337 280.137 338.118 280.702 339.889 281.326 341.65 281.976 343.343 282.659 345.059 283.38 346.723 284.16 348.396 284.972 350.037 285.824 351.649 286.682 353.225 287.585 354.775 288.553 356.296 289.548 357.817 290.594 359.285 291.627 360.761 292.739 362.174 293.863 363.588 295.033 364.94 296.203 366.298 297.431 367.598 298.692 368.858 299.972 370.113 301.291 371.328 302.617 372.505 304.008 373.668 305.386 375.865 308.278 376.917 309.734 377.925 311.268 378.887 312.788 379.823 314.348 380.719 315.927 381.587 317.513 382.412 319.138 383.182 320.769 383.943 322.446 384.648 324.142 385.301 325.832 385.912 327.554 386.513 329.302 387.043 331.096 387.53 332.864 387.976 334.658 388.369 336.484 388.739 338.304 389.064 340.162 389.298 342.008 389.539 343.912 389.701 345.771 389.812 347.695 389.896 349.619 389.929 351.542 389.929 350.795 389.896 352.732 389.812 354.642 389.701 356.559 389.539 358.451 389.298 360.309 389.064 362.188 388.739 364.053 388.369 365.853 387.976 367.692 387.53 369.493 387.043 371.28 386.513 373.022 385.912 374.783 385.301 376.505 384.648 378.214 383.943 379.904 382.412 383.238 381.587 384.856 380.719 386.449 379.823 388.041 378.887 389.575 377.925 391.109 376.917 392.603 375.865 394.072 374.763 395.547 373.668 396.958 372.505 398.368 371.328 399.713 370.113 401.091 368.858 402.384 367.598 403.678 366.298 404.912 363.588 407.35 362.174 408.506 360.761 409.605 359.285 410.71 357.817 411.788 356.296 412.796 354.775 413.79 353.225 414.752 351.649 415.649 350.037 416.552 348.396 417.365 346.723 418.19 345.059 418.951 343.343 419.691 341.65 420.367 339.889 421.011 338.118 421.641 336.337 422.207 334.563 422.74 332.717 423.214 330.884 423.643 329.019 424.039 327.154 424.397 325.266 424.722 323.368 424.969 321.461 425.164 319.531 425.333 317.584 425.482 315.638 425.534 313.662 425.567 312.346 425.573 203.126 425.573 202.06 425.573 200.055 425.573 198.297 425.573 196.503 425.573 194.807 425.573 194.04 425.573 190.281 425.28 186.93 424.8 185.058 424.397 183.226 423.987 181.386 423.506 179.603 422.961 177.831 422.395 176.044 421.797 174.302 421.128 172.613 420.439 170.89 419.718 169.214 418.951 167.553 418.132 165.912 417.287 164.307 416.422 162.718 415.513 161.168 414.557 159.647 413.563 158.113 412.516 156.654 411.47 155.179 410.359 153.759 409.235 152.352 408.078 151.003 406.895 149.648 405.679 148.345 404.399 147.078 403.132 145.833 401.8 144.621 400.474 143.435 399.096 142.278 397.705 140.078 394.832 139.032 393.338 138.005 391.843 137.053 390.309 136.127 388.769 135.227 387.183 134.35 385.578 133.521 383.96 132.767 382.309 131.997 380.658 131.292 378.949 130.642 377.252 130.018 375.517 129.427 373.762 128.893 372.008 128.409 370.24 127.958 368.427 127.564 366.627 127.197 364.774 126.885 362.915 126.635 361.044 126.411 359.185 126.242 357.294 126.131 355.383 126.04 353.46 126.018 351.542 126.018 352.309 126.04 350.385 126.131 348.462 126.242 346.544 126.411 344.647 126.635 342.782 126.885 340.923 127.197 339.051 127.564 337.238 127.958 335.405 128.409 333.605 128.893 331.824 129.427 330.063 130.018 328.302 130.642 326.605 131.292 324.889 131.997 323.213 133.521 319.879 134.35 318.26 135.227 316.649 136.127 315.076 137.053 313.523 138.005 312.002 139.032 310.507 140.078 309.038 141.177 307.556 142.278 306.146 143.435 304.736 144.621 303.371 145.833 302.013 147.078 300.726 148.345 299.426 149.648 298.185 152.352 295.754 153.759 294.597 155.179 293.486 156.654 292.394 158.113 291.328 159.647 290.302 161.168 289.314 162.718 288.358 164.307 287.449 165.912 286.551 167.553 285.72 169.214 284.914 170.89 284.16 172.613 283.406 174.302 282.736 176.044 282.087 177.831 281.469 179.603 280.891 181.386 280.358 183.226 279.883 185.058 279.454 186.93 279.064 188.776 278.694 190.68 278.395 192.552 278.057 194.515 277.765 196.338 277.524 198.128 277.316 200.325 277.141 321.461 277.18"/><polygon class="cls-2" points="238.175 329.4 212.02 329.4 211.938 291.244 301.249 291.244 301.346 329.4 300.979 329.4 275.194 329.4 275.194 411.282 238.923 411.282 238.932 409.787 238.932 329.4 238.175 329.4 238.175 329.4"/><polygon class="cls-2" points="305.843 411.282 307.472 411.282 309.061 411.243 310.741 411.171 314.136 410.957 317.474 410.586 320.739 410.073 323.963 409.43 327.118 408.65 330.205 407.714 333.231 406.654 336.162 405.478 339.041 404.178 341.836 402.761 344.529 401.24 347.145 399.609 349.66 397.848 352.055 396.015 354.372 394.072 356.588 392.031 358.675 389.893 360.637 387.69 362.516 385.357 364.231 382.991 365.836 380.548 367.308 377.98 368.637 375.4 369.248 374.075 369.817 372.749 370.356 371.397 370.857 370.006 371.348 368.622 371.77 367.238 372.173 365.795 372.505 364.385 372.817 362.948 373.096 361.505 373.317 360.036 373.522 358.568 373.665 357.066 373.772 355.578 373.83 354.083 373.856 352.543 373.856 352.179 336.867 352.179 336.844 353.304 336.698 354.382 336.503 355.474 336.24 356.559 335.902 357.606 335.489 358.626 334.999 359.633 334.465 360.621 333.848 361.59 333.169 362.513 332.431 363.41 331.642 364.3 330.764 365.145 329.868 365.964 328.909 366.763 327.888 367.517 326.816 368.225 325.718 368.927 324.548 369.551 323.368 370.188 322.124 370.753 320.831 371.241 319.498 371.735 318.14 372.17 316.769 372.547 315.342 372.879 313.876 373.19 312.417 373.425 310.887 373.613 309.366 373.762 307.579 373.749 305.792 373.749 303.419 373.749 300.898 373.749 287.549 373.749 287.549 375.153 287.555 411.282 305.843 411.282"/><polygon class="cls-2" points="200.422 411.269 198.895 411.243 197.374 411.171 195.873 411.1 194.371 410.957 191.441 410.56 188.529 410.047 185.643 409.377 182.852 408.572 180.113 407.616 177.432 406.544 174.803 405.348 172.271 404.009 169.805 402.521 167.414 400.987 165.09 399.317 162.864 397.517 160.713 395.612 158.656 393.63 156.703 391.557 154.841 389.354 153.096 387.079 151.458 384.726 149.931 382.283 148.482 379.761 147.182 377.175 145.999 374.484 144.953 371.767 144.017 368.96 143.23 366.113 142.561 363.208 142.041 360.231 141.684 357.216 141.463 354.161 141.404 352.608 141.378 351.048 141.378 351.815 141.404 350.262 141.463 348.702 141.684 345.641 142.041 342.632 142.561 339.701 143.23 336.75 144.017 333.904 144.953 331.122 145.999 328.386 147.182 325.708 148.482 323.115 149.931 320.607 151.458 318.176 153.096 315.81 154.841 313.523 156.703 311.345 158.656 309.246 160.713 307.284 162.864 305.379 165.09 303.566 167.414 301.902 169.805 300.323 172.271 298.893 174.803 297.561 177.432 296.339 180.113 295.267 182.852 294.344 185.643 293.525 188.529 292.836 191.441 292.336 194.371 291.946 195.873 291.783 197.374 291.705 198.895 291.647 200.422 291.627 200.422 329.4 200.055 329.4 198.807 329.413 197.595 329.51 196.406 329.634 195.22 329.848 194.066 330.095 192.929 330.42 191.837 330.739 190.725 331.129 189.689 331.583 188.652 332.11 187.658 332.636 186.674 333.215 185.731 333.839 184.837 334.489 183.947 335.21 183.138 335.944 182.342 336.737 181.581 337.563 180.88 338.408 180.223 339.265 179.603 340.169 179.008 341.118 178.472 342.099 178.013 343.08 177.571 344.107 177.204 345.154 176.889 346.2 176.603 347.305 176.408 348.403 176.239 349.514 176.155 350.658 176.122 351.815 176.155 352.933 176.239 354.083 176.408 355.169 176.603 356.247 176.889 357.32 177.204 358.366 177.571 359.38 178.013 360.407 178.472 361.362 179.008 362.305 179.603 363.253 180.223 364.17 180.88 365.002 181.581 365.847 182.342 366.646 183.138 367.413 183.947 368.134 184.837 368.836 185.731 369.493 186.674 370.11 187.658 370.676 188.652 371.221 189.689 371.702 190.725 372.151 191.837 372.547 192.929 372.879 194.066 373.171 195.22 373.425 196.406 373.613 197.595 373.762 198.807 373.854 200.055 373.867 200.422 373.867 226.591 373.867 226.591 374.601 226.591 410.515 226.591 411.314 200.955 411.282 200.422 411.269 200.422 411.269"/><path class="cls-2" d="M334.014,301.688a17.164,17.164,0,1,1-17.245,17.157,16.826,16.826,0,0,1,17.245-17.157"/><path class="cls-3" d="M491.437,285.213v20.829h-1.754q-1.941-8.178-7.227-12.517a18.41,18.41,0,0,0-12-4.354,17.671,17.671,0,0,0-10.288,3.236,18.84,18.84,0,0,0-6.837,8.449,38.45,38.45,0,0,0-2.778,14.876,49.6,49.6,0,0,0,2.031,14.675,19.518,19.518,0,0,0,6.356,10.015c2.888,2.249,6.629,3.386,11.23,3.386a21.859,21.859,0,0,0,10.353-2.476,36.03,36.03,0,0,0,9.924-8.546v5.167a32.684,32.684,0,0,1-10.509,7.662,31.777,31.777,0,0,1-12.751,2.372,36.638,36.638,0,0,1-17.047-3.854,27.3,27.3,0,0,1-11.5-11.061,31.006,31.006,0,0,1-4.043-15.364,31.916,31.916,0,0,1,4.491-16.3,31.58,31.58,0,0,1,12.1-11.938,32.567,32.567,0,0,1,16.189-4.257,36.666,36.666,0,0,1,13.336,2.742,20.671,20.671,0,0,0,5.177,1.593,3.345,3.345,0,0,0,2.453-1.04,5.677,5.677,0,0,0,1.346-3.295Z"/><path class="cls-3" d="M518.951,303.989a19.126,19.126,0,0,1,10.035,2.788,17.664,17.664,0,0,1,7.045,7.916,26.082,26.082,0,0,1,2.418,11.236q0,8.813-4.469,14.74-5.391,7.166-14.9,7.162-9.319,0-14.349-6.544a24.174,24.174,0,0,1-5.05-15.182,24.5,24.5,0,0,1,5.154-15.507Q509.986,303.989,518.951,303.989Zm.2,3.041a5.072,5.072,0,0,0-3.847,1.7q-1.614,1.716-2.122,6.753t-.51,14.012a60.3,60.3,0,0,0,.624,8.865,8.6,8.6,0,0,0,2.073,4.8,5.086,5.086,0,0,0,6.908.533,7.53,7.53,0,0,0,2.288-4.218q.877-4.221.884-17.041c0-5.017-.28-8.481-.845-10.366a7.906,7.906,0,0,0-2.457-4.107A4.6,4.6,0,0,0,519.156,307.03Z"/><path class="cls-3" d="M561.689,305.282V310.6a24.335,24.335,0,0,1,6.086-5.037,13.041,13.041,0,0,1,6.272-1.572,9.916,9.916,0,0,1,6.655,2.235,10.706,10.706,0,0,1,3.529,5.563q.713,2.535.718,9.716v16.144c0,3.2.283,5.18.855,5.966s1.79,1.274,3.617,1.489v1.521H568.452V345.1a4.456,4.456,0,0,0,3.389-1.957c.477-.74.724-2.573.724-5.5V319.216a29.463,29.463,0,0,0-.409-6.434,3.992,3.992,0,0,0-1.339-2.06,3.291,3.291,0,0,0-2.086-.735c-2.528,0-4.868,1.8-7.042,5.394v22.266c0,3.113.293,5.069.861,5.888a4.508,4.508,0,0,0,3.243,1.567v1.521H544.815V345.1a5.212,5.212,0,0,0,3.733-1.69c.507-.65.751-2.567.751-5.765v-23.4c0-3.171-.28-5.147-.865-5.921-.565-.773-1.787-1.28-3.619-1.52v-1.521Z"/><path class="cls-3" d="M612.06,305.282V310.6a24.283,24.283,0,0,1,6.086-5.037,13.015,13.015,0,0,1,6.272-1.572,9.916,9.916,0,0,1,6.655,2.235,10.813,10.813,0,0,1,3.536,5.563q.7,2.535.7,9.716v16.144c0,3.2.287,5.18.865,5.966s1.8,1.274,3.627,1.489v1.521H618.816V345.1a4.445,4.445,0,0,0,3.4-1.957c.478-.74.708-2.573.708-5.5V319.216a29.616,29.616,0,0,0-.4-6.434,3.887,3.887,0,0,0-1.332-2.06,3.314,3.314,0,0,0-2.09-.735c-2.524,0-4.858,1.8-7.035,5.394v22.266c0,3.113.29,5.069.871,5.888a4.437,4.437,0,0,0,3.233,1.567v1.521H595.192V345.1a5.192,5.192,0,0,0,3.721-1.69c.507-.65.76-2.567.76-5.765v-23.4q0-4.757-.871-5.921c-.578-.773-1.774-1.28-3.61-1.52v-1.521Z"/><path class="cls-3" d="M680.515,324.357H657.869q.39,8.286,4.374,13.089a9.192,9.192,0,0,0,7.324,3.7,8.338,8.338,0,0,0,4.81-1.482,18.852,18.852,0,0,0,4.634-5.349l1.5.969c-2.239,4.575-4.728,7.805-7.425,9.7a16.1,16.1,0,0,1-9.421,2.846q-9.207,0-13.924-7.071-3.812-5.722-3.808-14.174,0-10.344,5.6-16.475,5.582-6.112,13.1-6.122a14.177,14.177,0,0,1,10.893,5.134Q680.148,314.25,680.515,324.357Zm-10.873-2.893q0-7.125-.77-9.774a7.9,7.9,0,0,0-2.392-4.023,3.624,3.624,0,0,0-2.45-.8,4.287,4.287,0,0,0-3.724,2.255c-1.725,2.632-2.6,6.226-2.6,10.788v1.553Z"/><path class="cls-3" d="M719.334,335.906l1.387,1.052a20.726,20.726,0,0,1-7.279,8.189,17.321,17.321,0,0,1-9.241,2.684A15.987,15.987,0,0,1,691,341.6a23.463,23.463,0,0,1-4.949-15.013,25.21,25.21,0,0,1,4.507-14.857,17.3,17.3,0,0,1,14.971-7.74q6.4,0,10.191,3.223,3.766,3.218,3.763,7.207a5.207,5.207,0,0,1-5.522,5.525,5.759,5.759,0,0,1-4.3-1.736c-1.137-1.143-1.832-3.21-2.092-6.174a6.7,6.7,0,0,0-1.287-3.886,3.1,3.1,0,0,0-2.389-1.118,4.325,4.325,0,0,0-3.616,2.255c-1.534,2.268-2.3,5.765-2.3,10.451a33.8,33.8,0,0,0,1.862,11.178,17.005,17.005,0,0,0,5.07,7.942,8.943,8.943,0,0,0,5.732,1.911,8.788,8.788,0,0,0,4.107-1.014A19.177,19.177,0,0,0,719.334,335.906Z"/><path class="cls-3" d="M742.279,290.081v15.2h9.807v4.335h-9.807v25.554a18.882,18.882,0,0,0,.344,4.627,3.151,3.151,0,0,0,1.177,1.683,2.52,2.52,0,0,0,1.54.651c1.9,0,3.714-1.463,5.42-4.407l1.326.975c-2.379,5.674-6.265,8.52-11.614,8.52a10.315,10.315,0,0,1-6.665-2.183,9.652,9.652,0,0,1-3.46-4.9c-.3-.994-.449-3.724-.449-8.156V309.617H724.51v-1.566A56.508,56.508,0,0,0,734,299.777a50.884,50.884,0,0,0,6.827-9.7Z"/><path class="cls-3" d="M831.218,286.577V302.76H829.7a25.323,25.323,0,0,0-3.149-8.046,12.079,12.079,0,0,0-4.763-3.912,15.23,15.23,0,0,0-5.915-.8H811.39V336.36c0,3.107.169,5.044.5,5.824a4.636,4.636,0,0,0,1.973,2.047,7.864,7.864,0,0,0,3.99.871h1.966v1.521H788.51V345.1H790.5a8.145,8.145,0,0,0,4.175-.949,4.294,4.294,0,0,0,1.8-2.145c.322-.721.485-2.593.485-5.648V290h-4.332q-6.078,0-8.81,2.561-3.859,3.577-4.867,10.2h-1.671V286.577Z"/><path class="cls-3" d="M864.143,324.357H841.5q.4,8.286,4.371,13.089a9.215,9.215,0,0,0,7.331,3.7,8.325,8.325,0,0,0,4.806-1.482,18.786,18.786,0,0,0,4.627-5.349l1.5.969q-3.354,6.863-7.422,9.7a16.075,16.075,0,0,1-9.411,2.846q-9.2,0-13.934-7.071-3.8-5.722-3.8-14.174,0-10.344,5.59-16.475,5.6-6.112,13.115-6.122a14.231,14.231,0,0,1,10.9,5.134Q863.789,314.25,864.143,324.357Zm-10.86-2.893q0-7.125-.773-9.774a7.911,7.911,0,0,0-2.386-4.023,3.646,3.646,0,0,0-2.456-.8,4.293,4.293,0,0,0-3.721,2.255q-2.6,3.948-2.593,10.788v1.553Z"/><path class="cls-3" d="M902.978,335.906l1.365,1.052a20.651,20.651,0,0,1-7.256,8.189,17.378,17.378,0,0,1-9.255,2.684,15.989,15.989,0,0,1-13.193-6.232,23.455,23.455,0,0,1-4.946-15.013,25.25,25.25,0,0,1,4.5-14.857,17.307,17.307,0,0,1,14.98-7.74q6.41,0,10.178,3.223t3.776,7.207a5.215,5.215,0,0,1-5.518,5.525,5.759,5.759,0,0,1-4.306-1.736c-1.134-1.143-1.832-3.21-2.089-6.174a6.744,6.744,0,0,0-1.29-3.886,3.1,3.1,0,0,0-2.382-1.118,4.328,4.328,0,0,0-3.627,2.255c-1.537,2.268-2.287,5.765-2.287,10.451a33.886,33.886,0,0,0,1.845,11.178,17.12,17.12,0,0,0,5.076,7.942,8.945,8.945,0,0,0,5.733,1.911,8.77,8.77,0,0,0,4.107-1.014A19.165,19.165,0,0,0,902.978,335.906Z"/><path class="cls-3" d="M926.449,286.577v23.982a25.32,25.32,0,0,1,6.233-5.082,12.416,12.416,0,0,1,5.888-1.488,10.235,10.235,0,0,1,6.642,2.209,10.525,10.525,0,0,1,3.669,5.2q.906,3,.9,10.087v16.163c0,3.178.306,5.167.89,5.953s1.794,1.281,3.595,1.5v1.521h-20.96V345.1a4.775,4.775,0,0,0,3.295-1.788c.539-.773.8-2.658.8-5.667V319.2a30.422,30.422,0,0,0-.4-6.44,3.95,3.95,0,0,0-1.345-2.034,3.4,3.4,0,0,0-2.142-.735,5.765,5.765,0,0,0-3.444,1.228,15.727,15.727,0,0,0-3.624,4.257v22.175c0,2.977.228,4.842.67,5.576.559,1.008,1.709,1.638,3.438,1.879v1.521H909.6V345.1a5.17,5.17,0,0,0,3.718-1.7c.507-.65.75-2.574.75-5.752V295.559c0-3.178-.282-5.16-.851-5.933s-1.79-1.287-3.617-1.521v-1.528Z"/><path class="cls-3" d="M1012.542,345.1v1.521H981.223V345.1h2a8.163,8.163,0,0,0,4.182-.949,4.045,4.045,0,0,0,1.781-2.145c.325-.721.474-2.593.474-5.648V296.839c0-3.1-.149-5.043-.474-5.823a4.493,4.493,0,0,0-1.969-2.034,7.835,7.835,0,0,0-3.994-.877h-2v-1.528h31.319v1.528h-1.975a8.159,8.159,0,0,0-4.172.929,4.283,4.283,0,0,0-1.817,2.158c-.322.721-.478,2.6-.478,5.647V336.36c0,3.107.169,5.044.507,5.824a4.645,4.645,0,0,0,1.976,2.047,7.9,7.9,0,0,0,3.984.871Z"/><path class="cls-3" d="M1034.711,305.282V310.6a24.118,24.118,0,0,1,6.1-5.037,12.979,12.979,0,0,1,6.259-1.572,9.97,9.97,0,0,1,6.665,2.235,10.794,10.794,0,0,1,3.525,5.563q.7,2.535.7,9.716v16.144c0,3.2.29,5.18.868,5.966s1.781,1.274,3.613,1.489v1.521h-20.966V345.1a4.484,4.484,0,0,0,3.4-1.957c.465-.74.7-2.573.7-5.5V319.216a29.616,29.616,0,0,0-.4-6.434,3.978,3.978,0,0,0-1.329-2.06,3.316,3.316,0,0,0-2.1-.735q-3.773,0-7.038,5.394v22.266c0,3.113.286,5.069.871,5.888a4.462,4.462,0,0,0,3.236,1.567v1.521h-20.982V345.1a5.187,5.187,0,0,0,3.727-1.69c.507-.65.767-2.567.767-5.765v-23.4c0-3.171-.292-5.147-.864-5.921-.588-.773-1.794-1.28-3.63-1.52v-1.521Z"/><path class="cls-3" d="M1101.794,335.906l1.372,1.052a20.71,20.71,0,0,1-7.263,8.189,17.367,17.367,0,0,1-9.245,2.684,15.985,15.985,0,0,1-13.2-6.232,23.45,23.45,0,0,1-4.939-15.013,25.177,25.177,0,0,1,4.5-14.857,17.309,17.309,0,0,1,14.97-7.74q6.4,0,10.181,3.223t3.782,7.207a5.374,5.374,0,0,1-1.524,4.01,5.43,5.43,0,0,1-4,1.515,5.746,5.746,0,0,1-4.3-1.736c-1.134-1.143-1.826-3.21-2.106-6.174a6.568,6.568,0,0,0-1.277-3.886,3.087,3.087,0,0,0-2.385-1.118,4.326,4.326,0,0,0-3.62,2.255c-1.537,2.268-2.3,5.765-2.3,10.451a33.793,33.793,0,0,0,1.859,11.178,17.02,17.02,0,0,0,5.076,7.942,8.956,8.956,0,0,0,5.732,1.911,8.753,8.753,0,0,0,4.1-1.014A19.073,19.073,0,0,0,1101.794,335.906Z"/><path class="cls-3" d="M1116.589,333.013a7.346,7.346,0,0,1,7.393,7.39,7.054,7.054,0,0,1-2.161,5.206,7.219,7.219,0,0,1-5.232,2.151,7.334,7.334,0,0,1-7.347-7.357,7.2,7.2,0,0,1,2.145-5.225A7.063,7.063,0,0,1,1116.589,333.013Z"/><path class="cls-3" d="M451.715,382.959v13.765h.676a5.332,5.332,0,0,0,4.66-2.015,12.39,12.39,0,0,0,1.846-5.966h.949v17.71H458.9a13.145,13.145,0,0,0-1.258-4.738,5.438,5.438,0,0,0-2.232-2.483,8.523,8.523,0,0,0-3.692-.637v9.528a13.679,13.679,0,0,0,.237,3.418,2.06,2.06,0,0,0,.887,1.027,4.215,4.215,0,0,0,2.093.4h2.022a10.9,10.9,0,0,0,11.7-8.878h.923l-1.521,10.75H438.821v-.923h1.121a4.651,4.651,0,0,0,2.369-.527,2.269,2.269,0,0,0,1-1.2,10.33,10.33,0,0,0,.273-3.145V386.8a18,18,0,0,0-.124-2.821,2.416,2.416,0,0,0-.923-1.345,4.28,4.28,0,0,0-2.6-.7h-1.121v-.923h28.31v10h-.949a12.15,12.15,0,0,0-2.034-5.265,7.532,7.532,0,0,0-3.7-2.346,20.088,20.088,0,0,0-5.239-.448Z"/><path class="cls-3" d="M483.268,391.511v3.068a13.365,13.365,0,0,1,3.555-2.931,7.791,7.791,0,0,1,3.578-.832,6.5,6.5,0,0,1,3.766,1.047,6.613,6.613,0,0,1,2.346,3.191,14.961,14.961,0,0,1,3.828-3.244,7.914,7.914,0,0,1,3.828-.994,6.13,6.13,0,0,1,3.854,1.111,5.767,5.767,0,0,1,1.995,2.814,19.089,19.089,0,0,1,.563,5.453v9.554c0,1.793.159,2.912.484,3.34a2.962,2.962,0,0,0,2.034.852v.9H501.05v-.9a2.687,2.687,0,0,0,2.1-1.1,6.648,6.648,0,0,0,.448-3.094V399.72a18.6,18.6,0,0,0-.25-3.965,2.365,2.365,0,0,0-.786-1.26,2.016,2.016,0,0,0-1.258-.41,3.7,3.7,0,0,0-2.171.787,9.967,9.967,0,0,0-2.222,2.352v12.524a7.121,7.121,0,0,0,.425,3.165,2.592,2.592,0,0,0,2.194,1.027v.9H487.46v-.9a2.71,2.71,0,0,0,1.534-.488,2.122,2.122,0,0,0,.747-1.046,11.534,11.534,0,0,0,.189-2.658V399.72a17.868,17.868,0,0,0-.254-3.965,2.4,2.4,0,0,0-.832-1.247,2.037,2.037,0,0,0-1.261-.449,3.348,3.348,0,0,0-1.819.52,10.219,10.219,0,0,0-2.5,2.645v12.524a7.107,7.107,0,0,0,.487,3.256,2.551,2.551,0,0,0,2.032.936v.9h-12.02v-.9a2.91,2.91,0,0,0,2.092-.949q.425-.556.423-3.243V396.574a6.7,6.7,0,0,0-.485-3.288,2.964,2.964,0,0,0-2.03-.852v-.923Z"/><path class="cls-3" d="M525.174,381.015v12.843a8.826,8.826,0,0,1,6.434-3.042,8,8,0,0,1,4.514,1.41,9.384,9.384,0,0,1,3.318,4,14.126,14.126,0,0,1,1.195,5.985,15.618,15.618,0,0,1-1.52,6.935,11.432,11.432,0,0,1-4.065,4.751,10.566,10.566,0,0,1-5.814,1.631,8.806,8.806,0,0,1-3.366-.6,9.36,9.36,0,0,1-2.892-1.943l-3.868,2.515h-.847V385.851a10.282,10.282,0,0,0-.173-2.5,1.979,1.979,0,0,0-.786-1.033,3.922,3.922,0,0,0-1.81-.384v-.923Zm0,15.065v10.373a31.3,31.3,0,0,0,.15,4.042,4.106,4.106,0,0,0,1.2,2.379,3.332,3.332,0,0,0,2.418.916,3.416,3.416,0,0,0,2.184-.727,5.656,5.656,0,0,0,1.521-2.867,32.608,32.608,0,0,0,.61-7.734q0-5.361-1.345-7.356a3.019,3.019,0,0,0-2.619-1.45C527.858,393.656,526.487,394.469,525.174,396.08Z"/><path class="cls-3" d="M564.3,402.339h-12.8a12.057,12.057,0,0,0,2.47,7.331,5.214,5.214,0,0,0,4.14,2.073,4.713,4.713,0,0,0,2.723-.838,10.647,10.647,0,0,0,2.619-3l.845.546a14.066,14.066,0,0,1-4.189,5.479,9.024,9.024,0,0,1-5.313,1.6,8.841,8.841,0,0,1-7.857-3.991,14.066,14.066,0,0,1-2.145-7.98q0-5.839,3.156-9.294a9.717,9.717,0,0,1,7.392-3.451,8.014,8.014,0,0,1,6.152,2.905Q564.108,396.627,564.3,402.339Zm-6.135-1.67a23.1,23.1,0,0,0-.435-5.512,4.581,4.581,0,0,0-1.359-2.274,2.086,2.086,0,0,0-1.4-.449,2.464,2.464,0,0,0-2.122,1.274,10.924,10.924,0,0,0-1.472,6.09v.871Z"/><path class="cls-3" d="M589.9,381.015V407.85a18.3,18.3,0,0,0,.15,3.217,2,2,0,0,0,.76,1.222,4.022,4.022,0,0,0,1.956.5v.826l-9.852,1.917v-3.691a12.163,12.163,0,0,1-3.152,2.918,6.271,6.271,0,0,1-3.133.773,8.017,8.017,0,0,1-7.058-3.991,14.345,14.345,0,0,1-2.092-7.954,16.747,16.747,0,0,1,1.293-6.746,10.1,10.1,0,0,1,3.555-4.5,8.532,8.532,0,0,1,4.855-1.521,6.5,6.5,0,0,1,2.963.65,9.919,9.919,0,0,1,2.769,2.268V386.7a12.657,12.657,0,0,0-.221-3.217,2.161,2.161,0,0,0-.9-1.079,5.057,5.057,0,0,0-2.248-.344v-1.047Zm-6.986,15.813q-1.844-3.538-4.51-3.542a2.27,2.27,0,0,0-1.524.5,5.571,5.571,0,0,0-1.508,2.717,22.146,22.146,0,0,0-.588,5.959,24.192,24.192,0,0,0,.649,6.539,6.336,6.336,0,0,0,1.772,3.067,2.41,2.41,0,0,0,1.569.474c1.462,0,2.847-1.15,4.14-3.444Z"/><path class="cls-3" d="M618.306,381.015V407.85a18.464,18.464,0,0,0,.149,3.217,2.03,2.03,0,0,0,.761,1.222,4.032,4.032,0,0,0,1.959.5v.826l-9.852,1.917v-3.691a12.232,12.232,0,0,1-3.156,2.918,6.256,6.256,0,0,1-3.129.773,8.026,8.026,0,0,1-7.061-3.991,14.371,14.371,0,0,1-2.093-7.954,16.73,16.73,0,0,1,1.3-6.746,10.1,10.1,0,0,1,3.555-4.5,8.518,8.518,0,0,1,4.851-1.521,6.518,6.518,0,0,1,2.967.65,9.947,9.947,0,0,1,2.769,2.268V386.7a12.522,12.522,0,0,0-.225-3.217,2.156,2.156,0,0,0-.9-1.079,5.039,5.039,0,0,0-2.245-.344v-1.047Zm-6.983,15.813q-1.848-3.538-4.514-3.542a2.26,2.26,0,0,0-1.521.5,5.547,5.547,0,0,0-1.507,2.717,22.1,22.1,0,0,0-.589,5.959,24.332,24.332,0,0,0,.647,6.539,6.361,6.361,0,0,0,1.774,3.067,2.4,2.4,0,0,0,1.57.474q2.193,0,4.14-3.444Z"/><path class="cls-3" d="M643.8,402.339h-12.8a12.032,12.032,0,0,0,2.47,7.331,5.2,5.2,0,0,0,4.139,2.073,4.686,4.686,0,0,0,2.717-.838,10.478,10.478,0,0,0,2.619-3l.852.546a14.174,14.174,0,0,1-4.192,5.479,9.029,9.029,0,0,1-5.313,1.6,8.835,8.835,0,0,1-7.858-3.991,14.066,14.066,0,0,1-2.144-7.98q0-5.839,3.155-9.294a9.726,9.726,0,0,1,7.4-3.451,8.015,8.015,0,0,1,6.148,2.905Q643.6,396.627,643.8,402.339Zm-6.139-1.67a23.1,23.1,0,0,0-.435-5.512,4.535,4.535,0,0,0-1.362-2.274,2.068,2.068,0,0,0-1.4-.449,2.459,2.459,0,0,0-2.119,1.274,10.925,10.925,0,0,0-1.468,6.09v.871Z"/><path class="cls-3" d="M669.389,381.015V407.85a18.464,18.464,0,0,0,.149,3.217,2.029,2.029,0,0,0,.76,1.222,4.037,4.037,0,0,0,1.96.5v.826l-9.853,1.917v-3.691a12.215,12.215,0,0,1-3.155,2.918,6.26,6.26,0,0,1-3.13.773,8.026,8.026,0,0,1-7.061-3.991,14.37,14.37,0,0,1-2.092-7.954,16.747,16.747,0,0,1,1.3-6.746,10.111,10.111,0,0,1,3.555-4.5,8.523,8.523,0,0,1,4.852-1.521,6.521,6.521,0,0,1,2.967.65,9.93,9.93,0,0,1,2.768,2.268V386.7a12.543,12.543,0,0,0-.224-3.217,2.161,2.161,0,0,0-.9-1.079,5.039,5.039,0,0,0-2.245-.344v-1.047Zm-6.984,15.813q-1.846-3.538-4.513-3.542a2.257,2.257,0,0,0-1.521.5,5.548,5.548,0,0,0-1.508,2.717,22.146,22.146,0,0,0-.588,5.959,24.332,24.332,0,0,0,.647,6.539,6.353,6.353,0,0,0,1.774,3.067,2.4,2.4,0,0,0,1.569.474q2.194,0,4.14-3.444Z"/><path class="cls-3" d="M720.276,380.242V391.96H719.3a12.519,12.519,0,0,0-4.091-7.032,10.422,10.422,0,0,0-6.782-2.444,10.019,10.019,0,0,0-5.813,1.82,10.613,10.613,0,0,0-3.867,4.764,21.554,21.554,0,0,0-1.57,8.384,28.086,28.086,0,0,0,1.144,8.266,10.961,10.961,0,0,0,3.594,5.635,10,10,0,0,0,6.337,1.911,12.418,12.418,0,0,0,5.849-1.4,20.169,20.169,0,0,0,5.6-4.816v2.918a18.289,18.289,0,0,1-5.921,4.3,17.955,17.955,0,0,1-7.194,1.339,20.71,20.71,0,0,1-9.619-2.171,15.384,15.384,0,0,1-6.486-6.239,17.406,17.406,0,0,1-2.281-8.65,18.474,18.474,0,0,1,9.365-15.916,18.491,18.491,0,0,1,9.144-2.392,20.711,20.711,0,0,1,7.533,1.547,11.555,11.555,0,0,0,2.918.9,1.891,1.891,0,0,0,1.384-.585,3.222,3.222,0,0,0,.76-1.859Z"/><path class="cls-3" d="M735.789,390.816a10.766,10.766,0,0,1,5.661,1.573,10.012,10.012,0,0,1,3.978,4.465,14.673,14.673,0,0,1,1.358,6.33,13.4,13.4,0,0,1-2.515,8.306,9.938,9.938,0,0,1-8.41,4.042,9.623,9.623,0,0,1-8.1-3.691,13.6,13.6,0,0,1-2.844-8.553,13.807,13.807,0,0,1,2.9-8.741A9.551,9.551,0,0,1,735.789,390.816Zm.1,1.768a2.93,2.93,0,0,0-2.184.962,6.744,6.744,0,0,0-1.2,3.789q-.282,2.837-.285,7.87a33.406,33.406,0,0,0,.35,4.991,4.785,4.785,0,0,0,1.17,2.691,2.777,2.777,0,0,0,2.047.923,2.828,2.828,0,0,0,1.872-.624,4.182,4.182,0,0,0,1.294-2.366,57.372,57.372,0,0,0,.5-9.58,23.482,23.482,0,0,0-.475-5.823,4.44,4.44,0,0,0-1.4-2.307A2.6,2.6,0,0,0,735.887,392.584Z"/><path class="cls-3" d="M760.005,391.511v3.068a13.412,13.412,0,0,1,3.555-2.931,7.8,7.8,0,0,1,3.581-.832,6.494,6.494,0,0,1,3.763,1.047,6.6,6.6,0,0,1,2.346,3.191,15.011,15.011,0,0,1,3.828-3.244,7.922,7.922,0,0,1,3.828-.994,6.124,6.124,0,0,1,3.854,1.111,5.748,5.748,0,0,1,2,2.814,18.956,18.956,0,0,1,.566,5.453v9.554c0,1.793.159,2.912.484,3.34a2.958,2.958,0,0,0,2.031.852v.9H777.79v-.9a2.681,2.681,0,0,0,2.1-1.1,6.648,6.648,0,0,0,.448-3.094V399.72a18.9,18.9,0,0,0-.247-3.965,2.383,2.383,0,0,0-.786-1.26,2.024,2.024,0,0,0-1.261-.41,3.706,3.706,0,0,0-2.171.787,10,10,0,0,0-2.219,2.352v12.524a7.056,7.056,0,0,0,.426,3.165,2.584,2.584,0,0,0,2.193,1.027v.9H764.2v-.9a2.694,2.694,0,0,0,1.534-.488,2.1,2.1,0,0,0,.747-1.046,11.554,11.554,0,0,0,.188-2.658V399.72a18.17,18.17,0,0,0-.25-3.965,2.42,2.42,0,0,0-.835-1.247,2.03,2.03,0,0,0-1.26-.449,3.364,3.364,0,0,0-1.82.52,10.32,10.32,0,0,0-2.5,2.645v12.524a7.076,7.076,0,0,0,.488,3.256,2.548,2.548,0,0,0,2.034.936v.9H750.5v-.9a2.9,2.9,0,0,0,2.093-.949q.429-.556.426-3.243V396.574a6.7,6.7,0,0,0-.485-3.288,2.964,2.964,0,0,0-2.034-.852v-.923Z"/><path class="cls-3" d="M801.911,412.465v8.682a6.927,6.927,0,0,0,.286,2.444,1.9,1.9,0,0,0,.884.949,6.155,6.155,0,0,0,2.346.3v.923H792.133v-.923a3.076,3.076,0,0,0,2.294-.878c.335-.377.5-1.371.5-2.963V396.379c0-1.65-.188-2.7-.572-3.158a3.112,3.112,0,0,0-2.219-.787v-.923h9.778v3.068a8.853,8.853,0,0,1,2.5-2.593,7.183,7.183,0,0,1,3.964-1.17,7.5,7.5,0,0,1,4.676,1.618,10.069,10.069,0,0,1,3.208,4.478,17.11,17.11,0,0,1,1.1,6.148,17.827,17.827,0,0,1-1.134,6.473,9.477,9.477,0,0,1-3.3,4.465,8.05,8.05,0,0,1-4.8,1.534,7.8,7.8,0,0,1-3.591-.845A9.494,9.494,0,0,1,801.911,412.465Zm0-2.516q2.145,3.042,4.588,3.042a2.565,2.565,0,0,0,2.22-1.424q1.3-2.1,1.3-7.98,0-6.034-1.42-8.254a2.9,2.9,0,0,0-2.544-1.475q-2.52,0-4.14,3.639Z"/><path class="cls-3" d="M843.817,391.511v18.263c0,1.774.162,2.886.5,3.327a2.86,2.86,0,0,0,2.018.839v.9h-9.5v-3.12a11.958,11.958,0,0,1-3.341,2.905,7.728,7.728,0,0,1-3.743.91,5.5,5.5,0,0,1-3.5-1.209,5.905,5.905,0,0,1-2.06-2.833,20.98,20.98,0,0,1-.52-5.661v-9.255q0-2.642-.487-3.288a2.962,2.962,0,0,0-2.034-.852v-.923h9.5v15.943a13.072,13.072,0,0,0,.241,3.217,2.139,2.139,0,0,0,.747,1.1,1.957,1.957,0,0,0,1.183.37,2.9,2.9,0,0,0,1.625-.474,10.159,10.159,0,0,0,2.392-2.619V396.574q0-2.642-.488-3.288a2.96,2.96,0,0,0-2.031-.852v-.923Z"/><path class="cls-3" d="M858.953,382.985v8.526h5.538v2.47h-5.538v14.4a10.982,10.982,0,0,0,.189,2.606,1.859,1.859,0,0,0,.663.948,1.46,1.46,0,0,0,.871.358c1.078,0,2.1-.819,3.067-2.47l.748.553q-2.019,4.786-6.558,4.79a5.822,5.822,0,0,1-3.756-1.235,5.474,5.474,0,0,1-1.957-2.756,23.334,23.334,0,0,1-.25-4.595v-12.6h-3.045v-.871a32.053,32.053,0,0,0,5.352-4.666,28.24,28.24,0,0,0,3.854-5.459Z"/><path class="cls-3" d="M875.819,391.511V410c0,1.651.188,2.7.571,3.158a3.149,3.149,0,0,0,2.243.787v.9h-12.6v-.9a3.058,3.058,0,0,0,2.295-.9q.5-.564.5-3.041V396.379c0-1.65-.192-2.7-.572-3.158a3.117,3.117,0,0,0-2.223-.787v-.923Zm-3.5-11.3a3.861,3.861,0,1,1-3.841,3.867,3.764,3.764,0,0,1,1.124-2.736A3.686,3.686,0,0,1,872.322,380.216Z"/><path class="cls-3" d="M890.435,391.511v3.023a13.688,13.688,0,0,1,3.438-2.834,7.363,7.363,0,0,1,3.542-.884,5.67,5.67,0,0,1,3.769,1.261,6.046,6.046,0,0,1,2,3.126,24.144,24.144,0,0,1,.4,5.466v9.079q0,2.69.487,3.353a2.851,2.851,0,0,0,2.035.839v.9H894.3v-.9a2.483,2.483,0,0,0,1.894-1.1,7.171,7.171,0,0,0,.4-3.094V399.369a16.925,16.925,0,0,0-.225-3.614,2.231,2.231,0,0,0-.76-1.163,1.909,1.909,0,0,0-1.183-.41q-2.149,0-3.99,3.068v12.5a6.946,6.946,0,0,0,.484,3.315,2.475,2.475,0,0,0,1.81.877v.9h-11.8v-.9a2.92,2.92,0,0,0,2.1-.949c.279-.371.422-1.45.422-3.243V396.574q0-2.642-.487-3.288a2.96,2.96,0,0,0-2.031-.852v-.923Z"/><path class="cls-3" d="M924.279,391.791h7.857v2.743h-4.465a8.4,8.4,0,0,1,1.7,2.216,6.85,6.85,0,0,1,.6,2.82,6.978,6.978,0,0,1-1.384,4.329,9.2,9.2,0,0,1-3.766,2.866,10.817,10.817,0,0,1-4.228,1.033c-.1,0-1.1-.039-2.992-.123a2.617,2.617,0,0,0-1.885.734,2.373,2.373,0,0,0-.761,1.761,1.835,1.835,0,0,0,.689,1.476,3.5,3.5,0,0,0,2.229.572l4.316-.053q5.24,0,7.207,1.151a5.259,5.259,0,0,1,2.821,4.913,6.3,6.3,0,0,1-1.3,3.854,7.644,7.644,0,0,1-3.415,2.554,20.846,20.846,0,0,1-7.409,1.222,24.9,24.9,0,0,1-5.739-.611,8.028,8.028,0,0,1-3.717-1.7,3.169,3.169,0,0,1-1.121-2.281,2.937,2.937,0,0,1,.861-2.061,6.952,6.952,0,0,1,3.2-1.533c-2.161-1.066-3.243-2.541-3.243-4.439a5.249,5.249,0,0,1,1.323-3.341,10.567,10.567,0,0,1,4.188-2.82,10.208,10.208,0,0,1-4.835-3.217,7.464,7.464,0,0,1-1.5-4.615,7.722,7.722,0,0,1,2.791-5.92,10.333,10.333,0,0,1,7.188-2.509A13.01,13.01,0,0,1,924.279,391.791Zm-5.788,26.484a8.493,8.493,0,0,0-3.366.429A2.328,2.328,0,0,0,913.7,420.8a2.887,2.887,0,0,0,1.476,2.307q1.471,1.033,5.537,1.034a13.115,13.115,0,0,0,5.446-.923,2.848,2.848,0,0,0,1.985-2.593,1.53,1.53,0,0,0-.373-1.047,3.591,3.591,0,0,0-2.034-1.02A52.154,52.154,0,0,0,918.491,418.275Zm1.472-25.912a2.911,2.911,0,0,0-2.443,1.456q-1,1.461-1,6.05,0,3.715.985,5.1a2.831,2.831,0,0,0,2.333,1.384,2.974,2.974,0,0,0,2.492-1.371q1-1.374,1-5.342c0-2.97-.377-5-1.124-6.083A2.544,2.544,0,0,0,919.963,392.363Z"/><path class="cls-3" d="M959.822,382.959v13.765h.673a5.347,5.347,0,0,0,4.666-2.015,12.488,12.488,0,0,0,1.846-5.966h.949v17.71h-.949a13.286,13.286,0,0,0-1.261-4.738,5.438,5.438,0,0,0-2.232-2.483,8.511,8.511,0,0,0-3.692-.637v9.528a13.838,13.838,0,0,0,.237,3.418,2.063,2.063,0,0,0,.884,1.027,4.246,4.246,0,0,0,2.1.4h2.017a10.912,10.912,0,0,0,11.7-8.878h.923l-1.524,10.75H946.925v-.923h1.124a4.673,4.673,0,0,0,2.372-.527,2.287,2.287,0,0,0,1-1.2,10.291,10.291,0,0,0,.276-3.145V386.8a17.572,17.572,0,0,0-.127-2.821,2.4,2.4,0,0,0-.923-1.345,4.264,4.264,0,0,0-2.593-.7h-1.124v-.923h28.31v10h-.946a12.229,12.229,0,0,0-2.031-5.265,7.559,7.559,0,0,0-3.7-2.346,20.1,20.1,0,0,0-5.239-.448Z"/><path class="cls-3" d="M995.492,400.545l4.04,7.682a19.8,19.8,0,0,0,3.317,5.089,2.988,2.988,0,0,0,1.846.624v.9h-13v-.9a4.49,4.49,0,0,0,1.885-.4.888.888,0,0,0,.364-.748,5.51,5.51,0,0,0-.8-2.2l-2.021-3.789-1.722,2.521c-.78,1.144-1.222,1.827-1.32,2.041a2.183,2.183,0,0,0-.2.852,1.8,1.8,0,0,0,.237.961,1.464,1.464,0,0,0,.647.572,4.144,4.144,0,0,0,1.511.189v.9h-9.128v-.9a5.508,5.508,0,0,0,3.107-.936q1.4-.936,4.1-4.9l1.921-2.846-4.013-7.435a18.839,18.839,0,0,0-2.945-4.465,3.837,3.837,0,0,0-2.17-.923v-.923h12.92v.923l-.676.026-1.293.449a.725.725,0,0,0-.2.578,2.473,2.473,0,0,0,.124.767c.052.117.286.572.7,1.352l1.82,3.392.948-1.352c1.326-1.826,2-3.106,2-3.84a1.118,1.118,0,0,0-.438-.884,3.058,3.058,0,0,0-1.557-.488v-.923h8.254v.923a5.328,5.328,0,0,0-2.843.936,12.087,12.087,0,0,0-2.967,3.432Z"/><path class="cls-3" d="M1016.27,412.465v8.682a6.855,6.855,0,0,0,.286,2.444,1.867,1.867,0,0,0,.884.949,6.141,6.141,0,0,0,2.346.3v.923h-13.3v-.923a3.071,3.071,0,0,0,2.294-.878c.334-.377.5-1.371.5-2.963V396.379c0-1.65-.192-2.7-.572-3.158a3.114,3.114,0,0,0-2.222-.787v-.923h9.781v3.068a8.9,8.9,0,0,1,2.492-2.593,7.189,7.189,0,0,1,3.968-1.17,7.491,7.491,0,0,1,4.673,1.618,10.037,10.037,0,0,1,3.207,4.478,17.024,17.024,0,0,1,1.1,6.148,17.805,17.805,0,0,1-1.131,6.473,9.508,9.508,0,0,1-3.3,4.465,8.06,8.06,0,0,1-4.8,1.534,7.808,7.808,0,0,1-3.59-.845A9.487,9.487,0,0,1,1016.27,412.465Zm0-2.516q2.143,3.042,4.588,3.042a2.554,2.554,0,0,0,2.216-1.424q1.3-2.1,1.3-7.98,0-6.034-1.423-8.254a2.9,2.9,0,0,0-2.541-1.475q-2.526,0-4.14,3.639Z"/><path class="cls-3" d="M1055.4,402.339h-12.8a12.038,12.038,0,0,0,2.47,7.331,5.209,5.209,0,0,0,4.14,2.073,4.706,4.706,0,0,0,2.72-.838,10.6,10.6,0,0,0,2.619-3l.848.546a14.123,14.123,0,0,1-4.189,5.479,9.034,9.034,0,0,1-5.316,1.6,8.84,8.84,0,0,1-7.857-3.991,14.066,14.066,0,0,1-2.145-7.98q0-5.839,3.158-9.294a9.716,9.716,0,0,1,7.393-3.451,8.024,8.024,0,0,1,6.152,2.905Q1055.2,396.627,1055.4,402.339Zm-6.138-1.67a22.869,22.869,0,0,0-.436-5.512,4.552,4.552,0,0,0-1.358-2.274,2.08,2.08,0,0,0-1.4-.449,2.455,2.455,0,0,0-2.119,1.274,10.916,10.916,0,0,0-1.472,6.09v.871Z"/><path class="cls-3" d="M1068,391.511V396.8a17.083,17.083,0,0,1,4.065-4.8,6.053,6.053,0,0,1,3.367-1.183,2.973,2.973,0,0,1,2.232.858,3.358,3.358,0,0,1,.835,2.431,3.816,3.816,0,0,1-.809,2.6,2.531,2.531,0,0,1-1.959.923,3.388,3.388,0,0,1-2.3-.851c-.649-.566-1.029-.878-1.147-.949a1.106,1.106,0,0,0-.575-.149,2.078,2.078,0,0,0-1.371.552,5.185,5.185,0,0,0-1.547,2.417,16.932,16.932,0,0,0-.8,5.336v5.362l.023,1.4a5.753,5.753,0,0,0,.175,1.826,1.988,1.988,0,0,0,.884.982,5.18,5.18,0,0,0,1.986.39v.9h-12.6v-.9a2.757,2.757,0,0,0,2.06-.839c.358-.474.537-1.722.537-3.756V396.451a9.751,9.751,0,0,0-.2-2.541,2.051,2.051,0,0,0-.724-1.027,3.9,3.9,0,0,0-1.674-.449v-.923Z"/><path class="cls-3" d="M1090.249,382.985v8.526h5.537v2.47h-5.537v14.4a10.835,10.835,0,0,0,.188,2.606,1.878,1.878,0,0,0,.66.948,1.477,1.477,0,0,0,.874.358c1.079,0,2.1-.819,3.067-2.47l.748.553q-2.019,4.786-6.561,4.79a5.814,5.814,0,0,1-3.753-1.235,5.43,5.43,0,0,1-1.956-2.756,23.2,23.2,0,0,1-.254-4.595v-12.6h-3.041v-.871a32.017,32.017,0,0,0,5.348-4.666,28.068,28.068,0,0,0,3.854-5.459Z"/><path class="cls-3" d="M1112.745,390.868l.374,7.955h-.848a12.5,12.5,0,0,0-3.156-4.842,5.233,5.233,0,0,0-3.255-1.293,2.451,2.451,0,0,0-1.745.682,2.128,2.128,0,0,0-.725,1.586,2.074,2.074,0,0,0,.5,1.3,24.373,24.373,0,0,0,4.465,3.5,18.494,18.494,0,0,1,4.829,4.211,6.827,6.827,0,0,1,1.157,3.88,8.191,8.191,0,0,1-.972,3.815,6.832,6.832,0,0,1-2.746,2.873,7.85,7.85,0,0,1-3.912.994,13.622,13.622,0,0,1-4.465-1.046,3.764,3.764,0,0,0-1.024-.273q-.823,0-1.374,1.248h-.819l-.4-8.384h.851a10.839,10.839,0,0,0,3.081,4.939,5.892,5.892,0,0,0,3.7,1.644,2.685,2.685,0,0,0,1.957-.734,2.386,2.386,0,0,0,.76-1.781,3.1,3.1,0,0,0-.747-2.073,19.8,19.8,0,0,0-3.344-2.645,26.175,26.175,0,0,1-4.936-4.036,7.044,7.044,0,0,1-1.651-4.517A7.355,7.355,0,0,1,1100.16,393a6.669,6.669,0,0,1,5.374-2.184,7.8,7.8,0,0,1,3.669.923,2.453,2.453,0,0,0,1.1.37,1.276,1.276,0,0,0,.725-.182,5.011,5.011,0,0,0,.871-1.059Z"/></svg>