<?xml version="1.0" encoding="UTF-8"?><svg id="LOGOS" xmlns="http://www.w3.org/2000/svg" viewBox="0 0 1250 703"><defs><style>.cls-1,.cls-2{fill:#091c38;}.cls-2,.cls-3{fill-rule:evenodd;}.cls-3{fill:#2272ad;}</style></defs><g id="Layer_4"><path class="cls-3" d="m235.36346,383.23313h-31.60775c-2.04825,0-3.92402-1.09959-4.9158-2.86755l-14.68273-26.08825c-.97022-1.72484-.97022-3.81622,0-5.54106l14.68273-26.08825c.99179-1.76796,2.88911-2.86755,4.9158-2.86755h17.95993c2.04825,0,3.92402-1.09959,4.9158-2.86755l13.32441-23.69503c1.05646-1.87577-.30185-4.2043-2.4579-4.2043h-48.42497c-4.07494,0-7.84803,2.19917-9.83161,5.75666l-28.82644,51.18471c-1.94045,3.42812-1.94045,7.63243,0,11.08211l28.80488,51.20627c2.00513,3.55749,5.75666,5.75667,9.8316,5.75667h62.07278c2.15605,0,3.51436-2.32854,2.45791-4.2043l-13.30285-23.69502c-.99179-1.76797-2.86755-2.86755-4.9158-2.86755Z"/><path class="cls-1" d="m320.4629,311.32873l-12.24638-20.93528c-1.09958-1.87577-3.81622-1.85421-4.89424.04312l-51.98246,92.34378c-.97022,1.72484-.97022,3.81622,0,5.54106l13.54001,24.21249c1.07803,1.91889,3.83777,1.91889,4.9158.02156l50.75349-89.99368c1.962-3.49281,1.94045-7.76179-.08625-11.23304h.00003Z"/><path class="cls-2" d="m258.0667,353.67363l15.37266-27.36032c.99178-1.7464.97022-3.8809-.04312-5.60574l-17.57184-30.29256c-1.09958-1.89733-3.83777-1.87577-4.89424.02156l-14.94145,26.56258c-.94866,1.70328-.97022,3.77309-.02156,5.49794l17.18374,31.15497c1.05647,1.94045,3.83777,1.96201,4.9158.02156h.00001Z"/><path class="cls-1" d="m366.08499,311.32873l-12.24638-20.93528c-1.09958-1.87577-3.81622-1.85421-4.89424.04312l-52.02557,92.34378c-.97022,1.72484-.97022,3.81622,0,5.54106l13.64782,24.21249c1.07803,1.91889,3.83777,1.91889,4.9158,0l50.71038-89.99368c1.962-3.47125,1.91889-7.74023-.1078-11.21148h0Z"/><path class="cls-1" d="m810.16734,302.0577h7.26589c1.72484,0,3.01848,1.59548,2.65196,3.29876l-19.98661,89.97211c-.40963,1.8542-2.06983,3.1694-3.96712,3.1694h-9.44353c-1.85423,0-3.47127-1.25051-3.92401-3.04003l-17.18379-66.27709c-.51743-2.02669-3.38499-2.02669-3.92401-.02156l-17.65806,66.32021c-.47432,1.76797-2.09136,3.01848-3.92401,3.01848h-9.46505c-1.91887,0-3.55749-1.33676-3.96712-3.19096l-19.57698-89.95056c-.36652-1.68172.92711-3.2772,2.65196-3.2772h8.06362c1.94045,0,3.6006,1.37987,3.9887,3.2772l12.8501,64.89721c.40963,2.11293,3.38499,2.19918,3.94559.12936l17.76586-65.32842c.47432-1.76796,2.09136-2.99691,3.92401-2.99691h7.33058c1.83265,0,3.44969,1.22895,3.92401,2.99691l17.55026,65.32842c.56059,2.06981,3.51438,1.98357,3.94559-.12936l13.19504-64.96189c.36652-1.87577,2.02667-3.23408,3.96712-3.23408h0Zm-365.17079,53.1036c0,6.40348.36652,11.62113,1.07803,15.65295.71151,4.01026,2.0267,7.1581,3.92401,9.42196,1.89734,2.26386,4.4846,3.79466,7.78335,4.61395,3.29877.8193,7.52463,1.22895,12.65602,1.22895,2.58726,0,13.86344-.15093,19.23199-.23717,1.72484-.02156,3.27719,1.0349,3.85934,2.65194l2.3501,6.42504c.64682,1.7464-.64682,3.62217-2.50102,3.64373-7.02873.08625-21.45273.23716-22.94042.23716-7.76179,0-14.25151-.79774-19.42604-2.37166-5.19608-1.57392-9.33572-4.07494-12.462-7.52463-3.10472-3.42812-5.30389-7.91272-6.57596-13.47534-1.27208-5.56262-1.89734-12.31107-1.89734-20.24534v-9.89628c0-8.30081.68993-15.2433,2.09136-20.78436,1.40143-5.56262,3.68685-10.02565,6.83468-13.41065,3.16939-3.385,7.28747-5.77822,12.39731-7.17966s11.40553-2.09137,18.88702-2.09137c2.41477,0,16.19196.15092,23.02666.23717,1.87576.02156,3.16939,1.89733,2.50102,3.66529l-2.45791,6.4466c-.60371,1.59548-2.1345,2.65195-3.83779,2.60883-5.71354-.06468-18.1971-.23717-19.51229-.23717-5.23922,0-9.48664.36653-12.72072,1.07803-3.25564.73306-5.79979,2.19917-7.65399,4.39835-1.8542,2.22074-3.08317,5.32545-3.72998,9.33571-.62526,4.01026-.94867,9.31415-.94867,15.91167l.04311,9.89628h.00011Zm92.36534-28.848c5.86446,0,10.84496.51745,14.96302,1.55236s7.45994,2.84599,10.09034,5.4117c2.60882,2.5657,4.52771,6.01539,5.75665,10.28438,1.22894,4.29055,1.83265,9.68068,1.83265,16.19196v7.45995c0,6.51128-.60371,11.90142-1.83265,16.19196s-3.14783,7.71867-5.75665,10.28438c-2.63037,2.5657-5.97226,4.37679-10.09034,5.4117-4.11806,1.0349-9.09854,1.55236-14.96302,1.55236s-10.86652-.51746-14.96302-1.55236c-4.11806-1.0349-7.4815-2.84599-10.09034-5.4117-2.63037-2.5657-4.52771-5.99383-5.75665-10.28438-1.22894-4.29055-1.83265-9.68068-1.83265-16.19196v-7.45995c0-6.51128.60371-11.90142,1.83265-16.19196,1.22894-4.29055,3.12628-7.71867,5.75665-10.28438,2.60882-2.5657,5.97226-4.37679,10.09034-5.4117,4.11806-1.03491,9.09854-1.55236,14.96302-1.55236h0Zm18.15396,33.44039c0-4.78644-.25872-8.60265-.75462-11.44865s-1.40143-5.0236-2.71662-6.57596c-1.31519-1.5308-3.14783-2.54414-5.47638-3.04004-2.3501-.49589-5.41169-.75462-9.20634-.75462s-6.85626.25873-9.20634.75462c-2.3501.49589-4.18275,1.50924-5.47638,3.04004-1.31519,1.5308-2.22075,3.72997-2.71662,6.57596-.4959,2.84599-.75462,6.6622-.75462,11.44865v7.45995c0,4.78644.23716,8.60265.75462,11.44865.4959,2.84599,1.40143,5.04516,2.71662,6.57596s3.12628,2.54414,5.47638,3.04004c2.3501.49589,5.41169.75462,9.20634.75462s6.85626-.23717,9.20634-.75462c2.3501-.49589,4.18275-1.50924,5.47638-3.04004,1.31519-1.5308,2.22075-3.72997,2.71662-6.57596.4959-2.84599.75462-6.6622.75462-11.44865v-7.45995Zm31.28433,38.74429c-1.48766,0-2.69507-1.20738-2.69507-2.69507v-45.25556c0-4.05338.62523-7.52463,1.89734-10.37062,1.27205-2.84599,3.04006-5.15297,5.34702-6.89937,2.30697-1.76796,5.08831-3.04004,8.32239-3.85933,3.25566-.8193,6.85626-1.22895,10.84496-1.22895,2.84598,0,9.68066.06468,14.03593.1078,1.89734.02156,3.16939,1.91889,2.50104,3.66529l-2.11294,5.49794c-.60371,1.59548-2.13447,2.63038-3.83779,2.60882-3.29877-.04312-8.38703-.1078-9.22792-.1078-3.16939,0-5.64885.30185-7.45997.88398-1.81106.58214-3.16939,1.46611-4.05339,2.65194-.90553,1.16427-1.46613,2.60883-1.70326,4.33367-.23719,1.72484-.34499,3.66529-.34499,5.82134v42.12929c0,1.48768-1.20741,2.69507-2.69507,2.69507h-8.81824l-.00005.02156Zm62.07282-29.79666c-1.53082,0-2.75976,1.27207-2.69507,2.80287.08622,2.52259.25872,4.67864.56059,6.40348.40963,2.3501,1.22894,4.2043,2.43635,5.56262,1.22894,1.35831,2.91067,2.28542,5.08831,2.78131,2.15605.49589,5.04514.75462,8.66733.75462,2.04825,0,16.92502-.17248,23.28538-.23717,1.72484-.02156,3.25566,1.05646,3.85931,2.67351l2.00514,5.49794c.64682,1.7464-.64682,3.62217-2.52257,3.64373-7.82649.06468-25.0318.23716-26.62726.23716-6.40347,0-11.62111-.75462-15.65297-2.2423-4.01028-1.48768-7.17967-3.60061-9.48664-6.36036s-3.85931-6.10163-4.67863-10.02565-1.22894-8.27924-1.22894-13.06569v-7.58931c0-5.15297.43121-9.76692,1.29363-13.88498s2.43635-7.58931,4.74332-10.4353,5.49794-5.02361,9.61602-6.57596c4.0965-1.5308,9.46505-2.30698,16.04102-2.30698,6.05853,0,10.99587.7115,14.83366,2.09137,3.83779,1.40143,6.85626,3.29876,9.07701,5.69198,2.22075,2.39322,3.72998,5.15297,4.52771,8.25768.81931,3.10472,1.22894,6.3388,1.22894,9.68068v2.02669c0,3.25564-.17249,5.82134-.53901,7.71867s-.94864,3.36344-1.76795,4.39835-1.83265,1.72484-3.04006,2.02669c-1.22894.32341-2.69507.47433-4.39833.47433h-34.62624l-.00005.00003Zm14.03593-31.15497c-3.62218,0-6.51127.28029-8.66733.8193s-3.85931,1.55236-5.08831,3.04003c-1.22894,1.48768-2.02667,3.53593-2.43635,6.16631-.30183,2.00513-.4959,4.46303-.58212,7.37371-.04311,1.5308,1.18583,2.78131,2.69507,2.78131h28.28741c1.48766,0,2.69507-1.20739,2.69507-2.69507v-1.89732c0-2.97535-.25872-5.47637-.75462-7.52463-.4959-2.02669-1.40143-3.64373-2.71665-4.808s-3.04006-2.00513-5.21764-2.50102c-2.11294-.49589-4.8727-.75462-8.21459-.75462h.00005Zm179.7286,31.15497c-1.53082,0-2.75976,1.27207-2.69507,2.80287.08622,2.52259.25872,4.67864.56059,6.40348.40963,2.3501,1.22894,4.2043,2.43635,5.56262,1.22894,1.35831,2.91067,2.28542,5.08831,2.78131,2.15605.49589,5.04514.75462,8.66733.75462,2.04825,0,16.92502-.17248,23.28538-.23717,1.72484-.02156,3.25566,1.05646,3.85931,2.67351l2.00514,5.49794c.64682,1.7464-.64682,3.62217-2.52257,3.64373-7.82649.06468-25.0318.23716-26.62726.23716-6.40347,0-11.62111-.75462-15.65297-2.2423-4.01028-1.48768-7.17967-3.60061-9.48664-6.36036s-3.85931-6.10163-4.67863-10.02565c-.81931-3.92402-1.22894-8.27924-1.22894-13.06569v-7.58931c0-5.15297.43121-9.76692,1.29363-13.88498.86242-4.11806,2.43635-7.58931,4.74332-10.4353s5.49794-5.02361,9.61602-6.57596c4.0965-1.5308,9.46505-2.30698,16.04102-2.30698,6.05853,0,10.99587.7115,14.83366,2.09137,3.83779,1.40143,6.85626,3.29876,9.07701,5.69198,2.22075,2.39322,3.72998,5.15297,4.52771,8.25768.81931,3.10472,1.22894,6.3388,1.22894,9.68068v2.02669c0,3.25564-.17249,5.82134-.53901,7.71867s-.94864,3.36344-1.76795,4.39835-1.83265,1.72484-3.04006,2.02669c-1.22894.32341-2.69507.47433-4.39833.47433h-34.62624l-.00005.00003Zm14.05746-31.15497c-3.62218,0-6.51127.28029-8.66733.8193s-3.85931,1.55236-5.08831,3.04003c-1.22894,1.48768-2.02667,3.53593-2.43635,6.16631-.30183,2.00513-.4959,4.46303-.58212,7.37371-.04311,1.5308,1.18583,2.78131,2.69507,2.78131h28.28741c1.48766,0,2.69507-1.20739,2.69507-2.69507v-1.89732c0-2.97535-.25872-5.47637-.75462-7.52463-.4959-2.02669-1.40143-3.64373-2.71665-4.808s-3.04006-2.00513-5.21764-2.50102c-2.13447-.49589-4.8727-.75462-8.21459-.75462h.00005Zm199.97397,31.15497c-1.53082,0-2.75971,1.27207-2.69507,2.80287.08622,2.52259.25877,4.67864.56059,6.40348.40963,2.3501,1.22899,4.2043,2.4363,5.56262,1.22899,1.35831,2.91067,2.28542,5.08831,2.78131,2.15605.49589,5.04514.75462,8.66738.75462,2.04825,0,16.92502-.17248,23.28538-.23717,1.72484-.02156,3.25566,1.05646,3.85931,2.67351l2.00509,5.49794c.64682,1.7464-.64682,3.62217-2.52262,3.64373-7.82643.06468-25.0318.23716-26.62726.23716-6.40352,0-11.62111-.75462-15.65297-2.2423-4.01028-1.48768-7.17962-3.60061-9.48664-6.36036s-3.85931-6.10163-4.67868-10.02565c-.81926-3.92402-1.22899-8.27924-1.22899-13.06569v-7.58931c0-5.15297.43121-9.76692,1.29363-13.88498s2.4363-7.58931,4.74332-10.4353,5.49794-5.02361,9.61602-6.57596c4.0965-1.5308,9.46505-2.30698,16.04102-2.30698,6.05853,0,10.99587.7115,14.83361,2.09137,3.83773,1.40143,6.85621,3.29876,9.07701,5.69198,2.22069,2.39322,3.72993,5.15297,4.52771,8.25768.81926,3.10472,1.22899,6.3388,1.22899,9.68068v2.02669c0,3.25564-.17244,5.82134-.53901,7.71867s-.94864,3.36344-1.76801,4.39835c-.81926,1.0349-1.83265,1.72484-3.04006,2.02669-1.22899.32341-2.69507.47433-4.39833.47433h-34.62603v.00003Zm14.05751-31.15497c-3.62213,0-6.51132.28029-8.66738.8193s-3.85931,1.55236-5.08831,3.04003-2.02667,3.53593-2.4363,6.16631c-.30183,2.00513-.49585,4.46303-.58218,7.37371-.04316,1.5308,1.18583,2.78131,2.69507,2.78131h28.28747c1.48766,0,2.69507-1.20739,2.69507-2.69507v-1.89732c0-2.97535-.25877-5.47637-.75462-7.52463-.49585-2.02669-1.40143-3.64373-2.71665-4.808s-3.04006-2.00513-5.21769-2.50102c-2.11289-.49589-4.8727-.75462-8.21459-.75462h.00011Zm-111.92076,49.30895c0,4.33367-.99181,7.35214-2.97536,9.07698-1.98356,1.72484-5.60574,2.56571-10.84496,2.56571h-20.31001c-9.48664,0-16.2782-1.7464-20.37471-5.21765-4.11808-3.47125-6.16633-8.68889-6.16633-15.65295v-2.97535c0-7.58931,2.24227-13.001,6.70535-16.25664s11.44867-4.87268,20.9353-4.87268c5.41172,0,9.65913.43121,12.72072,1.29363,1.53082.43121,2.86756.88398,3.9887,1.33676,1.33674.53901,2.78129-.45277,2.78129-1.89732v-.73306c0-2.26386-.15091-4.22587-.47432-5.88602-.32341-1.66016-1.07803-3.0616-2.30697-4.2043-1.22894-1.12115-2.97536-1.98357-5.28233-2.5657-2.30697-.58214-5.43324-.88398-9.42194-.88398-2.93225,0-16.47223.17248-22.46607.23717-1.72484.02156-3.27719-1.05646-3.85931-2.67351l-2.00514-5.49794c-.64682-1.7464.64682-3.62217,2.50104-3.64373,7.35216-.06468,22.96197-.23717,25.82953-.23717,10.93118,0,18.82236,1.91889,23.69501,5.75666,4.8727,3.83778,7.309,9.50819,7.309,16.9897v35.94142h.02153Zm-47.4116-9.35727c0,3.1694.94864,5.54106,2.84598,7.11498s5.36855,2.37166,10.43528,2.37166h17.87366c1.48766,0,2.69507-1.20739,2.69507-2.69507v-9.74536c0-1.72484-.17249-3.21252-.53901-4.46303-.36652-1.27207-1.07803-2.28542-2.17764-3.04004-1.07803-.77618-2.67349-1.33676-4.74332-1.70328-2.06983-.36653-4.82954-.53901-8.2577-.53901h-3.1047c-2.97536,0-5.43324.15093-7.37369.47433s-3.47127.86242-4.61393,1.61704c-1.12114.77618-1.91887,1.78952-2.37166,3.04004-.45279,1.27207-.6684,2.84599-.6684,4.74332v2.82443h.00005Zm69.8992-46.31203l16.25662,46.46295c.62523,1.81108,3.16939,1.81108,3.8162.02156l16.73094-46.50608c.58218-1.61704,2.11289-2.69507,3.81626-2.69507h7.95582c1.89729,0,3.2125,1.91889,2.52262,3.68685l-24.66523,63.7545c-.60371,1.57392-2.11294,2.58726-3.79468,2.58726h-9.46505c-1.68173,0-3.16939-1.0349-3.79468-2.58726l-24.66523-63.75451c-.68993-1.76796.62523-3.68685,2.52257-3.68685h8.88293c1.76795,0,3.29877,1.09959,3.8809,2.71663h0Z"/></g></svg>