<?xml version="1.0" encoding="UTF-8"?>
<svg id="PASTE_LOGO_HERE" data-name="PASTE LOGO HERE" xmlns="http://www.w3.org/2000/svg" viewBox="0 0 1250 703">
  <defs>
    <style>
      .cls-1 {
        fill: #1c2656;
      }
    </style>
  </defs>
  <g>
    <path class="cls-1" d="M410.51,350.82v-.2c0-19.61,14.78-35.67,35.97-35.67,13.01,0,20.79,4.34,27.2,10.64l-9.66,11.14c-5.32-4.83-10.74-7.79-17.64-7.79-11.63,0-20,9.66-20,21.48v.2c0,11.83,8.18,21.68,20,21.68,7.88,0,12.71-3.15,18.13-8.08l9.66,9.76c-7.1,7.59-14.98,12.32-28.28,12.32-20.3,0-35.38-15.67-35.38-35.48Z"/>
    <path class="cls-1" d="M502.36,330.13h-20.99v-13.99h57.16v13.99h-20.99v54.99h-15.18v-54.99Z"/>
    <path class="cls-1" d="M544.14,350.82v-.2c0-19.61,15.27-35.67,36.17-35.67,12.42,0,19.91,3.35,27.1,9.46l-9.56,11.53c-5.32-4.44-10.05-7-18.03-7-11.04,0-19.81,9.76-19.81,21.48v.2c0,12.61,8.67,21.88,20.89,21.88,5.52,0,10.45-1.38,14.29-4.14v-9.85h-15.27v-13.11h29.96v29.96c-7.1,6.01-16.85,10.94-29.46,10.94-21.48,0-36.26-15.08-36.26-35.48Z"/>
    <path class="cls-1" d="M655.51,316.13h49.57v7.19h-41.78v24.64h37.35v7.1h-37.35v30.06h-7.79v-68.98Z"/>
    <path class="cls-1" d="M720.16,316.13h49.86v7.1h-42.08v23.55h37.64v7.1h-37.64v24.14h42.57v7.1h-50.36v-68.98Z"/>
    <path class="cls-1" d="M786.18,316.13h23.95c21.68,0,36.66,14.88,36.66,34.29v.2c0,19.41-14.98,34.49-36.66,34.49h-23.95v-68.98ZM810.13,377.92c17.44,0,28.58-11.83,28.58-27.1v-.2c0-15.27-11.14-27.3-28.58-27.3h-16.16v54.59h16.16Z"/>
    <path class="cls-1" d="M863.25,316.13h49.86v7.1h-42.08v23.55h37.64v7.1h-37.64v24.14h42.57v7.1h-50.36v-68.98Z"/>
    <path class="cls-1" d="M929.28,316.13h29.66c8.48,0,15.27,2.56,19.61,6.9,3.35,3.35,5.32,8.18,5.32,13.6v.2c0,11.43-7.88,18.13-18.72,20.1l21.19,28.18h-9.56l-20-26.8h-19.71v26.8h-7.79v-68.98ZM958.25,351.31c10.35,0,17.74-5.32,17.74-14.19v-.2c0-8.47-6.5-13.6-17.64-13.6h-21.29v27.99h21.19Z"/>
    <path class="cls-1" d="M1026.06,315.64h7.29l31.44,69.47h-8.38l-8.08-18.23h-37.55l-8.18,18.23h-7.98l31.44-69.47ZM1045.27,359.89l-15.67-35.18-15.77,35.18h31.44Z"/>
    <path class="cls-1" d="M1078.39,316.13h7.79v61.79h38.83v7.19h-46.61v-68.98Z"/>
  </g>
  <g>
    <path class="cls-1" d="M264.42,364.57h-34.15v-29.2h98.48v29.2h-31.3v69.6h-33.03v-69.6Z"/>
    <path class="cls-1" d="M288.34,319.38c-7.42-17.45-18.47-30.85-32.87-39.84-13.05-8.15-28.88-12.46-45.78-12.46-47.49,0-84.69,36.7-84.69,83.54,0,22.14,8.57,43.01,24.12,58.79,15.74,15.96,36.85,24.76,59.43,24.76h41.91v-28.3h-41c-28.48,0-52.53-25.51-52.53-55.7,0-14.08,5.16-27.14,14.52-36.76,9.49-9.76,22.55-15.13,36.78-15.13,15.5,0,31.81,2.77,46.15,22.83l.4.56,34.33-.49-.76-1.8Z"/>
  </g>
  <rect class="cls-1" x="366.01" y="241.08" width="8" height="219.09"/>
</svg>