<?xml version="1.0" encoding="UTF-8"?><svg id="LOGOS" xmlns="http://www.w3.org/2000/svg" viewBox="0 0 1250 703"><defs><style>.cls-1{fill:#0064a9;}.cls-1,.cls-2,.cls-3,.cls-4,.cls-5,.cls-6{stroke-width:0px;}.cls-2,.cls-4{fill:#0067a3;}.cls-3{fill:#be4709;}.cls-4{fill-rule:evenodd;}.cls-5{fill:#8194a8;}.cls-6{fill:#fff;}</style></defs><g id="Layer_4"><path class="cls-1" d="M934.26004,440.7476c49.24551,0,89.41427-40.15849,89.41427-89.4143s-40.16883-89.4143-89.41427-89.4143-89.41427,40.1688-89.41427,89.4143,40.15849,89.4143,89.41427,89.4143Z"/><polygon class="cls-6" points="972.18804 383.72649 972.18804 378.32592 937.35789 329.93747 937.36822 329.93747 939.04106 328.73964 974.25327 377.6547 974.25327 383.72649 972.18804 383.72649 972.18804 383.72649"/><polygon class="cls-6" points="932.12251 328.30595 938.20464 328.30595 938.20464 330.37119 936.13941 330.37119 994.14149 411.10118 994.14149 411.10118 992.46865 412.29902 932.12251 328.30595 932.12251 328.30595"/><polygon class="cls-6" points="894.01898 383.72649 894.01898 377.6547 929.2312 328.73964 929.2312 328.73964 930.90403 329.94781 896.07388 378.32592 896.08422 383.72649 894.01898 383.72649 894.01898 383.72649"/><polygon class="cls-6" points="874.13077 411.10118 932.12251 330.37119 930.06761 330.37119 930.06761 328.30595 936.13941 328.30595 875.8036 412.29902 874.13077 411.10118 874.13077 411.10118"/><path class="cls-6" d="M929.2312,428.89318c-1.19781-2.70545-1.92065-6.36092-1.92065-10.37779h0c0-4.0169.72284-7.64136,1.92065-10.31583h0c1.19781-2.6435,2.88098-4.48155,5.0185-4.51253h0c2.19948.03098,3.92393,1.8587,5.13208,4.51253h0c1.20814,2.67447,1.94133,6.29897,1.94133,10.32617h0c0,4.0169-.72284,7.67234-1.93099,10.37779h0c-1.20814,2.67447-2.93266,4.54351-5.13208,4.57449h0c-2.14786-.03098-3.83103-1.90001-5.0185-4.57449h0l-.01034-.01034ZM930.34644,408.69519c-1.10491,2.46797-1.81742,5.94788-1.81742,9.8202h0c0,3.87231.71251,7.38321,1.81742,9.88215h0c1.11524,2.52992,2.60222,3.88265,3.9136,3.85167h0c1.38373.03098,2.89132-1.33208,4.0169-3.85167h0c1.11524-2.49895,1.82775-6.00984,1.82775-9.88215h0c0-3.87231-.71251-7.35223-1.82775-9.8202h0c-1.12558-2.48861-2.62282-3.8207-4.02723-3.78972h-.04128c-1.31144,0-2.76741,1.33208-3.87231,3.78972h.01034Z"/><path class="cls-6" d="M930.86275,424.19475c-6.38157-3.44894-10.67729-7.8582-10.75985-11.4001h0c0-.62988.15492-1.24946.4853-1.76577h0c.85709-1.42502,2.63316-1.96197,4.78102-1.96197h0c3.35601,0,7.89955,1.33208,12.41208,3.76905h0l-.28916.53695-.28916.53695c-4.35761-2.3647-8.77724-3.6245-11.83381-3.6245h0c-1.98261,0-3.27338.53695-3.73807,1.37337h0c-.20654.32011-.29944.69187-.29944,1.12555h0c-.08263,2.51959,3.90332,7.0631,10.11963,10.32617h0c4.35761,2.3647,8.73596,3.6245,11.77186,3.61416h0c1.97227,0,3.28371-.52664,3.78969-1.37337h0c.1962-.32011.29944-.68153.29944-1.10491h0c.09296-2.50925-3.97555-7.08374-10.1093-10.34681h0l.28916-.53695.28916-.53695c6.28867,3.44894,10.65662,7.86854,10.74952,11.42074h0c0,.61958-.15492,1.21848-.4853,1.75546h0c-.89837,1.40434-2.68478,1.94133-4.83264,1.95166h0c-3.35601,0-7.84786-1.33208-12.35012-3.75874h0Z"/><path class="cls-6" d="M920.5882,426.01217c-.34078-.53695-.49564-1.14619-.49564-1.7761h0c.08263-3.54187,4.38862-7.95116,10.75985-11.38976h0c4.5022-2.43696,9.00439-3.76905,12.3604-3.76905h0c2.14786,0,3.92393.53695,4.8223,1.95166h0c.33045.52664.4853,1.12555.4853,1.74513h0c-.09296,3.55221-4.46091,7.96147-10.74952,11.42074h0c-4.51253,2.43696-9.04574,3.75874-12.41208,3.76905h0c-2.14786,0-3.93427-.53695-4.77069-1.94133h0l.00006-.01034ZM931.43068,413.92023c-6.21637,3.25274-10.20226,7.79625-10.11963,10.31583h0c0,.43371.10324.80544.32011,1.14619h0c.45435.81578,1.74513,1.36306,3.72773,1.36306h0c3.04623,0,7.4658-1.24946,11.82348-3.61416h0c6.13375-3.27341,10.20226-7.83756,10.1093-10.34681h0c0-.42338-.09296-.7848-.29944-1.10491h0c-.50597-.84675-1.81742-1.37337-3.78969-1.37337h-.02067c-3.0359,0-7.40385,1.25979-11.76152,3.6245h0l.01034-.01034Z"/><polygon class="cls-6" points="902.94074 316.79228 965.81681 316.79228 965.81681 324.08255 902.94074 324.08255 902.94074 316.79228 902.94074 316.79228"/><path class="cls-5" d="M934.13613,327.19071c3.46958,0,6.45386-2.63316,6.45386-5.97886s-2.98428-5.97886-6.45386-5.97886-6.45386,2.63316-6.45386,5.97886,2.87071,5.97886,6.45386,5.97886Z"/><path class="cls-6" d="M991.39475,293.00078s4.78102,21.75725-2.74673,28.0872c0,0-15.17948-8.72563-17.93655-16.97623,0,0,4.4299-.95002,14.10552,4.90493,0,0,3.22176-16.0159,6.57777-16.0159Z"/><path class="cls-6" d="M999.88283,310.81342s5.37996,19.8469-4.54354,27.73611c0,0-14.70446-9.92343-16.61484-18.41155,0,0,4.4299-.5989,13.63056,5.97886,0,0,4.306-15.66481,7.52776-15.30339l.00006-.00003Z"/><path class="cls-6" d="M1006.93563,328.62606s2.74673,18.88657-8.2506,27.25075c0,0-13.14519-10.88379-14.22949-19.48548,0,0,4.4299.23751,12.90771,7.41418,0,0,6.34028-15.66481,9.56204-15.17948l.01034.00003Z"/><path class="cls-6" d="M1009.56879,349.89798s-2.03423,20.68332-13.75447,25.34043c0,0-9.32456-12.7838-9.08702-23.19257,0,0,4.4299,1.32175,10.39846,10.28486,0,0,9.56204-13.63056,12.43269-12.43272h.01034Z"/><path class="cls-6" d="M1010.51878,370.46769s-7.1767,18.16373-25.21649,20.08441c0,0-3.46958-13.86804.47503-22.83115,0,0,4.306,2.14783,6.21637,12.43272,0,0,16.37729-11.72021,18.52515-9.68595l-.00006-.00003Z"/><path class="cls-6" d="M1002.26818,391.37819s-8.60172,10.99736-29.64646,12.30881c0,0-.59894-16.86262,7.52776-23.7915,0,0,2.74673,4.54351,1.19781,14.82837,0,0,14.70446-5.74135,20.92083-3.34567h.00006Z"/><path class="cls-6" d="M985.17838,409.31474s-16.5012,10.27455-30.95784,5.37993c0,0,2.63316-13.50662,14.46697-23.43008,0,0,2.87071,5.61744-3.46958,16.85232,0,0,13.39301-3.22176,19.9605,1.19784h-.00006Z"/><path class="cls-6" d="M877.23896,293.00078s-4.89459,21.75725,2.74673,28.0872c0,0,15.06591-8.72563,17.81264-16.97623,0,0-4.306-.95002-14.10552,4.90493,0,0-3.22176-16.0159-6.45386-16.0159Z"/><path class="cls-6" d="M868.75081,310.81342s-5.49353,19.8469,4.41963,27.73611c0,0,14.81803-9.92343,16.61484-18.41155,0,0-4.41963-.5989-13.50665,5.97886,0,0-4.306-15.66481-7.52776-15.30339l-.00006-.00003Z"/><path class="cls-6" d="M861.69802,328.62606s-2.87071,18.88657,8.12669,27.25075c0,0,13.2691-10.88379,14.34307-19.48548,0,0-4.54354.23751-12.90771,7.41418,0,0-6.34028-15.66481-9.56204-15.17948v.00003Z"/><path class="cls-6" d="M858.95129,349.89798s2.14786,20.68332,13.86804,25.34043c0,0,9.32456-12.7838,9.08702-23.19257,0,0-4.4299,1.32175-10.39846,10.28486,0,0-9.56204-13.63056-12.54632-12.43272h-.01027Z"/><path class="cls-6" d="M857.99096,370.46769s7.29027,18.16373,25.21649,20.08441c0,0,3.46958-13.86804-.36139-22.83115,0,0-4.306,2.14783-6.32995,12.43272,0,0-16.25338-11.72021-18.52515-9.68595v-.00003Z"/><path class="cls-6" d="M866.24156,391.37819s8.61205,10.99736,29.77037,12.30881c0,0,.59894-16.86262-7.52776-23.7915,0,0-2.87071,4.54351-1.31144,14.82837,0,0-14.70446-5.74135-20.92083-3.34567h-.01034Z"/><path class="cls-6" d="M883.33136,409.31474s16.49086,10.27455,30.95784,5.37993c0,0-2.63316-13.50662-14.46697-23.43008,0,0-2.74673,5.61744,3.58315,16.85232,0,0-13.39301-3.22176-20.08441,1.19784h.0104Z"/><path class="cls-6" d="M953.62161,291.68933c4.90493,0,8.8392,3.70709,8.8392,8.2506s-3.9446,8.2506-8.8392,8.2506v-1.19784c4.18209,0,7.52776-3.10819,7.52776-7.05276s-3.34567-6.92885-7.52776-6.92885v-1.32175ZM953.62161,308.18023c-4.78102,0-8.72563-3.70709-8.72563-8.2506s3.9446-8.2506,8.72563-8.2506v1.32175c-4.05818,0-7.41418,3.10819-7.41418,6.92885s3.35601,7.05276,7.41418,7.05276v1.19784Z"/><path class="cls-6" d="M934.13613,291.68933c4.78102,0,8.72563,3.70709,8.72563,8.2506s-3.9446,8.2506-8.72563,8.2506h0v-1.19784h0c4.06851,0,7.41418-3.10819,7.41418-7.05276s-3.34567-6.92885-7.41418-6.92885h0v-1.32175h0ZM934.13613,308.18023c-4.89459,0-8.8392-3.70709-8.8392-8.2506s3.9446-8.2506,8.8392-8.2506v1.32175c-4.18209,0-7.52776,3.10819-7.52776,6.92885s3.34567,7.05276,7.52776,7.05276v1.19784Z"/><path class="cls-6" d="M914.53708,291.68933c4.90493,0,8.84954,3.70709,8.84954,8.2506s-3.9446,8.2506-8.84954,8.2506v-1.19784c4.18209,0,7.52776-3.10819,7.52776-7.05276s-3.34567-6.92885-7.52776-6.92885v-1.32175ZM914.53708,308.18023c-4.78102,0-8.72563-3.70709-8.72563-8.2506s3.9446-8.2506,8.72563-8.2506v1.32175c-4.06851,0-7.41418,3.10819-7.41418,6.92885s3.34567,7.05276,7.41418,7.05276v1.19784Z"/><path class="cls-6" d="M924.3366,296.47035c4.90493,0,8.84954,3.70709,8.84954,8.2506s-3.9446,8.2506-8.84954,8.2506h0v-1.19784h0c4.18209,0,7.52776-3.22176,7.52776-7.05276s-3.34567-7.05276-7.52776-7.05276h0v-1.19784h0ZM924.3366,312.97158c-4.78102,0-8.72563-3.70709-8.72563-8.2506s3.9446-8.2506,8.72563-8.2506v1.19784c-4.06851,0-7.41418,3.2321-7.41418,7.05276s3.34567,7.05276,7.41418,7.05276v1.19784Z"/><path class="cls-6" d="M944.05956,296.47035c4.78102,0,8.72563,3.70709,8.72563,8.2506s-3.9446,8.2506-8.72563,8.2506v-1.19784c4.06851,0,7.41418-3.22176,7.41418-7.05276s-3.34567-7.05276-7.41418-7.05276v-1.19784ZM944.05956,312.97158c-4.90493,0-8.8392-3.70709-8.8392-8.2506s3.9446-8.2506,8.8392-8.2506v1.19784c-4.18209,0-7.52776,3.2321-7.52776,7.05276s3.34567,7.05276,7.52776,7.05276v1.19784Z"/><path class="cls-6" d="M938.20464,418.51536c0,2.03426-1.78641,3.70709-3.9446,3.70709s-3.9446-1.67283-3.9446-3.70709,1.79674-3.70709,3.9446-3.70709,3.9446,1.67283,3.9446,3.70709Z"/><path class="cls-6" d="M938.08073,321.21188c0,2.03426-1.78641,3.70709-3.9446,3.70709s-3.9446-1.67283-3.9446-3.70709,1.79674-3.70709,3.9446-3.70709,3.9446,1.67283,3.9446,3.70709Z"/><polygon class="cls-6" points="927.80618 327.42822 940.3525 327.42822 940.3525 331.49674 927.80618 331.49674 927.80618 327.42822 927.80618 327.42822"/><path class="cls-6" d="M977.8881,293.72359c3.9446,5.73101,5.97883,11.11097,4.54354,11.95769-1.54893.83642-6.10274-3.10819-10.16098-8.96311-3.9446-5.74135-5.97883-11.12127-4.54354-11.95769,1.54893-.83642,6.09247,3.10819,10.16098,8.96311Z"/><path class="cls-6" d="M890.74554,293.72359c-4.06851,5.73101-6.09247,11.11097-4.54354,11.95769,1.54893.83642,5.97883-3.10819,10.03701-8.96311,4.05818-5.74135,6.09247-11.12127,4.54354-11.95769s-5.97883,3.10819-10.03701,8.96311Z"/><path class="cls-3" d="M909.03321,336.63915h50.08192l-.12391,35.73886s-.59894,21.75725-25.10292,26.53827c0,0-23.06869-1.43535-24.74153-26.77575l-.12391-35.50138h.01034Z"/><path class="cls-6" d="M959.11514,351.45721h-20.19799v-14.81806h-9.56204v14.81806h-20.19799v9.68595h20.19799v36.82313c2.74673.83642,4.54354.95002,4.54354.95002,1.79674-.35109,3.46958-.83642,5.0185-1.31141v-36.4617h20.08441l.12391-9.68595-.01034-.00003Z"/><path class="cls-4" d="M311.73655,300.41496l-2.97393,1.25979-1.04295,1.59024.29946,8.88051s-.37174,4.42994,4.46091,3.80002l12.64957-.95002s2.24078,0,3.35601-4.76035l1.48697-6.02014s-.37174-3.80002-5.94787-3.80002h-12.27782l-.01034-.00003ZM276.76181,302.95519s-2.60219,5.37993-.73316,12.04032c0,0,1.11523,3.47991,4.08916,2.85003h13.39304s2.23046-1.27013,2.97393-3.49025l-.1962-9.66528s.56794-3.33536-1.67284-4.27505h-14.13653s-3.72775,1.25979-3.72775,2.54023h.01034ZM255.20077,289.31433s5.94788-.95002,7.81691.64022h30.13176l3.34568-2.54023-3.71742-2.85003s-6.70168-5.4006,0-13.00064h3.34568l.74349-2.54024s9.29355-1.5799,10.4191,2.54024c1.11523,4.12013,0-.96033,0-.96033,0,0,2.97393,4.77069.74349,11.42074,0,0-1.86903,1.5799-2.23046,2.85003v4.75004s0,1.59024,5.20439,1.27013h18.22569s2.23046-3.49025,6.31961-2.54023c0,0,10.79084,3.47991,13.0213,2.86034,0,0,5.21472,1.25979-1.48697,7.92019,0,0-6.69135,7.92019-6.69135,13.63056l-1.12555,11.0903s-10.03704,6.66039-17.48221.32011l-10.78052-.32011s-2.23046.64022-1.84839,7.30061l1.47664,23.13061s-1.11523,13.64086-7.80658,10.78052c0,0-8.17832.96033-6.70168-3.80002l2.97393-33.28126s0-2.86034-5.57613-.95002c0,0-14.88001.95002-14.50827,2.85003,0,0-4.46091,2.52992-9.30388,7.29027,0,0-6.69136,2.22012-10.40878-4.13047,0,0-3.35601-3.80002,3.71742-17.11047,0,0,3.34568-5.71037-4.84298-14.58055,0,0-5.20439-3.47991-2.97393-12.04032l.00002-.00003Z"/><path class="cls-4" d="M431.87122,322.926s-4.08917-3.80002,2.61252-3.80002c0,0,20.08441-1.59024,26.77575,0,0,0,6.32995,3.17014-2.60218,6.97016h-23.43008s-3.35601-.64022-3.35601-3.17014ZM437.82941,311.19548s-7.0631,0-.74349-3.81036c0,0,2.23046-.32011,3.34568-2.22012,0,0,11.52399-.32011,21.19964.64022,0,0,6.70167,2.22012-2.60218,5.07015,0,0-4.83264-2.22012-21.19963.32011h-.00003ZM424.80811,308.65525s-3.00492-9.19029,6.31961-9.19029c2.61252,0,.37174,1.27013,5.21472-.96033,0,0,5.57613-3.15981,24.54529-.32011,0,0,5.2044-.62988,7.43486-1.25979,0,0,10.40877,8.88051,3.71743,11.0903,0,0-1.48697-.32011-1.48697,6.02014,0,0,.74349,3.47991-1.11521,15.85068,0,0,2.23046,6.02014-8.55007,3.15981,0,0-13.0213-.62988-25.66054.64022,0,0-8.93213,4.12013-11.16259.32011,0,0-1.85871.96033,2.6022-10.78052,0,0,.37174-5.39026-1.85871-14.58055l-.00002.01034Z"/><path class="cls-4" d="M736.13182,329.89616s-3.7174-4.44024,5.57616-4.44024c0,0,6.31961,3.18045,2.23043,5.39026l-4.08919,3.49025s-2.98428-.95002-3.7174-4.44024v-.00003ZM724.97956,326.40594s-5.95822,2.22012-7.0734-3.17014c0,0-.37173-.95002,0-4.42994l4.9256-.55762,1.12558.475s2.22015,2.61252,4.35761,1.98264l20.82787.30977s10.78052,2.22012,1.48697,7.30061c0,0-5.94788,5.37993,2.61255,7.92019,0,0,10.65662,2.22012,16.75935,1.82772,1.3734-.0826,1.75546.46469,2.48858.15489,0,0,.72284.11357.981,1.21848.59894,2.63316,1.14619,6.83592-1.99294,5.04951,0,0-18.22572,1.5799-20.82787-5.07015,0,0-6.32995-1.5799-7.06313,3.49025,0,0,1.48697,8.55007-16.73874,21.2306,0,0-2.23043,6.02014-14.13653,5.39026,0,0-3.71743-1.91035-13.76477-.95002,0,0-4.46091,0-4.83264-5.07015,0,0,1.8587-4.76035-.37173-6.97016,0,0-.37173-5.39026,6.70167-1.91035,0,0,6.31961,2.22012,8.55007,5.07015,0,0,2.61252,1.90001,8.18865-1.27013,0,0,14.13653-3.49025,18.22572-11.0903,0,0,4.84298-10.14031-4.84298-8.2403,0,0-4.46091,0-3.7174,1.59024,0,0-4.46091.62988-8.18865,0,0,0-3.34567-.32011-4.83264,1.90001,0,0-6.70167,4.12013-7.81692-1.27013l-.37173-6.97016,22.68657.30977s5.57616-2.22012,2.98428-4.44024c0,0,2.60222-3.47991-6.32995-3.80002l-.00006-.01027ZM746.16882,278.86425s1.8587-2.86034,8.93216-3.49025h14.50826s4.08919.30977.37173,5.07015c0,0-5.20437,2.20982-5.20437,9.19029v13.00064s-1.48697,3.17014,4.46091,5.07015c0,0-4.83264,2.54023-10.78052-5.37993l-14.13653-1.90001,1.8587-2.22012s6.70167-1.25979,11.16259-.62988c0,0,2.97394.62988,1.8587-5.08049,0,0,1.8587-4.42994-7.44519-3.17014,0,0-5.94788-3.17014,4.83264-4.12013,0,0,4.08919-1.25979.37173-4.12013,0,0-5.57616-1.59024-9.66528-.95002l-1.11524-1.27013h-.01027ZM733.90139,282.03439h5.57616s-.74345,3.80002-4.47125,6.02014l-1.11524-6.02014h.01034ZM727.19965,277.27401s6.70167,2.86034,5.58643-6.66038c0,0,7.44519-6.00984,7.80658-.6299,0,0-3.35601,8.88051,5.57616,8.88051,0,0,2.23043,2.85003-1.48697,3.17014,0,0-7.81692,16.48056,1.48697,16.16045l-1.8587,2.22012s-7.43486.32011-8.17831-2.54023c0,0-3.7174.62988-5.95822,2.54023,0,0-6.31961,1.25979-2.97394-3.17014,0,0,10.78052-4.76035,5.94788-8.5604,0,0-5.20437-3.80002-5.94788-8.88051,0,0-.74345-1.27013,0-2.54023v.01034Z"/><polygon class="cls-3" points="227 386.45262 227 383.964 808.53892 383.964 808.53892 386.45262 227 386.45262 227 386.45262"/><path class="cls-1" d="M700.29999,429.07904v-2.63316h.35109c1.91035,0,3.10819-.96033,3.8207-2.74677l3.70709.475c-1.07393,3.22176-3.58318,4.90493-7.6517,4.90493h-.23751.01034ZM700.29999,421.78877v-2.27177h4.18209c-.11357-2.74677-1.54893-4.06851-4.05818-4.06851h-.12391v-2.63316c2.74677,0,4.78102.83642,6.21634,2.50925,1.19784,1.67283,1.91035,3.831,1.79674,6.45386h-8.00278l-.0103.01034ZM723.25511,413.65174l-1.19781,2.87067c-.83642-.36142-1.54893-.5989-2.27177-.5989-2.03423,0-3.10819,2.03426-3.10819,6.21634v6.56743h-3.59349v-15.54087h3.34567v2.27177h0c1.0739-1.79674,2.27177-2.63316,3.70712-2.63316,1.0739,0,2.03423.23751,3.10819.83642h0l.01027.0103ZM740.58239,423.9366c0,1.31141-.47503,2.50925-1.67283,3.46958-1.31144,1.07393-3.2321,1.67283-5.74135,1.67283s-4.18209-.5989-5.61744-1.67283c-1.0739-.83642-1.79674-1.91035-2.14786-3.22176l3.70712-.5989c.36139,1.91035,1.67283,2.87067,4.06851,2.87067.72284,0,1.43535,0,2.03423-.23751,1.0739-.36142,1.67283-.96033,1.67283-1.91035,0-.71251-.83642-1.31141-2.38534-1.67283-3.10819-.5989-5.14241-1.19784-6.21637-1.79674-1.55926-.72284-2.27177-1.91035-2.27177-3.34567,0-1.54893.59894-2.63316,1.91032-3.46958,1.19781-.83642,2.75707-1.19784,4.54354-1.19784,4.41963,0,6.92888,1.43535,7.52776,4.18209l-3.46958.5989c-.35112-1.55926-1.54893-2.27177-3.70712-2.27177-2.27177,0-3.34567.5989-3.34567,1.67283,0,.475.36139.83642.83642,1.19784.59894.23751,1.67283.5989,3.22176.83642,2.39568.475,4.18209,1.07393,5.0185,1.54893,1.43535.72284,2.03423,1.78644,2.03423,3.34567h0l.00013.00003ZM749.30802,410.55389h-3.70712v-3.34567h3.70712v3.34567h0ZM749.30802,428.71762h-3.70712v-15.54087h3.70712v15.54087h0ZM762.93858,428.48011c-.96033.36142-1.78641.475-2.74673.475-1.91032,0-3.2321-.475-3.83103-1.54893-.35112-.5989-.47503-1.91035-.47503-3.70709v-7.88921h-2.14786v-2.63316h2.14786v-3.58318l3.70712-1.91035v5.50383h2.98428v2.63316h-2.98428v7.6517c0,1.07393,0,1.67283.12391,2.03426.12391.35109.47503.5989,1.19781.5989.47503,0,.96033-.11357,1.67283-.36142l.36139,2.74677h0l-.01027-.01027ZM782.0626,413.17675l-6.34028,15.41696c-1.0739,2.50925-1.91032,4.05818-2.50925,4.65711-.83642,1.19784-2.14786,1.67283-3.9446,1.67283-.96033,0-1.79674-.12391-2.39568-.23751l-.35112-2.87067c.59894.23751,1.18753.23751,1.79674.23751.96033,0,1.67283-.23751,2.14786-.72284.47503-.36142.96033-1.31141,1.43535-2.63316l-6.56743-15.54087h3.9446l4.41963,11.47236h.12391l4.41963-11.47236h3.83103l-.0104.02064ZM700.29999,412.81533v2.63316c-1.43535,0-2.63316.5989-3.34567,1.67283-.475.71251-.71251,1.54893-.83642,2.39568h4.18209v2.27177h-4.18209c.12391,1.43535.475,2.50925,1.31141,3.34567.71251.83642,1.67283,1.19784,2.87067,1.31141v2.63316c-2.87067-.12391-5.0185-1.07393-6.34028-2.87067-1.07393-1.43535-1.54893-3.10819-1.54893-5.25602s.5989-4.05818,1.78644-5.50383c1.43535-1.79674,3.46958-2.63316,6.10277-2.63316h0ZM577.54251,428.84153v-2.27177c1.43535-.12391,2.50925-.72284,3.22176-1.91035.36142-.475.5989-1.79674.5989-3.58318-.83642.23751-2.14783.475-3.8207.83642v-2.38534c1.67283-.23751,2.98428-.5989,3.8207-.83642,0-.475,0-1.07393-.12391-1.43535,0-.72284-.5989-1.19784-1.43535-1.55926-.5989-.23751-1.19784-.23751-1.79674-.23751h-.475v-2.63316h.5989c2.50925,0,4.4196.475,5.61744,1.54893.475.36142.83642.83642.95002,1.43535.23751.5989.36142,1.54893.36142,2.87067l-.12391,5.61744c0,1.79674.36142,3.2321,1.07393,4.4196h-3.8207c-.23751-.72284-.475-1.31141-.5989-1.91035-1.19784,1.07393-2.63316,1.79674-4.06851,2.03426h0l.02064.00003ZM605.62967,428.71762h-3.70709v-8.72563c0-1.43535-.12391-2.38534-.36142-2.98428-.475-1.07393-1.43535-1.54893-2.87067-1.54893-.72284,0-1.43535.11357-2.14783.475-.71251.36142-1.19784.83642-1.43535,1.43535-.475.83642-.5989,2.03426-.5989,3.46958v7.88921h-3.70709v-15.54087h3.34567v2.14783h.12391c1.19784-1.67283,2.98428-2.50925,5.49353-2.50925,1.07393,0,2.03426.11357,2.98428.5989.96033.35109,1.67283.95002,2.03426,1.54893.36142.71251.5989,1.31141.72284,2.02392.12391.475.12391,1.31141.12391,2.63316v9.08702h0l-.00003.00006ZM637.66147,419.03167c0,3.10819-.36142,5.25602-1.19784,6.45386-1.31141,2.39568-4.06851,3.58318-8.12669,3.58318s-6.92885-1.19784-8.3642-3.46958c-.72284-1.32175-1.19784-3.46958-1.19784-6.45386v-11.95769h3.9446v12.0713c0,2.14783.23751,3.70709.72284,4.54351.83642,1.43535,2.38534,2.14783,4.78102,2.14783s3.9446-.5989,4.78102-2.03426c.475-.83642.72284-2.39568.72284-4.54351v-12.1952h3.9446v11.83378h0l-.01037.02064ZM658.58227,428.71762h-3.70709v-8.72563c0-1.43535-.12391-2.38534-.36142-2.98428-.475-1.07393-1.43535-1.54893-2.87067-1.54893-.72284,0-1.43535.11357-2.14783.475-.5989.36142-1.19784.83642-1.43535,1.43535-.475.83642-.5989,2.03426-.5989,3.46958v7.88921h-3.70709v-15.54087h3.34567v2.14783h.12391c1.19784-1.67283,3.10819-2.50925,5.50383-2.50925,1.07393,0,2.03426.11357,2.98428.5989.96033.35109,1.67283.95002,2.03426,1.54893.36142.71251.5989,1.31141.72284,2.02392.12391.475.12391,1.31141.12391,2.63316v9.08702h0l-.01034.00006ZM668.14432,410.55389h-3.58318v-3.34567h3.58318v3.34567h0ZM668.14432,428.71762h-3.58318v-15.54087h3.58318v15.54087h0ZM689.30263,413.17675l-6.57777,15.54087h-3.46958l-6.69137-15.54087h3.831l3.58318,8.61202c.475,1.31141.71251,2.27177.96033,2.87067h0c.23751-.83642.5989-1.67283,1.07393-2.74677l3.58318-8.72563h3.70709v-.0103ZM577.54251,412.81533v2.63316c-1.19784,0-2.03426.23751-2.50925.5989-.475.36142-.83642.96033-1.07393,1.79674l-3.46958-.475c.475-1.43535,1.19784-2.38534,2.03426-3.10819,1.19784-.83642,2.87067-1.32175,5.0185-1.43535h0v-.01027ZM577.54251,419.517v2.38534h-.36142c-.96033.12391-1.67283.36142-2.27177.5989-.72284.35109-1.19784.95002-1.19784,1.78644,0,.475.23751,1.07393.72284,1.43535.475.5989,1.31141.83642,2.38534.83642h.72284v2.27177c-.5989.11357-1.07393.23751-1.67283.23751-1.91035,0-3.34567-.475-4.30603-1.31141-1.07393-.83642-1.54893-1.91035-1.54893-3.22176,0-2.74677,2.14783-4.30603,6.45386-4.90493.36142-.11357.72284-.11357,1.07393-.11357h0v-.00006ZM420.10971,428.84153v-2.27177c1.43534-.12391,2.50925-.72284,3.22176-1.91035.36142-.475.59892-1.79674.59892-3.58318-.83642.23751-2.03426.475-3.83102.83642v-2.38534c1.79676-.23751,2.98426-.5989,3.83102-.83642v-1.43535c-.12391-.72284-.59892-1.19784-1.55925-1.55926-.47501-.23751-1.19784-.23751-1.79676-.23751h-.47501v-2.63316h.59892c2.63318,0,4.4196.475,5.61744,1.54893.47501.36142.83642.83642,1.07391,1.43535.12391.5989.2375,1.54893.2375,2.87067v5.61744c0,1.79674.2375,3.2321.96033,4.4196h-3.70709c-.36142-.72284-.59892-1.31141-.72283-1.91035-1.19784,1.07393-2.50925,1.79674-4.06851,2.03426h0l.02067.00003ZM448.19689,428.71762h-3.70709v-8.72563c0-1.43535-.12391-2.38534-.36142-2.98428-.47501-1.07393-1.43534-1.54893-2.87067-1.54893-.72283,0-1.43534.11357-2.14785.475-.59892.36142-1.07391.83642-1.43534,1.43535-.36142.83642-.59892,2.03426-.59892,3.46958v7.88921h-3.70709v-15.54087h3.34568v2.14783h.12391c1.19784-1.67283,3.10817-2.50925,5.49353-2.50925,1.07391,0,2.14785.11357,3.10817.5989.83642.35109,1.54893.95002,1.91035,1.54893.36142.71251.59892,1.31141.71251,2.02392.12391.475.12391,1.31141.12391,2.63316v9.08702h0l.01032.00006ZM481.55041,422.02625c-.475,1.67283-1.19784,2.98428-2.14783,4.05818-1.79674,1.91035-4.4196,2.98428-7.76527,2.98428-3.58318,0-6.45386-1.19784-8.3642-3.34567-1.79674-2.03426-2.63316-4.65711-2.63316-7.76527,0-3.46958,1.07393-6.21634,3.10819-8.2506,2.03426-1.91035,4.78102-2.87067,8.12669-2.87067,4.90493,0,8.01312,2.15817,9.44844,6.21634l-3.9446.96033c-.83642-2.74677-2.74677-4.05818-5.74135-4.05818-2.63316,0-4.54351.96033-5.74135,2.87067-.83642,1.31141-1.19784,2.98428-1.19784,5.0185,0,2.39568.475,4.18209,1.19784,5.37993,1.19784,1.91035,3.10819,2.74677,5.61744,2.74677,3.34567,0,5.37993-1.67283,6.21634-5.0185l3.831,1.07393h0l-.01034-.00003ZM501.2734,428.71762h-3.58318v-9.08702c0-1.31141-.23751-2.15817-.475-2.74677-.475-.96033-1.43535-1.43535-2.87067-1.43535-.71251,0-1.43535.11357-2.03426.475-.72284.36142-1.19784.72284-1.43535,1.19784-.475.71251-.71251,1.91035-.71251,3.34567v8.2506h-3.70709v-21.51973h3.70709v7.7756c1.43535-1.43535,3.10819-2.15817,5.25602-2.15817.96033,0,1.91035.11357,2.74677.475.96033.36142,1.79674.83642,2.27177,1.54893.5989.96033.83642,2.39568.83642,4.30603v9.56204h0v.01034ZM517.2893,413.65174l-1.19784,2.87067c-.83642-.36142-1.54893-.5989-2.27177-.5989-2.03426,0-3.10819,2.03426-3.10819,6.21634v6.56743h-3.70709v-15.54087h3.46958v2.27177h0c.96033-1.79674,2.27177-2.63316,3.70709-2.63316,1.07393,0,2.03426.23751,3.10819.83642h0l.00003.0103ZM524.22849,410.55389h-3.70709v-3.34567h3.70709v3.34567h0ZM524.22849,428.71762h-3.70709v-15.54087h3.70709v15.54087h0ZM544.54005,423.9366c0,1.31141-.5989,2.50925-1.67283,3.46958-1.31141,1.07393-3.2321,1.67283-5.74135,1.67283s-4.18209-.5989-5.61744-1.67283c-1.19784-.83642-1.79674-1.91035-2.14783-3.22176l3.70709-.5989c.36142,1.91035,1.67283,2.87067,4.06851,2.87067.71251,0,1.43535,0,2.03426-.23751,1.07393-.36142,1.54893-.96033,1.54893-1.91035,0-.71251-.71251-1.31141-2.27177-1.67283-3.10819-.5989-5.25602-1.19784-6.21634-1.79674-1.55926-.72284-2.27177-1.91035-2.27177-3.34567,0-1.54893.5989-2.63316,1.91035-3.46958,1.19784-.83642,2.74677-1.19784,4.54351-1.19784,4.4196,0,6.92885,1.43535,7.52779,4.18209l-3.58318.5989c-.23751-1.55926-1.43535-2.27177-3.58318-2.27177-2.27177,0-3.34567.5989-3.34567,1.67283,0,.475.23751.83642.83642,1.19784.5989.23751,1.67283.5989,3.22176.83642,2.39568.475,4.06851,1.07393,5.0185,1.54893,1.31141.72284,2.03426,1.78644,2.03426,3.34567h0v.00003ZM556.97276,428.48011c-.96033.36142-1.91035.475-2.87067.475-1.91035,0-3.10819-.475-3.70709-1.54893-.36142-.5989-.5989-1.91035-.5989-3.70709v-7.88921h-2.14783v-2.63316h2.14783v-3.58318l3.70709-1.91035v5.50383h3.10819v2.63316h-3.10819v7.6517c0,1.07393.12391,1.67283.23751,2.03426.12391.35109.475.5989,1.07393.5989s1.07393-.11357,1.67283-.36142l.475,2.74677h0l.0103-.01027ZM564.74837,410.55389h-3.58318v-3.34567h3.58318v3.34567h0ZM564.74837,428.71762h-3.58318v-15.54087h3.58318v15.54087ZM420.10971,412.81533v2.63316c-1.07391,0-1.91035.23751-2.50925.5989-.47501.36142-.83642.96033-1.07391,1.79674l-3.46959-.475c.47501-1.43535,1.19784-2.38534,2.03426-3.10819,1.19784-.83642,2.87067-1.32175,5.01852-1.43535h0l-.00002-.01027ZM420.10971,419.517v2.38534h-.2375c-1.07391.12391-1.78642.36142-2.27175.5989-.83642.35109-1.19784.95002-1.19784,1.78644,0,.475.12391,1.07393.59892,1.43535.47501.5989,1.31143.83642,2.50925.83642h.59892v2.27177c-.47501.11357-1.07391.23751-1.67283.23751-1.79676,0-3.2321-.475-4.30601-1.31141s-1.54893-1.91035-1.54893-3.22176c0-2.74677,2.14785-4.30603,6.57777-4.90493.36142-.11357.71251-.11357.96033-.11357h0l-.01032-.00006ZM348.50804,434.93396v-2.50925c1.91035-.12391,3.10817-.5989,3.70709-1.67283.2375-.36142.36142-.83642.47501-1.31141v-2.98428h0c-1.07391,1.31141-2.50925,2.03426-4.1821,2.15817v-2.63316c1.19784,0,2.14785-.475,2.98426-1.19784.96033-.83642,1.31143-2.27177,1.31143-4.18209,0-1.31141-.2375-2.39568-.83642-3.34567-.71251-1.19784-1.91035-1.79674-3.46959-1.79674v-2.63316c1.91035.11357,3.34568.96033,4.4196,2.38534h0v-2.03426h3.46959v13.63056c0,2.87067-.47501,4.90493-1.43534,5.85495-1.31143,1.54893-3.46959,2.27177-6.21636,2.27177h-.2375l.01032-.00009ZM389.26543,407.19789l-9.20062,12.43272v9.08702h-3.9446v-9.08702l-8.96311-12.43272h4.6571l5.14243,7.41418c.36142.475.71251,1.07393,1.31143,1.91035.12391-.12391.59892-.83642,1.31143-2.03426l5.14243-7.29027h4.54352ZM407.55309,428.71762h-3.34568v-2.38534h0c-1.31143,1.79674-3.2321,2.74677-5.49353,2.74677-1.07391,0-2.15817-.23751-2.98426-.72284-.96033-.36142-1.67283-.83642-2.03426-1.54893-.59892-.96033-.83642-2.27177-.83642-3.9446v-9.68595h3.70709v7.88921c0,2.03426.12391,3.34567.59892,3.9446.47501.83642,1.31143,1.32175,2.63318,1.32175.71251,0,1.43534-.12391,2.03426-.48533.71251-.35109,1.19784-.71251,1.54893-1.31141.36142-.83642.59892-2.15817.59892-3.9446v-7.41418h3.58318v15.54087h-.01032ZM274.27321,422.02625c-.36141,1.67283-1.07392,2.98428-2.14785,4.05818-1.79675,1.91035-4.30601,2.98428-7.65169,2.98428-3.70709,0-6.45386-1.19784-8.3642-3.34567-1.79675-2.03426-2.63318-4.65711-2.63318-7.76527,0-3.46958.96033-6.21634,3.10818-8.2506,2.03426-1.91035,4.66743-2.87067,8.01311-2.87067,4.90493,0,8.1267,2.15817,9.56204,6.21634l-3.9446.96033c-.96033-2.74677-2.87067-4.05818-5.74135-4.05818s-4.66743.96033-5.74135,2.87067c-.83642,1.31141-1.31142,2.98428-1.31142,5.0185,0,2.39568.475,4.18209,1.31142,5.37993,1.19784,1.91035,2.98426,2.74677,5.61744,2.74677,3.23209,0,5.25602-1.67283,6.09244-5.0185l3.83101,1.07393h0l-.00002-.00003ZM348.50804,412.81533v2.63316h0c-1.54893,0-2.63318.5989-3.46959,1.79674-.47501.95002-.83642,2.14783-.83642,3.58318s.36142,2.63316.96033,3.59352c.83642.95002,1.91035,1.54893,3.34568,1.54893h0v2.63316c-.2375.11357-.59892.11357-.83642.11357-2.27175,0-4.06851-.83642-5.50385-2.50925-1.19784-1.54893-1.67283-3.34567-1.67283-5.37993,0-2.38534.59892-4.4196,1.91035-5.85495s3.10817-2.15817,5.37994-2.15817h.71251l.0103.00003ZM348.50804,432.42471v2.50925c-5.14243,0-7.6517-1.67283-7.52777-5.14244l4.06851.475c.12391,1.43535,1.19784,2.14783,3.2321,2.14783h.2375l-.01034.01037ZM294.1201,428.71762h-3.70709v-9.08702c0-1.31141-.12392-2.15817-.36141-2.74677-.475-.96033-1.43534-1.43535-2.87067-1.43535-.72283,0-1.43534.11357-2.14785.475-.59892.36142-1.07392.72284-1.43534,1.19784-.36141.71251-.59892,1.91035-.59892,3.34567v8.2506h-3.70709v-21.51973h3.70709v7.7756c1.31142-1.43535,3.10818-2.15817,5.14244-2.15817.96033,0,1.91034.11357,2.74677.475,1.07392.36142,1.79675.83642,2.27175,1.54893.59892.96033.96033,2.39568.96033,4.30603v9.56204h0v.01034ZM314.67951,428.71762h-3.34568v-2.38534h0c-1.43534,1.79674-3.23209,2.74677-5.61744,2.74677-.96033,0-2.03426-.23751-2.98426-.72284-.83642-.36142-1.55925-.83642-1.91034-1.54893-.59892-.96033-.83642-2.27177-.83642-3.9446v-9.68595h3.70709v7.88921c0,2.03426.12392,3.34567.475,3.9446.59892.83642,1.43534,1.32175,2.74677,1.32175.71251,0,1.43534-.12391,2.03426-.48533.71251-.35109,1.19784-.71251,1.43534-1.31141.475-.83642.71251-2.15817.71251-3.9446v-7.41418h3.58318v15.54087h0ZM335.59,428.71762h-3.70709v-8.72563c0-1.43535-.12391-2.38534-.36142-2.98428-.47501-1.07393-1.43534-1.54893-2.87067-1.54893-.71251,0-1.43534.11357-2.14785.475s-1.19784.83642-1.43534,1.43535c-.47501.83642-.59892,2.03426-.59892,3.46958v7.88921h-3.70709v-15.54087h3.34568v2.14783h.12391c1.19784-1.67283,2.98426-2.50925,5.49353-2.50925,1.07391,0,2.03426.11357,2.98426.5989.96033.35109,1.67283.95002,2.03426,1.54893.36142.71251.59892,1.31141.71251,2.02392.12391.475.12391,1.31141.12391,2.63316v9.08702l.01032.00006Z"/><path class="cls-2" d="M427.78205,279.17402l-4.46091-8.24028s-2.23046-4.76037,4.08917-2.52991c0,0,5.56581,1.5799,8.55007,1.27011,0,0,1.85871.6299,1.48697,2.22014l-.37174,7.93049s1.48697,1.27013,2.97394,1.27013c0,0,4.83264,0,7.80658-.62988v-.96033s8.93215-1.5799,9.67563.96033c0,0,2.97394.62988,6.32995-.64022,0,0,8.92183-4.42994,7.80658,6.65006,0,0-.37173,4.76035-8.92183,3.17014l-28.6448.32011s-5.94787,3.47991-12.27782,3.15981c0,0-6.31961,0-6.31961,4.44024,0,0,.74349,25.67084-8.17832,43.42153,0,0-3.72775,19.34093-21.95343,15.53057,0,0-16.36699,1.27013-8.17832-10.78052,0,0,3.71743-2.85003,3.35601-6.34028,0,0,3.71743-1.27013,4.83264,4.76035,0,0,12.27782,7.29027,19.34091-28.84099,0,0,.74349-17.12078-.37174-17.75069,0,0-2.23046-9.51039-2.61252-14.90066,0,0,5.94787-4.44024,12.64956,2.52992,0,0,10.04736-.30977,12.64956-2.20982,0,0,1.48697-1.5799.74349-3.81036Z"/><path class="cls-2" d="M424.43637,342.5767s-2.97394,2.22012-8.92181,3.17014c0,0-7.81692.32011-1.48697,6.66039,0,0,4.08917,7.29027,12.63924,4.12013,0,0,2.23046-3.80002,6.31961-4.44024,0,0,1.49729-10.78052-4.46091-9.51039,0,0-1.48697-1.90001-4.08917,0l.00002-.00003Z"/><path class="cls-2" d="M441.91858,342.5767s2.23046-9.20062,6.69135-2.22012c0,0-1.48697,1.90001,2.97394,1.90001,0,0,4.46091,4.76035,1.49731,20.61103,0,0-7.0631,6.66039-10.03704-3.80002,0,0-1.11523-4.13047.74349-6.9805,0,0-.37174-3.17014-1.49729-3.17014,0,0-1.48697-4.10983-.36142-6.34028l-.01034.00003Z"/><path class="cls-2" d="M464.23343,338.76637c-1.05326.32011-.37173,11.10063,2.60218,18.70071,0,0,3.71743,6.66039,10.40877.32011l13.39304-9.51039s-5.94788-7.92019-10.78052-3.47991c0,0-5.57613,1.88968-10.04737-5.71037,0,0-1.48697-1.5799-5.57613-.32011l.00003-.00003Z"/><path class="cls-2" d="M537.50793,301.67475s.74349-6.97016,14.50826-2.52992c0,0,10.97672.32011,16.73871.62988,0,0,5.39026-.7951-3.81036-9.59302,0,0-3.6348-11.64792,6.04082-13.86804h7.43486s4.60546,5.37993,2.14783,15.53057c-.28913,1.20818.26849,2.37501-2.23046,3.57285,0,0-1.39404,2.13752,3.4386,3.08751,0,0,13.39304,1.27013,11.91641-.62988,0,0-1.48697-1.5799,11.89574-.95002,0,0,1.48697.32011,2.97394-1.5799,0,0,10.4191-1.59024,7.81692,8.2403,0,0,2.97394,4.12013-11.52401,1.90001,0,0-2.60218-1.59024-5.95819-.32011l-1.02228.475s-13.48598-.15489-11.25552,2.37501c0,0-3.71743,11.41041,25.29912,23.77083,0,0,1.30111.95002,6.41254,1.42502l1.30111.475,3.6245,2.61252s.83642,1.42502,4.73971,1.67283c0,0,5.48319,5.54515,8.45714,3.00492,0,0,16.73871-5.39026,7.44516,5.39026,0,0-7.80658,7.61038-11.16259,8.5604,0,0-3.34567-.32011-4.46091,1.59024,0,0-5.39026-1.91035-13.39304-4.44024l-1.8587-3.17014-3.34567-3.17014s-4.29569-2.46797-5.57613-4.12013c-3.09785-3.97558-6.75332-9.76855-21.19963-20.29092,0,0-9.85118-4.52287-10.40877,5.07015,0,0,1.39404,4.91527-2.79838,6.34028,0,0-2.23046.475-5.0185,7.61038-.97066,2.47827-5.77233,2.90165-5.2044,2.86034l-4.27505.95002s-5.85495-.23751-6.51581,1.25979c0,0-16.13981,3.99622-17.11047,0,0,0-2.97394-5.71037-5.94788-7.92019l1.39404-7.8479s.2788-1.88968,6.41254,1.1875c0,0,16.73871,1.5799,22.32517-1.25979,0,0,13.02129-7.29027,11.16259-19.97081,0,0,1.48697-3.17014-6.32995-.64022,0,0-14.13653,1.27013-20.45614,1.5799,0,0-7.07343-.93969-2.60218-8.87018l-.02067.00003Z"/><path class="cls-2" d="M701.53915,275.05389s-1.8587-4.12015,6.31961-3.17014c0,0,7.72396-1.42502,8.93216-2.54024,0,0,9.29355-2.52991,4.84298,6.66038,0,0,.74345,2.54023-7.44519,3.17014v2.22012l5.20437.32011s1.8587-.64022,1.48697,2.54023v4.75004l-4.83264.32011s-3.71743,5.37993,1.11524,7.61038c0,0,5.20437-.95002,4.08919,2.22012,0,0,1.11524,3.17014-1.8587,2.52992,0,0-5.94788,1.91035,0,5.71037,0,0,4.83264.30977,7.44519-.32011,0,0,8.5501-1.90001,16.36695.32011,0,0,25.29912.64022,33.1057.95002,0,0,5.57616-1.5799,1.48697,4.44024,0,0-3.17014,2.67447-6.14408,7.8479l-2.22015,1.42502-2.0549-.28913,1.20814-6.36092-1.39401-1.91035-3.06684-.71251-50.21617-.23751-2.50925-.23751-2.50925.71251-.83642,1.67283-7.99245,12.36043s-5.2044,2.85003-6.69137-1.91035l-.37173-21.55071s2.97394-1.91035,7.0631,1.5799c0,0,5.94788,7.61038,7.43486.32011,0,0-.37173-22.50073-1.11521-25.04096,0,0-4.46091,0-4.83264-5.39026l-.01043-.01027Z"/></g></svg>