<?xml version="1.0" encoding="UTF-8"?><svg id="LOGO" xmlns="http://www.w3.org/2000/svg" viewBox="0 0 1250 703"><defs><style>.cls-1{fill:#00693e;stroke-width:0px;}</style></defs><path class="cls-1" d="m463.01678,269.08728h-25.31911v1.08732c2.26786,1.33585,3.26198,2.92024,3.26198,9.28885v37.77672c0,6.33754-.99412,7.95299-3.26198,9.28885v1.08732h23.73471c22.05713,0,33.42743-13.04788,33.42743-30.84892.03107-16.06132-10.9975-27.68015-31.84304-27.68015m-2.23678,52.16046h-10.6247v-45.82291h11.37031c15.22253,0,23.57937,7.70446,23.57937,23.57939,0,13.79348-7.61125,22.24353-24.32498,22.24353m230.45045,5.25022c-2.57852-1.08732-3.66581-3.10664-2.82705-9.53738l3.85225-29.07813,19.07476,38.95724h3.51052l19.32329-39.05044,3.60371,29.51306c.74561,6.27541-.0932,8.10833-2.51637,9.19565v1.08732h15.87492v-1.08732c-2.17464-1.18052-3.10664-2.92024-3.91435-8.85392l-6.67925-49.24022h-4.25608l-21.80861,45.04626-21.80861-45.04626h-4.25608l-6.92779,48.89849c-.83881,6.08901-2.08144,7.95299-4.50462,9.19565v1.08732h14.38375v-1.08732h-.12439Zm-36.03702,0c-2.51637-1.42905-3.66581-3.10664-3.66581-9.69271v-41.38043h7.11418c9.10243,0,10.87323,1.33585,13.29641,4.34929l1.08734-.34173-1.73971-11.12176c-3.41732.40386-7.95299.74559-13.63814.74559h-21.49793c-5.68515,0-10.18977-.34173-13.63814-.74559l-1.77078,11.12176,1.08732.34173c2.42317-3.01344,4.19396-4.34929,13.29641-4.34929h7.11418v41.38042c0,6.61714-1.18054,8.26366-3.66581,9.69271v1.08732h16.65158v-1.08732h-.0311Zm-73.65839,1.08732h-15.8128v-1.08732c1.83291-.93199,3.26198-2.92024,3.26198-9.28885v-37.77672c0-6.33754-1.42905-8.35686-3.26198-9.28885v-1.05626h21.063c15.56426,0,22.74059,6.18221,22.74059,16.96225,0,7.36273-4.44249,13.45174-13.04787,15.71959,2.51637.99412,4.59784,3.4173,8.45006,8.26366l7.17633,9.19565c4.00757,5.18809,5.68515,6.43074,7.85979,7.26953v1.08732h-10.28297c-2.17464,0-3.35518-.68346-5.00169-2.92024l-10.43831-14.04201c-4.10076-5.52982-4.93954-6.43074-7.70447-6.43074h-2.51637l-2.57852-5.28128v-.83879h5.52981c8.45006,0,12.86148-4.44249,12.86148-11.52563,0-7.7666-4.69103-11.3703-13.9488-11.3703h-7.61125v42.06389c0,6.33754,1.42905,8.35686,3.26198,9.28885v1.05626Zm-29.32667-9.00926l-22.6474-50.17221h-3.4173l-22.6474,50.17221c-2.26786,4.93956-3.4173,6.77247-5.93369,7.95299v1.08732h15.03612v-1.08732c-3.01344-1.18052-4.00757-3.01344-1.33586-9.10245l3.07557-7.1142h24.07645l3.10664,7.1142c2.67171,6.08901,1.77078,7.95299-.932,9.10245v1.08732h17.14863v-1.08732c-2.17459-1.18052-3.26191-3.0445-5.52976-7.95299m-35.19822-14.29053l9.35099-21.40474,9.35099,21.40474h-18.70198Zm460.15527-34.11089c-2.26783,1.33585-3.26198,2.92024-3.26198,9.28885v15.03613h33.52061v-15.0672c0-6.33754-.99415-7.95299-3.26198-9.28885v-1.05626h15.81278v1.08732c-2.26783,1.33585-3.26198,2.92024-3.26198,9.28885v37.77672c0,6.33754.99415,7.95299,3.26198,9.28885v1.08732h-15.81278v-1.08732c2.26783-1.33586,3.26198-2.92024,3.26198-9.28885v-16.30985h-33.52061v16.30985c0,6.33754.99415,7.95299,3.26198,9.28885v1.08732h-15.81278v-1.08732c2.26783-1.33586,3.26198-2.92024,3.26198-9.28885v-37.80779c0-6.33754-.99415-7.95299-3.26198-9.28885v-1.05626h15.81278v1.08732Zm-43.46189,57.41068h-16.65158v-1.08732c2.51637-1.42905,3.66581-3.10664,3.66581-9.69271v-41.38043h-7.11418c-9.10243,0-10.87323,1.33585-13.29641,4.34929l-1.08734-.34173,1.77081-11.12176c3.41732.40386,7.95299.74559,13.63814.74559h21.49793c5.68515,0,10.18977-.34173,13.63814-.74559l1.73971,11.12176-1.08734.34173c-2.42317-3.01344-4.19398-4.34929-13.29641-4.34929h-7.11418v41.38042c0,6.61714,1.18054,8.26366,3.66581,9.69271v1.08732h.0311Zm-58.00093-58.498h14.47695v1.08732c-2.42317,1.42905-3.66581,3.10664-3.66581,9.69271v25.00844c0,15.47106-9.04033,23.98325-24.23179,23.98325-15.28465,0-24.23179-8.45005-24.23179-22.83379v-26.59282c0-6.33754-.99415-7.95299-3.26198-9.28885v-1.05626h15.81278v1.08732c-2.26783,1.33585-3.26198,2.92024-3.26198,9.28885v26.00256c0,10.28297,5.68515,16.06132,16.21666,16.06132,10.12762,0,15.87492-5.93368,15.87492-16.65158v-25.00844c0-6.61714-1.24264-8.26366-3.66581-9.69271v-1.08732h-.06215Zm-84.34521-1.33585c-18.73303,0-30.94214,14.47694-30.94214,31.00425,0,15.71959,11.21497,30.10332,31.00424,30.10332,18.73303,0,30.94214-14.47693,30.94214-31.00425,0-15.75066-11.21497-30.10332-31.00424-30.10332m.80771,54.64577c-12.36441,0-21.90181-10.78003-21.90181-25.5055,0-14.042,8.10833-22.74059,20.31739-22.74059,12.36441,0,21.90181,10.78003,21.90181,25.5055.00005,14.07307-8.10828,22.74059-20.31739,22.74059"/><path class="cls-1" d="m463.32744,362.59709c8.32579,0,10.96643.5592,13.54494,2.39211l.86985-.5592-3.19983-8.2326c-2.9513.31066-6.95886.40387-11.86736.40387h-24.97737v1.05626c2.17464,1.27372,3.10664,2.79598,3.10664,8.88499v36.19233c0,6.08901-.96305,7.61127-3.10664,8.88499v1.0252h27.05882c5.43662,0,8.82284.0932,11.86736.40387l4.65996-9.59951-.86985-.65239c-3.44837,2.32998-6.49286,3.85224-16.49624,3.85224h-14.16626v-19.63395h12.0227c3.04452,0,6.49286.24854,8.72965.5592l3.91437-7.51807-.71454-.71453c-2.48532,1.05626-5.68515,1.61545-11.52563,1.61545h-12.42655v-18.32917h13.57599v-.03107Z"/><path class="cls-1" d="m783.77718,362.59709c8.32577,0,10.96643.5592,13.54494,2.39211l.86985-.5592-3.19983-8.2326c-2.9513.31066-6.95889.40387-11.86738.40387h-24.97735v1.05626c2.17464,1.27372,3.10664,2.79598,3.10664,8.88499v36.19233c0,6.08901-.96305,7.61127-3.10664,8.88499v1.0252h27.05884c5.43662,0,8.82284.0932,11.86738.40387l4.65996-9.59951-.86985-.65239c-3.44837,2.32998-6.49286,3.85224-16.49624,3.85224h-14.16626v-19.63395h12.02267c3.04449,0,6.49286.24854,8.72965.5592l3.91435-7.51807-.71451-.71453c-2.48532,1.05626-5.68515,1.61545-11.52565,1.61545h-12.42655v-18.32917h13.57599v-.03107Z"/><path class="cls-1" d="m733.41855,362.59709c8.32577,0,10.96643.5592,13.54494,2.39211l.86985-.5592-3.19983-8.2326c-2.9513.31066-6.95889.40387-11.86738.40387h-24.97735v1.05626c2.17464,1.27372,3.10664,2.79598,3.10664,8.88499v36.19233c0,6.08901-.96305,7.61127-3.10664,8.88499v1.0252h27.05884c5.43662,0,8.82284.0932,11.86738.40387l4.65996-9.59951-.86985-.65239c-3.44837,2.32998-6.49286,3.85224-16.49624,3.85224h-14.16626v-19.63395h12.02267c3.04449,0,6.49286.24854,8.72965.5592l3.91435-7.51807-.71451-.71453c-2.48532,1.05626-5.68515,1.61545-11.52565,1.61545h-12.42655v-18.32917h13.57599v-.03107Z"/><path class="cls-1" d="m540.341,367.00852c0-6.33754,1.21159-7.92193,3.51049-9.28885v-1.05626h-13.8556v1.05626c2.32998,1.36692,3.51049,2.95131,3.51049,9.28885v30.0412l-40.04457-40.69696h-3.26196v46.07145c0,6.33754-1.21159,7.92193-3.51049,9.28885v1.0252h13.8556v-1.02522c-2.32998-1.36692-3.51049-2.95131-3.51049-9.28885v-30.04119l40.19991,40.69696h3.13771v-46.07144h-.0311Z"/><path class="cls-1" d="m697.13304,367.00852c0-6.33754,1.21159-7.92193,3.51052-9.28885v-1.05626h-13.85563v1.05626c2.32998,1.36692,3.51052,2.95131,3.51052,9.28885v30.0412l-40.04457-40.69696h-3.29303v46.07145c0,6.33754-1.21159,7.92193-3.51052,9.28885v1.0252h13.85563v-1.02522c-2.32998-1.36692-3.51052-2.95131-3.51052-9.28885v-30.04119l40.19991,40.69696h3.13769v-46.07144Z"/><path class="cls-1" d="m946.87569,367.00852c0-6.33754,1.21159-7.92193,3.51052-9.28885v-1.05626h-13.85563v1.05626c2.32998,1.36692,3.51052,2.95131,3.51052,9.28885v30.0412l-40.04457-40.69696h-3.29303v46.07145c0,6.33754-1.21159,7.92193-3.51052,9.28885v1.0252h13.85563v-1.02522c-2.32998-1.36692-3.51052-2.95131-3.51052-9.28885v-30.04119l40.23096,40.69696h3.10664v-46.07144Z"/><path class="cls-1" d="m604.43094,405.3755l.15534-.40387v-12.89255l5.21915-4.65996v-.466h-21.77754l-4.31823,4.97062v.466h12.24016v11.77416c-3.04452,1.83292-6.80355,2.88917-11.52563,2.88917-14.57014,0-23.70364-9.59951-23.70364-24.51137,0-13.9488,7.70447-21.87074,20.597-21.87074,8.07725,0,14.8808,3.0445,17.76997,6.80353l.96305-.15533v-8.72965c-3.13771-2.23678-9.5995-4.0697-17.76997-4.0697-19.63395,0-31.00424,13.54494-31.00424,30.10332,0,14.974,10.00338,28.42574,30.19653,28.42574,9.10243.03107,17.61463-2.79597,22.95803-7.67339"/><path class="cls-1" d="m1011.18309,405.3755l.15534-.40387v-12.89255l5.21913-4.65996v-.466h-21.77752l-4.31823,4.97062v.466h12.24016v11.77416c-3.04449,1.83292-6.80355,2.88917-11.52565,2.88917-14.57014,0-23.70367-9.59951-23.70367-24.51137,0-13.9488,7.70445-21.87074,20.59703-21.87074,8.07728,0,14.88078,3.0445,17.76997,6.80353l.96305-.15533v-8.72965c-3.13769-2.23678-9.5995-4.0697-17.76997-4.0697-19.63398,0-31.00424,13.54494-31.00424,30.10332,0,14.974,10.00338,28.42574,30.19653,28.42574,9.10247.03107,17.58358-2.79597,22.95805-7.67339"/><path class="cls-1" d="m632.88774,412.02371c-2.17464-1.27372-3.13771-2.79598-3.13771-8.88499v-36.19233c0-6.08901.96307-7.61127,3.13771-8.88499v-1.0252h-15.12934v1.0252c2.17464,1.27372,3.13771,2.79598,3.13771,8.88499v36.19234c0,6.08901-.96305,7.61127-3.13771,8.88499v1.05626h15.12934v-1.05627Z"/><path class="cls-1" d="m882.10226,412.02371c-2.17464-1.27372-3.13769-2.79598-3.13769-8.88499v-36.19233c0-6.08901.96305-7.61127,3.13769-8.88499v-1.0252h-15.12931v1.0252c2.17464,1.27372,3.13769,2.79598,3.13769,8.88499v36.19234c0,6.08901-.96305,7.61127-3.13769,8.88499v1.05626h15.12931v-1.05627Z"/><path class="cls-1" d="m823.32467,413.07996h-15.12931v-1.05626c1.77081-.86985,3.10664-2.79598,3.10664-8.88499v-36.2234c0-6.08901-1.36693-8.01513-3.10664-8.88499v-1.05626h20.19315c14.91187,0,21.77752,5.93368,21.77752,16.24772,0,7.05207-4.25608,12.89255-12.4887,15.06719,2.39212.96306,4.41142,3.29304,8.07728,7.92193l6.89674,8.82285c3.85225,4.97062,5.43662,6.18222,7.51806,6.95887v1.0252h-9.84804c-2.08144,0-3.19983-.65239-4.8153-2.79598l-10.00338-13.45174c-3.91435-5.28129-4.7221-6.18222-7.36272-6.18222h-2.42317l-2.48532-5.03275v-.80772h5.28128c8.07728,0,12.33336-4.25609,12.33336-11.05964,0-7.45594-4.47357-10.9043-13.3896-10.9043h-7.26952v40.2931c0,6.08901,1.36693,8.01512,3.10664,8.88499v1.11838h.03105Z"/><path class="cls-1" d="m409.5826,398.07491v-145.42174h-177.23371v145.42174c0,2.05038.0932,4.03863.2796,5.99581h0c.03107.37279.06213.71453.12427,1.08732,0,.06213,0,.12427.03107.1864v.06213c.06213.43493.0932.86985.15533,1.30478.03107.2796.06213.52812.12427.80772.03107.1864.06213.40387.0932.59026.03107.31066.0932.59026.15533.90093.0932.62133.21746,1.24266.34173,1.83292v.03106c.03107.0932.03107.1864.06213.2796h0c10.9975,53.27885,87.29654,71.45268,87.29654,71.45268,0,0,76.26797-18.17383,87.29653-71.42161h0c0-.03106,0-.06213.03106-.0932v-.03106c.06213-.34173.12427-.71453.21746-1.05626.15533-.90093.31066-1.77078.43493-2.70277.06213-.34173.0932-.68346.15533-1.0252.03106-.1864.06213-.40387.06213-.59026.03106-.34173.0932-.71453.12427-1.08732h0c.03106-.15533.03106-.31066.06213-.466h0c.09321-1.98826.1864-4.00757.1864-6.05795Zm-16.21664.34172h0c-4.1629,0-8.32579,1.14945-11.99163,3.38624-3.6969,2.26784-7.92193,3.38624-12.08482,3.38624-4.19396,0-8.38793-1.11839-12.08482-3.38624-3.6969-2.26784-7.89086-3.4173-12.08482-3.4173s-8.38793,1.14945-12.08482,3.4173h0c-2.48531,1.52226-5.21915,2.51638-7.98406,3.01344-.68346.12427-1.36692.21746-2.05038.2796-1.33586.12427-2.70278.12427-4.06969,0-.68346-.06213-1.33586-.12427-2.01931-.24854-2.79597-.49706-5.52982-1.49118-8.04619-3.0445-3.6969-2.26784-7.92193-3.4173-12.08482-3.4173-4.19396,0-8.38793,1.14945-12.08482,3.4173-3.6969,2.26784-7.89086,3.38624-12.08482,3.38624s-8.38792-1.11839-12.08482-3.38624h0c-3.66583-2.23678-7.79766-3.35518-11.92949-3.38624h0v-7.6734c.21747,0,.466-.03106.68346-.03106,3.91436.12427,7.79766,1.24266,11.24603,3.38624h0c3.6969,2.23678,7.89086,3.38624,12.08482,3.38624s8.38792-1.14945,12.08482-3.38624c7.3938-4.53569,16.74478-4.53569,24.16965,0h0c7.3938,4.50463,16.74478,4.50463,24.16965,0h0c3.6969-2.23678,7.89086-3.38624,12.05376-3.38624,4.19396,0,8.38793,1.14945,12.08482,3.4173,7.3938,4.50463,16.74478,4.50463,24.16964,0h0c3.47943-2.11251,7.3938-3.23091,11.30816-3.38624.21746,0,.466.03106.68346.03106v7.33167c.03105.06215.03105.18641.03105.31067Zm-33.70703-10.71789c-.83879-.37279-1.67759-.77666-2.45425-1.27372-3.6969-2.26784-7.89086-3.4173-12.08482-3.4173s-8.38793,1.14945-12.08482,3.4173h0c-2.48531,1.52226-5.21915,2.51638-7.98406,3.01344-.68346.12427-1.36692.21746-2.05038.2796-1.33586.12427-2.70278.12427-4.06969,0-.68346-.06213-1.33586-.12427-2.01931-.24854-.2796-.06213-.52813-.12427-.80773-.1864l77.2621-77.04463v18.08063l-33.70703,57.37961Zm33.70703-45.10839v40.41736h0c-4.1629,0-8.32579,1.14945-11.99163,3.38624-1.86398,1.14945-3.85224,1.98825-5.93368,2.54744l17.9253-46.35104Zm0-33.76916l-80.83474,64.21421c-4.1629-8.26366-8.51219-19.54076-12.64402-31.81198l93.47875-42.80947v10.40724Zm-107.80036,64.36954h26.74815l-12.61295,10.03444c-.99412-.12427-1.98825-.1864-2.95131-.1864-3.85223,0-7.70446,1.0252-11.1839,2.95131,0,0,0-12.79935,0-12.79935Zm107.80036-77.44849l-97.42418,33.24103c-3.01344-9.69271-5.84048-19.57182-8.26366-28.70534l105.71889-11.96056v7.42487h-.03105Zm-144.80042,73.6584v-64.68021l22.46099-2.54744c-6.15114,22.77166-14.47693,49.67515-22.46099,67.22766Zm0,3.79009h25.2259v16.52731c-.40386.03106-.80773.0932-1.21159.0932-4.19396,0-8.38792-1.11839-12.08482-3.38624h0c-3.66583-2.23678-7.79766-3.35518-11.92949-3.38624h0s0-9.84804,0-9.84804Zm144.80042-87.3276l-108.70128,2.76491c-1.98825-7.98406-3.5105-14.8808-4.47356-19.91355h113.17484v17.14864Zm-114.20003-17.14864c-1.02519,5.09489-2.64064,12.08482-4.65996,20.16208l-25.94043.65239v-20.81448h30.60039Zm41.81535,197.17833c-14.47693-4.28715-65.27047-21.99499-71.73228-59.77171h0c3.91436.12427,7.79766,1.24266,11.24603,3.38624h0c3.6969,2.23678,7.89086,3.38624,12.08482,3.38624s8.38792-1.14945,12.08482-3.38624c7.3938-4.53569,16.74478-4.53569,24.16965,0h0c7.3938,4.50463,16.74478,4.50463,24.16965,0h0c3.6969-2.23678,7.89086-3.38624,12.05376-3.38624,4.19396,0,8.38793,1.14945,12.08482,3.4173,7.3938,4.50463,16.74478,4.50463,24.16964,0h0c3.47943-2.11251,7.3938-3.23091,11.30816-3.38624h0c-6.39968,37.74566-57.22428,55.4535-71.63908,59.74065Z"/><polygon class="cls-1" points="286.40439 427.8365 291.46821 426.62491 291.46821 441.38144 295.66217 441.38144 295.66217 422.18241 286.40439 424.1396 286.40439 427.8365"/><polygon class="cls-1" points="338.72019 429.73155 342.35495 429.73155 342.35495 425.91038 350.1526 425.91038 342.35495 444.95408 346.67317 444.95408 354.3155 426.06571 354.3155 422.61734 338.72019 422.61734 338.72019 429.73155"/><path class="cls-1" d="m312.22055,429.94901v-.06213c2.32998-.7456,3.72797-2.60958,3.72797-5.18808,0-3.54157-2.92024-6.05795-7.487-6.05795-4.59782,0-7.487,2.51638-7.487,6.05795,0,2.57852,1.42905,4.44249,3.72797,5.18808v.06213c-2.60958.71453-4.47356,2.79598-4.47356,5.46768,0,3.91436,3.2309,6.39968,8.23259,6.39968s8.26366-2.48531,8.26366-6.39968c0-2.6717-1.86398-4.78421-4.50463-5.46768Zm-3.7901-8.35685c2.08145,0,3.6037,1.11839,3.6037,3.38624,0,2.23678-1.52225,3.4173-3.6037,3.4173s-3.6037-1.18053-3.6037-3.4173c0-2.26784,1.52225-3.38624,3.6037-3.38624Zm0,17.14864c-2.45425,0-4.13183-1.33586-4.13183-3.63476s1.64652-3.63476,4.13183-3.63476c2.45425,0,4.1629,1.33586,4.1629,3.63476s-1.67758,3.63476-4.1629,3.63476Z"/><path class="cls-1" d="m329.24493,421.93389c1.80185,0,3.26197,1.0252,3.94543,2.8581l2.95131-1.92611c-1.14945-2.67171-3.54157-4.22503-6.89673-4.22503-5.84048,0-9.53738,5.06382-9.53738,12.14696,0,2.88917.62133,5.49875,1.92612,7.45594,1.46012,2.17465,3.6969,3.54157,6.74141,3.54157,4.69102,0,7.70447-3.19983,7.70447-7.54913,0-4.00757-2.60958-7.1142-6.9278-7.1142-2.64064,0-4.75316,1.49118-5.52982,3.6969h-.0932v-.5592c0-4.69102,2.11251-8.32578,5.71621-8.32578Zm-.99412,8.32578c2.36105,0,4.03863,1.61545,4.03863,4.13183s-1.67759,4.13183-4.03863,4.13183c-2.26784,0-3.91436-1.61545-3.91436-4.13183-.03107-2.51638,1.64651-4.13183,3.91436-4.13183Z"/></svg>