<svg id="LOGO" xmlns="http://www.w3.org/2000/svg" viewBox="0 0 1250 703"><title>dassault-systemes-catia-logo</title><path d="M336.48,241.07c19.51-.86,42.6,3,46.9,15.9,7.05,21.1-28.68,51.86-59.82,67-7.63,3.7-12.25,4.71-14.18,4.46a2,2,0,0,1-1.53-3.13C309,323,314,318.52,320.7,313.61c35.05-25.6,46.45-44.38,39.83-52-4.25-4.87-22-8.26-40.46-8.26-5,0-18.17,1.09-19.52-3.24C299.45,246.56,317.11,241.93,336.48,241.07Z" fill="#263186" fill-rule="evenodd"/><path d="M292.88,337.24c16.22-.85,35.91,1.69,47,9.27,5.5,3.77,9.36,10.71,7.12,18.66C340.6,387.73,316.77,415,263.82,436c-16.84,6.67-30.08,9.22-32.86,7.43-3-1.92,5.7-16.81,8.31-21.75,8.45-16,19-31.59,29.31-45.86,3.79-5.26,9.65-14.36,14.95-13.63,4.74.65-.82,10.33-4.47,16.48-6.15,10.33-23.07,39-17.48,40.73,12.34,3.8,70.24-35.68,61.7-57.66-4-10.21-29.1-11.18-44.93-11.18-7.2,0-22.93,1.53-23.8-3.42C253.61,342.59,278.44,338,292.88,337.24Z" fill="#263186" fill-rule="evenodd"/><path d="M419.28,310.58c9.81,1.61,17.81,2.85,19.65,6.59,2.06,4.24-8.63,4.5-14,4.6-25.82.45-41.38.91-42.16,8.84-1,10.2,11,20.48,22.92,34.88,10.87,13.15,23.22,26.12,19.66,38.23C420.9,418.79,400.46,422,381,422a262.87,262.87,0,0,1-43.73-4c-9.24-1.65-7.87-5.78-5.4-7.11,2.74-1.48,18.46-1.52,29.38-2.1,9-.48,35.1-.47,39.16-6.51,5-7.4-7.22-20.06-18.44-33.33-14-16.54-29.39-33.63-21.25-46.1C371.25,306.66,402.06,307.77,419.28,310.58Z" fill="#263186" fill-rule="evenodd"/><path d="M962.72,329.92c-34.85,0-54.74,8-62.35,42.38l-9.77,46.08c-.66,3.08,1.3,4,3.79,4h18.86l5.47-26.52h58.77L972,422.4h18.88c2.46,0,4.84-.94,5.5-4l9.78-46.08C1013.37,337.36,991.79,329.92,962.72,329.92Zm20.54,39.58s-.87,4.22-1.17,5.5c-.43,1.88-1.4,6.78-6.9,6.78H921.87l2.6-12.28c3.76-17.76,15.08-24.21,35.29-24.21C981.15,345.29,986.72,352.63,983.26,369.5Z" fill="#263186"/><path d="M491.78,375.36c-7.14,33.69,10.25,47,43.28,47h52.08l1.61-7.84c1-4.39-1.78-6.18-8-6.18h-44.6c-17.07,0-22.29-14.46-18.54-32.35,4.25-19.54,15.14-30.69,31.89-30.69h42.81c6.17,0,9.61-1.79,10.57-6.18l1.79-7.89H551.33C517.65,331.27,497.32,349.5,491.78,375.36Z" fill="#263186"/><path d="M879.58,331.65H859.81l-2.91,13.66h23.37l2.23-10.59A2.68,2.68,0,0,0,879.58,331.65Z" fill="#263186"/><polygon points="840.51 422.4 864.03 422.4 878.78 352.37 855.38 352.37 840.51 422.4" fill="#263186"/><path d="M849.71,339.73l1.81-8.55H745c-4.94,0-7.75,1.51-8.46,4.93l-2,9.2H773.8L757.41,422.4h17.64c4.94,0,7.8-1.84,8.81-6.5l15-70.59h43.79C847.27,345.31,848.9,343.45,849.71,339.73Z" fill="#263186"/><path d="M677,329.92c-34.84,0-54.73,8-62.32,42.38l-9.78,46.08c-.66,3.08,1.28,4,3.76,4h18.88L633,395.88h58.77l-5.47,26.52h18.87c2.46,0,4.83-.94,5.5-4l9.79-46.08C727.62,337.36,706,329.92,677,329.92Zm20.56,39.58s-.87,4.22-1.17,5.5c-.44,1.88-1.39,6.78-6.91,6.78H636.12l2.61-12.28c3.73-17.76,15.07-24.21,35.29-24.21C695.39,345.29,701,352.63,697.51,369.5Z" fill="#263186"/></svg>