<?xml version="1.0" encoding="UTF-8"?><svg id="LOGOS" xmlns="http://www.w3.org/2000/svg" viewBox="0 0 1250 703"><defs><style>.cls-1{fill:#005386;fill-rule:evenodd;stroke-width:0px;}</style></defs><g id="Layer_4"><path class="cls-1" d="M379.22831,233.11139c17.84191-.84358,38.94614,2.98609,42.87284,15.54263,6.43503,20.61898-26.2179,50.6815-54.68285,65.44771-6.97253,3.62809-11.19785,4.59859-12.94472,4.35969s-1.94097-1.91857-1.41094-3.05328c1.02273-2.17986,5.62132-6.58434,11.74282-11.37701,32.04825-25.02347,42.45479-43.39542,36.4005-50.83079-3.86699-4.77029-20.08895-8.08485-36.96039-8.08485-4.59859,0-16.62508,1.06752-17.85684-3.14287-.97048-3.50866,15.14696-8.06246,32.84703-8.88363M341.5214,327.66607c15.29626-.89584,33.86232,1.79165,44.29123,9.77946,5.97975,4.58765,8.62726,12.31254,6.71871,19.60372-6.0543,23.74691-28.51721,52.47315-78.38498,74.54783-15.90842,7.01732-28.3679,9.70481-30.98819,7.8161-2.82932-2.00815,5.35257-17.66275,7.82356-22.87347,7.9878-16.84157,17.91657-33.25017,27.62137-48.26274,3.58332-5.51682,9.10012-15.10218,14.0869-14.34818,4.47914.70173-.74652,10.89178-4.21039,17.3492-5.80795,10.86938-21.7313,41.0588-16.46085,42.843,11.62338,4.0163,66.2241-37.51281,58.16913-60.65504-3.73262-10.74993-27.44967-11.76522-42.35775-11.76522-6.77844,0-21.64918,1.59757-22.46289-3.6057-.87343-4.79269,22.53009-9.60775,36.1616-10.40654"/><path class="cls-1" d="M459.61396,302.22453c9.17478,1.67221,16.65494,2.94878,18.37196,6.82324,1.94097,4.38209-8.08484,4.65085-13.11642,4.7703-24.13512.46284-38.70725.94063-39.43138,9.15239-.94063,10.54838,10.33936,21.17887,21.44763,36.06455,10.16765,13.62406,21.7089,27.06148,18.39433,39.56575-4.16559,15.61726-23.28407,18.90196-41.48432,18.90196-13.73546-.12986-27.42975-1.52428-40.90948-4.16559-8.63728-1.68715-7.36071-5.97219-5.06143-7.35326,2.59044-1.49305,17.28202-1.57515,27.50193-2.17986,8.39839-.48524,32.84704-.48524,36.61697-6.71871,4.67324-7.65187-6.77842-20.76829-17.25215-34.49685-13.07164-17.11033-27.47953-34.80293-19.85006-47.70285,9.84665-16.7072,38.65499-15.56502,54.77243-12.6909M835.90666,349.03157c19.35735,0,26.87485-6.63661,29.9132-21.95526l4.59857-23.88875c.31353-1.59757-.64947-2.08281-1.85884-2.08281h-9.36891l-2.59041,13.75097-1.49305,7.30847-1.23178,6.33798c-1.717,8.66713-7.33834,12.56398-16.82662,12.56398-10.45133,0-13.23585-3.7998-11.6159-12.56398l.55989-2.82933,2.14999-10.81712,2.59041-13.75097h-9.35392c-1.30177-.13312-2.47578.78696-2.65762,2.08281l-4.60604,23.88875c-3.14288,16.81918,5.22567,21.95526,21.79102,21.95526ZM506.5479,374.95087c-1.40347,6.60674,3.73262,9.77946,14.23621,16.28915,11.46659,7.11437,14.0869,7.65187,13.01937,11.39941-.82118,3.03088-3.85206,3.15033-9.00307,3.15033h-20.4025c-2.32915,0-3.68036.97047-4.09096,3.02341l-.79876,4.2104h25.7252c11.78761,0,19.17072-.74652,21.85823-7.93555,1.59602-3.62898.85077-7.86189-1.88873-10.72754-2.13924-2.13762-4.60656-3.91943-7.30847-5.27793-14.71397-8.32373-18.56604-9.29423-17.61796-13.31051.50763-2.27689,2.07533-2.34409,7.622-2.34409h17.25964c2.32168,0,3.67288-.97047,4.06109-3.03088l.85105-4.35222h-21.83581c-12.3699,0-19.7978.04479-21.6865,8.95828l-.00002-.05226ZM620.07176,374.95087c-1.38105,6.60674,3.76993,9.77946,14.25116,16.28915,11.47406,7.11437,14.0869,7.65187,13.02685,11.39941-.85105,3.03088-3.87446,3.15033-9.00307,3.15033h-20.43239c-2.32168,0-3.65051.97047-4.06856,3.02341l-.79879,4.2104h25.75506c11.78759,0,19.17072-.74652,21.83581-7.93555,1.61233-3.62326.87497-7.86169-1.86631-10.72754-2.14521-2.14056-4.62034-3.92257-7.33087-5.27793-14.69905-8.32373-18.54367-9.29423-17.62541-13.31051.53005-2.27689,2.08278-2.34409,7.62202-2.34409h17.28204c2.29931,0,3.65798-.97047,4.06856-3.03088l.85105-4.35222h-21.85828c-12.39227,0-19.79782.04479-21.64918,8.95828l-.05969-.05226ZM907.81928,374.95087c-1.40347,6.60674,3.73262,9.77946,14.22874,16.28915,11.47406,7.11437,14.0869,7.65187,13.01933,11.39941-.84358,3.03088-3.84461,3.15033-9.00312,3.15033h-20.42487c-2.29931,0-3.65798.97047-4.06856,3.02341l-.79874,4.2104h25.73269c11.78764,0,19.17077-.74652,21.85076-7.93555,1.60213-3.627.85943-7.86215-1.88125-10.72754-2.14826-2.14022-4.62586-3.92214-7.33829-5.27793-14.69162-8.32373-18.53619-9.29423-17.59557-13.31051.48526-2.27689,2.08278-2.34409,7.62202-2.34409h17.25962c2.32168,0,3.65798-.97047,4.06852-3.03088l.84358-4.35222h-21.82834c-12.3699,0-19.80529.04479-21.6865,8.95828v-.05226ZM737.89555,340.10315c1.62104-3.62584.88627-7.87215-1.85884-10.74249-2.14443-2.15881-4.62217-3.95853-7.33834-5.33019-14.69158-8.30134-18.53619-9.24197-17.61794-13.26572.53005-2.23957,2.1052-2.36649,7.64439-2.36649h17.25962c2.32168,0,3.65798-.94808,4.06856-2.98609l.84358-4.40448h-21.84329c-12.3699,0-19.79782.06718-21.71639,8.95828-1.37362,6.60674,3.77741,9.80186,14.25858,16.31902,11.47406,7.11437,14.0869,7.64439,13.02685,11.39941-.85105,3.02341-3.85204,3.14286-9.01054,3.14286h-20.38751c-2.34409,0-3.68036.97047-4.09093,3.03088l-.79879,4.18054h25.73265c11.78759,0,19.17072-.74652,21.85823-7.93555l-.02989.00002ZM683.07085,340.10315c1.61101-3.6308.86772-7.87522-1.88125-10.74249-2.14006-2.15402-4.60964-3.95331-7.31592-5.33019-14.73637-8.30134-18.55857-9.24197-17.61794-13.26572.48526-2.23957,2.06041-2.36649,7.62202-2.36649h17.23725c2.34409,0,3.68036-.94808,4.09093-2.98609l.84358-4.40448h-21.82839c-12.39227,0-19.80529.06718-21.64918,8.95828-1.40347,6.60674,3.73262,9.80186,14.22874,16.31902,11.41437,7.09197,14.04958,7.60708,12.98206,11.37701-.82116,3.02341-3.84461,3.14286-9.00307,3.14286h-20.4025c-2.35157,0-3.68036.97047-4.11335,3.03088l-.79879,4.18054h25.75506c11.78759,0,19.17072-.74652,21.85076-7.93555v.02242ZM922.51082,301.13461c-2.32915,0-3.63557.79879-3.97151,2.53818l-.91821,4.74788h18.4391l-7.6967,39.56575h8.27892c2.32168,0,3.6804-.96302,4.14324-3.33696l7.06208-36.25866h15.40078c2.17241,0,2.98609-.97047,3.33694-2.88157l.84358-4.40448-44.91822.02987ZM520.32127,314.18385c-1.00626-.0598-1.91636.59473-2.17986,1.5677l-6.29319,32.26475h27.76321c15.565,0,26.33737-5.77809,29.70416-23.71705,2.51578-13.38516-3.29215-23.14223-19.12593-23.14223h-33.59356l-.14931.60468c-.74652,3.15033-.35834,6.62913,4.96438,6.62913h24.39641c11.76522,0,13.43742,5.88261,11.08586,16.22197-2.29931,10.16765-6.31561,15.39331-15.15442,16.1921h-16.69973l5.14356-26.65092-9.86157.02987ZM915.92647,343.64167c.41058-2.06041-.31353-2.85918-2.17984-2.85918h-25.17275l7.4055-38.0727c.12995-.74322-.3672-1.45106-1.11044-1.58101-.1115-.0195-.22495-.02506-.33781-.01656h-10.02581l-9.10012,46.88167h39.67027l.851-4.35222ZM841.03527,366.14935h-10.60064l-20.57419,18.27491-13.43742-18.27491h-10.60064c-1.73941,0-2.68747,1.08992-3.0533,2.98609l-8.5626,43.88813h9.04786c1.64099.16414,3.10433-1.03308,3.26846-2.67407.00046-.00447.00091-.00895.00132-.01342l6.39024-32.84704,10.36175,14.75876c.48371.90837,1.4345,1.47022,2.46352,1.45573h4.67324c1.14977-.06728,2.2249-.59142,2.98609-1.45573l16.13984-14.74382-6.39024,32.84704c-.34342,1.74686.33594,2.68749,2.23957,2.68749h9.01054l8.51781-43.85826c.37326-1.94097-.11195-3.03091-1.88121-3.03091ZM728.72826,369.13544l-8.52533,43.88813h43.29837l.89584-4.69564c.38821-1.9111-.09705-2.53818-2.23957-2.53818h-28.78595l2.44862-12.58638h25.43406c.67348.01836,1.2598-.45703,1.38105-1.11979l.97047-4.97932c.14006-.46161-.12061-.94935-.58222-1.08942-.11842-.03593-.24313-.04627-.36588-.03037h-25.3818l2.41873-12.55653h27.73337c1.30642,0,2.61283,0,2.98609-1.74686l1.06752-5.51682h-39.11785c-2.03052,0-3.24736.94063-3.62809,2.98609l-.00743-.01492ZM857.34679,369.13544l-8.54023,43.88813h43.29837l.91821-4.69564c.35832-1.9111-.09705-2.53818-2.27689-2.53818h-28.74863l2.44115-12.58638h25.44154c.67348.01836,1.2598-.45703,1.38105-1.11979l.97047-4.97932c.13045-.47298-.14726-.96213-.62022-1.09256-.10667-.02941-.21784-.03864-.32788-.02722h-25.44149l2.4262-12.55653h27.78559c1.30642,0,2.61283,0,2.94878-1.74686l1.06752-5.51682h-39.08796c-2.03799,0-3.22499.94063-3.63557,2.98609v-.01492ZM597.55659,367.70958l-4.13572,21.34311c-7.26366,2.23957-26.12833,6.29319-23.14223-8.78657l2.75467-14.13169h-9.9437c-1.00419-.04465-1.907.60774-2.17984,1.57515l-2.51578,12.87753c-4.74041,24.47104,18.4242,21.12661,33.42935,16.52804l-3.09814,15.90842h8.27897c2.34409,0,3.68036-.97047,4.15814-3.31457l8.45065-43.5671h-10.00343c-.96728.01039-1.80944.66335-2.06041,1.59757l.00747-.02989ZM721.29287,370.53144l.85105-4.38209h-44.89594c-2.32168,0-3.62809.74652-3.99388,2.53818l-.91821,4.72548h18.44661l-7.67428,39.56575h8.32371c2.32168,0,3.65051-.97047,4.13572-3.31457l7.04718-36.31089h15.41573c2.17984,0,2.98609-.94063,3.31457-2.85173l-.05226.02987ZM592.14429,320.83538c1.76178-9.12252,7.09197-12.43709,16.5803-12.43709,10.04075,0,12.6909,3.77741,11.03364,12.43709l-.53005,2.83678c-.21648.96302-.65694,3.48628-3.26978,3.48628h-25.08322l1.21684-6.29319.05226-.02987ZM577.96034,348.01631h8.88365l2.56804-13.62406h27.62137l-2.56804,13.62406h8.86123c1.27393.11988,2.41609-.7853,2.59041-2.05294l4.59857-23.67226c3.3892-17.96136-6.71871-21.78355-20.42487-21.78355-16.36378,0-25.73269,4.11335-29.29358,21.78355l-4.59857,23.67226c-.31353,1.57515.60468,2.05294,1.76926,2.05294h-.00747ZM764.38219,320.83538c1.76926-9.12252,7.09197-12.43709,16.5803-12.43709,10.04822,0,12.6909,3.77741,11.06348,12.43709l-.55242,2.83678c-.22395.96302-.65694,3.48628-3.24736,3.48628h-25.08322l1.23178-6.29319.00743-.02987ZM750.2505,348.01631h8.86123l2.59041-13.62406h27.62137l-2.56804,13.62406h8.86123c1.27274.11594,2.41253-.78735,2.59041-2.05294l4.59857-23.67226c3.3892-17.96136-6.71871-21.78355-20.43235-21.78355-16.36378,0-25.7028,4.11335-29.28611,21.78355l-4.59857,23.67226c-.31353,1.57515.60468,2.05294,1.79167,2.05294h-.02984Z"/></g></svg>