<?xml version="1.0" encoding="UTF-8"?>
<svg id="PASTE_LOGO_HERE" data-name="PASTE LOGO HERE" xmlns="http://www.w3.org/2000/svg" viewBox="0 0 1250 703">
  <defs>
    <style>
      .cls-1 {
        fill: #4dc9c3;
      }

      .cls-2 {
        fill: #211c35;
      }
    </style>
  </defs>
  <path class="cls-1" d="M355.91,298.2s-4.07,5.38-1.91,19.73c4.06,26.94-10.09,50.92-35.2,50.92h-18.51s-18.11-.91-29.01,9.98c-32.25,32.26-39.94,40.63-42.26,41.86-1.47.79-1.85-.93-1.85-.93l95.36-117.57c-2.03-21.19,23.15-26.85,32.4-11.11l8.75-2.47-7.75,9.57h-.01ZM363.19,384.53h-59.58v-9.24h59.58v9.24ZM298.65,232.85c-65.52,0-118.65,53.12-118.65,118.65s53.13,118.65,118.65,118.65,118.65-53.12,118.65-118.65-53.13-118.65-118.65-118.65"/>
  <path class="cls-1" d="M340.07,292.13c-2.6,0-4.69,2.1-4.69,4.69s2.1,4.69,4.69,4.69,4.69-2.1,4.69-4.69-2.1-4.69-4.69-4.69"/>
  <g>
    <path class="cls-2" d="M523.52,318.21v-44.63h23.58v153.47h-20.84v-9.69c-5.27,7.78-13.05,12.42-23.79,12.42-20.84,0-37.47-14.52-37.47-41.26v-37.05c0-26.74,16.84-41.26,36.84-41.26,9.27,0,16.42,2.95,21.68,8h-.01ZM523.73,351.89c0-10.94-6.31-19.36-17.47-19.36s-17.68,8.42-17.68,19.36v36.21c0,10.94,6.11,19.36,17.68,19.36s17.47-8.42,17.47-19.36v-36.21Z"/>
    <path class="cls-2" d="M648.36,351.46v75.58h-20.63v-7.78c-5.69,6.11-13.69,10.52-25.26,10.52-23.37,0-36.21-15.58-36.21-35.57s13.69-35.79,38.1-35.79c8.42,0,15.16,2.31,20.42,6.31v-12.84c0-11.79-5.69-19.36-16-19.36s-16,6.31-16,16.42v1.89h-23.58v-2.11c0-22.52,15.58-38.52,39.57-38.52s39.57,17.89,39.57,41.26h.01ZM625.62,394.19c0-9.05-5.69-16.42-17.68-16.42s-17.89,7.36-17.89,16.42,6.31,16.21,17.89,16.21,17.68-7.58,17.68-16.21Z"/>
    <path class="cls-2" d="M701.4,334.2v59.57c0,7.36,4.42,10.74,10.32,10.74h10.31v22.52h-14.52c-17.47,0-29.68-12-29.68-28.21v-64.62h-14.94v-21.26h14.94v-32.63h23.58v32.63h21.26v21.26s-21.26,0-21.26,0Z"/>
    <path class="cls-2" d="M818.66,351.46v75.58h-20.63v-7.78c-5.69,6.11-13.69,10.52-25.26,10.52-23.37,0-36.21-15.58-36.21-35.57s13.69-35.79,38.1-35.79c8.42,0,15.16,2.31,20.42,6.31v-12.84c0-11.79-5.69-19.36-16-19.36s-16,6.31-16,16.42v1.89h-23.58v-2.11c0-22.52,15.58-38.52,39.57-38.52s39.57,17.89,39.57,41.26h.01ZM795.92,394.19c0-9.05-5.69-16.42-17.68-16.42s-17.89,7.36-17.89,16.42,6.31,16.21,17.89,16.21,17.68-7.58,17.68-16.21Z"/>
    <path class="cls-2" d="M866.65,297.78h-25.05v-24.84h25.05v24.84ZM865.81,427.04h-23.58v-114.1h23.58v114.1Z"/>
    <path class="cls-2" d="M924.11,377.78l-10.52,14.1v35.15h-23.58v-153.47h23.58v85.89l33.47-46.52h27.58l-34.74,48.42,37.05,65.68h-26.94l-25.89-49.26h0Z"/>
    <path class="cls-2" d="M1012.31,388.1c0,11.79,5.47,19.36,17.27,19.36,10.74,0,16.63-7.58,16.63-19.36h.21v-75.15h23.58v114.1h-21.68v-9.89c-5.27,7.79-13.47,12.63-24.63,12.63-22.52,0-34.94-16.21-34.94-36.42v-80.42h23.58v75.15h-.01Z"/>
  </g>
</svg>