<svg id="LOGO" xmlns="http://www.w3.org/2000/svg" viewBox="0 0 1250 703"><title>nvidia-partner-datalogue-logo</title><path id="Datalogue" d="M241.82,405.57h766.36v-147H241.82v147Zm737.34,15.82H226V242.74h798V457.26l-44.84-35.87ZM303.21,359.87q14.31,0,21.84-6.9t7.54-20.21q0-13.18-7-20.85t-22.41-7.66H289.27v55.62Zm-29.76-69.68h31.27a61,61,0,0,1,17.95,2.51,38.16,38.16,0,0,1,14.06,7.66,34.27,34.27,0,0,1,9.17,13.18,50.36,50.36,0,0,1,3.26,19,45.5,45.5,0,0,1-3.33,18.14,35.43,35.43,0,0,1-9.29,12.94,38.94,38.94,0,0,1-14.13,7.78,58.85,58.85,0,0,1-17.82,2.58H273.45V290.19Zm129,62.53H377.79l-7.28,21.22H353.94l31.76-83.75H402l31.77,83.75H416.21l-22.85-66.8-11.17,32.52h15.7l4.51,13.06Zm52.34-48.6H426.37V290.19h72.57v13.93H470.56v69.82H454.74V304.12Zm125.15-13.93h15.82v69.68H637v14.07H579.89V290.19Zm220.7,39.42h20.2v34.66a44.73,44.73,0,0,1-12.94,8.16q-8,3.51-20.58,3.51a47.09,47.09,0,0,1-18.4-3.39,39.58,39.58,0,0,1-22.42-23,47.81,47.81,0,0,1-3-17.08,46.91,46.91,0,0,1,3.14-17.2,43.08,43.08,0,0,1,8.85-14.06,42,42,0,0,1,31.08-13.06,45.5,45.5,0,0,1,11.3,1.32,41.19,41.19,0,0,1,9.35,3.58,34.4,34.4,0,0,1,7.47,5.33,44.82,44.82,0,0,1,5.78,6.6l-11.17,9.92a34.89,34.89,0,0,0-9.36-9.3q-5.34-3.51-13.37-3.51a24.42,24.42,0,0,0-11,2.44,26.27,26.27,0,0,0-8.35,6.54,28.46,28.46,0,0,0-5.27,9.54A35.89,35.89,0,0,0,760,332.12a32.13,32.13,0,0,0,2.19,12.18,28.34,28.34,0,0,0,6,9.3,26.38,26.38,0,0,0,8.91,6,28.25,28.25,0,0,0,10.74,2.07q11.55,0,17.83-5.52V343.05H796l4.57-13.44ZM836,290.19h15.82v50.1a36.48,36.48,0,0,0,.94,8.6,17,17,0,0,0,3.08,6.53,13.61,13.61,0,0,0,5.65,4.14,26.62,26.62,0,0,0,17.33,0,13.61,13.61,0,0,0,5.65-4.14,17.12,17.12,0,0,0,3.08-6.53,36.48,36.48,0,0,0,.94-8.6v-50.1h15.82v52.86A37.06,37.06,0,0,1,902,356.11a29.59,29.59,0,0,1-6.66,10.48,31.46,31.46,0,0,1-10.73,7,42.22,42.22,0,0,1-29,0,31.37,31.37,0,0,1-10.73-7,29.45,29.45,0,0,1-6.66-10.48A37.06,37.06,0,0,1,836,343.05V290.19Zm83.46,0h54.25v13.93H935.24v19.72h28.25l.61,14.06H935.24v21.85h36.49l4.83,14.19H919.42V290.19ZM540,352.72H515.37l-7.28,21.22H491.52l31.76-83.75H539.6l31.77,83.75H553.79l-22.85-66.8-11.17,32.52h15.7L540,352.72Zm146.15-64.79h0a43.42,43.42,0,0,1,9.64,1.05l-4.53,13.71a29.09,29.09,0,0,0-5.11-.45,26.21,26.21,0,0,0-11.24,2.32,25.62,25.62,0,0,0-8.47,6.34,28.66,28.66,0,0,0-5.4,9.36,35.08,35.08,0,0,0,0,22.66,29,29,0,0,0,5.4,9.48,25.42,25.42,0,0,0,6.85,5.61l-4.79,14.46a43.28,43.28,0,0,1-13.23-9.21A44.71,44.71,0,0,1,646,349.2a45.45,45.45,0,0,1,0-34.4,44.65,44.65,0,0,1,9.23-14,43,43,0,0,1,31-12.87Zm40.18,26.87h0a45.33,45.33,0,0,1,0,34.4A44.51,44.51,0,0,1,717,363.26a43.49,43.49,0,0,1-13.81,9.48,42.25,42.25,0,0,1-17.08,3.45A44.07,44.07,0,0,1,676,375l4.73-14.28a29.16,29.16,0,0,0,5.38.5,25.5,25.5,0,0,0,19.72-8.86,29,29,0,0,0,5.4-9.48,35.08,35.08,0,0,0,0-22.66,28.66,28.66,0,0,0-5.4-9.36,25.31,25.31,0,0,0-7.08-5.6l4.59-13.85a43.62,43.62,0,0,1,22.95,23.35Z" fill="#005bdd"/></svg>