<?xml version="1.0" encoding="UTF-8"?><svg id="PASTE_LOGO_HERE" xmlns="http://www.w3.org/2000/svg" viewBox="0 0 1250 703"><defs><style>.cls-1{fill:#231f20;}.cls-2{fill:#4a90e2;}</style></defs><g id="Layer_1"><rect class="cls-2" x="141.75961" y="326.29699" width="35.79558" height="48.70146"/><path class="cls-1" d="M281.53282,400.20148c-.12176.2435-.36526.2435-.60877.48701,4.99191,4.26138,10.59257,7.91399,16.55851,10.59257,8.88802,3.89611,19.23708,5.84418,31.29069,5.84418h70.00838v-35.06506h-70.00836c-5.47892.12176-10.95783-.73053-15.94974-2.80034-4.13962-1.70454-7.79223-4.26138-10.83607-7.42698-1.21754-1.3393-2.31331-2.80034-3.40911-4.26138-.73053,3.40911-1.70454,6.81821-2.92208,10.2273-3.28735,8.27925-8.03575,15.82798-14.00167,22.40267h0l-.12178.00004Z"/><path class="cls-1" d="M298.7001,333.84572c1.3393-2.19157,2.92208-4.13963,4.74839-5.84418,3.04384-2.67858,6.45295-4.87015,10.34906-6.33119,4.87015-1.70455,9.86206-2.55683,14.97571-2.43507h70.00838v-35.18681h-70.00836c-9.61853-.24351-19.23708,1.33929-28.36861,4.62664-7.30522,2.80034-14.00167,6.8182-19.84585,11.93186,5.60068,5.84418,10.2273,12.54063,13.63641,19.84585,1.94807,4.26138,3.40911,8.76626,4.50488,13.3929h0Z"/><path class="cls-1" d="M276.41917,395.45308c17.65428-19.60235,22.15917-47.8492,11.44484-71.95642-3.77437-8.27925-9.13153-15.70623-15.82798-21.79391-6.08768-5.60067-13.27114-9.9838-21.06339-12.90589-9.13153-3.28735-18.75006-4.87015-28.36861-4.62664h-72.07818c-5.84418,0-8.64451,2.80033-8.64451,8.27925v26.90756h80.84445c5.11365-.12175,10.2273.73052,14.97571,2.43507,3.77437,1.46104,7.30522,3.65261,10.2273,6.33119,3.04384,2.92209,5.47892,6.33119,7.18346,10.22731,1.82631,3.89611,2.67858,8.27925,2.67858,12.54063,0,3.89611-.73053,7.79224-2.19157,11.44485-1.3393,3.53085-3.40911,6.81821-6.08768,9.49679-3.04384,3.28735-6.81821,5.84418-10.95783,7.42698-5.11365,1.94807-10.59257,2.92208-15.94973,2.67858h-80.84442v26.54231c0,5.60068,2.92209,8.401,8.64451,8.401h72.19993c12.05361,0,22.40267-1.94807,31.29069-5.84418,8.52276-3.65261,16.19324-9.13153,22.52443-15.82798v.2435Z"/><path class="cls-2" d="M510.30797,425.16098h-32.14296c-5.47892,0-10.2273-.85227-14.36692-2.67858-4.01786-1.82631-7.54874-4.26138-10.34906-7.30522-2.43507-2.67858-4.38314-5.84418-5.84416-9.37503-1.3393-3.53085-2.06983-7.30522-2.06983-11.3231s.85229-8.64452,2.6786-12.54063c1.70454-3.89611,4.13962-7.18346,7.30522-10.10556,2.6786-2.55683,5.96592-4.50488,9.61853-5.96592,3.77437-1.46104,8.03575-2.19157,13.02766-2.19157h32.14296v16.19324h-32.14296c-2.80032,0-5.11367.36526-6.93997,1.09578-1.82631.73053-3.40909,1.70454-4.74839,2.92208-1.3393,1.3393-2.43507,2.92208-3.28736,4.74839s-1.21754,3.77437-1.21754,5.84418.36525,3.65261.97401,5.35715,1.58278,3.1656,2.80032,4.38314c1.3393,1.46104,3.04384,2.55683,4.99191,3.40911s4.5049,1.21754,7.30522,1.21754h32.14296v16.19324l.12176.12176Z"/><path class="cls-2" d="M547.0776,425.16098c-5.47892,0-10.2273-.85227-14.36692-2.67858-4.01786-1.82631-7.54874-4.26138-10.34906-7.30522-2.43507-2.67858-4.38314-5.84418-5.84416-9.37503-1.3393-3.53085-2.06983-7.30522-2.06983-11.3231s.85229-8.64452,2.6786-12.54063c1.70454-3.89611,4.13962-7.18346,7.30522-10.10556,2.6786-2.55683,5.96592-4.50488,9.61853-5.96592,3.77437-1.46104,8.03575-2.19157,13.02766-2.19157h12.9059c4.99191,0,9.25329.73053,13.02766,2.19157s6.93997,3.40911,9.61853,5.96592c3.04384,2.80034,5.47892,6.20944,7.30522,10.10556,1.70454,3.89611,2.6786,8.03575,2.6786,12.54063s-.73053,7.79223-2.06983,11.3231c-1.3393,3.53085-3.28736,6.57469-5.84416,9.37503-2.80032,3.04384-6.33121,5.47892-10.34906,7.30522s-8.888,2.67858-14.36692,2.67858h-12.90597ZM547.0776,380.11212c-2.80032,0-5.11367.36526-6.93997,1.09578-1.82631.73053-3.40909,1.70454-4.74839,2.92208-1.3393,1.3393-2.43507,2.92208-3.28736,4.74839s-1.21754,3.77437-1.21754,5.84418.36525,3.65261.97401,5.35715,1.58278,3.1656,2.80032,4.38314c1.3393,1.46104,3.04384,2.55683,4.99191,3.40911s4.5049,1.21754,7.30522,1.21754h12.9059c2.92208,0,5.35715-.36526,7.30522-1.21754s3.65261-1.94807,4.99191-3.40911c1.21754-1.21754,2.19155-2.67858,2.80032-4.38314.60877-1.70454.97401-3.40911.97401-5.35715s-.36525-4.01788-1.21754-5.84418-1.94807-3.40911-3.28736-4.74839c-1.3393-1.21754-2.92208-2.19157-4.74839-2.92208-1.82631-.73053-4.13962-1.09578-6.93997-1.09578h-12.9059.2436Z"/><path class="cls-2" d="M647.40262,426.50026c-2.19155,0-4.26138-.48701-6.08768-1.3393-1.82631-.85227-3.28736-2.31331-4.26138-4.26138l-18.6283-38.59591c-.12176-.48701-.60877-.73053-1.21754-.73053s-.73053.12176-.97401.36526c-.24352.2435-.48701.73053-.48701,1.21754v42.00502h-15.82798v-44.92712c0-3.40911.48701-6.33119,1.46106-8.52276.97401-2.19157,2.43507-4.13962,4.26138-5.47892,1.3393-1.09578,2.92208-1.94807,4.74839-2.67858,1.82631-.73052,3.77437-1.09578,5.96592-1.09578,3.89613,0,7.0617,1.09578,9.49677,3.16559s4.5049,4.87015,6.08768,8.27925l13.87991,30.07315c.24352.73053.85229,1.21754,1.58278,1.21754s1.21754-.36526,1.58278-1.21754l13.87991-30.07315c1.58278-3.40911,3.53085-6.08768,5.96592-8.27925,2.43507-2.06981,5.60068-3.16559,9.49677-3.16559s4.13962.36526,5.96592,1.09578c1.82631.73053,3.40909,1.5828,4.74839,2.67858,1.82631,1.46104,3.1656,3.28735,4.26138,5.47892.97401,2.19157,1.46106,5.11365,1.46106,8.52276v44.9271h-15.82798v-42.00502c0-.48701-.12176-.97403-.48701-1.21754-.24352-.2435-.60877-.36526-.97401-.36526-.60877,0-.97401.2435-1.21754.73053l-18.6283,38.59591c-.97401,1.94807-2.43507,3.40911-4.26138,4.26138s-3.89613,1.3393-6.08768,1.3393l.12176.00002Z"/><path class="cls-2" d="M748.21468,363.91888c4.3831,0,8.03571.60877,10.95783,1.82631s5.47892,2.80034,7.42694,4.87015c2.06983,2.06981,3.77433,4.62664,4.99187,7.42698s1.82631,5.84418,1.82631,8.88802-.48704,5.35715-1.46106,7.79223c-.97401,2.55683-2.31335,4.74839-3.89613,6.81821-2.06983,2.55683-4.74842,4.50488-8.03571,6.08768-3.16557,1.46104-7.1835,2.19157-11.93185,2.19157h-28.24687v15.46271h-16.43675v-57.46773c0-2.55683,1.33926-3.77437,4.01786-3.77437h40.66576l.1218-.12176ZM748.57993,394.72256c1.82631,0,3.28736-.2435,4.3831-.73053,1.09581-.48701,2.06983-1.21754,2.6786-2.19157.97401-1.21754,1.46106-2.67858,1.46106-4.38314s-.48704-3.28735-1.58278-4.62664c-.60877-.85227-1.58278-1.46104-2.6786-1.94807-1.09581-.48701-2.5568-.73053-4.26138-.73053h-27.39458c-.73049,0-1.21754.36526-1.21754,1.21754v13.3929h28.61211v.00004Z"/><path class="cls-2" d="M801.29926,425.16098c-3.89613,0-7.1835-.36526-9.86202-1.09578-2.6786-.73053-4.99187-1.94807-6.69645-3.53085-1.70458-1.5828-2.92212-3.65261-3.77433-6.08768-.73049-2.43507-1.21754-5.35715-1.21754-8.88802v-41.76151h16.55847v39.93521c0,3.77437,1.94803,5.72242,5.84416,5.72242h25.44655c4.01786,0,6.08768-1.94807,6.08768-5.72242v-39.93521h16.55847v41.76151c0,6.81821-1.70458,11.8101-4.99187,14.97571-3.28736,3.1656-8.888,4.62664-16.55847,4.62664h-27.5163l.12165-.00002Z"/><path class="cls-2" d="M926.46202,363.91888v16.19324h-26.90753v45.04886h-16.55847v-45.04886h-26.90753v-16.19324h70.37354Z"/><path class="cls-2" d="M949.59522,363.91888v61.36386h-16.55847v-61.36385h16.55847v-.00002Z"/><path class="cls-2" d="M1034.82279,413.35086c0,2.31331-.36525,4.26138-.97401,5.96592s-1.46106,3.04384-2.5568,4.13962c-1.09581,1.09578-2.31335,1.82631-3.65261,2.31331s-2.80032.73053-4.3831.73053c-2.5568,0-4.87015-.36526-6.81818-1.09578-1.94803-.73053-3.65261-1.94807-5.11367-3.65261l-33.60398-38.96118c-.48704-.48701-.97401-.85227-1.46106-.85227s-.73049.12176-1.09581.48701c-.24352.2435-.48704.73053-.48704,1.21754v41.51799h-16.19322v-48.33621c0-2.55683.36525-4.74839,1.09581-6.57469.73049-1.82631,1.70458-3.28735,2.92212-4.50488,1.21754-1.09578,2.80032-1.94807,4.5049-2.43507,1.70458-.48702,3.65261-.73052,5.72244-.73052s5.35719.48702,7.30522,1.33929,4.01786,2.43507,5.84416,4.74839l29.95137,35.79557c.24352.2435.48704.48701.73049.60877s.48704.12176.85229.12176c.85229,0,1.21754-.48701,1.21754-1.5828v-39.69169h16.0715v49.432h.12165Z"/><path class="cls-2" d="M1075.12331,425.16098c-5.47892,0-10.22734-.85227-14.36692-2.67858-4.01786-1.82631-7.54874-4.26138-10.34906-7.30522-2.43507-2.67858-4.3831-5.84418-5.84416-9.37503-1.33926-3.53085-2.06983-7.30522-2.06983-11.3231s.85229-8.64452,2.6786-12.54063c1.70458-3.89611,4.13965-7.18346,7.30522-10.10556,2.6786-2.55683,5.96596-4.50488,9.61857-5.96592,3.77433-1.46104,8.03571-2.19157,13.02766-2.19157h33.11701v16.19324h-33.11701c-2.80032,0-5.11367.36526-6.93997,1.09578-1.82631.73053-3.40909,1.70454-4.74842,2.92208-1.33926,1.3393-2.43507,2.92208-3.28736,4.74839s-1.21754,3.77437-1.21754,5.84418.36525,3.65261.97401,5.35715,1.58278,3.1656,2.80032,4.38314c1.33926,1.46104,3.04384,2.67858,4.99187,3.53085,1.94803.97403,4.5049,1.46104,7.30522,1.46104h15.70625c.73049,0,1.21754-.36526,1.21754-1.21754v-16.43675h16.31502v29.70789c0,2.55683-1.33926,3.89611-3.89613,3.89611h-29.34261l.12172.00004Z"/><path class="cls-1" d="M487.54006,277.71727c5.35715,0,10.10554.73052,14.12343,2.31332,4.01786,1.5828,7.54874,3.65261,10.47082,6.45295,3.28736,3.04384,5.96592,6.69645,7.79223,10.83608,1.94807,4.13963,2.80032,8.64451,2.80032,13.51466s-.73053,8.52276-2.31331,12.29712c-1.46106,3.77436-3.65261,7.18347-6.33121,10.10556-3.04384,3.28735-6.81821,5.96593-11.20135,7.91399s-9.49677,2.92209-15.46273,2.92209h-35.79557c-2.92208,0-4.26138-1.46104-4.26138-4.26138v-57.95475c0-2.80033,1.46106-4.13963,4.26138-4.13963h35.91737ZM466.47665,295.37156c-.85229,0-1.21754.48702-1.21754,1.33929v28.49036c0,.97403.36525,1.33929,1.21754,1.33929h21.06337c3.1656,0,5.72244-.48702,7.91399-1.33929,2.19155-.97403,3.89613-2.19157,5.35715-3.77436,1.3393-1.33929,2.31331-2.92209,3.04384-4.7484s1.09578-3.65261,1.09578-5.72242-.48701-4.26138-1.3393-6.33119c-.85229-1.94806-2.06983-3.65261-3.53085-5.11365-1.46106-1.33929-3.1656-2.31332-5.11367-3.16559-1.94807-.73052-4.38314-1.21754-7.42698-1.21754h-21.06337l.00004.24349Z"/><path class="cls-1" d="M600.77097,277.71727v17.53253h-50.40601c-1.09578,0-1.58278.60877-1.58278,1.70455v7.54872h51.62355v12.78414h-51.62355v8.03574c0,1.21754.48701,1.70455,1.58278,1.70455h50.40601v16.92376h-60.38983c-6.20944,0-9.25329-3.04384-9.25329-9.25328v-48.0927c0-5.96593,3.1656-8.88802,9.37505-8.88802,0,0,60.26807,0,60.26807,0Z"/><path class="cls-1" d="M649.22892,277.71727c5.35715,0,10.10554.73052,14.12343,2.31332,4.01786,1.5828,7.54874,3.65261,10.47082,6.45295,3.28736,3.04384,5.96592,6.69645,7.79223,10.83608,1.94807,4.13963,2.80032,8.64451,2.80032,13.51466s-.73053,8.52276-2.31331,12.29712c-1.46106,3.77436-3.65261,7.18347-6.33121,10.10556-3.04384,3.28735-6.81821,5.96593-11.20135,7.91399s-9.49677,2.92209-15.46273,2.92209h-35.79557c-2.92208,0-4.26138-1.46104-4.26138-4.26138v-57.95475c0-2.80033,1.46106-4.13963,4.26138-4.13963h35.91737ZM628.16555,295.37156c-.85229,0-1.21754.48702-1.21754,1.33929v28.49036c0,.97403.36525,1.33929,1.21754,1.33929h21.06337c3.1656,0,5.72244-.48702,7.91399-1.33929,2.19155-.97403,3.89613-2.19157,5.35715-3.77436,1.3393-1.33929,2.31331-2.92209,3.04384-4.7484s1.09578-3.65261,1.09578-5.72242-.48701-4.26138-1.3393-6.33119c-.85229-1.94806-2.06983-3.65261-3.53085-5.11365-1.46106-1.33929-3.1656-2.31332-5.11367-3.16559-1.94807-.73052-4.38314-1.21754-7.42698-1.21754h-21.06337l.00004.24349Z"/><path class="cls-1" d="M710.83629,277.71727v66.234h-17.89781v-66.234h17.89781Z"/><path class="cls-1" d="M789.12389,344.07303h-34.6998c-5.96596,0-11.07955-.97403-15.46273-2.92209-4.3831-1.94806-8.15751-4.50488-11.20135-7.91399-2.6786-2.92209-4.74842-6.33119-6.33121-10.10556-1.46106-3.77436-2.31335-7.91399-2.31335-12.29712s.97401-9.37503,2.80032-13.51466c1.94803-4.13963,4.5049-7.79224,7.79227-10.83608,2.92212-2.80033,6.45293-4.87015,10.47079-6.45294s8.76628-2.31332,14.1234-2.31332h34.6998v17.53253h-34.6998c-3.04384,0-5.47892.36526-7.42694,1.21754-1.94803.73052-3.65261,1.82631-5.11367,3.16559-1.46106,1.46104-2.6786,3.16559-3.53089,5.11365s-1.33926,4.01788-1.33926,6.33119.36525,3.89611,1.09581,5.72242c.73049,1.82631,1.70458,3.40911,3.04384,4.7484,1.46106,1.5828,3.28736,2.80034,5.35719,3.77436,2.19155.97403,4.74842,1.33929,7.91399,1.33929h34.6998v17.41078l.1218.00002Z"/><path class="cls-1" d="M881.53496,341.15094c.24352.48702.48704.97403.60877,1.46104.12172.48702.36525.97403.48704,1.46104h-19.96763c-.12172-.48702-.24352-.85227-.36525-1.21754s-.24352-.73052-.36525-.97403l-3.53089-8.03574h-39.2047l-3.40909,7.91399c-.12172.36526-.24352.73052-.36525,1.21754-.12172.36526-.24352.73052-.24352,1.21754h-20.4546c.12172-.48702.24352-.97403.48704-1.46104.12172-.48702.36525-.97403.60877-1.46104l23.74197-52.47583c1.94803-4.13963,4.3831-7.18347,7.42694-9.25328,3.04384-2.06981,6.93997-3.04384,11.81012-3.04384s8.52276.97403,11.5666,3.04384,5.60064,5.11366,7.54874,9.25328l23.86369,52.47583-.24352-.12175ZM851.82703,319.11352l-10.22734-23.74197c-.36525-.73052-.73049-1.21754-1.21754-1.5828s-1.09581-.48702-1.70458-.48702-1.09581.12175-1.70458.48702c-.48704.2435-.97401.85227-1.21754,1.5828l-10.10554,23.74197h26.29876-.12165Z"/><path class="cls-1" d="M947.89071,277.71727v17.53253h-28.97736v48.70147h-17.89781v-48.70147h-29.09916v-17.53253h75.97432Z"/><path class="cls-1" d="M1024.35201,277.71727v17.53253h-50.40605c-1.09581,0-1.58278.60877-1.58278,1.70455v7.54872h51.62359v12.78414h-51.62359v8.03574c0,1.21754.48704,1.70455,1.58278,1.70455h50.40605v16.92376h-60.38979c-6.20941,0-9.25325-3.04384-9.25325-9.25328v-48.0927c0-5.96593,3.16557-8.88802,9.37505-8.88802h60.26807-.00007Z"/><path class="cls-1" d="M1072.80996,277.71727c5.35719,0,10.10554.73052,14.1234,2.31332,4.01786,1.5828,7.54874,3.65261,10.47079,6.45295,3.28736,3.04384,5.96596,6.69645,7.79227,10.83608,1.94803,4.13963,2.80032,8.64451,2.80032,13.51466s-.73049,8.52276-2.31335,12.29712c-1.46106,3.77436-3.65261,7.18347-6.33121,10.10556-3.04384,3.28735-6.81818,5.96593-11.20135,7.91399-4.3831,1.94806-9.49677,2.92209-15.46273,2.92209h-35.79561c-2.92212,0-4.26138-1.46104-4.26138-4.26138v-57.95475c0-2.80033,1.46106-4.13963,4.26138-4.13963h35.91748ZM1051.74658,295.37156c-.85229,0-1.21754.48702-1.21754,1.33929v28.49036c0,.97403.36525,1.33929,1.21754,1.33929h21.06337c3.16557,0,5.84416-.48702,7.91399-1.33929,2.19155-.97403,3.89613-2.19157,5.35719-3.77436,1.33926-1.33929,2.31335-2.92209,3.04384-4.7484s1.09581-3.65261,1.09581-5.72242-.48704-4.26138-1.33926-6.33119c-.85229-1.94806-2.06983-3.65261-3.53089-5.11365-1.46106-1.33929-3.16557-2.31332-5.11367-3.16559-1.94803-.73052-4.5049-1.21754-7.42694-1.21754h-21.06337l-.00007.24349Z"/></g></svg>