<?xml version="1.0" encoding="utf-8"?>
<!-- Generator: Adobe Illustrator 23.0.3, SVG Export Plug-In . SVG Version: 6.00 Build 0)  -->
<svg version="1.1" id="Layer_1" xmlns="http://www.w3.org/2000/svg" xmlns:xlink="http://www.w3.org/1999/xlink" x="0px" y="0px"
	 viewBox="0 0 1250 703" style="enable-background:new 0 0 1250 703;" xml:space="preserve">
<style type="text/css">
	.st0{fill:#007DB8;}
</style>
<title>nvidia-partner-name-logo</title>
<g id="LOGO">
	<g id="layer1">
		<g id="g3460">
			<path id="path3462" class="st0" d="M625,149.5c-111.6,0-202,90.4-202.1,201.9s90.4,202,201.9,202.1s202-90.4,202.1-201.9
				c0-53.6-21.3-104.9-59.1-142.8C730,170.7,678.6,149.4,625,149.5 M625,125c125.1,0,226.5,101.4,226.5,226.5S750.1,578,625,578
				S398.5,476.6,398.5,351.5S500,125,625,125"/>
		</g>
		<g id="g3464">
			<path id="path3466" class="st0" d="M517.9,349.7c0-13.2-8.8-20.7-21.2-20.7h-7.6v41.4h7.4C508,370.4,517.9,364.1,517.9,349.7
				 M652.9,364.6l-55.9,44l-51.1-40.2c-7.8,18.3-25.8,30.1-45.7,30h-43.8V301h43.7c19.9-0.2,38,11.7,45.7,30.1l51.1-40.2l18.9,14.9
				l-46.8,36.8l9,7l46.8-36.8l19,14.9L597,364.6l9,7.1l46.9-36.9V301h34v69h33.9v28.5h-67.9L652.9,364.6z M763.8,370h33.9v28.5
				h-67.9V301h34L763.8,370z"/>
		</g>
	</g>
</g>
</svg>
