<?xml version="1.0" encoding="utf-8"?>
<!-- Generator: Adobe Illustrator 23.0.3, SVG Export Plug-In . SVG Version: 6.00 Build 0)  -->
<svg version="1.1" id="Layer_1" xmlns="http://www.w3.org/2000/svg" xmlns:xlink="http://www.w3.org/1999/xlink" x="0px" y="0px"
	 viewBox="0 0 1250 703" style="enable-background:new 0 0 1250 703;" xml:space="preserve">
<style type="text/css">
	.st0{fill:#808080;}
	.st1{fill:#007DB8;}
</style>
<title>nvidia-partner-dell-emc-logo</title>
<g id="LOGO">
	<path class="st0" d="M1021.3,421.5c27.8,0,49.7-13.9,53.7-43.7l-2-2h-8l-2,2c-4,21.9-17.9,33.8-41.7,33.8
		c-29.8,0-51.7-21.9-51.7-61.6s21.9-61.6,51.7-61.6c23.8,0,37.8,11.9,41.7,31.8l2,2h8l2-2c-4-27.8-25.8-41.7-53.7-41.7
		c-33.8,0-63.6,23.9-63.6,71.6S987.6,421.5,1021.3,421.5 M933.9,417.5V282.4l-2-2H918l-2,2l-51.7,121.2h-2l-51.7-121.2l-2-2h-13.9
		l-2,2v135.1l2,2h8l2-2V302.3h2l49.7,115.3l2,2h9.9l2-2L920,302.3h2v115.3l2,2h8L933.9,417.5z M766.9,417.5v-6l-2-2h-73.5l-2-2V356
		l2-2H761l2-2v-6l-2-2h-69.6l-2-2v-49.6l2-2h73.5l2-2v-6l-2-2h-85.5l-2,2v135.2l2,2h85.5L766.9,417.5z"/>
	<path class="st1" d="M645.9,391.9v27.6h-89.8V280.4h31.6v111.5H645.9z M556.1,280.4h31.6 M230.9,419.6c31.7,0,59.4-21.4,67.4-52.1
		L377,429l78.7-61.5v52h89.8v-27.6h-58.2V280.4h-31.6v52l-75.5,59l-16.9-13.2l36.1-28.2l39.3-30.7l-22.5-17.5l-75.4,59L324,347.5
		l75.5-59L377,271l-78.7,61.5c-8-30.7-35.7-52.1-67.4-52.1h-56.4v139.1H230.9z M206.1,391.9v-83.8h24.8c21,0,38,18.8,38,41.9
		s-17,41.9-38,41.9L206.1,391.9z"/>
</g>
</svg>
