<?xml version="1.0" encoding="UTF-8"?><svg id="LOGO" xmlns="http://www.w3.org/2000/svg" viewBox="0 0 1250 703"><defs><style>.cls-1{fill:#00a0e8;stroke-width:0px;}</style></defs><path class="cls-1" d="M913.28314,380.39059c.23436-.23414.36825-.56062.36825-.89116v-19.21291c0-.70093-.56276-1.26369-1.26369-1.26369l-89.57768-.10668c-.32622,0-.65273.13175-.89116.37039-.2365.23222-.36825.56062-.36825.8933v19.42413c0,.33054.13175.65702.36825.89545.23843.23436.56494.37232.89116.37232h30.20038l.00617,81.28302c0,.33483.12768.6568.37232.89545.23222.23414.56062.36803.89952.36803h22.87824c1.15487-.01671,2.45819-.40167,3.5398-1.3346,1.01455-.86181,1.85773-2.33887,1.84085-4.42668v-76.88976l29.84041-.00407c.33701,0,.65916-.13817.89545-.37253ZM753.84689,442.95855c0-.33483-.14224-.66537-.3766-.89545-.23007-.23843-.56276-.37232-.89116-.37232h-56.65159v-22.86582h48.84213c.33676,0,.65702-.1296.89545-.37232.23439-.23007.3661-.55226.3661-.89116v-19.26732c0-.33483-.13171-.64866-.3661-.89138-.23843-.23414-.55869-.36803-.89545-.36803h-48.66218v-15.97045h56.47164c.33483,0,.65488-.12982.89116-.36825.23436-.24271.3766-.56062.3766-.89545v-19.61671c0-.33676-.14224-.65466-.3766-.89737-.23629-.23864-.55633-.37039-.89116-.37039h-86.07152c-.33461,0-.66109.13175-.89116.37039-.23843.23843-.37446.56062-.37446.89737v91.22634c-.00428,3.84507,1.93507,6.89944,4.55007,8.99988,2.62979,2.10858,5.90781,3.23004,8.56887,3.24674h69.80416c1.45799-.02506,2.80738-.76156,3.92883-1.79496.56276-.51049.958-1.06275,1.23627-1.54818.14653-.24271.25321-.47279.33676-.67351.07755-.23864.15488-.3012.17995-.76991v-15.91175ZM843.80956,443.18434c0-.33461-.12557-.65273-.36186-.89116-.24057-.23843-.56062-.36825-.8933-.36825h-49.45095l.00625-81.66348c0-.33483-.14014-.65702-.37857-.8933-.24268-.2365-.55869-.37446-.89116-.37446h-27.22544c-.69665,0-1.27205.56897-1.27205,1.26348v90.78482c0,4.59827,1.98326,7.73619,4.51262,9.72374,2.55627,2.00833,5.68605,2.88278,8.04785,2.89114h63.03646c1.35988-.04199,2.46016-.85774,3.4057-2.03339.92694-1.22192,1.41643-2.48969,1.47088-3.57322l-.00643-.00835.00643-.0377c-.00643-1.79068-.00643-10.82827-.00643-14.81986ZM634.49152,404.64542c-11.31348-15.99958-23.28609-32.94495-25.88227-36.7084h0c-.00428-.00643-.01264-.00643-.01264-.01264-1.47492-2.14843-3.43098-4.18611-5.00186-5.48729-4.12355-3.46868-9.48103-5.56891-15.30315-5.56891-13.16714,0-23.83645,10.67124-23.83645,23.83217v.00407h-.00621v36.30887c0,18.91193,0,39.30884.00621,45.30876,0,.33483.13389.66109.37253.89973.2301.23007.56062.36803.88902.36803h27.77556c.33054,0,.65702-.13796.8933-.36803.2365-.23864.37039-.5649.37039-.89973v-63.34173l29.81731,42.88184h-19.374c-.3348,0-.66109.13817-.89759.37253-.23625.23843-.37018.56469-.37018.89523v19.19213c0,.3389.13392.65702.37018.89973.24486.23843.56279.36803.89759.36803h36.77545c9.78843,0,17.71507-7.93285,17.71507-17.71935,0-3.77801-1.18829-7.29275-3.20904-10.17125-.02525-.03342-10.66524-15.05829-21.98922-31.0538ZM965.35124,356.94337c-5.83476,0-11.18195,2.09616-15.32196,5.57319-1.56065,1.28662-3.5272,3.33886-5.00405,5.49157-2.58994,3.75081-14.5583,20.70882-25.88227,36.70004-11.31155,15.99958-21.9663,31.02874-21.98494,31.05787-2.02718,2.87871-3.2114,6.39752-3.2114,10.17553,0,9.78651,7.92471,17.71528,17.711,17.71528h36.78166c.33697,0,.65488-.12982.89545-.37253.23843-.23843.36396-.55633.36396-.89116v-19.1962c0-.33483-.12553-.64845-.36396-.89116-.24057-.23843-.55848-.37232-.89545-.37232h-19.38446l29.8111-42.88205.00831,63.34173c0,.33054.13603.65702.37253.89545.23843.23843.56276.36825.8933.36825h27.76914c.3389,0,.65916-.12982.89973-.37253.24057-.23843.36803-.55633.36803-.89116v-81.62599c0-13.15879-10.66906-23.82382-23.82574-23.82382Z"/><path class="cls-1" d="M397.28699,239.34313l-136.46397,224.31375h272.248l-135.78403-224.31375ZM423.31367,437.54431c-6.34096,0-12.22778-1.87016-17.19432-5.05435-.12337.08805-.24678.1883-.37232.27635-15.43061,10.71109-32.25044,17.58118-47.84,17.63559-.8243,0-1.64865-.01671-2.45198-.05441-11.5729-.51456-20.40119-5.20495-25.99731-11.44758-5.62118-6.24671-8.1777-13.68577-8.44955-20.17112-.02721-.50621-.03985-1.04176-.03985-1.60238.20501-19.16706,13.30317-39.89045,31.22946-56.7542,18.00191-16.67845,41.19377-29.46899,63.97585-29.71491.08159-.00514.19449-.00943.34294-.00943,10.5772-.02614,19.60643,3.48217,25.79037,9.73317,6.20065,6.23107,9.31993,14.89077,9.30111,24.16057,0,6.43501-1.45181,13.2132-4.34509,20.02481,4.94338,5.62332,7.96434,12.97455,7.96434,21.04129,0,17.63152-14.28431,31.93661-31.91366,31.93661ZM433.88463,348.74704c-3.7281-3.72382-9.2803-6.20193-17.36803-6.22807h-.23007c-18.18786.00214-39.60168,11.17981-56.00314,26.53308-16.54563,15.23395-27.65217,34.71464-27.44288,48.07436,0,.32626.00621.6778.02506,1.09617.12768,3.72382,1.80332,8.77388,5.38896,12.70678,3.61928,3.93311,8.99581,7.10038,17.77162,7.56481.62146.02506,1.24913.04177,1.88087.04177,11.49774.05034,25.90327-5.3262,39.4093-14.42655-3.72807-5.22166-5.94358-11.59797-5.94358-18.50169,0-17.62295,14.2948-31.9199,31.94092-31.9199,5.08777,0,9.88052,1.22171,14.15232,3.34314,1.55656-4.44767,2.27611-8.67555,2.27611-12.48934-.02078-6.71735-2.1525-12.0489-5.85747-15.79457Z"/></svg>