<?xml version="1.0" encoding="UTF-8"?><svg id="LOGO" xmlns="http://www.w3.org/2000/svg" xmlns:xlink="http://www.w3.org/1999/xlink" viewBox="0 0 1250 703"><defs><style>.cls-1{clip-path:url(#clippath-11);}.cls-2,.cls-3{fill-rule:evenodd;}.cls-2,.cls-4,.cls-5,.cls-6{fill:#5a5f6a;}.cls-7,.cls-8,.cls-3,.cls-9{fill:#5387c6;}.cls-7,.cls-8,.cls-5,.cls-6{stroke-width:0px;}.cls-7,.cls-6{clip-rule:evenodd;}.cls-10{clip-path:url(#clippath-2);}.cls-11{clip-path:url(#clippath-6);}.cls-12{clip-path:url(#clippath-7);}.cls-13{clip-path:url(#clippath-1);}.cls-14{clip-path:url(#clippath-4);}.cls-15{clip-path:url(#clippath-9);}.cls-16{clip-path:url(#clippath);}.cls-17{clip-path:url(#clippath-3);}.cls-18{clip-path:url(#clippath-8);}.cls-19{clip-path:url(#clippath-5);}.cls-20{clip-path:url(#clippath-10);}</style><clipPath id="clippath"><path class="cls-7" d="m340.25491,268.54274l48.09936-27.681c4.04093-2.32904,5.44352-7.51872,3.09977-11.54394-1.50544-2.60905-4.32581-4.2247-7.33619-4.2247-1.47988,0-2.94567.39385-4.23206,1.15847l-48.092,27.65594c-1.95963,1.1359-3.37131,2.95191-3.95516,5.13482-.59656,2.1904-.29947,4.45136.83768,6.4151,1.5103,2.60918,4.32768,4.21872,7.34342,4.21872,1.49035,0,2.94468-.39322,4.23518-1.13341Z"/></clipPath><clipPath id="clippath-1"><rect class="cls-8" x="-3.15929" y="94.08065" width="690.80662" height="665.07504"/></clipPath><clipPath id="clippath-2"><rect class="cls-8" x="-3.0795" y="94.0551" width="690.80363" height="665.02629"/></clipPath><clipPath id="clippath-3"><rect class="cls-8" x="-3.15929" y="94.08065" width="690.80662" height="665.07504"/></clipPath><clipPath id="clippath-4"><path class="cls-6" d="m312.61356,437.52341c1.62114-1.59246,2.49897-3.69995,2.49897-5.9487,0-4.6279-3.83336-8.40465-8.55364-8.40465h-56.00107c-4.7057,0-8.53668,3.77675-8.53668,8.40465,0,4.64722,3.83098,8.40689,8.53668,8.40689h56.00107c2.29625,0,4.44762-.87658,6.05467-2.4582Zm-65.15738-74.17493c1.50183,2.62015,4.3106,4.27108,7.31912,4.27108,1.47439,0,2.93183-.39447,4.22358-1.13965,4.02934-2.3607,5.41796-7.53268,3.08892-11.57486l-27.69433-48.09574c-1.50307-2.61766-4.29365-4.24178-7.31188-4.24178-1.47627,0-2.92747.39933-4.21498,1.14201-1.95963,1.1359-3.36582,2.95739-3.94543,5.15003-.58073,2.18678-.28126,4.49275.85227,6.42857l27.68274,48.06034Zm23.3709,46.66149c3.01037,0,5.81666-1.58648,7.33806-4.19316,2.3339-4.05677.94054-9.23485-3.10164-11.57499l-48.10609-27.70705c-1.28327-.73657-2.74794-1.10798-4.21199-1.10798-3.02609,0-5.84534,1.59259-7.36786,4.20164-1.13466,1.98095-1.42627,4.25886-.82671,6.46871.58385,2.15262,1.99254,3.98009,3.93932,5.08196l48.09512,27.70095c1.28439.75976,2.74919,1.12992,4.24179,1.12992Zm-7.96742-87.7053c4.63201,0,8.39717-3.84495,8.39717-8.5494v-56.02289c0-4.71006-3.76516-8.52396-8.39717-8.52396-4.63999,0-8.4125,3.8139-8.4125,8.52396v56.02289c0,4.70445,3.77251,8.5494,8.4125,8.5494Zm117.79862-43.8587h55.99621c4.72028,0,8.56099-3.7573,8.56099-8.42161,0-4.63014-3.83211-8.3862-8.54391-8.3862h-56.01329c-4.7032,0-8.53294,3.75605-8.53294,8.3862,0,4.6643,3.82974,8.42161,8.53294,8.42161Zm87.34861,41.24715l-48.07742-27.68761c-1.29187-.73421-2.74071-1.12992-4.22483-1.12992-3.02733,0-5.84659,1.61814-7.36786,4.22732-1.12194,1.95526-1.41904,4.2272-.83644,6.40899.57961,2.18304,1.99366,3.9983,3.95092,5.13794l48.09325,27.67539c1.2991.73657,2.74732,1.13354,4.24179,1.13354,3.01462,0,5.82763-1.61565,7.35376-4.2272,2.31819-4.05677.92471-9.21179-3.13318-11.53846Zm-28.94593,18.51235c-1.50121-2.5896-4.30762-4.20775-7.32885-4.20775-1.46168,0-2.91899.39933-4.21261,1.13603-1.95963,1.1384-3.34825,2.96213-3.94181,5.12697-.57825,2.22069-.28301,4.49874.83768,6.42844l27.69122,48.14561c1.50619,2.58973,4.31185,4.21386,7.33806,4.21386,1.45557,0,2.91289-.40544,4.21075-1.11284,1.95663-1.17119,3.37255-3.0206,3.94056-5.21586.56552-2.18055.26843-4.43291-.85227-6.36885l-27.68273-48.14561Zm-40.46857,77.33205c-1.29175-.73171-2.73759-1.13965-4.20226-1.13965-3.02983,0-5.8416,1.65343-7.32647,4.26747l-27.7083,48.06645c-2.31083,4.04218-.92047,9.22151,3.09316,11.57611,1.28751.74518,2.74607,1.14201,4.24178,1.14201,3.00614,0,5.81791-1.64482,7.30329-4.23331l27.69196-48.09562c2.34312-4.04218.95326-9.22638-3.09316-11.58346Zm-39.2985,19.19419c-1.5103-2.60668-4.32158-4.25276-7.35801-4.25276-1.47265,0-2.94156.40419-4.22184,1.14077l-48.09325,27.67663c-4.03968,2.34861-5.44963,7.50961-3.11311,11.5579,1.52302,2.61155,4.32158,4.21024,7.33607,4.21024,1.49459,0,2.95615-.40182,4.23942-1.1384l48.09326-27.68399c1.9499-1.09701,3.35734-2.91226,3.95515-5.09892.59233-2.18067.2971-4.45373-.83768-6.41149Zm65.08744-55.42034c-4.63762,0-8.40029,3.85106-8.40029,8.55314v56.02539c0,4.70445,3.76266,8.51536,8.40029,8.51536,2.25485,0,4.37456-.89366,5.95605-2.49236,1.57726-1.61079,2.45209-3.75356,2.43626-6.023l.01583-56.02539c0-4.70208-3.7755-8.55314-8.40814-8.55314Zm-136.4663-93.93402c1.27779.73907,2.71926,1.11035,4.19366,1.11035,3.0231,0,5.832-1.5876,7.33744-4.21012l27.70157-48.1213c1.11346-1.96137,1.41293-4.24178.8322-6.42844-.57948-2.19526-1.98394-4.01114-3.92648-5.15265-1.29175-.74268-2.75467-1.1389-4.24178-1.1389-3.00614,0-5.81367,1.62114-7.31674,4.24178l-27.67115,48.12068c-2.34499,4.03607-.95338,9.22027,3.09129,11.5786Z"/></clipPath><clipPath id="clippath-5"><rect class="cls-5" x="-3.15929" y="94.08065" width="690.80662" height="665.07504"/></clipPath><clipPath id="clippath-6"><rect class="cls-5" x="-3.0795" y="94.0551" width="690.80363" height="665.02629"/></clipPath><clipPath id="clippath-7"><rect class="cls-5" x="-3.15929" y="94.08065" width="690.80662" height="665.07504"/></clipPath><clipPath id="clippath-8"><path class="cls-6" d="m1031.60164,355.61844c0-4.77876-.64297-9.06679-1.92497-12.86312-1.2808-3.79981-3.09742-7.01167-5.44603-9.6378-2.34734-2.62626-5.20113-4.63875-8.5469-6.05105-3.34575-1.40994-7.08847-2.11609-11.21829-2.11609-4.09454,0-7.81644.70615-11.16219,2.11609-3.34575,1.41231-6.20565,3.4248-8.57495,6.05105-2.36694,2.62613-4.19079,5.83799-5.47282,9.6378-1.28202,3.79632-1.92123,8.08436-1.92123,12.86312s.6392,9.0547,1.92123,12.84005c1.28202,3.77912,3.10588,6.98237,5.47282,9.60613,2.3693,2.62264,5.2292,4.63027,8.57495,6.01951,3.34575,1.39884,7.06765,2.0929,11.16219,2.0929,4.12983,0,7.87254-.69406,11.21829-2.0929,3.34577-1.38924,6.19956-3.39687,8.5469-6.01951,2.34861-2.62376,4.16523-5.82701,5.44603-9.60613,1.282-3.78535,1.92497-8.0613,1.92497-12.84005Zm10.63006,0c0,5.82951-.90825,11.17316-2.7235,16.03969-1.81787,4.86515-4.38192,9.05582-7.69239,12.56963-3.31159,3.50521-7.28807,6.2337-11.93891,8.16951-4.64371,1.9322-9.78277,2.90017-15.41145,2.90017-5.62367,0-10.75064-.96797-15.38091-2.90017-4.63027-1.93581-8.59814-4.6643-11.90973-8.16951-3.31172-3.51381-5.87451-7.70448-7.696-12.56963-1.81288-4.86653-2.7235-10.21018-2.7235-16.03969s.91062-11.17316,2.7235-16.04318c1.82149-4.86154,4.38429-9.0633,7.696-12.59158,3.31159-3.5284,7.27947-6.27148,11.90973-8.222,4.63027-1.95526,9.75724-2.93171,15.38091-2.93171,5.62868,0,10.76774.97645,15.41145,2.93171,4.65084,1.95052,8.62732,4.6936,11.93891,8.222,3.31047,3.52827,5.87451,7.73004,7.69239,12.59158,1.81525,4.87002,2.7235,10.21367,2.7235,16.04318Zm-161.78037-38.92036c.92782,0,1.61203.11445,2.05764.35058.44557.23738.95336.71712,1.52437,1.43911l44.33595,58.62596c-.10834-.94229-.18015-1.8554-.21431-2.74308-.03776-.88506-.05723-1.74469-.05723-2.57863v-55.09395h9.08275v77.78848h-5.23531c-.81574,0-1.50369-.14487-2.0576-.43337-.55033-.29099-1.09339-.78171-1.62664-1.47327l-44.28483-58.56512c.07418.907.12904,1.78982.16557,2.66029.03404.86811.05112,1.66066.05112,2.38389v55.42757h-9.08026v-77.78848h5.33879Zm-51.47179,0h10.36105v77.78848h-10.36105v-77.78848Zm-77.81167,49.66739c.49919.8706.93506,1.78496,1.31244,2.74432.37128.95575.73422,1.92372,1.0909,2.90017.35669-1.01422.73048-1.98095,1.12132-2.90017.39087-.92533.83644-1.85914,1.33314-2.80155l25.90888-47.82046c.46267-.83033.94243-1.33314,1.44148-1.5219.49919-.17903,1.21272-.2678,2.13803-.2678h7.63865v77.78848h-9.08026v-57.16129c0-.75852.01471-1.57189.05486-2.44361.03404-.86686.08515-1.75803.15709-2.65655l-26.22667,48.63371c-.88992,1.62787-2.13429,2.44124-3.73897,2.44124h-1.49272c-1.60219,0-2.85254-.81337-3.74259-2.44124l-26.81102-48.7994c.10597.94116.18628,1.86899.23864,2.76627.05596.907.08152,1.74107.08152,2.49959v57.16129h-9.08138v-77.78848h7.63628c.9277,0,1.64121.08877,2.13791.2678.49919.18876.98006.69157,1.44273,1.5219l26.43974,47.87769Zm-77.70457-10.74702c0-4.77876-.63796-9.06679-1.92123-12.86312-1.28327-3.79981-3.0974-7.01167-5.446-9.6378-2.35349-2.62626-5.20129-4.63875-8.54816-6.05105-3.34699-1.40994-7.08596-2.11609-11.2158-2.11609-4.09579,0-7.81767.70615-11.16468,2.11609-3.347,1.41231-6.20453,3.4248-8.57383,6.05105-2.36805,2.62613-4.19304,5.83799-5.47518,9.6378-1.28327,3.79632-1.91998,8.08436-1.91998,12.86312s.63671,9.0547,1.91998,12.84005c1.28215,3.77912,3.10714,6.98237,5.47518,9.60613,2.3693,2.62264,5.22683,4.63027,8.57383,6.01951,3.34701,1.39884,7.06889,2.0929,11.16468,2.0929,4.12984,0,7.86881-.69406,11.2158-2.0929,3.34687-1.38924,6.19468-3.39687,8.54816-6.01951,2.3486-2.62376,4.16273-5.82701,5.446-9.60613,1.28327-3.78535,1.92123-8.0613,1.92123-12.84005Zm10.63133,0c0,5.82951-.90948,11.17316-2.72238,16.03969-1.8165,4.86515-4.38055,9.05582-7.69225,12.56963-3.31161,3.50521-7.29045,6.2337-11.94017,8.16951-4.6461,1.9322-9.78155,2.90017-15.40771,2.90017-5.62741,0-10.75563-.96797-15.3834-2.90017-4.63027-1.93581-8.60176-4.6643-11.91347-8.16951-3.31034-3.51381-5.87389-7.70448-7.691-12.56963-1.81414-4.86653-2.72364-10.21018-2.72364-16.03969s.9095-11.17316,2.72364-16.04318c1.81711-4.86154,4.38066-9.0633,7.691-12.59158,3.31172-3.5284,7.28321-6.27148,11.91347-8.222,4.62777-1.95526,9.75599-2.93171,15.3834-2.93171,5.62616,0,10.76161.97645,15.40771,2.93171,4.64972,1.95052,8.62856,4.6936,11.94017,8.222,3.3117,3.52827,5.87575,7.73004,7.69225,12.59158,1.8129,4.87002,2.72238,10.21367,2.72238,16.04318Zm-111.08704,0c0-4.77876-.64045-9.0461-1.92247-12.81188-1.2814-3.76216-3.0974-6.94846-5.44663-9.55153-2.35222-2.60905-5.20003-4.59611-8.54815-5.97189-3.34575-1.37578-7.06826-2.06373-11.16281-2.06373h-18.21413v60.73844h18.21413c4.09455,0,7.81706-.67935,11.16281-2.05637,3.34812-1.37578,6.19592-3.35922,8.54815-5.94521,2.34923-2.5896,4.16523-5.76368,5.44663-9.52709,1.28202-3.76453,1.92247-8.032,1.92247-12.81075Zm10.6307,0c0,5.82951-.90887,11.12691-2.72288,15.90566-1.81725,4.77639-4.38192,8.86121-7.69176,12.26905-3.31159,3.39687-7.28258,6.02911-11.91397,7.89311-4.62728,1.87011-9.75599,2.8003-15.38216,2.8003h-28.63064v-77.78848h28.63064c5.62616,0,10.75488.93007,15.38216,2.7917,4.63139,1.87011,8.60238,4.51096,11.91397,7.93089,3.30985,3.41881,5.87451,7.51335,7.69176,12.29211,1.81401,4.77751,2.72288,10.07615,2.72288,15.90566Z"/></clipPath><clipPath id="clippath-9"><rect class="cls-5" x="69.04268" y="-555.30352" width="1422.49761" height="1369.51663"/></clipPath><clipPath id="clippath-10"><rect class="cls-5" x="69.20276" y="-555.35651" width="1422.49712" height="1369.41253"/></clipPath><clipPath id="clippath-11"><rect class="cls-5" x="69.04268" y="-555.30352" width="1422.49761" height="1369.51663"/></clipPath></defs><g id="Domino_Data_Labs"><path class="cls-3" d="m340.25491,268.54274l48.09936-27.681c4.04093-2.32904,5.44352-7.51872,3.09977-11.54394-1.50544-2.60905-4.32581-4.2247-7.33619-4.2247-1.47988,0-2.94567.39385-4.23206,1.15847l-48.092,27.65594c-1.95963,1.1359-3.37131,2.95191-3.95516,5.13482-.59656,2.1904-.29947,4.45136.83768,6.4151,1.5103,2.60918,4.32768,4.21872,7.34342,4.21872,1.49035,0,2.94468-.39322,4.23518-1.13341Z"/><g class="cls-16"><rect class="cls-9" x="-3.15929" y="94.08065" width="690.80662" height="665.07504"/><g class="cls-13"><rect class="cls-9" x="-3.0795" y="94.0551" width="690.80363" height="665.02629"/><g class="cls-10"><rect class="cls-9" x="-3.15929" y="94.08065" width="690.80662" height="665.07504"/><g class="cls-17"><rect class="cls-8" x="327.42471" y="224.96157" width="65.14467" height="44.76583"/></g></g></g></g><path class="cls-2" d="m312.61356,437.52341c1.62114-1.59246,2.49897-3.69995,2.49897-5.9487,0-4.6279-3.83336-8.40465-8.55364-8.40465h-56.00107c-4.7057,0-8.53668,3.77675-8.53668,8.40465,0,4.64722,3.83098,8.40689,8.53668,8.40689h56.00107c2.29625,0,4.44762-.87658,6.05467-2.4582Zm-65.15738-74.17493c1.50183,2.62015,4.3106,4.27108,7.31912,4.27108,1.47439,0,2.93183-.39447,4.22358-1.13965,4.02934-2.3607,5.41796-7.53268,3.08892-11.57486l-27.69433-48.09574c-1.50307-2.61766-4.29365-4.24178-7.31188-4.24178-1.47627,0-2.92747.39933-4.21498,1.14201-1.95963,1.1359-3.36582,2.95739-3.94543,5.15003-.58073,2.18678-.28126,4.49275.85227,6.42857l27.68274,48.06034Zm23.3709,46.66149c3.01037,0,5.81666-1.58648,7.33806-4.19316,2.3339-4.05677.94054-9.23485-3.10164-11.57499l-48.10609-27.70705c-1.28327-.73657-2.74794-1.10798-4.21199-1.10798-3.02609,0-5.84534,1.59259-7.36786,4.20164-1.13466,1.98095-1.42627,4.25886-.82671,6.46871.58385,2.15262,1.99254,3.98009,3.93932,5.08196l48.09512,27.70095c1.28439.75976,2.74919,1.12992,4.24179,1.12992Zm-7.96742-87.7053c4.63201,0,8.39717-3.84495,8.39717-8.5494v-56.02289c0-4.71006-3.76516-8.52396-8.39717-8.52396-4.63999,0-8.4125,3.8139-8.4125,8.52396v56.02289c0,4.70445,3.77251,8.5494,8.4125,8.5494Zm117.79862-43.8587h55.99621c4.72028,0,8.56099-3.7573,8.56099-8.42161,0-4.63014-3.83211-8.3862-8.54391-8.3862h-56.01329c-4.7032,0-8.53294,3.75605-8.53294,8.3862,0,4.6643,3.82974,8.42161,8.53294,8.42161Zm87.34861,41.24715l-48.07742-27.68761c-1.29187-.73421-2.74071-1.12992-4.22483-1.12992-3.02733,0-5.84659,1.61814-7.36786,4.22732-1.12194,1.95526-1.41904,4.2272-.83644,6.40899.57961,2.18304,1.99366,3.9983,3.95092,5.13794l48.09325,27.67539c1.2991.73657,2.74732,1.13354,4.24179,1.13354,3.01462,0,5.82763-1.61565,7.35376-4.2272,2.31819-4.05677.92471-9.21179-3.13318-11.53846Zm-28.94593,18.51235c-1.50121-2.5896-4.30762-4.20775-7.32885-4.20775-1.46168,0-2.91899.39933-4.21261,1.13603-1.95963,1.1384-3.34825,2.96213-3.94181,5.12697-.57825,2.22069-.28301,4.49874.83768,6.42844l27.69122,48.14561c1.50619,2.58973,4.31185,4.21386,7.33806,4.21386,1.45557,0,2.91289-.40544,4.21075-1.11284,1.95663-1.17119,3.37255-3.0206,3.94056-5.21586.56552-2.18055.26843-4.43291-.85227-6.36885l-27.68273-48.14561Zm-40.46857,77.33205c-1.29175-.73171-2.73759-1.13965-4.20226-1.13965-3.02983,0-5.8416,1.65343-7.32647,4.26747l-27.7083,48.06645c-2.31083,4.04218-.92047,9.22151,3.09316,11.57611,1.28751.74518,2.74607,1.14201,4.24178,1.14201,3.00614,0,5.81791-1.64482,7.30329-4.23331l27.69196-48.09562c2.34312-4.04218.95326-9.22638-3.09316-11.58346Zm-39.2985,19.19419c-1.5103-2.60668-4.32158-4.25276-7.35801-4.25276-1.47265,0-2.94156.40419-4.22184,1.14077l-48.09325,27.67663c-4.03968,2.34861-5.44963,7.50961-3.11311,11.5579,1.52302,2.61155,4.32158,4.21024,7.33607,4.21024,1.49459,0,2.95615-.40182,4.23942-1.1384l48.09326-27.68399c1.9499-1.09701,3.35734-2.91226,3.95515-5.09892.59233-2.18067.2971-4.45373-.83768-6.41149Zm65.08744-55.42034c-4.63762,0-8.40029,3.85106-8.40029,8.55314v56.02539c0,4.70445,3.76266,8.51536,8.40029,8.51536,2.25485,0,4.37456-.89366,5.95605-2.49236,1.57726-1.61079,2.45209-3.75356,2.43626-6.023l.01583-56.02539c0-4.70208-3.7755-8.55314-8.40814-8.55314Zm-136.4663-93.93402c1.27779.73907,2.71926,1.11035,4.19366,1.11035,3.0231,0,5.832-1.5876,7.33744-4.21012l27.70157-48.1213c1.11346-1.96137,1.41293-4.24178.8322-6.42844-.57948-2.19526-1.98394-4.01114-3.92648-5.15265-1.29175-.74268-2.75467-1.1389-4.24178-1.1389-3.00614,0-5.81367,1.62114-7.31674,4.24178l-27.67115,48.12068c-2.34499,4.03607-.95338,9.22027,3.09129,11.5786Z"/><g class="cls-14"><rect class="cls-4" x="-3.15929" y="94.08065" width="690.80662" height="665.07504"/><g class="cls-19"><rect class="cls-4" x="-3.0795" y="94.0551" width="690.80363" height="665.02629"/><g class="cls-11"><rect class="cls-4" x="-3.15929" y="94.08065" width="690.80662" height="665.07504"/><g class="cls-12"><rect class="cls-5" x="214.11685" y="221.4101" width="258.26334" height="258.108"/></g></g></g></g><path class="cls-2" d="m1031.60164,355.61844c0-4.77876-.64297-9.06679-1.92497-12.86312-1.2808-3.79981-3.09742-7.01167-5.44603-9.6378-2.34734-2.62626-5.20113-4.63875-8.5469-6.05105-3.34575-1.40994-7.08847-2.11609-11.21829-2.11609-4.09454,0-7.81644.70615-11.16219,2.11609-3.34575,1.41231-6.20565,3.4248-8.57495,6.05105-2.36694,2.62613-4.19079,5.83799-5.47282,9.6378-1.28202,3.79632-1.92123,8.08436-1.92123,12.86312s.6392,9.0547,1.92123,12.84005c1.28202,3.77912,3.10588,6.98237,5.47282,9.60613,2.3693,2.62264,5.2292,4.63027,8.57495,6.01951,3.34575,1.39884,7.06765,2.0929,11.16219,2.0929,4.12983,0,7.87254-.69406,11.21829-2.0929,3.34577-1.38924,6.19956-3.39687,8.5469-6.01951,2.34861-2.62376,4.16523-5.82701,5.44603-9.60613,1.282-3.78535,1.92497-8.0613,1.92497-12.84005Zm10.63006,0c0,5.82951-.90825,11.17316-2.7235,16.03969-1.81787,4.86515-4.38192,9.05582-7.69239,12.56963-3.31159,3.50521-7.28807,6.2337-11.93891,8.16951-4.64371,1.9322-9.78277,2.90017-15.41145,2.90017-5.62367,0-10.75064-.96797-15.38091-2.90017-4.63027-1.93581-8.59814-4.6643-11.90973-8.16951-3.31172-3.51381-5.87451-7.70448-7.696-12.56963-1.81288-4.86653-2.7235-10.21018-2.7235-16.03969s.91062-11.17316,2.7235-16.04318c1.82149-4.86154,4.38429-9.0633,7.696-12.59158,3.31159-3.5284,7.27947-6.27148,11.90973-8.222,4.63027-1.95526,9.75724-2.93171,15.38091-2.93171,5.62868,0,10.76774.97645,15.41145,2.93171,4.65084,1.95052,8.62732,4.6936,11.93891,8.222,3.31047,3.52827,5.87451,7.73004,7.69239,12.59158,1.81525,4.87002,2.7235,10.21367,2.7235,16.04318Zm-161.78037-38.92036c.92782,0,1.61203.11445,2.05764.35058.44557.23738.95336.71712,1.52437,1.43911l44.33595,58.62596c-.10834-.94229-.18015-1.8554-.21431-2.74308-.03776-.88506-.05723-1.74469-.05723-2.57863v-55.09395h9.08275v77.78848h-5.23531c-.81574,0-1.50369-.14487-2.0576-.43337-.55033-.29099-1.09339-.78171-1.62664-1.47327l-44.28483-58.56512c.07418.907.12904,1.78982.16557,2.66029.03404.86811.05112,1.66066.05112,2.38389v55.42757h-9.08026v-77.78848h5.33879Zm-51.47179,0h10.36105v77.78848h-10.36105v-77.78848Zm-77.81167,49.66739c.49919.8706.93506,1.78496,1.31244,2.74432.37128.95575.73422,1.92372,1.0909,2.90017.35669-1.01422.73048-1.98095,1.12132-2.90017.39087-.92533.83644-1.85914,1.33314-2.80155l25.90888-47.82046c.46267-.83033.94243-1.33314,1.44148-1.5219.49919-.17903,1.21272-.2678,2.13803-.2678h7.63865v77.78848h-9.08026v-57.16129c0-.75852.01471-1.57189.05486-2.44361.03404-.86686.08515-1.75803.15709-2.65655l-26.22667,48.63371c-.88992,1.62787-2.13429,2.44124-3.73897,2.44124h-1.49272c-1.60219,0-2.85254-.81337-3.74259-2.44124l-26.81102-48.7994c.10597.94116.18628,1.86899.23864,2.76627.05596.907.08152,1.74107.08152,2.49959v57.16129h-9.08138v-77.78848h7.63628c.9277,0,1.64121.08877,2.13791.2678.49919.18876.98006.69157,1.44273,1.5219l26.43974,47.87769Zm-77.70457-10.74702c0-4.77876-.63796-9.06679-1.92123-12.86312-1.28327-3.79981-3.0974-7.01167-5.446-9.6378-2.35349-2.62626-5.20129-4.63875-8.54816-6.05105-3.34699-1.40994-7.08596-2.11609-11.2158-2.11609-4.09579,0-7.81767.70615-11.16468,2.11609-3.347,1.41231-6.20453,3.4248-8.57383,6.05105-2.36805,2.62613-4.19304,5.83799-5.47518,9.6378-1.28327,3.79632-1.91998,8.08436-1.91998,12.86312s.63671,9.0547,1.91998,12.84005c1.28215,3.77912,3.10714,6.98237,5.47518,9.60613,2.3693,2.62264,5.22683,4.63027,8.57383,6.01951,3.34701,1.39884,7.06889,2.0929,11.16468,2.0929,4.12984,0,7.86881-.69406,11.2158-2.0929,3.34687-1.38924,6.19468-3.39687,8.54816-6.01951,2.3486-2.62376,4.16273-5.82701,5.446-9.60613,1.28327-3.78535,1.92123-8.0613,1.92123-12.84005Zm10.63133,0c0,5.82951-.90948,11.17316-2.72238,16.03969-1.8165,4.86515-4.38055,9.05582-7.69225,12.56963-3.31161,3.50521-7.29045,6.2337-11.94017,8.16951-4.6461,1.9322-9.78155,2.90017-15.40771,2.90017-5.62741,0-10.75563-.96797-15.3834-2.90017-4.63027-1.93581-8.60176-4.6643-11.91347-8.16951-3.31034-3.51381-5.87389-7.70448-7.691-12.56963-1.81414-4.86653-2.72364-10.21018-2.72364-16.03969s.9095-11.17316,2.72364-16.04318c1.81711-4.86154,4.38066-9.0633,7.691-12.59158,3.31172-3.5284,7.28321-6.27148,11.91347-8.222,4.62777-1.95526,9.75599-2.93171,15.3834-2.93171,5.62616,0,10.76161.97645,15.40771,2.93171,4.64972,1.95052,8.62856,4.6936,11.94017,8.222,3.3117,3.52827,5.87575,7.73004,7.69225,12.59158,1.8129,4.87002,2.72238,10.21367,2.72238,16.04318Zm-111.08704,0c0-4.77876-.64045-9.0461-1.92247-12.81188-1.2814-3.76216-3.0974-6.94846-5.44663-9.55153-2.35222-2.60905-5.20003-4.59611-8.54815-5.97189-3.34575-1.37578-7.06826-2.06373-11.16281-2.06373h-18.21413v60.73844h18.21413c4.09455,0,7.81706-.67935,11.16281-2.05637,3.34812-1.37578,6.19592-3.35922,8.54815-5.94521,2.34923-2.5896,4.16523-5.76368,5.44663-9.52709,1.28202-3.76453,1.92247-8.032,1.92247-12.81075Zm10.6307,0c0,5.82951-.90887,11.12691-2.72288,15.90566-1.81725,4.77639-4.38192,8.86121-7.69176,12.26905-3.31159,3.39687-7.28258,6.02911-11.91397,7.89311-4.62728,1.87011-9.75599,2.8003-15.38216,2.8003h-28.63064v-77.78848h28.63064c5.62616,0,10.75488.93007,15.38216,2.7917,4.63139,1.87011,8.60238,4.51096,11.91397,7.93089,3.30985,3.41881,5.87451,7.51335,7.69176,12.29211,1.81401,4.77751,2.72288,10.07615,2.72288,15.90566Z"/><g class="cls-18"><rect class="cls-4" x="69.04268" y="-555.30352" width="1422.49761" height="1369.51663"/><g class="cls-15"><rect class="cls-4" x="69.20276" y="-555.35651" width="1422.49712" height="1369.41253"/><g class="cls-20"><rect class="cls-4" x="69.04268" y="-555.30352" width="1422.49761" height="1369.51663"/><g class="cls-1"><rect class="cls-5" x="517.09116" y="315.62788" width="525.4486" height="79.78401"/></g></g></g></g></g></svg>