<svg id="INSTRUCTIONS" xmlns="http://www.w3.org/2000/svg" xmlns:xlink="http://www.w3.org/1999/xlink" viewBox="0 0 1250 703">
  <defs>
    <style>
      .cls-1 {
        fill: none;
      }

      .cls-2 {
        clip-path: url(#clip-path);
      }

      .cls-3 {
        fill: #4b88d5;
      }

      .cls-3, .cls-5 {
        fill-rule: evenodd;
      }

      .cls-4 {
        clip-path: url(#clip-path-2);
      }

      .cls-5 {
        fill: #575d69;
      }

      .cls-6 {
        clip-path: url(#clip-path-3);
      }
    </style>
    <clipPath id="clip-path">
      <path class="cls-1" d="M359.80776,270.59277l48.18914-28.71611a8.94708,8.94708,0,0,0,3.10844-11.98151,8.46185,8.46185,0,0,0-7.35172-4.38307,8.00962,8.00962,0,0,0-4.23505,1.20884l-48.1809,28.68323a8.70044,8.70044,0,0,0-3.96369,5.32876,8.84838,8.84838,0,0,0,.82234,6.65273,8.47012,8.47012,0,0,0,7.36,4.37486,8.22335,8.22335,0,0,0,4.235-1.176Z"/>
    </clipPath>
    <clipPath id="clip-path-2">
      <path class="cls-1" d="M307.30957,285.37845a8.91416,8.91416,0,0,0,4.35017,1.11016,8.80726,8.80726,0,0,0,7.61487-4.21861l28.73257-48.21381a8.22338,8.22338,0,0,0,.86344-6.43892,8.49475,8.49475,0,0,0-4.1117-5.15608,9.04571,9.04571,0,0,0-4.39952-1.143,8.84841,8.84841,0,0,0-7.5902,4.2515l-28.7079,48.20557a8.355,8.355,0,0,0,2.93069,11.44651q.13671.081.27643.1567ZM445.87389,381.0906a8.51943,8.51943,0,0,0-8.40432,8.60991v56.39607a8.49476,8.49476,0,0,0,8.40432,8.577,8.35492,8.35492,0,0,0,5.962-2.467,8.61811,8.61811,0,0,0,2.467-6.06887v-56.3961a8.52766,8.52766,0,0,0-8.41255-8.6099Zm-66.3053,56.97173a8.503,8.503,0,0,0-7.40106-4.416,8.31377,8.31377,0,0,0-4.235,1.18417l-48.18091,28.70789a8.97174,8.97174,0,0,0-3.11666,11.98971,8.46187,8.46187,0,0,0,7.35172,4.36663,8.28942,8.28942,0,0,0,4.24328-1.17594l48.18092-28.71613a8.60981,8.60981,0,0,0,3.96368-5.29587,8.906,8.906,0,0,0-.82234-6.6445Zm43.00018-20.08977a9.04584,9.04584,0,0,0-4.35839-1.14306,8.84016,8.84016,0,0,0-7.59842,4.27618l-28.7408,48.15624a8.38783,8.38783,0,0,0,2.99878,11.47692q.10334.06053.20834.11808A8.97181,8.97181,0,0,0,389.47781,482a8.84832,8.84832,0,0,0,7.57374-4.24328l28.72434-48.1809a8.34677,8.34677,0,0,0-2.91609-11.43823q-.14387-.08538-.291-.165Zm39.66968-78.94465a8.85661,8.85661,0,0,0-7.60665-4.21861,9.16915,9.16915,0,0,0-4.36662,1.13483,8.55229,8.55229,0,0,0-4.1117,5.13963,8.22335,8.22335,0,0,0,.87168,6.43891l28.71613,48.23025a8.91417,8.91417,0,0,0,7.61487,4.22684,9.44054,9.44054,0,0,0,4.36663-1.11837,8.59353,8.59353,0,0,0,4.1117-5.22187,8.14937,8.14937,0,0,0-.87991-6.38137l-28.71611-48.23024Zm27.72931-18.46975-48.16447-28.69144a8.37986,8.37986,0,0,0-4.22684-1.17594,8.51947,8.51947,0,0,0-7.40106,4.39129,8.97994,8.97994,0,0,0-.82234,6.6445,8.66744,8.66744,0,0,0,3.95545,5.32878l48.18091,28.7161a8.36321,8.36321,0,0,0,11.45848-2.93082q.08334-.14067.16119-.28453a8.9306,8.9306,0,0,0-3.14135-11.965Zm-88.05617-42.49854H458.283a8.41254,8.41254,0,1,0,.526-16.81685q-.26294-.00822-.526,0H401.91159a8.41254,8.41254,0,0,0-.526,16.81685Q401.6485,278.06787,401.91159,278.05962ZM281.90748,324.33269a8.52767,8.52767,0,0,0,8.40432-8.6099V259.32672a8.41254,8.41254,0,1,0-16.81685-.526q-.00824.26295,0,.526v56.39607A8.52765,8.52765,0,0,0,281.90748,324.33269Zm8.32208,90.39165a8.4701,8.4701,0,0,0,7.40106-4.35019,8.98,8.98,0,0,0-3.10844-12.00617L246.25081,369.6272a8.22337,8.22337,0,0,0-4.21861-1.15127,8.503,8.503,0,0,0-7.40106,4.3584,9.0457,9.0457,0,0,0-.82234,6.71029,8.577,8.577,0,0,0,3.94724,5.27121l48.18912,28.73257a8.07554,8.07554,0,0,0,4.24328,1.17594Zm-22.5979-50.52459a8.84833,8.84833,0,0,0,7.59019,4.27618,9.04592,9.04592,0,0,0,4.38308-1.14306,8.36321,8.36321,0,0,0,3.34029-11.34588q-.06855-.12576-.14139-.24912L254.07948,307.557a8.82368,8.82368,0,0,0-7.582-4.25151,9.04557,9.04557,0,0,0-4.37486,1.14307,8.48659,8.48659,0,0,0-4.1117,5.16429,8.22335,8.22335,0,0,0,.88813,6.43891Zm66.38753,75.40038a8.22341,8.22341,0,0,0,2.51636-5.95374,8.51945,8.51945,0,0,0-8.58524-8.38788H271.57889a8.41254,8.41254,0,1,0-.52563,16.81687q.26275.0082.52563,0h56.37142a8.67565,8.67565,0,0,0,6.09355-2.467Z"/>
    </clipPath>
    <clipPath id="clip-path-3">
      <path class="cls-1" d="M605.49832,357.00428a43.58486,43.58486,0,0,1-2.66437,15.56689,34.67,34.67,0,0,1-7.54085,12.00617,33.58413,33.58413,0,0,1-11.67724,7.73,40.02369,40.02369,0,0,1-15.07351,2.73839H540.48411V318.87237h28.05824a40.02356,40.02356,0,0,1,15.07351,2.77128,33.42,33.42,0,0,1,11.67724,7.75466,34.89259,34.89259,0,0,1,7.54085,11.98151A43.4854,43.4854,0,0,1,605.49832,357.00428Zm-10.4108,0a38.65083,38.65083,0,0,0-1.89138-12.54069,26.41335,26.41335,0,0,0-5.337-9.35,22.81987,22.81987,0,0,0-8.37964-5.84683,28.47751,28.47751,0,0,0-10.93712-2.02295H550.68935V386.699h17.853a28.62583,28.62583,0,0,0,10.93712-2.01474,22.96,22.96,0,0,0,8.37964-5.82216,26.15845,26.15845,0,0,0,5.337-9.32534A38.64963,38.64963,0,0,0,595.08752,357.00428Zm108.8778,0a44.64478,44.64478,0,0,1-2.6726,15.69847,36.00182,36.00182,0,0,1-7.54085,12.3351,33.7157,33.7157,0,0,1-11.66078,7.92737,41.43758,41.43758,0,0,1-30.17989,0,33.77377,33.77377,0,0,1-11.71012-8.00138,36.00161,36.00161,0,0,1-7.54084-12.3351,47.46521,47.46521,0,0,1,0-31.40517,36.26537,36.26537,0,0,1,7.54084-12.3351,33.71618,33.71618,0,0,1,11.669-8.04249,41.117,41.117,0,0,1,30.1799,0,33.65839,33.65839,0,0,1,11.70188,8.04249,36.26539,36.26539,0,0,1,7.54085,12.3351A44.66123,44.66123,0,0,1,703.96532,357.00428Zm-10.419,0a39.47359,39.47359,0,0,0-1.88314-12.59826,26.75043,26.75043,0,0,0-5.34522-9.424,23.08334,23.08334,0,0,0-8.33854-5.9373,30.073,30.073,0,0,0-21.94,0,23.42024,23.42024,0,0,0-8.40429,5.92907,26.52826,26.52826,0,0,0-5.36167,9.424,42.97559,42.97559,0,0,0,0,25.16361,26.56169,26.56169,0,0,0,5.36167,9.39935,23.141,23.141,0,0,0,8.40429,5.89619,30.4266,30.4266,0,0,0,21.94,0,22.81147,22.81147,0,0,0,8.37142-5.89619,26.78364,26.78364,0,0,0,5.34521-9.39935A39.21006,39.21006,0,0,0,693.54629,357.00428ZM769.7032,367.522a20.631,20.631,0,0,1,1.28284,2.6397c.36184.93748.72367,1.88317,1.069,2.84529.3536-.995.71543-1.94071,1.10195-2.84529s.82234-1.81736,1.30755-2.73838l25.39387-46.80761a3.03435,3.03435,0,0,1,1.4144-1.48844,6.51306,6.51306,0,0,1,2.08872-.26315h7.49151v76.14047h-8.90591V339.08548c0-.7401,0-1.53777.05757-2.393s.08221-1.71046.15625-2.5986l-25.70636,47.58061a4.03773,4.03773,0,0,1-3.66766,2.393h-1.46379a4.02125,4.02125,0,0,1-3.65942-2.393L741.34887,333.913c.09868.921.18089,1.81737.23028,2.70551s.08222,1.70225.08222,2.467v55.91913h-8.8648V318.87237h7.48327a6.57834,6.57834,0,0,1,2.097.26315,3.10017,3.10017,0,0,1,1.4144,1.48844l25.912,46.87339Zm86.41974,27.52372H845.96706V318.87237h10.15588v76.17337Zm40.29467-76.14047a4.4983,4.4983,0,0,1,2.01475.34539,5.27166,5.27166,0,0,1,1.49666,1.4062l43.45248,57.38289c-.10691-.921-.18089-1.81736-.21382-2.68083s-.04934-1.71046-.04934-2.52459v-53.962h8.89773v76.14047h-5.13145a4.34989,4.34989,0,0,1-2.01474-.42761,5.15531,5.15531,0,0,1-1.59534-1.43086L899.8714,335.82081c.074.88812.12337,1.75159.15625,2.60683s.05757,1.64468.05757,2.33545v54.27445h-8.90591V318.87237Zm158.56359,38.099a44.64479,44.64479,0,0,1-2.67261,15.69847,36.12672,36.12672,0,0,1-7.5409,12.3351,33.83062,33.83062,0,0,1-11.70188,7.99315,41.43775,41.43775,0,0,1-30.17984,0,33.88838,33.88838,0,0,1-11.67719-7.99315,36.1081,36.1081,0,0,1-7.53267-12.3351,47.46534,47.46534,0,0,1,0-31.40517,36.381,36.381,0,0,1,7.53267-12.33511A33.79037,33.79037,0,0,1,1002.886,320.92a41.117,41.117,0,0,1,30.17984,0,33.71646,33.71646,0,0,1,11.70188,8.04248,36.39774,36.39774,0,0,1,7.5409,12.33511A44.66227,44.66227,0,0,1,1054.9812,357.00428Zm-10.41909,0a39.47085,39.47085,0,0,0-1.88319-12.59826,26.75056,26.75056,0,0,0-5.34521-9.424,23.08266,23.08266,0,0,0-8.37147-5.92907,30.07293,30.07293,0,0,0-21.94008,0,23.42036,23.42036,0,0,0-8.40429,5.92907,26.529,26.529,0,0,0-5.36167,9.424,42.97559,42.97559,0,0,0,0,25.16361,26.56139,26.56139,0,0,0,5.36167,9.39935,23.14051,23.14051,0,0,0,8.40429,5.89619,30.42663,30.42663,0,0,0,21.94008,0,22.81173,22.81173,0,0,0,8.37147-5.89619,26.78286,26.78286,0,0,0,5.34521-9.39935A39.20834,39.20834,0,0,0,1044.56211,357.00428Z"/>
    </clipPath>
  </defs>
  <g id="Layer_6" data-name="Layer 6">
    <g class="cls-2">
      <path class="cls-3" d="M336.56021,215.01081h86.18947v67.27565H336.56021Z"/>
    </g>
    <g class="cls-4">
      <path class="cls-5" d="M223.03615,210.80865H504.74521V492.50951H223.03615Z"/>
    </g>
    <g class="cls-6">
      <path class="cls-5" d="M529.95817,307.50762H1065.4825v98.83707H529.95817Z"/>
    </g>
  </g>
</svg>
