<svg id="LOGO" xmlns="http://www.w3.org/2000/svg" viewBox="0 0 1250 703"><defs><style>.cls-1{fill:#cf0038;}.cls-1,.cls-2,.cls-3{fill-rule:evenodd;}.cls-2{fill:#343a90;}.cls-3{fill:#363a90;}</style></defs><g id="g2393"><path id="path3" class="cls-1" d="M325.76363,268.11334H286.30341v66.82347h-.42752a43.54567,43.54567,0,0,0-17.2774-14.19244,62.55906,62.55906,0,0,0-21.86168-3.6309q-23.56776.551-36.0461,18.73056a68.41384,68.41384,0,0,0-12.6911,40.65246q0,26.66274,13.54614,44.731,13.1146,18.39838,38.49881,18.94935a46.23513,46.23513,0,0,0,24.63354-7.0089q10.55852-6.72591,14.39916-16.65119h.53189v20.95046h36.15649V268.11334ZM238.6019,377.37763q0-12.13614,6.40074-20.51892,5.86786-8.38479,17.50019-8.60659,11.10045.2228,17.39382,8.60659,6.40374,8.38178,6.61751,22.17078-.21075,13.01828-7.043,21.18327-6.72288,8.59857-16.9683,8.82337-11.20281,0-17.28743-9.04616Q238.6039,391.6082,238.6019,377.37763Z"/><path id="path5" class="cls-2" d="M343.72948,432.98322a175.78708,175.78708,0,0,0,50.668,7.44045q29.73064.24086,51.73585-11.91033,22.36347-12.26861,23.074-44.75705,0-11.90731-3.24952-19.96695a37.53165,37.53165,0,0,0-9.26293-13.59432,55.08041,55.08041,0,0,0-12.87375-9.14047,84.94863,84.94863,0,0,0-15.03944-5.897q-7.34008-2.40554-14.55975-4.69067-7.34007-2.16468-13.235-4.211a27.51431,27.51431,0,0,1-9.38535-5.41123,10.29022,10.29022,0,0,1-3.72926-8.3015q.48474-11.07034,11.35435-13.83316a54.04849,54.04849,0,0,1,10.15008-1.92484q5.19345-.24387,9.42148-.24286a96.97882,96.97882,0,0,1,38.41651,7.82581l2.8983-35.4299q-18.21774-6.12678-43.82373-6.36663a155.20616,155.20616,0,0,0-25.83982,2.1677,84.06262,84.06262,0,0,0-23.93506,8.42193,47.79743,47.79743,0,0,0-17.3878,16.23971q-7.024,10.34477-7.02295,25.86391.23484,22.73379,13.10456,33.32442a55.92616,55.92616,0,0,0,13.229,9.02207,108.632,108.632,0,0,0,14.5477,6.25422q7.93921,2.41156,15.03542,4.69267a110.9183,110.9183,0,0,1,12.74529,4.69268,23.31441,23.31441,0,0,1,9.37733,6.37867,15.42313,15.42313,0,0,1,3.24954,10.1019q-.24387,10.10691-8.67883,13.47588-8.07771,3.48939-19.77025,3.24754-29.04723-.48171-47.36833-11.31622Z"/><path id="path7" class="cls-3" d="M480.87082,437.46716h44.33957V377.33949h17.7009q67.30416-.72258,68.26658-55.36274.24689-56.69145-76.281-56.44859h-54.026Zm44.33755-139.44553H537.474q12.51245,0,21.0247,4.69468,8.13494,5.42226,8.38379,18.42949-.24687,13.12363-8.38379,18.54791-8.51124,5.41926-21.0247,5.17639h-12.2656Z"/><path id="path9" class="cls-3" d="M596.869,437.46716h45.05813l13.15674-36.67834h62.52219L729.946,437.46716h48.66488l-64.14592-171.939H660.0877Zm113.71611-69.1959h-43.063l22.12862-67.29513h.60417Z"/><path id="path11" class="cls-3" d="M917.13913,397.54931a101.35129,101.35129,0,0,1-41.62791,8.90363q-24.8323,0-39.87167-14.56776-15.50517-14.32491-15.744-39.72517.23484-24.56127,14.343-39.84961,13.87027-15.52617,37.66179-15.768,22.499,0,43.48657,12.093l3.61483-37.16406a156.67232,156.67232,0,0,0-49.41761-8.89963q-41.96309,0-68.3007,22.12663-26.68991,22.4839-27.15852,67.46173.93635,48.09591,31.237,68.30272a94.84773,94.84773,0,0,0,31.00422,15.02941,118.19174,118.19174,0,0,0,33.45084,4.93153,165.72751,165.72751,0,0,0,28.6719-2.523,199.61552,199.61552,0,0,0,20.74571-4.43576Z"/><polygon id="polygon13" class="cls-3" points="932.024 437.467 1052 437.467 1052 404.974 976.313 404.974 976.313 366.007 1045.361 366.007 1045.361 333.538 976.313 333.538 976.313 298.022 1049.319 298.022 1049.319 265.528 932.024 265.528 932.024 437.467"/></g></svg>