<?xml version="1.0" encoding="UTF-8"?><svg id="LOGO" xmlns="http://www.w3.org/2000/svg" viewBox="0 0 1250 703"><path d="M547.38,289.769h107.548l-6.344,29.858h-60.97l-3.746,17.599h58.317l-6.344,29.858h-58.299l-3.584,16.882h62.224l-6.344,29.858h-108.803l26.345-124.054Z" fill="#455662"/><path d="M678.657,289.769h69.859c35.557,0,58.049,12.079,47.349,62.404-9.982,46.937-40.127,61.687-75.684,61.687h-67.905l26.381-124.09ZM706.489,382.908h11.918c17.241,0,23.567-11.38,27.958-31.99,4.534-21.327,2.617-32.349-14.463-32.349h-11.739l-13.674,64.339Z" fill="#455662"/><path d="M853.035,289.769h65.594l17.886,124.09h-49.948l-2.473-26.847h-40.181l-13.352,26.847h-47.457l69.931-124.09ZM856.853,357.137h27.564l-4.857-40.7h-.358l-22.348,40.7Z" fill="#455662"/><path d="M1061.125,409.217c-17.366,4.803-33.263,6.757-52.815,6.757-41.238,0-69.698-21.685-60.289-65.952,8.835-41.596,47.744-62.404,87.566-62.404,23.298,0,34.105,1.774,45.414,4.624l-7.097,33.424c-5.932-3.907-17.868-7.115-31.202-7.115-23.639,0-41.811,11.918-46.614,34.481-3.62,17.062.125,31.99,19.158,31.99,3.387,0,7.294,0,10.359-1.075l7.025-33.066h40.879l-12.384,58.335Z" fill="#455662"/><polygon points="284.289 336.813 441.911 336.813 435.548 366.725 277.909 366.725 284.289 336.813" fill="#455662"/><polygon points="304.128 242.885 461.768 242.885 455.388 272.815 297.766 272.815 304.128 242.885" fill="#455662"/><polygon points="264.431 430.741 422.053 430.741 415.691 460.653 258.051 460.653 264.431 430.741" fill="#455662"/><path d="M474.779,414.325s-277.823.054-278.253.054l278.361-.054,26.381-124.09c.108.072-278.253,0-278.253,0l-6.524,29.929,248.234-.054-13.638,64.375-247.929.054-6.613,29.858" fill="#455662"/></svg>