<svg id="Layer_3" data-name="Layer 3" xmlns="http://www.w3.org/2000/svg" xmlns:xlink="http://www.w3.org/1999/xlink" viewBox="0 0 1250 703"><defs><style>.cls-1{fill:none;}.cls-2{fill:#1d1d1b;}.cls-3{fill:url(#linear-gradient);}.cls-4{fill:url(#linear-gradient-2);}.cls-5{fill:url(#linear-gradient-3);}.cls-6{fill:url(#linear-gradient-4);}.cls-7{fill:url(#linear-gradient-5);}.cls-8{fill:#666;}.cls-9{clip-path:url(#clip-path);}.cls-10{fill:url(#New_Gradient_Swatch_4);}</style><linearGradient id="linear-gradient" x1="258.35" y1="432.26" x2="425.29" y2="292.18" gradientUnits="userSpaceOnUse"><stop offset="0" stop-color="#fdf6fa"/><stop offset="1" stop-color="#d72173"/></linearGradient><linearGradient id="linear-gradient-2" x1="228.98" y1="397.26" x2="395.92" y2="257.18" xlink:href="#linear-gradient"/><linearGradient id="linear-gradient-3" x1="247.87" y1="418.53" x2="442.91" y2="305.92" gradientUnits="userSpaceOnUse"><stop offset="0" stop-color="#f2e9f4"/><stop offset="0.9" stop-color="#e73180"/></linearGradient><linearGradient id="linear-gradient-4" x1="244.37" y1="415.6" x2="411.32" y2="275.52" xlink:href="#linear-gradient"/><linearGradient id="linear-gradient-5" x1="436.41" y1="238.46" x2="316.08" y2="381.86" gradientUnits="userSpaceOnUse"><stop offset="0" stop-color="#fff"/><stop offset="0.6" stop-color="#d83381"/></linearGradient><clipPath id="clip-path"><path class="cls-1" d="M260.42,225.22S238,270.75,297.23,359.35c0,0,88,123.53,171,119.8,0,0,16.22-1.88,26.2-13.11,0,0-9.36,29.32-47.41,23.08,0,0-66.76-6.87-142.25-99.82,0,0-45.55-54.28-54.91-116.06,0,0-5-34.92,10.61-48"/></clipPath><linearGradient id="New_Gradient_Swatch_4" x1="234.71" y1="229.01" x2="497.78" y2="492.07" gradientUnits="userSpaceOnUse"><stop offset="0.15" stop-color="#1d1d1b"/><stop offset="0.2" stop-color="#4f4f4d"/><stop offset="0.25" stop-color="#7c7c7a"/><stop offset="0.3" stop-color="#a1a1a0"/><stop offset="0.35" stop-color="#bebebd"/><stop offset="0.4" stop-color="#d2d2d1"/><stop offset="0.45" stop-color="#dfdfde"/><stop offset="0.5" stop-color="#e3e3e2"/><stop offset="0.55" stop-color="#dfdfde"/><stop offset="0.6" stop-color="#d2d2d1"/><stop offset="0.65" stop-color="#bebebd"/><stop offset="0.7" stop-color="#a1a1a0"/><stop offset="0.75" stop-color="#7c7c7a"/><stop offset="0.8" stop-color="#4f4f4d"/><stop offset="0.85" stop-color="#1d1d1b"/></linearGradient></defs><title>edom-technology-logo</title><path class="cls-2" d="M1000.9,265.9h5.94v-7.43H963.13L950.49,311.7l-12.64-53.23H902v7.43h2.64a2.38,2.38,0,0,1,2.36,1.93v88.55c0,14.23,1.79,12.61-5.82,12.61v5.93h21.66V369c-7.44,0-6,1.62-6-12.61v-79l22.23,97.52H950.4l24.35-101.66h.33v93.17h0v.1h0c0,.46-.15,2.18-1.75,2.45h-7.18v5.93h40.69V369h-6.05c-2-.21-1.89-2.58-1.89-2.58h0V267.85A2.13,2.13,0,0,1,1000.9,265.9Z"/><path d="M822,256.19c-25.31,0-41.68,28.44-41.68,60.54s16.37,60.53,41.68,60.53,41.68-28.45,41.68-60.53S847.34,256.19,822,256.19Zm13.89,95.46c0,11.33-4.46,17-13.89,17s-13.9-5.67-13.9-17V281.87c0-11.33,4.48-17,13.9-17s13.89,5.67,13.89,17Z"/><path class="cls-2" d="M613.36,336.54C611.53,354.9,605.25,369,582.42,369h-6.78V319c14.89,0,16.87,7.8,17,20.54h3V291.39h-3c-.66,12.07-2.15,18.72-17,18.72V265.87h7.28c21.5,0,26.63,11,28,23.2h3v-30.6h-71v7.4h5.48c.49,0,2.38.18,2.46,2V367a2.14,2.14,0,0,1-1.54,1.95h-6.4v5.93h71.78L616,336.54Z"/><path d="M699,258.47H659.17v7.4h5.47c.5,0,2.4.18,2.47,2.06v98.72a2.34,2.34,0,0,1-1.59,2.34h-6.35v5.93h38.37c33.91,0,44.33-28.45,44.33-59.88C741.87,287.09,731.45,258.47,699,258.47Zm15.05,83.2c0,20.2-4.13,28.18-17.86,28.18h-4.3v-104h2.31c14.23,0,19.85,4.71,19.85,21.78Z"/><rect class="cls-2" x="1000.11" y="436.66" width="6.67" height="10.57" rx="1.67"/><path class="cls-2" d="M858.23,436.66q-.43,10.57-6.65,10.57H844.9c-1.82,0-3.4-1-4.7-3.11a13.7,13.7,0,0,1-2-7.43v-26.4a13.88,13.88,0,0,1,1.93-7.4q1.94-3.15,4.73-3.15h6.68c4.18,0,6.41,3.53,6.65,10.57h-3.37c-.25-3.51-1.36-5.28-3.31-5.28h-3.32a2.77,2.77,0,0,0-2.34,1.55,6.66,6.66,0,0,0-1,3.71v26.4a6.9,6.9,0,0,0,1,3.7,2.79,2.79,0,0,0,2.35,1.55h3.32c2,0,3.07-1.75,3.31-5.28Z"/><path class="cls-2" d="M870.33,399.74H877c1.83,0,3.39,1.05,4.7,3.13a13.71,13.71,0,0,1,2,7.42v26.4a13.7,13.7,0,0,1-2,7.41c-1.31,2.08-2.87,3.13-4.7,3.13h-6.68c-1.81,0-3.39-1-4.68-3.11a13.53,13.53,0,0,1-2-7.43v-26.4a13.48,13.48,0,0,1,2-7.43C866.94,400.78,868.52,399.74,870.33,399.74Zm0,10.55v26.4a7,7,0,0,0,1,3.7,2.57,2.57,0,0,0,4.72,0,6.9,6.9,0,0,0,1-3.7v-26.4a6.67,6.67,0,0,0-1-3.71,2.55,2.55,0,0,0-4.69,0A6.67,6.67,0,0,0,870.34,410.29Z"/><path class="cls-2" d="M932.51,447.23V399.74h6.66v42.2h10v5.29Z"/><path class="cls-2" d="M956.39,447.23V405h-6.65v-5.29h20V405h-6.66v42.2Z"/><path class="cls-2" d="M976,447.23V399.74h13.33c1.82,0,3.4,1.05,4.7,3.13a13.62,13.62,0,0,1,2,7.42v26.4a13.61,13.61,0,0,1-2,7.41c-1.3,2.08-2.88,3.13-4.7,3.13Zm6.67-5.29H986a2.8,2.8,0,0,0,2.36-1.55,6.9,6.9,0,0,0,1-3.7v-26.4a6.59,6.59,0,0,0-1-3.71A2.78,2.78,0,0,0,986,405h-3.33Z"/><path class="cls-2" d="M557.09,447.23V405h6.66v-5.29h-20V405h6.66v42.2Z"/><path class="cls-2" d="M571,447.23V399.74h16.69V405h-10v15.78h6.75v5.28h-6.75v15.85h10v5.29Z"/><path class="cls-2" d="M614.31,436.66q-.43,10.57-6.67,10.57H601q-2.73,0-4.7-3.11a13.61,13.61,0,0,1-1.95-7.43v-26.4a13.7,13.7,0,0,1,1.93-7.4q1.93-3.15,4.72-3.15h6.67c4.2,0,6.41,3.53,6.67,10.57h-3.39c-.25-3.51-1.35-5.28-3.29-5.28H604.3a2.79,2.79,0,0,0-2.34,1.55,6.75,6.75,0,0,0-1,3.71v26.4a6.9,6.9,0,0,0,1,3.7,2.79,2.79,0,0,0,2.35,1.55h3.33c2,0,3.06-1.75,3.29-5.28Z"/><path class="cls-2" d="M621,447.23V399.74h6.66v21.07h6.66V399.74H641v47.49h-6.67V426.09H627.7v21.14Z"/><path class="cls-2" d="M685.55,399.74h6.68c1.82,0,3.39,1.05,4.7,3.13a13.62,13.62,0,0,1,2,7.42v26.4a13.61,13.61,0,0,1-2,7.41c-1.31,2.08-2.88,3.13-4.7,3.13h-6.68q-2.73,0-4.7-3.11a13.69,13.69,0,0,1-2-7.43v-26.4a13.65,13.65,0,0,1,2-7.43Q682.82,399.74,685.55,399.74Zm0,10.55v26.4a6.9,6.9,0,0,0,1,3.7,2.56,2.56,0,0,0,4.71,0,6.9,6.9,0,0,0,1-3.7v-26.4a6.74,6.74,0,0,0-1-3.71,2.56,2.56,0,0,0-4.7,0A6.75,6.75,0,0,0,685.56,410.29Z"/><path class="cls-2" d="M706.9,447.23V399.74h6.66v42.2h10v5.29Z"/><path class="cls-2" d="M734.29,399.74H741c1.82,0,3.39,1.05,4.69,3.13a13.62,13.62,0,0,1,2,7.42v26.4a13.61,13.61,0,0,1-2,7.41c-1.3,2.08-2.87,3.13-4.69,3.13h-6.67c-1.82,0-3.39-1-4.69-3.11a13.53,13.53,0,0,1-2-7.43v-26.4a13.48,13.48,0,0,1,2-7.43C730.9,400.78,732.47,399.74,734.29,399.74Zm0,10.55v26.4a7,7,0,0,0,1,3.7,2.79,2.79,0,0,0,2.35,1.55,2.82,2.82,0,0,0,2.37-1.55,6.9,6.9,0,0,0,1-3.7v-26.4a6.67,6.67,0,0,0-1-3.71,2.54,2.54,0,0,0-4.68,0A6.75,6.75,0,0,0,734.29,410.29Z"/><path class="cls-2" d="M764.38,420.81h10v15.86c0,3.5-.7,6.14-2.13,7.91s-2.93,2.65-4.53,2.65H761c-1.81,0-3.38-1-4.69-3.11a13.61,13.61,0,0,1-1.95-7.43v-26.4a13.78,13.78,0,0,1,1.92-7.4q2-3.15,4.72-3.15h6.68q6.3,0,6.66,10.57H771c-.26-3.51-1.35-5.28-3.31-5.28h-3.32a2.78,2.78,0,0,0-2.34,1.55,6.66,6.66,0,0,0-1,3.71v26.4a6.7,6.7,0,0,0,1,3.72,2.81,2.81,0,0,0,2.36,1.53c2.1-.16,3.22-1.91,3.32-5.27V426.09h-3.3Z"/><path class="cls-2" d="M787.74,447.23V426.09q-6.66-1.2-6.66-10.54V399.74h6.66v15.78a6.91,6.91,0,0,0,1,3.73,2.56,2.56,0,0,0,4.71,0,6.83,6.83,0,0,0,1-3.73V399.74h6.67v15.81q0,9.33-6.67,10.54v21.14Z"/><polygon class="cls-2" points="669.76 399.74 668.92 399.74 666.34 399.74 666.34 426.21 650.47 399.74 648.93 399.74 648.93 447.23 650.96 447.23 652.31 447.23 654.58 447.23 654.58 420.28 670.76 447.23 672.29 447.23 672.29 399.74 669.76 399.74"/><rect class="cls-2" x="887.77" y="436.66" width="6.66" height="10.57" rx="1.67"/><path class="cls-2" d="M905.05,438.31a1.67,1.67,0,0,0-1.67-1.65h-3.32a1.66,1.66,0,0,0-1.67,1.66h0v7.23h0a1.67,1.67,0,0,0,1.67,1.67h1.63c-.08,3.4-1.19,5.16-3.3,5.28v5.28q6.66-1.17,6.66-10.56v-8.92Z"/><path class="cls-3" d="M329.89,331.07l14.95,22.42c51.57-78.36,127.51-65.43,127.51-65.43,3.66.21,9.32.64,13.84,1.22a128.51,128.51,0,0,0-14-19.92C373.85,257.42,329.89,331.07,329.89,331.07Z"/><path class="cls-4" d="M303,290.48l12.63,18.2c44.8-58.85,105.31-60.87,140.59-55a134.15,134.15,0,0,0-22.69-15.28C350.89,230,303,290.48,303,290.48Z"/><path class="cls-5" d="M502.26,349.57A120.45,120.45,0,0,0,496,311.23c-48.23-8.63-89.63,18.06-89.63,18.06-50.73,35.83-62.91,92.83-62.91,92.83l-44.53-54.85-38-59.92c3.83-11.15,25.86-32.69,25.86-32.69,52-55.29,117.79-45,142-38.68a132.34,132.34,0,0,0-57.61-13.26c-70.71,0-128,56.78-128,126.85,0,68.42,57.3,120,128,120S502.26,419.62,502.26,349.57Z"/><path class="cls-6" d="M286.76,274.66s-22,21.54-25.86,32.69l38,59.92,44.53,54.85s12.18-57,62.91-92.83c0,0,41.4-26.69,89.63-18.06a123.9,123.9,0,0,0-9.81-22c-4.52-.58-10.18-1-13.84-1.22,0,0-75.94-12.93-127.51,65.43l-14.95-22.42s44-73.65,142.28-61.71a132.34,132.34,0,0,0-16-15.71c-35.28-5.84-95.79-3.82-140.59,55L303,290.48s47.9-60.51,130.53-52.11c-1.56-.83-3.15-1.62-4.74-2.39C404.55,229.66,338.74,219.37,286.76,274.66Z"/><path class="cls-7" d="M286.76,274.66s-22,21.54-25.86,32.69l38,59.92,44.53,54.85s12.18-57,62.91-92.83c0,0,41.4-26.69,89.63-18.06a123.9,123.9,0,0,0-9.81-22c-4.52-.58-10.18-1-13.84-1.22,0,0-75.94-12.93-127.51,65.43l-14.95-22.42s44-73.65,142.28-61.71a132.34,132.34,0,0,0-16-15.71c-35.28-5.84-95.79-3.82-140.59,55L303,290.48s47.9-60.51,130.53-52.11c-1.56-.83-3.15-1.62-4.74-2.39C404.55,229.66,338.74,219.37,286.76,274.66Z"/><path class="cls-8" d="M274.55,215.93s-17.66,6.57-19.13,19.27c0,0,12.49-23.72,62.4-5.63,0,0,2.08.75,5.75,2.25A128.15,128.15,0,0,1,342.49,226C328.78,219.5,298,207.44,274.55,215.93Z"/><path class="cls-8" d="M498.83,431.69s.23-12.6-6-36.4a110.47,110.47,0,0,1-7.78,14.77c2.11,9.22,8.13,40.56-.47,66.58h.64C488.51,475,501.55,466.09,498.83,431.69Z"/><path class="cls-1" d="M484.58,476.64l-.11.33a5.66,5.66,0,0,0,.75-.33Z"/><g class="cls-9"><rect class="cls-10" x="237.97" y="225.75" width="256.56" height="269.58"/></g></svg>