<?xml version="1.0" encoding="UTF-8"?><svg id="LOGOS" xmlns="http://www.w3.org/2000/svg" viewBox="0 0 1250 703"><defs><style>.cls-1{fill:#2d4f9e;}.cls-1,.cls-2,.cls-3,.cls-4{fill-rule:evenodd;stroke-width:0px;}.cls-2{fill:#cc203c;}.cls-3{fill:#000;}.cls-4{fill:#33a457;}</style></defs><g id="Layer_4"><path class="cls-3" d="M969.55137,307.99518c.9003,0,1.79311.37201,2.43303,1.00819s1.01559,1.54017,1.01559,2.44416v81.32717c-.01215,1.89955-1.54908,3.43645-3.44863,3.44863h-104.8351c-.91183-.00417-1.78551-.36622-2.43303-1.00819-.64208-.65048-1.00396-1.52646-1.00816-2.44044v-81.32717c0-.90399.37204-1.8043,1.00816-2.44416.64639-.64367,1.52081-1.006,2.43303-1.00819h104.8351ZM849.35934,307.87986h-106.20781c-1.90718.01016-3.4513,1.55263-3.4635,3.45978v11.52516c0,.90399.37945,1.80801,1.02306,2.44788.65048.64208,1.52646,1.00396,2.44044,1.00819h62.48809l-65.34894,66.13389c-.39946.44459-.61491,1.02445-.60268,1.62199.03414.59763.28709,1.16174.71056,1.58481.43108.41203,1.00339.64361,1.59968.64733h106.20784c.90774,0,1.80799-.37945,2.44791-1.01562s1.00816-1.54017,1.00816-2.44044v-11.5326c0-.90027-.37204-1.80058-1.00816-2.44044s-1.54017-1.01562-2.44791-1.01562h-62.49553l65.36378-66.12646c.3906-.43897.61012-1.03421.58781-1.62571s-.27531-1.16443-.69941-1.57738c-.43125-.41496-1.00492-.64923-1.6034-.65476ZM946.77262,326.39526h-59.28503c-1.26616.01215-2.28896,1.03665-2.29907,2.30281v46.8298c.00806,1.26761,1.03149,2.29435,2.29907,2.30653h59.28503c1.26962-.01013,2.2964-1.03688,2.3065-2.30653v-46.8298c0-1.27181-1.03098-2.30281-2.30281-2.30281h-.00369ZM705.60729,311.49961c0-.90774.37201-1.80058,1.00819-2.44044.64804-.64165,1.52109-1.00475,2.433-1.0119h17.02362c.90027,0,1.80058.37573,2.44044,1.0119.64307.6498,1.00515,1.52623,1.00819,2.44044v81.3346c0,.90027-.37201,1.80058-1.00819,2.44044s-1.54017,1.00444-2.44044,1.00444h-17.02362c-.90027,0-1.79314-.36458-2.433-1.00444s-1.00819-1.54017-1.00819-2.44044v-81.3346ZM607.40906,374.17744v-12.89046h84.36285c.90027,0,1.79314-.37201,2.433-1.00819s1.01562-1.54017,1.01562-2.44044v-11.49913c-.00778-.91469-.37216-1.79028-1.01562-2.44044-.64841-.6406-1.52152-1.00242-2.433-1.00819h-84.36285v-11.30939l-.02606-2.79015c.00409-1.26803,1.03103-2.29498,2.29907-2.29907l2.61903-.03721h79.47451c.90027,0,1.79314-.37201,2.433-1.00819.6448-.64929,1.00941-1.52541,1.01562-2.44044v-11.50285c-.00701-.91486-.3715-1.79073-1.01562-2.44044-.64804-.64165-1.52109-1.00475-2.433-1.0119h-104.83507c-.9154.00622-1.79226.36926-2.44416,1.0119-.64006.65181-1.0016,1.52694-1.00819,2.44044v81.3346c0,.90027.37573,1.80058,1.00819,2.44044.63986.63986,1.54017,1.00444,2.44416,1.00444h104.83507c.90027,0,1.79314-.36458,2.433-1.00444s1.01562-1.54017,1.01562-2.44044v-11.50285c-.01218-1.89955-1.54908-3.43645-3.44863-3.44863h-79.67537l-2.38464-.05208c-.60972-.00204-1.19449-.24233-1.62946-.66964-.43023-.43514-.67324-1.02127-.67707-1.63318v-1.35414.00006Z"/><path class="cls-2" d="M297.86657,338.2106l-20.86657,20.86657,120.7017,120.6868,20.85912-20.85914-120.69425-120.69424Z"/><path class="cls-4" d="M410.8898,492.95955l-13.19553-13.20295,149.00494-148.99754,13.19924,13.19924v21.27952h-21.29067v21.29067h-21.28323v21.29067h-21.28695v21.27952h-21.28694v21.29067h-21.28695v21.2907h-21.29067v21.27952h-21.28323Z"/><path class="cls-1" d="M451.3655,265.17948l14.87706-14.87706,14.89193,14.89193-14.87706,14.87706,14.9031,14.89937,14.88078-14.87706,14.90309,14.90683-14.87706,14.87706,14.89565,14.89565,14.87706-14.87706,14.90309,14.89565-122.18607,122.18607-114.70475-114.69731c-.55821-6.55703,2.52241-12.89253,8.02446-16.50277,2.70132-1.77075,5.83156-2.77729,9.05867-2.9129,9.29252-.40062,16.73458-7.84272,17.13521-17.13523.18906-4.48369,2.05596-8.73269,5.23059-11.90461,3.17401-3.17158,7.42175-5.03792,11.90462-5.23059,9.29643-.38989,16.745-7.83525,17.13894-17.13151.39031-9.29847,7.84037-16.74692,17.13893-17.13523,9.29481-.3954,16.7398-7.84042,17.13521-17.13521.13679-3.22806,1.14322-6.3592,2.91292-9.0624,3.61035-5.50393,9.94803-8.58491,16.5065-8.02446l25.31964,25.31591-14.87706,14.88078,14.8845,14.87706-14.92542,14.92542-14.8845-14.88821-14.9217,14.92542,14.88821,14.8845-14.92914,14.92542-14.8845-14.8845-14.92914,14.93286,14.88078,14.8845,14.93286-14.93658,14.89193,14.89565-14.93286,14.93286,14.90682,14.89565,14.92914-14.92542,14.9031,14.90309-14.92914,14.93286,14.89566,14.89565,14.93286-14.93286-14.89566-14.89565,14.92542-14.92542,14.89938,14.89565,14.9217-14.91799-14.89566-14.89937-14.92542,14.92542-14.9031-14.90309-14.92542,14.92542-14.9031-14.90309,14.92542-14.92542,14.89938,14.90309,14.92542-14.9217-14.90682-14.89937-14.91797,14.9217-14.88821-14.89565,14.91799-14.91799,44.70185,44.69813,14.92542-14.92542-14.9031-14.90683-14.92542,14.92914-14.90682-14.89937,14.92914-14.92914-14.89938-14.89937.00006.00003Z"/></g></svg>