<svg id="LOGOS" xmlns="http://www.w3.org/2000/svg" xmlns:xlink="http://www.w3.org/1999/xlink" viewBox="0 0 1250 703"><defs><style>.cls-1{fill:#1a1a1a;}.cls-2{fill:url(#linear-gradient);}</style><linearGradient id="linear-gradient" x1="383.09761" y1="11981.32793" x2="195.9503" y2="11873.27838" gradientTransform="matrix(1, 0, 0, -1, 0, 12272)" gradientUnits="userSpaceOnUse"><stop offset="0.0117" stop-color="#ee5c17"/><stop offset="1" stop-color="#ee9604"/></linearGradient></defs><g id="Layer_4" data-name="Layer 4"><g id="Layer_1" data-name="Layer 1"><path class="cls-1" d="M438.31,305.21886h64.40713v13.70587h-49.769v24.35155h38.19311v13.70587H452.94808v27.67919h50.16829V398.3672H438.31Z"/><path class="cls-1" d="M533.32275,329.30491h-.26552c0,.13373.26552,11.17867.26552,22.88834v46.17592H518.68467V305.21886h14.90356l49.50354,68.134h.39925c0-.13373-.26553-11.3124-.26553-21.82436V305.21886h14.63806v93.15228H582.96Z"/><path class="cls-1" d="M625.54083,370.42447c1.19773,11.31043,10.91119,16.63427,23.6868,16.63427,11.8434,0,19.02969-4.65712,19.02969-14.1051,0-13.17485-13.97334-13.44035-25.4175-16.10129-12.77561-2.9284-28.74315-7.98476-28.74315-27.01445,0-17.16723,12.77561-26.48149,32.73554-26.48149,17.96574,0,30.8731,7.4518,35.39846,23.55309l-13.97335,3.72688c-2.52918-9.04875-9.31623-14.23885-21.55888-14.23885-11.97712,0-17.69824,4.92264-17.69824,12.90739,0,10.77943,10.77944,13.04112,24.08605,15.70206,13.83962,2.66094,30.07461,7.45179,30.07461,27.94469,0,17.96571-12.64189,27.14623-33.93328,27.14623-15.83579,0-33.93328-5.05635-37.79387-25.81674Z"/><path class="cls-1" d="M784.0305,371.75395c-7.1863,17.69824-23.95233,28.344-43.91423,28.344-27.27995,0-47.90662-19.29519-47.90662-48.57134,0-28.87691,20.4929-48.1721,48.04034-48.1721,21.42511,0,36.59618,11.70967,42.7165,25.95047l-14.50434,3.85865c-3.85867-6.65332-12.50817-15.96953-28.74316-15.96953-19.42894,0-32.73554,13.44037-32.73554,34.46625,0,21.29138,13.97334,34.6,32.47007,34.6,14.23882,0,25.01825-7.45179,30.20838-18.36495Z"/><path class="cls-1" d="M814.50435,376.67854l-8.78322,21.69063H790.28458l38.45863-93.15228H845.112l38.32491,93.15228H867.73481l-8.6495-21.69062h-44.581Zm30.20838-35.79768c-3.32763-8.25027-7.58554-18.896-7.71926-19.0297h-.39924c-.13373.13374-4.52536,10.77943-7.851,19.0297l-8.915,22.48909h33.93328Z"/><path class="cls-1" d="M925.75212,305.21886c22.08983,0,35.3985,10.6457,35.3985,30.07462,0,18.76419-13.30666,29.94089-35.3985,29.94089H910.05005v33.1348H895.412V305.21886Zm.39929,47.10812c13.5741,0,20.3611-6.1223,20.3611-16.89976,0-11.17867-7.318-16.768-20.3611-16.768H910.0501V352.327Z"/><path class="cls-1" d="M973.79054,305.21886h64.40708v13.70587H988.42855v24.35155h38.19114v13.70587H988.42855v27.67919h50.16827V398.3672H973.79044V305.21886Z"/><path class="cls-1" d="M1063.47352,296.10719h-6.00627v14.46106h-3.894V296.10719H1047.567v-3.61478h15.90656Zm18.68951,14.46107v-6.61791l.055-6.34061h-.055c-.055.05507-1.001,2.00209-2.00212,3.894l-2.61374,5.00523H1075.433l-2.61374-5.00523c-1.05614-2.00209-2.11419-3.94911-2.16922-4.00417h-.055l.055,6.4527v6.61792h-3.72691V292.49438h4.56074l3.44756,6.56285c.83393,1.55762,1.55761,2.94807,1.61273,3.00314h.055c.055-.05507.72378-1.39045,1.50258-2.94806l3.33752-6.61792H1086v18.07585h-3.837Z"/><path class="cls-2" d="M277.75138,239.52748,164,305.18936l40.16178,107.75495,73.5896,50.52821,73.40277-50.40037,14.96848-40.03394-88.37125,52.27462-46.764-27.62413L214.9648,350.04958l62.78658,36.30114,102.911-59.46877.03344-.06491,3.45546-1.99815,7.32789-19.62953Zm0,108.14632L210.85049,309.05l66.90089-38.62382L344.65229,309.05Z"/></g></g></svg>