<svg id="LOGO" xmlns="http://www.w3.org/2000/svg" xmlns:xlink="http://www.w3.org/1999/xlink" viewBox="0 0 1250 703"><defs><style>.cls-1{fill:none;}.cls-2{clip-path:url(#clip-path);}.cls-3{fill:#f15b25;}.cls-4{fill:#f8982a;}</style><clipPath id="clip-path"><rect class="cls-1" x="295" y="209.68" width="660" height="283.63"/></clipPath></defs><title>esi-logo</title><g class="cls-2"><path class="cls-3" d="M928.59,306.16a26.44,26.44,0,0,0-26.4,26.41V466.51a26.41,26.41,0,0,0,52.81,0V332.57a26.43,26.43,0,0,0-26.41-26.41"/><path class="cls-3" d="M573.42,348.24a53.61,53.61,0,0,0,2.3-22.35l0-.24,0-.22A141.51,141.51,0,0,0,436.5,209.68c-78,0-141.5,63.49-141.5,141.52a140.38,140.38,0,0,0,11.7,56.3c30.68,71.71,114,105.12,185.75,74.4a26.4,26.4,0,0,0-20.78-48.53h0a90.91,90.91,0,0,1-30.68,7c-2,.11-2.05.11-3.54.11-48.9,0-89.66-40.41-89.66-89.32a88.64,88.64,0,0,1,171.36-31.93,9.08,9.08,0,0,1,.29,2.05,3.52,3.52,0,0,1-.46,1.92,4.53,4.53,0,0,1-3,1.56H427.35a26.4,26.4,0,1,0,0,52.79h106c18.85-1.71,34.25-12.7,40-29.35"/><path class="cls-4" d="M935.67,289.27A26.44,26.44,0,0,0,941,252.32h0a105.84,105.84,0,0,0-47.54-35.75c-48.9-18.42-104.84,2.2-130.1,47.95l-.06.09-.11.05-71.8,143a53.28,53.28,0,0,1-69.51,28.7,50.25,50.25,0,0,1-29.86-33.78,26.4,26.4,0,1,0-50.9,14,104.9,104.9,0,0,0,12.18,27.8,24.78,24.78,0,0,0,2,3.42,105.53,105.53,0,0,0,8.92,11.13s5.58,5.89,8.22,8.26c0,0,4,3.06,4,3A105.59,105.59,0,0,0,733,441.42c.3.16,76.87-151.8,77.13-152.31a53.19,53.19,0,0,1,88.64-5.21,26.42,26.42,0,0,0,36.95,5.37"/></g></svg>