<svg id="LOGO" xmlns="http://www.w3.org/2000/svg" viewBox="0 0 1250 703"><title>esri-logo</title><rect x="900.29" y="294.78" width="31.61" height="126.46" fill="#231f20"/><path d="M644.86,385.7c-7.45,7.83-17,13.41-30.71,13.41-17.66,0-31.89-11.34-34-30h96.44v-8.7c0-44-24-68.76-59.3-68.76-38.18,0-68.74,26.6-68.74,66.39s30.56,66.4,68.74,66.4c17.43,0,33.83-5.41,47.52-18.76Zm-32-70.38c19.76,0,31.88,11.6,32.16,30H580.14c2.39-18.18,14-30,32.68-30" fill="#231f20"/><path d="M720.68,330.35c0-9.49,10-13.44,18.45-13.44,10.73,0,18.63,4.43,24.68,12.8l20.1-20.09c-10.41-13-27.67-18-44-18-25.56,0-50.85,12.63-50.85,40.84,0,48.22,68.24,27.66,68.24,53.73,0,10-11.86,14.49-21.07,14.49-13.41,0-21.83-6.54-30-15.47l-20.42,20.42c12.83,13.89,29.41,18.78,48.55,18.78,25.81,0,54.55-10.54,54.55-40.58,0-49.28-68.25-30.83-68.25-53.48" fill="#231f20"/><path d="M884.27,293.44A40.72,40.72,0,0,0,873,291.62c-16.61,0-30.57,8.69-37.43,23.16h-.51v-20H803.48V421.24h31.61V353.52c0-6.84,4.2-31.88,34-31.88A60.68,60.68,0,0,1,883,323.7Z" fill="#231f20"/><path d="M954.39,294.15a8.18,8.18,0,1,1-8.18,8.18,8.19,8.19,0,0,1,8.18-8.18m0,14.91a6.73,6.73,0,1,0-6.73-6.73,6.71,6.71,0,0,0,6.73,6.73m-3.15-11.45h3.6c2.25,0,3.29,1,3.29,2.81A2.35,2.35,0,0,1,955.9,303l2.44,3.95h-1.81l-2.32-3.82H953v3.82h-1.72Zm1.72,4.06h1.25c1,0,2.23-.06,2.23-1.33s-1.18-1.32-2.23-1.29H953Z" fill="#231f20"/><path d="M915.83,231c12,0,21.29,8.7,21.29,20.21s-9.28,20.23-21.29,20.23a20.23,20.23,0,1,1,0-40.44" fill="#231f20"/><path d="M407.49,249.4A85.05,85.05,0,0,0,386,251.51c-1.75-.45-5,0-5.22,3.84a5.31,5.31,0,0,0,1.94,4.56,162.19,162.19,0,0,1,20.09,17.4c-3.82.42-8,1.12-12.22,2-4.74-10.27-20-.94-30.15-.53-1.19.05-2.33.2-3.51.29-1.1-8.57-1.9-17.46-1.71-23.72,13.15-7.44,38.56-12.93,55.84-13.2l3-.08c2.53,0,2.74-2,.36-2.37-21.46-2.92-40,1.41-59.12,9.31-19.86,8.37-45.13,27.63-60.54,64-3.6,10.13-18,58.43,7.59,99.89,20.79,33.64,47.56,49.65,80.3,54.22s50.41.61,71.08-8.57c48.32-21.46,85.23-102,48.32-160.37-14.57-27-52.75-50.58-94.54-48.76m-18.35,37.74a146.12,146.12,0,0,1,19.19-3,128,128,0,0,1,14.19,20.63c-6.54,3.16-15.25,5.59-18.8,10.66-1.47,2.1-1.83,5-1.88,8.07A192.15,192.15,0,0,0,370.35,334c-3.67-10.82-6.9-21.6-9.12-31.2,10.52-10.05,22.84-11.68,27.91-15.62m53.69,129c-2.88.3-5.74.67-8.26,1.06a119.44,119.44,0,0,0-21.8,5.86c-4.31-6.85-15.83-23.48-21.66-36,11.71-5.76,28.07-10.58,46.9-11.72a37.13,37.13,0,0,0,5.61,7.75c6.14,6.29-3.59,15.3-.79,33.08M373,341.88a157.45,157.45,0,0,1,28.91-10.45,16.52,16.52,0,0,1-1.48,7.34c-1.59,3-.86,11.6,1.08,14.41,6.14,8.92,16.32,4,24,7.18a17.54,17.54,0,0,1,7.82,6.81,130.3,130.3,0,0,0-46.33,11.46c-7.5-15.92-14-36.75-14-36.75M379.72,382l-1.77.9c-8.94-2.5-14.49-3.88-26.44-6.34-8.08-1.64-8.38-1.22-17.47,1.43-1.29.38-2.54.72-3.75,1.07-1.21-3.09-2.41-6.3-3.62-9.75A220.18,220.18,0,0,1,365.83,345c4.05,12.12,9.86,28.3,13.89,36.94M386,418.75c2.38-6.2,4.24-10.81,4.91-15.34,4.62,7.78,10.14,16.23,14.41,22.85A140.65,140.65,0,0,0,383.57,440c.5-8.42.68-16.77,2.38-21.2m43.32-118.86c-.08.12-.23.21-.32.33a186.73,186.73,0,0,0-11.18-17.15,178.11,178.11,0,0,1,27.4.88c-8.24,2.95-11.87,10.18-15.9,15.94M356,308.77c.15-.2.31-.38.46-.58,1.9,9.6,4.18,17.55,7.2,28.57-11.39,5-31.52,17.44-40.41,24.13a139.66,139.66,0,0,1-4.78-15.8c2-6,6.15-10.18,12-10.76,10-1,18.52-15.83,25.55-25.56M312,294.29c10.66-14.92,25.14-29.45,38.35-36.7-.13,3.24.7,12.72,1.77,21.86-4.63.47-9.2,1-13.74,1.71a98.22,98.22,0,0,0-25.29,33.2c-1-8.55-1.45-15.69-1.09-20.07m-7,11.67s.5,8.61.92,14.89c0,0-6.35,7.2-9.58,12.92C297.69,322,300.45,316,305.06,306M367.3,455c-32.85-10.3-57.2-38-65.88-67a141.81,141.81,0,0,1-5.29-52.56,5.34,5.34,0,0,0,3.09.13c1.09-.75,5-3.49,7.77-5.91,0,.32.1.72.15,1.07a98,98,0,0,0-3.26,22c3,3.17,6.54,8.42,10.45,13.85-2.52,1.88-7.35,5.22-8.49,6-3.33,2.37-3.29,6.11-.92,8.24,1.3,1.17,4,.69,5-.08a86.39,86.39,0,0,1,8.66-6.25c1.23,3.19,2.37,6.06,3.5,8.81a10.79,10.79,0,0,0-2.78,6.48c-1.1,9.52,8,17,15.58,19.17.28.08.49.11.76.19.41.61.77,1.19,1.2,1.81a47.08,47.08,0,0,0-8.52,8.64c-1.07,1.39-2.28,3.49-1.29,3.9s4.34,0,5.83-.27c3.79-.73,6.71-4.93,9.32-6.46a146.72,146.72,0,0,0,13.58,15.26c.23,1,.45,2,.72,2.86a59.72,59.72,0,0,0,4,9.7,96.64,96.64,0,0,0,11.89,4.56A67.29,67.29,0,0,0,367.3,455m8,2.53a36.18,36.18,0,0,1,4.1-5.08c3.79,2.52,7.86,5.41,11.11,7.26-5-.56-10.87-.68-15.21-2.18m25.28,2.52s-13-8.62-16.32-11.94a114.1,114.1,0,0,1,25.4-15.34c3.27,5.13,14,20.36,18.34,25.27a139.75,139.75,0,0,1-27.42,2m54.45-12.24c-2.33,1.53-13.51,6.6-17.9,8a191.92,191.92,0,0,1-19.82-26c6.86-2.88,17.41-5.45,27.18-6.67a60.44,60.44,0,0,0,3.6,8.88A20.35,20.35,0,0,0,453.4,439c.7-.43,1.34-.93,2-1.37-.05,3.4-.14,6.87-.35,10.21m-2.68-174.43c-2.2-1.39-4.93-.87-3.8,1.57.44.95,2.11,2.55,3.47,4.16-8-2.21-29.3-3.89-39.43-3-6.62-7.44-14.16-16.47-23.24-22.45,40.6-2.53,77.07,14.26,93.18,34a125.6,125.6,0,0,0-21.67-7.82,48.48,48.48,0,0,0-8.51-6.49m8.89,171.08c.18-3.31.32-7.5.42-11.35a96.38,96.38,0,0,0,11.13-10,101.62,101.62,0,0,1,11.59,1.95c-6,7.61-14.31,13.95-23.14,19.45m31.06-30.25a33.64,33.64,0,0,1-5.15,7.26,80,80,0,0,0-10.33-3c.64-.76,1.33-1.48,1.95-2.27,2.18-14.58-2.75-19.25,3.42-32.59l1.39-3a95.05,95.05,0,0,1,9.37,3.13c.35,5,.32,22.17-.65,30.53m-5.75-39.93c1.59-3.3,3.34-6.82,5.24-10.32.49,4.45.84,8.79,1.06,12.7-1.95-.86-4.1-1.63-6.3-2.38m18,9.15L503,389.61a148.47,148.47,0,0,1-6.75,18.05,206.72,206.72,0,0,0,1.2-22.17c1.3.4,4.08-1.19,4.54-2.77s-4.58-4-4.58-4a167.82,167.82,0,0,0-1.4-21.93c1.16-1.86,2.33-3.67,3.53-5.32a97.61,97.61,0,0,0-1.51-12.78,10.12,10.12,0,0,0,2.62.6c2.3,0,2.29-1.54,1.56-2.42a31.36,31.36,0,0,0-5.22-3.4,97.7,97.7,0,0,0-22.58-43.21,119.67,119.67,0,0,1,14.24,6.28c3.34,4.19,12.88,13.6,18,40a98.89,98.89,0,0,1-2,47" fill="#231f20"/></svg>