<?xml version="1.0" encoding="UTF-8"?><svg id="LOGOS" xmlns="http://www.w3.org/2000/svg" viewBox="0 0 1250 703"><defs><style>.cls-1{fill:#2d2a27;}.cls-1,.cls-2{stroke-width:0px;}.cls-2{fill:#ff7023;}</style></defs><g id="Layer_7"><path class="cls-2" d="M282.62067,271h-69.23546c-7.15807,0-13.77457,3.81921-17.3536,10.0213l-34.61773,59.95824c-3.57903,6.20209-3.57903,13.8405,0,20.03788l35.19226,61.12613c3.57903,6.2021,10.44042,9.85177,17.60319,9.85177h34.46704l-46.77232-80.99919,23.04709-39.92035h46.0989l23.04709,39.92035-27.81286,48.17097h46.27784l22.02518-38.14968c3.57904-6.19738,3.57904-13.83579,0-20.03788l-34.61774-59.95824c-3.57904-6.20209-10.19553-10.0213-17.35361-10.0213h.00473Z"/><polygon class="cls-1" points="457.39527 292.68612 397.25808 292.68612 397.25808 320.97932 443.58773 320.97932 443.58773 341.00307 397.25808 341.00307 397.25808 377.48567 458.37949 377.48567 458.37949 399.1718 381.45852 399.1718 369.93969 379.21868 369.93969 271 457.37642 271 457.37642 292.68612 457.39527 292.68612"/><polygon class="cls-1" points="458.21468 301.39824 458.21468 300.41401 484.96796 300.41401 505.96182 377.41033 509.86578 377.41033 530.95853 300.41401 555.2677 300.41401 555.2677 301.39824 527.04985 399.12941 486.42781 399.12941 458.21468 301.39824"/><path class="cls-1" d="M615.32484,321.7846c-3.2588-4.04525-7.87386-6.07494-13.86405-6.07494s-10.8878,1.95905-14.49979,5.87715c-3.60728,3.9181-5.84417,9.79054-6.68715,17.61732h40.71623c-.52272-7.56777-2.40642-13.379-5.66525-17.41954ZM576.07319,395.32905c-7.09214-4.17711-12.45127-10.17199-16.06326-17.96581-3.60728-7.79382-5.42036-17.05692-5.42036-27.78931s1.80365-19.95783,5.42036-27.68571c3.60728-7.7326,8.9523-13.65213,16.01618-17.76802,7.06388-4.11589,15.60648-6.16912,25.63247-6.16912,14.51393,0,25.64661,4.4785,33.39803,13.42609s11.62247,21.97809,11.62247,39.09153v5.52867h-66.4005c.58394,8.42486,2.75022,15.00369,6.48937,19.7412,3.74386,4.73751,8.80631,7.10626,15.18735,7.10626,4.82227,0,8.82043-1.44574,12.01331-4.34193,3.18817-2.89619,5.30263-6.54586,6.34335-10.96315h25.09092c-1.04073,6.31982-3.28705,12.04157-6.73423,17.17465-3.45189,5.13309-8.25062,9.23014-14.40562,12.28644-6.155,3.0563-13.5909,4.58681-22.31245,4.58681-10.15315,0-18.78051-2.09091-25.87265-6.26802l-.00943.00941h.00469Z"/><path class="cls-1" d="M657.11945,300.41401h16.01618l8.39658,14.8059h3.90399l8.4908-14.8059h23.13657v22.01577h-8.50023c-6.44694,0-11.49059,1.1208-15.14027,3.3577s-6.21619,5.62285-7.70905,10.17199c-1.50222,4.53972-2.25104,10.56757-2.25104,18.06941v45.10996h-26.36711v-98.72483h.02357Z"/><path class="cls-1" d="M789.32713,374.05263c3.38127-5.52867,5.07659-13.62388,5.07659-24.28562s-1.69532-18.75696-5.07659-24.28563-8.10932-8.293-14.15605-8.293c-4.36077,0-8.18469,1.33272-11.47645,3.99816-3.28705,2.67015-5.82535,6.45168-7.61489,11.35401s-2.68897,10.64763-2.68897,17.22174.89006,12.33354,2.68897,17.27826c1.78954,4.9353,4.32778,8.71683,7.61489,11.35401,3.28705,2.62777,7.11096,3.94636,11.47645,3.94636,6.0561,0,10.77478-2.76433,14.15605-8.293v-.00942.01413ZM727.02838,300.41401h17.09462l7.32763,12.83272h3.90399c2.40642-4.53972,5.85829-8.1423,10.35093-10.81245s10.15318-3.99816,16.99097-3.99816c8.65561,0,15.89845,2.1898,21.7238,6.5647s10.17198,10.431,13.0399,18.1636,4.29484,16.67077,4.29484,26.80508-1.46929,19.23731-4.389,26.89926c-2.92914,7.66667-7.32763,13.62387-13.18591,17.8622-5.85829,4.24304-13.0211,6.36691-21.48362,6.36691-11.78257,0-20.2498-4.28071-25.38761-12.83272h-3.90399v43.73485h-26.36711v-131.58599h-.00943Z"/><path class="cls-1" d="M839.08037,391.38269c-5.63225-6.80959-8.44372-16.23751-8.44372-28.27908v-62.6896h26.36711v58.23936c0,14.15131,5.04831,21.22932,15.13084,21.22932,4.16297,0,7.76556-1.13493,10.78892-3.40479,3.02336-2.26515,5.32148-5.3921,6.88021-9.38084,1.56345-3.97932,2.3452-8.4437,2.3452-13.379v-53.30406h26.36711v98.7154h-15.23443l-8.50023-14.8059h-3.90399c-1.75654,5.26966-4.8835,9.46089-9.37614,12.58784s-10.48281,4.69041-17.96582,4.69041c-10.68062,0-18.82759-3.4048-24.45984-10.21908h.00943-.00466Z"/><path class="cls-1" d="M929.45098,300.41401h16.01618l8.39658,14.8059h3.90399l8.4908-14.8059h23.13657v22.01577h-8.50023c-6.44694,0-11.49059,1.1208-15.14027,3.3577s-6.21619,5.62285-7.70905,10.17199c-1.50222,4.53972-2.25104,10.56757-2.25104,18.06941v45.10996h-26.36711v-98.72483h.02357Z"/><path class="cls-1" d="M1051.40655,321.7846c-3.25883-4.04525-7.87386-6.07494-13.86402-6.07494s-10.8878,1.95905-14.49981,5.87715c-3.60731,3.9181-5.8442,9.79054-6.68712,17.61732h40.7162c-.52272-7.56777-2.40642-13.379-5.66525-17.41954ZM1012.15492,395.32905c-7.09217-4.17711-12.45124-10.17199-16.06326-17.96581-3.60731-7.79382-5.42036-17.05692-5.42036-27.78931s1.80362-19.95783,5.42036-27.68571c3.60731-7.7326,8.9523-13.65213,16.01618-17.76802,7.06388-4.11589,15.60648-6.16912,25.6325-6.16912,14.5139,0,25.64658,4.4785,33.39806,13.42609,7.75142,8.94758,11.62247,21.97809,11.62247,39.09153v5.52867h-66.4005c.58394,8.42486,2.75019,15.00369,6.48937,19.7412,3.74383,4.73751,8.80157,7.10626,15.18735,7.10626,4.81756,0,8.82043-1.44574,12.01331-4.34193,3.18817-2.89619,5.30263-6.54586,6.34335-10.96315h25.09092c-1.04073,6.31982-3.28705,12.04157-6.73426,17.17465-3.45186,5.13309-8.25062,9.23014-14.4056,12.28644-6.15497,3.0563-13.5909,4.58681-22.31245,4.58681-10.15318,0-18.78051-2.09091-25.87262-6.26802l-.00943.00941h.0046Z"/><polygon class="cls-1" points="1073.40823 288.66441 1069.74913 288.66441 1069.74913 287.56716 1078.38117 287.56716 1078.38117 288.66441 1074.72207 288.66441 1074.72207 298.59623 1073.42703 298.59623 1073.42703 288.66441 1073.40823 288.66441"/><polygon class="cls-1" points="1079.68093 287.56716 1082.04027 287.56716 1085.31318 297.51782 1085.58636 297.51782 1088.89692 287.56716 1091.2704 287.56716 1091.2704 298.59623 1089.97536 298.59623 1089.97536 288.70209 1089.69753 288.70209 1086.44342 298.59623 1084.38076 298.59623 1081.14079 288.70209 1080.86767 288.70209 1080.86767 298.59623 1079.68093 298.59623 1079.68093 287.56716"/></g></svg>