<svg xmlns="http://www.w3.org/2000/svg" viewBox="0 0 1250 703"><defs><style>.cls-1{fill:#021757;}.cls-2{fill:#123d39;}.cls-3{fill:#011656;}.cls-4{fill:#113d38;}.cls-5{fill:#17413d;}.cls-6{fill:#143f3a;}</style></defs><g id="Layer_2" data-name="Layer 2"><path class="cls-1" d="M561.18,411.2V292.94h5.19c20.56,0,41.11-.13,61.67,0,15.2.14,29.41,4.26,40.61,14.7,10.56,9.84,17.29,22.21,17.45,37.25.09,8.38.77,16.75-2,25-3.39,10.32-8.35,19.41-16.37,26.91A51.19,51.19,0,0,1,646.09,409a49.68,49.68,0,0,1-12.57,2.12c-22.28.21-44.56.1-66.85.1Zm19.72-97.43v77.66c17.14,0,33.9.5,50.62-.2a34.29,34.29,0,0,0,24.17-11.06c5.08-5.45,7.81-11.77,9.69-18.81,2.28-8.52,1.21-16.87-1.87-24.65-5.7-14.41-17-22.26-32.41-22.8C614.55,313.32,598,313.77,580.9,313.77Z"/><path class="cls-2" d="M417.59,411.2V293.34a32.53,32.53,0,0,1,3.52-.38c21.61,0,43.22-.48,64.81.12,19.34.54,36,7.6,47.44,24.07,9,13,11.08,27.68,9.35,43.12A56.9,56.9,0,0,1,534,385.14c-7.11,11-16.58,18.92-29.4,23.23-7.28,2.45-14.39,2.83-21.76,2.83ZM438,313.76v77.69c17,0,33.55.24,50.12-.17a33.52,33.52,0,0,0,13.26-3.51c13.13-6.31,20.37-16.8,20.89-31.65.26-7.4.34-14.75-3-21.58-6.39-13.12-17.11-20.21-31.53-20.66C471.35,313.36,454.93,313.76,438,313.76Z"/><path class="cls-3" d="M1070.82,411.09H1047l-17.49-29H973.31l9.51-16.45h36.91l-26.81-45.28L939.42,411H916.33c2.64-4.79,5-9.5,7.76-14,6.29-10.32,12.86-20.47,19.13-30.81,7.7-12.71,15.21-25.54,22.79-38.32q8.21-13.86,16.39-27.72c4.41-7.46,9.87-10.24,15.71-7.07,2.78,1.51,5.06,4.46,6.8,7.23,4.66,7.4,8.85,15.09,13.32,22.61,8.61,14.47,17.2,29,25.94,43.35s17.76,28.88,26.63,43.33C1071,409.83,1070.82,410.24,1070.82,411.09Z"/><path class="cls-3" d="M811.4,411,794.23,382.1H738l9.46-16.48h37l-26.83-45.25C739.52,350.94,721.76,381,704,411H680.79c3.73-6.36,7.23-12.4,10.79-18.42,6.18-10.43,12.32-20.89,18.59-31.27,6.79-11.25,13.75-22.4,20.58-33.63,5.92-9.75,11.69-19.59,17.66-29.31,3.18-5.19,7.52-7.35,12.13-6.37s6.9,4.81,9.07,8.32c7.33,11.88,14.38,23.94,21.51,35.94C799.6,350.53,808,364.86,816.55,379c6,9.87,12.3,19.54,18.41,29.33a8.5,8.5,0,0,1,.54,2.64Z"/><path class="cls-2" d="M314,391.49h85v19.45H294.16V293.22H398.54v20.32H314Z"/><path class="cls-1" d="M887.31,411.07h-20.4V313.92H821.46V293.2H931.57v20.34H887.31Z"/><path class="cls-4" d="M198.77,411.05H179.12V293.22h99.19v20.33H198.77Z"/><path class="cls-5" d="M394.36,360.2H329.59V343.4h64.77Z"/><path class="cls-6" d="M214.63,362.21V345h59.18v17.21Z"/></g></svg>