<?xml version="1.0" encoding="UTF-8"?>
<svg id="EXAMPLES_TURN_OFF_" data-name="EXAMPLES (TURN OFF)" xmlns="http://www.w3.org/2000/svg" viewBox="0 0 1250 703">
  <defs>
    <style>
      .cls-1 {
        fill: #fff;
      }
    </style>
  </defs>
  <path d="M357.16,399.03c-1.02,1.01-2.64,1.81-4.08,1.96-13.28,1.42-29.05-1.2-42.51,0-5.22.47-9.91,4.08-10.76,9.39l-.15,43.12c-.39,4.14-2.88,6.81-7.04,7.17-14.73,1.27-31.27-.98-46.19-.01-3.1-.4-5.46-2.49-6.25-5.47l-.18-47.45c.33-3.7,2.88-6.08,6.46-6.73,13.86-1.16,29.99,1.44,43.58-.03,5.39-.58,9.41-5.94,9.7-11.17-.56-11.76.76-24.21.02-35.89-.38-6.11-2.93-10.5-9.08-12.16-13.95-1.19-29.79,1.28-43.52-.09-3.71-.37-6.93-2.87-7.17-6.75l.18-47.45c.76-2.88,2.96-4.89,5.92-5.44,13.85-1.06,29.59,1.32,43.21-.04,6.01-.6,9.91-5.35,10.44-11.17,1.25-13.61-.95-29,.04-42.8.71-3.54,3.65-5.42,7.1-5.72,14.5-1.25,30.77.96,45.46.01,3.18.47,5.82,2.25,6.62,5.47v49.09c-1.07,2.74-3.23,4.78-6.25,5.12-13.19,1.48-29.09-1.17-42.53-.01-3.96.34-7.29,2.34-9.16,5.86-1.65,3.1-1.35,5.99-1.44,9.42-.31,11.65.26,23.34.2,35.03,1.35,5.84,5.64,8.94,11.5,9.38,13.71,1.03,28.66-.82,42.5,0,3.07.92,5.06,3.13,5.35,6.37,1.32,14.8-1.03,31.52,0,46.52-.03,1.57-.89,3.35-1.98,4.43h0Z"/>
  <path d="M657.44,365.48l-2.78,4.36c-17.44,20.96-55.98,14.76-66.55-10.34-11.03-26.19,2.64-58.03,31.87-62.74,18.64-3.01,41.39,2.79,46.99,22.96l-11.49,2.89c-1.35-1.77-2.14-3.87-3.55-5.63-8.61-10.71-29.74-11.35-40.92-4.65-18.42,11.05-18.13,48.09,3.82,55.98,17.05,6.13,43.39-.17,43.34-21.87h-32.98v-12.45h36.47c1.86,0,5.48,1.61,6.86,2.93.82.79,2.49,3.53,2.49,4.58v39.72h-13.56v-15.74Z"/>
  <path d="M826.39,297.38l38.68-.02c.75-.03,1.45.34,2.19.38,8.18.44,16.36.79,23.38,5.56,10.28,6.99,10.31,25-.59,31.49l-7.58,3.59h8.25c.86,0,4.06,1.81,4.78,2.55,1.05,1.09,2.74,4.62,2.74,6.05v34.23h-13.56v-32.95h-45.08v32.95h-13.19v-83.84h0ZM839.58,335.82c9.35-.4,19.12.53,28.42.02,9.63-.53,17.07-2.69,17.19-13.74.14-12.67-8.94-13.65-19.39-14.11-8.63-.38-17.56.32-26.22.02v27.82h0Z"/>
  <polygon points="1008.9 297.38 1008.9 309.46 953.01 309.46 952.46 310.01 952.46 331.98 953.01 332.53 1001.94 332.53 1001.94 344.61 952.46 344.61 952.46 369.14 1010 369.14 1010 381.22 939.27 381.22 939.27 297.38 1008.9 297.38"/>
  <path d="M722.68,297.38v51.44c0,8.92,8.31,17.35,16.49,19.77,16.55,4.89,34.21-3.53,34.81-21.97v-49.24h13.2l.02,52.18c-2.85,42.5-70.41,43.56-77.24,4.65-3.01-17.13.54-38-.85-55.57l.57-1.26h13.01,0Z"/>
  <polygon points="493.26 297.38 493.26 309.46 437.18 309.46 437.18 332.53 486.29 332.53 486.29 344.61 437.18 344.61 437.18 381.22 423.62 381.22 423.62 297.38 493.26 297.38"/>
  <rect x="532.47" y="297.38" width="13.56" height="83.84"/>
  <path class="cls-1" d="M839.58,335.82v-27.82c8.66.3,17.59-.4,26.22-.02,10.45.46,19.53,1.44,19.39,14.11-.12,11.06-7.56,13.22-17.19,13.74-9.3.51-19.07-.41-28.42-.02Z"/>
</svg>