<?xml version="1.0" encoding="UTF-8"?><svg id="LOGOS" xmlns="http://www.w3.org/2000/svg" viewBox="0 0 1250 703"><defs><style>.cls-1{fill:#000;}.cls-1,.cls-2{stroke-width:0px;}.cls-2{fill:#009dea;}</style></defs><g id="Layer_4"><path class="cls-2" d="M253.19458,396.21763l-63.93479-29.85926c-7.93962-3.73236-11.42191-13.35043-7.86998-21.53306,1.60185-3.58878,4.38768-6.45967,7.80033-8.03869l63.93476-29.85922,7.87013,17.87238-57.17927,26.70093,57.24895,26.77265-7.87013,17.94427Z"/><path class="cls-2" d="M285.01996,351.5c0,18.73361-4.59666,37.18041-13.3719,53.5453l17.48081,8.03905c9.82006-18.94897,14.97414-40.12308,14.97414-61.58435s-5.15408-42.63533-14.97414-61.58435l-17.48081,8.03897c8.77524,16.36507,13.3719,34.81177,13.3719,53.54537Z"/><path class="cls-1" d="M402.9304,319.4154h-33.98716c-3.96991,0-6.75563.78954-8.28784,2.36864-1.6019,1.57909-1.67158,4.23482-1.67158,8.11076v14.21191h34.12653l.06967,17.0828h-34.19621v40.55382h-18.80433v-79.24153c0-7.32122,1.53221-12.48913,4.66633-15.50374,3.13411-3.01461,8.49652-4.5937,16.01826-4.5937h42.06632v17.01104Z"/><path class="cls-1" d="M486.29661,347.40763v7.46473c0,16.50883-2.99475,28.49525-9.05395,35.95998-6.0592,7.46508-15.73991,11.19744-29.04212,11.19744s-22.9136-3.73236-28.90313-11.19744c-5.91983-7.46473-8.91458-19.59473-8.91458-36.31893v-7.17757c0-15.2884,2.99475-26.62911,9.05395-34.0939,6.0592-7.46476,15.60054-11.19712,28.69409-11.19712s22.70456,3.80415,28.9031,11.3407c6.1982,7.53652,9.26265,18.8055,9.26265,34.02211ZM468.60676,354.44162v-5.16781c0-8.90017-1.04481-15.93451-3.2038-21.24589-2.50737-6.101-7.87012-9.1874-16.15797-9.1874-8.35718,0-13.7896,3.0864-16.29697,9.1874-2.08931,5.02423-3.06445,12.05857-3.06445,21.24589v5.16781c0,11.91499,1.6019,20.02583,4.87536,24.18892,1.46255,1.93798,3.41249,3.517,5.57147,4.5217,2.78606,1.29222,5.85051,1.93797,8.91458,1.86618,3.06445.07179,6.0592-.50218,8.84529-1.7944,2.15895-1.0047,4.10889-2.51193,5.64111-4.44991,1.46255-2.08155,2.50737-4.45026,3.06445-6.96255,1.18416-4.52169,1.81091-10.33561,1.81091-17.36995Z"/><path class="cls-1" d="M575.86065,401.74367h-22.14573l-18.66534-36.46251h-13.37258v36.46251h-18.80436v-78.0212c0-7.46476,1.6716-12.84801,5.01474-16.29328,3.34279-3.37348,8.91461-5.09616,16.78438-5.09616h15.94858c9.54029,0,17.20139,3.01464,22.84253,8.9721,5.64463,5.95746,8.49862,13.63755,8.49862,22.82492,0,6.67539-1.67157,12.4893-5.08511,17.36995-3.41351,4.881-7.5907,8.25441-12.53504,10.1206l21.51932,40.12308ZM549.0486,344.03527c2.57597-2.79945,3.82878-6.31644,3.82878-10.55134,0-4.23454-1.25281-7.60831-3.69155-10.1921-2.4352-2.58397-5.77837-3.87594-9.88868-3.87594h-9.33232c-5.57144,0-8.35753,2.94285-8.35753,8.75666v20.09761h17.61948c3.69153.07179,7.24583-1.43544,9.82182-4.23489Z"/><path class="cls-1" d="M650.5924,401.74367h-33.91717c-10.86699,0-18.45769-1.93797-22.84602-5.81391-4.38833-3.87594-6.54554-10.69456-6.54554-20.4562v-57.27788c0-8.75673,6.89393-15.86265,15.39257-15.86265h47.98301v17.08287h-44.50262v23.54288h31.06316l-.0704,17.0828h-31.06313v14.49871c0,3.87594.83754,6.53181,2.57948,7.96725,1.73845,1.43545,4.8036,2.22514,9.33267,2.22514h32.66084v17.011h-.06685Z"/><path class="cls-1" d="M732.84092,372.17158c0,9.33091-3.33965,16.65206-9.95907,21.96344-6.61594,5.31174-15.11101,7.96725-25.41847,7.96725-8.15028,0-16.01898-2.29691-23.68007-6.8904-3.89917-2.51229-7.10506-6.02929-9.2623-10.19239-2.43872-4.59349-3.69153-9.76164-3.62113-15.00124l16.92334-.86147c0,4.95279,2.08684,8.90052,6.19715,11.62783,4.03992,2.72766,8.84706,4.1631,13.721,4.1631,11.21189,0,16.78615-4.09132,16.78615-12.2018,0-6.67539-3.83232-10.55134-11.42302-11.77141l-15.60019-1.65082c-7.80189-1.22043-13.99904-4.09131-18.52809-8.61336-4.59595-4.52205-6.82358-11.05351-6.82358-19.52329s3.2728-15.5037,9.81833-21.03049c6.54903-5.52679,14.83656-8.3261,24.79558-8.3261s18.03896,2.58397,24.09532,7.82368c6.1303,5.23967,9.12505,11.91492,9.12505,20.16926l-16.64535.86113c-1.5308-8.03883-6.75668-12.05832-15.74098-12.05832-5.42998,0-9.74788,1.22021-12.81303,3.58882-3.06515,2.36864-4.66635,5.23967-4.66635,8.54129,0,3.30198,1.11556,5.8857,3.34314,7.75188,2.36837,1.93797,5.29278,3.1584,8.35788,3.51735l15.3222,1.65081c17.13099,2.36836,25.69652,11.84284,25.69652,28.49525Z"/><path class="cls-1" d="M797.19481,362.9839h17.48292c0,12.34572-3.06515,21.82022-9.19545,28.42381-6.12675,6.60325-14.83302,9.90487-26.0449,9.90487-24.65484,0-36.98229-14.5705-36.98229-43.64007v-8.18262c0-22.89671,6.33794-37.32374,18.94338-43.06586,4.94434-2.36864,11.00424-3.51706,18.03891-3.51706,10.30746,0,18.66185,2.79927,25.14048,8.46964,6.47869,5.67037,9.68108,13.85292,9.68108,24.54749h-17.62017c-.97477-5.31139-2.7871-9.4027-5.29273-12.13011-2.50911-2.72752-6.47869-4.09128-11.90866-4.09128-6.33789,0-11.00424,2.00973-14.06939,5.95756-2.16073,2.7991-3.41354,7.60831-3.76192,14.42692-.20759,2.15334-.27799,5.09637-.27799,8.82873v8.46943c0,10.40776,1.46395,17.51353,4.31796,21.31769,2.99475,3.80415,7.5907,5.74212,13.8582,5.74212s10.589-1.7226,13.02422-5.23959c2.43877-3.51699,3.96957-8.90017,4.66635-16.22167Z"/><path class="cls-1" d="M900.55092,347.40763v7.46473c0,16.50883-2.99475,28.49525-9.05465,35.95998-6.0599,7.46508-15.74098,11.19744-29.0432,11.19744s-22.91285-3.73236-28.9024-11.19744c-5.91911-7.46473-8.91386-19.59473-8.91386-36.31893v-7.17757c0-15.2884,2.99475-26.62911,9.05111-34.0939,6.0599-7.46476,15.60373-11.19712,28.69481-11.19712,13.09457,0,22.70525,3.80415,28.9024,11.3407,6.20064,7.46476,9.26579,18.8055,9.26579,34.02211ZM882.30082,354.44162v-5.16781c0-8.90017-1.04162-15.93451-3.20235-21.24589-2.50562-6.101-7.86875-9.1874-16.15623-9.1874-8.35788,0-13.7914,3.0864-16.29697,9.1874-2.09038,5.02423-3.06515,12.05857-3.06515,21.24589v5.16781c0,11.91499,1.6012,20.02583,4.87394,24.18892,1.46395,1.93798,3.41354,3.517,5.57077,4.5217,5.64111,2.4405,12.0494,2.51229,17.69052.07179,2.16073-1.0047,4.11031-2.51193,5.64111-4.44991,1.46395-2.08155,2.50917-4.45026,3.06515-6.96255,1.25281-4.52169,1.87919-10.33561,1.87919-17.36995Z"/><path class="cls-1" d="M987.88456,302.40436v64.81443c0,10.69456-3.48039,19.16435-10.51511,25.33686-7.03467,6.17287-15.67053,9.25947-25.978,9.25947s-18.94338-3.08661-25.97805-9.25947c-7.03467-6.17251-10.51511-14.6423-10.51511-25.33686v-64.81443h18.80259v64.09653c0,6.10108,1.6012,10.62277,4.80709,13.63759,3.2024,3.01447,7.52036,4.52205,12.81309,4.52205s9.61069-1.50758,12.88343-4.52205c3.27629-3.01482,4.87749-7.53652,4.87749-13.63759v-64.09653h18.80259Z"/><path class="cls-1" d="M1069.43984,320.0614h-25.69652v81.75372h-19.43251v-81.75372h-24.5141v-17.65704h69.64313v17.65704Z"/><path class="cls-1" d="M1067.76825,399.66072c-2.99475,3.01447-7.80184,3.01447-10.72619-.07179-1.46046-1.50758-2.22763-3.51735-2.22763-5.59855-.07034-2.15334.83403-4.30668,2.36837-5.74213,1.39355-1.36401,3.27274-2.15334,5.22233-2.15334,4.18071,0,7.59076,3.51699,7.59076,7.89546.07034,2.15299-.76368,4.16275-2.22763,5.67033ZM1058.01682,389.54013c-1.18241,1.22007-1.80885,2.79909-1.80885,4.52205,0,1.7226.62643,3.4452,1.87924,4.59349,2.43872,2.51229,6.33789,2.51229,8.847.07179l.06685-.07179c1.18596-1.22008,1.88273-2.87089,1.81234-4.59349,0-1.72296-.62638-3.37377-1.81234-4.52205-2.36832-2.51229-6.26749-2.65587-8.70626-.21537-.13725.07179-.20759.14358-.27799.21537ZM1059.13238,398.44029v-8.6848h4.11031c.55604,0,1.11202.14358,1.6716.43074.76363.43038,1.18241,1.22007,1.11202,2.0812.0704.57432-.13725,1.14863-.55604,1.57937-.41879.3586-.90442.50218-1.46395.57397.41879.07179.83757.21537,1.18596.50253.55604.50253.83403,1.22008.76363,1.93797v1.07685c0,.07144,0,.14323.0704.28681l.0704.21537h-2.09038c-.06685-.43074-.13725-.78933-.13725-1.22007,0-.35895-.07034-.7179-.14074-1.07685-.0704-.28681-.34839-.50218-.62638-.64576-.20765-.07179-.48564-.14358-.76717-.14358h-.97482v3.08625h-2.22758ZM1063.1723,391.4063c-.41879-.14357-.83752-.21537-1.25281-.14357h-.55953v2.51229h.83757c.41879,0,.83403-.07179,1.18241-.28716.27799-.21537.48913-.64611.41879-1.00506.07034-.50218-.20765-.93292-.62643-1.0765Z"/></g></svg>