<?xml version="1.0" encoding="utf-8"?>
<!-- Generator: Adobe Illustrator 23.0.3, SVG Export Plug-In . SVG Version: 6.00 Build 0)  -->
<svg version="1.1" id="Layer_1" xmlns="http://www.w3.org/2000/svg" xmlns:xlink="http://www.w3.org/1999/xlink" x="0px" y="0px"
	 viewBox="0 0 1250 703" style="enable-background:new 0 0 1250 703;" xml:space="preserve">
<style type="text/css">
	.st0{fill:#E04245;}
</style>
<title>nvidia-partner-futijsu-logo</title>
<g id="LOGO">
	<g>
		<path class="st0" d="M560.9,221.4c-5.4-4.8-14.1-7.6-22.7-7.7c-20.5-0.2-37.2,16.2-37.4,36.7c0,0.1,0,0.3,0,0.4
			c0,20.6,16.8,36.9,37.4,36.9c11.6,0,21.6-4.6,28.4-12.9v-20.4c-3.6,6.4-11,14.5-17.7,17.2c-3.4,1.5-7.1,2.2-10.8,2.3
			c-12.8,0.2-23.3-10-23.4-22.7c0-0.1,0-0.3,0-0.4c0-12.9,10.5-23.3,23.4-23.3c0,0,0,0,0.1,0c6.2,0,12.1,2.5,16.4,6.8
			c4.4,4.3,11.3,13.2,14.6,16.7c17.3,18.6,46.4,19.7,65,2.4c9.3-8.7,14.6-20.8,14.7-33.5c0-25.4-20.7-46.5-46-46.5
			c-14.7,0-27.7,7.7-36.2,18.5v27.6c6.4-17.5,18-31.5,36.2-31.5c17.5,0,31.7,14.2,31.7,31.7c0,17.5-14.2,31.7-31.7,31.7
			c-7.5,0-14.7-2.7-20.5-7.5C575.6,238.6,568,227.3,560.9,221.4"/>
		<path class="st0" d="M259,298.1h101.7v28.3c0,0-5.2-11.2-16.2-11.2h-47.1v48.9h51V390c0,0-1.6-8.2-14-8.3h-37.1v66.8
			c0,9.9,10.7,15.7,10.7,15.7h-48.4c0,0,10.2-5.1,10.2-15.7v-133C269.9,304.3,259,298.1,259,298.1"/>
		<path class="st0" d="M514.7,298.1h51.7c0,0-11.6,5.5-11.6,14.5v155.8c0,52.7-52.8,61.3-55.5,61.2c4.5-2.9,26.4-21.6,26.5-61.2
			V312.6C525.8,304.1,514.7,298.1,514.7,298.1"/>
		<path class="st0" d="M573.8,298.1h51.9c0,0-11.5,5.5-11.5,14.7v135.7c0,9.7,11.5,15.8,11.5,15.8h-51.9c0,0,11.5-6,11.5-15.8V312.8
			C585.3,303.6,573.8,298.1,573.8,298.1"/>
		<path class="st0" d="M636,298.1h114.2l-9.7,30.2c0,0-2.9-12.7-13.9-12.7h-23.7v132.9c0,8.4,11.2,15.7,11.2,15.7h-50.8
			c0,0,11-6.6,11-15.7V315.6h-28.6c-8.1,0-19.7,15.2-19.7,15.2L636,298.1"/>
		<path class="st0" d="M941,298.1h50c0,0-10.7,5.7-10.7,14.7v100.6c-0.1,40.9-33.9,53.4-57.4,53.4c-23.4,0-59.9-12.7-59.9-53.4
			V312.8c0-9-11-14.7-11-14.7h51.5c0,0-11.5,5.5-11.5,14.7v100.6c0,21.4,14.2,35.5,30.9,35.5c16.6,0,29.4-14.6,29.4-35.5V312.8
			C952.3,303.8,941,298.1,941,298.1"/>
		<path class="st0" d="M454.8,298.1h50.9c0,0-10.8,5.9-10.8,14.8l0,100.3c0,41-35.5,54-59.2,54c-23.4,0-59.9-13.1-59.9-54l0-100.3
			c0-9-10.4-14.8-10.4-14.8h51.4c0,0-11.9,5.9-11.9,14.8l-0.1,100.3c0,21.3,14.2,35.9,30.8,36c16.6,0.1,30-14.9,30-36l0-100.3
			C465.7,303.9,454.8,298.1,454.8,298.1"/>
		<path class="st0" d="M836.7,324.7c0,0-7.2-12.6-28.1-12.7c-20.9-0.1-32.2,10.9-32.3,25.1c0,16.1,12,22.2,30.8,31.2
			c17.8,8.6,44.6,20.4,44.5,50.1c-0.1,26.7-23.7,48.9-66.1,48.9c-13,0-31-4.3-31-4.3l-9.7-31.9c9,8.7,24.9,18.1,41.3,18.1
			c16.9,0,37.2-10.5,37.2-27.3c0-32.5-75.6-27-75.6-81.4c0-18.7,13-45.8,58.1-45.8c14.7,0,31,4.3,31,4.3L836.7,324.7"/>
	</g>
</g>
</svg>
