<?xml version="1.0" encoding="UTF-8"?>
<svg id="LOGO" xmlns="http://www.w3.org/2000/svg" version="1.1" viewBox="0 0 1250 703">
  <defs>
    <style>
      .cls-1 {
        fill: #000;
      }

      .cls-1, .cls-2 {
        stroke-width: 0px;
      }

      .cls-2 {
        fill: #fff;
      }
    </style>
  </defs>
  <path class="cls-1" d="M663.8,392.4c-1.2-.3-2.4-.6-3.6-.9-11.9-2.9-20.2-13.3-20.2-25.5,0-11,0-22.1,0-33.1,0-14.3,11.7-26.1,26.1-26.2,30.5,0,60.9,0,91.4,0,19.7,0,32.4,20.9,23.3,38.3-1.6,3-1.7,5.6,0,8.7,8.4,16.4-1.4,35.4-19.7,38.3-.4,0-.7.3-1,.4h-96.1ZM711.8,372.5c15,0,30,0,44.9,0,4.1,0,7-2.8,7-6.5,0-3.6-2.8-6.3-6.7-6.6-.6,0-1.1,0-1.7,0-29.1,0-58.2,0-87.2,0-1.2,0-2.4,0-3.5.4-2.5.7-4.1,2.4-4.6,5-.5,2.5.3,4.9,2.4,6.2,1.5.9,3.4,1.4,5.1,1.5,14.7.1,29.5,0,44.2,0ZM711.9,339.6c14.4,0,28.8,0,43.3,0,1.5,0,3,0,4.4-.6,2.9-1,4.5-4.1,4-7-.5-3.2-3.3-5.4-6.8-5.4-15.9,0-31.9,0-47.8,0-14.2,0-28.4,0-42.6,0-3.7,0-6.4,2.6-6.6,6.1-.2,3.5,2.2,6.3,5.9,6.8.9.1,1.9.1,2.8.1,14.4,0,28.8,0,43.3,0Z"/>
  <path class="cls-1" d="M159.3,392.4c-3.3-.8-6.6-1.3-9.8-2.4-18.8-6.1-31.3-24.7-29.4-43.7,2-20.9,17-36.6,37.4-39.2,1.6-.2,3.2-.4,4.7-.4,30.3,0,60.6,0,90.9,0,7,0,11.7,5.6,10.3,12.2-.9,4.5-5,7.7-10.1,7.7-8.9,0-17.8,0-26.7,0-21.1,0-42.2,0-63.3,0-13.1,0-23.5,10.1-23.5,22.9,0,12.7,10.4,23,23.5,23,24.2,0,48.4,0,72.6,0,2.7,0,5-.6,6.6-2.9,2.5-3.6.7-8.7-3.6-9.8-1.1-.3-2.3-.4-3.5-.4-14.3,0-28.6-.2-42.8,0-5.3,0-10.6-3.6-10.8-9.9-.2-5.8,4.5-9.9,10.9-9.9,14.9,0,29.8,0,44.7,0,13.5,0,25.2,10.6,26.1,23.7,1,14.5-8.4,26.6-22.3,28.7-.5,0-1,.3-1.6.5h-80.4Z"/>
  <path class="cls-1" d="M852.7,392.4c-2.3-.5-4.6-.9-6.9-1.4-19.6-4.8-33.4-23-32.6-42.9.8-20.4,15.7-37.4,35.8-40.8,2.4-.4,4.9-.6,7.3-.6,19.1,0,38.2,0,57.3,0,22.7,0,42,17.7,43.2,39.6,1.3,23.6-14.9,43-38.2,45.7-.4,0-.9.3-1.3.4h-64.7ZM885.3,326.6c-9.6,0-19.2,0-28.8,0-12.9,0-23.3,10.1-23.3,22.8,0,12.8,10.3,23,23.3,23.1,19.1,0,38.2,0,57.3,0,12.9,0,23.2-10.3,23.2-23,0-12.7-10.3-22.9-23.2-22.9-9.5,0-19,0-28.5,0Z"/>
  <path class="cls-1" d="M425.3,392.4c-4-1.2-6.4-4.2-8.7-7.5-10.6-16-21.4-31.9-32.2-47.7-9.8-14.3-29.2-14.1-38.9.2-10.8,16-21.6,31.9-32.3,47.9-2.2,3.3-4.6,5.9-8.4,7.1h-3.3c-1.3-.6-2.6-1-3.8-1.8-4.8-3.1-5.9-9.2-2.5-14.3,6.7-10,13.5-20,20.3-30,4.4-6.5,8.9-13,13.2-19.6,15.2-23.1,46.6-26.8,66.5-7.7,2.1,2.1,4.1,4.4,5.7,6.9,11,16.2,21.7,32.6,33,48.6,4.6,6.4,4.2,15-5.3,17.9h-3.3Z"/>
  <path class="cls-1" d="M1056.9,392.4c-7-2.9-8.5-5.2-8.5-12.9,0-15.1,0-30.1,0-45.2,0-5.4-2.4-7.7-7.8-7.7-14.6,0-29.2,0-43.8,0-4.5,0-8.1-2.5-9.6-6.5-1.5-4-.5-8.4,2.9-10.9,1.8-1.3,4.3-2.4,6.5-2.4,41.2-.1,82.5-.1,123.7,0,5.8,0,10,4.2,10,9.8,0,5.8-4.1,10-10,10.1-14.7,0-29.5,0-44.2,0-5,0-7.6,2.5-7.6,7.6,0,15.1-.2,30.1,0,45.2.1,6.5-1.9,11-8.3,13.1h-3.3Z"/>
  <path class="cls-1" d="M506.3,392.4c-2.2-.4-4.5-.8-6.7-1.3-19.2-4.5-32.9-21.7-32.9-41.2,0-10.9,0-21.8,0-32.7,0-6.1,4.1-10.5,9.8-10.5,5.8,0,10,4.3,10,10.6,0,11.2-.2,22.4.2,33.6.5,12.3,10.7,21.6,23.3,21.6,29.9,0,59.8,0,89.7,0,5.2,0,9,2.7,10.3,7.1,1.5,5.2-1.4,10.5-6.6,12.3-.5.2-1,.4-1.5.6h-95.7Z"/>
  <path class="cls-2" d="M711.8,372.5c-14.7,0-29.5,0-44.2,0-1.7,0-3.6-.6-5.1-1.5-2.2-1.3-2.9-3.7-2.4-6.2.5-2.5,2.1-4.3,4.6-5,1.1-.3,2.3-.4,3.5-.4,29.1,0,58.2,0,87.2,0,.6,0,1.1,0,1.7,0,3.9.2,6.7,3,6.7,6.6,0,3.7-3,6.5-7,6.5-15,0-30,0-44.9,0Z"/>
  <path class="cls-2" d="M711.9,339.6c-14.4,0-28.8,0-43.3,0-.9,0-1.9,0-2.8-.1-3.7-.5-6.1-3.3-5.9-6.8.2-3.5,2.9-6.1,6.6-6.1,14.2,0,28.4,0,42.6,0,15.9,0,31.9,0,47.8,0,3.5,0,6.3,2.3,6.8,5.4.5,2.9-1.2,6-4,7-1.4.5-2.9.6-4.4.6-14.4,0-28.8,0-43.3,0Z"/>
  <path class="cls-2" d="M885.3,326.6c9.5,0,19,0,28.5,0,12.9,0,23.2,10.2,23.2,22.9,0,12.7-10.3,22.9-23.2,23-19.1,0-38.2,0-57.3,0-13,0-23.4-10.3-23.3-23.1,0-12.7,10.4-22.8,23.3-22.8,9.6,0,19.2,0,28.8,0Z"/>
</svg>