<?xml version="1.0" encoding="UTF-8"?>
<svg id="PASTE_LOGO_HERE" data-name="PASTE LOGO HERE" xmlns="http://www.w3.org/2000/svg" viewBox="0 0 1250 703">
  <defs>
    <style>
      .cls-1 {
        fill: #22003b;
      }

      .cls-2 {
        fill: #6236cc;
      }
    </style>
  </defs>
  <path class="cls-2" d="M429.21,334.82h-48.51c-12.23,0-24.07,4.15-33.64,11.78l-72.42,57.78c-11.43,9.12-25.61,14.07-40.23,14.07h-59.41v-50.28h48.51c12.23,0,24.07-4.15,33.64-11.78l72.42-57.78c11.43-9.12,25.6-14.07,40.23-14.07h59.41v50.28Z"/>
  <path class="cls-2" d="M336.4,272.21l-89.15,71.22c-6.54,5.22-14.66,8.08-23.03,8.08h-49.23v-50.28h34.62c8.36,0,16.5-2.84,23.05-8.08l69.31-55.39,34.44,34.44h-.02Z"/>
  <path class="cls-2" d="M267.85,430.79l89.15-71.22c6.54-5.22,14.66-8.08,23.03-8.08h49.23v50.28h-34.62c-8.36,0-16.5,2.84-23.05,8.08l-69.31,55.39-34.44-34.44h.02Z"/>
  <path class="cls-1" d="M770.31,326.47c-7.69-9.61-18.89-16-34.89-16-32.23,0-56.42,26.35-56.42,61.36s24.17,61.36,56.42,61.36c15.99,0,27.18-6.38,34.89-15.87v14.2h30.68v-117.92h-30.68v12.87ZM741.19,403.95c-18.4,0-30.06-14.32-30.06-32.11s11.67-32.11,30.06-32.11,30.06,13.7,30.06,32.11-12.14,32.11-30.06,32.11Z"/>
  <path class="cls-1" d="M852.96,272.27h-31.4v112.66c0,30.31,14.68,46.55,43.67,46.55h22.43v-29.23h-17.26c-9.63,0-17.44-5.42-17.44-19.84v-40.91h34.7v-27.92h-34.7v-41.32Z"/>
  <path class="cls-1" d="M1027.73,368.45l45.96-54.86h-38.49l-32.84,41.52h-11.06v-82.84h-31.4v159.24h31.4v-48.5h10.59l34.5,48.5h38.61l-47.27-63.06Z"/>
  <path class="cls-1" d="M939.49,313.59h-31.39v117.92h31.39v-117.92Z"/>
  <path class="cls-1" d="M939.49,272.27h-31.39v29h31.39v-29Z"/>
  <path class="cls-1" d="M574.21,337.54v30.89h58.55c-2.82,11.97-8.71,21.39-17.69,28.29-8.98,6.89-19.76,10.35-32.39,10.35-15.6,0-28.73-5.32-39.37-15.95-10.63-10.64-15.95-23.83-15.95-39.62s5.15-28.74,15.44-39.37c10.31-10.64,22.93-15.95,37.88-15.95,23.09,0,39.7,9.72,49.82,29.15l30.39-10.72c-5.81-16.28-16.03-28.74-30.64-37.37-14.62-8.63-31.15-12.97-49.57-12.97-24.58,0-45.34,8.43-62.29,25.3-16.93,16.85-25.42,37.49-25.42,61.91s8.55,45.26,25.67,62.06c17.1,16.77,38.12,25.16,63.03,25.16s44.85-8.22,60.78-24.67c15.95-16.44,23.93-37.12,23.93-62.04,0-3.83-.25-8.63-.76-14.46h-91.44l.04.02Z"/>
</svg>