<?xml version="1.0" encoding="UTF-8"?><svg xmlns="http://www.w3.org/2000/svg" width="1250" height="703" viewBox="0 0 1250 703"><defs><style>.d{fill:#0033a1;}.e{fill:none;}</style></defs><g id="a"><g><g><path class="d" d="M1060.802,294.341h-7.019v-2.825h17.266v2.825h-7.019v19.641h-3.229v-19.641Z"/><path class="d" d="M1074.299,291.516h5.338l7.094,18.668,6.942-18.668h5.326v22.466h-3.232v-19.448h-.064l-7.446,19.448h-3.195l-7.46-19.448h-.069v19.448h-3.236v-22.466Z"/></g><g><rect class="d" x="291.229" y="291.105" width="32.153" height="120.09"/><path class="d" d="M513.245,291.211h39.42l46.507,120.685h-35.274l-8.991-25.755h-45.292l-9.515,25.755h-32.679l45.825-120.685Zm19.707,24.891h-.347l-15.565,47.212h30.261l-14.35-47.212"/><path class="d" d="M614.833,291.201h55.501c22.471,0,39.238,9.857,39.238,30.603,0,15.217-7.774,23.688-21.26,28.187v.342c16.074,3.289,24.374,11.94,24.374,26.634,0,28.876-25.41,34.928-47.026,34.928h-50.828v-120.694Zm32.156,97.868h9.51c11.755,0,24.03-1.725,24.03-14.008,0-13.137-12.622-14.352-23.683-14.352h-9.857v28.359Zm0-50.143h8.991c10.549,0,21.435-2.593,21.435-12.797,0-11.063-10.372-12.101-21.083-12.101h-9.343v24.898"/><polyline class="d" points="756.235 366.417 711.621 291.201 748.629 291.201 772.314 339.615 795.655 291.201 832.654 291.201 788.393 366.417 788.393 411.895 756.235 411.895 756.235 366.417"/><polyline class="d" points="875.655 315.066 845.915 315.066 845.915 291.201 937.552 291.201 937.552 315.066 907.808 315.066 907.808 411.895 875.655 411.895 875.655 315.066"/><polyline class="d" points="952.848 291.201 1037.913 291.201 1037.913 314.028 985.003 314.028 985.003 338.926 1034.972 338.926 1034.972 361.75 985.003 361.75 985.003 389.069 1039.813 389.069 1039.813 411.895 952.848 411.895 952.848 291.201"/><path class="d" d="M218.202,317.617c-21.393,1.773-33.067,15.834-33.067,34.002,0,17.671,16.357,32.516,32.181,32.516l3.463-.021h5.859s3.863,0,3.893-3.794v-37.927h33.021c0,21.414-.08,69.502-.08,69.502,0,0-32.601-.023-51.523-.023-35.569,0-60.949-29.416-60.949-60.253,0-33.382,27.599-61.233,62.003-59.989l49.385,.152-.018,25.835h-44.167"/><path class="d" d="M409.298,317.617c-21.394,1.773-33.063,15.834-33.063,34.002,0,17.671,16.357,32.516,32.176,32.516l3.463-.021h5.859s3.852,0,3.879-3.794v-37.927h32.982c0,21.414-.076,69.502-.076,69.502,0,0-32.564-.023-51.475-.023-35.568,0-60.942-29.416-60.942-60.253,0-33.382,27.59-61.233,61.991-59.989l49.342,.152-.023,25.835h-44.114"/></g></g></g><g id="b"><rect class="e" width="1250" height="703"/></g><g id="c"/></svg>