<?xml version="1.0" encoding="utf-8"?>
<!-- Generator: Adobe Illustrator 28.1.0, SVG Export Plug-In . SVG Version: 6.00 Build 0)  -->
<svg version="1.1" id="Layer_1" xmlns="http://www.w3.org/2000/svg" xmlns:xlink="http://www.w3.org/1999/xlink" x="0px" y="0px"
	 viewBox="0 0 1250 703" style="enable-background:new 0 0 1250 703;" xml:space="preserve">
<style type="text/css">
	.st0{fill:#5F6368;}
	.st1{fill:#4285F4;}
	.st2{fill:#EA4335;}
	.st3{fill:#FBBC04;}
	.st4{fill:#34A853;}
</style>
<g id="_1570x512px">
	<path class="st0" d="M761.7,395.4c-16.1,0-29.6-5.4-40.5-16.3c-10.7-10.8-16.1-24.4-16.1-40.6c0-16.2,5.4-29.7,16.1-40.5
		c10.7-11,24.2-16.4,40.5-16.4c16.4,0,29.8,5.9,40,17.8l-10,9.7c-7.8-9.4-17.8-14.1-30-14.1c-12.1,0-22.2,4.1-30.3,12.2
		c-8,8-12,18.5-12,31.3c0,12.9,4,23.3,12,31.3c8.1,8.1,18.2,12.2,30.3,12.2c12.7,0,23.7-5.3,33-16l10.2,9.9
		c-5.2,6.2-11.7,11.1-19,14.4C778.2,393.7,770,395.4,761.7,395.4z M828,284v108.9h-14V284H828z M838.1,355.7
		c0-11.5,3.6-20.9,10.8-28.4c7.3-7.5,16.5-11.3,27.5-11.3c11.1,0,20.2,3.8,27.4,11.3c7.3,7.5,11,17,11,28.4c0,11.6-3.7,21-11,28.4
		c-7.2,7.5-16.3,11.3-27.4,11.3c-11.1,0-20.2-3.8-27.5-11.3C841.7,376.6,838.1,367.1,838.1,355.7L838.1,355.7z M852.1,355.7
		c0,8,2.3,14.5,7,19.5c4.7,5,10.4,7.4,17.3,7.4c6.9,0,12.7-2.5,17.3-7.4s7-11.5,7-19.5c0-7.9-2.3-14.3-7-19.3
		c-4.8-5.1-10.5-7.6-17.3-7.6s-12.6,2.5-17.3,7.6C854.4,341.3,852.1,347.8,852.1,355.7L852.1,355.7z M990.2,392.9h-13.4v-10.3h-0.6
		c-2.1,3.7-5.4,6.7-9.8,9.1c-4.2,2.4-8.9,3.6-13.8,3.7c-9.1,0-16.1-2.6-21.1-7.8s-7.4-12.6-7.4-22.3v-46.8h14v45.9
		c0.3,12.2,6.4,18.3,18.4,18.3c5.6,0,10.2-2.3,14-6.8s5.6-9.9,5.6-16.2v-41.2h14L990.2,392.9z M1035.6,395.4
		c-9.7,0-18.1-3.9-25.1-11.6c-6.9-7.8-10.3-17.2-10.3-28.1s3.4-20.3,10.3-28.1c7-7.7,15.4-11.6,25.1-11.6c5.5,0,10.5,1.2,15,3.5
		c4.5,2.3,8,5.4,10.4,9.3h0.6l-0.6-10.3V284h14v108.9h-13.4v-10.3h-0.6c-2.4,3.9-5.9,6.9-10.4,9.3
		C1046.1,394.2,1041.1,395.3,1035.6,395.4z M1037.9,382.6c6.9,0,12.5-2.5,16.9-7.4c4.6-5,6.8-11.5,6.8-19.5c0-7.8-2.3-14.2-6.8-19.3
		c-4.5-5.1-10.1-7.6-16.9-7.6c-6.7,0-12.3,2.5-16.9,7.6c-4.6,5.1-6.8,11.5-6.8,19.3c0,7.9,2.3,14.3,6.8,19.3
		C1025.6,380,1031.2,382.6,1037.9,382.6z"/>
	<path class="st1" d="M237.8,345.2v-16.8h56.4c0.6,3.4,0.9,6.9,0.9,10.3c0,12.6-3.5,28.3-14.6,39.4c-10.8,11.3-24.7,17.3-43,17.3
		c-34,0-62.5-27.7-62.5-61.6s28.6-61.6,62.5-61.6c18.8,0,32.2,7.4,42.2,17l-11.9,11.9c-7.2-6.8-17-12-30.4-12
		c-24.8,0-44.2,20-44.2,44.8s19.4,44.8,44.2,44.8c16.1,0,25.3-6.5,31.1-12.3c4.8-4.8,7.9-11.6,9.1-21L237.8,345.2z"/>
	<path class="st2" d="M381,355.6c0,22.9-17.9,39.7-39.8,39.7s-39.8-16.8-39.8-39.7c0-23,17.9-39.7,39.8-39.7
		C363.1,315.9,381,332.6,381,355.6z M363.5,355.6c0-14.3-10.4-24.1-22.4-24.1c-12,0-22.4,9.8-22.4,24.1c0,14.1,10.4,24.1,22.4,24.1
		C353.2,379.7,363.5,369.8,363.5,355.6L363.5,355.6z"/>
	<path class="st3" d="M467.9,355.6c0,22.9-17.9,39.7-39.8,39.7c-22,0-39.8-16.8-39.8-39.7c0-23,17.9-39.7,39.8-39.7
		C450,315.9,467.9,332.6,467.9,355.6z M450.4,355.6c0-14.3-10.4-24.1-22.4-24.1c-12,0-22.4,9.8-22.4,24.1
		c0,14.1,10.4,24.1,22.4,24.1S450.4,369.8,450.4,355.6L450.4,355.6z"/>
	<path class="st1" d="M551.2,318.3v71.3c0,29.3-17.3,41.3-37.7,41.3c-19.2,0-30.8-12.9-35.2-23.5l15.2-6.3c2.7,6.5,9.3,14.1,20,14.1
		c13.1,0,21.2-8.1,21.2-23.3v-5.7H534c-3.9,4.8-11.4,9-20.9,9c-19.8,0-38-17.3-38-39.5c0-22.4,18.2-39.8,38-39.8
		c9.5,0,17,4.2,20.9,8.9h0.6v-6.5H551.2z M535.8,355.8c0-14-9.3-24.2-21.2-24.2c-12,0-22.1,10.2-22.1,24.2
		c0,13.8,10.1,23.9,22.1,23.9C526.5,379.7,535.8,369.6,535.8,355.8z"/>
	<path class="st4" d="M580.7,276.6v116.3h-17.4V276.6H580.7z"/>
	<path class="st2" d="M648,368.7l13.5,9c-4.3,6.5-14.9,17.6-33.1,17.6c-22.5,0-39.4-17.4-39.4-39.7c0-23.6,17-39.7,37.4-39.7
		c20.6,0,30.7,16.4,34,25.3l1.8,4.5l-53.1,22c4.1,8,10.4,12,19.2,12C637.3,379.7,643.5,375.3,648,368.7z M606.4,354.4l35.5-14.7
		c-2-5-7.8-8.4-14.7-8.4C618.3,331.3,605.9,339.1,606.4,354.4L606.4,354.4z"/>
</g>
</svg>
