<?xml version="1.0" encoding="UTF-8"?><svg id="INSTRUCTIONS" xmlns="http://www.w3.org/2000/svg" viewBox="0 0 1250 703"><defs><style>.cls-1{fill:#fffcfc;}.cls-2{fill:#e94336;}.cls-3{fill:#e94337;}.cls-4{fill:#35a853;}.cls-5{fill:#fefeff;}.cls-6{fill:#fabc07;}.cls-7{fill:#fffffe;}.cls-8{fill:#4486f4;}.cls-9{fill:#fffefe;}</style></defs><path class="cls-8" d="M353.3636,341.8736c15.4894,0,30.9787-.0069,46.4681,.0056,3.3123,.0027,3.5158,.1083,3.8778,3.0501,2.5936,21.0756,.8265,41.71-8.3456,61.0303-13.495,28.4261-36.3891,45.5748-66.878,52.2331-21.5968,4.7164-43.2159,3.8593-63.9896-4.2473-37.5489-14.6529-61.9824-41.4528-70.4265-81.0393-7.2045-33.7749,1.1992-64.461,23.3944-90.9684,17.1623-20.4967,39.1496-33.4092,65.5053-37.9698,34.7988-6.0216,65.8481,2.2733,92.342,26.1281,2.3775,2.1406,2.3865,2.1724,.0057,4.5631-5.5961,5.6194-11.2042,11.2268-16.8263,16.8201-1.9762,1.9661-2.0213,1.9634-4.0812,.1451-10.2442-9.0426-21.9498-15.2068-35.4022-17.8562-39.0076-7.6825-74.5502,12.4134-88.1989,46.2893-12.2212,30.3326-7.8915,58.9541,13.2793,84.1842,12.9639,15.4495,30.0602,23.9377,50.1722,26.0645,14.8255,1.5677,29.2196-.213,42.7789-6.6164,20.3722-9.6208,32.8511-25.3695,36.3099-47.8854,.0564-.3672,.1016-.7369,.1345-1.1069,.2244-2.5195,.1971-2.5649-2.1848-2.684-.8653-.0433-1.7345-.0112-2.6019-.0112-20.1981-.0003-40.3963-.0002-60.5944-.0004-.8674,0-1.7395-.0604-2.6012,.0092-1.7668,.1428-2.4449-.6487-2.4256-2.3859,.0508-4.5842,.013-9.1695,.0117-13.7543-.001-3.4696-.0189-6.9394,.0052-10.4088,.0246-3.5615,.0429-3.5826,3.8031-3.5847,15.4894-.0088,30.9787-.0037,46.4681-.0036Z"/><path class="cls-8" d="M828.5408,445.2907c-.909-.0127-1.3369,1.0328-1.9913,1.6753-8.7026,8.5449-19.2688,12.8607-31.3114,13.6713-28.9298,1.9473-55.4911-16.8334-66.1986-43.2152-13.8735-34.1825,.4594-73.2645,33.1998-90.2702,13.5578-7.0421,27.9283-9.1567,42.8925-5.4273,8.201,2.0438,15.4598,5.9434,21.4639,12.0048,.6032,.609,1.2616,1.1632,2.1439,1.9715,.9884-2.4386,.4817-4.7553,.54-6.9914,.1261-4.8391-.656-4.5477,4.642-4.5515,7.0634-.0051,14.1267-.0097,21.1901,.0024,3.695,.0063,3.7148,.0226,3.7194,3.5851,.0117,9.046,.004,18.0921,.0039,27.1381,0,31.9709-.0022,63.9419,.0013,95.9129,.001,9.4612-.9917,18.8112-3.6662,27.8978-7.4693,25.3761-24.4431,40.1114-50.4659,44.2948-13.5813,2.1833-26.9584,1.1877-39.7139-4.3845-15.6429-6.8335-26.9305-18.2202-34.3471-33.5138-1.3158-2.7133-1.2547-2.8102,1.5317-3.9843,7.3027-3.0771,14.6475-6.0553,21.9301-9.1789,1.7228-.739,2.4698-.5487,3.3495,1.2679,3.6416,7.5197,9.0023,13.5273,16.1429,18.0109,12.2669,7.7025,34.6815,6.3905,45.4571-5.4472,5.1044-5.6075,7.921-12.2141,9.3199-19.5117,1.2918-6.7389,.9597-13.5688,.8502-20.3789-.0049-.3042-.1199-.4817-.684-.5779Zm2.8865-50.3954c.121-12.6095-1.8139-20.826-6.1472-28.4424-12.0123-21.1137-39.7718-25.0182-57.2213-8.0989-7.6316,7.3997-11.881,16.4541-12.8907,26.8973-1.5125,15.643,2.8343,29.3102,15.3715,39.418,17.0677,13.7602,41.2931,10.1632,53.4088-8.0143,5.1849-7.779,7.3693-16.4033,7.4788-21.7597Z"/><path class="cls-2" d="M486.5149,319.7641c29.828,1.3638,52.6969,14.1189,64.7752,42.1831,16.7601,38.9425-2.9032,86.145-48.3973,96.8697-29.9626,7.0633-60.9397-5.4152-76.7548-31.0355-22.9218-37.1329-8.1682-92.7282,42.2756-105.7583,5.9018-1.5245,11.9188-2.2118,18.1013-2.259Zm-39.7205,70.4242c-.1439,5.4022,.6612,10.6666,2.5569,15.6901,5.3933,14.2916,15.3578,23.7309,30.5478,26.333,15.3717,2.6334,28.1082-2.8552,37.5396-15.2034,11.3318-14.8364,11.4859-37.3781,.7592-52.6534-13.0897-18.6405-38.8071-22.3255-56.2821-7.9023-10.5446,8.7031-15.0162,20.2855-15.1214,33.736Z"/><path class="cls-6" d="M640.57,319.8664c39.8902,.0034,70.4387,30.4628,70.5155,70.3099,.0767,39.8015-30.7746,70.5206-70.7901,70.4868-39.7185-.0336-70.5626-30.7864-70.5917-70.383-.0293-39.8342,30.7502-70.4172,70.8663-70.4138Zm39.4424,70.2229c-.0393-6.66-.8748-11.8779-3.2576-17.4216-6.243-14.5246-17.1435-23.3815-32.958-24.7731-15.8295-1.3928-28.5429,5.1457-36.5599,18.8088-9.2798,15.8152-9.0956,32.2829,.5464,47.9461,11.7986,19.1666,37.1886,24.0074,55.1644,10.822,11.8705-8.7071,16.9786-20.8908,17.0648-35.3822Z"/><path class="cls-3" d="M1055.7473,372.7427c-10.5147,4.3556-20.6767,8.571-30.8433,12.7755-19.8863,8.2242-39.7763,16.4399-59.6622,24.6651-3.5353,1.4623-3.5414,1.4828-1.4976,4.8407,7.939,13.0435,19.7281,18.5019,34.742,17.6942,12.3275-.6632,21.8632-6.419,29.3962-15.9066,.5388-.6786,1.079-1.3592,1.5685-2.0732,.6936-1.0116,1.4101-1.1396,2.4706-.4262,7.0882,4.7678,14.1957,9.5072,21.3255,14.2126,1.8073,1.1927,.4464,2.1096-.199,2.9892-6.6258,9.03-14.8308,16.257-24.7827,21.4397-27.3772,14.2574-66.3032,9.4647-87.9742-19.1464-11.4447-15.1097-15.646-32.309-14.0016-51.0622,1.1723-13.3694,5.2738-25.726,13.4091-36.4638,13.9497-18.4121,32.6897-27.1433,55.7156-26.2913,20.2658,.7499,35.6828,10.5033,47.4956,26.5568,5.7888,7.8669,9.4777,16.7486,12.8376,26.196Zm-99.109,14.7924c.6948,.0681,.8314,.1248,.9279,.0849,19.8787-8.2277,39.7587-16.4521,59.6247-24.7105,2.229-.9266,2.3078-1.2232,1.1349-3.2486-2.994-5.1703-7.5668-8.4664-13.0707-10.4483-11.358-4.09-21.9898-2.1676-31.7439,4.5715-11.7181,8.0961-16.8117,19.6212-16.8728,33.751Z"/><path class="cls-4" d="M880.1027,353.6258c0-32.8209-.0047-65.6418,.0044-98.4626,.0016-5.8033-.3563-4.8151,5.0348-4.8537,7.6785-.055,15.3577-.031,23.0365-.0041,2.8042,.0098,2.8058,.0576,2.8715,2.8853,.0114,.4951,.0017,.9908,.0017,1.4862,0,65.7656,.0047,131.5312-.0092,197.2968-.0011,5.0482,.6299,4.4804-4.6077,4.5016-7.6788,.031-15.3577,.0212-23.0365,.0017-3.2414-.0083-3.2852-.0396-3.2879-3.2739-.0154-17.8347-.0074-35.6695-.0075-53.5042,0-15.3577,0-30.7154,0-46.0731Z"/><path class="cls-5" d="M831.4273,394.8953c-.1095,5.3564-2.2939,13.9808-7.4788,21.7597-12.1157,18.1775-36.3412,21.7745-53.4088,8.0143-12.5373-10.1078-16.884-23.7751-15.3715-39.418,1.0097-10.4432,5.2591-19.4976,12.8907-26.8973,17.4495-16.9193,45.2091-13.0148,57.2213,8.0989,4.3332,7.6164,6.2681,15.8329,6.1472,28.4424Z"/><path class="cls-9" d="M446.7944,390.1883c.1052-13.4505,4.5767-25.0329,15.1214-33.736,17.475-14.4232,43.1923-10.7382,56.2821,7.9023,10.7267,15.2753,10.5727,37.817-.7592,52.6534-9.4315,12.3482-22.1679,17.8368-37.5396,15.2034-15.1899-2.6022-25.1544-12.0414-30.5478-26.333-1.8957-5.0234-2.7008-10.2879-2.5569-15.6901Z"/><path class="cls-7" d="M680.0125,390.0893c-.0862,14.4914-5.1943,26.6752-17.0648,35.3822-17.9758,13.1853-43.3658,8.3446-55.1644-10.822-9.6419-15.6632-9.8262-32.1309-.5464-47.9461,8.017-13.6631,20.7304-20.2016,36.5599-18.8088,15.8145,1.3916,26.715,10.2485,32.958,24.7731,2.3828,5.5437,3.2183,10.7616,3.2576,17.4216Z"/><path class="cls-1" d="M956.6383,387.5351c.0611-14.1298,5.1547-25.6549,16.8728-33.751,9.7542-6.7391,20.386-8.6616,31.7439-4.5715,5.504,1.982,10.0767,5.278,13.0707,10.4483,1.1729,2.0254,1.0941,2.322-1.1349,3.2486-19.866,8.2583-39.746,16.4828-59.6247,24.7105-.0965,.04-.2331-.0168-.9279-.0849Z"/></svg>