<?xml version="1.0" encoding="UTF-8"?><svg id="LOGO" xmlns="http://www.w3.org/2000/svg" viewBox="0 0 1250 703"><defs><style>.cls-1{fill:#4c4949;}.cls-1,.cls-2{stroke-width:0px;}.cls-2{fill:#e50013;}</style></defs><path class="cls-2" d="M454.01961,216.49796v67.28935h-95.46389v-67.28935h-55.40678v162.59317h55.40678v-75.71324h95.46389v75.71324h55.40678v-162.59317h-55.40678ZM531.32416,219.08081v21.98215c22.76912-3.60954,52.58855-5.36106,72.43702-5.36106,15.70103,0,36.70967,1.65371,44.16453,5.50785,7.42379,3.83189,9.56195,9.2152,9.56195,15.30083,0,5.12555-1.47138,11.85137-6.62353,16.30554-5.10331,4.40533-12.34477,7.42379-22.45791,8.88636-9.18413,1.36909-23.58702,2.03587-44.26234,2.03587l-33.77573.09333v18.87062h36.34067c21.61328,0,38.6967.67559,48.79207,3.11614,11.22896,2.5872,17.75481,5.70334,22.98251,10.41539,5.22323,4.71654,6.41461,11.40233,6.41461,17.19018,0,8.00171-4.99206,15.18972-14.96751,19.91074-9.97979,4.71206-30.5128,6.55692-46.62271,6.09906-25.00509-.78684-49.95686-3.25845-74.9397-5.8234v22.03112c26.16974,1.87592,67.37808,3.4496,76.88671,3.4496,36.40294,0,77.13565-2.00928,97.56651-12.30923,17.88368-9.09066,21.92449-27.55674,21.92449-33.30891.01329-6.38802-.81356-14.17186-5.02774-20.1419-4.20089-6.02797-9.33078-9.76639-18.88378-13.27826-9.5842-3.49857-15.26094-5.42333-33.0068-8.43732,19.74184-4.71654,25.49862-7.0103,35.47393-13.38488,9.91318-6.44581,14.91854-15.82991,14.91854-24.85844,0-11.17998-5.48546-20.90649-20.94637-27.53449-15.54543-6.66355-57.96739-9.33974-86.51541-9.33974-16.49221,0-51.27712.66691-79.43402,2.58286M767.15882,237.03993c-21.23981,15.25199-29.04142,37.02536-29.04142,60.83025,0,23.66258,9.11291,45.06247,30.39288,60.39003,21.28878,15.32308,70.34757,20.83093,114.73444,20.83093,21.26653,0,44.10226-1.52483,65.35102-3.12957v-24.52498c-23.12021,3.18736-31.58412,3.9742-55.55343,4.97877-26.28546,1.08027-49.48571-2.44041-66.5869-13.38488-15.49659-9.91318-23.00476-21.64449-23.00476-45.71595,0-16.9057,3.21843-32.30434,16.96797-42.86205,17.76797-13.62501,41.72846-16.99904,70.09429-16.99904,17.75467,0,33.28233,1.43584,58.08284,6.05009v-25.01838c-23.49803-1.50706-37.06972-1.98717-68.05828-1.98717-45.43595,0-92.16095,5.3612-113.37865,20.54197"/><path class="cls-1" d="M304.08098,466.84017h8.60619c.46167-.61628,1.00609-1.46993,1.62455-2.5566.30923-.61846.54442-1.08448.70121-1.39589l4.1855.92987-1.85974,3.02262h14.1854c-.46602,6.04742-2.71774,10.5465-6.74645,13.48855.46602.15679,1.16288.46602,2.09493.92987,1.85974.93205,3.25345,1.47647,4.1855,1.6289l-2.5566,3.48864c-.77961-.31359-2.01653-.92987-3.72383-1.85974-1.55051-.77961-2.79179-1.31967-3.71948-1.6289-4.34229,2.79179-9.61663,4.96075-15.81431,6.51126-.15679-.46385-.62282-1.24128-1.39371-2.32576-.31359-.62064-.54878-1.08666-.70121-1.39371,5.26998-1.24346,9.92151-2.79179,13.95457-4.65152-1.85974-.93205-4.88236-2.32576-9.06786-4.18768,2.93987,1.24346,2.5566,1.08666-1.16288-.46385,1.23692-1.70512,2.4782-3.64108,3.71948-5.8144h-6.51126v-3.72165ZM318.03555,434.98072h3.95031v12.55868h11.62881v3.71948h-11.62881v5.11755l2.09493-2.32576c2.32576,1.39371,5.11755,3.33621,8.371,5.8144l-2.5566,3.02262c-.46602-.30923-1.08884-.77525-1.85974-1.39589-2.32576-2.01218-4.34229-3.64108-6.04959-4.88454v5.8144h-3.95031v-8.13799c-2.79179,3.41025-6.82485,6.66588-12.09483,9.76689-.46602-.92987-1.24128-2.01435-2.32576-3.25563,5.26998-2.63499,9.61228-5.8144,13.02252-9.53606h-11.85964v-3.71948h13.25771v-12.55868ZM305.94072,439.39923l2.79179-2.32576c2.01218,1.85974,4.1855,3.95249,6.51126,6.27825l-3.25781,2.55877c-1.24128-1.54833-3.25345-3.72165-6.04524-6.51126ZM312.22115,474.98033c2.79179,1.08666,5.65761,2.32576,8.60183,3.72165,3.56704-2.63499,5.58357-5.34838,6.04959-8.14017h-11.85964c-.31359.62064-.77961,1.31967-1.39807,2.09275-.61846,1.08666-1.08448,1.85974-1.39371,2.32576ZM331.05808,437.07347l2.79179,2.78961c-1.85974,1.86192-4.1855,3.95467-6.97729,6.28043l-2.79179-2.79179c2.32576-1.85974,4.65152-3.95249,6.97729-6.27825ZM340.82715,434.51469l4.1855.46602c-.62282,3.56704-1.55486,6.97729-2.79179,10.23292h16.97719v3.95249h-3.48864c-1.08884,11.16279-3.64544,19.92359-7.67414,26.28024,2.63499,3.56704,6.6637,6.82267,12.09048,9.76689-1.39371,1.39589-2.40416,2.71121-3.02262,3.95249-4.80832-3.10319-8.68459-6.43069-11.62881-9.9999-2.4782,3.10319-6.58966,6.74427-12.32567,10.93195-.77525-.93205-1.00609-1.24346-.69686-.93205-1.39371-1.7073-2.17332-2.63717-2.32576-2.78961,5.8928-3.72165,10.15234-7.44113,12.79169-11.16279-2.63935-4.1855-4.57313-10.15234-5.8144-17.90706-.77525,1.39589-1.6289,2.78961-2.5566,4.1855-.15679-.30923-.77961-1.16288-1.85974-2.55877-.46602-.61628-.77961-1.00609-.93205-1.16288,4.33794-6.19768,7.36056-13.95239,9.07221-23.25544ZM345.47432,471.25868c2.94422-4.80396,4.88671-12.16887,5.8144-22.09256h-10.46157c-.15679.46602-.39198,1.08666-.70121,1.85974,1.08448,8.68459,2.87018,15.42886,5.34838,20.23282Z"/><path class="cls-1" d="M395.38238,464.28357l11.39362-6.97729h-27.20793v-4.1855h34.18521v4.41851l-13.71938,8.83702v1.39371h24.88217v4.18768h-24.88217v9.9999c.15244,4.80396-2.40416,7.20812-7.67414,7.20812h-2.79179c-2.32576.15244-4.03306.15244-5.11755,0-.15679-1.39371-.38763-3.02262-.69686-4.88236,3.10102.30923,5.73601.46385,7.90933.46385,2.4782,0,3.71948-1.24128,3.71948-3.71948v-9.07004h-26.04505v-4.18768h26.04505v-3.48647ZM392.59059,435.91059l4.1855-2.09275c1.7073,2.78961,3.33185,5.42896,4.88671,7.90715l-2.56095,1.16288h23.95448v11.3958h-4.65152v-7.2103h-42.32538v7.2103h-4.65152v-11.3958h25.34819c-.46167-1.08448-1.39371-2.63499-2.78743-4.65152-.62282-1.08231-1.08884-1.85974-1.39807-2.32576Z"/><path class="cls-1" d="M434.12765,462.42166c6.51126-8.21639,11.47202-17.44104,14.88662-27.67395l4.88236,1.39589c-1.55051,4.1855-3.41025,8.45157-5.57922,12.78951v40.23263h-4.88671v-31.85945c-2.32576,3.87627-4.57313,7.20812-6.7421,9.9999-.46602-.92987-1.08884-2.09275-1.85974-3.48864-.31359-.61846-.54878-1.08231-.70121-1.39589ZM450.40799,469.16593c4.65152-2.16897,9.22465-4.80396,13.71938-7.90715v-25.5812h4.65152v22.32557c6.04959-4.95858,11.16279-10.38535,15.35264-16.27815l4.1855,2.78961c-5.27434,6.97729-11.7856,13.41233-19.53814,19.30295v15.11745c-.15244,3.10319,1.39807,4.49473,4.65152,4.1855h6.04959c3.09666.15244,4.80396-.85147,5.11319-3.0248.61846-3.40807.93205-6.89671.93205-10.46375,1.70295.62064,3.41025,1.16288,5.11755,1.62673-.46602,3.87845-.93205,7.29087-1.39807,10.23292-.61846,4.18768-3.71948,6.19985-9.30305,6.04742h-7.20812c-5.8928.15244-8.75863-2.55877-8.60619-8.14017v-12.55868c-2.63499,2.01653-6.35882,4.18768-11.16279,6.51344-1.08448-2.01435-1.93813-3.41025-2.5566-4.18768Z"/><path class="cls-1" d="M500.08086,450.329c4.1855-4.49473,7.51735-9.76689,9.9999-15.81431l3.95467,1.16288c-.31359.62064-.77961,1.55269-1.39371,2.79179-.46602.77743-.77961,1.3175-.93205,1.62673h10.46593v3.48864l-4.1855,6.04742h7.20812v33.25534c.15244,4.03088-1.7857,6.04742-5.8144,6.04742h-4.88236c0-.62282-.08275-1.47647-.23519-2.55877-.15679-.77743-.23083-1.24346-.23083-1.39589.61846.15244,2.16897.23301,4.65152.23301,2.01218.15244,2.94422-.77743,2.79179-2.79179v-8.60401h-5.11755v9.07004h-3.71948v-9.07004h-4.88671c0,6.04742-1.55051,11.31522-4.65152,15.81431-1.55051-1.24346-2.5566-2.09275-3.02262-2.55877,2.94422-3.41242,4.2639-9.07004,3.95467-16.97719v-18.60392c-.46602.62064-1.08884,1.31967-1.85974,2.09275-.31359-.46385-.85365-1.39589-1.6289-2.78961-.31359-.15244-.46602-.30923-.46602-.46602ZM509.61474,443.58473c-1.08448,2.17332-2.4782,4.1855-4.1855,6.04742h8.14017l3.95467-6.04742h-7.90933ZM507.755,452.88778v7.20812h4.88671v-7.20812h-4.88671ZM507.755,463.35153v7.2103h4.88671v-7.2103h-4.88671ZM521.47874,452.88778h-5.11755v7.20812h5.11755v-7.20812ZM516.36119,463.35153v7.2103h5.11755v-7.2103h-5.11755ZM527.29314,437.53731h25.34819c0,3.25781-.15679,6.59184-.46602,10.00208-.15679,4.64935-2.5566,6.97511-7.20812,6.97511h-5.8144c0-.46385-.23519-1.85974-.69686-4.1855h2.78743c1.55051.15679,2.63499.23301,3.25781.23301,2.32576,0,3.56268-1.08231,3.71948-3.25563,0-.77525.0784-1.86192.23519-3.25563v-2.79179h-10.70112c.30923,7.28869-2.87018,12.71547-9.53388,16.28033-.15679-.15244-.54442-.61846-1.16288-1.39589-.77525-.92987-1.31967-1.54833-1.6289-1.85974,5.73601-2.63499,8.4494-6.97729,8.14017-13.0247h-6.27607v-3.72165ZM540.08048,456.37642h4.1855v6.04524h9.9999v3.95467h-9.9999v7.90715h11.39797v3.95249h-11.39797v11.3958h-4.1855v-11.3958h-13.25336v-3.95249h13.25336v-7.90715h-6.7421c-.31359,1.08666-.93205,2.63717-1.85974,4.65152-.31359.62064-.54442,1.08666-.70121,1.39371-1.39371-.77308-2.63499-1.31532-3.71948-1.62673,2.16897-3.72165,3.79787-8.2926,4.88236-13.72156l4.18986.69686c-.46602,1.70948-.93205,3.25781-1.39807,4.65152h5.34838v-6.04524Z"/><path class="cls-1" d="M573.7082,459.39904c.15244,0,.30923.08057.46602.23301,1.70295.92987,3.02262,1.62673,3.95467,2.09275-3.57139,10.38971-6.20639,18.14007-7.90933,23.25544l-4.65152-2.09275c3.10102-6.82049,5.8144-14.65143,8.14017-23.48845ZM570.21956,438.23635c.77525.77743,1.78134,1.85974,3.02262,3.25563,2.94422,2.9464,5.19159,5.34838,6.74645,7.2103l-3.72383,3.02262c-.15244-.15244-.38763-.46602-.69686-.92987-3.71948-4.34012-6.58966-7.59575-8.60183-9.76907l3.25345-2.78961ZM595.80294,434.7477h4.41633v10.23292h14.42059v17.67405h6.7421v4.1855h-20.46583c3.25781,8.22074,9.76907,14.03514,19.53814,17.44321-.15679.15244-.31359.38545-.46602.69686-1.39371,1.70512-2.32576,2.94422-2.79179,3.72165-10.38753-5.27216-16.82475-11.62881-19.30295-19.06994-1.85974,7.90715-8.21856,14.57085-19.06776,19.99981-1.55486-2.17332-2.63935-3.56922-3.25781-4.1855,11.00599-4.96075,17.28642-11.16279,18.83693-18.60609h-14.41624v-4.1855h15.1131c.46602-1.85974.70121-12.79169.70121-13.72156h-12.79169v-3.95249h12.79169v-10.23292ZM610.21918,448.93311h-9.9999c0,1.08666-.23083,6.51126-.23083,6.97729,0,2.63935-.08275,4.88454-.23519,6.74427h10.46593v-13.72156Z"/><path class="cls-1" d="M631.99162,444.28159h26.28024c-.77961-2.32358-1.86409-5.11537-3.25781-8.371l4.42069-1.6289c1.54615,3.41242,2.78743,6.20421,3.71948,8.37318l-4.1855,1.62673h27.20793v4.18768h-34.18521c0,.92987-.08275,2.40416-.23519,4.41851,0,1.85974-.0784,3.33621-.23083,4.41851h27.20793c-.15244,2.17332-.30923,5.27216-.46167,9.30305-.31359,4.34229-.54878,7.67414-.70121,9.9999-.15244,7.90715-4.03306,11.62663-11.62445,11.16279-2.79179.15244-6.12799.23083-9.9999.23083,0-1.7073-.23519-3.41025-.70121-5.11537,3.72383.30923,7.21247.46602,10.46593.46602,4.49473.46385,6.89889-2.01435,7.20812-7.44331.15679-2.16897.30923-5.4246.46602-9.76689.15244-2.01218.23519-3.56486.23519-4.65152h-22.32557c-.62282,11.78342-6.28043,21.24326-16.97719,28.37299-.93205-1.08666-2.09493-2.40634-3.48864-3.95467,10.23074-6.19768,15.50072-14.80387,15.81431-25.81421.15244-1.85974.30923-4.49473.46602-7.90715.15244-1.54615.23083-2.78961.23083-3.71948h-15.34829v-4.18768Z"/><path class="cls-1" d="M696.54675,484.28338c9.30305-1.54833,17.05559-4.41851,23.25762-8.60619h-22.09474v-3.71948h24.65133v-4.65152h4.1855v4.65152h24.88652v3.71948h-21.8639c6.04959,4.34229,13.56694,7.13408,22.56076,8.37318-.15679.46602-.54442,1.16288-1.16288,2.09275-.46602.92987-.85365,1.6289-1.16288,2.09275-10.54432-2.78961-18.29686-6.35447-23.25762-10.69676v12.09265h-4.1855v-11.85964c-5.8928,4.34229-13.64534,7.82658-23.25326,10.46375-.77961-1.39589-1.6289-2.71339-2.56095-3.95249ZM706.78185,458.93301c1.54615-1.70295,3.02262-3.33185,4.41633-4.88236h-13.25336v-3.72165h16.51117c1.54615-1.85974,2.78743-3.64108,3.71948-5.34838l4.65152,1.39589c-1.08884,1.39371-2.25172,2.71339-3.48864,3.95249h31.62862v3.72165h-12.09483c-1.39371,2.9464-3.79787,5.50517-7.20812,7.67414,1.54615.46385,3.71948,1.08666,6.51126,1.85974,4.1855,1.08666,7.05133,1.86192,8.60619,2.32576l-1.85974,3.72165c-2.94858-.92987-7.6001-2.32576-13.95457-4.1855-1.85974-.46602-3.25781-.85147-4.1855-1.16288-4.80832,2.17115-13.41451,4.03306-25.81421,5.58139-.46602-1.39589-1.01044-2.71121-1.6289-3.95467,8.98946-.92987,15.96675-2.09275,20.93186-3.48864-4.18986-1.2391-8.68459-2.40198-13.48855-3.48864ZM721.19809,434.98072l4.1855-1.16288c.77525,2.17332,1.47211,4.1855,2.09493,6.04524h21.85955v8.60619h-4.1855v-4.88454h-41.39769v4.88454h-4.41633v-8.60619h23.71929c-.46167-1.70295-1.08448-3.33185-1.85974-4.88236ZM713.29311,457.07328c1.70295.46602,4.49473,1.16288,8.371,2.09275,2.01218.46602,3.56268.85365,4.65152,1.16288,3.56268-1.39589,6.19768-3.48864,7.90498-6.27825h-18.14007c-.92769,1.08666-1.85974,2.09275-2.78743,3.02262Z"/><path class="cls-1" d="M778.08779,435.21373c-.46602.62064-.77961,1.3175-.93205,2.09275,1.08448,1.24128,2.79179,3.33403,5.11755,6.27825,2.78743,3.41242,4.41633,5.50517,4.88236,6.27825l-3.48864,2.79179c-3.56704-4.96075-6.35882-8.75645-8.371-11.3958-3.4146,6.82485-7.05568,12.79169-10.93195,17.90706-.15679-.30923-.54442-1.00609-1.16288-2.09275-.62282-.92987-1.08448-1.54833-1.39371-1.85974,4.49473-5.73383,8.371-12.55868,11.62881-20.46583l4.65152.46602ZM765.06091,472.88758l3.02262-2.55877c1.08448,1.39589,3.17941,3.95467,6.28043,7.67414,1.85974-3.71948,3.87627-7.90715,6.04524-12.5565h-16.51117v-3.95467h20.93186v3.95467c-2.32576,5.27216-4.96511,10.62054-7.90498,16.04514,2.16897,2.32576,3.56268,3.95467,4.1855,4.88454l-3.72383,2.78961c-3.56704-5.27216-7.67414-10.69676-12.32567-16.27815ZM771.34134,450.79503l3.48864-1.86192c2.16897,3.72165,3.71948,6.51126,4.65152,8.37318l-3.71948,2.09275c-1.08884-2.4782-2.56095-5.34838-4.42069-8.60401ZM803.43598,474.51431c6.35447,4.96511,11.16279,8.91542,14.41624,11.86182l-3.25345,3.02262c-4.80832-4.34229-9.38144-8.21639-13.72374-11.62663-2.01653,3.87627-6.82485,7.90715-14.41624,12.09265-.15679-.31359-.62282-.92987-1.39807-1.86192-.77525-.92987-1.31532-1.55051-1.62455-1.85974,6.51126-2.78961,10.7708-5.73383,12.78733-8.83702,2.32576-3.09884,3.41025-7.90715,3.25781-14.41842v-7.90715h3.95467v8.371c0,5.89498-.69686,10.31349-2.09493,13.25771l2.09493-2.09493ZM785.52674,437.07347h32.32548v3.95249h-13.71938l-1.6289,7.67632h12.56086v26.97492h-3.95467v-23.02243h-18.83693v23.25544h-4.1855v-27.20793h9.9999l1.39371-7.67632h-13.95457v-3.95249Z"/><path class="cls-1" d="M866.82823,464.98043h4.42069v4.1855h12.09048v3.95467h-12.09048v7.90715c.15244,4.95858-2.48255,7.44113-7.90933,7.44113-2.17332.15244-4.96075.23301-8.371.23301,0-.46602-.15679-1.24346-.46602-2.32576-.15679-1.24346-.31359-2.09275-.46602-2.55877,1.24128.15244,3.95467.23301,8.14017.23301,3.25781.15244,4.80396-1.16288,4.65152-3.95467v-6.97511h-39.30276v-3.95467h39.30276v-4.1855ZM874.27154,452.65476h-35.81412v2.55877c-.15679,2.9464,1.23692,4.34229,4.1855,4.1855h29.30286c3.10102.15679,4.88236-1.00609,5.34838-3.48864,0-.15244.07404-.46602.23083-.92987.30923-2.01435.61846-3.56486.93205-4.65152,2.32576.92987,3.79787,1.47647,4.41633,1.6289-.15244.46385-.30923,1.24128-.46167,2.32576-.46602,1.7073-.77961,2.87018-.93205,3.48647-1.08448,3.87845-4.03306,5.73819-8.83702,5.58139h-30.93176c-5.26998.15679-7.83094-2.32358-7.67414-7.44113v-18.60392h40.23481v15.34829ZM837.9914,476.14322l3.02262-2.78961c1.70295,1.24128,4.1071,3.17941,7.20812,5.81223.93205.92987,1.6289,1.55269,2.09493,1.86192l-3.48864,3.02262c-2.94858-2.79179-5.8928-5.4246-8.83702-7.90715ZM838.45742,441.25897v7.44331h31.62862v-7.44331h-31.62862Z"/><path class="cls-1" d="M940.68641,438.46936l3.72383,2.78961c-3.87627,4.34229-7.90933,8.14017-12.09483,11.3958h16.28033v3.95249h-21.39788c-3.25345,2.17332-6.58966,4.18768-9.9999,6.04742h22.32557v26.74408h-4.41633v-3.25563h-26.28024v3.25563h-4.1855v-20.46583c-3.25781,1.39589-6.58966,2.79179-9.9999,4.18768-.31359-1.08448-1.01044-2.4782-2.09493-4.18768,10.38753-3.40807,19.61218-7.51735,27.67831-12.32567h-26.28024v-3.95249h21.39352v-6.97729h-15.81431v-3.95249h15.81431v-6.97729h4.42069v6.97729h13.71938v3.95249h-13.71938v6.97729h6.04524c5.58357-3.87409,10.53997-8.60401,14.88226-14.1854ZM935.1072,466.37632h-25.11736c-.15679,0-.23083.0784-.23083.23301-.15679.15462-.46602.23083-.93205.23083v6.04742h26.28024v-6.51126ZM908.82696,476.37623v6.51126h26.28024v-6.51126h-26.28024Z"/></svg>