<?xml version="1.0" encoding="utf-8"?>
<!-- Generator: Adobe Illustrator 23.0.2, SVG Export Plug-In . SVG Version: 6.00 Build 0)  -->
<svg version="1.1" id="Layer_1" xmlns="http://www.w3.org/2000/svg" xmlns:xlink="http://www.w3.org/1999/xlink" x="0px" y="0px"
	 viewBox="0 0 1250 703" style="enable-background:new 0 0 1250 703;" xml:space="preserve">
<style type="text/css">
	.st0{fill:#00B188;}
	.st1{fill:#231F20;}
</style>
<title>nvidia-partner-hewlett-packard-enterprise-logo</title>
<g id="LOGO">
	<g id="layer1">
		<g id="g3646">
			<path id="path3346" class="st0" d="M508.5,274.2H313.9v-36.1h194.6V274.2z M522.4,224.2H300v63.9h222.4L522.4,224.2z"/>
			<g id="g3348">
				<path id="path3350" class="st1" d="M313.9,393.7H300v-63.9h13.9V355h24.8v-25.2h13.9v63.9h-13.9v-26.5h-24.8V393.7"/>
			</g>
			<g id="g3352">
				<path id="path3354" class="st1" d="M373.7,365.7h16.6c-0.3-4.7-2.2-8-7.7-8C378.5,357.7,374.9,359.4,373.7,365.7z M384.2,394.7
					c-14.1,0-23.7-8.9-23.7-23.5c0-14.2,9.4-24,21.9-24c13.6,0,20.3,9.1,20.3,22.7v5.1h-29c1.6,7,7.2,8.9,12.7,8.9
					c4.5,0.1,8.9-1.2,12.6-3.7h0.5v10.5C395.8,393.4,390.6,394.7,384.2,394.7"/>
			</g>
			<g id="g3356">
				<path id="path3358" class="st1" d="M439,366.9l-7.2,26.8h-12.2l-13.9-45v-0.5h13.3l7.6,26.9l7.2-26.9h10.8l7.3,26.9l7.7-26.9
					h12.8v0.5l-13.9,45h-12.2L439,366.9"/>
			</g>
			<g id="g3360">
				<path id="path3362" class="st1" d="M494.9,394.7c-11,0-15.5-4.4-15.5-14.7v-50.2h13.5v49.3c0,3.2,1.2,4.3,3.9,4.3
					c1,0,2.1-0.3,3.1-0.6h0.2v11.1C498.4,394.4,496.7,394.7,494.9,394.7"/>
			</g>
			<g id="g3364">
				<path id="path3366" class="st1" d="M517,365.7h16.6c-0.3-4.7-2.2-8-7.7-8C521.8,357.7,518.2,359.4,517,365.7z M527.5,394.7
					c-14.1,0-23.7-8.9-23.7-23.5c0-14.2,9.4-24,21.9-24c13.6,0,20.3,9.1,20.3,22.7v5.1h-29c1.6,7,7.2,8.9,12.7,8.9
					c4.5,0.1,8.9-1.2,12.6-3.7h0.5v10.5C539.1,393.4,533.9,394.7,527.5,394.7"/>
			</g>
			<g id="g3368">
				<path id="path3370" class="st1" d="M601.5,348.2h10V359h-10v18.5c0,4,1.5,5.8,5.6,5.8c1.4,0,2.8-0.2,4.1-0.6h0.3v10.6
					c-2.7,0.9-5.5,1.4-8.3,1.3c-10.9,0-15.2-5-15.2-16.6V359h-17.3v18.5c0,4,1.5,5.8,5.6,5.8c1.4,0,2.8-0.2,4.1-0.6h0.3v10.6
					c-2.7,0.9-5.5,1.4-8.3,1.3c-10.9,0-15.2-5-15.2-16.6V359h-7v-10.8h7v-12.5h13.5v12.5H588v-12.5h13.5V348.2"/>
			</g>
			<g id="g3372">
				<path id="path3374" class="st1" d="M656.9,361.2c7.1,0,10.4-4,10.4-9.7c0-5.9-3.4-9.9-10.4-9.9h-8.8v19.6L656.9,361.2z
					 M681.5,351.5c0,13.9-9.3,21.5-23.4,21.5h-9.9v20.7h-13.9v-63.9h23.8C672.2,329.8,681.5,337.4,681.5,351.5"/>
			</g>
			<g id="g3376">
				<path id="path3378" class="st1" d="M711.1,379.4v-3.9c-2.3-1.1-4.9-1.6-7.5-1.5c-4.4,0-7.1,1.6-7.1,5.3c0,3.8,2.7,5.4,6.6,5.4
					C706.8,384.9,710,382.7,711.1,379.4z M711.5,389.2c-3,3.5-7.4,5.5-12.1,5.3c-8.9,0-16.2-5.4-16.2-15c0-8.9,7.3-14.8,17.7-14.8
					c3.4,0,6.8,0.5,10.1,1.5v-0.8c0-4.9-2.8-7-10-7c-4.5,0-8.9,1.2-12.8,3.5h-0.5V351c3.5-2,9.6-3.8,15.6-3.8
					c13.7,0,21.2,6.5,21.2,18v28.5h-13.1V389.2"/>
			</g>
			<g id="g3380">
				<path id="path3382" class="st1" d="M731.5,371c0-14.6,10.3-23.8,23.8-23.8c4.8,0,9.3,1,12.7,3.5v11.6h-0.5
					c-3-2.3-6.6-3.6-10.4-3.6c-6.7,0-11.9,4.6-11.9,12.4s5.1,12.3,11.9,12.3c3.8,0,7.4-1.3,10.4-3.6h0.5v11.5
					c-3.4,2.5-7.9,3.5-12.7,3.5C741.8,394.7,731.5,385.6,731.5,371"/>
			</g>
			<g id="g3384">
				<path id="path3386" class="st1" d="M789.9,373v20.6h-13.5v-63.9h13.5v36.4l13.6-18h15.3v0.5l-16.3,20.6l16.4,23.8v0.5h-15.4
					L789.9,373"/>
			</g>
			<g id="g3388">
				<path id="path3390" class="st1" d="M849.1,379.4v-3.9c-2.3-1.1-4.9-1.6-7.5-1.5c-4.4,0-7.1,1.6-7.1,5.3c0,3.8,2.7,5.4,6.6,5.4
					C844.7,384.9,848,382.7,849.1,379.4z M849.5,389.2c-3,3.5-7.4,5.5-12.1,5.3c-8.9,0-16.2-5.4-16.2-15c0-8.9,7.3-14.8,17.7-14.8
					c3.4,0,6.8,0.5,10.1,1.5v-0.8c0-4.9-2.8-7-10-7c-4.5,0-8.9,1.2-12.8,3.5h-0.5V351c3.5-2,9.6-3.8,15.6-3.8
					c13.7,0,21.2,6.5,21.2,18v28.5h-13.1L849.5,389.2"/>
			</g>
			<g id="g3392">
				<path id="path3394" class="st1" d="M885.3,355.6c2.5-5,6-7.9,11-7.9c1.5,0,3,0.2,4.4,0.8v12.9h-0.5c-1.9-0.7-3.9-1.1-5.9-1
					c-4.2,0-7.5,2.5-8.6,7.2v26.2h-13.5v-45.5h13.1V355.6"/>
			</g>
			<g id="g3396">
				<path id="path3398" class="st1" d="M936.5,378.2v-14.6c-1.8-3-5.1-4.7-8.6-4.7c-5.9,0-9.9,4.3-9.9,12.1s4,12,9.9,12
					C931.4,383,934.7,381.2,936.5,378.2z M936.9,389c-2.9,3.7-7.4,5.7-13.5,5.7c-11.7,0-19.1-10.6-19.1-23.7s7.5-23.8,19.1-23.8
					c5.9,0,10.2,1.8,13.1,5.2v-22.6H950v63.9h-13.1V389"/>
			</g>
			<g id="g3400">
				<path id="path3402" class="st1" d="M300,414.5h39.5v7.8h-30.6v19.5h27.7v7.6h-27.7v21.3h30.6v7.8H300V414.5"/>
			</g>
			<g id="g3404">
				<path id="path3406" class="st1" d="M372.1,432.5c10.1,0,15.7,6.6,15.7,17.6v28.3h-8.5v-28.1c0-5.8-3-10-9.4-10
					c-5.2,0-9.8,3.3-11.3,8.2v29.9h-8.5v-45h8.5v6.5C361.4,435.3,366.6,432.4,372.1,432.5"/>
			</g>
			<g id="g3408">
				<path id="path3410" class="st1" d="M410.6,433.4h11.5v7.3h-11.5v24.2c0,5.1,2.7,6.8,7.5,6.8c1.3,0,2.6-0.2,3.8-0.6h0.3v7.3
					c-1.7,0.7-3.5,1-5.3,0.9c-10.5,0-14.7-4.8-14.7-13.6v-25h-7.8v-7.3h7.8v-12h8.5V433.4"/>
			</g>
			<g id="g3412">
				<path id="path3414" class="st1" d="M436.4,451.5h22.4c-0.3-6.6-3.6-11.7-10.5-11.7C441.8,439.8,437.6,444.6,436.4,451.5z
					 M449.8,479.3c-13.2,0-22.2-8.8-22.2-22.9s8.4-23.9,20.5-23.9c12.4,0,18.8,8.9,18.8,22.1v3.9h-30.9c0.9,9.1,6.8,13.5,14.8,13.5
					c4.5,0.2,9-1.3,12.6-4.1h0.3v7.5C460.1,478.2,455.3,479.3,449.8,479.3"/>
			</g>
			<g id="g3416">
				<path id="path3418" class="st1" d="M485.4,440.4c1.8-4.6,6.2-7.7,11.1-7.7c1.5-0.1,3,0.2,4.4,0.7v8.4h-0.3
					c-1.7-0.7-3.5-1-5.3-0.9c-4.6,0-8.5,3.1-9.9,8.2v29.3H477v-45h8.5L485.4,440.4"/>
			</g>
			<g id="g3420">
				<path id="path3422" class="st1" d="M528.4,471.7c8.4,0,13.3-6.6,13.3-15.7c0-9-4.9-15.7-13.3-15.7c-4.8,0.1-9.1,2.9-11.1,7.1
					v17.3C519.3,468.9,523.6,471.6,528.4,471.7z M529.8,432.5c13.4,0,20.5,10.9,20.5,23.4s-7.2,23.4-20.5,23.4
					c-4.9,0-9.5-2.2-12.6-5.9v22.3h-8.5v-62.2h8.5v5.1C520.3,434.7,524.9,432.5,529.8,432.5"/>
			</g>
			<g id="g3424">
				<path id="path3426" class="st1" d="M568.8,440.4c1.8-4.6,6.2-7.7,11.1-7.7c1.5-0.1,3,0.2,4.4,0.7v8.4h-0.3
					c-1.7-0.7-3.5-1-5.3-0.9c-4.6,0-8.5,3.1-9.9,8.2v29.3h-8.5v-45h8.5L568.8,440.4"/>
			</g>
			<g id="g3428">
				<path id="path3430" class="st1" d="M596.6,415.2c2.9,0,5.3,2.3,5.4,5.2c0,2.9-2.3,5.3-5.2,5.4c0,0-0.1,0-0.1,0
					c-2.9,0.1-5.4-2.3-5.4-5.2s2.3-5.4,5.2-5.4C596.5,415.2,596.6,415.2,596.6,415.2"/>
			</g>
			<path id="path3432" class="st1" d="M592.5,478.4h8.5v-45h-8.5V478.4z"/>
			<g id="g3434">
				<path id="path3436" class="st1" d="M631.2,452.1c6.4,2,13.6,4.7,13.6,13.3c0,9.2-7.6,13.9-17.3,13.9c-5.9,0-11.9-1.4-15.2-4.1
					v-8.1h0.4c3.8,3.5,9.4,5,14.7,5c4.8,0,9.1-1.8,9.1-5.7c0-4-3.6-4.9-10.6-7.3c-6.3-2-13.4-4.4-13.4-12.9
					c0-8.7,7.2-13.8,16.3-13.8c5.3,0,10,1.1,13.8,3.7v8.2h-0.3c-3.7-3.1-8.4-4.8-13.3-4.7c-5.3,0-8.3,2.4-8.3,5.5
					C620.7,448.8,623.9,449.8,631.2,452.1"/>
			</g>
			<g id="g3438">
				<path id="path3440" class="st1" d="M660.9,451.5h22.4c-0.3-6.6-3.6-11.7-10.5-11.7C666.4,439.8,662.2,444.6,660.9,451.5z
					 M674.3,479.3c-13.2,0-22.2-8.8-22.2-22.9s8.4-23.9,20.5-23.9c12.4,0,18.8,8.9,18.8,22.1v3.9h-30.9c0.9,9.1,6.7,13.5,14.8,13.5
					c4.5,0.2,9-1.3,12.6-4.1h0.3v7.5C684.7,478.2,679.9,479.3,674.3,479.3"/>
			</g>
		</g>
	</g>
</g>
</svg>
