<?xml version="1.0" encoding="UTF-8"?><svg id="LOGO" xmlns="http://www.w3.org/2000/svg" viewBox="0 0 1250 703"><path d="M524.927,413.982v-45.056h-42.283v45.056h-18.716v-103.282h18.716v40.55h42.283v-40.55h18.715v103.282h-18.715Z" fill="#231f20"/><path d="M563.398,413.982v-103.282h70.703v16.983h-51.641v23.914h45.056v16.983h-45.056v28.42h51.641v16.983s-70.703,0-70.703,0Z" fill="#231f20"/><path d="M710.003,413.982l-23.221-37.778-23.221,37.778h-20.102l32.579-52.681-32.232-50.601h20.448l23.221,36.045,22.528-36.045h20.448l-31.886,50.948,32.232,52.334h-20.795Z" fill="#231f20"/><path d="M805.313,413.982l-6.585-19.755h-41.243l-6.585,19.755h-19.062l36.391-103.282h20.448l36.391,103.282h-19.755ZM777.933,333.921l-14.557,43.67h29.46l-14.903-43.67Z" fill="#231f20"/><path d="M909.635,413.982l-10.744-11.437c-3.119,5.892-12.824,13.17-25.994,13.17-11.784,0-22.528-2.773-30.846-11.437-10.744-11.091-13.517-24.954-13.517-41.937s2.08-30.499,13.517-41.59c7.971-7.971,19.755-12.13,30.846-12.13,12.824,0,23.568,4.852,30.499,11.784,5.199,5.199,9.011,11.784,9.358,20.795h-19.409c-.347-4.159-2.426-6.932-4.506-9.358-3.812-4.159-9.358-6.239-16.636-6.239-5.892,0-12.824,2.773-16.983,6.932-7.278,7.278-7.971,20.448-7.971,29.806s1.04,22.875,8.318,30.153c4.159,4.506,10.744,6.585,16.636,6.585,6.585,0,11.784-2.426,15.596-5.892,5.545-5.892,6.585-12.13,6.585-20.102h-24.607v-15.596h42.976v56.493h-3.119Z" fill="#231f20"/><path d="M1000.786,404.278c-7.971,7.971-18.715,11.784-29.806,11.784s-21.835-3.812-29.806-11.784c-11.091-11.091-13.17-24.954-13.17-41.937s1.733-30.846,13.17-41.937c7.971-7.971,18.715-11.784,29.806-11.784s21.835,3.812,29.806,11.784c11.091,11.091,13.17,24.954,13.17,41.937s-1.733,30.846-13.17,41.937ZM987.27,332.881c-4.159-4.506-10.398-6.932-16.289-6.932s-12.13,2.426-16.289,6.932c-7.278,7.278-7.278,20.448-7.278,29.806s.347,22.181,7.278,29.46c4.159,4.506,10.398,6.932,16.289,6.932s12.13-2.426,16.289-6.932c7.278-7.278,7.278-20.102,7.278-29.46.347-9.704,0-22.528-7.278-29.806Z" fill="#231f20"/><path d="M1091.591,413.982l-44.709-71.05v71.05h-18.369v-103.282h20.102l44.016,70.01v-70.01h18.369v103.282h-19.409Z" fill="#231f20"/><path d="M260.484,358.182v-150.764l-132.742,76.595-1.733,1.04v153.883h85.26l44.016,77.635,133.781-77.288v-155.269l-128.583,74.169ZM381.441,435.124h-76.248l76.595-131.702v131.355l-.347.347ZM379.362,293.718l-82.14,141.406h-36.738v-72.783l118.878-68.624ZM260.484,438.59h34.658l-34.658,59.266v-59.266ZM253.205,435.124h-35.352l-20.448-36.045,55.8-32.579v68.624ZM195.326,395.613l-20.795-36.391,78.328-135.861v138.98l-57.533,33.272ZM250.086,221.628l-77.288,134.128-38.124-67.237,115.412-66.891ZM168.639,362.688l-38.817,67.584v-136.207l38.817,68.624ZM170.718,366.5l18.716,32.925-56.493,32.579,37.778-65.504ZM134.674,435.124l56.493-32.579,18.369,32.579h-74.862ZM219.587,438.59h33.619v58.919l-33.619-58.919ZM303.113,438.59h72.089l-108.827,62.732,36.738-62.732Z" fill="#231f20"/></svg>