<svg id="LOGO" xmlns="http://www.w3.org/2000/svg" viewBox="0 0 1250 703"><title>hitachi-logo</title><path d="M290.52,345.76V242.36h26.1v40.82h55.9V242.36h27.62v103.4H372.88v-45.4H316.62v45.4Z" fill="#000105"/><path d="M448.9,345.76H422.8V242.36h26.1Z" fill="#000105"/><path d="M458.94,242.36h112v17.19H529.13v86.21H501.87V259.55H458.94Z" fill="#000105"/><path d="M547.64,345.76l47.86-103.4h33.76l48.35,103.4H647.84l-9.54-21.91H587l-8.74,21.91Zm84.68-39.1L613,260.22l-19.82,46.44Z" fill="#000105"/><path d="M804.47,345.76V242.36h27.25v40.82h55.9V242.36H914.1v103.4H888v-45.4H831.73v45.4Z" fill="#000105"/><path d="M962.84,345.76H936.75V242.36h26.09Z" fill="#000105"/><path d="M761.28,277c.17-10.88-6.33-21.07-28-21.17-28.11-.13-30.65,24.76-30.75,38.19-.22,28.85,12.13,37.43,32.3,37.81,19.78.37,26.66-12.24,26.49-23.12h29.08c-1.28,25.92-18.91,38.84-55.57,39.15-43.78.39-62.57-23.62-62.56-53.84s18.4-54.91,61.4-55c30.45-.07,54.28,12.07,55.57,38Z" fill="#000105"/><path d="M267.12,439.16H253V388.59c0-3.26,1.15-7.95-7.95-7.95h-2.77v-3.7s19.71-.88,25-2.59Z" fill="#000105"/><path d="M806.64,439.56H793.47V389c0-3.26,1.15-9.36-8-9.36h-2.77v-3.7l29,0,31.93,47.77V376.11h13.16v63.61h-16.2l-34-49.84Z" fill="#000105"/><path d="M665.17,439.57H652.82V387.44c0-2.28,1.1-7.95-5.23-7.95h-2.77v-4.25s15-.81,20.38-2.52V403.3s5.46-9.55,17-9.55,14,8.73,14,14.43v31.39H684.5V408a6.72,6.72,0,0,0-7-5.77c-6.37,0-12.14,6.51-12.14,11.77S665.17,439.57,665.17,439.57Z" fill="#000105"/><path d="M281.38,400.35l-.45-3.32s18-2.33,20.14-2.95v9.36s6.3-9.36,17.38-9.36,13.56,9,13.56,11.84v33.79H319.69v-33c0-1.62-1.52-5.16-6.3-5.16s-11.94,8.21-11.94,11.94v26.16H288.76V405.34C288.76,402.57,289.3,400.35,281.38,400.35Z" fill="#000105"/><path d="M377.36,405.22v-9.9a115.06,115.06,0,0,0-13.84-1.43c-5.06,0-16.81,2.29-16.81,13.18,0,14.22,23.3,14.41,23.3,22.72,0,7.06-13.18,7.26-21.86.95a1.71,1.71,0,0,0-1.44,0v8.88a80,80,0,0,0,14.18,1.48c7.06,0,19.91-2.33,19.91-13.79,0-13.76-23.87-17-23.87-23.3C356.93,397.32,371,398.82,377.36,405.22Z" fill="#000105"/><path d="M395.6,406.11c0-2.77-.53-5.44-8.45-5.44v-3.88s18.44-1.72,20.14-2.77v5.88h1.87s2.48-5.73,11.84-5.73,19.1,5.45,19.1,22.63-7.73,24-19.1,24-12-4.58-12-4.58h-1.91V459H395.7Zm12,12.73c0,12.29,5,15.7,9.62,15.7s10-3,10-18.07-7.48-15.76-10.07-15.76C412.07,400.71,407.63,406.56,407.63,418.84Z" fill="#000105"/><path d="M457.08,405.41c0-2.77-.3-5-8.22-5l.07-3.32s18-2.33,20.14-3v45.37h-12Z" fill="#000105"/><path d="M470.7,381.46c0,3.6-3.35,6.51-7.47,6.51s-7.48-2.91-7.48-6.51,3.35-6.52,7.48-6.52S470.7,377.86,470.7,381.46Z" fill="#000105"/><path d="M489.72,439.5l-.1-33.52c0-2.77-.53-5.44-8.46-5.44v-3.89s18.45-1.7,20.15-2.75V402h1.15s3.78-8.14,12.21-8.14a50.18,50.18,0,0,1,6.08.37v11.25a15.22,15.22,0,0,0-6.37-1.93c-3,0-12.44,3.11-12.44,10.66v25.32Z" fill="#000105"/><path d="M913.49,394.71v3.89s5.81-.13,8.08,2.14,11.74,14.93,11.74,14.93l-12.53,14.66h13.86l5.4-5.39L952,440.2h14.39l-34.13-45.34Z" fill="#000105"/><path d="M557.84,408.11H539.7s.74-9.29,9.29-9.29S557.84,408.11,557.84,408.11Zm-9.11-14.51C541,393.6,526,394.78,526,416s16.29,25.54,27.1,25.54,15.47-3,15.47-3v-6.66a24.23,24.23,0,0,1-10.73,2.6c-17.4,0-18.37-21-18.37-21h30.36C569.83,395.38,556.43,393.6,548.73,393.6Z" fill="#000105"/><path d="M739.65,408.11H721.51s.75-9.29,9.29-9.29S739.65,408.11,739.65,408.11Zm-9.11-14.51c-7.69,0-22.72,1.18-22.72,22.36s16.28,25.54,27.09,25.54,15.47-3,15.47-3v-6.66a24.23,24.23,0,0,1-10.73,2.6c-17.39,0-18.36-21-18.36-21h30.35C751.64,395.38,738.24,393.6,730.54,393.6Z" fill="#000105"/><path d="M900.15,408.11H882s.74-9.29,9.29-9.29S900.15,408.11,900.15,408.11ZM891,393.6c-7.7,0-22.72,1.18-22.72,22.36s16.28,25.54,27.09,25.54,15.47-3,15.47-3v-6.66a24.23,24.23,0,0,1-10.73,2.6c-17.4,0-18.36-21-18.36-21h30.35C912.14,395.38,898.74,393.6,891,393.6Z" fill="#000105"/><path d="M605,400.19v-5.33h8.44V381.09h12.14v13.69h13.77v5.41H625.65v30.5c0,3.18,3.84,4.07,12.21,4.07v5.33s-2.74,1.18-9,1.18-16-.81-16-9.47V400.19Z" fill="#000105"/><path d="M971.78,400.19v-5.33h8.44V381.09h12.14v13.69h13.77v5.41H992.44v30.5c0,3.18,3.85,4.07,12.21,4.07v5.33s-2.74,1.18-9,1.18-16-.81-16-9.47V400.19Z" fill="#000105"/><polygon points="943.84 409.13 954.51 394.86 967.97 394.86 955.44 409.13 943.84 409.13" fill="#231f20"/><polygon points="982.39 362.29 996.46 362.29 980.22 381.09 966.26 381.09 982.39 362.29" fill="#ef3e42"/></svg>