<?xml version="1.0" encoding="UTF-8"?><svg id="LOGO" xmlns="http://www.w3.org/2000/svg" xmlns:xlink="http://www.w3.org/1999/xlink" viewBox="0 0 1250 703"><defs><clipPath id="clippath"><rect x="352.188" y="75" width="548.624" height="553.353" fill="none"/></clipPath><clipPath id="clippath-1"><rect x="352.188" y="75" width="548.624" height="553.353" fill="none"/></clipPath></defs><g clip-path="url(#clippath)"><g clip-path="url(#clippath-1)"><path d="M461.038,507.934c1.441,1.526,2.896,3.035,4.38,4.521.028.028.056.056.085.085.147.147.296.285.443.431,1.17,1.165,2.352,2.324,3.551,3.463.722.688,1.455,1.357,2.183,2.033.618.57,1.23,1.151,1.853,1.715.95.863,1.915,1.709,2.877,2.552.398.35.792.705,1.193,1.052,1.125.973,2.256,1.923,3.396,2.871.24.2.479.403.719.601,1.266,1.046,2.544,2.07,3.83,3.085.11.087.223.178.338.268,1.388,1.091,2.789,2.166,4.199,3.221.008.008.017.014.028.023,8.807,6.591,17.984,12.457,27.452,17.595.037.02.071.039.104.056,1.514.821,3.035,1.624,4.563,2.408.175.09.35.178.525.268,1.388.705,2.781,1.399,4.177,2.076.353.169.705.336,1.055.505,1.227.584,2.454,1.159,3.689,1.72.556.254,1.114.502,1.672.753,1.032.46,2.067.914,3.108,1.359.781.336,1.568.663,2.352.987.823.341,1.647.68,2.473,1.01,1.012.406,2.031.804,3.049,1.196.606.231,1.213.465,1.825.691,1.232.463,2.473.911,3.717,1.354.403.141.807.285,1.21.426,1.433.496,2.874.979,4.318,1.45.223.073.443.144.666.217,1.599.513,3.207,1.01,4.823,1.489.073.023.149.045.223.068,10.302,3.049,20.912,5.387,31.77,6.949.051.008.102.014.152.023,1.706.243,3.415.471,5.136.677.183.023.367.042.553.062,1.585.186,3.173.361,4.766.516.358.034.716.062,1.074.093,1.427.133,2.86.257,4.295.361.584.042,1.17.073,1.757.11,1.221.079,2.442.161,3.669.22.931.045,1.858.073,2.789.107.905.031,1.811.073,2.719.096,1.864.045,3.728.071,5.595.071s3.734-.025,5.601-.071c.911-.023,1.819-.065,2.727-.099.925-.034,1.853-.059,2.778-.104,1.23-.059,2.451-.141,3.672-.22.587-.037,1.173-.068,1.757-.11,1.438-.104,2.871-.228,4.301-.361.355-.031.711-.059,1.066-.093,1.596-.155,3.187-.33,4.775-.516.183-.02.364-.039.544-.062,1.723-.206,3.438-.434,5.15-.68.045-.006.09-.011.135-.02,10.869-1.565,21.484-3.903,31.798-6.955.056-.017.116-.037.172-.054,1.633-.485,3.257-.984,4.873-1.506.203-.065.406-.133.612-.197,1.461-.477,2.919-.965,4.371-1.469.384-.135.77-.271,1.153-.406,1.263-.448,2.524-.905,3.776-1.373.587-.22,1.173-.446,1.76-.668,1.041-.4,2.081-.804,3.114-1.218.804-.322,1.608-.651,2.408-.984.809-.336,1.616-.671,2.42-1.015,1.015-.434,2.028-.88,3.037-1.331.584-.259,1.165-.519,1.746-.781,1.207-.55,2.411-1.117,3.613-1.689.378-.178.753-.358,1.131-.541,1.371-.663,2.738-1.342,4.101-2.036.2-.104.403-.206.604-.31,1.5-.767,2.995-1.557,4.478-2.363.065-.034.13-.068.192-.102,9.442-5.127,18.594-10.976,27.376-17.547.051-.037.099-.076.147-.113,1.373-1.027,2.736-2.07,4.089-3.133.152-.121.307-.245.46-.367,1.244-.981,2.479-1.974,3.706-2.984.293-.243.581-.488.871-.73,1.089-.905,2.174-1.816,3.249-2.747.463-.398.917-.807,1.376-1.21.9-.792,1.805-1.582,2.693-2.392.728-.657,1.438-1.331,2.157-1.997.626-.584,1.258-1.159,1.881-1.751,2.71-2.58,5.356-5.226,7.936-7.939.589-.618,1.162-1.249,1.746-1.875.668-.719,1.345-1.433,2.005-2.163.798-.88,1.576-1.768,2.36-2.659.415-.471.835-.939,1.247-1.416.917-1.06,1.816-2.132,2.71-3.207.254-.305.513-.606.767-.914.998-1.213,1.98-2.437,2.95-3.663.133-.169.271-.338.403-.508,1.052-1.34,2.084-2.69,3.105-4.05.045-.062.093-.121.138-.183,6.563-8.774,12.403-17.914,17.528-27.342.042-.079.087-.161.13-.243.795-1.469,1.576-2.944,2.338-4.428.11-.22.223-.44.333-.657.685-1.345,1.357-2.696,2.014-4.05.192-.395.378-.79.567-1.182.564-1.184,1.12-2.369,1.661-3.559.274-.601.541-1.204.812-1.808.44-.99.874-1.98,1.3-2.975.355-.823.699-1.653,1.043-2.482.321-.781.643-1.562.959-2.346.42-1.052.832-2.11,1.241-3.17.214-.57.434-1.137.646-1.703.477-1.275.939-2.552,1.396-3.835.127-.364.257-.728.384-1.091.51-1.469,1.007-2.947,1.489-4.431.059-.186.118-.369.181-.556.525-1.633,1.032-3.277,1.523-4.927.011-.039.023-.079.034-.118,3.06-10.322,5.401-20.954,6.966-31.834.006-.031.008-.062.014-.09.245-1.726.477-3.458.685-5.195.02-.164.037-.327.056-.488.189-1.608.364-3.215.519-4.831.034-.333.059-.668.09-1.001.133-1.452.259-2.905.364-4.363.042-.561.07-1.12.107-1.681.082-1.247.164-2.493.223-3.748.045-.888.07-1.777.104-2.668.034-.945.076-1.887.099-2.837.045-1.802.068-3.604.071-5.409,0-.059.003-.118.003-.178,0-.102-.006-.2-.006-.299-.025-20.458-2.826-40.913-8.37-60.758l.028.008c-.282-1.01-.584-2.016-.88-3.02-.042-.149-.085-.296-.13-.443-1.004-3.387-2.084-6.743-3.243-10.062-.172-.488-.353-.973-.525-1.461-.375-1.049-.75-2.093-1.139-3.133-.31-.829-.629-1.655-.95-2.485-.254-.66-.51-1.317-.773-1.974-.398-1.001-.801-2-1.213-2.995-.169-.398-.336-.795-.505-1.196-8.511-20.224-20.1-39.457-34.759-56.996-.113-.133-.223-.265-.336-.398-.866-1.035-1.74-2.062-2.631-3.082-.192-.22-.386-.437-.578-.657-1.61-1.836-3.252-3.652-4.933-5.446-.237-.254-.471-.513-.708-.767-.643-.68-1.297-1.351-1.952-2.025-.57-.589-1.139-1.179-1.717-1.763-.305-.31-.601-.626-.908-.933-.341-.341-.691-.668-1.032-1.007-.553-.544-1.108-1.086-1.67-1.627-.494-.477-.987-.956-1.486-1.427-.891-.846-1.791-1.684-2.696-2.516-.155-.147-.313-.296-.471-.44h-.003c-12.671-11.588-26.665-21.752-41.73-30.238l.02-.008c-2.394-1.348-4.806-2.64-7.237-3.892-.062-.031-.118-.062-.178-.093-1.083-.556-2.169-1.097-3.254-1.636-.338-.166-.674-.336-1.012-.502-.826-.403-1.658-.795-2.49-1.19-.612-.291-1.224-.581-1.839-.866-.567-.262-1.137-.516-1.706-.773-.891-.403-1.785-.807-2.685-1.201-.29-.127-.587-.248-.88-.375-1.179-.51-2.366-1.015-3.559-1.506-.003,0-.008-.003-.011-.003-23.182-9.538-48.296-15.331-74.597-16.633-.113-.006-.226-.011-.338-.017-1.249-.062-2.502-.107-3.757-.147-.344-.011-.688-.025-1.032-.034-1.106-.031-2.217-.051-3.328-.065-.468-.006-.939-.011-1.41-.014-.502-.003-1.001-.017-1.503-.017-.536,0-1.066.014-1.602.02-.539.003-1.08.008-1.616.017-1.052.014-2.104.034-3.153.062-.443.014-.883.028-1.325.045-1.165.04-2.329.082-3.489.138-.226.011-.451.025-.677.037-21.417,1.108-42.043,5.195-61.475,11.856-.048.014-.093.031-.141.048-1.323.454-2.643.919-3.957,1.399-.265.096-.533.197-.798.293-1.097.406-2.194.815-3.283,1.235-.533.206-1.063.42-1.596.629-.826.327-1.653.654-2.473.99-.84.344-1.678.697-2.518,1.052-.51.217-1.024.429-1.534.651-1.199.516-2.392,1.046-3.582,1.585-.152.068-.302.135-.454.203-20.706,9.417-40.281,22.124-57.944,38.115-.071.065-.144.13-.217.195-.998.905-1.988,1.825-2.972,2.75-.189.178-.378.355-.567.533-.9.852-1.794,1.715-2.685,2.586-.248.243-.496.485-.745.728-.361.355-.725.702-1.083,1.06-.485.488-.959.981-1.438,1.472-.274.279-.547.558-.821.838-.863.888-1.718,1.78-2.561,2.679-.192.203-.384.406-.572.609-.936,1.001-1.861,2.008-2.775,3.02-.059.068-.118.133-.178.2-20.156,22.406-35.047,47.864-44.669,74.789-.127.353-.259.705-.384,1.06-.24.682-.468,1.371-.702,2.056-.293.857-.589,1.712-.871,2.572-.031.09-.056.178-.087.268-1.909,5.841-3.593,11.786-5.028,17.826l.011.003c-3.573,15.049-5.59,30.393-6.041,45.775l-.003-.003c-.045,1.571-.073,3.147-.09,4.724v.133c-.006.62-.017,1.241-.017,1.864,0,.587.02,1.17.023,1.757.006.68.017,1.359.028,2.039.017,1.091.037,2.183.071,3.269.014.42.034.84.048,1.258.973,26.854,6.622,52.512,16.171,76.185.017.048.039.099.059.147,1.54,3.816,3.184,7.578,4.924,11.286.265.564.522,1.134.792,1.695.316.66.643,1.311.965,1.966.457.933.919,1.87,1.39,2.8.276.541.558,1.08.84,1.622.541,1.049,1.094,2.095,1.655,3.136.243.451.488.902.733,1.351.629,1.148,1.269,2.29,1.918,3.427.2.353.4.705.604,1.055.736,1.275,1.483,2.541,2.248,3.802.13.217.259.434.389.649.2.327.389.657.589.981l.02-.008c8.111,13.17,17.533,25.444,28.089,36.64l-.006.003c.07.073.141.147.212.22" fill="#fff"/><path d="M871.057,352.283c-.037-21.964-3.006-43.834-8.81-64.921-.076-.344-.161-.688-.257-1.029-.257-.908-.519-1.808-.787-2.71l-.31-1.052c-1.111-3.742-2.298-7.423-3.528-10.94l-.558-1.56c-.417-1.17-.826-2.304-1.247-3.429-.324-.869-.666-1.749-1.024-2.679-.285-.742-.567-1.461-.855-2.177-.42-1.063-.86-2.146-1.311-3.238l-.541-1.292c-9.428-22.395-22.141-43.242-37.785-61.957l-.375-.451c-.925-1.103-1.878-2.22-2.851-3.339l-.601-.68c-1.796-2.05-3.596-4.038-5.37-5.931l-.77-.829c-.592-.629-1.196-1.252-1.796-1.875l-.327-.333c-.609-.632-1.227-1.266-1.844-1.895l-2.143-2.138c-.578-.572-1.187-1.168-1.802-1.757l-1.627-1.562c-.939-.897-1.921-1.808-2.961-2.767l-.722-.663c-13.54-12.347-28.459-23.179-44.288-32.164-.251-.158-.505-.307-.767-.457-2.501-1.404-5.074-2.789-7.86-4.225l-.259-.135c-1.117-.575-2.298-1.165-3.474-1.746l-1.097-.544c-.795-.392-1.599-.773-2.403-1.151l-4.168-1.932c-.953-.431-1.923-.869-2.908-1.3l-.976-.417c-1.238-.533-2.507-1.072-3.895-1.644-25.777-10.601-53.039-16.676-81.027-18.063l-.35-.02c-1.379-.065-2.741-.116-4.103-.161l-1.108-.034c-1.21-.034-2.414-.056-3.624-.071l-3.159-.031-3.497.037c-1.137.014-2.276.037-3.418.071l-1.447.045c-1.252.042-2.516.09-3.782.152l-.733.04c-22.829,1.182-45.304,5.516-66.954,12.936-1.438.494-2.874,1.001-4.306,1.523l-.846.313c-1.213.446-2.406.891-3.584,1.351l-1.819.713c-.869.344-1.734.688-2.6,1.041-.869.353-1.743.722-2.727,1.139l-1.686.716c-1.286.553-2.58,1.131-3.988,1.763l-.386.175c-22.965,10.446-44.15,24.381-62.964,41.415l-.217.195c-1.108,1.007-2.183,2.002-3.356,3.105l-.527.496c-.956.905-1.929,1.842-2.894,2.786l-1.977,1.938c-.375.375-.733.742-1.086,1.106l-1.371,1.402c-.939.967-1.864,1.935-2.784,2.913l-.64.682c-.993,1.058-1.994,2.152-2.992,3.257l-.166.183c-21.476,23.879-37.819,51.237-48.567,81.309l-1.357,3.895c-.259.761-.522,1.526-.776,2.301l-.104.322c-2.087,6.393-3.92,12.897-5.451,19.33-.056.24-.107.479-.144.663-3.745,15.962-5.9,32.379-6.399,48.764l-.011.305c-.051,1.675-.079,3.359-.096,5.04l1.613.017-1.616.24-.017,1.994c0,.446.008.888.017,1.325l.034,2.809c.02,1.162.045,2.346.079,3.539l.051,1.337c1.035,28.6,6.952,56.46,17.64,82.97,1.658,4.101,3.458,8.226,5.353,12.262l.86,1.839c.251.527.505,1.043.804,1.641l.254.519c.485.987.984,2.002,1.5,3.02l.917,1.768c.584,1.131,1.182,2.267,1.796,3.407l.79,1.45c.694,1.269,1.39,2.513,2.095,3.751l.654,1.139c.798,1.385,1.613,2.761,2.439,4.126l1.072,1.782c.166.271.338.533.477.733,8.573,13.808,18.568,26.826,29.683,38.665.138.152.276.305.423.457l.22.228c1.692,1.788,3.204,3.348,4.758,4.907l.51.499c1.283,1.275,2.566,2.533,3.866,3.768.589.564,1.182,1.108,1.768,1.653l1.173,1.091c.479.446.956.891,1.441,1.331,1.007.914,2.028,1.808,3.046,2.705l1.379,1.21c1.207,1.046,2.437,2.078,3.666,3.099l.792.666c1.373,1.131,2.758,2.242,4.151,3.342l.406.324c1.393,1.091,2.896,2.248,4.524,3.469,9.476,7.09,19.527,13.537,29.996,19.217,1.692.917,3.319,1.777,4.952,2.614l.55.279c1.534.781,3.046,1.534,4.566,2.27l1.137.544c1.342.64,2.679,1.266,4.016,1.875l1.805.809c1.139.51,2.267,1.007,3.396,1.486.784.336,1.588.671,2.541,1.066.908.378,1.805.747,2.705,1.106,1.086.437,2.191.866,3.393,1.328l1.898.719c1.334.502,2.679.987,4.033,1.467l1.334.471c1.54.536,3.105,1.06,4.667,1.568l.742.24c1.729.558,3.48,1.1,5.231,1.619l.302.087c11.227,3.322,22.824,5.86,34.437,7.53l.217.034c1.842.265,3.7.513,5.567.736l.589.065c1.732.206,3.458.395,5.198.561l1.148.102c1.56.144,3.113.279,4.67.392l2.214.141c1.227.079,2.454.158,3.68.217.649.031,1.306.056,1.963.079l1.875.068c.711.028,1.424.056,2.138.073,2.008.051,4.053.076,6.072.076s4.067-.025,6.08-.076c.714-.017,1.427-.045,2.146-.073l1.562-.056c.759-.028,1.517-.054,2.273-.09,1.207-.059,2.417-.138,3.658-.217l2.236-.141c1.554-.113,3.111-.251,4.659-.392l1.17-.102c1.723-.166,3.452-.358,5.319-.575l.468-.054c1.85-.223,3.714-.471,5.759-.764,11.636-1.675,23.253-4.219,34.717-7.612,1.774-.527,3.539-1.074,5.302-1.641l.649-.209c1.599-.519,3.184-1.052,4.766-1.602l1.238-.437c1.385-.488,2.753-.984,4.12-1.495l1.895-.722c1.148-.44,2.276-.88,3.398-1.331.866-.347,1.737-.702,2.609-1.066.891-.369,1.765-.733,2.637-1.106,1.094-.468,2.197-.953,3.455-1.512l1.749-.79c1.3-.589,2.609-1.204,4.067-1.898l1.091-.525c1.475-.714,2.958-1.45,4.436-2.203l.682-.35c1.616-.829,3.238-1.686,4.851-2.558l.251-.135c10.288-5.59,20.28-11.994,29.863-19.163h-.003c.008-.003.011-.008.02-.011,1.537-1.153,2.992-2.27,4.442-3.407l.499-.398c1.348-1.066,2.688-2.141,4.024-3.246l.933-.776c1.196-.996,2.372-1.983,3.537-2.992l1.816-1.599c.871-.764,1.746-1.531,2.603-2.313.533-.482,1.063-.979,1.593-1.472l1.551-1.438c.412-.384.824-.764,1.23-1.153,2.93-2.789,5.832-5.688,8.624-8.621.406-.426.815-.869,1.348-1.444l1.038-1.12c.567-.604,1.131-1.21,1.686-1.822.756-.835,1.506-1.684,2.251-2.535l1.67-1.892c.981-1.139,1.957-2.301,2.927-3.46l.843-1.01c1.08-1.311,2.143-2.637,3.308-4.112l.358-.451c1.114-1.416,2.236-2.885,3.345-4.363l.203-.274c7.008-9.366,13.402-19.341,19-29.646l.107-.2c.9-1.658,1.746-3.263,2.575-4.879l.35-.685c.759-1.489,1.489-2.956,2.205-4.433l.615-1.286c.612-1.286,1.218-2.575,1.805-3.869.285-.618.573-1.266.863-1.915.499-1.125.973-2.203,1.433-3.277.375-.874.75-1.777,1.125-2.682.358-.869.711-1.72,1.052-2.575.451-1.125.9-2.273,1.342-3.427l.708-1.87c.513-1.359,1.015-2.753,1.512-4.154l.417-1.19c.553-1.585,1.094-3.19,1.616-4.806l.203-.629c.556-1.723,1.097-3.474,1.65-5.327l.042-.138c3.345-11.295,5.891-22.937,7.583-34.705.271-1.875.519-3.757.745-5.649l.062-.525c.206-1.746.398-3.494.567-5.26l.093-1.043c.147-1.613.285-3.19.398-4.766l.135-2.132c.082-1.255.164-2.507.223-3.768.034-.702.059-1.407.082-2.11l.059-1.531c.031-.773.059-1.545.079-2.321.045-1.881.071-3.804.073-5.68l.006-.409-.006-.355ZM432.742,471.073l-.017.008c-.203-.327-.392-.654-.589-.981-.133-.214-.259-.434-.392-.649-.761-1.263-1.512-2.53-2.248-3.802-.203-.353-.403-.705-.604-1.055-.649-1.139-1.289-2.282-1.915-3.427-.245-.451-.494-.9-.736-1.351-.561-1.043-1.111-2.09-1.655-3.139-.279-.539-.564-1.077-.84-1.622-.471-.931-.931-1.864-1.39-2.8-.322-.654-.649-1.306-.965-1.963-.268-.564-.527-1.131-.792-1.698-1.74-3.709-3.381-7.471-4.924-11.284-.02-.051-.039-.099-.059-.147-9.546-23.673-15.198-49.331-16.171-76.185-.014-.42-.034-.838-.048-1.258-.031-1.089-.054-2.177-.071-3.271-.011-.677-.02-1.357-.025-2.036-.006-.587-.025-1.17-.025-1.76,0-.62.011-1.241.017-1.861,0-.045,0-.09.003-.133.014-1.579.042-3.153.087-4.724h.003c.454-15.381,2.468-30.723,6.041-45.772l-.008-.006c1.435-6.038,3.119-11.983,5.028-17.826.028-.087.056-.178.085-.265.282-.86.578-1.718.871-2.572.234-.685.463-1.373.702-2.059.124-.353.257-.705.386-1.06,9.623-26.922,24.513-52.382,44.666-74.786.059-.068.118-.135.178-.2.917-1.012,1.842-2.019,2.775-3.02.192-.206.381-.409.572-.612.846-.897,1.701-1.791,2.564-2.676.271-.282.544-.561.818-.84.482-.488.953-.984,1.438-1.469.361-.358.725-.705,1.083-1.06.248-.245.499-.485.747-.73.888-.869,1.782-1.732,2.682-2.583.189-.18.378-.355.57-.536.984-.925,1.974-1.842,2.97-2.747l.22-.195c17.66-15.991,37.235-28.698,57.941-38.118.152-.068.305-.133.454-.203,1.19-.536,2.383-1.069,3.582-1.585.51-.22,1.024-.434,1.537-.651.838-.353,1.675-.708,2.516-1.052.823-.336,1.65-.66,2.473-.987.533-.212,1.063-.423,1.599-.629,1.086-.42,2.183-.832,3.28-1.235.268-.099.533-.197.801-.296,1.311-.479,2.631-.945,3.957-1.399.045-.017.093-.031.138-.048,19.434-6.661,40.061-10.748,61.477-11.853.226-.011.448-.025.674-.037,1.162-.056,2.324-.102,3.489-.141.443-.014.886-.031,1.325-.042,1.049-.028,2.101-.048,3.153-.065.539-.006,1.077-.014,1.616-.017.536-.003,1.066-.017,1.602-.017.505,0,1.004.011,1.506.017.471.003.939.008,1.407.014,1.111.014,2.222.034,3.331.065.344.008.685.02,1.029.031,1.255.039,2.507.087,3.759.147.11.006.226.014.338.02,26.298,1.303,51.412,7.093,74.594,16.631.006.003.008.003.011.006,1.193.491,2.38.993,3.562,1.506.293.124.587.248.88.375.897.392,1.791.795,2.685,1.199.57.259,1.139.513,1.706.776.615.282,1.224.575,1.836.866.832.392,1.667.787,2.493,1.19.338.164.674.333,1.01.502,1.089.536,2.174,1.08,3.255,1.636.059.031.118.062.178.093,2.431,1.252,4.845,2.544,7.237,3.889l-.02.008c15.066,8.489,29.059,18.653,41.73,30.241l.003-.003c.158.147.316.296.474.44.902.832,1.802,1.67,2.693,2.516.499.474.993.95,1.489,1.43.558.539,1.114,1.08,1.667,1.627.344.336.691.666,1.032,1.007.307.307.604.623.908.931.578.584,1.151,1.173,1.72,1.765.651.674,1.309,1.345,1.949,2.025.24.254.471.51.711.764,1.678,1.796,3.322,3.613,4.933,5.446.192.22.386.437.578.657.888,1.021,1.763,2.05,2.631,3.082.113.133.223.268.336.4,14.659,17.539,26.245,36.773,34.759,56.996.166.398.336.795.502,1.196.412.996.815,1.994,1.213,2.992.262.657.519,1.317.776,1.977.319.826.64,1.653.95,2.485.386,1.038.761,2.084,1.137,3.13.175.488.355.973.525,1.464,1.162,3.317,2.239,6.673,3.246,10.06.042.149.085.296.127.443.296,1.007.598,2.011.88,3.023l-.025-.011c5.544,19.849,8.342,40.301,8.37,60.761,0,.099.003.197.003.296,0,.062-.003.121-.003.181,0,1.802-.023,3.607-.068,5.409-.025.948-.068,1.892-.102,2.837-.034.888-.059,1.78-.102,2.668-.059,1.252-.144,2.499-.226,3.748-.037.558-.065,1.12-.104,1.678-.107,1.461-.234,2.913-.367,4.366-.031.333-.056.666-.087.998-.155,1.616-.333,3.226-.522,4.831-.02.164-.034.327-.056.488-.209,1.74-.437,3.472-.685,5.198-.006.028-.008.059-.011.087-1.568,10.883-3.909,21.512-6.966,31.837-.011.039-.025.079-.037.116-.488,1.653-.996,3.294-1.523,4.93-.059.183-.121.369-.18.553-.482,1.483-.976,2.961-1.489,4.433-.127.364-.254.725-.384,1.089-.454,1.283-.917,2.564-1.393,3.835-.214.57-.431,1.137-.649,1.703-.406,1.06-.818,2.121-1.241,3.173-.313.784-.635,1.565-.959,2.346-.344.829-.688,1.655-1.041,2.479-.426.996-.863,1.988-1.303,2.978-.268.604-.536,1.207-.812,1.808-.541,1.19-1.097,2.375-1.661,3.556-.189.395-.375.79-.564,1.182-.657,1.357-1.328,2.705-2.014,4.05-.113.22-.223.44-.336.657-.761,1.483-1.54,2.961-2.338,4.431-.042.079-.085.161-.13.243-5.122,9.428-10.965,18.568-17.528,27.339-.045.062-.09.124-.138.186-1.018,1.357-2.053,2.707-3.105,4.05-.133.169-.268.336-.403.505-.97,1.23-1.949,2.451-2.95,3.663-.254.307-.51.609-.764.917-.897,1.074-1.794,2.146-2.713,3.207-.409.474-.832.942-1.247,1.416-.781.888-1.562,1.78-2.361,2.659-.66.728-1.334,1.444-2.005,2.163-.581.626-1.153,1.255-1.746,1.875-2.58,2.71-5.226,5.358-7.936,7.936-.623.592-1.255,1.168-1.881,1.751-.716.668-1.43,1.34-2.155,2-.891.807-1.794,1.596-2.696,2.389-.46.403-.911.812-1.373,1.213-1.077.931-2.163,1.842-3.249,2.747-.293.243-.581.488-.871.728-1.227,1.012-2.465,2.005-3.706,2.987-.155.121-.307.245-.463.367-1.354,1.06-2.716,2.104-4.086,3.133-.051.037-.099.073-.147.11-8.785,6.571-17.936,12.42-27.376,17.547-.065.037-.13.071-.192.104-1.486.807-2.981,1.593-4.478,2.363-.203.104-.406.206-.606.31-1.362.691-2.73,1.373-4.101,2.036-.375.183-.753.361-1.131.541-1.199.572-2.406,1.137-3.613,1.686-.578.265-1.162.525-1.743.784-1.012.448-2.025.894-3.04,1.328-.804.344-1.61.682-2.42,1.015-.801.333-1.602.663-2.406.984-1.035.415-2.076.821-3.116,1.218-.587.226-1.173.451-1.757.671-1.255.468-2.516.922-3.776,1.371-.386.135-.77.274-1.156.406-1.452.505-2.908.996-4.371,1.469-.203.068-.406.133-.612.2-1.616.519-3.24,1.021-4.873,1.506-.056.017-.116.034-.172.051-10.311,3.054-20.929,5.392-31.795,6.957-.045.006-.093.011-.138.02-1.709.243-3.427.471-5.147.68-.183.02-.364.039-.547.062-1.585.186-3.176.361-4.775.513-.355.034-.711.062-1.063.096-1.43.13-2.862.257-4.301.358-.587.042-1.173.073-1.76.113-1.221.079-2.442.161-3.672.22-.925.045-1.85.071-2.778.104-.908.034-1.816.076-2.727.099-1.867.045-3.734.068-5.601.068s-3.731-.023-5.595-.068c-.908-.023-1.813-.065-2.719-.099-.928-.034-1.859-.059-2.786-.104-1.227-.059-2.448-.141-3.672-.22-.584-.039-1.17-.071-1.757-.113-1.435-.102-2.865-.228-4.295-.358-.358-.034-.716-.062-1.074-.096-1.593-.152-3.181-.327-4.766-.513-.183-.023-.367-.042-.553-.062-1.718-.209-3.429-.434-5.136-.68-.051-.008-.102-.014-.152-.02-10.858-1.565-21.465-3.9-31.767-6.949-.076-.023-.149-.045-.226-.068-1.613-.479-3.223-.976-4.823-1.492-.22-.07-.443-.144-.666-.214-1.444-.471-2.885-.953-4.318-1.452-.403-.141-.804-.282-1.207-.426-1.244-.44-2.487-.888-3.72-1.351-.609-.228-1.216-.46-1.822-.694-1.021-.392-2.036-.787-3.051-1.193-.826-.33-1.65-.668-2.473-1.01-.784-.327-1.571-.654-2.352-.99-1.038-.443-2.073-.9-3.108-1.359-.558-.248-1.117-.496-1.672-.75-1.232-.561-2.462-1.137-3.689-1.723-.35-.166-.702-.333-1.052-.505-1.399-.674-2.792-1.368-4.18-2.076-.175-.087-.35-.178-.525-.268-1.529-.781-3.049-1.585-4.563-2.406-.034-.02-.068-.037-.102-.056-9.467-5.141-18.647-11.004-27.455-17.598-.008-.006-.017-.014-.028-.023-1.41-1.055-2.809-2.126-4.199-3.218-.113-.09-.226-.18-.338-.271-1.286-1.012-2.561-2.039-3.827-3.082-.243-.2-.482-.403-.722-.604-1.137-.945-2.27-1.898-3.393-2.868-.4-.347-.795-.702-1.193-1.052-.965-.846-1.926-1.689-2.879-2.555-.623-.564-1.235-1.142-1.85-1.715-.73-.677-1.461-1.345-2.186-2.031-1.196-1.142-2.377-2.298-3.551-3.466-.147-.144-.296-.282-.443-.429-.028-.028-.054-.059-.082-.087-1.483-1.483-2.941-2.995-4.383-4.518-.068-.076-.141-.147-.212-.22l.006-.003c-10.553-11.196-19.978-23.47-28.089-36.64" fill="#fff"/><path d="M625.387,578.766c-2.248,0-4.484-.039-6.718-.104l46.209-126.996h63.593c11.162,0,23.416-8.582,27.232-19.065l50.135-137.705c8.201-22.545-4.713-40.989-28.701-40.989h-88.224l-74.027,203.412h-.025l-41.967,115.309c-99.559-23.673-173.614-113.169-173.614-219.972,0-103.724,69.842-191.125,165.063-217.764l-43.301,119.015h-.014l-71.983,197.758,47.921.003,61.218-168.044h36.014l-61.218,168.044,47.901.008,57.05-156.78c8.207-22.545-4.707-40.989-28.673-40.989h-40.284l46.254-127.126c3.37-.149,6.757-.237,10.161-.237,124.878,0,226.112,101.234,226.112,226.112s-101.234,226.109-226.112,226.109M762.198,283.503h-36.005l-50.419,138.345h36.005l50.419-138.345Z" fill="#024ad7"/></g></g></svg>