<svg id="LOGO" xmlns="http://www.w3.org/2000/svg" viewBox="0 0 1250 703"><defs><style>.cls-1{fill:#231f20;}</style></defs><path class="cls-1" d="M846.1738,206.93282a48.1992,48.1992,0,1,1,0,96.3984c-.48114,0-.95649-.00808-1.4318-.02312l9.85021-27.06988H868.148a6.6438,6.6438,0,0,0,5.80464-4.06753L884.63785,242.819c1.74984-4.80425-1.00272-8.7353-6.11808-8.7353h-18.803L834.9843,302.02318a48.20986,48.20986,0,0,1-1.82269-93.30813L808.5829,276.23822h10.21569l13.04572-35.82253h7.68054l-13.04918,35.82253,10.21106.00231L848.84539,242.819c1.751-4.80425-1.00272-8.7353-6.11116-8.7353h-8.5861l9.85946-27.09879c.71821-.03123,1.43872-.05206,2.16621-.05206M875.33736,240.392h-7.67709l-10.74768,29.48935h7.67705Zm-90.83375-33.42514H448.05121a1.28379,1.28379,0,0,0-1.28373,1.28375v38.73355a1.28526,1.28526,0,0,0,1.28373,1.28374H576.7609a10.32434,10.32434,0,0,1,7.30005,17.62561L356.00485,493.8767a1.28316,1.28316,0,0,0,.90788,2.19048H755.33345a1.28378,1.28378,0,0,0,1.2849-1.28259v-38.7347a1.28378,1.28378,0,0,0-1.2849-1.28259h-190.678a10.325,10.325,0,0,1-7.30006-17.62675L785.41146,209.15616a1.28245,1.28245,0,0,0-.90785-2.18933"/></svg>