<?xml version="1.0" encoding="UTF-8"?><svg id="LOGO" xmlns="http://www.w3.org/2000/svg" viewBox="0 0 1250 703"><defs><style>.cls-1{fill:#1f1917;}.cls-1,.cls-2,.cls-3,.cls-4,.cls-5,.cls-6{stroke-width:0px;}.cls-2{fill:#bda345;}.cls-3{fill:#fff;}.cls-4{fill:#781f19;}.cls-5{fill:#d9261c;}.cls-6{fill:#d6a64f;}</style></defs><path class="cls-4" d="m848.24275,351.80141c0,123.27899-99.9196,223.19859-223.19859,223.19859s-223.19859-99.9196-223.19859-223.19859,99.91959-223.19859,223.19859-223.19859,223.19859,99.91959,223.19859,223.19859"/><path class="cls-6" d="m797.24339,351.80141c0,95.14985-77.17169,172.19923-172.19925,172.19923-95.14987,0-172.19925-77.17169-172.19925-172.19925,0-95.14987,77.17169-172.19925,172.19925-172.19925,95.14987.00002,172.19925,77.0494,172.19925,172.19927"/><path class="cls-3" d="m797.24339,351.80141h-.6115c0,47.45262-19.20121,90.38014-50.26555,121.44448s-73.99186,50.26555-121.4445,50.26555-90.38015-19.20121-121.4445-50.26555c-31.06435-31.06434-50.26554-73.99186-50.26554-121.4445s19.20119-90.38015,50.26554-121.4445c31.06434-31.06435,73.99186-50.26554,121.4445-50.26554s90.38015,19.20119,121.4445,50.26554c31.06434,31.06434,50.26555,73.99186,50.26555,121.4445h1.22301c0-95.39447-77.41626-172.81075-172.81075-172.81075s-172.81075,77.41628-172.81075,172.81075,77.41628,172.81075,172.81075,172.81075,172.81075-77.41626,172.81075-172.81075h-.6115v.00002Z"/><polyline class="cls-3" points="475.83743 500.02975 494.42712 481.07315 498.70764 485.35368 480.11795 504.18796 475.83743 500.02975"/><path class="cls-3" d="m488.92359,475.81421l-20.5465,16.63289-4.40282-5.50353,4.03592-10.39555c1.22301-2.93521,2.81292-6.23734,4.28052-9.05024v-.12231c-2.44601,2.44601-5.25893,4.76972-8.31644,7.33804l-5.99273,4.89202-3.42442-4.28052,20.5465-16.63289,3.91362,4.89202-4.40282,10.88475c-1.22301,3.05751-2.81292,6.48192-4.40282,9.41716l.1223.12231c2.69061-2.3237,5.50353-4.76972,8.80565-7.46034l6.23734-5.01433,3.54671,4.28052"/><path class="cls-3" d="m463.97427,449.64189c-.1223-.48919-.6115-1.22301-.97841-1.83451-2.69061-4.76972-7.09344-6.35965-12.59697-3.17982-4.89202,2.8129-5.74812,6.97115-3.17981,11.49625.6115,1.1007,1.22301,1.83451,1.58991,2.2014l15.16528-8.68331h0Zm-15.77678,15.89908c-1.4676-1.7122-3.05751-4.15821-4.52512-6.72653-2.56831-4.40283-3.42442-7.70492-3.05751-10.76244.36691-3.4244,2.44601-6.60422,6.48194-8.92793,4.40282-2.56832,8.31644-2.69063,11.49626-1.58989,3.42442,1.22301,6.48194,4.40283,9.05025,8.92793,1.58991,2.69063,2.44601,4.76972,3.05751,6.11503l-22.50332,12.96383"/><polyline class="cls-3" points="430.2193 431.17449 454.55712 420.77894 456.88084 426.28246 432.54301 436.67801 430.2193 431.17449"/><path class="cls-3" d="m437.19044,404.63528l-4.89202,3.17982c-1.3453.85612-3.17981,1.83451-4.52512,2.69063v.12231c1.58991-.12231,3.66902-.24462,5.25893-.36689h5.87043l-1.71222-5.62587h0Zm6.23733,5.1366l7.09344-.12231,1.71221,5.99272-27.76224-.24458-2.20141-7.46034,23.11482-15.40988,1.83451,6.23734-5.99273,3.91363,2.20141,7.09342"/><path class="cls-3" d="m444.16157,386.65708l-26.29463,3.4244-.8561-6.97115,8.92795-6.72653c2.56831-1.95682,5.62583-3.91363,8.43874-5.50353v-.12231c-3.42442.85612-6.97113,1.34531-10.88476,1.95682l-7.58263.97839-.7338-5.50353,26.29463-3.4244.8561,6.23734-9.41714,6.97115c-2.69061,1.95682-5.74812,4.15821-8.68334,5.74814v.12231c3.42442-.6115,7.21574-1.22301,11.49626-1.7122l7.94954-.97839.48919,5.50349"/><polyline class="cls-3" points="415.05403 339.93825 441.47096 341.03895 441.22636 347.03169 414.80943 345.93097 415.05403 339.93825"/><path class="cls-3" d="m441.83786,333.45632l-26.17233-4.15821,1.10071-6.84884,10.39555-3.91362c3.05751-1.1007,6.48194-2.07911,9.66175-2.81292v-.12231c-3.54672-.2446-7.09344-.6115-11.00705-1.22301l-7.58263-1.22301.8561-5.38122,26.17233,4.15821-.97841,6.23734-11.00705,4.03592c-3.05751,1.1007-6.72653,2.3237-9.90635,3.05751v.12231c3.54672.36691,7.21574.8561,11.49626,1.58991l7.82724,1.22301-.85611,5.25891"/><path class="cls-3" d="m441.47096,302.39197c1.22301-1.22301,2.81292-3.42442,3.54672-5.87043.8561-2.56832.1223-4.40283-1.4676-4.89202-1.58991-.48919-2.81292.36691-4.89202,3.17982-2.81292,3.66902-5.99273,5.74812-9.66175,4.64743-4.28052-1.34531-6.48194-5.99272-4.52512-11.98546.8561-2.93521,2.07911-4.76972,3.30211-5.99272l4.15822,2.69061c-.7338.8561-2.07911,2.44601-2.81292,4.89202-.7338,2.44601,0,4.03592,1.3453,4.40283,1.58991.48919,2.81292-.6115,5.01432-3.54671,3.05751-3.91362,5.99273-5.25893,9.66175-4.15821,4.28052,1.34531,6.84883,5.62584,4.64743,12.59697-.8561,2.93521-2.56831,5.50353-3.79132,6.72653l-4.52513-2.69065"/><polyline class="cls-3" points="437.43504 268.3924 434.37752 274.87434 429.8524 272.79521 438.41345 254.32783 442.93857 256.40694 439.88105 263.01116 459.32685 272.06142 456.88084 277.44264 437.43504 268.3924"/><polyline class="cls-3" points="445.62918 241.97546 468.37709 255.55084 465.31958 260.68746 442.57167 247.11209 445.62918 241.97546"/><polyline class="cls-3" points="458.22614 232.19142 453.94562 237.93954 449.90971 234.88203 462.01746 218.49375 466.05338 221.55127 461.77286 227.29939 479.01725 240.14095 475.47052 244.91069 458.22614 232.19142"/><path class="cls-3" d="m472.29071,207.2421l10.76245,10.76246c3.30211,3.17982,6.11503,3.66902,8.31644,1.4676s1.83451-5.01433-1.4676-8.31644l-10.76246-10.76246,4.15821-4.28052,10.51786,10.51786c5.74812,5.74812,5.62584,11.37396.8561,16.38827-4.64743,4.76972-10.15095,4.89202-16.02139-1.1007l-10.51785-10.39555,4.15823-4.28052"/><polyline class="cls-3" points="499.07454 189.63081 493.44871 193.91133 490.39119 189.99771 506.65718 177.64535 509.71469 181.68127 503.84426 186.08409 516.80813 203.20618 512.03841 206.75289 499.07454 189.63081"/><polyline class="cls-3" points="535.39782 178.37915 526.95908 183.14888 530.13889 188.6524 539.55605 183.27118 542.00206 187.5517 527.32599 195.86814 514.23981 172.87562 528.42669 164.80379 530.75039 169.08431 521.82246 174.22094 524.51307 178.99065 533.07411 174.09863 535.39782 178.37915"/><path class="cls-3" d="m566.82907,172.87562c3.79133-1.22301,4.89202-5.62583,3.30211-10.51785-1.4676-4.52512-4.89202-7.70494-8.80564-6.48194s-4.89202,5.74812-3.30211,10.51785c1.4676,4.76973,5.01433,7.70494,8.80564,6.48194h0Zm1.22301,4.52513c-7.46034,2.44601-13.69766-1.83451-16.02139-8.92795-2.44601-7.58263.6115-14.79837,7.94954-17.12208,7.70494-2.56831,13.81997,1.95681,16.14368,8.80564,2.69063,8.31644-.61148,14.92068-8.07183,17.24439h0"/><polyline class="cls-3" points="582.23895 145.7249 598.13803 143.03429 598.87184 147.92631 588.84317 149.63851 589.94389 155.50894 599.23873 153.91903 600.09485 158.81106 590.67768 160.40097 592.51219 170.91882 586.64178 171.89723 582.23895 145.7249"/><polyline class="cls-3" points="625.16647 146.4587 618.07303 146.3364 618.07303 141.32208 638.49723 141.68897 638.37492 146.7033 631.15919 146.581 630.79228 168.10591 624.79956 167.9836 625.16647 146.4587"/><polyline class="cls-3" points="660.75595 159.91176 651.09417 158.56646 650.23809 164.68149 661.00053 166.2714 660.26672 171.16342 643.63387 168.71741 647.42515 142.54508 663.56885 144.8688 662.83504 149.76082 652.56179 148.29321 651.82798 153.67443 661.48972 155.01974 660.75595 159.91176"/><path class="cls-3" d="m685.46065,177.15615c-1.1007.2446-3.79133.1223-6.84884-.7338-8.80566-2.44601-11.74087-9.29484-9.66174-16.63288,2.44601-8.68334,10.02866-11.74086,17.73359-9.53945,2.93521.8561,5.13664,2.07911,5.99272,2.93522l-2.44601,4.15822c-.97839-.8561-2.44601-1.71221-4.52514-2.32371-4.52514-1.3453-8.92793.4892-10.51786,6.11503-1.46762,5.13662.6115,9.17254,5.74814,10.64015,1.83451.4892,3.79133.7338,5.13664.4892l-.6115,4.89202"/><polyline class="cls-3" points="707.71937 158.32186 703.56116 167.6167 712.48909 171.77493 716.76961 162.48007 722.15083 164.92609 711.14377 189.01931 705.76256 186.5733 710.28769 176.54464 701.35973 172.38643 696.71232 182.41508 691.3311 179.96906 702.33815 155.87585 707.71937 158.32186"/><path class="cls-3" d="m717.87031,192.68833l14.67607-22.01411,5.87041,3.91362-.85612,11.12935c-.24462,3.17981-.85612,6.84883-1.46762,9.90635h.12231c1.58989-3.05751,3.54671-6.11503,5.74814-9.53945l4.28052-6.35963,4.52514,3.05751-14.67607,22.0141-5.25891-3.54672.97839-11.61856c.24462-3.30211.73381-7.09344,1.34531-10.27325l-.12231-.1223c-1.83451,3.05751-3.79133,6.23733-6.23734,9.78405l-4.40283,6.60423-4.5251-2.9352"/><path class="cls-3" d="m753.45979,214.33554c2.93521,2.81292,7.21573,1.58991,10.76244-2.20141,3.30213-3.42442,4.40283-7.94954,1.34531-10.76246s-7.46034-1.4676-10.88475,2.20141c-3.30213,3.42442-4.28052,7.94954-1.22301,10.76246h0Zm-3.54671,3.1798c-5.74814-5.38122-5.01433-12.84156.12231-18.34509,5.38122-5.74812,13.20845-6.60423,18.83428-1.3453,5.99272,5.50354,5.01433,13.08617,0,18.3451-5.87045,6.48192-13.20849,6.72653-18.95659,1.3453h0"/><polyline class="cls-3" points="784.52413 214.45783 788.19315 219.10526 771.43799 232.55832 778.04222 240.75246 774.12858 243.93228 763.85534 231.09072 784.52413 214.45783"/><path class="cls-3" d="m786.48095,255.06162c2.07913,3.42442,6.60422,3.54671,11.00705.8561,4.0359-2.44601,6.48192-6.48194,4.28052-10.02865-2.07913-3.54671-6.72653-3.42442-11.00705-.8561s-6.35965,6.60424-4.28052,10.02865h0Zm-4.28052,2.32372c-4.0359-6.72653-1.34531-13.69766,5.13664-17.61128,6.84884-4.03592,14.55376-2.81292,18.58971,3.91362,4.15821,6.97113,1.22301,13.94226-5.01433,17.73359-7.46034,4.40281-14.67611,2.5683-18.71201-4.03592h0"/><path class="cls-3" d="m801.27933,294.07553c-1.22301-1.4676-3.30213-4.40283-4.64741-7.70494-1.83451-4.52512-1.95682-8.19414-.73381-11.37396,1.22301-3.05751,4.0359-5.62584,7.58265-7.09344,8.19416-3.17982,15.28757.8561,18.4674,8.92795,1.22301,3.17982,1.58989,5.87043,1.58989,7.33804l-5.01433.6115c.12231-1.58991-.12231-3.42442-1.22301-6.11503-1.83451-4.64743-5.87041-7.09344-11.25167-5.01433-5.13664,2.07911-6.84884,6.35963-5.01433,11.00705.48919,1.22301,1.1007,2.20141,1.34531,2.56832l5.13664-2.07911-1.46762-3.79133,4.40283-1.7122,3.66902,9.17254-12.84156,5.25893"/><path class="cls-3" d="m803.48073,307.284l10.51786-2.44601,13.33076-11.61856,1.58989,6.72653-5.62584,4.03592c-1.7122,1.22301-2.93521,2.07911-4.52514,3.17982v.12231c1.7122.2446,3.4244.48919,5.38122.8561l6.84884,1.22301,1.46762,6.60422-16.99978-5.01433-10.76244,2.44601-1.22301-6.11503"/><path class="cls-3" d="m819.13523,359.38406c3.17982-.12231,6.97115-.36691,10.88475-.36691v-.12231c-3.4244-.8561-7.21573-1.83451-10.27324-2.81292l-10.39555-3.05751-.12231-4.64743,10.15093-2.93521c3.17982-.8561,6.84884-1.83451,10.39555-2.56832v-.12231c-3.54671-.12231-7.70492-.12231-11.00705-.2446l-10.02866-.36691-.12231-5.50353,26.53925,1.22301.12231,7.94954-8.80566,2.69061c-3.05751.8561-6.35965,1.7122-9.41716,2.44601v.12231c3.05751.6115,6.60422,1.4676,9.53943,2.3237l8.80566,2.69061.12231,7.82725-26.41694,1.83451-.12231-5.87041,10.15101-.48919"/><path class="cls-3" d="m816.93379,387.26858l5.87041-.73381c1.58989-.12231,3.66902-.24462,5.25891-.36689v-.12231c-1.46762-.6115-3.4244-1.34531-4.89202-1.95682l-5.25891-2.56832-.97839,5.74814h0Zm-3.30209-7.33804l-6.35965-2.93521,1.1007-6.11503,24.70474,12.47468-1.34531,7.58261-27.51763,3.66902,1.1007-6.35965,7.09342-.85612,1.22304-7.46031"/><path class="cls-3" d="m805.07066,407.44818c-.24462.48919-.6115,1.22301-.73381,1.95682-1.83451,5.13664-.12231,9.53943,5.87041,11.49625,5.38122,1.83451,9.05024-.36689,10.64017-5.25891.36689-1.22301.6115-2.07913.6115-2.69063l-16.38827-5.50353h0Zm22.38099,1.34531c-.36689,2.2014-1.1007,5.01433-2.07913,7.82723-1.58989,4.76972-3.4244,7.70492-6.11503,9.41716-2.8129,1.95682-6.48192,2.56832-11.00705.97839-4.76972-1.58989-7.46034-4.52514-8.80566-7.58265-1.34531-3.4244-.97839-7.82723.73381-12.71925.97839-2.93521,1.95682-5.01433,2.56832-6.35965l24.70474,8.43877"/><path class="cls-3" d="m802.86922,440.34703l-1.1007,2.07913c-1.34531,2.69063-.85612,4.89202,1.22301,5.99272s4.0359.24462,5.25891-2.2014c.6115-1.34531.97839-2.07913,1.1007-2.44601l-6.48192-3.42444h0Zm12.71925,0c-.6115,1.83451-1.7122,4.52514-3.17982,7.33804-1.83451,3.54671-3.54671,5.62584-5.87041,6.60422-1.83451.85612-3.91363.73381-6.11503-.36689-2.93521-1.58989-3.91363-4.76972-3.54671-7.09342h-.12231c-1.46762,1.34531-3.54671,1.34531-5.99272.85612-3.05751-.6115-6.48192-1.58989-7.58265-1.58989l2.8129-5.38122c.85612,0,3.05751.36689,6.35965,1.22301,3.30213.85612,4.64741.24462,5.74814-1.95682l.85612-1.58989-9.29485-4.76972,2.69063-5.25891,23.23708,11.98537"/><path class="cls-3" d="m781.71124,468.23159l5.50353,1.95682c1.46762.6115,3.4244,1.34531,4.89202,1.95682l.12231-.12231c-1.1007-1.22301-2.44601-2.69063-3.4244-3.91363l-3.66902-4.64741-3.42444,4.76972Zm.24458-8.07185l-4.40283-5.50353,3.66902-5.01433,16.7552,22.13642-4.64741,6.35965-26.29463-8.80566,3.79133-5.25891,6.72653,2.3237,4.40279-6.23734"/><path class="cls-3" d="m767.27974,477.89333c-1.7122.6115-4.0359,1.83451-5.74814,3.66902-1.95682,1.95682-2.07913,3.79133-.85612,5.01433,1.1007,1.1007,2.69063.85612,5.74814-.6115,4.15821-2.07913,7.94954-2.44601,10.76244.24462,3.30213,3.17982,3.05751,8.19416-1.22301,12.71925-2.07913,2.2014-4.0359,3.30213-5.62584,3.91363l-2.56832-4.28052c1.1007-.36689,2.93521-1.22301,4.76972-3.05751s1.83451-3.66902.85612-4.52514c-1.22301-1.22301-2.8129-.6115-6.11503.97839-4.52514,2.2014-7.70492,2.07913-10.51786-.6115-3.17982-3.05751-3.54671-8.07185,1.46762-13.33076,2.07913-2.2014,4.76972-3.79133,6.35965-4.28052l2.69063,4.15821"/><path class="cls-3" d="m749.79077,509.56918c0,2.2014-1.7122,3.91363-3.91363,3.91363s-3.91363-1.7122-3.91363-3.91363,1.7122-3.91363,3.91363-3.91363c2.07913,0,3.91363,1.71224,3.91363,3.91363"/><path class="cls-3" d="m508.12478,509.56918c0,2.2014-1.7122,3.91363-3.91362,3.91363s-3.91362-1.7122-3.91362-3.91363,1.7122-3.91363,3.91362-3.91363,3.91362,1.71224,3.91362,3.91363"/><polyline class="cls-3" points="531.36189 457.22454 593.97982 468.47617 587.25328 476.3034 648.64816 481.56235 642.53313 486.57668 703.19424 489.26727 622.96505 497.21681 632.9937 488.28888 569.39739 481.80693 580.03754 473.9797 531.36189 457.22454"/><path class="cls-3" d="m524.14617,511.6483l5.50353,3.17982c0-1.1007.12231-2.07913.36691-3.05751s.6115-1.83451,1.1007-2.69063c.73381-1.34531,1.95682-2.07913,3.54671-2.44601,1.58991-.36689,3.05751,0,4.52512.85612,1.83451,1.1007,3.30211,2.93521,4.52512,5.74814,1.22301,2.8129,1.95682,6.11503,2.20141,9.90636l-1.1007.12231c-.2446-2.8129-.97841-5.25891-2.07911-7.46034-1.1007-2.2014-2.69061-3.79133-4.52512-4.89202-.97841-.6115-2.20141-.6115-3.42442-.12231s-2.3237,1.34531-3.05751,2.69063c-.6115.97839-.8561,1.58989-.97841,2.07913l2.20141,1.22301.36691,3.4244-2.93521-1.7122-10.15095,17.3667-1.95682-3.79133,9.05024-15.40988-2.81292-1.58989-.36689-3.42448"/><path class="cls-3" d="m538.45533,526.07976c-.2446,1.1007-.73381,2.2014-1.22301,3.4244.36691.85612.8561,1.58989,1.34531,2.07913.48919.6115.97841.97839,1.58991,1.34531.6115.24462,1.22301.48919,1.95682.36689.73381,0,1.4676-.12231,2.07911-.48919l2.81292-5.74814-8.19414-4.0359c-.00002.97839-.00002,1.95682-.36692,3.05751h0Zm.73381,16.99978l3.17982-6.60422c-.2446,0-.6115,0-.97841-.12231s-.8561-.36689-1.4676-.6115c-.8561-.36689-1.58991-1.1007-2.3237-2.07913-.6115-.97839-1.1007-2.07913-1.4676-3.30213-.73381.73381-1.58991,1.34531-2.44601,1.7122s-1.7122.48919-2.56832.36689c.6115,3.17982,1.83451,6.35965,3.66902,9.66174l-2.20141.97839c-3.30211-9.29485-4.40283-14.92069-3.54671-16.87747.2446-.48919.6115-.85612,1.1007-1.1007.48919-.24462.8561-.24462,1.22301,0,.48919.24462.73381.6115.97841,1.1007s.36691,1.1007.36691,1.83451c.73381,0,1.4676-.24462,2.20141-.6115.6115-.36689,1.1007-.97839,1.4676-1.7122.2446-.6115.48919-1.22301.6115-1.83451s.12231-1.1007,0-1.7122l-6.11503-2.93521-.6115-3.30213,22.25871,10.76244.6115,3.30213-3.05751-1.46762-8.80564,18.10047-2.07913-3.54664"/><path class="cls-3" d="m550.31849,525.59057l5.99272,2.3237c-.12231-.97839-.2446-2.07913-.12231-3.05751.12231-.97839.36691-1.95682.6115-2.8129.6115-1.46762,1.58991-2.44601,3.05751-2.93521s3.05751-.48919,4.64743.12231c1.95682.73381,3.79133,2.44601,5.38122,4.89202,1.58991,2.56832,2.81292,5.62584,3.79133,9.41716l-1.1007.36689c-.73381-2.69063-1.7122-5.01433-3.17982-6.97115-1.4676-1.95682-3.17982-3.30213-5.13662-4.0359-1.1007-.48919-2.20141-.36689-3.42442.36689-1.22301.73381-2.07911,1.7122-2.56832,3.17982-.36691.97839-.6115,1.7122-.6115,2.2014l2.3237.85612.8561,3.30213-3.17982-1.22301-7.33804,18.71198-2.56832-3.4244,6.48194-16.63289-3.05751-1.22301-.85606-3.42444"/><path class="cls-3" d="m562.18166,552.4967c.2446.36689.6115.73381,1.1007.85612.97841.24462,2.07911.24462,3.17982-.12231,1.1007-.36689,2.07911-1.1007,2.93521-2.07913-1.95682-.6115-3.30211-1.22301-3.91362-1.95682-.8561,0-1.58991.12231-2.20141.48919s-1.1007.85612-1.22301,1.46762c-.12231.48919-.12231.97839.12231,1.34531h0Zm18.95659-16.38827l1.22301,3.17982-3.91362-1.22301-1.83451,6.11503-8.56104-2.56832c-.6115-.24462-1.34531-.12231-1.95682.24462-.6115.36689-.97841.97839-1.22301,1.58989-.2446.73381-.12231,1.58989.36691,2.3237.48919.73381,1.22301,1.22301,2.20141,1.58989l2.69061.6115c0-.24462,0-.36689-.12231-.6115v-.48919c.12231-.6115.6115-.97839,1.22301-1.22301s1.34531-.24462,2.07911,0c.73381.24462,1.34531.73381,1.7122,1.46762.36691.73381.48919,1.58989.12231,2.44601-.12231.6115-.48919.97839-1.1007,1.34531-.48919.36689-1.22301.6115-1.95682.6115l3.42442,6.72653-2.07911.73381-1.83451-5.01433c-1.1007.85612-2.3237,1.46762-3.54671,1.7122-1.22301.24462-2.44601.24462-3.66902-.12231-1.34531-.36689-2.69061-1.34531-3.79133-2.69063-1.1007-1.34531-1.58991-2.44601-1.34531-3.4244.12231-.36689.2446-.6115.36691-.85612s.36691-.48919.6115-.73381c-1.4676-.6115-2.56832-1.34531-3.30211-2.44601-.73381-1.1007-.97841-2.2014-.6115-3.17982.12231-.36689.36691-.85612.8561-1.34531s1.1007-.97839,1.83451-1.46762l2.3237,3.54671c-.48919.24462-.97841.48919-1.34531.73381s-.48919.6115-.6115.85612c-.12231.36689,0,.85612.36691,1.22301.36691.48919.8561.73381,1.4676.97839l2.20141-.73381c-.48919-.85612-.8561-1.7122-.97841-2.56832-.12231-.97839-.12231-1.83451.12231-2.69063.36691-.97839,1.1007-1.7122,2.20141-2.2014,1.22301-.48919,2.44601-.48919,3.91362,0l5.01433,1.46762.8561-3.05751-16.51058-4.89202-1.22301-3.17982,24.33783,7.2158"/><path class="cls-3" d="m582.97276,540.75583c.48919.6115,1.22301,1.1007,2.20141,1.34531l.73381-3.79133c.12231-.36689,0-.85612-.12231-1.1007-.12231-.36689-.2446-.48919-.48919-.6115-.73381-.12231-1.34531,0-1.83451.36689-.6115.36689-.8561.97839-.97841,1.58989-.24462.85612-.00002,1.46762.48919,2.20143h0Zm7.21573-3.05751l11.00705,1.95682,1.4676,3.05751-3.30211-.6115-3.54671,19.81271-3.17982-2.93521,1.1007-5.87041-6.48194-1.22301-.36691,2.2014c-.12231.48919-.36691.85612-.6115,1.22301-.36691.24462-.73381.36689-.97841.36689-1.1007-.24462-2.20141-1.1007-3.17982-2.8129-1.1007-1.7122-1.4676-3.05751-1.34531-4.28052,0-.24462.2446-.48919.6115-.73381.36691-.12231.73381-.24462,1.1007-.12231l1.83451.36689.73381-4.28052c-1.7122-.85612-3.05751-1.83451-3.91362-3.30213-.8561-1.34531-1.22301-2.69063-.97841-4.15821.12231-.85612.6115-1.58989,1.4676-2.07913.8561-.48919,1.7122-.6115,2.69061-.48919,1.34531.24462,2.56832,1.22301,3.66902,2.93521s1.4676,3.30213,1.22301,4.64741l-1.34531,7.21573,6.48194,1.22301,1.58991-8.56104-4.28052-.73381-1.46757-2.81286"/><path class="cls-3" d="m595.81432,528.52577c.97841-.73381,1.95682-.97839,3.17982-.85612,1.22301.12231,2.3237.6115,3.17982,1.34531.97841.73381,1.58991,1.7122,1.95682,2.93521l-.73381.6115c-.36691-.6115-.73381-.97839-1.22301-1.34531-.48919-.36689-.97841-.48919-1.4676-.6115-1.1007-.12231-1.95682.12231-2.81292.85612-.8561.6115-1.34531,1.46762-1.4676,2.56832-.12231.6115,0,1.22301.2446,1.95682s.73381,1.46762,1.22301,2.2014l-.97841.6115c-.97841-1.1007-1.83451-2.3237-2.20141-3.66902-.48919-1.34531-.6115-2.56832-.48919-3.91363-.00002-1.1007.61148-2.07909,1.58989-2.69059"/><path class="cls-3" d="m604.37537,554.69809c.48919.48919,1.22301.85612,2.07911.85612,1.1007.12231,2.3237-.12231,3.66902-.6115s2.56832-1.1007,3.91362-2.07913c-.73381-.97839-1.4676-1.83451-2.3237-2.3237-.8561-.6115-1.7122-.85612-2.56832-.97839-1.34531-.12231-2.56832.12231-3.66902.85612-.97841.6115-1.58991,1.46762-1.58991,2.44601-.2446.73377-.12229,1.34528.48921,1.83447h0Zm15.40986-13.57537l1.83451,2.93521-3.42442-.24462-1.4676,20.05729-3.42442-2.56832.36691-4.52514c-.97841.6115-1.83451,1.22301-2.81292,1.46762-.97841.36689-1.83451.48919-2.81292.36689-1.7122-.12231-3.30211-1.1007-5.01433-2.69063-1.58991-1.7122-2.3237-3.30213-2.20141-4.89202.12231-1.34531.73381-2.44601,1.95682-3.30213s2.56832-1.22301,4.15821-1.1007c1.34531.12231,2.69061.6115,4.03592,1.46762s2.3237,1.95682,3.17982,3.4244l.6115-7.94954-14.55376-1.1007-1.83451-2.93521,21.4026,1.58997"/><path class="cls-3" d="m617.58382,540.87814l6.35963.12231c-.48919-.97839-.8561-1.83451-1.1007-2.8129s-.36691-1.95682-.36691-2.93521c0-1.46762.6115-2.8129,1.83451-3.79133,1.22301-.97839,2.69061-1.58989,4.40283-1.46762,2.07911,0,4.40283.97839,6.72653,2.8129,2.44601,1.83451,4.64741,4.28052,6.84884,7.46034l-.97839.6115c-1.58989-2.3237-3.4244-4.15821-5.50353-5.38122-2.07913-1.34531-4.15821-1.95682-6.23734-2.07913-1.22301,0-2.20141.48919-3.05751,1.58989s-1.34531,2.3237-1.34531,3.79133c0,1.1007,0,1.83451.2446,2.3237h2.44601l1.95682,2.8129-3.42442-.12231-.36691,20.05729-3.54671-2.3237.2446-17.73359h-3.17982l-1.95682-2.93517"/><path class="cls-3" d="m646.56907,539.89971l2.2014,2.56832-3.4244.24462,1.34531,20.05729-3.79133-2.07913-.6115-10.02866-7.09342.48919c-.6115,0-1.1007.36689-1.58989.97839-.36689.6115-.6115,1.34531-.48919,2.07913.12231,1.22301.6115,2.56832,1.46762,3.79133.85612,1.34531,2.07913,2.56832,3.66902,3.66902l-1.34531,1.22301c-2.2014-1.95682-4.0359-3.91363-5.25893-5.62584-1.22301-1.83451-1.95682-3.30213-2.07911-4.64741-.12231-1.34531.2446-2.44601.97841-3.4244s1.7122-1.58989,2.81292-1.58989l8.68335-.6115-.24462-4.15821-14.30917.97839-2.20141-2.56832,21.28026-1.34531"/><path class="cls-3" d="m660.75595,551.51827c.48919.36689,1.1007.48919,1.7122.36689.97839-.24462,1.83451-.6115,2.69063-1.34531s1.58989-1.58989,2.07913-2.69063c-.48919-.6115-1.1007-1.1007-1.83451-1.34531s-1.34531-.36689-1.95682-.24462c-1.22301.24462-2.07913.73381-2.8129,1.46762-.73381.73381-.97839,1.46762-.85612,2.3237.12227.73389.48916,1.22308.97839,1.46766h0Zm16.51058-17.24435l2.56832,2.3237-10.76244,2.2014,1.22301,5.99272c.36689-.6115.73381-1.1007,1.22301-1.46762.48919-.36689,1.1007-.6115,1.83451-.73381,1.22301-.24462,2.69063.36689,4.28052,1.95682,1.58989,1.58989,2.56832,3.17982,2.93521,5.01433.12231.85612.12231,1.7122,0,2.69063-.12231.97839-.48919,2.07913-.97839,3.05751l-3.4244-2.07913c.73381-1.1007,1.22301-2.07913,1.46762-3.05751s.36689-1.83451.24462-2.69063c-.12231-.73381-.48919-1.34531-1.1007-1.7122s-1.22301-.6115-1.95682-.36689c-.6115.12231-1.22301.48919-1.95682,1.1007-.6115.6115-1.22301,1.46762-1.83451,2.44601l1.95682,9.66174-4.0359-1.46762-.97839-4.89202c-.36689.6115-.85612,1.1007-1.46762,1.46762-.6115.36689-1.22301.73381-1.95682.85612-1.34531.24462-2.8129-.24462-4.52514-1.46762-1.7122-1.22301-2.69063-2.69063-2.93521-4.15821-.24462-1.1007,0-2.07913.73381-2.93521.73381-.97839,1.7122-1.46762,2.93521-1.7122.97839-.24462,1.95682-.12231,3.05751.36689,1.1007.36689,2.07913,1.1007,3.05751,1.95682l-1.34531-6.72653-11.25167,2.3237-2.56832-2.3237,25.56078-5.6258"/><path class="cls-3" d="m687.17285,542.59034l6.48192-2.2014-2.8129-8.19416-6.48192,2.2014,2.8129,8.19416h0Zm7.58265-14.67607l2.8129,1.95682-3.17982,1.1007,6.48195,18.95659-4.15821-.97839-1.7122-5.13664-6.48192,2.2014.73381,2.2014c.12231.48919.12231.97839,0,1.34531-.12231.36689-.36689.73381-.73381.85612-1.1007.36689-2.56832.12231-4.40283-.85612-1.83451-.97839-2.93521-2.07913-3.30213-3.17982-.12231-.36689-.12231-.73381.12231-1.1007s.48919-.6115.97839-.73381l1.95682-.6115-2.8129-8.19416-4.52514,1.58989-2.8129-1.95682,21.03568-7.46027"/><path class="cls-3" d="m684.60457,520.82085c.48919-1.1007,1.34531-1.83451,2.44601-2.2014,1.1007-.48919,2.3237-.6115,3.54671-.36689s2.2014.73381,3.17982,1.58989l-.36689.85612c-.6115-.36689-1.22301-.48919-1.7122-.6115-.6115-.12231-1.1007,0-1.58989.24462-.97839.36689-1.7122,1.1007-2.07913,2.07913-.36689.97839-.48919,1.95682,0,2.93521.24462.48919.6115,1.1007,1.22301,1.58989s1.34531.97839,2.2014,1.34531l-.6115.97839c-1.46762-.48919-2.69063-1.22301-3.79133-2.07913-1.1007-.97839-1.83451-1.95682-2.3237-3.17982-.73381-1.10074-.61154-2.20143-.12231-3.17982"/><path class="cls-3" d="m715.17972,518.49711l3.05751,1.58989-3.05751,1.46762,8.56104,18.10047-4.28052-.48919-4.15821-8.68335-5.74814,2.69063c1.22301.36689,2.44601.85612,3.30213,1.58989.97839.73381,1.7122,1.46762,2.07913,2.44601.48919.97839.48919,2.07913.12231,3.17982-.48919,1.1007-1.22301,1.83451-2.2014,2.44601-1.83451.85612-4.0359.6115-6.72653-.6115s-5.25891-3.30213-7.70492-6.23734l.97839-.97839c1.7122,2.07913,3.54671,3.4244,5.50353,4.40283,1.95682.85612,3.54671.97839,4.89202.36689.6115-.24462.97839-.73381,1.1007-1.34531.24462-.6115.12231-1.22301-.12231-1.95682-.48919-.97839-1.34531-1.83451-2.69063-2.56832s-3.05751-1.22301-5.01433-1.58989l10.76244-5.13664-1.95682-4.15821-16.87747,7.94954-3.05751-1.58989,23.23711-10.88475"/><polyline class="cls-3" points="721.53933 514.4612 724.71915 515.80652 721.78394 517.51872 731.81257 534.88542 727.53205 534.76311 718.60412 519.35323 715.79122 520.94312 712.6114 519.59784 721.53933 514.4612"/><path class="cls-3" d="m502.74356,378.70754c0,5.74814,13.45307,8.68335,16.99978,9.66174,15.04298,3.91363,30.69746,5.74814,46.22963,6.72653,14.30917.97839,31.79816-1.34531,45.49582-4.89202-8.07185-10.76244-15.89908-21.52491-21.52491-33.87726-51.12164,3.42442-87.20031,13.69766-87.20031,22.38101Zm157.40089-22.5033c-5.62584,12.23006-13.45307,23.11481-21.52491,33.87728,13.81995,3.54671,31.18665,5.87041,45.49584,4.89202,15.53219-1.1007,31.18665-2.93521,46.22961-6.72653,3.54671-.85612,16.99978-3.79133,16.99978-9.66174,0-8.68339-36.07868-18.95663-87.20031-22.38103"/><path class="cls-1" d="m502.74356,378.70754h-.6115c0,1.7122.97841,3.05751,2.3237,4.28052,2.07911,1.7122,5.13662,3.05751,8.07185,4.0359,2.93521.97839,5.62584,1.58989,6.97113,1.95682,15.16527,3.91363,30.81975,5.74814,46.35194,6.84884,2.3237.12231,4.64743.24462,6.97113.24462,12.84156,0,27.02844-2.2014,38.76929-5.13664l.8561-.24462-.48919-.6115c-8.07185-10.76244-15.89908-21.52491-21.4026-33.75497l-.12231-.36691h-.36691c-25.56082,1.7122-47.45264,5.13662-62.8625,9.17253-7.70494,2.07913-13.94226,4.28052-18.10049,6.48192-2.07911,1.1007-3.79133,2.3237-4.89202,3.4244-1.1007,1.22301-1.83451,2.44601-1.83451,3.66902h.97841c0-.85612.48919-1.83451,1.4676-2.93521,1.83451-1.83451,5.25893-3.79133,10.15095-5.74814,14.55376-5.74814,41.5822-10.88475,75.09256-13.08616v-.6115l-.48919.2446c5.62584,12.35237,13.45307,23.11481,21.52491,33.87728l.48919-.36689-.12231-.48919c-11.49625,3.05751-25.68313,5.13664-38.40238,5.13664-2.3237,0-4.64743-.12231-6.97113-.24462-15.40988-1.1007-31.06434-2.93521-46.10732-6.72653-1.7122-.48919-5.99272-1.46762-9.78405-2.93521-1.83451-.73381-3.66902-1.7122-4.89202-2.69063-1.22301-1.1007-1.95682-2.2014-1.95682-3.4244h-.6115v.00004Zm157.40089-22.5033l-.48919-.2446c-5.62584,12.23008-13.33076,22.99252-21.4026,33.75495l-.48919.6115.85612.24462c11.61856,3.05751,25.92774,5.13664,38.7693,5.13664,2.44601,0,4.76972-.12231,6.97115-.24462,15.53219-1.1007,31.18665-2.93521,46.35192-6.84884,1.7122-.48919,5.99272-1.46762,9.90636-3.05751,1.95682-.85612,3.79133-1.7122,5.13664-2.93521,1.34531-1.1007,2.3237-2.56832,2.3237-4.28052,0-1.34531-.6115-2.56832-1.83451-3.66902-1.95682-2.07913-5.62584-4.0359-10.51786-5.99272-14.79838-5.74814-41.82682-11.00705-75.45948-13.20847h-.36689l-.12231.36691.36685.36689v.6115c25.56082,1.7122,47.33035,5.13664,62.61792,9.17254,7.70492,2.07913,13.81995,4.28052,17.85589,6.48192,2.07913,1.1007,3.66902,2.2014,4.64741,3.30213.97839,1.1007,1.46762,2.07913,1.46762,2.93521,0,1.22301-.73381,2.3237-1.95682,3.4244-1.83451,1.58989-4.89202,2.8129-7.70492,3.79133-2.8129.97839-5.50353,1.58989-6.84884,1.95682-15.04296,3.79133-30.69746,5.74814-46.10734,6.72653-2.2014.12231-4.52514.24462-6.97115.24462-12.71925,0-26.90613-2.07913-38.40238-5.13664l-.12231.48919.48919.36689c8.07185-10.76244,15.89908-21.64722,21.52491-33.87726l-.48919-.48918v.6115-.6115Z"/><path class="cls-3" d="m611.46879,390.20379c-8.07185-10.76244-15.77677-21.64722-21.4026-33.87726-.36691-.97841-.8561-1.83451-1.22301-2.81292-2.81292-6.72653-5.01433-13.45307-6.35963-20.05729-5.87043-29.71905,3.54671-59.80499,19.935-84.50972,9.53945-14.43147,19.81269-29.10755,22.38101-46.59653h.6115c2.56832,17.48898,12.84154,32.16505,22.38101,46.59653,16.38827,24.70472,25.80543,54.79067,19.93498,84.50972-1.34531,6.60422-3.54671,13.45307-6.35965,20.05729-.36689.97841-.85612,1.83451-1.22301,2.81292-5.62584,12.23008-13.45307,23.11482-21.52491,33.87726-5.01433-1.34531-9.66174-2.8129-13.33076-4.40283-3.66902,1.58989-8.31644,3.05751-13.33076,4.40283h-.48919"/><path class="cls-1" d="m611.46879,390.20379l.48919-.36689c-8.07185-10.64017-15.77677-21.64722-21.2803-33.75497-.48919-.97841-.8561-1.83451-1.22301-2.81292-2.81292-6.60422-5.01433-13.45307-6.35963-20.05729-1.22301-5.99272-1.7122-12.10775-1.7122-18.10049,0-23.48171,8.56104-46.47423,21.6472-66.04232,9.53945-14.43147,19.935-29.10755,22.5033-46.84113l-.6115-.1223v.61151h.6115v-.6115l-.6115.1223c2.69061,17.7336,12.96387,32.40967,22.5033,46.84112,13.08618,19.5681,21.64722,42.56061,21.64722,66.04232,0,5.99272-.6115,11.98546-1.7122,18.10049-1.34531,6.60422-3.54671,13.33076-6.35965,20.05729-.36689.97841-.85612,1.83451-1.22301,2.81292-5.62584,12.23006-13.33076,22.9925-21.4026,33.75497l.48919.36689.12231-.48919c-5.01433-1.34531-9.53945-2.8129-13.20847-4.28052l-.2446-.12231-.2446.12231c-3.66902,1.58989-8.19414,3.05751-13.33076,4.28052l.12231.48919-.12231-.6115h-.8561v.48919h.36689l.48919-.36689-.48919.48919h.6115-.6115l.12231.6115h.36691c5.13662-1.34531,9.66174-2.8129,13.45307-4.40283l-.2446-.48919-.2446.48919c3.79133,1.58989,8.31644,3.05751,13.45308,4.40283l.36689.12231.24462-.24462c8.07185-10.76244,15.89908-21.64722,21.52491-33.87726.36689-.97841.85612-1.83451,1.22301-2.81292,2.8129-6.72653,5.13664-13.57537,6.35965-20.1796,1.22301-6.11503,1.83451-12.23006,1.83451-18.22278,0-23.72631-8.68335-46.96342-21.76949-66.65383-9.66174-14.43147-19.81269-29.10755-22.38101-46.47423l-.12231-.4892h-1.58989l-.12231.4892c-2.56832,17.36668-12.71925,32.04275-22.38101,46.47423-13.08616,19.6904-21.76951,42.92752-21.76951,66.65383,0,6.11503.6115,12.23006,1.83451,18.34509,1.34531,6.60422,3.54671,13.57537,6.35963,20.1796.36691.97841.8561,1.95682,1.22301,2.81292,5.62584,12.23008,13.45307,23.23713,21.4026,33.99957l.97841,1.34531v-1.7122h-.12236v-.36692Z"/><path class="cls-4" d="m611.46879,390.20379c-13.81997,3.54671-31.18665,5.87041-45.49582,4.89202-15.53217-1.1007-31.18665-2.93521-46.22963-6.72653-3.17982-.85612-14.55376-3.30213-16.63289-8.07185h0c11.74087,42.80521,61.88411,75.09256,122.056,75.09256s110.31514-32.16504,121.93369-75.09256h-.12231c-2.2014,4.64741-13.45307,7.09342-16.63289,7.94954-15.04296,3.91363-30.69746,5.74814-46.22961,6.72653-14.30919.97839-31.79816-1.34531-45.49584-4.89202-5.01433-1.34531-9.66174-2.8129-13.33076-4.40283-3.66902,1.58989-8.31644,3.05751-13.33076,4.40283l-.48919.12231h0Z"/><path class="cls-1" d="m611.3465,389.71459c-11.49625,3.05751-25.68313,5.13664-38.40238,5.13664-2.3237,0-4.64743-.12231-6.97113-.24462-15.40988-1.1007-31.06434-2.93521-46.10732-6.72653-1.58991-.36689-5.25893-1.22301-8.68335-2.56832-1.7122-.6115-3.42442-1.46762-4.76972-2.3237-1.34531-.85612-2.3237-1.83451-2.81292-2.93521l-.12231-.36689h-1.10072l.2446.73381c11.74087,43.1721,62.251,75.45948,122.5452,75.45948s110.68202-32.28735,122.5452-75.45948l.24462-.73381h-1.22301l-.12231.36689c-.48919.97839-1.58989,1.95682-2.93521,2.8129-2.07913,1.34531-4.76972,2.3237-7.33804,3.17982-2.56832.73381-4.76972,1.34531-5.99272,1.58989-15.04296,3.79133-30.69746,5.74814-46.10734,6.72653-2.2014.12231-4.52514.24462-6.97115.24462-12.71925,0-26.90613-2.07913-38.40238-5.13664-5.01433-1.34531-9.53945-2.8129-13.20847-4.28052l-.2446-.12231-.2446.12231c-3.66902,1.58989-8.19414,3.05751-13.33076,4.28052l.12231.48919-.12231-.6115-.48919.36692.2446.97839h.36691c5.13662-1.34531,9.66174-2.8129,13.45307-4.40283l-.2446-.48919-.2446.48919c3.79133,1.58989,8.31644,3.05751,13.45308,4.40283,11.61856,3.05751,25.92774,5.13664,38.7693,5.13664,2.44601,0,4.76972-.12231,6.97115-.24462,15.53219-1.1007,31.18665-2.93521,46.35192-6.84884,1.58989-.36689,5.13664-1.22301,8.68335-2.56832,1.7122-.6115,3.54671-1.46762,5.01433-2.3237,1.46762-.97839,2.69063-1.95682,3.30213-3.30213l-.48919-.24462v.6115h.12231v-.6115l-.48919-.12231c-11.61856,42.56059-61.51719,74.60337-121.4445,74.60337s-109.94825-32.16504-121.4445-74.60337l-.48919.12231v.6115h0v-.6115l-.48919.24462c.6115,1.34531,1.83451,2.44601,3.30211,3.4244,2.20141,1.46762,5.01433,2.44601,7.58263,3.30213,2.56832.85612,4.89202,1.34531,6.11503,1.7122,15.16527,3.91363,30.81975,5.74814,46.35192,6.84884,2.3237.12231,4.64743.24462,6.97113.24462,12.84156,0,27.02844-2.2014,38.76929-5.13664l-.48929-1.22297h0Z"/><path class="cls-2" d="m627.24557,354.24742c-.97841.97841-1.83451,2.07911-1.83451,2.93521h-.12231c0-.97841-.97841-2.07911-1.95682-3.05751v31.92046h1.1007c.2446-.12231.6115-.24462.8561-.36689.2446.12231.48919.24462.8561.36689h1.22301v-31.79816"/><path class="cls-1" d="m627.24557,354.24742l-.36691-.36691c-.48919.48919-.97841.97841-1.34531,1.58991-.36691.48919-.6115,1.1007-.6115,1.7122h.6115v-.6115h-.12231v.6115h.6115c0-.6115-.36691-1.22301-.73381-1.83451s-.8561-1.1007-1.4676-1.7122l-.97841-.97841v33.87726h1.95682c.2446-.12231.48919-.24462.8561-.36689l-.2446-.48919-.2446.48919c.2446.12231.6115.24462.8561.36689h2.07913v-33.75497l-.97841.97841.12231.48921h-.6115v31.30896h-.6115v.6115l.2446-.48919c-.2446-.12231-.6115-.24462-.8561-.36689l-.2446-.12231-.2446.12231c-.2446.12231-.48919.24462-.8561.36689l.2446.48919v-.6115h-.48921v-31.43125h-.6115l-.36691.36691c.48919.48919.97841.97841,1.34531,1.4676s.48919.97841.48919,1.22301v.48919h1.1007v-.48919c0-.2446.12231-.73381.48919-1.1007.36691-.48919.73381-.97841,1.22301-1.4676l-.24458-.36692h-.6115.6115Z"/><path class="cls-5" d="m625.77797,331.37721h-.8561c-4.40283,0-8.07185,3.17982-9.05024,7.58263-1.22301,5.74812,1.34531,9.41714,5.25893,13.08616.97841.97841,4.15821,3.42442,4.15821,5.13662h.12231c.12231-1.7122,3.17982-4.15821,4.15821-5.13662,3.91363-3.66902,6.48192-7.33804,5.25891-13.08616-.97839-4.52512-4.64743-7.58263-9.05024-7.58263h-.8561.8561Z"/><path class="cls-1" d="m625.77797,330.76571h-.8561c-4.64743,0-8.56104,3.42442-9.66174,8.07185-.2446.97841-.36691,1.95682-.36691,2.93521,0,2.20141.6115,4.15821,1.7122,5.87043.97841,1.7122,2.44601,3.30211,4.15821,4.89202.48919.48919,1.58991,1.34531,2.44601,2.3237.48919.48919.8561.97841,1.1007,1.34531.2446.48919.48919.8561.48919,1.1007s.2446.48919.6115.48919h.12231c.2446,0,.48919-.2446.6115-.48919,0-.2446.12231-.6115.48919-1.1007.36691-.6115,1.1007-1.34531,1.83451-2.07911.73381-.6115,1.34531-1.22301,1.7122-1.58991,1.58991-1.58991,3.05751-3.05751,4.15821-4.89202.97839-1.7122,1.7122-3.66902,1.7122-5.87043,0-.97841-.12231-1.95682-.36689-2.93521-1.34528-4.64743-5.1366-8.07185-9.90632-8.07185h-.8561v1.1007h.8561c4.15821,0,7.58265,2.93521,8.56104,7.21573.24462.97841.36689,1.83451.36689,2.69061,0,1.95682-.6115,3.66902-1.46762,5.25893-.97841,1.58991-2.3237,3.05751-3.91362,4.64743-.48919.48919-1.58991,1.34531-2.44601,2.3237-.48919.48919-.8561.97841-1.22301,1.58991-.36691.48919-.6115,1.1007-.6115,1.7122h.6115v-.6115h-.12231v.6115h.6115c0-.6115-.2446-1.1007-.6115-1.7122-.48919-.73381-1.22301-1.58991-1.95682-2.20141-.73381-.73381-1.34531-1.22301-1.7122-1.58991-1.58991-1.4676-2.93521-3.05751-3.91362-4.64743s-1.4676-3.30211-1.4676-5.25893c0-.8561.12231-1.7122.36691-2.69061.97841-4.15821,4.40283-7.21573,8.56104-7.21573h.8561v-1.22299h-.48918Z"/><path class="cls-5" d="m615.87161,338.95984c.6115-2.93521,2.56832-5.38122,5.01433-6.60422l.36691-.48919s-10.88475-8.92795-24.58243,1.83451c.6115-.2446,5.99272,4.28052,6.60422,4.76972,3.66902,2.56832,7.46034,3.66902,11.98546,2.81292l.36691-.6115c0-.61152.12229-1.22302.2446-1.71222"/><path class="cls-1" d="m615.87161,338.95984l.48919.12231c.6115-2.81292,2.44601-5.01433,4.76972-6.23734l.2446-.2446.36691-.48919c.12231-.2446.12231-.6115-.12231-.73381,0,0-4.40283-3.54671-11.12936-3.54671-4.03592,0-8.92795,1.34531-14.18688,5.38122-.2446.12231-.2446.48919-.12231.73381.12231.2446.48919.36691.73381.2446l-.12231-.36691v.36691h.12231l-.12231-.36691v.36691-.12231.12231h0v-.12231.12231s.2446.12231.36691.2446c.73381.48919,2.07911,1.4676,3.30211,2.44601.6115.48919,1.1007.97841,1.58991,1.34531.48919.36691.73381.6115.97841.73381,2.93521,2.07911,5.99272,3.17982,9.41714,3.17982.97841,0,1.95682-.12231,3.05751-.2446.12231,0,.2446-.12231.36691-.2446l.36691-.6115.12231-.2446c0-.48919.12231-1.1007.2446-1.58991l-.73377-.24463-.36691.36691h0c.12231.12231.36691.2446.6115.12231.2446,0,.36691-.2446.36691-.36691l-.6115-.12231.36691-.36691h0c-.12231-.12231-.36691-.2446-.48919-.12231-.2446,0-.36691.2446-.36691.36691-.12231.6115-.2446,1.22301-.2446,1.7122h.6115l-.48919-.2446-.36691.6115.48919.2446-.12231-.48919c-.97841.12231-1.95682.2446-2.81292.2446-3.17982,0-5.99272-.97841-8.68335-3.05751-.12231-.12231-.6115-.48919-1.1007-.97841-.8561-.73381-2.07911-1.7122-3.05751-2.44601-.48919-.36691-.97841-.73381-1.4676-.97841-.2446-.12231-.36691-.2446-.6115-.36691s-.36691-.12231-.6115-.12231l-.36691.12231.2446.48919.36691.48919c5.01433-3.91362,9.66174-5.13662,13.45307-5.13662,3.17982,0,5.74812.8561,7.58263,1.7122.8561.36691,1.58991.8561,2.07911,1.1007.2446.12231.36691.2446.48919.36691l.12231.12231h0l.36691-.48919-.48919-.2446-.36691.48919.48919.2446-.2446-.48919c-2.69061,1.34531-4.64743,3.91362-5.38122,6.97113l.6115.24463.36691-.36691-.36691.36691Z"/><path class="cls-5" d="m628.83549,331.62181l.12231.2446c2.93521,1.1007,5.13664,3.66902,5.87041,7.09344.12231.8561.24462,1.58991.24462,2.3237,4.28052.6115,7.94954-.36691,11.49625-2.93521.73381-.48919,5.99272-5.13662,6.60422-4.76972-13.57537-10.64017-24.33781-1.95682-24.33781-1.95682"/><path class="cls-1" d="m628.83549,331.62181l-.48919.2446.12231.2446.2446.2446c2.69061.97841,4.89201,3.42442,5.62582,6.60422h0c.12231.73381.24462,1.4676.24462,2.20141,0,.2446.24462.48919.48919.48919.85612.12231,1.7122.2446,2.56832.2446,3.4244,0,6.48192-1.1007,9.41716-3.17982.24462-.12231.6115-.48919,1.22301-.97841.85612-.73381,2.07913-1.7122,3.05751-2.44601.48919-.36691.97839-.73381,1.34531-.97841.24462-.12231.36689-.2446.48919-.2446h.12231v-.12231.12231h0v-.12231.12231-.36691l-.12231.36691h.12231v-.36691l-.12231.36691c.24462.12231.6115,0,.73381-.2446s.12231-.6115-.12231-.73381c-5.25891-4.03592-10.15093-5.38122-14.18688-5.38122-6.60422,0-11.00705,3.42442-11.00705,3.54671l.24458.36694v-.6115h0c-.2446,0-.36691.12231-.48919.2446-.12231.12231-.12231.36691,0,.6115l.48919-.2446v.6115h0l.36691-.12231h0c.48919-.36691,4.40281-3.30211,10.27326-3.30211,3.79133,0,8.43873,1.22301,13.45307,5.13662l.36689-.48919.24462-.48919-.36689-.12231c-.36689,0-.48919.12231-.73381.2446-.85612.48919-2.2014,1.4676-3.4244,2.56832-.6115.48919-1.22301.97841-1.7122,1.34531s-.85612.73381-.97839.73381c-2.69063,1.95682-5.50353,2.93521-8.68335,2.93521-.73381,0-1.58989-.12231-2.3237-.2446l-.12231.6115h.6115c0-.73381-.12231-1.58991-.36689-2.3237h0c-.73381-3.54671-3.17982-6.23734-6.23734-7.46034l-.2446.48919.48919-.2446-.12231-.2446-.48925.36689v.6115-.6115Z"/><path class="cls-5" d="m624.79956,268.8816s-28.12914,42.9275-3.42442,62.0064h6.84884c24.7047-18.95659-3.42442-62.0064-3.42442-62.0064h0Z"/><path class="cls-1" d="m624.31035,268.637s-3.42442,5.25893-6.84884,12.84156-6.84884,17.61128-6.84884,27.27304c0,8.43873,2.69061,16.75518,10.39555,22.62561l.36691.12231h6.84884l.36691-.12231c7.70492-5.87043,10.39555-14.18688,10.39555-22.62561,0-9.66174-3.4244-19.6904-6.84884-27.27304-3.42442-7.58263-6.84884-12.84156-6.84884-12.84156-.12231-.2446-.48919-.36691-.73381-.12231-.2446.12231-.36691.48919-.12231.73381,0,0,.2446.36691.6115.8561,2.56832,4.15821,12.96387,22.13642,12.96387,38.52469,0,8.19414-2.56832,16.02139-9.90636,21.76951l.36691.48919v-.6115h-7.0934v.6115l.36691-.48919c-7.33804-5.62584-9.90636-13.45307-9.90636-21.76951,0-9.41714,3.42442-19.3235,6.72653-26.78382,1.7122-3.79133,3.42442-6.97113,4.64743-9.17254.6115-1.1007,1.1007-1.95682,1.58991-2.56832.36691-.6115.6115-.8561.6115-.8561.12231-.2446.12231-.6115-.12231-.73381-.48919-.2446-.73379-.12229-.97841.12231h0Z"/><path class="cls-5" d="m618.68453,280.13325l-11.86315-10.39555c1.1007.97841.6115,6.97113.6115,8.31644,0,3.30211-.12231,6.60422-.48919,9.90636-.48919,4.40283-1.34531,8.56104-2.07911,12.84156-1.1007,6.72653-.2446,13.94226,3.54671,19.81269,2.81292,4.28052,7.94954,8.07185,12.59697,10.02865-16.266-12.84156-8.80566-36.44558-2.32372-50.51015"/><path class="cls-1" d="m618.68453,280.13325l.36691-.36691-11.86315-10.39555c-.2446-.2446-.6115-.12231-.73381,0-.2446.2446-.12231.6115,0,.73381,0,0,.12231.12231.2446.36691.2446.73381.36691,2.3237.36691,3.79133s-.12231,2.93521-.12231,3.66902v.12231h0v1.1007c0,2.93521-.12231,5.87043-.48919,8.80564-.36691,4.28052-1.34531,8.56104-2.07911,12.84156-.2446,1.83451-.48919,3.66902-.48919,5.50353,0,5.13662,1.22301,10.27324,4.03592,14.67607s8.07185,8.19414,12.84156,10.27324c.2446.12231.6115,0,.73381-.2446s.12231-.48919-.12231-.73381c-7.21573-5.62584-9.66174-13.45307-9.66174-21.52491,0-10.02865,3.79133-20.5465,7.46034-28.25145.12231-.2446,0-.48919-.12231-.6115h0l-.36692.24462.36691-.36691-.36691.36691-.36691.48919h0l.36691-.48919-.48919-.2446c-3.66902,7.70494-7.46034,18.4674-7.46034,28.74064,0,8.31644,2.56832,16.51058,10.15095,22.38101l.36691-.48919.2446-.48919c-4.64743-1.95682-9.66174-5.62584-12.35237-9.78405-2.69061-4.28052-3.79133-9.05024-3.79133-14.06457,0-1.83451.12231-3.54671.36691-5.38122.73381-4.28052,1.58991-8.56104,2.07911-12.84156.2446-2.93521.48919-5.87043.48919-8.92795v-1.1007h0v-.12231c0-.6115.12231-2.20141.12231-3.66902,0-.97841,0-2.07911-.12231-2.93521,0-.48919-.12231-.8561-.2446-1.22301-.12231-.36691-.2446-.6115-.48919-.8561-.12231-.12231-.2446-.12231-.36691-.12231s-.2446.12231-.36691.2446c-.12231.12231-.12231.2446-.12231.36691s.12231.2446.2446.36691l11.86315,10.39555h0l-.12227-.24463Z"/><path class="cls-5" d="m644.73456,300.92435c-.73381-4.28052-1.58989-8.56104-2.07913-12.84156-.36689-3.30211-.48919-6.60422-.48919-9.90636,0-1.34531-.36689-7.46034.6115-8.31644l-11.86315,10.51786c6.60424,14.06457,13.94228,37.66859-2.56832,50.51015,4.76973-1.95682,10.15095-5.74812,12.84158-10.15095,3.79129-5.99272,4.64741-13.08616,3.54671-19.81269"/><path class="cls-1" d="m644.73456,300.92435l.6115-.12231c-.73381-4.28052-1.58989-8.56104-2.07913-12.84156-.24462-2.93521-.48919-5.74812-.48919-8.68335v-1.1007h0v-.12231c0-.73381-.12231-2.20141-.12231-3.66902,0-.97841,0-1.95682.12231-2.81292,0-.36691.12231-.73381.24462-.97841s.12231-.36691.24462-.36691c.24462-.2446.24462-.6115,0-.73381-.24462-.2446-.6115-.2446-.73381,0l-11.86315,10.51786c-.2446.12231-.2446.48919-.12231.6115,3.54673,7.70494,7.33802,18.22278,7.33802,28.12914,0,8.19414-2.56832,16.02139-9.78405,21.6472-.2446.12231-.2446.48919-.12231.73381.12231.2446.48919.36691.73381.2446,4.89202-1.95682,10.27324-5.87043,13.20845-10.39555,2.8129-4.40283,4.0359-9.53945,4.0359-14.67607,0-1.83451-.12231-3.66902-.48919-5.50353l-.73377.12233-.6115.12231c.24462,1.7122.36689,3.54671.36689,5.38122,0,5.01433-1.1007,9.78405-3.79133,14.06457s-7.94954,8.07185-12.59697,9.90636l.2446.48919.36691.48919c7.58263-5.87043,10.27326-14.06457,10.27326-22.5033,0-10.27324-3.91363-20.91341-7.46034-28.61833l-.48919.2446.36691.36691,11.86315-10.51786c.12231-.12231.12231-.2446.24462-.36691,0-.12231,0-.2446-.12231-.36691s-.24462-.12231-.36689-.2446c-.12231,0-.24462,0-.36689.12231-.24462.2446-.36689.6115-.48919.8561-.36689.97841-.36689,2.56832-.36689,4.03592,0,1.58991.12231,3.05751.12231,3.66902v.12231h0v1.22301c0,2.93521.12231,5.87043.48919,8.80564.48919,4.40283,1.34531,8.56104,2.07913,12.84156l.24454-.12231Z"/><path class="cls-5" d="m630.05849,330.0319l.6115.48919c2.8129-1.4676,8.43873-3.54671,15.53219-.97841l.48919-.12231s2.44601-6.72653,6.60422-6.72653c0,0-5.50353-2.93521-12.84156-.97841-2.56832,3.42444-6.48195,6.48195-10.39555,8.31646"/><path class="cls-1" d="m630.05849,330.0319l-.36691.48919.6115.48919c.12231.12231.36691.12231.6115,0,1.71222-.97841,4.76973-2.20141,8.56102-2.20141,1.95682,0,4.15821.36691,6.60422,1.22301h.36689l.48919-.12231c.12231,0,.24462-.12231.36689-.36691,0,0,0-.12231.12231-.2446.24462-.6115.97839-2.20141,1.95682-3.54671.48919-.73381,1.1007-1.34531,1.83451-1.83451s1.34531-.73381,2.2014-.73381c.24462,0,.48919-.12231.48919-.36691.12231-.2446,0-.48919-.24462-.6115,0,0-3.17982-1.7122-7.94954-1.7122-1.58989,0-3.4244.2446-5.25891.73381l-.24462.2446c-2.44601,3.30211-6.35965,6.23734-10.15095,8.07185l.00009.48921.36691-.36691h0l-.36691.36691-.36691.48919.36691-.48919-.36691.36691h0c.12231.12231.36691.2446.6115.12231,3.91362-1.95682,7.94952-4.89202,10.64015-8.43873l-.48919-.36691.12231.48919c1.83451-.48919,3.4244-.6115,5.01433-.6115,2.2014,0,4.15821.36691,5.50353.8561.6115.2446,1.22301.36691,1.46762.48919.12231.12231.36689.12231.36689.12231h.12231l.24462-.48919v-.6115c-1.22301,0-2.2014.48919-3.17982,1.1007-2.69063,2.07911-4.0359,5.87043-4.0359,5.87043l.48919.2446-.12231-.48919-.48919.12231.12231.48919.24462-.48919c-2.56832-.97841-4.89202-1.22301-6.97115-1.22301-4.0359,0-7.21573,1.22301-9.05024,2.3237l.2446.48919.36691-.48919-.6115-.48919c-.2446-.12231-.6115-.12231-.73381.12231-.2446.2446-.12231.6115,0,.73381l.48916-.24463Z"/><path class="cls-5" d="m619.05144,330.3988l.36691-.12231-.12231-.48919c-3.79133-1.83451-7.58263-4.76972-10.02865-8.07185h0c-7.33804-1.95682-12.96387.97841-12.96387.97841,4.15821,0,6.60422,6.72653,6.60422,6.72653l.48919.2446c7.09346-2.69061,12.71927-.73379,15.6545.73381"/><path class="cls-1" d="m619.05144,330.3988l.2446.48919.36691-.12231c.2446-.12231.36691-.36691.2446-.73381l-.12231-.48919-.2446-.36691c-3.66902-1.83451-7.46034-4.64743-9.78405-7.94954-.12231-.12231-.2446-.2446-.36691-.2446h0v.6115l.12231-.48919c-1.95682-.48919-3.66902-.73381-5.38122-.73381-4.76972,0-7.94954,1.7122-7.94954,1.7122-.2446.12231-.36691.36691-.2446.6115s.2446.36691.48919.36691c.8561,0,1.7122.36691,2.44601.97841,1.1007.8561,2.07911,2.20141,2.69061,3.30211.36691.6115.6115,1.1007.73381,1.4676.12231.2446.12231.36691.12231.48919v.12231c0,.12231.12231.2446.2446.36691l.48919.2446c.12231.12231.2446.12231.48919,0,2.44601-.97841,4.76972-1.22301,6.84884-1.22301,3.66902,0,6.60422,1.1007,8.31644,2.07911l.2446-.48918v-.6115h0v.6115l.2446.48919-.2446-.48919v.6115h0c.2446,0,.48919-.2446.48919-.48919s-.12231-.48919-.2446-.6115c-1.95682-.97841-5.01433-2.20141-8.92795-2.20141-2.20141,0-4.64743.36691-7.21573,1.34531l.2446.48919.2446-.48919-.48919-.2446-.2446.48919.48919-.2446s-.6115-1.7122-1.83451-3.42442c-.6115-.8561-1.34531-1.7122-2.20141-2.44601s-1.95682-1.1007-3.17982-1.1007v.6115l.2446.48919h0c.36691-.12231,3.17982-1.58991,7.46034-1.58991,1.4676,0,3.17982.2446,5.01433.73381h.12231v-.6115l-.48919.36691c2.8129,3.4244,6.72651,6.35961,10.51784,8.31643l.2446-.6115-.48919.2446.12231.48919.48919-.2446-.2446-.48919-.36691.12231c-.2446.12231-.36691.36691-.36691.6115s.2446.48919.6115.48919v-.6115Z"/><path class="cls-5" d="m618.56222,280.37786c1.22301-2.69061,2.44601-4.89202,3.42442-6.72653l-4.89202-6.72653-3.79133,8.31644v.36691l5.25893,4.64743v.12229"/><path class="cls-1" d="m618.56222,280.37786l.48919.2446c1.22301-2.56832,2.44601-4.89202,3.42442-6.72653l.12231-.36691-5.62584-7.82723-4.28052,9.29485v.73379l5.50353,4.76972.36691-.36691-.48919-.2446-.12231.12231-.2446.8561h1.22301l.12231-.36691-.48921-.12229v-.6115h0v.6115l.48919.2446.12231-.12231.12231-.36691-5.38122-4.76972v-.12231h-.6115l.48919.2446,3.42442-7.46034,4.28052,5.99272.48919-.36691-.48919-.2446c-.97841,1.83451-2.20141,4.15821-3.42442,6.84884l.48919.12233v-.6115.6115Z"/><path class="cls-5" d="m630.91459,280.25556l5.87043-5.13662-3.79133-8.31644-4.89202,6.84884v.8561c.97841,1.7122,1.95682,3.79133,3.05751,5.99272l-.2446-.2446"/><path class="cls-1" d="m630.91459,280.25556l.36691.36691,6.11503-5.38122-4.40283-9.53945-5.50353,7.82723v1.10072l.12231.12231c.8561,1.7122,1.95682,3.66902,3.05751,5.99272l.97841-.48919-.12231-.2446-.6115.24458h.6115-.6115l.36691.36691-.36691-.36691h-.6115v.12231l.12231.36691.97841-.48919c-1.1007-2.3237-2.07911-4.28052-3.05751-5.99272l-.48919.2446h.6115v-.6115l4.28052-5.87043,3.17982,7.09344-5.74812,5.01433v.2446h.73377v-.12233Z"/></svg>