<?xml version="1.0" encoding="UTF-8"?>
<svg id="infosys-logo" xmlns="http://www.w3.org/2000/svg" viewBox="0 0 1250 703">
  <defs>
    <style>
      .cls-1 {
        fill: #007cc3;
        fill-rule: evenodd;
      }
    </style>
  </defs>
  <path class="cls-1" d="M1085.55,243.03c14.79,0,26.92-11.66,26.92-26.12s-12.14-26.13-26.92-26.13-26.97,11.79-26.97,26.13,12.16,26.12,26.97,26.12h0Zm-22.96-26.12c0-12.23,10.34-22.24,22.96-22.24s22.93,10.02,22.93,22.24-10.31,22.25-22.93,22.25-22.96-10-22.96-22.25h0Zm12.72,13.11h5.17v-11.11h6.09l4.47,11.11h5.72l-5.27-11.89c1.85-.88,4.92-1.89,4.92-6.78,0-8-6.2-8.88-11.57-8.88h-9.54v27.56h0Zm5.17-22.79h5.74c3.07,0,4.82,1.23,4.82,3.68s-1.95,3.56-4.37,3.56h-6.2v-7.24h0Z"/>
  <polygon class="cls-1" points="221 228.61 221 228.24 221 197.45 252.89 197.45 252.89 228.29 252.89 228.61 252.89 423.2 252.89 423.9 252.89 454.36 221 454.36 221 423.59 221 423.2 221 228.61 221 228.61"/>
  <path class="cls-1" d="M545.32,360.78c.82,46.69,30.85,84.04,67.02,83.43,36.19-.63,64.89-39,64.04-85.68-.82-46.68-30.82-84.04-67.04-83.43-36.19,.63-64.82,39.01-64.02,85.68h0Zm264.08-56.44c.82,1.78-1.15-2.65-1.15-2.65l1.15,2.65h0Zm21.76,193.3c1.45-2.41,3.5-6.1,5.92-10.71l-5.92,10.71h0Zm1.87-209.4c.38,1.03,.82,2.11,1.33,3.26l10.74,25.47-12.06-28.73h0Zm-133.65,128.22c19.71,17.34,37.49,26.31,60.17,26.31,23.23,.16,43.89-10.84,43.89-32.03,0-17.69-16.21-28.04-45.11-39.85-24.48-10.3-42.74-17.48-52.25-32.33,1.15,6.44,1.77,13.11,1.77,19.95,0,57.35-42.91,103.82-95.86,103.82s-95.91-46.48-95.91-103.82c0-34.57,15.61-65.17,39.59-84.07h-64.87v179.92h-28.82v-29.58c.03-.52,.03-1.05,.03-1.58v-148.76h-25.43v-18.73h25.78c3.32-37.76,27.5-59.13,60.92-59.13,21.68,0,33.59,2.19,40.44,5.28v25.61c-.07,1.91-.07,3.06-.07,3.06-.3-.04-1-.04-1-.04-10.44-9.32-20.75-16.27-44.78-16.24-19.16,0-31.82,15.07-27.4,41.46h107.87c4.47-.69,9.02-1.04,13.66-1.04,38.41,0,71.56,24.45,86.82,59.79-.13-1.95-.2-4.01-.2-6.14,0-36.85,36.86-52.54,75.13-52.46,1.45,0,2.87,0,4.3,.02,13.49-.2,32.67,4.05,44.39,7.04l10.61,25.31,12.06,28.73,32.44,76.7,3.82,12.3,4.24-12.3,41.04-98.43c7.57-27.13,37.57-38.84,70.66-38.78,16.46-.07,28.65,1.86,43.21,6.82v29.77c-17.99-12.63-30.85-19.97-51.18-19.97-17.91,0-39.42,7.65-39.42,33.17-.35,19.18,11.54,22.68,46.39,39.44,28.65,12.04,55.1,25.36,55.25,56.15,0,51.36-52.28,60.25-77.65,60.35-22.73,0-43.53-5.44-55.07-14.75v-33.9l1.82,1.47c20.66,18.68,38.94,28.37,62.49,28.37,23.23,.16,43.88-10.84,43.88-32.04,0-17.67-16.19-28.01-45.08-39.84-27.65-11.59-45.78-19.27-53.18-38.46-11.26,26.61-63.67,150.27-76.03,176.7h-28.28l6.69-12.08,5.92-10.71,.17-.34c7.1-13.51,17.41-34.71,26.58-55.01l-54.43-127.23c-.35-.76-1.25-2.74-3.07-6.73-4.17-9.22-8.04-17.73-19.78-22.03-6.32-2.05-13.01-3.12-20.8-3.12-17.91,0-40.79,7.68-40.79,33.19-.35,19.2,12.91,22.69,47.75,39.44,28.65,12.04,55.1,25.34,55.23,56.13,0,51.38-52.23,60.26-77.65,60.34-20.18,0-38.87-4.3-50.9-11.8v-33.31h0Z"/>
  <path class="cls-1" d="M312.44,257.63l.35,22.48-.05,1.51h.33c.38-.94,.88-1.73,1.35-2.32,11.71-12.2,26.48-24.27,61.57-24.27s55.35,27.67,56.22,45.07l.03,123.1v31.16h-28.78v-36.72l-.03-104.8c0-21.69-19.68-37.4-43.71-37.4-20.03,0-45.68,17.44-46.53,35.09v143.85h-28.78v-196.76h28.02Z"/>
</svg>