<?xml version="1.0" encoding="UTF-8"?><svg id="LOGOS" xmlns="http://www.w3.org/2000/svg" viewBox="0 0 1250 703"><defs><style>.cls-1{fill:#091c5a;}.cls-1,.cls-2,.cls-3{fill-rule:evenodd;}.cls-2{fill:#f60;}.cls-3{fill:#fff;}</style></defs><g id="Layer_4"><g id="Layer_1"><g id="g9"><g id="g11"><path id="path13" class="cls-1" d="m235.89298,306.86676c5.92075,0,10.04659,1.25265,12.60864,3.81197,2.86694,2.86389,4.15042,7.59447,4.15042,15.33631v96.69931c0,13.38119-2.80793,19.34968-19.38012,19.34968h-2.27191v5.9341h74.47652v-5.90462l-2.24733-.02948c-16.41483-.1965-19.18342-6.1306-19.18342-19.34968v-96.70422c0-7.71728,1.27857-12.4282,4.14551-15.28718,2.58663-2.59863,6.78624-3.8611,12.82992-3.8611h4.4504v-6.01761h-74.4716v6.01761h4.89298v.00491Z"/><path id="path15" class="cls-1" d="m474.08997,398.66847s-1.29332-6.03726-1.48018-9.41694v-44.1668c-.29013-25.75537,3.22591-38.57656-19.3162-38.47832v-5.78673h51.85571v5.78673c-23.21583-.09333-20.29478,12.72786-20.42756,38.47832v103.12954l-7.38126-.07859-111.97787-117.06093s1.2589,6.02743,1.44576,9.41203v72.32431c-.63437,26.38414,2.63581,29.57225,19.65058,29.26278v6.02744h-54.05879v-6.02744c17.03936.01966,20.38822-2.24494,20.36856-31.41438v1.74388-71.27797l-.13769-11.3131c.63437-14.64367-4.77987-23.13709-21.30781-22.99955v-5.79164h49.77068s92.99606,97.64738,92.99606,97.64737Z"/><path id="path17" class="cls-1" d="m661.80326,298.00983h-5.71422l-.26555,1.95511c-.3885,2.91793-1.53922,7.8057-4.86838,7.8057-.94909,0-3.31446-.44702-5.97978-1.66528-11.57593-5.01058-26.57452-8.09553-39.20283-8.09553-24.57308,0-46.86439,8.79308-62.78746,24.76798-14.62483,14.67805-22.62571,34.65652-22.51263,56.24623.10329,20.68092,8.24185,37.69234,24.90256,52.03144,16.78366,14.34401,35.58841,20.45988,62.91532,20.45988,22.7634,0,35.79495-3.26671,55.79469-13.99033l3.5013-1.89617v-38.58638c0-16.44649,2.01622-19.00582,15.41166-19.54618l2.17849-.08351v-5.73269h-65.44294v5.73269l2.17849.08351c14.91987.57966,17.73767,3.25197,17.73767,16.84931v35.75688c-11.06944,7.29482-19.11458,10.06537-29.2595,10.06537-15.01333,0-28.37433-5.79656-38.6324-16.03386-12.01361-12.01066-17.87536-29.50348-17.87536-49.27071,0-21.29496,5.67487-39.46079,17.36883-51.13249,9.30894-9.29905,21.6717-14.46191,35.77529-14.46191,12.59878,0,27.23348,5.39866,37.27023,13.35173,8.16318,6.67586,12.39716,13.13558,15.59359,23.81008l.48683,1.61616h5.58636l-4.16026-50.03704Z"/></g><g id="g19"><path id="path21" class="cls-3" d="m948.4432,447.60023c3.63902-.55018,7.49926-.46668,10.40068-3.12916,12.29391,1.88633,24.755-1.14949,34.418-7.91377,5.0897-4.10179,9.67778-8.86186,13.39056-14.06401,3.26527-4.57829,5.84208-8.84711,7.50909-13.9756,1.24417-3.16355,2.22767-6.4548,2.97023-9.8345,3.50621-15.93561,1.66212-33.75756-3.53082-48.91211-.94906-2.81477-2.03588-5.54111-3.21612-8.13974-6.48132-13.3812-15.30346-27.81855-28.88574-36.2825-7.65173-4.76497-14.69372-12.13838-19.01624-19.77214-2.35058-2.11231-4.60286-4.91233-7.6419-5.41831.8311,1.37054,1.74571,2.71161,1.97195,4.31303l-.17701.22597c-3.22595.09333-5.75354-1.61125-7.96155-3.67443l2.43417-2.20564c-.91957-.46667-1.97195-.64352-2.98989-.87931-9.28932-1.05615-16.93114,3.2274-25.17303,5.29058l-.12786.45685c5.06021,2.24985,6.11747,7.82044,9.06308,11.5882.72777-.8744,1.97195-.23579,2.98989-.31439,1.47033.08351,2.8522,1.14457,4.27826.77123.04427-1.22808-.64914-2.20564-.87042-3.306.87042-.41263,1.92768-.04912,2.90135,0,2.66536,1.55721,6.93866-.27509,8.60079,3.306-3.03904.19158-5.89123.83018-8.74343,1.52283.18684,1.14949,1.33759,2.06318,1.24417,3.21758-2.43912-1.01194-5.02081-1.65055-7.73532-1.96985l-.13769.40772c3.45211,4.04285,8.19266,6.44007,13.02664,7.85974,6.95344,1.60633,13.07091-1.69967,19.78334-.55018,16.4837,7.54043,30.56265,24.78764,36.68507,41.15554.29999.78597.59008,1.58177.86059,2.3923,5.12902,14.94823,6.10268,33.32037.96384,48.91212-2.73416,6.48428-5.74371,12.60504-10.56786,17.87598-1.82443,2.24494-3.84065,4.24425-6.03388,5.9341-6.90917,5.3741-15.42637,7.74675-24.20919,5.33972-.55076-.37825-1.65725-.47159-1.47033-1.42949.30487-1.28213.59008-2.57898.84093-3.91023,1.45067-7.47166,2.1293-15.33139,1.73588-23.19113-.00983-.33404-.01966-.67299-.02949-1.00703-.48683-11.41135-2.76365-21.6683-6.95832-31.53719-2.69485-5.66392-5.89123-11.83872-9.91872-17.37984-4.80936-6.60709-10.77436-12.31522-18.43592-15.16438-4.69628-1.24282-10.4941-1.47862-14.03475,2.42669-2.53254,2.21546-3.58492,5.19725-3.221,8.46886-3.9586,2.50529-8.40907,3.85618-13.25287,4.26882-1.18512.10316-2.3998.54036-3.63407.52562-1.17041.05403-2.31126.00491-3.43245-.13264-5.8273-.7172-11.72349-3.86109-16.20337-7.4471-.09342-2.3923-.23111-4.64215-.32453-7.172-2.56698-1.33124-4.69628-3.86109-4.87329-6.85271l.22623-.22597c1.48016.45685,2.75878,1.18879,4.09629,1.96984-.59991-3.586-1.29332-7.12289-3.07843-10.25204-1.66212-.69264-3.31937-1.24282-4.87825-2.073-1.79494-1.18387-2.95057-3.35512-3.21612-5.32497,1.60802,1.56212,4.41107,1.01194,5.65517,2.66248-2.16862-6.39095-2.20306-13.7005-5.75354-19.54126-1.79494-4.31794-6.49122-6.29761-9.71222-9.46607-1.24417-1.52283-1.74571-3.63513-3.998-3.87092-1.84409-.45685-1.98178-2.52003-2.30143-3.8611,1.1458.13754,2.10964.91861,3.07348,1.10036-2.66536-7.06885-5.01594-14.93841-12.23493-19.44302l-1.23922.78597c-2.80793.41264-5.80269.59931-8.60574.69264,1.24417-1.83721,3.44723-2.62319,5.1979-3.45828-2.02605-1.513-3.69313-1.87651-6.22567-2.28915-1.47033,1.46388-4.13074,2.20564-6.01909,2.61827l-.23606-.18667c-.04915-1.65546-.4229-3.67443,2.07032-4.09197-2.39485-1.14949-6.36332-.68281-8.80245,0-.68354,1.793-2.6604,3.40425-2.5178,5.52638-1.42118,1.46879-2.43421,3.44846-3.91437,4.50461-.04427-3.54179,1.46542-6.80358,2.10964-9.79028-2.07028.78106-4.17501,1.88634-6.20597,2.84915-3.26036-1.88634-6.70264-3.76776-10.19902-5.19725-.31474-.13755-1.01302-.27018-.87533.32421,2.9948,2.15652,1.83426,6.20919,2.15391,9.2794l-1.88836-1.55721c-.91957-2.34318-3.57506-4.04285-4.0324-6.61691-3.13249.5993-5.13393,1.42458-8.03531,2.6674l-.39833.23088c2.15883,0,3.998,1.69476,5.05526,3.40425-3.26527.17684-6.16662-1.10527-9.38761-1.4344-.31965-.31439-.59995-.69264-1.10644-.64352-1.60806.5993-2.9948,1.74388-4.41107,2.84915-3.17677,3.12916-6.40268,6.57762-7.91728,10.71871,1.06221.17684,2.39485.13263,3.17677.77615-1.74575,1.05615-3.26527,2.85407-4.96675,3.8611-.59995,2.39231-.50649,5.11374-.64914,7.7271-1.33759,2.02879-3.12758,3.81197-3.998,6.07656-2.85711,9.22537-3.58984,19.48723-3.17677,29.96524-.92452.87931-2.12438,1.4344-2.98989,2.12212l.09342,9.37274h.2262c.41307-1.96984,2.76365-3.07021,4.18975-4.40636h.46226c-.23111,2.11231-.50649,4.22952-.55076,6.39095l-2.66532,2.20564c-2.67515,2.3481-.41799,5.88498-.64418,8.83238.18688.77123.31474,1.92564.87042,2.11231.32457-1.14948,1.33268-1.97476,1.98178-2.99161,1.1458-.27018,2.15883-1.19861,3.21608-1.32633-.59995,2.29897-1.372,4.54882-2.30143,6.75446-.44256.28983-.95892.6779-1.40152,1.14948-.47209.50597-.85072,1.07089-.94909,1.69967,2.08011,10.89064,5.33555,21.64866,9.05817,31.9007-2.52271,4.27864-3.95864,9.31379-6.06337,13.72997-.30487.61404-.57534,1.24773-.82615,1.88634-2.11455,5.34463-2.75874,11.32293-5.38965,16.45631-1.06713-.72702-2.2178-1.29195-3.40296-1.79301-4.97658-1.65547-10.73012-.59931-14.35928,3.22248-3.22591-.59931-6.54037-.04912-9.07291,1.65547-1.8146,1.3509-3.21608,2.99653-4.02257,4.91233-.55076,1.33615-.80157,2.79021-.71798,4.37688-2.06537,1.41967-3.17181,3.62039-3.86031,5.83585-.96384,4.96145.78188,10.12923,3.63407,13.95103h229.38966l.0003-.0098Z"/><path id="path23" class="cls-3" d="m917.97885,344.22998c-.04915,1.1937-.91957,2.53477-.13769,3.5418,1.10648-1.24282,2.95057-1.19861,4.4209-1.74388,4.09142-.36843,8.00582.9137,11.82186,1.84213-.95896-1.52282-1.60802-3.21266-2.66536-4.59795-2.12442-.55018-5.34047.91861-5.70439-2.20564-1.29332-1.10528-3.32425-.31439-4.64713-.23579-1.29332.92843-2.35058,2.06809-3.08826,3.39933h.00008Z"/><path id="path25" class="cls-3" d="m777.32667,304.53832c-.01966-.01965-.04919-.0393-.06885-.04421,0,.00491,0,.02456.00983.04421h.05902Z"/><path id="path27" class="cls-3" d="m794.05623,345.39912l2.76365-2.66248c.23603,0,.41307.04912.55076.23579l-.23111,5.099c1.33268,1.24282,2.98989,1.65546,4.7356,1.7488.14261-1.38037,1.1999-2.34318,1.79982-3.5418.50649-.96281.18688-2.3923,1.19495-3.08495l.31474.32421c.32948,1.513.24098,3.21758,1.02285,4.54882.09342.73194.2262,1.65546.31474,2.29897,2.02605.09825,3.86031-.46176,5.42897-1.1937-.09342-1.74388.51141-3.17337.77696-4.78462.4229-.5551-.50649-1.56213.64914-1.513.64418,1.37546,1.7949,2.80003,2.43912,4.26882,2.66532-2.71161,3.77176-6.24849,4.41599-9.92292-.77696-1.06597-1.97686-1.06597-2.90135-1.7488-7.81891-2.52985-17.86061-3.04073-25.40906.86948-.48683,3.13407.15735,6.58253,2.13421,9.05835Z"/><path id="path29" class="cls-3" d="m720.92224,431.66953c-.2803,3.54671,0,6.86744.22128,10.36012.74256,1.14949,2.08011,2.48564,3.40296,2.57898l.24098-2.3481c.54585-3.27162-1.1999-6.73973.64418-9.49554,1.28841.41263,2.56698,1.05615,3.68326,1.65547.54094-3.03582-.23111-6.57271-3.13249-8.40993,0,0-5.06017,5.65901-5.06017,5.65899Z"/><path id="path31" class="cls-3" d="m732.2818,426.71299c-1.7949,5.3741-3.13249,12.01557-.95892,17.66967,1.23431-.82036,2.52763-1.60633,3.62424-2.75582-.22128-4.32777-.82123-8.94536,1.75067-12.53136,2.25225.69263,3.78159,2.85407,4.6471,4.97129,1.52443-1.94037,2.03096-4.60286,1.43101-7.18184.09342-2.01406-2.2178-1.55231-3.31937-2.38739.37372-1.69967.31965-3.66952,2.11947-4.63234l-5.52243.55018c-1.42118,2.01406-2.98497,3.99864-3.77176,6.29762Z"/><path id="path33" class="cls-3" d="m743.65119,442.58473c.23603.42245,0,1.14949.46226,1.24281.69337-3.85618,3.82095-6.36146,5.52735-9.76081.82123-1.14949.77205-2.76073,2.10964-3.63514,1.79982,0,3.08822,1.29195,4.83889,1.42949.55076.41263-.28521.77615-.32457,1.23299-.36389,3.13407-1.56379,5.72778-1.33268,8.94045h.31474c2.43912-2.56424,4.09633-5.35445,5.89123-8.29693l.31474-2.61337c.41307-3.12916-2.98989-5.14813-5.19786-6.43516l1.97686-2.52985-2.75874-.96772c-3.22591.32422-6.1273,1.65547-8.37954,4.19022-2.7981,5.14322-3.25544,10.9545-3.44228,17.20299l-.00004.00002Z"/><path id="path35" class="cls-3" d="m756.03365,415.30162c1.05726.32422,2.02113-.55018,3.07348-.08843,4.23894,1.55722,8.65984,3.16846,11.83165,6.71025l3.77668,9.60362,1.88836-5.92428-1.24414-3.22248c-1.05726-2.29897-3.95864-2.11231-5.94042-2.20564-.82123-.91861.04919-1.97967.32948-2.84916.95892-3.2618-3.04399-3.08494-4.65201-4.40636.09833-1.97967-2.30143-1.29195-3.63899-1.47861l-.45734-.55018c-.27047-.41263-.95892-.41263-1.33268-.09334-.09833-.13264-.27538-.22597-.17705-.46177l-1.02285.23579c-1.42118,1.24281-2.38994,2.84916-2.43421,4.73058h.00004Z"/><path id="path37" class="cls-3" d="m758.69897,404.73521c.13769.59438.50649,1.1937.96384,1.55722,2.0752-.55018,4.04715-1.96985,6.442-1.10527,3.08822,2.7116,6.30431,5.56076,10.04167,7.03937l1.32773-.23579c.83106.28491,1.74575.32422,2.30143,1.24281.51141,1.24281-.77205,1.97967-1.19495,2.98671,2.0752,1.5179,1.24414,4.23443,2.53746,6.06674l3.31446-4.41127c-.77696-1.93546.04427-5.24147-2.9948-5.42322-1.00811-.51088-1.70148-1.52283-1.65721-2.6723-1.97195-1.79301-4.41107-2.56914-6.39776-4.40636-1.60806-1.29195-2.5719-3.27162-4.6471-3.72846-1.42118-.77615-2.98006-1.1937-4.63727-1.55722-3.09805-.45684-3.36852,3.21266-5.39948,4.64705Z"/><path id="path39" class="cls-3" d="m763.11491,395.67685l.55568.87439c2.29652-.14245,4.37663-1.14948,6.63379-1.10528,1.5146.92352,3.49638.87931,5.05526,1.65546,1.24414,1.69966,2.58173,3.63022,4.41107,4.78462,3.73736.54527,5.80273,4.54882,7.09113,7.48639v-1.42458c.55076-1.96985-.04919-4.27373-.78683-6.06183-.91957-.92352-2.25225-1.52774-3.21608-2.35301-.18688-.59438-.04919-.87439.13769-1.42458-1.43101-1.51791-3.54557-2.3481-5.29128-3.53688-2.43912-3.5418-7.13537-2.57406-10.8629-3.5418l-3.72753,4.64706v.00003Z"/><path id="path41" class="cls-3" d="m763.04115,361.94877c.40816,1.42949.90974,3.22249,1.18021,4.73549,1.28841-2.84915,3.83078-4.12636,6.08303-6.47446-1.29332-.87931-2.89643-1.29195-4.32253-1.56704v-.08351c-1.01302,1.00703-2.57681,2.01897-2.9407,3.38951Z"/><path id="path43" class="cls-3" d="m771.40104,377.07385l2.07028-2.11231c2.0752-2.11231,3.77668-4.55373,4.09633-7.26534-1.47037-.87439-3.40296-.28-4.82906.22597-.51636,2.99653-1.28841,5.93901-1.33759,9.15168h.00004Z"/><path id="path45" class="cls-3" d="m772.91564,383.55813c3.18168.18667,6.26007.82036,8.84176-.9579l2.5719-8.2822c-.82123-.04912-1.65721-.41263-2.43421-.13754-1.69657,3.77267-5.11427,7.49131-8.97946,9.37765Z"/><path id="path47" class="cls-3" d="m773.84999,354.22658c2.07028,3.04073,5.52243,6.44007,9.068,7.39798-.41307-3.85618-3.72262-6.52849-5.42897-9.8345l-.09833-1.10528c-1.33268-1.29195-2.94562-2.15651-4.32744-2.85406-.22128,2.21546.37867,4.33268.78683,6.39586h-.00008Z"/><path id="path49" class="cls-3" d="m785.07186,383.92655c2.43912.42246,5.06017,0,7.31242-.69755,3.2751-.77123,5.07-4.36216,6.17153-7.16218h-4.09633l-4.4209,4.31794c-1.7408.92352-3.40788,2.30879-4.96675,3.5418h.00004Z"/><path id="path51" class="cls-3" d="m784.5752,350.04618c.69337,3.586,2.20306,6.84779,4.28321,9.93274l.55076-6.85271s-4.83397-3.08004-4.83397-3.08003Z"/><path id="path53" class="cls-3" d="m799.66229,367.92708c.27538-2.29897-.68354-4.96146-.94909-7.30464-1.38674-.92352-3.32429-.83019-4.74543-1.74388.08851,3.63022,2.93579,6.70534,5.69453,9.04852Z"/><path id="path55" class="cls-3" d="m795.4725,391.29014c2.90135-.92352,5.70439-1.93546,8.36971-3.40916,1.70148-2.42669,4.28321-4.64706,4.6471-7.49131-2.11455.59439-3.95864-.08842-5.93059.87931-1.19495,2.15651-1.93751,4.59795-4.23402,6.15516-.36389,1.55721-2.07028,2.62319-2.8522,3.866Z"/><path id="path57" class="cls-3" d="m799.97699,396.94424l3.45215,4.49969c1.84409.59931,4.14552.41263,5.75354-.64352l-1.24414-4.09198c-2.43421.92843-5.33064.64352-7.96155.2358Z"/><path id="path59" class="cls-3" d="m805.73545,364.38529l1.33268,6.07165c3.21608-2.62319,3.87014-6.44007,3.79146-10.48293-1.84409,2.11231-2.92104,3.40425-5.1241,4.41128h-.00004Z"/><path id="path61" class="cls-3" d="m814.79853,375.104c.04919.86948.2803,1.69967.78683,2.3923,3.58489,1.28212,3.95373,5.64918,7.2731,7.30464,2.15879.96281,4.63723-.23579,6.53054-1.10528-1.42606-1.60633-3.04399-2.72144-4.41595-4.41619-.96879-.41263-1.93751-1.01194-1.88836-2.20564l-8.28608-1.96984h-.00008Z"/><path id="path63" class="cls-3" d="m817.65073,396.80178c1.5687,1.793,3.68322,2.7116,5.89123,3.21266-.36393-.50597.23606,0,.32453-.31929l-2.76861-6.05691c-1.37691.03439-2.80301.31439-4.09142.22597.08851,1.00212.32457,2.00915.64418,2.93757h.00008Z"/><path id="path65" class="cls-3" d="m822.53385,368.47726c-1.29332-2.9867-1.83426-6.61691-2.19818-9.92292-1.38183,1.65055-2.80793,2.71161-4.09633,4.40636-.59995,3.40425,4.26351,4.23935,6.29451,5.51656Z"/><path id="path67" class="cls-3" d="m828.14482,365.35793c1.65725,2.15651,5.29132,1.41966,7.3272.77615-.97367-1.65546-4.09142-2.61827-4.64218-4.41128-.32453-3.16846-.95896-6.24849-1.98178-9.14676-1.61298,3.90531-3.55543,8.55237-.70324,12.78189Z"/><path id="path69" class="cls-3" d="m831.04122,375.104c4.60774,3.36004,9.11223,7.26043,15.55423,5.83585.46222-.32421,1.24417-.28,1.33759-.87439-1.89324-1.19861-3.90945-2.11721-5.84696-3.21266l-2.20306-3.22249h-1.01299c-2.48827.83019-5.16346,1.14457-7.82874,1.4737h-.00008Z"/><path id="path71" class="cls-3" d="m831.13959,412.38862h.3147c2.76861-2.20564,6.03388-2.94248,9.29915-3.866.88025.31929.32453,1.28704,1.10648,1.66038,1.98178-.83018,4.37663-.64352,6.39773-1.33615,2.444.09825,4.42578.14245,6.39773,1.19861,1.55887,2.06317,4.50944,1.84213,6.54037,3.21266l-.32453-3.21266c-4.27826-5.01549-10.95632-5.38392-17.1131-5.28567l-.14264-.64843c-1.47033,0-3.12263.32422-4.50449.97265-1.97683.0835-3.86518,1.05615-5.75849,1.65054-.88025,1.74879-1.5687,3.85618-2.21289,5.65408Z"/><path id="path73" class="cls-3" d="m834.83271,355.88694c1.79494,2.3481,4.46022,4.13619,7.49926,3.5418-1.55887-1.51791-3.35869-3.13407-3.45211-5.29058.46222-4.09198-4.04715-4.41128-6.25516-6.5334.72777,2.76564.64418,5.84076,2.20801,8.28219Z"/><path id="path75" class="cls-3" d="m834.36554,420.52836h.53598c2.444-1.52774,5.98961-.37334,8.38446-1.98458,1.33264-.69263,1.42118,1.14949,2.35058,1.65547,2.25221,1.38036,2.52767,5.51165,5.70439,4.55372,3.81604,1.97476,2.8522,6.62673,2.98989,10.02608l3.54553-2.20564c-.32453-1.79301.68358-3.96425-.46717-5.52147-.87042-1.96985-3.26032-2.15651-4.41107-3.76775,1.38186-2.3481-1.74571-3.44355-2.39485-5.14813l.18684-.23579,4.86842.64352c1.66708,1.01195,2.25716,2.85407,2.76861,4.55372,3.82091.64352,4.74055,4.96145,6.07807,7.72218.78188-1.88633,1.10153-3.91023,1.88836-5.74251.04427-1.52283-1.98178-1.52283-2.98989-2.20564-.28521-2.34319-1.33759-4.55865-3.40296-5.97831-4.23894-1.05615-7.96155-3.40425-12.60861-3.40425l-3.87014,1.19861c-2.11947.50597-4.37175-.13754-5.97978,1.32633-2.40468.18175-2.58664,2.80985-3.17673,4.51443l.00008.00002Z"/><path id="path77" class="cls-3" d="m836.79483,401.58148l.88025.41263c1.87853-.87931,3.77176-1.88633,5.75354-2.62319,3.07843-.87439,5.47328,2.62319,8.05497.41754.96384-.69263,1.78511.31929,2.52767.8744,1.10648,2.02388,3.68322,1.88633,5.61585,2.43651-.96384-2.61828-2.15879-6.20919-5.52243-6.63165-1.33264-.59439-2.90135-.53544-4.18979-1.32633-3.54065-3.90531-5.84208,3.21266-9.71222,1.46879-1.37691,1.52774-3.07843,2.9474-3.40784,4.9713Z"/><path id="path79" class="cls-3" d="m837.67508,423.97191c1.47033,1.23299,2.98494,3.35512,5.28149,3.07512,2.8669,1.33615,1.66708,5.09899,3.23083,7.07866l1.65229-1.4737-.13769-.08843.23606-.23088.09837.13754c.45734-1.38529-.19179-3.8218-.97367-5.42813-1.05726-.72702-2.30143.04912-3.30954-.64352-.14264-1.46879-1.06221-2.20564-2.11947-3.12425-.7376-.55018-1.7064.18666-2.53254.13754l-1.42606.56-.00008.00004Z"/><path id="path81" class="cls-3" d="m843.42862,367.92708c1.51956,2.53477,4.46022,4.09689,6.8108,5.84076,1.92768.87931,4.46022,1.10037,6.53542.64352-1.97683-1.60633-3.77672-3.44355-5.42901-5.38392-.64418-.91861-.78683-2.06318-1.65725-2.89337-2.17357.41754-4.60286.37334-6.26004,1.793h.00008Z"/><path id="path83" class="cls-3" d="m845.96604,351.47567c2.12442,2.61336,5.38962,1.56213,8.3795,1.65055v-.31439l-4.60286-3.87092c-1.29332.41754-2.66536,1.56213-3.77672,2.53477h.00008Z"/><path id="path85" class="cls-3" d="m761.24625,308.11941l2.66532,8.27728c-.04919-4.69128,2.11455-8.59659,1.65721-13.37628l1.98178-2.9474-4.19467,1.28703c-1.10153,2.11231-2.01622,4.23443-2.10964,6.75937Z"/><path id="path87" class="cls-3" d="m763.04115,293.77539l3.62916-2.11721v-5.37901c-1.51952.92352-2.3555,2.48564-3.54065,3.72846l-.08851,3.76776Z"/><path id="path89" class="cls-3" d="m837.68491,302.14601c-.88025,1.14949-2.20801,1.42458-3.30954,1.65546,1.92768-3.54179,2.8522-8.46886,1.32776-12.4675,1.01794-.36351,2.12442-.54036,3.08826-1.10036l-.09837-.08842,2.5375-2.21546c3.35869-2.29897,2.07032-6.66113,3.31442-9.92292-1.65725-2.57898-2.15879-5.70322-4.55859-7.86956l.14264-.08351c-1.89324-2.39231-5.2962-2.12213-7.88284-3.31583-3.40296-1.14949-6.02405,1.1937-8.46309,2.76565-1.05726.17684-.41307,1.55721-1.56375,1.513-.64418,1.70458-1.43101,3.54179-1.88836,5.42322-4.55859-.64843-9.47616-.13263-13.11514,2.43652-1.93751-1.41966-4.28321-1.69967-6.54037-2.34318-1.65229-.3193-3.54065.28-4.73069-.64843-1.74575-1.96985-2.12438-5.56076-5.11919-6.06182-1.05234-.36842-1.27858-1.513-1.27858-2.52985-1.98178-.3193-3.73736-1.233-5.66995-1.65546-2.93579-1.33615-5.28145.78597-7.49438,2.20564-.96384.41755-2.07028.55018-2.98497,1.11019-1.65721,2.56915-3.22591,5.19234-4.28321,8.03658.32457,2.34318,1.33268,4.41619,2.53746,6.39095,1.05726,2.99161,4.3668,5.3348,7.17473,6.5334-1.33268,4.54882-1.33268,9.97695,0,14.5749,0,0-.07868.05403-.07868.04421,0,.00982-.14752.12772-.14752.12772-.44256,0-.90974.08842-1.27366-.12772h-.05902c.64418,4.39163,2.71451,8.23307,6.05845,11.52925,1.1999.42246.92452,1.84213,1.43593,2.76564.31474.40772.35897,1.28212.22128,1.65055-7.16981-.23088-13.57249,1.56213-19.32603,4.82391-1.47037.73685-.82123,2.76564-.95892,4.18531,4.04715-2.66248,8.41886-4.64215,13.24792-5.51164,2.07028-.13754,4.41599-.64352,6.39776-.09333l.23111,3.95443c-5.47324,2.84915-11.45793,4.50461-16.15422,9.19589.09342,1.41966-.17705,3.08004.23603,4.27864l4.18975-3.40916c4.04223-3.07021,8.27625-5.69831,12.92827-7.39798,1.24414,1.4737,2.53746,3.03582,4.19467,3.94952,2.80301-1.793,5.84208-3.11933,9.06308-3.94952,1.7064-1.01194,4.41107-.09333,5.51752-2.11231l.78683-4.18531c-.14261-.09333-.2262-.27018-.46226-.22106-2.15883-1.24282-3.58489-3.39933-3.40296-5.9341-.73273.36351-1.55887.5993-2.43912.64351-.73764-.18667-1.42118-.36351-1.74575-1.10528-.04919-.92352-.51141-2.29897.40816-2.9867,2.98989-1.84213,6.85999-1.93546,10.6367-1.65055,2.80301.36351,6.85999.22106,7.81891,3.54179-.12786.96282-.04427,2.01897-1.00811,2.66248-1.01302.55018-2.15883-.04912-3.08822-.45685-.72781,2.24985-1.97195,4.78462-4.50941,5.51164l.32948,2.67231c.31474,1.19861.40816,3.16846,2.30143,2.75582,4.37171,1.05615,8.23202,3.31091,12.05293,5.74743,1.28837-1.29195,2.30143-2.76564,3.21612-4.09198,6.8108,2.29406,12.70699,7.39798,18.31796,12.13346l.23606-3.86109c-5.34047-4.73549-11.28092-8.09061-17.44754-10.7138.23606-1.24282.51145-2.44143.55076-3.76776,7.32225.40772,14.26091,2.66248,20.29974,6.20919l-.09837-3.31091c-6.34858-3.39933-13.29707-5.6541-20.8947-5.74743-.27538-.42246-.36393-1.01194-.3147-1.42949,3.68322-.5993,6.29943-4.41128,7.18455-7.7271,1.87853-2.15652,4.60286-4.50461,3.9586-7.71728.08359-.26036.17701-.54527.27043-.82036.24589-.81053.45239-1.65055.17701-2.39722Z"/><path id="path91" class="cls-3" d="m844.08751,313.96018l3.77176-1.19861.40812-2.11231c1.06709-3.08003-1.18512-5.37901-2.30143-7.82044l-1.87853,11.13135h.00008Z"/><path id="path93" class="cls-3" d="m853.60307,328.53507c1.79494,1.96984,3.54553,5.14813,6.72721,4.17549-.23606-1.32633-.97367-2.42669-1.43101-3.62531-.83598-.97264-1.10648-3.72847-2.76365-2.75582-1.24417-.83019-1.55887-2.21546-2.35058-3.31582-.35897,1.69967-.13274,3.81689-.18196,5.52147Z"/><path id="path95" class="cls-3" d="m854.25213,341.99487c.69341.97264.88025,2.21546,1.55887,3.08495,1.24417.82036,3.08826.69264,4.60286.55018,1.38186-.3193,2.25716,1.1937,3.54553.31439-1.60315-1.00703-2.56698-2.84915-4.09629-4.17549-1.79982-1.42458-3.72262-.18176-5.61097.22597Z"/><path id="path97" class="cls-3" d="m856.69125,363.37826c3.17185,1.88634,7.21404,3.72847,11.44811,3.08495.45734-.23579,1.24417-.18667,1.33264-.74176-2.62109-.92352-5.37491-3.5418-8.12873-4.09198-1.52443-2.34318-3.50133.5993-5.43389.41263.04427.5551.59504.97264.78188,1.33615Z"/><path id="path99" class="cls-3" d="m866.25595,403.96887l.69341,1.47861c.69341,4.78461,3.72262,9.19097,2.06537,14.43244,1.38186.96281,1.79982,2.56914,2.67023,3.85618h.23111c1.05726-3.99373.32453-8.13482-.23111-12.13838.41307-3.63021-3.27015-5.74742-5.42901-7.62884Z"/><path id="path101" class="cls-3" d="m867.04766,356.89398c2.39485,1.84213,6.21584,2.02388,8.96966,1.10528-1.74571-.96281-3.67339-2.01897-5.10936-3.31091l-3.86031,2.20564Z"/><path id="path103" class="cls-3" d="m878.40234,371.01202c-.23606,1.93546,1.05726,3.5418,2.43912,4.50461.50649-1.14948,1.33264-2.11231,1.42118-3.39933-.40812-1.97967-1.5146-3.76776-3.30954-5.099-.32453,1.28212-.68846,2.51511-.55076,3.99373Z"/><path id="path105" class="cls-3" d="m878.54491,391.96805c-.32453,2.15651,2.06537,2.44143,3.07843,3.63513.8311,1.00703-.55076,1.69967-.55076,2.66248,1.74571,2.24985,2.75878,4.82883,2.75878,7.82043.69341-2.80003,1.75067-5.47726,2.1293-8.37062-.18684-2.01897-3.40296-1.60633-2.90135-3.85618.91469-2.29897-.18684-4.55373-.78683-6.61691-.18684-.32912-.59991-.97264-.95896-.78597-.84581,1.88634-2.91117,3.21266-2.76861,5.51165Z"/><path id="path107" class="cls-3" d="m884.84922,381.02827l2.3899,4.64215c1.06221-.12772,1.74084-1.14948,2.57186-1.87651.64914-1.93546-1.05726-3.17828-1.55887-4.7404-.4229-1.10528,0-2.57406-.78683-3.5418-.59504-.36351-1.29332-.96281-1.98178-.78597l-.63436,6.30252h.00008Z"/><path id="path109" class="cls-3" d="m887.92765,368.80639c1.88836,1.14457,4.04715,2.80003,5.05526,4.819,1.61785,4.69128,4.19467,8.9208,6.07807,13.46962.69341,3.17337,1.24417,6.00287,2.11947,9.13203.32453.81545.13769,2.42669,1.43101,2.29406.36393-3.49267,1.05726-6.8478,1.10153-10.48293-1.1458-1.513-2.67519-2.15651-4.09629-3.08495v-.31439c.18684-.78597.8311-1.70458,1.79982-1.55721.40812-.47159,1.65229-.92352,1.10648-1.7488-2.39485-2.38739-2.25716-6.50885-6.08303-7.2506-1.32776-.55018-1.65725-1.92564-1.78511-3.21266-1.79982-1.50808-4.475-2.02879-6.72721-2.06319Z"/><path id="path111" class="cls-3" d="m890.13071,393.72175c2.35058,2.1516,1.52939,5.28076,1.33759,8.17904-.36393,1.74879,1.84409.73686,2.5375,1.65547,1.42118,2.11721.59504,5.19724.08359,7.49623,1.24905-1.89124,2.67519-3.54671,3.63902-5.60988-.04915-.78597.95896-1.14949.92452-2.11231.40812-1.33615-1.15068-.73686-1.79494-.88422-.55076-.13754-1.15068-.50597-.97367-1.2379,1.1999-2.30389.09837-5.05971-.36393-7.35376-.55076-1.89125.23606-4.41128-.64418-6.06674-1.47033,2.02388-5.84696,2.48564-4.74543,5.9341l-.00008-.00003Z"/><path id="path113" class="cls-3" d="m894.41391,361.07438c4.10125,4.1411,7.09113,8.29693,11.50708,12.30048.09837-1.78318-.13769-3.44846-.23111-5.19725-.64914-1.23299-1.84409-2.15651-2.85707-3.07512-3.26032-.32421-4.96671-4.71584-8.4189-4.02811Z"/><path id="path115" class="cls-3" d="m905.13912,382.98829c.09342.41263.28033.77615.45734,1.1937,1.79494,2.9474,3.49638,5.9734,4.74543,9.14676-.3688-3.39442,1.93751-7.63377-1.10648-10.24713-.41307-1.10528-1.79494-.73685-2.67023-.64843l-1.42606.5551Z"/><path id="path117" class="cls-3" d="m916.18398,416.57393c1.29332.58457,2.94562-.47159,4.18979-1.19861,1.15068-.28,2.11947.36352,2.99477.96281.36393.73193,0,1.41967.12786,2.11231,2.76861.78106,5.47816,1.79301,7.92216,3.39934l.77205-.77615c.18684-1.97967-1.37203-3.39443-2.84724-4.4997-.96384-.56493-2.3998-.23579-3.07843-1.11511.45734-.72702.45734-1.83231.40812-2.66248-1.52443,0-2.48827-.46177-3.73244-1.19861-.77205-.22597-1.47033-.86947-2.11452,0-2.29648,1.56704-2.43417,3.86109-4.64218,4.9762h.00008Z"/><path id="path119" class="cls-3" d="m919.40986,358.71645c1.1458-.31439,2.35058-.64843,3.31442-1.46879,3.07348-2.80494,7.54353-.92352,11.12845-.96773-.68358-1.24282-1.65725-2.47582-2.52767-3.5418-1.28837-.50597-2.48827-1.10528-3.9586-1.10528-3.13246-1.8323-5.2421,1.24282-7.6419,2.75582-.63931,1.25264-.95896,3.08495-.3147,4.32777Z"/><path id="path121" class="cls-3" d="m919.4984,368.17761c0-.12772,0-.27509.13769-.31439.41307.36843-.04915,1.23791.64418,1.41966,1.19495-.58948,2.30143-1.41966,3.40296-2.19582,3.08826,0,4.92739-2.9867,7.9566-2.9867,5.06021.9137,10.0859,1.92564,14.49697,4.40636-.3147-2.9867-2.89647-5.69831-5.5126-7.03938-1.48016-.50597-2.63092.28492-3.68817,1.10528-3.08826,1.94037-1.47033-2.80003-3.63407-2.89828-2.80793.88422-5.70927,1.84213-8.83197,1.57195-1.84409.68281-3.13741,2.37757-5.20278,2.20073-.09342,1.51791-.32453,3.36004.23111,4.73057h.00008Z"/><path id="path123" class="cls-3" d="m921.61787,378.43948c.95896,1.00703,2.56698.82036,3.9586,1.00703l3.998-1.55721c.04915-.73685-1.19495-.92843-.92452-1.74388,1.10648-1.24282,2.63092-.37334,4.00287-.88422,1.94246-.27018,3.91928-2.20073,5.84208-.77615-.04427.22597.09837.5551-.08359.77615-.60974,1.42949.41307,2.29897,1.5146,2.84915,2.25716.42246,4.37175,2.49055,6.62891,1.56213-.22623-1.88142-.73273-3.62531-1.1999-5.42322-1.88341-.32421-3.21612-1.88634-4.96671-2.53477-.78683.73685-1.79494,1.29195-2.76365,1.19861-3.54553-.82527-7.77959-3.03091-11.36451-.77615-1.29332,1.55721-3.59475,1.10037-5.34047,1.78318.09837,1.57686.27538,3.08986.69829,4.51935Z"/><path id="path125" class="cls-3" d="m923.13247,405.76188c-.28033.78106-1.05726,2.07301.36393,2.43651,2.95057.09825,6.72233-1.41967,9.02864.8744.777.60422.40812,1.83722.36393,2.62319l3.86031,3.22248c.37375-1.93546,1.05726-3.68425,1.10648-5.75726-.3147-1.46879-1.05726-2.89828-2.34075-3.86109-2.5375,0-4.0127-2.96214-6.72721-2.58389-1.42118-.32913-2.6604.93334-4.09629.93334-.64418.64352-1.00811,1.42949-1.55887,2.11231l-.00015.00002Z"/><path id="path127" class="cls-3" d="m924.23896,384.09357c.59504,1.23299,1.29332,3.26179,2.43912,3.39933,2.71451-1.1937,6.66823-1.93546,9.71222-.64352,1.01299.18176,1.01299,1.33124.78683,2.07301,1.55887.91861,3.45211,1.64563,5.1044,2.66248l-.45734-2.75582c-.09837-2.99161-3.87014-3.27162-4.10125-6.21902-3.08331-1.00703-6.53542-1.32633-9.80069-.54527-1.06709.96773-2.57681.83019-3.87014,1.11019-.08359.36351.13769.58948.18684.91862Z"/><path id="path129" class="cls-3" d="m925.02579,398.98777c1.79494-.50597,2.93579-2.48564,4.87329-2.66248,2.94562.04912,5.57158,1.23299,7.40584,3.76775,1.11631.73193.88025,2.62319,2.30143,2.62319-.41307-2.25967.32453-4.32777.23606-6.62673-1.94246-3.21266-6.7125-.73685-8.51232-4.50461l-3.40296.22597c-2.43912.5993-1.78999,3.45337-2.12442,5.38392-.27538.5993-.82615,1.05615-.777,1.793h.00008Z"/><path id="path131" class="cls-3" d="m941.90283,419.09396c1.43101,2.84916,4.56842,5.01549,4.88312,8.2822.7376-.87931,1.24417-1.88633,1.75067-2.84916-.04915-.92352-1.11136-.92352-1.52939-1.65547-.41307-1.1937.23606-2.24985.41803-3.31582-.59504-1.70458-2.02605-3.31091-3.63407-4.31795,0,0-1.88836,3.85618-1.88836,3.8562Z"/><path id="path133" class="cls-3" d="m947.57773,411.83353l3.30954,4.50461c1.42118-2.25476,1.42118-5.56076.87042-8.2822-.3147-.50597-.91957-1.33124-1.74571-.96281-1.24905,1.29195-1.42606,3.2618-2.43417,4.7404h-.00008Z"/><path id="path135" class="cls-3" d="m934.08392,285.99426c1.1999.5993,2.35058,1.14949,3.77176,1.23791.97367-.50106,2.21784-.86948,3.41279-.55018,1.70144,1.10528,3.77176-.23088,5.74371-.13754-1.74084-1.65055-3.72749-2.66248-5.74371-3.6253-2.58169.54527-4.64713,2.37757-7.18455,3.07512Z"/><path id="path137" class="cls-3" d="m952.0871,290.31711c2.42929.22597,4.17996,2.38248,5.83713,4.19022,2.0752.31439,3.63902,1.78318,4.87825,3.306l-.78188-2.44143c-.55076-2.44143-2.07032-4.32776-3.6292-6.24849-2.20801.13754-4.38158.3193-6.30431,1.1937Z"/><path id="path139" class="cls-2" d="m780.33626,270.14215l1.33268.13754c3.59475,1.793,9.39257,2.71161,9.71218,7.90395-3.62424,1.42949-7.12554,3.36495-10.02201,6.29761-2.20797-2.25476-6.67806-1.01194-7.41075-4.96146.69337-3.72355,2.02113-8.405,6.38793-9.37765h-.00004Z"/><path id="path141" class="cls-2" d="m783.7982,293.45609c4.17992-.36351,8.23202.22106,12.56438-.13754,1.05726.45685,2.15883,1.38037,2.66532,2.43652-.13769,4.96146-1.65721,9.70186-1.88836,14.80086-1.88344.79089-3.72753,2.34809-4.18484,4.41619-1.7064.50106-3.22591,1.52283-4.88312,2.29406-.73764-1.55721-.59995-3.90531.69829-5.18742,1.78999-2.53476,6.442-1.93546,6.06337-5.9341,1.1999-1.93546.04919-4.41619.09833-6.44007-.46226-1.513-.91957.50597-1.65721.45685-1.47037.31439-2.98989.41263-4.27338-.31439-.97367-1.02177-2.16866-1.84213-2.44404-3.22249-1.28841-.64351-2.80301-1.65546-3.4472-2.99161l.68846-.17685Z"/><path id="path143" class="cls-2" d="m788.85837,323.43116c1.96703.27018,4.04715-.5993,5.74863.36351-.3688.64352-1.33268.91861-2.11455,1.10528l-3.08331,1.42949c-1.15072-.28492-.50649-2.12212-.55076-2.89828Z"/><path id="path145" class="cls-2" d="m796.91334,285.03635c1.97195-.64351,4.09633-1.96985,6.21089-1.32633-1.51952,1.51791-2.71451,3.49267-3.86031,5.32497l-6.30431-.13264c.67863-1.65055,2.42434-3.03091,3.95373-3.866Z"/><path id="path147" class="cls-2" d="m815.36895,283.52335c2.61613-.45685,2.47844,2.94249,4.87329,3.08495.41803.55018,1.01794,1.05124.78188,1.87651-1.38183.55018-3.40296.28-4.97658.64351-2.07028-1.14949-.72781-4.73549-4.00291-4.50461-.17705-.27018-.55076-.82527-.08851-1.01194,1.01794-.3586,2.34075-.22597,3.41279-.08842h.00004Z"/><path id="path149" class="cls-2" d="m813.71174,295.8484c1.1458-1.61616,2.90135-1.74388,4.55368-2.073l11.92016.23088c.50649.45685-.45734.86948-.45734,1.42458-.7376.68773-1.79982.8744-2.444,1.52283-1.55887.04912-1.43101,1.87651-2.53254,2.66248-1.7064,1.69967-4.18484.92352-6.16662.64351-.69337-.50597-1.47037-1.19861-1.7949-1.97967l-.55076.55018c.69337,2.57897.50649,5.43304,1.00811,8.0464l2.85216,1.89125c.04915,4.22952,5.02081,3.08003,7.18455,5.42813-.50649,1.513-1.51956,2.80003-2.61613,4.09198-1.75067-1.70458-3.73244-2.81477-5.847-3.54179-.18196-2.48564-2.89643-3.94952-4.4209-5.19725-.41307-4.50461-.50649-9.10255-1.23431-13.46962l.54585-.23088Z"/><path id="path151" class="cls-2" d="m818.03431,324.2073h5.52731l-.69341,2.89828-5.52735-2.3481c-.12786-.45685.3688-.59439.69337-.55018h.00008Z"/><path id="path153" class="cls-2" d="m827.97269,272.12674l4.09629-1.29194c2.35058,1.10036,4.55859,2.48564,6.71738,4.04285,1.7064,3.13407,1.42118,7.35376.64418,10.84644-1.24417,1.38528-3.9586,0-4.96671,2.20564h-.18684c-1.52443-4.31794-5.84208-8.17412-9.84991-10.15871.64418-2.20073,1.33759-4.35724,3.54553-5.64427h.00008Z"/><path id="path155" class="cls-3" d="m923.95862,447.27602h24.55338c3.63407-.55018,7.49926-.46177,10.39572-3.13407,12.29391,1.89124,24.75996-1.14458,34.42295-7.89904,5.09953-4.11654,9.68266-8.87167,13.38561-14.06401,3.26527-4.57829,5.84696-8.85695,7.51404-13.98051,1.23922-3.16846,2.22272-6.4548,2.96528-9.83941,3.50621-15.9307,1.66708-33.74774-3.51604-48.91703-.96384-2.81477-2.04076-5.52638-3.22595-8.12992-6.48132-13.38119-15.29363-27.81364-28.88574-36.2825-7.65668-4.76988-14.69372-12.1482-19.01624-19.77214-2.35058-2.12213-4.60774-4.92216-7.6419-5.42813.8311,1.38036,1.74571,2.71161,1.98178,4.31794l-.18684.23088c-3.21612.09333-5.75354-1.60633-7.96155-3.68425l2.444-2.20073c-.92452-.45685-1.98178-.64843-2.99477-.86948-9.29915-1.05615-16.93609,3.21267-25.16808,5.28567l-.13769.45685c5.05526,2.24985,6.11251,7.81061,9.06308,11.5882.7376-.87931,1.98178-.23579,2.98989-.32913,1.47033.09333,2.8522,1.14949,4.27338.78106.04915-1.23791-.63436-2.20073-.87042-3.30109.87042-.42246,1.93751-.04912,2.90135,0,2.66536,1.55721,6.94849-.28491,8.60574,3.30109-3.03904.19158-5.89123.82527-8.74343,1.51791.18196,1.14949,1.33264,2.073,1.24417,3.22249-2.444-1.02177-5.01594-1.65055-7.73532-1.97967l-.12786.40772c3.45211,4.04777,8.18283,6.44007,13.01681,7.86956,6.94849,1.60633,13.06596-1.69967,19.77846-.55018,16.48858,7.54043,30.56265,24.78764,36.68994,41.15554.29999.78597.58521,1.58177.86059,2.38249,5.12902,14.94823,6.09781,33.3351.96384,48.91703-2.73416,6.4941-5.74371,12.60506-10.56786,17.8858-1.82443,2.23512-3.84552,4.23443-6.03875,5.9341-6.90917,5.3741-15.42637,7.73693-24.19936,5.32497-.54581-.35861-1.66212-.45684-1.48016-1.41967.30982-1.2772.59504-2.58389.84581-3.9053,1.4605-7.48148,2.12442-15.34123,1.74084-23.19113-.01966-.33895-.02461-.6779-.03932-1.01194-.48196-11.40644-2.75878-21.6683-6.95832-31.53228-2.68502-5.66392-5.88636-11.83872-9.91384-17.38475-4.80449-6.61201-10.77436-12.32505-18.43592-15.1742-4.69628-1.24282-10.49897-1.46879-14.03475,2.44143-2.5375,2.20564-3.5898,5.19233-3.22595,8.45413-3.9586,2.51511-8.40907,3.87092-13.25287,4.27864-1.18512.10316-2.40468.53053-3.6292.52562-1.17529.05403-2.32109,0-3.42757-.14245-5.84208-.7172-11.73332-3.84636-16.2132-7.4471-.09342-2.37757-.23606-4.64215-.32453-7.16218-2.57186-1.33615-4.68645-3.87092-4.87329-6.85271l.23606-.23088c1.47033.45685,2.75878,1.1937,4.08647,1.97967-.59991-3.586-1.28349-7.1278-3.07843-10.25204-1.65725-.69264-3.32425-1.23791-4.88312-2.073-1.79494-1.1937-2.94562-3.35512-3.21117-5.33479,1.60315,1.57195,4.41107,1.01685,5.65517,2.67231-2.15879-6.39095-2.20801-13.7005-5.75354-19.54126-1.79494-4.32285-6.49122-6.29761-9.71222-9.47589-1.24417-1.513-1.74571-3.6253-4.00287-3.8611-1.83913-.45685-1.98178-2.52985-2.30143-3.85618,1.15068.13263,2.11452.91861,3.08826,1.10036-2.67519-7.08359-5.02081-14.93841-12.24476-19.44302l-1.24417.77615c-2.80305.42246-5.79781.5993-8.60574.69264,1.24417-1.84213,3.45211-2.61827,5.20278-3.45337-2.03093-1.513-3.69313-1.88142-6.23055-2.29897-1.47033,1.47861-4.12586,2.20564-6.01422,2.61827l-.22623-.17684c-.04915-1.65054-.43273-3.68425,2.05554-4.09197-2.3899-1.14949-6.34858-.69264-8.79262,0-.69337,1.793-2.65549,3.39933-2.52763,5.51164-1.41627,1.47861-2.42929,3.44846-3.90945,4.50952-.03936-3.54179,1.4605-6.8085,2.10964-9.79028-2.07028.77615-4.17501,1.87651-6.19614,2.84915-3.27019-1.88634-6.71247-3.77267-10.20393-5.19234-.32457-.14246-1.01794-.28-.88025.31439,2.98989,2.16143,1.83426,6.20428,2.15391,9.28922l-1.88836-1.55721c-.91957-2.3481-3.57997-4.04776-4.0324-6.62674-3.13249.5993-5.13393,1.42949-8.03531,2.67231l-.40309.22597c2.15883,0,3.998,1.69967,5.06017,3.39933-3.26527.18667-6.16662-1.10527-9.3827-1.41966-.32457-.32421-.59504-.69264-1.11136-.64352-1.61298.5993-2.98497,1.74879-4.41599,2.85407-3.17181,3.11933-6.39776,6.57761-7.91237,10.70889,1.06221.18667,2.39485.14246,3.17677.78597-1.7408,1.05615-3.26527,2.84915-4.97167,3.8611-.59504,2.39231-.50649,5.10392-.64418,7.7271-1.33268,2.01897-3.12758,3.81197-4.00291,6.06182-2.8522,9.2401-3.58984,19.49214-3.17181,29.97507-.92452.86948-2.12438,1.4344-2.98989,2.11721l.09342,9.37765h.2262c.4229-1.97967,2.76861-3.08004,4.18975-4.41128h.46226c-.2262,2.11231-.50649,4.22461-.55076,6.39095l-2.67023,2.20564c-2.6604,2.34318-.40816,5.87515-.64418,8.81764.19179.78597.31965,1.93546.88516,2.12212.31474-1.14948,1.32773-1.97967,1.96703-2.9867,1.15072-.28492,2.15883-1.19861,3.21608-1.33615-.58521,2.29406-1.372,4.54882-2.30143,6.75446-.43765.28983-.95892.68772-1.40152,1.14948-.46717.50597-.84089,1.08563-.92943,1.70949,2.06537,10.89556,5.32081,21.64866,9.05325,31.9007-2.53746,4.26882-3.96847,9.30888-6.07811,13.72507-.29996.61895-.57042,1.24282-.82615,1.88634-2.11455,5.34953-2.75874,11.31801-5.38965,16.46123-1.05726-.74177-2.20306-1.29195-3.39805-1.79792-4.9815-1.65054-10.73012-.59438-14.35928,3.21757-3.22591-.59931-6.54037-.04912-9.07783,1.65054-1.80965,1.36563-3.21608,3.00635-4.01766,4.92706-.54094,1.33124-.80157,2.78039-.71303,4.36706-2.0752,1.42458-3.18168,3.63021-3.86522,5.83585-.96875,4.97129.77696,10.13414,3.62916,13.95103h204.84607v.00495Z"/><path id="path157" class="cls-2" d="m1013.67964,349.44688c-.96384-2.81477-2.04076-5.52638-3.22595-8.12992-6.48132-13.3812-15.29363-27.81364-28.88574-36.2825-7.65668-4.76988-14.69372-12.1482-19.01624-19.77214-2.35058-2.12213-4.60774-4.92216-7.6419-5.42813.8311,1.38036,1.74571,2.71161,1.98178,4.31794l-.18684.23088c-3.21612.09333-5.75354-1.60633-7.96155-3.68425l2.444-2.20073c-.92452-.45685-1.98178-.64843-2.99477-.86948-9.29915-1.05615-16.93609,3.21267-25.16808,5.28567l-.13769.45685c5.05526,2.24985,6.11251,7.81061,9.06308,11.5882.7376-.87931,1.98178-.23579,2.98989-.32913,1.47033.09333,2.8522,1.14949,4.27338.78106.04915-1.23791-.63436-2.20073-.87042-3.30109.87042-.42246,1.93751-.04912,2.90135,0,2.66536,1.55721,6.94849-.28491,8.60574,3.30109-3.03904.19158-5.89123.82527-8.74343,1.51791.18196,1.14949,1.33264,2.073,1.24417,3.22249-2.444-1.02177-5.01594-1.65055-7.73532-1.97967l-.12786.40772c3.45211,4.04777,8.18283,6.44007,13.01681,7.86956,6.94849,1.60633,13.06596-1.69967,19.77846-.55018,16.48858,7.54043,30.56265,24.78764,36.68994,41.15553.29999.78597.58521,1.58177.86059,2.38249,5.12902,14.94823,6.09781,33.3351.96384,48.91703-2.73416,6.4941-5.74371,12.60506-10.56786,17.8858-1.82443,2.23512-3.84552,4.23443-6.03875,5.9341-6.90917,5.3741-15.42637,7.73693-24.19936,5.32497-.54581-.35861-1.66212-.45684-1.48016-1.41967.30982-1.2772.59504-2.58389.84581-3.9053,1.4605-7.48148,2.12442-15.34123,1.74084-23.19113-.01966-.33895-.02461-.6779-.03932-1.01194-.48196-11.40644-2.75878-21.6683-6.95832-31.53228-2.68502-5.66392-5.88636-11.83872-9.91384-17.38475-4.80449-6.61201-10.77436-12.32505-18.43592-15.1742-4.69628-1.24282-10.49897-1.46879-14.03475,2.44143-2.5375,2.20564-3.5898,5.19233-3.22595,8.45413-3.9586,2.51511-8.40907,3.87092-13.25287,4.27864-1.18512.10316-2.40468.53053-3.6292.52562-1.17529.05403-2.32109,0-3.42757-.14245-5.84208-.7172-11.73332-3.84636-16.2132-7.4471-.09342-2.37757-.23606-4.64215-.32453-7.16218-2.57186-1.33615-4.68645-3.87092-4.87329-6.85271l.23606-.23088c1.47033.45685,2.75878,1.1937,4.08647,1.97967-.59991-3.586-1.28349-7.1278-3.07843-10.25204-1.65725-.69264-3.32425-1.23791-4.88312-2.073-1.79494-1.1937-2.94562-3.35512-3.21117-5.33479,1.60315,1.57195,4.41107,1.01685,5.65517,2.67231-2.15879-6.39095-2.20801-13.7005-5.75354-19.54126-1.79494-4.32285-6.49122-6.29761-9.71222-9.47589-1.24417-1.513-1.74571-3.6253-4.00287-3.8611-1.83913-.45685-1.98178-2.52985-2.30143-3.85618,1.15068.13263,2.11452.91861,3.08826,1.10036-2.67519-7.08359-5.02081-14.93841-12.24476-19.44302l-1.24417.77615c-2.80305.42246-5.79781.5993-8.60574.69264,1.24417-1.84213,3.45211-2.61827,5.20278-3.45337-2.03093-1.513-3.69313-1.88142-6.23055-2.29897-1.47033,1.47861-4.12586,2.20564-6.01422,2.61827l-.22623-.17684c-.04915-1.65054-.43273-3.68425,2.05554-4.09197-2.3899-1.14949-6.34858-.69264-8.79262,0-.69337,1.793-2.65549,3.39933-2.52763,5.51164-1.41627,1.47861-2.42929,3.44846-3.90945,4.50952-.03936-3.54179,1.4605-6.8085,2.10964-9.79028-2.07028.77615-4.17501,1.87651-6.19614,2.84915-3.27019-1.88634-6.71247-3.77267-10.20393-5.19234-.32457-.14246-1.01794-.28-.88025.31439,2.98989,2.16143,1.83426,6.20428,2.15391,9.28922l-1.88832-1.55721c-.91957-2.3481-3.57997-4.04776-4.0324-6.62674-3.13249.5993-5.13393,1.42949-8.03531,2.67231l-.40321.22597c2.15883,0,3.998,1.69967,5.06017,3.39933-3.26527.18667-6.16662-1.10527-9.3827-1.41966-.32457-.32421-.59504-.69264-1.11136-.64352-1.61298.5993-2.98497,1.74879-4.41599,2.85407-3.17181,3.11933-6.39776,6.57762-7.91237,10.70889,1.06221.18667,2.39485.14246,3.17677.78597-1.7408,1.05615-3.26527,2.84915-4.97167,3.8611-.59504,2.39231-.50649,5.10392-.64418,7.7271-1.33268,2.01897-3.12758,3.81197-4.00291,6.06182-2.8522,9.2401-3.58984,19.49214-3.17181,29.97507-.92452.86948-2.12438,1.4344-2.98989,2.11721l.09342,9.37765h.2262c.4229-1.97967,2.76861-3.08004,4.18975-4.41128h.46226c-.2262,2.11231-.50649,4.22461-.55076,6.39095l-2.67023,2.20564c-2.6604,2.34318-.40816,5.87515-.64418,8.81764.19179.78597.31965,1.93546.88516,2.12212.31474-1.14948,1.32773-1.97967,1.96703-2.9867,1.15072-.28492,2.15883-1.19861,3.21608-1.33615-.58521,2.29406-1.372,4.54882-2.30143,6.75446-.43765.28983-.95892.68772-1.40152,1.14948-.46717.50597-.84089,1.08563-.92943,1.70949,2.06537,10.89556,5.32081,21.64866,9.05325,31.9007-2.53746,4.26882-3.96847,9.30888-6.07811,13.72507-.29996.61895-.57042,1.24282-.82615,1.88634-2.11455,5.34953-2.75874,11.31801-5.38965,16.46123-1.05726-.74177-2.20306-1.29195-3.39805-1.79792-4.9815-1.65054-10.73012-.59438-14.35928,3.21757-3.22591-.59931-6.54037-.04912-9.07783,1.65054-1.80965,1.36563-3.21608,3.00635-4.01766,4.92706-.54094,1.33124-.80157,2.78039-.71303,4.36706-2.0752,1.42458-3.18168,3.63021-3.86522,5.83585-.96875,4.97129.77696,10.13414,3.62916,13.95103h81.32178c-1.19495-1.41967-2.30143-3.39934-3.13741-5.09899-1.7408-2.6281-.54585-6.34674-.73273-9.38256,1.65721-3.34039,3.33903-6.70042,5.2323-9.96712.38358-.65825.76713-1.30177,1.16055-1.94037l3.73244-1.42458c1.97686,0,3.63899-1.42458,5.52243-.92352,2.53254,2.53476,2.53254-2.52494,4.97658-2.75582,5.70439-.73686,11.36451-.18666,14.58056,4.64215,0,.64352,1.02282.64352.78683,1.24281-.7376.22105-1.43101-.23579-2.20801-.23579-3.49638-.86947-7.59763-3.08494-11.04486-1.10527-.13278.82527-.30982,1.66528-.477,2.49055-.17213.87931-.32948,1.73897-.40324,2.56424,2.25221.64352,4.14057,2.25476,5.84208,3.99864,1.15068-2.24985,3.5898-3.2618,5.75354-3.99864,1.88836.41263,3.9586.46177,5.52731,1.65547,2.90135,2.6723,1.47033,7.22114,1.1999,10.62046,2.61613,1.46879,5.51748,2.30389,8.18283,3.72355-1.24417,1.11511-2.89152,1.56704-4.41107,2.12212l-4.41595-.87931c-.50649-.36352-1.38674-.36352-1.5687-1.00704-1.47033,1.55722-3.26527,3.63021-4.18484,5.64919h63.04314c-.8311-1.88633-1.79494-3.35512-2.94562-5.09899-1.29332-2.76073-.777-6.53341-.91957-9.4759l5.89123-8.96501c3.21612-.04421,6.86002-1.24281,10.35145-.64352.17701-.07859.34427-.16702.50649-.27018,1.45067-1.00211,1.89324-3.33057,4.0521-3.04073,3.86031-1.05124,6.8108.69754,9.71222,2.44144-.09837.23088-.19179.43229-.29504.59931-1.21461,1.94037-3.48655-.22597-5.1438.35861-.69341.73686.32453,1.60633.45734,2.44144.59991.82036-.59991.72702-1.00811.86947-.96384.13754-2.0211-.09334-2.76365-.86947-.18196-.23579-.04427-.50597-.40812-.55018-.83598,1.37054-2.03093,2.61828-2.35058,4.18041,1.05238,1.01686,2.47844,2.02388,2.98989,3.31582,1.05726,1.5179-.8311,2.66248-1.19495,3.99864-.13769.27018-.56059.27018-.69341,0-.97367-.55018-1.79494-1.93546-2.85707-1.57195-.92452,4.09689.31965,8.18886-.23111,12.28084,1.79494.42245,3.90945-.09334,5.84208,0l.78683-8.6457c.82127-5.60497,4.14552-10.29626,8.05497-14.5798,4.22416-2.88355,6.94849,2.81478,10.07119,4.78952.51145.09334.32948.64352.55076.96281-.04427.92352-1.00811,1.28704-1.65229,1.56704-1.93751.68281-3.36364-1.42949-4.55859-2.6723-1.1458,1.24281-1.65725,2.89337-2.98989,3.866l.45734.13264c1.52939,1.52283,2.98989,3.12916,3.32425,5.15304-.18684,1.83231-1.10648,3.6253-2.76861,4.55372-1.23434-2.12212-2.25221-4.46531-3.07348-6.62673.04427.09825-.0541.13754-.14264.23579-2.5375.68281-3.21117,3.53198-3.63407,5.83585.13769,2.25476-1.56375,3.17337-1.11136,5.42322h32.81981c3.63407-.55018,7.49926-.46177,10.39572-3.13407,12.29391,1.89124,24.75996-1.14458,34.42295-7.89904,5.09953-4.11654,9.68266-8.87167,13.38561-14.06401,3.26527-4.57829,5.84696-8.85695,7.51404-13.98051,1.23922-3.16846,2.22272-6.4548,2.96528-9.83941,3.50133-15.91596,1.66212-33.733-3.52099-48.89736Z"/><path id="path159" class="cls-2" d="m802.48987,434.77412c1.7949-1.14949,4.69628-1.42949,5.10444-4.09198-.72781-.55509-1.37691-1.24774-2.20797-1.42949l-1.88836.55018c.13769-1.10527.73764-2.34319,1.11627-3.53689l6.06828-1.97476c-.83598,2.75582-1.15072,6.20428-1.43101,9.37765.55076,4.69129,1.24414,9.70185,3.63899,13.60717h-6.54037c-.73273-4.31795-5.25196-7.452-3.86031-12.5019l.00004.00002Z"/><path id="path161" class="cls-2" d="m816.62296,429.25265h.36389l4.41103,4.00355.64418-.13754c-.35897,4.69129-.59504,9.28922-.64418,14.15735h-4.77987c-.97367-4.54882-2.58173-9.33344-2.39485-14.24578.82615-1.24281,1.37691-2.80985,2.39977-3.77759l.00004.00002Z"/><path id="path163" class="cls-2" d="m826.46296,433.67376c.88025-1.14458,1.24417-3.08494,2.98989-3.306,1.24417.03439,2.39485.22105,3.32425,1.10036,1.60802,2.01897.03444,4.60286-.55076,6.62182-.64914,3.08003-1.7605,6.29269-2.76861,9.19097h-4.64713l1.65229-13.60717.00008.00002Z"/><path id="path165" class="cls-2" d="m896.27766,432.24427c1.01299,1.29195,1.33264,3.03582,2.8522,4.18531,1.33759-1.83722,1.65725-4.69129,1.01299-7.03446l-1.33264-1.33615c1.7064-.40772,3.49638-.55018,5.20278-.86947-.7376,2.43651-2.1293,4.64215-1.88836,7.49132.04427,4.14109.73273,8.2822,1.10153,12.59522h-5.06021c-1.83913-4.04777-3.68322-7.90395-3.54553-12.59522.55076-.83018.91957-1.79792,1.65725-2.43651v-.00004Z"/><path id="path167" class="cls-3" d="m918.04773,343.91559c-.04915,1.1937-.91957,2.52003-.14264,3.5418,1.11631-1.24282,2.95057-1.19861,4.42578-1.7488,4.09629-.37334,8.00582.91861,11.82186,1.84213-.96384-1.52282-1.60802-3.22249-2.67023-4.59795-2.11947-.5551-5.34047.91861-5.70439-2.21546-1.28837-1.10037-3.30954-.31439-4.64713-.22597-1.29332.91861-2.3457,2.06809-3.08331,3.40425h.00008Z"/><path id="path169" class="cls-3" d="m777.3906,304.2141c-.01966-.00982-.03936-.02947-.06885-.04912,0,.01965.00983.02947.00983.04912h.05902Z"/><path id="path171" class="cls-3" d="m794.12508,345.08472l2.76365-2.66248c.23603,0,.41799.04421.55076.22106l-.2262,5.10391c1.33268,1.24282,2.98006,1.65055,4.73069,1.7488.14261-1.37546,1.1999-2.3481,1.79982-3.5418.50649-.96281.18688-2.38739,1.19495-3.07021l.32457.31439c.31474,1.52282.2262,3.22249,1.01302,4.54882.09342.73685.22128,1.65055.30982,2.29897,2.03096.09333,3.87505-.45685,5.43393-1.19861-.09342-1.74388.51141-3.16846.77696-4.76988.4229-.5551-.50649-1.57195.64418-1.52282.64914,1.38037,1.7949,2.80003,2.44404,4.27864,2.66532-2.71161,3.78159-6.24849,4.41107-9.93274-.77696-1.05124-1.97195-1.05124-2.90135-1.74388-7.81891-2.52494-17.84583-3.03091-25.39431.87439-.50649,3.11442.13769,6.56288,2.12438,9.05342Z"/><path id="path173" class="cls-3" d="m720.98125,431.35514c-.2803,3.5418,0,6.86253.2262,10.36012.73764,1.14949,2.08011,2.48564,3.41279,2.56914l.2262-2.3481c.55076-3.2618-1.19495-6.72498.64914-9.48572,1.28841.40772,2.57681,1.05615,3.68326,1.65054.55076-3.03091-.23603-6.57762-3.13741-8.41974,0,0-5.06017,5.67374-5.06017,5.67376Z"/><path id="path175" class="cls-3" d="m732.35065,426.38385c-1.7949,5.38392-3.12758,12.01066-.96384,17.67949,1.24414-.83509,2.52763-1.61615,3.62916-2.76073-.2262-4.32777-.82615-8.93554,1.75067-12.53136,2.25225.69263,3.77668,2.85407,4.64218,4.96145,1.52935-1.92563,2.03096-4.59795,1.43593-7.16218.09342-2.02879-2.20797-1.56213-3.31446-2.3923.36389-1.70458.31474-3.66952,2.11455-4.64215l-5.51752.55018c-1.4261,2.02879-2.98989,3.99373-3.77668,6.29762Z"/><path id="path177" class="cls-3" d="m743.72004,442.27035c.23111.40772,0,1.14949.46717,1.24281.68354-3.866,3.81112-6.36639,5.52243-9.77555.82123-1.13474.78188-2.75582,2.11455-3.6253,1.78999,0,3.08331,1.28704,4.83397,1.42458.55076.41754-.28521.78597-.32948,1.24281-.36389,3.13407-1.55887,5.71796-1.33268,8.94045h.31965c2.43912-2.57898,4.09633-5.35445,5.89123-8.29693l.31474-2.61337c.4229-3.12916-2.98006-5.14813-5.20278-6.44007l1.98178-2.53476-2.76365-.96281c-3.221.31929-6.12238,1.65547-8.37463,4.19022-2.80301,5.13831-3.26036,10.9545-3.44228,17.2079l-.00004.00002Z"/><path id="path179" class="cls-3" d="m756.10249,414.98724c1.05234.31439,2.02113-.55018,3.07348-.09825,4.23894,1.56704,8.65492,3.17337,11.83165,6.71025l3.77668,9.61344,1.88836-5.93901-1.24414-3.20775c-1.06221-2.29897-3.95864-2.11231-5.94042-2.20564-.82615-.92352.04427-1.97967.32457-2.84916.96384-3.26671-3.03904-3.08494-4.6471-4.41618.09342-1.96985-2.30143-1.29195-3.63899-1.46879l-.45734-.55018c-.27538-.42245-.96384-.42245-1.33759-.09825-.08359-.13754-.27047-.23088-.17705-.45684l-1.00811.22597c-1.43593,1.24281-2.39977,2.84916-2.44404,4.7404l.00004-.00002Z"/><path id="path181" class="cls-3" d="m758.7629,404.41098c.14261.58947.50649,1.18879.96384,1.56213,2.0752-.55018,4.06189-1.98458,6.44691-1.10527,3.08822,2.7116,6.30431,5.56076,10.03675,7.02955l1.33759-.22597c.82123.27018,1.7408.31439,2.2916,1.24281.51141,1.24281-.77696,1.96985-1.18512,2.98178,2.06537,1.52283,1.24414,4.22952,2.52763,6.06674l3.3095-4.40636c-.77205-1.93546.04919-5.24147-2.98006-5.42813-1.02285-.50597-1.7064-1.51299-1.66704-2.66248-1.97195-1.79301-4.41107-2.57405-6.38793-4.41618-1.62281-1.28213-2.58173-3.25687-4.6471-3.71864-1.43101-.78597-2.9948-1.19861-4.6471-1.55722-3.09314-.47159-3.36852,3.20775-5.39948,4.63724Z"/><path id="path183" class="cls-3" d="m763.18867,395.35264l.55076.88422c2.30143-.14245,4.3668-1.14948,6.62396-1.11019,1.5146.91861,3.49638.86948,5.06017,1.65546,1.24414,1.70458,2.58173,3.62531,4.41107,4.77478,3.73244.55018,5.79781,4.56356,7.08622,7.49623v-1.41967c.55076-1.97967-.04919-4.28356-.77205-6.07656-.92452-.91861-2.26699-1.51299-3.22591-2.33335-.18688-.5993-.04919-.88422.13769-1.42949-1.43101-1.51791-3.54557-2.3481-5.29623-3.54671-2.43912-3.5418-7.12554-2.56424-10.85798-3.5418l-3.71766,4.64706h-.00004Z"/><path id="path185" class="cls-3" d="m763.11,361.62947c.40816,1.42949.90482,3.21758,1.18512,4.7404,1.28349-2.84915,3.82586-4.1411,6.07811-6.47937-1.29332-.87439-2.90135-1.29195-4.32253-1.56213v-.09333c-1.01794,1.00212-2.58173,2.01897-2.9407,3.39442Z"/><path id="path187" class="cls-3" d="m771.46988,376.75946l2.06537-2.11231c2.0752-2.12212,3.78651-4.56356,4.09633-7.27025-1.47037-.86948-3.40296-.27018-4.82414.23579-.50649,2.97688-1.29332,5.91936-1.33759,9.14676h.00004Z"/><path id="path189" class="cls-3" d="m772.98449,383.24374c3.17677.17684,6.26499.82036,8.84176-.97264l2.58173-8.27237c-.83598-.04912-1.66704-.42246-2.44404-.13754-1.70148,3.76285-5.10444,7.49131-8.97946,9.38256Z"/><path id="path191" class="cls-3" d="m773.91883,353.91219c2.07028,3.03091,5.52735,6.42534,9.06308,7.39798-.40816-3.86601-3.72262-6.5334-5.42897-9.8345l-.09342-1.10528c-1.33268-1.28703-2.94562-2.16634-4.32744-2.84915-.22128,2.20564.37867,4.31303.78683,6.39095h-.00008Z"/><path id="path193" class="cls-3" d="m785.13579,383.60725c2.43912.41263,5.06509,0,7.31733-.69264,3.26527-.78597,5.06509-4.36706,6.16662-7.16709h-4.09633l-4.41107,4.31794c-1.74575.9137-3.40296,2.29406-4.97658,3.5418h.00004Z"/><path id="path195" class="cls-3" d="m784.63913,349.72688c.69337,3.59092,2.2178,6.85271,4.28812,9.93274l.54585-6.85271s-4.83397-3.08004-4.83397-3.08003Z"/><path id="path197" class="cls-3" d="m799.72618,367.60778c.2803-2.29897-.68354-4.97128-.95401-7.30464-1.38183-.92352-3.3095-.8351-4.74052-1.74388.09342,3.62039,2.93579,6.70534,5.69453,9.04852Z"/><path id="path199" class="cls-3" d="m795.54134,390.96102c2.89643-.91861,5.70439-1.93055,8.37954-3.39933,1.70148-2.44143,4.27338-4.64215,4.6471-7.49131-2.1293.59439-3.95864-.09825-5.94042.87439-1.19495,2.15651-1.93751,4.60286-4.23402,6.16007-.3688,1.5523-2.07028,2.61336-2.8522,3.85618Z"/><path id="path201" class="cls-3" d="m800.04584,396.61511l3.45215,4.50462c1.84409.59438,4.14552.41754,5.75354-.63861l-1.23431-4.08707c-2.44404.90878-5.34538.64352-7.97138.22106Z"/><path id="path203" class="cls-3" d="m805.79938,364.07089l1.33268,6.06182c3.221-2.61336,3.88488-6.43025,3.79146-10.4731-1.83917,2.11231-2.9063,3.39933-5.1241,4.41128h-.00004Z"/><path id="path205" class="cls-3" d="m814.87229,374.77488c.04427.87931.27047,1.70458.77205,2.3923,3.58984,1.29195,3.95864,5.64918,7.27797,7.30464,2.15391.97264,4.64713-.22597,6.52559-1.10528-1.42118-1.60633-3.02921-2.71161-4.41107-4.40636-.96384-.41263-1.94246-1.01194-1.88836-2.20564l-8.27625-1.97967h.00008Z"/><path id="path207" class="cls-3" d="m817.72449,396.48248c1.55887,1.78318,3.67339,2.7116,5.8814,3.20775-.36393-.50106.23606,0,.32453-.31439l-2.76365-6.07165c-1.38183.04912-2.81284.32912-4.09633.23579.10329,1.01194.32457,2.01897.65405,2.94248Z"/><path id="path209" class="cls-3" d="m822.60273,368.16287c-1.29332-2.9867-1.82443-6.62674-2.20306-9.92783-1.372,1.65546-2.80301,2.71652-4.09633,4.40636-.59995,3.39933,4.27334,4.22952,6.29939,5.52147Z"/><path id="path211" class="cls-3" d="m828.20875,365.0288c1.66708,2.17125,5.2962,1.4344,7.32225.78597-.96879-1.65546-4.08647-2.6281-4.63723-4.40636-.3147-3.17337-.96384-6.26322-1.98178-9.14676-1.60802,3.9004-3.55543,8.54746-.70324,12.76715Z"/><path id="path213" class="cls-3" d="m831.1101,374.77488c4.60286,3.35513,9.11718,7.26534,15.54935,5.83585.46222-.31439,1.24905-.28,1.33759-.86948-1.88836-1.1937-3.90945-2.12212-5.84208-3.22249l-2.20306-3.21266h-1.01299c-2.48827.82036-5.15363,1.1544-7.82874,1.46879h-.00008Z"/><path id="path215" class="cls-3" d="m831.20352,412.05948h.32948c2.75878-2.20564,6.02405-2.94739,9.28932-3.86109.88025.32422.32453,1.29195,1.11136,1.65547,1.97683-.82036,4.37175-.64352,6.39285-1.33124,2.43912.08843,4.4209.13264,6.39773,1.18879,1.57366,2.07301,4.50944,1.83722,6.54037,3.22248l-.32948-3.22248c-4.27338-5.01058-10.94649-5.3741-17.1131-5.28076l-.13769-.64352c-1.47033,0-3.12758.31439-4.50944.96281-1.97195.09334-3.86518,1.05615-5.75354,1.65054-.88025,1.74879-1.57366,3.87584-2.21784,5.65901Z"/><path id="path217" class="cls-3" d="m834.90152,355.56273c1.78999,2.3481,4.46022,4.14601,7.49926,3.54671-1.55887-1.52774-3.36364-3.13407-3.45211-5.29058.46222-4.09198-4.04715-4.4211-6.25516-6.5334.7376,2.76073.63931,5.84076,2.20801,8.27728Z"/><path id="path219" class="cls-3" d="m834.42947,420.19432h.55076c2.43417-1.51299,5.97978-.35861,8.37463-1.96985,1.33264-.69263,1.42606,1.14949,2.3457,1.65547,2.25716,1.37054,2.5375,5.51165,5.70927,4.54882,3.81108,1.97476,2.8522,6.61691,2.98989,10.01626l3.54553-2.20073c-.32453-1.79301.69341-3.95443-.46222-5.51656-.8753-1.97476-3.27015-2.15651-4.4209-3.76284,1.38674-2.3481-1.74571-3.45828-2.39485-5.15795l.19179-.22597,4.87825.64352c1.65725,1.00704,2.25716,2.84916,2.76365,4.55372,3.81108.64352,4.73072,4.96145,6.06824,7.71727.78683-1.88142,1.10648-3.91023,1.88836-5.74742.04915-1.5179-1.97683-1.5179-2.98989-2.20564-.27043-2.3481-1.33264-4.54882-3.40296-5.96849-4.23399-1.07088-7.9566-3.40425-12.60374-3.40425l-3.86518,1.18879c-2.12442.51088-4.37663-.13264-5.98961,1.33124-2.3998.18666-2.57681,2.80985-3.17673,4.50463Z"/><path id="path221" class="cls-3" d="m836.86364,401.25727l.88025.41754c1.88836-.8744,3.77176-1.88633,5.75354-2.62319,3.07348-.86948,5.46833,2.62319,8.05497.41263.95896-.68281,1.79494.32422,2.52271.87931,1.12119,2.01897,3.68817,1.88142,5.62568,2.42669-.96879-2.61337-2.16862-6.19936-5.52731-6.61691-1.33264-.59439-2.90135-.54527-4.18484-1.33124-3.54553-3.90531-5.84208,3.22249-9.72205,1.47862-1.37203,1.50808-3.07843,2.94249-3.40296,4.95655Z"/><path id="path223" class="cls-3" d="m837.74389,423.64769c1.47033,1.24281,2.98989,3.36005,5.2962,3.08003,2.84724,1.33124,1.65229,5.10392,3.21117,7.08359l1.65725-1.4737-.13769-.09825.23111-.22597.09837.12773c.45734-1.37054-.18684-3.80707-.97367-5.42322-1.05238-.73193-2.2916.04912-3.30954-.64352-.13769-1.47861-1.05726-2.20564-2.11452-3.11932-.7376-.56-1.7064.17684-2.5375.12773,0,0-1.42118.56493-1.42118.56491Z"/><path id="path225" class="cls-3" d="m843.49743,367.60778c1.5146,2.52494,4.46022,4.09198,6.8108,5.83585,1.93751.87439,4.46022,1.10528,6.53542.6386-1.98178-1.60633-3.78159-3.44846-5.42901-5.37409-.64914-.92352-.78683-2.07792-1.65725-2.89828-2.16374.41754-4.60774.36843-6.26004,1.79791h.00008Z"/><path id="path227" class="cls-3" d="m846.03493,351.15637c2.11452,2.61828,5.38474,1.56213,8.37463,1.65546v-.32421l-4.60286-3.86109c-1.28837.40772-2.66536,1.55721-3.77176,2.52985Z"/><path id="path229" class="cls-3" d="m761.3151,307.80011l2.66532,8.27728c-.04919-4.69128,2.12438-8.60641,1.66212-13.3812l1.97195-2.9474-4.18975,1.29194c-1.10153,2.11231-2.02113,4.22952-2.10964,6.75938Z"/><path id="path231" class="cls-3" d="m763.11,293.45609l3.63407-2.11231v-5.38392c-1.52935.91861-2.35058,2.49055-3.54557,3.71864l-.08851,3.77759Z"/><path id="path233" class="cls-3" d="m837.75372,301.82179c-.8753,1.14457-2.20801,1.42949-3.31442,1.65055,1.93751-3.53197,2.85707-8.45413,1.33759-12.45768,1.00811-.36351,2.11452-.55018,3.07843-1.10036l-.09342-.09825,2.53254-2.20564c3.35869-2.29897,2.06537-6.66113,3.30954-9.92783-1.65229-2.56915-2.15879-5.69831-4.55364-7.85973l.13769-.09333c-1.88836-2.39231-5.29132-2.1123-7.86813-3.306-3.41279-1.14949-6.03388,1.1937-8.47788,2.75582-1.05726.18667-.40812,1.56212-1.55887,1.513-.64418,1.69967-1.43101,3.54179-1.89324,5.42813-4.55368-.64352-9.47616-.13754-13.11023,2.43652-1.94242-1.42949-4.27829-1.69967-6.53546-2.34318-1.65721-.32913-3.54065.27018-4.7356-.64843-1.74575-1.96985-2.12438-5.56076-5.11919-6.06182-1.05726-.37334-1.27858-1.52282-1.27858-2.53476-1.98178-.32913-3.73736-1.24282-5.66012-1.65546-2.94562-1.33615-5.29128.78597-7.49929,2.20564-.97367.40772-2.0752.55018-2.9948,1.10036-1.65229,2.57898-3.21117,5.19725-4.28321,8.0464.32948,2.34318,1.33759,4.40637,2.53746,6.39095,1.05726,2.9867,4.37171,5.3348,7.17473,6.5334-1.33268,4.54882-1.33268,9.96713,0,14.56507,0,0-.07376.06386-.07376.04912,0,.01474-.14752.13754-.14752.13754-.43273,0-.91465.08351-1.27366-.13754h-.05902c.65897,4.39163,2.72434,8.24289,6.06828,11.53907,1.1999.41263.91957,1.84213,1.42118,2.75582.32457.41755.37372,1.28703.23603,1.65546-7.18455-.22597-13.58232,1.56704-19.33586,4.82882-1.47037.73685-.82615,2.75582-.96384,4.18531,4.05206-2.67231,8.41886-4.64215,13.25284-5.52147,2.07028-.12772,4.41107-.64352,6.39776-.09333l.2262,3.96425c-5.46833,2.85406-11.45793,4.50461-16.14435,9.19589.08851,1.41966-.18688,3.07021.2262,4.26882l4.19467-3.39933c4.04715-3.08495,8.28117-5.70322,12.92335-7.40289,1.24905,1.46879,2.53746,3.04073,4.19467,3.95443,2.80301-1.79791,5.847-3.12915,9.068-3.95443,1.70148-1.01194,4.4209-.09333,5.52243-2.11231l.77696-4.18531c-.12786-.09333-.2262-.28-.45734-.23579-2.15883-1.24282-3.58984-3.39933-3.40296-5.92428-.73764.36351-1.55887.5993-2.43912.63369-.72781-.17685-1.4261-.36351-1.74575-1.10528-.04427-.91369-.51141-2.29406.41799-2.97687,2.98497-1.84213,6.85507-1.93546,10.62687-1.66037,2.80301.37334,6.85507.23088,7.82878,3.54179-.13769.96773-.04919,2.02879-1.01794,2.6674-1.01302.55018-2.15883-.04912-3.08331-.46667-.73273,2.25967-1.97686,4.78462-4.50449,5.52147l.31474,2.66248c.31474,1.19861.41307,3.17337,2.30143,2.75582,4.37171,1.06597,8.24185,3.31582,12.05785,5.74743,1.29332-1.28212,2.30143-2.75582,3.21612-4.09198,6.82063,2.30879,12.70203,7.4078,18.32779,12.1482l.22128-3.86601c-5.34047-4.7404-11.27109-8.09061-17.44259-10.70889.23606-1.24282.51145-2.44143.56059-3.77758,7.31242.41754,14.26091,2.67231,20.28495,6.20428l-.09342-3.306c-6.34858-3.40425-13.29707-5.6541-20.88487-5.74252-.28521-.41263-.37375-1.01194-.32453-1.42458,3.68322-.59439,6.29943-4.40637,7.17968-7.7271,1.89324-2.15652,4.60774-4.50461,3.96356-7.71728.07871-.27018.17213-.55018.27043-.83018.24094-.79089.44752-1.63581.18196-2.38248l-.00015.00002Z"/><path id="path235" class="cls-3" d="m844.14657,313.64087l3.77176-1.19861.4229-2.10739c1.05726-3.08495-1.1999-5.38392-2.30631-7.82044l-1.88836,11.12644Z"/><path id="path237" class="cls-3" d="m853.67187,328.20595c1.79494,1.97967,3.54553,5.14813,6.72233,4.18531-.23606-1.33615-.97367-2.44143-1.42606-3.63513-.82615-.96281-1.11136-3.72355-2.76365-2.75582-1.24417-.82527-1.55887-2.20564-2.35058-3.31091-.35897,1.70458-.13274,3.81689-.18196,5.51655h-.00008Z"/><path id="path239" class="cls-3" d="m854.31606,341.67556c.69341.96281.88513,2.21055,1.56375,3.08495,1.24417.82036,3.08826.68281,4.61269.55018,1.37203-.32421,2.25221,1.18879,3.5357.3193-1.60802-1.01194-2.57186-2.84915-4.08647-4.19022-1.79982-1.41475-3.73244-.17193-5.62568.23579Z"/><path id="path241" class="cls-3" d="m856.76013,363.05896c3.17673,1.88142,7.20917,3.72355,11.44811,3.08004.45734-.22597,1.24417-.18176,1.33264-.73194-2.62596-.92352-5.37979-3.5418-8.13369-4.09198-1.51956-2.34318-3.50133.5993-5.43389.41263.04427.54527.59504.9579.78683,1.33124Z"/><path id="path243" class="cls-3" d="m866.31493,403.64958l.69341,1.46879c.69829,4.78461,3.72262,9.19097,2.07032,14.43244,1.38186.97265,1.79494,2.57898,2.67519,3.866h.22623c1.05726-3.99373.32453-8.13482-.22623-12.13838.41307-3.63021-3.2751-5.74251-5.43884-7.62886l-.00008.00002Z"/><path id="path245" class="cls-3" d="m867.11159,356.57468c2.3899,1.84213,6.21089,2.01897,8.96966,1.10528-1.74571-.96281-3.67834-2.02879-5.10936-3.31091l-3.86031,2.20564Z"/><path id="path247" class="cls-3" d="m878.47115,370.6829c-.22623,1.93546,1.05726,3.5418,2.43912,4.51444.50649-1.14457,1.32776-2.12212,1.42118-3.40425-.41307-1.97476-1.51956-3.77267-3.31442-5.10883-.3147,1.28703-.68846,2.52985-.54581,3.99864h-.00008Z"/><path id="path249" class="cls-3" d="m878.60884,391.65365c-.32948,2.15651,2.06537,2.43652,3.07348,3.63022.8311,1.01194-.55076,1.70458-.55076,2.66739,1.75067,2.24984,2.76861,4.81409,2.76861,7.8106.68358-2.80003,1.74084-5.46742,2.11452-8.36079-.18684-2.02879-3.40296-1.60633-2.90135-3.86109.92452-2.29897-.18196-4.54882-.78188-6.62673-.17701-.31439-.59991-.96281-.95896-.77123-.83598,1.87651-2.90135,3.21266-2.76365,5.51164Z"/><path id="path251" class="cls-3" d="m884.91315,380.70898l2.3899,4.64215c1.05726-.13754,1.74571-1.14948,2.57186-1.88634.64418-1.93055-1.06221-3.17337-1.55887-4.7404-.41803-1.10528,0-2.56915-.78683-3.53197-.59991-.37334-1.28349-.97264-1.97195-.78597l-.64418,6.30252h.00008Z"/><path id="path253" class="cls-3" d="m887.98662,368.47726c1.89324,1.14948,4.0521,2.80003,5.07004,4.82882,1.60802,4.69128,4.18484,8.91097,6.06824,13.4647.69341,3.17337,1.24417,6.00778,2.11452,9.12712.32948.83019.14264,2.43652,1.43597,2.29897.35897-3.49267,1.05238-6.85271,1.10153-10.48293-1.15068-1.51791-2.66536-2.15651-4.09629-3.07512v-.32421c.18684-.77615.83598-1.70458,1.79494-1.55721.40812-.46176,1.65725-.91861,1.10648-1.7488-2.39485-2.38739-2.25716-6.49902-6.06824-7.24078-1.33759-.55018-1.65725-1.93546-1.79494-3.21266-1.79982-1.52774-4.46517-2.02879-6.73216-2.07792h-.00008Z"/><path id="path255" class="cls-3" d="m890.20942,393.39754c2.34075,2.15651,1.51956,5.28567,1.33264,8.18394-.36393,1.74879,1.83913.72702,2.53254,1.65547,1.43101,2.11231.59991,5.19724.09837,7.49132,1.24417-1.89124,2.66536-3.5418,3.6292-5.61481-.03932-.77615.96879-1.14949.92452-2.11721.40812-1.33124-1.15068-.73193-1.79982-.86947-.55076-.13754-1.1458-.50597-.95896-1.24281,1.18512-2.29897.08854-5.05479-.37375-7.35376-.55076-1.88634.23606-4.41619-.64914-6.07165-1.47528,2.0337-5.85191,2.49055-4.7356,5.93899Z"/><path id="path257" class="cls-3" d="m894.48272,360.75998c4.10125,4.1411,7.09113,8.29693,11.50708,12.30048.09342-1.79791-.13769-3.44846-.22623-5.19725-.64418-1.24282-1.84409-2.15651-2.86203-3.08495-3.26527-.31439-4.96671-4.71093-8.4189-4.01829h.00008Z"/><path id="path259" class="cls-3" d="m905.1981,382.66408c.09837.42246.28521.78597.47205,1.1937,1.78999,2.9474,3.49638,5.98323,4.74055,9.15168-.37375-3.40425,1.92768-7.62885-1.11631-10.25204-.40812-1.11019-1.78016-.73685-2.66536-.64843l-1.43101.5551h.00008Z"/><path id="path261" class="cls-3" d="m916.24791,416.2448c1.28837.59931,2.94562-.45684,4.18979-1.1937,1.15068-.27509,2.11452.37334,2.99477.96772.36393.73193,0,1.42458.13769,2.11721,2.75878.77615,5.46833,1.79301,7.90745,3.39934l.777-.78106c.18684-1.97476-1.37203-3.40425-2.8522-4.50952-.95896-.55018-2.39485-.22597-3.07843-1.10036.46222-.73686.46222-1.84213.41307-2.66739-1.51956,0-2.48827-.46668-3.72262-1.1937-.78683-.23088-1.48016-.87931-2.12442,0-2.29648,1.55722-2.43417,3.86109-4.64218,4.96145h.00008Z"/><path id="path263" class="cls-3" d="m919.47874,358.39715c1.1458-.32912,2.3457-.64843,3.30954-1.47862,3.08826-2.80494,7.54848-.91861,11.14323-.96281-.69341-1.24282-1.66708-2.48564-2.5375-3.5418-1.29332-.50597-2.48827-1.10037-3.9586-1.10037-3.13246-1.84213-5.2421,1.24282-7.6419,2.75582-.64914,1.24282-.96384,3.08004-.3147,4.32777h-.00008Z"/><path id="path265" class="cls-3" d="m919.55738,367.86322c0-.14245,0-.28492.13769-.3193.4229.36351-.04427,1.24773.64914,1.42458,1.19495-.5993,2.30143-1.42458,3.40296-2.20564,3.08331,0,4.92739-2.99161,7.9566-2.99161,5.07004.92352,10.0859,1.94037,14.49697,4.41128-.3147-2.97688-2.90135-5.69831-5.51748-7.02955-1.48016-.50597-2.63092.27509-3.68322,1.10528-3.07843,1.93546-1.47033-2.80494-3.6292-2.89828-2.81288.86948-5.71422,1.84213-8.8418,1.55721-1.83913.69755-3.13246,2.3923-5.20278,2.20564-.08359,1.52774-.30982,3.36987.23111,4.74039Z"/><path id="path267" class="cls-3" d="m921.6818,378.11035c.96384,1.02177,2.57186.8351,3.9586,1.02177l4.00287-1.57195c.04427-.72211-1.19495-.91861-.91957-1.74388,1.10648-1.24282,2.61613-.36351,4.00287-.86948,1.92768-.28,3.90945-2.20073,5.84208-.78597-.05898.23579.08359.55018-.09837.78597-.59504,1.42458.41307,2.29897,1.51956,2.84915,2.25716.41263,4.3668,2.48564,6.62396,1.55721-.22623-1.88634-.72777-3.62039-1.19007-5.42322-1.88836-.3193-3.22595-1.88142-4.97167-2.52985-.777.73685-1.79982,1.28703-2.76365,1.1937-3.54553-.83019-7.78447-3.03582-11.36939-.78106-1.28837,1.56704-3.5898,1.10528-5.34047,1.793.10325,1.56213.28521,3.08495.70324,4.50461Z"/><path id="path269" class="cls-3" d="m923.20136,405.44257c-.27538.78106-1.05726,2.06317.37375,2.43651,2.94074.08843,6.71738-1.42949,9.01881.86947.78188.59931.40812,1.84213.35897,2.62319l3.86518,3.21757c.3688-1.94037,1.06709-3.68425,1.11631-5.75235-.32453-1.4737-1.06221-2.89337-2.35058-3.85618-2.5375,0-4.00287-2.96214-6.72721-2.59862-1.42118-.31439-2.66536.94808-4.09629.94808-.63436.63861-1.00811,1.42458-1.55887,2.11231l-.00008.00002Z"/><path id="path271" class="cls-3" d="m924.30289,383.76445c.59504,1.24282,1.29332,3.26671,2.43912,3.39933,2.71451-1.18387,6.67806-1.92564,9.71222-.63369,1.00811.17684,1.00811,1.32633.78683,2.06318,1.55887.91861,3.44723,1.65546,5.1044,2.66248l-.46222-2.76073c-.09342-2.9867-3.86031-3.25688-4.09629-6.20428-3.08331-1.00703-6.53542-1.33615-9.80069-.55018-1.05726.96281-2.58169.8351-3.86031,1.10528-.09342.36843.12786.60421.17701.91861h-.00008Z"/><path id="path273" class="cls-3" d="m925.08476,398.66355c1.79494-.51088,2.95057-2.48072,4.88312-2.66739,2.94074.04912,5.5667,1.24773,7.41079,3.78249,1.10153.72211.87042,2.60844,2.30143,2.60844-.4229-2.24985.3147-4.31303.22128-6.62182-1.9228-3.21266-6.7125-.72703-8.50737-4.50461l-3.40296.23088c-2.444.60421-1.79494,3.45337-2.11452,5.38883-.28033.58948-.8311,1.05124-.79171,1.78318h-.00008Z"/><path id="path275" class="cls-3" d="m941.98154,418.77465c1.42118,2.84916,4.55859,5.01058,4.87329,8.27236.73273-.86947,1.24417-1.88142,1.74571-2.84916-.04915-.91861-1.10648-.91861-1.5146-1.65547-.4229-1.1937.22128-2.24985.40812-3.31091-.59991-1.69967-2.03093-3.306-3.63407-4.32286l-1.87853,3.866.00008.00004Z"/><path id="path277" class="cls-3" d="m947.64166,411.50931l3.30954,4.50952c1.42118-2.24985,1.42118-5.56567.87042-8.27729-.3147-.51088-.91957-1.33615-1.74084-.96281-1.24417,1.28213-1.43101,3.2618-2.43912,4.73058Z"/><path id="path279" class="cls-3" d="m934.15272,285.67495c1.19495.5993,2.3457,1.14949,3.78159,1.24282.95896-.50597,2.20801-.87931,3.40296-.55018,1.70144,1.10528,3.77176-.23088,5.75354-.13754-1.75067-1.65546-3.73732-2.67231-5.75354-3.63513-2.58169.54527-4.64713,2.38739-7.18455,3.08003Z"/><path id="path281" class="cls-3" d="m952.14615,289.98798c2.43912.23088,4.19467,2.3923,5.84208,4.18531,2.07032.31439,3.63407,1.793,4.87329,3.306l-.77205-2.4316c-.55076-2.44143-2.08015-4.32776-3.63902-6.25831-2.20801.14246-4.37663.33404-6.30431,1.19861Z"/><path id="path283" class="cls-2" d="m780.41002,269.82776l1.33759.14246c3.57997,1.793,9.37778,2.71161,9.71218,7.90394-3.6439,1.42949-7.14032,3.35512-10.04167,6.29761-2.20306-2.24985-6.66823-1.01194-7.41079-4.96146.69829-3.73338,2.02605-8.42465,6.40268-9.38255Z"/><path id="path285" class="cls-2" d="m783.86704,293.1417c4.18975-.37334,8.23694.22106,12.56438-.14246,1.05234.45685,2.15391,1.37054,2.66532,2.4316-.14261,4.96637-1.65721,9.70677-1.88344,14.80578-1.88836.77615-3.73244,2.34809-4.19467,4.41128-1.70148.50597-3.22591,1.513-4.88312,2.29406-.7229-1.55721-.59504-3.90531.69829-5.19725,1.7949-2.52494,6.44691-1.93546,6.07811-5.9341,1.19495-1.92564.04919-4.41128.08359-6.43025-.45734-1.52283-.91957.50597-1.65229.45685-1.47037.31439-2.98497.40772-4.27829-.32913-.96875-1.01194-2.15391-1.84213-2.43912-3.21267-1.29332-.64351-2.80301-1.65055-3.45215-2.9867l.69337-.16702h.00004Z"/><path id="path287" class="cls-2" d="m788.92721,323.10203c1.96703.28492,4.04715-.5993,5.74863.37334-.35897.64843-1.33268.91861-2.11455,1.10528l-3.08822,1.41966c-1.1458-.27018-.50158-2.11231-.54585-2.89828Z"/><path id="path289" class="cls-2" d="m796.97727,284.72196c1.97195-.64351,4.09633-1.96985,6.21089-1.33616-1.5146,1.52283-2.70959,3.49267-3.86031,5.33479l-6.30431-.13754c.69337-1.66037,2.43912-3.03091,3.95373-3.86109Z"/><path id="path291" class="cls-2" d="m815.43289,283.20896c2.62105-.45685,2.47844,2.94249,4.87329,3.07021.4229.55018,1.02282,1.05615.78683,1.88634-1.38674.55018-3.40788.28491-4.97167.64351-2.0752-1.14949-.73273-4.73549-4.00291-4.50461-.18196-.28-.54585-.83018-.09342-1.01194,1.01302-.36351,2.3555-.22597,3.40788-.08351Z"/><path id="path293" class="cls-2" d="m813.77568,295.51927c1.15072-1.61125,2.90135-1.74388,4.55859-2.06318l11.92019.22106c.50649.46667-.46222.87931-.46222,1.42949-.73273.69264-1.79494.87931-2.43912,1.51791-1.56375.04421-1.42606,1.88634-2.52767,2.67231-1.7064,1.69967-4.19467.91369-6.17153.64351-.68846-.51088-1.47037-1.19861-1.79982-1.97967l-.55076.55018c.69337,2.57897.51141,5.42813,1.02285,8.0464l2.8522,1.88634c.04427,4.22461,5.01594,3.07512,7.17473,5.42322-.50649,1.52283-1.51956,2.80494-2.62109,4.09198-1.74571-1.69967-3.73244-2.80003-5.84208-3.54179-.18688-2.47091-2.90135-3.94952-4.41107-5.18742-.4229-4.50952-.51141-9.10747-1.24414-13.47453l.54094-.23579Z"/><path id="path295" class="cls-2" d="m818.10316,323.888h5.52735l-.69341,2.89337-5.53226-2.34318c-.12786-.45685.37372-.59439.69829-.55018h.00004Z"/><path id="path297" class="cls-2" d="m828.04157,271.80743l4.09629-1.28703c2.35058,1.10036,4.55364,2.47582,6.71738,4.04285,1.70144,3.12425,1.43101,7.35376.64418,10.84644-1.24417,1.37545-3.9586,0-4.96671,2.20564h-.19179c-1.5146-4.31794-5.84208-8.18886-9.84496-10.15379.64418-2.21055,1.33759-4.37198,3.54553-5.6541h.00008Z"/></g></g></g></g></svg>