<svg xmlns="http://www.w3.org/2000/svg" viewBox="0 0 1250 703"><title>nvidia-partner-ingram-micro-logo</title><g id="LOGO"><path d="M1046.5,265.6a13.75,13.75,0,1,1,13.75,13.75A13.77,13.77,0,0,1,1046.5,265.6Zm24.15,0c0-6.43-4.65-11.08-10.4-11.08s-10.4,4.65-10.4,11.08,4.65,11.09,10.4,11.09S1070.65,272,1070.65,265.6ZM1055,257.76h5.78c3.74,0,5.76,1.29,5.76,4.57,0,2.66-1.53,4-4.08,4.19l4.19,6.82h-3l-4-6.71h-1.75v6.71H1055Zm2.89,6.66h2.55c1.72,0,3.2-.23,3.2-2.32,0-1.83-1.67-2.13-3.16-2.13h-2.59Z" fill="#3075ba"/><path d="M578.83,344.68h15.31c12.52,0,17.74-6.46,17.74-14.39,0-10.11-8.63-14.09-17.74-14.09H578.83ZM720,315l-14.39,44.15h29.68L720.73,315ZM198,286.24h51.52s-.08,89-.08,133.9c-.31,0-51.12,0-51.44,0Zm777.4,0v133.9H929V315.26h-.65L901.63,420.14H858.77L832.2,315.26h-.72V420.14H750.29l-8.09-28.85H698.57l-8.09,28.85H612.89s-2.62-19.74-3.31-24.67c-2.29-16.59-7.3-20.61-17.21-20.61H578.83v45.28H499.35c22.9-5.21,43.57-15.61,55.42-22.77l-16.68-63.29-44.38,11.7,9.46,35.9c-2.78,2-12,5.21-18.35,5.21-21.18,0-31.26-21.23-31.26-39.53,0-29.44,30-40.78,56.46-40.78,6.15,0,14.1.54,15.21.66l-5.54-21h92.5c37,0,51.36,17.55,51.36,36.21,0,28.28-27,33.6-32.1,34.5-.09,0-.08.79,0,.8,10.77,2.05,18.69,7.26,23.73,16.36-.17-.31,28.33-80.51,30.92-87.87h71.1l30,84h.41v-84h76.46s17.71,73.31,17.81,73.32l17.36-73.32ZM448.74,420.14H340.35c-8.39-31.15-26.17-96.9-26.17-96.9h-.31v96.9H269.56V286.24h76.93c8.09,30.88,25.06,94.42,25.06,94.42h.31V286.24h44.41v20.34c-10.82,11.43-17.39,26-17.39,44.37C398.88,377.27,413.66,409.91,448.74,420.14Zm589.77-17.29v4.6l-23.33,6.9v.15h23.33v5.64h-28.64V409.66l17.16-5-17.16-5.26V388.91h28.64v6.68h-23.33v.17Zm0-28.81h-28.64v6.68h28.64Zm-18-30.9c-6.89.76-11.07,4.43-11.07,11.61,0,8.6,6.81,12.86,14.74,12.86s14.74-4.14,14.74-12.65c0-6.6-3.88-11.11-10.44-11.82l-.42,6.52c2.76.37,5.39,1.83,5.39,5,0,5.05-5.06,5.51-9,5.51-3.47,0-9.64-.46-9.64-5.18,0-3.68,3-4.76,6.13-4.8Zm6.68-13v-4.88l11.31-4.39V313.4l-12.65,5.3a7.75,7.75,0,0,0-7.39-5c-5.28,0-8.6,3.46-8.6,10.34v12.71h28.64V330.1Zm-12.24,0V325c0-3.16,2-4.32,3.62-4.32,1.8,0,3.69,1.22,3.69,4.32v5.12Zm24-33.76c0-7.19-5.51-12.18-14.78-12.18-6.69,0-14.7,3.32-14.7,12.18,0,8.48,7.1,12.28,14.7,12.28S1038.93,304.82,1038.93,296.34Zm-24,0c0-3.67,3.53-5.17,9.27-5.17s9.27,1.37,9.27,5.17c0,4.72-5.72,5.26-9.31,5.26C1018.43,301.6,1014.92,300.1,1014.92,296.34Z" fill="#3075ba"/></g><g id="BOUNDING_RECT_1250x703_" data-name="BOUNDING RECT (1250x703)"><rect width="1250" height="703" fill="none"/></g></svg>