<?xml version="1.0" encoding="UTF-8"?>
<svg id="EXAMPLES_TURN_OFF_" data-name="EXAMPLES (TURN OFF)" xmlns="http://www.w3.org/2000/svg" xmlns:xlink="http://www.w3.org/1999/xlink" viewBox="0 0 1250 703">
  <defs>
    <style>
      .cls-1 {
        fill: url(#linear-gradient);
      }

      .cls-2 {
        fill: #00c5e8;
        fill-rule: evenodd;
      }
    </style>
    <linearGradient id="linear-gradient" x1="436.97" y1="266.61" x2="268.35" y2="435.23" gradientUnits="userSpaceOnUse">
      <stop offset="0" stop-color="#01e2e0"/>
      <stop offset="1" stop-color="#01a9f2"/>
    </linearGradient>
  </defs>
  <path class="cls-1" d="M352.74,497.61h-.13c-7.08,0-13.95-1.38-20.43-4.1-6.26-2.63-11.89-6.39-16.72-11.18-9.97-9.89-15.46-23.05-15.46-37.07v-71.96c0-14.47,6.1-28.46,16.73-38.38l22.45-20.92-23.1-21.48c-10.07-9.39-15.78-22.38-16.08-36.58v-.24c0-27.74,22.59-50.32,50.36-50.32h4.42c6.78,0,13.38,1.33,19.61,3.96,6.01,2.53,11.42,6.15,16.07,10.76,4.66,4.62,8.33,10,10.9,15.98,2.67,6.23,4.03,12.83,4.03,19.62v.22c-.15,6.9-1.61,13.58-4.35,19.85-2.79,6.4-6.76,12.03-11.8,16.72l-23.19,21.58,22.48,20.84c10.72,10,16.86,23.99,16.86,38.38v71.96c0,14.02-5.5,27.18-15.49,37.07-4.84,4.79-10.47,8.55-16.73,11.18-6.48,2.72-13.36,4.09-20.43,4.09ZM352.57,326.83l-23.21,21.64c-6.89,6.43-10.84,15.48-10.84,24.84v71.96c0,9.04,3.55,17.54,9.99,23.92,6.44,6.39,15.01,9.91,24.11,9.91h.13c18.82,0,34.14-15.18,34.14-33.83v-71.96c0-9.27-4-18.32-10.97-24.83l-23.34-21.64ZM318.52,255.65c.22,9.12,3.83,17.4,10.18,23.32l23.96,22.28,23.97-22.3c6.3-5.88,10.04-14.38,10.26-23.33-.02-8.42-3.37-16.36-9.44-22.37-6.09-6.03-14.14-9.36-22.66-9.36h-4.42c-17.54,0-31.82,14.24-31.85,31.74Z"/>
  <g>
    <path class="cls-2" d="M487.87,453.29c-2.34,0-4.36-.8-6.01-2.47-1.68-1.67-2.51-3.65-2.52-5.99l-.46-114.12c0-2.34.8-4.36,2.47-6.1,1.63-1.74,3.65-2.6,5.99-2.61,2.34,0,4.39.83,6.1,2.56,1.74,1.73,2.6,3.75,2.61,6.08l.46,114.12c0,2.34-.83,4.33-2.56,6.01-1.7,1.68-3.75,2.51-6.08,2.52Z"/>
    <path class="cls-2" d="M526.25,453.13c-2.37,0-4.36-.8-6.04-2.47-1.68-1.67-2.51-3.65-2.52-5.99l-.32-79.34c0-2.34.8-4.39,2.47-6.1,1.67-1.74,3.65-2.6,6.02-2.61s4.36.83,6.1,2.56c1.74,1.7,2.6,3.74,2.61,6.08l.03,7.04c5.03-5.45,10.25-9.6,15.67-12.47,5.42-2.86,11.57-4.31,18.48-4.34,6.79-.03,12.76,1.56,17.95,4.76,4.97,3.17,8.77,7.54,11.45,13.08,2.67,5.51,4.02,11.69,4.05,18.48l.21,52.52c0,2.34-.87,4.33-2.56,6.01-1.73,1.68-3.78,2.51-6.11,2.52s-4.33-.8-6.01-2.47-2.51-3.65-2.52-5.99l-.21-50.69c-.06-14.93-6.81-22.35-20.26-22.29-5.9.02-11.23,1.53-15.98,4.51-4.72,2.95-9.44,7.36-14.09,13.19l.22,55.48c0,2.34-.83,4.33-2.56,6.01-1.73,1.68-3.75,2.51-6.08,2.52Z"/>
    <path class="cls-2" d="M664.92,436.66c1.86,0,3.47.68,4.84,2.03,1.36,1.35,2.03,2.93,2.04,4.79.01,2.84-1.46,5.06-4.42,6.68-4.79,2.23-9.9,3.35-15.33,3.38-18.12.07-27.21-8.06-27.27-24.48l-.23-56.21-9.25.04c-2.34,0-4.17-.65-5.47-1.93-1.3-1.29-1.97-3.08-1.98-5.45s.65-4.14,1.93-5.44c1.29-1.3,3.12-1.97,5.45-1.98l9.25-.04-.05-13.13c-.01-2.84.74-4.99,2.28-6.48,1.54-1.49,3.65-2.22,6.37-2.24,2.71-.01,4.83.74,6.29,2.28,1.49,1.54,2.26,3.65,2.27,6.37l.05,13.13,20.7-.08c2.08,0,3.85.71,5.28,2.12,1.43,1.38,2.13,3.15,2.14,5.26,0,1.96-.68,3.7-2.09,5.18-1.41,1.46-3.18,2.22-5.26,2.23l-20.7.08.22,54.73c.02,4.32,1.01,7.22,3,8.7,1.96,1.44,4.93,2.19,8.88,2.17,2.59-.01,5.05-.4,7.38-1.13.25,0,.44-.06.57-.19,1.23-.26,2.27-.39,3.12-.39Z"/>
    <path class="cls-2" d="M733.78,435.28c11.61-.05,19.94-1.85,25.04-5.37,5.1-3.52,7.63-8.8,7.6-15.84-.06-13.92-10.91-20.85-32.62-20.76l-34.59.14.16,39.77c0,1.48.77,2.21,2.25,2.2l32.16-.13h0ZM729.67,377.79c10.6-.04,18.17-1.84,22.73-5.36,4.53-3.55,6.81-8.77,6.79-15.65-.02-5.81-2.41-10.37-7.19-13.76-4.75-3.36-11.19-5.04-19.34-5l-31.43.13c-1.48,0-2.24.73-2.23,2.22l.15,37.56,30.52-.12h0ZM690.77,451.55c-2.34,0-4.36-.83-6.01-2.47-1.68-1.67-2.51-3.65-2.52-6.02l-.45-112.23c0-2.37.8-4.39,2.47-6.13,1.63-1.71,3.65-2.6,5.99-2.61l43.65-.18c12.94-.05,23.11,2.9,30.56,8.84,7.41,5.97,11.14,14.19,11.18,24.67.03,6.78-1.56,12.6-4.73,17.47-3.2,4.9-7.48,8.58-12.89,11.07,7.65,2.43,13.72,6.26,18.26,11.48,4.5,5.22,6.8,11.65,6.83,19.32.05,11.93-3.95,21.04-12.01,27.22-8.05,6.19-19.91,9.33-35.56,9.39l-44.75.18Z"/>
    <path class="cls-2" d="M852.41,433.51c4.82-2.48,8.62-6.28,11.41-11.41,2.82-5.12,4.21-11.41,4.18-18.8-.03-7.76-1.54-14.04-4.5-18.86-2.73-4.66-6.38-8.21-10.87-10.69-4.52-2.44-9.55-3.65-15.1-3.63-5.05.02-9.91,1.14-14.6,3.4-4.79,2.48-8.59,6.25-11.41,11.31-2.82,5.06-4.21,11.32-4.18,18.7.03,7.89,1.54,14.23,4.53,19.01,2.73,4.82,6.35,8.43,10.87,10.88,4.49,2.44,9.55,3.65,15.07,3.63,5.05-.02,9.94-1.21,14.6-3.56h0ZM812.89,446.8c-7.15-4.17-12.73-9.99-16.7-17.51-3.98-7.49-6-15.98-6.04-25.48-.04-9.63,1.91-18.19,5.83-25.75,3.91-7.53,9.48-13.36,16.66-17.43,7.21-4.1,15.47-6.19,24.84-6.22,9.37-.04,17.65,1.98,24.8,6.02,7.31,4.14,12.95,9.95,16.92,17.38,3.97,7.46,5.97,15.98,6.01,25.6.04,9.59-1.88,18.12-5.8,25.52-4.04,7.69-9.67,13.55-16.85,17.65-7.21,4.1-15.44,6.15-24.69,6.19-9.47.04-17.81-1.95-24.99-5.99Z"/>
    <path class="cls-2" d="M943.12,435.54c1.86,0,3.47.68,4.84,2.03,1.36,1.35,2.03,2.93,2.04,4.79.01,2.84-1.46,5.06-4.42,6.68-4.79,2.23-9.9,3.35-15.33,3.38-18.12.07-27.21-8.06-27.27-24.48l-.23-56.21-9.25.04c-2.34,0-4.17-.65-5.47-1.93-1.3-1.29-1.97-3.08-1.98-5.45,0-2.34.65-4.14,1.93-5.44,1.29-1.3,3.12-1.97,5.45-1.98l9.25-.04-.05-13.13c-.01-2.84.74-4.99,2.28-6.48,1.54-1.49,3.65-2.22,6.37-2.24,2.71-.01,4.83.74,6.29,2.28,1.49,1.54,2.26,3.65,2.27,6.37l.05,13.13,20.7-.08c2.08,0,3.85.71,5.28,2.12,1.43,1.38,2.13,3.15,2.14,5.26,0,1.96-.68,3.7-2.09,5.18-1.41,1.46-3.18,2.22-5.26,2.23l-20.7.08.22,54.73c.02,4.32,1.01,7.22,3,8.7,1.96,1.44,4.93,2.19,8.88,2.17,2.59-.01,5.05-.4,7.38-1.13.25,0,.44-.06.57-.19,1.23-.26,2.27-.39,3.12-.39Z"/>
  </g>
</svg>