<?xml version="1.0" encoding="UTF-8"?>
<svg id="PASTE_LOGO_HERE" data-name="PASTE LOGO HERE" xmlns="http://www.w3.org/2000/svg" viewBox="0 0 1250 703">
  <defs>
    <style>
      .cls-1 {
        fill: #fff;
      }

      .cls-2 {
        fill: #0068b5;
      }

      .cls-3 {
        fill: #00c7fd;
      }
    </style>
  </defs>
  <path class="cls-2" d="M400,126.5v450h450V126.5h-450Z"/>
  <rect class="cls-3" x="471.27" y="281.01" width="23.7" height="23.7"/>
  <path class="cls-1" d="M494.34,404.31v-85.24h-22.45v85.24h22.45ZM643.2,405.17v-20.9c-3.31-.02-6.04-.2-8.12-.52-2.32-.37-4.09-1.15-5.27-2.34-1.18-1.18-1.97-2.9-2.34-5.09-.35-2.1-.53-4.87-.53-8.23v-29.82h16.26v-19.2h-16.26v-33.21h-22.46v82.4c0,6.95.6,12.86,1.8,17.58,1.18,4.66,3.19,8.46,5.98,11.31,2.79,2.85,6.48,4.92,10.96,6.15,4.53,1.25,10.29,1.88,17.13,1.88h2.84ZM771.9,404.31v-125.02h-22.45v125.02h22.45ZM582.83,327.46c-6.22-6.72-15.01-10.12-26.12-10.12-5.36,0-10.32,1.1-14.73,3.28-4.42,2.18-8.17,5.24-11.16,9.09l-1.22,1.58v-1.42s0-10.8,0-10.8h-22.15v85.24h22.32v-45.41l.02,3.15c0-.52,0-1.03.02-1.53.23-7.96,2.22-13.91,5.92-17.68,3.95-4.02,8.74-6.06,14.25-6.06,6.48,0,11.43,1.98,14.7,5.9,3.21,3.84,4.85,9.34,4.88,16.34h0s0,.17,0,.17c0,.01,0,.03,0,.04h0v45.08h22.66v-48.39c0-12.15-3.16-21.72-9.39-28.46ZM737.74,361.51c0-6.11-1.09-11.91-3.24-17.24-2.15-5.32-5.19-10.05-9.04-14.07-3.84-4.01-8.52-7.19-13.89-9.46-5.38-2.26-11.38-3.41-17.83-3.41-6.11,0-11.93,1.18-17.31,3.49-5.38,2.32-10.12,5.51-14.08,9.47-3.96,3.96-7.15,8.7-9.47,14.08-2.32,5.37-3.49,11.2-3.49,17.31s1.12,11.95,3.33,17.32c2.21,5.38,5.31,10.11,9.21,14.07,3.9,3.96,8.69,7.15,14.24,9.46,5.55,2.32,11.7,3.5,18.27,3.5,19,0,30.85-8.64,37.92-16.73l-16.16-12.31c-3.41,4.04-11.49,9.52-21.59,9.52-6.34,0-11.55-1.47-15.5-4.36-3.96-2.89-6.68-6.87-8.1-11.83l-.23-.79h66.97v-8.03ZM670.96,353.69c0-6.24,7.16-17.13,22.61-17.15,15.44,0,22.63,10.89,22.63,17.13l-45.23.03Z"/>
  <path class="cls-1" d="M797.48,393.57c-.44-1.01-1.04-1.88-1.79-2.64-.75-.75-1.63-1.35-2.64-1.79-1.01-.44-2.08-.66-3.23-.66s-2.22.22-3.23.66c-1.01.44-1.89,1.04-2.64,1.79-.75.75-1.35,1.63-1.79,2.64-.44,1-.66,2.08-.66,3.23s.22,2.22.66,3.23c.44,1.01,1.04,1.89,1.79,2.64.75.75,1.63,1.35,2.64,1.79,1,.44,2.08.66,3.23.66s2.22-.22,3.23-.66c1.01-.44,1.88-1.04,2.64-1.79.75-.75,1.35-1.63,1.79-2.64s.66-2.08.66-3.23-.22-2.22-.66-3.23ZM796.12,399.46c-.36.83-.85,1.56-1.46,2.18-.62.62-1.34,1.11-2.18,1.46s-1.72.54-2.66.54-1.83-.18-2.66-.54c-.84-.36-1.56-.85-2.18-1.46-.62-.62-1.11-1.34-1.46-2.18-.36-.83-.54-1.72-.54-2.66s.18-1.82.54-2.66c.36-.83.85-1.56,1.46-2.18.62-.62,1.34-1.11,2.18-1.46.83-.36,1.72-.54,2.66-.54s1.83.18,2.66.54c.83.36,1.56.85,2.18,1.46.62.62,1.11,1.35,1.46,2.18.36.83.54,1.72.54,2.66s-.18,1.83-.54,2.66ZM791.39,397.47c.65-.07,1.19-.32,1.62-.74.43-.42.64-1.04.64-1.88,0-.92-.27-1.63-.81-2.12-.55-.49-1.39-.74-2.54-.74h-3.67v9.5h1.74v-3.89h1.27l2.37,3.89h1.83l-2.46-4.02ZM790.45,396.1c-.27.02-.54.03-.81.03h-1.27v-2.66h1.27c.27,0,.54,0,.81.02.27.01.51.07.73.16s.39.22.53.4c.13.18.2.42.2.74s-.07.56-.2.74c-.13.18-.31.31-.53.4-.22.09-.46.14-.73.17Z"/>
</svg>