<?xml version="1.0" encoding="UTF-8"?>
<svg id="PASTE_LOGO_HERE" data-name="PASTE LOGO HERE" xmlns="http://www.w3.org/2000/svg" viewBox="0 0 1250 703">
  <defs>
    <style>
      .cls-1 {
        fill: #404041;
      }

      .cls-2 {
        fill: #ce9225;
      }
    </style>
  </defs>
  <path class="cls-2" d="M354.64,224.25l100.42,173.86-.04,1.4c-3.52,5.73-6.55,11.81-10.26,17.37h-185.73l10.45-18.06h164.48c-.96-2.57-2.49-4.94-3.83-7.32-20.42-36.16-41.43-73.68-63.03-109.06-.62-1.01-1.15-2.11-2.01-2.95h-15.4l60.91,105.52h-21.07l-92.95-160.76h58.07ZM344.02,242.31h-15.58l10.8,18.77h15.4l-10.62-18.77Z"/>
  <path class="cls-2" d="M196,398.11l93.12-160.05c9.13,16.88,19.28,33.28,28.56,50.1l-78.55,135.92-3.48,6.61h201.13l-10.27,18.06h-201.84l-10.09-17.38-.13-.77,60.6-105.19-.12-1.07c-2.66-4.26-4.88-8.94-7.76-12.98l-60.38,105.16c-.52.77-1.11-.67-1.38-1.09-3.36-5.13-5.74-10.98-9.41-15.9v-1.42ZM288.6,274.89c-1.02.25-9.04,16.21-10.42,18.24l7.59,13.27,10.72-18.29c-2.32-4.08-4.39-8.46-6.93-12.4-.22-.34-.4-.94-.95-.81Z"/>
  <path class="cls-2" d="M1054,303.92v65.16c-1.67,2.42-7.7,2.1-10.45,1.78-1.63-.19-2.6-1.17-2.92-2.75l-.1-61.9c-.05-1.36.37-3,1.65-3.66,1.12-.58,7.99-.62,9.49-.38,1.2.19,1.62.9,2.32,1.75Z"/>
  <path class="cls-1" d="M530.63,367.48c-.08.58-.75,2.27-1.23,2.67-1.12.93-9.03.99-10.48.54-1.26-.39-1.72-1.79-2.02-2.94l-.1-61.9c.04-1.98.97-3.47,3.02-3.71,1.69-.2,10.59-.2,11.78.28.37.15.7.51.99.78l26.72,45.7v-44.09c0-1.26,1.75-2.52,3-2.66,1.53-.18,7.07-.22,8.43.08.91.2,1.75,1.05,1.95,1.95l.09,63.68c.02,2.05-1.13,2.78-3.03,2.99-2.27.26-8.03.28-10.28,0-.93-.11-1.75-.47-2.45-1.09l-26.4-45.66v43.38Z"/>
  <path class="cls-1" d="M737.43,346.41h-14.16v22.13c0,.6-1.66,2.07-2.38,2.23-1.37.31-6.17.24-7.73.09-1.65-.15-2.89-.63-3.33-2.34l-.04-63.38c-.08-1.79,1.23-3.09,3.01-3.01,19.73.44,51.89-5.79,50.14,24.29-.48,8.28-4.59,14.54-12.03,18.08l11.48,21.74c.88,1.26.44,3.69-.97,4.34-.94.44-8.92.44-10.37.27-.73-.08-1.21-.21-1.77-.71l-11.85-23.73ZM723.26,334.02h18.94c.4,0,3.1-1.04,3.61-1.34,4.61-2.69,4.6-11.59,1.35-15.31-1.02-1.17-4.58-2.82-6.03-2.82h-17.88v19.48Z"/>
  <path class="cls-1" d="M892.07,302.23c18.95-.57,42.15-2.28,49.94,19.31,7.41,20.55-.04,44.17-23.22,48.49-6.09,1.13-19.62,1.56-25.75.83-1.68-.2-3.16-1.12-3.02-3v-62.71c-.06-1.39.7-2.53,2.04-2.92ZM903.5,358.1c11.94.53,24.14-1.21,26.75-14.86,1.65-8.63.7-20.39-7.52-25.44-1.73-1.06-6.51-2.9-8.43-2.9h-10.8v43.2Z"/>
  <path class="cls-1" d="M693.7,358.45c2.5.57,2.19,7.35,1.96,9.39-.17,1.45-1.02,2.45-2.38,2.93l-41.36.08c-1.96-.14-3.03-1.82-3.02-3.71v-61.29c-.01-1.9,1.05-3.57,3.02-3.71l41.42.03c1.71.43,2.19,1.68,2.34,3.33.13,1.4.19,5.43-.09,6.67-.16.72-1.62,2.38-2.23,2.38h-30.98v15.58h26.74c.87,0,2.37,1.45,2.58,2.38.28,1.26.24,5.98.08,7.37-.19,1.68-1.79,3-3.37,3h-26.03v15.58h31.34Z"/>
  <path class="cls-1" d="M842.6,314.55v15.58h26.74c3.3,0,2.9,7.21,2.66,9.38-.21,1.84-1.41,3.36-3.36,3.36h-26.03v15.58h31.34c.28,0,1.75,1.82,1.87,2.38.27,1.2.21,4.97.09,6.31-.16,1.74-.59,3.03-2.39,3.63l-41.36.08c-1.96-.14-3.03-1.82-3.02-3.71l.17-62.89,1.62-1.92,42.59-.11c1.62.6,2.24,1.6,2.39,3.27.13,1.41.19,5.42-.09,6.67-.16.72-1.62,2.38-2.23,2.38h-30.98Z"/>
  <path class="cls-2" d="M1019.41,370.03c-1.82-1.68-3.07-11-4.7-13.54l-23.16-.11-.52.54c-1.11,2.49-2.81,11.8-4.53,13.18-.52.42-1.4.68-2.07.76-1.64.2-6.55.22-8.13-.03-2.08-.33-3.21-2.65-2.51-4.6,6.28-17.65,11.7-35.6,17.89-53.28.79-2.25,2.39-8.02,3.44-9.63.29-.45.94-.95,1.44-1.07,1.83-.41,10.24-.34,12.31-.1.8.09,1.39.27,1.95.88,7.49,21.38,14.83,42.83,21.62,64.46.12,1.37-1.08,2.99-2.41,3.29s-6.88.26-8.43.08c-.64-.07-1.72-.4-2.18-.83ZM1010.8,344.29l-7.44-24.79-8.14,24.79h15.58Z"/>
  <path class="cls-1" d="M594.26,302.97l16.4,50.88.72-.87,15.97-49.54c.22-.36.5-.69.87-.9,1-.56,8.38-.6,9.89-.41,1.91.24,2.68,1.78,2.5,3.56l-20.74,62.15c-.41,1.34-1.03,2.46-2.48,2.83-1.62.42-10.39.42-12.2.15-1.7-.26-2.61-1.39-3.04-2.98l-20.87-62.72c.17-1.42.8-2.71,2.31-2.95,1.67-.26,7.12-.25,8.84-.04.73.09,1.27.39,1.82.83Z"/>
  <path class="cls-1" d="M767.7,314.55c-1.42-.25-2.5-1.59-2.66-3-.27-2.3-.72-8.7,2.03-9.32l51.54.02c1.51.53,1.91,1.73,2.05,3.25.2,2.21.65,9.05-2.67,9.05h-18.24v53.29c0,.77-1.23,2.58-2.11,2.85-1.2.37-7.92.32-9.25,0-1.16-.28-2.46-1.76-2.46-2.86v-53.29h-18.24Z"/>
  <path class="cls-1" d="M486.48,302.97c.4-.44,1.22-.76,1.82-.84,1.67-.2,6.88-.22,8.49.04,1.23.19,2.11,1.08,2.3,2.3l.03,63.37c-.06,1.42-1.3,2.76-2.68,2.98-1.34.21-7.16.23-8.4-.05-1.09-.24-2.19-1.49-2.36-2.6l-.04-62.67c0-.78.32-1.96.84-2.53Z"/>
</svg>