<?xml version="1.0" encoding="UTF-8"?><svg id="EXAMPLES__x28_TURN_OFF_x29_" xmlns="http://www.w3.org/2000/svg" viewBox="0 0 1250 703"><defs><style>.cls-1{fill:#febe15;}.cls-2{fill:#bccb31;}.cls-3{fill:#f7944c;}.cls-4{fill:#03ab9d;}</style></defs><path class="cls-4" d="M501.52654,427.19871c1.99819,2.65496,3.864,5.32237,5.71244,8.07903,6.32781,9.13707,13.366,17.2252,21.09715,25.19213,1.81125,1.87454,3.59109,3.77929,5.3688,5.68567,30.23087,31.63591,72.78181,53.0232,116.79714,54.11902,14.59414.16344,28.62019-1.72484,42.96254-4.28816-5.31246,20.34156-15.49634,39.69226-33.94823,50.92235-13.80104,8.05445-27.33966,11.1743-43.25135,11.01685q-2.1452-.01626-4.33374-.03283c-12.21088-.25191-23.07638-2.06533-34.67408-5.76122-.99957-.30128-1.99914-.60256-3.029-.91297-23.93743-7.28384-46.98346-18.10127-66.17316-34.34096q-1.71932-1.40373-3.47337-2.83582c-13.59772-11.56729-26.97219-28.45269-29.16916-46.78082-1.67533-22.50091,4.93976-38.66601,19.3407-55.73712q3.78774-4.32514,6.77332-4.32514Z"/><path class="cls-1" d="M655.43607,126.3978c1.3849.0142,2.7698.0284,4.19667.04303,19.8134.40404,37.60677,6.11894,52.33101,20.03722,16.01675,17.45109,28.95472,43.50564,28.58771,67.72815-.01178,1.01998-.02356,2.03996-.0357,3.09084q-.02272,1.13611-.0459,2.29518c-4.5271-2.11265-8.55524-4.77367-12.73059-7.50778-43.2859-27.1434-96.40549-17.99759-143.48942-7.50778-7.61327,1.75129-15.14583,3.74491-22.66106,5.87566.73646-6.78596,2.95256-11.90091,6.03887-17.87178.47159-.9212.94318-1.8424,1.42907-2.79151,14.21106-27.37742,33.70753-50.95631,63.76928-61.08074,7.56788-2.21269,14.76712-2.41957,22.61005-2.31048Z"/><path class="cls-3" d="M788.7808,309.6856c19.61027-1.32693,40.49712,5.95788,56.06354,17.95339,9.62868,9.11548,15.578,20.97291,16.18865,34.18795.48683,29.48786-6.37857,56.13268-26.55266,78.42878-8.10725,7.8902-16.86078,13.02012-27.41972,16.97412-1.06542.41742-2.13084.83483-3.22855,1.2649-11.64859,3.88886-23.82491,2.99124-35.94248,2.65221,1.75684-5.5536,3.87743-10.77506,6.28369-16.07645,10.68295-24.41676,16.1551-51.52181,16.08665-78.15846.00125-1.10237.0025-2.20475.00379-3.34052.00088-2.31736-.00148-4.63473-.00697-6.95208-.00696-3.49215-.00006-6.98407.00829-10.47621.00426-12.2213-.26049-24.28731-1.48421-36.45762Z"/><path class="cls-2" d="M493.69234,241.78914v2.6114q-1.87185,1.79534-4.48835,3.9171c-14.07075,12.13509-27.58377,28.58854-30.53097,47.67339-2.36789,32.79017,6.13846,63.58867,20.56989,92.9037q1.39241,3.05004,1.39241,5.66144c-29.32442-3.60343-55.63545-18.88494-74.66979-41.21629-11.6945-15.70189-15.46436-32.24768-14.11789-51.48849,3.54553-17.56958,15.75191-30.5686,30.2243-40.26061,22.23479-13.99273,45.38694-20.49099,71.62039-19.80165Z"/><path class="cls-1" d="M722.10843,258.92647c3.97886,3.4806,7.18168,6.65112,9.22151,11.5881q-1.2394,3.64168-3.50907,7.34457c-.73216,1.22868-1.46432,2.45737-2.21867,3.72329-1.54736,2.42032-3.12439,4.82174-4.71787,7.21196-5.03763-2.05237-7.97817-5.28101-11.75131-9.13991-23.20489-22.21855-53.26153-29.40175-84.59866-29.18733-19.31176.42645-37.8557,3.4088-56.36765,8.89891q-8.47926,2.46364-13.10642.7029c-2.32787-4.30655-2.6114-6.76024-2.6114-11.75131,55.32034-20.37809,121.66521-30.38634,169.65954,10.60882Z"/><path class="cls-4" d="M532.79707,403.9154c3.52185,1.42887,4.95365,3.35378,7.32927,6.30919,6.0326,7.04921,12.8277,12.62655,20.15676,18.27982,1.11423.88869,2.22846,1.77739,3.37646,2.69301,28.73735,22.09238,63.14744,30.15252,98.87403,26.11817,8.77636-1.16119,16.96775-3.6005,25.32569-6.45614q4.29963-1.46381,9.52244-2.76951,1.29264,10.98748,2.6114,22.19692c-28.61419,13.83019-64.38103,14.59462-94.33436,4.20464-6.16581-2.36412-12.05846-5.15675-17.95594-8.12174-1.29769-.63286-2.59539-1.26571-3.9324-1.91775-22.69253-11.6538-46.60016-32.31524-60.04695-54.2274v-2.6114q5.35736-4.01802,9.0736-3.69779Z"/><path class="cls-4" d="M514.58355,414.1417c4.45304,4.38608,8.75642,8.8821,13.0025,13.46855,3.20472,3.46061,6.43227,6.89964,9.65792,10.34073,1.74007,1.86712,3.45949,3.75346,5.17244,5.6455,24.17659,25.78521,61.51689,44.17745,96.94831,45.40882,3.04475.03819,6.08982.05456,9.13481.051,1.5975.00074,3.195.00147,4.84091.00223,13.15021-.15834,24.90038-2.24835,37.51277-5.71467,2.60515-.47127,5.21495-.92052,7.83421-1.3057q.31603,15.48545-1.3057,20.89122c-18.26296,11.76946-52.37945,8.911-72.71474,5.05354-31.44022-7.12842-59.08143-24.04954-82.05293-46.29214-1.92291-1.85574-3.87166-3.68115-5.82338-5.50651q-24.10357-22.9236-28.73563-36.81975c2.15441-1.72353,4.30881-3.44705,6.52851-5.2228Z"/><path class="cls-1" d="M655.51257,204.91584c2.82784-.0126,5.65441-.05317,8.48196-.09436,24.19574-.18437,46.19307,5.84579,66.02972,19.99355,1.20176.73216,2.40351,1.46432,3.64168,2.21867,3.66392,2.55146,5.90107,4.33018,8.10963,8.22694-.10113,8.71568-2.25702,17.15445-6.52851,24.80832-1.23878-1.0772-2.47757-2.15441-3.75389-3.26425-1.79249-1.52667-3.58812-3.04965-5.38602-4.56995-.9779-.83315-1.9558-1.6663-2.96333-2.5247-16.85877-13.97181-35.48946-22.59915-57.09892-26.20073-.8685-.14475-1.73699-.2895-2.6318-.43863-34.21622-4.68889-72.41897,2.47456-104.61899,14.08219q-2.42811.71916-6.34521.71916c.26389-2.09931.57167-4.19313.89767-6.28369q.24995-1.74961.50494-3.53457,1.20879-3.23875,3.79979-5.38602c5.35105-2.4052,10.76384-4.003,16.42327-5.52373,1.23311-.33442,2.46621-.66883,3.73668-1.01338,25.37738-6.63007,51.46091-11.1444,77.70133-11.21481Z"/><path class="cls-4" d="M555.06029,395.86188q2.72361,2.04526,5.71244,4.65156c26.65434,21.84012,58.3306,28.97626,92.21514,26.68527,6.65068-.77918,13.10332-2.25812,19.58552-3.9171,2.36505-.5238,4.73142-1.04172,7.09975-1.55052,1.53502-.35009,3.07003-.70018,4.65156-1.06088q8.75325,13.54479,9.13991,20.89122c-22.88844,12.76471-53.65459,13.79438-78.85211,7.88011-30.93017-8.87066-52.93642-25.43494-75.22063-48.35685,4.645-4.90081,8.97486-7.6602,15.66841-5.2228Z"/><path class="cls-1" d="M702.14549,280.91938c4.58076,3.9568,8.49451,8.32937,12.21035,13.09781-1.77382,4.03062-3.71486,6.64134-7.01814,9.54794-.76414.69513-1.52828,1.39027-2.31558,2.10646q-2.41759,1.40261-4.97289,1.2649c-3.35752-1.47012-5.56581-3.45651-8.29834-5.90116-25.79235-21.10283-63.15194-25.22457-95.37165-22.41879-4.48584.49102-8.93631,1.10153-13.39938,1.77239q-11.11705,1.43777-15.06147-1.57602c-.76919-.93414-1.53838-1.86827-2.33088-2.83072-.79275-.92404-1.58551-1.84808-2.40229-2.80012-.52682-.88028-1.05364-1.76055-1.59642-2.66751.43088-1.29264.86177-2.58529,1.3057-3.9171,6.30671-2.44015,12.9951-3.74441,19.58552-5.2228,1.66966-.39722,3.33933-.79444,5.05959-1.20369,39.76847-8.53993,81.7329-4.27875,114.60588,20.74841Z"/><path class="cls-4" d="M671.65022,407.18476q2.5553,2.06056,6.14598,5.65124v3.9171c-33.91706,9.93483-67.54884,8.19059-98.89985-8.92187-7.15416-4.09414-14.07835-8.72641-19.91896-14.58075v-2.6114c3.31771-.84716,6.63646-1.68975,9.95597-2.5298.93077-.23816,1.86154-.47633,2.82052-.72171,34.51722-8.70847,71.14047-1.16962,99.89634,19.79718Z"/><path class="cls-1" d="M612.0215,283.16355c1.60844.00642,3.21688.01283,4.87407.01945,27.19527.34802,53.78512,6.09306,74.6972,24.47775q1.87185,2.02486,1.87185,4.63626c-21.6809,10.24583-47.34689,6.51837-69.20216-1.3057-7.14459-2.67761-14.05025-5.76707-20.89122-9.13991-.80559-.39469-1.61118-.78939-2.44118-1.19604-8.15207-4.04679-14.80356-7.76831-21.06144-14.47237,10.77837-2.38533,21.13024-3.07152,32.15289-3.01943Z"/><path class="cls-3" d="M777.02949,309.6856c.41687,1.90223.82247,3.80693,1.22409,5.71244.22722,1.06037.45445,2.12074.68855,3.21325,7.43505,43.95905,3.39119,102.17253-22.80387,139.92424-6.34523-.79315-11.41255-3.56142-16.97412-6.52851.58405-.97958,1.16809-1.95916,1.76984-2.96843,16.35991-27.69673,24.38667-54.95238,25.64989-87.12495.05386-1.16977.10772-2.33955.16321-3.54477.3808-15.82695-2.2458-31.91035-5.38602-47.37757,5.32449-1.16789,10.21056-1.41272,15.66841-1.3057Z"/><path class="cls-3" d="M753.52687,314.90841c9.89819,40.71221,5.66924,87.52416-15.66841,124.04161-1.69354,2.21325-3.42054,4.40286-5.2228,6.52851-4.19815-1.83901-6.94873-4.05217-10.11918-7.34457q-1.20176-1.2371-2.42779-2.49919c-.59919-.62949-1.19839-1.25898-1.81574-1.90755,1.71592-4.80121,3.82893-8.38012,6.93654-12.40416,17.00099-23.89328,18.77995-56.68936,14.82685-84.89608q-.81509-4.62706-2.27478-9.37453-1.20879-4.30983-1.20879-9.53264c1.84336-.69717,3.69475-1.37314,5.54923-2.04016,1.03008-.3787,2.06015-.75741,3.12144-1.14759,3.33007-.78841,5.10868-.5301,8.30344.57634Z"/><path class="cls-2" d="M511.3193,245.78785c3.86073,1.44778,7.46412,3.19725,11.09846,5.1412v2.6114c-2.11753,1.47526-4.30943,2.84434-6.52851,4.16192-17.92928,11.17998-30.81637,26.42721-36.04959,47.32657-4.35233,28.5948,6.69088,57.24099,20.09046,81.96335q1.59642,3.64678.29072,7.56389h-7.83421c-16.33739-30.93469-32.0491-71.32775-21.62568-106.57786,5.63647-13.55906,24.11663-42.60151,40.55834-42.19047Z"/><path class="cls-3" d="M730.02425,321.43691c.63167,2.41942,1.25581,4.84081,1.87695,7.26296.34841,1.34819.69682,2.69638,1.05578,4.08542,6.05122,26.5564,3.45866,58.97019-10.47111,82.68761q-4.25241,6.4145-6.82433,9.11441h-3.9171c-1.35534-2.46318-2.683-4.94161-3.99871-7.42618q-1.11339-2.06772-2.24927-4.17722c-1.78104-4.56428-1.8988-6.04826-.28052-10.59352,1.43331-2.94206,2.93641-5.85063,4.48835-8.73188,10.3086-20.07848,9.03356-41.71896,3.34586-63.08169,1.9029-1.28035,3.80734-2.55842,5.71244-3.8355,1.06037-.71196,2.12074-1.42393,3.21325-2.15747q4.82938-3.14694,8.04842-3.14694Z"/><path class="cls-2" d="M531.55767,258.76326c3.70741,4.79783,5.2228,6.87956,5.2228,13.05701q-3.06024,2.42779-7.18136,4.89638c-14.7598,9.46986-23.31837,20.15023-28.94984,36.88096-3.31292,20.23248,2.69516,38.6401,11.6748,56.51429q4.52842,9.03308,4.87088,13.99867-2.36658,3.01943-5.2228,5.2228h-2.6114c-13.75944-27.4628-28.17-57.51321-19.63142-88.80808,5.75777-16.59977,18.12237-28.67283,32.68843-37.84493,1.15294-.73048,2.30589-1.46096,3.49377-2.21357q3.03474-1.70353,5.64614-1.70353Z"/><path class="cls-2" d="M539.39188,277.04308c3.35463,5.95618,4.32616,11.59747,2.6114,18.27982-2.64728,2.72767-5.46682,4.62391-8.62477,6.73252-7.48207,5.76107-11.93875,15.45725-13.57215,24.60431-1.37106,12.03959,1.86581,23.56755,7.41087,34.24405q1.72903,3.62128.91297,7.04875c-1.72081,2.97231-3.5438,5.66234-5.71244,8.32384-4.75443-6.71214-7.91085-13.47134-10.77203-21.13604q-.50526-1.34945-1.02072-2.72616c-4.82287-13.25889-7.439-32.16229-1.7539-45.58478q1.45871-2.5757,3.10104-4.97799c.5689-.88701,1.1378-1.77402,1.72393-2.68791,6.70868-9.69643,15.29803-16.70491,25.69579-22.12041Z"/><path class="cls-3" d="M706.52163,335.79963h2.6114c2.41879,8.25293,3.11516,15.81576,3.10104,24.40029-.00116,1.26308-.00231,2.52617-.00351,3.82753-.20634,12.52815-2.37308,23.91857-9.62604,34.44584h-2.6114c-4.71203-15.62964-9.52127-34.04475-3.01943-49.86146,2.62457-4.80081,5.73257-8.89642,9.54794-12.81219Z"/><path class="cls-2" d="M543.30898,301.8514q-2.822,39.59223-10.44561,54.83945h-2.6114c-5.32878-11.65671-8.0915-23.90711-3.97831-36.43212q8.74694-18.40733,17.03532-18.40733Z"/></svg>