<svg id="LOGO" xmlns="http://www.w3.org/2000/svg" xmlns:xlink="http://www.w3.org/1999/xlink" viewBox="0 0 1250 703"><defs><style>.cls-1{fill:url(#linear-gradient);}.cls-2{fill:url(#radial-gradient);}.cls-3{fill:url(#linear-gradient-2);}</style><linearGradient id="linear-gradient" x1="619.87103" y1="293.17314" x2="619.87103" y2="575.90864" gradientTransform="matrix(1, 0, 0, -1, 0, 708)" gradientUnits="userSpaceOnUse"><stop offset="0" stop-color="#04f"/><stop offset="1" stop-color="#3cf"/></linearGradient><radialGradient id="radial-gradient" cx="618.2154" cy="433.9436" r="148.50372" gradientTransform="matrix(1, 0, 0, -1, 0, 708)" gradientUnits="userSpaceOnUse"><stop offset="0.95" stop-color="#f2f2f2"/><stop offset="1" stop-color="#ccc"/></radialGradient><linearGradient id="linear-gradient-2" x1="619.0065" y1="371.48748" x2="619.0065" y2="497.00747" gradientTransform="matrix(1, 0, 0, -1, 0, 708)" gradientUnits="userSpaceOnUse"><stop offset="0"/><stop offset="1" stop-color="#333"/></linearGradient></defs><path d="M478.08415,527.06392a2.17937,2.17937,0,0,1-.33532,1.19459,2.494,2.494,0,0,1-1.28889.86971,12.12376,12.12376,0,0,1-2.61967.51345,37.92928,37.92928,0,0,1-4.19147.18861,38.38347,38.38347,0,0,1-5.75278-.30389,5.77367,5.77367,0,0,1-2.51487-.92213,4.27532,4.27532,0,0,1-1.19459-1.4775L436.159,489.40355v37.72321a1.89655,1.89655,0,0,1-.36676,1.16312,2.78744,2.78744,0,0,1-1.29935.83828,10.98232,10.98232,0,0,1-2.452.51344,40.80521,40.80521,0,0,1-7.83806,0,11.17956,11.17956,0,0,1-2.48344-.51344,2.93371,2.93371,0,0,1-1.32032-.83828,1.73928,1.73928,0,0,1-.39819-1.16312V452.22524a1.7917,1.7917,0,0,1,.39819-1.1736,2.8189,2.8189,0,0,1,1.32032-.79639,13.62267,13.62267,0,0,1,2.48344-.4925,43.19423,43.19423,0,0,1,7.83806,0,13.33719,13.33719,0,0,1,2.452.4925,2.6826,2.6826,0,0,1,1.29935.79639,1.95932,1.95932,0,0,1,.36676,1.1736v33.85658l23.28361-33.79371a4.60031,4.60031,0,0,1,1.04786-1.32032,4.49546,4.49546,0,0,1,1.59275-.83828,12.39692,12.39692,0,0,1,2.52536-.42963c1.04787-.07336,2.33676-.11525,3.92951-.11525a36.14351,36.14351,0,0,1,4.05524.17815,12.3039,12.3039,0,0,1,2.54631.52393,2.88185,2.88185,0,0,1,1.33078.82783,1.85483,1.85483,0,0,1,.36676,1.11073,4.8203,4.8203,0,0,1-.55537,2.14812,37.28782,37.28782,0,0,1-2.09574,3.49987l-21.8166,28.57532,23.839,35.94183a29.82054,29.82054,0,0,1,1.63467,3.35319A4.66294,4.66294,0,0,1,478.08415,527.06392Z"/><path d="M533.65254,498.37332a5.96229,5.96229,0,0,1-1.25745,4.19147,4.5268,4.5268,0,0,1-3.47893,1.35175H495.55208a22.68631,22.68631,0,0,0,.83828,6.36056,12.02959,12.02959,0,0,0,2.64061,4.86212,11.52673,11.52673,0,0,0,4.663,3.03881,20.15094,20.15094,0,0,0,6.85306,1.04787,38.65714,38.65714,0,0,0,7.12552-.57632,46.934,46.934,0,0,0,5.32318-1.28888c1.48795-.47156,2.73492-.90115,3.70943-1.29935a6.89559,6.89559,0,0,1,2.39959-.57631,1.87555,1.87555,0,0,1,.92213.20958,1.65592,1.65592,0,0,1,.61827.77541,5.3862,5.3862,0,0,1,.33532,1.56132q.0943,1.04784.09434,2.54631c0,.90115,0,1.67659-.06287,2.30532a14.17282,14.17282,0,0,1-.18861,1.63467,3.78206,3.78206,0,0,1-.36673,1.13168,3.93989,3.93989,0,0,1-.64967.89069,7.126,7.126,0,0,1-2.17958,1.17361,34.21385,34.21385,0,0,1-4.54777,1.44606q-2.76639.69155-6.2872,1.226a52.83151,52.83151,0,0,1-7.618.52393,40.35315,40.35315,0,0,1-12.80493-1.84426,22.875,22.875,0,0,1-9.18979-5.5956,23.23141,23.23141,0,0,1-5.5013-9.43081,44.56574,44.56574,0,0,1-1.81282-13.39174,42.6374,42.6374,0,0,1,1.90713-13.18215,27.59,27.59,0,0,1,5.53273-9.95474,23.74474,23.74474,0,0,1,8.81257-6.23482,34.06792,34.06792,0,0,1,23.47225-.12574,21.14567,21.14567,0,0,1,8.01621,5.627,22.53978,22.53978,0,0,1,4.61064,8.50868,37.00934,37.00934,0,0,1,1.47746,10.68826Zm-14.995-4.43249q.18861-6.50724-2.60918-10.22719c-1.86524-2.473-4.74687-3.71992-8.63442-3.71992a11.13854,11.13854,0,0,0-5.13454,1.11074,10.57294,10.57294,0,0,0-3.62561,2.97593,13.78961,13.78961,0,0,0-2.211,4.422,22.1932,22.1932,0,0,0-.8907,5.43843Z"/><path d="M574.19452,529.46352l-6.633,19.42746c-.36673,1.04787-1.37271,1.76041-3.00738,2.211a28.94219,28.94219,0,0,1-7.18835.67065,29.89736,29.89736,0,0,1-3.94-.20958,5.4703,5.4703,0,0,1-2.211-.71254,1.60322,1.60322,0,0,1-.79639-1.226,3.97165,3.97165,0,0,1,.36673-1.78139l7.33507-18.36911a4.19163,4.19163,0,0,1-1.44606-1.14217,5.37534,5.37534,0,0,1-.95353-1.62418L536.859,476.31573a10.26856,10.26856,0,0,1-.79639-3.27983,2.22159,2.22159,0,0,1,.73352-1.78139,4.78859,4.78859,0,0,1,2.49393-.89069,34.03508,34.03508,0,0,1,4.64205-.25148c1.7604,0,3.1436,0,4.19146.09431a7.58639,7.58639,0,0,1,2.3996.46106,2.58842,2.58842,0,0,1,1.28885,1.13168,11.59922,11.59922,0,0,1,.85926,2.19L565.581,510.66478h.17812l11.799-37.41933a4.19147,4.19147,0,0,1,.95353-2.09573,3.96106,3.96106,0,0,1,1.93853-.765,29.84413,29.84413,0,0,1,4.72589-.25147,31.70933,31.70933,0,0,1,4.39057.25147,5.2394,5.2394,0,0,1,2.5882.92213,2.232,2.232,0,0,1,.82779,1.81282,9.086,9.086,0,0,1-.49246,2.67205Z"/><path d="M648.57211,505.61408a24.50979,24.50979,0,0,1-2.33673,11.00261,22.707,22.707,0,0,1-6.2872,7.90092,27.68467,27.68467,0,0,1-9.33647,4.75733,39.60843,39.60843,0,0,1-11.4322,1.60323,40.72925,40.72925,0,0,1-7.64942-.6811,44.2115,44.2115,0,0,1-6.2872-1.62418,27.04335,27.04335,0,0,1-4.5163-2.00143,12.91033,12.91033,0,0,1-2.60918-1.84426,4.64208,4.64208,0,0,1-1.1422-2.30532,21.3571,21.3571,0,0,1-.33533-4.3277,23.87532,23.87532,0,0,1,.12574-3.196,8.98,8.98,0,0,1,.39819-2.09573,2.37884,2.37884,0,0,1,.73352-1.14217,1.83379,1.83379,0,0,1,1.04787-.33533,5.07177,5.07177,0,0,1,2.43106,1.04787,44.20106,44.20106,0,0,0,4.02384,2.24245,36.91552,36.91552,0,0,0,5.868,2.24245,27.96788,27.96788,0,0,0,7.89047,1.04787,18.28543,18.28543,0,0,0,5.23933-.70209,11.74666,11.74666,0,0,0,3.961-2.00143,8.46673,8.46673,0,0,0,2.48344-3.196,10.12257,10.12257,0,0,0,.85926-4.19147,7.4817,7.4817,0,0,0-1.467-4.642,14.8272,14.8272,0,0,0-3.84565-3.437,39.503,39.503,0,0,0-5.37557-2.82926q-3.01792-1.3203-6.20335-2.79782a57.0798,57.0798,0,0,1-6.20336-3.3427,25.49393,25.49393,0,0,1-5.386-4.48487,21.2604,21.2604,0,0,1-3.83516-6.18241,22.21562,22.21562,0,0,1-1.47747-8.54011,22.7602,22.7602,0,0,1,2.09573-10.049,20.67447,20.67447,0,0,1,5.72138-7.18835,24.457,24.457,0,0,1,8.47727-4.26483,37.05256,37.05256,0,0,1,10.35294-1.41462,39.337,39.337,0,0,1,10.93973,1.59274,29.2045,29.2045,0,0,1,4.3591,1.66611,10.36386,10.36386,0,0,1,2.52533,1.52987,4.5796,4.5796,0,0,1,.82779,1.04787,4.94508,4.94508,0,0,1,.36673,1.13168,13.2379,13.2379,0,0,1,.22008,1.79185c0,.71254.05238,1.60323.05238,2.67205s0,2.19-.08385,3.00737a10.82676,10.82676,0,0,1-.31435,2.02238,2.51483,2.51483,0,0,1-.60778,1.1736,1.5613,1.5613,0,0,1-1.04786.36676,5.09247,5.09247,0,0,1-2.14812-.85926c-.985-.57631-2.19007-1.19458-3.62564-1.87569a35.93054,35.93054,0,0,0-4.97737-1.84425,21.93119,21.93119,0,0,0-6.20336-.82783,14.78656,14.78656,0,0,0-4.61064.64967,9.3259,9.3259,0,0,0-3.29032,1.78139,6.99993,6.99993,0,0,0-1.97,2.73492,8.90712,8.90712,0,0,0-.63918,3.37413,7.44026,7.44026,0,0,0,1.44606,4.57918,13.62273,13.62273,0,0,0,3.86663,3.437,40.72979,40.72979,0,0,0,5.5013,2.82925q3.065,1.32031,6.2872,2.79782a62.1848,62.1848,0,0,1,6.28721,3.3427,25.1484,25.1484,0,0,1,5.46983,4.49536,20.73693,20.73693,0,0,1,3.86663,6.14048A21.49164,21.49164,0,0,1,648.57211,505.61408Z"/><path d="M709.54749,527.36778a1.69748,1.69748,0,0,1-.36672,1.04787,2.72449,2.72449,0,0,1-1.23648.76495,10.132,10.132,0,0,1-2.3577.46107,36.77791,36.77791,0,0,1-3.71992.15717,37.55147,37.55147,0,0,1-3.78278-.15717,10.25873,10.25873,0,0,1-2.3577-.46107,2.72449,2.72449,0,0,1-1.23648-.76495,1.69748,1.69748,0,0,1-.36672-1.04787V496.09943a26.6243,26.6243,0,0,0-.57632-6.2872,12.51063,12.51063,0,0,0-1.69754-3.89807,7.49233,7.49233,0,0,0-2.85017-2.51487,8.89632,8.89632,0,0,0-4.0867-.8907,10.20631,10.20631,0,0,0-5.96237,2.09574,32.02237,32.02237,0,0,0-6.2872,6.2872v36.43433a1.65561,1.65561,0,0,1-.37722,1.04786,2.64075,2.64075,0,0,1-1.25745.765,10.74985,10.74985,0,0,1-2.3577.46106,44.84739,44.84739,0,0,1-7.5027,0,10.62415,10.62415,0,0,1-2.3577-.46106,2.73525,2.73525,0,0,1-1.268-.765,1.69743,1.69743,0,0,1-.36672-1.04786V446.56677a1.80258,1.80258,0,0,1,.36672-1.10025,2.693,2.693,0,0,1,1.268-.82783,10.2063,10.2063,0,0,1,2.3577-.52393,37.396,37.396,0,0,1,7.5027,0,10.34219,10.34219,0,0,1,2.3577.52393,2.60935,2.60935,0,0,1,1.25745.82783,1.74989,1.74989,0,0,1,.37722,1.10025v30.29384a29.56064,29.56064,0,0,1,8.14195-5.86806,20.18176,20.18176,0,0,1,8.62392-1.92808,21.796,21.796,0,0,1,9.43081,1.83377,16.54641,16.54641,0,0,1,6.20335,5.04024,20.68514,20.68514,0,0,1,3.40557,7.4713,43.88381,43.88381,0,0,1,1.04787,10.35293Z"/><path d="M776.87295,499.4107a41.91457,41.91457,0,0,1-1.83376,12.784,27.2448,27.2448,0,0,1-5.59564,9.95473,24.98107,24.98107,0,0,1-9.43081,6.45487,35.41806,35.41806,0,0,1-13.21358,2.27388,36.20394,36.20394,0,0,1-12.72113-2.03286,22.92775,22.92775,0,0,1-8.96974-5.8995,24.10065,24.10065,0,0,1-5.23933-9.5251,44.09449,44.09449,0,0,1-1.71852-12.89925A41.33871,41.33871,0,0,1,720.0261,487.706a26.91991,26.91991,0,0,1,5.61655-9.95474,25.14911,25.14911,0,0,1,9.389-6.40248,35.17683,35.17683,0,0,1,13.18219-2.2634,36.93772,36.93772,0,0,1,12.784,1.99094,22.38227,22.38227,0,0,1,8.93833,5.86806,24.31132,24.31132,0,0,1,5.23934,9.52511A44.38768,44.38768,0,0,1,776.87295,499.4107Zm-15.90661.61823a40.32186,40.32186,0,0,0-.64967-7.47129,17.49985,17.49985,0,0,0-2.17958-5.92045,10.91877,10.91877,0,0,0-4.08671-3.94,13.12978,13.12978,0,0,0-6.42343-1.41462,13.55931,13.55931,0,0,0-6.01475,1.26791,10.79319,10.79319,0,0,0-4.19147,3.678,17.91763,17.91763,0,0,0-2.49393,5.84708,33.35443,33.35443,0,0,0-.82779,7.7647,38.49579,38.49579,0,0,0,.68114,7.4713,18.495,18.495,0,0,0,2.17958,5.93093,10.47873,10.47873,0,0,0,4.08671,3.89807,13.3815,13.3815,0,0,0,6.392,1.38319,13.70615,13.70615,0,0,0,6.07762-1.25745,10.90817,10.90817,0,0,0,4.19147-3.65705,16.83927,16.83927,0,0,0,2.46246-5.80519A34.72847,34.72847,0,0,0,760.96634,500.02893Z"/><path d="M818.52567,521.96078a19.07241,19.07241,0,0,1-.33532,4.19147,4.45326,4.45326,0,0,1-.89067,2.03287,4.83056,4.83056,0,0,1-1.62418,1.04786,14.37524,14.37524,0,0,1-2.52533.79639,23.799,23.799,0,0,1-3.1436.52394,30.62244,30.62244,0,0,1-3.40557.1886,24.64534,24.64534,0,0,1-7.99523-1.16311,13.38156,13.38156,0,0,1-5.58515-3.59418,14.91088,14.91088,0,0,1-3.25885-6.11954,32.37774,32.37774,0,0,1-1.04787-8.72872V483.01158h-6.52825c-.77541,0-1.37271-.482-1.78139-1.44606a13.44323,13.44323,0,0,1-.61827-4.82019,24.31211,24.31211,0,0,1,.15721-3.01787,7.20954,7.20954,0,0,1,.46106-1.93856,2.1691,2.1691,0,0,1,.76492-1.04786,1.86526,1.86526,0,0,1,1.04787-.31435h6.50728V458.25048a1.86517,1.86517,0,0,1,.34581-1.11074,2.46262,2.46262,0,0,1,1.226-.82782,9.65119,9.65119,0,0,1,2.39959-.4925,36.56258,36.56258,0,0,1,3.70943-.15718,37.55147,37.55147,0,0,1,3.78278.15718,9.15862,9.15862,0,0,1,2.36819.4925,2.73483,2.73483,0,0,1,1.226.82782,1.75,1.75,0,0,1,.36673,1.11074v12.21813h11.92473a1.89664,1.89664,0,0,1,1.04787.31435,2.24227,2.24227,0,0,1,.76492,1.04787,7.62723,7.62723,0,0,1,.46106,1.93856,26.84006,26.84006,0,0,1,.14672,3.01786,13.49736,13.49736,0,0,1-.60778,4.82019,1.99927,1.99927,0,0,1-1.78139,1.44607H804.19086v25.70417q0,4.48488,1.41459,6.72732c.94311,1.488,2.61967,2.24246,5.04024,2.24246a10.12232,10.12232,0,0,0,2.211-.22,12.19415,12.19415,0,0,0,1.74992-.4925c.51345-.17815.94311-.34578,1.28886-.4925a2.71394,2.71394,0,0,1,.95353-.20958,1.37274,1.37274,0,0,1,.71254.20958,1.49841,1.49841,0,0,1,.52394.85926,15.2388,15.2388,0,0,1,.33532,1.76041A22.76439,22.76439,0,0,1,818.52567,521.96078Z"/><path d="M818.52567,454.98114a5.74229,5.74229,0,1,1,0,.69345A5.74229,5.74229,0,0,1,818.52567,454.98114Zm10.573,0a4.86211,4.86211,0,1,0-4.84114,5.29171,5.04021,5.04021,0,0,0,4.84389-5.22919Zm-6.93688-3.437h2.09574c1.21549,0,2.42057.44012,2.42057,2.03287a1.88613,1.88613,0,0,1-1.26794,1.79184l1.59277,2.79782h-1.04786l-1.26795-2.48344h-1.63467v2.48344h-.89066Zm1.84426,3.31127c1.04787,0,1.71852-.31435,1.71852-1.21553s-.37722-1.26791-1.59278-1.26791h-1.04787v2.48344Z"/><path d="M747.5117,543.23247h1.52991v5.26032a4.537,4.537,0,0,1,2.83974-1.268c2.34721,0,3.60467,1.81279,3.60467,4.61064,0,3.14361-1.85475,4.904-3.919,4.904a4.11838,4.11838,0,0,1-2.59869-1.12122h0l-.13623.90115h-1.226Zm3.75138,12.2181c1.488,0,2.5882-1.36221,2.5882-3.59417,0-2.0014-.67065-3.3427-2.38917-3.3427a3.75143,3.75143,0,0,0-2.42057,1.226v4.76778a3.57335,3.57335,0,0,0,2.22154.94317Z"/><path d="M757.75987,559.14958c1.04787,0,1.67656-.81737,2.09573-1.93853l.20959-.67065-3.64656-9.09548h1.59278l1.84426,5.01926c.28294.7859.59729,1.71852.88023,2.5568h.07336c.262-.81737.52394-1.74992.76492-2.5568l1.62419-5.01926h1.488l-3.458,9.829c-.6287,1.79187-1.56132,3.1436-3.39508,3.1436a2.89329,2.89329,0,0,1-1.04787-.18861l.29343-1.20507A2.8895,2.8895,0,0,0,757.75987,559.14958Z"/><path d="M769.31781,544.28034h1.56131v10.89784h5.3441V556.509h-6.90547Z"/><path d="M777.99418,547.44492H779.545v5.54319c0,1.69754.503,2.43106,1.69754,2.43106.93262,0,1.59278-.47155,2.452-1.52991v-6.44441h1.52991v9.07451h-1.27837l-.12574-1.4146h0a3.85625,3.85625,0,0,1-2.98639,1.63467c-1.92811,0-2.7873-1.226-2.7873-3.5418Z"/><path d="M789.90842,551.77261l-2.7454-4.32769h1.66613l1.2155,2.0014c.27246.482.57632,1.04786.89066,1.50893h.07336c.262-.503.54491-1.04787.82779-1.50893l1.04787-2.0014h1.60327l-2.74541,4.50581,2.9445,4.56869h-1.6032l-1.33081-2.09573c-.31435-.54492-.64967-1.04787-.985-1.62419h-.07336c-.31434.52394-.61827,1.04787-.91164,1.62419l-1.23647,2.09573h-1.60327Z"/><path d="M796.23752,544.59475a1.04787,1.04787,0,1,1,1.10882.98314c-.02028.00122-.04062.00179-.061.00186A1.04786,1.04786,0,0,1,796.23752,544.59475Zm.28294,2.85017h1.52991v9.0745h-1.52991Z"/><path d="M804.5052,547.22484c2.22148,0,4.19147,1.73943,4.19147,4.77827s-1.98048,4.73638-4.19147,4.73638-4.19146-1.729-4.19146-4.73638S802.28373,547.22484,804.5052,547.22484Zm0,8.24671c1.56132,0,2.60918-1.39368,2.60918-3.46844s-1.04786-3.51032-2.60918-3.51032-2.61966,1.42508-2.61966,3.51032,1.06884,3.46851,2.61966,3.46851Z"/><path d="M811.023,547.44492h1.26794l.12574,1.30983h.06287a4.25441,4.25441,0,0,1,3.03884-1.52991c1.89664,0,2.7559,1.23648,2.7559,3.5418v5.75278h-1.509v-5.53271c0-1.69754-.52393-2.43105-1.71852-2.43105-.92212,0-1.56131.49246-2.47295,1.40417V556.53h-1.52991Z"/><circle class="cls-1" cx="619.87102" cy="273.45911" r="141.36776"/><path class="cls-2" d="M618.22592,125.55268a148.50373,148.50373,0,1,0,148.4932,148.51424v-.01052A148.50374,148.50374,0,0,0,618.22592,125.55268Zm70.27,32.20095a129.74674,129.74674,0,0,1,46.82918,47.02828,132.21994,132.21994,0,0,1,16.82875,45.28882,10.78264,10.78264,0,0,1-2.82926,10.05953,228.95758,228.95758,0,0,1-53.80795,44.90109,2.39963,2.39963,0,0,1-3.56277-2.672,232.62612,232.62612,0,0,0-6.93688-141.70306,2.39963,2.39963,0,0,1,3.47893-2.90261ZM553.321,155.6579a129.663,129.663,0,0,1,64.14-17.03832,132.03133,132.03133,0,0,1,47.63606,8.06858,10.76148,10.76148,0,0,1,7.33507,7.47129,228.73939,228.73939,0,0,1,11.98761,69.05445,2.39962,2.39962,0,0,1-4.09714,1.74994,232.69978,232.69978,0,0,0-126.18413-64.842,2.3996,2.3996,0,0,1-.82792-4.51632ZM483.85788,271.6044a129.73636,129.73636,0,0,1,17.31075-64.06659,132.15685,132.15685,0,0,1,30.80729-37.22025,10.78253,10.78253,0,0,1,10.12236-2.57776,228.85389,228.85389,0,0,1,65.79555,24.101,2.3996,2.3996,0,0,1-.53442,4.422,232.62636,232.62636,0,0,0-119.24726,76.87153,2.3996,2.3996,0,0,1-4.25427-1.52988Zm65.70128,118.147A129.747,129.747,0,0,1,502.73,342.72313a132.136,132.136,0,0,1-16.7973-45.32025,10.76162,10.76162,0,0,1,2.82925-10.049,228.4352,228.4352,0,0,1,53.808-44.90111,2.39962,2.39962,0,0,1,3.56277,2.67206A232.62669,232.62669,0,0,0,553.08,386.8174a2.39961,2.39961,0,0,1-3.52088,2.934ZM684.734,391.89953a129.77808,129.77808,0,0,1-64.14,17.04878,132.30368,132.30368,0,0,1-47.63606-8.079,10.73019,10.73019,0,0,1-7.33507-7.4713,228.74061,228.74061,0,0,1-11.87229-69.05444,2.39963,2.39963,0,0,1,4.09714-1.75,232.69992,232.69992,0,0,0,126.15273,64.84205,2.39962,2.39962,0,0,1,.73352,4.4639Zm21.33456-14.67014a10.75109,10.75109,0,0,1-10.12237,2.57774,228.676,228.676,0,0,1-65.78506-24.10094,2.39963,2.39963,0,0,1,.52393-4.422,232.62649,232.62649,0,0,0,119.28915-76.93438,2.39962,2.39962,0,0,1,4.25434,1.56131,129.79879,129.79879,0,0,1-17.31078,64.07706,132.26185,132.26185,0,0,1-30.80726,37.19932Z"/><path class="cls-3" d="M636.28065,213.18581a10.76167,10.76167,0,0,0-9.106-1.87568,227.00029,227.00029,0,0,0-51.96376,17.22694,10.80355,10.80355,0,0,0-6.18244,6.94737,226.425,226.425,0,0,0-11.08639,53.61932,10.77216,10.77216,0,0,0,2.92353,8.83351,226.69563,226.69563,0,0,0,40.86682,36.38195,10.76155,10.76155,0,0,0,9.106,1.87569A226.48522,226.48522,0,0,0,662.80216,318.968,10.751,10.751,0,0,0,669.016,312.073a226.42249,226.42249,0,0,0,11.055-53.61936,10.75121,10.75121,0,0,0-2.92353-8.823A226.33891,226.33891,0,0,0,636.28065,213.18581Z"/></svg>