<?xml version="1.0" encoding="UTF-8"?>
<svg id="PASTE_LOGO_HERE" data-name="PASTE LOGO HERE" xmlns="http://www.w3.org/2000/svg" viewBox="0 0 1250 703">
  <defs>
    <style>
      .cls-1 {
        fill: #901588;
      }
    </style>
  </defs>
  <g id="Logo_Artwork" data-name="Logo Artwork">
    <g id="Leidos-logo-horz-uv-mid-rgb">
      <polygon class="cls-1" points="469.59 291.02 503.32 283.21 503.32 447.56 469.59 447.56 469.59 291.02"/>
      <path class="cls-1" d="M626.78,428.69c-10.8,13.74-28.57,21.57-46.13,21.57-33.76,0-60.73-22.46-60.73-57.35s27-57.35,60.73-57.35c31.53,0,51.32,22.46,51.32,57.35v10.59h-78.32c2.73,12.84,12.4,21.15,25.45,21.15,11.01,0,18.45-5.64,24.06-13.29l23.62,17.35v-.03ZM598.21,380.54c.24-11.22-8.55-20.68-20.71-20.68-14.81,0-22.94,10.12-23.83,20.68h44.56-.03Z"/>
      <path class="cls-1" d="M819.1,447.56h-31.06v-14.42h-.45c-5.16,7.92-18.24,17.09-33.53,17.09-32.4,0-53.76-23.41-53.76-56.49,0-30.35,18.9-58.24,49.96-58.24,13.89,0,27,3.8,34.63,14.39h.45v-58.92l33.76-7.81v164.4ZM761.07,365.23c-16.91,0-27.02,11.25-27.02,27.65s10.12,27.65,27.02,27.65,26.97-11.25,26.97-27.65-10.12-27.65-26.97-27.65Z"/>
      <path class="cls-1" d="M893.99,335.56c33.71,0,60.73,22.46,60.73,57.35s-27.02,57.35-60.73,57.35-60.79-22.46-60.79-57.35,27.02-57.35,60.79-57.35ZM893.99,420.56c16.83,0,27-11.25,27-27.65s-10.14-27.65-27-27.65-27.02,11.25-27.02,27.65,10.12,27.65,27.02,27.65Z"/>
      <path class="cls-1" d="M1030.76,370.42c-4.95-6.11-11.45-9.23-19.58-9.23-5.61,0-12.35,2.46-12.35,8.99,0,16.17,56.91,2.46,56.91,44.09,0,27.89-27,35.96-50.41,35.96-15.28,0-32.14-3.8-42.96-14.84l20.47-22.73c6.29,7.63,13.71,11.95,23.85,11.95,7.65,0,15.31-2.02,15.31-7.86,0-17.56-56.91-2.7-56.91-44.35,0-25.64,22.94-36.85,45.9-36.85,14.42,0,30.35,3.59,40.5,14.39l-20.71,20.47h-.03Z"/>
      <rect class="cls-1" x="650.19" y="338.26" width="33.74" height="109.33"/>
      <rect class="cls-1" x="650.19" y="291.18" width="33.74" height="27.97"/>
      <polygon class="cls-1" points="305.86 368.06 421.2 297.6 273.78 345.52 305.86 368.06"/>
      <polygon class="cls-1" points="246.7 244.97 234.91 280.51 415.56 280.51 246.7 244.97"/>
      <polygon class="cls-1" points="207.99 361.38 262.14 343.76 222.98 316.26 207.99 361.38"/>
      <polygon class="cls-1" points="188.7 285.75 220.23 307.9 227.62 285.75 188.7 285.75"/>
      <polygon class="cls-1" points="440.54 285.75 233.15 285.78 224.71 311.07 268.38 341.74 440.54 285.75"/>
    </g>
  </g>
</svg>