<svg id="Layer_1" data-name="Layer 1" xmlns="http://www.w3.org/2000/svg" viewBox="0 0 1250 703"><defs><style>.cls-1{fill:#e1251b;}.cls-2{fill:#fff;}</style></defs><g id="LOGO"><rect class="cls-1" x="272.5" y="234" width="705" height="235"/><path class="cls-2" d="M579.6,313.2c-10.4,0-22.3,4.8-29.5,14.5h0v-13H525.3v90.4h24.8V353.7c0-9.3,7.2-19.1,20.5-19.1,10.3,0,20.9,7.1,20.9,19.1v51.5h24.8V349.1c.1-20.8-14.8-35.9-36.7-35.9"/><polygon class="cls-2" points="792.9 314.7 770.4 376.3 748 314.7 719.6 314.7 756.8 405.1 784 405.1 821.2 314.7 792.9 314.7"/><path class="cls-2" d="M498.9,377.4c-10.5,7.7-16.4,9.6-26,9.6-8.6,0-15.3-2.7-20-7.3l63.5-26.3c-1.4-9.8-5.1-18.6-10.9-25.2-8.3-9.7-20.7-14.8-35.7-14.8-27.3,0-47.9,20.1-47.9,46.8,0,27.3,20.6,46.8,50.6,46.8,16.8,0,34-8,42-17.3ZM451.2,342c4.2-5.7,11-9,19.1-9,9,0,15.7,5.1,19.2,12.6l-43.4,18C444.9,354.4,447.3,347.1,451.2,342Z"/><polygon class="cls-2" points="419.5 382.4 363.1 382.4 363.1 287.7 337.9 287.7 337.9 405.2 419.5 405.2 419.5 382.4"/><path class="cls-2" d="M865.8,406.7c-27.2,0-48.4-20.2-48.4-46.8,0-26.2,21.4-46.7,48.8-46.7,27.2,0,48.4,20.2,48.4,46.7,0,26.2-21.4,46.8-48.8,46.8m0-72.2c-13.9,0-23.9,10.5-23.9,25.5,0,14.3,10.7,25.5,24.3,25.5,13.9,0,23.9-10.8,23.9-25.5,0-14.3-10.6-25.5-24.3-25.5"/><path class="cls-2" d="M674.6,406.7c-27.2,0-48.4-20.2-48.4-46.8,0-26.2,21.4-46.7,48.8-46.7,27.2,0,48.4,20.2,48.4,46.7.00006,26.2-21.4,46.8-48.8,46.8m0-72.2c-13.9,0-23.9,10.5-23.9,25.5,0,14.3,10.7,25.5,24.3,25.5,13.9,0,23.9-10.8,23.9-25.5C698.9,345.7,688.2,334.5,674.6,334.5"/></g></svg>