<?xml version="1.0" encoding="UTF-8"?>
<svg id="PASTE_LOGO_HERE" data-name="PASTE LOGO HERE" xmlns="http://www.w3.org/2000/svg" viewBox="0 0 1250 703">
  <defs>
    <style>
      .cls-1 {
        fill-rule: evenodd;
      }
    </style>
  </defs>
  <path class="cls-1" d="M453.55313,349.73073l-36.32075-66.69662h-112.04101l36.14961,66.69662h112.21215ZM276.41485,352.34043c8.22339,7.12055,21.58525,8.33748,34.43373,8.33748h22.44242l36.31921,66.87018h-92.51236c-11.82017,0-23.46997-.34682-34.94789-3.12522-11.65056-2.95333-21.58525-7.64534-31.0096-14.76438-19.70138-14.24185-30.494-33.69597-41.80025-54.53889-9.23344-16.75185-18.38063-33.7648-27.50264-50.73106l-.0003-.00053c-3.74082-6.95771-7.47744-13.90758-11.21407-20.82833h103.98953c.51339.91148,4.27826,7.85375,8.85695,16.29558,7.63242,14.07392,17.52528,32.31582,18.3817,33.72829,3.9398,7.12017,7.71,13.37297,14.56359,18.75689ZM383.66041,427.54429l-36.32073-67.04436h111.86912l36.49262,67.04436h-112.04101ZM645.42231,306.77257c2.76856,2.77239,6.11356,4.15862,10.03513,4.15862,3.80667,0,7.09469-1.38623,9.86244-4.15862,2.65366-2.65686,3.98012-5.94903,3.98012-9.87659,0-3.81203-1.32645-7.04647-3.98012-9.70333-2.76774-2.77239-6.05576-4.15855-9.86244-4.15855-3.80597,0-7.15173,1.38616-10.03513,4.15855-2.7685,2.65686-4.15275,5.8913-4.15275,9.70333s1.38425,7.1042,4.15275,9.87659ZM644.38413,324.96632v100.67194h21.80127v-100.67194h-21.80127ZM626.11883,425.63827v-21.83243h-61.94317v-114.1873h-22.83945v136.01974h84.78262ZM847.62095,425.63827h-24.2237l-11.24668-34.13482h-51.38933l-11.0733,34.13482h-24.2237l48.79347-136.01974h24.39639l48.96685,136.01974ZM785.67708,314.0501l-18.34062,56.83402h38.06549l-18.51331-56.83402h-1.21156ZM942.70184,425.63827v-100.67194h-21.79826v57.18047c-.34985,16.86509-8.07733,25.35545-23.19005,25.47106-6.57447,0-11.24593-1.79041-14.01449-5.37121-2.7685-3.58158-4.15199-9.70348-4.15199-18.36725v-58.91307h-21.62858v62.89851c0,13.28429,3.11458,23.27602,9.34373,29.97597,5.99791,6.46873,14.70652,9.70348,26.12364,9.70348,7.15701,0,13.32535-1.7904,18.5201-5.37121,4.15275-2.88792,7.43845-6.87336,9.8571-11.95632h1.21696l1.0344,15.42151h18.68745ZM1014.21151,407.09838v19.23278c-4.26683.8085-8.70861,1.21313-13.31775,1.21313-10.26782,0-17.70626-2.25284-22.323-6.75775s-6.92125-12.01336-6.92125-22.52533v-53.71497h-15.05191v-19.57991h15.05191v-26.16433h21.63085v26.16433h20.93115v19.57991h-20.93115v53.19472c0,3.58158.45639,6.06487,1.38425,7.4514.92032,1.27018,2.53273,2.02087,4.8449,2.25208,4.60914.34683,9.51485.23121,14.702-.34606ZM1039.26506,412.98907c8.53366,9.70348,19.7294,14.55522,33.56435,14.55522,13.84255,0,25.09156-4.85173,33.74696-14.55522,8.53366-9.58786,12.80055-22.23631,12.80055-37.94685,0-15.36372-4.26689-27.83913-12.80055-37.42692-8.6554-9.70333-19.90441-14.55499-33.74696-14.55499-13.83495,0-25.03069,4.85166-33.56435,14.55499-8.41964,9.58779-12.63326,22.0632-12.63326,37.42692,0,15.71053,4.21362,28.35898,12.63326,37.94685ZM1090.48246,398.60727c-4.26683,5.54538-10.15373,8.3177-17.65305,8.3177-7.49172,0-13.31775-2.77231-17.4705-8.3177-4.26683-5.66024-6.4041-13.51475-6.4041-23.56505,0-9.93393,2.0764-17.61579,6.22915-23.04558,4.26689-5.5444,10.15373-8.31678,17.64545-8.31678,7.6134,0,13.55357,2.77239,17.82801,8.31678,4.26689,5.54539,6.3965,13.22725,6.3965,23.04558,0,10.0503-2.19049,17.90481-6.57146,23.56505Z"/>
</svg>