<?xml version="1.0" encoding="UTF-8"?><svg id="LOGOS" xmlns="http://www.w3.org/2000/svg" xmlns:xlink="http://www.w3.org/1999/xlink" viewBox="0 0 1250 703"><defs><style>.cls-1{fill:url(#_未命名的渐变);}.cls-1,.cls-2,.cls-3,.cls-4,.cls-5{stroke-width:0px;}.cls-2{fill:#000;}.cls-3{fill:url(#_未命名的渐变_2);}.cls-4{fill:url(#_未命名的渐变_3);}.cls-5{fill:url(#_未命名的渐变_4);}</style><linearGradient id="_未命名的渐变" x1="199.48963" y1="11921.42519" x2="336.32184" y2="11998.04668" gradientTransform="translate(0 12272) scale(1 -1)" gradientUnits="userSpaceOnUse"><stop offset=".23438" stop-color="#382bfa" stop-opacity="0"/><stop offset=".7115" stop-color="#7db0fc"/><stop offset=".88021" stop-color="#d4e5fe"/></linearGradient><linearGradient id="_未命名的渐变_2" x1="336.83345" y1="11999.86542" x2="336.83345" y2="11841.13475" gradientTransform="translate(0 12272) scale(1 -1)" gradientUnits="userSpaceOnUse"><stop offset=".23438" stop-color="#382bfa" stop-opacity="0"/><stop offset=".7115" stop-color="#bd91eb"/><stop offset=".88021" stop-color="#d4e5fe"/></linearGradient><linearGradient id="_未命名的渐变_3" x1="336.83495" y1="11841.51318" x2="199.98672" y2="11920.49076" gradientTransform="translate(0 12272) scale(1 -1)" gradientUnits="userSpaceOnUse"><stop offset=".23438" stop-color="#382bfa" stop-opacity="0"/><stop offset=".7115" stop-color="#a59afa"/><stop offset=".88021" stop-color="#d4e5fe"/></linearGradient><radialGradient id="_未命名的渐变_4" cx="-1535.65815" cy="6501.12036" fx="-1535.65815" fy="6501.12036" r=".91225" gradientTransform="translate(581378.79 -322168.29996) rotate(-105.709) scale(99.7246 -99.47619)" gradientUnits="userSpaceOnUse"><stop offset="0" stop-color="#fff"/><stop offset="1" stop-color="#d4e5fe"/></radialGradient></defs><g id="Layer_4"><path class="cls-2" d="M455.42865,392.11763v-84.46843h14.60778v71.31203h35.01746v13.1564h-49.62524Z"/><path class="cls-2" d="M522.40115,324.89794c-2.50138,0-4.64789-.81829-6.45504-2.47037-1.80626-1.65207-2.71758-3.84511-2.71758-6.5782,0-2.73399.91133-4.92612,2.71758-6.57912,1.80715-1.65207,3.95366-2.47035,6.45504-2.47035,2.65645,0,4.84859.83379,6.5782,2.47035,1.72961,1.653,2.59442,3.84512,2.59442,6.57912,0,2.73309-.86481,4.92613-2.59442,6.5782-1.72961,1.65208-3.92175,2.47037-6.5782,2.47037ZM515.52921,392.11763v-59.62161h13.88254v59.6061h-13.88254v.01551Z"/><path class="cls-2" d="M540.14338,362.54629v-1.80715c0-6.26896,1.25161-11.64299,3.73751-16.10569,2.50138-4.46272,5.83745-7.89093,10.02189-10.25364,4.1845-2.37822,8.77123-3.55228,13.75851-3.55228,5.63678,0,9.91426,1.00438,12.84805,3.01132,2.93378,2.00786,5.08032,4.18538,6.45504,6.51708h2.0535v-7.8453h13.51213v70.95716c0,3.93726-1.1275,7.05714-3.38167,9.35782-2.25506,2.28516-5.312,3.44372-9.17262,3.44372h-40.05672v-12.06079h35.34677c2.33173,0,3.50577-1.20417,3.50577-3.61342v-17.24872h-2.05439c-.88029,1.37476-2.08446,2.7641-3.6134,4.16987-1.52889,1.40485-3.53584,2.59442-6.03817,3.56688-2.50138.95694-5.63583,1.45137-9.4043,1.45137-4.98728,0-9.57401-1.18865-13.75851-3.56687-4.18445-2.37823-7.52051-5.79094-10.02189-10.25364s-3.73751-9.83674-3.73751-16.10661v-.06112ZM571.52191,380.28947c4.98817,0,9.12702-1.59096,12.43118-4.77196,3.30505-3.181,4.94163-7.61269,4.94163-13.327v-1.20416c0-5.79094-1.63657-10.25364-4.89513-13.38811-3.2585-3.1354-7.42747-4.70993-12.49321-4.70993-5.06479,0-9.15708,1.57453-12.49226,4.70993-3.33517,3.13446-5.00365,7.59717-5.00365,13.38811v1.20416c0,5.71431,1.66848,10.16151,5.00365,13.327,3.33517,3.181,7.50503,4.77196,12.49226,4.77196h.01553Z"/><path class="cls-2" d="M616.35144,392.11763v-84.46843h13.88256v32.70673h2.05344c.64866-1.35924,1.68312-2.73309,3.13451-4.10783,1.45139-1.37476,3.3516-2.48587,5.72887-3.38169,2.37827-.88033,5.37408-1.32824,8.98749-1.32824,4.58673,0,8.64807,1.01898,12.18391,3.07336,3.53679,2.05347,6.30092,4.92612,8.26221,8.63167,1.97594,3.70644,2.94932,8.09161,2.94932,13.1573v35.71714h-13.88256v-34.63612c0-4.834-1.18958-8.43189-3.55227-10.79461-2.37733-2.37822-5.72893-3.55138-10.08308-3.55138-4.91061,0-8.77123,1.62107-11.58185,4.8796-2.81062,3.25855-4.23099,7.90644-4.23099,13.94459v30.17343h-13.88256l.03101-.01552Z"/><path class="cls-2" d="M708.97262,392.11763c-3.85967,0-6.93304-1.14213-9.23375-3.44372-2.28607-2.28518-3.44369-5.40414-3.44369-9.35781v-35.36228h-15.56563v-11.4578h15.56563v-19.17995h13.88256v19.17995h17.14018v11.4578h-17.14018v33.0616c0,2.40923,1.1275,3.6134,3.38167,3.6134h11.95223v11.4578h-16.53901v.03101Z"/><path class="cls-2" d="M746.74416,392.11763l-9.29578-59.60701h13.7594l6.39301,50.31124h2.05344l9.04946-50.31124h22.20591l9.04857,50.31124h2.05433l6.39307-50.31124h13.75846l-9.29578,59.60701h-23.05518l-8.9263-50.32583h-2.0535l-9.04857,50.32583h-23.04054Z"/><path class="cls-2" d="M832.17043,392.11763v-84.46843h13.88256v32.70673h2.05344c.64861-1.35924,1.68312-2.73309,3.1354-4.10783,1.45139-1.37476,3.36619-2.48587,5.72893-3.38169,2.37822-.88033,5.37308-1.32824,8.98743-1.32824,4.58584,0,8.64718,1.01898,12.18302,3.07336,3.53679,2.05347,6.30086,4.92612,8.26221,8.63167,1.97594,3.70644,2.94926,8.09161,2.94926,13.1573v35.71714h-13.88251v-34.63612c0-4.834-1.18869-8.43189-3.55138-10.79461-2.37822-2.37822-5.72982-3.55138-10.08397-3.55138-4.91061,0-8.77123,1.62107-11.58185,4.8796-2.81062,3.25855-4.21552,7.90644-4.21552,13.94459v30.17343h-13.88251l.01548-.01552Z"/><path class="cls-2" d="M930.08903,393.80073c-5.96061,0-11.1951-1.2662-15.75082-3.79859-4.54024-2.53239-8.07613-6.11477-10.624-10.73256-2.53239-4.63237-3.79859-10.03743-3.79859-16.22976v-1.45137c0-6.26896,1.25066-11.70503,3.73656-16.29088,2.48674-4.58677,5.99162-8.13814,10.50084-10.68604,4.50922-2.53239,9.69806-3.79859,15.56563-3.79859,5.86846,0,10.85574,1.2662,15.21079,3.79859,4.33862,2.53239,7.72123,6.09928,10.12957,10.68604,2.40923,4.58585,3.6134,9.92888,3.6134,16.04365v4.94164h-44.76661c.15418,4.6634,1.80712,8.40087,4.9571,11.22699,3.13451,2.81064,6.99512,4.21549,11.58191,4.21549,4.58584,0,7.8444-.98795,10.02189-2.94929,2.17755-1.97683,3.81412-4.20089,4.94163-6.70227l11.4578,5.91409c-1.1275,2.17754-2.76407,4.47822-4.8796,6.93397-2.131,2.45486-4.97264,4.54025-8.50848,6.26986-3.53679,1.72871-7.99946,2.59352-13.38903,2.59352v.01551ZM914.04534,355.782h30.5292c-.32472-3.93725-1.83813-7.07172-4.5247-9.40342-2.70299-2.33262-6.17681-3.50576-10.43882-3.50576s-7.9685,1.17314-10.62495,3.50576c-2.65556,2.3317-4.30761,5.46618-4.95621,9.40342h.01548Z"/><path class="cls-2" d="M996.84345,393.80073c-5.95693,0-11.21147-1.2662-15.74531-3.79859-4.54302-2.53239-8.09529-6.11477-10.62768-10.73256-2.53239-4.63237-3.79859-10.03743-3.79859-16.22976v-1.45137c0-6.26896,1.25072-11.70503,3.73656-16.29088,2.48679-4.58677,5.99162-8.13814,10.49811-10.68604,4.51563-2.53239,9.69717-3.79859,15.57198-3.79859,5.86579,0,10.85574,1.2662,15.20717,3.79859,4.3423,2.53239,7.71756,6.09928,10.1259,10.68604,2.41747,4.58585,3.6217,9.92888,3.6217,16.04365v4.94164h-44.77307c.15512,4.6634,1.80628,8.40087,4.94441,11.22699,3.13813,2.81064,6.99691,4.21549,11.57634,4.21549,4.58862,0,7.84529-.98795,10.02557-2.94929,2.18028-1.97683,3.81323-4.20089,4.94441-6.70227l11.45785,5.91409c-1.13129,2.17754-2.76413,4.47822-4.89886,6.93397-2.12549,2.45486-4.97169,4.54025-8.50208,6.26986-3.53952,1.72871-8.00041,2.59352-13.39181,2.59352l.02739.01551ZM980.79709,355.782h30.53282c-.31926-3.93725-1.83362-7.07172-4.5247-9.40342-2.70021-2.33262-6.17592-3.50576-10.43614-3.50576s-7.97296,1.17314-10.62762,3.50576c-2.65461,2.3317-4.30577,5.46618-4.94435,9.40342Z"/><path class="cls-2" d="M1036.11565,392.11763v-84.46843h13.88435v84.46843h-13.88435Z"/><path class="cls-2" d="M291.22452,260.27539h.00001c50.38192,0,91.22452,40.84261,91.22452,91.22452h0c0,50.38192-40.8426,91.22452-91.22452,91.22452h-.00001c-50.38191,0-91.22452-40.8426-91.22452-91.22452h0c0-50.38192,40.84262-91.22452,91.22452-91.22452Z"/><path class="cls-1" d="M291.21814,260.27859c16.62203,0,32.19679,4.45906,45.60953,12.22856l-45.60953,78.97909h-91.21814c0-50.36688,40.84578-91.20765,91.21814-91.20765Z"/><path class="cls-3" d="M370.20672,397.12404c-8.31057,14.39066-19.96633,25.63955-33.37905,33.3754l-45.60953-78.97945,45.60953-78.979c43.61625,25.20032,58.58255,80.97225,33.37905,124.58305Z"/><path class="cls-4" d="M212.22955,397.12404c-8.31055-14.39066-12.22955-30.13238-12.22955-45.63781h91.21814l45.60953,79.01321c-43.61628,25.16611-99.42836,10.23539-124.59812-33.3754Z"/><path class="cls-5" d="M315.77944,424.45217l-14.93256-25.84209c-11.38574-19.72821-32.4668-31.88844-55.27202-31.88844h-30.3723c-8.41181-.03376-15.20256-6.82451-15.20256-15.23541,0-8.41181,6.79075-15.20166,15.20256-15.20166h30.40604c22.80523,0,43.85254-12.16023,55.27205-31.88844l14.89879-25.84209c3.64898-6.31712,11.2507-9.69516,18.17648-7.36437,9.42624,3.17543,13.14181,13.91794,8.44648,22.05881l-15.20349,26.31463c-11.38572,19.72822-11.38572,44.05051,0,63.81155l15.20349,26.31554c4.72999,8.17463.97976,18.88349-8.44648,22.059-6.92578,2.33078-14.49375-1.04724-18.14273-7.36455l-.03374.06751Z"/></g></svg>