<?xml version="1.0" encoding="UTF-8"?><svg id="EXAMPLES_TURN_OFF_" xmlns="http://www.w3.org/2000/svg" xmlns:xlink="http://www.w3.org/1999/xlink" viewBox="0 0 1250 703"><defs><style>.cls-1{fill:url(#linear-gradient-12);}.cls-1,.cls-2,.cls-3,.cls-4,.cls-5,.cls-6,.cls-7,.cls-8,.cls-9,.cls-10,.cls-11,.cls-12,.cls-13,.cls-14,.cls-15{stroke-width:0px;}.cls-2{fill:url(#linear-gradient);}.cls-3{fill:url(#linear-gradient-6);}.cls-4{fill:url(#linear-gradient-11);}.cls-5{fill:url(#linear-gradient-5);}.cls-6{fill:url(#linear-gradient-13);}.cls-7{fill:url(#linear-gradient-2);}.cls-8{fill-rule:evenodd;}.cls-8,.cls-12{fill:#2e4a91;}.cls-9{fill:url(#linear-gradient-7);}.cls-10{fill:url(#linear-gradient-3);}.cls-11{fill:url(#linear-gradient-9);}.cls-13{fill:url(#linear-gradient-8);}.cls-14{fill:url(#linear-gradient-10);}.cls-15{fill:url(#linear-gradient-4);}</style><linearGradient id="linear-gradient" x1="228.84171" y1="1292.29698" x2="376.05386" y2="1392.30097" gradientTransform="translate(0 -995.99)" gradientUnits="userSpaceOnUse"><stop offset=".12" stop-color="#edc35a"/><stop offset=".46" stop-color="#fae8bc"/><stop offset="1" stop-color="#cea240"/></linearGradient><linearGradient id="linear-gradient-2" x1="465.67808" y1="1498.6882" x2="152.97303" y2="1305.78559" gradientTransform="translate(0 -995.99)" gradientUnits="userSpaceOnUse"><stop offset="0" stop-color="#4fc4d6"/><stop offset=".38" stop-color="#1d77a2"/><stop offset=".56" stop-color="#2e4a91"/><stop offset=".75" stop-color="#2d5eaa"/><stop offset="1" stop-color="#5086c5"/></linearGradient><linearGradient id="linear-gradient-3" x1="442.33414" y1="1536.52147" x2="129.62908" y2="1343.64186" xlink:href="#linear-gradient-2"/><linearGradient id="linear-gradient-4" x1="442.93784" y1="1535.54625" x2="130.23278" y2="1342.66663" xlink:href="#linear-gradient-2"/><linearGradient id="linear-gradient-5" x1="463.48322" y1="1502.2232" x2="150.77814" y2="1309.34356" xlink:href="#linear-gradient-2"/><linearGradient id="linear-gradient-6" x1="441.64481" y1="1537.65611" x2="128.93973" y2="1344.77647" xlink:href="#linear-gradient-2"/><linearGradient id="linear-gradient-7" x1="514.99858" y1="1418.71769" x2="202.31651" y2="1225.81511" xlink:href="#linear-gradient-2"/><linearGradient id="linear-gradient-8" x1="488.62441" y1="1461.46361" x2="175.94236" y2="1268.58393" xlink:href="#linear-gradient-2"/><linearGradient id="linear-gradient-9" x1="538.36574" y1="1380.86106" x2="225.66066" y2="1187.98143" xlink:href="#linear-gradient-2"/><linearGradient id="linear-gradient-10" x1="537.74091" y1="1381.83327" x2="225.05883" y2="1188.95369" xlink:href="#linear-gradient-2"/><linearGradient id="linear-gradient-11" x1="517.19769" y1="1415.15287" x2="204.51559" y2="1222.27327" xlink:href="#linear-gradient-2"/><linearGradient id="linear-gradient-12" x1="492.05305" y1="1455.91798" x2="179.34796" y2="1263.03835" xlink:href="#linear-gradient-2"/><linearGradient id="linear-gradient-13" x1="539.06697" y1="1379.73013" x2="226.36192" y2="1186.82752" xlink:href="#linear-gradient-2"/></defs><g id="Linker_Vision"><path class="cls-12" d="m1026.86553,381.26067v-45.46054h12.25615v8.57703c4.00106-6.43852,9.19788-9.61179,15.49841-9.61179,4.07004,0,7.28935,1.26471,9.63479,3.84011,2.34544,2.55241,3.51819,6.0706,3.51819,10.53158v32.12361h-12.25615v-29.1113c0-5.17381-1.70159-7.72622-5.12785-7.72622-3.90913,0-7.63426,2.73637-11.22143,8.2321v28.60543h-12.30211Z"/><path class="cls-12" d="m476.78605,381.26067v-61.28091h12.76207v52.61189h27.61664v8.669s-40.37871,0-40.37871.00002Z"/><path class="cls-12" d="m528.73109,381.26067v-45.46054h12.25619v45.46054h-12.25619Zm0-53.14078v-10.23265h12.25619v10.23265h-12.25619Z"/><path class="cls-12" d="m558.94614,381.26067v-45.46054h12.25619v8.57703c4.00109-6.43852,9.19788-9.61179,15.49845-9.61179,4.07007,0,7.28932,1.26471,9.63479,3.84011,2.34547,2.55241,3.51819,6.0706,3.51819,10.53158v32.12361h-12.25619v-29.1113c0-5.17381-1.70162-7.72622-5.12781-7.72622-3.90909,0-7.63426,2.73637-11.22143,8.2321v28.60543h-12.30218Z"/><path class="cls-12" d="m617.28375,381.26067v-65.39696h12.25619v41.11454h.78181l16.18826-21.20113h10.18664l-14.94656,19.45352,19.63747,26.00701h-14.92358l-16.16528-22.71878h-.78181v22.71878h-12.25619l.02305.02302Z"/><path class="cls-12" d="m710.61927,379.74301c-5.81766,1.7246-11.33638,2.55241-16.55618,2.55241-7.61124,0-13.61286-2.13851-18.00486-6.46152s-6.57649-10.18666-6.57649-17.63695c0-7.05938,2.02355-12.73907,6.0246-17.01609,4.02407-4.27702,9.33585-6.41553,15.95833-6.41553s11.52034,2.09252,14.55566,6.27756c3.08128,4.20804,4.59894,10.83051,4.59894,19.93642h-28.1915c.82781,8.66901,5.61072,13.01501,14.27973,13.01501,4.13905,0,8.784-.94278,13.91181-2.87434v8.62303h-.00004Zm-28.37546-25.68509h16.34924c0-7.77221-2.50642-11.63533-7.51928-11.63533s-8.02517,3.86311-8.82996,11.63533Z"/><path class="cls-12" d="m725.93376,381.26067v-45.46054h12.25619v8.57703c3.17328-6.43852,8.02517-9.61179,14.50966-9.61179.78181,0,1.51766.06898,2.27649.22994v10.94549c-1.7246-.64385-3.35724-.96577-4.85189-.96577-4.87487,0-8.85298,2.46043-11.93426,7.4043v28.85837h-12.25619v.02298Z"/><path class="cls-12" d="m804.80559,381.26067l-22.67275-61.28091h13.63585l17.59094,47.4151,16.97011-47.4151h9.2209l-21.91396,61.28091h-12.83109Z"/><path class="cls-12" d="m850.68006,381.26067v-45.46054h12.25615v45.46054h-12.25615Zm0-53.14078v-10.23265h12.25615v10.23265h-12.25615Z"/><path class="cls-12" d="m879.67636,379.83499v-8.99093c6.09358,2.52941,11.29041,3.81712,15.59041,3.81712,5.01283,0,7.54226-1.7246,7.54226-5.12782,0-2.23049-2.09253-4.16205-6.23155-5.81766l-4.16204-1.65562c-4.484-1.81658-7.72619-3.79413-9.63479-5.88665-1.93155-2.09252-2.89736-4.69092-2.89736-7.77221,0-4.346,1.6326-7.68023,4.89788-10.07169,3.31124-2.36845,7.91019-3.56418,13.81984-3.56418,3.70211,0,8.09411.50589,13.19894,1.60963v8.62302c-4.89788-1.7246-8.99094-2.57541-12.21019-2.57541-5.08181,0-7.61124,1.56364-7.61124,4.71391,0,2.06953,1.88558,3.81712,5.63373,5.26579l3.56415,1.37968c5.33479,2.02354,9.0369,4.04707,11.12943,6.11659,2.09253,2.09252,3.12725,4.7599,3.12725,8.00216,0,4.27702-1.79358,7.77221-5.31177,10.4396-3.54121,2.66739-8.18611,3.97809-13.86581,3.97809s-10.96845-.80481-16.57917-2.48343Z"/><path class="cls-12" d="m931.48344,381.26067v-45.46054h12.25615v45.46054h-12.25615Zm0-53.14078v-10.23265h12.25615v10.23265h-12.25615Z"/><path class="cls-8" d="m1004.44568,325.77443c-4.78287-3.44921-10.46257-4.32301-16.14226-2.92033,5.12785.13797,10.25562,1.81658,14.9006,5.17381,4.64491,3.40322,8.18611,8.00216,10.5086,13.24496-1.3797-6.48451-4.50694-12.02623-9.28988-15.49843h.02295Z"/><path class="cls-8" d="m1007.36599,320.02575c-6.59947-4.07006-14.44068-5.03584-22.23592-3.40322,7.08234.02299,14.21071,1.90857,20.64928,5.86365,6.41554,3.93209,11.24445,9.40484,14.30271,15.61341-1.83955-7.56526-6.13962-14.04977-12.71607-18.09683v.02299Z"/><path class="cls-8" d="m985.95792,350.12583c-4.36898,0-7.91019,3.54119-7.91019,7.88719s3.54121,7.88719,7.91019,7.88719,7.86422-3.51819,7.86422-7.88719-3.54121-7.88719-7.86422-7.88719Z"/><path class="cls-8" d="m985.95792,374.68418c-9.2209,0-16.67117-7.45029-16.67117-16.64817s7.45026-16.67117,16.67117-16.67117,16.64815,7.45029,16.64815,16.67117-7.45026,16.64817-16.64815,16.64817Zm0-44.81669c-15.56739,0-28.16852,12.6011-28.16852,28.16852s12.60113,28.16852,28.16852,28.16852,28.16852-12.62409,28.16852-28.16852-12.62407-28.16852-28.16852-28.16852Zm2.94332,5.84066c0,1.63262-1.31072,2.96632-2.94332,2.96632s-2.96634-1.3337-2.96634-2.96632,1.31072-2.96632,2.96634-2.96632,2.94332,1.3337,2.94332,2.96632Z"/><path class="cls-2" d="m310.21237,286.68341c-14.25672,16.46421-33.87121,28.14553-56.15308,32.30757,3.4952,10.09468,5.42675,20.92518,5.42675,32.21559h0c0,11.42837-1.97755,22.37385-5.54172,32.5835,22.25889,4.25402,41.82738,16.00432,56.03811,32.53752,14.25672-16.46422,33.87121-28.14552,56.15309-32.30758-3.49519-10.09468-5.42675-20.92518-5.42675-32.21559s1.97755-22.37385,5.54173-32.5835c-22.25888-4.25402-41.82738-16.00432-56.03813-32.53751Z"/><path class="cls-7" d="m370.66546,394.98851c-21.47707,3.38023-40.35572,14.67062-53.53168,30.76692,8.64601,12.92303,14.30271,28.00756,15.98133,44.26482,26.78883-5.17381,50.42739-19.22358,67.74241-38.95305-12.76207-9.38185-23.17867-21.75299-30.19205-36.07869Z"/><path class="cls-10" d="m249.29938,394.73557c-7.08237,14.30271-17.54497,26.62788-30.33002,35.96373,17.22304,19.82145,40.81561,33.9402,67.58146,39.22897,1.74759-16.25726,7.47328-31.3188,16.14229-44.19584-13.12998-16.16528-31.93965-27.52467-53.39372-30.99686Z"/><path class="cls-15" d="m298.02516,471.62987c3.95509.39091,7.97917.59787,12.04923.59787s7.74922-.18396,11.54335-.55187c-1.28771-12.92303-5.40375-25.01824-11.7273-35.6418-6.36954,10.60056-10.53157,22.67279-11.86528,35.5958Z"/><path class="cls-5" d="m242.10203,382.27242c3.70215-9.65778,5.74868-20.12037,5.74868-31.06586h0c0-10.83051-2.00054-21.17813-5.63371-30.72094-2.11551.13797-4.23103.22994-6.34654.22994-14.23373,0-27.75462-3.0583-39.9878-8.50804-4.23103,12.32517-6.55349,25.54713-6.55349,39.29796s2.25348,26.65088,6.39253,38.83807c12.11821-5.35777,25.52413-8.34707,39.61989-8.34707,2.27648,0,4.52996.11498,6.76045.25294v.023Z"/><path class="cls-3" d="m236.76726,393.65481c-.4599,0-.91979-.04598-1.40268-.04598-12.6011,0-24.55835,2.71338-35.34287,7.54226,3.26525,7.22034,7.22034,14.04977,11.77329,20.4193,10.23265-7.3583,18.78668-16.90111,24.99525-27.93858l-.023.023Z"/><path class="cls-9" d="m249.48333,308.02251c21.47706-3.38023,40.35571-14.67063,53.53169-30.76693-8.64601-12.92303-14.30271-28.00756-15.98133-44.26482-26.78884,5.17381-50.4274,19.22358-67.74242,38.95304,12.76206,9.38184,23.17867,21.753,30.19205,36.0787Z"/><path class="cls-13" d="m236.92822,309.05727c-6.16258-11.06045-14.69362-20.62626-24.88028-28.03055-4.57595,6.36954-8.55403,13.17597-11.84228,20.37332,10.8765,4.92087,22.94872,7.68023,35.6648,7.68023.34492,0,.68984,0,1.05775-.023Z"/><path class="cls-11" d="m370.84942,308.27545c7.08238-14.30271,17.54496-26.62787,30.33003-35.96373-17.22303-19.82144-40.81561-33.94019-67.58145-39.22898-1.74759,16.25726-7.47328,31.3188-16.14229,44.19583,13.12998,16.16528,31.93966,27.52467,53.39371,30.99687Z"/><path class="cls-14" d="m322.12363,231.38113c-3.95509-.39091-7.97917-.59786-12.04923-.59786s-7.74922.18396-11.54335.55187c1.28771,12.92303,5.40375,25.01825,11.7273,35.6418,6.36954-10.60056,10.53157-22.67278,11.86528-35.59581Z"/><path class="cls-4" d="m378.04676,320.73858c-3.70215,9.65778-5.74868,20.12037-5.74868,31.06585s2.00055,21.17813,5.6337,30.72094c2.11551-.13796,4.23102-.22994,6.34655-.22994,14.23373,0,27.75462,3.0583,39.9878,8.50804,4.23102-12.32517,6.55349-25.54713,6.55349-39.29796s-2.25349-26.65087-6.39253-38.83807c-12.1182,5.35776-25.52413,8.34708-39.61988,8.34708-2.27647,0-4.52996-.11497-6.76045-.25294v-.02299Z"/><path class="cls-1" d="m383.22057,393.95374c6.16258,11.06045,14.69362,20.62626,24.88028,28.03056,4.57594-6.36953,8.55404-13.17598,11.84228-20.37332-10.87651-4.92087-22.94871-7.68023-35.6648-7.68023-.34492,0-.68985,0-1.05775.02298Z"/><path class="cls-6" d="m383.38153,309.3562c.45989,0,.91979.04599,1.40268.04599,12.60111,0,24.55835-2.71338,35.36586-7.54227-3.26524-7.22034-7.22034-14.04977-11.7733-20.4193-10.23264,7.35831-18.78667,16.90111-24.99526,27.93858l.00002-.023Z"/></g></svg>