<?xml version="1.0" encoding="UTF-8"?><svg id="LOGO" xmlns="http://www.w3.org/2000/svg" xmlns:xlink="http://www.w3.org/1999/xlink" viewBox="0 0 1250 703"><defs><clipPath id="clippath"><rect x="117.538" y="200" width="1014.509" height="278.098" fill="none"/></clipPath><clipPath id="clippath-1"><rect x="117.538" y="200" width="1014.509" height="278.098" fill="none"/></clipPath></defs><g clip-path="url(#clippath)"><g clip-path="url(#clippath-1)"><path d="M405.958,273.268c-.357.569-.573.933-.808,1.285-22.261,33.341-44.526,66.677-66.766,100.031-.533.8-1.084,1.065-2.029,1.064-25.644-.027-51.287-.021-76.931-.021h-1.378c.317-.51.53-.872.763-1.22,20.541-30.758,41.083-61.514,61.623-92.272,1.762-2.637,3.528-5.273,5.234-7.947.449-.704.938-.941,1.763-.939,9.949.028,19.9.018,29.85.018h48.679Z" fill="#2d30c6"/><path d="M140.509,422.919c.393-.6.703-1.08,1.021-1.556,5.887-8.836,11.775-17.671,17.661-26.508,8.533-12.812,17.066-25.623,25.596-38.437,7.742-11.629,15.484-23.257,23.212-34.894.367-.553.714-.864,1.46-.864,25.895.026,51.789.021,77.684.021h.866c-.264.439-.445.767-.651,1.077-9.785,14.697-19.573,29.392-29.36,44.088-8.512,12.782-17.023,25.564-25.535,38.346-3.979,5.977-7.958,11.956-11.93,17.938-.33.497-.633.852-1.355.851-26.041-.025-52.082-.021-78.124-.022-.109,0-.218-.016-.546-.04" fill="#2d30c6"/><path d="M1059.13,324.815c-3.054-1.311-5.927-2.653-8.879-3.79-6.984-2.69-14.221-4.342-21.689-4.952-3.622-.296-7.228-.299-10.713.906-2.34.81-4.476,2.058-5.457,4.426-1.863,4.493-.664,7.43,3.633,9.086,4.036,1.554,8.196,2.829,12.372,3.967,8.125,2.217,16.384,4.009,24.161,7.324,3.003,1.281,5.939,2.839,8.654,4.647,5.098,3.396,8.192,8.22,9.12,14.332.929,6.126.367,12.086-2.332,17.719-3.095,6.458-8.289,10.723-14.734,13.57-5.914,2.613-12.161,3.759-18.591,4.096-11.572.608-22.869-.835-33.869-4.476-6.016-1.991-11.715-4.667-17.034-8.126-.148-.096-.287-.209-.533-.389,3.298-5.402,6.578-10.775,9.917-16.245.674.347,1.31.662,1.935.998,9.141,4.905,18.874,7.932,29.174,9.132,4.605.537,9.222.975,13.828-.002,2.797-.594,5.398-1.608,7.334-3.836,3.337-3.841,1.745-10.481-3.228-12.352-4.315-1.623-8.799-2.839-13.273-3.987-7.769-1.995-15.606-3.738-23.118-6.619-3.831-1.469-7.499-3.244-10.722-5.838-4.778-3.845-7.208-8.852-7.547-14.94-.267-4.805.336-9.464,2.256-13.9,2.301-5.314,6.136-9.261,11.098-12.157,5.023-2.931,10.495-4.611,16.231-5.245,4.198-.465,8.454-.779,12.668-.647,12.428.392,24.365,3.022,35.547,8.63,1.039.522,2.046,1.111,3.193,1.736-3.161,5.692-6.283,11.315-9.4,16.93" fill="#2d30c6"/><path d="M871.151,298.559h6.973c6.292,0,12.584.009,18.876-.014.629-.002.947.163,1.178.783,6.792,18.188,13.604,36.369,20.417,54.548,1.889,5.041,3.795,10.077,5.778,15.343.329-.802.592-1.4.822-2.01,5.874-15.534,11.741-31.072,17.616-46.606,2.679-7.088,5.374-14.17,8.053-21.257.173-.457.291-.807.939-.805,8.523.027,17.046.018,25.569.021.133,0,.265.029.496.057-1.29,3.221-2.542,6.363-3.806,9.501-5.049,12.54-10.098,25.079-15.151,37.616-6.509,16.149-13.026,32.294-19.517,48.449-.252.63-.591.788-1.221.787-9.182-.017-18.364-.026-27.545.012-.799.003-1.059-.344-1.309-.972-6.415-16.072-12.836-32.141-19.267-48.207-6.098-15.233-12.21-30.461-18.313-45.691-.187-.466-.356-.939-.588-1.556" fill="#2d30c6"/><path d="M845.474,378.964v-80.345h9.664v96.343c-2.509,0-4.971-.194-7.387.053-2.502.255-3.965-.705-5.501-2.638-16.582-20.872-33.275-41.655-49.936-62.465-3.901-4.872-7.795-9.751-11.694-14.626-.22-.276-.457-.54-.876-1.031v80.624h-9.706v-96.224c.218-.029.46-.091.703-.091,3.183-.006,6.366-.025,9.548.02.395.005.913.253,1.158.561,11.038,13.821,22.05,27.661,33.07,41.496,7.791,9.784,15.589,19.562,23.381,29.344,2.159,2.71,4.31,5.427,6.468,8.138.263.331.545.65.819.974.096-.045.193-.089.289-.134" fill="#2d30c6"/><path d="M494.605,347.672c.201-13.852,4.711-24.941,13.622-34.235,8.023-8.368,17.833-13.498,29.238-15.254,16.526-2.544,31.423,1.393,44.081,12.469,9.304,8.142,14.871,18.462,16.155,30.823,1.529,14.705-2.827,27.566-12.93,38.382-8.656,9.268-19.428,14.517-31.994,15.988-13.102,1.534-25.296-1.186-36.241-8.616-11.634-7.898-18.843-18.804-21.271-32.708-.448-2.571-.51-5.209-.661-6.848M587.594,346.813c-.066-1.126-.108-2.254-.201-3.377-.76-9.128-4.313-17.073-10.621-23.653-9.363-9.765-20.952-14.036-34.422-12.867-10.481.91-19.449,5.205-26.612,12.962-8.098,8.766-11.589,19.177-10.39,31.02,1.026,10.142,5.503,18.677,13.149,25.407,8.641,7.605,18.827,10.967,30.342,10.35,6.379-.341,12.396-1.991,17.904-5.177,13.314-7.702,20.211-19.31,20.851-34.664" fill="#2d30c6"/><path d="M693.853,353.052h-30.447v-7.325h40.207c.021.342.056.66.056.977.003,11.248-.004,22.498.016,33.747,0,.725-.223,1.174-.797,1.645-9.694,7.959-20.812,12.456-33.263,13.783-13.545,1.444-26.118-1.262-37.298-9.153-11.966-8.448-19.189-19.954-20.827-34.598-1.577-14.088,2.279-26.639,11.707-37.311,8.218-9.302,18.645-14.731,30.854-16.684,10.18-1.628,20.139-.617,29.808,3.047,5.211,1.975,11.905,5.938,15.255,9.15-2.326,2.14-4.652,4.279-6.935,6.379-2.227-1.456-4.694-3.275-7.346-4.765-5.605-3.15-11.656-4.898-18.096-5.365-7.049-.511-13.858.443-20.319,3.294-12.883,5.685-21.255,15.294-24.02,29.16-2.554,12.807.721,24.304,9.436,34.091,7.221,8.108,16.421,12.546,27.195,13.426,12.35,1.008,23.643-2.084,33.661-9.517.838-.622,1.192-1.264,1.183-2.347-.059-6.756-.03-13.512-.03-20.269v-1.364" fill="#2d30c6"/><rect x="1088.505" y="298.618" width="22.133" height="96.284" fill="#2d30c6"/><polygon points="422.298 394.82 422.298 298.629 432.414 298.629 432.414 385.717 488.25 385.717 488.25 394.82 422.298 394.82" fill="#2d30c6"/><rect x="731.837" y="298.634" width="9.972" height="96.27" fill="#2d30c6"/></g></g></svg>