<?xml version="1.0" encoding="UTF-8"?><svg id="EXAMPLES_TURN_OFF_" xmlns="http://www.w3.org/2000/svg" viewBox="0 0 1250 703"><defs><style>.cls-1{fill:#121112;stroke-width:0px;}</style></defs><path class="cls-1" d="m314.04173,281.654c-37.94794-37.93584-98.47015-36.99074-135.47269-.00003-20.52682,20.52026-28.05737,46.01892-28.05739,67.71378-.00002,42.9238,27.20781,75.00043,58.50415,88.23343,23.76038,10.04657,50.77629,10.06451,74.57906.00003,37.21106-15.73389,58.50421-51.60587,58.50421-88.2334,0-26.94485-11.10004-50.7619-28.05734-67.71381Zm-126.39511,11.79181c15.22131-15.93558,36.35226-25.03665,58.39302-25.10684,21.75011-.06924,42.20906,8.36554,57.58113,23.73264,20.04132,20.03482,23.3165,43.52704,23.72861,54.11151.04269,1.09644-1.47714,1.42557-1.89087.40924-2.68744-6.60178-8.41824-17.53806-20.17847-27.69708-15.83356-13.67776-36.81711-21.21048-59.08525-21.21048s-43.25169,7.53268-59.08527,21.21045c-11.60966,10.02896-17.24736,20.57898-19.93965,27.0661-.42278,1.01868-1.94157.67914-1.88907-.42249.48804-10.23953,3.79379-32.64951,22.3658-52.09302l.00002-.00003Zm126.00024,91.70801c-.28058.98849-1.69592.93283-1.90729-.07272-.89221-4.24417-2.46069-8.37131-4.69843-12.3378-3.47318-6.1568-8.39563-11.64868-14.63062-16.32336-12.40131-9.29779-28.77505-14.41846-46.10516-14.41849-17.33011,0-33.70386,5.12067-46.10516,14.41846-6.23502,4.67468-11.15747,10.16653-14.63065,16.32333-2.31297,4.09982-3.91379,8.37082-4.79018,12.76553-.20103,1.00812-1.61684,1.07391-1.90657.08762-1.34077-4.56424-2.05486-9.33673-2.05484-14.24872.00002-32.49442,31.1223-58.93033,69.37683-58.93033s69.3768,26.43594,69.37677,58.93036c0,4.75317-.66733,9.37619-1.92471,13.80609v.00003Zm-76.37062,43.9086c-7.63112-2.3508-13.07715-7.54086-13.07715-13.39801,0-7.9859,10.1234-14.73257,22.10625-14.73257s22.10623,6.7467,22.10623,14.7326c0,5.83374-5.40259,11.00546-12.98575,13.36942-3.48407,1.08612-11.48755,2.08087-18.1496.02859l.00002-.00003Zm34.29237-34.9173c-6.8342-5.12405-15.80621-7.94586-25.26326-7.94586s-18.42906,2.82181-25.26328,7.94586c-11.10521,8.32629-11.80817,18.60239-11.5258,23.11908.05322.85126-.9225,1.36356-1.59103.83362-4.01706-3.18439-13.20113-11.83188-13.20113-24.53226,0-9.43063,5.08508-18.43658,14.31857-25.3595,9.86697-7.39771,23.10049-11.47195,37.26266-11.47192,14.16219,0,27.39571,4.07425,37.26265,11.47195,9.23349,6.92294,14.31857,15.92889,14.31857,25.35953,0,12.70724-9.18018,21.33905-13.20227,24.52838-.6636.52618-1.64172.01764-1.58884-.82745.28165-4.50006-.41711-14.79172-11.52686-23.1214v-.00003Z"/><path class="cls-1" d="m519.12282,365.32059c0,21.08871-10.03632,33.67941-26.84714,33.67941-15.40823,0-23.89386-10.38715-23.89386-29.2482v-52.33392h-16.47299v53.25705c0,37.85339,23.67102,43.50528,37.78061,43.50528,11.51334,0,20.90585-3.65753,27.95657-10.8786.68701-.70364,1.87628-.34924,2.04187.62012.59998,3.51254,1.56561,9.28943,1.56573,9.28986h14.34216v-95.7937h-16.47296v47.90271Z"/><path class="cls-1" d="m657.50972,316.4603c-13.71411,0-24.52405,5.27179-31.4118,15.27893-.56152.81583-1.76074.7662-2.26105-.08859-5.66925-9.68637-16.01172-15.19034-28.7403-15.19034-10.45856,0-18.80066,3.61401-25.4176,11.0314-.67877.76089-1.93085.40887-2.08728-.59869l-1.47113-9.47513h-14.34412v95.7937h16.47235v-50.47595c0-18.89032,9.52374-31.09647,24.26288-31.09647,14.21741,0,22.04694,9.7323,22.04694,27.40323v54.16916h16.47296v-51.21524c0-18.72464,9.43866-30.35715,24.63184-30.35715,13.979,0,21.67792,9.7323,21.67792,27.40323v54.16916h16.47235v-55.09229c0-14.15182-3.59058-24.95667-10.67169-32.1138-6.1781-6.24438-15.04181-9.5452-25.63232-9.5452l.00006.00003Z"/><path class="cls-1" d="m789.47743,316.4603c-14.63678,0-23.65558,5.65408-28.94421,11.09525-.69122.71115-1.89258.33908-2.04688-.64059l-1.49561-9.49707h-14.34283v95.7937h16.47235v-47.89102c0-21.09,10.38196-33.68137,27.77094-33.68137,16.23523,0,24.81702,10.11429,24.81702,29.24951v52.32288h16.47235v-53.246c0-37.85339-24.24854-43.50528-38.70312-43.50528Z"/><path class="cls-1" d="m962.30818,327.69727l-1.45239-10.27936h-14.35193v95.7937h16.47235v-48.81479c0-26.01312,15.31726-30.87622,24.448-30.87622h8.23553v-16.10269h-4.9126c-14.87219,0-22.15912,5.69586-26.31995,10.85855-.65942.81821-1.97198.46133-2.11902-.57919Z"/><path class="cls-1" d="m1076.93459,317.41788l-26.51172,71.13248c-.38501,1.03305-1.84338,1.04086-2.2395.01199l-27.22394-70.71896-.1637-.42551h-17.4942l36.52661,94.31061c.3689.93268.28674,1.68402.04688,2.21179l-2.2876,5.3656c-3.52759,8.9118-4.92627,10.65805-13.04614,10.65805h-14.14465v15.17889h18.76099c13.60022,0,17.37793-6.21448,23.3313-21.4707l41.5918-105.34476.35986-.90948h-17.50598Z"/><path class="cls-1" d="m422.58784,390.91196v-105.42532h-16.62631v105.56824c0,14.08099,7.51117,22.15671,20.60797,22.15671h11.32327v-15.02621h-8.61362c-5.5304,0-6.69131-3.95502-6.69131-7.27341Z"/><path class="cls-1" d="m922.70943,390.91587v-39.68381c0-22.01575-14.0401-34.64285-38.52057-34.64285-23.13965,0-38.29773,11.19528-40.54742,29.94724l-.08899.74448h16.44116l.10394-.53986c1.81964-9.46204,10.76782-15.34067,23.35272-15.34067,14.26813,0,22.78687,7.06876,22.78687,18.90851v4.8002c0,.55109-.44678.99786-.99786.99786h-26.03638c-24.84106,0-38.52124,10.66388-38.52124,30.02649,0,17.11874,13.88806,28.17953,35.38214,28.17953.30859,0,.61194-.00519.91467-.01105h.19293c11.97559,0,22.00604-3.64603,29.84424-10.84207.64331-.59061,1.65637-.39343,2.07031.37555,3.30475,6.13977,9.35101,9.36993,17.60577,9.36993h6.7901v-15.01999h-4.08173c-5.52979,0-6.69067-3.95309-6.69067-7.2695Zm-17.47021-20.73697c.55109,0,.99786.44675.99786.99786v2.95392c0,15.99161-11.13745,25.92593-29.06567,25.92593-12.04761,0-19.83228-5.8273-19.83228-14.84628,0-9.97397,6.85895-15.03143,20.38641-15.03143h27.51367Z"/><polygon class="cls-1" points="709.97676 413.21158 726.42573 413.21158 726.42573 413.20511 726.4673 413.20511 726.4673 317.41788 709.99434 317.41788 709.97676 413.21158"/><path class="cls-1" d="m718.38576,285.48667c-5.95007,0-10.43652,4.48709-10.43652,10.43716s4.48645,10.43652,10.43652,10.43652,10.43713-4.48642,10.43713-10.43652-4.48706-10.43716-10.43713-10.43716Z"/></svg>