<?xml version="1.0" encoding="UTF-8"?>
<svg id="PASTE_LOGO_HERE" data-name="PASTE LOGO HERE" xmlns="http://www.w3.org/2000/svg" viewBox="0 0 1250 703">
  <defs>
    <style>
      .cls-1 {
        fill: #797f83;
      }

      .cls-2 {
        fill: #ed3326;
      }

      .cls-3 {
        fill: #0e080a;
      }
    </style>
  </defs>
  <path class="cls-1" d="M396.39,293.93h48.59l17.92,68.23h1.21c.86-5.68,1.73-11.72,3.28-17.22l14.64-51.01h48.08l21.36,129.92h-45.66l-6.38-71.16h-.85c-.86,4.31-1.72,8.78-3.1,12.92l-18.78,58.25h-27.57l-16.89-54.97c-1.38-5.51-2.59-10.68-2.94-16.19h-1.55c-.34,5.17-.68,10.51-1.2,15.67l-5.52,55.49h-45.66s21.02-129.92,21.02-129.92Z"/>
  <path class="cls-1" d="M621.34,376.81l-5.51-22.92c-1.38-5.52-2.24-11.2-3.11-16.72h-1.71l-8.62,39.63h18.96ZM590.15,423.85h-49.96l45.14-129.92h52.22l46.35,129.92h-49.98l-4.3-16.2h-35.68l-3.79,16.2h0Z"/>
  <path class="cls-1" d="M812.25,347.34c-.35,21.2-.35,38.94-15.69,55.48-13.79,15-34.97,23.1-55.13,23.1-39.63,0-71.67-24.47-71.67-66.17s31.18-67.89,72.02-67.89c22.57,0,53.59,11.2,63.75,33.43l-44.11,16.2c-3.61-6.55-10.33-10-17.92-10-16.88,0-26.19,14.47-26.19,30.15,0,14.3,8.96,27.74,24.29,27.74,7.42,0,16.89-3.45,19.12-11.37h-21.36v-30.67h72.88,0Z"/>
  <path class="cls-1" d="M815.77,293.93h45.32l42.38,72.03h1.37c-1.89-10.86-3.96-22.06-3.96-33.08v-38.94h45.14v129.92h-45.14l-41.52-68.23h-1.38c1.55,8.95,2.93,17.4,2.93,26.02v42.21h-45.15v-129.92h0,0Z"/>
  <path class="cls-1" d="M1022.46,376.81l-5.52-22.92c-1.37-5.52-2.24-11.2-3.1-16.72h-1.72l-8.62,39.63h18.96,0ZM991.27,423.85h-49.97l45.14-129.92h52.21l46.35,129.92h-49.97l-4.31-16.2h-35.66l-3.79,16.2Z"/>
  <polygon class="cls-3" points="303.35 423.98 352.31 423.98 305.16 294.28 269.33 294.27 262.74 312.32 303.35 423.98"/>
  <path class="cls-2" d="M270.15,239.09c-13.13,0-23.78,10.64-23.78,23.79s10.65,23.78,23.78,23.78,23.78-10.65,23.78-23.78-10.64-23.78-23.78-23.78"/>
  <polygon class="cls-3" points="165 423.98 237.98 423.97 201.48 323.78 165 423.98"/>
  <polygon class="cls-3" points="246.26 423.98 295.21 423.98 248.05 294.28 212.22 294.27 205.64 312.32 246.26 423.98"/>
</svg>