<?xml version="1.0" encoding="UTF-8"?><svg id="LOGO" xmlns="http://www.w3.org/2000/svg" viewBox="0 0 1250 703"><defs><style>.cls-1{isolation:isolate;}.cls-2{fill:#1d1d1b;}.cls-2,.cls-3{stroke-width:0px;}.cls-3{fill:#ee7a04;}</style></defs><g id="malardalen"><path class="cls-2" d="m362.38522,361.01518h13.11013l10.15029,29.55944c1.41373,4.10889,2.12238,6.93633,2.12238,6.93633h.12532s.64414-2.82744,2.05787-7.00431l10.2147-29.49146h13.04213v49.15486h-8.92978v-39.77414h-.19322s-.89837,3.79023-2.82394,9.44511l-10.34711,30.32904h-7.06859l-10.2147-30.32904c-1.92916-5.65488-2.82743-9.44511-2.82743-9.44511h-.19332v39.77414h-8.22473v-49.15486Z"/><path class="cls-2" d="m420.09506,385.68563c.25773-6.55327,5.46167-10.66563,14.13732-10.66563,10.15379,0,14.07291,4.17688,14.07291,13.30346v12.59121c0,2.18678.64068,3.02065,2.89187,3.02065v6.23125h-2.44452c-5.07513,0-7.25832-1.28132-8.15673-5.20406h-.19319c-1.9936,3.53621-5.59049,5.52968-10.54043,5.52968-7.00419,0-11.3063-3.72931-11.3063-10.02497,0-3.91903,1.67146-6.81089,5.13957-8.61125,3.59703-1.86465,8.80456-2.31199,16.1917-2.63411v-1.73585c0-4.62421-1.79665-6.74659-5.7193-6.74659-3.98353,0-5.6514,2.2477-5.78378,4.94623h-8.28914Zm4.11594-24.67044h7.77368v7.90258h-7.77368v-7.90258Zm15.74078,34.18365v-.96638c-6.03795.32214-9.25192.83758-11.05226,2.12238-1.22041.83398-1.73583,2.1189-1.73583,3.72583,0,2.82744,1.86475,4.62781,5.01072,4.62781,3.79384,0,7.77738-2.83103,7.77738-9.50964m-2.63424-34.18365h7.70927v7.90258h-7.70927v-7.90258Z"/><rect class="cls-2" x="456.59289" y="360.88627" width="8.67209" height="49.15497"/><path class="cls-2" d="m470.94079,385.6882c.25413-6.55327,5.46167-10.66562,14.13373-10.66562,10.15375,0,14.07291,4.17676,14.07291,13.29974v12.5948c0,2.18319.64424,3.02076,2.89184,3.02076v6.23115h-2.44089c-5.07876,0-7.26195-1.28492-8.16032-5.20395h-.19322c-1.99356,3.53251-5.59049,5.52608-10.5368,5.52608-7.00422,0-11.30989-3.72943-11.30989-10.02497,0-3.91914,1.67143-6.81099,5.13954-8.61125,3.59703-1.86117,8.80456-2.31211,16.19173-2.63063v-1.73585c0-4.62769-1.80028-6.74659-5.7193-6.74659-3.98357,0-5.655,2.2477-5.78022,4.94633h-8.2891Zm19.85313,9.50953v-.96268c-6.04154.31854-9.25192.83387-11.05226,2.11878-1.22041.83387-1.73587,2.11879-1.73587,3.72583,0,2.83103,1.86479,4.6277,5.01435,4.6277,3.79021,0,7.77378-2.82745,7.77378-9.50963"/><path class="cls-2" d="m507.18072,375.79272h8.16032v6.93992h.12878c1.80028-4.62781,6.42449-7.51607,11.17748-7.51607h.57976v8.0958h-1.60695c-6.10232,0-9.82816,2.56984-9.82816,9.18751v17.54101h-8.61124v-34.24817Z"/><path class="cls-2" d="m560.81561,410.03911h-8.2891v-5.26836h-.19332c-1.73583,3.14957-5.07513,6.10582-10.40789,6.10582-8.41805,0-14.33064-5.26836-14.33064-17.60903,0-11.94696,6.29564-18.24609,14.90688-18.24609,4.62771,0,7.9706,2.38011,9.50951,5.52608h.12892v-19.6634h8.67565v49.15498Zm-8.54683-18.56823c0-6.42446-3.08516-10.27909-7.77378-10.27909-5.20754,0-8.09578,4.11237-8.09578,11.82162,0,7.19753,2.18319,11.82175,7.77364,11.82175,5.13957,0,8.09592-4.04796,8.09592-9.44523v-3.91904Z"/><path class="cls-2" d="m567.0605,385.6882c.25413-6.55327,5.45811-10.66562,14.13376-10.66562,10.15375,0,14.07291,4.17676,14.07291,13.29974v12.5948c0,2.18319.64424,3.02076,2.89184,3.02076v6.23115h-2.44092c-5.07873,0-7.26192-1.28492-8.16389-5.20395h-.18963c-1.99356,3.53251-5.59049,5.52608-10.5404,5.52608-7.00422,0-11.3063-3.72943-11.3063-10.02497,0-3.91914,1.66783-6.81099,5.13954-8.61125,3.59703-1.86117,8.80097-2.31211,16.1917-2.63063v-1.73585c0-4.62769-1.80024-6.74659-5.71927-6.74659-3.98357,0-5.655,2.2477-5.78022,4.94633h-8.28914Zm19.85313,9.50953v-.96268c-6.04151.31854-9.25189.83387-11.05226,2.11878-1.22037.83387-1.73583,2.11879-1.73583,3.72583,0,2.83103,1.86475,4.6277,5.01432,4.6277,3.79025,0,7.77378-2.82745,7.77378-9.50963"/><rect class="cls-2" x="603.299" y="360.88627" width="8.67209" height="49.15497"/><path class="cls-2" d="m633.38241,410.87556c-10.7946,0-16.38509-7.19753-16.38509-17.92755,0-10.40802,5.97707-17.98848,16.32051-17.98848,11.24548,0,15.80882,7.70937,15.80882,17.28341v2.75944h-23.39287c.38658,6.49246,2.89197,9.89605,7.97063,9.89605,4.62777,0,5.9735-2.44091,6.55334-4.4953h8.48232c-1.0916,6.55327-6.55327,10.47242-15.35766,10.47242m6.93978-21.65339c-.32214-5.13955-2.3157-8.61124-7.06873-8.61124-4.43445,0-6.87541,3.4073-7.45168,8.99777h14.52041v-.38653Z"/><path class="cls-2" d="m676.1881,389.67209c0-2.44102-.06437-4.68862-1.0916-6.10593-1.03078-1.41371-2.70221-2.05438-4.75659-2.05438-5.13954,0-7.70931,3.27836-7.70931,8.48232v20.04645h-8.67565v-34.24818h8.28914v5.7194h.12881c1.80024-3.4717,5.3973-6.48888,11.11653-6.48888,7.645,0,11.37074,3.91904,11.37074,12.20816v22.80949h-8.67209v-20.36847Z"/><path class="cls-2" d="m462.53201,450.98474c0-2.44093-.06441-4.68859-1.0916-6.1059-1.03078-1.41373-2.69865-2.05439-4.75662-2.05439-5.13954,0-7.70927,3.27843-7.70927,8.48239v20.04638h-8.67575v-34.24813h8.28924v5.71935h.12878c1.80028-3.4717,5.3973-6.48885,11.11657-6.48885,7.64486,0,11.3707,3.91908,11.3707,12.20821v22.80942h-8.67205v-20.36849Z"/><path class="cls-2" d="m477.65149,422.39267h8.80446v8.16023h-8.80446v-8.16023Zm.06441,14.71352h8.67565v34.24812h-8.67565v-34.24812Z"/><path class="cls-2" d="m489.61432,437.10511h8.74005l6.10235,18.95476c1.15956,3.46812,1.86465,6.8754,1.86465,6.8754h.12892s.76946-3.40728,1.86105-6.8754l6.23473-18.95476h8.28914l-12.08294,34.24813h-8.99419l-12.14376-34.24813Z"/><path class="cls-2" d="m539.74438,472.18822c-10.79457,0-16.38502-7.1975-16.38502-17.92756,0-10.40794,5.977-17.98841,16.32051-17.98841,11.24545,0,15.80875,7.70931,15.80875,17.28334v2.75946h-23.3928c.38651,6.49244,2.89194,9.89971,7.97056,9.89971,4.62781,0,5.97354-2.44451,6.55327-4.49889h8.48246c-1.0916,6.55327-6.5533,10.47235-15.35773,10.47235m6.93978-21.65337c-.3221-5.13955-2.3157-8.61125-7.06869-8.61125-4.43449,0-6.87541,3.40729-7.45168,8.99779h14.52037v-.38654Z"/><path class="cls-2" d="m560.57242,437.10511h8.16019v6.93981h.12892c1.80028-4.62774,6.42435-7.51605,11.17738-7.51605h.57987v8.09587h-1.60706c-6.10235,0-9.82805,2.56978-9.82805,9.18747v17.54103h-8.61124v-34.24813Z"/><path class="cls-2" d="m601.51894,446.29366c-.19319-2.44093-2.12238-4.2412-5.59049-4.2412-3.40726,0-5.39727,1.80027-5.39727,4.2412,0,2.24766,1.28492,3.40727,4.37008,3.85465l5.59049.77309c6.61778.89834,9.83175,3.91908,9.83175,10.02139,0,7.39078-5.977,11.30986-14.33064,11.30986-8.99415,0-14.0084-3.85465-14.45942-10.73005h8.03507c.25403,2.44092,1.73227,4.94985,6.48876,4.94985,3.79025,0,6.23127-1.67142,6.23127-4.49888,0-2.31566-.89837-3.60055-4.5634-4.05152l-5.39716-.70507c-6.29568-.8375-9.82816-3.85466-9.82816-9.96056,0-5.97346,4.56326-10.98775,13.55745-10.98775,8.54327,0,12.78813,3.98351,13.29986,10.02498h-7.83819Z"/><path class="cls-2" d="m615.53354,422.39267h8.80456v8.16023h-8.80456v-8.16023Zm.06437,14.71352h8.67219v34.24812h-8.67219v-34.24812Z"/><path class="cls-2" d="m642.27204,427.40333v9.70286h7.967v6.16672h-7.83808v16.90038c0,3.53254,1.34933,5.0107,4.81743,5.0107,1.4781,0,3.21397-.25769,3.21397-.25769v6.48885c-.83397.13242-3.33929.45095-6.23113.45095-6.75022,0-10.34711-3.01715-10.34711-10.15024v-18.44296h-5.52608v-6.03789h1.156c4.43449,0,5.26835-.96635,5.26835-7.32636v-2.50534h7.51965Z"/><path class="cls-2" d="m394.46817,422.19836h8.93314v28.52849c0,3.85577.06278,8.3498,2.05606,10.9238,1.99066,2.50076,4.88118,3.59418,8.60877,3.59418,3.85577,0,6.80907-1.09343,8.73695-3.59418,2.05606-2.574,1.92788-7.06803,1.92788-10.9238v-28.52849h8.80234v32.25347c0,12.39914-7.8371,17.86104-19.59535,17.86104s-19.46979-5.39389-19.46979-17.86104v-32.25347Z"/><path class="cls-2" d="m652.96839,437.10349h8.80234l6.16818,19.21082c1.15621,3.53663,1.60613,6.23096,1.60613,6.23096h.12818s.51532-2.69433,1.60613-6.23096l5.91183-19.21082h8.4806l-12.20819,35.72209c-2.69694,7.90511-5.65286,11.31095-14.07067,11.31095-2.56877,0-4.04672-.31913-4.49665-.44993v-6.48732c.77168.18834,2.11884.31913,3.34044.31913,3.98394,0,5.3965-1.34978,6.74628-4.88118l.44993-1.15621-12.46454-34.37754Z"/><g class="cls-1"><rect class="cls-3" x="431.22007" y="183.47179" width="50.72616" height="152.17616"/><path class="cls-3" d="m521.40183,180.02283c-14.4415.00719-26.99991,3.95532-37.17521,7.86013v.50725c14.5291-2.07527,48.4529.26889,48.4529,58.52901v88.72872h50.72622v-94.21543c0-54.12994-31.72851-61.42407-62.0039-61.40969"/><path class="cls-3" d="m623.31443,180.02281h0c-18.35349.05735-37.04332,2.65979-52.21862,10.43706v.50725c25.00694-2.42298,63.03818-3.51766,63.03818,57.98147v86.69936h50.7262v-94.21545c0-53.85782-31.40997-61.27728-61.54576-61.40969"/></g><g class="cls-1"><path class="cls-3" d="m887.76265,361.01518v71.61c0,62.9809-26.18087,83.04518-63.41045,83.04518-39.93167,0-63.40673-9.92118-63.40673-72.90209v-81.75309h-50.72623v71.61c0,62.9809,26.18088,83.04518,63.40686,83.04518,39.93526,0,63.41033-9.92118,63.41033-72.90209v-81.75309h50.72622Z"/></g><rect class="cls-3" x="710.22097" y="183.47179" width="50.72616" height="152.17616"/><path class="cls-3" d="m763.22639,335.39665c46.40628,0,73.66159-29.43436,73.66159-75.77254s-27.2553-75.90226-73.66159-75.90226v-.50725c8.37455-1.44747,19.39034-2.12838,29.44561-2.12838,44.36438,0,97.98426,16.41207,97.98426,78.40816s-53.61988,78.53788-97.98426,78.53788c-10.05528,0-21.07106-.6809-29.44561-2.12838v-.50725Z"/><polyline class="cls-3" points="481.94623 335.64795 481.94623 183.47179 431.22007 183.47179"/></g></svg>