<svg id="LOGO" xmlns="http://www.w3.org/2000/svg" viewBox="0 0 1250 703"><defs><style>.cls-1{fill:#121137;}.cls-2{fill:#a3cf60;}.cls-3{fill:#1e1545;}.cls-4{fill:#59b7b3;}</style></defs><title>mark-iii-systems-logo</title><path class="cls-1" d="M777.21,424.26V420c0-8.66,4-13.09,12.16-13.22.86-.07,1.72-.07,2.58-.07,6.48,0,11.64.73,15.54,2.18v8.8a96.61,96.61,0,0,0-10.65-.67h-4.56a7.52,7.52,0,0,0-3.83.67c-.73.46-1.13,1.58-1.13,3.37v1.72c0,1.58.2,2.58.67,3a4.94,4.94,0,0,0,3.63,1.12h6.48a9.74,9.74,0,0,1,6.94,2.38c2.71,2.58,4.1,6.42,4.1,11.44v2.91c0,6.48-1.85,10.71-5.49,12.76a14.21,14.21,0,0,1-7,1.59,104.93,104.93,0,0,1-10.71-.4,32.34,32.34,0,0,1-7.34-1.79v-8.79a137.89,137.89,0,0,0,15.73.73,7,7,0,0,0,3.44-.73,3.22,3.22,0,0,0,1.26-2.91v-2a4.76,4.76,0,0,0-.8-3,3.59,3.59,0,0,0-2.91-1H789a11.13,11.13,0,0,1-6.55-1.66,9.65,9.65,0,0,1-3.57-3.83,15.2,15.2,0,0,1-1.39-4.17c-.13-1.72-.26-3.1-.26-4.23"/><path class="cls-1" d="M811.85,421h10.52l4.76,24.46a3.08,3.08,0,0,0,3,2.64l5.49-27.1H845.9l-12,55H824l4.16-18.51c-5.55,0-9-3.3-10.57-9.92Z"/><path class="cls-1" d="M847.49,433.85v-3.18a14.44,14.44,0,0,1,.79-5.09A7.71,7.71,0,0,1,851,422c1.26-.92,3.24-1.39,5.89-1.39s4.89,0,6.74.07a51.23,51.23,0,0,1,6,.6,9,9,0,0,1,4.23,1.45v6.88H859.52a2.3,2.3,0,0,0-1.58.39,2.2,2.2,0,0,0-.4,1.52v1.13c0,.79.13,1.25.46,1.45a3,3,0,0,0,1.52.33h7.08a8.83,8.83,0,0,1,5.15,1.39c2.45,1.59,3.71,4.37,3.71,8.33V448c0,3.44-.8,5.95-2.25,7.47a7.56,7.56,0,0,1-5.69,2.31c-3.24,0-5.88,0-7.8-.06a61.19,61.19,0,0,1-6.35-.6c-2.31-.4-3.76-.86-4.49-1.59v-6.81h14.87c1.13,0,1.66-.59,1.66-1.78v-1.12a2.33,2.33,0,0,0-.33-1.39,1.64,1.64,0,0,0-1.33-.47h-6.81c-6.34,0-9.45-3.37-9.45-10.11"/><path class="cls-1" d="M877.71,429v-5.88l4.95-2.25,1.59-10.18h8.46v10.18h6.48v8.2h-6.48v13.22a14,14,0,0,0,.6,5,4,4,0,0,0,2,2.05,22.47,22.47,0,0,0,3.57,1.39v6.74h-8.2a7.29,7.29,0,0,1-4.23-1.19q-3.76-2.67-3.77-11.9V429Z"/><path class="cls-1" d="M919.16,449.05a70.51,70.51,0,0,0,10.64-.72v7.47a17.44,17.44,0,0,1-5.62,1.39,42,42,0,0,1-5.48.46c-1.26,0-3.31.07-6.09.07-4,0-6.81-1.46-8.33-4.3S902,445.75,902,439a49.76,49.76,0,0,1,.73-9.39,11.44,11.44,0,0,1,2.51-5.56,9,9,0,0,1,4.3-2.71,22.46,22.46,0,0,1,6-.66,52.92,52.92,0,0,1,5.29.2,22.38,22.38,0,0,1,3.57.66,6.73,6.73,0,0,1,2.77,1.39,8.57,8.57,0,0,1,1.86,2.38c1,1.78,1.45,4.69,1.45,8.79q0,7.35-5.36,8.93a12.14,12.14,0,0,1-4,.53H912c0,2.38.4,3.9,1.26,4.56a6.23,6.23,0,0,0,3.57,1.06h2.31Zm-1-13.15a2.09,2.09,0,0,0,2.05-1.19,5.18,5.18,0,0,0,.26-1.66,18.37,18.37,0,0,0-.06-1.91,2.67,2.67,0,0,0-.47-1.33q-.59-1-2.58-1a13.21,13.21,0,0,0-2.77.2,3.09,3.09,0,0,0-1.46.86c-.72.73-1,2.51-1,5.36a2.5,2.5,0,0,0,.06.66Z"/><path class="cls-1" d="M963.39,431.6l.07,2v23.81H953.41v-24c0-2.91-1-4.3-3-4.3a7.9,7.9,0,0,0-3.5.66,9.17,9.17,0,0,0-2.78,2.25v25.45h-10V421h8.27l1.78,3.77c2.65-2.31,4.83-3.7,6.48-4a14.64,14.64,0,0,1,3.11-.27c4.1,0,6.88,1.52,8.26,4.43a27.18,27.18,0,0,1,5.23-3.24,12.54,12.54,0,0,1,5.22-1.19,13.36,13.36,0,0,1,4.1.47,7.86,7.86,0,0,1,2.58,1.32,7.21,7.21,0,0,1,1.72,2.05A10.5,10.5,0,0,1,982,427a29.22,29.22,0,0,1,.73,6.81v23.74H972.65v-24c0-2.91-.93-4.3-2.91-4.3a7.32,7.32,0,0,0-6.35,2.38"/><path class="cls-1" d="M985.74,433.85v-3.18a14.44,14.44,0,0,1,.79-5.09,7.71,7.71,0,0,1,2.71-3.57c1.26-.92,3.24-1.39,5.89-1.39s4.89,0,6.74.07a51.23,51.23,0,0,1,6,.6,9,9,0,0,1,4.23,1.45v6.88H997.84a2.35,2.35,0,0,0-1.59.39,2.26,2.26,0,0,0-.39,1.52v1.13c0,.79.13,1.25.46,1.45a3,3,0,0,0,1.52.33h7.07a8.84,8.84,0,0,1,5.16,1.39c2.45,1.59,3.7,4.37,3.7,8.33V448c0,3.44-.72,5.95-2.25,7.47a7.53,7.53,0,0,1-5.68,2.31c-3.24,0-5.89,0-7.8-.06a60.94,60.94,0,0,1-6.35-.6c-2.31-.4-3.77-.86-4.5-1.59v-6.81h14.88c1.12,0,1.65-.59,1.65-1.78v-1.12a2.33,2.33,0,0,0-.33-1.39,1.63,1.63,0,0,0-1.32-.47h-6.88c-6.28,0-9.45-3.37-9.45-10.11"/><polygon class="cls-1" points="448.81 388.43 460.31 255.6 497.27 255.6 512.68 339.04 528.41 255.6 565.24 255.6 577.07 388.43 550.96 388.43 543.02 306.97 527.95 388.43 497.93 388.43 482.2 306.97 475.06 388.43 448.81 388.43"/><path class="cls-1" d="M591,363.24V354.9c0-7.86,2.12-14.34,6.35-19.5s10.45-7.73,18.65-7.73h23c.14-2.52.14-3.91,0-4,0-4.63-.79-7.54-2.44-8.8s-4.89-1.91-9.92-1.91-15.87.66-32.79,2V297a66.19,66.19,0,0,1,16.86-5.29,148.58,148.58,0,0,1,23.4-1.46c9.65,0,17.32,2.38,22.94,7.08s8.47,13.09,8.47,25.06v66.05H644.45L639,378.24c-.86,2.05-3.44,4.43-7.6,7.14a25.28,25.28,0,0,1-14,4.1c-8.86,0-15.47-2.71-19.9-8.19A28.32,28.32,0,0,1,591,363.24m34.25,3.43c5.16,0,9.79-2.31,13.75-6.87V345.12l-15.27,1.45c-4.1.4-6.15,3.38-6.15,9.06v3.11c0,3.77.86,6.08,2.58,6.88a10.85,10.85,0,0,0,5.09,1.05"/><path class="cls-1" d="M681.41,388.43V292.09h23L708,304.26c2.71-3.77,5.23-6.41,7.54-7.87a48.72,48.72,0,0,1,5.42-3.17,23.59,23.59,0,0,1,9.79-2c3.63,0,6.28.34,8,1.06v28.5c-3.24-.13-7.41-.2-12.43-.2s-9,.66-11.84,2-5,4.24-6.54,8.73v57.19H681.41Z"/><polygon class="cls-1" points="752.41 388.43 752.41 246.54 779.06 246.54 779.06 323.63 783.23 323.63 804.51 292.09 837.77 292.09 807.55 334.34 837.77 388.43 806.3 388.43 783.23 345.25 779.06 345.25 779.06 388.43 752.41 388.43"/><rect class="cls-1" x="896.81" y="255.6" width="26.58" height="132.83"/><rect class="cls-1" x="942.37" y="255.6" width="26.58" height="132.83"/><rect class="cls-1" x="987.92" y="255.6" width="26.58" height="132.83"/><path class="cls-2" d="M410.59,293.62,399.29,274c-6.42-11.18-12.9-22.35-19.31-33.46-2-3.5-4-7-6-10.44a4.59,4.59,0,0,0-4.29-3H295.29a7,7,0,0,0-1.2.13,3.39,3.39,0,0,0-1.12.53,4,4,0,0,0-1.65,1.72,4.42,4.42,0,0,0-.6,2.31,3.72,3.72,0,0,0,.27,1.45,2.76,2.76,0,0,0,.39.93c2.19,3.77,4.3,7.47,6.48,11.24,6.42,11.17,12.9,22.35,19.31,33.45,3.57,6.22,7.21,12.5,10.78,18.72a5,5,0,0,0,.39.86,5.1,5.1,0,0,0,1.66,1.71,3.37,3.37,0,0,0,1.12.47,3.72,3.72,0,0,0,1.19.13h74.32a4.78,4.78,0,0,0,4-7.07"/><path class="cls-3" d="M319,307.24a4.37,4.37,0,0,0-.59-2.65L307.12,285q-9.72-16.76-19.37-33.52c-2.18-3.77-4.3-7.47-6.48-11.24a4.65,4.65,0,0,0-7.94,0c-3.83,6.55-7.6,13.09-11.37,19.64-6.41,11.17-12.89,22.35-19.3,33.45-2.19,3.77-4.3,7.48-6.48,11.24a2.41,2.41,0,0,0-.4.93,3.53,3.53,0,0,0-.26,1.45v.4a4.3,4.3,0,0,0,.59,2.65l11.31,19.63c6.41,11.18,12.89,22.35,19.3,33.46,2.18,3.77,4.3,7.47,6.48,11.24a4.65,4.65,0,0,0,7.94,0l11.3-19.64c6.42-11.17,12.89-22.35,19.31-33.45,2.18-3.77,4.3-7.48,6.48-11.24a2.25,2.25,0,0,0,.39-.93,4.89,4.89,0,0,0,.27-1.39.66.66,0,0,0,.13-.39"/><path class="cls-4" d="M411.91,314.05a4.92,4.92,0,0,0-1.65-1.72,3.46,3.46,0,0,0-1.12-.47,3.75,3.75,0,0,0-1.19-.13H333.63a4.28,4.28,0,0,0-2.51.79,4.62,4.62,0,0,0-1.85,1.72c-2.18,3.77-4.3,7.47-6.48,11.24-6.41,11.18-12.89,22.35-19.31,33.46l-11.3,19.63a4.66,4.66,0,0,0,4,6.95h74.25a6.78,6.78,0,0,0,1.19-.14,5.45,5.45,0,0,0,1.13-.46c.06-.06.2-.13.26-.2a4.4,4.4,0,0,0,1.79-1.72l11.3-19.63c6.42-11.18,12.9-22.35,19.31-33.46,2.18-3.77,4.3-7.47,6.48-11.24a2.31,2.31,0,0,0,.4-.92,5.17,5.17,0,0,0,.19-1.39,3.38,3.38,0,0,0-.53-2.31"/></svg>