<?xml version="1.0" encoding="UTF-8"?>
<svg id="LOGO" xmlns="http://www.w3.org/2000/svg" xmlns:xlink="http://www.w3.org/1999/xlink" viewBox="0 0 1250 703">
  <defs>
    <style>
      .cls-1 {
        fill: #080611;
      }

      .cls-1, .cls-2 {
        stroke-width: 0px;
      }

      .cls-2 {
        fill: url(#linear-gradient);
        fill-rule: evenodd;
      }
    </style>
    <linearGradient id="linear-gradient" x1="123.2611" y1="2002.07854" x2="214.74501" y2="2002.07854" gradientTransform="translate(0 2362.72792) scale(1 -1)" gradientUnits="userSpaceOnUse">
      <stop offset="0" stop-color="#3800de"/>
      <stop offset="1" stop-color="#997aff"/>
    </linearGradient>
  </defs>
  <path class="cls-1" d="M1081.44224,347.95116v3.83389c0,3.3014,1.70389,4.47287,5.32483,4.47287h23.42927c10.54382,0,14.80367,3.3014,14.80367,14.16408v4.79236c0,10.54318-4.25985,14.16408-14.80367,14.16408h-27.26313c-10.43673,0-14.80249-4.15337-14.80249-14.05758v-.74548c0-1.27796.85198-1.91694,2.12996-1.91694h7.66771c1.38389,0,2.12996.63898,2.12996,1.91694v.53249c0,3.1949,1.70397,4.25988,5.21774,4.25988h22.15137c3.62086,0,5.32483-1.17147,5.32483-4.57936v-4.04688c0-3.3014-1.70397-4.68586-5.32483-4.68586h-23.53518c-10.43673,0-14.69658-3.3014-14.69658-14.16408v-4.36637c0-10.43669,4.25985-14.16408,14.69658-14.16408h25.02615c10.22366,0,14.59067,4.15338,14.59067,14.05759v.74548c0,1.27796-.63899,1.91694-2.02405,1.91694h-7.77369c-1.27798,0-2.02405-.63898-2.02405-1.91694v-.53248c0-3.08841-1.70397-4.25988-5.21774-4.25988h-19.7025c-3.62093,0-5.32483,1.17147-5.32483,4.57936Z"/>
  <path class="cls-1" d="M1048.57739,374.89486v-2.66242c0-1.38446.63899-2.02344,2.12996-2.02344h7.66778c1.27798,0,2.0228.63898,2.0228,2.02344v2.98191c0,10.0107-4.36576,14.16408-14.80242,14.16408h-25.77223c-10.96981,0-15.86865-4.68586-15.86865-15.22905v-25.55924c0-10.54319,4.89884-15.22905,15.86865-15.22905h25.77223c10.43666,0,14.80242,4.15338,14.80242,14.16408v2.98191c0,1.38446-.74483,2.02344-2.0228,2.02344h-7.66778c-1.49097,0-2.12996-.63898-2.12996-2.02344v-2.66242c0-3.19491-1.81105-4.36637-5.43191-4.36637h-17.99736c-7.66778,0-9.05285,1.27796-9.05285,7.56128v20.66039c0,6.28331,1.38506,7.56128,9.05285,7.56128h17.99736c3.62086,0,5.43191-1.17146,5.43191-4.36637Z"/>
  <path class="cls-1" d="M979.18357,321.53997v-8.30675c0-1.38446.63899-2.02344,2.12996-2.02344h7.98787c1.49097,0,2.12996.63898,2.12996,2.02344v8.30675c0,1.27793-.63899,2.0234-2.12996,2.0234h-7.98787c-1.49097,0-2.12996-.74548-2.12996-2.0234ZM979.18357,387.35499v-51.97046c0-1.38446.63899-2.02344,2.12996-2.02344h7.98787c1.49097,0,2.12996.63898,2.12996,2.02344v51.97046c0,1.38446-.63899,2.02344-2.12996,2.02344h-7.98787c-1.49097,0-2.12996-.63898-2.12996-2.02344Z"/>
  <path class="cls-1" d="M967.11999,343.47829h-14.05642v29.18014c0,5.53783,1.17089,6.6028,6.06973,6.6028h7.98669c1.38506,0,2.02398.63898,2.02398,2.02344v6.07032c0,1.38446-.63891,2.02344-2.02398,2.02344h-11.39463c-10.54374,0-14.9095-4.15337-14.9095-14.27057v-31.62956h-6.38981c-1.27798,0-2.02405-.63898-2.02405-2.02344v-6.07032c0-1.38446.74607-2.02344,2.02405-2.02344h6.38981v-12.24714c0-1.38446.74483-2.02344,2.0228-2.02344h8.09378c1.38506,0,2.13114.63898,2.13114,2.02344v12.24714h14.05642c1.38506,0,2.02398.63898,2.02398,2.02344v6.07032c0,1.38446-.63891,2.02344-2.02398,2.02344Z"/>
  <path class="cls-1" d="M925.68726,348.59014v25.55924c0,10.54319-4.89884,15.22905-15.86865,15.22905h-25.87814c-10.96974,0-15.86857-4.68586-15.86857-15.22905v-25.55924c0-10.54319,4.89884-15.22905,15.86857-15.22905h25.87814c10.96981,0,15.86865,4.68586,15.86865,15.22905ZM913.43955,371.69995v-20.66039c0-6.28331-1.38389-7.56128-8.94576-7.56128h-15.22841c-7.66778,0-9.05285,1.27796-9.05285,7.56128v20.66039c0,6.28331,1.38506,7.56128,9.05285,7.56128h15.22841c7.56187,0,8.94576-1.27796,8.94576-7.56128Z"/>
  <path class="cls-1" d="M841.13121,333.36109c10.96974,0,15.86857,4.68586,15.86857,15.22905v25.55924c0,10.54319-4.89884,15.22905-15.86857,15.22905h-14.1635c-8.41386,0-13.6316-3.1949-15.65565-9.47822v7.45478c0,1.38446-.63899,2.02344-2.0228,2.02344h-6.6028c-1.49097,0-2.12996-.63898-2.12996-2.02344v-74.76076c0-1.38446.63899-2.02344,2.12996-2.02344h7.98662c1.49097,0,2.12996.63898,2.12996,2.02344v28.00865c2.45004-4.79236,7.45479-7.24179,14.80367-7.24179h13.52451ZM835.91347,379.26123c7.45471,0,8.8386-1.27796,8.8386-7.56128v-20.66039c0-6.28331-1.38389-7.56128-8.8386-7.56128h-11.50171c-8.51969,0-11.60873,3.1949-11.60873,10.43669v14.90956c0,7.24179,3.08903,10.43669,11.60873,10.43669h11.50171Z"/>
  <path class="cls-1" d="M788.08976,348.59014v25.55924c0,10.54319-4.89891,15.22905-15.86865,15.22905h-25.87814c-10.96977,0-15.86865-4.68586-15.86865-15.22905v-25.55924c0-10.54319,4.89887-15.22905,15.86865-15.22905h25.87814c10.96974,0,15.86865,4.68586,15.86865,15.22905ZM775.84197,371.69995v-20.66039c0-6.28331-1.38381-7.56128-8.94569-7.56128h-15.22848c-7.66778,0-9.05285,1.27796-9.05285,7.56128v20.66039c0,6.28331,1.38506,7.56128,9.05285,7.56128h15.22848c7.56187,0,8.94569-1.27796,8.94569-7.56128Z"/>
  <path class="cls-1" d="M722.15312,343.47829h-4.89884c-10.54261,0-14.69658,4.68586-14.69658,13.73809v30.13861c0,1.38446-.63895,2.02344-2.12992,2.02344h-7.98665c-1.49097,0-2.12996-.63898-2.12996-2.02344v-51.97046c0-1.38446.63899-2.02344,2.12996-2.02344h6.38981c1.38385,0,2.12992.63898,2.12992,2.02344v7.98726c1.91696-6.6028,7.24179-10.0107,16.08043-10.0107h5.11183c1.38506,0,2.12996.63898,2.12996,2.02344v6.07032c0,1.38446-.7449,2.02344-2.12996,2.02344Z"/>
  <path class="cls-1" d="M634.15186,389.37843h-25.77226c-10.96977,0-15.86861-4.68586-15.86861-15.22905v-25.55924c0-10.54319,4.89884-15.22905,15.86861-15.22905h25.77226c10.11658,0,14.80245,4.36637,14.80245,14.27058v16.40051c0,1.38446-.7449,2.02344-2.02284,2.02344h-42.27986v5.75083c0,6.28331,1.38506,7.56128,9.05285,7.56128h18.21035c3.51499,0,5.21895-1.06497,5.21895-4.25988v-.1065c0-1.27796.63895-2.02344,2.12992-2.02344h7.66778c1.27794,0,2.02284.74548,2.02284,2.02344v.213c0,10.0107-4.36579,14.16408-14.80245,14.16408ZM604.65162,350.93307v5.32484h32.37503v-8.09376c0-3.62089-1.91693-4.79236-5.53782-4.79236h-17.78436c-7.66778,0-9.05285,1.38446-9.05285,7.56128Z"/>
  <path class="cls-1" d="M566.70505,389.37843h-25.77223c-10.96977,0-15.86865-4.68586-15.86865-15.22905v-25.55924c0-10.54319,4.89887-15.22905,15.86865-15.22905h25.77223c10.11661,0,14.80245,4.36637,14.80245,14.27058v16.40051c0,1.38446-.74486,2.02344-2.02284,2.02344h-42.27986v5.75083c0,6.28331,1.38506,7.56128,9.05285,7.56128h18.21035c3.51502,0,5.21895-1.06497,5.21895-4.25988v-.1065c0-1.27796.63899-2.02344,2.12992-2.02344h7.66778c1.27798,0,2.02284.74548,2.02284,2.02344v.213c0,10.0107-4.36576,14.16408-14.80245,14.16408ZM537.2048,350.93307v5.32484h32.37507v-8.09376c0-3.62089-1.91696-4.79236-5.53786-4.79236h-17.78436c-7.66778,0-9.05285,1.38446-9.05285,7.56128Z"/>
  <path class="cls-1" d="M514.4927,343.47829h-14.05759v29.18014c0,5.53783,1.17089,6.6028,6.06973,6.6028h7.98787c1.38385,0,2.02284.63898,2.02284,2.02344v6.07032c0,1.38446-.63899,2.02344-2.02284,2.02344h-11.39577c-10.54257,0-14.90954-4.15337-14.90954-14.27057v-31.62956h-6.38981c-1.27798,0-2.02284-.63898-2.02284-2.02344v-6.07032c0-1.38446.74486-2.02344,2.02284-2.02344h6.38981v-12.24714c0-1.38446.74607-2.02344,2.02401-2.02344h8.09378c1.38385,0,2.12992.63898,2.12992,2.02344v12.24714h14.05759c1.38385,0,2.02284.63898,2.02284,2.02344v6.07032c0,1.38446-.63899,2.02344-2.02284,2.02344Z"/>
  <path class="cls-1" d="M459.95668,387.35499v-36.31542c0-6.28331-1.38385-7.56128-8.94572-7.56128h-10.11658c-8.51977,0-11.60878,3.1949-11.60878,10.43669v33.44001c0,1.38446-.63897,2.02344-2.12992,2.02344h-7.98667c-1.49095,0-2.12994-.63898-2.12994-2.02344v-51.97046c0-1.38446.63899-2.02344,2.12994-2.02344h6.6028c1.38387,0,2.02284.63898,2.02284,2.02344v7.56127c2.02405-6.28331,7.13588-9.58472,15.65565-9.58472h12.88553c10.96977,0,15.86861,4.68586,15.86861,15.22905v38.76485c0,1.38446-.74607,2.02344-2.02405,2.02344h-8.09374c-1.38385,0-2.12996-.63898-2.12996-2.02344Z"/>
  <path class="cls-1" d="M389.74097,389.37843h-25.77223c-10.96858,0-15.86743-4.68586-15.86743-15.22905v-25.55924c0-10.54319,4.89885-15.22905,15.86743-15.22905h25.77223c10.11781,0,14.80367,4.36637,14.80367,14.27058v16.40051c0,1.38446-.74607,2.02344-2.02403,2.02344h-42.27865v5.75083c0,6.28331,1.38385,7.56128,9.05163,7.56128h18.21155c3.51381,0,5.21774-1.06497,5.21774-4.25988v-.1065c0-1.27796.63899-2.02344,2.12994-2.02344h7.66778c1.27796,0,2.02403.74548,2.02403,2.02344v.213c0,10.0107-4.36697,14.16408-14.80367,14.16408ZM360.24196,350.93307v5.32484h32.37503v-8.09376c0-3.62089-1.91695-4.79236-5.53782-4.79236h-17.78557c-7.66778,0-9.05163,1.38446-9.05163,7.56128Z"/>
  <path class="cls-1" d="M286.86983,387.35499v-36.31542c0-6.28331-1.38506-7.56128-8.94572-7.56128h-4.57998c-8.51975,0-11.60755,3.1949-11.60755,10.43669v33.44001c0,1.38446-.63899,2.02344-2.12994,2.02344h-7.98787c-1.49095,0-2.12993-.63898-2.12993-2.02344v-51.97046c0-1.38446.63898-2.02344,2.12993-2.02344h6.6028c1.38506,0,2.02404.63898,2.02404,2.02344v7.56127c2.02285-6.28331,7.13469-9.58472,15.65444-9.58472h6.17681c8.94574,0,13.8446,3.19491,15.33555,10.1172,1.91695-6.6028,7.1359-10.1172,15.86863-10.1172h7.13469c11.07568,0,15.97454,4.68586,15.97454,15.22905v38.76485c0,1.38446-.74488,2.02344-2.12994,2.02344h-8.09376c-1.27796,0-2.12994-.63898-2.12994-2.02344v-36.31542c0-6.28331-1.27796-7.56128-8.83864-7.56128h-4.47286c-8.51975,0-11.60876,3.1949-11.60876,10.43669v33.44001c0,1.38446-.85197,2.02344-2.12994,2.02344h-8.09376c-1.38385,0-2.02284-.63898-2.02284-2.02344Z"/>
  <path class="cls-2" d="M182.44348,357.46307c-6.73975-1.80599-10.73933-8.73358-8.93346-15.47333,1.80588-6.73975,8.73419-10.73921,15.47393-8.93334,6.74047,1.80611,10.74114,8.73467,8.93502,15.47513l-.43128,1.60997c-1.54811,5.77742,1.88048,11.7161,7.65802,13.26421l1.60492.42996c6.73975,1.80588,10.73945,8.73359,8.93346,15.47333-1.80588,6.73975-8.73419,10.73921-15.47393,8.93334-6.74047-1.80611-10.74114-8.73466-8.93502-15.47513l.4314-1.60997c1.54799-5.77755-1.8806-11.7161-7.65815-13.26421l-1.60491-.42996ZM121.86832,376.03877c0,6.97741,5.65773,12.63377,12.63522,12.63377s12.63522-5.65636,12.63522-12.63377-5.65769-12.63389-12.63522-12.63389-12.63522,5.65637-12.63522,12.63389ZM139.02057,341.98974c-1.80599,6.73975,2.19371,13.66734,8.93346,15.47333l1.60491.42996c5.77755,1.54812,9.20614,7.48667,7.65802,13.26421l-.4314,1.60997c-1.80611,6.74047,2.19468,13.66902,8.93515,15.47513,6.73975,1.80588,13.66806-2.19359,15.47393-8.93334,1.80587-6.73975-2.19372-13.66746-8.93346-15.47333l-1.60491-.42996c-5.77755-1.54811-9.20614-7.48679-7.65815-13.26421l.4314-1.60997c1.80611-6.74047-2.19468-13.66902-8.93503-15.47513-6.73975-1.80587-13.66806,2.19359-15.47393,8.93334Z"/>
</svg>