<svg id="Layer_5" data-name="Layer 5" xmlns="http://www.w3.org/2000/svg" viewBox="0 0 1250 703"><defs><style>.cls-1{fill:#fefefe;}.cls-2{fill:#030303;}</style></defs><title>micro-center-logo</title><path class="cls-1" d="M237.65,429.52a16.3,16.3,0,0,1-6.25-7.58c-1.28-2.84-1.56-4.24-1.72-9.2-.17-5.52-.12-6,1.39-8.92,2.9-5.68,8.7-7.25,13.88-3.73,2.23,1.45,3.18,2.62,5,6.19,2.23,4.34,2.23,4.46,2.23,10.59,0,5.57-.16,6.41-1.39,8.7-2,3.51-4.46,5-8.31,5a8.79,8.79,0,0,1-4.79-1.06Zm241.41-22.46c1.12-5.19,3.8-8.65,7.14-9.2,4.68-.73,7.36,2.06,9,9.47l.33,1.51H478.67Zm195.09-.51c1.22-7.58,7.52-11.31,12.26-7.19a13.2,13.2,0,0,1,3.68,8.2v1.28H673.76Zm67.52.23c.94-5.41,4.23-9.09,8.08-9.09s6.3,2.79,7.58,8.19l.67,3H741.28l.39-2.06ZM896.1,429.52c-4.35-2.67-7.19-7.52-8.08-13.93-1.56-11.1,3.4-18.46,11.54-17.18,4,.67,7.25,3.91,9.59,9.48,1.23,3,1.45,4.3,1.45,9,0,4.91-.17,6-1.45,8.37-1.95,3.79-4.29,5.29-8.25,5.29a8.86,8.86,0,0,1-4.8-1.06Zm-291-3.06c-7.25-3.35-7-14,.39-19.91l2.79-2.17,3.12,2.45a50.86,50.86,0,0,1,10.15,10.6l1.84,2.78-2.23,2C616.27,426.46,609.19,428.41,605.07,426.46Zm5-28c-3.9-4-4.74-8.64-1.95-11.43,4.79-4.74,11.48,1.45,8.92,8.25-.56,1.56-3.74,5.19-4.52,5.19a10.44,10.44,0,0,1-2.45-2Zm-246.38,31a15.32,15.32,0,0,1-6.58-3.62l-1.5-1.39.11-10.21.17-10.2,2.78-1.5c3.63-2,7.64-2.12,10.38-.28,5.85,3.9,8.19,13.94,5,21.29-1.11,2.57-4.62,5.86-6.19,5.86a8.84,8.84,0,0,0-1.78.22A6.29,6.29,0,0,1,363.65,429.52Zm166.43-95.33c-8.59-1.79-15.45-9.76-17.56-20.24a61,61,0,0,1-.23-18.57c1.29-7,5.69-13.83,10.76-16.67,7.7-4.35,17.9-3,23.87,3.18,5.24,5.35,7.75,12.82,7.75,23.25,0,13.43-4.85,23.53-13.22,27.65a19.53,19.53,0,0,1-11.37,1.4Zm540.09-60.11c-1-9.59-10-19.34-20.52-22.13-2.9-.78-2.51-.84,9.14-.84l12.1-.05v13.1c0,7.19-.11,13.1-.22,13.1A13.9,13.9,0,0,1,1070.17,274.08Z"/><path class="cls-2" d="M340,453c0-.73.67-1.17,2.34-1.56a5.75,5.75,0,0,0,3.46-2.07c1.11-1.56,1.17-2.28,1.33-23.3.11-14.11,0-22-.39-22.75a4,4,0,0,0-2.84-1.45c-1.84-.33-2.23-.61-2.23-1.62s.95-1.67,5.85-3.84c8-3.57,8.09-3.52,8.09,1,0,2,.17,3.62.44,3.62a16.77,16.77,0,0,0,2.9-1.45c3.91-2.28,9.26-4.12,11.88-4.12,3.34,0,7.75,2.34,9.87,5.18,3.73,5.08,4.46,13.83,1.61,19.91a21.77,21.77,0,0,1-20.74,12.71c-2.23-.17-4.4-.39-4.85-.5-.72-.17-.83.95-.83,8,0,9.64.33,10.2,5.18,10.81,2.34.28,2.9.5,2.9,1.34,0,1-.67,1.06-12,1.06S340,453.94,340,453Zm27.87-23.53c1.57,0,5.08-3.29,6.19-5.86,3.18-7.35.84-17.39-5-21.29-2.74-1.84-6.75-1.73-10.38.28l-2.78,1.5-.17,10.2-.11,10.21,1.5,1.39c2.62,2.45,7.14,4.35,9,3.79a8.84,8.84,0,0,1,1.78-.22Zm-176.46,4a16.47,16.47,0,0,1-10.93-9.15c-1.11-2.39-1.33-3.84-1.33-8.47,0-5,.16-5.91,1.56-8.75,3-6.14,8-9.82,15.66-11.43,8.65-1.79,17.07,1,17.07,5.68,0,2.29-1.51,3.63-4.13,3.63-1.73,0-2.56-.45-5-2.73-4.46-4.19-6.58-4.86-9.87-3.13-4,2-6.24,7.31-6.3,14.22-.06,6.24,1.17,10,4.35,13.16A9.11,9.11,0,0,0,202,429a21.82,21.82,0,0,0,8.53-5.41c1-1.23,1.06-1.28,1.9-.34s.72,1.23-2.29,4.19c-4.07,4-8.47,6.07-13.43,6.3A24.5,24.5,0,0,1,191.37,433.43Zm43.77-.11a19.13,19.13,0,0,1-13.6-10.49c-.95-2.11-1.18-3.62-1.18-8.69,0-6.86.67-8.87,4.52-13.11,6.86-7.58,22.75-7.91,31.06-.61,2.95,2.62,5.46,8.08,5.85,12.6C262.85,426.68,250.3,436.27,235.14,433.32Zm12.32-4a12.85,12.85,0,0,0,3.29-3.73c1.23-2.29,1.39-3.13,1.39-8.7,0-6.13,0-6.25-2.23-10.59-1.78-3.57-2.73-4.74-5-6.19-5.18-3.52-11-1.95-13.88,3.73-1.51,2.9-1.56,3.4-1.39,8.92.16,5,.44,6.36,1.72,9.2,2.79,6,6.14,8.64,11,8.64a7.87,7.87,0,0,0,5-1.28Zm154.66,4.24a8.93,8.93,0,0,1-5.24-4.8c-1.06-2.23-1.17-3.4-1.17-14,0-6.75-.22-12-.56-12.6a5.05,5.05,0,0,0-2.78-1.67c-1.62-.45-2.23-.9-2.23-1.62,0-.89.89-1.28,4.9-2.17,2.68-.62,5.8-1.29,6.92-1.51l2-.39.23,14.16c.16,15.95.44,17.12,4.18,18.68,2.62,1.06,5.07.61,9.53-1.84l3.46-2V413.3c0-12-.17-12.43-4.29-13.1-3.24-.56-3.52-.73-3.52-1.9,0-.89.5-1.17,2.68-1.45,1.45-.22,4.85-.72,7.58-1.17a26.8,26.8,0,0,1,5.69-.56c.61.23.78,3.57.89,16.62l.17,16.33,2.79.06c2.34.06,2.78.22,2.78,1.12s-1.06,1.39-6.13,2.84c-8.81,2.51-8.64,2.56-8.64-1.56v-3.4L419,428.58C412.21,432.81,406,434.65,402.12,433.54Zm48.45-.22a9.58,9.58,0,0,1-3.29-2c-2.95-3-3.23-4.41-3.51-17.84L443.55,401H441.6c-2.73,0-2.29-1.06,1.78-4.29a17,17,0,0,0,5.3-6.69c1.28-2.68,2.28-4,2.95-4.07.84,0,.95.61.95,5v5l6.69.17,6.64.17-1.06,2.39L463.79,401H452.58V411.8c0,5.85.28,11.65.61,12.82.78,2.84,2.46,4.29,5,4.29,1.73,0,2.51-.39,4.07-2s2.12-1.95,2.85-1.33.72.89,0,2.23c-2.46,4.79-8.81,7.19-14.56,5.52Zm31.84.11a16.27,16.27,0,0,1-11.26-10.26c-1.45-4.18-1.34-11.93.28-16.06,3.73-9.53,13.43-14.05,23.63-11a13.09,13.09,0,0,1,8.26,8.58c.67,2,1.56,3.8,2,4a1.77,1.77,0,0,1,.78,1.62v1.34H478.62l.39,3.18c1.5,12.93,13.82,17.89,22.8,9.19,1.9-1.84,2.12-1.95,3-1.11s.78,1.11-.9,3.18a23.13,23.13,0,0,1-8.64,6.47c-2.51,1-10.26,1.56-12.82.89Zm12.77-26.1c-1.62-7.41-4.3-10.2-9-9.47-3.34.55-6,4-7.14,9.2l-.39,1.78h16.84Zm51.9,21.19c-.5-6.19-.5-6,.67-6,.5,0,1.12.72,1.45,1.67,1.34,4.18,4.8,7,8.59,7,2.62,0,4.35-1.11,5.07-3.29,1-2.84-.89-5.52-7.25-10.42-6.52-5-8.81-8.09-8.81-11.77,0-7.64,7.87-12.15,17.57-10.09l3.34.73.17,5.18c.11,4.63.06,5.13-.84,5.13-.72,0-1.33-.84-2-2.73-1.17-3.4-3.68-5.63-6.25-5.63s-3.57.44-4.51,2.28c-1.29,2.51.05,4.91,4.34,8,8,5.8,9.26,7,10.71,9.87,1.67,3.34,1.78,5.24.61,8.14a11.12,11.12,0,0,1-5.57,5.85c-1.9,1-3.29,1.18-9.59,1.23l-7.31.11-.39-5.24Zm129.46,4.63c-4.4-1.23-7.08-3.51-9.31-7.81-1.84-3.68-2-4.12-2-9.75,0-5.47.11-6.19,1.73-9.54,2.84-5.85,6.36-8.81,12.43-10.37a17.51,17.51,0,0,1,11.88,1,11.92,11.92,0,0,1,6.86,7.8,17.07,17.07,0,0,0,2,4.13,3.61,3.61,0,0,1,1.06,2.06c0,.84-1.22.95-13.66.95H673.92v2.17c0,5.41,3.63,11.49,8,13.49,4.63,2.12,9.65,1.12,14.33-2.84,2-1.62,2.73-2,3.23-1.51a2.14,2.14,0,0,1,.62,1.29c0,1.28-7,7.19-9.76,8.19-3.68,1.34-10.37,1.73-13.83.73Zm13.55-25.59a13.2,13.2,0,0,0-3.68-8.2c-4.74-4.12-11-.39-12.26,7.19l-.39,2.29h16.33Zm54.47,25.76a12.3,12.3,0,0,1-7.3-4.46c-3.57-3.91-4.46-6.58-4.52-13.33,0-5.3.17-6.19,1.62-9.37a18.56,18.56,0,0,1,21.52-10.48c5.47,1.4,8.7,4.41,10,9.31a12.36,12.36,0,0,0,1.67,3.46c2.51,3.18,2.4,3.18-12.54,3.18H741.39v2.23a19.37,19.37,0,0,0,4.07,10.42c4.79,5.47,12.6,5.41,18.73-.11,2.06-1.89,2.34-2,3.12-1.17s.73,1.06-.89,3.12c-4.91,6.08-13.88,9.09-21.86,7.2Zm12.77-27.44c-1.28-5.4-3.84-8.19-7.58-8.19s-7.14,3.68-8.08,9.09l-.39,2.06H758l-.67-3Zm30.61,27.55c-7.08-1.9-11.71-7.7-12.38-15.67a20.09,20.09,0,0,1,11.77-20.35C797,393,810,395.24,810,401.26c0,2.34-1.45,3.68-4,3.68-1.62,0-2.62-.62-5.74-3.35s-4.13-3.34-5.8-3.34c-6.3,0-11,9.14-9.53,18.51,1.33,8.75,6,13.43,12.6,12.49,3.12-.39,4.85-1.29,8.19-4.24,2.4-2.18,2.79-2.29,3.57-1.56s.5,1.17-2.23,4c-4.07,4-8.25,6-13.44,6.24a20.83,20.83,0,0,1-5.63-.22Zm38.47.11c-2-.5-4.85-3.07-5.91-5.41-.89-2-1.06-3.79-1.06-14.66V401h-2.23c-3.06,0-2.9-1.11.56-3.56a19.86,19.86,0,0,0,7-9c.73-1.95,1.18-2.45,2.29-2.45,1.34,0,1.34,0,1.17,5l-.17,5h6.64c6.08,0,6.58.05,6.19,1-.22.5-.67,1.62-.95,2.51-.56,1.5-.56,1.5-6.08,1.5h-5.52v24.42l1.45,1.73a3.79,3.79,0,0,0,3.29,1.73c2.62,0,3.51-.44,5-2.56,1.23-1.84,1.29-1.9,2.23-.84s1,1.17-.16,2.79A12.79,12.79,0,0,1,826.41,433.54Zm67.35-.17c-8.3-1.78-13.71-7.25-15.22-15.44-1.56-8.76,2.73-17.51,10.26-20.8,8.86-4,21.52-1.73,26.82,4.68,3.29,4,4.4,7.2,4.46,12.61,0,4.29-.17,5.12-1.84,8.47-3.24,6.63-9.48,10.48-17.56,10.82a35,35,0,0,1-6.92-.34Zm12.1-4a12.43,12.43,0,0,0,3.29-4.07c1.28-2.4,1.45-3.46,1.45-8.37,0-4.73-.22-6.07-1.45-9-3.07-7.25-7.69-10.48-13.55-9.42-10.76,2-10.42,24.36.5,31,2.46,1.57,7.36,1.45,9.76-.16Zm107.55,4.07c-8.86-1.84-14.11-11.49-11.93-21.86,2.17-10.54,10-16.28,22.3-16.33,6.08,0,9.7,1.33,11.15,4.12s-.11,5.58-3.23,5.58c-2.06,0-3.46-.84-7.19-4.3-2.12-1.95-3-2.39-4.74-2.39-3.13,0-5.91,2.12-7.81,6-1.39,3-1.56,3.74-1.5,9.37,0,5,.22,6.58,1.17,8.7,2.34,5.07,6.35,7.63,11.09,7,3.18-.39,5.3-1.57,8.37-4.35,2.39-2.18,4.12-2.57,4.12-.78,0,1.22-5.8,6.24-9.14,7.86a23.23,23.23,0,0,1-12.66,1.45Zm29.88-5.19a30.3,30.3,0,0,1-.11-5.85c.67-.67,2,.39,2.29,1.89a11.45,11.45,0,0,0,4.79,6c3.63,1.89,8.37.44,9.15-2.79.67-2.68-1.17-5.08-7.53-10.09-6.8-5.36-8.86-8.09-8.86-11.88,0-7.36,8.08-11.93,17.56-10l3.34.73.17,5.18c.17,4.74.06,5.13-.95,5.13-.78,0-1.17-.5-1.39-1.95a9.86,9.86,0,0,0-2.51-4.18c-1.78-1.9-2.45-2.23-4.4-2.23-2.85,0-4.57,1.5-4.57,3.9,0,2.62,1.39,4.18,7.24,8.36a43.62,43.62,0,0,1,6.8,5.69c4.47,5.85,2.9,12.71-3.73,16.22-1.95,1-3.23,1.18-9.59,1.23l-7.3.06-.4-5.47Zm-776.37,3.51c0-.72.5-1.11,1.67-1.33a7.26,7.26,0,0,0,2.79-1.51c1.06-1.06,1.11-1.67,1-13.55L272.22,403l-2.62-.78c-2.12-.62-2.68-1.06-2.68-2s.89-1.45,6.58-3.24a65.59,65.59,0,0,1,7.25-2.06c.44,0,.67,1.12.67,3.63a15.82,15.82,0,0,0,.22,3.62c.11,0,2.06-1.12,4.35-2.51,5-3.12,10.81-5,13.71-4.46a8.49,8.49,0,0,1,6.3,5c.39,1.06.9,1.95,1.12,1.95a36.38,36.38,0,0,0,4.51-2.51c10-6.19,17.12-5.91,20.13.78,1.06,2.29,1.23,3.9,1.4,14.94.22,11.32.33,12.44,1.33,13.55a6.93,6.93,0,0,0,2.74,1.51c1.11.22,1.61.67,1.61,1.33,0,1-.61,1.06-10.31,1.06s-10.32-.05-10.32-1.06c0-.78.56-1.17,2-1.39a4,4,0,0,0,3.07-2.17c1-1.62,1.12-2.85,1.12-12.1,0-8.7-.17-10.59-1-12.27-2-4.07-6.19-4.29-12.26-.72l-3.46,2.06v11.21c0,10.59.06,11.26,1.17,12.49a6.75,6.75,0,0,0,2.79,1.56c1.11.22,1.62.67,1.62,1.33,0,1-.62,1.06-10.32,1.06s-10.31-.05-10.31-1c0-.72.61-1.17,2.12-1.56,3.51-.84,4-2.68,4-13.88,0-13.27-.95-15.89-5.69-15.89-2.45,0-7.8,2.23-10.37,4.35-1.34,1-1.34,1.05-1.11,11.93.16,12.21.39,12.88,4.12,13.6,1.34.22,1.9.67,1.9,1.39,0,1-.56,1.06-10.32,1.06S266.92,432.76,266.92,431.75Zm243.64.06c0-.72.62-1.17,2.12-1.56,3.63-.89,4-2.51,4-15.61V403.43l-2.9-1.06c-2.12-.78-3-1.39-3.12-2.17-.12-1,.66-1.4,6.63-3.29,3.68-1.12,7.08-2,7.53-1.79s.78,1.4.83,4.35c0,3.35.12,3.91.67,3,3.24-5,4.07-6.07,5.47-6.8s2-.72,5.68.39c2.18.67,4.18,1.34,4.41,1.45s-2,6.47-2.73,7.42a16.79,16.79,0,0,1-4.07-1.06c-4.63-1.62-6-1.34-8,1.5-1.45,2.12-1.45,2.23-1.45,12.05,0,5.4.22,10.37.56,10.92.66,1.23,3.4,2.23,6.18,2.23,1.79,0,2.18.17,2.18,1.12s-.39,1.12-12,1.12C511.35,432.81,510.56,432.76,510.56,431.81Zm194.59-.06c0-.72.55-1.11,2-1.33a8.3,8.3,0,0,0,3.35-1.56l1.34-1.23V379.9l-1.23-.83a4.9,4.9,0,0,0-2.45-.89c-1.95,0-3-.62-3-1.73,0-.78,1-1.34,4.9-2.46,2.68-.83,5.58-1.67,6.47-2a11.74,11.74,0,0,1,2.9-.51h1.28l.17,28.16c.17,27.71.17,28.16,1.34,29.27a7,7,0,0,0,3.51,1.51c1.73.22,2.29.55,2.29,1.33,0,1-.62,1.06-11.43,1.06s-11.43-.05-11.43-1.06Zm137.71-.05c0-.84.39-1.12,1.45-1.12a5.24,5.24,0,0,0,3.07-1.61l1.61-1.62v-24l-2.9-1.06c-4.74-1.78-4.12-2.67,3.46-5.24a57.53,57.53,0,0,1,7.36-2.12c.89,0,1,.56,1,4.57v4.58l2.4-3.57a25.19,25.19,0,0,1,3.79-4.63c1.4-1,1.51-1,5.86.22,2.39.73,4.46,1.34,4.57,1.4.39.22-2.51,7.08-3.13,7.3-.39.17-2-.28-3.68-.95-4.18-1.67-5.74-1.34-8,1.62l-1.84,2.45.16,9.93c.17,9.36.23,10,1.4,11.15.83.89,2.12,1.34,4.29,1.5,2.57.23,3.12.45,3.12,1.28,0,1-.61,1.06-12,1.06-11.6,0-12-.05-12-1.11Zm82,.05c0-.72.56-1.17,1.89-1.39,3.74-.72,4-1.34,4.13-14.05.11-7.41-.06-11.71-.45-12.49s-1.61-1.34-3.12-1.73c-2.06-.55-2.51-.83-2.34-1.84s1.28-1.56,6.74-3.29c3.63-1.22,6.92-2,7.36-1.84.62.23.84,1.23.84,3.68,0,1.85.17,3.35.45,3.35a6.87,6.87,0,0,0,2.06-1.17c3.12-2.12,10.42-5.47,12.82-5.86a8.19,8.19,0,0,1,4.91.79c5.13,2.28,6.24,6.35,5.69,20.74-.34,10-.34,10.37.83,11.87a5.14,5.14,0,0,0,3.4,1.84c1.62.28,2.18.61,2.18,1.39,0,1-.62,1.06-11.15,1.06-10.37,0-11.15-.05-11.15-1,0-.72.66-1.17,2.34-1.56a4.28,4.28,0,0,0,3.45-2.45c1-1.73,1.18-3.18,1.34-11.49.22-8.7.11-9.76-.89-12.15-2-4.46-5.91-4.74-12.49-.84l-3.79,2.23v10.54c0,6.52.22,11,.61,11.87a5.16,5.16,0,0,0,4.41,2.62A1,1,0,0,1,946,431.7c0,1.06-.39,1.11-10.59,1.11-10,0-10.59-.05-10.59-1.06Zm49.06-.05c0-.84.39-1.12,1.39-1.12a5.73,5.73,0,0,0,5.25-3.4c.39-1.06.61-6.24.61-13.1,0-12.43-.06-12.66-3.46-13.32s-3.79-.9-3.79-1.84c0-.78,1.62-1.4,7.58-3.07,4.13-1.12,7.81-2,8.09-1.79s.5,7.2.5,16.73c0,9,.17,16.78.33,17.28.45,1.06,3.07,2.51,4.69,2.51a1,1,0,0,1,1.11,1.12c0,1.06-.39,1.11-11.15,1.11S973.88,432.76,973.88,431.7Zm-371.77-.84a12.91,12.91,0,0,1-9-12.49c.06-5.74,3.35-10.09,10-13.27,1.67-.78,3.12-1.5,3.23-1.56a9.92,9.92,0,0,0-1.73-2.73c-2.51-3.18-3.4-5.91-3-9.09.56-4.9,4.63-8,10.65-8,10.93,0,13.77,9.37,4.8,15.72l-3.24,2.29,2.57,2.06a69,69,0,0,1,9.64,10l1.45,1.84,2.51-3.51c4.8-6.75,6.58-9.7,6.91-11.49s.28-1.84-1.95-2.17c-1.34-.22-2.23-.61-2.12-1s2.68-.67,7.25-.78c6.08-.12,7.08,0,7.08.72,0,.5-.5.84-1.22.84a18.09,18.09,0,0,0-3.29.55c-1.73.51-2.62,1.51-7.25,8.42-2.9,4.35-5.58,8.42-6,9.09-.67,1.06-.51,1.62,2.12,6.08,2.17,3.62,3.4,5.13,4.79,5.8,1.84.89,2,.83,4.85-.56,1.9-.95,3.12-1.28,3.46-.95.67.67-.56,1.67-4.13,3.46-3.18,1.56-8,1.73-10,.28-1.23-.84-5.24-6.36-5.75-7.92-.11-.28-1.11.22-2.28,1.11-5.19,4.19-8.09,6-11.38,7-4.12,1.29-5.57,1.34-8.92.28Zm14-5.29a27.68,27.68,0,0,0,5-3.41l2.23-2-1.84-2.78a50.86,50.86,0,0,0-10.15-10.6l-3.12-2.45-2.79,2.17c-7.42,5.91-7.64,16.56-.39,19.91,2.51,1.17,7.8.72,11.09-.89Zm-1.5-26.88c3-3.06,3.73-6.74,2.12-9.92-1.9-3.68-5.91-4.46-8.7-1.73-1.84,1.9-2.12,4.4-.84,7.53.73,1.78,4.41,5.91,5.24,5.91a7.89,7.89,0,0,0,2.18-1.79ZM983.08,383.3c-4.24-1.39-5.41-5.07-2.56-8,4.46-4.4,12.65.56,9.19,5.58a7.83,7.83,0,0,1-2.78,2.06C984.92,383.81,984.75,383.81,983.08,383.3ZM525.45,359.78a52.8,52.8,0,0,1-41.59-38c-1.17-4.3-2.4-15.67-2-18.62.11-.9.34-3.29.56-5.3,2-20.91,18.23-39.14,40.42-45.44,5.8-1.67,16.11-1.39,22.53.5a54.56,54.56,0,0,1,31.16,23c11.6,19.12,10.48,46.66-2.62,64.11-6.63,8.81-16.89,15.56-28.49,18.68-4.46,1.23-15.78,1.79-20,1Zm16-27c8.37-4.12,13.22-14.22,13.22-27.65,0-17.12-7.75-28.16-20.3-28.88-6.52-.39-11.65,1.61-15.94,6.3-4.63,5-6.75,11.76-6.75,21.57,0,10.65,2.73,18.9,8,24.15,6.24,6.24,14.72,8,21.74,4.51Zm117.42,25A61.8,61.8,0,0,1,643,350c-14.27-10.15-21.74-29.72-19.79-51.8s13.94-37.46,35.29-45.38l4-1.51,49.24-.16L760.9,251v25.7H717.24c-37.41,0-44.1.11-46.94.84-13,3.4-19.85,14-19.07,29.55.56,11.37,5,18.34,14.33,22.08,2.73,1.11,4.29,1.28,14.11,1.5l11,.23v27.76l-14.33-.05C665.62,358.61,661.16,358.38,658.87,357.77Zm111.51-52.91V251l29.72.17,29.66.16,2.9,1.51A27.26,27.26,0,0,1,843.42,264c3.56,8,3.51,7.19,3.9,42.54.33,31.22.39,32.45,1.56,36a39.4,39.4,0,0,0,7.3,12.66c1.23,1.45,2.12,2.84,2,3.07s-6.53.44-14.22.44H830l-2.23-2.06c-2.68-2.4-6.08-9.09-7.75-15.22-1.12-4-1.18-5.63-1.18-33.73,0-22.31-.16-29.78-.66-30.28s-3.57-.67-10.32-.67h-9.64l-.12,40.87L798,358.38l-13.77.17-13.83.11ZM878,358.27a35.17,35.17,0,0,1-5.4-2.17,26.07,26.07,0,0,1-11.94-11.66c-3.73-7.3-3.9-8.64-3.73-31.78l.17-20.62,13.55-.17,13.49-.11V307c0,16.83.44,20,3.17,22.08,1.4,1.11,2.12,1.17,17.73,1.17,15.06,0,16.34-.06,17.18-1s.94-3.06.94-19.23V291.76h66.91v25.09H952.14v15.61h37.91v26.2l-55.31-.05c-30.44-.06-56-.23-56.76-.34Z"/><path class="cls-2" d="M1039.56,340.88l-.17-17.79-1.73-2.12c-3.68-4.57-2.67-4.4-22-4.57l-17.23-.17V291.76h21c20.35,0,21.07-.06,22.91-1.17,2.4-1.51,3.51-3.68,3.51-6.92,0-2.12-.33-2.9-1.89-4.63L1042,277l-59.6-.28-59.54-.28-.17-12.65-.11-12.71h61.77c68.08,0,64.79-.17,71.7,3.51,10.65,5.57,16.45,18.17,14.39,31.39a27.8,27.8,0,0,1-14.72,20.29L1052,308.2l3.24,1.12c5,1.84,7.08,3.34,8.53,6.3,1.28,2.56,1.28,2.95,1.45,22.86l.16,20.18h-25.64l-.17-17.78ZM182.73,305.42V252.73h42.82c46.39,0,46.39,0,51.57,3.06,4.74,2.74,7.19,6.36,9,13.39.73,2.84.84,9.42.84,46.1V358.1H259.11V319.35c0-43.32.17-41.53-3.79-42.65-1.34-.39-9.42-.55-24.08-.44l-22,.16-.16,40.87-.11,40.81H182.73Z"/><path class="cls-2" d="M220.64,324.93V291.76h25.65V358.1H220.64Zm76.94-19.51V252.73h29V358.1h-29ZM369,356.77a51.26,51.26,0,0,1-19.74-12c-8.64-8.31-13.16-17.4-15.11-30.39-3.34-22.58,4.13-40.64,21.86-52.69a82.61,82.61,0,0,1,19-8.8l4.91-1.57,37.3-.16c25.2-.11,38.25.05,40.14.44A30.42,30.42,0,0,1,470.87,259c5.46,5.52,7.3,10,7.75,18.85.61,12.21-3.85,21.35-13.44,27.6-3.57,2.28-4.07,2.84-3,2.95a20.93,20.93,0,0,1,4.35,1.67,8.22,8.22,0,0,1,4.63,4.52l1.5,3.07V358.1H447.56V324.21l-1.56-2.9c-2.68-5.13-3.07-5.25-22.69-5.58l-16.73-.28-.16-11.82-.12-11.87h20.47c19.57,0,20.57-.06,22.35-1.12,3.68-2.28,4.35-7.69,1.34-11.26-2.79-3.29-2.06-3.23-37.69-3.23H380.16l-3.74,2c-11,5.74-16.61,14.94-16.61,27.59-.06,12.83,5.29,21.25,16.16,25.48,3.57,1.4,4.63,1.51,14.33,1.73l10.43.23v25H386.68C373.41,358.1,372.35,358,369,356.77Zm327.83-31V293.43H760.9v23.42H724.66v14.49H760.9V358.1H696.78Zm157.79-61.89V251.06H917V276.7H854.57Z"/></svg>