<svg xmlns="http://www.w3.org/2000/svg" viewBox="0 0 1250 703"><defs><style>.cls-1{fill:#737373;}.cls-2{fill:#f25022;}.cls-3{fill:#7fba00;}.cls-4{fill:#00a4ef;}.cls-5{fill:#ffb900;}</style></defs><title>microsoft-logo</title><g id="Layer_7" data-name="Layer 7"><path class="cls-1" d="M478.33,367.73l-6,16.73H472a156.63,156.63,0,0,0-5.66-16.55l-32-80.28H403.05V415.26h20.64V336.81c0-4.85-.11-10.7-.31-17.4-.1-3.39-.49-6.1-.58-8.17h.45c1.05,4.81,2.14,8.47,2.92,10.92l38.38,93.1H479l38.09-93.94a81.86,81.86,0,0,0,2.62-10.08h.46c-.5,9.3-.92,17.79-1,22.92v81.1h22V287.63h-30Z"/><rect class="cls-1" x="561.91" y="323.8" width="21.52" height="91.46"/><path class="cls-1" d="M572.89,284.93a13,13,0,0,0-9.17,3.59,11.88,11.88,0,0,0-3.84,9,11.53,11.53,0,0,0,3.8,8.79,13.1,13.1,0,0,0,9.21,3.51,13.29,13.29,0,0,0,9.25-3.5,11.5,11.5,0,0,0,3.84-8.8,12.11,12.11,0,0,0-3.74-8.88,12.83,12.83,0,0,0-9.35-3.69"/><path class="cls-1" d="M659.59,322.88a60,60,0,0,0-12-1.28c-9.88,0-18.68,2.11-26.17,6.29a42.33,42.33,0,0,0-17.25,17.74c-3.94,7.58-5.93,16.42-5.93,26.28A48.52,48.52,0,0,0,604,395.47a40.46,40.46,0,0,0,16.1,16.29,48,48,0,0,0,23.52,5.71c10.23,0,19-2,25.95-6.07l.29-.17V391.52l-.91.66a40.18,40.18,0,0,1-10.52,5.48,31.78,31.78,0,0,1-10.31,2c-8.44,0-15.22-2.64-20.14-7.85s-7.43-12.53-7.43-21.75,2.6-16.78,7.74-22.32,11.92-8.33,20.18-8.33c7.08,0,14,2.39,20.48,7.12l.91.66V326.42l-.29-.17a36,36,0,0,0-10-3.37"/><path class="cls-1" d="M730.48,322.21a22.08,22.08,0,0,0-14.39,5.16c-3.63,3-6.26,7.13-8.27,12.27h-.23V323.8H686.08v91.46h21.51V368.48c0-8,1.81-14.5,5.36-19.43a16.46,16.46,0,0,1,13.92-7.35,25.37,25.37,0,0,1,6.47.95,16.25,16.25,0,0,1,5,2l.91.65V323.64l-.35-.15a22.31,22.31,0,0,0-8.43-1.28"/><path class="cls-1" d="M788.92,321.6c-15.08,0-27.06,4.41-35.6,13.13s-12.87,20.78-12.87,35.86c0,14.32,4.23,25.84,12.56,34.23s19.68,12.65,33.7,12.65c14.62,0,26.37-4.48,34.9-13.32s12.87-20.77,12.87-35.5c0-14.55-4.06-26.15-12.07-34.49s-19.28-12.56-33.49-12.56M806,392c-4,5.07-10.13,7.64-18.08,7.64s-14.14-2.62-18.53-7.78-6.66-12.59-6.66-22c0-9.69,2.24-17.28,6.66-22.56s10.57-7.91,18.35-7.91c7.55,0,13.57,2.54,17.87,7.56s6.53,12.58,6.53,22.39S810.1,386.92,806,392"/><path class="cls-1" d="M882.19,361.59c-6.78-2.72-11.13-5-12.91-6.71a9.41,9.41,0,0,1-2.61-7.05,7.84,7.84,0,0,1,3.31-6.51c2.24-1.74,5.36-2.62,9.27-2.62a37.68,37.68,0,0,1,11,1.7,35.45,35.45,0,0,1,9.64,4.46l.89.61V325.58l-.35-.15a47.19,47.19,0,0,0-9.78-2.72A59.59,59.59,0,0,0,880,321.6c-10.26,0-18.75,2.62-25.23,7.79a24.91,24.91,0,0,0-9.83,20.3A28.38,28.38,0,0,0,847,361a22.64,22.64,0,0,0,6.51,8.51c2.88,2.38,7.34,4.87,13.24,7.41a96.79,96.79,0,0,1,11,5.13,15,15,0,0,1,4.84,4,8.86,8.86,0,0,1,1.36,5.18c0,6.15-4.6,9.14-14.07,9.14A38.84,38.84,0,0,1,858,398.19,44.9,44.9,0,0,1,845.8,392l-.91-.65v21l.33.15a54.43,54.43,0,0,0,11.55,3.57,62.38,62.38,0,0,0,12.33,1.42c11.14,0,20.1-2.64,26.64-7.84a25.38,25.38,0,0,0,9.92-20.78,23.83,23.83,0,0,0-5.34-15.71c-3.51-4.23-9.61-8.12-18.13-11.55"/><path class="cls-1" d="M963.51,321.6c-15.08,0-27.06,4.41-35.6,13.13s-12.86,20.78-12.86,35.86c0,14.32,4.22,25.84,12.55,34.23s19.68,12.65,33.71,12.65c14.62,0,26.36-4.48,34.9-13.32s12.86-20.77,12.86-35.5c0-14.55-4.06-26.15-12.07-34.49s-19.28-12.56-33.49-12.56M980.62,392c-4,5.07-10.12,7.64-18.08,7.64S948.4,397,944,391.88s-6.65-12.59-6.65-22c0-9.69,2.24-17.28,6.66-22.56s10.56-7.91,18.35-7.91c7.55,0,13.56,2.54,17.87,7.56s6.52,12.58,6.52,22.39-2.07,17.56-6.14,22.66"/><path class="cls-1" d="M1123.79,341.35V323.8H1102V296.52l-.74.22L1080.8,303l-.4.12V323.8h-32.29V312.29c0-5.37,1.2-9.47,3.57-12.2s5.7-4.08,10-4.08a23.28,23.28,0,0,1,9.47,2.15l.8.36V280l-.38-.13a36.65,36.65,0,0,0-12.1-1.63,35.46,35.46,0,0,0-17.16,4.13,29.29,29.29,0,0,0-11.78,11.65,34.65,34.65,0,0,0-4.18,17.08V323.8h-15.17v17.55h15.17v73.92h21.78V341.35h32.29v47c0,19.34,9.12,29.15,27.12,29.15a44.42,44.42,0,0,0,9.25-1,25.37,25.37,0,0,0,6.73-2.13l.29-.17V396.43l-.89.59a15.14,15.14,0,0,1-4.38,1.91,16.49,16.49,0,0,1-4.3.73c-4.22,0-7.34-1.14-9.27-3.38s-3-6.21-3-11.75V341.35Z"/><rect class="cls-2" x="126.21" y="245" width="101.21" height="101.21"/><rect class="cls-3" x="237.96" y="245" width="101.21" height="101.21"/><rect class="cls-4" x="126.21" y="356.79" width="101.21" height="101.21"/><rect class="cls-5" x="237.96" y="356.79" width="101.21" height="101.21"/></g></svg>