<?xml version="1.0" encoding="UTF-8"?>
<svg id="PASTE_LOGO_HERE" xmlns="http://www.w3.org/2000/svg" version="1.1" viewBox="0 0 1250 703">
  <!-- Generator: Adobe Illustrator 29.0.1, SVG Export Plug-In . SVG Version: 2.1.0 Build 192)  -->
  <path d="M211.1,439.3l-42.4-42.4-42.4-42.4c-.8-.8-1.2-1.9-1.2-2.9s.4-2.1,1.2-2.9l42.4-42.4,42.4-42.4c.8-.8,1.9-1.2,2.9-1.2s2.1.4,2.9,1.2l42.4,42.4,42.4,42.4c.8.8,1.2,1.9,1.2,2.9s-.4,2.1-1.2,2.9l-42.4,42.4-42.4,42.4c-.8.8-1.9,1.2-2.9,1.2s-2.1-.4-2.9-1.2"/>
  <path d="M564.4,264.2l-17.1,17.1c-.2.2-.3.5-.3.7v115.7c0,.6.5,1,1,1h17.1c.6,0,1-.5,1-1v-132.8c0-.9-1.1-1.4-1.7-.7"/>
  <path d="M477.5,315.8c-2.5-3.8-5.5-6.6-9.2-8.6-3.7-2-7.9-2.9-12.8-2.9s-9.7,1.1-13.8,3.5c-4.1,2.3-7.6,5.7-10.4,10.3-2.8,4.5-4.9,10.2-6.5,16.9h-2.8c-.1-5.8-1.1-11-3.1-15.6-2-4.6-4.8-8.3-8.5-11-3.7-2.7-8.4-4.1-14.1-4.1s-9.5,1.1-13.4,3.5c-3.8,2.3-7.1,5.7-9.8,10.3s-4.8,10.3-6.3,17.3h-2.2s0-27.7,0-27.7c0-.6-.4-1-1-1h-14.2c-.6,0-1,.5-1,1v90.1c0,.6.5,1,1,1h17.1c.6,0,1-.5,1-1v-42.1c.5-6.5,1.7-12.3,3.5-17.4,1.9-5.2,4.5-9.3,7.7-12.3,3.2-3,7.1-4.5,11.6-4.5s6.9,1.2,9.4,3.5c2.5,2.4,4.3,5.9,5.5,10.5,1.2,4.7,1.8,10.5,1.8,17.6v44.7c0,.6.5,1,1,1h16.9c.6,0,1-.5,1-1v-42.7c.5-6.6,1.7-12.4,3.7-17.4,2-5.1,4.6-9.1,7.9-12,3.2-2.9,7-4.3,11.2-4.3s6.9,1.1,9.4,3.4c2.5,2.2,4.3,5.6,5.5,10.1,1.2,4.5,1.8,10.2,1.8,17v45.9c0,.6.5,1,1,1h17.3c.6,0,1-.5,1-1v-48.4c0-7.3-.6-13.8-1.9-19.4s-3.1-10.3-5.6-14.1"/>
  <path d="M524,304.7l-17.1,17.1c-.2.2-.3.5-.3.7v75.2c0,.6.5,1,1,1h17.1c.6,0,1-.5,1-1v-92.3c0-.9-1.1-1.4-1.7-.7"/>
  <path d="M602.2,334.4c2.1-5.1,5.1-9,9-11.6,3.8-2.7,8.4-4,13.6-4s8.7,1.1,12.2,3.4c3.5,2.2,6.3,5.7,8.2,10.3,1.1,2.6,1.7,5.6,1.9,9.1,0,.6-.4,1.1-1,1.1l-46.2.4c.5-3.1,1.3-6,2.4-8.6M665.1,371.8l-14.9-3.5c-.5-.1-1,.2-1.2.6-.7,1.9-1.5,3.8-2.5,5.6-1.1,2.1-2.6,3.8-4.3,5.3s-4,2.7-6.6,3.5c-2.6.9-5.7,1.3-9.4,1.3-8.8,0-15.5-2.7-20.2-8.1-4.2-4.8-6.5-11.6-7-20.5,0-.6.5-1.1,1-1.1l63.8-.5c.5,0,1-.5,1-1,.4-8.2-.3-15.4-2-21.6-1.8-6.4-4.4-11.8-8-16.1-3.5-4.3-7.9-7.5-13-9.7s-11-3.2-17.5-3.2-13.2,1.2-18.7,3.7c-5.5,2.5-10.1,6-13.8,10.5-3.7,4.5-6.6,9.8-8.6,15.9-2,6.1-3,12.7-3,19.9s1,13.7,3,19.4c2,5.7,5,10.6,8.9,14.7,3.9,4.1,8.7,7.2,14.3,9.4s12.2,3.3,19.5,3.3,10.9-.6,15.3-2c4.4-1.3,8.3-3.2,11.6-5.6,3.3-2.4,6-5.3,8.2-8.7,2-3.1,3.5-6.6,4.6-10.6.2-.6-.2-1.2-.8-1.3"/>
  <path d="M747.5,351.7c-3.5-2-7.4-3.5-11.8-4.7-4.4-1.2-8.9-2.2-13.6-3.2-4.6-.9-8.7-1.9-12.3-2.9-3.6-1-6.4-2.4-8.5-4.1-2.1-1.7-3.1-4-3.1-6.8s1.7-6.6,5-8.7c3.4-2.1,8-3.2,13.9-3.2s8.4.6,11.7,1.9,5.9,3.1,7.9,5.6c1.7,2.2,2.8,4.9,3.2,8,0,.6.7,1,1.3.9l14.3-4.2c.5-.1.8-.7.7-1.2-.8-5-2.8-9.5-5.9-13.3-3.3-4-7.7-7.1-13.2-9.4-5.5-2.2-12-3.4-19.6-3.4s-14.5,1.1-20.1,3.5c-5.6,2.3-9.9,5.5-12.8,9.6-3,4.1-4.4,9-4.4,14.6s1.1,9.1,3.3,12.3c2.2,3.3,5.1,5.9,8.7,7.9s7.6,3.6,11.9,4.9,8.7,2.3,13,3.3c4.8,1,9.1,2,12.7,3s6.4,2.4,8.3,4.1c2,1.7,2.9,3.9,2.9,6.7s-1.8,6.7-5.3,8.9c-3.5,2.1-8.6,3.2-15.1,3.2s-10.3-.7-14.3-2.2c-4-1.5-7-3.6-9.1-6.3-1.9-2.4-2.9-5-3.1-7.9,0-.7-.7-1.1-1.3-.9l-13.6,4.5c-.5.1-.8.6-.7,1.1.4,3.7,1.5,7.1,3.3,10.3,1.9,3.4,4.6,6.4,8.1,8.8,3.5,2.4,7.7,4.3,12.7,5.6,5,1.3,10.6,2,17,2s15-1.1,20.9-3.2,10.5-5.3,13.7-9.5c3.2-4.2,4.9-9.3,4.9-15.3s-1-9.1-3.1-12.3c-2.1-3.2-4.8-5.8-8.3-7.8"/>
  <path d="M824.5,379.4c-1.2.6-2.5,1.1-3.8,1.4-2.3.5-4.6.8-6.8.8-4.1,0-7.3-1-9.4-3-2.1-2-3.2-5.3-3.2-9.9v-47.1h24.3c.6,0,1-.5,1-1v-14.1c0-.6-.5-1-1-1h-24.1v-41.4c0-.9-1.1-1.4-1.7-.7l-17.1,17.1c-.2.2-.3.5-.3.7v24.3h-11.9c-.6,0-1,.5-1,1v13.7c0,.6.5,1,1.1,1h12.2v48c0,10.3,2.2,17.9,6.6,22.9,4.4,5,11.2,7.5,20.3,7.5s5-.2,8-.7c2.8-.4,5.8-1.2,9-2.2.4-.1.7-.5.7-1v-14.4c0-1.5-1.6-2.4-2.9-1.7"/>
  <path d="M907,369.9c-2,4.8-4.9,8.5-8.7,11-3.8,2.5-8.3,3.7-13.7,3.7-8.3,0-14.8-3-19.5-8.9-4.7-5.9-7.1-14.2-7.1-25s1-12.7,3-17.5,4.9-8.4,8.8-10.8c3.8-2.4,8.3-3.6,13.4-3.6s10.5,1.4,14.4,4.1c4,2.7,7,6.6,9.1,11.6,2.1,5,3.2,11,3.2,18s-1,12.5-3,17.4M907.1,308.6c-6.9-3.7-14.7-5.5-23.4-5.5s-16.2,1.8-23,5.3-12.2,8.9-16.2,16c-4,7.1-6,16-6,26.8s1.9,19.4,5.8,26.6c3.8,7.2,9.2,12.7,16,16.5s14.7,5.7,23.6,5.7,16.4-1.8,23.2-5.3c6.8-3.5,12.2-8.9,16.2-16s5.9-16,5.9-26.7-2-19.7-5.9-26.9c-4-7.2-9.4-12.6-16.2-16.3"/>
  <path d="M993.4,304.3c-5.8,0-10.8,1.1-15.2,3.4s-7.9,5.6-10.6,10.2c-2.8,4.5-5,10.4-6.7,17.5.1,0-2,0-2,0v-27.7c0-.6-.4-1-1-1h-14.6c-.6,0-1,.5-1,1v90.1c0,.6.5,1,1,1h17.1c.6,0,1-.5,1-1v-40.8c.2-6.4,1.4-12.3,3.4-17.7s4.9-9.8,8.6-13.2c3.7-3.4,8.2-5,13.6-5s10.7,2.4,13.8,7.2,4.6,12.3,4.6,22.6v47c0,.6.5,1,1,1h17.5c.6,0,1-.5,1-1v-49c0-15-2.7-26.2-8.1-33.5s-13.2-11-23.5-11"/>
  <path d="M1070.2,322.8c3.8-2.7,8.4-4,13.6-4s8.7,1.1,12.2,3.4c3.5,2.2,6.3,5.7,8.2,10.3,1.2,2.9,1.8,6.3,2,10.2l-47.3.4c.5-3.1,1.3-6,2.4-8.6,2.1-5.1,5.1-9,8.9-11.6M1124.2,371.8l-14.9-3.5c-.5-.1-1,.2-1.2.6-.7,1.9-1.5,3.8-2.5,5.6-1.1,2.1-2.6,3.8-4.3,5.3s-3.9,2.7-6.6,3.5c-2.6.9-5.7,1.3-9.4,1.3-8.8,0-15.5-2.7-20.2-8.1-4.3-5-6.7-12.2-7-21.6l64.9-.5c.6,0,1-.5,1-1,.4-8.2-.3-15.4-2-21.6-1.8-6.4-4.4-11.8-8-16.1-3.5-4.3-7.9-7.5-13-9.7s-10.9-3.2-17.4-3.2-13.2,1.2-18.7,3.7c-5.5,2.5-10.1,6-13.8,10.5-3.7,4.5-6.6,9.8-8.6,15.9s-3,12.7-3,19.9,1,13.7,3,19.4c2,5.7,5,10.6,8.9,14.7,3.9,4.1,8.7,7.2,14.3,9.4,5.7,2.2,12.2,3.3,19.5,3.3s10.9-.6,15.3-2,8.3-3.2,11.6-5.6c3.3-2.4,6.1-5.3,8.2-8.7,2-3.1,3.5-6.6,4.6-10.6.2-.6-.2-1.2-.8-1.3"/>
  <path d="M516.5,265.9c-.4-.4-1.1-.4-1.5,0l-13.5,13.5c-.4.4-.4,1.1,0,1.5l13.5,13.5c.4.4,1.1.4,1.5,0l13.5-13.5c.4-.4.4-1.1,0-1.5l-13.5-13.5Z"/>
</svg>