<?xml version="1.0" encoding="UTF-8"?>
<svg id="PASTE_LOGO_HERE" data-name="PASTE LOGO HERE" xmlns="http://www.w3.org/2000/svg" viewBox="0 0 1250 703">
  <defs>
    <style>
      .cls-1 {
        fill: #e50013;
      }

      .cls-2 {
        fill: #004998;
      }
    </style>
  </defs>
  <g>
    <path class="cls-2" d="M148.91,398.09l73.48-125.63h39.11s10.67,1.18,10.67,11.85v50.57l37.13-62.42h37.93s11.85,1.98,11.85,13.04v112.59h-38.72v-83.36l-47.41,82.96h-28.44s-8.3-.79-9.09-9.09c-.79-8.3-.79-77.43-.79-77.43l-51.75,86.91h-33.97Z"/>
    <path class="cls-1" d="M390.78,288.87c16.19,0,29.31-9.38,29.31-20.95s-13.12-20.95-29.31-20.95-29.31,9.38-29.31,20.95,13.12,20.95,29.31,20.95Z"/>
    <path class="cls-2" d="M549.1,341.6l26.07-41.88,3.16,41.88h-29.23ZM611.12,285.9c-1.58-13.43-9.48-13.83-9.48-13.83h-45.83l-68.34,112.2v-82.17h38.71v-22.12c0-6.32-8.69-7.9-8.69-7.9h-82.57c-7.11,0-9.09,3.56-9.09,3.56l-16.99,23.7h-33.58v98.76h35.95v-96.39h39.11v96.39h65.19l12.64-23.31h37.53l13.04-21.73,2.76,45.43h37.93s-6.72-99.16-8.3-112.59"/>
    <path class="cls-2" d="M742.28,272.07h-72.29s-28.84,1.97-43.06,32.39c-14.22,30.42-7.11,66.76,16.99,84.15,10.67,7.51,19.36,9.09,19.36,9.09h60.84l18.17-27.65h-59.65s-33.58-4.35-24.89-46.22c5.13-16.2,14.22-20.54,26.07-21.73h42.27l16.2-30.02Z"/>
    <path class="cls-2" d="M1004.99,384.27l7.51-12.25,73.54-19.23c1.51-5.69,2.33-11.55,2.33-17.55,0-.11-.01-.23-.01-.34l-184.89,49.76-5.93-10.27,126.42-32v-5.14l62.92-16.16c-.92-4.33-2.27-8.56-3.98-12.68l-248.72,68.48c21.79,31.45,67.46,53.11,120.29,53.11,60.42,0,111.48-28.33,128.15-67.25l-77.62,21.5Z"/>
    <path class="cls-2" d="M883.31,323.03l2.37-7.51,118.52-31.6,12.64,16.99-193.48,53.72c1.45,4.93,3.46,9.72,5.95,14.34l56.77-15.52-2.37-4.74,135.9-38.72-.79-5.14,53.5-14.65c-22.64-29.63-66.93-49.75-117.86-49.75-60.05,0-110.87,27.98-127.85,66.52l74.09-20.69s-8.69,10.27-12.25,20.54c-1.19,3.16-6.32,4.35-7.9,4.74-1.39.35-45.64,12.64-59.71,17.73-.17,1.96-.29,3.94-.29,5.93,0,1.51.06,3,.16,4.49l62.6-16.69Z"/>
  </g>
  <g>
    <path class="cls-2" d="M364.73,465.61c-.23-6.19-.45-13.55-.43-21.04h-.2c-1.57,6.54-3.64,13.79-5.48,19.82l-6.02,19.91h-8.64l-5.3-19.73c-1.59-6.02-3.22-13.27-4.44-20h-.15c-.24,6.94-.52,14.83-.81,21.19l-.92,19.38h-10.29l3.15-51.07h14.82l4.8,17.07c1.56,5.85,3.07,12.28,4.17,18.26h.24c1.34-5.91,3.01-12.65,4.67-18.33l5.22-16.99h14.54l2.64,51.07h-10.81l-.77-19.53Z"/>
    <path class="cls-2" d="M396.32,437.76c.01,3.21-2.27,5.76-5.97,5.76s-5.79-2.55-5.78-5.76c-.01-3.29,2.32-5.77,5.88-5.77s5.82,2.47,5.87,5.77ZM384.89,485.14v-37.08h11.11v37.08h-11.11Z"/>
    <path class="cls-2" d="M414.76,443.77h-13.27v-9.7h37.84v9.7h-13.46v41.37h-11.12v-41.37Z"/>
    <path class="cls-2" d="M451.37,472.03l-3.47,13.11h-11.49l15-51.07h14.55l15.31,51.07h-11.98l-3.78-13.11h-14.14ZM463.86,463.43l-3.06-10.85c-.84-3.02-1.72-6.85-2.47-9.83h-.15c-.72,3-1.46,6.88-2.25,9.84l-2.94,10.84h10.88Z"/>
    <path class="cls-2" d="M522.04,483.73c-1.99,1.02-6.65,2.2-12.57,2.2-17.03,0-25.8-11.05-25.8-25.61,0-17.41,12.01-27.05,26.86-27.05,5.78,0,10.17,1.17,12.1,2.26l-2.27,9.13c-2.21-1-5.37-1.92-9.34-1.92-8.77,0-15.65,5.56-15.65,16.9,0,10.24,5.81,16.67,15.71,16.67,3.41,0,7.09-.69,9.29-1.65l1.66,9.06Z"/>
    <path class="cls-2" d="M580.15,483.73c-1.99,1.02-6.65,2.2-12.57,2.2-17.03,0-25.8-11.05-25.8-25.61,0-17.41,12.01-27.05,26.86-27.05,5.78,0,10.17,1.17,12.1,2.26l-2.27,9.13c-2.21-1-5.37-1.92-9.34-1.92-8.77,0-15.65,5.56-15.65,16.9,0,10.24,5.81,16.67,15.71,16.67,3.41,0,7.09-.69,9.29-1.65l1.66,9.06Z"/>
    <path class="cls-2" d="M620.89,466.23c0,13.55-9.24,19.75-18.82,19.75-10.39,0-18.44-7.14-18.44-19.11s7.6-19.64,19.08-19.64,18.18,7.8,18.18,19ZM595.08,466.61c0,6.32,2.58,11.13,7.3,11.13,4.33,0,7.07-4.5,7.07-11.19,0-5.46-2.03-11.09-7.06-11.09-5.3,0-7.32,5.65-7.32,11.15Z"/>
    <path class="cls-2" d="M627.74,459.9c0-4.62-.14-8.52-.29-11.85h9.38l.47,5.02h.23c1.51-2.35,4.69-5.85,10.77-5.85,4.64,0,8.24,2.46,9.78,6.35h.15c1.34-1.96,2.91-3.47,4.64-4.52,1.93-1.21,4.11-1.83,6.77-1.83,6.82,0,12.02,5.01,12.02,16.09v21.82h-10.8v-20.14c0-5.37-1.67-8.49-5.26-8.49-2.58,0-4.36,1.82-5.11,4.02-.27.83-.4,2-.4,2.93v21.68h-10.8v-20.79c0-4.67-1.61-7.84-5.14-7.84-2.85,0-4.54,2.27-5.2,4.13-.33.91-.42,1.96-.42,2.92v21.57h-10.8v-25.24Z"/>
    <path class="cls-2" d="M690.43,460.52c0-4.87-.14-8.98-.29-12.46h9.65l.52,5.19h.15c2.65-3.91,6.71-6.02,11.89-6.02,7.81,0,14.83,7.06,14.83,18.88,0,13.52-8.29,19.87-16.24,19.87-4.27,0-7.68-1.78-9.26-4.23h-.15v18.4h-11.1v-39.62ZM701.54,469.27c0,.87.07,1.67.22,2.4.72,3.08,3.28,5.46,6.49,5.46,4.79,0,7.66-4.19,7.66-10.49,0-5.89-2.54-10.4-7.48-10.4-3.14,0-5.97,2.46-6.64,5.83-.17.66-.25,1.36-.25,2.06v5.13Z"/>
    <path class="cls-2" d="M767.66,473.25c0,4.83.14,8.8.29,11.89h-9.63l-.51-5.23h-.23c-1.39,2.29-4.72,6.07-11.13,6.07-7.25,0-12.54-4.72-12.54-16.11v-21.8h11.12v19.93c0,5.42,1.68,8.68,5.59,8.68,3.02,0,4.8-2.18,5.52-4.06.28-.67.41-1.52.41-2.44v-22.1h11.12v25.2Z"/>
    <path class="cls-2" d="M788.92,437.48v10.57h7.99v8.5h-7.99v13.44c0,4.47,1.07,6.53,4.38,6.53,1.43,0,2.53-.16,3.3-.34l.09,8.76c-1.43.54-4.08.99-7.19.99-3.59,0-6.58-1.29-8.36-3.22-2.06-2.2-3.07-5.73-3.07-10.99v-15.17h-4.74v-8.5h4.74v-7.97l10.86-2.61Z"/>
    <path class="cls-2" d="M814.73,437.76c.01,3.21-2.27,5.76-5.97,5.76s-5.79-2.55-5.78-5.76c-.01-3.29,2.32-5.77,5.88-5.77s5.82,2.47,5.87,5.77ZM803.3,485.14v-37.08h11.11v37.08h-11.11Z"/>
    <path class="cls-2" d="M823.27,459.9c0-4.62-.14-8.52-.29-11.85h9.63l.51,5.14h.23c1.44-2.39,5.08-5.97,11.03-5.97,7.29,0,12.78,5.05,12.78,15.96v21.95h-11.12v-20.55c0-4.78-1.64-8.05-5.64-8.05-3.05,0-4.86,2.22-5.63,4.36-.28.72-.39,1.82-.39,2.85v21.4h-11.11v-25.24Z"/>
    <path class="cls-2" d="M900.08,448.06c-.17,2.39-.3,5.53-.3,11.05v20.64c0,7.12-1.38,12.96-5.43,16.68-3.91,3.52-9.22,4.55-14.47,4.55-4.72,0-9.64-1-12.84-2.85l2.2-8.73c2.24,1.33,6.16,2.78,10.34,2.78,5.25,0,9.26-2.92,9.26-9.76v-2.39h-.15c-2.1,3.04-5.52,4.78-9.64,4.78-8.8,0-15.09-7.43-15.09-18.05,0-11.96,7.42-19.53,16.18-19.53,4.9,0,7.97,2.21,9.78,5.27h.15l.37-4.44h9.64ZM888.68,463.17c0-.74-.07-1.5-.22-2.13-.77-3.05-2.89-5.1-5.97-5.1-4.04,0-7.26,3.83-7.26,10.56,0,5.52,2.63,9.84,7.24,9.84,2.87,0,5.16-1.97,5.89-4.65.24-.88.32-2.1.32-3.05v-5.46Z"/>
  </g>
</svg>