<?xml version="1.0" encoding="UTF-8"?><svg id="LOGOS" xmlns="http://www.w3.org/2000/svg" viewBox="0 0 1250 703"><defs><style>.cls-1,.cls-2{fill:#000;stroke-width:0px;}.cls-2{fill-rule:evenodd;}</style></defs><g id="Layer_7"><path id="msi-corporate_identity-logo-black-cmyk" class="cls-2" d="M944.46662,411.82945l34.43956-94.97234s-25.74581,0-51.48559,5.16479l-32.55724,89.80756h49.60327ZM938.58719,291.20916l-6.60936,18.23667c25.90197-5.16627,51.4841-5.16627,51.4841-5.16627l6.61398-18.23823s-25.74284,0-51.48873,5.16784M759.02262,389.28799c15.48362,2.82497,31.44935,4.30323,47.74712,4.30323h.00611c16.73388,0,28.87839-3.72782,30.18984-15.09641.63966-5.40658-4.47153-9.29972-13.83855-14.46145-10.71522-5.91618-19.7241-8.86659-29.03141-15.09649-9.31194-6.23288-13.32746-16.03295-10.18423-26.41611,3.65902-12.12923,12.17515-19.15636,25.15363-25.79024,15.21895-7.7663,27.26858-10.68921,56.61982-10.68921,18.47697,0,36.55443,1.78744,54.04887,5.16784l-6.30331,17.36438c-15.4913-2.82184-31.44621-4.29399-47.74555-4.29399-16.74156,0-28.89061,3.73393-30.20363,15.09335-.62438,5.4188,4.4731,9.31805,13.85077,14.47367,10.70754,5.90693,19.72566,8.85742,29.03149,15.0903,9.32103,6.2299,13.32739,16.02997,10.19026,26.4223-3.66662,12.10776-12.19191,19.14719-25.16742,25.78413-15.21425,7.76935-27.2685,10.68615-56.61058,10.68615h-.00611c-18.47697,0-36.55443-1.78744-54.0397-5.17395l6.29258-17.36751ZM684.2473,411.82945l28.72843-79.24387c9.58429-26.42073-25.57759-16.76295-33.43258-10.69226-6.17019,4.76229-17.41343,15.62904-21.55596,27.03133l-22.80457,62.9048h-49.60492l28.72537-79.24387c9.57512-26.42073-25.57289-16.76295-33.43258-10.69226-6.17168,4.76229-17.42714,15.62904-21.56505,27.04355l-22.79548,62.89258h-49.61095l45.60922-125.78814c15.79586,0,24.34105,3.6345,31.52276,10.69837,2.61992,2.58012,4.25583,5.92386,5.15256,9.48635,9.30732-5.62847,17.53268-9.84442,23.06783-12.0052,10.31578-4.0431,23.12902-8.18563,38.93256-8.17952,15.78967,0,24.33642,3.6345,31.50897,10.69837,2.63363,2.58012,4.2726,5.92386,5.16627,9.48635,9.30277-5.62847,17.53581-9.84442,23.07097-12.0052,10.30661-4.0431,23.12902-8.18563,38.92331-8.17952,15.79891,0,24.34261,3.6345,31.51971,10.69837,7.16949,7.03175,7.00425,19.89702,4.40885,27.02984l-31.92682,88.05992h-49.6079Z"/><path class="cls-1" d="M455.38917,273.28088c-22.10599-15.23807-62.50302-33.98277-96.00831-40.16519-.90669-.1607-1.36661-.14769-2.16157,0-32.76158,5.9682-72.5021,24.42214-96.00909,40.16519-.69553.43156-1.28473,1.51728-1.28473,2.36277-.12779,48.29261,8.5437,86.40184,20.5413,114.8059,7.67752,18.31087,20.24521,39.39468,36.75109,54.27993,12.20954,11.20413,24.61724,18.77761,40.00143,25.0886.62055.24712,1.57393.23795,2.16157,0,16.30616-6.45939,29.76142-15.39101,40.00527-25.0886,16.70097-14.85469,29.19133-36.92245,36.74796-54.27993,13.51112-32.78681,20.67521-71.18987,20.54365-114.8059-.00306-.88373-.5494-1.89603-1.28857-2.36277ZM431.05197,387.90312c-5.54503,12.74359-17.49444,36.43659-35.35079,52.30586-10.15054,9.60725-22.76108,17.65208-36.57817,23.36855-.25942.09716-.52566.14997-.79268.14997-.27854,0-.55402-.05586-.81259-.16376-13.97708-5.93224-25.60055-13.34431-36.58201-23.3173-13.93344-12.6556-26.50488-31.25801-35.40673-52.377-13.19427-31.3315-19.66823-67.67015-19.81741-109.5416-.00611-.67798.33817-1.30996.91507-1.68409,26.91051-17.54192,63.29351-32.80444,91.16343-37.95011.25253-.04435.50498-.04435.76134,0,11.69305,2.1868,24.10231,5.79301,38.03426,11.09092,20.15636,7.65919,39.27605,17.12258,53.63259,26.73594.55857.37264.89681.99546.89681,1.65737-.13547,41.16064-6.83211,77.62708-20.06312,109.72526Z"/><path class="cls-1" d="M316.69832,377.25983c-3.55184-5.27573-16.04447-23.12526-5.46934-48.88949,15.08427-36.74952,55.19508-26.97546,59.0354-25.47809.12011-4.16698,3.47458-6.59102,7.05776-6.57645,1.2396.00533,1.33981.16524.74528.39709-2.95198,1.15005-4.98419,3.24352-4.83728,6.29415.15835,3.45084,3.71019,5.91696,6.65527,6.45179l-.00995.00157s2.33606.50192,4.03621-.55324c.03824-.01685.05814-.03824.08572-.05665.46517-.27157.87911-.57306,1.46831-.74904,1.22041-.38337,2.46299-.47896,3.7286-.17676.36723.08109,1.02453.65424,1.61216.62055.38949-.02068.95793-.62587,1.49511-.64272,2.32681-.07498,7.44263,1.77051,7.58805,2.97948.10327.86767-1.26099,1.8907-1.95503,2.41409-.82324.62282-1.5831,1.03597-2.53107,1.43846-.22957.09716-.10178.16219-.02217.15302,4.10195-.50498,11.42979-3.14402,10.27214,1.79355-.10789.47434-.25018.87456-.33973,1.1408-.0145.04059-.00917.12858.10178.08956,3.99335-1.38189,5.26116-4.90004,4.708-9.63561-.00768-.06652-.08266-.08948-.11635-.03291-.31905.5364-.91664,1.20818-1.32446,1.4944.00078-.00611.00078-.02147-.00611-.04137-.00917-1.34357.09104-3.32148-.75594-4.25653-.03291-.03675-.08493.00611-.07577.06049.37335,2.44308-.94194,3.64288-2.74082,4.49292-1.42929-2.47145-3.09881-4.8227-4.8495-6.87027-.0467-.05359-.13931-.01222-.14001.06276-.0123.77427-.03447,1.64734-.21813,2.33903-.01371.05665-.07953.07498-.09794.03064-.54627-1.36661-1.66646-2.15545-3.05289-2.34295-.92588-.1285-1.93889.17676-3.03691.00313-1.41174-.21735-3.05525-1.23576-3.15554-2.3261-.18209-1.75829,3.00635-2.58388,4.60778-3.00628.38337.81642.79809,1.98943,1.14393,3.03386.05273.1614.11627.09716.14997.07036,1.49276-1.15694,3.81808-2.87927,6.74937-2.97337.71237-.01841,1.75602.18209,1.99859.68785.5762,1.1806-.3022,2.67955-.78884,3.13179-.87151.81031-.4629.72381-.4155.71159,2.66576-.72538,3.94281-2.51736,5.80829-3.83422.96866,1.26326,1.36653,3.91531,1.27243,5.81981-.00533.09332.114.1415.17598.0742,1.99703-2.15851,1.94579-4.72484,1.74842-8.51307,2.059.6779,3.25802,1.43995,4.49754,2.43548.52182.41926.71002.3634.60597.18358-1.19212-2.046-2.71395-3.67885-4.52661-4.8097-.69474-.43767-1.59837-.67187-2.12866-1.19212-.47896-.47058-1.0735-2.14018-1.70172-2.24807-.81642-.15067-1.86312.76291-2.84025.83178-1.68104.11855-2.60073-1.04599-2.93129-2.71559-4.11268,1.16768-5.70494-1.38259-6.64994-4.46158-.16148-.54862-.16148-1.27243-.41472-1.8708-.31294-.7177-1.93967-1.47677-2.79128-1.80655-1.16838-.4499-2.56782-.64883-3.89768-.43767-1.18985.19282-2.08886.7767-3.48759.85317-3.3674.18977-6.90474-1.45687-9.62942-2.80045-11.26078-5.55043-18.9919-15.08191-20.84429-17.21668-.23263-.26781-.27627-.06503-.20505.11627,4.2389,10.73661,10.93476,16.63061,17.25876,20.72339,0,0-11.5745-2.30385-23.43663-11.79326-.15232-.12168-.34357-.18593-.08109.16062,1.27776,1.68104,5.45477,6.84739,11.4283,11.40542l.12928.07953c-6.14724,2.48218-15.2166,3.47842-22.51992,5.10743-.31913.07036-.42012.20889-.14464.21194,4.00173.05281,9.47334,1.20662,12.76811,1.74458-.03518.00611-.0666.01371-.10256.0199v-.00619c-16.70097.66262-31.15702,5.50914-41.26924,14.8601-.1339.12317-.04215.24023.1339.17214,2.42702-.93654,4.68347-2.03761,7.40666-2.68644-2.49668,2.28168-4.9758,4.61538-7.2766,7.10289v-.00533c-3.33151,3.7018-4.76848,3.40877-6.38754.9182-1.24947-1.39568-1.23725-5.65221.42851-6.55819,2.03989.64656,3.38659-1.1477,3.14864-3.02767-.35203-2.70023-3.39576-4.58788-5.23601-5.81981-.20042-.13539-.31905-.10248-.18515.03675.93881.97407,2.29931,1.94579,2.63058,3.38432.13774.59375.10405,1.73682-.49659,1.90442-.95182.27165-1.50811-.77811-2.43776-.63434-.81102.12936-1.18907,1.55097-1.35431,2.53499-.16908.97556-.27086,2.60229-.21578,3.74082.0268.61216.24947,1.56703-.21578,2.04145-.55395-.27321-.67868-1.00157-.92737-1.5487-.88835-1.95339-2.42859-4.58169-1.78971-7.19088.3956-.15075,1.14621.0474,1.43086-.21116.12779-1.62219-1.02531-3.12568-2.07507-4.15938-1.38338-1.36661-4.05-2.31999-6.2766-1.71167-.101.0275-.13845.12011-.04967.1339,1.58686.24634,4.58248.56695,4.60927,2.14166.01371.61749-.7246,1.47293-.92659,1.97329-1.16462,2.89306.1683,6.59337,1.57009,8.45806.81259,1.08423,1.97556,2.08886,1.28693,4.08972-.89517-.04591-1.73384-.66724-2.57009-1.12325-1.19447-.6634-2.44543-1.28928-3.00941-2.32916-.60746-1.13242-.64961-2.30001-1.42772-3.17152-1.93662-2.18068-6.05925-3.73166-9.19488-2.08964-.10632.05586-.09253.17136.01912.1683,2.54878-.06887,4.87402.17527,5.89017,1.84714.4622.76816.75907,2.0659.85701,3.24572.0344.45757-.09794,1.09113.1408,1.47756.41777.68558,1.69247.5639,2.4347.98629.9993.5769,1.5961,2.1332,2.71324,3.10343.27008.2349.6236.51649.93043.70086,1.7101,1.03072,5.26962,1.77976,6.65065,3.17081,2.07052,2.08737,1.01465,5.62158.22424,7.9201-.88302,2.24039-1.48061,4.73863-1.57087,7.65002-.00306.10327.11095.19666.17065.13845,1.99703-1.94195,4.02391-4.41488,6.7601-5.81816-2.3605,4.77679-4.39044,10.28287-6.00417,16.06891-1.4025,5.00565-3.43549,13.32292-.29766,18.10276.04826.07428.16759.06503.17676-.01144.19588-1.64664.24485-3.44011,1.33676-4.20913,1.93889,4.60927,5.25356,13.8478,15.47978,23.05099.17371.15686.26397.07271.10483-.16446ZM390.92964,284.68928c1.22276.27776,2.66584.24336,3.30621.60448,1.22581.71927,1.23271,2.46534,2.02766,3.87245-4.85491.80342-6.43722-2.70329-8.74569-5.26045,1.24187.44684,2.06441.47904,3.41182.78352Z"/><path class="cls-1" d="M338.7301,334.47707c23.92022,7.03708,44.61768-7.70432,48.98821-13.13002.69858-.86696.11016-1.22965-.89681-.55167-4.36897,2.94124-6.65676,4.63529-11.62723,7.05925-7.44725,3.63144-14.03905,4.69656-20.10206,4.77459-8.16268.10483-14.1225-1.36661-14.83785-1.83641-.85701-.56311.31826-.63661.31826-.63661,10.03881.14691,17.42941-1.26859,23.5055-3.0851,17.12642-5.12036,21.07919-14.42846,21.21693-14.89826.228-.77741-.70548-.41166-1.03369.04435-1.67344,2.15389-4.47083,4.17089-6.83054,5.69656-11.44514,7.39985-27.92963,7.83517-27.92963,7.83517-6.56274.55935-11.84458.04591-15.14389-3.05987-.78273-.73525-1.54713-1.90058-1.92667-2.96569-.01685-.04897-.10021-.04897-.12622-.00078-.52112.96639-1.09496,1.73768-1.94579,2.72162-.90982,1.05211-2.17763,1.58545-3.03002,1.00008-2.68644-1.84628,4.5603-12.10008,10.34712-16.6444.28849-.22644,1.05289-.93959.64123-.77662-18.10966,7.91705-23.68227,22.30727-25.68924,29.53036-1.03299,3.69342-1.64891,7.9201-1.64891,12.19575,0,4.40885.59148,8.58656,1.502,12.40237,1.78203,7.49544,3.94132,12.72525,7.14575,18.57797.19204.35117.26702.15451.31599.08258,1.00619-1.46753,1.42553-3.36434,2.03377-5.11119.68714-1.96569,1.17457-4.54651,2.14166-6.15492,2.27478-3.77679,14.71625-2.81118,11.31665-5.42107-.98629-.75445-1.9175-1.64358-2.79285-2.53577-1.717-1.76056-3.32916-3.85099-4.78752-5.923-2.79206-3.96812-5.15946-8.71435-5.54432-14.83707-.01379-.24336.14307-.28544.23341-.06276,3.30621,8.18712,8.01726,13.60444,15.83636,17.40645,2.42859,1.1799,8.7189,3.0507,12.53243,3.32611.3757.02758.89446-.58301-.90904-1.17144-8.92473-2.91139-16.75143-7.66303-20.54436-15.0957,0,0-1.215-2.13477-1.2671-2.62831-.11095-1.04976,2.58545,1.57236,4.12498,3.04686,2.96115,2.83335,7.40439,5.17701,11.6954,6.4923,5.72868,1.76824,13.66257,1.97948,19.96973.44535.93419-.2273.17747-.7246-.76134-.65502-6.10289.44919-11.68318-.29836-16.12642-2.02531-11.13291-4.32776-14.06577-9.11144-13.47508-9.68301,1.23882-1.19823,13.70543,10.96618,34.93231,1.6428,3.65056-1.60378,9.16503-4.86337,12.10855-7.62095.28081-.26397.28849-1.06206-1.13163-.37648-7.33176,3.53962-12.59213,7.02031-23.00821,7.64156-4.35291.26475-12.24323-.19126-17.85635-3.93897-.83789-.55935-1.37727-.83476-1.22276-1.12552.15153-.28465,1.28928.02985,1.28928.02985Z"/><path class="cls-1" d="M422.99185,370.55857c-.9251.7499-5.04773-1.53945-7.25286-.12317-.00541.00384-.01073.00306-.01457.00768-.00306.00227-.00611.00454-.00917.00768l-.00157.00149c-1.6902,1.53875-1.80953,1.059-1.66873-.08877.1538-1.26021,1.8654-3.57785,2.23577-5.164.35728-1.51274.04207-3.10038-.49205-4.33763-.28308-.6504-1.73149-3.38197,1.24187-3.28176.00995,0,.01457-.00917.02296-.01073.30988-.01912.63739-.11933.97407-.34663,1.99859-1.35885,2.64586-4.5748,2.77443-7.40204.00917-.15992-.0666-.228-.11941-.10483-.47591,1.08956-1.62744,1.79198-2.84095,2.48829-.41855.2356-2.90222.40782-3.37202,1.74912-.83021,2.07891-1.4079,1.09802-1.56476.85012-.72311-1.14777-1.56476-1.74379-2.80969-2.34522-2.90222-1.40179-7.04092-1.92361-10.91791-1.61216-1.82262.14761-6.55435.57918-7.37838.65416-3.39498.09872-1.26326-3.02383,1.56092-3.77295,2.42859-.6435,4.38127.03064,5.56038,1.25794.1216.12701.40398.1614.31826-.2204-.57925-2.58004-4.37743-11.16128-18.62153-11.16128-4.17622,0-3.56641.72616-3.37813.77051,3.43478.81721,5.4854,1.14315,8.49011,2.81956.97407.54556,3.4593,1.78054,3.00557,3.82505-.34279,1.54173-2.35368,3.93749-3.52583,4.57864-1.23725.67641-3.24815.44151-4.63074-.16908-2.98254-1.7713-4.70032-3.73933-5.22598-7.86275-.00917-.06268-.23106-.34201-.30455.07428-1.22041,6.91618,1.43164,10.67079,7.09145,11.88665,1.54102.35728,2.10413,2.56476,1.75602,3.90223-.74144,2.84949-7.08229.39787-8.2346-.42921-2.37656-1.7094-4.08439-3.40798-5.50985-5.61468-.20199-.31223-.47669-.20967-.40555.11243.77286,3.51133,2.47834,6.34774,5.22911,8.38379,4.04075,2.99178,8.66765,3.97345,13.72604,3.72633,5.10281-.24947,7.20851-1.69404,7.7587-2.43164.14456-.19439.23333-.43767-.25637-.36347-3.78595.57385-7.18634.09104-8.23915-2.47983-.36496-.89219-.72695-2.88389.96717-3.4463,2.63363-.87378,12.72141-.72687,15.81489.36802,1.93967.68636,3.32995,2.28481,4.11197,3.77381,1.16297,2.21351,1.5364,6.13423.37029,11.15516-1.36199,5.86643-4.40039,11.60349-5.16016,13.19505-4.18077,8.76175-8.82608,16.87922-19.68359,21.47784-6.03629,2.55638-21.6622,7.38371-34.13117.92886-2.17379-1.12552-4.11503-3.43243-5.164-6.02093-1.18907-6.06387,2.13783-7.77319,10.21479-5.29485,2.55716.78579,4.2183-1.502,6.08142-1.54643.96106-.02139,1.67336.6435,2.57244.42545.59148-.14542,1.11024-1.26326,1.64202-1.97407.52793-.70705,1.1929-1.44614,1.86085-1.83257,2.34138-1.34365,4.74239.2349,6.41732,1.22652.15615.09183.29155-.01606.20129-.14997-1.73157-2.55411-6.42962-4.38816-10.05033-2.6222-.77584.3757-1.4423,1.36967-2.35893,1.90293-1.45836.83484-3.40493.60378-5.28795.4897-.64734-.03596-1.35666.1538-1.86164-.27925.48429-2.42021,2.79582-2.49824,4.49911-3.52888,2.46299-1.4821,4.82584-3.72398,5.08056-7.2567.03675-.46604-.16368-1.14088.21656-1.61984.35125-.45295,1.23647-.51649,2.06895-.42388,1.21508.13085,2.40877.80718,3.36215,1.12779.23255.09567-.33362-.50725-.57463-.70391-3.19455-2.61757-9.03881-1.38189-10.43519,1.47677-.228.44073,1.10492.544,1.21813,1.12936.11933.67022-.8241,1.59916-1.29006,2.11565-1.26632,1.37037-2.4615,2.15005-3.85717,3.09959-.70618.47136-1.31529,1.28317-2.14926,1.19674.42083-1.67492,1.31756-2.33606,2.07663-3.80515.49503-.9725,1.76213-3.52504,1.07271-4.58326-.43078-.64883-2.52731-.29915-2.86242-1.0536-.27392-.60981.23411-1.40022.56625-1.76142.89901-.96028,2.64359-1.54486,4.31389-1.9251.18593-.04286.0941-.114-.15302-.10178-2.84714.13853-7.20694,1.07961-8.30113,3.22895-.79425,1.54329-.09104,3.74466,1.64123,3.94438.66873,2.15162-.58764,6.07147-3.43251,6.40815-3.83641.45452-6.68661-2.046-5.08056-8.70973.01301-.0543.00454-.25402-.14926-.1607-.14997.09183-.30377.25096-.40704.34357-.23028.20199-.4231.43916-.64656.63434-2.63136,2.33135-8.1749,5.90239-13.05582,3.61225-.89673-.41699-1.84095-1.47904-2.17457-2.20513-2.29085-4.97964,2.9635-8.54143,6.9078-7.85201,1.69177.29687,3.24964,1.5295,2.89227,3.27487-.28003,1.36732-1.56163,1.98402-2.79277,1.97485-.62133-.00768-1.65197-.24642-2.29469-.82873-.78814-.71465-.91593-1.48281-.99319-1.21578-1.31529,5.93451,6.81213,5.47161,9.69445,2.67806,2.65589-2.57323,3.7684-6.68363,1.51125-9.92559-1.3207-1.89298-3.54808-2.991-6.5719-2.76064-2.49903.19047-5.96436.96404-7.48932,2.14394-2.15467,1.65651-2.65283,5.08212-3.29328,7.86424-1.19055,5.17011-3.1524,6.07915-3.5824,6.65762-.06049.08337-.00611.1614.13155.14072.54713-.08337,2.00016.07506,3.33073,1.57933,1.3207,1.49276-2.28317.29452-4.39193,1.58764-.01073.00619-.0199.01379-.02985.0199-.04059.02147-.07961.03675-.11941.0597-4.08361,2.27251-5.28639,7.31107-6.02861,12.73058-.04207.30839.09183.44997.21421.22503,1.10719-2.02234,3.44324-3.17238,5.90317-4.30253.84706-.38102,3.79974-1.02907,5.33387-2.14166.60299-.43916.93959-1.07499,1.05743-1.77741.00078-.00462.00235-.00768.00384-.01152.40171-1.60221,1.95268-1.78509,1.89533-.31983-.08728,2.20748-1.69177,3.92989-.71394,6.48391,1.01842,2.67579,2.23428,2.94054,4.66443,4.52058.52942.34506,1.85317,1.41166-1.95879,2.65275-.0398.01301-.07882.0268-.11784.03824-.04897.01606-.08728.03142-.13774.0467-.10867.03369-.19204.07882-.26091.13085-.06582.03291-.12936.04975-.19745.08642-3.45233,1.92291-3.76911,6.7594-4.39271,11.34266-.03753.26169.07725.38337.17903.19055.93575-1.70862,2.91139-2.6819,4.9957-3.63528.71386-.32516,3.21132-.87229,4.50828-1.81337.45522-.33135.72765-.79503.85388-1.31302,0,0,.00306-.00462.00384-.00768,1.08196-3.11949,2.0514-1.69247,2.22581-.78195.19133.98551.40093,1.97329.92964,2.78211,1.26178,1.91593,3.03926,1.15686,5.81746,1.65267.98864.18217,2.10194.97869-.18663,2.14934-.00541.00306-.00078.01073-.00541.01457-.22495.1209-.44911.26929-.671.46823-2.84409,2.55865-2.66584,7.08761-2.26946,11.54692.02374.25402.15529.34506.21421.14307.51344-1.81564,2.17073-3.1593,3.93216-4.51212.60448-.45906,2.84103-1.51266,3.8625-2.68182.39481-.45146.53945-1.00698.51344-1.57777.00149-.00611.01144-.00454.01066-.01073-.14691-2.98559,1.02993-2.03989,1.50584-1.2747.43078.69396,1.5686,2.48829,3.81964,2.84025,2.13477.33284,5.38511-.75594,5.8886-.82332,1.78133-.23411,1.17763,1.46988.21272,2.73009-.0344.04207-.06965.08337-.10178.12928-.0199.02531-.03824.04975-.05735.07271-.01301.01685-.00917.03369-.01763.05054-.0673.10327-.13696.20042-.19666.32054-1.43689,2.91296.6229,6.12201,2.34217,9.5086.09716.19588.22957.22338.21194.04435-.1683-1.58921.71316-3.17152,1.67265-4.78909.33205-.55167,1.76064-2.08886,2.19823-3.32916.12168-.34812.11714-.6978.03369-1.03369-.00227-.0199.00611-.03596-.00227-.05586-.01457-.03369-.02217-.06127-.03596-.0934-.01763-.05281-.03596-.10405-.05814-.15608-1.04216-2.76832.45373-3.07436,1.75296-2.80812,1.78971.36653,4.24353.76824,6.72414.16681,2.1868-.5295,3.82732-1.95958,4.60316-2.57855,1.55246-1.23952,2.40336-3.07671,3.03613-3.29782,1.10029-.38408,1.54635-.13085,1.23647,1.7966-.00306.01144.00541.0199.00384.03212-.06503.38024-.03064.80569.16297,1.27854,1.11181,2.71786,4.60167,4.34147,7.92927,5.20537.18977.05124.29155-.0199.15843-.11557-1.1799-.84087-1.29844-2.13477-1.81878-3.75688-.17676-.5563-.28998-3.55027-.86923-4.58859-.10178-.18217-.23795-.32524-.38714-.44841-.02217-.04286-.06433-.08109-.1339-.11173-.00157-.00227-.00306-.00306-.00541-.00533h-.00071c-.00235-.00078-.00611-.00306-.00768-.00384-.12474-.08031-.26169-.1408-.40476-.18977-2.01082-1.05587-1.7836-1.90755.29609-2.19369,5.88789-.81031,10.09318-3.16165,12.41616-6.52905,1.98332-2.87464,2.38503-6.77546,2.67728-8.12899.26091-1.20818-.22111-4.00863,2.95731-1.45303.00306.00306.00689.00157.00995.00306.29382.28692.69709.50043,1.23647.59375,2.89533.49432,6.0493-2.00776,8.54832-4.3721.14158-.13539.13234-.25856-.01763-.19588-1.33668.55481-2.93584.19901-4.58475-.215-.28998-.0742-1.54032-.86767-2.79668-1.11863-1.21351-.24258-2.43854.0597-2.43854-.18898,0-.45757.98629-1.23114,1.61295-1.8777,3.7011-3.82043,3.93365-8.19786,4.43408-11.25389.10178-.61443.03134-2.18217,3.20756-1.14386.13618.07498.29304.12466.46055.15992.02225.00917.04137.01371.06354.02296.00462.00149.00768-.00768.01144-.00925.18828.03291.3887.04591.61443.0199,2.39803-.28465,4.37594-1.98245,5.79144-4.43024.08109-.13923.04748-.2356-.05814-.15075Z"/></g></svg>