<?xml version="1.0" encoding="UTF-8"?><svg id="LOGOS" xmlns="http://www.w3.org/2000/svg" viewBox="0 0 1250 703"><defs><style>.cls-1{fill:#000;stroke-width:0px;}</style></defs><path class="cls-1" d="M956.16515,245.89834H293.8347c-29.19456,0-52.8347,23.84335-52.8347,53.24112v104.72109c0,29.39778,23.64014,53.24112,52.8347,53.24112h662.33045c29.19454,0,52.8347-23.84334,52.8347-53.24112v-104.72109c.06772-29.39777-23.64016-53.24112-52.8347-53.24112ZM1002.2939,403.86055c0,25.67225-20.72744,46.53518-46.12874,46.53518H293.8347c-25.46904,0-46.12876-20.86293-46.12876-46.53518v-104.72109c0-25.67225,20.72746-46.53518,46.12876-46.53518h662.33045c25.46902,0,46.12874,20.86293,46.12874,46.53518v104.72109Z"/><path class="cls-1" d="M379.11533,373.0403l-24.79166-57.23759c-4.06421-9.27994-10.70242-14.49567-20.11783-14.49567s-15.85042,7.65426-15.85042,15.78267c0,0,11.85394-1.62568,18.15346,12.80226l24.79167,57.23759c4.06421,9.27994,10.70241,14.49567,20.11783,14.49567s15.85041-7.65425,15.85041-15.78267c0,0-11.85394,1.62568-18.15346-12.80226Z"/><path class="cls-1" d="M298.71189,340.93307v59.2697h19.71127v-83.11305s-19.71127,1.21926-19.71127,23.84336Z"/><path class="cls-1" d="M397.26879,385.9103s19.7114-1.21926,19.7114-23.84335v-59.2697h-19.7114v83.11305Z"/><path class="cls-1" d="M437.23351,302.72951v97.54098h101.26651v-18.49214h-81.41964v-21.20162h72.61386v-18.42441h-72.61386v-20.99841h81.41964v-18.42441h-101.26651Z"/><path class="cls-1" d="M645.25321,349.4679c5.28346-3.52231,9.75412-10.22825,9.75412-20.18556,0-22.69183-21.74354-26.48509-38.67774-26.62056h-57.50852v97.54099h63.46939c29.26226,0,38.81318-11.17657,38.81318-27.56887s-10.4992-21.5403-15.85043-23.16599ZM578.66794,321.15392h41.18397c9.14447,0,16.12135,3.18363,16.12135,11.44752s-7.99293,9.95731-13.41188,10.02505h-43.89344v-21.47257ZM622.49366,381.77836h-43.89346v-21.87899h43.62249c8.53486,0,18.28894,1.82889,18.28894,11.10883s-8.8735,10.77016-18.01797,10.77016Z"/><path class="cls-1" d="M698.83304,302.72951h-19.84692v97.54098h19.84692v-97.54098Z"/><path class="cls-1" d="M944.10797,353.39663c-9.68635-7.78973-18.01797-8.67031-33.8684-10.29599l-1.42246-.13547c-1.96438-.13547-29.26231-2.43853-31.36217-2.64174-18.69534-1.76115-17.3406-10.22825-17.3406-10.22825,0-9.34768,18.89858-10.09278,18.89858-10.09278,15.64718-1.55795,46.33195-1.08379,48.22857,12.73452h21.67578c-1.96438-27.29793-35.76502-31.22666-57.4408-31.49761-14.36021.33868-30.07511,1.21926-42.47098,9.34768-13.95376,9.2122-12.59903,27.50114-3.86096,35.76503,3.38684,2.98042,8.60254,7.04462,19.16951,9.009,4.87706.88057,12.86999,2.09983,23.7756,2.84494,0,0,17.47609,1.08378,21.20161,1.35474h.54193c5.82535.47416,18.22117,1.42247,19.23723,10.70242,1.15153,10.22825-16.52775,13.20868-34.61349,13.20868-7.92521,0-15.98591-.33868-24.38525-2.70947-7.04464-2.0321-11.10885-6.16405-11.78622-13.0732h-21.47257c0,29.39777,33.39427,33.93613,56.69571,33.93613,15.91815-.40641,33.12331-1.49021,46.87387-10.29599,15.17306-9.95731,13.61508-29.26229,3.59008-37.93261h.13544Z"/><path class="cls-1" d="M800.70916,354.6159c0,18.08572-11.51526,28.78814-31.02345,28.78814s-30.88796-10.70242-30.88796-28.78814v-51.88639h-19.71143v51.5477c0,28.5172,19.98236,47.41576,50.53168,47.41576s50.73484-18.76309,50.73484-47.41576v-51.5477h-19.71139v51.88639h.06772Z"/></svg>