<svg xmlns="http://www.w3.org/2000/svg" viewBox="0 0 1250 703"><defs><style>.cls-1{fill:#426ab2;fill-rule:evenodd;}</style></defs><title>nec-logo</title><g id="Layer_20" data-name="Layer 20"><path class="cls-1" d="M339,279.89h46.28c10.22,0,22.6,9.68,28.52,15.06l80.71,89.86V279.89H522V423H473.53c-8.08,0-16.69-2.15-26.37-11.84l-80.72-89.86V423H339V279.89Z"/><path class="cls-1" d="M911,424.1a473.44,473.44,0,0,1-99.55,2.15c-19.37-1.62-38.74-5.92-56-15.07-22.06-11.3-29.06-37.13-29.06-60.8.54-21.53,7-44.13,25.83-57,12.91-8.07,26.37-10.77,40.36-13.45,39.28-7,78.56-5.39,116.76-1.08v20.45c-45.19-8.61-92.55-6.46-108.69,14-10.22,12.91-11.3,25.83-11.3,36.59,0,19.37,6.46,48.43,45.74,54.35C861,408,886.25,405.26,911,400.42V424.1Z"/><path class="cls-1" d="M630.11,401.49c3.77.54,65.65.54,87.17,0V423c-43,1.61-83.94,2.69-127.53.54-36.59-1.62-43-19.91-43.58-37.67v-106h169v20.44H605.9v36.59h99.55v19.91H605.9c0,10.77,0,22.6.54,24.76.53,14,7,19.37,23.67,19.9Z"/></g></svg>