<svg id="LOGO" xmlns="http://www.w3.org/2000/svg" viewBox="0 0 1250 703"><title>nemetschek-allplan-logo</title><polygon points="423.84 279.5 407.2 279.5 373.63 380.22 387.79 380.22 414.36 293.95 414.65 293.95 440.92 380.22 457.56 380.22 423.84 279.5" fill="#231f20"/><path d="M468.37,380.22V279.5h16.05v90.21h37.23v10.51Z" fill="#231f20"/><path d="M531.14,380.22V279.5h16.05v90.21h37.23v10.51Z" fill="#231f20"/><path d="M593.91,380.22V279.5h20.72c20.29,0,39,3.06,39,27.73s-18.83,28.62-39,28.62H610v44.37Zm20.72-54c14,0,22.92-2.92,22.92-19,0-15.62-9.34-18.1-22.92-18.1H610v37.08Z" fill="#231f20"/><polygon points="762.22 279.5 745.57 279.5 715.5 369.71 678.57 369.71 678.57 279.5 662.51 279.5 662.51 380.22 726.16 380.22 752.73 293.95 753.01 293.95 779.29 380.22 795.93 380.22 762.22 279.5" fill="#231f20"/><path d="M859.73,380.22l-41.17-82h-.29v82H805V279.5H822.8l40,79.7h.3V279.5h13.28V380.22Z" fill="#231f20"/><path d="M512.42,420.16l7.64-19.89h2.83L531,420.16h-3l-2.32-6H517.4l-2.19,6Zm5.74-8.17h6.74l-2.08-5.51c-.63-1.67-1.1-3-1.41-4.12a25.07,25.07,0,0,1-1.07,3.8Z" fill="#231f20"/><path d="M539.3,420.16V400.27H542l10.45,15.62V400.27H555v19.89h-2.69l-10.45-15.63v15.63Z" fill="#231f20"/><path d="M559.44,420.16V400.27h14.38v2.35H562.07v6.09h11V411h-11v6.77h12.21v2.35Z" fill="#231f20"/><path d="M577.84,420.16V400.27h4l4.71,14.08c.43,1.31.75,2.3,1,2.95.22-.72.58-1.79,1.06-3.19l4.76-13.84h3.54v19.89h-2.54V403.51l-5.78,16.65h-2.37l-5.75-16.93v16.93Z" fill="#231f20"/><path d="M601.12,420.16V400.27H615.5v2.35H603.75v6.09h11V411h-11v6.77H616v2.35Z" fill="#231f20"/><path d="M624.66,420.16V402.62H618.1v-2.35h15.77v2.35h-6.58v17.54Z" fill="#231f20"/><path d="M635.67,413.77l2.48-.22A5.46,5.46,0,0,0,639,416a4.43,4.43,0,0,0,2,1.55,7.61,7.61,0,0,0,3,.59,7.31,7.31,0,0,0,2.66-.45,3.7,3.7,0,0,0,1.71-1.23,2.81,2.81,0,0,0,.57-1.7,2.53,2.53,0,0,0-.55-1.63,4,4,0,0,0-1.79-1.18,34.26,34.26,0,0,0-3.54-1,18.43,18.43,0,0,1-3.84-1.24,5.32,5.32,0,0,1-2.12-1.85,4.51,4.51,0,0,1-.7-2.48,5,5,0,0,1,.86-2.81,5.31,5.31,0,0,1,2.49-2,9.53,9.53,0,0,1,3.65-.68,10,10,0,0,1,3.9.71,5.69,5.69,0,0,1,2.6,2.1,6,6,0,0,1,1,3.13l-2.53.19a4,4,0,0,0-1.37-2.84,5.34,5.34,0,0,0-3.47-1,5.59,5.59,0,0,0-3.48.88,2.6,2.6,0,0,0-1.09,2.11,2.24,2.24,0,0,0,.77,1.76,10.63,10.63,0,0,0,4,1.42,26.05,26.05,0,0,1,4.4,1.27,6.05,6.05,0,0,1,2.57,2,4.92,4.92,0,0,1,.82,2.82,5.36,5.36,0,0,1-.91,3,5.91,5.91,0,0,1-2.61,2.19,9.07,9.07,0,0,1-3.83.78,11.3,11.3,0,0,1-4.52-.79,6.27,6.27,0,0,1-2.87-2.37A6.73,6.73,0,0,1,635.67,413.77Z" fill="#231f20"/><path d="M669.29,413.19l2.63.66a8.85,8.85,0,0,1-3,4.95,8.21,8.21,0,0,1-5.25,1.7,9.45,9.45,0,0,1-5.23-1.31,8.14,8.14,0,0,1-3.07-3.79,13.55,13.55,0,0,1-1-5.33,11.61,11.61,0,0,1,1.19-5.42,8.14,8.14,0,0,1,3.37-3.52,9.91,9.91,0,0,1,4.83-1.2,8.18,8.18,0,0,1,5,1.52,7.89,7.89,0,0,1,2.83,4.28l-2.59.61a6.18,6.18,0,0,0-2-3.17,5.34,5.34,0,0,0-3.31-1,6.47,6.47,0,0,0-3.83,1.1,5.79,5.79,0,0,0-2.16,3,11.81,11.81,0,0,0-.63,3.82,12.2,12.2,0,0,0,.74,4.43,5.49,5.49,0,0,0,2.3,2.83,6.41,6.41,0,0,0,3.38.94,5.66,5.66,0,0,0,3.74-1.28A6.53,6.53,0,0,0,669.29,413.19Z" fill="#231f20"/><path d="M675.24,420.16V400.27h2.64v8.17h10.33v-8.17h2.64v19.89h-2.64v-9.38H677.88v9.38Z" fill="#231f20"/><path d="M695.28,420.16V400.27h14.38v2.35H697.92v6.09h11V411h-11v6.77h12.21v2.35Z" fill="#231f20"/><path d="M713.65,420.16V400.27h2.63v9.86l9.88-9.86h3.57l-8.35,8.06,8.71,11.83h-3.47l-7.08-10.07-3.26,3.18v6.89Z" fill="#231f20"/><path d="M754.2,413.19l2.63.66a8.9,8.9,0,0,1-3,4.95,8.26,8.26,0,0,1-5.26,1.7,9.47,9.47,0,0,1-5.23-1.31,8.26,8.26,0,0,1-3.07-3.79,13.55,13.55,0,0,1-1-5.33,11.74,11.74,0,0,1,1.19-5.42,8.16,8.16,0,0,1,3.38-3.52,9.87,9.87,0,0,1,4.82-1.2,8.16,8.16,0,0,1,5,1.52,7.91,7.91,0,0,1,2.84,4.28l-2.59.61a6.18,6.18,0,0,0-2-3.17,5.38,5.38,0,0,0-3.31-1,6.48,6.48,0,0,0-3.84,1.1,5.9,5.9,0,0,0-2.16,3,11.81,11.81,0,0,0-.63,3.82,12,12,0,0,0,.75,4.43,5.52,5.52,0,0,0,2.29,2.83,6.41,6.41,0,0,0,3.38.94,5.62,5.62,0,0,0,3.74-1.28A6.47,6.47,0,0,0,754.2,413.19Z" fill="#231f20"/><path d="M759.28,410.47q0-5,2.65-7.75a9,9,0,0,1,6.87-2.8,9.49,9.49,0,0,1,5,1.32,8.52,8.52,0,0,1,3.37,3.66,11.84,11.84,0,0,1,1.16,5.34,11.69,11.69,0,0,1-1.22,5.42,8.33,8.33,0,0,1-3.46,3.61,9.86,9.86,0,0,1-4.83,1.23,9.32,9.32,0,0,1-5-1.36,8.65,8.65,0,0,1-3.36-3.7A11.37,11.37,0,0,1,759.28,410.47Zm2.71,0a8,8,0,0,0,1.93,5.67,6.74,6.74,0,0,0,9.74,0,8.46,8.46,0,0,0,1.92-5.93,10.15,10.15,0,0,0-.82-4.24,6.36,6.36,0,0,0-2.4-2.81,6.56,6.56,0,0,0-3.55-1A6.77,6.77,0,0,0,764,404.1Q762,406,762,410.51Z" fill="#231f20"/><path d="M781.61,420.16V400.27h4l4.7,14.08c.44,1.31.75,2.3,1,2.95.23-.72.58-1.79,1.06-3.19L797,400.27h3.54v19.89h-2.53V403.51l-5.78,16.65h-2.38l-5.75-16.93v16.93Z" fill="#231f20"/><path d="M804.83,420.16V400.27h7.51a18.82,18.82,0,0,1,3,.19,6,6,0,0,1,2.45.93,4.92,4.92,0,0,1,1.6,1.92,6.5,6.5,0,0,1-1,7c-1.08,1.17-3,1.75-5.84,1.75h-5.1v8.09Zm2.63-10.43h5.15a5.47,5.47,0,0,0,3.62-1,3.41,3.41,0,0,0,1.07-2.68,3.58,3.58,0,0,0-.63-2.13,3,3,0,0,0-1.66-1.18,12,12,0,0,0-2.46-.17h-5.09Z" fill="#231f20"/><path d="M819.12,420.16l7.64-19.89h2.83l8.14,19.89h-3l-2.33-6H824.1l-2.18,6Zm5.74-8.17h6.74l-2.08-5.51c-.63-1.67-1.1-3-1.41-4.12a25.07,25.07,0,0,1-1.07,3.8Z" fill="#231f20"/><path d="M839.81,420.16V400.27h2.7L853,415.89V400.27h2.53v19.89h-2.7l-10.45-15.63v15.63Z" fill="#231f20"/><path d="M865.5,420.16v-8.42l-7.66-11.47H861l3.92,6c.72,1.12,1.4,2.24,2,3.36.6-1,1.32-2.21,2.17-3.51l3.86-5.85h3.06l-7.93,11.47v8.42Z" fill="#231f20"/></svg>