<?xml version="1.0" encoding="UTF-8"?><svg xmlns="http://www.w3.org/2000/svg" width="1250" height="703" viewBox="0 0 1250 703"><defs><style>.d,.e{fill:#ca0b16;}.f,.e{fill-rule:evenodd;}.f,.g{fill:#656464;}.h{fill:#ea6001;}.i{fill:none;}</style></defs><g id="a"><g><g><path class="g" d="M247.458,421.697s-26.593,7.171-32.157,9.445c0,0,27.463-6.821,30.762-6.994,0,0,.354-.875,1.395-2.451Z"/><path class="h" d="M202.208,301.511s-44.725,44.066-49.361,76.706c0,0-5.558,34.508,30.362,47.8,0,0-18.855-40.504,19-124.505Z"/><path class="d" d="M221.796,283.555s-1.728,1.741-3.949,0c0,0-1.478-8.197,6.916-19.378,0,0,17.778-22.109,56.549-37.267,0,0,19.011-7.45,35.065,1.492,0,0,14.567,5.466,20.495,29.316,0,0,8.643,34.284-5.183,76.769,0,0-12.844,50.184-48.154,92.914,0,0-27.9,38.507-66.671,50.932,0,0-4.444,1.24-1.733-2.734,0,0,27.66-42.235,42.966-74.534,0,0,23.215-39.997,20.01-87.696,0,0-.251-28.319-20.25-34.78,0,0-13.337-5.714-36.06,4.966Z"/><path class="g" d="M296.3,410.332s86.905-17.427,125.374-13.463c0,0,22.71,2.101,28.732,10.958,0,0,6.724,11.423-4.403,20.517,0,0-18.308,18.651-77.168,31.709,0,0-59.099,13.29-86.208,14.685,0,0-55.857,5.596-66.978,3.965,0,0,48.436-9.56,66.281-15.387,0,0,39.859-10.024,53.295-16.786,0,0,14.375-5.364,14.833-16.32,0,0-1.847-6.762-8.806-7.929,0,0-8.805-5.363-51.448-3.264,0,0,3.481-4.775,6.494-8.685Z"/></g><g><path class="e" d="M534.073,360.201h-18.448v-34.763c0-3.641,.786-8.494-.162-11.426-.801-2.472-4.736-3.16-7.509-3.592-3.524-.543-6.973-.65-10.445-.65-6.286,0-16.455-.331-18.276,3.914-1.14,2.659-.328,7.764-.328,11.426v35.091h-18.283v-24.155c0-8.374-.651-16.638,0-24.157,1.14-13.006,16.232-15.816,30.362-16.482,17.36-.819,39.041,.924,42.596,14.197,.916,3.428,.493,7.932,.493,12.407v38.191Z"/><path class="e" d="M627.842,296.713v14.033h-56.303c-2.108,0-6.693-.439-7.504,.492-1.358,1.546,.343,7.978-.328,10.12h64.136v14.037h-63.974c-.281,2.998-.26,7.117,0,10.12,2.222,1.099,5.001,.648,7.51,.648h56.465v14.038h-45.531c-7.54,0-15.071,.783-22.362-.328-6.359-.968-11.83-4.39-13.87-9.63-1.909-4.918-.816-14.295-.816-20.887v-10.936c0-4.221-.406-9.042,.816-12.079,2.051-5.112,8.462-9.126,15.342-9.628,5.511-.408,11.028,0,16.643,0h49.777Z"/><path class="e" d="M654.488,296.877c8.732-.684,17.777-.164,26.931-.164,9.102,0,18.299-.538,23.992,2.613,8.149,4.499,11.428,15.061,11.428,28.728,0,13.026-2.81,23.785-10.934,29.046-5.381,3.485-14.062,3.102-23.501,3.102-9.842,0-17.97,.487-26.771,0-15.945-.884-21.384-14.39-21.384-31.662s4.106-30.4,20.239-31.663Zm-1.145,22.685c-.255,2.319-.333,6.961-.322,9.794,.031,6.089,.358,14.843,4.407,16.482,1.967,.796,5.949,.325,8.816,.325h18.438c2.82,0,6.953,.508,8.982-.325,2.066-.851,3.264-4.304,3.752-7.015,1-5.606,.807-15.457,0-20.403-.52-3.159-1.457-6.453-3.596-7.346-1.967-.825-5.829-.328-8.484-.328h-8.977c-6.198,0-12.75-.69-17.954,.164-4.08,.674-4.606,4.637-5.064,8.651Z"/><path class="e" d="M723.579,296.713h18.115v45.699c1.838,2.812,5.871,3.343,9.789,3.915,8.035,1.177,17.232,1.241,25.954,.164,3.149-.388,8.946-1.195,9.961-3.591,.849-2.006,.157-8.836,.157-11.423v-34.764h18.443c.005,11.803,0,25.077,0,37.377,.005,5.214,.5,10.939-1.14,14.522-.848,1.861-2.685,3.839-4.247,5.062-8.535,6.692-24.221,8.34-40.311,7.834-14.063-.442-30.929-2.18-35.743-12.404-1.764-3.755-1.14-10.335-1.14-16.158v-35.743c-.015-.229-.026-.46,.162-.489Z"/><path class="e" d="M895.16,296.713v14.033h-56.309c-2.212,0-6.74-.388-7.505,.492-1.337,1.538,.209,7.65-.166,9.466,2.551,1.155,5.708,.653,8.649,.653h27.749c6.568,0,12.454-.398,17.137,1.306,4.361,1.585,8.561,4.647,9.956,9.302,.895,2.993,1.025,14.767,0,17.791-1.816,5.36-7.098,8.753-13.223,9.956-6.36,1.248-14.885,.488-22.686,.488h-46.187v-14.038h48.471c5.225,0,10.575,.393,15.508-.486-.088-1.744,1.333-7.887,0-9.63-.785-1.022-5.495-.651-8.321-.651h-26.771c-6.219,0-12.516,.529-17.136-.816-5.028-1.465-10.086-4.968-11.423-10.284-.833-3.297-.708-10.484-.328-14.525,.676-7.132,8.056-12.462,16.159-13.058,5.516-.408,11.028,0,16.647,0h49.778Z"/><path class="e" d="M1073.403,296.713v14.033h-56.314c-2.211,0-6.734-.38-7.504,.492-1.343,1.527,.213,7.656-.161,9.466,2.586,1.155,5.792,.653,8.81,.653h28.238c6.661,0,12.36-.274,17.133,1.631,4.309,1.717,8.165,4.509,9.471,9.305,.598,2.204,.328,5.474,.328,8.16,0,4.894,.12,8.194-1.472,11.098-1.692,3.073-4.788,5.733-8.327,7.179-4.434,1.821-10.825,1.47-17.133,1.47h-55.659v-14.038h48.477c5.225,0,10.57,.393,15.503-.486-.093-1.744,1.333-7.887,0-9.63-.962-1.262-8.987-.651-11.59-.651h-12.073c-8.056,0-16.367,.565-24.157,0-7.172-.523-13.808-4.549-15.67-10.447-.656-2.086-.489-5.089-.489-8.162,0-4.583-.109-8.631,1.306-11.423,2.227-4.379,8.119-8.155,14.853-8.65,5.51-.408,11.028,0,16.648,0h49.783Z"/><g><path class="e" d="M901.806,296.713h18.283v10.281c0,3.156-.807,7.455,.156,10.119,.859,2.379,6.417,3.053,9.961,3.43,8.54,.901,16.524,.752,25.454,0,3.591-.304,9.196-.866,10.127-3.102,.838-2.026,.162-7.876,.157-10.28,0-3.448,.005-6.656,0-10.447h18.449c-.505,8.28,.682,15.53,0,22.524-.385,3.856-2.696,6.943-5.386,8.977-8.155,6.165-22.248,7.181-36.404,7.181-14.452,0-28.961-1.202-36.232-7.342-1.801-1.53-3.356-3.867-4.08-6.206-2.201-7.144,.308-16.432-.65-24.645-.01-.229-.026-.46,.167-.489Z"/><path class="e" d="M934.119,342.572h18.115v17.629h-18.277c.109-5.82-.218-12.076,.162-17.629Z"/></g></g><g><path class="f" d="M545.544,394.718h37.474c.016,1.472,.016,5.35,0,6.83h-15.419v32.396h-6.834v-32.201c-4.741-.458-10.34-.068-15.419-.196,.13-2.209-.26-4.944,.198-6.83Z"/><path class="f" d="M668.311,394.718v6.83c-9.305,1.191-21.072-2.097-28.109,1.171-7.01,3.25-9.524,14.863-3.507,20.884,6.296,6.295,20.411,2.433,31.615,3.516v6.825c-8.727-.341-16.778,.471-23.809,0-10.851-.723-18.152-8.84-18.152-20.101,0-10.468,6.599-18.24,17.179-19.125,8.265-.695,16.175,.518,24.783,0Z"/><g><path class="f" d="M674.17,394.718h6.631v39.226h-6.829v-38.644c-.015-.275-.036-.551,.198-.582Z"/><path class="f" d="M713.79,394.718v39.226h-6.833v-16.198c-7.287-.453-15.42-.062-23.029-.196v-6.83h23.029c.13-5.269-.261-11.059,.192-16.003h6.64Z"/></g><path class="f" d="M752.238,421.845v-27.127h6.833v31.225c0,2.964,.427,7.853-1.951,8.391-3.315,.758-7.281-4.541-8.587-5.851-7.354-7.344-14.082-14.773-21.473-21.668v27.129h-6.837c.005-7.955,0-19.237,0-28.493,0-4.536-1.437-11.788,3.913-10.733,2.69,.533,5.782,4.809,7.411,6.442,6.958,6.95,14.129,14.405,20.692,20.684Z"/><path class="f" d="M783.271,394.911c8.504-.882,19.27-.609,24.397,2.342,4.595,2.644,8.561,7.816,9.175,14.054,1.026,10.487-4.194,17.499-9.95,20.495-5.782,3.002-14.801,2.716-22.648,2.143-10.856-.791-17.908-9.407-17.955-19.906-.036-8.34,3.934-14.228,9.565-17.176,1.905-.994,4.028-1.601,7.417-1.952Zm-8.582,12.88c-5.032,9.415,1.545,18.519,9.752,19.328,12.839,1.252,24.283-.2,25.568-10.348,.943-7.413-3.419-12.764-7.614-14.442-3.549-1.428-13.639-1.183-18.35-.585-4.731,.601-7.864,3.237-9.357,6.047Z"/><path class="f" d="M820.777,394.718h6.635v32.201c8.65,.458,18.153,.068,27.135,.2v6.825h-33.968v-38.644c-.015-.275-.026-.551,.198-.582Z"/><path class="f" d="M873.828,394.911c8.504-.882,19.27-.609,24.397,2.342,4.59,2.644,8.566,7.816,9.18,14.054,1.025,10.487-4.189,17.499-9.961,20.495-5.771,3.002-14.795,2.716-22.633,2.143-10.866-.791-17.912-9.407-17.959-19.906-.037-8.34,3.928-14.228,9.565-17.176,1.904-.994,4.023-1.601,7.411-1.952Zm-8.582,12.88c-5.022,9.415,1.556,18.519,9.758,19.328,12.833,1.252,24.278-.2,25.568-10.348,.942-7.413-3.424-12.764-7.609-14.442-3.55-1.428-13.651-1.183-18.351-.585-4.73,.601-7.868,3.237-9.367,6.047Z"/><path class="f" d="M953.884,394.718v6.83c-9.743,1.077-22.451-2.168-29.081,1.757-6.708,3.97-8.186,15.204-2.144,20.688,5.782,5.242,16.918,2.376,27.129,3.126v-8.399c-5.792-.452-12.428-.062-18.543-.196v-6.239h25.375v21.659c-13.963-1.095-28.025,2.743-36.497-3.312-4.506-3.224-8.201-8.881-8.201-16.789,0-10.359,6.541-18.23,17.178-19.125,8.269-.695,16.17,.518,24.783,0Z"/><path class="f" d="M958.766,394.911c2.935,.266,5.678-1.056,8.395-.192,1.197,.38,2.961,3.471,3.902,4.684,3.613,4.674,7.854,10.08,10.929,14.441,5.22-5.907,9.253-12.994,14.249-19.125h8.197c.286,.986-1.145,2.055-1.952,3.125-5.522,7.336-11.33,15.686-16.981,23.028v13.073h-6.828c-.76-4.757,1.035-8.564,0-12.878-.417-1.733-3.471-4.6-4.876-6.442-5.017-6.547-10.289-13.841-15.035-19.714Z"/><g><path class="f" d="M620.687,394.718c-.12,2.219,.25,4.928-.198,6.83h-26.932v25.37c8.655,.458,18.152,.068,27.13,.2v6.825h-33.957v-39.226h33.957Z"/><path class="f" d="M618.933,410.721v6.636h-22.451c.125-2.212-.255-4.947,.198-6.831,7.354,.128,15.222-.257,22.253,.196Z"/></g></g></g></g><g id="b"><rect class="i" width="1250" height="703"/></g><g id="c"/></svg>