<?xml version="1.0" encoding="utf-8"?>
<!-- Generator: Adobe Illustrator 25.2.1, SVG Export Plug-In . SVG Version: 6.00 Build 0)  -->
<svg version="1.1" id="LOGO" xmlns="http://www.w3.org/2000/svg" xmlns:xlink="http://www.w3.org/1999/xlink" x="0px" y="0px"
	 viewBox="0 0 1250 703" style="enable-background:new 0 0 1250 703;" xml:space="preserve">
<path d="M918.6,304.5h26.2v13.3c6.4-8.6,15.2-15,28.8-15c21.6,0,42.1,16.9,42.1,47.8v0.4c0,30.9-20.2,47.8-42.1,47.8
	c-14,0-22.6-6.4-28.8-13.8v39.7h-26.2V304.5z M989.6,351v-0.3c0-15.4-10.4-25.5-22.6-25.5s-22.4,10.2-22.4,25.5v0.4
	c0,15.4,10.2,25.6,22.4,25.6S989.5,366.5,989.6,351L989.6,351z"/>
<path d="M397.6,275.3h24.5l56.6,75.3v-75.3H505v121.7h-22.7l-58.5-76.9v76.9h-26.3V275.3z"/>
<path d="M517.7,351.3V351c0-26.4,18.8-48.2,45.8-48.2c30.9,0,45,24,45,50.2c0,2.1-0.2,4.5-0.3,6.9h-64.4
	c2.6,11.9,10.9,18.1,22.6,18.1c8.8,0,15.2-2.8,22.4-9.5l15,13.3c-8.6,10.7-21,17.3-37.8,17.3C538.2,399.1,517.7,379.6,517.7,351.3z
	 M583,343.5c-1.5-11.8-8.5-19.7-19.5-19.7s-18,7.8-20,19.7H583z"/>
<path d="M624.9,370.8V327h-11v-22.5h11v-23.6h26.2v23.6h21.8V327h-21.8v39.5c0,6,2.6,9,8.5,9c4.5,0,9-1.1,13-3.3v21.1
	c-5.5,3.3-11.9,5.4-20.7,5.4C635.8,398.6,624.9,392.2,624.9,370.8z"/>
<path d="M810.7,304.5h26.2v13.3c6.4-8.6,15.2-15,28.8-15c21.6,0,42.1,16.9,42.1,47.8v0.4c0,30.9-20.2,47.8-42.1,47.8
	c-14,0-22.6-6.4-28.8-13.8v39.7h-26.2V304.5z M881.6,351v-0.3c0-15.4-10.4-25.5-22.6-25.5s-22.4,10.2-22.4,25.5v0.3
	c0,15.4,10.2,25.6,22.4,25.6S881.6,366.5,881.6,351z"/>
<path d="M729.8,275.3h23.9l50.5,121.7h-27.7l-11.1-27.1h-47.9l-11,27.1h-27.1L729.8,275.3z M757.4,346.5l-16-39.2l-16.1,39.2H757.4z
	"/>
<polygon points="199,275.4 199,397.1 255.8,397.1 255.8,324 288.3,324 288.3,397.1 345.1,397.1 345.1,275.4 "/>
<path d="M1020.5,318c0-2.1,0.4-4.1,1.2-6c1.6-3.6,4.5-6.5,8.2-8c5.7-2.3,12.2-1.1,16.6,3.2c1.4,1.4,2.5,3,3.3,4.8
	c0.8,1.9,1.2,3.9,1.2,6c0,2.1-0.4,4.1-1.2,6c-0.8,1.8-1.9,3.4-3.3,4.8c-4.4,4.3-10.9,5.5-16.6,3.2c-3.7-1.5-6.6-4.4-8.2-8
	C1020.9,322.1,1020.5,320.1,1020.5,318 M1023.3,318c0,1.8,0.3,3.5,1,5.2c0.6,1.5,1.5,2.9,2.7,4.1c1.1,1.2,2.5,2.1,4,2.7
	c1.6,0.7,3.3,1,5,1c3.3,0,6.5-1.3,8.9-3.7c1.1-1.2,2-2.6,2.6-4.1c0.7-1.6,1-3.4,1-5.2c0-1.7-0.3-3.5-1-5.1c-0.6-1.5-1.5-2.9-2.6-4.1
	c-1.1-1.2-2.5-2.1-4-2.7c-1.5-0.7-3.2-1-4.9-1c-5.1,0-9.7,3-11.6,7.8C1023.6,314.5,1023.3,316.3,1023.3,318L1023.3,318z
	 M1029.9,309.2h6.8c1.7-0.1,3.3,0.3,4.7,1.3c1.1,1,1.6,2.4,1.5,3.8c0.1,1.3-0.4,2.6-1.3,3.5c-0.9,0.8-2.1,1.2-3.3,1.3l5.1,7.8h-3
	l-4.8-7.6h-2.9v7.6h-2.8L1029.9,309.2z M1032.6,317.1h2.9c0.6,0,1.2,0,1.7-0.1c0.5,0,1-0.1,1.5-0.3c0.4-0.2,0.8-0.5,1-0.9
	c0.3-0.5,0.4-1.1,0.4-1.6c0-0.5-0.1-1-0.3-1.4c-0.2-0.3-0.5-0.6-0.9-0.8c-0.4-0.2-0.8-0.3-1.3-0.4c-0.5-0.1-0.9-0.1-1.4-0.1h-3.7
	L1032.6,317.1z"/>
</svg>
