<svg id="LOGO" xmlns="http://www.w3.org/2000/svg" viewBox="0 0 1250 703"><defs><style>.cls-1{fill:#231916;}.cls-2{fill:#004fa2;}</style></defs><g id="Layer_4" data-name="Layer 4"><path class="cls-1" d="M862.39019,350.99761H974.66068V362.8667h-44.1838v41.55575c0,7.039-4.41271,11.40971-9.30417,11.40971H892.93417l-2.57188-12.26528h17.779a3.0716,3.0716,0,0,0,3.16448-3.39942V362.8667H862.39019ZM911.49874,319.016l-2.9401-7.57371h18.98l2.93828,7.57371h36.41368c4.2217,0,7.67542,4.248,7.67542,9.58821v14.29894H955.586V332.29463a2.22593,2.22593,0,0,0-1.918-2.42812h-72.2032v13.03664H862.48661V319.016Z"/><path class="cls-1" d="M1011.098,415.831V395.14525H989.57067l-.45937-74.42973H1011.098V311.5639h13.33476v9.15162H1046.302v63.5056c0,6.06954-3.836,10.92413-8.63452,10.92413h-13.2347V415.831Zm-9.99317-65.70056h9.99317V331.687h-9.99317Zm9.99317,34.04335V361.10367h-9.99317l.07544,23.07016Zm13.33476-34.04335h9.87911V331.687h-9.87911Zm9.87739,31.00855V361.10367h-9.87739v23.07016h7.38266c1.53575,0,2.49473-.9713,2.49473-3.0348m23.34195,34.571,10.875-58.18992h-5.3122s-3.86056-.50844-6.0835,2.10732a13.956,13.956,0,0,0-2.71217,6.37456l-9.718,49.708Zm16.91121-73.92128s22.52485-14.774,26.80263-17.3898c3.7466-2.28966,5.51027-5.85392,3.7466-9.41813-1.52355-3.07861-7.27394-2.56841-7.27394-2.56841h-47.81645v10.85222h31.30319l-29.45006,18.76606v10.24565h41.62412V399.6632c0,4.41276-6.88647,3.73252-6.88647,3.73252l-2.68938,12.31435h14.08508a9.59857,9.59857,0,0,0,9.497-9.71084V341.78879Zm3.5923,73.92128,10.77849-58.18992H1075.9834l-10.7786,58.18992Z"/><path class="cls-2" d="M249.94358,287.16784h16.74466a7.29972,7.29972,0,0,1,5.14909,1.96184,6.26724,6.26724,0,0,1,2.11436,4.77391V415.36776H255.2259c-3.55546,0-6.14139-1.79529-8.275-4.09373l-80.4484-92.78375v96.87748H149.75783a7.29678,7.29678,0,0,1-5.1491-1.96185,6.17528,6.17528,0,0,1-2.11436-4.68975V287.16784h18.72577c3.55372,0,6.61478,2.39136,8.96929,5.18593l79.75415,91.69159Z"/><path class="cls-2" d="M437.13513,293.38006v25.5895h50.93v10.91359a6.69547,6.69547,0,0,1-6.73575,6.73575H437.13513v61.18437h34.92695a6.496,6.496,0,0,1,4.7739,1.9618,6.39707,6.39707,0,0,1,1.9618,4.688v10.91359H435.00326a20.08238,20.08238,0,0,1-20.12134-20.12128V308.99747Z"/><path class="cls-2" d="M525.17606,293.38006v25.5895h50.93v10.91359a6.69547,6.69547,0,0,1-6.73575,6.73575H525.17606v61.18437H560.103a6.496,6.496,0,0,1,4.77391,1.9618,6.39706,6.39706,0,0,1,1.96179,4.688v10.91359H523.04418a20.0824,20.0824,0,0,1-20.12134-20.12128V308.99747Z"/><path class="cls-2" d="M701.80691,310.6926l-23.76965,12.253V293.64811h16.57458a7.1921,7.1921,0,0,1,5.10177,1.9618,6.28713,6.28713,0,0,1,2.0933,4.774Zm-23.76965,22.27066,23.76965-12.35292v94.75613H685.23229a7.024,7.024,0,0,1-5.1-2.046,6.19827,6.19827,0,0,1-2.095-4.6898Z"/><path class="cls-2" d="M399.526,358.55891c0-8.29954-3.00676-22.14621-12.9017-30.15827-11.67975-9.45489-26.39418-9.43038-34.692-9.43038H302.85011c-5.07722,0-6.78832.60661-8.95351,2.83491-2.94536,3.02949-2.23883,6.59547-2.23883,38.94351,0,47.7585-.55049,51.01063,1.7672,52.94267,2.8279,2.35451,5.18243,1.676,36.08932,1.676h66.25809V404.4538a6.69538,6.69538,0,0,0-6.7357-6.7357H318.606c-2.56317,0-4.03584.42251-4.03584-5.23152v-51.363c0-3.29776-.10695-4.58986,3.25742-4.58986h34.07662c3.06984,0,13.46274-.06313,18.6995,4.58986,4.241,3.7711,6.66909,8.65544,6.66909,11.7814v8.04888H338.03124L322.7803,377.49334H399.526Z"/><path class="cls-2" d="M774.97316,349.75527l-25.849-26.78337a9.25967,9.25967,0,0,0-7.62808-3.52391h-24.059L759.62226,364.219Z"/><path class="cls-2" d="M837.51753,319.44852H811.14261l-94.55278,92.07029c-1.243,1.15711-1.36748,1.98812-1.01859,2.77177a2.03536,2.03536,0,0,0,1.8794,1.07643h23.83278l35.67032-35.72114,30.46506,32.29545a9.66058,9.66058,0,0,0,7.73332,3.42569h23.46639l-45.74417-48.79812,46.2105-43.891a1.57505,1.57505,0,0,0,.31385-2.05473,1.88888,1.88888,0,0,0-1.88116-1.17466"/><path class="cls-2" d="M610.43585,415.36717H594.91839a6.49291,6.49291,0,0,1-4.77567-1.96179,6.3897,6.3897,0,0,1-1.96008-4.688V347.10693q0-12.10751,8.01383-20.12129,8.01292-8.01292,20.12305-8.01554h46.60664v10.91358a6.84069,6.84069,0,0,1-6.7357,6.7357H620.49735a9.64005,9.64005,0,0,0-10.0615,10.06156Z"/></g></svg>