<?xml version="1.0" encoding="UTF-8"?><svg id="PASTE_LOGO_HERE" xmlns="http://www.w3.org/2000/svg" xmlns:xlink="http://www.w3.org/1999/xlink" viewBox="0 0 1250 703"><defs><style>.cls-1{fill:#ef0000;}.cls-1,.cls-2,.cls-3,.cls-4,.cls-5{stroke-width:0px;}.cls-3{fill:none;}.cls-4,.cls-5{fill:#fff;}.cls-5{fill-rule:evenodd;}.cls-6{clip-path:url(#clippath);}</style><clipPath id="clippath"><rect class="cls-3" x="282.42423" y="229.90899" width="240.26595" height="242.49253"/></clipPath></defs><path class="cls-2" d="m541.80668,394.38981h18.38155v-36.32973h.18218l20.65602,36.32973h19.65556v-64.1374h-18.38155v36.0605h-.18157l-21.29394-36.0605h-19.01826v64.1374Z"/><path class="cls-2" d="m607.63407,394.38981h51.59559v-16.05673h-32.57733v-10.04666h26.48019v-14.08383h-26.48019v-8.70113h31.66705v-15.24905h-50.68531v64.1374Z"/><path class="cls-2" d="m693.23705,395.55564c19.47338,0,29.02762-9.86695,29.02762-25.65509v-39.64814h-19.01826v40.36567c0,5.83102-3.27553,9.95712-9.7364,9.95712-7.00679,0-10.28293-3.6778-10.28293-9.59773v-40.72506h-19.01823v39.64814c0,16.05674,9.46342,25.65509,29.02821,25.65509Z"/><path class="cls-2" d="m729.16885,394.38981h19.01826v-22.33605h8.82674c5.55059,0,7.73486,2.51135,8.91749,7.44515,1.36478,5.74085.63733,13.63492,2.45727,14.8909h18.7453v-.98675c-2.36586-.62799-.91028-9.86758-2.63882-17.58196-1.09183-5.02332-3.82206-8.61158-9.09969-10.5851v-.26862c6.82463-3.05042,10.64664-8.25282,10.64664-15.60843,0-13.09646-11.28396-19.10654-24.56947-19.10654h-32.30371v64.1374Zm19.01826-49.42619h10.46448c5.4598,0,8.19003,2.69105,8.19003,6.90668,0,4.48549-3.00319,6.81777-8.46298,6.81777h-10.19152v-13.72446Z"/><path class="cls-2" d="m789.15158,394.38981h18.92746l3.18473-9.41928h22.02145l3.18473,9.41928h20.2015l-24.11435-64.1374h-19.38263l-24.02289,64.1374Zm30.66597-34.89468c1.09183-3.13935,2.45661-8.25221,2.45661-8.25221h.18221s1.4562,5.11286,2.45723,8.25221l4.0944,12.55863h-13.46766l4.27722-12.55863Z"/><path class="cls-2" d="m860.70925,394.38981h46.86074v-16.05673h-27.84248v-48.08067h-19.01826v64.1374Z"/><path class="cls-2" d="m572.1997,472.40276c9.46404,0,16.37944-2.33166,21.93065-7.62421,4.64093-4.39532,7.91645-10.67463,8.46237-17.76102h-19.20044c-.63669,5.74087-4.64031,10.04665-11.28335,10.04665-8.46298,0-13.55844-7.53529-13.55844-18.03025,0-10.49557,4.36797-18.03025,13.37625-18.03025,6.18792,0,10.46509,4.48487,10.91962,9.5082h19.01887c-.81949-8.16268-4.73234-15.33921-11.46615-19.91362-4.73172-3.2295-11.10119-5.02332-18.19939-5.02332-19.56417,0-32.94106,14.26229-32.94106,33.45899s13.10394,33.36883,32.94106,33.36883Z"/><path class="cls-2" d="m638.05882,472.40276c20.20147,0,33.12322-14.17276,33.12322-33.36883s-12.92175-33.45899-33.12322-33.45899-32.94045,14.26229-32.94045,33.45899,12.73957,33.36883,32.94045,33.36883Zm.09139-14.97981c-9.09969,0-13.74062-7.89406-13.74062-18.38902,0-10.49557,4.64093-18.47855,13.74062-18.47855s13.74062,7.98297,13.74062,18.47855c0,10.49496-4.64093,18.38902-13.74062,18.38902Z"/><path class="cls-2" d="m675.08245,470.87818h18.38093v-36.32973h.18216l20.65666,36.32973h19.65497v-64.13741h-18.38098v36.0605h-.18216l-21.29332-36.0605h-19.01826v64.13741Z"/><path class="cls-2" d="m771.30223,472.40276c9.46406,0,16.37944-2.33166,21.93065-7.62421,4.64093-4.39532,7.91645-10.67463,8.46237-17.76102h-19.1998c-.63733,5.74087-4.64093,10.04665-11.28396,10.04665-8.46303,0-13.55846-7.53529-13.55846-18.03025,0-10.49557,4.36797-18.03025,13.37625-18.03025,6.18792,0,10.46509,4.48487,10.91964,9.5082h19.01887c-.81949-8.16268-4.73234-15.33921-11.46556-19.91362-4.73234-3.2295-11.1018-5.02332-18.2-5.02332-19.56417,0-32.94042,14.26229-32.94042,33.45899s13.1033,33.36883,32.94042,33.36883Z"/><path class="cls-2" d="m806.31383,470.87818h51.59493v-16.05674h-32.57672v-10.04665h26.48021v-14.08322h-26.48021v-8.70113h31.66705v-15.24967h-50.68526v64.13741Z"/><path class="cls-2" d="m863.7982,470.87818h19.01826v-19.55547h14.37795c13.10519,0,22.38207-9.32851,22.38207-21.70745,0-7.08698-2.6363-12.91738-7.27476-16.95395-4.27784-3.76734-10.28478-5.92055-18.56561-5.92055h-29.9379v64.13741Zm19.01826-48.61852h10.10077c4.91388,0,7.73486,2.78059,7.73486,7.08639,0,4.39532-2.91177,7.44514-7.5527,7.44514h-10.28293v-14.53153Z"/><path class="cls-2" d="m922.3123,422.70796h18.3797v48.17022h19.02011v-48.17022h18.65327v-15.96719h-56.05308v15.96719Z"/><g class="cls-6"><path class="cls-4" d="m284.53961,229.90899h233.19938v233.22062h-233.90605l.70667-233.22062Z"/><path class="cls-1" d="m282.42423,229.90899h240.26595v242.49253h-240.26595v-242.49253Z"/><path class="cls-4" d="m442.31013,308.5145c.11255-1.49786,2.29871-1.49786,2.41125,0l1.15402,70.43725c.06964.93203,1.11734,1.43879,1.88585.91276l48.40399-23.67535c1.23547-.84624,2.59902.87173,1.50344,1.8933l-46.5225,26.04681c-.68147.63608-.42281,1.77455.46571,2.05061l50.06786,22.68052c1.42823.4427.94199,2.58472-.53659,2.36088l-50.73938-19.72398c-.9196-.13865-1.64459.77474-1.30511,1.64461l20.6585,44.89219c.54591,1.39839-1.4245,2.35094-2.17248,1.05082l-23.37752-43.57653c-.46509-.80893-1.62781-.80893-2.09352,0l-15.43932,25.71229c-.748,1.30075-2.7184.34756-2.17248-1.0508l12.72028-27.02796c.3395-.86987-.38549-1.78326-1.30511-1.64461l-56.84335,12.47033c-1.47858.22322-1.96481-1.91817-.53659-2.3615l56.17184-15.42626c.88852-.27606,1.14717-1.41453.46571-2.05061l-28.05701-25.76452c-1.09556-1.0222.26737-2.73954,1.50284-1.89393l29.93912,23.39369c.76913.52603,1.8162.01927,1.88647-.91276l1.86408-70.43725Z"/><path class="cls-5" d="m408.61424,356.47082l29.93913,23.39369c.76851.52664,1.8162.0199,1.88584-.91214l1.86471-70.43786c.11192-1.49786,2.2987-1.49786,2.41063,0l1.15401,70.43786c.06964.93204,1.11734,1.43879,1.88585.91214l48.40462-23.67535c1.23547-.84562,2.5984.87173,1.50283,1.89393l-46.52251,26.04618c-.68147.63608-.4228,1.77455.46634,2.05061l50.06724,22.68052c1.42885.44332.94199,2.58472-.53659,2.3615l-50.73876-19.72396c-.92023-.13928-1.64522.77411-1.30574,1.64398l20.6585,44.89219c.54593,1.39839-1.42387,2.35156-2.17187,1.05082l-23.37814-43.57591c-.46509-.80955-1.62781-.80955-2.09352,0l-15.43931,25.71167c-.748,1.30075-2.71779.34756-2.17249-1.0508l12.7203-27.02796c.3401-.86987-.38489-1.78326-1.30511-1.64398l-56.84336,12.46971c-1.47859.22385-1.96481-1.91817-.53659-2.3615l56.17184-15.42626c.88914-.27606,1.14779-1.41453.46571-2.05061l-28.05701-25.76452c-1.09557-1.0222.26736-2.73954,1.50344-1.89393Zm25.64266,28.5252l-27.99359-25.70608c-1.11111-1.0365-.94386-2.48586-.24933-3.3607.69266-.87297,2.0531-1.35546,3.30101-.50114l.03233.02238,29.84772,23.32219,1.8616-70.32221.00186-.03109c.22882-3.05105,4.67265-3.05105,4.90084,0l.00311.03731,1.15216,70.32345.0143-.00932,48.41519-23.68158c1.22366-.77473,2.53808-.2941,3.21457.55835.69454.87483.86178,2.3242-.24933,3.3607l-.11067.10321-46.28871,25.91561,50.01252,22.65564c2.84401.96935,1.76397,5.22851-1.17081,4.7852l-.13553-.02053-50.4969-19.62946,20.57891,44.71935.01367.03482c.55525,1.42263-.22446,2.65312-1.22241,3.13561-.9967.48251-2.43301.32768-3.19095-.99048l-.00933-.01618-23.33711-43.50067-15.41133,25.66441c-.75981,1.3076-2.19052,1.45993-3.18411.97868-.99795-.4825-1.77829-1.71299-1.22304-3.13562l.01555-.03979,12.66184-26.90299-56.71838,12.44297-.04042.00621c-2.96338.44768-4.03532-3.89853-1.08873-4.81255l.01989-.0056,56.07361-15.40014Z"/></g></svg>