<?xml version="1.0" encoding="UTF-8"?>
<svg id="LOGO" xmlns="http://www.w3.org/2000/svg" viewBox="0 0 1250 703">
  <defs>
    <style>
      .cls-1 {
        fill: #000;
        stroke-width: 0px;
      }
    </style>
  </defs>
  <g>
    <path class="cls-1" d="M444.95554,406.86139h17.54955c6.63209,0,11.1215,4.18333,11.1215,10.30526,0,4.59145-2.04064,7.85648-6.53005,9.28494v.20406c3.87721,1.32642,5.10161,3.97925,5.40769,9.59102.40812,6.01989,1.02032,7.55038,1.73456,8.06054v.20406h-5.10161c-.81625-.71422-.91828-2.14268-1.32641-8.36664-.40812-5.50973-2.5508-7.44835-7.65241-7.44835h-10.5093v15.91703h-4.69349l-.00003-37.75191h0ZM449.75103,424.71702h11.1215c5.30569,0,7.85649-2.65284,7.85649-6.93819,0-4.59145-2.14268-6.93819-7.65241-6.93819h-11.42762l.10204,13.87638h0Z"/>
    <path class="cls-1" d="M497.91024,425.63532c0-11.22354,7.04021-19.59018,18.36579-19.59018s18.36579,8.36664,18.36579,19.59018-7.04021,19.59018-18.36579,19.59018-18.36579-8.36664-18.36579-19.59018ZM529.8463,425.63532c0-8.8768-4.69349-15.50889-13.57027-15.50889s-13.57027,6.63209-13.57027,15.50889,4.69349,15.50889,13.57027,15.50889,13.57027-6.73413,13.57027-15.50889Z"/>
    <path class="cls-1" d="M560.35392,406.86139h15.91703c3.97925,0,6.93818,1.02032,9.08086,3.26503,1.53048,1.53048,2.44877,3.77519,2.44877,6.42803,0,4.18333-2.34673,6.73413-6.01989,7.85648v.20406c4.28536,1.02032,7.55038,4.08129,7.55038,9.08086,0,2.8569-1.02032,5.40771-2.75488,7.24429-2.14268,2.2447-5.40769,3.57113-9.38697,3.57113h-16.83531l.00003-37.64987h0ZM575.65874,422.98248c4.59145,0,7.34633-2.2447,7.34633-6.12193,0-3.67316-2.44877-5.81583-6.63209-5.81583h-11.22354v12.0398l10.5093-.10204h0ZM576.88314,440.22593c2.65284,0,4.59145-.71422,5.91785-1.83658,1.02032-1.12236,1.73456-2.5508,1.73456-4.38739,0-4.69349-3.26504-7.04021-7.85649-7.04021h-11.52962v13.26418h11.7337Z"/>
    <path class="cls-1" d="M613.00253,425.63532c0-11.22354,7.04021-19.59018,18.36579-19.59018s18.36579,8.36664,18.36579,19.59018-7.04021,19.59018-18.36579,19.59018-18.36579-8.36664-18.36579-19.59018ZM644.93862,425.63532c0-8.8768-4.69349-15.50889-13.57027-15.50889s-13.57027,6.63209-13.57027,15.50889,4.69349,15.50889,13.57027,15.50889c8.87678-.10204,13.57027-6.73413,13.57027-15.50889Z"/>
    <path class="cls-1" d="M670.65075,406.86139h29.79341v4.18333h-12.54995v33.46656h-4.69346v-33.46656h-12.54995l-.00006-4.18333h0Z"/>
    <path class="cls-1" d="M725.1359,406.86139h4.69346v37.64987h-4.69346v-37.64987Z"/>
    <path class="cls-1" d="M755.64355,425.63532c0-11.01948,6.63209-19.59018,17.85563-19.59018,8.77474,0,14.08043,5.10161,15.10075,12.0398h-4.59145c-.91831-4.69349-4.59145-7.85648-10.61137-7.85648-8.26458,0-12.85603,6.63209-12.85603,15.50889,0,9.1829,5.10161,15.40687,12.9581,15.40687,7.14225,0,10.5093-4.79551,10.91746-10.40728h4.69346c-.10201,3.77519-1.83657,7.95851-4.48944,10.61134-2.65281,2.5508-6.42802,3.97925-11.22354,3.97925-10.81539-.10204-17.75356-8.26461-17.75356-19.69222Z"/>
    <path class="cls-1" d="M811.96533,431.75725h4.59145c.61217,6.32599,4.48944,9.69306,11.63169,9.69306,5.20362,0,8.97882-2.34674,8.97882-7.04021,0-5.10161-4.48944-6.32599-11.22354-7.85648-6.63209-1.42844-12.34587-3.36707-12.34587-10.50932,0-6.22397,5.20362-9.89712,12.75402-9.89712,9.38697,0,13.26418,4.79551,14.28451,11.7337h-4.48944c-.71424-5.40771-4.18329-8.06054-9.69306-8.06054-5.10161,0-8.46866,2.14268-8.46866,6.01989,0,4.28535,4.18329,5.50973,9.79507,6.63209,7.34633,1.42844,13.97842,3.26503,13.97842,11.7337,0,7.04021-5.71378,11.01948-13.87635,11.01948-10.50937-.00002-15.50897-5.91789-15.91706-13.46826Z"/>
  </g>
  <g>
    <path class="cls-1" d="M681.97629,259.52692v87.54362h-100.70578v-87.74768h-28.77309v96.01229c0,11.52964,9.38697,20.9166,20.9166,20.9166h118.8675c10.10121,0,18.26379-8.16257,18.26379-18.26376v-98.46106h-28.56901Z"/>
    <g>
      <polygon class="cls-1" points="354.96314 351.35589 340.78067 376.1497 340.78067 376.1497 498.93056 376.1497 498.93056 351.35589 354.96314 351.35589"/>
      <polygon class="cls-1" points="381.38948 305.33937 367.207 330.13319 369.55374 330.13319 498.93056 330.13319 498.93056 305.33937 381.38948 305.33937"/>
      <polygon class="cls-1" points="407.8158 259.32285 393.63333 284.11667 498.93056 284.11667 498.93056 259.32285 407.8158 259.32285"/>
    </g>
    <path class="cls-1" d="M915.42593,299.11541c.10201-18.36579-14.48858-39.69052-38.67022-39.69052h-112.54149v116.72483h28.56901v-37.75191h59.48475c4.59145-.10203,7.34633,1.02032,9.79507,5.20364,6.12193,10.81541,18.67188,32.54827,18.67188,32.54827h33.46654s-15.61091-27.03853-23.4674-40.71084c14.8968-7.55038,24.58986-19.48815,24.69186-36.32346ZM884.2041,298.70728c0,7.34632-6.53008,14.5906-14.59059,14.5906h-76.72822v-29.18121h76.72822c7.24426,0,13.26418,5.91787,14.38651,12.44793.10201.71423.20408,1.32642.20408,2.04064,0-.10203,0,0,0,.10203,0-.10203,0,0,0,0Z"/>
    <path class="cls-1" d="M953.48392,376.1497l63.25996-110.19476c2.34673-4.08129,6.63209-6.53006,11.32555-6.53006h21.83491c4.69346,0,8.97882,2.44877,11.32555,6.53006l63.77012,110.19476h-33.77263l-52.24049-90.80865-52.24049,90.80865h-33.26247Z"/>
    <path class="cls-1" d="M318.94577,259.32285l-52.03642,90.50254-30.40559-83.15623c-.20406-.51016-.40813-1.02032-.71422-1.42845-1.63251-2.44877-3.97926-4.18332-6.63209-5.10161h0c-1.32642-.51016-2.8569-.71423-4.28535-.71423h-21.73286c-4.69348,0-8.97884,2.5508-11.32557,6.53006l-63.25996,110.19476h33.16046l52.03642-90.50255.20406.40813,30.20153,82.95217h0c.20406.40813.40813.91829.61219,1.32642,2.44877,3.67316,6.53006,5.81583,10.91744,5.81583h21.83489c4.69349,0,8.97884-2.5508,11.32558-6.53006l63.25996-110.19476h-33.16046v-.10204Z"/>
  </g>
</svg>