<?xml version="1.0" encoding="UTF-8"?><svg id="LOGO" xmlns="http://www.w3.org/2000/svg" viewBox="0 0 1250 703"><defs><style>.cls-1{fill:#258481;}</style></defs><path class="cls-1" d="M355.451,296.342h-16.6v109.445l-1.671-3.476-.262-.554-10.862-22.601-14.503-30.114-10.862-22.571-9.986-20.795-.719-1.461c-2.554-4.674-7.521-7.858-13.229-7.858h-20.713c-8.308,0-15.057,6.742-15.057,15.057v120.465h30.114v-109.175l1.543,3.161.292.614,10.862,22.571,14.525,30.114,10.892,22.601,9.986,20.69.03.052.052.157.742,1.491.03.052c2.577,4.6,7.484,7.678,13.117,7.678h20.743c8.308,0,15.057-6.742,15.057-15.057v-105.505c0-7.783-5.925-14.211-13.521-14.982Z"/><path class="cls-1" d="M1008.871,311.414c0-8.308-6.742-15.057-15.057-15.057h-26.264c-6.749,0-12.405,4.412-14.368,10.465l-.105.375-5.499,19.282-6.45,22.571-8.607,30.114-6.45,22.601-6.457-22.601-8.607-30.114-6.457-22.571-5.176-18.084-.532-1.888c-2.045-5.896-7.648-10.143-14.233-10.143h-26.316c-8.315,0-15.035,6.742-15.035,15.057v120.465h30.092v-105.407l6.457,22.571,8.607,30.114,6.457,22.601,8.607,30.114h45.171l8.607-30.114,6.45-22.601,8.607-30.114,6.45-22.571v105.407h30.114v-120.465l-.007-.007Z"/><path class="cls-1" d="M675.794,395.554c-5.948,3.933-13.065,6.218-20.743,6.218-15.432,0-28.706-9.296-34.497-22.601-2.015-4.622-3.131-9.693-3.131-15.057s1.116-10.465,3.131-15.057c5.813-13.274,19.065-22.571,34.497-22.571,7.626,0,14.713,2.255,20.638,6.158.764-2.098,1.618-4.143,2.547-6.158,3.289-7.221,7.491-13.918,12.48-19.971-10.353-6.427-22.571-10.143-35.665-10.143-23.477,0-44.19,11.948-56.356,30.114-4.517,6.742-7.858,14.368-9.694,22.571-1.116,4.832-1.7,9.881-1.7,15.057s.584,10.225,1.7,15.057c1.835,8.203,5.176,15.829,9.694,22.601,12.166,18.166,32.878,30.114,56.356,30.114,13.169,0,25.44-3.768,35.852-10.278-4.967-6-9.192-12.667-12.51-19.836-.929-2.023-1.805-4.09-2.599-6.218Z"/><path class="cls-1" d="M618.554,460.27l-19.544-28.391-20.765-30.114-15.589-22.601-12.981-18.82,7.752-11.287,15.589-22.571,14.368-20.848.427-.614c.554-.854.876-1.888.876-3.004l.007.007c0-3.131-2.525-5.656-5.633-5.656h-23.957c-1.678,0-3.161.719-4.225,1.858l-.03.052-.719,1.034v.03l-.052.052-18.698,27.088-4.54,6.585v-.007l-.003.004.003.004h0s11.049,15.986,11.049,15.986l7.774,11.276-13.011,18.831-5.813,8.472,9.746,14.128,20.765,30.114,23.927,34.684.082.135.502.772.082.105c1.056,1.199,2.599,1.94,4.3,1.94h23.957c3.109,0,5.633-2.525,5.633-5.656v-.007c0-1.169-.374-2.255-.959-3.131l-.322-.449Z"/><path class="cls-1" d="M505.536,296.372l-29.268-42.437-.449-.667-.03-.03c-.397-.479-.876-.876-1.408-1.199-.854-.554-1.865-.846-2.951-.846h-23.957c-3.109,0-5.633,2.547-5.633,5.656,0,1.169.375,2.255.959,3.161l25.073,36.354h-76.297c-4.173,0-7.544,3.371-7.544,7.544v22.571h104.613l15.589,22.571,7.783,11.312,7.806-11.312,11.017-15.982-4.537-6.581-20.765-30.114Z"/><path class="cls-1" d="M524.99,379.156l-12.99-18.803-12.96,18.803-15.619,22.601h-69.285v-22.601h60.236v-30.114h-82.807c-4.173,0-7.544,3.371-7.544,7.544v67.75c0,4.173,3.371,7.544,7.544,7.544h105.782c1.94,0,3.663-.981,4.674-2.495l19.042-27.62,9.776-14.128-.007-.007-5.843-8.472Z"/><path class="cls-1" d="M826.537,349.05c-1.805-8.18-5.124-15.799-9.641-22.571-11.289-16.997-30.062-28.601-51.599-30.114h-9.723c-19.335,1.356-36.437,10.832-47.883,25.073-1.326,1.618-2.577,3.296-3.716,5.049-4.517,6.772-7.806,14.398-9.611,22.571-1.116,4.779-1.671,9.776-1.671,14.9v.157c0,5.176.614,10.225,1.723,15.057,1.858,8.203,5.229,15.851,9.798,22.601,1.116,1.671,2.337,3.296,3.588,4.862,12.428,15.297,31.388,25.073,52.64,25.073,23.395,0,44.063-11.873,56.221-29.927,4.57-6.742,7.941-14.398,9.828-22.601,1.139-4.884,1.723-9.986,1.723-15.214s-.554-10.12-1.671-14.9l-.007-.015ZM794.85,379.164c-5.813,13.199-19.042,22.413-34.422,22.413s-28.579-9.214-34.422-22.413c-2.045-4.592-3.184-9.693-3.214-15.057v-.157c0-5.281,1.086-10.33,3.056-14.9,5.281-12.27,16.915-21.17,30.729-22.571,1.274-.135,2.547-.187,3.85-.187s2.577.052,3.85.187c13.836,1.408,25.44,10.308,30.729,22.571,1.993,4.57,3.079,9.611,3.079,14.9s-1.139,10.57-3.244,15.214h.007Z"/></svg>