<?xml version="1.0" encoding="UTF-8"?><svg id="LOGO" xmlns="http://www.w3.org/2000/svg" viewBox="0 0 1250 703"><defs><style>.cls-1{stroke-width:0px;}</style></defs><path class="cls-1" d="m434.31206,352.5115h-99.97408c-15.78772,0-14.83849-.38507-25.96963,10.74607l-53.30935,53.30935c12.08648,24.38282,30.82193,44.85055,54.04367,59.04054l61.40471-61.40471c5.58794-5.58794,8.05953-7.75507,11.09529-8.68639.8641-.30543,1.77044-.47459,2.68651-.50147.91633.02451,1.82303.19376,2.68651.50147,3.03576.8955,5.50736,3.09846,11.09529,8.68639l61.40476,61.40471c23.24944-14.17803,42.01098-34.64717,54.11528-59.04057l-53.30935-53.30935c-11.14005-11.14005-10.19082-10.74604-25.9696-10.74604Z"/><path class="cls-1" d="m385.45753,207.09535c-79.67822-.62791-144.77924,63.45503-145.40715,143.13326-.00599.75795-.00599,1.51594,0,2.27395h55.16306c12.83257,0,16.95187-1.00296,20.86525-5.22975h0c4.02978-4.34321,3.46562-8.05953,7.40582-18.25041,12.98242-33.59884,50.74397-50.31175,84.34281-37.32936,17.14809,6.62593,30.70343,20.18127,37.32936,37.32936,3.94023,10.22667,3.37604,13.9072,7.39685,18.25041s8.05953,5.22975,20.84734,5.22975h55.18994c.62791-79.67825-63.45501-144.77928-143.13326-145.40721h-.00003Z"/><path class="cls-1" d="m797.88685,277.77273c-3.21436.99107-5.72946,3.5095-6.71626,6.7252-.46074,1.76994-.64498,3.60048-.54622,5.42675h-.00006v137.18226h37.45887v-149.87155h-24.76961c-1.82577-.1008-3.65616.08046-5.42672.53734Z"/><path class="cls-1" d="m930.91402,273.35785c-44.13049,0-80.03121,35.47092-80.03121,79.07304s35.90078,79.07304,80.03121,79.07304,80.0401-35.47092,80.0401-79.07304-35.90078-79.07304-80.0401-79.07304Zm41.59617,79.08198c-.00497,22.87897-18.55604,41.42201-41.43496,41.41708-22.87897-.00497-41.42204-18.55601-41.41708-41.43498.00491-22.87897,18.55598-41.42201,41.43496-41.41708,22.87196.00497,41.41211,18.54511,41.41708,41.41708v.01791Z"/><path class="cls-1" d="m732.96277,277.77273c-3.21944.98266-5.73787,3.50445-6.71626,6.7252-.46074,1.76994-.64498,3.60048-.54622,5.42675v79.40435l-74.17461-84.60728c-2.31941-2.64169-4.24475-4.68346-7.25355-6.04467-3.00891-1.36112-5.81185-1.46858-9.32222-1.46858l-27.32187.02685v149.87158h24.86818c1.82577.10082,3.65622-.08043,5.42678-.53731,3.2195-.98575,5.73945-3.50573,6.7252-6.72523.45303-1.76819.63422-3.59507.53728-5.41781v-79.38638l74.18361,84.58934c2.31041,2.63278,4.2357,4.67452,7.24466,6.04464s5.81185,1.45967,9.32217,1.45967h27.32187v-149.89846h-24.86824c-1.82577-.1008-3.65622.08043-5.42678.53734Z"/></svg>