<svg id="LOGO" xmlns="http://www.w3.org/2000/svg" viewBox="0 0 1250 703"><defs><style>.cls-1{fill:#00269a;}</style></defs><g id="g896"><g id="g897"><g id="g3458"><path id="path3456" class="cls-1" d="M201.5,260.67h21L260,308.29V260.67H281V341H259.39l-36.93-47.93V341h-21Z"/></g><g id="g3462"><path id="path3460" class="cls-1" d="M351.8,317.63c4.3-4.41,6.51-10.17,6.51-17.21a22.23,22.23,0,0,0-6.61-16.35,24,24,0,0,0-33.15.1c-4.3,4.41-6.5,10.06-6.5,16.89s2.1,12.37,6.41,16.78,9.75,6.5,16.56,6.5,12.37-2.2,16.78-6.71m-48.46,14.05c-8.38-8.18-12.49-18.46-12.49-30.94s4.32-23,13-31.15c8.5-7.87,18.88-11.85,31.36-11.85s23.08,4.09,31.57,12.27,12.7,18.15,12.7,30q0,19.17-12.91,31.77c-8.49,8.08-19,12.17-31.46,12.17q-19.38,0-31.79-12.28"/></g><g id="g3466"><path id="path3464" class="cls-1" d="M418.17,296.86c7.24,0,10.8-3.36,10.8-10.07s-3.46-10.07-10.59-10.07h-6.53v20.14ZM390.9,260.67h32c8,0,14.37,2.21,19.51,6.51,5.24,4.61,8,10.8,8,18.67,0,11.12-4.63,18.46-13.85,21.92L458,341H433L416.08,312.7h-4.23V341h-21Z"/></g><g id="g3470"><path id="path3468" class="cls-1" d="M477.67,281.62h-17V260.67h55v20.95h-17V341H477.67Z"/></g><g id="g3474"><path id="path3472" class="cls-1" d="M528.84,260.67h20.95v28.39H579.2V260.67h21V341h-21V310H549.79v31H528.84Z"/></g><g id="g3478"><path id="path3476" class="cls-1" d="M643.07,296.86c7.23,0,10.8-3.36,10.8-10.07s-3.46-10.07-10.6-10.07h-6.52v20.14ZM615.8,260.67h32c8,0,14.37,2.21,19.5,6.51,5.24,4.61,8,10.8,8,18.67,0,11.12-4.61,18.46-13.84,21.92L682.93,341H657.85L641,312.7h-4.22V341h-21Z"/></g><g id="g3482"><path id="path3480" class="cls-1" d="M746.88,317.63c4.3-4.41,6.5-10.17,6.5-17.21a22.19,22.19,0,0,0-6.61-16.35,24,24,0,0,0-33.15.1c-4.28,4.41-6.49,10.06-6.49,16.89s2.09,12.37,6.4,16.78,9.75,6.5,16.57,6.5,12.37-2.2,16.78-6.71m-48.45,14.05c-8.4-8.18-12.5-18.46-12.5-30.94s4.32-23,13-31.15c8.5-7.87,18.88-11.85,31.36-11.85s23.07,4.09,31.56,12.27,12.7,18.15,12.7,30q0,19.17-12.9,31.77c-8.49,8.08-19,12.17-31.47,12.17q-19.37,0-31.77-12.28"/></g><g id="g3486"><path id="path3484" class="cls-1" d="M815.56,297.59c8.28,0,12.38-3.57,12.38-10.8,0-6.92-4-10.28-12.18-10.28h-7.15v21.08Zm-27.9-36.92h35.87c7.76,0,14.06,2.51,18.56,7.76,4.53,4.83,6.72,11.33,6.72,19.2,0,7.55-2.19,13.63-6.72,18.24S831.61,313,824.16,313H808.61v28h-21Z"/></g></g><g id="g898"><g id="g3442"><path id="path3440" class="cls-1" d="M302.61,433c-7.76-8.18-11.75-18.46-11.75-30.73,0-12.06,4-22.24,11.75-30.53,8.07-8.48,18-12.68,30-12.68,16.15,0,28.21,6.71,36.28,20.13l-16.77,9.24a12.51,12.51,0,0,0-2.53-3.57,22.13,22.13,0,0,0-17.2-7.55c-6.92,0-12.06,2.72-15.52,8.07-2.93,4.51-4.41,10.39-4.41,17.73s1.79,13.21,5.25,17.52c3.78,4.72,9.34,7,16.57,7a18.84,18.84,0,0,0,11.55-4c3.76-2.84,5.87-6.19,6.29-10.28H333.66V396.59h40.27V401c0,13.63-3.36,24.33-10.18,32.09-7.13,8.08-17.41,12.17-30.94,12.17q-18.4,0-30.2-12.28"/></g><g id="g3502"><path id="path3500" class="cls-1" d="M413.66,398.16c7.23,0,10.8-3.35,10.8-10.06S421,378,413.86,378h-6.52v20.14ZM386.39,362h32c8,0,14.37,2.21,19.5,6.5,5.25,4.62,8,10.81,8,18.67,0,11.12-4.61,18.46-13.84,21.93l21.51,33.24H428.44L411.56,414h-4.22v28.32H386.39Z"/></g><g id="g3446"><path id="path3444" class="cls-1" d="M471.36,438.23c-7.14-5.35-10.8-12.69-10.8-21.92V362h21V411.9q0,14.48,14.48,14.48c4.29,0,8-1.16,10.52-3.47a13,13,0,0,0,4-10V362h21v52c0,10.18-3.48,18-10.5,23.71-6.39,5-14.89,7.55-25.39,7.55-9.65,0-17.72-2.31-24.22-7"/></g><g id="g3494"><path id="path3492" class="cls-1" d="M593.78,403.5,620.31,362h21v80.35H620.35V395.18h0L599.43,428H588.32l-21-32.77h0v47.15h-21V362h21Z"/></g><g id="g3498"><path id="path3496" class="cls-1" d="M706,403.5,732.52,362h21v80.35H732.56V395.18h0L711.64,428H700.53l-21-32.77h-.08v47.15H658.51V362h21Z"/></g><g id="g3450"><path id="path3448" class="cls-1" d="M814.17,411.27l-8.49-24.54-8.6,24.54ZM794,362h24l29.79,80.35H825.08l-5.45-14.89H791.85l-5.36,14.89H764.14Z"/></g><g id="g3454"><path id="path3452" class="cls-1" d="M859.29,362h21l37,47.62V362h20.94v80.35h-21l-36.93-47.94v47.94h-21Z"/></g></g><g id="g899"><path id="path3488" class="cls-1" d="M859.29,260.67v21h168.25V442.32h21V260.67Z"/></g></g></svg>