<?xml version="1.0" encoding="UTF-8"?><svg id="PASTE_LOGO_HERE" xmlns="http://www.w3.org/2000/svg" viewBox="0 0 1250 703"><defs><style>.cls-1{fill-rule:evenodd;}.cls-1,.cls-2{stroke-width:0px;}</style></defs><path class="cls-2" d="m430.17655,312.24278c0,21.91737-17.63072,39.54149-39.55604,39.54149-10.39722,0-19.66492,9.48989-19.66492,19.6583v39.54147h-79.11072v-79.08294h39.55603c10.39722,0,19.66492-9.48991,19.66492-19.65832,0-21.91604,17.63072-39.54015,39.55469-39.54015,21.92532,0,39.55604,17.62411,39.55604,39.54015Z"/><path class="cls-1" d="m393.77367,236.31246h-65.52594c-40.20941,0-72.80494,32.58495-72.80494,72.77982v138.28141h138.33088c40.2081,0,72.80574-32.58442,72.80574-72.77928v-65.50213c0-40.19487-32.59764-72.77982-72.80574-72.77982Zm-65.52594-7.27793c-44.23022,0-80.08552,35.84339-80.08552,80.05775v145.55987h145.61146c44.23023,0,80.08552-35.8434,80.08552-80.05775v-65.50213c0-44.21436-35.85529-80.05775-80.08552-80.05775h-65.52594Z"/><path class="cls-2" d="m1006.2843,347.52141c0-25.97389-9.26102-28.91014-14.79366-30.71686l-.22612-.11243c-3.04866-1.01577-6.32352-1.12951-10.16315-1.12951-11.85745,0-19.76282,4.40437-19.76282,25.63528v12.76079c0,22.58529,9.48593,25.63397,19.76282,25.63397,3.04866,0,6.66209-.11374,10.16315-1.12953,2.71001-.79092,6.43727-1.91915,9.37348-6.09735,3.72588-4.96914,5.6463-13.32554,5.6463-24.84436Zm35.45853-4.63055c0,22.4729-3.50098,30.94172-5.6463,36.02461v.11241c-1.12953,2.93625-3.04866,6.09868-3.16241,6.21109-4.85542,8.24398-13.43801,13.8903-14.00278,14.22889-6.88829,4.62922-15.24469,7.0007-24.16585,7.0007-4.51677,0-16.14939-.56344-26.31246-5.42014-1.80676-.90336-3.27486-1.24195-4.62922-1.35438-1.35573-.11374-2.37152.11243-3.16241.90336-1.12953,1.1282-1.80676,3.38727-1.80676,6.54968-.11374,7.67921,0,24.27828,0,24.39202v1.58056h-32.40979v-141.6105h32.29604l.33994,1.24195c.22483,1.0171.78959,3.04999,1.24191,3.83961.78967,1.46812,1.69301,1.80671,3.95208,1.58187,1.6943-.22616,3.16241-1.12951,4.74296-2.03289.22612-.11374.56477-.33859.79088-.45233,11.85745-7.67921,27.32834-7.45304,28.11793-7.34062,8.24394,0,16.14931,2.48525,22.69903,7.00203.56477.45233,8.58259,5.75876,13.21181,13.77656,1.80667,3.16243,7.90537,15.13225,7.90537,33.76552Zm-169.05122,21.56954l.11245-.22618c1.58056-3.83961,1.58056-9.93695,1.4681-14.9061v-2.03289c0-16.93897-2.71009-27.44069-16.37422-30.9417-2.37144-.45233-4.74296-.67718-7.11441-.79092-2.25907,0-4.63059.22616-7.00203.79092-13.66413,3.50102-16.37422,14.00274-16.37422,30.9417v1.6943c0,4.96914,0,11.29264,1.58056,15.24469v.11374c1.24328,4.40304,4.1782,8.24265,8.24394,10.95274,3.95208,2.59764,8.69505,3.95335,13.55176,3.95335h.22483c4.74296,0,9.48593-1.35571,13.32556-3.95335,4.1782-2.59635,7.00203-6.43596,8.35769-10.84031Zm35.91085-22.02054c.11245,1.69297.11245,3.38725.11245,4.96781,0,13.66413-2.37144,24.61818-7.11441,33.42693-5.53393,10.27687-14.56755,17.61617-26.87731,21.79436-7.45306,2.48525-15.69571,3.83961-23.82728,3.83961-8.1302-.11241-16.37414-1.35436-23.8272-3.83961-12.30977-4.29061-21.34338-11.63123-26.87727-21.79436-4.74296-8.80875-7.11445-19.7628-7.11445-33.42693,0-1.58056,0-3.27484.11374-4.96781.22483-13.55171,3.83959-25.07054,10.50172-33.9917,7.00203-9.37221,17.27756-15.5833,30.26454-18.51955,5.53385-1.24195,11.2926-1.80671,16.93891-1.80671s11.29269.56477,16.93899,1.80671c13.09944,2.93625,23.26388,9.14734,30.26454,18.51955,6.66346,9.03491,10.27689,20.43998,10.50301,33.9917Zm-230.37112-25.18297c-.33994-3.16241-1.35573-6.43725-2.82384-9.59834-1.91913-4.29196-4.40435-7.67921-7.45306-10.38931-2.14528-1.80803-4.1782-3.27484-6.54968-4.40437-3.38856-1.58187-7.22819-2.82382-11.18023-3.501-3.16108-.56477-6.54968-.90338-10.84029-.90338-.67851,0-16.26181-.45233-28.23163,7.22688-.45235.22618-.79097.45233-1.24328.67851-1.46815.90336-2.82251,1.69297-4.29065,1.91915-2.14528.22618-3.04866-.11243-3.952-1.6943-.33994-.78961-.90338-2.82251-1.24328-3.83961l-.33861-1.24195h-31.84506v112.02317h32.40983v-1.58056c0-.33859-.11241-35.23365,0-51.94646,0-13.43797,2.82384-22.9239,8.35639-28.45781,5.42148-5.42014,12.19602-5.42014,15.01986-5.42014h.22616c14.45376,0,22.02052,8.35639,22.02052,24.16585v63.23912h32.86218v-71.14318c0-2.37148,0-4.63055-.11374-6.77586-.22616-2.71009-.45102-5.53391-.78959-8.35642Zm121.62149-22.58529h-31.95747c-.67851,0-1.24328,0-1.80805.11241-2.37148.45233-4.29061,1.6943-5.98491,3.61343-1.46815,1.80674-2.25774,4.17822-2.25774,7.00203v98.02043h-33.53936v-98.02043c0-2.82382-.67851-5.1953-2.25907-7.00203-1.58056-1.91913-3.61343-3.1611-5.98491-3.61343-.56477-.11241-1.12953-.11241-1.80671-.11241h-31.95881v-29.92593h117.44463v29.92593h.11241Z"/></svg>