<svg xmlns="http://www.w3.org/2000/svg" viewBox="0 0 1250 703"><defs><style>.cls-1{fill:#6485c1;}</style></defs><title>ntt-data-logo</title><g id="Layer_4" data-name="Layer 4"><g id="g10"><g id="g12"><path id="path14" class="cls-1" d="M301,285.14v28h42.54V417.8H373.7V313.11h42.55v-28Z"/><path id="path16" class="cls-1" d="M797,285.14H721.08v28.2h73.83c10.87,0,15.09,5,15.09,17.59v4.73H748.77c-23.3,0-34.86,11.62-34.86,37.94v6.27c0,27.05,12,37.93,36.17,37.93h89.76V330.61c0-33.38-11-45.47-42.88-45.47m-43.74,104.3c-4.56,0-9.69-2.28-9.69-13.68s5-13.38,9.69-13.38H810v27.06Z"/><path id="path18" class="cls-1" d="M1047.12,285.14H971.25v28.2h73.87c10.82,0,15,5,15,17.59v4.73H999c-23.3,0-34.91,11.62-34.91,37.94v6.27c0,27.05,12,37.93,36.16,37.93H1090V330.61c0-33.38-11-45.47-42.88-45.47m-43.75,104.3c-4.56,0-9.67-2.28-9.67-13.68s5-13.38,9.67-13.38h56.78v27.06Z"/><path id="path20" class="cls-1" d="M425.81,285.14v28h42.55V417.8h30.2V313.11h42.55v-28Z"/><path id="path22" class="cls-1" d="M845.88,285.14v28h42.55V417.8h30.12V313.11H961.1v-28Z"/><path id="path24" class="cls-1" d="M702.24,371.33V331.62c0-34.69-13.44-46.42-43.85-46.42H577.68V417.79H659.8c32.24,0,42.44-16.05,42.44-46.46m-30.76.63c0,12.63-4.27,17.59-15.09,17.59H607.86V313.4h48.53c10.82,0,15.09,5,15.09,17.71Z"/><path id="path26" class="cls-1" d="M258.48,386.18c-.63-1.19-40.84-79.62-45.8-87.37-5.69-8.88-12.58-15.09-25.79-15.09-12.31,0-26.89,5.41-26.89,35v99.17h29.68V335.15c0-5.92-.34-14.75-.4-16.52-.06-1.48,0-2.84.74-3.24s1.65.28,2.28,1.36,37.87,75,45.84,87.42c5.64,9,12.6,15.11,25.81,15.11,12.31,0,26.83-5.47,26.83-35V285.13H261.1v82.71c0,6,.34,14.75.45,16.52,0,1.43,0,2.84-.74,3.25s-1.71-.29-2.33-1.43"/></g></g></g></svg>