<svg id="LOGO" xmlns="http://www.w3.org/2000/svg" viewBox="0 0 1250 703"><defs><style>.cls-1{fill:#0072bc;}.cls-1,.cls-2{fill-rule:evenodd;}</style></defs><title>ntt-logo</title><g id="Layer_4" data-name="Layer 4"><path class="cls-1" d="M430.60383,209.86947a98.369,98.369,0,0,0-35.59969,6.66358A98.33366,98.33366,0,0,0,359.4,209.86947c-58.52159,0-111.36764,55.34594-111.36764,131.28166,0,82.7959,67.638,146.81918,146.97183,146.81918,79.32907,0,146.98067-64.02328,146.98067-146.81918,0-75.93572-52.855-131.28166-111.381-131.28166Zm-35.59969,45.08965c11.27887,6.70694,26.17124,26.15367,26.17124,48.078,0,16.08536-10.611,28.74539-26.17124,28.74539-15.55557,0-26.17515-12.66-26.17515-28.74539,0-21.92434,14.90061-41.37107,26.17515-48.078Zm0,196.84778A110.78045,110.78045,0,0,1,284.15648,340.43258c0-57.13336,41.23117-96.16672,73.6291-94.71168a85.64277,85.64277,0,0,0-24.65223,59.14644c0,37.0917,29.44,63.10214,61.87079,63.10214,32.43542,0,61.8702-26.01044,61.8702-63.10214a85.67636,85.67636,0,0,0-24.65065-59.14644c32.40127-1.455,73.6292,37.57832,73.6292,94.71168A110.78862,110.78862,0,0,1,395.00414,451.8069Z"/><path class="cls-2" d="M671.17355,279.39473v27.51305H686.558v50.63657l-41.30517-78.14962H597.605v27.51305h15.3629V391.1442H597.605v27.49834h63.0227V391.1442H645.25286V340.53462L686.558,418.64254h32.25166V306.90778H734.2028V279.39473Zm193.96557,53.48012V279.39473H743.94137v53.48012H771.455V306.90552h14.83665V391.1442H766.1775v27.49942h76.72971V391.1442H822.8113V306.90552h14.83586v25.96933Zm130.533-53.48012H874.522v53.48012h27.51442V306.90552h14.81026V391.1442H896.73885v27.49942h76.76806V391.1442H953.38824V306.90552h14.81781v25.96933h27.46606Z"/></g></svg>