<?xml version="1.0" encoding="utf-8"?>
<!-- Generator: Adobe Illustrator 23.0.3, SVG Export Plug-In . SVG Version: 6.00 Build 0)  -->
<svg version="1.1" id="Layer_1" xmlns="http://www.w3.org/2000/svg" xmlns:xlink="http://www.w3.org/1999/xlink" x="0px" y="0px"
	 viewBox="0 0 1250 703" style="enable-background:new 0 0 1250 703;" xml:space="preserve">
<style type="text/css">
	.st0{clip-path:url(#SVGID_2_);}
	.st1{clip-path:url(#SVGID_4_);}
	.st2{fill:#231F20;}
</style>
<title>nvidia-partner-octane-render-logo</title>
<g id="LOGO">
	<g>
		<defs>
			<rect id="SVGID_1_" x="323" y="118.1" width="604" height="466.7"/>
		</defs>
		<clipPath id="SVGID_2_">
			<use xlink:href="#SVGID_1_"  style="overflow:visible;"/>
		</clipPath>
		<g class="st0">
			<g>
				<defs>
					<rect id="SVGID_3_" x="323" y="118.1" width="604" height="466.7"/>
				</defs>
				<clipPath id="SVGID_4_">
					<use xlink:href="#SVGID_3_"  style="overflow:visible;"/>
				</clipPath>
				<g class="st1">
					<path class="st2" d="M505.7,492.9v7.6h-3.5h-1v6h4.5v18c-0.1,3.3,1.3,6.5,3.9,8.5v0.1c2.4,1.8,5.4,2.7,8.5,2.6h1v-6.4h-1
						c-1.4,0.1-2.9-0.3-3.9-1.3c-0.9-0.9-1.4-2.1-1.3-3.4v-18.1h6.2v-6h-6.2v-7.6L505.7,492.9L505.7,492.9z M608.1,499.9
						c-3.8-0.1-7.5,1.5-10.1,4.4c-2.9,3.3-4.3,7.9-4.3,13.8s1.6,10.4,4.7,13.6c2.8,2.8,6.7,4.2,10.6,4.1c4.3-0.1,8.4-2,11.3-5.2
						l0.7-0.7l-0.7-0.7l-3-3l-0.7-0.7l-0.7,0.8c-1.6,2.1-4.1,3.3-6.8,3.2c-2.1,0.1-4.1-0.8-5.5-2.4c-1.3-1.6-2-4-2.2-7.1h19.8v-3.7
						c0-5.2-1.3-9.4-3.8-12.4C615,501.3,611.6,499.8,608.1,499.9 M455.2,499.9c-3.9-0.1-7.6,1.4-10.2,4.3c-2.8,3.2-4.2,7.8-4.2,13.7
						c0,5.9,1.3,10.5,4.2,13.6c2.5,2.8,5.9,4.2,10.2,4.2c3.8,0.2,7.4-1.3,10-4v-0.1c2.9-3.1,4.3-7.8,4.3-13.7s-1.4-10.6-4.3-13.8
						C462.7,501.4,459,499.9,455.2,499.9 M487.8,500c-3.8-0.2-7.5,1.4-10,4.3c-2.7,3.2-4,7.8-4,13.7s1.3,10.5,4.1,13.6
						c2.5,2.8,6.1,4.3,9.9,4.2c4.1,0.1,8-1.7,10.6-4.8l0.6-0.7l-0.6-0.6l-3-3l-0.7-0.7l-0.7,0.8c-1.4,1.9-3.7,2.9-6.1,2.8
						c-2,0.1-3.9-0.9-4.8-2.7c-1.1-1.8-1.7-4.8-1.7-8.9s0.6-7.2,1.7-9c0.9-1.8,2.8-2.9,4.8-2.7c2,0,3.8,0.8,5.1,2.2l0.7,0.7l0.7-0.7
						l3-3l0.6-0.6l-0.6-0.7C495,501.5,491.5,499.9,487.8,500 M537.7,500c-3.4,0-6.8,0.8-9.8,2.3l-0.8,0.4l0.3,0.9l1.7,4.1l0.5,1.1
						l1-0.7c2-1.3,4.3-1.9,6.7-1.8c1.4-0.1,2.8,0.3,3.8,1.3c0.9,1.2,1.4,2.7,1.2,4.2v3c-1.9-0.7-4-1-6-1c-3.1-0.1-6.2,0.9-8.7,2.8
						c-2.6,2-4.2,5.1-4.1,8.4c0,3.6,1.2,6.4,3.6,8.4c2.4,1.8,5.4,2.7,8.4,2.6c2.6,0,5.2-0.9,7.3-2.5c0.1,0.6,0.3,1.1,0.6,1.6
						l0.3,0.4h7.3l-0.5-1.3c-0.2-0.7-0.4-1.2-0.6-1.5s-0.2-0.6-0.2-0.6v-0.1c-0.1-1.6-0.2-3.2-0.2-4.8v-15.2c0-3.8-0.9-6.9-3-8.9
						S541.4,500,537.7,500L537.7,500z M574.8,500c-3,0.1-5.9,1.1-8.3,3v-2.5h-7.2v34.8h7.2v-25c2.5-2.6,5.1-3.9,7.9-3.9
						c2.2,0,3.4,0.6,4.1,1.6c0.8,1.6,1.1,3.4,1,5.1v22.1h7.2v-22.1c0-5-1.2-8.7-3.7-10.9C581.1,500.7,578.3,500,574.8,500
						 M455.3,506.1c2.1-0.2,4.1,0.9,5.1,2.7c1.2,1.9,1.8,5,1.8,9.1s-0.7,7.1-1.8,9c-2,2.8-5.9,3.5-8.7,1.6c-0.6-0.4-1.1-0.9-1.6-1.6
						c-1.2-1.9-1.8-4.9-1.8-9s0.7-7.2,1.8-9.1C451.2,507,453.2,506,455.3,506.1 M608.1,506.2c1.6-0.1,3.1,0.6,4,2
						c0.8,1.2,1.2,3.5,1.5,6.1h-12.1c0.1-2.1,0.8-4.2,1.9-6C604.5,506.9,606.3,506.1,608.1,506.2 M537.1,519.7
						c1.7,0,3.5,0.2,5.1,0.8v6.2c-1.5,1.7-3.7,2.8-6,2.8c-1.5,0.1-2.9-0.3-4.1-1.1c-0.9-0.8-1.4-2.1-1.2-3.3c-0.1-1.5,0.4-3,1.5-4.1
						C533.7,520.1,535.4,519.6,537.1,519.7"/>
					<path class="st2" d="M744.7,484.5v21.8l-1.7-1.6c-2.1-2-4.9-3-7.8-2.8c-2.8,0-5.5,1.3-7.3,3.5c-2.5,2.9-3.8,6.8-3.8,12.1
						c0,5.9,1.3,10.2,3.8,12.9c1.9,2.2,4.7,3.4,7.6,3.3c3.4,0,5.8-0.9,7.5-2.6l1.7-1.7v3.9h3.3v-48.8H744.7z M666.8,501.8
						c-3.3-0.1-6.4,1.2-8.6,3.7c-2.5,2.8-3.9,7-3.9,12.6s1.4,9.5,4.2,12.2c2.5,2.4,5.8,3.7,9.3,3.5c3.4,0,6.3-1.5,9-4.1l-1.6-1.6
						c-1.9,2-4.6,3.2-7.4,3.2c-2.7,0.1-5.2-1.1-6.9-3.1c-1.9-2.2-2.8-5.4-2.8-9.3v-0.1h19.9v-2.6c0-4.9-1.1-8.5-3.3-11.1
						C672.7,502.9,669.8,501.7,666.8,501.8 M771.4,501.8c-3.3-0.1-6.4,1.2-8.6,3.7c-2.5,2.8-3.9,7-3.9,12.6s1.4,9.5,4.1,12.2
						c2.5,2.4,5.9,3.7,9.3,3.5c3.4,0,6.3-1.5,9-4.1l-1.6-1.6c-1.9,2-4.6,3.2-7.4,3.2c-2.7,0.1-5.2-1.1-6.9-3.1
						c-1.9-2.2-2.8-5.4-2.8-9.3v-0.1h19.9v-2.5c0-4.9-1.1-8.5-3.3-11.1C777.2,502.9,774.3,501.7,771.4,501.8 M643.4,501.9
						c-2.4,0-4.4,0.4-6.2,2.3l-1.7,1.8v-3.6h-3.3v31h3.3V509l0.2-0.3c1.5-2.6,4.3-4.1,7.2-4.2c1.3,0.1,2.5,0.4,3.7,0.9l1.2-2.2
						C646.4,502.4,644.9,502,643.4,501.9 M703.3,501.9c-3.2,0-6.3,1.3-8.5,3.5l-1.6,1.6v-4.5h-3.4v30.9h3.4v-23.9l0.3-0.3
						c2.9-3.1,6.1-4.7,9.5-4.7c2.5,0,4.6,0.8,5.7,2.6c0.9,1.4,1.3,3.5,1.3,6.1v20.2h3.3v-20.2c0-4.7-1.1-7.8-3-9.4
						C708.8,502.6,706.5,501.9,703.3,501.9 M806.5,501.9c-2.4-0.1-4.8,0.9-6.5,2.7l-1.4,1.5v-3.7h-3.4v31h3.4V509l0.2-0.3
						c1.9-2.8,4.3-4.2,7.2-4.2c1.3,0.1,2.5,0.4,3.7,0.9l1.3-2.2C809.6,502.4,808,502,806.5,501.9L806.5,501.9z M666.8,504.3
						c2.3-0.1,4.4,1,5.6,2.9c1.2,1.9,1.8,4.5,2,8l0.1,1H658l0.1-1c0.3-3.4,1.1-6.1,2.6-8C662.1,505.3,664.4,504.2,666.8,504.3
						 M771.4,504.3c2.3-0.1,4.4,1,5.6,2.9c1.2,1.9,1.8,4.5,2,8l0.1,1h-16.4l0.1-1c0.3-3.4,1.1-6.1,2.6-8
						C766.7,505.3,769,504.2,771.4,504.3 M735,504.5c0.3,0,0.7,0,1,0c3.4-0.1,6.5,1.5,8.4,4.3l0.2,0.3V527l-0.1,0.2
						c-1.7,2.7-4.6,4.3-7.8,4.1c-2.5,0.1-5-1-6.5-3c-1.7-2.3-2.4-5.8-2.4-10.5c0-4,0.5-7,1.7-9.3C730.5,506.3,732.6,504.8,735,504.5
						L735,504.5z"/>
					<path class="st2" d="M623.9,166.9c-46.7,52.4-64.5,80.7-68.2,123l-0.6-0.3c-17.2-9.8-30.9-29.8-39.1-50.2l-30.1,11.8
						c22,66.6,37.8,95.9,72.5,120.3c-0.2,0.1-0.4,0.3-0.6,0.5c-17.1,9.9-41.3,12-63,8.9l-4.9,31.9C558.7,426.8,592,428,630.6,410
						c0,0.3,0,0.5,0,0.8c0.1,19.8-10.4,41.6-24,58.9l25.2,20.1c46.6-52.4,64.3-80.6,68.1-122.9l0.6,0.3
						c17.2,9.8,30.9,29.8,39.1,50.2l30.1-11.8c-22-66.6-37.7-96-72.5-120.4c0.2-0.1,0.4-0.3,0.6-0.5c17.1-9.9,41.3-11.8,63-8.7
						l4.9-32.1c-68.7-14.2-102-15.4-140.5,2.6c0-0.2,0-0.5,0-0.8c-0.1-19.8,10.4-41.6,24-58.9L623.9,166.9z M626.5,285.6
						c23.6-0.8,43.3,17.8,44.1,41.3s-17.8,43.3-41.3,44.1s-43.3-17.8-44.1-41.3c0,0,0,0,0,0C584.4,306.1,602.9,286.4,626.5,285.6"/>
				</g>
			</g>
		</g>
	</g>
</g>
</svg>
