<?xml version="1.0" encoding="UTF-8"?><svg id="PASTE_LOGO_HERE" xmlns="http://www.w3.org/2000/svg" xmlns:xlink="http://www.w3.org/1999/xlink" viewBox="0 0 1250 703"><defs><style>.cls-1{fill:#001e60;}</style><symbol id="icon-omnissa-logo" viewBox="0 0 188.22522 33.6202"><circle class="cls-1" cx="101.9682" cy="30.9382" r="2.682"/><path class="cls-1" d="M33.7422,25.1022v-4.812c1.7897,3.38421,5.36383,5.43985,9.189,5.285,1.8061.04224,3.58612-.43688,5.127-1.38,1.41893-.90631,2.46783-2.28926,2.958-3.9.89704,1.63678,2.23638,2.98824,3.865,3.9,1.70266.93439,3.61903,1.40995,5.561,1.38,1.19633.01859,2.38595-.18205,3.51-.592,1.00373-.3715,1.91768-.95081,2.682-1.7.76923-.75496,1.36175-1.67088,1.735-2.682.42073-1.1087.63461-2.28516.631-3.471V.8472h-4.693v16.564c.11222,1.86345-.37107,3.7143-1.38,5.285-.98612,1.2682-2.53823,1.96311-4.141,1.854-2.00031.09999-3.94465-.67789-5.324-2.13-1.36986-1.59632-2.07562-3.65705-1.972-5.758V.8472h-4.698v16.564c.12564,1.8826-.3735,3.75403-1.42,5.324-1.02512,1.26271-2.59658,1.95311-4.22,1.854-2.10457.0976-4.11824-.86494-5.364-2.564-1.262-1.7-1.893-4.141-1.893-7.3V.9252h-4.653v24.177h4.5Z"/><path class="cls-1" d="M77.4362,20.4482c1.8142,3.24471,5.27567,5.21835,8.992,5.127,2.32593.12144,4.60201-.7035,6.31-2.287,1.60735-1.6181,2.46516-3.83441,2.366-6.113V.8862h-4.654v16.525c.12876,1.87632-.38586,3.74048-1.459,5.285-1.03022,1.256-2.59808,1.94481-4.22,1.854-2.12254.05266-4.13261-.95238-5.364-2.682-1.41221-2.13288-2.10337-4.66235-1.972-7.217l.039-13.8h-4.652v24.251h4.654l-.03999-4.654Z"/><path class="cls-1" d="M99.7202,25.1012h4.654V.8852h-4.654v24.216Z"/><path class="cls-1" d="M108.7122,18.8752c0,4.457,2.958,6.7,8.834,6.7,2.00285.02336,4.00152-.18843,5.955-.631,1.53341-.29376,2.96197-.98752,4.141-2.011v-6.034c-.81046,2.41067-2.32068,4.52526-4.338,6.074-1.78026,1.31674-3.93873,2.02219-6.153,2.011-1.44763.09002-2.88927-.25325-4.141-.986-.95595-.56835-1.52976-1.60926-1.5-2.721.01928-1.20412.60379-2.32905,1.578-3.037,1.5734-1.12277,3.33723-1.95115,5.206-2.445,1.341-.434,2.642-.828,3.9-1.223,1.17316-.36451,2.29849-.86809,3.352-1.5.95034-.55835,1.7598-1.32744,2.366-2.248.61871-1.03414.92051-2.22705.868-3.431.09821-2.04248-.83519-3.99791-2.485-5.206-1.656-1.223-4.062-1.854-7.178-1.854-2.14671-.0327-4.29016.179-6.389.631-1.59223.28879-3.08376.98119-4.332,2.011v6.31c.81815-2.48156,2.37281-4.65503,4.457-6.231,1.98818-1.45919,4.39594-2.23429,6.862-2.209,1.59187-.07893,3.17104.31943,4.535,1.144,1.05279.57908,1.71482,1.67763,1.735,2.879.01591.80743-.26481,1.59266-.789,2.207-.58445.61616-1.26328,1.13532-2.011,1.538-.8158.44217-1.675.79906-2.564,1.065-.907.276-1.735.552-2.485.789-1.50742.45346-2.98301,1.00668-4.417,1.656-1.04795.45167-2.01923,1.06366-2.879,1.814-.68826.58977-1.22871,1.33263-1.578,2.169-.38398.87156-.57174,1.81685-.55,2.769"/><path class="cls-1" d="M132.49321,18.8752c0,4.457,2.95799,6.7,8.834,6.7,2.00285.02336,4.00153-.18843,5.955-.631,1.53342-.29376,2.96198-.98751,4.14101-2.011v-6.034c-.81046,2.41067-2.32068,4.52526-4.338,6.074-1.78026,1.31674-3.93874,2.02219-6.153,2.011-1.44763.09002-2.88928-.25324-4.14101-.986-.95595-.56835-1.52977-1.60926-1.5-2.721.01929-1.20412.60379-2.32905,1.578-3.037,1.57339-1.12277,3.33722-1.95115,5.20599-2.445,1.341-.434,2.642-.828,3.89999-1.223,1.17317-.36451,2.29849-.86809,3.35201-1.5.95033-.55835,1.7598-1.32744,2.366-2.248.61871-1.03414.9205-2.22705.868-3.431.09821-2.04248-.83519-3.99791-2.485-5.206-1.65601-1.223-4.062-1.854-7.17799-1.854-2.14671-.0327-4.29016.179-6.38901.631-1.59694.27286-3.09207.96709-4.33099,2.011v6.31c.81815-2.48156,2.37282-4.65503,4.457-6.231,1.98817-1.45919,4.39594-2.23429,6.862-2.209,1.59187-.07893,3.17105.31943,4.535,1.144,1.05278.57908,1.71481,1.67763,1.735,2.879.01591.80743-.26482,1.59266-.789,2.207-.58446.61616-1.26328,1.13532-2.011,1.538-.8158.44217-1.675.79906-2.564,1.065-.907.276-1.735.552-2.485.789-1.50742.45346-2.98302,1.00668-4.41701,1.656-1.04794.45167-2.01923,1.06366-2.879,1.814-.68788.58988-1.22798,1.33274-1.577,2.169-.38467.8714-.57312,1.8167-.552,2.769"/><path class="cls-1" d="M155.9992,6.3682c-.05994,1.20271.30266,2.3885,1.02499,3.352.72841.86666,1.64595,1.55465,2.68201,2.011,1.19319.54607,2.4341.98124,3.707,1.3,1.341.355,2.72099.71,4.062,1.1,1.30252.37385,2.56944.86209,3.786,1.459,1.1368.52652,2.12579,1.3259,2.879,2.327,0,2.44533-.51266,4.25967-1.53799,5.443-1.24599,1.2743-2.99612,1.92529-4.772,1.775-1.00639-.00115-2.00105-.21624-2.918-.631-1.00218-.43104-1.92264-1.03149-2.72099-1.775-.90761-.85541-1.70265-1.82285-2.366-2.879-.73703-1.20826-1.34503-2.49064-1.814-3.826v6.31c1.23581,1.14178,2.72128,1.97903,4.338,2.445,1.90596.56961,3.88687.84874,5.87601.828,3.431,0,6.034-.71,7.80901-2.169,1.83971-1.54539,2.8353-3.87324,2.68201-6.271V4.8302c0-1.972.592-2.918,1.814-2.918.69189.00204,1.33409.35978,1.7.947-.517-1.618-1.77901-2.445-3.75101-2.445-1.14511-.08305-2.27734.28479-3.155,1.025-.7859.89726-1.23245,2.04159-1.26199,3.234-1.13725-1.37795-2.60146-2.4492-4.259-3.116-1.75865-.74883-3.64958-1.13749-5.561-1.143-5.48199-.041-8.243,1.97-8.243,5.954M160.88922,6.6842c-.08621-1.41394.44621-2.79558,1.459-3.786,1.07326-.9756,2.49663-1.47363,3.944-1.38,2.10271-.11617,4.16798.59115,5.758,1.972,1.4415,1.40037,2.20407,3.35753,2.09,5.364v8.36c-.69414-.92519-1.5658-1.70268-2.564-2.287-.92976-.53499-1.90649-.98386-2.918-1.341-.98599-.355-1.933-.67-2.879-.986-.87552-.26914-1.71121-.65387-2.485-1.144-.71214-.45749-1.3175-1.06286-1.77499-1.775-.47725-.92397-.69498-1.96008-.63-2.998v.001Z"/><path class="cls-1" d="M6.4462,6.4462c-3.84331,3.83514-4.42236,9.85896-1.38,14.356C-.15343,17.33108-1.57088,10.28583,1.90024,5.0662,5.37136-.15343,12.4166-1.57088,17.63624,1.90024c1.25507.83463,2.33133,1.91089,3.16596,3.16596-4.49704-3.04236-10.52086-2.46331-14.356,1.38"/><path class="cls-1" d="M6.4462,22.4982c-.51395-.52066-.97612-1.09-1.38-1.7,5.19127,3.49859,12.2358,2.1264,15.73439-3.06487,2.57991-3.82811,2.58054-8.83836.00161-12.66713,5.20098,3.49405,6.58473,10.54277,3.09068,15.74375-3.49405,5.20098-10.54277,6.58473-15.74375,3.09068-.61185-.41105-1.18219-.88074-1.70292-1.40243"/><path class="cls-1" d="M180.2942,25.2582v.592h3.27299v-.592h-3.27299ZM181.5942,21.8272v3.9h.67101v-3.9h-.67101ZM184.19421,21.8272v4.023h.47301l1.7-2.761h-.315l1.7,2.761h.47301v-4.023h-.67v2.879l.158-.039-1.22301-2.051h-.47301l-1.22301,2.051.158.039v-2.879h-.758Z"/></symbol></defs><use width="188.22522" height="33.6202" transform="translate(125 423.47779) scale(5.5489 -5.5489)" xlink:href="#icon-omnissa-logo"/></svg>