<svg xmlns="http://www.w3.org/2000/svg" xmlns:xlink="http://www.w3.org/1999/xlink" viewBox="0 0 1250 703"><defs><style>.cls-1{fill:none;}.cls-2{fill:#00aeef;}.cls-3{fill:#115489;}.cls-4{clip-path:url(#clip-path);}</style><clipPath id="clip-path"><rect class="cls-1" x="119.95" y="182" width="1010.23" height="339"/></clipPath></defs><title>one-stop-systems-logo_1</title><g id="Layer_37" data-name="Layer 37"><path class="cls-2" d="M572.31,428.92a16.72,16.72,0,0,0-4,.41,4.47,4.47,0,0,0-2.53,1.66,5,5,0,0,0-.93,2.41,26.41,26.41,0,0,0-.16,3.15V444a26.41,26.41,0,0,0,.16,3.15,5,5,0,0,0,.93,2.41,4.47,4.47,0,0,0,2.53,1.66,16.23,16.23,0,0,0,4,.41h12.87a16.29,16.29,0,0,0,4.05-.41,4.47,4.47,0,0,0,2.53-1.66,4.56,4.56,0,0,0,.89-2.23,22.57,22.57,0,0,0,.16-2.9v-8.33a22.57,22.57,0,0,0-.16-2.9,4.56,4.56,0,0,0-.89-2.23,4.47,4.47,0,0,0-2.53-1.66,16.78,16.78,0,0,0-4.05-.41Zm-4.39,25.68a8.38,8.38,0,0,1-4.18-1.66,6.62,6.62,0,0,1-2.27-3.34,18.07,18.07,0,0,1-.63-5.11v-7.75a21,21,0,0,1,.61-5.49,6.53,6.53,0,0,1,2.25-3.46,8.48,8.48,0,0,1,4.15-1.65,44.26,44.26,0,0,1,6.14-.35h9.51a44.26,44.26,0,0,1,6.14.35,8.48,8.48,0,0,1,4.15,1.65,6.58,6.58,0,0,1,2.19,3.32,17.62,17.62,0,0,1,.67,5.28v7.94a18.19,18.19,0,0,1-.65,5.27,6.62,6.62,0,0,1-2.21,3.34,8.13,8.13,0,0,1-4.15,1.66,46.07,46.07,0,0,1-6.14.34H574a46,46,0,0,1-6.11-.34Z"/><polygon class="cls-2" points="602.99 454.58 602.99 426.14 608.54 426.14 634.25 451.34 634.25 426.14 637.77 426.14 637.77 454.58 632.61 454.58 606.51 429 606.51 454.58 602.99 454.58 602.99 454.58"/><polygon class="cls-2" points="644.77 426.14 672.78 426.14 672.78 429.31 648.21 429.31 648.21 438.23 671.77 438.23 671.77 441.4 648.21 441.4 648.21 451.42 672.78 451.42 672.78 454.58 644.77 454.58 644.77 426.14 644.77 426.14"/><path class="cls-2" d="M699.43,445.31c0,.37,0,.69-.07,1s0,.52,0,.73a5.2,5.2,0,0,0,.48,2.38,3.29,3.29,0,0,0,1.48,1.47,7.81,7.81,0,0,0,2.6.72,29.63,29.63,0,0,0,3.78.2h7.44a38.52,38.52,0,0,0,4.36-.2,8,8,0,0,0,2.87-.78,3.48,3.48,0,0,0,1.58-1.66,8.7,8.7,0,0,0,.14-5.32A2.74,2.74,0,0,0,723,442.4a4.77,4.77,0,0,0-1.93-.67,19.23,19.23,0,0,0-2.85-.18h-12a24.75,24.75,0,0,1-4.74-.38,7.84,7.84,0,0,1-3.19-1.32,5.23,5.23,0,0,1-1.8-2.42,10.54,10.54,0,0,1-.57-3.7,9.36,9.36,0,0,1,.71-3.91,5.36,5.36,0,0,1,2.19-2.43,10.43,10.43,0,0,1,3.79-1.25,37,37,0,0,1,5.56-.35h6.46c2.63,0,4.83.09,6.57.27a7.69,7.69,0,0,1,4.14,1.53,5,5,0,0,1,1.47,2.27,10.82,10.82,0,0,1,.46,3.36V434H723.8v-.43a6.8,6.8,0,0,0-.36-2.46,2.72,2.72,0,0,0-1.17-1.45,5.49,5.49,0,0,0-2.17-.69,28.19,28.19,0,0,0-3.34-.17h-9.71a25.28,25.28,0,0,0-3.54.2,6.17,6.17,0,0,0-2.31.72,3,3,0,0,0-1.26,1.45,5.89,5.89,0,0,0-.4,2.36,6.36,6.36,0,0,0,.43,2.53,3.05,3.05,0,0,0,1.37,1.47,6.64,6.64,0,0,0,2.4.66,35.41,35.41,0,0,0,3.54.16H717.5a45.89,45.89,0,0,1,4.59.19,7.8,7.8,0,0,1,3.16.94,4.83,4.83,0,0,1,2.15,2.64,14.16,14.16,0,0,1,.55,4.29,11.68,11.68,0,0,1-.63,4.09,5.46,5.46,0,0,1-2,2.6,9.34,9.34,0,0,1-3.63,1.39,31,31,0,0,1-5.44.41h-9.66a25.71,25.71,0,0,1-4.8-.39,8.57,8.57,0,0,1-3.3-1.3,5.3,5.3,0,0,1-1.9-2.3,8.91,8.91,0,0,1-.61-3.49c0-.31,0-.64,0-1s0-.74.06-1.16Z"/><polygon class="cls-2" points="745.44 454.58 745.44 429.31 731.36 429.31 731.36 426.14 763.05 426.14 763.05 429.31 748.96 429.31 748.96 454.58 745.44 454.58 745.44 454.58"/><path class="cls-2" d="M778.38,428.92a16.72,16.72,0,0,0-4,.41A4.47,4.47,0,0,0,771.8,431a4.92,4.92,0,0,0-.93,2.41,26.41,26.41,0,0,0-.16,3.15V444a26.41,26.41,0,0,0,.16,3.15,4.92,4.92,0,0,0,.93,2.41,4.47,4.47,0,0,0,2.53,1.66,16.23,16.23,0,0,0,4,.41h12.87a16.29,16.29,0,0,0,4-.41,4.41,4.41,0,0,0,2.52-1.66,4.48,4.48,0,0,0,.9-2.23,24.54,24.54,0,0,0,.16-2.9v-8.33a24.54,24.54,0,0,0-.16-2.9,4.48,4.48,0,0,0-.9-2.23,4.41,4.41,0,0,0-2.52-1.66,16.78,16.78,0,0,0-4-.41ZM774,454.6a8.34,8.34,0,0,1-4.18-1.66,6.56,6.56,0,0,1-2.27-3.34,17.72,17.72,0,0,1-.63-5.11v-7.75a20.55,20.55,0,0,1,.61-5.49,6.53,6.53,0,0,1,2.25-3.46,8.48,8.48,0,0,1,4.15-1.65,44.26,44.26,0,0,1,6.14-.35h9.51a44.36,44.36,0,0,1,6.14.35,8.48,8.48,0,0,1,4.15,1.65,6.58,6.58,0,0,1,2.19,3.32,18,18,0,0,1,.67,5.28v7.94a18.19,18.19,0,0,1-.65,5.27,6.75,6.75,0,0,1-2.21,3.34,8.13,8.13,0,0,1-4.15,1.66,46.17,46.17,0,0,1-6.14.34h-9.48a45.94,45.94,0,0,1-6.1-.34Z"/><path class="cls-2" d="M829.83,440.15a18.47,18.47,0,0,0,3.19-.22,4.41,4.41,0,0,0,1.93-.74,2.55,2.55,0,0,0,1-1.45,9,9,0,0,0,.26-2.37V434a9,9,0,0,0-.26-2.37,2.58,2.58,0,0,0-1-1.45,4.41,4.41,0,0,0-1.93-.74,18.47,18.47,0,0,0-3.19-.22H812.58v10.92Zm-20.77,14.44V426.14h19.75a46.09,46.09,0,0,1,5.09.24,9.49,9.49,0,0,1,3.46.95,4.48,4.48,0,0,1,2,2.06,8.32,8.32,0,0,1,.62,3.52v3.72a8.32,8.32,0,0,1-.62,3.52,4.37,4.37,0,0,1-2,2,9.7,9.7,0,0,1-3.46.94,46.09,46.09,0,0,1-5.09.24H812.58v11.23Z"/><path class="cls-2" d="M866.73,445.31q0,.56-.06,1c0,.28,0,.52,0,.73a5.33,5.33,0,0,0,.47,2.38,3.36,3.36,0,0,0,1.49,1.47,7.74,7.74,0,0,0,2.6.72,29.53,29.53,0,0,0,3.78.2h7.43a38.4,38.4,0,0,0,4.36-.2,8,8,0,0,0,2.88-.78,3.48,3.48,0,0,0,1.58-1.66,7.18,7.18,0,0,0,.49-2.88,7,7,0,0,0-.35-2.44,2.74,2.74,0,0,0-1.12-1.41,4.88,4.88,0,0,0-1.93-.67,19.37,19.37,0,0,0-2.86-.18h-12a24.82,24.82,0,0,1-4.74-.38,7.79,7.79,0,0,1-3.18-1.32,5.23,5.23,0,0,1-1.8-2.42,10.54,10.54,0,0,1-.57-3.7,9.36,9.36,0,0,1,.71-3.91,5.36,5.36,0,0,1,2.19-2.43,10.36,10.36,0,0,1,3.79-1.25,36.82,36.82,0,0,1,5.55-.35h6.47q3.95,0,6.57.27a7.72,7.72,0,0,1,4.14,1.53,5.09,5.09,0,0,1,1.47,2.27,10.84,10.84,0,0,1,.45,3.36V434H891.1v-.43a7,7,0,0,0-.35-2.46,2.76,2.76,0,0,0-1.17-1.45,5.49,5.49,0,0,0-2.18-.69,27.89,27.89,0,0,0-3.33-.17h-9.71a25.18,25.18,0,0,0-3.54.2,6.17,6.17,0,0,0-2.31.72,3.08,3.08,0,0,0-1.27,1.45,5.89,5.89,0,0,0-.4,2.36,6.18,6.18,0,0,0,.44,2.53,3,3,0,0,0,1.37,1.47,6.64,6.64,0,0,0,2.4.66,35.26,35.26,0,0,0,3.54.16h10.22c1.8,0,3.32.06,4.59.19a7.7,7.7,0,0,1,3.15.94,4.8,4.8,0,0,1,2.16,2.64,14.19,14.19,0,0,1,.54,4.29,11.45,11.45,0,0,1-.63,4.09,5.44,5.44,0,0,1-2,2.6,9.34,9.34,0,0,1-3.63,1.39,31.06,31.06,0,0,1-5.45.41h-9.66a25.71,25.71,0,0,1-4.8-.39,8.57,8.57,0,0,1-3.3-1.3,5.28,5.28,0,0,1-1.89-2.3,8.73,8.73,0,0,1-.61-3.49c0-.31,0-.64,0-1s0-.74.05-1.16Z"/><polygon class="cls-2" points="913.87 442.69 897.71 426.14 902.76 426.14 915.75 439.48 928.74 426.14 933.78 426.14 917.62 442.69 917.62 454.58 913.87 454.58 913.87 442.69 913.87 442.69"/><path class="cls-2" d="M940.09,445.31c0,.37-.05.69-.07,1s0,.52,0,.73a5.2,5.2,0,0,0,.47,2.38,3.29,3.29,0,0,0,1.48,1.47,7.81,7.81,0,0,0,2.6.72,29.63,29.63,0,0,0,3.78.2h7.44a38.4,38.4,0,0,0,4.36-.2,8,8,0,0,0,2.87-.78,3.55,3.55,0,0,0,1.59-1.66,7.18,7.18,0,0,0,.49-2.88,7,7,0,0,0-.36-2.44,2.77,2.77,0,0,0-1.11-1.41,4.87,4.87,0,0,0-1.94-.67,19.13,19.13,0,0,0-2.85-.18h-12a24.75,24.75,0,0,1-4.74-.38,7.73,7.73,0,0,1-3.18-1.32,5.19,5.19,0,0,1-1.81-2.42,10.54,10.54,0,0,1-.57-3.7,9.36,9.36,0,0,1,.71-3.91,5.36,5.36,0,0,1,2.19-2.43,10.43,10.43,0,0,1,3.79-1.25,37,37,0,0,1,5.56-.35h6.46q4,0,6.57.27a7.76,7.76,0,0,1,4.15,1.53,5.07,5.07,0,0,1,1.46,2.27,10.82,10.82,0,0,1,.46,3.36V434h-3.41v-.43a6.8,6.8,0,0,0-.36-2.46,2.72,2.72,0,0,0-1.17-1.45,5.44,5.44,0,0,0-2.17-.69,28.19,28.19,0,0,0-3.34-.17h-9.71a25.28,25.28,0,0,0-3.54.2,6.17,6.17,0,0,0-2.31.72,3,3,0,0,0-1.26,1.45,5.89,5.89,0,0,0-.4,2.36,6.36,6.36,0,0,0,.43,2.53,3.05,3.05,0,0,0,1.37,1.47,6.64,6.64,0,0,0,2.4.66c1,.1,2.17.16,3.55.16h10.21c1.8,0,3.33.06,4.6.19a7.75,7.75,0,0,1,3.15.94,4.83,4.83,0,0,1,2.15,2.64,14.16,14.16,0,0,1,.55,4.29,11.68,11.68,0,0,1-.63,4.09,5.5,5.5,0,0,1-2,2.6,9.45,9.45,0,0,1-3.64,1.39,31,31,0,0,1-5.44.41h-9.66a25.71,25.71,0,0,1-4.8-.39,8.57,8.57,0,0,1-3.3-1.3,5.3,5.3,0,0,1-1.9-2.3,8.91,8.91,0,0,1-.61-3.49c0-.31,0-.64,0-1s0-.74.06-1.16Z"/><polygon class="cls-2" points="986.1 454.58 986.1 429.31 972.02 429.31 972.02 426.14 1003.71 426.14 1003.71 429.31 989.62 429.31 989.62 454.58 986.1 454.58 986.1 454.58"/><polygon class="cls-2" points="1008.2 426.14 1036.21 426.14 1036.21 429.31 1011.64 429.31 1011.64 438.23 1035.19 438.23 1035.19 441.4 1011.64 441.4 1011.64 451.42 1036.21 451.42 1036.21 454.58 1008.2 454.58 1008.2 426.14 1008.2 426.14"/><polygon class="cls-2" points="1041.43 454.58 1041.43 426.14 1046.51 426.14 1063.6 450.87 1080.71 426.14 1085.95 426.14 1085.95 454.58 1082.51 454.58 1082.51 429.55 1065.02 454.58 1062.36 454.58 1044.87 429.55 1044.87 454.58 1041.43 454.58 1041.43 454.58"/><path class="cls-2" d="M1095.77,445.31q0,.56-.06,1c0,.28,0,.52,0,.73a5.33,5.33,0,0,0,.47,2.38,3.36,3.36,0,0,0,1.49,1.47,7.74,7.74,0,0,0,2.6.72,29.53,29.53,0,0,0,3.78.2h7.43a38.4,38.4,0,0,0,4.36-.2,8,8,0,0,0,2.88-.78,3.48,3.48,0,0,0,1.58-1.66,7.18,7.18,0,0,0,.49-2.88,7,7,0,0,0-.35-2.44,2.74,2.74,0,0,0-1.12-1.41,4.88,4.88,0,0,0-1.93-.67,19.37,19.37,0,0,0-2.86-.18h-12a24.82,24.82,0,0,1-4.74-.38,7.79,7.79,0,0,1-3.18-1.32,5.23,5.23,0,0,1-1.8-2.42,10.54,10.54,0,0,1-.57-3.7,9.36,9.36,0,0,1,.71-3.91,5.36,5.36,0,0,1,2.19-2.43,10.36,10.36,0,0,1,3.79-1.25,36.82,36.82,0,0,1,5.55-.35h6.47q3.94,0,6.57.27a7.72,7.72,0,0,1,4.14,1.53,5.09,5.09,0,0,1,1.47,2.27,10.84,10.84,0,0,1,.45,3.36V434h-3.41v-.43a7,7,0,0,0-.35-2.46,2.76,2.76,0,0,0-1.17-1.45,5.49,5.49,0,0,0-2.18-.69,27.89,27.89,0,0,0-3.33-.17h-9.71a25.18,25.18,0,0,0-3.54.2,6.17,6.17,0,0,0-2.31.72,3.08,3.08,0,0,0-1.27,1.45,5.89,5.89,0,0,0-.4,2.36,6.18,6.18,0,0,0,.44,2.53,3.05,3.05,0,0,0,1.37,1.47,6.64,6.64,0,0,0,2.4.66,35.26,35.26,0,0,0,3.54.16h10.22a45.89,45.89,0,0,1,4.59.19,7.7,7.7,0,0,1,3.15.94,4.8,4.8,0,0,1,2.16,2.64,14.19,14.19,0,0,1,.54,4.29,11.45,11.45,0,0,1-.63,4.09,5.44,5.44,0,0,1-2,2.6,9.34,9.34,0,0,1-3.63,1.39,31.06,31.06,0,0,1-5.45.41h-9.66a25.71,25.71,0,0,1-4.8-.39,8.57,8.57,0,0,1-3.3-1.3,5.28,5.28,0,0,1-1.89-2.3,8.73,8.73,0,0,1-.61-3.49c0-.31,0-.64,0-1s0-.74,0-1.16Z"/><path class="cls-3" d="M719.19,317.51c0-37.68-21.7-42.81-65.9-42.81s-65.9,5.13-65.9,42.81,21.7,42.82,65.9,42.82,65.9-5.13,65.9-42.82Zm28.81,0C748,369.8,717.61,387,653.29,387s-94.71-17.17-94.71-69.46,30.39-69.45,94.71-69.45S748,265.22,748,317.51Z"/><path class="cls-3" d="M889.07,359.74c16.58,0,21.9-5.14,21.9-12.63,0-9.08-8.08-13.61-27.42-15.19l-65.31-5.14c-30.39-2.36-48.54-13.22-48.54-38.07,0-28.61,24.07-38.68,51.89-38.68H931.3v25.26H819c-13.22,0-20.71,3.55-20.71,12.63,0,7.5,5.12,11.44,27.22,13.22l62.15,4.93C919.45,308.63,940,318.7,940,345.93c0,22.88-14.59,39.06-52.68,39.06H769.11V359.74Z"/><path class="cls-3" d="M1079.28,359.74c16.57,0,21.9-5.14,21.9-12.63,0-9.08-8.09-13.61-27.43-15.19l-65.3-5.14c-30.39-2.36-48.54-13.22-48.54-38.07C959.91,260.1,984,250,1011.8,250h109.71v25.26H1009.23c-13.22,0-20.72,3.55-20.72,12.63,0,7.5,5.14,11.44,27.24,13.22l62.15,4.93c31.76,2.56,52.28,12.63,52.28,39.86,0,22.88-14.6,39.06-52.68,39.06H959.32V359.74Z"/><path class="cls-3" d="M393.44,324.16,371.85,332a84.51,84.51,0,0,1-1.69,45.16L391,386.9a107.17,107.17,0,0,0,2.45-62.74Z"/><path class="cls-3" d="M330.59,277.43a84.43,84.43,0,0,1,31.08,29.78l21.83-7.89a107.21,107.21,0,0,0-43.19-42.63l-9.72,20.74Z"/><path class="cls-3" d="M217.93,305.74a84.49,84.49,0,0,1,24.35-24.81l-7.94-22a107.26,107.26,0,0,0-37.24,37l20.83,9.77Z"/><path class="cls-3" d="M358.16,401.05a84.45,84.45,0,0,1-34,27.75L332,450.35a107.17,107.17,0,0,0,47.17-39.47l-21-9.83Z"/><path class="cls-3" d="M205.38,363.7a84.2,84.2,0,0,1,1.84-33.45l-21-9.83a107,107,0,0,0-2.69,51.18l21.83-7.9Z"/><path class="cls-3" d="M235.55,417.08a84.28,84.28,0,0,1-22.16-27.83l-21.6,7.81a107.1,107.1,0,0,0,33.81,41.23l10-21.21Z"/><path class="cls-3" d="M351.3,233.27A133,133,0,0,1,408,290.46l34.09-12.32a168.92,168.92,0,0,0-75.52-77.46L351.3,233.27Z"/><path class="cls-3" d="M173.63,285a132.88,132.88,0,0,1,51.79-50.68l-12.34-34.13A168.8,168.8,0,0,0,141,269.63L173.63,285Z"/><path class="cls-3" d="M451.72,303.1l-33.93,12.26a132.84,132.84,0,0,1-3.33,82.55l32.68,15.32a168.72,168.72,0,0,0,4.58-110.13Z"/><g class="cls-4"><path class="cls-3" d="M402.69,421.93a132.85,132.85,0,0,1-61.93,52.75L353,508.53a168.63,168.63,0,0,0,82.46-71.23l-32.77-15.37Z"/><path class="cls-3" d="M159,380.46a132.78,132.78,0,0,1,3.65-71.09L129.91,294a168.76,168.76,0,0,0-5,98.78L159,380.46Z"/><path class="cls-3" d="M214.48,462a132.78,132.78,0,0,1-47-56.15l-33.93,12.27A168.67,168.67,0,0,0,199,494.92L214.48,462Z"/><path class="cls-2" d="M326.43,223.29l15.44-32.91a168.64,168.64,0,0,0-104-.33l28.83,79.74.06.15.22-.22a84.19,84.19,0,0,1,38.38-1.5L315.31,247a107.09,107.09,0,0,0-37.64-2.5l-9-24.88a132.77,132.77,0,0,1,57.76,3.66Z"/><path class="cls-2" d="M298.28,435.84a84.49,84.49,0,0,1-39.52-5.25L249,451.33a107.42,107.42,0,0,0,37.68,7.75L296,484.83a133.34,133.34,0,0,1-58-10.09l-15.29,32.59a168.86,168.86,0,0,0,104.72,9.29l-29.2-80.78Z"/></g></g></svg>