<svg id="LOGOS" xmlns="http://www.w3.org/2000/svg" viewBox="0 0 1250 703"><defs><style>.cls-1{fill:#a60f38;}.cls-2{fill:#002f87;}</style></defs><g id="Layer_5" data-name="Layer 5"><path class="cls-1" d="M316.94555,237.06257a112.74314,112.74314,0,0,1,35.5992,5.65343c11.40814,3.81949,21.034,9.21818,28.877,16.348a65.93236,65.93236,0,0,1,17.36709,24.90417,83.45728,83.45728,0,0,1,5.60186,30.65934,92.319,92.319,0,0,1-4.99111,30.3535,74.81279,74.81279,0,0,1-16.95921,26.99223q-11.91721,12.6057-30.35349,18.89536a123.97312,123.97312,0,0,1-75.42609.76327c-11.61177-3.71822-21.339-9.06534-29.1825-16.14452a66.92928,66.92928,0,0,1-17.5701-25.36238A82.94366,82.94366,0,0,1,224,319.10884a84.89633,84.89633,0,0,1,5.75517-31.01537,72.59371,72.59371,0,0,1,18.18147-26.58463q12.45286-11.76531,30.81187-18.1313a116.02956,116.02956,0,0,1,38.197-6.315Zm-1.01863,43.84985a29.903,29.903,0,0,0-17.01046,4.94033,29.52227,29.52227,0,0,0-11.25514,14.36212,54.9145,54.9145,0,0,0-3.81948,20.677c0,10.94976,2.75021,19.30182,8.19954,25.15891a27.04772,27.04772,0,0,0,20.57521,8.70855,29.68129,29.68129,0,0,0,16.85747-4.991,30.16622,30.16622,0,0,0,11.25529-14.76925,57.09,57.09,0,0,0,3.82-20.983,44.757,44.757,0,0,0-3.005-16.70447,25.3382,25.3382,0,0,0-9.72718-11.91776A28.078,28.078,0,0,0,315.92692,280.91242Z"/><path class="cls-1" d="M395.74834,393.26171q4.35482-33.84252,6.621-74.81472,2.36811-40.94687,2.80147-77.51383,17.87571.30545,30.86282.30537c10.03272,0,19.65863-.10174,28.92776-.30537l-1.47685,20.26969a109.19167,109.19167,0,0,1,8.50492-8.70918,53.73538,53.73538,0,0,1,8.86156-6.26355,57.31353,57.31353,0,0,1,11.25529-4.99159,90.06441,90.06441,0,0,1,13.08861-3.05559,92.13154,92.13154,0,0,1,14.82051-1.12037,95.62379,95.62379,0,0,1,20.983,2.29185A57.92645,57.92645,0,0,1,558.0599,245.924a40.9278,40.9278,0,0,1,11.50956,10.59329,35.72124,35.72124,0,0,1,6.11118,13.649,77.57056,77.57056,0,0,1,1.47747,15.07509c0,3.76885-.4082,11.91714-1.17147,24.4458l-2.54659,54.03588c-.45837,10.64392-.71326,20.47347-.71326,29.53865-10.08413-.20363-19.45531-.306-28.2145-.306q-17.79973,0-32.39061.306c.91627-9.06518,1.833-22.51043,2.85211-40.33591q1.45107-26.81341,1.47639-37.68694,0-16.88361-6.51845-23.52967a21.68909,21.68909,0,0,0-16.29736-6.62065,27.19961,27.19961,0,0,0-16.348,5.65343c-5.09332,3.81949-9.06565,9.2688-11.8665,16.501-2.75038,7.23155-4.73685,19.09805-5.85722,35.599q-1.75722,24.75149-2.34249,50.41971c-9.93113-.20363-19.65878-.306-29.0806-.306Q413.24265,392.95572,395.74834,393.26171Z"/><path class="cls-1" d="M563.21975,461.45609q-4.6612-35.67639-6.26495-44.30884a84.93692,84.93692,0,0,0,16.654,6.11134,58.63058,58.63058,0,0,0,12.42724,1.62984,35.85082,35.85082,0,0,0,10.38918-1.47638,25.178,25.178,0,0,0,7.68992-3.667,34.68933,34.68933,0,0,0,6.2137-6.621,59.21718,59.21718,0,0,0,4.991-7.68993,50.70747,50.70747,0,0,0,3.25984-9.16753l-28.011-84.899-24.039-70.4345q22.23051.30545,31.16834.30537c6.97806,0,16.45035-.10174,28.52049-.30537q2.82711,11.45892,10.49155,39.67342c5.14334,18.79268,8.81029,33.56256,11.10214,44.15569,1.324,5.90786,2.54675,13.34365,3.76947,22.40885l3.10623-11.91776c1.0191-3.20814,2.13931-6.8246,3.41222-10.89867,1.32385-4.07422,2.95385-8.96344,4.9397-14.6164l9.72828-27.19587,16.09325-41.60926c12.42616.20363,21.84843.30537,28.2145.30537,5.55169,0,15.53361-.10174,29.84451-.30537l-28.82649,65.03643L666.04487,426.6719a99.28134,99.28134,0,0,1-9.72719,16.14435,58.25623,58.25623,0,0,1-9.37118,9.36994,54.72553,54.72553,0,0,1-10.28776,6.316,81.93442,81.93442,0,0,1-16.45035,5.347,97.32758,97.32758,0,0,1-19.96369,2.08822c-3.10638,0-7.18061-.20348-12.27377-.66185-5.04222-.45837-9.16755-.91689-12.27377-1.37512C572.53967,463.49321,568.41435,462.62755,563.21975,461.45609Z"/><path class="cls-1" d="M710.92971,393.26171l34.02093-45.22449L770.16018,313.456,723.3046,240.93316q21.7734.30545,37.4844.30537,19.63245,0,32.34-.30537l15.83852,34.1733c1.0191,2.08775,2.44531,5.297,4.329,9.67655q11.45985-19.7098,27.14538-43.84985,13.29233.30545,31.78018.30537,17.18745,0,32.696-.30537l-23.88554,31.32135q-7.02768,9.24365-29.99687,40.59078Q864.78691,336.60283,901.2,393.26171q-16.88225-.30544-33.25577-.306-20.016,0-35.85442.306c-6.46843-13.90377-11.40829-24.24216-14.82035-30.8625-3.46348-6.67209-6.36623-12.78387-8.75935-18.38557l-4.78732,8.19954c-1.47747,2.49548-3.76932,6.16244-6.82553,11.05165l-18.94475,29.99688q-16.11919-.30544-31.37181-.306C734.86635,392.95572,722.94875,393.05808,710.92971,393.26171Z"/><path class="cls-1" d="M248.08637,431.23705a5.03233,5.03233,0,0,0-4.93488-2.75131,6.102,6.102,0,0,0-3.42141.85582,2.6345,2.6345,0,0,0-1.25,2.23638,2.351,2.351,0,0,0,1.305,1.9695,25.73392,25.73392,0,0,0,4.13405,1.93693,46.06672,46.06672,0,0,1,4.46342,1.97837,5.42331,5.42331,0,0,1,2.33531,2.10349,5.31883,5.31883,0,0,1,.7237,2.8842,5.75616,5.75616,0,0,1-.9761,3.042,8.44746,8.44746,0,0,1-4.55066,3.14223,17.032,17.032,0,0,1-5.7787.85691,16.34786,16.34786,0,0,1-6.90888-1.34691,23.88639,23.88639,0,0,0,1.23909-4.09807h.80082a4.32647,4.32647,0,0,0,2.08339,2.54333,7.5956,7.5956,0,0,0,3.827.90583,6.92761,6.92761,0,0,0,3.55322-.84694,2.63754,2.63754,0,0,0,1.45784-2.39437,3.10947,3.10947,0,0,0-1.58949-2.49439,34.20417,34.20417,0,0,0-4.80322-2.04476c-.5263-.20782-1.16213-.49856-1.91886-.872-.75626-.37454-1.24984-.61526-1.50193-.724a4.79227,4.79227,0,0,1-2.14944-2.05238,5.84051,5.84051,0,0,1-.74567-2.83513c0-2.10254,1.08547-3.79876,3.23476-5.08678a9.72038,9.72038,0,0,1,2.98267-1.25545,17.05073,17.05073,0,0,1,3.65122-.34074,14.69908,14.69908,0,0,1,6.39287,1.288.71591.71591,0,0,0,.31831.208q-.67355,1.52211-1.31575,3.19223Z"/><path class="cls-1" d="M254.6556,433.53108c.57039.0578,1.41484.09161,2.54441.09161.614,0,1.62283-.03381,3.03767-.09161l-.19756,2.39436a7.6899,7.6899,0,0,1,2.7633-1.962,8.72813,8.72813,0,0,1,3.5526-.78945,7.80144,7.80144,0,0,1,3.55322.748,4.59235,4.59235,0,0,1,2.1711,2.20257A8.37634,8.37634,0,0,1,278.594,433.124a7.379,7.379,0,0,1,4.869,1.44584,5.16852,5.16852,0,0,1,1.83067,4.28985c0,.5813-.01075,1.45457-.03256,2.60969-.02181,1.14763-.03319,2.02854-.03319,2.62729,0,.56509.01138,1.38819.03319,2.48566.02181,1.09638.03256,1.91964.03256,2.45949l-.38312-.05q-1.71164-.09789-2.63227-.09907c-.31784,0-.81095.02508-1.50178.06635-.68054.04146-1.2179.06655-1.60117.08275a11.3101,11.3101,0,0,0,.14209-1.645c0-.7318.03334-1.82927.09862-3.30019.06575-1.4633.09893-2.56077.09893-3.28369a12.32523,12.32523,0,0,0-.19755-2.64365,2.69435,2.69435,0,0,0-.95367-1.70385,3.1639,3.1639,0,0,0-2.14929-.698,3.446,3.446,0,0,0-2.8842,1.20529,2.68251,2.68251,0,0,0-.56993.98871,8.94746,8.94746,0,0,0-.15362,1.39677c0,.29073-.01075.72292-.033,1.30436-.022.58256-.03272,1.01475-.03272,1.28928,0,1.0473.02228,2.19478.07666,3.44151.04362,1.24657.08772,2.46058.12028,3.64841-.3504-.0162-.86595-.04129-1.546-.08275-.6902-.04127-1.19484-.06635-1.546-.06635-.32874,0-.83354.02508-1.50193.06635-.68008.04146-1.20637.06655-1.59027.08275q.46062-6.14709.46055-7.63009,0-.7121-.13165-2.294c-.20847-2.19494-1.28257-3.28368-3.22386-3.28368-2.22594,0-3.38822,1.28786-3.48747,3.88132,0,.21674-.01013.53239-.03256.93982-.02182.40711-.03272.70656-.03272.91455q0,2.48076.263,7.47211c-.36193-.0162-.877-.04129-1.57921-.08275-.69036-.04127-1.21665-.06635-1.58964-.06635-.318,0-.80083.02508-1.43665.06635-.64674.04146-1.15138.06655-1.51347.08275q0-1.52023.06591-4.563c.04409-2.02839.0659-3.54933.0659-4.5717q0-2.0823-.13181-6.376Z"/><path class="cls-1" d="M294.10093,444.75319c0,1.66256.76748,2.49329,2.31351,2.49329,2.09429,0,3.1472-1.1464,3.1472-3.44057a26.91742,26.91742,0,0,1,.13165-3.09329c-.8552.292-1.42528.47363-1.70011.54889-.24072.06746-.55855.15782-.96473.258-.39465.1002-.7131.19056-.93185.26566a3.65,3.65,0,0,0-.68008.32453,2.88272,2.88272,0,0,0-1.31559,2.6435Zm-4.01377-7.43971-.51508-1.93677a10.77887,10.77887,0,0,1,3.60759-1.57983,16.80171,16.80171,0,0,1,4.27615-.55637,13.15919,13.15919,0,0,1,5.47223,1.06366,3.66777,3.66777,0,0,1,2.43394,3.26748v2.14366q0,1.07319-.06529,2.51949c-.055.96364-.07681,1.70292-.07681,2.21021a15.20546,15.20546,0,0,0,.07681,1.8542,1.54631,1.54631,0,0,0,.97548,1.38819c.48283.04145.92173.05781,1.31637.05781.13119,0,.19709.16655.19709.49091v.29947a18.8018,18.8018,0,0,1-2.1052.65655,13.50955,13.50955,0,0,1-1.766.19927,5.34536,5.34536,0,0,1-2.5765-.61511,3.70107,3.70107,0,0,1-1.64464-1.68764,5.54342,5.54342,0,0,1-2.33547,1.7213,8.7878,8.7878,0,0,1-7.54472-.47473,3.53472,3.53472,0,0,1-1.68858-3.13349,3.65379,3.65379,0,0,1,.67992-2.10241,4.1221,4.1221,0,0,1,1.87492-1.48836,26.74563,26.74563,0,0,1,5.26362-1.35439,12.861,12.861,0,0,0,3.0922-.8482,1.35943,1.35943,0,0,0,.52646-1.23908,2.24346,2.24346,0,0,0-1.195-1.91184,4.922,4.922,0,0,0-2.75239-.78073,8.14519,8.14519,0,0,0-4.72641,1.496c-.09863.06637-.25209.18291-.46055.34073Z"/><path class="cls-1" d="M322.89828,437.86985a4.52026,4.52026,0,0,0-2.17141-.43983c-2.08339,0-3.41.7142-3.95877,2.14493a18.25916,18.25916,0,0,0-.25209,3.78131c0,2.10347.08818,3.999.25209,5.68553-.318-.0162-.83354-.04129-1.53465-.08275-.70221-.04127-1.21729-.06635-1.53512-.06635-.373,0-.87764.02508-1.54665.06635-.65764.04146-1.16228.06655-1.49118.08275q.21406-2.742.20862-8.17882,0-3.441-.20862-7.33189c1.23909.0578,2.16019.09161,2.7633.09161.64689,0,1.63437-.03381,2.961-.09161l-.14272,3.998a7.55127,7.55127,0,0,1,7.24806-4.2886,15.38273,15.38273,0,0,0-.25209,2.33531q0,.312.03319.99729c.02182.466.03272.81452.03272,1.04746Z"/><path class="cls-1" d="M333.52538,427.98718c-.296,3.03331-.44965,4.94515-.44965,5.752h3.80516v1.64605h-3.80516c-.17527,2.942-.27374,5.30241-.27374,7.07388,0,.49.04347,1.27929.13165,2.34419a5.23907,5.23907,0,0,0,.55918,2.185,1.96372,1.96372,0,0,0,1.75386.6578,9.30673,9.30673,0,0,0,1.44771-.15035c.06575-.01621.13166-.03272.20846-.05765.08757-.02508.18619-.0578.31784-.09145v1.24657a1.362,1.362,0,0,0-.3398.14924,18.04792,18.04792,0,0,1-4.14543.60749q-3.10777,0-4.37461-1.33055a5.24229,5.24229,0,0,1-1.27228-3.75732c0-1.10512.08772-2.81768.25209-5.13679,0-.42363.01091-1.04731.03256-1.8782.02228-.83182.03319-1.44693.03319-1.86183h-3.01524v-1.64605h3.01524c0-.44108-.02166-1.08127-.07665-1.9371-.05453-.85565-.08709-1.50472-.10953-1.96184,1.45846-.43236,3.4211-1.09656,5.8555-1.99474Z"/><path class="cls-1" d="M355.75443,427.04753c.63583,0,1.79811-.06652,3.47579-.19927-.02119.50745-.07666,1.27166-.15285,2.28531-.08771,1.01474-.14271,1.77147-.165,2.25274v4.38115c.99791,0,2.16019.01636,3.50913.04908,1.32665.04238,2.34684.05874,3.07039.05874.75673,0,1.79812-.01636,3.11448-.05874,1.31575-.03272,2.4556-.04908,3.41-.04908v-4.5717c0-1.07238-.08772-2.51947-.27437-4.3475,1.67783.13275,2.8733.19927,3.56413.19927q.8876,0,3.5526-.19927c-.04363.51493-.12028,1.24673-.24119,2.17748a20.20085,20.20085,0,0,0-.16436,2.26911c-.08772,3.3915-.13166,5.89353-.13166,7.52337a96.11277,96.11277,0,0,0,.4054,10.22357c-.42737-.0162-1.01957-.04129-1.7654-.08275-.74582-.04127-1.30437-.06635-1.65539-.06635-.44965,0-1.09638.02508-1.96311.06635-.85519.04146-1.46936.06655-1.85311.08275.165-1.99458.29618-3.49916.39466-4.49662q.13157-3.09139.1318-4.638v-1.54618q-4.342-.09956-6.52452-.10018-2.1059,0-6.57952.10018v3.89786q0,3.04257.31784,6.783c-.36193-.0162-.92095-.04129-1.67768-.08275-.76764-.04127-1.31575-.06635-1.66646-.06635-.42783,0-1.05275.02508-1.88629.06635-.83339.04146-1.46922.06655-1.919.08275a106.65044,106.65044,0,0,0,.5919-11.91994q0-5.9592-.40571-10.27359C353.9557,426.981,355.1077,427.04753,355.75443,427.04753Z"/><path class="cls-1" d="M395.81377,439.75677a1.54369,1.54369,0,0,1-.03334-.37346,1.47678,1.47678,0,0,0-.033-.36582c-.14271-3.017-1.11819-4.53041-2.94948-4.53041a2.65222,2.65222,0,0,0-2.69756,1.53839,12.29053,12.29053,0,0,0-.86611,3.7313Zm-6.57952,1.55475a13.5077,13.5077,0,0,0,.14272,1.84546,4.818,4.818,0,0,0,.72339,1.74531,4.90385,4.90385,0,0,0,1.29347,1.44707,6.771,6.771,0,0,0,3.82758.99731,8.98027,8.98027,0,0,0,4.98878-1.44585l.52693.29821-.9102,1.79546a12.987,12.987,0,0,1-6.11881,1.44693,18.49535,18.49535,0,0,1-4.68232-.51492,9.47773,9.47773,0,0,1-3.59669-1.9293,7.50289,7.50289,0,0,1-2.445-6.04278,7.37045,7.37045,0,0,1,1.15091-4.0655,7.77254,7.77254,0,0,1,3.38823-2.79259,12.7196,12.7196,0,0,1,5.27468-1.01381,11.81834,11.81834,0,0,1,4.94516.91456,6.21018,6.21018,0,0,1,2.91738,2.52711,7.28755,7.28755,0,0,1,.93139,3.74,6.11467,6.11467,0,0,1-.06529,1.0473Z"/><path class="cls-1" d="M409.21508,444.75319c0,1.66256.76686,2.49329,2.31351,2.49329,2.09429,0,3.1472-1.1464,3.1472-3.44057a26.91742,26.91742,0,0,1,.13165-3.09329c-.8552.292-1.42528.47363-1.69949.54889-.24165.06746-.55917.15782-.96535.258-.39464.1002-.7131.19056-.93185.26566a3.65,3.65,0,0,0-.68008.32453,2.88272,2.88272,0,0,0-1.31559,2.6435Zm-4.01376-7.43971-.51509-1.93677a10.78032,10.78032,0,0,1,3.60759-1.57983,16.80176,16.80176,0,0,1,4.27615-.55637,13.15919,13.15919,0,0,1,5.47223,1.06366,3.66779,3.66779,0,0,1,2.434,3.26748v2.14366q0,1.07319-.06529,2.51949c-.055.96364-.07728,1.70292-.07728,2.21021a15.1808,15.1808,0,0,0,.07728,1.8542,1.54632,1.54632,0,0,0,.97547,1.38819c.48283.04145.92173.05781,1.31638.05781.13118,0,.19709.16655.19709.49091v.29947a18.80331,18.80331,0,0,1-2.1052.65655,13.50983,13.50983,0,0,1-1.766.19927,5.34529,5.34529,0,0,1-2.57649-.61511,3.701,3.701,0,0,1-1.64465-1.68764A5.54342,5.54342,0,0,1,412.472,448.81a8.78778,8.78778,0,0,1-7.54471-.47473,3.53471,3.53471,0,0,1-1.68859-3.13349,3.65379,3.65379,0,0,1,.67992-2.10241,4.12216,4.12216,0,0,1,1.87492-1.48836,26.74583,26.74583,0,0,1,5.26362-1.35439,12.861,12.861,0,0,0,3.0922-.8482,1.35943,1.35943,0,0,0,.52646-1.23908,2.24347,2.24347,0,0,0-1.195-1.91184,4.92211,4.92211,0,0,0-2.7524-.78073,8.14522,8.14522,0,0,0-4.72641,1.496c-.09863.06637-.25209.18291-.46055.34073Z"/><path class="cls-1" d="M431.94815,449.04179c-.3398-.0162-.877-.04129-1.601-.08275-.72354-.04127-1.2609-.06635-1.60055-.06635-.36255,0-.89992.02508-1.64527.06635-.73492.04146-1.26075.06655-1.59.08275q.26292-2.49221.26284-7.52229v-6.23425c0-.5989-.01091-1.4798-.03272-2.66q-.03342-1.75722-.03256-2.6435c0-.78166-.04425-2.04474-.13244-3.7824a5.49082,5.49082,0,0,0-.07665-.80565c-.05391-.35835-.08709-.64019-.10937-.83948a24.03377,24.03377,0,0,0,3.202.19929,23.71478,23.71478,0,0,0,3.30066-.19929,5.36662,5.36662,0,0,1-.06543.68149,5.426,5.426,0,0,0-.06575.7142q0,.57351-.03334,1.74638c-.02166.78073-.03257,1.36327-.03257,1.73673q0,.92266-.03333,2.66858-.03249,1.7572-.03257,2.6184Q431.63016,443.06227,431.94815,449.04179Z"/><path class="cls-1" d="M443.89147,427.98718c-.29618,3.03331-.44965,4.94515-.44965,5.752h3.80531v1.64605h-3.80531c-.17543,2.942-.2739,5.30241-.2739,7.07388,0,.49.04347,1.27929.13166,2.34419a5.23894,5.23894,0,0,0,.55917,2.185,1.96423,1.96423,0,0,0,1.754.6578,9.305,9.305,0,0,0,1.44755-.15035c.06591-.01621.13166-.03272.20847-.05765.08771-.02508.18618-.0578.31783-.09145v1.24657a1.3537,1.3537,0,0,0-.33949.14924,18.05124,18.05124,0,0,1-4.14558.60749q-3.108,0-4.37476-1.33055a5.2436,5.2436,0,0,1-1.27213-3.75732c0-1.10512.08756-2.81768.25193-5.13679,0-.42363.01091-1.04731.03272-1.8782.02228-.83182.03319-1.44693.03319-1.86183h-3.01539v-1.64605h3.01539c0-.44108-.02181-1.08127-.07666-1.9371-.05453-.85565-.08725-1.50472-.10952-1.96184,1.45831-.43236,3.42094-1.09656,5.8555-1.99474Z"/><path class="cls-1" d="M455.92234,432.23434l-.0659,3.48309a12.3253,12.3253,0,0,1,2.99374-1.77908,8.33546,8.33546,0,0,1,3.32294-.76437,8.12165,8.12165,0,0,1,5.01106,1.496,4.82361,4.82361,0,0,1,1.76539,4.1395v10.2323c-.33965-.0162-.8661-.04129-1.57921-.08275-.70173-.04127-1.22819-.06635-1.58965-.06635-.33965,0-.86672.02508-1.59011.06635-.71264.04146-1.22866.06655-1.55755.08275.02243-.20784.0659-.55638.1209-1.03857a9.82872,9.82872,0,0,0,.07681-1.05619l.13118-2.94185a20.74532,20.74532,0,0,0,.14256-2.89293,13.15669,13.15669,0,0,0-.33965-3.24988,2.64818,2.64818,0,0,0-1.19562-1.38819,3.78661,3.78661,0,0,0-2.02823-.54874c-1.58965,0-2.59847.51491-3.0372,1.546a11.42992,11.42992,0,0,0-.64736,4.2886c0,.5411.01153,1.28911.03334,2.22766.02166.93964.05437,1.888.09847,2.82656.03271.93964.055,1.68765.06543,2.2275-.33979-.0162-.85535-.04129-1.54618-.08275-.67929-.04127-1.19484-.06635-1.53511-.06635-.3289,0-.83339.02508-1.51284.06635-.669.04146-1.20652.06655-1.58965.08275q.13065-1.383.13073-2.09476l.20892-8.021c0-.42347.01044-1.05618.03272-1.88691.02228-.83931.03272-1.4795.03272-1.91185q0-5.36165-.40509-10.57305a23.37019,23.37019,0,0,0,3.2343.19929,19.12409,19.12409,0,0,0,3.22385-.19929Z"/><path class="cls-1" d="M489.61079,437.97876h-.99838a3.74164,3.74164,0,0,0-1.41437-2.32768,4.62831,4.62831,0,0,0-2.98268-.92235,4.26681,4.26681,0,0,0-3.91468,1.97837,7.86132,7.86132,0,0,0-1.22819,4.24732,6.43529,6.43529,0,0,0,1.44756,4.58821,6.33363,6.33363,0,0,0,4.94531,1.804,6.71585,6.71585,0,0,0,4.46279-1.546l.724.44856-1.04138,1.88676a6.73456,6.73456,0,0,1-2.58866.92344,16.94931,16.94931,0,0,1-3.14642.332q-5.4614,0-8.15888-2.04474a7.02415,7.02415,0,0,1-3.08114-5.78571,7.31046,7.31046,0,0,1,1.40393-4.43911,8.86359,8.86359,0,0,1,3.9474-2.9255,15.66115,15.66115,0,0,1,5.88869-1.02237,16.54052,16.54052,0,0,1,7.36866,1.45472Z"/><path class="cls-1" d="M498.46143,444.75319c0,1.66256.767,2.49329,2.31366,2.49329,2.09367,0,3.14658-1.1464,3.14658-3.44057a26.91974,26.91974,0,0,1,.13165-3.09329c-.85457.292-1.42512.47363-1.69949.54889-.24118.06746-.55917.15782-.96457.258-.3948.1002-.71326.19056-.93215.26566a3.63785,3.63785,0,0,0-.6804.32453,2.88344,2.88344,0,0,0-1.31528,2.6435Zm-4.01377-7.43971-.51554-1.93677a10.78372,10.78372,0,0,1,3.60821-1.57983,16.79444,16.79444,0,0,1,4.27614-.55637,13.16118,13.16118,0,0,1,5.47223,1.06366,3.66779,3.66779,0,0,1,2.43395,3.26748v2.14366q0,1.07319-.06529,2.51949c-.055.96364-.07743,1.70292-.07743,2.21021a15.1736,15.1736,0,0,0,.07743,1.8542,1.54631,1.54631,0,0,0,.97548,1.38819c.483.04145.92157.05781,1.31637.05781.13118,0,.19709.16655.19709.49091v.29947a18.82057,18.82057,0,0,1-2.10581.65655,13.50124,13.50124,0,0,1-1.7654.19927,5.34732,5.34732,0,0,1-2.57712-.61511,3.70183,3.70183,0,0,1-1.64465-1.68764A5.54091,5.54091,0,0,1,501.718,448.81a8.7877,8.7877,0,0,1-7.54471-.47473,3.53438,3.53438,0,0,1-1.68857-3.13349,3.65811,3.65811,0,0,1,.67975-2.10241,4.12663,4.12663,0,0,1,1.8754-1.48836,26.732,26.732,0,0,1,5.26376-1.35439,12.84716,12.84716,0,0,0,3.09158-.8482,1.35837,1.35837,0,0,0,.52646-1.23908,2.24273,2.24273,0,0,0-1.19438-1.91184,4.92453,4.92453,0,0,0-2.753-.78073,8.1444,8.1444,0,0,0-4.72626,1.496c-.09862.06637-.25162.18291-.46054.34073Z"/><path class="cls-1" d="M527.258,437.86985a4.518,4.518,0,0,0-2.1711-.43983c-2.08338,0-3.41.7142-3.95877,2.14493a18.25916,18.25916,0,0,0-.25209,3.78131c0,2.10347.08818,3.999.25209,5.68553-.318-.0162-.83339-.04129-1.53465-.08275-.7022-.04127-1.21775-.06635-1.53527-.06635-.37331,0-.87748.02508-1.546.06635-.65811.04146-1.16275.06655-1.49165.08275q.2141-2.742.20862-8.17882,0-3.441-.20862-7.33189c1.23925.0578,2.1602.09161,2.76332.09161.64735,0,1.63388-.03381,2.961-.09161l-.14255,3.998a7.551,7.551,0,0,1,7.24805-4.2886,15.317,15.317,0,0,0-.25271,2.33531q0,.312.03319.99729c.02228.466.03318.81452.03318,1.04746Z"/><path class="cls-1" d="M542.43654,439.75677a1.56994,1.56994,0,0,1-.03318-.37346,1.47517,1.47517,0,0,0-.03319-.36582c-.14209-3.017-1.11819-4.53041-2.94948-4.53041a2.652,2.652,0,0,0-2.6974,1.53839,12.30337,12.30337,0,0,0-.86626,3.7313Zm-6.57951,1.55475a13.50752,13.50752,0,0,0,.14271,1.84546,4.81884,4.81884,0,0,0,.72355,1.74531,4.90256,4.90256,0,0,0,1.29393,1.44707,6.7687,6.7687,0,0,0,3.82713.99731,8.9822,8.9822,0,0,0,4.98924-1.44585l.52645.29821-.90972,1.79546a12.99139,12.99139,0,0,1-6.11944,1.44693,18.50312,18.50312,0,0,1-4.68232-.51492,9.47368,9.47368,0,0,1-3.59622-1.9293,7.50216,7.50216,0,0,1-2.44547-6.04278,7.37045,7.37045,0,0,1,1.15091-4.0655,7.777,7.777,0,0,1,3.38885-2.79259,12.71458,12.71458,0,0,1,5.27406-1.01381,11.82127,11.82127,0,0,1,4.94577.91456,6.21541,6.21541,0,0,1,2.9174,2.52711,7.29217,7.29217,0,0,1,.93138,3.74,6.181,6.181,0,0,1-.06528,1.0473Z"/><path class="cls-2" d="M692.85356,444.96554l2.11159-7.82749a24.009,24.009,0,0,1-4.771,5.879q-2.70324,2.37747-5.02445,2.37926a3.14966,3.14966,0,0,1-2.81006-1.49274,5.02884,5.02884,0,0,1-.85363-3.15764,16.2022,16.2022,0,0,1,2.66109-7.32566,18.30732,18.30732,0,0,1,5.356-5.80814,10.48747,10.48747,0,0,1,5.72027-1.91107,8.13824,8.13824,0,0,1,1.23925.10283,11.95522,11.95522,0,0,1,1.44678.32438h5.08989l-5.081,18.83724Zm3.32514-12.3325.84475-3.12383a4.972,4.972,0,0,0-1.171-.48036,4.76725,4.76725,0,0,0-1.19048-.15438,5.03451,5.03451,0,0,0-3.162,1.321,12.88813,12.88813,0,0,0-3.08754,4.34891,14.29969,14.29969,0,0,0-1.60461,4.89841,1.91819,1.91819,0,0,0,.16671.94338.74731.74731,0,0,0,.75.445q1.37745,0,4.04758-2.88093A54.23363,54.23363,0,0,0,696.1787,432.633Z"/><path class="cls-2" d="M702.70383,444.96554,707.785,426.1283h5.08477l-2.10007,7.82578a25.39486,25.39486,0,0,1,4.84451-6.02268,7.66473,7.66473,0,0,1,4.97491-2.23031,3.03974,3.03974,0,0,1,2.30743.94494,3.55031,3.55031,0,0,1,.76748,2.81363,11.91939,11.91939,0,0,1-.39792,2.24807l-3.59373,13.25781h-5.08475l3.48467-12.91738a3.34009,3.34009,0,0,0,.13555-.71981c.0444-.64176-.17372-.961-.65593-.961q-1.20731,0-3.68752,2.81362a61.72839,61.72839,0,0,0-4.37835,5.54049l-1.69746,6.24407Z"/><path class="cls-2" d="M884.73728,444.65565l2.10427-7.79991a23.92923,23.92923,0,0,1-4.7543,5.85846q-2.69507,2.36906-5.00684,2.37084a3.1382,3.1382,0,0,1-2.80009-1.48744,5.0047,5.0047,0,0,1-.8499-3.14673,16.14917,16.14917,0,0,1,2.65-7.3001,18.24748,18.24748,0,0,1,5.33886-5.78774,10.44694,10.44694,0,0,1,5.69955-1.90436,8.10941,8.10941,0,0,1,1.23505.10236,11.91793,11.91793,0,0,1,1.44149.32329h5.07228l-5.06341,18.77133ZM888.05,432.3663l.84273-3.11292a4.94962,4.94962,0,0,0-1.166-.47862,4.75451,4.75451,0,0,0-1.18721-.15378,5.01093,5.01093,0,0,0-3.15016,1.31637,12.83335,12.83335,0,0,0-3.07754,4.33363,14.22718,14.22718,0,0,0-1.59886,4.88144,1.90322,1.90322,0,0,0,.16593.93993.74447.74447,0,0,0,.7474.44343q1.37274,0,4.03338-2.87082A53.84056,53.84056,0,0,0,888.05,432.3663Z"/><path class="cls-2" d="M893.61675,443.836l.97174-3.62349a14.05965,14.05965,0,0,0,5.94151,1.70837,3.03735,3.03735,0,0,0,1.87087-.59018,2.0024,2.0024,0,0,0,.85348-1.51221,2.10068,2.10068,0,0,0-.17138-1.00165,7.83267,7.83267,0,0,0-1.34629-1.64854l-1.18378-1.24891a11.74984,11.74984,0,0,1-2.27549-2.95588,4.42673,4.42673,0,0,1-.34993-2.03524,5.5454,5.5454,0,0,1,2.11314-3.72585,8.471,8.471,0,0,1,5.77714-1.74373,17.08779,17.08779,0,0,1,5.32485.80378l-.947,3.48763a11.04968,11.04968,0,0,0-4.49629-1.1291,3.18307,3.18307,0,0,0-2.05469.57242,1.9447,1.9447,0,0,0-.75784,1.41156,1.82336,1.82336,0,0,0,.24369,1.06725,8.65451,8.65451,0,0,0,1.31448,1.4963l1.36389,1.34973a10.53424,10.53424,0,0,1,1.93818,2.40278,4.37515,4.37515,0,0,1,.50713,2.454,5.42524,5.42524,0,0,1-2.3269,4.09352,9.4991,9.4991,0,0,1-5.82668,1.61646A18.72992,18.72992,0,0,1,893.61675,443.836Z"/><path class="cls-2" d="M909.63553,443.836l.97361-3.62349a14.04559,14.04559,0,0,0,5.93964,1.70837,3.03815,3.03815,0,0,0,1.871-.59018,2.00268,2.00268,0,0,0,.85334-1.51221,2.07892,2.07892,0,0,0-.17155-1.00165,7.885,7.885,0,0,0-1.34613-1.64854l-1.18379-1.24891a11.74948,11.74948,0,0,1-2.27548-2.95588,4.42633,4.42633,0,0,1-.34992-2.03524,5.54471,5.54471,0,0,1,2.11313-3.72585,8.47105,8.47105,0,0,1,5.77714-1.74373,17.0879,17.0879,0,0,1,5.32486.80378l-.947,3.48763a11.04976,11.04976,0,0,0-4.49629-1.1291,3.18318,3.18318,0,0,0-2.05472.57242,1.94546,1.94546,0,0,0-.758,1.41156,1.82465,1.82465,0,0,0,.24381,1.06725,8.65341,8.65341,0,0,0,1.31466,1.4963l1.36373,1.34973a10.53807,10.53807,0,0,1,1.93818,2.40278,4.37375,4.37375,0,0,1,.507,2.454,5.42473,5.42473,0,0,1-2.32677,4.09352,9.4994,9.4994,0,0,1-5.82668,1.61646A18.72936,18.72936,0,0,1,909.63553,443.836Z"/><path class="cls-2" d="M933.59227,445.085a6.96029,6.96029,0,0,1-5.02819-1.73657,5.4499,5.4499,0,0,1-1.61115-4.53882,15.99493,15.99493,0,0,1,7.09522-11.62314,11.59207,11.59207,0,0,1,6.14468-1.72784,7.0717,7.0717,0,0,1,5.15517,1.74373,5.48765,5.48765,0,0,1,1.58638,4.52979,14.58519,14.58519,0,0,1-2.23483,6.5898,14.82256,14.82256,0,0,1-4.79839,5.02648A11.71628,11.71628,0,0,1,933.59227,445.085Zm1.30905-3.2843a4.564,4.564,0,0,0,3.1095-1.22087,9.97076,9.97076,0,0,0,2.37442-3.43621,13.1572,13.1572,0,0,0,1.15543-4.52278,4.52458,4.52458,0,0,0-.54235-2.89745,2.35251,2.35251,0,0,0-2.0812-.984,4.506,4.506,0,0,0-3.00682,1.21541,9.83379,9.83379,0,0,0-2.39935,3.42764,13.28226,13.28226,0,0,0-1.16774,4.57387,4.42885,4.42885,0,0,0,.55465,2.86208A2.28454,2.28454,0,0,0,934.90132,441.80074Z"/><path class="cls-2" d="M961.35619,443.42606a20.26218,20.26218,0,0,1-7.60579,1.659,6.447,6.447,0,0,1-4.63947-1.67658,5.52523,5.52523,0,0,1-1.55116-4.63246,13.9072,13.9072,0,0,1,2.1979-6.43791,15.08945,15.08945,0,0,1,5.06341-5.01728,11.87372,11.87372,0,0,1,6.16212-1.86214,14.0804,14.0804,0,0,1,4.55129.85488l-.95242,3.57239a9.81882,9.81882,0,0,0-4.14464-1.265,5.60943,5.60943,0,0,0-3.32856,1.15371,9.33942,9.33942,0,0,0-2.763,3.4962,12.25868,12.25868,0,0,0-1.3251,4.61657,3.23592,3.23592,0,0,0,.73664,2.67481,3.14976,3.14976,0,0,0,2.27221.82855,8.02288,8.02288,0,0,0,1.7294-.23136,22.2844,22.2844,0,0,0,2.20507-.62368,14.625,14.625,0,0,0,2.459-1.10947Z"/><path class="cls-2" d="M964.96365,444.65565l1.48057-5.48734h5.50152l-1.48058,5.48734Z"/><path class="cls-2" d="M995.98023,443.42606a20.25471,20.25471,0,0,1-7.60408,1.659,6.44659,6.44659,0,0,1-4.63931-1.67658,5.519,5.519,0,0,1-1.55117-4.63246,13.88218,13.88218,0,0,1,2.19775-6.43791,15.07261,15.07261,0,0,1,5.0634-5.01728,11.86927,11.86927,0,0,1,6.16229-1.86214,14.09572,14.09572,0,0,1,4.551.85488l-.95382,3.57239a9.82063,9.82063,0,0,0-4.14478-1.265,5.61324,5.61324,0,0,0-3.32857,1.15371,9.33934,9.33934,0,0,0-2.763,3.4962,12.25883,12.25883,0,0,0-1.32525,4.61657,3.23651,3.23651,0,0,0,.7385,2.67481,3.14688,3.14688,0,0,0,2.27207.82855,7.995,7.995,0,0,0,1.72784-.23136,22.26932,22.26932,0,0,0,2.20477-.62368,14.49549,14.49549,0,0,0,2.45932-1.10947Z"/><path class="cls-2" d="M1005.93738,445.085a6.95968,6.95968,0,0,1-5.02805-1.73657,5.45012,5.45012,0,0,1-1.61146-4.53882,16.0101,16.0101,0,0,1,7.09523-11.62314,11.59716,11.59716,0,0,1,6.14469-1.72784,7.06823,7.06823,0,0,1,5.15516,1.74373,5.48236,5.48236,0,0,1,1.58669,4.52979,14.60474,14.60474,0,0,1-2.23327,6.5898,14.84277,14.84277,0,0,1-4.79823,5.02648A11.72692,11.72692,0,0,1,1005.93738,445.085Zm1.30733-3.2843a4.56917,4.56917,0,0,0,3.11292-1.22087,10.02164,10.02164,0,0,0,2.37443-3.43621,13.23526,13.23526,0,0,0,1.15542-4.52278,4.53572,4.53572,0,0,0-.54419-2.89745,2.35006,2.35006,0,0,0-2.08122-.984,4.51017,4.51017,0,0,0-3.00683,1.21541,9.79186,9.79186,0,0,0-2.39935,3.42764,13.32688,13.32688,0,0,0-1.16929,4.57387,4.45051,4.45051,0,0,0,.55465,2.86208A2.28457,2.28457,0,0,0,1007.24471,441.80074Z"/><path class="cls-2" d="M1019.018,444.65565l1.48059-5.48734H1026l-1.48027,5.48734Z"/><path class="cls-2" d="M860.52628,422.01435a2.74126,2.74126,0,0,1,2.74149-2.73043,2.72092,2.72092,0,0,1,2.70863,2.73043,2.72732,2.72732,0,0,1-2.70863,2.73074A2.73672,2.73672,0,0,1,860.52628,422.01435Zm-.22886,0a2.97081,2.97081,0,0,0,2.97035,2.96663,2.96476,2.96476,0,0,0,0-5.92952A2.97,2.97,0,0,0,860.29742,422.01435Z"/><path class="cls-2" d="M862.15659,423.76105h.414v-1.3762h.94041a.83773.83773,0,0,1,.36677.05453.4638.4638,0,0,1,.21779.4283l.04.53752c0,.12339.00358.2069.00358.25037a.36021.36021,0,0,1,.0363.10548h.52661v-.07621c-.069-.02181-.09815-.08725-.13819-.1924a1.01255,1.01255,0,0,1-.02524-.27249l-.01823-.432a.72866.72866,0,0,0-.09442-.40306.66023.66023,0,0,0-.28683-.20332.778.778,0,0,0,.44668-.76608.77319.77319,0,0,0-.43219-.76265,1.37641,1.37641,0,0,0-.581-.10517h-1.41608Zm.414-1.7467V420.9178h1.0021a.77493.77493,0,0,1,.34853.0653.50451.50451,0,0,1,.2362.46475.51409.51409,0,0,1-.17793.45027.75177.75177,0,0,1-.45027.11623Z"/><polygon class="cls-2" points="743.858 426.099 731.672 444.966 740.002 444.966 751.715 426.927 743.858 426.099"/><path class="cls-2" d="M744.14265,425.67461s2.87595-4.68777,3.58765-5.61355a3.041,3.041,0,0,1,2.5363-1.33257h12.57416v6.38336a9.97454,9.97454,0,0,1,1.76492-3.613,7.72347,7.72347,0,0,1,5.68787-2.81752H793.979v6.99333Z"/><path class="cls-2" d="M858.38042,425.68177v-7.00049H833.03906a7.75365,7.75365,0,0,0-5.68708,2.81752,9.94269,9.94269,0,0,0-1.761,3.613v.56276Z"/><rect class="cls-2" x="795.21532" y="418.71369" width="7.08245" height="6.96092"/><rect class="cls-2" x="818.46675" y="418.71369" width="7.07341" height="6.96092"/><path class="cls-2" d="M825.54016,428.18723l-6.95717-.41039v8.07179a2.28416,2.28416,0,0,1-2.29124,2.32769H804.3349a2.22736,2.22736,0,0,1-2.02264-2.30572v-9.19029l-7.0279-.50464v12.38189a7.63275,7.63275,0,0,0,6.556,6.39786s.55185.0363.64268.04362h16.14716s6.91-.54827,6.91-7.1133Z"/><path class="cls-2" d="M755.65145,444.97006H788.774a7.70872,7.70872,0,0,0,6.37059-6.3254,10.34,10.34,0,0,0,.11264-2.785c-.17262-1.03858-2.168-5.62461-6.49616-6.02393-2.58334-.236-25.55885-2.0407-25.55885-2.0407a7.18447,7.18447,0,0,0,2.16767,4.085,9.06231,9.06231,0,0,0,4.13391,1.94629c.61369.05812,17.7069,1.45613,17.7069,1.45613.54467.029,1.57779.16312,1.56486,1.49944a1.39028,1.39028,0,0,1-1.46142,1.33989H762.53945V427.73337l-6.888-.49747Z"/><path class="cls-2" d="M825.609,438.0819h24.605a2.89733,2.89733,0,0,0,1.17646-.3342,1.48,1.48,0,0,0,.46476-1.04574c0-1.33257-1.111-1.39053-1.6702-1.41951,0,0-17.28387-1.42715-17.88653-1.47436a8.37286,8.37286,0,0,1-3.9943-1.888,6.7955,6.7955,0,0,1-2.29933-3.71479s23.10529,1.34722,25.67244,1.58684c4.33552.41023,6.36513,4.655,6.5468,6.06756a10.84406,10.84406,0,0,1-.03989,2.84307,7.66236,7.66236,0,0,1-7.25134,6.329H825.591Z"/><path class="cls-2" d="M860.52628,422.01435a2.74126,2.74126,0,0,1,2.74149-2.73043,2.72092,2.72092,0,0,1,2.70863,2.73043,2.72732,2.72732,0,0,1-2.70863,2.73074A2.73672,2.73672,0,0,1,860.52628,422.01435Zm-.22886,0a2.97081,2.97081,0,0,0,2.97035,2.96663,2.96476,2.96476,0,0,0,0-5.92952A2.97,2.97,0,0,0,860.29742,422.01435Z"/><path class="cls-2" d="M862.15659,423.76105h.414v-1.3762h.94041a.83773.83773,0,0,1,.36677.05453.4638.4638,0,0,1,.21779.4283l.04.53752c0,.12339.00358.2069.00358.25037a.36021.36021,0,0,1,.0363.10548h.52661v-.07621c-.069-.02181-.09815-.08725-.13819-.1924a1.01255,1.01255,0,0,1-.02524-.27249l-.01823-.432a.72866.72866,0,0,0-.09442-.40306.66023.66023,0,0,0-.28683-.20332.778.778,0,0,0,.44668-.76608.77319.77319,0,0,0-.43219-.76265,1.37641,1.37641,0,0,0-.581-.10517h-1.41608Zm.414-1.7467V420.9178h1.0021a.77493.77493,0,0,1,.34853.0653.50451.50451,0,0,1,.2362.46475.51409.51409,0,0,1-.17793.45027.75177.75177,0,0,1-.45027.11623Z"/><polygon class="cls-2" points="743.858 426.099 731.672 444.966 740.002 444.966 751.715 426.927 743.858 426.099"/><path class="cls-2" d="M744.14265,425.67461s2.87595-4.68777,3.58765-5.61355a3.041,3.041,0,0,1,2.5363-1.33257h12.57416v6.38336a9.97454,9.97454,0,0,1,1.76492-3.613,7.72347,7.72347,0,0,1,5.68787-2.81752H793.979v6.99333Z"/><path class="cls-2" d="M858.38042,425.68177v-7.00049H833.03906a7.75365,7.75365,0,0,0-5.68708,2.81752,9.94269,9.94269,0,0,0-1.761,3.613v.56276Z"/><rect class="cls-2" x="795.21532" y="418.71369" width="7.08245" height="6.96092"/><rect class="cls-2" x="818.46675" y="418.71369" width="7.07341" height="6.96092"/><path class="cls-2" d="M825.54016,428.18723l-6.95717-.41039v8.07179a2.28416,2.28416,0,0,1-2.29124,2.32769H804.3349a2.22736,2.22736,0,0,1-2.02264-2.30572v-9.19029l-7.0279-.50464v12.38189a7.63275,7.63275,0,0,0,6.556,6.39786s.55185.0363.64268.04362h16.14716s6.91-.54827,6.91-7.1133Z"/><path class="cls-2" d="M755.65145,444.97006H788.774a7.70872,7.70872,0,0,0,6.37059-6.3254,10.34,10.34,0,0,0,.11264-2.785c-.17262-1.03858-2.168-5.62461-6.49616-6.02393-2.58334-.236-25.55885-2.0407-25.55885-2.0407a7.18447,7.18447,0,0,0,2.16767,4.085,9.06231,9.06231,0,0,0,4.13391,1.94629c.61369.05812,17.7069,1.45613,17.7069,1.45613.54467.029,1.57779.16312,1.56486,1.49944a1.39028,1.39028,0,0,1-1.46142,1.33989H762.53945V427.73337l-6.888-.49747Z"/><path class="cls-2" d="M825.609,438.0819h24.605a2.89733,2.89733,0,0,0,1.17646-.3342,1.48,1.48,0,0,0,.46476-1.04574c0-1.33257-1.111-1.39053-1.6702-1.41951,0,0-17.28387-1.42715-17.88653-1.47436a8.37286,8.37286,0,0,1-3.9943-1.888,6.7955,6.7955,0,0,1-2.29933-3.71479s23.10529,1.34722,25.67244,1.58684c4.33552.41023,6.36513,4.655,6.5468,6.06756a10.84406,10.84406,0,0,1-.03989,2.84307,7.66236,7.66236,0,0,1-7.25134,6.329H825.591Z"/></g></svg>