<svg id="LOGO" xmlns="http://www.w3.org/2000/svg" viewBox="0 0 1250 703"><defs><style>.cls-1{fill:#c74634;}.cls-2{fill:#312d2a;}</style></defs><g id="Layer_4" data-name="Layer 4"><path class="cls-1" d="M556.70975,284.54554h66.06286l-34.90374-56.32631-64.072,101.73448H494.52979L572.536,207.86021a18.61651,18.61651,0,0,1,30.35083-.21695l78.24231,122.31045H651.94077l-13.75568-22.74344H571.29385l-14.5841-22.66473m303.11572,22.66473V201.16H835.01236V317.636a11.95666,11.95666,0,0,0,3.666,8.53373,12.51224,12.51224,0,0,0,9.02612,3.784H960.53574l14.70215-22.74344H859.82541M450.14179,288.25083a43.54545,43.54545,0,0,0,0-87.09085h-108.357V329.95371h24.76355V223.92258H448.496a20.84186,20.84186,0,0,1,0,41.68372l-69.83676-.05954,73.96588,64.407h35.933l-49.67954-41.70294h11.26325M189.42925,329.95371h74.86192a64.397,64.397,0,0,0,0-128.79373H189.42925a64.39687,64.39687,0,1,0-.069,128.79373h.069m73.1475-22.66473H191.075a41.6832,41.6832,0,0,1,0-83.36638h71.50174a41.6832,41.6832,0,0,1,.06263,83.36638q-.03132,0-.06263,0M732.844,329.95371h76.429l14.466-22.66473H734.53922a41.68323,41.68323,0,1,1-.11908-83.36638q.0596-.00009.11908,0h72.60565L821.78848,201.16H732.844a64.397,64.397,0,0,0-.274,128.79371q.13705.00028.274,0M1035.7034,307.289a41.71972,41.71972,0,0,1-40.12671-30.33066H1101.411l14.58411-22.70409H995.57669a41.65734,41.65734,0,0,1,40.12671-30.33165h72.66516L1122.8931,201.16h-88.84558a64.39687,64.39687,0,0,0,0,128.79373h76.42895l14.52564-22.66473H1035.7034"/><path class="cls-2" d="M209.5197,485.07044V496.4166a51.63872,51.63872,0,0,1-13.40372,4.89655,70.15345,70.15345,0,0,1-15.669,1.77069q-22.96931,0-35.52231-14.106-12.553-14.111-12.553-40.21115,0-16.307,5.88576-27.93512A42.2711,42.2711,0,0,1,155.064,402.89732q10.92083-6.321,25.94682-6.31113a56.14259,56.14259,0,0,1,13.5521,1.70142,34.81718,34.81718,0,0,1,11.267,4.67892v11.34616a84.22784,84.22784,0,0,0-12.89922-4.67892,44.25439,44.25439,0,0,0-11.0692-1.42447q-17.00441,0-26.51066,10.56469-9.51122,10.56469-9.50626,29.99268,0,20.56554,9.42711,31.62485,9.437,11.06917,26.5898,11.05929Q194.63711,491.45081,209.5197,485.07044Z"/><path class="cls-2" d="M226.39552,501.38242v-96.576l-7.37947-4.67892v-5.24277h20.1402V501.38242Z"/><path class="cls-2" d="M290.9213,502.94535q-16.73736,0-25.95673-10.28772-9.21445-10.26792-9.21938-28.29123,0-18.14694,9.21938-28.36047,9.21441-10.2086,25.95673-10.20859,16.87088,0,26.09521,10.20859,9.21447,10.20858,9.2095,28.36047,0,18.01341-9.2095,28.29123Q307.78722,502.94037,290.9213,502.94535Zm0-10.49545q10.92081,0,16.589-7.16184,5.66816-7.16679,5.66815-20.92166t-5.66815-20.91177q-5.66817-7.16679-16.589-7.16184-10.78725,0-16.45047,7.16184-5.683,7.152-5.678,20.91177,0,13.75488,5.678,20.92166Q280.13894,492.45487,290.9213,492.4499Z"/><path class="cls-2" d="M342.11258,473.16044V427.36027h12.76074v45.37478q0,9.51123,4.11508,14.61054,4.11018,5.10424,12.04853,5.10428a20.00272,20.00272,0,0,0,12.553-4.60968,28.16721,28.16721,0,0,0,8.86325-12.26615v-48.2138H405.2139v74.02212h-8.64563l-2.27518-12.62219a31.14057,31.14057,0,0,1-26.37216,14.18518q-12.34528,0-19.07187-7.65643Q342.11261,487.61767,342.11258,473.16044Z"/><path class="cls-2" d="M480.23511,501.38242l-2.1268-11.91a29.90694,29.90694,0,0,1-25.106,13.473q-14.60064,0-22.90005-10.20859-8.29455-10.22342-8.29944-28.222,0-18.2953,8.29944-28.50885,8.29444-10.20864,23.187-10.20859a32.18262,32.18262,0,0,1,12.19686,2.41367A34.02974,34.02974,0,0,1,476.12,435.01676v-40.132h12.76074V501.38242Zm-45.38468-37.016q0,13.473,5.25269,20.85242,5.23787,7.37453,14.88751,7.36957a22.23157,22.23157,0,0,0,12.26615-3.6106,25.63315,25.63315,0,0,0,8.86325-9.86236V446.21452q-8.65064-10.06023-20.56556-10.0701-9.92668,0-15.31286,7.241-5.38623,7.22613-5.39115,20.981Z"/></g></svg>