<?xml version="1.0" encoding="UTF-8"?><svg id="LOGOS" xmlns="http://www.w3.org/2000/svg" viewBox="0 0 1250 703"><defs><style>.cls-1{fill:#c74634;stroke-width:0px;}</style></defs><g id="Layer_4"><path class="cls-1" d="m584.02457,262.56459h39.6377l-20.94225-33.79579-38.44317,61.04069h-17.56025l46.80372-73.2561c1.99857-2.96788,5.42779-4.76544,9.17608-4.76544,3.66595,0,7.03585,1.73822,9.03441,4.63527l46.94539,73.38627h-17.51302l-8.25339-13.64606h-40.13477l-8.75046-13.59884m181.86942,13.59884v-63.63017h-14.88783v69.8856c0,1.90412.80403,3.77251,2.19957,5.12023,1.41916,1.46638,3.36989,2.27041,5.41568,2.27041h67.69874l8.82129-13.64606h-69.24747m-245.81019-11.37566c14.46765,0,26.10062-11.70683,26.10062-26.13331s-11.63297-26.1212-26.10062-26.1212h-65.01418v77.27624h14.85813v-63.61867h49.16858c6.90023,0,12.4933,5.57007,12.4933,12.46364,0,6.88206-5.59308,12.54658-12.4933,12.54658l-41.90206-.03572,44.37953,38.64417h21.5598l-29.80774-25.02172h6.75795m-156.42753,25.02172h44.91716c21.36788,0,38.57334-17.26419,38.57334-38.60845,0-21.36788-17.20546-38.66778-38.57334-38.66778h-44.91716c-21.34424,0-38.65628,17.29991-38.65628,38.66778,0,21.34426,17.31205,38.60845,38.65628,38.60845m43.88851-13.59884h-42.90104c-13.8059,0-24.99266-11.22187-24.99266-25.00961,0-13.84707,11.18676-25.01022,24.99266-25.01022h42.90104c13.85313,0,25.02777,11.16315,25.02777,25.01022,0,13.78774-11.17465,25.00961-25.02777,25.00961m282.16034,13.59884h45.85741l8.67962-13.59884h-53.51989c-13.87068,0-25.04533-11.22187-25.04533-25.00961,0-13.84707,11.17465-25.01022,25.04533-25.01022h43.56339l8.78618-13.65757h-53.36671c-21.35577,0-38.70351,17.29991-38.70351,38.66778,0,21.34426,17.34774,38.60845,38.70351,38.60845m181.71564-13.59884c-11.44649,0-21.09603-7.68609-24.07602-18.19839h63.50061l8.75046-13.62245h-72.25106c2.96848-10.53591,12.62953-18.19899,24.07602-18.19899h43.59911l8.71474-13.65757h-53.30734c-21.32069,0-38.6206,17.29991-38.6206,38.66778,0,21.34426,17.29991,38.60845,38.6206,38.60845h45.85737l8.71534-13.59884h-53.57922"/><path class="cls-1" d="m584.02457,262.56459h39.6377l-20.94225-33.79579-38.44317,61.04069h-17.56025l46.80372-73.2561c1.99857-2.96788,5.42779-4.76544,9.17608-4.76544,3.66595,0,7.03585,1.73822,9.03441,4.63527l46.94539,73.38627h-17.51302l-8.25339-13.64606h-40.13477l-8.75046-13.59884m181.86942,13.59884v-63.63017h-14.88783v69.8856c0,1.90412.80403,3.77251,2.19957,5.12023,1.41916,1.46638,3.36989,2.27041,5.41568,2.27041h67.69874l8.82129-13.64606h-69.24747m-245.81019-11.37566c14.46765,0,26.10062-11.70683,26.10062-26.13331s-11.63297-26.1212-26.10062-26.1212h-65.01418v77.27624h14.85813v-63.61867h49.16858c6.90023,0,12.4933,5.57007,12.4933,12.46364,0,6.88206-5.59308,12.54658-12.4933,12.54658l-41.90206-.03572,44.37953,38.64417h21.5598l-29.80774-25.02172h6.75795m-156.42753,25.02172h44.91716c21.36788,0,38.57334-17.26419,38.57334-38.60845,0-21.36788-17.20546-38.66778-38.57334-38.66778h-44.91716c-21.34424,0-38.65628,17.29991-38.65628,38.66778,0,21.34426,17.31205,38.60845,38.65628,38.60845m43.88851-13.59884h-42.90104c-13.8059,0-24.99266-11.22187-24.99266-25.00961,0-13.84707,11.18676-25.01022,24.99266-25.01022h42.90104c13.85313,0,25.02777,11.16315,25.02777,25.01022,0,13.78774-11.17465,25.00961-25.02777,25.00961m282.16034,13.59884h45.85741l8.67962-13.59884h-53.51989c-13.87068,0-25.04533-11.22187-25.04533-25.00961,0-13.84707,11.17465-25.01022,25.04533-25.01022h43.56339l8.78618-13.65757h-53.36671c-21.35577,0-38.70351,17.29991-38.70351,38.66778,0,21.34426,17.34774,38.60845,38.70351,38.60845m181.71564-13.59884c-11.44649,0-21.09603-7.68609-24.07602-18.19839h63.50061l8.75046-13.62245h-72.25106c2.96848-10.53591,12.62953-18.19899,24.07602-18.19899h43.59911l8.71474-13.65757h-53.30734c-21.32069,0-38.6206,17.29991-38.6206,38.66778,0,21.34426,17.29991,38.60845,38.6206,38.60845h45.85737l8.71534-13.59884h-53.57922"/><path class="cls-1" d="m331.88564,490.18997v-67.57166h8.64609v67.57166h-8.64609Z"/><path class="cls-1" d="m356.88757,490.18997v-48.51755h5.66823l1.48761,8.27155c2.04679-2.97391,4.55516-5.26599,7.53038-6.87757,2.97259-1.61026,6.31972-2.41605,10.03611-2.41605,5.57855,0,9.85412,1.67225,12.82671,5.01806,2.97523,3.34713,4.46284,8.17923,4.46284,14.50027v30.0213h-8.36651v-29.74303c0-8.42585-3.65573-12.64076-10.96719-12.64076-3.09919,0-5.93463.94558-8.50366,2.83543-2.57167,1.89117-4.50768,4.44701-5.81066,7.66754v31.88082h-8.36387Z"/><path class="cls-1" d="m416.93017,490.18997v-41.63998h-8.36651v-4.27557l8.36651-2.78796v-5.39128c0-10.90521,5.20401-16.35847,15.61466-16.35847,1.11571,0,2.32374.12529,3.62408.3719v6.50699c-.74381-.12397-1.73555-.18595-2.97259-.18595-2.85126,0-4.87958.75963-6.09025,2.27626-1.20803,1.51926-1.81204,3.95114-1.81204,7.29695v5.66955h11.24678v6.87757h-11.24678v41.63998h-8.36387Z"/><path class="cls-1" d="m448.53139,490.18997v-48.51755h5.66823l1.67488,9.10899c3.15986-6.13509,7.68073-9.20263,13.57051-9.20263,1.23704,0,2.32374.09364,3.25218.27959v7.34311h-2.1391c-3.53176,0-6.47534.99174-8.82809,2.97391-2.35539,1.98348-3.96697,4.86508-4.83474,8.64345v29.37113h-8.36387Z"/><path class="cls-1" d="m513.22147,490.18997l-1.3953-7.80733c-3.96697,5.88715-9.35561,8.82941-16.1712,8.82941-4.89541,0-8.81754-1.37815-11.75847-4.13578-2.94357-2.7563-4.41536-6.42786-4.41536-11.01467,0-5.08004,1.75137-9.02986,5.25149-11.84947,3.50011-2.81961,8.37969-4.22941,14.63875-4.22941h11.15446v-3.06754c0-3.46978-.75963-5.91616-2.2789-7.34311-1.51926-1.42431-4.10412-2.13778-7.75985-2.13778-2.35539,0-4.86639.26508-7.52774.79128-2.66663.5262-5.67087,1.37947-9.01536,2.55585v-6.78526c2.35275-1.05373,5.04839-1.87402,8.08428-2.46353,3.03589-.58819,5.88715-.88228,8.55114-.88228,12.20687,0,18.3103,5.42293,18.3103,16.26483v33.27479h-5.66823Zm-16.54574-5.66955c2.84862,0,5.51525-.8203,7.9946-2.46353,2.47672-1.64059,4.4602-3.88784,5.94781-6.73778v-9.20263h-10.41065c-4.2149,0-7.32729.75963-9.33978,2.27758-2.01514,1.51926-3.02007,3.85751-3.02007,7.01737,0,2.78796.78865,5.00487,2.36858,6.64546,1.57993,1.64323,3.73222,2.46353,6.45951,2.46353Z"/><path class="cls-1" d="m531.62408,487.77392v-7.06484c2.91192,1.241,5.56009,2.13778,7.94712,2.69564,2.3844.55785,4.91123.83612,7.57522.83612,8.05527,0,12.0829-2.41605,12.0829-7.24948,0-1.92018-.58819-3.4223-1.76456-4.50768-1.17901-1.08274-3.25481-2.02832-6.2274-2.83411l-7.6227-2.04547c-4.4602-1.23836-7.71502-2.92775-9.75916-5.06553s-3.06754-4.87958-3.06754-8.22539c0-4.21359,1.65642-7.54357,4.9719-9.99127s7.79151-3.67156,13.43072-3.67156c3.09919,0,5.91616.24794,8.45882.74249,2.54002.49719,4.73979,1.17901,6.59931,2.04547v7.06352c-4.77144-1.92018-9.60618-2.88159-14.49895-2.88159-7.06352,0-10.59529,2.04547-10.59529,6.13509,0,1.73555.54071,3.1137,1.62477,4.13578s2.98841,1.90567,5.71571,2.64948l7.71502,2.04415c4.70814,1.241,8.11857,2.96072,10.22338,5.15917,2.10745,2.19977,3.1625,5.15785,3.1625,8.87556,0,4.52482-1.7672,8.08692-5.29896,10.68892-3.53176,2.60332-8.42717,3.90367-14.68622,3.90367-2.97259,0-5.88715-.30992-8.73577-.92976-2.85126-.61852-5.26731-1.45464-7.2508-2.50837Z"/><path class="cls-1" d="m581.90752,475.41143v-26.86144h-8.36651v-4.27557l8.36651-2.78796,3.34713-13.19861h5.01674v13.38456h10.50297v6.87757h-10.50297v26.76912c0,5.32929,2.29208,7.99328,6.87889,7.99328.74381,0,1.47179-.04748,2.18394-.13979.71216-.09364,1.37947-.17013,1.99931-.23211v7.24948c-.86777.18595-1.75137.30992-2.64816.3719-.89943.06067-1.84633.09232-2.83543.09232-4.77408,0-8.29001-1.23836-10.55045-3.71771-2.26307-2.47672-3.39197-6.31972-3.39197-11.52505Z"/><path class="cls-1" d="m613.60106,490.18997v-48.51755h5.66823l1.67488,9.10899c3.15986-6.13509,7.68073-9.20263,13.57051-9.20263,1.23704,0,2.32374.09364,3.25218.27959v7.34311h-2.1391c-3.53176,0-6.47534.99174-8.82809,2.97391-2.35539,1.98348-3.96697,4.86508-4.83474,8.64345v29.37113h-8.36387Z"/><path class="cls-1" d="m649.38555,471.69372v-30.0213h8.36387v29.74303c0,4.1516.89679,7.34179,2.69564,9.57321,1.79621,2.2301,4.42855,3.34581,7.89965,3.34581,2.91192,0,5.65504-1.00625,8.22671-3.02138,2.57167-2.0125,4.50768-4.69363,5.80802-8.03944v-31.60123h8.36651v48.51755h-5.67087l-1.48498-8.27155c-1.98612,2.97391-4.47867,5.26731-7.48291,6.87757-3.00688,1.61026-6.27488,2.41605-9.80664,2.41605-5.39128,0-9.55871-1.67225-12.49964-5.01938-2.94621-3.34581-4.41536-8.17923-4.41536-14.49895Z"/><path class="cls-1" d="m740.74979,480.89503v6.87889c-3.843,2.29208-8.70676,3.43813-14.59391,3.43813-7.49873,0-13.15113-2.18394-16.96248-6.55183-3.81135-4.3692-5.71571-10.79706-5.71571-19.28622,0-7.86932,2.0125-13.95692,6.04277-18.26414,4.025-4.3059,9.72488-6.45951,17.09964-6.45951,4.58681,0,8.83072,1.02207,12.73439,3.06622v6.87889c-4.0883-2.04547-7.89965-3.06754-11.43141-3.06754-10.59529,0-15.89425,5.94913-15.89425,17.84608,0,6.445,1.22385,11.21513,3.67156,14.313,2.4477,3.09919,6.30389,4.64747,11.5712,4.64747,2.10481,0,4.24392-.27827,6.41467-.83612,2.16812-.55785,4.52087-1.42563,7.06352-2.60332Z"/><path class="cls-1" d="m756.2695,475.41143v-26.86144h-8.36651v-4.27557l8.36651-2.78796,3.34713-13.19861h5.01674v13.38456h10.50297v6.87757h-10.50297v26.76912c0,5.32929,2.29208,7.99328,6.87889,7.99328.74381,0,1.47179-.04748,2.18394-.13979.71216-.09364,1.37947-.17013,1.99931-.23211v7.24948c-.86777.18595-1.75137.30992-2.64816.3719-.89943.06067-1.84633.09232-2.83543.09232-4.77408,0-8.29001-1.23836-10.55045-3.71771-2.26307-2.47672-3.39197-6.31972-3.39197-11.52505Z"/><path class="cls-1" d="m787.50146,471.69372v-30.0213h8.36387v29.74303c0,4.1516.89679,7.34179,2.69564,9.57321,1.79621,2.2301,4.42855,3.34581,7.89965,3.34581,2.91192,0,5.65504-1.00625,8.22671-3.02138,2.57167-2.0125,4.50768-4.69363,5.80802-8.03944v-31.60123h8.36651v48.51755h-5.67087l-1.48498-8.27155c-1.98612,2.97391-4.47867,5.26731-7.48291,6.87757-3.00688,1.61026-6.27488,2.41605-9.80664,2.41605-5.39128,0-9.55871-1.67225-12.49964-5.01938-2.94621-3.34581-4.41536-8.17923-4.41536-14.49895Z"/><path class="cls-1" d="m844.66115,490.18997v-48.51755h5.66823l1.67488,9.10899c3.15986-6.13509,7.68073-9.20263,13.57051-9.20263,1.23704,0,2.32374.09364,3.25218.27959v7.34311h-2.1391c-3.53176,0-6.47534.99174-8.82809,2.97391-2.35539,1.98348-3.96697,4.86508-4.83474,8.64345v29.37113h-8.36387Z"/><path class="cls-1" d="m915.67357,487.77392c-1.73555,1.05373-4.04346,1.88985-6.92373,2.50837-2.88291.61984-6.02694.92976-9.43474.92976-7.68336,0-13.49402-2.18394-17.4267-6.55183-3.93532-4.3692-5.90298-10.76673-5.90298-19.1939,0-8.11725,1.8727-14.28135,5.62339-18.49625,3.74805-4.21227,9.1235-6.31972,16.12636-6.31972,13.50721,0,20.26214,7.46708,20.26214,22.39992v5.38996h-33.55306c.3719,5.45326,1.82523,9.43474,4.36789,11.94443,2.54002,2.50969,6.31972,3.76387,11.33909,3.76387,2.78796,0,5.42029-.27827,7.89965-.83612,2.47936-.55785,5.01938-1.42563,7.6227-2.60332v7.06484Zm-17.9384-40.246c-4.09094,0-7.26662,1.22385-9.52705,3.67156-2.26307,2.4477-3.51857,5.99529-3.76387,10.64145h25.46614c0-5.08004-.94427-8.73577-2.83543-10.96719-1.89117-2.2301-5.00355-3.34581-9.33978-3.34581Z"/><path class="cls-1" d="m363.80758,386.91362h45.74779l8.79324-13.36344h-53.7125c-6.59414-.12408-12.87626-2.8307-17.49582-7.53792s-7.20745-11.03916-7.20745-17.63456,2.5879-12.92719,7.20745-17.63456c4.61956-4.70722,10.90168-7.41383,17.49582-7.53792h43.65433l8.82871-13.84463h-53.31156c-10.29246,0-20.16333,4.0887-27.4411,11.36663-7.27793,7.27777-11.36647,17.14864-11.36647,27.4411s4.08854,20.16333,11.36647,27.44126,17.14864,11.36647,27.4411,11.36647v-.06243Zm76.37702-13.36344v-63.81529h-15.14536v70.05154c-.01025.93794.17091,1.86816.53243,2.73358.36152.86558.89585,1.64822,1.57018,2.3,1.48583,1.36474,3.43503,2.11317,5.45234,2.09362h67.95807l8.82871-13.84448h-69.19637v.48103Z"/><path class="cls-1" d="m790.94144,373.55017h-38.55831v-49.89057h38.59394c6.67234.01419,13.06751,2.66972,17.78734,7.38609,4.71951,4.71636,7.37962,11.10964,7.39854,17.78198-.02207,3.28256-.69309,6.52824-1.97458,9.55034-1.28149,3.0221-3.14792,5.76089-5.49238,8.05868-2.34415,2.2978-5.11967,4.10935-8.16668,5.33015s-6.30561,1.82685-9.58786,1.78334Zm1.28275-63.81529h-54.54102v70.05169c-.00851.93447.16965,1.86122.52471,2.7257.35506.86447.87945,1.64917,1.54227,2.30789,1.50695,1.3649,3.47271,2.11238,5.50594,2.09362h46.98608c10.23807,0,20.05675-4.0671,27.29637-11.30656,7.2393-7.23946,11.3064-17.05814,11.3064-27.29621s-4.0671-20.05691-11.3064-27.29637c-7.23962-7.23946-17.0583-11.30656-27.29637-11.30656l-.01797.0268Z"/><path class="cls-1" d="m588.72458,373.55017h-42.76321c-3.30637,0-6.58026-.65115-9.63485-1.91641s-5.8301-3.11986-8.16794-5.4577c-2.338-2.33784-4.19244-5.11336-5.4577-8.16794-1.26525-3.05458-1.91656-6.32848-1.91656-9.63485s.65131-6.58011,1.91656-9.63469c1.26525-3.05474,3.1197-5.8301,5.4577-8.1681,2.33784-2.33784,5.11336-4.19229,8.16794-5.45754s6.32848-1.91656,9.63485-1.91656h42.76321c6.67739,0,13.08122,2.65254,17.80279,7.3741,4.72156,4.72172,7.3741,11.1254,7.3741,17.80279s-2.65254,13.08122-7.3741,17.80279c-4.72156,4.72156-11.1254,7.3741-17.80279,7.3741Zm-44.08191,13.3636h44.91043c10.23807,0,20.05691-4.0671,27.29621-11.30656,7.23946-7.23946,11.30672-17.05814,11.30672-27.29621s-4.06726-20.05691-11.30672-27.29637c-7.2393-7.23946-17.05814-11.30656-27.29621-11.30656h-44.91043c-10.23807,0-20.05675,4.0671-27.29621,11.30656-7.2393,7.23946-11.3064,17.05814-11.3064,27.29637s4.0671,20.05675,11.3064,27.29621c7.23946,7.23946,17.05814,11.30656,27.29621,11.30656Z"/><path class="cls-1" d="m689.83325,386.91298h-15.14536c-5.07142.01182-10.09538-.97846-14.78321-2.91379-4.68767-1.93533-8.9468-4.77769-12.53287-8.36376-3.58623-3.58623-6.42859-7.84536-8.36392-12.53318-1.93533-4.68767-2.92561-9.71163-2.91395-14.78305v-38.99488h14.72661v39.02153c.06953,6.3187,2.60981,12.35928,7.07722,16.82843,4.46741,4.46899,10.50704,7.01163,16.82574,7.08337h15.14536c6.32012-.06937,12.36196-2.61092,16.83142-7.08038,4.4693-4.4693,7.01085-10.51114,7.08038-16.83142v-39.02153h14.69082v39.02153c.0082,5.07315-.98603,10.09775-2.92561,14.78526-1.9399,4.68767-4.78668,8.9457-8.37732,12.52956-3.59032,3.58386-7.85356,6.42292-12.54469,8.35398-4.69113,1.93091-9.71762,2.916-14.79062,2.89834Z"/></g></svg>