<?xml version="1.0" encoding="UTF-8"?>
<svg id="PASTE_LOGO_HERE" data-name="PASTE LOGO HERE" xmlns="http://www.w3.org/2000/svg" viewBox="0 0 1250 703">
  <defs>
    <style>
      .cls-1 {
        fill: #253b80;
      }

      .cls-2 {
        fill: #179bd7;
      }

      .cls-3 {
        fill: #222d65;
      }
    </style>
  </defs>
  <path class="cls-1" d="M519.09,294.81h-46.48c-3.18,0-5.89,2.31-6.38,5.45l-18.8,119.2c-.37,2.35,1.45,4.47,3.83,4.47h22.19c3.18,0,5.89-2.31,6.38-5.46l5.07-32.15c.49-3.15,3.2-5.46,6.38-5.46h14.72c30.62,0,48.29-14.82,52.91-44.18,2.08-12.85.09-22.94-5.93-30.01-6.61-7.76-18.32-11.87-33.88-11.87ZM524.45,338.35c-2.54,16.68-15.29,16.68-27.61,16.68h-7.01l4.92-31.15c.29-1.88,1.92-3.27,3.83-3.27h3.21c8.39,0,16.31,0,20.4,4.78,2.44,2.85,3.19,7.1,2.26,12.95Z"/>
  <path class="cls-1" d="M658.04,337.81h-22.26c-1.9,0-3.53,1.39-3.83,3.27l-.99,6.23-1.56-2.26c-4.82-6.99-15.56-9.33-26.29-9.33-24.6,0-45.61,18.63-49.7,44.76-2.13,13.04.9,25.5,8.29,34.2,6.78,7.99,16.49,11.32,28.04,11.32,19.82,0,30.81-12.74,30.81-12.74l-.99,6.19c-.37,2.37,1.45,4.49,3.82,4.49h20.05c3.19,0,5.88-2.31,6.38-5.46l12.03-76.19c.38-2.34-1.43-4.47-3.81-4.47ZM627.01,381.13c-2.15,12.72-12.24,21.25-25.11,21.25-6.46,0-11.63-2.07-14.95-6-3.29-3.9-4.54-9.45-3.49-15.64,2.01-12.61,12.27-21.42,24.94-21.42,6.32,0,11.46,2.1,14.84,6.06,3.39,4,4.74,9.59,3.77,15.75Z"/>
  <path class="cls-1" d="M776.59,337.81h-22.37c-2.13,0-4.14,1.06-5.35,2.83l-30.85,45.44-13.08-43.67c-.82-2.73-3.34-4.61-6.2-4.61h-21.98c-2.67,0-4.53,2.61-3.68,5.12l24.64,72.31-23.16,32.7c-1.82,2.58.01,6.12,3.16,6.12h22.34c2.12,0,4.11-1.03,5.31-2.77l74.4-107.39c1.78-2.57-.05-6.08-3.18-6.08Z"/>
  <path class="cls-2" d="M850.65,294.81h-46.49c-3.17,0-5.88,2.31-6.38,5.45l-18.8,119.2c-.37,2.35,1.45,4.47,3.82,4.47h23.86c2.22,0,4.11-1.62,4.46-3.82l5.34-33.79c.49-3.15,3.2-5.46,6.38-5.46h14.71c30.63,0,48.29-14.82,52.91-44.18,2.09-12.85.08-22.94-5.93-30.01-6.6-7.76-18.31-11.87-33.87-11.87ZM856.01,338.35c-2.54,16.68-15.28,16.68-27.61,16.68h-7.01l4.93-31.15c.29-1.88,1.91-3.27,3.82-3.27h3.21c8.39,0,16.31,0,20.4,4.78,2.44,2.85,3.18,7.1,2.25,12.95Z"/>
  <path class="cls-2" d="M989.59,337.81h-22.25c-1.91,0-3.53,1.39-3.82,3.27l-.99,6.23-1.56-2.26c-4.82-6.99-15.56-9.33-26.28-9.33-24.6,0-45.6,18.63-49.69,44.76-2.12,13.04.89,25.5,8.29,34.2,6.8,7.99,16.49,11.32,28.04,11.32,19.82,0,30.81-12.74,30.81-12.74l-.99,6.19c-.37,2.37,1.45,4.49,3.83,4.49h20.04c3.17,0,5.88-2.31,6.38-5.46l12.04-76.19c.37-2.34-1.45-4.47-3.84-4.47ZM958.56,381.13c-2.13,12.72-12.24,21.25-25.11,21.25-6.45,0-11.63-2.07-14.95-6-3.29-3.9-4.53-9.45-3.49-15.64,2.02-12.61,12.27-21.42,24.94-21.42,6.32,0,11.46,2.1,14.84,6.06,3.41,4,4.75,9.59,3.77,15.75Z"/>
  <path class="cls-2" d="M1015.83,298.08l-19.08,121.38c-.37,2.35,1.45,4.47,3.82,4.47h19.18c3.19,0,5.89-2.31,6.38-5.46l18.81-119.19c.37-2.35-1.45-4.48-3.82-4.48h-21.48c-1.9,0-3.53,1.39-3.82,3.28Z"/>
  <path class="cls-1" d="M254.39,447.1l3.55-22.58-7.92-.18h-37.81l26.28-166.61c.08-.5.35-.97.73-1.31.39-.33.88-.52,1.4-.52h63.75c21.17,0,35.77,4.4,43.4,13.1,3.58,4.08,5.85,8.34,6.95,13.03,1.16,4.92,1.18,10.8.05,17.97l-.08.52v4.59l3.58,2.03c3.01,1.6,5.4,3.43,7.24,5.52,3.06,3.49,5.04,7.92,5.87,13.17.86,5.4.58,11.83-.84,19.11-1.63,8.37-4.27,15.67-7.83,21.63-3.28,5.5-7.45,10.06-12.4,13.59-4.73,3.36-10.35,5.91-16.71,7.54-6.16,1.6-13.18,2.41-20.88,2.41h-4.96c-3.55,0-6.99,1.28-9.7,3.57-2.71,2.34-4.51,5.53-5.06,9.03l-.37,2.03-6.28,39.8-.29,1.46c-.07.46-.2.69-.39.85-.17.14-.41.24-.65.24,0,0-30.63,0-30.63,0Z"/>
  <path class="cls-2" d="M361.65,301.05h0c-.19,1.22-.41,2.46-.65,3.74-8.41,43.17-37.17,58.08-73.91,58.08h-18.71c-4.49,0-8.28,3.26-8.98,7.69h0l-9.58,60.74-2.71,17.22c-.46,2.91,1.79,5.53,4.72,5.53h33.18c3.93,0,7.27-2.85,7.88-6.73l.33-1.69,6.25-39.64.4-2.17c.61-3.89,3.96-6.74,7.88-6.74h4.96c32.14,0,57.3-13.05,64.66-50.81,3.07-15.78,1.48-28.95-6.65-38.21-2.46-2.79-5.51-5.11-9.08-7Z"/>
  <path class="cls-3" d="M352.86,297.55c-1.28-.37-2.61-.71-3.97-1.02-1.37-.3-2.77-.56-4.21-.8-5.04-.82-10.57-1.2-16.49-1.2h-49.97c-1.23,0-2.4.28-3.45.78-2.3,1.11-4.02,3.29-4.43,5.96l-10.63,67.33-.31,1.96c.7-4.43,4.49-7.69,8.98-7.69h18.71c36.74,0,65.5-14.92,73.91-58.08.25-1.28.46-2.52.65-3.74-2.13-1.13-4.43-2.09-6.91-2.92-.61-.2-1.24-.4-1.88-.59Z"/>
  <path class="cls-1" d="M270.35,301.27c.41-2.67,2.13-4.85,4.43-5.95,1.05-.5,2.22-.78,3.45-.78h49.97c5.92,0,11.45.39,16.49,1.2,1.44.23,2.84.5,4.21.8,1.36.31,2.68.65,3.97,1.02.64.19,1.27.39,1.89.58,2.48.82,4.79,1.79,6.91,2.92,2.5-15.95-.02-26.81-8.65-36.65-9.51-10.83-26.67-15.46-48.63-15.46h-63.75c-4.49,0-8.31,3.26-9.01,7.7l-26.56,168.32c-.52,3.33,2.05,6.33,5.4,6.33h39.36l9.88-62.7,10.63-67.33Z"/>
</svg>