<?xml version="1.0" encoding="UTF-8"?><svg id="LOGOS" xmlns="http://www.w3.org/2000/svg" viewBox="0 0 1250 703"><defs><style>.cls-1{fill:#000;stroke-width:0px;}</style></defs><g id="Layer_4"><path class="cls-1" d="M766.87418,440l-241.99708-126.43552v112.77238h-34.58319l-.14918-168.96446,242.00438,125.79944v-112.3885h34.57589l.14918,169.21663v.00003Z"/><path class="cls-1" d="M469.39901,357.79204c-1.22956,2.77899-2.88525,5.20245-4.95356,7.27076-2.07523,2.06828-4.50599,3.71345-7.29187,4.94294-2.78589,1.22598-5.79958,1.84422-9.04033,1.84422h-152.8666l-65.84737-34.27023v88.82076h-35.59258l.39082-132.09241c0-3.2302.64699-6.24025,1.94751-9.01921,1.2936-2.77862,3.01332-5.20935,5.1526-7.27768,2.13928-2.06796,4.62679-3.71345,7.47672-4.943,2.85686-1.22592,5.89893-1.84416,9.13967-1.84416h230.19923c3.24075,0,6.24715.61824,9.04033,1.84416,2.77899,1.22956,5.21664,2.87504,7.29187,4.943,2.06831,2.06831,3.72397,4.49177,4.95356,7.27076s1.8478,5.78504,1.8478,9.01524v54.67504c0,3.10247-.61821,6.0412-1.8478,8.81982ZM436.66368,305.69694h-207.26437v31.68011h207.26437v-31.68011Z"/><path class="cls-1" d="M1055.5652,270.25028l-119.00171,86.50797.19216,68.66527h-37.14201v-68.66527l-119.00136-86.11679h59.50085l77.58117,55.86165,78.37005-56.25283h59.50085"/></g></svg>