<?xml version="1.0" encoding="UTF-8"?><svg id="LOGO" xmlns="http://www.w3.org/2000/svg" viewBox="0 0 1250 703"><defs><style>.cls-1{fill-rule:evenodd;}.cls-1,.cls-2{fill:#50565b;stroke-width:0px;}</style></defs><path class="cls-1" d="m311.62276,310.18289c-.69653-1.71391.36004-4.01993.36004-4.01993,1.25635-.39239,3.60211-.14625,4.30791,1.48631.7617,1.76954,0,3.2908-2.0297,4.50767,0,0-1.28417-.45279-2.63826-1.97405Z"/><polygon class="cls-1" points="371.78111 412.8544 359.35891 422.75225 359.29161 320.58253 371.78111 320.58253 371.78111 412.8544"/><path class="cls-1" d="m379.78626,403.94345l.03256-83.36092h10.1302l.09988,63.60468c-1.95313,6.01705-5.14405,12.57557-10.26264,19.75624Z"/><polygon class="cls-1" points="338.93372 413.79493 351.52547 423.69968 351.52547 320.58253 338.93372 320.58253 338.93372 413.79493"/><path class="cls-1" d="m331.88767,406.83021l-.0742-86.24769h-11.17511v67.88929c.42495,4.57973,8.61345,16.1891,11.24931,18.35839Z"/><path class="cls-2" d="m354.8163,436.8025c-47.04153,0-85.30692-38.26778-85.30692-85.30477,0-47.03462,38.26539-85.30025,85.30692-85.30025,47.03483,0,85.30024,38.26564,85.30024,85.30025,0,47.03699-38.2654,85.30477-85.30024,85.30477v3.01899c48.69974,0,88.31922-39.62163,88.31922-88.32376s-39.61949-88.31924-88.31922-88.31924c-48.70667,0-88.32616,39.61949-88.32616,88.31924s39.61949,88.32376,88.32616,88.32376v-3.01899Z"/><path class="cls-2" d="m354.8163,470.30006c-65.51598,0-118.81401-53.29566-118.81401-118.80234s53.29803-118.79782,118.81401-118.79782c65.50904,0,118.80472,53.29114,118.80472,118.79782s-53.29568,118.80234-118.80472,118.80234v3.90863c67.66431,0,122.71333-55.04926,122.71333-122.71097s-55.04902-122.70645-122.71333-122.70645c-67.67099,0-122.72026,55.0445-122.72026,122.70645s55.04928,122.71097,122.72026,122.71097v-3.90863Z"/><path class="cls-1" d="m253.65226,386.28184c2.67773,2.61733,4.03632,4.42182,5.50384,7.86364,1.30985,3.07012,1.58857,5.04417,1.76978,8.37897l6.07293-2.69154c-2.24562-2.48961-3.50222-4.02467-4.86058-7.0924-1.50272-3.40234-2.04847-5.54595-2.28772-9.25006l-6.19824,2.7914Z"/><path class="cls-1" d="m253.25988,399.72376c2.58925-2.69866,4.40778-4.07106,7.86338-5.50409,3.08177-1.28417,5.04417-1.5605,8.37683-1.76954l-2.68487-6.07293c-2.48011,2.25727-4.04298,3.48105-7.09694,4.85606-3.38829,1.52578-5.54595,2.02043-9.25244,2.28986l2.79404,6.20064Z"/><path class="cls-1" d="m455.7249,386.28184c-2.6706,2.62422-4.04537,4.42182-5.50386,7.86364-1.31437,3.07701-1.59784,5.04417-1.77192,8.37897l-6.07293-2.69154c2.21783-2.50816,3.52291-4.01777,4.85606-7.0924,1.48631-3.40925,2.05515-5.54595,2.292-9.25006l6.20064,2.7914Z"/><path class="cls-1" d="m456.11515,399.72376c-2.6009-2.69176-4.4009-4.07819-7.8634-5.50409-3.0889-1.27038-5.04415-1.57453-8.37683-1.76954l2.68463-6.07293c2.47345,2.26418,4.04323,3.46964,7.09956,4.85606,3.38117,1.53958,5.54333,2.01329,9.24983,2.28986l-2.79378,6.20064Z"/><path class="cls-1" d="m306.93173,436.54709c1.59546-.87324,2.37334-.08133,2.77286-.59452.29726-.37859-.04637-.54125-.49464-.88727-.59452-.46682-1.24945-.83828-1.84635-1.2982-.60616-.47847-1.12864-1.02638-1.74409-1.50723-.24849-.195-.81045-.74315-1.14244-.3251-.60855.78502,2.1643,1.6233.53412,3.71816-.27633.35291-.92673,1.09606-2.7241,2.0901l-8.16779,4.496c-.19049.10917-.51319.35292-.64327.2578-.1277-.10226.00691-.49464.0673-.7013l2.84729-9.29882c.53412-1.77192,1.07514-3.03064,1.59546-3.69936.7315-.93364,1.73698.39239,2.20378-.20903.29726-.3717.17645-.439-.49916-.96622-.33912-.25779-1.02187-.65017-2.37357-1.70462-.71747-.56194-1.3655-1.21689-2.06228-1.75789-.31819-.24161-.83138-.93126-1.25159-.40642-.12079.1648.04875.50844.09512.58287.68965.89178.7988,1.3724.48087,2.51507l-4.85606,17.04378c-.34389,1.23328-.31131,1.61875-.093,1.78595.22996.18335.439.13007,1.12175-.26254l16.17982-8.87123Z"/><path class="cls-1" d="m328.16978,445.33699c.52007-2.08297,2.11553-.60832,2.37334-1.65111.08131-.32271-.03949-.39024-.58764-.52484-.41331-.10226-.75695-.06968-2.96334-.62474-.9938-.2416-2.47322-.72911-3.50887-.98691-.54815-.13482-.88489.00691-.95219.2578-.23686.95908,2.88653.94743,2.30604,3.27202l-3.22588,12.94966c-.83138,3.33954-2.44064,1.3655-2.75881,2.63112-.03949.16028.08131.33674.42019.42497,1.43304.35077,2.54767.51319,3.35834.71533,1.30034.32509,2.83326.82448,6.78113,1.81377,2.13196.52721,4.22682-1.33316,4.76094-3.46964.13008-.52009-.03258-.65017-.13484-.67585-.98691-.24375-1.52103,3.42778-7.96566,1.82542-1.87178-.46682-1.52578-1.42828-1.10082-3.12362l3.19808-12.83337Z"/><path class="cls-1" d="m343.70631,448.63017c.13698-1.94623.24375-1.9624,3.47653-1.73721,5.16024.35768,2.84705,3.50913,4.0965,3.59046.61783.04637.55053-.89416.55053-1.25872l.08823-2.7914c.01855-.25779-.15101-.54815-.49464-.57597-2.35501-.16266-4.20827-.18121-6.10789-.31129-4.0896-.29013-6.00326-.53413-7.09932-.61545-.37859-.02069-.60855.19049-.62021.439-.08347,1.13101,3.00044.44136,2.82636,2.97024l-.91961,13.17011c-.24397,3.42778-2.16454,1.77192-2.25966,3.06322-.01403.16956.14175.32509.48775.34363,1.47228.10226,2.60092.07443,3.42778.13008,1.33768.09536,2.93314.31819,6.99944.60166,2.18998.15553,3.92956-2.04135,4.08273-4.24061.03708-.53436-.14865-.6271-.24853-.63401-1.02401-.07442-.90106,3.63659-7.53356,3.17691-1.92078-.13484-1.74409-1.14267-1.62352-2.88678l.25089-3.60422c.11391-1.62804.03258-1.97405,1.26348-1.89272l1.97382.14173c2.77999.195,1.82542,3.12339,2.67773,3.18379.64327.04875.55505-.98001.55505-1.34457l.16266-5.02562c.02782-.75481-.27182-.72223-.45992-.73602-.53412-.03948-.7988,2.54979-3.09794,2.38737l-1.68131-.12081c-1.15193-.08133-1.13815-.27633-1.04993-1.48869l.27657-3.93408Z"/><path class="cls-1" d="m358.00031,462.17174c.25089,2.86131-2.35954,2.58261-2.25728,3.70649.03948.48085.55958.29037.85922.26254.71531-.0604,1.42589-.23448,2.28509-.31129.93126-.07895,1.84397-.04637,3.1562-.16028.34601-.02782,1.01497-.06017.98001-.45279-.11367-1.31913-3.365.88489-3.83182-4.51005l-.84066-9.55398c-.02093-.25089.01379-.4554.17645-.46682.13008-.01403.30416.11367.50844.32271l14.12468,13.49068c.20214.2088.35077.36456.72223.33197.32294-.02781.30416-.25777.25089-.87322l-1.37951-15.76176c-.2578-2.95407,2.06916-2.47322,1.99496-3.31863-.00713-.08133-.03258-.36456-.54339-.32509-.23472.02782-1.16122.21593-2.84275.36455-1.83924.16244-2.62662.12296-3.05159.15554-.35053.03496-.40642.31819-.38549.51557.08133.92436,3.29318.13484,3.51601,2.68938l.81761,9.35898c.06038.7013.04184,1.0473-.12083,1.06134-.16242.01403-.51557-.29726-.89178-.6573l-11.81389-11.45384c-.52699-.49227-.22283-.71509-1.08203-.6409-1.41211.12081-2.09486.29726-2.79164.35765-.50844.04187-.9938-.02567-1.50248.02094-.32507.02545-.439.2623-.41331.51319.11605,1.34456,2.94931-.74315,3.41851,4.65868l.93816,10.67573Z"/><path class="cls-1" d="m391.14496,440.56226c-.04637-.1346-.22996-.10679-.35765-.0673-.35768.10915-.11607,1.00784-.60144,1.15647-.76408.23686-3.24681-.81045-6.34237.14411-6.45842,1.97168-7.27601,8.74139-5.88958,13.26999.64805,2.12958,3.91555,8.68313,11.41912,6.38399,5.46438-1.66276,6.93214-6.57209,6.59778-7.64747-.04637-.16244-.31581-.22283-.44589-.19049-.66896.20903-1.33078,4.27557-5.29958,5.48554-4.89554,1.5001-8.57873-3.21875-9.74469-7.0206-1.10084-3.60899-.18099-8.02368,3.58567-9.17325,2.97499-.90582,5.94999.74315,8.01679,2.94717.29276.29013.64327.8057,1.04969.68275.439-.13485.14863-.72224.04185-.98715l-2.0297-4.98377Z"/><path class="cls-1" d="m398.86686,438.87404c-1.25658-2.36642.9938-2.42231.54104-3.26772-.16268-.29726-.30418-.28323-1.01475.09535-1.34481.71749-2.14361,1.26326-2.99354,1.72556-.83376.43876-1.80687.82425-2.7336,1.31675-.20882.11605-.84519.35053-.61523.77787.45969.87086,2.7681-1.24471,3.9688,1.01949l6.3564,11.95562c1.25872,2.36644-.78974,2.62183-.32532,3.49508.06968.12317.20452.27182.42045.15791.61545-.32509,1.57453-.96836,2.5964-1.50937,1.84635-.98025,2.77048-1.34719,3.65063-1.81163.54123-.29013.70366-.50154.55503-.77789-.41783-.79666-2.46156,1.7579-4.09198-1.29819l-6.31431-11.87882Z"/><path class="cls-1" d="m245.48445,340.0415c-1.60236-.77098-1.3655-1.68369-2.01567-1.74887-.48085-.05087-.42497.27421-.47158.74793-.06254.634-.01379,1.27727-.07657,1.90675-.06728.65469-.24375,1.2749-.30891,1.92507-.02782.27182-.17883.92199.35767.97548.98691.09512.16718-2.28535,2.81947-2.02279.45041.04875,1.4328.19049,3.25822,1.05445l8.25578,3.95025c.19524.08821.58073.21593.5667.35077-.01379.13696-.41807.2088-.62687.25755l-9.36612,2.02066c-1.77667.39239-3.12814.55505-3.98283.47134-1.17525-.11843-.62021-1.43068-1.37953-1.50486-.47847-.04875-.46444.0673-.53888.78715-.03472.36242.01403,1.02424-.13008,2.47108-.08108.76408-.2692,1.52127-.34363,2.26654-.0347.33676-.32509,1.01261.35077,1.07991.19738.02093.39239-.25541.42497-.32033.38073-.89654.71985-1.17977,1.86016-1.45611l16.96482-3.97355c1.224-.28799,1.52816-.48325,1.54909-.71081.02545-.24613-.1277-.37384-.83852-.69892l-16.32845-7.82868Z"/><path class="cls-1" d="m258.89833,338.23701c2.79852.64327,1.81851,2.64277,2.92171,2.89366.46682.10678.42497-.36218.48537-.6038.13698-.59452.16244-1.21235.32509-1.92055.17645-.76646.45969-1.48631.71057-2.56382.0673-.28799.21595-.82924-.16242-.91749-1.29818-.29964-.07443,2.94481-5.35546,1.72794l-9.34519-2.15978c-.24161-.05589-.42497-.14411-.39952-.27871.02808-.10678.19762-.20903.45517-.30891l16.72797-7.27601c.25779-.1044.44589-.17645.52033-.48299.06042-.26468-.16266-.31581-.76408-.45754l-15.41574-3.55786c-2.88913-.66872-1.79996-2.38023-2.62422-2.57547-.08133-.01617-.35765-.08133-.45303.33912-.04875.195-.11367.99404-.43186,2.37571-.35077,1.51889-.60855,2.12958-.68988,2.48273-.06254.28561.19524.41569.38573.45967.90558.20905,1.03328-2.58711,3.53456-2.01113l9.14995,2.11577c.68988.15555,1.00807.27635.98001.40881-.03472.13222-.42711.32033-.873.51771l-14.16415,6.03821c-.61069.27633-.74553-.03022-.90796.6711-.26253,1.16812-.29037,1.76264-.41807,2.3341-.10226.41569-.29726.78715-.39952,1.2076-.0604.2623.13698.42497.38549.47823,1.31913.3044.10226-2.56834,5.37639-1.35149l10.44578,2.41521Z"/><path class="cls-1" d="m251.62944,314.53742c-2.54289-.829-1.05443-2.12506-1.96692-2.42232-.32532-.1044-.41355-.01141-.62258.62948-.39928,1.22377-.541,2.0297-.7919,2.80306-.24136.75241-.61997,1.55123-.89178,2.38974-.0673.19263-.31819.70368.13698.85231.9384.30416.97097-2.36644,3.41851-1.57002l12.87523,4.18259c2.55004.829,1.34695,2.14813,2.28511,2.45015.13484.04399.33912.06254.39952-.13008.18359-.55742.3717-1.51413.67585-2.4385.54102-1.67204.90582-2.43374,1.17051-3.22564.15551-.4925.10914-.72246-.18361-.81759-.8592-.28109-.40404,2.5222-3.70412,1.45373l-12.80079-4.1569Z"/><path class="cls-1" d="m257.97871,298.49909c-1.27038-1.23066-.76406-2.02257-1.35859-2.28511-.44115-.19738-.48751.1277-.68277.5598-.25779.57811-.41331,1.20046-.66872,1.77881-.26468.59928-.62233,1.12864-.89416,1.72792-.10915.24613-.45279.80808.04185,1.02638.89868.40404.87086-2.10628,3.29296-1.02424.41116.18359,1.29818.62258,2.75215,2.01139l6.57209,6.31193c.15339.14173.47847.38573.41807.50867-.05327.12533-.45969.0673-.66182.04635l-9.49382-1.01471c-1.79974-.18121-3.13052-.45279-3.90839-.79666-1.08227-.48061-.14173-1.54887-.83852-1.85539-.43876-.19764-.45969-.08371-.75005.57811-.14863.32984-.31129.97312-.89868,2.28986-.31129.70366-.73174,1.36098-1.029,2.03684-.1415.31105-.62687.8592-.01379,1.13554.18335.07657.45969-.12081.50867-.16956.634-.72912,1.04731-.89178,2.21067-.7988l17.28064,1.54671c1.24493.11129,1.59784.01617,1.69082-.18597.09512-.22972-.01403-.39928-.58073-.9265l-12.9889-12.50139Z"/><path class="cls-1" d="m262.72562,292.64684c-1.63732-1.05896-1.60925-1.15409-.12081-3.44181,2.3712-3.65061,4.17807-.37835,4.75856-1.268.27871-.43662-.55957-.84755-.87775-1.02876l-2.3945-1.44683c-.2088-.1346-.5341-.15791-.69654.08823-1.08227,1.663-1.83232,3.03302-2.70554,4.37545-1.87895,2.89602-2.85896,4.19876-3.36525,4.97447-.16956.2647-.08109.53652.13484.67801.94507.61545,1.57453-2.01567,3.70412-.63614l11.07763,7.19228c2.87963,1.87631.66872,2.48489,1.75575,3.18619.14387.09536.33912.05565.49464-.18811.67585-1.04279,1.1032-1.89724,1.48155-2.48249.61307-.94529,1.44683-2.02043,3.31173-4.89792,1.00784-1.55123-.2019-3.92932-2.05515-5.12788-.44589-.29013-.60166-.2043-.64803-.12984-.47372.71983,2.79854,2.46846-.24375,7.1597-.88725,1.36314-1.69082.7339-3.15858-.21353l-3.02826-1.96955c-1.37477-.89178-1.70462-1.00092-1.1379-1.87178l.90556-1.40022c1.27965-1.96716,3.44419.19025,3.83658-.41355.29726-.45517-.62924-.89416-.94743-1.07514l-4.30102-2.6033c-.64803-.395-.73626-.15339-.82448-.02568-.24375.37859,1.89272,1.85325.83828,3.47891l-.77098,1.1938c-.53412.81045-.69654.70368-1.71625.0416l-3.30699-2.14811Z"/><path class="cls-1" d="m290.83324,281.7968c.52009.44589.64779.634,1.18905.39952,1.2378-.56194,2.55694-.78025,3.61113-1.66754,2.26442-1.8996,2.24563-5.15333-.1346-7.98894-2.29914-2.74028-4.21969-2.71247-6.9231-2.17595-3.38831.66872-4.57022,1.18429-5.78945-.26254-1.21689-1.44897-1.12176-2.92149.01378-3.87819,2.97499-2.49652,6.60705,1.30747,7.00657.97312.37621-.32057.21381-.62258-.21831-1.06848l-2.62422-2.73338c-.45041-.47134-.66872-.84066-.93126-.61997-.22283.18573-.36456.8963-.58763,1.08441-.52247.43448-1.95527.20452-3.36738,1.39118-2.0228,1.69534-1.88797,4.67483.20214,7.15518,1.89962,2.27346,3.62968,2.25968,5.80825,1.83234,4.06868-.80356,5.38781-1.43282,6.92976.39952,1.45397,1.73004,1.28655,3.63682-.0604,4.76998-1.92055,1.60949-4.63988.54339-6.93903-1.06824-.30202-.22283-.4994-.38789-.77572-.15553-.43188.36216.26466.84303.57358,1.10296l3.01685,2.51055Z"/><path class="cls-1" d="m293.78257,260.4451c-1.53508-2.19688.43184-2.3341-.11607-3.12125-.19738-.27635-.31819-.26016-.87322.13246-1.05446.73602-1.65588,1.29582-2.31771,1.75789-.65041.45279-1.43518.86634-2.15764,1.37263-.16242.11605-.6756.37146-.39928.76408.55957.80808,2.1969-1.30058,3.67154.80118l7.76828,11.09142c1.53506,2.19236-.21593,2.5222.35077,3.33504.08347.11367.2321.24851.39928.1346.48085-.33912,1.21235-.98691,2.00188-1.54195,1.43993-1.01021,2.19236-1.39808,2.87511-1.87657.42497-.29726.52484-.50628.35077-.7593-.52033-.73864-1.84633,1.77192-3.8342-1.06824l-7.71951-11.02198Z"/><path class="cls-1" d="m372.24555,243.3666c.22307-1.25183.67823-1.74647,1.67917-1.57002,3.44181.60855,2.92624,4.70054,2.77761,5.41563-.14863.72007-.89892,3.8204-3.59044,3.34669-.48537-.08371-.83828-.31581-1.01497-.34841-.2692-.04635-.37146.27873-.40404.47136-.02093.11391-.03472.82924,2.14361,1.20995,2.64277.46684,5.08365-1.27725,5.6991-4.75381.71747-4.05249-1.79998-5.92904-4.65179-6.37493-1.58143-.25065-3.17689-.44589-3.48819-.50154-1.68369-.29726-2.88891-.62235-3.04229-.64803-.53412-.09512-.69202.25089-.71747.41569-.18359,1.03114,2.33148.29726,1.81139,3.24203l-2.15764,12.22032c-.60832,3.47178-2.27821,2.55001-2.41971,3.35335-.08823.47158.32509.48775.39239.49702.1277.02782,1.86014.21593,2.75193.37407.48775.08585,1.44683.36908,3.00282.64541.31129.05349.52033.14861.60618-.32271.17194-.97312-2.25728-.31345-1.64873-3.78547l2.27108-12.88662Z"/><path class="cls-1" d="m390.98232,244.59726c-5.11839-1.70462-9.46578,1.72103-11.48169,7.56162-1.85777,5.41349-.22283,10.00249,4.06416,11.48404,6.80919,2.33862,10.35992-3.74597,11.64433-7.47791,1.94599-5.65272-.04637-10.1906-4.2268-11.56775Zm1.24491,11.70235c-1.52127,4.42872-3.95049,7.5942-7.64747,6.40753-3.84133-1.23566-3.27225-7.27363-1.92768-11.16586,1.33316-3.86916,3.66464-7.18329,7.29694-6.01966,2.77048.89416,4.31243,4.88625,2.27821,10.77799Z"/><path class="cls-1" d="m403.45801,252.76981c.96622-1.90675,1.92078-.24851,2.40615-1.20545.15553-.30178.06944-.37621-.35077-.59214-.32509-.16482-.61545-.18811-2.32458-1.05898-.76646-.38785-1.88131-1.08463-2.68699-1.49318-.41809-.21379-.74317-.12556-.85708.0975-.44589.88251,2.16906,1.3586,1.08227,3.49508l-6.05914,11.88808c-1.56288,3.06798-2.40116.93364-2.98877,2.08773-.07422.14863-.02095.33912.24373.47156,1.1032.56434,2.00188.89416,2.62446,1.20999,1.00546.51081,2.16192,1.22614,5.21825,2.78451,1.64421.84303,3.88295-.61783,4.88151-2.57547.24399-.47609.13484-.62474.0604-.6642-.76408-.39024-2.16216,3.04443-7.14593.5063-1.44683-.73864-.90558-1.6026-.11367-3.16072l6.01015-11.79058Z"/><path class="cls-1" d="m415.64121,260.39159c1.50012-2.22233,2.33148-.43424,2.87511-1.23066.18811-.27871.1277-.39024-.439-.76646-1.06134-.72223-1.79974-1.07989-2.47797-1.53506-.64803-.44351-1.31675-1.02662-2.04587-1.51889-.16954-.11605-.58763-.50154-.85944-.10226-.54791.81757,2.00877,1.58857.56908,3.71815l-7.56638,11.22388c-1.5001,2.21805-2.44301.70368-2.98879,1.52364-.08133.11367-.15553.30414.01165.41807.48775.32723,1.36098.77785,2.15978,1.31889,1.45848.98715,2.08773,1.54909,2.78451,2.01353.42497.29274.66184.30891.83138.05589.5063-.75029-2.31317-1.0894-.37168-3.96666l7.5176-11.15206Z"/><path class="cls-1" d="m414.7958,276.16974c-2.0668,2.64755-3.2373.00929-3.92005.87326-.37859.48775-.0604.70368.25541.95457.71771.55503,1.3724.9265,2.56382,1.85539,1.18905.93126,1.70462,1.47941,2.41995,2.03208.51557.40642.81735.75005,1.23092.21593.48773-.61997-2.29226-1.75789-.15579-4.48912l7.85198-10.04649c.829-1.06824,1.10082-1.04256,1.82305-.47134l1.51651,1.17977c2.11341,1.50961-.38549,3.53454.32271,4.09198.46682.35767.94767-.66182,1.12414-.95459l1.39806-2.19686c.15553-.23686.39952-.54815.13698-.75718-1.65824-1.29107-2.91697-2.13648-5.51099-4.1638-2.5964-2.02994-3.71815-3.04705-5.37615-4.33835-.26468-.20903-.5063.10464-.69678.31129l-2.58237,2.71007c-.25779.26016-.74313.66658-.3717.95694.79904.62924,2.54075-2.70104,4.55191-1.12864l1.49083,1.16336c.7246.57146.81999.82211-.01141,1.88583l-8.06102,10.31591Z"/><path class="cls-1" d="m434.22243,276.42279c1.4259-1.32602,1.507-1.27941,3.36738.71533,2.97476,3.18641-.64327,4.14787.08133,4.92336.35291.38097.95908-.3389,1.20974-.60142l1.98095-1.97168c.19049-.17194.28347-.48299.08133-.69678-1.35147-1.44897-2.49412-2.51031-3.59021-3.68557-2.35265-2.52434-3.37451-3.78999-4.01089-4.46582-.21593-.22996-.49916-.20903-.68727-.03472-.82686.7686,1.57453,2.01805-.28561,3.74811l-9.6541,9.00607c-2.51745,2.34575-2.57096.05113-3.51601.936-.12319.11607-.13484.31131.0673.52486.84541.90796,1.56764,1.52341,2.04825,2.03446.77098.82425,1.60949,1.89272,3.94811,4.40304,1.26562,1.35171,3.86202.75029,5.46914-.75243.39476-.36458.34601-.54102.28563-.6038-.58289-.6271-3.07012,2.12504-6.88341-1.97168-1.10795-1.18215-.30891-1.81139.97288-3.00519l2.63828-2.46156c1.19618-1.11485,1.38643-1.41211,2.09008-.65255l1.14267,1.22139c1.59546,1.71389-1.02187,3.2908-.5296,3.8204.37172.39476,1.02187-.39714,1.27275-.65968l3.56952-3.54383c.54102-.53414.32271-.67585.22283-.79428-.31105-.32746-2.25039,1.38881-3.57641-.02545l-.97312-1.04279c-.6642-.70606-.51557-.84066.3717-1.66966l2.88677-2.69414Z"/><path class="cls-1" d="m450.93164,293.92174c.11151-.07657.04659-.22283-.01381-.31795-.17669-.26492-.96146.239-1.20545-.11629-.37859-.55957.08133-2.96096-1.44683-5.22516-3.17687-4.71455-9.64697-3.15856-13.57653-.50865-1.84611,1.24945-7.26888,6.12644-3.56926,11.60937,2.68913,3.98283,7.55922,3.58355,8.49286,2.95644.13936-.09512.13936-.34601.07895-.43662-.32984-.48775-4.25227.30654-6.20539-2.59402-2.40829-3.57189,1.2076-8.1911,4.51005-10.4158,3.13054-2.11341,7.42916-2.80544,9.28241-.05803,1.46776,2.17144.54102,5.1904-1.07537,7.64057-.21593.33436-.61307.7988-.41331,1.09606.21141.31817.69678-.11843.91961-.29726l4.22209-3.33266Z"/><path class="cls-1" d="m439.63116,305.05763c-2.61043,1.21687-3.0632-.96146-4.08271-.48323-.4321.20214-.11629.55053-.01403.77811.25541.55029.61307,1.05659.91961,1.70913.33912.71769.56218,1.45611,1.02662,2.4618.12295.26706.33912.78715.69202.62235,1.20284-.55957-1.75337-2.37121,3.14909-4.6563l8.695-4.05253c.22972-.10914.42711-.15337.48751-.0278.04661.10202-.02782.28323-.1624.52483l-8.70883,16.03359c-.13484.24138-.24399.40854-.10913.69892.11603.24613.31817.15101.88011-.11367l14.3475-6.68624c2.67773-1.25159,2.87963.7712,3.64371.41569.07443-.03948.33222-.15553.15553-.54553-.08823-.18121-.52699-.85231-1.12151-2.13909-.66206-1.4095-.83852-2.05277-.98715-2.38023-.13008-.26706-.41331-.20689-.58977-.12556-.84541.39714.77787,2.67773-1.54671,3.75998l-8.51381,3.96882c-.63638.29726-.96598.4019-1.01947.27633-.05567-.12057.13458-.51081.37167-.94268l7.43843-13.47903c.30891-.59452.60618-.43212.30178-1.08465-.5063-1.08441-.85683-1.5674-1.10772-2.09938-.17645-.38787-.25089-.80572-.42497-1.19356-.11605-.24613-.37384-.25327-.6038-.14649-1.2216.57597,1.50961,2.0901-3.39994,4.37545l-9.71667,4.53098Z"/><path class="cls-1" d="m459.77527,319.93925c2.54765-.82924,2.10176,1.09368,3.01447.7988.32509-.10678.34363-.22996.13462-.87325-.39952-1.22375-.75721-1.96-1.00786-2.73098-.24161-.75481-.40428-1.62806-.68275-2.4618-.0604-.19738-.15577-.75695-.60855-.60832-.93816.30416.59452,2.48725-1.84397,3.27915l-12.87523,4.18473c-2.54979.82448-2.35241-.94505-3.29292-.6409-.13486.04637-.3044.14625-.24401.34363.18359.55505.59,1.44469.88489,2.36668.54817,1.67204.69916,2.50104.95457,3.2977.16242.49227.33198.65017.62924.55742.85231-.28109-1.15647-2.28297,2.13674-3.35359l12.80077-4.15928Z"/><path class="cls-1" d="m465.79947,336.70433c.13933-.02331.13933-.18575.12079-.29488-.05351-.31129-.97312-.17669-1.05445-.59452-.11605-.66896,1.27727-2.67773.80356-5.36949-.98691-5.59684-7.53142-6.80206-12.197-5.97995-2.19236.38549-9.12688,2.6404-7.97969,9.15232.83138,4.73312,5.44371,6.34927,6.55378,6.15189.16718-.0302.26944-.25303.24851-.36456-.09988-.57811-4.00162-1.44683-4.60993-4.89316-.75243-4.24063,4.43564-6.9904,8.35115-7.68243,3.72504-.65707,7.92856.45754,8.50453,3.72504.45971,2.58023-1.61637,4.9607-4.08509,6.54213-.33674.21831-.88941.47609-.82448.83376.0604.37621.68988.17645.96146.10226l5.20685-1.3284Z"/><path class="cls-1" d="m304.34223,407.77765c-.72223.54815-.76408.51319-1.62329-.62948-1.37953-1.82519.40642-2.01567.07443-2.46158-.16266-.21591-.47395.09512-.60855.20429l-1.00784.82448c-.09298.0673-.14863.21593-.06039.33674.62923.83376,1.16335,1.45373,1.66964,2.12506,1.08917,1.44683,1.56312,2.16192,1.85325,2.54765.09988.1346.24401.1415.33913.0742.42043-.31819-.72462-1.13554.22305-1.84635l4.92099-3.70412c1.27965-.96598,1.25183.18121,1.73934-.18335.0604-.05351.07206-.14863-.02093-.26944-.39239-.52033-.7315-.88727-.95195-1.17739-.36003-.47372-.74553-1.07537-1.8278-2.51507-.58763-.77122-1.8649-.683-2.69151-.06754-.19526.15577-.17671.24399-.14865.28345.27158.35982,1.54885-.81044,3.31389,1.53507.51317.68275.10914.9265-.54103,1.42115l-1.34479,1.01259c-.61523.45992-.71059.58999-1.03568.15577l-.52722-.70154c-.74315-.98239.56908-1.55599.33912-1.86014-.16956-.22283-.50154.11391-.63638.22996l-1.82067,1.47226c-.27394.22522-.17406.31131-.12533.37861.13936.19049,1.12864-.5063,1.74409.30654l.44589.59452c.31105.40402.23688.45992-.21617.80354l-1.47465,1.11011Z"/><path class="cls-1" d="m306.60189,399.68429c.86396-.01403,1.22852.541,1.47251.35767.14863-.11631.01379-.22996-.14173-.42497-.22307-.3044-.49464-.58312-.72936-.89416-.20428-.26254-.35981-.5598-.71057-1.01949-.13698-.18359-.22281-.21617-.31105-.15578-.3648.28349.55957.91986,0,1.33769-.14863.10915-.4994.20214-.97312.22996l-1.72554.08133c-.39952.02093-.62948.04184-.64803.01403-.02782-.04185.06756-.25779.18121-.56909l.71057-1.87869c.11629-.31128.20903-.51341.42734-.67584.39714-.30416.64803.32509.95908.08823.16956-.13008.03948-.25089-.06017-.38549-.21831-.29274-.47394-.58763-.85944-1.05445-.35053-.44827-.47372-.71747-.63638-.93364-.29013-.38549-.39239-.47372-.52699-.37146-.22994.17408.22283.58763-.29726,1.9253l-1.21711,3.17927c-.1346.35053-.17645.54791-.33888.66182-.11391.08823-.42497.0673-.75029.08133l-2.44777.0742c-1.52101.05351-1.79047-.69654-2.03422-.51321-.11629.08824-.1277.17647-.00713.33675.34387.46682.6038.71771.81761,1.00094.19738.26468.36692.56908.69678,1.01497.03232.03472.12055.2019.31104.0604.25779-.18811-.41092-.81069.04661-1.1636.19025-.14173.39928-.195,1.05421-.21593l1.69296-.05351c.1603-.0069.36456-.04185.41807.02782.04875.06754-.01403.20214-.06039.30891l-.94745,2.12506c-.07443.15553-.17431.32507-.26254.39001-.38073.28585-.74529-.29013-1.00094-.09275-.05565.03948-.1346.08823.02093.29726.195.25779.40405.44589.94529,1.16812.54102.71747.7315,1.05659.90558,1.29344.13008.16718.21141.18121.31129.10701.39239-.29726-.45279-.44589.44827-2.62446l.95219-2.30366c.10202-.25779.25065-.65041.34363-.7246.0742-.05351.36004-.04637.62924-.05351l3.34193-.05327Z"/><path class="cls-1" d="m342.30109,278.97519c1.47489,0,2.66394,1.19356,2.66394,2.6637s-1.18905,2.6637-2.66394,2.6637c-1.46776,0-2.6637-1.19358-2.6637-2.6637s1.19594-2.6637,2.6637-2.6637Z"/><path class="cls-1" d="m318.33207,284.30259c1.46776,0,2.66394,1.1938,2.66394,2.66368,0,1.47016-1.19618,2.66396-2.66394,2.66396-1.47465,0-2.6637-1.1938-2.6637-2.66396,0-1.46988,1.18905-2.66368,2.6637-2.66368Z"/><path class="cls-2" d="m397.30374,294.38642c-.64327,1.52792-1.3284,1.76026-3.85727,1.31437-2.10865-.3717-2.05776-3.14217-1.93933-4.31505l-3.54835-1.03114c-1.52576,3.03777-3.33028,3.20495-4.73074,3.01209-2.55217-.35055-2.68225-4.58187-2.53148-7.07149l-3.65061-.7384c-1.76978,5.00469-2.5662,5.77565-4.79328,6.18447-1.2378.22758-2.18547-.56908-2.64063-1.06372-.77573-.84779-1.24232-2.00188-1.30985-3.08653.09538-.54102.15577-1.09154.17645-1.65111l-3.69009-.5736c-.17194.62472-.25327,1.27727-.25777,1.93672-.32059,1.46086-1.00571,2.7241-1.87419,3.36762-.59902.44351-1.22377.55717-1.9624.36216-1.77192-.46918-4.1267-1.90436-4.1267-8.92472h-3.76238c0,.21593.00927.42021.01165.62924h-.01165c0,5.04893-1.23304,7.53142-4.12218,8.29548-.73602.195-1.41663.0326-2.07607-.49227-.91033-.72459-1.60236-2.03206-1.85087-3.38139.0069-.55267-.03496-1.09844-.13246-1.63042l-3.72742.27657c-.01855.52247.01403,1.05183.08585,1.57667-.08823,1.2982-.64541,2.65466-1.51413,3.52077-.71057.71057-1.5001.99404-2.34313.83852-2.25966-.41357-3.37451-1.43542-5.11623-6.34475l-3.64607.74078c.15551,2.59878.06514,7.01109-2.29916,7.33404-1.31913.18335-2.89604-.09988-4.64465-3.58807l-3.55097,1.03114c.24161,2.38974-.68727,4.68888-2.0297,5.02324q-2.38974.59928-3.49746-1.31437l-.32057-.54815-3.23967,1.90675.30654.52699c1.71627,2.96572,3.03302,4.23608,7.65912,3.07725,2.07156-.51557,3.4675-2.09938,4.2292-4.06178,1.61853,1.40022,3.48819,1.96454,5.60138,1.67204,1.85799-.25541,3.90624-1.3353,4.93048-4.53098,1.22139,1.45159,2.7612,2.37357,4.93716,2.77286,2.06942.38097,4.08746-.28323,5.68293-1.87631.36694-.36694.69894-.77573.9962-1.21235.34837.42259.72934.80356,1.14265,1.13102,1.58619,1.26324,3.49746,1.68607,5.37853,1.18667,2.49654-.66184,4.09198-2.07393,5.11147-3.72267,1.15197,1.89724,2.80781,3.14907,4.97449,3.72267,1.85111.49012,3.63468.15339,5.1626-.97312.47395-.35291.91271-.78265,1.30747-1.268.19738.27419.41119.53888.64113.7919,1.66728,1.81853,3.88747,2.6266,6.09148,2.22019,2.19236-.40166,3.64371-1.29582,4.75143-2.63588,1.18453,3.17,3.44657,4.07129,5.03038,4.2896,1.65801.22758,3.72504.06254,5.63394-1.34481.81045,1.96002,2.35027,3.28843,4.44513,3.65537,1.95766.34599,6.03346,1.06372,7.97493-3.56l-3.46512-1.45611Z"/><path class="cls-1" d="m366.75549,279.13072c1.47489,0,2.66608,1.1938,2.66608,2.6637,0,1.47014-1.19119,2.66394-2.66608,2.66394-1.47228,0-2.66132-1.1938-2.66132-2.66394,0-1.4699,1.18905-2.6637,2.66132-2.6637Z"/><path class="cls-1" d="m391.0427,283.98916c1.47465,0,2.66608,1.19354,2.66608,2.6637s-1.19142,2.6637-2.66608,2.6637c-1.47228,0-2.6637-1.19356-2.6637-2.6637s1.19142-2.6637,2.6637-2.6637Z"/><polygon class="cls-1" points="318.38557 307.55867 321.21194 304.84146 324.68847 306.15369 322.01765 308.84997 318.38557 307.55867"/><path class="cls-2" d="m312.13143,305.42457c16.08922-5.13953,25.67364-6.62108,42.72908-6.60253,17.21786.01165,26.82773,1.4932,42.85203,6.60253,0,0,1.3284.35053,1.8347-1.2309.50392-1.58167-.75718-2.15526-.75718-2.15526-16.23309-5.17425-26.49575-6.75568-43.92502-6.76971-17.27589-.01855-27.51286,1.5655-43.81587,6.77209,0,0-1.28417.55053-.78025,2.12958.50392,1.57929,1.86252,1.25421,1.86252,1.25421Z"/><path class="cls-2" d="m315.55921,315.81469c1.46086-.30655,2.95644-.64803,4.53788-1.01259,7.97281-1.82994,17.89371-4.10815,34.59149-4.12218,13.82266-.01165,23.19567,1.87417,35.06758,4.26154l4.39162.87799s1.34933.19952,1.66514-1.40286c.31819-1.60234-.97549-2.08083-.97549-2.08083l-4.37997-.87773c-12.06691-2.4247-21.59545-4.34287-35.7734-4.32884-17.09729.01379-27.23676,2.34076-35.38339,4.21253-1.56312.35768-3.04229.69678-4.47058.99642,0,0-1.29582.49702-.96384,2.07845.32986,1.58143,1.69296,1.3981,1.69296,1.3981Z"/><polygon class="cls-1" points="340.08329 303.44338 343.23949 301.15138 346.7555 303.00225 343.52512 305.25953 340.08329 303.44338"/><path class="cls-1" d="m397.74964,310.02285c.69678-1.71413-.35743-4.02016-.35743-4.02016-1.25872-.39001-3.70649-.18121-4.31267,1.49106-.6573,1.81377,0,3.2908,2.03422,4.5053,0,0,1.28441-.45043,2.63588-1.97619Z"/><polygon class="cls-1" points="391.14496 307.55867 388.3186 304.84146 384.84209 306.15369 387.5129 308.84997 391.14496 307.55867"/><polygon class="cls-1" points="369.29149 303.44338 366.13314 301.15138 362.61261 303.00225 365.84991 305.25953 369.29149 303.44338"/><path class="cls-1" d="m382.48252,305.4153c.29726-1.87893-1.78357-3.27225-4.6028-3.71815-2.81947-.44827-5.31599.22283-5.61325,2.10176-.29726,1.87869,1.69772,3.24657,4.51695,3.69484,2.81947.44589,5.40184-.19976,5.6991-2.07845Z"/><path class="cls-1" d="m417.56176,314.75573c.53412-.32057.87326-.30416,1.14267.14863.94054,1.56526-.74315,2.69866-1.06132,2.87511-.31821.17645-1.71629.89391-2.44779-.32509-.13482-.22307-.16266-.43662-.21593-.51795-.06754-.12081-.22307-.05351-.31127-.00713-.0395.0302-.31131.25777.28321,1.24731.71771,1.20046,2.18547,1.59307,3.67869.70128,1.73242-1.04967,1.58165-2.65441.77809-3.92954-.439-.71057-.90582-1.4026-.98715-1.54433-.46682-.76624-.75005-1.34933-.7919-1.42115-.14173-.23925-.32509-.18359-.39001-.14413-.44827.26494.67348,1.02189-.58998,1.77907l-5.23919,3.14669c-1.48869.89654-1.71151-.07207-2.05538.13936-.20428.12081-.0673.28559-.04875.31581.03496.06278.54815.80831.7919,1.21235.13484.22283.35077.6944.77098,1.39808.08609.1415.12081.25779.32532.13696.41783-.25087-.64327-.99404.84517-1.89033l5.52264-3.32101Z"/><path class="cls-1" d="m428.71834,344.18461c.22309-.03258.52722-.07206.4994-.24851-.02568-.18813-.41117-.15553-.44589-.41331-.04661-.31129.71057-1.41663.48061-3.0354-.41329-2.93552-3.61589-3.70649-5.92906-3.38143-1.08917.15341-4.53074,1.17052-4.05702,4.5845.18121,1.26798.99404,2.47084,1.8649,3.47415.08135.09512.15791.09988.37148.06966.19738-.02781.57595-.11603,1.1379-.19738,1.76502-.24611,1.13578.66422,1.72317.57813.13484-.02069.18359-.0975.17669-.15553-.06276-.41807-.16956-.81737-.22996-1.24707-.08133-.54815-.10226-1.09154-.17645-1.63946-.02782-.19976.02782-.58525-.3717-.53198-.52247.07443.60855,1.3284-1.53506,1.63042-.7988.11129-1.96002.23924-2.25039-1.85563-.27158-1.8882,2.12271-3.05395,4.0014-3.31627,3.48365-.49011,4.53785.92652,4.69362,2.01117.42497,3.05846-2.57096,3.48581-2.53838,3.73884.0371.22069.10915.28109.29251.25779l2.29224-.32271Z"/><path class="cls-1" d="m427.61062,357.3036c.95219.0975.95908.14863.80808,1.5605-.23448,2.25966-1.75575,1.17763-1.80901,1.72553-.02568.26946.43186.25542.61545.26256l1.3724.10202c.12081.01403.27182-.05565.28347-.2088.10915-1.029.13698-1.83947.22972-2.67084.18359-1.79284.32534-2.62422.37859-3.10507.01403-.1648-.08133-.2692-.21117-.28323-.54577-.05803-.24851,1.31223-1.49344,1.17977l-6.46294-.67823c-1.68393-.17645-.84541-.98929-1.48179-1.05659-.07895-.0069-.15315.05351-.17645.20666-.0673.64565-.05803,1.1403-.09988,1.50486-.0604.58073-.18811,1.27726-.37859,3.05632-.09512.95908.95908,1.76954,2.04135,1.87869.25779.02782.31129-.04637.31819-.09275.04637-.44827-1.78357-.47609-1.48155-3.37213.09512-.84066.58287-.74315,1.43972-.65255l1.765.18335c.80594.08823.97549.05589.91961.59452l-.09275.86634c-.12319,1.21687-1.55599.73626-1.59782,1.10772-.02547.28321.4737.26468.65728.26944l2.46846.17645c.37859.02782.36242-.10678.3717-.18811.01855-.22996-1.24469-.39952-1.14267-1.40735l.08133-.73626c.05351-.50156.14863-.49227.74315-.42734l1.93458.20452Z"/><path class="cls-1" d="m419.74699,361.35372c-.33888-.0069-.44589-.04185-.58287.23448-.31105.62948-.75005,1.1567-.88465,1.86038-.29726,1.51413.71057,2.80544,2.50104,3.15834,1.7303.33674,2.45942-.31129,3.33955-1.42139,1.11009-1.39095,1.40735-1.9926,2.32696-1.81139.91271.17645,1.32388.79904,1.17739,1.55599-.38763,1.98808-2.95621,1.66276-3.00282,1.9322-.05327.25089.10915.31819.41117.35315l1.84635.22972c.32271.03948.52009.11391.55505-.0604.02782-.14863-.13484-.48061-.10915-.62924.0673-.35077.69654-.7315.88013-1.67679.2623-1.35147-.70368-2.49414-2.27132-2.79832-1.43518-.27869-2.097.29726-2.80781,1.18905-1.33054,1.66968-1.64873,2.36646-2.80518,2.1365-1.08942-.20903-1.60951-1.02876-1.43306-1.93458.24163-1.27727,1.62331-1.75099,3.00973-1.8649.18119-.01379.30889-.01379.34385-.19738.06042-.29013-.36004-.24851-.55505-.24851l-1.93933-.0069Z"/><path class="cls-1" d="m418.46044,367.29658c-.33674-.05327-.43876-.09512-.60832.15577-.38549.59452-.88489,1.06134-1.10793,1.74409-.47374,1.46776.36478,2.87274,2.09722,3.44157,1.67443.54124,2.48725-.01379,3.4927-1.00784,1.26586-1.24469,1.63732-1.8045,2.52458-1.51413.88465.28321,1.22377.95433.98691,1.69059-.62948,1.92768-3.13742,1.2913-3.22564,1.54909-.07443.24851.0673.32984.36456.40404l1.81139.45279c.31105.07443.50154.16956.55505.00713.04875-.14865-.07443-.4925-.02782-.64113.10915-.33198.77787-.63614,1.07514-1.55599.42734-1.3051-.39001-2.56144-1.91365-3.05609-1.38405-.45279-2.11555.03948-2.926.84539-1.52816,1.48847-1.92768,2.1365-3.05157,1.77193-1.05445-.33912-1.47251-1.21687-1.18905-2.0901.40642-1.2378,1.83446-1.54219,3.21875-1.48631.18335.00452.31105.02545.36694-.15577.09275-.27871-.32509-.29251-.52033-.31819l-1.92293-.23686Z"/><path class="cls-1" d="m422.79406,377.28979c1.24015.44587.46918,1.10772.91507,1.27038.15553.05565.2019.01379.32509-.32532.22283-.62687.31581-1.04042.46444-1.43732.1346-.38787.34601-.79904.50867-1.23328.03472-.09988.17408-.35767-.04899-.439-.45969-.16958-.54791,1.20997-1.73696.77811l-6.26104-2.27821c-1.24493-.45304-.61545-1.12175-1.06848-1.2913-.0673-.02093-.16932-.03472-.2019.0673-.10226.28345-.22519.77809-.39952,1.25635-.31105.85944-.51319,1.25183-.66182,1.65824-.0975.25541-.07443.37859.0673.42497.41807.15553.26946-1.3051,1.8718-.71533l6.22634,2.26442Z"/><path class="cls-1" d="m418.82048,377.15496c-2.64991-.96146-4.95832-.11607-5.76878,2.10889-1.27727,3.52289,1.6699,5.36212,3.49748,6.02418,2.77069,1.00784,5.05107-.02808,5.81299-2.18998.9334-2.64991-.68751-4.90267-3.54169-5.94309Zm3.0958,5.40897c-.48775,1.4328-2.49436,2.2316-5.38091,1.18191-2.16452-.78953-3.6927-2.04827-3.03777-3.9619.68513-1.98785,3.66702-1.69772,5.56664-.99856,1.89272.68751,3.49532,1.89724,2.85205,3.77855Z"/><path class="cls-2" d="m317.19891,407.62664c-.36242-1.08227-.62471-1.8649-1.40284-3.1329-1.36788-2.22708-1.82994-2.87036-4.13598-5.73144-.13934-.17194-.28109-.35315-.42497-.53888l2.27583-2.54527.2321-.2623.52722-.34151-.09512-.14172.0069-.00452-.01855-.01165-1.15407-1.74885c-1.40048-2.09938-2.50605-3.75976-3.74147-6.44439-1.91126-4.12218-2.68225-6.5212-3.78995-10.67123l-.04187.01167.01617-.06516-1.44207.36242-3.50459.87774c-5.65938-14.4985-7.23867-27.38514-4.72598-38.86229l8.09812,3.46726.94529.40642.26468-.99618,3.77142-14.34752.34387-.42732-.20452-.10678.00238-.00713-.03472-.00927-.7246-.37621-3.5626-1.84851,1.51887-6.83701.49464-.60853-.83828-.5365-15.67139-10.02794-.47847.74791-.72437-.51319c-8.52784,12.03671-13.44193,27.0508-13.83907,42.27843-.41331,15.87329,3.90174,31.06383,12.47809,43.92954l.47372.70843.72698-.44137,4.94881-3.00497c.3346.72462.98477,2.09464,1.54671,3.04921.24615.42259.59.91507.90106,1.3353l-4.54239,2.95644.48299.74553-.7617.45731.50393.84779c3.09341,5.2299,10.33684,17.4804,17.61974,15.0488,2.13196-.71295,3.48345-1.8347,4.78876-2.91911.81735-.67823,1.66276-1.37953,2.72862-2.01591l.61545-.36932c0-.00452-.23234-.68489-.23234-.68489l-.22045-.65041Zm-7.04843-10.85456c-1.01257-1.40285-2.0668-2.99592-3.02137-4.56118l4.38688,3.03302-1.36552,1.52816Zm-7.14831-18.32819l-.75932,3.00757c-.37146-.85469-.73148-1.70462-1.07514-2.54765l1.83446-.45992Zm.6271-38.63686l-7.43392-3.18641c.13484-.51319.26944-1.02401.42045-1.53268l4.68651.55505.49012.05565.30869-.38311,4.02704-5.01397-2.4989,9.50547Zm-6.4677-6.44225c1.49558-4.44275,3.64847-8.66482,6.46318-12.67785l-2.91005,13.09805-3.55312-.42021Zm9.29859-6.30765l-3.36024,4.18021,1.17975-5.31099,2.18049,1.13078Zm-17.82168,63.80444c-8.06078-12.40603-12.11804-26.96709-11.72328-42.18093.38097-14.58912,5.00945-28.96445,13.03765-40.5995l14.1223,9.03627c-13.94347,17.72891-14.9142,39.39428-2.96332,66.17326l-12.47335,7.57089Zm6.65818-1.9624l7.40373-4.49364.67346-.40879-.0371-.08133.10915.02782,1.13556-4.49602c.78953,2.67535,1.60472,4.85131,3.07249,8.01916.89178,1.93672,1.7115,3.34881,2.60566,4.74929l-5.06034-3.49984-.03258.04637-.14625-.27633-.81045.52722-6.50028,4.22896c-.29726-.4019-.634-.87561-.86158-1.268-.57146-.96624-1.268-2.45704-1.55147-3.07487Zm17.87754,21.08012c-1.28893,1.07062-2.4014,1.99474-4.21731,2.60092-5.92216,1.97881-12.90089-9.82342-15.52728-14.26617l-.07206-.12319,11.0196-7.169c1.70224,3.04467,3.999,6.50265,5.901,8.85506,2.26442,2.81019,2.67773,3.38141,4.00376,5.54357.6711,1.09844.88251,1.72768,1.23328,2.77286v.00238c-.89178.58977-1.63042,1.19356-2.34099,1.78357Zm121.05962-61.34502c-.39476-15.22764-5.31123-30.24172-13.83645-42.27843l-.7246.51319-.47847-.74791-15.67353,10.02556-.83826.53888.49464.60853,1.51863,6.83464-3.56238,1.85089-.71533.3717-.04875.01379v.01165l-.195.10226.33198.41569,3.78307,14.35916.26254.9938.94529-.40404,8.09788-3.46964c2.51507,11.4819.93602,24.36617-4.72598,38.86704l-3.50436-.88011-1.43993-.36242.01641.06516-.04423-.01167c-1.10772,4.1524-1.88107,6.55142-3.78782,10.66885-1.25872,2.72173-2.32221,4.31957-3.79686,6.53048l-1.20545,1.82303.08371.05352-.0673.0371.74315.83138,2.15267,2.40592c-.11369.1441-.23212.29037-.35293.44136-1.81615,2.25492-2.22946,2.64731-3.59972,3.95027l-1.08441,1.04042c-1.57239,1.2076-2.48273,2.7914-2.31555,4.05702.10226.76408.57597,1.35407,1.33078,1.65587,1.79522.71771,2.30152.85469,2.74503.97549.24851.0673.44351.11843.87561.28323l.09037.03258c.00713.00238.10226.01617.10226.01617l1.81855.26942c2.8656.44139,3.36976.45756,6.93452-.61068,6.72546-2.01805,10.70829-10.76871,10.81055-11.35396l-.87561-.15101.46446-.75934-3.18857-1.94859c.6573-.93128,1.61401-2.32008,2.28059-3.41851.57597-.94981,1.22377-2.32458,1.55361-3.05395l4.94667,3.00282.72912.44137.47158-.70843c8.57635-12.86572,12.8914-28.05625,12.47785-43.92954Zm-29.1409-22.71268l1.18215,5.31575-3.36048-4.18021,2.17833-1.13554Zm.65732-5.23703c2.81469,4.01541,4.96758,8.23747,6.46316,12.68022l-3.55334.42021-2.90981-13.10043Zm-.00692,19.12247l-2.50366-9.51237,4.03634,5.02087.30654.38311.48775-.05565,4.69102-.55505c.14863.50867.28585,1.01949.41809,1.53268l-7.43608,3.18641Zm2.46394,39.09678c-.34601.84541-.70368,1.69296-1.07514,2.54765l-.75956-3.00519,1.8347.45754Zm-10.27407,16.73725l3.30697-1.82542c-.73838,1.24017-1.40498,2.21543-2.11341,3.16072l-1.19356-1.3353Zm15.44596,3.72267c-1.04495,2.19688-4.47749,7.99346-9.32666,9.44959-3.31625.99404-3.5298.95932-6.15189.55505l-1.75337-.25993c-.44589-.16506-.70128-.23472-.94054-.29964-.39952-.10915-.84991-.22996-2.54765-.91033-.20903-.08371-.22069-.16956-.22996-.23925-.06968-.52245.55505-1.60948,1.68369-2.45941l.04187-.0302c.00476-.00238.04183-.03948.04183-.03948l1.09606-1.04969c1.39594-1.3284,1.86728-1.77669,3.75762-4.12456,1.67204-2.07845,2.85419-3.62516,4.49602-6.60016l9.83295,6.00801Zm-.84305-7.40134c-.65493,1.07751-1.6373,2.49652-2.28273,3.41159l-6.57709-4.02015-.74315-.45517-.01855-.0371-.02307.01165-.01877-.01165-.01381.02782-4.49602,2.48511c1.20046-1.81377,2.21995-3.44419,3.3581-5.90813,1.46776-3.16786,2.28035-5.34381,3.07249-8.01916l1.13554,4.49602.10915-.02782-.0371.08133.67348.40879,7.40585,4.49364c-.27871.61545-.96598,2.10864-1.54433,3.06322Zm8.20037-1.10082l-12.47357-7.57089c11.95088-26.77898,10.98013-48.44435-2.96334-66.17326l14.1247-9.03627c8.02606,11.63505,12.65452,26.01038,13.03525,40.5995.395,15.21384-3.66226,29.7749-11.72304,42.18093Z"/><path class="cls-1" d="m360.09041,302.90474c.03258-1.90438-2.21781-2.99592-5.07198-3.04705-2.85658-.04875-5.23919.95932-5.27177,2.86582-.03496,1.90202,2.12958,2.97953,4.99542,3.03066,2.85183.04659,5.32051-.94745,5.34833-2.84943Z"/><path class="cls-1" d="m326.73672,305.4153c-.29726-1.87893,1.77905-3.27225,4.59592-3.71815,2.82634-.44827,5.32287.22283,5.62013,2.10176.29726,1.87869-1.69772,3.24657-4.52383,3.69484-2.81948.44589-5.39496-.19976-5.69222-2.07845Z"/><path class="cls-1" d="m293.76162,378.10714c1.41213-.68965,1.4259.7919,1.89272.56908.25541-.13008.15553-.30416.0604-.49464-.20428-.42497-.41807-.75718-.77098-1.46538-.35315-.71771-.47372-1.08917-.67585-1.51651-.15553-.31129-.22307-.53889-.5063-.39714-.33198.16027.67585,1.35147-.77787,2.0599l-5.34855,2.61043c-.56886.27847-.67563.19738-.89394-.23472l-.439-.90797c-.64801-1.20306.83138-1.50032.62924-1.92529-.1346-.27871-.54102.0673-.6756.15553l-1.02902.64803c-.11367.0673-.27633.14863-.2019.31129.48537.98691.88013,1.67655,1.63494,3.23254.75932,1.55385,1.06134,2.29224,1.54195,3.28629.08133.15315.24399.0742.37384.02545l1.64209-.58764c.16241-.05325.45277-.11603.34362-.34362-.22996-.47609-1.62804.59452-2.21781-.60832l-.4321-.89416c-.21593-.43212-.2019-.56908.36694-.84541l5.48317-2.67773Z"/><path class="cls-1" d="m284.47684,371.78568c-.87086.24401-.89866.20214-1.29818-1.175-.62926-2.19238,1.11008-1.73244.95217-2.26656-.07443-.26254-.47134-.08823-.634-.02808l-1.2378.40643c-.11605.03496-.21593.14863-.17645.29726.28561,1.00094.56194,1.77215.7919,2.57569.50156,1.74625.68275,2.58477.81735,3.05158.04875.15553.17647.22283.29274.18811.5063-.14863-.27182-1.31913.87086-1.64207l5.91741-1.6975c1.54671-.44587,1.10772.61523,1.69534.45281.0742-.02782.11605-.10915.0742-.2578-.18121-.62946-.37146-1.09392-.46444-1.44681-.16956-.5667-.31129-1.26348-.81283-2.99354-.26468-.93364-1.4932-1.31225-2.48035-1.02876-.24375.0673-.25777.16242-.24375.20903.1277.43186,1.7372-.20214,2.54765,2.61733.2321.81735-.23686.90558-1.01949,1.12864l-1.61639.46682c-.73626.20903-.88013.29726-1.02876-.22307l-.24161-.84541c-.3391-1.18429,1.09606-1.25161.99404-1.61615-.08371-.26944-.51557-.06754-.67823-.01403l-2.22946.7315c-.33912.10678-.27871.22307-.25089.30416.0604.22307,1.23805-.0742,1.51437.90582l.20903.71769c.14387.49227.04875.51321-.49249.66874l-1.77193.51317Z"/><path class="cls-1" d="m284.23998,365.47139c1.48155-.2371,2.44777-1.35171,2.23874-2.68463-.18811-1.20309-1.3724-2.0228-1.69772-1.97405-.1415.01855-.14863.09512-.1415.1415.03472.18811.81045.64803.91962,1.33768.17406,1.1032-1.13104,1.94861-2.38047,2.14361-.80357.13008-1.77193.07443-1.91367-.82448-.10202-.62924.31129-.89868.91271-1.14244.08823-.03496.19049-.07443.16956-.17669-.03258-.2019-.69678-.78263-.9265-.74315-.75718.12081-.80356,1.2309-.74315,1.63042.25065,1.57452,1.81829,2.56143,3.56238,2.29224Z"/><path class="cls-1" d="m281.40672,350.42948c-1.2913,0-.72912-.85469-1.2309-.85469-.11367,0-.15553.04637-.15553.24851,0,.51081.05565.94743.05565,1.56764,0,.73388-.05565,1.04042-.05565,1.52792,0,.16504-.02568.27419.21141.27419.38549,0-.08847-1.30533,1.35838-1.30533h1.85323c.29037,0,.59452.06968.59452.41117v3.52291c0,.24637-.16954.29512-.52699.29512h-2.0901c-1.17763,0-.78976-.91509-1.20308-.91509-.1277,0-.19738.10678-.19738.27633,0,.34363.05565.81759.05565,1.52816,0,.61543-.05565.96836-.05565,1.32365,0,.22307.01379.58287.21141.58287.49916,0-.07443-1.33982,1.35838-1.33982h5.86864c1.62804,0,1.15647,1.00784,1.68369,1.00784.17647,0,.19738-.12081.19738-.2647,0-.58761-.04875-1.08701-.04875-1.58381,0-.85229.04875-1.24491.04875-1.7279,0-.37859-.10202-.36006-.18335-.36006-.47372,0,0,1.47253-1.63042,1.47253h-2.06916c-.57361,0-.70821-.03734-.70821-.58313v-3.1607c0-.52009.1415-.48537.69654-.48537h2.3712c1.27038,0,.91961.86396,1.37953.86396.09512,0,.14387-.0742.14387-.23686,0-.6038-.04875-1.06824-.04875-1.4932,0-.48775.04875-1.18453.04875-1.57691,0-.1534.01165-.24853-.15553-.24853-.51557,0-.02782,1.2333-1.69772,1.2333h-6.07983Z"/><path class="cls-1" d="m287.69559,346.9413c1.34005.1346.98715,1.24707,1.51413,1.2982.22307.02307.17669-.22069.18811-.34839.03496-.32057.01403-.64565.05589-1.02424.04185-.41331.1346-.80808.19049-1.39095.01141-.15101.06017-.44589-.12317-.46468-.62236-.06017.12317,1.53981-2.39904,1.28679l-4.46344-.44589c-.12081-.00927-.20903-.04423-.20214-.11845.0069-.05825.08133-.12079.18811-.19285l7.40371-4.99994c.10678-.07443.195-.12081.20903-.29037.01379-.14173-.08823-.14863-.37621-.17883l-7.36424-.74078c-1.37953-.13484-.96836-1.11009-1.3586-1.14957-.04185-.00238-.16956-.01641-.19738.20903-.0069.10438,0,.52484-.07443,1.268-.08108.81495-.16932,1.15409-.18333,1.3422-.01857.15553.10914.20214.20426.20903.4321.04875.33674-1.41901,1.53506-1.2982l4.37307.43662c.3251.03018.48085.07206.47372.14625-.00452.0673-.17408.19524-.37621.32984l-6.26342,4.16856c-.27158.18811-.35053.03734-.39239.41807-.0604.62472-.03948.93816-.0673,1.24255-.02568.22758-.09536.43424-.12319.65705-.01165.14175.09061.21143.20452.22308.62926.0673-.08847-1.34695,2.43374-1.09392l4.99066.50178Z"/><path class="cls-1" d="m283.4086,333.45538c-1.22399-.26492-.5736-1.03352-1.01497-1.1265-.15315-.0302-.195.02091-.26944.36932-.13458.65968-.17645,1.08917-.26468,1.50486-.08823.40404-.23686.84779-.32984,1.2982-.02069.10464-.12295.38787.10226.4321.44589.0975.36456-1.28893,1.53268-1.04042l6.18233,1.31437c1.22139.25779.71509,1.02187,1.161,1.11461.06752.01403.16264.01403.18357-.09275.0604-.29726.11369-.80831.2207-1.30512.19738-.90818.33886-1.32624.42709-1.75359.06042-.26468.02806-.38073-.11367-.41093-.4133-.08823-.09512,1.3353-1.67917,1.00094l-6.13786-1.3051Z"/><path class="cls-1" d="m286.14673,322.55183c-.0604-.02331-.09988.05113-.12081.10464-.0604.15553.33674.32033.25541.53174-.12769.33436-1.20308.8963-1.71625,2.23398-1.06826,2.78451,1.20996,4.96997,3.27913,5.76188.96622.37144,4.30102,1.07989,5.54359-2.1574.90556-2.35716-.4994-4.23847-.98478-4.42872-.0742-.02806-.17645.04637-.19738.10202-.11367.28561,1.20997,1.65587.55505,3.37213-.81283,2.11103-3.58569,2.06466-5.32287,1.39808-1.64185-.634-3.02138-2.18761-2.3919-3.81327.48537-1.28203,1.9322-1.84635,3.32552-1.94861.19049-.01617.47372.00713.54102-.17172.07443-.18595-.22283-.25087-.35053-.28797l-2.41519-.69678Z"/><path class="cls-1" d="m315.22723,438.27713c.0742-.9058.05566-.98691-.16266-1.09605-.30891-.15339-.67346.25779-1.04731.57574l-14.2129,11.91375c-1.31675,1.10321-2.45227.3251-2.75191.90583-.1672.32509.24374.47372.57596.6409.69654.35529,1.4397.6038,2.1574.96836.75718.39262,1.42592.85943,2.18998,1.24493.50154.25779,1.14957.81045,1.4214.28323.34362-.67587-2.44327-1.58857-1.51653-3.39996.30416-.6038,1.08917-1.31199,1.51653-1.73246,1.39093-1.37238,1.94598-1.22375,2.35001-1.01258l4.70054,2.39212c.62235.31819.61545.62924.39952,2.99568-.08133.81069-.14173,1.34481-.42734,1.89986-.77573,1.53506-2.33172.39239-2.70318,1.12389-.18359.35077.15553.45992.58739.67348.68988.36004,1.62352.70606,2.67773,1.23778,1.57002.80595,2.16454,1.23092,3.02374,1.66991.64803.33198.83614.49464,1.05445.06278.41785-.82686-1.36572-.50178-1.22638-2.67773l1.39356-18.66946Zm-3.73907,9.05484c-.03258.35765-.03258.70843-.20903,1.06134-.1277.24851-.44589.05351-.87775-.16266l-3.24679-1.65587c-.43188-.21807-.77789-.36672-.65019-.61521.17645-.35316.45994-.55505.7384-.79904l4.10364-3.50911c.25779-.21593.3648-.195.41355-.16956.12057.06039.04637.02806.08823.29726l-.36004,5.55284Z"/><path class="cls-1" d="m428.25842,438.18201c-.5736-.72935-1.03328,1.02878-2.94693-.02567l-16.33083-9.14067c-.78953-.45992-.87086-.46682-1.06134-.31819-.26944.20903-.04637.71747.08133,1.18905l4.78878,17.91916c.4366,1.65587-.73866,2.36644-.33914,2.87274.22283.29037.52722-.02094.82448-.25065.61069-.47395,1.14957-1.04042,1.78573-1.54219.67583-.52722,1.37951-.93126,2.05536-1.46062.44589-.34387,1.21689-.70154.85231-1.16812-.46682-.59452-2.4687,1.53504-3.72052-.0604-.41783-.53412-.72912-1.54219-.92413-2.10414-.6642-1.84635-.29274-2.28511.0673-2.56382l4.16404-3.25134c.54791-.42495.82425-.28322,2.87511.90583.7013.42021,1.16098.70344,1.54647,1.19119,1.06134,1.35171-.62687,2.28535-.1277,2.92862.24399.30891.48085.04637.86634-.25089.60832-.47372,1.32365-1.17739,2.25039-1.89964,1.39334-1.08917,2.0366-1.44919,2.79378-2.03682.5667-.44591.79642-.55267.49916-.93342Zm-12.299-.59452l-2.87274,2.24565c-.38099.29726-.65732.55505-.8314.32983-.2371-.31128-.3044-.65491-.40642-1.00568l-1.45397-5.20659c-.08133-.32532-.01165-.41355.02568-.44589.11129-.08135.04162-.02806.31343.04637l4.86534,2.6706c.32057.18359.63638.33222.88013.64327.17645.22305-.14173.42519-.52007.72245Z"/><path class="cls-1" d="m337.14087,280.97945l-.55957-2.61733c-.22544-1.06824-1.27038-1.75123-2.34575-1.52127l-2.26656.49464-.5063-2.38737c-.22519-1.06824-1.27965-1.75101-2.34789-1.52341l-2.58237.55029c-1.073.22544-1.75575,1.27751-1.52816,2.34575l.48776,2.37809-2.23875.47609c-1.06824.22521-1.75123,1.27727-1.51889,2.34549l.55267,2.61735c.22998,1.06824,1.27727,1.75099,2.34551,1.52103l10.98013-2.33148c1.06848-.22758,1.75123-1.27965,1.52816-2.34789Zm-7.0646,3.33028c-1.53506.32723-3.04919-.65493-3.38141-2.19476-.32509-1.54194.6573-3.0563,2.19712-3.37901,1.54195-.32984,3.05157.65493,3.38117,2.19234.32532,1.5396-.65493,3.05397-2.19688,3.38143Z"/><path class="cls-1" d="m360.21811,274.06348h-2.29224l-.01379-2.4247c0-1.09154-.88489-1.97857-1.97405-1.97857h-2.65205c-1.09154,0-1.97881.88703-1.97881,1.97857v2.43612l-2.31769-.00927c-1.09606,0-1.98309.88489-1.98309,1.97881v2.67298c0,1.09154.88703,1.97857,1.98309,1.97857h11.22864c1.0963,0,1.98095-.88703,1.98095-1.97857v-2.67298c0-1.0963-.88465-1.98095-1.98095-1.98095Zm-5.60611,6.44201c-1.57689,0-2.85656-1.27727-2.85656-2.84945s1.27967-2.84941,2.85656-2.84941,2.84729,1.27727,2.84729,2.84941-1.27038,2.84945-2.84729,2.84945Z"/><path class="cls-1" d="m386.12172,279.17495l-2.23874-.47609.48775-2.37809c.22972-1.06824-.45303-2.12031-1.52127-2.34575l-2.59164-.55029c-1.06824-.2276-2.11341.45517-2.34575,1.52341l-.50606,2.38737-2.26442-.49464c-1.06824-.22996-2.12483.45303-2.34789,1.52127l-.55957,2.61733c-.22307,1.06824.45969,2.12031,1.52792,2.34789l10.98015,2.33148c1.06822.22996,2.12267-.45279,2.34787-1.52103l.55267-2.61735c.22996-1.06822-.45279-2.12029-1.52103-2.34549Zm-3.44181,2.94002c-.33198,1.53983-1.83922,2.52199-3.38115,2.19476-1.53983-.32746-2.52222-1.84183-2.19714-3.38143.33222-1.53742,1.83945-2.52218,3.37905-2.19234,1.54217.32271,2.52219,1.83708,2.19924,3.37901Z"/><path class="cls-1" d="m405.03254,284.08191c-.93816-.56432-2.15739-.25993-2.71697.67585l-1.25183,2.0901-1.98785-1.20284c-.93126-.5622-2.15051-.26018-2.71031.67585l-1.37953,2.292c-.56194.94054-.25779,2.15526.67585,2.71719l4.30791,2.74505c.9384.5667,2.15051.26468,2.71721-.67585l1.37955-2.28986c.56192-.93816.98691-1.78595.98691-1.78595l2.24585-3.88057-2.2668-1.36098Zm-4.57735,9.617c-1.34455-.81283-1.78571-2.5593-.97288-3.90863.81045-1.35385,2.56144-1.78571,3.90839-.97526l-2.93552,4.88389Z"/><path class="cls-1" d="m314.39111,288.61289l-1.37955-2.292c-.56194-.93604-1.77429-1.23805-2.71245-.67585l-1.98095,1.20284-1.25871-2.0901c-.55982-.93578-1.77669-1.24017-2.71723-.67585l-2.26418,1.36098,2.25039,3.88057s.42021.84779.98691,1.78595l1.37953,2.28986c.56196.94054,1.77192,1.24255,2.71245.67585l4.30577-2.74505c.94054-.56192,1.24469-1.77665.67801-2.71719Zm-5.47153,5.08603l-2.93528-4.88389c1.34695-.81045,3.09794-.37859,3.90839.97526.81283,1.34933.3717,3.0958-.97312,3.90863Z"/><path class="cls-1" d="m289.9669,282.63508c-.16956-.14387-.38549-.15553-.52009,0-.14863.16954-.16956.45065-.31817.62258-.11393.1346-.39952.45969-.87325.31581-3.74359-1.10557-8.09122-2.34099-8.2213-2.45255-.2088-.18571.02806-.84515-.03234-1.765-.08371-.93816-.439-2.11555-1.7976-3.2977-.98239-.85231-4.28247-3.12576-7.51976.60853-.99404,1.13794-1.91365,2.37334-2.90769,3.51127-.9334,1.073-1.13792,1.13578-1.82067,1.91603-.17408.20666-.21354.47158-.00452.6573.77098.66182,1.59546-1.87655,3.97569.195l9.37087,8.14211c2.67749,2.33172.77787,3.1027,1.46062,3.69484.42497.36694.66896-.04399.8314-.23448.74314-.84755,1.39806-1.77429,2.1971-2.6939.62235-.71295,1.11009-1.09844,1.3586-1.38881.33888-.39239.33198-.64327.14387-.80356-.77098-.6711-1.36788,1.77667-3.63919-.20428l-3.68557-3.20258c-.74315-.64327-.98001-.67587-.195-1.57691.73626-.85231,1.19594-.99166,2.47322-.56884l4.60541,1.49558c1.6975.54339,3.50887,1.16122,4.67937-.18359.58764-.67799,1.10082-2.21091.439-2.78689Zm-12.87975.85231c-.44588.51103-.99404,1.1403-1.52816.67823l-4.30102-3.74121c-1.27727-1.10795-.81735-1.63494-.27158-2.26442,1.4956-1.72079,3.90388-1.3051,5.98471.5063,1.25874,1.09392,2.36168,2.23184.11605,4.82111Z"/><path class="cls-1" d="m334.96492,260.11762c-.29037-.88703-1.11009.53652-2.41305-1.14717l-11.12874-14.53347c-.54341-.71295-.59668-.75243-.7919-.69202-.27873.09298-.22522.634-.22974,1.11483l-.54815,18.12132c-.04637,1.67679-1.19142,1.86942-.99404,2.48723.11391.34365.439.18337.74315.08587.62235-.20428,1.21235-.51081,1.85325-.71985.68275-.22521,1.3655-.32509,2.04827-.54815.45301-.14863,1.17524-.17645,1.00092-.74078-.23686-.7246-2.41971.45517-3.04229-1.47014-.2088-.64541-.21593-1.68369-.24375-2.26894-.08133-1.92982.33674-2.18523.7037-2.30366l4.22442-1.37026c.56194-.18335.75243.04875,2.14575,1.91127.46446.65041.77573,1.08225.96624,1.67227.5341,1.63494-1.08917,1.83684-.8314,2.61495.12057.37146.37835.22972.77098.1044.61997-.20214,1.37929-.5667,2.32458-.87561,1.41425-.45969,2.02732-.54102,2.80068-.78953.58075-.19049.78976-.19738.64113-.65257Zm-9.95374-5.2206l-2.91459.94981c-.39001.12081-.68275.25089-.77096-.02093-.12082-.37384-.08587-.7082-.07897-1.06824l.10678-5.28578c.00713-.3296.08847-.38311.13008-.39928.10701-.03496.04663-.01403.24163.16242l3.33478,4.28009c.21617.29037.439.54125.56218.91985.08585.26706-.22544.33672-.61093.46206Z"/><path class="cls-1" d="m467.81298,346.35819c-.02568-.29251-.57383-.35053-1.04042-.46206l-17.66161-4.40779c-1.63494-.40642-1.58143-1.57216-2.23184-1.50963-.36456.04187-.27633.39264-.24375.71083.06968.65255.24375,1.2982.31105,1.97382.07443.72009.02808,1.40735.10226,2.12958.04637.47395-.08131,1.19142.5063,1.13338.76408-.07656.06968-2.46392,2.097-2.66606.67585-.06968,1.69772.14863,2.27821.24851,1.91365.33222,2.06942.7919,2.10889,1.17739l.44589,4.44275c.05565.58763-.21379.72698-2.33862,1.69059-.73626.32294-1.224.53412-1.84635.59452-1.71627.17431-1.56764-1.46062-2.38737-1.37715-.39714.0371-.30891.32746-.26944.73388.0673.65255.26468,1.47465.35767,2.4687.14863,1.48869.10226,2.10865.18359,2.91911.06017.61093.02069.81997.50154.77336.93126-.09512-.29037-1.20522,1.64183-2.12483l16.64213-7.81489c.81735-.38073.87086-.42948.84303-.634Zm-5.61087-.0975l-4.92334,2.35954c-.32511.14863-.62023.31129-1.01499.35315-.28323.02543-.28323-.29037-.32509-.69678l-.30891-3.06798c-.04183-.40404-.10226-.71985.18121-.74529.39239-.04185.71747.0673,1.06826.1415l5.1602,1.23803c.32294.08345.36456.16718.36456.21593.01403.11367.00476.04637-.2019.2019Z"/><path class="cls-1" d="m427.04868,330.67539c-.89178-2.6637-3.55784-3.44157-6.45153-2.50104-2.68463.87324-3.97593,2.96096-3.24443,5.20659,1.1636,3.56952,4.61921,3.19782,6.47245,2.60116,2.79616-.91033,3.95952-3.13292,3.2235-5.30671Zm-4.19186,4.09912c-2.19236.7082-4.16404.65944-4.82824-1.25183-.68986-1.98808,1.83922-3.59044,3.7669-4.21969,1.91817-.62235,3.92005-.65493,4.57735,1.22377.49227,1.43518-.59452,3.29556-3.51601,4.24775Z"/><path class="cls-1" d="m423.19358,321.77157c-.32986-.71773-.72225-1.41663-1.05447-2.12958-.31581-.67348-.30416-.78049-.5341-1.27275-.05353-.1277-.1672-.20428-.29726-.14863-.45281.21379.55503,1.15647-.85233,1.81615l-5.54357,2.58237c-1.58381.74078-1.56978-.31581-1.97382-.13008-.25087.12081-.10915.32294-.05587.44137.25087.53174.54813,1.04279.81995,1.62091.2088.44589.29013.75718.37148.9384.11389.24375.22994.29488.34361.24138.45305-.21357-.55505-1.02638.7919-1.65349l2.17857-1.01497c.44589-.20666.49916-.31105.7617.25327.25065.53174.22283.77787-.21615,1.28203l-1.56742,1.82305c-.57597.66872-1.20997,1.38167-.81759,2.22019.195.42497.80358,1.00094,1.18905.81735.10226-.04637.14863-.14173.1068-.23924-.05329-.1044-.1741-.17883-.2276-.28323-.04162-.08609-.13698-.28799.02568-.47847,1.22377-1.50723,2.63112-3.26512,2.70556-3.2977.1277-.06278.38549.195.81735.37146.44591.16718,1.05445.25564,1.86038-.11607.58049-.26942,2.25731-1.31221,1.16814-3.64369Zm-2.12746,2.49414c-.74527.34839-1.48155.61307-2.23872-1.00784-.14865-.31583-.332-.71297-.01381-.85706l2.54052-1.19119c.75243-.35079.90819-.01879,1.09154.37621.50392,1.07514-.14861,2.10628-1.37953,2.67987Z"/><path class="cls-1" d="m429.88194,346.90396c-.50178-.04875-.11629,1.28441-1.67227,1.12864l-6.11001-.61307c-1.75339-.17408-1.19596-1.07989-1.64423-1.12389-.27633-.02782-.25779.22281-.26944.35053-.06278.59-.06278,1.18453-.1277,1.81615-.04875.49702-.13458.80831-.15791,1.00332-.02545.27158.04875.37621.17645.38549.50178.05351.04637-1.16812,1.52818-1.01949l2.40827.24138c.48537.04899.58763-.01141.52722.60855-.06276.59-.20452.78953-.84541.99642l-2.29222.7686c-.8383.28561-1.75791.57597-1.84613,1.50248-.04875.4692.18097,1.27727.60832,1.31913.11629.01165.20452-.05113.20903-.15791.01403-.11843-.05325-.24138-.04637-.36006.01379-.09275.03472-.31793.26468-.40402,1.83708-.66872,3.94811-1.46538,4.03634-1.45848.1346.01165.22996.36694.51319.74315.29726.3717.77787.76408,1.66966.85231.6364.06754,2.61519.02806,2.87297-2.54979.08109-.78739.10915-1.59308.18335-2.38047.07443-.74079.14173-.82686.195-1.36788.01403-.14387-.04637-.26708-.18097-.28109Zm-.74313,3.48819c-.11631,1.18689-1.21237,1.74409-2.57098,1.60711-.82448-.08133-1.59544-.22998-1.41187-2.01805.03234-.35315.0742-.78503.42497-.75243l2.80544.28085c.83138.08607.7988.45065.75245.88251Z"/><path class="cls-1" d="m299.58842,316.55784c-.37859-.20903-.24161.59928-1.24468.47609l-8.59278-1.10772c-.41807-.05803-.45279-.05113-.5063.04399-.07443.13482.11367.31129.25541.48323l5.41111,6.6696c.4994.61545.14173,1.10556.40404,1.25183.14865.08133.21831-.09512.29726-.24161.16956-.29942.29274-.62472.45992-.93578.18337-.32984.40642-.61545.58977-.94983.12081-.21591.37621-.49464.13484-.62471-.31129-.17645-.74315,1.04731-1.57453.58763-.27871-.15577-.6038-.52033-.7919-.72246-.62258-.65944-.54813-.89868-.45301-1.07989l1.12863-2.03898c.14863-.26944.29726-.25541,1.37953-.09988.37859.05351.62235.0975.87799.23924.70368.39024.16932,1.05207.50154,1.24017.16242.08823.21593-.0604.31581-.24613.16956-.29964.33222-.70843.58977-1.16598.37859-.68275.57597-.93578.78501-1.31199.15339-.27633.22996-.35767.03258-.46682Zm-5.28103,1.78595l-.78501,1.41187c-.09988.18359-.16718.33912-.28323.27182-.16266-.08823-.25087-.22069-.36456-.34839l-1.59546-1.92744c-.09536-.12556-.08133-.17194-.07442-.19286.03494-.05113.01401-.02093.14172-.0302l2.55692.30654c.16242.02093.32509.03258.48537.12319.11605.0604.02093.2019-.08133.38549Z"/><path class="cls-2" d="m393.94802,315.76118l-.87773-.01141h-80.38833v44.38709c0,19.59143,1.19356,35.79456,16.21217,51.08023,8.84603,8.99918,14.86093,13.11898,24.82847,19.94197l.61069.41807,1.09606.75003,1.02424-.84516c3.07249-2.54527,5.7595-4.47985,8.35828-6.35165,5.34357-3.84823,9.95826-7.17375,15.83143-14.18032,14.31043-17.07636,16.82785-29.99083,16.82785-50.81317v-44.37567h-3.52314Zm-16.00575,92.9268c-5.58971,6.66746-10.03933,9.87239-15.19054,13.5858-2.64515,1.90438-4.35191,3.03302-7.51501,5.65035-9.50547-6.50503-15.36699-10.56919-23.82967-19.17814-14.11065-14.3613-15.20219-29.20581-15.20219-48.60913v-40.8642l77.74315.00476v40.85944c0,20.36479-2.31079,32.20864-16.00575,48.55112Z"/><polygon class="cls-1" points="440.42069 272.32866 439.00406 269.77864 437.70111 273.83114 438.56055 275.37783 440.42069 272.32866"/><path class="cls-1" d="m339.40529,256.03255c.69892,3.2977-2.08796,2.49888-1.86038,3.57641.13248.61091.50178.50628.90344.42045.88489-.19049,1.59094-.45517,3.07487-.77098,1.48393-.31367,2.24111-.36242,3.13052-.54815.6409-.13698,1.10082-.14863.95908-.81521-.1648-.77098-2.8285.63636-3.55311-2.77286l-2.66156-12.51756c-.28323-1.33054-.09275-1.51865.81759-1.70916l1.88107-.4019c2.52672-.65015,2.47108,2.57573,3.3581,2.3876.57597-.12316.09988-1.15193-.01403-1.47701l-.78477-2.49202c-.07895-.2718-.16504-.6618-.4925-.58977-2.06204.43664-3.52053.86374-6.75806,1.54887-3.2373.68751-4.74215.89416-6.80443,1.33078-.33198.07206-.24851.45992-.21355.74315l.42259,3.72742c.0326.37144.02784,1.01021.49464.91033.99856-.21379-.43662-3.69722,2.06466-4.22896l1.86014-.39952c.91033-.19049,1.16362-.0975,1.44445,1.22852l2.73124,12.84954Z"/><path class="cls-1" d="m309.71862,266.47166c1.55599,2.98879-1.34243,2.96786-.83138,3.94573.28775.55505.61521.35053.98001.16242.80118-.42021,1.41425-.86848,2.75431-1.56764,1.35147-.70368,2.06444-.94743,2.8656-1.3679.58311-.30652,1.02662-.4366.70843-1.0404-.36456-.7013-2.55692,1.36574-4.16404-1.72079l-5.92192-11.34707c-.6316-1.20284-.49702-1.43518.32984-1.86014l1.70677-.89654c2.25513-1.30034,3.06796,1.81853,3.87153,1.39808.52007-.2692-.21381-1.13316-.40881-1.41187l-1.4259-2.19474c-.15099-.2414-.33912-.59214-.63638-.43662-1.86728.97312-3.1631,1.77665-6.09386,3.30935-2.93074,1.52816-4.32884,2.12744-6.19612,3.1027-.29938.15791-.11367.51105-.0045.76884l1.40734,3.48343c.1277.34839.29964.96384.71985.74078.90106-.47134-1.41425-3.44395.85469-4.62848l1.68607-.87775c.82211-.43186,1.08917-.40879,1.71841.7919l6.08007,11.64671Z"/><polygon class="cls-1" points="343.42974 442.14845 340.54083 442.34821 343.64805 445.22094 345.39452 445.09799 343.42974 442.14845"/><path class="cls-2" d="m558.33124,250.45426c.96622.22307,2.00188.36932,3.04015.36932.7408,0,1.55813-.14625,2.22473-.36932-.59214,6.89288-1.18667,19.94434-1.33532,30.76892-.14861,13.12138-7.78466,21.35172-21.12887,21.35172-14.67949,0-21.20545-6.82061-21.20545-21.20545,0-4.5959.37172-8.00513.37172-11.71163,0-8.15616-.29726-14.90493-.44377-19.20357,1.18453.22307,2.66608.36932,3.85298.36932,1.03804,0,2.22708-.14625,3.18855-.36932-.44351,4.37545-.88941,14.45666-.88941,25.42989,0,10.08359,0,23.20495,16.53273,23.20495,16.23785,0,16.23785-15.19743,16.23785-24.5381,0-14.08734,0-21.20545-.44589-24.09673Z"/><path class="cls-2" d="m624.33043,302.5749c-11.26811-13.26999-24.76328-27.50834-37.44115-41.00116-.0742,2.74503-.22283,7.1923-.22283,15.05356,0,6.37469.29726,22.01828.66872,24.98376-.81521-.22283-1.70699-.37148-2.59402-.37148-.89178,0-1.78119.14865-2.74503.37148.59452-3.48343,1.55599-22.46633,1.55599-32.25049,0-9.34283,0-16.53511-.22283-19.87015h1.18905c12.08546,13.12374,28.46957,30.98963,37.51511,40.10961,0-13.26999,0-27.72665-.59452-39.14577.81761.22307,1.70464.36932,2.5222.36932.81283,0,1.55599-.14625,2.3712-.36932-.44375,4.37545-1.18691,19.05256-1.18691,24.83774,0,7.56138.14863,23.9481.22307,27.2829h-1.03804Z"/><path class="cls-2" d="m645.92136,269.65783c0-6.37709-.29726-12.82624-.59452-19.20357,1.26086.22307,2.44777.36932,3.63206.36932,1.18905,0,2.37357-.14625,3.63682-.36932-.29964,6.37733-.59452,12.82648-.59452,19.20357v12.74964c0,6.37735.29488,12.82887.59452,19.20359-1.26324-.22283-2.44777-.37148-3.63682-.37148-1.18429,0-2.3712.14865-3.63206.37148.29726-6.37471.59452-12.82624.59452-19.20359v-12.74964Z"/><path class="cls-2" d="m665.148,250.45426c1.2611.22307,2.59402.36932,3.8575.36932,1.25872,0,2.59405-.14625,3.85512-.36932,4.3707,13.12136,10.67359,28.8415,16.90205,43.81587,5.41111-12.00889,13.71588-34.10374,16.83023-43.81587.88941.22307,1.85325.36932,2.74265.36932s1.85325-.14625,2.74265-.36932c-7.70787,17.05306-14.82835,34.10374-21.34929,51.1568-.81762-.22283-1.63497-.37148-2.4478-.37148-.81759,0-1.78143.14865-2.44777.37148-4.44727-12.23409-13.49306-34.10374-20.68536-51.1568Z"/><path class="cls-2" d="m725.03454,269.58363c0-6.37733-.29488-12.82648-.59214-19.12937,4.44727.22307,8.82272.36932,13.27237.36932,4.44727,0,8.82034-.14625,13.19793-.36932-.15101.74076-.22307,1.48393-.22307,2.22494,0,.74078.07206,1.48155.22069,2.22233-6.22846-.44351-9.86076-.9636-19.49845-.9636-.07443,3.18855-.29726,5.78255-.29726,9.41701,0,3.85512.0742,7.93331.0742,9.78656,8.75066,0,13.64171-.3717,18.0169-.74103-.14863.74103-.22283,1.55601-.22283,2.29702,0,.74078.0742,1.48393.22283,2.2247-5.11837-.51795-14.45666-.66658-18.0169-.66658-.0742,1.77905-.0742,3.6323-.0742,10.75016,0,5.63418.0742,9.26861.14863,11.12186,6.60016,0,15.34847-.07657,20.01878-.96384-.14863.66658-.22307,1.63042-.22307,2.29676,0,.66658.07443,1.48415.22307,2.15051-4.37542-.22283-8.8251-.37148-13.34894-.37148-4.51933,0-8.96897.14865-13.49068.37148.29726-6.44915.59214-12.90067.59214-19.27539v-12.75204Z"/><path class="cls-2" d="m766.70465,269.65783c0-6.37709-.29726-12.82624-.59214-19.20357,2.81709.22307,5.63156.36932,8.45103.36932,2.81709,0,5.63872-.36932,8.4603-.36932,8.37686,0,15.4205,2.89128,15.4205,11.71163,0,9.56587-9.5635,13.421-15.19981,14.16415,3.63444,4.52147,16.01502,20.46229,20.31604,25.28102-1.48179-.22283-2.96572-.37148-4.44751-.37148-1.41187,0-2.89366.14865-4.30102.37148-2.96548-4.52147-12.82859-18.16529-19.21046-24.61444h-2.81709v5.41085c0,6.37735.29512,12.82887.59238,19.20359-1.2611-.22283-2.44563-.37148-3.63468-.37148-1.18191,0-2.37096.14865-3.62968.37148.29488-6.37471.59214-12.82624.59214-19.20359v-12.74964Zm6.07983,4.22444c1.33554.29726,3.03777.37146,4.9676.37146,6.08696,0,14.16867-2.52197,14.16867-11.34469,0-7.78445-6.45153-9.71213-11.49332-9.71213-3.41851,0-5.64107.22307-7.1992.3717-.22069,5.41111-.44375,10.75016-.44375,16.08922v4.22444Z"/><path class="cls-2" d="m815.51119,291.75054c1.63494,3.48581,5.34143,7.71001,11.71638,7.71001,6.60016,0,10.60153-4.81873,10.60153-10.75016,0-13.64383-23.35358-7.78447-23.35358-25.20682,0-8.23034,6.22632-14.01314,16.08684-14.01314,4.67271,0,8.00751,1.11007,10.97326,3.48367-.88941,1.70699-1.40739,3.41161-1.99953,6.22846h-.88941c-1.04042-2.74265-3.26298-6.96924-8.8251-6.96924s-9.5635,3.78069-9.5635,9.1918c0,13.86689,23.35361,8.08171,23.35361,24.46843,0,9.04555-6.74644,16.68136-18.16295,16.68136-6.15426,0-9.63793-2.15051-12.23433-4.22658.88941-2.29676,1.11247-3.78093,1.40735-6.59778h.88941Z"/><path class="cls-2" d="m860.21432,269.65783c0-6.37709-.29488-12.82624-.59452-19.20357,1.2611.22307,2.44777.36932,3.63682.36932,1.18429,0,2.3712-.14625,3.62992-.36932-.29512,6.37733-.59238,12.82648-.59238,19.20357v12.74964c0,6.37735.29726,12.82887.59238,19.20359-1.25872-.22283-2.44563-.37148-3.62992-.37148-1.18905,0-2.37571.14865-3.63682.37148.29964-6.37471.59452-12.82624.59452-19.20359v-12.74964Z"/><path class="cls-2" d="m519.9429,345.28068c0-6.37709-.29512-12.82864-.59238-19.20357,2.3712.22069,4.81897.3717,7.1923.3717,2.37122,0,7.11573-.3717,9.19204-.3717,4.44965,0,16.23785.14649,16.23785,12.52922,0,13.0493-12.82624,15.57127-19.94434,15.57127-2.22492,0-4.07819-.0742-6.00563-.22285v4.07583c0,6.37709.29726,12.82862.59214,19.20331-1.25872-.22281-2.44539-.36906-3.63206-.36906s-2.3712.14625-3.6323.36906c.29726-6.3747.59238-12.82622.59238-19.20331v-12.7499Zm6.07983,5.55974c1.55599.3717,3.63206.59214,5.26248.59214,6.07983,0,13.86451-2.29676,13.86451-12.38035,0-8.45103-4.81659-10.23245-12.45478-10.23245h-6.67221v22.02066Z"/><path class="cls-2" d="m587.97633,325.11351c16.38408,0,27.80082,9.71187,27.80082,26.54212s-11.41674,26.5445-27.80082,26.5445c-16.31231,0-27.72905-9.71451-27.72905-26.5445s11.41674-26.54212,27.72905-26.54212Zm0,2.74503c-11.56778,0-20.46469,7.33855-20.46469,23.79709s8.89692,23.79945,20.46469,23.79945c11.63955,0,20.53646-7.34091,20.53646-23.79945s-8.89692-23.79709-20.53646-23.79709Z"/><path class="cls-2" d="m628.08092,345.28068c0-6.37709-.29726-12.82864-.59452-19.20357,1.2611.22069,2.44777.3717,3.6323.3717,1.18905,0,2.37334-.15101,3.63444-.3717-.29726,6.37493-.59214,12.82648-.59214,19.20357,0,12.45478.14625,21.20307.22283,28.4698,6.9671,0,13.04693,0,20.45991-.96384-.22283.74101-.37146,1.48177-.37146,2.22256s.14863,1.48393.37146,2.22469c-4.51933-.22281-9.11974-.36906-13.64145-.36906-4.5959,0-9.1176.14625-13.71588.36906.29726-6.3747.59452-12.82622.59452-19.20331v-12.7499Z"/><path class="cls-2" d="m668.4086,345.28068c0-6.37709-.29488-12.82864-.59452-19.20357,1.2611.22069,2.44777.3717,3.63444.3717,1.18453,0,2.37357-.15101,3.6323-.3717-.29488,6.37493-.59452,12.82648-.59452,19.20357v12.7499c0,6.37709.29964,12.82862.59452,19.20331-1.25872-.22281-2.44777-.36906-3.6323-.36906-1.18667,0-2.37334.14625-3.63444.36906.29964-6.3747.59452-12.82622.59452-19.20331v-12.7499Z"/><path class="cls-2" d="m703.10235,345.28068c0-5.11599-.07443-10.23222-.22307-15.34844-5.11385,0-11.71377.29726-15.86401.81521.22544-.74078.3717-1.55599.3717-2.3712,0-.74315-.14625-1.48393-.3717-2.29914,6.37495.22069,12.75204.3717,19.12937.3717,6.37474,0,12.75204-.15101,19.12699-.3717-.22069.81521-.3717,1.55599-.3717,2.37357,0,.74078.15101,1.55599.3717,2.29676-4.15239-.51795-10.7504-.81521-15.86639-.81521-.14623,5.11623-.22307,10.23245-.22307,15.34844v12.7499c0,6.37709.29964,12.82862.59452,19.20331-1.25872-.22281-2.44777-.36906-3.63206-.36906-1.18667,0-2.37357.14625-3.63444.36906.29943-6.3747.59214-12.82622.59214-19.20331v-12.7499Z"/><path class="cls-2" d="m815.75756,373.97115c-1.85325,1.48393-8.00537,4.22898-15.4205,4.22898-15.64119,0-27.06245-9.71451-27.06245-26.5445s11.42126-26.54212,27.80322-26.54212c6.37709,0,12.08546,1.55599,16.0916,3.40899-.74078,1.33554-1.2611,4.2268-1.55836,5.78518l-.44351.14625c-2.07607-2.29678-7.1181-6.5954-14.08972-6.5954-11.63957,0-20.53649,7.33855-20.53649,23.79709s8.89692,23.79945,20.53649,23.79945c7.04367,0,12.23409-4.00374,15.05356-6.15425l.29726.29726-.6711,4.37306Z"/><path class="cls-2" d="m871.73546,378.20013c-11.26811-13.27237-24.76331-27.50834-37.43854-41.00116-.07681,2.74265-.22307,7.18992-.22307,15.05118,0,6.37495.29274,22.01826.6642,24.98374-.81283-.22281-1.70224-.36906-2.59402-.36906-.88941,0-1.77667.14625-2.74265.36906.59452-3.48341,1.55813-22.46391,1.55813-32.25048,0-9.34043,0-16.53273-.2228-19.86991h1.18667c12.08329,13.1235,28.46977,30.99177,37.51294,40.11151,0-13.27213,0-27.72879-.58977-39.14791.81283.22069,1.70224.3717,2.51959.3717.81759,0,1.55836-.15101,2.37123-.3717-.44355,4.37545-1.18429,19.05254-1.18429,24.83774,0,7.56162.14622,23.94808.22042,27.28528h-1.03804Z"/><path class="cls-2" d="m889.84534,345.28068c0-6.37709-.29512-12.82864-.59452-19.20357,1.26086.22069,2.44539.3717,3.63444.3717,1.18429,0,2.37334-.15101,3.63206-.3717-.29488,6.37493-.59452,12.82648-.59452,19.20357v12.7499c0,6.37709.29964,12.82862.59452,19.20331-1.25872-.22281-2.44777-.36906-3.63206-.36906-1.18905,0-2.37357.14625-3.63444.36906.2994-6.3747.59452-12.82622.59452-19.20331v-12.7499Z"/><path class="cls-2" d="m952.30022,373.97115c-1.85301,1.48393-8.00724,4.22898-15.42026,4.22898-15.6457,0-27.06483-9.71451-27.06483-26.5445s11.41912-26.54212,27.80322-26.54212c6.37736,0,12.08784,1.55599,16.08922,3.40899-.74078,1.33554-1.25872,4.2268-1.55599,5.78518l-.44589.14625c-2.07607-2.29678-7.11783-6.5954-14.08734-6.5954-11.63957,0-20.53411,7.33855-20.53411,23.79709s8.89454,23.79945,20.53411,23.79945c7.04605,0,12.23433-4.00374,15.05356-6.15425l.29488.29726-.66658,4.37306Z"/><path class="cls-2" d="m520.51649,420.90352c0-6.37709-.29512-12.82624-.59238-19.20357,3.70649.22307,7.48742.3717,11.19629.3717,3.70626,0,7.48718-.3717,11.19368-.3717,17.35032,0,24.46605,9.26861,24.46605,24.54048,0,19.79571-15.27185,26.61656-26.98587,26.61656-3.33718,0-6.59778-.36932-9.93495-.36932-3.33504,0-6.60016.14625-9.93519.36932.29726-6.37495.59238-12.82648.59238-19.20143v-12.75204Zm6.07983,12.75204c0,5.26248.14863,10.60153.44589,15.71775,2.07634.44353,5.93122.74079,9.71213.74079,10.8988,0,22.76143-4.30102,22.76143-23.87366,0-17.19957-8.89689-21.42613-21.05681-21.42613-4.37307,0-8.37683.3693-11.41674.74078-.29726,4.74453-.44589,10.00939-.44589,15.34844v12.75204Z"/><path class="cls-2" d="m576.09726,420.82933c0-6.37733-.29726-12.82648-.59452-19.12937,4.44965.22307,8.8251.3717,13.27237.3717s8.82272-.14863,13.19556-.3717c-.14625.74315-.22069,1.48417-.22069,2.22494s.07443,1.48155.22069,2.2247c-6.22608-.44589-9.85838-.966-19.49845-.966-.0742,3.18856-.29488,5.78496-.29488,9.41702,0,3.85511.07206,7.93331.07206,9.78656,8.75043,0,13.64383-.3717,18.01666-.74101-.14863.74101-.22069,1.55599-.22069,2.29914,0,.741.07206,1.48179.22069,2.22255-5.11599-.51793-14.45666-.66656-18.01666-.66656-.07206,1.77905-.07206,3.6323-.07206,10.75254,0,5.6318.07206,9.26624.14628,11.11947,6.59775,0,15.34842-.07418,20.01878-.96383-.14866.66656-.22309,1.63042-.22309,2.297,0,.66872.07443,1.48393.22309,2.15051-4.37548-.22307-8.82272-.36932-13.34659-.36932-4.5217,0-8.96897.14625-13.49306.36932.29726-6.44939.59452-12.90093.59452-19.27562v-12.75204Z"/><path class="cls-2" d="m650.39648,401.69996c1.26108.22307,2.594.3717,3.85748.3717,1.25872,0,2.5964-.14863,3.85512-.3717,4.37286,13.12374,10.67335,28.8415,16.90443,43.81825,5.40876-12.01127,13.71565-34.10612,16.82999-43.81825.88727.22307,1.85327.3717,2.74051.3717.89178,0,1.85539-.14863,2.74503-.3717-7.71025,17.05304-14.83071,34.10612-21.35194,51.15704-.81735-.22307-1.63256-.36932-2.44777-.36932-.81497,0-1.77881.14625-2.44539.36932-4.44965-12.23195-13.49282-34.10399-20.68747-51.15704Z"/><path class="cls-2" d="m753.95261,420.90352c0-6.37709-.29726-12.82624-.59214-19.20357,1.25872.22307,2.44539.3717,3.62968.3717,1.18905,0,2.37595-.14863,3.64157-.3717-.29964,6.37733-.59452,12.82648-.59452,19.20357,0,12.45478.14628,21.20307.22283,28.46979,6.97185,0,13.05168,0,20.46467-.96383-.2228.74101-.37146,1.48179-.37146,2.22494,0,.74078.14866,1.48155.37146,2.22256-4.51933-.22307-9.11974-.36932-13.64145-.36932-4.5959,0-9.12688.14625-13.72278.36932.29488-6.37495.59214-12.82648.59214-19.20143v-12.75204Z"/><path class="cls-2" d="m874.7057,453.8206c-11.27022-13.27001-24.76307-27.50596-37.4433-40.99878-.07182,2.74265-.21831,7.1923-.21831,15.05117,0,6.37497.29512,22.01829.6642,24.98401-.81497-.22307-1.70462-.36932-2.59402-.36932s-1.77881.14625-2.74265.36932c.59452-3.48368,1.55599-22.46417,1.55599-32.25073,0-9.34281,0-16.53273-.22066-19.86991h1.1845c12.08546,13.1235,28.47194,30.99177,37.51511,40.1115,0-13.27213,0-27.72877-.59214-39.1479.81521.22307,1.70462.3717,2.51986.3717.81732,0,1.55595-.14863,2.37334-.3717-.44592,4.37543-1.18667,19.05494-1.18667,24.83774,0,7.56162.14622,23.9481.22303,27.2829h-1.03827Z"/><path class="cls-2" d="m930.07529,449.59401c-1.85325,1.48393-8.00727,4.22658-15.42026,4.22658-15.64567,0-27.06245-9.71213-27.06245-26.54214s11.41678-26.54211,27.80322-26.54211c6.37709,0,12.08546,1.55599,16.08684,3.40923-.74078,1.33528-1.25872,4.22658-1.55599,5.78495l-.44589.14625c-2.07607-2.29676-7.11549-6.5954-14.08496-6.5954-11.63957,0-20.53649,7.33855-20.53649,23.79707s8.89692,23.79948,20.53649,23.79948c7.04367,0,12.23172-4.00376,15.05118-6.15189l.29488.29488-.66658,4.37307Z"/><path class="cls-2" d="m943.06205,420.90352c0-6.37709-.29964-12.82624-.59452-19.20357,1.25872.22307,2.44777.3717,3.63206.3717,1.18691,0,2.3712-.14863,3.63447-.3717-.29944,6.37733-.59452,12.82648-.59452,19.20357v12.75204c0,6.37495.29509,12.82648.59452,19.20143-1.26328-.22307-2.44757-.36932-3.63447-.36932-1.18429,0-2.37334.14625-3.63206.36932.29488-6.37495.59452-12.82648.59452-19.20143v-12.75204Z"/><path class="cls-2" d="m971.74303,370.86847c0-3.21661,2.60805-5.8223,5.82442-5.8223,3.21423,0,5.82228,2.60569,5.82228,5.8223,0,3.21637-2.60805,5.82204-5.82228,5.82204-3.21637,0-5.82442-2.60568-5.82442-5.82204h0Z"/><path class="cls-2" d="m991.85007,356.74379l-9.26627-22.24348-9.49382,22.24348c-3.11197,7.63605-5.92882,15.19767-7.18992,19.87015-.96384-.22283-1.85325-.37146-2.74028-.37146-.89178,0-1.78143.14863-2.74741.37146,7.93545-17.35032,15.6457-34.62621,23.20732-52.12302h1.41187c7.26198,17.20169,18.38622,44.18994,22.31316,52.12302-1.33292-.22283-2.5964-.37146-3.92694-.37146-1.33554,0-2.59426.14863-3.92956.37146-1.40973-5.11623-4.97211-13.27237-7.63816-19.87015Z"/><path class="cls-2" d="m971.98702,446.57265c0-3.21423,2.60782-5.8223,5.82204-5.8223,3.21661,0,5.82442,2.60807,5.82442,5.8223,0,3.21637-2.60782,5.82442-5.82442,5.82442-3.21423,0-5.82204-2.60805-5.82204-5.82442h0Z"/><path class="cls-2" d="m992.09378,432.44797l-9.26838-22.24348-9.48906,22.24348c-3.11197,7.63605-5.93144,15.19743-7.19016,19.87015-.96598-.22307-1.85325-.37171-2.74265-.37171-.89416,0-1.78119.14865-2.74741.37171,7.93545-17.35032,15.6457-34.62645,23.20732-52.12302h1.40973c7.26436,17.20169,18.38836,44.18994,22.31316,52.12302-1.33078-.22307-2.59164-.37171-3.9248-.37171-1.3353,0-2.59637.14865-3.92932.37171-1.41211-5.11623-4.96997-13.27237-7.63843-19.87015Z"/><path class="cls-2" d="m708.38338,446.57265c0-3.21423,2.61019-5.8223,5.82445-5.8223s5.8244,2.60807,5.8244,5.8223c0,3.21637-2.61019,5.82442-5.8244,5.82442s-5.82445-2.60805-5.82445-5.82442h0Z"/><path class="cls-2" d="m728.49252,432.44797l-9.26838-22.24348-9.4893,22.24348c-3.11411,7.63605-5.93117,15.19743-7.1923,19.87015-.9636-.22307-1.85325-.37171-2.74265-.37171-.89178,0-1.78119.14865-2.74503.37171,7.93548-17.35032,15.64333-34.62645,23.20495-52.12302h1.41211c7.26436,17.20169,18.38836,44.18994,22.31316,52.12302-1.33078-.22307-2.59402-.37171-3.9248-.37171-1.33768,0-2.5964.14865-3.9317.37171-1.4097-5.11623-4.96997-13.27237-7.63605-19.87015Z"/><path class="cls-2" d="m895.56061,270.22926c0-5.11621-.07681-10.23243-.22303-15.34842-5.11602,0-11.71618.29726-15.86642.81497.22307-.74078.3717-1.55599.3717-2.37096,0-.74103-.14863-1.48417-.3717-2.29914,6.37495.22283,12.75228.37144,19.12937.37144,6.37495,0,12.75204-.14861,19.12462-.37144-.21831.81497-.36932,1.55811-.36932,2.37334,0,.74078.15101,1.55599.36932,2.29676-4.14787-.51771-10.74779-.81497-15.86401-.81497-.14625,5.11599-.22307,10.23222-.22307,15.34842v12.75206c0,6.37471.29964,12.82624.59452,19.20119-1.26086-.22307-2.44777-.36932-3.63206-.36932-1.18667,0-2.37571.14625-3.63444.36932.29726-6.37495.59452-12.82648.59452-19.20119v-12.75206Z"/><path class="cls-2" d="m985.17568,270.22926c0-5.11621-.07443-10.23243-.22307-15.34842-5.11385,0-11.71401.29726-15.86401.81497.22307-.74078.37173-1.55599.37173-2.37096,0-.74103-.14866-1.48417-.37173-2.29914,6.37495.22283,12.75208.37144,19.12937.37144,6.37471,0,12.75208-.14861,19.12676-.37144-.22045.81497-.37146,1.55811-.37146,2.37334,0,.74078.15101,1.55599.37146,2.29676-4.15239-.51771-10.75254-.81497-15.86615-.81497-.14863,5.11599-.22303,10.23222-.22303,15.34842v12.75206c0,6.37471.29964,12.82624.59452,19.20119-1.25876-.22307-2.4478-.36932-3.63209-.36932-1.18691,0-2.37357.14625-3.63468.36932.29964-6.37495.59238-12.82648.59238-19.20119v-12.75206Z"/><path class="cls-1" d="m811.81186,397.51285l-9.47054-9.34281c-.9013-.89654-1.80236-1.94147-2.85419-2.68938-.30654-.29964-.60166-.37384-.97787-.52247-1.27965-.29964-2.6335.36932-3.07939,1.56764-.22521.67348-.22521,1.3422.07443,2.01805.44806.74791,1.20046,1.12412,1.87631,1.64659l11.79985,7.32238h2.63139Zm-12.55017,7.77517h5.78281l7.52214.15101c2.25728.14863,4.50292.37621,6.76258.82211-.07657-.74791-.22996-1.49558-.22996-2.24563,0-.74315.15339-1.41663.22996-2.24111h-26.67696v50.91067h27.12975c-.08347-.75005-.2321-1.49106-.2321-2.23874,0-.75029.14863-1.42376.2321-2.24801-2.32693.37384-4.58877.60142-6.91811.6756-4.50767.14865-9.01558.44829-13.60221.29964v-21.8323h11.64671c2.25966,0,4.43348.30178,6.69528.37384-.07657-.81759-.2321-1.4932-.2321-2.09248,0-.6711.15553-1.34457.2321-1.94147-2.2618.0742-4.43562.36932-6.69528.36932h-11.64671v-18.76243Z"/><path class="cls-1" d="m755.26246,322.13851l-9.47765-9.34519c-.89868-.89416-1.79522-1.94625-2.84943-2.68938-.30654-.2994-.6038-.37146-.97998-.52009-1.2773-.29964-2.63139.36932-3.07942,1.56524-.22758.67349-.22758,1.34459.07182,2.01807.44827.75003,1.20308,1.12626,1.87655,1.64657l11.80461,7.32478h2.6335Zm-12.55466,7.77993h5.7826l7.51974.14387c2.25514.14625,4.50553.37859,6.7652.82211-.07443-.74553-.22758-1.49558-.22758-2.24563,0-.74317.15315-1.41663.22758-2.23874h-26.67696v50.91281h27.12737c-.07657-.75005-.22521-1.4932-.22521-2.24088,0-.75243.14863-1.4259.22521-2.25039-2.32458.37859-4.589.60142-6.92049.67585-4.50315.14863-9.01321.45041-13.59745.30654v-21.83494h11.64433c2.26659,0,4.44037.29488,6.69528.36934-.07203-.82211-.23234-1.49106-.23234-2.08559,0-.67348.16031-1.34911.23234-1.94601-2.25491.07421-4.42869.37148-6.69528.37148h-11.64433v-18.75982Z"/><path class="cls-2" d="m931.68716,295.39661c0-3.21183,2.62185-5.81751,5.84773-5.81751,3.2373,0,5.84987,2.60568,5.84987,5.81751,0,3.21401-2.61257,5.81731-5.84987,5.81731-3.22588,0-5.84773-2.6033-5.84773-5.81731Zm10.80581-45.90619h1.50275l21.29581,49.30593,1.27962,2.68701c-1.27962-.14627-2.55217-.22283-3.83182-.22283-1.34457,0-2.77048,0-4.12218.22283l-.67348-2.16192-3.37903-8.95042-3.66702-8.80179-9.43793-22.51292-9.61938,22.51292c-2.61492,6.56068-5.31813,13.12586-7.34331,19.91414-.82662-.22283-1.72768-.22283-2.62636-.22283-.89654,0-1.87417.07656-2.77309.22283l23.39543-51.99294Z"/></svg>