<?xml version="1.0" encoding="UTF-8"?>
<svg id="PASTE_LOGO_HERE" data-name="PASTE LOGO HERE" xmlns="http://www.w3.org/2000/svg" viewBox="0 0 1250 703">
  <g>
    <path d="M634.85,299.5c11.6-17,28.9-25.5,51.9-25.5,20.9,0,37.8,7.3,50.8,21.8,13,14.3,19.4,32,19.4,53.1s-6.5,38.8-19.4,53.1c-13,14.5-30.4,21.8-52.2,21.8s-38.7-8.6-50.5-25.8v81h-21.8v-202.7h21.8v23.2ZM683.85,293.7c-15.7,0-28.1,5.4-37.1,16.3-8.7,10.3-13.1,23.2-13.1,38.9s4.4,28.6,13.1,38.9c9.1,10.8,21.5,16.3,37.1,16.3s28-5.4,37.7-16.3c9.1-10.2,13.6-23.2,13.6-38.9s-4.5-28.6-13.6-38.9c-9.6-10.9-22.2-16.3-37.7-16.3Z"/>
    <path d="M802.25,421.4v-126h-32.6v-19.1h32.6v-51.9h21.8v51.9h32.4v19.1h-32.4v125.9h-21.8v.1Z"/>
    <path d="M949.05,404c9.3,0,17.5-2.6,24.7-7.8,7.2-5.2,12.4-12,15.7-20.3h23.5c-4.5,14.3-12.6,25.8-24.4,34.5-12.4,8.9-27.1,13.3-44.1,13.3-21.3,0-38.6-7.3-51.9-21.8-13-14.1-19.4-31.8-19.4-53.1s6.5-39,19.4-53.1c13.3-14.5,30.7-21.8,51.9-21.8,17,0,31.7,4.5,44.1,13.3,11.8,8.7,19.9,20.2,24.4,34.5h-23.5c-3.3-8.3-8.5-15.1-15.7-20.3s-15.4-7.8-24.7-7.8-17.2,1.5-23.6,4.4c-6.5,2.9-11.9,6.9-16.4,11.9-9.5,10.4-14.2,23.4-14.2,38.9s4.7,28.4,14.2,38.9c9.7,10.8,23,16.3,40,16.3Z"/>
  </g>
  <g>
    <polygon points="366.05 200.5 237.05 275 237.05 340.9 366.05 265.8 438.55 307.5 424.15 315.9 366.05 282.4 315.45 311.7 430.95 378.6 495.05 341.1 495.05 275 366.05 200.5"/>
    <path d="M301.05,332.5l94.2,54.5-29.2,16.9-52.8-30.4-5.4-3.1-5.3,3.1-14.4,8.4-16,9.3,16.1,9.2,72.6,41.6,5.4,3.1,5.3-3.1,112.8-65.6v41.3l-118.3,68.2-118.3-68.2v-53.9l53.3-31.3M301.05,320.1l-64,37.5v66.2l129,74.4,129-74.4v-66.1l-129,75.1-72.6-41.6,14.4-8.4,58.1,33.4,50.5-29.2-115.4-66.9h0Z"/>
  </g>
</svg>