<?xml version="1.0" encoding="UTF-8"?><svg id="LOGO" xmlns="http://www.w3.org/2000/svg" viewBox="0 0 1250 703"><defs><style>.cls-1{fill:#9d9795;}.cls-1,.cls-2,.cls-3{stroke-width:0px;}.cls-2{fill:#cfb991;}</style></defs><path class="cls-3" d="m627.69618,305.16009l19.53683-45.9074h32.37473c46.85105,0,64.63537-19.22573,76.92366-48.11618,4.55239-10.69133,12.17421-28.58972,2.07397-43.81269-10.10024-15.22296-31.21331-16.89251-46.31183-16.89251h-172.08794l-24.26548,57.03427h31.1096l-17.26584,40.67062h-31.21331l-24.27586,57.03427,153.40146-.01036Z"/><path class="cls-1" d="m749.82209,173.15168c-5.46491-8.29589-17.41102-12.15348-37.54928-12.15348h-165.06755l-15.27481,35.859h31.1096l-26.33946,61.85625h-31.17183l-15.27481,35.859h130.46329l15.27483-35.87974h-31.64885l4.25165-9.99655h70.9921c45.62741,0,57.84312-19.70275,67.19676-41.69723,5.03974-11.82165,9.40548-24.18253,3.01764-33.84724m-119.11869,23.70551h52.13969c7.18631,0,6.1597,3.59835,5.18493,5.83824-2.66506,6.22192-9.07363,10.13136-16.69549,10.13136h-47.43176l6.80263-15.9696Z"/><path class="cls-2" d="m712.29354,166.5046h-161.4692l-10.57726,24.88768h31.1096l-31.02664,72.84831h-31.16145l-10.59801,24.88768h118.50684l10.59801-24.88768h-31.63846l8.9492-21.01972h74.66306c42.78608,0,53.53963-18.12652,62.1466-38.36851s13.29418-38.36851-29.48152-38.36851m-40.92987,51.84933h-55.81065l11.47943-26.96165h55.76914c9.8721,0,13.85413,5.08124,10.26616,13.48083-3.58797,8.39959-11.87351,13.48083-21.77672,13.48083"/><path class="cls-3" d="m365.56668,356.63611l-9.74767-2.84135v-7.04113h38.11963c24.82546,0,33.98206,7.93294,33.98206,26.6713,0,17.53545-10.00692,26.61945-29.62671,26.61945h-15.44074v28.0816l9.88248,2.83099v6.54338h-37.1656v-6.54338l9.99655-2.83099v-71.48986Zm17.28657-.3111v35.05015l18.15764-1.33771c4.51089-2.07397,9.15659-4.80125,9.15659-16.11477,0-8.55514-.39406-17.62877-16.99621-17.62877l-10.31802.03109Z"/><path class="cls-3" d="m569.47974,398.86221h-12.32977v29.26377l9.88248,2.83099v6.54338h-37.1656v-6.54338l10.00692-2.83099v-71.48986l-9.88248-2.84135v-7.04113h39.77881c23.58108,0,32.14659,8.36849,32.14659,24.45215,0,12.44384-4.84273,18.8939-16.05255,23.3322l16.79918,32.84137,10.84689,3.57762v6.54338h-25.261l-18.76947-38.63813Zm-12.32977-42.51645v34.66646l18.37541-1.23402c5.83824-2.89319,8.64847-7.51815,8.64847-17.03768,0-10.00692-3.23539-16.30143-13.60526-16.30143l-13.41861-.09333Z"/><path class="cls-3" d="m620.94539,430.95693l9.8721-2.70652v-71.6143l-9.74767-2.84135v-7.04113h43.85418c24.82546,0,39.30179,14.96371,39.30179,44.38303,0,33.29764-15.01558,46.36368-41.18911,46.36368h-42.09129v-6.54342Zm27.28312-74.56972v71.73873h12.99344c8.91809,0,24.29659-1.45178,24.29659-34.22056,0-25.8106-4.63533-37.53891-24.29659-37.53891l-12.99344.02074Z"/><path class="cls-3" d="m393.93863,484.78691c0,11.03355-6.34636,15.1089-16.79919,15.1089s-16.83029-6.22192-16.83029-15.1089v-22.11891l-4.73903-1.48288v-4.14795h19.3398v4.14795l-4.67681,1.48288v22.11891c0,5.70343,2.18804,8.80401,8.40996,8.80401,3.03837,0,8.19219-.94366,8.19219-9.09436v-21.77672l-4.72866-1.48288v-4.14795h16.59179v4.14795l-4.75977,1.43105v22.11891Z"/><path class="cls-3" d="m427.3296,473.40082v20.27308l4.67681,1.42067v4.14795h-16.29106v-4.14795l4.75977-1.42067v-28.77638l-2.07397-2.56136-2.83097-.88145v-4.4383h10.73281l20.59456,25.92467v-20.27308l-4.73903-1.42067v-4.23089h16.32217v4.23089l-4.73903,1.42067v36.63673h-5.52714l-20.88491-25.90391Z"/><path class="cls-3" d="m493.69675,493.67389l4.73904,1.42067v4.14795h-19.40203v-4.14795l4.73903-1.42067v-31.1096l-4.73903-1.43105v-4.14795h19.40201v4.14795l-4.73904,1.43105.00002,31.1096Z"/><path class="cls-3" d="m754.95519,493.67389l4.72866,1.42067v4.14795h-19.39166v-4.14795l4.72866-1.42067v-31.1096l-4.72866-1.37918v-4.14795h19.39166v4.14795l-4.72866,1.43105v31.05773Z"/><path class="cls-3" d="m542.82918,499.24251h-9.13585l-13.40825-36.57451-4.72866-1.48288v-4.14795h20.44938v4.14795l-4.80125,1.48288,8.90771,26.01799,9.07363-26.01799-4.73904-1.48288v-4.14795h16.59179v4.14795l-4.73904,1.48288-13.47043,36.57451Z"/><path class="cls-3" d="m581.23916,462.668l-4.73904-1.42067v-4.23089h33.18357l.34221,13.04528h-5.299l-2.57172-7.44556h-10.99205v11.86313h10.96096v5.99378h-10.96096v13.34601h11.20982l3.35984-7.39372h5.18493l-.74663,12.81714h-33.67096v-4.14795l4.73904-1.18218-.00002-31.24438Z"/><path class="cls-3" d="m650.58245,482.00779h-3.61907v11.6661l4.73904,1.42067v4.14795h-19.38128v-4.14795l4.73904-1.42067v-31.0059l-4.73904-1.42067v-4.23089h19.28796c11.81129,0,15.46148,4.57312,15.46148,11.69721,0,4.68717-1.03699,8.93882-6.83374,11.05428l6.77152,13.77118,5.93157,1.82511v3.87832h-14.2586l-8.09886-17.23475Zm-3.61907-19.3398v14.77706l6.6782-.57033c2.21923-1.78197,3.44945-4.52001,3.30799-7.36261,0-4.22054-1.10958-6.84412-5.45456-6.84412h-4.53163Z"/><path class="cls-3" d="m690.13314,486.12463h5.86935l1.25475,5.93157c2.68829,1.61801,5.77011,2.46471,8.90771,2.44727.45688.00864.91391-.00867,1.36883-.05184,1.63001-1.18256,2.60329-3.06754,2.62358-5.08123,0-9.8721-20.20051-5.47529-20.20051-19.91016,0-6.61598,6.056-12.95195,16.09402-12.95195,3.98288.1051,7.89006,1.11202,11.42761,2.94504v11.12688h-5.49602l-2.00138-7.07226c-2.17955-.86736-4.49862-1.33117-6.84412-1.36883-.38127-.01006-.76277.01076-1.14069.06222-1.72773,1.05553-2.7838,2.93216-2.7895,4.9568,0,8.45144,20.02421,5.42345,20.02421,19.57831,0,7.64259-6.90634,13.11788-16.20811,13.11788-4.55698-.02288-9.01202-1.35073-12.8379-3.82648l-.05184-9.90321Z"/><path class="cls-3" d="m793.1785,462.73022h-5.47529l-2.51987,7.52853h-5.29899v-13.24234h36.80265v13.24231h-5.18493l-2.42655-7.52853h-5.93157v30.94371l4.73904,1.42067v4.14795h-19.42277v-4.14795l4.71828-1.42067v-30.94368Z"/><path class="cls-3" d="m849.80833,482.98256l-11.07501-20.31457-4.72866-1.48288v-4.14795h20.42865v4.14795l-4.80125,1.48288,6.96855,13.75045,7.01004-13.75045-4.72866-1.48288v-4.14795h16.654v4.14795l-4.72866,1.48288-11.12688,20.20051v10.80538l4.73904,1.42067v4.14795h-19.39166v-4.14795l4.79087-1.42067-.01038-10.69133Z"/><polygon class="cls-3" points="867.66524 411.20235 861.24632 428.12598 832.82252 428.12598 832.82252 395.47126 848.91654 395.47126 851.00089 404.61747 858.14571 404.61747 858.14571 377.1166 851.00089 377.1166 848.91654 385.93098 832.82252 385.93098 832.82252 356.38723 860.01231 356.38723 865.19724 373.92268 874.97602 373.92268 874.3642 346.75363 805.66383 346.75363 805.66383 353.79476 815.4115 356.63611 815.4115 428.24003 805.5394 430.95693 805.5394 437.50031 875.71227 437.50031 877.31962 411.20235 867.66524 411.20235"/><path class="cls-3" d="m512.3314,406.2974c0,23.0211-10.99207,32.56139-33.52578,32.56139-20.73973,0-35.73456-8.29589-35.73456-30.15557v-52.06711l-9.88248-2.84135v-7.04113h37.04117v7.04113l-9.92396,2.84135v52.06709c0,13.08677,6.056,18.83168,20.50123,18.83168,9.96544,0,19.1324-5.83824,19.1324-20.03459v-50.86418l-9.74767-2.84135v-7.04113h32.02214v7.04113l-9.88248,2.84135v49.66129Z"/><path class="cls-3" d="m787.99357,406.2974c0,23.0211-10.99207,32.56139-33.5258,32.56139-20.73973,0-35.74493-8.29589-35.74493-30.15557v-52.06711l-9.8721-2.84135v-7.04113h37.04117v7.04113l-9.88248,2.84135v52.06709c0,13.08677,6.04562,18.83168,20.50122,18.83168,9.96543,0,19.13242-5.83824,19.13242-20.03459v-50.86418l-9.75805-2.84135v-7.04113h31.98067v7.04113l-9.8721,2.84135v49.66129Z"/><path class="cls-3" d="m887.04656,499.12845c-4.99977,0-9.05291-4.0531-9.05291-9.05287-.00003-4.99977,4.0531-9.05291,9.05284-9.05291,4.9998-.00003,9.05294,4.0531,9.05294,9.05287h0c-.0057,4.9974-4.05548,9.04718-9.05287,9.05291Zm0-16.22884c-3.96316,0-7.17596,3.21277-7.17596,7.17593s3.21277,7.17596,7.1759,7.17596,7.17599-3.21277,7.17599-7.17593h0c0-3.96316-3.21273-7.17596-7.17593-7.17599h0v.00003Z"/><path class="cls-3" d="m885.89549,490.90513v3.35983h-1.77324v-8.3996h3.69167c1.82511,0,2.81026,1.03699,2.81026,2.30211.06057.85426-.42628,1.65324-1.21326,1.99103.41482.15554,1.03699.58071,1.03699,2.07397v.41479c-.02753.53546.0143,1.07224.12443,1.59697h-1.73175c-.15899-.61568-.21855-1.25285-.17627-1.88732v-.12443c0-.91255-.22811-1.34807-1.58662-1.34807l-1.18221.02073Zm0-1.45178h1.52437c1.03699,0,1.37921-.38368,1.37921-1.03699s-.4459-1.03699-1.33769-1.03699h-1.56586l-.00003,2.07397Z"/></svg>