<svg id="LOGO" xmlns="http://www.w3.org/2000/svg" viewBox="0 0 1250 703"><defs><style>.cls-1{fill:#ce1126;fill-rule:evenodd;}</style></defs><g id="rtx_logo" data-name="rtx logo"><path id="Fill-1" class="cls-1" d="M580.38,322,557.76,269.7h21L590,299.22l10.56-29.52h20.59l-34.28,79.48H567.43ZM280.6,298.49a40.09,40.09,0,0,1,5.94,1.05l10.34-59.36q-2.92-.62-5.93-1.06ZM249.35,309l-45.54-38.69q-3.17,3.48-6,7.24l45.43,38.62a40.36,40.36,0,0,1,6.12-7.17Zm79.41-55.91c-1.6-1-3.21-2-4.87-2.88l-29.76,52.12a39.16,39.16,0,0,1,4.91,2.84Zm22.48,19.37L305.84,311a40.37,40.37,0,0,1,3.13,3.77l45.38-38.53c-1-1.29-2-2.56-3.11-3.79ZM237.46,329.58a40.49,40.49,0,0,1,3.79-10.12L185.48,298.9a100.13,100.13,0,0,0-3.68,10.18Zm79.28,9.08A40.14,40.14,0,0,1,237,345.49L181.34,366a100.69,100.69,0,0,0,4.54,12.73l55.33-20.4L196,396.77a100,100,0,0,0,9.41,11.4l42.23-35.89L220.13,420.8A98.48,98.48,0,0,0,234,429l25.89-45.59-9,51.87a96.77,96.77,0,0,0,17.11,3l8.43-48.47,8.46,48.5a97.77,97.77,0,0,0,17.89-3.18l-7.84-45,22.59,39.61a98.86,98.86,0,0,0,17.45-10.31L314.2,383.11,345.9,410a100.63,100.63,0,0,0,13.48-16.58l-28.33-24,34.68,12.78A100.15,100.15,0,0,0,373.1,361l-30.43-11.2H375a99.79,99.79,0,0,0-.22-24.52H314.46a40.53,40.53,0,0,1,2.28,13.42Zm-80.31,0a40.86,40.86,0,0,1,.54-6.58H177.71c-.13,2.09-.21,4.18-.21,6.3s.07,3.93.18,5.88h59.14a41.36,41.36,0,0,1-.39-5.6Zm16.88-32.89a40.28,40.28,0,0,1,7-4l-29.76-52.2c-2.37,1.26-4.67,2.62-6.92,4.06ZM256,240.25q3.24-.69,6.57-1.17l10.35,59.39a39,39,0,0,0-6.59,1.16ZM791,436.57h9.06V357.23H791ZM958.62,359.8a7.07,7.07,0,0,1,0,9.22,6.42,6.42,0,0,1-9,0,7.1,7.1,0,0,1,0-9.22,6.42,6.42,0,0,1,9,0Zm-244.7-34.74V295q0-9.86-7.36-9.86a7.23,7.23,0,0,0-6.13,2.73c-1.39,1.82-2.07,4.45-2.07,7.88v29.28H679.15V243.57h19.21v32.06a15.53,15.53,0,0,1,6.39-5.63,20.62,20.62,0,0,1,9.17-2q9.5,0,14.35,5.89t4.85,17.48v33.67Zm53.15,93.44a17.3,17.3,0,0,1-3.68,6.28,17,17,0,0,1-5.7,4,19.94,19.94,0,0,1-14.93,0,16.89,16.89,0,0,1-5.71-4,17.3,17.3,0,0,1-3.68-6.28,26.91,26.91,0,0,1,0-16.4,17.56,17.56,0,0,1,3.68-6.28,17.15,17.15,0,0,1,5.71-4,19.94,19.94,0,0,1,14.93,0,17.21,17.21,0,0,1,5.7,4,17.56,17.56,0,0,1,3.68,6.28,26.91,26.91,0,0,1,0,16.4Zm2.72-28.25a27,27,0,0,0-8.69-5.9,28.73,28.73,0,0,0-21.76,0,26.56,26.56,0,0,0-14.45,14.8,30.93,30.93,0,0,0,0,22.3,27.68,27.68,0,0,0,36.21,14.8,26.48,26.48,0,0,0,14.45-14.8,30.93,30.93,0,0,0,0-22.3,27.05,27.05,0,0,0-5.76-8.9Zm179.87,46.32h9.06V383.71h-9.06ZM921.51,273.91q4.86,5.91,4.85,17.48v33.67H907.17V295q0-9.86-7.37-9.86a7.23,7.23,0,0,0-6.13,2.73q-2.07,2.73-2.07,7.88v29.28H872.4V269.73h18.77l.21,6.86a15.11,15.11,0,0,1,6.24-6.33,19.67,19.67,0,0,1,9.55-2.24q9.48,0,14.34,5.89Zm-163.7,18.36q2.21-11.19,12.05-11.2a10.62,10.62,0,0,1,7.77,2.93,13.45,13.45,0,0,1,3.63,8.27Zm39.3,3.41a33.44,33.44,0,0,0-1.87-11.53,24.19,24.19,0,0,0-5.39-8.69,23.77,23.77,0,0,0-8.52-5.52,31.15,31.15,0,0,0-11.2-1.92,30.75,30.75,0,0,0-11.68,2.14,27.11,27.11,0,0,0-9.12,6,26.41,26.41,0,0,0-5.92,9.28,33.24,33.24,0,0,0-2.08,11.95,31.32,31.32,0,0,0,2.29,12.23,25.13,25.13,0,0,0,6.62,9.27,29.69,29.69,0,0,0,10.45,5.85,43.86,43.86,0,0,0,13.81,2,50.51,50.51,0,0,0,12.32-1.5,32.35,32.35,0,0,0,10.07-4.3l-6.07-12.33A35.74,35.74,0,0,1,783.4,311a37.22,37.22,0,0,1-7.19.8c-8.75,0-16.48-3.14-18.39-9.44h38.65a29.48,29.48,0,0,0,.64-6.64Zm45.65,11.26a12.34,12.34,0,0,1-17.5,0,15.45,15.45,0,0,1,0-19.09,12.34,12.34,0,0,1,17.5,0,15.45,15.45,0,0,1,0,19.09Zm12.9-30.56a28.79,28.79,0,0,0-9.6-6.17,34.25,34.25,0,0,0-24.1,0,28.42,28.42,0,0,0-16,15.5,31,31,0,0,0,0,23.37,28.42,28.42,0,0,0,16,15.5,34.1,34.1,0,0,0,24.1,0A28.37,28.37,0,0,0,862,309.08a30.83,30.83,0,0,0,0-23.37,28.63,28.63,0,0,0-6.34-9.33ZM704.2,388.06q4.9,5.83,4.91,17.1v31.41H700V406.76c0-5.71-1-9.9-2.93-12.54s-5.06-4-9.33-4q-7,0-10.93,4.67c-2.6,3.11-3.9,7.44-3.9,13v28.62h-9.06V383.71h8.53l.14,9.38A17.06,17.06,0,0,1,678,386a19.08,19.08,0,0,1,11.94-3.75q9.39,0,14.29,5.85ZM857.61,418.5a17.45,17.45,0,0,1-3.68,6.28,16.89,16.89,0,0,1-5.71,4,19.94,19.94,0,0,1-14.93,0,17,17,0,0,1-5.7-4,17.3,17.3,0,0,1-3.68-6.28,26.91,26.91,0,0,1,0-16.4,17.56,17.56,0,0,1,3.68-6.28,17.21,17.21,0,0,1,5.7-4,19.94,19.94,0,0,1,14.93,0,17.15,17.15,0,0,1,5.71,4,17.71,17.71,0,0,1,3.68,6.28,26.91,26.91,0,0,1,0,16.4Zm2.72-28.25a26.9,26.9,0,0,0-8.7-5.9,28.7,28.7,0,0,0-21.75,0,26.56,26.56,0,0,0-14.45,14.8,30.93,30.93,0,0,0,0,22.3,26.48,26.48,0,0,0,14.45,14.8,28.58,28.58,0,0,0,21.75,0,26.72,26.72,0,0,0,8.7-5.89,27.15,27.15,0,0,0,5.76-8.91,31.06,31.06,0,0,0,0-22.3,27.21,27.21,0,0,0-5.76-8.9Zm-328.84-84a10.37,10.37,0,0,1-8,3.38,10.55,10.55,0,0,1-8.06-3.38,14,14,0,0,1,0-17.69,10.51,10.51,0,0,1,8.06-3.38,10.34,10.34,0,0,1,8,3.38,14.2,14.2,0,0,1,0,17.69Zm21.22-36.51h-18l-.21,6.43a16.93,16.93,0,0,0-6.56-6,19.35,19.35,0,0,0-9.12-2.14,23.28,23.28,0,0,0-10.13,2.24,25.25,25.25,0,0,0-8.15,6.23,28.41,28.41,0,0,0-5.39,9.38,34.88,34.88,0,0,0-1.92,11.74,35.47,35.47,0,0,0,1.87,11.79,28,28,0,0,0,5.17,9.22,23.1,23.1,0,0,0,7.89,6,23.61,23.61,0,0,0,10.13,2.15,21.25,21.25,0,0,0,9.55-2.1,16.39,16.39,0,0,0,6.66-5.95l.21,6.33h18ZM1072.5,422.42a13.77,13.77,0,0,1-5.81,11.69q-5.82,4.27-15.62,4.29a36.19,36.19,0,0,1-10.14-1.46,24.17,24.17,0,0,1-8-3.69l3.73-6.54a28,28,0,0,0,14.4,4.08c3.9,0,6.93-.69,9.06-2.05a6.48,6.48,0,0,0,3.2-5.78,8.6,8.6,0,0,0-.48-3,5.15,5.15,0,0,0-1.87-2.3,17.11,17.11,0,0,0-3.84-2c-1.63-.65-3.77-1.36-6.39-2.15q-8.65-2.56-12.38-6.33a14.45,14.45,0,0,1,1.55-20.86q5.26-4.11,14.23-4.12a33.33,33.33,0,0,1,8.64,1.23,28.23,28.23,0,0,1,7.68,3.17l-3.52,6.54a28.34,28.34,0,0,0-12.8-3.32q-10.77,0-10.76,6.53a6.46,6.46,0,0,0,2.45,5.31q2.45,2,8.53,3.81a61.35,61.35,0,0,1,8.58,3.11,21.38,21.38,0,0,1,5.6,3.59,11.32,11.32,0,0,1,3,4.5,16.74,16.74,0,0,1,.91,5.74ZM486.64,365.59H458.91v71h-9.59v-71H421.59v-8.25h65.05ZM444.57,259.86h6.08q13.86,0,13.86,11.16,0,11.48-14.07,11.47h-5.87Zm10.66,38.82,14.19,26.38h23.46l-20.16-32.28a24.1,24.1,0,0,0,9.07-9.16,25.28,25.28,0,0,0,3.2-12.5,29.37,29.37,0,0,0-2.19-11.58,23.65,23.65,0,0,0-6.24-8.68,27.56,27.56,0,0,0-9.92-5.41,43.7,43.7,0,0,0-13.33-1.88H424.09v81.49h20.48V298.79h5.87ZM506.41,390a15.82,15.82,0,0,1,7.37,1.56,13.64,13.64,0,0,1,4.8,4,16.13,16.13,0,0,1,2.61,5.69,27,27,0,0,1,.72,5.14h-32a20.39,20.39,0,0,1,4.26-11q4.47-5.42,12.25-5.41Zm17.66-.54a22.37,22.37,0,0,0-7.52-5.36,23.62,23.62,0,0,0-9.6-1.93,26.23,26.23,0,0,0-10.56,2.09,24.13,24.13,0,0,0-8.26,5.9,27.12,27.12,0,0,0-5.39,9.12,33.89,33.89,0,0,0-1.92,11.62q0,13,7.68,20.22T510,438.4A46,46,0,0,0,521,437.11a30.62,30.62,0,0,0,8.9-3.54l-3.41-6.64a42.63,42.63,0,0,1-16,3.32q-10.12,0-15.46-4.88c-3-2.71-4.67-6.64-5.16-11.75h40.56c.08-.71.13-1.36.17-1.92s0-1.61,0-3.11a32.37,32.37,0,0,0-1.71-10.78,23.79,23.79,0,0,0-4.85-8.31Zm473.41.54q13.65,0,15.47,13.72a12,12,0,0,1,.26,2,1.48,1.48,0,0,0,0,.21H981.49a20.16,20.16,0,0,1,4.11-10.45A14.39,14.39,0,0,1,997.48,390Zm17.92-.7a21.49,21.49,0,0,0-7.52-5.26,25.22,25.22,0,0,0-9.86-1.87,24.9,24.9,0,0,0-10.24,2.09,23.85,23.85,0,0,0-8.11,5.9,27.51,27.51,0,0,0-5.33,9,32.34,32.34,0,0,0-1.92,11.3q0,13.31,7.52,20.6t21.17,7.29a44,44,0,0,0,11.19-1.4,35.2,35.2,0,0,0,9.39-3.86l-3.2-6.86a40,40,0,0,1-17,4q-18.53,0-20.1-17.06h40.26c.07-.71.12-1.35.17-1.92s0-1.61,0-3.11a31.47,31.47,0,0,0-1.7-10.67,23.9,23.9,0,0,0-4.8-8.15ZM584.86,427.57l3.31,6.75a30.91,30.91,0,0,1-7.84,3,38,38,0,0,1-8.91,1.07,35.29,35.29,0,0,1-12-1.93,25.46,25.46,0,0,1-9.17-5.58,24.51,24.51,0,0,1-5.81-8.79,33.36,33.36,0,0,1,0-23,26.45,26.45,0,0,1,5.82-9,26.06,26.06,0,0,1,9-5.85,31.21,31.21,0,0,1,11.57-2.09,33.16,33.16,0,0,1,16.21,4.29l-3.52,6.65a25.43,25.43,0,0,0-6-2.1,29.83,29.83,0,0,0-6.29-.69q-9.08,0-14.35,5.36t-5.28,14.48q0,9.44,5.39,14.74T572,430.25a34.92,34.92,0,0,0,12.9-2.68ZM641.7,388.1q5,5.91,5,17.06v31.41H637.6V406.76c0-5.71-1-9.9-3-12.54s-5.12-4-9.38-4q-7.05,0-10.94,4.67c-2.59,3.11-3.89,7.44-3.89,13v28.62h-9.06V357.23h9.06v35.14a16.87,16.87,0,0,1,5.44-6.67,19,19,0,0,1,11.52-3.49q9.38,0,14.34,5.89ZM664.49,326a49.37,49.37,0,0,1-8.69.76Q635,326.78,635,305V285.28h-9.28V269.73H635V255.47H654.2v14.26h17.92l-4.8,15.55H654.2v16.41c0,3.35.54,5.69,1.6,7s2.88,2,5.44,2a23.51,23.51,0,0,0,8.53-1.61L671.69,324a33.29,33.29,0,0,1-7.2,2Zm254.77,98.6a17.26,17.26,0,0,1-5.71,4.12,16.94,16.94,0,0,1-7.14,1.51q-8.32,0-13.18-5.31t-4.85-14.43a23.88,23.88,0,0,1,1.33-8.09,19.51,19.51,0,0,1,3.74-6.38,17,17,0,0,1,5.7-4.18,17.4,17.4,0,0,1,7.26-1.5,18.45,18.45,0,0,1,7.41,1.45,15.85,15.85,0,0,1,5.7,4.08,18.3,18.3,0,0,1,3.63,6.37,25.49,25.49,0,0,1,1.28,8.25A21.58,21.58,0,0,1,923,418.4a19.5,19.5,0,0,1-3.78,6.22Zm4.53-31.46a22.63,22.63,0,0,0-6.4-7.15,20.62,20.62,0,0,0-12.26-3.8,24.17,24.17,0,0,0-10.3,2.2,26,26,0,0,0-8.26,6,27.37,27.37,0,0,0-5.49,9,30.74,30.74,0,0,0-2,11.14,34,34,0,0,0,1.81,11.37,25.6,25.6,0,0,0,5.12,8.8,23.37,23.37,0,0,0,7.89,5.68,24.77,24.77,0,0,0,10.13,2,23,23,0,0,0,12.9-3.65,21.52,21.52,0,0,0,6.83-7.29v6.22q0,11.46-4.75,16.83t-14.77,5.37q-11.5,0-18-4.19l-2.35,7.4a14,14,0,0,0,3.69,1.93,41.91,41.91,0,0,0,5,1.51,55.76,55.76,0,0,0,5.75,1,49.31,49.31,0,0,0,6,.38q28.47,0,28.47-31.21v-49H924Z"/></g></svg>