<?xml version="1.0" encoding="UTF-8"?><svg id="LOGOS" xmlns="http://www.w3.org/2000/svg" viewBox="0 0 1250 703"><defs><style>.cls-1{fill:#000;}.cls-1,.cls-2{stroke-width:0px;}.cls-2{fill:#e00;}</style></defs><path class="cls-2" d="M376.39571,366.7743c17.37207,0,42.52736-3.59493,42.52736-24.25886,0-1.61259-.04508-3.18186-.43107-4.7547l-10.34821-44.95891c-2.39904-9.88284-4.4932-14.37602-21.86345-23.06116-13.47774-6.88677-42.82682-18.26671-51.51195-18.26671-8.08629,0-10.47988,10.47988-20.06511,10.47988-9.28217,0-16.17076-7.78507-24.8559-7.78507-8.3839,0-13.77717,5.68906-17.9691,17.37028,0,0-11.68119,32.94218-13.17832,37.73118-.29943.90007-.30845,1.91017-.30845,2.69844,0,12.80312,50.42247,54.80564,118.0042,54.80564M421.61794,350.90112c2.39717,11.38,2.39717,12.5777,2.39717,14.0748,0,19.46805-21.86524,30.24738-50.61186,30.24738-64.99149,0-121.89129-38.0324-121.89129-63.18956,0-3.89614.89828-7.48744,2.09598-10.18224-23.36058,1.1977-53.60794,5.38967-53.60794,32.04388,0,43.72333,103.62276,97.63067,185.67968,97.63067,62.89374,0,78.76323-28.44901,78.76323-50.9095,0-17.67331-15.27245-37.73476-42.82497-49.71543"/><path class="cls-1" d="M421.61794,350.90112c2.39717,11.38,2.39717,12.5777,2.39717,14.0748,0,19.46805-21.86524,30.24738-50.61186,30.24738-64.99149,0-121.89129-38.0324-121.89129-63.18956,0-3.89614.89828-7.48744,2.09598-10.18224l5.09203-12.58128c-.29943.90007-.30845,1.91017-.30845,2.69844,0,12.80312,50.42247,54.80564,118.0042,54.80564,17.37207,0,42.52736-3.59493,42.52736-24.25886,0-1.61259-.04508-3.18186-.43107-4.7547l3.12593,13.14039Z"/><path class="cls-1" d="M1004.70735,379.70804c0,16.5099,9.93701,24.54565,28.05218,24.54565,4.38501,0,11.98067-1.02277,16.51166-2.33766v-19.13981c-3.94475,1.16886-6.86684,1.60719-10.66748,1.60719-7.45132,0-10.22545-2.33772-10.22545-9.35076v-29.36707h21.62175v-19.72423h-21.62175v-24.98394l-23.67091,5.11366v19.87027h-15.63323v19.72423h15.63323v34.04246ZM931.15565,380.14638c0-5.11372,5.11372-7.59747,12.85734-7.59747,5.11361,0,9.78904.73052,14.02609,1.75323v9.93514c-4.38325,2.48381-9.49686,3.65267-14.75667,3.65267-7.59742,0-12.12676-2.92215-12.12676-7.74357M938.37743,404.54588c8.328,0,15.04885-1.75323,21.33143-5.99028v4.67533h23.37674v-49.52959c0-18.84756-12.71114-29.22104-33.89636-29.22104-11.83446,0-23.52294,2.776-36.08799,8.47409l8.47409,17.38652c9.05857-3.79871,16.65599-6.13643,23.37685-6.13643,9.78904,0,14.75667,3.79876,14.75667,11.54233v3.79871c-5.552-1.46105-11.39629-2.19157-17.53267-2.19157-19.87027,0-31.85094,8.328-31.85094,23.2307,0,13.58781,10.81181,23.96122,28.05218,23.96122M809.95112,403.23093h25.13008v-40.03279h42.07826v40.03279h25.13008v-102.27351h-25.13008v39.30227h-42.07826v-39.30227h-25.13008v102.27351ZM714.19149,364.51309c0-11.10394,8.76633-19.57809,20.30861-19.57809,6.42861,0,12.27285,2.19162,16.36375,5.99033v27.02947c-4.23705,4.0909-9.78904,6.13637-16.36375,6.13637-11.39618,0-20.30861-8.47409-20.30861-19.57809M751.15609,403.23093h23.3768v-107.38718l-23.66904,5.11366v29.07489c-5.84419-3.36043-12.56504-5.11366-19.72418-5.11366-22.50018,0-40.17888,17.38652-40.17888,39.59445s17.38652,39.7406,39.44836,39.7406c7.59747,0,14.75661-2.33766,20.74695-6.72086v5.69809ZM643.91677,343.9123c7.45132,0,13.73385,4.82147,16.21766,12.2728h-32.28922c2.33766-7.74357,8.1819-12.2728,16.07156-12.2728M604.03007,364.65924c0,22.50018,18.40923,40.03279,42.07826,40.03279,13.00332,0,22.50018-3.50652,32.28922-11.68843l-15.63323-13.87999c-3.65267,3.79876-9.05852,5.84419-15.48713,5.84419-8.76633,0-15.92547-4.82142-18.99371-12.2728h55.08164v-5.84419c0-24.54565-16.5099-42.22436-39.01008-42.22436-22.64627,0-40.32498,17.53256-40.32498,40.03279M563.26858,322.43483c8.328,0,13.00332,5.25981,13.00332,11.54233s-4.67533,11.54228-13.00332,11.54228h-24.8379v-23.08461h24.8379ZM513.30065,403.23093h25.13003v-37.25679h19.13981l19.28584,37.25679h28.05218l-22.50018-40.90941c12.12671-5.25976,19.28584-16.21766,19.28584-28.7827,0-18.40923-14.46437-32.58141-36.08793-32.58141h-52.30559v102.27351Z"/></svg>