<?xml version="1.0" encoding="utf-8"?>
<!-- Generator: Adobe Illustrator 23.0.3, SVG Export Plug-In . SVG Version: 6.00 Build 0)  -->
<svg version="1.1" id="Layer_1" xmlns="http://www.w3.org/2000/svg" xmlns:xlink="http://www.w3.org/1999/xlink" x="0px" y="0px"
	 viewBox="0 0 1250 703" style="enable-background:new 0 0 1250 703;" xml:space="preserve">
<style type="text/css">
	.st0{fill:#231F20;}
	.st1{fill:#F7A59A;}
	.st2{fill:#E58B8E;}
	.st3{fill:#D14945;}
	.st4{fill:#E65C59;}
	.st5{fill:#F04943;}
	.st6{fill:#E5353B;}
	.st7{fill:#DB2327;}
	.st8{opacity:0.7;}
	.st9{clip-path:url(#SVGID_2_);}
	.st10{fill:#ED1C24;}
	.st11{clip-path:url(#SVGID_4_);}
	.st12{fill:#C63E40;}
	.st13{fill:#EA6159;}
	.st14{fill:#D52027;}
	.st15{opacity:0.5;}
	.st16{clip-path:url(#SVGID_6_);}
	.st17{fill:#CC171E;}
	.st18{clip-path:url(#SVGID_8_);}
	.st19{clip-path:url(#SVGID_10_);}
	.st20{clip-path:url(#SVGID_12_);}
	.st21{clip-path:url(#SVGID_14_);}
	.st22{clip-path:url(#SVGID_16_);}
	.st23{clip-path:url(#SVGID_18_);}
</style>
<title>nvidia-partner-redshift-logo</title>
<g>
	<g id="LOGO">
		<path class="st0" d="M364,493.4l-12-17.7h-9.4v17.7H339v-42.7h15.9c7.4,0,13,4.7,13,12.5s-5.5,12-11.8,12.3l12.4,17.9H364z
			 M364.1,463.2c0-5.4-3.8-9.1-9.5-9.1h-12v18.4h12C360.3,472.4,364.1,468.6,364.1,463.2"/>
		<polygon class="st0" points="415.4,493.4 415.4,450.7 442.5,450.7 442.5,454 419.1,454 419.1,469.9 442.1,469.9 442.1,473.2 
			419.1,473.2 419.1,490.1 442.5,490.1 442.5,493.4 		"/>
		<path class="st0" d="M492,493.4v-42.7h13.6c13.3,0,21.6,9.7,21.6,21.4s-8.3,21.3-21.6,21.3H492z M523.4,472.1c0-10-6.4-18-17.7-18
			h-10v36h10C516.9,490.1,523.4,482.1,523.4,472.1"/>
		<path class="st0" d="M572.3,487.4l2.4-2.8c3.3,3.9,8.2,6.2,13.4,6.2c8.7,0,11.2-4.9,11.2-8.5c0-12.5-25.6-6-25.6-20.9
			c0-7,6.3-11.4,14-11.4c6.3,0,11.2,2.2,14.5,6l-2.4,2.7c-3-3.6-7.5-5.6-12.2-5.4c-5.7,0-10,3.3-10,7.9c0,10.9,25.6,4.9,25.6,20.9
			c0,5.5-3.7,12.1-15.2,12.1C580.9,494.2,575.6,491.3,572.3,487.4"/>
		<polygon class="st0" points="683.3,493.4 683.3,473.1 656.2,473.1 656.2,493.4 652.5,493.4 652.5,450.7 656.2,450.7 656.2,469.8 
			683.3,469.8 683.3,450.7 686.9,450.7 686.9,493.4 		"/>
		<rect x="744.7" y="450.7" class="st0" width="3.7" height="42.7"/>
		<polygon class="st0" points="807.3,493.4 807.3,450.7 834.4,450.7 834.4,454 810.9,454 810.9,469.9 833.9,469.9 833.9,473.2 
			810.9,473.2 810.9,493.4 		"/>
		<polygon class="st0" points="893.3,493.4 893.3,454 879.4,454 879.4,450.7 911,450.7 911,454 897,454 897,493.4 		"/>
		<polygon class="st1" points="623,258 663.1,278.5 708.2,251.2 622.9,208.8 623,258 		"/>
		<polygon class="st2" points="623,258 622.9,208.8 537.6,251.2 582.8,278.5 		"/>
		<polygon class="st3" points="580,327.7 537.6,352.2 623,406 623,354.4 		"/>
		<polygon class="st4" points="580,327.7 579.9,327.7 537.8,301.5 582.8,278.5 582.8,278.5 582.8,278.5 537.6,251.2 537.6,352.2 
			580,327.7 		"/>
		<polygon class="st5" points="623,258 623,302.8 663.1,278.5 663.1,278.5 663.1,278.5 623,258 		"/>
		<polygon class="st6" points="623,302.8 623,258 582.8,278.5 623,302.8 		"/>
		<polygon class="st7" points="623,302.8 580,327.7 623,354.4 623,302.8 		"/>
		<g class="st8">
			<g>
				<defs>
					<rect id="SVGID_1_" x="580" y="302.8" width="43" height="24.9"/>
				</defs>
				<clipPath id="SVGID_2_">
					<use xlink:href="#SVGID_1_"  style="overflow:visible;"/>
				</clipPath>
				<g class="st9">
					<polygon class="st10" points="622.9,302.8 580,327.7 580,327.7 623,302.8 					"/>
				</g>
			</g>
		</g>
		<g class="st8">
			<g>
				<defs>
					<rect id="SVGID_3_" x="582.8" y="278.5" width="40.2" height="24.3"/>
				</defs>
				<clipPath id="SVGID_4_">
					<use xlink:href="#SVGID_3_"  style="overflow:visible;"/>
				</clipPath>
				<g class="st11">
					<polygon class="st10" points="623,302.8 582.8,278.5 582.8,278.5 622.9,302.8 					"/>
				</g>
			</g>
		</g>
		<polygon class="st12" points="623,354.4 623,354.4 623,406 708.2,352.2 666,327.7 		"/>
		<polygon class="st13" points="663.1,278.5 708.2,301.5 708.2,251.2 		"/>
		<polygon class="st13" points="708.2,352.2 708.2,301.5 666,327.7 		"/>
		<polygon class="st14" points="623,302.8 623,354.4 623,354.4 666,327.7 666,327.7 666,327.7 		"/>
		<g class="st15">
			<g>
				<defs>
					<rect id="SVGID_5_" x="663.1" y="278.5" width="45.1" height="49.2"/>
				</defs>
				<clipPath id="SVGID_6_">
					<use xlink:href="#SVGID_5_"  style="overflow:visible;"/>
				</clipPath>
				<g class="st16">
					<polygon class="st17" points="663.1,278.5 708.2,301.5 666,327.7 666,327.7 708.2,301.5 663.1,278.5 					"/>
				</g>
			</g>
		</g>
		<g>
			<g>
				<defs>
					<rect id="SVGID_7_" x="537.8" y="278.5" width="45" height="49.2"/>
				</defs>
				<clipPath id="SVGID_8_">
					<use xlink:href="#SVGID_7_"  style="overflow:visible;"/>
				</clipPath>
				<g class="st18">
					<polygon class="st10" points="582.8,278.5 582.8,278.5 537.8,301.5 579.9,327.7 580,327.7 537.8,301.5 					"/>
				</g>
			</g>
		</g>
		<polygon class="st10" points="582.8,278.5 537.8,301.5 580,327.7 622.9,302.8 		"/>
		<g>
			<g>
				<defs>
					<rect id="SVGID_9_" x="623" y="278.5" width="40.2" height="24.3"/>
				</defs>
				<clipPath id="SVGID_10_">
					<use xlink:href="#SVGID_9_"  style="overflow:visible;"/>
				</clipPath>
				<g class="st19">
					<polygon class="st10" points="623,302.8 623,302.8 663.1,278.5 663.1,278.5 					"/>
				</g>
			</g>
		</g>
		<g>
			<g>
				<defs>
					<rect id="SVGID_11_" x="623" y="302.8" width="0" height="0"/>
				</defs>
				<clipPath id="SVGID_12_">
					<use xlink:href="#SVGID_11_"  style="overflow:visible;"/>
				</clipPath>
				<g class="st20">
					<polygon class="st10" points="623,302.8 623,302.8 623,302.8 					"/>
				</g>
			</g>
		</g>
		<g>
			<g>
				<defs>
					<rect id="SVGID_13_" x="623" y="302.8" width="0" height="0"/>
				</defs>
				<clipPath id="SVGID_14_">
					<use xlink:href="#SVGID_13_"  style="overflow:visible;"/>
				</clipPath>
				<g class="st21">
					<polygon class="st10" points="623,302.8 623,302.8 623,302.8 					"/>
				</g>
			</g>
		</g>
		<g>
			<g>
				<defs>
					<rect id="SVGID_15_" x="622.9" y="302.8" width="0" height="0"/>
				</defs>
				<clipPath id="SVGID_16_">
					<use xlink:href="#SVGID_15_"  style="overflow:visible;"/>
				</clipPath>
				<g class="st22">
					<polygon class="st10" points="622.9,302.8 623,302.8 623,302.8 623,302.8 					"/>
				</g>
			</g>
		</g>
		<g>
			<g>
				<defs>
					<rect id="SVGID_17_" x="623" y="302.8" width="43" height="24.9"/>
				</defs>
				<clipPath id="SVGID_18_">
					<use xlink:href="#SVGID_17_"  style="overflow:visible;"/>
				</clipPath>
				<g class="st23">
					<polygon class="st10" points="623,302.8 666,327.7 666,327.7 623,302.8 					"/>
				</g>
			</g>
		</g>
		<polygon class="st10" points="666,327.7 708.2,301.5 663.1,278.5 623,302.8 		"/>
	</g>
</g>
</svg>
