<?xml version="1.0" encoding="UTF-8"?><svg id="LOGO" xmlns="http://www.w3.org/2000/svg" viewBox="0 0 1250 703"><defs><style>.cls-1{fill:#e51636;}.cls-1,.cls-2,.cls-3,.cls-4{stroke-width:0px;}.cls-2{fill:#15213a;}.cls-3{fill:#b1b1ae;}.cls-4{fill:#fff;}</style></defs><g id="g8"><g id="g10"><path id="path12" class="cls-3" d="m862.89367,443.23719c0,6.87404-5.57347,12.44582-12.44723,12.44582-6.87235,0-12.44441-5.57178-12.44441-12.44582,0-6.87348,5.57206-12.44582,12.44441-12.44582,6.87376,0,12.44723,5.57235,12.44723,12.44582"/><path id="path14" class="cls-2" d="m429.16726,269.1807c-7.23437,0-22.92993-.12269-22.92993-.12269l.04584,48.95263c18.78931-2.45109,48.5624-2.73173,48.5624-28.98008,0-16.20708-13.56573-19.34498-25.67831-19.84985"/><path id="path16" class="cls-2" d="m894.81842,269.48109c-2.84317,2.87135-2.33263,11.08065-2.33263,14.8405v56.52732c0,39.6574,2.81494,75.09097-50.35023,74.41996l2.04351-10.48143s-9.90871,4.65679-24.09626,9.31188c-38.90428-4.4788-85.57085-25.22279-85.57085-68.20297,0-24.29792.99709-48.5916.99709-72.88811,0-9.291-3.51867-11.58837-10.95796-12.10735-2.88686.12269-5.88938.63181-7.99635,2.40597-2.657,2.23531-2.92635,5.89783-3.02366,9.12599-.89555,29.96164-1.48928,60.18984-1.48928,90.16416,0,10.33052,4.80064,12.28237,14.32011,13.31316l-5.47617,17.93158c-21.00487-2.48071-39.3669-4.54099-64.60123-5.55077l-4.9219-18.29135c3.66393.18052,8.82562.40193,11.8408-2.00543,4.68216-3.73727,3.62444-44.34098,3.76124-52.88593-10.68014,22.20786-32.88799,63.08911-32.88799,63.08911l-34.82432-.50615-35.66063-66.57831c-.24539,15.68385.30322,31.40719.30322,47.09105,0,9.04138,3.78381,10.8127,12.18775,10.8127l2.09146-.03385-3.4679,11.06233c-42.98287-4.87707-83.80375-2.84864-119.274,6.20698l-2.23531.58781c-3.33195-8.93279-5.64074-19.13907-6.48522-22.65493-2.69944-11.23721-6.46759-20.86667-19.81305-20.86667-6.73019,0-13.9585,1.87569-20.59026,3.06174l.03088,33.81709c0,5.57403.62744,10.88068,7.47455,10.88068,2.38269,0,4.76579-.48909,7.06852-1.05772l-2.48071,10.44448c-11.01618,5.85439-20.28279,12.5417-27.09182,19.35073l.24398.24243c-13.36138,4.51731-26.80273,9.67037-42.79952,16.62494l-5.99318-21.35943c9.27422-3.1417,14.75461-7.46185,14.75461-17.94864l-.02426-116.92431c0-9.44331-2.2906-14.03946-12.42876-14.03946l-2.22671.06204,5.93366-26.12424,83.90741.00565c30.80938,0,69.97881,8.20789,69.97881,44.54123,0,21.16565-15.50052,34.37868-33.40558,42.37926,38.53057,5.59181,20.41397,45.63295,43.73878,46.0604,2.34814-.584,4.58345-1.47531,6.07131-2.94356,2.48493-2.44826,2.84315-5.95707,2.92353-9.26561.71079-29.63587-.10295-59.44379-.10295-89.08954,0-10.52359-5.15039-11.57286-14.46535-11.38387l6.09386-20.29269,53.96622.00282,48.65647,96.62754c17.68928-32.13631,35.3391-64.28672,52.66733-96.62048l53.96197.00282,72.51013.00565,5.1645,22.16978c-3.56804-.11424-8.95817-.20731-11.76182,2.46801-.84476.80527-1.95044,9.78743-1.95044,9.78743l-.73052,71.09279s-2.0012,31.51719,35.8327,37.34889c4.81331,0,11.86198-.1509,15.76848-3.1324,5.64822-4.30689,7.31096-11.50093,7.48302-18.25339.7122-27.93928,1.19028-56.0605,1.19028-84.00965,0-11.15964-3.52432-13.9351-14.45831-14.29471l6.28991-23.1739,62.32218.00424,6.25039,26.38092c-3.92203-.2186-8.87919-.28629-11.85347,2.71481l-.00007-.00003Zm-53.94506,201.00617l-2.25364,1.20693c-1.0436.55593-3.19712,1.95072-6.58182,3.71033-3.44392,1.79149-8.13738,3.95206-14.20022,5.9998-12.10595,4.09097-29.58934,7.70428-53.36542,7.05865-36.84951-1.00046-67.64183-9.34925-95.94355-18.07599-14.10715-4.35103-27.63324-8.80995-41.03525-12.52184-13.30753-3.68664-26.49234-6.63387-40.00714-7.98521-40.07907-4.00777-83.79106-5.45783-115.42107,4.4269-17.83034,5.57178-25.93091,9.7492-41.14613,18.84178l-3.11857,1.86426.06445-3.63319c.20322-11.31491.02693-15.52153-5.35135-28.2339-2.90718-6.87249-4.38854-9.89192-5.81858-12.03374-.72447-1.0831-1.45218-1.96454-2.33756-2.97162-.95082-1.08297-2.07355-2.29892-3.53772-4.00113l-1.31016-1.52156,1.51564-1.31877c11.79398-10.2555,24.43823-15.93079,48.00181-22.85505l.34693-.10197c19.87101-5.82563,50.74793-11.60895,94.16798-8.52507,20.79757,1.477,44.47213,4.99003,71.19294,11.50657,18.56227,4.52718,43.23814,14.2737,71.24228,22.15427,27.87863,7.84587,58.90928,13.77897,90.40675,10.85924,7.4534-.68977,24.75344-5.43512,40.02973-11.39093l3.40302-1.32822-5.73423,29.90819,16.7909,18.96124Zm71.79937-245.59396l-258.54734-.01692s-24.4897,47.25324-37.39249,70.76138l-34.3124-70.76702-246.02014-.01551-13.09808,57.66682,18.69567-.52886.02426,115.38413c0,1.01428.08716,1.2175.04358,1.39929-.03088.03638-.67821.65283-4.27657,1.87414l-13.91451,4.71193,14.95013,53.28194s14.81032-8.3698,29.21292-14.52868c9.20272-3.93627,20.67614-8.34991,33.59187-12.25699,1.9541,2.89829,3.74178,6.07314,5.71069,9.99939,8.6936,17.34377,8.76637,35.5691,8.01496,49.09521,14.35183,3.85574,16.86567,5.11231,38.07293,1.50281,12.54454-2.13476,29.04073-12.12413,32.06297-13.02531,28.55417-8.5152,39.5756-7.01352,54.10302-.50079l-7.51404-21.03986c20.11358.33114,35.33486,1.48363,57.61041,5.00935,37.08504,5.86808,77.37565,21.94273,92.67872,26.04964,30.42986,8.167,54.6206,10.9876,78.65054,12.02272,56.97013,2.45645,99.69212-26.55042,99.69212-26.55042l-24.54895-28.55403,2.96161-15.17488c30.6527.9762,51.26269-8.30196,61.38153-29.26087,4.60176-9.52596,6.27717-20.13191,6.97812-30.04908.66851-9.49945.49498-19.86932.49498-30.53393v-56.52732l-.03106-1.96735,18.58624,1.03656-13.86176-58.49749"/><path id="path18" class="cls-3" d="m907.94825,282.35424l.03106,1.96735v56.52732c0,10.66462.17346,21.0345-.49498,30.53394-.70095,9.91717-2.37636,20.52312-6.97812,30.04908-10.11884,20.95891-30.72883,30.23708-61.38153,29.26087l-2.96161,15.17488,24.54895,28.55403s-42.72195,29.00686-99.69212,26.55042c-24.02994-1.03513-48.22068-3.85572-78.65054-12.02272-15.30307-4.10691-55.59369-20.18156-92.67871-26.04964-22.27555-3.52573-37.49683-4.67822-57.61041-5.00935l7.51397,21.03984c-14.52741-6.51273-25.54885-8.01441-54.10302.50079-3.02226.90118-19.51844,10.89055-32.06297,13.02531-21.20726,3.6095-23.72111,2.35293-38.07293-1.50281.7514-13.52611.67863-31.75144-8.01497-49.09521-1.96891-3.92625-3.7566-7.1011-5.71069-9.99939-12.91573,3.90707-24.38916,8.32072-33.59187,12.25699-14.40261,6.15888-29.21293,14.52868-29.21293,14.52868l-14.95013-53.28194,13.91456-4.71193c3.59836-1.22131,4.24568-1.83775,4.27657-1.87414.04358-.18179-.04358-.38501-.04358-1.39929l-.02426-115.38413-18.69567.52886,13.09808-57.66682,246.02015.01551,34.31238,70.76702c12.90276-23.50814,37.39245-70.76138,37.39245-70.76138l258.54734.01692,13.86176,58.49749-18.58624-1.03656Zm10.12587,10.67449l21.39835,1.1931-18.81754-79.42197-272.57269-.01832s-21.19245,41.27923-30.97143,59.16173l-28.47229-59.166-260.2961-.01691-17.77955,78.27963,21.37029-.66848.29362,99.50567-20.65633,6.99815,21.01383,74.89085s25.47339-14.40486,39.42273-20.36884c6.91141-2.95611,15.14738-6.19428,24.33303-9.26167.43071.81374.87085,1.66866,1.32483,2.57378,7.37047,14.70398,7.6129,30.53168,6.88405,43.64302l-.48753,8.77468,8.48601,2.27906c3.72514.99987,6.6845,1.82951,9.36843,2.45698,3.18416.74317,6.04662,1.22685,9.17127,1.44115,6.45378.4374,13.47886-.35974,24.15759-2.17769,7.84404-1.33538,16.24938-4.93988,22.42081-7.8651,3.13084-1.48363,5.94579-2.92198,8.1811-4.05304l2.73738-1.40578c26.86182-8.0106,40.51486-4.6077,49.59853-1.58108l17.16044,6.05706-7.72699-25.06793c12.78994.64182,24.8169,1.91489,40.38369,4.3774,36.64644,5.80208,76.44345,21.75544,91.56318,25.8155,31.33526,8.40941,56.24667,11.31484,80.99023,12.38082,60.53253,2.61069,105.68162-28.03066,106.23727-28.40862l10.03562-6.8134-16.52296-19.21903-12.09748-12.93844.70515-4.58345s16.57093.35257,32.15182-6.05268c9.85514-4.05176,22.1317-14.68678,28.53585-27.94634,5.41833-11.22056,7.21927-23.31494,7.95403-33.72854.68683-9.72128.52184-20.33232.52184-31.24515v-47.82016"/><path id="path20" class="cls-4" d="m406.28316,318.01063l-.04584-48.95263s15.69555.12269,22.92993.12269c12.11257.50488,25.67831,3.64278,25.67831,19.84985,0,26.24835-29.77309,26.52899-48.5624,28.98008Zm431.8162-77.62951l-6.28991,23.17392c10.93399.35963,14.45831,3.13508,14.45831,14.29471,0,27.94917-.47807,56.07036-1.19028,84.00967-.17205,6.75248-1.83479,13.94651-7.48302,18.2534-3.9065,2.9815-10.95514,3.1324-15.76848,3.1324-37.83389-5.8317-35.8327-37.34888-35.8327-37.34888l.73052-71.09279s1.10568-8.98214,1.95044-9.78743c2.80364-2.67532,8.19381-2.58225,11.76182-2.46801l-5.1645-22.16978-72.51016-.00565-53.96197-.00282c-17.32827,32.33376-34.97805,64.48417-52.66733,96.62048l-48.65647-96.62754-53.96622-.00282-6.09386,20.29269c9.31498-.18897,14.46535.86027,14.46535,11.38387,0,29.64573.81374,59.45365.10295,89.08954-.08038,3.30854-.4386,6.81735-2.92353,9.26562-1.48786,1.46826-3.72317,2.35956-6.07131,2.94356-23.32481-.42746-5.20821-40.4686-43.73878-46.06041,17.90506-8.00058,33.40558-21.21361,33.40558-42.37926,0-36.33334-39.16944-44.54123-69.97881-44.54123l-83.90741-.00565-5.93366,26.12424,2.22671-.06204c10.13816,0,12.42876,4.59614,12.42876,14.03946l.02426,116.92431c0,10.48679-5.48039,14.80693-14.75461,17.94864l5.99318,21.35943c15.9968-6.95457,29.43814-12.10763,42.79952-16.62494l-.24398-.24243c6.80903-6.80903,16.07563-13.49635,27.09184-19.35075l2.48071-10.44448c-2.30272.56863-4.68584,1.05772-7.06852,1.05772-6.84711,0-7.47455-5.30664-7.47455-10.88068l-.03088-33.81709c6.63175-1.18606,13.86007-3.06174,20.59026-3.06174,13.34545,0,17.11361,9.62947,19.81305,20.86667.84448,3.51586,3.15327,13.72213,6.48522,22.65493l2.23531-.58781c35.47024-9.05562,76.29114-11.08404,119.274-6.20698l3.4679-11.06233-2.09146.03385c-8.40392,0-12.18775-1.77133-12.18775-10.8127,0-15.68385-.54861-31.40719-.30322-47.09105l35.66063,66.57831,34.82432.50615s22.20786-40.88126,32.88799-63.08911c-.13679,8.54495.92092,49.14866-3.76124,52.88593-3.01519,2.40737-8.17687,2.18595-11.8408,2.00543l4.9219,18.29134c25.23434,1.00976,43.59633,3.07006,64.60123,5.55077l5.47617-17.93158c-9.51947-1.03079-14.32011-2.98262-14.32011-13.31315,0-29.97434.59373-60.20253,1.48928-90.16418.0973-3.22816.36669-6.89068,3.02366-9.12599,2.10697-1.77414,5.10948-2.28325,7.99635-2.40597,7.43929.51899,10.95796,2.81635,10.95796,12.10735,0,24.29651-.99709,48.59019-.99709,72.88809,0,42.98018,46.66653,63.72417,85.57085,68.20297,14.18755-4.65509,24.09626-9.31188,24.09626-9.31188l-2.04351,10.48143c53.1652.67102,50.3502-34.76256,50.3502-74.41996v-56.52728c0-3.75984-.51054-11.96914,2.33263-14.8405,2.97428-3.0011,7.93151-2.93341,11.85347-2.71481l-6.25039-26.38092-62.32218-.00424"/><path id="path22" class="cls-4" d="m446.84667,432.97181l-6.0517,2.44431v-6.72582l5.86427-2.36943c3.84755-1.55414,5.63087-1.65272,5.63087,1.0604,0,2.48677-1.78332,4.11255-5.44344,5.59054Zm9.99304,8.79345l-3.65971-5.47376c4.17588-3.1561,6.33503-7.13735,6.33503-11.77255,0-5.70788-3.37905-8.01779-9.71226-5.45938l-17.12403,6.91861v.79117c.98495-.11578,1.17224.09195,1.17224,1.16504v24.81409c0,1.07478-.18729,1.43286-1.17224,2.11262v.79273l9.33599-3.77253v-.79273c-.98551.11564-1.21976-.07221-1.21976-1.1453v-8.53508l5.06718-2.04591,4.03428,6.00022c.32888.4881.70402.78835.70402,1.29803,0,.45228-.28149.904-.79766,1.28294v.79117l9.89841-3.99958v-.79103c-1.26503.17191-1.92223-.74872-2.86149-2.17876"/><path id="path24" class="cls-4" d="m477.16483,433.83237c-4.55101,1.13528-7.36595-1.55583-7.36595-6.58606,0-5.03065,2.90943-9.2037,7.31942-10.30387,4.45652-1.11117,7.318,1.67965,7.318,6.65375s-2.81494,9.12501-7.27147,10.23618Zm-.04653-23.78499c-8.72688,2.17665-14.4978,10.3971-14.4978,18.93204s5.8654,13.91238,14.4978,11.75887c8.63239-2.15069,14.49639-10.45322,14.49639-18.98661,0-8.53664-5.77092-13.88023-14.49639-11.70429"/><path id="path26" class="cls-4" d="m511.4589,427.82707l-6.80325.83504v-6.66913l6.99081-.85873c3.6597-.44847,5.44231.23679,5.44231,2.72299,0,2.71312-1.78261,3.49767-5.62989,3.96983h.00002Zm-6.80325-16.68671l7.13184-.87536c3.14355-.3867,4.50307.0127,4.50307,2.04605,0,1.75186-1.31299,2.81791-3.94035,3.14072l-7.69456.94532v-5.25673Zm14.26228,6.33094c2.81494-1.87146,4.12934-4.01059,4.12934-7.00633,0-4.63577-3.05046-7.2575-8.91445-6.53628l-17.59339,2.16057v.79103c.98579.16204,1.17335.42041,1.17335,1.49463v24.81393c0,1.07478-.18756,1.37941-1.17335,1.7843v.79117l16.98415-2.08568c6.7553-.82911,10.17949-4.19012,10.17949-9.84228,0-3.16498-1.59505-5.34373-4.78513-6.36507"/><path id="path28" class="cls-4" d="m552.42645,403.83223l-22.28543-.77848v.79174c.98579.31732,1.17335.606,1.17335,1.68079v24.8128c0,1.07422-.18756,1.34965-1.17335,1.59758v.79272l22.23888.77566c.8913.03258,1.12541.26668,1.36093,1.46261l.65579.02101v-9.89023l-.65579-.02426c-.23552,1.17886-.46962,1.45443-1.36093,1.42299l-14.12125-.4936v-5.08692l8.49136.2963c.8913.03088,1.12541.32169,1.35952,1.51776l.70373.0237v-9.26999l-.70373-.0237c-.23411,1.179-.46821,1.39605-1.35952,1.36516l-8.49136-.29743v-4.23807l14.16778.49473c.8913.03131,1.12541.32169,1.36093,1.51606l.6572.02426v-9.89192l-.6572-.02256c-.23552,1.17886-.46962,1.45274-1.36093,1.42129"/><path id="path30" class="cls-4" d="m576.54103,419.09314l-6.05157-.74323v-6.72526l5.86399.72052c3.84728.47217,5.6313,1.31115,5.6313,4.02483,0,2.48789-1.78402,3.17316-5.44372,2.72313Zm9.99332,14.05933l-3.6597-7.40403c4.17587-.95462,6.33504-3.79946,6.33504-8.43467,0-5.709-3.37905-9.79772-9.71268-10.57606l-17.12377-2.10119v.78948c.98438.4032,1.17196.70952,1.17196,1.7843v24.81394c0,1.07323-.18756,1.33273-1.17196,1.49463v.79159l9.33612,1.14643v-.79103c-.98579-.40334-1.21991-.71516-1.21991-1.78994v-8.53494l5.06719.62363,4.03484,8.12568c.32859.66156.70373,1.16067.70373,1.66865,0,.45115-.28206.7569-.79823.86268v.79159l9.89883,1.21539v-.79117c-1.26644-.49473-1.92223-1.76117-2.86149-3.68495"/><path id="path32" class="cls-4" d="m618.78773,413.69595l-21.72131-4.22368c-.8913-.17346-1.12541-.5008-1.36093-1.73311l-.70373-.13722v10.23068l.70373.13666c.23552-1.14093.46962-1.37771,1.36093-1.20594l7.4125,1.44118v19.95295c0,1.07478-.2341,1.31157-1.21989,1.40197v.79273l9.33612,1.8135v-.78991c-.98579-.47485-1.17196-.79385-1.17196-1.86863v-19.95295l7.36454,1.433c.89273.17346,1.12682.50065,1.36092,1.73368l.65718.12833v-10.23181l-.65718-.12721c-.2341,1.14078-.46823,1.37771-1.36092,1.2058"/><path id="path34" class="cls-4" d="m660.03735,425.44551c.65718.4142.98579.8473.98579,1.30015,0,.22522-.09448.70614-.28206,1.16179l-4.36343,9.54485-3.84728-11.89834c-.18617-.62081-.32861-1.0549-.32861-1.33865,0-.45284.32861-.69795.98579-.7349v-.79103l-12.01003-3.44534v.79272c.98438.56412,1.21989.91401,1.21989,1.98879v24.81395c0,1.07309-.23551,1.28915-1.21989,1.28915v.79103l8.06827,2.31429v-.7916c-.98438-.56524-1.21848-.915-1.21848-1.98978v-19.95125l8.16275,24.04547,8.44481-19.28306v19.95294c0,1.07478-.23551,1.28901-1.21989,1.28901v.79287l8.91445,2.55503v-.78948c-.98579-.5668-1.21989-.91669-1.21989-1.99147v-24.81281c0-1.07436.2341-1.28859,1.21989-1.28859v-.79272l-12.29209-3.5246v.79159"/><path id="path36" class="cls-4" d="m691.28236,456.46586c-4.55101-1.21863-7.36595-5.3663-7.36595-10.39484,0-5.03248,2.90941-7.70047,7.3194-6.5171,4.45654,1.19268,7.31799,5.46488,7.31799,10.43883s-2.81494,7.66634-7.27147,6.4731h.00003Zm-.04655-23.80855c-8.72687-2.33812-14.4978,2.89815-14.4978,11.43211,0,8.53508,5.86541,16.94606,14.4978,19.26035,8.63239,2.31274,14.49639-2.95498,14.49639-11.48993,0-8.53621-5.7709-16.86567-14.49639-19.20253"/><path id="path38" class="cls-4" d="m724.56806,453.92734l-6.05296-1.17618v-6.72695l5.864,1.14093c3.84728.74745,5.62987,1.71661,5.62987,4.42973,0,2.4862-1.78259,3.04482-5.44092,2.33248Zm9.99193,14.7745l-3.65829-7.66522c4.17448-.6572,6.3322-3.34662,6.3322-7.98084,0-5.70999-3.37764-10.03944-9.71128-11.27077l-17.12375-3.33012v.79272c.98438.47372,1.17337.79273,1.17337,1.86751v24.81394c0,1.07323-.18899,1.31834-1.17337,1.41029v.79117l9.33612,1.81519v-.79103c-.98438-.47442-1.21989-.80274-1.21989-1.87583v-8.53664l5.06576.98608,4.03627,8.41493c.3272.68413.70373,1.21031.70373,1.71929,0,.45115-.28206.73603-.79821.80485v.79273l9.90024,1.92378v-.79273c-1.26785-.58513-1.92362-1.89783-2.8629-3.8893"/><path id="path40" class="cls-4" d="m757.91017,458.08389l-6.05296-.31732v-6.72596l5.864.30744c3.84869.20054,5.63128.915,5.63128,3.62868,0,2.48789-1.78259,3.29881-5.44233,3.10716Zm9.99334,13.35363l-3.6597-7.14285c4.17448-1.25107,6.33361-4.24639,6.33361-8.88216,0-5.70886-3.37764-9.56023-9.71128-9.89178l-17.12516-.89864v.79287c.98438.33438,1.17337.62631,1.17337,1.70053v24.8145c0,1.07323-.18899,1.3464-1.17337,1.5767v.79103l9.33612.48923v-.79103c-.98438-.33438-1.21989-.62913-1.21989-1.70335v-8.53396l5.06717.26499,4.03486,7.84249c.32861.639.70373,1.11004.70373,1.61915,0,.45172-.28065.77721-.7968.91824v.79273l9.89883.51729v-.78934c-1.26644-.40659-1.92362-1.62903-2.86149-3.48666"/><path id="path42" class="cls-4" d="m777.55836,446.36239c.98438.21324,1.17337.4826,1.17337,1.55738v24.81394c0,1.07493-.18899,1.37066-1.17337,1.72211v.78948l9.33612-.65282v-.78991c-.98438-.21549-1.21989-.48105-1.21989-1.55527v-24.8145c0-1.07309.23551-1.37165,1.21989-1.72323v-.79273l-9.33612.65452v.79103"/><path id="path44" class="cls-4" d="m807.77103,452.7991c-5.25475.68413-7.97662,1.32596-7.97662-.9927,0-1.7513,2.20568-3.65138,6.09951-4.40716,4.59756-.89412,8.8679.02976,8.8679,1.61196,0,.16909-.09589.41307-.14244.76184l.61067.21973,3.00252-8.49588-.61067-.22142c-.3272.74365-.60926.85337-1.12541.95364-1.45402.28206-5.34781-1.39055-11.02424-.28756-7.50839,1.45923-12.05799,6.30104-12.05799,11.61333,0,5.37067,3.79932,7.34353,11.40081,6.20697,4.59756-.6682,7.60005-1.30734,7.60005,1.97004,0,2.09174-2.15916,3.98013-6.09951,4.74591-5.864,1.14093-10.41502-.46272-10.41502-2.49608,0-.16966.04655-.34876.14103-.53605l-.60926-.22142-3.4256,9.70943.60926.22156c.37513-.63858.61067-1.02359.93924-1.08691.51615-.10027,4.50305,1.78106,12.76032.17629,7.92865-1.54201,12.71376-6.93751,12.71376-12.70263,0-5.99261-3.6597-7.7102-11.25837-6.74289"/><path id="path46" class="cls-1" d="m576.35347,412.34517l-5.86399-.72052v6.72526l6.05157.74323c3.6597.45002,5.44372-.23524,5.44372-2.72313,0-2.71368-1.78402-3.55266-5.6313-4.02483"/><path id="path48" class="cls-1" d="m691.23581,439.55393c-4.40998-1.18337-7.3194,1.48462-7.3194,6.5171,0,5.02854,2.81494,9.1762,7.36595,10.39484,4.45654,1.19325,7.27147-1.499,7.27147-6.4731s-2.86149-9.24615-7.31799-10.43884"/><path id="path50" class="cls-1" d="m511.64646,421.13425l-6.99081.85873v6.66913l6.80325-.83504c3.84728-.47217,5.62989-1.25671,5.62989-3.96983,0-2.48621-1.78261-3.17146-5.44231-2.72299"/><path id="path52" class="cls-1" d="m724.37907,447.16513l-5.864-1.14093v6.72695l6.05296,1.17618c3.65829.71234,5.44092.15372,5.44092-2.33248,0-2.71312-1.78259-3.68227-5.62987-4.42973"/><path id="path54" class="cls-1" d="m446.65925,426.32088l-5.86428,2.36943v6.72582l6.0517-2.44432c3.66013-1.47798,5.44345-3.10377,5.44345-5.59054,0-2.71312-1.78332-2.61454-5.63087-1.0604"/><path id="path56" class="cls-1" d="m516.29056,412.31104c0-2.03336-1.35952-2.43275-4.50307-2.04605l-7.13184.87536v5.25672l7.69456-.94532c2.62737-.32282,3.94035-1.38886,3.94035-3.14072"/><path id="path58" class="cls-1" d="m477.1183,416.94244c-4.40998,1.10017-7.31942,5.27322-7.31942,10.30387,0,5.03022,2.81494,7.72135,7.36595,6.58606,4.45652-1.11117,7.27147-5.26222,7.27147-10.23617s-2.86149-7.76493-7.318-6.65375"/><path id="path60" class="cls-1" d="m806.3156,472.24463c-8.25726,1.60477-12.24416-.27656-12.76032-.17629-.32861.06332-.56412.44833-.93924,1.08691l-.60926-.22156,3.4256-9.70944.60926.22142c-.09448.18729-.14103.36639-.14103.53605,0,2.03336,4.55101,3.637,10.41502,2.49608,3.94035-.76579,6.09951-2.65417,6.09951-4.74591,0-3.27738-3.00252-2.63823-7.60005-1.97004-7.60146,1.13655-11.40081-.8363-11.40081-6.20697,0-5.31229,4.5496-10.1541,12.05799-11.61333,5.67642-1.10299,9.57025.56962,11.02424.28756.51615-.10027.79821-.20999,1.12541-.95364l.61067.22142-3.00252,8.49588-.61067-.21973c.04655-.34876.14244-.59275.14244-.76184,0-1.58221-4.27037-2.50609-8.8679-1.61196-3.89383.75578-6.09951,2.65586-6.09951,4.40716,0,2.31866,2.72187,1.67684,7.97662.9927,7.59863-.96732,11.25837.75028,11.25837,6.74289,0,5.76513-4.78511,11.16062-12.71376,12.70264h-.00007Zm-19.42112-26.53506c-.98438.35159-1.21989.65014-1.21989,1.72323v24.8145c0,1.07422.23551,1.33978,1.21989,1.55527v.78991l-9.33612.65282v-.78948c.98438-.35145,1.17337-.64718,1.17337-1.72211v-24.81394c0-1.07478-.18899-1.34415-1.17337-1.55738v-.79103l9.33612-.65452v.79272Zm-16.12952,30.00395l-9.89883-.51729v-.79273c.51615-.14103.7968-.46653.7968-.91824,0-.50911-.37513-.98015-.70373-1.61915l-4.03486-7.84249-5.06717-.26499v8.53396c0,1.07422.23551,1.36897,1.21989,1.70335v.79103l-9.33612-.48923v-.79103c.98438-.2303,1.17337-.50348,1.17337-1.5767v-24.8145c0-1.07422-.18899-1.36615-1.17337-1.70053v-.79287l17.12516.89864c6.33361.33156,9.71128,4.18293,9.71128,9.89179,0,4.63577-2.15916,7.63109-6.33361,8.88216l3.6597,7.14285c.93783,1.85764,1.59505,3.08008,2.86149,3.48666v.78934Zm-33.3421-2.32966l-9.90024-1.92378v-.79273c.51615-.06882.79821-.3537.79821-.80485,0-.50898-.37654-1.03515-.70373-1.71929l-4.03627-8.41493-5.06576-.98608v8.53664c0,1.07309.23551,1.40141,1.21989,1.87583v.79103l-9.33612-1.81519v-.79117c.98438-.09195,1.17337-.33706,1.17337-1.41029v-24.81394c0-1.07478-.18899-1.39379-1.17337-1.86751v-.79272l17.12375,3.33012c6.33361,1.23132,9.71128,5.56078,9.71128,11.27077,0,4.63422-2.15775,7.32364-6.3322,7.98084l3.65829,7.66522c.93924,1.99147,1.59505,3.30417,2.8629,3.8893v.79272Zm-46.18705-10.03409c-8.63239-2.31429-14.4978-10.72527-14.4978-19.26035,0-8.53396,5.7709-13.77023,14.4978-11.43211,8.72549,2.33685,14.49639,10.66632,14.49639,19.20253,0,8.53495-5.864,13.80266-14.49639,11.48993Zm-18.90638-34.37853c-.98579,0-1.21989.21422-1.21989,1.28859v24.81281c0,1.07478.2341,1.42468,1.21989,1.99147v.78948l-8.91445-2.55503v-.79287c.98438,0,1.21989-.21423,1.21989-1.28901v-19.95295l-8.44481,19.28306-8.16275-24.04547v19.95126c0,1.07478.2341,1.42454,1.21848,1.98978v.7916l-8.06827-2.31429v-.79103c.98438,0,1.21989-.21606,1.21989-1.28915v-24.81394c0-1.07478-.23551-1.42468-1.21989-1.98879v-.79272l12.01003,3.44534v.79103c-.65718.03695-.98579.28206-.98579.7349,0,.28375.14244.71784.32861,1.33865l3.84728,11.89834,4.36343-9.54485c.18758-.45567.28206-.93657.28206-1.16179,0-.45284-.32861-.88594-.98579-1.30015v-.79159l12.29209,3.5246v.79271Zm-51.5236-6.12207l-.65718-.12833c-.2341-1.23302-.46823-1.5602-1.36092-1.73368l-7.36454-1.433v19.95295c0,1.07478.18617,1.39379,1.17196,1.86864v.78991l-9.33612-1.8135v-.79272c.98579-.0904,1.21989-.32719,1.21989-1.40197v-19.95295l-7.4125-1.44118c-.8913-.17178-1.12541.06501-1.36093,1.20594l-.70373-.13666v-10.23068l.70373.13722c.23552,1.23231.46962,1.55964,1.36093,1.73311l21.72131,4.22368c.89273.17191,1.12682-.06501,1.36092-1.2058l.65718.12721v10.2318Zm-31.41001,14.77943l-9.89883-1.21539v-.79159c.51617-.10577.79823-.41153.79823-.86268,0-.50799-.37514-1.00709-.70373-1.66865l-4.03484-8.12568-5.06719-.62363v8.53494c0,1.07478.23411,1.38659,1.21991,1.78994v.79103l-9.33612-1.14643v-.79159c.98438-.1619,1.17196-.42139,1.17196-1.49463v-24.81394c0-1.07478-.18756-1.3811-1.17196-1.7843v-.78948l17.12377,2.10119c6.33362.77834,9.71268,4.86706,9.71268,10.57606,0,4.63521-2.15916,7.48005-6.33504,8.43467l3.6597,7.40403c.93926,1.92378,1.59505,3.19022,2.86149,3.68495l-.00002.79116Zm-34.95125-25.30317l-.6572-.02426c-.23552-1.19438-.46962-1.48476-1.36093-1.51606l-14.16778-.49473v4.23807l8.49136.29743c.8913.03088,1.12541-.18616,1.35952-1.36516l.70373.0237v9.26998l-.70373-.0237c-.23411-1.19607-.46821-1.48687-1.35952-1.51776l-8.49136-.2963v5.08692l14.12125.4936c.8913.03145,1.12541-.24412,1.36093-1.42299l.65579.02426v9.89025l-.65579-.02101c-.23552-1.19592-.46962-1.43004-1.36093-1.46261l-22.23888-.77566v-.79272c.98579-.24793,1.17335-.52336,1.17335-1.59758v-24.81282c0-1.07478-.18756-1.36347-1.17335-1.68079v-.79174l22.28543.77848c.8913.03145,1.12541-.24243,1.36093-1.42129l.6572.02256-.00002,9.89193Zm-40.92101,21.35323l-16.98415,2.08568v-.79117c.98579-.40489,1.17335-.70952,1.17335-1.7843v-24.81394c0-1.07422-.18756-1.33258-1.17335-1.49463v-.79103l17.59339-2.16057c5.86399-.72123,8.91445,1.90051,8.91445,6.53628,0,2.99574-1.31438,5.13487-4.12934,7.00633,3.19008,1.02133,4.78513,3.20009,4.78513,6.36507,0,5.65217-3.42419,9.01317-10.17949,9.84228h.00002Zm-36.40527,7.05964c-8.63239,2.15351-14.4978-3.22379-14.4978-11.75887s5.77092-16.75539,14.4978-18.93204c8.72547-2.17594,14.49639,3.16766,14.49639,11.70429,0,8.53339-5.86399,16.83592-14.49639,18.98662Zm-17.4171,3.99677l-9.89841,3.99959v-.79117c.51616-.37895.79766-.83066.79766-1.28294,0-.50968-.37513-.80993-.70402-1.29803l-4.03428-6.00022-5.06718,2.04591v8.53508c0,1.07309.23425,1.26094,1.21976,1.1453v.79273l-9.33599,3.77253v-.79273c.98495-.67976,1.17224-1.03783,1.17224-2.11262v-24.81408c0-1.07309-.18729-1.28082-1.17224-1.16504v-.79117l17.12404-6.91861c6.33319-2.55841,9.71225-.2485,9.71225,5.45938,0,4.63521-2.15916,8.61646-6.33503,11.77255l3.65971,5.47376c.93926,1.43004,1.59644,2.35067,2.86149,2.17876v.79103Zm364.38125,6.79097l5.73423-29.90819-3.40302,1.32822c-15.27629,5.9558-32.57632,10.70115-40.02973,11.39093-31.49746,2.91973-62.52811-3.01337-90.40675-10.85924-28.00417-7.88057-52.68004-17.62709-71.24228-22.15427-26.72079-6.51654-50.39535-10.02957-71.19294-11.50656-43.42006-3.08389-74.29699,2.69944-94.16798,8.52507l-.34693.10197c-23.56357,6.92424-36.20782,12.59954-48.00181,22.85504l-1.51564,1.31877,1.31016,1.52156c1.46417,1.70222,2.5869,2.91818,3.53772,4.00113.88538,1.00709,1.61309,1.88852,2.33756,2.97162,1.43004,2.14181,2.9114,5.16124,5.81858,12.03374,5.37829,12.71237,5.55457,16.91899,5.35135,28.2339l-.06445,3.63319,3.11857-1.86426c15.21522-9.09257,23.31578-13.27,41.14611-18.84178,31.63002-9.88473,75.342-8.43467,115.42109-4.42691,13.51483,1.35134,26.69965,4.29857,40.00714,7.98521,13.402,3.71189,26.9281,8.17081,41.03525,12.52184,28.30172,8.72674,59.09404,17.07553,95.94355,18.07599,23.77612.64563,41.2595-2.96768,53.36542-7.05865,6.06284-2.04774,10.7563-4.20831,14.20022-5.9998,3.3847-1.75962,5.53822-3.1544,6.58182-3.71033l2.25364-1.20693-16.79094-18.96123"/><path id="path62" class="cls-1" d="m757.72118,451.34805l-5.864-.30744v6.72596l6.05296.31732c3.6597.19166,5.44233-.61926,5.44233-3.10716,0-2.71368-1.78259-3.42814-5.63128-3.62868"/><path id="path64" class="cls-2" d="m849.10666,442.79872h.98438c1.14937,0,2.08018-.38177,2.08018-1.31284,0-.8191-.60079-1.36784-1.91519-1.36784-.54718,0-.93222.05613-1.14937.11127v2.56941Zm-.05357,5.08861h-2.08018v-8.97242c.8208-.16473,1.96876-.27388,3.44816-.27388,1.69235,0,2.45813.27388,3.11817.65719.48937.38233.87296,1.09298.87296,1.96891,0,.98452-.76578,1.75186-1.85875,2.08018v.10859c.87437.32888,1.36798.98439,1.64156,2.18764.275,1.36784.43579,1.91489.65718,2.24377h-2.24376c-.27218-.32888-.4372-1.1508-.7122-2.18764-.16217-.98439-.70938-1.42411-1.85875-1.42411h-.98438v3.61176Zm-5.52834-4.70473c0,3.99408,2.95879,7.16724,7.0035,7.16724,3.94176,0,6.84274-3.17316,6.84274-7.11379,0-3.99225-2.90098-7.22055-6.89631-7.22055-3.99113,0-6.94992,3.2283-6.94992,7.1671Zm16.13937,0c0,5.08706-3.99254,9.08044-9.18945,9.08044-5.14192,0-9.24306-3.99338-9.24306-9.08044,0-4.97735,4.10114-8.97241,9.24306-8.97241,5.19694,0,9.18945,3.99507,9.18945,8.97242"/></g></g></svg>