<svg id="LOGO" xmlns="http://www.w3.org/2000/svg" viewBox="0 0 1250 703"><defs><style>.cls-1{fill:#00263e;}.cls-2{fill:#df1995;}</style></defs><g id="group"><path id="Path" class="cls-1" d="M594.13313,277.43336c0,20.99255-14.47762,35.18062-36.04928,35.18062-20.41345,0-33.87764-13.89852-33.87764-34.7463v-82.812H492.35544v92.36722c0,33.87764,22.15077,56.02841,55.4493,56.02841,19.68956,0,35.47017-7.9627,46.32839-22.72988v19.4H625.9839V195.05569H594.13313Z"/><path id="Path-1" class="cls-1" d="M679.11677,259.77066c0-22.44031,15.34628-37.497,38.36569-37.497,21.86122,0,36.04927,14.76717,36.04927,36.91794v80.78512H785.3825v-91.209c0-34.45674-23.01941-57.18661-57.33137-57.18661-20.703,0-37.497,8.25225-48.93436,23.59852V195.05569H647.266v144.921h31.85077Z"/><g id="group-1"><path id="Path-2" class="cls-1" d="M422.139,215.17958V195.05569H390.28821v144.921H422.139v-80.206c0-22.44031,15.34628-37.497,38.3657-37.497a41.40119,41.40119,0,0,1,10.56866,1.44776V191.58106C450.22557,191.58106,433.43152,199.83331,422.139,215.17958Z"/></g><path id="Path-3" class="cls-2" d="M785.093,361.25878H678.972v30.11346h74.2702v21.86122H714.00784c-29.82391,0-52.26422,20.703-52.26422,48.0657,0,27.50748,22.44031,48.35525,52.26422,48.35525,18.24179,0,33.58808-7.67315,42.99853-19.83434v16.50448h42.41944V477.36931H785.23772V361.25878Zm-31.85079,97.86874c0,14.18807-13.60895,23.30895-33.87762,23.30895-14.18808,0-25.04629-9.12088-25.04629-21.2821,0-11.87164,10.85821-20.99255,25.04629-20.99255h33.87762Z"/><path id="Path-4" class="cls-2" d="M836.63327,287.71247a22.49474,22.49474,0,0,0-22.72984,22.72986c0,12.74032,9.98955,22.44032,22.72984,22.44032,13.02986,0,22.72989-9.7,22.72989-22.44032A22.23189,22.23189,0,0,0,836.63327,287.71247Z"/><path id="Path-5" class="cls-1" d="M836.63327,247.31991c13.02986,0,22.72989-9.7,22.72989-22.72987,0-12.74031-9.7-22.44031-22.72989-22.44031-12.74029,0-22.72984,9.7-22.72984,22.44031A22.318,22.318,0,0,0,836.63327,247.31991Z"/><path id="Path-6" class="cls-2" d="M820.70789,361.25878h31.85077v144.921H820.70789Z"/></g></svg>