<?xml version="1.0" encoding="UTF-8"?><svg id="LOGOS" xmlns="http://www.w3.org/2000/svg" viewBox="0 0 1250 703"><defs><style>.cls-1{fill:#2360a5;fill-rule:evenodd;}</style></defs><g id="Layer_4"><path class="cls-1" d="m698.06354,250.61382c-9.3435-.91344-18.71129-1.55821-28.09184-1.93358h-51.00777c-90.2705,3.36898-195.02173,23.58296-273.67803,55.34777l-6.17227,2.65128c1.89558-.09711,3.18745-.01266,3.18745-.01266,17.18272.47284,16.13571,11.1582,16.13571,11.1582l.02533,6.52689h-13.69973v-4.42868c0-3.14103-3.82073-3.3521-3.82073-3.3521-2.93415,0-3.60964,1.98847-3.60964,1.98847-1.62961,3.03548,1.15255,5.65297,1.15255,5.65297,1.41008,1.57474,8.53647,4.87617,8.53647,4.87617,2.3051.89079,6.02029,3.19592,6.02029,3.19592,6.96596,4.18379,6.34114,12.14611,6.34114,12.14611v5.23502c-.84436,12.99049-18.75322,12.62739-18.75322,12.62739-18.749,0-18.34371-12.30654-18.34371-12.30654v-6.42981h14.59476v4.42868c0,3.77006,3.64342,3.94315,3.64342,3.94315,3.98116.152,4.31467-3.69829,4.31467-3.69829.54461-3.74474-3.58431-6.09628-3.58431-6.09628-4.0867-2.09824-10.89224-5.76275-10.89224-5.76275-3.35211-2.19957-4.71575-4.19223-4.71575-4.19223-2.41064-3.03548-2.25444-7.747-2.25444-7.747v-4.09093c0-5.65719,1.51985-7.27838,1.51985-7.27838l.07177-.10977c-101.01074,47.23346-89.48945,96.33721,4.63553,105.44362,102.88945,9.94235,258.2685-9.84524,362.6651-56.50877-.32931.01688-.62484.0802-.97103.0802,0,0-17.67243,1.43118-18.09039-12.81317v-27.55146s-2.19532-15.18581,17.59645-15.18581c0,0,12.89759-.41795,16.29192,7.22771,0,0,1.68029,2.04757,1.23698,10.50383h-13.72928v-4.33157s-.02532-3.49988-3.58008-3.49988c0,0-3.72786.15622-3.72786,3.09037v28.49292s-.15622,3.82494,4.03182,3.82494c0,0,3.43656-.0802,3.43656-4.09937v-8.24096h-3.7363v-7.67523h17.63024v16.18637s-.05067,3.40277-1.46074,5.39546c0,0-1.03857,1.55786-1.68873,2.2629l5.74587-2.87926c92.48695-47.4108,80.91076-92.7149-13.20578-102.06194l-.00003.0001Zm-298.8484,109.81741l-5.33635-40.33928h-1.19899l-5.33635,40.33928h-14.58208l9.01353-52.02099h23.0088l9.00931,52.02099h-14.57786Zm73.68303.0591l-.3293-39.19094h-.94568l-7.0884,39.18672h-14.24857l-7.18128-39.20363h-1.06389l-.16466,39.20785h-13.54353l1.14411-52.03365h22.8737l4.38222,28.47604h1.07234l4.58487-28.73777h22.64995l1.46496,52.29541h-13.60685v-.00003Zm65.93606-16.06394v5.23502c-.84013,12.99049-18.74901,12.62739-18.74901,12.62739-18.75323,0-18.3395-12.30654-18.3395-12.30654v-6.42981h14.59054v4.42868c0,3.77006,3.64341,3.94315,3.64341,3.94315,3.98538.152,4.31891-3.69829,4.31891-3.69829.5446-3.74474-3.5843-6.09628-3.5843-6.09628-4.08249-2.09824-10.89647-5.76275-10.89647-5.76275-3.34788-2.19957-4.71152-4.19223-4.71152-4.19223-2.40642-3.03548-2.25443-7.747-2.25443-7.747v-4.09093c0-5.65719,1.52407-7.27838,1.52407-7.27838,3.87139-7.27838,17.38538-6.3918,17.38538-6.3918,17.18272.47284,16.13571,11.1582,16.13571,11.1582l.0211,6.52689h-13.69553v-4.42868c0-3.14103-3.82072-3.3521-3.82072-3.3521-2.93415,0-3.61387,1.98847-3.61387,1.98847-1.6254,3.03548,1.14834,5.65297,1.14834,5.65297,1.41852,1.57474,8.53649,4.87617,8.53649,4.87617,2.30087.89079,6.02451,3.19592,6.02451,3.19592,6.96597,4.17957,6.33692,12.14189,6.33692,12.14189l-.00003.00003Zm53.60838,3.51254c0,14.30767-18.11574,14.08813-18.11574,14.08813-20.84725,0-19.31896-14.76785-19.31896-14.76785v-39.02631h14.87762l.04645,39.3345c0,4.41599,4.17957,4.18801,4.17957,4.18801,3.98116,0,3.78275-4.29356,3.78275-4.29356v-39.22895h14.54409v39.706h.00422v.00003Zm62.52904,12.55984h-16.16949l-14.42588-31.8197h-.60371l.80215,31.8197h-13.56041v-52.2912h16.66343l13.93617,31.8197h.59527l-.97947-31.82392h13.74616v52.29541h-.00422Zm42.12509,50.64044v6.42559h-14.88184v9.81567h13.57306v6.42559h-13.57306v13.08757h14.88184v6.42559h-23.08058v-42.17997h23.08058v-.00003Zm13.13401,35.75441h14.88606v6.42559h-23.07211v-42.17997h8.18608v35.75441l-.00003-.00003Zm42.13778-35.75441v6.42559h-14.89028v9.81567h13.56885v6.42559h-13.56885v13.08757h14.89028v6.42559h-23.08058v-42.17997h23.08058v-.00003Zm23.66316,13.72931v-.93724c0-5.31525-1.36788-7.12641-4.83816-7.12641-3.46191,0-4.96481,1.81537-4.96481,7.12641v16.65077c0,5.49257,1.4354,7.29947,4.90574,7.29947,3.28881,0,4.8973-1.86604,4.8973-7.29947v-2.27977h8.19449v1.81115c0,7.65413-2.81172,14.1979-13.0369,14.1979-10.76135,0-13.32399-6.6029-13.32399-14.08391v-15.36312c0-9.87477,4.54264-14.48921,13.45064-14.48921,8.36758,0,12.9145,4.61443,12.9145,12.38675v2.10246h-8.19874v.00422h-.00006Zm29.27397,28.45069h-8.19449v-35.75441h-10.16186v-6.42559h28.51401v6.42559h-10.15767v35.75441Zm23.07211-35.93173h5.31944c3.64344,0,5.97807,1.22854,5.97807,5.84298,0,4.79175-2.87079,6.19339-5.79653,6.19339h-5.50098v-12.03637Zm0,18.05241h5.97807c3.77009,0,4.8973,2.92571,4.8973,6.1385v4.84664c0,2.68929.36307,5.60656,1.98,6.89421h8.18605v-1.28765c-1.91249,0-1.97156-3.21279-1.97156-7.07152v-5.37014c0-3.0397-1.19479-6.59869-5.91893-7.53592,3.82497-.52772,6.51423-3.74052,6.51423-9.98876,0-6.07518-4.1796-10.926-10.81623-10.926h-17.03497v42.17997h8.18605v-17.87932Zm39.75245-18.63502c3.52942,0,5.50098,2.68929,5.50098,7.18973v17.11939c0,4.43712-1.97156,6.77175-5.50098,6.77175-3.88405,0-5.68251-2.39377-5.68251-6.77175v-17.2376c0-4.50044,1.79846-7.07152,5.68251-7.07152Zm-14.05016,8.00454v15.30402c0,10.63892,5.86411,14.1979,14.05016,14.1979,8.3127,0,13.86862-3.445,13.86862-14.1979v-15.30402c0-10.75291-5.55586-14.4301-13.86862-14.4301-8.1903,0-14.05016,3.79962-14.05016,14.4301Zm43.10877-13.67021l11.95613,30.67136h.05914c-.89923-4.73264-1.01325-10.92178-1.01325-15.71353v-14.95783h7.64988v42.17997h-8.84886l-11.95613-30.61225h-.06758c.89923,4.08671,1.01325,11.3904,1.01325,15.65865v14.95361h-7.64988v-42.17997h8.85736-.00006Zm25.28015,0h8.19449v42.18419h-8.19449v-42.18419Zm32.70206,13.72931v-.93724c0-5.31525-1.37632-7.12641-4.83816-7.12641-3.47034,0-4.96481,1.81537-4.96481,7.12641v16.65077c0,5.49257,1.4354,7.29947,4.90574,7.29947,3.28031,0,4.8973-1.86604,4.8973-7.29947v-2.27977h8.19449v1.81115c0,7.65413-2.81172,14.1979-13.0369,14.1979-10.76135,0-13.33246-6.6029-13.33246-14.08391v-15.36312c0-9.87477,4.54267-14.48921,13.45067-14.48921,8.36758,0,12.92294,4.61443,12.92294,12.38675v2.10246h-8.19874v.00422h-.00006Zm31.87034-.41377v-.46018c0-5.14216-1.92093-7.18973-5.14635-7.18973-2.33463,0-4.36114,1.22854-4.36114,3.5632,0,2.51619,1.01325,3.68141,2.74414,4.79597l8.36758,5.42925c4.54267,2.98481,7.35439,5.55167,7.35439,11.86324,0,7.42193-4.66088,11.86324-13.26913,11.86324-9.15285,0-13.80948-5.19705-13.80948-13.84327v-1.64228h7.82723v1.64228c0,5.89787,2.87079,7.41771,5.98651,7.41771,3.10721,0,4.83816-2.10246,4.83816-4.73264,0-2.74418-1.4354-4.38223-4.48353-6.30738l-7.29951-4.66932c-4.30625-2.74839-6.45516-6.31582-6.45516-10.8669,0-6.95331,5.26037-10.926,12.74141-10.926,8.18605,0,12.78786,4.31891,12.78786,12.79204v1.28343h-7.82298v-.01266Z"/></g></svg>