<svg id="LOGOS" xmlns="http://www.w3.org/2000/svg" viewBox="0 0 1250 703"><defs><style>.cls-1{fill:none;}.cls-2{fill:#099;fill-rule:evenodd;}</style></defs><g id="Layer_4" data-name="Layer 4"><g id="BoundingBox"><polygon class="cls-1" points="156 425.854 1094 425.854 1094 276.712 156 276.712 156 276.712 156 425.854"/></g><g id="SIEMENS"><path class="cls-2" d="M158.89467,420.19836V391.98613q24.08643,7.58092,42.62647,7.58091,25.59755,0,25.599-13.526a11.04473,11.04473,0,0,0-3.73136-8.472q-3.8186-3.63851-19.54323-10.09663-28.1991-11.59509-36.76022-19.77492Q155.99953,336.90162,156,320.45613q0-21.1866,16.14486-32.28784,15.96242-10.99992,41.59279-10.99617,14.12769,0,40.88086,5.205v27.13916q-19.9006-7.94955-36.96-7.94392-24.033,0-24.0325,13.21736,0,4.9442,4.84477,8.06867,4.03107,2.5298,22.19777,10.69883,26.14629,11.612,34.81669,20.1942,10.29081,10.18388,10.29736,26.3428,0,23.2169-20.18669,35.41981-16.35075,9.89544-42.39573,9.88183a194.44892,194.44892,0,0,1-44.30549-5.19746Z"/><polygon class="cls-2" points="288.317 279.655 288.317 279.655 328.22 279.655 328.22 422.51 288.317 422.51 288.317 279.655"/><polygon class="cls-2" points="364.814 422.51 364.814 279.655 467.154 279.655 467.154 305.493 403.272 305.493 403.272 337.75 458.878 337.75 458.878 361.318 403.272 361.318 403.272 395.218 468.801 395.218 468.801 422.51 364.814 422.51"/><polygon class="cls-2" points="494.85 422.51 494.85 279.655 546.585 279.655 582.528 370.933 619.373 279.655 668.514 279.655 668.514 422.51 630.681 422.51 630.681 321.365 588.786 423.96 564.052 423.96 522.963 321.365 522.963 422.51 494.85 422.51"/><polygon class="cls-2" points="705.116 422.51 705.116 279.655 807.454 279.655 807.454 305.493 743.577 305.493 743.577 337.75 799.182 337.75 799.182 361.318 743.577 361.318 743.577 395.218 809.111 395.218 809.111 422.51 705.116 422.51"/><polygon class="cls-2" points="835.366 422.51 835.366 279.655 881.613 279.655 930.678 375.285 930.678 279.655 958.784 279.655 958.784 422.51 913.851 422.51 863.484 325.593 863.484 422.51 835.366 422.51"/><path class="cls-2" d="M987.11208,420.19836V391.98613q23.88241,7.58092,42.634,7.58091,25.60038,0,25.5905-13.526a11.229,11.229,0,0,0-3.615-8.472q-3.83834-3.63851-19.64642-10.09663-28.11467-11.49941-36.76864-19.77492-11.08012-10.70023-11.075-27.339,0-21.09514,16.143-32.19122,15.9385-10.99992,41.59467-10.99617,14.41753,0,37.34178,4.59245l3.5278.61251v27.13915q-19.90341-7.94955-37.0585-7.94392-23.9415,0-23.9218,13.21736,0,4.9442,4.82786,8.06868,3.84108,2.4327,22.30377,10.69883,25.94793,11.612,34.7107,20.1942Q1094.00707,363.9343,1094,380.09323q0,23.21691-20.07883,35.41981-16.44646,9.89544-42.49237,9.88184a194.31373,194.31373,0,0,1-44.31672-5.19652Z"/></g></g></svg>