<?xml version="1.0" encoding="UTF-8"?>
<svg id="LOGO" xmlns="http://www.w3.org/2000/svg" xmlns:xlink="http://www.w3.org/1999/xlink" version="1.1" viewBox="0 0 1250 703">
  <defs>
    <style>
      .cls-1 {
        fill: #5b6666;
      }

      .cls-1, .cls-2, .cls-3 {
        stroke-width: 0px;
      }

      .cls-2 {
        fill: url(#linear-gradient);
      }

      .cls-3 {
        fill: url(#linear-gradient-2);
      }
    </style>
    <linearGradient id="linear-gradient" x1="202" y1="637.6" x2="300.2" y2="709.6" gradientTransform="translate(0 -372)" gradientUnits="userSpaceOnUse">
      <stop offset="0" stop-color="#c3decf"/>
      <stop offset=".2" stop-color="#bdd8ca"/>
      <stop offset=".5" stop-color="#adcabe"/>
      <stop offset=".8" stop-color="#92b3ab"/>
      <stop offset="1" stop-color="#7da09b"/>
    </linearGradient>
    <linearGradient id="linear-gradient-2" x1="208.9" y1="720.8" x2="319.4" y2="807.3" gradientTransform="translate(0 -372)" gradientUnits="userSpaceOnUse">
      <stop offset="0" stop-color="#bcddd1"/>
      <stop offset=".4" stop-color="#92b3ab"/>
      <stop offset=".8" stop-color="#749690"/>
      <stop offset=".9" stop-color="#698b86"/>
    </linearGradient>
  </defs>
  <path class="cls-1" d="M832.6,308.9h-61.9v87.2h61.8c17.1,0,30.9-13.9,30.9-30.9v-25.4c0-17.1-13.9-30.9-30.9-30.9h0ZM847.7,362c0,9.9-8,18-18,18h-43v-55.2h43c9.9,0,18,8,18,18v19.3Z"/>
  <path class="cls-1" d="M490.9,352c-4.9-5.2-10.5-7.6-17.4-7.6h-43.2c-2,0-3.8-.7-5.3-2.1-1.5-1.4-2.2-3.2-2.2-5.3v-4.9c0-2.1.7-3.8,2.2-5.3s3.2-2.1,5.3-2.1h64.2v-15.9h-64.2c-6.8,0-13.1,2.8-17.5,7.6-4.4,4.8-6.5,10.8-6.5,18.2h0c0,4.9.9,12,6.5,18.1,4.8,5.2,10.9,7.5,17.5,7.6h43.2c2,0,3.8.7,5.3,2.2,1.5,1.5,2.2,3.2,2.2,5.2v4.8c0,2-.7,3.7-2.2,5.2-1.5,1.4-3.2,2.2-5.3,2.2h-64.2v16h64.2c7.2,0,13.4-3.2,17.4-7.6,5.5-6,6.5-12.7,6.5-18.2v.2c0-5.6-1.2-12.7-6.5-18.2h0Z"/>
  <path class="cls-1" d="M623.7,308.9v87.2h15.9v-87.2h-15.9Z"/>
  <path class="cls-1" d="M751,379.9v16.2h-68.8c-13,0-23.5-10.3-23.9-23.2,0-.3,0-.6,0-.9v-63.1h15.9v63.1c0,4.4,3.6,7.9,7.9,7.9h69,0s0,0,0,0Z"/>
  <path class="cls-1" d="M1014.4,308.9v87.2h-15.9v-71.2h-8.8c-1.2,0-2.2.5-3,1.3,0,0-.2.2-.3.3-.3.3-1.3,1.8-1.5,2.1l-6.9,10.7-36.7,56.9h-18.7l49.9-77.7c.5-.8,1-1.5,1.5-2.2,2.8-4.2,7.5-7,12.8-7.4.4,0,.7,0,1.1,0s.7,0,1.1,0c.4,0,.8,0,1.1,0h24.3,0s0,0,0,0Z"/>
  <path class="cls-1" d="M1034.2,308.9v87.2h15.9v-87.2h-15.9Z"/>
  <path class="cls-1" d="M530.4,308.9h-15.9v87.2h15.9v-87.2Z"/>
  <path class="cls-1" d="M606.6,395.8h-18.2s-19.1-29.9-19.2-30.1c-1.6-2.4-4-4.2-6.8-5.1-1.3-.4-2.8-.7-4.3-.7s-.6,0-.9,0c-.5,0-1.1,0-1.7,0h-16.2v-14.9h16.2c1.5,0,2.8,0,4-.2,0,0,1.3-.2,1.3-.2,3.3-.7,6.1-2.5,8-5.1.3-.4,19.4-30.4,19.4-30.4h18.2l-25.9,40.7c-1,1.6-1,3.7,0,5.3l26,40.7h0Z"/>
  <path class="cls-2" d="M309.2,350.4h-17.7c-13.7,0-24.5-10.7-24.5-24s.1-18.9.1-20.3c0-2.6-2.2-4.8-4.8-4.8s-4.8,1.6-4.8,4.8c0,0-.3,20.9-.4,37.7,0,2.7-3.3,4.2-5.3,2.2-11.2-10.9-30.3-29.5-38.5-37.5-5.3-5.1-7.9-12.4-7.9-19.7,0-6.3.1-14.5.2-22.4,0-7.2,5.9-13,13.1-13h18.7c6.8,0,13.4,2.7,18.2,7.6l1.3,1.3c16.5,16.7,43.3,44.1,62.8,64,8.9,9.1,2.4,24.1-10.3,24.1h0s0,0,0,0Z"/>
  <path class="cls-3" d="M215.2,350.4h17.7c13.7,0,24.5,10.7,24.5,24s-.1,18.9-.1,20.3c0,2.6,2.2,4.8,4.8,4.8s4.8-1.6,4.8-4.8c0,0,.3-20.9.4-37.7,0-2.7,3.3-4.2,5.3-2.2,11.2,10.9,30.3,29.5,38.5,37.5,5.3,5.1,7.9,12.4,7.9,19.7,0,6.3-.1,14.5-.2,22.4,0,7.2-5.9,13-13.1,13h-18.7c-6.8,0-13.4-2.7-18.2-7.6l-1.3-1.3c-16.5-16.7-43.3-44.1-62.8-64-8.9-9.1-2.4-24.1,10.3-24.1h0s0,0,0,0Z"/>
</svg>