<?xml version="1.0" encoding="UTF-8"?>
<svg id="EXAMPLES_TURN_OFF_" data-name="EXAMPLES (TURN OFF)" xmlns="http://www.w3.org/2000/svg" xmlns:xlink="http://www.w3.org/1999/xlink" viewBox="0 0 1250 703">
  <defs>
    <style>
      .cls-1 {
        fill: none;
      }

      .cls-2 {
        fill: #372f8a;
      }

      .cls-3 {
        fill: #39a4dd;
      }

      .cls-4 {
        fill: #0e2e65;
      }

      .cls-5 {
        fill: #195d7f;
      }

      .cls-6 {
        clip-path: url(#clippath);
      }
    </style>
    <clipPath id="clippath">
      <rect class="cls-1" x="145" y="246.95" width="960" height="209.1"/>
    </clipPath>
  </defs>
  <g class="cls-6">
    <g>
      <path class="cls-2" d="M242.45,370.17l-23.32,3.42,58.08,58.13-9.34-36.12-25.42-25.42Z"/>
      <path class="cls-2" d="M329.59,246.95l-184.59,52.43,58.08,58.13,5.48-25.03-24.99-25.03,119.06-33.53s23.58-23.54,26.96-26.96h0Z"/>
      <path class="cls-2" d="M302.59,273.87l-34.72,121.73,9.34,36.12,52.38-184.77c-3.38,3.42-27,26.92-27,26.92h0Z"/>
      <path class="cls-5" d="M227.32,349.31l-8.2,24.24,23.32-3.42,20.95-56.81-.18.04-35.9,35.95Z"/>
      <path class="cls-3" d="M208.56,332.43l-5.48,25.07,24.24-8.2,35.9-35.95-54.66,19.07Z"/>
      <path class="cls-4" d="M469.43,374.08c0-5.65-2.02-10.04-6.01-13.06-3.99-3.02-11.22-6.22-21.61-9.6-10.39-3.38-18.63-6.71-24.68-9.95-16.53-8.94-24.81-21-24.81-36.12,0-7.89,2.24-14.9,6.66-21.08,4.43-6.18,10.78-11,19.11-14.47,8.28-3.46,17.62-5.22,27.97-5.22s19.68,1.88,27.79,5.65c8.15,3.77,14.47,9.07,18.94,15.96,4.52,6.88,6.75,14.68,6.75,23.41h-29.98c0-6.66-2.1-11.88-6.31-15.56-4.21-3.73-10.08-5.57-17.71-5.57s-13.02,1.53-17.1,4.65c-4.08,3.11-6.09,7.19-6.09,12.27,0,4.73,2.37,8.72,7.15,11.92,4.78,3.2,11.79,6.22,21.04,8.99,17.05,5.13,29.5,11.53,37.3,19.11,7.8,7.63,11.7,17.1,11.7,28.41,0,12.62-4.78,22.49-14.29,29.68-9.51,7.19-22.36,10.74-38.49,10.74-11.22,0-21.39-2.06-30.6-6.14-9.21-4.12-16.22-9.73-21.04-16.88-4.82-7.15-7.23-15.43-7.23-24.81h30.12c0,16.09,9.6,24.11,28.8,24.11,7.15,0,12.71-1.45,16.7-4.34,3.95-2.85,5.92-6.88,5.92-12.1h0Z"/>
      <path class="cls-4" d="M552.1,368.86l-10.39,10.39v33.01h-28.89v-153.69h28.89v85.17l5.61-7.19,27.7-32.53h34.72l-39.1,45.15,42.48,63.17h-33.18l-27.84-43.48h0Z"/>
      <path class="cls-4" d="M657.48,371.36l19.99-67.38h30.99l-43.48,125.11-2.41,5.7c-6.49,14.16-17.14,21.22-32,21.22-4.21,0-8.46-.61-12.8-1.88v-21.92l4.38.09c5.48,0,9.56-.83,12.23-2.5,2.72-1.67,4.82-4.43,6.36-8.33l3.42-8.9-37.92-108.58h31.12l20.12,67.38h0Z"/>
      <path class="cls-4" d="M746.69,360.97v51.33h-29.98v-145.71h56.81c10.96,0,20.56,2.02,28.84,6.01,8.28,3.99,14.68,9.69,19.16,17.05,4.47,7.36,6.71,15.78,6.71,25.16,0,14.29-4.87,25.56-14.64,33.8-9.78,8.24-23.28,12.36-40.55,12.36h-26.35ZM746.69,336.64h26.78c7.93,0,13.98-1.88,18.15-5.61s6.27-9.07,6.27-16-2.1-12.93-6.31-17.32-9.99-6.66-17.4-6.79h-27.48v45.72h0Z"/>
      <path class="cls-4" d="M841.55,276.02c0-4.34,1.45-7.89,4.34-10.7s6.84-4.21,11.84-4.21,8.85,1.4,11.79,4.21c2.94,2.81,4.38,6.36,4.38,10.7s-1.49,8.02-4.47,10.83c-2.98,2.81-6.88,4.21-11.75,4.21s-8.77-1.4-11.75-4.21c-2.89-2.85-4.38-6.44-4.38-10.83h0ZM872.23,412.3h-29.02v-108.27h29.02v108.27Z"/>
      <path class="cls-4" d="M921.42,412.3h-29.02v-153.73h29.02v153.73Z"/>
      <path class="cls-4" d="M935.62,357.15c0-10.74,2.06-20.3,6.18-28.71s10.08-14.9,17.84-19.51c7.76-4.6,16.79-6.93,27.05-6.93,14.6,0,26.52,4.47,35.77,13.41,9.25,8.94,14.38,21.08,15.43,36.43l.22,7.41c0,16.61-4.65,29.94-13.9,39.98-9.25,10.04-21.7,15.08-37.3,15.08s-28.05-5-37.35-14.99c-9.29-9.99-13.94-23.63-13.94-40.85v-1.32h0ZM964.51,359.22c0,10.3,1.93,18.15,5.79,23.63,3.86,5.44,9.38,8.15,16.61,8.15s12.45-2.67,16.39-8.07c3.95-5.39,5.92-13.98,5.92-25.82,0-10.08-1.97-17.93-5.92-23.45-3.95-5.52-9.47-8.33-16.61-8.33s-12.54,2.76-16.39,8.28c-3.86,5.52-5.79,14.03-5.79,25.6Z"/>
      <path class="cls-4" d="M1085.41,277.42v26.61h18.5v21.22h-18.5v54.05c0,3.99.79,6.88,2.28,8.59,1.53,1.75,4.47,2.59,8.81,2.59,3.2,0,6.05-.22,8.5-.7v21.92c-5.65,1.75-11.48,2.59-17.49,2.59-20.25,0-30.6-10.26-30.99-30.73v-58.3h-15.78v-21.22h15.78v-26.61h28.89Z"/>
    </g>
  </g>
</svg>