<svg id="LOGO" xmlns="http://www.w3.org/2000/svg" viewBox="0 0 1250 703"><g id="Layer_4" data-name="Layer 4"><path d="M178.40185,343.54562c-14.53426-6.155-25.76527-10.94227-25.76527-22.56848,0-12.994,11.231-17.7812,22.462-17.7812,18.49814,0,27.74723,10.94227,27.74723,10.94227l1.3213,1.36776,7.92778-15.04562h-.66064c0-.68388-11.89166-13.67785-36.33564-13.67785-19.81945,0-40.29954,10.94227-40.29954,34.19464s19.81944,30.77517,36.33565,38.298C185.00836,364.74629,196.9,370.2174,196.9,381.15967c0,12.994-11.231,18.46508-22.462,18.46508A45.71141,45.71141,0,0,1,140.74493,385.263l-1.3213-1.36777-9.90972,13.67786.66065.68388c0,.68388,3.96389,4.78723,11.231,9.57451a66.0126,66.0126,0,0,0,32.37176,8.89063c24.444,0,40.96019-15.04562,40.96019-35.56241C214.7375,358.59129,195.57869,350.38455,178.40185,343.54562Z"/><path d="M340.92129,351.06843c0,27.35571-19.81945,48.55638-44.26343,48.55638-25.10463,0-44.26344-21.20067-44.26344-48.55638,0-26.67183,19.81945-47.18861,44.26344-47.18861S340.92129,324.39665,340.92129,351.06843Zm-44.26343-64.28588c-35.01435,0-62.76158,28.03959-62.76158,64.28593,0,36.93022,27.08657,65.6537,62.76158,65.6537s62.76157-28.72348,62.76157-65.6537C359.41943,314.82214,331.6722,286.78255,296.65786,286.78255Z"/><path d="M436.05463,240.27782h-7.26712c-12.55233,0-40.96017,4.10335-40.96017,45.8208v4.78723H371.97178v16.41343h15.85556V413.98654h17.83748V307.29928H435.394V290.88585H405.66482v-4.78723c0-10.94228,3.30324-29.40741,25.10465-29.40741a24.203,24.203,0,0,1,5.28521.68388H437.376V240.96165Z"/><path d="M520.61756,398.257l-1.32128.68388a17.70858,17.70858,0,0,1-5.2852.68389c-9.24908,0-25.10465-4.10335-25.10465-32.14294V307.29928H518.6356V290.88585H488.90643V255.32344H471.069v35.56241h-16.5162v16.41343h15.85556v62.23423c0,41.03357,27.08657,47.18862,42.28149,47.18862a31.94256,31.94256,0,0,0,7.26712-.68389h.66064V398.257Z"/><path d="M556.95321,376.37249s13.213,13.67786,31.71113,13.67786c8.58845,0,15.85557-3.41946,15.85557-10.94227,0-18.46509-57.47637-15.72956-57.47637-56.07919,0-23.25237,19.81944-36.24634,44.92409-36.24634,27.08656,0,39.63889,13.67786,39.63889,13.67786l-11.231,23.25236a43.8034,43.8034,0,0,0-28.40789-10.94227c-7.92776,0-15.19493,3.41946-15.19493,11.62615,0,17.09732,57.47637,15.04562,57.47637,54.71143,0,21.20066-17.17684,37.6141-45.58473,37.6141-29.72917,0-45.58473-18.46509-45.58473-18.46509Z"/><path d="M736.64953,336.02281c-.66063-16.41344-10.57036-25.304-23.12268-25.304-15.85557,0-25.76529,9.57451-28.40789,25.304Zm-22.462-49.24026c33.693,0,52.19121,25.988,52.19121,58.81477,0,3.41946-.66064,11.62616-.66064,11.62616H684.45832c1.982,21.88454,17.83748,32.82687,35.01437,32.82687,19.15881,0,34.35369-13.67786,34.35369-13.67786l11.231,22.56849a73.41689,73.41689,0,0,1-47.56664,17.7812c-38.97825,0-64.08285-30.09129-64.08285-64.96982C653.40788,313.45433,679.17311,286.78255,714.18749,286.78255Z"/><path d="M796.10787,289.51808h27.74725v21.20067a62.72269,62.72269,0,0,1-.66069,8.89062h.66069c5.2852-17.7812,19.81944-31.459,37.65692-31.459h5.28521v30.77517a40.05413,40.05413,0,0,0-7.26717-.68388c-12.55228,0-27.08662,7.52281-31.71113,25.98794-1.982,6.155-2.64256,12.994-2.64256,20.51679V413.9866H795.44723l.66064-124.46852Z"/><path d="M880.6708,289.51808h30.38985L936.1653,366.798c2.64256,6.83893,3.96393,15.04563,4.62452,15.04563s1.982-8.2067,4.62452-15.04563l24.444-77.2799h31.05044L958.6273,413.98654H924.27362Z"/><path d="M1090.75693,336.02281c0-16.41344-10.57041-25.304-23.12269-25.304-15.19492,0-25.10465,9.57451-27.7472,25.304Zm-23.12269-49.24026c34.35369,0,52.85185,25.988,52.85185,58.81477,0,3.41946-.66068,11.62616-.66068,11.62616h-81.25975c1.32128,21.88454,17.83748,32.82687,35.01438,32.82687,19.15875,0,33.69309-13.67786,33.69309-13.67786l11.89169,22.56849a73.41693,73.41693,0,0,1-47.56665,17.7812c-38.9782,0-64.08285-30.09129-64.08285-64.96982C1007.51522,313.45433,1032.61987,286.78255,1067.63424,286.78255Z"/></g></svg>