<svg id="LOGO" xmlns="http://www.w3.org/2000/svg" viewBox="0 0 1250 703"><title>nvidia-partner-sqream-logo</title><path id="S_blob" data-name="S blob" d="M284.42,444.17c5.92-.19,13.1-.46,20.29-.63,12.63-.29,25.26-.51,37.89-.77,5.69-.11,11.37-.24,17.07-.37l20.44-.38c1.44,0,3.08.21,3.84-1.34s-.45-2.94-1.36-4.2c-.12-.14-.25-.28-.38-.41L358,410.39c-7.13-7.55-14.29-15.06-21.42-22.61-2.53-2.69-5-5.42-7.48-8.15A18.44,18.44,0,0,0,314,372.81c-2.44.13-4.87.28-7.31.34-6.06.15-12.12.26-18.19.38l-18.19.38c-6.07.12-12.13.27-18.2.37-10.07.15-20.14.26-30.22.43-2.12,0-4.24.17-6.36.35-2.32.21-3.07,1.55-2,3.6a10.23,10.23,0,0,0,1.5,2.13c1.62,1.82,3.31,3.58,5,5.36l24,25.56c5.2,5.5,10.45,11,15.64,16.45q3.8,4,7.48,8.16A20.19,20.19,0,0,0,284.42,444.17Z" fill="#396ab3"/><path id="Q_blob" data-name="Q blob" d="M516.8,438.85c-1.21-1.38-2.06-2.45-3-3.45q-8.4-9-16.82-17.92-13.85-14.67-27.75-29.29A16.64,16.64,0,0,0,456.6,383c-2.37,0-4.74.26-7.11.32-6.07.16-12.14.27-18.2.39l-18.38.38-18,.37-18,.37c-6.06.13-12.13.21-18.19.44-1.13,0-2.92.48-3.17,1.21-.36,1,.4,2.39.8,3.58a3.59,3.59,0,0,0,.92,1.17q8.6,9.17,17.21,18.32,10.69,11.33,21.42,22.62c2.49,2.64,4.85,5.39,7.41,8a4.31,4.31,0,0,0,2.77,1.12c5.38,0,10.75-.2,16.13-.32l18.58-.38,18-.38c6.12-.12,12.25-.27,18.37-.36,10.58-.16,21.15-.27,31.73-.45C511.37,439.29,513.83,439,516.8,438.85Z" fill="#396ab3"/><path id="R_blob" data-name="R blob" d="M646.41,435.84c-2.84-3-5.34-5.7-7.87-8.37-2.88-3-5.79-6.06-8.66-9.11-7.5-8-14.9-16-22.53-23.87a14.4,14.4,0,0,0-10.84-4.4q-17.26.35-34.51.72l-18.19.38-23.46.39-22.88.4a5.52,5.52,0,0,0-1.67.23,2.27,2.27,0,0,0-1.45,3.65,16.45,16.45,0,0,0,2.22,2.77c4.8,5.1,9.64,10.16,14.44,15.26q10.72,11.42,21.39,22.88a4.3,4.3,0,0,0,3.63,1.5c4.37-.18,8.75-.28,13.12-.38q9.09-.21,18.19-.38l18.38-.38c6.12-.12,12.25-.27,18.37-.37,10.76-.16,21.52-.26,32.28-.44C639.56,436.27,642.72,436,646.41,435.84Z" fill="#396ab3"/><path id="E_blob" data-name="E blob" d="M776.21,433.57a8.64,8.64,0,0,0-.65-1q-7.54-8.1-15.1-16.19C755,410.57,749.55,404.68,744,399a15.5,15.5,0,0,0-11.51-5.12c-5.69.08-11.38.24-17.07.36l-18.76.38-18.39.37c-6,.12-12,.27-18,.37-8.76.14-17.52.25-26.28.42a8.57,8.57,0,0,0-2.92.49,1.88,1.88,0,0,0-1.38,2.28,1.63,1.63,0,0,0,.27.6,8.31,8.31,0,0,0,1.25,1.86q11.46,12.25,23,24.5c2.73,2.92,5.46,5.85,8.13,8.83A4.45,4.45,0,0,0,666,436c10.07-.3,20.13-.52,30.2-.76q8.91-.19,17.82-.37,11.26-.21,22.52-.39c9.7-.15,19.4-.25,29.1-.44C769,434,772.46,433.74,776.21,433.57Z" fill="#396ab3"/><path id="A_blob" data-name="A blob" d="M906.25,430.8c-2.1-2.18-3.89-4-5.63-5.85-6.93-7.39-13.77-14.87-20.81-22.15a16,16,0,0,0-12.42-5.22c-5.37.19-10.75.26-16.13.38q-9.37.19-18.76.37c-5.94.13-11.88.28-17.82.37-9.94.16-19.89.27-29.84.42-5.32.09-10.64.17-15.94.43a4,4,0,0,0-3.08,1.48,4.43,4.43,0,0,0,.81,3.38,23.89,23.89,0,0,0,3.06,3.3c7.71,8.19,15.41,16.41,23.17,24.55a4,4,0,0,0,2.62,1.05c3.07,0,6.12-.22,9.19-.3,6.19-.15,12.38-.26,18.58-.39l18.37-.37c6-.13,12-.27,18-.37,9.94-.16,19.89-.26,29.84-.43,5-.08,10-.24,15-.36A18,18,0,0,0,906.25,430.8Z" fill="#396ab3"/><path id="M_blob" data-name="M blob" d="M1037,427.21a9.07,9.07,0,0,0-.66-1l-18.92-20.07a15.17,15.17,0,0,0-9.33-4.8,59.19,59.19,0,0,0-8.21,0c-5.81.1-11.62.24-17.44.37l-18.94.38c-5.88.13-11.75.28-17.63.37-9.32.15-18.64.24-28,.41-5.19.09-10.38.24-15.56.38a4.68,4.68,0,0,0-1.12.11,2.21,2.21,0,0,0-2,2.43,2.27,2.27,0,0,0,.25.84,6.73,6.73,0,0,0,1.28,2.05c5.49,5.91,11.08,11.72,16.49,17.71a9.17,9.17,0,0,0,8.2,3.38c12.48-.67,25-.66,37.51-.92,5.8-.11,11.62-.26,17.44-.36q12-.22,24-.4c9.19-.14,18.39-.26,27.59-.43C1033.57,427.65,1035.11,427.4,1037,427.21Z" fill="#396ab3"/><path id="S" d="M261.51,345.69H218.12c-2.53,0-2.58,0-2.17-2.47.74-4.5,1.57-9,2.31-13.49.24-1.56,1.19-1.78,2.54-1.78,11.45,0,22.91,0,34.37,0,16.84,0,33.69,0,50.53-.05a26.61,26.61,0,0,0,6.64-1,8,8,0,0,0,6.07-6.7c.46-2.46.72-5,1.29-7.39,1.36-5.91-1-8-7.27-8.79a35.74,35.74,0,0,0-4.51-.08c-18.72,0-37.44.13-56.16-.08A70.9,70.9,0,0,1,237.32,302,12.78,12.78,0,0,1,227,293.43a21.28,21.28,0,0,1-.65-7.94c.36-3.91,1.37-7.75,2-11.63a18.37,18.37,0,0,1,12.46-14.93,39.63,39.63,0,0,1,14.11-2.72q44.22-.21,88.44-.34c2.28,0,2.52.31,2.13,2.51-.81,4.5-1.65,9-2.4,13.48-.2,1.23-.75,1.78-2,1.7-.62,0-1.25,0-1.87,0q-41.34,0-82.65,0a34,34,0,0,0-5.23.44,3.71,3.71,0,0,0-3.46,3.39c-.21,1.55-.56,3.07-.84,4.61a2.82,2.82,0,0,0,1.72,3.61,2.66,2.66,0,0,0,.84.16,32.77,32.77,0,0,0,5,.44c20.41,0,40.82-.09,61.23.13a50.24,50.24,0,0,1,12.89,2.08c9.36,2.64,12.74,9.38,11.85,18.3a141.55,141.55,0,0,1-3.06,17.35,24.6,24.6,0,0,1-19.71,19.62A71.36,71.36,0,0,1,303,345.6C289.19,345.86,275.35,345.69,261.51,345.69Z" fill="#396ab3" fill-rule="evenodd"/><path id="E" d="M745.31,293c-.66,3.78-1.25,7.15-1.85,10.52a22.44,22.44,0,0,0-.59,3.32c-.06,2-1.07,2.44-2.91,2.44q-43.11-.07-86.22,0c-3.35,0-3.34-.45-3.94,3.16-.84,5.05-1.79,10.08-2.74,15.38,1.06.07,1.9.17,2.73.17H736c3.27,0,3.27,0,2.66,3.29-.76,4.18-1.58,8.36-2.22,12.56-.23,1.45-.84,2-2.21,1.87-.43,0-.87,0-1.31,0h-105a10.65,10.65,0,0,0-1.13,0c-1.66.19-2-.5-1.71-2.09Q629,322,632.88,300.42c2.54-14.21,5.11-28.43,7.57-42.65.27-1.58,1-1.94,2.37-1.92,4.25,0,8.51,0,12.77,0H748.4a5.83,5.83,0,0,1,2,.07c.52.22,1.27,1,1.21,1.36q-1.17,7.48-2.63,15c-.1.51-.94,1-1.54,1.25a6.41,6.41,0,0,1-2.05.06H659.58c-2.78,0-2.78,0-3.28,2.79-.9,5-1.76,10-2.71,14.95-.25,1.29.13,1.76,1.38,1.71.63,0,1.25,0,1.88,0h88.46Z" fill="#396ab3" fill-rule="evenodd"/><path id="F" d="M561.79,314.18l38,30.89-.21.52c-.71,0-1.42.1-2.13.1-8.32,0-16.65-.07-25,.06a7.31,7.31,0,0,1-5.38-2q-9.24-8.37-18.57-16.64c-4.57-4.08-9.12-8.19-13.78-12.16a5.45,5.45,0,0,0-3.22-1.15c-5.75-.11-11.51,0-17.27-.08-1.67,0-2.27.61-2.54,2.21-1.58,9.24-3.28,18.47-4.9,27.7-.25,1.45-.81,2.15-2.44,2.11-4.44-.11-8.89-.06-13.33,0-1.47,0-2-.42-1.7-2Q496,307,502.51,270.26c.71-3.94,1.42-7.87,2-11.83.28-1.84,1-2.62,3-2.61,25.92.06,51.83,0,77.75.1a54.53,54.53,0,0,1,11.32,1.33c9.43,2.06,14.26,8.26,13.4,17.85a118.81,118.81,0,0,1-3.28,18.62c-3,11.77-11.34,17.78-23,19.22-5.56.69-11.22.58-16.83.79-1.62.06-3.25,0-4.87,0Zm-9.92-40.62c-10.14,0-20.28,0-30.41,0-1.66,0-2.34.56-2.6,2.14-1.11,6.59-2.3,13.17-3.45,19.76-.43,2.44-.41,2.46,2,2.46q30.14,0,60.27,0a22.75,22.75,0,0,0,5.91-.85,8,8,0,0,0,6.22-6.77c.53-3,1.08-6,1.65-9a5.42,5.42,0,0,0-3.66-6.73,5.73,5.73,0,0,0-.69-.16,24.34,24.34,0,0,0-5.37-.71c-10-.06-19.9,0-29.86,0Z" fill="#396ab3" fill-rule="evenodd"/><path id="Q" d="M452.32,355.25a20,20,0,0,1-2,.21c-4.26,0-8.52,0-12.77,0a2.13,2.13,0,0,1-2.45-1.75h0c-.5-1.87-1.22-3.69-1.66-5.56s-1.39-2.53-3.41-2.52c-16.4.09-32.8.12-49.21,0a32,32,0,0,1-15.26-3.31,14.36,14.36,0,0,1-7.65-11.52c-.73-5.35.65-10.44,1.54-15.59q3.14-17.91,6.4-35.81a29.67,29.67,0,0,1,6.63-14.51,21.92,21.92,0,0,1,11.93-7.06A70.27,70.27,0,0,1,398.49,256c16.71-.23,33.43-.19,50.15,0a36.18,36.18,0,0,1,17,3.33,14.13,14.13,0,0,1,7.79,12.39A57.51,57.51,0,0,1,471.91,286c-2.15,11.93-4.24,23.88-6.42,35.81a31.74,31.74,0,0,1-5.82,13.89,22.55,22.55,0,0,1-9,6.82c-1.45.65-1.7,1.34-1.25,2.7.78,2.31,1.48,4.65,2.18,7C451.84,353.1,452,354.06,452.32,355.25Zm-8.67-28.92a8.35,8.35,0,0,0,4.45-6.91q2.25-12.54,4.45-25.1c.84-4.86,1.75-9.71,2.33-14.61a4.35,4.35,0,0,0-3.41-5.12l-.22,0a22.67,22.67,0,0,0-6.07-.94q-24.78-.12-49.56,0a23.76,23.76,0,0,0-5.57.72,8.41,8.41,0,0,0-6.78,7.36c-.3,1.92-.65,3.82-1,5.73-1.94,10.88-3.79,21.79-5.85,32.66a5.84,5.84,0,0,0,3.91,7.28,6.18,6.18,0,0,0,1.48.24,23.06,23.06,0,0,0,3,.35q20.08,0,40.18,0a19.9,19.9,0,0,0,2.18-.24c-1.3-4.21-2.51-8.13-3.73-12.06-.63-2.06-.48-2.31,1.65-2.32,3.86,0,7.76,0,11.64,0,2.93,0,2.95,0,3.85,2.88C441.6,319.49,442.57,322.76,443.65,326.33Z" fill="#396ab3" fill-rule="evenodd"/><path id="A" d="M824.55,317.12c-11.45,0-22.91,0-34.37,0-1.76,0-2.48.49-2.79,2.35C786,327.64,784.46,335.8,783,344c-.22,1.24-.75,1.72-2,1.71q-6.86,0-13.71,0c-1.49,0-1.82-.67-1.58-2,2.54-14.08,5-28.18,7.58-42.26,1.2-6.57,2.14-13.23,3.85-19.68,3.69-13.95,13-22.18,27.14-24.76a69.92,69.92,0,0,1,11.73-1.08c12.46-.14,24.92-.08,37.38,0a54,54,0,0,1,17.22,2.2,19.78,19.78,0,0,1,14.21,19.66,94.49,94.49,0,0,1-2.35,18.19c-2.79,15.95-5.72,31.86-8.52,47.81-.26,1.51-.86,2-2.3,2-4.39,0-8.77-.06-13.15,0-1.77,0-2.11-.67-1.8-2.3,1.49-8.05,2.84-16.13,4.36-24.18.33-1.74-.13-2.16-1.82-2.15C847.72,317.15,836.14,317.12,824.55,317.12Zm3.15-16.58c11.51,0,23,0,34.54,0,1.66,0,2.34-.57,2.59-2.15.77-4.87,1.63-9.73,2.44-14.6a7.36,7.36,0,0,0-4.23-8.34,17.17,17.17,0,0,0-5.74-1.5c-5-.31-10-.42-15-.4-11.63.05-23.27.08-34.89.38-7.87.21-12.2,4-13.91,11.69-.9,4.08-1.54,8.22-2.24,12.35-.42,2.51-.37,2.53,2.26,2.53Z" fill="#396ab3" fill-rule="evenodd"/><path id="M" d="M923.25,286.28c-.7,3.82-1.34,7.11-1.93,10.41q-3.47,19.4-6.91,38.78c-.58,3.26-1.21,6.51-1.75,9.78a1.63,1.63,0,0,1-1.66,1.61l-.22,0c-4.32,0-8.64,0-13,0-1.47,0-1.79-.51-1.52-1.93,2.05-11.12,4-22.27,6-33.41q4.18-23.36,8.34-46.71c.92-5.12,3.45-7.89,8.28-8.7a7.4,7.4,0,0,1,7.74,3.08c7.52,10.93,15,21.91,22.44,32.86,4.17,6.1,8.31,12.21,12.52,18.28,1.51,2.18,1.58,2.13,3.39.31L991.76,284q12.47-12.37,25-24.65a10.23,10.23,0,0,1,9.6-3.1,6.09,6.09,0,0,1,4.87,7.13l0,.18q-3.15,17.73-6.31,35.45-4.1,22.9-8.14,45.8c-.27,1.54-.87,2.13-2.42,2.1-4-.08-8,0-12,0-2.2,0-2.34-.22-1.95-2.42q5-28.16,10-56.32c.06-.34,0-.69.1-1.54-.85.77-1.4,1.22-1.9,1.72q-21.21,21.18-42.39,42.37a9.31,9.31,0,0,1-5.47,3,7.38,7.38,0,0,1-7.62-3.61c-9.55-14.16-19.21-28.25-28.83-42.37Z" fill="#396ab3" fill-rule="evenodd"/></svg>