<svg id="f80bc1af-b61b-4190-8ea1-fc8c2e45d414" data-name="Layer 4" xmlns="http://www.w3.org/2000/svg" viewBox="0 0 1250 703">
  <g id="ad129a68-d4f2-476d-8800-829de49522ac" data-name="Layer 1">
    <g>
      <path d="M1112.8988,394.56674h-64.042a8.96773,8.96773,0,0,1-8.95783-8.95784V353.25481h61.8167a9.62165,9.62165,0,0,0,0-19.2433H1039.899v-31.8391a8.97178,8.97178,0,0,1,8.95783-8.96257h64.042a10.09411,10.09411,0,1,0,0-20.18821h-64.042a29.18369,29.18369,0,0,0-29.146,29.15078V385.6089a29.1827,29.1827,0,0,0,29.146,29.14606h64.042a10.09411,10.09411,0,1,0,0-20.18822M924.57616,334.27609q-20.31115-3.64976-28.22477-8.6602-7.9161-5.02461-7.91372-13.57378,0-9.1846,8.12156-15.0762,8.12871-5.86794,22.886-5.8774,14.96754,0,23.949,5.77346a35.07468,35.07468,0,0,1,8.80189,8.2775,10.95972,10.95972,0,1,0,16.85266-13.99428,56.94449,56.94449,0,0,0-16.56919-12.884q-13.79814-7.05855-33.247-7.05383-16.68249,0-29.1838,5.76874-12.50838,5.76873-19.13941,15.60536a38.17312,38.17312,0,0,0-6.62862,21.81349q0,11.33194,5.23963,19.23857,5.23006,7.92315,16.78648,13.25723,11.53752,5.35062,30.99813,8.98147,19.46066,3.64267,27.2609,8.33892,7.80981,4.70571,7.80508,12.39264,0,9.63111-8.66491,14.86832-8.646,5.23723-23.83561,5.23959-16.03767,0-26.83578-5.99081a40.713,40.713,0,0,1-11.05079-9.07122,10.88577,10.88577,0,0,0-15.89831-.42994l-.03778.04724a10.87134,10.87134,0,0,0-.54336,14.90613q18.2984,20.42445,54.57862,20.41972,16.67546,0,29.40591-5.027,12.721-5.01753,19.76777-14.42422A35.34327,35.34327,0,0,0,976.32,375.32343q0-11.53746-5.13091-19.34253-5.138-7.80266-16.36128-13.03989-11.21862-5.24432-30.25163-8.66492m-315.7546.04252q-20.31105-3.64975-28.22008-8.6602-7.91606-5.02461-7.909-13.58323,0-9.1846,8.1216-15.06675,8.12865-5.875,22.88122-5.88213,14.95338,0,23.94433,5.77347a35.03406,35.03406,0,0,1,8.81133,8.2775,10.95653,10.95653,0,1,0,16.848-13.98954,56.94338,56.94338,0,0,0-16.5692-12.88872q-13.79111-7.05147-33.25172-7.05383-16.67558,0-29.17919,5.76873-12.51546,5.76874-19.13934,15.61482a38.1567,38.1567,0,0,0-6.62861,21.804q0,11.33195,5.23955,19.23859,5.23727,7.916,16.78179,13.26195,11.54462,5.35061,31.00283,8.98146,19.45362,3.63558,27.261,8.33894,7.80267,4.6986,7.80508,12.39734,0,9.624-8.65547,14.85887-8.66734,5.24433-23.84037,5.23959-16.04481,0-26.84046-5.9908a40.4989,40.4989,0,0,1-11.04139-9.06651A10.89413,10.89413,0,0,0,550.331,381.267l-.03305.03779a10.87138,10.87138,0,0,0-.54336,14.90613q18.2984,20.43155,54.58334,20.41973,16.67546,0,29.39647-5.02225,12.721-5.01753,19.77721-14.43366a35.33763,35.33763,0,0,0,7.05381-21.80877q0-11.54456-5.13091-19.34723-5.13806-7.80978-16.36128-13.03992-11.21863-5.24428-30.25163-8.66019m210.58967-51.569v77.61577q0,27.78776-14.75025,42.01117-14.75482,14.22342-42.97019,14.21632-28.23428,0-42.98446-14.21632-14.7478-14.22342-14.74549-42.01117V282.74957a11.54459,11.54459,0,0,1,23.08917,0v74.833q0,20.10555,8.4428,29.61381,8.4476,9.51061,26.198,9.51535,17.7456,0,26.18371-9.51535,8.44759-9.51062,8.44756-29.61381v-74.833a11.54459,11.54459,0,0,1,23.08917,0" fill="#0c322c"/>
      <path d="M465.37316,330.47279a5.80722,5.80722,0,0,1-7.2995-8.95785,5.69657,5.69657,0,0,1,8.20663-.00472,5.83294,5.83294,0,0,1-.90713,8.96257m9.14685-12.695a21.48713,21.48713,0,1,1-16.02584-16.01168A21.47827,21.47827,0,0,1,474.52,317.77778M370.04962,401.22369a30.66616,30.66616,0,0,1,4.0726,7.4696c.58585,1.7481,1.337,4.05372,3.06152,4.97974a1.27262,1.27262,0,0,0,.2835.12756c3.16547,1.15281,11.306.95909,11.306.95909h14.97226c1.28038.01891,12.52965-.01416,12.24618-1.27092-1.356-6.01441-8.31059-7.09162-13.60688-10.23821-4.8805-2.91034-9.51059-6.20812-11.60831-11.88237-1.09612-2.92925-.44884-9.68543,1.43625-12.147a9.63839,9.63839,0,0,1,5.57975-3.43951c2.41428-.515,4.91831-.07087,7.33259.1748,2.97652.30239,5.9152.841,8.88228,1.2095a110.639,110.639,0,0,0,17.28258.88823,95.45151,95.45151,0,0,0,28.11609-4.86161,64.152,64.152,0,0,0,17.88263-8.96257c6.09474-4.53089,4.49308-4.10568-1.68669-3.47259a138.74832,138.74832,0,0,1-22.28593.42994c-6.92628-.40159-13.758-1.21894-20.02289-4.4364-4.93248-2.54656-9.17043-5.09784-13.08241-9.04289a2.694,2.694,0,0,1,.12284-3.44424c1.03942-1.07719,3.24107-.45354,3.91671.12285a48.291,48.291,0,0,0,27.535,10.90911c5.69787.28347,11.23985.3874,16.94241.14173,2.849-.13228,7.14833-.1134,10.00673-.14173,1.47406-.0189,5.49472.40631,6.24592-1.15754a3.03685,3.03685,0,0,0,.189-1.48824c-.83626-22.80093-2.52292-48.51694-26.38217-59.4166C440.98479,285.093,414.2955,272.483,403.0226,267.25288a4.00056,4.00056,0,0,0-5.66951,3.63323c0,7.61605.38742,18.55824.39214,28.51769-5.40025-5.49944-14.49508-8.972-21.42609-12.15639a203.03387,203.03387,0,0,0-24.26556-9.24605,259.781,259.781,0,0,0-51.19578-10.04923,195.97425,195.97425,0,0,0-58.9772,2.97649c-31.86271,6.605-63.1821,21.92689-86.95629,44.33568-14.5943,13.74859-26.04673,33.29426-26.82157,53.13287-1.10556,28.07831,6.7609,43.15451,21.21819,58.69373,23.05606,24.76635,72.67855,28.23421,92.777-1.13391,9.04288-13.21944,11.00359-31.1493,4.44112-45.7625-6.56247-14.60374-21.64813-25.15849-37.6409-25.69711-12.41154-.411-25.6357,5.901-30.39337,17.37709a25.049,25.049,0,0,0,5.04587,26.39635c2.57492,2.65522,6.06167,4.82855,9.8697,3.97812a5.58844,5.58844,0,0,0,4.46-4.46474c.5008-3.35921-2.43789-5.53724-4.24743-8.11688a12.46313,12.46313,0,0,1,1.48354-15.5959c3.449-3.3403,8.55624-4.32774,13.35645-4.31358a25.60934,25.60934,0,0,1,12.89344,3.06156c5.41911,3.1891,9.01926,9.02871,10.26656,15.199,3.71825,18.44012-11.27291,33.42184-31.59814,34.59825-10.39885.6142-20.982-2.11661-29.09882-8.65073-20.55676-16.53611-25.59317-50.33591-2.09773-68.37917,22.30485-17.12668,50.46347-12.71391,67.06572-3.81277,13.28559,7.12,23.18836,18.77086,30.691,31.65012a190.35471,190.35471,0,0,1,9.95,20.12207c2.8631,6.60973,5.54194,13.27142,11.27289,18.11414,3.79384,3.21272,8.47594,3.09933,13.4462,3.09933h28.37126c3.85528,0,2.91506-2.57017,1.252-4.271-3.76077-3.84582-9.16574-4.71516-14.16908-6.09-11.43825-3.14659-10.2713-18.28893-7.10579-18.28893,10.224,0,10.54528.3071,19.50315.19371,12.92651-.17954,16.83849-.93076,26.94914,2.80641,5.40493,2.00323,10.59726,7.28533,13.98482,12.11387" fill="#30ba78"/>
    </g>
  </g>
</svg>
