<?xml version="1.0" encoding="UTF-8"?><svg id="LOGO" xmlns="http://www.w3.org/2000/svg" viewBox="0 0 1250 703"><defs><style>.cls-1{fill:#08bed5;}.cls-2{fill:#007179;}</style></defs><g id="TD_Synnex"><path class="cls-1" d="M195.76927,321.35726c1.47437-5.95527,4.18624-11.53719,7.9599-16.37346,3.77354-4.83835,8.52416-8.82857,13.9414-11.70872,9.81005-5.21646,21.23583-6.49226,31.94253-3.57845l.24151,.06209,.06429,.09586s.01706,.06662-.08333,.09807l-.13776,.03389c-20.41196,4.70547-35.40389,23.50901-36.12227,46.11883-.28213,7.20763,.99947,14.39134,3.75648,21.05978,2.71535,6.57245,6.8005,12.48606,11.97855,17.35494l.05849,.05547-.00569,.09807-.05745,.00986-.04294-.00754c-5.68126-1.1869-11.07262-3.49489-15.85782-6.78901-4.8589-3.34727-8.99221-7.64411-12.14764-12.63055-3.15566-4.98748-5.26962-10.56256-6.21396-16.3882-.94191-5.8268-.69471-11.78219,.72569-17.51092"/><path class="cls-1" d="M242.95082,304.38299c4.65591-2.38598,9.76967-3.779,15.00853-4.08573,5.23805-.30697,10.48387,.47443,15.39569,2.30219,8.89496,3.30433,16.17152,9.82816,20.35694,18.23034l.09691,.18859-.02472,.09366-.1106,.00337-.09934-.06882c-14.56055-10.30201-35.10493-9.31485-50.01759,2.83048-4.78648,3.83912-8.6719,8.65623-11.39166,14.11606-2.68135,5.38451-4.16836,11.2669-4.36357,17.25792l-.00221,.06778-.0665,.05199-.03957-.03041-.01822-.03273c-2.45132-4.25877-4.01807-8.95739-4.61065-13.82314-.60012-4.94222-.17907-9.95524,1.23564-14.7344,1.41808-4.77638,3.79942-9.2213,7.00325-13.06564,3.20812-3.84585,7.16817-7.00906,11.64768-9.3015"/><path class="cls-1" d="M237.24449,258.38799c-50.98434,0-92.46303,41.4787-92.46303,92.46199s41.4787,92.46315,92.46303,92.46315,92.46199-41.47881,92.46199-92.46315-41.47754-92.46199-92.46199-92.46199m82.63952,92.46071c0,45.56733-37.07114,82.64068-82.63952,82.64068s-82.64172-37.07335-82.64172-82.64068,37.0723-82.64149,82.64172-82.64149,82.63952,37.07323,82.63952,82.64149"/><path class="cls-1" d="M245.4098,383.68962c-.86067,0-2.5169,.22654-2.5169,.22654-2.26308,.30465-4.5734,.48534-6.9212,.48534-28.38682,0-51.39935-23.01264-51.39935-51.3997,0-10.71366,3.33938-20.55436,8.94707-28.78954l-.00453-.12963-.12395-.02286c-12.47817,11.70002-20.27362,28.3339-20.27362,46.78893,0,35.41619,28.70957,64.12692,64.12716,64.12692,3.67397,0,7.2761-.30917,10.78237-.90349h.00696c7.19161-1.24203,12.65748-7.55405,12.65748-15.10102,0-8.43979-6.84217-15.28149-15.28149-15.28149"/><polygon class="cls-2" points="404.73362 394.90244 404.73362 320.27272 378.00378 320.27272 378.00378 306.64259 446.9448 306.64259 446.9448 320.27272 420.21484 320.27272 420.21484 394.90244 404.73362 394.90244 404.73362 394.90244"/><path class="cls-2" d="M458.43331,394.90244v-88.25985h32.81568c27.52279,0,46.18248,18.26017,46.18248,44.19672s-18.65969,44.06314-46.18248,44.06314h-32.81568Zm15.48238-13.62886h17.33329c19.18716,0,30.30157-13.76198,30.30157-30.43428,0-17.06979-10.58542-30.56658-30.30157-30.56658h-17.33329v61.00085h0Z"/><path class="cls-2" d="M593.27713,370.55539c6.08467,6.48483,15.61097,12.17283,27.91721,12.17283,12.70546,0,17.73287-6.2186,17.73287-12.03925,0-7.94086-9.39695-10.32267-20.11352-13.1022-14.42448-3.57277-31.35883-7.80659-31.35883-26.46367,0-14.55603,12.83481-25.80355,32.15358-25.80355,13.18089,0,23.93169,4.00612,32.02429,11.31982l-7.81117,12.4972c-6.87942-6.88023-16.2726-10.05493-25.5365-10.05493-9.13078,0-14.95305,4.36566-14.95305,10.98245,0,6.88012,8.99772,9.12962,19.45189,11.7765,14.55371,3.70461,31.89118,8.20466,31.89118,27.39176,0,14.6881-10.32482,27.259-34.14248,27.259-15.86194,0-27.45316-5.40621-35.25673-13.4l8.00127-12.53597h0Z"/><polygon class="cls-2" points="692.65086 394.90244 692.65086 358.24898 658.38287 306.64259 676.11203 306.64259 700.46209 344.48805 724.54204 306.64259 742.27503 306.64259 708.13632 358.24898 708.13632 394.90244 692.65086 394.90244 692.65086 394.90244"/><polygon class="cls-2" points="813.81146 394.90244 767.76586 330.59307 767.76586 394.90244 752.28052 394.90244 752.28052 306.64259 768.16138 306.64259 813.28288 369.23201 813.28288 306.64259 828.76457 306.64259 828.76457 394.90244 813.81146 394.90244 813.81146 394.90244"/><polygon class="cls-2" points="910.12016 394.90244 864.07068 330.59307 864.07068 394.90244 848.58905 394.90244 848.58905 306.64259 864.4662 306.64259 909.59147 369.23201 909.59147 306.64259 925.06933 306.64259 925.06933 394.90244 910.12016 394.90244 910.12016 394.90244"/><polygon class="cls-2" points="944.8977 394.90244 944.8977 306.64259 1005.36766 306.64259 1005.36766 320.27272 960.37927 320.27272 960.37927 343.16467 1004.44356 343.16467 1004.44356 356.79353 960.37927 356.79353 960.37927 381.27358 1005.36766 381.27358 1005.36766 394.90244 944.8977 394.90244 944.8977 394.90244"/><polygon class="cls-2" points="1085.84094 394.90244 1061.09547 360.3663 1036.35383 394.90244 1017.82604 394.90244 1050.90754 349.64788 1019.81111 306.64154 1038.33507 306.64154 1061.09547 339.06164 1083.72281 306.64154 1102.3836 306.64154 1071.41652 349.51592 1104.36879 394.90244 1085.84094 394.90244 1085.84094 394.90244"/></g></svg>