<?xml version="1.0" encoding="UTF-8"?><svg id="LOGO" xmlns="http://www.w3.org/2000/svg" viewBox="0 0 1250 703"><defs><style>.cls-1{fill:#045082;}.cls-1,.cls-2,.cls-3,.cls-4,.cls-5,.cls-6,.cls-7,.cls-8,.cls-9,.cls-10,.cls-11,.cls-12,.cls-13,.cls-14,.cls-15{stroke-width:0px;}.cls-2{fill:#0b5485;}.cls-3{fill:#fcfdfd;}.cls-4{fill:#065183;}.cls-5{fill:#1b5e8d;}.cls-6{fill:#0d5586;}.cls-7{fill:#055182;}.cls-8{fill:#ecf1f5;}.cls-9{fill:#024f81;}.cls-10{fill:#045081;}.cls-11{fill:#f6f8fa;}.cls-12{fill:#125889;}.cls-13{fill:#035081;}.cls-14{fill:#175c8c;}.cls-15{fill:#095384;}</style></defs><path class="cls-9" d="m328.97546,420.05192c-22.18884-48.23394-44.26313-96.20696-66.611-144.77453,8.22528,0,15.95294.53164,23.5704-.1566,6.95926-.62876,10.26246,1.73996,13.25934,8.19936,14.21466,30.63794,29.13052,60.95058,43.80326,91.37588.5341,1.10749,1.13737,2.18163,2.01943,3.86485,11.58173-24.7329,22.91198-48.92873,34.5156-73.70835h-53.49885c-4.06185-9.93324-7.96798-19.48567-12.00279-29.35278h115.14002c-28.61598,58.13435-57.13467,116.07104-86.1953,175.1087-4.91337-10.72005-9.39946-20.50784-14.0001-30.55654Z"/><path class="cls-1" d="m281.7264,392.71468c1.07306-2.7591,2.05997-5.33111,2.55718-7.99453.1491-.79864-.85643-2.16159-1.69576-2.73515-3.49054-2.38523-7.11961-4.56773-10.9196-6.96447,1.22481-2.96639,2.39162-5.79226,3.65998-8.86409,4.16371,1.02846,8.15397,1.89334,12.0711,3.01385,4.36994,1.25002,4.99879-2.66339,6.94918-4.76779,1.73525-1.8723,1.5967-3.5594-.11445-5.54074-2.60812-3.01995-4.92357-6.29264-7.60183-9.76749,1.2723-1.4438,2.54778-2.89122,3.88242-4.40576,5.79544,11.70661,11.49755,23.11937,17.04095,34.60871.47826.99124.36454,2.79837-.24711,3.70517-8.35668,12.38945-8.10071,24.95838-1.02803,37.7148,5.43754,9.80722,13.54433,16.71287,24.03728,20.36953,4.67438,1.62899,7.55596,4.32092,9.52063,8.5876.98619,2.14168,2.3379,4.11504,3.85268,6.73174,1.73526-3.53858,3.08727-6.8261,4.92278-9.81687.93029-1.51582,2.55413-3.20074,4.16894-3.61124,19.75085-5.02081,29.57061-18.82768,33.25676-37.75696,1.31182-6.73655.02259-13.47944-4.18521-19.21733-1.89658-2.58622-1.70264-4.77116-.28209-7.49372,5.13315-9.8379,10.05108-19.78802,15.0691-29.68623.4326-.85328,1.00394-1.63621,1.53536-2.49123,4.47601,3.92722,4.52391,4.35821,1.15689,8.39728-2.1599,2.59102-4.31317,5.18753-6.46045,7.77078.02162.26516-.03552.54052.07013.72018q5.08755,8.65284,14.4547,5.15371c1.8511-.69122,3.70579-1.37278,5.88196-2.17841,1.21998,3.66254,2.37966,7.144,3.65991,10.98743-3.66021,1.95722-7.11992,3.89612-10.6628,5.66892-2.18949,1.09559-3.21474,2.47782-2.40603,5.01137.52692,1.65078.45168,3.52785,1.14752,5.07859.46047,1.02626,1.71407,2.17357,2.7769,2.36785,4.03039.73675,8.12774,1.10717,12.68599,1.67514-.16026,3.24036-.31089,6.28656-.46556,9.41395-3.79233.61743-7.21203,1.37866-10.67159,1.67491-2.94165.25189-4.28936,1.36743-4.87768,4.41198-1.24119,6.42303-1.45382,6.38747,3.91993,9.91491,2.1913,1.43842,4.40236,2.84671,6.59691,4.28025.20317.13274.35156.34934.82276.83091-1.1292,2.13068-2.17516,4.50833-3.62325,6.60872-.48091.69753-2.07131,1.09391-3.02236.91711-2.93317-.54516-5.8865-1.21011-8.67133-2.2562-2.41088-.90563-3.58944-.0928-4.82718,1.86221-5.08146,8.0261-4.66641,5.63801.29426,11.88325,5.81617,7.32229,5.86324,7.55514-1.90857,13.11098-.09611.06869-.22683.08902-.69331.26371-3.66914-2.86987-7.49514-5.86245-11.25103-8.80019-.36658.02715-.66928-.04395-.83562.07525-10.57905,7.58014-8.82666,3.81318-5.74573,15.84557.37684,1.47171,1.10332,3.93544.50466,4.38276-2.24612,1.67819-4.93498,2.80888-7.56778,3.87291-.36897.1491-1.51529-1.10984-2.01606-1.89843-1.53855-2.42297-3.11986-4.84825-4.34289-7.4342-1.32709-2.80599-3.01823-3.9239-6.17964-2.97218-3.13698.94436-6.72245.836-6.85685,5.60683-.08014,2.84529-1.11199,5.65927-1.24215,8.50896-.12757,2.79277-1.46706,3.30468-3.83598,3.12545-1.97829-.14967-3.97689-.03073-6.18666-.03073-.47947-3.54566-1.28336-6.87511-1.2886-10.20582-.00623-3.96739-1.82518-5.49558-5.42478-6.66564-3.96327-1.28827-6.3966-1.02728-8.29527,3.05043-1.40132,3.00953-3.61995,5.63849-5.66735,8.72817-2.52818-1.3634-4.88716-2.43827-6.99505-3.88022-.72945-.49896-1.3159-2.00816-1.13612-2.8855.54754-2.67197,1.23109-5.38424,2.36128-7.85203,1.54193-3.36684.46166-5.30285-2.2199-7.56366-3.16911-2.67183-5.63986-3.24776-8.92186-.31834-2.49039,2.22284-5.47176,3.89562-8.18374,5.77781-7.78767-5.69791-7.83254-5.99801-2.10406-13.1964.15576-.19575.3183-.38609.47375-.58205,4.489-5.65927,4.48931-7.48154-.44051-12.8335-.61615-.66889-2.18965-.85348-3.21793-.67549-4.16216.72054-8.28457,1.67065-12.78365,2.61178-.94955-2.65506-1.89075-5.28679-2.89693-8.10018,3.53549-2.43184,6.74893-5.07535,10.34716-6.99921,3.84595-2.05631,1.54725-4.90895,1.61429-7.47503.06324-2.42031-1.73625-2.63971-3.52026-2.99008-1.95336-.38362-3.87628-.92843-5.80411-1.43478-7.09489-1.86351-7.75514-2.79082-6.47173-10.00676.14249-.80113,1.47294-1.80256,2.39444-1.98202,3.9158-.76263,7.88511-1.25053,12.10866-1.99081Z"/><path class="cls-13" d="m264.8436,247.3606c8.83955-13.58347,22.08051-17.78631,36.81253-16.58991,13.35695,1.08473,26.58071,3.97272,39.81843,6.31828,14.28245,2.53068,28.3093,1.07267,42.31741-1.93203,6.88686-1.47721,13.82759-2.7033,21.27203-4.14532-1.24245,4.84124-3.06965,7.9125-7.133,9.51446-1.22658.48357-2.49908,2.08188-2.82439,3.39841-1.15672,4.68107-3.32951,8.18281-8.19612,9.75952-2.91254.94362-4.56213,2.90122-4.84326,6.35622-.14004,1.72098-1.86444,4.00331-3.48038,4.80369-11.90577,5.89686-24.31145,8.34485-37.15889,3.312-6.36775-2.4945-12.415-5.79619-18.72325-8.45777-3.53826-1.49287-7.25297-2.6822-10.9936-3.55813-9.07865-2.12592-15.2187,1.22662-18.71874,9.99243h-32.58727c-1.60322-6.97847,1.46733-12.73024,4.4385-18.77186Z"/><path class="cls-4" d="m703.28243,378.82715c.00005,2.09777.00005,3.83087.00005,5.82189h-18.00032v-90.65767c4.88338-1.16706,10.53775-2.51839,17.11709-4.09077v33.11661c5.70845-1.91593,10.69237-4.24237,15.91991-5.12316,3.75108-.63204,8.00635.08849,11.72082,1.2318,7.02914,2.16352,9.78385,8.03773,9.88806,14.81378.25911,16.84615.08524,33.69895.08524,50.75923h-16.90024c0-1.13963-.00005-2.33302,0-3.52641,0-12.50338.00321-25.00677-.00367-37.51015-.00087-1.62495.02268-3.25544-.09592-4.87379-.36153-4.93528-2.40945-7.21778-7.13326-6.33884-3.90181.72602-7.62466,2.74787-11.20838,4.61488-.89578.46667-1.32284,2.54549-1.33329,3.88827-.09743,12.50263-.05683,25.00632-.05609,37.87435Z"/><path class="cls-10" d="m876.83829,319.33297c21.4983-4.89476,37.33448,7.07455,38.4698,28.79174.40749,7.79611.10284,15.50287-3.57969,22.66408-5.93694,11.54552-15.60957,16.39857-28.30196,15.58144-11.58054-.74554-19.92996-6.58953-24.18097-17.26632-4.78045-12.00679-4.56382-24.21535,1.24718-35.95963,3.35367-6.7779,8.67987-11.51149,16.34564-13.81131m-.91278,41.36312c.26021,1.59649.40841,3.22109.80092,4.78437,1.37807,5.48873,4.34587,8.11275,9.1501,8.22632,4.63568.10957,7.6703-2.23227,9.09016-7.73722,2.3436-9.08619,2.40207-18.28599.07103-27.38235-1.30419-5.08907-4.86899-7.71346-9.36247-7.57612-4.27745.13074-7.96451,2.82044-8.64289,7.85825-.94097,6.98774-.8972,14.1081-1.10686,21.82675Z"/><path class="cls-1" d="m616.4392,348.92531c.00247,3.07693.00247,5.79096.00247,8.81778h-37.13011c-1.44887,10.71241,6.52243,18.00359,17.13877,15.51702,4.38084-1.02609,8.45126-3.37758,13.20436-5.35106,1.82043,2.80882,4.0111,6.18886,6.17749,9.5315-14.5132,13.3092-38.00587,12.35358-48.95988-1.94391-6.91938-9.03134-7.83982-19.63277-6.24955-30.33168.78355-5.27142,2.61194-10.76204,5.38236-15.28723,6.1463-10.03923,17.52163-13.99015,29.42773-11.31811,11.39941,2.55833,18.14162,9.9232,20.18533,22.19129.4294,2.57775.55368,5.20633.82104,8.17441m-28.16075-3.96994h10.07744c.37739-5.20409.16988-9.81139-4.23928-12.82055-3.16892-2.16267-6.73969-2.07464-9.87674-.04346-4.4935,2.90947-4.91491,7.66759-5.14459,12.86395,3.00463,0,5.7243,0,9.18317.00006Z"/><path class="cls-1" d="m979.9976,347.35951c.00005,12.62119.00005,24.86699.00005,37.41334h-17.18194c0-1.34935.00018-2.6876-.00005-4.02584-.00188-12.50074.00307-25.0015-.01407-37.50221-.0022-1.62197-.03098-3.25293-.19889-4.86393-.46748-4.48584-2.80191-6.44797-7.11978-5.11673-3.1293.96481-6.05123,2.8618-8.76415,4.77138-.90211.63498-1.20081,2.59797-1.20993,3.9576-.08648,12.87519-.05082,25.7512-.05041,38.62697.00005,1.34666,0,2.69331,0,4.23993h-17.09913c-1.27001-20.85888,1.45153-41.7535-1.8708-62.92351,4.58335-1.3181,9.65654-2.77706,15.12494-4.3497.91695,2.75125,1.72511,5.17594,2.27628,6.82954,5.1983-1.98168,10.35247-4.63926,15.82312-5.78328,3.5235-.73684,7.73387.12742,11.24133,1.38016,5.66729,2.02418,8.5484,6.71017,8.83216,12.73179.22327,4.73916.15178,9.4922.21126,14.6145Z"/><path class="cls-13" d="m765.83242,318.8082q4.61199-1.33589,6.75495,5.63593c4.97448-1.96545,9.83229-4.61783,15.02422-5.78921,12.19618-2.75161,20.99255,4.61749,21.02224,17.02503.03886,16.24198.00953,32.48413.00953,48.97561h-17.20146c0-1.32819,0-2.65859.00005-3.98898.00014-13.37786.034-26.75583-.0132-40.13352-.02548-7.2262-3.52094-9.41827-10.17054-6.45217-4.55892,2.03355-7.47966,4.52157-7.1877,10.597.63516,13.21669.19605,26.485.19605,39.97965h-17.08726c-1.32724-20.62219,1.55115-41.51867-2.06249-62.72563,3.13792-.92486,6.77503-1.99686,10.7156-3.1237Z"/><path class="cls-7" d="m525.04984,384.61377c-.28523-24.48056-.28523-48.73183-.28523-73.3798h-21.45174v-15.23613h63.78853c-.89876,4.76604-1.63969,9.30025-2.72048,13.75195-.15606.64293-1.93787,1.24076-2.97924,1.2615-5.98284.11915-11.96922.05801-18.25603.05801v73.77378c-6.13503,0-11.9728,0-18.09582-.22931Z"/><path class="cls-1" d="m630.92646,330.38661c10.40398-15.02302,31.16446-17.47895,43.17765-5.13771-2.69747,3.64684-5.41598,7.32211-8.20428,11.09171-1.96451-1.28489-3.62927-2.5852-5.47271-3.54066-6.07465-3.14844-12.04156-1.29527-13.76168,5.26172-1.58644,6.04723-1.72282,12.51165-2.12019,18.81611-.16085,2.55259.48787,5.21468,1.10045,7.74657,1.83304,7.5767,8.2167,10.65433,15.22118,7.27024,2.44318-1.18039,4.61153-2.92972,7.36702-4.71894,2.41971,3.1697,5.0078,6.55995,7.75825,10.16289-4.85226,5.55654-10.98117,8.35869-17.98373,8.96732-19.30433,1.67785-31.75595-9.57073-32.60054-28.98354-.40804-9.37782.35507-18.45206,5.51859-26.93573Z"/><path class="cls-13" d="m843.34229,367.63186v17.04859h-17.11425v-64.17815c5.54503-.87213,11.12282-1.74944,17.11425-2.69179v49.82135Z"/><path class="cls-2" d="m974.44758,433.21496c-1.82987-5.34334-3.55925-10.39749-5.3273-15.5647-1.19485.30667-2.24085.57518-3.61502.92791,1.97849,8.16789-4.53408,8.42343-9.90561,9.77926.15645.31625.31291.63253.46936.94878,1.67136,0,3.36636-.17895,5.00908.03792,3.24199.42802,5.67362,1.92233,5.98717,5.57021.2822,3.28369-1.58282,6.29632-5.04299,6.85257-3.12426.50231-6.47674.51814-9.58358-.04764-3.63166-.66133-4.82275-3.28585-3.95268-7.12556h4.40425c1.39782,3.43549,4.16426,4.69736,6.91746,2.89625.67677-.44278,1.23513-1.5518,1.24063-2.3587.00348-.50577-1.06979-1.34823-1.75857-1.46683-1.95773-.3371-4.01564-.16564-5.93818-.60975-1.43232-.33087-3.45687-1.02029-3.8668-2.075-.45639-1.17439.61729-2.9434,1.19178-5.07191-1.99357-1.71292-3.30651-4.63756-1.4672-8.0932,1.84853-3.47305,5.21998-3.84979,8.73088-3.81657,5.25604.04975,10.513.01292,15.9584.01292,1.37802,4.4861,2.70485,8.80558,4.32878,14.09225,1.21492-3.6899,2.15305-6.44496,3.02876-9.21969q1.59015-5.0385,7.28352-4.25511c-2.99035,8.11407-5.85464,16.18962-9.0025,24.1531-.57962,1.46644-2.14251,2.73141-3.54133,3.64641-2.60023,1.70083-4.71689,1.39193-5.32552-2.17999,1.54556-2.09029,7.04554-1.91814,3.7772-7.03294m-14.67873-13.61098c-1.50065-.3295-3.01001-.88297-4.49563-.82523-.35511.01379-1.13802,2.26484-.79968,3.12204.33284.84338,1.85343,1.72672,2.82895,1.7005,1.96158-.0527,3.19855-1.24517,2.46637-3.99731Z"/><path class="cls-14" d="m466.29859,267.02073c-.00073-4.62902-.07472-8.88496.05852-13.13439.0272-.8681.83233-1.7118,1.27885-2.56673.52988.89297,1.10077,1.76531,1.56589,2.69081.15059.29965.02378.73875.02376,1.11407-.00341,68.43347-.00685,136.86693-.01024,205.3004-.00007.98579-.00002,1.97159-.00002,2.95738l-.81939.80365c-.69845-.6661-1.63316-1.21868-2.02418-2.0325-.34198-.71172-.07314-1.71721-.07314-2.59292-.00009-64.0548-.00007-128.10959-.00005-192.53977Z"/><path class="cls-1" d="m831.21296,311.61071c-5.67036-2.81097-7.87497-6.98702-6.80665-12.52387.88249-4.57401,4.96124-7.98587,9.80406-8.20124,5.30508-.23595,9.31453,2.4429,10.79488,7.34073,2.40592,7.9602-4.44953,16.05629-13.79229,13.38438Z"/><path class="cls-12" d="m865.87077,413.94629c1.55739,1.7212,3.76116,3.26825,3.9332,5.01534.4969,5.04709.17566,10.17473.17566,15.48886h-5.56519c0-3.93971.08556-7.87488-.04088-11.80324-.05256-1.63451.87653-4.16304-2.33122-3.9889-2.70219.14669-3.47039,1.78162-3.36297,4.32869.1571,3.72647.04042,7.46449.04042,11.44075h-5.66271v-27.93995c1.27867-.32716,2.92102-.74737,5.15325-1.31849.26131,3.27457.5117,6.41178.74295,9.3089,2.26523-.20984,4.45054-.41228,6.9175-.53194Z"/><path class="cls-12" d="m889.50571,415.26235c.69694,2.08204,1.51798,3.94266,1.60981,5.8386.2109,4.3568.06677,8.73081.06677,13.33269h-5.80377v-15.57579c-3.37182-.08503-5.02265.86056-4.90634,4.04923.13634,3.73651.03199,7.48182.03199,11.49132h-5.63361v-19.25016c1.49639-.30354,3.30486-2.65788,5.34637.22978.11626.16443,1.28275-.61296,1.95828-.60872,2.37499.01483,4.74901.17971,7.3305.49305Z"/><path class="cls-6" d="m631.24597,431.65991c-.00422-3.83107.15302-7.34482-.0923-10.83026-.08029-1.14082-1.20667-2.20804-1.85467-3.30894-1.0306,1.15796-2.82886,2.24136-2.94989,3.48762-.38394,3.95382-.14197,7.96841-.14197,12.21355h-5.64145v-19.75233c1.4661-.09149,3.29877-.20586,5.13139-.32019l.1104,1.18674c1.11754-.48584,2.1986-1.09639,3.35908-1.4353,4.33405-1.26583,7.49479,1.02627,7.53786,5.46428.04725,4.8656.01077,9.73199.01077,15.72072-2.15717-.82805-3.81079-1.46282-5.46923-2.42588Z"/><path class="cls-15" d="m553.84174,421.05141c1.91333-.18287,3.52465-.30131,5.1277-.41916.05806-4.31622-1.40274-4.56529-7.80226-1.19226-.73227-1.21403-1.47666-2.4481-2.44256-4.04946,1.76517-.78639,3.26403-1.61009,4.86065-2.1387,7.28666-2.41257,10.97817.26078,11.0748,7.77225.04331,3.36756.4069,6.73094.62517,10.09623.37963.03336.75924.06675,1.13887.10011l-2.58485,3.09147c-.07424-.29249-.14848-.58501-.22272-.8775-2.03002.16782-4.10663.12066-6.08029.54848-4.0458.87699-7.60106-.55597-8.7178-3.78781-1.41024-4.0812.13164-7.04625,5.02329-9.14364m2.35171,8.90601c3.80518-.12314,3.07117-2.66306,2.75313-5.8295-1.68096.81368-3.35669,1.16323-4.1605,2.19324-.45607.58443.51636,2.2837,1.40737,3.63626Z"/><path class="cls-2" d="m758.90617,432.27603c-.78983-3.46294-2.00603-6.71873-1.88606-9.92451.17941-4.79234,4.07169-7.98866,8.67057-8.1071,4.92746-.12692,8.35427,2.76472,9.30757,7.85396,1.03322,5.51645-.75628,10.35203-4.60278,12.43728-3.37553,1.82992-7.85508,1.02643-11.4893-2.25962m10.11742-5.2236c-.04509-1.85824.23688-3.80839-.25049-5.5423-.32354-1.15115-1.6077-2.43569-2.7362-2.79236-.59227-.18718-2.31541,1.3535-2.57653,2.3606-.51592,1.9897-.7913,4.24271-.3619,6.21147.32973,1.51174,1.89238,2.7546,2.90676,4.11703.97955-1.23327,1.95915-2.46655,3.01835-4.35444Z"/><path class="cls-15" d="m814.3586,422.84219c.99037-6.55815,4.16316-9.27388,10.03218-8.8303,5.22062.39457,7.57182,4.09004,7.42934,12.04802h-11.00083c-.15242,5.1942,2.74096,6.18496,8.77313,3.14836.63191.96995,1.28155,1.96715,2.041,3.1329-3.76139,3.1993-7.81168,3.84113-11.95307,2.04716-4.84323-2.09794-5.67041-6.49637-5.32176-11.54615m9.53872-.53285c.67315-.70079,1.34626-1.4016,2.01941-2.10238-.98652-.73392-2.10644-2.173-2.92487-2.0182-.96191.18191-1.6621,1.74739-2.47576,2.71287.91338.46647,1.82671.93292,3.38121,1.40772Z"/><path class="cls-15" d="m936.32785,414.00664c6.3306.46143,9.59838,4.07375,9.64669,10.31363.04771,6.16016-3.31174,10.43157-8.52003,10.83308-5.54856.42775-9.60471-3.22858-10.1155-9.11842-.59254-6.83254,2.58717-11.24859,8.98884-12.0283m2.72116,5.57181c-2.92574-2.19012-4.63806-1.78817-5.16938,1.58179-.37871,2.40193-.25833,4.96841.16681,7.36803.16507.93178,1.71975,2.10527,2.7554,2.23116.74657.09076,2.32572-1.30165,2.41476-2.14988.29348-2.79719.07846-5.64775-.16759-9.03109Z"/><path class="cls-15" d="m895.29807,428.75257c-.17084-2.61808-.54594-5.02159-.20741-7.32.72178-4.90003,4.46511-7.64097,9.57162-7.42522,4.51108.19055,7.82795,3.31256,8.35601,7.98793.49191,4.35561.26529,8.62156-3.61172,11.52438-4.72211,3.5356-12.49782,1.52056-14.1085-4.76709m11.77233-3.06246c-.05655-1.60816.20773-3.32209-.27588-4.7895-.35731-1.08418-1.81471-2.67325-2.55802-2.5605-1.12936.17126-2.56393,1.44658-2.96134,2.57305-.55043,1.56025-.34586,3.41952-.30567,5.14707.04936,2.12198.05481,4.63997,2.90058,4.78632,2.93174.15075,2.9887-2.36417,3.20033-5.15644Z"/><path class="cls-15" d="m731.78879,413.63302c8.59211-3.09502,13.80572,1.50828,12.69758,11.2389h-10.68824c-.19444,5.20536,2.51641,6.12756,8.74843,3.02688.65409.98902,1.32596,2.00484,1.98724,3.0047-4.84557,4.07054-11.3663,4.03189-14.86373.02805-3.92248-4.49027-3.00378-12.95918,2.11872-17.29852m3.90213,3.19985c-.89102,1.10354-1.78208,2.20708-3.09745,3.83611h6.2855c.20938-.31272.41877-.62547.62811-.93819-1.08413-1.0221-2.16831-2.04423-3.81616-2.89792Z"/><path class="cls-15" d="m569.0461,428.20723c-.2468-2.9984-.83474-5.75826-.48985-8.39616.62465-4.77816,4.29489-7.34113,9.35681-7.1391,4.47955.17882,7.2377,3.01244,7.71354,7.97567.11778,1.22849.1224,2.46786.19713,4.09634h-11.18771c.01808,5.29527,2.81406,6.24485,8.8679,3.20961.66791.96012,1.35685,1.95042,2.03745,2.92874-6.02294,5.05848-12.65225,4.04515-16.49526-2.67511m5.78239-9.88748c-.15178.78896-.30356,1.57792-.46565,2.42049h5.68689c-.87621-4.35011-1.58772-4.74667-5.22124-2.42049Z"/><path class="cls-2" d="m802.70001,406.91069c4.7168.00007,9.06876.00007,13.80132.00007-.2092,1.76168-.37775,3.18113-.57582,4.8494h-6.41157v22.69793h-6.13331v-22.43732h-6.5881v-5.11017c1.8653,0,3.70397,0,5.90747.00009Z"/><path class="cls-4" d="m705.73688,427.13903c.02388-4.67099.02388-9.01929.02388-13.47366,1.77621-.40619,3.31623-.75837,5.52399-1.26325v19.68833c-1.8812,1.5372-10.94194,2.71202-13.48887.87663-1.29571-.93375-2.47044-2.88871-2.578-4.45886-.33083-4.82997-.12057-9.69698-.12057-14.89709,1.7072-.3696,3.32851-.72061,5.36053-1.16052,0,4.74182-.09917,9.08615.0642,13.42059.04528,1.2009.87039,2.37235,1.33769,3.5573,1.28444-.6556,2.56884-1.3112,3.87715-2.28947Z"/><path class="cls-15" d="m526.70158,420.65519c5.57229,1.4864,7.16121,3.40878,6.512,7.65085-.54204,3.54179-4.24097,6.19046-8.81302,5.79002-2.64427-.23156-5.22131-1.23103-8.21104-1.98081.83265-1.78994,1.39117-2.99054,2.02276-4.34825,1.92978.68951,3.72716,1.68222,5.6065,1.87467,1.16779.11961,2.45974-.97302,3.69595-1.52155-.86295-.87605-1.67617-1.8117-2.61615-2.59535-.32315-.26944-.97153-.12023-1.45657-.22847-4.54002-1.01344-6.37603-3.01164-6.12151-6.63745.25058-3.56915,2.97507-6.08831,7.20262-6.06491,2.62.0145,5.23606.74251,8.29357,1.21872-.85797,1.90386-1.34644,2.98776-1.8922,4.19879-1.25248-.36536-2.30966-.93957-3.35037-.91111-1.34908.03682-2.68508.55384-4.02669.86416.96042.86281,1.92084,1.72562,3.15414,2.69069Z"/><path class="cls-2" d="m648.68582,412.50943c2.46728.48132,4.60489.95987,7.04238,1.5056-.79033,1.63202-1.31418,2.71379-1.92066,3.96615-1.62833-.44507-3.14731-1.11543-4.69219-1.18165-.85321-.03657-1.74986.93998-2.62694,1.45982.60542.66018,1.09517,1.55248,1.84367,1.92563,1.09224.54452,2.65586.38401,3.50847,1.11719,1.65156,1.4202,3.63404,3.04166,4.22915,4.96625.88199,2.85237-.68768,5.3435-3.49143,6.68667-4.46438,2.13875-8.69215,1.01738-13.25222-1.20864.57705-1.34518,1.12918-2.63231,1.73817-4.05191,1.98097.74338,3.65402,1.71276,5.41451,1.91312,1.19613.13613,2.5149-.80591,3.77885-1.26581-.86893-.95646-1.66618-1.99678-2.64088-2.82941-.40786-.34835-1.19618-.23741-1.80485-.3668-3.39675-.72226-5.73443-2.35475-5.53265-6.28167.17918-3.48693,2.26771-5.63767,6.21227-6.243.61294-.09406,1.24265-.07896,2.19434-.11154Z"/><path class="cls-12" d="m784.6854,414.20299c1.50579.42864,2.83816.56679,4.17058.70496.22231.28841.44461.57683.66692.86526-1.47096,1.29067-2.94191,2.58137-5.16063,4.52815v14.61691h-5.70648c0-3.77466.1565-7.49135-.06466-11.18544-.1142-1.90751-.76412-3.82312-1.41574-5.648-.79359-2.22261,2.4852-11.27632,4.81702-11.75338,2.51228-.51397,5.21118-.11622,8.50261-.11622-.83919,1.89935-1.31047,2.96606-1.83835,4.1608-3.8959-1.49676-4.61694.39171-3.97128,3.82697Z"/><path class="cls-12" d="m665.0547,409.28307c-.02974,1.29241-.02974,2.26477-.02974,3.41192,1.5188.12538,2.72786.22519,5.26402.43458-1.81599,2.01025-3.04663,3.37255-4.27731,4.73485-.33394-.19742-.66793-.39485-1.00192-.59227,0,2.85124-.02117,5.70272.00701,8.55369.02071,2.09785-.45025,4.51797,3.12321,4.11025.49053-.05595,1.16465,1.49706,1.7538,2.30515-.12318.45371-.24632.9074-.3695,1.36111-2.54679-.13375-5.48724.45855-7.51138-.63908-1.52283-.8258-2.21688-3.74955-2.64408-5.86763-.43614-2.16265.07328-4.49971-.16264-6.72533-.13322-1.25701-1.03785-2.41325-1.4007-3.67095-.2905-1.0068-.66587-2.24078-.33367-3.12117.61628-1.6333,1.72172-3.08203,3.11129-5.43298,3.32361-1.47584,3.82441-1.44447,4.47162,1.13786Z"/><path class="cls-6" d="m718.77317,433.49235c-1.24246-1.69927-2.7663-3.18097-3.07866-4.88475-.48875-2.66615-.01393-5.49437-.23885-8.22999-.10389-1.26409-1.04701-2.43809-1.33059-3.71492-.24307-1.09476-.37477-2.37073-.04102-3.39954.46982-1.44791,1.41528-2.74149,2.15731-4.10106-.2273-.24492-.45465-.48982-.68195-.73472,1.83537-.48865,3.67075-.97728,5.70446-1.51873v5.69442c1.31079.16786,2.6357.33754,5.37693.68857-2.07294,2.01827-3.47956,3.38781-5.16127,5.02521v10.36729c2.11542,1.35795,3.47131,2.22832,4.82719,3.09871l-.50318,1.82747c-2.25616,0-4.51236,0-7.03037-.11796Z"/><path class="cls-6" d="m834.77565,428.42654c-1.44172-7.52331,1.01823-12.86785,6.36561-14.35876,3.12994-.87268,5.87462-.32844,8.46004,2.12282-.81467,1.14808-1.58117,2.22834-2.34767,3.30862-.1257-.32299-.25145-.64598-.37716-.96897-1.79381.36611-4.02155.19999-5.27836,1.22471-1.82671,1.48929-1.79486,8.72494.01856,9.79721,1.53718.90893,3.84182.51989,5.80684.70521.09129-.36382.18257-.72762.27386-1.09142.76559.93146,1.53113,1.86294,2.43273,2.95997-2.3446,3.02488-5.46501,3.4983-8.73271,2.94313-3.50242-.59504-5.74566-2.80631-6.62173-6.64252Z"/><path class="cls-15" d="m687.91195,411.55412c1.31437.83712,2.65724,1.36824,4.27223,2.00695.21562,2.69777-1.26075,3.9403-4.41172,3.33545,0,3.40999-.0675,6.40044.01787,9.38653.09601,3.3561.40763,3.579,4.15065,3.62364.69304,1.82275,1.31734,3.4151-1.68974,3.8489-4.43675.64007-7.5303-.85149-7.71815-4.23804-.17964-3.23851.06072-6.49997-.1071-9.73976-.05156-.99417-.99087-1.91172-1.25085-2.93376-.29526-1.16068-.64593-2.50947-.3201-3.57744.46194-1.51438,1.52031-2.8468,2.3238-4.25694-.22116-.21944-.44228-.43889-.66344-.65831,1.73387-.45206,3.46769-.9041,5.42501-1.41441,0,1.65181,0,2.98149-.02846,4.61719Z"/><path class="cls-5" d="m615.47862,427.6127v5.55456h-6.12795v-27.06023h6.12795v21.50567Z"/><path class="cls-5" d="m507.92312,433.37412c-.51604-2.27598-.87553-4.45246-.90027-6.63278-.07736-6.81962-.02839-13.64067-.02839-20.65444h6.09378v27.38494c-1.70493,0-3.28016,0-5.16512-.09773Z"/><path class="cls-12" d="m588.86791,411.97919c.00218-2.35386.00218-4.34005.00218-6.71027,1.55271-.36524,3.29519-.77512,5.18893-1.22058,2.29887,9.77869-2.51222,20.06075,3.42415,29.08806-6.25853,1.75036-8.60671-.00813-8.61931-6.21312-.0099-4.85879.00048-9.7176.00406-14.94409Z"/><path class="cls-7" d="m916.54638,408.26378c1.51623-1.33144,3.06322-2.3611,4.93796-3.60888,2.45445,10.33437-2.33617,20.67229,3.62148,29.66454-4.62688,2.45798-8.8361-.47319-8.48314-5.53281.46785-6.70665.01283-13.47767-.0763-20.52284Z"/><path class="cls-15" d="m539.10752,433.4616c-2.75641.23995-2.44719-1.46793-2.44698-2.95795.00076-5.47528.00032-10.95054.00032-17.00738h5.07179c-.02729.17671-.0546.35344-.08192.53015,2.04705-.57609,4.0941-1.15216,6.903-1.94263-.62384,2.39669-1.01282,3.89104-1.44484,5.55078-4.22267-.61672-5.36092,1.5032-5.04629,5.23916.22985,2.72951-.09296,5.50294.08446,8.24032.14287,2.20458-.96872,2.52842-3.03955,2.34756Z"/><path class="cls-14" d="m672.56988,433.00594c-.21332-6.59983-.21332-12.95375-.21332-19.57516,1.72406-.30608,3.40761-.60499,5.37162-.95368v20.77473c-1.60175,0-3.27333,0-5.15829-.24589Z"/><path class="cls-6" d="m671.91711,408.52495c-.28399-2.66686.71183-4.4414,3.18773-4.1534,1.23256.14335,3.06643,1.63527,3.22233,2.71929.16218,1.12806-1.21533,3.36973-2.2008,3.5452-1.23884.22061-2.76333-1.16256-4.20926-2.11109Z"/><path class="cls-3" d="m875.84141,360.36855c.29375-7.39111.24999-14.51147,1.19095-21.49921.67838-5.03781,4.36544-7.72751,8.64289-7.85825,4.49348-.13734,8.05828,2.48705,9.36247,7.57612,2.33104,9.09636,2.27256,18.29617-.07103,27.38235-1.41986,5.50495-4.45448,7.84679-9.09016,7.73722-4.80423-.11357-7.77204-2.73759-9.1501-8.22632-.39251-1.56328-.54071-3.18788-.88501-5.1119Z"/><path class="cls-11" d="m587.90884,344.95533c-3.08925-.00002-5.80892-.00002-8.81355-.00002.22969-5.19636.65109-9.95448,5.14459-12.86395,3.13705-2.03118,6.70782-2.11921,9.87674.04346,4.40916,3.00916,4.61666,7.61647,4.23928,12.82055-3.41558,0-6.74652,0-10.44706-.00003Z"/><path class="cls-8" d="m959.89057,419.85711c.61046,2.49902-.6265,3.69148-2.58808,3.74418-.97552.02621-2.49611-.85713-2.82895-1.7005-.33834-.8572.44457-3.10824.79968-3.12204,1.48562-.05774,2.99498.49573,4.61735,1.07836Z"/><path class="cls-8" d="m555.91248,429.87971c-.61005-1.27486-1.58248-2.97413-1.12641-3.55856.80381-1.03001,2.47954-1.37955,4.1605-2.19324.31804,3.16644,1.05205,5.70636-3.03409,5.7518Z"/><path class="cls-11" d="m768.98377,427.37976c-1.01938,1.56057-1.99898,2.79385-2.97858,4.0271-1.01434-1.36242-2.57699-2.60527-2.90672-4.11701-.4294-1.96875-.15402-4.22177.3619-6.21147.26112-1.0071,1.98427-2.54778,2.57653-2.3606,1.12849.35667,2.41266,1.6412,2.7362,2.79236.48737,1.73391.2054,3.68406.21067,5.86962Z"/><path class="cls-8" d="m823.57676,422.30519c-1.23394-.47064-2.14727-.93709-3.06065-1.40359.81366-.96546,1.51385-2.53094,2.47576-2.71285.81843-.1548,1.93835,1.28428,2.92487,2.0182-.67315.70079-1.34626,1.4016-2.33998,2.09824Z"/><path class="cls-8" d="m939.16216,419.85509c.1329,3.10671.34792,5.95727.05444,8.75446-.08904.84824-1.6682,2.24065-2.41476,2.14988-1.03565-.12589-2.59033-1.29938-2.7554-2.23116-.42514-2.39962-.54553-4.96609-.16681-7.36803.53132-3.36996,2.24365-3.77191,5.28253-1.30515Z"/><path class="cls-11" d="m907.06765,426.02376c-.20888,2.45862-.26584,4.97354-3.19758,4.82279-2.84577-.14635-2.85122-2.66434-2.90058-4.78632-.04019-1.72754-.24476-3.58681.30567-5.14707.39741-1.12647,1.83198-2.4018,2.96134-2.57305.74331-.11276,2.20071,1.47632,2.55802,2.5605.48361,1.46741.21933,3.18134.27313,5.12314Z"/><path class="cls-11" d="m735.97275,416.74866c1.36601.9379,2.45019,1.96002,3.53432,2.98213-.20934.31272-.41872.62547-.62811.93819h-6.2855c1.31537-1.62904,2.20644-2.73258,3.37929-3.92032Z"/><path class="cls-8" d="m574.97933,418.06284c3.48267-2.06927,4.19418-1.67271,5.0704,2.6774h-5.68689c.16209-.84258.31387-1.63153.61649-2.6774Z"/></svg>