<?xml version="1.0" encoding="UTF-8"?><svg id="LOGOS" xmlns="http://www.w3.org/2000/svg" viewBox="0 0 1250 703"><defs><style>.cls-1{fill:#00306b;}.cls-1,.cls-2{stroke-width:0px;}.cls-2{fill:#006d4a;}</style></defs><g id="Layer_4"><path class="cls-2" d="m385.06482,229.99027c-5.42988,0-9.83166,4.40178-9.83166,9.83166l-.03046,88.65249c0,5.42988,4.40178,9.83166,9.83166,9.83166s9.83166-4.40178,9.83166-9.83166l.03046-88.65249c0-5.42988-4.40178-9.83166-9.83166-9.83166Z"/><path class="cls-2" d="m385.06482,409.02396c-5.42988,0-9.83166,4.40178-9.83166,9.83166l-.03046,61.31271c0,5.42988,4.40178,9.83166,9.83166,9.83166s9.83166-4.40178,9.83166-9.83166l.03046-61.31271c0-5.42988-4.40178-9.83166-9.83166-9.83166Z"/><path class="cls-2" d="m424.67324,213c-5.42988,0-9.83166,4.40178-9.83166,9.83166l.02285,247.92386c0,5.42988,4.40178,9.83166,9.83166,9.83166s9.83166-4.40178,9.83166-9.83166l-.02285-247.92385c0-5.42988-4.40178-9.83167-9.83166-9.83167Z"/><path class="cls-2" d="m345.31933,213c5.42988,0,9.83166,4.40178,9.83166,9.83166l.1447,247.92386c0,5.42988-4.40178,9.83166-9.83166,9.83166s-9.93828-4.40178-9.93828-9.83166l-.03046-247.92385c-.00761-5.42988,4.39417-9.83167,9.82405-9.83167Z"/><path class="cls-2" d="m464.28166,236.36447c-5.42988,0-9.83166,4.40178-9.83166,9.83166l-.03047,201.20254c0,5.42988,4.29517,9.83166,9.72503,9.83166s9.93827-4.40178,9.93827-9.83166l.03047-201.20254c.00002-5.42988-4.40176-9.83166-9.83164-9.83166Z"/><path class="cls-2" d="m305.71091,236.36447c5.42988,0,9.83166,4.40178,9.83166,9.83166l.1447,201.20254c0,5.42988-4.40178,9.83166-9.83166,9.83166s-9.93828-4.40178-9.93828-9.83166l-.03046-201.20254c-.00762-5.42988,4.39416-9.83166,9.82404-9.83166Z"/><path class="cls-2" d="m503.89008,294.16641c-5.42988,0-9.83166,4.40178-9.83166,9.83166l.02285,85.59865c0,5.42988,4.23424,9.83166,9.66412,9.83166s9.99921-4.40178,9.99921-9.83166l-.02285-85.59865c-.00002-5.43749-4.4018-9.83166-9.83166-9.83166Z"/><path class="cls-2" d="m266.10249,294.16641c5.42988,0,9.83166,4.40178,9.83166,9.83166l.08377,85.59865c0,5.42988-4.34847,9.83166-9.77835,9.83166s-9.93828-4.40178-9.93828-9.83166l-.03046-85.59865c0-5.43749,4.40178-9.83166,9.83166-9.83166Z"/><path class="cls-1" d="m641.75416,441.72509c-3.06146,4.15048-7.02915,7.51653-11.90309,10.10581-4.88156,2.58168-10.73791,3.87631-17.58428,3.87631-5.89442,0-11.33955-1.00526-16.32772-3.00052-4.98817-2.00289-9.28334-4.8054-12.8855-8.40756s-6.42752-7.89731-8.46085-12.8855c-2.04096-4.98817-3.06144-10.46374-3.06144-16.43432,0-6.03912,1.0357-11.56038,3.11475-16.54856,2.07143-4.98818,4.9501-9.24526,8.6284-12.77887s8.02678-6.28282,13.05302-8.24763c5.02626-1.96481,10.48659-2.94721,16.38103-2.94721,2.61975,0,5.27756.25893,7.97347.76155,2.69591.51024,5.27756,1.27179,7.75261,2.29227s4.72924,2.27705,6.77023,3.76969c2.04096,1.49265,3.78492,3.22137,5.23947,5.18618l-8.52179,6.54937c-1.89626-2.61975-4.56932-4.78256-8.02678-6.49605-3.45746-1.70588-7.18907-2.56643-11.19485-2.56643-4.51601,0-8.5751.82248-12.17724,2.45982-3.60216,1.63734-6.67882,3.87631-9.23003,6.7169s-4.51601,6.13812-5.89442,9.88498c-1.38603,3.74686-2.07905,7.73739-2.07905,11.95641,0,4.37131.67017,8.44563,2.01811,12.23055s3.27467,7.08244,5.78781,9.88498c2.51312,2.80251,5.56696,5.01101,9.17671,6.61028,3.60216,1.59927,7.62316,2.40651,12.07063,2.40651,4.37131,0,8.33902-.87578,11.90309-2.61975,3.56407-1.75156,6.5189-4.29517,8.84925-7.64601l8.62844,5.88682Z"/><path class="cls-1" d="m659.87918,383.29106c0,1.89627-.67017,3.45745-2.00289,4.69879s-2.93959,1.85819-4.82065,1.85819-3.46506-.6397-4.76733-1.9115-1.94958-2.82537-1.94958-4.64548c0-1.89627.6473-3.48031,1.94958-4.7521s2.88627-1.9115,4.76733-1.9115c1.87344,0,3.48793.6397,4.82065,1.9115,1.3403,1.27942,2.00289,2.86345,2.00289,4.7521Zm-1.63736,70.44372h-10.26573v-51.77044h10.26573v51.77044Z"/><path class="cls-1" d="m681.06556,401.97197c.1447,1.30987.25133,2.78729.32746,4.42463.06856,1.63734.10663,3.00052.10663,4.09716h.32746c.65493-1.38603,1.54598-2.67306,2.67306-3.87631s2.42174-2.25419,3.87633-3.16807c1.45455-.90625,3.06146-1.62211,4.8054-2.13234,1.74394-.51025,3.56407-.76155,5.46033-.76155,3.35086,0,6.22188.56354,8.62842,1.69065,2.40649,1.12711,4.4018,2.64259,6.00867,4.53125,1.59924,1.89626,2.78727,4.11239,3.54882,6.6636s1.14995,5.27756,1.14995,8.19433v32.10711h-10.26573v-28.72581c0-2.1095-.15994-4.11239-.48741-6.00867-.32746-1.89626-.92907-3.56407-1.80488-5.02626-.87581-1.45457-2.0714-2.61975-3.60213-3.49553s-3.49555-1.30987-5.89442-1.30987c-4.08192,0-7.4099,1.54595-9.99158,4.64548s-3.87633,7.22714-3.87633,12.3981v27.52254h-10.26573v-40.6365c0-1.38603-.03807-3.16807-.10663-5.35372-.07614-2.18566-.18277-4.11239-.32746-5.78781h9.70977v.0076Z"/><path class="cls-1" d="m758.5004,410.37953h-13.76128v26.89047c0,3.12238.57879,5.35372,1.75156,6.69407,1.1652,1.34034,3.02335,2.01051,5.56696,2.01051.94432,0,1.96482-.09901,3.06146-.29702,1.08902-.19801,2.0714-.50263,2.94721-.89863l.32746,8.40756c-1.24134.43409-2.6045.7844-4.09716,1.0357s-3.03859.38078-4.64546.38078c-4.88154,0-8.61317-1.34794-11.19485-4.04385-2.5893-2.69591-3.87633-6.73213-3.87633-12.12395v-28.07089h-9.93827v-8.40756h9.93827v-14.8503h10.15915v14.8503h13.76128v8.42281Z"/><path class="cls-1" d="m814.20804,427.41549v1.74396c0,.58639-.03807,1.16518-.10663,1.74396h-41.17722c.06856,2.17043.56354,4.21139,1.47742,6.1305.90625,1.91911,2.13234,3.57931,3.65545,4.98817,1.53073,1.40888,3.28992,2.51312,5.30043,3.30514,2.00289.79962,4.13523,1.19565,6.38945,1.19565,3.49555,0,6.51128-.76155,9.06251-2.29228,2.55119-1.53073,4.54645-3.3813,6.00867-5.56696l7.21189,5.78781c-2.77207,3.6707-6.02387,6.3742-9.77837,8.10294-3.74683,1.72872-7.92018,2.5969-12.5047,2.5969-3.9296,0-7.56985-.65493-10.9207-1.9648s-6.22188-3.14522-8.62842-5.51364c-2.40649-2.36842-4.29517-5.22425-5.68121-8.5751-1.38603-3.35083-2.07903-7.0596-2.07903-11.14154,0-4.00578.67779-7.6993,2.02571-11.08822,1.34797-3.3813,3.22898-6.28282,5.63552-8.68171,2.40649-2.40651,5.25474-4.27993,8.53704-5.62789,3.2823-1.34794,6.82354-2.01811,10.61606-2.01811s7.24238.61686,10.34191,1.85819,5.7269,3.02337,7.88206,5.35372c2.15521,2.33035,3.81539,5.14811,4.98055,8.46085,1.1652,3.32039,1.75161,7.052,1.75161,11.20245Zm-10.48661-4.15045c-.07614-2.04096-.41885-3.94484-1.0357-5.7345-.61686-1.78203-1.53073-3.32799-2.734-4.64548-1.20327-1.30987-2.69588-2.34558-4.47794-3.11475-1.78206-.76155-3.87633-1.14233-6.28282-1.14233-2.18566,0-4.24186.38078-6.16857,1.14233-1.93433.76155-3.60213,1.80488-5.02624,3.11475-1.41648,1.30987-2.5893,2.85583-3.49555,4.64548-.91387,1.78203-1.43935,3.69354-1.58405,5.7345h30.80486Z"/><path class="cls-1" d="m823.91023,407.75978c-.07614-2.18566-.18277-4.11239-.32746-5.78781h9.71743c.1447,1.30987.25133,2.82536.32746,4.53125.06856,1.7135.10663,3.11475.10663,4.20377h.32746c1.45455-3.06144,3.58694-5.51364,6.38945-7.37184s5.95536-2.78729,9.45086-2.78729c1.59924,0,2.94721.1447,4.04385.43409l-.43409,9.5042c-1.45455-.36555-3.02335-.54832-4.69877-.54832-2.47505,0-4.62264.45694-6.44276,1.36319-1.82012.91387-3.32799,2.13234-4.53125,3.66307s-2.09427,3.29752-2.67306,5.30041c-.58641,2.00289-.87581,4.09716-.87581,6.28282v27.19508h-10.26573v-40.6365c-.00758-1.37841-.04564-3.16807-.11421-5.34612Z"/><path class="cls-1" d="m873.38079,383.29106c0,1.89627-.67017,3.45745-2.00289,4.69879s-2.93959,1.85819-4.82065,1.85819c-1.87344,0-3.46506-.6397-4.76733-1.9115s-1.94958-2.82537-1.94958-4.64548c0-1.89627.6473-3.48031,1.94958-4.7521s2.88627-1.9115,4.76733-1.9115,3.48793.6397,4.82065,1.9115c1.34034,1.27942,2.00289,2.86345,2.00289,4.7521Zm-1.63736,70.44372h-10.26573v-51.77044h10.26573v51.77044Z"/><path class="cls-1" d="m937.70164,427.74297c0,4.00578-.70824,7.68408-2.13234,11.03491-1.41648,3.35083-3.38892,6.24475-5.89442,8.68171-2.51312,2.43698-5.4832,4.33324-8.90257,5.68119-3.42699,1.34794-7.09769,2.01811-11.03491,2.01811-3.9296,0-7.60792-.67779-11.02729-2.01811-3.42699-1.34794-6.3742-3.2366-8.84925-5.68119-2.47505-2.43698-4.42463-5.33088-5.84111-8.68171s-2.13234-7.02915-2.13234-11.03491.70824-7.66123,2.13234-10.97399c1.41648-3.31276,3.36606-6.16859,5.84111-8.5751s5.42226-4.27993,8.84925-5.62789c3.41937-1.34794,7.09769-2.01811,11.02729-2.01811s7.60792.67017,11.03491,2.01811c3.41937,1.34794,6.38945,3.22138,8.90257,5.62789s4.47794,5.26234,5.89442,8.5751c1.42406,3.31274,2.13234,6.96821,2.13234,10.97399Zm-10.69987.05329c0-2.46743-.38078-4.82825-1.14995-7.07484s-1.88102-4.22661-3.34323-5.93251c-1.46217-1.70587-3.26705-3.06906-5.42226-4.08192-2.15521-1.02048-4.62264-1.52311-7.3947-1.52311-2.77969,0-5.23949.51025-7.3947,1.52311-2.15521,1.02048-3.96009,2.37604-5.42226,4.08192s-2.57406,3.68592-3.34323,5.93251c-.76918,2.25419-1.14995,4.61501-1.14995,7.07484,0,2.46743.38078,4.82825,1.14995,7.08244s1.88102,4.24946,3.34323,5.9858c1.46217,1.74396,3.26705,3.12238,5.42226,4.13523,2.15521,1.02048,4.62264,1.52311,7.3947,1.52311s5.23949-.50263,7.3947-1.52311,3.96009-2.39889,5.42226-4.13523c1.46217-1.74396,2.57406-3.73923,3.34323-5.9858.7616-2.25419,1.14995-4.61499,1.14995-7.08244Z"/><path class="cls-1" d="m956.81663,401.97197c.1447,1.30987.25133,2.78729.32746,4.42463.06856,1.63734.10663,3.00052.10663,4.09716h.32746c.65493-1.38603,1.54598-2.67306,2.67306-3.87631s2.42174-2.25419,3.87633-3.16807c1.45455-.90625,3.06146-1.62211,4.8054-2.13234,1.74394-.51025,3.56407-.76155,5.46033-.76155,3.35086,0,6.22188.56354,8.62842,1.69065,2.40649,1.12711,4.4018,2.64259,6.00867,4.53125,1.59924,1.89626,2.78727,4.11239,3.54882,6.6636s1.14995,5.27756,1.14995,8.19433v32.10711h-10.26573v-28.72581c0-2.1095-.15994-4.11239-.48741-6.00867-.32746-1.89626-.92907-3.56407-1.80488-5.02626-.87581-1.45457-2.0714-2.61975-3.60213-3.49553s-3.49555-1.30987-5.89442-1.30987c-4.08192,0-7.4099,1.54595-9.99158,4.64548s-3.87633,7.22714-3.87633,12.3981v27.52254h-10.26573v-40.6365c0-1.38603-.03807-3.16807-.10663-5.35372-.07614-2.18566-.18277-4.11239-.32746-5.78781h9.70977v.0076Z"/><path class="cls-1" d="m599.88394,256.09633h-34.67355v-17.57666h89.47498v17.57666h-34.67355v95.55217h-20.13549v-95.55217h.0076Z"/><path class="cls-1" d="m718.2827,314.2562v2.55882c0,.85294-.05331,1.70588-.15994,2.55882h-58.31981c.21326,2.77206.92907,5.30042,2.15521,7.59269,1.22609,2.29227,2.8482,4.26471,4.87396,5.90965,2.02571,1.65257,4.31037,2.95483,6.86923,3.91439,2.55881.95955,5.21663,1.43934,7.98869,1.43934,4.79016,0,8.84163-.87578,12.14679-2.63498,3.29754-1.75919,6.01629-4.18093,8.14864-7.27284l12.7789,10.22767c-7.56222,10.22766-18.53624,15.33769-32.91438,15.33769-5.9706,0-11.45375-.93671-16.45717-2.7949-5.01104-1.8658-9.34428-4.50079-13.02255-7.91254-3.67832-3.40415-6.54934-7.59269-8.62842-12.54279-2.07903-4.9501-3.11478-10.57037-3.11478-16.8608,0-6.1762,1.0357-11.79647,3.11478-16.85319,2.07903-5.05672,4.92723-9.37473,8.54461-12.9388s7.91256-6.33613,12.86266-8.30856c4.9501-1.97242,10.30385-2.95483,16.06119-2.95483,5.32325,0,10.25053.87579,14.78174,2.63498,4.52363,1.75919,8.43803,4.37132,11.74315,7.82877,3.29754,3.46507,5.8868,7.77546,7.75261,12.9388,1.86582,5.17096,2.79489,11.21008,2.79489,18.1326Zm-19.1683-8.6284c0-2.4522-.35033-4.79017-1.0357-7.02914-.69299-2.23897-1.78206-4.20377-3.27467-5.90966-1.49266-1.70588-3.3813-3.06144-5.67359-4.07431s-4.98055-1.51549-8.07245-1.51549c-5.74972,0-10.62369,1.72872-14.62184,5.1938-3.99816,3.46507-6.20668,7.91254-6.63315,13.34243h39.31141v-.00762Z"/><path class="cls-1" d="m733.94029,230.85082h19.17592v120.79767h-19.17592v-120.79767Z"/><path class="cls-1" d="m767.65425,248.90727c0-3.09191,1.14233-5.78019,3.43462-8.07247,2.29228-2.29228,5.1938-3.43461,8.70456-3.43461,3.51838,0,6.47321,1.09664,8.8645,3.27468,2.39891,2.18566,3.59451,4.92725,3.59451,8.2324s-1.19565,6.04674-3.59451,8.2324c-2.39891,2.18566-5.35375,3.27468-8.8645,3.27468-3.51838,0-6.41989-1.14233-8.70456-3.43461-2.29228-2.29227-3.43462-4.98056-3.43462-8.07247Zm2.71875,26.04514h19.17592v76.69609h-19.17592v-76.69609Z"/><path class="cls-1" d="m801.84804,290.2901v-15.33769h13.41858v-22.20691h18.85608v22.20691h19.17592v15.33769h-19.17592v35.63311c0,3.41176.60923,6.22951,1.83532,8.46848s3.96771,3.35846,8.2324,3.35846c1.2794,0,2.65782-.12946,4.1581-.40362,1.49266-.26655,2.81776-.66255,3.99053-1.19565l.63973,15.01784c-1.70587.6397-3.73163,1.14233-6.06956,1.5155-2.3456.37317-4.58457.55593-6.70929.55593-5.11004,0-9.2681-.71586-12.46663-2.1552s-5.7269-3.40415-7.59267-5.90965c-1.86582-2.4979-3.14522-5.37657-3.83821-8.62841-.69299-3.24422-1.0357-6.73213-1.0357-10.46375v-35.79303s-13.41867,0-13.41867,0Z"/></g></svg>