<?xml version="1.0" encoding="UTF-8"?>
<svg id="PASTE_LOGO_HERE" data-name="PASTE LOGO HERE" xmlns="http://www.w3.org/2000/svg" viewBox="0 0 1250 703">
  <defs>
    <style>
      .cls-1 {
        fill: #ef2cc1;
      }

      .cls-2 {
        fill: #caaef5;
      }

      .cls-3 {
        fill: #fc4c02;
      }
    </style>
  </defs>
  <g id="Layer_1" data-name="Layer 1">
    <g>
      <path d="M417.86932,334.3666h10.06765v-34.82494h13.86261v34.82494h15.84346v12.2119h-15.84346v65.35466h-13.86261v-65.35466h-10.06765v-12.2119Z"/>
      <path d="M495.92718,332.38575c22.11503,0,40.26834,18.31782,40.26834,40.76302s-18.15334,40.76524-40.26837,40.76524-40.26837-18.32007-40.26837-40.76524,18.15334-40.76302,40.26837-40.76302h.00003ZM495.92718,401.04184c15.01865,0,26.7359-11.88512,26.7359-27.89309s-11.71725-27.8886-26.7359-27.8886-26.7359,11.88063-26.7359,27.8886,11.71725,27.89306,26.7359,27.89306v.00003Z"/>
      <path d="M581.5391,452.98515c-19.14377,0-37.79284-13.36683-37.79284-35.15172h13.53245c1.15492,14.68964,11.55271,22.44517,24.2604,22.44517,14.68851,0,25.91111-10.23105,25.91111-27.3962v-14.31609c-5.28116,9.57075-16.83387,15.34767-27.23165,15.34767-22.11503,0-38.94777-18.15445-38.94777-40.76524,0-22.60858,16.83274-40.76302,38.94777-40.76302,10.39778,0,21.95049,5.77468,27.23165,15.34992v-13.36907h13.86261v78.51583c0,23.27109-17.82431,40.10272-39.77372,40.10272v.00003ZM581.70364,401.04184c15.01867,0,26.73592-11.88512,26.73592-27.89309s-11.71725-27.8886-26.73592-27.8886c-15.01754,0-26.73592,11.88063-26.73592,27.8886s11.71839,27.89306,26.73592,27.89306v.00003Z"/>
      <path d="M696.21363,385.03387l11.2226,6.26933c-7.75777,14.52399-20.96119,22.61079-36.14327,22.61079-21.78487,0-39.6081-18.32007-39.6081-40.76524s17.82317-40.76302,39.6081-40.76302c20.79335,0,37.79284,15.84232,37.79284,43.56977h-64.03412c1.32055,14.85302,12.70877,25.08632,26.24122,25.08632,12.87217,0,19.4728-5.77692,24.92067-16.00797l.00005.00003ZM645.87764,364.89857h48.52079c-1.65185-11.05695-9.902-19.96967-23.10547-19.96967-12.21412,0-22.11617,8.0868-25.41532,19.96967Z"/>
      <path d="M710.57873,334.3666h10.06767v-34.82494h13.86375v34.82494h15.84235v12.2119h-15.84235v65.35466h-13.86375v-65.35466h-10.06767v-12.2119Z"/>
      <path d="M789.9247,344.76328c-12.2119,0-20.79335,9.40737-20.79335,24.75505v42.41484h-13.86375v-112.3915h13.86375v46.87343c5.28003-8.41804,13.86148-14.02934,25.41532-14.02934,17.82317,0,27.3962,12.70877,27.3962,27.72744v51.81997h-13.86375v-48.35517c0-11.88287-6.76625-18.81472-18.15442-18.81472Z"/>
      <path d="M896.39823,385.03387l11.2226,6.26933c-7.75777,14.52399-20.96119,22.61079-36.14327,22.61079-21.78487,0-39.6081-18.32007-39.6081-40.76524s17.82317-40.76302,39.6081-40.76302c20.79335,0,37.79284,15.84232,37.79284,43.56977h-64.03412c1.32055,14.85302,12.70877,25.08632,26.24122,25.08632,12.87217,0,19.4728-5.77692,24.92067-16.00797l.00005.00003ZM846.06224,364.89857h48.52079c-1.65185-11.05695-9.902-19.96967-23.10547-19.96967-12.21412,0-22.11617,8.0868-25.41532,19.96967Z"/>
      <path d="M961.86033,349.54865c-2.64115-2.30988-6.60057-3.4648-10.56232-3.4648-11.55384,0-18.15442,10.06765-18.15442,23.60012v42.24922h-13.86375v-77.56656h13.86375v13.20345c3.79607-8.41804,11.38822-14.85302,21.45584-14.85302,4.951,0,9.40513,1.6496,12.2119,3.79607l-4.951,13.03558v-.00005Z"/>
      <path d="M1059.43912,334.3666v77.56656h-13.86375v-13.36683c-5.28003,9.57075-16.83393,15.34767-27.23057,15.34767-22.11611,0-38.94777-18.15445-38.94777-40.76524,0-22.60858,16.83165-40.76302,38.94777-40.76302,10.39665,0,21.95055,5.77468,27.23057,15.34992v-13.36907h13.86375ZM1019.82875,401.04184c15.01862,0,26.73592-11.88512,26.73592-27.89309s-11.7172-27.8886-26.73592-27.8886c-15.01646,0-26.73592,11.88063-26.73592,27.8886s11.71947,27.89306,26.73592,27.89306v.00003Z"/>
      <path d="M1088.98625,334.3666v77.56656h-13.86375v-77.56656h13.86375Z"/>
      <path d="M1072.81265,307.28543c0-4.951,4.29072-9.24397,9.24178-9.24397,5.11662,0,9.24178,4.29297,9.24178,9.24397,0,5.1144-4.12505,9.23951-9.24178,9.23951-4.95105,0-9.24178-4.1251-9.24178-9.23951Z"/>
      <path class="cls-3" d="M953.54762,403.68296c0-4.951,4.29072-9.24397,9.24172-9.24397,5.11662,0,9.24172,4.29297,9.24172,9.24397,0,5.1144-4.1251,9.23951-9.24172,9.23951-4.951,0-9.24172-4.1251-9.24172-9.23951Z"/>
    </g>
    <g>
      <path class="cls-1" d="M368.67052,284.45143c-14.39844-24.93892-46.28764-33.48342-71.22654-19.08497-15.71027,9.07018-24.85731,24.97082-25.91806,41.80823l52.01604.06537-.00838,6.61131h-52.01395c.4833,7.78348,2.67173,15.523,6.83937,22.74105,14.39845,24.93892,46.28763,33.48341,71.22655,19.08497,24.93892-14.39844,33.48341-46.28764,19.08497-71.22602v.00005Z"/>
      <path class="cls-2" d="M174.05576,284.5061c-14.3985,24.93889-5.85366,56.82796,19.08522,71.22648,15.71013,9.0704,34.05402,9.04166,49.16603,1.54157l-25.95142-45.07992,5.72976-3.29842,26.00699,45.04539c6.49904-4.31027,12.10746-10.0753,16.27466-17.29362,14.39849-24.93889,5.85366-56.82799-19.08521-71.22648-24.93889-14.39849-56.82797-5.85366-71.22602,19.08497v.00003Z"/>
      <path class="cls-3" d="M271.35252,452.98515c28.79696,0,52.14129-23.3446,52.14129-52.14156.00011-18.14058-9.19674-34.01248-23.24802-43.3498l-26.0646,45.01454-5.72139-3.31291,26.00695-45.04542c-6.98234-3.47318-14.77919-5.4477-23.11404-5.44743-28.79696,0-52.14129,23.3446-52.14129,52.14156s23.34459,52.14129,52.1411,52.14102Z"/>
    </g>
  </g>
</svg>