<?xml version="1.0" encoding="UTF-8"?><svg id="PASTE_LOGO_HERE" xmlns="http://www.w3.org/2000/svg" viewBox="0 0 1250 703"><defs><style>.cls-1,.cls-2{stroke-width:0px;}.cls-2{fill:#6400ff;}</style></defs><path id="black-plate" class="cls-1" d="m754.71989,460.21558c-11.37492,0-20.64794-9.27302-20.64794-20.64792s9.27302-20.64792,20.64794-20.64792,20.64794,9.27302,20.64794,20.64792c-.00004,11.49855-9.27306,20.64792-20.64794,20.64792Zm0-36.96843c-9.02572,0-16.44414,7.41842-16.44414,16.44416s7.41842,16.44416,16.44414,16.44416,16.44414-7.41842,16.44414-16.44416c-.12365-9.14939-7.41842-16.44416-16.44414-16.44416Zm-429.03176,36.10296v-35.36113h14.83683v-4.20376h-33.87743v4.20376h14.83683v35.36113h4.20377Zm112.63629.86548c9.39667,0,15.20776-5.06926,17.43329-12.85858l-4.20376-.86548c-1.8546,6.42929-6.80022,9.5203-13.22951,9.5203-8.40754,0-15.08411-5.81109-15.08411-16.44416,0-10.1385,6.18201-16.44416,14.96048-16.44416,6.55294,0,10.63307,2.96736,12.6113,8.9021l4.08013-1.11275c-2.72008-7.29477-6.92386-11.9931-16.56779-11.9931-11.3749,0-19.28789,8.03662-19.28789,20.52429.12361,12.24038,8.0366,20.77155,19.28785,20.77155Zm50.07431-.86548v-19.04059h23.98621v19.04059h4.20376v-39.56489h-4.20376v16.44416h-23.98621v-16.32051h-4.20376v39.56489h4.20376v-.12365Zm223.17071,0v-4.20376h-22.7498v-35.36113h-4.20376v39.56489h26.95356Zm265.82659.86548c8.65482,0,14.46593-4.57469,14.46593-11.12762,0-6.80022-4.822-9.5203-12.98223-11.9931-7.91301-2.47281-10.75672-3.83286-10.75672-8.16027,0-3.33828,3.09101-5.81109,8.28391-5.81109,4.822,0,8.28391,1.97825,10.50942,6.67657l3.83282-2.10188c-2.1019-5.06926-6.55292-8.9021-14.34224-8.9021s-13.10584,4.45106-13.10584,10.50942c0,6.92386,5.06922,9.14937,13.47682,11.62218,8.03662,2.47281,10.26213,4.45106,10.26213,8.28389,0,4.20376-3.83282,6.55294-9.52032,6.55294-5.4402,0-9.52032-2.59645-11.49853-7.91297l-4.08011,1.73096c2.22543,6.55296,7.66564,10.63307,15.45496,10.63307Zm-584.69487-36.22659v-4.20376h-25.34626v39.56489h25.34626v-4.20376h-21.14249v-13.22951h19.90608v-4.20376h-19.90608v-13.84771h21.14249v.12361Zm159.74323,35.36111v-30.16822l30.29187,31.15735v-40.43037h-4.20376v30.29187l-30.16824-31.28099v40.43037h4.08013Zm80.61347.86548c-11.37492,0-20.64794-9.27302-20.64794-20.64792s9.27302-20.64792,20.64794-20.64792,20.64794,9.27302,20.64794,20.64792c-.00004,11.49855-9.27306,20.64792-20.64794,20.64792Zm0-36.96843c-9.02572,0-16.44414,7.41842-16.44414,16.44416s7.41842,16.44416,16.44414,16.44416,16.44414-7.41842,16.44414-16.44416c0-9.14939-7.41842-16.44416-16.44414-16.44416Zm208.33386,18.05149v-2.10188h-16.07324v4.20376h11.62218c-.8655,7.78934-6.30566,12.6113-14.83683,12.6113-9.14937,0-16.69144-7.41842-16.69144-16.44416s7.54206-16.44416,16.69144-16.44416c5.56381,0,10.75672,2.72008,13.84773,7.29477l3.58556-2.34916c-3.9565-5.68746-10.38578-9.14937-17.43329-9.14937-11.62218,0-21.01885,9.27302-21.01885,20.64792s9.39667,20.64792,21.01885,20.64792,19.28789-7.54205,19.28789-18.91695Zm32.02279-21.51342v39.56489h4.2038v-39.56489h-4.2038Zm118.44744-170.62358h-84.07539v14.34227h84.07539v-14.34227Zm0,116.71642h-84.07539v14.34227h84.07539v-14.34227Zm-21.38983-58.35821h-62.56195v14.34227h62.56195v-14.34227Zm-135.01516-58.35821v102.2505l-110.65805-107.31975v136.25158h14.34228v-102.37414l110.78169,107.4434v-136.25158h-14.46593Zm-365.35701,131.05869l-42.53225-52.91803h13.10588c23.98621,0,38.20484-17.06236,38.20484-38.82305s-16.69144-39.31761-37.21573-39.31761h-62.68562v14.34227h62.68562c13.35315,0,22.87345,11.86947,22.87345,24.97534,0,13.22951-8.53117,24.35714-21.5134,24.35714h-45.25234l53.78351,67.38395h18.54604Zm-230.46546-131.05869v14.34227h67.01303v116.71642h14.34227v-131.0587h-81.3553Zm761.00589,171.6127v7.29477h-.98911v-7.29477h-2.59642v-.98913h6.18201v.98913h-2.59649Zm11.74583,7.41842h-.98911v-6.92386l-2.47281,6.92386h-1.11279l-2.47281-6.92386v6.92386h-.98911v-8.28389h1.60731l2.47281,7.04749,2.47281-7.04749h1.4837v8.28389Zm-76.03877-4.20376v-4.20376h-25.34626v39.56489h25.34626v-4.20376h-21.14246v-13.22951h19.90605v-4.20376h-19.90605v-13.84771h21.14246v.12361Z"/><path id="purple-uplift" class="cls-2" d="m657.53863,380.22033l-60.21283-107.81432-60.21281,107.81432h-16.81507l77.02788-136.12794,77.02788,136.25158h-16.81505v-.12364Z"/></svg>