<?xml version="1.0" encoding="UTF-8"?><svg id="LOGO" xmlns="http://www.w3.org/2000/svg" viewBox="0 0 1250 703"><defs><style>.cls-1{fill:#583682;}.cls-1,.cls-2{stroke-width:0px;}.cls-2{fill:#f4be49;}</style></defs><g id="trax"><path class="cls-1" d="m873.51197,368.56934l62.59531-86.55063h-60.65186l-32.1879,44.5428,30.24445,42.00784Zm-30.25048,63.25319l32.19394,44.5428h60.65181l-62.59531-86.55063-30.25043,42.00783Zm-209.60464-155.35659c-47.22865,0-78.12493,24.09415-78.12493,24.09415l18.76472,34.87375s25.88068-18.70435,54.50154-18.70435c22.97155,0,40.27562,11.73323,40.27562,28.53636v4.12232h-6.95302c-34.12533,0-123.89295,8.55849-123.89295,70.70113,0,38.99606,33.64249,60.87514,71.0029,60.87514,47.55455,0,64.04988-34.40298,63.56702-34.40298h.80879s-.80879,6.18651-.80879,13.79137v16.01247h48.03138v-122.22108c0-49.46181-32.02494-77.67829-87.01537-77.67829,0,0-.15693,0-.15691,0Zm35.74288,110.81379c0,23.77426-19.73642,55.79317-47.22865,55.79317-21.34794,0-31.53605-12.204-31.53605-25.20471,0-27.26285,43.02181-35.03067,69.71128-35.03067h9.05341v4.5931-.15692.00603Z"/><path class="cls-2" d="m865.90709,379.19202l-70.19412-97.17331h-60.80879l70.19412,97.17331-70.19412,97.1733h60.80874l70.19416-97.1733Z"/><path class="cls-1" d="m283.48892,330.67779h-27.00935v-48.65908h28.30701v-48.51423h50.94054v48.50819h50.95261v48.67115h-50.9526v68.00321c0,32.18187,27.00935,36.78099,41.40428,36.78099,5.82436,0,9.37934-.79067,9.37934-.79067v42.48466s-6.14425,1.11054-16.01247,1.11054c-29.10974,0-87.01537-8.08772-87.01537-73.562v-74.02673l.00603-.00603Zm131.81771-48.66511h49.97485v30.91439c0,7.29102-.80273,13.79137-.80273,13.79137h.80273c9.38537-27.90262,34.45126-48.34523,66.4762-48.34523,4.85263,0,9.37934.78463,9.37934.78463v51.68291s-5.33547-.79066-12.2885-.79066c-22.15673,0-47.22865,11.89015-57.09686,40.89729-3.22905,9.51212-4.52671,20.29171-4.52671,31.86802v73.54993h-52.08127v-194.34662h.16296l-.00002-.00602Zm559.28973.15693c13.58615,0,24.42609,10.78563,24.42609,24.25711,0,13.47751-10.83994,24.25712-24.42609,24.25712s-24.09413-10.62267-24.09413-24.25711,10.67094-24.25711,24.09413-24.25712Zm0,44.86872c11.64873,0,20.38225-9.04134,20.38225-20.6116s-8.89648-20.60557-20.38225-20.60557c-11.47973,0-20.05632,9.03531-20.05632,20.60557s8.73955,20.6116,20.05632,20.6116Zm-8.08769-33.76923h9.38537c4.68967,0,7.92478,3.0178,7.92478,7.76783,0,3.80243-2.58928,6.33739-5.0156,6.82024,0,0,.32593.47078.80879,1.58133l5.17856,9.83201h-4.20681l-5.33549-10.46575h-5.17856v10.46575h-3.88088v-26.0014s.3199,0,.31985,0Zm8.73955,12.52389c2.90918,0,4.68967-1.74429,4.68967-4.75606s-1.78049-4.59913-4.68967-4.59913h-5.0156v9.3552h5.0156Z"/></g></svg>