<?xml version="1.0" encoding="UTF-8"?><svg id="EXAMPLES_TURN_OFF_" xmlns="http://www.w3.org/2000/svg" viewBox="0 0 1250 703"><defs><style>.cls-1{fill:#d71920;}.cls-1,.cls-2,.cls-3{stroke-width:0px;}.cls-2{fill:#fff;}.cls-3{fill:#231f20;}</style></defs><path class="cls-2" d="m353.08335,351.00672c0,55.12047-44.68176,99.80222-99.80222,99.80222s-99.80222-44.68176-99.80222-99.80222,44.68176-99.80222,99.80222-99.80222,99.80222,44.68176,99.80222,99.80222Z"/><path class="cls-1" d="m170.16037,406.29094c-10.56152-15.82181-16.70193-34.83662-16.70193-55.28422,0-55.12047,44.68176-99.8227,99.80222-99.8227,29.0237,0,55.16141,12.40364,73.39846,32.19625-19.2809-13.18142-56.02107-6.87727-91.10329,15.57619,31.80736-19.40371,65.55917-22.47392,79.10904-5.13748,15.57619,19.91541-.79825,58.74331-36.59687,86.72314-35.79862,27.95935-72.10896,33.24011-78.84293,14.36857-2.47663-7.04102-4.42111-16.02649,10.04982-44.39521l16.96802.08187,3.25441-6.85679h-17.25457l10.54105-22.69906s-8.43284,0-8.49425.0614c-21.0821,19.1581-42.02091,23.37451-42.02091,23.37451l-2.74271,6.44744h11.66678c-13.05862,20.50898-17.07036,40.73143-11.03228,55.36607l-.00006.00002Z"/><path class="cls-1" d="m353.08335,351.00672c0,55.12047-44.68176,99.80222-99.80222,99.80222-28.40965,0-54.03566-11.87148-72.21129-30.90676,21.90081,15.08496,66.50072,4.80999,105.88123-25.95349,38.99165-30.45646,59.7258-70.73759,51.04733-95.72909,9.55858,15.31011,15.08495,33.40386,15.08495,52.78713Z"/><path class="cls-3" d="m1043.18421,399.12712l-5.77201-.61405v.24562l4.64623,1.78073,10.84804,6.20182v1.82166l-10.86853,6.50884-4.6258,1.84213v.20468l5.75152-.81873h15.10543v5.38309h-29.04417v-5.19889l13.28375-7.75739,3.31581-1.37136v-.16375l-3.41819-1.24855-13.18143-7.34802v-5.15794h29.04417v5.69012h-15.08482Z"/><path class="cls-3" d="m1029.20456,384.36966v-5.69012h29.04417v5.69012h-29.04417Z"/><path class="cls-3" d="m1057.08203,351.62077c.61402.88013,1.0848,2.00588,1.3509,3.37723.26609,1.3509.40939,2.76318.40939,4.21641,0,1.73978-.26609,3.3977-.79828,4.95327-.55261,1.55558-1.4123,2.92693-2.61991,4.13454-1.20761,1.18715-2.74271,2.12868-4.6872,2.84506-1.924.69591-4.25733,1.06433-7.0001,1.06433s-5.21933-.3889-7.16382-1.16668c-1.90351-.79825-3.45911-1.82166-4.64623-3.07021-1.16669-1.24855-2.02632-2.66085-2.53802-4.21641-.5117-1.55558-.7778-3.11114-.7778-4.64624,0-1.65791.1228-3.04974.34798-4.21641.22512-1.14621.49121-2.10821.79828-2.84506l4.81,1.12575c-.30701.6345-.53219,1.39183-.67542,2.27196-.14329.85965-.20469,1.924-.20469,3.17255,0,2.29243.81871,4.15501,2.45619,5.52637,1.63742,1.4123,4.1755,2.10821,7.63461,2.10821,1.51462,0,2.84509-.16375,4.09361-.49123,1.24852-.3275,2.29241-.8392,3.1521-1.51463.88011-.67545,1.55559-1.51463,2.06729-2.53803.49121-1.00293.71639-2.19008.71639-3.52051,0-1.24855-.1228-2.31288-.36841-3.15208-.24561-.85965-.55261-1.61698-.94151-2.25148l4.6258-1.14621-.04116-.02049Z"/><path class="cls-3" d="m1029.47065,344.92771c-.1228-.6345-.22512-1.33043-.30701-2.06728-.10232-.71638-.16372-1.45323-.22512-2.19008s-.10232-1.45323-.14329-2.14915c0-.69591-.04091-1.33043-.04091-1.90353,0-1.3509.1228-2.70178.3889-4.01174.24561-1.30995.67542-2.4971,1.26901-3.52051.61402-1.04388,1.45321-1.8626,2.51759-2.4971,1.04389-.61405,2.39479-.94153,4.01172-.94153,2.3743,0,4.31873.55263,5.81292,1.65791s2.53802,2.59944,3.11112,4.44156l1.2895-2.02633,11.07322-6.65212v6.57024l-11.38023,6.59072-.53219,2.98833h11.91242v5.69012h-28.75759l-.00006.02049Zm4.38019-8.7194c0,.5731,0,1.14621.04091,1.71931,0,.5731.08189,1.00293.14329,1.30995h8.43283v-2.41523c0-1.57603-.36841-2.82459-1.06432-3.76611-.71639-.94153-1.924-1.4123-3.58191-1.4123-1.24852,0-2.21052.3889-2.90649,1.16668-.69591.77778-1.04389,1.90353-1.04389,3.3977h-.02043Z"/><path class="cls-3" d="m1043.7164,319.46545c-4.83043,0-8.57612-1.06433-11.17554-3.19301-2.59942-2.12868-3.92989-5.17841-3.92989-9.12875,0-2.06728.34798-3.86846,1.0848-5.44451.71639-1.55558,1.7398-2.82459,3.0907-3.84799,1.30999-1.04387,2.92692-1.80119,4.76903-2.29242,1.8626-.49124,3.90941-.73685,6.18133-.73685,4.85092,0,8.57612,1.06434,11.19603,3.21349,2.61991,2.12868,3.90941,5.17841,3.90941,9.10828,0,2.10821-.34798,3.92986-1.06432,5.48544-.71639,1.55558-1.76022,2.84506-3.07021,3.84799-1.33041,1.00293-2.92692,1.78073-4.76903,2.27196s-3.90941.75732-6.20182.75732l-.02049-.04094Zm0-5.97667c1.4737,0,2.8246-.1228,4.0527-.36843s2.29241-.6345,3.17252-1.14621c.88011-.53217,1.57602-1.16668,2.08772-1.9854.49121-.79825.73682-1.76025.73682-2.86553,0-2.02633-.79828-3.58191-2.35381-4.68719-1.59651-1.10528-4.13452-1.65791-7.69601-1.65791-1.39181,0-2.72222.1228-3.92989.34795-1.2281.24562-2.27192.61405-3.2135,1.10528-.9006.49123-1.61699,1.14621-2.14912,1.94446-.49121.79825-.75731,1.78073-.75731,2.9474,0,2.02633.81871,3.58191,2.4357,4.70766,1.61699,1.10528,4.15501,1.65791,7.59363,1.65791h.02055Z"/><polygon class="cls-3" points="1083.83379 296.47983 1079.18757 296.47983 1079.18757 308.78114 1077.36588 308.78114 1077.36588 296.47983 1072.76057 296.47983 1072.76057 294.84239 1083.83379 294.84239 1083.83379 296.47983"/><path class="cls-3" d="m1100.55616,308.78114h-1.76022v-11.66679l-4.05263,11.66679h-1.65791l-3.97081-11.87147-.04098,11.87147h-1.8012v-13.93875h2.76314l3.31581,9.86561s.14329.40935.36841,1.16668c.14329.42983.26609.73685.26609.92106l.7778-2.25148,3.3363-9.70185h2.45619v13.93874Z"/><polygon class="cls-3" points="637.83493 294.82192 728.79496 294.82192 728.79496 315.90401 665.03693 315.90401 665.03693 345.72596 723.69837 345.72596 723.69837 366.78759 665.03693 366.78759 665.03693 400.58035 730.71896 400.58035 730.71896 421.66244 637.83493 421.66244 637.83493 294.82192"/><polygon class="cls-3" points="830.35743 421.66244 783.79261 337.31359 783.44463 337.68202 783.44463 421.66244 757.98236 421.66244 757.98236 294.82192 791.69325 294.82192 837.99198 377.69707 838.36045 377.34911 838.36045 294.82192 863.80222 294.82192 863.80222 421.66244 830.35743 421.66244"/><path class="cls-3" d="m936.01351,294.82192h-43.16712v126.84054h43.16712c39.56472.34795,64.14687-19.3423,64.14687-63.43049s-24.58215-63.79892-64.14687-63.41004Zm-1.88309,105.75843h-14.08203v-83.69387h14.08203c32.29859-.36843,37.06761,21.1435,37.06761,41.34546s-4.76903,42.73729-37.06761,42.34841Z"/><polygon class="cls-3" points="382.10707 294.82192 484.8362 294.82192 484.8362 315.90401 447.07265 315.90401 447.07265 421.66244 419.87062 421.66244 419.87062 315.90401 382.10707 315.90401 382.10707 294.82192"/><path class="cls-3" d="m589.34611,367.97474c14.12294-5.17841,24.21368-18.85108,24.21368-34.93897,0-1.90353-.14329-3.78659-.40939-5.60824-1.76022-11.74866-8.04393-20.73413-18.60545-26.89502-1.2281-.77778-9.21062-5.71059-32.7898-5.71059h0c-.47076,0-.92106-.02046-1.37136,0h-53.83099v126.84053h27.20203v-50.35141h28.77811s17.76626,39.07352,20.07916,50.35141h33.46528l-26.69036-53.68769-.04091-.00002Zm-55.6117-51.6409h32.13484c10.78664.16375,17.54114,4.05268,18.74874,13.07908v.16375c.04091.30702.0614.6345.08189.94153.04091.30702.04091.6345.0614.94153v1.22808c-.10232,11.01181-7.10242,16.86567-18.91246,17.00895h-32.13484v-33.34246l.02043-.02046Z"/></svg>