<svg id="LOGO" xmlns="http://www.w3.org/2000/svg" viewBox="0 0 1250 703"><title>trimble-logo</title><path d="M491.05,316.3h36.08v17.22h.46c4.52-14.29,20.86-20,35.39-20v37.2c-5-1.81-9.76-3.17-15-3.17-12.25,0-16.11,3.17-20.2,8.84v73.72H491.05Z" fill="#005f9e"/><path d="M572.65,316.3H609.4V430.15H572.65Z" fill="#005f9e"/><path d="M621.83,316.3h36.76v15.19H659c7.73-11.58,19.29-17.93,32.45-17.93,11.12,0,22.23,7,22.91,17.93h.44c7.74-11.58,19.29-17.93,32.45-17.93,14.74,0,25.63,8,25.63,24.27v92.32H736.17V349.62c0-6.1-2-10.19-8.84-10.19a11.55,11.55,0,0,0-9.53,4.76l-2.06,2.7v83.26H679V349.62c0-6.1-2-10.19-8.84-10.19a11.64,11.64,0,0,0-9.55,4.76l-2,2.7v83.26H621.83Z" fill="#005f9e"/><path d="M785.26,268.65H822v54.22h.48c5.2-5.45,14.73-9.31,22.2-9.31,25.44,0,39,25.41,39,58.28,0,26.07-10.87,59.66-41.72,59.66-14.3,0-23.6-6.8-30.86-17.7l-6.83,16.35H785.26Zm36.77,125c-.66,9.51,5,14.74,12,14.74,10.21,0,11.57-10.22,11.57-31.3v-8.62c0-22.68,0-34.48-11.32-34.48-4.55,0-7.95,2.73-10.21,4.55l-2.06,2Z" fill="#005f9e"/><path d="M893.31,268.65h36.76v161.5H893.31Z" fill="#005f9e"/><path d="M976.4,377.94c0,10,2,27,16.55,27,8.86,0,16.31-6.35,18.59-15.67l24.73,9.06c-1.58,5.25-12.91,31.11-45.6,31.11-35.17,0-51-28.36-51-59.87,0-32.22,16.79-59.43,50.58-59.43,35.4,0,47.65,30.4,47.65,60.09v7.7Zm27.42-21.76c-.21-10.65-1.12-22.91-13.83-22.91-10.43,0-13.59,12.26-13.59,22.91Z" fill="#005f9e"/><rect x="572.54" y="267.94" width="36.86" height="32.77" fill="#005f9e"/><path d="M393.21,268.05H507.1v31.3H470.57v130.8H429.73V299.35H393.21Z" fill="#005f9e"/><path d="M319.29,389.64A25.37,25.37,0,0,1,317,396.4a5.18,5.18,0,0,0-.56,2.17c-1.55,1.54-2.65,2.48-3,2.73A69.8,69.8,0,0,1,266,418.51L250.25,427a80.48,80.48,0,0,0,41-1.68,78.76,78.76,0,0,0,28.94-16.08,80.13,80.13,0,0,0,18.85-24,88.35,88.35,0,0,0,3.63-8.26Z" fill="#005f9e"/><path d="M264.09,278.54c.55,0,1.13,0,1.7-.05,1,0,2.09,0,3.13,0a36.28,36.28,0,0,0-5.32,1.69l14.06,7.62a39.9,39.9,0,0,1,29.57,12.46c-1.71.16-3.48.4-5.28.69l23.8,12.9c-.05-.26-.08-.53-.13-.8a11.79,11.79,0,0,1,2.52,2.09L344,323.72c-.19-.6-.35-1.19-.55-1.79a6,6,0,0,0-.47-1c-.17-.5-.31-1-.49-1.52-4.57-13-13.32-24.42-24.41-33.17a5.09,5.09,0,0,0-1-1.14,79.94,79.94,0,0,0-42.87-16.8l-1.35-.07a73.62,73.62,0,0,0-15.7.43l-.93.16c-2.23.31-4.18.67-5.75,1s-2.75.66-4,1l14.65,7.93C262.07,278.72,263.08,278.59,264.09,278.54Z" fill="#005f9e"/><path d="M202.43,374.61a72.5,72.5,0,0,1-4.22-15.27,80.89,80.89,0,0,1-.81-12.85,45,45,0,0,1,.56-7.08,71.19,71.19,0,0,1,5-18.12V300.43a76.65,76.65,0,0,0-7,11.29,81.34,81.34,0,0,0-8.21,26,55.86,55.86,0,0,0-.7,8.86,87.63,87.63,0,0,0,.89,13.94,81.62,81.62,0,0,0,5.87,20.22A84.25,84.25,0,0,0,201,393.9a5.12,5.12,0,0,0,.81,1.14c.34.48.72,1,1.08,1.45V373.36C202.77,373.78,202.58,374.2,202.43,374.61Z" fill="#005f9e"/><path d="M321.93,336.88a31.38,31.38,0,0,1-3.45,4.56,107.56,107.56,0,0,1,8.95,21.46c.8-1.07,1.58-2.15,2.29-3.29,6.33-10.39,7.43-23.09,3.19-35.86a5.48,5.48,0,0,1-.7-1.31c-.38-1.08-.86-2.12-1.3-3.18a5.31,5.31,0,0,1-1.17-1.65,9.06,9.06,0,0,0-1.6-2.46l-2.39-1.29A31.71,31.71,0,0,1,321.93,336.88Z" fill="#005f9e"/><path d="M258.87,279a4.51,4.51,0,0,1-.73,0,55.6,55.6,0,0,0-9.93,2.37,66.16,66.16,0,0,1,8.24,2.54,35.23,35.23,0,0,1,7.15-3.76l-2.55-1.38C260.33,278.88,259.6,278.91,258.87,279Z" fill="#005f9e"/><path d="M342.64,377l49.87-27L344,323.72A79.31,79.31,0,0,1,342.64,377Z" fill="#005f9e"/><path d="M274,288.09h0a30.47,30.47,0,0,0-5.74,1.38,116.7,116.7,0,0,1,20.32,14.66A97,97,0,0,1,302,301l-24.29-13.15A31.33,31.33,0,0,0,274,288.09Z" fill="#005f9e"/><path d="M297.6,390.37c-27.68,3.86-57.05-9.11-74.13-30.61-6.42,7.77-10.89,15.51-12.5,22.4a18.76,18.76,0,0,0-.43,7.17c1.12,1.55,2.35,3.11,3.77,4.81A70,70,0,0,0,266,418.51l53.3-28.87a36.75,36.75,0,0,0,.68-6.71A62.33,62.33,0,0,1,297.6,390.37Z" fill="#005f9e"/><path d="M224.89,342.78a163.32,163.32,0,0,1,21.4-17.55c-.52-1.14-1-2.28-1.41-3.46v0c-3.48-9.93-2.61-20,2.44-28.24.3-.5.66-.94,1-1.42a37.82,37.82,0,0,0-15.81-1.56,39,39,0,0,0-13.26,29.76A48,48,0,0,0,222,336.2,56.32,56.32,0,0,0,224.89,342.78Z" fill="#005f9e"/><path d="M254.69,318.33c.14.39.32.77.47,1.16a166.17,166.17,0,0,1,22.22-11.28,97.7,97.7,0,0,0-19-12.19,22.19,22.19,0,0,0-2.18,2.9c-3.4,5.58-3.93,12.47-1.5,19.41Z" fill="#005f9e"/><path d="M295.22,342.29a27.93,27.93,0,0,0,9.68-3.16A130.62,130.62,0,0,0,286.08,316q-1.86.68-3.75,1.44a151.28,151.28,0,0,0-21.79,11.06C268.71,338.24,282.33,344.09,295.22,342.29Z" fill="#005f9e"/><path d="M226.25,279.37a80.09,80.09,0,0,1,20.15-8.49l-43.47-23.55v53.1A80.55,80.55,0,0,1,226.25,279.37Z" fill="#005f9e"/><path d="M313.06,331.47c3.41-5.58,3.94-12.47,1.51-19.41h0c-.21-.59-.47-1.17-.72-1.75a65.08,65.08,0,0,0-16.55,2.18,142.23,142.23,0,0,1,15.46,19.43C312.85,331.76,313,331.62,313.06,331.47Z" fill="#005f9e"/><path d="M296.16,380.09a50.28,50.28,0,0,0,22.55-8.74,91.82,91.82,0,0,0-8.62-23.22,38.39,38.39,0,0,1-13.44,4.45c-16.71,2.33-34.4-5.5-44.78-18.45A157.07,157.07,0,0,0,230.55,352C245.15,371.54,271.41,383.54,296.16,380.09Z" fill="#005f9e"/><path d="M217.37,350.77a65.55,65.55,0,0,1-5.13-11.13h0a55.15,55.15,0,0,1-1.91-31.72,66.3,66.3,0,0,0-5.14,8.47h0c-.88,1.73-1.6,3.34-2.26,4.89v52.07C205.87,366,210.85,358.33,217.37,350.77Z" fill="#005f9e"/><path d="M333.37,372.08a48.24,48.24,0,0,1-3.38,3.48c.15,1.3.25,2.57.32,3.84A74.4,74.4,0,0,0,333.37,372.08Z" fill="#005f9e"/><path d="M206.34,400.82c-1.25-1.5-2.35-2.92-3.41-4.33v56.18L250.25,427c-1.73-.38-3.48-.8-5.25-1.3A80.8,80.8,0,0,1,206.34,400.82Z" fill="#005f9e"/><path d="M347.31,418.73a12.72,12.72,0,1,1,12.75,12.46A12.56,12.56,0,0,1,347.31,418.73Zm2.42,0a10.31,10.31,0,1,0,10.33-9.88A10.09,10.09,0,0,0,349.73,418.73Zm16.68,7H364l-4.09-6.39h-2.48v6.39h-2.1V411.86h6.21a7,7,0,0,1,3.47.67,3.41,3.41,0,0,1,1.57,3c0,2.75-1.94,3.76-4.48,3.82Zm-6.69-8.11c2,0,4.74.36,4.74-2.13,0-1.79-1.57-2-3.35-2h-3.69v4.16Z" fill="#005f9e"/><path d="M1037.57,418.73a12.72,12.72,0,1,1,12.76,12.46A12.56,12.56,0,0,1,1037.57,418.73Zm2.42,0a10.31,10.31,0,1,0,10.34-9.88A10.09,10.09,0,0,0,1040,418.73Zm16.68,7h-2.42l-4.09-6.39h-2.47v6.39h-2.11V411.86h6.22a6.94,6.94,0,0,1,3.46.67,3.38,3.38,0,0,1,1.57,3c0,2.75-1.94,3.76-4.48,3.82ZM1050,417.6c2,0,4.75.36,4.75-2.13,0-1.79-1.57-2-3.36-2h-3.68v4.16Z" fill="#005f9e"/></svg>