<?xml version="1.0" encoding="UTF-8"?>
<svg id="EXAMPLES_TURN_OFF_" data-name="EXAMPLES (TURN OFF)" xmlns="http://www.w3.org/2000/svg" viewBox="0 0 1250 703">
  <defs>
    <style>
      .cls-1 {
        fill: #00263e;
      }
    </style>
  </defs>
  <path class="cls-1" d="M567.11,428.69v-116.97h37.9l3.08-20.78h-104.85v20.78h39.06v116.97h24.82ZM684.85,430.43c30.97,0,47.71-13.85,47.71-46.56v-92.92h-24.82v92.54c0,15.78-3.27,26.93-24.43,26.93h-5.58c-21.17,0-24.63-11.16-24.63-26.93v-92.54h-24.82v92.92c0,32.71,16.93,46.56,47.9,46.56h8.66ZM856.27,428.69v-20.59h-64.25v-117.16h-24.82v137.75h89.07ZM907.83,428.69v-137.75h-24.82v137.75h24.82ZM969.2,428.69v-54.06h27.52c30.59,0,43.29-10.39,43.29-35.78v-10.39c0-28.86-11.35-37.52-44.44-37.52h-51.18v137.75h24.82ZM1014.99,338.46c0,12.31-3.07,15.97-20.78,15.97h-25.01v-43.29h25.01c18.09,0,20.78,4.23,20.78,17.32v10Z"/>
  <g>
    <path class="cls-1" d="M432.21,284.63v98.49l-98.49,98.49v-98.49l98.49-98.49Z"/>
    <path class="cls-1" d="M308.49,383.11v98.49l-98.49-98.49v-98.49l98.49,98.49Z"/>
    <path class="cls-1" d="M390.78,291.06l-69.71,69.63-69.63-69.63,69.71-69.66,69.63,69.66Z"/>
  </g>
</svg>