<?xml version="1.0" encoding="UTF-8"?><svg id="LOGO" xmlns="http://www.w3.org/2000/svg" viewBox="0 0 1250 703"><defs><style>.cls-1{fill:#d1d5dd;}.cls-1,.cls-2,.cls-3,.cls-4,.cls-5,.cls-6,.cls-7,.cls-8,.cls-9,.cls-10,.cls-11,.cls-12,.cls-13,.cls-14,.cls-15,.cls-16,.cls-17,.cls-18,.cls-19,.cls-20,.cls-21,.cls-22,.cls-23,.cls-24,.cls-25,.cls-26,.cls-27,.cls-28,.cls-29,.cls-30,.cls-31,.cls-32,.cls-33,.cls-34,.cls-35,.cls-36,.cls-37,.cls-38,.cls-39,.cls-40,.cls-41,.cls-42,.cls-43,.cls-44{stroke-width:0px;}.cls-2{fill:#bdbdbd;}.cls-3{fill:#2a4e82;}.cls-4{fill:#f5f7f8;}.cls-5{fill:#24437b;}.cls-6{fill:#9b9198;}.cls-7{fill:#113c7b;}.cls-8{fill:#d9dee5;}.cls-9{fill:#c7cdd9;}.cls-10{fill:#e1e4e9;}.cls-11{fill:#bcc4d1;}.cls-12{fill:#1c3d7a;}.cls-13{fill:#cdd3da;}.cls-14{fill:#d3d8df;}.cls-15{fill:#aeb8c8;}.cls-16{fill:#e7e9ed;}.cls-17{fill:#bfc6d3;}.cls-18{fill:#c5cbd6;}.cls-19{fill:#193f79;}.cls-20{fill:#1a407b;}.cls-21{fill:#1d457d;}.cls-22{fill:#ccc;}.cls-23{fill:#c3cad6;}.cls-24{fill:#fff;}.cls-25{fill:#203e78;}.cls-26{fill:#7aafd2;}.cls-27{fill:#124a88;}.cls-28{fill:#dadde2;}.cls-29{fill:#0e4381;}.cls-30{fill:#b5bdcc;}.cls-31{fill:#e2e6eb;}.cls-32{fill:#0e3f7d;}.cls-33{fill:#2d71b4;}.cls-34{fill:#1a427d;}.cls-35{fill:#e4e7ed;}.cls-36{fill:#b8c0ce;}.cls-37{fill:#c9cfd9;}.cls-38{fill:#f0f1f4;}.cls-39{fill:#163e7b;}.cls-40{fill:#d6dbe3;}.cls-41{fill:#eaecf0;}.cls-42{fill:#fafbfb;}.cls-43{fill:#cdd4dc;}.cls-44{fill:#cbd6e1;}</style></defs><path class="cls-24" d="m908.72164,216.45597c0,63.63525,0,127.27049-.49088,191.42369-181.05125.51793-361.61168.51793-542.28153.51793v75.49841c2.69074,0,4.94161.00003,7.19247.00003,100.09388,0,200.18776.00685,300.28165-.00224,78.43275-.00714,156.86553-.03402,235.29828-.0521v7.33712c-188.64271.00096-377.2854.00096-566.07835.00096V211.21311c7.26279,0,14.599,0,22.42709.44639.52615,1.93356.56042,3.42074.55068,5.39064-.04401,11.25909-.04401,22.03546-.04401,33.44236h37.93626v149.05941h37.88746v-148.94507h37.39651v149.00923h118.60479v-149.00155h42.09481v148.91232h37.80937v-148.99566h42.92308v149.10241h37.44393c0-61.26517,0-122.20813.49315-183.16067,50.51383-.01203,100.53454-.01448,150.55522-.01694Z"/><path class="cls-42" d="m908.72164,411.49027c0,3.87227,0,7.74456-.4887,12.09985-180.45388.47803-360.41902.47305-540.42849-.0148-.0443-4.25585-.0443-8.02881-.0443-12.26667h7.46686c175.73867,0,351.47733-.00062,527.216.00754,2.09285.0001,4.18577.11354,6.27863.17408Z"/><path class="cls-15" d="m908.72164,474.40456c0,2.14151,0,4.28302-.49139,6.88394-180.30972.45939-360.12797.45939-540.55923.45939,0-2.9141,0-5.13462.48362-7.35034,180.51141.00554,360.53919.00627,540.56699.00701Z"/><path class="cls-2" d="m367.67103,474.39273c0,2.22053,0,4.44105,0,7.35515,180.43126,0,360.24951,0,540.55923-.00166.49139.46438.49139.9304.49139,1.74598-78.43275.36758-156.86553.39446-235.29828.4016-100.09389.00909-200.18777.00224-300.28165.00224-2.25086,0-4.50173-.00003-7.19247-.00003v-75.49841c180.66985,0,361.23027,0,542.28153-.02651.49088.7599.49088,1.54633.49088,2.72597-2.09285.33267-4.18577.21923-6.27863.21914-175.73867-.00816-351.47733-.00754-527.216-.00754h-7.46686c0,4.23785,0,8.01081-.01058,12.72222.0203,3.06906.05118,5.19971.02895,7.81208-.02765,4.00552-.00219,7.52933-.01966,11.52029-.02841,2.95444-.01389,5.44172-.02924,8.3812-.0161,2.25671-.00233,4.06123-.00621,6.25921-.00954,1.18043-.00143,1.96742-.00883,3.14776-.00893,1.18015-.00234,1.96694-.02051,3.10379-.01662.81803-.00849,1.28596-.01075,2.10303-.00593.81448-.00148,1.27982-.00493,2.13876-.00471,1.18052-.00153,1.96745-.00511,3.14723-.00526,1.17807-.00376,1.9633-.00226,2.74852Z"/><path class="cls-22" d="m365.66508,216.56741c-.03427-1.48718-.06855-2.97435-.10314-4.90791,181.05303-.44639,362.10637-.44639,543.15971-.44425v4.71655c-50.02068.52663-100.04139.52909-151.04313.52973-66.67965.00578-132.37818.01338-198.57153.01103-14.53714-.00273-28.57949.0045-43.10884.00836-50.43569.02658-100.38438.05654-150.33307.0865Z"/><path class="cls-4" d="m367.83163,431.36121c-.03088-2.13063-.06176-4.26128-.03777-6.84746,180.02005-.45057,359.9852-.4456,540.43908-.44062.4887,1.45635.4887,2.91271-.00269,4.8058-21.12234.43392-41.7532.43112-62.82693.40635-1.91714-.00654-3.39138.00886-5.26519-.1523-2.28178-.40609-4.16376-.83417-6.04618-.8359-41.76596-.03808-83.53202-.05432-125.29783.02875-2.7301.00544-5.4585.84044-8.49056,1.40843-1.36179.28595-2.42073.45304-3.71272.61379-.23305-.00635-.6992-.0157-.80588-.42816-1.33059-.82528-2.55314-1.59353-3.77848-1.59798-20.49809-.07451-40.99659-.07154-61.49474-.01126-1.29219.00381-2.58258.62033-4.29006.95651-1.52739.00616-2.63852.00763-4.06712-.29245-16.39883-.43171-32.48013-.59233-48.56157-.60545-.83643-.00069-1.6739,1.25627-2.80727,1.94646-.49368.0025-.69099-.01376-.96048-.15237-.37891-.27112-.62296-.2155-1.18531.02131-1.1422-.08059-1.90342-.13795-2.9789-.40862-2.30271-.08605-4.29115.04122-6.60594.18174-.74934.10128-1.17231.18931-1.88692.24761-.47736.03098-.6631.09168-1.08944.15526-.24061.00286-.72176.01266-.81712-.40389-1.83551-.8406-3.57325-1.62086-5.3162-1.63268-14.61959-.09923-29.24011-.05746-44.17699-.04637-.52584.04008-.73505.06834-1.37934.06646-3.12139.35915-5.80773.74844-8.91534.95171-10.67243-.46646-20.92293-.78195-31.1757-.97657-1.10184-.02091-2.21701.66101-3.77445.99803-2.2439-.01635-4.03935-.01386-6.14462-.32021-12.32669-.44917-24.34355-.5895-36.63914-.73017-.46386.01554-.64901.03138-1.22214.01734-1.4201.02219-2.4522.07429-3.81895.26209-.54681,1.06057-.75898,1.98543-1.34469,2.8978-1.55119-.34057-2.72883-.66864-4.32532-1.07755-6.33567-1.58689-12.0804-1.81764-17.69164,2.10658-7.46086-.4268-14.48318-.7694-21.50549-1.11203Z"/><path class="cls-30" d="m368.15465,474.39755c-.48512-.79003-.48663-1.57526.00092-2.75032,180.51473-.38937,360.54039-.38888,540.56607-.38838v2.7525c-180.0278.39248-360.05559.39174-540.56699.38621Z"/><path class="cls-36" d="m908.72164,470.86563c-180.02569.39272-360.05135.39222-540.55931.38873-.48547-.78993-.48865-1.57686-.00248-2.7534,180.5135-.38902,360.53764-.38843,540.56179-.38784v2.7525Z"/><path class="cls-17" d="m367.6937,466.0091c-.00813-.46795-.01626-.93588.48511-1.74882,85.88322-.34381,171.25693-.34254,256.63064-.342,1.22207.00002,2.6389.38093,3.61864-.10866,1.32646-.66289,2.31769-1.99663,3.57061-3.27082.32845-.51523.60409-.71024,1.04169-.41633,4.22725,4.68827,8.77916,3.01146,13.54337,1.65906,1.18831.58093,2.1645.83451,3.49042,1.08841.81561.00021,1.28153.00011,2.0558.31139,2.38194.45325,4.4555.71864,6.52916.71916,83.35417.02104,166.70834.01816,250.06251.01834,0,.46609,0,.93217-.48512,1.7477-180.50434.34715-360.52358.34485-540.54282.34256Z"/><path class="cls-11" d="m367.68332,466.35822c180.02962-.34683,360.04886-.34453,540.5532-.34224.48512.46603.48512.93208.48512,1.74762-180.02415.34893-360.04829.34833-540.55389.34377-.48591-.46934-.49036-.93468-.48443-1.74916Z"/><path class="cls-18" d="m651.82163,462.86997c-.46592.0001-.93184.00019-1.80863-.36814-1.18889-.87512-1.9669-1.38177-2.6293-2.20329.81363-1.12248,1.51158-1.93014,2.62021-2.55826.89369.37566,1.37596.74129,1.85983.74344,17.94146.07939,35.88324.16038,53.82418.07522.93299-.00443,1.859-1.46484,3.11509-2.35983.7816-.06653,1.23641-.02062,1.76409.45616,2.97368,2.7972,5.77172,3.29576,8.7519-.08205,1.18284-.01126,1.9733.03442,2.86392.48966,6.11101.62744,12.12155.85872,18.13419,1.00347.19632.00474.41385-.87222,1.011-1.42835,1.18588-.02939,1.98226.03138,2.88335.49168,4.3604,1.81916,8.62233,3.31978,12.9059-.61477,1.89625.02432,3.35519.10717,4.91652.59168.81955.78526,1.5351,1.49995,2.25413,1.50348,14.24112.07006,28.48301.09827,42.72343-.02069,1.04905-.00877,2.08828-1.19875,3.48386-1.90377.8239-.03298,1.29609-.00176,1.85254.40185,2.34313,1.94322,4.53502,2.97236,6.53373-.46952.82252-.02448,1.29683.03936,1.8734.50153,3.97662,1.82121,7.84221,3.1069,11.75662-.38589.82534-.04339,1.29932-.02741,1.87926.39251,7.40394.66321,14.70144.94393,22.00154,1.10646.30473.00678.63405-1.08956,1.38489-1.7327,1.8853-.06739,3.33762-.07405,4.87329.34317,1.78098.89336,3.47538,1.75622,5.17678,1.77014,13.63073.11152,27.26267.06262,40.89429.06282,0,.78643,0,1.57286-.49139,2.7525-83.63631.39321-166.78114.38533-249.92596.43712-2.16111.00134-4.32177.65494-6.48266,1.00436Z"/><path class="cls-23" d="m652.12998,463.18134c1.85254-.6608,4.0132-1.31439,6.17431-1.31574,83.14483-.05179,166.28965-.0439,249.92596-.0439.49139.46603.49139.93208.49139,1.74762-83.35417.34934-166.70834.35222-250.06251.33118-2.07366-.00053-4.14721-.26592-6.52916-.71916Z"/><path class="cls-38" d="m845.84617,429.30725c20.63089.0028,41.26174.0056,62.38408.00858.49139,1.45651.49139,2.91287.00026,4.80849-5.83479.44013-11.18472.30096-16.51769.53893-1.35481.06045-2.65605,1.32017-4.39089,1.98804-1.21094-.21506-2.01279-.38929-3.0005-.71257-.72025.04938-1.25459.24776-2.03404.57393-.60288.20256-.96076.27736-1.84428.32813-.8759-.00208-1.22604.01987-1.93906-.03778-1.5966-.06882-2.83036-.05802-4.2403-.43869-3.87096-2.60504-7.42634-3.04624-11.05947.34717-1.15795-.25064-1.92972-.4143-3.05663-.76396-4.41237-.73052-8.46966-1.27505-12.6443-1.83534-.55197-1.60038-1.10457-3.20264-1.65718-4.80492Z"/><path class="cls-10" d="m887.73095,436.69209c1.32582-.70868,2.62706-1.96841,3.98187-2.02886,5.33297-.23797,10.6829-.0988,16.51769-.10202.49113,3.52216.49113,7.04672.00237,11.05118-6.1274.13139-11.76597-.21715-17.50988-.95568-1.06758-2.91487-2.02982-5.43974-2.99205-7.96464Z"/><path class="cls-13" d="m908.72164,458.25656c-13.63162.41923-27.26356.46813-40.89429.35661-1.7014-.01392-3.39579-.87678-4.90807-1.98956,2.12242-2.53996,4.0595-4.43664,6.38922-6.3345,1.51468-.70915,2.63669-1.41708,4.01128-2.12413.25261.0009.75766.01557.87945.40072.05987,1.18473-.00202,1.98433-.34608,3.00648-.04022,1.48164.20173,2.74071.74073,4.12299,1.72338-.66457,3.14968-1.45236,5.00123-2.24693,2.23474-1.04728,4.04421-2.08775,5.92074-2.71594.29286,2.13052.51872,3.84875.81107,6.07245,1.93465-1.00256,3.21554-1.66633,4.99127-2.32788,6.13105.00309,11.76725.00395,17.40345.00483v3.77486Z"/><path class="cls-8" d="m890.82828,445.04673c5.63863.34853,11.2772.69707,17.4046,1.046.48877,1.45675.48877,2.91311-.00166,4.80611-6.12388.44401-11.75726.45136-17.49324.01541-.03834-2.25137.02598-4.05944.0903-5.86751Z"/><path class="cls-1" d="m890.8405,451.35754c5.63345-.00734,11.26683-.01469,17.39071-.02179.49043.78667.49043,1.5731.49043,2.75274-5.6362.39233-11.2724.39147-17.50085.00403-.5216-1.16937-.45094-1.95218-.38029-2.73498Z"/><path class="cls-33" d="m365.62107,217.05014c49.99271-.51269,99.9414-.54264,150.40316-.08117.51309,50.0171.51309,99.54276.51309,149.1068h43.06447v-149.59326c65.69855-.0076,131.39708-.01521,197.58355-.01142.48793,60.95436.48793,121.89732.48793,183.16249h-37.44393v-149.10241h-42.92308v148.99566h-37.80937v-148.91232h-42.09481v149.00155h-118.60479v-149.00923h-37.39651v148.94507h-37.88746v-149.05941h-37.93626c0-11.4069,0-22.18326.04401-33.44236Z"/><path class="cls-23" d="m631.88085,460.76705c-1.13507,1.04595-2.12629,2.37969-3.45275,3.04258-.97974.48958-2.39657.10867-3.61864.10866-85.37371-.00054-170.74742-.00181-256.60589-.00808-.49133-.79187-.49792-1.57865-.00544-2.75314,88.22695-.38848,175.95483-.38923,263.68272-.39001Z"/><path class="cls-9" d="m631.99871,460.53882c-87.84575.22901-175.57363.22976-263.78507.22486-.49166-.79264-.49978-1.57963-.00784-2.75362,4.84956-.38555,9.20561-.236,13.54658-.42784,3.71038-.16397,7.40346-.71961,11.5075-1.07929,2.92164.1087,5.43998.19469,8.0728.67925,2.07324.76366,4.03177,1.44644,5.99082,1.44791,72.50882.05446,145.0177.04402,217.52657.05299,2.79333.00034,5.58666.10491,8.33846.3911-.04154.23016-.24502.65134-.24502.65134-.3407.10304-.61635.29805-.9448.81329Z"/><path class="cls-16" d="m367.77852,431.84295c7.07543-.13912,14.09774.20349,21.4488.95955-.70235,2.25609-1.73346,4.09875-3.05318,6.22173-.60887,3.1736-2.12844,4.17824-5.08388,3.99213-4.4145-.27803-8.85756-.10274-13.28847-.12029-.02546-3.52379-.05092-7.0476-.02327-11.05312Z"/><path class="cls-28" d="m367.75886,443.36323c4.47384-.44961,8.9169-.62491,13.3314-.34688,2.95544.18611,4.47502-.81852,5.14005-3.53221.39663,3.20235.44849,6.22513.50435,9.54919.24334.60726.48267.9132.9037,1.41505.22923.36758.27675.53926-.18835.76158-6.90525.0612-13.29789.07173-19.69052.08226-.01452-2.48727-.02904-4.97455-.00063-7.92899Z"/><path class="cls-13" d="m367.72962,451.74443c6.4225-.46273,12.81514-.47326,19.9885-.32582,2.2333,1.79252,3.68588,3.42706,5.13845,5.06159-3.70073.38241-7.3938.93806-11.10419,1.10203-4.34097.19184-8.69702.04229-13.52892.0344-.49616-1.81097-.50994-3.61549-.49384-5.8722Z"/><path class="cls-24" d="m559.10699,216.47255c.4948,49.75524.4948,99.50052.4948,149.60322h-43.06447c0-49.56404,0-99.0897-.02608-149.10343,14.01626-.49529,28.05862-.50252,42.59575-.4998Z"/><path class="cls-38" d="m700.60641,429.6154c2.7292-.44913,5.45761-1.28414,8.18771-1.28958,41.7658-.08307,83.53186-.06683,125.29783-.02875,1.88242.00173,3.7644.42981,5.90378,1.1859-1.04828,2.77335-2.35372,5.02014-3.99752,7.19749-.79478-.12634-1.25116-.18325-1.77145-.55814-.74406-.7234-1.42425-1.12883-2.2501-1.82234-2.66744-2.01462-4.44571-1.71001-5.59726,1.3666-3.17775-.68456-6.32583-3.19224-8.2912,1.30486-1.61609-.46549-2.91103-.82192-4.55393-1.23683-.98697.1381-1.62601.33467-2.64869.66598-1.16223.36787-1.94079.60105-2.78962.38214-3.38671-3.15258-6.58151-3.65997-9.89423.01014-.8104-.19797-1.26793-.33329-1.92694-.6752-1.07587-.09197-1.9502.02264-3.16008.27049-.80115.25264-1.26675.37205-1.8126.11053-1.88188-2.76831-3.30885-2.76176-4.7428.22355-4.68516-.05778-8.88937-.06558-13.18609-.47579-3.74923-2.38127-7.2784-2.9466-10.89781.46342-2.89189.06182-5.32887.19144-7.85757-.10432-2.86655-2.89327-5.44718-3.50659-7.92566.26392-1.11363-.19786-1.86073-.30312-2.74821-.67597-.70672-1.06156-1.27308-1.85554-2.15289-2.79167-.52173-.23837-.72998-.33461-1.11088-.58105-.70259-.00398-1.23257.14221-2.05052.42784-.48877.21142-.68953.28342-1.25929.48291-2.55228,1.04236-4.73556,1.95721-7.31261,2.875-1.4398.05438-2.48585.10582-3.6811-.23125-2.77436-2.23895-5.3355-3.37114-7.88905.25342-1.52684-.02744-2.63637-.04432-3.84779-.46251-3.78779-.80523-7.4737-1.20911-11.3851-1.90398-1.03312-1.74292-1.84073-3.19488-2.64834-4.64683Z"/><path class="cls-31" d="m454.68882,429.306c1.79544-.00251,3.59089-.00501,5.83933.44153.19392,3.88402,2.02242,4.76561,5.16748,4.89863,3.34039.1413,6.65244.9531,9.59794,1.60908-3.1539.27856-5.92889.42014-9.08438.74521-.59466,2.80682-.80883,5.43015-1.02669,8.312-.0037.25853-.01383.77555-.42965.77668-1.52334-.00062-2.63085-.00238-3.74658-.4204-.30708-2.23143-.60595-4.04665-.9762-6.27212-1.43877-1.16004-2.80616-1.90983-4.52961-2.41722-.55834,3.86858-.7606,7.49477-1.3909,11.15352-3.50035.47339-4.89865-.676-4.68072-3.94701.09517-1.42838-.58059-2.90813-1.12966-4.69896-3.92353-4.97115-8.33943-3.10707-12.94234-1.53374-.05758,1.20276.12311,2.23065.70936,3.18175,2.66226-.17293,4.91895-.26905,7.13751.01645-.04862,1.14848-.0591,1.91529-.44299,2.81272-2.57724.81192-4.78108,1.49324-7.4184,2.15036-2.177-.03686-3.9205-.04949-5.70033-.47681-.38696-2.20137-.7376-3.98801-1.28908-6.11293-3.21968-4.86529-7.22769-2.82407-11.44721-1.4563v-9.75426c.18515-.01586.37029-.0317.83289.40579-.0429,3.37159.75736,4.92841,4.20174,4.86028,9.55394-.18896,19.11636-.18406,28.6705-.00016,3.30285.06358,4.41016-1.23318,4.07799-4.27411Z"/><path class="cls-38" d="m626.63793,429.26245c1.29123-.33147,2.58162-.948,3.87381-.9518,20.49815-.06027,40.99666-.06325,61.49474.01126,1.22534.00445,2.44789.7727,3.7901,1.96436.16266,1.0187.20694,1.25857.27856,1.76753-.21622.73884-.45968,1.20863-1.23027,1.61574-22.73197-.09507-44.93683-.12749-67.14393-.53075-.35584-1.53935-.70944-2.70784-1.063-3.87634Z"/><path class="cls-38" d="m506.08506,428.26592c14.62026.0007,29.24079-.04107,43.86037.05816,1.74295.01182,3.48069.79208,5.40076,1.83874.33329.88899.54982,1.08592.88099,1.60751.00909,1.18571-.03333,1.97732-.54517,2.77527-3.96152.0096-7.47-.18155-10.9377.11101-1.40318.11838-2.71732,1.29247-4.43139,1.89034-.84532-.19403-1.33124-.29225-2.07382-.68483-6.50461-.57963-12.75132-.91024-19.0024-1.0755-.58465-.01544-1.19692,1.01385-2.11055,1.58599-.91924-.11419-1.5243-.25627-2.54061-.61091-2.90944-.75344-5.40764-1.29435-8.50049-1.96401v-5.53178Z"/><path class="cls-32" d="m557.45979,430.23511c.42299-.08803.84596-.17606,2.04809-.12144,2.67522.05366,4.57134-.03533,6.46744-.12434.7612.05736,1.52241.11472,2.87591.29297.59232.12088,1.04619.00336,1.04619.00336.19731.01627.39462.03253,1.14894.27952,2.35426,1.79868,4.15153,3.36664,6.03943,5.12703.20854.45061.33101.70659.48798,1.34748.36649,1.87564.70302,3.36418.96513,5.28483-.14712,2.18405-.21984,3.936-.54461,5.92501-1.79137,2.19722-3.33069,4.15737-5.20075,6.22508-1.17444.47344-2.01817.83936-3.10475,1.17683-.24288-.02842-.68065.1897-1.16382.20059-4.04139-.06117-7.5996-.13323-11.16118-.70398.02978-8.63676.0629-16.77486.096-24.91295m16.35385,15.29889c-.1908-2.19706-.38158-4.39411-.66398-7.39701-2.12081-5.31003-6.57164-3.5099-11.03394-3.48514-.13835.30784-.27672.61568-.57539,1.86961.0729,3.19239.14579,6.38479.00939,10.48248v4.95759c8.61748.86108,10.07564.09906,11.75333-5.80289,0,0-.03632-.08128.51059-.62465Z"/><path class="cls-39" d="m695.37197,433.7322c.24349-.46977.48694-.93956.94342-1.84212.31152-.80041.41001-1.16804.50851-1.53571,1.05894-.16709,2.11788-.33417,3.47967-.62013,1.11046,1.3331,1.91807,2.78506,2.95848,4.89963,1.59747,3.91806,2.96216,7.17354,4.29969,10.72008.26985.76299.56681,1.23489.85152,1.74758-.01229.04077.06477.07701.06378.45536.99808,2.67949,1.99711,4.98063,2.87599,7.45939-.3664.5211-.61261.8646-.85881,1.20809-.45478-.0459-.9096-.09181-1.96354-.13555-1.152-.19117-1.70479-.38448-2.29461-.87491-.28038-.59993-.52377-.90275-.78086-1.59987-.60025-2.99944-1.64431-4.94387-4.90263-4.38814-2.96018.50485-6.75399-1.53334-8.04259,3.43624-.8896,3.43088-3.06315,4.85464-6.00333,1.54851.74716-1.13822,1.30159-2.00748,2.079-3.14767.57629-1.37547.92963-2.48001,1.54175-3.89035.79206-2.60468,1.32534-4.90355,2.07276-7.20979.21411-.00736.50643-.32067.80972-.39593.44323-.66742.58313-1.25961.96976-2.12284.62861-1.41799,1.01049-2.56493,1.39235-3.71187m4.00613,4.37963c-1.27795,2.11092-2.55589,4.22184-4.13928,6.8373h7.12474c-.95024-2.41879-1.70646-4.34369-2.98546-6.8373Z"/><path class="cls-38" d="m576.99515,435.4998c-1.79726-1.56796-3.59453-3.13592-5.65241-4.95335.57635-.92092,1.41382-2.17788,2.25025-2.17719,16.08143.01312,32.16274.17374,48.54896.87608.30243.75244.29993.93272.00227,1.38001-1.9215,1.13963-3.534,2.73695-5.17643,2.76834-11.5127.22003-23.03292.03059-34.54718.206-1.81772.0277-3.61742,1.2371-5.42546,1.90012Z"/><path class="cls-34" d="m393.25987,456.50294c-1.85588-1.65727-3.30845-3.29181-5.02913-5.13499-.31563-.3803-.36315-.55198-.59393-1.22092-.42423-.80318-.6652-1.10908-.90617-1.415-.05185-3.02275-.1037-6.04553-.21172-9.52821.97494-2.30257,2.00605-4.14523,3.14695-6.31714,5.28249-4.33766,11.02722-4.10691,17.40391-2.09129,1.04136,4.35478-.93281,3.58955-3.46463,3.00213-7.94756-1.84402-10.73384-.14998-12.17862,7.07405-.07184,1.35329.05295,2.43401.09735,3.69366-.0804.17894.13167.50907.08111.90619,2.07595,6.63655,5.13445,8.24694,11.89122,6.66191,1.66204-.3899,3.72556-2.17863,4.01924,1.62084-2.21406,1.23187-4.25565,2.13065-6.29724,3.02943-2.51834-.08597-5.03668-.17195-7.95833-.28065Z"/><path class="cls-10" d="m836.33661,436.74989c1.3054-2.24677,2.61084-4.49356,4.05867-7.09034,1.61667-.36541,3.0909-.38081,5.00804-.37427.99545,1.62425,1.54806,3.22651,2.10002,4.82689,4.17464.56029,8.23193,1.10481,12.24148,1.94186-4.60392.30024-7.11869,3.03538-9.10818,7.15635-.41686,2.55613-.54505,4.81395-1.08179,7.07237-1.49801.0051-2.58744.00957-3.76638-.46661-.08954-4.5739-.08954-8.66716-.08954-12.93303-1.7175-.07734-2.89426-.13032-4.4211.06458-.56797,3.54483-.78582,6.84175-1.45068,10.15621-2.85218.02459-5.25739.03163-7.7623-.40243.0273-3.13069-1.33683-6.53621,3.30309-7.03459.42246-.04538.6504-1.90164.96867-2.917Z"/><path class="cls-31" d="m391.62316,440.59897c1.24815-6.95144,4.03443-8.64548,11.98199-6.80146,2.53182.58742,4.50598,1.35265,3.88348-2.92127,1.13661-.10069,2.31425.22738,3.88776,1.04835.36049,4.70276.32513,8.91262-.19779,13.12177-6.83271.00885-13.17788.01838-19.52306.02794,0,0-.21207-.33013-.06483-.98272.10898-1.59926.07071-2.54594.03245-3.49261Z"/><path class="cls-12" d="m416.51771,428.28431c.38798,3.10978.38798,6.18967.38798,9.78415,4.21953-1.36777,8.22753-3.40899,11.41308,1.93622.23007,5.71412.29343,10.61005.27762,15.5359-.07917.0299-.08344.19912-.3529.25675-.42458.15605-.5797.25445-1.11861.25649-1.14872-.28505-1.91365-.47373-2.64036-1.13454-.38749-5.00579-.81318-9.53946-1.61151-14.22351-1.89949.72334-3.42635,1.59708-5.26135,2.74514-.3708,4.17421-.43345,8.07411-.81558,12.16657-.54071.30613-.76193.41973-1.20735.45219-.2242-.08112-.65088.13181-.99791.00586-.8176-.26987-1.28818-.41382-1.74247-1.04752.07253-9.19561.12879-17.90147.18506-26.60733,1.03211-.0521,2.06421-.10419,3.4843-.12638Z"/><path class="cls-38" d="m475.67248,436.11829c-3.32442-.51902-6.63646-1.33083-9.97685-1.47212-3.14507-.13302-4.97356-1.01462-4.71902-4.87979,1.10444-.78606,2.21961-1.46798,3.32145-1.44707,10.25277.19462,20.50326.51011,31.06351,1.2974-.11813,1.30966-.54534,2.11242-1.28559,3.15866-3.9528.75808-7.62045,1.13225-11.22046,1.84708-1.77628.35272-3.42765,1.33446-5.47817,1.94732-.7967-.20666-1.25078-.32907-1.70486-.45149Z"/><path class="cls-38" d="m454.37899,428.99714c.642,3.34979-.46531,4.64656-3.76816,4.58297-9.55414-.1839-19.11656-.1888-28.6705.00016-3.44438.06813-4.24464-1.4887-3.92301-4.85996,12.01812-.31267,24.03498-.17234,36.36167.27683Z"/><path class="cls-7" d="m494.38899,432.53192c.42723-.80278.85444-1.60555,1.39385-2.72916,2.79852-.71014,5.48486-1.09944,8.68995-1.08745-.19995,1.23118-.94012,2.78061-1.63351,2.75996-2.34932-.07002-4.45422.15362-3.86227,2.99596.20414.98017,2.51973,1.52062,3.95121,2.63864.12077,1.14414.1611,1.91158-.09947,2.83559-.51318.23467-.72542.31275-1.35547.25197-1.22334,1.02947-2.63828,2.15583-2.72218,3.37389-.27208,3.94992-.05616,7.93344-.29285,12.05486-.44459.24499-.62453.33915-1.05302.3631-.24854-.07022-.717.14734-1.06908.03899-.82604-.23446-1.29999-.36056-1.76246-.97534-.41838-5.20782-.84824-9.92692-1.59823-14.82568-.5331-.30017-.74609-.42072-.89267-.91286.18488-1.12019.30334-1.86878.81372-2.66768.75876-1.40515,1.12561-2.75996,1.49247-4.11478Z"/><path class="cls-35" d="m502.84781,436.73315c-1.35107-.74131-3.66666-1.28175-3.8708-2.26193-.59195-2.84234,1.51295-3.06597,3.86227-2.99596.69339.02066,1.43356-1.52878,2.06858-2.72983.12552-.39939.33473-.42765.86057-.46773.31662,1.85866.31662,3.72912.31662,5.51999,3.09285.66966,5.59105,1.21057,8.15275,2.14313-4.27443.60605-6.42984,3.53277-8.44833,7.23845-2.20501,1.13868-4.11153,2.03951-6.0294,2.54437.70278-2.05978,1.41691-3.72357,2.13103-5.38737.21222-.07808.42446-.15616,1.20089-.58217.2947-1.23894.02526-2.12996-.24419-3.02096Z"/><path class="cls-2" d="m412.69876,428.5464c.27838,8.57014.22212,17.27601-.13279,26.31838-.50521-.25766-.7118-.85184-.90305-1.91015.01129-2.94527.00726-5.42641.00322-7.90757.03538-4.20985.07074-8.41971.0838-13.10998.18984-1.40526.40201-2.33012.94882-3.39069Z"/><path class="cls-6" d="m557.16818,430.20539c.25851,8.16782.22539,16.30591-.08333,24.83845-.49752.07099-.7194-.25245-.88364-.97036.01077-1.18726-.03613-1.98004-.02499-3.21864.0176-2.24405-.02283-4.04227-.0017-6.31136.03334-3.64864.00512-6.8264-.0231-10.00418.04243-.79163.08485-1.58324.14224-3.01911.01499-.64424.0257-1.16241.0257-1.16241.18573-.0607.37147-.12141.84883-.15238Z"/><path class="cls-16" d="m622.43939,430.3583c.0025-.18026.00499-.36053.02006-.81144,1.12371-.27208,2.23484-.27355,3.76222-.27971.76982,1.16379,1.12342,2.33228,1.1118,3.86661-1.87484-.68126-3.38447-1.72836-4.89409-2.77546Z"/><path class="cls-6" d="m565.66104,429.77603c-1.58182.30232-3.47794.39131-5.82682.3244,1.53567-.28318,3.52411-.41045,5.82682-.3244Z"/><path class="cls-6" d="m569.82525,430.16334c.07218.12234-.38169.23985-.59299.14221-.02997-.35771.21408-.41333.59299-.14221Z"/><path class="cls-35" d="m556.07874,430.36065c.24061-.00288.2299.51529.16342.76544-.34616.12266-.56269-.07427-.80062-.54672-.08456-.20606.39659-.21586.6372-.21872Z"/><path class="cls-41" d="m696.59084,430.34804c.13456.374.03606.74163-.30272,1.27297-.28461-.07618-.32889-.31605-.38483-.92228-.01165-.36638.45449-.35704.68755-.35069Z"/><path class="cls-19" d="m633.0404,460.12247c-.0969-.39694.10659-.81812.55536-1.09532,3.76165-.22907,7.91459,2.86234,10.01932-3.50363-5.48183.70369-10.05234-.36456-12.67745-5.84714-.10282-2.18909-.17536-3.94094-.14682-6.04474,1.32425-2.14313,2.54741-3.9343,4.15829-5.8578,4.32619-.45949,8.2616-.87241,12.20676-1.01512.5488-.01986,1.14579,1.29172,1.64777,2.4314-.02493,2.24281.02285,4.04118-.00483,6.2938-.02582,2.59964.02381,4.74502.00861,7.27571.21872,1.85724.5023,3.32919.78585,4.80113-.69798.80764-1.39593,1.61531-2.41756,2.80487-.58601.54801-.74611.78356-.80403,1.08857-4.55211,1.67974-9.10402,3.35655-13.33127-1.33172m9.33433-9.27287c.75059-2.80232,2.43058-5.7543,2.00972-8.36801-.49427-3.06983-4.14094-3.76075-6.04423-1.63567-1.54175,1.72143-2.00319,5.03566-1.71036,7.49666.13526,1.13683,3.21288,1.92356,5.74487,2.50703Z"/><path class="cls-23" d="m646.58376,461.78154c-.15418-.63235.00592-.8679.47629-1.10108.98604.4396,1.76406.94625,2.60325,1.82105-.91504.11454-1.89122-.13904-3.07954-.71996Z"/><path class="cls-13" d="m650.00391,457.74028c-.69421-1.65146-.97779-3.12341-.8094-4.97739,2.15961-.73574,3.86728-1.08947,5.64849-1.05808-.29273,2.51001-.69769,4.57512,2.47871,4.90548,3.66837.38158,2.94341-2.12138,3.35858-4.21653,2.16383-.01189,3.89461-.01718,5.6986.35867.60957,5.97799,3.39237,2.50089,5.98391,1.72687,4.96887.00054,9.45996.00042,13.95108.0003,3.13295,3.03717,5.30651,1.61342,6.1961-1.81746,1.2886-4.96958,5.08241-2.9314,8.04259-3.43624,3.25832-.55573,4.30238,1.3887,4.92423,4.69164.28899.99635.54262,1.29491.79625,1.59348.55283.19331,1.10563.38662,1.93081.69021-.65693.89284-1.58294,2.35325-2.51593,2.35769-17.94095.08517-35.88273.00418-53.82418-.07522-.48387-.00214-.96614-.36777-1.85983-.74344Z"/><path class="cls-34" d="m808.16627,437.23483c.77852-.23318,1.55708-.46637,3.0588-.77209,1.36787-.27161,2.0125-.47064,2.65717-.66966,1.29494.35645,2.58988.71288,4.38229,1.50321,1.1542,3.2217,1.81097,6.00948,2.35983,9.2313.59917,2.61221,1.3062,4.7904,2.05612,7.3408-.64733,1.19907-1.33753,2.02591-2.02774,2.85276-.47433-.06384-.94864-.12768-2.12172-.25822-2.555.03958-4.41121.14589-6.26746.25217-.47216-.03125-.94435-.06246-2.13401-.10389-2.26399-1.06352-3.81051-2.11684-5.30135-3.58147.85737-2.53167,1.65903-4.65203,2.80895-6.89843,2.86424-1.19811,5.3802-2.27018,7.89619-3.34224-.07984-.61672-.15968-1.23343-.23949-1.85015-3.03535-.19616-6.07066-.39232-10.49173-.67805,1.69961-1.52879,2.53186-2.27743,3.36415-3.02603m4.10209,10.36404c-.60582,1.37145-1.21164,2.74292-1.81746,4.11438,1.12492.21067,2.46437.89576,3.31931.5092,1.01676-.45971,1.61734-1.84004,2.39823-2.82149-1.03568-.69409-2.07138-1.3882-3.90008-1.80209Z"/><path class="cls-34" d="m754.7096,437.03094c2.43695-.12962,4.87393-.25923,7.92377-.00426,2.31001,2.23141,4.00709,4.07824,5.65121,6.29304.64643,1.84703,1.34585,3.32611,2.03209,5.16615-.01254.84254-.01187,1.32409-.32857,1.95404-1.1223.74139-1.92726,1.33441-2.98572,2.12853-1.85929,1.51289-3.46507,2.82468-5.07086,4.13645-1.45897-.08283-2.91791-.16568-5.17697-.24808-2.6118-1.38401-4.42356-2.76845-6.27412-4.5555-.46896-2.21282-.89907-4.02299-1.26211-6.23265,1.87516-3.14557,3.68322-5.89165,5.49127-8.63774m3.81218,15.90059c4.75854-1.07139,6.58551-4.29461,5.22951-9.22214-.83225-3.02432-2.75996-4.4651-5.85751-3.61608-3.12005.85516-4.44206,6.04065-2.53039,10.00877.48713,1.01124,1.59491,1.72351,3.15839,2.82944Z"/><path class="cls-25" d="m726.52591,436.76379c1.04604-.05142,2.09209-.10286,3.47797-.14192.33981.01238.33443.12512.38982.60745.09418,6.44684.13293,12.41132-.23741,18.50146-1.2638.14069-2.11849.15578-3.0684.02422-.09523-.14661-.44368-.17533-.64105-.44403-1.58627.2683-2.97516.80529-4.36405,1.3423-.79049-.04565-1.58095-.09133-3.10491-.15923-1.87618-1.3678-3.0189-2.71338-4.11595-4.52494-.04186-2.63666-.12934-4.80732-.29017-7.37754.00774-2.94106.08886-5.48255.16995-8.02403,1.10956.01686,2.21909.03374,3.72846.07946.39984.02885.41561.07693.48429.55393.0911,3.58805-.17107,6.73754.24179,9.79586.25123,1.86079,1.54387,3.58099,2.36869,5.36434,1.64582-1.88849,4.15134-3.54766,4.73096-5.72054.81788-3.06611.21078-6.51237.22333-9.81482.01043-.0187.00669-.06198.00669-.06198Z"/><path class="cls-39" d="m850.92531,442.91205c1.70082-3.82264,4.2156-6.55778,9.17462-6.672,1.17462.05712,1.94639.22078,3.27221.79577,5.03671,2.16959,5.4986,6.06529,5.62353,10.48664-.07978,1.1819-.07981,1.97487-.07984,2.76784-1.93705,1.89666-3.87413,3.79334-6.07988,5.90945-1.72105.22606-3.17336.23272-5.41956.23752-2.07561-1.01446-3.35739-2.02703-4.65796-3.23941-.1393-.46566-.34342-.62302-.61702-.74476.01418-.07291-.12774-.11685-.14202-.40062-.31501-.75115-.61574-1.21852-.90201-1.72826.01443-.04234-.06237-.08827-.0361-.54406-.02781-2.59324-.08189-4.73067-.13597-6.8681m5.98353-1.91879c-.34761,2.9858-1.36591,6.0914-.85974,8.92468.53766,3.00968,4.0211,4.54139,5.95879,2.21818,1.78166-2.13607,2.39964-6.00341,2.06617-8.94191-.3792-3.34157-3.33183-4.11931-7.16522-2.20095Z"/><path class="cls-13" d="m762.03389,457.10658c1.50342-1.71345,3.1092-3.02523,5.25038-4.52523.91145-.19862,1.28748-.20906,1.95036-.0089,1.10249.45565,2.64565.8134,2.6277.92931-.48467,3.12827,2.36921,2.89948,3.45205,2.5382,1.13075-.37723,1.72034-2.37645,2.97768-3.66283,2.15932.00099,3.88747-.00179,5.63658.34789.37561,1.14009.7303,1.9277,1.48713,2.86941,1.53724.11947,2.67234.08485,4.05889.16126.44701-1.05459.64253-2.2202,1.25254-3.38093,1.79554.00232,3.17656-.00022,4.63163.39838,1.53212,7.10871,5.02241,1.75703,7.85766,1.56433.67382-.37168,1.11494-.63406,1.55603-.89643,1.54652,1.05332,3.09304,2.10665,5.00529,3.23437-.67808.71521-1.7173,1.90519-2.76636,1.91396-14.24042.11896-28.48231.09075-42.72343.02069-.71904-.00354-1.43459-.71822-2.25413-1.50348Z"/><path class="cls-3" d="m835.99824,436.68046c.0201,1.08478-.20784,2.94104-.6303,2.98642-4.63992.49838-3.27579,3.9039-3.4101,7.45133-.95254,5.40647,2.72405,5.42284,5.44583,6.77024-1.02524,1.19361-2.07202,2.01366-3.1188,2.83372-.47395-.01598-.94793-.03197-2.14386-.09002-2.19103-1.79414-3.66011-3.54621-5.0459-5.73089.00157-1.89175-.08016-3.35088-.06138-5.15572.04077-.81755-.01894-1.28939.04442-2.1486-.30675-1.22806-.73657-2.06876-1.45228-3.09264-4.06414-3.10003.05856-3.38575,1.20572-4.66236.69936-3.25197,2.47762-3.55658,5.04737-1.16163.83584,1.0323,1.62377,1.39615,2.41167,1.76001.45641.0569.9128.11381,1.70761.24014Z"/><path class="cls-20" d="m740.85283,432.97099c.20829.09626.41654.1925.92649.8067.96947,1.2398,1.63724,1.96161,2.30505,2.68343.7471.10525,1.4942.21051,2.55049.76404.02736,1.33055-.25446,2.21279-.86483,3.0172-1.1591.11662-1.98969.31109-2.77151.55595.04883.05042-.04858-.05258-.40185.20891-.41299,2.47983-.39171,4.704-.55088,6.9152-.25497,3.54285,1.18873,5.54791,4.82683,6.06237-.93347,1.13059-1.84966,1.93796-2.76584,2.74533-.79638-.06077-1.59276-.12154-3.11547-.2247-1.91609-1.4035-3.10584-2.76461-4.24171-4.56254-.01248-1.89852-.07888-3.36021-.07405-5.25929.47571-4.64566-3.29992-9.18215,1.06387-13.07956.20077-.07198.40153-.14398,1.21491-.28552,1.04124-.16222,1.46988-.25488,1.89852-.34753Z"/><path class="cls-13" d="m834.39086,457.1261c.9408-1.22399,1.98758-2.04404,3.17877-3.50488.72086-.85555,1.29731-1.07032,1.86002-.93193-.13894,1.88503-2.38674,4.95279,2.45413,3.22176.95276.14358,1.49113.25657,2.12466.414.31808.07646.50073.00181.91625-.52019.4999-2.06313.72659-3.7856.95328-5.50806,1.08944-.00448,2.17887-.00894,3.94536-.01691.85523-.01696,1.03347-.03046,1.21167-.04395,0,0,.0768.04594.05667.38305.29389.79715.60793,1.25721.92198,1.71726,0,0,.14192.04394.18003.29749.16083.4868.34262.65691.58352.76393,1.28179,1.01257,2.56357,2.02514,4.20622,3.10032.04301.64501-.2863,1.74135-.59104,1.73457-7.3001-.16253-14.5976-.44325-22.00154-1.10646Z"/><path class="cls-13" d="m736.69573,452.37972c1.18972,1.3611,2.37948,2.72221,3.90606,4.21589.12918.59851-.08835,1.47547-.28467,1.47073-6.01265-.14475-12.02318-.37603-18.13419-1.00347,1.28876-.9466,2.67765-1.48359,4.20155-1.61225.13498.40833.45379.68145.45379.68145l.34486-.23045c.85468-.01507,1.70937-.03016,3.24575-.34625.87296-.91289,1.06422-1.52478,1.62275-2.13708,1.79286-.34648,3.21848-.69253,4.64411-1.03857Z"/><path class="cls-13" d="m827.01185,451.33387c1.46905,1.75207,2.93813,3.50414,4.77777,5.35767-3.19243,3.53483-7.05802,2.24914-11.03464.42792.58797-1.22516,1.27817-2.05201,2.24639-3.40563,1.5222-1.14449,2.76632-1.76222,4.01048-2.37996Z"/><path class="cls-13" d="m744.21147,457.12965c.81148-1.20689,1.72767-2.01426,3.0404-3.23263,1.35347-.80504,2.31042-1.19907,3.26738-1.59308,1.81174,1.38443,3.6235,2.76887,5.79806,4.21139-3.48351,3.93411-7.74544,2.43349-12.10584.61432Z"/><path class="cls-13" d="m714.81627,452.4351c1.14272,1.34556,2.28543,2.69114,3.7693,4.11587-2.24674,3.40005-5.04478,2.90149-8.01846.10429.17331-.77436.41952-1.11787.84582-2.01182.87862-1.12132,1.57718-1.69218,2.55781-2.25361.46995.02138.65773.03331.84553.04526Z"/><path class="cls-13" d="m812.34785,457.08748c1.77196-.47867,3.62818-.58497,5.83498-.53625-1.29996,3.50859-3.49186,2.47946-5.83498.53625Z"/><path class="cls-21" d="m890.73798,450.91424c.03187,1.22609-.03878,2.0089-.01203,3.17605-1.18348,1.04812-2.46437,1.7119-4.39902,2.71445-.29235-2.2237-.51821-3.94194-.747-6.55116.01466-2.26369.23622-3.67317-.00275-4.99964-.28659-1.59038-.96595-3.10995-1.47526-4.66017-1.73388,1.38105-4.45195,2.46853-4.97195,4.21169-.78867,2.64394-.04998,5.74351.03987,8.64955-1.42627.78779-2.85256,1.57558-4.54292,1.81511-.3399-1.67234-.41574-2.79644-.49158-3.92053.06189-.79958.12378-1.59918.15968-3.19807-.08886-1.92471-.15174-3.0501-.09395-4.61148.13635-2.53764.15206-4.63929.17936-6.76107.01162-.02011.05952-.02318.05952-.02318,1.23375-.01082,2.46751-.02162,4.23576.36825,1.1207.18069,1.70694-.03928,2.29311-.25926.35782-.07478.71571-.14958,1.65676-.32061,1.01606-.2163,1.44889-.33638,1.88172-.45645.80185.17426,1.60371.34849,2.81464.56355,1.37126,2.56572,2.33349,5.09059,3.40107,8.00545.04096,2.19807-.02336,4.00614.01498,6.25751Z"/><path class="cls-10" d="m874.08042,443.97603c.06285,1.1254.12573,2.25079.0928,3.79035-.09578.41416-.60083.39949-1.0823.12437-1.65948-.43582-2.83749-.59653-4.0155-.75724-.20467-4.0324-.66656-7.92809-5.3171-10.01071,3.07909-3.80474,6.63447-3.36354,10.50543-.75849.17619.39149.12829.39456-.23558.60624-.22515,2.47628-.08646,4.74088.05226,7.00549Z"/><path class="cls-10" d="m884.32143,435.93871c-.24697.26909-.67981.38917-1.45081.47769.19622-.22994.73056-.42832,1.45081-.47769Z"/><path class="cls-10" d="m880.44311,436.84075c-.06048.24401-.64672.46398-1.40454.36291.1785-.34302.52864-.36497,1.40454-.36291Z"/><path class="cls-14" d="m879.59511,453.44823c-.51513-2.89925-1.25382-5.99882-.46515-8.64276.52-1.74316,3.23807-2.83064,4.97195-4.21169.50931,1.55022,1.18867,3.06979,1.47526,4.66017.23897,1.32647.01741,2.73596-.06426,4.58736-1.87359,1.51918-3.68306,2.55965-5.9178,3.60693Z"/><path class="cls-28" d="m868.99567,447.52245c1.25775-.22822,2.43577-.06752,3.84264.36741-.89312.98217-2.01513,1.6901-3.52981,2.39925-.39264-.79177-.39261-1.58475-.31283-2.76666Z"/><path class="cls-18" d="m873.85315,451.57217c.35801.90152.43385,2.02561.47667,3.57474-.27494-.83403-.51689-2.09309-.47667-3.57474Z"/><path class="cls-37" d="m630.96786,450.11362c2.59487,5.04534,7.16538,6.11359,12.64721,5.4099-2.10473,6.36597-6.25767,3.27456-9.97778,3.27346-3.20056-.00898-5.99389-.11355-8.78723-.11389-72.50887-.00898-145.01774.00147-217.52657-.05299-1.95905-.00147-3.91758-.68425-5.99082-1.44791,1.92711-1.29737,3.9687-2.19615,6.57947-3.4249,1.6246-.33281,2.68003-.33566,3.73545-.33853.20658.59419.41317,1.18836.90212,1.93578.75294.29717,1.22351.44112,2.14075.79128.44667.20622.81994.21883.81994.21883l.30253-.22386c.22122-.11358.44244-.22718,1.2166-.70307.71547-.92328.878-1.48423,1.47168-2.03231,1.86908.02333,3.30703.03376,4.7795.35643.41155.75136.78857,1.19046,1.16559,1.62956.76493.18869,1.52987.37736,2.8252.74902.91687.18325,1.15388-.01133,1.24145-.40073,0,0,.00427-.16922.32221-.38401.48988-.79611.66182-1.37739,1.27362-1.94658,1.61071-.04229,2.78157-.09667,4.22373.08675,3.08471,2.97703,13.99545,3.49418,17.42095.73948,3.58137-1.15899,2.98016-3.73525,2.78413-6.13498.20226-3.62618.40452-7.25237.89343-10.64029.25557,5.26166.1203,10.28836.27945,15.30571.03266,1.02971,1.16674,2.02449,1.79314,3.03536.80378-1.00776,2.22381-1.96937,2.30332-3.03136.32225-4.30419.23236-8.63923.29452-12.96289.29887,1.81521.59774,3.63043.89344,6.2998.75272,2.27361,1.50861,3.69306,2.2645,5.11251.64006-1.36529,1.30314-2.72063,1.90146-4.10397.12517-.28939.01146-.68211.00782-1.02721,0,0,.01014-.51702.27488-.77481.26475-.25779.78695-.24536.89636.21552.11319,2.72621-.13465,5.03227.22284,7.24034.18965,1.17135,1.43004,2.17257,2.1961,3.25059.67633-1.14468,1.76979-2.22909,1.94563-3.4461.41775-2.89132.40098-5.84541.69087-8.48852.18839.48715.2457.68869.24197,1.35239.02227,2.11524.10561,3.7683.21167,5.87234,7.50882,0,14.53685,0,21.589.36617.39081,1.53268.75752,2.69917,1.1242,3.86568.47397.1261.94792.25219,1.88106.58843.45917.21014.88822.21798.88822.21798l.3223-.28853c.17995-.09418.35989-.18834,1.08424-.63233.71006-1.24638.87572-2.1429,1.50967-3.03893,2.34594-.03894,4.22358-.07835,6.43202.032,6.4762,6.9016,13.78016,5.46458,17.80824-3.20069,1.75126-.00101,3.09845-.01069,4.52891.40667.26781,2.49879.45233,4.57054.68165,7.14511,2.07694-1.00944,3.39288-1.64903,5.15041-2.27861,7.39258-.00158,14.3436-.01318,21.29463-.02477.2219.32345.44379.64689.94465,1.07457,3.83718.1763,7.39539.24837,11.53913.42625.9338.18518,1.17342.05362,1.30435-.28888.84371-.3659,1.68743-.73182,3.11037-.89016,4.67704.362,8.77486.51641,13.30149.68717,7.08771,2.34801,11.3077,1.25212,11.36282-3.27416-4.48243,1.05406-9.09276,1.93121-10.66056-5.02507h11.14598c.13637-1.75617.23022-2.9649.604-3.95806,1.62618,2.00626,2.83716,2.74703,3.71218-.14928.32843-1.08712.79104-2.1337,1.22083-2.79575,1.18135,2.52999,2.11863,4.8182,3.55181,6.73579,1.27551,1.70657,3.10026,3.00266,4.68262,4.47992-2.39882.09302-4.79731.19787-7.19677.26937-.4967.01482-.99708-.09414-1.72505-.16994-.79363,2.79636-.68195,5.17116,2.96261,4.62404,3.75416-.56357,7.39952-1.85177,11.4748-2.81344,1.84572-.33918,3.30911-.68787,4.84564-.6503.66256,1.43822,1.25199,2.49018,1.8414,3.54216.84576-1.64839,1.69154-3.29677,2.93352-4.94915,1.55363-.41246,2.71106-.82094,3.8685-1.22942Z"/><path class="cls-13" d="m386.73465,449.03334c.23696.00461.47793.31051.72046.91779-.23778-.00459-.47711-.31053-.72046-.91779Z"/><path class="cls-5" d="m789.22318,455.64467c-1.13507.03461-2.27017.06923-3.77608-.52573-.76265-5.13673-1.15446-9.64389-1.9693-14.19312-4.09109-.47013-5.7721,1.31187-5.7762,4.8536-.00253,2.19793.10256,4.39595.15936,6.59394-.82624,1.29015-1.41583,3.28938-2.54658,3.66661-1.08284.36128-3.93672.59008-3.45205-2.5382.01795-.1159-1.52521-.47366-2.35433-1.09974.25686-.95752.52717-1.53401.79747-2.11049-.00067-.48157-.00134-.96312.41273-1.83846.83132-2.10137,1.2479-3.80899,1.76742-5.92388.39536-2.23161.68774-4.05598.98016-5.88034,4.20417.00781,8.40838.01562,13.2449.36158,1.97881.18182,3.32523.0255,4.67169-.13082.4656-.11941.9312-.23881,2.10815-.43849,1.46947-.09246,2.22764-.10466,2.98578-.11686.4575.13531.91504.27064,1.90802.79948,1.18521,2.90042,1.83494,5.4073,2.40005,8.35072.67673,3.28179,1.43804,6.12703,2.19938,8.97228-2.60252.08342-6.09281,5.4351-7.55866-2.15114-.00778-4.31509-.00778-7.75149-.00778-12.48455-2.37753,1.34763-3.86658,2.19164-5.67588,3.33762-.38627,4.36664-.45229,8.43132-.51827,12.49599Z"/><path class="cls-35" d="m800.86899,445.03796c-.64973-2.5069-1.29945-5.01379-2.13177-7.85155,2.77724-4.06365,5.97204-3.55626,9.35874-.40368-.76198,1.2007-1.59423,1.94934-3.29384,3.47813,4.42107.28573,7.45638.48189,10.49173.67805.07981.61672.15965,1.23343.23949,1.85015-2.51599,1.07206-5.03195,2.14413-8.30201,3.2597-2.62354-.30793-4.49294-.65937-6.36234-1.0108Z"/><path class="cls-35" d="m714.63985,436.16619c.02077,2.94282-.06035,5.48431-.28973,8.55596-.42073.75536-.61001,1.03654-1.09747,1.38007-1.84578.36302-3.31023.71968-4.77464,1.07633,0-.00002-.07706-.03626-.04339-.36749-.25945-.80356-.55261-1.27588-.84576-1.7482-1.36467-3.25546-2.72936-6.51093-4.10133-10.13802,3.67861.03224,7.36451.43613,11.1523,1.24134Z"/><path class="cls-35" d="m746.09853,440.32021c.28185-.88225.56368-1.76449.90284-3.00244,2.1693-4.2188,4.74993-3.60547,7.61648-.7122-1.71631,3.17146-3.52437,5.91754-5.80164,9.08241-1.94057.7116-3.41192,1.00441-5.34977,1.39004-.19072-2.33836-.35363-4.33533-.51651-6.33228,0,0,.09741.10299.37725.11355,1.11033-.17266,1.94086-.35587,2.77135-.53909Z"/><path class="cls-35" d="m718.88745,436.65755c2.15375-3.65339,4.71489-2.52121,7.48925-.28225.14922.38849.15296.43177-.22448.66753-.56118,2.29242-.48397,4.42028-1.01884,6.38114-.36729,1.34641-1.58492,2.46085-2.42249,3.67898-.89187-1.1556-2.17263-2.18745-2.58853-3.4945-.70099-2.20295-.8534-4.58044-1.23657-6.88453,0,0-.01578-.04808.00166-.06637Z"/><path class="cls-35" d="m826.3794,435.66658c-.69497,1.45198-4.81768,1.73769-.76025,5.21025.63145,1.4063.98368,2.25689,1.33593,3.10747.05971.47185.11942.94369-.3648,1.75954-2.31532.34589-4.0867.34779-5.85805.34969-.65673-2.78778-1.3135-5.57556-2.14655-8.68822,1.4679-4.93099,4.61598-2.4233,7.79373-1.73874Z"/><path class="cls-35" d="m737.37041,433.73155c-3.9948,3.7699-.21917,8.3064-1.10659,12.95751-1.84751.43443-3.21205.426-4.62046-.0477-.46429-3.6083-.88467-6.75133-1.30505-9.89437,0,0,.00538-.11274.0593-.12806,2.23724-.93017,4.42052-1.84502,6.9728-2.88738Z"/><path class="cls-35" d="m773.37323,436.24646c-.19987,2.22676-.49225,4.05113-1.29219,6.28648-1.58617.4136-2.66482.41622-3.74347.41881-1.69711-1.84684-3.39419-3.69366-5.24929-5.85729,3.00655-3.79461,6.53572-3.22928,10.28495-.84801Z"/><path class="cls-35" d="m791.30212,436.4987c-1.2662.53725-2.61263.69357-4.11045.56169.8016-3.32346,2.22857-3.33,4.11045-.56169Z"/><path class="cls-10" d="m834.22676,436.12232c-.72403-.04586-1.51196-.40971-2.20213-1.15392.77788.02509,1.45807.43051,2.20213,1.15392Z"/><path class="cls-35" d="m743.94398,436.19352c-.52742-.45422-1.19519-1.17603-1.85122-2.27369.57814.41814,1.14451,1.21212,1.85122,2.27369Z"/><path class="cls-35" d="m796.2748,436.11768c-.55664.2188-1.31481.23099-2.44876.19022.49856-.16758,1.37289-.28219,2.44876-.19022Z"/><path class="cls-35" d="m813.53428,435.73461c-.2967.25749-.94134.45651-1.9255.59341.29949-.25873.93852-.45531,1.9255-.59341Z"/><path class="cls-35" d="m740.68022,432.8208c-.25603.24285-.68467.3355-1.43791.3583.20534-.2161.73532-.36229,1.43791-.3583Z"/><path class="cls-39" d="m451.51173,454.53504c-3.18376,2.45498-14.0945,1.93783-17.21921-1.42857.2869-2.74071.8851-4.85424,1.4833-6.96776,2.20383-.68133,4.40767-1.36265,7.33804-2.22087.52703-1.16729.32752-2.15767.128-3.14805-2.25669.09613-4.51339.19226-7.24122-.06214-.44926-1.21009-.42739-2.06969-.40552-2.92927,4.36464-1.39849,8.78054-3.26256,12.67227,2.18543,1.18379,5.40354-1.8957,10.89917,3.24435,14.57123m-9.88386-2.09138c1.05788-1.42147,2.11576-2.84293,3.17363-4.2644-.56098-.53045-1.12197-1.06091-1.68296-1.59137-1.63394,1.14704-3.2679,2.29407-4.90185,3.44111.86125.83198,1.7225,1.66396,3.41118,2.41466Z"/><path class="cls-5" d="m471.26429,443.79941c-.15882,2.92872-.14206,5.88282-.55981,8.77414-.17584,1.217-1.26931,2.30141-1.94563,3.4461-.76606-1.07803-2.00646-2.07924-2.1961-3.25059-.35749-2.20807-.10965-4.51412-.12988-7.69525.04131-3.3628.09906-5.80981.15682-8.25683,2.77499-.14158,5.54998-.28317,8.70388-.56173.83299-.01454,1.28707.10787,2.10673.73028-.41109,1.51547-1.0734,2.65244-1.99205,3.51709-1.28089,1.20563-2.75343,2.20764-4.14396,3.29679Z"/><path class="cls-29" d="m460.03007,439.39663c.00922,4.73392.09911,9.06895-.22314,13.37314-.07951,1.062-1.49954,2.02361-2.30332,3.03136-.6264-1.01088-1.76048-2.00566-1.79314-3.03536-.15915-5.01735-.02389-10.04405.07663-15.54811,1.4368.26913,2.80419,1.01892,4.24296,2.17897Z"/><path class="cls-44" d="m451.75347,454.23533c-5.38178-3.37235-2.30229-8.86798-3.26268-13.93712.35747.97958,1.03323,2.45933.93806,3.88771-.21794,3.27101,1.18036,4.4204,4.68072,3.94701.62407,2.36716,1.22527,4.94342-2.35609,6.10241Z"/><path class="cls-14" d="m435.34232,446.1145c-.1647,2.13773-.7629,4.25126-1.3211,6.75415-1.13086.44377-2.30173.49816-3.94894.08451-.44889-2.61229-.42143-4.75652-.39396-6.90077,1.7435.01262,3.487.02525,5.664.06211Z"/><path class="cls-28" d="m464.75286,446.08914c.41945.34397.53317.73668.408,1.02608-.59832,1.38334-1.26139,2.73868-1.90146,4.10397-.75589-1.41945-1.51178-2.8389-2.25629-4.69627,1.11889-.43616,2.22641-.4344,3.74975-.43377Z"/><path class="cls-15" d="m429.64199,445.63769c.00886,2.55895-.01861,4.70318-.00957,7.30338-.13543,1.03723-.30737,1.61851-.71808,2.38469-.30214-4.71104-.3655-9.60697-.39473-14.98283.38477,1.30675.73541,3.09339,1.12237,5.29476Z"/><path class="cls-28" d="m466.2092,437.00046c.32274,2.26353.26499,4.71054.11427,7.61246-.09297.45491-.61517.44248-.87622.44174-.04688-2.62405.16729-5.24739.76195-8.05421Z"/><path class="cls-14" d="m435.35685,437.95322c.2164.68473.19453,1.54433.23822,2.83122-.11511-.60057-.29581-1.62846-.23822-2.83122Z"/><path class="cls-14" d="m443.20371,441.15142c.23766.60875.43717,1.59913.28355,2.63581-.34265-.72052-.33217-1.48734-.28355-2.63581Z"/><path class="cls-41" d="m648.87633,438.74567c-.57469-.69523-1.17167-2.00681-1.72047-1.98695-3.94517.1427-7.88057.55563-12.66484.93153-3.26085-.26272-5.67585-.57417-8.47657-.92704-1.41471-.05304-2.44367-.06466-3.89227-.08514-2.55253.33486-4.68539.67859-7.04752.65336-1.93513-.67261-3.64104-.97625-5.52974-1.40508-.68997.04874-1.19713.22264-2.00825.53555-1.08308.56125-1.8622.98347-3.05314,1.35201-3.08853-.03368-5.76527-.01368-8.8246-.14942-3.84022-.05494-7.29784.04586-11.16693.07946-2.59037-.40857-4.76928-.74995-6.94818-1.09132-.12702-.25381-.24949-.50979-.45803-.9604,1.7174-.85545,3.5171-2.06486,5.33483-2.09255,11.51425-.17541,23.03448.01403,34.54718-.206,1.64242-.03139,3.25493-1.62871,5.17643-2.76834,1.80479.78006,3.31442,1.82716,5.1915,2.87927,22.57232.03744,44.77718.06986,67.50915.16493.14525,1.20961-.23664,2.35655-1.11334,3.92808-.67152.96459-.84822,1.50459-1.02496,2.04457,0,0-.29232.31331-.92966.13406-7.38579-.46041-14.13418-.74158-21.21168-1.29015-5.38586-.77513-10.44264-1.28283-15.84236-1.65103-2.17749.72985-4.01201,1.32022-5.84653,1.91062Z"/><path class="cls-20" d="m524.08387,449.21087c-3.624,8.67395-10.92797,10.11096-17.41327,2.74487-.42085-3.41424-.50174-6.21428-.58264-9.0143,1.71999-3.46784,3.87541-6.39456,8.56107-6.78805.95283-.03704,1.55788.10504,2.79224.34672,7.10082,2.1733,6.57253,7.58469,6.6426,12.71076m-4.3231-.98193c.11744-6.46308-1.9461-9.68521-5.46729-8.04697-1.80564.84006-3.60957,3.94643-3.53683,5.96079.082,2.27119,2.27522,4.46616,3.55018,6.69424,1.76966-1.257,3.5393-2.51402,5.45394-4.60806Z"/><path class="cls-35" d="m555.68201,434.54561c.49763,3.17146.52585,6.34922.0255,10.00679-5.50684.48293-10.49967.70347-15.45545.37139-1.73665-.11637-3.38227-1.59134-4.86782-2.77682,1.74148-2.20837,6.66549-.75848,5.28811-5.5042,1.35465-.69368,2.66879-1.86777,4.07197-1.98615,3.4677-.29256,6.97618-.10141,10.9377-.11101Z"/><path class="cls-29" d="m540.31292,436.54696c1.73681,4.84153-3.1872,3.39163-5.24743,5.92892-.55917,3.39743-.59793,6.13501-.74438,9.25612-.04304,1.17257.0216,1.96164.08624,2.75071-1.31596.63958-2.63191,1.27918-4.70884,2.28861-.22931-2.57456-.41384-4.64632-.62413-7.62458-.02574-4.70384-.02574-8.50118-.02574-11.8888,3.53045-.41163,6.48879-.75656,9.44714-1.10147.4859.09822.97182.19645,1.81714.39048Z"/><path class="cls-35" d="m538.23911,435.86213c-2.70168.63926-5.66002.98419-9.19047,1.39582,0,3.38762,0,7.18496-.05752,11.46176-1.40471.48915-2.75191.49883-4.50316.49984-.47414-5.13475.05414-10.54613-6.7325-12.74734.28433-.67173.8966-1.70102,1.48126-1.68558,6.25108.16526,12.49779.49587,19.0024,1.0755Z"/><path class="cls-10" d="m561.75904,446.09866c-.07291-3.1924-.14581-6.3848.06902-10.13932.54225-.73873.73369-.96801.86208-1.24996,3.88789-.08229,8.33872-1.88241,10.4568,4.26569.03811,2.92615.07894,5.01422.11979,7.10231,0,0,.03632.08128-.47318.07194-4.01785-.0231-7.52618-.03688-11.03451-.05066Z"/><path class="cls-13" d="m585.91471,455.46057c-4.09781-.15443-8.19563-.30885-12.54193-.77838,1.29083-2.27527,2.83015-4.23542,4.87419-6.14325,1.42892-.59481,2.62824-1.06057,3.20578-1.93636.6787-1.02923.81768-2.41439,1.22935-3.18474-.2008,4.68083-.37163,8.8823,3.23261,12.04273Z"/><path class="cls-1" d="m561.65438,446.5513c3.61299-.43886,7.12131-.42509,11.1111-.36742-1.14012,5.87673-2.59828,6.63876-11.21576,5.77767,0-1.60476,0-3.28119.10466-5.41025Z"/><path class="cls-16" d="m577.57377,437.03972c2.14895-.04573,4.32785.29565,6.81781,1.02889-.29589,1.58774-.90286,2.78357-1.93505,3.93653-1.56455-.06618-2.70389-.08946-3.84322-.11272-.33653-1.48854-.67305-2.97708-1.03955-4.8527Z"/><path class="cls-10" d="m578.5389,442.32453c1.21374-.40885,2.35308-.38557,3.93018-.07336.43777.28893.17437.70622.17437.70622-.37302,1.23079-.512,2.61596-1.1907,3.64518-.57753.87579-1.77686,1.34155-2.95375,1.6993-.17994-2.04135-.10722-3.7933.0399-5.97735Z"/><path class="cls-1" d="m573.54017,445.8057c-.31429-1.81641-.35512-3.90448-.34742-6.42772.23931,1.76191.43009,3.95896.34742,6.42772Z"/><path class="cls-1" d="m562.40294,434.68063c.15882.3107-.03262.53998-.49472.80566-.06922-.21875.06915-.52659.49472-.80566Z"/><path class="cls-6" d="m569.6888,455.65145c.11195.37093-.12766.50249-.5783.30643-.10235-.11674.33542-.33485.5783-.30643Z"/><path class="cls-10" d="m670.89431,438.75349c6.74842.28117,13.49681.56233,20.66846,1.03011-.11005,2.48549-.64333,4.78436-1.74441,7.03743-6.37021-.27163-12.17259-.49747-18.06063-1.13688-.34489-2.58594-.60416-4.7583-.86342-6.93066Z"/><path class="cls-28" d="m671.8434,446.09773c5.80238.22582,11.60475.45166,17.71615,1.0291-.04429,1.45615-.39763,2.56069-1.45164,3.93389-5.87095.26953-11.04117.27041-16.30313-.15898-.04826-1.88817-.00483-3.3461.03862-4.80401Z"/><path class="cls-1" d="m671.89649,451.33202c5.17025-.00088,10.34047-.00176,15.98844-.00037-.0767.87153-.63113,1.74079-1.3783,2.87901-4.68388.26907-9.17497.2692-14.23303-.12019-.50368-1.17915-.44041-1.96881-.37712-2.75845Z"/><path class="cls-37" d="m699.63947,438.39617c1.01763,2.20927,1.77385,4.13417,2.72408,6.55296h-7.12474c1.58339-2.61546,2.86133-4.72638,4.40065-6.55296Z"/><path class="cls-44" d="m708.47703,447.55691c1.4654-.735,2.92984-1.09166,4.79201-1.00622.40502,2.23796.41232,4.03382.41958,5.8297-.69852.57086-1.39708,1.14172-2.15551,2.08543-1.05897-1.9283-2.05801-4.22944-3.05608-6.90891Z"/><path class="cls-44" d="m707.56174,445.35396c.32029.18123.61344.65355.88518,1.41633-.31837-.18144-.61533-.65334-.88518-1.41633Z"/><path class="cls-10" d="m693.00987,439.56691c-.12656-.46472.05014-1.00472.47494-1.69823.10819.43862-.03171,1.03081-.47494,1.69823Z"/><path class="cls-18" d="m706.23605,455.21392c-.21664-.00146-.47027-.30001-.74553-.90208.22176-.00067.46515.30214.74553.90208Z"/><path class="cls-40" d="m411.66292,452.95463c-1.07075.46699-2.12617.46984-3.5783.46957-.86286-3.46951-2.92639-1.68078-4.58842-1.29087-6.75676,1.58503-9.81527-.02536-11.89122-6.66191,6.39574-.40667,12.74091-.41621,19.57362-.42505.49157,2.48186.49561,4.963.48432,7.90827Z"/><path class="cls-40" d="m391.42653,440.87156c.2349.67408.27316,1.62076.24459,3.04106-.19164-.60705-.31643-1.68777-.24459-3.04106Z"/><path class="cls-27" d="m843.91331,456.28062c-.5384-.11299-1.07676-.22598-2.10537-.8794-.38685-6.59408-.28342-12.64775-.18003-18.70141,1.17676.05299,2.35353.10597,4.07102.18331,0,4.26587,0,8.35913.08954,12.93303-.13718,2.20311-.36387,3.92558-1.06451,5.93333-.47398.28529-.81065.53113-.81065.53113Z"/><path class="cls-40" d="m839.44341,452.33614c-.57648.21477-1.15292.42953-1.89535.91152-2.86616-.7066-6.54276-.72297-5.4905-5.68836,2.51221-.42376,4.91742-.4308,7.84352-.06659.19472,1.86198-.13146,3.35271-.45766,4.84344Z"/><path class="cls-18" d="m839.42965,452.68929c.33997-1.84388.66614-3.33461.9184-5.21412.14397-3.68573.36182-6.98264.92979-10.52747.24669,5.80577.14326,11.85944.11571,18.42293-4.35064,2.27146-2.10284-.7963-1.9639-2.68133Z"/><path class="cls-22" d="m851.06128,449.78015c-.20448.46928-.38272.48278-.8294.49913-.14029-2.25495-.0121-4.51276.40477-7.0689.34275,1.8391.39683,3.97653.42464,6.56976Z"/><path class="cls-40" d="m423.24618,453.44961c-1.43794-.01043-2.87588-.02086-4.77171-.51211-.49014-3.5775-.5224-6.6742-.55465-9.77089,1.52685-.87376,3.05371-1.7475,4.97363-1.98815.37962,4.51243.36617,8.39179.35273,12.27115Z"/><path class="cls-15" d="m423.28071,453.76184c-.02109-4.1916-.00764-8.07096-.01462-12.433.40526,4.05097.83096,8.58465,1.21843,13.59044-.41523.03302-.79225-.40608-1.20381-1.15744Z"/><path class="cls-2" d="m417.61167,443.44091c.34041,2.82239.37266,5.91908.43166,9.48369-.13579,1.02889-.29833,1.58985-.69431,2.32058-.17081-3.73016-.10816-7.63006.26265-11.80427Z"/><path class="cls-15" d="m428.24349,455.79732c.18189.33177-.05512.52635-.5882.43947.0085-.18502.16362-.28342.5882-.43947Z"/><path class="cls-2" d="m415.58873,456.05968c.2242.08112-.07834.30497-.07834.30497,0,0-.37327-.01261-.4729-.09288-.09964-.08029.32704-.29321.55124-.2121Z"/><path class="cls-31" d="m471.39537,444.08504c1.25946-1.37478,2.732-2.37679,4.01289-3.58242.91864-.86465,1.58096-2.00162,2.33467-3.43285,1.68494-1.11286,3.33631-2.0946,5.11259-2.44732,3.60002-.71483,7.26766-1.089,11.22046-1.84708-.05384,1.11137-.42069,2.46618-1.49887,3.96477-.66113,1.07779-.61091,2.01182-.5607,2.94584.21298.12054.42597.24109,1.00416.92272.3696,1.84834.374,3.13559-.10446,4.4272-7.39446-.01731-14.30608-.03898-21.21771-.06066-.05732-.20154-.11463-.40307-.30301-.8902Z"/><path class="cls-15" d="m499.77939,452.38775c-.16565.89651-.33131,1.79303-.77672,2.88856-.30773-3.77157-.52365-7.75509-.25157-11.70501.0839-1.21806,1.49884-2.34442,2.72218-3.37389-.2963,1.80266-1.01043,3.46645-1.72882,5.97237.00878,2.63407.02186,4.42601.03493,6.21796Z"/><path class="cls-15" d="m493.39893,445.03153c-.00438-1.28724-.00878-2.57448-.05826-4.24318.38478,4.33766.81464,9.05676,1.23302,14.26458-.37819-.67782-.74489-1.84431-1.11289-3.82386-.02147-2.60788-.04168-4.4027-.06187-6.19754Z"/><path class="cls-15" d="m502.92822,437.10987c.18904.51429.45848,1.40531.4647,2.48767-.3036-.57609-.34393-1.34353-.4647-2.48767Z"/><path class="cls-15" d="m492.08281,439.31439c-.11662-.56243-.16685-1.49646.10237-2.52393.20096.65515.0825,1.40374-.10237,2.52393Z"/><path class="cls-15" d="m497.40524,455.98928c.24854.07022-.07376.35875-.07376.35875,0,0-.42905-.00784-.53616-.10963-.10709-.10178.36137-.31934.60992-.24912Z"/><path class="cls-1" d="m500.24769,452.38823c-.48137-1.79242-.49445-3.58437-.4919-5.82247,1.92215-1.34697,3.82867-2.2478,6.03369-3.38648.37939,2.56218.46029,5.36222.55032,8.62671-1.86852.50389-3.74616.54329-6.0921.58224Z"/><path class="cls-8" d="m534.42881,451.3485c.03875-2.7376.07752-5.47519.43502-8.54169,2.00596.52565,3.65158,2.00062,5.38823,2.11698,4.95579.33208,9.94861.11154,15.39389.09947.50744,1.7893.54787,3.58752.0636,5.84319-7.44339.46563-14.36207.47384-21.28074.48205Z"/><path class="cls-1" d="m534.32111,451.732c7.02637-.39171,13.94504-.39992,21.3304-.41973.51357.78116.56046,1.57395.54969,2.7612-7.00869.40605-13.95972.41765-21.35229.41923-.50621-.79907-.57085-1.58814-.52781-2.76071Z"/><path class="cls-14" d="m641.98052,451.03061c-2.13778-.76448-5.2154-1.55121-5.35066-2.68804-.29283-2.461.16861-5.77522,1.71036-7.49666,1.90329-2.12508,5.54996-1.43415,6.04423,1.63567.42086,2.61372-1.25913,5.56569-2.40393,8.54902Z"/><path class="cls-40" d="m654.76942,451.31971c-1.70764.35371-3.41531.70744-5.51006,1.05787-.43677-2.14865-.4864-4.29403-.04067-6.88925,2.17679-.45385,3.85826-.45787,5.61735-.01722.02957,2.24597-.01853,4.04728-.06662,5.8486Z"/><path class="cls-35" d="m654.75838,445.02644c-1.68143.00402-3.3629.00803-5.46423.00765-.46768-1.80279-.51545-3.60117-.49053-5.84397,1.90722-1.03484,3.74174-1.62521,5.86202-1.89535.22141,2.79072.15709,5.26119.09274,7.73168Z"/><path class="cls-16" d="m626.40014,436.80462c2.41503.31145,4.83003.62291,7.70317,1.01795-.76508,1.87476-1.98825,3.66594-3.70904,5.81204-1.55519.35715-2.61276.35942-3.76818-.08102-.14051-2.54481-.18323-4.64688-.22595-6.74896Z"/><path class="cls-8" d="m626.72391,443.99629c1.0576-.00226,2.11516-.00453,3.5693-.00974.46905,1.74889.5416,3.50074.64441,5.68983-1.1272.84572-2.28463,1.2542-3.92677,1.21214-.41878-2.59776-.35286-4.745-.28694-6.89223Z"/><path class="cls-29" d="m654.83605,445.47111c-.01331-2.91516.05101-5.38562.17258-8.31584,5.11396.04798,10.17074.55568,15.55661,1.33081.58835,2.43977.84761,4.61212,1.19251,7.19807.04221,1.8715-.00122,3.32943.04704,5.21759.02842,1.21991-.03485,2.00958-.00893,3.18807-2.0246,1.16351-4.8074,4.64062-5.35086-1.8083.00909-2.91914.31024-5.03743-.04947-7.03685-.28384-1.57788-1.38079-3.00948-2.11666-4.50604-1.42879,1.48287-3.56635,2.74788-4.10625,4.50404-.66803,2.17287-.0103,4.75334.07466,7.15771.01786,2.08854.74281,4.5915-2.92556,4.20992-3.1764-.33037-2.77144-2.39548-2.47871-4.90548-.02547-2.18642.02262-3.98773-.00694-6.2337Z"/><path class="cls-40" d="m660.68028,452.39377c-.51798-2.39777-1.17571-4.97823-.50768-7.15111.5399-1.75617,2.67746-3.02117,4.10625-4.50404.73587,1.49657,1.83282,2.92816,2.11666,4.50604.35971,1.99942.05856,4.11771-.02374,6.6557-1.79689.47622-3.52766.48152-5.6915.49341Z"/><path class="cls-40" d="m820.62436,446.52759c1.87922-.43595,3.65061-.43785,5.86541-.43805.52518,1.46084.60691,2.91997.60534,4.81172-1.32742,1.05035-2.57154,1.66807-4.13662,2.44036-1.02793-2.02364-1.73497-4.20182-2.33413-6.81403Z"/><path class="cls-40" d="m800.78438,445.47449c1.95401-.0851,3.82341.26633,6.09869.70032-.39584,2.2029-1.1975,4.32326-2.05487,6.85493-.49677.67368-.93788.93606-1.61171,1.30774-.99408-2.73597-1.75538-5.58121-2.43212-8.86299Z"/><path class="cls-17" d="m812.66487,447.45875c1.43219.554,2.46789,1.24811,3.50357,1.9422-.78089.98145-1.38147,2.36178-2.39823,2.82149-.85494.38656-2.19439-.29853-3.31931-.50921.60582-1.37145,1.21164-2.74292,2.21397-4.25448Z"/><path class="cls-13" d="m758.15135,452.80337c-1.19305-.97777-2.30082-1.69004-2.78796-2.70128-1.91167-3.96813-.58966-9.15361,2.53039-10.00877,3.09755-.84902,5.02526.59176,5.85751,3.61608,1.35599,4.92753-.47097,8.15075-5.59994,9.09398Z"/><path class="cls-44" d="m742.59666,441.00723c.51616,1.73546.67907,3.73243.86979,6.07079,1.93785-.38563,3.4092-.67845,5.2827-.99056.83222,1.79087,1.26233,3.60104,1.73129,5.81385-.91814.79665-1.8751,1.19068-3.21131,1.67249-4.03461-.10346-5.47831-2.10852-5.22334-5.65137.15917-2.21121.13789-4.43537.55088-6.9152Z"/><path class="cls-10" d="m768.28458,443.31973c1.13164-.37056,2.21029-.37318,3.69352-.37952-.012,1.70388-.42857,3.41151-1.24671,5.15191-1.10096-1.44628-1.80038-2.92536-2.44681-4.7724Z"/><path class="cls-23" d="m769.9881,450.43991c.04707.42811-.22323,1.0046-.76691,1.75151-.64944.18088-1.02547.19131-1.68342.18885.52307-.60593,1.32803-1.19895,2.45033-1.94036Z"/><path class="cls-37" d="m718.95446,437.20092c.31449,1.82708.46691,4.20457,1.1679,6.40752.4159,1.30705,1.69666,2.3389,2.58853,3.4945.83756-1.21812,2.05519-2.33257,2.42249-3.67898.53488-1.96086.45766-4.08872,1.00838-6.36242.36493,3.06667.97203,6.51293.15414,9.57905-.57961,2.17287-3.08514,3.83205-4.73096,5.72054-.82483-1.78335-2.11746-3.50355-2.36869-5.36434-.41286-3.05832-.15069-6.20781-.24179-9.79586Z"/><path class="cls-26" d="m730.39371,437.22932c.36499,2.66071.78537,5.80374,1.18995,9.86101.02298,2.71896.06182,4.52366.1007,6.32837-.19126.61189-.38253,1.22377-.84636,2.01105-.31136-5.78911-.35011-11.7536-.44429-18.20043Z"/><path class="cls-22" d="m713.97074,452.38983c-.28937-1.80532-.29667-3.60118-.32032-5.84551.0897-.78563.27897-1.06681.77302-1.42262.30915,2.04007.39664,4.21073.43849,6.84739-.23347.45405-.42125.44211-.8912.42073Z"/><path class="cls-26" d="m727.0879,455.755c.09523.14662-.24963.37707-.24963.37707,0,0-.31881-.27312-.25645-.41275.0624-.13965.41085-.11093.50608.03568Z"/><path class="cls-13" d="m857.2474,440.74512c3.49483-1.67022,6.44746-.89248,6.82666,2.44909.33347,2.9385-.28451,6.80584-2.06617,8.94191-1.93769,2.32321-5.42113.7915-5.95879-2.21818-.50617-2.83328.51213-5.93889,1.1983-9.17282Z"/><path class="cls-22" d="m851.99939,452.05248c-.29977-.17627-.61382-.63633-.92217-1.39115.30643.17262.60717.64.92217,1.39115Z"/><path class="cls-22" d="m852.75843,453.19786c-.22211.09278-.4039-.07733-.57894-.4912.23552-.13182.43965.02554.57894.4912Z"/><path class="cls-40" d="m778.29209,452.37713c-.48793-2.20177-.59302-4.39979-.59049-6.59772.0041-3.54173,1.68511-5.32372,5.809-4.38275.43622,4.00059.41667,7.48824.39712,10.97589-1.72818.00278-3.45634.00557-5.61562.00458Z"/><path class="cls-40" d="m790.06171,442.84671c1.48905-.84401,2.9781-1.68802,5.35562-3.03565,0,4.73307,0,8.16947-.06627,12.0834-1.44729.48008-2.82831.48262-4.64977.00594-.50678-3.33739-.57318-6.19554-.63958-9.05369Z"/><path class="cls-15" d="m783.92864,452.72502c-.00138-3.84011.01818-7.32776.00496-11.28627.35904,4.0363.75084,8.54347,1.11132,13.52612-.38598-.31214-.74067-1.09976-1.11628-2.23985Z"/><path class="cls-15" d="m789.74145,443.14867c.38665,2.55618.45305,5.41433.54534,8.74684-.1696,1.63998-.36512,2.80559-.81212,3.86018-.1855-4.17569-.11949-8.24038.26678-12.60702Z"/><path class="cls-40" d="m827.07815,443.59694c-.47533-.46323-.82755-1.31382-1.17311-2.53693.43654.46817.86636,1.30887,1.17311,2.53693Z"/><path class="cls-14" d="m732.05162,453.41829c-.40614-1.8043-.44499-3.60899-.42413-5.86268,1.42428-.44056,2.78882-.43213,4.5651-.42917.47811,1.45623.54451,2.91792.55699,4.81644-1.47948.78288-2.90511,1.12892-4.69796,1.4754Z"/><path class="cls-44" d="m745.77002,440.24237c-.50198.26105-1.33251.44427-2.49164.56651.50195-.25542,1.33254-.44989,2.49164-.56651Z"/><path class="cls-18" d="m844.00845,456.32505c-.09514-.04443.24153-.29027.4423-.23491.05843.23672-.12422.31137-.4423.23491Z"/><path class="cls-28" d="m874.20105,443.54005c-.25936-1.82863-.39805-4.09323-.18448-6.54941.33654,1.91012.32083,4.01177.18448,6.54941Z"/><path class="cls-39" d="m582.6821,443.41784c-.03866-.46045.22475-.87774.21221-1.12377.59441-1.44188,1.20139-2.63772,1.90876-4.15825,3.55802-.42547,7.01563-.52627,10.99346-.13682,1.25324,1.99519,1.9863,3.50011,2.71932,5.00503-.09384,1.20873-.1877,2.41746-.32406,4.17363h-11.14598c1.5678,6.95627,6.17813,6.07913,10.66056,5.02507-.05512,4.52628-4.2751,5.62217-11.36282,3.27416-4.03307-3.17675-3.86224-7.37822-3.66144-12.05905Z"/><path class="cls-20" d="m609.72771,436.05154c1.7059.30365,3.41181.60729,5.27923,1.67999-1.05232,1.51207-2.2021,2.40757-3.49928,2.95181-1.1184.46923-2.40461.53843-3.61664.78449,1.04635.86881,2.02465,1.84402,3.16151,2.5713.84035.53755,1.88729.75211,3.0284,1.40766,1.12931,2.84605,2.07244,5.39505,3.01554,7.94403-3.69294.97118-7.3383,2.25938-11.09246,2.82295-3.64456.54712-3.75624-1.82769-2.96261-4.62404.72796.07579,1.22835.18475,1.72505.16994,2.39946-.0715,4.79795-.17635,7.19677-.26937-1.58236-1.47726-3.40711-2.77335-4.68262-4.47992-1.43318-1.91759-2.37045-4.20581-3.34706-6.95248.43821-1.14323.70001-1.66676.9618-2.19029.77913-.42222,1.55825-.84444,2.9653-1.36342,1.04097-.21538,1.45403-.334,1.86708-.45264Z"/><path class="cls-8" d="m492.91609,445.0359c.50304,1.79047.52325,3.5853.52062,5.827-7.05087.44686-14.0789.44686-21.58772.44686-.10606-2.10404-.1894-3.7571-.21167-5.87234,6.97268-.44049,13.8843-.41883,21.27876-.40152Z"/><path class="cls-27" d="m626.62609,443.55358c.0319,2.58992-.03402,4.73716-.01146,7.33891-.75724,2.10292-1.60303,3.7513-2.44879,5.39969-.58941-1.05198-1.17884-2.10394-1.77954-4.00448-.05514-3.3369-.09894-5.82524-.08-8.76567.12032-2.57975.17789-4.70742.23545-6.83509,1.02902.01162,2.05798.02323,3.47269.07627.42841,2.14349.47113,4.24557.61165,6.79037Z"/><path class="cls-40" d="m622.24358,443.97413c.04378,2.48834.08758,4.97668.06957,7.92733-1.52524.811-2.98863,1.15969-4.83435,1.49887-1.32543-2.55848-2.26857-5.10748-2.98111-8.03174,2.7357-.71502,5.24081-1.05475,7.74589-1.39446Z"/><path class="cls-16" d="m604.48353,437.81393c.15002.5772-.11179,1.10073-.57835,1.84095-.60619,1.28174-1.0688,2.32833-1.39723,3.41544-.87502,2.89631-2.08599,2.15554-3.71218.14928-1.01296-1.72049-1.74601-3.22541-2.61666-5.06484,2.53914-.35453,5.21588-.37453,8.30441-.34083Z"/><path class="cls-9" d="m441.21417,452.4843c-1.27497-.79134-2.13622-1.62332-2.99748-2.4553,1.63395-1.14704,3.26791-2.29407,4.90185-3.44111.56099.53046,1.12198,1.06092,1.68296,1.59137-1.05788,1.42147-2.11576,2.84293-3.58734,4.30504Z"/><path class="cls-16" d="m622.3063,443.52203c-2.5678.7918-5.07291,1.13153-7.99478,1.54947-1.37171-.28025-2.41865-.49481-3.25899-1.03236-1.13686-.72728-2.11516-1.70249-3.16151-2.5713,1.21203-.24606,2.49825-.31526,3.61664-.78449,1.29718-.54424,2.44697-1.43974,3.7285-2.58285,2.20063-.74382,4.33349-1.08755,6.88599-1.42241.36205,2.13653.30448,4.26421.18416,6.84395Z"/><path class="cls-16" d="m609.54491,435.92635c-.23026.24382-.64331.36245-1.38031.43881.18318-.21618.69035-.39008,1.38031-.43881Z"/><path class="cls-43" d="m519.68828,448.64745c-1.84215,1.67553-3.61179,2.93255-5.38145,4.18955-1.27495-2.22809-3.46818-4.42305-3.55018-6.69424-.07274-2.01436,1.73119-5.12073,3.53683-5.96079,3.52118-1.63823,5.58473,1.5839,5.39479,8.46548Z"/></svg>