<?xml version="1.0" encoding="UTF-8"?>
<svg id="EXAMPLES_TURN_OFF_" data-name="EXAMPLES (TURN OFF)" xmlns="http://www.w3.org/2000/svg" viewBox="0 0 1250 703">
  <path d="M358.54,457.71c34.51,0,61.19-26.68,61.19-66.17v-153.69h37.35v249.03h-37v-23.12c-16.72,17.43-39.84,27.39-65.81,27.39-53.36,0-94.28-38.78-94.28-97.48v-155.82h37.35v153.69c0,40.2,26.32,66.17,61.19,66.17"/>
  <path d="M484.83,237.85h35.93v90.72c16.37-16.72,39.13-27.04,64.39-27.04,53.36,0,95.34,42.34,95.34,94.99s-41.98,94.63-95.34,94.63c-25.26,0-48.38-10.32-64.75-27.04v22.77h-35.57v-249.03ZM582.67,459.49c34.15,0,62.26-28.1,62.26-62.97s-28.1-62.97-62.26-62.97-62.61,27.75-62.61,62.97,27.75,62.97,62.61,62.97"/>
  <path d="M787.93,301.89c52.29,0,90.72,40.2,90.72,94.27v11.74h-147.64c4.98,29.53,29.53,51.58,60.12,51.58,20.99,0,38.78-8.54,52.29-26.68l25.97,19.21c-18.15,24.19-45.18,38.78-78.27,38.78-54.43,0-96.41-40.56-96.41-94.63,0-51.23,40.2-94.27,93.21-94.27M731.73,379.44h110.64c-6.05-27.75-28.46-46.25-55.14-46.25s-49.09,18.5-55.5,46.25"/>
  <path d="M975.06,337.46c-23.48,0-40.56,18.14-40.56,46.25v103.17h-35.93v-181.43h35.57v22.41c8.89-14.59,23.48-23.84,43.4-23.84h12.45v33.44h-14.94Z"/>
</svg>