<?xml version="1.0" encoding="UTF-8"?><svg id="PASTE_LOGO_HERE" xmlns="http://www.w3.org/2000/svg" viewBox="0 0 1250 703"><defs><style>.cls-1{fill:#e95420;}.cls-2{fill:#fff;}</style></defs><path d="M349.83646,430.29615c-4.97725,1.24568-11.54265,2.56588-19.70378,3.96388-8.16004,1.40015-17.60354,2.09701-28.3305,2.09701-9.32682,0-17.17895-1.36233-23.55205-4.0773-6.37417-2.7182-11.50376-6.56757-15.38878-11.54374-3.88718-4.97617-6.68533-10.84365-8.39554-17.60568-1.7113-6.76203-2.56372-14.25762-2.56372-22.50193v-68.08592h21.68517v63.42199c0,14.7708,2.33144,25.34221,6.9954,31.71315,4.66287,6.37417,12.51175,9.56127,23.54989,9.56127,2.33251,0,4.73957-.07886,7.22981-.23659,2.48484-.15232,4.8152-.34787,6.99431-.58232,2.17587-.23228,4.15616-.46455,5.94635-.69791,1.78369-.23445,3.0661-.50454,3.84611-.8146v-102.36495h21.68624v117.75365h.00109Z"/><path d="M402.76481,317.90538c2.64042-1.70806,6.64535-3.49715,12.00829-5.36188,5.36294-1.86687,11.54265-2.79815,18.53805-2.79815,8.70236,0,16.43998,1.55465,23.20093,4.66179,6.76094,3.11147,12.47502,7.46212,17.1379,13.06057,4.66503,5.59416,8.19891,12.28056,10.60923,20.05273,2.40706,7.77435,3.61492,16.32113,3.61492,25.64689,0,9.79463-1.44014,18.61909-4.31393,26.46686-2.87919,7.85104-6.95972,14.49425-12.24383,19.93496-5.28516,5.44289-11.65719,9.64228-19.12037,12.59061-7.46103,2.95156-15.85549,4.43061-25.1834,4.43061-10.10577,0-19.04259-.69791-26.81476-2.09592-7.77541-1.39909-14.14743-2.79815-19.12037-4.19724v-173.71895l21.68515-3.72834v65.05546h.00218ZM402.76481,414.9063c2.17587.62337,5.24411,1.20569,9.21014,1.74805,3.96279.54559,8.89682.81568,14.80753.81568,11.65824,0,20.9851-3.84829,27.98155-11.5416,6.99431-7.6944,10.49255-18.61477,10.49255-32.7622,0-6.21212-.62337-12.04179-1.86579-17.48794-1.24674-5.43966-3.26379-10.14142-6.06194-14.10638-2.79924-3.96497-6.41416-7.07208-10.84259-9.329-4.43166-2.25042-9.75791-3.37938-15.97326-3.37938-5.90962,0-11.34928,1.01337-16.32222,3.03151-4.97725,2.02246-8.78555,4.12052-11.42597,6.29422v76.71704Z"/><path d="M608.89054,430.29615c-4.9762,1.24568-11.54374,2.56588-19.70486,3.96388-8.16112,1.40015-17.60354,2.09701-28.3305,2.09701-9.329,0-17.18003-1.36233-23.55203-4.0773-6.37526-2.7182-11.50592-6.56757-15.38876-11.54374-3.88825-4.97617-6.68531-10.84365-8.39554-17.60568s-2.56479-14.25762-2.56479-22.50193v-68.08592h21.68733v63.42199c0,14.7708,2.33037,25.34221,6.9954,31.71315,4.66288,6.37417,12.51066,9.56127,23.55097,9.56127,2.32928,0,4.73957-.07886,7.22658-.23659,2.48378-.15232,4.81735-.34787,6.99536-.58232,2.17584-.23228,4.15834-.46455,5.94638-.69791,1.78475-.23445,3.06828-.50454,3.84829-.8146v-102.36495h21.68519v117.75365h.00099Z"/><path d="M640.13268,316.04068c4.97297-1.24242,11.57618-2.56588,19.82046-3.96602,8.23781-1.398,17.72236-2.09701,28.44613-2.09701,9.63905,0,17.64244,1.36342,24.01658,4.07947,6.37203,2.72361,11.46382,6.52867,15.2732,11.42597,3.80615,4.89625,6.49085,10.76805,8.04553,17.60568,1.55356,6.84307,2.33357,14.3808,2.33357,22.6197v68.08375h-21.6873v-63.42307c0-7.45995-.50669-13.83303-1.51683-19.12037-1.0112-5.28084-2.67824-9.5591-5.01181-12.82183-2.33357-3.26597-5.4418-5.63521-9.32682-7.11316-3.89148-1.47796-8.70883-2.21583-14.4564-2.21583-2.33146,0-4.74607.07995-7.22873.23336-2.48807.15664-4.85948.35219-7.11096.58341-2.26011.23336-4.27934.50777-6.06408.81677-1.78804.31332-3.07256.54668-3.84829.69791v102.36281h-21.68301v-117.75154h-.00125Z"/><path d="M788.19828,312.54353h45.93513v18.188h-45.93513v55.95878c0,6.06412.46237,11.07596,1.39906,15.0398.93233,3.9682,2.32928,7.0764,4.19507,9.32791,1.86796,2.25582,4.19724,3.85043,6.99536,4.78062,2.79818.93237,6.06197,1.40124,9.7946,1.40124,6.68313,0,11.97051-.73682,15.85552-2.21583,3.88284-1.47578,6.5287-2.52697,7.92776-3.14711l4.66285,17.72236c-2.17801,1.08792-6.0263,2.48701-11.54268,4.19292-5.51744,1.70914-11.77387,2.56588-18.77141,2.56588-8.23781,0-15.03872-1.04796-20.4006-3.14711-5.36406-2.10024-9.67901-5.24626-12.94174-9.44136-3.26379-4.20047-5.55957-9.36681-6.87871-15.50762-1.32132-6.13975-1.98356-13.25288-1.98356-21.3362v-108.19353l21.6873-3.72834v37.53959h.00119Z"/><path d="M952.11835,430.29615c-4.97725,1.24568-11.54268,2.56588-19.70374,3.96388-8.16218,1.40015-17.60242,2.09701-28.32836,2.09701-9.329,0-17.18-1.36233-23.55315-4.0773-6.3742-2.7182-11.50596-6.56757-15.39308-11.54374-3.88502-4.97617-6.68313-10.84365-8.39449-17.60568s-2.5637-14.25762-2.5637-22.50193v-68.08592h21.6873v63.42199c0,14.7708,2.33146,25.34221,6.99325,31.71315,4.66503,6.37417,12.5128,9.56127,23.55315,9.56127,2.33146,0,4.7396-.07886,7.22873-.23659,2.48378-.15232,4.81306-.34787,6.99325-.58232,2.17801-.23228,4.15728-.46455,5.94849-.69791,1.78475-.23445,3.0661-.50454,3.84506-.8146v-102.36495h21.6873v117.75365Z"/><circle class="cls-1" cx="1021.13014" cy="301.80898" r="48.96773"/><path class="cls-2" d="M995.71773,301.80898c0,3.4777-2.81869,6.29639-6.29857,6.29639-3.47553,0-6.29422-2.81869-6.29422-6.29639,0-3.47661,2.81869-6.29531,6.29422-6.29531,3.47876,0,6.29857,2.81866,6.29857,6.29531ZM1031.53627,332.42122c1.73832,3.00992,5.58766,4.04166,8.59864,2.30442,3.01097-1.73832,4.04275-5.58875,2.30442-8.59973-1.73832-3.01097-5.58766-4.04166-8.59864-2.30333-3.01097,1.73832-4.04275,5.58872-2.30442,8.59864ZM1042.43933,277.49309c1.73832-3.01097.70873-6.86144-2.30442-8.59758-3.0088-1.73832-6.86032-.70655-8.59864,2.30333-1.73832,3.01097-.70655,6.86144,2.30442,8.59867,3.01097,1.7405,6.86144.70764,8.59864-2.30442ZM1021.13126,283.85539c9.38195,0,17.07957,7.19094,17.88332,16.36326l9.11185-.1426c-.43217-6.81713-3.38914-12.94606-7.94504-17.46632-2.41138.93128-5.20956.80487-7.62417-.58987-2.41573-1.39474-3.92498-3.75643-4.32365-6.31476-2.26446-.61473-4.64669-.94423-7.10232-.94423-4.30849,0-8.3815,1.008-11.99748,2.80033l4.43384,7.96123c2.29684-1.06744,4.86272-1.66704,7.56364-1.66704ZM1003.17659,301.80898c0-6.07384,3.0175-11.44328,7.63386-14.69194l-4.67802-7.81863c-5.41912,3.61815-9.4554,9.13882-11.15805,15.60917,2.01488,1.62378,3.30698,4.1108,3.30698,6.9014,0,2.79169-1.29105,5.27867-3.30698,6.90249,1.70265,6.4714,5.73893,11.9921,11.15805,15.61134l4.67802-7.81972c-4.61643-3.24869-7.63386-8.61812-7.63386-14.69411ZM1021.13126,319.76579c-2.70092,0-5.2668-.5996-7.56476-1.66918l-4.43384,7.96123c3.6171,1.79342,7.68899,2.80033,11.99748,2.80033,2.45569,0,4.83898-.32842,7.10232-.94315.39868-2.55938,1.90792-4.92107,4.32365-6.31476,2.41355-1.39474,5.21167-1.52115,7.62417-.58987,4.55589-4.52243,7.51181-10.65137,7.94504-17.4674l-9.11185-.1426c-.80269,9.17229-8.50032,16.36541-17.8822,16.36541Z"/><path d="M972.17218,410.76476c4.19374,0,7.70741,3.30857,7.70741,7.64668,0,4.42043-3.51368,7.73035-7.70741,7.73035-4.21667,0-7.75057-3.30992-7.75057-7.73035,0-4.33811,3.53389-7.64668,7.75057-7.64668M972.17218,425.00966c3.55415,0,6.30951-2.83493,6.30951-6.59823,0-3.67967-2.75535-6.51732-6.30951-6.51732-3.60003,0-6.35402,2.83765-6.35402,6.51732,0,3.7633,2.754,6.59823,6.35402,6.59823M969.16992,413.95053h3.47184c2.14004,0,3.14799.84198,3.14799,2.57184,0,1.6219-1.02819,2.3006-2.36537,2.44497l2.56912,3.96977h-1.50046s-2.44499-3.86719-2.44499-3.86719h-1.48292s0,3.86719,0,3.86719h-1.39521v-8.98658ZM970.56512,417.93916h1.46268c1.23463,0,2.36404-.06341,2.36404-1.47888,0-1.19413-1.02819-1.37767-1.97543-1.37767h-1.85128s0,2.85655,0,2.85655Z"/></svg>