<?xml version="1.0" encoding="UTF-8"?><svg id="LOGO" xmlns="http://www.w3.org/2000/svg" viewBox="0 0 1250 703"><defs><style>.cls-1{fill:#022851;stroke-width:0px;}</style></defs><path class="cls-1" d="m969.28402,414.16047l14.63501-38.34818,2.55469,2.1758c8.98543,7.26661,21.17485,13.44002,32.68734,13.68201,10.28992.23893,15.32274-2.47576,13.95267-11.09541-1.02068-6.44215-8.36302-7.57608-12.94274-8.47192l-10.07168-1.99225c-19.58609-3.62047-36.04967-15.58587-36.04967-38.24227,0-34.26035,29.82685-53.47317,59.82277-53.47317,15.77584,0,30.22002,3.97159,43.75773,12.68829l-12.70789,33.97762c-6.97116-4.97052-17.52825-11.96688-30.89155-12.4519-4.39401-.16498-14.44369,2.11884-11.22329,12.22891,1.38668,4.30282,7.62075,6.11111,11.44715,7.03025l11.35441,2.71471c21.2348,4.89221,36.59572,16.86039,36.59572,41.31712,0,34.44258-30.01253,51.49337-59.83938,51.49337-17.38616,0-37.53469-4.89887-53.08129-13.23299"/><rect class="cls-1" x="908.27103" y="280.7436" width="50.21023" height="144.48919"/><polygon class="cls-1" points="850.68098 280.7436 903.01975 280.7436 849.57292 425.2328 807.11432 425.2328 753.85276 280.7436 806.00066 280.7436 828.34891 367.93064 850.68098 280.7436"/><path class="cls-1" d="m706.06112,322.45002h0c.92819,6.15316,10.06607,50.36766,10.06607,50.36766h-20.06636l10.00029-50.36766Zm-76.13927,102.78278h53.08129l4.02332-18.14442h37.88945l5.03304,18.14442h53.09207l-49.70774-144.48919h-55.66854l-47.74288,144.48919Z"/><path class="cls-1" d="m499.58527,280.7436h51.43689c46.68486,0,82.36338,21.22685,82.36338,74.32862,0,42.78576-29.08692,70.16057-69.91321,70.16057l-63.88707-.07872v-144.41048Zm50.5266,103.0017h3.4363c16.83754,0,29.32868-10.0059,29.32868-28.85725,0-20.3051-11.0747-31.62997-29.56612-31.62997h-3.19886v60.48721Z"/><path class="cls-1" d="m469.02281,285.27785l2.72118,23.70236c.64568,5.63558,3.8812,19.13774-.11171,17.32686-2.51803-1.11495-4.57735-7.24504-6.63666-12.67101-1.04401-2.76107-6.01968-15.80905-7.32183-16.76852-6.28148-4.66512-21.962-9.90867-32.56981-9.95457-32.17688-.12185-53.46041,23.37694-53.46041,65.07793,0,29.89737,14.46161,65.78443,51.2525,65.78443,13.18169,0,38.4314-4.10937,45.30529-22.67799,3.09772-8.40874,5.94592-15.87267,8.00653-13.61581,1.51629,1.66229-.46237,8.39256-1.37978,12.01152-4.33689,17.22377-4.57304,22.43623-5.94592,23.10391-16.62337,8.25864-37.9356,10.98025-56.59803,10.98025-59.31403,0-79.8102-34.2651-79.8102-68.51833,0-59.45723,36.88491-84.06557,94.07945-81.92905,14.45213.53246,28.91806,3.08133,42.46939,8.148"/><path class="cls-1" d="m293.84632,287.91017l-9.48897-3.28103c-3.20015-2.84475.68645-3.63406.68645-3.63406,0,0,13.72881,2.51501,47.94063-.34333,0,0,2.972.57708.90749,2.96657l-11.21122,4.7568c-7.31341,3.15961-7.31341,1.34592-7.31341,9.2787l-.06254,73.63394c0,57.58836-59.16393,56.28945-70.69432,56.28945-5.48333,0-59.31209,0-59.31209-46.23069v-77.93829c0-13.59532,1.46281-13.22633-3.09793-14.825l-13.72881-5.10269s-2.31488-3.25428,1.82037-3.04617c11.21509.56071,27.46323,2.94589,65.21746.21738,0,0,3.3123.7947,1.13803,3.1732l-10.97615,3.17988c-8.69707,3.85576-7.54524.90533-7.78009,9.74237l.26893,76.85288c0,18.85091,9.79434,42.17394,40.17521,42.17394,41.93024,0,42.3221-35.90475,42.3221-43.88497l.07202-76.14034c.44792-7.16547-.46388-5.12059-6.88317-7.83853"/></svg>