<svg id="LOGO" xmlns="http://www.w3.org/2000/svg" viewBox="0 0 1250 703"><defs><style>.cls-1{fill:#4c4c4c;}.cls-2{fill:gray;}</style></defs><path class="cls-1" d="M482.19968,403.24871V282.36394L377.51093,221.92213v46.36658l41.02149,23.6835a2.31021,2.31021,0,0,1-.0072,3.97052l-48.75777,28.15012a4.58685,4.58685,0,0,1-4.59512-.00262l-48.75286-28.14718a2.31026,2.31026,0,0,1-.00081-3.9751l41.01478-23.67973.00016-46.36642L252.74468,282.36394V403.24887l.00016-.55242v.55242l40.15465-23.18313-.00016-47.37026a2.30986,2.30986,0,0,1,3.442-1.97626l48.75777,28.15029a4.58789,4.58789,0,0,1,2.29527,3.98083l.00032,56.29485a2.30986,2.30986,0,0,1-3.424,1.99753l-41.03213-23.68988-40.15449,23.1833,104.6881,60.442,104.68843-60.442L432.006,397.45284,390.9848,421.13667a2.31028,2.31028,0,0,1-3.43513-1.99148l.00016-56.30058a4.58711,4.58711,0,0,1,2.29985-3.978l48.7527-28.14783a2.31032,2.31032,0,0,1,3.44282,1.98706l-.00017,47.35962Z"/><path d="M367.47223,481.0782l104.68846-60.44208L432.006,397.45285l-41.02126,23.68394a2.31025,2.31025,0,0,1-3.43506-1.99155l.00014-56.30053a4.58726,4.58726,0,0,1,2.29978-3.97816l48.75273-28.14771a2.31023,2.31023,0,0,1,3.44278,1.987l0,47.35966,40.15456,23.18333V282.364L367.47238,348.602Z"/><path class="cls-2" d="M377.51088,221.92221V268.2887l41.02158,23.68353a2.31028,2.31028,0,0,1-.00722,3.97062L369.76742,324.093a4.58726,4.58726,0,0,1-4.59508-.00259l-48.75293-28.1472a2.31025,2.31025,0,0,1-.00072-3.97509l41.01476-23.67974.00011-46.36654L252.74468,282.364,367.47238,348.602,482.19966,282.364Z"/><path class="cls-1" d="M343.97066,421.14279,302.93851,397.4529,262.784,420.63612,367.47223,481.0782l.00015-132.47625L252.74468,282.364V403.249l.0001-.5525v.5525l40.15466-23.18322-.00011-47.37032a2.31,2.31,0,0,1,3.44208-1.97623l48.75767,28.15037a4.58763,4.58763,0,0,1,2.2953,3.98081l.00031,56.29491A2.30987,2.30987,0,0,1,343.97066,421.14279Z"/><path d="M542.50548,363.00171V289.50233h30.82827v74.54405c0,12.19225,6.27083,20.37806,21.42345,20.37806,14.28229,0,21.07475-8.70814,21.07475-20.90039V289.50233h30.82827v73.49938c0,28.73823-17.24337,46.15523-51.903,46.15523C559.92319,409.15694,542.50548,392.08792,542.50548,363.00171Z"/><path d="M661.12813,317.71752h27.344v12.19225h.523c6.61808-9.57988,15.15256-14.80463,27.5184-14.80463,19.507,0,31.0025,13.9336,31.0025,33.78863v57.99878H719.126v-52.251c0-9.40482-4.70169-15.84929-13.93355-15.84929-9.40479,0-15.67418,7.83783-15.67418,18.81036v49.28993H661.12813Z"/><path d="M762.11554,282.36119h28.39025v22.99622H762.11554Zm0,35.35633h28.39025v89.175H762.11554Z"/><path d="M812.83412,383.37978V340.723H800.99127V317.71752h11.84285V289.50233H840.527v28.21519h16.1987V340.723H840.527v36.561c0,6.96679,3.83138,8.70814,9.92787,8.70814,2.438,0,5.22474-.17435,6.27083-.17435v20.72676c-2.43945.696-7.83854,1.39336-15.50131,1.39336C824.67839,407.93792,812.83412,402.53812,812.83412,383.37978Z"/><path d="M874.31915,414.20733h9.75352c8.36016,0,11.66993-3.30905,11.66993-9.40482,0-3.83139-1.74206-9.05684-5.3991-18.46237l-26.30091-68.62262h29.95795l12.0172,37.9687c2.78672,8.70885,5.57344,20.55241,5.57344,20.55241h.3487s2.438-11.84356,5.22474-20.55241l11.66992-37.9687h28.39025l-30.82827,90.394c-7.14115,20.9004-15.67566,28.21589-33.615,28.21589H874.31915Z"/><path d="M996.37571,324.64489a11.4518,11.4518,0,0,0-6.07248-6.069,11.50864,11.50864,0,0,0-8.84127,0,11.43119,11.43119,0,0,0-6.06921,6.069,11.51289,11.51289,0,0,0,0,8.84143,11.43119,11.43119,0,0,0,6.06921,6.06905,11.50864,11.50864,0,0,0,8.84127,0,11.4518,11.4518,0,0,0,6.07248-6.06905,11.54855,11.54855,0,0,0,0-8.84143Zm-3.01333,8.76974a8.82645,8.82645,0,0,1-3.12724,3.12741,8.6987,8.6987,0,0,1-8.70149,0,8.795,8.795,0,0,1-3.12725-3.12741,8.69125,8.69125,0,0,1,0-8.698,8.79488,8.79488,0,0,1,3.12725-3.12741,8.6987,8.6987,0,0,1,8.70149,0,8.82628,8.82628,0,0,1,3.12724,3.12741,8.71235,8.71235,0,0,1,0,8.698Z"/><path d="M989.87635,329.00038a3.33808,3.33808,0,0,0,.55717-1.95449,3.16711,3.16711,0,0,0-.53425-1.883,3.35733,3.35733,0,0,0-1.28652-1.10761,3.24935,3.24935,0,0,0-1.39454-.36157h-5.31628v10.48968h2.303v-3.55412h2.28528l1.83909,3.55412h2.53113l-2.15925-4.08411A3.68711,3.68711,0,0,0,989.87635,329.00038Zm-5.67146-3.6029h2.189a1.88,1.88,0,0,1,.96112.34209,1.42079,1.42079,0,0,1,.54734,1.30632,1.75152,1.75152,0,0,1-.54734,1.40731,1.62192,1.62192,0,0,1-1.01612.4691h-2.134Z"/></svg>