<?xml version="1.0" encoding="UTF-8"?><svg id="LOGOS" xmlns="http://www.w3.org/2000/svg" viewBox="0 0 1250 703"><defs><style>.cls-1{fill:#fff;}.cls-1,.cls-2{stroke-width:0px;}.cls-2{fill:#036;}</style></defs><g id="Layer_4"><g id="g10"><g id="g12"><path id="path14" class="cls-2" d="M504.06201,429.87483h239.17908v-239.16854h-239.17908v239.16854"/><path id="path16" class="cls-1" d="M504.66719,429.26868h237.96785v-237.95722h-237.96785v237.95722ZM745.35395,431.98698h-243.4048v-243.39355h243.4048v243.39355"/><path id="path18" class="cls-1" d="M652.59861,329.56266l-56.98637-69.83238h-35.51653v13.06328h9.25012v74.877h-9.25012v13.05096h44.02864v-13.05096h-9.42779v-55.27813l55.8798,68.3291h36.62836v-13.05096h-9.25803v-74.87699h9.25803v-13.06328h-43.85886v13.06328h9.25275v56.76908ZM644.64683,366.98796l-41.6211-50.76478v25.16688h9.61076v25.5979h-61.05286v-25.5979h9.25275v-62.33535h-9.25275v-25.46772h50.13585l42.37759,51.87487v-26.40717h-9.25539v-25.46772h60.87694v25.46772h-9.25979v62.33534h9.25979v25.5979h-51.07178"/><path id="path20" class="cls-2" d="M403.82773,475.48775v17.39348c0,6.52434,2.91375,9.30544,6.82635,9.30544,4.30531,0,7.13145-2.87012,7.13145-9.30544v-17.39348h3.82812v17.13303c0,9.00311-4.74108,12.65522-11.08914,12.65522-6.00201,0-10.52451-3.39165-10.52451-12.52565v-17.2626h3.82773"/><path id="path22" class="cls-2" d="M426.91953,489.44552c0-2.21823-.04293-3.9576-.17285-5.69556h3.39244l.21709,3.43501h.08523c1.04631-1.95646,3.48005-3.91256,6.95966-3.91256,2.91137,0,7.43492,1.73796,7.43492,8.95526v12.57078h-3.82539v-12.13536c0-3.39174-1.26375-6.26115-4.87056-6.26115-2.47904,0-4.43761,1.78291-5.13339,3.91538-.17285.47755-.2601,1.17333-.2601,1.78291v12.69823h-3.82706v-15.35293"/><path id="path24" class="cls-2" d="M449.96837,504.79845v-21.04849h3.82777v21.04849h-3.82777ZM451.79465,479.87962c-1.43519,0-2.39143-1.1304-2.39143-2.47869,0-1.34767,1.00093-2.43585,2.47904-2.43585,1.47856,0,2.43445,1.08818,2.43445,2.43585,0,1.34829-.95589,2.47869-2.47913,2.47869h-.04292"/><path id="path26" class="cls-2" d="M460.53484,483.74996l4.13018,11.78422c.69508,1.95716,1.26094,3.69547,1.6967,5.43721h.12948c.48036-1.74174,1.08853-3.48005,1.7837-5.43721l4.08778-11.78422h4.00193l-8.26255,21.04849h-3.65421l-7.99982-21.04849h4.08682"/><path id="path28" class="cls-2" d="M491.75961,492.18545c.04222-2.39152-1.00013-6.21612-5.26384-6.21612-3.91195,0-5.56528,3.56414-5.87008,6.21612h11.13391ZM480.58268,494.92469c.0877,5.17561,3.34987,7.30703,7.17447,7.30703,2.73932,0,4.43523-.48036,5.82943-1.04323l.6949,2.69596c-1.34846.60887-3.69794,1.34934-7.0442,1.34934-6.43638,0-10.3521-4.30567-10.3521-10.61186,0-6.39099,3.78519-11.39455,9.91678-11.39455,6.86906,0,8.65293,6.04398,8.65293,9.91432,0,.7848-.0431,1.39332-.13018,1.82522l-14.74203-.04222"/><path id="path30" class="cls-2" d="M499.15195,490.31731c0-2.47983-.04222-4.61116-.17328-6.56735h3.34785l.17504,4.12983h.13018c.95527-2.82376,3.30474-4.60738,5.87148-4.60738.38968,0,.6949.04293,1.04235.12746v3.56696c-.43541-.04231-.82509-.08559-1.34846-.08559-2.69693,0-4.61011,2.04512-5.12996,4.86889-.08796.56727-.13106,1.17342-.13106,1.82618v11.22214h-3.82636l.04222-14.48114"/><path id="path32" class="cls-2" d="M511.72,500.92811c1.17606.69578,3.17367,1.4761,5.08773,1.4761,2.73915,0,4.04538-1.34767,4.04538-3.13234,0-1.82618-1.08897-2.82368-3.87034-3.86964-3.82724-1.39051-5.61112-3.43396-5.61112-5.95672,0-3.39094,2.78401-6.1731,7.26217-6.1731,2.13132,0,3.99964.56278,5.13084,1.30255l-.91305,2.74029c-.82509-.47799-2.34684-1.21845-4.30487-1.21845-2.26239,0-3.47803,1.30536-3.47803,2.87118,0,1.78467,1.21563,2.56498,3.95742,3.61094,3.60733,1.34758,5.52139,3.1735,5.52139,6.34806,0,3.73769-2.91155,6.34903-7.82776,6.34903-2.30373,0-4.43506-.61019-5.91282-1.48128l.91305-2.8666"/><path id="path34" class="cls-2" d="M528.37479,504.79845v-21.04849h3.82724v21.04849h-3.82724ZM530.20176,479.87962c-1.43379,0-2.39169-1.1304-2.39169-2.47869,0-1.34767,1.00013-2.43585,2.47878-2.43585s2.43655,1.08818,2.43655,2.43585c0,1.34829-.95791,2.47869-2.47965,2.47869h-.04398"/><path id="path36" class="cls-2" d="M542.07139,478.70523v5.04473h5.48005v2.9141h-5.48005v11.35056c0,2.60659.73977,4.08682,2.87109,4.08682,1.04323,0,1.65105-.08691,2.21664-.26046l.17504,2.91278c-.74065.26283-1.91406.52223-3.39183.52223-1.78388,0-3.21766-.61019-4.13335-1.60874-1.04235-1.17614-1.47777-3.04605-1.47777-5.52306v-11.48013h-3.25901v-2.9141h3.25901v-3.87034l3.74016-1.17439"/><path id="path38" class="cls-2" d="M552.54417,483.74996l4.56524,12.43778c.52074,1.39156,1.04323,3.04191,1.39069,4.30567h.08796c.38968-1.26375.82509-2.87285,1.34846-4.39539l4.17469-12.34806h4.04274l-5.73777,15.00205c-2.74267,7.2198-4.61187,10.91422-7.21995,13.22047-1.91406,1.60909-3.73928,2.26159-4.69543,2.43408l-.95791-3.21681c.95791-.26046,2.21841-.87069,3.34872-1.8692,1.04323-.82774,2.30461-2.30627,3.21766-4.26271.17504-.39205.30435-.6525.30435-.91296,0-.21718-.0862-.52267-.30435-.95527l-7.7398-19.43966h4.17469"/><path id="path40" class="cls-2" d="M587.37635,502.40421c3.6522,0,6.39133-3.43396,6.39133-8.21761,0-3.56766-1.78124-8.04477-6.30425-8.04477-4.48079,0-6.43619,4.17548-6.43619,8.17495,0,4.61019,2.60983,8.08743,6.30689,8.08743h.04222ZM587.24617,505.276c-5.65422,0-10.08927-4.17548-10.08927-10.82895,0-7.0449,4.6532-11.17464,10.43672-11.17464,6.04388,0,10.13061,4.3902,10.13061,10.78154,0,7.8304-5.43519,11.22205-10.43583,11.22205h-.04222"/><path id="path42" class="cls-2" d="M601.81537,504.79845v-18.13439h-2.91418v-2.9141h2.91418v-1.00083c0-2.95676.69577-5.65369,2.47877-7.34934,1.43379-1.39095,3.34785-1.95646,5.08775-1.95646,1.39069,0,2.52187.30611,3.25989.60782l-.47851,2.95738c-.60693-.26046-1.34759-.47763-2.47789-.47763-3.21679,0-4.08848,2.87118-4.08848,6.08866v1.1304h5.08951v2.9141h-5.04376v18.13439h-3.82724"/><path id="path44" class="cls-2" d="M621.33683,504.79845v-29.3107h4.17557l9.35039,14.82956c2.1322,3.43396,3.86946,6.47825,5.21881,9.52253l.13018-.04222c-.34833-3.91502-.43277-7.48022-.43277-12.00307v-12.3068h3.56511v29.3107h-3.82812l-9.30553-14.8746c-2.04424-3.25979-4.00316-6.60852-5.43607-9.78378l-.13018.04301c.21814,3.69714.26036,7.21906.26036,12.08962v12.52574h-3.56775"/><path id="path46" class="cls-2" d="M662.04489,492.18545c.04222-2.39152-1.00014-6.21612-5.26279-6.21612-3.91256,0-5.56361,3.56414-5.87148,6.21612h11.13427ZM650.8684,494.92469c.08708,5.17561,3.34961,7.30703,7.17685,7.30703,2.73914,0,4.43505-.48036,5.82574-1.04323l.69489,2.69596c-1.34759.60887-3.69706,1.34934-7.04315,1.34934-6.43707,0-10.34963-4.30567-10.34963-10.61186,0-6.39099,3.78238-11.39455,9.91422-11.39455,6.87162,0,8.65198,6.04398,8.65198,9.91432,0,.7848-.04134,1.39332-.1293,1.82522l-14.74161-.04222"/><path id="path48" class="cls-2" d="M670.78569,483.74996l4.13247,11.78422c.69577,1.95716,1.26139,3.69547,1.69327,5.43721h.13282c.47763-1.74174,1.08634-3.48005,1.78124-5.43721l4.0876-11.78422h4.00228l-8.26317,21.04849h-3.65131l-8.00281-21.04849h4.0876"/><path id="path50" class="cls-2" d="M699.62149,494.05395c-4.17557-.08453-8.91587.65356-8.91587,4.74037,0,2.52443,1.6537,3.65554,3.56687,3.65554,2.78224,0,4.56523-1.73893,5.17395-3.52289.1293-.3931.17504-.82843.17504-1.21845v-3.65457ZM703.36077,499.75188c0,1.82627.08796,3.61094.30611,5.04657h-3.43845l-.34657-2.6547h-.13106c-1.13032,1.65096-3.43405,3.13225-6.43619,3.13225-4.26001,0-6.43619-3.00206-6.43619-6.04635,0-5.08598,4.52213-7.87025,12.65512-7.82416v-.43568c0-1.74139-.47763-4.91524-4.78252-4.87302-2.00114,0-4.04538.56727-5.52315,1.56582l-.8717-2.56428c1.74166-1.08792,4.30575-1.82592,6.95959-1.82592,6.47929,0,8.04503,4.3902,8.04503,8.61063v7.86884"/><path id="path52" class="cls-2" d="M722.75557,492.3174c0-.52505-.04486-1.13014-.17504-1.65378-.56559-2.39081-2.65117-4.39196-5.52404-4.39196-3.95742,0-6.30337,3.47662-6.30337,8.09015,0,4.30567,2.13132,7.82486,6.21893,7.82486,2.56409,0,4.91358-1.73893,5.60848-4.56612.13018-.5188.17504-1.04218.17504-1.65105v-3.65211ZM726.58017,473.92193v25.44036c0,1.86849.04486,4.00052.17592,5.43616h-3.43581l-.17416-3.65219h-.08796c-1.17254,2.34613-3.6953,4.12974-7.13199,4.12974-5.0851,0-9.04253-4.30461-9.04253-10.697-.04574-7.04666,4.34709-11.30658,9.43483-11.30658,3.26253,0,5.43607,1.52078,6.34911,3.17456h.08796v-12.52504h3.8246"/><path id="path54" class="cls-2" d="M742.93587,494.05395c-4.17557-.08453-8.91587.65356-8.91587,4.74037,0,2.52443,1.6537,3.65554,3.56687,3.65554,2.78224,0,4.56611-1.73893,5.17395-3.52289.1293-.3931.17504-.82843.17504-1.21845v-3.65457ZM746.67515,499.75188c0,1.82627.08796,3.61094.30611,5.04657h-3.43757l-.34833-2.6547h-.1293c-1.1312,1.65096-3.43493,3.13225-6.43707,3.13225-4.26001,0-6.43619-3.00206-6.43619-6.04635,0-5.08598,4.52213-7.87025,12.65602-7.82416v-.43568c0-1.74139-.47763-4.91524-4.78338-4.87302-2.00114,0-4.04538.56727-5.52315,1.56582l-.87082-2.56428c1.74078-1.08792,4.30487-1.82592,6.95959-1.82592,6.47841,0,8.04415,4.3902,8.04415,8.61063v7.86884"/><path id="path56" class="cls-2" d="M749.23926,510.18885c.95878-2.60829,2.13132-7.26136,2.60983-10.43697l4.26265-.43533c-1.04322,3.69785-2.95728,8.52377-4.17557,10.56683l-2.69692.30547"/><path id="path58" class="cls-2" d="M768.68506,489.22842h3.86948c4.04274,0,6.6095-2.21867,6.6095-5.56572,0-3.78308-2.74002-5.4358-6.73968-5.4358-1.82784,0-3.08925.17214-3.73926.34745l-.00004,10.65408ZM764.90007,475.91965c1.91318-.38967,4.69808-.65013,7.26127-.65013,4.0445,0,6.69656.78374,8.52268,2.4348,1.43643,1.26243,2.30639,3.26147,2.30639,5.5681,0,3.82706-2.47879,6.39134-5.52315,7.43448v.12922c2.21843.78374,3.56775,2.87285,4.30577,5.91476.95702,4.08752,1.65281,6.91639,2.21843,8.04758h-3.91518c-.47765-.82843-1.13032-3.34951-1.91318-7.00162-.8682-4.04556-2.47879-5.56916-5.9137-5.69661h-3.56432v12.69823h-3.785v-28.87881"/><path id="path60" class="cls-2" d="M800.55644,492.18545c.04312-2.39152-1.001-6.21612-5.26279-6.21612-3.91346,0-5.56623,3.56414-5.86886,6.21612h11.13165ZM789.37995,494.92469c.08796,5.17561,3.34961,7.30703,7.17683,7.30703,2.73826,0,4.43505-.48036,5.82574-1.04323l.69489,2.69596c-1.34757.60887-3.69704,1.34934-7.04403,1.34934-6.43619,0-10.34875-4.30567-10.34875-10.61186,0-6.39099,3.78324-11.39455,9.91337-11.39455,6.87248,0,8.65286,6.04398,8.65286,9.91432,0,.7848-.04222,1.39332-.12932,1.82522l-14.74158-.04222"/><path id="path62" class="cls-2" d="M807.90657,489.44552c0-2.21823-.04222-3.9576-.17592-5.69556h3.39269l.21729,3.43501h.0871c1.04412-1.95646,3.47979-3.91256,6.95782-3.91256,2.91418,0,7.43719,1.73796,7.43719,8.95526v12.57078h-3.82812v-12.13536c0-3.39174-1.26051-6.26115-4.87048-6.26115-2.47527,0-4.43505,1.78291-5.13085,3.91538-.17154.47755-.25951,1.17333-.25951,1.78291v12.69823h-3.82722v-15.35293"/><path id="path64" class="cls-2" d="M839.65039,502.40421c3.65305,0,6.39221-3.43396,6.39221-8.21761,0-3.56766-1.78386-8.04477-6.30425-8.04477-4.47993,0-6.43619,4.17548-6.43619,8.17495,0,4.61019,2.60897,8.08743,6.30425,8.08743h.04398ZM839.52106,505.276c-5.6542,0-10.08929-4.17548-10.08929-10.82895,0-7.0449,4.6532-11.17464,10.43672-11.17464,6.04388,0,10.13151,4.3902,10.13151,10.78154,0,7.8304-5.43605,11.22205-10.43672,11.22205h-.04222"/></g></g></g></svg>