<?xml version="1.0" encoding="UTF-8"?><svg id="LOGO" xmlns="http://www.w3.org/2000/svg" viewBox="0 0 1250 703"><defs><style>.cls-1{fill:none;}.cls-1,.cls-2,.cls-3,.cls-4{stroke-width:0px;}.cls-2{fill:#003594;}.cls-3{fill:#fff;}.cls-4{fill:#ffb81c;}</style></defs><g id="U_Pittsburgh"><path class="cls-3" d="m255.07144,403.85933c7.19371,13.49879,16.85969,25.53504,28.7813,35.81242,19.07126,16.44164,38.4239,23.53874,43.47699,25.20528,5.05296-1.66358,24.40453-8.74979,43.47524-25.18512,11.9282-10.27994,21.59848-22.3229,28.79326-35.83258h-144.5268Zm72.39025,38.22273c-7.89906,0-14.32669-6.41097-14.32669-14.31083,0-7.89892,6.42763-14.32669,14.32669-14.32669,7.89986,0,14.32333,6.42777,14.32333,14.32669,0,7.89986-6.42347,14.31083-14.32333,14.31083Zm7.35832-158.94137v-11.12167c0-4.14914-3.36344-7.51232-7.51259-7.51232-4.14888,0-7.51245,3.36318-7.51245,7.51232v11.12167h-80.23892v47.96611h175.54467v-47.96611h-80.28071Zm-56.0678,38.38103c-7.89892,0-14.32669-6.42777-14.32669-14.32682,0-7.8914,6.42777-14.31916,14.32669-14.31916,7.89986,0,14.3275,6.42777,14.3275,14.31916,0,7.89906-6.42763,14.32682-14.3275,14.32682Zm97.25986,0c-7.89986,0-14.32763-6.42777-14.32763-14.32682,0-7.8914,6.42777-14.31916,14.32763-14.31916,7.89892,0,14.32252,6.42777,14.32252,14.31916,0,7.89906-6.4236,14.32682-14.32252,14.32682Z"/><path class="cls-1" d="m415.10068,283.1407h-80.28067v-11.12166c0-4.14911-3.36352-7.51233-7.51257-7.51233s-7.51253,3.36322-7.51253,7.51233v11.12166h-80.23892v47.96615h175.54469v-47.96615Z"/><path class="cls-1" d="m255.07144,403.85939c7.19372,13.49879,16.85969,25.53506,28.78128,35.81243,19.07131,16.44162,38.42391,23.5387,43.47694,25.20529,5.05303-1.66368,24.40457-8.7499,43.47535-25.18516,11.92811-10.27999,21.59838-22.32285,28.79313-35.83256h-144.5267Z"/><path class="cls-4" d="m401.25537,400.64533c9.18721-18.55374,13.84531-39.86801,13.84531-63.35055v-6.18792h-175.54469v6.18792c0,23.47009,4.6581,44.77642,13.84531,63.32724.53942,1.08923,1.09943,2.16645,1.67014,3.23738h144.5267c.56624-1.06324,1.12181-2.13278,1.65723-3.21407Z"/><path class="cls-2" d="m316.52356,246.04458h22.04152v5.29493h-22.04152v-5.29493Zm22.02069-3.41435c0-2.80106,4.12961-3.97638,4.12961-8.92703v-3.63869h-6.40227v3.63869h-5.5361v-3.63869h-6.40237v3.63869h-5.53616v-3.63869h-6.40227v3.63869c0,4.76644,4.12888,6.12598,4.12888,8.92703h22.02069Zm-61.54377,17.35094h21.98593v-5.29496h-21.98593v5.29496Zm21.98593-8.64166c0-2.80099,4.16441-3.97631,4.16441-8.927v-3.63873h-6.40231v3.63873h-5.53616v-3.63873h-6.40227v3.63873h-5.53616v-3.63873h-6.40231v3.63873c0,4.76647,4.12888,6.12601,4.12888,8.927h21.98593Zm56.64847,8.64166h21.98583v-5.29496h-21.98583v5.29496Zm21.98583-8.64166c0-2.80099,4.16447-3.97631,4.16447-8.927v-3.63873h-6.40227v3.63873h-5.53616v-3.63873h-6.40237v3.63873h-5.5361v-3.63873h-6.40227v3.63873c0,4.76647,4.12888,6.12601,4.12888,8.927h21.98583Zm46.81046,22.65689v63.29837c0,25.03154-5.02389,47.81851-14.93209,67.72789-7.94706,15.96935-19.02204,30.10231-32.91662,42.00662-23.62081,20.23702-47.01038,26.95188-47.99466,27.22788l-1.26081.35387-1.26081-.3544c-.98401-.27653-24.37252-7.00516-47.99254-27.24854-13.89431-11.90801-24.96902-26.04177-32.91609-42.0082-9.9082-19.90699-14.93209-42.68629-14.93209-67.70511v-63.29837h42.64612v-1.19538c0-4.7664,3.76037-6.95888,4.12888-9.31177h21.98593c.41446,2.2915,4.16441,4.36114,4.16441,9.31177v1.19538h4.58804v-1.22376c0-7.52932-4.58976-8.56429-4.58976-13.33284v-4.75366h6.41399v3.70644h4.11842v-3.70644h6.43403v3.70644h3.99081v-3.70644h6.40234v3.70644h3.99081v-3.70644h6.43403v3.70644h4.11835v-3.70644h6.41393v4.75366c0,4.76855-4.58976,5.80352-4.58976,13.33284v1.22376h4.62996v-1.19538c0-4.7664,3.76041-6.95888,4.12888-9.31177h21.98583c.41456,2.2915,4.16447,4.36114,4.16447,9.31177v1.19538h42.64599Zm-24.83304,129.86299c.56624-1.06324,1.12181-2.13278,1.65723-3.21407,9.18721-18.55374,13.84531-39.86801,13.84531-63.35055v-54.15407h-80.28067v-11.12166c0-4.14911-3.36352-7.51233-7.51257-7.51233s-7.51253,3.36322-7.51253,7.51233v11.12166h-80.23892v54.15407c0,23.47009,4.6581,44.77642,13.84531,63.32724.53942,1.08923,1.09943,2.16645,1.67014,3.23738,7.19372,13.49879,16.85969,25.53506,28.78128,35.81243,19.07131,16.44162,38.42391,23.5387,43.47694,25.20529,5.05303-1.66368,24.40457-8.7499,43.47535-25.18516,11.92811-10.27999,21.59838-22.32285,28.79313-35.83256Zm-120.00925-26.82398h-19.10565v19.10565h19.10565v-19.10565Zm19.10538-19.11044h-19.10538v19.11044h19.10538v-19.11044Zm-19.10538-19.0998h-19.10565v19.0998h19.10565v-19.0998Zm114.68787,38.21024h-19.10565v19.10565h19.10565v-19.10565Zm0-38.21024h-19.10565v19.0998h19.10565v-19.0998Zm-38.21715,0h-19.09475v19.0998h19.09475v-19.0998Zm-19.09475,19.0998h-19.1115v19.11044h19.1115v-19.11044Zm38.20625,0h-19.1115v19.11044h19.1115v-19.11044Zm-19.1115,19.11044h-19.09475v19.10565h19.09475v-19.10565Zm-38.2658,0h-19.09954v19.10565h19.09954v-19.10565Zm.05955-38.21024h-19.09954v19.0998h19.09954v-19.0998Zm9.60828,74.6194c-7.89899,0-14.32671,6.42772-14.32671,14.32671,0,7.89983,6.42772,14.3108,14.32671,14.3108,7.89988,0,14.32336-6.41097,14.32336-14.3108,0-7.89899-6.42347-14.32671-14.32336-14.32671Zm-48.70946-120.56876c-7.89899,0-14.32671,6.42772-14.32671,14.31917,0,7.89899,6.42772,14.32671,14.32671,14.32671,7.89983,0,14.32754-6.42772,14.32754-14.32671,0-7.89145-6.42772-14.31917-14.32754-14.31917Zm97.25982,0c-7.89983,0-14.32754,6.42772-14.32754,14.31917,0,7.89899,6.42772,14.32671,14.32754,14.32671,7.89899,0,14.32252-6.42772,14.32252-14.32671,0-7.89145-6.42353-14.31917-14.32252-14.31917Z"/><path class="cls-2" d="m471.37715,278.35396c6.58603,0,7.12348.30411,7.18514,4.07186l.04555,1.98583c.05536,2.37052.10301,4.41731.10301,8.67977v17.34623c0,3.41809,1.08611,20.46862,22.51681,20.46862,5.90564,0,11.36562-1.86671,14.98131-5.12013,5.1881-4.67097,7.71068-12.04391,7.71068-22.54134v-17.07786c0-4.23863.30481-6.04508,1.16599-6.90486.92144-.91934,2.80146-.91934,5.91895-.90953l.82544.0014c.82614,0,1.44978-.86258,1.44978-2.00615,0-1.44348-.54656-2.06011-1.82607-2.06011-.44986,0-1.81976.05255-3.30388.11001-2.03768.07708-5.11733.1927-6.54679.1927-3.23731,0-6.51246-.13173-8.68398-.21932l-.2908-.01191c-1.01464-.04134-1.75389-.07147-2.16171-.07147-.62714,0-1.37481.33144-1.37481,1.90875,0,.64536,0,2.15751,1.37481,2.15751l.53254-.0007c3.53441.0035,5.6786-.0042,6.86912,1.10223,1.16319,1.08261,1.61655,3.44052,1.61655,8.40859v14.99813c0,14.92666-5.08089,22.18257-15.53418,22.18257-14.0921,0-16.19565-11.42868-16.19565-18.24174v-13.71161c0-4.26246.04765-6.30925.10301-8.67977l.04485-1.99003c.06236-3.76355.59981-4.06766,7.18584-4.06766,1.60324,0,1.60324-1.67751,1.60324-2.30886,0-1.21364-.72804-1.7574-1.44978-1.7574-.11282,0-.43024.01121-.90462.02873l-.6853.02453c-2.40276.08759-6.87543.24945-10.46029.24945-3.47555,0-7.9223-.16046-10.35308-.24875l-.62504-.02242c-.52063-.01892-.86959-.03153-.99081-.03153-.72104,0-1.44908.54376-1.44908,1.7574,0,.63135,0,2.30886,1.60324,2.30886Z"/><path class="cls-2" d="m528.24868,298.69575c0,.41272,0,1.50864,1.3734,1.67471,3.25343.32723,3.77826,1.38251,3.77826,3.77896v10.37971c0,6.48443-.23684,10.16179-.39731,10.60674-.32303.76378-.3908,1.34748-3.07634,1.34748-2.42938,0-2.96944,0-2.96944,1.90875,0,1.32576.74836,1.60464,1.37621,1.60464.33144,0,.73085-.01191,1.33557-.03153,1.44207-.04485,3.85604-.11982,8.89279-.11982,4.19799,0,5.64427.09249,6.2658.13244l.1016.00631c.13103.00771.22283.01261.2964.01261,1.01464,0,1.52966-.5907,1.52966-1.75599,0-1.7574-.79913-1.7574-2.64972-1.7574-2.50926,0-3.03168,0-3.03168-4.45235v-18.79111c0-.2915.12543-.56618.34405-.75327,1.22485-1.04897,4.12301-2.56602,6.1607-2.56602,7.19145,0,7.70998,4.14404,7.70998,10.97041v13.56446c0,1.79734-.40151,2.02787-3.94784,2.02787-1.26129,0-1.42455.92144-1.42455,1.83377,0,1.59833,1.0784,1.67962,1.29422,1.67962.15556,0,.34826-.00911.64256-.02242.85207-.04204,2.62558-.12893,7.31197-.12893,2.25701,0,6.65891.15135,7.65252.15135,1.21574,0,1.83237-.5907,1.83237-1.75599,0-.48069,0-1.7574-1.52966-1.7574-4.15104,0-4.15104-1.03776-4.15104-1.9543v-18.18008c0-7.8256-3.82521-12.1357-10.77071-12.1357-3.50148,0-6.79414,1.78683-9.55427,3.53371-.30972.1948-.90176.37298-1.22409.1894-.32934-.18989-.30067-.69952-.28666-1.0772.02102-.57809.04485-1.03215.06517-1.41895.01752-.32723.02943-.55357.02943-.6839,0-.39661,0-1.60254-.99852-1.60254-.46738,0-.84506.22283-1.38321.54025-1.08331.63835-3.33751,1.96691-9.36717,3.18616-.77009.14785-1.23046.28599-1.23046,1.81556Z"/><path class="cls-2" d="m572.39393,329.99674c.33004,0,.72874-.01191,1.33486-.03153,1.43997-.04485,3.80161-.11982,8.83626-.11982,3.86655,0,5.27289.09249,5.87971.13244l.1009.00561c.13594.00771.23124.01331.30691.01331,1.01464,0,1.52966-.5907,1.52966-1.75599,0-1.7574-1.14077-1.7574-2.58424-1.7574-2.50786,0-2.71247,0-2.71247-4.45235v-16.36383c0-5.52094.11492-9.08759.34055-10.59062.02593-.15346.38885-1.92277-1.19332-1.92277-.47088,0-.85207.22633-1.37971.53885-1.08121.63905-3.3312,1.96831-9.36998,3.18756-.75817.14715-1.22976.84296-1.22976,1.81556,0,.41272,0,1.50864,1.3727,1.67471,3.25272.32653,3.77756.84011,3.77756,3.23796v10.92071c0,6.48583-.23614,10.16249-.3959,10.60604-.32373.76378-.81619,1.34818-2.50071,1.34818-2.43359,0-3.49555,0-3.49555,1.90875,0,1.32576.75187,1.60464,1.38251,1.60464Z"/><path class="cls-2" d="m581.20706,284.1664c2.81338,0,4.70391-2.47423,4.70391-4.78519,0-2.31376-1.89053-4.7908-4.70391-4.7908-2.81758,0-4.71092,2.47703-4.71092,4.7908,0,2.31096,1.89334,4.78519,4.71092,4.78519Z"/><path class="cls-2" d="m592.00983,299.2924c.14575,0,1.71976-.11365,2.11925.70771s2.32609,6.03705,4.05896,10.73886c2.06291,5.59242,6.29033,16.00226,6.51526,16.50257,1.13726,2.51627,1.65579,3.66545,2.83229,3.66545,1.08681,0,1.98579-.99318,4.30796-6.55686.45056-1.05248,6.56597-14.87976,8.3757-19.14751,2.72244-6.42013,2.03143-5.77534,6.17944-5.98163h.13874c.95928-.10581,1.54596-.59339,1.54596-1.80613,0-.92775-.34489-1.91436-1.29016-1.91436-1.08821,0-2.37319.03784-3.45579.07428l-.07428.0028c-1.13796.03924-2.2465.07428-3.29967.07428-1.03636,0-2.1477-.03644-3.22189-.07217l-.15416-.00491c-1.05248-.03644-2.55432-.07428-3.55424-.07428-1.14707,0-1.34517,1.11204-1.34517,1.91436,0,1.26619.55667,1.6804,1.28121,1.6804,3.86025,0,4.48148.2479,4.48148,1.19122,0,1.70624-.99151,4.37169-6.63298,16.95165-.16817.37488-.48549.96536-.8898.98007-.40642-.00561-.7772-.62341-.93346-.99899-2.91848-7.01697-6.0682-15.67959-6.0682-17.26461,0-.17728-.17735-.75878.62287-.80262.77329-.04236,1.81913-.00881,2.83937-.01162l.40394.0007c.89762,0,1.24538-.91664,1.24538-1.71265,0-1.23466-.51346-1.9279-1.3361-1.9279-.72244,0-8.25864.15135-9.01051.15135-1.16669,0-7.21217-.14855-7.22058-.14855-1.50684,0-1.50684,1.50282-1.50684,2.15661,0,1.51077,1.21061,1.6325,3.04601,1.6325Z"/><path class="cls-2" d="m643.80584,330.90557c10.30123,0,13.80201-9.55006,13.80201-10.39162,0-.73715-1.11414-1.67822-1.98723-1.67822-.69021,0-1.08611.60612-1.47431,1.19963-.08549.12963-.17448.26627-.28799.41833-2.02927,2.91358-4.57007,4.21201-8.23762,4.21201-7.60137,0-11.64941-6.81026-11.64941-11.72719,0-.96629.03363-1.83167.10371-2.6445.04485-.51362.22834-.90042.74827-.90042h20.27252c.45897,0,1.67822,0,1.67822-1.60464,0-1.42035-.40221-13.87768-14.33385-13.87768-7.8256,0-15.92027,7.08845-15.92027,18.94947,0,11.46722,6.30084,18.04484,17.28597,18.04484Zm-8.67347-26.54523c1.15408-4.60371,3.61219-6.93709,7.30777-6.93709,1.77421,0,5.90073.62574,5.90073,6.42347,0,1.47991-.55707,1.72937-1.80575,1.72937h-10.43436c-.30972,0-.73073-.04234-.92203-.2883-.18639-.23824-.11854-.63875-.04636-.92745Z"/><path class="cls-2" d="m660.35053,329.99745c.46037,0,1.08923-.01612,1.67363-.03644l.13033-.00491c1.25849-.04344,3.16093-.11001,7.16412-.11001,1.89404,0,3.45733.04274,4.83634.08058,1.33416.03854,2.8251.07077,4.08779.07077.92284,0,1.62375-.14154,1.62375-1.82957,0-1.83303-.82393-1.68382-3.87776-1.68382-3.01378,0-3.01378-.85698-3.01378-3.69768v-17.19768c0-.66918.05744-1.49327.32864-1.91536.86601-1.34784,3.08773-2.76753,4.65556-2.76753.74556,0,1.22836.44636,1.89614,1.06439.87029.80863,1.9536,1.81556,3.93522,1.81556,2.80497,0,4.48108-2.31867,4.48108-4.55956,0-2.99836-2.25771-5.01292-5.61764-5.01292-2.43989,0-5.14045,1.25498-8.026,3.72851-.31532.27118-.96364.58793-1.33221.39944-.36998-.18919-.33479-.81777-.29975-1.23049.03223-.3889.06587-.73015.0953-1.03215l.01051-.10651c.05746-.5914.0932-.97259.0932-1.28932,0-.5907-.2915-1.52826-1.0721-1.52826-.46948,0-.85067.22563-1.38111.53745-1.0791.63905-3.32474,1.96565-9.36858,3.18896-1.14116.23098-1.22976.84156-1.22976,1.81556,0,.41272,0,1.50864,1.3727,1.67331,3.25202.32653,3.77686,1.38181,3.77686,3.78036v19.24237c0,2.83159-.25997,3.09156-3.09646,3.09156-1.87563,0-3.11749,0-3.11749,1.75599,0,1.29562.56726,1.7574,1.27148,1.7574Z"/><path class="cls-2" d="m691.62033,328.79852c.10501.57498.23609,1.37224,1.01914,1.58478.6912.18761,1.24971.02962,2.96229.02962,1.4219,0,5.1787.49335,6.5664.49335,11.39493,0,12.50063-8.47656,12.50063-11.07412,0-7.22649-3.8168-8.72882-9.0995-10.80785h-.0007c-1.42035-.55777-3.0306-1.18982-4.73544-2.00335-1.1695-.5872-3.1308-1.93748-3.1308-4.38368,0-3.07474,1.97672-4.91062,5.28831-4.91062,3.13781,0,5.53566,1.96971,7.12418,5.85098l.13494.32611c.55006,1.43577,1.34217,1.32057,2.13398,1.32057,1.3472,0,1.60604-.56618,1.60604-1.37691,0-.45967-.11211-1.03636-.25786-1.78613-.20601-1.04617-.4877-2.47913-.57739-4.27297,0-1.63919-.19378-2.58713-1.71605-2.86733-.42605-.07842-4.86297-.70772-8.37426-.70772-7.11717,0-12.28356,4.65766-12.28356,11.07482,0,6.30785,5.50693,8.47376,9.93686,10.21574,3.77546,1.48482,7.03589,2.76713,7.03589,5.91755,0,.99712-.295,5.9729-6.12846,5.9729-4.38508,0-6.18617-3.00022-7.37598-5.22639-.71193-1.33206-1.09918-2.42613-2.16427-2.42613-1.41755,0-2.20017.20975-2.20017,1.02398,0,.43795.33556,1.89941,1.10285,5.23832.31813,1.38181.52793,2.21947.63294,2.79446Z"/><path class="cls-2" d="m719.01096,329.99674c.33004,0,.72874-.01191,1.33486-.03153,1.43997-.04485,3.85114-.11982,8.88578-.11982,3.86655,0,5.27289.09249,5.87971.13244l.1009.00561c.13594.00771.23124.01331.30691.01331,1.01464,0,1.52966-.5907,1.52966-1.75599,0-1.7574-1.14077-1.7574-2.58424-1.7574-2.50786,0-2.71247,0-2.71247-4.45235v-16.36383c0-5.52094.11492-9.08759.34055-10.59062.02593-.15346.03434-.24665.03434-.32023,0-1.10713-.61663-1.60254-1.22765-1.60254-.47088,0-.85207.22633-1.37971.53885-1.08121.63905-3.3312,1.96831-9.36998,3.18756-.75817.14715-1.22976.84296-1.22976,1.81556,0,.41272,0,1.50864,1.3727,1.67471,3.25272.32653,3.77756.84011,3.77756,3.23796v10.92071c0,6.48583-.23614,10.16249-.3959,10.60604-.32373.76378-.70562,1.34818-2.39014,1.34818-2.43359,0-3.65564,0-3.65564,1.90875,0,1.32576.75187,1.60464,1.38251,1.60464Z"/><path class="cls-2" d="m727.87362,284.1664c2.81338,0,4.70391-2.47423,4.70391-4.78519,0-2.31376-1.89053-4.7908-4.70391-4.7908-2.81828,0-4.71162,2.47703-4.71162,4.7908,0,2.31096,1.89334,4.78519,4.71162,4.78519Z"/><path class="cls-2" d="m737.52248,300.15955c.25926.15976.52273.14855.74766.16046l3.75654.0007c.00911.04274.01822.11071.01822.21372v20.20936c0,6.5531,3.36904,10.16249,9.4856,10.16249,6.99735,0,10.84358-3.59608,10.84358-4.78799,0-.74626-.75047-1.98092-1.60464-1.98092-.27538,0-.4898.11842-.96138.37839-.86048.47649-2.46232,1.36289-4.18958,1.36289-4.95687,0-5.89302-1.61095-5.89302-10.14006v-14.65668c0-.26487-.02028-.6066.16891-.79439.18849-.18779.56264-.19852.82821-.19852.0021,0,.0042,0,.00631.0007,3.63461.02453,4.58281.12473,5.29474.16747.28799.01682.47579.02803.60472.02803,1.65202,0,2.81718.06053,2.81478-2.14579-.00256-2.3495-.86465-2.60386-1.43924-2.60386-1.51355,0-2.83583.04625-3.73555.0946l-.11492.00631c-.94877.05115-1.30696.10931-3.35095.13033h-.01051c-.27328,0-.66889.01434-.85808-.18046-.18989-.1955-.14744-.57421-.13693-.84679.1016-2.69636.15135-4.32622.15135-4.98279,0-1.15338-.84506-1.7574-1.67892-1.7574-1.01534,0-1.71605.82755-2.98785,2.32918-1.41755,1.67331-3.55894,4.20079-7.49556,7.16132-.47509.38329-.73715.70329-.73715,1.66,0,.47509.15976.81493.47368,1.00973Z"/><path class="cls-2" d="m763.56536,299.31878c2.36562,0,3.94972.15799,4.38853,1.22757.59902,1.46007,1.0735,3.17915,1.73147,5.34366,1.21855,4.00109,2.88765,9.48209,5.99883,17.48007l.22563.57809c.82895,2.10916,2.37192,6.03527,2.37192,7.6287,0,3.40969-3.29126,9.57038-4.19729,10.05738-.19059-.02803-.52344-.21652-.80582-.37699-.6867-.38469-1.62776-.91093-2.94231-.91093-2.74961,0-5.16148,2.27172-5.16148,4.86157,0,2.88975,2.2493,5.24066,5.01292,5.24066,3.00117,0,5.58681-1.15478,11.55201-16.09405.89972-2.29274,4.42923-9.84787,7.84312-17.15423l.13103-.28029c2.59615-5.55248,5.65921-12.05265,6.93031-14.97464.94807-2.21426,1.4827-2.49385,4.12091-2.49385,1.32643,0,1.93235-.62471,1.93375-1.86637.0014-.33775.08869-1.12835-.43475-1.65598-.27818-.28029-.73405-.42865-1.16078-.42865-1.20383,0-2.37052.04134-3.40058.07708-2.16031.07778-4.67658.07428-7.00226,0-1.14988-.03574-2.61476-.07708-3.85503-.07708-.81633,0-1.29523.77219-1.29523,1.7574,0,2.1533,1.19192,2.16384,1.5619,2.16384l.67409-.0042c1.39302.0028,3.37811-.10476,4.07882.59246.20181.1997.2957.45827.2957.81283,0,.96629-1.44133,5.24448-7.94678,18.8622-.17658.36928-.51362.57949-.93686.56338-.40992-.01612-.74206-.25436-.88781-.63625-3.54002-9.25086-5.89723-16.09265-5.89723-19.41474,0-.50802.1863-.89131,2.94301-.89131.99572,0,1.44908-1.06159,1.44908-2.04819,0-1.58572-1.1779-1.7574-1.68452-1.7574-1.09102,0-2.2479.03363-3.53862.07358-1.2704.03924-2.62278.07778-3.95905.07778-1.69713,0-3.94854-.05956-5.64847-.10441l-.52133-.01331c-.72174-.01892-1.59897-.03363-1.87155-.03363-.79742,0-1.28658.57739-1.28658,1.67962,0,1.05598.18645,2.13868,1.19127,2.13868Z"/><path class="cls-2" d="m854.70623,300.37231h3.62098c.68133,0,1.21046.16101,1.21046,1.1416v23.10281c0,.93312-.46989,1.81297-2.02467,1.81297-2.44529,0-2.68129.02365-3.05069.41862-.36223.38731-.37832.98743-.37832,1.39244,0,1.29422.4663,1.75599,1.45609,1.75599.12683,0,.27328-.00561.46387-.01331l.26487-.00981c.89762-.04204,2.76503-.12823,7.30076-.12823,1.79103,0,3.24852.03714,4.83354.08198,1.22065.03434,2.68329.06937,4.00063.06937.92284,0,1.7074-.14154,1.7074-1.82957,0-1.51635-.85402-1.68382-3.26849-1.68382-3.91002,0-3.62586-.85698-3.62586-3.69628v-21.37c0-.27398.10861-.52974.30621-.71893.1969-.18779.45967-.2908.72594-.27258,1.23817.05466,2.76152.13874,4.01861.20811l.1009.00561c1.25708.07147,2.55593.21573,2.75984.21573,1.76651,0,2.24328-.86854,2.24328-2.53764,0-1.9536-.65623-2.36422-1.60417-2.36422h-7.5584c-.54726,0-.99221-.44495-.99221-.99221v-8.00498c0-4.65906.74696-10.21294,4.308-10.21294,1.15467,0,1.54718.49611,2.8351,1.5619,2.14699,1.78262,4.1118,1.92136,4.66257,1.92136,2.59265,0,4.33463-1.80154,4.33463-4.48318,0-2.78324-2.78605-4.02982-5.54617-4.02982-1.43086,0-3.56805.31953-4.81462.62994-8.89769,2.33969-12.86095,8.40159-13.67938,20.92269-.18849,2.81408-.4376,2.57094-3.3284,3.30782-1.981.50497-2.95912.61453-2.95912,2.04259,0,1.55629.647,1.70435,1.67681,1.75599Z"/><path class="cls-2" d="m539.45243,358.32848c-5.97921-7.34351-15.79484-11.06711-29.17502-11.06711-4.80271,0-11.60036.26837-15.30014.41482-1.5675.05956-2.69986.1023-3.02359.1023-5.99883,0-12.54492-.27818-16.06182-.42744l-.17097-.00701c-1.1709-.04975-1.94449-.08268-2.20796-.08268-1.16879,0-1.92417.95648-1.92417,2.43709,0,1.10573,0,2.95632,2.18343,2.95632,8.82202,0,10.72586.67969,10.84498,7.89777l.07147,3.05863c.10441,4.27647.18639,7.65462.18639,15.11165v31.6044c0,5.37309-.11842,13.37051-.38329,19.97336-.10651,2.75942-.19059,5.31759-10.33556,5.31759-3.76355,0-4.37107.87169-4.37107,2.95632,0,1.14497.28334,2.4427,1.78893,2.4427,2.84898,0,4.78519-.25856,20.37963-.25856,11.58821,0,20.22856.25856,23.35879.25856,1.79664,0,2.04357-1.5433,2.04357-2.68827,0-2.34006-1.10551-2.71075-5.22228-2.71075-12.56092,0-12.48272-2.51377-12.70975-7.03619l-.00841-.74946c-.11842-3.63461-.24035-7.39256-.24945-25.60067-.0007-.2915.12683-.56758.34896-.75747.22143-.18849.51573-.26908.80092-.22493,3.98918.64116,8.34133.93966,13.6976.93966,9.103,0,16.79196-2.49035,22.23443-7.19986,5.78441-5.00381,8.84164-12.41319,8.84164-21.4279,0-1.38742-.27188-8.64193-5.63726-15.23287Zm-9.81563,16.26783c0,13.48528-9.37348,22.19799-23.88041,22.19799-6.59094,0-6.59094-1.91786-6.59094-4.13843l-.0007-30.06633c-.05466-4.70461.14014-7.48155,1.32646-8.68117,1.24027-1.25358,3.90789-1.25358,8.74984-1.25358,12.00887,0,20.39575,9.02242,20.39575,21.94153Z"/><path class="cls-2" d="m573.53374,436.136c-4.78659,0-5.17269-.60822-5.17269-8.13532v-27.86328c0-9.42674.20251-15.52577.60332-18.12683.03293-.21302.04905-.34335.04905-.44636,0-1.50934-.77289-2.18483-1.53877-2.18483-.64256,0-1.19822.32723-2.06992.84016-1.86601,1.10433-5.74798,3.40198-16.13819,5.49642-1.03075.20881-1.64668,1.16319-1.64668,2.55271,0,.67339,0,2.07412,1.84849,2.30886,5.92596.59,6.92588,2.62979,6.92588,6.97913v17.67276c0,9.34545-.31252,17.36865-.71543,18.27468-.72874,1.70694-1.67541,2.63189-4.58899,2.63189-4.65906,0-5.65898.23264-5.65898,2.69776,0,.59701,0,2.18203,1.79033,2.18203.56197,0,1.24868-.02242,2.20095-.05255,2.43219-.07708,6.50335-.20531,15.21255-.20531,6.53558,0,8.98598.15626,10.02795.22283.32303.02312.52974.03504.6825.03504,2.04959,0,2.04959-1.77351,2.04959-2.4413,0-2.3446-1.11484-2.43849-3.86095-2.43849Z"/><path class="cls-2" d="m562.31247,347.77849c-3.60448,0-7.46403,3.05302-7.46403,7.59787s3.85954,7.59857,7.46403,7.59857c3.60729,0,7.47034-3.05372,7.47034-7.59857s-3.86305-7.59787-7.47034-7.59787Z"/><path class="cls-2" d="m617.28844,432.13842c-.32723,0-.63345.16887-1.37481.57739-1.51215.83525-4.32622,2.38874-7.39816,2.38874-9.72664,0-10.59413-4.61702-10.59413-17.81291v-25.32809c0-.26487.10371-.51433.2929-.70212.19059-.18919.46037-.2901.71053-.2908,7.18584.05115,11.12317.40361,12.80279.55357.65167.06026.98385.08473,1.21364.08899,3.22682.05984,4.24494-1.45399,4.24494-3.98848,0-.85908,0-3.47345-2.04959-3.47345h-16.21457c-.26557,0-.51573-.10441-.70352-.2936-.18919-.1913-.2915-.44425-.2894-.71263.03434-3.56805.16817-5.73746.26837-7.36873.06517-1.04757.11702-1.87582.11702-2.72859,0-1.67261-1.20033-2.43499-2.31517-2.43499-1.4715,0-2.67323,1.41615-4.67027,3.76915-2.42938,2.86593-6.10114,7.19636-12.82591,12.25903-.8787.70072-1.06369,1.2404-1.06369,2.40135,0,1.26199.77429,1.92277,1.53877,1.92277h6.14125c.64069,0,.83368.17479.83368.7425v34.09921c0,13.84825,8.48077,16.75553,15.59514,16.75553,11.94371,0,17.91451-6.14668,17.91451-7.59717,0-1.03776-1.0749-2.82669-2.17432-2.82669Z"/><path class="cls-2" d="m660.83082,432.13842c-.32723,0-.63345.16887-1.37481.57739-1.51215.83525-4.32622,2.38874-7.39816,2.38874-9.72664,0-10.59413-4.61702-10.59413-17.81291v-25.32809c0-.26487.10371-.51433.2929-.70212.19059-.18919.46037-.2901.71053-.2908,7.18584.05115,11.12317.40361,12.80279.55357.65167.06026.98385.08473,1.21364.08899,3.22682.05984,4.24494-1.45399,4.24494-3.98848,0-.85908,0-3.47345-2.04959-3.47345h-16.21457c-.26557,0-.51573-.10441-.70352-.2936-.18919-.1913-.2915-.44425-.2894-.71263.03434-3.56805.16817-5.73746.26837-7.36873.06517-1.04757.11702-1.87582.11702-2.72859,0-1.67261-1.20033-2.43499-2.31517-2.43499-1.4715,0-2.67323,1.41615-4.67027,3.76915-2.42938,2.86593-6.10114,7.19636-12.82591,12.25903-.8787.70072-1.06369,1.2404-1.06369,2.40135,0,1.26199.77429,1.92277,1.53877,1.92277h6.14125c.64069,0,.83368.17479.83368.7425v34.09921c0,13.84825,8.48077,16.75553,15.59514,16.75553,11.94371,0,17.91451-6.14668,17.91451-7.59717,0-1.03776-1.0749-2.82669-2.17432-2.82669Z"/><path class="cls-2" d="m692.20451,406.36958s-5.20772-2.04749-8.1157-3.43351c-2.10565-1.05107-5.63796-3.48256-5.63796-7.95663,0-5.49852,3.66264-8.91381,9.55847-8.91381,5.58401,0,9.83455,3.46855,12.63461,10.31034l.06587.16046c.81353,2.12387,2.02157,2.30045,3.29267,2.30045,1.30473,0,2.18203-.72104,2.18203-1.79453,0-.73715-.18989-1.70414-.42954-2.92829-.35316-1.80294-.83666-4.27297-.99011-7.39115,0-1.40143-.53184-3.89458-2.50997-4.34864-.61383-.15976-8.19207-1.18841-14.12013-1.18841-11.79936,0-20.36421,7.69877-20.36421,18.30551,0,10.3692,8.79819,13.82793,16.57054,16.88446,6.33798,2.49525,12.3235,4.85246,12.3235,10.59203,0,8.45905-6.90065,10.71605-10.97812,10.71605-7.80177,0-10.77631-5.56579-12.74533-9.24945-1.173-2.19324-2.02087-3.77826-3.50708-3.77826-.76238,0-3.08385,0-3.08385,1.53527,0,.77079,2.81844,13.16467,2.96613,13.93234s.72244,1.40704,1.40494,1.40704c5.30423,0,10.48823,1.03215,14.83206,1.03215,20.22057,0,21.79227-14.01152,21.79227-18.30551,0-11.92759-6.35129-14.42775-15.14108-17.88788Z"/><path class="cls-2" d="m763.37968,387.41731c-4.94565-4.51752-11.6438-7.00576-18.86258-7.00576-5.44456,0-9.40992,1.18001-13.25895,3.94433-.31742.22703-.71193.25786-1.05528.08198-.33354-.17097-.53254-.49821-.53254-.8759v-20.96263c0-11.71107.25814-13.548.57949-16.49136.01288-.11793.05089-.56668.05089-.74256,0-1.60955-.81607-1.8592-1.5252-1.8592-.55777,0-1.40564.35316-2.95072.99642-3.00467,1.24938-8.02379,3.39423-15.12286,4.56517-1.42256.23464-1.64668,1.16109-1.64668,2.55201,0,1.2732.66007,2.11196,1.85269,2.30746l.27889.02593q6.51526.5907,6.51526,10.97041v67.33042c0,1.70204-.25926,5.71434-.25926,6.57973,0,.60332,0,2.43849,1.78893,2.43849,1.69929,0,2.04431-.98938,2.57265-1.83584.62154-.99642,1.20803-1.93678,2.72088-1.93678,1.33977,0,2.82076.74132,5.04834,1.64805,3.73762,1.52055,8.39038,3.41389,14.55948,3.41389,6.83969,0,13.67728-2.62769,18.75957-7.20827,6.28122-5.66599,9.60121-14.00802,9.60121-24.12356,0-10.12885-3.15182-18.36297-9.11422-23.81244Zm-4.65906,25.61748c0,16.58665-5.11032,24.64909-15.62387,24.64909-9.03503,0-13.42642-5.36188-13.42642-16.39185v-23.4775c0-7.51939,4.72843-12.00817,12.64863-12.00817,13.55606,0,16.40166,14.80683,16.40166,27.22843Z"/><path class="cls-2" d="m838.87401,433.16987c-.40852,0-4.15595.51503-5.13905.51503-2.29204,0-2.46302-1.58712-2.46302-4.0088v-24.25179c0-7.40727.75958-15.29944,1.04617-18.27117.08829-.93195.11422-1.20663.11422-1.33136,0-1.63477-.93546-2.57233-2.56602-2.57233-1.63337,0-3.31439.1009-4.94495.1983-1.60324.0932-3.26113.18919-4.85736.18919-5.25467,0-8.91424-.3875-10.9286-.3875-1.6649,0-1.96388,1.12649-1.96388,3.34382,0,2.0538,2.37473,2.0538,4.8889,2.0538,6.33237,0,7.2419.43094,7.2419,6.97423v33.41155c0,3.29267-7.37854,6.07101-12.01308,6.07101-8.43873,0-11.88064-4.18818-11.88064-14.45648v-34.8256c0-1.77842-.25856-2.57233-1.78893-2.57233-.70562,0-1.82957.05676-3.25272.12823l-.07778.0035c-2.14699.10861-5.0872.25576-7.89217.25576-2.72298,0-4.51191-.15626-5.88602-.27678-.69791-.06166-1.24938-.11071-1.72516-.11071-2.50128,0-2.18203,2.34319-2.18203,3.34382,0,1.85088,2.52328,2.0538,3.60098,2.0538,5.98972,0,7.2356,0,7.2356,11.36141v20.12177c0,15.72267,5.12644,22.43133,17.14022,22.43133,4.55676,0,11.84561-1.94519,18.28939-6.2658-.11001,1.06719-.21722,2.28924-.21722,3.31018,0,1.24237.93055,2.57303,2.31517,2.57303,1.87299,0,7.15641-2.08463,14.94768-3.36694,3.7208-.58019,4.89801-.83946,4.89801-2.43149,0-1.99073-.27796-3.21068-1.93958-3.21068Z"/><path class="cls-2" d="m884.29431,381.18514c-4.65486,0-9.87589,2.76853-15.51946,8.22781-.30551.2957-.82989.48793-1.21599.31486-.38399-.17378-.48745-.6505-.46783-1.07303.10301-2.20025.26697-3.84903.3889-5.07599.08689-.85557.16257-1.59553.16257-2.14489,0-.66988.23235-2.0538-1.27951-2.0538-.64746,0-1.20874.33214-2.06992.84016-1.86741,1.10503-5.75358,3.40338-16.13819,5.49642-1.03075.20881-1.64668,1.16319-1.64668,2.55271,0,.67269,0,2.07272,1.84779,2.30746,5.92666.59,6.92658,2.62979,6.92658,6.97983v32.76269c0,5.11102-.70632,5.81735-5.81594,5.81735-3.23622,0-4.76207,0-4.76207,2.43709,0,2.20445,1.34467,2.4427,1.92277,2.4427.79041,0,1.52756-.02523,2.64661-.06587,2.13718-.07638,5.36608-.192,12.31719-.192,3.09436,0,5.66039.06867,8.14162.13454l.1023.0028c2.07412.05886,4.21901.12052,6.46271.12052,1.96486,0,2.69215-.1934,2.69215-2.56953,0-2.56672-1.08277-2.31026-6.05068-2.31026-5.68841,0-5.68841-2.00475-5.68841-6.8481v-29.28083c0-1.24727.11778-2.72644.70842-3.6247,2.28545-3.47575,6.59864-4.90092,8.33852-4.90092,1.48412,0,2.41817.86398,3.60799,1.96411,1.41334,1.30894,3.17214,2.9381,6.31906,2.9381,4.43553,0,7.08634-3.66825,7.08634-7.21387,0-4.85106-3.53932-7.98536-9.01682-7.98536Z"/><path class="cls-2" d="m944.8676,391.00638c1.24587,1.87862,2.79726,4.21761,5.61834,4.21761,3.06633,0,5.65758-2.41677,5.65758-5.27639,0-2.40206-1.01674-7.99027-10.43016-7.99027-2.31797,0-5.50833.37278-9.63625,3.27795-.34055.24035-.7799.24805-1.11904.02242-4.18608-2.79025-9.80933-4.45585-15.04227-4.45585-5.88041,0-11.81127,2.26822-16.27133,6.22236-4.71862,4.18187-7.31828,9.75467-7.31828,15.69184,0,8.12901,2.66412,13.891,8.14513,17.6146.28029.18989.57122.45399.57753.78753.00631.32023-.26431.65034-.52357.84163-4.9849,3.67806-8.07435,7.33089-8.07435,14.16568,0,3.24291,2.20095,6.14228,5.4768,7.59346.31602.13944.71536.37858.7513.7146.03219.30096-.19633.67071-.43037.90615-4.81672,4.83214-9.27468,9.5614-9.27468,16.64424,0,8.67066,5.69122,12.88617,17.39878,12.88617,5.4761,0,15.99175-.69651,24.89084-5.36188,8.72322-4.57147,13.14684-11.40064,13.14684-20.55411,0-1.56944-.26212-5.77646-2.31727-8.64747-3.00419-4.19681-8.2215-6.49214-15.98404-6.49214h-19.09312c-3.8119,0-5.29671-.9796-5.29671-3.49447,0-3.74112,2.39372-5.94599,3.95562-6.9881.49869-.33273,1.11639-.31374,1.417-.21423,2.85402.95788,6.96559,1.12712,8.4392,1.12712,14.85448,0,23.72275-8.57887,23.72275-22.94846,0-3.05302-2.07902-9.2011-4.51612-12.33471.49591-.7249,1.23648-1.31736,2.77687-1.31736,1.77737,0,2.3769,1.88984,3.353,3.36205Zm-43.01697,65.29897c0-6.38423,6.65421-11.4169,6.65421-11.4169h19.05739c9.12385,0,12.88175,1.92569,12.88175,8.71213,0,8.28357-6.40875,13.81252-20.77974,13.81252-16.52919,0-17.81361-8.50179-17.81361-11.10775Zm18.06516-36.93748c-9.43725,0-10.84569-9.14014-10.84569-14.58821,0-12.67596,3.82311-19.10293,11.36351-19.10293,9.09389,0,10.0756,10.38181,10.0756,14.84537,0,7.03869-1.37621,18.84576-10.59343,18.84576Z"/><path class="cls-2" d="m1020.76835,436.136c-7.62099,0-7.62099-2.1526-7.62099-3.88197v-30.95764c0-12.96886-6.31836-20.11126-17.78978-20.11126-7.39816,0-13.0081,2.92689-17.96917,6.08852-.30972.199-.6867.20951-1.00833.03293-.32233-.17658-.51433-.50171-.51433-.86959v-23.83766c0-9.41062.51893-15.40011.63478-17.19763s-.40888-2.30821-1.52259-2.30821c-.56338,0-1.41334.35456-2.95492.99712-3.00607,1.24868-8.01487,3.467-15.12986,4.56447-1.63626.25239-1.64458,1.16599-1.64458,2.55131,0,1.2725.66148,2.11196,1.8576,2.30676,6.66451.60822,6.79134.61943,6.79134,11.41046v45.14434c0,8.07716-.33424,22.37317-.71473,23.43405-.54866,1.2746-1.35098,2.63399-3.94713,2.63399-4.65696,0-5.65688.23264-5.65688,2.69776,0,.59701,0,2.18203,1.78893,2.18203.32513,0,.77639-.01542,1.48272-.04204,2.01246-.07007,6.19924-.21582,15.28753-.21582,7.08494,0,9.61172.15836,10.69503.22633.31112.01962.51012.03153.65867.03153,2.04959,0,2.04959-1.77351,2.04959-2.4413,0-2.43849-.9182-2.43849-4.5049-2.43849-4.78449,0-5.17058-.60822-5.17058-8.13532l-.00491-34.26432c.93335-1.58362,6.28052-3.93172,11.62628-3.93172,12.76495,0,13.68569,7.26503,13.68569,19.23116v23.0914c0,3.50568-.43493,4.0088-7.00811,4.0088-1.89404,0-2.15025,1.38391-2.15025,2.56812,0,2.14489,1.2746,2.31166,1.6649,2.31166.25716,0,.57459-.01472,1.10433-.04134,1.49253-.07007,4.5981-.21652,12.43911-.21652,3.90789,0,6.29103.08268,8.39458.15556l.18569.00631c1.52266.05115,3.08623.096,4.69508.096,2.32487,0,2.31839-1.50911,2.31839-2.30162,0-1.24416-.15772-2.57817-2.04819-2.57817Z"/><path class="cls-2" d="m834.5767,294.18325c-10.47513,0-18.37447,7.90093-18.37447,18.37819,0,10.64866,7.7274,18.37766,18.37447,18.37766,11.03724,0,18.45272-7.38513,18.45272-18.37766,0-10.6492-7.7604-18.37819-18.45272-18.37819Zm9.66125,18.37819c0,12.24237-5.2538,14.81232-9.66125,14.81232-7.92009,0-9.583-8.0553-9.583-14.81232,0-13.74186,7.3351-14.81019,9.583-14.81019,8.96447,0,9.66125,11.33586,9.66125,14.81019Z"/></g></svg>