<svg id="LOGO" xmlns="http://www.w3.org/2000/svg" viewBox="0 0 1250 703"><defs><style>.cls-1{fill:#f26f31;}</style></defs><path class="cls-1" d="M738.1526,461.40767a4.48794,4.48794,0,0,0,1.97306,2.35736,7.39682,7.39682,0,0,0,3.85348.85843,10.38626,10.38626,0,0,0,3.712-.62122,16.95765,16.95765,0,0,0,3.434-1.82069,9.74192,9.74192,0,0,0,4.68206-6.25186,16.78,16.78,0,0,0,.89137-5.34458,9.20909,9.20909,0,0,0-.34885-2.59708,5.36237,5.36237,0,0,0-1.082-2.03307,5.15045,5.15045,0,0,0-2.19131-1.3792,9.25666,9.25666,0,0,0-3.20769-.53415,10.002,10.002,0,0,0-3.97628.80681,15.20068,15.20068,0,0,0-3.434,2.04675,14.51926,14.51926,0,0,0-2.18014,1.992,12.20258,12.20258,0,0,0-1.83158,3.94362,17.87136,17.87136,0,0,0-.85034,5.2737,9.456,9.456,0,0,0,.5562,3.30314Zm5.17518-9.68589a11.11186,11.11186,0,0,1,2.07968-4.63042,3.75429,3.75429,0,0,1,2.80415-1.21817,3.31376,3.31376,0,0,1,2.58928,1.11742,5.35254,5.35254,0,0,1,.98931,3.60817,24.03218,24.03218,0,0,1-.85592,6.17288,15.56672,15.56672,0,0,1-1.29993,3.46668,5.13609,5.13609,0,0,1-1.55614,1.81791,3.563,3.563,0,0,1-2.01688.5615,3.38945,3.38945,0,0,1-2.69252-1.082,5.43829,5.43829,0,0,1-.9511-3.59757,24.2976,24.2976,0,0,1,.91007-6.21642Zm18.77511-4.79675c.96477,0,1.85865.00558,2.67634.01646l-2.9543,15.28108a64.42644,64.42644,0,0,1-1.8832,8.2333,3.015,3.015,0,0,1-.8696,1.35715,1.78457,1.78457,0,0,1-1.09537.37591,1.672,1.672,0,0,1-1.11212-.425,3.82526,3.82526,0,0,1-.93463-1.40347l-.65136.12251c-.15265.73314-.319,1.41464-.5015,2.03307q-.278.93225-.85313,2.4475a4.13669,4.13669,0,0,0,1.55612.34326,4.26064,4.26064,0,0,0,2.00042-.55034,13.851,13.851,0,0,0,3.91906-3.28137,17.89968,17.89968,0,0,0,3.08519-5.16988,83.90738,83.90738,0,0,0,2.79076-9.53352l2.26191-9.83017q.679-.01632,2.05232-.01646,2.18726,0,3.15328.01646a12.732,12.732,0,0,1,.63769-2.10953l-.20707-.33238a17.031,17.031,0,0,1-1.98954.20428q-2.1952.14736-2.74722.12279h-.46885q.46634-2.71051,1.20477-5.42914a7.34833,7.34833,0,0,1,.564-1.5098,2.1039,2.1039,0,0,1,.74959-.77388,1.84786,1.84786,0,0,1,.981-.28884,2.80168,2.80168,0,0,1,1.47462.53415,6.4001,6.4001,0,0,1,1.67614,1.82041l.61591-.11972a35.84966,35.84966,0,0,1,1.15538-5.21928,4.70584,4.70584,0,0,0-1.67864-.3268,5.00775,5.00775,0,0,0-1.93512.29694,21.15739,21.15739,0,0,0-2.86164,1.86953,40.79552,40.79552,0,0,0-3.9573,3.22695,8.46865,8.46865,0,0,0-1.69789,2.104,10.685,10.685,0,0,0-.73565,2.40647c-.10912.52048-.199.88021-.26456,1.082a15.40345,15.40345,0,0,1-2.20191.77387c-.89947.2562-1.56449.46327-2.00042.62681l-.18252,1.04123c.32429-.01088.73566-.01646,1.22905-.01646Z"/><path class="cls-1" d="M478.5369,492.95358h-3.705a19.53383,19.53383,0,0,1-.46355,4.80485,1.31223,1.31223,0,0,1-.79843.97007q-1.43084.50694-6.89932.50429-1.89047,0-7.27523-.29722v-5.87315q0-10.95177.47973-15.15271,1.18133-.07787,4.449-.19089c2.179-.07367,3.5077-.11442,3.98576-.11442a38.103,38.103,0,0,1,6.47428.48225,11.22607,11.22607,0,0,1,3.5225.98653.80579.80579,0,0,1,.37871.41973,9.10724,9.10724,0,0,1,.2534,2.21865q.21055,3.5239.20986,4.52941h3.44352q.04312-2.788.38038-6.50805.33489-3.72022.797-6.12656l-.3787-.59415a73.46724,73.46724,0,0,0-8.07116-.42252l-20.32845.39517-15.00033-.30782v3.532a45.41134,45.41134,0,0,1,4.99825.46606,3.21959,3.21959,0,0,1,1.195.44429,1.37088,1.37088,0,0,1,.40215.69769,21.20022,21.20022,0,0,1,.46857,4.60838q.39265,11.25444.39378,11.84454v17.51034q0,2.24419-.218,7.383-.22271,5.13849-.34606,6.11009a5.24168,5.24168,0,0,1-.59694,2.19939,1.314,1.314,0,0,1-.63629.46606,28.905,28.905,0,0,1-5.6605.3815v3.48845q7.79166-.31062,11.39188-.305l16.60279.305v-3.35756a49.41241,49.41241,0,0,1-6.63057-.69769,1.99156,1.99156,0,0,1-1.05742-.73844q-.42321-.6748-.66253-4.70689-.24111-4.03084-.23972-14.03v-4.68764c1.59994-.02735,2.71848-.03823,3.36593-.03823a62.88952,62.88952,0,0,1,9.83966.54782,2.121,2.121,0,0,1,1.51539.80123q.59066,1.09551.71555,6.36935h3.705V492.95358Zm23.51829,38.46q2.74109,0,9.709.17721,9.16345.21265,9.9245.218,5.4043,0,7.98129-.218a14.89641,14.89641,0,0,0,2.44722-.47973q.04311-.80919.38289-4.81574l1.06021-8.533c0-.13619.04214-.605.1281-1.3898H530.2q-.80333,4.15349-1.64878,7.38295a3.80471,3.80471,0,0,1-.72086,1.567,5.23138,5.23138,0,0,1-2.0699.55592,74.47877,74.47877,0,0,1-11.20546.74151q-2.11317,0-7.94836-.3081-.041-1.26714-.06391-7.20044-.02052-5.93553-.06419-11.97515-.04479-11.45034-.04493-12.20957,0-7.09258.199-11.74073a34.95872,34.95872,0,0,1,.40466-5.219,1.48539,1.48539,0,0,1,.67453-.82327q1.05448-.54755,5.831-.75741V472.677q-6.88662.30642-14.57111.30782-6.88662,0-12.2492-.30782v3.7092q5.50854.20847,6.48349.84476a1.29416,1.29416,0,0,1,.63657.75769q.3801,1.1445.52718,9.08616.07158,3.13164.07228,16.48306,0,9.09188-.173,15.57272-.17582,6.49144-.38568,7.54649a.9668.9668,0,0,1-.21126.46327,3.95346,3.95346,0,0,1-1.13361.84755,27.30869,27.30869,0,0,1-3.06593,1.646v2.17484q8.44178-.39643,12.5827-.39517ZM538.4919,519.681A25.35424,25.35424,0,0,0,549.197,529.84658a35.851,35.851,0,0,0,16.31952,3.44213,40.55824,40.55824,0,0,0,15.62574-2.83151,27.61924,27.61924,0,0,0,8.88885-6.04506,26.71581,26.71581,0,0,0,5.93288-8.99908,39.06964,39.06964,0,0,0,2.74331-14.74945,36.13316,36.13316,0,0,0-.94858-8.57935,27.50764,27.50764,0,0,0-2.80973-7.14044,26.38918,26.38918,0,0,0-13.639-11.1142,42.63569,42.63569,0,0,0-13.93482-2.15558,43.79952,43.79952,0,0,0-14.27139,2.24293,27.43112,27.43112,0,0,0-16.15319,15.54816,35.56325,35.56325,0,0,0-2.34368,13.48216q0,10.01575,3.885,16.73367Zm11.07318-31.78284a16.38406,16.38406,0,0,1,6.29539-8.57126,18.45312,18.45312,0,0,1,10.50219-2.89988,17.81554,17.81554,0,0,1,8.68149,1.82321,16.99439,16.99439,0,0,1,5.68255,5.26811,26.05617,26.05617,0,0,1,3.69831,8.3614,42.67271,42.67271,0,0,1,1.28906,10.836,40.04792,40.04792,0,0,1-2.38889,14.68693q-2.38736,6.0544-6.58983,8.59582a18.07284,18.07284,0,0,1-9.52653,2.53736,18.27082,18.27082,0,0,1-9.97194-2.66546q-4.22717-2.66532-6.92918-9.12188-2.70425-6.4546-2.70508-16.31924a38.12317,38.12317,0,0,1,1.96246-12.53107Zm55.29332-10.84154a1.58113,1.58113,0,0,1,.6282.71387q.419,1.06329.50261,6.342l.21684,8.91452v15.67625l-.34884,12.34046a38.93452,38.93452,0,0,1-.42113,4.98737,2.7287,2.7287,0,0,1-.35693,1.18272,1.28431,1.28431,0,0,1-.73732.41973,32.0415,32.0415,0,0,1-5.67836.46885v3.70641q5.61278-.31062,12.19478-.305,7.389,0,14.61046.305v-3.70641a42.5277,42.5277,0,0,1-4.90141-.25619,3.21633,3.21633,0,0,1-1.22514-.4415,1.72361,1.72361,0,0,1-.54922-.61313,10.08312,10.08312,0,0,1-.46327-3.08239q-.0879-1.18134-.26289-9.87678-.12893-7.09257-.13088-13.42495,0-4.01032.26289-15.957.12893-5.33483.26177-6.8569a24.07312,24.07312,0,0,1,4.01562-.338,21.47454,21.47454,0,0,1,6.3434.6349,9.78288,9.78288,0,0,1,4.61116,3.592,10.74475,10.74475,0,0,1,1.86144,6.462,13.76621,13.76621,0,0,1-1.77688,6.94955,10.007,10.007,0,0,1-4.35777,4.30865q-2.58367,1.20184-7.6609,1.03314l-.46327,1.39538a12.76523,12.76523,0,0,1,2.62024,2.78518q2.70425,3.67123,6.59121,10.08664l9.04291,14.89652a10.21407,10.21407,0,0,1,1.01639,2.40926q3.33592-.17959,6.71819-.17694,2.91063,0,9.41881.17694v-3.70641a8.29419,8.29419,0,0,1-2.66266-.338,4.36864,4.36864,0,0,1-1.39538-1.04654q-.71541-.75644-3.8892-4.94383-.20845-.29428-2.829-4.19144l-6.55158-9.76235c-.16912-.25061-.32987-.51769-.48532-.79565-.15515-.278-.68122-1.07667-1.58319-2.38749q-1.35337-1.97041-2.40926-3.85376,6.60195-2.45266,9.77854-6.63894a14.99761,14.99761,0,0,0,3.175-9.29881,11.55605,11.55605,0,0,0-2.32749-7.30928,10.8254,10.8254,0,0,0-5.617-3.952,38.54429,38.54429,0,0,0-9.92841-.9483q-3.42174,0-8.65972.23973-3.17058.19633-7.6051.19368-5.2,0-8.029-.101-5.7844-.20427-6.75894-.20149V476.209q5.19.33909,6.19493.84756Zm67.38958-4.07172q-6.90043,0-12.22576-.30782v3.7092a42.85558,42.85558,0,0,1,5.35239.35973,2.07955,2.07955,0,0,1,1.01668.485,1.76182,1.76182,0,0,1,.40047.84476,52.1834,52.1834,0,0,1,.50987,6.7235q.08581,2.41206.08987,10.82508V513.301q0,4.313-.34885,9.38616-.21265,3.47073-.34075,3.97627a1.30514,1.30514,0,0,1-.40048.67593,2.578,2.578,0,0,1-1.20476.466q-.67858.12642-5.07444.29694v3.70641q5.32644-.31062,12.13868-.305,7.82432,0,14.72238.305v-3.70641a39.79141,39.79141,0,0,1-5.05016-.278,3.18253,3.18253,0,0,1-1.27538-.5068,1.69237,1.69237,0,0,1-.57517-.90756,23.151,23.151,0,0,1-.425-5.66887l-.13088-7.73738V495.9623q0-.80541.17442-11.20378.04062-3.04584.12809-4.1454a9.93515,9.93515,0,0,1,.42783-2.74973,1.37464,1.37464,0,0,1,.46884-.69769,2.92471,2.92471,0,0,1,1.15008-.46355,41.24052,41.24052,0,0,1,5.10737-.31591V472.677q-6.89667.30642-14.6353.30782Zm32.68258,58.51888,12.542.305a49.37363,49.37363,0,0,0,14.56414-1.88321,32.90129,32.90129,0,0,0,11.20686-6.14832,29.92912,29.92912,0,0,0,8.127-10.60991,33.78227,33.78227,0,0,0,2.9543-14.41427,33.21,33.21,0,0,0-1.98423-11.66733,20.27834,20.27834,0,0,0-3.48287-5.9139,22.2982,22.2982,0,0,0-5.63594-4.75573A24.46705,24.46705,0,0,0,735.38891,473.5a62.71267,62.71267,0,0,0-11.96957-.91034q-3.25012,0-8.65582.14986-7.47309.24531-10.1765.24531l-15.32183-.30782v3.4011q4.58675.59276,5.30356.76048a2.2059,2.2059,0,0,1,1.05184.50959,1.52794,1.52794,0,0,1,.338.59136,45.2649,45.2649,0,0,1,.545,7.60929q.221,10.776.218,16.35748v6.93336q0,12.72587-.47946,18.38776a29.48579,29.48579,0,0,1-2.92723,1.867c-.55871.31061-.9483.53415-1.17184.67843v2.03586l12.78754-.305Zm3.65172-21.50308V500.2983q0-16.57292.43618-22.5605a50.52136,50.52136,0,0,1,7.17867-.5668q8.66238,0,12.929,1.52068a15.838,15.838,0,0,1,7.05309,4.9003,20.75349,20.75349,0,0,1,4.01172,7.87636,35.26391,35.26391,0,0,1,1.22654,9.315,37.807,37.807,0,0,1-1.22654,9.84412,26.01533,26.01533,0,0,1-3.43933,7.85431,18.85143,18.85143,0,0,1-4.62764,4.98737,18.10755,18.10755,0,0,1-5.61975,2.57838,38.27795,38.27795,0,0,1-9.96915,1.17994,46.09652,46.09652,0,0,1-7.51664-.65137q-.43326-4.00612-.43618-16.57543Zm47.92542,21.50308,9.7378.305v-3.48845q-5.02838-.17163-6.03669-.7602a1.54888,1.54888,0,0,1-.67314-1.43083q0-1.43082,2.104-7.23867l1.84776-5.04988H785.2955l3.61655,9.25779a10.85053,10.85053,0,0,1,.97034,3.453,1.24676,1.24676,0,0,1-.65136,1.19667q-.65806.3596-5.76683.57211v3.48845l14.82033-.305,11.73543.305v-3.48845c-.8177-.08707-1.43613-.15517-1.85865-.21238a12.89776,12.89776,0,0,1-2.46926-.29721,2.54356,2.54356,0,0,1-.86374-.50429,4.36759,4.36759,0,0,1-.804-1.101l-1.68981-3.88641-2.61633-5.78859-18.87028-44.11242h-6.01772l-3.71729,9.59044-11.01848,27.20991q-3.12744,7.73848-4.22158,10.35371-2.40786,5.57595-2.89429,6.44275a4.91451,4.91451,0,0,1-.94858,1.2698,2.93536,2.93536,0,0,1-1.1202.58885,32.05126,32.05126,0,0,1-4.07424.4468v3.48845l9.67221-.305Zm17.63565-44.40964,9.0482,21.86281q-3.8592.13481-8.72113.13061-5.04053,0-9.01805-.13061l8.691-21.86281Z"/><path class="cls-1" d="M442.30475,438.56363a1.376,1.376,0,0,1,.4468.458,3.61142,3.61142,0,0,1,.21544,1.1336q.08791,1.98675.086,4.4641v4.50233l-.01647,3.40138c0,1.86953.02735,3.0143.08847,3.43933a6.44637,6.44637,0,0,0,2.33977,4.137,8.075,8.075,0,0,0,2.78128,1.428,16.94768,16.94768,0,0,0,5.03229.725,14.89122,14.89122,0,0,0,4.058-.49592,8.891,8.891,0,0,0,3.03076-1.47185,7.43208,7.43208,0,0,0,1.97586-2.18014,7.83093,7.83093,0,0,0,.93183-2.90518,24.40638,24.40638,0,0,0,.22912-3.29505v-4.16158q0-1.84358.11973-5.03369a26.43253,26.43253,0,0,1,.25368-3.58948,1.01195,1.01195,0,0,1,.346-.53945,4.84105,4.84105,0,0,1,2.0713-.26708v-1.461l-3.93273.1147c-.21126.01088-.37062.01619-.47694.01619q-.6028,0-3.80855-.13089v1.461a7.20806,7.20806,0,0,1,2.54935.35415.8641.8641,0,0,1,.40746.42531,10.80021,10.80021,0,0,1,.2467,2.69532q.02469,1.0302.02177,5.70682v3.61655a14.06071,14.06071,0,0,1-.62011,5.12383,4.87214,4.87214,0,0,1-2.08079,2.18823,7.85394,7.85394,0,0,1-3.92716.84226,8.54623,8.54623,0,0,1-3.53338-.6296,4.68492,4.68492,0,0,1-2.06432-1.646,5.84966,5.84966,0,0,1-.83277-2.68722q-.06948-.76439-.07228-4.00363l-.01618-2.0766v-4.11274a29.47132,29.47132,0,0,1,.23972-4.8375.8652.8652,0,0,1,.35694-.62123,5.357,5.357,0,0,1,2.43382-.338v-1.461l-.65527.022-2.39447.0653-2.3928.04354-5.76264-.13089v1.461l2.32471.25061Zm31.49679,23.07847c1.96776-.08735,3.53087-.13089,4.67954-.13089q.46593,0,3.82893.0653V460.1376c-.16326.01088-.28048.019-.35136.019a15.22782,15.22782,0,0,1-1.68562-.14178,1.22207,1.22207,0,0,1-.59136-.18781.71437.71437,0,0,1-.24-.34355,13.59646,13.59646,0,0,1-.21265-2.49912q-.12852-2.97593-.13061-5.72608v-8.82466q10.50009,12.8121,16.21989,19.20852,1.54511.21223,3.04137.45768l.22913-.158q-.23736-2.51838-.23722-14.30264,0-1.5045.07619-4.67145a20.19052,20.19052,0,0,1,.33936-4.04967.4626.4626,0,0,1,.19619-.26457,7.08111,7.08111,0,0,1,2.57-.3187v-1.48273q-2.76327.131-4.51573.13089-1.80716,0-3.96818-.13089v1.48273a6.538,6.538,0,0,1,2.76341.35415,1.25516,1.25516,0,0,1,.32038.85313q.21055,1.68032.21237,11.22025v4.09349q-2.46062-2.53053-6.19855-7.01765-5.1858-6.21809-8.833-10.9861l-1.63231.06558-2.5675.06531q-1.06286,0-3.31263-.13089v1.48273a18.05594,18.05594,0,0,1,2.26358.22884,1.16661,1.16661,0,0,1,.55453.29443,1.28453,1.28453,0,0,1,.25758.57768,10.3355,10.3355,0,0,1,.10633,1.68423l.08847,5.15648v5.69064c0,1.5698-.02456,2.848-.07228,3.82613q-.14694,2.59206-.25619,3.26519a1.5309,1.5309,0,0,1-.22075.65388.732.732,0,0,1-.32959.22912,18.58748,18.58748,0,0,1-2.39168.19619v1.5045ZM514.63565,436.983q-2.88843,0-5.121-.13089v1.5698a18.4809,18.4809,0,0,1,2.23065.15266.87561.87561,0,0,1,.42113.20177.79581.79581,0,0,1,.16744.35414,22.81006,22.81006,0,0,1,.21126,2.81281q.04313,1.0097.04242,4.535v7.39914q0,1.803-.14986,3.92994a16.28641,16.28641,0,0,1-.14317,1.66246.5368.5368,0,0,1-.16772.28633,1.0065,1.0065,0,0,1-.49871.19061q-.28591.05734-2.11344.12558v1.56981q2.232-.131,5.0856-.13089,3.2765,0,6.16451.13089v-1.56981a16.84369,16.84369,0,0,1-2.11875-.1147,1.41371,1.41371,0,0,1-.53554-.21237.73041.73041,0,0,1-.24-.38178,9.60638,9.60638,0,0,1-.17833-2.371l-.04493-3.24035v-7.13234q0-.33489.07479-4.69294c.01228-.84756.03126-1.428.05582-1.73334a4.20519,4.20519,0,0,1,.17861-1.15008.5686.5686,0,0,1,.19619-.29442,1.21964,1.21964,0,0,1,.47973-.19061,17.11871,17.11871,0,0,1,2.13242-.13647v-1.5698q-2.888.131-6.12907.13089Zm28.293,24.78975q1.07542-3.0249,4.125-10.318l2.38861-5.70431,1.2592-2.93784a16.62827,16.62827,0,0,1,1.99762-4.01981,5.88011,5.88011,0,0,1,2.00042-.37089v-1.5698l-3.82223.13089-4.49954-.13089v1.5698c.53.01088,1.18133.0547,1.94851.12279a2.56464,2.56464,0,0,1,.63908.08987.59875.59875,0,0,1,.2562.22075.84972.84972,0,0,1,.09823.45238,2.575,2.575,0,0,1-.03684.42252q-.18.72755-.97286,2.85076c-.74541,2.00851-1.16793,3.12593-1.25919,3.352l-3.938,9.74589-4.482-10.93392q-.07158-.19632-.11442-.32707c-.03014-.08986-.27126-.67871-.71694-1.766a15.67915,15.67915,0,0,1-1.16905-3.36315.633.633,0,0,1,.14986-.4334,1.054,1.054,0,0,1,.53834-.259,11.18072,11.18072,0,0,1,2.164-.17442v-1.5698l-6.361.13089q-.91969,0-5.17406-.13089v1.5698a5.82267,5.82267,0,0,1,2.1966.319,4.27924,4.27924,0,0,1,1.03844,1.548q.67858,1.35714,3.63971,8.4186l2.51392,6.00125q1.38184,3.34389,2.8876,7.064Zm25.62783-.28326q1.59031,0,5.80505.06531l2.84937.0653a30.10972,30.10972,0,0,0,3.22277-.13061l.22633-.22912a54.59648,54.59648,0,0,1,.3854-5.76682h-1.46347a18.4016,18.4016,0,0,1-.669,3.21607.67111.67111,0,0,1-.22912.32149,5.76344,5.76344,0,0,1-1.98395.34885q-1.61669.12684-3.5197.1253-1.95828,0-3.38771-.13061-.041-.89123-.04214-2.13409V449.8249a25.43,25.43,0,0,1,2.85188-.13088,20.71825,20.71825,0,0,1,3.15747.19619,1.012,1.012,0,0,1,.76438.4415,6.33252,6.33252,0,0,1,.26708,2.52368h1.44031l-.08568-3.87274.08568-3.88892h-1.44031a8.99046,8.99046,0,0,1-.24531,2.24824.67174.67174,0,0,1-.25619.37061,3.28009,3.28009,0,0,1-1.116.12279c-1.68.04912-2.6543.07089-2.92277.07089-.87071,0-1.70208-.02735-2.50052-.08735v-3.652a44.434,44.434,0,0,1,.23973-5.11267q1.64139-.13061,3.21049-.13089a31.27781,31.27781,0,0,1,3.42314.19368,4.17738,4.17738,0,0,1,1.413.28605.62977.62977,0,0,1,.20847.35443,15.43406,15.43406,0,0,1,.15963,2.56722h1.37612q.1595-2.2894.17582-2.55383l.34075-2.55633-.1253-.23163a2.50579,2.50579,0,0,0-.58327-.11443c-1.29882-.04911-2.16117-.07088-2.58508-.07088l-3.592.08986q-2.97216.05316-5.39761.05191c-.74122,0-1.52068.0053-2.33559.0053l-4.10437.03824v1.37361a9.82832,9.82832,0,0,1,2.55913.32149.59825.59825,0,0,1,.26708.26178,9.28251,9.28251,0,0,1,.24921,2.44191c.02735,1.99763.041,3.14491.041,3.4558v7.96622q0,1.38143-.14457,4.42587-.07158,1.664-.18112,2.40647a8.81563,8.81563,0,0,1-1.72245,1.03007v.95388q5.488-.1306,5.9139-.13061Zm23.29363-22.82227a.6742.6742,0,0,1,.26317.30252,11.44789,11.44789,0,0,1,.21237,2.65736l.086,3.73906v6.57363l-.154,5.17267a16.66092,16.66092,0,0,1-.17582,2.09307,1.08343,1.08343,0,0,1-.14986.49341.51912.51912,0,0,1-.30782.17693,12.79183,12.79183,0,0,1-2.37382.19647v1.56981q2.3526-.131,5.10988-.13089,3.0969,0,6.12544.13089v-1.56981a18.75833,18.75833,0,0,1-2.05372-.10381,1.37766,1.37766,0,0,1-.51629-.18782.71684.71684,0,0,1-.22913-.259,4.22071,4.22071,0,0,1-.19619-1.29185q-.03264-.49855-.09935-4.15069-.05526-2.98011-.0533-5.63873,0-1.6845.10912-6.70452.05316-2.22786.11163-2.86695a9.856,9.856,0,0,1,1.68031-.14177,8.88042,8.88042,0,0,1,2.65318.26708,4.104,4.104,0,0,1,1.92814,1.5098,4.527,4.527,0,0,1,.77945,2.71457,5.79047,5.79047,0,0,1-.74541,2.92164,4.189,4.189,0,0,1-1.826,1.80953,7.25521,7.25521,0,0,1-3.2091.4362l-.19479.58578a5.331,5.331,0,0,1,1.09956,1.16933q1.13444,1.54092,2.7648,4.235l3.79376,6.25465a4.34711,4.34711,0,0,1,.42392,1.01137c.93183-.04382,1.87232-.06559,2.81532-.06559q1.22193,0,3.95171.06559v-1.56981a3.37252,3.37252,0,0,1-1.116-.14177,1.85233,1.85233,0,0,1-.58606-.43619q-.30057-.319-1.62981-2.07661-.0879-.11845-1.18551-1.7551l-2.74974-4.09628c-.06949-.10633-.13646-.21517-.20316-.33517-.06391-.11442-.28466-.44708-.665-.99742-.37592-.55341-.71388-1.09035-1.0097-1.61892a8.79467,8.79467,0,0,0,4.08819-2.78267,6.31074,6.31074,0,0,0,1.3284-3.8998,4.86,4.86,0,0,0-.97426-3.06621,4.52547,4.52547,0,0,0-2.35456-1.65687,16.11942,16.11942,0,0,0-4.15907-.40076c-.95388,0-2.16535.03265-3.62743.09824-.88439.04884-1.94711.07619-3.18453.07619q-2.1768,0-3.36315-.04354-2.42628-.08581-2.8315-.08735v1.461a10.08046,10.08046,0,0,1,2.59987.35415Zm45.74221,1.75511a21.34451,21.34451,0,0,1,.35443-2.25382l-.14177-.42224a12.16445,12.16445,0,0,0-3.055-.97314,19.47453,19.47453,0,0,0-3.64111-.33517,15.78732,15.78732,0,0,0-3.52919.398,9.19482,9.19482,0,0,0-3.0824,1.32171,6.54371,6.54371,0,0,0-2.19939,2.59177,8.11476,8.11476,0,0,0-.83136,3.65757,7.4836,7.4836,0,0,0,.46075,2.649,5.40733,5.40733,0,0,0,1.39259,2.09837,6.13094,6.13094,0,0,0,2.45279,1.32729q1.01388.29847,4.21879.97314a13.71369,13.71369,0,0,1,3.12063.99462,3.053,3.053,0,0,1,1.30273,1.27538,4.08546,4.08546,0,0,1,.41693,1.91614,4.693,4.693,0,0,1-.59694,2.371,3.96619,3.96619,0,0,1-1.91306,1.6432,7.30739,7.30739,0,0,1-3.00342.59164,7.72408,7.72408,0,0,1-3.56464-.83416,5.6018,5.6018,0,0,1-2.30572-1.93763,22.37468,22.37468,0,0,1-.19619-3.18062H621.7704a25.65879,25.65879,0,0,1-.5668,6.1486,18.24995,18.24995,0,0,0,3.73765,1.40068,16.64267,16.64267,0,0,0,3.87833.40885,13.71537,13.71537,0,0,0,5.099-.85035,9.28844,9.28844,0,0,0,2.58647-1.60245,8.43153,8.43153,0,0,0,1.965-2.36573,8.14593,8.14593,0,0,0,.94019-3.98437,7.64324,7.64324,0,0,0-.33517-2.32749,5.68516,5.68516,0,0,0-.86122-1.71688,4.86881,4.86881,0,0,0-1.40627-1.20477,8.96129,8.96129,0,0,0-2.3194-.89388q-.54755-.12266-2.37912-.4415c-1.22375-.21237-2.17484-.39238-2.85885-.53415a7.67121,7.67121,0,0,1-2.03586-.77946,2.85,2.85,0,0,1-1.06551-1.15007,4.34657,4.34657,0,0,1-.38708-1.89688,3.75469,3.75469,0,0,1,1.31891-2.84518,5.33089,5.33089,0,0,1,3.73655-1.21537,7.47888,7.47888,0,0,1,3.04165.59945,4.5528,4.5528,0,0,1,1.90776,1.3845,22.74443,22.74443,0,0,1,.17442,2.89988h1.48525q.05316-1.803.166-2.90546Zm15.73347-3.43933q-2.89011,0-5.12077-.13089v1.5698a18.444,18.444,0,0,1,2.22926.15266.85627.85627,0,0,1,.41973.20177.76806.76806,0,0,1,.16885.35414,22.75846,22.75846,0,0,1,.21265,2.81281q.041,1.0097.041,4.535v7.39914q0,1.803-.14986,3.92994-.09,1.45134-.14177,1.66246a.53951.53951,0,0,1-.16912.28633,1.01236,1.01236,0,0,1-.49871.19061q-.28215.05734-2.112.12558v1.56981q2.23206-.131,5.08533-.13089,3.279,0,6.16478.13089v-1.56981a16.85771,16.85771,0,0,1-2.12014-.1147,1.42347,1.42347,0,0,1-.53415-.21237.70568.70568,0,0,1-.24-.38178,9.58157,9.58157,0,0,1-.17972-2.371l-.04382-3.24035v-7.13234q0-.33489.07646-4.69294c.01089-.84756.02735-1.428.05442-1.73334a4.141,4.141,0,0,1,.17443-1.15008.59971.59971,0,0,1,.199-.29442,1.21023,1.21023,0,0,1,.47972-.19061,17.12707,17.12707,0,0,1,2.13381-.13647v-1.5698q-2.89011.131-6.12934.13089ZM677.933,461.48944q2.35888,0,5.79976.15266v-1.461a8.413,8.413,0,0,1-2.54015-.29163,1.04735,1.04735,0,0,1-.53415-.68122,28.931,28.931,0,0,1-.199-4.60308V443.99529q0-4.23093.0519-4.85369h2.53987q2.03572,0,3.48845.14149a1.20644,1.20644,0,0,1,.56681.12558,1.71981,1.71981,0,0,1,.23442.76021,21.72016,21.72016,0,0,1,.22912,2.63559h1.46069c.03265-2.491.06-3.78287.07088-3.88111.02177-.53945.08707-1.17184.18811-1.89409l-.17723-.17721c-.5534.05721-1.10094.09823-1.64626.12q-1.50032.05734-5.96023.05442h-7.14853q-4.33349,0-5.85418-.05442c-.6268-.02177-1.21537-.06279-1.77128-.12l-.15825.17721q.12266.90338.17443,1.68171.01632.46593.08735,4.09349h1.46068a17.09581,17.09581,0,0,1,.26428-2.77736,1.20385,1.20385,0,0,1,.21545-.61844,1.50159,1.50159,0,0,1,.67034-.14177q1.45929-.12266,3.374-.1253h2.54015q.0406.51489.04353,4.85369V454.6052a29.08808,29.08808,0,0,1-.19619,4.58661,1.11315,1.11315,0,0,1-.53973.70606,8.72279,8.72279,0,0,1-2.53457.28326v1.461q3.27859-.15155,5.79948-.15266Zm29.00883-17.81286a42.84958,42.84958,0,0,0-2.56471-4.40437,11.321,11.321,0,0,0-1.36523-1.76042,7.983,7.983,0,0,0-1.57539-1.07388c-.67313.18-1.32729.338-1.96777.47694l-3.74994.744v1.33007a6.08079,6.08079,0,0,1,1.55892.10633,6.52654,6.52654,0,0,1,1.25891,1.15007,28.69083,28.69083,0,0,1,2.86723,3.85907q1.89674,2.95541,3.56184,5.99845a5.02825,5.02825,0,0,1,.67341,1.68423v3.36314q0,1.41826-.08735,3.43375a2.774,2.774,0,0,1-.1853,1.06579.851.851,0,0,1-.47974.26429,18.61762,18.61762,0,0,1-2.36544.15823v1.56981q2.72267-.131,5.38253-.13089,2.72685,0,6.10758.13089v-1.56981a14.70759,14.70759,0,0,1-2.344-.14177.989.989,0,0,1-.53694-.31619,3.3621,3.3621,0,0,1-.27517-1.23993c-.07619-.6843-.11442-1.77967-.11442-3.27887v-2.98946a7.17505,7.17505,0,0,1,.08707-1.32728,5.66943,5.66943,0,0,1,.51518-1.33008q.5848-1.11185,3.07151-5.01193,2.48531-3.904,4.633-6.7888v-.79592h-2.79887q-.24949.51531-1.22374,2.21307-2.788,4.95052-3.35757,5.92506l-2.22926,3.60818q-.42531-.91551-2.49633-4.92179Z"/><polygon class="cls-1" points="703.227 373.232 703.227 309.631 761.827 309.634 761.827 267.701 703.227 267.701 703.227 208.293 767.573 208.293 767.573 231.343 810.012 231.343 810.012 166.711 640.078 166.711 640.078 208.293 655.991 208.293 655.991 373.232 640.132 373.232 640.132 415.161 718.571 415.161 718.571 373.232 703.227 373.232 703.227 373.232"/><path class="cls-1" d="M620.221,321.26606V208.28245h15.7036V166.71129H557.32v41.57116h15.32741v98.933c0,41.46483-4.79257,61.39392-34.5697,61.39392-29.7774,0-34.56858-19.92909-34.56858-61.39392v-98.933H518.718V166.71129H439.99623v41.57116h15.592V321.26606c0,24.67394,0,44.89048,11.63859,63.055,13.00661,20.56288,36.62174,33.63368,70.851,33.63368,60.58181,0,82.14322-31.576,82.14322-96.68865Z"/></svg>