<?xml version="1.0" encoding="UTF-8"?><svg id="LOGO" xmlns="http://www.w3.org/2000/svg" viewBox="0 0 1250 703"><defs><style>.cls-1{fill:maroon;stroke-width:0px;}</style></defs><g id="Logo"><path class="cls-1" d="m1049.05747,277.39687l.06402-.1067v-.12805c-.10668-2.07003-.1707-4.75893-.1707-7.53319v-.55485l-.53351.12805c-.70421.14938-4.22544.14938-7.63987.14938h-10.54221c-2.15541,0-4.07604-.04268-6.61557-.17073h-.10668l-.10668.04268c-.46949.23475-.55487.8963-.57617,1.10971-.04266.49083.10668.8963.40547,1.08836l1.10968.19206c2.90228.34145,3.05168.66156,3.05168,6.78628v20.63626c0,6.0607-.1494,6.38081-3.05168,6.72226l-1.57918.19206-.14953.1067c-.32009.32011-.38411.85362-.32009,1.23775.06402.4268.25608.74691.53351.8963l.10668.04267h.10668c2.68892-.10671,4.60956-.17073,7.14908-.17073,2.30475,0,4.28946.06402,7.61857.17073h.10668l.10668-.04267c.38411-.19206.53351-.70424.55487-1.1097.02136-.49083-.10668-.8963-.40547-1.06702l-2.15541-.23475c-2.92364-.25608-3.0944-.61888-3.0944-6.72226v-7.96q0-1.10971,1.45114-1.10971h3.90528c2.00601,0,3.52117.04268,4.2681.25608.81095.25608,1.23772.7896,1.53652,1.85662l.59753,2.3688.10668.08536c.55487.49083,1.79259.46949,2.13405-.08536l.08538-.1067v-.12805c0-.59753-.04266-1.36579-.08538-2.21941-.06402-1.04569-.12804-2.21941-.12804-3.35046,0-1.15239.06402-2.39013.12804-3.4785.04266-.8963.08538-1.6859.08538-2.32611v-.12805l-.08538-.1067c-.27744-.40547-.85361-.44815-1.08839-.44815-.46949,0-.89633.14938-1.10968.40547l-.59753,2.4755c-.32009,1.38714-.70421,1.53652-1.15241,1.6859-.59753.19206-2.36876.32011-4.73759.32011h-3.90528q-1.45114,0-1.45114-1.10971v-12.10007q0-1.85662,1.28044-1.85662h3.49987c2.36876,0,4.24674,0,5.4418.34145,2.45414.64021,3.20107,2.28343,3.69193,5.10038l.02136.14938.12804.1067c.21342.19206.53351.29877.87497.29877.49092.00002,1.02443-.19205,1.23785-.59752h0Zm-38.47698,11.13974c0-9.68859-6.35949-20.10275-20.33749-20.10275-11.88667,0-20.84964,8.89898-20.84964,20.67894,0,9.88065,7.17038,19.86801,20.84964,19.86801,11.60924.02133,20.33749-8.77095,20.33749-20.4442h0Zm-6.6155,1.7926c0,11.82264-6.99968,16.00537-12.97499,16.00537-11.82265,0-14.98101-11.97202-14.98101-19.05707,0-11.95068,7.14908-16.17609,13.27379-16.17609,10.84088,0,14.68221,10.35014,14.68221,19.22779h0Zm-50.40625,97.97423c0,24.75497,18.43822,46.62899,48.97647,46.62899,26.54758,0,47.73868-20.2308,47.73868-48.01612,0-24.20013-15.96272-47.18384-47.73868-47.18384-28.34024,0-48.97647,21.06308-48.97647,48.57098h0Zm13.76458-4.39614c0-30.13279,18.56626-39.8854,32.88572-39.8854,26.27015,0,36.3215,24.47755,36.3215,47.18384,0,27.10243-15.68528,39.47992-32.18144,39.47992-27.12375-.02135-37.02578-26.41953-37.02578-46.77837h0Zm-26.88904-112.50711c.2988-.25608.44813-.66156.40547-1.10971s-.25608-.83228-.57617-1.02434l-.12804-.08536h-.12804c-4.07604.23475-6.48753.23475-10.77693,0h-.10668l-.10668.04268c-.32009.17073-.53351.49083-.59753.87496-.08538.46949.06402.93898.38411,1.25909l.10668.1067,1.1737.12805c1.10968.12805,1.81396.40547,2.00601.55485-.1707.81094-2.17671,4.54553-3.39313,6.80762l-.25608.49083c-1.38712,2.66756-2.96636,5.54853-4.99367,9.00569-1.51516-2.73158-2.98766-5.74059-4.4175-8.6429-.55487-1.13104-1.10968-2.28343-1.68592-3.39314-.40547-.83228-1.70721-3.75592-1.72858-4.22542,0-.1067.25608-.34145,2.02737-.59753l.89633-.12805.10668-.1067c.32009-.32011.44813-.87496.32009-1.36579-.08538-.38413-.34146-.6829-.68291-.7896l-.08538-.02134h-.08538c-1.40848.1067-3.45715.17073-6.10335.17073s-4.75895-.06402-6.61557-.17073h-.12804l-.10668.06402c-.27744.17073-.46949.46949-.53351.85362-.08538.46949.04266.93898.32009,1.25909l.10668.12805,1.74994.32011c1.51516.25608,2.28345.38413,4.20408,4.11872l6.76497,13.18843c1.6219,3.11571,1.79259,3.75592,1.79259,6.91432v2.92365c0,6.23143-.1494,6.5302-3.03038,6.8503l-1.94199.19206-.10668.1067c-.32009.32011-.36282.85362-.2988,1.25909.06402.4268.25608.74691.53351.87497l.10668.04267h.10668c3.0944-.10671,5.10041-.17073,7.49054-.17073,2.32611,0,4.37478.06402,7.78927.17073h.10668l.10668-.04267c.27744-.12804.46949-.46949.53351-.87497.06402-.38413.02136-.91764-.32009-1.25909l-.10668-.1067-2.34747-.19206c-2.6462-.19206-3.03038-.64021-3.03038-6.8503v-2.98767c0-4.28944.12804-4.71625,2.6249-9.06971l3.60655-6.25277c.32009-.55485.64019-1.10971.93899-1.64322,2.26209-3.94799,3.88399-6.78628,6.31677-7.21309l1.72858-.29877.06408-.08537h0Zm-22.21547,70.14621c-2.34747-.55486-9.62459-2.07003-17.47787-2.07003-20.78562,0-34.40087,6.46617-43.59862,16.09074-8.5362,9.06971-12.37746,20.91369-12.37746,32.60828,0,12.10006,4.39614,22.96238,12.6549,31.22114,10.58487,10.73427,25.58724,15.2798,41.95543,15.2798,7.42652,0,17.32847-1.64321,24.62695-3.5852,2.60354-.6829,5.10041-1.23775,6.74361-1.23775.55487-.40547.55487-1.23775.1494-1.64321-2.47551-.96032-3.30775-4.2681-3.30775-9.77395v-7.70392c0-7.02103.12804-10.86231,5.91129-11.56655l2.19807-.27742c.96035-.83228.83231-2.88096-.12804-3.43582-4.54554.27742-9.21911.40547-14.57553.40547-8.10936,0-15.68528-.12804-19.67594-.40547-.96035.40547-1.10968,2.88096,0,3.43582l6.06069.6829c8.5362.96032,8.94167,1.79259,8.94167,13.33781v5.50585c0,4.39614-.68291,6.87164-1.36582,7.83196-1.51516,2.32611-6.61557,4.11872-15.13041,4.11872-27.65727,0-41.27252-20.78564-41.27252-47.18384,0-20.63626,11.69462-39.6293,38.39154-39.6293,14.04202,0,24.34952,4.67357,28.19078,19.52656.83231.83228,3.30775.6829,3.71323-.40547-1.23772-8.25878-2.07003-15.40784-2.07003-19.95336-1.68592.34146-5.93266-.61888-8.55756-1.17373h0Zm-21.31914-73.06986l.04266-.14938-.06402-.14938c-.21342-.42681-.81095-.46949-1.04566-.46949-.1494,0-.36282.02134-.53351.08536l-.1494.06402-.08538.12805c-.72557,1.28043-1.04566,1.38714-4.0974,1.38714h-23.68797c-2.56089,0-3.71323-.12805-3.94801-1.40847l-.02136-.12805-.10668-.1067c-.1494-.14938-.42684-.23475-.78959-.23475-.12804,0-.59753.02134-.85361.17073l-.1494.1067-.04266.19206c-.40547,2.28343-1.25908,5.91132-2.15541,8.47218l-.06402.17073.08538.17073c.34146.6829,1.51516,1.02434,2.15541.55485l.08538-.06402.04266-.1067c.57617-1.32311,1.13104-2.5822,2.47551-3.79861,1.25908-1.15239,4.1187-1.32311,6.76497-1.32311h3.15842q1.28044,0,1.28044,1.38714v25.62993c0,6.21008-.36282,6.48751-3.15842,6.72226l-2.07003.17073-.19206.06402c-.34146.2134-.53351.64021-.51215,1.15239.02136.38413.1707.87497.55487,1.04568l.10668.04267h.10668c3.49987-.10671,5.61256-.17073,7.96003-.17073,2.24073,0,4.0974.06402,7.49054.17073h.10668l.10668-.04267c.46949-.23475.55487-.8963.55487-1.1097.02136-.49083-.10668-.8963-.40547-1.08836l-2.04867-.23475c-2.85962-.25608-3.03038-.61888-3.03038-6.72226v-25.71532c0-.57619,0-1.13104.08538-1.21641.10668-.1067.72557-.1067,1.13104-.1067h4.05468c3.07304,0,5.16443.44815,6.38079,1.34445.53351.40547,1.00301,1.85662,1.25908,3.88397l.02136.12805.08538.1067c.21342.25608.59753.40547,1.04566.40547.53351,0,1.00301-.23475,1.19506-.61888l.06402-.1067-.02136-.12805c-.1707-1.64322.21342-6.25277.83231-8.55754h0Zm-52.26286,30.45289v-20.42286c0-6.2741.1707-6.65823,3.0944-6.89298l1.55788-.12805.08538-.06402c.27744-.19206.42684-.59753.40547-1.08836-.02136-.19206-.08538-.87496-.55487-1.10971l-.10668-.04268h-.10668c-2.71022.1067-4.73759.17073-7.08506.17073-2.45414,0-4.43879-.06402-7.2131-.17073h-.10668l-.10668.04268c-.46949.23475-.55487.91764-.55487,1.10971-.02136.49083.10668.8963.40547,1.08836l.08538.06402,1.53652.12805c2.92364.25608,3.0944.64021,3.0944,6.89298v20.40152c0,6.1674-.1494,6.48751-3.11569,6.8503l-1.57918.19206-.10668.1067c-.32009.32011-.38411.85362-.32009,1.25908.06402.4268.25608.74691.53351.87497l.10668.04267h.10668c2.92364-.10671,4.84427-.17073,7.2131-.17073,2.28345,0,4.18272.06402,7.08506.17073h.10668l.10668-.04267c.46949-.23475.55487-.91764.55487-1.1097.02136-.49083-.10668-.8963-.40547-1.08836l-1.6219-.23475c-2.94513-.34146-3.09453-.66157-3.09453-6.82897h0Zm-11.56658,130.11301c-5.91129-.6829-7.70389-2.75293-11.69462-14.57556l-18.84363-55.29324c-2.07003-6.06069-4.2681-12.3775-6.06069-18.43819-.27744-.96032-1.23772-1.23775-2.07003-1.23775-1.51516,1.79259-3.84126,4.2681-7.14908,5.22842.40547,2.19807-.40547,4.80161-2.34747,9.77395l-14.02072,37.15381c-5.78326,15.40784-9.62459,24.34952-12.10009,30.68763-1.92063,4.95099-4.95101,6.46617-8.25876,6.74361l-4.54554.40547c-.83231.6829-.55487,2.88096.27744,3.43582,3.71323-.12804,8.66424-.40547,13.20977-.40547,6.46617.12804,10.73427.12804,14.31946.40547,1.23772-.55486,1.23772-2.75293.27744-3.43582l-4.54554-.40547c-3.30775-.27742-3.99066-1.1097-3.99066-2.75293,0-1.51517.96035-5.22842,3.03038-11.41716l4.82297-14.44751c.96035-2.88096,1.79259-3.30778,5.22845-3.30778h20.76433c4.1187,0,4.67357.40547,5.63392,3.43582l6.03933,18.71563c1.10968,3.30778,1.79259,5.78327,1.79259,7.29845,0,1.38714-1.92063,2.19807-4.80161,2.47551l-3.99066.40547c-.96035.6829-.83231,2.88096.27744,3.43582,3.99066-.12804,9.21911-.40547,15.81332-.40547,6.18873,0,11.0117.12804,16.64556.40547.68291-.55486.96035-2.75293,0-3.43582l-3.71329-.44816h0Zm-35.48926-37.43122h-16.923c-3.86262,0-3.99066-.12804-2.88098-3.30778l8.66424-23.94404c1.51516-4.11872,2.88098-7.4265,3.30775-8.1094h.25614c.83231,1.64321,2.07003,5.3778,3.15842,8.66424l7.42652,22.42887c1.23772,3.7346.96028,4.26812-3.00908,4.26812h0Zm7.74661-114.57714c0-2.21941.83231-5.93266,6.38079-5.93266,5.05769,0,6.59421,3.28644,7.38379,6.14607l.08538.17073c.19206.2134.49085.34145.87497.34145.42684,0,1.02437-.17073,1.25908-.55485l.06402-.1067v-.12805c0-2.34745-.49085-5.61255-1.04566-7.14906l-.10668-.27743h-.2988c-.40547,0-1.1737-.1067-1.89934-.32011-1.36582-.36278-3.52117-.76826-5.4418-.76826-7.25576,0-12.14275,4.14005-12.14275,10.30746,0,5.22842,3.99066,8.66425,6.38079,10.2221l5.4418,3.56386c3.94801,2.53952,4.50281,5.18574,4.50281,7.66124,0,3.05169-2.07003,6.14607-6.72224,6.14607-5.80462,0-8.34414-4.4815-9.43253-8.21609l-.06402-.12805c-.1707-.25608-.49085-.40547-.87497-.40547s-.93899.14938-1.21642.55485l-.08538.12805v.14938c.10668,2.5822.85361,6.82896,1.60054,8.21609l.06402.10671.10668.06402c1.13104.66155,4.2681,2.17672,9.15509,2.17672,7.55455,0,12.6549-4.43883,12.6549-11.05438,0-4.58821-2.41149-8.30145-7.3625-11.37449l-4.58819-2.85963c-1.74974-1.08837-4.67338-3.39314-4.67338-6.67958h0Zm-14.44749,31.28516c.25608-.2134.40547-.55486.34146-.87497-.04266-.32011-.23471-.55486-.51215-.6829l-.12804-.02135c-1.36582-.1067-2.75294-.66156-3.71323-1.49384-3.94801-3.30778-7.08506-8.15207-11.43848-15.15175-.2988-.49083-.34146-.70424-.34146-.7896,1.89934-.7896,7.27712-3.60654,7.27712-9.92333,0-4.80161-2.71022-7.23443-4.99367-8.40815-2.88098-1.55786-6.55155-1.77127-9.77392-1.77127-5.24974,0-9.32579.14938-12.82566.44815l-.1494.04268c-.34146.17073-.55487.53351-.59753.98166-.04266.49083.1494.96032.46949,1.19507l.08538.06402,1.94199.23475c1.87797.23475,2.13405.64021,2.13405,6.2741v20.59358c0,6.0607-.1494,6.38081-3.05168,6.72226l-1.60054.19206-.10668.12805c-.32009.38413-.36282.91764-.27744,1.30177s.25608.66155.53351.81093l.10668.04267h.10668c2.53952-.10671,4.63092-.17073,7.14908-.17073,2.36876,0,4.35348.06402,6.80762.17073h.10668l.10668-.04267c.42684-.2134.53351-.76826.55487-.98166.06402-.51217-.08538-.93898-.36282-1.17373l-.06408-.08535-1.3231-.19206c-2.945-.40547-3.05168-.66156-3.05168-6.72226v-7.23443q0-.81094,2.26209-.81094c2.19807,0,2.945.53351,3.71323,1.64322.87497,1.25909,1.87797,2.85963,2.85962,4.41748,1.02437,1.62187,1.98465,3.15839,2.75294,4.22542,3.92664,5.61255,6.9143,7.40515,12.22813,7.40515,1.10968,0,2.07003-.10671,2.66756-.29877l.10668-.06402h0Zm-17.28582-21.31915c-1.64319,1.23775-3.86262,1.40847-5.63392,1.40847-2.58218,0-3.39313-.1067-3.62791-.17073-.06402-.23475-.06402-.91764-.06402-1.5792v-13.42318c0-1.28043,0-1.38714,3.28645-1.38714,6.44481,0,8.72826,4.52418,8.72826,8.38682.02136,3.17975-.85354,5.33514-2.68886,6.76495h0Zm-29.62062,12.93234l.02136-.12805-.06402-.12805c-.25608-.55485-.85361-.7896-1.34446-.7896-.27744,0-.53351.08536-.74693.2134l-.12804.17073c-1.64319,3.28644-3.11569,4.95099-3.88399,5.35646-1.23772.61888-2.96636.81094-7.14908.81094-4.78025,0-5.99667-.57619-6.61557-1.17373-.81095-.85362-.98164-2.73158-.98164-5.65524v-8.08805q0-1.10971,1.45114-1.10971h3.32911c2.00601,0,3.49987.04268,4.31076.27743.78959.19206,1.19506.72558,1.45114,1.85662l.51215,2.24075.08538.19206c.21342.25608.61889.40547,1.06702.40547.53351,0,.96035-.19206,1.13104-.53351l.06402-.1067v-.12805c0-.55485-.04266-1.30177-.08538-2.13405-.06402-1.04569-.12804-2.21941-.12804-3.3718,0-1.19507.06402-2.43282.12804-3.49984.04266-.87496.08538-1.66456.08538-2.28343v-.1067l-.06402-.1067c-.19206-.34145-.61889-.53351-1.15241-.53351-.44813,0-.85361.14938-1.06702.40547l-.55487,2.53952c-.25608,1.30177-.57617,1.51517-1.08839,1.66456-.61889.2134-2.34747.32011-4.73759.32011h-3.32911q-1.45114,0-1.45114-1.17373v-11.45985q0-1.85662,1.28044-1.85662h4.1187c2.43285,0,4.28946.06402,5.46316.34145,2.60354.66156,3.13706,2.30478,3.92664,4.80161l.10668.34145.08538.14938c.19206.23475.53351.36278.93899.36278.38411,0,.93899-.12805,1.19506-.51218l.08538-.12805-.08538-.85362c-.2988-3.32912-.57617-6.1674-.87497-7.04236l-.12804-.38413-.38411.08536c-.64019.14938-4.18272.14938-7.63987.14938h-10.77693c-2.21943,0-4.0974-.04268-6.74361-.17073h-.10668l-.10668.04268c-.46949.23475-.55487.8963-.57617,1.10971-.04266.51218.10668.8963.40547,1.08836l1.10968.19206c2.945.34145,3.11569.72558,3.11569,6.78628v20.63627c0,6.21008-.36282,6.48751-3.15842,6.72226l-2.04867.19206-.10668.1067c-.32009.32011-.38411.85362-.32009,1.23775.06402.4268.25608.74691.53351.8963l.10668.04267h.10668c3.30775-.10671,5.31376-.17073,7.78927-.17073h5.16443c4.99367,0,10.03006.06402,15.36518.17073h.27744l.12804-.25609c.85367-1.57916,2.28345-6.01799,2.68892-8.02399h0Zm-39.30916-28.55359c.32009-.32011.36282-.85362.32009-1.23775-.06402-.42681-.23471-.72558-.51215-.8963l-.10668-.06402h-.12804c-1.92063.1067-3.67057.17073-5.52718.17073-2.26209,0-4.4175-.06402-5.93266-.17073h-.12804l-.10668.06402c-.32009.19206-.53351.55485-.57617,1.02434-.04266.44815.10668.87496.38411,1.13104l.10668.08536,1.15241.12805c2.00601.23475,2.19807.64021,2.19807.64021,0,.38413-.06402.93898-.49085,2.07003-.98164,2.49683-3.71323,9.06971-5.33512,12.82564-.42684.98166-.96035,2.24075-1.55788,3.64922-1.08839,2.5822-2.41149,5.71925-3.54253,8.17341-2.71022-6.23142-5.20709-12.48419-7.74661-18.865-1.68592-4.11872-2.6462-7.10638-2.81696-7.8533.08538-.17073.57617-.42681,2.30475-.66156l.98164-.12805.10668-.08536c.2988-.25608.44813-.6829.40547-1.13104s-.25608-.83228-.57617-1.02434l-.10668-.06402h-.12804c-2.53952.12805-4.54554.17073-6.9143.17073-2.39013,0-4.22544-.04268-5.93266-.17073h-.1494l-.12804.08536c-.34146.2134-.55487.59753-.57617,1.02434-.04266.44815.12804.85362.40547,1.10971l.10668.08536,1.1737.12805c2.21943.25608,2.98766,1.28043,4.28946,4.43882l10.09408,24.88302c1.19506,2.98767,2.09139,5.52719,2.6249,7.57588l.06402.2134.21342.08536c.34146.12804.68291.2134,1.02437.2134.32009,0,.64019-.08536.87497-.23475l.12804-.08536.04266-.14938c.98164-3.07303,3.73459-9.83797,5.95402-14.917l3.0944-7.04236c2.66756-6.01802,4.86563-10.56355,6.40215-13.12441.72557-1.17373,1.49386-1.70724,2.6249-1.7926l1.87797-.12805.06389-.14937h0Zm-37.43125,79.79212c-10.45683,8.1094-17.32847,21.19112-17.32847,36.44957,0,17.75529,8.5362,30.26083,19.52654,37.83671,10.05136,6.74361,21.87401,9.21909,34.25147,9.21909,8.81364,0,18.71559-2.07003,21.74597-3.1584,1.51516-.55486,3.15842-1.08837,4.82297-1.36579,2.07003-2.60354,5.63392-11.6946,6.59421-18.84366-.55487-.96032-2.6249-1.23775-3.56389-.55486-3.15842,8.1094-11.0117,19.67594-28.74565,19.67594-22.55692,0-40.86704-15.9627-40.86704-44.85772,0-28.46822,17.88335-41.82737,38.92505-41.82737,19.95338,0,26.14211,10.73427,28.21214,20.0814.96035.83228,3.03038.6829,3.71323-.27742-1.08839-8.38682-1.79259-17.05105-1.92063-20.2308-1.23772.14938-2.19807-.12804-3.84126-.55486-6.46617-1.79259-16.923-3.30778-24.34952-3.30778-14.34075.02136-27.14505,3.88399-37.17511,11.71595h0Zm-17.60591-52.24154v-20.42286c0-6.21008.19206-6.65823,3.0944-6.89298l1.53652-.12805.08538-.06402c.27744-.19206.42684-.59753.40547-1.08836-.02136-.19206-.08538-.87496-.55487-1.10971l-.10668-.04268h-.10668c-2.71025.1067-4.73759.17073-7.08506.17073-2.45414,0-4.43883-.06402-7.2131-.17073h-.10671l-.10671.04268c-.46949.23475-.55484.8963-.5762,1.10971-.02133.49083.10671.8963.40547,1.08836l.08535.06402,1.53652.12805c2.90231.25608,3.09437.70424,3.09437,6.89298v20.40152c0,6.1674-.1494,6.48751-3.11573,6.8503l-1.57921.19206-.10671.1067c-.32009.32011-.38411.85362-.32009,1.25908.06402.4268.25608.74691.53351.87497l.10671.04267h.10671c2.90231-.10671,4.82294-.17073,7.2131-.17073,2.26209,0,4.24677.06402,7.08506.17073h.10668l.10668-.04267c.46949-.23475.55487-.91764.57617-1.1097.02136-.49083-.10668-.8963-.40547-1.08836l-1.6219-.23475c-2.92361-.34146-3.07297-.66157-3.07297-6.82897h0Zm-28.76698,112.63515v-48.97645c0-14.57556.27744-16.92302,8.3868-17.60591l3.43582-.27742c.83228-.55486.55484-3.03035-.27744-3.43582-6.87164.27742-11.54522.40547-17.05107.40547-5.78329,0-10.45683-.14938-17.32847-.40547-.83228.40547-1.10972,2.88096-.27744,3.43582l3.43582.27742c8.1094.6829,8.3868,3.03035,8.3868,17.60591v48.97644c0,14.57556-.27744,16.51754-8.3868,17.47787l-3.43582.40547c-.83228.83228-.55484,3.03035.27744,3.43582,6.87164-.27742,11.56655-.40547,17.32847-.40547,5.50585,0,10.17943.12804,17.05107.40547.83228-.40547,1.10972-2.88096.27744-3.43582l-3.43582-.40547c-8.1094-.96032-8.3868-2.88096-8.3868-17.47786h0Zm7.10639-140.18574c.27744-.27743.40547-.72558.36278-1.17373-.04269-.40547-.25608-.74691-.55484-.93898l-.12804-.08536h-.1494c-1.87797.1067-3.3718.17073-5.86864.17073-2.02734,0-3.90532-.04268-6.74361-.17073h-.08535l-.08535.02134c-.34146.12805-.5762.42681-.64022.85362-.08535.51218.06402,1.02434.38411,1.32311l.10671.08536,1.10972.12805c1.96332.25608,2.96633.53351,3.24376.93898.68291,1.08836,1.08835,5.31379,1.08835,11.63057v12.27079c0,.55485,0,1.19507-.04269,1.64322-1.98465-2.04869-4.07604-4.3748-6.65822-7.27711l-7.98136-8.94167c-5.67658-6.35947-8.92031-10.5422-9.64591-12.39883l-.12804-.32011-.34146.04268c-.68291.1067-1.62187.17073-2.58221.17073-1.00301,0-4.05468,0-6.44484-.17073h-.12804l-.10671.06402c-.29877.14938-.51218.46949-.5762.85362-.08535.46949.06402.98166.34146,1.28043l.10671.1067,1.13104.12805c1.53652.19206,2.66756.61888,3.28642,1.23775,1.06702,1.17373,1.15237,2.21941,1.15237,3.81995v17.09374c0,2.77426,0,9.26178-.70424,11.1184-.12804.29877-.61886.6829-2.17674.8963l-1.70725.19206-.10671.1067c-.25608.25608-.38411.66155-.34146,1.08837.04269.4268.23475.7896.51218,1.00301l.12804.08536h.1494c1.98465-.10671,3.52117-.17073,5.93266-.17073,1.94199,0,3.88399.04267,6.67959.17073h.1494l.12804-.08536c.27744-.19206.44816-.49084.51218-.85362.06402-.4268-.04269-.85362-.29877-1.19507l-.10671-.14938-1.98465-.19206c-1.36579-.1067-2.32611-.42681-2.58221-.87496-.61886-1.08836-.98168-5.33512-.98168-11.65191v-12.50553c0-1.02434.02133-2.11271.12804-2.90231.91763,1.02434,2.43282,2.81695,3.79861,4.41748.93899,1.10971,1.79259,2.13405,2.3688,2.77426l13.29512,15.13041c4.4175,5.03636,6.53019,7.5332,7.29845,8.62156l.12804.19206h.23475c.74693,0,1.3231-.34146,1.51519-.93899l.02133-.08536-.02133-.08536c-.08535-.66155-.17073-2.94499-.17073-9.98735v-14.46886c0-2.94499-.02133-9.04837.81095-10.84098.06402-.14938.76826-.64021,2.88098-.96032l.93899-.12805.14943-.10668h0Zm-51.38792-.08536c.25608-.29877.38411-.7896.29877-1.19507-.06402-.36278-.23475-.64021-.53351-.83228l-.12804-.06402h-.1494c-1.98465.1067-3.54253.17073-5.99667.17073-2.19807,0-4.33212-.06402-6.50886-.17073h-.1494l-.12804.08536c-.25608.17073-.44816.51218-.51218.8963-.06402.42681.04269.85362.29877,1.13104l.12804.14938,1.62187.12805c1.3231.1067,2.2194.46949,2.51816.98166.66155,1.17373,1.0457,5.31379,1.0457,11.65191v6.59421c0,6.76494-1.92063,14.8103-11.03303,14.8103-7.6399,0-11.20376-4.71625-11.20376-14.87433v-12.37749c0-6.10338.19206-6.5302,3.03035-6.78628l1.49383-.12805.08535-.06402c.27744-.19206.4268-.57619.40547-1.06702-.02133-.40547-.19206-.8963-.55484-1.08836l-.10671-.04268h-.10671c-2.71025.1067-4.65221.17073-7.02101.17073-2.34747,0-4.37481-.06402-7.08506-.17073h-.10671l-.10671.04268c-.38411.19206-.53351.6829-.5762,1.06702-.04269.49083.10671.87496.40547,1.06702l.10671.06402,1.53652.12805c2.83829.25608,3.03035.6829,3.03035,6.78628v13.52988c0,6.93566,1.42981,11.20376,4.63088,13.87132,2.51816,2.15539,6.23142,3.2651,11.0117,3.2651,4.52418,0,8.83496-1.66456,11.26778-4.33212,2.77427-2.98767,4.14006-7.55454,4.14006-13.99937v-6.48751c0-2.90231,0-9.70992.76826-11.50253.25608-.57619,1.23775-1.02434,2.49683-1.13104l1.55785-.12805.12814-.14938h0Zm-65.89947,73.41132c.83228-.55486.55484-3.03035-.27744-3.43582-5.91133.27742-10.5849.40547-15.96268.40547-5.91133,0-10.5849-.27742-17.32847-.40547-.83228.40547-1.10972,2.88096-.27744,3.43582l3.58519.27742c7.14908.55486,8.1094,2.88096,8.1094,17.32849v49.53129c0,14.44751-.27744,15.81332-7.98136,17.20044l-2.32611.40547c-.83228.83228-.55484,3.03035.27744,3.43582,5.35645-.12804,10.05139-.40547,15.96268-.40547,5.35645,0,10.05139.12804,17.47787.40547.83228-.40547,1.10972-2.88096.27744-3.43582l-3.99066-.40547c-7.70392-.83228-8.3868-2.75293-8.3868-17.20044v-19.3985c0-4.11872.27744-4.39614,6.87164-4.39614h39.35188c6.59421,0,6.87164.27742,6.87164,4.39614v19.3985c0,14.44751,0,15.81332-8.3868,17.20044l-2.60354.40547c-.83228.83228-.55484,3.03035.27744,3.43582,6.06069-.27742,11.0117-.40547,16.6456-.40547,5.35645,0,10.05139.12804,16.6456.40547.83228-.40547,1.10972-2.88096.27744-3.43582l-3.30778-.40547c-7.98136-.96032-8.25876-2.75293-8.25876-17.20044v-49.53129c0-14.44751.27744-16.51754,8.25876-17.32849l2.88098-.27742c.83228-.55486.55484-3.03035-.27744-3.43582-6.18873.27742-10.86231.40547-16.24012.40547-5.63389,0-10.30746-.14938-16.6456-.40547-.83228.40547-1.10972,2.88096-.27744,3.43582l2.60354.27742c8.1094.83228,8.3868,2.88096,8.3868,17.32849v15.8133c0,4.2681-.27744,4.39614-6.87164,4.39614h-39.35188c-6.59421,0-6.87164-.12804-6.87164-4.39614v-15.81332c0-14.44751.27744-16.51754,8.25876-17.32849l2.60351-.2774h0Zm-5.54854-44.77236l.02133-.12805-.06402-.12805c-.25608-.55485-.85361-.7896-1.34446-.7896-.27744,0-.53351.08536-.74693.2134l-.1494.17073c-1.64323,3.28644-3.11573,4.95099-3.86262,5.35646-1.23775.61888-2.96633.81094-7.14908.81094-4.78028,0-5.99667-.57619-6.61557-1.17373-.81095-.87496-.98168-2.73158-.98168-5.65524v-8.08805q0-1.10971,1.45114-1.10971h3.32911c2.00601,0,3.49984.04268,4.31079.27743.78959.19206,1.21642.72558,1.45114,1.85662l.51218,2.24075.08535.19206c.21342.25608.61886.40547,1.06702.40547.53351,0,.93899-.19206,1.13104-.53351l.06402-.1067v-.12805c0-.55485-.04269-1.30177-.08535-2.13405-.06402-1.04569-.12804-2.21941-.12804-3.3718,0-1.19507.06402-2.43282.12804-3.49984.04269-.87496.10671-1.66456.10671-2.28343v-.1067l-.06402-.1067c-.19206-.34145-.61886-.53351-1.15237-.53351-.44816,0-.85361.14938-1.06702.40547l-.55484,2.53952c-.25608,1.30177-.5762,1.51517-1.08835,1.66456-.61886.2134-2.32611.32011-4.73759.32011h-3.32911q-1.45114,0-1.45114-1.17373v-11.45985q0-1.85662,1.28044-1.85662h4.1187c2.43282,0,4.28943.06402,5.46316.34145,2.62487.66156,3.13706,2.30478,3.92664,4.80161l.10671.34145.08535.14938c.19206.23475.53351.36278.93899.36278s.93899-.12805,1.19506-.51218l.08535-.12805-.08535-.85362c-.29877-3.32912-.5762-6.1674-.87497-7.04236l-.12804-.38413-.38411.08536c-.64022.14938-4.18275.14938-7.6399.14938h-10.77696c-2.19807,0-4.09737-.04268-6.74361-.17073h-.10671l-.10671.04268c-.46949.23475-.55484.8963-.55484,1.10971-.04269.51218.10671.8963.40547,1.08836l1.10972.19206c2.945.34145,3.11573.72558,3.11573,6.78628v20.63627c0,6.21008-.36278,6.48751-3.15838,6.72226l-2.0487.19206-.10671.1067c-.32009.32011-.38411.85362-.32009,1.25908.06402.4268.25608.74691.53351.87497l.10671.04267h.10671c3.30778-.10671,5.3138-.17073,7.78927-.17073h5.1644c4.99367,0,10.03003.06402,15.34382.17073h.27744l.12804-.25609c.81098-1.55782,2.26215-6.01799,2.66759-8.02399h0Zm-47.90941-.89631v-20.63626c0-6.10338.17073-6.48751,3.03035-6.78628l1.19506-.1067.19206-.06402c.27744-.19206.4268-.57619.40547-1.08836-.02133-.19206-.08535-.87496-.55484-1.10971l-.10671-.04268h-.10671c-2.77427.12805-4.67357.17073-6.74361.17073-2.47551,0-4.48152-.06402-6.91433-.17073h-.10671l-.10671.04268c-.46949.23475-.55484.8963-.55484,1.10971-.04269.49083.10671.8963.40547,1.08836l1.28044.19206c2.92364.29877,3.09437.6829,3.09437,6.78628v6.59421q0,1.38714-2.43282,1.38714h-16.38949q-2.43282,0-2.43282-1.38714v-6.59421c0-6.10338.17073-6.48751,3.05168-6.78628l1.08835-.1067.19206-.06402c.27744-.19206.4268-.59753.40547-1.08836-.02133-.19206-.08535-.87496-.5762-1.10971l-.10671-.04268h-.10671c-2.60354.12805-4.52418.17073-6.6369.17073-1.49383,0-2.7956-.04268-4.22541-.08536-.91763-.02134-1.87797-.06402-2.98766-.08536h-.10671l-.08535.04268c-.46949.23475-.55484.8963-.5762,1.10971-.04269.51218.10671.8963.40547,1.08836l.10671.06402,1.60054.12805c2.51816.19206,2.96633.70424,2.96633,6.78628v20.63626c0,5.97534-.10671,6.21008-2.96633,6.72226l-1.10972.19206-.10671.1067c-.32009.32011-.38411.85362-.32009,1.25908.06402.4268.25608.74691.53351.87497l.10671.04267h.10671c.78959-.02135,1.53652-.04267,2.28345-.06402,1.36579-.04267,2.75291-.10671,4.35345-.10671,2.15538,0,3.99066.04267,7.27712.17073h.10671l.10671-.04267c.38411-.19206.53351-.70424.55484-1.1097.02133-.49083-.12804-.8963-.40547-1.06702l-1.85661-.23475c-2.75291-.29877-3.09437-.57619-3.09437-6.72226v-8.08805q0-1.38714,2.43282-1.38714h16.38949q2.43282,0,2.43282,1.38714v8.08805c0,6.10338-.06402,6.23142-3.11573,6.72226l-1.23775.19206-.10671.1067c-.32009.32011-.38411.85362-.32009,1.25908.06402.4268.27744.74691.53351.87497l.10671.04267h.10671c2.75291-.12804,4.73759-.17073,6.91433-.17073,2.26209,0,4.24677.06402,6.91433.17073h.10671l.10671-.04267c.46949-.23475.55484-.8963.5762-1.1097.04269-.49083-.10671-.8963-.40547-1.08836l-1.55785-.23475c-2.88101-.40549-3.00905-.7256-3.00905-6.7863h0Zm-47.14115-30.55959l.04269-.17073-.08535-.14938c-.21342-.42681-.85361-.46949-1.0457-.46949-.1494,0-.36278.02134-.53351.08536l-.1494.06402-.08535.12805c-.74693,1.28043-1.0457,1.38714-4.09737,1.38714h-23.68797c-2.56085,0-3.71324-.12805-3.94799-1.40847l-.02135-.12805-.10671-.1067c-.14938-.14938-.4268-.23475-.7896-.23475-.12804,0-.59753.02134-.85362.19206l-.14938.1067-.04267.19206c-.40547,2.28343-1.25908,5.91132-2.15539,8.47218l-.06402.17073.08536.17073c.34146.6829,1.51517,1.02434,2.15539.55485l.08536-.06402.04267-.1067c.57619-1.32311,1.13104-2.5822,2.47551-3.79861,1.2591-1.15239,4.11872-1.32311,6.74359-1.32311h3.15838q1.28044,0,1.28044,1.38714v25.62994c0,6.21008-.36278,6.48751-3.15838,6.72226l-2.07003.17073-.19206.06402c-.34146.2134-.53351.64021-.51218,1.15239.02133.38413.17073.87497.53351,1.04568l.10671.04267h.10671c3.49984-.10671,5.63389-.17073,7.96-.17073,2.24076,0,4.09737.06402,7.4905.17073h.10671l.10671-.04267c.38411-.19206.53351-.70424.55484-1.1097.02133-.49083-.10671-.8963-.40547-1.06702l-2.0487-.23475c-2.85962-.25608-3.03035-.61888-3.03035-6.72226v-25.73666c0-.57619,0-1.13104.08535-1.23775.10671-.1067.72557-.1067,1.13104-.1067h4.07604c3.07304,0,5.1644.44815,6.38082,1.34445.53351.40547,1.00301,1.85662,1.25908,3.88397l.02133.12805.08535.1067c.21342.25608.59753.40547,1.0457.40547.53351,0,1.00301-.23475,1.17373-.61888l.06402-.1067-.02133-.12805c-.10668-1.62187.27744-6.25277.89633-8.5362h0Zm-39.03177,119.16535c0,17.75529,8.53618,30.26083,19.52656,37.83669,10.05139,6.74361,21.87401,9.21909,34.25151,9.21909,8.81364,0,18.71563-2.07003,21.72461-3.1584,1.51519-.55486,3.15838-1.08837,4.82294-1.36579,2.07003-2.60354,5.63389-11.6946,6.59421-18.84366-.55484-.96032-2.60354-1.23775-3.58519-.55486-3.15838,8.1094-11.0117,19.67594-28.74565,19.67594-22.55689,0-40.86704-15.9627-40.86704-44.85772,0-28.46822,17.88335-41.82737,38.92508-41.82737,19.95338,0,26.14211,10.73427,28.21214,20.0814.96032.83228,3.03035.6829,3.71326-.27742-1.10972-8.38682-1.79259-17.05105-1.92063-20.2308-1.23775.14938-2.19807-.12804-3.8413-.55486-6.46617-1.79259-16.923-3.30778-24.34952-3.30778-14.29813,0-27.10243,3.8413-37.15381,11.6946-10.43552,8.13076-17.30716,21.19113-17.30716,36.47094h0Zm-35.78801-23.21847v-95.81884c-76.97518-7.42649-135.08535,0-135.08535,0v95.84017c6.12472,64.96048,66.96649,72.57902,67.54267,72.49367,10.88365-1.98465,61.88744-12.2281,67.54268-72.515h0Zm-113.40341,23.9227c1.23775.83228,2.6889,1.19506,4.01202,1.77127,1.64322,4.28944.04268,8.5362-.87496,6.76493-1.62188-3.07302-2.2621-5.63389-3.13706-8.5362h0Zm.08536-47.09848l-.1067-.10671c-.12805,0-8.55754,5.31378-14.02071,2.77427,4.07603-2.26209,18.22479-11.24644,22.08741-13.78596,1.81394.38413,2.56086-.25609,3.13706-.66155-1.47249.08536-6.38081.85362-3.90532-3.52119.96032,3.92664,7.81062.32011,10.28612-.25609,6.87164-1.57919,6.82895,5.76193,6.23142,8.79229-.2134,1.13104,2.1127,1.94199,3.24375,1.77127-1.96332,4.84429-5.33512.27742-5.7406,2.13405-.17073.74691-2.41148,1.34445-2.41148,3.20107.02134,2.53952,1.003,1.15239,1.10971,3.13706.10671,1.92065-.81094.4268-.59753,2.49683.32011,3.28644,5.76193-.4268,8.00269.44815,1.13104.44815,1.87796,1.45115,2.96633,1.25908.32011-.25609.17073-1.51517.12804-1.94199-.10671-1.04568-2.04869-1.17373-2.94498-2.5822-.7896-1.23775.8963-4.97234,1.79259-6.08204,1.30177,6.1674,7.08504,4.22543,7.93867,10.71292.55486,1.83528-1.98467,3.86262.06402,6.8503-1.51517,1.4725-3.35046,8.49353-.17073,11.80129-.53351,1.49383-1.25908,4.92965,1.57919,6.95701-.96032,2.02734-.72557,4.52419.06402,7.0637-1.77127,0-1.40848-9.92333-12.01469-10.24345-.23475-.06402-.29877,1.13104,0,1.66456,1.28043,2.24076,2.96633,2.1127,2.60354,7.36247-.12804,1.79259-1.17373-.32011-1.74992-.81093-1.28043-1.13104-2.28343-1.28043-2.83829-4.97234-4.31077,3.3718-3.88397,7.46917-3.60655,9.53921,0,0-.96032-2.5822-2.04869-5.24976-.06402-.14938,4.37481-5.46316,5.07903-6.74361,8.94167-16.09074-5.78327,5.20709-5.80462,5.14307-.7896-1.83528-1.49384-3.41448-1.94198-3.92664.1067-.2134,2.56086-2.96633,3.67056-5.27111,6.91432-14.40484-4.11872,4.80161-4.50285,4.43883-.83228-.74691-1.51517-1.6859-2.04869-1.34445-.12805,2.21941-.66156,1.92065-.49083,4.16139-1.15239,1.53652-3.62789,3.94799-5.35646,5.1644,0,0-.42681-3.99068-.32011-4.14006.87496-1.06702,4.2681-4.71625,4.97234-5.80462,11.3318-17.79798-5.31379,4.28944-5.33512,4.09737-.12805-.70424-1.02434-1.87796-2.006-2.85962,0,0,3.67057-5.01501,4.58821-6.87164,6.89298-14.19143-5.54853,6.27411-5.67657,6.21009-.29877-.14938-.32011-.14938-.6829-.27742-.34145-.10671.38413-4.07604.85362-6.46617.93898-4.71625-1.5792-.91764-2.2621,6.57288-.64021.10671-2.19807.25609-2.77426.7896.38413,2.00601.85362.46949,1.6859,2.39014,1.00301,2.30478-1.38714,6.06069.6829,8.83496.81094,1.06702.85362.8963.70424,1.57919-1.28043-.08536-2.07003-.10671-2.88096.98166-1.5792-7.17041-1.53652-10.62758-1.15239-17.90468.17073-3.30778,1.25909-8.3228.74691-8.42949-.46949-.08536-7.98135,19.24914-9.79529,23.04774-3.15839-1.06702,1.96332-17.81931,8.49352-25.86469.61888-2.56085-3.41448,2.60354-5.82595,4.65223-2.21941,1.87796-5.01501,4.35346-8.06671,3.49984,3.92665-4.14006,12.88966-11.88666,13.89266-13.82865.83228-1.66456-6.12472,5.1644-13.48719,2.62489,4.82298-2.5822,15.94138-8.25876,15.96272-12.20677h0Zm13.25245,36.36421c.02134,1.77127-.1067,3.07304.42681,4.86563.83228,2.71024.40547,1.87796-.72558.93899-.8963-1.00301-1.74992-1.83528-2.17673-3.00902-.12805-.81093.55485-.87495,2.4755-2.7956h0Zm17.77663-43.57729c-1.06702-1.83528,1.28043-3.5852,1.28043-3.5852-.06402,5.14307,6.50886,1.62188,9.94468,3.24375.83228.38413,1.40848,1.1097,1.74992,1.87796-3.69191-2.56085-10.52087,2.64623-12.97503-1.5365h0Zm-38.69032-41.12314c-5.86864,0-5.74059-8.81363,0-8.81363,5.76193,0,5.76193,8.81363,0,8.81363h0Zm0,17.58457c-5.99668,0-5.99668-8.79228,0-8.79228,5.76193,0,5.80461,8.79228,0,8.79228h0Zm11.13973-18.99305h-5.12172v-5.03636h5.12172v5.03636h0Zm0,17.54189h-5.12172v-5.03636h5.12172v5.03636h0Zm41.35789,8.66424s-5.35647-2.90231-11.65191-3.32911c-6.08204-.40547-18.37417,4.46016-27.80667,3.81995v-41.44325s10.75561,1.42981,15.1731-.27743c15.02371-5.80462,24.26415.6829,24.26415.6829v40.54695h.02133Zm10.37148,6.74361c.25609,1.55786-1.19506,1.96332-1.19506,1.96332,2.26209.53351,3.32911-.81093,3.77726-1.66456.87497,3.60655-2.77427,3.79861-3.90532,4.01201,0,0,1.83528.53351,1.94199,1.72858.23475,3.05169,2.19807,2.7956,2.62489,2.53952-.06402.36278-.6829,2.19807-2.88096.55486-.36278.36278.59753.93899.7896,2.45416.25609,1.92065.19206,3.69191,2.39014,4.84429-1.34445,1.06702-2.94498-1.72858-3.09437-1.38714-.14938.38413,1.87796,1.40848-.36278,6.70092-1.02435-.59753-.44815-.46949-1.64321-1.87796-.91764-.76826-1.25908-.93899-.51217.32011,1.32312,1.64321,1.64321,5.44183,1.17373,6.44482-1.08837-.46949-.81093-1.34445-2.09138-2.53952-.12804.51217.40547,3.00902,1.72858,4.20408,2.30478,2.07003,3.11571,4.58821,3.1584,5.07903.19206,1.87796-.40547,4.37481-.64022,6.78628-1.1097-.14938-2.04869-3.28644-2.30478-3.11571-.32011.2134.12804,3.07304,2.21941,5.01501,1.00301,2.94498.59753,4.52419.34146,4.63088-.36278.14938-1.4725-3.00902-2.09138-2.45416,2.96633,7.53319.8963,10.13674.10671,12.46286-.61888-2.3688-.91764-4.16139-1.6859-6.8503-1.62188,1.25908-2.00601,3.13706-3.96933,4.86563,0-3.07304-1.77127-10.47818-3.17973-12.20677-.06402-.08536-2.53952,6.6369-3.67057,9.62457-1.4725,3.88397-1.6859,8.72826,0,12.50553-3.64922-5.20709-4.0547-14.87433-.8963-16.1761.27742-.6829-.19206-2.96633-.8963-2.68891-.19206,1.1097-.06402,2.07003-.98166,3.1584-2.41147-.70424-1.32312-3.67057-1.1097-4.63088,3.13706-3.75593,1.17373-4.63088,1.02435-4.52419-.34146.85362-.64022,1.92065-1.60054,2.30478-2.00601-3.45717-.72557-8.89898,3.09437-12.95368.17073-1.51517-1.70725,1.13104-2.92365,1.04568-.32011-2.92365.74691-7.98134,6.14606-8.17341-1.02435-.29877-1.57919-.49084-1.83528-1.34445,1.62188-.23475,6.74361-.64022,5.91131-4.67357-.49084.49084-.64022,1.21641-1.96332,2.02734-.8963.55486-1.87796.59753-2.39014-.19206,2.3688-.7896,1.60054-3.67057-1.51517-2.81695-.93899.25609-2.34745-.72557-2.41147-1.83528.6829.6829,2.09138.17073,2.90231-.34146,3.4785-2.26209,5.61255,1.02435,6.08204,1.72858.14938,0,1.55786-3.28644-3.39313-4.16139-.40547-1.15239-1.53652-3.20107-4.90832-2.94498-1.1097-3.90532-4.46016-1.98467-4.35346-.2134-3.56386-2.62489.06402-5.93266,1.49383-6.44482,1.00301.08536.76826,3.24375,2.51818,2.71024.4268-.12804-1.36579-2.17672-.6829-3.09437,1.60054-.91764,1.57919,1.17373,2.3688.40547.38413-1.36579,1.96332-2.13405,3.26509-2.28343,3.71321-.55486,6.5515,3.43582,10.03,1.4725h0Zm32.75766-6.10338c-7.89598.53351-24.30683-3.96933-28.46822-3.96933-8.60022,0-12.76163,3.35046-12.76163,3.35046,0,0,.02135-39.05311,0-40.46158,0,0,11.31047-5.29244,19.52656-2.2621,10.07272,3.71325,21.70328,2.07003,21.70328,2.07003v41.27252h0Zm10.41417-15.94135c4.35346-.64021,5.01501,4.50285,5.01501,4.50285h0c-1.06702-.85362-3.22242-1.23775-4.6949-.29877-4.86563,3.13706-9.26178,3.1584-9.26178,3.1584v-7.8533s.91764,1.66455,8.94167.49082h0Zm5.14305-10.75561c-.04267-.23475-.08536-.59753-.14938-1.08836-.10671-.7896-2.3688-1.23775-3.94799-.53351-2.21941.98166-7.81063,4.1614-9.83797,3.56386v-7.8533c5.01501,2.17673,6.97834.2134,8.60022.2134,4.95099,0,5.20709,4.63089,5.20709,4.63089.06402.46949.10669.83228.12804,1.06702h0Zm-5.61255,81.39266c-1.4725.38413-5.33512,1.92065-6.27411,3.45717.49084-8.36547-2.19807-16.58156-3.07304-18.56623-1.6859-3.86262.74691,9.00569.91764,11.97202,0,.12804-13.89267-17.862-5.50585-4.01201,2.17672,3.5852,5.56987,5.93266,5.56987,5.99667.06402,2.49683-.10671,4.33212-.57619,5.67658-.85362.6829-18.90768-24.02941-8.94167-6.91432,1.23775,2.1127,8.47218,8.5362,8.42949,8.68558-.46949.98166-1.28043,2.39014-2.39014,3.43582-.19206-.19206-4.16139-3.11571-4.20408-3.30778-.29877-1.92065-.32011-3.71324-2.66756-2.3688,0,0-8.89898-10.35014-4.78027-3.09437,1.79259,3.17973,2.98767,3.52119,3.45717,4.09737,0,0-1.38714,1.87796-1.81394,3.86262-.17073.7896-7.72527-8.36547-4.75894-2.60354.93899,1.83528,4.39614,3.86262,4.35346,3.99068-.36278,1.19506-.70424,2.3688-1.08837,3.11571-.46949.96032-7.08504,6.23142-7.08504,6.23142,0,0,1.30177-4.18274,4.09737-6.23142,1.60054-1.17373,1.60054-.91764,2.66756-1.57919-.02135-.61888-.61888-1.62188-1.38714-1.8993-.96032-.34146-4.09737.23475-4.09737.23475.29877-1.55786-1.08837-4.95099-1.06702-8.66424-1.17373.10671-3.24375,1.94199-3.75593,2.96633-.36278,6.14606-1.70725,4.31077-2.94498,8.7496-1.36579-1.85663.08536-4.52419-1.23775-6.25277-1.83528-2.39014-2.1127-4.01201-2.39014-6.93566.4268-.23475,2.30478-2.30478.59753-6.65824-.27742-6.82895,2.77427-9.4325-2.68891-14.19143.44815-.14938.7896-3.56386.7896-3.56386,4.01201,2.13405,3.22242-2.47551,4.78027-3.39313,2.47551-1.45115,2.02734-2.94498.91764-4.80161,7.10639,2.02734-.32011,6.87164,2.90231,6.97834,2.32611.06402,3.88397-.51217,4.90832-2.09138,1.08837-1.66456-.19206-2.66756,2.81695-5.35647.29877-.25609,1.1097-2.07003-1.28043-2.56085-.53351-.10671,0-2.15539,0-2.15539-1.92065,1.62188-2.51818,3.90532-5.59122,2.45416-1.57919-.74691-2.60354-.02135-3.24375.29877,0,0-.32011-1.28043.98166-1.72858,3.3718-1.13104,4.20408-2.47551,4.01201-3.20107-.44815-1.74992-.59753,0-.49084-1.83528.04267-.72557.8963-1.72858,1.60054-2.5822,2.28343-2.75293,3.90532-1.72858,4.4815-1.4725,1.32312-1.02435,1.55786-.96032,2.7956-1.45115,2.1127-.83228,6.70092.55486,9.26177,1.72858,1.23775.55486,2.73158.8963,4.16139.57619-.02135.74691-.53351,1.15239-1.06702,1.30177-.7896.25609-1.74992,0-1.6859.57619.04267.34146,1.13104.40547,1.81394.59753,3.79861,1.04568,8.70693,4.43883,5.48451,3.71324-.38413-.08536,2.32611,2.02734,4.37481,4.75894l7.23443,7.02103c-.34146.40547-2.85962.04267-10.905-7.49052-1.15239,1.02435,9.77395,9.24044,14.2768,17.9687-.38413.27742-5.99667-1.77127-8.02403-3.86262-3.11571-3.22242-6.70092-11.43851-8.17341-10.2221-.17073.06402,5.93266,9.58188,8.94167,15.21577,1.51517,2.85962,2.77427,6.93566,2.88096,10.03003.49084,15.19444-1.81394,14.02071-1.79259,14.02071-3.56386-11.97202-5.22842-25.86469-10.41416-32.28817-2.04864-2.58218,5.56992,11.18243,5.89003,23.62395h0Zm-15.72795,13.65792c-1.60054,1.40848-2.64622,1.8993-2.30478,1.21641.38413-.7896.6829-1.42981.8963-2.02734.08536-.21342,1.40848.81093,1.40848.81093h0Zm-1.04568-1.8993c.36278-1.28043.36278-2.15539.51217-3.28644.06402-.49084.08536-.4268.10671-.83228,0-.12804,3.4785,2.88096,3.67057,3.00902-.87497,1.08837-1.62188,1.49383-2.45416,2.26209-.5762-.49084-1.87797-1.02435-1.83528-1.15239h0Zm11.26778,3.86262c-4.82296,4.75894-12.05738,3.03035-17.75529,5.59122-5.1644,1.87796-8.89898,6.65824-14.31947,7.87465-1.60054.51217-1.85663,1.30177-.83228,1.28043.59753-.02135,3.90532,3.43582,9.17642.76826,1.77127-.8963,7.23443-3.94799,8.17341-4.11872-2.96633,2.81695-4.46016,5.35647-7.10639,6.82895-1.62188.91764-8.23743,3.26509-14.81031,1.98467-2.92365-.57619-5.1644,2.13405-4.41748,2.07003,1.55786-.4268,3.30778-.2134,4.37481,1.17373,1.92065,1.49383,4.67357,3.3718,7.0637.57619.7896-.91764,4.56687-2.88096,8.13072.72557-3.77726-.19206-3.41448,6.59421-10.56354,5.80462-2.64622-.02135-8.51485-6.08204-10.17941-4.20408-2.96633,3.32911,6.35948,6.48751,2.32611,10.67025-3.64922,3.77726-8.00269-3.00902-8.00269-3.00902,2.28343.96032,6.46617,1.57919,4.63088-2.13405-.72557-1.4725-2.13405-2.7956-2.13405-5.50585-.32011-1.34445-8.66424,10.75561-14.19143,5.29245-2.17672-2.15539-6.57288-6.8503-10.54221-8.64291,10.54221-.8963,12.14275,3.32911,12.65492,3.99068,3.3718,4.54552,6.48751-.06402,7.21308-.87497,1.08837-1.25908,2.64622-2.96633,2.09138-3.22242-4.09737-1.94199-8.7496-2.34745-12.24944-.74691,7.46917-10.26477,13.27379-.66155,13.27379-.66155.81093.51217-.2134-6.08204-7.59721-6.44482-4.60956-.23475-8.66424,3.92664-11.86531,3.92664-2.5822,0-10.4355-5.29245-12.27079-10.0087,4.56687,3.41448,10.39283,5.3778,14.02071,3.20107,6.82895-4.07604,15.40784,2.07003,15.81332,1.32312-1.8993-1.49383-6.25277-7.29845-17.9687-3.99068-4.54552,2.60354-6.46617-1.94199-9.24044-2.00601,4.73759-4.20408,8.04536-2.07003,9.68859-1.94199.38413,0-1.98467-1.96332-3.64922-2.13405-12.93234-1.34445-21.14843-4.90832-21.14843-4.90832-.06402,0,1.08836-2.60354,6.6369-.72557,0,0-4.99368-3.05169-4.95099-6.97834.17073-2.41147,1.32311-5.01501-.51218-7.02103,7.51186-.29877,2.17673,10.15808,7.44784,12.86832.1067.04267-1.55786-2.49683.7896-4.4815,1.08836,3.07304,3.77727,4.67357,5.65524,5.1644.44815-.23475.98166-1.19506.98166-1.17373-1.98467-3.28644-2.24075-7.10639-1.70724-11.48118l.08536-.04267c.42681.02135,1.15239,1.51517,1.66456,2.60354,1.08836,2.34745,1.06702,5.7406,3.24376,8.5362,1.21641,1.53652,1.96332,3.07304,3.05169,3.81995.46949-1.08837.12804-2.96633.04267-3.45717-.25609-1.77127-1.36579-4.88698,1.6859-7.6399,1.42981,4.09737,3.35046,2.92365,3.62788,4.88698.36278,2.75293.23475,2.32611-.04267,4.43883.14938,2.92365,2.7956,3.73459,5.14307,5.61255,5.31378,2.88096,8.83496,4.46016,11.13974,8.15207,1.13104-6.25277-15.72795-7.49052-13.55121-19.5479-.23475-4.80161.59753-5.20709-2.81695-8.15207,6.76493.19206,10.45685,11.28913,10.81963,13.31647.6829,3.71324,2.94498,3.90532,6.03936,8.77095.44815.17073-5.54853-12.93234,1.60054-24.1361,0,0,2.41147,5.82596,1.28043,9.6459-.6829,2.30478-.04267,4.84429.08536,6.29544.12804,1.4725-.29877-5.31378,4.80161-8.81362.32011,2.56085,2.77427,6.55153.44815,10.79829-2.83829,5.18574-3.05169,3.32911-3.09437,9.68859.25609-.10671.98166-4.39614,2.94498-6.82895,4.11872-5.14307,1.17373-7.89598,5.18574-12.35615.32011,2.21941.8963,1.34445,1.13104,3.32911.53351,4.46016-4.11872,9.3258-3.07304,9.17642,1.17373-.17073,3.07304-1.19506,3.71324-4.56687,0,0,1.70725,3.07304.14938,4.11872-2.83829,1.85663-3.43582,3.86262-2.98767,6.12473,2.28343-2.71024,5.3778-5.71925,4.84429-9.60322.25609-2.32611,2.7956-3.28644,3.28644-8.70693.08536-.8963.98166-1.98467,1.87796-2.47551-.38413,3.05169,1.98467,6.21009-.72557,9.92333.61888.32011,2.88096-2.90231,6.21009-1.72858-6.67957,1.19506-4.73759,8.45084-9.83797,11.77995-1.53652,1.00301-1.28043,2.13405-1.74992,2.26209,4.56687-.25609,8.08805-5.69791,8.70693-6.12473,4.58821-3.11571,5.59122-3.5852,7.4265-8.62156.72557-1.92065.19206-2.75293,2.73158-5.33512,1.1097,2.53952-.51217,7.83196-.8963,8.963-.83228,2.43282-3.71324,4.52419-3.09437,4.52419,12.31346-5.44183,12.16408-9.09106,15.10908-12.97503.87497-1.49383,5.27111-4.07604,6.89299-4.31077-.40547.81093-2.1127,2.17672-2.17672,3.64922-.14938,2.71024-1.02435,4.37481-2.41147,6.57288.76826.96032,2.24076-1.79259,3.73459-.40547-1.94206.64027-2.83836,2.83834-4.37487,4.14011h0Zm2.04869-.70424c-.72557,3.5852-1.96332,6.91432-4.11872,10.0087-1.51517,2.19807-2.13405-2.07003-.83228-6.18875,1.85663-.74691,3.71324-2.19807,4.95099-3.81995h0Zm-9.36848-91.01722c-.27742-.1067-.87497-.2134-1.25908-.2134s-.57619.53351-.10671.66156c.29877.08536.85362.17073,1.38714.2134.36278.02134.25608-.55485-.02135-.66156h0Zm-1.38714,1.72858c.29877.08536.83228.17073,1.38714.2134.34146.04268.23475-.53351-.04267-.64021s-.87497-.2134-1.23775-.2134c-.40547-.02135-.5762.49083-.10671.64021h0Zm0,7.83196c-.27742-.32011-1.00301-.91764-1.66456-1.38714-.38413.32011-1.15239.87496-1.64321,1.13104-.36278-.40547-.85362-.98166-1.60054-1.5792-.44815.29877-1.74992,1.49384-2.28343,1.7926.7896.02134,1.96332.27742,2.00601,1.02435.02135.59753-.04267,4.31077,0,4.99367.49084.10671,1.04568.06402,1.74992.02135.04267-.53351.02135-4.80161.04267-5.31378.23475-.12804.51217-.25609.64022-.38413.27742.19206,1.08837,1.15239,1.57919,1.40848.32011-.25609,1.19506-1.00301,1.55786-1.36579.38411-.40547-.04269-.66156-.38415-.34146h0Zm-2.17672-6.23142c.44815-.81094,1.1097-2.13405,1.06702-3.13706-.06402-1.23775-.81093-3.05169-2.62489-3.67057-2.28343.81094-3.71324,2.62488-3.77726,4.75893-.04267,1.25909,1.02435,3.81995,3.22242,3.84129.68288-.61887,1.40846-1.3231,2.1127-1.79259h0Zm-1.38714.49083c-.4268-.2134-1.96332-1.40847-2.32611-2.32611-.46949-1.23775-.46949-2.60354.85362-3.39314,1.02435.38413,2.21941,1.38714,2.32611,2.30478.12804,1.21641-.2134,2.62488-.85362,3.41448h0Zm-.06402-9.53921l1.64321-1.7926s-.72557-.57619-1.17373-1.10971c0-.38413,0-3.99067.14938-4.18274-1.23775-1.10971-2.13405-1.23775-2.66756-1.17373-1.00301.14938-2.02734,1.42981-2.34745,1.87797-.23475.34145-.17073.76826,0,.91764.19206.17073.44815.32011.72557.49083-.04267-.02134-.08536-.06402-.12804-.08536-.46949.44815-1.15239,1.70724-1.13104,2.5822,0,.87496.7896,2.13405,1.32312,2.60354.57619-.44815,1.45115-1.19507,2.71024-1.45115.12805.61888.42682.98166.89631,1.32311h0Zm-.98166-4.16139c-.81093-.29877-2.41147-1.04569-2.98767-1.51517-.14938-.12805-.17073-.19206.02135-.49083.36278-.55485.7896-1.02434,1.08837-1.00301.25609,0,1.87796.87496,1.83528,1.32311.02133.3201.04267,1.00301.04267,1.6859h0Zm0,2.45415c-.4268.02134-.7896.12805-1.32312.38413-.44815-.36278-1.60054-1.74992-.74691-3.30778-.12804-.06402-.23475-.12805-.36278-.2134.7896.44815,1.6859.81094,2.41147,1.04569,0,.61888-.02135,1.17373-.02135,1.38714,0,.27741.02135.49082.04269.70422h0Zm-4.73759-7.40515c-.38413,0-2.98767.06402-3.05169-.08536-.19206-.55485-.23475-1.23775.2134-2.17673.2134-.46949-.2134-.66156-.38413-.19206s-1.4725,2.2621-2.81695,2.83829c-.70424.27743.85362.91764.74691.8963,0,1.72858.23475,4.33212.61888,5.37781.23475.61888.93899,1.62187,1.42981,1.32311.32011-.19206,1.00301-1.55786,1.21641-1.72858.38413-.29877,0-.83228-.29877-.51218-.34146.29877-.64022-.17073-.74691-.49083-.10671-.29877-.4268-4.11872-.27742-4.20408,0,0,3.07304-.36278,3.39313-.36278.17073-.02134.19207-.68289-.04267-.68289h0Zm-8.45084,7.02102l1.28043-1.64322c-.91764-.14938-1.30177-.32011-1.94199-1.06702l.02135-4.09737-1.30177-1.30177-.44815.04268-2.04869,1.7926c-.2134.32011.34146.32011.61888-.06402l1.4725.85362.06402,3.96933c.10671.46949.51217.93898,1.08837,1.51517h1.19506Zm-1.10972-9.11239l.70424-.61888v-1.00301l-.96032-.93898-.96032.81094.02135,1.15239.59753.59753h.59752Zm-3.26509-1.25909c-.55486-.06402-2.34745.08536-3.00902.19206-.66155.1067-.66155.42681-.10671.49083.53351.06402.64022.17073.93899.8963.25609.72558-1.04568,4.0547-1.36579,4.84429-.38413-.57619-1.77127-3.60654-1.77127-4.03335,0-.29877.61888-.59753.87497-.66156.51217-.14938.49084-.51218.10671-.57619-1.08837-.14938-4.88698-.49083-5.56987-.57619-.49084-.04268-.70424.51218-.12804.51218.61888.02134,1.23775-.17073,1.92065.81094.76826,1.10971,3.17973,6.29545,3.75593,8.47218.27742-.46949,2.68891-7.44784,2.83829-8.19475.17073-.72558.6829-1.42981,1.38714-1.64322.7469-.17072.68288-.49083.12802-.53351h0Zm-11.43851,16.90168c.04267,2.90231,1.19506,3.15839,2.51818,3.90532,1.25908.70424,3.35046.57619,4.92965.14938.59753-.17073.91764-.2134.8963.29877,0,.32011.44815.25608.44815.02134s.02135-2.66756.02135-2.94499c0-.29877-.44815-.25608-.44815,0,0,.40547,0,.53351-.40547,1.10971-1.08837,1.60054-3.79861,1.53652-5.24976-.42681-.49084-.66156-.96032-1.55786-.38413-1.72858s2.32611.19206,3.4785.27743c.6829.04268,2.28343.2134,2.49683.32011.17073.12805.44815.29877.44815-.04268.02135-.34145.02135-1.47249.02135-1.81394s-.25609-.17073-.44815-.06402c-.19206.12805-1.8993.42681-2.5822.53351-.6829.12805-2.7956.29877-3.35046.1067-.57619-.19206-.38413-1.32311.12804-1.98467,1.4725-1.94198,4.43883-1.81394,5.52718-.19206.36278.55485.36278.70424.36278,1.10971,0,.25608.4268.27743.4268,0,.02135-.27743.04267-3.22241.04267-3.45716s-.4268-.32011-.4268,0c0,.2134-.46949.34145-.93899.2134-.91764-.29877-3.60655.12805-4.80161.7896-1.08832.64021-2.73155,2.04869-2.7102,3.81995h0Zm.51217,5.14306c.04267.83228.34146,7.93867.25609,8.92033-.06402.55486.70424,1.15239,1.38714,1.62188.34146-.40547,1.06702-1.4725,1.66456-1.92065.36278-.29877.10671-.49084-.17073-.38413-.53351.25609-1.08837.06402-1.15239-.57619-.04267-.61888-.04267-6.7436,0-7.61856-.40546.02133-1.57919,0-1.98467-.04269h0Zm5.86864,5.82595c-.46949.44816-1.32312,1.60053-1.30177,2.45415.02135.87497.4268,1.70725.93899,2.17672.85362-.59753,1.40848-1.42981,2.83829-1.98467.17073.66155.64022.76826,1.21641,1.19506.34146-.36278,1.55786-1.85663,1.81394-2.13405.27742-.25609.10671-.51217-.27742-.25609-.38413.25609-.64022.10671-1.28043-.59753.02135-.38413-.04267-3.43582.10671-3.60654-.57619-.61888-1.13104-1.49384-1.81394-1.42981-1.00301.08536-2.28343,1.83528-2.60354,2.28343-.25609.32011.02135,1.5792.19206,1.74992.08536.08538.10669.08538.17071.1494h0Zm.70424.49083c.55486.32011.83228.12804,1.70725.02135,0,.55486-.02135,1.04568-.02135,1.30177-.38413.27742-.85362.51217-1.40848.7896-.40546-.34146-1.04568-.64022-.27742-2.11272h0Zm-.44815-2.51818c.36278-.55485.59753-.66156.8963-.66156.25609.02134,1.28043.72558,1.23775,1.19507.04267.29877.06402.93898.06402,1.60054-.76826.08536-1.30177.17073-2.15539-.53351-.19206-.14938-.23473-1.30177-.04267-1.60054h0Zm6.14606-1.13104c-.64022.32011.87497.91764.76826.8963-.02135,1.72858-.36278,4.54552.23475,5.42049.36278.55486,1.19506.8963,1.74992.6829.53351-.2134,1.21641-1.28043,1.42981-1.45115.40547-.29877.06402-.61888-.27742-.29877-.32011.29877-1.21641.08536-1.34445-.2134-.08536-.32011-.2134-4.07603-.04267-4.1614,0,0,1.06702-.02134,1.36579-.02134.23475,0,.23475-.6829.02135-.6829-.38413,0-1.25908-.08536-1.30177-.23475-.12804-.36278.02135-1.49384.25609-1.96332.23475-.46949-.2134-.6829-.38413-.2134-.21342.51216-1.32313,1.68589-2.47552,2.24074h0Zm.32011-7.81062c.06402,1.62187-.7896,3.32912-1.70725,4.11872,1.60054-.40547,1.79259-1.36579,2.66756-2.4755.49084.70424,1.36579,1.5792,2.02734,1.94198.46949-.29877,1.77127-1.77127,2.04869-2.07003-.93899-.25608-2.75293-1.21641-3.20107-2.21941-.36278-.74691-.27742-1.10971.08536-1.70724.32011.42681,2.51818,1.42981,3.52119-.25608-1.08837-.40547-2.07003-1.10971-2.39014-1.6859-.29877.23475-1.25908,1.30177-1.81394,1.62187-.12804-.57619-1.02435-1.21641-1.74992-1.34445-.23475.25608-1.94199,1.55786-2.71024,1.92065-.23475.1067-.14938.64021.19206.51218.32011-.12805.83228-.53351,1.45115-.83228.70426.29877,1.49384,1.00301,1.57921,2.4755h0Zm7.61856.27743c.19206-.98166.8963-1.38714,1.19506-1.6859.44815.49083.8963,1.06702,1.57919,1.06702.66155,0,1.34445-.29877,1.55786-.57619-.55486-.44815-1.79259-1.74992-2.02734-1.98467-.61888.34145-3.35046,1.77127-3.5852,3.41448-.34146,2.41148.4268,2.90231,1.49383,4.22542.59753.74691,1.60054.7896,2.04869.66156.49084-.34145,2.28343-2.02735,2.47551-2.24075.17073-.2134-.08536-.40547-.29877-.19206s-.12804.29877-.4268.34145-1.51517.25608-2.21941-.1067c-.8963-.51218-2.04869-1.60054-1.79261-2.92365h0Zm-1.34445,7.70392c-.40547.40547-1.1097.87496-1.77127,1.62187.55486.04268,1.00301.14938,1.25908.6829.27742.51218.04267,2.71024.08536,3.56387.04267.81093.53351,1.00301,1.19506,1.66456.64022-.17073,2.45416-.91764,3.07304-1.34445-.06402.6829.7896,1.42981,1.30177,1.57919.34146-.36278.70424-.57619,1.19506-1.02435-.49084-.32011-.4268-.36278-.59753-1.00301-.14938-.61888.04267-2.96633.04267-3.96933-.38413-.57619-1.00301-1.28043-1.66456-1.74992-.44815.40547-1.06702.96032-1.79259,1.72858.53351-.06402,1.57919.14938,1.64321.59753.04267.57619.12804,1.85662,0,2.83828-.12804,1.00301-2.7956.53351-2.83829-.12804-.06402-.6829.12804-2.66756.14938-3.60654-.34142-.61887-.57617-.93898-1.28041-1.45115h0Zm-17.73395,24.05073v-.10669c-1.53652-.2134-2.75293-1.30177-4.18274-1.83528-1.96332-.74691-4.03335.76826-4.03335,1.00301,0,.53351.55486.7896,2.13405-.19206-1.23775,1.42981.17073,2.60354.17073,2.60354-.51217-.08536-1.25908-.25609-1.72858-.51217-.08536.51217.61888.70424.96032.93899,2.64622,1.06699,4.37479-1.45119,6.67957-1.89934h0Zm-4.43883,1.32312s.70424-.74691.70424-1.30177c0-.72557-.6829-1.25908-.6829-1.25908.59753.17073,2.00601.96032,2.49683,1.30177l-2.51818,1.25908h0Zm-14.38349-19.88934l.74691-.83228c-.85362-.14938-.44815-.14938-.8963-.55486l-.02135-3.45716-1.1097-1.62187-.4268.06402-1.72858,1.62187c-.44815.40547-.04267.59753.46949.14938l1.15239.59753.02135,3.64923c.08536.44815.49084.55486,1.04568,1.13104l.7469-.74691h0Zm.38413-12.0147c.57619,1.66456,1.96332,2.17673,2.98767,2.2621.29877-.57619.87497-1.42981,1.17373-1.83528.46949-.61888,0-.98166-.34146-.27743-.25609.53351-1.57919-.04268-2.04869-.51218-.64022-.59753-1.04568-2.17673-.53351-2.73158s1.25908-.29877,2.21941-.34145c.64022-.02134.76826-.61888.87497-.91764-.29877-.14938-.76826-.40547-1.36579-.76826-.61888.40547-1.57919,1.21641-1.98467,1.55786-.5122.44816-1.55788,1.96333-.98168,3.56387h0Zm2.49683,9.11239c-.61888.64022-1.08837,1.34445-1.08837,2.24076.02135.85362.32011,1.70725,1.17373,2.09138.76826-.57619,1.74992-1.25908,2.71024-1.42981.46949.55486,1.17373.93899,1.62188,1.28043.29877-.36278,1.23775-1.13104,1.51517-1.36579.25609-.25609,0-.61888-.25609-.27742-.19206.29877-.87497.08536-1.06702-.23475,0-.36278-.34146-4.18274-.19206-4.3748-.55486-.61888-1.51517-2.006-2.15539-1.94198-.93899.08536-2.32611,1.42981-2.62489,1.85662-.23475.32011.06402,1.8993.25609,2.04869.04269.064.06402.064.10671.10668h0Zm2.45416.34145c-.70424.02134-1.30177-.19206-2.07003-.87496-.14938-.12805-.27742-1.00301-.10671-1.28043.34146-.53351.34146-.70424.64022-.70424.23475,0,1.64321.85362,1.57919,1.32311.02135.32011,0,.93898-.04267,1.53652h0Zm-1.87797.12805c.64022.4268,1.02435.38413,1.83528.29877-.04267.44815-.06402.85362-.06402,1.02435,0,.19206.08536.34146.12804.51217-.4268.14938-.96032.23475-1.36579.44815-.36278-.32011-1.74992-1.2591-.53351-2.28343h0Zm5.31378-7.10639l.76826-.83228c-.87497-.17073-.87497-.1067-1.32312-.51218l.04267-3.99067-.74691-1.10971-.40547.04268-1.72858,1.60054c-.46949.42681-.04267.61888.46949.14938l.8963.55485.04267,3.75592c.08536.44815.49084.59753,1.04568,1.17373l.939-.83227h0Zm-1.34445-13.97802c-.36278-.02134-.8963.64021,1.19506.85362.32011.04267.74693-.72559-1.19506-.85362h0Zm.02135-1.23775c-.34146-.02134-.87497.93898,1.19506.85362.32011-.02135.5762-.76826-1.19506-.85362h0Zm.40547,6.27411l-.8963-.91764-.8963.81094.02135,1.10971.55486.55485h.55486l.66155-.59753v-.96032h-.00002Zm-1.83528-8.55754c-.59753-.42681-1.25908-1.42981-2.73158-1.49384-1.4725-.06402-3.13706,1.28043-3.67057,2.11271-.72557,1.10971.17073,2.07003,1.08837,2.79561-.59753.51218-1.42981,1.30177-2.19807,2.02735.29877.34145,1.98467,1.13104,2.94498,1.10971,1.42981-.04268,2.75293-.76826,3.56386-1.42981,1.49383-1.17373.98166-2.43282-.53351-3.30778-.14938-.08536-.27742-.1067-.4268-.14938.93897-.72559,1.77125-1.38714,1.96332-1.66457h0Zm-3.75593,3.09437c.49084.2134,1.00301.44815,1.55786.76826.7896.44815.38413,1.30177-.46949,1.70724-.87497.40547-2.43282-.72558-2.68891-1.19507.32011-.27742.93899-.74691,1.60054-1.28043h0Zm1.57919-2.11271c-.12804.1067-.51217.40547-.91764.72558-.23475.04268-.49084.06402-.72557.04268-.74691-.1067-1.1097-.66156-1.45115-1.13104-.36278-.46949.55486-.87496,1.02435-.81094.44813.06402,1.47248.61888,2.07001,1.17373h0Zm-6.14606,3.24376c-2.19807.55485-3.22242-1.19507-3.43582-1.66456.87497-.8963,2.39014-2.39013,3.30778-3.13706-.59753-.55485-.85362-1.47249-1.94199-1.55786-.93899.02134-3.13706,1.08836-3.52119,3.86263-.36278,2.66756,2.13405,4.11872,4.11872,4.18274.66155,0,1.49383-.85362,1.8993-1.06702.8963-.42681.5762-.85362-.4268-.61888h0Zm-3.60655-2.19807c-.55486-1.77127-.34146-2.39013.76826-3.26509.25609.61888.87497,1.04569,1.23775,1.25909-.61888.61887-1.60054,1.70724-2.00601,2.006h0Zm-2.51818-1.5792c.38413-.36278-.02135-.64021-.36278-.32011-.25609-.29877-.87497-.93898-1.21641-1.34445-.36278.29877-1.17373.7896-1.64321,1.04569-.36278-.40547-.81093-.40547-1.51517-.98166-.40547.29877-1.28043.96032-1.74992,1.53652.83228.23475,1.47249.29877,1.51517,1.00301.02134.57619-.06402,4.18274-.02134,4.84429.44816.1067,1.003.04268,1.64322.02134.04267-.51218.02135-5.03636.02135-5.52719.23475-.12805.49084-.25608.59753-.38413.25609.19206.7896.96032,1.21641,1.21641.32009-.23475,1.15237-.74691,1.51516-1.10971h0Zm-6.91432,9.3258c-.96032.08536-2.32611,1.19507-2.73158,2.15539-.17073.38413.06402,1.77127.23475,1.92065.12805.1067.2134.19206.32011.27743-.61888.57619-1.21641,1.06702-1.19507,1.94198.02134.83228.6829,1.5792,1.53652,1.96332.44815-.70424,1.17373-1.13104,1.94198-1.30177.06402.66156.2134,1.15239.66156,1.47249.32011-.34145,1.55786-1.42981,1.81395-1.66456.25609-.25608.06402-.55485-.23475-.25608-.19206.17073-.64021-.08536-.76826-.29877,0-.36278,0-4.18274.17073-4.35346-.57621-.61888-1.10972-1.92065-1.74994-1.85662h0Zm.06402,3.88397c-1.06702.6829-1.40847.66156-2.13405-.14938-.36278-.42681-.32011-1.21641-.17073-1.51517.32011-.51218.8963-1.04569,1.17373-1.02434.23475.02134,1.08836,1.04569,1.02434,1.51517.08537.23474.10671.6829.10671,1.17373h0Zm.02135,1.92064v.57619c-.2134.04268-.42681.1067-.72558.23475-.38413-.32011-2.24075-.93898-1.02434-1.8993.74691.42681,1.02434.08536,1.74992-.34145v1.42981h0Zm-.83229-8.10939c-.12805-.17073-.38413-.42681-.38413-.76826,0-.2134.02134-2.51818.02134-2.81695,0-.27743-.53351-.23475-.53351,0-.02134.40547.04268,1.10971-.32011,1.66456-1.00301,1.55786-2.94499,2.21941-4.28944.29877-.46949-.64021-.57619-1.60054-.61888-2.28343-.08536-.91764.59753-2.11271.64021-2.21941,1.72858-2.2621,4.11872-.57619,4.31078.34145.12805.61888.25608,1.36579.25608,1.74992-.02134.25608.55485.23475.55485-.04268s.02134-3.75592.02134-3.99067-.44815-.29877-.46949,0c-.02134.55485-.34145.59753-.76826.46949-.87496-.25608-2.79561-.6829-3.92665-.02134-.98166.57619-2.49683,1.94198-2.4755,3.64922.02134,2.81695,1.08836,3.05169,2.32611,3.81995,1.15239.6829,2.75293.23475,4.22542-.19206.57619-.14938.66156.2134.93898.61888.44817.64021.8323.23475.49085-.27743h0Zm-7.81062,3.99067c-.98166,1.49384-1.51517,3.84129.17073,5.22842.7896.66156,1.45115,1.17373,3.07303.8963.32011-.64021.46949-.85362,1.04569-1.60054-1.10971.17073-1.98467-.02134-2.79561-.64021-1.6859-1.30177-1.15239-3.41448-.66156-4.11872.91764-1.34445,2.19807.57619,2.43282.83228.29877-.36278.81094-.87496,1.32311-1.25909-.49083-.66156-.91764-1.28043-1.25909-1.6859-1.06702.38414-2.64622,1.34446-3.32911,2.34746h0Zm.70424,12.88966c-.36278,2.68891,2.17673,4.2681,3.39314,4.80161.29877-.61888.93898-1.62188,1.53652-2.32611.46949-.53351-.04268-.6829-.46949-.27742-.55485.61888-2.24075.02135-2.66756-.76826.81094-.61888,2.90231-2.3688,3.81995-3.11571-.59753-.57619-1.53652-1.98467-1.6859-2.79561-.83228.57619-3.52119,1.70723-3.92665,4.48149h0Zm2.60354-2.90231c.23475.61888,1.02434,1.81394,1.36579,2.006-.59753.59753-2.09137,1.62187-2.49683,1.89931-.76827-.93899-1.17373-2.49684,1.13104-3.90532h0Zm5.52718-.96032c-.53351.49083-.93898.93898-1.70724,1.55786.36278.40547.96032.91764,1.02434,1.62187.04268.70424.02134,4.01201.06402,4.84429.55485,0,.46949.06402,1.42981.02135-.08536-.55486-.02134-4.84429-.02134-5.46317.36278-.34145.40547-.40547.83228-.70424.29877.25608,1.003.40547,1.003.87496s.12804,2.49683-.02135,3.24375c-.19206.91764-.10671,1.57919.38413,2.49683.38413-.4268,1.77127-1.40848,2.09138-1.64321.29877-.25609.14938-.44815-.23475-.34146-.40547.08536-.49084.17073-.49084-.08536,0-.49084-.19206-2.73158-.23475-4.1614-.04267-1.42981-.74691-1.85662-1.15239-2.04869-.40547.44815-1.32311,1.02434-1.87797,1.49384-.42679-.32009-.61885-1.00298-1.08835-1.70721h0Zm5.76194-3.45717c.49084-.38413.83228-1.02434,1.02435-1.19507.36278-.29877.06402-.61888-.25609-.32011-.25609.23475-.8963-.32011-.93899-.36278-.2134-.25608-.53351-3.52119-.38413-3.5852,0,0,2.07003-.25608,2.34745-.25608.2134.02134.23475-.64021.02135-.66156-.34146,0-1.92065.2134-1.98467.06402-.08536-.34145-.29877-1.51517.2134-2.51818.23475-.42681,0-.85362-.17073-.40547-.19206.44815-1.49383,2.4755-2.32611,2.81695-.6829.27743-.61888.44815-.17073.55485.34146.06402.72557.49083.64022.49083-.06402,1.6859-.23475,3.75592.27742,4.63088.38413.53353,1.28043,1.10972,1.70725.74693h0Zm7.14906.72558c-.25609.51218-.66155.98166-1.42981,1.32311.46949.40547,1.06702.91764,1.45115,1.17373.44815-.51218.87497-.98166,1.38714-1.47249-.51218-.08536-1.10972-.36278-1.40848-1.02434h0Zm-3.28644-1.83528c.66155-.06402,1.72858.34145,2.90231.23475,1.40848-.1067,2.49683-2.28343,1.8993-3.96933-.55486-1.60054-2.34745-1.32311-3.56386-1.70724-1.1097-.29877-1.55786-1.00301-.36278-1.7926,1.42981-.91764,3.17973.55485,3.35046.87496.25609.46949.46949.46949.46949-.14938.04267-1.32311-.08536-.57619-.2134-1.83528-.04267-.44815-.36278-.49083-.40547-.06402-.02135.42681-.55486.29877-.96032.29877s-1.60054-.19206-2.62489.38413c-.66155.38413-2.13405,1.55786-1.30177,2.94499.49084.81094,3.35046,1.49384,4.07604,1.96332.72557.46949.87497,1.66456.19206,2.21941-.85362.6829-3.17973.1067-3.52119-.29877-.46949-.51218-.64022-.93898-.74691-1.55786-.10671-.61888-.61888-.55485-.61888,0s.12804,2.49683.23475,2.94499c.08536.46949.55486.32011.59753-.04268.06402-.34145.29877-.42681.59753-.44816h0Zm-3.00902,5.99668c-.55486.40547.64022.98166.53351.93898.04267,1.6859-.19206,3.41448.36278,4.26811.36278.53351,1.49383.91764,1.6859.40547.19206-.51217,1.04568-1.55786,1.23775-1.72858.36278-.32011.04267-.59753-.25609-.29877-.61888.66155-.96032.36278-1.42981-.08536-.2134-.25609-.29877-2.60354-.14938-2.66756,0,0,1.13104-.17073,1.40848-.17073.2134,0,.19206-.66156-.02135-.66156-.34146,0-1.34445,0-1.40848-.14938-.12804-.32011.19206-1.92065.25609-2.62488.04267-.49083-.2134-.66156-.36278-.19206-.12804.49082-1.21641,2.49683-1.85663,2.96632h0Z"/></g></svg>