<svg id="LOGO" xmlns="http://www.w3.org/2000/svg" xmlns:xlink="http://www.w3.org/1999/xlink" viewBox="0 0 1250 703"><defs><clipPath id="clip-path"><path d="M691.43,324c-5.48,0-7.63-3.25-7.63-3.25-.3-1.5-.81-23.12-1-44.75-.18-22.42,0-44.85,1.1-44.92,6.32-11.86,26.48-35.77,26.48-35.77-37.65,7.42-58.18,32.09-58.18,32.09-6.06-4.78-18.43-4-18.43-4,5.79,3.18,11.58,12.47,11.58,20.16v75.58S632.73,330.33,623,330.33a13.73,13.73,0,0,1-11.25-5.73,15.06,15.06,0,0,1-1.91-3.29V228a8.2,8.2,0,0,1-4.64,1.57c-2.07,0-4.21-1-5.67-4.09-1.09-2.3-1.8-5.74-1.8-10.74,0-17.24,19.48-28.64,19.48-28.64-24.75,6.63-47.65,19.36-78.19,54.36s-24.74,63.92-24.74,63.92,8.42-19.89,28.69-40.84c9.6-9.93,16.78-13.24,21.68-13.26a7.64,7.64,0,0,1,8.07,7.69V329c0,7-4.52,8.54-8.68,8.47a23.5,23.5,0,0,1-6.85-1.3c20.79,30.23,70.55,34.47,70.55,34.47l21.85-23.34.51.44,20,17.06c36.59-21.74,54.23-62.05,54.23-62.05C708,320,697.61,324.06,691.43,324" fill="none" clip-rule="evenodd"/></clipPath><clipPath id="clip-path-2"><rect x="328.04" y="-49.94" width="1289.28" height="859.52" fill="none"/></clipPath><clipPath id="clip-path-3"><path d="M624.79,132.14A143.72,143.72,0,0,1,727.49,175a147.37,147.37,0,0,1,0,207.14,144.38,144.38,0,0,1-205.4,0,147.35,147.35,0,0,1,0-207.14,143.7,143.7,0,0,1,102.7-42.9m0-6.74c-83.9,0-151.92,68.59-151.92,153.21s68,153.21,151.92,153.21,151.92-68.59,151.92-153.21-68-153.21-151.92-153.21" fill="none" clip-rule="evenodd"/></clipPath><clipPath id="clip-path-5"><polygon points="548.11 558.26 515.6 558.26 515.6 528.45 547.6 528.45 547.6 535.04 524.31 535.04 524.31 540.11 546.37 540.11 546.37 546.34 524.31 546.34 524.31 551.48 548.11 551.48 548.11 558.26" fill="none" clip-rule="evenodd"/></clipPath><clipPath id="clip-path-7"><polygon points="592.26 558.26 579.11 558.26 561.79 535.96 561.62 535.96 561.62 558.26 552.99 558.26 552.99 528.45 566.36 528.45 583.46 550.77 583.63 550.77 583.63 528.45 592.26 528.45 592.26 558.26" fill="none" clip-rule="evenodd"/></clipPath><clipPath id="clip-path-9"><path d="M617.64,558.6q-4.14,0-7.15-.2a26.94,26.94,0,0,1-5.1-.78A9.62,9.62,0,0,1,602,556a6.68,6.68,0,0,1-2-2.65,13.5,13.5,0,0,1-1-4,51.76,51.76,0,0,1-.25-5.52V543a52.11,52.11,0,0,1,.26-5.55,13.53,13.53,0,0,1,1-4,6.89,6.89,0,0,1,2-2.65,9.87,9.87,0,0,1,3.42-1.57,27.15,27.15,0,0,1,5.11-.75q3-.19,7.1-.19H619q3.45,0,6,.15a30.78,30.78,0,0,1,4.45.54,11,11,0,0,1,3.07,1.07,5.51,5.51,0,0,1,1.91,1.73,6.78,6.78,0,0,1,1,2.52,19,19,0,0,1,.27,3.42v1.14h-8.45v-.36a4.11,4.11,0,0,0-.32-1.71,2.33,2.33,0,0,0-1.23-1.1,8.87,8.87,0,0,0-2.6-.59c-1.11-.11-2.58-.17-4.4-.17H618c-1.66,0-3.07,0-4.24.09a16,16,0,0,0-2.91.37,4.89,4.89,0,0,0-1.85.82,3.11,3.11,0,0,0-1,1.44,8.41,8.41,0,0,0-.43,2.26c-.06.9-.1,2-.1,3.24v.53c0,1.24,0,2.29.1,3.17a8.09,8.09,0,0,0,.43,2.22,3.08,3.08,0,0,0,1,1.43,4.89,4.89,0,0,0,1.85.82,16,16,0,0,0,2.91.37c1.17.06,2.58.09,4.24.09h.73c1.35,0,2.5,0,3.48-.08s1.79-.13,2.45-.23a6.09,6.09,0,0,0,1.6-.45,2.31,2.31,0,0,0,1.36-1.74,7.91,7.91,0,0,0,.1-1.37v-.83H616.26v-5.75H636V548a22,22,0,0,1-.29,3.77,7.8,7.8,0,0,1-1,2.81,6.05,6.05,0,0,1-2,1.95,10.26,10.26,0,0,1-3.12,1.23,28.23,28.23,0,0,1-4.53.65q-2.64.2-6.15.19Z" fill="none" clip-rule="evenodd"/></clipPath><clipPath id="clip-path-11"><rect x="417" y="459.81" width="416" height="98.79" fill="none"/></clipPath><clipPath id="clip-path-13"><rect x="657.24" y="528.52" width="78.22" height="30.08" fill="none"/></clipPath><clipPath id="clip-path-14"><polygon points="696.19 558.26 683.18 558.26 666.05 536.13 665.88 536.13 665.88 558.26 657.34 558.26 657.34 528.68 670.57 528.68 687.49 550.83 687.66 550.83 687.66 528.68 696.19 528.68 696.19 558.26" fill="none" clip-rule="evenodd"/></clipPath><clipPath id="clip-path-15"><rect x="417" y="459.75" width="416.01" height="98.85" fill="none"/></clipPath><clipPath id="clip-path-16"><polygon points="735.29 558.26 703.12 558.26 703.12 528.68 734.78 528.68 734.78 535.22 711.74 535.22 711.74 540.25 733.57 540.25 733.57 546.43 711.74 546.43 711.74 551.53 735.29 551.53 735.29 558.26" fill="none" clip-rule="evenodd"/></clipPath><clipPath id="clip-path-18"><path d="M448.2,512.55c-4.23,0-7.93-.12-11.12-.34a52.48,52.48,0,0,1-8.24-1.16,19.37,19.37,0,0,1-5.74-2.23,11.25,11.25,0,0,1-3.64-3.52,14.14,14.14,0,0,1-1.9-5,36.86,36.86,0,0,1-.56-6.81V459.81h15.34v28.67c0,1.77.06,3.29.19,4.57a10.71,10.71,0,0,0,.76,3.25,5.29,5.29,0,0,0,1.64,2.17,8,8,0,0,0,2.86,1.29,21.9,21.9,0,0,0,4.37.62q2.59.15,6.19.15h1.29c2.4,0,4.46,0,6.19-.17a24.33,24.33,0,0,0,4.37-.62,7.36,7.36,0,0,0,2.86-1.29,5.53,5.53,0,0,0,1.65-2.17,11.1,11.1,0,0,0,.76-3.25c.12-1.29.18-2.8.18-4.55V459.81H481v33.65a39,39,0,0,1-.52,6.79,13.77,13.77,0,0,1-1.85,5.05,11.09,11.09,0,0,1-3.59,3.52,19.3,19.3,0,0,1-5.73,2.23,52.52,52.52,0,0,1-8.28,1.16c-3.21.22-6.95.34-11.23.34Z" fill="none" clip-rule="evenodd"/></clipPath><clipPath id="clip-path-20"><polygon points="559.92 511.95 536.98 511.95 506.78 472.94 506.48 472.94 506.48 511.95 491.44 511.95 491.44 459.81 514.75 459.81 544.58 498.85 544.87 498.85 544.87 459.81 559.92 459.81 559.92 511.95" fill="none" clip-rule="evenodd"/></clipPath><clipPath id="clip-path-22"><path d="M632.13,512H617v-4.23a34.19,34.19,0,0,0-.19-3.93A7.78,7.78,0,0,0,616,501a4.72,4.72,0,0,0-1.66-1.83,8.35,8.35,0,0,0-2.84-1.07,28.35,28.35,0,0,0-4.33-.51c-1.72-.08-3.76-.13-6.13-.13H585.7V512H570.51V459.81H611a57.93,57.93,0,0,1,10.48.78,15.22,15.22,0,0,1,6.49,2.64,9.45,9.45,0,0,1,3.27,4.91,26.57,26.57,0,0,1,.91,7.54v1.83a26.49,26.49,0,0,1-.48,5.37,11.53,11.53,0,0,1-1.56,4,9,9,0,0,1-2.77,2.75,13.24,13.24,0,0,1-4.19,1.65v.3a22.49,22.49,0,0,1,4.5,1.14,6.11,6.11,0,0,1,2.76,2.06,8.17,8.17,0,0,1,1.37,3.57,35,35,0,0,1,.37,5.65Zm-27.31-25.83c2.65,0,4.75-.08,6.32-.24a8.5,8.5,0,0,0,3.58-1,3.57,3.57,0,0,0,1.59-2.14,14.08,14.08,0,0,0,.37-3.61v-.9a13.9,13.9,0,0,0-.37-3.57,3.39,3.39,0,0,0-1.61-2.1,9.19,9.19,0,0,0-3.6-1c-1.56-.16-3.66-.24-6.28-.24H585.7v14.78Z" fill="none" clip-rule="evenodd"/></clipPath><clipPath id="clip-path-24"><polygon points="698.83 511.95 642.14 511.95 642.14 459.81 697.94 459.81 697.94 471.34 657.33 471.34 657.33 480.21 695.79 480.21 695.79 491.1 657.33 491.1 657.33 500.08 698.83 500.08 698.83 511.95" fill="none" clip-rule="evenodd"/></clipPath><clipPath id="clip-path-26"><path d="M777.16,512H760.6l-4.78-9.36H723.28l-4.7,9.36H702.16l28-52.14H749ZM750.3,491.7l-10.64-20.93h-.37L728.73,491.7Z" fill="none" clip-rule="evenodd"/></clipPath><clipPath id="clip-path-28"><polygon points="833 511.95 782.75 511.95 782.75 459.81 798.1 459.81 798.1 499.82 833 499.82 833 511.95" fill="none" clip-rule="evenodd"/></clipPath><clipPath id="clip-path-30"><rect x="642.06" y="528.68" width="8.75" height="29.58" fill="none"/></clipPath></defs><title>unreal-engine-logo</title><g clip-path="url(#clip-path)"><g clip-path="url(#clip-path-2)"><rect x="511.68" y="183.91" width="214.81" height="188.88" fill="#2e2e2c"/></g></g><g clip-path="url(#clip-path-3)"><g clip-path="url(#clip-path-2)"><rect x="470.72" y="123.25" width="308.14" height="310.72" fill="#2e2e2c"/></g></g><g clip-path="url(#clip-path-5)"><g clip-path="url(#clip-path-2)"><rect x="513.45" y="526.3" width="36.81" height="34.11" fill="#2e2e2c"/></g></g><g clip-path="url(#clip-path-7)"><g clip-path="url(#clip-path-2)"><rect x="550.85" y="526.3" width="43.56" height="34.11" fill="#2e2e2c"/></g></g><g clip-path="url(#clip-path-9)"><g clip-path="url(#clip-path-2)"><rect x="596.55" y="526.19" width="41.61" height="34.56" fill="#2e2e2c"/></g></g><g clip-path="url(#clip-path-11)"><g clip-path="url(#clip-path-2)"><g style="isolation:isolate"><g clip-path="url(#clip-path-13)"><g clip-path="url(#clip-path-14)"><g clip-path="url(#clip-path-15)"><rect x="655.19" y="526.53" width="43.15" height="33.88" fill="#2e2e2c"/></g></g><g clip-path="url(#clip-path-16)"><g clip-path="url(#clip-path-15)"><rect x="700.98" y="526.53" width="36.46" height="33.88" fill="#2e2e2c"/></g></g></g></g></g></g><g clip-path="url(#clip-path-18)"><g clip-path="url(#clip-path-2)"><rect x="414.85" y="457.66" width="68.29" height="57.04" fill="#2e2e2c"/></g></g><g clip-path="url(#clip-path-20)"><g clip-path="url(#clip-path-2)"><rect x="489.29" y="457.66" width="72.77" height="56.44" fill="#2e2e2c"/></g></g><g clip-path="url(#clip-path-22)"><g clip-path="url(#clip-path-2)"><rect x="568.36" y="457.66" width="65.92" height="56.44" fill="#2e2e2c"/></g></g><g clip-path="url(#clip-path-24)"><g clip-path="url(#clip-path-2)"><rect x="639.99" y="457.66" width="60.99" height="56.44" fill="#2e2e2c"/></g></g><g clip-path="url(#clip-path-26)"><g clip-path="url(#clip-path-2)"><rect x="700.02" y="457.66" width="79.29" height="56.44" fill="#2e2e2c"/></g></g><g clip-path="url(#clip-path-28)"><g clip-path="url(#clip-path-2)"><rect x="780.61" y="457.66" width="54.54" height="56.44" fill="#2e2e2c"/></g></g><g clip-path="url(#clip-path-30)"><g clip-path="url(#clip-path-2)"><rect x="639.91" y="526.53" width="13.04" height="33.88" fill="#2e2e2c"/></g></g></svg>