<?xml version="1.0" encoding="UTF-8"?><svg id="LOGO" xmlns="http://www.w3.org/2000/svg" viewBox="0 0 1250 703"><defs><style>.cls-1{fill:#007bc0;stroke-width:0px;}</style></defs><path class="cls-1" d="m417.26777,312.80203c9.08077,0,14.08448-4.63305,14.08448-13.15786v-20.38542h-7.41288v20.38542c0,5.0037-1.85322,7.04223-6.6716,7.04223-5.74499,0-6.6716-3.52112-6.6716-7.04223v-20.38542h-7.41288v20.38542c.18533,8.52481,5.00372,13.15786,14.08448,13.15786Z"/><polygon class="cls-1" points="461.18908 300.94142 447.66057 279.07342 447.66057 279.07342 440.43302 279.07342 440.43302 312.06073 447.28993 312.06073 447.28993 290.19274 460.81844 311.87542 460.81844 312.06073 468.23132 312.06073 468.23132 279.07342 461.18908 279.07342 461.18908 300.94142"/><rect class="cls-1" x="479.72128" y="279.07342" width="7.41288" height="32.80199"/><polygon class="cls-1" points="505.66636 312.06073 514.00585 312.06073 524.75453 279.25874 524.93986 279.07342 517.15632 279.07342 509.92877 302.05335 502.70122 279.07342 495.10301 279.07342 505.66636 311.87542 505.66636 312.06073"/><polygon class="cls-1" points="557.37121 305.75979 539.76562 305.75979 539.76562 297.97627 555.51799 297.97627 555.51799 292.04596 539.76562 292.04596 539.76562 285.37437 557.00054 285.37437 557.00054 279.07342 532.35274 279.07342 532.35274 312.06073 557.37121 312.06073 557.37121 305.75979"/><path class="cls-1" d="m573.67952,299.27352h7.04224c3.3358,0,4.81838,1.29726,5.37433,4.81837.18533.92661.18533,1.85322.18533,2.59451.18533,1.85322.37064,3.70644.92661,5.18901h7.41288l-.18533-.18532c-1.11194-1.48257-1.11194-4.44773-1.29725-6.48627v-1.11193c-.37064-4.2624-1.85322-6.85692-4.63305-7.5982,3.3358-1.48257,5.00369-4.2624,5.00369-8.15417,0-5.37434-4.07708-9.08078-9.63674-9.08078h-17.79092v32.61667h7.41288l.18533-12.60189h0Zm0-14.45512h7.78352c3.3358,0,4.81838,1.48257,4.81838,4.44773,0,3.15048-1.48258,4.63305-4.81838,4.63305h-7.78352v-9.08078Z"/><path class="cls-1" d="m614.45036,312.80203c8.52482,0,13.71382-4.07709,13.71382-10.56336,0-7.22756-6.85691-8.89545-9.45143-9.63675l-1.11194-.18532c-7.59821-1.85322-8.89546-2.22387-8.89546-4.63305,0-2.59451,2.5945-3.52112,4.81838-3.52112,4.07708,0,6.11563,1.48257,6.30094,4.81837v.18532h7.22755v-.18532c0-6.67159-5.00369-10.56335-13.15787-10.56335-6.11563,0-12.23126,3.52112-12.23126,10.00739,0,6.30095,5.00369,8.15417,9.82207,9.45142.74128.18532,1.48258.37065,2.03855.55596,4.07708.92661,7.59821,1.85322,7.59821,4.81837,0,3.70644-4.81838,3.89176-6.30094,3.89176-4.44772,0-7.04224-2.22387-7.04224-5.93031v-.18532h-7.22755v.18532c0,3.15048.92661,5.74498,2.96516,7.78353,2.40922,2.22387,6.30096,3.70644,10.93401,3.70644Z"/><rect class="cls-1" x="637.245" y="279.07342" width="7.41288" height="32.80199"/><polygon class="cls-1" points="661.15153 312.06073 668.56441 312.06073 668.56441 285.37437 678.38645 285.37437 678.38645 279.07342 651.32943 279.07342 651.32943 285.37437 661.15153 285.37437 661.15153 312.06073"/><path class="cls-1" d="m678.20112,312.06073h7.59821l2.5945-7.22756h12.04593l2.40916,7.22756h7.59821l-12.23126-32.80199h-7.59821l-12.41654,32.80199h0Zm11.86065-12.97254l4.07711-11.67529,4.07711,11.67528s-8.15421,0-8.15421,0Z"/><polygon class="cls-1" points="720.26923 312.06073 727.68211 312.06073 727.68211 285.37437 737.50416 285.37437 737.50416 279.07342 710.63247 279.07342 710.63247 285.37437 720.26923 285.37437 720.26923 312.06073"/><path class="cls-1" d="m765.48779,300.20013h7.41288c8.33949,0,11.48999-5.37434,11.48999-10.56336s-2.96516-10.56336-11.48999-10.56336h-14.82576v32.80199h7.41288v-11.67528Zm0-15.38173h5.55966c3.1505,0,6.30094.55596,6.30094,4.81837s-3.1505,4.81837-6.30094,4.81837h-5.55966v-9.63675Z"/><path class="cls-1" d="m804.22007,312.80203c9.45143,0,16.12304-7.04223,16.12304-17.04962,0-10.37803-6.48627-17.42027-16.12304-17.42027s-16.12304,7.04223-16.12304,17.42027c.00006,10.00739,6.67166,17.04962,16.12304,17.04962Zm-8.7101-17.04962c0-2.59451.55594-11.11932,8.71016-11.11932s8.71016,8.52481,8.71016,11.11932c0,5.18901-2.22389,10.74867-8.71016,10.74867-6.48633,0-8.71016-5.55966-8.71016-10.74867Z"/><polygon class="cls-1" points="834.42759 279.07342 827.01471 279.07342 827.01471 312.06073 850.17996 312.06073 850.17996 305.75979 834.42759 305.75979 834.42759 279.07342"/><rect class="cls-1" x="856.66623" y="279.07342" width="7.41288" height="32.80199"/><polygon class="cls-1" points="871.30666 285.37437 881.1287 285.37437 881.1287 312.06073 888.35631 312.06073 888.35631 285.37437 898.17835 285.37437 898.17835 279.07342 871.30666 279.07342 871.30666 285.37437"/><polygon class="cls-1" points="912.26283 297.97627 928.0152 297.97627 928.0152 292.04596 912.26283 292.04596 912.26283 285.37437 929.49775 285.37437 929.49775 279.07342 904.84995 279.07342 904.84995 312.06073 929.86842 312.06073 929.86842 305.75979 912.26283 305.75979 912.26283 297.97627"/><polygon class="cls-1" points="920.41699 276.29359 915.78394 269.622 908.37106 269.622 915.59861 276.29359 920.41699 276.29359"/><path class="cls-1" d="m958.77866,299.27352c-.55594,4.63305-3.33577,7.22756-7.22755,7.22756-6.48627,0-8.71016-5.55966-8.71016-10.74868,0-2.59451.55594-11.11932,8.71016-11.11932,3.52111,0,6.6716,2.40918,7.04221,5.55966h7.22755v-.18532c-.74128-7.22756-6.48627-11.86061-14.26982-11.86061-9.63677,0-16.12304,7.04223-16.12304,17.42027,0,10.00739,6.6716,17.04962,16.12304,17.04962,7.96882,0,13.71382-5.37434,14.45509-13.5285v-.18532l-7.22749.37065h0Z"/><polygon class="cls-1" points="993.24851 300.94142 979.72003 279.07342 979.72003 279.07342 972.30715 279.07342 972.30715 312.06073 979.34936 312.06073 979.34936 290.19274 992.8779 311.87542 992.8779 312.06073 1000.10545 312.06073 1000.10545 279.07342 993.24851 279.07342 993.24851 300.94142"/><rect class="cls-1" x="1010.66882" y="279.07342" width="7.41288" height="32.80199"/><path class="cls-1" d="m1049.40111,299.27352c-.55594,4.63305-3.33577,7.22756-7.22755,7.22756-6.48627,0-8.71016-5.55966-8.71016-10.74868,0-2.59451.55594-11.11932,8.71016-11.11932,3.52111,0,6.48627,2.40918,7.04221,5.55966h7.22755v-.18532c-.74128-7.22756-6.48627-11.86061-14.26982-11.86061-9.63677,0-16.12304,7.04223-16.12304,17.42027,0,10.00739,6.6716,17.04962,16.12304,17.04962,7.96882,0,13.71382-5.37434,14.45509-13.5285v-.18532l-7.22749.37065h0Z"/><path class="cls-1" d="m1079.23796,279.07342h-7.59821l-12.4166,32.80199v.18532h7.41288l2.5945-7.22756h12.04593l2.40916,7.22756h7.59821l-12.04587-32.98731Zm0,20.01478h-8.15416l4.07711-11.67529,4.07705,11.67529Z"/><path class="cls-1" d="m417.63841,334.85535h-14.26979v32.802h14.26979c9.2661,0,15.01109-6.30095,15.01109-16.67898,0-10.19272-5.74499-16.12302-15.01109-16.12302Zm-6.85691,6.11562h5.00369c6.48627,0,9.2661,3.33579,9.2661,10.74867,0,6.11562-2.96516,9.63675-7.96885,9.63675h-6.30094v-20.38542Z"/><polygon class="cls-1" points="446.54865 353.57286 462.30102 353.57286 462.30102 347.82789 446.54865 347.82789 446.54865 340.97097 463.7836 340.97097 463.7836 334.85535 439.13577 334.85535 439.13577 367.65733 464.15424 367.65733 464.15424 361.35639 446.54865 361.35639 446.54865 353.57286"/><path class="cls-1" d="m514.19118,355.05544h0l-7.22755-.18532h0c-.55597,4.63305-3.3358,7.22756-7.22755,7.22756-6.48627,0-8.71013-5.55966-8.71013-10.74867,0-2.59451.55597-11.11932,8.71013-11.11932,3.52111,0,6.6716,2.40918,7.04224,5.55966h7.22755v-.18532c-.74128-7.22756-6.48627-11.86061-14.26979-11.86061-9.63674,0-16.12301,7.04223-16.12301,17.42027,0,10.00739,6.6716,17.04962,16.12301,17.04962,7.96882.18532,13.71379-5.0037,14.45509-13.15787Z"/><path class="cls-1" d="m548.47575,367.65733l-12.23126-32.80199h-7.59821l-12.23123,32.61668v.18532h7.41288l2.5945-7.22756h12.04593l2.40919,7.22756h7.59821Zm-12.04593-12.78721h-8.15416l4.07708-11.67528,4.07708,11.67528Z"/><polygon class="cls-1" points="575.71808 334.85535 548.66105 334.85535 548.66105 340.97097 558.48313 340.97097 558.48313 367.65733 565.89601 367.65733 565.89601 340.97097 575.71808 340.97097 575.71808 334.85535"/><path class="cls-1" d="m575.16211,367.47201h0l7.41288.18532,2.5945-7.22756h12.04593l2.40919,7.22756h7.59821l-12.04593-32.80199h-7.59821l-12.41657,32.61667Zm11.86062-12.60189l4.07708-11.67528,4.07708,11.67528h-8.15416Z"/><polygon class="cls-1" points="612.59714 334.85535 612.59714 367.65733 635.94773 367.65733 635.94773 361.35639 620.01002 361.35639 620.01002 334.85535 612.59714 334.85535"/><path class="cls-1" d="m659.85425,355.24077c0,5.0037-1.85322,7.04223-6.6716,7.04223-5.93033,0-6.6716-3.52112-6.6716-7.04223v-20.38542h-7.41288v20.38542c0,8.71014,4.81838,13.15786,14.08448,13.15786,9.08077,0,14.08448-4.63305,14.08448-13.15786v-20.38542h-7.41288v20.38542Z"/><polygon class="cls-1" points="697.84526 356.53801 684.31678 334.85535 684.31678 334.85535 676.9039 334.85535 676.9039 367.65733 683.94611 367.65733 683.94611 345.97467 697.28932 367.65733 697.47465 367.65733 704.7022 367.65733 704.7022 334.85535 697.84526 334.85535 697.84526 356.53801"/><polygon class="cls-1" points="741.2106 334.85535 741.2106 334.85535 733.05644 334.85535 725.45823 347.64256 717.86007 334.85535 709.52058 334.85535 721.56651 354.87012 721.56651 367.65733 728.97939 367.65733 728.97939 355.05544 741.2106 334.85535"/><path class="cls-1" d="m771.78873,367.65733l-12.23126-32.80199h-7.59821l-12.41654,32.61668v.18532h7.41288l2.5945-7.22756h12.04593l2.40916,7.22756h7.78355Zm-12.23121-12.78721h-8.15416l4.07711-11.67528,4.07705,11.67528Z"/><path class="cls-1" d="m423.56871,405.83366c1.48258-.55597,2.5945-1.48258,3.52111-2.77983s1.29725-2.77983,1.29725-4.63305c0-1.6679-.37064-3.15047-1.11194-4.26241-.74128-1.11193-1.66789-2.03854-2.77983-2.59451-.55597-.37064-1.11194-.55597-1.85322-.74129s-1.48258-.18532-2.22386-.37064c-.74128,0-1.66789-.18532-2.40919-.18532h-14.26979v32.802h15.9377c1.66789,0,3.15047-.18532,4.26241-.74129,1.29725-.55597,2.22386-1.29725,3.15047-2.03854.92661-.92661,1.48258-1.85322,1.85322-2.96515s.55597-2.22386.55597-3.52112c0-2.03854-.55597-3.70644-1.66789-5.18902-.74128-1.29725-2.22386-2.22386-4.26241-2.77983Zm-15.1964,2.40919h9.82207c.92661,0,1.85322,0,2.5945.18532s1.66789.37064,2.22386.92661c.55597.37064,1.11194.92661,1.48258,1.6679s.55597,1.48258.55597,2.59451c0,1.85322-.55597,3.15047-1.66789,4.26241-1.11194.92661-2.5945,1.48258-4.44772,1.48258h-10.74868v-11.11933h.18531Zm13.89915-5.00369c-1.11194.92661-2.77983,1.29725-5.18902,1.29725h-8.52482v-10.19271h8.52482c.92661,0,1.85322,0,2.5945.18532s1.48258.37064,2.22386.74129c.55597.37064,1.11194.92661,1.48258,1.48258s.55597,1.48258.55597,2.77983c-.18531,1.48257-.55594,2.77983-1.66789,3.70644Z"/><path class="cls-1" d="m445.99268,390.45194l-12.78721,32.802h4.63305l3.70644-9.82207h13.71382l3.52111,9.82207h5.00369l-12.78721-32.80199h-5.00369Zm7.78352,19.08816h-10.74868l5.37433-15.01108,5.37435,15.01108Z"/><path class="cls-1" d="m495.28834,421.21539c-.18533-.74129-.37064-1.48258-.55597-2.22386s-.18533-1.6679-.18533-2.40919,0-1.6679-.18533-2.40919-.18533-1.48258-.37064-2.22386c-.18533-.74129-.37064-1.48258-.74128-2.03854-.37064-.55597-.92661-1.11193-1.48258-1.48258-.55597-.37064-1.29725-.74129-2.03855-.92661,1.85322-.55597,3.3358-1.6679,4.07708-2.96515.92661-1.48258,1.29725-3.3358,1.29725-5.18902,0-2.59451-.92661-4.81837-2.5945-6.30095-1.85322-1.48258-4.26241-2.22386-7.41288-2.22386h-15.38173v32.802h4.63305v-13.89915h10.56335c1.11194,0,1.85322.18532,2.5945.55597s1.11194.74129,1.48258,1.29725c.37064.55597.74128,1.11193.92661,1.85322s.37064,1.48258.37064,2.22386c.18533.74129.18533,1.6679.18533,2.40919v2.40919c0,.74129.18533,1.29725.18533,2.03854.18533.55597.37064,1.11193.55597,1.48258h5.18902l-.18533-.18532c-.37064-1.29728-.74128-1.85323-.92658-2.59452Zm-20.94139-26.87169h10.74868c2.03855,0,3.52111.55597,4.44772,1.48258s1.29725,2.40919,1.29725,3.89176c0,1.11193-.18533,2.03854-.55597,2.77983s-.92661,1.29725-1.66789,1.6679c-.74128.37064-1.48258.74129-2.40919.92661s-1.85322.18532-2.77983.18532h-8.89546l-.18531-10.934h0Z"/><path class="cls-1" d="m528.09033,410.83736c0,1.29725-.37064,2.59451-.74128,3.70644s-1.11194,2.22386-1.85322,2.96515-1.66789,1.48258-2.77983,1.85322-2.40919.74129-3.70644.74129c-1.85322,0-3.52111-.37064-5.00369-1.11193-1.29725-.74129-2.5945-1.6679-3.3358-2.96515-.92661-1.29725-1.48258-2.59451-2.03855-4.26241-.37064-1.6679-.55597-3.3358-.55597-5.18902,0-1.6679.18533-3.3358.55597-5.00369.37064-1.48258,1.11194-2.96515,2.03855-4.26241.92661-1.29725,2.03855-2.22386,3.3358-2.96515s2.96516-1.11193,5.00369-1.11193c2.22386,0,4.26241.55597,5.9303,1.6679s2.77983,2.96515,3.15047,5.18902h4.63305v-.18532c-.18533-1.6679-.74128-3.3358-1.48258-4.63305-.74128-1.29725-1.85322-2.40919-2.96516-3.3358-1.11194-.92661-2.5945-1.48258-4.07708-2.03854-1.48258-.37064-3.15047-.74129-4.81838-.74129-2.5945,0-4.81838.37064-6.6716,1.29725-1.85322.92661-3.52111,2.22386-4.81838,3.70644-1.29725,1.48258-2.22386,3.3358-2.96516,5.55966-.74128,2.03854-.92661,4.44773-.92661,6.67159,0,2.40919.37064,4.63305.92661,6.67159s1.66789,3.89176,2.77983,5.37434c1.29725,1.48258,2.77983,2.77983,4.81838,3.70644,1.85322.92661,4.07708,1.29725,6.6716,1.29725,4.26241,0,7.59821-1.11193,10.00738-3.52112,2.40919-2.22386,3.89177-5.55966,4.26241-9.63674v-.18532l-5.3743.74129h0Z"/><polygon class="cls-1" points="544.95461 408.24285 562.00426 408.24285 562.00426 404.53641 544.95461 404.53641 544.95461 394.3437 563.30151 394.3437 563.30151 390.45194 540.5069 390.45194 540.5069 423.25393 563.30151 423.25393 563.30151 419.36217 544.95461 419.36217 544.95461 408.24285"/><polygon class="cls-1" points="576.83002 390.45194 572.19697 390.45194 572.19697 423.25393 594.06494 423.25393 594.06494 419.36217 576.83002 419.36217 576.83002 390.45194"/><path class="cls-1" d="m623.16052,394.89967c-1.29725-1.6679-2.96516-2.96515-5.00369-3.89176-2.03855-.92661-4.26241-1.48258-6.85691-1.48258s-4.81838.55597-6.85691,1.48258c-2.03855.92661-3.52111,2.22386-5.00369,3.89176-1.29725,1.6679-2.22386,3.52112-2.96516,5.55966-.74128,2.03854-.92661,4.26241-.92661,6.48627s.37064,4.44773.92661,6.48627c.74128,2.03854,1.66789,3.89176,2.96516,5.55966,1.29725,1.6679,2.96516,2.77983,5.00369,3.89176,2.03855.92661,4.26241,1.48258,6.85691,1.48258s4.81838-.55597,6.85691-1.48258c2.03855-.92661,3.52111-2.22386,5.00369-3.89176,1.29725-1.6679,2.22386-3.52112,2.96516-5.55966.74128-2.03854.92661-4.26241.92661-6.48627s-.37064-4.44773-.92661-6.48627c-.556-2.22387-1.66791-4.07709-2.96516-5.55966Zm-11.67529,25.20379c-2.03855,0-3.70644-.37064-5.00369-1.11193-1.48258-.74129-2.5945-1.85322-3.52111-3.15047s-1.48258-2.77983-2.03855-4.26241c-.37064-1.6679-.55597-3.15047-.55597-4.81837s.18533-3.3358.55597-4.81837c.37064-1.6679,1.11194-2.96515,2.03855-4.26241.92661-1.29725,2.03855-2.22386,3.52111-3.15047,1.48258-.74129,3.15047-1.11193,5.00369-1.11193,2.03855,0,3.70644.37064,5.00369,1.11193,1.48258.74129,2.5945,1.85322,3.52111,3.15047s1.66789,2.77983,2.03855,4.26241c.37064,1.48258.55597,3.15047.55597,4.81837s-.18533,3.3358-.55597,4.81837c-.37064,1.6679-1.11194,2.96515-2.03855,4.26241-.92661,1.29725-2.03855,2.22386-3.52111,3.15047-1.48258.74128-3.15047,1.11193-5.00369,1.11193Z"/><polygon class="cls-1" points="657.44509 416.76766 640.21011 390.45194 640.21011 390.45194 635.39178 390.45194 635.39178 423.25393 639.8395 423.25393 639.8395 397.12353 656.70381 423.25393 661.70747 423.25393 661.70747 390.45194 657.44509 390.45194 657.44509 416.76766"/><path class="cls-1" d="m680.98095,390.45194l-12.78721,32.802h4.63305l3.70644-9.82207h13.71382l3.52111,9.82207h5.00372l-12.78721-32.802h-5.00372Zm7.78355,19.08816h-10.74865l5.37433-15.01108,5.37433,15.01108Z"/><polygon class="cls-1" points="700.25448 396.75289 710.07652 396.75289 710.07652 423.25393 717.4894 423.25393 717.4894 396.75289 727.31145 396.75289 727.31145 390.45194 700.25448 390.45194 700.25448 396.75289"/><polygon class="cls-1" points="740.65465 409.16946 756.59236 409.16946 756.59236 403.42448 740.65465 403.42448 740.65465 396.75289 757.88958 396.75289 757.88958 390.45194 733.24177 390.45194 733.24177 423.25393 758.26024 423.25393 758.26024 416.95298 740.65465 416.95298 740.65465 409.16946"/><path class="cls-1" d="m787.35582,410.65204c-.55594,4.63305-3.33577,7.22756-7.22755,7.22756-6.48627,0-8.71016-5.55966-8.71016-10.74868,0-2.59451.55594-11.11932,8.71016-11.11932,3.52111,0,6.48627,2.40919,7.04221,5.55966h7.22755v-.18532c-.74128-7.22756-6.48627-11.86061-14.26982-11.86061-9.63677,0-16.12304,7.04224-16.12304,17.42027,0,10.00739,6.6716,17.04962,16.12304,17.04962,7.96882,0,13.71382-5.18902,14.45509-13.52851v-.18532l-7.22749.37065h0Z"/><polygon class="cls-1" points="820.15778 402.86851 807.18524 402.86851 807.18524 390.45194 799.77236 390.45194 799.77236 423.25393 807.18524 423.25393 807.18524 409.16946 820.15778 409.16946 820.15778 423.25393 827.57066 423.25393 827.57066 390.45194 820.15778 390.45194 820.15778 402.86851"/><path class="cls-1" d="m264.37712,396.93821h-3.89176v7.96885h3.89176c2.59451,0,3.52112-2.03854,3.52112-4.07708,0-2.22387-.74129-3.89177-3.52112-3.89177Zm-2.40918-148.07228c-56.52321,0-102.29774,45.77453-102.29774,102.29774s45.77453,102.29774,102.29774,102.29774,102.29774-45.77454,102.29774-102.29774c.18532-56.52321-45.77454-102.29774-102.29774-102.29774Zm.55596,28.91023c8.15417,0,14.64044,6.48627,14.64044,14.64044s-6.48627,14.64044-14.64044,14.64044-14.64044-6.48627-14.64044-14.64044,6.48627-14.64044,14.64044-14.64044Zm0,34.65521c8.15417,0,14.64044,6.48627,14.64044,14.64044s-6.48627,14.64044-14.64044,14.64044-14.64044-6.48627-14.64044-14.64044,6.48627-14.64044,14.64044-14.64044Zm-35.58182-34.65521c8.15417,0,14.64044,6.48627,14.64044,14.64044s-6.48627,14.64044-14.64044,14.64044-14.64044-6.48627-14.64044-14.64044,6.48627-14.64044,14.64044-14.64044Zm0,34.65521c8.15417,0,14.64044,6.48627,14.64044,14.64044s-6.48627,14.64044-14.64044,14.64044-14.64044-6.48627-14.64044-14.64044,6.48627-14.64044,14.64044-14.64044Zm0,35.58182c8.15417,0,14.64044,6.48627,14.64044,14.64044s-6.48627,14.64044-14.64044,14.64044-14.64044-6.48627-14.64044-14.64044,6.48627-14.64044,14.64044-14.64044Zm17.23494,62.08287c0,3.52112-.18532,7.96885-4.81837,11.30464-3.15048,2.22386-6.67159,2.59451-10.00739,2.59451s-6.85692-.37064-10.00739-2.59451c-4.63305-3.3358-4.81837-7.78352-4.81837-11.30464v-20.57074h9.82207v20.57074c0,2.03854.18532,3.52112,1.6679,4.63305,1.11193.92661,1.85322,1.11193,3.33579,1.11193,1.29726,0,2.22387-.37064,3.33579-1.11193,1.48257-1.29725,1.6679-2.77983,1.6679-4.63305v-20.57074h9.82206v20.57074h0Zm18.34688-62.08287c8.15417,0,14.64044,6.48627,14.64044,14.64044s-6.48627,14.64044-14.64044,14.64044-14.64044-6.48627-14.64044-14.64044,6.48627-14.64044,14.64044-14.64044Zm10.37803,62.45351c-1.85322,1.29725-4.07709,1.85322-9.45142,1.85322h-2.77983v11.11932h-8.52481v-33.91392h14.08447c6.85692,0,11.11932,4.07708,11.11932,11.67529,0,3.89176-1.6679,7.22755-4.44773,9.26609Zm35.21118-10.74867c-3.3358-2.77983-4.63305-2.59451-7.22756-2.59451-5.18902,0-8.71013,3.89176-8.71013,9.45142s3.52112,9.45142,8.71013,9.45142c2.77983,0,4.07708-.37064,7.22756-2.59451v8.71013c-3.15047,1.6679-5.00369,2.03854-8.15417,2.03854-10.19271,0-17.42027-7.22756-17.42027-17.60559,0-10.19271,7.41288-17.79091,17.23495-17.79091,2.96515,0,5.00369.55597,8.33949,2.03854v8.89548Zm-10.934-22.60929c-8.15417,0-14.64044-6.48627-14.64044-14.64044s6.48627-14.64044,14.64044-14.64044c7.96885,0,14.64044,6.48627,14.64044,14.64044s-6.67159,14.64044-14.64044,14.64044Zm0-35.58182c-8.15417,0-14.64044-6.48627-14.64044-14.64044s6.48627-14.64044,14.64044-14.64044c7.96885,0,14.64044,6.48627,14.64044,14.64044s-6.67159,14.64044-14.64044,14.64044Zm0-34.46989c-8.15417,0-14.64044-6.48627-14.64044-14.64044s6.48627-14.64044,14.64044-14.64044c7.96885,0,14.64044,6.48627,14.64044,14.64044s-6.67159,14.64044-14.64044,14.64044Z"/></svg>