<?xml version="1.0" encoding="UTF-8"?><svg id="LOGO" xmlns="http://www.w3.org/2000/svg" viewBox="0 0 1250 703"><defs><style>.cls-1{stroke-width:0px;}</style></defs><g id="USPS"><path class="cls-1" d="m790.90811,337.82813c24.82354-39.73694,14.62474-46.95309-11.25721-46.95309h-25.97814c-.09622,0-1.44323-1.34701-10.48747,7.69723-10.77613,5.38806-36.46561,6.06157-36.46561,8.37073,0,4.32969,67.63937-2.98268,84.76571,0,9.14046,1.44323-1.44323,19.62792-4.23347,30.78891-.48108,4.32969,2.30916,2.21296,3.65617.09622Zm-107.85739,21.74466c61.57781-20.49387,93.61754-22.99546,98.13964-25.20841,4.23347-2.79024-4.23347-6.35022-25.20843-5.58049-49.74334,2.11673-132.3923,35.69589-166.06767,51.86006l-29.5381-89.76891h189.15936c-2.59783-27.13272-147.11324-21.74467-325.1116-21.74467l-50.41683,236.20866c188.96691-93.61751,249.10149-125.36857,309.04366-145.76623h-.00003Zm-243.90585-161.93039c243.71344,51.66763,317.51061,63.21347,319.53111,81.97546,35.02238,0,44.16283,0,50.41683,6.35022,20.30144,18.95442-14.04744,65.13778-14.04744,65.13778-4.23347,2.79024-391.01911,154.13697-391.01911,154.13697h407.08708l65.13779-307.60043h-437.10626Z"/></g></svg>