<svg id="LOGO" xmlns="http://www.w3.org/2000/svg" viewBox="0 0 1250 703"><title>v-ray-by-chaos-group-logo</title><path d="M1114.48,375.16a2.23,2.23,0,0,1-1.09,1.28,3.52,3.52,0,0,1-1.36.38c-.5,0-1.93.09-4.25.09h-12.71v-8.52h12.71a28.51,28.51,0,0,1,5.33.34,2.14,2.14,0,0,1,1.28,1.2,7.09,7.09,0,0,1,.36,2.63,8.42,8.42,0,0,1-.27,2.6m-80.25,6.91a3.35,3.35,0,0,1-1.18,2,6.14,6.14,0,0,1-3,1c-1.34.15-4,.22-8.15.22-4.38,0-7.31-.11-8.86-.29-2.06-.25-3.3-1.23-3.67-2.91a21.31,21.31,0,0,1-.34-4.45,25,25,0,0,1,.6-6.8,3.26,3.26,0,0,1,2.47-2.21c1.08-.28,4.35-.41,9.75-.41,4.74,0,7.72.1,9,.25a3.84,3.84,0,0,1,2.67,1.37,5.65,5.65,0,0,1,.87,2.55,36.07,36.07,0,0,1,.25,5.27,20,20,0,0,1-.32,4.4m-33,1.44c-.68-1.5-2.89-2.82-5.76-3,2.91-.24,5.62-1.7,6.2-3.12a4.8,4.8,0,0,1-2.5,3,4.49,4.49,0,0,1,2.06,3.09m-10.06-8.65a2.32,2.32,0,0,1-.91,1.24,3.34,3.34,0,0,1-1.24.39l-4.46.12H970.23v-8.22h14.31c2.34,0,3.73,0,4.25.08a3.25,3.25,0,0,1,1.27.28,2.05,2.05,0,0,1,1.06,1.18,7.22,7.22,0,0,1,.31,2.47,9.31,9.31,0,0,1-.26,2.46M960,374.53h-22v6.72h13.37c0,.44,0,.76,0,.91a5.38,5.38,0,0,1-.33,2.17,1.9,1.9,0,0,1-1,1,8.11,8.11,0,0,1-2.4.46c-1,.05-3.82.11-8.45.13s-7.54-.13-8.45-.23a3.87,3.87,0,0,1-2.15-.82,3.72,3.72,0,0,1-1.12-2.36,41.42,41.42,0,0,1-.28-5.92,34.27,34.27,0,0,1,.28-5.35,3.87,3.87,0,0,1,1.12-2.27,6.47,6.47,0,0,1,3.09-.88c1.51-.16,4-.26,7.54-.26,3.26,0,5.76.05,7.47.17a7.38,7.38,0,0,1,3.57.77,1.44,1.44,0,0,1,.58.82,8.49,8.49,0,0,1,.18,2H960Zm163.21-11c-1.18-1.68-3.42-2.76-6.73-3.19a75.87,75.87,0,0,0-8.76-.28h-31.32V375.4c0,1,0,2.21-.11,3.72a18,18,0,0,1-.36,3.12,3.64,3.64,0,0,1-.79,1.54,4.87,4.87,0,0,1-2.91,1.22,61.8,61.8,0,0,1-7.36.3,39.09,39.09,0,0,1-8.64-.61,3.21,3.21,0,0,1-2.55-2.58,50.74,50.74,0,0,1-.37-6.71V360h-9.45a30.09,30.09,0,0,1,1.12,10.61c-.13-2.89-2.25-9.64-8.35-10.58a124,124,0,0,0-14.9-.53,134.83,134.83,0,0,0-14.89.53,9.38,9.38,0,0,0-4.88,2,32.7,32.7,0,0,1,.28,8,11.19,11.19,0,0,0-2.28-6.9c-1.7-2.16-4.3-2.69-6.28-2.88-1.17-.12-3.3-.26-9.07-.28H960.33a22.17,22.17,0,0,1,1.11,9,9.39,9.39,0,0,0-3.75-7,15.71,15.71,0,0,0-7.48-2.24c-2.46-.19-5.8-.3-10-.3a100.43,100.43,0,0,0-15.81.9,8.85,8.85,0,0,0-4.15,1.82,25.41,25.41,0,0,1,0,7.55,18.93,18.93,0,0,0-1.37-5.93,13.88,13.88,0,0,0-.64,1.28,17,17,0,0,0-.94,4.18c-.17,1.56-.24,3.88-.24,6.95a82.94,82.94,0,0,0,.3,9,11.92,11.92,0,0,0,1,3.94,7.48,7.48,0,0,0,.61.93,12.76,12.76,0,0,0,1.48-5.44,22.19,22.19,0,0,1-.18,6.73,2.83,2.83,0,0,0,.28.25,13.18,13.18,0,0,0,5.64,1.87,106.29,106.29,0,0,0,12.2.47c4.54,0,7.9-.09,10.12-.18,5.37-.26,8.31-1.36,9.88-3a12.82,12.82,0,0,0,3.39-6.93,19.22,19.22,0,0,1-1.85,9.6h10.23V385h14.36a36,36,0,0,1,4.17.15,2.66,2.66,0,0,1,1.54.76,3.68,3.68,0,0,1,.76,1.84,26.46,26.46,0,0,1,.2,4v1.8h11.25a19.78,19.78,0,0,1-.84-6.9,7.5,7.5,0,0,0,6.49,7,128.22,128.22,0,0,0,13.69.41c7.16,0,12.14.13,14.82-.55,7.56-1.81,8.22-9.39,8.29-11.23a20.3,20.3,0,0,1-.11,7.29A7.77,7.77,0,0,0,1050,393a34,34,0,0,0,5.72.79c2.16.14,5.31.23,9.34.23,5.36,0,9.21-.14,11.58-.4a12.26,12.26,0,0,0,5.24-1.58c2.57-1.55,4.62-5.39,4.69-9.33a25.27,25.27,0,0,1-.75,10.81h9.25V385.3h12.8c4,0,6.68-.08,8.12-.25a14.35,14.35,0,0,0,4.8-1.21,6.25,6.25,0,0,0,2.74-2.59c1-1.67,1.47-4.57,1.47-8.69,0-4.37-.62-7.4-1.75-9.08" fill="#0b0204"/><path d="M888.09,373.12c-4.82.62-7.28,5.07-7.28,9.7a17.75,17.75,0,0,1,1.66-10.23c0-.73-.05-1.41-.1-2h9a6.36,6.36,0,0,1,.23-1.88,1.52,1.52,0,0,1,.71-.82,5.3,5.3,0,0,1,2.26-.5c1.07-.07,3.39-.12,6.92-.12,4.24,0,6.81.13,7.74.41a2,2,0,0,1,1.38,2.18,2,2,0,0,1-1.38,2.14,97.28,97.28,0,0,1-10.55.59c-5.31.17-8.84.34-10.62.58m-15.81,8.64a3.7,3.7,0,0,1-1.17,2,6.59,6.59,0,0,1-3,1c-1.31.11-4,.19-7.95.19-4.27,0-7.17-.11-8.64-.27-2-.25-3.21-1.19-3.6-2.88a20,20,0,0,1-.31-4.3,25.09,25.09,0,0,1,.56-6.62,3.17,3.17,0,0,1,2.43-2.11c1.05-.28,4.24-.45,9.47-.45,4.66,0,7.56.11,8.76.27a3.75,3.75,0,0,1,2.6,1.29,5.57,5.57,0,0,1,.87,2.52,41.57,41.57,0,0,1,.23,5.16,20.38,20.38,0,0,1-.29,4.24m-118.49-1.42H744.9c0,2-.32,3.34-.91,3.89a4.56,4.56,0,0,1-2.59.85c-1.27.14-3.79.19-7.62.19-3.07,0-5.22-.08-6.44-.22a5.23,5.23,0,0,1-2.67-.86,3.38,3.38,0,0,1-1.19-2.18,27.84,27.84,0,0,1-.33-5.26,27.56,27.56,0,0,1,.38-5.4,3.81,3.81,0,0,1,1.2-2.44,5,5,0,0,1,2.56-.82c1.18-.12,3.33-.21,6.43-.21s5.49.09,7,.25a6.13,6.13,0,0,1,2.87.71,1.8,1.8,0,0,1,.54.94,13.06,13.06,0,0,1,.2,2.19h9.41Zm157.1,1.79c0,1.63-.32,2.67-1,3.13a4.49,4.49,0,0,1-1.86.54c-.74.07-3.14.11-7.19.14s-6.72-.06-7.58-.1a6.13,6.13,0,0,1-2-.36c-.73-.3-1.07-1.14-1.07-2.5A2.2,2.2,0,0,1,891,381a7.14,7.14,0,0,1,3.17-.52c1.23,0,3.83-.1,7.82-.31s6.69-.29,7.94-.31a24.21,24.21,0,0,0,5.52-.7,6.17,6.17,0,0,0,3-1.83c1.22-1.44,1.83-3.77,1.83-7.06,0-3.71-.68-6.3-2.08-7.8a7.86,7.86,0,0,0-4.92-2.3,116.18,116.18,0,0,0-13.55-.49,90,90,0,0,0-10.12.4c-3,.44-5.06,1.26-6.17,2.54a7.16,7.16,0,0,0-1.52,4c-.08-.31-.14-.64-.22-.92-.88-3.11-3.21-4.92-7-5.43a203.26,203.26,0,0,0-29.06,0q-5.75.76-7,5.43c-.61,2.14-.88,5.69-.88,10.68,0,2,0,3.72.12,5.25l-11.17-21.43H811.17l-14,26.41V360.23H786.76V372H764.21V360.23H753.79a26.25,26.25,0,0,1,.82,8.77c-.07-1.49-.93-5.78-4.31-7.8a11.87,11.87,0,0,0-4.56-1.2c-1.91-.2-5-.29-9.17-.29q-12.66,0-16.81.92c-2.76.64-4.63,2-5.52,4a12.38,12.38,0,0,0-.84,3.92c-.14,1.68-.23,4.42-.23,8.21s.09,6.57.23,8.06a11.44,11.44,0,0,0,1.15,4.36,6.33,6.33,0,0,0,2.69,2.52,16.81,16.81,0,0,0,6,1.39c2.65.24,7.06.35,13.31.35a64.05,64.05,0,0,0,12.48-.84,8.48,8.48,0,0,0,4.81-3.07,12.83,12.83,0,0,0,1.9-5.71c.25,6.17-1.9,9.12-1.9,9.12h10.42V381.12h22.55V393H805.2l2.81-5.54,3.54-7.17,6.28-12.44h2l6.28,12.44,3.5,7.17,2.8,5.54h8.81c-1.37-1.19-2.7-3.6-2.89-7.45.56,5,5.56,7.14,7.24,7.37a199.43,199.43,0,0,0,29.06,0q5.1-.69,6.69-4.45a6,6,0,0,0,.46,1.12,6.09,6.09,0,0,0,2.6,2.48,14,14,0,0,0,4.68,1.1c2.15.18,6.17.28,12,.28,4.91,0,8.55-.13,10.89-.39a14.48,14.48,0,0,0,5.29-1.35,6,6,0,0,0,2.54-2.78,14.94,14.94,0,0,0,.72-5.25v-1.54Z" fill="#0b0204"/><path d="M267.4,312.41l-.7-2.17c-.29-.71-.76-2.74,2-2.74h9.59c1.55,0,1.86,1.43,2.15,2.14l16,46.15s1.25,4.07,2.25,4.07,2.35-4.07,2.35-4.07l15.66-46.15a2.62,2.62,0,0,1,2.74-2.14h9c2.5,0,2.41,1.43,2.14,2.14l-.87,2.36-27.37,79.42c-.53,2.58-7.18,2.45-7.58,0Z" fill="#0b0204"/><path d="M492.1,393.79l-28.27-84.24c-.3-.72-.4-2.11,2.14-2.14h10.46c.72,0,1.68.37,2.15,2.14,0,0,18.13,55,18.79,56.77s1.32,4,2.18,4.14c.71.1,1.46-1.52,2.1-3.2.85-2.27,22.12-57.43,22.12-57.43a15.26,15.26,0,0,1,.72-1.61,1.56,1.56,0,0,1,1.39-.51h10.7c2.65,0,2.42,1.42,2.14,2.12l-38.05,98.24-9.51,23a4.9,4.9,0,0,1-.85,1.5c-.16.42-.58.65-1.28.65h-9.6a3.16,3.16,0,0,1-1.92-.65c-.44-.29-.5-.79-.21-1.5Z" fill="#0b0204"/><path d="M326,357.17a7.34,7.34,0,0,1,7.45-7.48,7.67,7.67,0,0,1,7.46,7.48,7.31,7.31,0,0,1-7.46,7.48,7.15,7.15,0,0,1-5.31-2.15,7.22,7.22,0,0,1-2.14-5.33" fill="#0b0204"/><path d="M376.48,321.77a19.39,19.39,0,0,0-4.68,3,8.74,8.74,0,0,0-1.28,1.08l-1.07,1.06a17.81,17.81,0,0,0-3,5.15,18.43,18.43,0,0,0-1.51,7.47v51.34a1.89,1.89,0,0,1-2.12,2.15H354.3a1.89,1.89,0,0,1-2.13-2.15V339.53a42.74,42.74,0,0,1,.43-6,24.49,24.49,0,0,1,2.14-6.42,31.72,31.72,0,0,1,6.81-10.27,32.93,32.93,0,0,1,10-6.85,35.43,35.43,0,0,1,6.4-1.93,36.86,36.86,0,0,1,3.83-.64h2.34c17.24-.39,25.35,10.43,27.63,12.43a2.1,2.1,0,0,1-.52,3.54l-7.64,2a4.14,4.14,0,0,1-5-1,23,23,0,0,0-22.12-2.7" fill="#0b0204"/><path d="M448.63,380.17H426c-3.57-.13-12.8-2.21-12.8-12.83,0-3.72,1.53-7.4,3.73-9.31A14.12,14.12,0,0,1,426,354.5h20.47a2,2,0,0,1,2.14,1.72ZM458.86,327A32.14,32.14,0,0,0,452,316.86c-2.85-2.86-13.19-11.31-34.52-7.89-2.1.84-1.76,2.12.27,4.14.86.83,4.38,4.76,5.59,5.74,2.4,1.9,3.74,1.68,4.65,1.64,19-1.06,20.61,16.32,20.61,19v.64a2,2,0,0,1-2.14,1.51H426a24.36,24.36,0,0,0-9.82,2,26.71,26.71,0,0,0-8.2,5.45,24.76,24.76,0,0,0-5.56,8.13,25.06,25.06,0,0,0-2,10,24.62,24.62,0,0,0,2,9.84A26.18,26.18,0,0,0,416.2,391a24.37,24.37,0,0,0,9.82,2h33.26a1.89,1.89,0,0,0,2.13-2.15V339.53A30.9,30.9,0,0,0,458.86,327" fill="#0b0204"/><path d="M191.76,306.21c8.93,0,16.23-2.25,16.29-5s-7.13-5-16.07-5-16.21,2.21-16.29,5,7.14,5,16.07,5M190.44,404A56.64,56.64,0,0,1,156,302.46c-22.6,25.59,2.66,80.71,17.23,82.2,18.15,1.12,25-56.39,46.34-63.76,16-6,28.1,18,20.8,45.07-7.42,23-26.36,37.61-50,38M164.33,300.48c4.29-4.84,11.56-8.62,21.31-9.57,1.59-.13,3.18-.24,4.8-.24A56.21,56.21,0,0,1,231.07,308a20.52,20.52,0,0,0-7.3-1.13c-31.28,0-41.9,62-51.27,61.75-6.21.21-27.46-46.39-8.17-68.16m26.11-13.88a63.62,63.62,0,1,0,63.44,63.61,63.52,63.52,0,0,0-63.44-63.61" fill="#0b0204"/><rect x="619.59" y="200.55" width="4.97" height="298.28" fill="#0b0204"/><path d="M730.66,329.1a18.16,18.16,0,0,0-.37-3.71,9.26,9.26,0,0,0-1.18-3,5.83,5.83,0,0,0-2.05-2,5.76,5.76,0,0,0-3-.73,7.31,7.31,0,0,0-2.49.39,6.25,6.25,0,0,0-1.87,1,6.52,6.52,0,0,0-1.33,1.5,8.7,8.7,0,0,0-.88,1.75v10.28a8.91,8.91,0,0,0,1,1.69,6.27,6.27,0,0,0,1.4,1.37,6.45,6.45,0,0,0,1.86.91,7.87,7.87,0,0,0,2.36.33,5.67,5.67,0,0,0,2.92-.72,6,6,0,0,0,2.05-2,9.31,9.31,0,0,0,1.2-3,17.49,17.49,0,0,0,.38-3.72Zm2.49.44a18.18,18.18,0,0,1-.57,4.7,11.15,11.15,0,0,1-1.67,3.65,7.81,7.81,0,0,1-2.7,2.39,7.73,7.73,0,0,1-3.64.85,8.81,8.81,0,0,1-4.23-.95,8.15,8.15,0,0,1-2.88-2.59l-.1,3.12H715V308.35h2.47v12.87a8.14,8.14,0,0,1,2.85-2.75,8.36,8.36,0,0,1,4.18-1,7.89,7.89,0,0,1,3.66.82,7.77,7.77,0,0,1,2.71,2.34,10.84,10.84,0,0,1,1.68,3.66,18.56,18.56,0,0,1,.57,4.79Z" fill="#0b0204" stroke="#0b0204" stroke-miterlimit="10" stroke-width="1.5"/><path d="M730.66,329.1a18.16,18.16,0,0,0-.37-3.71,9.26,9.26,0,0,0-1.18-3,5.83,5.83,0,0,0-2.05-2,5.76,5.76,0,0,0-3-.73,7.31,7.31,0,0,0-2.49.39,6.25,6.25,0,0,0-1.87,1,6.52,6.52,0,0,0-1.33,1.5,8.7,8.7,0,0,0-.88,1.75v10.28a8.91,8.91,0,0,0,1,1.69,6.27,6.27,0,0,0,1.4,1.37,6.45,6.45,0,0,0,1.86.91,7.87,7.87,0,0,0,2.36.33,5.67,5.67,0,0,0,2.92-.72,6,6,0,0,0,2.05-2,9.31,9.31,0,0,0,1.2-3,17.49,17.49,0,0,0,.38-3.72Zm2.49.44a18.18,18.18,0,0,1-.57,4.7,11.15,11.15,0,0,1-1.67,3.65,7.81,7.81,0,0,1-2.7,2.39,7.73,7.73,0,0,1-3.64.85,8.81,8.81,0,0,1-4.23-.95,8.15,8.15,0,0,1-2.88-2.59l-.1,3.12H715V308.35h2.47v12.87a8.14,8.14,0,0,1,2.85-2.75,8.36,8.36,0,0,1,4.18-1,7.89,7.89,0,0,1,3.66.82,7.77,7.77,0,0,1,2.71,2.34,10.84,10.84,0,0,1,1.68,3.66,18.56,18.56,0,0,1,.57,4.79Z" fill="#0b0204" stroke="#0b0204" stroke-miterlimit="10" stroke-width="0.74"/><path d="M746.05,337.2,752.57,318h2.65l-9.43,26.43c-.19.52-.44,1.1-.74,1.75A7.9,7.9,0,0,1,743.9,348a6.12,6.12,0,0,1-1.77,1.42,5.3,5.3,0,0,1-2.59.58l-.47,0-.54-.08-.5-.09-.38-.1,0-2.08c.16,0,.38.05.67.08l.6,0a5.19,5.19,0,0,0,1.75-.27,3.47,3.47,0,0,0,1.33-.78,5.17,5.17,0,0,0,1-1.29,13.15,13.15,0,0,0,.78-1.79l1.07-3L736.43,318h2.7Z" fill="#0b0204" stroke="#0b0204" stroke-miterlimit="10" stroke-width="1.5"/><path d="M746.05,337.2,752.57,318h2.65l-9.43,26.43c-.19.52-.44,1.1-.74,1.75A7.9,7.9,0,0,1,743.9,348a6.12,6.12,0,0,1-1.77,1.42,5.3,5.3,0,0,1-2.59.58l-.47,0-.54-.08-.5-.09-.38-.1,0-2.08c.16,0,.38.05.67.08l.6,0a5.19,5.19,0,0,0,1.75-.27,3.47,3.47,0,0,0,1.33-.78,5.17,5.17,0,0,0,1-1.29,13.15,13.15,0,0,0,.78-1.79l1.07-3L736.43,318h2.7Z" fill="#0b0204" stroke="#0b0204" stroke-miterlimit="10" stroke-width="0.74"/></svg>