<?xml version="1.0" encoding="utf-8"?>
<!-- Generator: Adobe Illustrator 23.0.3, SVG Export Plug-In . SVG Version: 6.00 Build 0)  -->
<svg version="1.1" id="Layer_1" xmlns="http://www.w3.org/2000/svg" xmlns:xlink="http://www.w3.org/1999/xlink" x="0px" y="0px"
	 viewBox="0 0 1250 703" style="enable-background:new 0 0 1250 703;" xml:space="preserve">
<style type="text/css">
	.st0{clip-path:url(#SVGID_2_);}
	.st1{fill:#24588D;}
	.st2{fill:#B3B6B7;}
	.st3{fill:#05A595;}
	.st4{fill:#808184;}
	.st5{fill:#222728;}
</style>
<title>nvidia-partner-vantage-logo</title>
<g id="LOGO">
	<g id="VANTAGE">
		<g>
			<defs>
				<rect id="SVGID_1_" x="236" y="102.5" width="778" height="380.5"/>
			</defs>
			<clipPath id="SVGID_2_">
				<use xlink:href="#SVGID_1_"  style="overflow:visible;"/>
			</clipPath>
			<g class="st0">
				<path class="st1" d="M245.6,414.2c-0.8,8.4,1.7,15.1,5.7,15c13.7-0.3,27.4-1.4,41-3.2c4-0.6,8-6.4,8.7-13
					c6.6-57.2,5.6-115-2.9-171.9c-1-6.5-5.5-14.3-9.9-17.5c-15.2-10.8-30.6-22.4-46.2-34.7c-4.6-3.6-6.9,0.1-5.5,8.4
					C249.1,268.9,252.1,341.8,245.6,414.2L245.6,414.2z"/>
				<path class="st2" d="M288.5,350.8c0.2,9.5,4.3,18.3,9.5,19.7c17.5,4.7,35.4,8.3,53.4,10.5c5.2,0.6,9.6-4.3,9.7-10.7
					c0.9-56.9-7.9-113.6-26-167.5c-2.1-6.2-9.2-16.5-15.9-23.2c-22.7-22.8-45.9-46.9-69.7-72.2c-7-7.4-9.7-6.3-6.3,2.7
					C271.9,187.2,287.3,268.6,288.5,350.8L288.5,350.8z"/>
				<path class="st3" d="M306.7,468.8c-1.9,10.3,1.8,16.5,8.7,13.6c24.7-10.1,48.7-21.7,72-34.9c7.1-4.1,14.1-11.9,15.2-17.1
					c10.5-46.5,10.7-94.8,0.4-141.4c-1.2-5.3-8.4-14.4-16.1-20.7c-26.4-21.3-53.4-44.8-81-70.3c-8.1-7.5-12.3-5.7-9.5,4.5
					C319.4,289.3,322.9,380.3,306.7,468.8L306.7,468.8z"/>
			</g>
		</g>
		<path class="st4" d="M466,450.9h8.9c7.8,0,11.7-5.5,11.7-14.3c0-8.1-3.5-14.2-12-14.2H466V450.9L466,450.9z M475.8,418
			c9.1,0,16,6.3,16,18.7c0,9.3-3.8,18.6-17.4,18.6h-13.5V418H475.8z"/>
		<path class="st4" d="M521.3,424.1l-5.8,15.6h11.2L521.3,424.1z M532.4,455.2l-4.1-11.4H514l-4.2,11.4h-5.3l14.3-37.2h5.2
			l13.7,37.2L532.4,455.2z"/>
		<polygon class="st4" points="563.9,422.3 563.9,455.2 558.9,455.2 558.9,422.3 547.6,422.3 547.6,418 575.2,418 575.2,422.3 
			563.9,422.3 		"/>
		<path class="st4" d="M600.9,424.1l-5.8,15.6h11.3L600.9,424.1z M612,455.2l-4.1-11.4h-14.4l-4.2,11.4H584l14.3-37.2h5.2l13.7,37.2
			L612,455.2z"/>
		<path class="st4" d="M698,441.7c-1.3,6-6.7,14.5-18.5,14.5c-11.3,0-18.4-7.9-18.4-19.6s7.1-19.6,19-19.6c8.9,0,14.7,4.3,17.2,11.4
			l-5,1c-1.3-4.2-5.1-8.5-12.2-8.5c-8.6,0-13.4,6.3-13.4,15.4c0,10.7,5.9,15.7,13.5,15.7c5.9,0,11.2-3.4,12.5-10.9L698,441.7
			L698,441.7z"/>
		<polygon class="st4" points="717.5,455.2 717.5,418 743.4,418 743.4,422.4 722.3,422.4 722.3,433.9 740.7,433.9 740.7,438.2 
			722.3,438.2 722.3,450.9 744.1,450.9 744.1,455.2 717.5,455.2 		"/>
		<path class="st4" d="M789.8,455.2l-20.6-30.3c0,0,0.5,29.6,0.5,30.3H765V418h4.8l20.3,29.9c0,0-0.2-28.7-0.2-29.9h4.5v37.2
			L789.8,455.2z"/>
		<polygon class="st4" points="828.5,422.3 828.5,455.2 823.5,455.2 823.5,422.3 812.2,422.3 812.2,418 839.7,418 839.7,422.3 
			828.5,422.3 		"/>
		<polygon class="st4" points="857.7,455.2 857.7,418 883.6,418 883.6,422.4 862.5,422.4 862.5,433.9 880.9,433.9 880.9,438.2 
			862.5,438.2 862.5,450.9 884.3,450.9 884.3,455.2 857.7,455.2 		"/>
		<path class="st4" d="M921.2,435.2c4.3,0,8.2-1.3,8.2-6.4c0-4.2-2.7-6.8-7.5-6.8h-11.8v13.1H921.2z M930.1,455.2l-10.3-15.8h-9.7
			v15.8h-4.9V418h16.9c7.2,0,12.2,3.4,12.2,10.9c0,4.5-2,9.1-8.8,10.2l10.5,16.1H930.1z"/>
		<path class="st4" d="M959.2,442.6c0.1,1.5,0.4,9.6,10.8,9.6c3.2,0,9.4-1.2,9.4-7.4c0-4.2-3.1-5.4-7.2-6.2l-3.4-0.7
			c-8.5-1.7-13.2-4.4-13.2-10.6c0-2.8,1.3-5.5,3.6-7.3c2.8-2.1,6.3-3.2,9.8-3.1c3.7,0,7.3,0.5,10.4,2.8c3.3,2.5,4.2,5.2,4.8,8.6
			l-5.1,0.3c0-2.1-1.2-7.9-9.7-7.9c-3.6,0-8.6,1.3-8.6,5.9c0,3.6,3.2,4.9,7.5,5.9l6.9,1.6c1.8,0.4,9.6,2.1,9.6,10.3
			c0.1,2.9-1.1,5.6-3.2,7.6c-2.1,2-5.5,4-11.9,4c-1.2,0-6.3,0-10.3-2.6c-5-3.2-5.5-8.7-5.7-10.3L959.2,442.6L959.2,442.6z"/>
		<path class="st5" d="M460.7,398.4l-29-92.6h22.5l11,39.1c3.1,11,5.9,21.6,8.1,33.1h0.4c2.3-11.1,5.1-22.1,8.2-32.7l11.5-39.5h21.8
			l-30.5,92.6H460.7z"/>
		<path class="st5" d="M559.7,359l-5.7-19.7c-1.6-5.5-3.2-12.4-4.6-17.9h-0.3c-1.3,5.5-2.7,12.5-4.2,17.9l-5.4,19.7H559.7z
			 M536.7,374.7l-6.5,23.8H509l27.7-92.6h26.8l28.1,92.6h-22l-7-23.8H536.7z"/>
		<path class="st5" d="M600.2,398.4v-92.6h23.9l18.9,33.9c5.6,10.2,10.6,20.8,14.8,31.7h0.4c-1.3-12.9-1.9-25.8-1.8-38.7v-26.9h18.8
			v92.6h-21.5l-19.4-35.7c-5.8-10.6-11.1-21.5-15.7-32.7l-0.4,0.1c0.5,12.2,0.8,25.3,0.8,40.4v27.9L600.2,398.4z"/>
		<polygon class="st5" points="709.8,323.4 685.4,323.4 685.4,305.8 755.1,305.8 755.1,323.4 730.3,323.4 730.3,398.4 709.8,398.4 
			709.8,323.4 		"/>
		<path class="st5" d="M799.7,359l-5.7-19.7c-1.6-5.5-3.2-12.4-4.6-17.9h-0.3c-1.4,5.5-2.7,12.5-4.2,17.9l-5.3,19.7H799.7z
			 M776.7,374.7l-6.5,23.8H749l27.7-92.6h26.9l28.1,92.6h-22l-7-23.8L776.7,374.7z"/>
		<path class="st5" d="M915.4,394.1c-9.7,3.3-20,5.1-30.2,5.2c-16.5,0-28.5-4.3-36.8-12.5c-8.3-8-12.9-20-12.8-33.6
			c0.1-30.8,22-48.4,51.7-48.4c11.7,0,20.7,2.3,25.1,4.5l-4.3,16.8c-5-2.2-11.1-4-21.1-4c-17.1,0-30,9.9-30,29.9
			c0,19.1,11.7,30.3,28.5,30.3c4.7,0,8.5-0.5,10.1-1.4v-19.3h-14v-16.4h33.8V394.1L915.4,394.1z"/>
		<polygon class="st5" points="983.3,359.2 949.9,359.2 949.9,381.2 987.2,381.2 987.2,398.4 929.4,398.4 929.4,305.8 985.3,305.8 
			985.3,323 949.9,323 949.9,342.2 983.3,342.2 983.3,359.2 		"/>
		<path class="st5" d="M1012.2,317.9l-0.5-7.2c-0.1-0.9,0-2.1,0-3.2h-0.1c-0.3,1.1-0.7,2.4-1,3.4l-2.6,6.9h-1.4l-2.4-7.1
			c-0.3-1-0.6-2.1-0.9-3.2h-0.1c0,1.1,0,2.2-0.1,3.2l-0.5,7.2h-1.7l0.9-12h2.4l2.3,6.5c0.3,0.9,0.5,1.9,0.8,3h0.1
			c0.3-1.1,0.5-2.2,0.8-3l2.3-6.5h2.3l0.9,12L1012.2,317.9z M1000.6,305.9v1.5h-3.7v10.5h-1.8v-10.4h-3.7v-1.5L1000.6,305.9z"/>
	</g>
</g>
</svg>
