<?xml version="1.0" encoding="UTF-8"?>
<svg id="PASTE_LOGO_HERE" data-name="PASTE LOGO HERE" xmlns="http://www.w3.org/2000/svg" viewBox="0 0 1250 703">
  <defs>
    <style>
      .cls-1 {
        fill: #ff2300;
      }

      .cls-2 {
        fill: #ff3c00;
      }

      .cls-3 {
        fill: #ff3800;
      }

      .cls-4 {
        fill: #ff3e00;
      }

      .cls-5 {
        fill: #ff1600;
      }

      .cls-6 {
        fill: #ff1a00;
      }

      .cls-7 {
        fill: #ffa600;
      }

      .cls-8 {
        fill: #ff5700;
      }

      .cls-9 {
        fill: #ff2600;
      }

      .cls-10 {
        fill: #ff5600;
      }

      .cls-11 {
        fill: #ff4c00;
      }

      .cls-12 {
        fill: #ff4600;
      }

      .cls-13 {
        fill: #ff1500;
      }

      .cls-14 {
        fill: #ff4a00;
      }

      .cls-15 {
        fill: #ff3700;
      }

      .cls-16 {
        fill: #ff2500;
      }

      .cls-17 {
        fill: #ff7a00;
      }

      .cls-18 {
        fill: #ff4500;
      }

      .cls-19 {
        fill: #ff4700;
      }

      .cls-20 {
        fill: #ff8500;
      }

      .cls-21 {
        fill: #ff5e00;
      }

      .cls-22 {
        fill: #ff6a00;
      }

      .cls-23 {
        fill: #ff3a00;
      }

      .cls-24 {
        fill: #1a1a1a;
      }
    </style>
  </defs>
  <path class="cls-20" d="M433.18,204.91c.44.42.83.87,1.2,1.35.06.07.11.15.17.22.12.16.25.32.37.47.19.25.39.5.59.75q3.21,4.11,3.99,5.27c.27.4.56.74.91,1.08.49.52.92,1.01,1.11,1.71-.03.95-.43,1.85-.78,2.72-.38.95-.69,1.91-1.01,2.88-.18.55-.36,1.1-.55,1.65-.41,1.22-.81,2.45-1.21,3.67-.74,2.29-1.49,4.57-2.24,6.85-.28.86-.57,1.73-.85,2.59q-.05.14-.09.29c-.58,1.76-1.16,3.53-1.73,5.29-.77,2.36-1.54,4.71-2.31,7.06-.05.16-.11.33-.16.49-.03.08-.05.16-.08.25-.11.33-.21.65-.32.98-.05.16-.11.33-.16.49-.84,2.56-1.68,5.12-2.52,7.69-.33,1-.66,2-.98,3-1.35,4.12-2.7,8.24-4.05,12.36.69-1.43,1.31-2.88,1.93-4.34.27-.65.55-1.3.83-1.95.1-.23.19-.45.29-.68.67-1.58,1.35-3.16,2.02-4.73.95-2.21,1.89-4.42,2.83-6.63,1.3-3.06,2.61-6.11,3.92-9.16.36-.85.73-1.69,1.09-2.54.06-.14.12-.28.18-.42.18-.42.36-.84.54-1.27.66-1.55,1.33-3.1,1.99-4.65,1.39-3.24,2.77-6.47,4.15-9.71.92-2.17,1.85-4.34,2.78-6.51h.36c.19.24.36.48.52.74.05.08.1.16.16.24.18.28.35.55.53.83.13.21.27.41.4.62.43.68.86,1.35,1.29,2.03.06.1.13.2.19.3.38.61.76,1.23,1.14,1.85.23.37.46.74.69,1.11.22.35.43.69.65,1.04.11.17.21.34.32.51.15.24.3.48.45.73.05.07.09.14.14.21.18.3.28.55.23.91-.09.28-.2.55-.32.83q-.05.13-.1.25c-.11.26-.22.52-.34.78-.04.1-.09.2-.13.3-.09.21-.19.43-.28.64-.26.59-.52,1.19-.77,1.78-.05.13-.11.25-.17.38-.62,1.44-1.24,2.89-1.85,4.34-.95,2.24-1.91,4.47-2.86,6.71q-.09.21-.18.42c-.3.71-.61,1.41-.91,2.12-.36.85-.73,1.69-1.09,2.54-.06.14-.12.28-.18.42-.18.42-.36.84-.54,1.27-.66,1.55-1.33,3.1-1.99,4.65-1.25,2.91-2.5,5.82-3.74,8.74-.96,2.26-1.92,4.51-2.89,6.76q-.09.21-.18.43c-.6,1.41-1.21,2.82-1.82,4.23-.05.11-.09.21-.14.32-.21.49-.43.98-.64,1.47-.07.17-.15.33-.22.5-.06.14-.12.29-.19.43q-.15.31-.13.57c.05-.09.09-.18.14-.27.8-1.51,1.6-3.02,2.45-4.5.59-1.03,1.15-2.07,1.71-3.11.58-1.09,1.16-2.17,1.76-3.24.42-.75.83-1.5,1.25-2.25.17-.3.33-.61.5-.91.04-.08.08-.15.13-.23.29-.53.59-1.06.88-1.59.83-1.49,1.65-2.99,2.46-4.49.42-.77.84-1.54,1.27-2.31.55-.99,1.1-1.99,1.65-2.99.08-.15.17-.3.25-.46.04-.08.08-.15.13-.23.29-.53.59-1.06.88-1.59.83-1.49,1.65-2.99,2.46-4.49.42-.77.84-1.54,1.27-2.31.47-.84.94-1.69,1.4-2.53.08-.15.17-.3.25-.45.13-.23.25-.46.38-.69.3-.54.59-1.08.89-1.61.92-1.66,1.84-3.33,2.75-4.99.49.42.74.92,1.02,1.5q.08.15.15.3c.16.32.32.64.48.96.16.31.32.63.47.94.1.21.21.41.31.62.31.62.64,1.24.97,1.85.4.75.78,1.51,1.14,2.27q.08.17.17.35c.11.22.21.45.32.68.1.21.2.42.3.62q.07.14.14.28c.04.08.08.16.12.25.13.45-.01.77-.21,1.19-.07.12-.14.24-.21.37-.08.14-.15.28-.23.42-.08.15-.17.3-.25.45-.09.16-.17.31-.26.47-.18.33-.36.65-.54.97-.38.68-.76,1.37-1.14,2.05-.12.22-.24.44-.36.66-.58,1.05-1.15,2.11-1.73,3.17-.42.77-.84,1.54-1.27,2.31-.55.99-1.1,1.99-1.65,2.99-.08.15-.17.3-.25.46-.04.08-.08.15-.13.23-.29.53-.59,1.06-.88,1.59-.83,1.49-1.65,2.99-2.46,4.49-.42.77-.84,1.54-1.27,2.31-.55.99-1.1,1.99-1.65,2.99-.08.15-.17.3-.25.46q-.06.11-.13.23c-.29.53-.59,1.06-.88,1.59-.83,1.49-1.65,2.99-2.46,4.49-.42.77-.84,1.54-1.27,2.31-.47.84-.94,1.69-1.4,2.53-.08.15-.17.3-.25.45-.13.23-.25.46-.38.69-.3.54-.59,1.08-.89,1.61-.92,1.66-1.84,3.33-2.75,4.99.42-.51.81-1.05,1.2-1.59.14-.2.28-.39.42-.59.07-.1.14-.2.22-.3.2-.28.4-.56.61-.84.75-1.04,1.5-2.09,2.23-3.14.53-.77,1.08-1.52,1.63-2.28.68-.94,1.35-1.89,2.02-2.84.8-1.14,1.61-2.28,2.43-3.41.5-.69,1-1.39,1.49-2.09.43-.62.88-1.23,1.32-1.84.54-.75,1.07-1.5,1.58-2.26.54-.79,1.1-1.57,1.68-2.33.53-.7,1.03-1.42,1.52-2.15.64-.94,1.3-1.86,1.97-2.77,1.08-1.49,2.15-2.99,3.21-4.49.8-1.14,1.61-2.28,2.43-3.41.34-.46.67-.93,1-1.4q.1-.14.2-.29c.13-.18.25-.36.37-.55.06-.08.11-.16.17-.25.05-.07.1-.14.15-.22q.15-.17.51-.29c1.1,2.69,2.2,5.37,3.23,8.08.08.21.16.42.24.63.11.29.22.58.33.87.03.08.07.17.1.26.14.37.2.6.11.99-.16.27-.32.53-.5.79-.07.1-.13.19-.2.29-.07.1-.14.2-.22.31-.08.11-.15.21-.23.32-.56.79-1.13,1.58-1.69,2.36-.68.94-1.35,1.89-2.02,2.84-.8,1.14-1.61,2.28-2.43,3.41-.69.95-1.36,1.91-2.03,2.86-.8,1.14-1.61,2.28-2.43,3.41-.69.95-1.36,1.91-2.03,2.86-.8,1.14-1.61,2.28-2.43,3.41-.69.95-1.36,1.91-2.03,2.86-.8,1.14-1.61,2.28-2.43,3.41-.5.69-1,1.39-1.49,2.09-.43.62-.88,1.23-1.32,1.84-.62.85-1.22,1.72-1.81,2.59-.44.65-.91,1.27-1.4,1.89.46-.35.86-.74,1.24-1.17.13-.14.26-.28.38-.42.07-.07.14-.15.21-.23.38-.42.78-.83,1.17-1.25.61-.65,1.22-1.3,1.83-1.95.96-1.03,1.92-2.05,2.87-3.07.88-.94,1.76-1.88,2.63-2.81.59-.63,1.18-1.26,1.77-1.89.51-.54,1.01-1.08,1.52-1.63.96-1.03,1.92-2.05,2.88-3.08.88-.94,1.76-1.88,2.63-2.81.59-.63,1.18-1.26,1.77-1.89.51-.54,1.01-1.08,1.52-1.63.96-1.03,1.92-2.05,2.88-3.08.23-.24.46-.49.68-.73q.11-.12.22-.24c.38-.41.77-.82,1.15-1.23.08-.08.15-.17.23-.25.15-.16.29-.31.44-.47.07-.07.13-.14.2-.21.06-.06.11-.12.17-.19.06-.06.11-.12.17-.18.06-.07.12-.13.19-.2q.17-.16.42-.16,1.64,5.55,2.27,7.9c.05.17.09.35.14.52.07.24.13.48.19.72.04.13.07.26.11.4.06.37.05.6-.06.96q-.27.32-.62.64c-.48.46-.93.93-1.36,1.43-.26.3-.54.57-.83.85-.22.22-.42.45-.63.69-.29.34-.59.66-.91.97-.32.31-.62.63-.9.97-.36.42-.75.81-1.15,1.21-.31.31-.59.64-.88.97-.27.3-.55.58-.84.86-.22.22-.42.45-.63.69-.37.43-.76.82-1.16,1.21-.31.31-.59.64-.88.97-.27.3-.55.58-.84.86-.22.22-.42.45-.63.69-.29.34-.59.66-.91.97-.32.31-.62.63-.9.97-.36.42-.75.81-1.15,1.21-.31.31-.59.64-.88.97-.27.3-.55.58-.84.86-.22.22-.42.45-.63.69-.37.43-.76.82-1.16,1.21-.31.31-.59.64-.88.97-.27.3-.55.58-.84.86-.22.22-.42.45-.63.69-.29.34-.59.66-.91.97-.32.31-.62.63-.9.97s-.59.65-.9.97c-.57.56-1.12,1.14-1.57,1.81.08-.07.16-.14.24-.21.72-.61,1.45-1.19,2.2-1.76.68-.52,1.36-1.05,2.02-1.59.65-.54,1.32-1.06,1.99-1.57.76-.58,1.51-1.17,2.25-1.78.72-.59,1.45-1.16,2.18-1.74.35-.27.7-.55,1.05-.83.14-.11.28-.22.42-.33.07-.05.14-.11.21-.17q.63-.5.84-.66c.14-.11.28-.22.42-.33.35-.28.7-.55,1.05-.82.73-.57,1.45-1.14,2.18-1.72.79-.63,1.59-1.26,2.38-1.89.35-.28.7-.55,1.05-.83.14-.11.28-.22.42-.33.07-.05.14-.11.21-.17q.63-.5.84-.66c.14-.11.28-.22.42-.33.35-.28.7-.55,1.05-.82.14-.11.28-.22.42-.33.07-.05.14-.11.21-.16.38-.3.76-.6,1.14-.91.08-.07.16-.13.25-.2.16-.13.32-.26.48-.39.32-.26.56-.45.95-.58.46,2.21.84,4.42,1.19,6.65.02.12.04.24.06.37.05.35.11.69.16,1.04.02.1.03.21.05.31q.16,1.04.11,1.4-.14.19-.35.35t-.23.18c-.08.06-.17.13-.25.19q-.13.1-.26.21c-.28.21-.55.43-.83.64-.17.13-.34.26-.52.4-.25.19-.51.39-.77.58-.68.51-1.34,1.05-2,1.59-.72.59-1.45,1.16-2.18,1.74-.35.27-.7.55-1.05.83-.14.11-.28.22-.42.33-.07.05-.14.11-.21.17q-.63.5-.84.66c-.14.11-.28.22-.42.33-.35.28-.7.55-1.05.82-.73.57-1.45,1.14-2.18,1.72-1.37,1.1-2.76,2.19-4.16,3.26,1.08-.52,2.14-1.08,3.18-1.67,1.18-.67,2.37-1.31,3.57-1.95,1.16-.61,2.31-1.22,3.44-1.87,1.31-.75,2.65-1.46,3.99-2.17,1.09-.57,2.17-1.16,3.25-1.76q.65-.36.78-.36c.42,3,.53,6.02.48,9.05q-.14.08-.29.15c-1.78.95-3.57,1.9-5.34,2.87-.45.25-.9.49-1.35.74-1.55.84-3.1,1.69-4.63,2.57-.47.27-.94.53-1.42.79,1.07-.37,2.15-.75,3.22-1.12.26-.09.52-.18.78-.27,1.74-.61,3.48-1.21,5.21-1.84.12-.04.24-.09.36-.13.54-.2,1.09-.39,1.63-.59.19-.07.38-.14.57-.21q.13-.05.26-.09c.4-.14.68-.21,1.12-.21-.05,2.7-.14,5.39-.36,8.08-.81.33-1.63.64-2.46.93-.11.04-.23.08-.34.12-.36.12-.72.25-1.07.37-.24.08-.49.17-.73.25-.59.21-1.19.41-1.78.62.12-.02.24-.04.37-.06.46-.08.92-.16,1.38-.23.2-.03.39-.07.59-.1,1.31-.22,2.61-.42,3.93-.57-.56,5.41-1.55,10.69-3.02,15.92-1.22-.25-2.43-.51-3.64-.79-5.81-1.34-11.64-2.37-17.59-2.83q-.22-.02-.44-.03c-1.71-.12-3.42-.12-5.14-.12q-.12,0-.25,0c-2.7,0-5.37.07-8.05.39-.15.02-.3.03-.45.05-9.16,1.11-18.13,4.18-25.73,9.48-.07.05-.14.1-.21.15-1.52,1.06-2.98,2.19-4.39,3.4-.16.13-.33.27-.49.39-1.05.82-1.98,1.76-2.92,2.71-.28.29-.57.57-.85.86-.18.18-.37.37-.55.55-.08.08-.17.17-.25.25-.54.54-1.05,1.11-1.55,1.69-.06.06-.11.13-.17.19-.86,1-1.69,2.02-2.49,3.06q-.09.12-.19.25c-2.82,3.7-5.28,7.69-7.41,11.82-.04.07-.08.15-.12.22-3.45,6.66-6.1,13.7-8.21,20.89-1.12-.08-2.22-.3-3.32-.53q-.15-.03-.31-.06c-8.41-1.74-16.69-4.57-24.36-8.46.46-.48.96-.91,1.48-1.33.08-.07.17-.14.25-.21.69-.55,1.38-1.09,2.08-1.62.59-.45,1.16-.9,1.73-1.37.65-.54,1.32-1.06,1.99-1.57.76-.58,1.51-1.17,2.25-1.78.72-.59,1.45-1.16,2.18-1.74.35-.27.7-.55,1.05-.83.14-.11.28-.22.42-.33.07-.05.14-.11.21-.17q.63-.5.84-.66c.14-.11.28-.22.42-.33.35-.28.7-.55,1.05-.82.76-.59,1.51-1.19,2.27-1.79.08-.06.16-.12.24-.19.28-.23.56-.45.82-.71q-2.54,1.34-5.06,2.74c-1.01.58-2.04,1.12-3.07,1.66-.79.41-1.57.84-2.34,1.28-1.16.66-2.34,1.29-3.52,1.91-1.26.66-2.52,1.34-3.75,2.05-1.24.71-2.51,1.37-3.78,2.04-.09.05-.17.09-.26.14-.16.08-.32.17-.48.25-.37.2-.74.4-1.11.62q-.39.21-.73.22c-.55-.18-1.04-.45-1.54-.73-.11-.06-.23-.13-.34-.19-1.4-.78-2.76-1.62-4.12-2.46-.28-.17-.57-.35-.85-.52-.07-.04-.15-.09-.22-.13-.2-.12-.41-.24-.61-.36-.09-.07-.19-.13-.29-.2v-.24c.07-.04.15-.08.22-.12,1.44-.78,2.89-1.56,4.32-2.35.57-.31,1.14-.62,1.71-.93,1.2-.65,2.39-1.3,3.58-1.98,1.03-.58,2.06-1.14,3.11-1.68.82-.42,1.63-.87,2.43-1.33.91-.52,1.84-1.03,2.77-1.51.91-.47,1.8-.95,2.69-1.46,1.16-.66,2.34-1.29,3.52-1.91,1.32-.69,2.62-1.4,3.91-2.14.9-.51,1.8-1,2.72-1.48-.87.3-1.73.6-2.6.9-.53.18-1.06.37-1.59.55-2.96,1.02-5.91,2.05-8.86,3.09-1.82.65-3.64,1.28-5.47,1.92-2.03.7-4.07,1.42-6.09,2.14-2.47.88-4.95,1.74-7.42,2.61-.16.06-.32.11-.48.17-.38.13-.76.26-1.14.4-.63.22-1.25.44-1.87.67-.1.04-.19.07-.29.11-.17.06-.34.13-.5.2-.35.13-.56.18-.92.09-.27-.16-.52-.32-.76-.51-.09-.07-.18-.14-.27-.21q-.14-.11-.28-.23c-.2-.15-.39-.31-.59-.46-.09-.07-.19-.15-.29-.23-.33-.26-.67-.51-1-.76-.66-.49-1.31-1.01-1.95-1.54-.59-.48-1.18-.95-1.78-1.41.16-.31.26-.31.59-.42q.15-.05.3-.1c.11-.04.22-.07.33-.11.12-.04.23-.08.35-.12.25-.09.5-.17.75-.26.68-.23,1.36-.46,2.03-.7.14-.05.28-.1.42-.15,1.38-.48,2.77-.97,4.14-1.46,2.07-.74,4.14-1.46,6.22-2.18,1.83-.63,3.66-1.27,5.48-1.92,2.07-.74,4.14-1.46,6.22-2.18,1.83-.63,3.66-1.27,5.48-1.92,1.95-.69,3.9-1.38,5.85-2.05,2.55-.88,5.09-1.78,7.64-2.68,1.32-.47,2.65-.94,3.97-1.41.62-.22,1.24-.44,1.86-.66l.62-.22c.15-.05.29-.1.44-.16-1.3.18-2.6.39-3.89.62-.22.04-.44.08-.66.12-.6.11-1.2.21-1.79.32-.65.11-1.3.23-1.94.34-1.12.2-2.25.4-3.37.59-1.63.29-3.26.57-4.9.86-3.89.68-7.78,1.37-11.67,2.05-.25.04-.49.09-.74.13-1.48.26-2.95.52-4.43.78-.33.06-.65.12-.98.17-.08.01-.16.03-.24.04-1.13.2-2.26.4-3.4.6-.48.08-.96.17-1.43.25-.39.07-.79.14-1.18.21-1.85.32-3.69.65-5.54.97-1.16.2-2.33.41-3.49.61-.67.12-1.34.24-2.01.35-.12.02-.25.04-.38.07-.25.04-.49.09-.74.13-.59.1-1.18.21-1.77.31-1.03.18-2.05.36-3.07.58-.45.1-.91.19-1.36.28-.21.04-.42.09-.63.14q-1.56.38-2.14.07c-.45-.33-.82-.72-1.18-1.14-.21-.25-.44-.47-.68-.69-.28-.28-.55-.58-.81-.88-.5-.59-1.06-1.13-1.62-1.67-.08-.07-.15-.15-.23-.22-.07-.06-.13-.13-.2-.2-.22-.24-.41-.5-.61-.76-.07-.09-.13-.17-.2-.26-.05-.07-.1-.13-.15-.2,2.23-.47,4.48-.85,6.73-1.25.59-.1,1.18-.21,1.76-.31,1.02-.18,2.04-.36,3.07-.54,1.64-.29,3.28-.58,4.92-.86.28-.05.57-.1.85-.15.43-.08.86-.15,1.29-.23.88-.15,1.76-.31,2.64-.46,6.03-1.06,12.06-2.12,18.09-3.18,1.34-.24,2.69-.47,4.03-.71,5.68-1,11.36-2,17.04-3.01.68-.12,1.35-.24,2.03-.36.32-.06.65-.12.97-.17.21-.04.42-.07.63-.11,1.2-.21,2.41-.43,3.61-.64.73-.13,1.45-.26,2.18-.39.41-.07.82-.15,1.23-.22.44-.08.87-.16,1.31-.23.13-.02.25-.05.38-.07.56-.1,1.1-.18,1.67-.15.08-.36.16-.72.24-1.09-1.83-.01-3.65.02-5.48.07-.32,0-.64.01-.95.02-.69.02-1.38.03-2.07.05-1.02.02-2.05.05-3.07.07-1.72.04-3.45.08-5.17.12-2.47.06-4.94.12-7.4.17-.99.02-1.99.05-2.98.07-.11,0-.22,0-.33,0-2.62.06-5.24.12-7.87.19-.11,0-.23,0-.35,0-2.67.06-5.34.13-8.01.19-.11,0-.23,0-.35,0-.58.01-1.16.03-1.73.04-.11,0-.23,0-.35,0l-.69.02c-3.82.09-7.65.18-11.47.27-.54.01-1.08.03-1.63.04-.11,0-.21,0-.32,0-1.7.04-3.41.08-5.11.12-1.72.04-3.44.08-5.16.12-.93.02-1.86.04-2.78.07-.35,0-.7.02-1.05.03-.08,0-.17,0-.26,0-1.34.03-2.68.06-4.01.08-.81.02-1.63.04-2.44.08-.48.02-.95.03-1.43.05-.21,0-.43.02-.64.03q-1.52.09-2.02-.28c-.42-.42-.71-.91-1.01-1.42-.12-.17-.25-.35-.38-.52-.11-.15-.21-.3-.32-.46-.12-.17-.24-.35-.36-.52-.06-.09-.13-.18-.19-.27-.22-.32-.45-.63-.67-.94-.16-.22-.31-.44-.47-.66-.07-.1-.15-.21-.23-.32q-.1-.15-.21-.29c-.06-.09-.12-.17-.19-.26q-.13-.23-.13-.59c6.08-.14,12.16-.29,18.23-.43q.14,0,.28,0c1.99-.05,3.98-.09,5.97-.14.98-.02,1.95-.05,2.93-.07.1,0,.19,0,.29,0,2.72-.06,5.43-.13,8.15-.19.66-.02,1.33-.03,1.99-.05.09,0,.19,0,.28,0l1.42-.03,2.82-.07c3.89-.09,7.78-.18,11.66-.27.54-.01,1.09-.03,1.63-.04.09,0,.18,0,.27,0,.71-.02,1.42-.03,2.14-.05.44-.01.88-.02,1.32-.03,4.31-.1,8.62-.2,12.93-.31,1.6-.04,3.2-.08,4.8-.11,1.2-.03,2.39-.06,3.59-.09.78-.02,1.57-.04,2.35-.06.44-.01.87-.02,1.31-.03,2.4-.06,4.79-.07,7.19-.06.01-.07.03-.14.04-.21q.03-.14.06-.29c.02-.09.04-.18.06-.28.09-.35.2-.69.32-1.03-10.64-1.2-21.27-2.39-41.84-4.68-1.06-.12-2.12-.24-3.19-.35-7.1-.79-14.21-1.58-21.31-2.36-.11-.01-.22-.02-.34-.04-.57-.06-1.13-.13-1.7-.19-.11-.01-.22-.02-.34-.04-.23-.03-.45-.05-.68-.08-3.73-.41-7.46-.83-11.19-1.24-.52-.06-1.05-.12-1.57-.17-.1-.01-.21-.02-.31-.03-1.65-.18-3.3-.37-4.95-.55-1.64-.18-3.29-.36-4.93-.55-.97-.11-1.95-.22-2.92-.32-.72-.08-1.45-.16-2.17-.24-.29-.03-.59-.07-.88-.1-.4-.04-.79-.09-1.19-.13-.12-.01-.23-.03-.35-.04-.11-.01-.21-.02-.32-.04-.09-.01-.18-.02-.28-.03q-.69-.1-.89-.36-.06-.13-.13-.26c-.05-.1-.1-.2-.15-.3-.05-.11-.1-.21-.16-.32q-.08-.16-.16-.33c-.12-.23-.23-.47-.34-.7-.17-.35-.35-.71-.52-1.06-.11-.23-.22-.45-.34-.68-.05-.1-.1-.21-.16-.32-.34-.69-.63-1.39-.91-2.11,1.01-.03,2,.07,3.01.18.18.02.36.04.55.06.5.06,1,.11,1.5.17.54.06,1.09.12,1.63.18.95.11,1.9.21,2.85.32,1.4.16,2.8.31,4.21.47,2.34.26,4.68.52,7.02.78,2.31.26,4.62.52,6.93.77.14.02.29.03.43.05.73.08,1.45.16,2.18.24,5.02.56,10.03,1.12,15.05,1.68,4.37.49,8.75.98,13.12,1.46.12.01.25.03.38.04,1.23.14,2.45.27,3.68.41,7.46.83,14.92,1.66,22.37,2.49q.14.02.28.03c7.03.78,14.06,1.57,21.09,2.36.02-.07.03-.15.05-.22q.03-.15.06-.29c.02-.1.04-.19.06-.29.08-.35.2-.67.32-1.01.04-.11.09-.23.13-.34.03-.08.06-.17.1-.25-.15-.01-.3-.03-.46-.04-.68-.08-1.33-.22-1.99-.38-.13-.03-.27-.06-.41-.09-.45-.1-.9-.21-1.35-.31-.33-.08-.65-.15-.98-.23-.71-.16-1.41-.33-2.12-.49-1.15-.27-2.3-.53-3.45-.8-.4-.09-.8-.19-1.2-.28-.1-.02-.2-.05-.31-.07-.73-.17-1.46-.34-2.19-.51-3.01-.7-6.02-1.39-9.03-2.08-.11-.02-.22-.05-.33-.08-1.1-.25-2.2-.51-3.3-.76-2.37-.55-4.74-1.09-7.11-1.64q-.17-.04-.34-.08c-5.63-1.3-11.25-2.59-16.88-3.89-.11-.03-.22-.05-.34-.08-1.62-.37-3.24-.75-4.86-1.12-.1-.02-.21-.05-.32-.07-.74-.17-1.48-.34-2.22-.51-.11-.02-.21-.05-.32-.07-1.09-.25-2.18-.5-3.27-.75-5.02-1.16-10.04-2.32-15.06-3.47q-.16-.04-.31-.07c-.85-.19-1.69-.39-2.54-.58-8.18-1.88-16.35-3.77-24.52-5.66-.11-.02-.21-.05-.32-.07-2.66-.62-5.32-1.23-7.99-1.85-.17-.54-.33-1.09-.5-1.63-.06-.18-.11-.37-.17-.55-.39-1.27-.75-2.54-1.02-3.85,1.59.31,3.17.65,4.74,1.02.23.05.46.11.69.16.5.12,1,.23,1.5.35,1.37.32,2.74.64,4.11.96.24.06.48.11.72.17,2.84.66,5.69,1.32,8.54,1.97q.16.04.32.07c1.32.3,2.65.61,3.97.91,2.21.51,4.41,1.02,6.62,1.52.12.03.23.05.36.08,3.62.83,7.23,1.67,10.85,2.5.11.03.23.05.34.08,1.59.37,3.19.74,4.78,1.1,1.95.45,3.9.9,5.85,1.35q.17.04.34.08c5.18,1.19,10.35,2.39,15.53,3.58,6.8,1.56,13.59,3.13,20.38,4.7,1.29.3,2.57.59,3.86.89,1.24.29,2.47.57,3.71.86q.16.04.33.08c2.81.65,5.63,1.3,8.44,1.95.61.14,1.22.28,1.83.42.08.02.17.04.25.06.33.08.65.15.98.23.99.23,1.99.46,2.98.69.54.13,1.09.25,1.63.38.25.06.49.11.74.17.33.08.66.15.99.23.1.02.19.05.29.07.41.09.77.15,1.19.15.28-.88.56-1.75.84-2.65-.27-.09-.54-.18-.82-.27-1.25-.42-2.51-.83-3.76-1.25-.11-.04-.23-.07-.34-.11-2.73-.91-5.46-1.82-8.18-2.76-1.49-.51-2.98-1.01-4.47-1.5-1.67-.55-3.33-1.12-4.99-1.69-1.56-.54-3.13-1.06-4.7-1.58-1.66-.55-3.32-1.11-4.98-1.68-1.73-.59-3.47-1.18-5.21-1.76-1.84-.61-3.68-1.23-5.52-1.86-1.66-.57-3.33-1.13-5-1.68-1.67-.55-3.33-1.12-5-1.69-1.56-.54-3.13-1.06-4.7-1.58-1.77-.59-3.55-1.19-5.31-1.79-1.56-.54-3.13-1.06-4.7-1.58-1.66-.55-3.32-1.11-4.98-1.68-1.73-.59-3.47-1.18-5.21-1.76-1.84-.61-3.68-1.23-5.52-1.86-1.66-.57-3.33-1.13-5-1.68-1.67-.55-3.33-1.12-5-1.69-1.56-.54-3.13-1.06-4.7-1.58-1.77-.59-3.55-1.19-5.31-1.79-1.56-.54-3.13-1.06-4.7-1.58-1.76-.59-3.53-1.18-5.28-1.78-1.23-.42-2.47-.84-3.71-1.25q-.19-.06-.38-.13c-.61-.2-1.23-.41-1.84-.61-.22-.07-.44-.15-.66-.22-.1-.03-.2-.07-.31-.1q-.7-.23-.84-.37c-.05-.3-.08-.6-.12-.9-.01-.09-.02-.18-.03-.28-.02-.19-.04-.39-.07-.58-.03-.29-.07-.59-.1-.88-.02-.19-.04-.38-.06-.56q-.02-.13-.03-.26c-.07-.62-.08-1.23-.07-1.85.75.15,1.46.35,2.18.6.1.04.21.07.32.11.34.12.69.23,1.03.35.25.08.49.17.74.25.66.22,1.32.45,1.98.67.69.23,1.39.47,2.08.7,1.26.42,2.51.85,3.77,1.27,1.22.41,2.45.83,3.67,1.24.38.13.76.26,1.14.39q.14.05.28.09c.93.31,1.86.63,2.79.94,2.56.87,5.13,1.73,7.69,2.59l.65.22c1.2.41,2.41.81,3.61,1.22,2.07.7,4.15,1.4,6.22,2.1.11.04.22.07.33.11,3.41,1.15,6.82,2.3,10.24,3.45,3.25,1.1,6.5,2.19,9.74,3.29,3.32,1.12,6.64,2.24,9.96,3.36,3.31,1.12,6.61,2.23,9.92,3.35,3.5,1.18,7.01,2.36,10.51,3.55,3.12,1.05,6.24,2.11,9.36,3.16,3.85,1.3,7.71,2.6,11.56,3.9.39.13.79.27,1.18.4.1.03.19.07.29.1,1.39.47,2.78.94,4.18,1.41.79.27,1.59.53,2.38.8.65.22,1.3.44,1.95.66.4.13.8.27,1.2.4.19.06.37.13.56.19.25.09.51.17.76.26.14.05.28.1.43.14q.33.12.57.24c.03-.14.05-.28.08-.43.14-.63.34-1.24.56-1.85.12-.34.2-.61.2-.98-2.91-1.27-5.83-2.54-8.75-3.8-.67-.29-1.34-.58-2-.87-.38-.16-.76-.33-1.13-.49-.15-.07-.3-.13-.45-.2-.07-.03-.15-.06-.23-.1l-11.54-5c-.07-.03-.15-.06-.23-.1-.15-.07-.3-.13-.45-.2-.38-.16-.76-.33-1.13-.49-.74-.32-1.49-.64-2.23-.97-1.66-.72-3.32-1.44-4.98-2.15-1.8-.78-3.61-1.56-5.41-2.34-.67-.29-1.35-.58-2.02-.88-.38-.16-.75-.33-1.13-.49-.15-.07-.3-.13-.45-.2-7.46-3.23-14.93-6.47-37.09-16.07-.07-.03-.15-.06-.23-.1l-.45-.2c-.38-.16-.76-.33-1.13-.49-.74-.32-1.49-.64-2.23-.97-1.66-.72-3.32-1.44-4.98-2.15-1.8-.78-3.61-1.56-5.41-2.34-.67-.29-1.35-.58-2.02-.88-.38-.16-.75-.33-1.13-.49-.15-.07-.3-.13-.45-.2-6.33-2.74-12.67-5.49-19-8.23-.07-.03-.15-.06-.23-.1-.15-.07-.3-.13-.45-.2-.38-.16-.75-.33-1.13-.49-.7-.3-1.4-.61-2.1-.91-.33-.14-.65-.28-.98-.42-.15-.07-.31-.13-.46-.2-.96-.42-1.93-.83-2.9-1.23.03-.55.06-1.11.1-1.66.01-.19.02-.38.03-.56.02-.27.03-.54.05-.81,0-.08,0-.17.01-.25.03-.48.08-.94.17-1.41.5.16.98.34,1.46.55.14.06.28.12.43.19.15.07.31.13.46.2.16.07.32.14.48.21.34.15.67.29,1.01.44.69.3,1.39.6,2.09.9.38.16.75.33,1.13.49.15.07.3.13.45.2l19,8.23c.07.03.15.06.23.1l.45.2c.38.16.76.33,1.13.49.74.32,1.49.64,2.23.97,1.66.72,3.32,1.44,4.98,2.15,1.8.78,3.61,1.56,5.41,2.34.67.29,1.35.58,2.02.88.38.16.75.33,1.13.49.15.07.3.13.45.2,7.46,3.23,14.93,6.47,37.09,16.07.07.03.15.06.23.1l.45.2c.38.16.76.33,1.13.49.74.32,1.49.64,2.23.97,1.66.72,3.32,1.44,4.98,2.15,1.8.78,3.61,1.56,5.41,2.34.67.29,1.35.58,2.02.88.38.16.75.33,1.13.49.15.07.3.13.45.2q19,8.23,19.23,8.33c.15.07.3.13.45.2.37.16.75.32,1.12.49.71.31,1.42.62,2.13.92.34.15.67.29,1.01.44.16.07.32.14.48.21.22.1.45.19.67.29.13.06.25.11.39.17.18.08.36.16.54.25.02-.07.04-.14.05-.21.3-1.15.67-2.28,1.03-3.41-.12-.06-.23-.12-.35-.18q-3.88-1.99-5.32-2.75c-.85-.45-1.71-.89-2.56-1.34-1.17-.61-2.35-1.21-3.52-1.83-.89-.46-1.78-.93-2.67-1.39-1.12-.58-2.24-1.16-3.35-1.74-.89-.47-1.78-.93-2.68-1.39-1.12-.58-2.24-1.16-3.35-1.74-.89-.47-1.78-.93-2.68-1.39-1.12-.58-2.24-1.16-3.35-1.74-.89-.47-1.78-.93-2.68-1.39-1.12-.58-2.24-1.16-3.35-1.74-.89-.47-1.78-.93-2.68-1.39-1.12-.58-2.24-1.16-3.35-1.74-.89-.47-1.78-.93-2.68-1.39-1.12-.58-2.24-1.16-3.35-1.74-.89-.47-1.78-.93-2.68-1.39-1.12-.58-2.24-1.16-3.35-1.74-.89-.47-1.78-.93-2.68-1.39-1.12-.58-2.24-1.16-3.35-1.74-.89-.47-1.78-.93-2.68-1.39-1.12-.58-2.24-1.16-3.35-1.74-.89-.47-1.78-.93-2.68-1.39-1.12-.58-2.24-1.16-3.35-1.74-.89-.47-1.78-.93-2.68-1.39-1.12-.58-2.24-1.16-3.35-1.74-.89-.47-1.78-.93-2.68-1.39-1.12-.58-2.24-1.16-3.35-1.74-.89-.47-1.78-.93-2.68-1.39-1.12-.58-2.24-1.16-3.35-1.74-.89-.47-1.78-.93-2.68-1.39-1.12-.58-2.24-1.16-3.35-1.74-.89-.47-1.78-.93-2.68-1.39-1.12-.58-2.24-1.16-3.35-1.74-.89-.47-1.78-.93-2.68-1.39-1.12-.58-2.24-1.16-3.35-1.74-.89-.47-1.78-.93-2.68-1.39-1.12-.58-2.24-1.16-3.35-1.74-.89-.47-1.78-.93-2.68-1.39q-2.33-1.21-3.36-1.75c-.62-.33-1.25-.65-1.88-.96-.14-.07-.28-.14-.42-.21-.27-.14-.54-.27-.81-.4q-.18-.09-.37-.19c-.11-.05-.22-.11-.33-.16q-.25-.19-.35-.46c-.02-.41.06-.73.16-1.13.04-.15.08-.3.12-.46.04-.16.08-.32.13-.47.04-.16.08-.32.12-.48.1-.39.2-.78.31-1.17.39.08.72.23,1.08.41.12.06.23.12.36.18.13.06.25.13.38.19q.2.1.4.2c.85.43,1.7.87,2.54,1.32.87.46,1.75.92,2.63,1.37,1.17.61,2.35,1.21,3.52,1.83.89.46,1.78.93,2.67,1.39,1.12.58,2.24,1.16,3.35,1.74.89.47,1.78.93,2.68,1.39,1.12.58,2.24,1.16,3.35,1.74.89.47,1.78.93,2.68,1.39,1.12.58,2.24,1.16,3.35,1.74.89.47,1.78.93,2.68,1.39,1.12.58,2.24,1.16,3.35,1.74.89.47,1.78.93,2.68,1.39,1.12.58,2.24,1.16,3.35,1.74.89.47,1.78.93,2.68,1.39,1.12.58,2.24,1.16,3.35,1.74.89.47,1.78.93,2.68,1.39,1.12.58,2.24,1.16,3.35,1.74.89.47,1.78.93,2.68,1.39,1.12.58,2.24,1.16,3.35,1.74.89.47,1.78.93,2.68,1.39,1.12.58,2.24,1.16,3.35,1.74.89.47,1.78.93,2.68,1.39,1.12.58,2.24,1.16,3.35,1.74.89.47,1.78.93,2.68,1.39,1.12.58,2.24,1.16,3.35,1.74.89.47,1.78.93,2.68,1.39,1.12.58,2.24,1.16,3.35,1.74.89.47,1.78.93,2.68,1.39,1.12.58,2.24,1.16,3.35,1.74.89.47,1.78.93,2.68,1.39,1.12.58,2.24,1.16,3.35,1.74.89.47,1.78.93,2.68,1.39,1.12.58,2.24,1.16,3.35,1.74.89.47,1.78.93,2.68,1.39,1.12.58,2.24,1.16,3.35,1.74.89.47,1.78.93,2.68,1.39,1.12.58,2.24,1.16,3.35,1.74.89.47,1.78.93,2.68,1.39,1.12.58,2.23,1.16,3.35,1.74.64.33,1.27.66,1.91.99q.11.06.22.11c.35.18.71.37,1.07.55.74.38,1.47.77,2.2,1.18.46-1.07.81-2.17,1.17-3.28.07-.2.13-.41.2-.61.18-.54.36-1.09.53-1.63.19-.57.37-1.13.56-1.7.83-2.53,1.66-5.06,2.49-7.59.69-2.12,1.39-4.25,2.09-6.37.84-2.54,1.67-5.09,2.5-7.63.77-2.36,1.55-4.72,2.32-7.09.05-.16.11-.33.16-.49.05-.16.11-.33.16-.49l.24-.73c.05-.16.11-.33.16-.49.59-1.8,1.18-3.6,1.77-5.4q.07-.23.15-.46c.25-.76.5-1.52.75-2.28.3-.92.6-1.83.9-2.75.02-.08.05-.15.08-.23.13-.38.25-.77.38-1.15.23-.69.45-1.38.68-2.07.13-.38.25-.77.38-1.15.05-.15.1-.31.15-.46.1-.31.2-.61.3-.92q.04-.11.08-.23c.05-.15.1-.31.15-.46.13-.38.25-.77.38-1.15.23-.69.45-1.38.68-2.07.13-.38.25-.77.38-1.15.02-.08.05-.15.08-.23.33-.99.65-1.99.98-2.98,1.02-3.12,2.05-6.24,3.07-9.36.48-1.45.95-2.9,1.43-4.35.03-.08.05-.16.08-.24.31-.95.62-1.9.94-2.85.13-.39.25-.77.38-1.16.53-1.63,1.07-3.25,1.59-4.88.09-.28.18-.56.27-.84.17-.52.34-1.04.51-1.56.07-.23.15-.46.22-.69.03-.11.07-.21.1-.32q.23-.71.37-.85ZM422.2,274.39l.12.36-.12-.36ZM422.08,274.75l.12.24-.12-.24ZM430.16,283.56l.12.24-.12-.24ZM430.04,283.8l.12.24-.12-.24ZM429.92,284.04l.12.24-.12-.24ZM435.47,295.5l.12.24-.12-.24ZM435.23,295.86l.12.24-.12-.24Z"/>
  <path class="cls-24" d="M574.8,386.46q55.92,0,64.42,7.24.15.12.29.25c.6.52,1.13,1.07,1.64,1.68.05.06.1.12.16.18,2.63,3.08,4.15,6.82,4.79,10.8.01.09.03.18.04.27.89,5.85-.26,11.98-3.66,16.86-.63.85-1.33,1.64-2.05,2.41-.11.11-.21.23-.32.34-2.01,2.11-4.55,3.7-7.16,4.97h-.24v.24c.08.01.16.03.25.04,2.31.53,4.74,1.94,6.63,3.34.13.09.25.19.38.28.93.69,1.79,1.45,2.63,2.25.11.11.22.21.34.32,4.22,4.08,6.54,9.88,6.67,15.72.11,6.92-2.16,13.38-6.97,18.41-.14.14-.27.29-.41.43-.73.76-1.57,1.39-2.41,2.03-.07.05-.14.1-.21.16-1.15.87-2.37,1.59-3.65,2.25-.09.05-.17.09-.26.14-16.65,8.74-53.04,3.48-60.9,3.48v-94.09ZM593.86,402.38v23.28c3.38,0,6.75,0,10.23.02,1.06,0,2.12,0,3.22,0q.96,0,1.92,0c.42,0,.85,0,1.27,0,.54,0,1.09,0,1.63,0,.2,0,.4,0,.59,0,1.8,0,3.65-.07,5.4-.53q.15-.04.3-.08c3.1-.84,5.9-2.7,7.54-5.51,1.55-2.99,1.72-6.41.74-9.61-.89-2.7-2.86-4.78-5.37-6.05-2.55-1.23-5.34-1.59-8.15-1.57-.22,0-.43,0-.65,0-.57,0-1.14,0-1.71,0-.54,0-1.08,0-1.62,0-1.57,0-3.14,0-4.71.01-3.51,0-7.03.01-10.65.02ZM593.86,439.65v24.97c3.52,0,7.04,0,10.67.02q1.66,0,3.35,0,1,0,2.01,0c.44,0,.88,0,1.33,0q8.07.06,15.1-3.52c.07-.05.14-.11.22-.17,2.01-1.56,3.08-4.23,3.47-6.66.09-.73.09-1.45.09-2.19,0-.08,0-.16,0-.24-.02-3.22-.96-6.06-3.22-8.42-3.59-3.45-8.79-3.82-13.51-3.81-.22,0-.44,0-.65,0-.58,0-1.15,0-1.73,0-.54,0-1.09,0-1.63,0-1.58,0-3.16,0-4.75,0-3.54,0-7.08,0-10.73,0Z"/>
  <path class="cls-24" d="M800.13,386.46h20.87c.73,1.17,1.46,2.34,2.16,3.53.78,1.32,1.57,2.64,2.36,3.95.75,1.23,1.49,2.47,2.22,3.71q.83,1.41,1.7,2.8c.64,1.01,1.24,2.03,1.85,3.06.68,1.16,1.37,2.31,2.07,3.46.74,1.21,1.46,2.42,2.18,3.63.69,1.17,1.39,2.33,2.1,3.48.77,1.23,1.51,2.48,2.25,3.73.67,1.13,1.35,2.26,2.03,3.39.74,1.21,1.46,2.42,2.18,3.63.69,1.17,1.39,2.33,2.1,3.48.77,1.23,1.51,2.48,2.25,3.73.67,1.13,1.35,2.26,2.03,3.39.74,1.21,1.46,2.42,2.18,3.63.69,1.17,1.39,2.33,2.1,3.48.68,1.09,1.34,2.19,1.99,3.29.15.25.3.5.44.75.43.72.85,1.44,1.27,2.17.07.11.13.23.2.34.12.21.24.41.35.62.05.09.1.18.16.27.04.08.09.15.13.23q.2.24.77.29v-64.05h18.46v94.09h-20.87c-.68-1.15-1.35-2.31-2.05-3.5q-.76-1.25-1.52-2.5c-.58-.95-1.14-1.9-1.71-2.86-.62-1.05-1.25-2.11-1.9-3.14-.7-1.12-1.38-2.26-2.05-3.39-.68-1.14-1.36-2.29-2.05-3.42-.74-1.22-1.47-2.44-2.2-3.67-.62-1.05-1.25-2.11-1.9-3.14-.7-1.12-1.38-2.26-2.05-3.39-.68-1.14-1.36-2.29-2.05-3.42-.74-1.21-1.47-2.43-2.19-3.66-.86-1.44-1.72-2.88-2.6-4.31-.4-.66-.8-1.32-1.2-1.97-.04-.07-.09-.14-.13-.21-.75-1.23-1.49-2.48-2.23-3.72-.71-1.2-1.43-2.4-2.16-3.6-.71-1.17-1.41-2.33-2.11-3.5-.65-1.09-1.31-2.17-1.97-3.25-.85-1.4-1.69-2.81-2.53-4.23-.09-.15-.18-.31-.27-.46-.04-.07-.09-.15-.13-.22-.22-.37-.44-.74-.67-1.11q-.07-.11-.14-.22c-.12-.2-.25-.4-.37-.59q-.17-.3-.17-.54h-.6v64.05h-18.58v-94.09Z"/>
  <path class="cls-16" d="M433.18,204.91c.44.42.83.87,1.2,1.35.06.07.11.15.17.22.12.16.25.32.37.47.19.25.39.5.59.75q3.21,4.11,3.99,5.27c.27.4.56.74.91,1.08.49.52.92,1.01,1.11,1.71-.03.95-.43,1.85-.78,2.72-.38.95-.69,1.91-1.01,2.88-.18.55-.36,1.1-.55,1.65-.41,1.22-.81,2.45-1.21,3.67-.74,2.29-1.49,4.57-2.24,6.85-.28.86-.57,1.73-.85,2.59q-.05.14-.09.29c-.58,1.76-1.16,3.53-1.73,5.29-.77,2.36-1.54,4.71-2.31,7.06-.05.16-.11.33-.16.49q-.04.12-.08.25c-.11.33-.21.65-.32.98-.05.16-.11.33-.16.49-.84,2.56-1.68,5.12-2.52,7.69-.33,1-.66,2-.98,3-1.35,4.12-2.7,8.24-4.05,12.36.69-1.43,1.31-2.88,1.93-4.34.27-.65.55-1.3.83-1.95.1-.23.19-.45.29-.68.67-1.58,1.35-3.16,2.02-4.73.95-2.21,1.89-4.42,2.83-6.63,1.3-3.06,2.61-6.11,3.92-9.16.36-.85.73-1.69,1.09-2.54.06-.14.12-.28.18-.42.18-.42.36-.84.54-1.27.66-1.55,1.33-3.1,1.99-4.65,1.39-3.24,2.77-6.47,4.15-9.71.92-2.17,1.85-4.34,2.78-6.51h.36c.19.24.36.48.52.74q.08.12.16.24c.18.28.35.55.53.83.13.21.27.41.4.62.43.68.86,1.35,1.29,2.03.06.1.13.2.19.3.38.61.76,1.23,1.14,1.85.23.37.46.74.69,1.11.22.35.43.69.65,1.04.11.17.21.34.32.51.15.24.3.48.45.73q.07.11.14.21c.18.3.28.55.23.91-.09.28-.2.55-.32.83-.03.08-.07.17-.1.25-.11.26-.22.52-.34.78-.04.1-.09.2-.13.3-.09.21-.19.43-.28.64-.26.59-.52,1.19-.77,1.78-.05.13-.11.25-.17.38-.62,1.44-1.24,2.89-1.85,4.34-.95,2.24-1.91,4.47-2.86,6.71-.06.14-.12.28-.18.42-.3.71-.61,1.41-.91,2.12-.36.85-.73,1.69-1.09,2.54-.06.14-.12.28-.18.42-.18.42-.36.84-.54,1.27-.66,1.55-1.33,3.1-1.99,4.65-1.25,2.91-2.5,5.82-3.74,8.74-.96,2.26-1.92,4.51-2.89,6.76-.06.14-.12.28-.18.43-.6,1.41-1.21,2.82-1.82,4.23q-.07.16-.14.32c-.21.49-.43.98-.64,1.47-.07.17-.15.33-.22.5-.06.14-.12.29-.19.43q-.15.31-.13.57c.05-.09.09-.18.14-.27.8-1.51,1.6-3.02,2.45-4.5.59-1.03,1.15-2.07,1.71-3.11.58-1.09,1.16-2.17,1.76-3.24.42-.75.83-1.5,1.25-2.25.17-.3.33-.61.5-.91.04-.08.08-.15.13-.23.29-.53.59-1.06.88-1.59.83-1.49,1.65-2.99,2.46-4.49.42-.77.84-1.54,1.27-2.31.55-.99,1.1-1.99,1.65-2.99.08-.15.17-.3.25-.46.04-.08.08-.15.13-.23.29-.53.59-1.06.88-1.59.83-1.49,1.65-2.99,2.46-4.49.42-.77.84-1.54,1.27-2.31.47-.84.94-1.69,1.4-2.53.08-.15.17-.3.25-.45.13-.23.25-.46.38-.69.3-.54.59-1.08.89-1.61.92-1.66,1.84-3.33,2.75-4.99.49.42.74.92,1.02,1.5.05.1.1.2.15.3.16.32.32.64.48.96.16.31.32.63.47.94.1.21.21.41.31.62.31.62.64,1.24.97,1.85.4.75.78,1.51,1.14,2.27.05.12.11.23.17.35.11.22.21.45.32.68.1.21.2.42.3.62.05.09.09.19.14.28.04.08.08.16.12.25.13.45-.01.77-.21,1.19-.07.12-.14.24-.21.37-.08.14-.15.28-.23.42-.08.15-.17.3-.25.45-.09.16-.17.31-.26.47-.18.33-.36.65-.54.97-.38.68-.76,1.37-1.14,2.05-.12.22-.24.44-.36.66-.58,1.05-1.15,2.11-1.73,3.17-.42.77-.84,1.54-1.27,2.31-.55.99-1.1,1.99-1.65,2.99-.08.15-.17.3-.25.46-.04.08-.08.15-.13.23-.29.53-.59,1.06-.88,1.59-.83,1.49-1.65,2.99-2.46,4.49-.42.77-.84,1.54-1.27,2.31-.55.99-1.1,1.99-1.65,2.99-.08.15-.17.3-.25.46q-.06.11-.13.23c-.29.53-.59,1.06-.88,1.59-.83,1.49-1.65,2.99-2.46,4.49-.42.77-.84,1.54-1.27,2.31-.47.84-.94,1.69-1.4,2.53-.08.15-.17.3-.25.45-.13.23-.25.46-.38.69-.3.54-.59,1.08-.89,1.61-.92,1.66-1.84,3.33-2.75,4.99.42-.51.81-1.05,1.2-1.59.14-.2.28-.39.42-.59.07-.1.14-.2.22-.3.2-.28.4-.56.61-.84.75-1.04,1.5-2.09,2.23-3.14.53-.77,1.08-1.52,1.63-2.28.68-.94,1.35-1.89,2.02-2.84.8-1.14,1.61-2.28,2.43-3.41.5-.69,1-1.39,1.49-2.09.43-.62.88-1.23,1.32-1.84.54-.75,1.07-1.5,1.58-2.26.54-.79,1.1-1.57,1.68-2.33.53-.7,1.03-1.42,1.52-2.15.64-.94,1.3-1.86,1.97-2.77,1.08-1.49,2.15-2.99,3.21-4.49.8-1.14,1.61-2.28,2.43-3.41.34-.46.67-.93,1-1.4.07-.09.13-.19.2-.29.13-.18.25-.36.37-.55.06-.08.11-.16.17-.25.05-.07.1-.14.15-.22q.15-.17.51-.29c1.1,2.69,2.2,5.37,3.23,8.08.08.21.16.42.24.63.11.29.22.58.33.87.03.08.07.17.1.26.14.37.2.6.11.99-.16.27-.32.53-.5.79-.07.1-.13.19-.2.29-.07.1-.14.2-.22.31-.08.11-.15.21-.23.32-.56.79-1.13,1.58-1.69,2.36-.68.94-1.35,1.89-2.02,2.84-.8,1.14-1.61,2.28-2.43,3.41-.69.95-1.36,1.91-2.03,2.86-.8,1.14-1.61,2.28-2.43,3.41-.69.95-1.36,1.91-2.03,2.86-.8,1.14-1.61,2.28-2.43,3.41-.69.95-1.36,1.91-2.03,2.86-.8,1.14-1.61,2.28-2.43,3.41-.5.69-1,1.39-1.49,2.09-.43.62-.88,1.23-1.32,1.84-.62.85-1.22,1.72-1.81,2.59-.44.65-.91,1.27-1.4,1.89.46-.35.86-.74,1.24-1.17.13-.14.26-.28.38-.42q.1-.11.21-.23c.38-.42.78-.83,1.17-1.25.61-.65,1.22-1.3,1.83-1.95.96-1.03,1.92-2.05,2.87-3.07.88-.94,1.76-1.88,2.63-2.81.59-.63,1.18-1.26,1.77-1.89.51-.54,1.01-1.08,1.52-1.63.96-1.03,1.92-2.05,2.88-3.08.88-.94,1.76-1.88,2.63-2.81.59-.63,1.18-1.26,1.77-1.89.51-.54,1.01-1.08,1.52-1.63.96-1.03,1.92-2.05,2.88-3.08.23-.24.46-.49.68-.73.07-.08.15-.16.22-.24.38-.41.77-.82,1.15-1.23.08-.08.15-.17.23-.25.15-.16.29-.31.44-.47.07-.07.13-.14.2-.21.06-.06.11-.12.17-.19.06-.06.11-.12.17-.18.06-.07.12-.13.19-.2q.17-.16.42-.16,1.64,5.55,2.27,7.9c.05.17.09.35.14.52.07.24.13.48.19.72.04.13.07.26.11.4.06.37.05.6-.06.96q-.27.32-.62.64c-.48.46-.93.93-1.36,1.43-.26.3-.54.57-.83.85-.22.22-.42.45-.63.69-.29.34-.59.66-.91.97-.32.31-.62.63-.9.97-.36.42-.75.81-1.15,1.21-.31.31-.59.64-.88.97-.27.3-.55.58-.84.86-.22.22-.42.45-.63.69-.37.43-.76.82-1.16,1.21-.31.31-.59.64-.88.97-.27.3-.55.58-.84.86-.22.22-.42.45-.63.69-.29.34-.59.66-.91.97-.32.31-.62.63-.9.97-.36.42-.75.81-1.15,1.21-.31.31-.59.64-.88.97-.27.3-.55.58-.84.86-.22.22-.42.45-.63.69-.37.43-.76.82-1.16,1.21-.31.31-.59.64-.88.97-.27.3-.55.58-.84.86-.22.22-.42.45-.63.69-.29.34-.59.66-.91.97-.32.31-.62.63-.9.97s-.59.65-.9.97c-.57.56-1.12,1.14-1.57,1.81.08-.07.16-.14.24-.21.72-.61,1.45-1.19,2.2-1.76.68-.52,1.36-1.05,2.02-1.59.65-.54,1.32-1.06,1.99-1.57.76-.58,1.51-1.17,2.25-1.78.72-.59,1.45-1.16,2.18-1.74.35-.27.7-.55,1.05-.83.14-.11.28-.22.42-.33.07-.05.14-.11.21-.17q.63-.5.84-.66c.14-.11.28-.22.42-.33.35-.28.7-.55,1.05-.82.73-.57,1.45-1.14,2.18-1.72.79-.63,1.59-1.26,2.38-1.89.35-.28.7-.55,1.05-.83.14-.11.28-.22.42-.33.07-.05.14-.11.21-.17q.63-.5.84-.66c.14-.11.28-.22.42-.33.35-.28.7-.55,1.05-.82.14-.11.28-.22.42-.33.07-.05.14-.11.21-.16.38-.3.76-.6,1.14-.91.08-.07.16-.13.25-.2.16-.13.32-.26.48-.39.32-.26.56-.45.95-.58.46,2.21.84,4.42,1.19,6.65.02.12.04.24.06.37.05.35.11.69.16,1.04.02.1.03.21.05.31q.16,1.04.11,1.4-.14.19-.35.35t-.23.18c-.08.06-.17.13-.25.19-.09.07-.17.14-.26.21-.28.21-.55.43-.83.64-.17.13-.34.26-.52.4-.25.19-.51.39-.77.58-.68.51-1.34,1.05-2,1.59-.72.59-1.45,1.16-2.18,1.74-.35.27-.7.55-1.05.83-.14.11-.28.22-.42.33-.07.05-.14.11-.21.17q-.63.5-.84.66c-.14.11-.28.22-.42.33-.35.28-.7.55-1.05.82-.73.57-1.45,1.14-2.18,1.72-1.37,1.1-2.76,2.19-4.16,3.26,1.08-.52,2.14-1.08,3.18-1.67,1.18-.67,2.37-1.31,3.57-1.95,1.16-.61,2.31-1.22,3.44-1.87,1.31-.75,2.65-1.46,3.99-2.17,1.09-.57,2.17-1.16,3.25-1.76q.65-.36.78-.36c.42,3,.53,6.02.48,9.05q-.14.08-.29.15c-1.78.95-3.57,1.9-5.34,2.87-.45.25-.9.49-1.35.74-1.55.84-3.1,1.69-4.63,2.57-.47.27-.94.53-1.42.79,1.07-.37,2.15-.75,3.22-1.12.26-.09.52-.18.78-.27,1.74-.61,3.48-1.21,5.21-1.84q.18-.06.36-.13c.54-.2,1.09-.39,1.63-.59.19-.07.38-.14.57-.21.08-.03.17-.06.26-.09.4-.14.68-.21,1.12-.21-.05,2.7-.14,5.39-.36,8.08-.81.33-1.63.64-2.46.93-.11.04-.23.08-.34.12-.36.12-.72.25-1.07.37-.24.08-.49.17-.73.25-.59.21-1.19.41-1.78.62q.18-.03.37-.06c.46-.08.92-.16,1.38-.23.2-.03.39-.07.59-.1,1.31-.22,2.61-.42,3.93-.57-.29,2.63-.64,5.24-1.09,7.84-.41-.13-.81-.27-1.19-.47q-.13-.07-.26-.14-.14-.07-.28-.15c-.2-.11-.41-.22-.61-.33-.11-.06-.22-.12-.33-.18-.62-.33-1.24-.65-1.85-.97-.88-.45-1.75-.91-2.62-1.37-1.89-1-3.8-1.98-5.7-2.96-.35-.18-.69-.36-1.04-.53-.09-.04-.17-.09-.26-.13-1.03-.53-2.06-1.07-3.09-1.61-.86-.45-1.72-.9-2.58-1.34-1.17-.61-2.35-1.21-3.52-1.83-.89-.46-1.78-.93-2.67-1.39-1.12-.58-2.24-1.16-3.35-1.74-.89-.47-1.78-.93-2.68-1.39-1.12-.58-2.24-1.16-3.35-1.74-.89-.47-1.78-.93-2.68-1.39-1.12-.58-2.24-1.16-3.35-1.74-.89-.47-1.78-.93-2.68-1.39-1.12-.58-2.24-1.16-3.35-1.74-.89-.47-1.78-.93-2.68-1.39-1.12-.58-2.24-1.16-3.35-1.74-.89-.47-1.78-.93-2.68-1.39-1.12-.58-2.24-1.16-3.35-1.74-.89-.47-1.78-.93-2.68-1.39-1.12-.58-2.24-1.16-3.35-1.74-.9-.47-1.8-.93-2.69-1.4-1.38-.72-2.77-1.44-4.15-2.16.15-.72.33-1.41.56-2.1q.05-.14.1-.29c.1-.31.21-.63.31-.94.07-.22.15-.45.22-.67.2-.59.39-1.18.59-1.78.31-.93.61-1.86.92-2.78.08-.23.15-.46.23-.7.64-1.92,1.26-3.84,1.89-5.76.44-1.36.88-2.71,1.33-4.07.03-.09.06-.17.09-.26.14-.44.29-.87.43-1.31.31-.95.62-1.89.94-2.84q.05-.14.09-.29c.58-1.76,1.16-3.52,1.73-5.29.77-2.36,1.54-4.71,2.31-7.06.05-.16.11-.33.16-.49q.04-.12.08-.25c.11-.33.21-.65.32-.98.05-.16.11-.33.16-.49.59-1.8,1.18-3.6,1.77-5.4.05-.15.1-.3.15-.46.25-.76.5-1.52.75-2.28.3-.92.6-1.83.9-2.75q.04-.11.08-.23c.13-.38.25-.77.38-1.15.23-.69.45-1.38.68-2.07.13-.38.25-.77.38-1.15.05-.15.1-.31.15-.46.1-.31.2-.61.3-.92.02-.08.05-.15.08-.23.05-.15.1-.31.15-.46.13-.38.25-.77.38-1.15.23-.69.45-1.38.68-2.07.13-.38.25-.77.38-1.15.02-.08.05-.15.08-.23.33-.99.65-1.99.98-2.98,1.02-3.12,2.05-6.24,3.07-9.36.48-1.45.95-2.9,1.43-4.35.03-.08.05-.16.08-.24.31-.95.62-1.9.94-2.85.13-.39.25-.77.38-1.16.53-1.63,1.07-3.25,1.59-4.88.09-.28.18-.56.27-.84.17-.52.34-1.04.51-1.56.07-.23.15-.46.22-.69q.05-.16.1-.32.23-.71.37-.85ZM422.2,274.39l.12.36-.12-.36ZM422.08,274.75l.12.24-.12-.24ZM430.16,283.56l.12.24-.12-.24ZM430.04,283.8l.12.24-.12-.24ZM429.92,284.04l.12.24-.12-.24ZM435.47,295.5l.12.24-.12-.24ZM435.23,295.86l.12.24-.12-.24Z"/>
  <path class="cls-24" d="M667.56,386.46q47.92,0,55.49,3.74c.09.04.18.09.27.13,2.33,1.16,4.48,2.65,6.36,4.45.07.07.14.13.22.2,4.52,4.3,6.92,10.06,7.62,16.2q.02.14.03.28c.88,8.07-1.02,16.45-6.12,22.84-.95,1.13-1.94,2.25-3.08,3.17-.13.11-.26.22-.39.33-2.64,2.19-5.6,3.73-8.78,4.98,0,.5.26.79.54,1.19.06.08.11.17.17.26.13.18.25.37.38.55.2.3.41.59.61.89.29.43.58.85.87,1.28.66.97,1.32,1.94,1.97,2.91.22.33.44.65.66.98,1.07,1.58,2.12,3.17,3.18,4.76.81,1.22,1.63,2.43,2.47,3.63.77,1.1,1.52,2.22,2.26,3.34,1.1,1.65,2.21,3.3,3.32,4.94,1.15,1.7,2.29,3.41,3.42,5.12.77,1.15,1.54,2.29,2.34,3.42.64.91,1.25,1.83,1.86,2.76.05.08.1.16.16.24.15.22.29.45.44.67.09.13.17.26.26.4q.18.3.18.42c-2.88.03-5.75.05-8.63.07-1.34,0-2.67.02-4.01.03-1.16.01-2.33.02-3.49.02-.62,0-1.23,0-1.85.02-.58,0-1.16.01-1.74,0-.21,0-.43,0-.64,0q-1.61.04-2.17-.45c-.25-.34-.44-.66-.63-1.04-.09-.14-.18-.27-.28-.41-.08-.11-.15-.23-.23-.35-.04-.07-.09-.13-.13-.2-.09-.14-.19-.28-.28-.42-.26-.4-.53-.79-.79-1.19-.06-.08-.11-.17-.17-.26-.7-1.05-1.41-2.1-2.11-3.14-.07-.1-.14-.2-.21-.31-.35-.52-.7-1.04-1.05-1.56-.62-.91-1.23-1.82-1.85-2.73-.34-.5-.68-1-1.02-1.51-.14-.2-.27-.4-.41-.6-.07-.1-.13-.2-.2-.3q-7.12-10.55-7.33-10.86c-.14-.2-.27-.4-.41-.6-.34-.5-.68-1.01-1.02-1.51-.61-.9-1.22-1.8-1.83-2.7-1.54-2.28-3.08-4.57-4.62-6.85-.99-1.47-1.98-2.94-2.97-4.4-.2-.3-.4-.59-.6-.89-.64-.94-1.27-1.88-1.91-2.83-.31-.45-.61-.9-.92-1.36-.15-.22-.29-.43-.44-.65-.2-.3-.41-.6-.61-.9-.06-.09-.12-.18-.18-.27q-.41-.61-.41-.75c.07,0,.14,0,.22,0,1.74,0,3.48-.02,5.23-.03.84,0,1.69-.01,2.53-.02.82,0,1.63-.01,2.44-.02.31,0,.62,0,.93,0,2.29-.01,4.58-.04,6.82-.61.13-.03.25-.06.38-.09,3.49-.9,6.58-2.87,8.46-5.99,2.05-3.53,2.5-8.06,1.51-11.99-.9-3.2-2.77-5.91-5.71-7.56-.56-.3-1.12-.57-1.7-.83-.12-.06-.25-.11-.37-.17-1.67-.71-3.53-1.03-5.33-1.17-.13,0-.26-.02-.39-.03-1.62-.11-3.24-.12-4.86-.12-.45,0-.9,0-1.35,0-.84,0-1.69-.01-2.53-.01-.96,0-1.93-.01-2.89-.02-1.98-.01-3.95-.02-5.93-.03,0,.07,0,.14,0,.21,0,5.51,0,11.02,0,16.54,0,.33,0,.65,0,.98,0,11.37,0,22.75-.07,42.66,0,.32,0,.65,0,.97,0,1.49-.01,2.98-.02,4.46q0,.14,0,.29c-.01,3.82-.03,7.64-.04,11.47h-18.94v-94.09Z"/>
  <path class="cls-24" d="M433.06,386.46h20.14q.83,2.49,1.11,3.43.05.16.1.33c.11.35.21.7.31,1.05.08.25.15.51.23.76.2.66.4,1.33.6,1.99.35,1.18.7,2.35,1.05,3.53.04.13.08.26.12.39.57,1.91,1.15,3.81,1.73,5.72.61,1.98,1.21,3.96,1.81,5.95q.06.19.11.38c.3,1.01.6,2.02.9,3.02.26.88.53,1.76.79,2.65.04.12.07.25.11.37.69,2.29,1.39,4.58,2.09,6.87.04.12.07.24.11.36.04.12.07.23.11.35.41,1.33.81,2.66,1.21,4,.21.7.42,1.41.63,2.11.08.26.16.52.24.78.68,2.26,1.36,4.52,2.05,6.78.34,1.11.67,2.22,1.01,3.33q.06.19.12.38c.63,2.07,1.25,4.14,1.88,6.21q.06.22.13.43c.42,1.4.85,2.8,1.27,4.2.87,2.9,1.75,5.79,2.63,8.68.2.04.4.08.6.12.01-.07.02-.14.04-.21.16-.89.41-1.74.68-2.6.05-.16.1-.32.15-.48.1-.34.21-.68.31-1.02.17-.55.34-1.1.51-1.65.18-.59.36-1.17.54-1.76.6-1.97,1.2-3.94,1.8-5.91.18-.6.36-1.2.55-1.8.03-.1.06-.2.09-.3l.18-.61c.12-.4.25-.81.37-1.21.39-1.3.79-2.6,1.19-3.9.03-.1.06-.2.09-.3.15-.5.3-.99.45-1.49.27-.89.54-1.79.81-2.68.15-.5.3-.99.45-1.49.06-.2.12-.4.18-.6,2.05-6.75,4.1-13.5,6.15-20.25.03-.1.06-.2.09-.3.06-.2.12-.4.18-.6.15-.5.3-.99.45-1.49.27-.89.54-1.78.81-2.68.15-.49.3-.99.45-1.48.03-.1.06-.2.09-.3.43-1.42.86-2.84,1.29-4.25,1.14-3.76,2.28-7.51,3.43-11.27.07-.23.14-.46.21-.7.13-.42.26-.84.39-1.27.04-.12.08-.25.11-.37.03-.11.07-.22.1-.34q.04-.15.09-.29c.06-.2.13-.41.2-.61h19.54q-.7,2.37-1.04,3.45c-.03.08-.05.16-.08.24-.03.08-.05.16-.08.25-.06.18-.11.35-.17.53-.12.38-.24.76-.36,1.13-.19.61-.38,1.21-.57,1.82-.23.74-.47,1.48-.7,2.22-.41,1.3-.82,2.6-1.23,3.9-.03.09-.06.19-.09.28-.15.47-.3.94-.45,1.41-.27.86-.54,1.71-.81,2.57-.15.48-.3.96-.45,1.43-.06.19-.12.38-.18.57-.03.09-.06.19-.09.29q-6.06,19.19-6.15,19.48c-.06.19-.12.38-.18.57-.15.48-.3.96-.45,1.43-.27.86-.54,1.72-.81,2.58-.15.48-.3.95-.45,1.43-.03.09-.06.19-.09.29-.42,1.34-.85,2.68-1.27,4.02-.27.86-.55,1.73-.82,2.59-.03.09-.06.19-.09.29-.91,2.89-1.83,5.78-2.74,8.68-1.24,3.95-2.49,7.9-3.74,11.84-.57,1.82-1.15,3.64-1.72,5.46-.21.66-.42,1.32-.63,1.98-.57,1.8-1.14,3.59-1.7,5.39-.24.75-.47,1.5-.71,2.25-.19.61-.39,1.22-.58,1.84-.12.38-.24.75-.36,1.13-.06.17-.11.35-.17.52-.08.24-.15.48-.23.72-.04.13-.08.27-.13.4-.12.37-.24.73-.36,1.1h-25.93c-.21-.55-.41-1.09-.59-1.65-.04-.13-.08-.25-.12-.39-.04-.14-.09-.27-.13-.41q-.07-.22-.14-.44c-.13-.4-.25-.8-.38-1.2-.08-.25-.16-.51-.24-.76-.84-2.65-1.67-5.3-2.5-7.95-.84-2.69-1.69-5.38-2.54-8.07-.91-2.89-1.82-5.78-2.73-8.68-.85-2.74-1.72-5.47-2.58-8.21-.91-2.89-1.82-5.78-2.73-8.68-.85-2.74-1.72-5.47-2.58-8.21-.91-2.89-1.82-5.78-2.73-8.68-.85-2.74-1.72-5.47-2.58-8.21-.94-2.97-1.87-5.93-2.8-8.9-.58-1.85-1.16-3.71-1.75-5.56-.1-.32-.2-.64-.3-.96-.3-.93-.59-1.86-.89-2.79-.12-.38-.24-.76-.36-1.15-.06-.18-.11-.36-.17-.53-.08-.24-.16-.49-.23-.74-.04-.14-.09-.27-.13-.42-.14-.5-.25-1.01-.36-1.51Z"/>
  <path class="cls-7" d="M278.53,230.48c.39.08.72.23,1.08.41.12.06.23.12.36.18.13.06.25.13.38.19.13.07.26.13.4.2.85.43,1.7.87,2.54,1.32.87.46,1.75.92,2.63,1.37,1.17.61,2.35,1.21,3.52,1.83.89.46,1.78.93,2.67,1.39,1.12.58,2.24,1.16,3.35,1.74.89.47,1.78.93,2.68,1.39,1.12.58,2.24,1.16,3.35,1.74.89.47,1.78.93,2.68,1.39,1.12.58,2.24,1.16,3.35,1.74.89.47,1.78.93,2.68,1.39,1.12.58,2.24,1.16,3.35,1.74.89.47,1.78.93,2.68,1.39,1.12.58,2.24,1.16,3.35,1.74.89.47,1.78.93,2.68,1.39,1.12.58,2.24,1.16,3.35,1.74.89.47,1.78.93,2.68,1.39,1.12.58,2.24,1.16,3.35,1.74.89.47,1.78.93,2.68,1.39,1.12.58,2.24,1.16,3.35,1.74.89.47,1.78.93,2.68,1.39,1.12.58,2.24,1.16,3.35,1.74.89.47,1.78.93,2.68,1.39,1.12.58,2.24,1.16,3.35,1.74.89.47,1.78.93,2.68,1.39,1.12.58,2.24,1.16,3.35,1.74.89.47,1.78.93,2.68,1.39,1.12.58,2.24,1.16,3.35,1.74.89.47,1.78.93,2.68,1.39,1.12.58,2.24,1.16,3.35,1.74.89.47,1.78.93,2.68,1.39,1.12.58,2.24,1.16,3.35,1.74.89.47,1.78.93,2.68,1.39,1.12.58,2.24,1.16,3.35,1.74.89.47,1.78.93,2.68,1.39,1.12.58,2.24,1.16,3.35,1.74.89.47,1.78.93,2.68,1.39,1.12.58,2.24,1.16,3.35,1.74.89.47,1.78.93,2.68,1.39,1.12.58,2.24,1.16,3.35,1.74.62.33,1.25.65,1.87.97q2.42,1.25,3.46,1.84c1.52.86,3.08,1.63,4.64,2.43.64.33,1.28.66,1.92,1,.94.5,1.88.98,2.82,1.47,1.17.61,2.35,1.21,3.52,1.83.89.46,1.78.93,2.67,1.39,1.12.58,2.24,1.16,3.35,1.74.89.47,1.78.93,2.68,1.39,1.12.58,2.24,1.16,3.35,1.74.89.47,1.78.93,2.68,1.39,1.12.58,2.24,1.16,3.35,1.74.89.47,1.78.93,2.68,1.39,1.12.58,2.24,1.16,3.35,1.74.89.47,1.78.93,2.68,1.39,1.12.58,2.24,1.16,3.35,1.74.89.47,1.78.93,2.68,1.39,1.12.58,2.24,1.16,3.35,1.74.89.47,1.78.93,2.68,1.39,1.12.58,2.24,1.16,3.35,1.74,1.03.54,2.06,1.07,3.1,1.61.96.5,1.91.99,2.87,1.49.71.37,1.42.74,2.14,1.1.37.19.73.38,1.1.56.09.05.18.09.28.14,1.2.61,2.38,1.24,3.56,1.89.89.49,1.79.94,2.7,1.39.56.28,1.09.56,1.6.92-.07,1.02-.28,1.99-.51,2.99-.02.08-.04.16-.06.25-.25,1.09-.51,2.18-.8,3.27-.03.11-.06.22-.09.34-.03.1-.05.2-.08.3-.02.09-.05.17-.07.26-.03.07-.06.13-.09.2-.45.15-.61.07-1.06-.08-.14-.05-.29-.1-.44-.14-.16-.05-.32-.11-.47-.16-.16-.06-.33-.11-.49-.17-.44-.15-.88-.3-1.32-.45-.46-.16-.92-.31-1.38-.46-2.14-.72-4.27-1.44-6.4-2.17-1.52-.52-3.04-1.03-4.56-1.54-1.56-.52-3.11-1.04-4.66-1.58-1.73-.59-3.47-1.18-5.21-1.76-1.84-.61-3.68-1.23-5.52-1.86-1.56-.53-3.12-1.06-4.68-1.58-1.7-.57-3.41-1.14-5.1-1.72-.1-.04-.21-.07-.31-.11-1.01-.34-2.01-.69-3.02-1.04-1.55-.54-3.11-1.06-4.67-1.56-1.44-.46-2.87-.95-4.3-1.45-.87-.3-1.74-.6-2.61-.9-.1-.03-.19-.07-.29-.1-1.84-.63-3.69-1.23-5.54-1.83-.91-.29-1.82-.59-2.72-.94-1.29-.49-2.6-.91-3.91-1.33q-3.01-.98-4.37-1.43c-.1-.03-.2-.06-.3-.1-.48-.16-.96-.33-1.43-.53-.72-.29-1.46-.51-2.21-.74-1.28-.39-2.56-.8-3.83-1.22q-.12-.04-.24-.08c-.49-.16-.99-.33-1.48-.5-.26-.09-.52-.17-.78-.26-2.26-.76-4.52-1.52-6.78-2.29-1.52-.52-3.04-1.03-4.56-1.53-1.67-.55-3.33-1.12-5-1.69-1.56-.54-3.13-1.06-4.7-1.58-1.66-.55-3.32-1.11-4.98-1.68-1.73-.59-3.47-1.18-5.21-1.76-1.84-.61-3.68-1.23-5.52-1.86-1.66-.57-3.33-1.13-5-1.68-1.67-.55-3.33-1.12-5-1.69-1.56-.54-3.13-1.06-4.7-1.58-1.77-.59-3.55-1.19-5.31-1.79-1.56-.54-3.13-1.06-4.7-1.58-1.66-.55-3.32-1.11-4.98-1.68-1.73-.59-3.47-1.18-5.21-1.76-1.84-.61-3.68-1.23-5.52-1.86-1.66-.57-3.33-1.13-5-1.68-1.67-.55-3.33-1.12-5-1.69-1.56-.54-3.13-1.06-4.7-1.58-1.77-.59-3.55-1.19-5.31-1.79-1.56-.54-3.13-1.06-4.7-1.58-1.76-.59-3.53-1.18-5.28-1.78-1.23-.42-2.47-.84-3.71-1.25q-.19-.06-.38-.13c-.61-.2-1.23-.41-1.84-.61-.22-.07-.44-.15-.66-.22q-.15-.05-.31-.1-.7-.23-.84-.37c-.05-.3-.08-.6-.12-.9q-.02-.14-.03-.28c-.02-.19-.04-.39-.07-.58-.03-.29-.07-.59-.1-.88-.02-.19-.04-.38-.06-.56q-.02-.13-.03-.26c-.07-.62-.08-1.23-.07-1.85.75.15,1.46.35,2.18.6.1.04.21.07.32.11.34.12.69.23,1.03.35.25.08.49.17.74.25.66.22,1.32.45,1.98.67.69.23,1.39.47,2.08.7,1.26.42,2.51.85,3.77,1.27,1.22.41,2.45.83,3.67,1.24.38.13.76.26,1.14.39q.14.05.28.09c.93.31,1.86.63,2.79.94,2.56.87,5.13,1.73,7.69,2.59.22.07.44.15.65.22,1.2.41,2.41.81,3.61,1.22,2.07.7,4.15,1.4,6.22,2.1.11.04.22.07.33.11,3.41,1.15,6.82,2.3,10.24,3.45,3.25,1.1,6.5,2.19,9.74,3.29,3.32,1.12,6.64,2.24,9.96,3.36,3.31,1.12,6.61,2.23,9.92,3.35,3.5,1.18,7.01,2.36,10.51,3.55,3.12,1.05,6.24,2.11,9.36,3.16,3.85,1.3,7.71,2.6,11.56,3.9.39.13.79.27,1.18.4.1.03.19.07.29.1,1.39.47,2.78.94,4.18,1.41.79.27,1.59.53,2.38.8.65.22,1.3.44,1.95.66.4.13.8.27,1.2.4.19.06.37.13.56.19.25.09.51.17.76.26.14.05.28.1.43.14q.33.12.57.24c.03-.14.05-.28.08-.43.14-.63.34-1.24.56-1.85.12-.34.2-.61.2-.98-2.91-1.27-5.83-2.54-8.75-3.8-.67-.29-1.34-.58-2-.87-.38-.16-.76-.33-1.13-.49-.15-.07-.3-.13-.45-.2-.07-.03-.15-.06-.23-.1l-11.54-5c-.07-.03-.15-.06-.23-.1l-.45-.2c-.38-.16-.76-.33-1.13-.49-.74-.32-1.49-.64-2.23-.97-1.66-.72-3.32-1.44-4.98-2.15-1.8-.78-3.61-1.56-5.41-2.34-.67-.29-1.35-.58-2.02-.88-.38-.16-.75-.33-1.13-.49-.15-.07-.3-.13-.45-.2-7.46-3.23-14.93-6.47-37.09-16.07-.07-.03-.15-.06-.23-.1-.15-.07-.3-.13-.45-.2-.38-.16-.76-.33-1.13-.49-.74-.32-1.49-.64-2.23-.97-1.66-.72-3.32-1.44-4.98-2.15-1.8-.78-3.61-1.56-5.41-2.34-.67-.29-1.35-.58-2.02-.88-.38-.16-.75-.33-1.13-.49-.15-.07-.3-.13-.45-.2-6.33-2.74-12.67-5.49-19-8.23-.07-.03-.15-.06-.23-.1-.15-.07-.3-.13-.45-.2-.38-.16-.75-.33-1.13-.49-.7-.3-1.4-.61-2.1-.91-.33-.14-.65-.28-.98-.42-.15-.07-.31-.13-.46-.2-.96-.42-1.93-.83-2.9-1.23.03-.55.06-1.11.1-1.66.01-.19.02-.38.03-.56.02-.27.03-.54.05-.81,0-.08,0-.17.01-.25.03-.48.08-.94.17-1.41.5.16.98.34,1.46.55.14.06.28.12.43.19.15.07.31.13.46.2.16.07.32.14.48.21.34.15.67.29,1.01.44.69.3,1.39.6,2.09.9.38.16.75.33,1.13.49.15.07.3.13.45.2l19,8.23c.07.03.15.06.23.1.15.07.3.13.45.2.38.16.76.33,1.13.49.74.32,1.49.64,2.23.97,1.66.72,3.32,1.44,4.98,2.15,1.8.78,3.61,1.56,5.41,2.34.67.29,1.35.58,2.02.88.38.16.75.33,1.13.49.15.07.3.13.45.2,7.46,3.23,14.93,6.47,37.09,16.07.07.03.15.06.23.1l.45.2c.38.16.76.33,1.13.49.74.32,1.49.64,2.23.97,1.66.72,3.32,1.44,4.98,2.15,1.8.78,3.61,1.56,5.41,2.34.67.29,1.35.58,2.02.88.38.16.75.33,1.13.49.15.07.3.13.45.2q19,8.23,19.23,8.33c.15.07.3.13.45.2.37.16.75.32,1.12.49.71.31,1.42.62,2.13.92.34.15.67.29,1.01.44.16.07.32.14.48.21.22.1.45.19.67.29.13.06.25.11.39.17.18.08.36.16.54.25.02-.07.04-.14.05-.21.3-1.15.67-2.28,1.03-3.41-.12-.06-.23-.12-.35-.18q-3.88-1.99-5.32-2.75c-.85-.45-1.71-.89-2.56-1.34-1.17-.61-2.35-1.21-3.52-1.83-.89-.46-1.78-.93-2.67-1.39-1.12-.58-2.24-1.16-3.35-1.74-.89-.47-1.78-.93-2.68-1.39-1.12-.58-2.24-1.16-3.35-1.74-.89-.47-1.78-.93-2.68-1.39-1.12-.58-2.24-1.16-3.35-1.74-.89-.47-1.78-.93-2.68-1.39-1.12-.58-2.24-1.16-3.35-1.74-.89-.47-1.78-.93-2.68-1.39-1.12-.58-2.24-1.16-3.35-1.74-.89-.47-1.78-.93-2.68-1.39-1.12-.58-2.24-1.16-3.35-1.74-.89-.47-1.78-.93-2.68-1.39-1.12-.58-2.24-1.16-3.35-1.74-.89-.47-1.78-.93-2.68-1.39-1.12-.58-2.24-1.16-3.35-1.74-.89-.47-1.78-.93-2.68-1.39-1.12-.58-2.24-1.16-3.35-1.74-.89-.47-1.78-.93-2.68-1.39-1.12-.58-2.24-1.16-3.35-1.74-.89-.47-1.78-.93-2.68-1.39-1.12-.58-2.24-1.16-3.35-1.74-.89-.47-1.78-.93-2.68-1.39-1.12-.58-2.24-1.16-3.35-1.74-.89-.47-1.78-.93-2.68-1.39-1.12-.58-2.24-1.16-3.35-1.74-.89-.47-1.78-.93-2.68-1.39-1.12-.58-2.24-1.16-3.35-1.74-.89-.47-1.78-.93-2.68-1.39-1.12-.58-2.24-1.16-3.35-1.74-.89-.47-1.78-.93-2.68-1.39-1.12-.58-2.24-1.16-3.35-1.74-.89-.47-1.78-.93-2.68-1.39-1.12-.58-2.24-1.16-3.35-1.74-.89-.47-1.78-.93-2.68-1.39q-2.33-1.21-3.36-1.75c-.62-.33-1.25-.65-1.88-.96-.14-.07-.28-.14-.42-.21-.27-.14-.54-.27-.81-.4q-.18-.09-.37-.19c-.11-.05-.22-.11-.33-.16q-.25-.19-.35-.46c-.02-.41.06-.73.16-1.13.04-.15.08-.3.12-.46.04-.16.08-.32.13-.47.04-.16.08-.32.12-.48.1-.39.2-.78.31-1.17Z"/>
  <path class="cls-24" d="M892.53,386.46h78.29v17.01h-29.43v77.08h-19.42v-77.08h-29.43v-17.01Z"/>
  <path class="cls-22" d="M433.42,338.45v.12c-.09.02-.18.04-.27.06-4.44.98-8.76,2.31-12.87,4.28-.12.06-.24.11-.36.17-2.52,1.21-4.94,2.57-7.24,4.17-.07.05-.14.1-.21.15-1.52,1.06-2.98,2.19-4.39,3.4-.16.13-.33.27-.49.39-1.05.82-1.98,1.76-2.92,2.71-.28.29-.57.57-.85.86-.18.18-.37.37-.55.55q-.13.13-.25.25c-.54.54-1.05,1.11-1.55,1.69-.06.06-.11.13-.17.19-.86,1-1.69,2.02-2.49,3.06q-.09.12-.19.25c-2.82,3.7-5.28,7.69-7.41,11.82q-.06.11-.12.22c-3.45,6.66-6.1,13.7-8.21,20.89-1.12-.08-2.22-.3-3.32-.53q-.15-.03-.31-.06c-8.41-1.74-16.69-4.57-24.36-8.46.46-.48.96-.91,1.48-1.33.08-.07.17-.14.25-.21.69-.55,1.38-1.09,2.08-1.62.59-.45,1.16-.9,1.73-1.37.65-.54,1.32-1.06,1.99-1.57.76-.58,1.51-1.17,2.25-1.78.72-.59,1.45-1.16,2.18-1.74.35-.27.7-.55,1.05-.83.14-.11.28-.22.42-.33.07-.05.14-.11.21-.17q.63-.5.84-.66c.14-.11.28-.22.42-.33.35-.28.7-.55,1.05-.82.76-.59,1.51-1.19,2.27-1.79.08-.06.16-.12.24-.19.28-.23.56-.45.82-.71q-2.54,1.34-5.06,2.74c-1.01.58-2.04,1.12-3.07,1.66-.79.41-1.57.84-2.34,1.28-1.16.66-2.34,1.29-3.52,1.91-1.26.66-2.52,1.34-3.75,2.05-1.24.71-2.51,1.37-3.78,2.04-.09.05-.17.09-.26.14-.16.08-.32.17-.48.25-.37.2-.74.4-1.11.62q-.39.21-.73.22c-.55-.18-1.04-.45-1.54-.73-.11-.06-.23-.13-.34-.19-1.4-.78-2.76-1.62-4.12-2.46-.28-.17-.57-.35-.85-.52-.07-.04-.15-.09-.22-.13-.2-.12-.41-.24-.61-.36-.09-.07-.19-.13-.29-.2v-.24c.07-.04.15-.08.22-.12,1.44-.78,2.89-1.56,4.32-2.35.57-.31,1.14-.62,1.71-.93,1.2-.65,2.39-1.3,3.58-1.98,1.03-.58,2.06-1.14,3.11-1.68.82-.42,1.63-.87,2.43-1.33.91-.52,1.84-1.03,2.77-1.51.91-.47,1.8-.95,2.69-1.46,1.16-.66,2.34-1.29,3.52-1.91,1.32-.69,2.62-1.4,3.91-2.14.9-.51,1.8-1,2.72-1.48-.87.3-1.73.6-2.6.9-.53.18-1.06.37-1.59.55-2.96,1.02-5.91,2.05-8.86,3.09-1.82.65-3.64,1.28-5.47,1.92-2.03.7-4.07,1.42-6.09,2.14-2.47.88-4.95,1.74-7.42,2.61-.16.06-.32.11-.48.17-.38.13-.76.26-1.14.4-.63.22-1.25.44-1.87.67-.1.04-.19.07-.29.11-.17.06-.34.13-.5.2-.35.13-.56.18-.92.09-.27-.16-.52-.32-.76-.51q-.13-.1-.27-.21c-.09-.07-.19-.15-.28-.23-.2-.15-.39-.31-.59-.46-.09-.07-.19-.15-.29-.23-.33-.26-.67-.51-1-.76-.66-.49-1.31-1.01-1.95-1.54-.59-.48-1.18-.95-1.78-1.41.16-.31.26-.31.59-.42.1-.03.2-.07.3-.1q.17-.06.33-.11c.12-.04.23-.08.35-.12.25-.09.5-.17.75-.26.68-.23,1.36-.46,2.03-.7.14-.05.28-.1.42-.15,1.38-.48,2.77-.97,4.14-1.46,2.07-.74,4.14-1.46,6.22-2.18,1.83-.63,3.66-1.27,5.48-1.92,2.07-.74,4.14-1.46,6.22-2.18,1.83-.63,3.66-1.27,5.48-1.92,1.95-.69,3.9-1.38,5.85-2.05,2.55-.88,5.09-1.78,7.64-2.68,1.32-.47,2.65-.94,3.97-1.41.62-.22,1.24-.44,1.86-.66l.62-.22c.15-.05.29-.1.44-.16-1.3.18-2.6.39-3.89.62-.22.04-.44.08-.66.12-.6.11-1.2.21-1.79.32-.65.11-1.3.23-1.94.34-1.12.2-2.25.4-3.37.59-1.63.29-3.26.57-4.9.86-3.89.68-7.78,1.37-11.67,2.05-.25.04-.49.09-.74.13-1.48.26-2.95.52-4.43.78-.33.06-.65.12-.98.17-.08.01-.16.03-.24.04-1.13.2-2.26.4-3.4.6-.48.08-.96.17-1.43.25-.39.07-.79.14-1.18.21-1.85.32-3.69.65-5.54.97-1.16.2-2.33.41-3.49.61-.67.12-1.34.24-2.01.35-.12.02-.25.04-.38.07-.25.04-.49.09-.74.13-.59.1-1.18.21-1.77.31-1.03.18-2.05.36-3.07.58-.45.1-.91.19-1.36.28-.21.04-.42.09-.63.14q-1.56.38-2.14.07c-.45-.33-.82-.72-1.18-1.14-.21-.25-.44-.47-.68-.69-.28-.28-.55-.58-.81-.88-.5-.59-1.06-1.13-1.62-1.67-.08-.07-.15-.15-.23-.22-.07-.06-.13-.13-.2-.2-.22-.24-.41-.5-.61-.76q-.1-.13-.2-.26c-.05-.07-.1-.13-.15-.2,2.23-.47,4.48-.85,6.73-1.25.59-.1,1.18-.21,1.76-.31,1.02-.18,2.04-.36,3.07-.54,1.64-.29,3.28-.58,4.92-.86.28-.05.57-.1.85-.15.43-.08.86-.15,1.29-.23.88-.15,1.76-.31,2.64-.46,6.03-1.06,12.06-2.12,18.09-3.18,1.34-.24,2.69-.47,4.03-.71,5.68-1,11.36-2,17.04-3.01.68-.12,1.35-.24,2.03-.36.32-.06.65-.12.97-.17.21-.04.42-.07.63-.11,1.2-.21,2.41-.43,3.61-.64.73-.13,1.45-.26,2.18-.39.41-.07.82-.15,1.23-.22.44-.08.87-.16,1.31-.23.13-.02.25-.05.38-.07.56-.1,1.1-.18,1.67-.15.01-.08.03-.15.04-.23.02-.1.04-.2.06-.3.02-.1.04-.2.06-.3q.08-.26.32-.5.22-.03.5-.04c.1,0,.21,0,.32,0q.17,0,.35,0t.37,0c.42,0,.84-.02,1.27-.02.31,0,.61-.01.92-.02.68-.01,1.35-.03,2.03-.04,1.09-.02,2.19-.04,3.28-.06.09,0,.19,0,.29,0,.49,0,.99-.02,1.48-.03.41,0,.83-.02,1.24-.02,3.9-.08,7.79-.17,11.69-.26q.22,0,.44-.01c2.51-.06,5.02-.12,7.53-.18,1.57-.04,3.13-.07,4.7-.11.78-.02,1.57-.04,2.35-.06.48-.01.96-.02,1.45-.03.22,0,.44-.01.66-.02,1.13-.03,2.27-.05,3.4-.04Z"/>
  <path class="cls-24" d="M758.39,386.46h19.06v94.09h-19.06v-94.09Z"/>
  <path class="cls-24" d="M532.94,386.46h19.06v94.09h-19.06v-94.09Z"/>
  <path class="cls-12" d="M470.57,273.55q1.64,5.55,2.27,7.9c.05.17.09.35.14.52.07.24.13.48.19.72.04.13.07.26.11.4.06.37.05.6-.06.96q-.27.32-.62.64c-.48.46-.93.93-1.36,1.43-.26.3-.54.57-.83.85-.22.22-.42.45-.63.69-.29.34-.59.66-.91.97-.32.31-.62.63-.9.97-.36.42-.75.81-1.15,1.21-.31.31-.59.64-.88.97-.27.3-.55.58-.84.86-.22.22-.42.45-.63.69-.37.43-.76.82-1.16,1.21-.31.31-.59.64-.88.97-.27.3-.55.58-.84.86-.22.22-.42.45-.63.69-.29.34-.59.66-.91.97-.32.31-.62.63-.9.97-.36.42-.75.81-1.15,1.21-.31.31-.59.64-.88.97-.27.3-.55.58-.84.86-.22.22-.42.45-.63.69-.37.43-.76.82-1.16,1.21-.31.31-.59.64-.88.97-.27.3-.55.58-.84.86-.22.22-.42.45-.63.69-.29.34-.59.66-.91.97-.32.31-.62.63-.9.97s-.59.65-.9.97c-.57.56-1.12,1.14-1.57,1.81.08-.07.16-.14.24-.21.72-.61,1.45-1.19,2.2-1.76.68-.52,1.36-1.05,2.02-1.59.65-.54,1.32-1.06,1.99-1.57.76-.58,1.51-1.17,2.25-1.78.72-.59,1.45-1.16,2.18-1.74.35-.27.7-.55,1.05-.83.14-.11.28-.22.42-.33.07-.05.14-.11.21-.17q.63-.5.84-.66c.14-.11.28-.22.42-.33.35-.28.7-.55,1.05-.82.73-.57,1.45-1.14,2.18-1.72.79-.63,1.59-1.26,2.38-1.89.35-.28.7-.55,1.05-.83.14-.11.28-.22.42-.33.07-.05.14-.11.21-.17q.63-.5.84-.66c.14-.11.28-.22.42-.33.35-.28.7-.55,1.05-.82.14-.11.28-.22.42-.33.07-.05.14-.11.21-.16.38-.3.76-.6,1.14-.91.08-.07.16-.13.25-.2.16-.13.32-.26.48-.39.32-.26.56-.45.95-.58.46,2.21.84,4.42,1.19,6.65q.03.18.06.37c.05.35.11.69.16,1.04.02.1.03.21.05.31q.16,1.04.11,1.4-.14.19-.35.35c-.08.06-.15.12-.23.18-.08.06-.17.13-.25.19-.09.07-.17.14-.26.21-.28.21-.55.43-.83.64-.17.13-.34.26-.52.4-.25.19-.51.39-.77.58-.68.51-1.34,1.05-2,1.59-.72.59-1.45,1.16-2.18,1.74-.35.27-.7.55-1.05.83-.14.11-.28.22-.42.33-.07.05-.14.11-.21.17q-.63.5-.84.66c-.14.11-.28.22-.42.33-.35.28-.7.55-1.05.82-.73.57-1.45,1.14-2.18,1.72-1.37,1.1-2.76,2.19-4.16,3.26,1.08-.52,2.14-1.08,3.18-1.67,1.18-.67,2.37-1.31,3.57-1.95,1.16-.61,2.31-1.22,3.44-1.87,1.31-.75,2.65-1.46,3.99-2.17,1.09-.57,2.17-1.16,3.25-1.76q.65-.36.78-.36c.42,3,.53,6.02.48,9.05-.1.05-.19.1-.29.15-1.78.95-3.57,1.9-5.34,2.87-.45.25-.9.49-1.35.74-1.55.84-3.1,1.69-4.63,2.57-.47.27-.94.53-1.42.79,1.07-.37,2.15-.75,3.22-1.12.26-.09.52-.18.78-.27,1.74-.61,3.48-1.21,5.21-1.84.12-.04.24-.09.36-.13.54-.2,1.09-.39,1.63-.59.19-.07.38-.14.57-.21.08-.03.17-.06.26-.09.4-.14.68-.21,1.12-.21-.05,2.7-.14,5.39-.36,8.08-.81.33-1.63.64-2.46.93-.11.04-.23.08-.34.12-.36.12-.72.25-1.07.37-.24.08-.49.17-.73.25-.59.21-1.19.41-1.78.62.12-.02.24-.04.37-.06.46-.08.92-.16,1.38-.23.2-.03.39-.07.59-.1,1.31-.22,2.61-.42,3.93-.57-.29,2.63-.64,5.24-1.09,7.84-.41-.13-.81-.27-1.19-.47q-.13-.07-.26-.14c-.09-.05-.18-.1-.28-.15-.2-.11-.41-.22-.61-.33-.11-.06-.22-.12-.33-.18-.62-.33-1.24-.65-1.85-.97-.88-.45-1.75-.91-2.62-1.37-1.89-1-3.8-1.98-5.7-2.96-.35-.18-.69-.36-1.04-.53-.09-.04-.17-.09-.26-.13-1.03-.53-2.06-1.07-3.09-1.61-.86-.45-1.72-.9-2.58-1.34-1.17-.61-2.35-1.21-3.52-1.83-.89-.46-1.78-.93-2.67-1.39-1.12-.58-2.24-1.16-3.35-1.74-.89-.47-1.78-.93-2.68-1.39-1.12-.58-2.23-1.16-3.35-1.74-.63-.33-1.27-.66-1.9-.99-.07-.04-.14-.07-.22-.11-.35-.18-.7-.36-1.05-.54-.83-.43-1.65-.87-2.46-1.31.14-.4.27-.68.58-.97.07-.06.13-.13.2-.19.07-.07.14-.13.21-.2.14-.14.29-.28.43-.42q.1-.1.21-.2c.3-.3.57-.62.85-.94.19-.22.4-.43.61-.63.36-.35.69-.72,1.02-1.1.38-.43.77-.85,1.17-1.28.34-.36.67-.73.99-1.11.32-.37.67-.72,1.02-1.07.22-.22.42-.45.63-.69.37-.43.76-.82,1.16-1.21.31-.31.59-.64.88-.97.27-.3.55-.58.84-.86.22-.22.42-.45.63-.69.29-.34.59-.66.91-.97.32-.31.62-.63.9-.97.36-.42.75-.81,1.15-1.21.31-.31.59-.64.88-.97.27-.3.55-.58.84-.86.22-.22.42-.45.63-.69.37-.43.76-.82,1.16-1.21.31-.31.59-.64.88-.97.27-.3.55-.58.84-.86.22-.22.42-.45.63-.69.29-.34.59-.66.91-.97.32-.31.62-.63.9-.97.36-.42.75-.81,1.15-1.21.31-.31.59-.64.88-.97.27-.3.55-.58.84-.86.22-.22.42-.45.63-.69.37-.43.76-.82,1.16-1.21.31-.31.59-.64.88-.97.27-.3.55-.58.84-.86.22-.22.42-.45.63-.69.29-.34.59-.66.91-.97.32-.31.62-.63.9-.97.36-.42.75-.81,1.15-1.21.31-.31.59-.64.88-.97.27-.3.55-.58.84-.86.22-.23.43-.46.64-.71q1.04-1.2,1.38-1.2Z"/>
  <path class="cls-13" d="M433.18,204.91c.44.42.83.87,1.2,1.35.06.07.11.15.17.22.12.16.25.32.37.47.19.25.39.5.59.75q3.21,4.11,3.99,5.27c.27.4.56.74.91,1.08.49.52.92,1.01,1.11,1.71-.03.95-.43,1.85-.78,2.72-.38.95-.69,1.91-1.01,2.88-.18.55-.36,1.1-.55,1.65-.41,1.22-.81,2.45-1.21,3.67-.74,2.29-1.49,4.57-2.24,6.85-.28.86-.57,1.73-.85,2.59q-.05.14-.09.29c-.58,1.76-1.16,3.53-1.73,5.29-.77,2.36-1.54,4.71-2.31,7.06-.05.16-.11.33-.16.49q-.04.12-.08.25c-.11.33-.21.65-.32.98-.05.16-.11.33-.16.49-.59,1.8-1.18,3.6-1.77,5.4-.05.15-.1.3-.15.46-.25.76-.5,1.52-.75,2.28-.28.84-.55,1.68-.83,2.52-.08.23-.15.46-.23.69-.25.76-.5,1.53-.75,2.29-.47,1.43-.93,2.85-1.4,4.28-.19.59-.38,1.17-.57,1.76-.13.4-.26.79-.39,1.19q-1.65,5.05-2.46,6.87c-.14.31-.28.63-.41.94q-.06.13-.11.26c-.51,1.17-1.01,2.34-1.51,3.51-.3.71-.6,1.41-.9,2.12-.06.14-.12.29-.19.44-1.58,3.71-3.17,7.42-4.77,11.13-.05.11-.1.23-.15.35-.14.32-.27.64-.41.95-.04.09-.08.19-.12.28q-.28.64-.41.91c-.66-.19-1.24-.49-1.85-.8q-.16-.08-.33-.17c-.35-.18-.69-.36-1.04-.54-.23-.12-.45-.23-.68-.35-1.44-.74-2.87-1.49-4.3-2.24.15-.72.33-1.41.56-2.1q.05-.14.1-.29c.1-.31.21-.63.31-.94.07-.22.15-.45.22-.67.2-.59.39-1.18.59-1.78.31-.93.61-1.86.92-2.78.08-.23.15-.46.23-.7.64-1.92,1.26-3.84,1.89-5.76.44-1.36.88-2.71,1.33-4.07.03-.09.06-.17.09-.26.14-.44.29-.87.43-1.31.31-.95.62-1.89.94-2.84q.05-.14.09-.29c.58-1.76,1.16-3.52,1.73-5.29.77-2.36,1.54-4.71,2.31-7.06.05-.16.11-.33.16-.49q.04-.12.08-.25c.11-.33.21-.65.32-.98.05-.16.11-.33.16-.49.59-1.8,1.18-3.6,1.77-5.4.05-.15.1-.3.15-.46.25-.76.5-1.52.75-2.28.3-.92.6-1.83.9-2.75q.04-.11.08-.23c.13-.38.25-.77.38-1.15.23-.69.45-1.38.68-2.07.13-.38.25-.77.38-1.15.05-.15.1-.31.15-.46.1-.31.2-.61.3-.92.02-.08.05-.15.08-.23.05-.15.1-.31.15-.46.13-.38.25-.77.38-1.15.23-.69.45-1.38.68-2.07.13-.38.25-.77.38-1.15.02-.08.05-.15.08-.23.33-.99.65-1.99.98-2.98,1.02-3.12,2.05-6.24,3.07-9.36.48-1.45.95-2.9,1.43-4.35.03-.08.05-.16.08-.24.31-.95.62-1.9.94-2.85.13-.39.25-.77.38-1.16.53-1.63,1.07-3.25,1.59-4.88.09-.28.18-.56.27-.84.17-.52.34-1.04.51-1.56.07-.23.15-.46.22-.69q.05-.16.1-.32.23-.71.37-.85Z"/>
  <path class="cls-18" d="M407.61,351.11q-.17.15-.33.31c-1.16,1.08-2.3,2.19-3.42,3.31-.07.07-.14.14-.21.21-.75.75-1.5,1.5-2.18,2.32-.11.13-.22.25-.33.38-.8.94-1.58,1.9-2.33,2.88-.06.08-.12.16-.19.25-2.82,3.7-5.28,7.69-7.41,11.82-.04.07-.08.15-.12.22-3.45,6.66-6.1,13.7-8.21,20.89-1.12-.08-2.22-.3-3.32-.53q-.15-.03-.31-.06c-8.41-1.74-16.69-4.57-24.36-8.46.46-.48.96-.91,1.48-1.33.08-.07.17-.14.25-.21.69-.55,1.38-1.09,2.08-1.62.59-.45,1.16-.9,1.73-1.37.65-.54,1.32-1.06,1.99-1.57.76-.58,1.51-1.17,2.25-1.78.72-.59,1.45-1.16,2.18-1.74.35-.27.7-.55,1.05-.83.14-.11.28-.22.42-.33.07-.05.14-.11.21-.17q.63-.5.84-.66c.14-.11.28-.22.42-.33.35-.28.7-.55,1.05-.82.14-.11.28-.22.42-.33.07-.05.14-.11.21-.16.44-.35.88-.69,1.31-1.05.31-.25.61-.49.92-.73.14-.11.28-.22.41-.33,1.44-1.19,3.12-1.99,4.77-2.85.7-.37,1.4-.74,2.1-1.12.21-.12.42-.23.63-.35.1-.06.21-.11.31-.17.34-.19.69-.37,1.03-.56,1.2-.65,2.4-1.3,3.58-1.98,1.03-.59,2.07-1.14,3.12-1.68.79-.41,1.57-.84,2.34-1.28,1.16-.66,2.34-1.29,3.52-1.91,1.16-.61,2.31-1.22,3.44-1.87,1.22-.7,2.46-1.36,3.7-2.01,1.27-.66,2.52-1.35,3.75-2.08.1-.06.21-.12.31-.18.09-.05.18-.11.27-.16q.23-.1.59.02Z"/>
  <path class="cls-15" d="M463.82,255.94h.24c1.1,2.69,2.2,5.37,3.23,8.08.08.21.16.42.24.63.11.29.22.58.33.87.03.08.07.17.1.26.14.37.2.6.11.99-.16.27-.32.53-.5.79-.07.1-.13.19-.2.29-.07.1-.14.2-.22.31-.08.11-.15.21-.23.32-.56.79-1.13,1.58-1.69,2.36-.68.94-1.35,1.89-2.02,2.84-.8,1.14-1.61,2.28-2.43,3.41-.69.95-1.36,1.91-2.03,2.86-.8,1.14-1.61,2.28-2.43,3.41-.69.95-1.36,1.91-2.03,2.86-.8,1.14-1.61,2.28-2.43,3.41-.69.95-1.36,1.91-2.03,2.86-.8,1.14-1.61,2.28-2.43,3.41-.5.69-1,1.39-1.49,2.09-.43.62-.88,1.23-1.32,1.84-.54.75-1.07,1.5-1.58,2.26-1.25,1.83-2.55,3.67-4.14,5.22-.32.32-.61.65-.9.99-.27.3-.55.58-.84.86-.22.22-.42.45-.63.69-.38.44-.78.84-1.19,1.24q-.23.22-.45.57c-.58-.17-1.1-.42-1.64-.7-.09-.04-.17-.09-.26-.14-.28-.14-.56-.29-.84-.43-.19-.1-.38-.2-.57-.3-1.18-.61-2.35-1.22-3.53-1.84-.29-.15-.59-.31-.88-.45.07-.38.19-.62.42-.92q.09-.13.19-.26c.07-.09.14-.18.21-.27.57-.78,1.13-1.56,1.67-2.36.54-.79,1.1-1.57,1.68-2.33.54-.71,1.04-1.45,1.55-2.19.38-.57.77-1.13,1.17-1.68.47-.65.92-1.3,1.36-1.96.77-1.13,1.57-2.24,2.37-3.35.89-1.22,1.76-2.45,2.63-3.68.53-.77,1.08-1.52,1.63-2.28.68-.94,1.35-1.89,2.02-2.84.8-1.14,1.61-2.28,2.43-3.41.5-.69,1-1.39,1.49-2.09.43-.62.88-1.23,1.32-1.84.54-.75,1.07-1.5,1.58-2.26.54-.79,1.1-1.57,1.68-2.33.53-.7,1.03-1.42,1.52-2.15.64-.94,1.3-1.86,1.97-2.77,1.08-1.49,2.15-2.99,3.21-4.49.8-1.14,1.61-2.28,2.43-3.41.54-.74,1.07-1.49,1.59-2.24q.43-.62.57-.75Z"/>
  <path class="cls-8" d="M414.84,345.8c-.06.04-.11.08-.17.11q-2.93,1.93-5.68,4.11c-.07.06-.14.12-.21.18-.13.12-.26.23-.39.35-.28.25-.51.42-.87.54-.45.15-.85.35-1.26.57-.08.04-.16.09-.25.13-.27.14-.54.28-.8.43-.19.1-.37.2-.56.3-1.12.6-2.23,1.21-3.33,1.84-1.03.59-2.07,1.14-3.12,1.69-1.16.61-2.32,1.22-3.45,1.88-1.26.72-2.53,1.4-3.81,2.08-.16.09-.33.17-.49.26-.08.04-.16.08-.24.13-1.01.53-2.01,1.08-3.01,1.63-.59.32-1.18.64-1.77.96-1.04.56-2.07,1.12-3.1,1.69-.57.31-1.14.62-1.71.93-1.75.94-3.49,1.91-5.22,2.9-1.19.68-2.39,1.33-3.6,1.97-.88.47-1.75.96-2.62,1.46-1.02.58-2.06,1.13-3.1,1.67-.79.41-1.57.84-2.34,1.28-1.16.66-2.34,1.29-3.52,1.91-1.26.66-2.52,1.34-3.75,2.05-1.24.71-2.51,1.37-3.78,2.04-.09.05-.17.09-.26.14-.16.08-.32.17-.48.25-.37.2-.74.4-1.11.62q-.39.21-.73.22c-.55-.18-1.04-.45-1.54-.73-.11-.06-.23-.13-.34-.19-1.4-.78-2.76-1.62-4.12-2.46-.28-.17-.57-.35-.85-.52-.07-.04-.15-.09-.22-.13-.2-.12-.41-.24-.61-.36-.09-.07-.19-.13-.29-.2v-.24c.07-.04.15-.08.22-.12,1.44-.78,2.89-1.56,4.32-2.35.57-.31,1.14-.62,1.71-.93,1.2-.65,2.39-1.3,3.58-1.98,1.03-.58,2.06-1.14,3.11-1.68.82-.42,1.63-.87,2.43-1.33.91-.52,1.84-1.03,2.77-1.51.91-.47,1.8-.95,2.69-1.46,1.25-.71,2.52-1.39,3.79-2.06,1.08-.57,2.16-1.15,3.22-1.76,2.61-1.49,5.14-2.72,7.99-3.67.42-.14.83-.28,1.25-.42.51-.17,1.01-.35,1.52-.52,1.37-.46,2.73-.94,4.09-1.43,2.15-.77,4.31-1.52,6.47-2.27,1.83-.63,3.66-1.27,5.48-1.92,2.07-.74,4.14-1.46,6.22-2.18,1.76-.61,3.52-1.23,5.28-1.85.37-.13.74-.26,1.11-.39q1.4-.5,2.8-.99c.37-.13.73-.26,1.1-.39.12-.04.25-.09.38-.14q.17-.06.33-.12c.09-.03.19-.07.28-.1q.24-.05.6.07Z"/>
  <path class="cls-21" d="M476.85,304.07c.42,3,.53,6.02.48,9.05-.1.05-.19.1-.29.15-1.78.95-3.57,1.9-5.34,2.87-.45.25-.9.49-1.35.74-1.55.84-3.1,1.69-4.63,2.57-.47.27-.94.53-1.42.79,1.07-.37,2.15-.75,3.22-1.12.26-.09.52-.18.78-.27,1.74-.61,3.48-1.21,5.21-1.84q.18-.06.36-.13c.54-.2,1.09-.39,1.63-.59.19-.07.38-.14.57-.21.08-.03.17-.06.26-.09.4-.14.68-.21,1.12-.21-.05,2.7-.14,5.39-.36,8.08-.81.33-1.63.64-2.46.93-.11.04-.23.08-.34.12-.36.12-.72.25-1.07.37-.24.08-.49.17-.73.25-.59.21-1.19.41-1.78.62.12-.02.24-.04.37-.06.46-.08.92-.16,1.38-.23.2-.03.39-.07.59-.1,1.31-.22,2.61-.42,3.93-.57-.29,2.63-.64,5.24-1.09,7.84-.41-.13-.81-.27-1.19-.47-.09-.05-.17-.09-.26-.14-.09-.05-.18-.1-.28-.15-.2-.11-.41-.22-.61-.33-.11-.06-.22-.12-.33-.18-.62-.33-1.24-.65-1.85-.97-.88-.45-1.75-.91-2.62-1.37-1.89-1-3.8-1.98-5.7-2.96-.35-.18-.69-.36-1.04-.53-.09-.04-.17-.09-.26-.13-1.03-.53-2.06-1.07-3.09-1.61-.86-.45-1.72-.9-2.58-1.34-2.29-1.18-4.57-2.37-6.85-3.57.29-.33.6-.51.99-.71.13-.07.25-.13.38-.2.14-.07.27-.14.41-.22.29-.15.57-.3.86-.46.07-.04.14-.08.22-.12.71-.38,1.4-.77,2.1-1.17.88-.5,1.77-1,2.68-1.46.43-.22.85-.46,1.26-.71.69-.42,1.4-.79,2.11-1.17,1.03-.55,2.06-1.11,3.08-1.7,1.02-.58,2.06-1.13,3.1-1.67.79-.41,1.57-.84,2.34-1.28,1.34-.77,2.71-1.49,4.08-2.21,1.09-.57,2.17-1.16,3.25-1.76q.65-.36.78-.36Z"/>
  <path class="cls-9" d="M402.3,299.12c.56.17,1.07.4,1.58.67.08.04.16.08.25.13.26.14.52.27.79.41.18.09.36.19.55.28.99.52,1.99,1.03,2.98,1.56.86.45,1.72.9,2.58,1.34,1.17.61,2.35,1.21,3.52,1.83.89.46,1.78.93,2.67,1.39,1.12.58,2.24,1.16,3.35,1.74.89.47,1.78.93,2.68,1.39,1.12.58,2.24,1.16,3.35,1.74.89.47,1.78.93,2.68,1.39,1.12.58,2.24,1.16,3.35,1.74.89.47,1.78.93,2.68,1.39,1.12.58,2.24,1.16,3.35,1.74.89.47,1.78.93,2.68,1.39,1.12.58,2.23,1.16,3.35,1.74.63.33,1.27.66,1.9.99.07.04.14.07.22.11.35.18.7.36,1.05.54.83.43,1.65.87,2.46,1.31-.49.16-.67.02-1.14-.2-.08-.04-.16-.07-.24-.11-.17-.08-.34-.15-.51-.23-.37-.17-.74-.33-1.11-.5-.19-.09-.39-.17-.58-.26-1.05-.47-2.1-.92-3.15-1.38-.19-.08-.38-.16-.57-.24-.28-.12-.56-.24-.84-.36-.87-.37-1.74-.75-2.61-1.13-1.35-.58-2.69-1.17-4.04-1.75-1.8-.78-3.61-1.56-5.41-2.34-.67-.29-1.35-.58-2.02-.88-.38-.16-.75-.33-1.13-.49-.15-.07-.3-.13-.45-.2l-8.14-3.53c-.07-.03-.15-.06-.23-.1-.15-.07-.3-.13-.45-.2-.38-.16-.75-.33-1.13-.49-.68-.29-1.36-.59-2.04-.89-.38-.16-.76-.33-1.14-.49q-.11-.05-.23-.1c-1.06-.46-2.11-.91-3.17-1.36-1.01-.43-2.01-.86-3.01-1.31-.11-.05-.22-.1-.33-.14-.54-.24-1.07-.47-1.61-.71-.2-.09-.4-.18-.6-.27q-.15-.06-.29-.13c-.49-.21-.97-.42-1.47-.61q-.14-.06-.29-.11c-.18-.07-.36-.14-.54-.21q-.58-.23-.75-.51c.01-.37.11-.67.23-1.02.05-.14.1-.29.15-.44.03-.07.05-.15.08-.23.08-.23.16-.46.24-.69q.38-1.13.52-1.27Z"/>
  <path class="cls-9" d="M399.65,306.96c1,.31,1.96.72,2.92,1.14.18.08.37.16.55.24,2.14.92,4.28,1.86,6.42,2.79.96.42,1.92.83,2.88,1.25,1.12.48,2.24.97,3.35,1.46,1.62.71,3.24,1.41,4.87,2.11,1.14.49,2.27.98,3.41,1.47.07.03.15.06.22.1.37.16.74.32,1.11.48.45.19.9.39,1.34.58q.11.05.23.1c.23.1.45.2.68.29.9.39,1.8.78,2.69,1.17,1.68.73,3.35,1.45,5.03,2.17q.14.06.28.12c.26.11.52.23.79.34.08.03.16.07.24.1.41.17.81.34,1.22.5-.48.2-.87.02-1.34-.14q-.13-.05-.26-.09c-.19-.07-.39-.14-.58-.2-.44-.16-.88-.31-1.33-.46-.25-.09-.49-.17-.74-.26-1.48-.51-2.96-1.01-4.44-1.51-.32-.11-.65-.22-.97-.33-3.44-1.16-6.88-2.32-10.33-3.48-3.26-1.1-6.52-2.2-9.78-3.3-1.86-.63-3.71-1.25-5.58-1.87-1.3-.43-2.6-.88-3.88-1.38.07-.76.3-1.44.55-2.16q.06-.18.12-.35c.1-.29.2-.57.29-.86Z"/>
  <path class="cls-9" d="M397.11,314.92c.61.06,1.15.2,1.73.4.15.05.29.1.44.15.35.12.69.26,1.03.4.7.28,1.4.52,2.12.75.14.05.27.09.41.14.44.14.87.29,1.31.43.29.1.57.19.86.29.56.19,1.13.37,1.69.56.26.09.53.17.79.26.12.04.23.08.36.12,1.41.47,2.81.94,4.21,1.42,2.03.7,4.06,1.37,6.11,2.03.87.28,1.73.56,2.58.89,1.16.44,2.34.82,3.52,1.2.22.07.45.14.67.22.54.17,1.08.35,1.62.52-.51.16-.89.03-1.39-.11-1.14-.32-2.3-.58-3.45-.83-1.44-.31-2.87-.64-4.3-1-1.38-.34-2.77-.66-4.16-.96-1.27-.27-2.54-.57-3.8-.88-1.17-.29-2.35-.55-3.52-.81-1.46-.32-2.92-.66-4.37-1.01-1.31-.32-2.63-.61-3.95-.89-.16-.03-.31-.07-.47-.1-.14-.03-.28-.06-.42-.09q-.33-.08-.57-.2.68-2.61.97-2.9Z"/>
  <path class="cls-5" d="M402.3,299.12c.56.17,1.07.4,1.58.67.08.04.16.08.25.13.26.14.52.27.79.41.18.09.36.19.54.28.44.23.88.46,1.31.68.32.17.65.34.97.5.2.1.4.21.6.31.09.04.17.09.26.13.57.3,1.12.63,1.66.98-.04.08-.08.15-.12.23-.45.87-.83,1.76-1.21,2.67-.66-.07-1.2-.31-1.8-.58-.1-.05-.21-.09-.31-.14-.33-.15-.66-.3-.99-.44-.33-.15-.65-.29-.98-.43-.21-.1-.43-.19-.64-.29-.51-.23-1.03-.45-1.55-.65-.1-.04-.19-.07-.29-.11-.18-.07-.36-.14-.54-.2q-.57-.22-.74-.5c.01-.37.11-.67.23-1.02.05-.14.1-.29.15-.44.03-.07.05-.15.08-.23.08-.23.16-.46.24-.69q.38-1.13.52-1.27Z"/>
  <path class="cls-5" d="M394.7,323c.91.07,1.76.26,2.64.49.44.11.88.22,1.31.33.09.02.18.05.28.07,1.01.25,2.02.47,3.04.69,1.3.29,2.6.58,3.89.9,1.75.43,3.51.82,5.27,1.21.99.22,1.97.44,2.96.66.08.02.16.04.25.06.45.1.9.2,1.35.31v.12c-1.52-.08-3.02-.25-4.52-.42-.26-.03-.53-.06-.79-.09-.7-.08-1.4-.16-2.11-.24-.72-.08-1.45-.16-2.17-.25-1.54-.18-3.09-.35-4.63-.53-.46-.05-.92-.11-1.38-.16-2.12-.24-4.23-.48-6.35-.73.08-.56.18-1.07.36-1.61.04-.13.08-.25.13-.38q.16-.42.47-.42Z"/>
  <path class="cls-5" d="M399.65,306.96c1.08.33,2.1.78,3.13,1.23.19.08.38.16.57.25,1.26.54,2.53,1.1,3.78,1.66-.08.57-.29,1.07-.52,1.6q-.05.13-.11.27-.27.63-.54.77c-.43.03-.79-.12-1.19-.25-.09-.03-.18-.06-.27-.09-.29-.1-.58-.2-.86-.29-.2-.07-.39-.13-.59-.2-1.46-.5-2.92-1.01-4.37-1.56.07-.76.3-1.44.55-2.16q.06-.18.12-.35c.1-.29.2-.57.29-.86Z"/>
  <path class="cls-5" d="M397.11,314.92c.61.06,1.15.2,1.73.4.15.05.29.1.44.15.35.12.7.26,1.04.4.75.3,1.52.57,2.29.83q.22.07.44.15c.35.12.7.24,1.06.36-.24.75-.52,1.46-.84,2.17-.95-.08-1.84-.29-2.76-.52-1.15-.28-2.3-.56-3.46-.79q-.64-.13-.9-.26.68-2.61.97-2.9Z"/>
  <path class="cls-14" d="M432.09,314.56c1.15.53,2.27,1.07,3.39,1.66.89.47,1.78.94,2.67,1.4,1.17.61,2.35,1.21,3.52,1.83.89.46,1.78.93,2.67,1.39q4.42,2.29,5.97,3.14c-.49.16-.67.02-1.14-.2-.08-.04-.16-.07-.24-.11-.17-.08-.34-.15-.51-.23-.37-.17-.74-.33-1.11-.5-.19-.09-.39-.17-.58-.26-1.05-.47-2.1-.92-3.15-1.38-.19-.08-.38-.16-.57-.24-.28-.12-.56-.24-.84-.36-.87-.37-1.74-.75-2.61-1.13-.37-.16-.73-.32-1.1-.48-.42-.18-.84-.37-1.27-.55q-3.09-1.34-6.2-2.66c.17-.39.37-.64.68-.93.08-.07.15-.15.23-.22q.09-.08.18-.17Z"/>
  <path class="cls-23" d="M421,316.13c2.62,1.07,5.2,2.21,7.79,3.34,2.19.95,4.38,1.9,6.57,2.84.09.04.18.08.28.12.26.11.52.22.79.34.08.03.16.07.24.1.41.17.81.34,1.22.5-.48.2-.87.02-1.34-.14-.09-.03-.18-.06-.27-.09-.19-.07-.39-.14-.58-.2-.43-.15-.87-.3-1.3-.45-.24-.08-.49-.17-.73-.25-1.04-.36-2.08-.72-3.13-1.07q-.12-.04-.25-.08c-.42-.14-.85-.29-1.27-.43-.84-.29-1.69-.57-2.53-.86-.08-.03-.16-.06-.25-.08-2.07-.7-4.14-1.41-6.21-2.12l.97-1.45Z"/>
  <path class="cls-3" d="M424.74,310.7c1.31.65,2.62,1.31,3.93,1.98.2.1.39.2.59.3.29.15.58.3.87.45.09.04.17.09.26.13.59.3,1.15.64,1.71,1q-.7.82-1.09,1.21c-.76-.24-1.49-.53-2.22-.85-.1-.05-.21-.09-.32-.14-.33-.15-.66-.29-1-.44-.44-.19-.87-.39-1.31-.58-.1-.05-.21-.09-.31-.14-.77-.34-1.54-.67-2.32-.99.17-.26.35-.51.52-.77.16-.25.31-.5.46-.76.08-.13.15-.27.23-.4Z"/>
  <path class="cls-5" d="M391.8,331.09c1.42.1,2.84.27,4.25.42.27.03.54.06.81.09.71.08,1.42.15,2.13.23.73.08,1.45.16,2.18.24,1.42.16,2.84.31,4.26.47v.24c-1.48.03-2.96.06-4.45.09-.69.01-1.38.03-2.07.04-.67.01-1.33.03-2,.04-.25,0-.5.01-.76.02-1.66.04-3.31.05-4.97.04.04-.17.07-.34.11-.51.02-.1.04-.19.06-.29.1-.4.26-.76.43-1.13Z"/>
  <path class="cls-9" d="M401.09,324.45c.71.08,1.38.2,2.07.37q.16.04.32.07c.34.08.68.16,1.01.24.24.06.47.11.71.17,1.42.33,2.83.67,4.24,1.02.83.2,1.66.39,2.49.57.1.02.2.04.31.07.5.11,1.01.21,1.51.32.18.04.37.08.55.12.08.02.17.03.25.05.41.09.76.2,1.13.39-1.59-.08-3.16-.26-4.75-.44-.28-.03-.56-.06-.84-.1-.74-.08-1.47-.17-2.21-.25-.75-.09-1.5-.17-2.25-.26-.84-.1-1.68-.19-2.53-.29-.13-.01-.26-.03-.39-.04-.24-.03-.47-.05-.71-.08-.67-.08-1.34-.15-2.01-.23q.1-.08.2-.17c.4-.45.63-.98.88-1.52Z"/>
  <path class="cls-19" d="M428.01,319.17c.45.12.86.3,1.29.49.09.04.18.08.28.12.2.09.4.18.6.26.53.23,1.06.46,1.58.7.11.05.22.09.33.14,1.11.49,2.23.97,3.34,1.45.18.08.36.15.54.23q.96.41,1.92.8c-.5.22-.94,0-1.42-.17-.09-.03-.19-.07-.29-.1-.31-.11-.63-.22-.94-.33-.22-.08-.44-.15-.66-.23-.46-.16-.93-.32-1.39-.48-1.11-.39-2.22-.76-3.33-1.14-.57-.19-1.14-.39-1.71-.58-.19-.07-.39-.13-.58-.2-.13-.05-.27-.09-.41-.14q.42-.86.86-.82Z"/>
  <path class="cls-2" d="M417.02,321.56c1.15.32,2.28.68,3.41,1.09,2.02.74,4.07,1.39,6.12,2.04-.51.16-.89.03-1.39-.11-1.16-.32-2.33-.59-3.51-.84-.38-.08-.75-.17-1.13-.25-.09-.02-.18-.04-.28-.06-1.32-.29-2.64-.6-3.95-.9.1-.09.19-.18.29-.28q.33-.3.43-.69Z"/>
  <path class="cls-1" d="M397.84,331.81c1.64.08,3.26.25,4.89.43.26.03.53.06.79.09.64.07,1.28.14,1.92.21v.24q-5.62.14-7.96.12c.12-.36.24-.72.36-1.09Z"/>
  <path class="cls-6" d="M396.51,339.29v.12c-1.01.22-2.02.4-3.04.54-.97.13-1.93.3-2.89.51-.64.13-1.26.22-1.91.28q.21-1.06.48-1.33.27-.03.61-.04c.13,0,.26,0,.39,0q.21,0,.42,0c.14,0,.28,0,.43,0,.46,0,.91-.01,1.37-.02.31,0,.61,0,.92-.01q2.25-.03,3.22-.03Z"/>
  <path class="cls-17" d="M472.14,331.09h3.98c-.08.64-.16,1.27-.24,1.93-.48-.16-.84-.29-1.27-.52-.1-.05-.2-.1-.3-.16-.1-.05-.2-.11-.3-.16-.2-.11-.4-.21-.6-.32q-.14-.08-.28-.15c-.33-.17-.66-.34-.99-.5v-.12Z"/>
  <path class="cls-21" d="M434.7,321.99q.17.08.35.15c.13.05.25.11.38.17q.2.09.4.18c.13.06.26.11.4.17.24.11.49.21.73.32.31.14.62.26.93.39-.48.19-.82.04-1.29-.13-.08-.03-.15-.05-.23-.08-.25-.09-.49-.17-.73-.26-.17-.06-.33-.12-.5-.18-.41-.14-.81-.29-1.22-.43q.39-.38.79-.3Z"/>
  <path class="cls-10" d="M423.41,323.73c1.03.32,2.07.64,3.14.97-.47.12-.58.13-1.01,0-.1-.03-.2-.05-.3-.08-.1-.03-.2-.06-.31-.09-.63-.18-1.24-.35-1.88-.44l.36-.36Z"/>
  <path class="cls-4" d="M403.51,332.41l1.93.12v.24h-2.65v-.12h.72v-.24Z"/>
  <path class="cls-11" d="M413.55,327.23c.1.02.2.04.3.07.11.02.21.05.33.07.11.03.22.05.34.08q.17.04.34.07c.28.06.56.12.83.19v.12c-.97-.06-1.93-.12-2.9-.24q.4-.36.76-.36Z"/>
</svg>