<?xml version="1.0" encoding="UTF-8"?>
<svg id="PASTE_LOGO_HERE" data-name="PASTE LOGO HERE" xmlns="http://www.w3.org/2000/svg" viewBox="0 0 1250 703">
  <defs>
    <style>
      .cls-1, .cls-2 {
        fill: #00a760;
      }

      .cls-2 {
        fill-rule: evenodd;
      }
    </style>
  </defs>
  <g id="layer1">
    <g id="g6441">
      <path id="path5617" class="cls-1" d="M912.94,246.84h-17.36c-28.6-39.02-74.78-64.35-126.87-64.35-55.4,0-104.11,28.68-132.1,72-27.99-43.32-76.69-72-132.1-72-52.09,0-98.23,25.4-126.82,64.43h-17.34c30.49-47.36,83.65-78.81,144.17-78.81,53.16,0,100.67,24.2,132.1,62.19,31.43-37.99,78.94-62.19,132.1-62.19,60.54,0,113.75,31.34,144.23,78.73"/>
      <path id="path5621" class="cls-1" d="M913.3,455.56c-30.42,47.69-83.82,79.33-144.58,79.33-53.17,0-100.68-24.21-132.11-62.2-31.43,37.99-78.94,62.2-132.1,62.2-60.75,0-114.12-31.61-144.55-79.28v-.02h17.3c28.56,39.34,74.92,64.91,127.25,64.91,55.4,0,104.11-28.67,132.1-72,27.99,43.32,76.69,72,132.11,72,52.33,0,98.69-25.59,127.26-64.93h17.33"/>
      <path id="path5625" class="cls-2" d="M303.77,355.43c0-26.55,16.92-48.06,38.38-48.06s38.38,21.52,38.38,48.06-16.93,48.06-38.38,48.06-38.38-21.52-38.38-48.06ZM274.19,355.43c0-38.02,30.42-68.83,67.96-68.83s67.96,30.81,67.96,68.83-30.42,68.83-67.96,68.83-67.96-30.81-67.96-68.83"/>
      <path id="path5627" class="cls-1" d="M988.59,420.59h27.93v-129.86h-27.93v129.86Z"/>
      <path id="path5631" class="cls-1" d="M209.22,385.96l-32.3-95.22h-31.92l48.57,129.85h27.44l47.76-129.85h-26.28l-33.16,95.5-.11-.28"/>
      <path id="path5635" class="cls-1" d="M740.29,290.73v129.86h94.23v-21.06h-66.3v-35.43h56.42v-21.05h-56.42v-31.25h63.36v-21.06h-91.3"/>
      <path id="path5639" class="cls-1" d="M634.95,337.32l20.97,83.27h27.72l36.43-129.86h-25.01l-23.41,90.06-20.39-90.06h-26.31l-22.16,90.47-20.71-90.47h-31.1l36.01,129.86h27.49l20.47-83.27"/>
      <path id="path5643" class="cls-1" d="M472.23,357.94l35.3,62.65h35.06l-33.47-49.45c8.78-3.26,27.92-15.49,27.92-37.57,0-27.72-21.52-42.83-44.16-42.83h-60.1v129.85h27.93v-109.96h23.82c12.57,0,23.85,8.19,23.85,23.65s-13.59,23.96-28.65,23.96c-2.9,0-5.37.08-7.51-.3"/>
      <path id="path5647" class="cls-1" d="M899.27,357.94l35.3,62.65h35.06l-33.48-49.45c8.79-3.26,27.92-15.49,27.92-37.57,0-27.72-21.51-42.83-44.15-42.83h-60.11v129.85h27.94v-109.96h23.82c12.57,0,23.85,8.19,23.85,23.65s-13.59,23.96-28.65,23.96c-2.89,0-5.37.08-7.51-.3"/>
      <path id="path5651" class="cls-1" d="M1020.15,350.05l47.59,70.54h37.26l-54.3-72.05,48.2-57.81h-33.49l-45.27,59.31"/>
    </g>
  </g>
</svg>