<svg id="LOGOS" xmlns="http://www.w3.org/2000/svg" viewBox="0 0 1250 703"><desc>raster-based</desc>
<metadata><?xpacket begin="﻿" id="W5M0MpCehiHzreSzNTczkc9d"?>
<x:xmpmeta xmlns:x="adobe:ns:meta/" x:xmptk="Adobe XMP Core 6.0-c006 79.164648, 2021/01/12-15:52:29        ">
   <rdf:RDF xmlns:rdf="http://www.w3.org/1999/02/22-rdf-syntax-ns#">
      <rdf:Description rdf:about=""
            xmlns:dc="http://purl.org/dc/elements/1.1/"
            xmlns:xmp="http://ns.adobe.com/xap/1.0/"
            xmlns:xmpMM="http://ns.adobe.com/xap/1.0/mm/"
            xmlns:stEvt="http://ns.adobe.com/xap/1.0/sType/ResourceEvent#">
         <dc:description>
            <rdf:Alt>
               <rdf:li xml:lang="x-default">raster-based</rdf:li>
            </rdf:Alt>
         </dc:description>
         <xmp:MetadataDate>2022-03-02T23:49:52-05:00</xmp:MetadataDate>
         <xmpMM:InstanceID>xmp.iid:011c7d63-d33b-46cc-8ba5-a130a87f64d4</xmpMM:InstanceID>
         <xmpMM:DocumentID>xmp.did:011c7d63-d33b-46cc-8ba5-a130a87f64d4</xmpMM:DocumentID>
         <xmpMM:OriginalDocumentID>xmp.did:011c7d63-d33b-46cc-8ba5-a130a87f64d4</xmpMM:OriginalDocumentID>
         <xmpMM:History>
            <rdf:Seq>
               <rdf:li>
                  <rdf:Description>
                     <stEvt:action>saved</stEvt:action>
                     <stEvt:instanceID>xmp.iid:011c7d63-d33b-46cc-8ba5-a130a87f64d4</stEvt:instanceID>
                     <stEvt:when>2022-03-02T23:49:52-05:00</stEvt:when>
                     <stEvt:softwareAgent>Adobe Bridge 2021 (Macintosh)</stEvt:softwareAgent>
                     <stEvt:changed>/metadata</stEvt:changed>
                  </rdf:Description>
               </rdf:li>
            </rdf:Seq>
         </xmpMM:History>
      </rdf:Description>
   </rdf:RDF>
</x:xmpmeta>
                                                                                                    
                                                                                                    
                                                                                                    
                                                                                                    
                                                                                                    
                                                                                                    
                                                                                                    
                                                                                                    
                                                                                                    
                                                                                                    
                                                                                                    
                                                                                                    
                                                                                                    
                                                                                                    
                                                                                                    
                                                                                                    
                                                                                                    
                                                                                                    
                                                                                                    
                                                                                                    
                           
<?xpacket end="w"?></metadata>
<defs><style>.cls-1{fill:#fc3;}.cls-2{isolation:isolate;}</style></defs><g id="Layer_5" data-name="Layer 5"><g id="Group_26-2" data-name="Group 26-2"><g id="Group_10-2" data-name="Group 10-2"><circle id="Ellipse_70-2" data-name="Ellipse 70-2" class="cls-1" cx="155.13032" cy="327.29431" r="14.13032"/><circle id="Ellipse_68-2" data-name="Ellipse 68-2" class="cls-1" cx="155.13032" cy="397.95871" r="14.13032"/><circle id="Ellipse_69-2" data-name="Ellipse 69-2" class="cls-1" cx="155.13032" cy="362.62651" r="8.83198"/><circle id="Ellipse_71-2" data-name="Ellipse 71-2" class="cls-1" cx="155.13032" cy="291.96638" r="8.83198"/></g><g id="Group_11-2" data-name="Group 11-2"><circle id="Ellipse_77-2" data-name="Ellipse 77-2" class="cls-1" cx="209.36141" cy="375.70142" r="14.13032"/><circle id="Ellipse_76-2" data-name="Ellipse 76-2" class="cls-1" cx="209.36141" cy="411.03362" r="8.83198"/><circle id="Ellipse_78-2" data-name="Ellipse 78-2" class="cls-1" cx="209.36141" cy="340.37349" r="8.83198"/><circle id="Ellipse_79-2" data-name="Ellipse 79-2" class="cls-1" cx="209.36141" cy="305.04129" r="8.83198"/></g><g id="Group_12-2" data-name="Group 12-2"><circle id="Ellipse_86-2" data-name="Ellipse 86-2" class="cls-1" cx="263.59667" cy="327.29431" r="14.13032"/><circle id="Ellipse_87-2" data-name="Ellipse 87-2" class="cls-1" cx="263.59667" cy="291.96638" r="8.83198"/><circle id="Ellipse_85-2" data-name="Ellipse 85-2" class="cls-1" cx="263.59667" cy="362.62651" r="8.83198"/><circle id="Ellipse_84-2" data-name="Ellipse 84-2" class="cls-1" cx="263.59667" cy="397.95871" r="8.83198"/></g></g><g class="cls-2"><path d="M387.17264,333.18538,370.4582,386.4h-4.40713l-18.45654-64.08341L339.085,321.291v-4.2029h27.889v4.2029l-9.43471,1.12828,12.612,47.16584,15.58616-47.06317-10.25388-1.231v-4.2029h27.889v4.2029l-10.35544,1.231,15.277,47.47275,13.02048-47.37008L411.986,321.291v-4.2029h23.27435v4.2029l-8.61334,1.231L409.31871,386.4h-4.40934Z"/><path d="M476.18529,355.33256a20.7334,20.7334,0,0,1-.7176,5.74186H442.75862c.20535,12.612,6.76747,19.27569,16.61066,19.27569,6.56213,0,10.56079-2.87037,14.25254-7.177l2.45969,1.94855c-3.79331,7.27972-10.35544,11.8933-19.68638,11.8933-13.84185,0-22.86367-9.53517-22.86367-25.2229s10.76613-26.14584,23.58126-26.14584C467.77729,335.64617,476.18529,342.9259,476.18529,355.33256ZM442.964,356.76775h18.66187c4.9216,0,6.04767-2.35813,6.04767-5.33118a11.1794,11.1794,0,0,0-11.1746-11.07414C450.75594,340.36243,444.09225,344.87444,442.964,356.76775Z"/><path d="M508.59186,385.68239H484.80305v-3.69174l7.6904-1.43519c.10378-5.12694.20535-11.89331.20535-16.40532v-4.81893c0-5.63919-.10157-8.81758-.30691-12.91891l-8.20266-.92293v-3.58908l15.78929-6.25412,1.539,1.02561-.30912,13.94452v13.53384c0,4.512.10378,11.27838.20535,16.40532l7.17815,1.43519Zm-18.5581-67.87672c0-3.99866,2.972-6.56213,6.869-6.56213,3.79331,0,6.869,2.56347,6.869,6.56213a6.87621,6.87621,0,0,1-13.73807,0Z"/><path d="M536.38154,335.64617c5.22851,0,9.74163,1.33252,13.02269,3.99866l11.58529-3.99866,1.539,1.02561v6.45946H552.48a17.50178,17.50178,0,0,1,2.35813,9.32983c0,10.76613-7.89575,16.816-18.5581,16.816a25.1005,25.1005,0,0,1-7.58884-1.12828,10.24894,10.24894,0,0,0-2.56347,6.56212c0,2.76882,1.12828,4.512,5.9483,4.512h13.43117c11.27838,0,16.50688,4.92159,16.50688,13.22692,0,8.92026-8.50956,17.73784-25.32557,17.73784-14.86635,0-21.22314-5.12694-21.22314-12.40666,0-4.40824,2.4597-7.99732,10.04854-11.688-4.51312-1.231-6.76747-3.79442-6.76747-7.79308,0-3.17839,1.84587-6.6648,6.97281-11.38105-4.9238-2.66614-7.89575-7.48506-7.89575-14.45788C517.82344,341.69605,525.71919,335.64617,536.38154,335.64617Zm17.94429,59.46873c0-4.51091-2.87259-7.99732-10.25388-7.99732H532.076c-1.43739,0-2.87258-.10267-4.204-.20534-2.87258,3.07683-3.99865,5.84453-3.99865,9.22827,0,6.6648,5.12693,9.33094,13.22582,9.33094C548.276,405.47145,554.32583,400.85787,554.32583,395.1149Zm-28.19816-42.55116c0,7.48507,3.59018,12.612,9.947,12.612,6.56213,0,10.457-5.43385,10.457-13.02159,0-7.27972-3.68954-12.304-10.04853-12.304C530.02476,339.85018,526.12767,345.07978,526.12767,352.56374Z"/><path d="M574.838,319.13819l-8.408-1.02561v-3.588l15.68772-4.61468,1.43519.82026-.41068,14.56055v19.89062c5.02537-5.63919,12.30509-9.53518,18.76344-9.53518,8.81869,0,13.12426,5.53652,13.12426,18.96879v9.53518c0,4.71625.10377,11.27838.20534,16.40532l7.17815,1.43519v3.69174H598.6246v-3.69174l7.48506-1.33252c.10378-5.12694.20535-11.79174.20535-16.508v-8.71491c0-9.43361-2.35813-12.40666-8.408-12.40666-5.02316,0-9.22716,1.94854-14.45566,6.6648v14.45677c0,4.512.10156,11.27838.20313,16.40532l7.07659,1.43519v3.69174H566.94224v-3.69174l7.69041-1.43519c.10157-5.12694.20534-11.89331.20534-16.40532Z"/><path d="M648.77453,381.68374c2.25656,0,4.30778-.92294,6.87124-2.76882l2.4597,2.66614c-2.665,3.48641-6.869,5.43385-12.09754,5.43385-7.17816,0-11.68907-3.69064-11.68907-11.688,0-2.56347.10157-4.71736.10157-8.716v-24.1973h-8.50957v-4.512l9.1256-1.12718,2.665-13.74028h6.15365l-.51446,13.94452H657.081v5.435H643.13534v31.785C643.13534,379.42828,645.29033,381.68374,648.77453,381.68374Z"/><path d="M663.54373,383.11893l-.40847-11.27838h5.63919l1.94744,8.92025a19.368,19.368,0,0,0,8.30422,1.64053c7.79418,0,11.48373-3.17839,11.48373-7.792,0-4.40935-3.07573-6.6648-9.53408-8.92136l-4.71625-1.7432c-7.48506-2.76771-12.40666-6.869-12.40666-13.84185,0-7.48507,6.35678-14.45678,17.84051-14.45678a26.46857,26.46857,0,0,1,14.3541,4.204l-.41069,10.45811H690.3067l-1.64274-8.20266a15.666,15.666,0,0,0-7.07438-1.7432c-6.253,0-9.53407,2.76881-9.53407,6.97281,0,4.51091,2.45969,6.25411,9.4325,8.81758l3.17729,1.12828c10.25388,3.79332,14.151,8.61224,14.151,15.0717,0,7.79308-6.76747,14.66211-19.9955,14.66211A31.63867,31.63867,0,0,1,663.54373,383.11893Z"/><path d="M787.617,387.01491c-5.43385,0-8.61334-1.22984-11.996-4.71625-1.23208-1.43519-2.4619-2.66614-3.59018-3.99866-4.51091,4.9216-11.073,8.71491-20.91623,8.71491-12.81735,0-21.63382-8.30533-21.63382-18.66077,0-9.22827,5.2285-16.0973,15.48238-21.22424-.10378-.20535-.30691-.308-.41069-.51225-5.12694-5.84454-7.07438-11.07415-7.07438-16.508,0-9.02293,7.17816-14.55945,16.816-14.55945,10.15011,0,15.584,5.43385,15.584,13.12426,0,7.07438-4.71625,12.09864-15.17547,17.73783,2.155,2.4608,4.61469,5.22961,8.20266,9.1256,4.10243,4.51091,7.79418,8.4069,11.79284,12.71357a70.72667,70.72667,0,0,0,8.50957-21.12157l-8.10109-1.33252v-4.10133h20.81466v4.10133l-7.792,1.43519a75.32964,75.32964,0,0,1-10.66235,23.993c2.56347,2.665,5.22851,5.63919,8.4058,8.92026l9.947,1.33251-.41068,4.512A31.3448,31.3448,0,0,1,787.617,387.01491Zm-40.19413-37.01353c-7.07438,4.30557-9.02182,10.45811-9.02182,15.584,0,7.48506,5.53762,14.86746,15.48238,14.86746a22.903,22.903,0,0,0,15.17547-5.43385c-3.69175-4.204-6.97281-7.89465-10.45922-11.79174C753.985,357.588,750.80766,353.89737,747.42282,350.00138Zm4.82-6.35789c6.35678-4.40824,10.86769-8.92025,10.86769-14.86746,0-5.9461-3.89488-9.63784-8.92025-9.63784a9.28387,9.28387,0,0,0-9.33094,9.53628c0,3.69064.82137,6.869,4.61469,11.58529Q750.85844,342.10619,752.24285,343.64349Z"/><path d="M838.58605,348.8731c0-8.81758,0-17.63627-.20314-26.45385L828.9482,321.291v-4.2029h29.73491c14.25254,0,22.35363,6.97171,22.35363,16.71223,0,7.27972-4.51312,13.84185-15.89307,16.20108,13.63651,1.94744,19.37727,8.61224,19.37727,16.91757,0,9.33094-7.6882,18.76344-27.37459,18.76344H828.9482v-4.204l9.43471-1.12828c.20314-8.61224.20314-17.53249.20314-26.45274Zm9.947-27.06877c-.20534,8.81758-.20534,17.94317-.20534,26.04316H853.66c12.40666,0,17.73673-3.99866,17.73673-13.32959,0-9.32984-5.33007-12.71357-15.78929-12.71357Zm-.20534,30.75941c0,10.76613,0,19.58371.20534,28.29973h6.25522c13.12425,0,19.481-4.9216,19.481-13.94452,0-9.53628-6.15365-14.35521-20.30241-14.35521Z"/><path d="M916.31811,385.68239H892.52929v-3.69174l7.69041-1.43519c.10377-5.12694.20534-11.89331.20534-16.40532v-4.81893c0-5.63919-.10157-8.81758-.30691-12.91891l-8.20266-.92293v-3.58908l15.78929-6.25412,1.539,1.02561-.30912,13.94452v13.53384c0,4.512.10377,11.27838.20534,16.40532l7.17816,1.43519ZM897.76,317.80567c0-3.99866,2.97195-6.56213,6.869-6.56213,3.79332,0,6.869,2.56347,6.869,6.56213a6.87622,6.87622,0,0,1-13.73808,0Z"/><path d="M952.92647,378.81225c-5.63919,5.53763-9.024,8.20266-15.0739,8.20266-7.48506,0-13.73807-4.30557-13.73807-12.81624,0-5.84453,3.17728-10.45811,17.01913-15.48238a106.36539,106.36539,0,0,1,11.5875-3.38373v-2.56347c0-9.94586-2.87038-12.40666-9.63785-12.40666a23.33971,23.33971,0,0,0-5.53762.61492l-1.94744,6.6648c-.92294,3.17839-2.56347,4.92159-5.33228,4.92159-2.87038,0-4.51091-1.53786-4.82-4.20289,1.94965-7.79308,9.53628-12.71468,19.9955-12.71468,10.76613,0,15.89086,4.9216,15.89086,17.84051V375.327c0,4.40824,1.43739,6.04877,3.69175,6.04877,1.7443,0,2.87037-.92293,3.99865-2.25545l2.05122,2.25545c-2.45969,3.99866-5.33228,5.33228-8.92025,5.33228A8.95466,8.95466,0,0,1,952.92647,378.81225Zm-11.48372,1.4363c3.4842,0,5.43385-1.231,11.27838-5.33228v-15.7904c-3.59018,1.02561-7.27972,2.25656-9.4325,3.07683-8.92247,3.4853-10.04854,7.38239-10.04854,10.45811C933.24009,378.09466,936.7265,380.24855,941.44275,380.24855Z"/><path d="M976.92284,383.11893l-.40848-11.27838h5.63919l1.94744,8.92025a19.368,19.368,0,0,0,8.30423,1.64053c7.79418,0,11.48372-3.17839,11.48372-7.792,0-4.40935-3.07572-6.6648-9.53407-8.92136l-4.71625-1.7432c-7.48507-2.76771-12.40666-6.869-12.40666-13.84185,0-7.48507,6.35678-14.45678,17.8405-14.45678a26.46861,26.46861,0,0,1,14.35411,4.204l-.41069,10.45811h-5.33007l-1.64274-8.20266a15.666,15.666,0,0,0-7.07438-1.7432c-6.253,0-9.53407,2.76881-9.53407,6.97281,0,4.51091,2.45969,6.25411,9.4325,8.81758l3.17729,1.12828c10.25388,3.79332,14.151,8.61224,14.151,15.0717,0,7.79308-6.76747,14.66211-19.9955,14.66211A31.63867,31.63867,0,0,1,976.92284,383.11893Z"/><path d="M1063.46917,355.33256a20.73384,20.73384,0,0,1-.71759,5.74186h-32.70907c.20534,12.612,6.76747,19.27569,16.61066,19.27569,6.56213,0,10.56078-2.87037,14.25253-7.177l2.4597,1.94855c-3.79332,7.27972-10.35545,11.8933-19.68639,11.8933-13.84184,0-22.86367-9.53517-22.86367-25.2229s10.76613-26.14584,23.58127-26.14584C1055.06117,335.64617,1063.46917,342.9259,1063.46917,355.33256Zm-33.22132,1.43519h18.66188c4.92159,0,6.04766-2.35813,6.04766-5.33118a11.1794,11.1794,0,0,0-11.1746-11.07414C1038.03982,340.36243,1031.37613,344.87444,1030.24785,356.76775Z"/><path d="M1073.72746,383.11893l-.40847-11.27838h5.63919l1.94744,8.92025a19.368,19.368,0,0,0,8.30422,1.64053c7.79419,0,11.48373-3.17839,11.48373-7.792,0-4.40935-3.07573-6.6648-9.53408-8.92136l-4.71625-1.7432c-7.48506-2.76771-12.40666-6.869-12.40666-13.84185,0-7.48507,6.35678-14.45678,17.84051-14.45678a26.46857,26.46857,0,0,1,14.3541,4.204l-.41069,10.45811h-5.33228l-1.63832-8.20266a15.68207,15.68207,0,0,0-7.07661-1.7432c-6.253,0-9.534,2.76881-9.534,6.97281,0,4.51091,2.45969,6.25411,9.4325,8.81758l3.17729,1.12828c10.25388,3.79332,14.151,8.61224,14.151,15.0717,0,7.79308-6.76747,14.66211-19.99329,14.66211A31.64085,31.64085,0,0,1,1073.72746,383.11893Z"/></g></g></svg>