<?xml version="1.0" encoding="UTF-8"?><svg id="LOGOS" xmlns="http://www.w3.org/2000/svg" viewBox="0 0 1250 703"><defs><style>.cls-1{fill:#6f4d9f;stroke-width:0px;}</style></defs><path class="cls-1" d="M390.59875,265.63868h47.8579c3.5367,0,6.39757,2.87215,6.39757,6.39757v47.85791c0,5.71051-6.90443,8.5714-10.94796,4.52786l-47.84664-47.84665c-4.03228-4.03227-1.17138-10.94796,4.52787-10.94796h0l.01127.01127ZM435.21282,372.68542l-104.97428-105.08692c-4.1787-4.1787-11.31965-1.23897-11.31965,4.65176v34.78118c0,8.72908,3.45785,17.09774,9.65267,23.28131l104.96302,105.08693c4.17869,4.1787,11.31964,1.23897,11.31964-4.65176v-34.78118c0-8.72908-3.45785-17.09773-9.65269-23.28131h.01129ZM325.29393,372.68542l-104.97428-105.08691c-4.15617-4.1787-11.31965-1.23897-11.31965,4.66302v34.78118c0,8.74035,3.4691,17.09774,9.65268,23.28131l104.96302,105.08692c4.1787,4.1787,11.31965,1.23897,11.31965-4.65176v-34.78118c0-8.72908-3.45785-17.09775-9.64141-23.28131h0l-.00002-.01126ZM984.52562,298.53888l48.63507,105.7965h-24.38515l-11.11691-24.71176h-44.17477l-11.26333,24.71176h-23.81071l48.6238-105.7965h17.51447-.02255.00007ZM988.18621,358.50488l-12.55865-27.77539-12.63743,27.77539h25.19607ZM877.77177,298.56141l-46.54011,47.65517v-47.65517h-22.5154v105.77398h22.5154v-28.68772l14.00032-13.9778,34.3982,42.65424h28.55253l-47.11455-58.38912,47.18213-47.39611h-30.48986l.01134.02253ZM722.63061,361.73745h52.1605v-21.4116h-52.1605v-20.40917h58.16388v-21.4116h-80.668v105.83029h80.668v-21.38908h-58.16388v-21.22012.01127ZM637.84019,364.15908l-21.97478-65.62018h-17.18786l-21.97478,65.62018-22.87583-65.64271h-24.06974l38.10388,105.7965h17.18786l22.00857-63.78427,21.9072,63.78427h17.33429l38.11512-105.7965h-23.67552l-22.87583,65.64272h-.02258ZM1032.48492,311.75078h.01127c-.36043.54064-.8222.93486-1.36289,1.25023l2.3991,4.75313h-3.3227l-1.98236-4.12238h-2.26394v4.12238h-3.01857v-12.24325h6.05968c.68705,0,1.32907.14642,1.95981.45054.61947.30411,1.13761.75464,1.52052,1.3516.38298.60822.58572,1.34034.58572,2.20761s-.20273,1.61066-.6082,2.23014h.02255ZM1025.98596,307.7185v3.69437h2.16254c.43929,0,.8222-.15769,1.19391-.48432.38298-.32664.55189-.75464.55189-1.41918s-.19146-1.1376-.55189-1.39665c-.36043-.25906-.75462-.39421-1.14888-.39421h-2.20764.01127-.01121ZM1041,311.76204c0,1.84719-.34916,3.57048-1.03621,5.16987-.68705,1.61066-1.6332,3.01857-2.84966,4.23502-1.21646,1.20518-2.63565,2.16256-4.23502,2.84962-1.61065.68706-3.33397,1.03622-5.1699,1.03622s-3.54798-.34916-5.15863-1.03622c-1.59937-.68706-3.00729-1.63318-4.23502-2.84962s-2.16254-2.63562-2.84966-4.23502c-.69832-1.61066-1.02493-3.33395-1.02493-5.16987s.34916-3.54795,1.02493-5.15861c.68705-1.59939,1.6332-3.01857,2.84966-4.23502,1.22773-1.21644,2.63565-2.16256,4.23502-2.84962s3.30015-1.03622,5.15863-1.03622,3.57046.34916,5.1699,1.03622c1.61065.68706,3.01857,1.63318,4.23502,2.84962,1.20519,1.21644,2.16254,2.63562,2.84966,4.23502.68705,1.59939,1.03621,3.30016,1.03621,5.15861ZM1036.25818,316.72917c.88978-1.48676,1.34034-3.15374,1.34034-4.96713s-.45056-3.46911-1.34034-4.96713c-.90105-1.49803-2.08369-2.69194-3.58173-3.58174s-3.14245-1.32907-4.9671-1.32907-3.4804.43927-4.97837,1.32907c-1.49804.8898-2.69195,2.08372-3.58173,3.58174s-1.34034,3.14247-1.34034,4.96713.45056,3.46911,1.34034,4.96713c.90105,1.49803,2.08369,2.69194,3.58173,3.58174s3.15372,1.34034,4.97837,1.34034,3.46913-.43927,4.9671-1.32907c1.49804-.8898,2.69195-2.08372,3.58173-3.58174h0v-.01127Z"/></svg>