<?xml version="1.0" encoding="UTF-8"?><svg id="LOGO" xmlns="http://www.w3.org/2000/svg" viewBox="0 0 1250 703"><defs><style>.cls-1{fill:#006c8c;}.cls-1,.cls-2,.cls-3{stroke-width:0px;}.cls-2{fill:#fff;}.cls-3{fill:#9bcd65;}</style></defs><polygon class="cls-1" points="882.36826 504.80939 367.63174 504.80939 367.63174 198.19061 882.36826 198.19061 882.36826 504.80939 882.36826 504.80939"/><polygon class="cls-2" points="534.74102 317.28122 552.39121 317.28122 552.39121 330.73217 534.74102 330.73217 534.74102 317.28122 534.74102 317.28122"/><polygon class="cls-3" points="534.74102 330.73217 552.39121 330.72958 552.39121 384.39413 534.74102 384.39413 534.74102 330.73217 534.74102 330.73217"/><polygon class="cls-2" points="438.16988 330.72958 455.83516 330.72958 466.76522 364.41023 466.98625 364.41023 476.15063 330.72958 494.25602 330.72958 504.19245 364.41023 504.41299 364.41023 514.4604 330.72958 531.24272 330.72958 512.14235 384.39413 495.80252 384.39413 484.65152 348.73052 484.42956 348.73052 474.49304 384.39413 457.82333 384.39413 438.16988 330.72958 438.16988 330.72958"/><path class="cls-2" d="m590.10407,346.51983c-2.43063-2.9801-5.63328-4.52662-9.6059-4.52662-2.75975,0-6.07439,1.215-6.07439,4.41769,0,7.95088,27.93489,1.21405,27.93489,21.64246,0,13.69474-13.25016,17.66491-24.73121,17.66491-7.50832,0-15.7887-1.87608-21.08845-7.28233l10.04741-11.15155c3.09124,3.75017,6.73483,5.84919,11.70161,5.84919,3.75517,0,7.50884-.99399,7.50884-3.86408,0-8.60944-27.9323-1.32506-27.9323-21.75357,0-12.59166,11.26053-18.11034,22.52251-18.11034,7.06531,0,14.90578,1.76557,19.87246,7.06633l-10.15545,10.04791h0Z"/><path class="cls-2" d="m642.9133,343.98078h-14.57919v17.88933c0,5.74426.66651,9.93952,7.83789,9.93952,1.77011,0,5.30218-.22199,6.74131-1.54712v13.79868c-3.64619,1.32699-7.72937,1.65709-11.59553,1.65709-11.04001,0-19.54241-4.52523-19.54241-16.22682v-25.51068h-10.59956v-13.2512h10.59956v-13.44537h16.55875v13.44537h14.57919v13.2512h0Z"/><path class="cls-2" d="m648.73233,330.72958h16.55969v8.61045h.22104c3.53313-6.51128,8.17038-9.93444,15.45867-9.93444,1.87513,0,3.97421.11098,5.51931.54947v15.13122c-2.32015-.66149-4.63718-1.1055-7.06434-1.1055-12.58756,0-14.13468,7.29087-14.13468,18.0004v22.41295h-16.55969v-53.66455h0Z"/><path class="cls-2" d="m701.27668,357.567c0-8.06196,4.97119-13.58622,13.24959-13.58622,8.27937,0,13.2506,5.52426,13.2506,13.58622,0,8.05726-4.97123,13.58152-13.2506,13.58152-8.2784,0-13.24959-5.52426-13.24959-13.58152h0Zm-16.55979,0c0,17.11071,13.24968,28.15128,29.80938,28.15128,16.56278,0,29.81449-11.04057,29.81449-28.15128,0-17.12194-13.2517-28.16141-29.81449-28.16141-16.55969,0-29.80938,11.03947-29.80938,28.16141h0Z"/><path class="cls-2" d="m749.03537,330.72958h15.89672v7.28892h.22208c2.20703-4.19872,7.6153-8.61291,15.67464-8.61291,16.78285,0,19.875,11.03947,19.875,25.39819v29.59035h-16.55972v-26.27419c0-6.18525-.11111-14.13916-8.61244-14.13916-8.61445,0-9.93652,6.7373-9.93652,13.69716v26.71619h-16.55976v-53.66455h0Z"/><path class="cls-2" d="m811.88756,323.55082c0,1.53292-.54193,2.84083-1.62681,3.92268-1.0838,1.08283-2.39272,1.62381-3.92773,1.62381-1.54403,0-2.85597-.53891-3.93583-1.61675-1.07986-1.07737-1.61877-2.38726-1.61877-3.92974,0-1.54207.53891-2.852,1.61877-3.92984,1.07986-1.07775,2.39181-1.61666,3.93583-1.61666,1.53501,0,2.84392.53686,3.92773,1.60959,1.08488,1.07283,1.62681,2.38525,1.62681,3.9369h0Zm-1.03341,0c0-1.2454-.44196-2.30905-1.325-3.19058-.88307-.88156-1.94871-1.32254-3.19613-1.32254-1.25748,0-2.32517.43846-3.2042,1.31491-.87799.87705-1.31699,1.94325-1.31699,3.19821,0,1.25537.439,2.3211,1.31699,3.19808.87903.87695,1.94672,1.31497,3.2042,1.31497,1.24742,0,2.31306-.43597,3.19613-1.30797.88304-.87187,1.325-1.9401,1.325-3.20508h0Zm-1.5662-1.1132c0,1.07084-.55401,1.60559-1.66112,1.60559l1.46736,2.51893-1.3665-.00401-1.3361-2.52092-1.18882.00599v2.51893h-1.16258v-5.97433h2.89842c.7397,0,1.31595.15794,1.72972.47328.41276.3154.61964.77408.61964,1.37653h0Zm-1.19488-.17456c0-.36435-.12716-.59138-.38349-.68278-.25432-.09121-.6045-.13668-1.04754-.13668h-1.45928v1.71158h1.77718c.36634,0,.64288-.05961.83157-.17967.18765-.12009.28156-.35725.28156-.71245h0Z"/></svg>