<svg xmlns="http://www.w3.org/2000/svg" viewBox="0 0 1250 703"><defs><style>.cls-1{fill:#006c92;}.cls-2{fill:#8ed300;}</style></defs><title>wiwynn-logo</title><g id="圖層_1" data-name="圖層 1"><path class="cls-1" d="M750.483,411.9l-36.021,63.264H692.891l-3.946-37.624h-.235l-20.988,37.624H645.847L636.231,411.9h21.83l2.323,39.948h.25L682.509,411.9h21.95l3.569,39.465h.242L725.631,411.9Z"/><path class="cls-1" d="M853.6,421.676q10.02-11.212,24.457-11.214,8.589,0,12.872,4.393a14.789,14.789,0,0,1,4.3,10.764c0,2.537-.806,7.551-2.389,15.017l-7.341,34.53H861.174l6.255-29.4c1.516-7.187,2.265-11.31,2.265-12.343,0-3.5-1.586-5.251-4.776-5.251q-5.353,0-9.353,5.043t-6.022,14.517l-5.967,27.434h-24.44l13.6-63.264h22.721l-2.1,9.541Z"/><path class="cls-1" d="M928.556,421.676q10.039-11.212,24.457-11.214,8.565,0,12.881,4.393a14.789,14.789,0,0,1,4.285,10.764q0,3.805-2.386,15.017l-7.321,34.53H936.136l6.254-29.4c1.529-7.187,2.257-11.31,2.257-12.343,0-3.5-1.57-5.251-4.768-5.251-3.556,0-6.687,1.687-9.353,5.043s-4.668,8.2-6.013,14.517l-5.959,27.434H894.085L907.7,411.9h22.72l-2.1,9.541Z"/><path class="cls-1" d="M600.922,411.9l-36.017,63.264h-21.6l-3.931-37.624h-.233l-21,37.624h-21.87l-9.6-63.264h21.816l2.324,39.948h.242L532.94,411.9h21.946l3.573,39.465h.237L576.049,411.9Z"/><path class="cls-1" d="M620.6,405.26c-7.933,0-12.814-5.934-11.531-13.184a16.416,16.416,0,0,1,16.174-13.2c7.254,0,12.409,5.709,11.1,13.2C635.049,399.326,627.849,405.26,620.6,405.26Z"/><polygon class="cls-2" points="803.459 411.711 782.665 448.373 779.096 411.902 755.193 411.902 767.161 475.712 750.602 504.908 775.475 504.908 828.332 411.711 803.459 411.711"/><polygon class="cls-2" points="618.129 475.083 591.89 475.083 605.436 411.902 631.68 411.902 618.129 475.083"/><path class="cls-1" d="M981.6,382.786a11.716,11.716,0,0,1,5.68,1.482,10.688,10.688,0,0,1,4.273,4.243,11.523,11.523,0,0,1,.033,11.515,10.883,10.883,0,0,1-4.251,4.252,11.536,11.536,0,0,1-11.461,0,10.857,10.857,0,0,1-4.251-4.252,11.543,11.543,0,0,1,.029-11.515,10.667,10.667,0,0,1,4.272-4.243A11.718,11.718,0,0,1,981.6,382.786Zm.017,2.257a9.394,9.394,0,0,0-4.552,1.186,8.616,8.616,0,0,0-3.431,3.407,9.3,9.3,0,0,0-.029,9.274,8.8,8.8,0,0,0,3.419,3.423,9.228,9.228,0,0,0,9.2,0,8.877,8.877,0,0,0,3.414-3.423,9.271,9.271,0,0,0-.02-9.274,8.613,8.613,0,0,0-3.44-3.407A9.436,9.436,0,0,0,981.618,385.043Zm-5.21,15.407v-12.2h2.474c2.328,0,3.627.008,3.91.025a4.764,4.764,0,0,1,1.912.491,2.982,2.982,0,0,1,1.139,1.171,3.37,3.37,0,0,1,.464,1.749,3.228,3.228,0,0,1-.862,2.261,3.987,3.987,0,0,1-2.428,1.166,2.906,2.906,0,0,1,.854.458,6,6,0,0,1,.829.937c.087.12.391.616.9,1.487l1.437,2.46h-3.065l-1.02-1.982a8.329,8.329,0,0,0-1.712-2.515,2.757,2.757,0,0,0-1.711-.521h-.65v5.018Zm2.474-6.937h1.008a12.372,12.372,0,0,0,2.667-.163,1.552,1.552,0,0,0,1.118-1.52,1.489,1.489,0,0,0-.291-.907,1.593,1.593,0,0,0-.833-.571,11.7,11.7,0,0,0-2.661-.175h-1.008Z"/><path class="cls-1" d="M418.056,267.589c-2.657-17.415-21.584-18.731-21.584-18.731H369.935l17.75,116.9,35.741-63.01Z"/><path class="cls-1" d="M346.269,267.589c-2.658-17.415-21.585-18.731-21.585-18.731H298.149l17.082,112.515h0s2.84,18.731,21.571,18.731h26.635Z"/><path class="cls-1" d="M274.658,405.027c19.866,20.339,53.149,28.459,90.811,25.132L381.83,401.3c-37.255,5.776-70.5-.42-88.845-19.514-19.8-20.625-17.665-51.524,1.745-82.1l-2.765-18.214C253.783,325.289,244.883,374.515,274.658,405.027Z"/><path class="cls-1" d="M495.811,200.323c-45.286-8.15-105.789,6.15-157.651,40.96a35.656,35.656,0,0,1,9.182,6.03c1.79-1.22,3.6-2.432,5.451-3.632,46.2-29.791,99.327-41.938,138.113-34.705a99.274,99.274,0,0,1,10.948,2.7l4.984-8.783C503.265,201.9,499.611,201.006,495.811,200.323Z"/><path class="cls-1" d="M545.556,225.246l-7.485,13.2a48.486,48.486,0,0,1,4.8,11.826c8.385,32.49-15.347,75.957-62.146,109.575L456.78,402.075a270.124,270.124,0,0,0,24.177-14.43c68.8-46.173,98.24-112.207,71.268-153.866A64.1,64.1,0,0,0,545.556,225.246Z"/><path class="cls-2" d="M544.413,223.947c-9.674-9.911-22.579-16.853-37.575-21.051l-4.984,8.783L352.422,475.166h51.39L538.071,238.443l7.485-13.2C545.162,224.821,544.821,224.367,544.413,223.947Z"/></g></svg>