<?xml version="1.0" encoding="UTF-8"?>
<svg id="PASTE_LOGO_HERE" data-name="PASTE LOGO HERE" xmlns="http://www.w3.org/2000/svg" viewBox="0 0 1250 703">
  <defs>
    <style>
      .cls-1 {
        fill: #0086ea;
      }

      .cls-2 {
        fill: #ee282a;
      }
    </style>
  </defs>
  <g>
    <polygon points="553.24 363.37 531.96 363.37 531.96 350.1 589.94 350.1 589.94 363.37 568.66 363.37 568.66 424.43 553.24 424.43 553.24 363.37"/>
    <path d="M597.04,392.67h22.93c-.41-5.76-4.42-10.39-11.31-10.39-6.48,0-10.39,3.19-11.62,10.39M634.36,406.85c-2.06,11.21-11.93,18.4-24.68,18.4-17.58,0-26.63-13.77-26.63-26.83s8.02-26.63,25.6-26.63,25.6,13.47,25.6,25.29c0,1.95-.1,3.5-.2,4.63h-37.22c1.03,7.3,5.65,11.82,12.85,11.82,5.76,0,9.56-2.26,10.69-6.68h13.98Z"/>
    <path d="M642.06,398.52c0-15.11,10.69-26.73,26.73-26.73,13.57,0,24.36,8.23,25.29,20.26h-14.39c-.82-4.63-5.24-8.02-10.49-8.02-7.71,0-12.23,6.06-12.23,14.49s4.62,14.39,12.44,14.39c5.24,0,9.46-3.18,10.48-7.81h14.6c-1.54,11.51-12.23,20.15-25.7,20.15-16.04,0-26.73-11.62-26.73-26.73"/>
    <path d="M702.2,350.1h14.29v29.71c2.98-5.04,8.64-8.02,15.83-8.02,11.62,0,19.23,8.43,19.23,20.35v32.28h-14.29v-29.1c0-6.27-4.11-10.79-10.08-10.79-6.27,0-10.69,4.83-10.69,11.51v28.38h-14.29v-74.33Z"/>
    <path d="M761.96,372.62h14.39v7.2c2.88-5.04,8.64-8.02,15.73-8.02,11.72,0,19.33,8.43,19.33,20.36v32.28h-14.4v-29.1c0-6.27-4.01-10.79-9.97-10.79-6.27,0-10.69,4.83-10.69,11.51v28.38h-14.39v-51.82Z"/>
    <path d="M859.05,398.52c0-8.64-5.25-14.49-12.95-14.49s-12.95,5.86-12.95,14.49,5.24,14.39,12.95,14.39,12.95-5.86,12.95-14.39M818.75,398.52c0-15.42,11.41-26.73,27.35-26.73s27.35,11.31,27.35,26.73-11.41,26.73-27.35,26.73-27.35-11.31-27.35-26.73"/>
    <rect x="881.7" y="350.1" width="14.29" height="74.33"/>
    <path d="M944.43,398.52c0-8.64-5.25-14.49-12.95-14.49s-12.96,5.86-12.96,14.49,5.25,14.39,12.96,14.39,12.95-5.86,12.95-14.39M904.13,398.52c0-15.42,11.41-26.73,27.35-26.73s27.35,11.31,27.35,26.73-11.41,26.73-27.35,26.73-27.35-11.31-27.35-26.73"/>
    <path d="M1003.86,398.53c0-8.74-5.04-14.5-12.74-14.5s-12.65,5.76-12.65,14.5,5.04,14.39,12.65,14.39,12.74-5.65,12.74-14.39M1017.33,372.62v54.9c0,10.8-7.81,17.89-19.54,17.89h-26.11v-11.21h23.85c4.32,0,7.5-3.39,7.5-8.23v-6.78c-2.67,3.8-8.12,6.06-14.19,6.06-15.32,0-24.47-10.59-24.47-26.73s9.15-26.73,24.26-26.73c6.27,0,11.41,2.36,14.29,5.96v-5.14h14.39Z"/>
    <polygon points="1059.29 372.62 1048.49 406.03 1037.6 372.62 1023 372.62 1041.82 424.02 1034.2 445.41 1047.88 445.41 1055.18 424.23 1073.99 372.62 1059.29 372.62"/>
    <polygon points="527.64 257.61 543.27 257.61 557.05 309.2 571.75 257.61 584.8 257.61 599.61 309.2 613.49 257.61 629.12 257.61 607.84 331.93 592.62 331.93 578.33 281.67 564.04 331.93 549.02 331.93 527.64 257.61"/>
    <polygon points="832.45 257.61 848.08 257.61 861.85 309.2 876.56 257.61 889.61 257.61 904.42 309.2 918.3 257.61 933.93 257.61 912.64 331.93 897.43 331.93 883.14 281.67 868.85 331.93 853.83 331.93 832.45 257.61"/>
    <path d="M666.02,306.01c0-8.64-5.25-14.49-12.95-14.49s-12.96,5.86-12.96,14.49,5.25,14.39,12.96,14.39,12.95-5.86,12.95-14.39M625.72,306.01c0-15.42,11.41-26.73,27.35-26.73s27.35,11.31,27.35,26.73-11.41,26.73-27.35,26.73-27.35-11.31-27.35-26.73"/>
    <path d="M712.8,292.03c-7.09,0-10.28,5.86-10.28,14.7v25.19h-14.4v-51.82h14.4v8.64c2.78-6.48,6.68-8.64,12.95-8.64h5.86v11.93h-8.53Z"/>
    <rect x="727.36" y="257.59" width="14.29" height="74.33"/>
    <path d="M789.6,306.01c0-8.74-5.04-14.49-12.64-14.49s-12.65,5.76-12.65,14.49,5.04,14.39,12.65,14.39,12.64-5.76,12.64-14.39M750.12,306.01c0-16.14,9.26-26.73,24.26-26.73,6.48,0,11.52,2.47,14.39,6.27v-27.96h14.29v74.33h-14.29v-5.65c-2.87,4.01-8.23,6.48-14.19,6.48-15.21,0-24.47-10.59-24.47-26.73"/>
    <path d="M940.43,331.93h14.39v-51.82h-14.39v51.82ZM940.02,272.7h15.21v-15.11h-15.21v15.11Z"/>
    <path d="M1002.11,306.01c0-8.74-5.04-14.49-12.65-14.49s-12.65,5.76-12.65,14.49,5.04,14.39,12.65,14.39,12.65-5.76,12.65-14.39M962.63,306.01c0-16.14,9.25-26.73,24.26-26.73,6.48,0,11.52,2.47,14.39,6.27v-27.96h14.29v74.33h-14.29v-5.65c-2.87,4.01-8.23,6.48-14.19,6.48-15.21,0-24.47-10.59-24.47-26.73"/>
    <path d="M1037.68,300.16h22.93c-.41-5.76-4.42-10.39-11.31-10.39-6.48,0-10.39,3.19-11.62,10.39M1075,314.34c-2.06,11.21-11.93,18.4-24.68,18.4-17.58,0-26.63-13.77-26.63-26.83s8.02-26.63,25.6-26.63,25.6,13.47,25.6,25.29c0,1.95-.1,3.5-.2,4.63h-37.22c1.03,7.3,5.65,11.82,12.85,11.82,5.76,0,9.56-2.26,10.69-6.68h13.98Z"/>
  </g>
  <g>
    <path class="cls-1" d="M379.28,386.08l37.91,37.9c.31.31.74.49,1.19.49h47.38c.92,0,1.67-.75,1.67-1.67,0-.44-.18-.87-.49-1.19l-61.6-61.59,37.9-37.9c.65-.65.65-1.71,0-2.37l-23.69-23.69c-.65-.65-1.71-.65-2.37,0h0s-101.87,101.87-101.87,101.87c-.65.66-.65,1.71,0,2.37l23.69,23.69c.65.65,1.71.65,2.37,0h0s37.9-37.9,37.9-37.9Z"/>
    <path class="cls-2" d="M376.96,258.1l-36.77,36.77-36.77-36.77c-.31-.31-.74-.49-1.19-.49h-47.38c-.93,0-1.68.75-1.68,1.68,0,.44.18.87.49,1.18l60.46,60.46-13.03,13.03-75.86-75.86c-.31-.31-.74-.49-1.18-.49h-47.38c-.93,0-1.68.75-1.68,1.67,0,.45.18.87.49,1.19l124.43,124.43c.65.65,1.72.65,2.37,0h0s124.43-124.43,124.43-124.43c.65-.65.65-1.72,0-2.37-.31-.31-.74-.49-1.18-.49h-47.38c-.44,0-.87.18-1.19.49"/>
    <path class="cls-2" d="M455.14,258.1l-22.56,22.56c-.65.66-.65,1.72,0,2.37l23.69,23.69c.65.65,1.71.65,2.37,0l46.25-46.25c.65-.65.65-1.72,0-2.37-.31-.31-.74-.49-1.18-.49h-47.38c-.44,0-.87.18-1.19.49"/>
  </g>
</svg>