<?xml version="1.0" encoding="UTF-8"?><svg id="LOGOS" xmlns="http://www.w3.org/2000/svg" viewBox="0 0 1250 703"><g id="Layer_4"><g><path d="m299.28835,464.76419l-24.28835-226.52837h44.3527l12.67218,142.93169,12.67218-142.93169h42.2406l12.14446,142.93169,12.14381-142.93169h44.88112l-24.81638,226.52837h-54.38506l-11.35198-109.17704-10.82453,109.17704h-55.44075Z"/><path d="m468.98178,238.23581h69.69751c11.08823,0,19.62411,2.54921,25.60821,7.6476,6.16035,4.92265,10.29643,11.95493,12.40818,21.09691,2.11178,8.96618,3.16797,20.48158,3.16797,34.54621,0,12.83411-1.67179,22.85514-5.01601,30.06328-3.34424,7.20814-9.15208,12.21833-17.42421,15.03122,6.86406,1.40677,11.79195,4.83458,14.78432,10.28476,3.168,5.45016,4.75167,12.8339,4.75167,22.15188l-.52747,85.70651h-44.35301v-88.60753c0-6.32883-1.23182-10.37224-3.69609-12.13021-2.46362-1.75862-6.95218-2.63729-13.4644-2.63729v103.37502h-45.93669v-226.52837Zm57.02495,83.86043c6.33659,0,9.50457-6.85694,9.50457-20.56971,0-5.97743-.26436-10.46056-.79248-13.44924-.52744-2.98875-1.49554-5.01051-2.90359-6.06536-1.40807-1.23071-3.43236-1.84603-6.07225-1.84603h-10.56015v41.93034h10.82389Z"/><path d="m592.68464,464.76419v-226.52837h43.82425v226.52837h-43.82425Z"/><path d="m674.14623,464.76419v-183.01599h-26.92816v-43.51239h99.26555v43.51239h-26.9288v183.01599h-45.40859Z"/><path d="m759.28316,464.76419v-226.52837h90.81782v43.77612h-44.61673v44.03959h42.76867v42.7214h-42.76867v51.95123h47.52032v44.04003h-93.7214Z"/><path d="m864.11875,238.23581h69.69555c11.08695,0,19.62735,2.54921,25.60824,7.6476,6.16228,4.92265,10.2964,11.95493,12.40885,21.09691,2.1124,8.96618,3.16862,20.48158,3.16862,34.54621,0,12.83411-1.67181,22.85514-5.01539,30.06328s-9.14951,12.21833-17.42418,15.03122c6.86211,1.40677,11.79326,4.83458,14.78692,10.28476,3.16214,5.45016,4.74971,12.8339,4.74971,22.15188l-.53135,85.70651h-44.34784v-88.60753c0-6.32883-1.23118-10.37224-3.69997-12.13021-2.46236-1.75862-6.95283-2.63729-13.46245-2.63729v103.37502h-45.9367v-226.52837Zm57.0275,83.86043c6.33081,0,9.49943-6.85694,9.49943-20.56971,0-5.97743-.2592-10.46056-.79055-13.44924-.52487-2.98875-1.49681-5.01051-2.90294-6.06536-1.40614-1.23071-3.43429-1.84603-6.07156-1.84603h-10.56148v41.93034h10.82711Z"/></g></g></svg>