<?xml version="1.0" encoding="UTF-8"?><svg id="LOGOS" xmlns="http://www.w3.org/2000/svg" viewBox="0 0 1250 703"><defs><style>.cls-1{fill:#fd6b02;}.cls-1,.cls-2{stroke-width:0px;}.cls-2{fill:#2b7ee2;}</style></defs><g id="Layer_4"><path class="cls-2" d="M673.30242,187.28578c-.58564,1.37303-.87728,2.30994-1.35531,3.1394-6.62548,11.49555-13.27807,22.9754-19.92019,34.4614-2.17265,3.75711-4.45219,7.45912-6.45737,11.30395-1.2548,2.40594-2.98344,3.35938-5.64013,3.33312-8.30978-.08214-16.62087-.02872-24.93146-.03141-.49577-.00016-.99145-.03236-1.48726-.04783-1.62635-.05069-2.80501-.79839-3.62448-2.20899-1.49504-2.57359-3.05876-5.10738-4.54789-7.68429-7.32101-12.66902-14.63188-25.34384-21.92806-38.02712-.55258-.96054-1.01628-1.98201-1.42131-3.01441-.29219-.74468.19572-1.50498,1.01897-1.6631.72501-.13927,1.47157-.22896,2.20899-.23142,5.58163-.01849,11.16454.05428,16.74468-.0403,2.37751-.04025,3.89679.82234,5.08323,2.93202,4.37623,7.7813,8.89951,15.47985,13.36621,23.21028.12403.21464.22746.44126.35222.65548,2.77704,4.76998,2.5191,4.47984,8.27903,4.45228,1.67211-.00801,2.78045-.74288,3.58764-2.17979,1.82184-3.24313,3.71313-6.44721,5.57126-9.66998,3.09701-5.37125,6.1857-10.74728,9.29085-16.11384.37169-.64227.72619-1.34754,1.26408-1.82655.61776-.55003,1.40162-.94819,2.17056-1.27997.43055-.18582.97671-.13677,1.47084-.13729,5.95378-.0063,11.90783-.02254,17.86125.02324.81661.00625,1.63067.33453,3.04366.64511Z"/><path class="cls-2" d="M672.78055,300.96608c-1.06531.18234-1.89284.44192-2.72191.44701-5.83134.03598-11.66377-.03898-17.49392.04803-2.40498.03589-3.8871-.96384-5.05576-3.02824-4.52187-7.98734-9.15936-15.90912-13.75173-23.85651-.37237-.64436-.74616-1.28884-1.08974-1.94869-.8948-1.71823-2.2764-2.56183-4.23196-2.41778-.24657.01819-.4985.01922-.74379-.00853-2.89657-.32746-4.74369.6896-6.23746,3.44002-4.3791,8.0631-9.10201,15.94005-13.72012,23.87254-2.2487,3.86259-2.36259,3.90971-6.75147,3.92372-5.33516.01706-10.67055.02138-16.00557-.01137-1.07073-.00655-2.2411.28441-3.34867-.79933.20968-.57759.35896-1.28759.70158-1.88715,4.55403-7.96938,9.12634-15.92843,13.71189-23.87975,4.27567-7.41405,8.57326-14.81545,12.85939-22.22345.31061-.53684.60293-1.08421.90999-1.62314.66374-1.1649,1.63995-1.83421,3.00564-1.87028.86796-.0229,1.73619-.05215,2.60429-.0526,7.94081-.00407,15.88158-.00257,23.8224-.00211.49627.00002.99709.04978,1.48808.00039,2.29532-.23103,3.72959.92345,4.77289,2.82807,1.07232,1.95783,2.20867,3.88076,3.32429,5.81478,7.31337,12.67816,14.6402,25.34864,21.92774,38.04167.84545,1.47248,1.97653,2.86518,2.02392,5.19271Z"/><path class="cls-2" d="M682.21417,295.71584c-.87001-1.28068-1.61712-2.24561-2.2225-3.29254-5.83771-10.09443-11.65049-20.20328-17.47309-30.30653-2.84935-4.94409-5.577-9.96503-8.61128-14.79303-1.47948-2.35393-1.32912-4.28511.03147-6.51489,2.19639-3.59953,4.25015-7.28617,6.36004-10.9384,6.20539-10.74157,12.40087-21.48891,18.62173-32.22152.92159-1.59001,1.70363-3.29266,3.01764-4.52044,1.42436-.13368,1.82425.91278,2.30437,1.71657,2.22641,3.72725,4.39788,7.48734,6.58491,11.23807.81233,1.39304,1.54471,2.83839,2.43646,4.17811,1.24343,1.86823,1.24279,3.59888.04148,5.52317-1.9043,3.05025-3.64577,6.20219-5.45546,9.31152-3.05767,5.25349-6.02892,10.56007-9.21121,15.73694-1.42472,2.31779-1.30537,4.28249.04858,6.53963,3.1903,5.31842,6.24296,10.7196,9.3372,16.09547,1.9184,3.33296,3.79705,6.68877,5.72291,10.01729.59729,1.03231.88274,2.01915.22678,3.13986-3.50886,5.99444-6.99717,12.00087-10.51286,17.99131-.17457.29742-.53734.4844-1.24716,1.09943Z"/><path class="cls-2" d="M572.36721,295.7817c-.61985-.67361-1.11553-1.05499-1.40885-1.55503-3.32966-5.6761-6.61056-11.38082-9.94745-17.05262-.8736-1.48485-.61971-2.76887.20349-4.17645,3.82352-6.5377,7.59032-13.10857,11.37845-19.66696,1.3041-2.25782,2.56972-4.53929,3.93031-6.76257,1.00346-1.63968,1.09656-3.10418.06336-4.84808-4.61966-7.7977-9.1439-15.65219-13.67113-23.50431-3.21795-5.58127-3.20503-4.75515.01938-10.37497,2.40976-4.20001,4.82102-8.39931,7.26166-12.5814.54435-.93273.95925-2.06317,2.55794-2.22623.43987.55467,1.04698,1.15544,1.46152,1.86819,4.55726,7.83475,9.08204,15.68844,13.62078,23.53396,4.16569,7.20071,8.32115,14.40746,12.51358,21.59259,2.298,3.93841,2.35763,4.04031.00619,8.12543-4.52164,7.85549-9.0779,15.69105-13.62369,23.5326-4.17206,7.19693-8.34066,14.39587-12.53559,21.57947-.47853.81938-1.11725,1.54525-1.82993,2.51637Z"/><path class="cls-2" d="M917.22773,394.63304c-8.93349-.00064-17.86707.0141-26.80056-.00687-4.4259-.01037-4.7441-.29664-4.75447-4.56485-.02829-11.66313-.00982-23.32635-.00955-34.98958,0-.24816-.00227-.4965.00682-.74438.12235-3.35599.53197-3.81915,3.98262-3.83398,9.30554-.03998,18.61145-.01797,27.91718-.01815,9.05757-.00023,18.1155.04457,27.17261-.01765,3.41217-.02338,6.29991,1.01528,8.76675,3.38078,2.47703,2.37519,3.62921,5.28854,3.69644,8.65358.05958,2.97671.02765,5.95542.02738,8.93322-.00036,3.72227.03211,7.44523-.02811,11.16659-.05203,3.21968-1.09688,6.05989-3.4118,8.39897-2.39306,2.41794-5.21031,3.67542-8.64813,3.64786-6.0794-.0488-12.15945-.00764-18.23922-.00514-3.22596.00127-6.45201.00023-9.67796-.00041ZM921.08554,384.80735v-.00378c7.32319,0,14.64648.03375,21.9694-.01405,3.74438-.02447,4.30355-.60088,4.34176-4.34599.05076-4.96438.03157-9.92967.01137-14.89446-.02019-4.9561-.2961-5.23892-5.32092-5.24451-13.90164-.01542-27.8032-.00678-41.70484-.00291-.86819.00027-1.74129-.00891-2.60356.07441-1.46329.14136-2.02447.66811-2.19503,2.0463-.09106.73592-.09342,1.48585-.09451,2.22951-.00746,5.21313-.02456,10.4263.00209,15.63929.02165,4.25261.24143,4.49058,4.36941,4.50795,7.07486.02979,14.14989.00823,21.22484.00823Z"/><path class="cls-2" d="M801.05889,394.62249c-7.81724,0-15.63456-.03429-23.45152.01405-4.06349.02511-7.15136-1.77394-9.58317-4.85704-1.76285-2.23496-2.38488-4.8695-2.3867-7.67237-.004-6.3282-.00273-12.65644-.00155-18.98464.00009-.3721.00846-.7447.02975-1.11616.21041-3.67474,1.73628-6.67851,4.60993-8.9847,1.89065-1.51728,4.01646-2.45051,6.47165-2.5135,1.11616-.02861,2.23324-.03161,3.34985-.03175,14.02136-.00205,28.04271-.00146,42.06407-.00096.86855,0,1.73774-.01274,2.60565.01133,6.46592.17943,10.71944,3.6888,12.09859,9.98711.13217.60388.26799,1.22396.26963,1.83694.01865,6.82383.10661,13.64971-.03593,20.47059-.05722,2.73728-.79832,5.38428-2.7391,7.54661-2.44419,2.72318-5.3504,4.35267-9.10514,4.30323-3.34958-.04412-6.70034.0005-10.05056.00196-4.71518.00209-9.43026.0005-14.14543.0005v-.01119ZM801.07054,384.80844c6.9455,0,13.89091.01428,20.83641-.00482,5.00827-.01378,5.43545-.45156,5.46356-5.58591.02511-4.58882.00882-9.17792-.001-13.76688-.00155-.74279-.00409-1.49436-.11162-2.22641-.25907-1.76444-1.11789-2.61921-2.9214-2.82052-1.10488-.1234-2.22869-.10093-3.34403-.10143-13.1468-.00596-26.2936-.00437-39.4404-.00277-.8681.00009-1.73883-.02365-2.60383.03261-2.49304.16233-3.22705.89953-3.44628,3.43036-.0534.61648-.04849,1.23915-.04903,1.85895-.004,4.71299-.02383,9.42617.00273,14.13898.0262,4.66241.39079,5.02433,5.15054,5.0412,6.82133.02415,13.64293.00609,20.46436.00664Z"/><path class="cls-2" d="M489.75554,365.82271c-.86141.96752-.53225,2.1294-.53743,3.19062-.03316,6.82861-.00864,13.65758-.02679,20.48628-.00296,1.11298-.05244,2.23583-.21082,3.33534-.1365.94724-.78918,1.61102-1.75962,1.6415-1.97835.06218-3.96297.05949-5.93995-.02879-.96252-.04303-1.57823-.72-1.71532-1.6802-.1223-.856-.17416-1.72887-.17493-2.59437-.01069-11.79521-.02633-23.59052.00391-35.38564.01001-3.90257.39425-4.23246,4.25679-4.30937.37233-.00741.7487.03216,1.11685-.00814,2.8081-.30724,4.92294.74361,6.91694,2.78468,7.80832,7.99253,15.7616,15.84351,23.6713,23.7368,1.04253,1.04034,2.14468,2.02087,3.03206,2.85354,1.8041.03102,2.5141-1.10975,3.36837-1.95702,4.84867-4.80855,9.66727-9.6474,14.49607-14.47601,3.42404-3.4239,6.93045-6.77071,10.23955-10.30231,1.85709-1.98189,3.92631-2.91167,6.60205-2.64509,1.23128.12271,2.48189.06363,3.70931.20891.95524.11307,1.56281.76362,1.66838,1.73442.10698.98403.15733,1.97889.15824,2.96911.01042,11.42275.0101,22.84546.00073,34.26821-.00077.99072-.02329,1.98944-.14959,2.96984-.14841,1.15291-.75903,1.80319-1.95843,1.87283-1.85336.1077-3.72063.11266-5.57477.01869-1.17697-.05967-1.8051-.71213-1.95811-1.88279-.14409-1.1022-.16529-2.22591-.1677-3.3403-.01433-6.5805.00073-13.16095-.01487-19.74144-.00287-1.20859-.10102-2.41699-.15715-3.66919-1.46498-.15555-1.99404.81838-2.64686,1.46748-6.60319,6.56585-13.17991,13.15835-19.76427,19.74317-.70235.70235-1.39493,1.41485-2.11007,2.10393-3.30801,3.18752-6.87923,3.23605-10.12975.09806-1.87555-1.81069-3.69548-3.67911-5.5392-5.52273-5.35563-5.35531-10.69934-10.72262-16.07871-16.05392-.75089-.74415-1.31802-1.82552-2.62621-1.88606Z"/><path class="cls-2" d="M553.40403,440.9444c0,1.22505.00023,2.45015-.00014,3.6752-.00155,5.4637-.02506,10.92753.00268,16.39109.01878,3.70321-.45952,4.41926-4.66196,4.27349-.12394-.00428-.24793-.0136-.37133-.02643-1.82452-.18944-2.44105-.75416-2.59383-2.52146-.08537-.98717-.06509-1.98471-.06631-2.97762-.00669-5.4637-.00523-10.92744-.0065-16.39113-.00014-.73906,0-1.47812,0-2.21718-.11616-.00564-.23233-.01128-.34854-.01692-.06208.82903-.1455,1.65705-.18293,2.48717-.27381,6.07122-.53534,12.14298-.81115,18.21411-.02238.49322-.09169.98926-.19239,1.47294-.19426.93277-.75421,1.61452-1.69981,1.74975-.84194.12026-1.72614.11944-2.56936.006-.79159-.10652-1.33048-.68384-1.45706-1.49181-.11457-.73142-.17707-1.48271-.15483-2.222.15292-5.08245-.15765-10.1756.57518-15.24732.29974-2.07423.13963-4.21395.20499-6.32338.03075-.99145.03734-1.99004.16815-2.97029.15737-1.17925.75703-1.77635,1.91212-1.95447,1.18116-.18225,2.37601-.27554,3.52642-.40344.00764-1.02579-.60452-.97958-1.0493-1.0136-1.35964-.10388-2.73151-.07737-4.08473-.22673-1.09847-.1213-1.6676-.89643-1.74342-2.0735-.08765-1.36027.41717-2.53238,1.41808-2.74538,1.20081-.25557,2.45269-.27417,3.68325-.38643,2.17274-.19835,2.51564-.52661,2.7814-2.69407.0151-.1229.02001-.24807.01742-.37196-.06318-2.96693.87929-3.60142,3.88629-3.56035.73947.0101,1.49399.06813,2.21131.23451.77254.17907,1.31233.72191,1.42818,1.53743.12185.85795.13022,1.73187.24679,2.59087.21827,1.60798.72723,2.08055,2.42868,2.23419,1.35554.1224,2.72619.11926,4.06863.31729.36309.05358.87892.60443.93018.9808.26389,1.93518-1.13745,3.74674-2.97616,4.03283-1.16961.18198-2.44696-.21509-3.50309.48249.03948.87474.62021.82207,1.07423.8837.85882.11653,1.73469.12799,2.58441.28582.94283.17511,1.54953.81893,1.69949,1.75411.15642.97539.21641,1.97039.25735,2.95933.28254,6.81678.54694,13.63429.83148,20.45098.00796.19126.17661.37578.44205.90721.93723-3.63181,1.5941-6.98598,1.59187-10.45714-.00482-7.57467-.00509-15.14939.00523-22.72406.0015-1.11607.00155-2.23988.12685-3.34603.15055-1.32966.79737-1.96775,2.13777-2.2014.72896-.12713,1.48149-.16178,2.22359-.16379,5.09119-.01387,10.18265-.04416,15.27342.00318,3.86222.03598,4.228.40817,4.24078,4.33207.03084,9.43722.00409,18.87457.02038,28.31188.0025,1.47089-.1858,2.97643.5166,4.58073,1.0523.38925,2.1802.80642,3.19139,1.18039.60784,1.33467.18935,2.40976-.435,3.32247-.38106.55704-1.11366,1.15778-1.73497,1.21286-1.84135.16301-3.72618.2382-5.5558.02283-2.03275-.2392-3.27804-1.69035-3.54084-3.75911-.14009-1.10275-.11048-2.23046-.11157-3.34694-.00819-8.19557-.00045-16.39113-.00992-24.5867-.00132-1.1158-.00646-2.23828-.12458-3.3454-.12481-1.16965-.7497-1.74192-1.91344-1.93932-.3656-.06199-.74092-.08301-1.11248-.09092-5.31824-.11407-5.56995.08619-5.53947,5.23228.03675,6.20853-.01365,12.41756.01274,18.62619.01542,3.63426-.72601,7.1575-1.51896,10.66559-.48704,2.15446-1.09233,2.61648-3.3826,2.70026-2.60402.09524-5.21618.0952-7.82069.00964-2.42195-.07951-2.98039-.67538-3.10038-3.20221-.29992-6.31842-.54894-12.6393-.8096-18.95958-.02984-.72364-.00409-1.44956-.00409-2.17443-.17739.00359-.35477.00723-.53216.01083Z"/><path class="cls-2" d="M685.09591,363.34777c-.96243,1.32739-.64159,2.60361-.64632,3.79591-.02984,7.44509-.00791,14.89036-.0252,22.33554-.00255,1.11239-.05149,2.23428-.20695,3.33371-.13318.94283-.76421,1.62676-1.74047,1.65901-1.97698.06536-3.96015.06259-5.93641-.01915-.96061-.03971-1.59265-.69717-1.7371-1.65737-.12863-.85413-.18093-1.72714-.18175-2.59192-.0111-11.78821-.02629-23.57651.00309-35.36463.0101-4.03029.38433-4.26316,4.57381-4.38724,2.57609-.07628,4.80596.58019,7.02455,1.92995,15.36821,9.35007,30.79018,18.61191,46.20342,27.88798,1.03384.62221,1.9617,1.55622,3.4461,1.39288.88029-.86355.59556-2.03611.59947-3.09651.02729-7.44509.01201-14.89032.01892-22.3355.001-1.11603-.01665-2.23801.08724-3.34667.14873-1.58578.74356-2.20695,2.36259-2.3142,1.60511-.10639,3.22659-.10566,4.83289-.0131,1.62694.09379,2.25234.71832,2.43373,2.25339.10161.85909.09515,1.73378.09561,2.60147.00555,11.41593.00728,22.8319-.00309,34.24783-.00091.98967-.02583,1.9889-.16256,2.96647-.16292,1.16424-.78031,1.79905-1.96061,1.88788-3.60565.27149-6.98389.13568-10.3412-1.93637-15.30772-9.44713-30.76535-18.65139-46.17668-27.93028-.8107-.48813-1.69098-.86064-2.56308-1.2991Z"/><path class="cls-2" d="M638.80884,451.90908c-9.35689-2.73897-15.84515-2.73874-24.98627.00041,1.84608,0,3.69221-.00755,5.53824.00305.99281.00569,1.99149-.01838,2.97689.0785,1.82197.17902,2.45228.76344,2.5327,2.56526.09397,2.10616.13049,4.22636-.00277,6.3282-.16879,2.66069-1.57041,4.06913-4.21995,4.33543-1.47694.14846-2.97648.0886-4.46588.09379-3.10433.01078-6.20885.01551-9.31309-.00578-.99031-.00678-1.98785-.04466-2.96793-.17475-1.10174-.14614-1.84112-.84012-1.9516-1.94464-.14773-1.47739-.17316-2.96943-.19844-4.4561-.03589-2.10638.15373-4.24096-1.16601-6.10983-.20167-.28564-.24625-.69913-.30956-1.0629-.4406-2.52951.39707-3.7401,2.96788-4.12385,5.27708-.78786,10.56175-1.52406,15.84242-2.28795.34981-.05058.6918-.15555,1.04398-.52183-.91863-.03971-1.83721-.11048-2.75593-.1138-3.72523-.01346-7.4505-.00314-11.17578-.0091-.86882-.00141-1.74224.01901-2.60552-.05913-2.18502-.19781-3.19526-1.95256-2.22328-3.97953.23106-.48181.85122-.96056,1.37433-1.07896.95383-.21591,1.96875-.2069,2.95856-.21154,4.22186-.01974,8.44386-.00887,12.66581-.01205,1.61803-.00123,3.19316-.04612,4.66855-.95474.69876-.43032,1.64668-.46216,2.48567-.65733,1.70563-.3968,2.05667-.72109,2.12771-2.50414.08401-2.10784.03616-4.22091.05403-6.33161.00946-1.11716-.02188-2.23901.06973-3.35013.15023-1.82279.72883-2.37119,2.5357-2.56645.36951-.03989.7437-.05185,1.11571-.05203,5.33948-.00209,10.67896-.00614,16.01844.00969.61612.00186,1.2427.06977,1.84526.19722.79514.16811,1.44292.71786,1.45456,1.499.04767,3.21531.14291,6.445-.10661,9.64385-.13772,1.76635-1.54271,2.76967-3.37087,2.91608-.86491.06923-1.73638.07832-2.60484.08023-3.72527.00823-7.45055-.00673-11.17573.01142-.86482.00423-1.7386.0504-2.58737.19785-.2301.03998-.45524.50032-.54198.80751-.0428.1516.19362.51533.37369.57623,2.04794.69258,4.2426,1.01528,6.1016-.12685,2.15901-1.32639,4.36868-1.20963,6.4198-.49222,1.78723.62512,3.5055,1.10902,5.38278,1.17747.58173.0212,1.15291.32889,1.67943.49027.22833,3.5397-.57527,4.6349-3.62585,4.72932-3.22568.09988-6.45628.03734-9.68474.04357-1.48162.00282-2.96324.0005-4.46097.1883,3.49868,1.03111,7.11961,1.2814,10.67769,1.87928,2.0795.34945,4.18438.5453,6.26661.88024,2.59001.41672,4.0523,2.85481,2.46811,4.86518-1.859,2.359-1.60438,4.82738-1.66315,7.39069-.0997,4.35463-1.16774,5.49967-5.55262,5.57845-4.46888.08028-8.94027.02483-13.41051.01651-.61912-.00118-1.24543-.0262-1.85572-.12144-1.32452-.20672-1.9677-.83944-2.21218-2.14695-.09083-.48544-.1294-.98685-.13286-1.48139-.01405-1.98662-.0685-3.97584.01037-5.95946.11512-2.89552.72628-3.51678,3.52283-3.65186,1.6108-.07787,3.22778-.02915,4.84198-.03402,1.10229-.00327,2.20463-.00064,3.30692-.00064ZM639.07287,431.85212c.84331-.15592,1.74697-.16965,2.49304-.51942.43437-.20377.85536-.95069.84499-1.4441-.01037-.49459-.46143-1.25452-.89821-1.41676-1.64459-.61102-3.39006-.63108-5.02883.01369-.42204.16606-.83125.96106-.82179,1.45915.00942.49636.44446,1.22273.8847,1.41972.75284.3369,1.65528.33944,2.5261.48772ZM639.38625,457.14063c-1.0811.15696-2.06349.20822-2.97875.48294-.31215.0937-.57318.73246-.63213,1.15369-.03502.2503.31652.73697.58464.81802,1.77545.5362,3.57945.6188,5.33411-.07732.25139-.0997.48153-.57282.48854-.87847.0071-.30428-.21041-.80064-.44942-.88938-.77836-.289-1.61152-.43014-2.34699-.60948ZM613.78332,460.0729c.78427-.14073,1.63968-.23333,2.45001-.47612.24884-.0745.50951-.55581.51897-.85845.0096-.30751-.20508-.78946-.45788-.91076-1.74588-.83735-3.55985-.75484-5.34712-.14204-.25625.08783-.57418.61562-.51728.85882.09738.41699.3953.99295.73879,1.10529.80165.2623,1.68048.28882,2.61452.42327Z"/><path class="cls-2" d="M800.15304,455.77645c-.07387,1.58864-.06158,3.18689-.23833,4.76402-.48012,4.28672-1.45247,5.05776-5.77494,4.7396-.49058-.03611-1.06904-.02051-1.43809-.27427-.45556-.31338-.99654-.86277-1.03475-1.34695-.07632-.96889.17393-1.96184.27163-2.9466.1823-1.83708.35213-3.67538.27699-5.55898-.7643,1.34563-.96998,2.8136-1.16592,4.30023-.17784,1.34958-.43873,2.69216-.74147,4.01996-.20959.91886-.84099,1.54816-1.79268,1.67056-4.80205.61766-5.35922-.59974-4.87209-4.41198.26726-2.09146.5428-4.18811.96225-6.25242.5247-2.58214,1.19858-3.11257,3.74556-3.25802.86582-.04944,1.74902.08733,2.60092-.0302.36823-.05076.67707-.53061,1.01282-.81556-.3162-.34954-.58164-.91854-.95843-1.0055-.95488-.22019-1.95861-.24033-2.94496-.30938-.74238-.05199-1.4934-.00828-2.23133-.09069-1.55217-.1732-2.18784-.88042-2.25789-2.41121-.07905-1.72882.57837-2.56549,2.28991-2.75211.98399-.1073,1.98353-.06732,2.97589-.10093.49604-.01674.99445-.0237,1.48631-.08173.6254-.07377,1.33749-.20745,1.39234-.95697.05604-.76567-.6082-1.01787-1.25107-1.04885-1.48703-.07155-2.97789-.06359-4.46547-.12713-1.23988-.0529-2.58018-.01242-3.0574-1.53911-.52843-1.69048-.08933-2.63094,1.72073-3.97793.19349-.14396.34367-.34608.70226-.71509-.11307-.89757-.24879-1.97416-.41808-3.31783.18539-.12863.46493-.46916.79114-.52206,1.09333-.17729,2.20149-.27731,3.30755-.35996,2.07022-.15469,3.61784.53202,4.40143,2.62535.43046,1.15005.91622,2.39734,2.52324,2.31688,1.38906-.06954,1.84599-1.18066,2.2185-2.21536.82007-2.27772,2.52615-2.88087,4.71172-2.73487,1.21532.08119,2.50459-.20363,3.74692.8988-.09133,1.03457-.19567,2.21723-.31802,3.60383.78432.20654,1.46266.53297,2.14209.53507,1.70063.00523,2.33757-.54121,2.43937-2.1314.11107-1.73215.06995-3.47443.0816-5.2124.03375-5.03743.15073-5.1575,5.27562-5.18447,1.73838-.00919,3.47684-.00719,5.21522-.00205,1.87092.0055,3.60356-.11553,5.26416-1.35718,1.78941-1.3378,4.02601-.95383,6.11279-.5312.66397.13454,1.09897.69708,1.00182,1.37187-.15846,1.09938-.38524,2.20335-.72755,3.25866-.6848,2.11111-1.19312,2.48508-3.52879,2.56454-2.1087.07182-4.22132.01838-6.33211.03812-.86782.0081-1.74302.00264-2.60129.11066-1.40053.17629-1.87555.87142-1.95597,2.6671-.10516,2.34822.34349,3.39156,1.69781,3.64818.8459.16028,1.726.18034,2.59155.18898,2.48312.02479,4.96697-.00373,7.45009.02197.86555.00896,1.73947.05649,2.59265.19253.96616.15396,1.46493.97053,1.26453,1.91804-.2356,1.11412-.5539,2.31765-1.58783,2.84253-1.8972.9632-2.12098,2.54575-2.10752,4.36932.02947,3.9732.00846,7.94682.00246,11.92029-.00282,1.86246.04366,3.72787-.04439,5.58659-.10443,2.20522-.73901,2.76917-2.99399,2.91262-.37124.02361-.74493.02547-1.11707.01692-2.83298-.06522-3.46265-.62649-3.49686-3.55835-.06231-5.33866-.01001-10.6786-.03921-16.0178-.006-1.11011-.08205-2.23224-.26644-3.32511-.14755-.87456-1.04248-1.39407-1.9808-1.32943-.81561.05617-1.47848.43741-1.67388,1.23183-.20477.83207-.28518,1.70999-.30128,2.57013-.04194,2.23433-.05713,4.4707-.0131,6.7048.0715,3.62908-.64741,7.16555-1.26671,10.70375-.43955,2.51028-1.02019,2.94532-3.45638,3.00136-2.97434.06845-5.95314.07027-8.92721-.00573-2.50968-.06404-3.14491-.71964-3.56954-3.35886-.33048-2.05339-.62531-4.11247-.93596-6.16901l-.38506.02961ZM810.8411,438.12565q-2.50777,3.30824-6.60483,3.39174c-.61912.01269-1.24434-.02047-1.85527.05785-.47512.06086-.95215.21955-1.38761.42218-.1742.0811-.33003.39743-.32857.60552.00136.2095.17548.56736.33094.6017.94787.20918,1.90685.39484,2.87191.49259,1.34895.13668,2.714.13063,4.05712.30283.67024.08592,1.06695.66092,1.00218,1.35277-.22214,2.37383-1.43227,3.53252-3.78913,3.68056-1.2336.07755-2.47976.05176-3.69908.22323-.82907.11657-1.31929.65692-.7684,1.83967,1.09106.03875,2.30273.05076,3.50968.1314,2.24224.14964,2.85545.61726,3.27808,2.76767.38142,1.94096.56672,3.91994.92013,5.86732.11116.61284-.05649,1.49786.94342,1.67884,2.05703-7.62834,1.82389-15.34783,1.51942-23.41586Z"/><path class="cls-2" d="M368.62618,372.5795c-.00055,5.70881.01637,11.41761-.00578,17.12637-.01838,4.72341-.27522,4.95428-5.1389,4.92144-.86728-.00582-1.74201-.0086-2.59929-.12026-1.15883-.15091-1.76171-.73642-1.91321-1.93887-.13895-1.10275-.14782-2.2255-.15874-3.33998-.0292-2.97816.03516-5.95878-.06154-8.93431-.06782-2.08751-.66942-2.62585-2.68771-2.78431-.74079-.05817-1.48817-.0438-2.23255-.04389-13.77556-.00227-27.55117-.0086-41.32674.00196-4.98062.00378-5.05184.08619-5.07781,4.92099-.01401,2.60615.01005,5.21249-.01365,7.81846-.00787.86523-.05026,1.73924-.18689,2.59165-.15196.94815-.76449,1.62708-1.73642,1.66315-1.97689.07332-3.96024.07268-5.93731.00186-.96661-.03461-1.5997-.68935-1.7517-1.64491-.13568-.85263-.18534-1.72691-.18621-2.59174-.01142-11.78989-.02638-23.57988.0025-35.36968.00987-4.0452.37419-4.34267,4.55435-4.38024,5.00991-.04507,5.22286.16369,5.25124,5.1882.01751,3.10233-.0292,6.20639.06536,9.30627.05758,1.8872.65592,2.44119,2.45015,2.60242.86296.07755,1.7356.06199,2.60388.06222,13.65148.00332,27.30292.00255,40.95441.00186.62048-.00005,1.24192.01255,1.86136-.01519,2.88206-.12885,3.36436-.58696,3.42577-3.6077.06559-3.22546-.02029-6.45401.04366-9.67955.06672-3.36327.52915-3.7809,3.96288-3.84862,1.11539-.02206,2.23819-.02688,3.34722.07455,1.64509.15046,2.23869.7241,2.39889,2.28904.10075.98444.08837,1.98258.08969,2.97466.0075,5.58473.00364,11.16941.00309,16.75414Z"/><path class="cls-2" d="M424.00843,394.63359c-7.07285.00045-14.14571.00218-21.21856-.00136-1.11657-.00055-2.23642.02538-3.34917-.04671-6.18934-.40062-10.55561-4.83825-10.91898-11.07089-.02884-.49509-.02765-.99236-.02779-1.48858-.00241-8.93413-.01928-17.8683.00337-26.80238.01146-4.51941.28373-4.74947,4.93613-4.74811,4.58764.00132,4.85699.23861,4.8705,4.82083.02383,8.06548-.00678,16.13115.01446,24.19663.01314,4.99544.30861,5.30146,5.26666,5.30796,13.64935.01783,27.29874.01878,40.94809-.00091,4.73974-.00687,5.13844-.40057,5.15477-5.0543.02829-8.06539-.00359-16.1311.01501-24.19659.01119-4.8478.26949-5.08809,4.99463-5.07327,4.52082.01419,4.80373.2719,4.81383,4.87396.01965,8.93408.0237,17.86834-.01546,26.80229-.0065,1.47671-.06049,3.00814-.44515,4.41812-1.23897,4.54116-5.33866,7.72531-10.10219,8.01586-1.11325.06795-2.23274.04476-3.34935.04526-7.19693.00341-14.39387.00173-21.5908.00218Z"/><path class="cls-1" d="M659.13561,394.27804c-2.50486.68011-4.74619.37524-6.95369.37965-6.019.0121-5.13599.47312-9.26224-4.06167-4.67328-5.13608-9.1438-10.4565-13.71248-15.6881-3.50836-4.01737-7.02942-8.02373-10.55338-12.0275-.32571-.37001-.69148-.71295-1.07709-1.02024-.68762-.54794-1.39502-.42563-2.03461.08605-.38465.3077-.72664.67684-1.05185,1.04967-6.03347,6.91644-12.05074,13.84706-18.09603,20.75317-2.53279,2.89334-5.15591,5.7079-7.67342,8.61415-1.39893,1.61498-3.04084,2.4154-5.20476,2.32707-2.35454-.09615-4.71654.00405-7.07408-.04121-.7014-.01342-1.39893-.22855-2.20622-.37019-.0519-1.57859.91649-2.42891,1.69035-3.33939,1.60634-1.88993,3.25384-3.7452,4.90002-5.60087,4.52747-5.10347,9.08445-10.18092,13.58917-15.30431,4.34062-4.93672,8.6086-9.93731,12.94845-14.87476,4.90971-5.58586,4.09978-4.61397,10.08549-4.7184.62021-.01078,1.24124.02765,1.86155.01901,1.44424-.02001,2.66879.46102,3.65532,1.53338.92413,1.00436,1.88738,1.97389,2.78754,2.99904,4.82866,5.49858,9.64712,11.00621,14.46114,16.51758,4.56926,5.23109,9.12252,10.47633,13.69742,15.70238,1.0624,1.21359,2.20485,2.35691,3.27253,3.56595.8046.91112,1.68935,1.79632,1.95087,3.49954Z"/><path class="cls-2" d="M844.59035,441.23576c0-3.09883-.00464-6.19771.00327-9.29654.00191-.74302-.00291-1.49131.07969-2.22778.17411-1.5518.76121-2.1329,2.39479-2.30069.98299-.10097,1.98017-.08401,2.97107-.08669,3.47075-.00932,6.94141-.00318,10.41216-.00537.61976-.00041,1.24079.01196,1.85891-.02347,2.41099-.13832,2.70081-.3882,3.18711-2.71363.07587-.36305.08569-.73979.15965-1.10338.25871-1.27163,1.10779-1.89479,2.34258-2.00586.86173-.0775,1.73201-.10234,2.59747-.08865,2.04048.0322,3.2668.5367,3.26798,3.04416.00009.36823.06886.74052.14109,1.10393.19139.96352.79732,1.54225,1.7603,1.64163.98335.10152,1.9768.13595,2.96616.14,3.96652.0161,7.9334-.02279,11.89946.01928,4.21431.04471,4.67879.50332,4.70726,4.72796.03757,5.57772-.07878,11.15767.03721,16.73321.08942,4.29705-1.66196,6.377-6.2819,6.19698-3.46538-.13513-6.94032-.02884-10.41106-.02015-.867.00218-1.7392-.00869-2.59992.07691-1.40944.14018-2.0403.70731-2.13499,2.09333-.11798,1.72882-.04057,3.47034-.13399,5.20167-.12044,2.22773-.70763,2.83257-2.96315,2.9289-4.62002.1974-5.42117-.40649-5.35258-4.80314.01737-1.11389.01274-2.23578-.09943-3.34203-.13809-1.36095-.75757-1.93882-2.17347-2.07473-.98426-.09447-1.98071-.07869-2.9717-.0811-3.59465-.00864-7.18938-.003-10.78403-.00596-.61967-.0005-1.24133.01187-1.85863-.03111-2.26735-.15815-2.91285-.69089-2.96807-2.91458-.08924-3.59233-.02402-7.18852-.02402-10.78312h-.0292ZM886.99099,441.34283c-.01055-.00005-.0212-.00009-.03175-.00018,0-2.22186.06504-4.44646-.02611-6.66459-.04912-1.19439-.69353-1.85409-1.88747-1.88724-2.95924-.08228-5.92458-.09297-8.88291.00282-1.36077.04407-2.13836.77381-2.16747,2.08441-.09306,4.19539-.09906,8.39465-.02956,12.59063.02256,1.36541.72646,2.01623,2.142,2.0609,2.8368.0896,5.68042.10179,8.51695.01137,1.64905-.05258,2.26344-.67625,2.34294-2.27231.09815-1.97075.02338-3.95014.02338-5.92581ZM852.97276,440.75409c0,2.22118-.07232,4.44564.02674,6.66241.06104,1.36628.74429,2.0564,2.11671,2.10334,2.71108.0927,5.42972.0927,8.1408.00096,1.37524-.04653,2.10479-.73929,2.13072-2.09069.08032-4.19398.07987-8.39133.006-12.58544-.02402-1.36273-.73328-2.03861-2.12308-2.08451-2.71163-.08969-5.43027-.08978-8.14208-.00177-1.40089.04539-2.06477.70804-2.13308,2.07382-.09843,1.96939-.02502,3.94741-.02274,5.9219Z"/><path class="cls-2" d="M509.20766,423.30852c.12494,3.01232-.33972,3.94218-2.85841,4.71795-1.40325.43232-2.15464,1.14195-2.16078,2.58077-.0111,2.60443-.05372,5.21135.04353,7.8125.05331,1.42713.63126,1.91744,2.06113,2.19457,1.06982.20745,2.26607-.07223,3.15182.82543.15178,3.15337-.24188,3.9138-2.91235,4.55521-1.76148.42313-2.35973.91008-2.37601,3.12921-.02734,3.72209-.01055,7.4445-.03084,11.16663-.00537.99063-.01469,1.98872-.13613,2.96925-.14195,1.14682-.77577,1.82862-1.93236,1.90994-1.35054.09492-2.72327.06313-4.07204-.06468-1.11521-.1057-1.76025-.90134-1.90103-1.98944-.12676-.97999-.16169-1.97671-.16802-2.96652-.0206-3.22587.0005-6.45196-.01751-9.67787-.00482-.86578-.04289-1.73738-.15396-2.59487-.12517-.96589-.7241-1.58478-1.69994-1.69016-.73196-.079-1.48549-.07987-2.21786-.00414-.98644.10197-1.64473.73515-1.65851,1.70576-.06645,4.67524-1.87892,8.96014-2.92249,13.41524-.19703.84099-.41426,1.70563-.80888,2.46197-.26258.50327-.79232,1.04084-1.31433,1.20299-1.68334.5227-3.42672.52643-5.12607.0106-.80396-.24406-1.2064-.92591-1.09492-1.73215.1692-1.22396.4245-2.44164.73005-3.63981.55171-2.16328,1.30501-4.28472,1.71218-6.47238.31329-1.6838.29596-3.44273.28732-5.16755-.00478-.94888-.642-1.58246-1.61139-1.7829-.36382-.07528-.73201-.15414-1.10134-.17388-2.03384-.10866-2.44728-1.67766-2.2261-3.14127.16597-1.09811.83548-1.69362,1.89425-2.03643,3.10825-1.00628,3.12617-1.03429,3.18657-3.9717.04075-1.98403-.00086-3.96997-.0201-5.95487-.01305-1.35209-.4607-2.43018-1.88997-2.85445-1.42681-.42354-1.90448-1.44992-1.82275-2.84908.08901-1.52374.71714-2.225,2.27872-2.39725.73747-.08132,1.48644-.07791,2.23023-.07846,7.69275-.00528,15.38554-.01615,23.0782.00905,1.21172.00396,2.49713-.25989,3.58009.57277ZM495.83612,434.59532c-.01396-.00005-.02797-.00009-.04194-.00014,0-1.48303.07887-2.97161-.02492-4.44732-.08369-1.18971-.75484-1.83603-1.8706-1.95128-.72714-.07514-1.48271-.04053-2.20708.06818-.79969.12003-1.44537.66983-1.46379,1.46134-.07168,3.08514-.0705,6.17346-.01333,9.25906.01483.79828.62799,1.34631,1.42431,1.50282.59897.11767,1.22873.16201,1.83821.12617,1.53497-.09019,2.21613-.72455,2.33999-2.31033.09592-1.22914.01915-2.47184.01915-3.70849Z"/><path class="cls-2" d="M752.10718,437.30176c-.56008.51706-.78977.83903-1.10234.99836-1.26771.64609-1.7069,1.71573-1.70708,3.05917-.00018,2.11098.00309,4.22227-.0352,6.33275-.02019,1.11457-.01101,2.24902-.21514,3.33698-.45447,2.42304-1.84945,3.66778-4.33193,3.83653-1.73074.11771-3.47821.1088-5.21249.0307-2.97434-.1339-3.86-1.26203-3.7593-4.59401.89711-.88693,2.09297-.59001,3.16501-.79032,1.42554-.26644,1.91503-.74061,2.01164-2.22473.08041-1.23419.0705-2.48499-.03193-3.71741-.10125-1.21782-.69453-1.89279-1.85945-1.96043-1.85218-.10748-3.71936-.10962-5.57172-.00555-1.16619.06554-1.73174.74511-1.88993,1.941-.09715.73519-.10843,1.48531-.1108,2.22887-.01073,3.3529-.03338,6.70608.003,10.05857.04103,3.78258.33157,4.0891,3.98207,4.13408,3.47657.04289,6.95405.00878,10.43108.01446,1.24161.00205,2.48758-.03689,3.72309.05581.70781.05308,1.39862.33312,2.04539.49782.2467,3.55253-.54798,4.68925-3.62385,4.73119-6.45601.0881-12.91574.11198-19.37057-.01169-3.81651-.07314-5.30409-1.68007-5.41153-5.61133-.11198-4.09505-.03802-8.19516-.04448-12.29308-.002-1.24179-.0443-2.48549.00828-3.725.10216-2.40976.02565-4.74419-2.09015-6.26389.05585-.57023-.00136-.97939.14182-1.29864,1.77822-3.96224,3.58146-7.9133,5.38769-11.86289.6405-1.40062,1.80815-2.01364,3.289-2.02092,4.2215-.02065,8.44336-.02788,12.66468.00373,1.58018.01183,2.91221.57527,3.6868,2.0795,2.15582,4.18616,4.19439,8.42294,5.82834,13.04037ZM730.57114,435.50804c2.35486.62685,7.45773.86869,10.80732.50414.43755-.04767.84572-.36469,1.3474-.59333-.39789-2.3987-1.55653-4.28445-2.726-6.1404-.29528-.46866-.9315-.83148-1.48603-1.00982-3.27071-1.05194-5.44145-.06008-6.77939,3.14536-.51087,1.22387-1.29164,2.3977-1.16328,4.09405Z"/><path class="cls-2" d="M376.28045,464.45414c.3328-1.15037.50978-2.12107.88788-3.00577,1.48203-3.46734.89739-7.07217.76489-10.64121-.03598-.96861-.72801-1.5725-1.69831-1.67747-.98253-.10634-1.97648-.13891-2.96584-.14514-2.97512-.0186-5.95055.002-8.92571-.01646-.86541-.00541-1.73779-.03602-2.59356-.1531-1.10593-.15137-1.76044-.859-1.95947-1.94487-.11112-.60629-.18616-1.22805-.19044-1.84344-.01997-2.85108-.0272-5.70262.00227-8.55352.0076-.73679.10589-1.48526.26776-2.20463.20704-.91977.80915-1.56599,1.7668-1.67716,1.10375-.12808,2.22173-.18243,3.33362-.18362,11.40524-.01251,22.81048-.01733,34.21572-.0035,5.05184.00609,5.15568.1254,5.17365,5.25156.00823,2.35518.06054,4.71436-.05276,7.06467-.12626,2.61762-1.27199,3.88342-3.85877,4.12744-2.09096.19722-4.20981.10079-6.31637.12849-1.7351.02283-3.47443-.03152-5.2043.07305-1.80756.1093-2.36664.70017-2.47798,2.57218-.09561,1.60661-.12371,3.22509-.04844,4.83207.11494,2.45301-.74165,4.62084-1.76471,6.75856-.58428,1.221-1.56099,1.9421-2.90939,1.99722-1.69621.06932-3.44978.47576-5.44655-.75534ZM381.51195,443.623v.01201c3.34176,0,6.68356.00869,10.02523-.00596.86418-.00378,1.75134.02406,2.58382-.16092.54516-.12121,1.20827-.48158,1.47921-.93682,1.33562-2.24388.10466-4.55616-2.4617-4.75802-.49263-.03871-.98963-.03066-1.48458-.03075-6.55976-.00159-13.11951-.00259-19.67927.00273-.61807.0005-1.24088.00537-1.85331.07746-1.41772.16683-2.04876.75475-2.16337,2.08109-.2487,2.87828.44674,3.72746,3.15746,3.72113,3.46552-.00814,6.93099-.00196,10.39651-.00196Z"/><path class="cls-2" d="M712.08741,464.86281c-2.42354.71122-4.64841.4738-6.85681.31033-1.49222-.11043-2.43118-1.13809-3.25106-2.26535-1.38661-1.90648-2.74965-3.83025-4.13754-5.73578-2.92195-4.01168-5.82697-8.03619-8.79922-12.01035-.79369-1.06126-1.41062-2.33757-2.77658-3.03092-1.36414.82652-2.07459,2.1747-2.93614,3.34485-4.04584,5.49508-8.03665,11.03068-12.05229,16.54805-.43764.60129-.82998,1.26994-1.38361,1.74333-.64013.54748-1.39352,1.18621-2.17174,1.30665-2.31192.35791-4.66178.51446-6.87637-.13268-.73838-1.26935.1047-2.03556.64268-2.80051,2.71218-3.8564,5.4772-7.67546,8.21458-11.51417,3.60192-5.05098,7.14335-10.14635,10.82242-15.14038,1.18275-1.60547,1.63313-3.27135,1.59438-5.1973-.04239-2.10811-.04266-4.22177.06431-6.32665.09088-1.79141.73674-2.34854,2.55471-2.54807.12317-.01355.24716-.02338.37105-.02761,4.6454-.15878,5.36632.47603,5.29818,4.88019-.01919,1.24074-.03111,2.48289.005,3.72291.08314,2.85272.11334,5.69134-1.50113,8.23928.97562,1.17061,2.16956.85081,3.2114.86523,1.63331.0227,2.8066.67875,3.75993,1.99627,4.94605,6.8352,9.9404,13.63538,14.89118,20.46722.63031.86978,1.44228,1.71127,1.31265,3.30546Z"/><path class="cls-2" d="M416.36394,464.61492c.83503-1.3746,1.3454-2.34813,1.97766-3.23469,5.40348-7.57626,10.8291-15.13679,16.24781-22.70218.07223-.10088.14109-.20427.21059-.3071,3.99631-5.91544,3.57932-4.49508,3.6243-11.30104.00655-.99268-.02215-1.9889.05158-2.97707.13886-1.86123.69944-2.51587,2.44769-2.64168,1.22723-.08837,2.47898-.02456,3.70462.10939,1.11107.12149,1.76321.88711,1.91676,1.97953.12035.85613.15278,1.72878.16642,2.59497.02543,1.61307-.02483,3.22764.01742,4.84003.06554,2.501-.01001,4.96497-1.42199,7.0145.46057,1.30269,1.45488,1.14568,2.25762,1.08273,2.38306-.18675,3.88592.90285,5.23269,2.80806,4.58327,6.48403,9.32046,12.85907,13.97733,19.29134.70963.98012,1.68325,1.85359,1.64491,3.47548-.46875.18439-1.00077.41699-1.54971.59833-.22783.07523-.49186.05062-.73961.0544-6.68888.10116-6.10469-.02761-9.30482-4.39242-3.74147-5.10324-7.42649-10.24791-11.16841-15.35084-.866-1.18102-1.63795-2.46748-2.74647-3.31383-1.5387.08965-1.91221,1.28704-2.53925,2.14745-4.23842,5.81587-8.44773,11.65294-12.67018,17.48051-.43655.60238-.84067,1.24456-1.36377,1.76344-.51728.51314-1.11161,1.14473-1.76721,1.28736-2.52765.55003-5.08386.70845-8.20598-.30665Z"/><path class="cls-2" d="M332.71593,432.42935c.7241-.09506,1.58105-.10611,2.37746-.33116,2.3872-.67475,4.74806-1.44205,7.12516-2.15332.70986-.21236,1.43482-.46352,2.16169-.49545.41772-.01838,1.03097.2523,1.2502.59092,1.00928,1.55876.32789,3.98999-1.32234,4.78649-.77508.37406-1.63199.58078-2.45574.8514-2.5931.85213-5.19043,1.69135-7.78126,2.5503-1.33385.44228-2.0131,1.38092-2.01314,2.79423-.00023,5.4596-.04312,10.9198.02611,16.37853.02338,1.84503.66169,2.43459,2.51441,2.51264,2.35395.09924,4.71413.05021,7.07163.06581.74452.00496,1.4914-.0227,2.23301.02679.96948.06463,2.13435-.07709,2.51396,1.1213.45424,1.43409-.69276,3.54493-2.07332,3.91844-.70781.19149-1.47034.24488-2.20872.24893-4.09505.02251-8.19024.01988-12.2853.00205-.74102-.00323-1.49381-.0534-2.22-.19239-2.0473-.39211-3.29855-1.65355-3.68443-3.69289-.16019-.84658-.19299-1.72719-.19399-2.59242-.01287-10.92043.0066-21.84096-.01824-32.76134-.00932-4.1132.65514-4.81192,5.13649-4.67597.37069.01123.74475.04298,1.10911.10957,1.16201.21232,1.81274.77713,1.90007,1.95588.12804,1.72896.06736,3.47093.14609,5.20467.05485,1.20818-.30397,2.4934.69108,3.77699Z"/><path class="cls-2" d="M316.45625,443.32641c.00114,5.33848.00132,10.67691.00096,16.01539,0,.62076.03166,1.24384-.0111,1.86173-.09129,1.31852.34959,2.94728-1.19731,3.6394-1.74602.78104-3.65427.72391-5.4209-.04039-.45515-.19694-.87496-.93241-.94656-1.46911-.17966-1.34649-.12071-2.72282-.21268-4.08341-.13454-1.99095-.74838-2.48799-2.59692-1.98462-2.51432.68471-5.00195,1.46752-7.50281,2.20194-.83262.24452-1.66024.52438-2.50927.69003-1.15614.22551-1.88943-.3953-2.01432-1.60056-.23906-2.3076.43769-3.42668,2.73856-4.18361,2.59328-.85309,5.22286-1.5956,7.83529-2.39093.71132-.21655,1.43027-.41667,2.12326-.68293,1.15146-.44242,1.85108-1.31761,1.86805-2.54052.04639-3.34944.07905-6.70216-.02456-10.0492-.04626-1.49568-.81652-2.14336-2.45438-2.23251-2.10488-.11453-4.21863-.06158-6.32838-.09374-1.24038-.01892-2.48722.0065-3.71868-.11466-1.32848-.13067-1.95283-.90103-2.0125-2.23196-.06895-1.53611.54416-2.51919,1.89311-2.76453.96861-.17607,1.97193-.20081,2.96097-.21677,2.23419-.03616,4.47134.03461,6.70316-.04899,2.47821-.09283,2.93532-.60911,3.05976-3.18443.06591-1.36305.00623-2.73424.11544-4.09269.1143-1.42145.71132-2.00755,2.04002-2.24624.2437-.04371.49177-.07509.73892-.08615,4.67497-.20886,4.89197.68239,4.87769,4.42426-.02229,5.83502-.00591,11.67014-.00482,17.5052Z"/><path class="cls-2" d="M928.12028,440.90191c.00045,4.46602-.00009,8.93199.00091,13.39801.00018.74434-.01728,1.48967.01455,2.23278.12544,2.92749.54162,3.3564,3.58346,3.4269,2.47985.05749,4.96197.0035,7.44291.02665.9899.00923,1.98662.03434,2.96661.15928.98426.12544,1.47266.90949,1.29773,1.87937-.3968,2.20008-1.26189,3.17984-3.40616,3.2155-5.08377.08464-10.17537.14377-15.25405-.04694-3.45719-.12981-4.80059-1.73492-4.90229-5.24797-.07532-2.60311-.02629-5.2099-.02656-7.81505-.00073-8.80795-.01983-17.61596.01155-26.42377.0141-3.93582.66051-4.50168,4.58755-4.33243.37133.01596.7452.02929,1.11225.08255,1.56563.22719,2.24324.8278,2.43764,2.33257.12663.97944.12572,1.97935.12826,2.9702.01173,4.71413.00519,9.42821.00564,14.14234Z"/><path class="cls-2" d="M771.72945,440.90446c0,4.8358-.04548,9.67223.01728,14.50721.03648,2.80997-.8882,5.35745-1.84745,7.9123-.43118,1.14868-1.2799,1.84676-2.51542,1.88975-1.35777.04717-2.72682.05704-4.0775-.065-1.17302-.10593-1.65014-.92795-1.42545-2.13208.0453-.2432.08642-.49568.18521-.71918,1.5045-3.40048,1.40544-7.00072,1.39152-10.60578-.03211-8.30755-.02756-16.61541-.001-24.923.01455-4.54766.65778-5.10197,5.25697-4.77762.36996.02606.74047.06741,1.10607.12872.96207.16128,1.5921.73128,1.72318,1.68703.13427.97771.1792,1.97384.18293,2.96224.01756,4.71172.00782,9.42362.00782,14.13543h-.00418Z"/><path class="cls-2" d="M915.41695,439.53113c.00073,2.10788-.08232,4.21968.0171,6.32288.2487,5.26002-.70026,10.37063-1.78477,15.46973-.15446.72587-.34777,1.4471-.57955,2.15196-.29328.89207-.92204,1.54516-1.85791,1.60989-1.47357.10193-2.96588.14245-4.43536.02442-1.14109-.09165-1.73337-.92322-1.57291-2.1123.2316-1.717.5549-3.42595.92923-5.11848.75293-3.40525,1.09333-6.83193,1.04548-10.32801-.08496-6.19853-.04212-12.39905-.01601-18.59858.01865-4.44227.54362-4.91817,4.94023-4.71868.37142.01683.74547.02524,1.11234.07832,1.18621.17143,1.83617.70472,2.00982,1.84176.14882.97425.17802,1.97321.18384,2.9617.02029,3.47166.00773,6.94359.00846,10.41538Z"/><path class="cls-2" d="M955.01572,440.34406c.00073,1.36428.03848,2.72982-.00582,4.09264-.17793,5.47507.07932,10.90515,1.48312,16.23708.21978.83485.33439,1.70576.41162,2.56772.08897.99404-.44601,1.69712-1.40225,1.87847-.60502.1148-1.22987.15423-1.84726.1697-3.80542.09533-4.56826-.49113-5.28945-4.16774-1.05094-5.35799-1.86173-10.72222-1.65414-16.23308.20058-5.32556.02165-10.66468.05367-15.99756.02638-4.38014.60611-4.89097,5.01609-4.65264.37114.02001.74566.02961,1.11143.08865,1.18794.19171,1.80997.73465,1.96316,1.88834.12999.97853.14837,1.97653.15273,2.9662.0161,3.72068.00646,7.44145.0071,11.16222Z"/><path class="cls-1" d="M855.8021,380.07771c-.00027-3.22541-.00555-6.45087.00318-9.67628.00237-.86764-.00846-1.74124.0846-2.60152.17757-1.63954.74238-2.29878,2.30574-2.37724,2.10252-.10539,4.21713-.10611,6.32065-.01483,1.6344.07091,2.25152.70768,2.44728,2.23697.09397.73501.09333,1.48526.09415,2.22869.00664,6.69898.02574,13.39801-.00346,20.09685-.0191,4.39083-.31029,4.66633-4.61275,4.70117-1.48722.01201-2.98016.0091-4.4612-.1067-1.19558-.09347-1.82398-.69649-1.99454-1.84667-.14482-.97562-.16965-1.97494-.17584-2.9642-.02019-3.22527-.00755-6.45082-.00782-9.67623Z"/><path class="cls-2" d="M640.12459,182.6185c-.48253,1.14097-.69913,1.84331-1.05549,2.46559-2.76848,4.83427-5.55912,9.65595-8.35717,14.47321-.37137.63936-.7548,1.29498-1.25152,1.83337-1.01451,1.09945-2.95833,1.15109-4.02137.0831-.60302-.60584-1.10502-1.33949-1.53884-2.082-2.8106-4.80987-5.59469-9.6353-8.37122-14.46498-.24202-.42106-.51751-.91515-.50127-1.36532.01478-.4096.31229-.99734.65251-1.16324.52656-.25671,1.1954-.29673,1.80424-.29823,6.68688-.01656,13.3739-.02038,20.06069.01274.70004.00348,1.3988.26574,2.57946.50578Z"/><path class="cls-2" d="M407.88975,424.69049c-.40771,3.94851-1.10047,4.65878-4.46129,4.8121-.61917.02825-1.24033.01606-1.86054.01606-13.52149.00073-27.04303.00705-40.56452-.01042-1.23296-.00159-2.4798-.07068-3.69421-.26817-.98644-.16042-1.47989-1.05553-1.49595-2.27681-.01892-1.43559.51897-2.40212,1.61935-2.57236,1.09588-.16956,2.2205-.20026,3.33303-.20663,4.21759-.02406,8.4354-.02383,12.65308-.01096,1.66915.00505,3.20849-.17234,4.23064-1.76958.50605-.79073,1.41067-.96871,2.30233-.99763.99117-.0322,1.98385-.03311,2.97571-.02547,1.27927.00982,2.48967.24643,3.32893,1.33048,1.04198,1.34599,2.50432,1.4582,4.02419,1.45797,4.58987-.00064,9.17974-.005,13.76951.01446,1.22009.00514,2.47457-.15387,3.83976.50696Z"/><path class="cls-2" d="M613.21887,422.76117c2.85181-.00118,5.70544-.06363,8.55489.01838,2.3303.06709,2.95456.64182,3.04511,2.82493.09756,2.35113.12408,4.71636-.01792,7.06339-.17711,2.92754-1.50714,4.28204-4.49376,4.35354-5.20462.12453-10.41493.09256-15.62146.02242-2.32307-.03125-2.94773-.64291-3.02228-2.84203-.09661-2.84835-.09633-5.70471-.00218-8.55316.07296-2.20754.69858-2.79618,3.00286-2.86568,2.84922-.08596,5.70294-.0206,8.55475-.02179ZM612.88402,431.82024c.74638-.11062,1.64564-.10193,2.41699-.41162.46184-.18534.90075-.82307,1.0342-1.33912.20486-.79209-.25603-1.59738-1.04744-1.67047-1.56486-.14455-3.16137-.13095-4.72459.02288-.38747.03816-.87155.81893-1.00259,1.33644-.19835.78395.22573,1.47289,1.03193,1.70458.69826.20081,1.44496.23288,2.2915.35732Z"/><path class="cls-2" d="M940.82871,437.36303c.00109,1.73383.02893,3.4682-.00519,5.20135-.05631,2.85936.06859,5.69193.86819,8.46546.20413.70809.32057,1.4542.37315,2.19025.08005,1.12012-.51087,1.86905-1.64541,2.12016-.59956.13277-1.22296.19235-1.83817.21354-3.4179.11748-4.10633-.39189-4.88265-3.66455-.74465-3.13954-1.23096-6.29991-1.1561-9.55598.09961-4.33234.01765-8.66864.03084-13.00325.003-.98872.01283-1.98521.13409-2.96388.14609-1.17957.76121-1.77476,1.88574-1.96579.48558-.08251.98444-.10088,1.4783-.11921,4.16437-.15446,4.70872.35186,4.75065,4.53661.02856,2.84817.00546,5.69684.00655,8.54529Z"/><path class="cls-2" d="M761.23961,441.82118c0,4.32916.04385,8.65895-.01383,12.98734-.04594,3.45046-.72628,4.02096-4.25243,3.88911-.37051-.01383-.74384-.02392-1.10952-.07846-1.3162-.19631-1.90485-.79905-2.08769-2.19489-.08005-.61066-.08687-1.23397-.08733-1.85154-.006-8.41098.01301-16.82204-.01392-25.23293-.0121-3.75588.55135-4.42576,4.6475-4.24174,2.18266.09811,2.83726.71341,2.87501,2.99408.07578,4.57522.02256,9.15258.02256,13.72903h.01965Z"/><path class="cls-2" d="M800.93654,424.62112c2.74356.91526,5.69953-.20117,8.39588.76567.28081,3.35827-.68507,4.71881-3.53852,4.8861-1.98062.11612-3.97234.05276-5.95906.05535-3.97389.00519-7.94777.0111-11.92157-.00732-.99027-.00455-1.99126-.02724-2.96752-.17343-1.23351-.18471-1.89629-1.06354-1.94014-2.34872-.0503-1.47857.64596-2.49085,2.0262-2.65368,1.35149-.15942,2.72446-.14423,4.0885-.18848,1.21686-.03948,2.18994-.42077,2.56381-1.71304.4219-1.45856,1.56017-1.80405,2.88683-1.84613.49632-.01578.99345-.00405,1.48976-.01942,1.88183-.05822,3.43691.41099,4.14427,2.4073.11353.3202.47521.55244.73156.8358Z"/><path class="cls-2" d="M509.04246,464.52536c.23633-.55667.31961-1.07473.61521-1.39975,3.31924-3.649,6.655-7.28344,10.02004-10.89032,2.26544-2.42822,5.10842-2.00377,7.93522-1.45638.59047.1143.9008.9919.56413,1.51933-.39439.6178-.82907,1.22187-1.32229,1.76262-2.74238,3.00682-5.54484,5.95965-8.24996,8.99921-1.41849,1.59374-3.07777,2.40462-5.2099,2.25366-1.42177-.10075-2.9395.28545-4.35244-.78836Z"/><path class="cls-2" d="M528.76935,437.248c-.42463.8081-.5659,1.28591-.86741,1.6183-2.9053,3.20221-5.92544,6.30491-8.73122,9.59104-1.87041,2.19057-4.08305,3.07268-6.86822,2.76885-.96179-.10493-1.92463-.20022-3.17647-.32985.22369-.78127.22019-1.46188.5569-1.83735,3.13385-3.49449,6.33184-6.93126,9.49848-10.39646,1.16124-1.27062,2.58073-1.84549,4.29509-1.78468,1.58883.05635,3.19617-.15087,5.29286.37014Z"/><path class="cls-2" d="M509.42293,436.64589c-.17711-1.48176.64163-2.14372,1.30155-2.84922,1.44164-1.54121,2.95756-3.01309,4.39484-4.55817,1.26676-1.36182,2.51364-2.74747,3.6857-4.19048,1.26703-1.56004,2.81379-2.37683,4.84417-2.25757,1.57414.09238,3.19148-.2366,4.82711.38784-.08974.48317-.03602.92873-.23347,1.14718-3.32748,3.67979-6.69357,7.32465-10.03405,10.99275-1.16278,1.27686-2.57486,1.90243-4.298,1.81297-1.46425-.076-2.97684.28282-4.48785-.48531Z"/><path class="cls-2" d="M406.99713,464.41834c-.60857.31711-1.01487.69271-1.44578.7235-1.47012.10488-2.94905.11889-4.42431.10948-1.3353-.00851-2.35008-.65169-3.06122-1.76921-2.18184-3.42895-4.36727-6.85572-6.51941-10.30322-.17188-.27536-.09943-.70317-.1511-1.15237,1.33912-1.29259,3.01837-.71555,4.54984-.82084,2.0292-.13959,3.50391.6797,4.59897,2.45356,1.74693,2.82984,3.66983,5.55048,5.45824,8.35562.4345.68157.63481,1.51255.99477,2.40348Z"/><path class="cls-2" d="M373.18881,452.10762c-.32493.84376-.47817,1.57846-.85686,2.16833-1.86982,2.91262-3.83853,5.76202-5.69239,8.68442-1.02574,1.61703-2.37201,2.46334-4.297,2.34303-1.22873-.07678-2.46529-.09015-3.68384-.24561-.81879-.10448-1.19708-.93105-.90271-1.69398.08865-.22974.16752-.47025.29828-.6757,1.99126-3.12771,3.99867-6.24519,5.98398-9.37677.86737-1.36814,2.09478-2.06968,3.70108-2.07741,1.23397-.00591,2.47562-.02674,3.69908.10079.55299.05763,1.07013.45956,1.75038.7729Z"/><path class="cls-1" d="M625.87377,393.93255c-.57859.29173-.89302.58637-1.21104.59028-5.07831.06272-10.15708.10134-15.23572.10452-.58182.00036-1.16383-.24506-1.93482-.41927.12021-.60734.06381-1.18002.3223-1.4914,1.8977-2.2865,3.8529-4.5256,5.80496-6.76666.32357-.37142.69508-.71222,1.08774-1.01019,1.26958-.96352,2.50327-.99204,3.75206-.06036.49309.36782.94978.80283,1.35522,1.26658,1.87464,2.14436,3.73537,4.30114,5.57154,6.47843.22023.26117.25985.67456.48776,1.30806Z"/><path class="cls-1" d="M852.76699,350.98129c.74238-.22796,1.17848-.44915,1.62967-.48649,3.43664-.28418,12.91256-.05831,15.39468.36696-.04839.43123.06504,1.01064-.17338,1.29628-2.06213,2.4697-4.12844,4.9415-6.32019,7.29454-1.00464,1.07846-2.50141.92595-3.70089-.06431-1.51414-1.24998-5.35995-5.91507-6.82988-8.40697Z"/></g></svg>