<?xml version="1.0" encoding="UTF-8"?><svg id="Layer_1" xmlns="http://www.w3.org/2000/svg" viewBox="0 0 1250 703"><defs><style>.cls-1{fill:#231815;}.cls-1,.cls-2{stroke-width:0px;}.cls-2{fill:#f70000;}</style></defs><path class="cls-1" d="M721.27687,342.17329c-9.27031-1.2668-33.23044-4.02409-49.19433-6.8045-8.67534-1.51086-15.56891-4.04683-14.99293-10.26419.79709-8.60385,18.39455-12.05076,36.70165-11.40437,17.92162.63278,30.38417,4.38225,37.93955,12.23042l22.76203-12.06653c-10.89217-15.68096-31.84934-22.77044-59.86855-23.75971-32.46659-1.14631-53.87987,7.23236-61.36062,20.90266-9.68744,17.7028-.78959,39.88512,31.14094,45.61612,5.42917.97447,34.51923,4.26624,50.48299,7.04654,8.67534,1.51098,18.59714,5.07679,15.06872,14.15516-2.75793,7.09598-15.68263,12.23286-38.83231,11.41542-21.29364-.75181-35.8188-4.79217-42.62556-19.18696l-22.249,11.79454c6.15633,12.75611,16.75107,21.12854,29.45366,25.17828,10.48237,3.34171,22.22344,5.49705,34.58435,5.90888,10.2721.34216,20.98173-.68358,31.69974-2.69281,10.5489-1.97769,24.70265-8.66403,30.83876-19.17576,13.39552-22.94785-2.39134-44.90895-31.54915-48.89321l.00006.00003Z"/><path class="cls-1" d="M964.06671,336.9582c-3.84683-23.31627-17.77203-38.55809-40.62187-43.53036-10.58114-2.30247-19.67624-3.32814-30.39842-3.2901h0c-10.72223-.03804-19.8266.98763-30.40774,3.2901-22.84984,4.97224-36.77504,20.21407-40.62187,43.53033-1.5817,9.58562-1.5018,19.88528.11941,29.47166,3.8463,22.74286,17.55191,37.60592,39.7039,42.83219,10.61361,2.504,22.37855,3.72631,31.20629,3.72631h0c8.82775,0,20.58336-1.22231,31.19697-3.72631,22.15199-5.22626,35.8576-20.08933,39.7039-42.83219,1.62121-9.58638,1.7011-19.88604.11941-29.47166v.00003ZM893.04637,389.27864c-40.42948,0-47.01214-16.43374-47.17839-37.68558-.16601-21.16022,7.53539-37.90162,47.17839-37.90162s47.33507,16.7414,47.16912,37.90162c-.16624,21.25182-6.73959,37.68558-47.16912,37.68558Z"/><path class="cls-2" d="M317.45324,293.77588c-1.85225.00334-18.62873.41719-36.9018,13.77777-6.12049,4.47516-13.12903,11.81702-19.7875,20.72258-6.21107-8.5756-13.23195-15.80227-20.87582-21.48541-16.41409-12.2085-33.93775-12.98364-37.28878-13.01494-31.87745,0-57.81115,25.9885-57.81115,57.93306s25.90686,57.93421,57.74963,57.93421h.09395c2.02003,0,20.2349-.37135,37.51808-13.21852,15.18373-11.28573,23.93829-25.68316,32.40426-39.60633,6.40681-10.53635,12.45904-20.4877,20.69462-27.60924,6.67637-5.7715,15.29669-9.54758,24.27383-10.63366l.50444-.06041v-24.74025l-.57379.00111.00003.00003ZM246.45152,351.71006c-6.1283,10.62806-13.29905,19.03809-21.3165,24.99976-10.44462,7.77027-22.05695,8.11811-22.53569,8.12931-18.22831,0-33.05748-14.8616-33.05748-33.13018,0-18.26747,14.85601-33.12906,33.11675-33.12906.11633.00111,11.75438.15434,22.4764,8.12931,8.01746,5.96163,15.1882,14.37169,21.3165,25.00087h.00001Z"/><path class="cls-2" d="M295.14239,375.83177c-4.2964-3.14303-10.18552-9.56686-15.52193-16.85245-4.42475,7.24373-9.05127,14.54377-14.71451,21.4097,5.41015,6.5882,10.79174,11.92877,15.64639,15.47844,18.31463,13.38872,35.05315,13.77566,36.90086,13.77566h.57267v-24.79055l-.5771-.01357c-.10393-.00223-10.46604-.35315-22.30639-9.00721v-.00003Z"/><polygon class="cls-1" points="1105.21182 409.52445 1081.07853 409.52445 1007.67383 328.26518 1007.67383 409.52445 983.47823 409.52445 983.47823 293.7393 1010.65047 293.7393 1079.99034 370.53088 1079.99034 293.7393 1105.21182 293.7393 1105.21182 409.52445"/><polygon class="cls-1" points="455.30353 343.81191 455.30353 367.56022 369.77667 367.56022 369.77667 409.60024 344.1592 409.60024 344.1592 409.60024 344.1592 293.75853 455.30353 293.75853 455.30353 316.87555 369.77667 316.87555 369.77667 343.81191 455.30353 343.81191"/><rect class="cls-1" x="776.12441" y="293.7393" width="25.18508" height="115.80056"/><path class="cls-1" d="M609.09426,293.77063h-25.61756s.01952,36.2038,0,53.31502c0,28.84233-11.846,41.4519-40.4718,41.4519s-40.47177-12.60957-40.47177-41.4519c-.01949-17.11125,0-53.31502,0-53.31502h-25.61756s-.06337,41.41872,0,61.22501c0,40.2502,30.25407,57.28143,66.08934,57.28143s66.08937-17.03121,66.08937-57.28143c.06337-19.80629,0-61.22501,0-61.22501Z"/></svg>