<?xml version="1.0" encoding="UTF-8"?><svg id="LOGO" xmlns="http://www.w3.org/2000/svg" viewBox="0 0 1250 703"><defs><style>.cls-1{fill:#f03;stroke-width:0px;}</style></defs><g id="Yahoo_japan"><path class="cls-1" d="m739.55568,393.9079c-2.00383.47744-9.37489,3.00447-11.53417,3.61491-.21655,6.80353-1.31552,37.19035-1.31552,37.19035-.59936,14.14588-6.74385,23.51651-23.00721,29.73887l-5.87254-1.44312c7.93461-4.71387,11.41765-8.84771,12.42795-12.29466,1.62076-4.46265,2.43665-14.79782,2.43665-33.85452,0,0-.1833-14.37466-.53854-19.22579-2.43665-.39847-12.43335-2.84049-15.51938-3.52624l-.14437-4.51807c6.37213.18867,20.27645.38849,25.74939.38849,5.47835,0,12.14461-.27197,17.72839-.38849l-.41066,4.31828Z"/><path class="cls-1" d="m999.10746,403.14013c-1.18792.28163-4.59593,1.06429-7.59869,1.69832-.18327,4.90542.37996,40.99822.44391,49.62114,0,1.23907-1.3877,1.87197-2.51452.74913-7.80956-7.63621-32.693-35.82342-40.98-46.05057-.0222,6.38889.32196,32.07574.38846,36.83795,3.11388.86053,10.33545,2.5867,11.67314,2.85725l.29954,5.13561c-6.28886-.0665-27.07287-.04433-27.45312,0l.07758-4.983c2.6893-1.12795,5.23423-2.06067,7.6544-3.00987.32739-3.01384.28845-38.56129.30522-40.84533-2.05385-.18586-6.15017-.29556-8.97532-.42884v-6.17919c3.40802-.06536,13.94865-.03748,19.72682,0,7.18236,8.16764,24.38926,27.35621,33.11477,37.1128.08895-8.24125-.47716-27.52704-.59367-30.85602-1.48206-.27197-4.8679-.60618-8.59251-1.37776l-.48284-4.85114c1.47097.133,10.85154.28021,12.59988.28021,1.75403,0,9.56927-.46778,11.18433-.60081l-.27737,4.8901Z"/><path class="cls-1" d="m851.57234,417.59379c0,6.84388-6.3721,9.67897-13.32145,10.79726v4.82755c14.64265-1.48177,23.98429-7.30314,23.98429-15.87462v-.41208c0-9.97311-6.62193-18.62644-22.247-18.93592,0,0-5.61706-.22479-8.8696-.22479h-21.04805l.90486,5.47977c2.93626.32341,6.82172.64398,9.28594.81591.22224,6.84954.91595,35.10069.44959,43.11573-1.67045.36774-7.19912,1.48348-9.3081,2.01065l-.52177,4.79572c2.08681-.13158,32.27669-.12618,34.50247,0l-.26657-4.13356c-2.15076-.57324-9.90775-1.9774-11.8783-2.4591-.26631-1.88987-.81594-41.86387-.69374-43.60141,3.13605,0,8.86991.14437,11.36226.80483,5.97793,1.59317,7.66517,8.03749,7.66517,12.07271"/><path class="cls-1" d="m444.47607,289.46237c-3.97441.38565-20.48192,4.08524-26.03785,5.27288-5.94612,1.59033-62.98406,46.20886-66.55039,56.51362-.79232,3.57455,0,41.94032,0,41.94032l32.24344,2.15925-1.13506,10.64042c-4.63912-.32341-34.55817-.26373-53.31221-.26373-9.50959,0-38.52802,1.06316-48.32353.77726l1.22117-10.14107c6.11522.51211,15.44577-.44817,21.16284-1.97314,5.71849-1.51815,9.80259-3.79395,9.80259-9.52494v-33.28699c-1.98166-5.9447-49.41851-65.66627-61.69783-75.17444-3.5663-1.199-26.93987-3.74677-32.48642-4.92901l1.15468-9.9967h108.24771l-1.5639,9.20011c-4.75252,1.19076-27.66399,1.63463-33.60727,3.21107,15.45288,22.99075,39.90181,52.58639,47.835,64.08731,4.35579-6.34428,45.83543-35.37949,47.02335-44.48809-5.9447-1.18223-25.64112-4.02414-28.80217-4.02414l-1.88021-10.1854h93.46383l-6.75777,10.1854Z"/><path class="cls-1" d="m675.03555,376.23209c-17.05429-1.01573-46.983-.59112-64.62699,0l1.04326-9.02533c2.65605-.26629,16.60072-2.47559,20.13776-2.98344v-30.8779c-8.49105,0-55.92506,1.02678-63.40866,2.94166v27.7447s20.43588,2.35083,25.20233,2.85868l-1.09328,9.36665c-18.60143-1.04074-55.6295-1.0768-73.21807-.0611l1.15183-10.05211c5.51586-.14721,20.28185-1.84269,23.72454-2.37839.53712-6.88566.79232-17.76193.79232-29.14917v-14.05949c0-4.76531-.2552-18.54743-.52717-23.32354-4.05626-.01137-20.99943-1.60142-25.77696-1.85946l1.16547-8.90341c15.29742.85485,62.47907.83552,75.48819.03609l-1.33484,8.28985c-3.69533.19979-20.44014,2.67821-25.57433,2.68646v24.62258h63.40866v-35.96776c-4.66954-.48568-16.09685-3.0309-21.1438-3.28045l.98387-8.27333c10.60174.78266,52.51562.65506,63.7392,0l-.78268,8.68402c-3.44695.27197-15.7473,2.37015-19.78792,2.63928v78.59383s17.9063,2.18145,21.62496,2.70578l-1.18766,9.02533Z"/><path class="cls-1" d="m994.83891,385.52371l-11.69786.47744,2.25079-19.77684,11.65637.56355,10.90128-.41094-2.29225,19.3605-10.81832-.21371Zm12.83324-35.45451h-17.0404v-89.52551h38.67638l-3.47452,13.45189-18.16147,76.07362Z"/><path class="cls-1" d="m749.16931,366.70999c-1.42095.04178-2.82517.12504-4.20747.1887-1.38742-.06366-2.78621-.14693-4.21284-.1887-14.33714-.39957-42.0125-8.57574-42.0125-33.27022,0-.37485-.00538-1.18792-.00538-1.23509s.00538-.87417.00538-1.24618c0-24.70272,27.67536-32.88173,42.0125-33.27306,1.42664-.03865,2.82543-.12476,4.21284-.19154,1.3823.06678,2.78652.15289,4.20747.19154,14.33712.39133,42.01816,8.57034,42.01816,33.27306,0,.37201.0054,1.19076.0054,1.24618,0,.04718-.0054.86025-.0054,1.23509,0,24.69448-27.68104,32.87065-42.01816,33.27022m66.39633-35.07966c0-28.38299-27.20357-45.60666-68.59997-46.46691,0,0-1.47637-.01393-2.00383-.01393-.53283,0-2.00355.01393-2.00355.01393-43.92766.9185-68.22797,18.24477-68.22797,46.60559,0,.14437-.01677.29698-.01677.43566,0,.14434.00568.27197.01677.41918.27737,26.70939,26.82591,45.73966,68.22797,46.60559,0,0,1.47071.02217,2.00355.01389.52746.00827,2.00383-.01389,2.00383-.01389,41.3964-.86593,68.10037-18.75546,68.59429-46.49192,0-.14437.00568-.96852.00568-1.10721"/><path class="cls-1" d="m905.86842,357.58206c-2.12035.14977-4.22393.21371-6.311.23304-2.08713-.01932-4.18531-.08327-6.30565-.23304-15.65806-1.0714-44.05498-10.68217-44.64894-37.22786.59396-26.55138,28.99088-35.74041,44.64894-36.81437,2.12035-.13613,4.21853-.20547,6.30565-.22479,2.08707.01932,4.19065.08867,6.311.22479,15.66375,1.07396,44.05498,10.26298,44.64894,36.81437-.59396,26.5457-28.98519,36.15646-44.64894,37.22786m71.3086-37.20854c0-.16909-.01677-.51893-.01677-.51893-1.04895-29.69027-29.65673-48.87571-75.7158-49.85276,0,0-1.24876-.03041-1.88703-.03041-.62184,0-1.87626.03041-1.87626.03041-46.07558.97705-74.79988,18.85549-75.71554,49.85276v.98529c.91566,31.00835,29.63997,49.31166,75.71554,50.28302,0,0,1.25442.03581,1.87626.02757.63826.00824,1.88703-.02757,1.88703-.02757,46.05906-.97136,74.80014-19.27468,75.7158-50.28302,0,0,.01677-.29982.01677-.46636"/><path class="cls-1" d="m443.98897,351.49015c1.5028-4.00198,14.98112-32.63193,14.98112-32.63193l12.68031,32.63193h-27.66143Zm69.37979,37.50552c-4.79856-7.87351-22.90891-52.49747-31.01119-72.68522l14.86574-2.32017,1.77761-7.62651h-22.61051l.01821.07503c-8.59109.12504-43.59461-.19154-47.44255-.41634l-.64227,7.94029,17.9728,4.29892s-26.30158,51.99246-31.54973,59.48856c-4.6721,1.01567-16.09401,3.76041-20.37478,4.26002l-1.23367,9.60252c3.54272-.49961,49.44352-.24128,53.69246,0l.98246-8.66441-15.99968-3.78826s7.26704-15.11156,8.26768-16.86275c5.24817-1.00746,35.08393-1.4542,35.08393-1.4542l10.62249,28.85191s-12.64706,1.95097-17.64399,2.19537l-1.12397,9.46782c3.74507,0,64.36184-.24554,66.11048,0l1.01568-8.50501c-4.4905-.24693-16.52825-3.10277-20.77719-3.85758"/><path class="cls-1" d="m920.12798,447.51283c-5.99472-12.50127-16.03575-37.05309-18.72789-43.67899l7.1605-.95886.4939-4.8014-29.61808,1.03104-.10543,4.01874,7.68196,1.33339c-5.07309,11.07921-18.13365,39.38575-20.40945,42.71477-1.97595.70081-4.41831,1.45563-6.79955,2.32582l-.48284,4.49164c6.79955-.37883,21.46977-.13158,23.76773,0l.10543-4.02954-7.35457-2.09278s4.58485-11.08572,6.23884-14.42581c5.71707-.07787,20.79825.0665,20.79825.0665l5.6116,14.69949s-5.22314,1.10863-9.1032,1.85236l-.6687,3.92979c2.02887,0,28.83258-.13158,29.78178,0l.51609-4.64567c-2.46447-.5232-8.88636-1.83047-8.88636-1.83047Zm-36.07885-19.001c1.18761-2.92091,8.92527-21.05485,8.92527-21.05485l8.19265,21.12135-17.11792-.0665Z"/><path class="cls-1" d="m796.08294,447.5171c-3.75217-7.81525-13.95405-32.24486-18.61106-43.69434l7.75412-1.3931.21655-4.35039-30.05659,1.02536-.04433,3.97981,7.68199,1.33371c-5.07312,11.0735-18.19477,39.43006-20.47058,42.75907-2.48667.91566-4.66812,1.58181-6.79955,2.32553l-.48284,4.49192c6.71628-.22622,21.47519-.13186,23.76773,0l.11083-4.03523-7.35997-2.09278s4.59025-11.08572,6.24453-14.42041c5.71138-.08327,20.79254.06678,20.79254.06678l5.61163,14.6938s-5.22314,1.11431-9.10318,1.85236l-.66588,3.93547c2.026,0,28.83542-.13726,29.77894,0l.51609-4.64595c-2.45882-.52859-8.88096-1.83161-8.88096-1.83161Zm-36.08428-18.99958c1.19332-2.9266,8.9307-21.06053,8.9307-21.06053l8.18728,21.12135-17.11798-.06082Z"/></g></svg>