<?xml version="1.0" encoding="UTF-8"?>
<svg id="EXAMPLES_TURN_OFF_" data-name="EXAMPLES (TURN OFF)" xmlns="http://www.w3.org/2000/svg" viewBox="0 0 1250 703">
  <defs>
    <style>
      .cls-1 {
        fill: #5697b9;
      }
    </style>
  </defs>
  <path class="cls-1" d="M326.73,462.1v-97.42l-71.73-127.45h18.02l37.03,67.06c9.34,17.68,17.68,32.03,25.36,48.38h.67c7.01-15.35,16.01-31.03,26.02-48.71l38.37-66.73h18.02l-76.07,127.78v97.09h-15.68Z"/>
  <path class="cls-1" d="M460.85,237.23v135.79c0,57.05,26.69,79.07,60.05,79.07,37.03,0,62.72-24.02,62.72-79.07v-135.79h16.01v134.12c0,69.06-37.37,94.42-79.74,94.42-39.37,0-74.73-23.02-74.73-91.75v-136.79h15.68Z"/>
  <path class="cls-1" d="M668.04,383.36l-27.69,78.74h-16.35l81.41-224.87h15.35l81.07,224.87h-16.35l-28.36-78.74h-89.08ZM752.12,370.02l-27.36-75.07c-5.34-15.68-8.34-27.02-11.68-39.7h-.67c-3.34,13.01-7.01,24.69-11.68,39.04l-27.69,75.74h79.07Z"/>
  <path class="cls-1" d="M836.52,462.1v-224.87h15.01l87.75,132.79c18.02,28.03,31.03,49.04,42.04,70.73l.67-.33c-2.34-30.36-2.67-56.05-2.67-91.42v-111.77h15.68v224.87h-15.01l-85.74-130.79c-16.68-26.02-32.03-49.71-43.71-72.73l-.67.33c1.67,27.69,2,52.05,2,89.42v113.77h-15.35Z"/>
</svg>