<svg id="LOGOS" xmlns="http://www.w3.org/2000/svg" viewBox="0 0 1250 703"><desc>raster-based</desc>
<metadata><?xpacket begin="﻿" id="W5M0MpCehiHzreSzNTczkc9d"?>
<x:xmpmeta xmlns:x="adobe:ns:meta/" x:xmptk="Adobe XMP Core 6.0-c006 79.164648, 2021/01/12-15:52:29        ">
   <rdf:RDF xmlns:rdf="http://www.w3.org/1999/02/22-rdf-syntax-ns#">
      <rdf:Description rdf:about=""
            xmlns:dc="http://purl.org/dc/elements/1.1/"
            xmlns:xmp="http://ns.adobe.com/xap/1.0/"
            xmlns:xmpMM="http://ns.adobe.com/xap/1.0/mm/"
            xmlns:stEvt="http://ns.adobe.com/xap/1.0/sType/ResourceEvent#">
         <dc:description>
            <rdf:Alt>
               <rdf:li xml:lang="x-default">raster-based</rdf:li>
            </rdf:Alt>
         </dc:description>
         <xmp:MetadataDate>2022-03-02T23:49:52-05:00</xmp:MetadataDate>
         <xmpMM:InstanceID>xmp.iid:d46c2487-775d-4dc2-88b8-0616cbb6e3d2</xmpMM:InstanceID>
         <xmpMM:DocumentID>xmp.did:d46c2487-775d-4dc2-88b8-0616cbb6e3d2</xmpMM:DocumentID>
         <xmpMM:OriginalDocumentID>xmp.did:d46c2487-775d-4dc2-88b8-0616cbb6e3d2</xmpMM:OriginalDocumentID>
         <xmpMM:History>
            <rdf:Seq>
               <rdf:li>
                  <rdf:Description>
                     <stEvt:action>saved</stEvt:action>
                     <stEvt:instanceID>xmp.iid:d46c2487-775d-4dc2-88b8-0616cbb6e3d2</stEvt:instanceID>
                     <stEvt:when>2022-03-02T23:49:52-05:00</stEvt:when>
                     <stEvt:softwareAgent>Adobe Bridge 2021 (Macintosh)</stEvt:softwareAgent>
                     <stEvt:changed>/metadata</stEvt:changed>
                  </rdf:Description>
               </rdf:li>
            </rdf:Seq>
         </xmpMM:History>
      </rdf:Description>
   </rdf:RDF>
</x:xmpmeta>
                                                                                                    
                                                                                                    
                                                                                                    
                                                                                                    
                                                                                                    
                                                                                                    
                                                                                                    
                                                                                                    
                                                                                                    
                                                                                                    
                                                                                                    
                                                                                                    
                                                                                                    
                                                                                                    
                                                                                                    
                                                                                                    
                                                                                                    
                                                                                                    
                                                                                                    
                                                                                                    
                           
<?xpacket end="w"?></metadata>
<defs><style>.cls-1{fill:#06aff2;}</style></defs><g id="Layer_5" data-name="Layer 5"><path class="cls-1" d="M377.9586,283.09389,397.76023,249H247.58557A11.377,11.377,0,0,0,236.194,260.38884v34.16667H358.05925A23.0118,23.0118,0,0,0,377.9586,283.09389Z"/><path class="cls-1" d="M337.55242,353.1482l-26.20037-45.48308L236.36156,436.91667A11.38781,11.38781,0,0,0,246.22615,454H395.81889l-26.27281-45.55579H305.51092Z"/><path class="cls-1" d="M869.49257,419.90577,849.71486,454h154.07728a11.37769,11.37769,0,0,0,11.39119-11.38911V408.44421H889.41584A23.05063,23.05063,0,0,0,869.49257,419.90577Z"/><path class="cls-1" d="M909.91584,349.8518l26.199,45.48335,74.989-129.25182A11.38146,11.38146,0,0,0,1001.24332,249h-149.594l26.27347,45.55551h64.03447Z"/><path class="cls-1" d="M431.06112,249h34.41677V442.73184A11.63418,11.63418,0,0,1,453.96507,454H419.66926V260.38884A11.39256,11.39256,0,0,1,431.06112,249Z"/><path class="cls-1" d="M618.48715,419.88185,638.0954,454H511.28514V260.38884A11.37726,11.37726,0,0,1,522.677,249h34.17486V408.44421h41.85758A22.81419,22.81419,0,0,1,618.48715,419.88185Z"/><path class="cls-1" d="M755.9123,419.88185,775.51989,454H648.7103V260.38884A11.37726,11.37726,0,0,1,660.10216,249h34.17418V408.44421h41.85825A22.81416,22.81416,0,0,1,755.9123,419.88185Z"/><path class="cls-1" d="M797.77193,249h34.17489V442.61089A11.37741,11.37741,0,0,1,820.555,454H786.38078V260.38884A11.39241,11.39241,0,0,1,797.77193,249Z"/></g></svg>