<?xml version="1.0" encoding="UTF-8"?><svg id="LOGOS" xmlns="http://www.w3.org/2000/svg" viewBox="0 0 1250 703"><defs><style>.cls-1{fill:#0076be;stroke-width:0px;}</style></defs><g id="Layer_4"><path class="cls-1" d="M476.9913,353.08551c4.84693,30.66052-20.8565,47.95525-46.55992,49.79121-13.10875,24.30809-40.09734,44.06302-79.09312,44.06302-15.9583.57847-31.79146-3.01594-45.9357-10.42825-3.4528.63019-6.95513.94969-10.46497.95469-13.62282,0-22.91277-3.15785-31.98241-13.91657,18.35959-24.71201,74.24617-69.14222,142.32354-46.19274,36.38869,12.22749,45.86225-16.52363,36.71918-27.28235-34.29571-40.64813-111.84662-4.07583-114.60056-.99142,30.29332-48.61619,139.20243-62.20229,149.59396,4.00239v.00002ZM372.6354,297.27236c.22032,0-24.71201-9.21652-59.59523,6.49929-1.40552-.58649-2.77835-1.2484-4.11254-1.98284,33.52462-23.1698,62.93667-33.04726,88.12603-29.37534-16.22988-14.28376-34.00197-16.41347-59.9257-16.41347-28.75112,0-54.23423,11.27279-70.39067,28.7144-5.00359-1.10361-10.1147-1.64551-15.23846-1.61564-38.95905,0-72.77742,36.7559-70.75786,78.50561,2.01955,41.74971,45.82554,67.78361,70.75786,60.77025.60703-.11017,1.22893-.11017,1.83596,0,5.50788-27.61283,28.01674-91.83467,119.30062-125.10225h-.00001ZM581.23705,335.49703l4.66332-21.29713h-78.02823l-1.76253,8.2251c-.87677,3.01634-.27785,6.26956,1.61565,8.77588,1.85675,2.4206,4.77272,3.78961,7.82118,3.67192h36.05823l-63.96481,58.78741-4.33286,19.75492h82.65488l4.84693-21.55415h-52.25141l62.67964-56.36395ZM633.30485,352.64489c-.99264-.00556-1.98026-.14135-2.93755-.40391-1.24959-.25974-2.47724-.61576-3.67192-1.06486-11.78685-2.75394-17.258-6.09538-16.41348-10.09777.54138-2.80567,2.25024-5.24879,4.70005-6.71961,3.5045-1.65539,7.36591-2.41253,11.23606-2.20315,3.96276-.32317,7.90032.87122,11.01575,3.34144l2.20315,2.97425c1.11946,3.97826,4.87265,6.62847,8.99619,6.35242h15.38535c2.0487-8.54106-.07687-17.54756-5.72818-24.27138-6.11988-5.67923-15.38535-8.53109-27.79642-8.55557-10.5543-.24497-20.93155,2.7401-29.74253,8.55557-7.85129,5.70006-13.32832,14.09203-15.38535,23.57371-1.8872,6.14916-.66843,12.83189,3.268,17.91896,3.30473,4.47974,11.01575,8.33526,22.83933,11.56655,2.98595.97923,6.04262,1.72806,9.14307,2.23987,9.54698,2.23987,13.84312,5.61803,12.85171,10.06106-.76062,3.13047-2.91132,5.74108-5.83834,7.0868-3.6404,1.83968-7.67163,2.77192-11.75013,2.71723-4.7925.36677-9.56488-.93008-13.51266-3.67192-2.9378-2.84818-4.05482-7.09007-2.90082-11.01575h-24.30811l-.25703,1.10157c-2.35003,11.01575-.7711,19.27757,4.92036,24.96904,5.69146,5.69147,14.87128,8.629,28.56752,8.59229,14.32049,0,25.70343-2.71723,33.96524-8.2251,8.85754-5.79159,15.00118-14.91439,17.03773-25.29951,1.89232-6.09278.83315-12.7196-2.86409-17.91896-3.94119-4.50422-11.61552-8.37198-23.02291-11.60326h0ZM722.7895,384.70074c-1.31696.87075-2.54669,1.8668-3.67192,2.97426-.77572.70286-1.59761,1.35302-2.46018,1.94611-.6268.6178-1.39608,1.07179-2.23987,1.32189-3.38757,1.79941-7.18102,2.6972-11.01575,2.60706-6.1688,0-10.39153-1.94611-12.63141-5.9485-3.268-4.70005-3.67192-12.815-1.17504-24.23466s6.46256-19.60804,11.86028-24.60185c3.87144-3.41451,8.8648-5.28374,14.02675-5.25084,4.76673-.5865,9.48409,1.41524,12.37435,5.25084,1.14624,1.68591,1.9451,3.58327,2.35003,5.58132h25.04251c-.17985-6.65364-1.92863-13.17072-5.10396-19.02054-5.924-8.95948-16.04632-13.43922-30.36678-13.43922-13.04019-.23819-25.6316,4.76133-34.95662,13.87983-10.04836,10.21661-16.80182,23.21194-19.38772,37.30669-3.62295,16.67051-2.61924,29.47325,3.011,38.40826,5.6303,8.93499,15.25071,13.53712,28.86128,13.80641,10.55301.19467,20.91911-2.79998,29.74256-8.59229,8.92761-5.80625,15.97074-14.08707,20.269-23.83075h-17.62522c-2.43928-.15253-4.86203.49182-6.90322,1.83596l-.00006.00003ZM831.77206,373.9053c-1.51166,8.4719-5.03785,16.45621-10.28138,23.27996-4.02423,5.10399-9.12774,9.25451-14.94473,12.15405-5.3515,2.63436-11.11352,4.33565-17.0377,5.03052-4.99773.58126-10.02359.88771-15.05489.91798-7.67867.3012-15.18538-2.32352-21.00338-7.34384-5.36102-4.89589-6.81756-12.92515-4.36959-24.08779,1.38666-8.97813,6.30472-17.02945,13.65954-22.36198,7.37168-4.68456,15.6595-7.7393,24.30808-8.95948,1.47127-.03719,2.93514-.22171,4.36959-.55079,1.95334-.40837,3.92663-.71478,5.91179-.91798,11.01575-1.50549,16.81739-4.73678,17.88222-9.73058,1.01351-2.76638-.32939-5.8405-3.0477-6.97664-.28295-.11919-.57861-.20544-.88128-.25703-3.16721-1.09184-6.49068-1.66228-9.84071-1.68908-3.14603-.04765-6.2766.44926-9.25325,1.46877-2.8897,1.01815-5.34898,2.9856-6.97662,5.58132h-23.90417c2.64435-7.67368,7.64298-14.31711,14.28376-18.98382,8.60202-5.96804,18.91405-8.97142,29.37534-8.55557,13.31681,0,22.81485,2.35003,28.49406,7.05008,5.67921,4.70006,7.61311,11.6767,5.80164,20.92994l-7.49063,34.00195ZM810.80538,363.44034c-4.81642,2.11975-9.83612,3.74375-14.98143,4.84693l-8.59227,1.94612c-3.76.85217-7.29195,2.50541-10.35484,4.84693-2.05761,2.372-3.54031,5.18668-4.33284,8.2251-.92571,3.02445-.46885,6.30332,1.24844,8.95947,2.32604,2.18928,5.48787,3.26109,8.66573,2.93753,6.21457.21186,12.29064-1.86575,17.0744-5.83835,4.89296-4.26564,8.19402-10.06511,9.3634-16.45019l1.90941-9.47355ZM880.24137,288.68007c-1.93631-2.27845-4.83783-3.50444-7.8212-3.30473h-12.88841l-28.01675,128.2601h25.04251l25.51982-116.10605c.84632-3.0734.16316-6.36626-1.83596-8.84932ZM937.1561,382.86477h17.91898c-4.28493,9.65768-11.25724,17.87911-20.0854,23.68387-8.85001,5.79393-19.23986,8.78807-29.81596,8.59229-13.62284,0-23.16979-4.5899-28.78782-13.80641s-6.71962-21.73775-3.0477-38.33482c2.53274-14.06043,9.23683-27.0337,19.24081-37.23326,9.32273-9.0404,21.86224-13.99542,34.84652-13.76969,14.35721,0,24.45499,4.47974,30.36678,13.43922s6.64616,22.03151,3.0477,38.40826c-.22031.99142-.40391,1.94612-.62422,2.60706-.12769.48317-.22574.97367-.29376,1.46877-.17268.91037-.48219,1.78935-.91798,2.60706h-61.90854c-1.43205,7.78447-.95468,13.43923,1.61565,17.18457,2.70889,4.32092,7.68332,6.67194,12.74156,6.02194,8.95949-.25703,12.4478-3.268,13.07202-3.89224,1.82453-1.79892,3.7624-3.47921,5.80164-5.03052,2.02035-1.33984,4.40663-2.01979,6.82977-1.94611h-.00006ZM900.62052,353.78317h36.53557c1.24166-5.02695.62887-10.33305-1.72581-14.94471-2.90651-3.66358-7.4587-5.62242-12.11734-5.21412-5.14335-.02717-10.11907,1.8273-13.99,5.21412-4.35004,3.95986-7.34333,9.18849-8.55558,14.94471h-.14685ZM1027.85246,314.1999c-6.52615.03111-13.01986.91999-19.31427,2.64378-13.55252,3.4559-25.20774,12.09186-32.45974,24.05106-4.56054,7.52327-7.76691,15.78777-9.47356,24.41825l-10.53839,48.10213h25.15266l11.2727-50.9295c1.44292-6.10492,4.39755-11.74909,8.59227-16.41347,8.59227-10.31809,24.78545-9.43683,24.78545-9.43683l5.80164-22.28854h-3.67192l-.14685-.14688ZM1034.68223,294.95905l.66092-3.12113h13.47593l-.62422,3.12113h-4.84696l-2.75394,13.65954h-3.67192l2.79064-13.65954h-5.03045ZM1056.86059,291.76448l1.24844,12.19077,6.20555-12.19077h5.03051l-3.34146,16.8541h-3.34146l2.93755-13.4025-6.82977,13.4025h-2.68048l-1.5789-13.4025-2.53363,13.4025h-3.34146l3.41486-16.8541h4.81026Z"/></g></svg>