<?xml version="1.0" encoding="UTF-8"?>
<svg id="PASTE_LOGO_HERE" data-name="PASTE LOGO HERE" xmlns="http://www.w3.org/2000/svg" viewBox="0 0 1250 703">
  <defs>
    <style>
      .cls-1 {
        fill: #242b64;
      }
    </style>
  </defs>
  <path class="cls-1" d="M361.15,200.39q26.14-.02,52.81-.04c5.5,0,10.99-.01,16.65-.02q6.73,0,9.88,0c2.34,0,4.68,0,7.02,0,2.39,0,4.79,0,7.18,0,1.3,0,2.59,0,3.89,0,12.8-.03,25.89.77,37.57,6.57.16.08.33.16.49.24,4.42,2.18,8.38,4.94,11.93,8.36q.18.17.36.35c1.76,1.69,3.35,3.42,4.8,5.39.16.21.32.42.48.63,7.24,9.7,9.94,21.89,9.92,33.81q0,.32,0,.65c0,3.21-.11,6.32-.84,9.46-.04.19-.09.37-.13.57-1.14,4.8-3.04,9.3-5.8,13.39-.08.12-.15.23-.23.35-2.63,3.89-5.89,7.42-9.71,10.17-.11.08-.22.16-.33.24-1.49,1.07-3.05,1.98-4.66,2.83-.17.09-.34.18-.52.28-.16.08-.33.17-.5.26-.14.07-.29.15-.44.23-.46.2-.89.29-1.39.38v.38q.18.02.37.05c.82.2,1.56.54,2.33.9.17.08.34.15.51.23,5.09,2.35,9.74,5.27,13.8,9.15q.22.21.45.42c1.27,1.21,2.33,2.57,3.37,3.98.14.19.29.38.44.58,9.26,12.92,11.07,30.33,8.69,45.69-2.04,12.36-7.7,24.74-17.54,32.88-.19.17-.37.33-.57.5-33.63,29.74-133.08,16.32-150.29,16.32v-205.16ZM402.83,236.14v44.17q10.15.02,20.3.03c1.37,0,2.74,0,4.12,0,.17,0,.34,0,.52,0,2.77,0,5.53,0,8.3.01,2.85,0,5.69,0,8.54,0,1.75,0,3.5,0,5.26,0,1.21,0,2.41,0,3.62,0,.69,0,1.39,0,2.08,0,7.68.03,15.76-.81,21.52-6.43,4.54-4.64,5.58-10.74,5.53-17.01-.04-1.8-.27-3.55-.62-5.31q-.04-.2-.08-.4c-.87-4.21-3.23-8.16-6.8-10.62-5.3-3.47-12.05-4.51-18.27-4.49-.23,0-.46,0-.7,0-.64,0-1.28,0-1.92,0-.69,0-1.38,0-2.07,0-1.19,0-2.39,0-3.58,0-1.73,0-3.45,0-5.18,0-2.8,0-5.61,0-8.41,0-2.72,0-5.44,0-8.16,0-.17,0-.34,0-.51,0-1.33,0-2.65,0-3.98,0-6.5,0-12.99,0-19.49,0ZM402.83,315.49v55.06q9.97.02,19.94.03c1.35,0,2.7,0,4.05,0,.17,0,.34,0,.51,0,2.72,0,5.44,0,8.15.01,2.8,0,5.59,0,8.39,0,1.72,0,3.44,0,5.16,0,1.18,0,2.37,0,3.55,0,.68,0,1.36,0,2.04,0,9.34.04,18.47-1.54,25.41-8.25,1.92-1.91,3.48-3.99,4.81-6.35q.1-.19.21-.37c3.88-6.99,4.37-15.89,2.27-23.52-.87-2.89-2.22-5.56-4.21-7.84-.1-.13-.2-.26-.31-.39-4.46-5.52-12.63-7.55-19.33-8.27-1.43-.13-2.85-.16-4.28-.16-.24,0-.48,0-.73,0-.67,0-1.33,0-2,0-.72,0-1.44,0-2.16,0-1.25,0-2.49,0-3.74,0-1.8,0-3.61,0-5.41,0-2.93,0-5.85,0-8.78,0-2.84,0-5.68,0-8.52,0q-.27,0-.54,0c-1.39,0-2.77,0-4.16,0-6.78,0-13.56,0-20.34,0Z"/>
  <path class="cls-1" d="M548.33,200.39q117.6,0,147.77,26.53c.15.15.3.3.46.46.91.92,1.78,1.86,2.62,2.84.16.18.32.37.49.56,1.59,1.84,3.04,3.79,4.48,5.75.1.14.21.28.31.43,1.57,2.13,2.95,4.36,4.27,6.65q.11.2.23.4c.51.88,1,1.77,1.49,2.66q.13.23.25.46c2.69,4.93,4.87,10.08,6.63,15.41.07.22.15.45.23.68,3.11,9.48,4.79,19.38,5.32,29.34q.02.29.03.59c.75,14.02-.41,28.19-3.67,41.85q-.05.19-.09.38c-3.78,15.75-11,31.35-22.16,43.24-.39.42-.77.84-1.14,1.28-.71.81-1.46,1.58-2.22,2.34-.13.13-.25.26-.39.39-.86.86-1.76,1.67-2.69,2.47-.21.18-.41.36-.62.55-3.83,3.35-7.99,6.25-12.38,8.82-.13.08-.26.15-.4.23-8.44,4.94-17.68,8.11-27.29,9.76-.13.02-.26.05-.39.07-33.22,5.79-67.45,1.03-101.17,1.03v-205.16ZM590.2,236.14v134.41q23.38.83,46.57-.72c.21-.03.42-.06.64-.1,7.87-1.26,15.62-4,21.81-9.13.11-.09.22-.18.34-.28,2.14-1.78,4.07-3.64,5.78-5.84.08-.1.16-.21.24-.31,8.05-10.39,11.16-23.62,12.61-36.45.03-.25.06-.5.09-.76.55-5.05.69-10.1.68-15.17,0-.79,0-1.58,0-2.36.01-5.18-.17-10.33-.77-15.48-.02-.14-.03-.28-.05-.42-1.55-13.55-5.55-27.65-16.44-36.7-1.7-1.34-3.47-2.56-5.35-3.63-.13-.07-.25-.15-.38-.22-18.82-10.73-47.35-6.85-65.77-6.85Z"/>
  <path class="cls-1" d="M727.67,253.54c6.15-.13,12.29-.23,18.44-.29.73,0,1.45-.01,2.18-.02.14,0,.29,0,.44,0,2.34-.02,4.67-.07,7.01-.12,2.4-.05,4.8-.09,7.21-.1,1.35,0,2.7-.02,4.04-.07q8.44-.26,10.25,1.17c1.32,1.25,2.08,2.83,2.73,4.5.38.92.89,1.68,1.47,2.48.17.25.34.51.5.76q.12.18.24.37c.08.13.16.25.25.38.18.28.37.56.55.84.37.57.74,1.14,1.12,1.7.52.8,1.05,1.6,1.57,2.4.75,1.14,1.49,2.28,2.24,3.42.58.89,1.16,1.77,1.75,2.66.08.13.17.25.25.38l.75,1.15q1.84,2.81,2.75,4.19c1.82,2.78,3.65,5.56,5.47,8.33,1.91,2.9,3.81,5.81,5.72,8.71.5.76,1,1.52,1.5,2.28.08.13.17.25.25.38l.75,1.15q1.84,2.81,2.75,4.19c1.82,2.78,3.65,5.56,5.47,8.33,1.41,2.15,2.82,4.29,4.23,6.44.08.13.16.25.25.38.66,1.01,1.32,2.01,1.98,3.02.58.88,1.16,1.76,1.74,2.65q.12.19.25.38c1.33,2.02,2.65,4.04,3.98,6.06,1.91,2.9,3.81,5.81,5.72,8.71.5.76,1,1.52,1.5,2.28.08.13.17.25.25.38l.75,1.15q1.84,2.81,2.75,4.19c1.82,2.78,3.65,5.56,5.47,8.33,1.91,2.9,3.81,5.81,5.72,8.71.5.76,1,1.52,1.5,2.28.08.13.17.25.25.38l.75,1.15q1.84,2.81,2.75,4.19c1.82,2.78,3.65,5.56,5.47,8.33,1.41,2.15,2.82,4.29,4.23,6.44.08.13.16.25.25.38.66,1.01,1.32,2.01,1.98,3.02,1.96,2.98,3.92,5.97,5.88,8.95.19.3.39.59.58.89.27.41.54.82.81,1.24.08.12.16.24.24.37.08.11.15.23.23.35.07.11.14.22.22.33.14.22.29.43.44.64q.54.78.54,1.2c-6.23.12-12.46.21-18.7.26-.74,0-1.47.01-2.21.02q-.22,0-.44,0c-2.37.02-4.74.06-7.11.11-2.44.05-4.87.08-7.31.09-1.37,0-2.73.02-4.1.06q-8.57.23-10.21-1.05c-1.15-1.12-1.7-2.53-2.13-4.06-.24-.8-.6-1.41-1.05-2.11-.23-.4-.45-.8-.68-1.2-1.27-2.23-2.56-4.45-3.85-6.67-1.61-2.75-3.21-5.5-4.8-8.26-1.24-2.15-2.49-4.3-3.75-6.45-1.38-2.35-2.75-4.71-4.11-7.07-.96-1.67-1.92-3.33-2.89-5-.11-.19-.22-.37-.33-.57-.54-.93-1.09-1.85-1.68-2.74q-.17-.3-.17-.68h-.38c-.04.15-.09.31-.13.46-.32.87-.76,1.63-1.23,2.43-.21.36-.42.72-.62,1.08-.11.19-.22.38-.34.58-.62,1.08-1.24,2.16-1.86,3.24-.06.11-.13.23-.2.34-1.04,1.81-2.06,3.63-3.08,5.45-1.07,1.92-2.16,3.82-3.25,5.72-.5.88-1,1.75-1.51,2.63-.06.11-.13.23-.2.34-1.04,1.81-2.06,3.63-3.08,5.45-1.07,1.92-2.16,3.82-3.25,5.72-.44.76-.87,1.52-1.31,2.29-.13.23-.26.46-.39.68-.71,1.24-1.41,2.48-2.11,3.73-.12.21-.24.43-.36.65-.22.4-.45.8-.67,1.21-.1.18-.2.37-.31.55-.09.16-.17.31-.26.48-.11.18-.22.36-.33.55-.07.14-.14.28-.21.42q-.67,1.2-1.36,1.46c-.52.06-1.02.06-1.55.05-.2,0-.4,0-.6,0-.67,0-1.33,0-1.99-.02-.48,0-.95,0-1.43,0-1.03,0-2.05,0-3.08-.01-1.48-.01-2.97-.02-4.45-.02-2.41,0-4.82-.02-7.22-.03-2.34-.02-4.68-.03-7.02-.04-.14,0-.29,0-.44,0-.72,0-1.45,0-2.17,0-6-.02-12-.05-18-.09.18-.34.36-.67.55-1.01.1-.19.2-.37.31-.57.36-.65.75-1.27,1.17-1.88.08-.12.16-.24.24-.36.17-.25.34-.51.51-.76.47-.7.94-1.39,1.4-2.09.1-.14.19-.29.29-.44,1.02-1.53,2.03-3.06,3.04-4.6.18-.28.37-.56.55-.84.28-.42.56-.85.83-1.27.98-1.49,1.96-2.98,2.94-4.47,1.64-2.49,3.28-4.98,4.91-7.47.09-.14.18-.27.27-.42.63-.96,1.27-1.93,1.9-2.89.72-1.1,1.45-2.21,2.17-3.31.09-.14.18-.27.27-.42,1.55-2.35,3.09-4.71,4.64-7.06,1.44-2.18,2.87-4.37,4.31-6.56.09-.14.18-.27.27-.42.63-.96,1.27-1.93,1.9-2.89.72-1.1,1.45-2.21,2.17-3.31q.14-.21.27-.42c1.55-2.35,3.09-4.71,4.64-7.06,1.07-1.63,2.14-3.26,3.21-4.88q.14-.21.28-.42c.45-.69.9-1.38,1.36-2.07.85-1.3,1.71-2.6,2.57-3.9.41-.62.82-1.25,1.23-1.87.2-.3.39-.6.59-.89.27-.41.54-.82.82-1.24.08-.12.16-.24.25-.37.32-.49.58-.92.77-1.49-.24-.47-.5-.89-.78-1.33q-.13-.2-.26-.41c-1-1.54-2.03-3.07-3.06-4.59-2.35-3.46-4.67-6.95-6.97-10.44-.22-.33-.43-.66-.65-.98-.11-.16-.21-.32-.32-.49-.76-1.16-1.53-2.31-2.3-3.46-.88-1.31-1.75-2.63-2.62-3.95-.11-.16-.21-.32-.32-.49-.22-.33-.44-.66-.65-1-2.03-3.09-4.08-6.17-6.16-9.24-1.58-2.33-3.15-4.66-4.68-7.01q-.12-.18-.24-.36c-.32-.5-.65-.99-.97-1.49-1.15-1.77-2.31-3.53-3.47-5.3-.12-.18-.23-.35-.35-.54-1.88-2.86-3.79-5.7-5.71-8.53-2.12-3.13-4.2-6.28-6.27-9.45-.39-.6-.78-1.19-1.17-1.78-.34-.52-.68-1.04-1.02-1.55-.12-.18-.24-.37-.36-.55-.11-.16-.21-.33-.32-.49-.09-.14-.18-.28-.28-.43q-.19-.32-.19-.51Z"/>
  <path class="cls-1" d="M840.48,245.9h44.93c-.69.69-1.15,1.12-1.94,1.61-2.84,1.85-5.52,3.96-8.2,6.03-.14.11-.28.22-.43.33-1.68,1.29-3.34,2.6-4.97,3.94-.8.65-1.61,1.3-2.43,1.93-1.13.88-2.24,1.79-3.35,2.71-1.29,1.07-2.61,2.09-3.93,3.13,9.84.06,19.69.13,29.83.19-.56.56-.95.91-1.6,1.31-.17.11-.34.21-.52.32-.19.12-.38.24-.58.36-2.28,1.44-4.51,2.93-6.74,4.45-3.29,2.23-6.59,4.42-9.91,6.6-1.58,1.04-3.16,2.09-4.72,3.16-1.59,1.1-3.19,2.18-4.8,3.26-.54.37-1.09.73-1.63,1.1-1.75,1.18-3.51,2.36-5.27,3.53-.19.13-.38.25-.57.38,4.98.03,9.94-.05,14.92-.18.91-.02,1.82-.05,2.73-.07,1.77-.04,3.53-.09,5.3-.14v.38c-.16.08-.33.16-.49.24-2.8,1.39-5.6,2.77-8.34,4.29-1.22.67-2.45,1.32-3.68,1.96-1.68.87-3.33,1.78-4.97,2.72-1.23.7-2.48,1.39-3.73,2.06-1.68.91-3.33,1.86-4.98,2.83-1.3.76-2.6,1.51-3.91,2.24-2.17,1.22-4.3,2.5-6.43,3.79-.52.31-1.03.62-1.55.93-2.5,1.49-4.96,3.02-7.42,4.57-.18.11-.36.22-.54.34-.5.31-1,.63-1.49.94-.15.09-.29.18-.44.28-.78.49-1.54.99-2.31,1.5-.63-.26-.92-.53-1.29-1.1-.1-.15-.2-.3-.3-.45-.1-.16-.21-.32-.32-.49-.11-.17-.22-.34-.34-.51-.36-.55-.72-1.11-1.08-1.67-.25-.38-.5-.77-.75-1.15-.38-.58-.76-1.16-1.14-1.74-1.21-1.86-2.44-3.7-3.68-5.54-.98-1.46-1.93-2.93-2.85-4.42-.75-1.2-1.56-2.35-2.39-3.49q-.16-.22-.32-.45t-.28-.39c-.24-.53-.16-.8.02-1.35q.23-.46.52-.94.16-.27.33-.55.17-.29.35-.59c.25-.42.49-.83.74-1.25q.19-.32.38-.64c.55-.93,1.08-1.88,1.61-2.82.84-1.5,1.7-2.99,2.57-4.47.91-1.56,1.81-3.13,2.69-4.71.97-1.75,1.97-3.49,2.99-5.22.85-1.46,1.7-2.92,2.54-4.39.06-.11.13-.22.19-.34.45-.8.91-1.59,1.36-2.39.52-.91,1.04-1.82,1.55-2.72.06-.11.13-.22.19-.34.88-1.55,1.78-3.09,2.68-4.62,1.02-1.74,2.01-3.49,2.99-5.25.89-1.6,1.81-3.18,2.73-4.76.84-1.43,1.66-2.86,2.48-4.3ZM843.74,267.32c-.23.38-.43.77-.61,1.17-.2.44-.48.8-.79,1.17-.16.22-.33.44-.49.67-1.16,1.56-2.35,3.09-3.54,4.62-1.27,1.63-2.52,3.28-3.78,4.92-.94,1.23-1.89,2.46-2.83,3.69-.32.41-.64.83-.96,1.24-.16.21-.32.41-.48.62-.08.1-.16.21-.24.31q-.72.93-.96,1.24c-.16.21-.32.42-.48.62-.39.51-.78,1.02-1.17,1.52-.9,1.17-1.8,2.34-2.7,3.52-1.05,1.37-2.1,2.74-3.15,4.11-.16.21-.32.41-.48.62-.08.1-.16.21-.24.31-.16.21-.32.41-.47.62-.42.55-.84,1.09-1.27,1.62q-.13.17-.27.34c-.17.22-.34.43-.52.65q-.49.61-.58,1.38c.14-.13.28-.26.43-.4.95-.88,1.91-1.75,2.92-2.56.76-.61,1.48-1.25,2.2-1.91.88-.82,1.78-1.58,2.72-2.33.68-.56,1.32-1.16,1.97-1.76.61-.57,1.24-1.11,1.9-1.63.8-.64,1.56-1.32,2.31-2.02.91-.85,1.85-1.65,2.82-2.43.58-.48,1.13-.98,1.67-1.49.88-.82,1.78-1.58,2.72-2.33.68-.56,1.32-1.16,1.97-1.76.61-.57,1.24-1.11,1.9-1.63.8-.64,1.56-1.32,2.31-2.02.91-.85,1.85-1.65,2.82-2.43.58-.48,1.13-.98,1.67-1.49.88-.82,1.78-1.58,2.72-2.33.58-.48,1.13-.98,1.68-1.49.89-.83,1.81-1.61,2.76-2.38q1.03-.84,2.02-1.74v-.19c-1.78-.07-3.56-.12-5.34-.15-.83-.01-1.65-.04-2.48-.07q-4.26-.42-7.66,1.57ZM839.91,293.31c-.21.25-.43.5-.65.74-.1.12-.2.23-.3.35-.71.78-1.47,1.51-2.22,2.26-.71.7-1.38,1.42-2.03,2.18-.61.69-1.28,1.32-1.93,1.97-.66.66-1.29,1.33-1.89,2.04-.58.64-1.2,1.24-1.81,1.85-.63.63-1.22,1.27-1.8,1.95-.63.7-1.31,1.35-1.98,2-.65.64-1.17,1.27-1.65,2.05.87-.29,1.54-.78,2.26-1.33,1-.75,2.01-1.47,3.04-2.17,1.16-.79,2.31-1.59,3.45-2.39.16-.11.32-.23.49-.34.33-.23.66-.46.98-.69.8-.56,1.6-1.12,2.4-1.68.32-.22.64-.45.95-.67.64-.45,1.29-.9,1.93-1.35,1.49-1.04,2.99-2.09,4.47-3.14,1.18-.83,2.36-1.67,3.55-2.5.16-.11.32-.22.48-.34.78-.54,1.56-1.08,2.34-1.62.14-.1.29-.2.43-.3.27-.18.54-.37.81-.55.3-.2.6-.42.89-.63v-.19c-1.34-.06-2.69-.11-4.03-.14-.46-.01-.91-.03-1.37-.05-3.16-.15-4.96,0-6.84,2.67Z"/>
  <path class="cls-1" d="M662.67,453.92h8.99c.76,1.01,1.51,2.02,2.29,3.06.5.66,1,1.32,1.51,1.97.99,1.29,1.96,2.59,2.92,3.9.87,1.18,1.75,2.35,2.65,3.5,1.02,1.3,2.01,2.62,2.98,3.95,1.11,1.52,2.26,3.02,3.4,4.51.65.85,1.3,1.71,1.94,2.58.51.68,1.03,1.35,1.54,2.03,1.91,2.5,3.79,5.02,5.62,7.58q.09-16.37.19-33.08h8.8v47.8h-8.99q-2.6-3.25-3.58-4.61c-.96-1.32-1.95-2.63-2.94-3.93-.98-1.28-1.96-2.57-2.93-3.87-.79-1.05-1.58-2.09-2.38-3.14-.99-1.29-1.97-2.59-2.93-3.91-1.13-1.54-2.29-3.07-3.45-4.58-1.96-2.56-3.91-5.12-5.81-7.73-.28-.38-.56-.75-.84-1.12-.06,10.85-.13,21.7-.19,32.89h-8.8v-47.8Z"/>
  <path class="cls-1" d="M804.53,453.73q28.97,0,34.57,5.21c2.96,3.12,4.32,7.2,4.28,11.45-.24,4.29-2.03,8.16-5.2,11.06-1.79,1.51-3.94,2.6-6.12,3.44,1.35,1.98,2.72,3.94,4.11,5.9.48.68.96,1.36,1.44,2.03.19.27.38.54.57.81.38.54.76,1.08,1.15,1.63.09.13.19.27.29.41.19.27.38.54.57.81.5.71,1,1.42,1.51,2.12.1.15.21.29.32.45.2.28.4.56.6.85.09.13.18.25.27.39.08.11.16.22.24.34.23.35.41.72.6,1.1-1.42.04-2.84.07-4.26.09-.48,0-.96.02-1.45.04-.69.02-1.39.03-2.08.04q-.32.01-.65.03-1.47,0-2.11-.55c-.35-.44-.64-.88-.92-1.36q-.19-.27-.39-.54t-.32-.46c-.12-.17-.24-.35-.36-.52-.12-.18-.25-.36-.38-.55-.27-.39-.54-.78-.81-1.17-.13-.19-.27-.39-.41-.59-.59-.85-1.19-1.7-1.78-2.55-.11-.16-.22-.31-.33-.47-.72-1.02-1.43-2.04-2.15-3.06-.08-.12-.17-.24-.25-.36-.17-.25-.35-.49-.54-.73q-.31-.46-.64-1.15c-.49-.95-.98-1.81-2.05-2.14-1.38-.22-2.75-.16-4.14-.12-1.44.02-2.89.05-4.37.07v16.06h-8.8v-47.99ZM813.33,461.95v15.68c1.83,0,3.67.02,5.56.02q.86,0,1.74.01c.46,0,.93,0,1.39,0,.23,0,.47,0,.71,0,3.58,0,6.95-.46,9.68-2.96,1.35-1.44,1.87-3.17,1.96-5.11-.1-1.8-.81-3.68-2.1-4.97-2.95-2.45-6.41-2.74-10.1-2.71-.23,0-.45,0-.69,0-.83,0-1.66,0-2.49.01-1.87,0-3.73.02-5.65.02Z"/>
  <path class="cls-1" d="M360,453.73q29.32,0,36.71,7.07c.19.15.39.3.59.45,4.3,3.84,6.29,9.68,6.71,15.28.32,5.85-1.47,11.93-5.4,16.33-.43.47-.88.93-1.32,1.4-.13.14-.26.28-.39.42-1.07,1.14-2.32,1.99-3.63,2.83-.2.13-.41.26-.61.4-9.66,5.86-22.18,3.81-32.65,3.81v-47.99ZM368.8,461.95v31.74q12.11.47,21.99-4.97c2.88-3.09,4.34-7.27,4.19-11.49-.23-4.4-1.9-8.24-5.15-11.27-6.23-5.06-13-4.02-21.03-4.02Z"/>
  <path class="cls-1" d="M760.18,453.92h36.14v8.03h-27.34v11.28h24.66v8.03h-24.66v12.43h27.34v8.03h-36.14v-47.8Z"/>
  <path class="cls-1" d="M617.73,453.92h36.14v8.03h-27.34v11.28h24.66v8.03h-24.66v12.43h27.34v8.03h-36.14v-47.8Z"/>
  <path class="cls-1" d="M514.12,453.9c.18,0,.35,0,.53,0,.2,0,.4,0,.6,0,.22,0,.43,0,.66,0q.33,0,.67,0c.71,0,1.41,0,2.12,0,.48,0,.96,0,1.43,0,1.17,0,2.35,0,3.52,0,.75,1.6,1.46,3.21,2.13,4.84.2.49.4.98.6,1.47q.08.2.17.4c.79,1.92,1.59,3.83,2.39,5.74.08.2.16.39.25.59,1.58,3.79,3.17,7.58,4.75,11.37.43,1.02.86,2.04,1.28,3.06.07.17.14.34.22.51.29.69.57,1.37.86,2.06.8,1.92,1.6,3.83,2.41,5.75.78,1.87,1.57,3.74,2.35,5.61.19.45.38.9.57,1.35.28.67.56,1.34.84,2.01.15.35.29.71.44,1.06q.13.31.26.63t.22.54q.16.42.16.8h-9.75c-.58-1.15-1.14-2.28-1.63-3.47-.06-.14-.12-.27-.18-.41-.12-.28-.24-.57-.36-.85-.18-.44-.37-.87-.56-1.31-.12-.28-.24-.56-.35-.83-.06-.13-.11-.26-.17-.39q-.38-.91-.38-1.34h-22.94c-.19.57-.38,1.14-.57,1.72-.22.56-.45,1.12-.68,1.67-.06.13-.11.27-.17.4-.21.49-.41.98-.62,1.47-.46,1.1-.92,2.2-1.4,3.33h-9.94c.18-.89.45-1.65.8-2.48.06-.15.12-.3.19-.45.21-.5.42-.99.62-1.49.15-.35.29-.7.44-1.06.39-.92.77-1.85,1.16-2.77.29-.7.59-1.4.88-2.1.71-1.71,1.43-3.41,2.14-5.12.72-1.72,1.44-3.43,2.16-5.15.36-.86.72-1.71,1.08-2.57.14-.34.29-.69.43-1.03q.86-2.06,1.08-2.57c.14-.34.29-.69.43-1.03.36-.85.72-1.71,1.07-2.56.8-1.92,1.61-3.84,2.41-5.76.36-.87.73-1.74,1.09-2.61.14-.33.28-.67.42-1.01.07-.16.14-.33.21-.49.39-.94.79-1.88,1.18-2.83.23-.56.47-1.13.7-1.69.11-.26.22-.52.32-.78.15-.35.29-.7.44-1.05.08-.19.16-.39.25-.59q.28-.62.79-.65ZM518.69,465.96c-1,1.9-1.82,3.86-2.63,5.84-.29.69-.57,1.39-.86,2.08-.07.18-.15.36-.22.54-.55,1.32-1.1,2.65-1.65,3.97-.08.19-.16.37-.24.57-.31.73-.62,1.47-.92,2.2-.21.51-.43,1.01-.64,1.52-.06.15-.13.3-.19.45-.06.14-.12.28-.18.42q-.08.18-.15.36c-.2.51-.36,1.03-.54,1.54h16.44q-.93-2.5-1.94-4.96c-.07-.17-.14-.33-.21-.5-.15-.35-.3-.7-.45-1.05-.4-.94-.8-1.88-1.19-2.81q-.12-.29-.25-.58c-.87-2.06-1.73-4.13-2.59-6.21q-.11-.26-.22-.52c-.39-.95-.79-1.91-1.18-2.86h-.19Z"/>
  <path class="cls-1" d="M425.98,453.9c.18,0,.35,0,.53,0,.2,0,.4,0,.6,0,.22,0,.43,0,.66,0q.33,0,.67,0c.71,0,1.41,0,2.12,0,.48,0,.96,0,1.43,0,1.17,0,2.35,0,3.52,0,.75,1.6,1.46,3.21,2.13,4.84.2.49.4.98.6,1.47q.08.2.17.4c.79,1.92,1.59,3.83,2.39,5.74.08.2.16.39.25.59,1.58,3.79,3.17,7.58,4.75,11.37.43,1.02.86,2.04,1.28,3.06.07.17.14.34.22.51.29.69.57,1.37.86,2.06.8,1.92,1.6,3.83,2.41,5.75.78,1.87,1.57,3.74,2.35,5.61.19.45.38.9.57,1.35.28.67.56,1.34.84,2.01.15.35.29.71.44,1.06q.13.31.26.63t.22.54q.16.42.16.8h-9.75c-.58-1.15-1.14-2.28-1.63-3.47-.06-.14-.12-.27-.18-.41-.12-.28-.24-.57-.36-.85-.18-.44-.37-.87-.56-1.31-.12-.28-.24-.56-.35-.83-.06-.13-.11-.26-.17-.39q-.38-.91-.38-1.34h-22.94c-.19.57-.38,1.14-.57,1.72-.22.56-.45,1.12-.68,1.67-.06.13-.11.27-.17.4-.21.49-.41.98-.62,1.47-.46,1.1-.92,2.2-1.4,3.33h-9.94c.18-.89.45-1.65.8-2.48.06-.15.12-.3.19-.45.21-.5.42-.99.62-1.49.15-.35.29-.7.44-1.06.39-.92.77-1.85,1.16-2.77.29-.7.59-1.4.88-2.1.71-1.71,1.43-3.41,2.14-5.12.72-1.72,1.44-3.43,2.16-5.15.36-.86.72-1.71,1.08-2.57.14-.34.29-.69.43-1.03q.86-2.06,1.08-2.57c.14-.34.29-.69.43-1.03.36-.85.72-1.71,1.07-2.56.8-1.92,1.61-3.84,2.41-5.76.36-.87.73-1.74,1.09-2.61.14-.33.28-.67.42-1.01.07-.16.14-.33.21-.49.39-.94.79-1.88,1.18-2.83.23-.56.47-1.13.7-1.69.11-.26.22-.52.32-.78.15-.35.29-.7.44-1.05.08-.19.16-.39.25-.59q.28-.62.79-.65ZM430.55,465.96c-1,1.9-1.82,3.86-2.63,5.84-.29.69-.57,1.39-.86,2.08-.07.18-.15.36-.22.54-.55,1.32-1.1,2.65-1.65,3.97-.08.19-.16.37-.24.57-.31.73-.62,1.47-.92,2.2-.21.51-.43,1.01-.64,1.52-.06.15-.13.3-.19.45-.06.14-.12.28-.18.42q-.08.18-.15.36c-.2.51-.36,1.03-.54,1.54h16.44q-.93-2.5-1.94-4.96c-.07-.17-.14-.33-.21-.5-.15-.35-.3-.7-.45-1.05-.4-.94-.8-1.88-1.19-2.81q-.12-.29-.25-.58c-.87-2.06-1.73-4.13-2.59-6.21q-.11-.26-.22-.52c-.39-.95-.79-1.91-1.18-2.86h-.19Z"/>
  <path class="cls-1" d="M865.84,452.92c.14,0,.28,0,.42,0,.29,0,.59,0,.88,0,.44,0,.88,0,1.32-.01,6.06-.04,11.88,2.18,16.57,5.98.4.42.51.59.57,1.16q-.17.34-.45.68c-.1.13-.2.26-.31.39-.11.14-.22.27-.34.42-.23.29-.46.58-.69.87-.12.15-.23.29-.35.44-.53.68-1.04,1.38-1.55,2.08-.09.12-.18.25-.27.38-.21.28-.41.57-.62.85-.6-.26-1.1-.62-1.62-1.01-3.92-2.93-8.81-5.05-13.8-4.42-2.19.41-3.95,1.24-5.43,2.94-.81,1.27-1.1,2.64-.84,4.12.34,1.3.96,2.07,2.09,2.78,1.79.98,3.65,1.64,5.63,2.15q.32.08.64.17c1.14.3,2.28.58,3.42.86,4.31,1.04,8.79,2.18,12.19,5.21q.18.16.36.32c2.09,1.98,3.21,4.69,3.31,7.57.07,4.18-.96,7.91-3.91,10.99-3.22,3.08-7.83,4.65-12.25,4.68q-.22,0-.45,0-6.29.04-8.85-.62c-.15-.04-.31-.08-.47-.12-4.9-1.28-8.86-3.53-12.73-6.76.11-.6.29-.95.68-1.41q.15-.18.31-.37c.11-.13.22-.26.33-.39.23-.27.45-.54.68-.82.11-.14.23-.28.35-.42.53-.64,1.04-1.29,1.55-1.94.09-.12.18-.23.27-.35.21-.27.41-.53.62-.8.83.1,1.36.63,1.97,1.15,4.47,3.61,10.12,5.62,15.91,5.07,2.26-.35,4.54-1.15,5.99-3.01.84-1.27,1.14-2.61.86-4.09-.39-1.5-1.31-2.4-2.59-3.21-2.67-1.48-5.81-2.06-8.74-2.78q-11.2-2.73-14.54-7.28c-1.31-2.17-1.83-4.3-1.82-6.81,0-.22,0-.43,0-.66.08-3.77,1.51-6.83,4.21-9.47,3.06-2.88,7.3-4.48,11.49-4.51Z"/>
  <path class="cls-1" d="M593.08,453.08q.21,0,.42,0c2.23,0,4.31.18,6.45.84.14.04.27.08.41.12,3.98,1.2,8.06,3.45,10.87,6.57q0,.57-.28.87t-.39.32c-.56.47-1.1.94-1.63,1.43q-.19.18-.38.36-.19.18-.38.36c-1,.95-2.02,1.87-3.06,2.77-.84-.39-1.37-.97-2.01-1.64-2.83-2.73-6.87-3.81-10.7-3.76-2.14.07-4.11.64-6.03,1.57-.18.08-.35.17-.54.26-3.96,2.02-6.58,5.56-8.07,9.69-1.3,4.28-.84,8.78,1.18,12.75,2.29,4.01,5.77,6.97,10.26,8.25,3.69.95,7.57.49,10.92-1.3.18-.09.36-.18.55-.28,1.64-.88,2.91-2.06,4.23-3.35.67.28,1.08.66,1.58,1.18.65.66,1.3,1.28,2.01,1.88.57.49,1.12,1,1.68,1.51.1.1.21.19.31.29.25.23.49.45.74.68-1.4,3.16-6.11,5.4-9.19,6.59-.69.25-1.38.47-2.09.67q-.21.06-.42.12c-6.23,1.74-13.14.7-18.76-2.37-5.67-3.22-10.1-8.51-11.99-14.77-.48-1.75-.89-3.54-.96-5.35,0-.22-.02-.43-.03-.65-.14-5.72,1.58-11.31,5.19-15.79.08-.1.17-.21.25-.31,4.89-6.1,12.02-9.53,19.84-9.51Z"/>
  <path class="cls-1" d="M713.14,453.92h39.58v8.03h-15.3v39.77h-8.8v-39.77h-15.49v-8.03Z"/>
  <path class="cls-1" d="M454.64,453.92h39.58v8.03h-15.3v39.77h-8.8v-39.77h-15.49v-8.03Z"/>
</svg>