<?xml version="1.0" encoding="UTF-8"?><svg id="Layer_1" xmlns="http://www.w3.org/2000/svg" viewBox="0 0 1250 703"><defs><style>.cls-1{fill-rule:evenodd;}.cls-1,.cls-2{fill:#0062ac;stroke-width:0px;}</style></defs><g id="leadtek-logo"><path class="cls-1" d="M320.58881,294.23447h-7.31976l7.31976,10.54684v-10.54684ZM320.58881,249.55213h-17.06839v68.17139c0,6.87033,4.58163,14.20374,12.14078,14.20374h4.92761v17.87296h-13.75906c-12.09692.10483-21.9884-9.61667-22.09323-21.71359-.00116-.13217-.0011-.26437.00015-.39658v-96.68855h35.85214v18.55067-.00003ZM320.58881,304.78131v-10.54684h3.43106c1.30911-.00687,2.61603.10788,3.9039.34283v20.85458l-7.33499-10.65054.00003-.00003ZM335.26028,336.96149h0l-3.66446-5.03418h-3.672v17.87296h7.33649v-12.83878h-.00003ZM335.26028,297.78449c-2.06107-1.79242-4.62109-2.91153-7.33649-3.20715v20.85458l7.33649,10.52853v-28.17596ZM335.26028,231.0015h-7.33649v18.55067h7.33649v-18.55069.00002ZM320.58881,331.92725v17.87296h7.33499v-17.87296h-7.33499ZM327.9238,231.00147h-7.33499v18.55067h7.33499v-18.55067ZM343.61331,249.55214h0v-18.55066h-1.03006v18.55067l1.03006-.00002ZM343.61331,294.2345h-1.03006l1.03006,1.4902v-1.49023.00003ZM343.61331,309.01731h0l-1.03006-1.38364v28.87234l1.03006,1.48862v-28.97733ZM343.61331,348.4166h0l-1.03006-1.36972v2.75333h1.03006v-1.38364.00003ZM335.26031,249.55216h0v-18.55067h7.32294v18.55067h-7.32294ZM335.26031,325.96045h0v-28.17596c.73248.64548,1.38199,1.37943,1.93359,2.185l5.38934,7.66418v28.87234l-7.32297-10.54553.00003-.00003ZM335.26031,349.8002h0v-12.83871l7.32294,10.08542v2.75333l-7.32294-.00003ZM344.08261,349.1098h0v.6904h-.4693v-1.38364l.4693.69324ZM344.08261,309.7045h0v28.9758l-.4693-.68564v-28.97736l.4693.68719ZM344.08261,294.2345h0v2.185l-.4693-.69482v-1.4902l.4693.00003ZM344.08261,231.0015h0v18.55067h-.4693v-18.55069l.4693.00002ZM344.08261,349.80023h.45383l-.45383-.6904v.6904ZM357.70572,329.40576h0l-13.62314-19.70129v28.9758l3.53638,5.15463c2.20218,3.50009,5.95868,5.72168,10.08673,5.96527v-20.39444l.00003.00003ZM357.70572,294.57733c-1.48019-.22491-2.97504-.33951-4.4722-.34283h-9.15091v2.185l13.62308,19.69809v-21.54028l.00003.00003ZM357.70572,232.14566c-3.45898-.78877-6.99796-1.17273-10.54562-1.14418h-3.07751v18.55067h.6749c2.90469-.01048,5.79712.37715,8.59653,1.15211,1.487.46173,2.96805,1.0332,4.35168,1.60121v-20.15984l.00003.00002ZM608.00879,258.03638h-12.81256c-10.20563,0-20.17657,7.4447-21.43207,17.87421l-6.41937,57.3927h-54.87402c-4.04477.13013-7.4292-3.0433-7.55933-7.08807-.00391-.12094-.00479-.24194-.00269-.36292v-12.83401h50.1795v-16.4938h-50.17957v-12.828c.08679-4.12024,3.44092-7.42093,7.56201-7.44153h45.94232v-16.61899h-49.83829c-9.96179.23309-21.41849,7.1066-21.41849,17.7572v55.9101h-43.86673c-4.03271.08646-7.37198-3.11261-7.45844-7.14532-.00217-.10187-.00223-.2038-.00015-.30566v-66.21628h-17.74771v68.05399c.21771,12.16238,10.05655,21.95267,22.21988,22.11017h46.85315v-15.35739h.22864c2.1727,9.96494,11.12469,15.35742,21.3056,15.35742h72.97852l4.5816-36.78195h21.75818v-16.49374h-20.15222l1.48737-13.39758c.44305-4.01199,3.099-7.33051,7.32422-7.33051h11.34064v-17.76001ZM697.36847,259.63602h0v16.61899h-20.51215v57.04831h20.51208v16.49692h-59.22858c-2.75806,0-4.23114-1.14899-4.46588-4.01801l-3.76947-32.76389h-21.89569v-16.49387h20.05481l-1.25238-13.39758c-.4646-4.01199-3.20715-7.33051-7.45697-7.33051h-11.3454v-17.76001h12.95135c9.73785,0,19.36316,6.87,20.84863,16.96149,3.08698,18.78091,3.89001,37.91541,6.18152,56.92941.3504,2.5155,1.83899,4.01044,4.35931,4.01044h6.75732v-76.30173l38.26147.00003ZM357.70569,316.11759v-21.54028c3.52603.59583,6.6871,2.52689,8.82672,5.39218l6.29727,9.15121c4.79794-7.31976,7.33051-15.11646,6.86118-23.92929-.90201-14.43835-9.03229-27.04562-21.9852-32.88593v-20.15984c23.483,5.03737,39.63391,26.80946,41.02545,51.313.78589,15.5845-4.3732,29.79736-14.90329,41.59375l17.28754,24.74777h-12.8201c-4.60086.15149-8.94693-2.11023-11.46274-5.96527l-19.12683-27.71732ZM357.70569,349.8002h0v-20.39447l14.08322,20.39447h-14.08322ZM734.59497,272.35901h0c-2.85388-7.78909-12.13599-12.72299-20.38525-12.72299h-16.84131v16.61899h13.17371c3.97717-.0787,7.26514,3.08163,7.34387,7.05881.0025.12759.00165.25519-.00262.38272v42.15573c.13342,3.98007-2.98486,7.31476-6.96497,7.44821-.12537.00418-.25085.00513-.37628.00278h-13.17371v16.49692h16.84131c8.24927,0,17.53137-4.81342,20.38525-12.61011v-64.83105ZM734.59497,259.525h0v4.23563l-.11133-.22833v-4.00729h.11133ZM735.28064,259.525h-.33051v4.57999l.33051.34756v-4.92761.00006ZM735.28064,274.76477h0c-.099-.57147-.23468-.92346-.33051-1.37888v62.66602c.09583-.35199.23151-.81052.33051-1.15051v-60.13663ZM734.7215,336.84409v-64.15173c.12061.21411.19824.44971.22864.69354v62.66602c-.02753.27579-.10498.54425-.22864.79227v-.00009ZM734.7215,263.87351v-4.34854h.22864v4.57999l-.22864-.23151v.00006ZM734.59497,263.76059h0v-4.23563h.12653v4.34851l-.12653-.11292v.00003ZM734.59497,337.19007h0v-64.83105c.09509.0831.14252.2081.12653.33334v64.15176c.01678.12906-.03046.25821-.12653.34601v-.00006ZM735.41028,275.56613h0v58.30981c.02063.34686-.02332.69452-.12964,1.02533v-60.13651c.10602.25311.15045.52777.12964.80139v-.00003ZM735.41028,259.52497h0v5.04492l-.12964-.11734v-4.92761l.12964.00003ZM735.41028,264.56989h0l11.56299,11.7869h17.53009v73.55756h17.86975v-73.55753h26.46503v55.677c0,10.88367,11.33466,17.88052,21.08167,17.88052h51.42273v-16.4953h-47.53424c-3.98676.06329-7.27002-3.11734-7.33331-7.1041-.00244-.15427.00006-.30856.00751-.46268v-12.83398h50.17798v-16.37039h-50.17798v-12.95142c-.14368-3.96442,2.95367-7.29468,6.91809-7.43832.1358-.00494.27179-.00601.40771-.0032h53.27881v73.65939h17.85431v-44.22504l34.03778,38.37872c3.02411,3.65387,7.50275,5.79208,12.24548,5.84631h13.8764l-37.5802-41.93945c-1.84064-2.06009-1.6059-4.45828-.12048-6.75299,10.19519-13.97507,20.51367-27.72021,30.58173-41.58588h-20.72656l-32.31421,44.10614v-44.10617h-74.69409c-10.18573,0-20.72974,5.73056-21.409,15.58734v-15.69833h-73.42792v5.04492l-.00006-.00003ZM735.41028,333.87598c.09344-.60934.12964-1.22607.10815-1.84216v-54.64062c.0177-.61099-.01849-1.22235-.10815-1.827v58.30981-.00003Z"/><polygon class="cls-1" points="372.978 379.49848 350.914 379.49848 350.914 389.35648 373.871 389.35648 373.871 379.49848 372.978 379.49848"/><polygon class="cls-1" points="351.827 379.49848 329.64301 379.49848 329.64301 389.35648 352.72699 389.35648 352.72699 379.49848 351.827 379.49848"/><polygon class="cls-1" points="325.83499 379.49848 313.77698 379.49848 313.77698 389.35648 326.74298 389.35648 326.74298 379.49848 325.83499 379.49848"/><polygon class="cls-1" points="314.677 379.49848 284 379.49848 284 389.35648 315.58099 389.35648 315.58099 379.49848 314.677 379.49848"/><path class="cls-2" d="M902.98633,459.39365v11.26065h-.21924l-.47247-11.02914.22516-.1265.46649-.10501h.00006ZM902.98633,430.75754h-7.70245v-22.53174h7.70245v-10.34793h-7.70245v-17.58704h-10.34631v17.58704h-9.76892v10.34793h9.76892v22.53171h-9.76892v10.34796h9.76892v19.08353h-9.76892v10.23822h15.51019c1.49176,0,4.60498-1.83777,4.60498-4.716v-24.60574h7.70245v-10.34793h.00006ZM902.98633,470.6543h.10181c11.0011-3.15305,21.33081-8.29651,30.47675-15.17526,7.70874,6.43799,19.99469,13.33432,30.11243,17.01746l.34601.11099-.21918-11.15091-2.53259-1.26758c-7.36597-4.026-13.22485-7.24414-18.86438-11.72391,7.62036-7.05768,14.06482-15.28699,19.08984-24.37711l2.6499-4.58795c.73907-1.04474,1.14404-2.28903,1.16132-3.56866l-.47565-2.06772c-.68311-2.17767-2.57733-3.75412-4.84283-4.03033h-20.67401v-11.26184h23.21582v-10.23221h-23.21588v-8.04843h-10.229v8.04843h-23.12915v10.23221h23.12915v11.2619h-20.12439v10.23059h42.99774c-4.94794,7.8685-10.98859,14.99423-17.94092,21.1636-4.59235-4.60028-8.61359-10.92542-11.25751-15.064l-1.84375-2.87384h-11.48901l-.35834.11893-.22833.11099.35797.68439c4.33466,8.82709,9.94818,16.96625,16.65912,24.15442-6.0965,4.35959-13.79926,8.04242-22.87292,11.03516v11.26068ZM902.98633,408.22583v-10.34796h.5683v10.34793l-.5683.00003ZM903.44043,430.75754v10.34793h-.4541v-10.34793h.4541Z"/><path class="cls-1" d="M715.8125,440.76105v10.2366h-3.22107v-10.2366h3.22107ZM703.3985,414.89694h12.414v-9.77802h-12.414v-12.98395l10.00824-1.83899-1.72961-9.5481-28.86157,5.6319,1.72327,9.54495,9.08636-1.95193v11.14615h-14.71948v9.77798h13.4624l-15.64587,27.13516,8.38495,4.94278,8.51807-14.59589v37.58331h9.77332v-39.892l8.05157,9.65753,4.36243-3.56232v-6.43799l-12.414-14.83054-.00006-.00006ZM734.54852,440.76108h-18.73602v10.2366h18.73602v-10.2366ZM734.54852,417.3122h0v14.59906l-11.95514-13.33435,7.2514-6.55701,4.70367,5.29227.00006.00003ZM734.54852,391.20835h0v14.60699l-11.95514-13.34509,7.2514-6.43488,4.70367,5.173.00006-.00003ZM715.8125,436.16553v-6.43799l3.10089,3.79288-3.10089,2.64517v-.00006ZM734.54852,405.81531h0l4.59869,5.28275,7.24579-6.54587-11.84448-13.34384v14.60699-.00003ZM734.54852,431.91123h0l4.59869,5.173,7.24579-6.55222-11.84448-13.21985v14.59906ZM734.54852,450.99765h0v-10.2366l12.87891-.10657c.33478-.01062.61902-.24832.68878-.5759v-59.55624h10.23187v60.23871h8.62622v10.2366h-8.62622v19.65662h-10.23181v-19.65662h-13.56775Z"/><path class="cls-1" d="M547.12329,383.84555l-.34442.30264-7.81537,6.74832,15.05164,15.76666-45.72757-.03256,17.83878-25.67279-9.55255-6.0054-.25488.37982-21.74551,31.28284-9.28879-.00281v.45383l-.01074,10.19199,78.91302.06482,5.58984,5.86182,8.16925-7.05096-30.82269-32.28824v.00003ZM557.8988,458.68015h-56.41992v-22.94412h56.41992v22.94415-.00003ZM568.9245,430.49185h0c0-4.86877-4.3808-5.21793-5.27045-5.24701h-66.52054l-.043.06927s-6.63254-.01392-6.63254,6.62781v30.61429c0,5.66733,4.81787,6.48578,6.23721,6.61545h64.60242c8.24768,0,7.62683-7.173,7.62683-7.173l.00006-31.50681Z"/><path class="cls-1" d="M286.0444,397.35922c-.69083.75204-1.05029,1.75027-.99747,2.77008v68.7027h9.96021v-63.30545h21.16516c0,1.75113-.12048,63.30545-.12048,63.30545h9.98328v-68.7027c0-2.28687-1.36655-3.63663-3.8479-3.78781h-33.35849c-1.02679-.04642-2.02948.32007-2.7843,1.01773Z"/><path class="cls-1" d="M330.45633,400.0708v68.4136h9.97885v-62.95786h21.9726v62.95786h9.86472v-68.3551c0-2.25586-1.34824-3.62872-3.73407-3.78781h-34.29553c-1.99344-.09659-3.68771,1.4411-3.7843,3.43454-.00476.09818-.00552.19653-.00226.29477Z"/><polygon class="cls-1" points="358.59799 456.68848 349.73801 457.56247 344.362 402.40747 353.23499 401.54047 358.59799 456.68848"/><rect class="cls-2" x="301.47997" y="401.84301" width="8.92508" height="55.41318" transform="translate(-40.59326 32.02395) rotate(-5.6197)"/></g></svg>