<?xml version="1.0" encoding="UTF-8"?>
<svg id="LOGO" xmlns="http://www.w3.org/2000/svg" viewBox="0 0 1250 703">
  <defs>
    <style>
      .cls-1 {
        fill: #c84534;
      }
    </style>
  </defs>
  <path class="cls-1" d="m1037.95,393.52c-19.11,0-35.21-12.83-40.19-30.38h106l14.6-22.74h-120.6c4.96-17.59,21.08-30.38,40.19-30.38h72.78l14.55-22.8h-88.99c-35.59,0-64.47,28.88-64.47,64.55s28.88,64.45,64.47,64.45h76.55l14.55-22.7h-89.44m-303.33,22.7h76.55l14.49-22.7h-89.34c-23.15,0-41.81-18.73-41.81-41.75s18.65-41.75,41.81-41.75h72.72l14.67-22.8h-89.08c-35.65,0-64.61,28.88-64.61,64.55s28.96,64.45,64.61,64.45m-470.99-22.7h-71.61c-23.05,0-41.72-18.73-41.72-41.75s18.67-41.75,41.72-41.75h71.61c23.12,0,41.78,18.63,41.78,41.75s-18.65,41.75-41.78,41.75m-73.26,22.7h74.98c35.67,0,64.39-28.82,64.39-64.45s-28.72-64.55-64.39-64.55h-74.98c-35.63,0-64.53,28.88-64.53,64.55s28.9,64.45,64.53,64.45m261.12-41.77c24.15,0,43.57-19.54,43.57-43.62s-19.42-43.6-43.57-43.6h-108.52v128.99h24.8v-106.2h82.07c11.52,0,20.85,9.3,20.85,20.81s-9.34,20.94-20.85,20.94l-69.94-.06,74.08,64.51h35.99l-49.76-41.77h11.28m410.32,18.99v-106.22h-24.85v116.66c0,3.18,1.34,6.3,3.67,8.55,2.37,2.45,5.63,3.79,9.04,3.79h113.01l14.72-22.78h-115.59m-303.58-22.7h66.16l-34.96-56.41-64.17,101.89h-29.31l78.13-122.28c3.34-4.95,9.06-7.96,15.32-7.96s11.74,2.9,15.08,7.74l78.36,122.5h-29.23l-13.78-22.78h-66.99l-14.61-22.7"/>
</svg>