<?xml version="1.0" encoding="UTF-8"?><svg id="EXAMPLES_TURN_OFF_" xmlns="http://www.w3.org/2000/svg" viewBox="0 0 1250 703"><defs><style>.cls-1{fill:#202945;}.cls-1,.cls-2{stroke-width:0px;}.cls-2{fill:#ff671d;}</style></defs><path class="cls-1" d="m466.76781,385.96994h-26.34489v-70.67522h26.34489c22.29183,0,37.4908,15.19897,37.4908,35.21095s-15.4523,35.46426-37.4908,35.46426Zm0-59.5293h-13.93239v48.13007h13.93239c14.94566,0,24.57166-9.87933,24.57166-23.81172-.25331-13.93239-9.87933-24.31835-24.57166-24.31835Z"/><path class="cls-1" d="m587.09297,385.96994h-13.17243l-7.09286-16.97219h-33.43773l-7.34615,16.97219h-12.66581l31.1579-71.18185h11.39923l31.15786,71.18185Zm-36.98414-56.48951l-12.15918,28.37141h24.31837l-12.15918-28.37141Z"/><path class="cls-1" d="m625.0904,385.96994h-12.41248v-59.27599h-22.29183v-11.39923h57.24947v11.39923h-22.29183v59.27599h-.25333Z"/><path class="cls-1" d="m721.60388,385.96994h-13.17243l-7.09286-16.97219h-33.43773l-7.34615,16.97219h-12.66581l31.1579-71.18185h11.39923l31.15786,71.18185Zm-36.98418-56.48951l-12.15918,28.37141h24.31837l-12.15918-28.37141Z"/><path class="cls-1" d="m793.79899,333.28017c0,8.61275-4.81299,13.17244-10.13265,15.95892,8.35944,2.78647,13.93239,7.59949,13.93239,17.2255,0,12.66581-10.38598,19.50535-26.09157,19.50535h-32.67777v-70.67521h31.66452c14.18568,0,23.30508,6.83954,23.30508,17.98544Zm-12.41248,2.02654c0-5.82627-4.5597-9.11938-12.41248-9.11938h-17.98546v18.7454h16.97218c7.85278,0,13.42576-3.03981,13.42576-9.62602Zm3.79974,29.89131c0-6.07959-4.81299-9.62601-14.43901-9.62601h-19.75867v19.25203h20.51863c8.61273,0,13.67906-3.29311,13.67906-9.62601Z"/><path class="cls-1" d="m881.69973,385.96994h-13.17247l-7.09282-16.97219h-33.43773l-7.34615,16.97219h-12.66581l31.1579-71.18185h11.39923l31.15786,71.18185Zm-36.98418-56.48951l-12.15918,28.37141h24.31833l-12.15915-28.37141Z"/><path class="cls-1" d="m946.54861,315.29473h12.15915v70.67522h-10.3859l-39.01068-50.1566v50.1566h-12.15915v-70.67522h11.39923l37.74409,48.89002v-48.89002h.25325Z"/><path class="cls-1" d="m1043.82208,385.96994h-14.94564l-24.06504-31.91783-10.89256,11.39923v20.51861h-12.66589v-70.67522h12.41248v35.46426l33.69102-35.46426h15.19897l-29.38469,30.39794,30.65135,40.27728Z"/><path class="cls-2" d="m387.22653,365.95796l-15.19897-11.65254-3.79974-2.78648,18.99871-14.1857c6.07959-4.30638,9.87933-10.38596,9.87933-16.97219s-3.29312-12.91913-9.62602-17.2255l-60.79588-45.09028c-6.3329-4.55969-13.17244-5.82627-18.49208-3.03979-5.31964,2.78648-8.35943,8.86607-8.35943,16.71887l.25331,24.57167v5.06632l-59.02267-43.8237c-6.58622-4.55969-13.17244-5.57296-18.7454-2.78648-5.31964,2.78648-8.35943,8.86607-8.35943,16.71887v159.58918c0,7.8528,3.03979,13.93239,8.35943,16.71886s12.15918,1.77321,18.7454-2.78647l58.76935-42.81042v29.63798c0,7.8528,3.0398,13.93239,8.35943,16.71886s12.15917,1.77321,18.49208-3.03979l61.04919-45.09027c6.07959-4.30638,9.62602-10.63928,9.62602-17.2255-.25331-6.58624-3.79974-12.91914-10.13265-17.22552Zm-74.72827-60.28925v-33.94437s-.25331-2.27984,1.51989-3.54643c0,0,2.27985-1.77321,5.06632.25332l61.04919,45.34359c2.78647,2.02653,4.05305,4.30638,4.05305,6.58622s-1.51989,4.55969-4.30637,6.58622l-22.79846,16.97219-3.54643-2.53316-41.03721-30.65125v-5.06632Zm33.69105,46.10355l-33.69105,24.82498v-49.90329l29.89131,22.29182,3.79974,2.78648Zm-112.47238,83.08769c-2.78648,2.02654-5.06632.25331-5.06632.25331-1.77321-1.26658-1.5199-3.79974-1.5199-3.79974h0v-159.58919h0s-.25332-2.53316,1.5199-3.79974c0,0,2.27984-2.02653,5.06632.25332l66.36883,49.39665v5.31964l-.25331,63.32905-66.11552,48.6367Zm146.41674-45.09027l-61.04919,45.3436c-2.78647,2.02654-5.06632.25331-5.06632.25331-1.51989-1.26658-1.51989-3.54643-1.51989-3.54643v-39.26401l44.58364-32.9311,3.54643,2.53316,19.25203,14.43902c2.78647,1.77322,4.30637,4.30638,4.30637,6.58622.25333,2.27985-1.26656,4.81301-4.05305,6.58623Z"/></svg>