<?xml version="1.0" encoding="utf-8"?>
<!-- Generator: Adobe Illustrator 28.4.1, SVG Export Plug-In . SVG Version: 6.00 Build 0)  -->
<svg version="1.1" id="Art_3.0" xmlns="http://www.w3.org/2000/svg" xmlns:xlink="http://www.w3.org/1999/xlink" x="0px" y="0px"
	 viewBox="0 0 48 48" style="enable-background:new 0 0 48 48;" xml:space="preserve">
<style type="text/css">
	.st0{fill-opacity:0;}
</style>
<g>
	<path d="M29.39722,24.68311c0.18201-0.19336,0.37952-0.37451,0.60815-0.52783c3.32715-2.22559,5.08936-6.38672,4.48975-10.59961
		c-0.66699-4.68555-4.57373-8.46533-9.28955-8.98828C24.96899,4.54102,24.73413,4.52441,24.5,4.51367V4.5L24,4.50488L23.5,4.5
		v0.01367c-0.23413,0.01074-0.46899,0.02734-0.70557,0.05371c-4.71582,0.52295-8.62256,4.30273-9.28955,8.98828
		c-0.59961,4.21289,1.1626,8.37402,4.48975,10.59961c0.22864,0.15332,0.42627,0.33447,0.60815,0.52783L10.5,31.77295V37.5h2.80908
		l1.10205-2.2041l1.7959-1.7959H19.5h0.13965l1,3h6.7207l1-3H28.5h3.29297l1.7959,1.7959L34.69092,37.5H37.5v-5.72705
		L29.39722,24.68311z M20.5,27.5h3.11084h0.77832H27.5v5h-7V27.5z M19.99011,15.8916l0.26965,0.4043l-0.80908,0.40479
		L19.99011,15.8916z M17.99023,12.53271c-0.27588,0-0.5-0.22412-0.5-0.5s0.22412-0.5,0.5-0.5s0.5,0.22412,0.5,0.5
		S18.26611,12.53271,17.99023,12.53271z M29.49023,11.98975c0-0.27588,0.22412-0.5,0.5-0.5s0.5,0.22412,0.5,0.5
		s-0.22412,0.5-0.5,0.5S29.49023,12.26562,29.49023,11.98975z M24.49023,20.99023c0,0.27539-0.22412,0.5-0.5,0.5
		s-0.5-0.22461-0.5-0.5c0-0.05713,0.01489-0.10938,0.03235-0.16016l0.02966-0.05957
		c0.03308-0.06641,0.09119-0.12744,0.17163-0.18164l0.00024-0.00049c0.0437-0.02881,0.07214-0.0459,0.10376-0.06543
		c0.05151-0.01807,0.10474-0.03271,0.16235-0.03271c0.05786,0,0.11133,0.01465,0.16309,0.03271
		c0.0293,0.01807,0.05688,0.03418,0.09619,0.06055l0.00732,0.00488c0.08057,0.0542,0.13867,0.11572,0.17188,0.18262l0.02893,0.05762
		C24.47534,20.87988,24.49023,20.93262,24.49023,20.99023z M19.47192,17.80811l0.69409-0.34717l0.65283-0.32617l0,0h0.00024
		l0.43762,0.65576l1.27307,1.90967l-3.05786-1.52832c0.00732-0.06055,0.01831-0.11963,0.01831-0.18213
		C19.49023,17.92773,19.47925,17.86816,19.47192,17.80811z M23.99023,15.49023c-0.27588,0-0.5-0.22461-0.5-0.5
		c0-0.27588,0.22412-0.5,0.5-0.5s0.5,0.22412,0.5,0.5C24.49023,15.26562,24.26611,15.49023,23.99023,15.49023z M26.26001,13.2959
		l-1.23169,0.61572c-0.15198-0.14648-0.33545-0.25732-0.53809-0.32959V10.6416l1.76953,2.65381l0,0L26.26001,13.2959z
		 M26.81921,15.84521l-0.85559-0.42773l-0.4917-0.24561c0.00732-0.06055,0.01831-0.11963,0.01831-0.18164
		c0-0.0625-0.01099-0.12207-0.01831-0.18213l1.34741-0.67334l0.57019,0.85498L26.81921,15.84521z M23.49023,10.64209v2.93994
		c-0.20264,0.07227-0.38599,0.18311-0.53784,0.32959l-1.23193-0.61572L23.49023,10.64209z M21.16187,14.13477l1.34668,0.67334
		c-0.00732,0.06006-0.01831,0.11963-0.01831,0.18213c0,0.06201,0.01099,0.12109,0.01831,0.18164l-1.34717,0.67334l-0.56995-0.85498
		L21.16187,14.13477z M21.72095,16.68359l1.2312-0.61523c0.15198,0.14648,0.33545,0.25732,0.53809,0.32959v2.93945l-1.15015-1.7251
		L21.72095,16.68359z M24.49023,19.33887v-2.94092c0.20276-0.07227,0.38647-0.18311,0.53845-0.32959l1.23145,0.61523
		l-0.00037,0.00049h0.00012l-0.30396,0.45605L24.49023,19.33887z M27.16138,17.13477l1.34717,0.67334
		c-0.00732,0.06055-0.01831,0.11963-0.01831,0.18164c0,0.0625,0.01099,0.12207,0.01843,0.18262l-3.0575,1.52832L27.16138,17.13477z
		 M29.99023,18.48975c-0.27588,0-0.5-0.22412-0.5-0.5s0.22412-0.5,0.5-0.5s0.5,0.22412,0.5,0.5S30.26611,18.48975,29.99023,18.48975
		z M27.82275,16.34717l-0.10205-0.05078l0.26978-0.40479l0.53955,0.80908L27.82275,16.34717z M27.72119,13.68359l0.80872-0.4043
		l-0.53943,0.80859L27.72119,13.68359z M28.50854,12.17188l-1.34668,0.67285l-1.71045-2.56445l3.05713,1.52832
		c-0.00732,0.06006-0.01831,0.11914-0.01831,0.18115C28.49023,12.05225,28.50122,12.11133,28.50854,12.17188z M23.99023,9.49023
		c-0.27588,0-0.5-0.22461-0.5-0.5c0-0.27588,0.22412-0.5,0.5-0.5s0.5,0.22412,0.5,0.5
		C24.49023,9.26562,24.26611,9.49023,23.99023,9.49023z M20.8186,12.84473l-0.2876-0.14355l-1.05493-0.52783
		c0.00439-0.04688,0.01416-0.09229,0.01416-0.14062c0-0.07617-0.01147-0.14941-0.02246-0.22266l3.06177-1.53076L20.8186,12.84473z
		 M20.1665,13.63672l0.09302,0.04688h-0.00024l0.00061,0.00049l-0.26941,0.4043l-0.53955-0.80908L20.1665,13.63672z
		 M18.49023,17.98975c0,0.27588-0.22412,0.5-0.5,0.5s-0.5-0.22412-0.5-0.5s0.22412-0.5,0.5-0.5S18.49023,17.71387,18.49023,17.98975
		z M19.02832,19.06836l3.48035,1.73975c-0.00745,0.06006-0.01843,0.11963-0.01843,0.18213c0,0.82715,0.67285,1.5,1.5,1.5
		s1.5-0.67285,1.5-1.5c0-0.0625-0.01099-0.12158-0.01831-0.18164l3.48047-1.74023c0.04785,0.04639,0.1001,0.0874,0.15381,0.12695
		L24.88867,26.5h-0.49951h-0.77832h-0.5332l-4.21289-7.29688C18.92212,19.16162,18.97729,19.11719,19.02832,19.06836z
		 M14.49512,13.69678c0.60352-4.24072,4.14014-7.66211,8.40967-8.13574c0.23535-0.02588,0.46924-0.04346,0.70166-0.05322L24,5.50439
		l0.39355,0.00342c0.23242,0.00977,0.46631,0.02734,0.70166,0.05322c4.26953,0.47363,7.80615,3.89502,8.40967,8.13574
		c0.5459,3.83496-1.0459,7.61377-4.05518,9.62744c-0.9248,0.61865-1.57471,1.52588-1.83057,2.55566
		c-0.03856,0.1548-0.0664,0.39943-0.08593,0.62013H27.5h-1.45642l4.05383-7.021c0.77637-0.05615,1.39282-0.69873,1.39282-1.48926
		c0-0.82715-0.67285-1.5-1.5-1.5c-0.12671,0-0.24768,0.02051-0.36523,0.05029l-1.03357-1.5498l0.00037-0.00049l-0.00024-0.00049
		l1.03345-1.5498c0.11768,0.02979,0.23853,0.05029,0.36523,0.05029c0.82715,0,1.5-0.67285,1.5-1.5s-0.67285-1.5-1.5-1.5
		c-0.40356,0-0.7688,0.16211-1.03857,0.42236L25.4718,9.17236c0.00745-0.06055,0.01843-0.12012,0.01843-0.18213
		c0-0.82715-0.67285-1.5-1.5-1.5s-1.5,0.67285-1.5,1.5c0,0.06201,0.01099,0.12109,0.01831,0.18164l-3.51245,1.75586
		c-0.26672-0.24316-0.61768-0.39502-1.00586-0.39502c-0.82715,0-1.5,0.67285-1.5,1.5s0.67285,1.5,1.5,1.5
		c0.1355,0,0.2644-0.02393,0.3894-0.05762l1.00977,1.51465l-0.00024,0.00049l0,0l-1.0332,1.5498
		c-0.11768-0.02979-0.23889-0.05029-0.36572-0.05029c-0.82715,0-1.5,0.67285-1.5,1.5c0,0.78564,0.60852,1.42432,1.37781,1.48779
		L21.92273,26.5H20.5h-0.0332c-0.01953-0.2207-0.04736-0.46533-0.08594-0.62061c-0.25586-1.0293-0.90576-1.93652-1.83057-2.55518
		C15.54102,21.31055,13.94922,17.53174,14.49512,13.69678z M15.79297,32.5l-2.14648,2.14648L12.69092,36.5H11.5v-4.27295
		l7.68188-6.72168c0.09595,0.19727,0.17529,0.40186,0.22827,0.61475c0.03882,0.15625,0.07544,0.61523,0.08984,0.89697V32.5H15.79297
		z M26.63965,35.5h-5.2793l-0.66675-2h6.61279L26.63965,35.5z M36.5,36.5h-1.19092l-0.86182-1.72363L32.20703,32.5H28.5v-5.48291
		c0.0144-0.28174,0.05103-0.74072,0.08984-0.89648c0.05298-0.21338,0.13232-0.41797,0.22852-0.61523L36.5,32.22705V36.5z"/>
	<rect x="21.5" y="28.5" width="5" height="1"/>
	<rect x="21.5" y="30.5" width="5" height="1"/>
	<rect x="24.5" y="37.5" width="1" height="4"/>
	<rect x="24.5" y="42.5" width="1" height="2"/>
	<rect x="22.5" y="37.5" width="1" height="4"/>
	<rect x="22.5" y="42.5" width="1" height="2"/>
	<rect x="20.5" y="37.5" width="1" height="2"/>
	<rect x="20.5" y="40.5" width="1" height="2"/>
	<rect x="26.5" y="37.5" width="1" height="2"/>
	<rect x="26.5" y="40.5" width="1" height="2"/>
	<rect x="12.5" y="38.5" width="1" height="3"/>
	<rect x="12.5" y="42.5" width="1" height="2"/>
	<rect x="10.5" y="38.5" width="1" height="2"/>
	<rect x="10.5" y="41.5" width="1" height="2"/>
	<rect x="34.5" y="38.5" width="1" height="3"/>
	<rect x="34.5" y="42.5" width="1" height="2"/>
	<rect x="36.5" y="38.5" width="1" height="2"/>
	<rect x="36.5" y="41.5" width="1" height="2"/>
</g>
<rect class="st0" width="48" height="48"/>
</svg>
