<?xml version="1.0" encoding="utf-8"?>
<!-- Generator: Adobe Illustrator 27.1.1, SVG Export Plug-In . SVG Version: 6.00 Build 0)  -->
<svg version="1.1" id="Art_3.0" xmlns="http://www.w3.org/2000/svg" xmlns:xlink="http://www.w3.org/1999/xlink" x="0px" y="0px"
	 viewBox="0 0 48 48" style="enable-background:new 0 0 48 48;" xml:space="preserve">
<style type="text/css">
	.st0{fill-opacity:0;}
</style>
<g>
	<path d="M42.5,8.49316h-37v4h2.00488v22.00488H9.5v-1H8.50488V12.49316h30.99023v21.00488H24.49999v1h15.99512V12.49316h2.00488v-4
		H42.5z M41.5,11.49316h-35v-2h35V11.49316z"/>
	<path d="M12.60498,29.5l-2.38184,10h13.40039l-2.22266-10C21.40087,29.5,12.60497,29.5,12.60498,29.5z M11.48975,38.5l1.90527-8
		h7.2041l1.77734,8C22.37646,38.5,11.48974,38.5,11.48975,38.5z"/>
	<path d="M20.50244,25c0-1.92969-1.57031-3.5-3.5-3.5s-3.5,1.57031-3.5,3.5s1.57031,3.5,3.5,3.5S20.50244,26.92969,20.50244,25z
		 M14.50244,25c0-1.37842,1.12158-2.5,2.5-2.5s2.5,1.12158,2.5,2.5s-1.12158,2.5-2.5,2.5S14.50244,26.37842,14.50244,25z"/>
	<path d="M31.5,27.89062l3,0.75v-2.75l3,0.75v-9.38086l-9-1.87451v2.625l-3-0.625v2.625l-3-0.625v9.35498l9,1.87451V27.89062z
		 M29.5,16.61474l7,1.4585v7.28613l-2-0.5v-5.59961l-5-1.0415V16.61474z M26.5,18.61474l7,1.4585v7.28613l-2-0.5v-5.59961l-5-1.0415
		V18.61474z M30.5,29.38525l-7-1.4585v-7.31201l7,1.4585V29.38525z"/>
</g>
<rect class="st0" width="48" height="48"/>
</svg>
