<?xml version="1.0" encoding="utf-8"?>
<!-- Generator: Adobe Illustrator 27.1.1, SVG Export Plug-In . SVG Version: 6.00 Build 0)  -->
<svg version="1.1" id="Note" xmlns="http://www.w3.org/2000/svg" xmlns:xlink="http://www.w3.org/1999/xlink" x="0px" y="0px"
	 viewBox="0 0 48 48" style="enable-background:new 0 0 48 48;" xml:space="preserve">
<style type="text/css">
	.st0{fill-opacity:0;}
</style>
<path d="M35.27881,27.20166l-2.09619-5.2124l4.75928-2.98438l-4.75928-2.98389l2.09668-5.2124l-5.60645,0.38623l-1.36279-5.45264
	l-4.30957,3.61035l-4.30957-3.61035l-1.36279,5.45215l-5.60645-0.38623l2.09668,5.21289l-4.75928,2.98389l4.75879,2.98438
	l-2.09619,5.21191l1.71118-0.11768l-3.31323,12.36475l5.22021-2.09521l3.47314,4.4248l3.32153-12.39502l0.86597-0.72559
	l0.89697,0.75195l3.31396,12.36865l3.47314-4.4248l5.22021,2.09521l-3.31274-12.36279l1.68677,0.11621L35.27881,27.20166z
	 M19.36475,39.58691l-2.70166-3.44141l-4.06006,1.62988l2.88452-10.76465l2.84058-0.19531l1.36279,5.45264l2.10864-1.7666
	C21.79956,30.50146,19.36475,39.58691,19.36475,39.58691z M24.00049,27.35253l-3.72656,3.12256l-1.1792-4.71484l-4.84961,0.33398
	l1.81299-4.5083l-4.11621-2.58105l4.1167-2.58105l-1.81348-4.5083L19.09473,12.25l1.1792-4.71533l3.72656,3.12256l3.72656-3.12256
	l1.1792,4.71533l4.84961-0.33398l-1.81348,4.50781l4.1167,2.58105l-4.1167,2.58154l1.81299,4.50781l-4.84912-0.33398
	l-1.1792,4.71533C27.72705,30.47558,24.00049,27.35253,24.00049,27.35253z M35.42139,37.77538l-4.06006-1.62988l-2.70166,3.44141
	l-2.42725-9.05908l2.07666,1.74023l1.36377-5.45264l2.86475,0.19727C32.5376,27.01269,35.42139,37.77539,35.42139,37.77538z
	 M31.50489,19.00487c0-4.1377-3.36621-7.50439-7.50439-7.50439s-7.50488,3.3667-7.50488,7.50439
	c0,4.13818,3.3667,7.50488,7.50488,7.50488S31.50489,23.14305,31.50489,19.00487z M24.0005,25.50975
	c-3.58691,0-6.50488-2.91797-6.50488-6.50488c0-3.58643,2.91797-6.50439,6.50488-6.50439c3.58643,0,6.50439,2.91797,6.50439,6.50439
	C30.50489,22.59179,27.58692,25.50975,24.0005,25.50975z M28.71193,17.00488L23.0049,22.7119l-3.70703-3.70703l0.70703-0.70703l3,3
	l5-5L28.71193,17.00488z"/>
<rect class="st0" width="48" height="48"/>
</svg>
