<?xml version="1.0" encoding="utf-8"?>
<!-- Generator: Adobe Illustrator 27.1.1, SVG Export Plug-In . SVG Version: 6.00 Build 0)  -->
<svg version="1.1" id="Note" xmlns="http://www.w3.org/2000/svg" xmlns:xlink="http://www.w3.org/1999/xlink" x="0px" y="0px"
	 viewBox="0 0 48 48" style="enable-background:new 0 0 48 48;" xml:space="preserve">
<style type="text/css">
	.st0{fill-opacity:0;}
</style>
<path d="M43.65625,31.50488l-2.94678-11h-7.40869l-2.59937,9.7002l-1.52759-5.7002H18.83593l-1.52783,5.70117l-2.59863-9.70117
	H7.30078l-2.94775,11h12.60718l-1.60718,5.99756h17.30371l-1.60718-5.99756H43.65625z M34.06836,21.50488h5.87354l2.41162,9
	H31.65674L34.06836,21.50488z M5.65674,30.50488l2.41162-9h5.87354l2.41162,9H5.65674z M16.65674,36.50244l2.94678-10.99756h8.80273
	l2.94678,10.99756C31.35303,36.50244,16.65674,36.50244,16.65674,36.50244z M37.00488,19.50488
	c2.48242,0,4.50244-2.01953,4.50244-4.50244S39.4873,10.5,37.00488,10.5s-4.50244,2.01953-4.50244,4.50244
	S34.52246,19.50488,37.00488,19.50488z M37.00488,11.5c1.93115,0,3.50244,1.57129,3.50244,3.50244s-1.57129,3.50244-3.50244,3.50244
	s-3.50244-1.57129-3.50244-3.50244S35.07373,11.5,37.00488,11.5z M11.00488,19.50488c2.48242,0,4.50244-2.01953,4.50244-4.50244
	S13.4873,10.5,11.00488,10.5s-4.50244,2.01953-4.50244,4.50244S8.52246,19.50488,11.00488,19.50488z M11.00488,11.5
	c1.93115,0,3.50244,1.57129,3.50244,3.50244s-1.57129,3.50244-3.50244,3.50244s-3.50244-1.57129-3.50244-3.50244
	S9.07373,11.5,11.00488,11.5z M24.00488,23.50244c3.03369,0,5.50146-2.46777,5.50146-5.50146
	c0-3.0332-2.46777-5.50098-5.50146-5.50098c-3.0332,0-5.50098,2.46777-5.50098,5.50098
	C18.5039,21.03467,20.97167,23.50244,24.00488,23.50244z M24.00488,13.5c2.48193,0,4.50146,2.01953,4.50146,4.50098
	c0,2.48242-2.01953,4.50146-4.50146,4.50146s-4.50098-2.01904-4.50098-4.50146C19.5039,15.51953,21.52294,13.5,24.00488,13.5z"/>
<rect class="st0" width="48" height="48"/>
</svg>
