<svg width="96" height="96" viewBox="0 0 96 96" fill="none" xmlns="http://www.w3.org/2000/svg">
<g clip-path="url(#clip0_689_100)">
<path d="M15 29V75H49V73H17V32L48 55.25L79 32V55H81V29H15ZM19 31H77L48 52.75L19 31ZM68 67C67.0111 67 66.0444 67.2932 65.2221 67.8427C64.3999 68.3921 63.759 69.173 63.3806 70.0866C63.0022 71.0002 62.9031 72.0055 63.0961 72.9754C63.289 73.9454 63.7652 74.8363 64.4645 75.5355C65.1637 76.2348 66.0546 76.711 67.0246 76.9039C67.9945 77.0968 68.9998 76.9978 69.9134 76.6194C70.827 76.241 71.6079 75.6001 72.1573 74.7779C72.7068 73.9556 73 72.9889 73 72C73 70.6739 72.4732 69.4021 71.5355 68.4645C70.5979 67.5268 69.3261 67 68 67ZM68 75C67.4067 75 66.8266 74.8241 66.3333 74.4944C65.8399 74.1648 65.4554 73.6962 65.2284 73.148C65.0013 72.5999 64.9419 71.9967 65.0576 71.4147C65.1734 70.8328 65.4591 70.2982 65.8787 69.8787C66.2982 69.4591 66.8328 69.1734 67.4147 69.0576C67.9967 68.9419 68.5999 69.0013 69.148 69.2284C69.6962 69.4554 70.1648 69.8399 70.4944 70.3333C70.8241 70.8266 71 71.4067 71 72C71 72.7956 70.6839 73.5587 70.1213 74.1213C69.5587 74.6839 68.7956 75 68 75ZM77 72C76.9992 71.8435 76.9891 71.6873 76.97 71.532L80.66 67.842L77.892 63.042L72.81 64.406C72.58 64.26 72.346 64.124 72.11 64.006L70.768 59.006H65.232L63.89 64.016C63.6216 64.1557 63.3605 64.3093 63.108 64.476L58.164 63.15L55.396 67.95L59.028 71.582C59.01 71.7206 59.0007 71.8602 59 72C59.0015 72.1833 59.0142 72.3663 59.038 72.548L55.452 76.132L58.218 80.932L63.2 79.6C63.4706 79.7755 63.7503 79.9364 64.038 80.082L65.35 84.982H70.886L72.24 79.922C72.482 79.794 72.72 79.65 72.952 79.496L77.952 80.836L80.718 76.036L76.988 72.304C77 72.2 77 72.104 77 72ZM78.214 76.368L76.982 78.502L72.542 77.302L72.156 77.59C71.7812 77.8696 71.3791 78.1109 70.956 78.31L70.536 78.51L69.336 82.968H66.878L65.714 78.628L65.266 78.428C64.8032 78.226 64.3639 77.9738 63.956 77.676L63.572 77.402L59.184 78.58L57.952 76.442L61.14 73.254L61.05 72.504C61.022 72.3373 61.0053 72.1689 61 72C61.0031 71.8659 61.0158 71.7322 61.038 71.6L61.122 70.828L57.896 67.602L59.128 65.466L63.5 66.638L63.886 66.356C64.2794 66.0649 64.7024 65.8162 65.148 65.614L65.582 65.414L66.768 60.988H69.232L70.418 65.416L70.854 65.616C71.2756 65.8053 71.6776 66.0358 72.054 66.304L72.438 66.578L76.932 65.378L78.166 67.514L74.872 70.8L74.958 71.566C74.9823 71.7095 74.9963 71.8545 75 72C74.9968 72.0938 74.9875 72.1874 74.972 72.28L74.898 73.048L78.214 76.368Z" fill="black"/>
</g>
<defs>
<clipPath id="clip0_689_100">
<rect width="96" height="96" fill="white"/>
</clipPath>
</defs>
</svg>
