<?xml version="1.0" encoding="utf-8"?>
<!-- Generator: Adobe Illustrator 27.1.1, SVG Export Plug-In . SVG Version: 6.00 Build 0)  -->
<svg version="1.1" id="Art_3.0" xmlns="http://www.w3.org/2000/svg" xmlns:xlink="http://www.w3.org/1999/xlink" x="0px" y="0px"
	 viewBox="0 0 48 48" style="enable-background:new 0 0 48 48;" xml:space="preserve">
<style type="text/css">
	.st0{fill-opacity:0;}
</style>
<g>
	<path d="M42.5,33.5v-23h-37v23h14.84717l-0.80365,3H16.5v1h14.99902v-1H28.4555l-0.80408-3C27.65142,33.5,42.49999,33.5,42.5,33.5z
		 M6.5,11.5h35v21h-35V11.5z M27.42004,36.5h-6.84119l0.80347-3h5.23389L27.42004,36.5z"/>
	<path d="M30,20.5c0.82715,0,1.5-0.67285,1.5-1.5s-0.67285-1.5-1.5-1.5c-0.40387,0-0.76947,0.16211-1.03937,0.42236l-3.479-1.73975
		C25.48902,16.12255,25.5,16.06347,25.5,16.00097c0-0.82715-0.67285-1.5-1.5-1.5s-1.5,0.67285-1.5,1.5
		c0,0.0625,0.01099,0.12158,0.01837,0.18213l-3.51221,1.75586C18.7395,17.69628,18.38842,17.54394,18,17.54394
		c-0.82715,0-1.5,0.67285-1.5,1.5s0.67285,1.5,1.5,1.5c0.13556,0,0.26447-0.02393,0.38947-0.05762l1.00958,1.51465h-0.00012h0.00006
		l-1.03357,1.55029C18.24781,23.52147,18.12671,23.50097,18,23.50097c-0.82715,0-1.5,0.67285-1.5,1.5s0.67285,1.5,1.5,1.5
		c0.40332,0,0.76831-0.16162,1.03815-0.42188l3.48029,1.73975c-0.00745,0.06055-0.01843,0.11963-0.01843,0.18213
		c0,0.82715,0.67285,1.5,1.5,1.5s1.5-0.67285,1.5-1.5c0-0.0625-0.01093-0.12158-0.01837-0.18213l3.48022-1.73975
		c0.26984,0.26025,0.63483,0.42188,1.03815,0.42188c0.82715,0,1.5-0.67285,1.5-1.5s-0.67285-1.5-1.5-1.5
		c-0.12671,0-0.2478,0.02051-0.36542,0.05029l-1.03357-1.55029h0.00006h-0.00006l1.03418-1.55127
		c0.11743,0.02979,0.23828,0.05029,0.36481,0.05029L30,20.5z M25.03815,20.92285c-0.15198-0.14648-0.33551-0.25732-0.53815-0.32959
		v-2.94092l1.76953,2.65479C26.26953,20.30713,25.03815,20.92285,25.03815,20.92285z M22.51837,21.81885
		C22.51098,21.8794,22.5,21.93848,22.5,22.00098s0.01099,0.12158,0.01837,0.18213l-1.34711,0.67334l-0.57019-0.85547
		l0.57019-0.85547L22.51837,21.81885z M22.96185,20.92285l-1.23138-0.61572L23.5,17.65234v2.94092
		C23.29736,20.66553,23.11383,20.77637,22.96185,20.92285z M24,22.50097c-0.27588,0-0.5-0.22412-0.5-0.5s0.22412-0.5,0.5-0.5
		s0.5,0.22412,0.5,0.5S24.27588,22.50097,24,22.50097z M22.96185,23.07909c0.15198,0.14648,0.33551,0.25732,0.53815,0.32959v2.94043
		l-1.76953-2.6543C21.73047,23.69481,22.96185,23.07909,22.96185,23.07909z M24.5,23.40868
		c0.2027-0.07227,0.38635-0.18311,0.53833-0.32959l1.23132,0.61572h-0.00012h0.00006L24.5,26.34911
		C24.5,26.34911,24.5,23.40868,24.5,23.40868z M25.46027,17.29003l3.05798,1.5293C28.51093,18.87939,28.5,18.93798,28.5,18.99999
		c0,0.0625,0.01099,0.12207,0.01849,0.18262l-1.34723,0.67383l-1.711-2.56641H25.46027z M20.82862,19.85644l-1.34283-0.67188
		c0.00446-0.04688,0.01422-0.09229,0.01422-0.14062c0-0.07617-0.01147-0.14941-0.02246-0.22266l3.06189-1.53076
		C22.53944,17.29052,20.82862,19.85644,20.82862,19.85644z M19.48164,24.81933l1.34698-0.67383l0.71576,1.07373l0.99506,1.49219
		l-3.0578-1.52832c0.00745-0.06055,0.01837-0.11963,0.01837-0.18213S19.48902,24.87939,19.48164,24.81933z M27.17128,24.1455
		l1.34711,0.67334c-0.00739,0.06055-0.01837,0.11963-0.01837,0.18213s0.01099,0.12158,0.01837,0.18213l-3.05792,1.52881
		C25.46047,26.71191,27.17129,24.1455,27.17128,24.1455z M27.39894,22.00097l-0.57031,0.85547l-1.34698-0.67383
		c0.00739-0.06006,0.01837-0.11914,0.01837-0.18164s-0.01099-0.12158-0.01837-0.18213l1.34711-0.67334l0.01764,0.02637
		C26.8464,21.17187,27.39895,22.00097,27.39894,22.00097z M30.00001,18.49999c0.27588,0,0.5,0.22412,0.5,0.5
		c0,0.27539-0.22412,0.5-0.5,0.5s-0.5-0.22461-0.5-0.5C29.50001,18.72411,29.72413,18.49999,30.00001,18.49999z M24.00001,15.50097
		c0.27588,0,0.5,0.22412,0.5,0.5c0,0.27588-0.22412,0.5-0.5,0.5s-0.5-0.22412-0.5-0.5S23.72413,15.50097,24.00001,15.50097z
		 M17.50001,19.04394c0-0.27588,0.22412-0.5,0.5-0.5s0.5,0.22412,0.5,0.5c0,0.27539-0.22412,0.5-0.5,0.5
		S17.50001,19.31933,17.50001,19.04394z M19.46101,20.29052l0.80865,0.4043h-0.00012h0.00006l-0.26965,0.40479l-0.53894-0.80908
		L19.46101,20.29052z M20.2696,23.30712h-0.00006h0.00012l-0.80914,0.40479l0.53943-0.80957l0.26965,0.40479L20.2696,23.30712z
		 M18.00001,25.50097c-0.27588,0-0.5-0.22412-0.5-0.5s0.22412-0.5,0.5-0.5s0.5,0.22412,0.5,0.5S18.27589,25.50097,18.00001,25.50097
		z M24.00001,28.50097c-0.27588,0-0.5-0.22412-0.5-0.5c0-0.05713,0.01483-0.10986,0.03253-0.16113l0.0285-0.05664
		c0.0351-0.06885,0.09167-0.12891,0.17242-0.18311c0.04407-0.02979,0.07281-0.04688,0.1048-0.06641
		c0.05133-0.01807,0.10437-0.03271,0.16174-0.03271s0.11041,0.01465,0.16174,0.03271
		c0.03198,0.01953,0.06073,0.03662,0.1048,0.06641c0.08026,0.05371,0.13782,0.11475,0.17194,0.18213l0.02899,0.05811
		C24.48511,27.89111,24.5,27.94385,24.5,28.00097c0,0.27588-0.22412,0.5-0.5,0.5H24.00001z M30.50001,25.00097
		c0,0.27588-0.22412,0.5-0.5,0.5s-0.5-0.22412-0.5-0.5s0.22412-0.5,0.5-0.5S30.50001,24.72509,30.50001,25.00097z M28.5395,23.71142
		L28.28273,23.583l-0.55225-0.27588l0.03748-0.05615l0.23218-0.34863C28.00014,22.90234,28.53951,23.71142,28.5395,23.71142z
		 M27.82032,20.83007l-0.08984-0.13525l0.54517-0.27246l0.26379-0.13184l-0.53937,0.80908L27.82032,20.83007z"/>
</g>
<rect class="st0" width="48" height="48"/>
</svg>
