<?xml version="1.0" encoding="utf-8"?>
<!-- Generator: Adobe Illustrator 23.0.3, SVG Export Plug-In . SVG Version: 6.00 Build 0)  -->
<svg version="1.1" id="Layer_1" xmlns="http://www.w3.org/2000/svg" xmlns:xlink="http://www.w3.org/1999/xlink" x="0px" y="0px"
	 viewBox="0 0 1250 703" style="enable-background:new 0 0 1250 703;" xml:space="preserve">
<style type="text/css">
	.st0{clip-path:url(#SVGID_3_);}
	.st1{clip-path:url(#SVGID_4_);}
	.st2{fill:#40424D;}
	.st3{clip-path:url(#SVGID_7_);}
	.st4{clip-path:url(#SVGID_8_);}
	.st5{clip-path:url(#SVGID_11_);}
	.st6{clip-path:url(#SVGID_12_);}
	.st7{clip-path:url(#SVGID_15_);}
	.st8{clip-path:url(#SVGID_16_);}
	.st9{clip-path:url(#SVGID_19_);}
	.st10{clip-path:url(#SVGID_20_);}
	.st11{clip-path:url(#SVGID_23_);}
	.st12{clip-path:url(#SVGID_24_);}
	.st13{clip-path:url(#SVGID_27_);}
	.st14{clip-path:url(#SVGID_28_);}
	.st15{clip-path:url(#SVGID_31_);}
	.st16{clip-path:url(#SVGID_32_);}
	.st17{clip-path:url(#SVGID_35_);}
	.st18{clip-path:url(#SVGID_36_);}
	.st19{clip-path:url(#SVGID_38_);}
	.st20{fill:#284F7A;}
	.st21{fill:#1790C3;}
	.st22{clip-path:url(#SVGID_41_);}
	.st23{clip-path:url(#SVGID_42_);}
</style>
<title>nvidia-partner-edgeconnex-logo</title>
<g id="LOGO">
	<g id="EDGECONNEX">
		<g>
			<defs>
				<rect id="SVGID_1_" x="124.5" y="261.2" width="1001" height="180.5"/>
			</defs>
			<defs>
				<path id="SVGID_2_" d="M590.5,366v-19.6c0-10.3-8.7-17.7-15.8-17.7c-6.5,0-11.2,3.7-11.2,14v29.2c0,8,3.8,12.5,11.7,12.5
					S590.5,376.7,590.5,366 M547.4,372.7V342c0-14.8,10.6-25.1,23.8-25.1c7.7,0.2,14.7,4.1,19,10.5h0.2v-37.3h16.2v105.2h-14.7
					l-0.8-12.3h-0.4c-5,9.3-13.1,14-21.7,14C554,397.1,547.3,385.7,547.4,372.7"/>
			</defs>
			<clipPath id="SVGID_3_">
				<use xlink:href="#SVGID_1_"  style="overflow:visible;"/>
			</clipPath>
			<clipPath id="SVGID_4_" class="st0">
				<use xlink:href="#SVGID_2_"  style="overflow:visible;"/>
			</clipPath>
			<g class="st1">
				<rect x="545.5" y="288.2" class="st2" width="63" height="110.8"/>
			</g>
		</g>
		<g>
			<defs>
				<rect id="SVGID_5_" x="124.5" y="261.2" width="1001" height="180.5"/>
			</defs>
			<defs>
				<path id="SVGID_6_" d="M751.1,371.6v-26.4c0-16,8.5-25.4,23-25.4c15.5,0,22,8.8,22,19v3.4H792v-3.7c0-5.5-3.8-14.9-18.2-14.9
					c-13.9,0-18.3,10.5-18.3,21.7v26.4c0,12.8,4.9,21.5,19,21.5c14.8,0,17.4-8.7,17.4-15.2v-4.1h4.1v3.7c0,10.6-5.3,19.3-21.7,19.3
					C758.8,396.9,751.1,387.8,751.1,371.6"/>
			</defs>
			<clipPath id="SVGID_7_">
				<use xlink:href="#SVGID_5_"  style="overflow:visible;"/>
			</clipPath>
			<clipPath id="SVGID_8_" class="st3">
				<use xlink:href="#SVGID_6_"  style="overflow:visible;"/>
			</clipPath>
			<g class="st4">
				<rect x="749.2" y="317.9" class="st2" width="48.8" height="81"/>
			</g>
		</g>
		<g>
			<defs>
				<rect id="SVGID_9_" x="124.5" y="261.2" width="1001" height="180.5"/>
			</defs>
			<defs>
				<path id="SVGID_10_" d="M851.9,370.2v-25.1c0-11.7-5.3-21.5-19.5-21.5s-19.2,10.4-19.2,22.3v24.5c0,14,5.6,22.6,19.8,22.6
					C847.5,393,851.9,382.8,851.9,370.2 M808.8,371.1v-25.2c0-16.2,9.3-26.1,23.7-26.1c15.2,0,23.9,9.7,23.9,25.8v24.9
					c0,17.3-9,26.4-23.8,26.4C817.2,397,808.8,387.2,808.8,371.1"/>
			</defs>
			<clipPath id="SVGID_11_">
				<use xlink:href="#SVGID_9_"  style="overflow:visible;"/>
			</clipPath>
			<clipPath id="SVGID_12_" class="st5">
				<use xlink:href="#SVGID_10_"  style="overflow:visible;"/>
			</clipPath>
			<g class="st6">
				<rect x="806.9" y="317.9" class="st2" width="51.5" height="81"/>
			</g>
		</g>
		<g>
			<defs>
				<rect id="SVGID_13_" x="124.5" y="261.2" width="1001" height="180.5"/>
			</defs>
			<defs>
				<path id="SVGID_14_" d="M873.1,321.6h4v13.6h0.2c3.9-9.4,13.2-15.5,23.5-15.3c11.8,0,18,8.1,18,17.4v58.1h-4.6v-55.6
					c0-12.1-6.2-15.9-15-15.9c-10.6,0-21.5,10.6-21.5,23.2v48.4h-4.4L873.1,321.6"/>
			</defs>
			<clipPath id="SVGID_15_">
				<use xlink:href="#SVGID_13_"  style="overflow:visible;"/>
			</clipPath>
			<clipPath id="SVGID_16_" class="st7">
				<use xlink:href="#SVGID_14_"  style="overflow:visible;"/>
			</clipPath>
			<g class="st8">
				<rect x="871.2" y="317.9" class="st2" width="49.4" height="79.4"/>
			</g>
		</g>
		<g>
			<defs>
				<rect id="SVGID_17_" x="124.5" y="261.2" width="1001" height="180.5"/>
			</defs>
			<defs>
				<path id="SVGID_18_" d="M938,321.6h4v13.6h0.1c3.9-9.4,13.2-15.5,23.5-15.3c11.8,0,18,8.1,18,17.4v58.1h-4.6v-55.6
					c0-12.1-6.2-15.9-15.1-15.9c-10.6,0-21.5,10.6-21.5,23.2v48.4h-4.4L938,321.6"/>
			</defs>
			<clipPath id="SVGID_19_">
				<use xlink:href="#SVGID_17_"  style="overflow:visible;"/>
			</clipPath>
			<clipPath id="SVGID_20_" class="st9">
				<use xlink:href="#SVGID_18_"  style="overflow:visible;"/>
			</clipPath>
			<g class="st10">
				<rect x="936.1" y="317.9" class="st2" width="49.4" height="79.4"/>
			</g>
		</g>
		<g>
			<defs>
				<rect id="SVGID_21_" x="124.5" y="261.2" width="1001" height="180.5"/>
			</defs>
			<defs>
				<polyline id="SVGID_22_" points="1073.6,357.1 1053.7,321.6 1059,321.6 1076.7,354.2 1094.6,321.6 1099.3,321.6 1079.4,357 
					1100.8,395.3 1095.8,395.3 1076.3,359.9 1056.5,395.3 1051.8,395.3 1073.6,357.1 				"/>
			</defs>
			<clipPath id="SVGID_23_">
				<use xlink:href="#SVGID_21_"  style="overflow:visible;"/>
			</clipPath>
			<clipPath id="SVGID_24_" class="st11">
				<use xlink:href="#SVGID_22_"  style="overflow:visible;"/>
			</clipPath>
			<g class="st12">
				<rect x="1049.9" y="319.6" class="st2" width="52.8" height="77.6"/>
			</g>
		</g>
		<g>
			<defs>
				<rect id="SVGID_25_" x="124.5" y="261.2" width="1001" height="180.5"/>
			</defs>
			<defs>
				<path id="SVGID_26_" d="M496.2,343.2c0-7.4,4.3-14.2,13.3-14.2c9.9,0,13.3,7.2,13.3,14.6v6.4h-26.6V343.2z M522.6,373.2
					c-0.8,6.3-4.5,11.8-13.1,11.8c-9,0-13.3-6.8-13.3-14.2v-9.5h42.1V345c0-17.5-11.2-28-28.3-28c-16.4,0-30,10.8-30,30.7v18.8
					c0,19.9,13.6,30.7,30,30.7c15.7,0,26.5-8.9,28.1-23.9L522.6,373.2z"/>
			</defs>
			<clipPath id="SVGID_27_">
				<use xlink:href="#SVGID_25_"  style="overflow:visible;"/>
			</clipPath>
			<clipPath id="SVGID_28_" class="st13">
				<use xlink:href="#SVGID_26_"  style="overflow:visible;"/>
			</clipPath>
			<g class="st14">
				<rect x="478.1" y="315.1" class="st2" width="62.1" height="84"/>
			</g>
		</g>
		<g>
			<defs>
				<rect id="SVGID_29_" x="124.5" y="261.2" width="1001" height="180.5"/>
			</defs>
			<defs>
				<path id="SVGID_30_" d="M699.9,343.2c0-7.4,4.3-14.2,13.3-14.2c9.9,0,13.3,7.2,13.3,14.6v6.4h-26.6V343.2z M726.3,373.2
					c-0.8,6.3-4.5,11.8-13.1,11.8c-9,0-13.3-6.8-13.3-14.2v-9.5H742V345c0-17.5-11.2-28-28.3-28c-16.4,0-30,10.8-30,30.7v18.8
					c0,19.9,13.6,30.7,30,30.7c15.7,0,26.4-8.9,28.1-23.9L726.3,373.2z"/>
			</defs>
			<clipPath id="SVGID_31_">
				<use xlink:href="#SVGID_29_"  style="overflow:visible;"/>
			</clipPath>
			<clipPath id="SVGID_32_" class="st15">
				<use xlink:href="#SVGID_30_"  style="overflow:visible;"/>
			</clipPath>
			<g class="st16">
				<rect x="681.8" y="315.1" class="st2" width="62.1" height="84"/>
			</g>
		</g>
		<g>
			<defs>
				<rect id="SVGID_33_" x="124.5" y="261.2" width="1001" height="180.5"/>
			</defs>
			<defs>
				<path id="SVGID_34_" d="M1001.9,345c0-9.9,5.3-21.2,18.9-21.2c14.8,0,19.2,10.6,19.2,20.7v10h-38.1L1001.9,345L1001.9,345z
					 M1039.9,370.6v1.6c0,10-4.4,20.6-19.2,20.6c-13.6,0-18.9-11.4-18.9-21.2v-13.3h38.1v0.1h4.3V345c0-15.5-7.8-25.2-22.4-25.2
					s-24.5,9.6-24.5,26.9v23.5c0,17.2,9.9,26.9,24.5,26.9c14.6,0,22.4-9.8,22.4-25.2v-1.1L1039.9,370.6z"/>
			</defs>
			<clipPath id="SVGID_35_">
				<use xlink:href="#SVGID_33_"  style="overflow:visible;"/>
			</clipPath>
			<clipPath id="SVGID_36_" class="st17">
				<use xlink:href="#SVGID_34_"  style="overflow:visible;"/>
			</clipPath>
			<g class="st18">
				<rect x="995.4" y="317.9" class="st2" width="50.8" height="81"/>
			</g>
		</g>
		<g>
			<defs>
				<rect id="SVGID_37_" x="124.5" y="261.2" width="1001" height="180.5"/>
			</defs>
			<clipPath id="SVGID_38_">
				<use xlink:href="#SVGID_37_"  style="overflow:visible;"/>
			</clipPath>
			<g class="st19">
				<path class="st20" d="M124.8,346.2c0.3-0.7,0.4-1.5,0.4-2.2c1.3-15,6.3-29.3,14.6-41.9c2.8-4.2,6-8.2,9.5-11.9
					c13-13.8,30-23.2,48.6-26.9c6.9-1.4,14-1.9,21-1.6c8,0.4,16,1.8,23.6,4.2c8,2.5,15.6,6.2,22.6,10.9c20.4,13.6,34.4,34.9,38.7,59
					c1.1,6.2,1.6,12.4,1.4,18.7c-0.1,3.2-0.4,6.5-0.8,9.7c-0.2,1.3-0.3,1.4-1.6,1.5H200.6c-0.5,0-1,0-1.5,0c-0.8-0.1-0.9-0.2-1-1
					c0-0.3,0-0.7,0-1v-23.5c0-1.9,0-1.9,1.9-1.9h70.4c2.2,0,2.3,0.3,1.6-2.1c-4.3-15.6-14.9-28.7-29.2-36.3
					c-6.3-3.4-13.2-5.6-20.2-6.4c-5.1-0.6-10.2-0.6-15.3,0.1c-13.6,1.8-26.2,8.3-35.5,18.4c-7.3,7.9-12.3,17.7-14.5,28.2
					c-1,5-1.4,10.2-1.1,15.3c2,32.6,30,57.4,62.6,55.5c4.8-0.3,9.5-1.2,14.1-2.6c13-4.1,24.2-12.6,31.6-24c0.5-0.8,1.4-1.3,2.3-1.2
					c10.5,0,21,0,31.5,0c0.3,0,0.5,0,0.8,0c0.5,0.1,0.7,0.3,0.5,0.8c-0.1,0.2-0.2,0.5-0.3,0.7c-3.5,9.1-8.5,17.6-14.9,25.1
					c-8.6,10.4-19.5,18.7-31.8,24.4c-8.5,3.9-17.6,6.4-26.9,7.5c-1,0-2,0.1-3,0.4H208c-0.2-0.1-0.5-0.1-0.7-0.2
					c-2.7-0.2-5.4-0.5-8-1c-8.2-1.4-16.3-4-23.8-7.7c-5.7-2.8-11-6.1-16-10c-7.5-5.9-14.1-13-19.4-20.9c-4.8-7.2-8.6-15.1-11.2-23.3
					c-2-6.2-3.2-12.5-3.7-19c0-0.7-0.1-1.4-0.4-2L124.8,346.2z"/>
				<path class="st21" d="M342.9,442c-1.1-0.3-2.3-0.4-3.4-0.4c-9.3-1-18.4-3.5-26.9-7.4c-6.9-3.1-13.4-7.1-19.4-11.9
					c-0.7-0.5-1.3-1.1-2-1.6c-0.8-0.7-0.8-0.7-0.1-1.6c1-1.3,2.1-2.5,3.1-3.8c4.5-5.6,8.3-11.6,11.5-18c0.5-1,0.9-1.9,1.4-2.9
					c0.4-0.8,0.6-0.8,1.2-0.2c1.9,1.8,3.9,3.5,6,5c7.5,5.6,16.2,9.4,25.4,10.9c4.9,0.8,9.9,1,14.9,0.6c5.8-0.4,11.5-1.8,16.9-3.9
					c11.5-4.6,21.3-12.7,28-23.2c4.2-6.6,7-13.9,8.4-21.6c0.9-5.1,1.1-10.2,0.6-15.3c-0.5-6.2-2-12.3-4.5-18
					c-5.6-13.1-15.8-23.8-28.6-30c-6.1-3-12.6-4.8-19.4-5.5c-16.3-1.8-32.5,3.2-44.9,13.9c-0.9,0.8-1.8,1.7-2.7,2.5
					c-0.7,0.7-0.9,0.6-1.3-0.2c-0.9-2-1.9-3.8-2.9-5.7c-3.3-6.2-7.3-12-11.9-17.4c-0.4-0.5-0.8-1-1.2-1.5c-0.7-0.8-0.7-0.8,0.1-1.6
					c1.7-1.5,3.6-2.9,5.4-4.3c7.4-5.4,15.6-9.6,24.3-12.5c6.5-2.2,13.2-3.6,20-4.3c3.4-0.4,6.8-0.5,10.2-0.4
					c8.2,0.2,16.4,1.4,24.3,3.8c24.5,7.4,44.8,24.8,55.8,47.9c4.2,8.8,6.9,18.3,8,28.1c0.3,2.8,0.5,5.5,0.5,8.3
					c0.2,8.1-0.6,16.1-2.6,24c-2.4,9.5-6.3,18.6-11.5,26.8c-4.3,6.7-9.4,12.7-15.2,18.1c-12,10.9-26.7,18.4-42.6,21.7
					c-3.4,0.7-6.9,1.2-10.4,1.5c-0.3,0-0.7,0.1-1,0.2L342.9,442z"/>
				<path class="st2" d="M675.3,395.9c-0.1,0.4-0.2,0.8-0.2,1.3c-0.2,5.8-2.3,11.4-6,15.9c-2.7,3.2-6.1,5.6-10,7
					c-5.9,2.2-12.3,3-18.6,2.4c-4.8-0.4-9.5-1.9-13.5-4.6c-4.6-3-7.9-7.5-9.6-12.8c-0.1-0.2-0.1-0.5-0.2-0.8
					c-0.1-0.3,0.1-0.6,0.4-0.7c0,0,0.1,0,0.2,0c0.3,0,0.6-0.1,0.9,0c4.4,0,8.8,0,13.2,0c0.8-0.1,1.6,0.3,2,1.1c2,3.4,5.1,4.9,9,5.4
					c2.6,0.2,5.1,0,7.6-0.8c4.9-1.2,8.4-5.6,8.6-10.6c0.4-4.7,0.1-9.4,0.2-14.1c0-1.3,0-2.5,0-3.8c-0.5,0-0.5,0.4-0.7,0.6
					c-3.9,6.8-9.6,11.1-17.5,11.9c-6.3,0.7-12.2-0.5-17.4-4.5c-3.1-2.4-5.3-5.8-6.4-9.5c-0.9-2.9-1.3-6-1.3-9.1
					c-0.1-9.4-0.1-18.9,0-28.3c-0.1-4.2,0.8-8.3,2.6-12c1.9-3.7,4.9-6.9,8.5-9c4.8-3,10.4-4.2,16-3.5c7.5,1,13.5,4.4,17.4,11.2
					c0.1,0.1,0.1,0.3,0.4,0.4c0.1-0.3,0.2-0.7,0.1-1.1c0.2-2.6,0.3-5.2,0.5-7.8c0.1-1,0.2-1.2,1.1-1.2c4,0,7.9,0,11.9,0
					c0.3,0,0.6,0.1,0.9,0.2L675.3,395.9z M632.3,355.6L632.3,355.6c0,4,0,8,0,12c0,1.3,0.1,2.6,0.3,3.8c0.2,2.3,1.1,4.5,2.6,6.3
					c2.8,3.1,6.5,3.7,10.3,3.1c3.7-0.6,6.5-2.8,8.7-5.7c3-3.7,4.6-8.4,4.6-13.1c0.1-5.5,0-10.9,0-16.4c0-1-0.1-2-0.3-2.9
					c-1.4-6.5-5.1-11-11.5-13.1c-6.7-2.1-12.5,1.4-14.2,8.1c-0.4,1.7-0.6,3.5-0.6,5.3C632.3,347.2,632.3,351.4,632.3,355.6
					L632.3,355.6z"/>
				<path d="M124.8,97c0.3-0.7,0.4-1.5,0.4-2.2c1.3-15,6.3-29.3,14.6-41.8c2.8-4.2,6-8.2,9.5-11.9c13-13.8,30-23.3,48.6-26.9
					c6.9-1.4,14-1.9,21-1.6c8,0.4,16,1.8,23.6,4.2c8,2.5,15.6,6.2,22.6,10.9c6.9,4.6,13.2,10.2,18.6,16.5
					c4.9,5.8,9.1,12.1,12.4,18.9c3.6,7.4,6.2,15.4,7.7,23.5c1.1,6.2,1.6,12.4,1.4,18.7c-0.1,3.2-0.4,6.5-0.8,9.7
					c-0.2,1.3-0.3,1.4-1.6,1.4c-0.3,0-0.7,0-1,0H200.6c-0.5,0-1,0-1.5,0c-0.8-0.1-0.9-0.2-1-1c0-0.3,0-0.7,0-1V90.9
					c0-1.9,0-1.9,1.9-1.9c23.5,0,46.9,0,70.4,0c2.2,0,2.3,0.3,1.6-2.2c-4.3-15.6-14.9-28.7-29.2-36.3c-6.3-3.4-13.2-5.6-20.2-6.5
					c-5.1-0.6-10.2-0.6-15.3,0.1c-13.6,1.8-26.2,8.3-35.5,18.4c-7.3,7.9-12.3,17.7-14.5,28.2c-1,5-1.4,10.2-1.1,15.3
					c1.9,32.6,29.9,57.4,62.5,55.5c4.8-0.3,9.5-1.2,14.1-2.6c6.7-2.1,13-5.4,18.6-9.8c5.1-4,9.5-8.8,13-14.2
					c0.5-0.8,1.4-1.3,2.3-1.2c10.5,0,21,0,31.5,0c0.3,0,0.5,0,0.8,0c0.5,0.1,0.7,0.3,0.5,0.8c-0.1,0.2-0.2,0.5-0.3,0.7
					c-3.5,9.1-8.5,17.6-14.9,25.1c-8.7,10.4-19.5,18.7-31.8,24.3c-8.5,3.9-17.6,6.4-26.9,7.5c-1,0-2,0.2-3,0.4H208
					c-0.2-0.1-0.5-0.1-0.7-0.2c-2.7-0.2-5.4-0.5-8-1c-8.2-1.4-16.3-4-23.8-7.7c-5.7-2.8-11-6.1-16-10c-7.5-5.9-14.1-13-19.4-20.9
					c-4.8-7.2-8.6-15.1-11.2-23.4c-2-6.2-3.2-12.5-3.7-19c0-0.7-0.1-1.4-0.4-2L124.8,97z"/>
				<path d="M342.9,192.8c-1.1-0.3-2.3-0.4-3.4-0.4c-9.3-1-18.4-3.5-26.9-7.4c-6.9-3.2-13.4-7.2-19.4-11.9c-0.7-0.5-1.3-1.1-2-1.6
					c-0.8-0.7-0.8-0.7-0.1-1.6c1-1.3,2.1-2.5,3.1-3.8c4.5-5.6,8.3-11.6,11.5-18c0.5-0.9,0.9-1.9,1.4-2.9c0.4-0.8,0.6-0.8,1.2-0.2
					c1.9,1.8,3.9,3.5,6,5.1c7.5,5.6,16.2,9.4,25.4,10.9c4.9,0.8,9.9,1,14.9,0.6c5.8-0.5,11.5-1.8,16.9-3.9
					c11.5-4.6,21.3-12.7,28-23.2c4.2-6.6,7-13.9,8.4-21.6c0.9-5.1,1.1-10.2,0.6-15.3c-0.5-6.2-2-12.3-4.5-18
					c-5.6-13.1-15.8-23.8-28.6-30c-6.1-3-12.6-4.8-19.3-5.4c-16.3-1.8-32.5,3.3-44.9,14c-0.9,0.8-1.8,1.7-2.7,2.5
					c-0.7,0.7-0.9,0.7-1.3-0.2c-0.9-2-1.9-3.8-2.9-5.7c-3.3-6.2-7.3-12-11.9-17.4l-1.2-1.5c-0.7-0.8-0.7-0.8,0.1-1.6
					c1.7-1.5,3.6-2.9,5.4-4.3c7.4-5.4,15.6-9.7,24.3-12.6c6.5-2.2,13.2-3.6,20-4.3c3.4-0.4,6.8-0.5,10.2-0.4
					c8.2,0.2,16.4,1.4,24.3,3.8c34.6,10.3,59.6,40.2,63.8,76c0.3,2.8,0.5,5.5,0.5,8.3c0.2,8.1-0.6,16.2-2.6,24
					c-2.4,9.5-6.3,18.6-11.5,26.8c-13.1,20.5-33.9,34.9-57.8,39.8c-3.4,0.7-6.9,1.2-10.4,1.5c-0.3,0-0.7,0.1-1,0.2L342.9,192.8z"/>
				<path d="M675.3,146.6c-0.1,0.4-0.2,0.8-0.2,1.3c-0.2,5.8-2.3,11.4-6,15.9c-2.7,3.2-6.1,5.6-10,7c-5.9,2.2-12.3,3-18.6,2.4
					c-4.8-0.4-9.5-1.9-13.5-4.6c-4.6-3-7.9-7.5-9.6-12.8c-0.1-0.2-0.1-0.5-0.2-0.7c-0.1-0.3,0.1-0.6,0.4-0.7c0.1,0,0.1,0,0.2,0
					c0.3,0,0.6-0.1,0.9-0.1c4.4,0,8.8,0,13.2,0c0.8-0.1,1.6,0.3,2,1.1c2,3.4,5.1,4.9,9,5.4c2.6,0.2,5.1,0,7.6-0.8
					c4.9-1.2,8.4-5.6,8.6-10.6c0.4-4.7,0.1-9.4,0.2-14.1c0-1.3,0-2.6,0-3.8c-0.5,0-0.5,0.4-0.7,0.6c-3.9,6.8-9.6,11-17.5,11.9
					c-6.3,0.7-12.2-0.5-17.4-4.5c-3.1-2.4-5.3-5.8-6.4-9.5c-0.9-2.9-1.3-6-1.3-9.1c-0.1-9.4-0.1-18.9,0-28.3
					c-0.1-4.2,0.8-8.3,2.6-12c1.9-3.7,4.9-6.9,8.5-9c4.8-3,10.4-4.2,16-3.4c7.5,1,13.5,4.4,17.4,11.2c0.1,0.1,0.1,0.3,0.4,0.4
					c0.1-0.3,0.2-0.7,0.1-1.1c0.2-2.6,0.3-5.2,0.5-7.8c0.1-1,0.2-1.2,1.1-1.2c4,0,7.9,0,11.9,0c0.3,0,0.6,0.1,0.9,0.2L675.3,146.6z
					 M632.3,106.3L632.3,106.3c0,4,0,8,0,12c0,1.3,0.1,2.6,0.3,3.8c0.2,2.3,1.1,4.5,2.6,6.3c2.8,3.1,6.5,3.7,10.3,3.1
					c3.7-0.6,6.5-2.8,8.7-5.7c3-3.8,4.6-8.4,4.6-13.2c0.1-5.5,0-10.9,0-16.4c0-1-0.1-2-0.3-2.9c-1.4-6.5-5.1-11-11.5-13.1
					c-6.7-2.1-12.5,1.4-14.2,8.1c-0.4,1.7-0.6,3.5-0.6,5.3C632.3,98,632.3,102.2,632.3,106.3L632.3,106.3z"/>
				<path d="M590.3,77.8c0.2-0.5,0.3-1.1,0.2-1.7c0-11,0-21.9,0-32.9c0-2.5,0.2-2.2,2.2-2.2h12.4c0.3,0,0.7,0,1,0
					c0.4-0.1,0.9,0.2,1,0.6c0,0.1,0,0.2,0,0.3c0,0.4,0,0.8,0,1.2v101.3c0,2.1,0,2.1-2,2.1H594c-0.3,0-0.6,0-0.9,0
					c-0.8-0.1-1-0.2-1.1-1s-0.2-1.6-0.2-2.4c-0.1-2.1-0.2-4.3-0.3-6.4c0-0.7-0.1-1.4-0.3-2.1c-0.5,0.2-0.6,0.6-0.8,1
					c-2.2,3.7-5.2,6.9-8.9,9.2c-4.6,2.8-10,4-15.3,3.2c-4.1-0.4-7.9-2.1-11-4.8c-2.3-2.1-4.2-4.8-5.3-7.7c-1.3-3.2-2.1-6.7-2.1-10.2
					c0-11.2-0.2-22.4,0-33.5c0-7.7,3.6-14.9,9.8-19.4c3.8-2.8,8.3-4.4,13-4.5c6.5-0.2,11.9,2.2,16.6,6.4
					C588.3,75.5,589.4,76.6,590.3,77.8z M590.8,107.4L590.8,107.4c0-3.3,0-6.7,0-10c0-2.3-0.4-4.5-1.3-6.6
					c-2.2-5.2-5.8-8.9-11.2-10.5c-6.7-2-12.3,1.4-13.8,8.2c-0.4,1.8-0.5,3.6-0.5,5.3c0,9.4,0,18.9,0,28.3c0,1.9,0.2,3.7,0.7,5.6
					c0.8,3.7,3.8,6.6,7.5,7.2c5.6,1.2,10.3-0.7,14-5c3-3.5,4.7-8.1,4.6-12.7C590.8,114,590.8,110.7,590.8,107.4z"/>
				<path d="M517.8,112.6h-18.6c-0.3,0-0.6,0-0.9,0c-1.4,0-1.5,0.1-1.5,1.4c0,2.7,0,5.4,0,8.1c0,1.1,0.1,2.1,0.3,3.2
					c1.2,6.2,5.6,10.4,12.3,10.6c1.2,0,2.5-0.1,3.7-0.3c4.1-0.6,7.5-3.5,8.8-7.4c0.4-1,0.7-2,0.8-3c0.2-1.1,0.3-1.2,1.4-1.2
					c4.4,0,8.8,0,13.2,0c1.2,0,1.3,0.1,1.1,1.3c-0.7,6.1-3.5,11.7-7.9,15.9c-3.3,3-7.4,5.1-11.8,6c-5.5,1.3-11.2,1.3-16.7-0.1
					c-7.7-1.7-14.2-6.7-17.9-13.6c-1.8-3.3-2.9-6.9-3.3-10.6c-0.3-2.9-0.5-5.8-0.5-8.7c0-4.6-0.1-9.2,0-13.8c0-2.9,0.2-5.7,0.7-8.5
					c0.9-5.6,3.5-10.9,7.4-15.1c4.2-4.4,9.7-7.3,15.7-8.3c5.9-1.2,12.1-0.7,17.8,1.2c7.3,2.4,13,8.2,15.4,15.5
					c1.1,3.2,1.7,6.6,1.7,10.1c0,5.3,0,10.6,0,15.9c0,1.3-0.1,1.4-1.5,1.4C530.8,112.6,524.3,112.6,517.8,112.6z M509.9,101h11.9
					c1.3,0,1.4-0.1,1.4-1.4c0-2.3,0-4.5-0.2-6.8c-0.1-1.9-0.6-3.8-1.3-5.6c-1.4-3.4-4.4-5.9-8-6.6c-2.3-0.5-4.6-0.5-6.9-0.1
					c-3.5,0.6-6.5,2.8-8.1,5.9c-1.1,1.9-1.7,4.1-1.8,6.3c-0.1,2.3,0,4.6,0,6.9c0,0.2,0,0.3,0,0.5c0,0.4,0.3,0.7,0.7,0.7
					c0,0,0,0,0.1,0c0.3,0,0.7,0,1,0L509.9,101z"/>
			</g>
		</g>
		<g>
			<defs>
				<rect id="SVGID_39_" x="124.5" y="261.2" width="1001" height="180.5"/>
			</defs>
			<defs>
				<path id="SVGID_40_" d="M1113.5,308.4c0.9,0.1,1.8-0.5,2-1.4c0-0.1,0-0.2,0-0.3c0-1.3-0.8-1.8-2-1.8h-2.1v3.5H1113.5z
					 M1108.1,302.2h5.9c2.6,0,4.9,1.4,4.9,4.2c0.1,1.7-1,3.3-2.6,3.9l3,5.3h-3.6l-2.7-4.8h-1.6v4.8h-3.4L1108.1,302.2L1108.1,302.2z
					 M1122.3,309.2c0-6.1-4.2-10-9.3-10s-9.2,3.8-9.2,10s4.3,9.8,9.2,9.8S1122.3,315.3,1122.3,309.2z M1100.8,309.2
					c-0.1-6.7,5.1-12.2,11.8-12.3c0.1,0,0.3,0,0.4,0c6.6-0.2,12.1,5,12.3,11.7c0,0.2,0,0.5,0,0.7c0.1,6.7-5.2,12.2-11.8,12.3
					c-0.2,0-0.3,0-0.5,0C1105.4,321.6,1100.8,315.9,1100.8,309.2L1100.8,309.2z"/>
			</defs>
			<clipPath id="SVGID_41_">
				<use xlink:href="#SVGID_39_"  style="overflow:visible;"/>
			</clipPath>
			<clipPath id="SVGID_42_" class="st22">
				<use xlink:href="#SVGID_40_"  style="overflow:visible;"/>
			</clipPath>
			<g class="st23">
				<rect x="1098.9" y="295" class="st2" width="28.4" height="28.5"/>
			</g>
		</g>
	</g>
</g>
</svg>
