<svg id="LOGO" xmlns="http://www.w3.org/2000/svg" viewBox="0 0 1250 703">
  <defs>
    <style>
      .cls-1 {
        fill: #223e80;
      }

      .cls-2 {
        fill: #20b283;
      }

      .cls-3 {
        fill: #fff;
      }

      .cls-4 {
        fill: #23b485;
      }

      .cls-5 {
        fill: #2f2929;
      }
    </style>
  </defs>
  <path class="cls-1" d="M279.44,359.5603H244.45377v34.98619H279.44Z"/>
  <path class="cls-2" d="M279.44,316.9269H244.45377V351.913H279.44Z"/>
  <path class="cls-2" d="M279.44,275.37587H244.45377v34.98624H279.44Z"/>
  <path class="cls-3" d="M238.46275,317.24625H203.47661v34.98609h34.98614Z"/>
  <path class="cls-4" d="M238.46275,274.932H203.47661v34.98624h34.98614Z"/>
  <path class="cls-1" d="M238.46275,359.5603H203.47661v34.98619h34.98614Z"/>
  <path class="cls-1" d="M197.55,317.24625H162.56372v34.98609H197.55Z"/>
  <path class="cls-1" d="M197.55,274.927H162.56372v34.98624H197.55Z"/>
  <path class="cls-1" d="M197.55,359.5603H162.56372v34.98619H197.55Z"/>
  <path class="cls-5" d="M385.09944,421.887V384.60643a30.97186,30.97186,0,0,1-12.04438,11.66223,40.32027,40.32027,0,0,1-16.56918,3.37739q-18.06654,0-28.99567-14.27484-10.89769-13.95606-10.89745-38.42744,0-23.32421,10.89745-37.66286a35.97857,35.97857,0,0,1,15.03962-10.3875,54.09886,54.09886,0,0,1,19.18179-3.56871,62.10824,62.10824,0,0,1,33.52049,9.62277c10.25988,6.37275,15.42175,18.41742,15.42175,35.94193v93.74283H397.84471A12.72836,12.72836,0,0,1,385.09944,421.887Zm-42.88839-73.79627c0,9.04912,1.9117,16.18705,5.67172,21.47613a17.91931,17.91931,0,0,0,15.42175,7.90219c7.01023,0,12.427-2.6126,16.18705-7.90219,3.75952-4.77974,5.67172-11.91717,5.67172-21.47613,0-9.81389-1.78448-17.33344-5.28959-22.55917-3.76-5.28959-9.0491-7.90231-15.80439-7.90231-7.00971,0-12.42651,2.61272-16.18654,7.90231C344.05888,330.75724,342.21105,338.27679,342.21105,348.09068Z"/>
  <path class="cls-5" d="M511.47075,297.61806V356.3745q0,26.76571-13.95605,34.98619a58.40272,58.40272,0,0,1-30.52522,8.28432,60.51689,60.51689,0,0,1-29.56939-9.0491q-13.38285-8.316-13.38285-34.28527V297.61806H450.4203v63.98217c0,6.05385,1.72062,10.3876,5.28959,13.19128a19.04659,19.04659,0,0,0,12.04436,4.14217,19.84213,19.84213,0,0,0,12.23544-4.14217c3.63231-2.74033,5.48066-7.13743,5.48066-13.19128v-51.173a12.87529,12.87529,0,0,1,3.56845-9.04927,12.244,12.244,0,0,1,9.24071-3.75988Z"/>
  <path class="cls-5" d="M588.51466,393.655a46.96978,46.96978,0,0,1-16.76025,5.09853,147.64134,147.64134,0,0,1-15.61283.95584A39.23662,39.23662,0,0,1,532.435,392.3809c-6.75528-4.90694-10.19652-13.00072-10.19652-24.28031,0-10.51481,3.05913-18.09822,9.24067-22.55917,6.18159-4.52481,14.01995-7.52007,23.515-9.04962a21.88867,21.88867,0,0,0,4.52482-.57321,57.87233,57.87233,0,0,1,6.05385-.95584c11.02518-1.52956,16.56918-4.77974,16.56918-9.8144,0-3.75952-1.97554-6.18138-5.86277-7.32844a38.076,38.076,0,0,0-10.70641-1.72062,27.36421,27.36421,0,0,0-9.43124,1.52945,10.38578,10.38578,0,0,0-6.05436,5.67178H524.85158a29.163,29.163,0,0,1,10.51478-19.18194c6.75481-5.73548,16.44148-8.66693,28.99569-8.66693,14.08379,0,24.59857,2.42164,31.60882,7.13747,7.26513,5.03446,10.89744,12.04442,10.89744,21.09353v34.28526c0,10.06883-1.84835,17.90767-5.48066,23.51554A32.07614,32.07614,0,0,1,588.51466,393.655Zm-6.05389-46.32963a70.75458,70.75458,0,0,1-14.65748,4.90695l-8.66647,1.9122c-4.52478,1.27463-7.775,2.86753-9.81441,4.90694a15.07209,15.07209,0,0,0-2.61257,8.28433,12.41425,12.41425,0,0,0,3.37738,9.04912c2.23047,2.03941,5.54452,2.99525,9.81386,2.99525,7.01025,0,12.55425-1.97555,16.56918-6.05385,4.015-4.015,6.0544-9.559,6.0544-16.56919v-9.43175Z"/>
  <path class="cls-5" d="M709.91877,397.79822H696.72442a12.23372,12.23372,0,0,1-12.80811-12.80966V333.752c0-5.99-1.84887-10.38709-5.47964-13.19128a19.84617,19.84617,0,0,0-12.23646-4.14231,19.04768,19.04768,0,0,0-12.04436,4.14231c-3.50513,2.74033-5.28959,7.13742-5.28959,13.19128v64.04624H622.48318V339.04157q0-25.61854,13.38287-34.28527a58.186,58.186,0,0,1,29.56939-9.4316,56.63346,56.63346,0,0,1,30.52676,8.66688q13.95142,8.69879,13.95657,34.98613Z"/>
  <path class="cls-5" d="M770.39554,397.79719a192.03089,192.03089,0,0,1-26.89343-.38265c-9.68722-.76478-14.46642-6.88249-14.46642-18.48086V268.30339h13.57544a12.09983,12.09983,0,0,1,8.66753,3.75991,12.43068,12.43068,0,0,1,3.7595,9.04923V298.064h15.41919v5.28933a12.33308,12.33308,0,0,1-3.75954,9.24044,12.75518,12.75518,0,0,1-9.04857,3.56871h-2.61108v55.69763c0,4.26989,2.48232,6.37264,7.519,6.37264h7.90016v19.56444Z"/>
  <path class="cls-5" d="M790.97506,297.61806h11.79352a10.08021,10.08021,0,0,1,7.83836,3.75988,13.50471,13.50471,0,0,1,3.24965,9.04927v87.37H790.97506Z"/>
  <path class="cls-5" d="M863.55953,421.88747a12.83688,12.83688,0,0,1-12.80811,12.80914H837.94331V340.95378q0-26.38333,15.41912-35.94219a62.512,62.512,0,0,1,33.52153-9.62277,54.68444,54.68444,0,0,1,18.99331,3.56871A35.29445,35.29445,0,0,1,921.1059,309.345q11.2785,14.721,11.27857,37.6626,0,23.70662-11.27857,38.42744c-7.51907,9.55947-17.20625,14.27535-28.99467,14.27535a38.64172,38.64172,0,0,1-16.56761-3.3779,27.899,27.899,0,0,1-12.04593-11.66171v37.21666Zm42.9512-73.79627c0-9.81389-1.91067-17.334-5.67017-22.55969-3.75957-5.28908-9.17733-7.90194-16.18656-7.90194-6.75681,0-12.04593,2.61286-15.80543,7.90194-3.502,4.77974-5.289,12.2998-5.289,22.55969,0,9.559,1.9106,16.69638,5.67528,21.47612,3.75958,5.28908,9.17223,7.9022,16.18656,7.9022a17.9162,17.9162,0,0,0,15.41919-7.9022C904.60006,364.27773,906.51073,357.14031,906.51073,348.0912Z"/>
  <path class="cls-5" d="M1011.73091,325.91261a17.931,17.931,0,0,0-15.4243-7.902c-7.00923,0-12.42706,2.48519-16.18656,7.51986-3.7595,5.03415-5.67017,11.91716-5.67017,20.71134v51.55537H948.82847V268.30339h12.80811a12.83652,12.83652,0,0,1,12.8133,12.80914v29.76061a30.02664,30.02664,0,0,1,19.17869-14.3386,38.01952,38.01952,0,0,1,23.70556,1.52946,42.52722,42.52722,0,0,1,17.7161,14.27489c4.78438,6.50016,7.13794,15.54927,7.13794,27.08378v58.37452H1016.953v-51.938a53.14269,53.14269,0,0,0-.95274-10.38709A25.26171,25.26171,0,0,0,1011.73091,325.91261Z"/>
  <path class="cls-5" d="M790.97506,279.74242a11.44077,11.44077,0,1,0,11.44332-11.439A11.44176,11.44176,0,0,0,790.97506,279.74242Z"/>
  <path class="cls-5" d="M1064.55985,297.80789h11.78842a10.08038,10.08038,0,0,1,7.83836,3.75993,13.47863,13.47863,0,0,1,3.24965,9.04927v87.37013h-22.87643Z"/>
  <path class="cls-5" d="M1064.55985,279.87066a11.43822,11.43822,0,1,0,11.43825-11.439A11.43741,11.43741,0,0,0,1064.55985,279.87066Z"/>
</svg>
