<?xml version="1.0" encoding="UTF-8"?><svg id="PASTE_LOGO_HERE" xmlns="http://www.w3.org/2000/svg" viewBox="0 0 1250 703"><defs><style>.cls-1{fill:#94999f;}.cls-1,.cls-2{stroke-width:0px;}.cls-2{fill:#ea1d2c;}</style></defs><g id="Layer_1-2"><path class="cls-2" d="m428.13324,514.62944l-18.87891-39.76763-.13399.134v39.63365h-9.62034v-47.86052h15.24784l18.20897,37.65064.13399-.134v-37.50325h9.60694v47.86052h-14.5779l.0134-.01341Z"/><path class="cls-2" d="m490.26347,466.76892h32.06333v7.95889h-21.79985v11.2014h20.40637v7.94548h-20.40637v12.80925h22.52338v7.94548h-32.80026v-47.86052l.0134.00002Z"/><path class="cls-2" d="m578.70896,514.62944h-11.01382l16.82889-24.80117-15.68999-23.05934h12.66187l9.67394,16.23934,10.33048-16.23934h11.00042l-15.77039,23.00574,16.70831,24.85478h-12.59486l-10.67885-18.03479-11.45598,18.03479h-.00002Z"/><path class="cls-2" d="m655.08212,466.76892h38.76272v7.95889h-14.24293v39.90163h-10.27688v-39.90163h-14.24293v-7.95889h.00002Z"/><path class="cls-1" d="m753.38911,466.76892c15.71681,0,24.65378,8.09287,24.65378,23.93026s-8.93702,23.93026-24.65378,23.93026h-12.91644v-47.86052h12.91644Zm1.07193,43.88107c13.45241,0,18.95929-7.89189,18.95929-19.95081,0-14.10894-8.29386-20.33939-21.88022-19.93742h-6.75301v39.88823h9.67394Z"/><path class="cls-1" d="m847.34149,477.98371c-.80394-5.84188-5.82849-8.22686-11.2684-8.22686-12.25989,0-15.97139,11.12101-15.97139,20.92892s3.71145,20.94233,15.97139,20.94233c5.30591,0,10.61187-2.65296,11.79093-8.60203h4.63597c-1.39349,7.99909-8.74942,12.58147-16.44031,12.58147-14.51088,0-20.60736-11.67036-20.60736-24.92178s6.16346-24.90837,20.60736-24.90837c7.81148,0,15.23443,3.57748,15.90437,12.20631h-4.63597.01341Z"/><path class="cls-1" d="m451.50075,227.17158l30.52247,10.65205v91.21904l-30.52247-14.52429v-87.34679m8.28045,11.65695v70.4509l13.96155,6.6458v-72.21954l-13.96155-4.87716h0Z"/><path class="cls-1" d="m542.5322,258.99373l30.50907,10.66545v102.70181l-30.50907-14.52429v-98.84296m8.28046,11.65696v81.96046l13.96155,6.64581v-83.72911l-13.96155-4.87716h0Z"/><path class="cls-1" d="m497.01647,243.06255l30.52247,10.67885v96.96712l-30.52247-14.5377v-93.10827m8.28046,11.67036v76.21238l13.96155,6.6458v-77.96762l-13.96155-4.89056h0Z"/><path class="cls-1" d="m588.04792,274.8847l30.50907,10.66544v108.44989l-30.50907-14.5109v-104.60444m8.28045,11.67035v87.69515l13.94816,6.64581v-89.47719l-13.94816-4.87716h0v.01339Z"/><path class="cls-2" d="m618.557,176.6045v58.45897l-30.50907,9.52655v-59.58447l30.50907-8.40105"/><path class="cls-2" d="m573.04127,189.10558v60.16062l-8.26706,2.57257-22.24201-7.74451v-46.58763l30.50906-8.40105"/><path class="cls-1" d="m527.53893,201.63346v38.95031l-30.52247-10.66544v-19.91062l30.52247-8.38765m-8.28046,10.87983l-13.96155,3.83206v7.71771l13.96155,4.86377v-16.41353h0Z"/><polyline class="cls-1" points="482.02321 214.21493 482.02321 224.6794 465.12732 218.77053 469.41494 217.60483 482.02321 214.21493"/><path class="cls-1" d="m800.4993,227.17158v87.34679l-30.50905,14.52429v-91.21904l30.50905-10.65205m-8.28045,11.65696l-13.96157,4.87716v72.21953l13.96157-6.6458v-70.4509h0Z"/><path class="cls-2" d="m709.46785,258.99373v98.84294l-30.52247,14.52429v-102.70181l30.52247-10.66544"/><path class="cls-1" d="m754.99698,243.06255v93.10826l-30.53588,14.53771v-96.96712l30.53588-10.67885m-8.28045,11.67036l-13.96155,4.89056v77.96762l13.96155-6.65921v-76.19898h0Z"/><path class="cls-2" d="m663.96553,274.8847v104.60444l-30.50907,14.5109v-108.44989l30.50907-10.66544"/><path class="cls-1" d="m633.44306,176.6045l30.50907,8.40105v59.58447l-30.50907-9.52655v-58.45897m8.28045,10.86643v41.48269l13.96155,4.38141v-42.03204l-13.96155-3.83206h0Z"/><path class="cls-1" d="m678.95879,189.10558l30.52247,8.40105v46.58763l-22.24202,7.74451-8.28045-2.57257v-60.16062m8.28045,10.87983v43.10394l13.96155-4.86377v-34.39472l-13.96155-3.83206h0v-.01339Z"/><path class="cls-1" d="m724.46111,201.63346l30.53588,8.38765v19.91062l-30.53588,10.66544v-38.95031m8.29386,10.85303v16.41353l13.96157-4.86377v-7.71771l-13.96155-3.83206h-.00002Z"/><polyline class="cls-1" points="769.99025 214.21493 782.59852 217.60483 786.8727 218.77053 769.99025 224.6794 769.99025 214.21493"/></g></svg>