<?xml version="1.0" encoding="utf-8"?>
<!-- Generator: Adobe Illustrator 23.0.3, SVG Export Plug-In . SVG Version: 6.00 Build 0)  -->
<svg version="1.1" id="Layer_1" xmlns="http://www.w3.org/2000/svg" xmlns:xlink="http://www.w3.org/1999/xlink" x="0px" y="0px"
	 viewBox="0 0 1250 703" style="enable-background:new 0 0 1250 703;" xml:space="preserve">
<style type="text/css">
	.st0{fill:#0066A1;}
</style>
<title>nvidia-partner-atos-logo</title>
<g id="LOGO">
	<path id="path2987" class="st0" d="M704.9,469.8c-21.9-1.6-42.7-10.4-59.2-24.8c-1-0.9-2-1.8-2.2-2c-0.2-0.3-0.5-0.5-0.8-0.7
		l-0.5-0.3l-2,2.2c-6.7,7.2-14.7,13.1-23.6,17.3c-14.9,7.1-31.5,9.8-47.8,7.7c-23.1-2.6-40.5-13.7-49.1-31.4
		c-3.8-7.8-6-16.9-6.6-27.2c-0.1-1.9-0.2-21.2-0.2-51.5v-48.5h-34.4l0-18l0-18l17.1,0l17.1,0l0-19.3l0-19.3H560l0,19.3l0,19.3l26,0
		l26,0l0,18l0,18h-52.2V357c0,50.6,0,48.4,1,53c2.1,9.2,7.5,16.6,15,20.3c6.5,3.2,14.3,3.7,23.3,1.5c7.3-1.9,14-5.4,19.7-10.3
		c1.5-1.2,3-2.6,4.3-4.1c0-0.1-0.6-1.4-1.4-2.9c-5.9-11.6-9.5-24.2-10.6-37.2c-0.4-5.4-0.4-10.8-0.1-16.2
		c3-38.4,27.4-71.9,63.2-86.4c2.5-1,6.5-2.4,6.6-2.4c-0.2,0.5-0.5,0.9-0.7,1.4c-6.5,10.8-12.1,33.1-13.2,52.2l-0.2,3.6l-1.2,1.7
		c-6.1,8.8-10,18.9-11.3,29.6c-0.4,5.2-0.4,10.5,0,15.7c1.3,11.3,5.6,22.1,12.5,31.2c8.4,11.3,20.6,19.2,34.4,22.1
		c4.4,0.9,5.5,1,11.2,1c2.6,0.1,5.2,0,7.8-0.4c7.3-1.1,14.4-3.6,20.7-7.5c1.2-0.7,2.4-1.4,2.6-1.6l0.4-0.3l-0.9-0.4
		c-2-0.8-8.9-4.4-11.2-5.7c-45.3-26.9-62.4-83.9-39.5-131.3c1-2,2.4-4.8,3.2-6.2c1.9-3.2,3.9-6.3,6-9.3c0.8-0.7,13-1,19.3-0.4
		c15,1.2,29.5,5.9,42.5,13.5c23,13.4,39.8,35.2,46.8,60.9c2.6,9.3,3.7,18.9,3.5,28.5c0,7.9-1.1,15.7-3.1,23.3
		c-11,42.2-47.6,72.7-91.1,75.9C716.8,470,707.7,470,704.9,469.8L704.9,469.8z M768.5,386.1c0.2-0.8,0.7-2.8,1-4.4
		c2.5-12.3,1.4-25-3.1-36.6c-6.6-17-19.7-29.8-36.2-35.6c-0.7-0.2-1.3-0.5-2-0.6c-0.4,0-2,7-2.6,11.9c-0.3,4.7-0.3,9.4,0,14.1
		c1.6,12.9,6,23.8,13.7,33.4c2.4,2.8,5,5.5,7.7,8c5.5,4.7,11.8,8.4,18.7,10.7c0.7,0.3,1.5,0.5,2.3,0.7
		C768.2,387.1,768.4,386.6,768.5,386.1L768.5,386.1z M885.3,469.8c-23.7-0.8-45.5-5.6-65.9-14.2c-3-1.3-12.4-5.9-13-6.4
		c-0.3-0.2-0.1-0.5,1.5-2.8c6.1-9.2,11.7-18.7,16.8-28.5c1.1-2.2,2.1-4.1,2.2-4.1s1.1,0.4,2.3,0.9c15.5,6.2,31.8,10.6,48.4,13
		c5.5,0.8,11.1,1.2,16.7,1.1c3.2,0.1,6.5,0,9.7-0.3c7.9-1,14.1-2.7,19.6-5.5c7.2-3.6,11.6-8.2,13.1-13.7c0.5-3.1,0.4-6.2-0.1-9.2
		c-1.3-6-5-10.4-12.5-14.9c-3.3-1.9-6.7-3.6-10.1-5.1c-5.3-2.2-9.6-3.8-24.4-8.5c-34.6-11.2-52.1-21.5-62.1-36.6
		c-5.8-8.8-8.8-20-8.8-33c0-14.3,4.3-26.9,12.7-37.5c2.9-3.4,6-6.5,9.4-9.4c10-8.1,22.8-14,37.7-17.3c19.9-4.5,41.7-4.3,70.6,0.6
		c10,1.7,24.7,4.8,24.9,5.3c0.1,0.2-2.4,62.9-2.5,63c0,0-35.5-0.6-36-0.6c0,0,0-7.1,0.1-15.7l0.1-15.7l-2-0.4
		c-11.8-2-23.7-2.2-35.6-0.8c-15,2.1-25.8,7.8-29.9,15.9c-2.6,4.9-2.7,10.8-0.2,15.8c4.8,9.4,19.6,17.8,47.5,26.7
		c21.2,6.8,35.2,12.9,45.4,19.6c12.1,7.9,19.2,16.9,22.8,28.8c2.8,9.3,3.3,22,1.1,32.7c-5.2,25.9-25.5,44.8-57,52.9
		C914.6,469.1,901.3,470.3,885.3,469.8L885.3,469.8z M264.5,451.4V437H284l0.8-2.2c3.5-9.8,60.1-169.9,60.1-170
		c0-0.1-5.5-0.2-12.2-0.2l-12.2,0v-28.6l48.9,0l48.9,0L454,336.4l35.7,100.5l9.2,0l9.2,0l0,14.3l0,14.3h-87.8l0-14.3l0-14.4h9
		c5.1,0,9-0.1,9-0.2c0-0.1-9.1-25.9-10.7-30.2l-0.4-1l-44.3,0l-44.3,0l-5.5,15.6l-5.5,15.6l9.6,0l9.6,0v28.8h-82V451.4z
		 M414.4,369.9c0,0-7-19.7-15.5-43.7s-15.6-44-15.8-44.6l-0.4-1l-0.2,0.5c-0.1,0.3-7.2,20.3-15.7,44.4s-15.6,44-15.6,44.2
		c-0.1,0.3,1.5,0.3,31.6,0.3C400.1,370,414.4,370,414.4,369.9L414.4,369.9z"/>
</g>
</svg>
