<?xml version="1.0" encoding="UTF-8"?><svg id="Logo" xmlns="http://www.w3.org/2000/svg" viewBox="0 0 1250 703"><defs><style>.cls-1,.cls-2{fill:#c03;}.cls-2{fill-rule:evenodd;}</style></defs><rect x="884.5583" y="336.95233" width="15.78822" height="55.93948"/><path d="M892.45144,331.39048c-5.8878,0-9.07723-4.58802-9.07723-9.26955s3.18943-9.27006,9.07723-9.27006c5.88961,0,9.07916,4.58853,9.07916,9.27006s-3.18955,9.26955-9.07916,9.26955Z"/><path d="M927.46367,392.89181h-15.78267v-34.0625c0-13.3224,11.77432-22.57234,25.22699-22.57234h0c13.45268,0,25.22699,9.24994,25.22699,22.57234v34.0625h-15.7828l.00013-32.93555c0-5.91721-3.60734-8.87253-9.52971-8.87253-6.26431,0-9.35893,3.1248-9.35893,8.12802v33.68006Z"/><path d="M807.2516,336.94821h15.78267v34.0625c0,13.3224-11.77419,22.57234-25.22686,22.57234h0c-13.45268,0-25.22699-9.24994-25.22699-22.57234v-34.0625h15.78267v32.93555c0,5.91721,3.60734,8.87253,9.52971,8.87253,6.26431,0,9.3588-3.1248,9.3588-8.12802v-33.68006Z"/><path d="M1025.81578,364.8056c0-14.01866-10.12137-28.54863-27.85017-28.54863-17.81342,0-27.88756,14.61625-27.88756,28.6731,0,14.01105,10.06769,28.64292,27.87015,28.65246l.0191.00039v.00013c8.84078,0,15.94195-2.99608,21.07764-7.56784.84408-.75134,1.638-1.54254,2.37451-2.37308l-10.4966-8.80778c-3.02716,2.64588-7.65052,4.62761-12.29013,4.62491-5.01857-.00297-10.81582-2.70328-13.11357-8.64526h39.93755c.06138-.49105.35908-3.27997.35908-6.0084ZM985.11104,360.23655c1.1027-5.49143,5.86252-9.84353,12.83716-9.84353s11.73446,4.3521,12.83716,9.84353h-25.67431Z"/><path d="M833.84235,392.89181v-14.0473h22.07458c3.59547,0,4.56944-1.93788,4.56944-3.56219,0-1.01602-.46524-2.3131-2.85355-3.12751-1.57685-.53774-10.31639-2.67529-11.78502-3.03193-9.56286-2.32238-13.90051-8.57934-13.90051-15.28105,0-8.38883,5.88833-16.8895,19.04227-16.8895h21.1424v12.98214h-20.49529c-3.18194,0-4.71262,1.20705-4.71262,3.48867,0,1.35293.97281,2.61918,3.48622,3.39438,8.36716,2.58074,24.97985,5.03753,24.97985,19.23832,0,9.40085-5.85349,16.83597-19.4732,16.83597h-22.07458Z"/><path d="M1034.30355,392.89181v-14.0473h22.07471c3.59547,0,4.56944-1.93788,4.56944-3.56219,0-1.01602-.46538-2.3131-2.85355-3.12751-1.57685-.53774-10.31639-2.67529-11.78515-3.03193-9.56273-2.32238-13.90038-8.57934-13.90038-15.28105,0-8.38883,5.88819-16.8895,19.04213-16.8895h21.14242v12.98214h-20.4953c-3.18182,0-4.71262,1.20705-4.71262,3.48867,0,1.35293.97294,2.61918,3.48622,3.39438,8.36716,2.58074,24.97998,5.03753,24.97998,19.23832,0,9.40085-5.85348,16.83597-19.4732,16.83597h-22.07471Z"/><path d="M1083.45206,392.89181v-14.0473h22.07471c3.59547,0,4.56944-1.93788,4.56944-3.56219,0-1.01602-.46538-2.3131-2.85366-3.12751-1.57687-.53774-10.31641-2.67529-11.78504-3.03193-9.56273-2.32238-13.90051-8.57934-13.90051-15.28105,0-8.38883,5.88832-16.8895,19.04226-16.8895h21.14241v12.98214h-20.49529c-3.18182,0-4.71262,1.20705-4.71262,3.48867,0,1.35293.97295,2.61918,3.48622,3.39438,8.36716,2.58074,24.98,5.03753,24.98,19.23832,0,9.40085-5.85351,16.83597-19.47322,16.83597h-22.07471Z"/><path d="M750.55237,351.81762c4.11048-1.92179,11.10303-6.65032,11.10303-18.71134,0-11.99544-8.76595-21.45145-22.99947-21.45145h-33.70782v81.23699h34.40931c11.53097,0,24.56617-5.07252,24.56617-21.82212,0-12.75212-10.03693-18.13605-13.37122-19.25208ZM721.6341,326.66633h14.04514c6.19664,0,8.98221,4.31592,8.98221,9.08708,0,4.78988-3.01406,9.1058-9.19618,9.1058h-13.83117v-18.19288ZM737.82519,377.75515h-16.19109v-17.78806h15.7947c5.56781,0,9.3786,4.34745,9.3786,8.90297,0,4.55594-2.74945,8.88509-8.98221,8.88509Z"/><path class="cls-1" d="M396.22007,363.44903c0,16.49337,11.91825,29.44278,30.74537,29.44278h17.37929v-15.60881h-15.81414c-10.11397,0-15.69247-5.99803-15.69247-13.83397,0-7.83444,5.5785-13.83534,15.69247-13.83534h15.81414v-15.60594h-17.37929c-18.82712,0-30.74537,12.94656-30.74537,29.44128Z"/><path class="cls-1" d="M586.79845,333.27579c-6.36333,0-12.29526,1.28653-19.98444,6.46879-7.68936-5.18226-13.62415-6.46879-19.98748-6.46879-14.16097,0-24.05053,9.73697-24.05053,23.7602v35.85583h16.61369v-35.02413c0-5.99217,3.65541-8.98457,9.65195-8.98457,6.34259,0,9.47573,3.16409,9.47573,8.22904v35.77967h16.59311v-35.77967c0-5.06495,3.1333-8.22904,9.47591-8.22904,5.99651,0,9.64892,2.9924,9.64892,8.98457v35.02413h16.61654v-35.85583c0-14.02323-9.88941-23.7602-24.05339-23.7602Z"/><path class="cls-1" d="M650.7503,333.27579c-19.74082,0-30.89783,15.38727-30.89783,30.18496,0,14.75367,11.157,30.15851,30.89783,30.15851,19.70284,0,30.86268-15.40484,30.86268-30.15851,0-14.79769-11.15984-30.18496-30.86268-30.18496ZM650.72988,378.01196c-9.25297,0-14.26084-7.21109-14.26084-14.56593,0-7.35333,5.00787-14.56292,14.26084-14.56292s14.26657,7.20959,14.26657,14.56292c0,7.35484-5.01373,14.56593-14.26657,14.56593Z"/><path class="cls-1" d="M300.75424,307.38074v29.6062c-4.01621-2.32639-8.8261-3.71116-14.39424-3.71116-19.93159,0-30.52667,15.51645-30.52667,30.18496,0,14.62449,10.59508,30.15851,30.52667,30.15851,14.97359,0,20.5653-7.23452,31.01228-12.0237v-74.21482h-16.61804ZM272.45273,363.44603c0-7.35333,5.00937-14.56292,14.25936-14.56292,9.25434,0,14.09503,6.90302,14.25785,14.18454v.7569c-.16282,7.28154-5.00351,14.18741-14.25785,14.18741-9.24999,0-14.25936-7.21109-14.25936-14.56593Z"/><path class="cls-1" d="M366.6645,307.3866l-.02494,4.02357h-5.83806l.02493,14.62601h-4.31842v-14.62601h-5.8352v-4.02357h15.99169Z"/><path class="cls-1" d="M385.83183,307.3866v4.02357h-5.83955v14.62601h-4.31542v-14.62601h-5.83807v-4.02357h15.99303Z"/><path class="cls-1" d="M334.40685,307.38074l8.48724,11.96361-.0015-11.9549h4.13067v18.64672h-4.52961l-8.43736-11.9241v11.9241h-4.13803v-18.65544h4.48861Z"/><path class="cls-1" d="M357.63155,333.27579c-19.73797,0-30.89782,15.38727-30.89782,30.18496,0,14.75367,11.15985,30.15851,30.89782,30.15851,19.70432,0,30.86418-15.40484,30.86418-30.15851,0-14.79769-11.15986-30.18496-30.86418-30.18496ZM357.61247,378.01196c-9.25149,0-14.25921-7.21109-14.25921-14.56593,0-7.35333,5.00772-14.56292,14.25921-14.56292,9.25449,0,14.26521,7.20959,14.26521,14.56292,0,7.35484-5.01072,14.56593-14.26521,14.56593Z"/><path class="cls-1" d="M482.91282,333.27579c-19.73737,0-30.89933,15.38727-30.89933,30.18496,0,14.75367,11.16196,30.15851,30.89933,30.15851,19.70282,0,30.86253-15.40484,30.86253-30.15851,0-14.79769-11.15971-30.18496-30.86253-30.18496ZM482.89224,378.01196c-9.24999,0-14.26011-7.21109-14.26011-14.56593,0-7.35333,5.01012-14.56292,14.26011-14.56292,9.25285,0,14.26372,7.20959,14.26372,14.56292,0,7.35484-5.01087,14.56593-14.26372,14.56593Z"/><path class="cls-2" d="M191.60621,299.77146c-4.84229,0-9.62223,1.0511-12.98757,2.43101-3.36494-1.37992-8.14209-2.43101-12.98921-2.43101-21.35,0-40.62943,20.19137-40.62943,47.89433,0,30.2057,24.67585,53.56275,53.61864,53.56275,28.94103,0,53.62186-23.35705,53.62186-53.56275,0-27.70296-19.28269-47.89433-40.63429-47.89433h0ZM178.61864,316.22112c4.11478,2.44683,9.54786,9.54141,9.54786,17.53988,0,5.86828-3.87111,10.48693-9.54786,10.48693-5.67503,0-9.54929-4.61865-9.54929-10.48693,0-7.99847,5.43608-15.09304,9.54929-17.53988h0ZM178.61864,388.03536c-22.13305,0-40.43973-17.80095-40.43973-40.63171,0-20.84346,15.04206-35.08366,26.86156-34.55283-5.59911,5.5794-8.99369,13.70643-8.99369,21.57787,0,13.53184,10.74037,23.021,22.57186,23.021,11.83317,0,22.57165-9.48916,22.57165-23.021,0-7.87144-3.3969-15.99847-8.99312-21.57787,11.82072-.53083,26.86159,13.70937,26.86159,34.55283,0,22.83077-18.31126,40.63171-40.44012,40.63171Z"/></svg>