<?xml version="1.0" encoding="utf-8"?>
<!-- Generator: Adobe Illustrator 23.0.2, SVG Export Plug-In . SVG Version: 6.00 Build 0)  -->
<svg version="1.1" id="Layer_1" xmlns="http://www.w3.org/2000/svg" xmlns:xlink="http://www.w3.org/1999/xlink" x="0px" y="0px"
	 viewBox="0 0 610 312" style="enable-background:new 0 0 610 312;" xml:space="preserve">
<style type="text/css">
	.st0{fill:none;}
	.st1{fill:#DDDDDD;}
	.st2{fill:#1A1A1A;}
	.st3{fill:#0C92BD;}
	.st4{fill:#7144B3;}
	.st5{fill:#8BCB1A;}
	.st6{fill:none;stroke:#999999;stroke-linecap:square;}
	.st7{fill:#76B900;}
	.st8{fill:#EEEEEE;}
</style>
<title>Asset 14</title>
<g>
	<g id="Layer_1-2">
		<rect class="st0" width="610" height="312"/>
		<polyline class="st1" points="304.6,48.2 303.5,48.2 303.5,214.2 304.6,214.2 304.6,48.2 		"/>
		<polyline class="st1" points="209.4,48.2 208.4,48.2 208.4,214.2 209.4,214.2 209.4,48.2 		"/>
		<polyline class="st1" points="399.7,48.2 398.7,48.2 398.7,214.2 399.7,214.2 399.7,48.2 		"/>
		<polyline class="st1" points="494.9,48.2 493.9,48.2 493.9,214.2 494.9,214.2 494.9,48.2 		"/>
		<polyline class="st1" points="590.1,48.2 589,48.2 589,214.2 590.1,214.2 590.1,48.2 		"/>
		<g>
			<path class="st2" d="M15.8,148.8c-0.6,0.5-1.4,0.8-2.2,0.8c-0.8,0-1.6-0.2-2.2-0.8c-0.5-0.5-0.7-1.3-0.8-2H12
				c0,0.8,0.6,1.5,1.4,1.5h0.1c0.4,0,0.7-0.1,1.1-0.4c0.4-0.5,0.6-1.2,0.5-1.9c0-1.3-0.3-2.2-1.6-2.2c-0.6-0.1-1.3,0.3-1.5,1h-1.4
				v-5.7h5.7v1.4h-4.2v2.8c0.5-0.4,1.1-0.6,1.7-0.6c0.7,0,1.4,0.2,1.9,0.6c0.6,0.7,1.1,1.8,1,2.9C16.9,147.1,16.5,148,15.8,148.8z"
				/>
			<path class="st2" d="M21.4,149.6c-1.6,0.1-3-1.2-3.1-2.8c0-0.1,0-0.2,0-0.3v-4.7c0.1-1.7,1.6-3,3.2-2.9c1.6,0.1,2.8,1.3,2.9,2.9
				v4.7c0.1,1.6-1.2,3-2.8,3.1C21.6,149.6,21.5,149.6,21.4,149.6z M23,142c0.1-0.8-0.5-1.6-1.4-1.7c-0.8-0.1-1.6,0.5-1.7,1.4
				c0,0.1,0,0.2,0,0.2v4.6c-0.1,0.8,0.4,1.6,1.3,1.8c0.8,0.1,1.6-0.4,1.8-1.3c0-0.1,0-0.3,0-0.4C23,146.5,23,142,23,142z"/>
			<path class="st2" d="M33.8,149.6c-1.1,0-2-0.4-2.8-1.2c-1.1-1.1-1.1-2.2-1.1-4.2c0-2,0-3.2,1.1-4.2c0.7-0.7,1.7-1.2,2.8-1.2
				c1.9-0.1,3.6,1.4,3.8,3.3H36c-0.2-1.2-1.4-2-2.5-1.8c-0.4,0.1-0.8,0.3-1.2,0.6c-0.5,0.5-0.6,1.2-0.6,3.3s0.1,2.8,0.6,3.3
				c0.4,0.4,1,0.6,1.6,0.6c1.1,0,2-0.7,2.1-1.8h1.6C37.3,148.3,35.7,149.7,33.8,149.6z"/>
			<path class="st2" d="M43.7,145.4h-2.4v4.1h-1.6v-10.6h4c1.8,0,3.2,1.4,3.2,3.2S45.5,145.3,43.7,145.4L43.7,145.4z M43.6,140.4
				h-2.3v3.5h2.3c1,0.1,1.8-0.6,1.9-1.6c0.1-1-0.6-1.8-1.6-1.9C43.8,140.4,43.7,140.4,43.6,140.4z"/>
			<path class="st2" d="M52.6,149.6c-2,0.1-3.7-1.4-3.8-3.4c0-0.1,0-0.2,0-0.3v-7h1.6v6.9c-0.1,1.2,0.8,2.2,2,2.3
				c1.2,0.1,2.2-0.8,2.3-2c0-0.1,0-0.2,0-0.3v-6.9h1.6v7c0,2-1.6,3.6-3.5,3.6C52.8,149.6,52.7,149.6,52.6,149.6z"/>
			<path class="st2" d="M69.1,149.5l-4.9-7.4v7.4h-1.6v-10.6h1.5l4.9,7.4v-7.4h1.6v10.6H69.1z"/>
			<path class="st2" d="M78.1,148.8c-0.6,0.6-1.4,1-2.2,0.8c-0.8,0-1.7-0.3-2.2-0.8c-1.2-1.8-1.2-4.1,0-5.9c0.6-0.6,1.4-1,2.2-0.8
				c0.8,0,1.7,0.3,2.2,0.8C79.4,144.6,79.4,147,78.1,148.8z M76.9,143.7c-0.3-0.3-0.6-0.4-1.1-0.4s-0.7,0.1-1.1,0.4
				c-0.7,1.3-0.7,2.9,0,4.1c0.3,0.3,0.6,0.4,1.1,0.4s0.7-0.2,1.1-0.4C77.7,146.5,77.7,145,76.9,143.7z"/>
			<path class="st2" d="M85.4,149.5v-0.8c-0.4,0.6-1.3,1-2,0.8c-0.6,0-1.4-0.2-1.8-0.6c-1.1-2-1.1-4.3,0-6.4
				c0.5-0.4,1.2-0.7,1.8-0.6c0.7,0,1.5,0.2,2,0.8v-3.8h1.5v10.6L85.4,149.5z M83.8,143.3c-1.4,0-1.6,1.2-1.6,2.5s0.2,2.5,1.6,2.5
				c1.4,0,1.6-1.2,1.6-2.5S85.2,143.3,83.8,143.3z"/>
			<path class="st2" d="M90.4,146.2c-0.1,1.1,0.5,1.9,1.6,2.1c0.1,0,0.2,0,0.3,0c0.6,0,1.4-0.2,1.8-0.7l1,1
				c-0.7,0.8-1.8,1.3-2.9,1.2c-1.9,0-3.4-1-3.4-3.8c0-2.4,1.3-3.8,3.2-3.8c1.9,0,3.2,1.5,3.2,3.6v0.6L90.4,146.2z M93.6,144.1
				c-0.4-0.8-1.4-1.2-2.2-0.8c-0.3,0.2-0.6,0.4-0.8,0.8c-0.1,0.3-0.2,0.7-0.2,1.1h3.4C93.8,144.8,93.7,144.4,93.6,144.1L93.6,144.1z
				"/>
			<path class="st2" d="M99.7,149.6c-1.2,0.1-2.3-0.3-3.2-1.1l1-1c0.6,0.5,1.4,0.8,2.2,0.7c1,0,1.7-0.3,1.7-1.1
				c0-0.5-0.3-0.8-1.1-0.8l-1.2-0.1c-1.4-0.1-2.2-0.7-2.2-2.1c0-1.5,1.3-2.3,2.9-2.3c1-0.1,2,0.2,2.8,0.8l-1,1
				c-0.5-0.4-1.2-0.6-1.9-0.5c-0.8,0-1.4,0.4-1.4,1c0,0.5,0.2,0.8,1.1,0.8l1.2,0.1c1.4,0.1,2.2,0.7,2.2,2.1
				C102.8,148.8,101.5,149.6,99.7,149.6z"/>
		</g>
		<g>
			<path class="st2" d="M5.4,123v-8.9l-2,1.8v-1.7l2-1.8h1.5V123H5.4z"/>
			<path class="st2" d="M13.6,123.1c-1.6,0.1-3-1.2-3.1-2.8c0-0.1,0-0.2,0-0.3v-4.7c0.1-1.7,1.6-3,3.2-2.9c1.6,0.1,2.8,1.3,2.9,2.9
				v4.7c0.1,1.6-1.2,3-2.8,3.1C13.8,123.1,13.7,123.1,13.6,123.1z M15.2,115.5c0.1-0.8-0.5-1.6-1.4-1.7c-0.8-0.1-1.6,0.5-1.7,1.4
				c0,0.1,0,0.2,0,0.3v4.6c-0.1,0.8,0.5,1.6,1.4,1.7c0.8,0.1,1.6-0.5,1.7-1.4c0-0.1,0-0.2,0-0.3V115.5z"/>
			<path class="st2" d="M21.4,123.1c-1.6,0.1-3-1.2-3.1-2.8c0-0.1,0-0.2,0-0.2v-4.7c0.1-1.7,1.6-3,3.2-2.9c1.6,0.1,2.8,1.3,2.9,2.9
				v4.7c0.1,1.6-1.2,3-2.8,3.1C21.6,123.1,21.5,123.1,21.4,123.1z M23,115.5c0.1-0.8-0.5-1.6-1.4-1.7c-0.8-0.1-1.6,0.5-1.7,1.4
				c0,0.1,0,0.2,0,0.3v4.6c-0.1,0.8,0.5,1.6,1.4,1.7c0.8,0.1,1.6-0.5,1.7-1.4c0-0.1,0-0.2,0-0.3V115.5z"/>
			<path class="st2" d="M33.7,123.1c-1.1,0-2-0.4-2.8-1.2c-1.1-1.1-1.1-2.2-1.1-4.2s0-3.2,1.1-4.2c0.7-0.7,1.7-1.2,2.8-1.2
				c1.9-0.1,3.6,1.4,3.8,3.3h-1.6c-0.2-1.2-1.4-2-2.5-1.8c-0.4,0.1-0.8,0.3-1.2,0.6c-0.5,0.5-0.6,1.2-0.6,3.3c0,2.1,0.1,2.8,0.6,3.3
				c0.4,0.4,1,0.6,1.6,0.6c1.1,0,2-0.7,2.1-1.8h1.6C37.3,121.9,35.6,123.2,33.7,123.1z"/>
			<path class="st2" d="M43.7,118.9h-2.4v4.1h-1.6v-10.6h4c1.8,0,3.2,1.4,3.2,3.2C46.8,117.4,45.5,118.8,43.7,118.9L43.7,118.9z
				 M43.6,113.9h-2.3v3.5h2.3c1,0.1,1.8-0.6,1.9-1.6c0.1-1-0.6-1.8-1.6-1.9C43.8,113.9,43.7,113.9,43.6,113.9z"/>
			<path class="st2" d="M52.6,123.1c-2,0.1-3.7-1.4-3.8-3.4c0-0.1,0-0.2,0-0.3v-7h1.6v6.9c0,1.2,1,2.2,2.2,2.2c1.2,0,2.2-1,2.2-2.2
				l0,0v-6.9h1.6v7c0,2-1.6,3.6-3.5,3.6C52.8,123.1,52.7,123.1,52.6,123.1z"/>
			<path class="st2" d="M69.1,123l-4.9-7.4v7.4h-1.6v-10.6h1.5l4.9,7.4v-7.4h1.6V123H69.1z"/>
			<path class="st2" d="M78.1,122.3c-0.6,0.6-1.4,1-2.2,0.8c-0.8,0-1.7-0.3-2.2-0.8c-1.2-1.8-1.2-4.1,0-5.9c0.6-0.6,1.4-1,2.2-0.8
				c0.8,0,1.7,0.3,2.2,0.8C79.3,118.1,79.3,120.5,78.1,122.3z M76.9,117.2c-0.3-0.3-0.7-0.4-1.2-0.4s-0.7,0.1-1.1,0.4
				c-0.7,1.3-0.7,2.9,0,4.1c0.3,0.3,0.6,0.4,1.1,0.4s0.8-0.1,1.2-0.4C77.7,120.1,77.7,118.5,76.9,117.2z"/>
			<path class="st2" d="M85.4,123v-0.8c-0.4,0.6-1.3,1-2,0.8c-0.6,0-1.4-0.2-1.8-0.6c-1.1-2-1.1-4.3,0-6.4c0.5-0.4,1.2-0.7,1.8-0.6
				c0.7,0,1.5,0.2,2,0.8v-3.8h1.5V123L85.4,123z M83.8,116.8c-1.4,0-1.6,1.2-1.6,2.4c0,1.3,0.2,2.5,1.6,2.5c1.4,0,1.6-1.2,1.6-2.5
				C85.4,117.8,85.2,116.8,83.8,116.8z"/>
			<path class="st2" d="M90.4,119.7c-0.1,1.1,0.5,1.9,1.6,2.1c0.1,0,0.2,0,0.3,0c0.6,0,1.4-0.2,1.8-0.7l1,1
				c-0.7,0.8-1.8,1.3-2.9,1.2c-1.9,0-3.4-1-3.4-3.8c0-2.4,1.3-3.8,3.2-3.8c1.9,0,3.2,1.5,3.2,3.6v0.6L90.4,119.7z M93.6,117.6
				c-0.4-0.8-1.4-1.2-2.2-0.8c-0.3,0.2-0.6,0.4-0.8,0.8c-0.1,0.3-0.2,0.7-0.2,1.1h3.4C93.8,118.4,93.7,117.9,93.6,117.6L93.6,117.6z
				"/>
			<path class="st2" d="M99.7,123.1c-1.2,0.1-2.3-0.3-3.2-1.1l1-1c0.5,0.5,1.4,0.8,2.1,0.7c1,0,1.7-0.3,1.7-1.1
				c0-0.5-0.3-0.8-1.1-0.8l-1.2-0.1c-1.4-0.1-2.2-0.7-2.2-2.1c0-1.5,1.3-2.3,2.9-2.3c1-0.1,2,0.2,2.8,0.8l-1,1
				c-0.5-0.4-1.2-0.6-1.9-0.5c-1,0-1.4,0.4-1.4,1s0.2,0.8,1.1,0.8l1.2,0.1c1.4,0.1,2.2,0.7,2.2,2.1
				C102.8,122.4,101.5,123.1,99.7,123.1z"/>
		</g>
		<g>
			<path class="st2" d="M69,95.6c-0.7,0.6-1.7,1.1-2.8,1h-3.7V85.9h3.7c1,0,2,0.3,2.8,1c1.2,1.2,1.1,2.6,1.1,4.2S70.2,94.4,69,95.6z
				 M67.9,88.2c-0.4-0.5-1.2-0.7-1.8-0.7h-2V95H66c0.6,0,1.4-0.2,1.8-0.7c0.5-0.6,0.5-1.8,0.5-3.2C68.4,89.7,68.5,88.8,67.9,88.2
				L67.9,88.2z"/>
			<path class="st2" d="M78.7,95.5c-1.6,1.6-4.1,1.6-5.7,0.1C72,94.5,72,93.3,72,91.3s0-3.2,1.1-4.2c0.7-0.7,1.7-1.2,2.8-1.2
				c1.9-0.1,3.6,1.4,3.8,3.3H78c-0.1-1.1-1.2-1.9-2.2-1.8c-0.6,0-1.2,0.2-1.6,0.6c-0.5,0.5-0.6,1.2-0.6,3.3c0,2.1,0.1,2.8,0.6,3.3
				c0.4,0.4,1,0.6,1.6,0.6c0.6,0,1.3-0.2,1.7-0.7c0.4-0.4,0.5-1.1,0.5-1.7v-0.6h-2.2v-1.4h3.8v1.7C79.8,93.6,79.5,94.6,78.7,95.5z"
				/>
			<path class="st2" d="M87.1,96.5l-2.3-4l-2.3,4h-1.8l3.3-5.4l-3.1-5.2h1.8l2.1,3.8l2.1-3.8h1.8l-3.2,5.2l3.3,5.4H87.1z"/>
			<path class="st2" d="M90.1,93.1v-1.4h4.3v1.4H90.1z"/>
			<path class="st2" d="M96.3,96.5v-1.4l4.1-5c0.3-0.4,0.5-0.8,0.5-1.4c0.1-0.8-0.5-1.6-1.4-1.7c-0.8-0.1-1.6,0.5-1.7,1.4
				c0,0.1,0,0.2,0,0.2h-1.5c-0.1-1.6,1.2-3,2.8-3c0.1,0,0.2,0,0.3,0c1.6-0.1,3,1.1,3.1,2.6c0,0.1,0,0.2,0,0.3c0,0.8-0.4,1.7-1,2.3
				l-3.3,4h4.3v1.4L96.3,96.5z"/>
		</g>
		<g>
			<path class="st2" d="M47.4,69.4c-0.6,0.5-1.4,0.8-2.2,0.8s-1.6-0.2-2.2-0.8c-0.5-0.5-0.7-1.3-0.8-2h1.5c0,0.8,0.6,1.5,1.4,1.5H45
				c0.4,0,0.7-0.1,1.1-0.4c0.4-0.5,0.6-1.2,0.5-1.9c0-1.3-0.3-2.2-1.6-2.2c-0.6-0.1-1.3,0.3-1.5,1h-1.4v-5.8h5.7v1.4h-4.3v2.8
				c0.4-0.4,1.1-0.6,1.7-0.6c0.7,0,1.4,0.2,1.9,0.6c0.6,0.7,1.1,1.8,1,2.9C48.3,67.6,48,68.5,47.4,69.4z"/>
			<path class="st2" d="M55.6,70l-2.3-4L51,70h-1.8l3.3-5.4l-3.1-5.2h1.8l2.1,3.8l2.1-3.8h1.8l-3.1,5.2l3.3,5.4H55.6z"/>
			<path class="st2" d="M69,69.1c-0.7,0.6-1.7,1.1-2.8,1h-3.7V59.4h3.7c1,0,2,0.3,2.8,1c1.2,1.2,1.1,2.6,1.1,4.2S70.2,67.9,69,69.1z
				 M67.9,61.7c-0.4-0.5-1.2-0.7-1.8-0.7h-2v7.6H66c0.6,0,1.4-0.2,1.8-0.7c0.5-0.6,0.5-1.8,0.5-3.2C68.4,63.2,68.5,62.3,67.9,61.7
				L67.9,61.7z"/>
			<path class="st2" d="M78.7,69c-1.6,1.6-4.1,1.6-5.7,0.1C72,68,72,66.9,72,64.8c0-2,0-3.2,1.1-4.2c0.7-0.7,1.7-1.2,2.8-1.2
				c1.9-0.1,3.6,1.4,3.8,3.3H78c-0.1-1.1-1.2-1.9-2.2-1.8c-0.6,0-1.2,0.2-1.6,0.6c-0.5,0.5-0.6,1.2-0.6,3.3s0.1,2.8,0.6,3.3
				c0.4,0.4,1,0.6,1.6,0.6c0.6,0,1.3-0.2,1.7-0.7c0.4-0.4,0.5-1.1,0.5-1.7v-0.6h-2.2v-1.4h3.8V66C79.8,67.1,79.5,68.1,78.7,69z"/>
			<path class="st2" d="M87.1,70l-2.3-4l-2.3,4h-1.8l3.3-5.4l-3.1-5.2h1.8l2.1,3.8l2.1-3.8h1.8l-3.2,5.2l3.3,5.4H87.1z"/>
			<path class="st2" d="M90.1,66.6v-1.4h4.3v1.4H90.1z"/>
			<path class="st2" d="M99.2,70v-8.9l-2,1.8v-1.7l2-1.8h1.5V70H99.2z"/>
		</g>
		<g>
			<path class="st2" d="M113.3,234.1c-1.3,0.1-2.3-1-2.4-2.2c0-0.1,0-0.1,0-0.2v-3.7c0-1.3,1.1-2.4,2.4-2.4c1.3,0,2.4,1.1,2.4,2.4
				v3.7c0,1.3-1,2.3-2.2,2.4C113.4,234.1,113.3,234.1,113.3,234.1z M114.5,228c0.1-0.6-0.4-1.3-1.1-1.4c-0.6-0.1-1.3,0.4-1.4,1.1
				c0,0.1,0,0.2,0,0.3v3.6c-0.1,0.6,0.4,1.3,1.1,1.4c0.6,0.1,1.3-0.4,1.4-1.1c0-0.1,0-0.2,0-0.3V228z"/>
		</g>
		<g>
			<g>
				<path class="st2" d="M195.5,234v-1.1l3.2-3.9c0.3-0.3,0.4-0.7,0.4-1.2c0-0.6-0.5-1.2-1.2-1.3c-0.6,0-1.3,0.5-1.3,1.3l0,0h-1.2
					c0-1.3,1-2.3,2.2-2.3c0.1,0,0.1,0,0.2,0c1.3-0.1,2.3,0.8,2.4,2c0,0.1,0,0.2,0,0.3c0,0.6-0.3,1.3-0.7,1.8l-2.5,3.2h3.4v1.1
					L195.5,234z"/>
			</g>
			<g>
				<path class="st2" d="M202,235.8v-3.2h1.4v2L202,235.8z"/>
			</g>
			<g>
				<path class="st2" d="M207.3,234.1c-1.3,0.1-2.3-1-2.4-2.2c0-0.1,0-0.1,0-0.2v-3.7c0-1.3,1.1-2.4,2.4-2.4c1.3,0,2.4,1.1,2.4,2.4
					v3.7c0,1.3-1,2.3-2.2,2.4C207.4,234.1,207.3,234.1,207.3,234.1z M208.5,228c0.1-0.6-0.4-1.3-1.1-1.4c-0.6-0.1-1.3,0.4-1.4,1.1
					c0,0.1,0,0.2,0,0.3v3.6c-0.1,0.6,0.4,1.3,1.1,1.4c0.6,0.1,1.3-0.4,1.4-1.1c0-0.1,0-0.2,0-0.3V228z"/>
				<path class="st2" d="M213.5,234.1c-1.3,0.1-2.3-1-2.4-2.2c0-0.1,0-0.1,0-0.2v-3.7c0.1-1.4,1.3-2.3,2.5-2.2
					c1.2,0.1,2.1,1.1,2.2,2.2v3.7c0,1.3-1,2.3-2.2,2.4C213.8,234.1,213.7,234.1,213.5,234.1z M214.8,228c0.1-0.6-0.4-1.3-1.1-1.4
					h-0.1c-0.6,0-1.2,0.5-1.2,1.2c0,0.1,0,0.1,0,0.2v3.6c-0.1,0.6,0.3,1.3,1.1,1.4c0.1,0,0.1,0,0.2,0c0.6,0,1.2-0.5,1.2-1.2
					c0-0.1,0-0.1,0-0.2V228H214.8z"/>
			</g>
			<g>
				<path class="st2" d="M220,234.1c-1.3,0.1-2.3-1-2.4-2.2c0-0.1,0-0.1,0-0.2v-3.7c0-1.3,1.1-2.4,2.4-2.4c1.3,0,2.4,1.1,2.4,2.4
					v3.7c0,1.3-1,2.3-2.2,2.4C220.1,234.1,220,234.1,220,234.1z M221.2,228c0.1-0.6-0.4-1.3-1.1-1.4s-1.3,0.4-1.4,1.1
					c0,0.1,0,0.2,0,0.3v3.6c-0.1,0.6,0.4,1.3,1.1,1.4c0.6,0.1,1.3-0.4,1.4-1.1c0-0.1,0-0.2,0-0.3V228z"/>
			</g>
		</g>
		<g>
			<g>
				<path class="st2" d="M294.8,232.7v1.3h-1.2v-1.3h-3.4v-1.1l3-5.9h1.3l-3,5.9h2v-1.9h1.2v1.9h0.8v1.1H294.8z"/>
			</g>
			<g>
				<path class="st2" d="M297.2,235.8v-3.2h1.4v2L297.2,235.8z"/>
			</g>
			<g>
				<path class="st2" d="M302.5,234.1c-1.3,0.1-2.3-1-2.4-2.2c0-0.1,0-0.1,0-0.2v-3.7c0-1.3,1.1-2.4,2.4-2.4c1.3,0,2.4,1.1,2.4,2.4
					v3.7c0,1.3-1,2.3-2.2,2.4C302.6,234.1,302.6,234.1,302.5,234.1z M303.7,228c0.1-0.6-0.4-1.3-1.1-1.4s-1.3,0.4-1.4,1.1
					c0,0.1,0,0.2,0,0.3v3.6c-0.1,0.6,0.4,1.3,1.1,1.4c0.6,0.1,1.3-0.4,1.4-1.1c0-0.1,0-0.2,0-0.3V228z"/>
				<path class="st2" d="M308.8,234.1c-1.3,0.1-2.3-1-2.4-2.2c0-0.1,0-0.1,0-0.2v-3.7c0.1-1.4,1.3-2.3,2.5-2.2
					c1.2,0.1,2.1,1.1,2.2,2.2v3.7c0,1.3-1,2.3-2.2,2.4H308.8z M310,228c0.1-0.6-0.4-1.3-1.1-1.4h-0.1c-0.6,0-1.2,0.5-1.2,1.2
					c0,0.1,0,0.1,0,0.2v3.6c-0.1,0.6,0.3,1.3,1.1,1.4c0.1,0,0.1,0,0.2,0c0.6,0,1.2-0.5,1.2-1.2c0-0.1,0-0.1,0-0.2V228H310z"/>
			</g>
			<g>
				<path class="st2" d="M315.2,234.1c-1.3,0.1-2.3-1-2.4-2.2c0-0.1,0-0.1,0-0.2v-3.7c0-1.3,1.1-2.4,2.4-2.4c1.3,0,2.4,1.1,2.4,2.4
					v3.7c0,1.3-1,2.3-2.2,2.4C315.3,234.1,315.3,234.1,315.2,234.1z M316.5,228c0.1-0.6-0.4-1.3-1.1-1.4c-0.6-0.1-1.3,0.4-1.4,1.1
					c0,0.1,0,0.2,0,0.3v3.6c-0.1,0.6,0.4,1.3,1.1,1.4c0.6,0.1,1.3-0.4,1.4-1.1c0-0.1,0-0.2,0-0.3V228z"/>
			</g>
		</g>
		<g>
			<g>
				<path class="st2" d="M388.3,234.1c-1.3,0.1-2.4-1-2.4-2.2c0-0.1,0-0.2,0-0.3c0-0.7,0.2-1.4,0.6-2l1.9-3.8h1.3l-1.8,3.5
					c0.2-0.1,0.5-0.1,0.7-0.1c1.3,0,2.2,1.1,2.2,2.2v0.1c0.1,1.3-0.8,2.4-2.2,2.5C388.5,234.1,388.4,234.1,388.3,234.1z
					 M388.3,230.1c-0.7,0-1.3,0.5-1.3,1.3c0,0.1,0,0.1,0,0.2c-0.1,0.7,0.4,1.4,1.1,1.4c0.1,0,0.1,0,0.2,0c0.7-0.1,1.4-0.8,1.3-1.7
					C389.5,230.7,388.9,230.2,388.3,230.1z"/>
			</g>
			<g>
				<path class="st2" d="M392.2,235.8v-3.2h1.4v2L392.2,235.8z"/>
			</g>
			<g>
				<path class="st2" d="M397.5,234.1c-1.3,0.1-2.3-1-2.4-2.2c0-0.1,0-0.1,0-0.2v-3.7c0-1.3,1.1-2.4,2.4-2.4c1.3,0,2.4,1.1,2.4,2.4
					v3.7c0,1.3-1,2.3-2.2,2.4C397.6,234.1,397.6,234.1,397.5,234.1z M398.8,228c0.1-0.6-0.4-1.3-1.1-1.4c-0.6-0.1-1.3,0.4-1.4,1.1
					c0,0.1,0,0.2,0,0.3v3.6c-0.1,0.6,0.4,1.3,1.1,1.4c0.6,0.1,1.3-0.4,1.4-1.1c0-0.1,0-0.2,0-0.3V228z"/>
				<path class="st2" d="M403.9,234.1c-1.3,0.1-2.3-1-2.4-2.2c0-0.1,0-0.1,0-0.2v-3.7c0.1-1.4,1.3-2.3,2.5-2.2
					c1.2,0.1,2.1,1.1,2.2,2.2v3.7c0,1.3-1,2.3-2.2,2.4H403.9z M405,228c0.1-0.6-0.4-1.3-1.1-1.4h-0.1c-0.6,0-1.2,0.5-1.2,1.2
					c0,0.1,0,0.1,0,0.2v3.6c-0.1,0.6,0.3,1.3,1.1,1.4c0.1,0,0.1,0,0.2,0c0.6,0,1.2-0.5,1.2-1.2c0-0.1,0-0.1,0-0.2V228H405z"/>
			</g>
			<g>
				<path class="st2" d="M410.2,234.1c-1.3,0.1-2.3-1-2.4-2.2c0-0.1,0-0.1,0-0.2v-3.7c0-1.3,1.1-2.4,2.4-2.4c1.3,0,2.4,1.1,2.4,2.4
					v3.7c0,1.3-1,2.3-2.2,2.4C410.3,234.1,410.3,234.1,410.2,234.1z M411.5,228c0.1-0.6-0.4-1.3-1.1-1.4s-1.3,0.4-1.4,1.1
					c0,0.1,0,0.2,0,0.3v3.6c-0.1,0.6,0.4,1.3,1.1,1.4c0.6,0.1,1.3-0.4,1.4-1.1c0-0.1,0-0.2,0-0.3V228z"/>
			</g>
		</g>
		<g>
			<g>
				<path class="st2" d="M483.8,234.1c-1.3,0.1-2.4-0.8-2.5-2.2c0-0.1,0-0.1,0-0.2c0-0.8,0.4-1.6,1.2-1.9c-0.6-0.4-1.1-1.1-1-1.8
					c0.1-1.4,1.3-2.3,2.5-2.2c1.2,0.1,2.2,1.1,2.2,2.2c0,0.7-0.4,1.4-1.1,1.8c0.7,0.4,1.2,1.2,1.2,1.9c0,1.3-1.1,2.4-2.3,2.4
					C483.9,234.1,483.8,234.1,483.8,234.1z M483.8,230.2c-0.7,0-1.4,0.6-1.4,1.4s0.6,1.4,1.4,1.4l0,0c0.7,0,1.4-0.6,1.4-1.4
					S484.5,230.2,483.8,230.2z M483.8,226.7c-0.6,0-1.2,0.5-1.3,1.2v0.1c0,0.6,0.5,1.3,1.3,1.3c0.7,0,1.3-0.5,1.3-1.3
					C485.1,227.3,484.5,226.7,483.8,226.7L483.8,226.7z"/>
			</g>
			<g>
				<path class="st2" d="M487.8,235.8v-3.2h1.4v2L487.8,235.8z"/>
			</g>
			<g>
				<path class="st2" d="M493,234.1c-1.3,0.1-2.3-1-2.4-2.2c0-0.1,0-0.1,0-0.2v-3.7c0-1.3,1.1-2.4,2.4-2.4c1.3,0,2.4,1.1,2.4,2.4
					v3.7c0,1.3-1,2.3-2.2,2.4C493.2,234.1,493.1,234.1,493,234.1z M494.3,228c0.1-0.6-0.4-1.3-1.1-1.4s-1.3,0.4-1.4,1.1
					c0,0.1,0,0.2,0,0.3v3.6c-0.1,0.6,0.4,1.3,1.1,1.4c0.6,0.1,1.3-0.4,1.4-1.1c0-0.1,0-0.2,0-0.3V228z"/>
				<path class="st2" d="M499.4,234.1c-1.3,0.1-2.3-1-2.4-2.2c0-0.1,0-0.1,0-0.2v-3.7c0.1-1.4,1.3-2.3,2.5-2.2
					c1.2,0.1,2.1,1.1,2.2,2.2v3.7c0,1.3-1,2.3-2.2,2.4C499.5,234.1,499.5,234.1,499.4,234.1z M500.6,228c0.1-0.6-0.4-1.3-1.1-1.4
					h-0.1c-0.6,0-1.2,0.5-1.2,1.2c0,0.1,0,0.1,0,0.2v3.6c-0.1,0.6,0.3,1.3,1.1,1.4c0.1,0,0.1,0,0.2,0c0.6,0,1.2-0.5,1.2-1.2
					c0-0.1,0-0.1,0-0.2V228H500.6z"/>
			</g>
			<g>
				<path class="st2" d="M505.7,234.1c-1.3,0.1-2.3-1-2.4-2.2c0-0.1,0-0.1,0-0.2v-3.7c0-1.3,1.1-2.4,2.4-2.4c1.3,0,2.4,1.1,2.4,2.4
					v3.7c0,1.3-1,2.3-2.2,2.4C505.9,234.1,505.8,234.1,505.7,234.1z M507,228c0.1-0.6-0.4-1.3-1.1-1.4c-0.6-0.1-1.3,0.4-1.4,1.1
					c0,0.1,0,0.2,0,0.3v3.6c-0.1,0.6,0.4,1.3,1.1,1.4c0.6,0.1,1.3-0.4,1.4-1.1c0-0.1,0-0.2,0-0.3V228z"/>
			</g>
		</g>
		<g>
			<g>
				<path class="st2" d="M576.2,234v-7l-1.6,1.4v-1.3l1.6-1.4h1.2v8.3H576.2z"/>
			</g>
			<g>
				<path class="st2" d="M582,234.1c-1.3,0.1-2.3-1-2.4-2.2c0-0.1,0-0.1,0-0.2v-3.7c0-1.3,1.1-2.4,2.4-2.4s2.4,1.1,2.4,2.4v3.7
					c0,1.3-1,2.3-2.2,2.4C582.1,234.1,582.1,234.1,582,234.1z M583.2,228c0.1-0.6-0.4-1.3-1.1-1.4s-1.3,0.4-1.4,1.1
					c0,0.1,0,0.2,0,0.3v3.6c-0.1,0.6,0.4,1.3,1.1,1.4c0.6,0.1,1.3-0.4,1.4-1.1c0-0.1,0-0.2,0-0.3V228z"/>
			</g>
			<g>
				<path class="st2" d="M585.9,235.8v-3.2h1.4v2L585.9,235.8z"/>
			</g>
			<g>
				<path class="st2" d="M591.2,234.1c-1.3,0.1-2.3-1-2.4-2.2c0-0.1,0-0.1,0-0.2v-3.7c0-1.3,1.1-2.4,2.4-2.4c1.4,0,2.4,1.1,2.4,2.4
					v3.7c0,1.3-1,2.3-2.2,2.4C591.4,234.1,591.4,234.1,591.2,234.1z M592.4,228c0.1-0.6-0.4-1.3-1.1-1.4c-0.6-0.1-1.3,0.4-1.4,1.1
					c0,0.1,0,0.2,0,0.3v3.6c-0.1,0.6,0.4,1.3,1.1,1.4c0.6,0.1,1.3-0.4,1.4-1.1c0-0.1,0-0.2,0-0.3V228z"/>
				<path class="st2" d="M597.6,234.1c-1.3,0.1-2.3-1-2.4-2.2c0-0.1,0-0.1,0-0.2v-3.7c0.1-1.4,1.3-2.3,2.5-2.2
					c1.2,0.1,2.1,1.1,2.2,2.2v3.7c0,1.3-1,2.3-2.2,2.4H597.6z M598.8,228c0.1-0.6-0.4-1.3-1.1-1.4h-0.1c-0.6,0-1.2,0.5-1.2,1.2
					c0,0.1,0,0.1,0,0.2v3.6c-0.1,0.6,0.3,1.3,1.1,1.4c0.1,0,0.1,0,0.2,0c0.6,0,1.2-0.5,1.2-1.2c0-0.1,0-0.1,0-0.2V228H598.8z"/>
			</g>
			<g>
				<path class="st2" d="M604,234.1c-1.3,0.1-2.3-1-2.4-2.2c0-0.1,0-0.1,0-0.2v-3.7c0-1.3,1.1-2.4,2.4-2.4c1.4,0,2.4,1.1,2.4,2.4
					v3.7c0,1.3-1,2.3-2.2,2.4C604.1,234.1,604,234.1,604,234.1z M605.1,228c0.1-0.6-0.4-1.3-1.1-1.4c-0.6-0.1-1.3,0.4-1.4,1.1
					c0,0.1,0,0.2,0,0.3v3.6c-0.1,0.6,0.4,1.3,1.1,1.4c0.6,0.1,1.3-0.4,1.4-1.1c0-0.1,0-0.2,0-0.3V228z"/>
			</g>
		</g>
		<rect x="113.2" y="54.6" class="st3" width="2.1" height="21.2"/>
		<rect x="115.3" y="54.6" class="st4" width="2.1" height="21.2"/>
		<rect x="117.4" y="54.6" class="st5" width="7.4" height="21.2"/>
		<rect x="121.7" y="81.1" class="st5" width="8.5" height="21.2"/>
		<rect x="173.6" y="107.5" class="st5" width="93.3" height="21.2"/>
		<rect x="204.3" y="134" class="st5" width="95.4" height="21.2"/>
		<rect x="312.4" y="160.5" class="st5" width="93.3" height="21.2"/>
		<rect x="421.6" y="187" class="st5" width="109.2" height="21.2"/>
		<polyline class="st3" points="116.4,81.1 113.2,81.1 113.2,102.2 116.4,102.2 116.4,81.1 		"/>
		<polyline class="st4" points="121.7,81.1 116.4,81.1 116.4,102.2 121.7,102.2 121.7,81.1 		"/>
		<polyline class="st3" points="131.2,107.5 113.2,107.5 113.2,128.7 131.2,128.7 131.2,107.5 		"/>
		<polyline class="st4" points="173.6,107.5 131.2,107.5 131.2,128.7 173.6,128.7 173.6,107.5 		"/>
		<polyline class="st4" points="204.3,134 147.1,134 147.1,155.2 204.3,155.2 204.3,134 		"/>
		<polyline class="st4" points="312.5,160.5 192.7,160.5 192.7,181.7 312.5,181.7 312.5,160.5 		"/>
		<polyline class="st4" points="421.6,187 243.5,187 243.5,208.2 421.6,208.2 421.6,187 		"/>
		<polyline class="st3" points="147.1,134 113.2,134 113.2,155.2 147.1,155.2 147.1,134 		"/>
		<line class="st6" x1="114.3" y1="214.1" x2="589.5" y2="214.1"/>
		<g>
			<path class="st2" d="M10.5,202.5v-1.4l4.1-5c0.3-0.4,0.5-0.8,0.5-1.4c0-0.8-0.7-1.6-1.6-1.6c-0.8,0-1.6,0.7-1.6,1.6l0,0h-1.6
				c-0.1-1.6,1.2-3,2.8-3c0.1,0,0.2,0,0.3,0c1.6-0.1,3,1.1,3.1,2.6c0,0.1,0,0.2,0,0.3c0,0.8-0.4,1.7-1,2.3l-3.3,4h4.3v1.4H10.5z"/>
			<path class="st2" d="M21.4,202.6c-1.6,0.1-3-1.2-3.1-2.8c0-0.1,0-0.2,0-0.3v-4.7c0.1-1.7,1.6-3,3.2-2.9c1.6,0.1,2.8,1.3,2.9,2.9
				v4.7c0.1,1.6-1.2,3-2.8,3.1C21.6,202.6,21.5,202.6,21.4,202.6z M23,195c0.1-0.8-0.5-1.6-1.4-1.7c-0.8-0.1-1.6,0.5-1.7,1.4
				c0,0.1,0,0.2,0,0.2v4.6c-0.1,0.8,0.4,1.6,1.3,1.8c0.8,0.1,1.6-0.4,1.8-1.3c0-0.1,0-0.3,0-0.4C23,199.5,23,195,23,195z"/>
			<path class="st2" d="M33.8,202.6c-1.1,0-2-0.4-2.8-1.2c-1.1-1.1-1.1-2.2-1.1-4.2c0-2,0-3.2,1.1-4.2c0.7-0.7,1.7-1.2,2.8-1.2
				c1.9-0.1,3.6,1.4,3.8,3.3H36c-0.2-1.2-1.4-2-2.5-1.8c-0.4,0.1-0.8,0.3-1.2,0.6c-0.5,0.5-0.6,1.2-0.6,3.3s0.1,2.8,0.6,3.3
				c0.4,0.4,1,0.6,1.6,0.6c1.1,0,2-0.7,2.1-1.8h1.6C37.3,201.3,35.7,202.7,33.8,202.6z"/>
			<path class="st2" d="M43.7,198.4h-2.4v4.1h-1.6v-10.6h4c1.8,0,3.2,1.4,3.2,3.2S45.5,198.3,43.7,198.4L43.7,198.4z M43.6,193.4
				h-2.3v3.5h2.3c1,0.1,1.8-0.6,1.9-1.6c0.1-1-0.6-1.8-1.6-1.9C43.8,193.4,43.7,193.4,43.6,193.4z"/>
			<path class="st2" d="M52.6,202.6c-2,0.1-3.7-1.4-3.8-3.4c0-0.1,0-0.2,0-0.3v-7h1.6v6.9c-0.1,1.2,0.8,2.2,2,2.3
				c1.2,0.1,2.2-0.8,2.3-2c0-0.1,0-0.2,0-0.3v-6.9h1.6v7c0,2-1.6,3.6-3.5,3.6C52.8,202.6,52.7,202.6,52.6,202.6z"/>
			<path class="st2" d="M69.1,202.5l-4.9-7.4v7.4h-1.6v-10.6h1.5l4.9,7.4v-7.4h1.6v10.6H69.1z"/>
			<path class="st2" d="M78.1,201.8c-0.6,0.6-1.4,1-2.2,0.8c-0.8,0-1.7-0.3-2.2-0.8c-1.2-1.8-1.2-4.1,0-5.9c0.6-0.6,1.4-1,2.2-0.8
				c0.8,0,1.7,0.3,2.2,0.8C79.4,197.6,79.4,200,78.1,201.8z M76.9,196.7c-0.3-0.3-0.6-0.4-1.1-0.4s-0.7,0.1-1.1,0.4
				c-0.7,1.3-0.7,2.9,0,4.1c0.3,0.3,0.6,0.4,1.1,0.4s0.7-0.2,1.1-0.4C77.7,199.5,77.7,197.9,76.9,196.7z"/>
			<path class="st2" d="M85.4,202.5v-0.8c-0.4,0.6-1.3,1-2,0.8c-0.6,0-1.4-0.2-1.8-0.6c-1.1-2-1.1-4.3,0-6.4
				c0.5-0.4,1.2-0.7,1.8-0.6c0.7,0,1.5,0.2,2,0.8v-3.8h1.5v10.6L85.4,202.5z M83.8,196.2c-1.4,0-1.6,1.2-1.6,2.5s0.2,2.5,1.6,2.5
				c1.4,0,1.6-1.2,1.6-2.5S85.2,196.2,83.8,196.2z"/>
			<path class="st2" d="M90.4,199.2c-0.1,1.1,0.5,1.9,1.6,2.1c0.1,0,0.2,0,0.3,0c0.6,0,1.4-0.2,1.8-0.7l1,1
				c-0.7,0.8-1.8,1.3-2.9,1.2c-1.9,0-3.4-1-3.4-3.8c0-2.4,1.3-3.8,3.2-3.8c1.9,0,3.2,1.5,3.2,3.6v0.6L90.4,199.2z M93.6,197.1
				c-0.4-0.8-1.4-1.2-2.2-0.8c-0.3,0.2-0.6,0.4-0.8,0.8c-0.1,0.3-0.2,0.7-0.2,1.1h3.4C93.8,197.8,93.7,197.4,93.6,197.1L93.6,197.1z
				"/>
			<path class="st2" d="M99.7,202.6c-1.2,0.1-2.3-0.3-3.2-1.1l1-1c0.6,0.5,1.4,0.8,2.2,0.7c1,0,1.7-0.3,1.7-1.1
				c0-0.5-0.3-0.8-1.1-0.8l-1.2-0.1c-1.4-0.1-2.2-0.7-2.2-2.1c0-1.5,1.3-2.3,2.9-2.3c1-0.1,2,0.2,2.8,0.8l-1,1
				c-0.5-0.4-1.2-0.6-1.9-0.5c-0.8,0-1.4,0.4-1.4,1c0,0.5,0.2,0.8,1.1,0.8l1.2,0.1c1.4,0.1,2.2,0.7,2.2,2.1
				C102.8,201.8,101.5,202.6,99.7,202.6z"/>
		</g>
		<g>
			<path class="st2" d="M13.5,176.1c-1.6,0.2-3.1-1.1-3.2-2.6c0-0.1,0-0.2,0-0.3h1.5c0,0.8,0.7,1.6,1.6,1.6h0.1
				c0.8,0.1,1.7-0.6,1.7-1.5c0-0.1,0-0.1,0-0.2c0.1-0.8-0.5-1.7-1.4-1.7c-0.1,0-0.2,0-0.4,0h-0.2v-1.3h0.2c0.7,0.1,1.5-0.4,1.6-1.3
				c0-0.1,0-0.2,0-0.3c0-0.8-0.6-1.6-1.5-1.7c-0.8,0-1.6,0.6-1.7,1.5l0,0h-1.4c0-1.6,1.4-2.9,3-2.9h0.1c1.6-0.1,3,1.1,3.1,2.6
				c0,0.1,0,0.2,0,0.3c0.1,1-0.4,1.8-1.3,2.2c1,0.4,1.6,1.4,1.5,2.4c0.1,1.6-1.2,3.1-2.9,3.2C13.8,176.2,13.6,176.2,13.5,176.1z"/>
			<path class="st2" d="M21.4,176.1c-1.6,0.1-3-1.2-3.1-2.8c0-0.1,0-0.2,0-0.3v-4.7c0.1-1.7,1.6-3,3.2-2.9c1.6,0.1,2.8,1.3,2.9,2.9
				v4.7c0.1,1.6-1.2,3-2.8,3.1C21.6,176.1,21.5,176.1,21.4,176.1z M23,168.5c0.1-0.8-0.5-1.6-1.4-1.7c-0.8-0.1-1.6,0.5-1.7,1.4
				c0,0.1,0,0.2,0,0.2v4.6c-0.1,0.8,0.4,1.6,1.3,1.8c0.8,0.1,1.6-0.4,1.8-1.3c0-0.1,0-0.3,0-0.4C23,173,23,168.5,23,168.5z"/>
			<path class="st2" d="M33.8,176.1c-1.1,0-2-0.4-2.8-1.2c-1.1-1.1-1.1-2.2-1.1-4.2c0-2,0-3.2,1.1-4.2c0.7-0.7,1.7-1.2,2.8-1.2
				c1.9-0.1,3.6,1.4,3.8,3.3H36c-0.2-1.2-1.4-2-2.5-1.8c-0.4,0.1-0.8,0.3-1.2,0.6c-0.5,0.5-0.6,1.2-0.6,3.3s0.1,2.8,0.6,3.3
				c0.4,0.4,1,0.6,1.6,0.6c1.1,0,2-0.7,2.1-1.8h1.6C37.3,174.8,35.7,176.2,33.8,176.1z"/>
			<path class="st2" d="M43.7,171.9h-2.4v4.1h-1.6v-10.6h4c1.8,0,3.2,1.4,3.2,3.2S45.5,171.8,43.7,171.9L43.7,171.9z M43.6,166.9
				h-2.3v3.5h2.3c1,0.1,1.8-0.6,1.9-1.6c0.1-1-0.6-1.8-1.6-1.9C43.8,166.9,43.7,166.9,43.6,166.9z"/>
			<path class="st2" d="M52.6,176.1c-2,0.1-3.7-1.4-3.8-3.4c0-0.1,0-0.2,0-0.3v-7h1.6v6.9c-0.1,1.2,0.8,2.2,2,2.3
				c1.2,0.1,2.2-0.8,2.3-2c0-0.1,0-0.2,0-0.3v-6.9h1.6v7c0,2-1.6,3.6-3.5,3.6C52.8,176.1,52.7,176.1,52.6,176.1z"/>
			<path class="st2" d="M69.1,176l-4.9-7.4v7.4h-1.6v-10.6h1.5l4.9,7.4v-7.4h1.6V176H69.1z"/>
			<path class="st2" d="M78.1,175.3c-0.6,0.6-1.4,1-2.2,0.8c-0.8,0-1.7-0.3-2.2-0.8c-1.2-1.8-1.2-4.1,0-5.9c0.6-0.6,1.4-1,2.2-0.8
				c0.8,0,1.7,0.3,2.2,0.8C79.4,171.1,79.4,173.5,78.1,175.3z M76.9,170.2c-0.3-0.3-0.6-0.4-1.1-0.4s-0.7,0.1-1.1,0.4
				c-0.7,1.3-0.7,2.9,0,4.1c0.3,0.3,0.6,0.4,1.1,0.4s0.7-0.2,1.1-0.4C77.7,173,77.7,171.4,76.9,170.2z"/>
			<path class="st2" d="M85.4,176v-0.8c-0.4,0.6-1.3,1-2,0.8c-0.6,0-1.4-0.2-1.8-0.6c-1.1-2-1.1-4.3,0-6.4c0.5-0.4,1.2-0.7,1.8-0.6
				c0.7,0,1.5,0.2,2,0.8v-3.8h1.5V176L85.4,176z M83.8,169.8c-1.4,0-1.6,1.2-1.6,2.5s0.2,2.5,1.6,2.5c1.4,0,1.6-1.2,1.6-2.5
				S85.2,169.8,83.8,169.8z"/>
			<path class="st2" d="M90.4,172.7c-0.1,1.1,0.5,1.9,1.6,2.1c0.1,0,0.2,0,0.3,0c0.6,0,1.4-0.2,1.8-0.7l1,1
				c-0.7,0.8-1.8,1.3-2.9,1.2c-1.9,0-3.4-1-3.4-3.8c0-2.4,1.3-3.8,3.2-3.8c1.9,0,3.2,1.5,3.2,3.6v0.6L90.4,172.7z M93.6,170.6
				c-0.4-0.8-1.4-1.2-2.2-0.8c-0.3,0.2-0.6,0.4-0.8,0.8c-0.1,0.3-0.2,0.7-0.2,1.1h3.4C93.8,171.3,93.7,170.9,93.6,170.6L93.6,170.6z
				"/>
			<path class="st2" d="M99.7,176.1c-1.2,0.1-2.3-0.3-3.2-1.1l1-1c0.6,0.5,1.4,0.8,2.2,0.7c1,0,1.7-0.3,1.7-1.1
				c0-0.5-0.3-0.8-1.1-0.8l-1.2-0.1c-1.4-0.1-2.2-0.7-2.2-2.1c0-1.5,1.3-2.3,2.9-2.3c1-0.1,2,0.2,2.8,0.8l-1,1
				c-0.5-0.4-1.2-0.6-1.9-0.5c-0.8,0-1.4,0.4-1.4,1c0,0.5,0.2,0.8,1.1,0.8l1.2,0.1c1.4,0.1,2.2,0.7,2.2,2.1
				C102.8,175.3,101.5,176.1,99.7,176.1z"/>
		</g>
		<polyline class="st3" points="192.7,160.5 113.2,160.5 113.2,181.7 192.7,181.7 192.7,160.5 		"/>
		<polyline class="st3" points="243.5,187 113.2,187 113.2,208.2 243.5,208.2 243.5,187 		"/>
		<line class="st6" x1="113.7" y1="214.1" x2="113.7" y2="48.7"/>
		<rect x="113.2" y="285.4" class="st3" width="10.6" height="10.6"/>
		<path class="st2" d="M337.9,293.7c-0.5,0.5-1.4,0.8-2.1,0.7h-3v-8.3h3c0.7,0,1.6,0.2,2.1,0.7c1,1,0.8,2.1,0.8,3.3
			S338.8,292.9,337.9,293.7z M337,287.9c-0.3-0.4-0.8-0.6-1.4-0.5H334v6h1.6c0.5,0,1.1-0.2,1.4-0.5c0.4-0.7,0.5-1.7,0.4-2.5
			C337.4,289.2,337.4,288.4,337,287.9L337,287.9z"/>
		<path class="st2" d="M343.7,294.6v-0.5c-0.4,0.4-1,0.6-1.6,0.6c-0.5,0.1-1.2-0.1-1.6-0.5c-0.3-0.3-0.5-0.8-0.4-1.3
			c0-1,0.6-1.7,2-1.7h1.6v-0.5c0-0.7-0.4-1.1-1.3-1.1c-0.5-0.1-1,0.1-1.3,0.5l-0.7-0.7c0.5-0.6,1.3-1,2.1-0.8c1.6,0,2.4,0.6,2.4,2
			v3.9L343.7,294.6z M343.7,291.9h-1.4c-0.7,0-1.1,0.3-1.1,0.8s0.3,0.8,1.1,0.8c0.4,0,0.8-0.1,1.1-0.3c0.2-0.2,0.3-0.5,0.2-0.8
			L343.7,291.9z"/>
		<path class="st2" d="M348.5,294.6c-0.8,0-1.6-0.6-1.6-1.5c0-0.1,0-0.1,0-0.2v-3.3h-0.6v-1h0.6v-1.8h1.2v1.8h1.2v1H348v3.2
			c0,0.3,0.2,0.6,0.5,0.6h0.1h0.5v1.1L348.5,294.6z"/>
		<path class="st2" d="M354,294.6v-0.5c-0.4,0.4-1,0.6-1.6,0.6c-0.5,0-1.2-0.1-1.6-0.5c-0.3-0.3-0.5-0.8-0.4-1.3c0-1,0.6-1.7,2-1.7
			h1.6v-0.5c0-0.7-0.4-1.1-1.3-1.1c-0.5-0.1-1.1,0.1-1.3,0.5l-0.7-0.7c0.5-0.6,1.3-1,2.1-0.8c1.6,0,2.4,0.6,2.4,2v3.9L354,294.6z
			 M354,291.9h-1.4c-0.7,0-1.1,0.3-1.1,0.8s0.3,0.8,1.1,0.8c0.4,0,0.7-0.1,1.1-0.3c0.2-0.2,0.3-0.5,0.2-0.8L354,291.9z"/>
		<path class="st2" d="M362.7,294.6c-0.8,0-1.6-0.3-2.2-0.8c-0.8-0.8-0.8-1.7-0.8-3.3s0-2.5,0.8-3.3c0.5-0.5,1.4-0.8,2.2-0.8
			c1.5-0.1,2.8,1.1,3,2.5h-1.3c-0.1-0.8-0.8-1.5-1.7-1.4c-0.4,0-1,0.2-1.3,0.5c-0.4,0.4-0.5,1-0.5,2.5s0.1,2.1,0.5,2.5
			c0.6,0.6,1.8,0.6,2.4,0c0.2-0.2,0.4-0.5,0.4-1h1.3C365.5,293.6,364.1,294.7,362.7,294.6z"/>
		<path class="st2" d="M371.2,294c-0.4,0.4-1.2,0.7-1.8,0.7c-0.6,0-1.3-0.2-1.8-0.7c-1-1.4-1-3.3,0-4.7c0.4-0.4,1.1-0.7,1.8-0.7
			c0.6,0,1.3,0.2,1.8,0.7C372.2,290.7,372.2,292.5,371.2,294z M370.3,289.9c-0.2-0.2-0.5-0.3-0.8-0.3c-0.3,0-0.6,0.1-0.8,0.3
			c-0.5,1.1-0.5,2.2,0,3.3c0.2,0.2,0.5,0.3,0.8,0.3c0.3,0,0.6-0.1,0.8-0.3C370.8,292.3,370.8,291,370.3,289.9z"/>
		<path class="st2" d="M377.2,294.6V291c0.1-0.6-0.3-1.3-1-1.4c-0.1,0-0.1,0-0.2,0c-0.6,0-1.2,0.5-1.3,1.2c0,0.1,0,0.1,0,0.2v3.6
			h-1.2v-5.8h1.2v0.6c0.4-0.4,1-0.6,1.6-0.6c0.5,0,1.1,0.2,1.5,0.5c0.4,0.4,0.6,1.1,0.6,1.7v3.8h-1.3V294.6z"/>
		<path class="st2" d="M382.5,294.6h-1l-2.1-5.9h1.3l1.4,4.1l1.4-4.1h1.3L382.5,294.6z"/>
		<path class="st2" d="M386.5,291.9c-0.1,0.7,0.4,1.5,1.3,1.6c0.1,0,0.2,0,0.3,0c0.5,0,1.1-0.2,1.5-0.6l0.7,0.7
			c-0.5,0.6-1.4,1-2.2,1c-1.5,0-2.6-0.7-2.6-3.1c0-1.9,1-3.1,2.5-3.1s2.5,1.2,2.5,2.9v0.5h-4V291.9z M389,290.4
			c-0.2-0.4-0.6-0.7-1.2-0.7s-1,0.3-1.2,0.7c-0.1,0.2-0.2,0.5-0.1,0.8h2.6C389.2,290.9,389.2,290.6,389,290.4L389,290.4z"/>
		<path class="st2" d="M395.2,290c-0.2-0.3-0.5-0.4-0.8-0.4c-0.6,0-1.2,0.5-1.2,1.3v0.1v3.6h-1.3v-5.9h1.2v0.6
			c0.4-0.4,1-0.7,1.6-0.7c0.5,0,1.1,0.2,1.4,0.5L395.2,290z"/>
		<path class="st2" d="M399.2,294.6c-1,0.1-1.8-0.2-2.4-0.8l0.7-0.7c0.4,0.4,1.1,0.6,1.7,0.6c0.7,0,1.3-0.2,1.3-0.8
			c0-0.4-0.2-0.6-0.7-0.7l-1-0.1c-1.1-0.1-1.8-0.6-1.8-1.6c0-1,1-1.8,2.2-1.8c0.7-0.1,1.6,0.2,2.2,0.6l-0.7,0.7
			c-0.4-0.3-1-0.4-1.5-0.4c-0.7,0-1.1,0.3-1.1,0.7s0.2,0.6,0.8,0.6l1,0.1c1.1,0.1,1.8,0.6,1.8,1.7
			C401.7,294,400.6,294.6,399.2,294.6z"/>
		<path class="st2" d="M403,287.5v-1.3h1.3v1.3H403z M403,294.6v-5.9h1.2v5.9H403z"/>
		<path class="st2" d="M410.1,294c-0.4,0.4-1.1,0.7-1.8,0.7c-0.6,0-1.3-0.2-1.8-0.7c-1-1.4-1-3.3,0-4.7c0.4-0.4,1.1-0.7,1.8-0.7
			c0.6,0,1.3,0.2,1.8,0.7C411.1,290.7,411.1,292.5,410.1,294z M409.3,289.9c-0.2-0.2-0.5-0.3-0.8-0.3c-0.3,0-0.6,0.1-0.8,0.3
			c-0.5,1.1-0.5,2.2,0,3.3c0.2,0.2,0.5,0.3,0.8,0.3c0.3,0,0.6-0.1,0.8-0.3C409.8,292.3,409.8,291,409.3,289.9z"/>
		<path class="st2" d="M416.1,294.6V291c0.1-0.6-0.3-1.3-1-1.3c-0.1,0-0.1,0-0.2,0c-0.6,0-1.2,0.5-1.3,1.2c0,0.1,0,0.1,0,0.2v3.6
			h-1.2v-5.9h1.2v0.6c0.4-0.4,1-0.7,1.6-0.7c0.5,0,1.1,0.2,1.5,0.5c0.4,0.4,0.6,1.1,0.6,1.7v3.8L416.1,294.6z"/>
		<path class="st2" d="M421,294.6c-1,0.1-1.8-0.2-2.4-0.8l0.7-0.7c0.4,0.4,1.1,0.6,1.7,0.6c0.7,0,1.3-0.2,1.3-0.8
			c0-0.4-0.2-0.6-0.7-0.7l-1-0.1c-1.1-0.1-1.8-0.6-1.8-1.6c0-1,1-1.8,2.2-1.8c0.7-0.1,1.6,0.2,2.2,0.6l-0.7,0.7
			c-0.4-0.3-1-0.4-1.5-0.4c-0.7,0-1.1,0.3-1.1,0.7s0.2,0.6,0.8,0.6l1,0.1c1.1,0.1,1.8,0.6,1.8,1.7C423.6,294,422.5,294.6,421,294.6z
			"/>
		<rect x="316.7" y="285.4" class="st4" width="10.6" height="10.6"/>
		<path class="st2" d="M456.6,294.6v-5.5l-1.9,4h-1l-2-4v5.5h-1.3v-8.3h1.3l2.4,5.2l2.3-5.2h1.3v8.3H456.6z"/>
		<path class="st2" d="M463,294.6v-0.5c-0.4,0.4-1,0.6-1.6,0.6c-0.5,0.1-1.2-0.1-1.6-0.5c-0.3-0.3-0.5-0.8-0.4-1.3
			c0-1,0.6-1.7,2-1.7h1.6v-0.5c0-0.7-0.4-1.1-1.3-1.1c-0.5-0.1-1,0.1-1.3,0.5l-0.7-0.7c0.5-0.6,1.3-1,2.1-0.8c1.6,0,2.4,0.6,2.4,2
			v3.9L463,294.6z M463,291.9h-1.4c-0.7,0-1.1,0.3-1.1,0.8s0.3,0.8,1.1,0.8c0.4,0,0.8-0.1,1.1-0.3c0.2-0.2,0.3-0.5,0.2-0.8
			L463,291.9z"/>
		<path class="st2" d="M468.4,294.6c-1.4,0-2.6-0.8-2.6-3.1c0-2.2,1.3-3.1,2.6-3.1c0.7,0,1.5,0.3,1.9,0.8l-0.8,0.8
			c-0.5-0.6-1.4-0.7-2-0.2c-0.1,0.1-0.2,0.1-0.2,0.2c-0.3,0.4-0.4,1-0.3,1.5c-0.1,0.5,0.1,1.1,0.3,1.5c0.5,0.6,1.4,0.7,2,0.2
			c0.1-0.1,0.2-0.1,0.2-0.2l0.8,0.7C469.8,294.4,469.1,294.7,468.4,294.6z"/>
		<path class="st2" d="M475.3,294.6V291c0.1-0.6-0.3-1.2-1-1.3c-0.1,0-0.1,0-0.2,0c-0.6,0-1.2,0.4-1.2,1.1c0,0.1,0,0.1,0,0.2v3.6
			h-1.2v-8.3h1.2v3c0.4-0.4,1-0.6,1.5-0.6c1.1-0.1,2,0.7,2,1.8c0,0.1,0,0.2,0,0.3v3.8H475.3z"/>
		<path class="st2" d="M478.3,287.5v-1.3h1.3v1.3H478.3z M478.3,294.6v-5.9h1.2v5.9H478.3z"/>
		<path class="st2" d="M485,294.6V291c0.1-0.6-0.3-1.3-1-1.3c-0.1,0-0.1,0-0.2,0c-0.6,0-1.2,0.5-1.3,1.2c0,0.1,0,0.1,0,0.2v3.6h-1.2
			v-5.9h1.2v0.6c0.4-0.4,1-0.7,1.6-0.7c0.5,0,1.1,0.2,1.5,0.5c0.4,0.4,0.6,1.1,0.6,1.7v3.8L485,294.6z"/>
		<path class="st2" d="M488.9,291.9c-0.1,0.7,0.4,1.5,1.3,1.6c0.1,0,0.2,0,0.3,0c0.5,0,1.1-0.2,1.5-0.6l0.7,0.7
			c-0.5,0.6-1.4,1-2.2,1c-1.5,0-2.6-0.7-2.6-3.1c0-1.9,1-3.1,2.5-3.1c1.6,0,2.5,1.2,2.5,2.9v0.5h-4V291.9z M491.4,290.4
			c-0.2-0.4-0.6-0.7-1.2-0.7s-1,0.3-1.2,0.7c-0.1,0.2-0.2,0.5-0.1,0.8h2.6C491.5,290.9,491.5,290.6,491.4,290.4L491.4,290.4z"/>
		<path class="st2" d="M497.2,294.6v-8.3h1.3v7.2h4v1.2h-5.3V294.6z"/>
		<path class="st2" d="M504.8,291.9c0,1.1,0.5,1.7,1.5,1.7c0.5,0,1.1-0.2,1.5-0.6l0.7,0.7c-0.5,0.6-1.4,1-2.2,1
			c-1.5,0-2.6-0.7-2.6-3.1c0-1.9,1-3.1,2.5-3.1s2.5,1.2,2.5,2.9v0.5L504.8,291.9L504.8,291.9z M507.3,290.4c-0.3-0.6-1.1-1-1.7-0.6
			c-0.3,0.1-0.5,0.3-0.6,0.6c-0.1,0.2-0.2,0.5-0.1,0.8h2.6C507.4,290.9,507.4,290.6,507.3,290.4L507.3,290.4z"/>
		<path class="st2" d="M513.5,294.6v-0.5c-0.4,0.4-1,0.6-1.6,0.6c-0.5,0-1.2-0.1-1.6-0.5c-0.3-0.3-0.4-0.8-0.4-1.3
			c0-1,0.6-1.7,2-1.7h1.6v-0.5c0-0.7-0.4-1.1-1.3-1.1c-0.5-0.1-1,0.2-1.3,0.5l-0.7-0.7c0.5-0.6,1.3-1,2.1-0.8c1.6,0,2.4,0.6,2.4,2
			v3.9L513.5,294.6z M513.5,291.9h-1.4c-0.7,0-1.1,0.3-1.1,0.8s0.3,0.8,1.1,0.8c0.4,0,0.7-0.1,1.1-0.3c0.2-0.2,0.3-0.5,0.2-0.8
			L513.5,291.9z"/>
		<path class="st2" d="M519.7,290c-0.2-0.3-0.5-0.4-0.8-0.4c-0.6,0-1.2,0.6-1.2,1.3c0,0,0,0,0,0.1v3.6h-1.2v-5.9h1.2v0.6
			c0.4-0.4,1-0.7,1.6-0.7c0.5,0,1.1,0.2,1.4,0.5L519.7,290z"/>
		<path class="st2" d="M525.4,294.6V291c0.1-0.6-0.3-1.3-1-1.3c-0.1,0-0.1,0-0.2,0c-0.6,0-1.2,0.5-1.3,1.2c0,0.1,0,0.1,0,0.2v3.6
			h-1.2v-5.9h1.2v0.6c0.4-0.4,1-0.6,1.6-0.6c0.5,0,1.1,0.2,1.5,0.5c0.4,0.4,0.6,1.1,0.6,1.7v3.8h-1.3V294.6z"/>
		<path class="st2" d="M528.4,287.5v-1.3h1.3v1.3H528.4z M528.4,294.6v-5.9h1.3v5.9H528.4z"/>
		<path class="st2" d="M535.1,294.6V291c0.1-0.6-0.3-1.3-1-1.4c-0.1,0-0.2,0-0.2,0c-0.6,0-1.2,0.5-1.3,1.2c0,0.1,0,0.1,0,0.2v3.6
			h-1.2v-5.8h1.2v0.6c0.4-0.4,1-0.6,1.6-0.6c0.5,0,1.1,0.2,1.5,0.5c0.4,0.4,0.6,1.1,0.6,1.7v3.8h-1.3V294.6z"/>
		<path class="st2" d="M540.2,297c-0.7,0.1-1.6-0.2-2.1-0.7l0.7-0.7c0.3,0.3,0.8,0.5,1.3,0.5c0.7,0,1.4-0.5,1.4-1.3
			c0-0.1,0-0.1,0-0.2v-0.7c-0.3,0.4-1,0.7-1.5,0.6c-0.5,0-1.1-0.2-1.4-0.5c-0.8-1.5-0.8-3.3,0-4.8c0.4-0.3,1-0.5,1.4-0.5
			c0.6,0,1.2,0.2,1.6,0.7v-0.6h1.2v5.8c0.1,1.3-1,2.4-2.2,2.5C540.3,297,540.2,297,540.2,297z M540.3,289.6c-1.1,0-1.2,1-1.2,1.9
			c0,1,0.1,1.9,1.2,1.9s1.2-1,1.2-1.9C541.4,290.6,541.3,289.6,540.3,289.6L540.3,289.6z"/>
		<path class="st2" d="M550.3,287.4v7.2h-1.3v-7.2h-2.3v-1.2h5.8v1.2H550.3z"/>
		<path class="st2" d="M556.4,290c-0.2-0.3-0.5-0.4-0.8-0.4c-0.6,0-1.2,0.6-1.2,1.3c0,0,0,0,0,0.1v3.6h-1.2v-5.9h1.2v0.6
			c0.4-0.4,1-0.7,1.6-0.7c0.5,0,1.1,0.2,1.4,0.5L556.4,290z"/>
		<path class="st2" d="M561.7,294.6v-0.5c-0.4,0.4-1,0.6-1.6,0.6c-0.5,0-1.2-0.1-1.6-0.5c-0.3-0.3-0.5-0.8-0.4-1.3
			c0-1,0.7-1.7,2-1.7h1.6v-0.5c0-0.7-0.3-1.1-1.3-1.1c-0.5-0.1-1,0.2-1.3,0.5l-0.7-0.7c0.5-0.6,1.3-1,2.1-0.8c1.6,0,2.4,0.6,2.4,2
			v3.9L561.7,294.6z M561.7,291.9h-1.4c-0.7,0-1.1,0.3-1.1,0.8s0.3,0.8,1.1,0.8c0.4,0,0.7-0.1,1.1-0.3c0.2-0.2,0.3-0.5,0.2-0.8
			L561.7,291.9z"/>
		<path class="st2" d="M564.6,287.5v-1.3h1.3v1.3H564.6z M564.6,294.6v-5.9h1.2v5.9H564.6z"/>
		<path class="st2" d="M571.3,294.6V291c0-1-0.5-1.3-1.2-1.3c-0.6,0-1.2,0.4-1.3,1.2c0,0.1,0,0.1,0,0.2v3.6h-1.2v-5.9h1.2v0.6
			c0.4-0.4,1-0.6,1.6-0.6c0.5,0,1.1,0.2,1.5,0.5c0.4,0.4,0.6,1.1,0.6,1.7v3.8h-1.3V294.6z"/>
		<path class="st2" d="M574.3,287.5v-1.3h1.3v1.3H574.3z M574.3,294.6v-5.9h1.2v5.9H574.3z"/>
		<path class="st2" d="M581.1,294.6V291c0-1-0.5-1.3-1.2-1.3s-1.2,0.4-1.3,1.2c0,0.1,0,0.1,0,0.2v3.6h-1.3v-5.9h1.2v0.6
			c0.4-0.4,1-0.6,1.6-0.6c0.5,0,1.1,0.2,1.5,0.5c0.4,0.4,0.6,1.1,0.6,1.7v3.8h-1.2V294.6z"/>
		<path class="st2" d="M586.1,297c-0.7,0.1-1.6-0.2-2.1-0.7l0.7-0.7c0.3,0.3,0.8,0.5,1.3,0.5c0.7,0,1.4-0.5,1.4-1.3
			c0-0.1,0-0.2,0-0.2v-0.7c-0.3,0.4-1,0.7-1.5,0.6c-0.5,0-1.1-0.2-1.4-0.5c-0.8-1.5-0.8-3.3,0-4.8c0.4-0.3,0.8-0.5,1.4-0.5
			c0.6,0,1.2,0.2,1.6,0.7v-0.6h1.2v5.8c0.1,1.3-0.8,2.4-2.2,2.5C586.3,297,586.2,297,586.1,297z M586.2,289.6c-1.1,0-1.2,1-1.2,1.9
			c0,1,0.1,1.9,1.2,1.9s1.2-1,1.2-1.9C587.3,290.6,587.2,289.6,586.2,289.6z"/>
		<path class="st2" d="M592.4,294.6c-1,0.1-1.8-0.2-2.4-0.8l0.7-0.7c0.4,0.4,1.1,0.6,1.7,0.6c0.7,0,1.3-0.2,1.3-0.8
			c0-0.4-0.2-0.6-0.8-0.7l-1-0.1c-1.1-0.1-1.8-0.6-1.8-1.6c0-1,1-1.8,2.2-1.8c0.7,0,1.6,0.2,2.2,0.6l-0.7,0.7
			c-0.4-0.3-1-0.4-1.5-0.4c-0.7,0-1.1,0.3-1.1,0.7s0.2,0.6,0.8,0.6l1,0.1c1.1,0.1,1.8,0.6,1.8,1.7C595,294,593.9,294.6,592.4,294.6z
			"/>
		<rect x="434.3" y="285.4" class="st5" width="10.6" height="10.6"/>
		<path class="st7" d="M114.8,0.1h10.4v1.2h-9.1V8h7.7v1.2h-7.7v6.9h9.1v1.1h-10.4V0.1z"/>
		<path class="st7" d="M136,10.1c0-2.2-1.1-3.5-3.2-3.5s-3.3,1.2-3.3,3.5v7.2h-1.2V5.7h1.2V7c1.7-1.8,4.5-2,6.4-0.4
			c0.8,0.9,1.3,2,1.2,3.2v7.4H136V10.1z"/>
		<path class="st7" d="M148.3,15.8c-0.8,1.1-2.1,1.7-3.4,1.6c-1,0-2.1-0.3-2.8-1c-1.2-1.2-1.5-3.1-1.5-4.9s0.3-3.8,1.5-4.9
			c0.8-0.7,1.8-1,2.8-1c1.4-0.1,2.7,0.5,3.4,1.6v-7h1.2v17.1h-1.2V15.8z M145,6.6c-2.8,0-3.3,2.5-3.3,4.8s0.4,4.8,3.3,4.8
			s3.3-2.4,3.3-4.9S147.8,6.6,145,6.6z"/>
		<path class="st7" d="M153.2,10.3h6.3v1.1h-6.3V10.3z"/>
		<path class="st7" d="M163.3,14.2V6.6h-1.6V5.7h1.6V2h1.2v3.7h2.6v0.9h-2.6v7.6c0,1.2,0.6,1.9,1.8,1.9h0.8v1.1H166
			c-1.5,0.1-2.7-1.1-2.8-2.6C163.3,14.5,163.3,14.4,163.3,14.2z"/>
		<path class="st7" d="M177.1,16.1c-1.8,1.7-4.6,1.7-6.4,0c-1.1-1.3-1.6-3-1.4-4.7c-0.2-1.7,0.4-3.4,1.4-4.7c1.8-1.7,4.6-1.7,6.4,0
			c1.1,1.3,1.6,3,1.4,4.7C178.7,13.1,178.1,14.8,177.1,16.1z M176.2,7.6c-1.3-1.3-3.5-1.3-4.8,0c-1,1-1,2.5-1,3.9s0.1,2.9,1,3.9
			c1.3,1.3,3.5,1.3,4.8,0c1-1,1-2.5,1-3.9S177.2,8.5,176.2,7.6z"/>
		<path class="st7" d="M181.8,10.3h6.3v1.1h-6.3V10.3z"/>
		<path class="st7" d="M192,0.1h10.4v1.2h-9.1V8h7.7v1.2h-7.7v6.9h9.1v1.1H192V0.1z"/>
		<path class="st7" d="M213.2,10.1c0-2.2-1.1-3.5-3.2-3.5s-3.3,1.2-3.3,3.5v7.2h-1.2V5.7h1.2V7c1.7-1.8,4.6-2,6.5-0.4
			c0.8,0.9,1.3,2,1.2,3.2v7.4h-1.2V10.1z"/>
		<path class="st7" d="M225.4,15.8c-0.8,1.1-2.1,1.7-3.4,1.6c-1,0-2.1-0.3-2.8-1c-1.2-1.2-1.5-3.1-1.5-4.9s0.3-3.8,1.5-4.9
			c0.8-0.7,1.8-1,2.8-1c1.4-0.1,2.7,0.5,3.4,1.6v-7h1.2v17.1h-1.2V15.8z M222.2,6.6c-2.8,0-3.3,2.5-3.3,4.8s0.4,4.8,3.3,4.8
			s3.3-2.4,3.3-4.9S225,6.6,222.2,6.6z"/>
		<path class="st7" d="M238.3,8.3h7.7v1.1h-7.7v7.8H237V0.1h10.4v1.2h-9.1L238.3,8.3z"/>
		<path class="st7" d="M256.4,16.1c-0.9,1-2.2,1.4-3.5,1.3c-1.7,0-2.7-0.3-3.4-1.1c-0.6-0.6-0.9-1.4-0.8-2.2c0-2.1,1.5-3.3,4-3.3
			h3.8V9.4c0-1.8-0.9-2.8-3.3-2.8c-1.3-0.2-2.5,0.4-3.2,1.5l-1-0.8c1-1.4,2.2-1.8,4.1-1.8c3.1,0,4.5,1.4,4.5,3.8v7.9h-1.2V16.1z
			 M252.8,11.7c-2,0-3,0.8-3,2.3s0.9,2.3,3,2.3c1,0.1,2.1-0.2,2.9-0.9c0.5-0.6,0.7-1.4,0.6-2.2v-1.5H252.8z"/>
		<path class="st7" d="M265.2,17.4c-1.7,0.1-3.4-0.5-4.7-1.7l0.8-0.8c1,1,2.4,1.5,3.8,1.4c2.3,0,3.5-0.8,3.5-2.4
			c0-1.2-0.7-1.8-2.2-1.9l-1.9-0.2c-2.3-0.2-3.5-1.2-3.5-3c0-2,1.6-3.3,4.1-3.3c1.4,0,2.9,0.4,4,1.2l-0.8,0.8c-0.9-0.7-2.1-1-3.2-1
			c-1.9,0-3,0.8-3,2.2c0,1.2,0.7,1.8,2.4,1.9l1.9,0.2c1.9,0.2,3.4,0.8,3.4,3C269.8,16.1,268,17.4,265.2,17.4z"/>
		<path class="st7" d="M273.4,14.2V6.6h-1.6V5.7h1.6V2h1.2v3.7h2.6v0.9h-2.6v7.6c0,1.2,0.5,1.9,1.8,1.9h0.8v1.1h-1
			c-1.5,0.1-2.8-1-2.9-2.5C273.4,14.5,273.4,14.4,273.4,14.2z"/>
		<path class="st7" d="M284.3,16.3c1.2,0.1,2.4-0.5,3.2-1.4l0.9,0.7c-1.1,1.2-2.6,1.9-4.2,1.8c-3.2,0-4.9-2.1-4.9-5.9
			s1.7-5.9,4.7-5.9s4.6,2.1,4.6,5.6v0.6h-8C280.5,14.7,281.8,16.3,284.3,16.3z M287,8.5c-0.8-1.7-2.7-2.4-4.4-1.6
			c-0.7,0.3-1.3,0.9-1.6,1.6c-0.3,0.7-0.4,1.4-0.4,2.2h6.8C287.4,10,287.3,9.2,287,8.5z"/>
		<path class="st7" d="M296.2,6.6c-2,0-3.1,1.7-3.1,3.5v7.1h-1.2V5.7h1.2v1.5c0.8-1.1,2-1.7,3.4-1.7c1-0.1,2.1,0.3,2.8,1.1l-0.9,0.9
			C297.8,6.9,297,6.5,296.2,6.6z"/>
		<path class="st7" d="M311.7,17.4c-2.1,0.1-4.2-0.7-5.7-2.3l0.9-0.9c1.2,1.4,3,2.1,4.9,2c2.7,0,4.4-1.3,4.4-3.5
			c0.1-0.9-0.3-1.8-0.9-2.4c-0.7-0.6-1.6-0.9-2.5-0.9l-2-0.3c-1.1-0.1-2.2-0.5-3-1.2c-0.9-0.8-1.4-1.9-1.3-3.1c0-2.9,2-4.7,5.3-4.7
			c1.8-0.1,3.6,0.6,4.9,1.9l-0.8,0.8c-1.1-1.1-2.6-1.7-4.1-1.6c-2.5,0-4,1.4-4,3.5c-0.1,0.8,0.3,1.7,0.9,2.2
			c0.7,0.6,1.6,0.9,2.5,1.1l1.9,0.3c1.1,0,2.2,0.4,3,1.1c1,0.8,1.5,2,1.5,3.3C317.4,15.6,315.2,17.4,311.7,17.4z"/>
		<path class="st7" d="M328.1,16.4c-0.8,0.7-1.8,1-2.8,1c-1.4,0.1-2.7-0.5-3.4-1.6v7h-1.2V5.7h1.2v1.5c0.8-1.1,2.1-1.7,3.4-1.6
			c1,0,2.1,0.3,2.8,1c1.2,1.2,1.5,3.1,1.5,4.9S329.3,15.2,328.1,16.4z M325.1,6.6c-2.8,0-3.3,2.4-3.3,4.9s0.4,4.9,3.3,4.9
			s3.3-2.4,3.3-4.9S327.9,6.6,325.1,6.6z"/>
		<path class="st7" d="M337.4,16.3c1.2,0,2.4-0.5,3.2-1.4l0.9,0.7c-1.1,1.2-2.6,1.9-4.2,1.8c-3.2,0-4.9-2.1-4.9-5.9s1.7-5.9,4.6-5.9
			s4.6,2.1,4.6,5.6v0.6h-8C333.6,14.7,334.9,16.3,337.4,16.3z M340.1,8.5c-0.7-1.7-2.7-2.4-4.4-1.6c-0.7,0.3-1.3,0.9-1.6,1.6
			c-0.3,0.7-0.4,1.4-0.4,2.2h6.8C340.5,10,340.3,9.2,340.1,8.5L340.1,8.5z"/>
		<path class="st7" d="M349.5,16.3c1.2,0,2.4-0.5,3.2-1.4l0.9,0.7c-1,1.2-2.6,1.9-4.2,1.8c-3.2,0-4.9-2.1-4.9-5.9s1.7-5.9,4.6-5.9
			s4.6,2.1,4.6,5.6v0.6h-8C345.7,14.7,347,16.3,349.5,16.3z M352.1,8.5c-0.7-1.7-2.7-2.4-4.4-1.6c-0.7,0.3-1.3,0.9-1.6,1.6
			c-0.3,0.7-0.4,1.4-0.4,2.2h6.8C352.6,10,352.4,9.2,352.1,8.5z"/>
		<path class="st7" d="M364.3,15.8c-0.8,1.1-2.1,1.7-3.4,1.6c-1,0-2.1-0.3-2.8-1c-1.2-1.2-1.5-3.1-1.5-4.9s0.3-3.8,1.5-4.9
			c0.8-0.7,1.8-1,2.8-1c1.4-0.1,2.7,0.5,3.4,1.6v-7h1.2v17.1h-1.2V15.8z M361.1,6.6c-2.8,0-3.3,2.5-3.3,4.8s0.4,4.8,3.3,4.8
			s3.3-2.4,3.3-4.9S363.9,6.6,361.1,6.6z"/>
		<path class="st7" d="M373.2,17.4c-1.7,0.1-3.4-0.5-4.7-1.7l0.8-0.8c1,1,2.4,1.5,3.8,1.4c2.3,0,3.5-0.8,3.5-2.4
			c0-1.2-0.7-1.8-2.2-1.9l-1.9-0.2c-2.3-0.2-3.5-1.2-3.5-3c0-2,1.6-3.3,4.1-3.3c1.4,0,2.9,0.4,4.1,1.2l-0.8,0.8
			c-0.9-0.7-2.1-1-3.2-1c-1.9,0-3,0.8-3,2.2c0,1.2,0.7,1.8,2.4,1.9l1.9,0.2c1.9,0.2,3.4,0.8,3.4,3C377.8,16.1,376,17.4,373.2,17.4z"
			/>
		<path class="st7" d="M394.1,16.1c-1.8,1.7-4.6,1.7-6.4,0c-1.1-1.3-1.6-3-1.4-4.7c-0.2-1.7,0.4-3.4,1.4-4.7c1.8-1.7,4.6-1.7,6.4,0
			c1.1,1.3,1.6,3,1.4,4.7C395.7,13.1,395.2,14.8,394.1,16.1z M393.3,7.6c-1.3-1.3-3.5-1.3-4.8,0c-1,1-1,2.5-1,3.9s0.1,2.9,1,3.9
			c1.3,1.3,3.5,1.3,4.8,0c1-1,1-2.5,1-3.9S394.2,8.5,393.3,7.6L393.3,7.6z"/>
		<path class="st7" d="M406.6,10.1c0-2.2-1.1-3.5-3.2-3.5s-3.3,1.2-3.3,3.5v7.2h-1.2V5.7h1.2V7c1.7-1.8,4.6-2,6.5-0.4
			c0.8,0.9,1.3,2,1.2,3.2v7.4h-1.2V10.1z"/>
		<path class="st7" d="M424,9.4h-4.7v7.9H418V0.1h6.5c2.8,0,4.9,1.6,4.9,4.6c0.1,2.3-1.6,4.4-3.9,4.6l4.1,7.9h-1.5L424,9.4z
			 M424.3,1.3h-5v6.9h5c2.2,0,3.8-1.1,3.8-3.5S426.6,1.3,424.3,1.3L424.3,1.3z"/>
		<path class="st7" d="M442.9,13.1h-8l-1.5,4.1H432l6.3-17.1h1.2l6.3,17.1h-1.4L442.9,13.1z M435.4,11.9h7.2L439,1.8L435.4,11.9z"/>
		<path class="st7" d="M455,10h-5v7.2h-1.3V0.1h6.3c3,0,5.2,1.8,5.2,4.9S458,10,455,10z M454.9,1.3h-4.8v7.5h4.8c2.4,0,4-1.2,4-3.8
			S457.3,1.3,454.9,1.3L454.9,1.3z"/>
		<path class="st7" d="M463.5,0.1h1.3v17.1h-1.3V0.1z"/>
		<path class="st7" d="M479.3,15.7c-1.2,1.1-2.7,1.6-4.3,1.6h-5.7V0.1h5.7c1.6-0.1,3.1,0.5,4.3,1.6c1.7,1.7,1.6,4.4,1.6,6.8
			S481,14,479.3,15.7z M478.4,2.7c-1-0.9-2.3-1.4-3.7-1.3h-4.1v14.7h4.1c1.4,0.1,2.7-0.4,3.7-1.3c1.4-1.4,1.3-4.4,1.3-6.3
			S479.7,4,478.4,2.7L478.4,2.7z"/>
		<path class="st7" d="M489.5,17.4c-2.1,0.1-4.2-0.7-5.7-2.3l0.9-0.9c1.2,1.4,3,2.1,4.9,2c2.7,0,4.4-1.3,4.4-3.5
			c0.1-0.9-0.3-1.8-0.9-2.4c-0.7-0.6-1.6-0.9-2.5-0.9l-2-0.3c-1.1-0.1-2.1-0.6-3-1.2c-0.9-0.8-1.4-1.9-1.4-3.1c0-2.9,2-4.7,5.3-4.7
			c1.8-0.1,3.6,0.6,4.9,1.9l-0.8,0.8c-1.1-1.1-2.6-1.7-4.2-1.6c-2.5,0-4,1.4-4,3.5c-0.1,0.8,0.3,1.7,0.9,2.2
			c0.8,0.6,1.6,0.9,2.5,1.1l1.8,0.3c1.1,0,2.2,0.4,3,1.1c1,0.8,1.5,2,1.5,3.3C495.2,15.6,493,17.4,489.5,17.4z"/>
		<path class="st2" d="M134.1,293.7c-0.5,0.5-1.4,0.8-2.1,0.7h-2.9v-8.3h3c0.7,0,1.6,0.2,2.1,0.7c1,1,0.8,2.1,0.8,3.3
			S135,292.9,134.1,293.7z M133.2,287.9c-0.3-0.4-0.8-0.6-1.4-0.5h-1.5v6h1.5c0.5,0,1.1-0.2,1.4-0.5c0.4-0.7,0.5-1.7,0.4-2.5
			C133.6,289.2,133.6,288.4,133.2,287.9L133.2,287.9z"/>
		<path class="st2" d="M139.9,294.6v-0.5c-0.4,0.4-1,0.6-1.6,0.6c-0.5,0-1.2-0.1-1.6-0.5c-0.3-0.3-0.5-0.8-0.4-1.3
			c0-1,0.6-1.7,2-1.7h1.6v-0.5c0-0.7-0.4-1.1-1.3-1.1c-0.5-0.1-1,0.1-1.3,0.5l-0.7-0.7c0.5-0.6,1.3-1,2.1-0.8c1.6,0,2.4,0.6,2.4,2
			v3.9L139.9,294.6z M139.9,291.9h-1.4c-0.7,0-1.1,0.3-1.1,0.8s0.3,0.8,1.1,0.8c0.4,0,0.8-0.1,1.2-0.3c0.2-0.2,0.3-0.5,0.2-0.8
			V291.9z"/>
		<path class="st2" d="M144.7,294.6c-0.8,0-1.6-0.6-1.6-1.5c0-0.1,0-0.1,0-0.2v-3.3h-0.6v-1h0.6v-1.8h1.2v1.8h1.2v1h-1.2v3.2
			c0,0.4,0.2,0.6,0.6,0.6h0.5v1.1L144.7,294.6z"/>
		<path class="st2" d="M150.3,294.6v-0.5c-0.4,0.4-1,0.6-1.6,0.6c-0.5,0-1.2-0.1-1.6-0.5c-0.3-0.3-0.5-0.8-0.4-1.3
			c0-1,0.6-1.7,2-1.7h1.6v-0.5c0-0.7-0.4-1.1-1.3-1.1c-0.5-0.1-1,0.2-1.3,0.5l-0.7-0.7c0.5-0.6,1.3-1,2.1-0.8c1.6,0,2.4,0.6,2.4,2
			v3.9L150.3,294.6z M150.3,291.9h-1.4c-0.7,0-1.1,0.3-1.1,0.8s0.3,0.8,1.1,0.8c0.4,0,0.7-0.1,1.1-0.3c0.2-0.2,0.3-0.5,0.2-0.8
			L150.3,291.9z"/>
		<path class="st2" d="M156.2,294.6v-8.3h1.3v7.2h4v1.2h-5.3V294.6z"/>
		<path class="st2" d="M166.8,294c-0.4,0.4-1.1,0.7-1.8,0.7c-0.6,0-1.3-0.2-1.8-0.7c-1-1.4-1-3.3,0-4.7c0.4-0.4,1.1-0.7,1.8-0.7
			c0.6,0,1.3,0.2,1.8,0.7C167.8,290.7,167.8,292.5,166.8,294z M165.9,289.9c-0.2-0.2-0.5-0.3-0.8-0.3s-0.6,0.1-0.8,0.3
			c-0.5,1.1-0.5,2.2,0,3.3c0.2,0.2,0.5,0.3,0.8,0.3s0.6-0.1,0.8-0.3C166.4,292.3,166.4,291,165.9,289.9z"/>
		<path class="st2" d="M172.4,294.6v-0.5c-0.4,0.4-1,0.6-1.6,0.6c-0.5,0-1.2-0.1-1.6-0.5c-0.3-0.3-0.5-0.8-0.4-1.3
			c0-1,0.6-1.7,2-1.7h1.6v-0.5c0-0.7-0.4-1.1-1.3-1.1c-0.5-0.1-1.1,0.1-1.3,0.5l-0.7-0.7c0.5-0.6,1.3-1,2.1-0.8c1.6,0,2.4,0.6,2.4,2
			v3.9L172.4,294.6z M172.4,291.9h-1.4c-0.7,0-1.1,0.3-1.1,0.8s0.3,0.8,1.1,0.8c0.4,0,0.7-0.1,1.1-0.3c0.2-0.2,0.3-0.5,0.2-0.8
			L172.4,291.9z"/>
		<path class="st2" d="M178.9,294.6V294c-0.4,0.5-1,0.7-1.6,0.7c-0.5,0-1.1-0.2-1.5-0.5c-0.5-0.7-0.7-1.6-0.6-2.5
			c-0.1-0.8,0.1-1.8,0.6-2.5c0.4-0.3,1-0.5,1.5-0.5c0.6,0,1.2,0.2,1.6,0.6v-3h1.2v8.3h-1.2V294.6z M177.6,289.6c-1.1,0-1.3,1-1.3,2
			s0.2,2,1.3,2s1.3-1,1.3-2S178.7,289.6,177.6,289.6z"/>
		<path class="st2" d="M187.4,291.9v2h-1.1v-2h-2v-1.1h2V289h1.1v1.9h2v1.1H187.4z"/>
		<path class="st2" d="M195.1,287.4v2.5h3.5v1.2h-3.5v3.5h-1.3v-8.3h5.3v1.2L195.1,287.4z"/>
		<path class="st2" d="M201.4,291.9c0,1.1,0.5,1.7,1.5,1.7c0.5,0,1.1-0.2,1.5-0.6l0.7,0.7c-0.5,0.6-1.4,1-2.2,1
			c-1.5,0-2.6-0.7-2.6-3.1c0-1.9,1-3.1,2.5-3.1s2.5,1.2,2.5,2.9v0.5L201.4,291.9L201.4,291.9z M203.8,290.4c-0.3-0.6-1.1-1-1.7-0.6
			c-0.3,0.1-0.5,0.3-0.6,0.6c-0.1,0.2-0.2,0.5-0.1,0.8h2.6C204,290.9,203.9,290.6,203.8,290.4L203.8,290.4z"/>
		<path class="st2" d="M210.1,294.6v-0.5c-0.4,0.4-1,0.6-1.6,0.6c-0.5,0-1.2-0.1-1.6-0.5c-0.3-0.3-0.5-0.8-0.4-1.3
			c0-1,0.6-1.7,2-1.7h1.6v-0.5c0-0.7-0.4-1.1-1.3-1.1c-0.5-0.1-1,0.2-1.3,0.5l-0.7-0.7c0.5-0.6,1.3-1,2.1-0.8c1.6,0,2.4,0.6,2.4,2
			v3.9L210.1,294.6z M210.1,291.9h-1.5c-0.7,0-1.1,0.3-1.1,0.8s0.3,0.8,1.1,0.8c0.4,0,0.7-0.1,1.1-0.3c0.2-0.2,0.3-0.5,0.2-0.8
			L210.1,291.9z"/>
		<path class="st2" d="M214.8,294.6c-0.8,0-1.6-0.6-1.6-1.5c0-0.1,0-0.1,0-0.2v-3.3h-0.6v-1h0.6v-1.8h1.2v1.8h1.2v1h-1.2v3.2
			c0,0.4,0.2,0.6,0.6,0.6h0.5v1.1L214.8,294.6z"/>
		<path class="st2" d="M220.5,294.6V294c-0.4,0.4-1,0.6-1.6,0.6c-0.5,0-1.1-0.2-1.5-0.5c-0.4-0.4-0.6-1.1-0.6-1.7v-3.8h1.2v3.6
			c0,1,0.5,1.3,1.2,1.3c0.6,0,1.2-0.4,1.3-1.2c0-0.1,0-0.1,0-0.2v-3.6h1.2v5.9h-1.1V294.6z"/>
		<path class="st2" d="M226.8,290c-0.2-0.3-0.5-0.4-0.8-0.4c-0.6,0-1.2,0.5-1.2,1.3v0.1v3.6h-1.2v-5.9h1.2v0.6
			c0.4-0.4,1-0.7,1.6-0.7c0.5,0,1.1,0.2,1.4,0.5L226.8,290z"/>
		<path class="st2" d="M229.7,291.9c-0.1,0.7,0.4,1.5,1.3,1.6c0.1,0,0.2,0,0.3,0c0.5,0,1.1-0.2,1.5-0.6l0.7,0.7
			c-0.5,0.6-1.4,1-2.2,1c-1.5,0-2.6-0.7-2.6-3.1c0-1.9,1-3.1,2.5-3.1s2.5,1.2,2.5,2.9v0.5h-4V291.9z M232.1,290.4
			c-0.2-0.4-0.6-0.7-1.2-0.7s-1,0.3-1.2,0.7c-0.1,0.2-0.2,0.5-0.1,0.8h2.6C232.3,290.9,232.2,290.6,232.1,290.4L232.1,290.4z"/>
		<path class="st2" d="M237.9,294.6v-8.3h5.3v1.2h-4v2.4h3.5v1.1h-3.5v2.5h4v1.2h-5.3V294.6z"/>
		<path class="st2" d="M248.4,294.6V291c0.1-0.6-0.3-1.3-1-1.3c-0.1,0-0.1,0-0.2,0c-0.6,0-1.2,0.5-1.3,1.2c0,0.1,0,0.1,0,0.2v3.6
			h-1.2v-5.9h1.2v0.6c0.4-0.4,1-0.6,1.6-0.6c0.5,0,1.1,0.2,1.5,0.5c0.4,0.4,0.6,1.1,0.6,1.7v3.8h-1.3V294.6z"/>
		<path class="st2" d="M253.5,297c-0.7,0.1-1.6-0.2-2.1-0.7l0.7-0.7c0.3,0.3,0.8,0.5,1.3,0.5c0.7,0,1.4-0.5,1.4-1.3
			c0-0.1,0-0.1,0-0.2v-0.7c-0.3,0.4-1,0.7-1.5,0.6c-0.5,0-1.1-0.2-1.4-0.5c-0.8-1.5-0.8-3.3,0-4.8c0.4-0.3,0.8-0.5,1.4-0.5
			c0.6,0,1.2,0.2,1.6,0.7v-0.6h1.2v5.8c0.1,1.3-1,2.4-2.2,2.5C253.6,297,253.5,297,253.5,297z M253.6,289.6c-1.1,0-1.2,1-1.2,1.9
			c0,1,0.1,1.9,1.2,1.9s1.2-1,1.2-1.9C254.8,290.6,254.7,289.6,253.6,289.6z"/>
		<path class="st2" d="M257.8,287.5v-1.3h1.3v1.3H257.8z M257.8,294.6v-5.9h1.2v5.9H257.8z"/>
		<path class="st2" d="M264.5,294.6V291c0.1-0.6-0.3-1.3-1-1.3c-0.1,0-0.1,0-0.2,0c-0.6,0-1.2,0.5-1.3,1.2c0,0.1,0,0.1,0,0.2v3.6
			h-1.2v-5.9h1.2v0.6c0.4-0.4,1-0.7,1.6-0.7c0.5,0,1.1,0.2,1.5,0.5c0.4,0.4,0.6,1.1,0.6,1.7v3.8L264.5,294.6z"/>
		<path class="st2" d="M268.4,291.9c0,1.1,0.5,1.7,1.5,1.7c0.5,0,1.1-0.2,1.5-0.6l0.7,0.7c-0.5,0.6-1.4,1-2.2,1
			c-1.5,0-2.6-0.7-2.6-3.1c0-1.9,1-3.1,2.5-3.1s2.5,1.2,2.5,2.9v0.5L268.4,291.9L268.4,291.9z M271,290.4c-0.3-0.6-1.1-1-1.7-0.6
			c-0.3,0.1-0.5,0.3-0.6,0.6c-0.1,0.2-0.2,0.5-0.1,0.8h2.6C271.1,290.9,271.1,290.6,271,290.4L271,290.4z"/>
		<path class="st2" d="M274.8,291.9c-0.1,0.7,0.4,1.5,1.3,1.6c0.1,0,0.2,0,0.3,0c0.5,0,1.1-0.2,1.5-0.6l0.7,0.7
			c-0.5,0.6-1.4,1-2.2,1c-1.5,0-2.6-0.7-2.6-3.1c0-1.9,1-3.1,2.5-3.1c1.6,0,2.5,1.2,2.5,2.9v0.5h-4V291.9z M277.3,290.4
			c-0.3-0.6-1.1-1-1.7-0.6c-0.3,0.1-0.5,0.3-0.6,0.6c-0.1,0.2-0.2,0.5-0.1,0.8h2.6C277.5,290.9,277.5,290.6,277.3,290.4L277.3,290.4
			z"/>
		<path class="st2" d="M283.5,290c-0.2-0.3-0.5-0.4-0.8-0.4c-0.6,0-1.2,0.6-1.2,1.3c0,0,0,0,0,0.1v3.6h-1.2v-5.9h1.2v0.6
			c0.4-0.4,1-0.7,1.6-0.7c0.5,0,1.1,0.2,1.4,0.5L283.5,290z"/>
		<path class="st2" d="M285.5,287.5v-1.3h1.3v1.3H285.5z M285.5,294.6v-5.9h1.2v5.9H285.5z"/>
		<path class="st2" d="M292.3,294.6V291c0.1-0.6-0.3-1.3-1-1.3c-0.1,0-0.1,0-0.2,0c-0.6,0-1.2,0.5-1.3,1.2c0,0.1,0,0.1,0,0.2v3.6
			h-1.2v-5.9h1.2v0.6c0.4-0.4,1-0.6,1.6-0.6c0.5,0,1.1,0.2,1.5,0.5c0.4,0.4,0.6,1.1,0.6,1.7v3.8h-1.3V294.6z"/>
		<path class="st2" d="M297.3,297c-0.7,0.1-1.6-0.2-2.1-0.7l0.7-0.7c0.3,0.3,0.8,0.5,1.3,0.5c0.7,0,1.4-0.5,1.4-1.3
			c0-0.1,0-0.1,0-0.2v-0.7c-0.3,0.4-1,0.7-1.5,0.6c-0.5,0-1.1-0.2-1.4-0.5c-0.8-1.5-0.8-3.3,0-4.8c0.4-0.3,0.8-0.5,1.4-0.5
			c0.6,0,1.2,0.2,1.6,0.7v-0.6h1.2v5.8c0.1,1.3-1,2.4-2.2,2.5C297.5,297,297.4,297,297.3,297z M297.4,289.6c-1.1,0-1.2,1-1.2,1.9
			c0,1,0.1,1.9,1.2,1.9s1.2-1,1.2-1.9C298.5,290.6,298.5,289.6,297.4,289.6L297.4,289.6z"/>
		<path class="st2" d="M303.6,294.6c-1,0.1-1.8-0.2-2.4-0.8l0.7-0.7c0.4,0.4,1.1,0.6,1.7,0.6c0.7,0,1.3-0.2,1.3-0.8
			c0-0.4-0.2-0.6-0.8-0.7l-1-0.1c-1.1-0.1-1.7-0.6-1.7-1.6c0-1,1-1.8,2.2-1.8c0.7,0,1.6,0.2,2.2,0.6l-0.7,0.7
			c-0.4-0.3-1-0.4-1.5-0.4c-0.7,0-1.1,0.3-1.1,0.7s0.2,0.6,0.8,0.6l1,0.1c1.1,0.1,1.8,0.6,1.8,1.7
			C306.1,294,305.1,294.6,303.6,294.6z"/>
		<path class="st2" d="M265.8,246.9v7.2h-1.3v-7.2h-2.3v-1.2h5.8v1.2H265.8z"/>
		<path class="st2" d="M269.5,247v-1.3h1.3v1.3H269.5z M269.5,254.1v-5.9h1.2v5.9H269.5z"/>
		<path class="st2" d="M279.8,254.1v-3.6c0-1-0.5-1.3-1.2-1.3s-1.2,0.4-1.3,1.2v0.1v3.7h-1.2v-3.6c0-1-0.5-1.3-1.2-1.3
			s-1.2,0.5-1.3,1.2c0,0.1,0,0.1,0,0.2v3.6h-1.2v-5.9h1.2v0.6c0.4-0.4,1-0.6,1.6-0.6s1.3,0.3,1.7,0.8c0.4-0.5,1.2-0.8,1.9-0.8
			c0.5,0,1.1,0.2,1.5,0.5c0.4,0.4,0.6,1.1,0.6,1.7v3.8L279.8,254.1z"/>
		<path class="st2" d="M283.7,251.5c-0.1,0.7,0.4,1.5,1.3,1.6c0.1,0,0.2,0,0.3,0c0.5,0,1.1-0.2,1.5-0.6l0.7,0.7
			c-0.5,0.6-1.4,1-2.2,1c-1.5,0-2.6-0.7-2.6-3.1c0-1.9,1-3.1,2.5-3.1s2.5,1.2,2.5,2.9v0.5h-4V251.5z M286.1,249.9
			c-0.2-0.4-0.6-0.7-1.2-0.7s-1,0.3-1.2,0.7c-0.1,0.2-0.2,0.5-0.1,0.8h2.6C286.4,250.4,286.2,250.1,286.1,249.9L286.1,249.9z"/>
		<path class="st2" d="M293.1,255.2c-0.3-0.3-0.6-0.6-1-1.1c-0.2-0.4-0.3-0.8-0.2-1.4v-5.5c0-0.4,0.1-1,0.2-1.4
			c0.3-0.4,0.5-0.7,1-1.1l0.8,0.8c-0.2,0.2-0.4,0.4-0.6,0.7c-0.1,0.3-0.2,0.6-0.2,1v5.4c0,0.3,0,0.6,0.2,1c0.2,0.3,0.4,0.5,0.6,0.7
			L293.1,255.2z"/>
		<path class="st2" d="M297.4,254.1c-1,0.1-1.8-0.2-2.5-0.8l0.7-0.7c0.4,0.4,1.1,0.6,1.7,0.6c0.7,0,1.3-0.2,1.3-0.8
			c0-0.4-0.2-0.6-0.8-0.7l-1-0.1c-1.1-0.1-1.7-0.6-1.7-1.6c0-1,1-1.8,2.2-1.8c0.7,0,1.6,0.2,2.2,0.6l-0.7,0.7
			c-0.4-0.3-1-0.4-1.5-0.4c-0.7,0-1.1,0.3-1.1,0.7c0,0.4,0.2,0.6,0.8,0.6l1,0.1c1.1,0.1,1.8,0.6,1.8,1.7
			C299.8,253.5,298.8,254.1,297.4,254.1z"/>
		<path class="st2" d="M302.3,251.5c-0.1,0.7,0.4,1.5,1.3,1.6c0.1,0,0.2,0,0.3,0c0.5,0,1.1-0.2,1.5-0.6l0.7,0.7
			c-0.5,0.6-1.4,1-2.2,1c-1.5,0-2.6-0.7-2.6-3.1c0-1.9,1-3.1,2.5-3.1s2.5,1.2,2.5,2.9v0.5h-4V251.5z M304.8,249.9
			c-0.3-0.6-1.1-1-1.7-0.6c-0.3,0.1-0.5,0.3-0.6,0.6c-0.1,0.2-0.2,0.5-0.1,0.8h2.6C304.9,250.4,304.9,250.1,304.8,249.9L304.8,249.9
			z"/>
		<path class="st2" d="M310.1,254.1c-1.4,0-2.6-0.8-2.6-3.1s1.3-3.1,2.6-3.1c0.7,0,1.5,0.3,1.9,0.8l-0.8,0.8
			c-0.2-0.3-0.6-0.5-1.2-0.5c-0.4,0-0.8,0.2-1.1,0.5c-0.3,0.4-0.4,1-0.3,1.5c0,0.5,0.1,1.1,0.3,1.5c0.2,0.3,0.6,0.5,1.1,0.5
			c0.4,0,0.8-0.2,1.2-0.5l0.8,0.7C311.6,253.9,310.8,254.2,310.1,254.1z"/>
		<path class="st2" d="M317.3,253.5c-0.4,0.4-1.1,0.7-1.8,0.7c-0.6,0-1.3-0.2-1.8-0.7c-1-1.4-1-3.3,0-4.7c0.4-0.4,1.1-0.7,1.8-0.7
			c0.6,0,1.3,0.2,1.8,0.7C318.3,250.2,318.3,252,317.3,253.5z M316.5,249.4c-0.5-0.4-1.3-0.4-1.7,0c-0.5,1.1-0.5,2.2,0,3.3
			c0.5,0.4,1.3,0.4,1.7,0C317,251.7,317,250.5,316.5,249.4z"/>
		<path class="st2" d="M323.2,254.1v-3.6c0-1-0.5-1.3-1.2-1.3s-1.2,0.4-1.3,1.2c0,0.1,0,0.1,0,0.2v3.6h-1.2v-5.9h1.2v0.6
			c0.4-0.4,1-0.6,1.6-0.6c0.5,0,1.1,0.2,1.5,0.5c0.4,0.4,0.6,1.1,0.6,1.7v3.8h-1.3V254.1z"/>
		<path class="st2" d="M329.7,254.1v-0.6c-0.3,0.5-1,0.7-1.6,0.7c-0.5,0-1.1-0.2-1.5-0.5c-0.5-0.7-0.7-1.6-0.6-2.5
			c-0.1-0.8,0.1-1.8,0.6-2.5c0.4-0.3,1-0.5,1.5-0.5c0.6,0,1.2,0.2,1.6,0.6v-3h1.2v8.3L329.7,254.1z M328.5,249.1c-1.1,0-1.3,1-1.3,2
			s0.1,2,1.3,2s1.2-1,1.2-2S329.6,249.1,328.5,249.1L328.5,249.1z"/>
		<path class="st2" d="M334.8,254.1c-1,0.1-1.8-0.2-2.4-0.8l0.7-0.7c0.4,0.4,1.1,0.6,1.7,0.6c0.7,0,1.3-0.2,1.3-0.8
			c0-0.4-0.2-0.6-0.8-0.7l-1-0.1c-1.1-0.1-1.7-0.6-1.7-1.6c0-1,1-1.8,2.2-1.8c0.7-0.1,1.6,0.2,2.2,0.6l-0.7,0.7
			c-0.4-0.3-1-0.4-1.5-0.4c-0.7,0-1.1,0.3-1.1,0.7c0,0.4,0.2,0.6,0.8,0.6l1,0.1c1.1,0.1,1.8,0.6,1.8,1.7
			C337.2,253.5,336.2,254.1,334.8,254.1z"/>
		<path class="st2" d="M340,254.1c-0.2,0.4-0.5,0.7-1,1.1l-0.8-0.8c0.2-0.2,0.4-0.5,0.6-0.7c0.1-0.3,0.2-0.6,0.2-1v-5.4
			c0-0.3,0-0.6-0.2-1c-0.2-0.3-0.4-0.5-0.6-0.7l0.8-0.8c0.3,0.3,0.6,0.6,1,1.1c0.2,0.4,0.3,0.8,0.3,1.4v5.6
			C340.3,253.2,340.2,253.7,340,254.1z"/>
		<path class="st8" d="M344.6,251.4v-1.2h5v1.2H344.6z"/>
		<path class="st2" d="M356.3,254.1c-1.1,0.1-2.1-0.3-3-1.1l0.8-0.8c0.5,0.5,1.4,0.8,2.1,0.7c1.1,0,1.7-0.4,1.7-1.3
			c0-0.3-0.1-0.6-0.3-0.8s-0.5-0.3-1-0.3l-0.8-0.1c-0.5-0.1-1.2-0.3-1.6-0.6c-0.4-0.4-0.6-1-0.6-1.6c0-1.4,1.1-2.4,2.4-2.4
			c0.1,0,0.2,0,0.3,0c1-0.1,1.9,0.3,2.5,1l-0.8,0.8c-0.5-0.4-1.2-0.7-1.8-0.6c-1,0-1.5,0.5-1.5,1.3c0,0.3,0.1,0.5,0.3,0.7
			c0.3,0.2,0.6,0.3,1,0.4l1,0.1c0.5,0,1.1,0.2,1.6,0.6c0.4,0.4,0.7,1.1,0.6,1.7C359.3,253.3,358,254.1,356.3,254.1z"/>
		<path class="st2" d="M364.5,254.1v-3.7c0.1-0.6-0.3-1.2-1-1.3c-0.1,0-0.1,0-0.2,0c-0.6,0-1.2,0.4-1.2,1.1c0,0.1,0,0.1,0,0.2v3.6
			H361v-8.3h1.2v3c0.4-0.4,1-0.6,1.5-0.6c1.1-0.1,2,0.7,2,1.8c0,0.1,0,0.2,0,0.3v3.8L364.5,254.1z"/>
		<path class="st2" d="M371.5,253.5c-0.4,0.4-1.1,0.7-1.8,0.7c-0.6,0-1.3-0.2-1.8-0.7c-1-1.4-1-3.3,0-4.7c0.4-0.4,1.1-0.7,1.8-0.7
			c0.6,0,1.3,0.2,1.8,0.7C372.3,250.2,372.3,252,371.5,253.5z M370.5,249.4c-0.5-0.4-1.3-0.4-1.7,0c-0.5,1.1-0.5,2.2,0,3.3
			c0.5,0.4,1.3,0.4,1.7,0C371,251.7,371,250.5,370.5,249.4z"/>
		<path class="st2" d="M377,249.6c-0.2-0.3-0.5-0.4-0.8-0.4c-0.6,0-1.2,0.6-1.2,1.3c0,0,0,0,0,0.1v3.6h-1.2v-5.9h1.2v0.6
			c0.4-0.4,1-0.7,1.6-0.7c0.5,0,1.1,0.2,1.4,0.5L377,249.6z"/>
		<path class="st2" d="M381.1,254.1c-0.8,0-1.6-0.6-1.6-1.5c0-0.1,0-0.1,0-0.2v-3.3h-0.6v-0.8h0.6v-1.8h1.2v1.8h1.2v1h-1.2v3.2
			c0,0.3,0.2,0.6,0.5,0.6h0.1h0.5v1.1H381.1z"/>
		<path class="st2" d="M384.2,251.5c-0.1,0.7,0.4,1.5,1.3,1.6c0.1,0,0.2,0,0.3,0c0.5,0,1.1-0.2,1.5-0.6l0.7,0.7
			c-0.5,0.6-1.4,1-2.2,1c-1.5,0-2.6-0.7-2.6-3.1c0-1.9,1-3.1,2.5-3.1s2.5,1.2,2.5,2.9v0.5h-4V251.5z M386.6,249.9
			c-0.2-0.4-0.6-0.7-1.2-0.7s-1,0.3-1.2,0.7c-0.1,0.2-0.2,0.5-0.1,0.8h2.6C386.8,250.4,386.7,250.1,386.6,249.9L386.6,249.9z"/>
		<path class="st2" d="M392.9,249.6c-0.2-0.3-0.5-0.4-0.8-0.4c-0.6,0-1.2,0.5-1.2,1.3v0.1v3.6h-1.2v-5.9h1.2v0.6
			c0.4-0.4,1-0.7,1.6-0.7c0.5,0,1.1,0.2,1.4,0.5L392.9,249.6z"/>
		<path class="st2" d="M397.4,247v-1.3h1.3v1.3H397.4z M397.4,254.1v-5.9h1.2v5.9H397.4z"/>
		<path class="st2" d="M402.5,254.1c-1,0.1-1.8-0.2-2.5-0.8l0.7-0.7c0.4,0.4,1.1,0.6,1.7,0.6c0.7,0,1.3-0.2,1.3-0.8
			c0-0.4-0.2-0.6-0.8-0.7l-1-0.1c-1.1-0.1-1.7-0.6-1.7-1.6c0-1,1-1.8,2.2-1.8c0.7,0,1.6,0.2,2.2,0.6l-0.7,0.7
			c-0.4-0.3-1-0.4-1.5-0.4c-0.7,0-1.1,0.3-1.1,0.7c0,0.4,0.2,0.6,0.8,0.6l1,0.1c1.1,0.1,1.8,0.6,1.8,1.7
			C404.9,253.5,404,254.1,402.5,254.1z"/>
		<path class="st2" d="M412.7,254.1h-3.4v-8.3h3.2c1.3-0.1,2.3,0.7,2.5,1.9c0,0.1,0,0.2,0,0.3c0,0.7-0.4,1.5-1.2,1.8
			c0.7,0.3,1.3,1.1,1.3,1.9c0.1,1.3-1,2.3-2.1,2.3C412.9,254.1,412.8,254.1,412.7,254.1z M412.5,246.9h-1.9v2.3h1.9
			c0.8,0,1.4-0.4,1.4-1.2S413.3,246.9,412.5,246.9z M412.6,250.4h-2v2.5h2c0.7,0.1,1.3-0.4,1.4-1.2c0.1-0.7-0.4-1.3-1.2-1.4
			C412.8,250.4,412.7,250.4,412.6,250.4z"/>
		<path class="st2" d="M417.9,251.5c-0.1,0.7,0.4,1.5,1.3,1.6c0.1,0,0.2,0,0.3,0c0.5,0,1.1-0.2,1.5-0.6l0.7,0.7
			c-0.5,0.6-1.4,1-2.2,1c-1.5,0-2.6-0.7-2.6-3.1c0-1.9,1-3.1,2.5-3.1s2.5,1.2,2.5,2.9v0.5h-4V251.5z M420.4,249.9
			c-0.2-0.4-0.6-0.7-1.2-0.7s-1,0.3-1.2,0.7c-0.1,0.2-0.2,0.5-0.1,0.8h2.6C420.5,250.4,420.5,250.1,420.4,249.9z"/>
		<path class="st2" d="M425.1,254.1c-0.8,0-1.6-0.6-1.6-1.5c0-0.1,0-0.1,0-0.2v-3.3h-0.6v-0.8h0.6v-1.8h1.2v1.8h1.2v1h-1.2v3.2
			c0,0.4,0.2,0.6,0.6,0.6h0.5v1.1H425.1z"/>
		<path class="st2" d="M429.3,254.1c-0.8,0-1.6-0.6-1.6-1.5c0-0.1,0-0.1,0-0.2v-3.3h-0.6v-0.8h0.6v-1.8h1.2v1.8h1.2v1h-1.2v3.2
			c0,0.4,0.2,0.6,0.6,0.6h0.5v1.1H429.3z"/>
		<path class="st2" d="M432.3,251.5c-0.1,0.7,0.4,1.5,1.3,1.6c0.1,0,0.2,0,0.3,0c0.5,0,1.1-0.2,1.5-0.6l0.7,0.7
			c-0.5,0.6-1.4,1-2.2,1c-1.5,0-2.6-0.7-2.6-3.1c0-1.9,1-3.1,2.5-3.1s2.5,1.2,2.5,2.9v0.5h-4V251.5z M434.8,249.9
			c-0.2-0.4-0.6-0.7-1.2-0.7s-1,0.3-1.2,0.7c-0.1,0.2-0.2,0.5-0.1,0.8h2.6C434.9,250.4,434.9,250.1,434.8,249.9z"/>
		<path class="st2" d="M441,249.6c-0.2-0.3-0.5-0.4-0.8-0.4c-0.6,0-1.2,0.6-1.2,1.3c0,0,0,0,0,0.1v3.6h-1.2v-5.9h1.2v0.6
			c0.4-0.4,1-0.7,1.6-0.7c0.5,0,1.1,0.2,1.4,0.5L441,249.6z"/>
	</g>
</g>
</svg>
