<svg id="LOGO" xmlns="http://www.w3.org/2000/svg" xmlns:xlink="http://www.w3.org/1999/xlink" viewBox="0 0 1250 703"><defs><clipPath id="clip-path"><polygon points="871.19 306.52 828.38 401.95 836.29 401.95 875.14 313.61 914.13 401.95 922.04 401.95 879.23 306.52 871.19 306.52" fill="none"/></clipPath><linearGradient id="linear-gradient" x1="977.5" y1="-60.86" x2="980.39" y2="-60.86" gradientTransform="matrix(0, 33.04, 33.04, 0, 2886.12, -31989.5)" gradientUnits="userSpaceOnUse"><stop offset="0" stop-color="#f05922"/><stop offset="0.01" stop-color="#f05922"/><stop offset="1" stop-color="#bc202e"/></linearGradient><clipPath id="clip-path-2"><polygon points="1029.1 306.52 986.29 401.95 994.2 401.95 1033.05 313.61 1072.04 401.95 1079.95 401.95 1037.14 306.52 1029.1 306.52" fill="none"/></clipPath><linearGradient id="linear-gradient-2" x1="977.5" y1="-57.74" x2="980.39" y2="-57.74" gradientTransform="matrix(0, 33.04, 33.04, 0, 2940.8, -31989.5)" xlink:href="#linear-gradient"/><clipPath id="clip-path-3"><path d="M740.87,306.39v7h7.36v0h24.95c27.53,0,40.62,19.77,41,39.67.41,20.46-12.68,41.72-41,41.72H748.23V326.64h-7.36v75.17h32.31c33.39,0,48.94-24.54,48.39-48.81-.55-23.44-16.08-46.61-48.39-46.61Z" fill="none"/></clipPath><linearGradient id="linear-gradient-3" x1="977.5" y1="-62.72" x2="980.38" y2="-62.72" gradientTransform="matrix(0, 33.04, 33.04, 0, 2853.58, -31989.55)" xlink:href="#linear-gradient"/><clipPath id="clip-path-4"><polygon points="914.85 306.59 914.85 313.13 949.34 313.13 949.34 401.88 956.7 401.88 956.7 313.13 991.19 313.13 991.19 306.59 914.85 306.59" fill="none"/></clipPath><linearGradient id="linear-gradient-4" x1="977.53" y1="-59.34" x2="980.42" y2="-59.34" gradientTransform="matrix(0, 32.99, 32.99, 0, 2910.94, -31944.41)" xlink:href="#linear-gradient"/><clipPath id="clip-path-5"><polygon points="232.01 303.3 232 303.3 232 317.2 232.01 317.2 232.01 317.2 232.03 317.2 321.16 317.2 245.92 391.75 245.92 331.1 232.03 331.1 232.01 331.1 232.01 409.81 246.14 409.81 341.18 317.19 341.18 303.3 232.01 303.3" fill="none"/></clipPath><linearGradient id="linear-gradient-5" x1="971.75" y1="-67.33" x2="973.93" y2="-67.33" gradientTransform="matrix(0, 48.9, 48.9, 0, 3578.75, -47212.02)" xlink:href="#linear-gradient"/><clipPath id="clip-path-6"><polygon points="218.12 303.3 125 303.3 125 317.15 218.12 409.75 218.12 390.94 186.46 358.98 218.12 358.98 218.39 358.98 218.39 345.08 218.12 345.08 172.72 345.08 172.72 345.1 145.09 317.2 218.12 317.2 218.15 317.2 218.15 303.3 218.12 303.3" fill="none"/></clipPath><linearGradient id="linear-gradient-6" x1="971.76" y1="-68.61" x2="973.94" y2="-68.61" gradientTransform="matrix(0, 48.87, 48.87, 0, 3524.84, -47187.36)" xlink:href="#linear-gradient"/><clipPath id="clip-path-7"><polygon points="218.12 409.81 218.17 409.81 218.12 409.75 218.12 409.81" fill="none"/></clipPath><linearGradient id="linear-gradient-7" x1="36747.69" y1="-43702.84" x2="36749.87" y2="-43702.84" gradientTransform="matrix(0, 0.03, 0.03, 0, 1348.14, -540.41)" xlink:href="#linear-gradient"/></defs><title>nvidia-partner-fastdata-logo</title><g clip-path="url(#clip-path)"><rect x="828.38" y="306.52" width="93.66" height="95.43" fill="url(#linear-gradient)"/></g><g clip-path="url(#clip-path-2)"><rect x="986.29" y="306.52" width="93.65" height="95.43" fill="url(#linear-gradient-2)"/></g><g clip-path="url(#clip-path-3)"><rect x="740.87" y="306.39" width="81.25" height="95.42" fill="url(#linear-gradient-3)"/></g><g clip-path="url(#clip-path-4)"><rect x="914.85" y="306.59" width="76.34" height="95.29" fill="url(#linear-gradient-4)"/></g><polygon points="515.23 306.52 507.19 306.52 464.38 401.94 472.29 401.94 511.14 313.61 550.13 401.94 558.03 401.94 515.23 306.52" fill="#58595b"/><polygon points="397.37 348.19 397.37 402.01 404.73 402.01 404.73 355.21 459.66 355.21 459.66 348.26 397.37 348.19" fill="#58595b"/><polygon points="397.37 306.45 397.37 313.73 461.57 313.81 461.57 306.45 397.37 306.45" fill="#58595b"/><path d="M632.48,324.86c-7-11.18-18.13-12.82-28.9-13-11.18,0-28.9,4.09-28.9,19.36,0,12.13,13.09,15,29.17,18,18.41,3.54,37.49,6.81,37.49,27.4-.13,21.54-21.81,26.72-37.76,26.72-14.86,0-31.76-6.14-39.12-20.72l6.54-3.28c5.86,11.59,20.86,17.32,32.58,17.32s30.4-3.28,30.4-20.18c.14-14.31-15.68-17.45-31.35-20.45-17.45-3.4-35.31-6.95-35.31-24.53-.41-20.18,20.59-26.45,36.26-26.45,13.63,0,25.49,2.18,34.9,16.22Z" fill="#58595b"/><polygon points="685.8 313.13 651.32 313.13 651.32 306.59 727.65 306.59 727.65 313.13 693.16 313.13 693.16 401.88 685.8 401.88 685.8 313.13" fill="#58595b"/><rect x="1080.51" y="290.74" width="5.02" height="34" fill="#58595b"/><path d="M1120.09,295a16.93,16.93,0,0,0-12.27-4.76c-10.15,0-17.23,7.23-17.23,17.59,0,8.46,5.39,17.56,17.23,17.56s17.13-9.08,17.18-17.5a18,18,0,0,0-4.91-12.89m-12.27,25.55c-8.9,0-12.14-6.83-12.21-12.68a13.07,13.07,0,0,1,3.41-9.49,12.06,12.06,0,0,1,8.79-3.31c9,.05,12.17,6.93,12.17,12.81,0,6.31-3.82,12.67-12.16,12.67" fill="#58595b"/><g clip-path="url(#clip-path-5)"><rect x="232" y="303.3" width="109.18" height="106.51" fill="url(#linear-gradient-5)"/></g><g clip-path="url(#clip-path-6)"><rect x="125" y="303.3" width="93.39" height="106.45" fill="url(#linear-gradient-6)"/></g><g clip-path="url(#clip-path-7)"><rect x="218.12" y="409.75" width="0.06" height="0.06" fill="url(#linear-gradient-7)"/></g></svg>