<svg id="LOGO" xmlns="http://www.w3.org/2000/svg" viewBox="0 0 1250 703"><title>nvidia-partner-pytorch-logo</title><path d="M327.61,301.4l-10.84,10.83a45,45,0,1,1-63.7,0h0l28.08-28.07,3.94-3.94h0V259L242.73,301.4a60.25,60.25,0,0,0,0,85.37c23.64,23.64,61.73,23.64,84.88,0A60.25,60.25,0,0,0,327.61,301.4Z" fill="#ee4c2c"/><circle cx="306.43" cy="290.89" r="7.88" fill="#ee4c2c"/><path d="M437.11,355.57H418.88v46.79H405.09V269.22h33.5c35,0,51.71,17.24,51.71,41.37C490.79,340.31,470.11,355.57,437.11,355.57Zm1.48-73.05H419.38v61.23l18.71-.49c25.12-.49,38.91-10.34,38.91-31C477,292.86,463.21,282.52,438.59,282.52Z" fill="#252525"/><path d="M552,401.87l-7.88,21.18c-8.87,23.64-18.23,30.53-31.52,30.53-7.39,0-12.81-2-18.72-4.43l3.94-12.31c4.43,2.46,9.36,4.43,14.78,4.43,7.38,0,12.8-3.94,20.19-22.65l6.4-17.24L501.3,305.17h14.28l30.54,80.45,30-80.45H590Z" fill="#252525"/><path d="M634.93,282.52V402.86H621.14V282.52H574.35V269.71h107v12.81Z" fill="#252525"/><path d="M720.3,405.32c-27.09,0-46.79-20.19-46.79-51.22s20.69-51.72,48.27-51.72,46.79,20.2,46.79,51.22C768.07,384.63,747.39,405.32,720.3,405.32Zm.49-90.62c-20.68,0-34,16.25-34,39.4,0,23.64,13.79,39.89,34.48,39.89s34-16.25,34-39.4C755.27,330.46,741.48,314.7,720.79,314.7Z" fill="#252525"/><path d="M801.56,402.86H788.27V305.17l13.29-2.95V322.9c6.41-12.31,15.77-20.68,28.57-20.68a38.9,38.9,0,0,1,17.24,4.43L843.92,319c-4.43-2.46-9.36-4.43-14.77-4.43-10.35,0-19.71,7.88-27.59,25.12v63.21Z" fill="#252525"/><path d="M899.25,405.32c-29.55,0-47.78-21.18-47.78-51.22,0-30.54,20.2-51.72,47.78-51.72,11.82,0,22.16,3,30.53,8.38l-3.45,11.82a48.65,48.65,0,0,0-27.08-7.88c-21.18,0-34,15.76-34,38.9,0,23.65,13.79,39.41,34.48,39.41a50,50,0,0,0,27.09-7.88l2.95,12.31A62.58,62.58,0,0,1,899.25,405.32Z" fill="#252525"/><path d="M1011.21,402.86V339.65c0-17.24-6.9-24.63-20.69-24.63-11.32,0-22.16,5.91-30,13.79v74.05h-13.3V259.37l13.3-2.95v61.72c10.34-10.34,23.15-15.26,34-15.26,18.72,0,30.54,12.31,30.54,33.49V403h-13.79Z" fill="#252525"/></svg>