<svg id="LOGO" xmlns="http://www.w3.org/2000/svg" viewBox="0 0 1250 703"><title>nvidia-partner-databricks-logo</title><path d="M1072.31,332.88a6.89,6.89,0,0,1,1.54-2.14,6.42,6.42,0,0,1,2.14-1.39,7.63,7.63,0,0,1,5.22,0,6.36,6.36,0,0,1,2.15,1.39,10.69,10.69,0,0,1,1.54,2.14,7.49,7.49,0,0,1,.61,2.77,6,6,0,0,1-.61,2.76,6.82,6.82,0,0,1-1.54,2.15,6.48,6.48,0,0,1-2.15,1.38,7.63,7.63,0,0,1-5.22,0,6.54,6.54,0,0,1-2.14-1.38,10.48,10.48,0,0,1-1.54-2.15,7.29,7.29,0,0,1-.61-2.76,5.66,5.66,0,0,1,.61-2.77m1.07,5.07a4,4,0,0,0,1.23,1.84,5.64,5.64,0,0,0,1.84,1.23,5.14,5.14,0,0,0,2.31.46,4.91,4.91,0,0,0,2.15-.46,13.71,13.71,0,0,0,1.84-1.23A5.53,5.53,0,0,0,1084,338a6,6,0,0,0,0-4.61,4,4,0,0,0-1.23-1.84,5.64,5.64,0,0,0-1.84-1.23,5.05,5.05,0,0,0-2.15-.46,6.34,6.34,0,0,0-2.31.46,8.1,8.1,0,0,0-1.84,1.23,5.64,5.64,0,0,0-1.23,1.84,6,6,0,0,0,0,4.61m5.68-6.29a3,3,0,0,1,2.15.61,1.92,1.92,0,0,1,.62,1.69,1.6,1.6,0,0,1-.62,1.53,4.68,4.68,0,0,1-1.53.62l2.3,3.53h-1.38l-2.15-3.38h-1.38v3.38H1076v-8Zm-.61,3.53h.77c.3,0,.46,0,.61-.16s.31-.15.46-.46c.16-.15.16-.46.16-.76s0-.47-.16-.62-.3-.31-.46-.31-.31-.15-.61-.15h-2.3v2.61h1.53Z" fill="#464547"/><polygon points="164.64 327.67 164.49 327.82 164.49 347.62 185.52 358.52 164.49 369.42 164.49 389.37 221.28 419 227.12 419 283.91 389.37 283.91 369.42 262.88 358.52 283.91 347.62 283.91 327.82 283.76 327.67 224.2 297.12 164.64 327.67" fill="#dc2327"/><polygon points="224.2 378.78 185.52 358.52 164.49 369.42 224.2 400.58 283.91 369.42 262.88 358.52 224.2 378.78" fill="#f0562c"/><polygon points="164.49 327.82 224.2 358.98 283.91 327.82 224.2 297.12 164.49 327.82" fill="#f0562c"/><path d="M369.26,338.72h.46s-.46-5.22-.46-5.84V291.59H356.83V281h25.33V398.58H394v10.6H372.33l-1.84-12h-.61s-8,13.2-27.33,13.2c-21.18,0-37.15-14.27-37.15-41.44,0-26.56,17.2-41.29,37.31-41.29,20.41.15,26.55,11.05,26.55,11.05m0,47.58V350.23c-2.3-3.38-9.05-11.51-24.1-11.51-12.89,0-27,9.51-27,30.39s12.74,30.55,27.17,30.55c9.67,0,19.49-4.61,23.94-13.36" fill="#444545"/><path d="M459.83,395.82s-7.06,14.58-30.55,14.58c-16.58,0-27.63-9.82-27.63-23.18,0-14.89,14.12-22.71,36.69-22.71H458.6v-6.76c0-13.81-8-19.65-22.56-19.65-14,0-21,6.76-21,15.66v1.69H403.19v-4c0-11.67,10.28-23.95,33.15-23.95,21.65,0,35.16,9.67,35.16,30.55v40.22h9.67v10.59H462l-1.54-13.36h-.61Zm-1.38-21.95H439c-14.12,0-24.71,4.14-24.71,13.35,0,8,7.37,13,17.65,13a31.09,31.09,0,0,0,26.56-14Z" fill="#444545"/><path d="M507.72,307.56v21.49H533.2v10.28H507.72v43.29c0,11.36,5.07,16.88,13.36,16.88,8.9,0,14.43-2.6,14.43-2.6v10.89a46.68,46.68,0,0,1-16.58,2.77c-15.51,0-24.25-8.91-24.25-27.17V339.33H482.39V329.05h12.29l2.3-21.49Z" fill="#444545"/><path d="M601.36,395.82s-7.06,14.58-30.55,14.58c-16.58,0-27.63-9.82-27.63-23.18,0-14.89,14.12-22.71,36.69-22.71h20.26v-6.76c0-13.81-8-19.65-22.56-19.65-14,0-21,6.76-21,15.66v1.69H544.72v-4c0-11.67,10.28-23.95,33.15-23.95,21.65,0,35.16,9.67,35.16,30.55v40.22h9.67v10.59H603.2l-1.53-13.36h-.31ZM600,373.87h-19.5c-14.12,0-24.71,4.14-24.71,13.35,0,8,7.37,13,17.65,13a31.09,31.09,0,0,0,26.56-14V373.87Z" fill="#444545"/><path d="M646.18,397.2l-2,12h-9.83V291.59H622.54V281h24.72v51.88c0,.62-.46,5.84-.46,5.84h.46s7.21-11.05,26.86-11.05c20,0,37.15,14.73,37.15,41.29,0,27.17-16,41.44-37,41.44-19.49,0-27.47-13.2-27.47-13.2Zm1.08-47.12v36.07c4.3,8.75,14.27,13.35,24.1,13.35,14.27,0,27-9.82,27-30.54,0-21-14-30.4-26.86-30.4-14.73,0-21.8,8-24.25,11.52" fill="#444545"/><path d="M774.05,340.87a30.07,30.07,0,0,0-9-1.23c-20,0-24.1,23.79-24.1,23.79v35.31h13v10.59H716V398.74h11.82v-59.1H716V329.05h21.64l1.23,20.41h.46s4-21.64,25.79-21.64a40.1,40.1,0,0,1,8.75.92v12.13Z" fill="#444545"/><path d="M810.59,398.58H822.1v10.6H785.87v-10.6h11.82V339.64H785.87V329.05h24.72Zm-7.07-84.12a10.13,10.13,0,0,1,0-20.26,10.13,10.13,0,1,1,0,20.26" fill="#444545"/><path d="M838.83,369.11c0,21,13.51,30.55,28.86,30.55,18.73,0,26.25-8.75,26.25-8.75l4.45,9.36s-8.9,10.29-31.62,10.29c-23.95,0-40.83-14.74-40.83-41.45,0-27.94,15.35-41.29,39.91-41.29,25.17,0,34.23,13.81,34.23,28.7v4.3H888.26v-2.61c0-12-6.91-19.65-22.57-19.65-16,0-26.86,8.14-26.86,30.55" fill="#444545"/><polygon points="930.01 362.51 949.97 362.51 969.16 339.33 959.18 339.33 959.18 329.05 995.56 329.05 995.56 339.33 983.12 339.33 959.79 367.73 984.35 399.04 996.63 399.04 996.63 409.33 977.14 409.33 948.89 372.64 930.01 372.64 930.01 398.58 941.52 398.58 941.52 409.33 904.99 409.33 904.99 398.58 917.12 398.58 917.12 291.59 904.99 291.59 904.99 281 930.01 281 930.01 362.51" fill="#444545"/><path d="M1014.44,383.23v1.85c0,8.28,6.91,14.73,21.49,14.73,14.74,0,21.34-4.76,21.34-12.74,0-8.29-10.59-11.05-22.26-13.05-14.43-2.61-30.55-6.29-30.55-23.79,0-13.82,13-22.56,31-22.56,23.79,0,32.54,9.82,32.54,21.95v5.83h-12v-3.53c0-8.6-5.68-13.66-20-13.66-9.36,0-18.72,3.83-18.72,12.28,0,9.51,11.36,11.2,23,13.35,15.2,2.92,29.78,7.52,29.78,23.33,0,12.9-9.67,23.18-33.77,23.18-24.71,0-33.92-11-33.92-22.41v-5.06h12Z" fill="#444545"/></svg>