<svg id="LOGO" xmlns="http://www.w3.org/2000/svg" viewBox="0 0 1250 703"><title>nvidia-partner-sap-logo</title><polyline points="343 489.48 628.02 489.48 907 210.48 343 210.48 343 489.48" fill="#00498f" fill-rule="evenodd"/><path d="M677.71,262.93l-55.52,0v132l-48.5-132H525.61L484.19,373.28c-4.39-27.81-33.18-37.44-55.84-44.65-15-4.79-30.81-11.87-30.67-19.68.1-6.4,8.52-12.35,25.12-11.45,11.17.6,21,1.49,40.61,10.95l19.33-33.6C464.82,265.74,440.1,260,419.85,260h-.14c-23.62,0-43.32,7.68-55.52,20.28a46.9,46.9,0,0,0-13.29,32.38c-.3,17.05,5.94,29.12,19.08,38.77,11.06,8.11,25.24,13.39,37.73,17.28,15.41,4.76,28,8.91,27.84,17.76a12.77,12.77,0,0,1-3.63,8.65c-3.86,4-9.75,5.47-17.9,5.63-15.74.31-27.4-2.15-46-13.12l-17.15,34a128.29,128.29,0,0,0,62.84,16.72l2.89,0c19.49-.35,35.2-5.93,47.79-16,.69-.56,1.36-1.16,2-1.75l-5.55,14.89H511.3l8.47-25.75a96.16,96.16,0,0,0,58.58.24l8.15,25.51h82.23V382.14h17.94c43.36,0,69-22.07,69-59.08C755.7,281.84,730.77,262.93,677.71,262.93Zm-128.31,113a50.21,50.21,0,0,1-17.79-3.14l17.61-55.5h.36l17.24,55.66A51.23,51.23,0,0,1,549.4,375.89ZM681,344H668.73V299.24H681c16.32,0,29.3,5.41,29.3,22.11,0,17.22-13,22.64-29.3,22.64" fill="#fff" fill-rule="evenodd"/><path d="M696.24,471.38A14.65,14.65,0,0,1,711,456.33c8.16,0,14.63,6.48,14.63,15.05S719.14,486.5,711,486.5,696.24,480.09,696.24,471.38ZM711,489.52a18.1,18.1,0,1,0-18.38-18.14A18.08,18.08,0,0,0,711,489.52Zm-3.84-16.71h3.63l5.5,9h3.55l-6-9.18c3.06-.36,5.41-2,5.41-5.74,0-4.11-2.43-5.93-7.35-5.93H704v20.85h3.15Zm0-2.69v-6.44h4.32c2.16,0,4.49.46,4.49,3.05,0,3.22-2.37,3.39-5,3.39Z" fill="#00498f"/></svg>