<svg id="LOGO" xmlns="http://www.w3.org/2000/svg" viewBox="0 0 1250 703"><title>nvidia-partner-chainer-logo</title><path d="M728,253.33c-8.69-3.55-17.49-4.49-24.81-3.17l-25-30.73c7.29-1.82,12.52-5.82,13.5-11.22,1.65-9.17-9.6-18.88-25.12-21.68s-29.46,2.38-31.11,11.56a10.88,10.88,0,0,0-.14,2l-47.66.14c-2.84-7.66-12.52-13.83-24.48-14.82-14.8-1.21-27.46,6-28.29,16-.69,8.38,7,16.11,18.15,19.18L540.7,250.09c-1.11-.18-2.23-.32-3.37-.42-17.65-1.45-32.87,8.54-34,22.32s12.25,26.12,29.89,27.57c10.41.86,19.95-2.29,26.28-7.83l44.79,23.1c-5,13.94,3.56,31.55,20.59,40.84,18.39,10,39.64,6.53,47.45-7.8,5.51-10.11,2.85-22.89-5.64-33.08l33.79-24.15a51.24,51.24,0,0,0,10,5.49c17.85,7.29,36.23,3.63,41.06-8.19S745.86,260.63,728,253.33Zm-67.44-33.56a46.05,46.05,0,0,0,11.34.65l25.54,31.36c-4.92,2-8.68,5.28-10.5,9.74-3,7.37,0,16.17,6.95,23.52l-33.45,23.62a48.24,48.24,0,0,0-7.28-4.9c-16.75-9.13-35.82-7-45,4.24l-43.45-22.66a20.18,20.18,0,0,0,2.5-8.09c.9-11-7.45-21.06-19.82-25.42L560,221.93l.22,0c14.8,1.22,27.46-6,28.29-16a11,11,0,0,0,0-1.52l47.75-.14C639.1,211.27,648.54,217.6,660.58,219.77Z" fill="#e60012"/><path d="M424,463.9c-7.09,3.44-17.51,8-26.15,8-29,0-43.09-13.87-43.09-42.42,0-26.74,14.1-39.75,43.09-39.75,7.76,0,16.18,3.8,24.12,7.9l1.26.65,3.92-8.25-1.09-.63c-6.92-4-16.48-8.64-29.57-8.43-34.65.57-51.49,16.44-51.49,48.51,0,34,17.33,51.18,51.52,51.18,9.39,0,23.3-4.54,31.31-8.94l1.13-.62-3.72-7.81Z" fill="#e60012"/><path d="M486.87,409a57.34,57.34,0,0,0-25.82,6.77V381.64h-9.63v96.58h9.63V426.29c7.42-5.2,17.32-8.57,25.48-8.36,12.24.17,16.79,3.56,17.37,12.85v47.44h9.63V433.61C513.53,416.6,505.31,409,486.87,409Z" fill="#e60012"/><path d="M572.45,409c-9.83,0-17.7,2.39-24.65,4.5l-4.15,1.24,2.6,9.67,1.9-.56c7.12-2.09,16-4.7,22.7-4.7,13,0,18.51,4,18.51,13.24v1.46a62.92,62.92,0,0,0-14.33.82c-1.34.18-2.68.37-4,.52-18.79,2.17-27.92,10.21-27.92,24.6,0,13.84,8.52,20.86,25.32,20.86A53.91,53.91,0,0,0,592,474.75l0,.75h8.64V431.79C600.6,416.68,591.13,409,572.45,409Zm-4.07,63c-10.55,0-15.69-4.06-15.69-12.41s6.14-13.11,19.33-14.94c1.88-.26,3.66-.62,5.43-1a47.46,47.46,0,0,1,9.67-1.25c.73,0,1.47,0,2.24.09V466.2C582.09,470.38,576.14,472,568.38,472Z" fill="#e60012"/><rect x="633.93" y="386.9" width="10.95" height="10.62" fill="#e60012"/><polygon points="626.2 421.9 634.59 421.9 634.59 478.22 644.22 478.22 644.22 411.28 626.2 411.28 626.2 421.9" fill="#e60012"/><path d="M708.53,409.32c-7.09,0-15.79,0-24.53,5l0-1.27h-8.45v65.18h9.63v-54c7.14-5,14.4-6,23-6,9.77,0,19.32,6.44,19.32,11.24v48.75h9.63V429.67C737.15,418.83,723.78,409.32,708.53,409.32Z" fill="#e60012"/><path d="M799.48,410.26c-23.3,0-34.63,11.06-34.63,33.8,0,24.29,13.26,36.61,39.4,36.61,6.66,0,11.83-2,16.82-3.89,1.5-.58,3-1.15,4.51-1.66l1.23-.42-2.21-8-1.38.46c-1.6.54-3.09,1.11-4.54,1.68-4.47,1.73-8.33,3.22-14.43,3.22-18.65,0-28.74-8.89-29.25-25.74h55.93L831,445c.1-1.65.14-3.23.14-4.74C831.14,419.51,821.38,410.26,799.48,410.26Zm21.67,27.11h-46c1.82-13,9.13-18.59,24.17-18.59h.15C813.2,418.81,819.58,424.23,821.15,437.37Z" fill="#e60012"/><path d="M903.93,411.91c-8.83-3.21-28.16-3.09-36.92.91l-.08-.46h-8.56v65.86h10.16V424.36c6.45-8.53,26.34-5.7,33.3-3.08l1.55.59L905,412.3Z" fill="#e60012"/></svg>