<?xml version="1.0" encoding="UTF-8"?><svg id="LOGOS" xmlns="http://www.w3.org/2000/svg" viewBox="0 0 1250 703"><defs><style>.cls-1{fill:#121212;}.cls-1,.cls-2{stroke-width:0px;}.cls-2{fill:#0069aa;}</style></defs><path class="cls-2" d="M569.22801,244.12854v-.92014c-16.0878-.67396-29.04581-.85975-43.33647-.62198-153.05112,2.56179-276.81423,49.62658-275.88635,104.90803.92346,55.27946,126.19307,98.17113,279.24618,95.60072l13.08763-.35213.00641-.92434c-134.18742-5.68738-232.16944-45.25483-232.99026-94.07563-.88784-53.18637,113.26005-98.68958,259.87287-103.61453Z"/><path class="cls-1" d="M983.23515,265.08953c1.58768,0,3.09529.30457,4.51885.91372,1.42334.60915,2.67415,1.44059,3.74536,2.49477,1.07364,1.05418,1.92477,2.29835,2.55537,3.73253.62861,1.43418.94403,2.98094.94403,4.63121,0,1.61134-.309,3.12979-.92876,4.55534-.61996,1.42356-1.46028,2.66332-2.52308,3.71749-1.06258,1.05396-2.30676,1.89004-3.73032,2.51003-1.42334.61755-2.95284.92876-4.58144.92876-1.63081,0-3.15788-.31121-4.58343-.92876-1.42353-.61999-2.66132-1.45607-3.71528-2.51003-1.05196-1.05418-1.88363-2.29393-2.49056-3.71749-.60915-1.42554-.91372-2.944-.91372-4.55534,0-1.65028.309-3.19703.92876-4.63121.6178-1.43418,1.46028-2.67835,2.52308-3.73253,1.06258-1.05418,2.30676-1.88562,3.73032-2.49477,1.42334-.60915,2.93117-.91372,4.52084-.91372ZM983.23515,267.09392c-1.30036,0-2.54011.24839-3.71528.74319-1.17937.49678-2.20523,1.18357-3.08224,2.06278-.87922.87922-1.57463,1.9115-2.09309,3.09972-.51404,1.18999-.77327,2.4753-.77327,3.86214,0,1.34349.2526,2.5985.75823,3.76703.5074,1.16632,1.19861,2.19019,2.07562,3.0672.87701.88121,1.9053,1.57242,3.08246,2.07783,1.17716.50762,2.42576.76044,3.74757.76044,1.36519,0,2.63323-.25923,3.81039-.77548s2.20966-1.21387,3.0975-2.09309c.88983-.87701,1.58547-1.90088,2.09309-3.06941.50541-1.16853.75801-2.41271.75801-3.73452,0-1.36517-.25923-2.63545-.77548-3.81481-.51625-1.17937-1.21166-2.21187-2.09085-3.1017-.87703-.88784-1.90931-1.58547-3.09753-2.09088-1.18578-.50762-2.45163-.76044-3.79512-.76044ZM977.83952,270.35996h6.06539c.53549,0,1.09288.01505,1.67173.04756.57686.0303,1.10372.15328,1.57905.37159.4729.21588.86617.55717,1.17494,1.02166.309.46427.46449,1.12097.46449,1.96767,0,.35214-.04753.69343-.13822,1.02388-.09511.33045-.25926.63502-.49681.91593-.23556.27648-.55518.52046-.95685.72572-.40411.20725-.92235.35213-1.5618.4364v.06038c.62001.02168,1.10593.10374,1.45806.24839.35213.14466.61999.33909.80556.58748.18801.24839.31541.52067.38885.82082.07343.30037.14045.61556.20305.94403.10152.7235.1858,1.29593.2464,1.71929.0626.42335.11435.75823.15549,1.00662.04092.24618.08206.44503.12522.58747.04111.14487.0929.31984.15547.52709h-3.9097c-.10352-.41251-.18558-.85113-.24839-1.31761-.0626-.46228-.12298-1.0367-.18558-1.71929-.04114-.37159-.0887-.68701-.14043-.94403-.05201-.25701-.13827-.46869-.26368-.63502-.12298-.16633-.30015-.2829-.52687-.35633-.22691-.07144-.53793-.10816-.93098-.10816h-1.48837v5.08044h-3.64604v-13.01199ZM981.48556,275.9414h1.36519c.28951,0,.57882-.01062.86835-.03008.28931-.02168.54854-.07786.77548-.17297.22672-.09069.41251-.24618.55938-.46427.14244-.21832.21588-.5335.21588-.94823,0-.39326-.07764-.70425-.23313-.93318-.15547-.22672-.34992-.38663-.58968-.47953-.23755-.09511-.49477-.15129-.77548-.17275-.2787-.01946-.55297-.0303-.8208-.0303h-1.36519v3.23132Z"/><path class="cls-1" d="M965.10402,273.76845h-49.05216s-22.78822,26.44311-29.02635,33.68786c-3.47352-8.26-14.15043-33.68786-14.15043-33.68786h-51.77365s29.32871,56.06998,31.68546,60.57799c-1.86195,1.97542-18.97385,20.14658-34.88891,37.04659h-8.93816l-17.84823-97.62458h-45.88543l-59.22364,97.62458h-9.98373l20.70596-97.86213-57.33782.18137s-21.11759,47.61776-30.10971,67.88976c-.73458-21.18992-2.35875-67.8358-2.35875-67.8358h-56.91027l-20.68339,97.62679h-8.83444l-17.84954-97.62458h-45.88545l-77.29861,127.41999h42.3721s11.3898-20.67345,13.25506-24.0627h42.16264c.6556,5.00701,3.15567,24.0627,3.15567,24.0627h77.05796s9.6641-47.21587,15.71643-76.82129c1.70203,29.70473,4.29834,76.82129,4.29834,76.82129h35.55621s21.60575-43.67578,36.17511-73.11685c-6.76942,29.72619-16.64298,73.11685-16.64298,73.11685h77.73501s11.39002-20.67345,13.25617-24.0627h42.16155c.65447,5.00701,3.15587,24.0627,3.15587,24.0627h70.59178s26.09961-31.19288,32.62086-38.98418c3.5662,8.91228,15.60606,38.98418,15.60606,38.98418h51.35251s-30.63128-61.59965-32.8907-66.13996c3.54894-3.68497,58.9516-61.28004,58.9516-61.28004ZM451.74639,347.33033c3.73032-6.89683,12.32497-22.77517,18.39699-33.99023,1.18025,12.32741,2.74537,28.70253,3.25078,33.99023h-21.64778ZM740.21473,347.33033c3.73474-6.89683,12.33382-22.77517,18.40564-33.99023,1.17714,12.32741,2.74115,28.70253,3.24877,33.99023h-21.65441Z"/></svg>