<?xml version="1.0" encoding="utf-8"?>
<!-- Generator: Adobe Illustrator 27.1.1, SVG Export Plug-In . SVG Version: 6.00 Build 0)  -->
<svg version="1.1" id="Note" xmlns="http://www.w3.org/2000/svg" xmlns:xlink="http://www.w3.org/1999/xlink" x="0px" y="0px"
	 viewBox="0 0 48 48" style="enable-background:new 0 0 48 48;" xml:space="preserve">
<style type="text/css">
	.st0{fill-opacity:0;}
</style>
<path d="M32.5,26.5v-19h-17v19H9.85352L24,41.73486L38.14648,26.5H32.5z M12.14648,27.5H16.5v-19h15v19h4.35352L24,40.26514
	C24,40.26514,12.14648,27.5,12.14648,27.5z M24.5,11.5h-1v2h-1c-1.6543,0-3,1.3457-3,3s1.3457,3,3,3h1v4h-4v1h4v2h1v-2h1
	c1.6543,0,3-1.3457,3-3s-1.3457-3-3-3h-1v-4h4v-1h-4V11.5z M25.5,19.5c1.10303,0,2,0.89746,2,2s-0.89697,2-2,2h-1v-4H25.5z
	 M23.5,18.5h-1c-1.10303,0-2-0.89746-2-2s0.89697-2,2-2h1V18.5z"/>
<rect class="st0" width="48" height="48"/>
</svg>
