<?xml version="1.0" encoding="UTF-8"?><svg id="GUIDES" xmlns="http://www.w3.org/2000/svg" viewBox="0 0 1250 703"><path id="path3199" d="m884.54575,284.63232c26.39198,0,57.45297,14.93561,57.45297,64.82614,0,44.59051-25.9413,68.57583-59.66133,68.57583-31.30438,0-57.68734-21.62374-57.68734-66.61085,0-43.60802,27.31139-66.79112,59.89569-66.79112m-1.334,121.99069c33.30544,0,33.30544-46.3662,33.30544-55.19958,0-22.97578-4.23642-55.38886-32.39505-55.38886-32.8728,0-33.99048,42.04867-33.99048,55.80349,0,13.54751,1.35205,54.78494,33.08009,54.78494m-118.2771-120.22402c28.40201,0,43.14832,12.75431,43.14832,31.43058,0,28.89775-28.82557,33.99948-36.2078,35.95544l48.74582,62.26627h-26.39198l-42.46322-59.12952h-9.17594v59.12952h-22.57912v-129.65229h44.92404-.00011Zm-22.34481,11.39325v48.93509h10.50989c19.43347,0,31.29535-5.90394,31.29535-24.3729,0-18.07236-7.16575-24.56219-31.29535-24.56219m-49.02518-11.39325v11.39325h-39.56091v118.25905h-23.03888v-118.25904h-39.56083v-11.39325m474.84789,0h-14.32259v108.28094l-80.69926-108.28093h-19.53256v129.65229h14.62913l-.09011-102.91782,74.76826,102.91782h25.24718v-.13484m-525.18916-102.7736l-37.34361,102.91781h-16.08029l50.07982-129.65229h14.51198l50.53042,129.65229h-24.37291m-117.18637-114.14882c-5.38115-2.14525-13.65567-5.48931-25.04893-5.48931-24.58923,0-42.22894,18.46896-42.22894,55.77645,0,40.4893,19.64974,54.05484,38.21786,54.05484,7.82384,0,13.83595-1.77569,17.42337-2.7672v-39.2995h-24.37291v-11.38423h46.24902v55.59617c-10.92448,4.90343-22.99382,9.62657-39.55189,9.62657-35.30644,0-63.45607-23.35436-63.45607-66.01595,0-42.41822,27.93328-67.37701,65.70948-67.37701,11.83492,0,21.67781,1.983,32.39505,6.28251m-115.45577-4.51583v12.18645h-53.64021v44.57249h49.85448v11.40226h-49.85448v49.33169h54.31623v12.15941h-77.3461v-129.65229m-66.21425,0c33.73815,0,48.48441,10.99665,48.48441,33.61189,0,27.29332-25.00385,38.48828-48.48441,38.48828h-21.68683v57.55213h-23.02085v-129.65229h44.70769Zm-21.68683,11.39325v49.29563h14.52099c20.12747,0,31.07906-6.08421,31.07906-27.077,0-18.0994-10.95158-22.21864-31.07905-22.21864"/></svg>