<?xml version="1.0" encoding="utf-8"?>
<!-- Generator: Adobe Illustrator 23.0.3, SVG Export Plug-In . SVG Version: 6.00 Build 0)  -->
<svg version="1.1" id="LOGO" xmlns="http://www.w3.org/2000/svg" xmlns:xlink="http://www.w3.org/1999/xlink" x="0px" y="0px"
	 viewBox="0 0 1250 703" style="enable-background:new 0 0 1250 703;" xml:space="preserve">
<style type="text/css">
	.st0{fill:#00B48D;}
	.st1{fill:#231F20;}
</style>
<title>gtc19-dc-partner-logo-wekaio</title>
<g>
	<path id="element" class="st0" d="M227.4,191.5V269l0,0h269.8v-77.5H227.4z M480.4,252.1H244.3v-43.8h236.1L480.4,252.1
		L480.4,252.1z"/>
	<path class="st1" d="M244.3,397.1h-16.9v-77.5h16.9v30.6h30.1v-30.6h16.9v77.5h-16.9V365h-30.1L244.3,397.1L244.3,397.1z
		 M329.6,398.3c-17.1,0-28.8-10.8-28.8-28.5c0-17.2,11.4-29.1,26.5-29.1c16.5,0,24.7,11,24.7,27.5v6.2h-35.2
		c2,8.6,8.7,10.8,15.4,10.8c5.8,0,10-1.2,15.3-4.5h0.6v12.8C343.6,396.7,337.3,398.3,329.6,398.3z M316.9,363.1H337
		c-0.4-5.7-2.7-9.7-9.3-9.7C322.7,353.4,318.3,355.5,316.9,363.1z M396.1,364.6l-8.7,32.5h-14.8l-16.9-54.6v-0.6h16.1l9.2,32.6
		l8.7-32.6h13.1l8.8,32.6l9.3-32.6h15.5v0.6l-16.9,54.6h-14.8L396.1,364.6z M463.9,398.3c-13.4,0-18.9-5.3-18.9-17.9v-60.9h16.4
		v59.8c0,3.8,1.5,5.2,4.7,5.2c1.1,0,2.7-0.4,3.7-0.7h0.2v13.5C468.8,397.8,466.4,398.3,463.9,398.3z M503.5,398.3
		c-17.1,0-28.8-10.8-28.8-28.5c0-17.2,11.4-29.1,26.5-29.1c16.5,0,24.7,11,24.7,27.5v6.2h-35.2c2,8.6,8.7,10.8,15.4,10.8
		c5.8,0,10-1.2,15.3-4.5h0.6v12.8C517.5,396.7,511.2,398.3,503.5,398.3z M490.7,363.1h20.1c-0.4-5.7-2.7-9.7-9.3-9.7
		C496.5,353.4,492.2,355.5,490.7,363.1z M593.1,341.9h12.2V355h-12.2v22.4c0,4.8,1.9,7.1,6.8,7.1c1.4,0,3.1-0.1,5-0.7h0.4v12.9
		c-2.1,0.7-5.3,1.6-10,1.6c-13.3,0-18.5-6.1-18.5-20.1V355h-21v22.4c0,4.8,1.9,7.1,6.8,7.1c1.4,0,3.1-0.1,5-0.7h0.4v12.9
		c-2.1,0.7-5.3,1.6-10,1.6c-13.3,0-18.5-6.1-18.5-20.1V355H531v-13.1h8.4v-15.1h16.4v15.1h21v-15.1h16.4v15.1H593.1z M690.2,345.9
		c0,16.9-11.3,26-28.4,26h-12v25.2h-16.9v-77.5h28.9C678.9,319.6,690.2,328.7,690.2,345.9z M660.5,357.6c8.6,0,12.7-4.8,12.7-11.8
		c0-7.2-4.1-12-12.7-12h-10.7v23.8H660.5z M726.7,391.6c-3.6,4.3-8.9,6.4-14.6,6.4c-10.8,0-19.6-6.6-19.6-18.2
		c0-10.8,8.8-18,21.5-18c4,0,8.1,0.6,12.3,1.9v-1c0-6-3.3-8.6-12.2-8.6c-5.6,0-10.9,1.6-15.5,4.2H698v-13.1c4.2-2.5,11.7-4.6,19-4.6
		c16.6,0,25.7,7.9,25.7,21.8V397h-15.9v-5.4H726.7z M726.2,379.7V375c-2.5-1.4-5.7-1.9-9.1-1.9c-5.3,0-8.6,2-8.6,6.4
		c0,4.6,3.2,6.6,8.1,6.6C721.2,386.2,724.7,383.8,726.2,379.7z M750.9,369.5c0-17.7,12.5-28.9,28.9-28.9c5.8,0,11.3,1.2,15.4,4.2v14
		h-0.6c-3.6-2.7-7.8-4.3-12.6-4.3c-8.2,0-14.4,5.6-14.4,15s6.2,14.9,14.4,14.9c4.8,0,9.1-1.6,12.6-4.3h0.6v14
		c-4.1,3-9.5,4.2-15.4,4.2C763.4,398.3,750.9,387.3,750.9,369.5z M821.8,372v25h-16.4v-77.5h16.4v44.1l16.5-21.8h18.6v0.6
		l-19.8,25.1l19.8,28.9v0.6h-18.7L821.8,372z M894.1,391.6c-3.6,4.3-8.9,6.4-14.6,6.4c-10.8,0-19.6-6.6-19.6-18.2
		c0-10.8,8.8-18,21.5-18c4,0,8.1,0.6,12.3,1.9v-1c0-6-3.4-8.6-12.2-8.6c-5.6,0-10.9,1.6-15.5,4.2h-0.6v-13.1
		c4.2-2.5,11.7-4.6,19-4.6c16.6,0,25.7,7.9,25.7,21.8V397h-15.9v-5.4H894.1z M893.6,379.7V375c-2.5-1.4-5.7-1.9-9.1-1.9
		c-5.3,0-8.6,2-8.6,6.4c0,4.6,3.2,6.6,8.1,6.6C888.6,386.2,892.1,383.8,893.6,379.7z M937.5,350.8c3-6.1,7.3-9.5,13.4-9.5
		c2.2,0,4.5,0.5,5.3,1v15.6h-0.6c-1.9-0.7-4.1-1.2-7.2-1.2c-5.1,0-9.1,3-10.4,8.7v31.8h-16.4V342h15.9V350.8z M1000.1,391.4
		c-3.5,4.5-8.9,6.9-16.4,6.9c-14.1,0-23.2-12.9-23.2-28.8s9.1-28.9,23.2-28.9c7.2,0,12.4,2.2,15.9,6.3v-27.4h16.4V397h-15.9V391.4z
		 M999.6,378.3v-17.7c-2.7-4-6.3-5.7-10.4-5.7c-7.2,0-12,5.2-12,14.6s4.8,14.5,12,14.5C993.3,384,996.9,382.3,999.6,378.3z
		 M227.4,422.4h47.9v9.4h-37.1v23.7h33.6v9.2h-33.6v25.8h37.1v9.4h-47.9V422.4z M314.9,444.2c12.3,0,19.1,8.1,19.1,21.3v34.4h-10.3
		v-34.1c0-7.1-3.6-12.2-11.4-12.2c-6.4,0-11.9,4.1-13.8,9.9v36.3h-10.3v-54.6h10.3v7.9C301.7,448.2,307.2,444.2,314.9,444.2z
		 M361.6,445.3h14v8.8h-14v29.4c0,6.2,3.2,8.3,9.1,8.3c1.6,0,3.3-0.2,4.6-0.7h0.4v8.8c-1.5,0.6-3.6,1.1-6.4,1.1
		c-12.8,0-17.9-5.8-17.9-16.5v-30.4H342v-8.8h9.4v-14.5h10.3v14.5H361.6z M409.1,501c-16,0-26.9-10.7-26.9-27.8
		c0-17.1,10.2-29,24.9-29c15,0,22.8,10.8,22.8,26.8v4.7h-37.5c1.1,11,8.2,16.4,18,16.4c6.1,0,10.4-1.4,15.3-5h0.4v9.1
		C421.6,499.6,415.8,501,409.1,501z M392.9,467.3H420c-0.4-8.1-4.3-14.3-12.8-14.3C399.4,453,394.4,458.8,392.9,467.3z M452.4,453.8
		c2.4-5.8,7.6-9.3,13.5-9.3c2.4,0,4.5,0.4,5.3,0.9v10.2h-0.4c-1.5-0.7-4-1.1-6.4-1.1c-5.6,0-10.3,3.7-12,9.9V500h-10.3v-54.6h10.3
		V453.8z M506.2,444.2c16.2,0,24.9,13.3,24.9,28.4s-8.7,28.4-24.9,28.4c-6.7,0-12.4-3.5-15.3-7.2v27h-10.3v-75.5H491v6.2
		C493.8,447.7,499.5,444.2,506.2,444.2z M504.5,491.7c10.2,0,16.1-8.1,16.1-19.1c0-10.9-6-19.1-16.1-19.1c-5.6,0-10.8,3.3-13.5,8.7
		v21C493.7,488.5,498.9,491.7,504.5,491.7z M553.6,453.8c2.4-5.8,7.6-9.3,13.5-9.3c2.4,0,4.5,0.4,5.3,0.9v10.2H572
		c-1.5-0.7-4-1.1-6.4-1.1c-5.6,0-10.3,3.7-12,9.9V500h-10.3v-54.6h10.3L553.6,453.8L553.6,453.8z M587.3,423.2
		c3.6,0,6.6,2.9,6.6,6.5s-3,6.4-6.6,6.4c-3.5,0-6.6-2.9-6.6-6.4C580.7,426.1,583.8,423.2,587.3,423.2z M582.2,445.3h10.3v54.6h-10.3
		V445.3z M629.2,468c7.8,2.5,16.5,5.7,16.5,16.1c0,11.2-9.2,16.9-21,16.9c-7.2,0-14.4-1.7-18.5-5v-9.8h0.5
		c4.6,4.2,11.4,6.1,17.9,6.1c5.8,0,11-2.2,11-6.9c0-4.8-4.3-6-12.9-8.8c-7.7-2.5-16.2-5.3-16.2-15.6c0-10.5,8.7-16.7,19.7-16.7
		c6.5,0,12.2,1.4,16.7,4.5v9.9h-0.4c-4.5-3.6-9.7-5.7-16.1-5.7c-6.5,0-10,2.9-10,6.7C616.5,463.9,620.4,465.2,629.2,468z M681.6,501
		c-16,0-26.9-10.7-26.9-27.8c0-17.1,10.2-29,24.9-29c15,0,22.8,10.8,22.8,26.8v4.7h-37.5c1.1,11,8.2,16.4,18,16.4
		c6.1,0,10.4-1.4,15.3-5h0.4v9.1C694.1,499.6,688.3,501,681.6,501z M665.3,467.3h27.2c-0.4-8.1-4.3-14.3-12.8-14.3
		C671.9,453,666.8,458.8,665.3,467.3z"/>
</g>
</svg>
