<svg id="LOGO" xmlns="http://www.w3.org/2000/svg" viewBox="0 0 1250 703"><title>africa-data-centres-logo</title><rect x="360" y="199.32" width="530" height="182.73" fill="#7f5ba1"/><rect x="360" y="393.34" width="530" height="107.34" fill="#7f5ba1"/><path d="M436.83,227h26.79l44.43,118.81H480.93l-9-26.46H427.52l-9.32,26.46H391.74Zm-2.49,72.88h30.78l-15-43.59h-.34Z" fill="#fff"/><path d="M521,275.56H506.89V259.75H521v-6.66C521,238,530.52,227,549.82,227c4.16,0,8.48.5,12.48.66v17.64a73.94,73.94,0,0,0-8.65-.5c-6.33,0-9,2.67-9,9.82v5.16H561v15.81H544.66v70.22H521Z" fill="#fff"/><path d="M571.28,259.75h22.47v16h.33c4.33-10.81,16-18.3,27.45-18.3a17.53,17.53,0,0,1,5.16.83v22a43,43,0,0,0-8.48-.83c-17.31,0-23.3,12.48-23.3,27.62v38.77H571.28Z" fill="#fff"/><path d="M660.3,246.44H636.67V227H660.3Zm-23.63,13.31H660.3v86H636.67Z" fill="#fff"/><path d="M737.51,290c-1.49-9.66-7.65-14.81-17.47-14.81-15.14,0-20.14,15.3-20.14,27.95,0,12.32,4.83,27.12,19.64,27.12,11,0,17.31-7,18.81-17.47h22.79c-3,22.8-18.8,35.28-41.43,35.28-26,0-43.43-18.3-43.43-44.1,0-26.79,16-46.59,43.93-46.59,20.3,0,38.94,10.65,40.43,32.62Z" fill="#fff"/><path d="M773.45,286.21c1.33-22.13,21.13-28.79,40.44-28.79,17.14,0,37.77,3.83,37.77,24.46v44.76c0,7.83.83,15.65,3,19.14h-24a35.38,35.38,0,0,1-1.66-8.32c-7.49,7.82-18.47,10.65-28.95,10.65-16.31,0-29.29-8.15-29.29-25.79,0-19.47,14.64-24.13,29.29-26.13C814.55,294,828,294.53,828,284.88c0-10.15-7-11.65-15.31-11.65-9,0-14.81,3.66-15.64,13ZM828,303.68c-4,3.49-12.31,3.66-19.63,5-7.32,1.5-14,4-14,12.65,0,8.82,6.82,11,14.47,11,18.47,0,19.14-14.64,19.14-19.8Z" fill="#fff"/><path d="M393.92,414.83h21.83c19,.44,29,10.87,29,31.56s-10,31.11-29,31.55H393.92Zm6,58h12.82c18.12.09,26-7.6,26-26.42s-7.87-26.52-26-26.43H399.93Z" fill="#fff"/><path d="M452.88,446.3c.54-10.7,8.05-15.29,18.48-15.29,8,0,16.79,2.47,16.79,14.67V469.9c0,2.12,1.06,3.36,3.27,3.36a5.15,5.15,0,0,0,1.77-.36v4.69a15,15,0,0,1-3.62.35c-5.66,0-6.54-3.18-6.54-7.95h-.18c-3.89,5.92-7.87,9.28-16.62,9.28-8.4,0-15.29-4.16-15.29-13.35,0-12.82,12.46-13.26,24.49-14.67,4.59-.53,7.16-1.15,7.16-6.19,0-7.52-5.4-9.37-11.94-9.37-6.89,0-12,3.18-12.2,10.61ZM482.59,453h-.18c-.71,1.33-3.18,1.77-4.69,2-9.46,1.68-21.21,1.59-21.21,10.52,0,5.57,4.95,9,10.16,9,8.49,0,16-5.4,15.92-14.32Z" fill="#fff"/><path d="M508.13,432.33h9.29V437h-9.29v30.76c0,3.62.53,5.74,4.51,6a42.68,42.68,0,0,0,4.78-.27v4.78c-1.68,0-3.28.17-5,.17-7.42,0-10-2.47-9.9-10.25V437h-7.95v-4.69h7.95v-13.7h5.57Z" fill="#fff"/><path d="M524.93,446.3c.53-10.7,8-15.29,18.47-15.29,8.05,0,16.8,2.47,16.8,14.67V469.9c0,2.12,1.06,3.36,3.27,3.36a5.15,5.15,0,0,0,1.77-.36v4.69a15.06,15.06,0,0,1-3.63.35c-5.65,0-6.54-3.18-6.54-7.95h-.17c-3.89,5.92-7.87,9.28-16.62,9.28-8.4,0-15.3-4.16-15.3-13.35,0-12.82,12.47-13.26,24.49-14.67,4.6-.53,7.16-1.15,7.16-6.19,0-7.52-5.39-9.37-11.93-9.37-6.9,0-12,3.18-12.2,10.61Zm29.7,6.71h-.18c-.7,1.33-3.18,1.77-4.68,2-9.46,1.68-21.22,1.59-21.22,10.52,0,5.57,5,9,10.17,9,8.48,0,16-5.4,15.91-14.32Z" fill="#fff"/><path d="M618.54,433.92c-2.12-9.72-10.16-15.29-19.36-15.29-16.7,0-23.77,14-23.77,27.76s7.07,27.75,23.77,27.75c11.68,0,19.1-9,20.25-20.24h6c-1.68,15.47-11.49,25.37-26.26,25.37-19.88,0-29.78-15.65-29.78-32.88s9.9-32.89,29.78-32.89c11.94,0,23.78,7.16,25.37,20.42Z" fill="#fff"/><path d="M636.85,456.64c.08,8.13,4.33,17.95,15,17.95,8.13,0,12.55-4.78,14.32-11.68h5.56c-2.38,10.35-8.39,16.36-19.88,16.36-14.5,0-20.6-11.14-20.6-24.13,0-12,6.1-24.13,20.6-24.13,14.67,0,20.5,12.81,20.06,25.63ZM666.37,452c-.26-8.4-5.48-16.27-14.49-16.27s-14.15,8-15,16.27Z" fill="#fff"/><path d="M679.37,432.33h5.57v7.87h.17c2-5.48,8.14-9.19,14.59-9.19,12.82,0,16.71,6.71,16.71,17.58v29.35h-5.57V449.48c0-7.87-2.57-13.79-11.58-13.79-8.84,0-14.15,6.72-14.32,15.65v26.6h-5.57Z" fill="#fff"/><path d="M735.77,432.33h9.28V437h-9.28v30.76c0,3.62.53,5.74,4.5,6a42.55,42.55,0,0,0,4.78-.27v4.78c-1.68,0-3.27.17-4.95.17-7.43,0-10-2.47-9.9-10.25V437h-8v-4.69h8v-13.7h5.57Z" fill="#fff"/><path d="M753.09,432.33h5.13V443h.18c2.82-7.34,9-11.67,17.24-11.32v5.57c-10.08-.53-17,6.9-17,16.35v24.31h-5.57Z" fill="#fff"/><path d="M782.62,456.64c.09,8.13,4.33,17.95,15,17.95,8.13,0,12.55-4.78,14.32-11.68h5.57c-2.39,10.35-8.4,16.36-19.89,16.36-14.5,0-20.6-11.14-20.6-24.13,0-12,6.1-24.13,20.6-24.13,14.67,0,20.5,12.81,20.06,25.63ZM812.14,452c-.26-8.4-5.48-16.27-14.49-16.27s-14.14,8-15,16.27Z" fill="#fff"/><path d="M852.54,445.68c-.26-6.9-5.57-10-11.93-10-5,0-10.78,1.95-10.78,7.87,0,4.95,5.65,6.71,9.46,7.69l7.42,1.68c6.36,1,13,4.68,13,12.64,0,9.9-9.81,13.7-18.29,13.7-10.61,0-17.86-4.95-18.74-16.09h5.57c.44,7.52,6,11.41,13.43,11.41,5.22,0,12.46-2.3,12.46-8.67,0-5.3-4.94-7.07-10-8.31L837,456c-7.25-1.94-12.73-4.42-12.73-12.2,0-9.28,9.1-12.81,17.15-12.81,9.1,0,16.35,4.77,16.7,14.67Z" fill="#fff"/></svg>