<?xml version="1.0" encoding="UTF-8"?>
<svg height="703" width="1250" xmlns="http://www.w3.org/2000/svg" viewBox="51.6055 10.6613 1146.7890 644.9541">
  <!-- Original Content Bounds: x="4.800000000000001" y="17.45" width="73.2" height="34.83" -->
  <!-- Logo Content -->
  <g transform="translate(292.901144622093, 71.82302916061053) scale(8.021711482558139)">
<!-- Generator: Adobe Illustrator 30.0.0, SVG Export Plug-In . SVG Version: 2.1.1 Build 123)  -->
  <defs>
    <style>
      .st0 {
        fill: #101010;
      }
    </style>
  </defs>
  <g>
    <g>
      <path class="st0" d="M53.1,19.16h-5.45l-2.67,27.99h3.1s.11-1.5.43-5.13h3.63c.32,3.63.43,5.13.43,5.13h3.1l-2.56-27.99ZM48.83,38.82s.75-7.8,1.07-11.22c.21-2.46.43-6.3.43-6.3,0,0,.21,3.85.43,6.3.32,3.53,1.07,11.22,1.07,11.22h-2.99Z"/>
      <path class="st0" d="M40.71,19.16v23.51c0,.75-.75,1.5-1.5,1.5s-1.5-.75-1.5-1.6v-23.4h-3.31v23.4c0,2.67,2.14,4.92,4.81,4.92h0c1.28,0,2.46-.53,3.42-1.39.96-.96,1.5-2.14,1.5-3.53v-23.4h-3.42Z"/>
      <path class="st0" d="M64.11,34.22c1.5-.64,2.46-2.03,2.46-3.74v-7.27c0-2.24-1.82-4.06-4.06-4.06h-5.77v28.1h3.31v-24.68h2.03c.53,0,1.07.43,1.07,1.07v6.62c0,.53-.43,1.07-1.07,1.07h-2.03l2.78,16.03h3.42l-2.24-13.04.11-.11Z"/>
      <path class="st0" d="M6.41,28.77v-4.92c0-.85-.64-1.5-1.5-1.5s-1.5.64-1.5,1.5v18.91c0,.85.64,1.5,1.5,1.5s1.5-.64,1.5-1.5v-5.02h3.31v5.02c0,2.67-2.24,4.92-4.92,4.92s-4.81-2.24-4.81-5.02v-18.81c0-2.67,2.24-4.92,4.92-4.92s4.92,2.24,4.92,4.92v4.92h-3.42Z"/>
      <path class="st0" d="M20.84,40.21v2.46h0c0,2.67-2.14,4.92-4.92,4.92s-4.92-2.14-4.92-4.92v-5.02h3.31v5.13c0,.85.64,1.5,1.5,1.5h0c.85,0,1.5-.75,1.5-1.5v-1.92c0-2.67-1.07-4.59-2.24-6.2v-5.77c1.71,3.42,5.56,5.34,5.56,11.43l.21-.11Z"/>
      <path class="st0" d="M20.94,23.86v4.92h-3.31v-4.92h0c0-.85-.64-1.5-1.5-1.5s-1.5.64-1.5,1.5v1.6c0,1.28.32,2.35.75,3.21h-3.74c-.21-.75-.43-1.71-.43-2.67v-2.24c-.11-2.56,2.14-4.81,4.81-4.81s4.92,2.14,4.92,4.92Z"/>
      <path class="st0" d="M29.06,43.95c1.39-.21,2.99-1.5,2.99-4.38v-15.71c0-2.67-2.24-4.92-4.92-4.92s-4.92,2.24-4.92,4.92v19.34c0,2.46,1.82,4.06,4.27,4.06h6.3v-3.31s-3.74,0-3.74,0ZM28.64,42.34c0,.85-.64,1.5-1.5,1.5s-1.5-.64-1.5-1.5v-18.48c0-.85.64-1.5,1.5-1.5s1.5.64,1.5,1.5v18.48Z"/>
    </g>
    <polygon class="st0" points="78 26.74 78 19.16 68.49 19.16 68.49 47.26 78 47.26 78 38.07 74.9 38.07 74.9 43.95 71.8 43.95 71.8 33.9 76.82 33.9 76.82 30.59 71.8 30.59 71.8 22.58 74.9 22.58 74.9 26.74 78 26.74"/>
  </g>
  <path class="st0" d="M15.28,28.77h0Z"/>
  </g>
</svg>