<svg id="LOGO" xmlns="http://www.w3.org/2000/svg" viewBox="0 0 1250 703"><defs><style>.cls-1{fill:#fc3;}</style></defs><title>weights-and-biases-logo</title><path class="cls-1" d="M128.39245,323.97043a15.91553,15.91553,0,0,0,31.83106,0c.43015-9.03313-6.88239-15.91553-15.91553-15.91553A15.87864,15.87864,0,0,0,128.39245,323.97043Z"/><path class="cls-1" d="M128.39245,404.40838A15.91553,15.91553,0,1,0,144.308,388.49284,15.87863,15.87863,0,0,0,128.39245,404.40838Z"/><path class="cls-1" d="M134.41454,364.40448a9.89344,9.89344,0,1,0,9.89344-9.89343A9.73415,9.73415,0,0,0,134.41454,364.40448Z"/><path class="cls-1" d="M134.41454,283.53638a9.89344,9.89344,0,0,0,19.78688,0c.43015-5.59194-4.3015-9.89344-9.89344-9.89344A9.73415,9.73415,0,0,0,134.41454,283.53638Z"/><path class="cls-1" d="M190.334,379.02956A15.91554,15.91554,0,1,0,206.24951,363.114,15.87865,15.87865,0,0,0,190.334,379.02956Z"/><path class="cls-1" d="M196.35607,419.46362a9.89344,9.89344,0,1,0,9.89344-9.89343C200.65756,409.14,196.35607,413.87166,196.35607,419.46362Z"/><path class="cls-1" d="M196.35607,339.02566a9.89344,9.89344,0,1,0,9.89344-9.89344C200.65756,328.70208,196.35607,333.43372,196.35607,339.02566Z"/><path class="cls-1" d="M196.35607,298.59161a9.89344,9.89344,0,1,0,9.89344-9.89343A9.73414,9.73414,0,0,0,196.35607,298.59161Z"/><path class="cls-1" d="M251.84535,323.97043A15.87864,15.87864,0,0,0,267.76089,339.886a16.16113,16.16113,0,0,0,15.91553-15.91553,15.91554,15.91554,0,0,0-31.83107,0Z"/><path class="cls-1" d="M257.86744,283.53638a9.89344,9.89344,0,1,0,9.89345-9.89344A10.00555,10.00555,0,0,0,257.86744,283.53638Z"/><path class="cls-1" d="M257.86744,364.40448a9.89344,9.89344,0,1,0,9.89345-9.89343C262.59909,354.0809,257.86744,358.81254,257.86744,364.40448Z"/><path class="cls-1" d="M257.86744,404.40838a9.89344,9.89344,0,1,0,9.89345-9.89342A10.00553,10.00553,0,0,0,257.86744,404.40838Z"/><path d="M381.32034,388.923H386.052l18.06628-67.10332,9.03314-1.29045v-4.30149H388.63286v4.30149l9.89344,1.29045L384.76151,371.717,368.846,321.81968l10.75373-1.29045v-4.30149H350.34955v4.30149l10.75374,1.29045-16.34568,49.46719L331.423,321.81968l9.89343-1.29045v-4.30149H312.06626v4.30149l9.03313,1.29045,19.35673,67.53346h4.73164l17.63612-55.91943Z"/><path d="M435.51918,340.74626a11.56038,11.56038,0,0,1,11.614,11.614c0,3.01105-1.29046,5.59194-6.45224,5.59194H420.89409C422.61469,345.47791,429.49708,340.74626,435.51918,340.74626Zm.86028-5.16179c-13.33462,0-24.94868,11.18388-24.94868,27.52956s9.46331,26.66927,24.0884,26.66927c9.89345,0,16.77583-4.73164,20.64719-12.47433l-2.58089-2.15075c-3.87136,4.73165-8.17285,7.74269-15.05524,7.74269-10.32359,0-17.206-6.8824-17.63612-20.217h34.412a19.9408,19.9408,0,0,0,.86029-6.02209C456.16633,343.32716,447.56334,335.58447,436.37946,335.58447Z"/><path d="M478.104,323.97043a7.16776,7.16776,0,0,0,7.31253-6.88239c0-4.3015-3.44121-6.88239-7.31253-6.88239-4.30149,0-7.31253,2.58089-7.31253,6.88239C470.79142,320.95939,473.80249,323.97043,478.104,323.97043Zm12.47431,60.65107-7.7427-1.72059c0-5.59194-.43015-12.47433-.43015-17.206V351.5l.43015-14.62508-1.72061-1.29045-16.34566,6.88239v3.87134l8.603.86031a129.665,129.665,0,0,1,.43015,13.76478v5.1618c0,4.73164,0,12.04418-.43015,17.206l-8.17284,1.72059V388.923h24.94868V384.6215Z"/><path d="M519.82847,340.31611c6.88238,0,10.75373,5.1618,10.75373,12.90449,0,8.17283-4.30149,13.76478-11.18387,13.76478s-10.3236-5.59194-10.3236-13.33463C508.64459,345.47791,512.94608,340.31611,519.82847,340.31611ZM500.0416,353.2206c0,7.31254,3.011,12.47433,8.17285,15.05523-5.592,5.16179-7.31253,8.603-7.31253,12.04418,0,4.30149,2.58089,6.88239,7.31253,8.17284-8.17285,3.87134-10.75374,7.74268-10.75374,12.47433,0,7.74269,6.88238,12.90448,22.36776,12.90448,17.63612,0,26.66925-9.46329,26.66925-18.49642,0-8.603-5.59195-13.76479-17.206-13.76479H515.0968c-5.16178,0-6.45224-1.72059-6.45224-4.73164a10.5468,10.5468,0,0,1,2.58089-6.88239,25.04429,25.04429,0,0,0,8.17284,1.29044c11.18388,0,19.35673-6.45224,19.35673-17.63613a17.819,17.819,0,0,0-2.58089-9.89343h10.75373v-6.8824l-1.29042-1.29043-12.0442,4.30149c-3.44121-3.011-8.17285-4.30149-13.76477-4.30149C508.21445,335.58447,500.0416,342.03671,500.0416,353.2206Zm20.217,55.91943c-8.603,0-13.76477-3.01105-13.76477-9.89344,0-3.44119,1.29046-6.45224,4.3015-9.89343,1.29046,0,3.011.43015,4.30149.43015h12.47434c7.74271,0,10.75374,3.87134,10.75374,8.603C538.32491,404.40838,532.30281,409.14,520.25861,409.14Z"/><path d="M559.83238,365.69493c0,4.73165,0,12.04418-.43014,17.206l-8.17285,1.72059v3.87135h24.94868V384.6215l-7.31252-1.72059c0-5.59194-.43015-12.47433-.43015-17.206V350.6397c5.592-5.1618,9.89345-6.8824,15.05524-6.8824,6.45224,0,9.03313,3.01105,9.03313,12.90449v9.03314c0,5.1618,0,12.04418-.43015,17.206l-7.7427,1.29044v3.87135H609.2996v-3.87135l-7.7427-1.72059c0-5.59194-.43014-12.47434-.43014-17.206v-9.89344c0-14.19493-4.73164-19.78687-13.76477-19.78687-6.88239,0-14.62509,4.30149-19.78687,9.89343V324.40058l.43014-15.48538-1.29046-.8603-16.34569,4.73164v3.87135l9.03313,1.29045v47.74659Z"/><path d="M631.66733,376.44867V342.897h14.62509v-5.59194H631.66733l.43014-14.62509h-6.45224l-3.011,14.62508-9.46328,1.29045v4.73165h9.03313V377.309c0,8.603,4.73164,12.47433,12.47435,12.47433a16.50319,16.50319,0,0,0,12.90448-5.59194l-2.58089-3.011c-2.58089,2.15075-4.73164,3.011-7.31253,3.011C634.24822,384.19136,631.66733,381.61046,631.66733,376.44867Z"/><path d="M669.5205,389.7833c13.76477,0,21.07729-7.31254,21.07729-15.48538,0-6.88239-4.30149-12.04418-15.05523-15.91554l-3.44121-1.29044c-7.31252-2.5809-9.89345-4.73165-9.89345-9.46329,0-4.3015,3.44121-7.31254,9.89345-7.31254a20.26452,20.26452,0,0,1,7.31253,1.72059l1.72057,8.603h5.592l.43018-11.18389a26.68341,26.68341,0,0,0-15.05524-4.30149c-12.04419,0-18.92658,7.31254-18.92658,15.05523,0,7.31254,5.16178,11.614,12.90448,14.62508l5.16179,1.7206c6.88238,2.58089,9.89341,4.73164,9.89341,9.46329s-3.87135,8.17283-12.0442,8.17283a18.11547,18.11547,0,0,1-8.603-1.72059l-2.15075-9.46329h-6.0221l.86038,12.47435A29.98316,29.98316,0,0,0,669.5205,389.7833Z"/><path d="M743.50619,340.74626c-3.87132-5.16179-4.73167-8.17284-4.73167-12.04418a9.73415,9.73415,0,0,1,9.89345-9.89344c5.16178,0,9.46328,3.87134,9.46328,10.32358s-4.73167,11.18389-11.614,15.48539C745.65694,342.897,744.36648,342.03671,743.50619,340.74626Zm48.60691,47.7466.43017-4.73165-10.32356-1.29044c-3.44121-3.4412-6.02207-6.45225-9.03317-9.4633,5.16179-7.31254,8.603-15.48538,11.18392-25.37881l8.17281-1.7206v-4.30149H770.60562v4.30149l8.603,1.29045a86.94937,86.94937,0,0,1-9.03316,22.36776c-4.3015-4.73164-8.17282-8.603-12.47431-13.33463-3.87132-4.3015-6.45224-6.8824-8.603-9.46329,11.18391-6.02209,15.91552-11.18389,15.91552-18.49643,0-8.17284-5.592-13.76478-16.3457-13.76478-10.32356,0-17.63615,6.02209-17.63615,15.48538,0,5.59194,2.15075,11.18389,7.31253,17.206a.4213.4213,0,0,0,.43017.43015c-10.75374,5.59194-16.34569,12.47433-16.34569,22.36777,0,10.75373,9.46327,19.78687,22.79793,19.78687,10.32356,0,17.206-3.87134,21.93765-9.03314a38.7753,38.7753,0,0,1,3.87132,4.3015c3.44121,3.87134,6.88242,5.16179,12.47431,5.16179A75.95585,75.95585,0,0,0,792.1131,388.49286Zm-38.71346-23.65822c3.87132,4.30149,7.31253,8.17283,11.18392,12.47433-4.3015,3.87134-9.89346,5.59194-15.91552,5.59194-10.32356,0-16.34569-7.74269-16.34569-15.48538a18.2067,18.2067,0,0,1,9.46327-16.34568C744.79665,354.94119,748.23786,358.81254,753.39964,364.83464Z"/><path d="M837.27879,354.94119c0,9.46329,0,18.92658-.43018,27.95972l-9.89345,1.29044v4.3015h29.68029c20.64719,0,28.82-9.89344,28.82-19.78688,0-8.603-6.02207-15.91553-20.217-17.63613,12.0442-2.5809,16.7758-9.46329,16.7758-17.206,0-10.32358-8.603-17.63613-23.65822-17.63613H826.9551v4.3015l9.89345,1.29045c.43017,9.46328.43017,18.49642.43017,27.95971v5.1618Zm16.34569-1.29044c15.05523,0,21.50748,5.16179,21.50748,15.05523,0,9.46329-6.88242,14.62508-20.64719,14.62508h-6.45224c-.43018-9.03314-.43018-18.49642-.43018-29.68031Zm1.72057-32.69136c11.18392,0,16.77581,3.44119,16.77581,13.33463s-5.592,14.19493-18.49644,14.19493h-5.592c0-8.603,0-18.06628.43018-27.52956Z"/><path d="M906.53281,323.97043a7.16778,7.16778,0,0,0,7.31253-6.88239c0-4.3015-3.44121-6.88239-7.31253-6.88239-4.30149,0-7.31252,2.58089-7.31252,6.88239A7.46235,7.46235,0,0,0,906.53281,323.97043Zm12.47438,60.65107-7.74271-1.72059c0-5.59194-.43017-12.47433-.43017-17.206V351.5l.43017-14.62508-1.72057-1.29045-16.7758,6.45224v3.87135l8.603.8603a129.65633,129.65633,0,0,1,.43018,13.76479v5.1618c0,4.73164,0,12.04418-.43018,17.206l-8.17281,1.7206v3.87134H918.147V384.6215Z"/><path d="M967.18392,389.35315c3.87131,0,6.88241-1.29045,9.46327-5.59194l-2.15075-2.5809c-1.29046,1.29045-2.58092,2.5809-4.30149,2.5809-2.58092,0-3.87132-1.7206-3.87132-6.45224V354.511c0-13.76478-5.592-18.92657-16.7758-18.92657s-18.92655,5.16179-21.0773,13.33463c.43017,3.01105,2.15075,4.3015,5.16178,4.3015s4.73167-1.7206,5.592-5.1618l2.15074-6.88239a33.74312,33.74312,0,0,1,6.02207-.8603c7.31253,0,10.32356,2.58089,10.32356,12.90449v2.58089c-4.30149.86031-9.03316,2.5809-12.0442,3.4412-14.625,5.16179-18.06626,10.32358-18.06626,16.34567,0,9.03314,6.45224,13.33464,14.625,13.33464,6.45225,0,9.89345-3.01105,15.91552-8.603C958.15075,386.34211,962.02214,389.35315,967.18392,389.35315Zm-30.54064-14.62508c0-3.44119,1.29046-7.31254,10.75373-11.18389,2.15075-.8603,6.02207-2.15075,9.89345-3.44119v16.77583c-6.02206,4.30149-8.17281,5.59194-12.04419,5.59194C940.51466,382.47076,936.64328,380.32,936.64328,374.72807Z"/><path d="M998.58484,389.7833c13.76477,0,21.0773-7.31254,21.0773-15.48538,0-6.88239-4.3015-12.04418-15.05523-15.91554l-3.44121-1.29044c-7.31253-2.5809-9.89345-4.73165-9.89345-9.46329,0-4.3015,3.44121-7.31254,9.89345-7.31254a20.26437,20.26437,0,0,1,7.31253,1.72059l1.72057,8.603h5.59195l.43018-11.18389a26.68337,26.68337,0,0,0-15.05523-4.30149c-12.0442,0-18.92655,7.31254-18.92655,15.05523,0,7.31254,5.16178,11.614,12.90448,14.62508l5.16178,1.7206c6.88242,2.58089,9.89345,4.73164,9.89345,9.46329s-3.87132,8.17283-12.0442,8.17283a18.11555,18.11555,0,0,1-8.603-1.72059l-2.15075-9.46329h-6.02207l.43018,12.04418C987.8311,388.49286,992.56271,389.7833,998.58484,389.7833Z"/><path d="M1052.78363,340.74626a11.56037,11.56037,0,0,1,11.614,11.614c0,3.01105-1.29047,5.59194-6.45225,5.59194h-19.7869C1039.87915,345.47791,1046.76157,340.74626,1052.78363,340.74626Zm.86036-5.16179c-13.33466,0-24.94869,11.18388-24.94869,27.52956s9.46328,26.66927,24.0884,26.66927c9.89345,0,16.7758-4.73164,20.64719-12.47433l-2.58093-2.15075c-3.87131,4.73165-8.17281,7.74269-15.05523,7.74269-10.32356,0-17.206-6.8824-17.63615-20.217h34.412a19.9399,19.9399,0,0,0,.86028-6.02209C1073.43082,343.32716,1064.82783,335.58447,1053.644,335.58447Z"/><path d="M1100.53025,389.7833c13.76477,0,21.0773-7.31254,21.0773-15.48538,0-6.88239-4.3015-12.04418-15.05523-15.91554l-3.44121-1.29044c-7.31253-2.5809-9.89345-4.73165-9.89345-9.46329,0-4.3015,3.44121-7.31254,9.89345-7.31254a20.26437,20.26437,0,0,1,7.31253,1.72059l1.72057,8.603h5.59195l.43018-11.18389a26.68337,26.68337,0,0,0-15.05523-4.30149c-12.0442,0-18.92655,7.31254-18.92655,15.05523,0,7.31254,5.16178,11.614,12.90448,14.62508l5.16178,1.7206c6.88242,2.58089,9.89345,4.73164,9.89345,9.46329s-3.87132,8.17283-12.04419,8.17283a18.11556,18.11556,0,0,1-8.603-1.72059l-2.15075-9.46329h-6.02207l.43018,12.04418C1089.77651,388.49286,1094.50818,389.7833,1100.53025,389.7833Z"/></svg>