<?xml version="1.0" encoding="UTF-8"?>
<svg id="Art_3.0" data-name="Art 3.0" xmlns="http://www.w3.org/2000/svg" viewBox="0 0 48 48">
  <defs>
    <style>
      .cls-1 {
        fill: #000;
      }

      .cls-1, .cls-2 {
        stroke-width: 0px;
      }

      .cls-2 {
        fill: rgba(0, 0, 0, 0);
        opacity: 0;
      }
    </style>
  </defs>
  <rect class="cls-2" width="48" height="48"/>
  <g>
    <path class="cls-1" d="M38.10571,21.5h3.70337l-1.5-3h-4.52734l.57178,2H11.66846l1.1543-4.03906c.49805-1.74316,2.1123-2.96094,3.92529-2.96094h8.75195v-1h-8.75195c-2.25684,0-4.2666,1.51562-4.88721,3.68652l-.66113,2.31348h-3.50879l-1.5,3h3.69971c-1.45215.99414-2.39062,2.63525-2.39062,4.5v10c0,.82715.67285,1.5,1.5,1.5h4c.82715,0,1.5-.67285,1.5-1.5v-2.5h19v2.5c0,.82715.67285,1.5,1.5,1.5h4c.82715,0,1.5-.67285,1.5-1.5v-10c0-1.86475-.93848-3.50586-2.39429-4.5ZM39.69092,19.5l.5,1h-2.79736l-.28564-1h2.58301ZM8.30908,19.5h2.60498l-.28564,1h-2.81934l.5-1ZM13.5,36c0,.27588-.22412.5-.5.5h-4c-.27588,0-.5-.22412-.5-.5v-2.5h5v2.5ZM39.5,36c0,.27588-.22412.5-.5.5h-4c-.27588,0-.5-.22412-.5-.5v-2.5h5v2.5ZM39.5,32.5H8.5v-6.5c0-2.44531,1.9834-4.42188,4.5-4.5h21.98633c2.53125.0791,4.51367,2.05566,4.51367,4.5v6.5Z"/>
    <rect class="cls-1" x="13.5" y="30.5" width="21" height="1"/>
    <path class="cls-1" d="M30.80957,24.5h-13.65479l-1.46094-1h-4.19385v1.5c0,1.92969,1.57031,3.5,3.5,3.5h18c1.92969,0,3.5-1.57031,3.5-3.5v-1.5h-4.56689l-1.12354,1ZM35.5,24.5v.5c0,1.37842-1.12158,2.5-2.5,2.5H15c-1.37842,0-2.5-1.12158-2.5-2.5v-.5h2.88428l1.46094,1h14.34521l1.12354-1h3.18604Z"/>
    <path class="cls-1" d="M32,19.56299l3.54883-1.83691,2.04102-7.39551-5.58984-2.89355-5.58984,2.89355,2.04102,7.39551,3.54883,1.83691ZM32,8.56299l4.41016,2.28271-1.70898,6.19287-2.70117,1.39844-2.70117-1.39844-1.70898-6.19287,4.41016-2.28271Z"/>
    <polygon class="cls-1" points="34.70703 12 34 11.29297 31 14.29297 30 13.29297 29.29297 14 31 15.70703 34.70703 12"/>
  </g>
</svg>