<?xml version="1.0" encoding="UTF-8"?><svg id="PASTE_LOGO_HERE" xmlns="http://www.w3.org/2000/svg" viewBox="0 0 1250 703"><defs><style>.cls-1{fill:#1e1e1e;stroke-width:0px;}</style></defs><path class="cls-1" d="m947.09729,449.31753c1.27002,0,2.28998-1.03,2.28998-2.29001v-20.92001c0-1.09-.78003-2.19-2.26001-2.19h-90.78998c-8.94,0-16.21997-7.28-16.21997-16.22v-100.61c0-8.94,7.28003-16.22,16.21997-16.22h90.79999c1.20001,0,2.25-1.07001,2.25-2.27v-20.95c0-1.25999-1.03003-2.28999-2.28998-2.28999h-60.48999c-17.33002,0-33.40997,5.85001-46.71997,15.94-17.38,13.17-30.01001,33.48-34.45999,57.13-1.14999,6.10001-1.75,12.42-1.75,18.89,0,5.22.39999,10.34,1.14999,15.31999,3.97,26.26999,17.96997,48.76999,37.48999,62.47,12.81,9,28,14.20999,44.28998,14.20999h60.48999v.00003Z"/><path class="cls-1" d="m446.04732,449.31753c1.27,0,2.28999-1.03,2.28999-2.29001v-20.92001c0-1.09-.78-2.19-2.25999-2.19h-90.79c-8.94,0-16.22-7.28-16.22-16.22v-100.61c0-8.94,7.28-16.22,16.22-16.22h90.8c1.2,0,2.25-1.07001,2.25-2.27v-20.95c0-1.25999-1.03-2.28999-2.28999-2.28999h-60.49001c-17.33,0-33.41,5.85001-46.72,15.94-17.38,13.17-30.01,33.48-34.46,57.13-1.15,6.10001-1.75,12.42-1.75,18.89,0,5.22.4,10.34,1.15,15.31999,3.97,26.26999,17.97,48.76999,37.49,62.47,12.81,9,28,14.20999,44.29,14.20999h60.49001l-.00002.00003Z"/><path class="cls-1" d="m614.62732,265.34752l-3.26001-23.41c-.70001-.17-1.39001-.34-2.07999-.51l-1.57999-10.52c-.85001.59-1.76999,1.17-2.72,1.75l-17.08002-100.96c-1.01001-.03-2.03-.03-3.04001,0l22.60999,133.65h7.16-.00998Z"/><path class="cls-1" d="m606.81732,265.34752l-5.85001-25.89c-.73999-.17-1.47-.33-2.20001-.49l-.60999-2.58c-.84.42-1.73999.84-2.66,1.27l-26.57001-103.43c-.95001.29-1.91.61-2.85001.95l33.42001,130.17999h7.31l.01001-.00999Z"/><path class="cls-1" d="m622.27732,265.34752l-1.16-21.14c-.64999-.1-1.31-.23-1.98001-.38l-1.42999-21.99c-.94,1.1-1.89999,2.12-2.89001,3.12l-7.54001-89.79c-1.01999-.34-2.04999-.66-3.09-.95l11.01001,131.14h7.07999l.00003-.01001Z"/><path class="cls-1" d="m598.71732,265.34752l-8.89999-28.14c-1.89999-.32-3.75-.6-5.56-.82l-32.60001-93.63c-.87.61-1.72,1.23-2.53,1.85l42.04999,120.74h7.54999-.00998Z"/><path class="cls-1" d="m705.59732,335.04751l34.64999-10.14c.51001-1.74001,1-3.58,1.44-5.49001l44.20001-14.36c.09-1.08.17999-2.16.23999-3.23l-82.23001,26.72c.64001,2.14,1.20001,4.31,1.70001,6.50999v-.00999Z"/><path class="cls-1" d="m644.84732,267.91752l5.92999-29.73c-.76999.29-1.51001.57-2.23999.85l9.81-51.99c-1.41.58-2.82001,1.22-4.23001,1.9l-.26999,1.42,1.57999-9.36c-.82001-1.13-1.64001-2.27-2.45999-3.42l-15.01999,88.81c2.32999.39999,4.63.89999,6.89999,1.50999v.01001Z"/><path class="cls-1" d="m637.42731,266.31752l2.76001-24.28c-.70001.23-1.38.43-2.06.63l4.85999-47.21c-1.32001.92-2.63,1.88-3.92001,2.9l3.04001-36.16c-.89001-1.25-1.79001-2.48-2.70001-3.71l-8.98999,107.02999c2.37.16,4.70999.42999,7.01999.81l-.00998-.00999Z"/><path class="cls-1" d="m590.20731,265.34752l-12.13-29.5c-1.92999-.09-3.79001-.08-5.60001.01l-35.19998-79.06c-.69,1-1.33,2-1.94,3.02l46.98999,105.53h7.88Z"/><path class="cls-1" d="m532.08733,266.97752c-.8.60001-1.57001,1.21001-2.34,1.82001l-14.36-12.93c-.46001.91-.95,1.82-1.46001,2.73l38.33,34.52v-9.81999l-18.61-17.54001-1.56,1.23v-.01001Z"/><path class="cls-1" d="m552.25733,294.27752l-20.03-16.13c-.14999.74001-.3,1.5-.44,2.25999l-8.11-6.39c-.73.67999-1.42999,1.38-2.12,2.08l-12.66-9.61c-.58.8-1.17,1.61-1.78999,2.41l45.14,34.25999v-8.88l.00999.00002Z"/><path class="cls-1" d="m581.09732,265.34752l-14.73001-28.73c-.60001.12-1.20001.24-1.78.39-1.17999.3-2.29999.65-3.39999,1.02l-32.69-59.46c-.31,1.58-.57001,3.17-.78999,4.78l45.08,82h8.32001-.01001Z"/><path class="cls-1" d="m552.25733,303.85751l-21.95-14.83c-.11.72-.21001,1.45-.32001,2.17999l-13.86-9.16c-.63.77-1.24001,1.55-1.84,2.33l-13.19-8.37c-.69.75-1.37,1.50999-2.03999,2.25999l53.19,33.75999v-8.16l.00999-.00998Z"/><path class="cls-1" d="m552.25733,312.38752l-23.36-13.08c-.09.69-.17,1.38-.25999,2.08l-18.95999-10.36c-.52.84-1.00999,1.7-1.5,2.55l-15.31-8.00999c-.64.8-1.27,1.60001-1.89,2.39999l61.28,32.03v-7.61h-.00002Z"/><path class="cls-1" d="m571.20731,265.34752l-15.61-25.03c-1.62.81-3.12,1.7-4.53,2.68l-25.00999-37.64c-.08,1.67-.16,3.34-.25999,5.03l36.50999,54.96h8.89999Z"/><path class="cls-1" d="m554.74732,265.34752h5.48999l-13.82001-18.5c-1.25999,1.25-2.42,2.59-3.5,4.02l-18.72-23.62c-.2,1.33-.41,2.66-.66,4l28.74001,36.27c.16-1.22,1.19-2.16,2.45-2.16l.02002-.00999Z"/><path class="cls-1" d="m552.25733,270.34752l-12.67-14.29c-.86,1.58-1.63,3.25-2.36,4.99l-16.67-17.76c-.34,1.07-.71001,2.14-1.10001,3.21l32.8,34.92v-11.08.01001Z"/><path class="cls-1" d="m652.04734,270.25752l10.51001-36.47c-.84.3-1.64001.59-2.45001.89l14.5-52.33c-1.38.23-2.76999.5-4.17001.83l-3.45001,12.45c-.79001-.89-1.57999-1.8-2.35999-2.73l-19.29999,75.16c2.26999.63,4.51001,1.36,6.70999,2.2h.01001Z"/><path class="cls-1" d="m745.87732,399.57751l-41.41-15.39999c-.59,2.13-1.23999,4.23001-1.95999,6.29001l20.32999,8.23999c-.29999-1.64999-.57001-3.23999-.82999-4.79999l22.76001,8.45999c.35001-.92001.72-1.85001,1.10999-2.79001Z"/><path class="cls-1" d="m698.75733,315.01751l43.91998-26.09c-.34-1.81-.75-3.64-1.26001-5.5l37.48999-23.79c-.42999-.91-.87-1.82-1.34-2.7l-81.92999,51.99c1.10999,1.98,2.14999,4.00999,3.12,6.08l.00003.00999Z"/><path class="cls-1" d="m725.50733,441.62753l17.16,14.19c-.32999-1.57999-.63-3.12-.91-4.64001l-49.04001-40.57001c-1.20001,1.85999-2.45001,3.67999-3.76999,5.42999l35.07001,30.76001c.60999-1.69,1.09-3.42001,1.48001-5.17001l.00998.00003Z"/><path class="cls-1" d="m701.53733,321.55752l42.29001-20.54001c-.01001-1.86-.10999-3.75-.28-5.67999l40.39999-21.12c-.23999-1.00999-.48999-2-.76999-2.99001l-84.29001,44.06999c.95001,2.03999,1.82999,4.13,2.64999,6.25999v.00002Z"/><path class="cls-1" d="m742.31732,409.83752l-40-18.82001c-.73999,2.07999-1.54999,4.13-2.42001,6.13l24.94,12.63c-.29999-1.79001-.62-3.54999-.94-5.29001l17.67001,8.31c.23001-.98001.48001-1.97.75-2.95999Z"/><path class="cls-1" d="m703.81732,328.24753l39.10001-15.10001c.28-1.84.5-3.74001.66-5.67999l42.58002-17.89999c-.06-1.06-.16-2.10001-.25-3.14999l-84.26001,35.42c.79001,2.10001,1.51999,4.23,2.17001,6.39999l-.00003.00999Z"/><path class="cls-1" d="m726.75733,428.99753l13.19,9.17001c-.10999-1.29001-.19-2.56-.25-3.82999l-43.26001-30.07001c-1.04999,1.95001-2.14999,3.85001-3.32001,5.70999l33.44,24.70001c.16-1.88.20999-3.78.20001-5.67999v-.00003Z"/><path class="cls-1" d="m699.63733,397.71753c-.89001,2.01999-1.85001,4-2.87,5.94l29.69,18.29999c-.16-1.89001-.38-3.78-.63-5.64999l13.98999,8.07999c.07999-1.10001.19-2.19.31-3.28l-40.48999-23.37v-.01999Z"/><path class="cls-1" d="m714.03733,218.21752l-42.01001,63.23c1.85001,1.41,3.64001,2.91,5.38,4.48l32.45001-45.84c-.64001-.42-1.29001-.83-1.92999-1.22l20.79001-30.02c-.72-1.14-1.48999-2.26-2.29001-3.37l-9.23999,13.35c-1.03-.2-2.07001-.41-3.14001-.61h-.01001Z"/><path class="cls-1" d="m658.96732,273.28752l16.22-42.5c-.82001.08-1.64001.2-2.45999.33l18.26999-49.41c-1.29001-.13-2.60001-.23-3.95001-.27l-9.10999,24.62c-.79001-.62-1.57001-1.25-2.34-1.91l-23.07999,66.29001c2.19.85001,4.35001,1.81,6.45001,2.86l-.00003-.01001Z"/><path class="cls-1" d="m699.67731,215.77752l-33.76001,61.41c1.98001,1.25,3.91,2.57001,5.78,3.99001l27.53-46.75999c-.70999-.29-1.42999-.56-2.14999-.82l21.42999-37.27c-.92001-.9-1.87-1.78-2.85999-2.65l-12.97,22.56c-.98001-.16-1.98001-.31-3-.47v.00999Z"/><path class="cls-1" d="m686.87732,211.77752l-27.48001,61.73c2.09,1.06,4.14001,2.21001,6.14001,3.45l22.04001-45.81c-.78-.12-1.56-.21-2.34-.3l20.82001-44.45c-1.04001-.65-2.17001-1.24-3.37-1.76l-13.26001,28.31c-.85999-.36-1.70999-.75-2.54001-1.17h-.01001Z"/><path class="cls-1" d="m691.70731,302.51751l42.51001-36.06c-.38-.64999-.78-1.31-1.19-1.97l6.57001-5.69c.09-1.6.14001-3.19.17001-4.77l19.92999-17.94c-.81-.63-1.63-1.24-2.45001-1.83l-69.60001,62.67001c1.42001,1.8,2.76999,3.67,4.06,5.59Z"/><path class="cls-1" d="m682.66733,291.09752l36.63-43.50999c-.56-.53-1.13-1.04-1.70001-1.54l18.20999-22.09c-.45999-1.4-.95001-2.79-1.5-4.16l-4.13,5.01,1.92001-2.42c-1.01999-.3-2.06-.59-3.14001-.87l-51.26001,64.67c1.70999,1.56,3.37,3.2,4.95999,4.89999l.01004.01001Z"/><path class="cls-1" d="m695.48731,308.65751l43.92999-31.34c-.42001-1.10001-.88-2.21001-1.35999-3.32001.13-.92.26001-1.84.38-2.75999l32.35999-24.56c-.63-.78-1.28-1.54-1.95001-2.28l-76.94,58.39999c1.26001,1.89999,2.45999,3.86,3.59,5.86h-.00998Z"/><path class="cls-1" d="m687.43732,296.64752l40-40.15c-.48001-.6-.95999-1.19-1.45001-1.78l13.32001-13.65c-.16-1.59-.35001-3.17-.59-4.73l7.92999-8.44c-.94-.46-1.89001-.9-2.87-1.33l-60.85001,64.80001c1.57001,1.69,3.07001,3.45,4.51001,5.28Z"/><path class="cls-1" d="m625.97733,265.34752c1.31,0,2.60001.06,3.89001.13l.62-21.12c-.64999.08-1.31.14-1.95999.18l.70001-37.07c-1.16,1.26-2.29999,2.57-3.41,3.93v-66.66c-.98001-.71-1.97-1.41-3-2.08v122.68h3.16l-.00003.00999Z"/><path class="cls-1" d="m660.55731,440.56753l15.72,34.10999c.82001.10001,1.64999.17999,2.48001.23999l12.76001,26.95001c.79999-.79999,1.56-1.64001,2.31-2.48001l23.01999,46.37c.76999-.70999,1.53-1.42999,2.28-2.16l-52.79999-106.37c-1.88,1.20001-3.79999,2.31-5.76999,3.35001l-.00003-.00998Z"/><path class="cls-1" d="m667.17731,436.66751l21.44,37.82001c.75-.12,1.51001-.28,2.28-.45001l9.60001,16.53c.62-.98001,1.20001-1.98001,1.76999-3l26.92001,44.45999c.64999-.88,1.28-1.76999,1.89001-2.67001l-58.48001-96.57001c-1.76001,1.37-3.56,2.66-5.41,3.88l-.01001.00003Z"/><path class="cls-1" d="m673.35733,432.18753l26.5,38.76999c.67001-.31,1.34-.64999,2.01999-.98999l5.07999,7.26999c.39999-1.13.76999-2.28,1.10999-3.44l30.59,42.10001c.48001-1.06.92999-2.13,1.37-3.22l-61.64001-84.84c-1.63,1.51999-3.29999,2.97-5.03,4.34l.00006.01001Z"/><path class="cls-1" d="m679.05731,427.20752l30.79999,37.82999c.35999-.26001.72-.51999,1.09-.79001,1.01001-.75,1.94-1.53,2.82999-2.32999l30.76001,35.64001c.25-1.26001.48001-2.53.67001-3.82001l-61.53-71.28c-1.48999,1.64999-3.03,3.23999-4.63,4.76001l.01001-.01001Z"/><path class="cls-1" d="m638.60733,448.14752l3.17999,17.44c.69.10999,1.37.25,2.06.39001l10.62,54.97c1.10001-.20999,2.17001-.45999,3.23999-.70999l10.42001,49c.98999-.12,1.98001-.26999,2.97-.42999l-25.95999-122.14999c-2.14001.59-4.32001,1.09-6.51999,1.48001l-.01001.00995Z"/><path class="cls-1" d="m688.46732,416.68753c-1.34,1.76001-2.73999,3.47-4.20001,5.12l34.04999,35.32001c1.07001-1.35999,2.01001-2.76999,2.85001-4.22l24.87,24.35001c-.07001-1.48999-.17001-2.98999-.32001-4.51001l-57.25-56.06h.00003Z"/><path class="cls-1" d="m646.19733,446.36752l5.88,21.73999c.76001.23001,1.51999.47,2.26999.72l13.60001,48.26001c1.04001-.39999,2.04999-.82999,3.06-1.28l14.81,49.04999c.94-.35001,1.87-.70999,2.79999-1.09l-36.09-119.54001c-2.07001.81-4.19,1.51999-6.32999,2.14001Z"/><path class="cls-1" d="m653.54734,443.82751l10.16,28c.82001.25,1.64999.48001,2.47.72l14.31,38.20001c.94-.60001,1.85001-1.23999,2.75-1.88l18.98999,47.95999c.85999-.53,1.72-1.07999,2.57001-1.64999l-45.17999-114.12c-1.98001,1.01001-4.01001,1.92999-6.07001,2.76999Z"/><path class="cls-1" d="m704.59732,383.66752l16.70001,5.18999c-.17001-1.52-.28-2.97-.32001-4.34l28.20001,7.87c.45001-.89999.92001-1.81,1.41-2.72l-44.48001-12.42c-.42999,2.17-.94,4.31-1.5,6.42l-.01001.00002Z"/><path class="cls-1" d="m708.04734,355.85751l19.92999-.67c.63-1.47,1.26999-2.91,1.92001-4.35001l44.62-2.81c.45001-1.03.92001-2.06,1.34-3.09l-68.12,4.28999c.17001,2.19.28,4.39999.31,6.64v-.00999Z"/><path class="cls-1" d="m707.71732,348.87752l24.36002-2.87c.72-1.59,1.42999-3.17,2.10999-4.74001l45.53-6.72c.35001-1.06.69-2.12,1.01001-3.17999l-73.78,10.89999c.32999,2.17999.57999,4.39.76999,6.62v-.00999Z"/><path class="cls-1" d="m706.89731,341.92752l29.51999-6.00999c.60999-1.56,1.26999-3.28,1.92999-5.14999l45.28-10.62c.23001-1.08.45999-2.16.66-3.24001l-78.60999,18.44c.48001,2.17.89001,4.36,1.23001,6.58l-.01001-.00002Z"/><path class="cls-1" d="m707.29734,369.82751l15.06,2.03c.29999-1.34.64001-2.66,1.01001-3.96001l38.04999,4c.62-.94,1.23999-1.88,1.84-2.82001l-55.37-5.82001c-.13,2.22-.32999,4.41-.59,6.58v-.00998Z"/><path class="cls-1" d="m552.25733,320.12752l-24.53-11.16c-.08.64999-.16,1.32001-.23,1.98l-22.93001-10.14999c-.39.89999-.75,1.82001-1.11,2.73l-18.28-7.67999c-.59.85001-1.14999,1.69-1.71001,2.53999l68.26001,28.69-25.07001-8.96001c-.07001.63-.14999,1.28-.23,1.91l-25.53-8.81999c-.25999.94-.48,1.89-.71001,2.85001l-22-7.14999c-.50999.89-1.02,1.78-1.50999,2.67l73.09,23.75-24.17-6.41c-.08.62-.17,1.24001-.25,1.86l-26.62-6.77c-.13.96001-.22,1.92999-.31,2.89999l-26.33-6.17999c-.42999.92999-.84,1.86-1.24001,2.78999l77.51999,18.17999-24.12-4.28c-.12.61-.25,1.21001-.38,1.82001l-25.85001-4.31c0,.96001.03,1.92999.06,2.89l-30.97-4.57001c-.33.97-.64,1.92999-.94,2.89l81.33,12.00999-25.08-2.31c-.14999.61-.31,1.22-.47,1.83l-23.31-1.91c.11.97.25,1.89999.39,2.84l-35.56999-2.24001c-.22.99001-.42,1.98-.61,2.97l84.33,5.31-27.03-.22c-.17999.63-.37,1.25-.55,1.88l-19.10001.03999c.23.94.49001,1.83.74001,2.74001l-39.92.84c-.10001,1.00999-.17999,2.00999-.25,3.00999l86.31999-1.81-29.89999,2.25999c-.2.66-.39999,1.31-.60001,1.96001l-13.17999,1.13c.35001.88.72,1.73,1.09,2.58l-43.98,4.62c.03,1.00999.07001,2.00999.12,3l87.21001-9.17-33.59,5.39c-.21001.7-.41,1.38-.62,2.08l-5.78.99001c.44.82001.89999,1.61,1.36,2.39999l-47.46001,9.05c.14999,1,.32001,1.98.5,2.95999l86.89999-16.58-37.87,9.38c-.46001,1.71001-.88,3.39999-1.27,5.08l-45.3,12.64999c.28.97.56,1.92999.86,2.87l85.42-23.85001-42.24001,14.31c-.22,1.20999-.42,2.41-.58,3.60999-.08.57001-.14999,1.13-.22,1.70001l-38.60001,14.35999c.39999.92999.82001,1.84,1.24001,2.73999l81.37001-30.25999v-64.25l-.00998.00006Z"/><path class="cls-1" d="m706.19733,376.77752l14.92001,3.3c.10001-1.36.28-2.69.48001-4.02l33.12,6.32001c.54001-.89999,1.10001-1.81,1.67999-2.73l-49.14999-9.38c-.28,2.2-.63,4.37-1.04999,6.50999h-.00003Z"/><path class="cls-1" d="m630.84732,449.11752l1.54999,15.98999c.64001-.04001,1.29001-.04999,1.94-.06l6.17001,57.47c1.12-.04001,2.22-.10999,3.32001-.19l5.87,46.48999c1.01999.19,2.04999.35001,3.07999.48001l-15.28-120.95001c-2.19.35999-4.41.62-6.64999.78v-.00998Z"/><path class="cls-1" d="m708.06732,357.33752c0,1.85001-.06,3.69-.14999,5.50999l16.76001.84c.47-1.38.98001-2.73,1.5-4.08l42.17001.88c.54001-.99001,1.07999-1.98,1.60001-2.97l-61.88-1.3c0,.37.01001.74001.01001,1.11l-.01004.01001Z"/><path class="cls-1" d="m554.74732,449.31753c-1.37,0-2.48-1.10999-2.48-2.48001v-1.76001l-16.02,20.73001c1.16.70999,2.35001,1.37,3.55,2,.21001.35999.42.72.64,1.07001l-24.34,33.5c.37,1.20999.75999,2.39001,1.16,3.5l41.10001-56.57001h-3.61l-.00002.01001Z"/><path class="cls-1" d="m625.98731,449.31753h-2.97l.22,17.26001c.64001-.16,1.29001-.29001,1.92999-.42999l1.29001,55.94c1.12.10001,2.22.17999,3.32001.25l1.63,38.98001c1.01001.70001,2.03,1.37,3.09,1.98999l-4.78-114.11002c-1.23999.07001-2.48999.12-3.73999.12h.00998Z"/><path class="cls-1" d="m552.25733,430.84753l-25.53,27.87c1.3,1.17999,2.64,2.29999,4.03,3.35001l-18.66,21.60999c.21001,1.23999.42999,2.51001.66,3.82999l39.5-45.76001v-10.89999.00003Z"/><path class="cls-1" d="m552.25733,408.81753l-39.34,30.63c.72,1.66,1.50999,3.26001,2.36,4.79001l-12.84,10.62c.58.85999,1.11,1.70999,1.62,2.56l48.21001-39.88v-8.72h-.01001Z"/><path class="cls-1" d="m552.25733,384.45752l-44.61,19.41c-.13,1.85999-.19,3.67999-.21001,5.45001l-31.44,14.79999c.53999.87,1.08,1.72,1.63,2.54999l74.64-35.12v-7.08l-.00999-.00999Z"/><path class="cls-1" d="m552.25733,399.86752l-43.05,28.07001c.39999,1.81.87,3.56,1.39,5.25l-16.62,11.54999c.73.73999,1.42999,1.48001,2.10001,2.20001l56.17999-39.04999v-8.02002Z"/><path class="cls-1" d="m552.25733,391.81753l-44.69,24.07001c.11,1.87.28,3.69.5,5.45999l-23.92,13.81c.71001.79001,1.42,1.54001,2.12,2.23999l65.99001-38.10001v-7.48999.01001Z"/><path class="cls-1" d="m552.25733,418.98752l-33.44,30.85999c1.03999,1.44,2.13,2.82001,3.27,4.13l-13.61,13.32999c.35001,1.07001.66,2.16.96001,3.26001l42.81999-41.92999v-9.64999Z"/><path class="cls-1" d="m607.21732,449.31753l-3.67999,23.53c.73001-.23001,1.42999-.48001,2.14999-.72l-6.47,44.45999c.13.04001.26001.07999.39001.12.94.28,1.85999.54001,2.79001.79999l-2.79001,22.06c.97.29999,1.94.63,2.89999.98999l11.53-91.25h-6.82001v.01004Z"/><path class="cls-1" d="m615.17731,449.31753l-1.42999,20.10999c.67999-.23001,1.35001-.45001,2.01999-.67001l-3.12,51.25c1.10001.22,2.17999.42999,3.26001.63l-1.10001,26.26001c.98001.67001,1.95001,1.39999,2.91,2.16l4.17999-99.73999h-6.73001.01001Z"/><path class="cls-1" d="m599.02732,449.31753l-6.45001,26.48999c.76001-.16,1.51001-.34,2.26001-.51001l-8.44,36.31c1.03.48999,2.04001.94,3.01999,1.37l-4.98999,23.48001c.98999.12,1.98999.25,2.98001.39999l18.61002-87.54001h-6.98001l-.01001.00003Z"/><path class="cls-1" d="m560.93732,449.31753l-14.09,21.79001c.71001.29001,1.42.54999,2.13.82001l-3.21001,5.07001c.64.89001,1.28,1.75,1.92999,2.60001l-23.72,39.16c.64999.87,1.32001,1.69,2.00999,2.47l43.54999-71.91h-8.60001l.00003-.00003Z"/><path class="cls-1" d="m571.64731,449.31753l-13.57001,25.42999c.73999.19,1.48001.35999,2.22.51999l-6.25999,12.01999c.74001.82001,1.49001,1.62,2.24001,2.39001l-19.67999,39.64001c.89999.44,1.81.85001,2.74001,1.22l40.31999-81.23001h-8.01001v.01001Z"/><path class="cls-1" d="m581.40732,449.31753l-11.87,27.57001c.76001.09,1.51001.16,2.26001.23001l-8.17999,19.57001c.85001.73001,1.69,1.42999,2.53,2.12l-13.87,35.04001c1.00999.14999,2.03.28,3.07001.39999l33.62-84.92001h-7.56l-.00003-.01001Z"/><path class="cls-1" d="m590.47733,449.31753l-9.35999,28c.76999-.04001,1.53-.10001,2.29001-.16l-8.95001,27.73999c.94.62,1.88,1.20001,2.79999,1.76999l-8.63,28.57001c1.01999.06,2.04999.10999,3.07999.17001l25.98999-86.09h-7.22.00003Z"/></svg>