<svg id="LOGO" xmlns="http://www.w3.org/2000/svg" viewBox="0 0 1250 703"><title>nvidia-partner-pure-storage-logo</title><path d="M229.3,437.76H186.21a25.07,25.07,0,0,1-21.63-12.48l-36.25-62.79a25.09,25.09,0,0,1,0-25l36.26-62.79a25,25,0,0,1,21.63-12.49h72.5a25.06,25.06,0,0,1,21.63,12.49l36.25,62.79a25,25,0,0,1,0,25l-9.37,14.95a25,25,0,0,1-21.56,12.34H242.51L266.1,350,244.28,312.2H200.63L178.8,350l50.5,87.76Z" fill="#f16722"/><path d="M384.21,390.37H364.12V312.68h28.5c18.35,0,29.44,8.53,29.44,24.65,0,18.11-13.2,27.22-31.89,27.22h-6ZM388.77,349c7.71,0,12.62-2.33,12.62-10.39s-4.21-10.17-11.57-10.17h-5.61V349Z" fill="#222"/><path d="M453.94,312.68V363.5c0,8.88,4.55,11.56,11,11.56,6.07,0,10.4-3.62,10.4-11V312.68h20.09v53.74c0,15.78-12.61,25.35-31,25.35-20.21,0-30.61-8.17-30.61-27.1v-52Z" fill="#222"/><path d="M581.29,312.68h50.83V330.2H601.39V342H627.8v17.53H601.39v13.32h31.55v17.52H581.29Z" fill="#222"/><path d="M652.34,377.05c3.62,2.46,11.92,6.66,21.15,6.66,7.83,0,16.36-2.45,16.36-14.37,0-9.34-8.18-12.38-17.52-14.95-11.22-3-22.21-7.24-22.21-21.62,0-13,10-21.5,24.65-21.5A36.67,36.67,0,0,1,700,321.67l-5.14,6.19c-6.07-5.25-12.85-8.64-20.21-8.64-6.54,0-15,2.81-15,12.62,0,9.23,7.95,11.92,18,15,10.75,3.38,21.73,7.47,21.73,22.19s-9.81,22.78-26.17,22.78c-11.22,0-21.61-4.55-24.77-7.12Z" fill="#222"/><path d="M764.86,312.68v7.94h-23.6v69.75H732V320.62H708.89v-7.94Z" fill="#222"/><path d="M802.06,391.77c-20,0-32-13.43-32-40.07,0-30,17.29-40.43,33.18-40.43,16.83,0,31.43,10.64,31.43,40.43C834.66,378.45,822,391.77,802.06,391.77ZM803,384c16.94,0,22.2-16,22.2-31.9,0-13.78-4.56-32.83-22.32-32.83-17.06,0-23.37,16.24-23.37,32.13C779.51,366.77,783.72,384,803,384Z" fill="#222"/><path d="M910,390.37l27.34-77.69h11l27.92,77.69h-9.7l-8.52-23.95H927.45l-8.3,23.95Zm19.63-31.43h26.17l-13.2-38Z" fill="#222"/><path d="M1038.69,384.65c-6.42,4.32-15.66,7.12-25.82,7.12-20.44,0-33.07-13-33.07-40.07,0-30.26,17.53-40.43,33.07-40.43a31.89,31.89,0,0,1,26.05,12.62l-6.65,5.26c-5.14-6.07-11.22-9.93-19.51-9.93-14.73,0-23.49,12-23.49,31.66,0,21,7.48,33.3,24.42,33.3,6.08,0,13-2.1,15.77-4.09V357h-17.64V349h26.87Z" fill="#222"/><path d="M1054.5,312.68H1098v7.94h-34.23V346.8h29.44v7.94h-29.44v27.69h35v7.94H1054.5Z" fill="#222"/><path d="M891.59,366c-1.76-3.91-2.89-5.88-5.33-7.11,8.57-3.82,13.9-11.46,13.9-23.08,0-15.19-9.82-23.13-26.18-23.13H848.75v77.69H858V361.75H871.3q1.43,0,2.79-.09l-.13,0c4.79,0,7,3.12,9,7.33l9.89,21.31h9.81Zm-21.93-11.73H858v-34h10.16c13.2,0,22.55,1.52,22.55,16.94C890.69,349.71,882.05,354.27,869.66,354.27Z" fill="#222"/><path d="M560.65,365.72a11.75,11.75,0,0,0-5.09-6.05c7.38-4.43,11.84-11.88,11.84-22.38,0-16.13-11.1-24.66-29.44-24.66H509.45v77.69h20.1V364.5h5.17c2.7.19,4.42,1.68,5.63,4.4l9.42,21.36h21.5ZM529.55,349V328.4h5.6c7.37,0,11.57,2.22,11.57,10.17S541.82,349,534.11,349Z" fill="#222"/><path d="M1114.75,331.31A10.48,10.48,0,1,1,1125,320.84,10.08,10.08,0,0,1,1114.75,331.31Zm0-19.13c-4.54,0-8.07,3.56-8.07,8.66,0,4.76,3.08,8.65,8.07,8.65,4.48,0,8-3.53,8-8.65S1119.23,312.18,1114.75,312.18Zm-2.07,14.65h-1.91V315.24h4.4c2.8,0,4.23,1,4.23,3.33,0,2.1-1.29,3-3,3.16l3.25,5.1h-2.15l-3-5h-1.79Zm2.12-6.58c1.43,0,2.69-.14,2.69-1.82,0-1.4-1.37-1.57-2.52-1.57h-2.29v3.39Z" fill="#222"/></svg>