<svg xmlns="http://www.w3.org/2000/svg" xmlns:xlink="http://www.w3.org/1999/xlink" viewBox="0 0 1250 703"><defs><style>.cls-1{fill:none;}.cls-2{clip-path:url(#clip-path);}.cls-3{clip-path:url(#clip-path-2);}.cls-4{fill:#80c342;}</style><clipPath id="clip-path"><rect class="cls-1" x="-12.5" y="41.6" width="1275" height="619.82"/></clipPath><clipPath id="clip-path-2"><rect class="cls-1" x="-12.5" y="41.6" width="1275" height="619.82"/></clipPath></defs><g id="LOGO"><g class="cls-2"><g class="cls-3"><path class="cls-4" d="M1054.3,257.4c-2.9-4.3-6.4-7.3-21.1-8.4-3.9-.3-16.6-.7-38-.7-56.3,0-94.5,17.1-114,50.8q7.9-50.9-99.2-50.9-126,0-157.4,101.5-11.6,37.7-2.4,61.8l-19.8,1.4c-15.5,1.1-35.9,2.2-48.4,2.2q-46.1,0-57.2-15.5c-6.6-9.2-5.9-26.4,1.8-51.5,12.8-41.5,44.5-60.2,95.3-60.2a508.9,508.9,0,0,1,51.9,2.8c3.6-.3,5.1-3.9,4.7-7l-.5-3.9-1.8-14c-1.2-9.2-8-14.6-20.5-16.3s-19.8-1.3-32.3-1.3h-.7q-99.6.3-138.7,65.4,14.4-65.4-92.1-65.4-59.2,0-85,3.4c-13.2,1.6-21.2,7.1-24.1,16.3l-5.6,17.9c-1.1,3.3.5,5,4.7,5h.2c3.1-.3,15.1-1.5,35.6-3.2,27.2-2.2,47.3-3.2,60.6-3.2,39.1,0,55.5,9.8,49.4,29.3a11.4,11.4,0,0,1-8.8,8.1q-55.5,9.2-88.1,13.2Q211.2,346.6,196.9,392q-19.5,62.5,98,62.5c39,0,71.9-2.3,98.4-6.7,15.3-2.6,23-6.5,26.1-16.3L434,385c-1.6,46.4,31,69.8,97.7,69.8,28.8,0,56.2-1,69.2-3.2s20.2-5.3,23.2-15.7l2.9-14.6q21.4,33.3,93.5,33.2,76.2,0,88.8-4.2c7.1-2.3,11.5-5.9,13-11a9.4,9.4,0,0,0,.6-2.9l6.1-19.7c1.1-3.5-.5-5.1-4.7-5l-32.4,1.6q-32.5,1.8-51,1.8c-23,0-38.8-1.6-47.5-4.7-12.8-5-18.9-14.8-18.4-29.6l102.9-13.2q69.3-8.9,92.6-42.6L835.7,446.5c-.7,2.2-.4,4.1.8,5.4s3.5,2.3,6.8,2.3h42.6c7.4,0,10.1-3.8,11-7.1l37.6-131c5-17.3,20.8-25.7,48.5-25.7,25,0,43.8.3,55.9.7h.9c2.3,0,6.6-.8,8.7-6.5l6.6-18c1.3-3.5,1-6.6-.8-9.2M367.9,415.1q-19.9,3.1-57.3,3.1c-43.3,0-62.3-8.7-56.8-26.2,4-12.5,15.3-20,34.1-22.6l98.5-13.2Zm455-106.2c-4.1,13.4-23.4,22.6-57.7,27.6l-82,11.6,2.1-6.7c6.7-22.1,16.4-37.2,28.9-45.2s32.7-11.9,60.9-11.9q55.5,0,47.8,24.6"/></g></g></g><g id="BOUNDING_RECT_1250x703_" data-name="BOUNDING RECT (1250x703)"><rect class="cls-1" width="1250" height="703"/></g></svg>