<svg xmlns="http://www.w3.org/2000/svg" xmlns:xlink="http://www.w3.org/1999/xlink" viewBox="0 0 1250 703"><defs><style>.cls-1{fill:none;}.cls-2{clip-path:url(#clip-path);}.cls-3{fill:#004b85;}.cls-4{clip-path:url(#clip-path-2);}.cls-5{fill:#fff;}</style><clipPath id="clip-path"><rect class="cls-1" x="179.82" y="193.5" width="890.37" height="434"/></clipPath><clipPath id="clip-path-2"><rect class="cls-1" x="179.82" y="193.5" width="890.37" height="434"/></clipPath></defs><g id="LOGO"><g class="cls-2"><rect class="cls-3" x="189.7" y="263.87" width="865.17" height="176.57"/><g class="cls-4"><path class="cls-5" d="M383,321.72v92.74h20.2c31.85,0,50.76-19.74,50.76-45.58s-17.4-47.16-54.81-47.16Zm20.85,73.81V339.74c20.29-1.08,29.4,13.23,29.4,29.53,0,15.6-9.54,27.56-29.4,26.26"/><polygon class="cls-5" points="664.71 321.72 643.79 321.72 643.79 373.2 586.73 320.15 586.73 414.46 607.64 414.46 607.63 366.1 664.71 418.22 664.71 321.72"/><polygon class="cls-5" points="673.6 339.73 699.04 339.73 699.04 414.46 721.5 414.46 721.5 339.73 746.62 339.73 746.62 321.72 673.6 321.72 673.6 339.73"/><polygon class="cls-5" points="754.83 414.46 754.83 321.72 809.51 321.72 809.51 339.33 775.85 339.33 775.85 359.07 806.15 359.07 806.15 376.95 775.85 376.95 775.85 396.68 809.51 396.68 809.51 414.46 754.83 414.46"/><polygon class="cls-5" points="954.84 321.72 954.84 359.23 918.97 359.23 918.97 321.72 898.06 321.72 898.06 414.46 918.97 414.46 918.97 376.95 954.84 376.95 954.84 414.46 975.75 414.46 975.75 321.72 954.84 321.72"/><polygon class="cls-5" points="443.8 321.72 491.29 417.02 502.71 392.82 468.09 321.72 443.8 321.72"/><polygon class="cls-5" points="538.36 318.51 526.85 342.57 536.63 367.32 514.97 367.32 507.67 382.66 542.62 382.66 555.8 414.46 580.05 414.46 538.36 318.51"/><path class="cls-5" d="M814,368.27c0,30.4,22.88,47.31,51.15,47.31a42.57,42.57,0,0,0,22-5.59V388c-4.28,5.69-12.89,9.48-21.56,9.48-16.92,0-30.33-11.45-30.33-29.79s14.88-29.08,30.33-29.08c8.67,0,17.28,3.78,21.56,9.47V327.75c-4-3.48-11.07-6.46-22.21-6.46-28.24,0-50.9,20-50.9,47"/><path class="cls-5" d="M310.66,378.13,324,345.35l13.32,32.78Zm67.23,36.33L324.75,298.62,271.14,414.46h26.22L305,395.08h38l7.6,19.38Z"/></g></g></g><g id="BOUNDING_RECT_1250x703_" data-name="BOUNDING RECT (1250x703)"><rect class="cls-1" width="1250" height="703"/></g></svg>