<svg xmlns="http://www.w3.org/2000/svg" xmlns:xlink="http://www.w3.org/1999/xlink" viewBox="0 0 1250 703"><defs><style>.cls-1{fill:none;}.cls-2{clip-path:url(#clip-path);}.cls-3{fill:#0057b7;}</style><clipPath id="clip-path"><rect class="cls-1" x="74.5" y="162.94" width="1101" height="377.11"/></clipPath></defs><g id="LOGO"><g class="cls-2"><g class="cls-2"><path class="cls-3" d="M595.56,251.42h-153c-35.45,0-51.21,22.22-54.8,43.35V251.42H302.91c-11.83,0-17.55,3.59-23.29,11.83l-23.27,34H595.56Z"/><polygon class="cls-3" points="172.16 430.53 233.06 430.53 309.36 307.31 254.91 301.93 172.16 430.53"/><rect class="cls-3" x="604.52" y="251.42" width="50.15" height="45.85"/><path class="cls-3" d="M973,323.07l-156.9-9.31c0,24,15.76,40.12,42.63,42.26l111.75,8.6c8.61.72,14,2.87,14,10,0,6.81-6.1,9.32-18.63,9.32H813.61v46.56H969.07c49.07,0,70.56-17.19,70.56-56.24,0-35.09-19.34-48.36-66.62-51.22"/><path class="cls-3" d="M814.07,313.76l-49.43-2.87v52.66c0,16.48-8.24,21.49-36.9,21.49h-39.4c-23.64,0-33.67-6.81-33.67-21.49V305.88l-50.15-3.59v65.56h-1.08c-2.86-19-10-41.19-57.67-44.43L388.88,313c0,24,17.2,38.33,44.06,41.2l109.25,11.1c8.6.71,15,3.22,15,10.39,0,7.88-6.45,8.59-16.49,8.59H387.09V312.68l-50.15-3.22V430.53H541.12c45.49,0,60.18-23.64,62.32-43.34h1.08c5.73,31.16,33,43.34,79.16,43.34h50.87c54.08,0,79.52-16.48,79.52-55.16Z"/><path class="cls-3" d="M1036.16,297.27V251.42H867.8c-35.06,0-50.86,21.72-53.63,42.63,0,.24-.07.48-.1.72V251.42H764.63v45.85h271.53Z"/></g></g></g><g id="BOUNDING_RECT_1250x703_" data-name="BOUNDING RECT (1250x703)"><rect class="cls-1" width="1250" height="703"/></g></svg>