<svg xmlns="http://www.w3.org/2000/svg" xmlns:xlink="http://www.w3.org/1999/xlink" viewBox="0 0 1250 703"><defs><style>.cls-1{fill:none;}.cls-2{clip-path:url(#clip-path);}.cls-3{fill:#0076ce;}</style><clipPath id="clip-path"><rect class="cls-1" x="393.5" y="120" width="463" height="463"/></clipPath></defs><g id="LOGO"><g class="cls-2"><g class="cls-2"><path class="cls-3" d="M625,121.1c-127.3,0-230.4,103.1-230.4,230.4S497.7,581.9,625,581.9,855.4,478.8,855.4,351.5,752.3,121.1,625,121.1m0,437.8c-114.5,0-207.4-92.9-207.4-207.4S510.5,144.1,625,144.1,832.4,237,832.4,351.5,739.5,558.9,625,558.9M804.7,382.1v20.1H739.3V300.8h23v81.3ZM502.1,402.2a50.7,50.7,0,0,0,49.1-37.9l57.4,44.8L666,364.3v37.9h65.4V382.1H689V300.8H666v37.9l-55,43-12.3-9.6L625,351.5l28.7-22.4-16.4-12.8-55,43L570,349.7l55-43-16.4-12.8-57.4,44.8a50.7,50.7,0,0,0-49.1-37.9H461V402.2ZM484,382.1V320.9h18.1c15.3,0,27.7,13.7,27.7,30.6s-12.4,30.6-27.7,30.6Z"/></g></g></g><g id="BOUNDING_RECT_1250x703_" data-name="BOUNDING RECT (1250x703)"><rect class="cls-1" width="1250" height="703"/></g></svg>