<svg id="LOGO" xmlns="http://www.w3.org/2000/svg" xmlns:xlink="http://www.w3.org/1999/xlink" viewBox="0 0 1250 703"><defs><style>.cls-1{fill:none;}.cls-2{clip-path:url(#clip-path);}.cls-3{fill:#00b388;}</style><clipPath id="clip-path"><rect class="cls-1" x="96" y="7" width="1082" height="721.33"/></clipPath></defs><g class="cls-2"><path class="cls-3" d="M218.7,192.3V275H506.8V192.3Zm268,65.2H236.3V209.9H486.7Z"/><g class="cls-2"><path d="M236.3,410.2H218.7V327.6h17.6v32.6h32.5V327.6h17.6v82.6H268.8v-35H236.3Zm90.5,1.8c-18.2,0-30.6-11.5-30.6-30.4s12.1-31,28.2-31c17.6,0,26.3,11.7,27.1,29.3v5.3H313.2c2.1,10.4,9.2,12.8,16.4,12.8s10.7-1.4,16.2-5.3h.7v14.1c-4.8,3.4-11.5,5.2-19.7,5.2m-12.9-36.8h20.7c-.4-6.1-2.9-10.3-9.9-10.3-5.3,0-9.9,2.2-11.5,10.3m83.3,1.1-9.2,33.9H371.8L354,353.3v-.7h17l9.7,34.1,9.1-34.1h13.9l9.3,34.1,9.8-34.1h16.3v.7l-17.8,56.9H405.8ZM469.2,412c-14.2,0-20-5.7-20-19V327.6h17.5v62.9c0,4.1,1.7,5.5,5.4,5.5a14.9,14.9,0,0,0,4.3-.8h.3v15.7a21.4,21.4,0,0,1-6.6,1.1m41.8,0c-18.2,0-30.6-11.5-30.6-30.4s12.1-31,28.2-31c17.6,0,26.3,11.7,27.3,29.3v5.3H498.3c2.1,10.4,9.2,12.8,16.4,12.8s10.6-1.4,16.2-5.3h.9v14.1c-5,3.4-11.7,5.2-19.9,5.2m-12.7-36.8h20.5c-.4-6.1-2.9-10.3-9.9-10.3-5.3,0-9.9,2.2-11.5,10.3m108.6-25.1h12.6v15.1H606.9v23.4c0,5.1,2,7.4,7.1,7.4a14.5,14.5,0,0,0,5.1-.8h.4V409a34,34,0,0,1-10.6,1.7c-14,0-19.5-6.5-19.5-21.4V365.2H566.9v23.4c0,5.1,2,7.4,7.3,7.4a15.5,15.5,0,0,0,5.3-.8h-.1V409a28.1,28.1,0,0,1-9.7,1.7c-12.8,0-17.9-6.5-17.9-21.4V365.2h-10V350.1h7.5v-15h17.6v15h22.5v-15h17.5ZM710.7,355c0,17.9-12,27.7-30.3,27.7H667.1v27.5H649.5V327.6h30.9c18.3,0,30.3,9.8,30.3,28m-32.4,12.1c9,0,13.3-5.1,13.3-12.4s-4.3-12.7-13.3-12.7H667.1v25.1Zm68.9,37.1c-1.6,4.6-7.2,6.9-13.3,6.9-11.5,0-20.9-7-20.9-19.4s9.4-19.2,22.9-19.2a56.7,56.7,0,0,1,13.8,2v-1c-.7-6.4-4.3-9.1-13.7-9.1-5.9,0-16.5,5.2-16.5,5.2h.2V356.6c4.4-2.6,12.4-4.8,20.2-4.8,17.7,0,27.3,8.2,27.3,22.6v35.8h-20Zm2.5-12.1v-5.6c-2.6-1.4-6.1-1.9-9.6-1.9-5.7,0-9.1,2.1-9.1,6.8s3.4,7,8.5,7,8.6-2.5,10.2-6.8m25.6-10.7c0-18.8,13.3-30.7,30.7-30.7,6.2,0,12,1.3,16.3,4.5v14.9h-.6a21.8,21.8,0,0,0-13.5-4.6c-8.7,0-15.3,5.9-15.3,15.9s6.6,15.8,15.3,15.8a21.8,21.8,0,0,0,13.5-4.6h.6v14.9c-4.3,3.2-10.1,4.5-16.3,4.5-17.4,0-30.7-11.7-30.7-30.6m74.6,2.6v26.1H832.4V327.6h17.5v47.8l17.7-22.8h19.9v.7l-21.3,26.1,21.3,30.2v.6H867.4ZM925,404.8c-1.1,4.6-6.8,6.9-12.9,6.9-11.5,0-20.8-7-20.8-19.4s9.3-19.2,22.8-19.2a51.2,51.2,0,0,1,13.4,2v-1c-.3-6.4-3.9-9.1-13.3-9.1-5.9,0-16.5,5.2-16.5,5.2h-.2V356.6c4.5-2.6,12.4-4.8,20.2-4.8,17.7,0,27.4,8.2,27.4,22.6v35.8H925Zm2.5-12.1v-5.6a20.6,20.6,0,0,0-9.6-1.9c-5.7,0-9.1,2.1-9.1,6.8s3.4,7,8.6,7,8.6-2.5,10.1-6.8m47.6-30.1c3.2-6.4,7.9-10.1,14.4-10.1a15.3,15.3,0,0,1,5.7,1v17.2h-.7a21.1,21.1,0,0,0-7.9-1.4c-5.6,0-10,3.2-11.5,9.3v32.1H957.6V352.6h17.5Zm65.1,42.5c-3.3,4.7-9.1,7.4-17,7.4-15.1,0-24.7-13.8-24.7-30.7s9.6-30.7,24.7-30.7c7.6,0,19.6,6.7,19.6,6.7V327.6h15v82.6h-17.6Zm0-14.4V371.8a12.8,12.8,0,0,0-11-6c-7.7,0-12.8,5.5-12.8,15.5s5.1,15.5,12.8,15.5c4.3,0,8.1-1.9,11-6.1M218.7,437.8h50.1v10H228.7v25.1h35.1v10H228.7v27.5h40.1v10H218.7Zm92.4,23c13.1,0,20.3,8.6,20.3,22.7v36.9h-10V484.1c0-7.5-3.9-12.9-12.5-12.9a15.6,15.6,0,0,0-15,10.6v38.6H283.8V462.8h10.1v7.7a19.8,19.8,0,0,1,17.4-9.7m50.2,2h15v7.6h-15v31.8c0,6.7,3.4,9,9.7,9a12.6,12.6,0,0,0,4.9-.8h.4v9.4a15.8,15.8,0,0,1-6.6,1.2c-13.2,0-18.4-6.2-18.4-17.6V472.9H338.9V462.8h12.6v-15h10Zm49.9,58.5c-17,0-28.6-11.4-28.6-29.6s10.8-30.9,26.5-30.9,24.3,11.5,24.8,28.5v6.1H393.7c1.2,10.7,8.7,16.4,19.2,16.4a35.5,35.5,0,0,0,16.2-3.9h0v8.2c-4.4,3.7-10.6,5.2-17.7,5.2m-17.3-35.9H423c-.4-8.6-4.6-15.2-13.6-15.2s-13.7,6.2-15.3,15.2m62.6-14.2A15.2,15.2,0,0,1,471,462a17.3,17.3,0,0,1,5.7.8v10.1h-.4a16.7,16.7,0,0,0-6.8-1.1,13,13,0,0,0-12.8,9.7v38.9H446.6V462.8h10.1Zm57.4-9.5c15.8,0,24.3,14,24.3,30.1s-8.5,30.1-24.3,30.1a19,19,0,0,1-14.9-7.6V543h-10V462.8h10v6.6a18.5,18.5,0,0,1,14.9-7.7m-.5,49.7c10.9,0,17.2-8.6,17.2-20.4s-6.3-20.3-17.2-20.3a16.5,16.5,0,0,0-14.4,9.3v22.3a16.4,16.4,0,0,0,14.4,9.1m50.8-40.2a15.2,15.2,0,0,1,14.3-9.2,17.3,17.3,0,0,1,5.7.8v10.1H584a16.7,16.7,0,0,0-6.8-1.1,13,13,0,0,0-12.8,9.7v38.9H554.3V462.8h10.1Zm36.7-32.7a6.9,6.9,0,1,1-7,6.9,6.9,6.9,0,0,1,7-6.9m-4.2,24.3h10v57.6h-10ZM647,485.6c8.5,2.7,18,6.2,18,17.5s-10,18.4-22.9,18.4c-7.8,0-15.7-1.9-20.1-5.4V505.4h.5c5,4.6,12.5,6.6,19.5,6.6s12.1-2.4,12.1-7.5-4.8-6.5-14.1-9.6-17.8-5.8-17.8-17,9.5-18.2,21.6-18.2c7,0,13.2,1.5,18.2,4.9v10.8h-.4a26.9,26.9,0,0,0-17.6-6.2c-7,0-10.9,3.1-10.9,7.2s4.3,6.1,13.9,9.2m54.5,35.7c-17.1,0-28.7-11.4-28.7-29.6s10.8-30.9,26.5-30.9,24.3,11.5,25.4,28.5v6.1H683.8c1.1,10.7,8.7,16.4,19.1,16.4a35.2,35.2,0,0,0,16.2-3.9h.6v8.2c-4.9,3.7-11.1,5.2-18.2,5.2m-16.9-35.9h28.5c-.4-8.6-4.7-15.2-13.6-15.2s-13.8,6.2-15.3,15.2"/></g></g></svg>