<svg xmlns="http://www.w3.org/2000/svg" xmlns:xlink="http://www.w3.org/1999/xlink" viewBox="0 0 1250 703"><defs><style>.cls-1{fill:none;}.cls-2{clip-path:url(#clip-path);}.cls-3{fill:#e50013;}</style><clipPath id="clip-path"><rect class="cls-1" x="24" y="134" width="1210" height="435.65"/></clipPath></defs><g id="LOGO"><g class="cls-2"><rect class="cls-3" x="167.79" y="278.8" width="38.68" height="144.92"/><g class="cls-2"><path class="cls-3" d="M453.8,297.64,417.85,394.9l-35.94-97.26H339.32s26.17,72.27,32,88c10.16,26.52,16.8,40.74,37.9,40.74,18.75,0,23.44-11.15,34.38-40.74,6.65-18.45,32.43-88,32.43-88Z"/><path class="cls-3" d="M281.1,295c-36.33,0-63.69,21.15-63.69,58.43v70.35h38.68V347.62c0-20.38,8.21-33.45,25-33.45s25,13.07,25,33.45v76.11h38.69V353.38c0-37.28-27.36-58.43-63.69-58.43"/><path class="cls-3" d="M574.92,360.68c0,25.76-13.28,46.52-34.76,46.52-21.89,0-35.17-20.76-35.17-46.52s12.89-46.51,34-46.51c14.45,0,23.83,8.84,29.3,23.06l-47.66,21.91,7.81,16.53,79.32-36.51C598,313.4,571,295.34,539.76,295c-40.63.39-73.45,29.59-73.45,65.73,0,36.52,32.82,65.73,73.85,65.73,40.63,0,73.45-29.21,73.45-65.73Z"/><path class="cls-3" d="M1088.73,314.17V295h-27c-44.55,0-81.67,26.14-81.67,65.73s37.12,65.73,81.67,65.73h27V407.2h-18.36c-31.65,0-50-15.39-50-46.52s18.37-46.51,50-46.51Z"/><path class="cls-3" d="M799.6,376.06v-59.2h38.69V297.64H799.6V278.8H760.52v99.56c0,28.84,12.9,46.13,52,46.13h25.79V405.66h-7.44c-25.78,0-31.25-5.39-31.25-29.6"/><path class="cls-3" d="M685.9,295c-36.35,0-63.3,21.15-63.3,58.43v70.35h38.68V347.62c0-20.38,8.2-33.45,24.62-33.45,16.79,0,25,13.07,25,33.45v76.11h38.68V353.38c0-37.28-27-58.43-63.68-58.43"/><path class="cls-3" d="M936,360.68c0,25.76-13.29,46.52-35.17,46.52S866,386.44,866,360.68s12.89-46.51,34-46.51c14.05,0,23.43,8.84,29.3,23.06l-48.06,21.91,7.81,16.53,79.71-36.51C958.62,313.4,932.05,295.34,900.4,295c-40.64.39-73.07,29.59-73.07,65.73,0,36.52,32.83,65.73,73.46,65.73s73.86-29.21,73.86-65.73Z"/></g></g></g><g id="BOUNDING_RECT_1250x703_" data-name="BOUNDING RECT (1250x703)"><rect class="cls-1" width="1250" height="703"/></g></svg>