<svg xmlns="http://www.w3.org/2000/svg" xmlns:xlink="http://www.w3.org/1999/xlink" viewBox="0 0 1250 703"><defs><style>.cls-1{fill:none;}.cls-2{clip-path:url(#clip-path);}.cls-3{fill:#e1251b;}.cls-4{fill:#fff;}</style><clipPath id="clip-path"><rect class="cls-1" x="262.1" y="230.5" width="725.9" height="242"/></clipPath></defs><g id="LOGO"><g class="cls-2"><polygon class="cls-3" points="262 472.5 988 472.5 988 230.5 262 230.5 262 472.5 262 472.5"/></g><path class="cls-4" d="M578.3,312.1c-10.7,0-22.9,4.9-30.4,14.9h0V313.6H522.3v93.2h25.6v-53c0-9.6,7.4-19.7,21.1-19.7,10.6,0,21.5,7.3,21.5,19.7v53h25.6V349c0-21.4-15.3-36.9-37.8-36.9"/><polygon class="cls-4" points="797.9 313.6 774.8 377.1 751.6 313.6 722.4 313.6 760.8 406.7 788.8 406.7 827.1 313.6 797.9 313.6 797.9 313.6"/><path class="cls-4" d="M446,341.7c4.3-5.9,11.3-9.3,19.7-9.3s16.2,5.3,19.8,13L440.8,364c-1.2-9.5,1.2-17,5.2-22.3Zm49.1,36.4c-10.7,8-16.9,9.9-26.7,9.9s-15.8-2.7-20.6-7.6l65.4-27.1c-1.5-10.1-5.3-19.1-11.2-26-8.6-10-21.3-15.2-36.8-15.2-28.1,0-49.3,20.7-49.3,48.1s21.2,48.1,52.1,48.1c17.3,0,35-8.2,43.3-17.7l-16.2-12.5Z"/><polygon class="cls-4" points="413.4 383.3 355.3 383.3 355.3 285.8 329.4 285.8 329.4 406.8 413.4 406.8 413.4 383.3 413.4 383.3"/><path class="cls-4" d="M873,334c-14.3,0-24.6,10.8-24.6,26.2s11,26.2,25,26.2S898,375.3,898,360.2,887,334,873,334m0,74.3c-27.9,0-49.9-20.8-49.9-48.1s22.1-48.1,50.3-48.1,49.9,20.8,49.9,48.1-22.1,48.1-50.3,48.1"/><path class="cls-4" d="M676.1,334c-14.3,0-24.6,10.8-24.6,26.2s10.9,26.2,25,26.2,24.6-11.1,24.6-26.2-11-26.2-25-26.2m0,74.3c-28,0-49.9-20.8-49.9-48.1s22.1-48.1,50.3-48.1,49.8,20.8,49.8,48.1-22,48.1-50.2,48.1"/></g><g id="BOUNDING_RECT_1250x703_" data-name="BOUNDING RECT (1250x703)"><rect class="cls-1" width="1250" height="703"/></g></svg>