<svg id="LOGO" xmlns="http://www.w3.org/2000/svg" viewBox="0 0 1250 703"><defs><style>.cls-1{fill:#225993;}.cls-2{fill:#2194ce;}.cls-3{fill:#86c449;}.cls-4{fill:#f89f32;}</style></defs><title>quanta-cloud-technology-logo</title><path class="cls-1" d="M591.072,391.43V391c0-41.307,32.6-75.15,77.459-75.15s77,33.437,77,74.754v.4a74.5,74.5,0,0,1-12.865,41.741l7.054,6.227A15.67,15.67,0,0,1,745.534,451,14.988,14.988,0,0,1,719.979,461.8l-8.679-8.1a79.156,79.156,0,0,1-43.2,12.458c-44.853,0-77.032-33.416-77.032-74.725m75.577,16.4A15.07,15.07,0,0,1,681.6,392.659c4.36,0,7.265,1.471,10.582,4.376l15.983,14.325a50.819,50.819,0,0,0,3.936-19.93V391c0-24.886-18.243-45.657-44-45.657s-43.57,20.334-43.57,45.261v.4c0,24.917,18.237,45.69,44,45.69a43.448,43.448,0,0,0,19.07-3.949L672.5,419.874a15.64,15.64,0,0,1-5.846-12.047"/><path class="cls-1" d="M765.334,391.43V391c0-41.343,31.164-75.222,75.905-75.222,21.794,0,36.517,5.815,48.613,14.757a16.1,16.1,0,0,1,6.211,12.684,15.632,15.632,0,0,1-15.8,15.584,16.8,16.8,0,0,1-9.554-3.116c-8.936-6.655-18.263-10.38-29.709-10.38-24.536,0-42.193,20.345-42.193,45.287V391c0,24.948,17.245,45.741,42.193,45.741,13.5,0,22.449-4.17,31.6-11.44a14.765,14.765,0,0,1,9.52-3.543,14.786,14.786,0,0,1,9.6,26.187c-13.1,11.435-28.481,18.284-51.77,18.284-42.808,0-74.615-33.041-74.615-74.8"/><path class="cls-1" d="M962.232,345.855H930.9a15.04,15.04,0,1,1,0-30.079H1025a15.04,15.04,0,1,1,0,30.079H994.851v103.98a16.31,16.31,0,1,1-32.619,0V345.855Z"/><path class="cls-1" d="M1007.043,289.712h-5.235a1.358,1.358,0,0,1-1.321-1.316,1.381,1.381,0,0,1,1.321-1.332h13.2a1.346,1.346,0,0,1,1.327,1.332,1.324,1.324,0,0,1-1.327,1.316h-5.18v15.724a1.418,1.418,0,0,1-1.463,1.393,1.347,1.347,0,0,1-1.321-1.393V289.712Zm13.322-1.316a1.332,1.332,0,0,1,1.388-1.393h.386a1.453,1.453,0,0,1,1.254.707l6.813,10.594,6.957-10.594a1.416,1.416,0,0,1,1.188-.707h.39a1.4,1.4,0,0,1,1.317,1.393v17.04a1.406,1.406,0,0,1-1.384,1.393,1.341,1.341,0,0,1-1.326-1.393V292.317l-5.862,8.769a1.484,1.484,0,0,1-1.28.823,1.446,1.446,0,0,1-1.254-.823l-5.811-8.769v13.119a1.388,1.388,0,1,1-2.776,0V288.4Z"/><polygon class="cls-1" points="492.052 355.51 452.435 355.51 452.435 315.894 492.052 315.894 492.052 355.51 492.052 355.51"/><path class="cls-1" d="M506.068,355.505H492.052v27.709h3.491c15.366,0,27.874,11.821,27.874,27.2a27.913,27.913,0,0,1-27.874,27.878H277.291a39.306,39.306,0,1,1,.186-78.612h.01l16.416.3-1.736-15.84a52.364,52.364,0,0,1-.341-5.924,54.271,54.271,0,0,1,37.2-51.432v.036q2.013-.672,4.088-1.188c.03,0,.053-.008.08-.015,1.226-.309,2.474-.556,3.728-.777.473-.077.96-.149,1.437-.221.984-.144,1.972-.278,2.972-.37q1.95-.17,3.951-.2c.274,0,.542-.035.814-.035a54.34,54.34,0,0,1,6.021.354c.168.026.344.044.515.062a54.079,54.079,0,0,1,17.67,5.363v-.057A54.338,54.338,0,0,1,395.6,315.9h24.7v-.008h32.125V291.856H414.067a82.609,82.609,0,0,0-61.554-35.606c-.116-.015-.229-.023-.347-.036-1.981-.139-3.966-.237-5.971-.237h-.161c-.068,0-.132.011-.2.011-2.3,0-4.577.131-6.842.334-.529.041-1.071.077-1.6.128-1.914.206-3.8.5-5.687.839-.868.149-1.732.3-2.6.483l-.074.015h0a82.375,82.375,0,0,0-65.077,75.173,67.352,67.352,0,0,0,13.338,133.37H495.543a55.98,55.98,0,0,0,55.913-55.916c0-25.406-19.571-49.958-45.388-54.909"/><polygon class="cls-2" points="531.643 315.904 492.029 315.904 492.029 276.287 531.643 276.287 531.643 315.904 531.643 315.904"/><polygon class="cls-3" points="531.646 355.515 571.263 355.515 571.263 315.904 531.646 315.904 531.646 355.515 531.646 355.515"/><polygon class="cls-4" points="531.646 276.287 571.263 276.287 571.263 236.67 531.646 236.67 531.646 276.287 531.646 276.287"/></svg>