<svg id="LOGO" xmlns="http://www.w3.org/2000/svg" xmlns:xlink="http://www.w3.org/1999/xlink" viewBox="0 0 1250 703"><defs><style>.cls-1{fill:none;}.cls-2{clip-path:url(#clip-path);}.cls-3{fill:#006c92;}.cls-4{fill:#8ed300;}</style><clipPath id="clip-path"><rect class="cls-1" x="107" y="111.5" width="1042.5" height="448.51"/></clipPath></defs><g class="cls-2"><polygon class="cls-3" points="798.3 423.3 749.1 509.6 719.6 509.6 714.3 458.3 713.9 458.3 685.3 509.6 655.4 509.6 642.3 423.3 672.1 423.3 675.3 477.8 675.6 477.8 705.5 423.3 735.4 423.3 740.3 477.1 740.6 477.1 764.3 423.3 798.3 423.3"/><g class="cls-2"><path class="cls-3" d="M939,436.6c9.1-10.2,20.2-15.3,33.4-15.3,7.8,0,13.7,2,17.6,6a20.2,20.2,0,0,1,5.8,14.7c0,3.4-1.1,10.3-3.2,20.5l-10,47.1H949.4l8.5-40.1c2.1-9.8,3.1-15.5,3.1-16.9,0-4.7-2.2-7.1-6.5-7.1s-9.2,2.3-12.8,6.9-6.4,11.1-8.2,19.8l-8.2,37.4H892l18.5-86.3h31.1l-2.9,13Z"/><path class="cls-3" d="M1041.3,436.6c9.2-10.2,20.3-15.3,33.4-15.3,7.8,0,13.7,2,17.6,6a20.2,20.2,0,0,1,5.8,14.7c0,3.4-1,10.3-3.2,20.5l-10,47.1h-33.2l8.5-40.1c2.1-9.8,3.1-15.5,3.1-16.9,0-4.7-2.1-7.1-6.5-7.1s-9.1,2.3-12.8,6.9-6.4,11.1-8.2,19.8l-8.1,37.4H994.3l18.6-86.3h31l-2.9,13Z"/><polygon class="cls-3" points="594.1 423.3 544.9 509.6 515.5 509.6 510.1 458.3 509.8 458.3 481.1 509.6 451.3 509.6 438.2 423.3 467.9 423.3 471.1 477.8 471.4 477.8 501.3 423.3 531.3 423.3 536.2 477.1 536.5 477.1 560.2 423.3 594.1 423.3"/><path class="cls-3" d="M621,414.2c-10.9,0-17.5-8.1-15.8-18s11.3-18,22.1-18,16.9,7.8,15.2,18-11.6,18-21.5,18"/><polygon class="cls-4" points="870.6 423 842.2 473 837.3 423.3 804.7 423.3 821 510.4 798.4 550.2 832.4 550.2 904.5 423 870.6 423"/><polygon class="cls-4" points="617.6 509.5 581.8 509.5 600.3 423.3 636.1 423.3 617.6 509.5"/><path class="cls-3" d="M1113.7,383.5a16.8,16.8,0,0,1,7.8,2,14.7,14.7,0,0,1,5.8,5.8,16.4,16.4,0,0,1,2.1,7.9,15.1,15.1,0,0,1-2,7.8,15.6,15.6,0,0,1-5.8,5.9,16.4,16.4,0,0,1-15.7,0,15,15,0,0,1-5.8-5.9,15.2,15.2,0,0,1-2.1-7.8,15.5,15.5,0,0,1,2.2-7.9,14.7,14.7,0,0,1,5.8-5.8,16.7,16.7,0,0,1,7.7-2m.1,3.1a12.8,12.8,0,0,0-6.3,1.6,11.6,11.6,0,0,0-4.6,4.7,11.9,11.9,0,0,0-1.7,6.3,12.8,12.8,0,0,0,1.6,6.3,11.8,11.8,0,0,0,4.7,4.7,12.9,12.9,0,0,0,6.3,1.7,12.3,12.3,0,0,0,6.2-1.7,11.8,11.8,0,0,0,4.7-4.7,12.5,12.5,0,0,0,0-12.6,11.8,11.8,0,0,0-4.7-4.7,12.7,12.7,0,0,0-6.2-1.6m-7.2,21V391h8.8a5.8,5.8,0,0,1,2.6.7,3.4,3.4,0,0,1,1.5,1.6,4.8,4.8,0,0,1,.7,2.4,4.1,4.1,0,0,1-1.2,3,5.2,5.2,0,0,1-3.3,1.6,2.3,2.3,0,0,1,1.1.7l1.2,1.2,1.2,2.1,2,3.3H1117l-1.4-2.7a11,11,0,0,0-2.4-3.4,3.3,3.3,0,0,0-2.3-.7h-.9v6.8Zm3.4-9.4h1.4a11.8,11.8,0,0,0,3.6-.3,2,2,0,0,0,1.2-.8,2.5,2.5,0,0,0,.4-1.2,2.8,2.8,0,0,0-.4-1.3,3.6,3.6,0,0,0-1.2-.8,22.4,22.4,0,0,0-3.6-.2H1110Z"/><path class="cls-3" d="M344.5,226.3c-3.6-23.8-29.5-25.6-29.5-25.6H278.8L303,360.3l48.8-86Z"/><path class="cls-3" d="M246.5,226.3c-3.6-23.8-29.5-25.6-29.5-25.6H180.8l23.3,153.6h.1s3.8,25.6,29.4,25.6H270Z"/><path class="cls-3" d="M148.8,413.9c27.1,27.7,72.5,38.8,123.9,34.3l22.4-39.4c-50.9,7.9-96.3-.6-121.3-26.6-27-28.2-24.1-70.4,2.4-112.1l-3.8-24.9c-52.1,59.8-64.3,127-23.6,168.7"/><path class="cls-3" d="M450.6,134.5c-61.8-11.2-144.4,8.4-215.2,55.9a44.7,44.7,0,0,1,12.6,8.2l7.4-5C318.5,153,391,136.4,443.9,146.3a117.4,117.4,0,0,1,15,3.7l6.8-12a144.4,144.4,0,0,0-15.1-3.5"/><path class="cls-3" d="M518.5,168.5l-10.2,18a68.2,68.2,0,0,1,6.6,16.1c11.4,44.4-21,103.7-84.9,149.6l-32.6,57.6a350.2,350.2,0,0,0,33-19.7c93.9-63,134.1-153.1,97.2-210a81.3,81.3,0,0,0-9.1-11.6"/><path class="cls-4" d="M517,166.7c-13.2-13.5-30.8-23-51.3-28.7l-6.8,12-204,359.6h70.2L508.3,186.5l10.2-18-1.5-1.8"/></g></g></svg>