<?xml version="1.0" encoding="utf-8"?>
<!-- Generator: Adobe Illustrator 23.0.3, SVG Export Plug-In . SVG Version: 6.00 Build 0)  -->
<svg version="1.1" id="Layer_1" xmlns="http://www.w3.org/2000/svg" xmlns:xlink="http://www.w3.org/1999/xlink" x="0px" y="0px"
	 viewBox="0 0 1250 703" style="enable-background:new 0 0 1250 703;" xml:space="preserve">
<style type="text/css">
	.st0{fill:#53B052;}
	.st1{fill:#017D4A;}
	.st2{fill:#90CB83;}
	.st3{fill:#509049;}
	.st4{fill:#3A3A3A;}
</style>
<title>nvidia-partner-scalematrix-logo</title>
<g id="LOGO">
	<g id="SCALEMATRIX">
		<g>
			<g>
				<polygon class="st0" points="156.7,327.6 159.1,329.4 159.4,329.2 168.6,322.3 166.2,320.5 166.1,320.5 147.1,306.4 
					147.1,320.5 147.1,320.5 				"/>
				<polygon class="st1" points="125.5,350.5 125.5,350.5 125.5,350.5 				"/>
				<polygon class="st0" points="206.6,318.6 168.5,290.6 168.5,290.6 168.5,318.7 187.5,332.7 187.5,332.7 192.5,336.4 
					192.7,336.2 211.6,322.3 				"/>
				<polygon class="st0" points="211.3,259.1 211.3,315.1 259.1,350.4 297.1,322.3 				"/>
				<polygon class="st2" points="259.1,350.4 211.3,385.8 211.3,441.8 297.1,378.5 				"/>
				<polygon class="st2" points="192.6,336.5 192.5,336.4 168.8,354 168.5,354.1 168.5,354.1 187.5,368.2 211.6,350.5 				"/>
				<polygon class="st2" points="147.1,320.5 147.1,306.4 166.1,320.5 166.2,320.5 168.6,318.8 168.5,318.7 168.5,290.6 
					125.5,322.3 125.5,322.3 125.5,322.3 125.5,322.3 125.5,322.3 135,329.4 135.1,329.4 147.1,320.5 				"/>
				<polygon class="st2" points="159.1,329.4 147.4,338.1 147.4,338.1 147.3,338.1 147.1,338.3 147.1,338.3 156.6,345.3 
					156.9,345.2 168.6,336.4 				"/>
				<polygon class="st2" points="211.3,315.1 211.3,259.1 168.5,290.6 206.6,318.6 				"/>
				<polygon class="st3" points="192.5,336.4 192.6,336.5 211.6,350.5 211.6,322.3 192.8,336.2 				"/>
				<polygon class="st3" points="259.1,350.4 297.1,378.5 297.1,322.3 				"/>
				<polygon class="st3" points="211.3,385.8 211.3,441.8 125.5,378.5 125.5,322.3 				"/>
				<polygon class="st3" points="159.4,329.2 159.1,329.4 168.6,336.4 168.6,322.3 159.4,329.2 				"/>
				<g>
					<g>
						<path class="st4" d="M382.9,372.7l8.3-11.8c5.2,5.2,12.2,8.1,19.5,8.1c5.4,0,8.7-2.1,8.7-5c0-8.3-34.6-1.6-34.6-25.2
							c0-10.3,8.7-19.4,24.4-19.4c9.8,0,18.3,2.9,24.8,8.5l-8.6,11.3c-5.1-4.1-11.4-6.3-17.9-6.3c-4.6,0-6.6,1.8-6.6,4.4
							c0,7.8,34.5,2.1,34.5,24.8c0,12.3-9.1,20.4-25.5,20.4C397.7,382.5,389,378.7,382.9,372.7"/>
						<path class="st4" d="M449.9,350.8c0-18.9,14.3-31.6,33.1-31.6c14.8,0,22.6,8.3,26.7,16.4l-13.6,6.4c-2.3-5.2-7.3-8.7-13.1-8.9
							c-10,0-17,7.7-17,17.7s7.1,17.7,17,17.7c5.7-0.1,10.9-3.6,13.1-8.9l13.5,6.4c-3.9,7.9-11.9,16.4-26.7,16.4
							C464.2,382.4,449.9,369.6,449.9,350.8"/>
						<path class="st4" d="M571.6,381.3l-3-8.8h-24.1l-3,8.8h-17.9l23-61.1h19.8l23.1,61.1H571.6z M556.4,335.8l-7.8,23h15.6
							L556.4,335.8z"/>
						<polygon class="st4" points="608.1,381.3 608.1,320.2 623.9,320.2 623.9,367.6 648.4,367.6 648.4,381.3 						"/>
						<polygon class="st4" points="668.8,381.3 668.8,320.2 713.6,320.2 713.6,334 684.5,334 684.5,343.5 712.9,343.5 712.9,357.2 
							684.5,357.2 684.5,367.6 713.6,367.6 713.6,381.3 						"/>
						<polygon class="st4" points="797.9,381.3 797.9,331 777.1,381.3 774,381.3 753.2,331 753.2,381.3 745.7,381.3 745.7,320.2 
							756.5,320.2 775.5,366.2 794.6,320.2 805.5,320.2 805.5,381.3 						"/>
						<path class="st4" d="M874.9,381.3l-5.4-13.6h-30.4l-5.4,13.6H825l24.6-61.1h9.4l24.7,61.1H874.9z M854.3,328.1l-13,32.9h25.9
							L854.3,328.1z"/>
						<polygon class="st4" points="911.5,381.3 911.5,327 892.2,327 892.2,320.2 938.5,320.2 938.5,327 919.1,327 919.1,381.3 
													"/>
						<path class="st4" d="M993.3,381.3L977.7,357h-12.2v24.3h-7.6v-61.1h24.5c11.2,0,19.2,7.1,19.2,18.4c0,11-7.5,17-15.8,17.8
							l16.5,24.9L993.3,381.3z M993.8,338.6c0-6.9-4.9-11.6-12.2-11.6h-16v23.4h16C988.8,350.3,993.8,345.5,993.8,338.6"/>
						<rect x="1026.1" y="320.2" class="st4" width="7.6" height="61.1"/>
						<polygon class="st4" points="1103.8,381.3 1084.3,355.3 1064.8,381.3 1055.6,381.3 1079.4,350 1056.9,320.2 1066.2,320.2 
							1084.3,344.7 1102.4,320.2 1111.6,320.2 1089.3,349.9 1113,381.3 						"/>
					</g>
				</g>
			</g>
		</g>
	</g>
</g>
</svg>
