<svg id="logo" xmlns="http://www.w3.org/2000/svg" viewBox="0 0 267 150"><defs><style>.cls-1{fill:#e04245;}</style></defs><g id="LOGO-2" data-name="LOGO"><path class="cls-1" d="M119.81,44.35a7.52,7.52,0,0,0-4.91-1.58,7.87,7.87,0,0,0-7.9,7.9h0a7.87,7.87,0,0,0,7.9,7.9A8.11,8.11,0,0,0,121,55.76V51.37a7.87,7.87,0,0,1-3.86,3.69,5.42,5.42,0,0,1-2.28.53A4.81,4.81,0,0,1,110,50.67h0a4.91,4.91,0,0,1,4.92-4.91h0a4.9,4.9,0,0,1,3.51,1.4c.87.88,2.45,2.81,3.16,3.51a9.75,9.75,0,0,0,13.86.53,10.11,10.11,0,0,0,3.16-7.2,10,10,0,0,0-9.83-10A9.8,9.8,0,0,0,121,37.86V44c1.4-3.68,3.86-6.67,7.72-6.67a6.86,6.86,0,0,1,6.85,6.85,6.86,6.86,0,0,1-11.24,5.26c-1.4-1.4-3-3.86-4.56-5.09"/><path class="cls-1" d="M55.4,60.68H77.17v6a4.15,4.15,0,0,0-3.51-2.45h-10V74.54H74.53V80s-.35-1.76-3-1.76h-7.9V92.44c0,2.11,2.28,3.33,2.28,3.33H55.58a4,4,0,0,0,2.11-3.33V64.36c0-2.28-2.29-3.68-2.29-3.68"/><path class="cls-1" d="M110,60.68H121s-2.46,1.22-2.46,3.15V97c0,11.23-11.23,13.16-11.76,13,.88-.7,5.62-4.56,5.62-13V63.83c-.17-1.93-2.46-3.15-2.46-3.15"/><path class="cls-1" d="M122.62,60.68h11.06s-2.46,1.22-2.46,3.15v29c0,2.11,2.46,3.34,2.46,3.34H122.62s2.46-1.23,2.46-3.34v-29c0-1.93-2.46-3.15-2.46-3.15"/><path class="cls-1" d="M135.78,60.68h24.4l-2.11,6.49s-.7-2.63-3-2.63H150V93c0,1.75,2.45,3.33,2.45,3.33H141.57s2.28-1.4,2.28-3.33V64.36h-6.14c-1.75,0-4.21,3.16-4.21,3.16l2.28-6.84"/><path class="cls-1" d="M200.89,60.68H211.6s-2.29,1.22-2.29,3.15V85.24c0,8.78-7.19,11.41-12.28,11.41-4.91,0-12.81-2.63-12.81-11.41V63.83c0-1.93-2.28-3.15-2.28-3.15H193s-2.45,1.22-2.45,3.15V85.24c0,4.57,3,7.55,6.66,7.55,3.51,0,6.32-3.16,6.32-7.55V63.83c-.17-1.93-2.63-3.15-2.63-3.15"/><path class="cls-1" d="M97.17,60.68h10.88s-2.28,1.22-2.28,3.15V85.24c0,8.78-7.54,11.59-12.63,11.59-4.92,0-12.82-2.81-12.82-11.59V63.83c0-1.93-2.28-3.15-2.28-3.15H88.92s-2.45,1.22-2.45,3.15V85.24c0,4.57,3,7.73,6.49,7.73s6.32-3.16,6.32-7.73V63.83c.17-1.93-2.11-3.15-2.11-3.15"/><path class="cls-1" d="M178.6,66.29s-1.58-2.63-6-2.63-6.85,2.28-6.85,5.44c0,3.51,2.63,4.74,6.49,6.67,3.87,1.75,9.48,4.39,9.48,10.7,0,5.62-5.09,10.36-14,10.36a37.17,37.17,0,0,1-6.67-.88L159,89.11A13.15,13.15,0,0,0,167.72,93c3.69,0,7.9-2.28,7.9-5.79,0-7-16.15-5.8-16.15-17.38,0-4,2.81-9.83,12.46-9.83a32.15,32.15,0,0,1,6.67.88v5.44"/></g></svg>