<svg xmlns="http://www.w3.org/2000/svg" width="48" height="48" viewBox="0 0 48 48">
  <g id="Group_11916" data-name="Group 11916" transform="translate(-17517.998 14053)">
    <ellipse id="Oval" cx="24" cy="24" rx="24" ry="24" transform="translate(17517.998 -14053)" fill="#007ab7"/>
    <path id="Linkedin" d="M18.239,23V15.532c0-1.785-.027-4.076-2.474-4.076-2.483,0-2.854,1.945-2.854,3.943V23H8.148V7.637h4.558v2.1h.062a5.007,5.007,0,0,1,4.513-2.477C22.1,7.264,23,10.443,23,14.582V23Zm-13.1,0H.373V7.637h4.77V23h0Zm3-15.363h.009ZM0,2.771a2.766,2.766,0,1,1,2.766,2.77A2.772,2.772,0,0,1,0,2.771Z" transform="translate(17530.5 -14041.5)" fill="#fff"/>
  </g>
</svg>
