<svg xmlns="http://www.w3.org/2000/svg" width="48" height="48" viewBox="0 0 48 48">
  <g id="Group_11918" data-name="Group 11918" transform="translate(-17734 14053)">
    <circle id="Ellipse_102" data-name="Ellipse 102" cx="24" cy="24" r="24" transform="translate(17734 -14053)" fill="#666"/>
    <path id="link_FILL0_wght700_GRAD0_opsz40" d="M12.864,23.256H8.552a6.156,6.156,0,0,1-4.523-1.862,6.158,6.158,0,0,1-1.862-4.523,6.2,6.2,0,0,1,1.862-4.537,6.133,6.133,0,0,1,4.523-1.877h4.312v2.969H8.552a3.4,3.4,0,0,0-3.445,3.445,3.4,3.4,0,0,0,3.445,3.445h4.312Zm-3.64-5.265V15.751h9.857v2.241Zm6.217,5.265V20.316h4.312A3.4,3.4,0,0,0,23.2,16.871a3.4,3.4,0,0,0-3.445-3.445H15.441V10.458h4.312a6.407,6.407,0,0,1,6.413,6.413,6.134,6.134,0,0,1-1.877,4.523,6.2,6.2,0,0,1-4.537,1.862Z" transform="translate(17743.834 -14045.457)" fill="#fff"/>
  </g>
</svg>
