<svg xmlns="http://www.w3.org/2000/svg" width="48" height="48" viewBox="0 0 48 48">
  <g id="Group_11915" data-name="Group 11915" transform="translate(-17409 14053)">
    <path id="Oval" d="M24,0A24,24,0,1,1,0,24,24,24,0,0,1,24,0Z" transform="translate(17409 -14053)" fill="#1877f2"/>
    <path id="Path_4947" data-name="Path 4947" d="M314.915,214.515l.716-4.67H311.15v-3.029a2.336,2.336,0,0,1,2.633-2.524h2.037v-3.976A24.842,24.842,0,0,0,312.2,200c-3.69,0-6.1,2.237-6.1,6.285v3.559H302v4.67h4.1V225.8a16.332,16.332,0,0,0,5.049,0V214.515Z" transform="translate(17124 -14242)" fill="#fff"/>
  </g>
</svg>
