<?xml version="1.0" encoding="utf-8"?>
<!-- Generator: Adobe Illustrator 26.4.1, SVG Export Plug-In . SVG Version: 6.00 Build 0)  -->
<svg version="1.1" id="Layer_1" xmlns="http://www.w3.org/2000/svg" xmlns:xlink="http://www.w3.org/1999/xlink" x="0px" y="0px"
	 viewBox="0 0 1250 703" style="enable-background:new 0 0 1250 703;" xml:space="preserve">
<style type="text/css">
	.st0{fill:#002B5C;}
	.st1{fill:#939598;}
	.st2{fill:#F58025;}
</style>
<g id="Layer_2_00000093875331148089687570000007977844205290054549_">
	<g id="Layer_1-2">
		<path class="st0" d="M302.1,268h34.2l65.3,160.8h-37.8L350.9,395h-64.8L273,428.8h-36.2L302.1,268z M297,367.4h43.3l-6.7-18.1
			c-4.7-12.7-10.4-28.7-14.6-40.9h-0.3c-4.2,12.2-10,28.2-15.1,41.8L297,367.4z M411.7,351.9V268h35.1v82.4c0,33.7,7.5,49,35.5,49
			c25.8,0,35.1-14.2,35.1-48.8V268h34v82.8c0,24.2-3.3,41.8-12.5,54.6c-11.3,16.2-32,25.7-57.7,25.7s-46.8-9.5-58-26.2
			c-8.2-12.9-11.5-30.4-11.5-53.3V351.9z M579.6,268h46.8c46.4,0,67,14.2,67,40.9c0,16.4-9.5,26.6-24.2,31.9v0.5
			c20.6,5.8,30.6,19.8,30.6,38.8c0,30.2-23.4,48.7-72.6,48.7h-47.7V268z M633.5,334.6c14.7,0,24.7-5.8,24.7-18.2
			s-7.8-18.2-32.5-18.2h-10.9v36.4H633.5z M627.6,398.5c29.2,0,36.7-5.8,36.7-19.9s-10.2-19.8-28.7-19.8h-20.8v39.7H627.6z"/>
		<path class="st1" d="M731.3,428.8V319.5h26.8v82.3C748.7,410.2,739.7,419.2,731.3,428.8z M834.6,344.4L815.8,320h-32.2l29.5,37.6
			C819.9,353.1,827.1,348.6,834.6,344.4z M744.6,301.9c9.1,0,16.5-7.3,16.6-16.4c0-9.2-7.4-16.6-16.6-16.6
			c-9.2,0-16.6,7.4-16.6,16.6C728.1,294.7,735.5,302,744.6,301.9C744.6,301.9,744.6,301.9,744.6,301.9z M842,394.4l27,34.3h31.9
			l-37.4-47.5C856.7,385.3,849.3,389.8,842,394.4z"/>
		<path class="st2" d="M687.1,518c141.9-185.7,326.1-208.7,326.1-208.7C775.2,311.5,687.1,518,687.1,518z"/>
	</g>
</g>
</svg>
