<?xml version="1.0" encoding="utf-8"?>
<!-- Generator: Adobe Illustrator 27.1.1, SVG Export Plug-In . SVG Version: 6.00 Build 0)  -->
<svg version="1.1" id="Art_3.0" xmlns="http://www.w3.org/2000/svg" xmlns:xlink="http://www.w3.org/1999/xlink" x="0px" y="0px"
	 viewBox="0 0 48 48" style="enable-background:new 0 0 48 48;" xml:space="preserve">
<style type="text/css">
	.st0{fill:#FFFFFF;}
	.st1{fill:#FFFFFF;fill-opacity:0;}
</style>
<g>
	<path class="st0" d="M42.5,33.5v-23h-37v23h14.84717l-0.80365,3H16.5v1h14.99902v-1H28.4555l-0.80408-3
		C27.65142,33.5,42.49999,33.5,42.5,33.5z M6.5,11.5h35v21h-35V11.5z M27.42004,36.5h-6.84119l0.80347-3h5.23389L27.42004,36.5z"/>
	<path class="st0" d="M24,25.5c3.03271,0,5.5-2.46729,5.5-5.5s-2.46729-5.5-5.5-5.5s-5.5,2.46729-5.5,5.5S20.96729,25.5,24,25.5z
		 M24,15.5c2.48145,0,4.5,2.01855,4.5,4.5s-2.01855,4.5-4.5,4.5s-4.5-2.01855-4.5-4.5S21.51855,15.5,24,15.5z"/>
	<polygon class="st0" points="15.5,25.5 14.5,25.5 14.5,26.5 12.5,26.5 12.5,27.5 14.5,27.5 14.5,28.5 15.5,28.5 15.5,27.5 
		35.5,27.5 35.5,26.5 15.5,26.5 	"/>
	<path class="st0" d="M22.5,17.06543v5.86865L26.90137,20L22.5,17.06543z M23.5,18.93408L25.09863,20L23.5,21.06543V18.93408z"/>
</g>
<rect class="st1" width="48" height="48"/>
</svg>
