<?xml version="1.0" encoding="UTF-8"?>
<svg height="703" width="1250" xmlns="http://www.w3.org/2000/svg" xmlns:xlink="http://www.w3.org/1999/xlink" viewBox="12.2549 -0.4660 1225.4902 689.2157">
  <!-- Original Content Bounds: x="41.82" y="36.53" width="161.79" height="74.48" -->
  <!-- Logo Content -->
  <g transform="translate(171.2946344990633, 78.75547151526621) scale(3.69722825653699)">
<defs>
    <style>
      .cls-1 {
        fill: none;
      }

      .cls-2 {
        fill: url(#linear-gradient);
      }

      .cls-3 {
        clip-path: url(#clippath);
      }
    </style>
    <clipPath id="clippath">
      <path class="cls-1" d="M51.93,97.78l-3.9,7.16-3.9-7.16h-2.3v12.92h2.48v-7.81l2.8,5.18h1.84l2.8-5.18v7.81h2.48v-12.92h-2.3ZM70.87,97.78v12.92h7.28v-2.39h-4.81v-2.96h4.12v-2.38h-4.12v-2.81h4.64v-2.38h-7.11ZM127.29,100.53l1.64,4.77h-3.27l1.64-4.77ZM125.83,97.78l-4.64,12.92h2.61l1.03-3.01h4.91l1.03,3.01h2.63l-4.64-12.92h-2.93ZM169.84,100.18h.54c.97,0,1.8.2,2.48.61,1.17.71,1.77,1.86,1.77,3.45s-.59,2.77-1.77,3.48c-.68.41-1.51.61-2.48.61h-.54v-8.13ZM167.36,97.78v12.92h2.95c1.46,0,2.77-.32,3.93-.97.2-.11.43-.27.67-.47,1.46-1.2,2.2-2.89,2.2-5.04s-.74-3.81-2.21-5.01c-1.17-.96-2.71-1.44-4.59-1.44h-2.95ZM98.21,98.38c-1.02.6-1.82,1.43-2.41,2.5-.59,1.05-.88,2.17-.88,3.37s.29,2.33.88,3.38c.58,1.03,1.37,1.86,2.37,2.45,1.03.62,2.16.93,3.4.93,1.1,0,2.12-.27,3.05-.8.85-.49,1.49-1.16,1.94-2.02.54-1.03.81-2.2.81-3.49v-1.23h-5.97v2.38h3.39c-.14.69-.38,1.24-.75,1.67-.62.71-1.44,1.07-2.46,1.07-1.08,0-2.01-.36-2.78-1.09-.9-.85-1.36-1.93-1.36-3.25,0-1.15.35-2.14,1.06-2.97.78-.92,1.79-1.38,3.04-1.38.62,0,1.16.12,1.64.37.46.25,1.01.69,1.62,1.34l1.75-1.73c-.45-.45-.86-.81-1.21-1.08-1.16-.87-2.41-1.31-3.78-1.31-1.21,0-2.33.3-3.34.9M195.27,98.38c-1.02.6-1.82,1.43-2.41,2.5-.59,1.05-.88,2.17-.88,3.37s.29,2.33.88,3.38c.57,1.02,1.34,1.83,2.31,2.42,1.05.63,2.18.96,3.41.96s2.37-.34,3.38-1.02c.51-.34,1.05-.83,1.65-1.47l-1.75-1.72c-.61.66-1.16,1.13-1.64,1.39-.48.27-1.04.4-1.66.4-1.04,0-1.94-.36-2.71-1.09-.91-.84-1.36-1.93-1.36-3.25,0-1.15.35-2.13,1.06-2.96.79-.92,1.79-1.38,3-1.38.79,0,1.49.23,2.12.69.34.25.71.61,1.12,1.07l1.76-1.72c-.79-.86-1.58-1.5-2.37-1.88-.79-.39-1.66-.58-2.62-.58-1.19,0-2.29.3-3.3.9M115.54,85.2h6v-39.56h-6v39.56ZM130.68,85.2h11v-39.56h-11v39.56ZM149.41,85.2h16v-39.56h-16v39.56ZM170.63,85.2h22v-39.56h-22v39.56ZM42.36,36.53v48.67h3.5v-45.03h33.93l9.09,44.74h12.6l9.08-44.73h88.23v45.03h3.5v-48.67h-94.57l-9.08,44.73h-6.93l-9.09-44.73h-40.27Z"/>
    </clipPath>
    <linearGradient id="linear-gradient" x1="-369.31" y1="807.74" x2="-368.58" y2="807.87" gradientTransform="translate(85290.75 186550.57) scale(230.84 -230.84)" gradientUnits="userSpaceOnUse">
      <stop offset="0" stop-color="#c361ff"/>
      <stop offset=".14" stop-color="#c361ff"/>
      <stop offset=".24" stop-color="#b35dff"/>
      <stop offset=".44" stop-color="#8a53ff"/>
      <stop offset=".72" stop-color="#4844ff"/>
      <stop offset="1" stop-color="#03f"/>
    </linearGradient>
  </defs>
  <g class="cls-3">
    <rect class="cls-2" x="41.82" y="36.53" width="161.79" height="74.48"/>
  </g>
  </g>
</svg>