<svg xmlns="http://www.w3.org/2000/svg" viewBox="0 0 1250 703"><defs><style>.cls-1{fill:#e50013;}</style></defs><title>inventec-logo</title><g id="Layer_12" data-name="Layer 12"><rect class="cls-1" x="116.52" y="270" width="42.71" height="160.03"/><path class="cls-1" d="M432.35,290.8,392.66,398.2,353,290.8h-47s28.91,79.8,35.39,97.21c11.21,29.28,18.55,45,41.84,45,20.71,0,25.9-12.31,38-45,7.34-20.38,35.81-97.21,35.81-97.21Z"/><path class="cls-1" d="M241.65,287.83c-40.13,0-70.34,23.35-70.34,64.53V430H214V346c0-22.5,9.07-36.93,27.62-36.93s27.61,14.43,27.61,36.93v84H312V352.36C312,311.18,281.77,287.83,241.65,287.83Z"/><path class="cls-1" d="M566.1,360.42c0,28.44-14.67,51.36-38.39,51.36-24.17,0-38.83-22.92-38.83-51.36s14.23-51.36,37.53-51.36c16,0,26.31,9.76,32.36,25.46l-52.64,24.2L514.76,377l87.59-40.32h0c-10.79-28.44-40.56-48.39-75.08-48.82-44.87.43-81.1,32.68-81.1,72.59,0,40.32,36.23,72.58,81.54,72.58,44.87,0,81.11-32.26,81.11-72.58Z"/><path class="cls-1" d="M1133.48,309.06V287.83h-29.77c-49.19,0-90.18,28.87-90.18,72.59s41,72.58,90.18,72.58h29.77V411.78H1113.2c-35,0-55.23-17-55.23-51.36s20.28-51.36,55.23-51.36Z"/><path class="cls-1" d="M814.2,377.39V312h42.72V290.8H814.2V270H771.05V379.94c0,31.84,14.24,50.93,57.39,50.93h28.48V410.08h-8.21C820.24,410.08,814.2,404.14,814.2,377.39Z"/><path class="cls-1" d="M688.64,287.83c-40.13,0-69.9,23.35-69.9,64.53V430h42.72V346c0-22.5,9.06-36.93,27.18-36.93,18.55,0,27.61,14.43,27.61,36.93v84H759V352.36C759,311.18,729.2,287.83,688.64,287.83Z"/><path class="cls-1" d="M964.77,360.42c0,28.44-14.67,51.36-38.83,51.36s-38.4-22.92-38.4-51.36,14.24-51.36,37.54-51.36c15.53,0,25.89,9.76,32.36,25.46l-53.07,24.2L913,377l88-40.32h0c-11.22-28.44-40.56-48.39-75.51-48.82-44.87.43-80.68,32.68-80.68,72.59,0,40.32,36.25,72.58,81.11,72.58s81.55-32.26,81.55-72.58Z"/></g></svg>