<?xml version="1.0" encoding="UTF-8"?><svg id="LOGOS" xmlns="http://www.w3.org/2000/svg" xmlns:xlink="http://www.w3.org/1999/xlink" viewBox="0 0 1250 703"><defs><style>.cls-1{fill:url(#radial-gradient);}.cls-1,.cls-2,.cls-3{stroke-width:0px;}.cls-2{fill:#b1b3b3;}.cls-3{fill:#07497e;}</style><radialGradient id="radial-gradient" cx="8753.48129" cy="7443.03364" fx="8753.48129" fy="7443.03364" r="264.82371" gradientTransform="translate(1405.3405 9710.45446) rotate(-115.77324) scale(.99998 .42404)" gradientUnits="userSpaceOnUse"><stop offset=".176" stop-color="#fff"/><stop offset=".8775" stop-color="#fff" stop-opacity="0"/></radialGradient></defs><g id="Layer_4"><polygon class="cls-3" points="418.04371 228.23393 387.38778 293.98869 461.13974 452.59981 522.30351 452.59981 418.04371 228.23393"/><polygon class="cls-1" points="418.04371 228.23393 387.38778 293.98869 461.13974 452.59981 522.30351 452.59981 418.04371 228.23393"/><path class="cls-3" d="M522.5997,452.7479h-61.75615v-.14811l-73.75195-158.61111v-.14809l30.80403-66.19905.14811.44429,104.55596,224.66206ZM461.28782,452.3036h60.71948l-103.96359-223.47728-30.35974,65.16236,73.60385,158.31492Z"/><path class="cls-3" d="M294.08713,452.59981h-49.90845c-3.11002,0-5.18337-3.11003-3.70241-6.07196l107.07362-229.84543c1.18477-2.51764,3.70241-4.29479,6.36814-4.29479h56.57278l-109.73935,235.62118c-1.18477,2.66574-3.9986,4.59099-6.66433,4.59099Z"/><path class="cls-3" d="M294.08713,452.896h-49.90845c-1.48096,0-3.11002-.88859-3.70241-2.07334-.88858-1.18477-.88858-2.81382-.29619-4.29478l107.07362-229.84543c1.18477-2.81383,3.9986-4.29479,6.66433-4.29479h56.86897l-.29619.29619-109.73935,235.91734c-1.18477,2.36955-3.70241,4.29481-6.66433,4.29481ZM353.76993,212.98002c-2.81383,0-5.18337,1.48096-6.36814,3.9986l-107.22171,229.69734c-.59239,1.18477-.59239,2.81382.29619,3.70241.59239,1.18477,1.77716,1.77715,3.40621,1.77715h50.20464c2.81383,0,5.18337-1.48096,6.36814-3.9986l109.59125-235.32498h-56.27659v.14808Z"/><path class="cls-2" d="M559.70166,420.52075h3.91602l9.18115,31.86523h-5.04053l-2.11572-7.87622h-15.16748l-4.23047,7.87622h-5.04102l18.49805-31.86523ZM564.60742,440.729l-3.87061-14.62744h-.08984l-8.10156,14.62744h12.06201Z"/><path class="cls-2" d="M596.38232,452.38599h-4.05078l.40527-3.06055h-.08984c-.96094,1.14062-2.16064,2.02539-3.60059,2.65552-1.44043.63013-2.88086.94507-4.3208.94507-1.65039,0-3.10547-.2854-4.36572-.85498-1.26025-.56982-2.28857-1.36499-3.08301-2.3855-.79541-1.01978-1.35791-2.20532-1.68799-3.55566-.33057-1.3501-.37549-2.81982-.13477-4.41064.20947-1.59009.6748-3.06763,1.39502-4.43335.72021-1.36499,1.62012-2.5498,2.70068-3.55542,1.08008-1.00513,2.32471-1.79272,3.73535-2.36304,1.41016-.56958,2.94043-.85498,4.59082-.85498,1.53027,0,2.91797.32275,4.16309.96753,1.24512.64551,2.16748,1.52319,2.76807,2.63306h.08984l2.20557-15.75269h4.05078l-4.771,34.02563ZM585.76074,449.14551c1.08008,0,2.07715-.18701,2.99316-.56274.91455-.37476,1.71729-.88452,2.40771-1.53027.68994-.64478,1.26709-1.42456,1.73291-2.34033.46484-.91479.77197-1.91284.92236-2.99292.1499-1.08032.12744-2.07739-.06738-2.99292-.19531-.91504-.55566-1.69482-1.08008-2.34058-.52539-.64478-1.19287-1.15454-2.00293-1.53027-.81006-.37476-1.75537-.5625-2.83545-.5625s-2.07812.18774-2.99316.5625c-.91553.37573-1.72559.8855-2.43018,1.53027-.70557.64575-1.28271,1.42554-1.73291,2.34058-.4502.91553-.75049,1.9126-.8999,2.99292-.15088,1.08008-.12842,2.07812.06738,2.99292.19482.91577.54688,1.69556,1.05762,2.34033.50977.64575,1.17725,1.15552,2.00293,1.53027.82471.37573,1.77783.56274,2.85791.56274Z"/><path class="cls-2" d="M604.30322,433.66284c1.29004-1.05005,2.72314-1.83765,4.29834-2.36279,1.5752-.52466,3.11279-.7876,4.61328-.7876,1.56006,0,2.88037.19531,3.96094.58496,1.08008.39038,1.93506.91553,2.56543,1.5752.62988.6604,1.0498,1.41772,1.26025,2.27295.20947.85522.25439,1.74829.13477,2.67798l-1.53027,10.89185c-.12012.75024-.21045,1.44019-.27002,2.07031-.06055.63013-.08984,1.23071-.08984,1.80029h-3.60059c.0293-.54004.06738-1.08008.1123-1.62036.04492-.54004.11279-1.08008.20264-1.62012h-.08984c-1.11084,1.38037-2.31836,2.35571-3.62354,2.92554-1.30518.56958-2.76758.85498-4.38818.85498-.99023,0-1.9126-.13501-2.76758-.40503-.85547-.27002-1.58301-.67505-2.18311-1.21509-.60059-.54028-1.04297-1.20752-1.32764-2.00293-.28564-.79468-.35303-1.71729-.20264-2.76807.18018-1.37964.64502-2.53516,1.39502-3.46558.75-.92969,1.70264-1.68774,2.8584-2.27271,1.15479-.58521,2.45996-1.00513,3.91553-1.26025,1.45508-.25464,2.99316-.38257,4.61328-.38257h2.97021l.13525-.90015c.08984-.54004.06738-1.08032-.06738-1.62036-.13525-.54004-.38281-1.02734-.74268-1.46265-.36035-.43457-.84033-.78003-1.44043-1.03516-.60059-.25464-1.33545-.38257-2.20508-.38257-.78076,0-1.47852.0752-2.09326.2251-.61523.15039-1.16992.3374-1.66504.5625s-.96045.48804-1.39502.7876c-.43555.30029-.86328.58521-1.28271.85522l-2.0708-2.52051ZM614.55664,442.12427c-.96387,0-1.9585.05273-2.98242.15747-1.02441.10547-1.97412.30811-2.84717.60767-.87354.30029-1.61182.72021-2.21387,1.26025-.60303.54004-.96436,1.23071-1.08447,2.07031-.18018,1.23071.10596,2.11523.8584,2.65552.75244.54004,1.83691.81006,3.25342.81006,1.11475,0,2.08643-.18701,2.91504-.5625.82812-.375,1.52881-.8623,2.10107-1.46289.57275-.59985,1.01611-1.26709,1.33252-2.00269.31689-.73511.52002-1.46289.61084-2.18286l.22559-1.35034h-2.16895Z"/><path class="cls-2" d="M627.03223,431.05249h4.05029l-.40479,3.06055h.08984c.95996-1.14014,2.16016-2.02539,3.60059-2.65552s2.88037-.94507,4.3208-.94507c1.6499,0,3.10547.2854,4.36572.85498,1.26025.57031,2.2876,1.36572,3.08301,2.3855.79443,1.02026,1.3501,2.21313,1.66504,3.57812.31543,1.36572.36719,2.82837.15771,4.38818-.24023,1.59082-.71289,3.06812-1.41748,4.43311-.70557,1.36572-1.59814,2.55078-2.67822,3.55566-1.08008,1.00562-2.32568,1.79321-3.73535,2.36304-1.41113.56958-2.94141.85498-4.59082.85498-1.53027,0-2.92578-.32275-4.18604-.96753-1.26025-.64502-2.17578-1.52271-2.74512-2.63306h-.09033l-2.20508,15.75269h-4.05078l4.771-34.02563ZM637.65381,434.29297c-1.08008,0-2.07812.18774-2.99316.5625-.91553.37573-1.72559.8855-2.43018,1.53027-.70557.64575-1.28271,1.42554-1.73291,2.34058-.4502.91553-.75049,1.9126-.8999,2.99292-.15088,1.08008-.12842,2.07812.06738,2.99292.19482.91577.54688,1.69556,1.05762,2.34033.50977.64575,1.17725,1.15552,2.00293,1.53027.82471.37573,1.77783.56274,2.85791.56274s2.07715-.18701,2.99268-.56274c.91504-.37476,1.71777-.88452,2.4082-1.53027.68994-.64478,1.26709-1.42456,1.73291-2.34033.46484-.91479.77197-1.91284.92236-2.99292.1499-1.08032.12744-2.07739-.06738-2.99292-.19531-.91504-.55566-1.69482-1.08008-2.34058-.52539-.64478-1.19287-1.15454-2.00293-1.53027-.81006-.37476-1.75537-.5625-2.83545-.5625Z"/><path class="cls-2" d="M664.61084,434.56299h-5.82617l-1.32812,9.67651c-.08984.60059-.15723,1.19287-.20215,1.77783-.04541.58521-.00781,1.1106.1123,1.57544.11963.46558.36719.84033.74268,1.125.375.28564.95215.42773,1.73291.42773.47949,0,.98242-.04517,1.50781-.13501.52441-.09009,1.0127-.25464,1.4624-.49512l-.54297,3.69067c-.27148.15039-.58008.27002-.92676.35986-.34668.09009-.69336.15771-1.04004.20264s-.67773.08228-.99414.11255c-.31689.02954-.58057.04492-.7915.04492-1.56787,0-2.75098-.21802-3.5498-.65259s-1.35645-.99707-1.67236-1.68774c-.31641-.68994-.45166-1.46265-.40625-2.31787.04492-.85522.12695-1.71729.24756-2.58789l1.5752-11.11694h-4.68115l.49512-3.5105h4.68115l.85498-5.98608h4.05078l-.84131,5.98608h5.83691l-.49707,3.5105Z"/><path class="cls-2" d="M669.69824,431.05249h4.05078l-2.9707,21.3335h-4.05078l2.9707-21.3335ZM669.83301,423.40112c.11963-.81006.50977-1.50781,1.17041-2.09277.65967-.58521,1.39502-.87769,2.20508-.87769.81055,0,1.47021.29248,1.98047.87769.50977.58496.70459,1.28271.58496,2.09277-.12012.81006-.51025,1.50781-1.16992,2.09277-.66064.58521-1.39551.87769-2.20557.87769s-1.47021-.29248-1.97998-.87769c-.51074-.58496-.70557-1.28271-.58545-2.09277Z"/><path class="cls-2" d="M676.71924,431.05249h4.68066l4.0957,16.33765,8.4165-16.33765h4.32031l-11.3418,21.3335h-4.45557l-5.71582-21.3335Z"/><path class="cls-2" d="M702.19336,443.20435c-.12061.93042-.02979,1.77783.27148,2.54297.30078.76514.74463,1.41772,1.33252,1.95801.58691.54004,1.29541.96045,2.12354,1.26001.82861.30029,1.70996.4502,2.64355.4502,1.26514,0,2.40234-.29248,3.41162-.87769s1.979-1.35718,2.90918-2.31787l2.70068,2.34033c-2.64111,2.91064-5.98633,4.36572-10.03711,4.36572-1.68066,0-3.1582-.2854-4.43311-.85498-1.27539-.56982-2.31787-1.35742-3.12793-2.36304-.81006-1.00488-1.38037-2.18994-1.71045-3.55566-.33057-1.36499-.37549-2.84229-.13477-4.43311.20947-1.59009.68994-3.06763,1.43994-4.43335.75-1.36499,1.68799-2.5498,2.81299-3.55542,1.12549-1.00513,2.40039-1.79272,3.82568-2.36304,1.4248-.56958,2.93262-.85498,4.52344-.85498,1.89014,0,3.44287.33032,4.6582.98999,1.21533.6604,2.16748,1.52319,2.85791,2.58789.68994,1.06543,1.12549,2.26587,1.30518,3.60059.18018,1.33545.18018,2.6936,0,4.07324l-.22559,1.44019h-17.14697ZM715.51562,439.96387c.08984-.90015.05859-1.7251-.0918-2.47534-.15039-.74976-.4375-1.40234-.86084-1.95776-.42334-.55493-.99707-.99023-1.72217-1.30542-.7251-.31494-1.60107-.47241-2.62842-.47241-.99756,0-1.93408.18774-2.81055.5625-.87598.37549-1.6543.86279-2.33398,1.46289-.67969.60034-1.23145,1.26782-1.65479,2.00269-.42334.7356-.67969,1.46289-.77002,2.18286h12.87256Z"/><path class="cls-2" d="M738.42432,420.52075h11.1167c2.25049,0,4.18555.25513,5.80566.76514,1.62061.5105,2.99316,1.19263,4.11865,2.04785,1.125.85498,2.0249,1.83813,2.7002,2.948.67529,1.11035,1.17041,2.25024,1.48535,3.42041s.49512,2.34033.54004,3.51074c.04492,1.17017-.00781,2.25024-.15771,3.24048-.27002,2.04077-.91553,4.01343-1.93506,5.91846-1.02051,1.90576-2.37061,3.60059-4.05078,5.08594-1.68066,1.48511-3.66797,2.67773-5.96338,3.57788s-4.86865,1.35034-7.71875,1.35034h-10.39697l4.45605-31.86523ZM738.8291,448.33521h5.4458c1.83008,0,3.59326-.24756,5.28857-.74243,1.69482-.49512,3.23291-1.23779,4.61328-2.22803,1.37988-.98999,2.53516-2.22778,3.46533-3.71313.92969-1.48511,1.53027-3.21802,1.80029-5.19824.09033-.68994.12744-1.45508.11279-2.29541-.01562-.8396-.13525-1.70264-.36035-2.58789-.22461-.88477-.57764-1.74756-1.05762-2.58789-.47998-.83984-1.13281-1.58252-1.95752-2.22803-.82568-.64478-1.86084-1.17017-3.10547-1.5752-1.24561-.40503-2.72314-.60767-4.43359-.60767h-6.48096l-3.33057,23.76392Z"/><path class="cls-2" d="M768.8042,433.66284c1.29004-1.05005,2.72314-1.83765,4.29834-2.36279,1.5752-.52466,3.11279-.7876,4.61328-.7876,1.56006,0,2.88037.19531,3.96094.58496,1.08008.39038,1.93506.91553,2.56543,1.5752.62988.6604,1.0498,1.41772,1.26025,2.27295.20947.85522.25439,1.74829.13477,2.67798l-1.53027,10.89185c-.12012.75024-.21045,1.44019-.27002,2.07031-.06055.63013-.08984,1.23071-.08984,1.80029h-3.60059c.0293-.54004.06738-1.08008.1123-1.62036.04492-.54004.11279-1.08008.20264-1.62012h-.08984c-1.11084,1.38037-2.31836,2.35571-3.62354,2.92554-1.30518.56958-2.76758.85498-4.38818.85498-.99023,0-1.9126-.13501-2.76758-.40503-.85547-.27002-1.58301-.67505-2.18311-1.21509-.60059-.54028-1.04297-1.20752-1.32764-2.00293-.28564-.79468-.35303-1.71729-.20264-2.76807.18018-1.37964.64502-2.53516,1.39502-3.46558.75-.92969,1.70264-1.68774,2.8584-2.27271,1.15479-.58521,2.45996-1.00513,3.91553-1.26025,1.45508-.25464,2.99316-.38257,4.61328-.38257h2.97021l.13525-.90015c.08984-.54004.06738-1.08032-.06738-1.62036-.13525-.54004-.38281-1.02734-.74268-1.46265-.36035-.43457-.84033-.78003-1.44043-1.03516-.60059-.25464-1.33545-.38257-2.20508-.38257-.78076,0-1.47852.0752-2.09326.2251-.61523.15039-1.16992.3374-1.66504.5625s-.96045.48804-1.39502.7876c-.43555.30029-.86328.58521-1.28271.85522l-2.0708-2.52051ZM779.05762,442.12427c-.96387,0-1.9585.05273-2.98242.15747-1.02441.10547-1.97412.30811-2.84717.60767-.87354.30029-1.61182.72021-2.21387,1.26025-.60303.54004-.96436,1.23071-1.08447,2.07031-.18018,1.23071.10596,2.11523.8584,2.65552.75244.54004,1.83691.81006,3.25342.81006,1.11475,0,2.08643-.18701,2.91504-.5625.82812-.375,1.52881-.8623,2.10107-1.46289.57275-.59985,1.01611-1.26709,1.33252-2.00269.31689-.73511.52002-1.46289.61084-2.18286l.22559-1.35034h-2.16895Z"/><path class="cls-2" d="M802.5127,434.56299h-5.82617l-1.32812,9.67651c-.08984.60059-.15723,1.19287-.20215,1.77783-.04541.58521-.00781,1.1106.1123,1.57544.11963.46558.36719.84033.74268,1.125.375.28564.95215.42773,1.73291.42773.47949,0,.98242-.04517,1.50781-.13501.52441-.09009,1.0127-.25464,1.4624-.49512l-.54297,3.69067c-.27148.15039-.58008.27002-.92676.35986-.34668.09009-.69336.15771-1.04004.20264s-.67773.08228-.99414.11255c-.31689.02954-.58057.04492-.7915.04492-1.56787,0-2.75098-.21802-3.5498-.65259s-1.35645-.99707-1.67236-1.68774c-.31641-.68994-.45166-1.46265-.40625-2.31787.04492-.85522.12695-1.71729.24756-2.58789l1.5752-11.11694h-4.68115l.49512-3.5105h4.68115l.85498-5.98608h4.05078l-.84131,5.98608h5.83691l-.49707,3.5105Z"/><path class="cls-2" d="M807.01514,433.66284c1.29004-1.05005,2.72314-1.83765,4.29834-2.36279,1.5752-.52466,3.11279-.7876,4.61328-.7876,1.56006,0,2.88037.19531,3.96094.58496,1.08008.39038,1.93506.91553,2.56543,1.5752.62988.6604,1.0498,1.41772,1.26025,2.27295.20947.85522.25439,1.74829.13477,2.67798l-1.53027,10.89185c-.12012.75024-.21045,1.44019-.27002,2.07031-.06055.63013-.08984,1.23071-.08984,1.80029h-3.60059c.0293-.54004.06738-1.08008.1123-1.62036.04492-.54004.11279-1.08008.20264-1.62012h-.08984c-1.11084,1.38037-2.31836,2.35571-3.62354,2.92554-1.30518.56958-2.76758.85498-4.38818.85498-.99023,0-1.9126-.13501-2.76758-.40503-.85547-.27002-1.58301-.67505-2.18311-1.21509-.60059-.54028-1.04297-1.20752-1.32764-2.00293-.28564-.79468-.35303-1.71729-.20264-2.76807.18018-1.37964.64502-2.53516,1.39502-3.46558.75-.92969,1.70264-1.68774,2.8584-2.27271,1.15479-.58521,2.45996-1.00513,3.91553-1.26025,1.45508-.25464,2.99316-.38257,4.61328-.38257h2.97021l.13525-.90015c.08984-.54004.06738-1.08032-.06738-1.62036-.13525-.54004-.38281-1.02734-.74268-1.46265-.36035-.43457-.84033-.78003-1.44043-1.03516-.60059-.25464-1.33545-.38257-2.20508-.38257-.78076,0-1.47852.0752-2.09326.2251-.61523.15039-1.16992.3374-1.66504.5625s-.96045.48804-1.39502.7876c-.43555.30029-.86328.58521-1.28271.85522l-2.0708-2.52051ZM817.26855,442.12427c-.96387,0-1.9585.05273-2.98242.15747-1.02441.10547-1.97412.30811-2.84717.60767-.87354.30029-1.61182.72021-2.21387,1.26025-.60303.54004-.96436,1.23071-1.08447,2.07031-.18018,1.23071.10596,2.11523.8584,2.65552.75244.54004,1.83691.81006,3.25342.81006,1.11475,0,2.08643-.18701,2.91504-.5625.82812-.375,1.52881-.8623,2.10107-1.46289.57275-.59985,1.01611-1.26709,1.33252-2.00269.31689-.73511.52002-1.46289.61084-2.18286l.22559-1.35034h-2.16895Z"/><path class="cls-2" d="M865.12012,427.40674c-.75049-1.17017-1.77051-2.07031-3.06055-2.70044-1.29053-.63013-2.6709-.94507-4.14062-.94507-1.80029,0-3.47314.33765-5.01855,1.0127s-2.92529,1.59766-4.14062,2.76782c-1.21484,1.17017-2.21289,2.54297-2.99268,4.11816-.78076,1.57544-1.30518,3.26318-1.5752,5.06348-.24072,1.68066-.1958,3.27075.13477,4.77075.33008,1.50073.92969,2.8208,1.80029,3.96069.87012,1.14062,1.99512,2.04077,3.37549,2.70044,1.37988.6604,3,.99023,4.86084.99023,1.83008,0,3.48828-.375,4.97363-1.12524,1.48486-.74976,2.79736-1.80029,3.93799-3.15063l3.24072,2.74561c-.27002.33057-.75049.80298-1.44043,1.41772-.69043.61523-1.5752,1.23071-2.65527,1.84521-1.08057.61548-2.34814,1.15552-3.80322,1.62036-1.45605.46484-3.09863.69751-4.92822.69751-2.52051,0-4.72607-.48022-6.61621-1.44019-1.89062-.95996-3.43604-2.22021-4.63574-3.78052-1.20068-1.55981-2.04102-3.323-2.52051-5.28857-.48047-1.96484-.58496-3.95288-.31494-5.96338.35986-2.45996,1.08691-4.73291,2.18262-6.8186,1.09521-2.08521,2.48242-3.8855,4.16309-5.40088,1.68018-1.51489,3.60059-2.69287,5.76123-3.5332,2.16016-.8396,4.47021-1.26025,6.93115-1.26025,2.09961,0,4.10254.39819,6.0083,1.19287,1.90527.79517,3.38281,2.04785,4.43359,3.75806l-3.96094,2.74536Z"/><path class="cls-2" d="M873.44629,443.20435c-.12061.93042-.02979,1.77783.27148,2.54297.30078.76514.74463,1.41772,1.33252,1.95801.58691.54004,1.29541.96045,2.12354,1.26001.82861.30029,1.70996.4502,2.64355.4502,1.26514,0,2.40234-.29248,3.41162-.87769s1.979-1.35718,2.90918-2.31787l2.70068,2.34033c-2.64111,2.91064-5.98633,4.36572-10.03711,4.36572-1.68066,0-3.1582-.2854-4.43311-.85498-1.27539-.56982-2.31787-1.35742-3.12793-2.36304-.81006-1.00488-1.38037-2.18994-1.71045-3.55566-.33057-1.36499-.37549-2.84229-.13477-4.43311.20947-1.59009.68994-3.06763,1.43994-4.43335.75-1.36499,1.68799-2.5498,2.81299-3.55542,1.12549-1.00513,2.40039-1.79272,3.82568-2.36304,1.4248-.56958,2.93262-.85498,4.52344-.85498,1.89014,0,3.44287.33032,4.6582.98999,1.21533.6604,2.16748,1.52319,2.85791,2.58789.68994,1.06543,1.12549,2.26587,1.30518,3.60059.18018,1.33545.18018,2.6936,0,4.07324l-.22559,1.44019h-17.14697ZM886.76855,439.96387c.08984-.90015.05859-1.7251-.0918-2.47534-.15039-.74976-.4375-1.40234-.86084-1.95776-.42334-.55493-.99707-.99023-1.72217-1.30542-.7251-.31494-1.60107-.47241-2.62842-.47241-.99756,0-1.93408.18774-2.81055.5625-.87598.37549-1.6543.86279-2.33398,1.46289-.67969.60034-1.23145,1.26782-1.65479,2.00269-.42334.7356-.67969,1.46289-.77002,2.18286h12.87256Z"/><path class="cls-2" d="M896.26514,431.05249h4.05029l-.44971,3.2854h.08984c.68994-1.13989,1.71045-2.0625,3.06055-2.76782,1.3501-.70459,2.8501-1.05762,4.50049-1.05762,1.02002,0,1.98047.15747,2.88086.47241.8999.31519,1.65723.80322,2.27246,1.46289.61475.66016,1.05811,1.50757,1.32812,2.54272s.29932,2.2583.08984,3.66821l-1.89014,13.72729h-4.05078l1.75537-12.60205c.11914-.99023.09668-1.83765-.06787-2.54297-.16504-.70459-.43506-1.2749-.81006-1.71021-.37549-.43481-.84814-.74976-1.41748-.94531-.57031-.19482-1.17041-.29248-1.80029-.29248-.84033,0-1.64307.13501-2.4082.40503s-1.45557.69775-2.07031,1.28271c-.61523.58521-1.13281,1.32764-1.55273,2.22778-.42041.90039-.72021,1.96558-.8999,3.19556l-1.53027,10.98193h-4.05078l2.9707-21.3335Z"/><path class="cls-2" d="M931.36865,434.56299h-5.82617l-1.32812,9.67651c-.08984.60059-.15723,1.19287-.20215,1.77783-.04541.58521-.00781,1.1106.1123,1.57544.11963.46558.36719.84033.74268,1.125.375.28564.95215.42773,1.73291.42773.47949,0,.98242-.04517,1.50781-.13501.52441-.09009,1.0127-.25464,1.4624-.49512l-.54297,3.69067c-.27148.15039-.58008.27002-.92676.35986-.34668.09009-.69336.15771-1.04004.20264s-.67773.08228-.99414.11255c-.31689.02954-.58057.04492-.7915.04492-1.56787,0-2.75098-.21802-3.5498-.65259s-1.35645-.99707-1.67236-1.68774c-.31641-.68994-.45166-1.46265-.40625-2.31787.04492-.85522.12695-1.71729.24756-2.58789l1.5752-11.11694h-4.68115l.49512-3.5105h4.68115l.85498-5.98608h4.05078l-.84131,5.98608h5.83691l-.49707,3.5105Z"/><path class="cls-2" d="M937.44678,443.20435c-.12061.93042-.02979,1.77783.27148,2.54297.30078.76514.74463,1.41772,1.33252,1.95801.58691.54004,1.29541.96045,2.12354,1.26001.82861.30029,1.70996.4502,2.64355.4502,1.26514,0,2.40234-.29248,3.41162-.87769s1.979-1.35718,2.90918-2.31787l2.70068,2.34033c-2.64111,2.91064-5.98633,4.36572-10.03711,4.36572-1.68066,0-3.1582-.2854-4.43311-.85498-1.27539-.56982-2.31787-1.35742-3.12793-2.36304-.81006-1.00488-1.38037-2.18994-1.71045-3.55566-.33057-1.36499-.37549-2.84229-.13477-4.43311.20947-1.59009.68994-3.06763,1.43994-4.43335.75-1.36499,1.68799-2.5498,2.81299-3.55542,1.12549-1.00513,2.40039-1.79272,3.82568-2.36304,1.4248-.56958,2.93262-.85498,4.52344-.85498,1.89014,0,3.44287.33032,4.6582.98999,1.21533.6604,2.16748,1.52319,2.85791,2.58789.68994,1.06543,1.12549,2.26587,1.30518,3.60059.18018,1.33545.18018,2.6936,0,4.07324l-.22559,1.44019h-17.14697ZM950.76904,439.96387c.08984-.90015.05859-1.7251-.0918-2.47534-.15039-.74976-.4375-1.40234-.86084-1.95776-.42334-.55493-.99707-.99023-1.72217-1.30542-.7251-.31494-1.60107-.47241-2.62842-.47241-.99756,0-1.93408.18774-2.81055.5625-.87598.37549-1.6543.86279-2.33398,1.46289-.67969.60034-1.23145,1.26782-1.65479,2.00269-.42334.7356-.67969,1.46289-.77002,2.18286h12.87256Z"/><path class="cls-2" d="M960.26562,431.05249h4.05029l-.44971,3.2854h.08984c.68994-1.13989,1.68018-2.0625,2.97021-2.76782,1.29004-.70459,2.61084-1.05762,3.96094-1.05762.65967,0,1.24463.08984,1.75537.27002l-.81006,4.36572c-.33057-.09009-.65283-.16455-.96777-.2251-.31494-.05981-.6377-.09009-.96777-.09009-1.98047,0-3.5708.55566-4.771,1.66528-1.2002,1.11035-1.96533,2.83545-2.29492,5.17603l-1.48535,10.71167h-4.05078l2.9707-21.3335Z"/><path class="cls-2" d="M986.59473,436.4082c-.39062-.59985-.9082-1.10254-1.55273-1.50757-.64551-.40503-1.47852-.60767-2.49805-.60767-.96045,0-1.82275.20264-2.58789.60767s-1.19287.9978-1.28271,1.77783c-.08984.62988.03711,1.14062.38232,1.53003.34473.39038.78027.70557,1.30518.94531.5249.24048,1.0874.42041,1.68799.54004.6001.12036,1.125.2251,1.5752.31519.83984.21021,1.62012.46533,2.34033.76489.72021.30029,1.32764.69067,1.82275,1.17041.49512.48022.84766,1.06543,1.05811,1.75513.20947.69067.25439,1.53027.13477,2.52051-.18018,1.20044-.57812,2.22778-1.19287,3.08301-.61523.85522-1.37256,1.55273-2.27246,2.09277-.90039.54004-1.8833.93042-2.94824,1.17017-1.06543.23999-2.12305.36011-3.17285.36011-1.771,0-3.27881-.27002-4.52344-.81006-1.24561-.54004-2.30322-1.53027-3.17285-2.97046l3.37549-2.52051c.56934.6604,1.23193,1.24536,1.98584,1.75537.75391.5105,1.71924.76514,2.896.76514,1.05469,0,2.06543-.21729,3.03027-.65259.96484-.43457,1.52344-1.11743,1.67432-2.04785.09033-.59985-.02295-1.09497-.33936-1.48535-.31689-.38965-.72314-.69751-1.22021-.92261-.49756-.2251-1.03955-.40503-1.62744-.54004s-1.09229-.24756-1.51416-.33765c-.84375-.20947-1.64258-.44995-2.396-.72021-.75391-.27002-1.40137-.62988-1.94385-1.08008-.54248-.44995-.94141-1.01978-1.19727-1.71021-.25635-.68994-.30908-1.54517-.1582-2.56543.14941-1.10986.51758-2.07739,1.10254-2.90308.58496-.82495,1.29736-1.50781,2.1377-2.04785.83984-.54004,1.77002-.94507,2.79053-1.21509,1.02002-.27002,2.02539-.40503,3.01562-.40503,1.44043,0,2.78271.27002,4.02832.81006,1.24463.54004,2.16699,1.44019,2.76758,2.70044l-3.51025,2.38525Z"/><path class="cls-2" d="M896.99437,353.61894c0-9.18912,6.29628-15.14504,14.80473-15.14504s14.80473,5.61559,14.80473,15.14504c0,9.18912-6.29628,15.14504-14.80473,15.14504-8.50846-.34033-14.80473-6.29625-14.80473-15.14504M926.26349,302.90854v30.63044c-3.91387-5.27524-10.21015-9.52947-19.05896-9.52947-13.78371,0-25.35519,10.55049-25.35519,29.60943s11.57148,29.60942,25.69555,29.60942c8.1681,0,14.46438-3.57356,18.7186-9.18912v7.65761h14.80473v-78.78831h-14.80473ZM848.15587,336.77219c6.97694,0,11.23117,4.59456,11.91184,10.55048h-25.35519c1.87182-6.63659,6.46641-10.55048,13.44335-10.55048M848.49617,324.00951c-17.5274,0-28.75857,12.59252-28.75857,29.60943,0,16.84673,11.23117,29.60942,30.29008,29.60942,10.89081,0,17.5274-3.57356,22.46235-7.31728l-5.61556-12.5925c-3.91387,3.57356-9.52948,5.95592-16.16607,5.95592s-13.44335-3.2332-15.14504-10.89081v-.34033h41.18095v-4.08407c-.51054-18.20809-11.06105-29.94976-28.24814-29.94976M793.02103,324.00951c-8.1681,0-14.46438,3.9139-18.20812,9.52947v-8.16812h-14.46438v56.32597h14.80473v-26.71655c0-9.86981,3.57356-16.5064,12.2522-16.5064,6.29628,0,10.21015,3.9139,10.21015,11.91184v30.97078h15.14504v-34.88467c.17018-13.95386-6.80677-22.46231-19.73963-22.46231M749.96826,325.54104v52.4121c0,14.46438-6.97694,27.73757-30.63044,27.73757-10.55051,0-17.86776-2.89287-23.48332-7.65761l5.95592-13.44335c4.59459,4.59456,10.21015,6.97694,16.84673,6.97694,12.5925,0,16.50643-6.29625,16.50643-14.46438v-3.57356c-3.91387,5.27525-9.86979,8.84879-17.86776,8.84879-14.80473,0-26.37621-10.21015-26.37621-28.75857s11.91184-29.09892,26.03586-29.09892c8.84882,0,15.14504,4.25423,18.20812,9.18914v-7.65761h14.80473v-.51054h-.00005ZM735.67406,353.61894c0-9.18912-6.29628-15.14504-14.46438-15.14504-8.50846,0-14.80473,5.95592-14.80473,15.14504s6.29628,15.14504,14.80473,15.14504c8.1681-.34033,14.46438-5.95592,14.46438-15.14504ZM681.90061,325.54104h-14.80473v56.32597h14.80473v-56.32597ZM674.41318,299.84549c-5.27525,0-9.52948,4.25423-9.52948,9.52947s3.91387,9.52947,9.52948,9.52947,9.52948-3.9139,9.52948-9.52947c0-5.27524-4.25423-9.52947-9.52948-9.52947M654.84373,302.90854h-14.80473v78.44798h14.80473v-78.44798ZM589.66892,324.34985l13.44335,28.75858h-26.71657l13.27322-28.75858ZM616.04514,381.35652h17.35727l-36.58636-78.44798h-14.46438l-36.24603,78.44798h17.18709l5.61559-12.25217h41.18095l5.95587,12.25217Z"/><path class="cls-2" d="M954.59662,304.59361h-3.32195v-1.68507h8.57659v1.68507h-3.32362v9.15822h-1.93102v-9.15822Z"/><path class="cls-2" d="M961.41336,302.90854h3.01618l2.81843,7.70331h.04653l2.78685-7.70331h3.0328v10.8433h-1.9144v-8.71452h-.03157l-3.29204,8.71452h-1.34773l-3.24717-8.71452h-.02991v8.71452h-1.83796v-10.8433Z"/><rect class="cls-2" x="455.39195" y="258.54119" width=".62727" height=".62727"/></g></svg>