<?xml version="1.0" encoding="UTF-8"?><svg id="d" xmlns="http://www.w3.org/2000/svg" viewBox="0 0 1250 703"><defs><style>.e{fill:#01a982;}.f{fill:#fff;}</style></defs><path d="M671.11451,242.94695c2.89902.36036,5.80222.69043,8.69638,1.08626,12.96228,1.77281,25.27909,5.49639,36.4826,12.40808,14.98243,9.24298,25.40427,22.2018,30.8568,38.95959,6.20827,19.0806,6.38011,38.34062.09679,57.38346-7.26377,22.01423-22.48787,36.61554-43.86039,45.00112-11.37774,4.4641-23.26345,6.81301-35.44379,6.90221-31.2766.22909-62.55553.14536-93.83357.18647-.84022.00109-1.68045.0001-2.81577.0001v55.17886h-43.40037c-.02018-.66165-.05801-1.3233-.05801-1.98495-.00267-71.04539-.00267-142.09079,0-213.13622,0-.66165.03783-1.3233.05801-1.98495h143.22126l.00007-.00003ZM571.37968,363.13826h1.62333c29.82593-.00003,59.65192.01833,89.47785-.01467,6.40795-.00708,12.73743-.81758,18.90199-2.61688,13.06879-3.81453,21.63123-11.97823,24.26491-25.648,1.49938-7.78255,1.38254-15.57879-.48349-23.30799-2.68053-11.10312-9.35601-18.79449-19.89428-23.13646-7.7528-3.19433-15.90583-4.24914-24.20608-4.26067-29.22334-.0406-58.44683-.01577-87.67024-.0158h-2.01406v79.00047h.00007Z"/><path d="M429.88073,242.94695h43.40037c.02018.66165.05801,1.3233.05804,1.98495.00267,71.04539.00267,142.09082,0,213.13622-.00003.66165-.03786,1.3233-.05804,1.98495h-43.40037c-.02018-.78269-.05791-1.56539-.05801-2.34808-.00304-28.03904-.00257-56.07808-.00257-84.11712v-2.38831h-140.99066v88.85348h-43.40037v-217.10616h43.40037v86.36332h140.99062v-2.24907c0-27.25539-.00048-54.51078.00253-81.76613.00007-.78271.03783-1.56541.05801-2.34812l.00007.00007Z"/><path class="e" d="M791.55053,460.05311c.05459-.897.15692-1.79403.15706-2.69104.0078-43.40126.00677-86.80248.00698-130.20374,0-1.75446.88907-2.63197,2.66706-2.63251,69.28813-.00017,138.57632.00048,207.86445-.00694.89659-.0001,1.79304-.10247,2.68963-.15713v40.88832c-.54027-.03311-1.0806-.09519-1.62087-.09522-55.38479-.00441-110.76959-.00496-166.15438-.0014-2.36601.00017-2.37209.01895-2.37237,2.4535-.00192,16.09884-.01149,32.19771.00746,48.29655.00397,3.30679-.65095,3.36384,3.26896,3.3636,54.78207-.00339,109.56421-.00185,164.34636-.00646.84166-.00007,1.68325-.06252,2.52491-.09587v40.88832h-213.38518l-.00007.00003Z"/><path d="M1004.93571,284.19714c-.72209-.01977-1.44411-.05684-2.16619-.05688-55.08408-.0027-110.16817-.00246-165.25225-.00246h-2.46314v19.99384h-43.48211c-.02976-.54358-.07846-1.01931-.07853-1.49507-.00349-19.5962-.00287-39.19241.00021-58.78861.00007-.30033.03701-.60067.05684-.901h213.38518v41.25018Z"/><path class="f" d="M245.42917,242.94695v217.10616c-.12056-.06033-.34134-.11431-.34558-.18196-.03017-.48055-.01608-.9639-.01608-1.44636,0-71.28321-.00082-142.56638.01495-213.84955.00014-.5428.22618-1.08553.34671-1.62831v.00002Z"/></svg>