<?xml version="1.0" encoding="UTF-8"?><svg id="LOGO" xmlns="http://www.w3.org/2000/svg" viewBox="0 0 1250 703"><defs><style>.cls-1{fill:#ed1c24;}.cls-1,.cls-2{stroke-width:0px;}</style></defs><path class="cls-2" d="m299.67292,370.76175v-1.72863l-14.54222-12.61385h-1.70013c-3.99917,4.45564-10.17778,7.7931-17.08658,7.7931-10.78819,0-19.27158-8.28372-19.27158-19.65958,0-11.37015,8.4834-19.65387,19.27158-19.65387,6.9088,0,13.08741,3.33746,17.08658,7.78738h1.70013l14.54222-12.60813v-1.73434c-7.63342-9.3905-19.63685-15.44926-33.20914-15.44926-24.96531,0-43.8718,17.79973-43.8718,41.65821,0,.92992.21101,1.77427.26812,2.68138,10.21782,7.00008,19.23746,12.60244,27.00772,17.72557,11.18758,7.13701,20.22428,13.70351,27.66949,19.8079,9.27627-2.36759,16.79565-7.48501,22.1356-14.00588"/><path class="cls-2" d="m354.09037,332.56476c0,5.3114-3.87939,7.9072-8.36361,7.9072h-11.14771v-16.31642h11.14771c4.48423,0,8.36361,2.96661,8.36361,8.40922m29.81463,48.33313l-3.63425-15.82008-1.33486-.86717c-.72462.37083-1.33503.86717-3.14919.86717-2.78984,0-4.48423-2.97233-5.93904-5.31711-2.42457-3.70828-4.36427-5.68793-6.05865-6.5551,8.84275-3.95359,14.78161-11.37015,14.78161-22.00435,0-16.44193-11.14754-26.82511-31.87393-26.82511h-36.11302v80.35554h23.99538v-28.18862h2.17944c5.3342,0,12.12322,11.62118,15.27241,16.81276,6.5437,10.50868,11.75812,12.85917,21.08575,12.85917,4.36444,0,7.99852-1.60882,10.18352-3.58847l.60484-1.72864Z"/><path class="cls-2" d="m452.13884,344.55391c0,11.49567-8.72871,19.65388-19.51132,19.65388-10.78819,0-19.5169-8.15821-19.5169-19.65388s8.72871-19.65387,19.5169-19.65387c10.78262,0,19.51132,8.15821,19.51132,19.65387m24.48043,0c0-23.85849-18.90666-41.65821-43.99175-41.65821-25.09066,0-43.99715,17.79973-43.99715,41.65821s18.90649,41.65823,43.99715,41.65823c25.08509,0,43.99175-17.92525,43.99175-41.65823"/><polygon class="cls-2" points="596.72533 304.37728 573.8195 304.37728 559.6368 348.88232 544.6097 304.37728 530.06748 304.37728 515.16017 348.6313 500.97747 304.37728 478.07182 304.37728 476.9821 306.23142 506.31168 384.73282 520.85389 384.73282 537.34138 340.96943 553.94307 384.73282 568.48529 384.73282 597.81487 306.23142 596.72533 304.37728"/><path class="cls-2" d="m661.20252,344.55621c0,13.10448-7.63899,20.39552-18.18204,20.39552h-11.75237v-40.79675h11.75237c10.54305,0,18.18204,7.29674,18.18204,20.40122m24.48043-.12552c0-23.98399-15.87725-40.05511-41.69253-40.05511h-36.72343v80.35554h36.72343c25.81529,0,41.69253-16.0711,41.69253-40.30043"/><polygon class="cls-2" points="812.80105 324.15668 836.79642 324.15668 836.79642 304.3773 764.80438 304.3773 764.80438 324.15668 788.8055 324.15668 788.8055 384.73283 812.80105 384.73283 812.80105 324.15668"/><path class="cls-2" d="m889.03392,332.56135c0,5.3171-3.87939,7.91289-8.36361,7.91289h-11.14771v-16.31641h11.14771c4.48423,0,8.36361,2.96661,8.36361,8.40352m24.48043-1.35781c0-16.44193-11.14771-26.82511-31.87411-26.82511h-36.11877v80.34983h24.00112v-28.18291h5.69373l14.90732,28.18291h23.87559l1.08954-1.85413-15.99686-29.79174c8.60318-4.07911,14.42244-11.37015,14.42244-21.87885"/><rect class="cls-2" x="928.05309" y="304.37386" width="23.99538" height="80.35554"/><polygon class="cls-2" points="1012.89175 340.351 1040.04189 306.22916 1038.9466 304.37501 1013.37663 304.37501 991.19542 332.93445 991.19542 304.37501 967.20005 304.37501 967.20005 384.73054 991.19542 384.73054 991.19542 360.00489 995.55969 354.8133 1015.92099 384.73054 1041.01183 384.73054 1042.10154 382.8764 1012.89175 340.351"/><polygon class="cls-2" points="1108.6349 324.15668 1108.6349 304.3773 1048.64055 304.3773 1048.64055 384.73283 1109 384.73283 1109 364.95345 1072.64167 364.95345 1072.64167 353.82291 1100.03155 353.82291 1100.03155 335.28152 1072.64167 335.28152 1072.64167 324.15668 1108.6349 324.15668"/><path class="cls-2" d="m726.27375,385.68613c17.5772,0,32.83812-8.64884,32.83812-25.33038,0-18.17627-15.3807-22.87722-28.95873-26.83082-5.3342-1.60882-10.79393-3.46296-10.79393-7.42226,0-2.8411,3.03498-4.57543,7.64474-4.57543,7.8843,0,14.54204,4.94628,17.93655,8.16392h1.69438l11.26749-13.60082v-1.72864c-5.93886-6.7947-18.05076-11.98058-31.38331-11.98058-18.66692,0-31.6288,10.13214-31.6288,24.83405,0,15.83149,14.29673,22.75741,26.40863,26.21467,7.8843,2.23068,13.22425,2.6015,13.22425,6.92593,0,3.09213-3.7596,4.94626-9.58443,4.94626-7.39942,0-16.36213-4.82076-20.72083-9.15089h-1.69438l-11.14754,14.09717v1.72863c7.14837,8.027,19.99046,13.70922,34.89777,13.70922"/><path class="cls-1" d="m312.56515,459.53963c-5.80776-13.40115-17.48597-30.59044-63.22904-55.13924-21.09167-11.81514-57.13609-29.99711-89.54644-64.55827,2.94393,12.47693,17.98809,39.88966,82.72313,74.12563,17.92524,9.87543,48.23624,19.13472,70.05235,45.57188"/><path class="cls-1" d="m309.64647,436.58995c-5.51684-15.83149-15.47211-36.10721-62.69854-66.22414-23.00263-15.18112-56.76507-34.23596-101.2189-82.84292,3.17775,13.10447,17.2236,47.16928,88.00614,91.40048,23.25369,15.86573,53.26227,25.65558,75.9113,57.66657"/></svg>