<svg id="LOGO" xmlns="http://www.w3.org/2000/svg" xmlns:xlink="http://www.w3.org/1999/xlink" viewBox="0 0 1250 703"><defs><style>.cls-1{fill:none;}.cls-2{clip-path:url(#clip-path);}.cls-3{fill:#e1251b;}.cls-4{fill:#fff;}</style><clipPath id="clip-path"><rect class="cls-1" x="288.9926" y="239.4892" width="672.0149" height="224.0216"/></clipPath></defs><g id="lenovo-logo-horizontal"><g class="cls-2"><polygon class="cls-3" points="288.942 463.511 961.007 463.511 961.007 239.489 288.942 239.489 288.942 463.511 288.942 463.511"/></g><path class="cls-4" d="M581.73,314.99c-9.9247,0-21.2146,4.6008-28.1133,13.8131l.0054-.0164-.0054.0063.0054-12.3588H529.9423v86.2225h23.6739V353.5971c0-8.831,6.8445-18.2159,19.52-18.2159,9.7978,0,19.9334,6.8122,19.9334,18.2159v49.0594h23.6761V349.2076c0-19.8272-14.1857-34.2178-35.0159-34.2178"/><polygon class="cls-4" points="785.019 316.441 763.613 375.173 742.208 316.441 715.166 316.441 750.643 402.631 776.584 402.631 812.061 316.441 785.019 316.441 785.019 316.441"/><path class="cls-4" d="M459.2616,342.4147c4.0315-5.413,10.4552-8.59,18.2112-8.59,8.5332,0,15.006,4.8725,18.35,12.0615l-41.3619,17.16c-1.132-8.8036,1.1215-15.6923,4.8-20.6316Zm45.4857,33.7335c-9.9658,7.373-15.6591,9.1351-24.7458,9.1351-8.1778,0-14.5784-2.5392-19.0934-6.992L521.436,353.18c-1.32-9.3585-4.87-17.7144-10.3368-24.07-7.9518-9.2393-19.7242-14.1248-34.0531-14.1248-26.0346,0-45.6664,19.2068-45.6664,44.5723,0,26.0215,19.6755,44.565,48.2723,44.565,16.0221,0,32.4041-7.5943,40.0656-16.4647l-14.97-11.51Z"/><polygon class="cls-4" points="429.124 380.918 375.311 380.918 375.311 290.653 351.316 290.653 351.316 402.657 429.124 402.657 429.124 380.918 429.124 380.918"/><path class="cls-4" d="M854.5732,335.2744c-13.2228,0-22.8207,10.0189-22.8207,24.2759,0,13.6089,10.1692,24.2721,23.14,24.2721,13.2229,0,22.8208-10.2957,22.8208-24.2721,0-13.6127-10.1649-24.2759-23.14-24.2759m0,68.8355c-25.8954,0-46.1792-19.2891-46.1792-44.56,0-24.9887,20.4266-44.5647,46.4985-44.5647,25.8914,0,46.1751,19.29,46.1751,44.5647,0,24.9819-20.4223,44.56-46.4944,44.56"/><path class="cls-4" d="M672.29,335.2744c-13.2233,0-22.8191,10.0189-22.8191,24.2759,0,13.6089,10.167,24.2721,23.1391,24.2721,13.2234,0,22.8217-10.2957,22.8217-24.2721,0-13.6127-10.1671-24.2759-23.1417-24.2759m0,68.8355c-25.893,0-46.1781-19.2891-46.1781-44.56,0-24.9887,20.425-44.5647,46.4981-44.5647,25.8909,0,46.1768,19.29,46.1768,44.5647,0,24.9819-20.4249,44.56-46.4968,44.56"/></g></svg>